<?xml version="1.0" encoding="UTF-8" standalone="no"?>
<!-- Created with Inkscape (http://www.inkscape.org/) -->

<svg
   width="41.008999mm"
   height="41.008999mm"
   viewBox="0 0 41.008999 41.008999"
   version="1.1"
   id="svg1"
   inkscape:version="1.4.2 (f4327f4, 2025-05-13)"
   sodipodi:docname="185.svg"
   xmlns:inkscape="http://www.inkscape.org/namespaces/inkscape"
   xmlns:sodipodi="http://sodipodi.sourceforge.net/DTD/sodipodi-0.dtd"
   xmlns="http://www.w3.org/2000/svg"
   xmlns:svg="http://www.w3.org/2000/svg">
  <sodipodi:namedview
     id="namedview1"
     pagecolor="#ffffff"
     bordercolor="#000000"
     borderopacity="0.25"
     inkscape:showpageshadow="2"
     inkscape:pageopacity="0.0"
     inkscape:pagecheckerboard="0"
     inkscape:deskcolor="#d1d1d1"
     inkscape:document-units="mm"
     inkscape:zoom="1.5878906"
     inkscape:cx="108.3198"
     inkscape:cy="200.26568"
     inkscape:window-width="1050"
     inkscape:window-height="1081"
     inkscape:window-x="3737"
     inkscape:window-y="0"
     inkscape:window-maximized="0"
     inkscape:current-layer="layer1" />
  <defs
     id="defs1" />
  <g
     inkscape:label="Layer 1"
     inkscape:groupmode="layer"
     id="layer1"
     transform="translate(-0.7937635,-0.79375582)">
    <g
       id="g15614"
       transform="translate(114.22973,76.423412)">
      <path
         style="fill:#000000;stroke-width:0.1;stroke-dasharray:none"
         d="m -94.649,-38.38664 c -1.04674,-0.0706 -1.6459,-0.14867 -2.43057,-0.31697 -4.03421,-0.8652 -7.55376,-3.44413 -9.61644,-7.04638 -1.62211,-2.83286 -2.2419,-6.1256 -1.76876,-9.39693 0.58103,-4.0173 2.86367,-7.65122 6.25939,-9.96485 2.50699,-1.70809 5.53243,-2.5988 8.55635,-2.51902 2.78197,0.0733 5.33415,0.86318 7.6421,2.36487 l 0.33747,0.21958 -0.74287,0.74286 -0.74286,0.74287 -0.2781,-0.17024 c -2.5594,-1.56676 -5.58067,-2.16153 -8.56932,-1.68696 -5.258,0.83491 -9.49516,5.02697 -10.37614,10.26571 -0.60421,3.59291 0.3241,7.20226 2.57186,9.99965 0.40461,0.50355 0.91678,1.04474 1.42487,1.50564 1.59603,1.44778 3.68159,2.50739 5.79489,2.94419 2.78561,0.57577 5.62259,0.21947 8.14524,-1.02298 1.91255,-0.94197 3.54345,-2.34452 4.77878,-4.10975 2.23069,-3.18753 2.84225,-7.32897 1.63279,-11.05703 -0.30101,-0.92782 -0.81085,-2.02236 -1.27974,-2.74737 l -0.11829,-0.18292 0.73686,-0.73779 c 0.40528,-0.40577 0.74243,-0.73768 0.74922,-0.73756 0.02,3.6e-4 0.31002,0.4475 0.53769,0.82903 0.54771,0.9178 0.95328,1.80923 1.30382,2.86575 0.74906,2.25766 0.93365,4.68257 0.53625,7.04489 -0.6159,3.66117 -2.63588,6.98214 -5.61341,9.22883 -2.23225,1.68435 -4.78581,2.6579 -7.62968,2.90889 -0.29865,0.0263 -1.59859,0.0505 -1.8414,0.034 z m -3.71701,-13.45019 c -0.70249,-0.0972 -1.20119,-0.44765 -1.35998,-0.95565 -0.0652,-0.20869 -0.0655,-0.53888 -6.4e-4,-0.74378 0.13452,-0.42478 0.50247,-0.7382 1.04414,-0.88942 0.17039,-0.0476 0.25013,-0.0535 0.70432,-0.053 0.58751,6.4e-4 0.74641,0.0302 1.10215,0.20499 0.47523,0.23354 0.72138,0.61281 0.72002,1.10942 -0.002,0.67381 -0.42308,1.12395 -1.21243,1.29561 -0.20951,0.0455 -0.76954,0.0634 -0.9976,0.032 z m 0.64261,-0.46102 c 0.23653,-0.12067 0.37934,-0.46688 0.37758,-0.9153 -0.002,-0.51882 -0.21496,-0.85658 -0.5579,-0.88503 -0.16573,-0.0138 -0.28753,0.0269 -0.40877,0.13645 -0.38512,0.34794 -0.38152,1.26563 0.006,1.59756 0.16923,0.14485 0.38152,0.16901 0.58283,0.0663 z m 12.42773,0.45178 c -0.36952,-0.0577 -0.64931,-0.16589 -0.89389,-0.34542 -0.15623,-0.11469 -0.27055,-0.25731 -0.36073,-0.44999 -0.22454,-0.47983 -0.13521,-1.00775 0.23286,-1.37624 0.17499,-0.17516 0.39762,-0.29937 0.70562,-0.39366 0.20699,-0.0634 0.24514,-0.067 0.71857,-0.0685 0.44325,-0.002 0.52489,0.005 0.71949,0.054 0.72052,0.18256 1.13411,0.64257 1.13411,1.2614 0,0.60046 -0.40143,1.0785 -1.05383,1.25497 -0.36278,0.0981 -0.82404,0.12242 -1.2022,0.0634 z m 0.58536,-0.40617 c 0.15279,-0.0417 0.33331,-0.24254 0.40522,-0.45091 0.0502,-0.14548 0.0581,-0.21359 0.0578,-0.49781 -3.6e-4,-0.28844 -0.008,-0.34702 -0.0579,-0.47268 -0.23529,-0.58742 -0.87578,-0.57299 -1.09943,0.0248 -0.1784,0.47683 -0.0485,1.13827 0.26125,1.32966 0.14292,0.0883 0.27799,0.10923 0.43298,0.067 z m -18.60395,0.27685 c -0.031,-0.0503 -0.30233,-0.53837 -0.60288,-1.08461 l -0.54647,-0.99316 -0.29373,-0.007 -0.29373,-0.007 -0.007,-0.18902 -0.007,-0.18901 h 1.28146 1.28147 v 0.19511 0.19511 h -0.30286 -0.30287 l 0.42405,0.77438 c 0.23324,0.42589 0.43189,0.77269 0.44145,0.77066 0.018,-0.003 0.83482,-1.49429 0.8367,-1.52674 5.5e-4,-0.0105 -0.1087,-0.0183 -0.24284,-0.0183 h -0.24397 v -0.1951 -0.19513 h 0.87801 0.87802 v 0.19437 0.19436 l -0.29828,0.007 -0.29827,0.007 -0.58268,1.07923 -0.58268,1.07922 h -0.67969 -0.67966 z m 7.8951,0.0588 c -0.007,-0.0182 -0.009,-0.1088 -0.005,-0.20137 l 0.007,-0.16832 0.29877,-0.007 0.29877,-0.007 v -0.87653 -0.87651 l -0.29877,-0.007 -0.29877,-0.007 -0.007,-0.18901 -0.007,-0.18903 h 1.18391 1.18391 v 0.19512 0.19513 h -0.29267 -0.29268 v 0.88006 0.88008 l 0.40853,-0.007 c 0.36371,-0.007 0.42189,-0.0144 0.53047,-0.0643 0.23548,-0.10797 0.41478,-0.34715 0.44378,-0.59198 l 0.0142,-0.12004 h 0.19215 0.19215 l -0.007,0.59144 -0.007,0.59143 -1.76284,0.006 c -1.46542,0.005 -1.76497,6.4e-4 -1.77552,-0.0268 z m 4.6682,-1.04649 -0.59498,-1.07923 -0.29792,-0.007 -0.29791,-0.007 v -0.19436 -0.19437 h 1.29366 1.29367 l -0.007,0.18902 -0.007,0.18902 -0.30781,0.007 -0.3078,0.007 0.40946,0.75824 c 0.2252,0.41704 0.41898,0.76777 0.43062,0.7794 0.0175,0.0176 0.86085,-1.47546 0.86085,-1.52402 0,-0.007 -0.10975,-0.015 -0.24389,-0.015 h -0.24389 v -0.1951 -0.19513 h 0.87801 0.87802 v 0.19437 0.19436 l -0.29698,0.007 -0.29697,0.007 -0.57495,1.05011 c -0.31622,0.57756 -0.58382,1.06321 -0.59467,1.07922 -0.0145,0.0214 -0.19967,0.0292 -0.69851,0.0292 h -0.67879 z m 10.22333,-7.76625 c -0.36013,-0.62215 -0.9638,-1.50062 -1.363,-1.98341 -0.061,-0.0738 -0.11444,-0.13914 -0.11875,-0.14526 -0.004,-0.006 -0.47688,0.45783 -1.05016,1.03098 l -1.04233,1.04213 -0.16619,-0.20175 c -0.46488,-0.5644 -0.99404,-1.09576 -1.63657,-1.64345 l -0.30825,-0.26274 1.03999,-1.0402 1.03998,-1.0402 -0.21553,-0.17102 c -0.32239,-0.2558 -0.74077,-0.56119 -1.06917,-0.7804 -0.31901,-0.21297 -0.97844,-0.61469 -1.11917,-0.68179 l -0.0881,-0.042 v -0.2028 -0.2028 h 3.34135 3.34134 v 3.34135 3.34135 h -0.18911 -0.18912 z"
         id="path3520" />
      <circle
         style="fill:none;stroke:#ff0000;stroke-width:0.1;stroke-dasharray:none"
         id="path788-8-1-8-1-9-2-1-4-2-2-4-5-1"
         cx="-92.931465"
         cy="-55.125156"
         r="19.954653" />
      <ellipse
         style="fill:none;stroke:#ff00ff;stroke-width:0.1;stroke-dasharray:none;stroke-opacity:1"
         id="path1138-9-4-0-0-1-2-6-7-2-6-6-394-3"
         cx="-92.931465"
         cy="-55.125156"
         rx="18.492125"
         ry="18.492126" />
      <circle
         style="fill:none;stroke:#0000ff;stroke-width:0.1;stroke-linecap:round;stroke-dasharray:none;stroke-opacity:1;paint-order:markers stroke fill"
         id="path13019-1-33-7-4-6-7-2-0-9"
         cx="-92.931465"
         cy="-70.136139"
         r="2" />
    </g>
  </g>
</svg>
