<?xml version="1.0" encoding="UTF-8" standalone="no"?>
<!-- Created with Inkscape (http://www.inkscape.org/) -->

<svg
   width="41.008999mm"
   height="41.008999mm"
   viewBox="0 0 41.008999 41.008999"
   version="1.1"
   id="svg1"
   inkscape:version="1.4.2 (f4327f4, 2025-05-13)"
   sodipodi:docname="186.svg"
   xmlns:inkscape="http://www.inkscape.org/namespaces/inkscape"
   xmlns:sodipodi="http://sodipodi.sourceforge.net/DTD/sodipodi-0.dtd"
   xmlns="http://www.w3.org/2000/svg"
   xmlns:svg="http://www.w3.org/2000/svg">
  <sodipodi:namedview
     id="namedview1"
     pagecolor="#ffffff"
     bordercolor="#000000"
     borderopacity="0.25"
     inkscape:showpageshadow="2"
     inkscape:pageopacity="0.0"
     inkscape:pagecheckerboard="0"
     inkscape:deskcolor="#d1d1d1"
     inkscape:document-units="mm"
     inkscape:zoom="1.5878906"
     inkscape:cx="108.3198"
     inkscape:cy="200.26568"
     inkscape:window-width="1050"
     inkscape:window-height="1081"
     inkscape:window-x="3737"
     inkscape:window-y="0"
     inkscape:window-maximized="0"
     inkscape:current-layer="layer1" />
  <defs
     id="defs1" />
  <g
     inkscape:label="Layer 1"
     inkscape:groupmode="layer"
     id="layer1"
     transform="translate(-0.7937635,-0.79375582)">
    <g
       id="g15608"
       transform="translate(72.029773,76.423415)">
      <path
         style="fill:#000000;stroke-width:0.1;stroke-dasharray:none"
         d="m -62.39995,-49.51567 c -1.77974,-0.29968 -3.41512,-1.50523 -4.16795,-3.0725 -0.81289,-1.69227 -0.81372,-3.40886 -0.002,-5.06607 0.51011,-1.04203 1.49777,-2.02488 2.53735,-2.52499 1.69495,-0.81539 3.4793,-0.81288 5.1117,0.007 0.28889,0.14513 0.63464,0.3411 0.76833,0.4355 l 0.24308,0.17162 0.41349,-0.2652 c 1.9948,-1.27938 4.34823,-1.27883 6.34449,0.002 l 0.41582,0.2667 0.41583,-0.2667 c 0.95224,-0.61073 2.1465,-0.97715 3.1848,-0.97715 0.99695,0 2.23409,0.38201 3.15969,0.97565 l 0.41349,0.2652 0.24308,-0.17163 c 0.81103,-0.57262 1.90694,-0.95715 2.95817,-1.03795 2.77834,-0.21356 5.43668,1.81843 5.9532,4.55053 0.16531,0.87442 0.16362,1.38672 -0.007,2.22832 -0.22022,1.08386 -0.72388,2.02212 -1.51191,2.81649 -1.04056,1.04896 -2.21389,1.59748 -3.67834,1.71961 -1.16173,0.0969 -2.62831,-0.30297 -3.62178,-0.98747 l -0.3262,-0.22475 -0.41819,0.26835 c -1.01189,0.64933 -1.96932,0.92965 -3.17521,0.92965 -1.20583,0 -2.16333,-0.28033 -3.17506,-0.92955 l -0.41803,-0.26825 -0.33072,0.21886 c -1.0367,0.68606 -1.96171,0.96694 -3.2109,0.97502 -1.23956,0.008 -2.18968,-0.26522 -3.21899,-0.92573 l -0.41819,-0.26835 -0.3262,0.22475 c -1.16577,0.80321 -2.77449,1.16381 -4.15501,0.93135 z m 2.33724,-1.32708 c 0.51334,-0.16979 1.27271,-0.56495 1.27271,-0.66229 0,-0.0273 -0.11591,-0.2304 -0.25757,-0.45128 -0.86075,-1.34208 -1.15201,-2.84551 -0.83821,-4.32656 0.13897,-0.65589 0.43964,-1.37038 0.83821,-1.99183 0.14166,-0.22088 0.25757,-0.42481 0.25757,-0.45317 0,-0.0284 -0.20682,-0.16923 -0.4596,-0.31303 -1.79122,-1.01902 -4.04125,-0.68763 -5.476,0.80651 -1.36877,1.42544 -1.6703,3.33347 -0.8058,5.09916 0.66377,1.35572 1.98624,2.29294 3.5461,2.5131 0.45666,0.0645 1.38162,-0.0417 1.92259,-0.22061 z m 6.91919,0.0893 c 0.39581,-0.10026 1.532,-0.67271 1.532,-0.77187 0,-0.0357 -0.0725,-0.15884 -0.16114,-0.27366 -0.31143,-0.40352 -0.61565,-1.00271 -0.81717,-1.60946 -0.16946,-0.51025 -0.20351,-0.79592 -0.20351,-1.70708 0,-1.30052 0.18427,-1.98786 0.80122,-2.98852 0.21197,-0.3438 0.37447,-0.63237 0.36111,-0.64126 -0.0134,-0.009 -0.14569,-0.0999 -0.29406,-0.20213 -0.41144,-0.28363 -1.1125,-0.53397 -1.78949,-0.63901 -0.82865,-0.12857 -1.69539,0.009 -2.49294,0.39649 -0.92185,0.44757 -0.8936,0.40713 -0.59203,0.84734 0.66389,0.96909 0.98597,2.02326 0.98597,3.22709 0,1.20384 -0.32208,2.258 -0.98597,3.22709 -0.30153,0.44016 -0.33076,0.39837 0.59514,0.85073 0.92324,0.45106 2.00555,0.55157 3.06087,0.28425 z m 7.17627,-5.3e-4 c 0.31149,-0.0799 1.11845,-0.45715 1.4358,-0.6712 0.0974,-0.0657 0.0704,-0.15423 -0.14122,-0.46321 -0.66389,-0.96913 -0.98597,-2.0233 -0.98597,-3.22713 0,-1.20384 0.32208,-2.258 0.98597,-3.22709 0.30157,-0.44021 0.32983,-0.39978 -0.59203,-0.84734 -0.79755,-0.38721 -1.66428,-0.52507 -2.49293,-0.3965 -0.677,0.10504 -1.37805,0.35538 -1.78949,0.63901 -0.14838,0.10229 -0.28071,0.19325 -0.29407,0.20214 -0.0134,0.009 0.14914,0.29745 0.36112,0.64126 0.61004,0.98947 0.80122,1.6921 0.80122,2.94475 0,1.38217 -0.21642,2.15291 -0.88908,3.16632 -0.36717,0.55317 -0.40021,0.49493 0.54202,0.95527 0.92342,0.45115 2.01224,0.55213 3.05866,0.28368 z m 7.22072,-0.0406 c 0.74161,-0.20847 1.25959,-0.50897 1.88372,-1.09282 1.828,-1.71 1.87929,-4.5109 0.11621,-6.34696 -1.43475,-1.49418 -3.68477,-1.82557 -5.476,-0.80655 -0.25278,0.14381 -0.4596,0.28467 -0.4596,0.31303 0,0.0284 0.11591,0.23229 0.25758,0.45318 0.39856,0.62144 0.69923,1.33593 0.8382,1.99183 0.31381,1.48104 0.0225,2.98447 -0.8382,4.32655 -0.14167,0.22088 -0.25758,0.42396 -0.25758,0.45128 0,0.078 0.70226,0.4631 1.15098,0.63118 0.85882,0.32171 1.8244,0.34918 2.78469,0.0792 z m -18.76019,-2.18152 c 0.52456,-0.94666 0.68768,-2.2057 0.41941,-3.23719 -0.13939,-0.53592 -0.63837,-1.53848 -0.79104,-1.58937 -0.13049,-0.0435 -0.61739,0.82687 -0.79314,1.41778 -0.22577,0.75911 -0.20386,1.93471 0.0498,2.67005 0.21924,0.6356 0.62003,1.32715 0.74514,1.2857 0.045,-0.0149 0.21141,-0.26103 0.36985,-0.54697 z m 7.07487,0.17623 c 0.54425,-0.92869 0.75122,-2.03613 0.57537,-3.07868 -0.11853,-0.70273 -0.67401,-1.90701 -0.87962,-1.90701 -0.19211,0 -0.75091,1.17848 -0.87788,1.8514 -0.12475,0.66115 -0.0654,1.57234 0.14293,2.19571 0.16372,0.4898 0.62818,1.33675 0.73306,1.33675 0.04,0 0.1778,-0.17918 0.30614,-0.39817 z m 7.15155,0.026 c 0.42973,-0.68432 0.62802,-1.42365 0.62802,-2.34161 0,-0.63606 -0.0464,-0.96548 -0.19724,-1.40068 -0.22145,-0.63885 -0.62145,-1.327 -0.74715,-1.28536 -0.15685,0.052 -0.6546,1.07002 -0.80023,1.63674 -0.1829,0.71171 -0.12661,1.85984 0.12343,2.51791 0.19656,0.5173 0.60448,1.24529 0.69765,1.24505 0.0341,-9e-5 0.16707,-0.16751 0.29552,-0.37205 z"
         id="path3506" />
      <circle
         style="fill:none;stroke:#ff0000;stroke-width:0.1;stroke-dasharray:none"
         id="path788-8-1-8-1-9-2-6-3-4-7-1-6"
         cx="-50.73151"
         cy="-55.12516"
         r="19.954653" />
      <ellipse
         style="fill:none;stroke:#ff00ff;stroke-width:0.1;stroke-dasharray:none;stroke-opacity:1"
         id="path1138-9-4-0-0-1-2-0-0-6-8-8-1"
         cx="-50.73151"
         cy="-55.12516"
         rx="18.492125"
         ry="18.492126" />
      <circle
         style="fill:none;stroke:#0000ff;stroke-width:0.1;stroke-linecap:round;stroke-dasharray:none;stroke-opacity:1;paint-order:markers stroke fill"
         id="path13019-1-33-3-83-70-3-7-5"
         cx="-50.73151"
         cy="-70.136131"
         r="2" />
    </g>
  </g>
</svg>
