<?xml version="1.0" encoding="UTF-8" standalone="no"?>
<!-- Created with Inkscape (http://www.inkscape.org/) -->

<svg
   width="41.008999mm"
   height="41.008999mm"
   viewBox="0 0 41.008999 41.008999"
   version="1.1"
   id="svg1"
   inkscape:version="1.4.2 (f4327f4, 2025-05-13)"
   sodipodi:docname="187.svg"
   xmlns:inkscape="http://www.inkscape.org/namespaces/inkscape"
   xmlns:sodipodi="http://sodipodi.sourceforge.net/DTD/sodipodi-0.dtd"
   xmlns="http://www.w3.org/2000/svg"
   xmlns:svg="http://www.w3.org/2000/svg">
  <sodipodi:namedview
     id="namedview1"
     pagecolor="#ffffff"
     bordercolor="#000000"
     borderopacity="0.25"
     inkscape:showpageshadow="2"
     inkscape:pageopacity="0.0"
     inkscape:pagecheckerboard="0"
     inkscape:deskcolor="#d1d1d1"
     inkscape:document-units="mm"
     inkscape:zoom="1.5878906"
     inkscape:cx="108.3198"
     inkscape:cy="200.26568"
     inkscape:window-width="1050"
     inkscape:window-height="1081"
     inkscape:window-x="3737"
     inkscape:window-y="0"
     inkscape:window-maximized="0"
     inkscape:current-layer="layer1" />
  <defs
     id="defs1" />
  <g
     inkscape:label="Layer 1"
     inkscape:groupmode="layer"
     id="layer1"
     transform="translate(-0.7937635,-0.79375582)">
    <g
       id="g15602"
       transform="translate(29.829983,76.461734)">
      <path
         style="fill:#000000;stroke-width:0.1;stroke-dasharray:none"
         d="m 6.7253588,-44.304346 c -2.5183074,3.587874 -6.0648167,6.018869 -10.5061042,7.201544 -3.7949346,1.010565 -7.0345676,0.919093 -10.8333706,-0.305844 -1.825417,-0.588614 -4.952179,-2.391514 -6.372381,-3.674708 -5.699251,-5.147673 -7.750471,-12.802379 -5.39019,-20.115031 0.583961,-1.809258 2.392453,-4.935056 3.683456,-6.367332 2.663764,-2.953996 5.433556,-4.659769 9.227278,-5.682579 4.561353,-1.229786 8.6875367,-0.876585 12.93411868,1.107149 4.98239802,2.327455 8.61319412,6.69405 10.06201822,12.1011 1.1728881,4.377278 0.7984841,8.698034 -1.1113248,12.824946 -0.5981607,1.292577 -0.7918849,1.625441 -1.6933617,2.91043 z m 1.5625539,-5.06775 C 9.429374,-52.704448 9.54081,-56.251412 8.6123736,-59.699311 8.1164899,-61.540857 7.110627,-63.92829 6.8623623,-63.852993 c -0.1886321,0.05721 -12.8117608,9.903815 -12.9282767,10.084631 -0.107492,0.166139 -2.2257091,16.076834 -2.1686138,16.28661 0.064366,0.236455 2.8688652,-0.152854 4.5741508,-0.634962 3.77381967,-1.0669 6.8456294,-3.146284 9.2943588,-6.291577 0.7268179,-0.933571 2.248008,-3.778685 2.6539313,-4.963805 z m -18.2557243,3.916241 c -0.6474634,-4.154868 -1.2179194,-7.723371 -1.2676794,-7.930008 -0.08111,-0.336734 -0.526867,-0.724221 -4.299516,-3.73742 -7.4944,-5.98573 -8.431106,-6.725486 -8.49203,-6.706471 -0.167934,0.05242 -1.228432,2.56745 -1.539545,3.651119 -0.946099,3.295393 -0.978402,6.303019 -0.102803,9.570832 1.164147,4.344626 3.759548,7.920493 7.529451,10.373851 2.47897,1.613241 5.378889,2.57129 8.4295658,2.784883 0.9093994,0.06368 1.014822,0.04298 0.9700169,-0.19051 -0.027629,-0.144105 -0.5800044,-3.661397 -1.2274603,-7.816276 z M 6.338352,-64.910728 c -0.676396,-1.03653 -1.6550517,-2.201187 -2.6164228,-3.113709 -6.7182083,-6.376854 -17.1749462,-6.523464 -24.1267232,-0.338286 -1.439452,1.280718 -3.55691,3.972762 -3.259765,4.144318 0.306507,0.176965 15.1360523,6.112142 15.2172987,6.090372 0.1174556,-0.03147 15.1153521,-6.15201 15.1435202,-6.179979 0.011289,-0.01195 -0.1492398,-0.282962 -0.3579079,-0.602716 z"
         id="path7511" />
      <circle
         style="fill:none;stroke:#ff0000;stroke-width:0.1;stroke-dasharray:none"
         id="path788-8-1-8-1-9-2-9-3-7-1-2-04-7"
         cx="-8.5317202"
         cy="-55.163479"
         r="19.954653" />
      <circle
         style="fill:none;stroke:#0000ff;stroke-width:0.1;stroke-linecap:round;stroke-dasharray:none;stroke-opacity:1;paint-order:markers stroke fill"
         id="path13019-1-33-5-7-7-4-6-7-8"
         cx="-8.5317278"
         cy="-70.174454"
         r="2" />
    </g>
  </g>
</svg>
