<?xml version="1.0" encoding="UTF-8" standalone="no"?>
<!-- Created with Inkscape (http://www.inkscape.org/) -->

<svg
   width="41.008999mm"
   height="41.008999mm"
   viewBox="0 0 41.008999 41.008999"
   version="1.1"
   id="svg1"
   inkscape:version="1.4.2 (f4327f4, 2025-05-13)"
   sodipodi:docname="188.svg"
   xmlns:inkscape="http://www.inkscape.org/namespaces/inkscape"
   xmlns:sodipodi="http://sodipodi.sourceforge.net/DTD/sodipodi-0.dtd"
   xmlns="http://www.w3.org/2000/svg"
   xmlns:svg="http://www.w3.org/2000/svg">
  <sodipodi:namedview
     id="namedview1"
     pagecolor="#ffffff"
     bordercolor="#000000"
     borderopacity="0.25"
     inkscape:showpageshadow="2"
     inkscape:pageopacity="0.0"
     inkscape:pagecheckerboard="0"
     inkscape:deskcolor="#d1d1d1"
     inkscape:document-units="mm"
     inkscape:zoom="1.5878906"
     inkscape:cx="108.3198"
     inkscape:cy="200.26568"
     inkscape:window-width="1050"
     inkscape:window-height="1081"
     inkscape:window-x="3737"
     inkscape:window-y="0"
     inkscape:window-maximized="0"
     inkscape:current-layer="layer1" />
  <defs
     id="defs1" />
  <g
     inkscape:label="Layer 1"
     inkscape:groupmode="layer"
     id="layer1"
     transform="translate(-0.7937635,-0.79375582)">
    <g
       id="g15597"
       transform="translate(-12.370297,76.461734)">
      <path
         style="fill:#000000;stroke-width:0.1;stroke-dasharray:none"
         d="m 45.79392,-45.16083 c -0.5373,-0.0498 -0.8004,-0.17711 -0.89825,-0.43447 -0.0852,-0.22398 -0.0784,-1.97938 0.008,-2.16978 0.0385,-0.0844 0.16171,-0.20902 0.27388,-0.27691 0.18386,-0.11127 0.36418,-0.12549 1.8311,-0.14441 l 1.62716,-0.021 v 0.39033 0.39032 l -1.46606,0.0173 -1.46605,0.0173 -0.0184,0.70364 c -0.0136,0.51893 0.003,0.71787 0.0644,0.75786 0.11177,0.0731 1.85793,0.0553 1.99999,-0.0204 0.0685,-0.0365 0.11277,-0.1351 0.11277,-0.25119 v -0.19106 h -0.57997 -0.57998 v -0.29166 -0.29167 l 0.98274,0.0178 0.98273,0.0178 -0.004,0.64442 c -0.004,0.73408 -0.092,0.94739 -0.4368,1.05759 -0.26934,0.0861 -1.81421,0.1357 -2.43422,0.0782 z m -27.10825,-1.50631 0.0173,-1.49827 0.72844,-0.0183 0.72843,-0.0182 0.41888,0.88153 c 0.23038,0.48484 0.44081,0.85554 0.46762,0.82377 0.0268,-0.0318 0.20287,-0.39124 0.39122,-0.79883 0.18835,-0.40759 0.38789,-0.77733 0.44341,-0.82163 0.066,-0.0527 0.3306,-0.0806 0.76526,-0.0806 h 0.66433 v 1.51438 1.51438 h -0.41732 -0.41731 l -0.0177,-1.0794 -0.0177,-1.0794 -0.54685,1.0794 -0.54685,1.0794 h -0.33885 -0.33885 l -0.54472,-1.0794 -0.54471,-1.0794 -0.003,1.0794 -0.003,1.0794 h -0.45228 -0.45228 z m 5.4232,1.43511 c -0.0748,-0.0302 -0.1981,-0.13381 -0.27388,-0.23015 -0.13027,-0.16561 -0.13779,-0.24511 -0.13779,-1.45825 v -1.28309 l 0.43498,0.019 0.43499,0.019 0.0171,1.03107 c 0.0145,0.87671 0.0333,1.04313 0.12509,1.11162 0.17137,0.12781 1.65517,0.1106 1.78648,-0.0207 0.0836,-0.0836 0.10127,-0.28077 0.10127,-1.13068 v -1.02941 l 0.43498,0.019 0.43498,0.019 0.0175,1.20873 c 0.0265,1.82661 0.0658,1.78971 -1.89926,1.78372 -0.7372,-0.002 -1.4016,-0.0288 -1.47646,-0.0591 z m 3.84149,-0.25905 v -0.32221 h 1.25135 c 0.68824,0 1.29721,-0.0176 1.35327,-0.0391 0.14278,-0.0548 0.12756,-0.32929 -0.0227,-0.40971 -0.0686,-0.0367 -0.38029,-0.0685 -0.69275,-0.0708 -0.31245,-0.002 -0.8128,-0.0274 -1.11188,-0.0559 -0.47241,-0.0451 -0.56279,-0.074 -0.68862,-0.22028 -0.19399,-0.22553 -0.25201,-0.65443 -0.14185,-1.04862 0.14529,-0.51991 0.24017,-0.54422 2.04625,-0.52432 l 1.50973,0.0166 0.0163,0.3061 0.0163,0.30609 -1.17157,0.006 c -1.36617,0.008 -1.48599,0.0287 -1.51396,0.26776 -0.0254,0.21729 0.001,0.22316 1.2257,0.26747 1.05642,0.0382 1.36552,0.12109 1.46921,0.39383 0.0882,0.23208 0.0805,0.89125 -0.013,1.09624 -0.14854,0.32602 -0.29806,0.35262 -1.98195,0.35262 h -1.5498 z m 5.21979,-0.83774 v -1.15995 h -0.64442 -0.64442 v -0.35547 -0.35546 l 1.75604,0.0171 1.75604,0.0171 0.0195,0.33832 0.0195,0.33832 H 34.7846 34.13682 v 1.15995 1.15995 H 33.6535 33.17019 Z m 2.57766,-0.0522 c 0,-1.16071 0.007,-1.22776 0.14694,-1.4356 0.25112,-0.37264 0.3137,-0.3844 1.94743,-0.36573 1.3666,0.0156 1.49563,0.027 1.65496,0.14582 0.095,0.0709 0.20266,0.193 0.23913,0.27136 0.037,0.0795 0.0699,0.67738 0.0745,1.35328 l 0.008,1.2108 -0.48895,0.0188 -0.48895,0.0188 v -0.61491 -0.61491 H 37.8098 c -0.93786,0 -1.03135,0.0102 -1.0341,0.11277 -0.002,0.062 -0.009,0.33027 -0.0161,0.59609 l -0.0131,0.48331 -0.49943,0.0188 -0.49942,0.0188 z m 3.06099,-0.78554 v -0.16111 l -0.86996,-0.0322 c -1.13621,-0.0421 -1.15995,-0.038 -1.15995,0.19945 v 0.19048 l 1.01495,-0.0178 1.01496,-0.0178 z m 1.4144,1.91561 c -0.0173,-0.0451 -0.0237,-0.71936 -0.0141,-1.49827 l 0.0174,-1.41619 h 0.7712 0.77119 l 0.864,1.06329 c 0.47519,0.58481 0.88937,1.07295 0.9204,1.08477 0.031,0.0118 0.0564,-0.47392 0.0564,-1.0794 v -1.10088 h 0.41082 c 0.39836,0 0.41167,0.005 0.43904,0.17721 0.0229,0.14383 0.0182,2.479 -0.006,2.771 -0.005,0.0593 -0.19744,0.0803 -0.73153,0.0796 -0.39873,-4.9e-4 -0.75505,-0.0223 -0.79181,-0.0483 -0.0368,-0.026 -0.43545,-0.50233 -0.88598,-1.05844 -0.45053,-0.5561 -0.84818,-1.02904 -0.88367,-1.05098 -0.0421,-0.026 -0.0645,0.34189 -0.0645,1.05943 v 1.09931 h -0.4209 c -0.28144,0 -0.43133,-0.0272 -0.45239,-0.0821 z m -11.75731,-3.64268 c 0,-0.0284 0.14732,-0.21686 0.32737,-0.41887 0.30666,-0.34406 0.34574,-0.36729 0.61794,-0.36729 0.26065,0 0.32029,-0.0306 0.5789,-0.29666 0.15857,-0.16316 0.27923,-0.30368 0.26813,-0.31227 -0.21266,-0.16457 -0.55784,-0.3577 -0.63932,-0.3577 -0.14699,0 -0.8087,-0.29875 -0.86559,-0.3908 -0.0326,-0.0528 -0.19414,-0.0636 -0.53757,-0.036 -0.27001,0.0217 -0.78647,0.0445 -1.14767,0.0507 l -0.65674,0.0112 -0.29378,-0.24073 c -0.29058,-0.23811 -0.38331,-0.49066 -0.2402,-0.6542 0.13066,-0.1493 0.39825,-0.90254 0.51958,-1.46254 0.13213,-0.60984 0.13214,-0.61176 0.005,-0.87454 -0.07,-0.14485 -0.12724,-0.29239 -0.12724,-0.32788 0,-0.3018 -0.82068,-1.03872 -1.53076,-1.37455 -0.48937,-0.23143 -0.72789,-0.2199 -1.62689,0.0787 -1.03765,0.3446 -1.30531,0.49466 -1.86025,1.04294 -0.48417,0.47835 -0.52568,0.50458 -0.7987,0.50458 -0.34414,0 -0.57358,-0.15706 -0.75826,-0.51906 -0.22421,-0.43948 -0.1808,-0.59087 0.32161,-1.12167 0.24678,-0.26073 0.6149,-0.73045 0.81804,-1.04382 0.46788,-0.72174 1.12142,-1.4558 1.50777,-1.69353 0.16463,-0.1013 0.40579,-0.3141 0.53591,-0.47289 0.21681,-0.26459 0.66107,-0.62658 0.76899,-0.62658 0.0247,0 0.0449,0.17399 0.0449,0.38665 0,0.3252 0.0179,0.38665 0.11271,0.38665 0.062,0 0.47523,-0.17271 0.9183,-0.38381 0.44307,-0.21109 0.89009,-0.40393 0.99339,-0.42852 0.16687,-0.0397 0.18211,-0.031 0.13671,0.0777 -0.0281,0.0673 -0.0661,0.19221 -0.0845,0.27751 -0.0325,0.15103 -0.0251,0.15408 0.28217,0.11658 0.17354,-0.0212 0.57652,-0.11536 0.89551,-0.20927 0.32496,-0.0957 0.76415,-0.17527 0.99885,-0.18102 0.44019,-0.0108 0.42866,-0.0207 0.33982,0.29292 -0.0502,0.17704 0.219,0.20116 1.34774,0.12075 0.64433,-0.0459 1.06307,-0.0512 1.10035,-0.0139 0.0373,0.0373 -0.0832,0.14398 -0.31669,0.28039 -0.20727,0.12111 -0.37686,0.25997 -0.37686,0.30856 0,0.0486 0.0942,0.11278 0.20943,0.14263 0.28573,0.074 0.26297,0.16303 -0.0805,0.31499 -0.15949,0.0705 -0.28998,0.15228 -0.28998,0.18162 0,0.0961 1.32888,0.26283 2.09535,0.26283 0.47325,0 1.17069,-0.0619 1.88901,-0.16763 0.9377,-0.13803 1.27529,-0.16104 1.91206,-0.13034 1.33806,0.0645 1.99194,0.30523 3.45379,1.27148 1.42903,0.94456 1.55468,0.9324 1.73373,-0.16774 0.11641,-0.71522 0.52748,-1.06302 1.31615,-1.11354 0.38568,-0.0247 0.64734,0.0172 1.69596,0.27145 0.68196,0.16536 1.39243,0.32523 1.57882,0.35527 0.49347,0.0795 0.97595,-0.0202 1.58496,-0.32749 0.62093,-0.31334 0.65242,-0.30028 0.65399,0.27137 0.002,0.79746 -0.76188,1.43143 -1.9473,1.61572 -0.60388,0.0939 -1.43005,0.007 -2.23687,-0.23417 -0.29931,-0.0896 -0.5893,-0.14823 -0.64442,-0.13026 -0.0551,0.018 -0.22792,0.23323 -0.38399,0.47835 -0.40312,0.63309 -0.5436,0.687 -1.73061,0.66415 -0.55014,-0.0106 -0.97061,0.009 -1.04556,0.0494 -0.069,0.0369 -0.26383,0.31577 -0.43307,0.61971 -0.60076,1.07888 -1.41665,1.78385 -2.96381,2.56088 -0.71972,0.36147 -0.92008,0.52855 -1.21395,1.0123 -0.13981,0.23016 -0.28996,0.3973 -0.37639,0.41899 -0.0791,0.0199 -0.44364,-0.025 -0.81011,-0.0997 -0.39931,-0.0814 -0.74654,-0.11839 -0.86653,-0.0924 -0.11013,0.0239 -0.45807,0.17262 -0.7732,0.33052 l -0.57297,0.2871 0.12914,0.12914 c 0.10981,0.10981 0.16338,0.11968 0.35794,0.066 0.20595,-0.0569 0.24451,-0.0462 0.38624,0.1073 0.25836,0.27974 0.69149,0.85434 0.69149,0.91735 0,0.0323 -0.20396,0.0587 -0.45323,0.0587 -0.34897,0 -0.52317,-0.0352 -0.7572,-0.15316 -0.16717,-0.0842 -0.40545,-0.17437 -0.5295,-0.20028 -0.12405,-0.0259 -0.31554,-0.10172 -0.42552,-0.16846 -0.19715,-0.11962 -0.20167,-0.11948 -0.31837,0.009 -0.0968,0.10698 -0.18366,0.12742 -0.47666,0.11218 -0.35431,-0.0184 -0.35895,-0.0163 -0.41993,0.19081 l -0.0617,0.20944 H 29.1935 c -0.40027,0 -0.72776,-0.0232 -0.72776,-0.0516 z m 3.00171,-2.20035 c 0.47801,-0.42114 0.53089,-0.45009 0.89583,-0.49046 l 0.38785,-0.0429 0.37293,-0.47254 c 0.35401,-0.44855 0.64136,-0.98707 0.81709,-1.53129 0.0437,-0.13528 0.0647,-0.26073 0.0466,-0.27876 -0.018,-0.018 -0.31816,0.0743 -0.66695,0.2051 -0.96544,0.36215 -1.75281,0.54054 -2.59274,0.58739 -0.42513,0.0237 -0.76841,0.0723 -0.79532,0.11253 -0.0574,0.0859 -0.0646,0.63259 -0.0102,0.7744 0.0226,0.059 0.11431,0.10193 0.21773,0.10193 0.14118,0 0.19637,-0.0439 0.26333,-0.20943 0.101,-0.24973 0.17588,-0.3089 0.34913,-0.27591 0.0712,0.0136 0.31079,0.0268 0.53231,0.0295 0.47066,0.006 0.49376,0.0532 0.21366,0.43982 -0.12297,0.16976 -0.27509,0.28936 -0.43498,0.34203 -0.2787,0.0918 -0.7292,0.42947 -0.7292,0.54657 0,0.067 0.53493,0.60962 0.601,0.60962 0.0131,0 0.2525,-0.2014 0.5319,-0.44756 z m -3.13059,-0.87525 c 0,-0.0922 -0.69292,-0.91329 -0.78193,-0.92656 -0.0225,-0.003 -0.10592,0.15426 -0.18547,0.35025 -0.13756,0.33893 -0.13917,0.36237 -0.033,0.47971 0.12592,0.13915 0.25448,0.17363 0.69428,0.18624 0.23538,0.007 0.3061,-0.014 0.3061,-0.0896 z"
         id="path7880" />
      <circle
         style="fill:none;stroke:#ff0000;stroke-width:0.1;stroke-dasharray:none"
         id="path788-8-1-8-1-9-2-2-9-1-0-0-4-6"
         cx="33.66856"
         cy="-55.163479"
         r="19.954653" />
      <ellipse
         style="fill:none;stroke:#ff00ff;stroke-width:0.1;stroke-dasharray:none;stroke-opacity:1"
         id="path1138-9-4-0-0-1-2-8-1-8-6-2-9-9"
         cx="33.66856"
         cy="-55.163479"
         rx="18.492125"
         ry="18.492126" />
      <circle
         style="fill:none;stroke:#0000ff;stroke-width:0.1;stroke-linecap:round;stroke-dasharray:none;stroke-opacity:1;paint-order:markers stroke fill"
         id="path13019-1-33-4-5-5-5-5-7-1"
         cx="33.668549"
         cy="-70.174454"
         r="2" />
    </g>
  </g>
</svg>
