<?xml version="1.0" encoding="UTF-8" standalone="no"?>
<!-- Created with Inkscape (http://www.inkscape.org/) -->

<svg
   width="41.008999mm"
   height="41.008999mm"
   viewBox="0 0 41.008999 41.008999"
   version="1.1"
   id="svg1"
   inkscape:version="1.4.2 (f4327f4, 2025-05-13)"
   sodipodi:docname="189.svg"
   xmlns:inkscape="http://www.inkscape.org/namespaces/inkscape"
   xmlns:sodipodi="http://sodipodi.sourceforge.net/DTD/sodipodi-0.dtd"
   xmlns="http://www.w3.org/2000/svg"
   xmlns:svg="http://www.w3.org/2000/svg">
  <sodipodi:namedview
     id="namedview1"
     pagecolor="#ffffff"
     bordercolor="#000000"
     borderopacity="0.25"
     inkscape:showpageshadow="2"
     inkscape:pageopacity="0.0"
     inkscape:pagecheckerboard="0"
     inkscape:deskcolor="#d1d1d1"
     inkscape:document-units="mm"
     inkscape:zoom="1.5878906"
     inkscape:cx="108.3198"
     inkscape:cy="200.26568"
     inkscape:window-width="1050"
     inkscape:window-height="1081"
     inkscape:window-x="3737"
     inkscape:window-y="0"
     inkscape:window-maximized="0"
     inkscape:current-layer="layer1" />
  <defs
     id="defs1" />
  <g
     inkscape:label="Layer 1"
     inkscape:groupmode="layer"
     id="layer1"
     transform="translate(-0.7937635,-0.79375582)">
    <g
       id="g129"
       transform="rotate(-90,-13.02506,-187.56139)">
      <path
         style="fill:#000000;stroke-width:0.1;stroke-dasharray:none"
         d="m -240.10546,-154.76411 c 0.35903,-4.18836 1.90817,-7.64578 4.85657,-10.83912 3.43462,-3.71994 7.3384,-5.52895 12.4343,-5.76179 5.28176,-0.24156 9.25849,1.21992 13.24682,4.86831 4.89625,4.47893 6.85681,10.53894 5.50939,17.02948 -0.69038,3.3257 -1.72357,5.35892 -4.15511,8.17702 -3.41141,3.95373 -7.6261,5.98073 -12.94099,6.2238 -5.18096,0.23696 -9.17492,-1.21653 -13.06016,-4.75286 -4.21715,-3.83843 -6.37377,-9.30974 -5.89071,-14.94461 z m 1.62936,7.53169 c 2.14141,5.97316 7.56833,10.36621 14.11857,11.42888 7.37137,1.1959 15.13797,-2.9799 18.36883,-9.87623 5.34649,-11.41217 -2.41345,-24.32762 -15.12895,-25.18026 -2.82606,-0.1895 -6.16369,0.59859 -9.02423,2.13083 -7.83164,4.19499 -11.31548,13.18097 -8.33422,21.49678 z m 0.0285,-9.63194 c 1.23527,-5.60235 5.66301,-10.47618 11.27008,-12.40549 1.92749,-0.66321 6.37133,-0.95149 8.54454,-0.5543 2.80908,0.51339 5.54635,1.94231 7.99812,4.17519 5.58419,5.08564 7.11832,12.15074 4.18126,19.25582 -1.67143,4.04339 -5.97293,7.88158 -10.39915,9.27911 -2.25026,0.71051 -6.66793,0.88994 -8.83769,0.35904 -5.83295,-1.42736 -10.65042,-5.88783 -12.37722,-11.46003 -0.7054,-2.27623 -0.88476,-6.35968 -0.37979,-8.64931 z m 6.98514,8.62546 c 1.19942,2.19174 3.26219,4.06788 5.49718,4.99981 1.50703,0.62838 2.20934,0.7202 4.62307,0.60447 3.45857,-0.16528 5.13694,-0.9521 7.47649,-3.50249 3.86324,-4.21134 3.55148,-11.02807 -0.68004,-14.8692 -2.56378,-2.32726 -4.30587,-2.95631 -7.76492,-2.80381 -2.28054,0.10069 -3.14406,0.27931 -4.34253,0.89905 -5.48478,2.83616 -7.65804,9.46637 -4.80925,14.67217 z m 4.38983,-4.74434 5.08802,-0.23269 -0.23307,-5.09613 -0.23307,-5.09613 1.51231,0.15148 c 2.2849,0.22885 4.07175,1.04428 5.85582,2.67228 1.68862,1.54092 3.09388,4.1822 3.17558,5.96872 l 0.0429,0.93691 -5.0602,0.23144 -5.06022,0.23143 0.23328,5.10064 0.23328,5.10064 -1.321,-0.14974 c -4.40402,-0.49915 -8.13369,-3.90268 -9.04274,-8.25197 l -0.27885,-1.33417 z m 12.26703,-9.44003 c 1.78017,1.35707 2.54143,1.40764 3.07421,0.20425 0.18985,-0.42881 0.5634,-0.91523 0.83008,-1.08091 0.86633,-0.53823 0.4666,-1.41004 -1.25145,-2.72921 l -1.68438,-1.29338 -1.29937,1.61791 c -0.71467,0.88987 -1.30059,1.71168 -1.30204,1.82624 -0.002,0.11459 0.73336,0.76937 1.6329,1.45512 z m 0.051,-1.7717 c 0.78564,-0.34341 2.44643,1.1721 1.91848,1.75067 -0.29337,0.32147 -0.59045,0.20612 -1.42069,-0.55147 -0.92843,-0.84723 -0.98596,-0.98581 -0.49779,-1.1992 z m 1.05963,-1.43494 c 0.23481,-0.40517 0.40905,-0.36756 1.12007,0.2417 1.51255,1.29612 0.98912,2.15352 -0.55749,0.91274 -0.61394,-0.49272 -0.76565,-0.80402 -0.56257,-1.15444 z m -0.86757,24.26912 c 0.51499,0.93903 1.04066,1.70252 1.16813,1.69669 0.52752,-0.0241 0.55028,-0.6988 0.0526,-1.56199 -0.7483,-1.29805 -0.68261,-1.39754 0.443,-0.67115 1.5602,1.00681 2.42782,0.19326 1.48406,-1.39157 -0.53136,-0.89231 -0.24614,-1.00207 0.75099,-0.28898 0.61754,0.44163 1.0086,0.52744 1.37274,0.30121 0.42483,-0.26399 0.20448,-0.52522 -1.33081,-1.57783 -1.08459,-0.74358 -2.03282,-1.1772 -2.30967,-1.05619 -0.58586,0.25613 -0.57295,0.59429 0.0751,1.9653 0.54367,1.15054 0.4903,1.15765 -1.12073,0.14961 -0.64046,-0.40075 -0.93099,-0.43646 -1.19519,-0.14693 -0.48053,0.52658 -0.4526,0.64471 0.60985,2.58181 z m 5.55442,-13.96823 1.34872,0.0398 -1.3239,0.50286 c -1.69857,0.64516 -1.72392,1.43711 -0.0653,2.03783 l 1.20848,0.43769 -1.18523,0.0705 c -0.83559,0.0503 -1.17884,0.21049 -1.16341,0.54523 0.0172,0.3765 0.47851,0.45351 2.23554,0.37315 1.95387,-0.0894 2.21065,-0.17093 2.18672,-0.69429 -0.0187,-0.40782 -0.50536,-0.76922 -1.55831,-1.15715 l -1.53121,-0.56412 1.47205,-0.7292 c 1.06202,-0.52608 1.46384,-0.90848 1.44259,-1.37295 -0.0268,-0.58619 -0.22742,-0.6347 -2.24329,-0.54251 -1.71779,0.0786 -2.20915,0.20344 -2.19296,0.55746 0.0142,0.30999 0.45314,0.46897 1.36961,0.49599 z"
         id="path7221" />
      <circle
         style="fill:none;stroke:#0000ff;stroke-width:0.1;stroke-linecap:round;stroke-dasharray:none;stroke-opacity:1;paint-order:markers stroke fill"
         id="path13019-1-33-6-2-4-0-0-76-9"
         cx="-221.88474"
         cy="-167.71986"
         r="2" />
      <circle
         style="fill:none;stroke:#ff0000;stroke-width:0.1;stroke-dasharray:none"
         id="path788-8-1-8-1-9-2-56-8-1-7-71-3-2"
         cx="-221.8847"
         cy="-153.23807"
         r="19.954653" />
    </g>
  </g>
</svg>
