<?xml version="1.0" encoding="UTF-8" standalone="no"?>
<!-- Created with Inkscape (http://www.inkscape.org/) -->

<svg
   width="41.008999mm"
   height="41.008999mm"
   viewBox="0 0 41.008999 41.008999"
   version="1.1"
   id="svg1"
   inkscape:version="1.4.2 (f4327f4, 2025-05-13)"
   sodipodi:docname="180.svg"
   xmlns:inkscape="http://www.inkscape.org/namespaces/inkscape"
   xmlns:sodipodi="http://sodipodi.sourceforge.net/DTD/sodipodi-0.dtd"
   xmlns="http://www.w3.org/2000/svg"
   xmlns:svg="http://www.w3.org/2000/svg">
  <sodipodi:namedview
     id="namedview1"
     pagecolor="#ffffff"
     bordercolor="#000000"
     borderopacity="0.25"
     inkscape:showpageshadow="2"
     inkscape:pageopacity="0.0"
     inkscape:pagecheckerboard="0"
     inkscape:deskcolor="#d1d1d1"
     inkscape:document-units="mm"
     inkscape:zoom="1.5878906"
     inkscape:cx="108.3198"
     inkscape:cy="200.26568"
     inkscape:window-width="1050"
     inkscape:window-height="1081"
     inkscape:window-x="3737"
     inkscape:window-y="0"
     inkscape:window-maximized="0"
     inkscape:current-layer="layer1" />
  <defs
     id="defs1" />
  <g
     inkscape:label="Layer 1"
     inkscape:groupmode="layer"
     id="layer1"
     transform="translate(-0.7937635,-0.79375582)">
    <g
       id="g15651"
       transform="translate(114.22978,126.12858)">
      <path
         style="fill:#000000;stroke-width:0.1;stroke-dasharray:none"
         d="m -108.28362,-97.6153 c -0.0668,-0.17607 -0.5538,-1.72866 -1.08218,-3.45021 -0.52838,-1.72154 -0.99206,-3.21243 -1.0304,-3.31309 -0.0546,-0.14345 0.2493,-0.17421 1.40581,-0.14227 l 1.47554,0.0407 0.26742,0.82337 c 0.14708,0.45285 0.30714,0.78515 0.35569,0.73843 0.0486,-0.0467 0.18711,-0.41722 0.30792,-0.82337 l 0.21964,-0.73843 1.51448,-0.0403 1.51449,-0.0403 0.2487,0.82281 c 0.13678,0.45255 0.29057,0.87343 0.34176,0.9353 0.0512,0.0619 0.20643,-0.30628 0.34497,-0.81809 l 0.25189,-0.93057 h 1.39544 1.39544 l -0.33823,1.10264 c -0.18602,0.60645 -0.67937,2.22307 -1.09632,3.59248 l -0.75808,2.48984 -1.23645,0.0411 -1.23646,0.0411 -0.39148,-1.28598 c -0.21532,-0.70729 -0.43097,-1.28598 -0.47923,-1.28598 -0.0482,0 -0.26067,0.57622 -0.47203,1.28049 l -0.38429,1.28049 h -1.20628 c -1.1201,0 -1.21496,-0.0229 -1.32776,-0.32012 z m 7.99442,0.13476 c 0.0391,-0.10195 0.54109,-1.73457 1.1155,-3.62805 l 1.04439,-3.44269 h 2.0201 2.02012 l 0.56734,1.81403 c 1.25266,4.00521 1.58617,5.11423 1.58617,5.27447 0,0.11609 -0.39013,0.1676 -1.26945,0.1676 h -1.26946 l -0.16434,-0.49797 -0.16435,-0.49796 h -1.25842 -1.25842 l -0.16434,0.49796 -0.16435,0.49797 h -1.3558 c -1.05552,0 -1.34006,-0.041 -1.28469,-0.18536 z m 4.79462,-2.98029 c -0.002,-0.0978 -0.12004,-0.5557 -0.2642,-1.01754 l -0.2621,-0.83969 -0.30185,0.89381 c -0.16601,0.49159 -0.26742,0.94949 -0.22537,1.01755 0.12159,0.19673 1.0559,0.14874 1.05352,-0.0541 z m 4.27038,-0.4624 v -3.62805 h 2.77895 c 3.11163,0 3.4203,0.067 4.15223,0.90056 0.82926,0.94448 0.78751,2.03066 -0.11573,3.01055 -0.30327,0.32902 -0.50959,0.64001 -0.4585,0.69111 0.14161,0.1416 3.88695,0.11082 3.88695,-0.0319 0,-0.0687 -0.10671,-0.21272 -0.23713,-0.32011 -0.13043,-0.1074 -0.41854,-0.44497 -0.64025,-0.75015 -0.72021,-0.99139 -0.50089,-2.39506 0.48397,-3.09752 0.44127,-0.31475 0.60175,-0.33366 3.20337,-0.37779 l 2.73882,-0.0465 v 1.14909 1.14908 h -1.77846 c -0.98536,0 -1.77845,0.0583 -1.77845,0.13067 0,0.0719 0.28366,0.46298 0.63036,0.86914 0.70913,0.83077 0.89629,1.50064 0.66219,2.37001 -0.16621,0.61729 -0.72566,1.22741 -1.33738,1.45853 -0.51947,0.19628 -6.63166,0.20237 -7.14518,0.007 -0.2086,-0.0793 -0.789,-0.53763 -1.28975,-1.01849 l -0.91048,-0.87429 v 1.01849 1.01848 h -1.42277 -1.42276 v -3.62804 z m 4.75582,-0.86353 c 0.1709,-0.1709 0.18797,-0.2893 0.0728,-0.50454 -0.12926,-0.24153 -0.27467,-0.2753 -1.02979,-0.2391 -0.90539,0.0434 -1.10831,0.21542 -0.89864,0.76183 0.1131,0.29468 1.55693,0.28054 1.85566,-0.0182 z m -23.96314,-4.60767 v -1.28692 h 2.91667 c 1.60417,0 2.91667,-0.0562 2.91667,-0.12485 0,-0.0687 -0.10698,-0.21273 -0.23772,-0.32013 -0.13074,-0.10739 -0.41885,-0.4799 -0.64024,-0.82779 -0.75048,-1.1793 -0.43501,-2.538 0.73346,-3.15891 0.45729,-0.24301 0.91263,-0.26344 5.8689,-0.26344 h 5.37316 v 1.13821 1.1382 h -1.56504 -1.56504 v 2.48984 2.48984 h -1.35163 -1.35162 v -2.48984 -2.48984 h -1.63618 c -0.8999,0 -1.63618,0.0439 -1.63618,0.0976 0,0.0537 0.24361,0.38978 0.54136,0.74695 0.71047,0.85224 0.93711,1.4382 0.83906,2.16923 -0.0867,0.64622 -0.40371,1.14987 -1.00807,1.60145 -0.37063,0.27694 -0.61087,0.2957 -4.29507,0.33535 l -3.90249,0.042 z m 15.93903,1.10155 c 0.002,-0.10075 0.46859,-1.71978 1.03636,-3.59782 l 1.0323,-3.41463 2.02384,-0.0395 c 1.98901,-0.0388 2.02617,-0.0339 2.15884,0.28455 0.0743,0.17823 0.56225,1.73258 1.08443,3.45412 0.5222,1.72154 0.97991,3.21011 1.01718,3.30793 0.0511,0.13426 -0.25159,0.17784 -1.23523,0.17784 h -1.30298 l -0.20805,-0.49797 -0.20807,-0.49796 h -1.25801 -1.25799 l -0.13227,0.4624 -0.13228,0.46239 -1.31107,0.0409 c -0.99715,0.0311 -1.3101,-0.003 -1.307,-0.14228 z m 4.69105,-3.05178 c 0,-0.13006 -0.10973,-0.5846 -0.24386,-1.0101 l -0.24386,-0.77362 -0.24308,0.68997 c -0.39257,1.11433 -0.35478,1.33023 0.23284,1.33023 0.36937,0 0.49796,-0.0611 0.49796,-0.23648 z m 4.21238,2.99923 c -0.0475,-0.12377 -0.0864,-1.75639 -0.0864,-3.62805 v -3.403 h 2.77152 c 3.2195,0 3.68484,0.11094 4.3568,1.03853 0.30587,0.42223 0.41233,0.73048 0.41233,1.19377 0,0.74491 -0.41129,1.61531 -0.92114,1.94938 -0.20263,0.13277 -0.33058,0.3026 -0.28434,0.37743 0.0467,0.0756 0.93356,0.13602 1.99639,0.13602 h 1.91234 v 1.28049 1.28049 h -2.3383 c -1.29109,0 -2.51768,-0.0672 -2.73882,-0.15001 -0.22029,-0.0825 -0.80067,-0.54483 -1.28975,-1.0274 -0.48907,-0.48257 -0.89428,-0.81521 -0.90044,-0.73921 -0.006,0.076 -0.002,0.53832 0.01,1.02739 l 0.021,0.88923 h -1.41734 c -1.16119,0 -1.43295,-0.0407 -1.50371,-0.22506 z m 4.76094,-4.26859 c 0.35546,-0.42831 -0.0129,-0.69946 -0.95021,-0.69946 h -0.83815 l -0.0446,0.46241 -0.0446,0.4624 h 0.84526 c 0.59764,0 0.90004,-0.066 1.03226,-0.22535 z"
         id="path6583-5"
         sodipodi:nodetypes="sssscssscccssscccsscccssscssssscccssscccccccsscscsscccssssssssscccssssssscccccccssssssccsssssscccccccccccssssssccsscssssscccccccssssscssssscsssssscccssssccssssscccsss" />
      <circle
         style="fill:none;stroke:#ff0000;stroke-width:0.1;stroke-dasharray:none"
         id="path788-8-1-8-1-9-2-1-4-2-2-4-5"
         cx="-92.931519"
         cy="-104.83032"
         r="19.954653" />
      <ellipse
         style="fill:none;stroke:#ff00ff;stroke-width:0.1;stroke-dasharray:none;stroke-opacity:1"
         id="path1138-9-4-0-0-1-2-6-7-2-6-6-394"
         cx="-92.931519"
         cy="-104.83032"
         rx="18.492125"
         ry="18.492126" />
      <circle
         style="fill:none;stroke:#0000ff;stroke-width:0.1;stroke-linecap:round;stroke-dasharray:none;stroke-opacity:1;paint-order:markers stroke fill"
         id="path13019-1-33-7-4-6-7-2-0"
         cx="-92.931526"
         cy="-119.84129"
         r="2" />
    </g>
  </g>
</svg>
