<?xml version="1.0" encoding="UTF-8" standalone="no"?>
<!-- Created with Inkscape (http://www.inkscape.org/) -->

<svg
   width="41.008999mm"
   height="41.008999mm"
   viewBox="0 0 41.008999 41.008999"
   version="1.1"
   id="svg1"
   inkscape:version="1.4.2 (f4327f4, 2025-05-13)"
   sodipodi:docname="181.svg"
   xmlns:inkscape="http://www.inkscape.org/namespaces/inkscape"
   xmlns:sodipodi="http://sodipodi.sourceforge.net/DTD/sodipodi-0.dtd"
   xmlns="http://www.w3.org/2000/svg"
   xmlns:svg="http://www.w3.org/2000/svg">
  <sodipodi:namedview
     id="namedview1"
     pagecolor="#ffffff"
     bordercolor="#000000"
     borderopacity="0.25"
     inkscape:showpageshadow="2"
     inkscape:pageopacity="0.0"
     inkscape:pagecheckerboard="0"
     inkscape:deskcolor="#d1d1d1"
     inkscape:document-units="mm"
     inkscape:zoom="1.5878906"
     inkscape:cx="108.3198"
     inkscape:cy="200.26568"
     inkscape:window-width="1050"
     inkscape:window-height="1081"
     inkscape:window-x="3737"
     inkscape:window-y="0"
     inkscape:window-maximized="0"
     inkscape:current-layer="layer1" />
  <defs
     id="defs1" />
  <g
     inkscape:label="Layer 1"
     inkscape:groupmode="layer"
     id="layer1"
     transform="translate(-0.7937635,-0.79375582)">
    <g
       id="g15641"
       transform="translate(72.139305,126.128)">
      <path
         style="fill:#000000;stroke-width:0.1;stroke-dasharray:none"
         d="m -55.394521,-86.497448 c -6.281125,-1.646821 -11.04552,-6.192822 -13.118518,-12.517188 -0.685145,-2.090264 -0.767217,-2.708564 -0.755475,-5.690994 0.01442,-3.67889 0.378372,-5.33416 1.791603,-8.14976 1.087624,-2.16689 2.512736,-4.04204 4.343846,-5.71558 2.373432,-2.16918 2.789439,-2.24953 1.452297,-0.28049 -2.478868,3.6503 -3.447798,7.89876 -2.52522,11.07234 1.36182,4.68445 5.641858,7.55639 8.469255,5.68294 0.51067,-0.33836 1.202994,-1.18941 1.578729,-1.94065 0.56023,-1.12013 0.667485,-1.70845 0.658778,-3.61323 -0.0086,-1.90578 -0.130608,-2.53604 -0.7506,-3.8813 -0.80244,-1.74112 -2.004896,-3.15804 -3.219717,-3.79398 l -0.768594,-0.40235 1.147881,-1.1696 1.147871,-1.16961 0.784522,0.45717 c 0.431483,0.25145 1.153757,0.87521 1.605021,1.38614 l 0.82051,0.929 -0.191091,-1.19502 c -0.105146,-0.65726 -0.466525,-1.68783 -0.803162,-2.29015 l -0.612071,-1.09511 1.665138,-1.89423 1.665138,-1.89423 0.905025,0.98014 c 0.497766,0.53907 1.25294,1.3673 1.67817,1.84047 l 0.773136,0.86034 -0.710059,1.58222 c -0.390534,0.87022 -0.710059,1.92521 -0.710059,2.34442 v 0.76219 l 0.429933,-0.61381 c 0.236475,-0.33761 0.921039,-0.96958 1.52126,-1.40438 l 1.091327,-0.79055 1.021663,0.99762 c 0.561909,0.5487 1.021664,1.07763 1.021664,1.1754 0,0.0978 -0.488264,0.5009 -1.08502,0.89582 -1.441868,0.95418 -2.540061,2.75113 -3.049095,4.98919 -0.525555,2.31066 -0.523424,3.27497 0.01119,5.07519 0.78365,2.63882 2.865269,3.93709 5.193952,3.2394 1.560305,-0.46748 3.593645,-2.46465 4.608895,-4.52691 0.831767,-1.68954 0.878065,-1.93952 0.876828,-4.73381 -0.001,-2.74755 -0.05887,-3.07208 -0.839904,-4.72762 -0.461218,-0.97766 -1.350573,-2.47063 -1.976344,-3.31771 -1.260614,-1.70641 -1.135053,-1.68813 1.240166,0.18068 2.608927,2.05269 4.697165,5.07961 5.698865,8.26055 2.182577,6.93085 0.280233,14.87299 -4.728978,19.743112 -2.051409,1.994446 -5.636585,3.886685 -8.493481,4.482784 -2.601555,0.542849 -6.520623,0.485886 -8.865277,-0.128854 z"
         id="path6583-6"
         sodipodi:nodetypes="ssssssssscsscccsscsscccsscsscsscssssssscssssssss" />
      <circle
         style="fill:none;stroke:#ff0000;stroke-width:0.1;stroke-dasharray:none"
         id="path788-8-1-8-1-9-2-6-3-4-7-1"
         cx="-50.841042"
         cy="-104.82974"
         r="19.954653" />
      <circle
         style="fill:none;stroke:#0000ff;stroke-width:0.1;stroke-linecap:round;stroke-dasharray:none;stroke-opacity:1;paint-order:markers stroke fill"
         id="path13019-1-33-3-83-70-3-7"
         cx="-44.396038"
         cy="-120.01729"
         r="2" />
    </g>
  </g>
</svg>
