<?xml version="1.0" encoding="UTF-8" standalone="no"?>
<!-- Created with Inkscape (http://www.inkscape.org/) -->

<svg
   width="41.008999mm"
   height="41.008999mm"
   viewBox="0 0 41.008999 41.009"
   version="1.1"
   id="svg1"
   inkscape:version="1.4.2 (f4327f4, 2025-05-13)"
   sodipodi:docname="192.svg"
   xmlns:inkscape="http://www.inkscape.org/namespaces/inkscape"
   xmlns:sodipodi="http://sodipodi.sourceforge.net/DTD/sodipodi-0.dtd"
   xmlns="http://www.w3.org/2000/svg"
   xmlns:svg="http://www.w3.org/2000/svg">
  <sodipodi:namedview
     id="namedview1"
     pagecolor="#ffffff"
     bordercolor="#000000"
     borderopacity="0.25"
     inkscape:showpageshadow="2"
     inkscape:pageopacity="0.0"
     inkscape:pagecheckerboard="0"
     inkscape:deskcolor="#d1d1d1"
     inkscape:document-units="mm"
     inkscape:zoom="2.0485264"
     inkscape:cx="58.578692"
     inkscape:cy="127.40866"
     inkscape:window-width="1050"
     inkscape:window-height="1081"
     inkscape:window-x="3737"
     inkscape:window-y="0"
     inkscape:window-maximized="0"
     inkscape:current-layer="layer1" />
  <defs
     id="defs1" />
  <g
     inkscape:label="Layer 1"
     inkscape:groupmode="layer"
     id="layer1"
     transform="translate(-114.0891,-77.774176)">
    <g
       id="g19"
       transform="translate(-79.228178,402.14608)">
      <circle
         style="fill:none;stroke:#ff0000;stroke-width:0.1;stroke-dasharray:none"
         id="path788-8-1-8-1-9-2-9-3-7-1-2-04-7-7"
         cx="213.82178"
         cy="-303.8674"
         r="19.954653" />
      <ellipse
         style="fill:none;stroke:#ff00ff;stroke-width:0.1;stroke-dasharray:none;stroke-opacity:1"
         id="path1138-9-4-0-0-1-2-25-0-9-29-6-3-1-5"
         cx="213.82178"
         cy="-303.8674"
         rx="18.492125"
         ry="18.492126" />
      <circle
         style="fill:none;stroke:#0000ff;stroke-width:0.1;stroke-linecap:round;stroke-dasharray:none;stroke-opacity:1;paint-order:markers stroke fill"
         id="path13019-1-33-5-7-7-4-6-7-8-1"
         cx="213.82178"
         cy="-318.87836"
         r="2" />
      <path
         style="fill:#000000;stroke-width:0.1;stroke-dasharray:none"
         d="m 209.46444,-286.98139 c -1.85985,-0.55021 -3.03115,-1.15835 -4.78931,-2.4866 -3.73928,-2.82494 -5.7419,-6.98419 -5.72011,-11.88008 0.0129,-2.89188 0.41229,-4.51105 1.74038,-7.05514 0.87056,-1.66768 3.625,-4.75628 4.78592,-5.36656 0.47165,-0.24794 0.40455,-0.0728 -0.4219,1.10092 -0.54051,0.76767 -1.24802,2.1491 -1.57224,3.06985 -1.82504,5.18307 0.71843,10.64251 4.95821,10.64251 2.21745,0 3.41091,-1.90189 3.25359,-5.1849 -0.12611,-2.63205 -1.15127,-4.58774 -3.07159,-5.8597 l -0.5979,-0.39602 0.87975,-0.89523 0.87974,-0.89523 0.65707,0.43054 c 0.3614,0.23679 0.9072,0.70041 1.21288,1.03026 l 0.55581,0.59973 -0.006,-0.57303 c -0.003,-0.31516 -0.21812,-1.04217 -0.4783,-1.61556 -0.26018,-0.5734 -0.47306,-1.17479 -0.47306,-1.33643 0,-0.16165 0.56608,-0.91682 1.25797,-1.67815 l 1.25797,-1.38425 1.25318,1.35878 c 1.34735,1.46088 1.43494,1.722 0.91495,2.72757 -0.18604,0.35974 -0.41768,1.07751 -0.51476,1.59505 l -0.17653,0.94099 1.14632,-1.00904 c 0.63048,-0.55497 1.2657,-1.00126 1.4116,-0.99177 0.1459,0.01 0.58544,0.40175 0.97675,0.87166 l 0.71146,0.85438 -0.59189,0.38089 c -1.87306,1.20533 -2.90304,3.16483 -3.05644,5.81474 -0.18685,3.22768 0.82959,4.94612 3.05188,5.15966 1.59705,0.15345 2.4084,-0.22096 3.81577,-1.76083 1.43797,-1.57338 1.93458,-2.94798 1.93458,-5.35499 0,-2.27567 -0.64296,-4.28179 -2.04002,-6.36516 -1.32474,-1.97554 -0.67361,-1.67386 1.8026,0.83517 2.0365,2.06349 3.08139,3.93495 3.82893,6.85778 1.90991,7.46768 -2.47431,15.34985 -9.83044,17.67364 -2.28821,0.72286 -2.47358,0.74198 -1.53369,0.15823 1.72374,-1.07057 1.99281,-1.65175 2.17331,-4.69449 0.0811,-1.36627 0.0508,-1.56416 -0.16463,-1.07621 -0.55022,1.24629 -0.94541,2.01789 -0.83551,1.63129 0.53597,-1.88532 0.23656,-3.66962 -0.76837,-4.57907 -0.38802,-0.35115 -0.40941,-0.31627 -0.32822,0.53515 0.0579,0.60628 -0.0889,1.25541 -0.43904,1.94161 -0.46453,0.91056 -0.49301,1.14054 -0.24417,1.97109 0.43019,1.43587 0.11513,2.67278 -0.97184,3.81542 -0.51347,0.53978 -0.97196,0.93677 -1.01886,0.88223 -0.0469,-0.0546 -0.14652,-0.49641 -0.22137,-0.98188 -0.10867,-0.70482 -0.0667,-0.85608 0.20802,-0.75064 0.23535,0.0903 0.29969,0.0163 0.20354,-0.23428 -0.0964,-0.25128 0.0342,-0.39965 0.41581,-0.47238 l 0.55639,-0.10604 -0.56599,-0.0326 c -0.44224,-0.0254 -0.53863,-0.13723 -0.44084,-0.51121 0.0689,-0.26326 0.0419,-0.42717 -0.0599,-0.36425 -0.23974,0.14816 -0.47712,-1.61159 -0.52797,-3.91384 -0.0402,-1.81639 -0.0663,-1.65554 -0.33746,2.06702 -0.079,1.08562 -0.23163,1.91953 -0.33905,1.85313 -0.10742,-0.0663 -0.1413,0.0859 -0.0753,0.33833 0.0888,0.33947 -0.0261,0.48679 -0.44083,0.56565 l -0.56087,0.10662 0.5637,0.0326 c 0.38709,0.0223 0.52203,0.14114 0.43071,0.37913 -0.0809,0.21084 -0.018,0.30243 0.16059,0.23389 0.21046,-0.0807 0.26775,0.15836 0.20232,0.84445 -0.0808,0.84738 -0.14216,0.92987 -0.5352,0.71952 -0.75776,-0.40554 -1.69653,-1.84451 -1.82417,-2.79612 -0.0694,-0.51742 0.0232,-1.2644 0.21508,-1.73458 0.3128,-0.76659 0.29525,-0.90046 -0.24464,-1.86644 -0.44674,-0.7993 -0.55177,-1.2631 -0.45292,-2.00005 0.12428,-0.92661 0.11331,-0.94552 -0.32078,-0.55267 -1.02379,0.92651 -1.37632,2.85081 -0.83053,4.53344 0.0853,0.26307 -0.0176,0.18035 -0.22879,-0.18383 -0.21117,-0.36418 -0.40636,-0.97252 -0.43375,-1.35185 -0.0274,-0.37934 -0.13742,-0.63577 -0.24449,-0.56986 -0.29583,0.18214 -0.12418,3.69706 0.21378,4.37754 0.3242,0.65282 1.37748,1.69613 2.13331,2.11313 0.66582,0.36735 0.24158,0.31336 -1.43494,-0.18263 z"
         id="path6583"
         sodipodi:nodetypes="cssssssssscccssccssscssscssscssssssssssssssssssssssscsssssssscsssssssssssssssscc" />
    </g>
  </g>
</svg>
