<?xml version="1.0" encoding="UTF-8" standalone="no"?>
<!-- Created with Inkscape (http://www.inkscape.org/) -->

<svg
   width="41.008999mm"
   height="41.008999mm"
   viewBox="0 0 41.008999 41.009"
   version="1.1"
   id="svg1"
   inkscape:version="1.4.2 (f4327f4, 2025-05-13)"
   sodipodi:docname="194.svg"
   xmlns:inkscape="http://www.inkscape.org/namespaces/inkscape"
   xmlns:sodipodi="http://sodipodi.sourceforge.net/DTD/sodipodi-0.dtd"
   xmlns="http://www.w3.org/2000/svg"
   xmlns:svg="http://www.w3.org/2000/svg">
  <sodipodi:namedview
     id="namedview1"
     pagecolor="#ffffff"
     bordercolor="#000000"
     borderopacity="0.25"
     inkscape:showpageshadow="2"
     inkscape:pageopacity="0.0"
     inkscape:pagecheckerboard="0"
     inkscape:deskcolor="#d1d1d1"
     inkscape:document-units="mm"
     inkscape:zoom="2.0485264"
     inkscape:cx="83.962792"
     inkscape:cy="129.84943"
     inkscape:window-width="1050"
     inkscape:window-height="1081"
     inkscape:window-x="3737"
     inkscape:window-y="0"
     inkscape:window-maximized="0"
     inkscape:current-layer="layer1" />
  <defs
     id="defs1" />
  <g
     inkscape:label="Layer 1"
     inkscape:groupmode="layer"
     id="layer1"
     transform="translate(-114.0891,-77.774176)">
    <g
       id="g4"
       transform="translate(-163.62799,402.26247)">
      <circle
         style="fill:none;stroke:#ff0000;stroke-width:0.1;stroke-dasharray:none"
         id="path788-8-1-8-1-9-2-56-8-1-7-71-3-2-3"
         cx="298.22159"
         cy="-303.9838"
         r="19.954653" />
      <ellipse
         style="fill:none;stroke:#ff00ff;stroke-width:0.1;stroke-dasharray:none;stroke-opacity:1"
         id="path1138-9-4-0-0-1-2-4-9-7-82-6-75-2-3"
         cx="298.22159"
         cy="-303.9838"
         rx="18.492125"
         ry="18.492126" />
      <circle
         style="fill:none;stroke:#0000ff;stroke-width:0.1;stroke-linecap:round;stroke-dasharray:none;stroke-opacity:1;paint-order:markers stroke fill"
         id="path13019-1-33-6-2-4-0-0-76-9-7"
         cx="298.22159"
         cy="-318.99475"
         r="2" />
      <path
         style="fill:#000000;stroke-width:0.1;stroke-dasharray:none"
         d="m 290.44697,-288.29436 c -0.33134,-0.1435 -0.72642,-0.41029 -0.87794,-0.59286 -0.15153,-0.18258 -0.37738,-0.33196 -0.50191,-0.33198 -0.30258,-10e-6 -2.47495,-3.20267 -2.65266,-3.91072 -0.10579,-0.42152 -0.0738,-0.53688 0.1298,-0.46899 0.14855,0.0495 0.34151,0.35496 0.42878,0.67875 0.24441,0.90682 2.09905,3.2994 2.55758,3.2994 0.21491,0 0.44659,0.0904 0.51485,0.20079 0.22899,0.37052 1.43862,0.20844 2.17525,-0.29144 0.39895,-0.27073 1.31122,-0.98926 2.02729,-1.59671 1.66763,-1.4147 2.32742,-1.74635 3.72658,-1.87322 0.86893,-0.0788 1.34717,-0.008 2.02556,0.29613 1.08098,0.48602 3.79175,2.67783 4.1445,3.35107 0.36446,0.69562 0.87101,0.78255 1.88341,0.32322 0.48613,-0.22056 1.01942,-0.40597 1.18507,-0.41201 0.33214,-0.0121 2.33913,-2.8822 2.44401,-3.49504 0.0363,-0.21172 0.17423,-0.42102 0.30668,-0.46512 0.90229,-0.30042 -1.59382,3.6513 -2.97844,4.7153 -1.15485,0.88743 -1.7951,0.84631 -4.58458,-0.29451 -2.16096,-0.88378 -2.43657,-0.94748 -4.12289,-0.95297 -1.69515,-0.006 -1.95018,0.0523 -4.11622,0.93272 -2.91487,1.18485 -2.98888,1.20254 -3.71472,0.88819 z m -0.53501,-1.57839 c -0.2943,-0.24793 -1.04585,-1.17364 -1.67011,-2.05712 -0.62426,-0.88348 -1.35076,-1.72005 -1.61445,-1.85904 -0.45509,-0.23987 -0.8952,-1.27496 -0.89782,-2.11159 -6.1e-4,-0.19603 0.31513,-0.98439 0.70165,-1.75192 0.74319,-1.47578 0.84441,-2.30652 0.52075,-4.27397 -0.17758,-1.07946 -0.0715,-1.22321 0.93013,-1.25965 0.56369,-0.0205 0.67623,0.0628 0.86743,0.64214 0.18072,0.54761 0.1572,0.77149 -0.1326,1.26209 -0.28806,0.48764 -0.3099,0.6894 -0.11984,1.10655 0.29319,0.64347 0.15801,1.00017 -0.49109,1.29593 -0.42368,0.19305 -0.48855,0.32422 -0.37804,0.76452 0.14375,0.57274 2.82055,3.63508 3.76574,4.3081 0.80339,0.57207 1.2322,0.40523 3.0889,-1.20186 1.9035,-1.64758 2.60976,-2.04147 3.66042,-2.04147 1.15971,0 1.96758,0.41657 3.64873,1.88146 1.81705,1.58331 2.22966,1.82145 2.8752,1.65943 0.5963,-0.14966 3.84151,-3.62652 4.15535,-4.45194 0.23124,-0.60823 0.20676,-0.64941 -0.71648,-1.2053 -0.30944,-0.18632 -0.31807,-0.28832 -0.0801,-0.94648 0.23733,-0.65633 0.22729,-0.78125 -0.0911,-1.13303 -0.26078,-0.28817 -0.32127,-0.56174 -0.22304,-1.00894 0.15975,-0.72737 0.33688,-0.8593 1.26563,-0.94263 l 0.70006,-0.0628 -0.15286,1.1474 c -0.25651,1.92551 -0.13938,3.0676 0.42661,4.15928 0.77891,1.50239 0.89524,2.05599 0.64274,3.05877 -0.15646,0.62136 -0.36142,0.94013 -0.68312,1.06244 -0.25278,0.0961 -0.84234,0.7442 -1.31013,1.44021 -1.32565,1.9724 -1.99722,2.77142 -2.32936,2.77142 -0.18329,0 -0.26147,-0.11553 -0.19514,-0.28838 0.16168,-0.42135 -0.6244,-1.31796 -1.1555,-1.31796 -0.25095,0 -0.61772,0.17839 -0.81503,0.39642 -0.35394,0.39109 -0.37249,0.38406 -1.38342,-0.52485 -1.72331,-1.54941 -2.82814,-2.07691 -4.34381,-2.07397 -1.68122,0.003 -2.50102,0.38229 -4.5215,2.09063 -1.51152,1.27798 -2.56703,1.92017 -3.15232,1.9179 -0.14159,-6.1e-4 -0.49824,-0.20386 -0.79254,-0.45177 z m -0.65784,-3.85786 c 0.21438,-0.16214 0.29941,-0.29479 0.18898,-0.29479 -0.11044,0 -0.37619,0.13265 -0.59055,0.29479 -0.21438,0.16215 -0.29941,0.29481 -0.18898,0.29481 0.11044,0 0.37619,-0.13266 0.59055,-0.29481 z m 18.27485,-0.0107 c -0.21281,-0.161 -0.43608,-0.24356 -0.49616,-0.18348 -0.12604,0.12603 0.38393,0.48445 0.68229,0.47952 0.11044,-0.002 0.0266,-0.13504 -0.18613,-0.29604 z m -18.56224,-0.43014 c 0.24988,-0.30291 0.23345,-0.31162 -0.1762,-0.0934 -0.46724,0.24896 -0.58229,0.42739 -0.27558,0.42739 0.0969,0 0.30021,-0.15032 0.45178,-0.33406 z m 18.93734,0.0392 c -0.21436,-0.16214 -0.48011,-0.29481 -0.59055,-0.29481 -0.11043,0 -0.0254,0.13267 0.18898,0.29481 0.21436,0.16214 0.48011,0.2948 0.59055,0.2948 0.11043,0 0.0254,-0.13266 -0.18898,-0.2948 z m -19.05093,-0.66328 c -0.0673,-0.0673 -0.27834,0.0409 -0.46898,0.24052 -0.33135,0.34691 -0.32597,0.3523 0.12237,0.12237 0.25794,-0.13228 0.41391,-0.29558 0.34661,-0.36289 z m 19.27537,0.24893 c -0.21437,-0.16214 -0.48012,-0.2948 -0.59056,-0.2948 -0.11043,0 -0.0254,0.13266 0.18897,0.2948 0.21438,0.16214 0.48012,0.2948 0.59055,0.2948 0.11045,0 0.0254,-0.13266 -0.18896,-0.2948 z m -19.70119,-0.40159 c 0.21436,-0.16213 0.29941,-0.2948 0.18897,-0.2948 -0.11044,0 -0.37618,0.13267 -0.59056,0.2948 -0.21436,0.16214 -0.2994,0.2948 -0.18897,0.2948 0.11044,0 0.37619,-0.13266 0.59056,-0.2948 z m 19.96652,-0.0226 c -0.24489,-0.29507 -0.22082,-0.31531 0.2264,-0.1904 0.48069,0.13426 0.48505,0.12749 0.11064,-0.17183 -0.43844,-0.35049 -0.80298,-0.41625 -0.61419,-0.11079 0.0682,0.11044 0.006,0.20366 -0.13875,0.20718 -0.1621,0.004 -0.11347,0.11937 0.12693,0.30118 0.51287,0.38793 0.62851,0.37378 0.28897,-0.0353 z m -20.11956,-0.63833 c -0.18812,-0.0362 -0.29042,-0.1494 -0.22733,-0.25147 0.0631,-0.10208 0.0137,-0.18559 -0.10979,-0.18559 -0.12347,0 -0.16307,-0.0994 -0.088,-0.22083 0.0851,-0.13766 -0.0426,-0.125 -0.33899,0.0337 -0.28976,0.15507 -0.37717,0.28724 -0.22378,0.33836 0.13844,0.0462 0.20127,0.16551 0.13963,0.26525 -0.0616,0.0997 0.0508,0.12028 0.24974,0.0456 0.32204,-0.12077 0.33051,-0.0972 0.077,0.21418 -0.2658,0.32656 -0.24651,0.33244 0.28938,0.0883 0.42768,-0.19486 0.4869,-0.27841 0.23212,-0.32747 z m 20.84636,-0.0354 c -0.0682,-0.11043 -0.0111,-0.20078 0.12692,-0.20078 0.13807,0 0.0757,-0.13267 -0.13874,-0.29481 -0.52628,-0.39806 -0.89757,-0.37827 -0.38976,0.0208 0.39063,0.30697 0.3879,0.31199 -0.10039,0.18401 -0.48252,-0.12647 -0.48687,-0.11948 -0.11222,0.18003 0.43844,0.35049 0.80298,0.41625 0.6142,0.11079 z m -17.68052,-0.0203 c -1.70732,-1.0705 -2.09742,-1.54297 -2.09742,-2.54038 0,-1.22727 0.24823,-1.57274 1.40644,-1.95744 1.15758,-0.38449 2.82503,-1.59725 4.40914,-3.20686 1.32113,-1.34238 2.68176,-1.81628 3.86587,-1.34646 0.45272,0.17962 1.41446,1.71161 2.48047,3.95124 0.90873,1.90918 1.57491,2.8954 1.80225,2.66805 0.0754,-0.0754 -0.0551,-0.44789 -0.28991,-0.82784 -0.34397,-0.55656 -1.24142,-3.44804 -1.21991,-3.93043 0.003,-0.0652 0.36054,0.55088 0.79474,1.369 1.03203,1.94449 1.30003,2.19687 1.12933,1.06349 -0.12314,-0.81765 -0.10895,-0.85127 0.27314,-0.64677 0.22168,0.11863 0.46106,0.46157 0.53194,0.76208 0.0709,0.30051 0.43013,1.18158 0.7983,1.95794 0.43156,0.91003 0.6274,1.57212 0.5512,1.86353 -0.15083,0.57674 -1.72317,1.51883 -2.25383,1.3504 -0.21499,-0.0683 -1.00809,-0.75775 -1.76242,-1.53227 -1.4318,-1.4701 -2.97161,-2.59125 -3.55889,-2.59125 -0.67477,0 -1.65561,0.69022 -3.46819,2.44057 -1.01156,0.97683 -1.9652,1.77606 -2.11918,1.77606 -0.154,0 -0.72688,-0.2802 -1.27307,-0.62266 z m 14.69046,-1.9917 c -0.17765,-0.44397 -0.32299,-0.98077 -0.32299,-1.19289 0,-0.21212 -0.0904,-0.44151 -0.20079,-0.50977 -0.18251,-0.11279 -0.2966,-0.90356 -0.13036,-0.90356 0.49175,0 1.40264,0.55307 1.55024,0.94128 0.39095,1.02828 0.13731,2.47217 -0.43428,2.47217 -0.0764,0 -0.28418,-0.36325 -0.46182,-0.80723 z m -18.35921,-6.97343 c -0.35882,-0.70074 -0.41245,-1.80242 -0.10885,-2.23586 0.1625,-0.23201 0.43475,-0.89683 0.60501,-1.47739 0.76024,-2.59246 2.46088,-4.50283 5.14384,-5.77822 3.2212,-1.53124 7.33019,-1.45066 10.58909,0.20764 1.90686,0.97031 3.73815,3.2223 4.44714,5.46875 0.23528,0.74547 0.50555,1.35539 0.60061,1.35539 0.2391,0 0.21725,1.46336 -0.0316,2.11794 -0.23838,0.62699 -0.41761,0.61117 -2.40583,-0.21228 -1.49435,-0.61891 -1.93243,-1.07437 -2.12268,-2.20685 -0.23857,-1.42011 -1.31242,-4.80778 -1.63895,-5.17038 -0.5174,-0.57454 -0.85657,-0.4326 -0.85657,0.35845 0,0.87144 0.51107,1.69966 1.04881,1.69966 0.32137,0 0.37661,0.0943 0.28025,0.47818 -0.066,0.263 -0.0156,0.77755 0.1119,1.14346 0.17608,0.5051 0.17556,0.68407 -0.002,0.7433 -0.34941,0.11647 -0.28248,1.26459 0.0982,1.68528 0.2866,0.31669 0.29032,0.3672 0.0271,0.3672 -0.16788,0 -0.53497,-0.18072 -0.81576,-0.40158 -0.28079,-0.22088 -0.61383,-0.4016 -0.74009,-0.4016 -0.35977,0 -0.80742,-1.28678 -0.92595,-2.6617 -0.10909,-1.2654 -0.79565,-2.96045 -1.19908,-2.96045 -0.11969,0 -0.47582,0.26951 -0.79141,0.59891 -0.5162,0.53881 -0.54418,0.63453 -0.27865,0.95376 0.16233,0.19517 0.5517,0.87786 0.86525,1.5171 0.55219,1.12573 0.5582,1.17097 0.1912,1.43934 -0.3684,0.26937 -0.36622,0.29424 0.0786,0.89585 0.42308,0.57223 0.42946,0.61879 0.0849,0.61879 -0.59347,0 -1.27798,-0.89885 -1.47089,-1.93146 -0.36329,-1.94461 -1.15766,-2.88729 -1.90817,-2.26442 -0.38906,0.32288 -0.21753,1.45794 0.33701,2.23003 0.21491,0.29922 0.39075,0.76305 0.39075,1.03073 0,0.32653 0.14867,0.53592 0.45178,0.63628 0.30767,0.10188 -0.14022,0.20291 -1.40421,0.31677 -2.40061,0.21622 -4.91199,0.81873 -6.59684,1.58268 -1.5527,0.70403 -1.8083,0.73599 -2.05372,0.2567 z"
         id="path6583-97"
         sodipodi:nodetypes="ssssssssssssssssssscssssssssssssssssssssssssscsssssssssscssssssssssscsssssssssssssssssssssssssssscssscsssssscssccsssssssssssssssscssssssssssssssssssscsssssssssssssscssssssssssssssssssscc" />
    </g>
  </g>
</svg>
