<?xml version="1.0" encoding="UTF-8" standalone="no"?>
<!-- Created with Inkscape (http://www.inkscape.org/) -->

<svg
   width="41.008999mm"
   height="41.008999mm"
   viewBox="0 0 41.008999 41.009"
   version="1.1"
   id="svg1"
   inkscape:version="1.4.2 (f4327f4, 2025-05-13)"
   sodipodi:docname="195.svg"
   xmlns:inkscape="http://www.inkscape.org/namespaces/inkscape"
   xmlns:sodipodi="http://sodipodi.sourceforge.net/DTD/sodipodi-0.dtd"
   xmlns="http://www.w3.org/2000/svg"
   xmlns:svg="http://www.w3.org/2000/svg">
  <sodipodi:namedview
     id="namedview1"
     pagecolor="#ffffff"
     bordercolor="#000000"
     borderopacity="0.25"
     inkscape:showpageshadow="2"
     inkscape:pageopacity="0.0"
     inkscape:pagecheckerboard="0"
     inkscape:deskcolor="#d1d1d1"
     inkscape:document-units="mm"
     inkscape:zoom="2.0485264"
     inkscape:cx="83.962792"
     inkscape:cy="129.84943"
     inkscape:window-width="1050"
     inkscape:window-height="1081"
     inkscape:window-x="3737"
     inkscape:window-y="0"
     inkscape:window-maximized="0"
     inkscape:current-layer="layer1" />
  <defs
     id="defs1" />
  <g
     inkscape:label="Layer 1"
     inkscape:groupmode="layer"
     id="layer1"
     transform="translate(-114.0891,-77.774176)">
    <g
       id="g53"
       transform="translate(5.0392781,352.4634)">
      <circle
         style="fill:none;stroke:#ff0000;stroke-width:0.1;stroke-dasharray:none"
         id="path788-8-1-8-1-9-2-1-4-2-2-4-5-1-5"
         cx="129.55432"
         cy="-254.18472"
         r="19.954653" />
      <circle
         style="fill:none;stroke:#0000ff;stroke-width:0.1;stroke-linecap:round;stroke-dasharray:none;stroke-opacity:1;paint-order:markers stroke fill"
         id="path13019-1-33-7-4-6-7-2-0-9-3"
         cx="129.55432"
         cy="-269.19571"
         r="2" />
      <path
         style="fill:#000000;stroke-width:0.1;stroke-dasharray:none"
         d="m 126.33449,-237.62086 c -6.19689,-1.28809 -10.72269,-5.41541 -11.82996,-10.78838 -0.36477,-1.77004 -0.31857,-4.81842 0.0966,-6.37422 0.92468,-3.46497 3.60646,-7.04356 6.81796,-9.09793 3.62978,-2.32194 8.51367,-3.28527 12.52987,-2.47149 1.02065,0.20681 2.16302,0.50671 2.53859,0.66645 0.61858,0.2631 0.51458,0.27986 -1.1049,0.17806 -2.57079,-0.16159 -6.20702,0.57415 -7.57576,1.53285 -0.37392,0.26191 -0.13247,0.29106 1.81362,0.21902 1.41318,-0.0523 2.61321,0.0222 3.23887,0.20106 l 0.99391,0.28417 -1.10571,0.15395 c -2.77552,0.38643 -4.93581,1.36738 -6.83615,3.10418 -1.51555,1.38513 -2.18748,2.5995 -2.2123,3.9983 -0.0425,2.39851 2.55446,3.9184 5.0602,2.96145 0.99813,-0.38119 2.32969,-1.65233 2.32969,-2.224 0,-0.27026 -0.12757,-0.26919 -0.91237,0.008 -0.97082,0.34252 -3.76803,0.41116 -4.50559,0.11056 -0.47582,-0.19394 -0.4843,-0.19038 1.38213,-0.57857 0.33448,-0.0695 2.26319,-0.95713 4.28604,-1.97237 4.33722,-2.17679 6.66793,-2.96794 9.25887,-3.14287 1.03383,-0.0698 1.82376,-0.0655 1.7554,0.01 -0.0684,0.075 -0.747,0.53896 -1.50807,1.03086 -0.76108,0.49191 -2.29736,1.57578 -3.41396,2.40862 -1.11661,0.83283 -2.478,1.73741 -3.02533,2.01018 -1.99848,0.99597 -4.13007,3.97245 -4.37014,6.10234 -0.22583,2.00365 1.17004,3.13442 3.5608,2.88453 3.9322,-0.411 6.8936,-3.36354 8.12295,-8.09868 0.21153,-0.81473 0.28858,-0.91495 0.42505,-0.55286 0.37736,1.00129 0.44237,3.13026 0.13843,4.5334 -0.17126,0.79058 -0.27789,1.47317 -0.23696,1.51685 0.16686,0.17815 1.62248,-2.38794 2.11487,-3.72827 0.42313,-1.15174 0.52807,-1.86866 0.52807,-3.60732 0,-1.97605 0.0253,-2.10809 0.28308,-1.47795 0.97148,2.37466 1.22301,6.00387 0.58637,8.46074 -0.70444,2.71848 -2.78144,6.00597 -4.96056,7.85158 -1.95959,1.65968 -4.86495,3.0878 -7.51881,3.69583 -1.3227,0.30306 -5.62276,0.42586 -6.74481,0.19264 z m 9.96438,-21.18986 c 0.57882,-0.43781 -0.0241,-0.44319 -0.78702,-0.007 -0.5054,0.28892 -0.51378,0.31672 -0.0975,0.32388 0.25041,0.004 0.64846,-0.13827 0.88456,-0.31684 z"
         id="path6583-7"
         sodipodi:nodetypes="cssssssssscssssscsssssssssssssssscsssccccccc" />
      <ellipse
         style="fill:none;stroke:#ff00ff;stroke-width:0.1;stroke-dasharray:none;stroke-opacity:1"
         id="path1138-9-4-0-0-1-2-0-0-6-8-8-1-2-7"
         cx="129.55432"
         cy="-254.18472"
         rx="18.492125"
         ry="18.492126" />
    </g>
  </g>
</svg>
