<?xml version="1.0" encoding="UTF-8" standalone="no"?>
<!-- Created with Inkscape (http://www.inkscape.org/) -->

<svg
   width="41.008999mm"
   height="41.008999mm"
   viewBox="0 0 41.008999 41.009"
   version="1.1"
   id="svg1"
   inkscape:version="1.4.2 (f4327f4, 2025-05-13)"
   sodipodi:docname="196.svg"
   xmlns:inkscape="http://www.inkscape.org/namespaces/inkscape"
   xmlns:sodipodi="http://sodipodi.sourceforge.net/DTD/sodipodi-0.dtd"
   xmlns="http://www.w3.org/2000/svg"
   xmlns:svg="http://www.w3.org/2000/svg">
  <sodipodi:namedview
     id="namedview1"
     pagecolor="#ffffff"
     bordercolor="#000000"
     borderopacity="0.25"
     inkscape:showpageshadow="2"
     inkscape:pageopacity="0.0"
     inkscape:pagecheckerboard="0"
     inkscape:deskcolor="#d1d1d1"
     inkscape:document-units="mm"
     inkscape:zoom="2.0485264"
     inkscape:cx="83.962792"
     inkscape:cy="129.84943"
     inkscape:window-width="1050"
     inkscape:window-height="1081"
     inkscape:window-x="3737"
     inkscape:window-y="0"
     inkscape:window-maximized="0"
     inkscape:current-layer="layer1" />
  <defs
     id="defs1" />
  <g
     inkscape:label="Layer 1"
     inkscape:groupmode="layer"
     id="layer1"
     transform="translate(-114.0891,-77.774176)">
    <g
       id="g52"
       transform="translate(-37.143705,352.45563)">
      <circle
         style="fill:none;stroke:#ff0000;stroke-width:0.1;stroke-dasharray:none"
         id="path788-8-1-8-1-9-2-6-3-4-7-1-6-0"
         cx="171.7373"
         cy="-254.17696"
         r="19.954653" />
      <ellipse
         style="fill:none;stroke:#ff00ff;stroke-width:0.1;stroke-dasharray:none;stroke-opacity:1"
         id="path1138-9-4-0-0-1-2-0-0-6-8-8-1-2"
         cx="171.7373"
         cy="-254.17696"
         rx="18.492125"
         ry="18.492126" />
      <circle
         style="fill:none;stroke:#0000ff;stroke-width:0.1;stroke-linecap:round;stroke-dasharray:none;stroke-opacity:1;paint-order:markers stroke fill"
         id="path13019-1-33-3-83-70-3-7-5-4"
         cx="171.7373"
         cy="-269.18793"
         r="2" />
      <path
         style="fill:#000000;stroke-width:0.1;stroke-dasharray:none"
         d="m 172.21641,-236.5902 c -0.34431,-0.14401 -0.33526,-0.1919 0.14395,-0.7614 0.50726,-0.60284 0.50822,-0.61055 0.12021,-0.9617 -0.3641,-0.3295 -0.44602,-0.33244 -1.18431,-0.0424 l -0.79315,0.31156 v -0.87579 c 0,-0.63805 -0.079,-0.87579 -0.29103,-0.87579 -0.16047,0 -0.24574,0.11801 -0.19008,0.26307 0.0555,0.14469 0.009,0.50425 -0.10281,0.79903 -0.16389,0.43106 -0.3303,0.5361 -0.85029,0.5367 -0.35557,3.9e-4 -1.15925,0.0504 -1.78594,0.11104 -1.28359,0.12426 -1.44926,-0.0751 -0.57797,-0.69551 0.3088,-0.21989 0.56566,-0.51577 0.57079,-0.65752 0.005,-0.14175 0.0582,-2.13037 0.11789,-4.41915 l 0.10856,-4.16142 -0.17572,3.46785 c -0.0966,1.90732 -0.22804,3.75766 -0.292,4.11188 -0.12307,0.68153 -0.55435,0.85628 -0.84252,0.34136 -0.14459,-0.25839 -0.31581,-0.26888 -1.17018,-0.0717 -1.29427,0.29876 -2.54024,0.0952 -2.33187,-0.38086 1.3396,-3.06101 3.1685,-9.56209 4.34879,-15.4584 l 0.25068,-1.2523 -0.75077,0.12685 c -1.02342,0.1729 -1.14007,-0.1441 -0.34329,-0.93294 0.36252,-0.35891 0.57051,-0.58569 0.46219,-0.50395 -0.10833,0.0818 -0.29059,0.145 -0.40503,0.14057 -0.11444,-0.004 0.10067,-0.27195 0.47801,-0.59449 0.84955,-0.72615 0.59069,-0.77601 -0.3407,-0.0656 -0.44111,0.33646 -0.60225,0.57064 -0.45519,0.66152 0.16245,0.1004 0.13983,0.21358 -0.079,0.39518 -0.26083,0.21647 -0.30662,0.18972 -0.30662,-0.17915 0,-0.5747 0.3679,-1.24118 0.60443,-1.09499 0.10353,0.064 0.18823,0.0306 0.18823,-0.0741 0,-0.10476 0.28597,-0.29017 0.6355,-0.41201 0.34952,-0.12185 0.82198,-0.39672 1.04989,-0.61083 0.2279,-0.2141 0.72219,-0.44805 1.09841,-0.51988 0.86898,-0.1659 0.61761,0.12176 -0.45218,0.51747 -0.44697,0.16533 -0.84976,0.41206 -0.89509,0.5483 -0.11961,0.35946 0.30471,0.30368 0.91083,-0.11974 0.332,-0.23193 0.88032,-0.3696 1.48668,-0.37327 0.65435,-0.004 1.06507,-0.11686 1.28806,-0.35404 0.21468,-0.22835 0.23051,-0.2933 0.046,-0.18871 -0.20873,0.11832 -0.24871,0.0744 -0.15484,-0.17025 0.0696,-0.18136 0.0511,-0.32975 -0.0411,-0.32975 -0.28169,0 -0.65469,0.56411 -0.5186,0.78431 0.0704,0.11396 -0.19172,0.0185 -0.58255,-0.21207 -1.11872,-0.66006 -1.15507,-0.88421 -0.4724,-2.91279 0.55568,-1.65125 0.66169,-1.82215 1.25094,-2.01661 0.88285,-0.29137 1.64179,0.0163 1.81023,0.73368 0.2188,0.93196 1.2268,2.54331 1.77428,2.83632 0.81202,0.43458 1.0898,1.22868 1.37395,3.92775 0.64739,6.14975 1.50594,9.58 3.38523,13.52532 0.80999,1.70046 1.4727,3.19632 1.4727,3.32413 0,0.12781 -0.22293,0.31714 -0.49541,0.42074 -0.2918,0.11094 -0.49541,0.34523 -0.49541,0.57009 0,0.30055 -0.31716,0.4838 -1.49123,0.86161 l -1.49124,0.47987 -0.0961,-0.41084 c -0.0529,-0.22596 -0.17311,-1.03505 -0.26716,-1.79798 -0.15617,-1.26672 -0.17173,-1.30113 -0.17936,-0.39633 -0.004,0.54495 0.0559,1.50551 0.13447,2.13457 0.13656,1.09357 0.11951,1.15878 -0.38846,1.48622 -0.2922,0.18836 -0.88653,0.59128 -1.32073,0.89537 -0.83608,0.58555 -1.89105,0.82686 -2.50049,0.57194 z m 0.86281,-0.30908 c 0,-0.0418 -0.17834,-0.1226 -0.39633,-0.17961 -0.21797,-0.057 -0.39632,-0.0228 -0.39632,0.076 0,0.0988 0.17835,0.17962 0.39632,0.17962 0.21799,0 0.39633,-0.0342 0.39633,-0.076 z m 0.37738,-10.00784 c 0.11941,-0.58707 0.20497,-1.34504 0.19012,-1.68438 -0.023,-0.52491 -0.0389,-0.54305 -0.10653,-0.12158 -0.67445,4.20049 -0.85686,5.78917 -0.85459,7.44311 0.005,3.60017 0.29121,3.05718 0.42422,-0.80465 0.0713,-2.07081 0.22737,-4.24542 0.34678,-4.8325 z m -4.59361,6.26918 c -0.044,-0.35422 -0.0799,-0.0644 -0.0799,0.64403 0,0.70843 0.036,0.99824 0.0799,0.64403 0.044,-0.35422 0.044,-0.93385 0,-1.28806 z m 0.6493,1.13943 c 0,-0.16348 -0.0864,-0.29724 -0.19194,-0.29724 -0.10557,0 -0.14062,0.13376 -0.0779,0.29724 0.0628,0.16349 0.14911,0.29725 0.19194,0.29725 0.0428,0 0.0779,-0.13376 0.0779,-0.29725 z m -2.59513,-5.05315 c 0.29295,-4.11031 0.23466,-5.76637 -0.0802,-2.27887 -0.35881,3.97417 -0.51648,7.11523 -0.30839,6.14305 0.0933,-0.43596 0.26819,-2.17484 0.38859,-3.86418 z m 2.88106,4.37788 c 0.0611,-0.0989 0.0193,-0.38873 -0.093,-0.64402 -0.20016,-0.45513 -0.20245,-0.45548 -0.11801,-0.0184 0.0473,0.24522 0.005,0.44586 -0.0935,0.44586 -0.0988,0 -0.17961,0.0892 -0.17961,0.19817 0,0.24743 0.33467,0.26008 0.48409,0.0183 z m 9.7213,-0.81094 c -0.0752,-0.34256 -0.18139,-0.57825 -0.23588,-0.52375 -0.0545,0.0545 -0.0375,0.37935 0.0377,0.72191 0.0752,0.34255 0.18137,0.57824 0.23587,0.52375 0.0545,-0.0545 0.0375,-0.37936 -0.0377,-0.72191 z m -15.88401,0.15727 c 0.16102,-0.61571 0.0382,-0.64726 -0.22983,-0.059 -0.12436,0.27294 -0.14925,0.49625 -0.0553,0.49625 0.0939,0 0.22225,-0.19675 0.28513,-0.43721 z m 4.22992,-1.29671 c -0.0499,-0.19074 -0.0906,-0.0347 -0.0906,0.34678 0,0.38147 0.0408,0.53752 0.0906,0.34678 0.0498,-0.19073 0.0498,-0.50283 0,-0.69356 z m 3.24591,-2.10184 c 0.11675,-0.85628 0.47758,-2.44992 0.80184,-3.54141 0.32425,-1.0915 0.54092,-2.03317 0.48148,-2.09262 -0.0595,-0.0595 -0.12015,0.0628 -0.13489,0.27173 -0.0148,0.2089 -0.13644,-0.37816 -0.27045,-1.30457 -0.13399,-0.92641 -0.25517,-1.37228 -0.26928,-0.99082 -0.0141,0.38147 0.0589,1.2097 0.16219,1.84053 0.10366,0.63297 0.11381,1.34339 0.0226,1.5853 -0.12566,0.33342 -0.19725,0.10629 -0.29906,-0.94879 -0.31955,-3.31154 -0.47661,-3.99905 -0.36262,-1.58724 0.0618,1.30681 0.17207,2.5995 0.24512,2.87265 0.0757,0.28299 -0.025,1.09365 -0.23415,1.88448 -0.20183,0.76332 -0.39844,2.19041 -0.4369,3.17132 -0.0385,0.98091 -0.0358,1.47136 0.006,1.0899 0.0417,-0.38146 0.17139,-1.39417 0.28815,-2.25046 z m 8.04813,2.01514 c -0.0633,-0.15808 -0.1102,-0.11113 -0.11972,0.11972 -0.009,0.2089 0.0383,0.32594 0.10408,0.2601 0.0658,-0.0658 0.0729,-0.23677 0.0156,-0.37982 z m -9.65961,-3.03437 c -0.11167,-0.9809 -0.18862,-2.791 -0.171,-4.02244 0.0176,-1.23143 -0.0231,-2.29408 -0.0904,-2.36144 -0.0673,-0.0673 -0.13145,0.62808 -0.14242,1.5454 -0.011,0.91733 -0.0297,1.89081 -0.0416,2.16328 -0.0119,0.27248 0.0547,1.65466 0.14788,3.07153 0.12763,1.93941 0.21045,2.42918 0.33508,1.98162 0.0937,-0.33657 0.0774,-1.36824 -0.0375,-2.37795 z m 6.69166,1.23852 c -0.0473,-0.24523 -0.0859,-0.0446 -0.0859,0.44586 0,0.49046 0.0386,0.6911 0.0859,0.44588 0.0473,-0.24524 0.0473,-0.64652 0,-0.89174 z m -6.33772,-6.34121 c -0.044,-0.35422 -0.0799,-0.0644 -0.0799,0.64403 0,0.70843 0.0359,0.99824 0.0799,0.64403 0.044,-0.35422 0.044,-0.93384 0,-1.28806 z m 3.95115,0.19816 c -0.055,-0.13623 -0.1,-0.0248 -0.1,0.24771 0,0.27247 0.0449,0.38394 0.1,0.2477 0.055,-0.13624 0.055,-0.35917 0,-0.49541 z m -6.41737,-1.43668 c 0.0759,-1.25698 0.0588,-1.52022 -0.058,-0.89173 -0.16757,0.90116 -0.25675,2.91021 -0.12244,2.75776 0.04,-0.0454 0.12124,-0.88512 0.1805,-1.86603 z m 1.47426,0.54767 c -0.0455,-0.30121 -0.084,-0.1018 -0.0855,0.44314 -0.001,0.54495 0.0358,0.79141 0.0828,0.54768 0.047,-0.24373 0.0482,-0.6896 0.003,-0.99082 z m 1.54953,-0.75882 c -0.17435,-0.41729 -0.27243,-0.8749 -0.21794,-1.01689 0.12894,-0.33601 -0.0896,-0.31832 -0.57166,0.0463 -0.22475,0.16997 -0.55516,0.23817 -0.7911,0.16329 -0.36506,-0.11588 -0.377,-0.0947 -0.12058,0.21431 0.19487,0.23479 0.4547,0.30889 0.82414,0.235 0.4653,-0.0931 0.56874,-0.0241 0.75183,0.50109 0.11677,0.33495 0.1557,0.71022 0.0865,0.83394 -0.0929,0.16615 -0.0628,0.16702 0.11501,0.003 0.18818,-0.17321 0.17153,-0.38739 -0.0762,-0.98034 z m 2.01536,-0.52965 c -0.0474,-0.2465 -0.088,-0.0915 -0.0902,0.34447 -0.002,0.43596 0.0366,0.63764 0.0862,0.44818 0.0496,-0.18946 0.0514,-0.54616 0.004,-0.79265 z m -4.36438,0.20824 c -0.0633,-0.15809 -0.11021,-0.11113 -0.11972,0.11972 -0.009,0.2089 0.0383,0.32594 0.10408,0.26009 0.0658,-0.0658 0.0729,-0.23677 0.0157,-0.37981 z m 3.5689,-1.29667 c -0.0503,-0.19281 -0.0947,-0.083 -0.0987,0.24393 -0.004,0.32696 0.0371,0.48472 0.0914,0.35056 0.0543,-0.13417 0.0576,-0.40169 0.007,-0.59449 z m 0.59252,0.10769 c -0.0633,-0.15808 -0.11021,-0.11112 -0.11972,0.11972 -0.009,0.2089 0.0383,0.32594 0.10408,0.26009 0.0658,-0.0658 0.0729,-0.23677 0.0157,-0.37981 z m -3.36398,-0.80272 c -0.0474,-0.2465 -0.088,-0.0915 -0.0902,0.34447 -0.002,0.43595 0.0366,0.63763 0.0862,0.44818 0.0496,-0.18947 0.0514,-0.54616 0.004,-0.79265 z m 2.175,-0.1881 c -0.0633,-0.15807 -0.11021,-0.11112 -0.11972,0.11973 -0.009,0.2089 0.0383,0.32594 0.10409,0.26009 0.0658,-0.0658 0.0729,-0.23677 0.0156,-0.37982 z m -3.3668,-1.29667 c -0.0503,-0.1928 -0.0947,-0.083 -0.0987,0.24393 -0.004,0.32698 0.0371,0.48472 0.0914,0.35056 0.0543,-0.13416 0.0576,-0.40168 0.007,-0.59449 z m 2.04246,-0.35056 c 0,-0.38254 -0.10157,-0.49471 -0.44586,-0.49236 -0.63295,0.004 -1.01955,0.2998 -0.87729,0.67053 0.0746,0.19434 0.35446,0.31724 0.72245,0.31724 0.50865,0 0.6007,-0.0759 0.6007,-0.49541 z m 2.17979,-0.0953 c 0,-0.25102 -0.17455,-0.43636 -0.48414,-0.51406 -0.60238,-0.15118 -0.90299,0.0226 -0.90299,0.52198 0,0.30747 0.13913,0.38463 0.69357,0.38463 0.55923,0 0.69356,-0.076 0.69356,-0.39255 z m -1.75158,-1.1491 c -0.12652,-0.0422 -0.23004,-0.20301 -0.23004,-0.35741 0,-0.36923 -0.28436,-0.35717 -0.60198,0.0255 -0.13979,0.16844 -0.38881,0.2546 -0.55336,0.19145 -0.26371,-0.10119 -0.61657,0.18608 -0.62509,0.5089 -0.002,0.0632 0.50176,0.0234 1.11874,-0.0884 0.61697,-0.11184 1.01825,-0.23785 0.89173,-0.28002 z m -1.593,-0.97006 c -0.2336,-0.40172 -0.29001,-0.27314 -0.0988,0.22518 0.0679,0.1771 0.1653,0.28025 0.21632,0.22923 0.051,-0.051 -0.002,-0.25551 -0.11754,-0.45441 z m 1.51158,-0.20101 c -0.19074,-0.0499 -0.50284,-0.0499 -0.69357,0 -0.19073,0.0499 -0.0347,0.0906 0.34678,0.0906 0.38147,0 0.53752,-0.0408 0.34679,-0.0906 z m 1.45297,-0.78611 c 0.19934,-0.24823 0.0939,-0.21867 -0.36308,0.10176 -0.35421,0.24839 -0.64402,0.49327 -0.64402,0.54418 0,0.17126 0.72352,-0.29278 1.0071,-0.64594 z m -0.47666,-0.20012 c 1.0853,-0.74747 1.275,-0.93083 0.75761,-0.73229 -0.63473,0.24357 -0.25428,-0.14047 0.54495,-0.55008 0.46321,-0.2374 0.73512,-0.46812 0.60425,-0.5127 -0.13086,-0.0446 -0.87851,0.3371 -1.66145,0.84819 -0.78293,0.51108 -1.65676,1.00755 -1.94185,1.10324 -0.42494,0.14264 -0.37858,0.15743 0.25721,0.082 0.83226,-0.0987 0.76283,0.19373 -0.082,0.34528 l -0.49541,0.0889 0.48091,0.027 c 0.26536,0.0149 0.95369,-0.29863 1.53576,-0.69952 z m -0.33228,-0.26431 c 0.27247,-0.21313 0.58458,-0.38751 0.69357,-0.38751 0.10898,0 -0.0248,0.17438 -0.29724,0.38751 -0.27248,0.21313 -0.58458,0.38751 -0.69357,0.38751 -0.10899,0 0.0248,-0.17438 0.29724,-0.38751 z m -0.69497,-0.19589 c 0.0694,-0.11233 -0.0101,-0.14555 -0.18647,-0.0779 -0.3433,0.13174 -0.40612,0.27377 -0.12107,0.27377 0.10255,0 0.24095,-0.0882 0.30754,-0.19589 z m 1.63624,-3.11131 c -0.19073,-0.0499 -0.50284,-0.0499 -0.69357,0 -0.19073,0.0499 -0.0347,0.0906 0.34679,0.0906 0.38146,0 0.53751,-0.0408 0.34678,-0.0906 z m -0.44586,-0.45789 c 0.0673,-0.10899 -0.0611,-0.19816 -0.28555,-0.19816 -0.22442,0 -0.40802,0.0892 -0.40802,0.19816 0,0.10899 0.12849,0.19816 0.28555,0.19816 0.15705,0 0.34065,-0.0892 0.40802,-0.19816 z m 1.28805,0 c 0,-0.10899 -0.15605,-0.1968 -0.34678,-0.19513 -0.29637,0.002 -0.30356,0.0309 -0.0496,0.19513 0.37398,0.24168 0.39633,0.24168 0.39633,0 z"
         id="path6583-8"
         sodipodi:nodetypes="sssscssssssscscsssssscssscssssssssssssscsssssssssssssssscssccsssssssssssccssssssssssssssscssssccsssssssssscsscssssssssssssscssssssscssssssccssssssssssssssssscsscccsssssssccccssccsssssccsccssssscssccsssssccsccscsssssssssssscssscsscsssssssssssssssscsssssssssssscsscssssssccss" />
    </g>
  </g>
</svg>
