<?xml version="1.0" encoding="UTF-8" standalone="no"?>
<!-- Created with Inkscape (http://www.inkscape.org/) -->

<svg
   width="41.008999mm"
   height="41.008999mm"
   viewBox="0 0 41.008999 41.009"
   version="1.1"
   id="svg1"
   inkscape:version="1.4.2 (f4327f4, 2025-05-13)"
   sodipodi:docname="197.svg"
   xmlns:inkscape="http://www.inkscape.org/namespaces/inkscape"
   xmlns:sodipodi="http://sodipodi.sourceforge.net/DTD/sodipodi-0.dtd"
   xmlns="http://www.w3.org/2000/svg"
   xmlns:svg="http://www.w3.org/2000/svg">
  <sodipodi:namedview
     id="namedview1"
     pagecolor="#ffffff"
     bordercolor="#000000"
     borderopacity="0.25"
     inkscape:showpageshadow="2"
     inkscape:pageopacity="0.0"
     inkscape:pagecheckerboard="0"
     inkscape:deskcolor="#d1d1d1"
     inkscape:document-units="mm"
     inkscape:zoom="2.0485264"
     inkscape:cx="83.962792"
     inkscape:cy="129.84943"
     inkscape:window-width="1050"
     inkscape:window-height="1081"
     inkscape:window-x="3737"
     inkscape:window-y="0"
     inkscape:window-maximized="0"
     inkscape:current-layer="layer1" />
  <defs
     id="defs1" />
  <g
     inkscape:label="Layer 1"
     inkscape:groupmode="layer"
     id="layer1"
     transform="translate(-114.0891,-77.774176)">
    <g
       id="g47"
       transform="translate(-79.326704,352.53913)">
      <circle
         style="fill:none;stroke:#ff0000;stroke-width:0.1;stroke-dasharray:none"
         id="path788-8-1-8-1-9-2-9-3-7-1-2-04-7-4"
         cx="213.9203"
         cy="-254.26045"
         r="19.954653" />
      <ellipse
         style="fill:none;stroke:#ff00ff;stroke-width:0.1;stroke-dasharray:none;stroke-opacity:1"
         id="path1138-9-4-0-0-1-2-25-0-9-29-6-3-1-2"
         cx="213.9203"
         cy="-254.26045"
         rx="18.492125"
         ry="18.492126" />
      <circle
         style="fill:none;stroke:#0000ff;stroke-width:0.1;stroke-linecap:round;stroke-dasharray:none;stroke-opacity:1;paint-order:markers stroke fill"
         id="path13019-1-33-5-7-7-4-6-7-8-7"
         cx="213.92029"
         cy="-269.27142"
         r="2" />
      <path
         style="fill:#000000;stroke-width:0.1;stroke-dasharray:none"
         d="m 204.96637,-238.93788 c -0.27133,-0.10979 -0.96645,-0.76787 -1.54468,-1.46239 -0.57823,-0.69452 -1.70897,-1.99587 -2.51272,-2.89186 -1.57092,-1.75117 -2.14234,-3.14953 -1.85467,-4.53867 0.0842,-0.40675 0.56367,-1.49699 1.06541,-2.42274 0.88825,-1.63886 0.90927,-1.73347 0.79815,-3.59282 -0.10486,-1.7549 -0.0679,-1.96511 0.45565,-2.59439 0.93542,-1.12426 1.23274,-1.81486 1.26673,-2.94241 0.0491,-1.62761 0.73634,-4.48882 1.41076,-5.87324 1.23116,-2.52731 4.1952,-4.40366 7.11218,-4.5023 1.70308,-0.0576 1.66546,-0.0307 -0.59411,0.42523 -2.6122,0.52706 -4.87636,2.10473 -5.99125,4.17471 -0.65668,1.21925 -1.26338,3.68039 -1.04656,4.24542 0.11138,0.29027 1.6949,0.34196 10.47621,0.34196 h 10.34496 v -0.90745 c 0,-1.29301 -0.58693,-3.09843 -1.41243,-4.34473 -1.21731,-1.83779 -3.73953,-3.29264 -6.51091,-3.75559 l -1.22595,-0.20479 1.37166,-0.0278 c 2.4954,-0.0506 5.65017,1.78077 7.02141,4.07583 0.84342,1.41167 1.5217,4.1303 1.56386,6.26824 0.0159,0.80361 0.16664,1.38009 0.44,1.68223 0.22873,0.25281 0.41587,0.57885 0.41587,0.72453 0,0.14568 0.24062,0.43418 0.5347,0.64111 0.49425,0.34779 0.53029,0.53458 0.47636,2.46897 -0.0564,2.02737 -0.0288,2.15001 0.89115,3.92761 0.7231,1.39734 0.94714,2.10101 0.93956,2.95091 -0.0125,1.40614 -0.43643,2.18227 -2.3627,4.32614 -0.84749,0.94323 -1.77668,2.06197 -2.06487,2.48607 -0.72896,1.07278 -1.86867,1.55196 -3.69117,1.55196 -1.28731,0 -1.69729,-0.11139 -2.66212,-0.72326 -1.0578,-0.67084 -1.20329,-0.70247 -2.00709,-0.43643 -1.12717,0.37307 -3.2406,0.36629 -4.39,-0.0141 -0.82312,-0.27239 -0.95821,-0.25505 -1.42586,0.18296 -0.28412,0.26613 -0.81763,0.59793 -1.18557,0.73734 -0.78354,0.29689 -3.38964,0.31194 -4.10196,0.0237 z m 4.17422,-0.60063 c 0.37768,-0.19532 0.83757,-0.57051 1.02198,-0.83379 0.31817,-0.45425 0.38711,-0.46038 1.35134,-0.12018 1.30854,0.46168 3.81832,0.45987 4.92743,-0.004 0.85754,-0.35831 0.87463,-0.35414 1.65757,0.40472 0.69693,0.6755 0.97995,0.77878 2.37786,0.8678 1.20814,0.0771 1.77225,9e-4 2.36415,-0.31763 0.82861,-0.44623 1.87112,-1.83152 2.11773,-2.81404 0.1319,-0.52558 0.54868,-0.88841 0.96317,-0.8385 0.21085,0.0254 1.52887,-1.27762 1.80179,-1.78129 0.17132,-0.31613 0.16541,-0.39789 -0.0204,-0.28303 -0.32937,0.20356 -0.32744,0.0527 0.0139,-1.08658 0.15141,-0.5053 0.36904,-0.91874 0.48366,-0.91874 0.11461,0 0.0802,-0.2396 -0.0766,-0.53245 -0.15674,-0.29284 -0.30942,-0.75537 -0.33935,-1.02784 -0.0299,-0.27245 -0.39202,-1.09366 -0.8047,-1.82489 -0.52826,-0.93604 -0.96306,-1.40367 -1.46917,-1.58009 -0.76181,-0.26557 -0.75902,-0.77567 0.003,-0.57634 0.55363,0.14476 0.79074,-0.18677 0.46378,-0.64849 -0.19713,-0.27839 -0.2176,-0.26231 -0.10586,0.0831 0.0816,0.25213 0.0415,0.36827 -0.0974,0.28244 -0.12972,-0.0803 -0.18217,-0.57314 -0.11654,-1.09548 0.0791,-0.63002 0.0352,-0.8977 -0.13063,-0.79523 -0.16883,0.10435 -0.20903,-0.27676 -0.12388,-1.17447 0.08,-0.8422 0.0355,-1.32897 -0.12099,-1.32897 -0.13589,0 -0.22805,0.18715 -0.20477,0.41589 0.0233,0.22873 0.0284,0.62976 0.0113,0.89116 -0.0239,0.36628 -0.0786,0.40018 -0.23845,0.14779 -0.1141,-0.18013 -0.32511,-0.25478 -0.46893,-0.16589 -0.16422,0.10149 -0.20903,0.0249 -0.12049,-0.20583 0.0776,-0.2021 0.25491,-0.29705 0.39413,-0.21101 0.16112,0.0996 0.19526,0.005 0.0939,-0.25845 -0.0875,-0.22819 -0.15917,-0.72696 -0.15917,-1.10838 v -0.6935 h -10.55916 c -10.35044,0 -10.56212,0.009 -10.70999,0.4753 -0.083,0.2614 -0.074,0.71589 0.0198,1.00997 0.0938,0.29409 0.18646,1.13948 0.20588,1.87865 0.0367,1.39633 0.51434,2.39729 0.86967,1.82236 0.10266,-0.16611 0.10184,-0.35832 -0.002,-0.42712 -0.10368,-0.0688 -0.26126,-0.44592 -0.35016,-0.83803 -0.12111,-0.53413 0.0175,-0.39264 0.55286,0.56414 0.39299,0.7024 0.85028,1.44478 1.01623,1.64972 0.1957,0.24171 0.20413,0.31413 0.024,0.20612 -0.17778,-0.10659 -0.33423,0.0908 -0.43476,0.5485 -0.0864,0.39325 -0.25542,0.71501 -0.37574,0.71501 -0.12033,0 -0.21877,-0.0447 -0.21877,-0.0994 0,-0.0548 -0.0636,-0.29528 -0.14123,-0.5347 -0.11887,-0.36633 -0.0989,-0.37883 0.12603,-0.0788 0.20933,0.27918 0.23272,0.20191 0.10781,-0.35647 -0.18742,-0.83792 -0.33026,-1.06666 -0.33026,-0.52892 0,0.21013 -0.12377,0.45855 -0.27507,0.55205 -0.18947,0.1171 -0.23227,0.006 -0.13752,-0.35603 0.11747,-0.44918 0.0848,-0.48226 -0.22339,-0.22647 -0.19852,0.16477 -0.57248,0.33185 -0.83101,0.37131 -0.25855,0.0395 -0.66081,0.17382 -0.89394,0.29858 -0.52608,0.28155 -2.20604,3.05935 -2.0262,3.35031 0.0723,0.11705 0.0211,0.41892 -0.11358,0.67081 -0.31234,0.58362 0.41782,2.33873 1.56034,3.75061 1.18299,1.4619 0.97414,1.48023 -0.41018,0.036 -0.98967,-1.03251 -1.08082,-1.08999 -0.49734,-0.31363 0.39292,0.52281 1.0678,1.2714 1.49973,1.66351 0.43194,0.3921 0.667,0.55252 0.5224,0.35647 -0.19256,-0.26108 -0.19014,-0.57486 0.009,-1.17257 0.21974,-0.65937 0.57963,-0.98223 1.87391,-1.68114 0.88106,-0.47577 1.6727,-0.93581 1.7592,-1.02231 0.0865,-0.0865 -0.0997,-0.36147 -0.4137,-0.61103 -0.31404,-0.24957 -0.76278,-0.8125 -0.99722,-1.25095 -0.40986,-0.76664 -0.40986,-0.77443 0,-0.20312 0.83061,1.15777 1.47936,1.66355 2.13836,1.66716 0.46119,0.003 0.56608,0.0659 0.34306,0.20722 -0.25171,0.1595 -0.20168,0.28732 0.23111,0.59047 0.30381,0.21279 0.45679,0.38688 0.33997,0.38688 -0.11681,0 -0.40451,-0.17386 -0.63933,-0.38635 -0.3973,-0.35955 -0.53547,-0.3307 -1.99072,0.41587 -1.90599,0.9778 -2.49219,1.49069 -2.48916,2.17795 0.004,0.86695 1.06573,2.87734 1.88311,3.56513 0.65943,0.55486 0.97762,0.6438 2.30339,0.6438 0.89992,0 1.82321,-0.14735 2.22496,-0.35511 z m -2.93109,-1.03007 c -1.07179,-1.18431 0.09,-2.44182 2.19342,-2.3743 1.33392,0.0428 1.33401,0.0428 0.2181,0.13132 l -1.11631,0.0884 0.48605,0.48604 c 0.31398,0.31398 0.4474,0.68812 0.37691,1.05689 -0.10953,0.57295 0.14506,0.77655 0.41828,0.33447 0.0803,-0.12998 0.38075,-0.35033 0.66755,-0.48961 0.40599,-0.19719 0.37018,-0.1154 -0.16166,0.36925 -0.37571,0.34239 -0.82678,0.56739 -1.00238,0.50001 -0.17559,-0.0674 -0.38245,-0.0202 -0.4597,0.10476 -0.23409,0.37873 -1.20195,0.2549 -1.62026,-0.20734 z m 1.46327,-0.81648 c 0.0946,-0.49112 -0.59146,-0.82204 -0.95353,-0.45997 -0.36208,0.36209 -0.0312,1.04811 0.45995,0.95353 0.22764,-0.0438 0.44975,-0.26594 0.49358,-0.49356 z m 12.32008,0.81648 c -0.51089,-0.56452 -0.48714,-1.21628 0.0686,-1.88244 0.56832,-0.68125 0.8477,-0.67259 1.5689,0.0486 0.70761,0.70761 0.73522,1.16594 0.10802,1.79314 -0.592,0.59201 -1.23303,0.60695 -1.7455,0.0407 z m 1.46328,-0.81648 c 0.0947,-0.49112 -0.59145,-0.82204 -0.95353,-0.45997 -0.36208,0.36209 -0.0312,1.04811 0.45995,0.95353 0.22763,-0.0438 0.44975,-0.26594 0.49358,-0.49356 z m -6.7672,-0.88772 c 0,-0.98029 0.0418,-1.3813 0.0932,-0.89117 0.0513,0.49014 0.0513,1.29219 0,1.78234 -0.0514,0.49013 -0.0932,0.0891 -0.0932,-0.89117 z m 3.81864,1.15143 -0.4527,-0.51208 0.65352,0.42059 c 0.67385,0.43368 0.80128,0.60357 0.4527,0.60357 -0.11044,0 -0.40452,-0.23043 -0.65352,-0.51208 z m -5.72363,-1.15143 c 0,-0.84959 0.0431,-1.19714 0.0958,-0.77235 0.0527,0.4248 0.0527,1.1199 0,1.54468 -0.0527,0.4248 -0.0958,0.0773 -0.0958,-0.77233 z m 0.47528,0 c 0,-0.84959 0.0431,-1.19714 0.0958,-0.77235 0.0527,0.4248 0.0527,1.1199 0,1.54468 -0.0527,0.4248 -0.0958,0.0773 -0.0958,-0.77233 z m 1.90116,0 c 0,-0.84959 0.0431,-1.19714 0.0958,-0.77235 0.0527,0.4248 0.0527,1.1199 0,1.54468 -0.0527,0.4248 -0.0958,0.0773 -0.0958,-0.77233 z m -3.22486,0.8574 c -0.53837,-0.40868 -0.52794,-0.91996 0.0291,-1.42407 0.42845,-0.38774 0.44576,-0.36268 0.46662,0.6761 0.0118,0.59334 -9e-4,1.07539 -0.0291,1.07123 -0.028,-0.004 -0.23788,-0.14962 -0.46662,-0.32326 z m 3.62409,-0.7734 c 0,-1.0932 0.006,-1.1024 0.47529,-0.67811 0.2614,0.23658 0.47528,0.6017 0.47528,0.81142 0,0.20971 -0.21388,0.51486 -0.47528,0.67811 -0.44979,0.2809 -0.47529,0.23734 -0.47529,-0.81142 z m -4.11761,-1.1181 c 0.805,-0.66963 1.74118,-1.18391 1.88795,-1.03712 0.0584,0.0584 -0.21042,0.23719 -0.59728,0.39743 -0.38685,0.16024 -0.88809,0.49547 -1.11384,0.74492 -0.22577,0.24947 -0.50906,0.45357 -0.62954,0.45357 -0.12047,0 0.0833,-0.25145 0.45271,-0.5588 z m 4.92678,0.0241 -0.45271,-0.53469 0.5347,0.45271 c 0.50248,0.42543 0.64288,0.61668 0.45271,0.61668 -0.0451,0 -0.28572,-0.24061 -0.5347,-0.5347 z m 10.09299,-0.82457 c 0.56405,-0.81912 0.98004,-1.17483 0.98004,-0.83801 0,0.11396 -0.33905,0.5213 -0.75346,0.9052 l -0.75344,0.69797 z m -11.13981,0.17105 c -0.21419,-0.1384 -0.2435,-0.23182 -0.0734,-0.23401 0.15566,-0.002 0.34913,0.1033 0.4299,0.23401 0.18235,0.29505 0.10008,0.29505 -0.35647,0 z m -13.33826,-1.84175 c 0.29556,-0.54826 1.45801,-1.63 1.44908,-1.34846 -0.008,0.24422 -1.33693,1.76434 -1.54273,1.76434 -0.0718,0 -0.0296,-0.18713 0.0936,-0.41588 z m 23.12766,-0.53897 c -0.43217,-0.52047 -0.68229,-0.94629 -0.55583,-0.94629 0.2735,0 1.46041,1.36679 1.46041,1.68174 0,0.33188 -0.0563,0.28602 -0.90458,-0.73545 z m -16.91872,-0.0102 c 0,-0.42413 -0.099,-0.66577 -0.23765,-0.58008 -0.59933,0.3704 -0.14656,-0.12985 0.65352,-0.72203 0.49014,-0.3628 0.75749,-0.51451 0.59411,-0.33714 -0.16337,0.17735 -0.29706,0.71993 -0.29706,1.2057 0,0.4858 0.13369,0.93719 0.29706,1.00311 0.16338,0.0659 0.003,0.12832 -0.35647,0.13863 -0.5746,0.0165 -0.65351,-0.0691 -0.65351,-0.70819 z m 10.63457,0.56956 c 0.16338,-0.066 0.29705,-0.51731 0.29705,-1.00311 0,-0.48577 -0.13367,-1.03207 -0.29705,-1.214 -0.16339,-0.18191 0.0844,-0.0162 0.55061,0.36835 0.4662,0.38451 0.75493,0.76221 0.64161,0.83932 -0.11333,0.0771 -0.22345,0.3712 -0.24471,0.65353 -0.0291,0.38657 -0.18754,0.50868 -0.64161,0.49454 -0.33162,-0.0104 -0.46929,-0.0727 -0.3059,-0.13863 z m 2.10611,-0.54054 c 1.25796,-0.95036 1.5657,-1.23588 2.07077,-1.92131 0.43186,-0.58606 0.43204,-0.58545 0.0354,0.12399 -0.21926,0.39211 -0.62462,0.90904 -0.90085,1.14876 l -0.50222,0.43582 0.58566,0.47596 c 0.32213,0.26178 0.42526,0.39695 0.2292,0.30037 -0.19606,-0.0965 -0.52625,-0.32059 -0.73377,-0.49784 -0.32254,-0.27546 -0.43999,-0.25295 -0.80918,0.15497 -0.23753,0.26247 -0.53693,0.4772 -0.66535,0.4772 -0.12843,0 0.18223,-0.31405 0.69034,-0.69792 z m -19.63236,0.25875 c 0,-0.1544 0.37139,-0.68018 0.82531,-1.1684 1.07308,-1.15415 1.07003,-0.69735 -0.004,0.51837 -0.45202,0.51192 -0.82186,0.80444 -0.82186,0.65003 z m 8.46866,-1.14812 c 0.0243,-1.0122 0.14316,-1.43438 0.47529,-1.68728 0.7054,-0.53708 2.45523,-1.24282 3.01737,-1.21697 0.47327,0.0217 0.46687,0.0391 -0.0791,0.21396 -0.32675,0.10465 -0.46042,0.20093 -0.29705,0.21395 0.20431,0.0164 0.29705,0.49973 0.29705,1.54858 0,0.99755 0.10272,1.56633 0.29706,1.64474 0.16338,0.0659 0.003,0.12832 -0.35647,0.13863 -0.65221,0.0187 -0.65352,0.0154 -0.65352,-1.63729 0,-1.41021 -0.0556,-1.6347 -0.3747,-1.51226 -0.30197,0.11588 -0.35963,0.46047 -0.29705,1.77539 0.0678,1.42525 0.0251,1.63157 -0.33824,1.6311 -0.35044,-4.7e-4 -0.41587,-0.22801 -0.41587,-1.4462 0,-1.05031 -0.0812,-1.41889 -0.29706,-1.34778 -0.4225,0.13923 -0.53648,2.57053 -0.13253,2.82672 0.21277,0.13494 0.12342,0.19829 -0.28335,0.20089 -0.5682,0.004 -0.5927,-0.0551 -0.56181,-1.34618 z m 7.80996,-0.11414 c 0,-0.95983 -0.10239,-1.49921 -0.29705,-1.56492 -0.21608,-0.073 -0.29706,0.29383 -0.29706,1.34541 0,1.21819 -0.0655,1.44575 -0.41588,1.4462 -0.36327,4.8e-4 -0.40605,-0.20585 -0.33824,-1.6311 0.0627,-1.31492 0.004,-1.65951 -0.29705,-1.77539 -0.31908,-0.12244 -0.37469,0.10205 -0.37469,1.51226 0,1.65271 -0.002,1.65602 -0.65352,1.63729 -0.35944,-0.0104 -0.51986,-0.0727 -0.35648,-0.13863 0.19433,-0.0784 0.29706,-0.64719 0.29706,-1.64474 0,-1.04885 0.0927,-1.53229 0.29705,-1.54858 0.16338,-0.0131 0.0297,-0.1093 -0.29705,-0.21395 -0.52374,-0.16772 -0.53515,-0.19308 -0.0962,-0.21396 0.2738,-0.013 1.17333,0.32387 1.99895,0.74866 l 1.50113,0.77235 0.021,1.3666 c 0.0164,1.06557 -0.0575,1.36668 -0.33545,1.36689 -0.27834,2.3e-4 -0.35646,-0.32077 -0.35646,-1.46439 z m 8.09261,0.39441 c -0.88824,-1.084 -0.8599,-1.51721 0.0349,-0.5347 0.49779,0.54653 1.11742,1.60409 0.93986,1.60409 -0.0543,0 -0.49289,-0.48122 -0.97485,-1.06939 z m 0.47529,-0.71294 c -0.48197,-0.58817 -0.76763,-1.06939 -0.63483,-1.06939 0.13281,0 0.49848,0.34755 0.8126,0.77234 1.24097,1.67813 1.11982,1.88058 -0.17777,0.29705 z m -25.08417,0.62062 c 0,-0.31876 1.22077,-1.73668 1.36824,-1.58922 0.0665,0.0665 -0.21417,0.50249 -0.62367,0.96888 -0.40952,0.46642 -0.74457,0.74556 -0.74457,0.62034 z m 2.38192,-1.44384 c -0.41635,-0.64883 -0.68853,-1.29047 -0.60486,-1.42586 0.0837,-0.1354 -0.0413,-0.25369 -0.27776,-0.26289 -0.40541,-0.0156 -0.40475,-0.0266 0.0117,-0.19036 0.24289,-0.0956 0.58666,-0.43558 0.76393,-0.75565 0.31253,-0.56436 0.32254,-0.56629 0.3307,-0.0638 0.005,0.34484 0.18728,0.55262 0.54313,0.62116 0.37469,0.0722 0.28579,0.11828 -0.29706,0.15411 -0.45747,0.0282 -0.70944,0.10127 -0.55993,0.16258 0.14951,0.0613 0.22073,0.30686 0.15827,0.54569 -0.0625,0.23883 0.11148,0.87534 0.38652,1.41447 0.67751,1.32801 0.46593,1.2352 -0.45467,-0.19946 z m 20.80274,-0.0363 c 0.21066,-0.4074 0.3317,-0.93696 0.26897,-1.17683 -0.0626,-0.23987 0.008,-0.49456 0.15778,-0.56598 0.1495,-0.0715 -0.0757,-0.0951 -0.50052,-0.0525 -0.42479,0.0425 -0.77234,-0.0112 -0.77234,-0.1192 0,-0.10807 0.21388,-0.19648 0.47529,-0.19648 0.26141,0 0.47528,-0.1566 0.47528,-0.34798 0,-0.25271 0.14636,-0.20393 0.5347,0.17824 0.29409,0.28941 0.45382,0.56207 0.35498,0.60591 -0.0989,0.0438 -0.12157,0.17378 -0.0506,0.28873 0.11627,0.18814 -1.00793,2.12683 -1.23332,2.12683 -0.0514,0 0.079,-0.33331 0.28969,-0.74069 z m -24.13524,-0.29961 c 0,-0.0493 0.18715,-0.2365 0.41588,-0.41589 0.37692,-0.29559 0.38533,-0.28719 0.0898,0.0898 -0.31046,0.39586 -0.50561,0.52174 -0.50561,0.32615 z m 26.85379,-0.64444 c -0.51184,-0.41865 -0.52189,-0.45066 -0.0727,-0.23109 0.28681,0.14019 0.58719,0.36124 0.66754,0.49125 0.21449,0.34704 0.0704,0.28404 -0.5949,-0.26016 z m -4.1257,-1.76061 c -0.0835,-0.21771 -0.1519,-0.61406 -0.1519,-0.88078 0,-0.39592 -0.0631,-0.43263 -0.34338,-0.19997 -0.18886,0.15674 -0.58989,0.23788 -0.89117,0.18029 -0.4955,-0.0948 -0.4867,-0.1078 0.0923,-0.13707 0.35202,-0.0178 0.77978,-0.21951 0.95057,-0.44823 0.39349,-0.52699 0.90464,-0.63867 0.90464,-0.19767 0,0.18536 0.0717,0.52373 0.15921,0.75192 0.11783,0.30708 0.0764,0.36373 -0.15921,0.21809 -0.22592,-0.13963 -0.27856,-0.0929 -0.18119,0.1608 0.0755,0.19667 0.0551,0.49053 -0.0454,0.65302 -0.13606,0.22015 -0.22128,0.19457 -0.33447,-0.10039 z m -16.60875,-0.98964 c 0.16339,-0.0659 0.43072,-0.0659 0.59411,0 0.16338,0.0659 0.0297,0.11988 -0.29706,0.11988 -0.32675,0 -0.46044,-0.054 -0.29705,-0.11988 z m 18.12036,-0.27828 c 0,-0.15249 -0.12705,-0.25052 -0.28234,-0.21784 -0.34421,0.0724 -0.6688,-1.57843 -0.39516,-2.00977 0.12361,-0.19485 0.19891,-0.003 0.2058,0.52448 0.009,0.69068 0.0527,0.75991 0.2574,0.40819 0.1356,-0.23296 0.25556,-0.74092 0.26658,-1.1288 0.011,-0.38789 0.11922,-0.70525 0.24045,-0.70525 0.20233,0 0.014,3.06722 -0.20317,3.30722 -0.0492,0.0545 -0.0896,-0.0258 -0.0896,-0.17823 z m -4.99052,-0.27726 c -0.19605,-0.12669 -0.24954,-0.23037 -0.11882,-0.23037 0.1307,0 0.39806,0.10368 0.59411,0.23037 0.19605,0.1267 0.24952,0.23036 0.11882,0.23036 -0.13071,0 -0.39806,-0.10366 -0.59411,-0.23036 z m -13.71932,-1.75215 c -0.0786,-0.1273 -0.007,-0.14176 0.16771,-0.0338 0.20471,0.12651 0.26571,0.0799 0.18524,-0.14151 -0.0659,-0.18158 -0.2482,-0.30076 -0.40495,-0.26484 -0.15675,0.0359 -0.21865,-0.0421 -0.13753,-0.17333 0.0811,-0.13124 0.0327,-0.45318 -0.1077,-0.71541 -0.14036,-0.26225 -0.34058,-0.93283 -0.44498,-1.49019 l -0.1898,-1.01339 3.51175,0.11909 c 3.78334,0.12829 4.43146,0.32864 3.69519,1.14222 -0.2194,0.24242 -0.34521,0.51229 -0.27957,0.59972 0.0657,0.0874 0.0518,0.10923 -0.0307,0.0485 -0.26849,-0.19762 -1.05619,0.36433 -0.88928,0.63439 0.0892,0.14435 0.055,0.19616 -0.0761,0.11516 -0.13106,-0.0811 -0.94065,0.22569 -1.79909,0.68152 -1.52062,0.80745 -2.87637,1.01585 -3.20018,0.4919 z m 13.51959,-0.52098 c -0.82872,-0.44975 -1.62057,-0.7474 -1.75964,-0.66144 -0.13955,0.0863 -0.18408,0.0451 -0.0994,-0.0921 0.0844,-0.1366 -0.13967,-0.43731 -0.49798,-0.66824 -0.64198,-0.41375 -1.07028,-0.94353 -1.14804,-1.42013 -0.0257,-0.1575 1.27002,-0.24131 3.67426,-0.23764 3.61608,0.005 3.71589,0.0192 3.78673,0.51607 0.0606,0.42529 -0.19201,1.1722 -0.86338,2.55265 -0.0564,0.11623 0.0346,0.12643 0.20241,0.0228 0.20161,-0.12459 0.24682,-0.0943 0.13324,0.0897 -0.0946,0.15304 -0.2594,0.2242 -0.36627,0.15816 -0.10686,-0.066 -0.32644,0.0391 -0.48797,0.23377 -0.42487,0.51194 -0.88345,0.42403 -2.57399,-0.49342 z m -15.73994,1.20374 c -0.0988,-0.13071 -0.25607,-1.01296 -0.34942,-1.96058 -0.0934,-0.94759 -0.25042,-1.72291 -0.34898,-1.72291 -0.27417,0 -0.45688,0.93206 -0.21235,1.08318 0.11843,0.0732 0.20781,0.3674 0.19862,0.65377 -0.0162,0.50415 -0.0236,0.50559 -0.236,0.0454 -0.16441,-0.35635 -0.20483,-0.19848 -0.16153,0.63083 0.0318,0.60838 -0.0225,1.05656 -0.12046,0.99596 -0.0981,-0.0605 -0.17824,0.22419 -0.17824,0.63283 0,0.62393 0.0729,0.71981 0.45529,0.59846 0.25748,-0.0818 0.53701,-0.0123 0.64338,0.15982 0.13204,0.21366 0.23296,0.12804 0.33873,-0.28739 0.0829,-0.32544 0.0698,-0.69865 -0.0291,-0.82936 z"
         id="path6583-26"
         sodipodi:nodetypes="sssssssssssssscssscsssssssssssssssssscssssscsssssssssscssssssssssssssscssssssssssssssssssssssssssssssssssscssssscssccssscsssssssssssssssssssssssssssscsssssssssssssssssscsssssssssssssscsssssscsscsssscsssssssssssssssssssssssssscsssssscssccssssssssssssssssssssssscsssssssscssssssssssssssssssssscsssssssssssssssssssssssssssssssssssssssssssssssssssssssssssssssssssscsssssssssssssscssssssssssssssssssssss" />
    </g>
  </g>
</svg>
