<?xml version="1.0" encoding="UTF-8" standalone="no"?>
<!-- Created with Inkscape (http://www.inkscape.org/) -->

<svg
   width="41.008999mm"
   height="41.008999mm"
   viewBox="0 0 41.008999 41.009"
   version="1.1"
   id="svg1"
   inkscape:version="1.4.2 (f4327f4, 2025-05-13)"
   sodipodi:docname="198.svg"
   xmlns:inkscape="http://www.inkscape.org/namespaces/inkscape"
   xmlns:sodipodi="http://sodipodi.sourceforge.net/DTD/sodipodi-0.dtd"
   xmlns="http://www.w3.org/2000/svg"
   xmlns:svg="http://www.w3.org/2000/svg">
  <sodipodi:namedview
     id="namedview1"
     pagecolor="#ffffff"
     bordercolor="#000000"
     borderopacity="0.25"
     inkscape:showpageshadow="2"
     inkscape:pageopacity="0.0"
     inkscape:pagecheckerboard="0"
     inkscape:deskcolor="#d1d1d1"
     inkscape:document-units="mm"
     inkscape:zoom="2.0485264"
     inkscape:cx="83.962792"
     inkscape:cy="129.84943"
     inkscape:window-width="1050"
     inkscape:window-height="1081"
     inkscape:window-x="3737"
     inkscape:window-y="0"
     inkscape:window-maximized="0"
     inkscape:current-layer="layer1" />
  <defs
     id="defs1" />
  <g
     inkscape:label="Layer 1"
     inkscape:groupmode="layer"
     id="layer1"
     transform="translate(-114.0891,-77.774176)">
    <g
       id="g46"
       transform="translate(-121.42798,352.22623)">
      <circle
         style="fill:none;stroke:#ff0000;stroke-width:0.1;stroke-dasharray:none"
         id="path788-8-1-8-1-9-2-2-9-1-0-0-4-6-06"
         cx="256.02158"
         cy="-253.94756"
         r="19.954653" />
      <ellipse
         style="fill:none;stroke:#ff00ff;stroke-width:0.1;stroke-dasharray:none;stroke-opacity:1"
         id="path1138-9-4-0-0-1-2-8-1-8-6-2-9-9-0"
         cx="256.02158"
         cy="-253.94756"
         rx="18.492125"
         ry="18.492126" />
      <circle
         style="fill:none;stroke:#0000ff;stroke-width:0.1;stroke-linecap:round;stroke-dasharray:none;stroke-opacity:1;paint-order:markers stroke fill"
         id="path13019-1-33-4-5-5-5-5-7-1-7"
         cx="256.02158"
         cy="-268.95853"
         r="2" />
      <path
         style="fill:#000000;stroke-width:0.1;stroke-dasharray:none"
         d="m 249.10316,-238.12101 c -0.63639,-0.1551 -1.3301,-0.49597 -1.66781,-0.81952 -0.71425,-0.6843 -1.53119,-2.34709 -1.71408,-3.48883 -0.27289,-1.7035 0.80003,-3.9221 1.89673,-3.9221 0.69208,0 4.07069,-1.86206 5.32008,-2.93207 0.72699,-0.62264 1.71073,-1.28243 2.18608,-1.46622 0.80165,-0.30996 0.92765,-0.30996 1.73898,-1.1e-4 0.4811,0.18373 1.41909,0.79981 2.08441,1.36905 1.66883,1.42785 2.51395,1.94148 4.34498,2.64068 2.06853,0.7899 2.69767,1.43941 2.81971,2.91095 0.17624,2.12532 -0.85366,4.6144 -2.19666,5.30889 -1.97918,1.02348 -5.99354,0.57318 -6.40344,-0.7183 -0.0757,-0.2386 0.069,-0.97602 0.33961,-1.73065 0.39153,-1.09173 0.42873,-1.38344 0.21922,-1.71894 -0.13878,-0.22223 -0.25233,-0.58291 -0.25233,-0.80152 0,-0.21861 -0.0915,-0.45404 -0.20336,-0.52316 -0.11185,-0.0692 -0.20336,-0.30008 -0.20336,-0.51324 0,-0.49862 -0.66291,-0.87775 -0.98012,-0.56054 -0.16974,0.16974 -0.36782,0.16572 -0.76565,-0.0156 -0.6575,-0.29957 -1.10122,-0.0145 -1.10122,0.70751 0,0.26593 -0.0915,0.4835 -0.20335,0.4835 -0.11185,0 -0.2066,0.16013 -0.21057,0.35587 -0.004,0.19573 -0.13212,0.58149 -0.28479,0.85723 -0.24165,0.43644 -0.22755,0.62835 0.10888,1.48188 0.54358,1.37908 0.51568,2.45913 -0.0711,2.75169 -1.35083,0.67351 -2.97112,0.78943 -4.80086,0.3435 z m 3.83492,-1.08946 c 0.62325,-0.32032 0.71966,-0.47392 0.77545,-1.23547 0.0481,-0.65692 -0.0384,-0.9783 -0.35339,-1.31366 l -0.4171,-0.44399 0.81799,-1.61638 c 0.91415,-1.80639 1.40822,-2.32814 2.20468,-2.32814 0.88893,0 1.45598,0.57805 2.27384,2.31792 l 0.77445,1.64753 -0.40798,0.43437 c -0.59041,0.62856 -0.45554,1.83426 0.26509,2.36998 0.76772,0.57074 2.39188,0.68882 3.52453,0.25625 1.70963,-0.65291 2.23545,-2.12014 1.20058,-3.35002 -0.68546,-0.81464 -1.72475,-0.85345 -2.82678,-0.1056 -0.42151,0.28604 -0.87169,0.47966 -1.0004,0.43027 -0.12872,-0.0495 -0.61371,-0.86647 -1.07774,-1.81575 -0.96773,-1.97963 -1.60602,-2.59166 -2.70287,-2.59166 -1.09272,0 -1.67869,0.56921 -2.62377,2.54876 -0.45482,0.95263 -0.97224,1.78781 -1.14983,1.85596 -0.18009,0.0691 -0.58539,-0.0701 -0.91642,-0.3149 -1.27227,-0.94063 -2.75445,-0.72493 -3.3283,0.48436 -0.39525,0.83292 -0.39624,0.99124 -0.0109,1.73654 0.74598,1.44258 3.19411,1.95083 4.97878,1.03363 z m -8.19459,-5.65916 c -1.22915,-1.96529 -1.56629,-2.68337 -1.56339,-3.32991 0.002,-0.38163 0.0785,-0.8126 0.17047,-0.9577 0.21706,-0.34218 0.32004,-0.21145 1.54169,1.95696 0.7598,1.34863 0.92743,1.81365 0.8238,2.28543 -0.19479,0.88687 -0.43908,0.89823 -0.97257,0.0451 z m 21.54098,0.29754 c -0.23253,-0.86767 -0.12463,-1.22473 0.91388,-3.02415 0.57313,-0.99306 1.07433,-1.80557 1.11377,-1.80557 0.0395,0 0.21214,0.21431 0.38377,0.47624 0.28069,0.42839 0.28029,0.56621 -0.004,1.37158 -0.33981,0.96313 -1.87278,3.43945 -2.1292,3.43945 -0.0857,0 -0.21093,-0.2059 -0.27837,-0.45755 z m -0.79133,-1.87066 c -0.37417,-0.2736 -0.46357,-0.51877 -0.18914,-0.51877 0.31125,0 0.91368,0.54811 0.72834,0.66266 -0.10206,0.0631 -0.3447,-0.002 -0.5392,-0.14389 z m -19.46916,-0.21374 c 0.27627,-0.33289 0.81343,-0.41441 0.81343,-0.12344 0,0.18721 -0.48139,0.42847 -0.85496,0.42847 -0.12813,0 -0.11175,-0.12034 0.0415,-0.30503 z m -0.61007,-0.39956 c 0,-0.16384 0.17747,-0.39286 0.39437,-0.50895 0.54348,-0.29086 0.8096,0.16702 0.30958,0.53264 -0.48493,0.35458 -0.70395,0.34721 -0.70395,-0.0237 z m 0.83801,-1.54688 c -0.80297,-1.35397 -1.03372,-1.90466 -0.86766,-2.07071 0.12443,-0.12443 0.25599,-0.18658 0.29236,-0.13812 1.35009,1.79893 2.44397,3.7194 2.23664,3.92673 -0.32568,0.32568 -0.64555,-0.005 -1.66134,-1.7179 z m 17.90344,1.66587 c -0.33151,-0.21011 0.21132,-1.37484 1.35414,-2.90563 0.7673,-1.02775 1.0535,-1.20544 1.0535,-0.65408 0,0.33783 -1.85131,3.73731 -2.03356,3.73414 -0.0559,-7.7e-4 -0.22426,-0.0794 -0.37408,-0.17443 z m 1.68496,-0.1117 c -0.27838,-0.20546 -0.33222,-0.3567 -0.18148,-0.50991 0.15209,-0.1546 0.32913,-0.13304 0.61006,0.0743 0.27838,0.20547 0.33222,0.35672 0.18149,0.50993 -0.1521,0.1546 -0.32913,0.13303 -0.61007,-0.0743 z m -18.05373,-1.14207 c -1.207,-2.14899 -1.07155,-2.77229 0.72862,-3.35285 1.34778,-0.43466 2.46354,-1.06577 4.55605,-2.57705 1.76759,-1.27662 2.68199,-1.57445 3.72143,-1.2121 0.34494,0.12025 1.65488,0.90837 2.91097,1.75139 1.2561,0.84302 2.83288,1.72493 3.50395,1.9598 1.49773,0.5242 1.72854,0.70591 1.72854,1.36092 0,0.6262 -1.34671,3.09609 -1.68764,3.09518 -0.52982,-0.002 -2.6859,-1.65451 -4.32568,-3.31658 -1.79776,-1.82219 -2.48825,-2.17714 -3.66216,-1.88251 -0.28991,0.0728 -1.46377,1.07924 -2.6086,2.23661 -1.88725,1.90795 -3.32192,2.96348 -4.02719,2.96292 -0.14427,-1.2e-4 -0.52149,-0.4617 -0.83829,-1.02573 z m -2.88054,0.41674 c -0.15156,-0.24524 0.8533,-0.74 1.06764,-0.52567 0.0833,0.0833 -0.0262,0.28112 -0.24309,0.43975 -0.46611,0.34082 -0.65485,0.36049 -0.82455,0.0859 z m 21.24616,-0.10746 c -0.14148,-0.17048 -0.19883,-0.36836 -0.12744,-0.43974 0.19966,-0.19966 1.18812,0.31739 1.04609,0.5472 -0.18421,0.29805 -0.62489,0.24651 -0.91865,-0.10746 z m 2.98573,-0.0426 c 0.21947,-0.8713 -0.11379,-1.43699 -1.36265,-2.31301 -0.86197,-0.60465 -1.14884,-0.90962 -0.96519,-1.02614 0.46031,-0.29207 0.92585,-0.18547 1.57481,0.3606 1.1444,0.96294 1.53477,2.23335 0.93352,3.0381 -0.28515,0.38167 -0.29113,0.37969 -0.18049,-0.0596 z m -26.64891,-0.39995 c -0.22407,-0.95089 0.4209,-2.29329 1.33955,-2.78801 0.66629,-0.35883 1.3852,-0.34512 1.37956,0.0263 -0.002,0.0874 -0.50418,0.50723 -1.11747,0.93299 -0.62044,0.43073 -1.15709,0.97195 -1.20982,1.22014 -0.0521,0.24533 -0.12707,0.62907 -0.16659,0.85276 -0.0539,0.30515 -0.11015,0.24418 -0.22523,-0.24416 z m 2.11146,-0.24247 c 0,-0.1956 0.49456,-0.43252 0.88089,-0.422 0.13066,0.004 0.0599,0.14082 -0.15718,0.30503 -0.44811,0.33893 -0.72371,0.38348 -0.72371,0.11697 z M 266.563,-248.69 c -0.15329,-0.1847 -0.16966,-0.30504 -0.0415,-0.30504 0.37356,0 0.85496,0.24126 0.85496,0.42847 0,0.29097 -0.53716,0.20945 -0.81343,-0.12343 z m -22.16586,-0.61008 c 0.13922,-0.16776 0.40208,-0.30212 0.58412,-0.29856 0.27805,0.005 0.26786,0.0542 -0.0638,0.30503 -0.51378,0.38861 -0.84483,0.38449 -0.52035,-0.006 z m 22.50479,0.16946 c -0.22711,-0.22711 -0.15174,-0.4745 0.14456,-0.4745 0.15407,0 0.39406,0.13728 0.5333,0.30504 0.21034,0.25346 0.1859,0.30504 -0.14456,0.30504 -0.21876,0 -0.45874,-0.061 -0.5333,-0.13558 z m -20.66744,-1.4779 c -0.11975,-0.22377 -0.21051,-1.78524 -0.21051,-3.6218 v -3.22846 l 2.28776,-0.3945 c 2.86608,-0.49421 11.95108,-0.56684 14.84917,-0.1187 2.57134,0.39761 2.53161,0.33863 2.6909,3.9947 0.11571,2.65542 0.0897,3.103 -0.20061,3.45707 -0.31794,0.38767 -0.32673,0.36864 -0.18774,-0.40672 0.17516,-0.97713 0.1125,-3.33836 -0.0986,-3.71558 -0.0938,-0.16756 -0.24431,0.13482 -0.3975,0.79844 -0.28126,1.21856 -0.71417,1.79868 -1.34225,1.79868 -0.47513,0 -3.65242,-1.75226 -4.78968,-2.64147 -1.14874,-0.8982 -1.94829,-1.22231 -3.01534,-1.22231 -0.88361,0 -1.19108,0.13159 -2.6029,1.11394 -2.74873,1.91261 -3.93186,2.58416 -4.74487,2.69321 -0.71474,0.0959 -0.81452,0.0499 -1.10289,-0.50771 -0.17437,-0.3372 -0.37743,-0.99079 -0.45125,-1.45239 -0.0738,-0.46161 -0.20203,-0.88119 -0.28493,-0.93244 -0.24443,-0.15106 -0.43629,3.39562 -0.2228,4.11847 0.21894,0.74129 0.141,0.85981 -0.17597,0.26757 z m 3.51085,-2.98874 c 1.19363,-0.6084 4.71254,-2.77856 5.11675,-3.15556 0.30717,-0.28649 0.34349,-0.42729 0.15805,-0.61272 -0.30264,-0.30264 -7.27948,0.0651 -7.61581,0.40138 -0.31457,0.31458 0.58629,3.01862 1.13331,3.40176 0.51735,0.36237 0.42303,0.36509 1.2077,-0.0349 z m 13.75611,-0.0638 c 0.41144,-0.41143 1.02799,-2.19496 1.02799,-2.97369 0,-0.53387 -0.40064,-0.60975 -4.29265,-0.81299 -2.93136,-0.15309 -3.54004,-0.0547 -3.23109,0.52264 0.23563,0.44029 5.42032,3.62325 5.94773,3.65141 0.0838,0.005 0.33049,-0.16984 0.54802,-0.38737 z m -18.41799,2.01205 c -0.56174,-0.20946 -0.77807,-1.78671 -0.50663,-3.69394 0.22677,-1.59346 0.31847,-1.78638 0.84908,-1.78638 0.35674,0 0.39228,0.14184 0.36945,1.47435 -0.0139,0.81088 -0.0825,2.0802 -0.15251,2.82072 -0.11971,1.26646 -0.15291,1.33682 -0.55939,1.18525 z m 21.20435,-1.54554 c -0.17624,-2.08492 -0.16637,-3.93549 0.021,-3.93166 0.71201,0.0145 1.06797,0.97773 1.06485,2.88135 -0.003,2.03763 -0.13449,2.60617 -0.60118,2.60617 -0.29307,0 -0.37553,-0.26472 -0.48467,-1.55586 z m -19.85712,-6.06245 c 0,-0.6452 0.64892,-3.45827 0.91761,-3.97787 0.51095,-0.98807 1.52481,-1.76887 2.8705,-2.21061 4.58411,-1.50486 11.68507,-0.86335 13.63979,1.23224 0.71703,0.76871 1.23917,2.191 1.39579,3.80211 0.13685,1.40791 0.12262,1.49006 -0.23888,1.37921 -2.76207,-0.8471 -13.84996,-0.85222 -18.02558,-0.009 -0.42662,0.0862 -0.55923,0.0349 -0.55923,-0.21674 z"
         id="path6583-26-0"
         sodipodi:nodetypes="ssssssssssssssssssssscsssssssscssscsssssssssssssssscsssssssssssscsscsssssssssscscscssscsssssssssssssscsssssssssssssssssssssscssssscssssssscssccssssssscsssssssssssssssssssssssssssscssssssssscssssssssssss" />
    </g>
  </g>
</svg>
