<?xml version="1.0" encoding="UTF-8" standalone="no"?>
<!-- Created with Inkscape (http://www.inkscape.org/) -->

<svg
   width="41.008999mm"
   height="41.008999mm"
   viewBox="0 0 41.008999 41.009"
   version="1.1"
   id="svg1"
   inkscape:version="1.4.2 (f4327f4, 2025-05-13)"
   sodipodi:docname="199.svg"
   xmlns:inkscape="http://www.inkscape.org/namespaces/inkscape"
   xmlns:sodipodi="http://sodipodi.sourceforge.net/DTD/sodipodi-0.dtd"
   xmlns="http://www.w3.org/2000/svg"
   xmlns:svg="http://www.w3.org/2000/svg">
  <sodipodi:namedview
     id="namedview1"
     pagecolor="#ffffff"
     bordercolor="#000000"
     borderopacity="0.25"
     inkscape:showpageshadow="2"
     inkscape:pageopacity="0.0"
     inkscape:pagecheckerboard="0"
     inkscape:deskcolor="#d1d1d1"
     inkscape:document-units="mm"
     inkscape:zoom="2.0485264"
     inkscape:cx="83.962792"
     inkscape:cy="129.84943"
     inkscape:window-width="1050"
     inkscape:window-height="1081"
     inkscape:window-x="3737"
     inkscape:window-y="0"
     inkscape:window-maximized="0"
     inkscape:current-layer="layer1" />
  <defs
     id="defs1" />
  <g
     inkscape:label="Layer 1"
     inkscape:groupmode="layer"
     id="layer1"
     transform="translate(-114.0891,-77.774176)">
    <g
       id="g45"
       transform="translate(-163.62799,352.19222)">
      <ellipse
         style="fill:none;stroke:#ff00ff;stroke-width:0.1;stroke-dasharray:none;stroke-opacity:1"
         id="path1138-9-4-0-0-1-2-6-7-2-6-6-394-3-6"
         cx="298.22159"
         cy="-253.91354"
         rx="18.492125"
         ry="18.492126" />
      <circle
         style="fill:none;stroke:#ff0000;stroke-width:0.1;stroke-dasharray:none"
         id="path788-8-1-8-1-9-2-56-8-1-7-71-3-2-0"
         cx="298.22159"
         cy="-253.91354"
         r="19.954653" />
      <circle
         style="fill:none;stroke:#0000ff;stroke-width:0.1;stroke-linecap:round;stroke-dasharray:none;stroke-opacity:1;paint-order:markers stroke fill"
         id="path13019-1-33-6-2-4-0-0-76-9-5"
         cx="298.22159"
         cy="-268.9245"
         r="2" />
      <path
         style="fill:#000000;stroke-width:0.1;stroke-dasharray:none"
         d="m 290.33955,-241.33474 c -0.39029,-0.102 -0.45103,-0.65133 -0.10974,-0.99261 0.12707,-0.12708 0.26082,-0.42621 0.29723,-0.66476 0.0365,-0.23854 0.25443,-0.63408 0.48449,-0.87897 l 0.4183,-0.44525 -0.46064,-0.49034 c -0.45968,-0.48931 -0.45994,-0.49231 -0.12046,-1.43634 0.18709,-0.5203 0.46525,-1.72368 0.61815,-2.67418 0.23011,-1.43063 0.50997,-2.20062 1.62545,-4.47203 1.18347,-2.40987 1.43188,-2.78389 2.04074,-3.07282 0.61874,-0.29361 0.76563,-0.29873 1.36648,-0.0477 1.4422,0.60258 1.42603,1.41065 -0.0886,4.43221 -1.41851,2.82977 -1.92839,4.88152 -1.44525,5.81579 0.38676,0.74791 0.36725,1.03711 -0.0984,1.45853 -0.21422,0.19386 -0.38948,0.43018 -0.38948,0.52518 0,0.095 0.17526,0.36081 0.38948,0.59075 0.21421,0.22993 0.38949,0.61123 0.38949,0.84734 0,0.23612 0.13144,0.47974 0.29209,0.54139 0.41055,0.15755 0.36345,0.65666 -0.0845,0.89643 -0.36408,0.19485 -4.43223,0.24831 -5.12471,0.0674 z m 3.25079,-3.94303 c 0.46859,-0.51779 0.2308,-0.79122 -0.68809,-0.79122 -0.84574,0 -1.17366,0.37952 -0.7593,0.8788 0.33524,0.40394 1.04123,0.36122 1.44739,-0.0875 z m 0.40058,-4.88075 c 0,-0.35691 -0.11718,-0.5035 -0.43903,-0.54921 -0.26334,-0.0374 -0.486,0.06 -0.55637,0.24343 -0.1939,0.50529 0.0779,0.92291 0.55637,0.85497 0.32185,-0.0457 0.43903,-0.19229 0.43903,-0.54919 z m 2.31167,-4.52297 c 0.29641,-0.4699 -0.18647,-0.98649 -0.67683,-0.72406 -0.42321,0.22649 -0.4746,0.58455 -0.13291,0.92624 0.28405,0.28405 0.54398,0.21915 0.80974,-0.20218 z m 0.7068,12.88991 c 0,-0.21798 -0.1441,-0.61624 -0.32022,-0.88503 -0.30706,-0.46865 -0.2992,-0.51062 0.1917,-1.02301 l 0.5119,-0.5343 -0.50769,-0.50768 c -0.50724,-0.50725 -0.5074,-0.50845 -0.18127,-1.3624 0.26293,-0.68848 0.28744,-1.02381 0.12601,-1.72434 -0.11021,-0.4783 -0.20007,-1.17636 -0.19967,-1.55123 7.3e-4,-0.87695 1.10162,-2.93433 1.74241,-3.25687 0.47207,-0.2376 0.50283,-0.2111 1.01315,0.87301 0.29679,0.63051 0.66822,1.96724 0.85177,3.06545 0.17902,1.07107 0.45724,2.20562 0.61827,2.52123 l 0.29278,0.57383 0.34048,-0.6712 c 0.18725,-0.36917 0.48355,-1.5189 0.65842,-2.55498 0.17487,-1.03607 0.47056,-2.24279 0.6571,-2.68159 0.32914,-0.77427 0.35208,-0.78875 0.77731,-0.49075 0.44879,0.31452 0.59657,1.13781 0.24343,1.35607 -0.30043,0.18568 -0.2304,0.83701 0.1105,1.02778 0.19402,0.10859 0.38339,0.67581 0.51975,1.55669 0.2586,1.67072 0.0903,1.99191 -1.04357,1.99191 -0.59732,0 -0.75512,0.0732 -0.75512,0.35053 0,0.46283 0.37182,0.81642 0.8666,0.82409 0.64747,0.01 1.13571,0.48212 0.93181,0.90097 -0.096,0.19725 -0.32086,0.65056 -0.49965,1.00733 -0.17878,0.35678 -0.32506,0.86067 -0.32506,1.11976 v 0.47107 h -3.31057 c -3.19982,0 -3.31057,-0.0132 -3.31057,-0.39634 z m 5.06322,-2.5363 c 0,-0.0761 -0.21123,-0.27681 -0.4694,-0.44598 -0.43759,-0.28671 -0.50544,-0.27922 -1.00094,0.11054 l -0.53152,0.4181 0.55745,0.4445 0.55745,0.44449 0.44348,-0.41663 c 0.24392,-0.22915 0.44348,-0.47891 0.44348,-0.55502 z m -2.57056,-0.80636 c 0.12853,-0.12853 0.23369,-0.39144 0.23369,-0.58422 0,-0.27728 -0.15779,-0.35053 -0.75511,-0.35053 -0.96168,0 -1.42664,0.46274 -0.88039,0.87621 0.45465,0.34414 1.08969,0.37065 1.40181,0.0585 z m -0.83738,-5.02695 c 0,-0.34517 -0.11868,-0.50112 -0.41337,-0.54317 -0.49496,-0.0706 -0.76644,0.47227 -0.43554,0.87097 0.34916,0.42072 0.84891,0.22774 0.84891,-0.3278 z m 6.204,8.47195 c -0.0643,-0.1676 0.0252,-0.46173 0.19879,-0.6536 0.17365,-0.19188 0.31573,-0.5116 0.31573,-0.71047 0,-0.19888 0.19054,-0.56442 0.42343,-0.81231 l 0.42342,-0.45071 -0.45532,-0.48467 c -0.42809,-0.45568 -0.43976,-0.53178 -0.19531,-1.27247 0.22984,-0.69644 0.19637,-1.27341 -0.28856,-4.97446 -0.61289,-4.67763 -0.58776,-4.92237 0.56172,-5.47052 0.57402,-0.27373 0.75987,-0.28328 1.28439,-0.0661 0.8988,0.37228 1.10768,0.86356 1.24179,2.92063 0.0663,1.01751 0.24918,2.41963 0.4063,3.11583 0.15712,0.69619 0.40906,1.87924 0.55985,2.62898 0.1508,0.74975 0.39079,1.645 0.5333,1.98945 0.23897,0.57756 0.22306,0.66463 -0.2045,1.11974 l -0.46361,0.4935 0.42342,0.45071 c 0.23289,0.24789 0.42343,0.63789 0.42343,0.86665 0,0.22877 0.14046,0.49454 0.31212,0.59061 0.17166,0.0961 0.28011,0.34142 0.24099,0.54521 -0.0654,0.34048 -0.29642,0.37492 -2.84778,0.4246 -2.37259,0.0461 -2.79368,0.01 -2.8936,-0.25068 z m 3.5274,-3.47527 c 0.59464,-0.4348 0.2436,-0.90448 -0.67601,-0.90448 -0.86322,0 -1.19488,0.37516 -0.7769,0.8788 0.29984,0.36129 0.97757,0.37327 1.45291,0.0257 z m -0.89123,-4.67722 c 0.30115,-0.36287 0.0647,-0.90101 -0.39594,-0.90101 -0.41833,0 -0.65775,0.43096 -0.48685,0.87633 0.14012,0.36513 0.5898,0.37771 0.88279,0.0246 z m -0.46636,-5.08525 c 0,-0.42963 -0.60543,-0.64358 -0.92287,-0.32613 -0.32731,0.32731 -0.004,0.84462 0.48383,0.77529 0.28728,-0.0408 0.43904,-0.19606 0.43904,-0.44916 z m -3.88738,1.35298 c -1.04169,-0.6287 -2.40777,-0.89975 -3.50319,-0.6951 l -0.88586,0.16549 v -0.74113 c 0,-0.96856 -0.22405,-1.52335 -0.87951,-2.17787 -1.09227,-1.09071 -2.8854,-1.10649 -4.00357,-0.0351 -0.68421,0.65552 -0.95911,0.48076 -0.95911,-0.60969 0,-0.83109 -0.0228,-0.86483 -0.58422,-0.86483 h -0.58422 l -0.003,1.21713 c -0.002,0.66941 -0.086,1.34856 -0.18763,1.50923 -0.15322,0.24236 -0.87399,0.29827 -4.23262,0.32837 -4.62875,0.0414 -5.11903,-0.009 -5.11903,-0.53174 0,-0.49896 0.62029,-0.79372 1.45296,-0.69044 0.82731,0.10261 0.85788,-0.0795 0.16576,-0.98685 -0.38631,-0.50649 -0.47363,-0.76513 -0.33339,-0.98748 0.10452,-0.16569 1.36975,-0.8318 2.81161,-1.48024 1.94976,-0.87686 2.90868,-1.2004 3.74183,-1.26248 1.33263,-0.0993 1.70349,0.1311 1.70349,1.05832 0,0.60101 0.0504,0.65774 0.58421,0.65774 h 0.58423 v -1.36073 -1.36073 l 1.31449,-0.66545 c 0.72297,-0.36599 1.57187,-0.9367 1.88646,-1.26825 l 0.57196,-0.60281 h 3.60567 3.60566 l 0.61531,0.59639 c 0.46165,0.44745 1.14487,0.75216 2.73563,1.22009 l 2.12031,0.62369 0.0974,1.39677 c 0.0827,1.18579 0.17826,1.48109 0.63291,1.95509 0.66895,0.69742 0.66768,0.97825 -0.0124,2.74903 l -0.54799,1.42673 -0.23337,-0.77894 c -0.13151,-0.43891 -0.52297,-1.03318 -0.89681,-1.36142 -2.32412,-2.04061 -5.69945,0.45129 -4.58427,3.38443 0.1101,0.28959 0.1753,0.55142 0.14489,0.58183 -0.0304,0.0304 -0.40144,-0.15362 -0.82452,-0.40895 z m -15.13476,-4.91051 c 0.0774,-0.54513 -0.46679,-0.79791 -0.86357,-0.40114 -0.38966,0.38967 -0.13756,0.97412 0.38784,0.89915 0.25728,-0.0367 0.43693,-0.22477 0.47573,-0.49801 z m 15.61419,-0.63204 v -1.16844 h -3.01846 -3.01846 v 1.16844 1.16844 h 3.01846 3.01846 z m -4.86848,-3.50532 v -1.16843 h -0.58422 -0.58422 v 1.16843 1.16845 h 0.58422 0.58422 z m 2.33687,0 v -1.16843 h -0.58422 -0.58422 v 1.16843 1.16845 h 0.58422 0.58422 z m 2.49728,0.41122 c 0.10331,-1.08152 -0.10196,-1.57965 -0.65096,-1.57965 -0.46127,0 -0.48314,0.0535 -0.48314,1.18138 0,1.17388 0.004,1.18098 0.53553,1.11974 0.45144,-0.0519 0.54543,-0.16524 0.59857,-0.72147 z"
         id="path6583-26-1"
         sodipodi:nodetypes="ssssscsssssssssssssssssssssssssssssssscssscsssscssssssssssssscssssscccsssssssssssssssscsssssssssscssssssssssssssssssssssscsssssccsssssssssscccsscccsscssscssssssssscccccccccccccccccccccccccccsssss" />
    </g>
  </g>
</svg>
