<?xml version="1.0" encoding="UTF-8" standalone="no"?>
<!-- Created with Inkscape (http://www.inkscape.org/) -->

<svg
   width="41.008999mm"
   height="41.008999mm"
   viewBox="0 0 41.008999 41.009"
   version="1.1"
   id="svg1"
   inkscape:version="1.4.2 (f4327f4, 2025-05-13)"
   sodipodi:docname="200.svg"
   xmlns:inkscape="http://www.inkscape.org/namespaces/inkscape"
   xmlns:sodipodi="http://sodipodi.sourceforge.net/DTD/sodipodi-0.dtd"
   xmlns="http://www.w3.org/2000/svg"
   xmlns:svg="http://www.w3.org/2000/svg">
  <sodipodi:namedview
     id="namedview1"
     pagecolor="#ffffff"
     bordercolor="#000000"
     borderopacity="0.25"
     inkscape:showpageshadow="2"
     inkscape:pageopacity="0.0"
     inkscape:pagecheckerboard="0"
     inkscape:deskcolor="#d1d1d1"
     inkscape:document-units="mm"
     inkscape:zoom="2.0485264"
     inkscape:cx="83.962792"
     inkscape:cy="129.84943"
     inkscape:window-width="1050"
     inkscape:window-height="1081"
     inkscape:window-x="3737"
     inkscape:window-y="0"
     inkscape:window-maximized="0"
     inkscape:current-layer="layer1" />
  <defs
     id="defs1" />
  <g
     inkscape:label="Layer 1"
     inkscape:groupmode="layer"
     id="layer1"
     transform="translate(-114.0891,-77.774176)">
    <g
       id="g54"
       transform="translate(5.1716176,302.76824)">
      <circle
         style="fill:none;stroke:#ff0000;stroke-width:0.1;stroke-dasharray:none"
         id="path788-8-1-8-1-9-2-1-4-2-2-4-5-1-2"
         cx="129.42198"
         cy="-204.48956"
         r="19.954653" />
      <ellipse
         style="fill:none;stroke:#ff00ff;stroke-width:0.1;stroke-dasharray:none;stroke-opacity:1"
         id="path1138-9-4-0-0-1-2-6-7-2-6-6-394-3-67"
         cx="129.42198"
         cy="-204.48956"
         rx="18.492125"
         ry="18.492126" />
      <circle
         style="fill:none;stroke:#0000ff;stroke-width:0.1;stroke-linecap:round;stroke-dasharray:none;stroke-opacity:1;paint-order:markers stroke fill"
         id="path13019-1-33-7-4-6-7-2-0-9-7"
         cx="129.42198"
         cy="-219.50055"
         r="2" />
      <path
         style="fill:#000000;stroke-width:0.1;stroke-dasharray:none"
         d="m 124.96489,-188.22559 c -1.46813,-0.26583 -3.38695,-1.07427 -3.63068,-1.5297 -0.11116,-0.20772 -0.67311,-0.50534 -1.24876,-0.66137 -0.57564,-0.15603 -1.39074,-0.4578 -1.81133,-0.6706 -0.71802,-0.3633 -0.9802,-0.64195 -2.46923,-2.62426 l -0.59023,-0.78576 0.78424,-1.47781 c 0.43133,-0.8128 1.45372,-3.22203 2.27196,-5.35384 2.10607,-5.48704 2.62347,-6.37802 4.26097,-7.33767 1.61477,-0.94631 3.84627,-0.91314 4.97609,0.074 0.65661,0.57368 2.70695,0.43986 4.16109,-0.27158 1.06419,-0.52066 1.44533,-0.59521 2.65068,-0.51846 1.18605,0.0755 1.59253,0.21689 2.58091,0.89762 1.43126,0.98573 1.74546,1.53715 3.32592,5.83671 1.15947,3.15433 2.26188,5.64152 2.78306,6.27903 0.12172,0.14889 0.32368,0.20744 0.4488,0.13011 0.1321,-0.0817 0.16212,-0.0349 0.0716,0.11165 -0.0857,0.13873 -0.0518,0.25224 0.0755,0.25224 0.39616,0 0.24716,1.1611 -0.26507,2.06544 -0.61836,1.09173 -2.10993,2.23906 -3.30065,2.53889 -0.59432,0.14965 -0.99231,0.39962 -1.12785,0.70838 -0.26314,0.59945 -1.83287,1.38672 -3.87726,1.94457 -1.7839,0.48677 -8.17349,0.73578 -10.06974,0.39243 z m 4.12422,-1.09516 c 0,-0.25234 -0.46954,-0.378 -2.04104,-0.54622 -1.60755,-0.17208 -2.10639,-0.30856 -2.34871,-0.64259 -0.39259,-0.54116 -0.38677,-1.84185 0.0157,-3.50862 0.38639,-1.60023 0.38877,-1.63863 0.10152,-1.63863 -0.50337,0 -2.29372,4.89268 -2.03605,5.56414 0.25178,0.65612 2.37954,1.18735 4.56071,1.13866 1.39067,-0.0311 1.74788,-0.106 1.74788,-0.36674 z m 5.956,-0.59562 c 0.63214,-0.19777 1.45723,-0.61661 1.83354,-0.93077 0.62446,-0.52131 0.66005,-0.61794 0.40755,-1.10642 -0.15216,-0.29437 -0.55531,-0.76038 -0.89591,-1.03556 -0.34059,-0.27518 -0.83808,-0.88966 -1.10552,-1.36552 -0.47256,-0.84079 -0.84278,-1.11475 -0.84278,-0.62364 0,0.13287 0.15193,0.82792 0.33764,1.54456 0.1857,0.71664 0.27618,1.49663 0.20106,1.7333 -0.08,0.25219 -0.71722,0.70466 -1.5393,1.09307 -1.69209,0.79948 -1.94078,1.42701 -0.47418,1.1965 0.51072,-0.0803 1.44577,-0.30775 2.0779,-0.50552 z m -4.52984,-3.04289 c 0.82628,-0.55253 1.71191,-1.40513 2.46161,-2.36983 0.56879,-0.73189 0.46784,-0.67168 -0.62111,0.3704 -1.63493,1.56458 -2.37979,2.14218 -2.76248,2.14218 -0.16546,0 -1.23145,-0.70064 -2.36887,-1.55697 -1.75706,-1.32285 -1.93662,-1.41802 -1.19409,-0.63297 1.09574,1.15853 2.91154,2.40843 3.49884,2.40843 0.24524,0 0.68899,-0.16256 0.9861,-0.36124 z m -5.91959,-3.34524 c 0.21655,-0.11591 0.44988,-0.49145 0.5185,-0.83456 0.0686,-0.34311 0.67667,-1.32917 1.35121,-2.19127 0.67454,-0.86208 1.46223,-2.10062 1.75043,-2.75229 0.30859,-0.69779 0.70468,-1.24222 0.9635,-1.32436 0.87923,-0.27906 1.69805,0.6013 1.86573,2.00593 0.058,0.48628 0.68491,1.59303 0.9023,1.59303 0.0644,0 0.0453,-0.1229 -0.0426,-0.27311 -0.0878,-0.1502 0.057,-0.0829 0.32188,0.14949 0.74598,0.65461 1.34357,1.7502 1.51946,2.78569 0.12715,0.74857 0.2606,0.95734 0.64748,1.01287 0.68312,0.0981 0.85329,-0.51997 0.37187,-1.35059 -0.21859,-0.37714 -1.0936,-1.60185 -1.94446,-2.72156 -0.85086,-1.11972 -1.76967,-2.37328 -2.0418,-2.78568 -0.56771,-0.86038 -1.45798,-1.01041 -2.18073,-0.36749 -0.70821,0.62998 -1.92454,2.26903 -2.66094,3.58572 -0.38051,0.68035 -1.03146,1.5271 -1.44656,1.88167 -0.6983,0.59647 -0.95852,1.30211 -0.60906,1.65157 0.19017,0.19017 0.24645,0.18504 0.71378,-0.0651 z m 6.78752,-0.21537 2.07561,-0.15868 -2.84031,-0.0117 c -1.56216,-0.007 -3.43021,0.0616 -4.1512,0.15103 -1.23433,0.15315 -1.18966,0.1631 0.76469,0.17031 1.14159,0.004 3.00963,-0.0638 4.15121,-0.15101 z m 1.49789,-1.00127 c 0.0428,-0.0415 -0.24885,-0.53023 -0.64803,-1.08608 -0.62054,-0.86409 -0.76202,-0.96105 -0.97577,-0.66875 -0.37307,0.5102 -1.16556,0.42526 -1.39667,-0.1497 -0.19165,-0.47679 -0.19802,-0.47395 -0.21144,0.0945 -0.0173,0.72931 -0.82273,1.08043 -1.22296,0.53309 -0.37895,-0.51824 -0.56684,-0.43318 -0.41138,0.18622 0.11126,0.44333 0.0266,0.59045 -0.47008,0.81675 -0.48192,0.21958 -0.62433,0.22042 -0.69643,0.004 -0.10747,-0.32242 -0.49021,-0.13879 -0.49044,0.23531 -1.2e-4,0.19293 0.83312,0.24078 3.22265,0.18509 1.77254,-0.0413 3.2578,-0.10908 3.30055,-0.15057 z m 0.3363,-0.81211 c -0.44492,-0.76924 -1.0203,-1.48755 -1.11539,-1.39246 -0.0591,0.0591 0.15992,0.45804 0.48674,0.88652 0.57885,0.75891 0.94576,1.0542 0.62865,0.50594 z m 3.04966,-1.47215 c 0.55839,-0.83973 1.01524,-1.5562 1.01524,-1.59217 0,-0.036 -0.31878,-0.0897 -0.70839,-0.11936 -1.00593,-0.0766 -3.29922,-0.62856 -4.23306,-1.01874 -1.27506,-0.53276 -1.30269,-0.39924 -0.17001,0.82158 0.58822,0.63399 1.39474,1.62815 1.79226,2.20924 0.67683,0.98938 0.7421,1.03068 1.02694,0.64978 0.28707,-0.38388 0.2972,-0.37911 0.1803,0.0848 -0.0681,0.27038 -0.0776,0.49159 -0.0212,0.49159 0.0565,0 0.55952,-0.68705 1.1179,-1.52677 z m -11.65687,1.16162 c 0,-0.0807 -0.17206,-0.35103 -0.38235,-0.60083 -0.37665,-0.4474 -0.37558,-0.44847 0.0718,-0.0718 0.51777,0.43589 0.74749,0.48338 0.74749,0.15454 0,-0.21185 0.98222,-1.57403 2.30009,-3.18982 l 0.55997,-0.68658 -1.5939,0.30553 c -0.87663,0.16804 -2.23295,0.41522 -3.01404,0.54927 -2.24591,0.38548 -2.2449,0.38156 -0.55247,2.13461 1.37503,1.42429 1.86338,1.79253 1.86338,1.40511 z m 5.72429,-2.95582 c -0.14419,-0.1442 -0.26218,-0.4825 -0.26218,-0.7518 0,-0.26929 -0.0983,-0.55039 -0.21848,-0.62465 -0.12747,-0.0788 -0.21848,0.14339 -0.21848,0.53332 0,0.43626 -0.10933,0.66835 -0.31484,0.66835 -0.17315,0 -0.3756,0.0983 -0.44986,0.21848 -0.0819,0.13259 0.23078,0.21848 0.7955,0.21848 0.72374,0 0.87227,-0.0583 0.66834,-0.26218 z m 4.87221,-1.48569 c 0.0763,-0.24034 0.27407,-0.43697 0.43951,-0.43697 0.16545,0 0.57668,-0.23729 0.91385,-0.5273 0.53746,-0.4623 0.61301,-0.67979 0.61301,-1.76467 0,-1.14483 -0.0597,-1.29205 -0.79802,-1.96869 -1.19167,-1.09208 -3.55029,-1.31013 -4.68076,-0.43271 -0.39011,0.30278 -0.37611,0.31043 0.19475,0.10646 0.92536,-0.33063 2.50174,-0.26457 3.35563,0.14063 0.98489,0.46736 1.44177,1.18904 1.44177,2.27738 0,2.00018 -2.43964,2.97348 -4.852,1.93571 -1.08579,-0.4671 -1.54364,-1.08301 -1.54364,-2.07659 0,-0.38309 -0.16744,-0.605 -0.57279,-0.75911 -0.68827,-0.26169 -1.17509,0.0502 -1.17509,0.75294 0,1.21837 -1.44094,2.16745 -3.29333,2.16916 -1.50643,0.002 -2.85114,-0.60389 -3.12814,-1.40807 -0.24667,-0.71613 0.36079,-2.04255 1.22439,-2.67351 0.63206,-0.46179 2.33258,-0.60571 3.55845,-0.30115 0.54402,0.13516 0.50688,0.0893 -0.21849,-0.2699 -2.41905,-1.19785 -5.13439,0.44327 -5.13439,3.10318 0,0.76268 0.53206,1.47776 1.09953,1.47776 0.207,0 0.49875,0.14747 0.64835,0.32772 0.39562,0.4767 2.15918,0.41294 3.61188,-0.13058 0.67371,-0.25207 1.28533,-0.39791 1.35916,-0.32409 0.0738,0.0738 0.26174,-0.16909 0.41761,-0.5398 0.23307,-0.55429 0.39,-0.66166 0.88345,-0.60447 0.36414,0.0422 0.69854,0.26822 0.8506,0.5749 0.13781,0.27795 0.33672,0.50997 0.44203,0.51561 0.10532,0.006 0.44087,0.18783 0.74567,0.40487 0.66045,0.47028 1.80362,0.82137 2.76297,0.84855 0.51376,0.0145 0.73157,-0.0944 0.83404,-0.41726 z m -6.11757,-2.40333 c 0.0742,-0.12017 0.22755,-0.21849 0.34063,-0.21849 0.11307,0 0.20559,0.0983 0.20559,0.21849 0,0.12016 -0.15328,0.21848 -0.34062,0.21848 -0.18735,0 -0.27987,-0.0983 -0.2056,-0.21848 z m -0.21848,-0.65546 c 0.0742,-0.12016 0.2709,-0.21848 0.43697,-0.21848 0.16607,0 0.3627,0.0983 0.43697,0.21848 0.0769,0.1244 -0.11127,0.21848 -0.43697,0.21848 -0.3257,0 -0.51386,-0.0941 -0.43697,-0.21848 z m 6.39976,1.41215 c 0.0365,-0.25506 -0.17043,-0.66493 -0.48491,-0.96036 l -0.5486,-0.5154 -0.24039,0.63224 c -0.1322,0.34773 -0.40189,0.81071 -0.5993,1.02885 -0.34274,0.37872 -0.31002,0.39352 0.72528,0.32813 0.89682,-0.0566 1.09523,-0.1454 1.14792,-0.51346 z m -10.11949,0.12614 c 0.38242,-0.61879 -1.1632,-1.65866 -1.68692,-1.13495 -0.44438,0.4444 0.16493,1.34454 0.91013,1.34454 0.35599,0 0.70554,-0.0943 0.77679,-0.20959 z m 3.58163,-2.99321 c -0.16426,-0.19792 -0.33459,-0.23539 -0.46721,-0.10277 -0.29159,0.29159 0.004,0.6911 0.3994,0.53945 0.25614,-0.0983 0.27072,-0.19219 0.0678,-0.43668 z m 1.77673,0.25325 c 0,-0.18024 -0.14167,-0.32772 -0.31483,-0.32772 -0.36501,0 -0.61141,0.31184 -0.40751,0.51574 0.26113,0.26112 0.72234,0.14107 0.72234,-0.18802 z m -15.49513,12.21694 c 0.0105,-0.25452 0.0623,-0.30629 0.132,-0.132 0.0631,0.15772 0.0553,0.34617 -0.0173,0.41877 -0.0726,0.0726 -0.12425,-0.0565 -0.11476,-0.28677 z m 24.19008,-11.57883 c -0.0845,-0.1297 -0.25886,-0.89404 -0.38738,-1.69852 -0.25372,-1.58822 -0.90794,-3.52218 -1.41954,-4.19631 -0.28898,-0.38076 -0.30793,-0.25161 -0.18628,1.26936 0.14791,1.84929 0.0513,1.97855 -1.02111,1.36553 -0.80812,-0.46196 -3.06182,-0.4078 -4.41423,0.10606 -0.62791,0.23859 -1.21626,0.35918 -1.30745,0.26798 -0.0912,-0.0912 -0.193,-1.73659 -0.22623,-3.65644 l -0.0605,-3.49062 h -0.65545 c -0.6216,0 -0.66294,0.0564 -0.80018,1.09242 -0.0796,0.60083 -0.15334,2.24766 -0.16387,3.65961 -0.011,1.47293 -0.10813,2.5672 -0.22792,2.5672 -0.11483,0 -0.58184,-0.2543 -1.0378,-0.56512 -0.75106,-0.51198 -0.98313,-0.55648 -2.46766,-0.47316 -0.90125,0.0506 -1.81069,0.16792 -2.02098,0.26077 -0.29547,0.13045 -0.38235,0.0659 -0.38235,-0.28412 0,-0.60311 0.67585,-1.99685 0.96903,-1.99834 0.12795,-6.5e-4 0.69991,-0.48546 1.27103,-1.07737 0.6787,-0.70341 1.43551,-1.22413 2.18484,-1.50328 0.69737,-0.25979 1.1766,-0.57806 1.22341,-0.8125 0.0675,-0.3383 -0.0448,-0.36873 -0.91937,-0.24886 -3.14917,0.43165 -5.90038,3.42135 -6.47848,7.04009 -0.24483,1.5326 -0.65673,2.60261 -0.81691,2.12209 -0.19471,-0.58413 0.43093,-3.51517 1.02058,-4.78124 1.17277,-2.51815 2.917,-3.9911 5.50417,-4.64812 0.83446,-0.21191 1.63217,-0.50027 1.77269,-0.64079 0.3027,-0.3027 2.49,-0.34553 2.67122,-0.0523 0.069,0.11176 0.66344,0.27039 1.32082,0.35253 1.54742,0.19333 3.49131,1.1311 4.56301,2.20126 1.06781,1.06629 2.01167,3.04118 2.44365,5.113 0.32628,1.56482 0.35557,3.17927 0.0491,2.70919 z m -3.89694,-7.51039 c 0.27195,-0.17202 0.25582,-0.27273 -0.10924,-0.68227 -0.55865,-0.62672 -1.67862,-1.08973 -3.10472,-1.28354 -1.14667,-0.15584 -1.14704,-0.1557 -1.14704,0.45309 0,0.5332 0.10196,0.62638 0.81931,0.7488 1.24713,0.21282 2.31257,0.51159 2.67644,0.75051 0.40341,0.26489 0.46612,0.26587 0.86525,0.0134 z"
         id="path6583-26-5"
         sodipodi:nodetypes="ssssscssssssssssssssssssssssssssssssssssssssssssssssssssssscssssssssssscccscscssssssssssssssssssssssssssssssssscsssssssssssssssssssssssssscsssssssssssscssssssssssssssscsssssssssssssssssssssscssssssscssssssssssssssssssssssccssssssss" />
    </g>
  </g>
</svg>
