<?xml version="1.0" encoding="UTF-8" standalone="no"?>
<!-- Created with Inkscape (http://www.inkscape.org/) -->

<svg
   width="41.008999mm"
   height="41.008999mm"
   viewBox="0 0 41.008999 41.009"
   version="1.1"
   id="svg1"
   inkscape:version="1.4.2 (f4327f4, 2025-05-13)"
   sodipodi:docname="201.svg"
   xmlns:inkscape="http://www.inkscape.org/namespaces/inkscape"
   xmlns:sodipodi="http://sodipodi.sourceforge.net/DTD/sodipodi-0.dtd"
   xmlns="http://www.w3.org/2000/svg"
   xmlns:svg="http://www.w3.org/2000/svg">
  <sodipodi:namedview
     id="namedview1"
     pagecolor="#ffffff"
     bordercolor="#000000"
     borderopacity="0.25"
     inkscape:showpageshadow="2"
     inkscape:pageopacity="0.0"
     inkscape:pagecheckerboard="0"
     inkscape:deskcolor="#d1d1d1"
     inkscape:document-units="mm"
     inkscape:zoom="2.0485264"
     inkscape:cx="83.962792"
     inkscape:cy="129.84943"
     inkscape:window-width="1050"
     inkscape:window-height="1081"
     inkscape:window-x="3737"
     inkscape:window-y="0"
     inkscape:window-maximized="0"
     inkscape:current-layer="layer1" />
  <defs
     id="defs1" />
  <g
     inkscape:label="Layer 1"
     inkscape:groupmode="layer"
     id="layer1"
     transform="translate(-114.0891,-77.774176)">
    <g
       id="g55"
       transform="translate(-36.879133,302.71395)">
      <circle
         style="fill:none;stroke:#ff0000;stroke-width:0.1;stroke-dasharray:none"
         id="path788-8-1-8-1-9-2-6-3-4-7-1-6-19"
         cx="171.47273"
         cy="-204.43527"
         r="19.954653" />
      <ellipse
         style="fill:none;stroke:#ff00ff;stroke-width:0.1;stroke-dasharray:none;stroke-opacity:1"
         id="path1138-9-4-0-0-1-2-0-0-6-8-8-1-4"
         cx="171.47273"
         cy="-204.43527"
         rx="18.492125"
         ry="18.492126" />
      <circle
         style="fill:none;stroke:#0000ff;stroke-width:0.1;stroke-linecap:round;stroke-dasharray:none;stroke-opacity:1;paint-order:markers stroke fill"
         id="path13019-1-33-3-83-70-3-7-5-3"
         cx="171.47273"
         cy="-219.44624"
         r="2" />
      <path
         style="fill:#000000;stroke-width:0.1;stroke-dasharray:none"
         d="m 165.72004,-191.02655 c -0.17635,-0.19891 -1.05237,-1.50093 -1.94672,-2.89335 -0.89434,-1.39243 -1.66163,-2.53169 -1.7051,-2.53169 -0.0887,0 0.0959,0.48875 0.70798,1.87432 l 0.41715,0.94431 -2.01498,0.6521 c -1.10824,0.35866 -2.04598,0.62166 -2.08385,0.58444 -0.12846,-0.1262 1.83614,-4.76668 2.98548,-7.05185 1.37382,-2.73154 2.80201,-4.71743 3.73528,-5.19388 1.402,-0.71575 3.881,-0.33382 5.1348,0.7911 0.45121,0.40483 0.45366,0.40443 1.32534,-0.21596 1.43359,-1.0203 3.57876,-1.22816 4.98789,-0.48331 0.86996,0.45985 1.99057,2.00974 3.31243,4.5813 1.48416,2.88731 3.40337,7.39143 3.22443,7.56725 -0.16679,0.16386 -3.94149,-0.97821 -3.94149,-1.19254 0,-0.0983 0.23649,-0.75062 0.52553,-1.4495 0.28904,-0.69887 0.49739,-1.29833 0.463,-1.33212 -0.0344,-0.0338 -0.81149,1.11088 -1.72689,2.5437 -0.9154,1.43281 -1.79312,2.73163 -1.95049,2.88624 -0.22646,0.22249 -1.4166,0.28111 -5.70764,0.28111 -4.90097,0 -5.4523,-0.0348 -5.74215,-0.36167 z m 10.68375,-1.40016 c -0.1914,-0.28699 -1.1534,-1.60586 -2.13777,-2.93081 -1.03211,-1.38919 -1.77565,-2.58998 -1.75642,-2.83654 0.0602,-0.7718 -0.007,-0.93075 -0.53911,-1.27322 -0.48756,-0.31387 -0.56463,-0.31359 -1.05776,0.004 -0.41268,0.26567 -0.52145,0.49444 -0.48536,1.02087 0.0444,0.64847 -0.9751,2.23316 -3.77399,5.86599 l -0.51749,0.67167 h 5.30795 5.30795 l -0.348,-0.52182 z m -8.11445,-0.61664 c 0,-0.0578 0.28397,-0.49028 0.63105,-0.96102 l 0.63106,-0.85589 v 0.96102 c 0,0.93001 -0.0204,0.96101 -0.63106,0.96101 -0.34708,0 -0.63105,-0.0473 -0.63105,-0.10512 z m 2.10352,-1.40539 c 0,-1.0082 0.1027,-1.64392 0.30883,-1.91168 0.27885,-0.3622 0.30949,-0.21549 0.31553,1.51051 0.006,1.56441 -0.0506,1.91168 -0.30884,1.91168 -0.25168,0 -0.31552,-0.30561 -0.31552,-1.51051 z m 1.47246,-0.49234 c 0,-1.8054 0.0305,-1.9633 0.30883,-1.60168 0.44537,0.57852 0.45098,3.60453 0.006,3.60453 -0.25876,0 -0.31553,-0.36032 -0.31553,-2.00285 z m 1.47245,1.07285 c 0,-0.51151 0.0313,-0.93001 0.0695,-0.93001 0.0382,0 0.37542,0.4185 0.74931,0.93001 l 0.67978,0.93 h -0.7493 c -0.74783,0 -0.74931,-0.002 -0.74931,-0.93 z m -4.82541,-5.07582 c 0.64594,-0.63464 1.67014,-2.29077 1.67014,-2.70063 0,-0.19735 -0.30397,-0.57146 -0.6755,-0.83137 -1.22531,-0.85723 -4.17527,-0.5272 -4.44804,0.49762 -0.16878,0.63409 0.66343,2.36344 1.41896,2.94864 0.80085,0.6203 1.46199,0.64816 2.03444,0.0857 z m 7.97378,-0.11689 c 0.7089,-0.58606 1.47937,-1.89308 1.47937,-2.50962 0,-0.68684 -0.50581,-1.07909 -1.7103,-1.3263 -1.0143,-0.20818 -1.31927,-0.1925 -2.12314,0.10912 -0.52836,0.19826 -1.05687,0.56916 -1.20903,0.8485 -0.23589,0.43304 -0.20785,0.59561 0.22004,1.27583 0.82842,1.31694 1.67729,2.14514 2.19869,2.14514 0.26837,0 0.78334,-0.2442 1.14437,-0.54267 z m -18.38099,5.08937 c 0.27921,-3.04069 1.13612,-6.16476 2.61319,-9.52711 0.72573,-1.65204 0.77355,-1.88581 0.67966,-3.3231 -0.21174,-3.24162 1.40254,-6.17064 4.39844,-7.98074 0.70664,-0.42696 2.95295,-1.28254 3.36724,-1.28254 0.0976,0 0.17742,1.77417 0.17742,3.94258 v 3.9426 l 0.61487,0.60411 c 0.82972,0.81519 2.29765,0.8614 3.07584,0.0968 0.51297,-0.50398 0.51632,-0.53349 0.51632,-4.5467 0,-2.22168 0.0798,-4.03942 0.17742,-4.03942 0.42381,0 2.6153,0.84273 3.46751,1.33341 1.31396,0.75655 2.9014,2.48178 3.62221,3.93662 0.55119,1.11251 0.6185,1.47012 0.65458,3.47779 0.0381,2.11799 0.0854,2.33925 0.88461,4.13337 1.005,2.25611 1.82011,4.9387 2.25888,7.43409 0.55276,3.1438 0.31221,3.24495 -0.83331,0.35041 -1.3107,-3.31197 -3.25213,-7.02363 -4.47352,-8.55257 -1.27245,-1.59283 -2.31198,-2.05758 -4.36518,-1.95152 -1.00826,0.0521 -1.82401,0.2335 -2.4939,0.55464 l -0.99553,0.47725 -1.19987,-0.5577 c -1.065,-0.495 -1.38334,-0.54726 -2.83208,-0.46486 -1.30668,0.0743 -1.79753,0.20033 -2.4612,0.63184 -1.51772,0.98679 -3.89345,5.02413 -5.80438,9.86404 -1.15316,2.92067 -1.18913,2.97026 -1.04922,1.44668 z m 12.42794,-14.19123 c -0.0771,-0.0758 -0.14023,-1.91719 -0.14023,-4.09203 0,-4.22535 0.0533,-4.45292 1.04124,-4.44709 1.13373,0.007 1.16228,0.10188 1.23319,4.11174 0.0758,4.28465 0.002,4.56516 -1.19502,4.56516 -0.43942,0 -0.86205,-0.062 -0.93918,-0.13778 z"
         id="path6583-26-5-2"
         sodipodi:nodetypes="sssssscsssssssssssssscsssssssscccsssscscssscsscssscssscssssssssssssssssssssssscssssssssssssscssssssscs" />
    </g>
  </g>
</svg>
