<?xml version="1.0" encoding="UTF-8" standalone="no"?>
<!-- Created with Inkscape (http://www.inkscape.org/) -->

<svg
   width="41.008999mm"
   height="41.008999mm"
   viewBox="0 0 41.008999 41.009"
   version="1.1"
   id="svg1"
   inkscape:version="1.4.2 (f4327f4, 2025-05-13)"
   sodipodi:docname="203.svg"
   xmlns:inkscape="http://www.inkscape.org/namespaces/inkscape"
   xmlns:sodipodi="http://sodipodi.sourceforge.net/DTD/sodipodi-0.dtd"
   xmlns="http://www.w3.org/2000/svg"
   xmlns:svg="http://www.w3.org/2000/svg">
  <sodipodi:namedview
     id="namedview1"
     pagecolor="#ffffff"
     bordercolor="#000000"
     borderopacity="0.25"
     inkscape:showpageshadow="2"
     inkscape:pageopacity="0.0"
     inkscape:pagecheckerboard="0"
     inkscape:deskcolor="#d1d1d1"
     inkscape:document-units="mm"
     inkscape:zoom="2.0485264"
     inkscape:cx="83.962792"
     inkscape:cy="129.84943"
     inkscape:window-width="1050"
     inkscape:window-height="1081"
     inkscape:window-x="3737"
     inkscape:window-y="0"
     inkscape:window-maximized="0"
     inkscape:current-layer="layer1" />
  <defs
     id="defs1" />
  <g
     inkscape:label="Layer 1"
     inkscape:groupmode="layer"
     id="layer1"
     transform="translate(-114.0891,-77.774176)">
    <g
       id="g57"
       transform="translate(-121.42819,302.65784)">
      <circle
         style="fill:none;stroke:#ff0000;stroke-width:0.1;stroke-dasharray:none"
         id="path788-8-1-8-1-9-2-2-9-1-0-0-4-6-7"
         cx="256.02179"
         cy="-204.37917"
         r="19.954653" />
      <ellipse
         style="fill:none;stroke:#ff00ff;stroke-width:0.1;stroke-dasharray:none;stroke-opacity:1"
         id="path1138-9-4-0-0-1-2-8-1-8-6-2-9-9-1"
         cx="256.02179"
         cy="-204.37917"
         rx="18.492125"
         ry="18.492126" />
      <circle
         style="fill:none;stroke:#0000ff;stroke-width:0.1;stroke-linecap:round;stroke-dasharray:none;stroke-opacity:1;paint-order:markers stroke fill"
         id="path13019-1-33-4-5-5-5-5-7-1-5"
         cx="256.02179"
         cy="-219.39015"
         r="2" />
      <path
         style="fill:#000000;stroke-width:0.1;stroke-dasharray:none"
         d="m 254.2582,-190.14251 c -0.79763,-0.40252 -1.45023,-0.79338 -1.45023,-0.86857 0,-0.0752 1.46342,-0.13672 3.25204,-0.13672 1.78864,0 3.25206,0.0388 3.25206,0.0861 0,0.13464 -3.1301,1.673 -3.38038,1.66137 -0.12279,-0.006 -0.87585,-0.33969 -1.67349,-0.7422 z m -1.97759,-1.53262 c 0,-0.11176 1.36055,-0.17481 3.73547,-0.1731 2.47672,0.002 3.64661,0.0602 3.47178,0.1731 -0.35845,0.23165 -7.20725,0.23165 -7.20725,0 z m -1.99347,-1.05473 -0.29323,-1.05471 -1.18582,0.004 c -1.06125,0.004 -2.53089,0.24905 -3.7154,0.62133 -0.40661,0.12779 -0.41603,0.10994 -0.29254,-0.5541 0.15819,-0.85063 1.47336,-4.394 2.2743,-6.12755 0.67141,-1.45317 1.78868,-2.77208 2.77419,-3.27485 0.84253,-0.42982 1.17216,-0.44167 0.81043,-0.0291 -0.49276,0.562 -0.87968,1.48035 -0.69959,1.66044 0.382,0.38201 2.55393,1.02031 3.47174,1.02031 0.91065,0 0.95882,-0.0225 0.95882,-0.44841 v -0.44841 l 0.5879,0.44841 c 0.76573,0.58404 1.45692,0.5761 2.08323,-0.0239 l 0.49304,-0.47236 v 0.49219 0.4922 l 1.18655,-0.0757 c 1.52149,-0.0971 3.27419,-0.77869 3.349,-1.30238 0.0297,-0.20766 -0.15408,-0.61706 -0.41739,-0.92999 -0.25872,-0.30746 -0.41679,-0.61263 -0.35125,-0.67817 0.212,-0.21201 1.69151,0.70405 2.32551,1.43989 0.84584,0.9817 2.02052,3.45505 2.86784,6.03836 0.79672,2.42906 0.87358,2.95879 0.40037,2.75928 -0.84966,-0.3582 -2.49506,-0.62032 -3.60622,-0.57448 l -1.24374,0.0513 -0.33633,1.01078 c -0.30122,0.90522 -0.38528,1.00864 -0.80511,0.99038 -0.29768,-0.0129 -0.35649,-0.0497 -0.16113,-0.10079 0.16919,-0.0443 0.30763,-0.1169 0.30763,-0.16151 0,-0.0446 0.28047,-1.03719 0.62328,-2.20571 0.34281,-1.16853 0.59265,-2.15521 0.55522,-2.19265 -0.0375,-0.0374 -0.4093,0.80272 -0.82637,1.86702 -0.41706,1.0643 -0.81269,1.93509 -0.87918,1.93509 -0.31785,0 -3.46067,-3.41112 -3.73362,-4.05236 -0.265,-0.62259 -0.36979,-0.71025 -0.79104,-0.66181 -0.3782,0.0434 -0.57039,0.23075 -0.86913,0.84687 -0.21597,0.44544 -1.10554,1.50634 -2.03612,2.42829 l -1.65257,1.63725 -0.84141,-2.12896 c -0.46277,-1.17093 -0.86825,-2.10212 -0.90105,-2.06932 -0.15121,0.15121 1.29037,4.61125 1.47756,4.57135 0.1134,-0.0242 0.20616,0.0351 0.20616,0.13184 0,0.0967 -0.18479,0.17578 -0.41064,0.17578 -0.35213,0 -0.45244,-0.15029 -0.70389,-1.05471 z m 2.43255,-3.80348 c 0.15013,-0.22913 0.59646,-0.62081 0.99186,-0.87042 1.02385,-0.64632 0.69899,-0.86204 -1.30841,-0.86884 -0.8892,-0.004 -1.7156,-0.067 -1.83645,-0.14222 -0.27501,-0.17113 -0.28896,0.096 -0.0191,0.3659 0.13524,0.13526 0.69381,0.169 1.71391,0.10358 l 1.51328,-0.097 -0.64785,0.55028 c -0.65546,0.55674 -1.38033,2.08307 -1.36735,2.87916 0.004,0.22077 0.15352,-0.0202 0.34675,-0.55744 0.18722,-0.5205 0.46323,-1.13383 0.61335,-1.36295 z m 7.44843,1.47432 c -0.25679,-1.18943 -0.50699,-1.6797 -1.14139,-2.23672 -0.32648,-0.28665 -0.59359,-0.57487 -0.59359,-0.6405 0,-0.0656 0.62346,-0.0712 1.38548,-0.0125 1.2639,0.0975 1.4143,0.0742 1.71392,-0.26542 0.32196,-0.36493 0.32164,-0.36858 -0.016,-0.18501 -0.20223,0.10991 -0.85556,0.14927 -1.58208,0.0953 -0.85251,-0.0633 -1.4259,-0.0145 -1.84271,0.15691 l -0.60509,0.24885 0.69299,0.42592 c 0.92347,0.56758 1.23979,0.96914 1.58936,2.01762 0.16117,0.48342 0.32673,0.93826 0.3679,1.01077 0.1719,0.30273 0.18285,0.087 0.0312,-0.61524 z m -3.71921,-4.19272 c -0.21161,-0.12315 -0.46997,-0.12595 -0.79103,-0.008 -0.44009,0.16092 -0.41589,0.17501 0.31424,0.18288 0.62959,0.007 0.72691,-0.0288 0.47679,-0.17435 z m -2.36523,-0.2642 c 0.18279,-0.10229 -0.25324,-0.15748 -1.24426,-0.15748 -1.26089,0 -1.61716,-0.0637 -2.05301,-0.3667 -1.26656,-0.8807 -1.28933,-0.61514 -0.0264,0.30782 0.67626,0.49419 0.81402,0.52732 1.88592,0.45348 0.636,-0.0438 1.28298,-0.15052 1.43774,-0.23712 z m 7.09957,-0.0853 c 0.32685,-0.202 0.68073,-0.52881 0.78638,-0.72623 0.15727,-0.29387 0.0717,-0.2671 -0.47195,0.14755 -0.61677,0.47044 -0.77544,0.5065 -2.228,0.5065 -1.37692,0 -1.50468,0.0253 -1.0684,0.21181 0.81708,0.34923 2.3036,0.27963 2.98197,-0.13963 z m -4.33219,-0.16008 c -0.14502,-0.0937 -0.50099,-0.1704 -0.79105,-0.1704 -0.29004,0 -0.64601,0.0767 -0.79103,0.1704 -0.18627,0.12038 0.046,0.1704 0.79103,0.1704 0.74509,0 0.97732,-0.05 0.79105,-0.1704 z m -13.71408,6.72384 c -1.32,-1.49802 -1.32831,-1.54695 -0.59695,-3.51389 0.9967,-2.6805 2.54583,-5.44442 4.61588,-8.23551 0.32406,-0.43694 0.47042,-1.05507 0.74925,-3.16416 0.39755,-3.00731 0.70932,-4.2441 1.29746,-5.147 1.10705,-1.69957 2.24374,-2.51717 4.06188,-2.92167 0.73131,-0.16271 1.36821,-0.25726 1.41534,-0.21014 0.0471,0.0471 0.14694,2.09088 0.22179,4.54166 l 0.1361,4.45595 0.0277,-4.61106 0.0277,-4.61105 0.42159,-0.10581 c 0.23187,-0.0582 0.60762,-0.0795 0.83498,-0.0473 l 0.41341,0.0586 0.0879,4.30678 c 0.0704,3.44686 0.11421,4.02947 0.21973,2.9179 0.0725,-0.76387 0.13183,-2.64259 0.13183,-4.17493 0,-2.11305 0.0531,-2.78543 0.21974,-2.78346 0.63592,0.007 2.59401,0.59505 3.23491,0.97064 0.4041,0.23682 1.02525,0.76733 1.38035,1.17891 1.19289,1.38264 1.47576,2.18103 1.96775,5.55392 l 0.45289,3.1048 1.52624,2.29995 c 1.64431,2.47788 2.84388,4.79409 3.62119,6.99202 0.47321,1.33808 0.4792,1.39896 0.19006,1.93366 -0.44947,0.83118 -1.64642,2.09663 -1.85893,1.9653 -0.10284,-0.0636 -0.18706,-0.28889 -0.18712,-0.50072 -5.3e-4,-1.45945 -2.0428,-6.82661 -3.30403,-8.68287 -0.91429,-1.34565 -1.63282,-1.90886 -2.75655,-2.1607 -1.47743,-0.3311 -2.23718,-0.0324 -3.81515,1.5003 -1.76255,1.71191 -1.88293,1.71201 -3.67157,0.004 -1.60729,-1.5356 -2.28914,-1.81127 -3.7367,-1.51075 -1.05231,0.21845 -1.60519,0.55009 -2.35516,1.41269 -1.39173,1.60078 -3.40597,6.45244 -3.81321,9.18485 -0.0684,0.45925 -0.19199,0.83499 -0.27453,0.83499 -0.0825,0 -0.48116,-0.37574 -0.88583,-0.83499 z m 6.68261,-11.57622 c 1.33081,-0.48195 2.07837,-0.51956 3.25986,-0.16397 1.01942,0.30679 1.20726,0.23173 0.42822,-0.17113 -1.34142,-0.69367 -3.23925,-0.48023 -4.83069,0.54329 -0.38673,0.24873 -0.54495,0.39674 -0.35157,0.32892 0.19337,-0.0678 0.86575,-0.30952 1.49418,-0.53711 z m 13.88715,0.44797 c -2.00042,-1.36674 -4.30385,-1.56752 -5.62622,-0.49042 -0.34959,0.28475 -0.36718,0.33086 -0.0868,0.22753 1.93295,-0.71241 2.98563,-0.71148 4.65834,0.004 1.03285,0.44188 1.4852,0.55284 1.05473,0.25873 z m -10.43001,11.84605 c -0.21653,-0.21653 -0.11976,-1.06814 0.14648,-1.2891 0.22792,-0.18915 0.26369,-0.10862 0.26369,0.59373 0,0.75743 -0.12916,0.97639 -0.41017,0.69537 z m 1.11331,-0.94908 c 0,-1.06032 0.20959,-1.74631 0.53355,-1.74631 0.0948,0 0.1696,0.62014 0.1696,1.40629 0,1.2891 -0.0293,1.40629 -0.35158,1.40629 -0.31293,0 -0.35157,-0.11719 -0.35157,-1.06627 z m 1.23051,-0.6037 c 0,-1.55278 0.0246,-1.66997 0.35157,-1.66997 0.32691,0 0.35158,0.11719 0.35158,1.66997 0,1.55278 -0.0246,1.66997 -0.35158,1.66997 -0.3269,0 -0.35157,-0.11719 -0.35157,-1.66997 z m 1.40629,0.24215 c 0,-1.24923 0.0329,-1.40044 0.26369,-1.20898 0.18761,0.15571 0.26368,0.56762 0.26368,1.42782 0,0.95746 -0.0549,1.20898 -0.26368,1.20898 -0.21275,0 -0.26369,-0.27583 -0.26369,-1.42782 z m 1.3477,1.31063 c -0.0644,-0.0644 -0.11718,-0.46464 -0.11718,-0.88931 0,-0.8336 0.24567,-0.87699 0.54267,-0.0958 0.25501,0.67072 -0.0451,1.36552 -0.42549,0.98512 z"
         id="path6583-26-5-1-8"
         sodipodi:nodetypes="ssssssccccsscsscccsssssssscsscccsssssssscsssssssssssscsscssscsscssscccssssssssssscsssssssssssssssssssssssssssscssssssscccsscssssssscsssscssscssssscscsscscsscssssssssssssssssssss" />
    </g>
  </g>
</svg>
