<?xml version="1.0" encoding="UTF-8" standalone="no"?>
<!-- Created with Inkscape (http://www.inkscape.org/) -->

<svg
   width="41.008999mm"
   height="41.008999mm"
   viewBox="0 0 41.008999 41.009"
   version="1.1"
   id="svg1"
   inkscape:version="1.4.2 (f4327f4, 2025-05-13)"
   sodipodi:docname="204.svg"
   xmlns:inkscape="http://www.inkscape.org/namespaces/inkscape"
   xmlns:sodipodi="http://sodipodi.sourceforge.net/DTD/sodipodi-0.dtd"
   xmlns="http://www.w3.org/2000/svg"
   xmlns:svg="http://www.w3.org/2000/svg">
  <sodipodi:namedview
     id="namedview1"
     pagecolor="#ffffff"
     bordercolor="#000000"
     borderopacity="0.25"
     inkscape:showpageshadow="2"
     inkscape:pageopacity="0.0"
     inkscape:pagecheckerboard="0"
     inkscape:deskcolor="#d1d1d1"
     inkscape:document-units="mm"
     inkscape:zoom="2.0485264"
     inkscape:cx="83.962792"
     inkscape:cy="129.84943"
     inkscape:window-width="1050"
     inkscape:window-height="1081"
     inkscape:window-x="3737"
     inkscape:window-y="0"
     inkscape:window-maximized="0"
     inkscape:current-layer="layer1" />
  <defs
     id="defs1" />
  <g
     inkscape:label="Layer 1"
     inkscape:groupmode="layer"
     id="layer1"
     transform="translate(-114.0891,-77.774176)">
    <g
       id="g58"
       transform="translate(-163.69372,302.65784)">
      <circle
         style="fill:none;stroke:#ff0000;stroke-width:0.1;stroke-dasharray:none"
         id="path788-8-1-8-1-9-2-56-8-1-7-71-3-2-7"
         cx="298.28732"
         cy="-204.37917"
         r="19.954653" />
      <ellipse
         style="fill:none;stroke:#ff00ff;stroke-width:0.1;stroke-dasharray:none;stroke-opacity:1"
         id="path1138-9-4-0-0-1-2-4-9-7-82-6-75-2-1"
         cx="298.28732"
         cy="-204.37917"
         rx="18.492125"
         ry="18.492126" />
      <circle
         style="fill:none;stroke:#0000ff;stroke-width:0.1;stroke-linecap:round;stroke-dasharray:none;stroke-opacity:1;paint-order:markers stroke fill"
         id="path13019-1-33-6-2-4-0-0-76-9-2"
         cx="298.28729"
         cy="-219.39015"
         r="2" />
      <path
         style="fill:#000000;stroke-width:0.1;stroke-dasharray:none"
         d="m 295.75359,-187.42692 c -0.35046,-0.0452 -0.6372,-0.16503 -0.6372,-0.26596 0,-0.2375 0.6144,-3.81097 0.65523,-3.81097 0.017,0 0.20745,-0.0971 0.42312,-0.21586 0.25322,-0.13946 0.41319,-0.46092 0.45156,-0.90754 0.0564,-0.65596 0.0224,-0.69857 -0.65724,-0.8261 -0.39417,-0.0741 -0.74788,-0.10322 -0.78603,-0.0652 -0.0382,0.0385 -0.44821,0.81587 -0.91127,1.72823 l -0.84192,1.65887 -2.1567,-0.0697 c -1.18619,-0.0385 -2.19063,-0.10182 -2.23208,-0.14072 -0.10479,-0.0984 0.79655,-3.26475 1.01196,-3.55494 0.0965,-0.13013 0.11341,-0.33702 0.0375,-0.45988 -0.0759,-0.12279 -0.0265,-0.4318 0.10988,-0.68657 0.18639,-0.34828 0.19891,-0.72065 0.0505,-1.50081 -0.10861,-0.57066 -0.15468,-1.90785 -0.10239,-2.97156 0.068,-1.38361 0.028,-1.97546 -0.14058,-2.07967 -0.15958,-0.0986 -0.2543,-0.99357 -0.29334,-2.77153 -0.0447,-2.03492 -0.0302,-2.23099 0.0643,-0.8712 l 0.12192,1.75466 0.5463,-0.6508 c 0.79613,-0.94843 1.05049,-1.54616 1.19171,-2.8005 l 0.12591,-1.11837 -0.67416,-0.12647 c -0.37079,-0.0696 -0.79017,-0.0607 -0.93195,0.0198 -0.17853,0.10126 -0.19752,0.0809 -0.0617,-0.0662 0.10783,-0.11685 0.59309,-0.24008 1.07835,-0.27385 l 0.88229,-0.0614 0.14367,-1.44071 c 0.23103,-2.31679 1.75267,-4.5393 3.77961,-5.52053 0.74407,-0.3602 1.14453,-0.41939 2.40596,-0.3556 2.22082,0.1123 3.85063,1.0799 4.65134,2.76146 0.29871,0.62732 0.29822,0.62891 -0.0456,0.14857 -1.25066,-1.74726 -2.47756,-2.56592 -3.77865,-2.52134 l -0.68622,0.0235 0.78425,0.11922 c 0.76317,0.11602 0.7859,0.14202 0.84526,0.96698 0.0904,1.25614 -0.1296,1.40698 -2.0518,1.40698 -1.31,0 -1.67271,-0.0626 -1.7656,-0.30464 -0.12342,-0.32163 0.46745,-1.84922 0.81002,-2.09414 0.11082,-0.0792 -0.0293,-0.1454 -0.31126,-0.14705 -0.63294,-0.004 -1.5082,0.66022 -1.77467,1.34618 -0.1097,0.28238 -0.27281,1.02028 -0.36245,1.63976 -0.0897,0.61948 -0.3021,1.26545 -0.47213,1.43547 -0.36478,0.36478 -0.38341,0.52056 -0.0965,0.80742 0.15274,0.15274 0.10446,0.28832 -0.17149,0.48161 -0.45246,0.31691 -0.54937,1.46655 -0.74484,8.83569 l -0.12329,4.64785 1.53877,0.0578 c 1.36538,0.0511 1.54538,0.10189 1.59753,0.4498 0.1351,0.90132 0.25667,1.27443 0.41528,1.27443 0.0925,0 0.1235,-0.39705 0.0688,-0.88227 -0.0991,-0.87894 -0.0971,-0.88235 0.51425,-0.88235 0.60321,0 0.61369,0.0163 0.61369,0.95126 v 0.95119 l 1.71555,0.1256 c 1.61938,0.11857 1.73503,0.10093 2.06266,-0.31397 0.92183,-1.16757 1.11655,-1.32193 1.66738,-1.32193 h 0.57367 l 0.12739,-1.7947 c 0.19352,-2.72613 0.15292,-5.90972 -0.0995,-7.80574 -0.16362,-1.22899 -0.16813,-1.87293 -0.0162,-2.3089 0.31676,-0.90868 -0.32427,-2.10791 -1.29193,-2.41692 -0.88236,-0.28177 -1.23768,-0.57232 -0.70994,-0.58056 0.35369,-0.005 0.35663,-0.021 0.0392,-0.2058 -0.18871,-0.10992 -0.34311,-0.3856 -0.34311,-0.61262 0,-0.38394 -0.0245,-0.39063 -0.35034,-0.0957 -0.4725,0.42761 -1.19005,0.21815 -1.3432,-0.39209 -0.18192,-0.72483 0.13492,-0.89599 1.37237,-0.74138 1.05471,0.13178 1.10062,0.16199 1.22097,0.80348 0.0688,0.36661 0.0806,0.8367 0.0262,1.04465 -0.0749,0.28645 0.0456,0.42844 0.49715,0.58586 0.7291,0.25416 0.73359,0.25424 0.73359,0.0117 0,-0.10783 -0.17922,-0.19606 -0.39828,-0.19606 -0.43317,0 -0.49709,-0.12034 -0.65108,-1.22573 -0.0947,-0.67971 -0.0737,-0.72013 0.27738,-0.53228 0.20892,0.11181 0.37985,0.13644 0.37985,0.0548 0,-0.0817 0.13378,0.0425 0.29729,0.27588 0.16351,0.23344 0.39782,1.13536 0.5207,2.00427 l 0.22342,1.57983 h 0.85174 0.85175 v 0.87071 c 0,0.4789 0.0813,0.92097 0.18068,0.98238 0.29631,0.18314 0.4353,2.28455 0.48045,7.26389 0.0365,4.01879 0.0926,4.80844 0.38494,5.41045 0.37071,0.76348 0.42035,1.12955 0.35633,2.62821 -0.0523,1.22403 -0.27534,0.88842 -0.63328,-0.95297 -0.28348,-1.45827 -0.25153,-1.42685 -1.57855,-1.55364 l -0.90745,-0.0868 -0.12685,1.07931 c -0.0698,0.59364 -0.0843,1.12184 -0.0322,1.17394 0.052,0.0519 0.40719,-0.0898 0.78922,-0.31524 0.44731,-0.26388 0.69227,-0.32487 0.68805,-0.17132 -0.004,0.13116 -0.46124,0.50316 -1.01696,0.82669 -0.55572,0.32346 -1.04538,0.69842 -1.08813,0.83321 -0.12951,0.40831 0.63724,0.27715 1.39806,-0.23913 0.82906,-0.56266 0.97227,-0.33517 0.17441,0.277 l -0.53918,0.41372 1.32384,-0.0541 c 0.95745,-0.0393 1.32373,0.0133 1.32343,0.19089 -3.9e-4,0.27841 -0.53433,0.30034 -2.87608,0.11805 l -1.60125,-0.12464 -0.21234,-0.8433 c -0.11679,-0.46381 -0.21234,-1.38268 -0.21234,-2.04198 v -1.19876 l -0.43576,0.30523 c -0.23966,0.16792 -0.758,0.30523 -1.15187,0.30523 -1.10189,0 -1.90499,0.21015 -2.02801,0.5308 -0.0666,0.17355 0.16005,0.56229 0.56262,0.96489 0.967,0.96697 1.15257,1.67732 0.84104,3.21926 l -0.2556,1.26501 -1.75619,0.0208 c -0.9659,0.0119 -2.04293,-0.0163 -2.3934,-0.0615 z m 3.86965,-0.98891 c -0.004,-0.91665 -0.90851,-3.4738 -1.25274,-3.54353 -0.23264,-0.0474 -0.31315,0.0915 -0.31315,0.53917 0,0.47189 -0.0851,0.60261 -0.39213,0.60261 -0.30734,0 -0.39212,-0.13072 -0.39212,-0.60453 0,-1.03974 -0.43331,-0.54547 -1.21698,1.38824 -0.40902,1.00921 -0.74367,1.90749 -0.74367,1.99611 0,0.0886 0.97052,0.1611 2.15671,0.1611 h 2.15671 l -0.003,-0.53917 z m 5.68848,-7.29181 c 0,-0.20926 0.0882,-0.43505 0.19607,-0.50175 0.10783,-0.0667 0.19606,-0.29241 0.19606,-0.50167 0,-0.30427 -0.13767,-0.3806 -0.68622,-0.3806 -0.68259,0 -0.68622,0.007 -0.68622,0.88227 0,0.81047 0.0399,0.88235 0.49015,0.88235 0.35449,0 0.49016,-0.10538 0.49016,-0.3806 z m 0.39213,-3.5407 v -1.76458 h -0.58819 c -0.57913,0 -0.58816,0.0159 -0.58604,1.02934 10e-4,0.56613 0.0568,1.36019 0.12369,1.76459 0.10059,0.60854 0.20159,0.73525 0.58603,0.73525 0.45423,0 0.46451,-0.0393 0.46451,-1.7646 z m 0.31861,-3.16153 c -0.0674,-0.33699 -0.12255,-1.79277 -0.12255,-3.23506 v -2.62236 h -0.78425 -0.78425 v 2.3254 c 0,1.27898 0.0561,2.73475 0.12467,3.23507 0.12464,0.90929 0.12499,0.90965 0.9068,0.90965 0.7714,0 0.78044,-0.008 0.65958,-0.6127 z m -2.54153,-9.43559 c -0.0544,-0.1348 -0.0989,-0.0245 -0.0989,0.24508 0,0.26958 0.0445,0.37987 0.0989,0.24508 0.0544,-0.13479 0.0544,-0.35537 0,-0.49016 z m -4.62643,-2.11459 c 0.55691,-0.29805 0.48326,-0.93984 -0.12538,-1.0926 -1.02809,-0.25803 -1.92203,0.61252 -1.11291,1.0838 0.44283,0.25792 0.76848,0.26024 1.23829,0.009 z m -0.54834,-1.69022 c -0.13274,-0.0537 -0.39743,-0.057 -0.58819,-0.007 -0.19077,0.0497 -0.0822,0.0937 0.24135,0.0976 0.3235,0.004 0.47958,-0.0367 0.34684,-0.0904 z m 2.30002,21.03869 c 0,-0.14561 0.0969,-0.54265 0.21525,-0.88227 0.17474,-0.50123 0.3223,-0.61742 0.78425,-0.61742 0.65529,0 0.69252,0.11938 0.24624,0.78964 -0.57692,0.86641 -1.24574,1.24767 -1.24574,0.71005 z m -2.35277,-0.84047 v -0.90932 l 1.11733,0.13138 c 0.61453,0.0719 1.15269,0.16666 1.19592,0.20986 0.0432,0.043 -0.0253,0.39334 -0.1522,0.77801 -0.22304,0.67574 -0.26334,0.69931 -1.19593,0.69931 h -0.96512 z m 4.50948,-1.52993 c 0,-0.37111 -0.0959,-0.73399 -0.21315,-0.80639 -0.307,-0.18978 0.11188,-0.56044 0.47558,-0.42091 0.39995,0.15354 0.61769,1.25605 0.3191,1.61589 -0.38456,0.46337 -0.58153,0.33169 -0.58153,-0.38859 z m -1.4591,0.30093 c -0.0604,-0.0977 -0.28617,-0.13154 -0.50174,-0.0752 -0.35341,0.0925 -0.39193,0.007 -0.39193,-0.88123 v -0.98381 l 0.68622,0.0194 0.68623,0.0195 v 1.03946 c 0,0.94985 -0.20091,1.31147 -0.47878,0.86189 z m -0.16961,-1.33815 c -0.0497,-0.19075 -0.0937,-0.0821 -0.0976,0.24135 -0.004,0.32353 0.0367,0.47959 0.0904,0.34688 0.0537,-0.1328 0.057,-0.39742 0.007,-0.58823 z m -7.65296,0.38844 c 0.0671,-0.51227 0.13152,-0.94234 0.14329,-0.9558 0.0118,-0.0134 0.51845,-0.0847 1.12595,-0.1583 l 1.10456,-0.13383 -0.10355,0.94256 c -0.057,0.51842 -0.20109,1.00735 -0.32031,1.08657 -0.11921,0.0793 -0.63414,0.14546 -1.14429,0.14709 h -0.92756 l 0.12191,-0.93132 z m 5.36039,0.16303 c 0,-1.06832 0.16305,-1.38845 0.7072,-1.38845 0.438,0 0.46918,0.0717 0.46918,1.07833 0,1.06745 -0.006,1.07835 -0.58819,1.07835 -0.55347,0 -0.58819,-0.0452 -0.58819,-0.76823 z m -2.54884,-0.40816 v -0.98029 h 1.07836 1.07835 v 0.98029 0.98031 h -1.07835 -1.07836 z m 1.66655,0.098 c 0,-0.51791 -0.0677,-0.58816 -0.56683,-0.58816 -0.71311,0 -1.09187,0.51724 -0.713,0.97379 0.15272,0.184 0.48177,0.29538 0.77288,0.26151 0.41947,-0.0489 0.50695,-0.16043 0.50695,-0.64714 z m 4.24798,-1.09051 c -0.61132,-0.24502 -0.44146,-0.65959 0.30058,-0.73362 0.41199,-0.0411 0.63542,0.0404 0.72078,0.26277 0.24443,0.63699 -0.15147,0.8195 -1.02136,0.47085 z m -7.87516,-0.54202 c 0,-0.38151 0.35276,-0.62219 0.91195,-0.62219 0.19036,0 0.26994,0.15326 0.22905,0.44115 -0.0852,0.59981 -1.141,0.76734 -1.141,0.18104 z m 5.14004,0.1924 c -0.14671,-0.0931 -0.19595,-0.30505 -0.11804,-0.5081 0.10669,-0.27803 0.27629,-0.32479 0.83991,-0.23156 0.38843,0.0642 0.86063,0.11779 1.04934,0.11898 0.21169,10e-4 0.34312,0.15236 0.34312,0.39429 0,0.33751 -0.12971,0.3917 -0.93131,0.38912 -0.51222,-10e-4 -1.04458,-0.0749 -1.18302,-0.16273 z m -3.37547,-0.43182 c 0,-0.36794 0.10221,-0.3966 1.22343,-0.34311 0.98142,0.0468 1.23636,0.12624 1.2888,0.40149 0.0569,0.2986 -0.10183,0.34311 -1.22344,0.34311 -1.16809,0 -1.28879,-0.0376 -1.28879,-0.40149 z m 6.12701,-0.31656 c -0.18582,-0.075 -0.24508,-1.15932 -0.24508,-4.48379 v -4.3849 l 0.58819,0.20504 0.58819,0.20504 v 4.29423 c 0,3.96494 -0.0263,4.29305 -0.34311,4.27875 -0.18872,-0.009 -0.4534,-0.0599 -0.58819,-0.11437 z m -2.54884,-0.3998 -0.63721,-0.0834 v -2.56384 -2.56385 l 1.109,0.11446 c 0.60995,0.063 1.18359,0.2297 1.27478,0.37055 0.0912,0.14085 0.14356,1.27072 0.1164,2.51081 l -0.0494,2.25474 -0.58819,0.0219 c -0.32351,0.0121 -0.87494,-0.0156 -1.22541,-0.0614 z m -4.95062,-1.52901 c 0,-1.1387 0.0628,-1.47049 0.27806,-1.47049 0.15294,0 0.41762,-0.0536 0.58819,-0.11901 0.26709,-0.10248 0.31013,0.10163 0.31013,1.47049 v 1.58948 h -0.58819 -0.58819 z m 1.37362,0.53917 c 5.9e-4,-0.51222 0.0578,-1.6592 0.1271,-2.54883 l 0.12591,-1.61753 h 1.14733 1.14732 v 2.54883 2.54883 h -1.27441 -1.27442 l 0.002,-0.9313 z m 2.18607,-0.14085 c 0.29397,-1.10724 -0.73765,-1.91794 -1.48701,-1.16858 -0.31222,0.31222 -0.42491,1.47038 -0.16806,1.72723 0.077,0.077 0.44615,0.11378 0.8203,0.0817 0.56799,-0.0487 0.70576,-0.15439 0.83477,-0.64034 z m 0.009,-2.1708 c 0.49092,-1.07744 -0.39589,-2.00624 -1.40161,-1.468 -0.29955,0.16032 -0.40224,0.40956 -0.40224,0.9763 0,0.80539 0.15254,0.94918 1.03354,0.97428 0.39991,0.0114 0.6033,-0.11602 0.77031,-0.48258 z m -4.74482,2.77566 c 0,-0.0414 0.17646,-0.12131 0.39213,-0.17771 0.21567,-0.0564 0.39213,-0.0226 0.39213,0.0752 0,0.0977 -0.17646,0.1777 -0.39213,0.1777 -0.21567,0 -0.39213,-0.0338 -0.39213,-0.0752 z m 0.14705,-0.64287 c 0.13479,-0.0544 0.35537,-0.0544 0.49016,0 0.13479,0.0544 0.0245,0.0989 -0.24508,0.0989 -0.26959,0 -0.37987,-0.0445 -0.24508,-0.0989 z m 0.20832,-1.18047 c 0.14153,-0.0566 0.31064,-0.0497 0.37579,0.0155 0.0651,0.0651 -0.0507,0.11148 -0.25734,0.10298 -0.2284,-0.009 -0.27486,-0.0559 -0.11845,-0.11846 z m -0.0613,-0.45427 c 0.0666,-0.10783 0.16008,-0.19606 0.20764,-0.19606 0.0476,0 0.0865,0.0882 0.0865,0.19606 0,0.10784 -0.0934,0.19607 -0.20764,0.19607 -0.1142,0 -0.15311,-0.0882 -0.0865,-0.19607 z m -0.098,-1.37244 c 0,-0.61538 0.0739,-0.78472 0.34311,-0.78641 0.18871,-0.001 0.67397,-0.0568 1.07835,-0.12369 l 0.73524,-0.12153 v 0.78893 c 0,0.88876 -0.18685,1.02695 -1.38848,1.02695 -0.76555,0 -0.76822,-0.003 -0.76822,-0.78425 z m 0.4253,-2.08615 c 0.0943,-0.48983 0.73429,-0.61716 3.20188,-0.63705 2.73471,-0.0221 3.66711,0.11969 3.58277,0.54461 -0.0445,0.22395 -0.26126,0.309 -0.74439,0.29203 -1.56288,-0.0549 -1.95399,-0.0504 -3.98262,0.0465 -1.95809,0.0935 -2.11931,0.0742 -2.05764,-0.24606 z m -4.33111,-0.96919 c 0.009,-0.2284 0.0559,-0.27486 0.11846,-0.11845 0.0566,0.14153 0.0496,0.31064 -0.0155,0.37579 -0.0651,0.0651 -0.11149,-0.0506 -0.10298,-0.25734 z m 4.494,-0.55089 c 0,-0.42386 0.82408,-0.72863 1.56794,-0.57986 0.32329,0.0647 0.70122,0.0234 0.83985,-0.0916 0.17226,-0.14296 0.83257,-0.15474 2.08559,-0.0372 1.71824,0.16118 2.42554,0.40231 2.10889,0.71896 -0.1472,0.1472 -2.62905,0.20189 -4.05344,0.0893 -0.48525,-0.0384 -1.25726,-0.004 -1.71556,0.0777 -0.7043,0.12464 -0.83327,0.0972 -0.83327,-0.1773 z m 6e-5,-1.23078 c -10e-5,-0.35595 0.96416,-0.48751 3.60368,-0.49169 2.233,-0.004 3.25845,0.17932 3.25853,0.58104 2e-5,0.0771 -1.54396,0.14015 -3.43106,0.14015 -2.48992,0 -3.43111,-0.063 -3.43115,-0.2295 z m 0.196,-1.43704 c 0,-0.10784 0.13755,-0.19607 0.30567,-0.19607 0.16812,0 0.25113,0.0882 0.18449,0.19607 -0.0666,0.10783 -0.20419,0.19606 -0.30566,0.19606 -0.10148,0 -0.1845,-0.0882 -0.1845,-0.19606 z m 0.78426,-0.1673 c 0,-0.19147 2.88978,-0.47567 3.15706,-0.31049 0.50982,0.3151 0.002,0.47779 -1.49052,0.47779 -0.9166,0 -1.66654,-0.0753 -1.66654,-0.1673 z m 3.92128,-0.0288 c 0,-0.10783 0.13234,-0.19606 0.29409,-0.19606 0.16176,0 0.2941,0.0882 0.2941,0.19606 0,0.10784 -0.13234,0.19607 -0.2941,0.19607 -0.16175,0 -0.29409,-0.0882 -0.29409,-0.19607 z m -4.23989,-1.00483 c 0.0674,-0.33698 0.12254,-0.73401 0.12254,-0.88228 0,-0.16884 0.21983,-0.26959 0.5882,-0.26959 0.64689,0 0.75093,0.33067 0.39697,1.26165 -0.13885,0.36522 -0.33346,0.50293 -0.71072,0.50293 -0.4773,0 -0.50957,-0.0498 -0.39699,-0.61271 z m 1.42656,0.46454 c -0.1859,-0.3008 0.12204,-1.22428 0.40825,-1.22428 0.20932,0 0.26003,0.12717 0.17589,0.44114 -0.065,0.24263 -0.11943,0.55143 -0.1209,0.68623 -0.003,0.26805 -0.31688,0.33374 -0.46324,0.0969 z m 2.52958,-0.0311 c -0.0609,-0.0986 -0.006,-0.21421 0.12174,-0.25684 0.13476,-0.0449 0.17675,-0.22296 0.0999,-0.42337 -0.18887,-0.49218 -0.82389,-0.31188 -0.80456,0.22844 0.0125,0.35048 -0.0922,0.43502 -0.53917,0.43502 -0.48567,0 -0.55474,-0.0732 -0.55474,-0.58819 v -0.5882 h 1.17638 1.17639 v 0.68623 c 0,0.66103 -0.39674,0.95857 -0.67588,0.50691 z"
         id="path6583-26-5-1-9"
         sodipodi:nodetypes="csssssssscsssssssssscsscsssscsssssscsssssssssssscssscsscssscsssscssssssssssssssscccsssssssccsscsssscscscsscssssscscscssssssscsssssssssscscssssscccssssssscssscscccsssssssccsssssssssssssscccsscccscsssscssscscssscscccccccsssssssssssssssssscsssssssssscccssccccccsscsccsssscccscccccccccsssssssssssssssssssssssssssssssscscsssssssssssssssssssssssscsssssssssssssssssssssscssscsscsssscccs" />
    </g>
  </g>
</svg>
