<?xml version="1.0" encoding="UTF-8" standalone="no"?>
<!-- Created with Inkscape (http://www.inkscape.org/) -->

<svg
   width="41.008999mm"
   height="41.008999mm"
   viewBox="0 0 41.008999 41.009"
   version="1.1"
   id="svg1"
   inkscape:version="1.4.2 (f4327f4, 2025-05-13)"
   sodipodi:docname="205.svg"
   xmlns:inkscape="http://www.inkscape.org/namespaces/inkscape"
   xmlns:sodipodi="http://sodipodi.sourceforge.net/DTD/sodipodi-0.dtd"
   xmlns="http://www.w3.org/2000/svg"
   xmlns:svg="http://www.w3.org/2000/svg">
  <sodipodi:namedview
     id="namedview1"
     pagecolor="#ffffff"
     bordercolor="#000000"
     borderopacity="0.25"
     inkscape:showpageshadow="2"
     inkscape:pageopacity="0.0"
     inkscape:pagecheckerboard="0"
     inkscape:deskcolor="#d1d1d1"
     inkscape:document-units="mm"
     inkscape:zoom="2.0485264"
     inkscape:cx="83.962792"
     inkscape:cy="129.84943"
     inkscape:window-width="1050"
     inkscape:window-height="1081"
     inkscape:window-x="3737"
     inkscape:window-y="0"
     inkscape:window-maximized="0"
     inkscape:current-layer="layer1" />
  <defs
     id="defs1" />
  <g
     inkscape:label="Layer 1"
     inkscape:groupmode="layer"
     id="layer1"
     transform="translate(-114.0891,-77.774176)">
    <g
       id="g78"
       transform="translate(5.1715718,253.01563)">
      <circle
         style="fill:none;stroke:#ff0000;stroke-width:0.1;stroke-dasharray:none"
         id="path788-8-1-8-1-9-2-1-4-2-2-4-5-1-2-0"
         cx="129.42203"
         cy="-154.73695"
         r="19.954653" />
      <path
         style="fill:#000000;stroke-width:0.1;stroke-dasharray:none"
         d="m 125.40956,-135.9865 c -5.8338,-1.3395 -10.78996,-5.3114 -13.2393,-10.6101 -2.4601,-5.322 -2.28822,-11.5692 0.46951,-17.0648 1.69309,-3.374 4.45821,-6.0553 8.13959,-7.8928 5.78506,-2.8875 11.33803,-2.9297 17.17104,-0.1305 2.08435,1.0002 2.85918,1.5638 4.78916,3.4834 2.5395,2.5258 3.76685,4.4795 4.92929,7.8463 0.65637,1.9011 0.73115,2.4805 0.73417,5.6886 0.003,3.3213 -0.0541,3.7345 -0.81507,5.8899 -1.15566,3.2732 -2.26816,5.0216 -4.84818,7.6191 -2.45385,2.4705 -5.08222,4.0556 -8.06979,4.8667 -2.2094,0.5998 -7.25164,0.7655 -9.26042,0.3042 z m 9.01367,-1.2372 c 3.226,-0.9877 5.33374,-2.2639 7.81135,-4.7296 3.90491,-3.8862 5.4536,-7.936 5.20034,-13.5988 -0.22527,-5.037 -1.67168,-8.2623 -5.37044,-11.9757 -3.4834,-3.4972 -7.63549,-5.2202 -12.55387,-5.2094 -4.39792,0.01 -7.86443,1.2034 -11.30026,3.8917 -2.92438,2.2882 -5.05669,5.4336 -6.20425,9.152 -0.90358,2.9279 -0.84853,7.4864 0.12624,10.451 0.95629,2.9084 2.35627,5.1812 4.55246,7.3907 2.75105,2.7676 6.01003,4.4585 9.94734,5.1609 2.04844,0.3654 5.66503,0.1181 7.79109,-0.5328 z m -9.36775,-0.7825 c -1.06787,-0.2797 -2.78854,-0.9578 -3.82373,-1.5068 -1.863,-0.9881 -4.76978,-3.5648 -5.97417,-5.2958 l -0.59696,-0.858 0.7035,-0.3205 c 0.58706,-0.2675 0.74135,-0.2529 0.93216,0.088 0.12575,0.2247 0.46141,0.6955 0.74589,1.0462 l 0.51723,0.6377 0.67865,-0.6365 0.67865,-0.6365 1.29307,1.2096 c 1.35127,1.2639 3.40064,2.4394 5.19979,2.9825 0.97752,0.295 1.05834,0.3916 1.05834,1.2643 0,0.9266 0.0243,0.9482 1.25677,1.1175 1.10326,0.1516 1.25677,0.2504 1.25677,0.8093 0,0.5619 -0.11653,0.6349 -0.99219,0.6221 -0.5457,-0.01 -1.8659,-0.2435 -2.93377,-0.5232 z m 4.98429,-0.073 c 0,-0.6048 0.13397,-0.6995 1.21967,-0.8623 1.20639,-0.1809 1.21811,-0.1925 1.07743,-1.0594 -0.14145,-0.8716 -0.13317,-0.8794 1.52104,-1.4299 1.87034,-0.6224 3.56901,-1.6269 5.11867,-3.027 l 1.04771,-0.9465 0.71084,0.5592 c 0.69068,0.5432 0.72182,0.5451 1.09763,0.066 0.21273,-0.2716 0.50802,-0.7021 0.65621,-0.9567 0.32545,-0.5593 0.52524,-0.5754 1.18232,-0.095 0.48096,0.3516 0.45066,0.4323 -0.67703,1.8021 -2.96234,3.5982 -7.13101,5.9704 -11.32585,6.445 -1.62014,0.1833 -1.62864,0.1808 -1.62864,-0.4951 z m -2.31852,-5.9592 c -0.26528,-0.1684 -0.23134,-0.7133 0.16472,-2.6443 l 0.49887,-2.4322 -1.09076,-0.5179 c -0.59992,-0.2848 -1.32889,-0.695 -1.61993,-0.9116 -0.49347,-0.3671 -0.6452,-0.2882 -2.24896,1.1704 -0.94589,0.8602 -1.86051,1.5693 -2.03251,1.5756 -0.38183,0.014 -1.2851,-1.2195 -1.80615,-2.4665 l -0.3849,-0.9212 2.44251,-0.8137 2.44251,-0.8137 v -1.8526 -1.8525 l -2.43422,-0.8109 c -2.34364,-0.7808 -2.42529,-0.8345 -2.19425,-1.4422 0.41978,-1.1041 1.58044,-2.7739 1.91981,-2.762 0.18007,0.01 1.09659,0.711 2.03671,1.5659 l 1.70931,1.5543 0.72274,-0.5146 c 0.39751,-0.283 1.13188,-0.6856 1.63193,-0.8945 l 0.90918,-0.3799 -0.50038,-2.4396 c -0.57696,-2.8129 -0.55048,-2.8638 1.49083,-2.8638 2.03037,0 2.14392,0.1481 1.75401,2.287 -0.18107,0.9933 -0.39436,2.0721 -0.47398,2.3973 -0.11511,0.4702 0.01,0.6501 0.60935,0.878 0.41476,0.1577 1.14439,0.5844 1.62141,0.9483 l 0.86729,0.6615 1.95207,-1.7471 1.95207,-1.7471 0.95815,1.5305 c 0.52698,0.8417 0.92567,1.6991 0.88597,1.9053 -0.0407,0.2115 -1.06102,0.7046 -2.3403,1.1309 l -2.26813,0.7559 0.0129,1.7796 c 0.007,0.9787 0.1348,1.8665 0.28375,1.9728 0.14895,0.1064 1.04473,0.4361 1.99061,0.7328 2.44272,0.7662 2.55561,0.8589 2.14987,1.767 -0.18347,0.4106 -0.63683,1.1893 -1.00745,1.7305 l -0.67387,0.984 -1.96681,-1.7153 -1.96681,-1.7154 -0.84833,0.6471 c -0.46657,0.3558 -1.18767,0.776 -1.60243,0.9337 -0.5996,0.228 -0.72446,0.4079 -0.60935,0.8781 0.0796,0.3252 0.29291,1.404 0.47398,2.3972 0.27988,1.5354 0.27225,1.842 -0.0509,2.0465 -0.4696,0.2972 -2.90437,0.3178 -3.36013,0.028 z m -14.0503,-3.725 c -1.8411,-4.2797 -1.8363,-9.5188 0.0127,-13.8308 0.50093,-1.1682 0.56877,-1.2227 1.17803,-0.9451 0.35555,0.162 0.59314,0.4222 0.52798,0.5782 -0.0652,0.156 -0.30574,0.7211 -0.5346,1.2558 l -0.41611,0.9722 0.81499,0.179 c 0.81096,0.1781 0.81388,0.1851 0.59052,1.409 -0.12345,0.6766 -0.22445,2.2421 -0.22445,3.479 0,1.237 0.101,2.8025 0.22446,3.479 0.22358,1.2252 0.22124,1.2308 -0.59531,1.4101 -0.45088,0.099 -0.81978,0.2349 -0.81978,0.3019 0,0.067 0.24608,0.6041 0.54683,1.1936 0.52627,1.0316 0.52875,1.0856 0.0661,1.4363 -0.70707,0.536 -0.76146,0.4996 -1.37138,-0.9182 z m 30.2615,0.9368 c -0.50326,-0.368 -0.50539,-0.4134 -0.063,-1.341 0.61082,-1.2809 0.59096,-1.3732 -0.36747,-1.7073 -0.68944,-0.2404 -0.79649,-0.3862 -0.65011,-0.8858 0.67435,-2.3017 0.67287,-6.2102 -0.003,-7.9716 -0.12429,-0.3239 0.047,-0.5136 0.65507,-0.7256 0.91208,-0.3179 0.98441,-0.5822 0.4265,-1.5582 -0.51875,-0.9074 -0.488,-1.2555 0.14063,-1.5919 0.48512,-0.2596 0.59939,-0.151 1.1725,1.1152 0.74909,1.6548 1.46582,4.9614 1.463,6.7494 -0.004,2.6216 -0.96103,6.5305 -1.91953,7.8413 -0.29483,0.4032 -0.39427,0.412 -0.85454,0.075 z m -28.69713,-16.5576 c -0.58104,-0.3675 0.0497,-1.3964 2.11573,-3.451 2.77879,-2.7634 6.31001,-4.4952 10.02262,-4.9152 1.60095,-0.1812 1.60777,-0.179 1.60777,0.5046 0,0.6213 -0.12204,0.7027 -1.28438,0.8569 -1.26684,0.168 -1.284,0.1831 -1.25677,1.0991 0.0256,0.8615 -0.049,0.9521 -1.03073,1.2509 -1.8064,0.5498 -3.85116,1.7237 -5.19979,2.9852 l -1.29307,1.2095 -0.66728,-0.6268 -0.66728,-0.6269 -0.64084,0.7841 c -0.35246,0.4313 -0.64512,0.8735 -0.65036,0.9826 -0.013,0.2715 -0.58832,0.2427 -1.05562,-0.053 z m 26.8928,-0.6809 -0.74395,-0.9324 -0.69149,0.5439 -0.69149,0.5439 -0.94581,-0.9088 c -1.3566,-1.3036 -3.28096,-2.4451 -5.19747,-3.0828 -1.65421,-0.5505 -1.66249,-0.5583 -1.52104,-1.43 0.14068,-0.8668 0.12896,-0.8784 -1.07743,-1.0593 -1.06642,-0.1599 -1.21967,-0.264 -1.21967,-0.8281 0,-0.7764 0.37386,-0.807 3.04271,-0.2486 3.73786,0.7821 8.0109,3.5338 10.23015,6.588 0.5752,0.7916 0.68053,1.1147 0.45282,1.389 -0.46495,0.5603 -0.83543,0.4302 -1.63733,-0.5748 z"
         id="path6583-26-5-1-4"
         sodipodi:nodetypes="sssssssscsssssssscssssssssscssscccssssssssssssscsssssssssscssssscccccsscscsscsssssscccsssccsssscccsssssssssssscssssssssssssssssssscssssssssssscccssssscccssssssss" />
      <circle
         style="fill:none;stroke:#0000ff;stroke-width:0.1;stroke-linecap:round;stroke-dasharray:none;stroke-opacity:1;paint-order:markers stroke fill"
         id="path13019-1-33-3-83-70-3-7-5-3-0-0"
         cx="129.42207"
         cy="-169.74785"
         r="2" />
    </g>
  </g>
</svg>
