<?xml version="1.0" encoding="UTF-8" standalone="no"?>
<!-- Created with Inkscape (http://www.inkscape.org/) -->

<svg
   width="41.008999mm"
   height="41.008999mm"
   viewBox="0 0 41.008999 41.009"
   version="1.1"
   id="svg1"
   inkscape:version="1.4.2 (f4327f4, 2025-05-13)"
   sodipodi:docname="206.svg"
   xmlns:inkscape="http://www.inkscape.org/namespaces/inkscape"
   xmlns:sodipodi="http://sodipodi.sourceforge.net/DTD/sodipodi-0.dtd"
   xmlns="http://www.w3.org/2000/svg"
   xmlns:svg="http://www.w3.org/2000/svg">
  <sodipodi:namedview
     id="namedview1"
     pagecolor="#ffffff"
     bordercolor="#000000"
     borderopacity="0.25"
     inkscape:showpageshadow="2"
     inkscape:pageopacity="0.0"
     inkscape:pagecheckerboard="0"
     inkscape:deskcolor="#d1d1d1"
     inkscape:document-units="mm"
     inkscape:zoom="2.0485264"
     inkscape:cx="83.962792"
     inkscape:cy="129.84943"
     inkscape:window-width="1050"
     inkscape:window-height="1081"
     inkscape:window-x="3737"
     inkscape:window-y="0"
     inkscape:window-maximized="0"
     inkscape:current-layer="layer1" />
  <defs
     id="defs1" />
  <g
     inkscape:label="Layer 1"
     inkscape:groupmode="layer"
     id="layer1"
     transform="translate(-114.0891,-77.774176)">
    <g
       id="g79"
       transform="translate(-37.028425,253.01564)">
      <path
         style="fill:#000000;stroke-width:0.1;stroke-dasharray:none"
         d="m 167.68545,-136.87007 c -6.268,-1.362 -11.69513,-6.3709 -13.6139,-12.5648 -0.51033,-1.6473 -0.61455,-2.5685 -0.61365,-5.4239 0.001,-3.0773 0.0794,-3.6679 0.74425,-5.6071 1.2719,-3.7097 3.8682,-7.1409 7.05988,-9.3301 5.98219,-4.1033 13.89392,-4.251 19.94508,-0.3724 5.26525,3.3748 8.20207,8.4095 8.54447,14.6481 0.18255,3.3262 -0.34236,5.7658 -1.93434,8.9901 -3.03648,6.15 -9.46047,10.088 -16.36875,10.0343 -1.16417,-0.01 -2.85754,-0.1774 -3.76304,-0.3742 z m 1.2495,-1.7353 c 0,-0.6537 -1.7038,-2.6815 -3.08262,-3.6689 -2.05744,-1.4733 -4.04885,-2.1764 -5.88895,-2.0793 l -1.47947,0.078 1.48598,1.4552 c 1.63931,1.6054 3.63207,2.8909 5.97467,3.8541 1.62401,0.6678 2.99039,0.8326 2.99039,0.3608 z m 7.78644,-0.2397 c 2.72294,-0.9368 6.8453,-3.6992 7.58614,-5.0835 0.2908,-0.5433 0.25978,-0.5518 -1.54354,-0.4228 -2.98145,0.2133 -6.06845,1.9064 -7.77751,4.2657 -1.34421,1.8557 -0.92467,2.1557 1.73491,1.2406 z m -4.34686,-8.7017 v -1.5516 l 1.15822,-0.4423 c 0.63703,-0.2433 1.36986,-0.6762 1.62851,-0.962 0.61612,-0.6808 1.03565,-0.6557 2.39937,0.1435 l 1.13155,0.6631 0.4106,-0.5862 c 0.46838,-0.6687 0.35968,-0.8335 -1.08417,-1.6434 l -0.99664,-0.559 -0.0179,-2.2167 -0.0179,-2.2167 1.25353,-0.7713 c 1.16487,-0.7167 1.2327,-0.817 0.95899,-1.4177 -0.36169,-0.7939 -0.36286,-0.7939 -1.66482,0.01 -1.28979,0.7944 -1.76153,0.8239 -2.37265,0.1487 -0.25865,-0.2859 -0.99148,-0.7187 -1.6285,-0.962 l -1.15822,-0.4424 v -1.5515 c 0,-1.5417 -0.005,-1.5516 -0.78055,-1.5516 -0.76448,0 -0.78217,0.031 -0.85989,1.5191 -0.073,1.3982 -0.14248,1.5479 -0.8731,1.8817 -0.43656,0.1995 -1.25133,0.6709 -1.81059,1.0476 l -1.01684,0.6849 -1.31672,-0.7402 c -0.7242,-0.4071 -1.35182,-0.6989 -1.39472,-0.6484 -0.0429,0.051 -0.21624,0.3576 -0.3852,0.6824 -0.28138,0.5409 -0.20259,0.6557 0.9367,1.3648 l 1.24392,0.7743 0.0196,2.1685 0.0196,2.1686 -1.19063,0.6809 c -0.65484,0.3744 -1.23652,0.7155 -1.29261,0.7578 -0.0561,0.042 0.0971,0.3808 0.34042,0.7521 l 0.4424,0.6752 1.13804,-0.6669 c 1.31571,-0.7711 1.68,-0.815 2.27697,-0.2748 0.23834,0.2157 0.96209,0.6712 1.60834,1.0122 1.15867,0.6114 1.17609,0.6409 1.25433,2.1214 0.0776,1.4682 0.0966,1.5013 0.8599,1.5013 0.77561,0 0.78055,-0.01 0.78055,-1.5515 z m -14.89786,-3.6078 c 0.90114,-2.5935 0.45867,-7.2449 -0.85438,-8.9817 -0.53176,-0.7033 -0.80729,-0.351 -1.33433,1.7063 -0.53658,2.0945 -0.39604,6.269 0.28453,8.4519 l 0.44931,1.4412 0.4976,-0.6474 c 0.27368,-0.3561 0.70445,-1.2427 0.95727,-1.9703 z m 30.49624,-0.7012 c 0.49263,-3.0359 0.28341,-6.1266 -0.55732,-8.2328 -0.3745,-0.9382 -0.74983,-0.6512 -1.57322,1.2032 -0.4993,1.1245 -0.61403,1.8472 -0.61822,3.8943 -0.006,2.6924 0.29761,4.082 1.21202,5.5562 l 0.57438,0.9261 0.34487,-0.8334 c 0.18967,-0.4584 0.46754,-1.5895 0.61749,-2.5136 z m -24.46972,-13.9525 c 1.9431,-0.8595 3.99555,-2.5213 4.79145,-3.8794 0.38753,-0.6613 0.63085,-1.2761 0.54072,-1.3662 -0.25776,-0.2578 -3.22738,0.6525 -4.92591,1.5099 -1.72098,0.8688 -4.5873,3.1448 -5.05066,4.0106 -0.29677,0.5546 -0.27283,0.5614 1.51814,0.4332 1.0302,-0.074 2.38654,-0.3809 3.12626,-0.7081 z m 20.49234,-0.06 c -1.34661,-1.8912 -6.53125,-4.9367 -8.84871,-5.1979 l -1.23701,-0.1395 0.42793,0.8276 c 1.48919,2.8797 5.46575,5.3131 8.70429,5.3263 l 1.53937,0.01 -0.58587,-0.8228 z"
         id="path6583-26-5-1-2"
         sodipodi:nodetypes="ssssssssssssssscssssssssccssscsscccsscsscssssscsssscccssscsssssccssssccsssscscssssssscscscscc" />
      <circle
         style="fill:none;stroke:#ff0000;stroke-width:0.1;stroke-dasharray:none"
         id="path788-8-1-8-1-9-2-6-3-4-7-1-6-19-6"
         cx="171.62202"
         cy="-154.73697"
         r="19.954653" />
      <circle
         style="fill:none;stroke:#0000ff;stroke-width:0.1;stroke-linecap:round;stroke-dasharray:none;stroke-opacity:1;paint-order:markers stroke fill"
         id="path13019-1-33-3-83-70-3-7-5-3-0"
         cx="171.62206"
         cy="-169.74794"
         r="2" />
    </g>
  </g>
</svg>
