<?xml version="1.0" encoding="UTF-8" standalone="no"?>
<!-- Created with Inkscape (http://www.inkscape.org/) -->

<svg
   width="41.008999mm"
   height="41.008999mm"
   viewBox="0 0 41.008999 41.009"
   version="1.1"
   id="svg1"
   inkscape:version="1.4.2 (f4327f4, 2025-05-13)"
   sodipodi:docname="207.svg"
   xmlns:inkscape="http://www.inkscape.org/namespaces/inkscape"
   xmlns:sodipodi="http://sodipodi.sourceforge.net/DTD/sodipodi-0.dtd"
   xmlns="http://www.w3.org/2000/svg"
   xmlns:svg="http://www.w3.org/2000/svg">
  <sodipodi:namedview
     id="namedview1"
     pagecolor="#ffffff"
     bordercolor="#000000"
     borderopacity="0.25"
     inkscape:showpageshadow="2"
     inkscape:pageopacity="0.0"
     inkscape:pagecheckerboard="0"
     inkscape:deskcolor="#d1d1d1"
     inkscape:document-units="mm"
     inkscape:zoom="2.0485264"
     inkscape:cx="83.962792"
     inkscape:cy="129.84943"
     inkscape:window-width="1050"
     inkscape:window-height="1081"
     inkscape:window-x="3737"
     inkscape:window-y="0"
     inkscape:window-maximized="0"
     inkscape:current-layer="layer1" />
  <defs
     id="defs1" />
  <g
     inkscape:label="Layer 1"
     inkscape:groupmode="layer"
     id="layer1"
     transform="translate(-114.0891,-77.774176)">
    <g
       id="g80"
       transform="translate(-79.228483,253.01564)">
      <circle
         style="fill:none;stroke:#ff0000;stroke-width:0.1;stroke-dasharray:none"
         id="path788-8-1-8-1-9-2-9-3-7-1-2-04-7-2-0"
         cx="213.82208"
         cy="-154.73697"
         r="19.954653" />
      <ellipse
         style="fill:none;stroke:#ff00ff;stroke-width:0.1;stroke-dasharray:none;stroke-opacity:1"
         id="path1138-9-4-0-0-1-2-25-0-9-29-6-3-1-6-4"
         cx="213.82208"
         cy="-154.73697"
         rx="18.492125"
         ry="18.492126" />
      <circle
         style="fill:none;stroke:#0000ff;stroke-width:0.1;stroke-linecap:round;stroke-dasharray:none;stroke-opacity:1;paint-order:markers stroke fill"
         id="path13019-1-33-5-7-7-4-6-7-8-5-7"
         cx="213.82208"
         cy="-169.74794"
         r="2" />
      <path
         style="fill:#000000;stroke-width:0.1;stroke-dasharray:none"
         d="m 212.25443,-138.40617 c -2.46358,-0.447 -4.3169,-1.3951 -5.99449,-3.0665 -2.13571,-2.1278 -3.15807,-4.6351 -3.16347,-7.7582 -0.005,-2.9009 0.89976,-5.0937 2.9922,-7.2519 l 1.32123,-1.3628 1.84973,-6e-4 c 2.13899,-5e-4 3.37091,-0.2747 5.31524,-1.1829 l 1.35154,-0.6312 1.21915,0.3703 c 3.93914,1.1965 7.00555,5.0525 7.37437,9.2733 0.20705,2.3695 -0.76284,5.6108 -2.25934,7.5504 -1.25196,1.6226 -3.2898,3.0419 -5.24702,3.6543 -1.11081,0.3476 -3.81092,0.5777 -4.75914,0.4057 z m 6.6825,-1.6511 c 0.96238,-0.491 2.85122,-2.2899 3.61921,-3.447 0.68078,-1.0256 1.39201,-2.7715 1.55076,-3.8067 0.0925,-0.6031 0.0663,-0.6478 -0.43796,-0.7486 -0.29499,-0.059 -0.71537,-0.1073 -0.93419,-0.1073 -0.48454,0 -0.60939,-0.385 -0.61268,-1.8894 l -0.003,-1.0966 0.79274,-0.3611 c 0.47344,-0.2158 0.79274,-0.4783 0.79274,-0.6519 0,-0.16 -0.29587,-0.8912 -0.6575,-1.6252 -1.15185,-2.3377 -3.33959,-4.1608 -6.16443,-5.1371 l -1.0174,-0.3516 -0.39637,0.4575 c -0.30722,0.3546 -0.39637,0.6747 -0.39637,1.4232 v 0.9658 l -1.86529,1.2057 -1.86528,1.2057 -1.06587,-0.5497 c -2.42304,-1.2497 -4.97783,-0.2213 -6.28267,2.529 -0.40888,0.8619 -0.45968,1.1831 -0.45968,2.9067 0,1.7978 0.0377,2.0123 0.52124,2.9676 0.61699,1.2188 1.89602,2.432 2.87243,2.7246 1.8621,0.5579 3.39761,0.057 4.86236,-1.588 l 0.93414,-1.0486 1.87897,1.1083 1.87897,1.1083 v 1.2615 c 0,1.2006 0.31449,2.5092 0.72066,2.9985 0.20548,0.2477 0.52122,0.165 1.73388,-0.4536 z m -0.76567,-0.3336 c -0.0515,-0.083 0.22788,-0.2776 0.62073,-0.4319 0.98256,-0.386 0.90258,-0.8918 -0.15311,-0.9683 l -0.74718,-0.054 0.004,-0.7386 c 0.002,-0.4062 0.15279,-1.0665 0.3348,-1.4673 0.33696,-0.7421 1.51742,-2.178 1.79054,-2.178 0.0827,0 0.33114,0.3188 0.55203,0.7085 0.28731,0.5068 0.50193,0.6949 0.75397,0.6606 0.3111,-0.042 0.34719,-0.164 0.3085,-1.0403 -0.0408,-0.9228 -0.0143,-0.9981 0.37836,-1.0732 0.23222,-0.045 0.6705,-0.045 0.97398,4e-4 0.46871,0.069 0.53434,0.1375 0.43595,0.4566 -0.68034,2.2063 -1.73638,3.9329 -3.1225,5.1053 -1.27669,1.0799 -1.90668,1.3817 -2.12995,1.0204 z m -3.36244,-4.7811 c -0.96891,-0.5797 -1.82712,-1.0765 -1.90716,-1.104 -0.08,-0.027 -0.015,-0.6939 0.14441,-1.4809 0.23211,-1.1455 0.2526,-1.6326 0.10275,-2.4432 -0.18551,-1.0035 -0.79498,-2.4541 -1.34339,-3.1973 -0.27914,-0.3783 -0.25522,-0.405 1.20681,-1.3482 2.29787,-1.4824 2.12883,-1.4402 2.49034,-0.6208 0.45209,1.0246 2.25267,2.872 3.31557,3.4017 0.4983,0.2483 1.3587,0.5449 1.91197,0.6593 1.13337,0.234 1.21337,0.3772 1.21337,2.172 v 0.9273 l -0.66062,0.1216 c -1.68716,0.3106 -3.56164,1.7093 -4.28031,3.1938 -0.2065,0.4266 -0.38819,0.7749 -0.40377,0.7741 -0.0156,-7e-4 -0.82107,-0.4758 -1.78997,-1.0554 z m -8.16663,0.3049 c -0.3707,-0.1782 -0.40664,-0.2906 -0.33416,-1.045 0.0581,-0.6052 0.008,-0.906 -0.17621,-1.059 -0.20693,-0.1717 -0.30431,-0.1495 -0.49628,0.113 -0.13136,0.1796 -0.26618,0.4087 -0.29961,0.509 -0.11493,0.3448 -0.44785,-0.058 -0.72818,-0.8805 -0.27488,-0.8067 -0.385,-3.1031 -0.17504,-3.6502 0.0794,-0.2068 0.18605,-0.2325 0.42818,-0.1029 0.40903,0.2189 0.95331,-0.2614 0.77751,-0.6862 -0.4006,-0.9678 -0.15832,-1.4175 1.06684,-1.9801 0.81236,-0.373 1.39427,-0.4104 2.17189,-0.1393 l 0.55091,0.1921 -0.38561,0.6699 c -0.32316,0.5616 -0.34828,0.715 -0.15512,0.9477 0.20738,0.2499 0.29266,0.2355 0.85083,-0.1438 0.3412,-0.2318 0.72252,-0.3823 0.84739,-0.3344 0.12487,0.048 0.41093,0.4977 0.63569,0.9994 0.31959,0.7135 0.40611,1.2112 0.39704,2.2843 -0.007,0.7547 -0.0839,1.4445 -0.17237,1.5329 -0.0969,0.097 -0.46741,0.023 -0.93289,-0.1849 -0.58684,-0.2628 -0.82987,-0.2978 -1.01275,-0.146 -0.37205,0.3087 -0.29246,0.5656 0.37596,1.2135 0.33911,0.3287 0.61657,0.7005 0.61657,0.8262 0,0.1257 -0.32899,0.4669 -0.73109,0.7582 -0.61346,0.4443 -0.8898,0.5276 -1.7176,0.5176 -0.54259,-0.01 -1.17344,-0.1017 -1.4019,-0.2115 z m 12.63548,-7.9695 c -0.80017,-0.4168 -1.91446,-1.3857 -1.91446,-1.6647 0,-0.078 0.23782,-0.2398 0.52849,-0.3601 0.98251,-0.407 0.59149,-0.9682 -0.63049,-0.905 -0.68635,0.035 -0.75347,0 -0.93528,-0.5236 -0.10773,-0.309 -0.19587,-0.7048 -0.19587,-0.8796 0,-0.5716 0.39782,-1.2152 0.75121,-1.2152 0.6648,0 2.79917,1.2931 3.79644,2.3001 1.20264,1.2143 2.34567,3.2086 2.0236,3.5307 -0.16342,0.1634 -0.29563,0.067 -0.58973,-0.4318 -0.49135,-0.8328 -0.87275,-0.8441 -0.87275,-0.026 0,0.5799 -0.0341,0.6161 -0.57253,0.6084 -0.3149,-0.01 -0.93978,-0.1995 -1.38863,-0.4333 z m -12.74077,-5.8312 c -0.57703,-0.1395 -1.11092,-0.3509 -1.18641,-0.4697 -0.20089,-0.3163 -0.17239,-1.9679 0.0491,-2.8477 l 0.1918,-0.7617 1.92302,0.023 c 1.63095,0.019 1.90765,0.063 1.82176,0.2873 -0.42194,1.1011 -0.13612,1.9661 0.76254,2.3078 0.62191,0.2365 1.21112,0.069 1.73028,-0.4909 0.54448,-0.5875 0.54231,-1.2985 -0.006,-1.9502 l -0.43135,-0.5126 1.18005,-0.4037 c 0.64903,-0.2221 1.46377,-0.5843 1.81054,-0.8047 l 0.63047,-0.4009 0.48344,0.6059 c 0.62882,0.788 1.19978,2.0895 1.12962,2.5748 -0.11608,0.8029 -2.57986,2.3219 -4.62864,2.8538 -1.30534,0.3388 -4.03737,0.3336 -5.46029,-0.011 z m 8.00576,-2.0929 c 0.127,-0.153 0.17009,-0.4505 0.10361,-0.7153 -0.0969,-0.3862 -0.19782,-0.4453 -0.68029,-0.3986 -0.43719,0.042 -0.57963,0.1474 -0.62406,0.4608 -0.10992,0.7753 0.7232,1.2285 1.20074,0.6531 z m -8.40007,-2.3059 c -0.11567,-0.053 -0.16665,-0.2111 -0.11327,-0.3501 0.0751,-0.1959 0.48489,-0.2529 1.81579,-0.2529 2.23385,0 3.31202,-0.2169 4.98863,-1.0036 1.21852,-0.5718 1.40158,-0.6143 1.63584,-0.3801 0.23426,0.2343 0.16937,0.3152 -0.57989,0.723 -1.42962,0.7781 -3.27892,1.2108 -5.5109,1.2896 -1.11424,0.039 -2.12053,0.028 -2.2362,-0.026 z m 1.70771,-2.1688 c 0.24222,-0.1979 0.63904,-0.4434 0.88181,-0.5456 0.39156,-0.1649 0.43724,-0.2799 0.40451,-1.0191 l -0.0369,-0.8332 0.1784,0.7487 c 0.0981,0.4118 0.253,0.7487 0.34419,0.7487 0.22199,0 0.21096,-0.2041 -0.0985,-1.8212 -0.14532,-0.7594 -0.2618,-1.5125 -0.25886,-1.6736 0.012,-0.6533 0.30259,0.2656 0.51669,1.6337 0.30377,1.9412 0.24159,1.8611 1.44501,1.8611 0.60578,0 1.00554,0.07 0.94671,0.1647 -0.21682,0.3509 -2.18283,0.9274 -3.44226,1.0095 l -1.32124,0.086 z"
         id="path6583-26-5-1-43"
         sodipodi:nodetypes="scscsscsccscsscssscssssccsssscsscccssssssccccssccssccssssssccsscsssssssssscssssssssssssssscssssscsssssscssssssssssssssscssccsssscsscsssscsscsssssssssssssscssscss" />
    </g>
  </g>
</svg>
