<?xml version="1.0" encoding="UTF-8" standalone="no"?>
<!-- Created with Inkscape (http://www.inkscape.org/) -->

<svg
   width="41.008999mm"
   height="41.008999mm"
   viewBox="0 0 41.008999 41.009"
   version="1.1"
   id="svg1"
   inkscape:version="1.4.2 (f4327f4, 2025-05-13)"
   sodipodi:docname="208.svg"
   xmlns:inkscape="http://www.inkscape.org/namespaces/inkscape"
   xmlns:sodipodi="http://sodipodi.sourceforge.net/DTD/sodipodi-0.dtd"
   xmlns="http://www.w3.org/2000/svg"
   xmlns:svg="http://www.w3.org/2000/svg">
  <sodipodi:namedview
     id="namedview1"
     pagecolor="#ffffff"
     bordercolor="#000000"
     borderopacity="0.25"
     inkscape:showpageshadow="2"
     inkscape:pageopacity="0.0"
     inkscape:pagecheckerboard="0"
     inkscape:deskcolor="#d1d1d1"
     inkscape:document-units="mm"
     inkscape:zoom="2.0485264"
     inkscape:cx="83.962792"
     inkscape:cy="129.84943"
     inkscape:window-width="1050"
     inkscape:window-height="1081"
     inkscape:window-x="3737"
     inkscape:window-y="0"
     inkscape:window-maximized="0"
     inkscape:current-layer="layer1" />
  <defs
     id="defs1" />
  <g
     inkscape:label="Layer 1"
     inkscape:groupmode="layer"
     id="layer1"
     transform="translate(-114.0891,-77.774176)">
    <g
       id="g81"
       transform="translate(-121.42795,252.85578)">
      <circle
         style="fill:none;stroke:#ff0000;stroke-width:0.1;stroke-dasharray:none"
         id="path788-8-1-8-1-9-2-2-9-1-0-0-4-6-7-5"
         cx="256.02155"
         cy="-154.5771"
         r="19.954653" />
      <ellipse
         style="fill:none;stroke:#ff00ff;stroke-width:0.1;stroke-dasharray:none;stroke-opacity:1"
         id="path1138-9-4-0-0-1-2-8-1-8-6-2-9-9-1-3"
         cx="256.02155"
         cy="-154.5771"
         rx="18.492125"
         ry="18.492126" />
      <circle
         style="fill:none;stroke:#0000ff;stroke-width:0.1;stroke-linecap:round;stroke-dasharray:none;stroke-opacity:1;paint-order:markers stroke fill"
         id="path13019-1-33-4-5-5-5-5-7-1-5-4"
         cx="256.02155"
         cy="-169.58807"
         r="2" />
      <path
         style="fill:#000000;stroke-width:0.1;stroke-dasharray:none"
         d="m 243.30261,-144.1043 c -0.64358,-0.124 -0.58369,-0.4434 0.42507,-2.2671 0.69419,-1.255 1.55243,-2.2786 3.98425,-4.752 1.70472,-1.7338 3.09948,-3.2282 3.09948,-3.3207 0,-0.2057 -0.54242,-0.05 -2.14537,0.6157 -0.67426,0.28 -1.40149,0.5048 -1.61607,0.4996 -0.21457,-0.01 -0.55936,0.081 -0.7662,0.1916 -0.78364,0.4194 -0.21787,-0.8788 0.74141,-1.7012 0.35658,-0.3057 3.77586,-1.4958 5.4576,-1.8996 0.47102,-0.1131 0.53304,-0.076 0.44343,0.2669 -0.12303,0.4705 0.54123,0.6604 2.3102,0.6604 1.19932,0 2.10521,-0.3247 2.97797,-1.0671 0.51531,-0.4384 0.54199,-0.5336 0.34719,-1.2391 -0.24585,-0.8904 -0.17163,-1.0608 0.64596,-1.4836 0.68344,-0.3534 1.00265,-0.2511 1.00265,0.3213 0,0.2142 0.27583,0.7035 0.61296,1.0876 0.42241,0.481 0.61265,0.912 0.61195,1.3862 l -7.7e-4,0.6882 -0.48563,-0.607 c -0.4307,-0.5383 -0.52498,-0.5743 -0.83357,-0.3182 -0.26621,0.221 -0.31997,0.4834 -0.22886,1.1178 0.0655,0.4559 0.0503,0.9289 -0.0337,1.0511 -0.0841,0.1221 -1.16425,0.8954 -2.40039,1.7183 -1.23615,0.8229 -3.28191,2.2625 -4.54615,3.1991 -2.12169,1.5717 -2.29861,1.7548 -2.29861,2.3783 0,0.627 -0.29384,1.1658 -0.63587,1.1658 -0.08,0 -0.20407,-0.3466 -0.27566,-0.7704 -0.0716,-0.4237 -0.21258,-0.9037 -0.31332,-1.0667 -0.34425,-0.5571 -0.39508,-0.086 -0.0974,0.9029 0.24131,0.8018 0.24951,1.0853 0.0435,1.5054 -0.45474,0.9276 -3.62499,2.388 -3.62499,1.6698 0,-0.116 0.13714,-0.5527 0.30474,-0.9706 l 0.30474,-0.7596 -0.50944,0.613 c -0.2802,0.3371 -0.56145,0.7738 -0.625,0.9705 -0.11484,0.3554 -0.75836,0.4286 -1.87581,0.2134 z m 8.56406,-5.49 c 0.82432,-0.6266 1.63667,-1.2181 1.80524,-1.3144 0.2681,-0.1532 0.25984,-0.26 -0.0659,-0.853 l -0.37245,-0.6778 0.4052,0.4598 c 0.22286,0.2528 0.47073,0.4597 0.55083,0.4597 0.35348,0 2.75152,-1.8905 2.75152,-2.1692 0,-0.1702 -0.0953,-0.4876 -0.21171,-0.7051 -0.20817,-0.389 -0.22613,-0.3884 -1.07269,0.039 -0.79772,0.4029 -3.5723,2.3749 -4.19938,2.9848 -0.22769,0.2214 -0.19341,0.3329 0.20432,0.6646 l 0.47792,0.3986 -0.65704,-0.24 c -0.62898,-0.2298 -0.6875,-0.2055 -1.37066,0.5683 -0.76187,0.8631 -0.88505,1.2229 -0.47523,1.3882 0.53005,0.2139 0.77022,0.1058 2.2301,-1.0038 z m -1.05526,2.073 c 0,-0.6637 1.17067,-1.6094 5.888,-4.7568 l 3.53831,-2.3608 -0.058,-0.9436 c -0.062,-1.0079 0.28092,-1.2856 0.72266,-0.5853 0.17719,0.2808 0.12228,0.5535 -0.2545,1.2637 -0.60719,1.1446 -0.86267,1.389 -2.42503,2.3197 -0.69972,0.4168 -2.48759,1.7232 -3.97303,2.9031 -3.7298,2.9628 -3.4384,2.7798 -3.4384,2.16 z m -8.98371,-0.7691 c -0.0181,-0.3971 0.91581,-1.6111 1.58387,-2.0587 0.41766,-0.2798 1.2934,-0.9796 1.94611,-1.555 0.65271,-0.5754 1.32696,-1.0463 1.49835,-1.0463 0.44559,0 0.23091,0.4667 -0.3487,0.7581 -0.91188,0.4583 -2.81776,2.2002 -3.02698,2.7665 -0.20144,0.5452 -0.6375,0.782 -0.6375,0.3461 0,-0.1186 -0.22695,0.043 -0.50434,0.3576 -0.27739,0.3153 -0.50726,0.5096 -0.51081,0.4317 z m 19.5178,-4.0927 c -0.17494,-0.2497 -0.31807,-0.5361 -0.31807,-0.6365 0,-0.1692 2.24343,0.01 2.43358,0.1896 0.0461,0.045 -0.0831,0.2657 -0.28707,0.4911 -0.50115,0.5538 -1.42525,0.5314 -1.82844,-0.044 z m 7.65046,-1.0931 c -0.73045,-0.15 -1.67288,-0.2769 -2.09429,-0.2822 -0.42141,-0.01 -0.76621,-0.08 -0.76621,-0.1664 0,-0.2369 1.0151,-1.682 1.18151,-1.682 0.28536,0 3.42012,1.0797 3.64253,1.2545 0.33719,0.2651 0.0962,1.2021 -0.30171,1.173 -0.18356,-0.013 -0.93139,-0.147 -1.66183,-0.2969 z m -8.78581,-0.018 c 0,-0.074 0.37605,-0.6328 0.83567,-1.2416 0.48863,-0.6472 0.85838,-1.3761 0.89035,-1.7553 0.0805,-0.9541 0.0809,-0.9549 0.49062,-0.9549 0.36683,0 3.99442,1.4435 4.23688,1.686 0.0664,0.066 -0.12009,0.5318 -0.41449,1.0342 -0.57644,0.9836 -1.73951,1.699 -1.91352,1.177 -0.23595,-0.7079 -1.21947,-1.5135 -1.84767,-1.5135 -0.68366,0 -1.56511,0.6578 -1.7773,1.3263 -0.11161,0.3517 -0.50054,0.5395 -0.50054,0.2418 z m 0.95878,-0.1536 c 0.54957,-0.9786 1.38171,-1.2166 1.9722,-0.5641 0.58456,0.6459 0.40363,0.8101 -0.87951,0.798 -0.81573,-0.01 -1.17641,-0.085 -1.09269,-0.2339 z m -7.38117,-2.9588 c -0.1702,-0.2754 0.65511,-2.0039 1.02446,-2.1456 0.45603,-0.175 1.77388,-0.1486 2.07318,0.042 0.32611,0.2071 -0.38795,1.2428 -1.27685,1.8518 -0.64827,0.4442 -1.61903,0.5788 -1.82079,0.2523 z m 2.74461,-0.1914 c 0,-0.1956 1.29206,-1.4653 1.49105,-1.4653 0.24738,0 0.15626,0.7567 -0.11858,0.9847 -0.38528,0.3198 -1.37247,0.6654 -1.37247,0.4806 z m -15.93705,-1.245 c 0,-0.1079 0.1,-0.258 0.22213,-0.3335 0.12216,-0.076 0.17674,-0.3107 0.12128,-0.5229 -0.0814,-0.3112 0.0114,-0.3855 0.48138,-0.3855 0.40942,0 0.9781,-0.3359 1.91623,-1.1318 0.7337,-0.6224 1.40553,-1.248 1.49295,-1.3901 0.27621,-0.4492 2.13605,-1.5876 2.48279,-1.5198 0.20008,0.039 0.33232,0.2667 0.33232,0.5718 0,0.4489 0.19799,0.5806 1.73318,1.1528 l 1.73318,0.646 -0.0666,0.7844 c -0.0366,0.4315 -0.094,0.8129 -0.12756,0.8475 -0.0335,0.035 -1.07582,-0.3627 -2.31616,-0.8831 -3.04255,-1.2763 -3.51451,-1.2155 -5.5002,0.7081 -1.29474,1.2544 -2.50494,1.9578 -2.50494,1.4561 z m 11.54414,-0.4645 c -0.53228,-0.3018 -0.70815,-0.5767 -0.71199,-1.1126 -0.003,-0.4305 0.0137,-0.4325 1.06955,-0.13 1.4196,0.4068 1.59867,0.6026 0.99898,1.0927 -0.55084,0.45 -0.7822,0.4756 -1.35654,0.1499 z m 8.90928,0.057 c -0.47448,-0.3004 -0.10596,-0.7675 0.86716,-1.0991 0.78676,-0.2681 0.93625,-0.2716 1.03105,-0.025 0.13102,0.3414 -0.0627,0.9422 -0.37221,1.1541 -0.30119,0.2063 -1.17987,0.1888 -1.526,-0.03 z m 2.22622,-1.1231 c 0,-0.9874 -1.01484,-1.8426 -1.99741,-1.6831 -0.62728,0.1017 -0.66653,0.08 -0.41995,-0.2331 0.14959,-0.19 0.72174,-0.7898 1.27143,-1.3329 1.04807,-1.0355 1.39955,-1.1086 2.26964,-0.4722 0.35608,0.2604 0.37863,0.3782 0.17546,0.9165 -0.26668,0.7065 -0.19108,0.8456 0.45956,0.8456 0.6001,0 0.75551,0.2724 0.58869,1.0319 -0.10365,0.4719 -0.36473,0.7299 -1.13211,1.1188 -0.54857,0.278 -1.04643,0.5055 -1.10635,0.5055 -0.0599,0 -0.10896,-0.3136 -0.10896,-0.697 z m -8.78893,-0.4201 c -0.002,-0.3408 -0.0707,-0.7209 -0.15324,-0.8445 -0.24449,-0.3661 -1.00146,-0.6942 -1.61801,-0.7011 -0.55914,-0.01 -0.56383,-0.015 -0.16667,-0.322 0.22475,-0.1735 0.79283,-0.5432 1.2624,-0.8216 0.71594,-0.4245 0.91833,-0.4659 1.25377,-0.2564 0.34114,0.2131 0.54393,0.1545 1.37773,-0.3978 1.07229,-0.7102 1.31761,-0.7688 1.68406,-0.4024 0.5071,0.5071 0.27852,1.329 -0.5721,2.0571 -0.93424,0.7997 -1.07813,1.281 -0.32658,1.0923 0.5559,-0.1395 2.36978,0.065 2.36978,0.2669 0,0.073 -0.29882,0.3132 -0.66404,0.5339 -0.53006,0.3205 -1.04536,0.4028 -2.55401,0.4084 l -1.88996,0.01 -0.003,-0.6197 z m 6.02947,0.298 c -0.2286,-0.3699 0.1266,-1.0389 0.65915,-1.2413 0.39114,-0.1487 0.64444,-0.1171 1.01682,0.1269 0.62603,0.4102 0.51323,0.7899 -0.26035,0.8765 -0.32846,0.037 -0.68456,0.1517 -0.79131,0.2554 -0.25222,0.245 -0.46571,0.2391 -0.62431,-0.018 z m -7.41327,-0.3178 c -0.25094,-0.1758 -0.61619,-0.2698 -0.81167,-0.209 -0.48718,0.1516 -0.95244,-0.178 -0.80258,-0.5685 0.35267,-0.919 2.59253,-0.4154 2.59253,0.583 0,0.5893 -0.32286,0.6536 -0.97828,0.1945 z m 17.1382,-0.6117 c -0.21599,-0.7315 -0.34609,-0.9012 -0.60649,-0.7908 -1.64829,0.699 -3.52814,1.3519 -3.62209,1.2579 -0.0636,-0.063 0.036,-0.4351 0.22127,-0.8256 0.28817,-0.6073 0.56291,-0.795 1.89925,-1.298 1.26358,-0.4755 1.58521,-0.6848 1.6819,-1.0944 0.0871,-0.369 0.25564,-0.5064 0.62115,-0.5064 0.46826,0 0.50159,0.07 0.50159,1.0624 0,0.5844 0.11493,1.1775 0.25539,1.3179 0.14047,0.1405 0.2554,0.6048 0.2554,1.0318 0,0.6722 -0.0626,0.7764 -0.4662,0.7764 -0.37697,0 -0.51882,-0.1782 -0.74117,-0.9312 z"
         id="path6583-26-5-1-3"
         sodipodi:nodetypes="ssssssscssssssssssccsssssssssssssscssssssscssssssscsssscsscssssssssssssssssssssssscssssssssssssssssssssssssssssssssssssssscsssssssssssssssssssssssssscssscsssssssssscssssssssssssssssssssss" />
    </g>
  </g>
</svg>
