<?xml version="1.0" encoding="UTF-8" standalone="no"?>
<!-- Created with Inkscape (http://www.inkscape.org/) -->

<svg
   width="41.008999mm"
   height="41.008999mm"
   viewBox="0 0 41.008999 41.009"
   version="1.1"
   id="svg1"
   inkscape:version="1.4.2 (f4327f4, 2025-05-13)"
   sodipodi:docname="211.svg"
   xmlns:inkscape="http://www.inkscape.org/namespaces/inkscape"
   xmlns:sodipodi="http://sodipodi.sourceforge.net/DTD/sodipodi-0.dtd"
   xmlns="http://www.w3.org/2000/svg"
   xmlns:svg="http://www.w3.org/2000/svg">
  <sodipodi:namedview
     id="namedview1"
     pagecolor="#ffffff"
     bordercolor="#000000"
     borderopacity="0.25"
     inkscape:showpageshadow="2"
     inkscape:pageopacity="0.0"
     inkscape:pagecheckerboard="0"
     inkscape:deskcolor="#d1d1d1"
     inkscape:document-units="mm"
     inkscape:zoom="2.0485264"
     inkscape:cx="83.962792"
     inkscape:cy="129.84943"
     inkscape:window-width="1050"
     inkscape:window-height="1081"
     inkscape:window-x="3737"
     inkscape:window-y="0"
     inkscape:window-maximized="0"
     inkscape:current-layer="layer1" />
  <defs
     id="defs1" />
  <g
     inkscape:label="Layer 1"
     inkscape:groupmode="layer"
     id="layer1"
     transform="translate(-114.0891,-77.774176)">
    <g
       id="g77"
       transform="translate(-37.028395,203.19217)">
      <circle
         style="fill:none;stroke:#ff0000;stroke-width:0.1;stroke-dasharray:none"
         id="path788-8-1-8-1-9-2-6-3-4-7-1-6-19-5"
         cx="171.62199"
         cy="-104.9135"
         r="19.954653" />
      <ellipse
         style="fill:none;stroke:#ff00ff;stroke-width:0.1;stroke-dasharray:none;stroke-opacity:1"
         id="path1138-9-4-0-0-1-2-0-0-6-8-8-1-4-9"
         cx="171.62199"
         cy="-104.9135"
         rx="18.492125"
         ry="18.492126" />
      <circle
         style="fill:none;stroke:#0000ff;stroke-width:0.1;stroke-linecap:round;stroke-dasharray:none;stroke-opacity:1;paint-order:markers stroke fill"
         id="path13019-1-33-3-83-70-3-7-5-3-08"
         cx="171.62199"
         cy="-119.92449"
         r="2" />
      <path
         style="fill:#000000;stroke-width:0.1;stroke-dasharray:none"
         d="m 163.10677,-92.0293 c -0.22412,-0.224 -0.15865,-1.1613 0.0991,-1.4191 0.14831,-0.1484 0.88357,-0.2376 1.9561,-0.2376 1.90503,0 2.23689,0.1757 2.12785,1.1266 l -0.0639,0.5566 -1.99037,0.056 c -1.0947,0.031 -2.05271,-0.01 -2.12888,-0.082 z m 10.39516,-0.709 0.0612,-0.8487 h 1.98035 1.98036 v 0.7921 0.7921 l -2.0416,0.057 -2.04159,0.057 z m 6.03533,0.7025 c -0.21881,-0.2187 -0.14856,-1.1584 0.10562,-1.4126 0.24811,-0.2481 3.22587,-0.34 3.80588,-0.1174 0.21141,0.082 0.31325,0.3708 0.31325,0.8912 v 0.7709 h -2.04636 c -1.1255,0 -2.10578,-0.059 -2.17839,-0.1321 z m -8.80154,-1.5623 c -0.58611,-0.4106 -0.56116,-0.6362 0.26201,-2.3709 0.58264,-1.2278 0.78212,-1.4797 1.17202,-1.4797 0.67321,0 1.09636,0.1982 1.09636,0.5135 0,0.4421 -1.65323,3.6454 -1.8814,3.6454 -0.11487,0 -0.40692,-0.1388 -0.64899,-0.3083 z m -6.48005,-1.4248 c 0.60006,-1.4685 1.4782,-4.3808 1.44646,-4.7973 -0.0214,-0.2807 0.15524,-0.7754 0.3925,-1.0994 0.58001,-0.7919 1.23038,-2.749 1.23038,-3.7025 0,-0.4258 0.0963,-0.9541 0.21398,-1.174 0.47339,-0.8845 1.13042,-0.9604 8.31831,-0.9604 h 6.76266 l -0.12506,0.4456 c -0.80788,2.8785 -0.93854,3.6176 -0.82538,4.6699 0.0664,0.6175 0.15193,1.6574 0.19006,2.3109 0.0381,0.6535 0.21442,1.84 0.39176,2.6369 0.46978,2.1108 0.51364,2.0169 -0.94238,2.0169 h -1.26481 l -0.23821,-1.3367 c -0.13102,-0.7352 -0.4623,-1.8103 -0.73621,-2.3889 -0.36339,-0.7678 -0.46336,-1.2227 -0.36988,-1.6833 0.0705,-0.3471 0.17833,-1.1739 0.23974,-1.8371 0.11162,-1.2059 0.11154,-1.206 -0.64096,-1.8263 -1.02251,-0.8429 -2.25497,-1.2256 -3.94699,-1.2256 -2.96522,0 -5.19416,1.9389 -5.3502,4.6539 -0.0251,0.4356 -0.1058,1.0195 -0.17947,1.2975 -0.12131,0.4578 -0.0396,0.5494 0.86787,0.9745 0.55098,0.2581 1.00179,0.546 1.00179,0.6399 0,0.241 -0.97524,2.138 -1.09912,2.138 -0.0563,0 -0.54193,-0.2227 -1.07928,-0.495 -0.53736,-0.2724 -1.01042,-0.4951 -1.05126,-0.4951 -0.0408,0 -0.18106,0.3564 -0.31159,0.792 l -0.23733,0.7922 h -1.39949 c -1.25478,0 -1.38485,-0.036 -1.25789,-0.3466 z m 3.47843,-4.0171 c 0.45431,-0.2432 0.50502,-1.0315 0.0886,-1.3772 -0.16889,-0.1401 -0.50671,-0.1912 -0.79214,-0.1195 -0.38993,0.098 -0.49766,0.2506 -0.49766,0.7055 0,0.3438 0.14123,0.6627 0.34656,0.7823 0.43481,0.2532 0.39878,0.2528 0.85467,0.01 z m 13.30186,-0.2674 c 0.38931,-0.5909 -0.0167,-1.3099 -0.73961,-1.3099 -0.84482,0 -1.14939,0.7726 -0.56087,1.4229 0.34286,0.3789 1.01495,0.3205 1.30048,-0.113 z m -11.25648,-5.3202 c 0.29688,-0.4742 -0.0651,-1.0215 -0.7283,-1.101 -0.65861,-0.079 -1.05559,0.5533 -0.72964,1.1624 0.26497,0.4951 1.13237,0.4585 1.45794,-0.061 z m 11.28803,0 c 0.28194,-0.4503 -0.0525,-1.0152 -0.65375,-1.1044 -0.82395,-0.1222 -1.32954,0.7537 -0.76241,1.3208 0.33375,0.3338 1.14975,0.2091 1.41616,-0.2164 z m -6.7046,7.005 0.007,-2.946 0.63477,-0.723 c 0.34912,-0.3977 0.8245,-1.0993 1.05641,-1.5592 0.23188,-0.4599 0.44674,-0.8648 0.47746,-0.8999 0.0306,-0.035 0.36924,0.1419 0.75231,0.3929 0.85196,0.5585 1.04158,1.3009 0.64808,2.5372 -0.67074,2.1076 -0.9108,3.1639 -0.9108,4.0081 0,0.4941 -0.0556,1.177 -0.12378,1.5173 -0.12246,0.6123 -0.13659,0.6189 -1.33674,0.6187 l -1.21297,-2e-4 0.007,-2.9459 z m 2.15662,-1.5236 c 0.61004,-0.61 0.25147,-1.4711 -0.6126,-1.4711 -1.09407,0 -0.93922,1.6379 0.16702,1.7666 0.0739,0.01 0.27443,-0.1243 0.44558,-0.2955 z m -13.25426,1.1172 c -1.11808,-0.1899 -1.60981,-0.5084 -1.8502,-1.198 -0.32517,-0.9328 0.0343,-1.6805 1.03387,-2.1503 0.46134,-0.2169 1.49161,-0.9398 2.28948,-1.6063 0.79788,-0.6667 1.49487,-1.1679 1.54886,-1.1139 0.15427,0.1543 -0.5438,2.1278 -0.9587,2.7106 -0.2059,0.2891 -0.46885,1.0038 -0.58435,1.5882 -0.36674,1.8559 -0.39442,1.9544 -0.54205,1.929 -0.0796,-0.014 -0.50122,-0.085 -0.93691,-0.1593 z m 0.11204,-1.011 c 0.24563,-0.1315 0.38306,-0.4143 0.38306,-0.7885 0,-0.4577 -0.10704,-0.6101 -0.49767,-0.7082 -0.28543,-0.072 -0.62324,-0.021 -0.79214,0.1195 -0.40142,0.3332 -0.37141,1.1216 0.0521,1.3683 0.4348,0.2532 0.39879,0.2528 0.85467,0.01 z m -8.00046,-7.8489 c -0.29071,-0.2907 -0.0945,-0.4634 0.66451,-0.5848 0.43809,-0.07 0.83993,-0.1976 0.89298,-0.2833 0.17983,-0.291 -0.52637,-0.782 -1.15907,-0.8059 -0.59216,-0.022 -0.57958,-0.036 0.2122,-0.2262 0.59941,-0.1442 0.84165,-0.3039 0.84165,-0.5551 0,-0.5685 0.92029,-1.5011 2.02389,-2.051 0.83781,-0.4175 1.30591,-0.5106 2.56981,-0.5106 h 1.54541 v 2.1784 c 0,2.1533 -0.006,2.1784 -0.46439,2.1784 -0.25543,0 -0.62571,0.1783 -0.82285,0.3961 -0.32743,0.3618 -0.60994,0.3961 -3.26527,0.3961 -1.59877,0 -2.96626,-0.059 -3.03887,-0.1321 z m 5.16543,-1.6 c 0.64948,-0.8501 0.0338,-2.0306 -1.05915,-2.0306 -1.21942,0 -1.69601,1.4167 -0.73174,2.1752 0.59773,0.4703 1.36888,0.4079 1.79089,-0.1446 z m -1.72936,-0.3432 c -0.42241,-0.509 0.052,-1.3347 0.72089,-1.2548 0.6733,0.081 1.0388,0.6249 0.73994,1.1021 -0.28658,0.4578 -1.13417,0.5463 -1.46083,0.1527 z m 8.55584,-1.3304 0.0553,-2.6182 1.58428,-0.6485 c 0.92697,-0.3794 1.80908,-0.8964 2.1261,-1.2458 l 0.54181,-0.5974 h 2.97896 2.97894 l 0.638,0.6126 c 0.42933,0.4123 1.2531,0.8178 2.51882,1.2404 l 1.88085,0.6279 0.15242,1.1854 c 0.0838,0.6521 0.12862,1.8094 0.0995,2.5719 l -0.053,1.3863 -7.77867,0.052 -7.77867,0.052 z m -3.41036,0.4351 c 0,-1.6185 0.0369,-1.8042 0.34657,-1.7446 0.29753,0.057 0.34656,0.3041 0.34656,1.7446 0,1.4406 -0.0491,1.6873 -0.34656,1.7446 -0.30967,0.06 -0.34657,-0.1261 -0.34657,-1.7446 z m 1.66778,1.5162 c -0.0561,-0.1463 -0.0756,-0.9251 -0.0432,-1.7306 0.0486,-1.2096 0.11916,-1.4762 0.40538,-1.5307 0.30945,-0.059 0.34656,0.1262 0.34656,1.7307 0,1.4815 -0.0532,1.7967 -0.30327,1.7967 -0.1668,0 -0.34922,-0.1197 -0.40538,-0.2661 z"
         id="path6583-26-5-1-3-5"
         sodipodi:nodetypes="csssscsccccccccccssssscscsssscssssssscssssscsssssssssssssscsssssssssssssssscsscsccsssssssscsssssssssssssssssssssssssssssssscssssssssssscsccsscccsscssssscsssssssss" />
    </g>
  </g>
</svg>
