<?xml version="1.0" encoding="UTF-8" standalone="no"?>
<!-- Created with Inkscape (http://www.inkscape.org/) -->

<svg
   width="41.008999mm"
   height="41.008999mm"
   viewBox="0 0 41.008999 41.009"
   version="1.1"
   id="svg1"
   inkscape:version="1.4.2 (f4327f4, 2025-05-13)"
   sodipodi:docname="212.svg"
   xmlns:inkscape="http://www.inkscape.org/namespaces/inkscape"
   xmlns:sodipodi="http://sodipodi.sourceforge.net/DTD/sodipodi-0.dtd"
   xmlns="http://www.w3.org/2000/svg"
   xmlns:svg="http://www.w3.org/2000/svg">
  <sodipodi:namedview
     id="namedview1"
     pagecolor="#ffffff"
     bordercolor="#000000"
     borderopacity="0.25"
     inkscape:showpageshadow="2"
     inkscape:pageopacity="0.0"
     inkscape:pagecheckerboard="0"
     inkscape:deskcolor="#d1d1d1"
     inkscape:document-units="mm"
     inkscape:zoom="2.0485264"
     inkscape:cx="83.962792"
     inkscape:cy="129.84943"
     inkscape:window-width="1050"
     inkscape:window-height="1081"
     inkscape:window-x="3737"
     inkscape:window-y="0"
     inkscape:window-maximized="0"
     inkscape:current-layer="layer1" />
  <defs
     id="defs1" />
  <g
     inkscape:label="Layer 1"
     inkscape:groupmode="layer"
     id="layer1"
     transform="translate(-114.0891,-77.774176)">
    <g
       id="g83"
       transform="translate(-79.228422,203.13977)">
      <circle
         style="fill:none;stroke:#ff0000;stroke-width:0.1;stroke-dasharray:none"
         id="path788-8-1-8-1-9-2-9-3-7-1-2-04-7-2-5"
         cx="213.82202"
         cy="-104.8611"
         r="19.954653" />
      <ellipse
         style="fill:none;stroke:#ff00ff;stroke-width:0.1;stroke-dasharray:none;stroke-opacity:1"
         id="path1138-9-4-0-0-1-2-25-0-9-29-6-3-1-6-9"
         cx="213.82202"
         cy="-104.8611"
         rx="18.492125"
         ry="18.492126" />
      <circle
         style="fill:none;stroke:#0000ff;stroke-width:0.1;stroke-linecap:round;stroke-dasharray:none;stroke-opacity:1;paint-order:markers stroke fill"
         id="path13019-1-33-5-7-7-4-6-7-8-5-6"
         cx="213.82202"
         cy="-119.87209"
         r="2" />
      <path
         style="fill:#000000;stroke-width:0.1;stroke-dasharray:none"
         d="m 212.15071,-93.6785 c -1.26718,-0.2674 -2.17871,-0.8147 -2.80231,-1.6827 -0.32061,-0.4463 -1.04339,-1.3037 -1.60619,-1.9053 -0.56278,-0.6016 -1.1815,-1.3993 -1.37491,-1.7726 -0.43307,-0.8359 -0.87558,-2.5021 -0.87906,-3.3099 -10e-4,-0.3314 -0.0589,-0.6852 -0.12764,-0.7862 -0.0711,-0.1046 -0.63873,-0.1779 -1.31637,-0.1702 -1.39948,0.016 -2.11798,-0.2281 -4.68026,-1.5898 l -1.787,-0.9495 5.02063,-0.085 5.02063,-0.085 -1.10625,-0.3629 c -0.60842,-0.1996 -1.08746,-0.4292 -1.06449,-0.5105 0.10608,-0.3752 2.19403,-3.1208 2.37514,-3.1232 0.11243,0 0.48691,0.5141 0.83219,1.146 0.34527,0.6318 0.82769,1.4934 1.07202,1.9146 0.43857,0.7561 0.44495,0.7597 0.4995,0.2834 0.0701,-0.6123 -0.33064,-1.6164 -1.11927,-2.8045 l -0.61789,-0.9309 0.50058,-0.4005 c 0.27531,-0.2203 0.56557,-0.4009 0.64503,-0.4015 0.26066,0 1.15146,1.07 1.54758,1.8614 0.21355,0.4267 0.51969,1.1971 0.6803,1.7119 0.47668,1.5279 0.45318,1.49 0.63367,1.0211 0.0901,-0.234 0.11381,-0.6926 0.0527,-1.019 -0.14418,-0.7708 -0.96586,-2.4197 -1.61294,-3.2367 -0.28037,-0.354 -0.50978,-0.7184 -0.50978,-0.8098 0,-0.337 1.64058,-0.6359 3.48891,-0.6357 1.83315,2e-4 3.14853,0.2596 3.14853,0.6206 0,0.093 -0.23207,0.5061 -0.51571,0.9184 -0.83546,1.2143 -1.52629,2.8246 -1.52644,3.5581 -1.8e-4,0.8795 0.16196,0.6822 0.93867,-1.142 0.34912,-0.82 0.91864,-1.8108 1.2656,-2.2017 l 0.63085,-0.7109 0.62466,0.386 c 0.34356,0.2123 0.62466,0.4235 0.62466,0.4692 0,0.045 -0.23494,0.4246 -0.52207,0.8419 -0.58936,0.8567 -1.28865,2.3588 -1.37656,2.957 -0.1374,0.9349 0.35942,0.3828 1.37343,-1.5261 0.59696,-1.1238 1.13166,-2.0421 1.18823,-2.0407 0.15632,0.01 2.47382,3.1571 2.44577,3.3276 -0.0135,0.082 -0.46481,0.2709 -1.00296,0.42 -1.99322,0.552 -1.39798,0.6667 3.7099,0.7147 l 4.82119,0.045 -1.36153,0.7891 c -1.49583,0.8671 -2.49292,1.2273 -4.16968,1.5059 -2.21308,0.3678 -2.04229,0.2665 -2.04229,1.2116 0,1.8734 -1.18719,3.9832 -3.7132,6.5989 -1.1126,1.1521 -1.64578,1.5774 -2.15837,1.7216 -0.93898,0.2643 -3.24929,0.3583 -4.14726,0.1688 z m 1.63237,-3.1923 3.24151,-0.046 0.11242,0.5991 c 0.1779,0.9483 0.60757,0.662 0.60757,-0.4049 0,-1.0824 -0.51135,-2.2148 -1.42051,-3.1461 -0.81335,-0.8332 -1.49838,-2.1778 -1.24071,-2.4355 0.13049,-0.1304 1.46989,0.1295 1.46989,0.2853 0,0.075 -0.20989,0.1894 -0.46643,0.2539 l -0.46643,0.117 0.66603,0.402 c 1.20512,0.7273 2.74027,0.6989 3.68756,-0.068 l 0.38953,-0.3154 -0.50107,-0.2663 -0.50105,-0.2663 0.72708,-0.1191 c 0.88101,-0.1446 0.96704,-0.2607 0.72844,-0.9837 -0.26707,-0.8091 -1.15412,-1.5885 -2.06755,-1.8163 -1.19966,-0.2991 -2.08956,0.01 -3.12138,1.0718 -0.46208,0.4771 -0.86692,0.7871 -0.89964,0.6889 -0.12884,-0.3865 -0.53693,-0.8147 -0.65954,-0.6921 -0.0713,0.072 0.006,0.722 0.17229,1.4463 0.16605,0.7242 0.34129,1.4891 0.38943,1.6996 0.082,0.3586 0.0322,0.383 -0.78188,0.383 -0.47817,0 -0.8694,-0.074 -0.8694,-0.1635 0,-0.09 0.15317,-0.8206 0.34037,-1.6235 0.40147,-1.7217 0.40594,-1.787 0.12242,-1.787 -0.11989,0 -0.30333,0.2261 -0.40765,0.5025 l -0.18968,0.5025 -0.91132,-0.9105 c -1.82808,-1.8262 -3.97501,-1.6111 -4.93131,0.4941 -0.41521,0.9141 -0.3988,1.1134 0.0917,1.1134 0.22636,0 0.54203,0.05 0.70151,0.1112 0.25761,0.099 0.24667,0.1439 -0.0981,0.4039 l -0.388,0.2927 0.44891,0.2941 c 0.66814,0.4378 1.71349,0.6249 2.50154,0.4479 1.14503,-0.2573 2.04643,-1.0393 1.19794,-1.0393 -0.18169,0 -0.37464,-0.072 -0.42877,-0.1594 -0.0975,-0.1577 1.3848,-0.463 1.53233,-0.3155 0.0422,0.042 -0.0435,0.4298 -0.19056,0.8612 -0.18169,0.5333 -0.50157,0.9764 -0.99887,1.384 -0.40238,0.3297 -0.88529,0.9278 -1.07314,1.3292 -0.46593,0.9954 -0.65452,2.4446 -0.36374,2.795 0.19524,0.2353 0.24606,0.1981 0.41463,-0.3029 l 0.19211,-0.571 z m -2.84613,-1.1535 c 0,-0.6141 0.41467,-1.34 0.88878,-1.5559 0.39749,-0.1812 3.26767,-0.1608 3.8605,0.027 0.32814,0.1041 1.03721,1.2579 1.03721,1.6876 0,0.242 -0.34422,0.2748 -2.89325,0.2748 h -2.89324 z m 4.96677,-5.3041 c 0.12912,-0.6704 1.85175,-1.4023 2.76264,-1.1736 0.42839,0.1075 1.46089,1.0322 1.46089,1.3084 0,0.088 -0.94563,0.157 -2.13986,0.157 -1.92964,0 -2.13434,-0.029 -2.08367,-0.2918 z m -8.02179,-0.4008 c 0.39491,-0.5546 0.94289,-0.8391 1.61604,-0.8391 0.65913,0 1.73642,0.5048 2.02845,0.9505 l 0.26933,0.411 h -2.1429 -2.1429 z m 0.50216,5.2597 c 0,-0.098 -0.24012,-0.4814 -0.5336,-0.8519 -0.76812,-0.9698 -1.04507,-0.5842 -0.31277,0.4355 0.50723,0.7063 0.84637,0.8731 0.84637,0.4164 z m -5.02067,-1.4833 c -0.46801,-0.169 -1.09397,-0.4332 -1.391,-0.5871 -1.41841,-0.7353 -6.07462,-5.0575 -5.16134,-4.7912 0.23402,0.069 1.4594,0.6455 2.72306,1.2827 2.34349,1.1817 3.78347,1.6075 4.76929,1.4103 0.45701,-0.092 0.50662,-0.058 0.50662,0.3366 0,0.4082 -0.0605,0.4413 -0.8935,0.4892 l -0.8935,0.052 1.02115,0.5106 c 0.9007,0.4504 1.02743,0.5759 1.07447,1.0637 0.0489,0.5068 0.0132,0.5525 -0.42548,0.5471 -0.26335,0 -0.86174,-0.1445 -1.32977,-0.3134 z m 19.08701,0.07 c -0.17629,-0.4593 0.2034,-0.9489 1.0141,-1.3076 0.85349,-0.3775 0.84137,-0.655 -0.0286,-0.655 -0.50963,0 -0.58562,-0.054 -0.58562,-0.4212 0,-0.373 0.0559,-0.41 0.48798,-0.3236 0.88947,0.1778 2.46276,-0.3036 4.78793,-1.4655 3.25933,-1.6286 3.38294,-1.6398 1.9572,-0.1768 -2.48484,2.5497 -5.05133,4.2519 -6.82517,4.5268 -0.56144,0.087 -0.71974,0.053 -0.80779,-0.1771 z"
         id="path6583-26-5-1-3-9"
         sodipodi:nodetypes="sssssscssscccsscsssscscssscsscssssscssssscssscsssssssccsssssscsscccsssssscsssssscssscscssssssssssscsssssssssscssssccssssssssssssscsssssssssss" />
    </g>
  </g>
</svg>
