<?xml version="1.0" encoding="UTF-8" standalone="no"?>
<!-- Created with Inkscape (http://www.inkscape.org/) -->

<svg
   width="41.008999mm"
   height="41.008999mm"
   viewBox="0 0 41.008999 41.009"
   version="1.1"
   id="svg1"
   inkscape:version="1.4.2 (f4327f4, 2025-05-13)"
   sodipodi:docname="213.svg"
   xmlns:inkscape="http://www.inkscape.org/namespaces/inkscape"
   xmlns:sodipodi="http://sodipodi.sourceforge.net/DTD/sodipodi-0.dtd"
   xmlns="http://www.w3.org/2000/svg"
   xmlns:svg="http://www.w3.org/2000/svg">
  <sodipodi:namedview
     id="namedview1"
     pagecolor="#ffffff"
     bordercolor="#000000"
     borderopacity="0.25"
     inkscape:showpageshadow="2"
     inkscape:pageopacity="0.0"
     inkscape:pagecheckerboard="0"
     inkscape:deskcolor="#d1d1d1"
     inkscape:document-units="mm"
     inkscape:zoom="2.0485264"
     inkscape:cx="83.962792"
     inkscape:cy="129.84943"
     inkscape:window-width="1050"
     inkscape:window-height="1081"
     inkscape:window-x="3737"
     inkscape:window-y="0"
     inkscape:window-maximized="0"
     inkscape:current-layer="layer1" />
  <defs
     id="defs1" />
  <g
     inkscape:label="Layer 1"
     inkscape:groupmode="layer"
     id="layer1"
     transform="translate(-114.0891,-77.774176)">
    <g
       id="g82"
       transform="translate(-121.23205,203.13977)">
      <circle
         style="fill:none;stroke:#ff0000;stroke-width:0.1;stroke-dasharray:none"
         id="path788-8-1-8-1-9-2-2-9-1-0-0-4-6-7-56"
         cx="255.82565"
         cy="-104.8611"
         r="19.954653" />
      <ellipse
         style="fill:none;stroke:#ff00ff;stroke-width:0.1;stroke-dasharray:none;stroke-opacity:1"
         id="path1138-9-4-0-0-1-2-8-1-8-6-2-9-9-1-2"
         cx="255.82565"
         cy="-104.8611"
         rx="18.492125"
         ry="18.492126" />
      <circle
         style="fill:none;stroke:#0000ff;stroke-width:0.1;stroke-linecap:round;stroke-dasharray:none;stroke-opacity:1;paint-order:markers stroke fill"
         id="path13019-1-33-4-5-5-5-5-7-1-5-3"
         cx="255.82564"
         cy="-119.87209"
         r="2" />
      <path
         style="fill:#000000;stroke-width:0.1;stroke-dasharray:none"
         d="m 252.54894,-88.8002 c -2.71257,-0.6567 -5.46403,-2.3587 -7.35248,-4.5482 -1.61023,-1.8671 -3.09022,-5.4723 -3.1014,-7.5552 l -0.004,-0.6442 h 13.73462 13.73457 l -0.15808,0.9886 c -0.087,0.5438 -0.28491,1.0692 -0.43991,1.1678 -0.15501,0.099 -1.20425,0.1806 -2.33167,0.1827 -1.89245,0 -2.04984,0.04 -2.04984,0.4721 0,0.3883 0.15619,0.4685 0.912,0.4685 0.80872,0 1.19641,0.272 1.19641,0.8391 0,0.054 -0.89607,0.098 -1.99128,0.098 -1.81544,0 -1.99128,0.04 -1.99128,0.455 0,0.368 -0.19071,0.469 -0.99562,0.5272 -0.81546,0.059 -0.99564,0.1568 -0.99564,0.5406 0,0.4111 0.17944,0.477 1.46417,0.5382 1.27226,0.06 1.46418,0.1297 1.46418,0.5271 0,0.3774 0.16381,0.4574 0.93707,0.4574 0.78089,0 0.93707,0.078 0.93707,0.4685 0,0.2725 -0.15618,0.4686 -0.37333,0.4686 -0.20534,0 -0.42847,0.2108 -0.49587,0.4686 -0.105,0.4014 -0.31954,0.4684 -1.5008,0.4684 -1.0789,0 -1.37828,0.078 -1.37828,0.3572 0,0.1964 -0.26355,0.4575 -0.58567,0.5799 -0.35856,0.1363 -0.58567,0.4066 -0.58567,0.6971 0,0.4234 -0.15045,0.4742 -1.40561,0.4742 -1.24942,0 -1.4056,0.053 -1.4056,0.4686 0,0.3123 0.15618,0.4685 0.46854,0.4685 0.75006,0 0.54011,0.6299 -0.26356,0.7907 -1.21405,0.2427 -3.98389,0.1282 -5.44357,-0.225 z m -10.45738,-14.69 c 0,-1.2534 0.65659,-3.4067 1.5672,-5.1395 3.02048,-5.7482 9.68032,-8.6174 15.83504,-6.8224 0.67213,0.1961 1.45924,0.5079 1.74914,0.6933 0.68176,0.4356 0.71891,1.491 0.0585,1.6637 -0.25931,0.068 -0.46853,0.3195 -0.46853,0.5638 0,0.3586 0.17551,0.4411 0.93707,0.4411 0.70124,0 0.93706,0.094 0.93706,0.3734 0,0.2053 -0.21083,0.4285 -0.46853,0.4958 -0.3032,0.08 -0.46853,0.3196 -0.46853,0.681 0,0.4951 0.10593,0.5583 0.93706,0.5583 0.7809,0 0.93708,0.078 0.93708,0.4684 0,0.3125 0.15617,0.4686 0.46853,0.4686 0.31235,0 0.46854,0.1562 0.46854,0.4686 0,0.4164 -0.15619,0.4685 -1.40561,0.4685 -1.24942,0 -1.4056,0.052 -1.4056,0.4686 0,0.4294 0.15618,0.4685 1.87414,0.4685 1.69851,0 1.87414,0.042 1.87414,0.4544 0,0.356 -0.19027,0.4701 -0.87851,0.5271 -0.69809,0.058 -0.8785,0.1689 -0.8785,0.5413 0,0.4374 0.17841,0.4728 2.68529,0.5352 1.78695,0.044 2.74579,0.162 2.86617,0.3514 0.0995,0.1566 0.18255,0.6801 0.18452,1.1632 l 0.004,0.8784 h -13.70465 -13.70466 v -0.7707 z m 9.66995,-1.8203 c 1.08156,-0.3004 2.35281,-1.3788 2.74692,-2.3302 0.43943,-1.0609 0.18421,-2.8743 -0.53779,-3.8209 -2.23812,-2.9344 -6.95945,-1.4143 -6.95945,2.2404 0,1.9562 1.01629,3.4013 2.76234,3.9275 0.87367,0.2634 0.98241,0.2625 1.98798,-0.017 z"
         id="path6583-26-5-1-3-51"
         sodipodi:nodetypes="scsccccsscsssssssssssssssssssssscscsssssssssssssssssssssscscscssss" />
    </g>
  </g>
</svg>
