<?xml version="1.0" encoding="UTF-8" standalone="no"?>
<!-- Created with Inkscape (http://www.inkscape.org/) -->

<svg
   width="41.008999mm"
   height="41.008999mm"
   viewBox="0 0 41.008999 41.009"
   version="1.1"
   id="svg1"
   inkscape:version="1.4.2 (f4327f4, 2025-05-13)"
   sodipodi:docname="214.svg"
   xmlns:inkscape="http://www.inkscape.org/namespaces/inkscape"
   xmlns:sodipodi="http://sodipodi.sourceforge.net/DTD/sodipodi-0.dtd"
   xmlns="http://www.w3.org/2000/svg"
   xmlns:svg="http://www.w3.org/2000/svg">
  <sodipodi:namedview
     id="namedview1"
     pagecolor="#ffffff"
     bordercolor="#000000"
     borderopacity="0.25"
     inkscape:showpageshadow="2"
     inkscape:pageopacity="0.0"
     inkscape:pagecheckerboard="0"
     inkscape:deskcolor="#d1d1d1"
     inkscape:document-units="mm"
     inkscape:zoom="2.0485264"
     inkscape:cx="83.962792"
     inkscape:cy="129.84943"
     inkscape:window-width="1050"
     inkscape:window-height="1081"
     inkscape:window-x="3737"
     inkscape:window-y="0"
     inkscape:window-maximized="0"
     inkscape:current-layer="layer1" />
  <defs
     id="defs1" />
  <g
     inkscape:label="Layer 1"
     inkscape:groupmode="layer"
     id="layer1"
     transform="translate(-114.0891,-77.774176)">
    <g
       id="g84"
       transform="translate(-163.62799,203.21557)">
      <circle
         style="fill:none;stroke:#ff0000;stroke-width:0.1;stroke-dasharray:none"
         id="path788-8-1-8-1-9-2-56-8-1-7-71-3-2-7-7"
         cx="298.22159"
         cy="-104.9369"
         r="19.954653" />
      <ellipse
         style="fill:none;stroke:#ff00ff;stroke-width:0.1;stroke-dasharray:none;stroke-opacity:1"
         id="path1138-9-4-0-0-1-2-4-9-7-82-6-75-2-1-9"
         cx="298.22159"
         cy="-104.9369"
         rx="18.492125"
         ry="18.492126" />
      <circle
         style="fill:none;stroke:#0000ff;stroke-width:0.1;stroke-linecap:round;stroke-dasharray:none;stroke-opacity:1;paint-order:markers stroke fill"
         id="path13019-1-33-6-2-4-0-0-76-9-2-6"
         cx="298.22159"
         cy="-119.94789"
         r="2" />
      <path
         style="fill:#000000;stroke-width:0.1;stroke-dasharray:none"
         d="m 286.8929,-91.1846 c -1.80976,-0.081 -1.88736,-0.2373 -0.7048,-1.42 0.51183,-0.5118 1.09914,-0.8901 1.60396,-1.0333 0.43806,-0.1243 0.9202,-0.3447 1.07143,-0.4899 0.241,-0.2315 0.19006,-0.2549 -0.41244,-0.1902 -0.81308,0.088 -0.92605,-0.2375 -0.23906,-0.6877 0.31541,-0.2067 1.0752,-0.3247 2.56241,-0.3979 1.73954,-0.086 2.16849,-0.1642 2.42135,-0.4436 0.40371,-0.4461 0.80042,-0.4328 0.80042,0.027 0,0.319 0.12473,0.3675 0.96238,0.3741 l 0.96238,0.01 -0.8249,0.4049 c -0.85086,0.4177 -1.14034,0.842 -2.01507,2.9538 -0.52631,1.2706 -0.68753,0.898 -0.19543,-0.4515 0.22449,-0.6158 0.35734,-1.1703 0.29524,-1.2324 -0.16845,-0.1685 -1.71927,0.287 -2.21661,0.651 -0.23837,0.1744 -0.52736,0.5381 -0.6422,0.808 -0.45949,1.0802 -0.92544,1.2325 -3.42906,1.1201 z m 9.34853,8e-4 c -0.42015,-0.081 -0.42922,-0.1973 -0.1078,-1.383 0.17591,-0.6488 -0.32127,-0.2958 -0.70989,0.5042 -0.30554,0.6288 -0.50281,0.8249 -0.83024,0.8249 h -0.42947 l 0.50769,-0.8708 c 1.89324,-3.2469 1.66982,-3.0131 3.46774,-3.6304 0.89703,-0.308 1.79596,-0.6573 1.99759,-0.7761 0.35933,-0.2118 0.35826,-0.2185 -0.0531,-0.3341 -0.23088,-0.065 -0.54234,-0.3548 -0.69212,-0.6445 -0.32612,-0.6306 -0.73797,-0.6659 -1.75031,-0.1493 -0.53808,0.2745 -1.02298,0.3649 -1.77997,0.3319 -0.8739,-0.039 -1.15452,0.033 -1.75341,0.4477 -0.39215,0.2711 -0.81847,0.4929 -0.94738,0.4929 -0.12892,0 -0.3855,0.045 -0.57018,0.102 -0.18468,0.056 0.0613,-0.1133 0.54657,-0.3761 0.60273,-0.3266 0.86357,-0.5767 0.82311,-0.7894 -0.0358,-0.1878 -0.85893,-0.711 -2.07387,-1.3182 -1.94433,-0.9719 -2.0642,-1.0062 -3.43528,-0.9883 -0.78136,0.011 -1.42065,-0.01 -1.42065,-0.042 0,-0.033 0.25995,-0.1955 0.57767,-0.3599 l 0.57767,-0.2986 -0.10755,-3.2699 c -0.0664,-2.0177 -0.0356,-3.5307 0.0804,-3.9505 0.10335,-0.3743 0.57835,-1.1009 1.05556,-1.6147 0.4772,-0.5137 1.05754,-1.3856 1.28964,-1.9378 0.46647,-1.1095 0.79304,-1.6715 1.42233,-2.4473 0.60916,-0.751 0.51569,-0.4853 -0.20713,0.5888 -0.3451,0.5128 -0.8029,1.4013 -1.01735,1.9745 -0.21444,0.5732 -0.71967,1.436 -1.12274,1.9174 l -0.73284,0.8753 0.60765,0.114 c 0.45949,0.086 0.89242,-0.02 1.77549,-0.4383 1.52179,-0.7197 2.82778,-0.8884 3.78416,-0.4888 1.49286,0.6237 1.86489,1.2273 3.39508,5.5074 0.87869,2.4578 1.12665,2.972 1.5306,3.1743 0.26511,0.1327 0.6656,0.2129 0.88998,0.178 0.37823,-0.059 0.36598,-0.086 -0.16823,-0.3734 -0.46619,-0.2509 -0.62024,-0.4948 -0.80699,-1.2778 -0.12696,-0.5322 -0.42281,-1.5453 -0.65744,-2.2509 -0.39923,-1.2008 -0.40333,-1.2554 -0.0637,-0.8505 l 0.36288,0.4327 6.9e-4,-0.4327 c 5.5e-4,-0.238 -0.14101,-1.1172 -0.31438,-1.9538 -0.23135,-1.1162 -0.26284,-1.6039 -0.11835,-1.833 0.31418,-0.4981 0.68142,-0.363 0.81714,0.3006 0.18142,0.887 0.44096,1.0722 0.77424,0.5526 0.1524,-0.2376 0.30442,-0.6261 0.33786,-0.8631 0.0539,-0.3821 -0.17868,-0.5545 -2.04729,-1.5172 -1.34079,-0.6908 -2.475,-1.1433 -3.11626,-1.2431 -0.77622,-0.1209 -0.86311,-0.162 -0.37766,-0.1785 0.34681,-0.012 1.10755,0.077 1.69055,0.1975 0.583,0.1204 1.11738,0.1616 1.18754,0.092 0.18649,-0.1866 -0.30708,-1.0209 -0.67247,-1.1369 -0.17218,-0.055 -0.53018,-0.016 -0.79554,0.084 -0.41159,0.1565 -0.48249,0.1344 -0.48249,-0.1502 0,-0.1836 0.1735,-0.4908 0.38555,-0.6829 0.404,-0.3658 1.60333,-0.4486 3.83057,-0.264 l 1.00821,0.084 0.057,-0.5829 c 0.14734,-1.5067 -1.17723,-2.6104 -3.13271,-2.6104 -2.21659,0 -4.37804,1.399 -5.43773,3.5197 -0.669,1.3388 -0.69405,1.6121 -0.14805,1.6157 0.71044,0.01 0.93982,0.2736 0.43134,0.5052 -0.24739,0.1128 -0.67002,0.5807 -0.93918,1.0401 -0.26915,0.4592 -0.51531,0.835 -0.54702,0.835 -0.0317,0 0.0577,-0.4331 0.19855,-0.9624 0.14091,-0.5293 0.25718,-0.9829 0.25838,-1.0082 0.001,-0.025 -0.17175,-0.045 -0.38432,-0.045 -0.40791,0 -0.40491,-0.2576 0.0159,-1.3644 0.17884,-0.4703 3.47474,-3.8138 4.10527,-4.1644 0.53407,-0.2969 3.74235,-0.411 4.88093,-0.1734 1.28439,0.268 2.87584,1.0018 3.54551,1.6351 1.05579,0.9983 1.27212,1.7151 1.42111,4.7087 0.17861,3.5886 0.52194,4.8386 2.45496,8.9382 0.85889,1.8216 1.54077,3.3285 1.51529,3.3489 -0.0255,0.02 -0.47843,0.178 -1.00655,0.3505 -0.52812,0.1726 -1.00518,0.3865 -1.06013,0.4753 -0.0549,0.089 0.59682,0.7519 1.44836,1.4732 0.85154,0.7213 1.59556,1.4878 1.65338,1.7033 0.0578,0.2154 0.10624,0.9898 0.10762,1.7207 l 0.003,1.329 h -4.72023 l -4.72024,1e-4 -0.57868,-0.6874 c -0.64304,-0.7639 -0.98147,-0.6906 -0.6663,0.1444 l 0.20493,0.5429 h -0.8207 -0.8207 l 0.39812,-0.7083 c 0.32481,-0.578 0.35953,-0.7805 0.18858,-1.0999 -0.34251,-0.64 -0.59515,-0.5093 -1.45298,0.7515 -0.50159,0.7372 -1.1314,1.3067 -1.34375,1.2151 -0.0319,-0.014 -0.24361,-0.061 -0.47062,-0.1044 z m 5.08159,-5.7292 c 0.22182,-0.1403 0.17324,-0.2532 -0.27496,-0.6386 -0.60416,-0.5196 -0.7412,-0.5601 -0.91939,-0.2717 -0.0669,0.1082 0.0663,0.397 0.2961,0.6416 0.46579,0.4958 0.51559,0.5106 0.89825,0.2687 z m -10.54384,-3.3829 c 0.34142,-0.1427 0.65878,-0.2214 0.70528,-0.1749 0.0978,0.098 4.31898,-0.9453 4.48104,-1.1074 0.27471,-0.2746 -0.22098,-0.3225 -1.24831,-0.1204 -0.61781,0.1215 -1.15779,0.1864 -1.19997,0.1444 -0.0422,-0.043 0.7495,-0.4602 1.75927,-0.9289 1.00978,-0.4687 1.83595,-0.9348 1.83595,-1.036 0,-0.2806 -0.35612,-0.217 -1.55813,0.2781 -1.43433,0.5908 -1.63287,0.5756 -2.39264,-0.1843 -0.67339,-0.6733 -1.31374,-0.9316 -1.91809,-0.7736 -0.50863,0.1331 -0.45354,-0.082 0.17501,-0.6847 0.43604,-0.4177 0.63687,-0.4913 1.05403,-0.3861 1.30295,0.3286 1.83025,0.3078 2.87792,-0.1134 0.58592,-0.2356 1.06545,-0.5106 1.06562,-0.6114 1.7e-4,-0.1006 -0.39496,-0.3317 -0.87807,-0.5134 -0.90175,-0.3394 -1.19642,-0.3043 -2.88092,0.3421 -0.2632,0.101 -0.31079,-0.01 -0.31079,-0.6886 0,-0.4444 -0.0951,-0.903 -0.21139,-1.0192 -0.34606,-0.3461 -0.83311,0.06 -0.97433,0.8132 -0.0936,0.499 -0.39823,0.9443 -1.1212,1.6389 -0.94967,0.9125 -1.19225,1.3904 -0.8219,1.6193 0.094,0.058 0.28856,-0.063 0.43252,-0.2681 0.30964,-0.4421 0.31259,-0.4392 1.38967,1.3487 0.7271,1.2069 1.03405,2.0589 0.47591,1.321 -0.26642,-0.3522 -0.27186,-0.3522 -0.53827,0 -0.26241,0.3469 -0.26929,0.3456 -0.27497,-0.057 -0.004,-0.2269 -0.0883,-0.4124 -0.18914,-0.4124 -0.10082,0 -0.18331,0.1512 -0.18331,0.336 0,0.502 -0.20882,0.6153 -0.47335,0.2569 -0.21662,-0.2936 -0.24734,-0.284 -0.40038,0.1258 -0.11476,0.3072 -0.20884,0.374 -0.3058,0.2172 -0.10648,-0.1723 -0.22353,-0.151 -0.48846,0.089 -0.19163,0.1734 -0.34842,0.4263 -0.34842,0.5618 0,0.337 1.64899,0.3284 2.46562,-0.014 z m 4.68347,-6.9923 c 0,-0.1571 -0.0789,-0.2369 -0.17526,-0.1774 -0.0964,0.06 -0.31209,-0.1005 -0.47935,-0.3558 -0.4193,-0.6399 -0.62856,-0.5808 -0.62856,0.1774 0,0.6111 0.0306,0.6416 0.64159,0.6416 0.45888,0 0.64158,-0.081 0.64158,-0.2858 z m -1.13421,-4.2388 c 0.13233,-0.053 0.29043,-0.046 0.35135,0.014 0.0609,0.061 -0.0474,0.1042 -0.24059,0.096 -0.21355,-0.01 -0.25699,-0.052 -0.11076,-0.1108 z"
         id="path6583-26-5-1-3-52"
         sodipodi:nodetypes="sssssssssscsssssssccssscsssssssssssssssscsssssssscssssssssssccssssssssssssssscsssssssscssssssssssssccccsscccsssscssssssssssssssssssssssssssssssscsssssssssssssssssss" />
    </g>
  </g>
</svg>
