<?xml version="1.0" encoding="UTF-8" standalone="no"?>
<!-- Created with Inkscape (http://www.inkscape.org/) -->

<svg
   width="41.008999mm"
   height="41.008999mm"
   viewBox="0 0 41.008999 41.009"
   version="1.1"
   id="svg1"
   inkscape:version="1.4.2 (f4327f4, 2025-05-13)"
   sodipodi:docname="216.svg"
   xmlns:inkscape="http://www.inkscape.org/namespaces/inkscape"
   xmlns:sodipodi="http://sodipodi.sourceforge.net/DTD/sodipodi-0.dtd"
   xmlns="http://www.w3.org/2000/svg"
   xmlns:svg="http://www.w3.org/2000/svg">
  <sodipodi:namedview
     id="namedview1"
     pagecolor="#ffffff"
     bordercolor="#000000"
     borderopacity="0.25"
     inkscape:showpageshadow="2"
     inkscape:pageopacity="0.0"
     inkscape:pagecheckerboard="0"
     inkscape:deskcolor="#d1d1d1"
     inkscape:document-units="mm"
     inkscape:zoom="2.0485264"
     inkscape:cx="68.341808"
     inkscape:cy="134.73099"
     inkscape:window-width="1050"
     inkscape:window-height="1081"
     inkscape:window-x="3737"
     inkscape:window-y="0"
     inkscape:window-maximized="0"
     inkscape:current-layer="layer1" />
  <defs
     id="defs1" />
  <g
     inkscape:label="Layer 1"
     inkscape:groupmode="layer"
     id="layer1"
     transform="translate(-114.0891,-77.774176)">
    <g
       id="g73"
       transform="translate(-37.09738,153.48158)">
      <circle
         style="fill:none;stroke:#ff0000;stroke-width:0.1;stroke-dasharray:none"
         id="path788-8-1-8-1-9-2-6-3-4-7-1-6-19-0"
         cx="171.69098"
         cy="-55.2029"
         r="19.954653" />
      <path
         style="fill:#000000;stroke-width:0.100644;stroke-dasharray:none"
         d="m 169.18712,-37.515423 c -6.07241,-1.079307 -10.94491,-4.595005 -13.48204,-9.727852 -3.31788,-6.712355 -2.20192,-14.535015 2.84437,-19.938494 3.0681,-3.285324 5.8973,-4.814208 10.45179,-5.648044 8.34652,-1.528179 17.03856,3.905996 19.67087,12.297899 0.85448,2.724032 1.08299,4.964067 0.74333,7.287032 -0.64704,4.425118 -2.15419,7.484899 -5.21276,10.582723 -1.70195,1.723832 -2.58754,2.380534 -4.39489,3.259358 -3.67399,1.786432 -7.43168,2.454104 -10.62067,1.887378 z m -0.5634,-2.662639 c -1.86523,-1.026872 -3.21225,-2.342893 -4.13679,-4.041564 -0.59412,-1.091686 -0.72807,-1.671999 -0.71905,-3.115235 0.017,-2.714169 1.10552,-4.816825 3.32659,-6.42572 1.24109,-0.899054 2.26863,-1.216788 5.09503,-1.575081 3.33381,-0.422704 5.35018,-1.764592 6.5903,-4.385967 1.0214,-2.159016 1.0716,-4.938906 0.12521,-6.934878 -2.28399,-4.817227 -8.1899,-5.933068 -14.52473,-2.744363 -5.37388,2.70491 -8.6506,8.041159 -8.63458,14.061485 0.0104,3.945348 1.03625,7.018212 3.35706,10.056555 2.25663,2.954508 7.22036,5.787033 10.31982,5.889187 0.51685,0.01711 0.33823,-0.158414 -0.79886,-0.784419 z m 0.84366,-18.928128 c -1.36853,-0.677436 -2.42946,-2.157305 -2.63267,-3.6723 -0.16848,-1.256139 0.45368,-3.151569 1.27988,-3.899253 0.52936,-0.479066 0.53295,-0.475544 0.25671,0.251005 -0.48642,1.279388 -0.3427,2.527877 0.37346,3.244061 0.80996,0.809883 1.325,0.826992 1.86101,0.06139 0.57146,-0.815922 0.51874,-1.866746 -0.13534,-2.698368 -0.62105,-0.789452 -0.46167,-1.478461 0.21256,-0.918881 0.36011,0.298812 0.38864,0.263285 0.21857,-0.272443 -0.13499,-0.425321 -0.0523,-0.774355 0.26691,-1.127112 0.43712,-0.483092 0.48175,-0.485608 0.8144,-0.04731 0.19357,0.254932 0.35574,0.680254 0.3604,0.94525 0.005,0.264895 0.12002,0.412741 0.25636,0.328502 0.47066,-0.290962 0.60188,0.423007 0.16625,0.904387 -0.74193,0.819746 -0.82998,2.263284 -0.17782,2.915356 0.7207,0.720712 0.97419,0.707729 1.77294,-0.09159 0.72649,-0.726449 0.89508,-2.382647 0.34857,-3.424717 l -0.30503,-0.581621 0.5933,0.527173 c 1.3468,1.196658 1.7324,3.66757 0.84396,5.40831 -0.62282,1.220309 -1.22773,1.780695 -2.49268,2.309177 -1.34516,0.562098 -2.51818,0.513184 -3.88174,-0.161734 z m 4.50295,15.676822 c 0.49416,-0.333032 1.18144,-1.022041 1.52727,-1.531099 0.5334,-0.785224 0.61329,-1.177837 0.52648,-2.587155 -0.11867,-1.926731 -0.6572,-2.825482 -2.23279,-3.726448 -2.17091,-1.241444 -4.946,-0.439512 -6.19994,1.791666 -1.17493,2.090477 -0.41871,4.87862 1.6684,6.151365 1.21137,0.738626 3.54074,0.690015 4.71057,-0.09863 z m -4.8764,-0.728865 -0.86965,-0.801831 0.76364,0.274557 c 0.41998,0.151067 1.06525,0.511876 1.4339,0.801831 0.64045,0.503723 0.64517,0.527274 0.10602,0.527274 -0.31035,0 -0.95563,-0.360809 -1.43391,-0.801831 z m 3.64183,0.286232 c 0.2566,-0.283514 0.84435,-0.641807 1.30612,-0.796196 l 0.83959,-0.280696 -0.86963,0.796196 c -1.01591,0.930152 -2.07458,1.163043 -1.27608,0.280696 z m -1.52153,-1.443941 c 0.15278,-0.799214 -0.61556,-1.152575 -1.25262,-0.576086 -0.46476,0.420592 -0.80532,0.299316 -0.80532,-0.286835 0,-0.185387 0.23966,-0.413145 0.53257,-0.50614 0.74382,-0.23611 0.66504,-1.045389 -0.13108,-1.346617 -0.47046,-0.17804 -0.5966,-0.356079 -0.4333,-0.611513 0.18279,-0.285931 0.35164,-0.295391 0.81761,-0.0463 0.84324,0.451288 1.43314,0.145934 1.2787,-0.662036 -0.10024,-0.524355 -0.0173,-0.662339 0.39789,-0.662339 0.42773,0 0.49341,0.123893 0.35595,0.671498 -0.20501,0.816827 0.33185,1.111613 1.18904,0.652877 0.46596,-0.249396 0.63482,-0.239835 0.81761,0.0463 0.16331,0.255434 0.0372,0.433473 -0.43329,0.611513 -0.79614,0.301228 -0.87492,1.110507 -0.1311,1.346617 0.29292,0.09259 0.53258,0.320753 0.53258,0.50614 0,0.586151 -0.34056,0.707427 -0.80531,0.286835 -0.64885,-0.587158 -1.4075,-0.225946 -1.20658,0.574577 0.12418,0.494766 0.0508,0.629629 -0.3427,0.629629 -0.38252,0 -0.47238,-0.14835 -0.38065,-0.62812 z m -3.49403,-0.591987 c -0.2338,-0.6093 -0.19093,-2.582125 0.0649,-2.985305 0.12628,-0.199074 0.22568,0.446558 0.23576,1.531199 0.018,1.944544 -0.0276,2.165558 -0.30063,1.454106 z m 7.3532,-1.262479 c 0.005,-0.972222 0.11354,-1.702999 0.24138,-1.623993 0.30353,0.1876 0.29341,2.532707 -0.0129,3.016805 -0.15227,0.240539 -0.2341,-0.258555 -0.22835,-1.392812 z m -2.15065,-3.309178 c -0.69795,-0.450986 -0.98103,-0.764089 -0.73689,-0.815015 0.4804,-0.100644 1.80506,0.556058 2.28162,1.130233 0.57181,0.689109 -0.25005,0.521336 -1.54473,-0.315218 z m -4.14909,0.172504 c 0.21233,-0.343599 1.98285,-1.124294 2.1563,-0.950784 0.0652,0.06542 -0.20365,0.371679 -0.59726,0.68126 -0.75084,0.590679 -1.87791,0.785426 -1.55904,0.269524 z"
         id="path6583-26-5-1-3-52-4"
         sodipodi:nodetypes="ssssssssssssssssssssssssssssssssscssssscsssssssssssscscsscssscssssssssssssssssssssssssssssssssssssss" />
      <circle
         style="fill:none;stroke:#0000ff;stroke-width:0.1;stroke-linecap:round;stroke-dasharray:none;stroke-opacity:1;paint-order:markers stroke fill"
         id="path13019-1-33-3-83-70-3-7-5-3-3"
         cx="171.69098"
         cy="-70.213875"
         r="2" />
    </g>
  </g>
</svg>
