<?xml version="1.0" encoding="UTF-8" standalone="no"?>
<!-- Created with Inkscape (http://www.inkscape.org/) -->

<svg
   width="41.008999mm"
   height="41.008999mm"
   viewBox="0 0 41.008999 41.009"
   version="1.1"
   id="svg1"
   inkscape:version="1.4.2 (f4327f4, 2025-05-13)"
   sodipodi:docname="217.svg"
   xmlns:inkscape="http://www.inkscape.org/namespaces/inkscape"
   xmlns:sodipodi="http://sodipodi.sourceforge.net/DTD/sodipodi-0.dtd"
   xmlns="http://www.w3.org/2000/svg"
   xmlns:svg="http://www.w3.org/2000/svg">
  <sodipodi:namedview
     id="namedview1"
     pagecolor="#ffffff"
     bordercolor="#000000"
     borderopacity="0.25"
     inkscape:showpageshadow="2"
     inkscape:pageopacity="0.0"
     inkscape:pagecheckerboard="0"
     inkscape:deskcolor="#d1d1d1"
     inkscape:document-units="mm"
     inkscape:zoom="2.0485264"
     inkscape:cx="68.341808"
     inkscape:cy="134.73099"
     inkscape:window-width="1050"
     inkscape:window-height="1081"
     inkscape:window-x="3737"
     inkscape:window-y="0"
     inkscape:window-maximized="0"
     inkscape:current-layer="layer1" />
  <defs
     id="defs1" />
  <g
     inkscape:label="Layer 1"
     inkscape:groupmode="layer"
     id="layer1"
     transform="translate(-114.0891,-77.774176)">
    <g
       id="g74"
       transform="translate(-79.238371,153.47868)">
      <path
         style="fill:#000000;stroke-width:0.1;stroke-dasharray:none"
         d="m 211.31355,-36.939159 c -3.72598,-0.7799 -6.66275,-2.1711 -8.90015,-4.2163 l -1.28631,-1.1758 0.71524,-0.7276 0.71524,-0.7277 1.34235,1.2556 c 1.95207,1.826 6.15733,3.6025 8.52755,3.6025 1.08121,0 0.90076,-0.4778 -0.25403,-0.6726 -1.91129,-0.3224 -1.94894,-0.3498 -1.77292,-1.2881 0.15645,-0.8339 0.11744,-0.8799 -1.21458,-1.4335 -0.75693,-0.3146 -2.0814,-1.0533 -2.94328,-1.6416 l -1.56705,-1.0697 -0.69017,0.5429 c -0.37959,0.2986 -0.75784,0.4752 -0.84056,0.3925 -0.20971,-0.2097 2.66382,-3.0088 3.10191,-3.0216 0.19645,-0.01 0.74967,-0.3973 1.22938,-0.8703 0.4797,-0.4729 1.30382,-1.2727 1.83137,-1.7773 l 0.95919,-0.9173 1.18487,0.6472 c 0.65168,0.356 1.18339,0.7688 1.18159,0.9174 -0.002,0.1486 -0.29801,1.3355 -0.65823,2.6377 -0.50536,1.827 -0.58014,2.4152 -0.32744,2.5757 0.44106,0.2801 4.4693,0.266 4.91619,-0.017 0.29003,-0.1838 0.22627,-0.6991 -0.34669,-2.8022 -0.38612,-1.4174 -0.6651,-2.6053 -0.61995,-2.6398 0.0452,-0.035 0.58473,-0.3395 1.19906,-0.6778 l 1.11695,-0.615 2.09591,1.8925 2.0959,1.8924 0.65157,-0.8558 c 0.77868,-1.0227 1.69957,-2.7845 1.82691,-3.4951 0.0787,-0.4394 -0.26217,-0.6088 -2.42191,-1.2035 l -2.51354,-0.692 -0.0779,-1.4544 -0.0779,-1.4543 2.63193,-0.7351 2.63193,-0.7351 -0.22685,-0.7909 c -0.30248,-1.0547 -1.38335,-2.8732 -2.08541,-3.5085 l -0.56635,-0.5126 -1.9713,1.9582 c -1.38537,1.3761 -2.05445,1.875 -2.25104,1.6784 -0.19659,-0.1966 0.33326,-0.8731 1.78262,-2.276 2.66045,-2.5752 3.7636,-3.4843 3.97342,-3.2745 0.0929,0.093 0.47797,-0.1271 0.8557,-0.489 l 0.68678,-0.658 0.91906,1.1734 c 0.80072,1.0223 1.58052,1.531 1.58052,1.031 0,-0.089 -0.61418,-0.8715 -1.36485,-1.738 l -1.36486,-1.5755 0.69617,-0.6962 0.69618,-0.6961 0.7062,0.6482 c 3.52315,3.2338 5.83759,9.8024 5.13851,14.5835 -0.93871,6.4198 -4.21789,11.1603 -9.53443,13.7831 -3.90232,1.9251 -7.83823,2.6051 -11.1125,1.9198 z m 6.81787,-2.3666 c 3.30741,-0.8805 5.89754,-2.5476 8.12456,-5.2294 1.47792,-1.7797 1.21653,-2.3258 -0.28486,-0.5951 l -1.12817,1.3004 -0.64981,-0.6104 -0.6498,-0.6105 -1.68312,1.1498 c -0.92572,0.6324 -2.25199,1.3662 -2.94726,1.6307 -1.23202,0.4686 -1.25984,0.5036 -1.09556,1.3793 0.18911,1.008 0.15114,1.0353 -1.8075,1.2975 -0.69122,0.092 -1.25677,0.28 -1.25677,0.4166 0,0.3648 1.77848,0.2969 3.37829,-0.1289 z m 11.2076,-10.7314 c 1.05459,-3.3309 0.61821,-9.1996 -0.82646,-11.1148 -0.74786,-0.9915 -0.87912,-0.4994 -0.27538,1.0322 0.29638,0.7519 0.53887,1.4189 0.53887,1.4821 0,0.063 -0.38696,0.2153 -0.8599,0.338 -0.79878,0.2072 -0.85048,0.2877 -0.7276,1.132 0.0728,0.4999 0.11052,2.0744 0.0839,3.4988 l -0.0484,2.5899 0.77598,0.1552 c 0.92142,0.1843 0.92666,0.2228 0.24597,1.8108 -0.56533,1.3189 -0.4474,2.1596 0.18215,1.2986 0.20082,-0.2746 0.6107,-1.2749 0.91083,-2.2228 z m -29.90447,6.0847 c -1.52437,-1.9285 -2.54453,-3.8426 -3.24487,-6.0883 -0.51804,-1.6612 -0.61747,-2.5446 -0.61049,-5.424 0.0114,-4.6972 0.75497,-7.0778 3.26533,-10.4538 1.01564,-1.3658 4.5298,-4.585 4.75705,-4.3578 0.0573,0.057 -0.27487,0.675 -0.73819,1.3725 -1.81136,2.7272 -2.48941,4.5409 -2.61045,6.9829 -0.18793,3.7914 1.07399,6.7654 3.57304,8.4207 1.62335,1.0753 2.71828,1.2538 4.20607,0.6856 1.78728,-0.6826 2.54418,-1.9807 2.69732,-4.6259 0.16453,-2.8422 -0.60079,-5.4045 -2.10007,-7.031 -0.58779,-0.6377 -1.29585,-1.2315 -1.57347,-1.3196 -0.27762,-0.088 -0.50476,-0.2671 -0.50476,-0.3978 0,-0.3859 1.61304,-2.108 1.97453,-2.108 0.18272,0 0.88476,0.4863 1.56009,1.0808 l 1.22788,1.0808 -0.003,-0.7501 c -0.002,-0.4125 -0.30207,-1.2729 -0.66737,-1.912 -0.76106,-1.3313 -0.76692,-1.3148 1.27792,-3.6006 l 1.18347,-1.3229 0.58925,0.5292 c 0.32409,0.291 1.06669,1.0987 1.65024,1.7949 l 1.061,1.2657 -0.69358,1.5455 c -0.38147,0.85 -0.69358,1.8238 -0.69358,2.1639 0,0.5606 0.11833,0.5019 1.26585,-0.6284 0.69622,-0.6858 1.38725,-1.2468 1.5356,-1.2468 0.34567,0 1.96625,1.6639 1.94488,1.9969 -0.009,0.1386 -0.5149,0.6141 -1.12448,1.0565 -1.44743,1.0507 -2.20092,2.4666 -2.7914,5.2455 l -0.48134,2.2652 -7.34892,7.5502 c -4.04189,4.1526 -7.39189,7.5502 -7.44443,7.5502 -0.0525,0 -0.56505,-0.594 -1.13892,-1.32 z m 24.21961,-25.0021 c -0.52992,-0.7981 -0.9635,-1.5205 -0.9635,-1.6052 0,-0.124 1.4353,0.9392 2.75368,2.0397 0.24345,0.2032 -0.26218,1.0166 -0.63195,1.0166 -0.1071,0 -0.6283,-0.653 -1.15823,-1.4511 z"
         id="path6583-26-5-1-3-52-3"
         sodipodi:nodetypes="ssscccsssssscsscsscscsssssscccssscccccsscssssscssscccsssssssscccssssssssssssscssssscssssssssssssssccsscsscsssscsscssssssss" />
      <circle
         style="fill:none;stroke:#ff0000;stroke-width:0.1;stroke-dasharray:none"
         id="path788-8-1-8-1-9-2-9-3-7-1-2-04-7-2-9"
         cx="213.83197"
         cy="-55.200001"
         r="19.954653" />
      <circle
         style="fill:none;stroke:#0000ff;stroke-width:0.1;stroke-linecap:round;stroke-dasharray:none;stroke-opacity:1;paint-order:markers stroke fill"
         id="path13019-1-33-5-7-7-4-6-7-8-5-5"
         cx="224.86792"
         cy="-66.502884"
         r="2" />
    </g>
  </g>
</svg>
