<?xml version="1.0" encoding="UTF-8" standalone="no"?>
<!-- Created with Inkscape (http://www.inkscape.org/) -->

<svg
   width="41.008999mm"
   height="41.008999mm"
   viewBox="0 0 41.008999 41.009"
   version="1.1"
   id="svg1"
   inkscape:version="1.4.2 (f4327f4, 2025-05-13)"
   sodipodi:docname="218.svg"
   xmlns:inkscape="http://www.inkscape.org/namespaces/inkscape"
   xmlns:sodipodi="http://sodipodi.sourceforge.net/DTD/sodipodi-0.dtd"
   xmlns="http://www.w3.org/2000/svg"
   xmlns:svg="http://www.w3.org/2000/svg">
  <sodipodi:namedview
     id="namedview1"
     pagecolor="#ffffff"
     bordercolor="#000000"
     borderopacity="0.25"
     inkscape:showpageshadow="2"
     inkscape:pageopacity="0.0"
     inkscape:pagecheckerboard="0"
     inkscape:deskcolor="#d1d1d1"
     inkscape:document-units="mm"
     inkscape:zoom="2.0485264"
     inkscape:cx="68.341808"
     inkscape:cy="134.73099"
     inkscape:window-width="1050"
     inkscape:window-height="1081"
     inkscape:window-x="3737"
     inkscape:window-y="0"
     inkscape:window-maximized="0"
     inkscape:current-layer="layer1" />
  <defs
     id="defs1" />
  <g
     inkscape:label="Layer 1"
     inkscape:groupmode="layer"
     id="layer1"
     transform="translate(-114.0891,-77.774176)">
    <g
       id="g60"
       transform="translate(-121.42822,153.46518)">
      <circle
         style="fill:none;stroke:#ff0000;stroke-width:0.1;stroke-dasharray:none"
         id="path788-8-1-8-1-9-2-2-9-1-0-0-4-6-7-4"
         cx="256.02182"
         cy="-55.186501"
         r="19.954653" />
      <ellipse
         style="fill:none;stroke:#ff00ff;stroke-width:0.1;stroke-dasharray:none;stroke-opacity:1"
         id="path1138-9-4-0-0-1-2-8-1-8-6-2-9-9-1-8"
         cx="256.02182"
         cy="-55.186501"
         rx="18.492125"
         ry="18.492126" />
      <circle
         style="fill:none;stroke:#0000ff;stroke-width:0.1;stroke-linecap:round;stroke-dasharray:none;stroke-opacity:1;paint-order:markers stroke fill"
         id="path13019-1-33-4-5-5-5-5-7-1-5-8"
         cx="256.02179"
         cy="-70.197472"
         r="2" />
      <path
         style="fill:#000000;stroke-width:0.1;stroke-dasharray:none"
         d="m 241.41066,-46.7961 c 0.30717,-0.5456 1.29908,-2.2774 2.20423,-3.8486 l 1.64574,-2.8566 0.98894,-0.047 0.98894,-0.047 -0.72787,1.4757 -0.72788,1.4758 1.39689,-1.4738 c 1.38606,-1.4622 1.40278,-1.4736 2.15376,-1.468 0.70239,0.01 0.75093,0.031 0.67437,0.3628 -0.42325,1.8318 -0.56515,2.5458 -0.51576,2.5951 0.0319,0.032 0.51966,-0.6014 1.08369,-1.4073 l 1.02552,-1.4655 1.07046,-0.047 1.07047,-0.046 -0.72457,1.1579 c -0.39852,0.6369 -1.489,2.3899 -2.42327,3.8956 l -1.69868,2.7376 h -1.37182 -1.37181 l 0.36142,-1.706 c 0.19878,-0.9384 0.34127,-1.7282 0.31666,-1.7553 -0.0246,-0.027 -0.67726,0.7364 -1.45033,1.6966 l -1.40557,1.7457 -1.56101,0.01 -1.56101,0.01 0.5585,-0.9919 z m 8.07453,0.6347 c 0.12702,-0.1964 1.21774,-1.9461 2.42382,-3.8882 l 2.19285,-3.5311 h 1.32394 1.32394 l 0.003,3.5311 c 8.4e-4,1.9421 0.0452,3.6918 0.0979,3.8882 0.0937,0.3498 0.0681,0.3571 -1.25229,0.3571 h -1.348 l 0.0805,-0.7142 0.0805,-0.7141 h -0.72717 c -0.68325,0 -0.75687,0.043 -1.21854,0.7141 l -0.49136,0.7142 h -1.3596 -1.3596 l 0.23096,-0.3571 z m 5.04168,-3.2534 -8.5e-4,-0.5951 -0.31531,0.4761 c -0.39638,0.5985 -0.39638,0.7142 0,0.7142 0.26117,0 0.31721,-0.1055 0.31637,-0.5952 z m 2.64213,3.0155 c -0.0541,-0.3274 -0.0991,-2.0771 -0.10011,-3.8883 l -0.002,-3.2931 h 2.21565 c 2.07493,0 2.23622,0.022 2.53924,0.3473 0.17798,0.1911 0.33203,0.4232 0.34237,0.5158 0.0103,0.093 0.0645,-0.045 0.12042,-0.3077 l 0.10163,-0.476 2.40886,-0.044 c 2.73433,-0.05 2.60306,-0.1027 3.42985,1.3846 l 0.44559,0.8016 h -1.3631 c -1.06525,0 -1.38308,-0.052 -1.45447,-0.2381 -0.11182,-0.2914 -0.8509,-0.3189 -0.8509,-0.032 0,0.457 0.39581,0.5872 1.78536,0.5872 1.63846,0 2.11087,0.1871 2.67811,1.0609 0.65938,1.0156 1.72594,3.175 1.72594,3.4943 0,0.6301 -0.26029,0.682 -3.41925,0.682 -3.53526,0 -3.38605,0.065 -3.88609,-1.6839 -0.17181,-0.6008 -0.3124,-1.1462 -0.3124,-1.2119 0,-0.066 0.55988,-0.1196 1.24415,-0.1196 1.17308,0 1.25447,0.023 1.42491,0.3968 0.2236,0.4907 0.98111,0.571 0.98111,0.1039 0,-0.6031 -0.57464,-0.889 -1.71669,-0.8541 -1.26091,0.038 -2.02543,-0.1796 -2.28205,-0.6511 l -0.18744,-0.3444 -0.0927,0.3817 c -0.0781,0.3217 -0.22126,0.4616 -0.77731,0.7598 -0.0456,0.024 1.41675,2.1433 2.0874,3.0244 0.11825,0.1554 -0.17403,0.1984 -1.34771,0.1984 h -1.49874 l -0.7569,-1.3484 c -0.74038,-1.3191 -1.16758,-1.8561 -0.99465,-1.2504 0.0467,0.1637 0.13306,0.8154 0.19182,1.4482 l 0.10684,1.1506 h -1.34432 -1.34431 z m 2.89694,-4.7873 c 0.33442,-0.2117 0.0817,-0.6483 -0.37522,-0.6483 -0.32272,0 -0.40173,0.078 -0.40173,0.3967 0,0.4161 0.34219,0.5269 0.77695,0.2516 z m -14.02266,-2.9658 c -0.31245,-0.3125 -0.21315,-0.7145 0.38788,-1.5703 0.4414,-0.6285 0.45701,-0.6353 1.57335,-0.6815 1.04498,-0.043 1.12752,-0.023 1.12752,0.2778 0,0.5743 0.8712,0.368 0.97605,-0.2311 0.0471,-0.2688 -0.0417,-0.3235 -0.57929,-0.3571 -1.70749,-0.1069 -1.98379,-0.1935 -1.98379,-0.6223 0,-0.5059 0.85016,-2.1227 1.3762,-2.6173 0.38564,-0.3626 0.47446,-0.372 3.97344,-0.4217 2.09189,-0.029 3.64086,0.011 3.72791,0.098 0.0928,0.093 0.0581,0.3663 -0.0919,0.7252 -0.19935,0.4772 -0.32105,0.5764 -0.70676,0.5764 -0.46274,0 -0.46723,0.01 -0.6524,1.3093 -0.32912,2.3112 -0.35228,2.6165 -0.17152,2.2615 0.0889,-0.1746 0.58397,-1.3529 1.10025,-2.6186 l 0.93867,-2.3012 1.10342,-0.024 1.10342,-0.024 0.65855,3.0394 c 0.3622,1.6717 0.6576,3.1286 0.65645,3.2377 -0.002,0.1397 -0.33124,0.1985 -1.11303,0.1985 h -1.11093 v -0.5556 c 0,-0.5403 -0.0169,-0.5553 -0.62251,-0.5553 -0.57069,0 -0.63775,0.046 -0.80582,0.5553 l -0.18331,0.5556 h -2.28888 c -1.25888,0 -2.28562,-0.018 -2.28163,-0.04 0.004,-0.022 0.27861,-1.1467 0.61027,-2.4996 l 0.60302,-2.4599 -1.20487,-0.047 c -1.37208,-0.053 -1.97107,0.051 -1.87923,0.3307 0.0383,0.1161 0.5101,0.224 1.18884,0.2719 0.61899,0.044 1.18239,0.1365 1.252,0.2063 0.0696,0.07 -0.0854,0.9615 -0.34439,1.9812 -0.40129,1.5799 -0.52962,1.8835 -0.8677,2.0527 -0.26472,0.1326 -1.19835,0.1995 -2.80563,0.201 -2.00204,0 -2.45191,-0.04 -2.66366,-0.2524 z m 11.98801,-2.4868 c -0.007,-0.063 -0.013,-0.2758 -0.0143,-0.4721 -0.002,-0.2888 -0.0319,-0.3116 -0.15627,-0.1191 -0.20782,0.3216 -0.19984,0.8336 0.0119,0.7631 0.0938,-0.031 0.16526,-0.1086 0.15871,-0.1719 z m 2.9488,2.6226 c -0.0404,-0.066 -0.37094,-1.4046 -0.73464,-2.9757 -0.36369,-1.5712 -0.69693,-2.9821 -0.74051,-3.1353 -0.0729,-0.2562 0.0739,-0.2754 1.81977,-0.2381 2.18452,0.047 2.21584,0.062 3.23089,1.6205 0.76543,1.175 0.88183,1.5978 0.54294,1.9722 -0.24285,0.2684 -0.20237,0.3487 0.65739,1.3029 1.54422,1.7142 1.53889,1.5725 0.0591,1.5725 h -1.28924 l -0.75365,-0.9773 c -1.34961,-1.7498 -1.34955,-1.7498 -0.83764,-0.332 l 0.47272,1.3093 h -1.1769 c -0.64731,0 -1.20994,-0.053 -1.2503,-0.119 z m 1.4533,-4.6024 c -0.0645,-0.3386 -0.76385,-0.4819 -0.76385,-0.1565 0,0.3035 0.15473,0.4342 0.5142,0.4342 0.20254,0 0.2851,-0.092 0.24965,-0.2777 z"
         id="path6583-26-5-1-3-52-14"
         sodipodi:nodetypes="csscccccscssscccsscccsssccccscsccccsscccsscccscccsscscccsssccsscsssssssssssssscsssscsssccssssscssssssssssssssscccscscssscscsccsssssccsscscsscssssssscsscssssss" />
    </g>
  </g>
</svg>
