<?xml version="1.0" encoding="UTF-8" standalone="no"?>
<!-- Created with Inkscape (http://www.inkscape.org/) -->

<svg
   width="41.008999mm"
   height="41.008999mm"
   viewBox="0 0 41.008999 41.009"
   version="1.1"
   id="svg1"
   inkscape:version="1.4.2 (f4327f4, 2025-05-13)"
   sodipodi:docname="219.svg"
   xmlns:inkscape="http://www.inkscape.org/namespaces/inkscape"
   xmlns:sodipodi="http://sodipodi.sourceforge.net/DTD/sodipodi-0.dtd"
   xmlns="http://www.w3.org/2000/svg"
   xmlns:svg="http://www.w3.org/2000/svg">
  <sodipodi:namedview
     id="namedview1"
     pagecolor="#ffffff"
     bordercolor="#000000"
     borderopacity="0.25"
     inkscape:showpageshadow="2"
     inkscape:pageopacity="0.0"
     inkscape:pagecheckerboard="0"
     inkscape:deskcolor="#d1d1d1"
     inkscape:document-units="mm"
     inkscape:zoom="2.0485264"
     inkscape:cx="68.341808"
     inkscape:cy="134.73099"
     inkscape:window-width="1050"
     inkscape:window-height="1081"
     inkscape:window-x="3737"
     inkscape:window-y="0"
     inkscape:window-maximized="0"
     inkscape:current-layer="layer1" />
  <defs
     id="defs1" />
  <g
     inkscape:label="Layer 1"
     inkscape:groupmode="layer"
     id="layer1"
     transform="translate(-114.0891,-77.774176)">
    <g
       id="g59"
       transform="translate(-163.62799,153.45534)">
      <circle
         style="fill:none;stroke:#ff0000;stroke-width:0.1;stroke-dasharray:none"
         id="path788-8-1-8-1-9-2-56-8-1-7-71-3-2-7-5"
         cx="298.22159"
         cy="-55.176662"
         r="19.954653" />
      <ellipse
         style="fill:none;stroke:#ff00ff;stroke-width:0.1;stroke-dasharray:none;stroke-opacity:1"
         id="path1138-9-4-0-0-1-2-4-9-7-82-6-75-2-1-90"
         cx="298.22159"
         cy="-55.176662"
         rx="18.492125"
         ry="18.492126" />
      <circle
         style="fill:none;stroke:#0000ff;stroke-width:0.1;stroke-linecap:round;stroke-dasharray:none;stroke-opacity:1;paint-order:markers stroke fill"
         id="path13019-1-33-6-2-4-0-0-76-9-2-75"
         cx="298.22159"
         cy="-70.187653"
         r="2" />
      <path
         style="fill:#000000;stroke-width:0.1;stroke-dasharray:none"
         d="m 296.9857,-39.741084 c -0.31086,-0.1 -0.95402,-0.1912 -1.42924,-0.2036 -0.47523,-0.012 -1.28911,-0.2669 -1.80861,-0.5655 -0.51952,-0.2987 -1.29687,-0.6168 -1.72748,-0.7068 -1.17304,-0.2454 -3.08938,-2.0076 -3.54015,-3.2555 -0.20535,-0.5684 -0.67887,-1.7185 -1.05225,-2.5556 -0.63137,-1.4153 -0.67096,-1.6612 -0.56547,-3.5116 0.1257,-2.2042 0.46265,-3.0748 1.5415,-3.9825 1.03695,-0.8726 1.21788,-0.7198 0.30286,0.2556 -0.43739,0.4663 -0.89005,1.0834 -1.00586,1.3713 -0.28115,0.6988 0.12837,1.4956 0.6546,1.2735 0.20806,-0.088 0.63263,-0.2091 0.94349,-0.2696 0.55206,-0.1075 0.55468,-0.1018 0.11303,0.2479 -0.24868,0.1969 -0.58148,0.3613 -0.73958,0.3652 -0.31904,0.01 -0.87872,1.0642 -0.67296,1.2699 0.0717,0.072 0.3513,0.012 0.62127,-0.1323 0.59271,-0.3172 0.84832,-0.1382 0.46396,0.3249 -0.21875,0.2636 -0.22036,0.5127 -0.008,1.1579 0.2408,0.7296 0.34376,0.8114 0.91604,0.7274 0.37535,-0.055 0.68863,0.02 0.74976,0.1789 0.0578,0.1505 0.57032,0.4514 1.13905,0.6686 0.56873,0.2172 1.03407,0.5337 1.03407,0.7033 0,0.192 0.2561,0.3084 0.67823,0.3084 0.84187,0 0.90132,0.504 0.10239,0.868 -0.83099,0.3786 -1.22434,0.3264 -2.33904,-0.3108 -1.04703,-0.5985 -1.44117,-0.5679 -0.96926,0.075 0.15528,0.2116 0.44689,0.7662 0.64803,1.2325 0.38764,0.8987 0.74727,1.056 1.19125,0.521 0.31915,-0.3845 1.27218,-0.1149 1.71004,0.484 0.17837,0.2439 0.44479,0.319 0.80135,0.2257 0.33532,-0.088 0.67925,-0.01 0.924,0.2132 0.6235,0.5642 2.07242,0.2068 2.95511,-0.729 0.40017,-0.4243 0.85777,-0.7714 1.0169,-0.7714 0.15916,0 0.2927,-0.1271 0.29675,-0.2825 0.008,-0.2952 1.58326,-1.1412 1.77257,-0.9519 0.38741,0.3874 -3.00887,4.3995 -3.72424,4.3995 -0.43466,0 -0.40021,0.5977 0.0443,0.7683 0.32539,0.1248 1.75571,-1.0225 3.00119,-2.4074 0.1957,-0.2175 0.47392,-0.3956 0.6183,-0.3956 0.31644,0 0.53404,-0.7324 0.53822,-1.8115 0.003,-0.5809 0.15481,-0.908 0.56829,-1.2185 0.33647,-0.2527 0.56519,-0.651 0.56519,-0.9843 0,-0.4729 0.0791,-0.5374 0.50866,-0.4151 0.27978,0.079 0.8092,0.2102 1.17653,0.29 0.77542,0.1684 1.84679,1.3316 1.75045,1.9005 -0.0364,0.2146 0.0405,0.4562 0.17077,0.5366 0.13029,0.08 0.23688,-0.023 0.23688,-0.2301 0,-0.2419 0.12132,-0.3302 0.33912,-0.2466 0.49068,0.1883 0.41811,-0.1714 -0.22608,-1.1206 -0.31086,-0.4581 -0.56519,-0.9323 -0.56519,-1.0537 0,-0.2251 0.67821,-0.142 1.43927,0.1761 0.37934,0.1586 0.39423,0.1247 0.14761,-0.3362 -0.2233,-0.4173 -0.21783,-0.4937 0.0294,-0.4114 0.16704,0.056 0.36351,0.4691 0.43658,0.9187 0.0731,0.4496 0.25445,0.9639 0.40307,1.1429 0.33568,0.4045 0.18235,4.1925 -0.19852,4.9042 -0.35005,0.6541 -1.4387,1.074 -3.27117,1.2617 -1.427,0.1462 -1.51741,0.1286 -1.40579,-0.2733 0.0656,-0.2362 0.18445,-0.8364 0.26412,-1.3338 0.0796,-0.4974 0.19554,-1.1078 0.25753,-1.3565 0.11114,-0.4459 0.10786,-0.4461 -0.23813,-0.014 -0.33829,0.4231 -0.35082,0.4165 -0.35082,-0.1857 0,-1.1276 -0.6261,-0.1195 -1.0307,1.6594 -0.21148,0.9299 -0.5087,1.676 -0.69625,1.7479 -0.44478,0.1708 -0.65221,-0.08 -0.35865,-0.434 0.17178,-0.2071 0.14889,-0.4128 -0.0808,-0.7269 -0.17623,-0.2411 -0.32042,-0.6392 -0.32042,-0.8849 0,-0.2457 -0.0763,-0.3696 -0.16954,-0.2755 -0.0933,0.094 -0.16956,0.3909 -0.16956,0.6594 0,0.3646 -0.15749,0.5064 -0.62173,0.5598 -0.75468,0.087 -0.78826,0.3224 -0.11303,0.7933 0.48014,0.335 0.40723,0.3543 -1.29994,0.3442 -0.99474,-0.01 -2.06294,-0.092 -2.3738,-0.1916 z m 10.39953,-3.5176 c 0,-0.6081 -0.39121,-0.7477 -0.59649,-0.2127 -0.17374,0.4527 0.0826,1.0821 0.36881,0.9052 0.12522,-0.078 0.22768,-0.389 0.22768,-0.6925 z m -20.2904,-1.9173 c -0.48662,-0.6005 -0.73018,-1.9632 -0.30375,-1.6996 0.19653,0.1214 0.98341,2.1898 0.8683,2.2823 -0.0308,0.025 -0.28477,-0.2375 -0.56455,-0.5827 z m 9.21108,-0.1059 c -0.14166,-0.1707 -0.3912,-0.2591 -0.55455,-0.1964 -0.4065,0.156 -1.25124,-1.0882 -1.41219,-2.0801 -0.0725,-0.4471 -0.27109,-0.8664 -0.44116,-0.9317 -0.36932,-0.1417 -1.02928,0.3503 -0.85283,0.6358 0.17136,0.2772 -0.51496,0.2518 -1.0589,-0.039 -0.28732,-0.1538 -0.40274,-0.3829 -0.3216,-0.6386 0.0864,-0.2721 -0.0537,-0.4952 -0.44127,-0.7027 -0.31233,-0.1671 -0.56786,-0.4373 -0.56786,-0.6005 0,-0.3763 0.95705,-0.6238 1.69558,-0.4384 1.06775,0.2679 0.4871,-0.6617 -0.86921,-1.3916 -0.71258,-0.3835 -0.71275,-0.384 -0.14814,-0.4709 0.42613,-0.066 0.70425,0.092 1.13038,0.6417 0.31086,0.4007 0.79593,0.9965 1.07792,1.3239 l 0.51273,0.5953 -0.14787,-0.6467 c -0.13343,-0.5836 -0.10067,-0.6318 0.33504,-0.4935 0.41985,0.1333 0.48295,0.065 0.48295,-0.524 0,-0.6348 -0.4841,-1.3879 -0.89219,-1.3879 -0.0999,0 -0.24337,-0.3084 -0.31879,-0.6855 -0.124,-0.6201 -0.2124,-0.6806 -0.92458,-0.6326 -1.05179,0.071 -1.2212,-0.1615 -0.51996,-0.7132 0.39349,-0.3095 0.54076,-0.5998 0.46032,-0.9074 -0.065,-0.2488 -0.0224,-0.4524 0.0948,-0.4524 0.37037,0 1.19614,1.028 1.19614,1.4891 0,0.5569 1.27521,2.1281 1.72727,2.1281 0.23067,0 0.29404,0.1382 0.19972,0.4354 -0.0911,0.2871 -7e-5,0.5127 0.26736,0.6624 0.36545,0.2044 0.34407,0.2502 -0.21618,0.4633 -0.68087,0.2589 -0.76377,0.4672 -0.35042,0.8806 0.14921,0.1491 0.17465,0.2728 0.0565,0.2748 -0.11812,0 -0.0687,0.096 0.1098,0.2088 0.25778,0.1631 0.26802,0.2735 0.0498,0.5364 -0.22252,0.2681 -0.16214,0.4648 0.31775,1.0352 0.32587,0.3872 0.6894,0.6442 0.80786,0.571 0.11845,-0.073 0.36351,-0.01 0.54458,0.1401 0.4975,0.4129 0.39776,0.086 -0.29124,-0.9555 -0.4292,-0.6485 -0.53374,-0.9665 -0.33911,-1.0313 0.15473,-0.051 0.28133,-0.3905 0.28133,-0.7531 0,-0.4239 0.11654,-0.6594 0.3263,-0.6594 0.45525,0 1.03017,0.8892 1.03017,1.5934 0,0.3354 0.24305,0.8168 0.56518,1.1195 1.09241,1.0262 0.64139,1.8551 -1.4017,2.5759 -0.79728,0.2813 -0.98176,0.2848 -1.19974,0.022 z m 3.1775,-2.6952 c -0.37899,-0.5509 -0.68908,-1.1155 -0.68908,-1.2547 0,-0.6096 -0.88351,-1.8435 -2.69138,-3.7589 -2.21752,-2.3494 -2.96054,-3.4537 -2.96054,-4.4001 0,-0.755 -0.2121,-0.8138 -1.08182,-0.2998 -0.58489,0.3457 -0.58184,0.3351 0.0645,-0.225 0.65791,-0.5701 0.66254,-0.5877 0.15471,-0.5888 -0.28795,-7e-4 -0.72033,0.1043 -0.96083,0.233 -0.55843,0.2988 -0.5986,-0.1206 -0.0417,-0.4349 0.32745,-0.1847 0.34422,-0.2743 0.0973,-0.5198 -0.24644,-0.2451 -0.39384,-0.1864 -0.84778,0.3376 -0.31206,0.3602 -0.54946,0.4994 -0.54946,0.322 0,-0.1717 0.2549,-0.5518 0.56646,-0.8445 0.55871,-0.5249 0.56058,-0.5385 0.13678,-1.0002 -0.82962,-0.9038 -1.3798,-2.0587 -1.38063,-2.8984 0,-0.4663 0.0555,-0.8478 0.1242,-0.8478 0.0688,0 0.49932,0.2544 0.95679,0.5652 0.88102,0.5986 1.5987,0.7828 0.85314,0.2188 -0.55427,-0.4192 -0.42319,-0.4165 0.80309,0.016 0.55196,0.1948 1.01725,0.2551 1.05662,0.137 0.0386,-0.116 0.29433,-0.1532 0.56813,-0.083 0.44275,0.1141 0.4635,0.086 0.18757,-0.25 -0.27479,-0.3351 -0.24741,-0.3783 0.23947,-0.3783 0.6622,0 2.85087,-2.3661 2.38558,-2.579 -0.15405,-0.07 0.27945,-0.084 0.96333,-0.03 0.68389,0.054 1.06539,0.045 0.84779,-0.02 -0.40977,-0.122 -0.52273,-0.4316 -0.22472,-0.6158 0.20815,-0.1286 2.80661,0.7416 3.89847,1.3056 0.43519,0.2248 1.06129,0.6977 1.39134,1.0508 0.33003,0.3532 0.86413,0.7084 1.18691,0.7894 0.37298,0.094 0.58683,0.3031 0.58683,0.5749 0,0.2352 0.10173,0.4277 0.22607,0.4277 0.12434,0 0.20065,0.085 0.16956,0.1897 -0.0311,0.1042 0.26338,0.4604 0.65436,0.7912 0.53383,0.4518 0.95761,0.6016 1.70176,0.6016 0.95674,0 1.99586,0.4775 1.99586,0.9171 0,0.1173 -0.2132,0.2133 -0.47377,0.2133 -0.64409,0 -1.72203,0.8011 -2.12404,1.5785 -0.18162,0.3512 -0.68352,0.8569 -1.11531,1.1238 -0.4318,0.2669 -0.84444,0.6722 -0.91701,0.9008 -0.0725,0.2287 -0.55563,0.6961 -1.07352,1.0388 -0.51787,0.3427 -1.04872,0.7136 -1.17967,0.8243 -0.13096,0.1105 -0.4339,0.3364 -0.67321,0.5018 -0.42288,0.2922 -0.41675,0.3317 0.2183,1.4053 0.49083,0.8297 0.67466,1.0001 0.73888,0.6849 0.0471,-0.2308 -0.0257,-0.531 -0.16176,-0.6669 -0.44057,-0.4407 -0.2629,-0.591 0.41782,-0.3537 0.82528,0.2877 1.38377,0.875 0.83208,0.875 -0.20173,0 -0.36568,0.026 -0.36435,0.056 0.003,0.031 0.15396,0.556 0.33911,1.1663 0.46,1.5164 0.44312,2.222 -0.0508,2.1269 -0.23674,-0.045 -0.4668,-0.4099 -0.59133,-0.9364 -0.13604,-0.5753 -0.37375,-0.9264 -0.71512,-1.0562 -0.28121,-0.1069 -0.62024,-0.5069 -0.75337,-0.8888 -0.31043,-0.8905 -0.58959,-0.9014 -0.41253,-0.016 0.10811,0.5404 0.0577,0.6782 -0.24812,0.6782 -0.31014,0 -0.28736,0.068 0.11869,0.3519 0.27635,0.1936 0.50245,0.4919 0.50245,0.6628 0,0.171 0.30521,0.5283 0.67823,0.7939 0.37304,0.2656 0.67823,0.5777 0.67823,0.6936 0,0.1159 -0.56474,0.2107 -1.25495,0.2107 -1.22054,0 -1.26404,0.021 -1.58556,0.7913 -0.18186,0.4352 -0.37524,0.7913 -0.42977,0.7913 -0.0545,0 -0.40922,-0.4508 -0.78824,-1.0016 z m 4.05853,-8.9459 c -0.18652,-0.1205 -0.64432,-0.2191 -1.01734,-0.2191 -0.52036,0 -0.59932,0.051 -0.33912,0.2191 0.18651,0.1205 0.64432,0.2192 1.01735,0.2192 0.52036,0 0.5993,-0.051 0.33911,-0.2192 z m 1.24218,-0.9057 c -0.55068,-0.6084 -0.37328,-0.7147 0.66249,-0.3969 0.80601,0.2474 0.89233,0.2278 1.27876,-0.2899 0.22791,-0.3054 0.64766,-0.8577 0.93277,-1.2274 l 0.51837,-0.6723 -0.55897,0.3897 c -0.64269,0.448 -1.44369,0.5196 -1.30951,0.1171 0.05,-0.1499 0.54168,-0.5181 1.0927,-0.8181 0.87797,-0.4781 0.91798,-0.5302 0.32362,-0.4215 -0.37302,0.068 -0.85625,0.1929 -1.07386,0.2771 -0.2887,0.1117 -0.39757,0.039 -0.40282,-0.2668 -0.007,-0.4039 -0.019,-0.4043 -0.31741,-0.011 -0.19605,0.2586 -0.36473,0.321 -0.4583,0.1696 -0.0814,-0.1318 -0.65675,-0.2396 -1.27847,-0.2396 -0.62171,0 -1.07411,0.091 -1.00532,0.2023 0.11849,0.1917 -0.35281,0.4759 -0.7893,0.4759 -0.11098,0 -0.35962,-0.3053 -0.5525,-0.6782 -0.27044,-0.523 -0.50468,-0.6783 -1.02316,-0.6783 -0.70457,0 -0.96357,0.4394 -0.27679,0.4695 0.21761,0.01 -0.0113,0.149 -0.50867,0.3099 l -0.9043,0.2925 1.29993,-0.1154 c 0.90833,-0.08 1.29995,-0.036 1.29995,0.1493 0,0.4078 -0.64371,0.5607 -1.02569,0.2437 -0.3768,-0.3127 -0.68842,-0.1627 -0.45311,0.218 0.0819,0.1326 0.40335,0.2411 0.71421,0.2411 0.31085,0 0.50769,0.093 0.43741,0.2068 -0.0703,0.1137 0,0.2538 0.15622,0.3112 0.15619,0.057 -0.003,0.1808 -0.35438,0.2741 -0.38987,0.1036 -0.87392,0.06 -1.24342,-0.1127 -0.55265,-0.2579 -0.56732,-0.2961 -0.16942,-0.4413 0.40382,-0.1474 0.4066,-0.1701 0.038,-0.3115 -0.21868,-0.084 -0.94882,-0.1527 -1.62253,-0.1527 -0.67371,0 -1.22493,-0.043 -1.22493,-0.095 0,-0.052 -0.0618,-0.2554 -0.13723,-0.4521 -0.18692,-0.4872 0.34947,-0.4591 0.72684,0.038 0.18342,0.2417 0.30312,0.2857 0.30751,0.1131 0.003,-0.1555 0.23609,-0.2945 0.51586,-0.3088 0.38279,-0.02 0.41076,-0.052 0.11304,-0.1297 -0.59721,-0.1561 -0.48075,-0.4275 0.40857,-0.9522 0.94953,-0.5603 1.52379,-0.5902 2.78461,-0.1454 0.94802,0.3345 1.21244,0.1845 0.58813,-0.3336 -0.61658,-0.5117 -0.15321,-0.511 0.56567,9e-4 0.3846,0.2738 0.84501,0.442 1.02313,0.3736 0.1781,-0.068 0.38397,-0.027 0.45747,0.092 0.16817,0.2721 1.01124,0.2856 1.01124,0.016 0,-0.11 -0.25434,-0.3666 -0.56519,-0.5703 -0.31086,-0.2038 -0.5652,-0.5349 -0.5652,-0.7357 0,-0.3047 -0.18423,-0.3436 -1.10621,-0.2345 -1.27542,0.1511 -1.57531,0 -0.9127,-0.4662 0.45051,-0.3156 0.45223,-0.3402 0.0551,-0.7871 -0.56534,-0.6362 -2.58957,-1.5563 -2.88575,-1.3117 -0.13042,0.1076 -0.61497,0.2664 -1.07676,0.3527 -0.5363,0.1001 -1.29653,0.5567 -2.10437,1.2636 -0.69561,0.6087 -1.3716,1.1068 -1.50219,1.1068 -0.14371,0 -0.1783,0.2355 -0.0876,0.5967 0.14487,0.5772 0.12328,0.5925 -0.65878,0.4655 -1.08058,-0.1753 -0.83958,0.1327 0.49411,0.6316 1.33152,0.498 1.70116,0.7765 1.5508,1.1684 -0.0639,0.1666 -0.0176,0.3029 0.10275,0.3029 0.12042,0 0.22053,0.2289 0.22243,0.5086 0.003,0.2798 0.0782,0.4069 0.16956,0.2826 0.0914,-0.1243 0.52217,-0.2297 0.95737,-0.2341 0.4352,-0.01 1.04481,-0.095 1.3547,-0.2022 0.50559,-0.1742 0.53175,-0.1559 0.25492,0.1776 -0.2724,0.3283 -0.21353,0.4114 0.50318,0.7109 1.0884,0.4547 1.66024,0.4272 2.34703,-0.1131 0.6032,-0.4744 1.32599,-0.5753 1.8305,-0.2554 0.24238,0.1537 0.23019,0.2589 -0.0642,0.5532 -0.27264,0.2726 -0.50094,0.3112 -0.91359,0.1543 -0.43934,-0.167 -0.73955,-0.086 -1.49083,0.4041 l -0.94072,0.6133 1.21589,0.1327 c 0.66873,0.073 1.76575,0.1493 2.43782,0.1696 1.20968,0.037 1.21782,0.032 0.81151,-0.4167 z m -0.58401,-1.6771 c -0.29177,-0.4258 -0.61008,-0.725 -0.70737,-0.6649 -0.0973,0.06 -0.17688,0.018 -0.17688,-0.094 0,-0.1564 0.94189,-0.7278 1.19972,-0.7278 0.0265,0 0.0471,0.3306 0.0459,0.7347 -0.003,0.5906 0.0976,0.749 0.50648,0.807 0.27977,0.039 0.50867,0.1594 0.50867,0.2661 0,0.1065 0.17804,0.2403 0.39564,0.2971 0.2176,0.057 0.0273,0.1152 -0.42301,0.1296 -0.69204,0.022 -0.90069,-0.093 -1.34914,-0.748 z m 0.93092,-0.3473 c -0.18292,-0.1157 -0.26361,-0.2793 -0.17932,-0.3636 0.20688,-0.2069 0.851,0.056 0.851,0.3477 0,0.2871 -0.23406,0.2926 -0.67168,0.016 z m -9.54358,0.6129 c 0.0594,-0.3135 -0.0836,-0.3957 -0.68863,-0.3957 -0.46004,0 -1.18871,-0.2695 -1.83303,-0.6782 -0.5882,-0.373 -1.16789,-0.6782 -1.28818,-0.6782 -0.1203,0 -0.57317,-0.3758 -1.0064,-0.8351 l -0.78768,-0.8351 0.26946,0.7139 c 0.1626,0.4307 0.529,0.8214 0.92389,0.9849 0.56646,0.2346 2.05607,1.3162 2.7568,2.0018 0.37538,0.3671 1.56956,0.1662 1.65377,-0.2783 z m 11.00223,10.449 c -0.0835,-0.1351 -0.46895,-0.172 -0.91764,-0.088 -0.93228,0.1749 -0.98414,-0.073 -0.20845,-0.9944 0.59242,-0.704 0.72058,-1.275 0.33912,-1.5107 -0.2835,-0.1752 -0.29623,-0.5652 -0.0185,-0.5652 0.32507,0 1.14883,1.4653 1.14883,2.0436 0,0.2864 0.16836,0.7068 0.37416,0.9341 0.35116,0.3881 0.34504,0.4134 -0.0997,0.4134 -0.26062,0 -0.53866,-0.1048 -0.61787,-0.233 z"
         id="path6583-26-5-1-3-52-8"
         sodipodi:nodetypes="scssssscsssssscscscsssssssssssscsssssssscssssccssssssssssssssssssssssssscsssssssssscssssssssssssscssssssssssssssscsssssssssssssssssssscssssssscsssscssssssssssssssssssssssssccssccsssssssssssssssssssccssscssssscssssssssscsssssssccsssssscscssscssssssccssssssssscscsssssssscsscssssscssccsscssssssssscsssscssssssss" />
    </g>
  </g>
</svg>
