<?xml version="1.0" encoding="UTF-8" standalone="no"?>
<!-- Created with Inkscape (http://www.inkscape.org/) -->

<svg
   width="41.008999mm"
   height="41.008999mm"
   viewBox="0 0 41.008999 41.008999"
   version="1.1"
   id="svg1"
   inkscape:version="1.4.2 (f4327f4, 2025-05-13)"
   sodipodi:docname="357.svg"
   xmlns:inkscape="http://www.inkscape.org/namespaces/inkscape"
   xmlns:sodipodi="http://sodipodi.sourceforge.net/DTD/sodipodi-0.dtd"
   xmlns="http://www.w3.org/2000/svg"
   xmlns:svg="http://www.w3.org/2000/svg">
  <sodipodi:namedview
     id="namedview1"
     pagecolor="#ffffff"
     bordercolor="#000000"
     borderopacity="0.25"
     inkscape:showpageshadow="2"
     inkscape:pageopacity="0.0"
     inkscape:pagecheckerboard="0"
     inkscape:deskcolor="#d1d1d1"
     inkscape:document-units="mm"
     inkscape:zoom="1.4513545"
     inkscape:cx="86.470947"
     inkscape:cy="71.657199"
     inkscape:window-width="1050"
     inkscape:window-height="1081"
     inkscape:window-x="857"
     inkscape:window-y="0"
     inkscape:window-maximized="0"
     inkscape:current-layer="layer1"
     showguides="false" />
  <defs
     id="defs1" />
  <g
     inkscape:label="Layer 1"
     inkscape:groupmode="layer"
     id="layer1"
     transform="translate(333.37504,1257.5646)">
    <g
       id="g408"
       transform="translate(-375.88128,-1282.0487)">
      <g
         id="g407">
        <circle
           style="fill:none;stroke:#0000ff;stroke-width:0.1;stroke-linecap:round;stroke-dasharray:none;stroke-opacity:1;paint-order:markers stroke fill"
           id="path13019-1-33-6-2-4-0-0-76-9-2-75-0-8-8"
           cx="63.010735"
           cy="30.178675"
           r="2" />
        <path
           style="fill:#000000;stroke-width:0.558223"
           d="m 59.614857,62.547329 c -7.19204,-1.298779 -12.7837,-6.818166 -14.3486,-14.163117 -0.33832,-1.587905 -0.34313,-5.027994 -0.009,-6.646345 l 0.24373,-1.181574 -0.72857,-0.664632 c -0.40071,-0.365553 -0.96682,-0.871253 -1.25801,-1.123782 -0.60917,-0.528291 -0.63302,-0.63566 -0.24704,-1.112231 0.24686,-0.304807 0.40017,-0.346227 1.21849,-0.329196 0.51486,0.01072 1.18283,0.08775 1.48439,0.171174 l 0.54829,0.151691 0.60997,-1.1312 c 1.71258,-3.175974 4.77008,-6.075624 8.03616,-7.621265 5.64876,-2.673234 12.45953,-2.133654 17.66198,1.399268 1.29849,0.881784 3.26688,2.794983 4.29594,4.175485 0.80774,1.083594 2.18423,3.604111 2.37934,4.35683 0.0869,0.335247 0.10841,0.338496 1.57354,0.237586 1.63286,-0.11246 1.93527,-0.01323 1.93527,0.635074 0,0.259389 -0.35032,0.713197 -1.2185,1.57846 l -1.2185,1.214403 -0.0149,2.35434 c -0.0204,3.230851 -0.52717,5.463358 -1.8339,8.079047 -2.53611,5.076538 -7.33524,8.657551 -12.90395,9.628653 -1.61647,0.281886 -4.62013,0.277694 -6.20585,-0.0087 z m 6.51758,-1.007001 c 5.10929,-1.087162 9.45133,-4.420804 11.74929,-9.020614 1.06699,-2.135807 1.73167,-4.989818 1.73167,-7.435461 v -1.401698 l -0.51079,0.57847 c -0.45069,0.510406 -0.51151,0.676114 -0.51694,1.408375 -0.0285,3.846504 -2.24453,8.5342 -5.26804,11.143765 -3.14708,2.716214 -6.47207,3.967678 -10.54164,3.967678 -2.11223,0 -3.04035,-0.14146 -4.94783,-0.754126 -3.82041,-1.227081 -7.19102,-4.075454 -9.02528,-7.626921 -1.29217,-2.501872 -1.82806,-4.70624 -1.83366,-7.542728 -0.003,-1.320734 -0.0609,-1.769428 -0.29802,-2.291937 -0.16212,-0.357341 -0.26427,-0.680206 -0.22699,-0.717484 0.0373,-0.03729 0.27421,0.38801 0.52651,0.945094 0.53086,1.172158 1.21717,1.93588 2.37289,2.640553 1.02639,0.625807 3.22729,1.372291 4.41071,1.495982 0.49411,0.05164 0.89836,0.150893 0.89836,0.220554 0,0.06966 -0.0778,0.126655 -0.17298,0.126655 -0.33988,0 -0.7132,0.494893 -0.7136,0.945993 -2.3e-4,0.251418 0.14092,0.756208 0.31366,1.121761 0.17275,0.365547 0.43331,0.913945 0.57902,1.218651 0.261,0.545814 0.26025,0.557303 -0.0511,0.775412 -0.17384,0.121759 -0.39645,0.221385 -0.4947,0.221385 -0.29238,0 -0.78952,0.823737 -0.78952,1.308196 0,0.498868 0.27355,1.202642 0.46745,1.202642 0.0686,0 0.10774,0.479737 0.0871,1.066078 -0.0368,1.045809 -0.0306,1.066173 0.32924,1.070801 0.26368,0.0033 0.42744,-0.119868 0.58239,-0.438367 l 0.21556,-0.44309 0.0956,0.455984 c 0.14757,0.703814 0.27205,0.826947 0.73353,0.72559 0.22823,-0.05013 0.45697,-0.02317 0.5083,0.05988 0.0514,0.08306 -0.009,0.545172 -0.13364,1.026919 -0.12483,0.481741 -0.22697,0.973926 -0.22697,1.093743 0,0.368763 2.84377,1.438028 3.82451,1.438028 0.28486,0 0.31153,-0.0838 0.31735,-0.996953 0.003,-0.548321 0.1244,-1.644967 0.26868,-2.436991 0.25455,-1.397316 0.25423,-1.440043 -0.011,-1.440043 -0.42248,0 -0.48476,-0.41692 -0.14984,-1.002965 0.33103,-0.57924 0.91967,-0.923949 0.91967,-0.538568 0,0.121721 -0.164,1.109245 -0.36444,2.194498 -0.20044,1.085259 -0.40889,2.506272 -0.46323,3.157813 l -0.0988,1.184617 0.86078,0.107547 c 1.11916,0.13983 3.86213,-0.01401 5.10366,-0.286218 1.40913,-0.308965 2.7291,-0.871347 2.65857,-1.132696 -0.0316,-0.117238 -0.0453,-0.744865 -0.0303,-1.394732 0.0165,-0.718506 -0.0616,-1.470985 -0.19935,-1.920053 -0.1246,-0.406169 -0.22725,-0.934298 -0.22814,-1.17362 l -0.002,-0.43514 0.51394,0.498136 c 0.43411,0.420744 0.62481,0.499822 1.22753,0.508988 0.62957,0.0096 0.80078,-0.06214 1.45425,-0.609095 0.75517,-0.63207 1.08748,-1.301843 1.08748,-2.191796 0,-0.585158 0.38026,-0.959703 0.87408,-0.860937 0.48985,0.09797 0.81829,-0.238372 0.67466,-0.690896 -0.0552,-0.173847 -0.35478,-0.430016 -0.66577,-0.569253 -0.52403,-0.234616 -0.54463,-0.266167 -0.28113,-0.430731 0.34191,-0.21352 0.37806,-0.886855 0.0543,-1.011093 -0.12653,-0.04856 -0.50125,0.01825 -0.83271,0.148454 -0.33146,0.1302 -0.6601,0.201234 -0.7303,0.157849 -0.0702,-0.04337 -0.0864,-0.336637 -0.0361,-0.651665 0.0786,-0.491755 0.0369,-0.623468 -0.29507,-0.931127 -0.21267,-0.197092 -0.38679,-0.383957 -0.38693,-0.415262 -1.5e-4,-0.03132 0.38678,-0.035 0.85984,-0.0082 1.15914,0.06565 3.15236,-0.424328 4.72598,-1.161752 1.06452,-0.498845 1.42999,-0.771068 2.30747,-1.718714 0.57344,-0.619298 1.69063,-1.801179 2.48266,-2.626412 2.10165,-2.189776 2.01163,-2.3856 -0.99251,-2.159135 -1.10816,0.08354 -3.35701,0.113353 -4.99744,0.06625 -1.70781,-0.04901 -3.35757,-0.02372 -3.85987,0.05925 -0.87031,0.143737 -0.88374,0.14046 -1.69851,-0.414508 -2.64158,-1.799265 -5.62418,-2.664338 -8.11102,-2.352515 -1.9115,0.239679 -4.48525,1.223335 -6.35879,2.430264 l -0.52999,0.34162 -3.10162,-0.643017 c -5.65137,-1.171627 -7.92257,-1.464298 -8.31532,-1.071543 -0.34781,0.347812 -0.16359,0.682612 0.80651,1.465676 0.54106,0.436743 1.246,1.167396 1.56654,1.623671 0.52043,0.740835 0.56318,0.866212 0.39962,1.171839 -0.32136,0.600453 -0.36669,4.020217 -0.0763,5.756766 1.10876,6.630855 5.92351,11.924374 12.36994,13.599981 0.62618,0.162761 1.55667,0.354907 2.06775,0.426996 1.26804,0.178855 4.24267,0.06593 5.54112,-0.210349 z m -10.98454,-6.376026 c -1.80074,-1.755322 -1.9861,-2.1646 -1.37134,-3.027953 0.39122,-0.549409 0.72773,-0.559909 0.73061,-0.02278 10e-4,0.22339 0.098,0.572324 0.2152,0.775406 0.11716,0.203081 0.28069,0.518784 0.36341,0.701558 0.0827,0.182773 0.27681,0.332316 0.43135,0.332316 0.15452,0 0.36945,0.10662 0.4776,0.236932 0.10815,0.130312 0.3489,0.294826 0.53501,0.365586 0.38122,0.144937 0.41485,0.472056 0.1416,1.377433 l -0.17408,0.57684 z m 14.46771,-0.367635 c -0.25925,-0.07663 -0.59898,-0.321201 -0.75495,-0.543502 -0.34119,-0.486291 -0.54328,-1.466989 -0.35192,-1.707722 0.0758,-0.09538 0.18331,-0.487581 0.23887,-0.871543 0.0555,-0.383963 0.16364,-0.736816 0.24017,-0.784125 0.21484,-0.132768 0.16459,-0.363967 -0.0791,-0.363967 -0.12004,0 -0.60191,0.176208 -1.0708,0.391576 -0.46888,0.215363 -0.98545,0.438775 -1.14792,0.496462 -0.16246,0.05769 -0.54688,0.213805 -0.85426,0.346913 -0.30738,0.133109 -0.62013,0.242018 -0.695,0.242018 -0.0749,0 -0.36746,0.156984 -0.6502,0.348856 -0.28274,0.191872 -0.78706,0.392509 -1.12073,0.445864 -0.33367,0.05337 -0.72008,0.158837 -0.85868,0.234404 -0.13861,0.07557 -0.8092,0.233382 -1.4902,0.350703 -1.07599,0.185369 -1.30458,0.18557 -1.74511,0.0017 -0.63812,-0.26663 -0.63082,-0.741186 0.0103,-0.672201 0.58218,0.06264 0.83791,-0.189433 0.6912,-0.681289 -0.48325,-1.62007 -0.48323,-2.601896 5e-5,-2.845448 0.11767,-0.05929 0.67918,-0.185833 1.24782,-0.281189 1.02808,-0.172407 2.21816,-0.500436 2.83244,-0.780725 0.17689,-0.08071 1.37323,-0.143408 2.65854,-0.139333 2.42379,0.0077 3.86359,-0.17723 3.99234,-0.512739 0.10516,-0.274082 0.39772,-0.241872 0.68485,0.0754 0.33425,0.369349 0.30658,0.75243 -0.0844,1.168624 -0.22954,0.244334 -0.25636,0.322218 -0.0888,0.257916 0.53117,-0.203824 0.44244,0.279195 -0.15212,0.828202 -0.60492,0.558564 -0.61202,0.577075 -0.62931,1.641657 -0.01,0.592202 2.4e-4,1.143191 0.0219,1.224423 0.0216,0.08123 0.0542,0.313856 0.0723,0.516937 0.0181,0.203087 0.0415,0.397829 0.0519,0.432768 0.0366,0.121927 0.90523,-0.930441 0.90523,-1.096646 0,-0.09217 0.23262,-0.27852 0.51693,-0.414101 0.50566,-0.24113 0.51694,-0.239684 0.51694,0.06628 0,0.76567 -0.3621,1.483132 -1.03132,2.043438 -0.77588,0.649599 -1.19984,0.780731 -1.87704,0.58058 z m 1.08221,-1.941522 c -0.13605,-0.50776 -0.11824,-0.556979 0.20149,-0.556979 0.34614,0 0.40502,0.463633 0.0919,0.723514 -0.1609,0.133526 -0.22233,0.09866 -0.29338,-0.166535 z m -11.92841,-0.477119 c -0.37588,-0.103232 -0.76008,-0.235079 -0.8538,-0.292995 -0.0937,-0.05792 -0.39735,-0.126404 -0.67473,-0.152183 -1.12366,-0.104432 -2.73368,-1.392538 -2.73534,-2.188424 -3e-4,-0.145451 -0.13883,-0.45148 -0.30783,-0.680067 -0.4014,-0.542928 -0.326,-1.155249 0.18944,-1.538363 l 0.39911,-0.29664 0.59412,0.536754 c 0.66783,0.603339 1.12874,0.764895 1.84885,0.648036 0.27102,-0.04399 0.733,-0.02579 1.02665,0.04047 0.29728,0.06705 0.56951,0.06277 0.61426,-0.0097 0.0442,-0.07153 0.22663,-0.131501 0.40538,-0.133259 1.55918,-0.01535 2.52495,0.02975 2.79797,0.13078 0.26826,0.09924 0.19736,0.139835 -0.40964,0.234577 -0.40373,0.06301 -0.95356,0.133979 -1.22183,0.157698 -0.26828,0.02373 -0.58222,0.121503 -0.69765,0.217305 -0.31283,0.259619 -0.42237,1.108537 -0.2338,1.811982 0.22709,0.847204 0.26865,1.615347 0.09,1.662617 -0.0812,0.02149 -0.45523,-0.04538 -0.83111,-0.148615 z m 2.36136,-5.241928 c 0.29757,-0.258335 0.54954,-0.302702 1.71908,-0.302702 1.15414,0 1.42541,0.0465 1.71907,0.294596 l 0.34867,0.294591 -0.51792,-0.207714 c -0.68578,-0.275026 -2.59316,-0.270147 -3.1701,0.0081 l -0.44748,0.215824 z m 0.72212,0.19027 c 0.10154,-0.04097 0.26771,-0.04097 0.36925,0 0.10154,0.04097 0.0185,0.07449 -0.18463,0.07449 -0.20308,0 -0.28616,-0.03355 -0.18462,-0.07449 z m 1.25823,-0.0045 c 0.14371,-0.03746 0.3431,-0.035 0.44309,0.0056 0.1,0.04047 -0.0176,0.0711 -0.26127,0.06809 -0.24371,-0.0028 -0.32552,-0.03612 -0.18182,-0.07356 z m -0.81514,-1.714231 c -0.22339,-0.08827 -0.40617,-0.212482 -0.40617,-0.276024 0,-0.06354 0.16614,-0.05236 0.36919,0.02484 0.20304,0.0772 0.56859,0.100474 0.81233,0.05175 0.27628,-0.05526 0.44315,-0.0278 0.44315,0.07289 0,0.08884 -0.093,0.125851 -0.20661,0.08224 -0.11363,-0.0436 -0.25048,-0.0083 -0.3041,0.07849 -0.11328,0.183281 -0.16368,0.180847 -0.70779,-0.03416 z m 9.19411,-0.09717 c 0,-0.176611 0.0634,-0.439506 0.14081,-0.584208 0.0913,-0.170683 0.0843,-0.447087 -0.0199,-0.786905 -0.0884,-0.288094 -0.12029,-0.685046 -0.0708,-0.882121 0.13908,-0.554132 1.09916,-1.446625 2.0079,-1.866537 0.76624,-0.354064 0.98793,-0.382014 3.25916,-0.41088 2.28973,-0.02908 2.94763,-0.122486 4.03324,-0.572497 0.16634,-0.06895 -5.6e-4,0.255448 -0.44309,0.860601 -0.39054,0.534198 -0.94269,1.310558 -1.22701,1.725245 -0.57367,0.836732 -1.93448,1.945704 -2.95393,2.407254 -0.65039,0.294463 -1.08214,0.323781 -3.24933,0.220632 -0.36554,-0.01742 -0.8474,0.02283 -1.0708,0.08945 -0.35567,0.106029 -0.40616,0.08116 -0.40616,-0.200034 z m -18.16667,-0.154322 c -0.38185,-0.208753 -0.79738,-0.280005 -1.59006,-0.272642 -2.08769,0.01937 -3.55652,-1.160752 -4.92597,-3.957836 -0.41841,-0.854595 -0.9346,-1.760937 -1.14709,-2.014097 -0.33004,-0.393207 -0.34329,-0.442018 -0.0909,-0.334906 0.16246,0.06896 0.86033,0.283186 1.55081,0.476053 0.69048,0.192871 1.78713,0.515329 2.437,0.71658 0.64986,0.201245 1.57488,0.470604 2.0556,0.598571 0.69728,0.18562 1.04076,0.392911 1.69851,1.025049 0.80452,0.7732 0.82322,0.809574 0.77266,1.502564 -0.0638,0.874506 -0.0627,1.799683 0.003,2.171248 0.0688,0.391392 -0.16146,0.418377 -0.76318,0.08942 z m 3.95222,0.08556 c -1.30177,-0.464604 -1.67204,-1.045524 -1.24167,-1.948032 0.90121,-1.889842 3.9661,-1.408704 4.59883,0.721939 0.12273,0.413264 0.22314,0.77353 0.22314,0.800599 0,0.02707 -0.216,0.180914 -0.48002,0.341883 -0.57471,0.350408 -2.22783,0.394994 -3.10028,0.08361 z m 1.21716,-1.537581 c 0,-0.192308 -0.17558,-0.320208 -0.31841,-0.231936 -0.15275,0.0944 -0.021,0.355018 0.17943,0.355018 0.0764,0 0.13898,-0.05538 0.13898,-0.123082 z m -1.02417,-0.17751 c 0.54159,-0.289851 0.20342,-1.119153 -0.40878,-1.00244 -0.31846,0.06071 -0.43285,0.643241 -0.18497,0.941918 0.21125,0.254538 0.22803,0.256252 0.59375,0.06052 z m 7.9804,1.738458 c -0.57917,-0.297868 -0.68425,-0.591878 -0.46868,-1.311378 0.54481,-1.818417 2.91187,-2.424637 4.24845,-1.088055 1.24527,1.245268 0.0102,2.578333 -2.39115,2.580806 -0.56863,5.58e-4 -1.19351,-0.08103 -1.38862,-0.181373 z m 2.64404,-1.576846 c 0,-0.07644 -0.0665,-0.180055 -0.14769,-0.230262 -0.0812,-0.05018 -0.1477,0.01234 -0.1477,0.138981 0,0.126644 0.0665,0.230261 0.1477,0.230261 0.0812,0 0.14769,-0.06254 0.14769,-0.13898 z m -0.82892,-0.341036 c 0.18967,-0.301178 -0.0213,-0.747517 -0.38748,-0.819706 -0.32268,-0.06361 -0.70895,0.373675 -0.59738,0.676287 0.19461,0.527823 0.69674,0.600945 0.98486,0.143419 z m -10.7612,-1.640568 c 0.87185,-0.600106 2.43728,-0.684543 3.21719,-0.173529 0.52939,0.346869 0.40688,0.462968 -0.17241,0.163403 -0.57015,-0.294837 -1.93541,-0.300491 -2.62853,-0.01088 -0.65815,0.274992 -0.79528,0.281914 -0.41625,0.02099 z m 9.07928,0.0693 c 0,-0.07704 0.24453,-0.291202 0.5434,-0.475913 0.70381,-0.434973 1.68176,-0.439355 2.51128,-0.01128 0.93803,0.484102 0.90977,0.658977 -0.0365,0.225773 -0.98229,-0.44971 -1.90813,-0.419242 -2.59048,0.08524 -0.23525,0.173926 -0.42772,0.253194 -0.42772,0.176153 z m -0.5831,-2.690424 c -0.19885,-0.07941 -1.24417,-0.124132 -2.32292,-0.09937 -1.07875,0.02479 -1.83826,-5.19e-4 -1.6878,-0.05618 0.51827,-0.191721 3.66725,-0.123512 4.25493,0.09217 0.30824,0.113124 0.46074,0.206152 0.33889,0.206727 -0.12185,5.58e-4 -0.38425,-0.06393 -0.5831,-0.143346 z m -3.03546,-1.460479 c -0.35724,-0.05125 3.4e-4,-0.09078 0.90451,-0.100028 0.82242,-0.0084 1.5629,0.02702 1.64551,0.07876 0.18921,0.118477 -1.75899,0.134733 -2.55002,0.02127 z m -1.46392,16.726316 c -0.16134,-0.161343 -0.27197,0.09524 -0.15614,0.362125 0.10984,0.253059 0.11781,0.252825 0.179,-0.005 0.0352,-0.148515 0.025,-0.309139 -0.0228,-0.356934 z M 78.579527,39.09314 c 0,-0.03305 -0.20385,-0.514905 -0.45301,-1.0708 -1.14655,-2.558114 -3.6227,-5.462761 -5.99974,-7.038001 -5.86731,-3.888204 -13.73263,-3.70461 -19.33011,0.451207 -1.51461,1.124517 -3.33271,3.085486 -4.30249,4.640599 -1.07923,1.730614 -1.0833,1.748701 -0.39287,1.743582 0.55152,-0.0039 0.59084,-0.03997 1.2343,-1.126545 0.8405,-1.419292 2.90828,-3.618867 4.31142,-4.586209 2.88173,-1.986695 5.7053,-2.876346 9.12896,-2.876346 3.32249,0 6.16937,0.870056 8.93564,2.730885 2.07623,1.39664 4.48164,4.223453 5.39484,6.339934 0.3512,0.813967 0.38677,0.84683 0.91919,0.849253 0.30463,0.0011 0.55387,-0.02451 0.55387,-0.05756 z"
           id="path383" />
        <path
           style="vector-effect:non-scaling-stroke;fill:none;stroke:#ff0000;stroke-width:0.264583;stroke-dasharray:none;stroke-opacity:1;-inkscape-stroke:hairline"
           d="m 59.614857,62.54733 c -7.19204,-1.298779 -12.7837,-6.818166 -14.3486,-14.163118 -0.33832,-1.587905 -0.34313,-5.027995 -0.009,-6.646345 l 0.24373,-1.181575 -0.72857,-0.664631 c -0.40071,-0.365553 -0.96682,-0.871253 -1.25801,-1.123782 -0.60917,-0.528291 -0.63302,-0.63566 -0.24704,-1.112232 0.24686,-0.304806 0.40017,-0.346227 1.21849,-0.329195 0.51486,0.01072 1.18283,0.08775 1.48439,0.171173 l 0.54829,0.151692 0.60997,-1.1312 c 1.71258,-3.175974 4.77008,-6.075624 8.03616,-7.621265 5.64876,-2.673234 12.45953,-2.133654 17.66198,1.399268 1.29849,0.881784 3.26688,2.794983 4.29594,4.175485 0.80774,1.083593 2.18423,3.604111 2.37934,4.35683 0.0869,0.335247 0.10841,0.338496 1.57354,0.237586 1.63286,-0.11246 1.93527,-0.01323 1.93527,0.635073 0,0.25939 -0.35032,0.713198 -1.2185,1.57846 l -1.2185,1.214404 -0.0149,2.35434 c -0.0204,3.230851 -0.52717,5.463358 -1.8339,8.079048 -2.53611,5.076538 -7.33524,8.657551 -12.90395,9.628653 -1.61647,0.281886 -4.62013,0.277694 -6.20585,-0.0087 z"
           id="path384" />
      </g>
    </g>
  </g>
</svg>
