<?xml version="1.0" encoding="UTF-8" standalone="no"?>
<!-- Created with Inkscape (http://www.inkscape.org/) -->

<svg
   width="41.008999mm"
   height="41.008999mm"
   viewBox="0 0 41.008999 41.009"
   version="1.1"
   id="svg1"
   inkscape:version="1.4.2 (f4327f4, 2025-05-13)"
   sodipodi:docname="260.svg"
   xmlns:inkscape="http://www.inkscape.org/namespaces/inkscape"
   xmlns:sodipodi="http://sodipodi.sourceforge.net/DTD/sodipodi-0.dtd"
   xmlns="http://www.w3.org/2000/svg"
   xmlns:svg="http://www.w3.org/2000/svg">
  <sodipodi:namedview
     id="namedview1"
     pagecolor="#ffffff"
     bordercolor="#000000"
     borderopacity="0.25"
     inkscape:showpageshadow="2"
     inkscape:pageopacity="0.0"
     inkscape:pagecheckerboard="0"
     inkscape:deskcolor="#d1d1d1"
     inkscape:document-units="mm"
     inkscape:zoom="2.8970539"
     inkscape:cx="84.223494"
     inkscape:cy="68.000116"
     inkscape:window-width="1168"
     inkscape:window-height="1081"
     inkscape:window-x="3737"
     inkscape:window-y="0"
     inkscape:window-maximized="0"
     inkscape:current-layer="layer1" />
  <defs
     id="defs1" />
  <g
     inkscape:label="Layer 1"
     inkscape:groupmode="layer"
     id="layer1"
     transform="translate(-114.0891,-77.774176)">
    <g
       id="g24"
       transform="translate(-440.64108,302.59108)">
      <circle
         style="fill:none;stroke:#ff0000;stroke-width:0.1;stroke-dasharray:none"
         id="path788-8-1-8-1-9-2-6-3-4-7-1-6-1-0-8"
         cx="575.23468"
         cy="-204.31241"
         r="19.954653" />
      <circle
         style="fill:none;stroke:#0000ff;stroke-width:0.1;stroke-linecap:round;stroke-dasharray:none;stroke-opacity:1;paint-order:markers stroke fill"
         id="path13019-1-33-3-83-70-3-7-5-9-5-4"
         cx="575.23468"
         cy="-219.32338"
         r="2" />
      <path
         style="fill:#000000;stroke-width:0.1;stroke-dasharray:none"
         d="m 570.25054,-191.09138 c -0.0446,-0.11615 0.01,-0.36783 0.11873,-0.55929 0.27574,-0.48045 0.0683,-0.43641 -0.38702,0.0821 -0.46243,0.52668 -0.55197,0.5378 -0.48181,0.0598 l 0.0544,-0.37051 -0.28633,0.26898 -0.28632,0.26899 v -0.36729 c 0,-0.38111 0.33773,-0.7811 1.03191,-1.22219 l 0.35572,-0.226 -0.58277,-0.52761 c -0.54538,-0.49377 -0.92354,-0.69615 -0.73711,-0.39451 0.0452,0.0732 -0.0759,0.0531 -0.26937,-0.0448 -0.1934,-0.0979 -0.65594,-0.27638 -1.02787,-0.39672 -0.82043,-0.26547 -1.03292,-0.40466 -1.42111,-0.93082 -0.24185,-0.32779 -0.30089,-0.3604 -0.30391,-0.1678 -0.003,0.23303 -0.008,0.23285 -0.14616,-0.006 -0.4438,-0.76571 -0.5833,-2.55134 -0.27796,-3.55793 0.21347,-0.70369 0.25247,-0.62409 -1.38914,-2.83549 -0.50199,-0.67621 -0.98852,-1.37582 -1.08116,-1.55467 -0.24341,-0.46991 -0.42197,-1.33462 -0.27561,-1.33462 0.0698,0 0.0855,-0.16638 0.0377,-0.39958 -0.0515,-0.25136 -0.31742,-0.63102 -0.71673,-1.02346 -0.74491,-0.73213 -1.39244,-1.96205 -1.58875,-3.01763 -0.13189,-0.70892 -0.0772,-1.27116 0.23658,-2.43295 0.0562,-0.2076 0.0374,-0.26962 -0.0624,-0.2079 -0.31466,0.19448 -0.10011,-0.1306 0.73723,-1.11685 1.73343,-2.04176 2.25045,-2.34307 4.40762,-2.56874 0.85045,-0.089 1.69982,-0.22015 1.8875,-0.29149 0.18767,-0.0714 0.41564,-0.12979 0.5066,-0.12979 0.26424,0 1.37049,0.93206 1.89735,1.59858 0.26598,0.33648 0.50184,0.55877 0.52412,0.49397 0.0223,-0.0648 0.35439,0.39531 0.73797,1.02251 0.3836,0.6272 0.95715,1.42923 1.27458,1.78228 l 0.57713,0.64192 0.5082,-0.29159 c 0.2795,-0.16044 0.82145,-0.41899 1.20432,-0.57469 0.42346,-0.17221 0.6735,-0.34208 0.63835,-0.43369 -0.0396,-0.10316 0.0414,-0.13156 0.2578,-0.0903 0.17358,0.0332 0.8342,0.0215 1.46806,-0.0262 l 1.15246,-0.0865 0.0775,-0.58401 c 0.0555,-0.41874 0.19883,-0.72579 0.50627,-1.08496 0.23582,-0.27551 0.42877,-0.5613 0.42877,-0.63508 0,-0.19883 0.27859,-0.16409 0.93263,0.11631 0.43913,0.18823 0.60693,0.21356 0.67584,0.10204 0.11825,-0.19117 0.79373,0.85614 0.90509,1.40315 0.056,0.2749 0.26775,0.54645 0.6924,0.88783 0.3365,0.27047 0.77584,0.75458 0.97633,1.07579 0.20049,0.32121 0.45024,0.58401 0.55501,0.58401 0.10477,0 0.39635,0.10509 0.64801,0.23344 0.36406,0.18572 0.56687,0.44219 0.99235,1.25493 l 0.53478,1.02152 -0.0826,0.98887 c -0.11278,1.35081 -0.27232,1.88865 -0.68147,2.29781 l -0.34795,0.34795 0.5977,1.01579 c 0.32873,0.55868 0.79168,1.2704 1.02876,1.58158 0.23709,0.31118 0.54716,0.86446 0.68906,1.22949 0.3018,0.77639 0.51415,0.97107 1.05923,0.97107 0.65714,0 0.98672,0.19837 1.51285,0.91057 0.70867,0.95931 0.62843,1.76586 -0.19628,1.97285 -0.18341,0.046 -0.49873,0.20136 -0.70068,0.34518 -0.57704,0.41087 -1.04853,0.32279 -2.12448,-0.39684 -0.5282,-0.35329 -1.03544,-0.608 -1.14239,-0.57363 -0.10572,0.034 -0.63495,0.2106 -1.17592,0.39244 -0.54098,0.18183 -1.05113,0.34909 -1.13368,0.37164 -0.0826,0.0226 -0.30885,0.38919 -0.50288,0.81469 -0.35065,0.76896 -1.0683,1.67532 -1.2124,1.53121 -0.0414,-0.0414 -0.005,-0.15964 0.0802,-0.26276 0.19838,-0.23905 0.18242,-0.23743 -0.68525,0.0695 -0.43662,0.15434 -1.16745,0.28073 -1.83274,0.31677 -1.35936,0.0736 -1.65971,0.17294 -0.89416,0.29566 0.31967,0.0512 0.91444,0.29557 1.32171,0.54296 0.68383,0.41541 0.74047,0.4835 0.74047,0.89028 0,0.43201 -0.005,0.43622 -0.24476,0.21898 -0.22349,-0.20226 -0.22731,-0.23425 -0.044,-0.36834 0.32252,-0.23582 -1.14721,-1.07437 -2.00821,-1.14578 -0.64544,-0.0536 -0.82882,-0.17622 -0.46946,-0.31413 0.32934,-0.12642 0.1964,-0.28472 -0.39958,-0.47598 -0.54638,-0.17533 -0.60516,-0.17243 -0.91243,0.0451 -0.4791,0.33909 -0.96254,0.95094 -0.96254,1.21819 0,0.34383 0.37839,0.4867 1.28898,0.4867 0.48081,0 0.95848,0.0751 1.16832,0.18355 0.19521,0.10091 0.44445,0.1492 0.55383,0.10717 0.17301,-0.0664 0.16233,-0.11519 -0.0821,-0.37542 -0.24197,-0.25756 -0.38379,-0.29672 -1.02101,-0.28198 -1.04678,0.0242 -1.1155,-0.0212 -0.1901,-0.12578 0.75481,-0.0854 0.81821,-0.0719 1.23122,0.26 0.45141,0.36276 1.23111,0.60682 1.23111,0.38534 0,-0.30284 -0.88412,-0.78575 -1.6309,-0.89082 l -0.76659,-0.10781 0.80782,0.0278 c 0.7309,0.025 0.86101,0.0712 1.36599,0.48505 0.4488,0.36777 0.54684,0.51659 0.50038,0.75963 l -0.0577,0.30226 -0.47829,-0.24401 -0.47831,-0.24402 v 0.2484 c 0,0.28238 -0.0409,0.29751 -0.33978,0.12546 -0.45713,-0.26314 -0.97626,-0.38413 -1.82257,-0.42476 -1.11208,-0.0534 -1.40316,-0.19965 -1.40316,-0.70505 0,-0.29222 0.12177,-0.49587 0.51225,-0.8563 0.54254,-0.50088 0.54907,-0.54312 0.0549,-0.35522 -0.17027,0.0646 -0.57498,0.14744 -0.89938,0.1837 -0.32438,0.0362 -0.80984,0.10091 -1.0788,0.14374 -0.44172,0.0703 -0.47295,0.0584 -0.32304,-0.12225 0.14584,-0.1757 0.12802,-0.19995 -0.14616,-0.19995 -0.1717,0 -0.33253,0.0611 -0.35742,0.13573 -0.059,0.17699 -0.9148,-0.17437 -1.29528,-0.53182 l -0.27833,-0.26146 v 0.28031 c 0,0.15418 0.0858,0.61175 0.19086,1.01682 0.17275,0.66667 0.17264,0.76426 -9.3e-4,1.02951 -0.10557,0.16117 -0.34925,0.37434 -0.54144,0.47373 -0.1922,0.0995 -0.52433,0.37989 -0.73808,0.62333 -0.3288,0.37449 -0.40112,0.41014 -0.46966,0.23148 z m 0.57591,-0.53341 c 0,-0.0648 0.24298,-0.26016 0.53994,-0.43419 0.48028,-0.28146 0.76612,-0.7001 0.62924,-0.92158 -0.0412,-0.0669 -0.96535,0.0284 -1.85496,0.19133 -0.28856,0.0528 -0.91255,0.58874 -0.91255,0.78373 0,0.0704 0.25323,-0.0653 0.56269,-0.30151 0.30948,-0.23622 0.65527,-0.42929 0.76844,-0.42903 0.12883,2.9e-4 0.0594,0.0897 -0.18598,0.2393 -0.43576,0.2657 -0.72032,0.68791 -0.53914,0.79988 0.0632,0.039 0.18782,-0.0289 0.27697,-0.15097 0.14856,-0.20333 1.0057,-0.7658 1.16702,-0.7658 0.0379,0 -0.1314,0.22146 -0.37587,0.49215 -0.49709,0.55023 -0.52427,0.6144 -0.26021,0.6144 0.1014,0 0.18442,-0.0529 0.18442,-0.11776 z m 0.8867,-1.58688 c 0.0481,-0.0446 0.0539,-0.48148 0.0128,-0.97095 l -0.0746,-0.88993 -0.50471,-0.003 c -0.27758,-0.001 -0.74587,-0.11214 -1.04066,-0.24589 -0.68816,-0.31227 -0.75498,-0.30659 -0.75498,0.0642 0,0.16905 -0.0554,0.30738 -0.1229,0.30738 -0.0677,0 -0.12289,0.13091 -0.12289,0.29102 0,0.20287 0.1476,0.38869 0.48713,0.61339 0.26791,0.1773 0.61231,0.4917 0.76535,0.6987 0.25406,0.34365 0.32121,0.36937 0.7731,0.29606 0.27218,-0.0441 0.53427,-0.11663 0.5824,-0.16127 z m 3.84684,-0.90344 c 0.13525,10e-4 0.48467,-0.081 0.7765,-0.18326 0.3773,-0.1322 0.51052,-0.23829 0.46106,-0.36715 -0.0382,-0.0996 -0.0695,-0.27027 -0.0695,-0.3791 0,-0.16452 -0.0324,-0.1577 -0.19283,0.0408 -0.18037,0.22328 -0.18809,0.20425 -0.11968,-0.29515 0.0403,-0.29359 0.18344,-0.75004 0.31825,-1.01433 l 0.24515,-0.48052 h -0.29032 c -0.15964,0 -0.56194,0.0825 -0.89388,0.18311 -0.33196,0.10075 -0.61004,0.18368 -0.61795,0.18442 -0.008,9.3e-4 -0.15193,-0.20614 -0.31994,-0.45973 -0.16804,-0.25358 -0.56911,-0.76535 -0.89126,-1.13729 -0.64814,-0.74828 -1.16886,-1.73606 -1.17071,-2.2208 -0.001,-0.36027 -0.22478,-0.58468 -1.74901,-1.75687 -1.20427,-0.92612 -1.34882,-1.10992 -1.19374,-1.51781 0.0592,-0.15578 0.0821,-0.2831 0.051,-0.2831 -0.0311,0 0.1115,-0.33075 0.31694,-0.735 0.30052,-0.59139 0.3662,-0.85901 0.33623,-1.36985 l -0.0372,-0.63486 -0.58905,0.75114 c -0.32398,0.41314 -0.57376,0.76677 -0.55509,0.78586 0.0186,0.0191 -0.30482,0.47976 -0.7189,1.02373 -1.97978,2.60073 -3.12989,4.78419 -3.1057,5.8961 l 0.008,0.36884 0.14439,-0.36884 c 0.13588,-0.34715 0.80127,-1.58164 1.34928,-2.50315 0.20995,-0.35303 0.26223,-0.38336 0.35995,-0.20872 0.12338,0.22039 -0.0967,0.60833 -0.28056,0.4947 -0.056,-0.0345 -0.33948,0.42249 -0.63009,1.01568 -0.29063,0.5932 -0.56359,1.10621 -0.60662,1.14001 -0.16349,0.12851 -0.25306,0.90599 -0.16774,1.45599 0.0669,0.43145 0.11054,0.51314 0.17677,0.33125 0.0805,-0.22111 0.0945,-0.2153 0.16582,0.069 0.0428,0.17069 0.24112,0.53568 0.44062,0.81108 0.30505,0.42111 0.50895,0.54989 1.28239,0.80994 0.98712,0.33189 1.18972,0.2904 1.18972,-0.24364 0,-0.15546 0.0554,-0.28278 0.12289,-0.28278 0.0675,0 0.12289,-0.19198 0.12289,-0.42663 v -0.42661 l 0.4449,0.30192 c 0.43902,0.29791 1.1434,0.5493 1.54297,0.55063 0.40842,0.001 0.62706,-0.16897 0.85163,-0.66346 0.12594,-0.27714 0.23005,-0.41031 0.23153,-0.29596 0.001,0.11439 0.0667,0.24743 0.14487,0.29575 0.25406,0.15706 0.0383,-1.69077 -0.26871,-2.30108 -0.34669,-0.68923 -0.6295,-1.01517 -0.73407,-0.84599 -0.0449,0.0728 -0.30412,-0.13749 -0.59613,-0.48386 -0.2841,-0.33692 -0.58477,-0.58642 -0.66815,-0.55443 -0.23444,0.09 -1.09276,-1.46714 -1.22366,-2.21985 -0.0334,-0.19189 -0.18721,-0.0494 -0.70049,0.64861 -0.36177,0.49195 -0.68552,0.86671 -0.71947,0.83276 -0.0988,-0.0988 1.2347,-1.78873 1.41155,-1.78873 0.0882,0 0.16028,0.12947 0.16028,0.28772 0,0.40542 0.7195,1.80016 0.8978,1.74041 0.081,-0.0271 0.36857,0.22423 0.63905,0.55861 0.27049,0.33436 0.55834,0.58345 0.63968,0.55354 0.18147,-0.0667 0.6965,0.52939 1.04544,1.21008 0.31586,0.61612 0.43643,2.05512 0.21753,2.59625 -0.0821,0.20285 -0.17489,0.29968 -0.20627,0.21516 -0.09,-0.24223 -0.23049,-0.18115 -0.3903,0.16963 -0.12289,0.26957 -0.11327,0.36101 0.0579,0.55013 0.31024,0.34281 0.59262,0.41923 1.69212,0.45796 0.44618,0.016 0.58099,0.0632 0.53323,0.18756 -0.052,0.13557 0.0427,0.14439 0.50938,0.047 0.31532,-0.0658 0.68395,-0.11824 0.8192,-0.1168 z m 6.42669,-0.34477 c 0.50128,-0.22174 0.53922,-0.22393 0.47079,-0.0273 -0.1253,0.36016 0.27526,-0.2012 0.61221,-0.85788 0.44353,-0.86439 0.41087,-0.95693 -0.33767,-0.95693 -0.73131,0 -0.70473,-0.0855 0.11423,-0.36739 0.52167,-0.17956 0.58669,-0.24333 0.62237,-0.61042 l 0.0398,-0.40993 -1.02343,0.0725 c -1.44396,0.10235 -1.6827,-0.0339 -0.67998,-0.38787 0.43558,-0.1537 0.91232,-0.3639 1.05946,-0.46696 0.26149,-0.18315 0.26255,-0.19506 0.047,-0.52852 -0.12129,-0.18765 -0.47273,-0.61971 -0.78105,-0.96017 -0.44344,-0.48963 -0.60362,-0.59492 -0.76643,-0.50381 -0.11326,0.0634 -0.59648,0.66235 -1.07395,1.33112 -0.66033,0.92489 -0.95205,1.23439 -1.21875,1.29294 -0.19285,0.0424 -0.44612,0.18255 -0.56286,0.31154 -0.11679,0.12899 -0.45799,0.32836 -0.75837,0.44307 -0.44991,0.17182 -0.60086,0.31658 -0.85674,0.82154 -0.23739,0.46847 -0.2826,0.67395 -0.19181,0.87165 0.0653,0.14231 0.1759,0.40217 0.24565,0.57754 0.1892,0.47559 1.38767,0.89588 2.35506,0.82591 0.40203,-0.029 0.70626,-0.0128 0.6761,0.0359 -0.085,0.13749 1.3979,-0.23651 2.00834,-0.50654 z m 7.30597,-1.71158 c 0.16661,-0.13108 0.45199,-0.27569 0.63419,-0.32141 0.60579,-0.1521 0.91467,-0.94865 0.50098,-1.292 -0.10637,-0.0882 -0.29766,-0.36486 -0.42509,-0.61464 -0.27799,-0.54489 -0.41729,-0.60757 -1.54542,-0.69521 -0.81565,-0.0634 -0.88627,-0.0488 -1.07579,0.22177 -0.23446,0.33473 -0.25838,0.94746 -0.0711,1.82067 0.10332,0.48177 0.21604,0.66829 0.52252,0.86462 0.49411,0.31652 1.06981,0.3229 1.45972,0.0162 z m -1.23192,-1.27576 c -0.43482,-0.46287 -0.34381,-0.57609 0.46311,-0.57609 0.40175,0 0.76152,0.0502 0.7995,0.11166 0.0804,0.13012 -0.61506,0.7489 -0.84172,0.7489 -0.0844,0 -0.27385,-0.12803 -0.42089,-0.28455 z m 0.93493,-0.30998 c 0.0318,-0.0951 -0.14278,-0.1431 -0.52011,-0.1431 -0.52112,0 -0.55749,0.0192 -0.44198,0.23518 0.0693,0.12931 0.19565,0.26139 0.28095,0.29343 0.18011,0.0677 0.61148,-0.17646 0.68114,-0.38546 z m -4.62468,1.1543 c 0.45061,-0.0955 0.99346,-0.26371 1.20632,-0.37378 l 0.38703,-0.20014 -0.32242,-0.25363 -0.32243,-0.25362 -1.24431,0.62955 c -1.35532,0.68571 -1.28868,0.78746 0.29581,0.45162 z m -7.74317,-0.35947 c 0.65493,-0.15642 1.34374,-0.38474 1.53071,-0.50723 l 0.33992,-0.22273 -0.30121,-0.11712 c -0.29271,-0.11375 -0.28562,-0.12418 0.25206,-0.37115 l 0.55327,-0.25408 -0.43032,-0.0788 -0.43031,-0.0788 0.36884,-0.1706 c 0.20287,-0.0939 0.52751,-0.27855 0.72142,-0.41044 l 0.35257,-0.23984 -0.35257,-0.14551 -0.35257,-0.14551 0.48597,-0.25084 c 0.42299,-0.21834 0.50391,-0.33042 0.62419,-0.86452 l 0.1383,-0.61366 -0.99305,-0.21248 c -0.54616,-0.1168 -1.82294,-0.51142 -2.83727,-0.87678 -1.25254,-0.45116 -2.03158,-0.66436 -2.42822,-0.66452 -0.58122,-2.2e-4 -0.58402,0.002 -0.58402,0.414 0,0.38315 0.0345,0.41996 0.46105,0.49045 0.25359,0.0419 0.71627,0.0769 1.02816,0.0775 0.34853,9.3e-4 0.91687,0.14568 1.47462,0.3756 1.14573,0.47244 1.35795,0.66995 0.60168,0.55993 -2.44288,-0.35543 -2.74043,-0.24654 -1.3489,0.49364 1.11048,0.59067 1.68066,1.03116 1.33476,1.03116 -0.1054,0 -0.74018,-0.16534 -1.41049,-0.36744 -0.67033,-0.2021 -1.2699,-0.36807 -1.33241,-0.36884 -0.1751,-0.002 0.4291,0.59827 0.88643,0.88093 0.2245,0.13877 0.37859,0.28182 0.34245,0.31796 -0.16364,0.16365 -1.54556,-1.05352 -1.54556,-1.3613 0,-0.0339 0.31813,0.0241 0.70695,0.12867 0.38883,0.1046 0.78995,0.1996 0.89138,0.21103 0.10139,0.0112 0.31182,0.09 0.46751,0.1747 0.15562,0.0847 0.377,0.13541 0.49179,0.11295 0.12225,-0.0241 -0.293,-0.31194 -1.00321,-0.69541 -0.66656,-0.3599 -1.1645,-0.70097 -1.10654,-0.75794 0.13589,-0.13348 1.45348,-0.18241 2.01111,-0.0746 0.412,0.0796 0.40677,0.0722 -0.12289,-0.17449 -0.47309,-0.22034 -2.65093,-0.53769 -2.81191,-0.40975 -0.025,0.0199 -0.12017,0.3569 -0.21123,0.74885 l -0.16568,0.71261 0.51861,0.45522 c 0.60787,0.53358 1.72862,1.105 1.97891,1.00894 0.0961,-0.0369 0.21117,-0.008 0.2558,0.0643 0.0468,0.0759 -0.0192,0.13139 -0.15659,0.13139 -0.47785,0 -1.27458,-0.37309 -1.8714,-0.87634 -0.3364,-0.28365 -0.64697,-0.48037 -0.69018,-0.43717 -0.13365,0.13348 0.33042,1.17881 0.76379,1.72066 0.22655,0.28324 0.64946,0.82996 0.93981,1.21496 0.29034,0.38499 0.58323,0.70156 0.65085,0.70346 0.0675,0.002 0.6588,-0.1245 1.31371,-0.28104 z m 10.42961,-0.49943 c -0.17298,-0.8333 -0.021,-1.421 0.45783,-1.76977 l 0.32041,-0.2334 -0.29342,-0.72382 c -0.26411,-0.65156 -1.11509,-1.76887 -1.3472,-1.76887 -0.18349,0 -1.24817,-0.51408 -1.18842,-0.57383 0.0339,-0.0338 0.32207,0.0538 0.6406,0.1947 0.31851,0.14087 0.60501,0.25617 0.6367,0.25617 0.13204,0 -0.77304,-1.44569 -1.50923,-2.41056 -0.87265,-1.14372 -0.93329,-1.38667 -0.55441,-2.22117 0.30621,-0.67439 0.73665,-0.95449 1.32108,-0.85966 0.24643,0.04 0.50816,0.13397 0.58163,0.20882 0.0974,0.0993 0.0339,0.11022 -0.2353,0.0401 -0.55411,-0.14407 -0.92715,-0.094 -1.18022,0.15867 -0.22137,0.22102 -0.20911,0.22606 0.44973,0.18486 0.38055,-0.0238 0.74939,0.0175 0.84182,0.0942 0.13011,0.10797 0.18131,0.0526 0.24476,-0.26467 0.065,-0.32485 -0.0209,-0.6001 -0.45116,-1.4466 -0.52815,-1.03903 -0.72898,-1.234 -1.45705,-1.41462 -0.31643,-0.0784 -0.32369,-0.0663 -0.37664,0.63636 -0.0353,0.46871 -0.24505,1.18401 -0.60663,2.06886 -0.46379,1.13493 -0.59108,1.3451 -0.79139,1.30686 -0.13124,-0.025 -0.76433,-0.0807 -1.40674,-0.12353 -1.17294,-0.0781 -1.44889,-0.16961 -2.17633,-0.7208 -1.17287,-0.8887 -1.36978,-3.1245 -0.36898,-4.19015 l 0.27076,-0.28832 -0.30738,0.0727 c -0.16905,0.04 -0.89759,0.20399 -1.61899,0.36459 -0.72139,0.16059 -1.38532,0.35398 -1.47539,0.42974 -0.09,0.0757 -0.44039,0.3173 -0.77851,0.53678 -0.3381,0.21949 -0.79092,0.66267 -1.00624,0.98487 -0.38519,0.57635 -0.38862,0.5943 -0.21258,1.11093 0.11519,0.33794 0.25469,0.52836 0.39151,0.53422 0.11696,0.005 0.42005,0.10059 0.67363,0.21241 0.40404,0.17818 0.46106,0.18032 0.46106,0.0172 0,-0.12803 0.12482,-0.18607 0.4004,-0.18607 0.22021,0 0.57965,-0.0515 0.79875,-0.11423 0.38023,-0.1091 0.4299,-0.0812 1.09099,0.6119 0.49874,0.52287 0.87997,0.79623 1.3619,0.97655 0.3681,0.13765 0.71536,0.22191 0.77169,0.18709 0.0563,-0.0348 0.41331,0.18994 0.79327,0.49945 0.50431,0.41081 0.80482,0.78908 1.11296,1.40098 0.91413,1.81524 2.70387,4.69235 2.819,4.53172 0.016,-0.0221 0.005,-0.30752 -0.0241,-0.63412 -0.0443,-0.4952 -0.11214,-0.62983 -0.4096,-0.81069 l -0.35663,-0.21688 0.27758,-0.12401 c 0.26283,-0.11744 0.24818,-0.13717 -0.27569,-0.37099 l -0.55327,-0.24701 0.34159,-0.16133 c 0.37565,-0.17742 0.25059,-0.35931 -0.24938,-0.36271 -0.24265,-0.002 -0.42226,-0.24481 -0.18443,-0.24967 0.0507,-9.3e-4 0.16659,-0.0491 0.2575,-0.10669 0.22858,-0.14487 -0.14728,-0.87507 -0.45055,-0.87507 -0.11953,0 -0.42968,-0.27826 -0.68905,-0.61837 -0.25936,-0.3401 -0.72547,-0.84184 -1.03578,-1.115 -0.59021,-0.51952 -3.49143,-2.08233 -3.13546,-1.68898 0.11247,0.12434 0.56186,0.39487 0.99855,0.60119 0.43667,0.20631 0.76559,0.4035 0.73091,0.43817 -0.0905,0.0905 -1.5709,-0.66825 -1.91341,-0.98072 -0.25575,-0.23332 -0.75645,-1.05821 -0.75645,-1.24625 0,-0.0388 0.17089,0.12401 0.37978,0.36191 0.25724,0.29298 1.00572,0.74913 2.31955,1.41365 1.64872,0.83391 2.03426,1.08451 2.56974,1.67041 1.01876,1.11469 2.08755,3.29408 2.2878,4.66515 0.10813,0.73983 0.4152,1.36629 0.88459,1.80423 0.39678,0.37021 1.91464,1.34643 1.98462,1.27644 0.0254,-0.0254 -0.0181,-0.35541 -0.0967,-0.73353 z m -2.17296,-0.22025 c 0.20618,-0.15466 0.20879,-0.18429 0.0294,-0.33317 -0.16473,-0.13669 -0.28265,-0.1306 -0.72211,0.0372 -0.45528,0.17388 -0.52193,0.24562 -0.50043,0.53871 0.0144,0.18597 0.0294,0.35308 0.0348,0.37137 0.0144,0.0496 0.89765,-0.41846 1.15836,-0.6141 z m -1.09984,-0.3462 c 0.44667,-0.13797 0.81212,-0.2943 0.81212,-0.34742 0,-0.0531 -0.13573,-0.22402 -0.30147,-0.37978 l -0.30146,-0.2832 -0.6817,0.45249 c -0.37494,0.24887 -0.88937,0.52874 -1.14318,0.62196 l -0.46149,0.16946 0.63253,0.008 c 0.34789,0.005 0.99798,-0.10428 1.44465,-0.24217 z m -4.59214,0.002 c 0.12932,-0.0693 0.46796,-0.47036 0.75241,-0.89137 0.28445,-0.42103 0.83826,-1.10151 1.23068,-1.51218 l 0.71352,-0.74669 -0.26703,-0.632 -0.26701,-0.632 -0.2231,0.36686 c -0.12274,0.20178 -0.3605,0.42947 -0.52841,0.50598 -0.1679,0.0765 -0.33401,0.24135 -0.36913,0.36634 -0.0351,0.12498 -0.0995,0.35129 -0.14311,0.5029 -0.073,0.25435 -0.0618,0.26147 0.14584,0.0923 0.21511,-0.17534 0.21493,-0.16613 -0.005,0.20829 -0.12611,0.21546 -0.35768,0.42398 -0.51469,0.4634 -0.15707,0.0395 -0.2855,0.13188 -0.2855,0.20558 0,0.22831 0.65562,-0.002 0.95286,-0.33452 0.15209,-0.17029 0.27662,-0.25119 0.27662,-0.1798 0,0.0714 -0.0968,0.23021 -0.21516,0.35291 -0.1184,0.12273 -0.32461,0.43428 -0.45838,0.69238 -0.21973,0.42394 -0.98611,1.0517 -1.28394,1.0517 -0.065,0 -0.15241,0.0553 -0.19411,0.12289 -0.0993,0.1607 0.37981,0.15867 0.68172,-0.003 z m 0.47792,-0.96889 c 0.3343,-0.46947 0.32363,-0.60969 -0.0223,-0.29403 -0.15209,0.13878 -0.4426,0.33988 -0.64547,0.44683 l -0.36884,0.19444 0.3912,0.005 c 0.29466,0.003 0.45398,-0.0833 0.64548,-0.35216 z m 4.11255,-0.11102 c 0.0334,-0.0539 -0.18822,-0.45471 -0.49228,-0.89072 -0.30407,-0.43601 -0.78004,-1.20769 -1.05774,-1.71485 -0.27768,-0.50717 -0.58177,-1.03278 -0.67574,-1.16802 -0.15834,-0.22804 -0.16473,-0.2191 -0.0868,0.1229 0.0462,0.20287 0.19557,0.63428 0.33187,0.95869 0.21236,0.50542 0.225,0.6325 0.0884,0.88786 -0.14695,0.27443 -0.12112,0.33971 0.32506,0.82407 0.26651,0.28933 0.61546,0.70327 0.77545,0.91987 0.23275,0.31511 0.33489,0.37027 0.51108,0.27597 0.12112,-0.0648 0.24743,-0.16193 0.28074,-0.21582 z m -17.19275,-2.08305 c 0.39159,-0.65931 1.086,-1.7053 1.54314,-2.3244 0.45713,-0.61911 0.80019,-1.15663 0.76232,-1.1945 -0.0379,-0.0379 0.21714,-0.38173 0.56667,-0.76416 0.83197,-0.91032 1.03835,-1.31964 0.93722,-1.85875 -0.11022,-0.58711 0.15193,-0.93966 1.02691,-1.38134 0.6161,-0.31102 1.73604,-1.37736 1.73604,-1.65297 0,-0.0411 -0.28005,-0.4206 -0.62234,-0.84359 -0.34229,-0.42297 -0.81852,-1.09039 -1.05831,-1.48315 -0.53477,-0.87591 -2.4306,-2.88893 -2.91713,-3.09743 -0.28755,-0.12321 -0.4768,-0.12001 -0.98359,0.0164 -0.34516,0.0929 -1.12548,0.20289 -1.73409,0.24439 -1.65936,0.11327 -2.28458,0.43241 -3.60531,1.84072 l -1.06674,1.1375 -0.2968,1.22321 c -0.26458,1.09035 -0.28129,1.30174 -0.15386,1.94611 0.19647,0.99336 0.83403,2.21515 1.49186,2.85894 l 0.54946,0.53773 0.34611,-1.33689 c 0.26353,-1.0179 0.33437,-1.53491 0.29686,-2.16679 -0.0497,-0.83802 -0.006,-0.95091 0.2622,-0.68238 0.25107,0.25108 0.15963,-0.056 -0.22384,-0.75173 -0.20181,-0.36611 -0.344,-0.68859 -0.31599,-0.71661 0.0831,-0.0831 0.65648,0.97804 0.78015,1.44376 0.15385,0.57932 0.0518,0.87338 -0.16636,0.47967 -0.15241,-0.27489 -0.16385,-0.24863 -0.16711,0.38097 -0.002,0.37192 -0.14808,1.24454 -0.32489,1.93915 -0.27863,1.09486 -0.3063,1.36805 -0.20785,2.05272 0.0624,0.43437 0.0683,0.76184 0.0128,0.72771 -0.18578,-0.11487 -0.10252,0.32703 0.16011,0.84875 0.14327,0.28471 0.68896,1.09858 1.21268,1.80859 0.52372,0.71004 1.04915,1.44311 1.1676,1.62907 0.1184,0.18596 0.22985,0.33812 0.24755,0.33812 0.0176,0 0.35258,-0.53945 0.74417,-1.19875 z m 6.32897,-0.18442 c 0.0743,-0.28739 0.15995,-0.60953 0.19053,-0.71588 0.0351,-0.12241 -0.13685,-0.33595 -0.46837,-0.58165 -1.02202,-0.75754 -1.08797,-0.83641 -0.96211,-1.15048 0.11519,-0.28731 0.11519,-0.28727 0.12305,0.0403 0.005,0.2278 0.14841,0.43713 0.46886,0.68632 0.71284,0.55435 0.76843,0.5724 0.76843,0.24961 0,-0.20711 -0.10396,-0.32691 -0.37099,-0.42772 -0.23927,-0.0903 -0.43383,-0.29041 -0.54796,-0.56356 -0.45323,-1.08475 0.60867,-2.21933 2.42038,-2.586 l 0.76028,-0.15386 -0.63906,-0.26558 c -0.35148,-0.14599 -0.63906,-0.21331 -0.63906,-0.14936 0,0.28004 -0.24962,0.0719 -0.54275,-0.45262 -0.38207,-0.6836 -0.38433,-0.72481 -0.0717,-1.30804 0.13541,-0.25257 0.20739,-0.45923 0.16011,-0.45923 -0.31039,0 -2.15738,0.6596 -2.50453,0.89442 -0.46165,0.31229 -0.45096,0.2412 -0.35518,2.36372 0.0271,0.59974 -0.0393,0.90971 -0.35492,1.65748 -0.2135,0.50588 -0.3882,0.98671 -0.3882,1.06848 0,0.0818 0.26281,0.3676 0.584,0.63514 0.55958,0.46608 2.15425,1.71803 2.20835,1.73372 0.0144,0.005 0.0868,-0.22759 0.161,-0.51497 z m 10.65348,-0.29663 c -0.0362,-0.0363 -0.13107,-0.026 -0.21036,0.0231 -0.10701,0.0661 -0.10107,0.116 0.0226,0.1928 0.16395,0.10187 0.32286,-0.0809 0.18781,-0.21585 z m -3.57814,-0.37139 c -0.0371,-0.0967 -0.0128,-0.14118 0.0546,-0.0995 0.0669,0.0414 0.12145,-0.0178 0.12145,-0.13156 0,-0.17304 -0.0311,-0.18089 -0.19113,-0.0481 -0.10508,0.0873 -0.24249,0.25456 -0.30524,0.37183 -0.0943,0.17622 -0.0706,0.20182 0.13653,0.1476 0.15354,-0.0401 0.22472,-0.13333 0.1837,-0.24022 z m -0.93047,-0.039 c 0,-0.13524 -0.0691,-0.23207 -0.1537,-0.21516 -0.0845,0.0168 -0.13845,-0.0425 -0.11984,-0.13203 0.0186,-0.0895 -0.0229,-0.12771 -0.0922,-0.085 -0.0693,0.0428 -0.12594,0.0225 -0.12594,-0.0451 0,-0.24384 0.2175,-0.24968 0.43295,-0.0112 0.12097,0.13365 0.26917,0.24301 0.32939,0.24301 0.0602,0 -0.0384,-0.14776 -0.21897,-0.32844 -0.29167,-0.29167 -0.30652,-0.34445 -0.13284,-0.47148 0.14889,-0.10894 0.16142,-0.17725 0.0523,-0.28631 -0.0788,-0.0788 -0.21519,-0.14327 -0.3031,-0.14327 -0.0879,0 -0.15979,-0.077 -0.15979,-0.17127 0,-0.0942 -0.0829,-0.20312 -0.18442,-0.24204 -0.11471,-0.044 -0.18442,9.3e-4 -0.18442,0.1184 0,0.12578 -0.0926,0.17596 -0.27664,0.14984 -0.15209,-0.0217 -0.27663,-0.12225 -0.27663,-0.22372 0,-0.11215 0.10829,-0.18059 0.27663,-0.17465 0.15306,0.005 0.27664,-0.0632 0.27664,-0.1537 0,-0.19677 0.38917,-0.21687 0.57627,-0.0298 0.0963,0.0963 0.15674,0.0963 0.21626,0 0.0454,-0.0735 0.0241,-0.13364 -0.0477,-0.13364 -0.0716,0 -0.13027,-0.0871 -0.13027,-0.19344 0,-0.11808 0.0837,-0.17721 0.21516,-0.15177 0.32319,0.0626 0.28541,0.78355 -0.0395,0.75388 -0.22239,-0.0204 -0.22376,-0.0112 -0.022,0.13653 0.1184,0.087 0.21516,0.23228 0.21516,0.32286 0,0.13124 0.0311,0.13364 0.15274,0.0128 0.1216,-0.12161 0.11535,-0.17627 -0.0306,-0.26862 -0.16231,-0.10252 -0.16218,-0.11615 9.3e-4,-0.11776 0.13108,-0.001 0.18083,-0.12706 0.17205,-0.43431 -0.0128,-0.43248 -0.0934,-0.59918 -0.30526,-0.62807 -0.0619,-0.008 -0.16802,-0.0223 -0.23564,-0.0308 -0.0677,-0.008 -0.1229,-0.12258 -0.1229,-0.25354 0,-0.20223 -0.0631,-0.22793 -0.41842,-0.17027 -0.33594,0.0546 -0.44468,0.0188 -0.55166,-0.18105 -0.09,-0.16812 -0.21383,-0.2279 -0.3814,-0.18408 -0.13653,0.0356 -0.32352,0.002 -0.41562,-0.0741 -0.12642,-0.10493 -0.20226,-0.0971 -0.3093,0.0319 -0.11247,0.13556 -0.0871,0.18523 0.12257,0.24007 0.16879,0.0441 0.23945,0.13428 0.1953,0.24936 -0.0745,0.19416 0.31265,0.62459 0.44381,0.49344 0.0436,-0.0436 0.15594,-0.0161 0.24981,0.0622 0.13942,0.11568 0.15979,0.0854 0.1115,-0.1669 -0.0523,-0.27403 -0.0177,-0.30845 0.31107,-0.30845 0.2283,0 0.39941,0.0767 0.44678,0.20002 0.10556,0.27501 -0.15803,0.55913 -0.43666,0.4707 -0.15642,-0.0496 -0.22854,-0.0112 -0.22854,0.12016 0,0.30351 -0.3952,0.22516 -0.68268,-0.13541 -0.17866,-0.22407 -0.32875,-0.30229 -0.47346,-0.24676 -0.27263,0.1046 -0.11615,0.36881 0.17361,0.29303 0.24926,-0.0651 0.57357,0.41718 0.43319,0.64433 -0.12723,0.20575 0.1802,0.5148 0.43242,0.43474 0.34941,-0.11086 0.79397,0.91798 0.48039,1.11178 -0.1937,0.11968 -0.51145,-0.20168 -0.44617,-0.45129 0.0314,-0.12064 -0.0199,-0.28336 -0.11439,-0.36174 -0.12434,-0.10316 -0.17173,-0.10445 -0.17173,-0.005 0,0.0759 -0.1383,0.13798 -0.30738,0.13798 -0.16905,0 -0.30738,-0.0553 -0.30738,-0.1229 0,-0.0675 -0.0473,-0.12289 -0.10524,-0.12289 -0.0579,0 -0.0995,0.16586 -0.0923,0.36857 0.0144,0.41323 0.0951,0.454 0.36438,0.18471 0.10139,-0.1014 0.24548,-0.18442 0.32011,-0.18442 0.20437,0 0.37014,0.53266 0.20451,0.65707 -0.086,0.0645 -0.0582,0.0781 0.073,0.0361 0.11615,-0.0372 0.244,-0.0144 0.2841,0.0502 0.046,0.0746 0.15867,0.072 0.30614,-0.006 0.1853,-0.0992 0.26051,-0.074 0.36571,0.12257 0.16995,0.31756 0.36969,0.31842 0.36969,0.001 z m -0.59308,-1.0111 c -0.2123,-0.21231 -0.17675,-0.34134 0.094,-0.34134 0.30869,0 0.4178,0.18117 0.21198,0.35199 -0.11712,0.0972 -0.20109,0.0943 -0.30601,-0.0112 z m -1.10611,-2.09748 c -0.078,-0.094 -0.0879,-0.22756 -0.0244,-0.3302 0.0863,-0.13958 0.14198,-0.14295 0.29303,-0.0176 0.10252,0.0852 0.15627,0.23372 0.11921,0.3302 -0.0834,0.21754 -0.21683,0.2236 -0.38777,0.0177 z m 2.12951,3.23152 c 0.0417,-0.0675 -0.01,-0.12289 -0.11567,-0.12289 -0.10541,0 -0.19169,0.0553 -0.19169,0.12289 0,0.0675 0.0521,0.1229 0.11567,0.1229 0.0637,0 0.14985,-0.0554 0.19167,-0.1229 z m 1.32198,-0.0913 c 0.0273,0.0815 0.0549,-0.0998 0.0614,-0.40277 l 0.0128,-0.55094 -0.1553,0.43032 c -0.0855,0.23667 -0.24729,0.44821 -0.35965,0.47007 -0.1123,0.0218 -0.20428,0.0974 -0.20428,0.16784 0,0.0704 0.13413,0.0401 0.29819,-0.0674 0.21833,-0.1431 0.31142,-0.15578 0.34758,-0.0472 z m 2.5176,-0.22883 c -0.0409,-0.0409 -0.14695,-0.0452 -0.23564,-0.01 -0.098,0.0393 -0.069,0.0684 0.0743,0.0743 0.12963,0.005 0.20223,-0.0237 0.16136,-0.0646 z m -3.30987,-0.30378 c -0.0242,-0.0727 -0.0966,-0.1322 -0.16087,-0.1322 -0.0642,0 -0.13669,0.0595 -0.16085,0.1322 -0.0242,0.0727 0.0481,0.13219 0.16085,0.13219 0.11278,0 0.18509,-0.0595 0.16087,-0.13219 z m 0.26547,-0.24414 c -0.0701,-0.13107 -0.2047,-0.23843 -0.29893,-0.23843 -0.0942,0 -0.269,-0.0967 -0.38838,-0.21516 -0.20678,-0.20497 -0.21302,-0.20449 -0.13171,0.01 0.0468,0.12386 0.0854,0.27085 0.0854,0.3266 0,0.0558 0.11391,0.0716 0.25315,0.0351 0.18577,-0.0486 0.27133,0.003 0.32137,0.19456 0.0375,0.14343 0.11743,0.23036 0.17748,0.1932 0.0619,-0.0383 0.0541,-0.17082 -0.0183,-0.306 z m -2.70089,0.13044 c 0,-0.0675 -0.0586,-0.1229 -0.13027,-0.1229 -0.0716,0 -0.0959,0.0554 -0.0542,0.1229 0.0417,0.0677 0.10043,0.12289 0.13028,0.12289 0.0298,0 0.0542,-0.0553 0.0542,-0.12289 z m 0.7377,0 c 0,-0.0675 -0.0863,-0.1229 -0.19169,-0.1229 -0.10541,0 -0.15755,0.0554 -0.11567,0.1229 0.0417,0.0677 0.12802,0.12289 0.19168,0.12289 0.0637,0 0.11568,-0.0553 0.11568,-0.12289 z m -1.9541,-0.66382 c -0.0491,-0.21469 0.1099,-0.4572 0.24507,-0.37367 0.0963,0.0595 0.0879,0.11488 -0.0282,0.18678 -0.1168,0.0722 -0.0876,0.0963 0.0993,0.0821 0.212,-0.016 0.27344,-0.11262 0.30908,-0.48635 0.0367,-0.38434 0.005,-0.46643 -0.1778,-0.46643 -0.33008,0 -0.42064,-0.37146 -0.1423,-0.58376 0.22398,-0.17085 0.22153,-0.17529 -0.0518,-0.0937 -0.24884,0.0745 -0.282,0.0475 -0.24969,-0.20243 0.0205,-0.15851 -0.008,-0.36 -0.0621,-0.44777 -0.0547,-0.0878 -0.0722,-0.23024 -0.039,-0.31661 0.044,-0.11471 -0.0477,-0.10476 -0.33966,0.0366 -0.32656,0.15819 -0.35602,0.20116 -0.16061,0.23448 0.16791,0.0286 0.2209,0.11118 0.17764,0.27664 -0.0339,0.12963 -0.0112,0.23582 0.0497,0.23582 0.0613,0 0.10829,0.1798 0.10444,0.39958 -0.003,0.21976 0.01,0.5379 0.0308,0.70695 0.0313,0.25525 -0.0196,0.31397 -0.3004,0.34628 -0.18596,0.0213 -0.33812,0.1 -0.33812,0.17473 0,0.0748 -0.0942,0.23992 -0.20927,0.36709 -0.20117,0.22229 -0.1969,0.22654 0.11022,0.10974 0.17577,-0.0669 0.34919,-0.0919 0.38538,-0.0557 0.0363,0.0363 0.0355,-0.0504 -0.002,-0.19227 -0.0485,-0.18531 -0.01,-0.25805 0.13588,-0.25805 0.13605,0 0.19556,0.0916 0.17966,0.27663 -0.0128,0.1521 -0.0112,0.38729 0.003,0.52252 0.0239,0.2192 0.0416,0.21251 0.16127,-0.0614 0.074,-0.16907 0.12305,-0.35713 0.10909,-0.41794 z m 0.11439,-0.62176 c -0.20251,-0.24402 -0.043,-0.49778 0.1909,-0.30367 0.1915,0.15899 0.23549,0.48271 0.0656,0.48271 -0.0594,0 -0.17476,-0.0805 -0.25648,-0.17904 z m 0.13124,1.00326 c -0.15787,-0.15787 -0.31784,-0.0358 -0.20101,0.15321 0.0452,0.0732 0.13862,0.0984 0.20744,0.0558 0.0839,-0.052 0.0818,-0.12065 -0.006,-0.20899 z m 4.04454,0.16663 c 0,-0.0637 -0.0554,-0.14985 -0.12289,-0.19167 -0.0676,-0.0417 -0.1229,0.01 -0.1229,0.11567 0,0.1054 0.0553,0.19167 0.1229,0.19167 0.0675,0 0.12289,-0.052 0.12289,-0.11567 z m -4.73353,-0.13028 c -0.0417,-0.0675 -0.1972,-0.11904 -0.34537,-0.11439 -0.25971,0.008 -0.26054,0.0128 -0.0234,0.11439 0.33841,0.14536 0.45872,0.14536 0.36884,0 z m 3.50404,0 c 0,-0.0675 -0.083,-0.12289 -0.18442,-0.12289 -0.1014,0 -0.18442,0.0553 -0.18442,0.12289 0,0.0675 0.0829,0.1229 0.18442,0.1229 0.10139,0 0.18442,-0.0554 0.18442,-0.1229 z m 1.75506,-0.45816 c -0.0443,-0.11536 -0.10733,-0.13204 -0.18936,-0.0502 -0.0677,0.0675 -0.085,0.22194 -0.0385,0.34293 0.0684,0.1779 0.10444,0.1875 0.18938,0.0502 0.0577,-0.0934 0.0751,-0.24772 0.0385,-0.34292 z m -0.40261,0.15465 c 0,-0.11792 -0.0711,-0.15337 -0.20461,-0.10203 -0.12193,0.0468 -0.17378,0.0287 -0.12834,-0.0449 0.0419,-0.0679 -0.005,-0.12338 -0.10284,-0.12338 -0.3734,0 -0.081,0.3198 0.405,0.44303 0.0168,0.005 0.0306,-0.0735 0.0306,-0.17278 z m -3.31962,-0.12674 c 0,-0.10139 -0.083,-0.18442 -0.18444,-0.18442 -0.10139,0 -0.18442,0.0829 -0.18442,0.18442 0,0.1014 0.083,0.18442 0.18442,0.18442 0.1014,0 0.18444,-0.0829 0.18444,-0.18442 z m -2.70488,-0.103 c 0,-0.0799 -0.1107,-0.21424 -0.2459,-0.29871 -0.21298,-0.133 -0.2459,-0.12273 -0.2459,0.0764 0,0.17891 -0.0682,0.21685 -0.30737,0.17113 -0.16905,-0.0323 -0.30738,-0.10573 -0.30738,-0.16305 0,-0.0942 0.34001,-0.32844 0.49181,-0.33879 0.0339,-0.002 0.16387,-0.0435 0.28904,-0.0915 0.13685,-0.0525 0.26613,-0.0249 0.32435,0.0693 0.0533,0.0861 0.14712,0.12546 0.20863,0.0874 0.0615,-0.038 0.19219,-0.0183 0.29039,0.0438 0.13942,0.0882 0.11792,0.11342 -0.098,0.11487 -0.19403,10e-4 -0.27663,0.0752 -0.27663,0.24777 0,0.13525 0.0521,0.2459 0.11599,0.2459 0.18317,0 0.49877,-0.51915 0.49877,-0.82041 0,-0.15065 0.0967,-0.33031 0.21516,-0.39923 0.19216,-0.11198 0.18558,-0.12578 -0.0614,-0.12915 -0.19913,-0.003 -0.27664,0.0677 -0.27664,0.25118 0,0.17189 -0.0667,0.24197 -0.20497,0.21516 -0.30293,-0.0587 -0.35045,-0.3535 -0.0688,-0.42714 0.27802,-0.0727 0.61495,-0.68742 0.41357,-0.75454 -0.0693,-0.0231 -0.0955,-0.12145 -0.0582,-0.21845 0.0416,-0.1083 -0.008,-0.17648 -0.12979,-0.17648 -0.10861,0 -0.30824,-0.1107 -0.44349,-0.2459 -0.28791,-0.28791 -0.47237,-0.30518 -0.89854,-0.0841 -0.21964,0.11391 -0.28077,0.21223 -0.2066,0.33223 0.0579,0.0937 0.0781,0.21457 0.0448,0.26851 -0.0334,0.0539 -0.003,0.098 0.0682,0.098 0.0708,0 0.11551,-0.1245 0.0995,-0.27662 -0.0414,-0.39067 0.56733,-0.40367 0.623,-0.0128 0.0261,0.18316 0.10364,0.24607 0.25448,0.20662 0.24782,-0.0648 0.56816,0.25395 0.44899,0.44676 -0.0436,0.0706 -0.18496,0.12835 -0.3141,0.12835 -0.17235,0 -0.21334,0.0573 -0.15417,0.21517 0.0706,0.18842 0.0549,0.19418 -0.12675,0.0464 -0.19536,-0.15883 -0.24764,-0.13621 -0.17672,0.0765 0.0169,0.0507 0.0722,0.0784 0.1229,0.0614 0.0507,-0.0168 0.0923,0.0245 0.0923,0.0922 0,0.0676 -0.0847,0.1229 -0.18829,0.1229 -0.26237,0 -0.38039,-0.37552 -0.1698,-0.54032 0.22882,-0.17907 0.25416,-0.56622 0.0371,-0.56622 -0.0939,0 -0.17075,0.1014 -0.17075,0.2254 0,0.12401 -0.039,0.26438 -0.0866,0.31199 -0.0477,0.0476 -0.089,0.23666 -0.0923,0.42009 -0.005,0.24965 -0.0674,0.33348 -0.25153,0.33348 -0.20474,0 -0.24354,-0.0773 -0.23179,-0.46178 0.0112,-0.39187 -0.008,-0.43074 -0.13589,-0.25667 -0.0889,0.12161 -0.23228,0.17356 -0.35219,0.12755 -0.26414,-0.1014 -0.27314,-0.70006 -0.0112,-0.70006 0.10541,0 0.15755,-0.0553 0.11568,-0.12289 -0.13076,-0.2115 -0.30881,-0.13525 -0.43032,0.18444 -0.0643,0.16904 -0.1975,0.30736 -0.29604,0.30736 -0.21819,0 -0.31729,0.29763 -0.27517,0.82646 0.0468,0.58846 0.16884,0.61018 0.16884,0.03 0,-0.27683 0.0581,-0.56139 0.12899,-0.63234 0.14327,-0.14327 0.39633,-0.0366 0.39633,0.16697 0,0.0825 -0.0682,0.0741 -0.18443,-0.0223 -0.14985,-0.1245 -0.18442,-0.11872 -0.18442,0.0305 0,0.12787 0.12017,0.17904 0.3959,0.16874 0.33029,-0.0128 0.41643,0.0433 0.51975,0.33528 0.1038,0.2934 0.0844,0.37888 -0.11937,0.52802 -0.14182,0.1038 -0.37116,0.14857 -0.55046,0.10717 -0.21946,-0.0505 -0.25703,-0.0372 -0.1314,0.0462 0.26382,0.17537 2.09858,0.15081 2.09858,-0.0281 z m 7.67404,-0.24816 c -0.0427,-0.11118 -0.12883,-0.20203 -0.19164,-0.20203 -0.0629,0 -0.0525,0.11535 0.0231,0.25643 0.15658,0.29253 0.28567,0.25084 0.16854,-0.0544 z m -9.17864,0.0128 c 0.0772,-0.0958 0.0825,-0.26313 0.0144,-0.44436 -0.091,-0.24052 -0.14167,-0.26444 -0.29321,-0.13861 -0.27101,0.22491 -0.22367,0.73666 0.0682,0.73666 0.0481,0 0.14311,-0.0691 0.21124,-0.15369 z m 6.5455,0.0346 c 0,-0.0655 0.0968,-0.0879 0.21516,-0.0499 0.18161,0.0584 0.18641,0.0485 0.0307,-0.0635 -0.26326,-0.18937 -0.4918,-0.16707 -0.4918,0.048 0,0.1014 0.0553,0.18442 0.12289,0.18442 0.0675,0 0.12289,-0.0536 0.12289,-0.11904 z m 0.98472,-0.064 c -0.0836,-0.10076 -0.20139,-0.15258 -0.26183,-0.1152 -0.13316,0.0823 -0.29589,-0.29269 -0.17811,-0.41047 0.0459,-0.0459 0.13476,-0.002 0.19771,0.0976 0.073,0.11551 0.11504,0.1269 0.11632,0.0314 0.001,-0.12514 -0.35891,-0.40391 -0.52233,-0.40391 -0.10155,0 -0.0234,0.55936 0.0961,0.68721 0.26183,0.28021 0.77874,0.38629 0.5522,0.11326 z m -2.706,-0.11712 c 0,-0.0298 -0.0554,-0.0884 -0.1229,-0.13027 -0.0675,-0.0417 -0.12289,-0.0173 -0.12289,0.0542 0,0.0716 0.0553,0.13028 0.12289,0.13028 0.0676,0 0.1229,-0.0244 0.1229,-0.0542 z m -5.40975,-0.25315 c 0,-0.10139 -0.0536,-0.18442 -0.11904,-0.18442 -0.0655,0 -0.0873,0.0829 -0.0483,0.18442 0.039,0.10139 0.0926,0.18442 0.11904,0.18442 0.0266,0 0.0483,-0.0829 0.0483,-0.18442 z m 3.44068,0.0923 c -0.005,-0.20807 -0.22573,-0.42539 -0.35321,-0.3466 -0.22749,0.14054 -0.15321,0.4388 0.10926,0.4388 0.13524,0 0.24506,-0.0416 0.24402,-0.0923 z m 2.52234,-0.1537 c -0.0417,-0.0675 -0.12803,-0.12289 -0.19169,-0.12289 -0.0637,0 -0.11567,0.0553 -0.11567,0.12289 0,0.0675 0.0863,0.1229 0.19167,0.1229 0.10541,0 0.15755,-0.0554 0.11568,-0.1229 z m 1.34382,0.0144 c 0.0804,-0.12995 -0.27208,-0.45045 -0.3784,-0.34413 -0.10252,0.10252 0.0457,0.45315 0.19148,0.45315 0.0658,0 0.14984,-0.0491 0.18692,-0.10894 z m 2.03728,-0.13685 c -0.12996,-0.2428 -0.36886,-0.33837 -0.36886,-0.1476 0,0.12931 0.26704,0.39345 0.39777,0.39345 0.0565,0 0.0435,-0.1107 -0.0289,-0.24591 z m -8.08799,-0.26842 c -0.18781,-0.18781 -0.32639,-0.0493 -0.22222,0.22222 0.0615,0.16027 0.11487,0.17615 0.22419,0.0667 0.10942,-0.10942 0.10894,-0.17812 -0.002,-0.28899 z m 11.86433,-0.21166 c 0.43309,-0.64267 0.36611,-2.10184 -0.0964,-2.10184 -0.0452,0 -0.11086,0.25243 -0.14568,0.56093 -0.0642,0.56933 -0.46622,1.16036 -0.78935,1.16036 -0.23146,0 -0.20249,0.16252 0.0967,0.54302 0.3253,0.41357 0.57577,0.37003 0.93461,-0.16247 z m -8.01809,0.2342 c -0.0417,-0.0677 -0.1314,-0.12289 -0.19892,-0.12289 -0.0676,0 -0.0887,0.0553 -0.047,0.12289 0.0417,0.0675 0.1314,0.12289 0.19894,0.12289 0.0675,0 0.0887,-0.0553 0.047,-0.12289 z m 2.27456,-0.25074 c 0,-0.20812 -0.029,-0.22379 -0.17081,-0.0922 -0.1237,0.11487 -0.1322,0.18342 -0.0307,0.24886 0.19678,0.12691 0.20156,0.12322 0.20156,-0.15658 z m 0.36884,0.0736 c 0,-0.0299 -0.0554,-0.0884 -0.12289,-0.13028 -0.0677,-0.0417 -0.1229,-0.0173 -0.1229,0.0542 0,0.0716 0.0554,0.13027 0.1229,0.13027 0.0675,0 0.12289,-0.0244 0.12289,-0.0542 z m 1.22949,0.006 c 0,-0.026 -0.15209,-0.14519 -0.3381,-0.26492 l -0.33811,-0.2176 0.23421,0.26494 c 0.20725,0.23443 0.442,0.35001 0.442,0.21758 z m -5.65564,-0.27026 c 0,-0.10701 -0.0658,-0.17278 -0.14599,-0.146 -0.22797,0.0761 -0.26578,0.34067 -0.0486,0.34067 0.10701,0 0.19467,-0.0876 0.19467,-0.19466 z m 2.50344,0.01 c -0.0735,-0.19151 -0.53625,-0.26223 -0.53625,-0.082 0,0.16459 0.14727,0.26638 0.38547,0.26638 0.14648,0 0.19754,-0.0626 0.15081,-0.18441 z m -5.08536,-0.0542 c 0,-0.14503 -0.2398,-0.30023 -0.32787,-0.21217 -0.0881,0.0881 0.0671,0.32786 0.21216,0.32786 0.0637,0 0.11568,-0.052 0.11568,-0.11567 z m 0.73769,-0.0687 c 0,-0.1014 -0.0415,-0.18518 -0.0922,-0.18611 -0.0507,-9.3e-4 -0.22534,-0.0374 -0.38807,-0.0808 -0.20951,-0.056 -0.26984,-0.0371 -0.20666,0.0651 0.0491,0.0794 0.1407,0.11247 0.20364,0.0736 0.0629,-0.0388 0.11439,0.016 0.11439,0.12097 0,0.1054 0.083,0.19167 0.18442,0.19167 0.1014,0 0.18444,-0.0829 0.18444,-0.18442 z m 5.65564,0.0614 c 0,-0.0675 -0.0554,-0.12289 -0.12289,-0.12289 -0.0675,0 -0.12289,0.0554 -0.12289,0.12289 0,0.0675 0.0554,0.1229 0.12289,0.1229 0.0675,0 0.12289,-0.0553 0.12289,-0.1229 z m -4.67094,-0.18307 c -0.15353,-0.18503 -0.36996,-0.14567 -0.36996,0.0674 0,0.0637 0.11744,0.11567 0.26095,0.11567 0.21716,0 0.23545,-0.0308 0.10893,-0.18307 z m 4.05619,-0.0629 c 0,-0.0675 -0.0554,-0.12289 -0.12289,-0.12289 -0.0675,0 -0.1229,0.0553 -0.1229,0.12289 0,0.0675 0.0554,0.1229 0.1229,0.1229 0.0675,0 0.12289,-0.0554 0.12289,-0.1229 z m -2.33602,-0.12289 c 0,-0.0675 -0.0521,-0.12289 -0.11568,-0.12289 -0.0637,0 -0.14984,0.0554 -0.19168,0.12289 -0.0417,0.0675 0.01,0.12289 0.11567,0.12289 0.1054,0 0.19167,-0.0553 0.19167,-0.12289 z m 8.08622,0.0202 c 0.15578,-0.0988 -0.0765,-0.26269 -0.61708,-0.43545 -0.24867,-0.0794 -0.26371,-0.0281 -0.0879,0.30045 0.13236,0.24731 0.43632,0.30553 0.70497,0.13492 z m -11.2829,-0.26603 c 0,-0.0675 -0.0863,-0.12289 -0.19167,-0.12289 -0.10541,0 -0.15755,0.0554 -0.11567,0.12289 0.0417,0.0675 0.12802,0.12289 0.19167,0.12289 0.0637,0 0.11567,-0.0554 0.11567,-0.12289 z m 0.86065,-0.0614 c 0,-0.1014 -0.0797,-0.18442 -0.17717,-0.18442 -0.2054,0 -0.34406,0.17548 -0.22932,0.29022 0.14696,0.14696 0.40649,0.0794 0.40649,-0.10589 z m 3.93436,0.0759 c 0,-0.0597 -0.1107,-0.13749 -0.24589,-0.1729 -0.24168,-0.0632 -0.32512,0.0383 -0.16393,0.19955 0.1192,0.1192 0.40982,0.10043 0.40982,-0.0266 z m 6.80829,-0.11246 c 0.11295,-0.1828 -0.13989,-0.43122 -0.35491,-0.34871 -0.17128,0.0658 -0.18228,0.11503 -0.0589,0.26382 0.16825,0.20274 0.32148,0.23417 0.41375,0.0849 z m -9.42437,-0.53334 c -0.10316,-0.0577 -0.36721,-0.069 -0.58678,-0.025 -0.35769,0.0716 -0.37708,0.0959 -0.18652,0.23535 0.15947,0.11664 0.30638,0.1229 0.58678,0.0252 0.29576,-0.10316 0.33481,-0.15241 0.18652,-0.23537 z m 0.77185,0.26257 c 0,-0.0675 -0.0244,-0.12289 -0.0542,-0.12289 -0.0298,0 -0.0884,0.0553 -0.13027,0.12289 -0.0417,0.0675 -0.0173,0.12289 0.0542,0.12289 0.0716,0 0.13012,-0.0554 0.13012,-0.12289 z m 0.54748,-0.64358 c -0.2673,-0.28636 -0.48987,-0.53459 -0.49459,-0.55163 -0.005,-0.017 -0.33668,0.0168 -0.73769,0.0754 l -0.72911,0.10637 0.58117,0.0144 c 0.48132,0.0128 0.61715,0.07 0.79053,0.33449 0.11519,0.17572 0.32388,0.36587 0.46388,0.42253 0.55732,0.22556 0.59608,0.10172 0.12578,-0.40205 z m 5.71717,0.18252 c 0.4827,-1.04171 0.98933,-2.68527 0.98933,-3.20943 0,-0.7586 -0.4771,-1.52701 -1.34253,-2.1623 -0.61527,-0.45166 -0.66664,-0.46653 -1.33918,-0.38782 -0.93652,0.10958 -1.60691,0.4539 -2.27546,1.16864 -0.81104,0.86707 -1.01858,1.84764 -0.63148,2.98371 0.10444,0.30659 0.35345,0.7141 0.55327,0.90554 0.44907,0.43024 0.45331,0.37083 0.0278,-0.38939 -0.6756,-1.20672 -0.33135,-2.6574 0.80101,-3.37551 0.43797,-0.27776 0.666,-0.34843 0.94711,-0.29356 0.29426,0.0574 0.33241,0.0435 0.18585,-0.068 -0.30768,-0.23417 1.22538,-0.0225 1.6552,0.22849 1.04479,0.61018 1.2233,1.81705 0.47844,3.23454 -0.4239,0.80668 -0.89613,1.33446 -1.19399,1.33446 -0.0735,0 -0.01,-0.0868 0.14166,-0.19282 0.15145,-0.10605 0.24733,-0.23812 0.21314,-0.29345 -0.0342,-0.0554 0.0249,-0.17285 0.13124,-0.26114 0.10636,-0.0882 0.35072,-0.38917 0.54297,-0.66858 0.28042,-0.40759 0.35604,-0.66422 0.38248,-1.29803 0.0181,-0.4345 -0.0281,-0.90066 -0.10268,-1.03591 -0.22488,-0.40757 -0.68945,-0.77636 -1.08037,-0.85762 l -0.36885,-0.0767 0.37113,0.17262 c 0.37997,0.17671 1.16573,0.98306 1.16573,1.19628 0,0.2042 -0.0804,0.13364 -0.40301,-0.35392 -0.63535,-0.96006 -1.79881,-1.15167 -2.91641,-0.48026 -0.36582,0.21976 -0.77376,0.58654 -0.90654,0.81507 -0.46946,0.80798 -0.16609,2.21889 0.60802,2.8278 0.46768,0.36786 1.03962,0.43717 1.79074,0.21699 0.35762,-0.10476 0.67376,-0.16709 0.70249,-0.13829 0.0809,0.0808 -0.56376,0.29969 -1.25922,0.4273 l -0.62831,0.11535 0.67622,-0.0541 c 0.41034,-0.0329 0.86957,0.0144 1.16801,0.12177 0.67877,0.24268 0.73829,0.23284 0.91637,-0.15145 z m -3.79675,-1.83007 c -0.14022,-0.17817 -0.25482,-0.43244 -0.25482,-0.56504 0,-0.37886 0.38328,-0.93139 0.75205,-1.08414 1.00384,-0.41579 1.41706,0.79645 0.57648,1.69121 -0.35038,0.37295 -0.7599,0.35692 -1.07371,-0.042 z m 0.90524,-0.0319 c 0.0374,-0.0605 -0.005,-0.13781 -0.0927,-0.17176 -0.23627,-0.0906 -0.82973,0.0459 -0.75125,0.17293 0.0878,0.14215 0.756,0.14118 0.844,-0.001 z m 0.31533,-0.44322 c 0,-0.10139 -0.0797,-0.18442 -0.17717,-0.18442 -0.2054,0 -0.34407,0.17549 -0.22932,0.29023 0.14695,0.14696 0.40649,0.0794 0.40649,-0.10573 z m 0.10043,-0.64547 c -0.0305,-0.26469 -0.11166,-0.34649 -0.37389,-0.3767 -0.18423,-0.0212 -0.43321,0.0186 -0.55326,0.0884 -0.19225,0.11182 -0.18147,0.12754 0.0902,0.13075 0.17233,0.002 0.37634,0.1123 0.4621,0.24964 0.22009,0.35241 0.42031,0.30314 0.37483,-0.0922 z m 5.04089,2.95077 c -0.0276,-0.23975 -0.11776,-0.34933 -0.31002,-0.37668 -0.2628,-0.0374 -0.26535,-0.0269 -0.0833,0.33812 0.23358,0.46821 0.44505,0.48895 0.39322,0.0385 z m -8.95269,-0.006 c 0,-0.2027 -0.30643,-0.39344 -0.63208,-0.39344 -0.49601,0 -0.54512,0.21876 -0.0793,0.35312 0.52372,0.15113 0.71133,0.16169 0.71133,0.0403 z m -2.88929,-2.98826 c 0.27047,-0.13236 0.7633,-0.39927 1.09514,-0.593 0.4732,-0.27623 0.55276,-0.36412 0.36884,-0.40739 -0.34133,-0.0804 -0.14407,-0.13845 2.00513,-0.59144 1.7607,-0.37105 1.86327,-0.40829 1.74313,-0.63279 -0.11759,-0.21974 -0.21652,-0.23174 -1.25604,-0.15241 -1.11013,0.0847 -2.29924,0.42026 -3.31945,0.93659 -0.47133,0.23853 -1.47068,1.18983 -1.70568,1.62366 -0.11343,0.20925 -0.0915,0.22334 0.22578,0.14471 0.19324,-0.048 0.57265,-0.19549 0.84315,-0.32791 z m 5.51484,-2.74459 c -0.0738,-0.53885 -0.0436,-0.62216 0.55077,-1.52367 0.0878,-0.13317 0.23443,-0.1253 0.81371,0.043 0.76895,0.22354 1.17382,0.53786 1.17382,0.91125 0,0.13124 0.0554,0.27286 0.12289,0.31463 0.20334,0.12562 0.13894,-0.32008 -0.12305,-0.85255 -0.22068,-0.44836 -0.33152,-0.5281 -1.07581,-0.77376 -0.48427,-0.15979 -0.847,-0.2234 -0.87111,-0.15257 -0.0228,0.0667 -0.23021,0.34731 -0.46106,0.62363 -0.34702,0.41536 -0.41973,0.60259 -0.41973,1.08089 0,0.47352 0.15097,0.8736 0.32961,0.8736 0.0189,0 9.3e-4,-0.24498 -0.0401,-0.54442 z m 1.86059,-0.15064 c 0.40633,-0.0557 0.55477,-0.13108 0.55477,-0.28174 0,-0.36557 -0.29249,-0.61237 -1.00052,-0.84421 l -0.69316,-0.22697 -0.32117,0.49535 c -0.35466,0.54695 -0.37505,0.65726 -0.2044,1.10613 l 0.1168,0.3072 0.49645,-0.23987 c 0.27306,-0.13187 0.7461,-0.27408 1.05123,-0.31589 z m 7.38633,21.19148 c 0.0462,-0.12129 0.11487,-0.18949 0.15273,-0.15161 0.0379,0.0379 8e-5,0.13701 -0.0839,0.22047 -0.12145,0.12049 -0.13557,0.10637 -0.0688,-0.0688 z"
         id="path23" />
      <ellipse
         style="fill:none;stroke:#ff00ff;stroke-width:0.1;stroke-dasharray:none;stroke-opacity:1"
         id="path1138-9-4-0-0-1-2-0-0-1-8-3-0-3"
         cx="575.35968"
         cy="-204.31241"
         rx="18.492125"
         ry="18.492126" />
    </g>
  </g>
</svg>
