<?xml version="1.0" encoding="UTF-8" standalone="no"?>
<!-- Created with Inkscape (http://www.inkscape.org/) -->

<svg
   width="41.008999mm"
   height="41.008999mm"
   viewBox="0 0 41.008999 41.008999"
   version="1.1"
   id="svg1"
   inkscape:version="1.4.2 (f4327f4, 2025-05-13)"
   sodipodi:docname="150.svg"
   xmlns:inkscape="http://www.inkscape.org/namespaces/inkscape"
   xmlns:sodipodi="http://sodipodi.sourceforge.net/DTD/sodipodi-0.dtd"
   xmlns="http://www.w3.org/2000/svg"
   xmlns:svg="http://www.w3.org/2000/svg">
  <sodipodi:namedview
     id="namedview1"
     pagecolor="#ffffff"
     bordercolor="#000000"
     borderopacity="0.25"
     inkscape:showpageshadow="2"
     inkscape:pageopacity="0.0"
     inkscape:pagecheckerboard="0"
     inkscape:deskcolor="#d1d1d1"
     inkscape:document-units="mm"
     inkscape:zoom="1.5878906"
     inkscape:cx="108.3198"
     inkscape:cy="200.26568"
     inkscape:window-width="1050"
     inkscape:window-height="1081"
     inkscape:window-x="3737"
     inkscape:window-y="0"
     inkscape:window-maximized="0"
     inkscape:current-layer="layer1" />
  <defs
     id="defs1" />
  <g
     inkscape:label="Layer 1"
     inkscape:groupmode="layer"
     id="layer1"
     transform="translate(-0.7937635,-0.79375582)">
    <g
       id="g11318"
       transform="translate(344.21794,128.4791)">
      <path
         style="fill:#000000;stroke-width:0.1;stroke-dasharray:none"
         d="m -323.65263,-91.53921 c -0.86092,-0.10541 -1.35936,-0.62566 -1.35936,-1.41881 0,-0.83721 0.70055,-1.67657 1.39933,-1.67657 h 0.23023 l -0.29049,-0.58906 -0.29048,-0.58906 h -0.5243 -0.52429 v 0.35928 c 0,0.46548 -0.3181,2.10545 -0.47085,2.42743 -0.065,0.13707 -0.26562,0.32132 -0.44578,0.40941 -0.42048,0.20564 -2.26076,0.3902 -2.518,0.25252 -0.0981,-0.0525 -0.2933,-0.0961 -0.43365,-0.0969 -0.30048,-0.002 -0.39434,-0.0577 -0.60027,-0.35862 -0.20092,-0.29358 -0.20475,-1.17851 -0.006,-1.57027 0.1769,-0.35015 0.48323,-0.69733 0.61692,-0.69923 0.31367,-0.005 0.3427,-0.13581 0.22922,-1.03735 l -0.11103,-0.88211 -0.53365,-0.60286 c -0.73044,-0.82517 -1.25878,-1.89453 -1.32138,-2.67446 -0.0571,-0.70983 0.0829,-1.49738 0.38854,-2.18864 0.1337,-0.30231 0.22234,-0.67342 0.22234,-0.9308 0,-0.41508 -0.0124,-0.43461 -0.40941,-0.64523 -0.53571,-0.2842 -1.00768,-0.81627 -1.28458,-1.44818 -0.12274,-0.28012 -0.3183,-0.71321 -0.43455,-0.96244 -0.76012,-1.62948 -0.61986,-2.6077 0.448,-3.12464 0.33282,-0.16112 0.4245,-0.25966 0.49346,-0.53038 0.21746,-0.85372 0.2161,-0.90993 -0.029,-1.20119 -0.35178,-0.41808 -0.31177,-1.26083 0.0784,-1.651 0.1346,-0.1346 0.12494,-0.15729 -0.1212,-0.28458 -0.40513,-0.20949 -0.64425,-0.60433 -0.64425,-1.06377 0,-0.65669 0.35718,-0.98738 1.1987,-1.10981 0.40003,-0.0583 0.43442,-0.0847 0.51935,-0.4001 0.11162,-0.41454 0.59213,-0.89768 0.96748,-0.97275 0.23402,-0.0468 0.31188,-0.13518 0.48317,-0.54844 0.12063,-0.29106 0.32066,-0.57914 0.48884,-0.70406 0.97777,-0.72622 3.43646,-0.7788 4.81773,-0.10306 0.59306,0.29015 1.24742,0.80012 1.40536,1.09523 0.0678,0.1268 0.45093,0.42232 0.85124,0.65671 1.04162,0.60985 1.71963,1.29256 1.90206,1.91525 0.16175,0.55207 0.1766,0.89031 0.061,1.38824 l -0.079,0.33986 h 0.53713 c 0.94669,0 1.42943,0.36203 1.80672,1.35498 0.46788,1.23139 -0.0705,2.63082 -1.0128,2.63217 -0.36057,6.9e-4 -0.80586,-0.35823 -1.0682,-0.8606 -0.19752,-0.37824 -0.23589,-0.56918 -0.23226,-1.15547 0.002,-0.38628 -0.0268,-0.70234 -0.0649,-0.70234 -0.20899,0 -0.29678,0.47749 -0.29935,1.62815 l -0.003,1.22034 0.37265,0.0642 c 0.8198,0.14126 1.12267,0.2602 1.12267,0.44091 0,0.3181 0.58073,0.77426 1.45305,1.14139 1.3785,0.58012 2.08133,1.35515 2.08133,2.29509 0,0.3608 0.0371,0.47339 0.18125,0.55055 0.2451,0.13117 0.23342,0.49164 -0.0394,1.21652 -0.36111,0.95939 -1.0618,1.91463 -1.51531,2.06579 -0.0749,0.025 -0.0317,0.14186 0.13201,0.35631 0.32628,0.42776 1.16874,2.2241 1.92749,4.10983 0.59753,1.48504 0.62121,1.57346 0.65621,2.4505 0.0283,0.70792 0.007,0.93348 -0.0919,1.01633 -0.39816,0.33043 -2.96952,0.62521 -3.40382,0.39021 -0.0866,-0.0468 -0.26494,-0.10764 -0.39642,-0.13511 -0.66961,-0.13996 -0.69052,-1.92328 -0.0277,-2.35761 l 0.21637,-0.14178 -0.69199,-0.72483 c -0.38059,-0.39868 -0.7043,-0.71256 -0.71933,-0.69752 -0.0151,0.015 0.012,0.29044 0.0601,0.61202 0.1772,1.18372 0.24755,2.48249 0.14081,2.59944 -0.0561,0.0614 -0.32499,0.18747 -0.59764,0.28015 -0.47159,0.16028 -0.49885,0.18667 -0.55937,0.54117 -0.15635,0.91588 -0.42286,1.03508 -2.38545,1.06703 -0.79751,0.013 -1.6743,-0.005 -1.94845,-0.0374 z m 0.0442,-0.32019 c -0.35344,-0.53943 -0.33211,-1.14063 0.0581,-1.63666 0.25518,-0.32441 0.33084,-0.22357 0.0881,0.11738 -0.28525,0.40059 -0.33163,0.77727 -0.14633,1.1882 0.23383,0.51854 0.47146,0.58437 1.84119,0.51002 2.05588,-0.11161 2.13265,-0.16894 2.17895,-1.62711 l 0.0321,-1.01099 -0.62829,6.9e-4 c -0.68035,6.9e-4 -0.553,0.0628 -2.05091,-1.00062 -0.43797,-0.31093 -0.86821,-0.39951 -1.13112,-0.23289 -0.10071,0.0638 -0.0968,0.12575 0.0226,0.35662 0.0795,0.15367 0.14449,0.3375 0.14449,0.40851 0,0.071 0.11215,0.15207 0.24922,0.18012 0.28649,0.0586 0.63728,0.29348 0.55752,0.37325 -0.0297,0.0297 -0.2016,-0.007 -0.38211,-0.0832 -0.46199,-0.19304 -0.98694,-0.1746 -1.26541,0.0444 -0.35696,0.28078 -0.70192,1.05068 -0.68797,1.53542 l 0.0118,0.41269 0.0646,-0.50069 c 0.0668,-0.5181 0.22097,-0.904 0.36097,-0.904 0.0443,0 0.0146,0.13208 -0.0659,0.29349 -0.19443,0.38977 -0.18839,1.07107 0.0123,1.37725 0.16141,0.24635 0.42702,0.39753 0.71658,0.40789 0.14843,0.005 0.14991,-0.0107 0.0195,-0.20971 z m -4.25865,-0.84941 c -0.13043,-0.31814 -0.15415,-0.91533 -0.049,-1.23393 0.0995,-0.30159 0.46653,-0.69185 0.65061,-0.69185 0.15184,0 0.0761,0.13932 -0.1239,0.22774 -0.11126,0.0492 -0.25572,0.19141 -0.32101,0.31602 -0.15391,0.2937 -0.0941,1.0069 0.11067,1.31939 0.1487,0.22695 0.18809,0.23831 0.62551,0.18043 0.25675,-0.034 0.63391,-0.13559 0.83815,-0.22583 0.3476,-0.15358 0.38044,-0.20095 0.51424,-0.74168 0.0786,-0.31769 0.17081,-0.76994 0.20491,-1.00498 l 0.062,-0.42737 -0.39498,0.005 c -0.54319,0.007 -0.80044,-0.11076 -1.38218,-0.63758 -0.60541,-0.54826 -1.02122,-0.78133 -1.17166,-0.65671 -0.0657,0.0545 -0.095,0.27861 -0.0764,0.58266 l 0.0303,0.4942 0.54025,0.0565 c 0.55223,0.0578 1.03584,0.23779 0.82625,0.30765 -0.0621,0.0207 -0.32257,-0.007 -0.57876,-0.0622 -0.5063,-0.10859 -1.00758,-0.0518 -1.31652,0.14921 -0.45905,0.29864 -0.64943,1.49155 -0.29466,1.84631 0.23882,0.23884 0.28903,0.19025 0.15912,-0.15396 -0.21635,-0.57312 0.19623,-1.6661 0.6289,-1.6661 0.10338,0 0.0649,0.0784 -0.13383,0.2727 -0.3495,0.3417 -0.46113,0.92195 -0.26683,1.38698 0.15172,0.36313 0.35755,0.50867 0.72494,0.51257 0.2114,0.002 0.24698,-0.0264 0.19389,-0.15583 z m 11.76569,0.008 c 0.0327,-0.0327 0.0147,-0.11393 -0.0405,-0.18027 -0.0604,-0.0728 -0.0858,-0.37235 -0.0642,-0.75647 0.0284,-0.50288 0.0774,-0.67731 0.23434,-0.83423 0.10911,-0.10913 0.22332,-0.17348 0.25378,-0.14301 0.0304,0.0305 -0.0296,0.14033 -0.13342,0.24417 -0.26887,0.26886 -0.2738,1.28193 -0.007,1.54818 0.22569,0.22568 0.39883,0.2256 1.34285,-6.8e-4 1.13245,-0.27148 1.13602,-0.27458 1.08175,-0.9376 -0.0251,-0.30635 -0.0979,-0.7303 -0.16194,-0.94215 -0.11484,-0.3802 -0.12168,-0.38516 -0.53246,-0.38556 -0.30426,-2.8e-4 -0.64757,-0.10981 -1.27707,-0.4074 -0.89273,-0.42203 -1.22011,-0.48747 -1.47352,-0.29454 -0.1377,0.10488 -0.13728,0.12719 0.005,0.29975 0.12263,0.14797 0.25734,0.18566 0.65256,0.18253 0.5804,-0.005 0.99648,0.0917 0.99648,0.2307 0,0.066 -0.17521,0.0774 -0.53956,0.0351 -0.66537,-0.0772 -1.09545,0.0514 -1.40591,0.42033 -0.18864,0.22418 -0.22953,0.36766 -0.22953,0.80531 0,0.58089 0.13923,0.9942 0.33492,0.9942 0.0951,0 0.10231,-0.0415 0.0308,-0.1753 -0.0516,-0.0964 -0.0937,-0.39209 -0.0935,-0.65703 3.6e-4,-0.53032 0.25518,-1.07081 0.50484,-1.07081 0.11398,0 0.0947,0.0601 -0.0893,0.27883 -0.25515,0.30321 -0.29422,0.63578 -0.13997,1.19116 0.12038,0.43346 0.55235,0.7528 0.75039,0.55476 z m -2.58958,-0.755 c 0.3075,-0.18749 0.34861,-0.34232 0.23789,-0.89592 -0.0449,-0.22436 -0.10264,-0.2832 -0.27784,-0.2832 -0.12164,0 -0.30609,-0.0455 -0.40988,-0.10103 -0.17725,-0.0948 -0.18513,-0.0832 -0.12997,0.19257 0.0323,0.16147 0.0587,0.51276 0.0587,0.78068 0,0.54834 0.0637,0.58579 0.52109,0.30686 z m -1.03777,-1.11116 c 0.14076,-0.10466 0.1425,-0.19948 0.0229,-1.24609 -0.0713,-0.62305 -0.19406,-1.46573 -0.27296,-1.87263 -0.1272,-0.65591 -0.64676,-2.52845 -0.81939,-2.95316 -0.0365,-0.0897 -0.0242,-0.1586 0.0283,-0.1586 0.051,0 0.11334,0.0509 0.13847,0.11329 0.11,0.27259 0.0469,-0.39598 -0.0765,-0.81176 -0.37722,-1.27023 -1.85324,-1.64419 -3.10172,-0.78585 -0.81587,0.56093 -1.70254,2.1125 -1.81172,3.17029 -0.0436,0.42212 -0.0122,0.5659 0.2319,1.06164 0.15525,0.31537 0.37081,0.65199 0.479,0.74805 0.21212,0.18833 0.20901,0.16782 -0.0522,-0.34529 -0.18521,-0.36372 -0.12903,-0.5752 0.0776,-0.29249 0.0689,0.0942 0.38138,0.64173 0.69452,1.21682 0.67908,1.24715 0.60729,1.14831 0.73868,1.01693 0.059,-0.059 0.27856,-0.10724 0.48795,-0.10724 0.31566,0 0.47581,0.0736 0.93724,0.43046 0.85359,0.66027 1.36024,0.92439 1.7777,0.9268 0.20231,9e-4 0.4364,-0.0488 0.52018,-0.11117 z m 1.16519,-1.06484 c -0.0172,-0.42367 -0.0409,-0.78043 -0.0526,-0.79277 -0.0118,-0.0124 -0.19184,0.0488 -0.40004,0.13593 l -0.37855,0.1584 0.0601,0.54376 c 0.0658,0.59417 0.21095,0.78259 0.5757,0.74707 0.22492,-0.0219 0.22634,-0.0277 0.19539,-0.79239 z m -6.86375,0.39811 c 0.09,-0.0345 0.14335,-0.16455 0.14335,-0.34938 v -0.29439 l -0.57299,-0.0535 c -0.6412,-0.0599 -1.90809,-0.49003 -2.33177,-0.79172 -0.15266,-0.1087 -0.29398,-0.1812 -0.31405,-0.16112 -0.074,0.074 0.0722,0.4389 0.17116,0.4271 0.33739,-0.0401 0.54698,0.0563 0.97863,0.45032 0.82582,0.75393 1.38738,0.97927 1.92567,0.77271 z m 11.52293,-0.38075 c -0.17909,-0.50758 -1.36979,-3.12276 -1.79682,-3.94639 -0.20299,-0.39151 -0.51373,-0.86048 -0.69052,-1.0422 l -0.32146,-0.33033 -0.0711,0.81445 c -0.11203,1.28255 -0.47535,2.30181 -1.05719,2.96579 l -0.26103,0.29788 0.48025,0.52788 0.48026,0.52788 0.23549,-0.1543 c 0.32175,-0.21083 0.71804,-0.13287 1.61561,0.31782 0.51407,0.25812 0.84537,0.36666 1.11926,0.36666 h 0.38906 z m -10.24309,-0.55516 c -0.0288,-0.0466 -0.27317,-0.14889 -0.54307,-0.22735 -0.74459,-0.21646 -1.21918,-0.62268 -1.5893,-1.36038 -0.2975,-0.59293 -0.31581,-0.68139 -0.30945,-1.49531 0.008,-1.04113 0.20877,-1.64041 0.80724,-2.41111 1.18789,-1.52978 3.0118,-2.29961 4.18566,-1.76668 0.52434,0.23805 1.12496,0.81471 1.39101,1.33554 0.19175,0.37537 0.22034,0.54442 0.20403,1.20683 -0.0107,0.42367 -0.0551,0.89266 -0.0994,1.04219 -0.0724,0.24471 0.006,0.70918 0.22167,1.31406 0.0301,0.0845 0.18296,-0.12963 0.404,-0.56612 0.7093,-1.40066 0.80999,-3.42594 0.19715,-3.96514 -1.23169,-1.08367 -1.52135,-1.31216 -1.64729,-1.29939 -0.0796,0.008 -0.51171,0.14721 -0.96031,0.3092 -0.68573,0.24761 -0.97439,0.30048 -1.8125,0.33198 -0.87658,0.033 -1.05702,0.0686 -1.49531,0.29525 -0.48989,0.25335 -1.79406,0.63483 -2.17029,0.63483 -0.10541,0 -0.21612,0.0638 -0.24604,0.14172 -0.0744,0.19397 0.11559,0.58328 0.28469,0.58328 0.20091,0 0.16943,0.2636 -0.0947,0.79381 -0.28388,0.56965 -0.74321,0.98955 -1.1701,1.06963 -0.36693,0.0689 -0.3897,0.1744 -0.19519,0.90482 0.15512,0.58246 0.24792,0.75183 0.69498,1.26837 0.7926,0.91577 1.72687,1.54457 2.68717,1.80855 0.51285,0.14097 1.33149,0.1745 1.25541,0.0514 z m -2.22399,-0.13493 c 0,-0.0211 -0.27743,-0.22279 -0.61651,-0.4482 -1.27459,-0.84736 -1.89068,-1.68385 -2.11126,-2.86658 -0.0782,-0.41958 -0.18728,-0.67842 -0.37895,-0.89966 -0.31336,-0.3617 -0.51828,-0.81106 -0.51828,-1.13649 0,-0.45393 -0.16704,-0.21688 -0.27573,0.39129 -0.20281,1.13484 0.14047,2.23952 0.99318,3.19615 0.56533,0.63424 1.52009,1.29407 2.28155,1.5768 0.6726,0.24972 0.626,0.23582 0.626,0.18669 z m 8.28597,-0.87062 c 0.50202,-0.5367 0.75597,-1.03393 0.91766,-1.79673 0.17714,-0.8358 0.17412,-2.2205 -0.005,-2.3693 -0.119,-0.0988 -0.13593,-0.0178 -0.13593,0.64955 0,1.39834 -0.50785,2.63985 -1.51797,3.71096 -0.31152,0.33032 -0.5664,0.62876 -0.5664,0.66321 0,0.14959 0.94582,-0.47068 1.30783,-0.85769 z m -6.29221,0.64542 c 0,-0.0453 -0.1837,-0.19819 -0.40823,-0.33984 -0.42021,-0.26511 -0.87428,-0.81386 -1.04502,-1.26296 -0.36154,-0.95092 0.27487,-2.81721 1.3243,-3.88352 0.67876,-0.68971 1.35865,-1.00169 2.18286,-1.00169 0.57645,0 0.69303,0.0308 1.04005,0.27467 0.21495,0.15108 0.51412,0.47412 0.66483,0.7179 0.25078,0.40562 0.27402,0.51106 0.27402,1.24328 0,0.44005 0.0248,0.80008 0.0551,0.80008 0.11014,0 0.16574,-1.09314 0.079,-1.55104 -0.0939,-0.49528 -0.13904,-0.5776 -0.58236,-1.06237 -0.47614,-0.52069 -0.90277,-0.69107 -1.73493,-0.69284 -0.67335,-9.1e-4 -0.78976,0.027 -1.42312,0.34854 -1.77302,0.89994 -2.73727,2.7052 -2.37353,4.44368 0.0671,0.32054 0.18489,0.70454 0.26186,0.85337 0.25305,0.48936 0.88866,0.94346 1.66264,1.18789 0.0125,0.005 0.0226,-0.0299 0.0226,-0.0752 z m 6.25148,-1.7376 c 0.4437,-0.85287 0.63293,-1.6242 0.63469,-2.58706 l 9e-4,-0.73666 -0.47578,-0.39759 c -0.26168,-0.21868 -0.53696,-0.44443 -0.61172,-0.50169 -0.11866,-0.0909 -0.13671,0.0129 -0.14205,0.81706 -0.007,1.10176 -0.17839,1.8263 -0.66685,2.82428 -0.3315,0.67726 -0.34952,0.75484 -0.2736,1.17812 0.0448,0.24922 0.10562,0.59156 0.13532,0.76075 l 0.0541,0.30761 0.49203,-0.48593 c 0.29178,-0.28815 0.63878,-0.76797 0.85256,-1.17889 z m -10.13335,-2.30051 c 0.3337,-0.22677 0.63517,-0.64045 0.75559,-1.03681 0.0507,-0.16683 0.0199,-0.25319 -0.13114,-0.36707 -0.12304,-0.0928 -0.20042,-0.25398 -0.20536,-0.42767 l -0.007,-0.27875 -0.64356,-0.0469 c -0.43959,-0.0322 -0.65536,-0.0141 -0.68079,0.0567 -0.0205,0.0571 -0.17532,0.24229 -0.3441,0.41162 -0.26165,0.26247 -0.29796,0.34932 -0.24626,0.58906 0.10391,0.48187 0.39617,0.96056 0.69921,1.14536 0.3703,0.22577 0.40826,0.22363 0.80433,-0.0455 z m -0.83602,-0.11207 c -0.54835,-0.46143 -0.70004,-1.18772 -0.31181,-1.49309 0.12461,-0.098 0.22656,-0.23643 0.22656,-0.30758 0,-0.0919 0.11134,-0.129 0.38516,-0.12812 0.57931,0.002 0.77099,0.0801 0.83661,0.34156 0.0325,0.12929 0.12349,0.28223 0.20229,0.33985 0.26947,0.19704 -0.1152,0.99755 -0.63026,1.31159 -0.37258,0.22717 -0.361,0.22821 -0.70855,-0.0642 z m 0.54913,-0.22496 c 0,-0.17131 0.0798,-0.37362 0.19621,-0.49755 0.17579,-0.18712 0.18378,-0.23486 0.0768,-0.45896 l -0.1194,-0.25012 -0.0566,0.21984 c -0.0312,0.12092 -0.10307,0.23531 -0.15976,0.25421 -0.12699,0.0423 -0.24437,-0.2942 -0.15716,-0.45058 0.035,-0.0628 -0.0308,-0.0241 -0.14638,0.0859 -0.19251,0.18339 -0.19963,0.22117 -0.0855,0.45313 0.0686,0.13919 0.11315,0.40599 0.0991,0.5929 -0.0219,0.29225 9.1e-4,0.33986 0.16357,0.33986 0.15208,0 0.18906,-0.0565 0.18906,-0.2887 z m 0.59342,-0.39025 0.23306,-0.39771 -0.18668,-0.18667 c -0.10263,-0.10264 -0.18668,-0.26824 -0.18668,-0.36794 0,-0.15906 -0.0582,-0.18044 -0.47578,-0.17471 -0.42837,0.006 -0.50173,0.0378 -0.73628,0.31989 l -0.26051,0.31334 0.15436,0.40418 c 0.0849,0.22231 0.19222,0.42758 0.23849,0.45618 0.16328,0.10092 0.19734,-0.25172 0.0534,-0.55348 -0.1414,-0.29647 -0.13882,-0.31386 0.0858,-0.58082 0.29609,-0.35187 0.39339,-0.3473 0.41028,0.0194 0.0126,0.27412 0.0162,0.27726 0.0514,0.0453 0.0432,-0.28559 0.17835,-0.32029 0.35269,-0.0907 0.16236,0.21387 0.15719,0.60908 -0.01,0.74765 -0.14864,0.12337 -0.19192,0.58906 -0.0463,0.4991 0.0492,-0.0305 0.19441,-0.2343 0.3226,-0.45304 z m 12.38147,-0.15935 c 0.45063,-0.4861 1.07299,-1.74285 1.06913,-2.15897 -0.004,-0.29922 -0.0669,-0.35601 -1.75623,-1.5553 -0.96433,-0.68459 -1.82079,-1.27061 -1.90322,-1.30224 -0.18394,-0.0706 -0.64189,0.37879 -0.98818,0.96968 -0.21595,0.36848 -0.60575,1.3584 -0.60575,1.53831 0,0.0734 2.08192,1.88868 2.88548,2.51593 0.62403,0.48711 0.84147,0.48587 1.29877,-0.007 z m -0.51896,-0.91473 c -0.20214,-0.11561 -0.70567,-0.4584 -1.11898,-0.76176 -0.74278,-0.5452 -0.75703,-0.55099 -1.23507,-0.50165 -0.46971,0.0485 -0.48877,0.0414 -0.66278,-0.24471 -0.18251,-0.3001 -0.33495,-0.88884 -0.25171,-0.97208 0.0253,-0.0253 0.16043,0.0335 0.30037,0.13045 0.353,0.24472 0.52169,0.29375 0.67047,0.19485 0.10124,-0.0673 0.0479,-0.15729 -0.25743,-0.4344 -0.21184,-0.19223 -0.38516,-0.3727 -0.38516,-0.40105 0,-0.0958 0.61815,-0.16836 0.90224,-0.10595 0.30211,0.0663 0.52239,0.32559 0.57618,0.67812 0.025,0.16385 0.33508,0.42195 1.24837,1.03914 0.71279,0.48168 1.22822,0.89161 1.24685,0.99164 0.0175,0.0938 -0.02,0.2671 -0.0831,0.38514 -0.14822,0.27695 -0.46865,0.2777 -0.95021,0.002 z m 0.81552,-0.0797 c 0.0776,-0.11078 0.14107,-0.22697 0.14107,-0.2582 0,-0.0312 -0.56693,-0.44016 -1.25984,-0.90874 -1.03654,-0.70096 -1.26963,-0.8991 -1.31513,-1.11789 -0.0868,-0.41721 -0.30344,-0.59507 -0.72425,-0.59456 l -0.3711,3.4e-4 0.23316,0.20345 c 0.40277,0.35146 0.48429,0.50188 0.35591,0.65658 -0.14688,0.17698 -0.45048,0.17303 -0.71071,-0.01 -0.29553,-0.207 -0.35627,-0.0795 -0.14719,0.30916 0.1733,0.3221 0.19834,0.3346 0.67752,0.33825 0.47311,0.004 0.5421,0.0365 1.40382,0.66868 0.8028,0.58898 1.31812,0.89893 1.51283,0.90992 0.0346,0.002 0.12631,-0.087 0.20391,-0.19787 z m -14.30418,-0.0107 c 0.24009,-0.2065 0.24034,-0.42266 3.5e-4,-0.42266 -0.0975,0 -0.19013,0.13248 -0.39619,0.56642 -0.0674,0.14188 0.15941,0.0595 0.3957,-0.14376 z m 0.92547,-0.81481 c 0.0246,-0.20707 -0.005,-0.24222 -0.20391,-0.24222 -0.18553,0 -0.23259,0.0443 -0.23259,0.219 0,0.39107 0.39049,0.41184 0.4365,0.0232 z m 1.8627,0.10843 c 0.59376,-0.10124 1.77894,-0.5153 1.77894,-0.6215 0,-0.18174 -0.986,-0.15145 -1.80147,0.0554 -0.46745,0.11854 -1.02818,0.21551 -1.24609,0.21551 -0.38259,0 -0.3962,0.01 -0.3962,0.28078 v 0.28077 l 0.56641,-0.0601 c 0.31152,-0.033 0.80582,-0.10092 1.09841,-0.1508 z m -2.49647,-0.39688 c -0.0164,-0.0164 -0.13667,-0.0565 -0.26746,-0.0894 -0.21883,-0.0549 -0.23413,-0.0405 -0.19176,0.18123 0.0258,0.13449 0.13085,0.27266 0.238,0.31278 0.1598,0.0598 0.19687,0.0345 0.22141,-0.15157 0.0163,-0.12289 0.0161,-0.23678 -1.8e-4,-0.2531 z m 2.52096,-0.45742 c 0.49143,-0.12749 0.93226,-0.27022 0.9796,-0.31719 0.0968,-0.096 0.41234,-0.11695 0.41234,-0.0274 0,0.0319 -0.0675,0.10732 -0.14997,0.16766 -0.22922,0.16759 1.16824,0.25304 2.27967,0.13938 1.57712,-0.16128 2.66527,-0.86729 3.00082,-1.947 0.086,-0.27665 0.16174,-0.96924 0.19192,-1.75454 l 0.0498,-1.29748 -0.42414,0.26899 c -1.37903,0.87455 -4.04403,0.91832 -5.59456,0.0919 -0.87492,-0.46633 -1.12558,-0.75195 -1.30024,-1.48159 -0.2615,-1.09233 -0.13421,-3.07571 0.22013,-3.43005 0.19528,-0.19526 0.0769,-0.24026 -0.63197,-0.24026 -0.70937,0 -0.72962,0.006 -0.82445,0.24921 -0.0535,0.13707 -0.13296,0.67742 -0.17667,1.20078 -0.0437,0.52337 -0.11557,1.14281 -0.15971,1.37657 -0.0664,0.35202 -0.0514,0.46871 0.0876,0.67967 0.0924,0.14009 0.16819,0.30883 0.16853,0.37496 9e-4,0.23932 -0.5211,0.63858 -1.0282,0.786 -0.5032,0.14629 -0.51183,0.15446 -0.51183,0.4847 0,0.18475 0.0636,0.42655 0.14107,0.53732 0.12294,0.17552 0.22264,0.20141 0.7755,0.20141 0.34892,0 0.8156,-0.0456 1.03705,-0.10134 0.33795,-0.0851 0.40262,-0.13671 0.40262,-0.32131 0,-0.22261 0.36183,-0.66481 0.54396,-0.66481 0.0545,0 0.19356,0.10199 0.30905,0.22655 0.11548,0.12462 0.26501,0.22657 0.33228,0.22657 0.25972,0 -0.15108,0.26478 -0.86809,0.55952 -0.65362,0.26867 -0.81506,0.29819 -1.63974,0.29972 -1.02473,0.002 -1.32585,-0.10028 -1.50788,-0.51148 -0.12928,-0.29206 -0.21963,-0.31421 -0.49499,-0.12135 -0.52524,0.3679 -0.64279,1.95817 -0.21237,2.87305 0.3364,0.71501 1.25527,1.3406 2.30427,1.56879 0.82536,0.17955 1.3003,0.15943 2.28844,-0.0969 z m 7.00892,-0.62376 c 0.21835,-0.65618 0.78221,-1.58355 1.0968,-1.8039 0.2757,-0.19311 0.18394,-0.26629 -0.17637,-0.14068 -0.17276,0.0602 -0.39832,0.25977 -0.56118,0.49649 -0.32384,0.4707 -0.81041,1.4755 -0.81051,1.67378 -7e-5,0.11506 0.16091,0.35797 0.23722,0.35797 0.0109,0 0.10721,-0.26266 0.21404,-0.58366 z m -0.011,-1.20704 c 0.44233,-0.75725 0.71778,-0.97431 1.23225,-0.97103 0.30129,0.002 0.53579,0.1157 1.31805,0.63961 0.52337,0.35052 1.26546,0.86944 1.64909,1.15316 0.38364,0.2837 0.72008,0.51584 0.74766,0.51584 0.10715,0 0.0427,-0.56746 -0.0957,-0.84279 -0.2965,-0.58985 -0.84447,-1.03788 -1.7508,-1.43149 -1.03017,-0.4474 -1.38927,-0.69767 -1.54683,-1.07806 -0.0769,-0.18575 -0.16175,-0.2649 -0.24826,-0.2317 -0.0723,0.0278 -0.23159,0.0756 -0.35405,0.10627 -0.1659,0.0417 -0.31387,0.23733 -0.58064,0.76791 -0.19691,0.39162 -0.35801,0.78463 -0.35801,0.87337 0,0.18277 -0.35603,0.89529 -0.70592,1.41275 -0.19201,0.28398 -0.21138,0.36085 -0.10708,0.42532 0.096,0.0592 0.16282,-0.0148 0.2716,-0.30133 0.0793,-0.20899 0.31724,-0.67604 0.5286,-1.03788 z m -12.10999,-1.40793 c 0.0552,-0.68813 0.25209,-1.10048 0.61494,-1.28811 0.16397,-0.0848 0.27035,-0.21145 0.27035,-0.32191 0,-0.10017 0.0659,-0.28263 0.14634,-0.40549 0.14106,-0.21528 0.13861,-0.22389 -0.0679,-0.23772 -0.40525,-0.0271 -0.56531,0.0185 -0.86534,0.24746 -0.38598,0.2944 -0.57243,0.66021 -0.57243,1.12314 0,0.40347 0.26361,1.45313 0.36496,1.45313 0.0348,0 0.0839,-0.25672 0.10914,-0.5705 z m 12.57212,-0.63028 c 0.002,-0.0373 -0.0778,-0.0679 -0.17745,-0.0679 -0.15341,0 -0.18067,0.0591 -0.17745,0.38514 l 0.005,0.38517 0.17366,-0.3172 c 0.0955,-0.17444 0.17536,-0.34777 0.17744,-0.38515 z m 0.48593,-0.34003 c -0.0409,-0.0369 -0.2514,-0.094 -0.46782,-0.12657 -0.29445,-0.0444 -0.38403,-0.0308 -0.35578,0.0538 0.0207,0.0622 0.13665,0.13693 0.25756,0.16593 0.26968,0.0648 0.66804,-9e-4 0.56604,-0.0932 z m -11.50062,-0.47585 c -0.005,-0.26155 -0.0419,-0.55411 -0.0838,-0.65016 -0.0753,-0.17241 -0.0771,-0.17241 -0.14469,0 -0.11546,0.29472 -0.0883,0.7131 0.0599,0.92478 0.0776,0.11078 0.14896,0.2013 0.15859,0.20116 0.01,-1.8e-4 0.0141,-0.21423 0.01,-0.47578 z m 3.31535,0.20627 c 0,-0.0319 -0.0586,-0.13725 -0.1304,-0.23402 -0.11567,-0.15603 -0.14527,-0.16055 -0.26214,-0.04 -0.0725,0.0748 -0.15823,0.2244 -0.19058,0.33252 -0.0561,0.18745 -0.0439,0.19201 0.26215,0.098 0.17654,-0.0542 0.32097,-0.12465 0.32097,-0.15661 z m 5.61876,-0.0809 c 0.32399,-0.10759 0.75084,-0.30825 0.94858,-0.44593 0.35464,-0.24692 0.36093,-0.26136 0.46446,-1.06358 0.0577,-0.44731 0.14736,-0.91899 0.19919,-1.0482 0.0519,-0.12919 0.0876,-0.31271 0.0793,-0.4078 -0.0113,-0.13052 0.0527,-0.17953 0.26136,-0.19996 0.21299,-0.0208 0.30016,-0.0903 0.38041,-0.3028 0.0573,-0.15168 0.14456,-0.25077 0.19401,-0.2202 0.0567,0.035 0.0379,0.17995 -0.0508,0.39236 -0.10221,0.24464 -0.13007,0.53974 -0.10178,1.07862 0.0323,0.6133 0.081,0.8054 0.28172,1.10871 0.13354,0.20178 0.36531,0.43023 0.51505,0.50766 0.24695,0.12771 0.29829,0.12735 0.55208,-0.005 0.18115,-0.0937 0.34552,-0.29323 0.46615,-0.56595 0.1665,-0.37639 0.17618,-0.48683 0.0909,-1.03764 -0.1141,-0.7371 -0.52328,-1.44206 -0.9363,-1.61315 -0.19237,-0.0797 -0.56985,-0.0979 -1.26549,-0.0613 -0.58858,0.0311 -0.99136,0.0181 -0.99136,-0.032 0,-0.0463 0.0791,-0.0844 0.17591,-0.0844 0.0968,0 0.20111,-0.0408 0.23191,-0.0907 0.0307,-0.0498 0.01,-0.0907 -0.046,-0.0907 -0.20581,0 -0.43652,0.18449 -0.62037,0.4961 -0.10799,0.18303 -0.26034,0.31953 -0.35663,0.31953 -0.0925,0 -1.08279,-0.32724 -2.20073,-0.72722 -1.11793,-0.39998 -2.40699,-0.82311 -2.86457,-0.94031 l -0.83197,-0.21308 -0.20066,0.46453 c -0.34637,0.80178 -0.32728,2.92585 0.033,3.67286 0.19243,0.39897 1.17201,0.97848 2.0873,1.23483 0.71924,0.20144 2.73675,0.12855 3.50522,-0.12663 z m -4.13224,-0.73657 c -0.74484,-0.10922 -0.98338,-0.2623 -1.01585,-0.65195 -0.0882,-1.05818 0.62894,-1.88606 1.63345,-1.8857 1.09383,3.5e-4 1.80411,1.10062 1.35949,2.1058 -0.14526,0.32837 -0.2343,0.41555 -0.47322,0.46334 -0.35464,0.0709 -0.88052,0.0599 -1.50387,-0.0315 z m 1.29436,-0.28795 c 0.11536,-0.10838 0.20851,-0.26131 0.207,-0.33985 -0.002,-0.10789 -0.0271,-0.0985 -0.10242,0.0384 -0.0548,0.0996 -0.18612,0.25172 -0.29178,0.33784 -0.10562,0.0861 -0.15394,0.15748 -0.10732,0.15859 0.0467,9e-4 0.17917,-0.0866 0.29453,-0.19503 z m -1.23672,-0.092 c -0.18829,-0.20211 -0.21638,-0.30689 -0.18986,-0.70792 0.0224,-0.33984 0.40214,-0.63438 0.8177,-0.63438 0.2789,0 0.39674,0.0563 0.58401,0.27884 0.12905,0.15335 0.23462,0.24047 0.23462,0.19361 0,-0.0469 -0.10305,-0.18827 -0.22899,-0.31422 -0.58873,-0.58873 -1.58351,-0.17574 -1.58351,0.65741 0,0.3586 0.21049,0.725 0.41648,0.725 0.10327,0 0.0916,-0.0459 -0.0504,-0.19834 z m 1.6894,-0.0508 c 0.24955,-0.95479 -0.29121,-1.75963 -1.18226,-1.75963 -0.53047,0 -0.95927,0.23966 -1.16757,0.65257 -0.16539,0.32788 -0.21985,1.17504 -0.0755,1.17504 0.0457,0 0.14848,0.025 0.22826,0.0556 0.1235,0.0474 0.13133,0.0195 0.0527,-0.18714 -0.31847,-0.83768 0.26493,-1.57501 1.16587,-1.47345 0.5743,0.0648 0.91683,0.44702 0.91683,1.02326 0,0.22679 -0.0421,0.49123 -0.0938,0.58763 -0.0629,0.11759 -0.0636,0.17529 -0.002,0.17529 0.0506,0 0.1214,-0.11214 0.15722,-0.24922 z m -0.74137,-0.69602 c 0,-0.20108 -0.12816,-0.26351 -0.30773,-0.14992 -0.17136,0.10837 -0.0519,0.39163 0.14887,0.35297 0.0874,-0.0167 0.15886,-0.10821 0.15886,-0.20305 z m -0.45313,-2.09966 c -0.19937,-0.0677 -0.54309,-0.17493 -0.76382,-0.23831 -0.42837,-0.12298 -0.50776,-0.21559 -0.37079,-0.43241 0.12209,-0.19326 0.81796,-0.15992 1.18934,0.0569 0.16575,0.0968 0.37793,0.3071 0.4715,0.46733 0.16454,0.28171 0.16464,0.29095 0.003,0.28042 -0.0918,-0.006 -0.33006,-0.0663 -0.52943,-0.13399 z m -5.66407,2.78339 c 0,-0.0441 -0.0564,-0.18904 -0.1254,-0.32198 l -0.1254,-0.24171 -0.10114,0.29019 c -0.1303,0.37378 -0.13739,0.35377 0.1254,0.35377 0.12462,0 0.22657,-0.0361 0.22657,-0.0803 z m 1.47302,-0.23919 c 0.005,-0.0486 -0.059,-0.10157 -0.14242,-0.11759 -0.10759,-0.0207 -0.13546,0.0134 -0.0957,0.11711 0.0587,0.15291 0.22182,0.15325 0.2381,3.4e-4 z m -1.38239,-0.26205 c 0,-0.0705 0.0428,-0.14267 0.0952,-0.16013 0.0524,-0.0175 0.11751,-0.1733 0.14478,-0.34634 0.063,-0.3998 0.25856,-0.77981 0.46237,-0.89852 0.14163,-0.0825 0.13678,-0.0927 -0.0453,-0.0952 -0.28659,-0.005 -0.54601,0.28912 -0.61497,0.69454 -0.0323,0.18969 -0.0924,0.47743 -0.13368,0.63943 -0.0441,0.17312 -0.0407,0.29453 0.008,0.29453 0.0459,0 0.0833,-0.0578 0.0833,-0.12838 z m 0.54375,-0.5844 c 0,-0.21639 0.33602,-0.64659 0.50502,-0.64659 0.0711,0 0.12936,-0.0395 0.12936,-0.0876 0,-0.14966 -0.39181,0.0465 -0.55613,0.27828 -0.2039,0.28773 -0.29833,0.62504 -0.17498,0.62504 0.0532,0 0.0968,-0.0761 0.0968,-0.16903 z m 0.725,-0.0629 c 0,-0.0778 -0.0408,-0.11608 -0.0907,-0.0852 -0.0498,0.0308 -0.0907,0.0944 -0.0907,0.14129 0,0.0469 0.0408,0.0853 0.0907,0.0853 0.0498,0 0.0907,-0.0635 0.0907,-0.1413 z m 0.35779,-1.53528 c 0.004,-0.29906 0.0492,-0.70051 0.10241,-0.8921 0.0532,-0.19158 0.0736,-0.37144 0.0454,-0.39968 -0.0642,-0.0642 -1.13189,0.25378 -1.19499,0.35587 -0.0255,0.0412 0.0592,0.075 0.18841,0.075 0.29976,0 0.40916,0.2542 0.18116,0.42092 -0.0924,0.0676 -0.25582,0.12283 -0.36317,0.12283 -0.10736,0 -0.25694,0.0714 -0.3324,0.1586 -0.14978,0.17312 -0.38242,1.01134 -0.30278,1.09097 0.0271,0.0271 0.0495,0.004 0.0495,-0.0527 0,-0.20435 0.39729,-0.47176 0.70089,-0.47176 0.35627,0 0.7435,0.33286 0.75953,0.6529 0.0195,0.3895 0.1603,-0.50953 0.16611,-1.06073 z m -1.98904,0.7845 c 0,-0.14172 0.0816,-0.49475 0.18125,-0.7845 0.21496,-0.6248 0.2112,-0.58906 0.062,-0.58906 -0.30783,0 -0.63058,1.04368 -0.46011,1.4879 0.089,0.23186 0.21686,0.16443 0.21686,-0.11434 z m 10.63848,-1.27759 c 0.19784,-0.10595 0.26017,-0.10135 0.46685,0.0341 0.1312,0.0859 0.26558,0.12913 0.29865,0.096 0.0331,-0.0332 0.0585,-0.3525 0.0566,-0.70959 -0.005,-0.97938 -0.28133,-1.43353 -1.35766,-2.23419 -0.99737,-0.74193 -2.02872,-1.19902 -2.97099,-1.31676 -0.89057,-0.11126 -1.35812,0.25345 -1.91917,1.49701 -0.53924,1.19527 -0.59928,1.07543 0.76411,1.5254 0.6504,0.21466 1.18256,0.42824 1.18256,0.47463 0,0.12512 -0.0337,0.11801 -1.50102,-0.31664 -2.96662,-0.87878 -4.46337,-1.23026 -5.23906,-1.23026 -0.22724,0 -0.55727,0.0687 -0.73343,0.15272 -0.3673,0.17515 -0.4372,0.34039 -0.0878,0.20754 0.37835,-0.14385 1.56339,-0.0986 2.47887,0.0946 1.60221,0.33815 5.36196,1.49185 7.16681,2.19917 l 0.77031,0.30189 0.19804,-0.32669 c 0.10892,-0.17968 0.30079,-0.38168 0.42636,-0.44888 z m -10.06273,-0.49581 c 0.20307,-0.30991 0.98498,-0.57413 1.92475,-0.65037 l 0.8022,-0.065 -0.67713,-0.15976 c -1.23553,-0.29151 -2.10315,-0.37319 -2.75614,-0.25946 -0.53121,0.0925 -0.59443,0.12582 -0.59443,0.31336 0,0.35673 0.10327,0.50855 0.53001,0.77918 0.50072,0.31755 0.58719,0.32227 0.77074,0.0421 z m 4.61685,-2.64546 c 0.63893,-1.25918 1.3959,-1.56344 2.79699,-1.12425 0.72316,0.22669 0.71888,0.22722 0.39324,-0.0497 -0.35944,-0.30559 -1.47548,-0.84894 -1.87783,-0.91423 -0.27867,-0.0452 -0.36885,-0.007 -0.70129,0.29277 -0.21507,0.1943 -0.52082,0.62134 -0.70085,0.97883 -0.38927,0.77295 -0.7856,2.24459 -0.63049,2.34103 0.0686,0.0427 0.16924,-0.12741 0.29479,-0.49844 0.10477,-0.30978 0.29627,-0.77152 0.42544,-1.02609 z m -0.93322,1.24766 c 0,-0.37634 0.38301,-1.64253 0.68017,-2.24855 0.17479,-0.35647 0.45734,-0.77065 0.62788,-0.92038 0.17053,-0.14973 0.28584,-0.29647 0.25622,-0.32608 -0.10157,-0.10157 -1.51886,-0.0517 -1.97208,0.0693 -0.62605,0.16723 -1.16843,0.45905 -1.34006,0.72098 -0.17506,0.26717 -0.39889,1.1034 -0.47987,1.79276 l -0.0596,0.50724 0.76355,0.19151 c 0.41995,0.1053 0.86323,0.23132 0.98507,0.27998 0.3521,0.14063 0.5387,0.1175 0.5387,-0.0667 z m -1.43679,-0.7836 c -0.53747,-0.61215 -0.57924,-1.44095 -0.0956,-1.89742 0.21547,-0.20335 0.3476,-0.25022 0.69789,-0.24751 0.59632,0.005 0.88091,0.13324 1.0515,0.47521 0.19546,0.39179 0.1853,0.51092 -0.0909,1.06505 -0.24937,0.50042 -0.74662,0.92066 -1.08936,0.92066 -0.11056,0 -0.3172,-0.13789 -0.47358,-0.31599 z m 0.90229,-0.071 c 0.16938,-0.1132 0.40778,-0.39396 0.5298,-0.62393 0.20694,-0.39001 0.21358,-0.4432 0.0988,-0.79108 -0.0677,-0.20513 -0.154,-0.37296 -0.19179,-0.37296 -0.0378,0 -0.14341,-0.0283 -0.23472,-0.0629 -0.15814,-0.0599 -0.15849,-0.0554 -0.007,0.0971 0.0873,0.088 0.15859,0.21485 0.15859,0.2819 0,0.0671 0.0509,0.1389 0.11321,0.15964 0.16579,0.0554 -0.26758,0.93552 -0.59708,1.21278 -0.31665,0.26645 -0.40543,0.24719 -0.67159,-0.14564 -0.40727,-0.60109 -0.16486,-1.42454 0.48191,-1.63703 0.25866,-0.085 0.25735,-0.0861 -0.0488,-0.0402 -0.8434,0.12643 -1.09069,1.22302 -0.43391,1.92415 0.24097,0.25723 0.41593,0.25682 0.80305,-0.002 z m -0.13174,-0.3153 c 0.41407,-0.44603 0.50919,-0.71319 0.38057,-1.06888 -0.10081,-0.27876 -0.14856,-0.31261 -0.43488,-0.30814 -0.40377,0.006 -0.82325,0.45244 -0.63672,0.6772 0.12714,0.1532 0.26977,0.17582 0.26977,0.0428 0,-0.0498 -0.0682,-0.0907 -0.15174,-0.0907 -0.12559,0 -0.11507,-0.039 0.0611,-0.22657 0.21602,-0.22992 0.45313,-0.30107 0.45313,-0.13593 0,0.0498 0.053,0.0907 0.11782,0.0907 0.23213,0 0.31949,0.18146 0.21746,0.45176 l -0.0966,0.25562 -0.16494,-0.2097 c -0.0908,-0.11534 -0.14009,-0.27449 -0.10971,-0.35369 0.0374,-0.0973 0.005,-0.14399 -0.10091,-0.14399 -0.11157,0 -0.14268,0.0518 -0.10885,0.18116 0.026,0.0996 0.0107,0.20399 -0.0347,0.23191 -0.19356,0.11963 -0.0733,0.31193 0.19511,0.31193 0.16175,0 0.2539,0.0378 0.22123,0.0907 -0.11062,0.17897 -0.48289,0.0912 -0.67268,-0.1586 l -0.18934,-0.24921 0.0912,0.25531 c 0.14119,0.39511 0.26995,0.60562 0.37047,0.60562 0.0505,0 0.19588,-0.11215 0.32312,-0.24921 z m 0.21312,-0.74767 c 0,-0.0498 -0.0408,-0.0907 -0.0907,-0.0907 -0.0498,0 -0.0907,0.0408 -0.0907,0.0907 0,0.0498 0.0408,0.0907 0.0907,0.0907 0.0498,0 0.0907,-0.0408 0.0907,-0.0907 z m -1.95959,0.80239 c 0.0331,-0.35618 0.0473,-0.66053 0.0315,-0.67634 -0.0763,-0.0763 -0.63194,0.35968 -0.79113,0.62079 -0.27463,0.45042 -0.23839,0.59558 0.15908,0.63714 0.18692,0.0195 0.38497,0.0424 0.44012,0.0508 0.0608,0.01 0.12398,-0.23998 0.16045,-0.63239 z"
         id="path4952"
         sodipodi:nodetypes="csscccccsssscsssscssssssssssssssssssssssscsscsssscssssssscsscscscsscsssscccsssssccsssssscsscsscssccsssssssssscsssscssssssssscsscscsscscsscsssssssssscsssccsssssssssssssssssssssssscssssscssssscssssssssscsscccssscsssscssssssssssssssssssssssssssssssssssssscssssssssssccssscccccsssssscscccsssccssssccssscsssssssccsscssssccsssscsssssssssccccssssscccssssssssssssccccsssccsssscsccccssccsssssssssscsssssssssssssssscssssssssscsssssssssscsssssssssssssscssssssssssssssssssscsssssscssscsssccssscccssssssssssssssssssssssssssssssscssssssscssssscsscssssssssssssssscsssssssssscsssssccsscssscssccssssssssssssssssssssscssssssssssscssssscsssssssssssssscsccsscssssssssssssssssssssscsssssssssscssscssssssssccsssssssssscsssscssscsssssssssssscss" />
      <circle
         style="fill:none;stroke:#ff0000;stroke-width:0.1;stroke-dasharray:none"
         id="path788-8-1-8-1-9-2-1-4-2-3"
         cx="-322.91968"
         cy="-107.18085"
         r="19.954653" />
      <ellipse
         style="fill:none;stroke:#ff00ff;stroke-width:0.1;stroke-dasharray:none;stroke-opacity:1"
         id="path1138-9-4-0-0-1-2-6-7-2-4"
         cx="-322.91968"
         cy="-107.18085"
         rx="18.492125"
         ry="18.492126" />
      <circle
         style="fill:none;stroke:#0000ff;stroke-width:0.1;stroke-linecap:round;stroke-dasharray:none;stroke-opacity:1;paint-order:markers stroke fill"
         id="path13019-1-33-7-4-6-1"
         cx="-322.91968"
         cy="-122.19185"
         r="2" />
    </g>
  </g>
</svg>
