<?xml version="1.0" encoding="UTF-8" standalone="no"?>
<!-- Created with Inkscape (http://www.inkscape.org/) -->

<svg
   width="41.008999mm"
   height="41.008999mm"
   viewBox="0 0 41.008999 41.008999"
   version="1.1"
   id="svg1"
   inkscape:version="1.4.2 (f4327f4, 2025-05-13)"
   sodipodi:docname="151.svg"
   xmlns:inkscape="http://www.inkscape.org/namespaces/inkscape"
   xmlns:sodipodi="http://sodipodi.sourceforge.net/DTD/sodipodi-0.dtd"
   xmlns="http://www.w3.org/2000/svg"
   xmlns:svg="http://www.w3.org/2000/svg">
  <sodipodi:namedview
     id="namedview1"
     pagecolor="#ffffff"
     bordercolor="#000000"
     borderopacity="0.25"
     inkscape:showpageshadow="2"
     inkscape:pageopacity="0.0"
     inkscape:pagecheckerboard="0"
     inkscape:deskcolor="#d1d1d1"
     inkscape:document-units="mm"
     inkscape:zoom="1.5878906"
     inkscape:cx="108.3198"
     inkscape:cy="200.26568"
     inkscape:window-width="1050"
     inkscape:window-height="1081"
     inkscape:window-x="3737"
     inkscape:window-y="0"
     inkscape:window-maximized="0"
     inkscape:current-layer="layer1" />
  <defs
     id="defs1" />
  <g
     inkscape:label="Layer 1"
     inkscape:groupmode="layer"
     id="layer1"
     transform="translate(-0.7937635,-0.79375582)">
    <g
       id="g11324"
       transform="translate(301.84813,127.75873)">
      <path
         style="fill:#000000;stroke-width:0.1;stroke-dasharray:none"
         d="m -284.0164,-91.04594 c -0.0358,-0.0364 -0.33283,-0.0686 -0.6602,-0.0715 -0.42395,-0.004 -0.65385,-0.0465 -0.79905,-0.14815 -0.11212,-0.0785 -0.32223,-0.14278 -0.46692,-0.14278 -0.26711,0 -0.61875,-0.30947 -0.72605,-0.63897 -0.0457,-0.1403 -0.14032,-0.19307 -1.12727,-0.62856 -0.60389,-0.26648 -0.76072,-0.57142 -0.76957,-1.49642 -0.007,-0.74378 0.16163,-1.30158 0.48587,-1.60618 0.22344,-0.20992 0.82218,-0.3658 1.32974,-0.34619 l 0.3368,0.0131 -0.0301,-0.47418 c -0.0895,-1.40557 -0.47149,-3.26283 -0.83396,-4.05456 -0.3668,-0.8012 -0.25278,-1.75562 0.25197,-2.10911 0.17514,-0.12266 0.18655,-0.18995 0.19366,-1.14211 0.007,-0.93756 0.023,-1.03578 0.21817,-1.33917 0.11585,-0.18005 0.23451,-0.46499 0.26368,-0.63321 0.0321,-0.18574 0.13595,-0.37104 0.2642,-0.47193 l 0.21118,-0.16611 -0.3709,-0.5594 c -0.44209,-0.66677 -0.8156,-1.39611 -1.00482,-1.962 -0.16562,-0.49535 -0.26772,-1.52636 -0.15116,-1.52636 0.0476,0 0.0647,-0.19107 0.042,-0.46556 -0.0259,-0.31297 -0.0102,-0.44804 0.048,-0.41203 0.0477,0.0294 0.10088,0.0109 0.11828,-0.0413 0.0236,-0.0709 0.0779,-0.0701 0.21486,0.003 0.25908,0.13864 0.63161,-0.0974 0.84303,-0.53408 l 0.16436,-0.3395 -0.1685,-0.38091 c -0.24136,-0.54563 -0.2333,-0.89708 0.0293,-1.276 0.12075,-0.17423 0.21953,-0.38098 0.21953,-0.45946 0,-0.0784 0.0928,-0.32571 0.20609,-0.54939 0.34117,-0.67328 0.96333,-0.97273 1.55422,-0.74807 0.18825,0.0716 0.20754,0.0554 0.25861,-0.21686 0.13168,-0.70194 0.71838,-1.67563 1.00964,-1.67563 0.18864,0 0.70681,0.37689 1.1681,0.84962 l 0.44262,0.45358 0.63854,-0.0438 c 1.00187,-0.0687 2.31678,0.30109 3.13006,0.88019 0.20131,0.14335 0.32623,0.15376 1.3371,0.11137 0.87546,-0.0368 1.24881,-0.017 1.73764,0.0918 0.91943,0.20454 0.93454,0.22251 0.811,0.96361 -0.12638,0.75815 -0.47637,1.73734 -0.87864,2.45822 -0.28691,0.51416 -0.30526,0.59027 -0.30443,1.26299 6.3e-4,0.53533 0.0365,0.77018 0.14198,0.9312 0.12109,0.18481 0.12971,0.29752 0.0607,0.79472 -0.0856,0.61738 -0.16312,0.76127 -0.53144,0.98587 l -0.23268,0.14189 0.23268,0.16133 c 0.12798,0.0887 0.29766,0.18477 0.37708,0.21342 0.0795,0.0287 0.14439,0.089 0.14439,0.13397 0,0.15723 -0.37041,0.42515 -0.74067,0.53573 l -0.37316,0.11145 0.24751,0.0621 c 0.3601,0.0902 0.36942,0.10238 0.27837,0.36361 -0.0846,0.24274 -0.60278,0.66463 -0.8191,0.66692 -0.10007,8.9e-4 -0.10092,0.0129 -0.004,0.0735 0.0904,0.0573 0.073,0.0991 -0.0839,0.20187 -0.36786,0.24104 -0.92428,0.38686 -1.73885,0.45574 -0.44611,0.0377 -0.83193,0.0893 -0.85736,0.11484 -0.0255,0.0255 -0.009,0.11665 0.0374,0.20268 0.0625,0.1169 0.24654,0.18175 0.72776,0.25657 0.35422,0.055 0.77437,0.16755 0.93367,0.24994 0.15928,0.0824 0.4292,0.17205 0.5998,0.19923 0.37819,0.0603 0.77435,0.32946 0.84959,0.57734 0.0306,0.10092 0.19611,0.36913 0.36772,0.59603 0.36761,0.48603 0.83666,1.39365 1.03111,1.99524 0.0947,0.29306 0.17351,0.41408 0.25035,0.38459 0.29012,-0.11134 1.10916,-1.40363 1.3122,-2.07044 0.0311,-0.10209 0.10643,-0.18563 0.1674,-0.18563 0.31042,0 0.94285,1.15104 1.11599,2.03114 0.0953,0.48434 0.0352,1.29554 -0.12623,1.70321 -0.044,0.11096 -0.026,0.13327 0.0755,0.0943 0.22175,-0.0851 0.16272,0.38258 -0.10047,0.79617 -0.27661,0.43465 -0.35177,0.50083 -0.93207,0.82071 -0.41292,0.22763 -0.42651,0.24451 -0.19774,0.2459 l 0.24564,0.002 -0.20573,0.20574 c -0.25688,0.25687 -1.04547,0.54093 -1.65916,0.59766 l -0.46604,0.0431 -0.0346,1 c -0.0266,0.76804 -0.007,1.05726 0.0865,1.24685 0.0667,0.13578 0.13836,0.48849 0.15933,0.78382 0.0463,0.65229 -0.0695,0.79757 -0.71756,0.9 -0.23539,0.0372 -0.47028,0.10999 -0.522,0.1617 -0.11579,0.11578 -1.1869,0.12561 -1.2574,0.0115 -0.028,-0.0455 -0.20925,-0.0826 -0.4027,-0.0826 -0.47243,0 -1.10584,-0.22506 -1.21677,-0.43234 -0.0849,-0.15854 -0.0688,-0.54391 0.0599,-1.4403 l 0.0496,-0.34628 -0.31084,0.0859 c -0.17097,0.0471 -0.63839,0.0731 -1.03872,0.0575 -0.52792,-0.0205 -0.73874,1e-5 -0.7674,0.0748 -0.0231,0.0602 -0.18674,0.10337 -0.39277,0.10371 l -0.35325,6.3e-4 -0.14345,0.59759 c -0.26612,1.10857 -1.22027,2.1015 -2.09943,2.18477 -0.21853,0.0208 -0.42656,0.008 -0.46231,-0.0284 z m 0.89166,-0.32742 c 0.35114,-0.16663 1.16704,-1.01999 1.31238,-1.37265 0.19472,-0.47246 0.65204,-2.83337 0.5938,-3.06543 -0.0696,-0.27723 -0.2402,-0.27663 -0.45908,0.002 -0.0947,0.12039 -0.19496,0.19607 -0.22282,0.16821 -0.0279,-0.0279 -0.0738,-0.26514 -0.10198,-0.52726 -0.0679,-0.63105 -0.21449,-0.65506 -0.68235,-0.11179 -0.19747,0.2293 -0.3776,0.41676 -0.4003,0.41659 -0.0226,-1.7e-4 -0.0481,-0.13393 -0.0566,-0.29721 -0.009,-0.16328 -0.0309,-0.3125 -0.0501,-0.33159 -0.0738,-0.0739 -0.2876,0.0696 -0.3907,0.2623 -0.17121,0.3199 -0.24501,0.23858 -0.24736,-0.27252 l -0.002,-0.47441 -0.30941,0.57755 c -0.17015,0.31764 -0.37766,0.67965 -0.4611,0.80444 l -0.1517,0.22688 0.27764,8.9e-4 c 0.1527,6.3e-4 0.57465,0.13387 0.93768,0.29627 0.36303,0.16238 0.78072,0.33524 0.9282,0.38411 0.14748,0.0489 0.26815,0.12046 0.26815,0.15908 0,0.10687 -0.38376,-0.004 -1.11385,-0.3252 -0.82749,-0.36273 -1.6578,-0.4485 -2.22914,-0.23032 -0.2877,0.10988 -0.422,0.22826 -0.59737,0.52657 -0.21315,0.36261 -0.22621,0.4428 -0.22621,1.38933 0,0.89149 0.0194,1.03071 0.17328,1.23758 0.0953,0.1282 0.25829,0.24564 0.36216,0.26099 0.16359,0.0241 0.18111,0.002 0.13076,-0.16503 -0.032,-0.10609 -0.0789,-0.52925 -0.10444,-0.94036 -0.0606,-0.97758 0.0957,-1.55839 0.51924,-1.93032 0.16371,-0.14374 0.31801,-0.24101 0.34287,-0.21618 0.0249,0.0249 -0.0541,0.12326 -0.17533,0.21864 -0.46,0.36183 -0.62109,1.09376 -0.47379,2.15271 0.10591,0.76152 0.21103,1.01169 0.47582,1.13233 0.20604,0.094 0.70964,0.12529 0.7859,0.049 0.0234,-0.0234 -0.008,-0.2357 -0.0687,-0.47176 -0.23138,-0.89199 -0.059,-2.17735 0.35316,-2.63273 0.24565,-0.27144 0.27221,-0.16348 0.0552,0.22468 -0.37005,0.66209 -0.35678,2.23187 0.0238,2.81926 0.14631,0.22583 0.57466,0.25001 0.9844,0.0556 z m 7.4082,-0.68772 c 0.13242,-0.1327 0.0867,-1.32725 -0.0714,-1.86187 -0.10016,-0.3389 -0.10143,-0.38941 -0.008,-0.28877 0.18218,0.19477 0.3041,0.65106 0.3578,1.33891 l 0.0499,0.63944 0.25591,-8.9e-4 c 0.48653,-0.003 0.60552,-0.25342 0.45928,-0.96874 -0.0806,-0.39446 -0.1612,-0.53634 -0.48071,-0.8467 -0.39018,-0.37898 -0.8404,-0.57599 -1.3164,-0.57599 -1.00293,0 -1.73237,0.50743 -1.91466,1.33192 -0.0566,0.25607 -0.0788,0.56169 -0.0493,0.67918 0.0638,0.25426 0.43066,0.46422 0.8103,0.46377 l 0.27225,-3.1e-4 0.0101,-0.63911 c 0.0105,-0.66597 0.14942,-1.3404 0.27612,-1.3404 0.0424,0 0.0411,0.11327 -0.003,0.26761 -0.092,0.3208 -0.10021,1.5479 -0.0113,1.68782 0.16739,0.26332 1.13317,0.34451 1.36262,0.11453 z m -10.87771,-2.36508 c 0.23937,-0.5729 0.72619,-0.94246 1.24154,-0.94246 0.25112,0 0.47149,-0.22172 0.85733,-0.86267 0.26169,-0.43468 0.27165,-0.47634 0.14439,-0.60361 -0.12726,-0.12727 -0.1367,-0.12694 -0.1367,0.004 0,0.26699 -0.30542,0.14469 -0.60777,-0.24338 -0.26634,-0.34186 -0.29992,-0.36259 -0.30092,-0.18563 -0.002,0.28127 -0.0881,0.57045 -0.17054,0.57045 -0.0384,0 -0.16407,-0.13857 -0.27914,-0.30792 -0.17534,-0.25804 -0.20926,-0.27889 -0.20926,-0.12864 0,0.0986 -0.0324,0.19933 -0.072,0.22381 -0.0396,0.0245 -0.0754,0.21231 -0.0796,0.4174 -0.007,0.32173 0.0154,0.3729 0.15939,0.3729 0.0942,0 0.14385,0.0372 0.11397,0.0856 -0.03,0.0487 -0.29267,0.0772 -0.6092,0.0664 -1.02331,-0.0352 -1.42893,0.41799 -1.43923,1.60788 -0.008,0.90831 0.24574,1.62283 0.57597,1.62283 0.0828,0 0.0897,-0.0506 0.0285,-0.21164 -0.0442,-0.1164 -0.0804,-0.48094 -0.0804,-0.81009 0,-1.0672 0.36925,-1.866 0.86257,-1.866 0.27795,0 0.27084,0.14681 -0.009,0.18017 -0.40746,0.0486 -0.56159,0.39066 -0.59364,1.31739 -0.033,0.95566 0.0201,1.32846 0.21744,1.52641 0.13322,0.13362 0.14425,0.0951 0.19644,-0.68551 0.0305,-0.45489 0.1157,-0.9717 0.18957,-1.14847 z m -1.5263,0.98863 c -0.0638,-0.19347 -0.0859,-0.55719 -0.0596,-0.98017 0.041,-0.65816 0.17069,-1.04767 0.4374,-1.31438 0.0724,-0.0724 0.0983,-0.13158 0.0575,-0.13158 -0.12735,0 -0.41133,0.35753 -0.54867,0.69076 -0.17032,0.41329 -0.17414,1.44056 -0.007,1.841 0.15985,0.38258 0.25392,0.29984 0.1201,-0.10563 z m 7.01562,-0.56487 c 0,-0.0201 -0.0371,-0.0593 -0.0826,-0.0874 -0.0454,-0.028 -0.0825,-0.0116 -0.0825,0.0364 0,0.048 0.0371,0.0874 0.0825,0.0874 0.0454,0 0.0826,-0.0163 0.0826,-0.0364 z m 0.49503,-0.0913 c 0,-0.0627 -0.4397,-0.44403 -0.51565,-0.44722 -0.1106,-0.004 -0.0656,0.12731 0.10634,0.31186 0.15205,0.16321 0.40931,0.24828 0.40931,0.13536 z m 1.80989,-0.1183 c 0.32579,-0.0935 0.41475,-0.20262 0.41653,-0.51119 l 8.9e-4,-0.22092 -0.47441,0.24016 c -0.26093,0.1321 -0.66005,0.2852 -0.88695,0.34022 -0.2269,0.0551 -0.4478,0.12992 -0.49091,0.1664 -0.11185,0.0947 1.09636,0.0824 1.43448,-0.0146 z m 1.59237,-0.48447 0.46446,-0.10393 -0.16762,-0.28411 c -0.0922,-0.15625 -0.20168,-0.28408 -0.24332,-0.28408 -0.0416,0 -0.13765,0.12995 -0.2134,0.28876 -0.16545,0.34698 -0.27007,0.37027 -0.27795,0.0618 -0.007,-0.25797 -0.14233,-0.63489 -0.15599,-0.43316 -0.004,0.0681 -0.0997,0.30941 -0.2113,0.5363 -0.11163,0.22689 -0.20328,0.49991 -0.20369,0.60672 l -6.2e-4,0.19418 0.27255,-0.23931 c 0.16786,-0.14738 0.45097,-0.27923 0.737,-0.34325 z m 2.29068,0.27789 c 0,-0.26678 -0.18312,-0.95001 -0.25462,-0.95001 -0.0305,0 -0.10152,0.11138 -0.15791,0.24752 -0.0564,0.13614 -0.12745,0.24751 -0.15791,0.24751 -0.0304,0 -0.0993,-0.15778 -0.15303,-0.35065 -0.12811,-0.46006 -0.22192,-0.59171 -0.37867,-0.53156 -0.11587,0.0445 -0.5962,0.87161 -0.5329,0.91766 0.0144,0.0105 0.23734,0.0646 0.49546,0.12033 0.25812,0.0557 0.59227,0.18878 0.74256,0.29571 0.35241,0.25074 0.39702,0.25113 0.39702,0.004 z m -4.57909,-0.22306 c 0.83393,-0.2726 1.16846,-0.50853 1.23241,-0.8692 0.0304,-0.17135 0.0724,-0.37028 0.0932,-0.4421 0.0259,-0.0892 -0.26581,0.0199 -0.92277,0.34502 -0.52843,0.26155 -1.15085,0.52001 -1.38315,0.57434 -0.63674,0.14889 -0.66418,0.17507 -0.45809,0.43707 0.16211,0.20609 0.21017,0.22077 0.56031,0.17105 0.21064,-0.0299 0.60576,-0.12719 0.87803,-0.21618 z m 3.07437,-0.89986 c 0.3088,-0.60959 0.51768,-0.63729 0.78841,-0.10458 0.17397,0.34231 0.20681,0.37053 0.25489,0.21908 0.0851,-0.26805 0.28884,-0.30229 0.37952,-0.0638 0.0428,0.11259 0.0887,0.2047 0.10184,0.2047 0.0132,0 -8.9e-4,-0.36927 -0.0311,-0.82059 -0.0959,-1.42658 -0.58634,-2.14964 -1.45822,-2.14964 -0.78185,0 -1.11291,0.48043 -1.55544,2.2572 -0.21793,0.87496 -0.20731,1.19557 0.0144,0.43312 0.074,-0.25445 0.16731,-0.46265 0.20741,-0.46265 0.04,0 0.098,0.13922 0.12875,0.3094 0.0772,0.42775 0.12059,0.47725 0.22917,0.26134 0.15084,-0.29995 0.27936,-0.27463 0.46635,0.0918 0.0964,0.18887 0.19163,0.32697 0.21172,0.3069 0.0201,-0.0202 0.13815,-0.23717 0.26239,-0.48242 z m -3.60044,0.14418 c 1.05413,-0.40115 1.9441,-0.9336 2.0452,-1.22358 0.063,-0.1808 0.0591,-0.22185 -0.017,-0.17304 -0.0547,0.0352 -0.43511,0.28819 -0.84521,0.5622 -0.41711,0.27871 -1.03509,0.60191 -1.40261,0.73357 -0.36133,0.12945 -0.69225,0.26725 -0.73535,0.30622 -0.16499,0.14918 0.26786,0.0561 0.95491,-0.20537 z m -0.49799,-0.18011 c 1.31985,-0.46567 3.02922,-1.65004 2.76409,-1.91516 -0.0269,-0.0269 -0.13916,-6.4e-4 -0.24948,0.0584 -0.11032,0.0591 -0.25292,0.0872 -0.3169,0.0627 -0.17583,-0.0674 -0.38805,-0.57633 -0.52935,-1.26929 l -0.1267,-0.62126 0.31482,-0.6709 c 0.46693,-0.99499 0.47537,-1.40708 0.048,-2.33827 -0.1841,-0.40109 -0.37305,-0.83135 -0.41988,-0.95613 -0.10565,-0.28153 -0.25103,-0.28752 -0.50176,-0.0207 -0.10657,0.11344 -0.27881,0.20626 -0.38275,0.20626 -0.1074,0 -0.22891,0.0747 -0.2815,0.17286 -0.075,0.14036 -0.14289,0.16341 -0.36036,0.12263 -0.20694,-0.0388 -0.30258,-0.0119 -0.42062,0.11857 -0.24037,0.26561 -0.68,0.50743 -0.88447,0.4865 -0.10271,-0.0105 -0.32206,0.009 -0.48745,0.0427 -0.18885,0.0389 -0.36792,0.0258 -0.4814,-0.0348 -0.17278,-0.0924 -0.44927,-0.60456 -0.39222,-0.72646 0.015,-0.032 -0.0766,-0.15797 -0.20364,-0.27988 -0.127,-0.1219 -0.2309,-0.19054 -0.2309,-0.15257 0,0.16539 -0.75896,1.05835 -1.01818,1.19795 -0.34169,0.18402 -0.38275,0.35694 -0.3823,1.6102 3.1e-4,0.81806 0.12814,1.63014 0.3442,2.1864 0.13121,0.3378 0.62585,1.11385 0.70994,1.11385 0.0698,0 0.34634,-0.52414 0.34634,-0.6565 0,-0.0403 -0.11139,-0.18475 -0.24752,-0.32089 -0.20354,-0.20353 -0.24752,-0.3152 -0.24752,-0.62843 0,-0.50436 0.21282,-0.89272 0.79799,-1.45613 0.59755,-0.57534 1.13494,-0.93971 1.76135,-1.19425 1.25467,-0.50982 2.21419,-0.26799 2.64715,0.66717 0.19716,0.42585 0.19553,0.76138 -0.005,1.23148 -0.17377,0.40539 -0.83157,1.16637 -1.07498,1.24364 -0.1897,0.0602 -0.26989,0.27168 -0.57885,1.52644 -0.13967,0.56722 -0.27332,1.0963 -0.297,1.1757 -0.0522,0.1751 -0.0566,0.1749 0.38787,0.018 z m -1.07987,-0.49247 c 0.13557,-0.16334 0.38538,-0.15764 0.47971,0.0109 0.0592,0.10584 0.0882,0.0661 0.13531,-0.1848 0.0965,-0.51392 0.60508,-2.13653 0.91189,-2.90883 0.27366,-0.68885 0.27809,-0.71758 0.13311,-0.86286 -0.365,-0.36567 -1.25704,-0.32944 -2.1439,0.0871 -0.47682,0.22394 -1.16703,0.82737 -1.16497,1.01849 8.9e-4,0.097 0.0151,0.0959 0.0813,-0.007 0.18397,-0.28467 0.0728,0.19138 -0.20627,0.88355 -0.20508,0.50861 -0.28876,0.84434 -0.28876,1.15858 0,0.44072 6.2e-4,0.44193 0.18337,0.31398 0.26104,-0.18283 0.38318,-0.15969 0.4444,0.0844 l 0.0534,0.21268 0.29883,-0.28339 c 0.54396,-0.51584 0.81607,-0.44884 0.84734,0.20866 0.0197,0.41419 0.0683,0.46949 0.23531,0.26814 z m 8.31079,-0.30772 c 0.32941,-0.10848 0.49094,-0.19445 0.39363,-0.20949 -0.58273,-0.09 -0.58112,-0.0982 0.0861,-0.43337 0.67951,-0.34137 1.12637,-0.71074 1.32971,-1.09912 0.13147,-0.25112 0.0702,-0.43881 -0.0647,-0.19791 -0.155,0.27698 -0.21672,0.14029 -0.0934,-0.20695 0.0685,-0.19286 0.13924,-0.62912 0.15725,-0.96944 l 0.0328,-0.61882 -0.19036,0.62154 c -0.10471,0.34185 -0.27263,0.75463 -0.37317,0.9173 -0.22058,0.35691 -0.2266,0.41063 -0.0384,0.34302 0.11257,-0.0404 0.10214,-0.006 -0.0472,0.15871 -0.14237,0.15642 -0.16359,0.22183 -0.0826,0.25431 0.19239,0.0771 -0.52207,0.67854 -1.03307,0.86972 -0.26005,0.0973 -0.54568,0.17692 -0.63474,0.17692 -0.17955,0 -0.22032,0.1304 -0.0589,0.18809 0.16352,0.0584 0.0454,0.12799 -0.43757,0.2578 l -0.44937,0.1208 0.47267,0.006 c 0.2807,0.003 0.69959,-0.0693 1.03133,-0.17854 z m -0.93649,-0.12227 c 0.0322,-0.0323 -0.0265,-0.1243 -0.13064,-0.20443 l -0.18935,-0.14572 0.24751,-0.003 c 0.39071,-0.004 1.08253,-0.21436 1.48627,-0.45097 0.42558,-0.2494 0.46512,-0.31693 0.14323,-0.24463 l -0.2269,0.051 0.24753,-0.21143 c 0.13613,-0.11629 0.20049,-0.21276 0.14302,-0.2144 -0.0616,-0.002 0.0109,-0.17066 0.17689,-0.41205 0.37836,-0.55002 0.63122,-1.31626 0.68186,-2.0661 0.0401,-0.59407 0.029,-0.64328 -0.27572,-1.23139 -0.17462,-0.33691 -0.35781,-0.62603 -0.40707,-0.64245 -0.0493,-0.0164 -0.13722,0.1403 -0.19544,0.34825 -0.13927,0.49741 -0.58526,1.23251 -1.01552,1.67379 -0.26013,0.2668 -0.34561,0.41986 -0.34561,0.6188 0,0.19816 -0.0481,0.28498 -0.1922,0.34683 -0.10859,0.0466 -0.27789,0.26289 -0.38917,0.4972 -0.10832,0.22806 -0.31409,0.53449 -0.45726,0.68093 l -0.26032,0.26626 0.16793,0.39164 c 0.0924,0.2154 0.19383,0.53088 0.2255,0.70103 0.0498,0.26766 0.0879,0.3094 0.28215,0.3094 0.12352,0 0.25101,-0.0265 0.28331,-0.0588 z m -10.20875,-0.95024 c -0.66327,-0.98909 -0.98619,-2.45616 -0.83033,-3.77208 0.0752,-0.6357 0.07,-0.67975 -0.10031,-0.8398 l -0.17979,-0.16889 -0.0601,0.64153 c -0.16235,1.73237 0.27841,3.44478 1.12229,4.36027 0.19202,0.20832 0.36278,0.36512 0.37946,0.34845 0.0167,-0.0167 -0.13237,-0.27296 -0.33122,-0.56948 z m -0.70433,-0.0809 c -0.54797,-0.52798 -0.9443,-1.08606 -1.2253,-1.72535 -0.19791,-0.45025 -0.40735,-0.63715 -0.31886,-0.28454 0.15382,0.61286 0.38009,1.82505 0.38009,2.03622 0,0.13115 0.0371,0.23845 0.0826,0.23845 0.0454,0 0.0826,-0.0371 0.0826,-0.0826 0,-0.15681 0.20073,-0.0817 0.38583,0.14438 l 0.18577,0.2269 0.003,-0.30453 c 0.002,-0.1675 0.0339,-0.32368 0.0718,-0.34707 0.0378,-0.0234 0.23047,0.12213 0.42801,0.32342 0.19755,0.20128 0.37896,0.34617 0.40315,0.322 0.0242,-0.0242 -0.19113,-0.27052 -0.47849,-0.54738 z m 6.71132,-0.53965 c -0.32975,-1.01293 -0.32979,-1.15092 -6.2e-4,-1.83791 0.16131,-0.3366 0.29284,-0.66874 0.29229,-0.7381 -8.9e-4,-0.11428 -0.53281,1.00464 -0.6324,1.33037 -0.0567,0.18565 0.12006,1.023 0.3066,1.4519 0.2251,0.51754 0.24011,0.42665 0.034,-0.20626 z m 0.99015,0.14438 c 0.19589,-0.37357 0.47777,-1.1625 0.43177,-1.2085 -0.0248,-0.0248 -0.12653,0.14411 -0.22603,0.37542 -0.0995,0.23129 -0.22954,0.42055 -0.28896,0.42055 -0.15403,0 -0.2339,0.31552 -0.11587,0.45774 0.0799,0.0964 0.0732,0.1198 -0.0345,0.1198 -0.0736,0 -0.13386,-0.0346 -0.13386,-0.0769 0,-0.0837 -0.31928,-0.20882 -0.37944,-0.14866 -0.0203,0.0203 -0.0128,0.1 0.0167,0.1769 0.0859,0.22366 0.5943,0.14267 0.7301,-0.1163 z m -7.91049,-0.35066 c -0.3269,-0.74155 -0.47935,-1.58428 -0.47387,-2.61957 0.003,-0.52185 0.0395,-1.06236 0.0817,-1.20111 0.0592,-0.19489 0.0422,-0.31691 -0.0747,-0.53629 -0.0832,-0.1562 -0.1528,-0.3861 -0.1547,-0.5109 -0.004,-0.26616 -0.12561,-0.29613 -0.25097,-0.0618 -0.0487,0.0907 -0.15983,0.16501 -0.24723,0.16501 -0.19241,0 -0.41831,0.66741 -0.40303,1.1907 0.01,0.32524 0.0122,0.32156 0.0902,-0.11811 0.12705,-0.71678 0.23312,-0.68521 0.17624,0.0525 -0.0935,1.21351 0.27539,2.52181 0.99601,3.53168 0.2124,0.29764 0.40081,0.54116 0.41872,0.54116 0.0179,0 -0.0534,-0.19491 -0.15842,-0.43315 z m 9.89453,0.10313 c -0.0821,-0.0907 -0.18482,-0.165 -0.22819,-0.165 -0.0433,0 0.009,0.073 0.11591,0.16226 0.25214,0.21004 0.30096,0.21124 0.11228,0.003 z m -7.96099,-0.49339 c -0.32797,-0.61283 1.15849,-1.71698 2.42054,-1.79796 0.67708,-0.0435 1.02428,0.0786 1.26414,0.44477 0.11698,0.17855 0.12227,0.23996 0.0329,0.38292 -0.11645,0.18646 -0.41829,1.02551 -0.41829,1.16275 0,0.15759 0.59039,-0.4776 0.83225,-0.89543 0.42459,-0.7335 0.23845,-1.6014 -0.41843,-1.95094 -0.83919,-0.44654 -2.45643,0.1606 -3.67581,1.37998 -0.65452,0.65453 -0.78287,1.27023 -0.35416,1.69892 l 0.17494,0.17494 0.1145,-0.21854 c 0.0843,-0.16106 0.0916,-0.26139 0.0273,-0.38141 z m 5.4858,0.49339 c -0.028,-0.0455 -0.0126,-0.0826 0.0342,-0.0826 0.097,0 0.37065,-0.4889 0.30843,-0.55111 -0.0225,-0.0225 -0.10367,0.0554 -0.18058,0.17268 -0.0858,0.13081 -0.21601,0.21341 -0.33662,0.21341 -0.14176,0 -0.19678,0.0461 -0.19678,0.16502 0,0.12202 0.055,0.165 0.21114,0.165 0.11975,0 0.18907,-0.0357 0.16014,-0.0826 z m 3.2097,-0.51423 c 0.12429,-0.23902 0.17079,-0.36679 0.10332,-0.28391 -0.0675,0.0829 -0.17457,0.15828 -0.23802,0.16759 -0.15989,0.0234 -0.55856,0.34657 -0.55856,0.45269 0,0.13403 0.27315,0.25931 0.37715,0.17299 0.0496,-0.0411 0.19181,-0.27035 0.31611,-0.50936 z m -2.26088,0.34923 c 0,-0.0455 -0.0163,-0.0826 -0.0364,-0.0826 -0.0201,0 -0.0593,0.0371 -0.0874,0.0826 -0.028,0.0455 -0.0116,0.0826 0.0364,0.0826 0.048,0 0.0874,-0.0371 0.0874,-0.0826 z m 0.41508,-0.24279 c -0.0418,-0.0781 -0.12943,-0.18636 -0.19466,-0.24051 -0.094,-0.078 -0.12912,-0.0712 -0.16923,0.0334 -0.0792,0.2066 0.086,0.44172 0.27579,0.3921 0.12609,-0.033 0.1465,-0.0758 0.0881,-0.18499 z m 0.82252,0.12578 c 0,-0.20044 -0.13651,-0.29553 -0.42426,-0.29553 -0.29854,0 -0.31714,0.013 -0.23579,0.16502 0.0622,0.11626 0.17275,0.16501 0.37418,0.16501 0.15723,0 0.28587,-0.0155 0.28587,-0.0345 z m -2.36181,-0.40169 c -0.0396,-0.28845 3.1e-4,-0.45962 0.21668,-0.92819 0.34263,-0.74236 0.33854,-1.34835 -0.009,-1.35706 -0.0277,-6.3e-4 -0.0719,0.18123 -0.0984,0.40428 -0.0265,0.22304 -0.16527,0.63778 -0.30856,0.92165 -0.21358,0.4231 -0.25105,0.57532 -0.20796,0.8448 0.066,0.4131 0.10105,0.4682 0.29733,0.4682 0.1393,0 0.15269,-0.0431 0.1101,-0.35368 z m 3.03009,-0.24863 c -0.0865,-0.0865 -0.58577,0.25262 -0.58577,0.39781 0,0.21227 0.1276,0.19316 0.38664,-0.058 0.16314,-0.15813 0.24359,-0.29545 0.19913,-0.33991 z m -2.77567,0.17881 c -0.0616,-0.19435 0.20654,-0.98307 0.3535,-1.03944 0.11627,-0.0447 0.14341,-0.26969 0.0326,-0.26969 -0.12529,0 -0.50632,0.95831 -0.50632,1.27341 0,0.18954 0.0323,0.28397 0.0859,0.25089 0.0472,-0.0291 0.0627,-0.12601 0.0344,-0.21517 z m 0.53794,-0.28122 c -0.0564,-0.10545 -0.0804,-0.24991 -0.053,-0.32104 0.0274,-0.0711 0.0199,-0.12932 -0.0164,-0.12932 -0.0364,0 -0.10677,0.13261 -0.15651,0.29471 -0.075,0.24419 -0.0672,0.32187 0.0451,0.45308 0.1214,0.14178 0.14335,0.14454 0.2095,0.0264 0.0469,-0.0837 0.0364,-0.20225 -0.0287,-0.32376 z m 1.32193,0.2482 c 0,-0.1416 -0.43229,-0.86358 -0.51705,-0.86354 -0.0659,2e-5 -0.10865,0.15974 -0.12137,0.45378 l -0.0196,0.45375 h 0.32902 c 0.18096,0 0.32902,-0.0199 0.32902,-0.0441 z m 0.48099,-0.0875 c 0.10322,-0.0723 0.17184,-0.1744 0.15247,-0.22688 -0.06,-0.16268 0.29733,-0.71693 0.49408,-0.7663 l 0.18666,-0.0469 -0.24575,-0.48683 c -0.25746,-0.51 -0.36243,-0.61988 -0.28054,-0.29363 0.055,0.21922 -0.31238,0.73079 -0.48241,0.67171 -0.0545,-0.019 -0.20383,0.0512 -0.33166,0.15599 l -0.23243,0.19046 0.22899,0.46689 c 0.12595,0.2568 0.25012,0.46692 0.27595,0.46692 0.0258,0 0.13141,-0.0591 0.23464,-0.13147 z m 0.82498,-0.0416 c 0.15267,-0.24445 0.0849,-0.26279 -0.0928,-0.025 -0.0816,0.10899 -0.11831,0.19818 -0.0818,0.19818 0.0366,0 0.11515,-0.0779 0.17459,-0.17305 z m -0.28441,-0.36752 c 0.0282,-0.0734 0.0143,-0.10654 -0.0324,-0.0776 -0.12276,0.0758 -0.098,-0.0905 0.0291,-0.19604 0.0608,-0.0505 0.14109,-0.0644 0.17823,-0.0307 0.0371,0.0337 0.0408,0.0147 0.008,-0.042 -0.0327,-0.0567 -0.0862,-0.10313 -0.11921,-0.10313 -0.06,0 -0.34295,0.436 -0.34295,0.52838 0,0.10711 0.23291,0.0412 0.279,-0.0788 z m 0.5563,-0.059 c -0.0815,-0.0809 -0.0909,-0.0714 -0.0462,0.0462 0.031,0.0814 0.0771,0.12718 0.10251,0.10177 0.0254,-0.0254 6e-5,-0.0919 -0.0563,-0.14794 z m 0.40229,-0.0331 c 0,-0.0757 -0.0251,-0.11242 -0.0557,-0.0818 -0.0306,0.0306 -0.34554,-0.50615 -0.69975,-1.19291 -0.35421,-0.68674 -0.68682,-1.30016 -0.7391,-1.36317 -0.0523,-0.063 -0.11796,-0.32615 -0.14593,-0.58479 -0.0451,-0.41747 -0.0824,-0.49142 -0.33122,-0.65895 -0.27454,-0.18481 -0.75097,-0.25898 -0.75097,-0.11693 0,0.0394 0.16865,0.11902 0.3748,0.17672 0.43591,0.12205 0.61526,0.33519 0.61526,0.7312 0,0.18356 0.12675,0.50311 0.36087,0.90984 0.19847,0.34479 0.55154,1.00746 0.78457,1.47258 0.39907,0.79656 0.5872,1.02344 0.5872,0.70819 z m -2.91921,-0.41211 c -0.14704,-0.27133 -0.17131,-0.22056 -0.0487,0.10191 0.0467,0.1227 0.10523,0.20265 0.1302,0.17768 0.0249,-0.025 -0.0117,-0.15079 -0.0815,-0.27959 z m 2.35174,0.0814 c -0.0973,-0.16726 -0.12075,-0.11372 -0.0411,0.0938 0.0283,0.0737 0.0688,0.11669 0.09,0.0955 0.0212,-0.0212 -6.2e-4,-0.10639 -0.0489,-0.1892 z m -12.05737,-0.25371 c -0.48512,-1.58266 -0.4949,-1.62864 -0.41624,-1.9572 0.0984,-0.41092 0.0556,-0.46323 -0.11259,-0.13784 -0.16837,0.32558 -0.15904,1.03476 0.0192,1.4561 0.28915,0.6837 0.66959,1.16062 0.50968,0.63894 z m 9.41378,-0.0906 c -0.11508,-0.21504 -0.11309,-0.2845 0.005,-0.21088 0.0614,0.0379 0.0727,0.0225 0.0319,-0.0436 -0.12054,-0.19504 -0.22282,0.0403 -0.11774,0.27101 0.055,0.12054 0.1154,0.20361 0.1344,0.18463 0.0189,-0.0189 -0.006,-0.10953 -0.0546,-0.20119 z m 0.6832,0.11127 c -0.0493,-0.12851 -0.35986,-0.17597 -0.35986,-0.055 0,0.11045 0.0988,0.17876 0.25868,0.17876 0.0983,0 0.13257,-0.042 0.10118,-0.12376 z m 0.64759,-0.17989 c 0.0877,-0.0968 0.11365,-0.1954 0.07,-0.26592 -0.0547,-0.0884 -0.13088,-0.0628 -0.36288,0.12227 -0.21913,0.17487 -0.27157,0.2609 -0.2067,0.33908 0.0986,0.11875 0.27915,0.0481 0.49953,-0.19543 z m 1.63034,-0.20369 c -0.17523,-0.65691 -1.07256,-2.24047 -1.19831,-2.11473 -0.0228,0.0229 0.24711,0.60066 0.59986,1.28404 0.35276,0.68339 0.65325,1.23065 0.66779,1.21611 0.0145,-0.0145 -0.0166,-0.18798 -0.0694,-0.38542 z m -1.07475,-0.18358 c -0.0202,-0.0195 -0.10699,0.063 -0.19294,0.18334 l -0.15627,0.21882 0.19294,-0.18335 c 0.10611,-0.10085 0.17644,-0.19931 0.15627,-0.21881 z m -1.39803,0.21239 c 0,-0.0363 -0.0422,-0.10819 -0.0937,-0.15976 -0.20793,-0.20792 -0.0996,-0.72481 0.33002,-1.57504 0.23308,-0.46125 0.42379,-0.85143 0.42379,-0.86706 0,-0.0156 -0.14732,-0.077 -0.32736,-0.13647 -0.3884,-0.12818 -0.45254,-0.0905 -0.81922,0.48088 -0.42286,0.65899 -0.51256,0.9385 -0.37662,1.17359 0.0639,0.11056 0.18325,0.33099 0.2651,0.4898 0.29529,0.57299 0.35824,0.66006 0.47718,0.66006 0.0665,0 0.12087,-0.0296 0.12087,-0.066 z m 0.48223,-0.0662 c 0.1039,-0.0728 0.16992,-0.18179 0.14673,-0.24225 -0.0404,-0.1054 0.15459,-0.40625 0.46726,-0.72078 0.15006,-0.15094 0.14245,-0.1884 -0.11372,-0.55916 -0.08,-0.11585 -0.15841,-0.35719 -0.17412,-0.53629 l -0.0286,-0.32565 -0.3899,0.77784 c -0.40062,0.79923 -0.46767,1.1476 -0.29414,1.52847 0.11255,0.247 0.1377,0.25207 0.38647,0.0778 z m -1.14229,-0.28416 c 0,-0.16594 -0.0743,-0.32026 -0.2183,-0.45378 -0.28134,-0.26073 -0.52766,-0.26873 -0.51467,-0.0167 0.007,0.13968 0.0188,0.14989 0.0473,0.0412 0.0489,-0.18694 0.12059,-0.18199 0.38579,0.0266 0.14641,0.11516 0.21739,0.24987 0.21739,0.41254 0,0.13283 0.0186,0.24152 0.0412,0.24152 0.0226,0 0.0412,-0.11315 0.0412,-0.25145 z m 1.68162,-0.0416 c 0.0321,-0.0837 0.0161,-0.10757 -0.0464,-0.069 -0.0656,0.0405 -0.0781,0.01 -0.0401,-0.0989 0.0538,-0.15311 0.0518,-0.15304 -0.0685,0.002 -0.097,0.12539 -0.10157,0.17435 -0.0208,0.22563 0.13206,0.0838 0.11892,0.0884 0.17587,-0.06 z m 0.21604,-0.367 c 0,-0.0455 -0.0392,-0.0826 -0.0874,-0.0826 -0.048,0 -0.0645,0.0371 -0.0363,0.0826 0.028,0.0455 0.0674,0.0826 0.0874,0.0826 0.0201,0 0.0364,-0.0371 0.0364,-0.0826 z m 0.16501,-0.16501 c -0.0527,-0.0985 -0.11444,-0.16059 -0.13712,-0.1379 -0.0227,0.0226 0.002,0.12187 0.0546,0.22041 0.0527,0.0985 0.11444,0.16058 0.13713,0.13789 0.0226,-0.0226 -0.002,-0.12187 -0.0546,-0.2204 z m -2.64914,-0.40337 c -0.10853,-0.088 -0.21589,-0.1414 -0.23858,-0.11871 -0.0227,0.0226 0.0476,0.11323 0.15607,0.20122 0.10854,0.088 0.2159,0.14141 0.23858,0.11872 0.0226,-0.0226 -0.0475,-0.11325 -0.15607,-0.20123 z m 0.86871,-1.35516 c 0.28805,-0.42419 0.30986,-0.48995 0.19926,-0.60056 -0.17765,-0.17765 -1.49099,-0.42912 -1.53599,-0.29409 -0.0186,0.0559 -0.12494,0.20982 -0.23626,0.34211 l -0.2024,0.24054 0.25251,0.60211 c 0.17647,0.4208 0.33256,0.65796 0.51836,0.78762 l 0.26586,0.18552 0.20759,-0.39344 c 0.11418,-0.2164 0.35316,-0.60782 0.53107,-0.86981 z m -7.71813,0.98006 c 0.30235,-0.15634 0.7853,-0.69752 1.0026,-1.12346 0.28417,-0.55704 0.13046,-0.45709 -0.21715,0.14118 -0.23498,0.40443 -0.42666,0.61889 -0.71323,0.79796 -0.21555,0.13469 -0.39191,0.25791 -0.39191,0.27383 0,0.0543 0.0906,0.0289 0.31969,-0.0895 z m 0.32998,-0.58118 c 0.18077,-0.19612 0.40902,-0.51406 0.50722,-0.70653 0.1526,-0.29912 0.16342,-0.37822 0.0745,-0.54438 -0.0573,-0.10693 -0.12166,-0.17679 -0.14318,-0.15527 -0.0215,0.0215 0.007,0.094 0.0621,0.16102 0.0821,0.099 0.0508,0.21642 -0.16701,0.62504 -0.28749,0.53938 -0.62236,0.87559 -0.95531,0.95916 -0.25469,0.0638 -0.41053,-0.0775 -0.56613,-0.51426 -0.063,-0.17683 -0.11621,-0.25896 -0.11821,-0.18251 -0.006,0.21539 0.13796,0.53885 0.31993,0.72083 0.22621,0.22621 0.55432,0.1054 0.98617,-0.3631 z m 2.56808,0.3945 c 0.21874,-0.0277 0.50507,-0.1442 0.69693,-0.28351 0.20052,-0.1456 0.42925,-0.23645 0.59526,-0.23645 0.18518,0 0.29728,-0.0517 0.35793,-0.16502 0.0486,-0.0907 0.16519,-0.16501 0.25914,-0.16501 0.0939,0 0.28113,-0.0928 0.41596,-0.20627 0.13483,-0.11344 0.33424,-0.20626 0.44316,-0.20626 0.12009,0 0.25113,-0.0811 0.33292,-0.20587 0.11743,-0.17921 0.12107,-0.25271 0.028,-0.56778 l -0.10687,-0.36194 -1.03681,-0.0505 c -1.77706,-0.0867 -3.11565,-0.0574 -3.2217,0.0705 -0.0514,0.0621 -0.23993,0.13744 -0.41884,0.16767 -0.38784,0.0655 -0.46368,0.33258 -0.119,0.4191 0.18057,0.0454 0.20627,0.0965 0.20627,0.41162 0,0.30419 0.0383,0.3882 0.24751,0.54286 0.17296,0.12789 0.24753,0.2529 0.24753,0.41501 0,0.3082 0.28692,0.59503 0.52329,0.52314 0.0979,-0.0298 0.34509,-0.0753 0.54929,-0.10119 z m 0,-0.43746 c 0,-0.15402 0.0219,-0.17601 0.099,-0.099 0.077,0.077 0.077,0.12101 0,0.19802 -0.077,0.077 -0.099,0.055 -0.099,-0.099 z m -0.21942,-0.28427 c 0.0299,-0.078 0.0543,-0.19441 0.0543,-0.25876 0,-0.0644 0.0396,-0.11701 0.088,-0.11701 0.12906,0 0.0561,0.43437 -0.0805,0.4793 -0.0816,0.0268 -0.10004,-0.004 -0.0618,-0.10353 z m 2.72351,-1.13665 c -0.0114,-0.47376 -0.004,-0.49683 0.10021,-0.30874 0.12175,0.2199 0.14787,0.48428 0.0684,0.69158 -0.0979,0.25506 -0.15636,0.12221 -0.16853,-0.38284 z m -1.10417,0.18823 c 0.11197,-0.086 0.24836,-0.28013 0.30312,-0.43133 l 0.0995,-0.27488 0.005,0.26815 c 0.007,0.29577 -0.23138,0.59933 -0.46813,0.59633 -0.1173,-0.002 -0.10619,-0.0312 0.0592,-0.15827 z m -1.39992,-0.11911 c 0,-0.0682 -0.0812,-0.1809 -0.18066,-0.2505 -0.24992,-0.17505 -0.1213,-0.26749 0.13683,-0.0984 0.21477,0.14072 0.27199,0.33178 0.12633,0.4218 -0.0454,0.028 -0.0825,-0.004 -0.0825,-0.0729 z m -3.05291,1.55816 c 0.25714,-0.13297 0.55502,-0.49081 0.78227,-0.93973 0.17451,-0.34473 0.076,-0.62791 -0.23932,-0.68819 -0.2113,-0.0403 -0.21294,-0.0367 -0.17673,0.40146 0.0202,0.24322 0.053,0.47015 0.0731,0.50427 0.0776,0.13168 -0.11538,0.43959 -0.3744,0.59751 -0.34747,0.21185 -0.3657,0.20968 -0.51258,-0.0611 -0.0677,-0.12479 -0.12458,-0.18874 -0.12639,-0.14212 -0.004,0.0936 0.22965,0.45152 0.29424,0.45152 0.0224,0 0.14829,-0.0557 0.27983,-0.12367 z m 0.0815,-0.28506 c 0.24385,-0.18736 0.20721,-0.24307 -0.19359,-0.29439 -0.248,-0.0317 -0.30022,-0.0126 -0.30022,0.10957 0,0.14085 0.14657,0.3481 0.2434,0.34419 0.0249,-8.9e-4 0.13764,-0.0727 0.25041,-0.15937 z m -0.35458,0.0254 c -0.10069,-0.10068 -0.0606,-0.15886 0.10928,-0.15886 0.0913,0 0.15395,0.0361 0.13922,0.0803 -0.0351,0.10545 -0.17683,0.15024 -0.2485,0.0785 z m -1.0468,-0.52424 c 0.0487,-0.0907 0.14271,-0.16501 0.20917,-0.16501 0.0734,0 0.12086,-0.0796 0.12086,-0.20239 0,-0.28994 0.16494,-0.61153 0.34255,-0.6679 0.0839,-0.0266 0.15249,-0.0843 0.15249,-0.12801 0,-0.0438 0.0804,-0.10936 0.17874,-0.14573 l 0.17873,-0.0661 -0.1989,-0.19891 c -0.1094,-0.1094 -0.18786,-0.24708 -0.17433,-0.30597 0.0135,-0.059 -0.0702,-0.21972 -0.1861,-0.35743 -0.22161,-0.26338 -0.26595,-0.40274 -0.12816,-0.40274 0.0454,0 0.0826,0.0557 0.0826,0.12377 0,0.068 0.0371,0.12376 0.0826,0.12376 0.0947,0 0.0998,-0.051 0.0306,-0.30941 -0.0274,-0.1021 -0.10112,-0.18563 -0.16389,-0.18563 -0.19442,0 -0.44417,0.31827 -0.44417,0.56602 0,0.12981 -0.0888,0.36679 -0.19721,0.52662 -0.17252,0.25424 -0.1975,0.38704 -0.19963,1.06142 -8.9e-4,0.42397 0.0154,0.7996 0.037,0.83475 0.0692,0.11184 0.18616,0.0692 0.27728,-0.10109 z m -0.12666,-0.41722 c -0.0655,-0.1061 0.0218,-0.49036 0.11167,-0.49036 0.0354,0 0.0492,0.12994 0.0306,0.28878 -0.036,0.30855 -0.0574,0.3389 -0.14232,0.20158 z m 0.10604,-0.78548 c -0.10352,-0.10439 -0.0693,-0.42116 0.057,-0.52587 0.0653,-0.0542 0.13256,-0.19803 0.1493,-0.31951 0.0268,-0.19443 0.0388,-0.2023 0.10037,-0.0657 0.0458,0.10162 0.0244,0.24401 -0.0622,0.41254 -0.0726,0.14156 -0.14341,0.32568 -0.15735,0.40917 -0.0139,0.0836 -0.0532,0.12369 -0.0872,0.0893 z m 0.98155,1.09546 c 0.0614,-0.0363 0.11166,-0.11335 0.11166,-0.17125 0,-0.058 0.0928,-0.19249 0.20626,-0.29906 0.39964,-0.37544 0.14111,-0.47347 -0.27197,-0.10313 -0.23085,0.20697 -0.309,0.43042 -0.26694,0.76317 0.0139,0.11002 0.0209,0.11002 0.0625,0 0.0258,-0.0681 0.0971,-0.15344 0.1585,-0.18973 z m -0.39315,0.12786 c -0.0495,-0.31372 0.0411,-0.60647 0.258,-0.83346 0.2053,-0.21482 0.31141,-0.25974 0.61343,-0.25974 0.20086,0 0.46043,0.0361 0.57683,0.0804 0.13353,0.0507 0.21163,0.0513 0.21163,0.002 0,-0.1075 -0.38121,-0.2009 -0.79643,-0.19512 -0.35324,0.004 -0.80582,0.27414 -0.88354,0.52561 -0.10536,0.34091 -0.13587,0.74257 -0.0564,0.74257 0.0474,0 0.0819,-0.0278 0.0765,-0.0618 z m 0.96758,-0.1711 c -0.0585,-0.0946 -0.20227,-0.085 -0.37944,0.0255 -0.0995,0.0621 -0.0837,0.0868 0.0826,0.12958 0.22316,0.0575 0.37825,-0.0235 0.29693,-0.15509 z m 0.0212,-0.39002 c 0.026,-0.13458 0.0122,-0.14065 -0.10312,-0.0449 -0.15769,0.13087 -0.17734,0.28384 -0.0301,0.23483 0.0566,-0.0189 0.1167,-0.10433 0.13328,-0.18989 z m 0.55067,-0.95491 c 0.0349,-0.10991 0.0141,-0.20099 -0.0556,-0.2441 -0.12967,-0.0801 -0.19628,-0.0233 -0.27395,0.23376 -0.0451,0.14933 -0.0238,0.18564 0.10893,0.18564 0.0958,0 0.18836,-0.0735 0.22065,-0.1753 z m 4.8646,-0.35141 c 0.98853,-0.15239 1.88497,-0.5258 2.45351,-1.02199 0.13278,-0.11589 0.11458,-0.13842 -0.24751,-0.30639 -0.41379,-0.19195 -0.70887,-0.45509 -0.51033,-0.45509 0.0668,0 0.0396,-0.0718 -0.0725,-0.19096 -0.2584,-0.27504 -0.22628,-0.30203 0.20499,-0.17224 0.53804,0.16193 0.58344,0.14718 0.34231,-0.1112 -0.25717,-0.27556 -0.67026,-0.92964 -0.6193,-0.9806 0.0202,-0.0203 0.17997,0.0477 0.35492,0.15087 l 0.31811,0.1877 -0.22265,-0.29192 c -0.12245,-0.16054 -0.28206,-0.4341 -0.35468,-0.60789 -0.12304,-0.29449 -0.12254,-0.31234 0.008,-0.26247 0.11332,0.0435 0.12948,0.0187 0.0863,-0.13336 -0.0293,-0.10279 -0.09,-0.37161 -0.13511,-0.59742 -0.0518,-0.259 -0.15456,-0.4722 -0.27861,-0.57754 -0.10816,-0.0919 -0.21236,-0.22163 -0.23159,-0.28839 -0.0193,-0.0668 -0.17866,-0.19669 -0.35433,-0.28876 -0.19502,-0.10222 -0.40219,-0.30954 -0.53197,-0.53239 -0.21576,-0.37048 -0.52633,-0.6154 -0.34082,-0.26878 0.11311,0.21135 0.11781,0.51001 0.008,0.51001 -0.0454,0 -0.0826,-0.0429 -0.0826,-0.0954 0,-0.20149 -0.42047,-0.63277 -0.78312,-0.80323 -0.40166,-0.18881 -0.42538,-0.33242 -0.0576,-0.34908 0.12211,-0.006 -6.2e-4,-0.0416 -0.27303,-0.0803 -0.40741,-0.0578 -0.53382,-0.11585 -0.71419,-0.32822 -0.18952,-0.22312 -0.25448,-0.25026 -0.48022,-0.20069 -0.19806,0.0434 -0.28611,0.0231 -0.36491,-0.0847 -0.0841,-0.11504 -0.13688,-0.12436 -0.27754,-0.0491 -0.25879,0.13851 -0.30572,0.12212 -0.67957,-0.23707 -0.39065,-0.37533 -0.85347,-0.46333 -0.92847,-0.17655 -0.0308,0.118 -0.14277,0.16361 -0.48403,0.19723 -0.24414,0.0242 -0.46246,0.026 -0.48515,0.004 -0.0226,-0.0217 0.0464,-0.11038 0.15353,-0.19723 0.23189,-0.18799 0.17355,-0.20328 -0.14573,-0.0382 -0.34327,0.17751 -0.77737,1.28288 -0.50381,1.28288 0.0448,0 0.0761,-0.0649 0.0694,-0.14438 -0.0242,-0.28872 0.0157,-0.51567 0.0908,-0.51567 0.0422,0 0.0887,0.0836 0.10314,0.18564 0.0228,0.16054 0.0874,0.19121 0.47806,0.22689 0.42488,0.0388 0.46275,0.0609 0.63806,0.37129 l 0.18637,0.33002 8.9e-4,-0.39677 c 8.9e-4,-0.24322 0.0333,-0.37706 0.0839,-0.34579 0.12426,0.0768 0.0991,0.94559 -0.041,1.41754 -0.0679,0.22889 -0.19792,0.51066 -0.28877,0.62616 -0.0908,0.1155 -0.16518,0.229 -0.16518,0.25223 0,0.0233 0.18329,0.10312 0.40731,0.17754 0.43003,0.14281 1.28875,0.66221 1.47981,0.89506 0.16976,0.20687 0.0417,0.16729 -0.36578,-0.11299 -0.39282,-0.27026 -1.17165,-0.65448 -1.32936,-0.65579 -0.0533,-3e-4 0.0118,0.10772 0.14439,0.24037 0.13264,0.13264 0.24116,0.32185 0.24116,0.42043 0,0.48527 -0.64074,0.98852 -1.25857,0.98852 -0.29029,0 -0.30052,0.0106 -0.35368,0.3651 -0.15827,1.05544 0.69171,1.66217 2.03696,1.45401 0.94597,-0.14637 2.03045,-0.73524 1.91382,-1.03919 -0.058,-0.15092 0.003,-0.15078 0.2953,6.2e-4 0.1281,0.0661 0.25273,0.1962 0.27694,0.28879 0.0532,0.20334 -0.002,0.21274 -0.19981,0.0339 -0.13859,-0.12542 -0.1681,-0.11719 -0.44194,0.12325 -0.89091,0.78224 -2.5289,1.08359 -3.4241,0.62996 -0.22388,-0.11345 -0.46973,-0.20626 -0.54632,-0.20626 -0.0766,0 -0.27583,-0.14354 -0.44271,-0.31898 -0.5451,-0.57302 -0.68445,-1.62384 -0.33813,-2.54986 0.20274,-0.54214 0.37985,-0.67669 0.89789,-0.68217 l 0.30551,-0.003 -0.25824,-0.11237 c -0.14203,-0.0618 -0.28245,-0.15157 -0.31204,-0.19945 -0.0296,-0.0479 -0.11109,-0.065 -0.18111,-0.0382 -0.0913,0.035 -0.11971,0.004 -0.10049,-0.10672 0.0148,-0.0856 0.0556,-0.17697 0.0909,-0.20307 0.0352,-0.026 0.083,-0.24887 0.10632,-0.49503 0.0361,-0.38298 0.0269,-0.42513 -0.0641,-0.29213 -0.28961,0.42341 -0.51495,0.63412 -0.75258,0.70376 -0.24526,0.0718 -0.24992,0.0801 -0.0756,0.13396 0.10211,0.0316 0.18564,0.0909 0.18564,0.13187 0,0.0653 -0.23999,0.0408 -0.55691,-0.0568 -0.12873,-0.0397 -0.14086,0.51316 -0.0184,0.83544 0.10579,0.27827 0.0358,0.36444 -0.1243,0.15292 -0.11572,-0.15297 -0.12032,-0.15117 -0.12168,0.0472 -0.006,0.8261 0.84478,2.66799 1.55187,3.36119 0.0816,0.0799 0.19805,0.27527 0.25892,0.43409 0.0608,0.15883 0.14836,0.33791 0.19445,0.39794 0.21054,0.27431 1.20813,0.60191 2.31,0.7586 0.66302,0.0943 2.70085,0.0296 3.64277,-0.11561 z m -3.91904,-3.02107 c 0,-0.0455 0.0371,-0.0825 0.0826,-0.0825 0.0454,0 0.0826,0.0371 0.0826,0.0825 0,0.0455 -0.0371,0.0826 -0.0826,0.0826 -0.0454,0 -0.0826,-0.0371 -0.0826,-0.0826 z m 0.33002,-0.33002 c 0,-0.0455 0.0371,-0.0825 0.0826,-0.0825 0.0454,0 0.0826,0.0371 0.0826,0.0825 0,0.0455 -0.0371,0.0826 -0.0826,0.0826 -0.0454,0 -0.0826,-0.0371 -0.0826,-0.0826 z m 2.85431,-0.32037 c -0.12722,-0.14137 -0.25301,-0.17481 -0.66005,-0.17544 -0.40602,-6.2e-4 -0.58531,-0.048 -0.93085,-0.24622 -0.99775,-0.57223 -1.12868,-1.41983 -0.32796,-2.12288 0.63123,-0.55423 1.34347,-0.54303 1.9569,0.0306 0.43377,0.40572 0.54302,0.42988 0.85056,0.18796 0.21124,-0.16617 0.2174,-0.16647 0.2174,-0.0111 0,0.0879 -0.0807,0.26252 -0.17943,0.38797 l -0.17942,0.22811 0.30318,-0.0354 c 0.16675,-0.0195 0.30318,-0.0115 0.30318,0.0179 0,0.10743 -0.30645,0.32631 -0.46027,0.32875 -0.14768,0.002 -0.1486,0.009 -0.0135,0.0869 0.0798,0.0465 0.18188,0.0616 0.2269,0.0338 0.045,-0.0278 0.0819,-0.0125 0.0819,0.0339 0,0.10817 -0.27331,0.25527 -0.47433,0.25527 -0.19435,0 -0.45146,0.49837 -0.34438,0.66751 0.0406,0.0639 0.0742,0.16726 0.0749,0.22954 8.9e-4,0.0885 -0.0243,0.092 -0.11613,0.0158 -0.0948,-0.0786 -0.12258,-0.0629 -0.14438,0.0821 l -0.027,0.17948 z m -0.37277,-0.58085 c 0.54151,-0.54151 0.12949,-1.40895 -0.66923,-1.40895 -0.18703,0 -0.34083,0.0796 -0.5417,0.28051 -0.47801,0.47801 -0.33437,1.00679 0.33827,1.24532 0.47752,0.16937 0.60327,0.15252 0.87266,-0.11688 z m -1.04142,-0.12636 c -0.2053,-0.20528 -0.2582,-0.48942 -0.12907,-0.69323 0.0495,-0.0781 0.088,-0.0844 0.12737,-0.0206 0.0842,0.13629 0.35182,0.11022 0.40941,-0.0399 0.0277,-0.0722 0.0295,-0.165 0.004,-0.20628 -0.0745,-0.12058 0.24053,-0.0863 0.4306,0.0468 0.3328,0.23311 0.30911,0.73616 -0.0475,1.01 -0.21686,0.16652 -0.57505,0.12289 -0.79471,-0.0967 z m 1.67155,-0.0334 c 0.15828,-0.3788 0.10102,-1.02315 -0.11704,-1.31727 -0.71323,-0.96197 -2.16848,-0.66688 -2.44708,0.49621 -0.0392,0.16419 -0.004,0.27872 0.13468,0.4403 l 0.18784,0.21837 v -0.34561 c 0,-0.28426 0.0466,-0.38724 0.26262,-0.58024 0.66703,-0.596 1.58535,-0.2671 1.7292,0.61931 0.0378,0.23279 0.009,0.35796 -0.12754,0.54168 -0.22348,0.30229 -0.22179,0.31388 0.0386,0.26411 0.15036,-0.0288 0.25243,-0.13023 0.33876,-0.33686 z m -3.68921,0.73092 c 0,-0.0455 0.0371,-0.0826 0.0826,-0.0826 0.0454,0 0.0825,0.0371 0.0825,0.0826 0,0.0455 -0.0371,0.0825 -0.0825,0.0825 -0.0454,0 -0.0826,-0.0371 -0.0826,-0.0825 z m 6.53457,3.78648 c 0.57303,-0.11969 0.69398,-0.23872 0.24258,-0.23872 -0.21326,0 -0.33135,-0.0324 -0.3004,-0.0825 0.028,-0.0455 0.11631,-0.0826 0.19615,-0.0826 0.24074,0 0.95071,-0.23382 1.12538,-0.37064 0.15339,-0.12015 0.14303,-0.12475 -0.16645,-0.074 -0.37872,0.062 -0.34192,-0.016 0.10331,-0.21938 0.27011,-0.12332 0.28835,-0.14842 0.14421,-0.19835 -0.39374,-0.13644 -0.7013,-0.29536 -0.7013,-0.36237 0,-0.0399 0.21674,-0.092 0.48166,-0.11606 0.26491,-0.0241 0.60155,-0.10567 0.74807,-0.18144 l 0.26642,-0.13777 -0.32257,-0.23367 c -0.40737,-0.29508 -0.67704,-0.63581 -0.73581,-0.92967 -0.0358,-0.179 -0.11565,-0.24979 -0.36651,-0.32496 -0.35108,-0.10518 -0.43922,-0.18598 -0.63909,-0.58592 -0.0734,-0.1469 -0.23558,-0.31555 -0.36037,-0.37481 -0.19097,-0.0907 -0.22689,-0.15926 -0.22689,-0.43325 0,-0.17904 -0.0371,-0.32553 -0.0825,-0.32553 -0.0454,0 -0.0826,0.0489 -0.0826,0.10878 0,0.24716 0.25962,0.95694 0.42859,1.17175 l 0.18141,0.23063 -0.23609,-0.0592 -0.23608,-0.0592 0.23273,0.31438 c 0.128,0.17291 0.32634,0.4161 0.44074,0.54041 0.26543,0.28845 0.19715,0.35463 -0.19626,0.19025 -0.17069,-0.0714 -0.32475,-0.11528 -0.34233,-0.0977 -0.0574,0.0574 0.39496,0.54291 0.64164,0.68862 0.3705,0.21887 0.29247,0.29997 -0.23368,0.24294 -0.44237,-0.048 -0.46048,-0.0434 -0.26813,0.0683 l 0.20626,0.11965 -0.20214,0.003 c -0.27839,0.004 -0.13109,0.1357 0.36062,0.32233 l 0.39225,0.14891 -0.3699,0.32559 c -0.50775,0.44692 -1.09092,0.74949 -1.80544,0.93667 l -0.60306,0.15798 0.92413,0.004 c 0.50828,0.003 1.12088,-0.0366 1.36136,-0.0867 z m -8.56281,-2.31461 c -0.0969,-0.1875 -0.12465,-0.40163 -0.0986,-0.76226 0.032,-0.44207 0.0147,-0.51843 -0.1449,-0.64402 -0.0996,-0.0783 -0.23117,-0.26331 -0.29234,-0.41092 -0.11069,-0.26724 -0.11142,-0.26752 -0.16795,-0.0646 -0.16532,0.59322 0.0281,1.47358 0.41454,1.88735 0.31526,0.33747 0.46508,0.33464 0.28921,-0.006 z m 10.36516,-0.67007 c 0.15012,-0.1183 0.40875,-0.48063 0.40875,-0.57266 0,-0.0353 -0.0584,-0.0641 -0.12975,-0.0641 -0.10756,0 -0.1005,-0.0371 0.0412,-0.21739 0.20019,-0.25449 0.21186,-0.42294 0.0447,-0.64406 -0.0666,-0.0881 -0.12113,-0.26836 -0.12113,-0.40061 0,-0.13613 -0.0894,-0.34684 -0.20627,-0.48561 -0.11344,-0.13482 -0.20626,-0.30911 -0.20626,-0.38731 0,-0.18436 -0.15873,-0.3402 -0.34653,-0.3402 -0.10341,0 -0.14852,0.0626 -0.14852,0.20627 0,0.28233 -0.16336,0.26269 -0.17161,-0.0207 -0.0134,-0.45887 -0.27079,-1.04167 -0.50906,-1.1526 -0.12479,-0.0582 -0.3258,-0.15203 -0.44671,-0.20875 -0.15023,-0.0705 -0.24894,-0.2076 -0.31183,-0.43316 -0.0721,-0.25867 -0.15765,-0.36103 -0.39557,-0.47345 -0.16694,-0.0789 -0.3419,-0.21511 -0.38878,-0.3027 -0.0469,-0.0875 -0.19652,-0.18371 -0.33254,-0.21359 -0.14694,-0.0323 -0.30285,-0.14836 -0.38423,-0.28612 -0.10883,-0.18425 -0.21216,-0.24028 -0.50359,-0.27315 -0.28155,-0.0317 -0.44069,-0.11361 -0.68555,-0.3527 -0.26246,-0.25627 -0.4014,-0.32258 -0.7852,-0.37466 -0.31107,-0.0422 -0.53429,-0.12704 -0.6705,-0.25482 -0.16813,-0.15769 -0.30133,-0.1934 -0.75415,-0.2022 -0.30246,-0.006 -0.65515,-0.0386 -0.78372,-0.0728 -0.1399,-0.0371 -0.36357,-0.0193 -0.55693,0.0446 -0.26403,0.0871 -0.38216,0.0872 -0.64583,1.5e-4 -0.43923,-0.14497 -0.71748,-0.0566 -1.13453,0.3605 -0.26093,0.26094 -0.36584,0.44144 -0.40732,0.70084 -0.0307,0.19216 -0.14357,0.4786 -0.25076,0.63653 -0.21644,0.31896 -0.24056,0.60964 -0.0814,0.98115 l 0.10605,0.24752 0.15255,-0.45379 c 0.0839,-0.24957 0.14938,-0.50948 0.14551,-0.57753 -0.0135,-0.23773 0.62429,-0.4487 1.40467,-0.46461 l 0.72594,-0.0147 0.37229,0.32223 c 0.41865,0.36233 0.39634,0.35393 0.62073,0.23384 0.12451,-0.0666 0.21062,-0.0585 0.3501,0.0329 0.10711,0.0702 0.28128,0.10277 0.41381,0.0774 0.18199,-0.0348 0.27718,0.009 0.4649,0.21469 0.19841,0.21724 0.29599,0.25844 0.61197,0.25844 0.36724,0 0.56957,0.11478 0.75853,0.43027 0.0392,0.0653 0.21838,0.19023 0.39828,0.27746 0.21173,0.10266 0.40085,0.28556 0.53628,0.51864 0.12735,0.21916 0.32185,0.41301 0.49702,0.49537 0.1583,0.0744 0.335,0.23374 0.39268,0.35406 0.11117,0.23196 0.61491,0.47351 0.66626,0.31948 0.0155,-0.0468 0.0693,-0.0851 0.1193,-0.0851 0.05,0 0.17687,-0.0807 0.28189,-0.1794 0.10503,-0.0987 0.19096,-0.13579 0.19096,-0.0826 0,0.13579 -0.30593,0.42692 -0.4486,0.42692 -0.22089,0 -0.0574,0.59026 0.24004,0.86633 0.14665,0.13613 0.33095,0.35309 0.40957,0.48211 0.0804,0.13202 0.31127,0.30785 0.52788,0.40207 0.21172,0.092 0.44992,0.22434 0.52934,0.29385 0.17555,0.15367 0.19519,0.3282 0.0206,0.18331 -0.14437,-0.11981 -0.15898,-0.055 -0.0383,0.17044 0.0974,0.18196 0.22904,0.19912 0.41341,0.0538 z m -1.1472,-1.12063 c 0.0163,-0.0461 0.15953,-0.16986 0.31836,-0.27506 0.15882,-0.10519 0.37611,-0.35804 0.48286,-0.56188 l 0.19408,-0.37061 -0.0462,0.31965 c -0.0254,0.17579 -0.11272,0.39322 -0.19407,0.48317 -0.17388,0.19228 -0.79819,0.52692 -0.75505,0.40473 z m -0.4242,-0.57843 c 0,-0.0396 0.10545,-0.0933 0.23433,-0.11906 0.12889,-0.0257 0.32381,-0.14115 0.43317,-0.25642 0.25705,-0.2709 0.36544,-0.27199 0.18846,-0.002 -0.20686,0.31571 -0.85596,0.60188 -0.85596,0.37737 z m -1.56762,-1.79843 c 0,-0.0403 0.11055,-0.11509 0.24566,-0.16608 0.13782,-0.052 0.32598,-0.22888 0.42865,-0.40289 0.10065,-0.17058 0.19657,-0.26945 0.21314,-0.21973 0.0361,0.10862 -0.17293,0.53126 -0.32555,0.65791 -0.15037,0.12481 -0.5619,0.22059 -0.5619,0.13079 z m -0.99007,-1.0967 c 0,-0.047 0.0364,-0.0853 0.0809,-0.0853 0.0445,0 0.16516,-0.17637 0.26815,-0.39192 0.1149,-0.24052 0.25097,-0.40332 0.35224,-0.42144 0.16308,-0.0291 0.16302,-0.0274 -0.004,0.165 -0.0934,0.10702 -0.21227,0.29438 -0.26406,0.41637 -0.0978,0.23041 -0.43236,0.47599 -0.43236,0.31739 z m -3.69273,-1.69135 c 0.0443,-0.39335 0.26131,-0.78428 0.47481,-0.85545 0.0686,-0.0228 0.0438,0.0509 -0.0627,0.18624 -0.0969,0.12326 -0.201,0.38903 -0.23123,0.5906 -0.0771,0.51441 -0.23787,0.58427 -0.18086,0.0786 z m -2.08272,-0.12935 c 0,-0.27119 0.2153,-0.70798 0.41947,-0.85098 0.27204,-0.19055 0.30583,-0.0908 0.059,0.17382 -0.11602,0.12431 -0.25542,0.36526 -0.30979,0.53543 -0.11014,0.34473 -0.16856,0.39385 -0.16856,0.14173 z m 1.65488,-0.0674 c -0.006,-0.22692 0.22852,-0.75503 0.33468,-0.75503 0.10017,0 0.0992,0.004 -0.12842,0.50508 -0.14583,0.32114 -0.20282,0.39021 -0.20626,0.24995 z m -1.07278,5.5855 c 0.17749,-0.0998 0.3609,-0.28642 0.41882,-0.42625 0.0984,-0.23766 0.0888,-0.26105 -0.21604,-0.52458 -0.57118,-0.49373 -1.41522,-0.58246 -1.71426,-0.18019 -0.14217,0.19126 -0.14986,0.2545 -0.063,0.51776 0.0544,0.16494 0.1919,0.41033 0.30549,0.54531 0.17302,0.20564 0.26701,0.24542 0.57984,0.24542 0.2292,0 0.49525,-0.0686 0.68912,-0.17747 z m 9.46123,-2.02957 c -0.0328,-0.13752 -0.0376,-0.13752 -0.0974,0 -0.0346,0.0794 -0.0346,0.20936 0,0.28878 0.0599,0.13751 0.0645,0.13751 0.0974,0 0.0189,-0.0794 0.0189,-0.20936 0,-0.28878 z m -9.95792,0.14981 c -0.047,-0.0878 -0.0853,-0.26961 -0.0853,-0.40407 0,-0.22332 0.0233,-0.24343 0.26815,-0.23231 0.23562,0.0107 0.26555,-0.0115 0.24687,-0.18258 -0.0186,-0.16988 0.004,-0.18811 0.18564,-0.14282 0.1472,0.0369 0.2069,0.0186 0.2069,-0.0637 0,-0.17405 -0.32146,-0.22326 -0.62631,-0.0959 -0.57384,0.23976 -0.70872,1.22086 -0.17521,1.2745 0.0356,0.004 0.0264,-0.0653 -0.0206,-0.15307 z m -0.29496,-0.93667 c 0.0862,-0.19704 0.47248,-0.38885 0.783,-0.38885 0.28679,0 0.30807,-0.0484 0.11506,-0.26165 -0.37993,-0.41983 -0.98936,0.0765 -1.24778,1.01619 -0.0674,0.24516 -0.0576,0.32592 0.0526,0.4369 0.12559,0.12634 0.13885,0.10765 0.18394,-0.2595 0.0267,-0.21761 0.0777,-0.462 0.11314,-0.54309 z m 10.45478,0.0654 c 0.35771,-0.47135 0.72921,-1.37331 0.98389,-2.38872 0.2247,-0.89596 0.23006,-0.88964 -0.87952,-1.0365 -1.16162,-0.15374 -2.19898,-0.0253 -3.04735,0.37726 -0.26198,0.12432 -0.28918,0.16937 -0.28891,0.47849 3.2e-4,0.40276 0.26046,0.87753 0.48074,0.87753 0.20867,0 0.41337,0.24359 0.47854,0.56946 0.0346,0.1731 0.12522,0.30231 0.25273,0.36041 0.17761,0.0809 0.23553,0.0538 0.54397,-0.25464 l 0.34521,-0.3452 h -0.47321 c -0.53848,0 -0.59324,-0.0906 -0.20505,-0.33913 l 0.26815,-0.17169 -0.26815,0.0471 c -0.37707,0.0661 -0.33352,-0.0551 0.12376,-0.34494 0.52138,-0.33037 1.09409,-0.51364 1.78775,-0.5721 0.50047,-0.0422 0.56456,-0.032 0.52024,0.0837 -0.0278,0.0725 -0.091,0.28187 -0.14041,0.4654 -0.14386,0.53427 -0.5268,1.32346 -0.93936,1.93586 -0.21039,0.31232 -0.38252,0.57892 -0.38252,0.59244 0,0.0353 0.35552,0.0978 0.45377,0.08 0.0454,-0.008 0.21897,-0.1948 0.38573,-0.41456 z m -0.34371,-0.82535 c 0.38568,-0.61782 0.81036,-1.65057 0.7171,-1.74384 -0.0685,-0.0685 -0.88903,0.10839 -1.41284,0.30441 -0.44608,0.16693 -0.4754,0.19261 -0.33604,0.2945 0.16501,0.12066 0.16326,0.12622 -0.0829,0.26368 -0.15922,0.0889 -0.15831,0.0922 0.026,0.0947 0.10509,8.9e-4 0.26335,0.0412 0.3517,0.0884 0.13481,0.0722 0.14559,0.11525 0.067,0.26816 -0.0515,0.10019 -0.18677,0.28207 -0.30059,0.40418 -0.19124,0.20517 -0.19675,0.23222 -0.0725,0.35643 0.0739,0.0739 0.15815,0.2339 0.18718,0.35552 0.11266,0.47193 0.15305,0.43955 0.85579,-0.68618 z m -3.136,-1.69707 c 0,-0.13912 0.0369,-0.32175 0.0819,-0.40587 0.0694,-0.12959 0.0222,-0.18933 -0.3094,-0.3917 -0.47828,-0.29192 -1.30519,-0.62581 -1.9882,-0.80278 -0.73771,-0.19117 -1.3028,-0.18554 -1.74454,0.0174 l -0.37129,0.17055 0.54318,-0.0443 c 0.52343,-0.0427 0.55279,-0.0349 0.80729,0.21388 0.2201,0.21515 0.32891,0.25825 0.65315,0.25862 0.34848,3.2e-4 0.43051,0.0396 0.7862,0.37651 0.25054,0.23723 0.46371,0.37074 0.57754,0.36169 0.37341,-0.0297 0.4684,0.0106 0.59295,0.25141 0.17023,0.32919 0.37128,0.32626 0.37128,-0.006 z m 0.67729,-0.82887 c 0.16121,-0.0862 0.14835,-0.10608 -0.2163,-0.33304 -0.71175,-0.44301 -1.50639,-0.68382 -2.50302,-0.75851 -0.28361,-0.0213 -0.51567,-0.004 -0.51567,0.0361 0,0.0411 0.0648,0.0747 0.14419,0.0747 0.26518,0 1.62389,0.49663 2.12473,0.77663 0.5465,0.30551 0.71158,0.34041 0.96607,0.20421 z m -5.71065,-1.16378 c 0.079,-0.25564 0.21882,-0.56016 0.31051,-0.67671 l 0.1667,-0.21192 0.12687,0.19367 c 0.0698,0.10652 0.17602,0.35852 0.23606,0.56001 l 0.10916,0.36637 0.43643,-0.13223 0.43643,-0.13223 -0.54043,-0.53143 c -0.69699,-0.68537 -0.83677,-0.75075 -1.03845,-0.48577 -0.15603,0.20502 -0.43619,0.91698 -0.52901,1.34439 -0.0932,0.42945 0.13434,0.19515 0.28573,-0.29415 z m 0.6568,0.12106 c -0.002,-0.17016 -0.0527,-0.42079 -0.11246,-0.55692 l -0.10874,-0.24751 -0.1406,0.47331 c -0.15718,0.52921 -0.12867,0.64051 0.16413,0.64051 0.17838,0 0.20097,-0.0354 0.19767,-0.30939 z"
         id="path4952-4"
         sodipodi:nodetypes="csssssssscssssssscsssssssscsssssssscsssssscssscsssscsscsssssssssssssssssssccsscssssssssscsssccsscccsssssssscsscssccssssssssscssssssscssscccsssccsssssscssscccsssssscssssssssssssssssssssssssssssssssscsssscsssssccssssssccsccsssssssssssssssssssssssscsssssssssssssssssscscsscssssssscsssssssssssssssscssscccsssssccsscscssccssssssscssssssssscssssccssscscsssssssssscssssssscsssscssssssccssscccccssccsssssssssssscsssssscsssscssccssssssssscsssssssssssssssssssssssssssssssssccsssssssssssssssscsssssccssscsssssscsssscssssssssssssssssssssssssssssssssscssccsscsssssssscssssssssssssscssscsscssssssssssssssssscssssssscssssscsscsccssssssssssssssssssscsscssssssssssssssssssscsssssssscssssssssccsssscssscsssssscscsssssssssssssssssssscssssssssssscsssssssssscsssssssssssssssssssssscsssssssccsssssssssssssssssssssssscsssssssssssssscssssssssssssssssccssssssscssssssssscssssscssssssssssssscsssssssssssssssscssssssscsscssssscssccssssssssscsssssssscssssssssssscsssssssssscssssssssscccsssssssccscsscsccsssssssscssssssssssssssssssssssssssssscssscssssssssssssssssssssssccsssccssssscsssssssssssssssssssssssssssssssssssssssssssssssssssssssssssssssscsssscsscsssssssssssssscsssssssssssscsscscsssssssssssscsscccsssscscssc" />
      <circle
         style="fill:none;stroke:#ff0000;stroke-width:0.1;stroke-dasharray:none"
         id="path788-8-1-8-1-9-2-6-3-1"
         cx="-280.54987"
         cy="-106.46048"
         r="19.954653" />
      <ellipse
         style="fill:none;stroke:#ff00ff;stroke-width:0.1;stroke-dasharray:none;stroke-opacity:1"
         id="path1138-9-4-0-0-1-2-0-0-2"
         cx="-280.54987"
         cy="-106.46048"
         rx="18.492125"
         ry="18.492126" />
      <circle
         style="fill:none;stroke:#0000ff;stroke-width:0.1;stroke-linecap:round;stroke-dasharray:none;stroke-opacity:1;paint-order:markers stroke fill"
         id="path13019-1-33-3-83-7"
         cx="-280.54987"
         cy="-121.47148"
         r="2" />
    </g>
  </g>
</svg>
