<?xml version="1.0" encoding="UTF-8" standalone="no"?>
<!-- Created with Inkscape (http://www.inkscape.org/) -->

<svg
   width="41.008999mm"
   height="41.008999mm"
   viewBox="0 0 41.008999 41.008999"
   version="1.1"
   id="svg1"
   inkscape:version="1.4.2 (f4327f4, 2025-05-13)"
   sodipodi:docname="152.svg"
   xmlns:inkscape="http://www.inkscape.org/namespaces/inkscape"
   xmlns:sodipodi="http://sodipodi.sourceforge.net/DTD/sodipodi-0.dtd"
   xmlns="http://www.w3.org/2000/svg"
   xmlns:svg="http://www.w3.org/2000/svg">
  <sodipodi:namedview
     id="namedview1"
     pagecolor="#ffffff"
     bordercolor="#000000"
     borderopacity="0.25"
     inkscape:showpageshadow="2"
     inkscape:pageopacity="0.0"
     inkscape:pagecheckerboard="0"
     inkscape:deskcolor="#d1d1d1"
     inkscape:document-units="mm"
     inkscape:zoom="1.5878906"
     inkscape:cx="108.3198"
     inkscape:cy="200.26568"
     inkscape:window-width="1050"
     inkscape:window-height="1081"
     inkscape:window-x="3737"
     inkscape:window-y="0"
     inkscape:window-maximized="0"
     inkscape:current-layer="layer1" />
  <defs
     id="defs1" />
  <g
     inkscape:label="Layer 1"
     inkscape:groupmode="layer"
     id="layer1"
     transform="translate(-0.7937635,-0.79375582)">
    <g
       id="g11330"
       transform="translate(259.47925,128.24934)">
      <path
         style="fill:#000000;stroke-width:0.1;stroke-dasharray:none"
         d="m -242.5965,-90.57757 c -0.10406,-0.0385 -0.23751,-0.0514 -0.29654,-0.0288 -0.20284,0.0778 -0.49069,-0.10301 -0.58232,-0.36588 -0.14263,-0.40915 -0.10975,-1.28211 0.0626,-1.66157 0.16989,-0.37405 0.47112,-0.55091 1.08813,-0.63881 0.44368,-0.0632 0.58044,-0.18791 1.05081,-0.9581 0.3833,-0.62761 0.58181,-1.26387 0.82165,-2.63351 0.17754,-1.01381 0.1809,-1.09578 0.0589,-1.43482 -0.12495,-0.34748 -0.12324,-0.36779 0.051,-0.60347 0.0992,-0.13413 0.18031,-0.31261 0.18031,-0.3966 0,-0.27201 0.31191,-1.06849 0.56567,-1.44451 0.13601,-0.20153 0.22604,-0.40083 0.20004,-0.44287 -0.0694,-0.11224 0.13264,-0.98647 0.2599,-1.12484 0.0943,-0.10248 0.0446,-0.13178 -0.36427,-0.21519 -0.63351,-0.12923 -1.65278,-0.56078 -2.06758,-0.87538 -0.46274,-0.35099 -0.83368,-0.93215 -0.94902,-1.48685 -0.0857,-0.41225 -0.0775,-0.53103 0.0728,-1.0421 0.0932,-0.31724 0.19308,-0.72408 0.22187,-0.90408 0.0476,-0.29832 0.0318,-0.34011 -0.17969,-0.47227 -0.12762,-0.0798 -0.56897,-0.41235 -0.98081,-0.73913 -1.61821,-1.28403 -2.37201,-2.26685 -2.37201,-3.0927 0,-0.54683 0.19098,-0.68571 0.88878,-0.64634 0.26924,0.0152 0.48899,0.0275 0.48833,0.0275 -6.1e-4,0 -0.0755,-0.2371 -0.16656,-0.52689 -0.0982,-0.31293 -0.19189,-0.92188 -0.23066,-1.49959 -0.0691,-1.03009 -0.003,-3.25551 0.10222,-3.42532 0.36909,-0.59721 2.37267,1.31134 3.29798,3.1416 0.24382,0.48225 0.2711,0.50968 0.32212,0.32372 0.0901,-0.32846 0.31975,-0.72794 0.4269,-0.7426 0.0546,-0.008 0.59168,-0.0172 1.19355,-0.022 0.91976,-0.006 1.17834,-0.038 1.6212,-0.19435 0.62648,-0.22112 0.985,-0.19055 1.29953,0.11077 l 0.22044,0.2112 0.14179,-0.59319 c 0.40949,-1.71315 1.51096,-3.95717 1.94237,-3.95717 0.16924,0 0.64529,0.59685 0.95956,1.20305 0.49332,0.95155 0.82176,2.18851 0.91981,3.46411 l 0.0527,0.68561 0.2631,-0.0494 c 0.35261,-0.0662 0.56927,0.0651 0.77593,0.47023 0.1425,0.27931 0.16562,0.43726 0.13465,0.91969 -0.0499,0.77918 -0.55191,1.80767 -1.4165,2.9026 -0.34784,0.44052 -0.66595,0.84648 -0.7069,0.90212 -0.0496,0.0674 0.0382,0.34158 0.26253,0.82025 0.95537,2.03856 0.57297,3.17435 -1.40778,4.18129 -0.46377,0.23577 -0.8534,0.48156 -0.86586,0.54623 -0.0125,0.0647 0.057,0.19716 0.15421,0.29443 0.13322,0.13323 0.19091,0.31928 0.23373,0.75383 0.0313,0.31733 0.0909,0.57696 0.13267,0.57696 0.0418,0 0.21907,-0.31006 0.39415,-0.68901 0.33876,-0.73326 0.50394,-0.85107 0.65343,-0.4661 0.10271,0.26448 0.039,1.04352 -0.13271,1.62158 -0.11649,0.39227 -0.11352,0.42295 0.0814,0.84171 0.11128,0.23904 0.20268,0.49715 0.2031,0.57361 3.2e-4,0.0764 0.0688,0.17535 0.1518,0.21981 0.24568,0.13148 0.3629,0.52711 0.30886,1.04237 -0.0287,0.27302 -6e-4,0.72942 0.0685,1.11166 0.0644,0.35667 0.20499,1.14316 0.31243,1.74778 0.10742,0.60462 0.27611,1.28708 0.37486,1.51662 0.16833,0.39134 0.2064,0.42512 0.61137,0.54285 0.84736,0.24635 1.14789,0.73132 1.06897,1.72506 -0.0632,0.79527 -0.15458,0.88067 -1.00611,0.93998 -0.39299,0.0273 -1.10967,0.0413 -1.59264,0.0312 -0.87296,-0.0186 -0.87945,-0.0202 -1.10605,-0.27381 -0.12969,-0.14519 -0.25228,-0.39926 -0.28442,-0.58943 -0.0427,-0.25294 -0.11117,-0.36254 -0.28129,-0.45051 -0.42487,-0.21971 -0.69924,-1.16637 -0.79871,-2.75572 l -0.0559,-0.89379 -0.59026,-0.0239 -0.59026,-0.0239 -0.23681,0.51023 c -0.31587,0.68055 -0.61954,1.75929 -0.72894,2.58943 -0.11456,0.86938 -0.23784,0.99598 -1.04743,1.07576 -0.5349,0.0527 -0.58567,0.0745 -0.70302,0.30142 -0.20453,0.39549 -0.57755,0.50618 -1.74506,0.51787 -0.56177,0.005 -1.10654,-0.0213 -1.21062,-0.0598 z m 2.32351,-0.23645 c 0.37015,-0.11233 0.47972,-0.2779 0.68081,-1.02877 0.12545,-0.46842 0.30098,-0.85866 0.57509,-1.27856 0.42016,-0.64361 0.80067,-1.35152 0.80067,-1.48959 0,-0.046 -0.0465,-0.0838 -0.10347,-0.0838 -0.057,0 -0.35589,-0.20115 -0.66441,-0.447 -0.86507,-0.68934 -1.49701,-0.77256 -1.60915,-0.21187 -0.0804,0.40231 -0.59206,1.40108 -0.92154,1.79907 -0.2669,0.32239 -0.36544,0.38135 -0.76408,0.4571 -0.92721,0.1762 -1.11937,0.41137 -1.11253,1.36139 0.004,0.70398 0.0723,0.88664 0.33802,0.91759 0.19493,0.0227 0.2179,0.003 0.18431,-0.16212 -0.1579,-0.77383 -0.0968,-1.63878 0.12555,-1.77618 0.159,-0.0983 0.16341,-0.0443 0.0199,0.24352 -0.10445,0.20938 -0.1192,0.38812 -0.0729,0.88455 0.0749,0.80456 0.13194,0.90588 0.50997,0.9059 l 0.30112,1e-5 -0.0279,-0.67328 c -0.0311,-0.7501 0.11687,-1.27219 0.36059,-1.27219 0.12658,0 0.12559,0.014 -0.0115,0.16563 -0.11572,0.12787 -0.15794,0.33417 -0.18524,0.90527 -0.0442,0.92219 0.007,0.97997 0.7924,0.90853 0.29197,-0.0266 0.645,-0.0829 0.7845,-0.12524 z m 7.63348,0.0751 c 0.14091,-0.14091 0.12353,-1.22311 -0.0254,-1.5795 -0.14748,-0.35298 -0.11916,-0.40995 0.0894,-0.17976 0.1284,0.14174 0.15752,0.31153 0.17038,0.99348 l 0.0155,0.82252 0.26819,0.0211 c 0.46195,0.0365 0.51138,-0.0496 0.51138,-0.88948 0,-0.41408 -0.0313,-0.84406 -0.0695,-0.95552 -0.0672,-0.19579 -0.0644,-0.19774 0.0811,-0.0579 0.12788,0.12297 0.15055,0.27247 0.15055,0.99299 0,0.81737 0.007,0.84824 0.1766,0.84824 0.28303,0 0.40416,-0.19602 0.45971,-0.7438 0.10772,-1.06241 -0.17084,-1.39856 -1.36585,-1.64816 -0.26749,-0.0559 -0.40182,-0.10593 -0.29851,-0.11124 0.20274,-0.0104 0.1962,-0.13652 -0.0302,-0.58202 -0.058,-0.11417 -0.1883,-0.63253 -0.28951,-1.15193 -0.17164,-0.88065 -0.19919,-0.95061 -0.40865,-1.03738 -0.27032,-0.11196 -0.56605,-0.0258 -1.11543,0.32491 -0.20383,0.13012 -0.52309,0.28376 -0.70948,0.3414 -0.31778,0.0983 -0.33606,0.12011 -0.29351,0.35028 0.025,0.13501 0.18644,0.60776 0.35883,1.05057 0.31386,0.80615 0.55727,1.84266 0.55727,2.37294 0,0.3581 0.21655,0.7289 0.48289,0.82686 0.30272,0.11135 1.17005,0.1055 1.28422,-0.009 z m -5.92426,-0.84221 c 0.14333,-0.0217 0.28459,-0.0784 0.3139,-0.12576 0.0293,-0.0474 0.0863,-0.38342 0.12658,-0.74666 0.0403,-0.36323 0.13249,-0.87251 0.20487,-1.13174 0.12359,-0.44268 0.12298,-0.47963 -0.01,-0.60795 -0.1243,-0.11989 -0.15082,-0.12174 -0.21641,-0.015 -0.041,0.0668 -0.31184,0.50461 -0.60162,0.97272 -0.43853,0.70845 -0.76686,1.44026 -0.76686,1.70926 0,0.0554 0.36076,0.0344 0.94959,-0.0549 z m 3.91398,-0.48333 c 0,-0.54183 -0.54778,-2.14382 -0.73304,-2.14382 -0.10702,0 -0.0467,0.69376 0.1242,1.42905 0.12817,0.55135 0.60884,1.11567 0.60884,0.71477 z m -2.99915,-2.33099 c 4e-5,-0.053 0.10946,-0.3278 0.24318,-0.61043 0.13371,-0.28265 0.24311,-0.53119 0.24311,-0.5523 0,-0.0211 -0.11734,-0.0269 -0.26075,-0.013 -0.24299,0.0237 -0.27397,0.0629 -0.45499,0.57718 -0.18786,0.53369 -0.1893,0.55539 -0.0442,0.66157 0.16151,0.11808 0.27346,0.0923 0.27357,-0.063 z m 2.27008,-0.19787 c -0.0396,-0.1226 -0.0882,-0.29586 -0.10795,-0.38503 -0.0196,-0.0891 -0.0401,0.0112 -0.0451,0.22292 -0.007,0.2864 0.0206,0.38503 0.10796,0.38503 0.0915,0 0.10148,-0.0492 0.0451,-0.22292 z m -2.61637,-0.58565 c 0.0706,-0.27758 0.0652,-0.2859 -0.37936,-0.57325 -0.49164,-0.31775 -0.99928,-0.85071 -1.44526,-1.51729 -0.15704,-0.23473 -0.29796,-0.41435 -0.31316,-0.39916 -0.0152,0.0152 -0.0827,0.35316 -0.15002,0.75104 -0.0673,0.39786 -0.14195,0.80837 -0.1659,0.91224 -0.0368,0.15947 -0.0184,0.18089 0.1178,0.13764 0.2528,-0.0802 0.76047,0.0935 1.15588,0.39532 0.65349,0.49898 0.98637,0.70164 1.04777,0.63792 0.0332,-0.0345 0.0927,-0.18954 0.13225,-0.34446 z m 3.07269,-0.34689 c 0.12771,-0.056 0.40652,-0.2059 0.61956,-0.33329 0.45928,-0.27464 0.8492,-0.37602 1.09558,-0.28487 0.16438,0.0609 0.1788,0.0415 0.1788,-0.23845 0,-0.33185 -0.17314,-1.07079 -0.37847,-1.61535 -0.0874,-0.2317 -0.17827,-0.34451 -0.27759,-0.34451 -0.27273,0 -1.03511,0.88777 -1.41631,1.64923 -0.53904,1.07679 -0.48107,1.45602 0.17843,1.16724 z m -0.69996,-0.28033 c 0,-0.34397 0.60822,-1.4859 1.06354,-1.99676 0.66019,-0.7407 1.13774,-0.90846 1.24712,-0.43805 0.0817,0.35147 0.15673,0.0734 0.0842,-0.31268 -0.0639,-0.34046 -0.36048,-0.55812 -0.6586,-0.48329 -0.49689,0.12471 -1.33602,1.19153 -1.8015,2.29033 -0.17096,0.40358 -0.23707,0.99326 -0.12401,1.1063 0.11291,0.11292 0.18913,0.046 0.18913,-0.16585 z m -2.26968,-0.003 c -0.56951,-0.37488 -1.55871,-1.61659 -2.03658,-2.55643 -0.22615,-0.44477 -0.39523,-0.5431 -0.39523,-0.22987 0,0.38967 0.85097,1.66574 1.5528,2.32854 0.46067,0.43505 0.71577,0.60063 0.9173,0.59541 0.15056,-0.004 0.14734,-0.0155 -0.0383,-0.13765 z m 0.80933,-0.0226 c -0.12293,-0.22973 -0.38066,-1.46645 -0.44715,-2.14574 -0.0482,-0.49232 -0.091,-0.60498 -0.32352,-0.85113 -0.35589,-0.37677 -0.59275,-0.85288 -0.65682,-1.32022 -0.0407,-0.2966 -0.0272,-0.38222 0.06,-0.38283 0.0618,-3.1e-4 -0.084,-0.0922 -0.32378,-0.20382 -0.33639,-0.15659 -0.46174,-0.18176 -0.54814,-0.11005 -0.15645,0.12984 -0.56581,1.01004 -0.67835,1.45859 -0.0876,0.34897 -0.0777,0.40562 0.14743,0.85112 0.46495,0.91996 1.62586,2.39466 2.0826,2.64553 0.13996,0.0769 0.50953,0.18829 0.71212,0.21471 0.0351,0.004 0.0241,-0.0657 -0.0244,-0.15616 z m 0.29058,0.0283 c -0.1167,-0.30411 -0.37153,-1.59062 -0.42144,-2.12763 -0.0293,-0.3153 -0.0845,-0.57327 -0.1227,-0.57327 -0.0382,0 -0.0694,0.0934 -0.0694,0.20739 0,0.66563 0.43689,2.62971 0.58497,2.62971 0.0444,0 0.0573,-0.0613 0.0286,-0.1362 z m 0.76864,-0.16777 c 0.0134,-0.96991 1.38192,-3.08999 2.0855,-3.23071 0.22369,-0.0448 0.25715,-0.08 0.21347,-0.22489 -0.10953,-0.36319 -0.47605,-0.95135 -0.86433,-1.387 -0.36361,-0.40797 -0.41799,-0.44185 -0.53668,-0.33446 -0.17699,0.16016 -0.87545,0.45532 -1.07742,0.45532 -0.13741,0 -0.15383,0.0365 -0.10879,0.24155 0.10096,0.45968 -0.10005,1.09537 -0.48016,1.51842 -0.39372,0.4382 -0.3848,0.2949 -0.1187,1.90758 0.21265,1.28874 0.24318,1.35816 0.59721,1.35816 0.27538,0 0.28588,-0.011 0.2899,-0.30397 z m -0.89147,-2.99904 c 0.23044,-0.25063 0.23676,-0.26563 0.0363,-0.0857 -0.13377,0.11994 -0.33438,0.25436 -0.44584,0.29867 -0.17787,0.0707 -0.18229,0.0812 -0.0362,0.0856 0.0932,0.003 0.28944,-0.12858 0.44583,-0.29866 z m -0.0644,-0.16229 c 0.25771,-0.26905 0.46637,-0.74341 0.46238,-1.05117 -0.002,-0.12404 -0.0924,-0.33495 -0.20168,-0.4687 -0.17213,-0.21059 -0.2505,-0.24239 -0.58477,-0.23726 -0.53047,0.009 -0.83183,0.0956 -0.83183,0.24135 0,0.0674 -0.0547,0.14358 -0.12159,0.16925 -0.28892,0.11086 -0.008,0.97277 0.44051,1.34988 0.3314,0.27886 0.56758,0.2779 0.83698,-0.004 z m -0.79928,-0.0616 c -0.23863,-0.23863 -0.43768,-0.67919 -0.43768,-0.96873 0,-0.11254 0.0796,-0.29609 0.17674,-0.4079 0.14828,-0.17053 0.24793,-0.20326 0.61892,-0.20326 0.36992,0 0.4735,0.0339 0.63386,0.20683 0.21804,0.23527 0.23018,0.33489 0.0955,0.78435 -0.11778,0.39308 -0.47552,0.79214 -0.71012,0.79214 -0.0956,0 -0.26534,-0.0915 -0.37724,-0.20343 z m 0.65582,-0.11997 c 0.12769,-0.13329 0.21266,-0.26183 0.18883,-0.28566 -0.0238,-0.0238 -0.0895,0.0123 -0.14587,0.0803 -0.13518,0.16289 -0.47833,0.15741 -0.66398,-0.0106 -0.21475,-0.19435 -0.18199,-0.29701 0.0469,-0.14702 0.14289,0.0936 0.21073,0.10265 0.25331,0.0338 0.0436,-0.0706 0.0736,-0.0693 0.11953,0.004 0.0448,0.0726 0.11014,0.0505 0.24261,-0.082 0.13249,-0.13248 0.15455,-0.19776 0.0819,-0.2426 -0.0752,-0.0465 -0.0762,-0.0756 -0.004,-0.12008 0.14209,-0.0878 -0.15036,-0.38044 -0.32487,-0.32505 -0.0817,0.0259 -0.1585,-0.006 -0.18649,-0.08 -0.0708,-0.18442 -0.31705,-0.14551 -0.47774,0.0754 -0.10542,0.145 -0.12218,0.24222 -0.0659,0.38249 l 0.0753,0.18807 0.004,-0.18771 c 0.008,-0.26683 0.15035,-0.5013 0.30584,-0.5013 0.10934,0 0.10057,0.0344 -0.0495,0.19411 -0.11765,0.12523 -0.1512,0.21333 -0.0946,0.24834 0.0594,0.0367 0.0482,0.0937 -0.0345,0.17646 -0.0673,0.0672 -0.12221,0.15481 -0.12221,0.19466 0,0.0902 0.48223,0.64551 0.56065,0.64551 0.0316,0 0.16197,-0.10906 0.28967,-0.24234 z m -0.52608,-0.52098 c 0,-0.14207 0.27806,-0.45258 0.4053,-0.45258 0.11773,0 0.0993,0.20816 -0.0277,0.31361 -0.0598,0.0497 -0.13582,0.0632 -0.16887,0.0302 -0.0331,-0.0331 -0.048,-0.01 -0.0331,0.0513 0.0148,0.0613 -0.0185,0.12819 -0.0743,0.14863 -0.0557,0.0204 -0.10132,-0.0206 -0.10132,-0.0912 z m 0.75684,-0.60819 c -0.0793,-0.0928 -0.17418,-0.16863 -0.21059,-0.16863 -0.0364,0 0.009,0.0799 0.0991,0.1774 0.091,0.0976 0.17026,0.25262 0.17633,0.34451 0.0105,0.15912 0.0127,0.15869 0.0453,-0.009 0.0188,-0.0967 -0.0307,-0.25175 -0.11012,-0.3445 z m 3.02747,-1.42505 c 0.0522,-0.74427 -0.022,-0.74427 -0.29491,0 -0.0981,0.26749 -0.23385,0.54791 -0.3017,0.62316 -0.1116,0.12372 -0.10145,0.16554 0.10624,0.43786 l 0.22964,0.30107 0.10762,-0.35681 c 0.0593,-0.19625 0.12811,-0.64862 0.15311,-1.00528 z m -4.35173,1.02338 c 0,-0.0389 0.10944,-0.0929 0.24318,-0.11957 0.22046,-0.0442 0.24318,-0.0782 0.24318,-0.36569 0,-0.31599 -8.9e-4,-0.31727 -0.38397,-0.37465 -0.46959,-0.0705 -0.83193,-0.24844 -0.83193,-0.40873 0,-0.0657 -0.0291,-0.11951 -0.0649,-0.11951 -0.0889,0 -0.27968,0.95538 -0.21245,1.06417 0.0699,0.11315 0.68085,0.39081 0.86498,0.39312 0.078,8.9e-4 0.14185,-0.0302 0.14185,-0.0692 z m 2.64549,-0.22152 c 0.55597,-0.26303 0.60852,-0.36621 0.48953,-0.96137 -0.0984,-0.49209 -0.26536,-0.68038 -0.31194,-0.35179 -0.0336,0.23746 -0.73808,0.60879 -1.29508,0.68268 -0.39127,0.0518 -0.39317,0.0536 -0.39317,0.35716 0,0.25774 0.0315,0.31289 0.20266,0.35586 0.11145,0.028 0.20265,0.0914 0.20265,0.14075 0,0.13704 0.59974,0.0158 1.10535,-0.22329 z m -1.67277,-0.36198 c 0,-0.34788 -0.0219,-0.40709 -0.14186,-0.38431 -0.10688,0.0203 -0.14794,0.12167 -0.16655,0.41125 -0.022,0.3417 -0.007,0.3843 0.14185,0.3843 0.14616,0 0.16656,-0.0503 0.16656,-0.41124 z m -0.36477,-0.48042 c 0.0303,-0.049 -0.0819,-0.0811 -0.28425,-0.0811 -0.1839,0 -0.40491,-0.0378 -0.49114,-0.0839 -0.12179,-0.0651 -0.1568,-0.0574 -0.1568,0.0346 0,0.0651 0.0638,0.13519 0.14185,0.15557 0.26994,0.0705 0.74044,0.0555 0.79034,-0.0252 z m 1.51301,-0.0832 c 0.11881,-0.0542 0.23394,-0.16719 0.25585,-0.25092 0.0483,-0.18489 0.0723,-0.18503 -0.31482,0.002 -0.17557,0.0849 -0.4921,0.18008 -0.70341,0.21174 -0.522,0.0782 -0.40664,0.23478 0.13184,0.17894 0.22797,-0.0237 0.5117,-0.0873 0.63054,-0.14167 z m -2.68309,-0.34924 c -0.0673,-0.0673 -0.0814,-0.0386 -0.0542,0.10994 0.0525,0.28689 0.063,0.29986 0.10642,0.1315 0.0213,-0.0827 -0.002,-0.19141 -0.0522,-0.24144 z m 2.18333,0.0864 c 0.48389,-0.13234 0.55004,-0.18275 0.95555,-0.72798 0.19066,-0.25635 0.38761,-0.46609 0.43766,-0.46609 0.05,0 0.0215,0.0784 -0.0634,0.17396 -0.18118,0.2041 -0.17435,0.20185 0.61565,-0.20361 1.68795,-0.86631 2.2557,-1.80382 1.69758,-2.80321 -0.30443,-0.54514 -0.71829,-0.83816 -1.18819,-0.84128 -0.58573,-0.004 -1.48315,0.12128 -1.43447,0.20006 0.0704,0.11387 -0.0488,0.0796 -0.27831,-0.0802 -0.35643,-0.24802 -0.73227,-0.33668 -1.42289,-0.33567 -1.06456,0.002 -1.90515,0.2996 -2.38436,0.84539 -0.24337,0.27718 -0.41146,0.38975 -0.29104,0.19491 0.037,-0.0599 0.022,-0.0714 -0.0415,-0.0323 -0.0547,0.0338 -0.35459,0.0935 -0.66662,0.1326 -0.88222,0.11077 -1.28631,0.50924 -1.28519,1.2673 0.002,1.03224 0.69607,1.7385 2.10631,2.14178 0.70925,0.20283 0.802,0.19696 0.58235,-0.0369 -0.33778,-0.35954 -0.17344,-0.33047 0.20877,0.037 0.623,0.59885 0.70976,0.63724 1.43659,0.63549 0.35789,-8.9e-4 0.81486,-0.0465 1.01547,-0.10132 z m -2.34092,-1.175 c -0.42893,-0.44882 -0.9258,-0.88872 -1.10412,-0.97756 -0.17834,-0.0888 -0.42875,-0.27153 -0.55646,-0.406 -0.14107,-0.14851 -0.28065,-0.2259 -0.35557,-0.19716 -0.0817,0.0315 -0.11069,0.009 -0.0857,-0.0668 0.0469,-0.14251 0.48421,-0.20834 0.45249,-0.0682 -0.0364,0.16107 0.60599,0.60153 1.10733,0.75922 0.528,0.16607 1.02128,0.1407 1.57543,-0.081 0.34475,-0.13792 0.34531,-0.13884 0.29035,-0.47179 -0.0618,-0.37408 0.0351,-0.34124 0.16327,0.0554 0.0702,0.2172 0.13014,0.26404 0.36759,0.28727 0.38097,0.0372 1.08124,-0.123 1.59922,-0.36597 0.38012,-0.17831 0.44983,-0.25327 0.67574,-0.72662 0.18221,-0.38181 0.28543,-0.51494 0.37312,-0.48129 0.0666,0.0256 0.13648,0.0466 0.15512,0.0466 0.0187,0 0.0339,0.0403 0.0339,0.0897 0,0.0494 -0.0524,0.0697 -0.11658,0.0451 -0.0815,-0.0312 -0.16001,0.0698 -0.26083,0.33583 -0.0793,0.20932 -0.2833,0.52678 -0.45327,0.70546 -0.17051,0.17926 -0.43353,0.61123 -0.58675,0.96371 -0.15274,0.35136 -0.35924,0.72561 -0.45889,0.83169 -0.21451,0.22834 -0.78031,0.41009 -1.50895,0.48474 l -0.52648,0.054 z m 2.29475,0.39594 c 0.36818,-0.12096 0.42125,-0.17283 0.67352,-0.65819 0.19396,-0.37314 0.21925,-0.45593 0.0867,-0.28371 -0.45315,0.58876 -0.7811,0.83635 -1.24539,0.94025 -0.63259,0.14158 -1.09486,0.0126 -1.57033,-0.438 l -0.35889,-0.34014 0.30094,0.36478 c 0.43333,0.52522 0.71329,0.65723 1.26435,0.59615 0.24719,-0.0274 0.62929,-0.10891 0.84909,-0.18114 z m -0.34472,-0.21602 c 0.20214,-0.0689 0.46654,-0.22855 0.58754,-0.35485 l 0.21999,-0.22964 -0.26094,-0.0909 c -0.59105,-0.20603 -1.42398,-0.0734 -1.90241,0.30294 -0.16663,0.13107 -0.17923,0.16985 -0.0815,0.25095 0.30342,0.25183 0.90559,0.30275 1.43733,0.12157 z m -1.24404,-0.61123 c 0.5048,-0.3138 1.1965,-0.39908 1.73864,-0.21436 l 0.36376,0.12396 0.29315,-0.31883 c 0.16124,-0.17537 0.29316,-0.35117 0.29316,-0.39065 0,-0.12243 -0.65317,0.17775 -0.74007,0.34013 -0.0734,0.13714 -0.10094,0.14126 -0.25873,0.0386 -0.30824,-0.20053 -0.92297,-0.22177 -1.32114,-0.0457 -0.19528,0.0864 -0.35504,0.19054 -0.35504,0.23146 0,0.0409 -0.0704,0.11212 -0.15649,0.15818 -0.11717,0.0626 -0.18701,0.0531 -0.27792,-0.0376 -0.16601,-0.16602 -0.63134,-0.1659 -0.56763,1.6e-4 0.0257,0.0668 0.11125,0.12158 0.19019,0.12158 0.0789,0 0.18893,0.0547 0.24444,0.12159 0.12749,0.15361 0.0834,0.16385 0.55368,-0.12852 z m -0.14839,-0.23625 c 0,-0.0446 -0.0161,-0.0811 -0.0357,-0.0811 -0.0196,0 -0.0583,0.0365 -0.0859,0.0811 -0.0275,0.0446 -0.0115,0.0811 0.0357,0.0811 0.0472,0 0.0859,-0.0365 0.0859,-0.0811 z m 2.02649,-0.32423 c 0,-0.0446 -0.0161,-0.0811 -0.0357,-0.0811 -0.0196,0 -0.0583,0.0365 -0.0859,0.0811 -0.0275,0.0446 -0.0115,0.0811 0.0357,0.0811 0.0472,0 0.0859,-0.0365 0.0859,-0.0811 z m -3.32345,-0.85592 c 0,-0.0696 0.0365,-0.10383 0.0811,-0.0763 0.0446,0.0275 0.0811,0.0844 0.0811,0.12636 0,0.0419 -0.0365,0.0763 -0.0811,0.0763 -0.0446,0 -0.0811,-0.0569 -0.0811,-0.12637 z m 1.35896,-0.24614 c -0.43697,-0.13439 -1.03473,-0.65393 -1.03473,-0.89933 0,-0.0891 0.0717,-0.22704 0.15946,-0.3064 0.43783,-0.39623 2.30328,-0.60558 2.67977,-0.30071 0.16883,0.13671 0.17473,0.17018 0.0802,0.45642 -0.1591,0.48206 -0.60138,0.91552 -1.07882,1.0573 -0.22605,0.0672 -0.4135,0.11952 -0.41656,0.11641 -0.003,-0.003 -0.17828,-0.0587 -0.38938,-0.12369 z m 0.92115,-1.30296 c 0.82593,-0.0587 0.88637,-0.18984 0.0862,-0.18692 -0.60197,0.002 -1.12828,0.10361 -1.53195,0.29516 -0.43785,0.20778 -0.30299,0.26453 0.23254,0.0979 0.27467,-0.0855 0.82065,-0.17824 1.21329,-0.2061 z m -2.84753,1.22487 c 0,-0.0696 0.037,-0.10347 0.0824,-0.0754 0.0453,0.028 0.0614,0.0849 0.0357,0.12638 -0.0694,0.11243 -0.11813,0.0916 -0.11813,-0.0509 z m 0.48636,-0.31947 c 0,-0.0668 0.0365,-0.12158 0.0811,-0.12158 0.0446,0 0.0811,0.0547 0.0811,0.12158 0,0.0668 -0.0365,0.1216 -0.0811,0.1216 -0.0446,0 -0.0811,-0.0548 -0.0811,-0.1216 z m 3.97193,-0.24795 c 0,-0.0696 0.0365,-0.10384 0.0811,-0.0763 0.0446,0.0275 0.0811,0.0844 0.0811,0.12637 0,0.0419 -0.0365,0.0762 -0.0811,0.0762 -0.0446,0 -0.0811,-0.0569 -0.0811,-0.12637 z m 0.4053,-0.16213 c 0,-0.0696 0.0365,-0.10382 0.0811,-0.0762 0.0446,0.0274 0.0811,0.0844 0.0811,0.12637 0,0.0419 -0.0365,0.0762 -0.0811,0.0762 -0.0446,0 -0.0811,-0.0569 -0.0811,-0.12637 z m -0.56742,-0.19787 c 0,-0.0446 0.0365,-0.0811 0.0811,-0.0811 0.0446,0 0.0811,0.0365 0.0811,0.0811 0,0.0446 -0.0365,0.0811 -0.0811,0.0811 -0.0446,0 -0.0811,-0.0365 -0.0811,-0.0811 z m 0.43273,3.99646 c 0.0538,-0.33151 0.004,-0.44887 -0.11166,-0.26535 -0.0955,0.15107 -0.10098,0.56507 -0.008,0.56507 0.0388,0 0.0924,-0.13486 0.1191,-0.29972 z m -6.39617,-1.52123 c -0.0721,-0.10986 -0.15028,-0.41362 -0.17399,-0.675 -0.0813,-0.8971 0.36323,-1.49434 1.19014,-1.59881 0.79315,-0.10021 0.91031,-0.13708 1.16133,-0.36549 l 0.25986,-0.23646 -0.35229,-0.003 c -0.37287,-0.003 -1.11938,0.18495 -1.49182,0.37462 -0.12261,0.0625 -0.22292,0.0793 -0.22292,0.0371 0,-0.042 0.0456,-0.0977 0.10133,-0.12368 0.0805,-0.0376 0.0802,-0.0571 -0.002,-0.0951 -0.3365,-0.15629 -0.46585,-1.21844 -0.20264,-1.664 0.34511,-0.58425 1.24125,-0.88307 1.81413,-0.60494 0.44368,0.21541 0.82324,0.78912 0.86641,1.30958 0.0201,0.24189 0.0472,0.43979 0.0603,0.43979 0.32292,0 0.3648,-0.43888 0.1181,-1.23762 -0.15539,-0.50306 -0.80302,-1.60489 -1.07396,-1.82709 -0.26486,-0.21723 -1.75304,0.21879 -2.11614,0.62001 -0.11946,0.13201 -0.12461,0.22404 -0.0442,0.79043 0.11512,0.81061 0.0419,2.00615 -0.16946,2.76782 -0.19524,0.70345 -0.20481,1.09779 -0.0381,1.57018 0.12567,0.35622 0.331,0.72079 0.40594,0.72079 0.0222,0 -0.0183,-0.0899 -0.0904,-0.19976 z m 0.25184,-5.45787 c 0.18237,-0.30873 0.62391,-0.59719 0.93699,-0.61215 0.35889,-0.0171 0.38865,0.15868 0.038,0.22446 -0.15696,0.0294 -0.45068,0.17972 -0.6527,0.33393 -0.44481,0.33951 -0.49614,0.34809 -0.32228,0.0538 z m 8.68651,2.4792 c -0.15339,-0.36955 -0.43069,-1.03352 -0.61622,-1.47544 -0.18554,-0.44195 -0.41401,-1.10923 -0.50772,-1.48286 -0.22462,-0.89559 -0.32437,-0.956 -1.57825,-0.956 -1.0332,0 -1.0434,0.005 -1.46754,0.85112 -0.20611,0.41073 -0.22373,0.52051 -0.22373,1.39427 0,0.52575 0.0361,0.98354 0.0811,1.0272 0.0446,0.0434 0.217,0.10374 0.38314,0.13427 l 0.30208,0.0555 -0.13995,-0.27211 c -0.17073,-0.3319 -0.16892,-0.99693 0.004,-1.33054 0.36434,-0.70455 1.27793,-0.95225 1.96689,-0.53328 0.38068,0.23152 0.69491,0.9353 0.67751,1.51748 l -0.0143,0.47952 -0.70861,-0.028 c -0.38974,-0.0154 -0.9226,0.017 -1.18416,0.072 l -0.47556,0.0999 0.36476,0.15891 c 0.31011,0.13509 0.46197,0.1501 1.01325,0.1001 1.33465,-0.12107 1.6697,-0.0219 2.10482,0.62323 0.13525,0.20051 0.2576,0.3358 0.27188,0.30061 0.0142,-0.0352 -0.0995,-0.36632 -0.25292,-0.73587 z m -2.08325,-3.43841 c -0.15604,-0.0692 -0.44482,-0.1498 -0.64173,-0.17925 -0.41596,-0.0622 -0.55661,-0.25612 -0.18575,-0.25612 0.43767,0 0.73015,0.0961 1.00322,0.32975 0.30238,0.2587 0.24611,0.29253 -0.17574,0.10562 z m -5.7697,3.57804 c 0.0145,-0.0145 -0.0309,-0.13742 -0.10115,-0.2731 -0.21728,-0.42016 -0.16694,-0.799 0.14804,-1.11397 0.22584,-0.22585 0.33699,-0.2756 0.6157,-0.2756 0.65351,0 1.02124,0.40289 0.95942,1.05118 -0.0172,0.17975 -0.003,0.32683 0.0318,0.32683 0.0346,0 0.0629,-0.19251 0.0629,-0.42779 0,-0.60105 -0.25965,-0.94686 -0.88079,-1.17304 -0.96792,-0.35245 -2.0765,1.01396 -1.45926,1.79865 0.13811,0.17559 0.21538,0.20901 0.38487,0.16646 0.11664,-0.0291 0.22394,-0.0651 0.23846,-0.0797 z m 0.30276,-0.3027 c -0.26541,-0.37891 -0.0614,-0.93066 0.36017,-0.97425 0.17579,-0.0182 0.20265,0.0113 0.20265,0.22222 0,0.22131 0.0231,0.24218 0.25644,0.23199 0.2341,-0.0102 0.25309,0.008 0.21811,0.20014 -0.0212,0.11622 -0.0806,0.26226 -0.13226,0.3245 -0.0758,0.0912 -0.063,0.10728 0.0657,0.0827 0.10538,-0.0202 0.18434,-0.13057 0.23261,-0.32535 0.14642,-0.59078 -0.4357,-1.12131 -1.04277,-0.95036 -0.34442,0.097 -0.52991,0.35407 -0.52991,0.73438 0,0.40353 0.12063,0.63416 0.33169,0.63416 0.15315,0 0.15561,-0.0117 0.0377,-0.18016 z m -1.6268,-1.58676 c -0.0454,-0.49652 -0.0725,-0.57633 -0.16839,-0.49671 -0.18187,0.15094 -0.13287,-0.006 0.0948,-0.30543 0.45014,-0.59017 1.08658,-0.83415 2.70904,-1.03851 0.55729,-0.0702 1.57864,-0.22122 2.26967,-0.3356 1.42196,-0.23536 2.19444,-0.22521 2.76961,0.0364 0.3943,0.17936 0.79163,0.47129 0.52715,0.38735 -0.12962,-0.0411 -0.14139,-0.014 -0.0935,0.21631 0.0301,0.14484 0.16889,0.60525 0.30842,1.0231 l 0.25368,0.75975 0.39016,-0.4243 c 0.53583,-0.58277 0.98085,-1.25618 1.38231,-2.09176 0.31447,-0.65451 0.33905,-0.75469 0.33905,-1.38127 0,-0.63529 -0.0131,-0.68695 -0.22137,-0.86618 -0.25503,-0.21959 -0.40124,-0.19851 -1.10813,0.1597 -1.38703,0.70286 -3.66979,1.38623 -5.84966,1.75116 -1.6701,0.2796 -3.5032,0.26625 -5.28657,-0.0385 -1.59453,-0.27249 -1.76026,-0.24895 -1.76026,0.25001 0,0.16521 0.0786,0.46277 0.17469,0.66127 0.23612,0.48776 1.55626,1.85006 2.50028,2.58012 l 0.77006,0.59554 0.0266,-0.42547 c 0.0146,-0.23399 0.002,-0.69165 -0.0275,-1.017 z m -3.23597,-2.03414 c -0.0354,-0.0571 -8.9e-4,-0.16734 0.0802,-0.25704 0.16555,-0.18292 0.50954,-0.20115 1.21803,-0.0644 0.58704,0.1132 0.81046,0.27572 0.27697,0.20147 -0.20064,-0.0279 -0.59201,-0.0742 -0.86974,-0.10287 -0.47628,-0.0491 -0.5089,-0.0414 -0.57434,0.13545 -0.0482,0.13044 -0.0881,0.15709 -0.13119,0.0874 z m 5.89241,-0.21888 c 0.0264,-0.0265 0.46109,-0.11804 0.96597,-0.20363 1.39105,-0.23585 3.13598,-0.68185 4.44405,-1.13591 0.64646,-0.22439 1.40023,-0.46621 1.67504,-0.53735 0.46393,-0.12007 0.51468,-0.11951 0.70928,0.008 0.11528,0.0755 0.20959,0.17862 0.20959,0.22909 0,0.0504 -0.0723,0.0263 -0.16064,-0.0536 -0.23084,-0.20892 -0.62291,-0.13347 -2.10608,0.40524 -1.34562,0.48877 -2.96859,0.91737 -4.45148,1.17558 -0.93056,0.16204 -1.37399,0.20088 -1.28573,0.11261 z m 2.07221,3.48931 c 0.0144,-0.0118 -0.0127,-0.16179 -0.0603,-0.33317 -0.23648,-0.85168 -0.0435,-2.0362 0.43352,-2.66169 0.26572,-0.34839 0.26229,-0.36946 -0.0457,-0.28113 -0.13986,0.0401 -0.67789,0.13035 -1.19563,0.20052 -1.59783,0.21658 -1.4922,0.18921 -1.33535,0.34605 0.46559,0.46559 1.07313,1.75388 1.14206,2.42171 l 0.0442,0.42824 0.49553,-0.0495 c 0.27254,-0.0272 0.5073,-0.0593 0.5217,-0.0711 z m 0.85638,-0.35494 c -0.44421,-0.89043 0.68925,-1.74965 1.41444,-1.07221 0.29211,0.27288 0.39412,0.60486 0.27931,0.90903 -0.0805,0.21335 -0.0734,0.2209 0.24951,0.26422 0.18283,0.0245 0.344,0.0331 0.35815,0.0188 0.0872,-0.0872 0.029,-0.72339 -0.0905,-0.98825 -0.50531,-1.12057 -2.21971,-0.91801 -2.38056,0.28127 -0.0381,0.28452 0.16712,0.98434 0.26116,0.89031 0.0219,-0.0219 -0.0193,-0.15836 -0.0916,-0.30323 z m 0.49248,0.18649 c 0.11552,-0.0443 0.11131,-0.065 -0.0339,-0.16672 -0.18034,-0.1263 -0.22243,-0.49807 -0.0854,-0.75413 0.0792,-0.14799 0.53578,-0.30378 0.62598,-0.21359 0.0254,0.0255 0.003,0.098 -0.0491,0.16125 -0.12527,0.15094 0.12439,0.4367 0.26164,0.29947 0.23375,-0.23375 0.31158,0.16007 0.0817,0.41396 -0.12259,0.13548 -0.12284,0.14825 -0.003,0.14825 0.15238,0 0.29912,-0.23796 0.29912,-0.48506 0,-0.73936 -0.99933,-1.06158 -1.42177,-0.45846 -0.15512,0.22147 -0.15108,0.6986 0.008,0.92547 0.14132,0.20175 0.13512,0.19922 0.31667,0.12956 z m -3.27995,-3.77439 0.9322,-0.0901 -0.36374,-0.15482 c -0.45164,-0.19222 -0.6121,-0.33216 -0.90496,-0.7892 -0.25193,-0.3932 -0.30083,-0.77082 -0.10931,-0.84431 0.0668,-0.0257 0.12158,-0.10438 0.12158,-0.17493 0,-0.17762 0.44466,-0.34608 1.08718,-0.41192 0.48809,-0.05 0.5568,-0.0385 0.70278,0.11826 0.089,0.0955 0.2192,0.17367 0.28937,0.17367 0.10674,0 0.12243,0.091 0.0961,0.55705 -0.0255,0.45188 -0.076,0.6212 -0.26682,0.89667 -0.12944,0.18679 -0.32913,0.39061 -0.44377,0.45293 -0.28185,0.15328 -0.15573,0.14704 0.73511,-0.0364 1.39143,-0.28646 2.18757,-0.51063 2.1511,-0.60565 -0.0193,-0.0501 -0.25835,-0.45386 -0.53131,-0.89703 -0.32168,-0.52224 -0.4963,-0.74294 -0.4963,-0.62719 0,0.24859 -0.22457,0.22699 -0.34304,-0.033 -0.0816,-0.17932 -0.0745,-0.22751 0.047,-0.31636 0.13482,-0.0986 0.13234,-0.11253 -0.0416,-0.2343 -0.25722,-0.18017 -0.57169,-0.16087 -1.32415,0.0813 -0.57716,0.18574 -0.75421,0.20568 -1.61009,0.18136 -0.94503,-0.0268 -0.96391,-0.0239 -1.09431,0.17187 -0.0729,0.10955 -0.0912,0.17378 -0.0406,0.14274 0.16971,-0.10397 0.28803,0.14352 0.18095,0.37852 -0.053,0.11645 -0.12492,0.21173 -0.15972,0.21173 -0.10581,0 -0.16052,-0.1455 -0.0713,-0.18965 0.0459,-0.0227 0.0374,-0.0322 -0.0189,-0.0208 -0.11579,0.0233 -0.73217,1.97843 -0.67349,2.13629 0.0405,0.10905 0.34004,0.0984 2.15,-0.0767 z m -2.7565,-0.0457 c -2.4e-4,-0.078 -0.0533,-0.48839 -0.11788,-0.91193 -0.11865,-0.77805 -0.30696,-1.43836 -0.61547,-2.1581 -0.19594,-0.4571 -0.95517,-1.62228 -1.20354,-1.84705 l -0.17019,-0.15402 -0.005,0.92449 c -0.0137,2.20198 0.0217,2.57549 0.33774,3.57444 l 0.17162,0.54239 0.45746,0.0514 c 0.2516,0.0282 0.49394,0.0641 0.53852,0.0794 0.0446,0.0154 0.19961,0.0309 0.34449,0.0343 0.19947,0.004 0.26334,-0.0281 0.26298,-0.13544 z m 0.55856,-0.41314 c 0.34258,-1.12788 0.36871,-1.33021 0.2115,-1.63805 -0.42374,-0.82978 -1.36618,-2.10962 -1.99636,-2.71108 -0.79119,-0.75512 -1.09451,-0.94737 -1.20904,-0.76632 -0.041,0.0647 -0.0749,0.82914 -0.0753,1.6985 -8.9e-4,2.27832 0.23054,3.64342 0.63627,3.7495 0.15165,0.0396 0.15989,0.0259 0.0772,-0.12857 -0.0509,-0.0951 -0.16459,-0.42897 -0.2526,-0.74185 -0.13161,-0.46784 -0.16665,-0.90355 -0.19731,-2.4535 -0.0212,-1.06778 -0.005,-1.88465 0.0345,-1.88465 0.0394,0 0.22011,0.15504 0.40141,0.3445 0.99316,1.03796 1.76675,2.84957 1.86918,4.37725 0.0405,0.60408 0.0687,0.70927 0.18977,0.70927 0.10534,0 0.18597,-0.14397 0.31081,-0.555 z m 3.46928,-0.11375 c 0.33081,-0.3495 0.41246,-0.52337 0.46924,-0.99923 0.0465,-0.38976 0.0409,-0.40329 -0.24415,-0.58143 -0.52396,-0.32753 -1.36507,-0.21126 -1.74427,0.24116 -0.20983,0.25032 -0.21616,0.28074 -0.11107,0.53364 0.15952,0.38393 0.40782,0.67736 0.75011,0.88651 0.4036,0.24659 0.58625,0.22986 0.88014,-0.0807 z m -0.78666,0.0424 c -0.27874,-0.19524 -0.53718,-0.50127 -0.69146,-0.8188 -0.11965,-0.24626 -0.11988,-0.28217 -0.003,-0.41168 0.0705,-0.078 0.1284,-0.18289 0.1284,-0.23302 0,-0.11776 0.51668,-0.2606 0.93219,-0.25772 0.45763,0.003 0.70937,0.23063 0.70378,0.63591 -0.008,0.56969 -0.39647,1.22533 -0.72627,1.22533 -0.0793,0 -0.23403,-0.063 -0.34397,-0.14002 z m 0.5804,-0.10899 0.19135,-0.16793 -0.37213,0.0429 c -0.39207,0.0454 -0.56004,-0.039 -0.56004,-0.28134 0,-0.0751 -0.0729,-0.15553 -0.16212,-0.17885 -0.0891,-0.0233 -0.16214,-0.0242 -0.16214,-0.002 0,0.1532 0.65311,0.75272 0.82189,0.75445 0.0284,3.2e-4 0.13793,-0.0751 0.24319,-0.16739 z m 0.17921,-0.39971 c 0.0968,-0.0908 -0.23822,-0.40507 -0.43182,-0.40507 -0.18409,0 -0.4486,0.35371 -0.36529,0.48852 0.0599,0.0969 0.6732,0.0328 0.79711,-0.0835 z m 0.21356,-0.43012 c 6.1e-4,-0.0361 -0.0353,-0.0431 -0.0799,-0.0155 -0.0446,0.0275 -0.0805,0.11179 -0.0799,0.18718 8.9e-4,0.11812 0.0121,0.12026 0.0799,0.0155 0.0432,-0.0668 0.0791,-0.1511 0.0799,-0.18716 z m -1.09307,0.0182 c 0,-0.0631 -0.0821,-0.1265 -0.18238,-0.14074 -0.19678,-0.0279 -0.26355,0.18258 -0.0811,0.25558 0.15332,0.0613 0.26344,0.0133 0.26344,-0.11484 z m 0.91756,-0.22251 c 0.0168,-0.11442 -0.0169,-0.17603 -0.0965,-0.17603 -0.15763,0 -0.24052,0.13577 -0.17968,0.29433 0.066,0.17201 0.24478,0.0954 0.27622,-0.1183 z m -0.48771,-0.12473 c -0.0296,-0.20678 -0.28899,-0.27689 -0.3581,-0.0968 -0.0641,0.16706 0.10839,0.37327 0.26271,0.31406 0.0664,-0.0255 0.10898,-0.12246 0.0954,-0.21727 z m -0.60278,0.0298 c 0.0877,0 0.13542,-0.024 0.10609,-0.0533 -0.0293,-0.0293 -0.0127,-0.10228 0.037,-0.1621 0.0497,-0.0598 0.0563,-0.10879 0.0148,-0.10879 -0.098,0 -0.28746,0.16041 -0.43079,0.36477 -0.0974,0.13887 -0.0974,0.14759 -6e-5,0.0608 0.0625,-0.0557 0.18537,-0.10133 0.27304,-0.10133 z m 0.98101,-0.32831 c -0.0262,-0.0423 -0.13693,-0.0769 -0.24613,-0.0769 -0.17586,0 -0.18739,0.0179 -0.10085,0.15644 0.0752,0.12041 0.13187,0.13814 0.24614,0.077 0.0817,-0.0437 0.12701,-0.1141 0.10084,-0.15644 z m 3.03448,0.63212 c -0.48955,-1.60026 -0.33024,-2.90971 0.55795,-4.5859 l 0.40057,-0.75597 0.25831,0.31015 c 0.72574,0.87139 1.21964,2.44956 1.22169,3.9038 8.8e-4,0.56859 0.0262,0.7483 0.10238,0.72329 0.0557,-0.0184 0.11307,-0.1532 0.12743,-0.2998 0.0384,-0.39214 -0.20195,-1.80774 -0.44121,-2.59859 -0.24186,-0.79953 -0.83648,-1.99861 -1.12594,-2.27055 -0.18594,-0.17468 -0.21031,-0.17863 -0.34578,-0.0562 -0.36449,0.32984 -1.22891,2.24672 -1.54268,3.42087 -0.26933,1.00787 -0.26526,1.03439 0.30162,1.96667 0.2782,0.45749 0.53614,0.81308 0.5732,0.79017 0.037,-0.0229 -0.003,-0.26957 -0.0875,-0.54813 z m 1.49453,0.0469 c 0.54944,-0.2285 0.73489,-0.34593 0.79467,-0.50319 0.0947,-0.2491 -0.0343,-1.66318 -0.22225,-2.43692 -0.13389,-0.55108 -0.64436,-1.68451 -0.91047,-2.02163 l -0.15258,-0.19328 -0.32975,0.59858 c -0.84942,1.54198 -0.99442,2.70487 -0.54765,4.39209 0.0685,0.25852 0.12447,0.49106 0.12447,0.51675 0,0.0931 0.5419,-0.0606 1.24356,-0.3524 z m -6.99881,-0.83706 c 0,-0.0446 -0.0161,-0.0811 -0.0357,-0.0811 -0.0196,0 -0.0583,0.0365 -0.0859,0.0811 -0.0276,0.0446 -0.0115,0.0811 0.0357,0.0811 0.0472,0 0.0859,-0.0365 0.0859,-0.0811 z"
         id="path4952-2-3"
         sodipodi:nodetypes="scssssssssssssssssssssssscsssssscsssscssssssssssssssscsscsssssssssscccssssssscsssssssssscsssscsssssccsssscssssssssssssssssssssssssssssssssssssssssssssssssssssssssssssssssssssssssssssssssssscsssssssssssssssssssssssssssscsscssssssssssssssssssssssssssssscsssssssssssssssssssssssssssscssssssssscsssssssssssssssssssscscsscccsscssssssssscsssssssscssssssssssssssssssssssscsssssscssssscsssssscsssssssssssssssssssssssssssssssssssscsssssssssssssssssssssssssssssssscsssccssscsssssssssssccssssssssssssscscsscsscssssssssssssssssssssssssssssssssssssssssssscsssssssssscsssscssssssssssssssssscssssscssssssccsssscssssssssssccccssssssssssssssssssssssssssscsssscsscssssssssscsssssssssssssssscscssssccccsssssccsssscscscssssssssssssssssssssssssscscscsssssssscsssscsssssssss" />
      <circle
         style="fill:none;stroke:#ff0000;stroke-width:0.1;stroke-dasharray:none"
         id="path788-8-1-8-1-9-2-9-3-7-7"
         cx="-238.18098"
         cy="-106.95108"
         r="19.954653" />
      <ellipse
         style="fill:none;stroke:#ff00ff;stroke-width:0.1;stroke-dasharray:none;stroke-opacity:1"
         id="path1138-9-4-0-0-1-2-25-0-9-2"
         cx="-238.18098"
         cy="-106.95108"
         rx="18.492125"
         ry="18.492126" />
      <circle
         style="fill:none;stroke:#0000ff;stroke-width:0.1;stroke-linecap:round;stroke-dasharray:none;stroke-opacity:1;paint-order:markers stroke fill"
         id="path13019-1-33-5-7-7-8"
         cx="-238.181"
         cy="-121.96208"
         r="2" />
    </g>
  </g>
</svg>
