<?xml version="1.0" encoding="UTF-8" standalone="no"?>
<!-- Created with Inkscape (http://www.inkscape.org/) -->

<svg
   width="41.008999mm"
   height="41.008999mm"
   viewBox="0 0 41.008999 41.008999"
   version="1.1"
   id="svg1"
   inkscape:version="1.4.2 (f4327f4, 2025-05-13)"
   sodipodi:docname="153.svg"
   xmlns:inkscape="http://www.inkscape.org/namespaces/inkscape"
   xmlns:sodipodi="http://sodipodi.sourceforge.net/DTD/sodipodi-0.dtd"
   xmlns="http://www.w3.org/2000/svg"
   xmlns:svg="http://www.w3.org/2000/svg">
  <sodipodi:namedview
     id="namedview1"
     pagecolor="#ffffff"
     bordercolor="#000000"
     borderopacity="0.25"
     inkscape:showpageshadow="2"
     inkscape:pageopacity="0.0"
     inkscape:pagecheckerboard="0"
     inkscape:deskcolor="#d1d1d1"
     inkscape:document-units="mm"
     inkscape:zoom="1.5878906"
     inkscape:cx="108.3198"
     inkscape:cy="200.26568"
     inkscape:window-width="1050"
     inkscape:window-height="1081"
     inkscape:window-x="3737"
     inkscape:window-y="0"
     inkscape:window-maximized="0"
     inkscape:current-layer="layer1" />
  <defs
     id="defs1" />
  <g
     inkscape:label="Layer 1"
     inkscape:groupmode="layer"
     id="layer1"
     transform="translate(-0.7937635,-0.79375582)">
    <g
       id="g11336"
       transform="translate(217.44904,128.35111)">
      <path
         style="fill:#000000;stroke-width:0.1;stroke-dasharray:none"
         d="m -198.3643,-90.16034 c -0.65243,-0.15638 -0.79148,-0.34896 -0.85083,-1.17838 l -0.0444,-0.6206 -0.7828,0.0507 c -1.03633,0.0671 -1.19199,-0.0293 -1.46507,-0.90729 -0.23526,-0.75644 -0.27208,-2.01791 -0.0785,-2.69029 0.15996,-0.55555 0.66883,-1.12704 1.55892,-1.75074 0.38985,-0.27317 0.69478,-0.5224 0.67765,-0.55384 -0.0172,-0.0313 -0.12211,-0.24956 -0.23328,-0.48469 -0.18224,-0.38545 -0.23198,-0.42754 -0.50538,-0.42754 -0.24509,0 -0.35669,-0.0674 -0.58195,-0.35189 -0.53125,-0.67075 -0.69092,-1.5253 -0.38021,-2.03482 0.0911,-0.14936 0.18668,-0.4585 0.21245,-0.68699 l 0.0467,-0.41544 -0.39433,-0.0541 c -0.61667,-0.0845 -0.8849,-0.27577 -1.37281,-0.9789 -0.24935,-0.3593 -0.65783,-0.82836 -0.90776,-1.04234 -0.50754,-0.43456 -0.83614,-1.00885 -1.04607,-1.82832 -0.18539,-0.72361 -0.11048,-1.1245 0.24715,-1.32268 0.24893,-0.13794 0.26678,-0.17957 0.21881,-0.51021 -0.0288,-0.19802 -0.0783,-1.01596 -0.11013,-1.81764 l -0.0579,-1.4576 -0.63889,0.0146 c -0.69724,0.016 -1.07409,-0.12367 -1.46135,-0.54152 -0.27357,-0.29518 -0.26861,-0.59554 0.0195,-1.17345 0.38808,-0.77876 1.21975,-1.31131 2.22567,-1.42514 l 0.52254,-0.059 0.30044,-0.59534 c 0.60171,-1.19234 1.41085,-1.70048 2.84559,-1.78702 0.99747,-0.0601 1.97294,0.13528 3.10175,0.62144 0.96261,0.41458 1.40973,0.82282 1.89821,1.73318 l 0.27488,0.51229 0.3781,-0.4901 c 0.85038,-1.10225 1.89933,-1.85807 2.40315,-1.73162 0.3872,0.0971 0.60992,0.79885 0.72112,2.27172 0.0573,0.7606 0.0492,0.8216 -0.12771,0.9455 -0.16772,0.11747 -0.17856,0.17048 -0.0961,0.46936 0.17213,0.62343 -0.14851,1.40528 -1.01037,2.4636 -1.04976,1.28906 -1.10703,1.53102 -0.48333,2.04209 0.56067,0.45944 0.66296,0.66895 0.42186,0.86418 l -0.18702,0.15146 0.26298,0.25195 c 0.14463,0.13857 0.30692,0.38509 0.36062,0.54782 0.0537,0.16273 0.16603,0.31669 0.2496,0.34213 0.0836,0.0255 0.99879,0.2505 2.03382,0.50013 1.03503,0.24964 1.93361,0.49681 1.99685,0.54931 0.0632,0.0525 0.14198,0.2183 0.17497,0.36852 l 0.06,0.27309 0.32833,-0.31368 c 0.39539,-0.37774 0.70254,-0.54604 0.8754,-0.47971 0.14869,0.0571 0.17094,0.52633 0.0368,0.77695 -0.0723,0.1351 -0.0537,0.19035 0.0901,0.26726 0.39564,0.21174 0.0968,1.00985 -0.60331,1.61137 -0.45293,0.38913 -1.70731,1.08943 -1.95138,1.08943 -0.10513,0 -0.0408,0.14959 0.24178,0.56255 0.52027,0.76032 1.00127,2.36782 1.18794,3.97006 0.06,0.51434 0.0797,0.54543 0.8057,1.2649 0.91003,0.90188 1.15985,1.43232 1.16935,2.48306 0.007,0.80587 -0.2042,1.29718 -0.67771,1.57438 -0.26092,0.15274 -0.49273,0.18212 -1.56633,0.19851 -1.79482,0.0274 -2.12794,-0.10429 -2.29029,-0.90539 -0.15093,-0.74472 0.056,-1.45204 0.54963,-1.8787 l 0.38891,-0.33613 -0.16092,-0.2489 c -0.33382,-0.51621 -0.53746,-1.08521 -0.67855,-1.89589 l -0.14564,-0.83694 -0.36168,0.0579 c -0.51781,0.083 -0.73347,0.25118 -1.00181,0.78071 -0.21292,0.42017 -0.23067,0.52994 -0.17814,1.10095 0.0322,0.34885 0.0829,1.14965 0.11267,1.77956 0.0783,1.65141 -0.0481,1.85341 -1.22234,1.95495 l -0.57784,0.05 -0.0971,0.40219 c -0.11329,0.46878 -0.44852,0.7404 -1.17162,0.94928 -0.57672,0.1666 -2.74965,0.14527 -3.49897,-0.0343 z m 1.04114,-1.03493 c -0.0465,-0.91329 0.0122,-1.58739 0.13859,-1.58721 0.0349,4e-5 0.0635,0.4897 0.0635,1.08811 0,1.05174 0.007,1.09411 0.22502,1.27106 0.19819,0.1612 0.30798,0.17669 0.92108,0.1299 0.87542,-0.0668 1.68862,-0.37419 1.8432,-0.69671 0.16316,-0.34041 0.34842,-2.42442 0.22245,-2.50228 -0.0543,-0.0336 -0.15732,-0.20034 -0.2289,-0.37059 l -0.13018,-0.30958 -0.19765,0.33498 c -0.10868,0.18423 -0.22948,0.33498 -0.26839,0.33498 -0.0389,0 -0.14115,-0.10742 -0.22716,-0.23869 l -0.1564,-0.23868 -0.14482,0.23868 c -0.0796,0.13127 -0.17114,0.23869 -0.2033,0.23869 -0.0321,0 -0.1666,-0.14176 -0.29876,-0.31503 -0.27473,-0.36018 -0.40661,-0.38863 -0.63445,-0.13688 -0.17928,0.19811 -0.18595,0.19291 0.45908,0.35776 0.366,0.0936 0.84433,0.39912 0.84433,0.53942 0,0.0396 -0.15281,-0.004 -0.33955,-0.0958 -0.7438,-0.368 -1.86454,-0.42755 -2.44059,-0.12965 -0.31367,0.1622 -0.46032,0.65764 -0.45959,1.55267 8.9e-4,1.11273 0.18884,1.44685 0.82236,1.46204 l 0.23782,0.005 z m -1.25879,-0.1697 c -0.0244,-0.6227 0.005,-1.07725 0.0925,-1.3985 0.15334,-0.56734 0.0216,-0.59834 -0.25178,-0.0591 -0.25584,0.50471 -0.26134,1.9115 -0.008,2.19081 0.0943,0.10429 0.17879,0.18946 0.18774,0.18946 0.008,0 0,-0.41515 -0.0198,-0.92256 z m 11.96653,-0.20607 c 0.49106,-0.32349 0.64391,-0.67776 0.58135,-1.34751 -0.067,-0.71682 -0.37237,-1.52256 -0.66417,-1.7521 -0.32118,-0.25264 -0.38721,-0.22995 -0.38721,0.13296 0,0.30711 -0.008,0.31502 -0.35719,0.31502 -0.4559,0 -0.41082,0.18852 0.0924,0.38616 0.19517,0.0767 0.35485,0.1846 0.35485,0.23983 0,0.0721 -0.0559,0.0705 -0.19836,-0.005 -0.32846,-0.17579 -1.08035,-0.34802 -1.52429,-0.34915 -0.58893,-8.9e-4 -0.77818,0.18337 -0.89918,0.87835 -0.1878,1.07877 0.093,1.73077 0.74556,1.73077 0.23943,0 0.25438,-0.0191 0.19252,-0.24752 -0.18326,-0.67631 -0.004,-2.09264 0.2642,-2.09264 0.0508,0 0.0591,0.0673 0.0196,0.15751 -0.038,0.0866 -0.0862,0.44103 -0.1073,0.78756 -0.0335,0.55075 -0.0115,0.66951 0.1746,0.94375 0.11708,0.17254 0.31294,0.36627 0.43521,0.43052 0.30039,0.15785 0.86072,0.0667 1.27736,-0.20776 z m -3.24498,-0.8107 c -0.0163,-0.37383 0.0119,-0.7992 0.0628,-0.94529 0.14019,-0.40214 -0.0376,-0.31799 -0.2033,0.0963 -0.18366,0.45901 -0.18581,1.06963 -0.004,1.32824 0.0771,0.11002 0.14795,0.20013 0.15751,0.20025 0.009,1e-4 0.004,-0.30564 -0.0124,-0.67945 z m -3.0715,0.49848 c 0.74541,-0.14137 0.80629,-0.23592 0.80512,-1.25078 -9e-4,-1.19442 -0.0682,-1.55741 -0.27449,-1.49192 -0.1004,0.0319 -0.19605,-0.009 -0.2537,-0.1103 -0.0864,-0.15068 -0.1025,-0.14745 -0.24184,0.0483 -0.1114,0.15642 -0.20395,0.19602 -0.36421,0.1558 -0.25106,-0.063 -0.28637,0.0906 -0.0827,0.35983 0.16927,0.22378 0.17234,0.3173 0.008,0.25437 -0.15267,-0.0585 -0.19949,0.17659 -0.26638,1.33794 -0.0508,0.88316 -0.0913,0.84114 0.6699,0.69679 z m -7.60947,-0.3732 c -0.20023,-0.10951 -0.40504,-0.34009 -0.40504,-0.45601 0,-0.0415 0.11139,0.006 0.24753,0.10651 0.29971,0.22039 0.9702,0.32283 1.29393,0.19771 0.14863,-0.0575 0.31266,-0.24899 0.44198,-0.51613 0.13754,-0.28413 0.29024,-0.45671 0.46119,-0.52124 0.14056,-0.053 0.25556,-0.14962 0.25556,-0.21458 0,-0.20172 -0.36427,-1.22194 -0.55035,-1.54138 -0.20672,-0.35486 -0.15814,-0.47009 0.0998,-0.23667 0.0992,0.0899 0.18058,0.12472 0.18058,0.0774 0,-0.13944 -0.20346,-0.30196 -0.37804,-0.30196 -0.11969,0 -0.16201,-0.0698 -0.16201,-0.2678 0,-0.25025 -0.015,-0.26204 -0.23086,-0.18001 -0.33187,0.12617 -0.39919,0.11044 -0.39919,-0.0933 0,-0.16161 -0.0396,-0.17473 -0.36918,-0.12205 -0.26497,0.0424 -0.39048,0.0246 -0.44453,-0.063 -0.10753,-0.17399 -0.40293,0.11192 -0.70361,0.681 -0.21705,0.41076 -0.23721,0.53639 -0.23109,1.44009 0.009,1.37514 0.30488,2.11867 0.8398,2.11241 0.2191,-0.004 0.22242,-0.008 0.0536,-0.10125 z m 3.48016,-1.51617 c 0.29534,0 0.34076,-0.0316 0.42006,-0.29253 0.0489,-0.16088 0.1111,-0.70767 0.13823,-1.21508 l 0.0494,-0.92256 h -0.30612 c -0.2451,0 -0.43276,0.10924 -0.9413,0.54804 -0.34935,0.30141 -0.63516,0.57204 -0.63516,0.60141 0,0.0294 0.0844,0.36623 0.18757,0.74859 l 0.1876,0.69523 0.28435,-0.0815 c 0.15638,-0.0448 0.43335,-0.0815 0.61548,-0.0815 z m 2.11111,-0.2598 c 0.11738,0.11028 0.22669,0.18347 0.24292,0.16265 0.0162,-0.0208 0.1204,-0.1695 0.23151,-0.33039 0.22342,-0.32356 0.36806,-0.37592 0.37292,-0.13501 0.004,0.21449 0.22923,0.60623 0.2908,0.50658 0.0894,-0.1446 0.15233,-4.11925 0.0718,-4.53109 -0.18186,-0.92971 -1.04021,-0.97871 -1.83004,-0.1045 -0.56099,0.62097 -0.61599,0.80461 -0.70114,2.34123 -0.11125,2.00735 -0.1133,1.94603 0.06,1.80214 0.1252,-0.10398 0.18308,-0.077 0.42754,0.19971 l 0.28271,0.31989 0.16875,-0.21586 0.16875,-0.21586 z m 6.90242,-0.17615 c 0.0401,-0.007 0.0478,-0.0547 0.0171,-0.10408 -0.034,-0.0549 0.10407,-0.0901 0.35471,-0.0901 0.40897,0 0.41035,-9e-4 0.41035,-0.31502 0,-0.25179 0.0352,-0.31502 0.17461,-0.31502 0.13259,0 0.0597,-0.10874 -0.30293,-0.45167 -0.46092,-0.43592 -0.48138,-0.47588 -0.58734,-1.14757 -0.40123,-2.54336 -0.99388,-4.01832 -1.7761,-4.42018 -0.44175,-0.22695 -0.49271,-0.11739 -0.16615,0.35734 0.1734,0.25208 0.36084,0.62673 0.41653,0.83255 0.14131,0.52228 0.0519,1.29459 -0.21086,1.81996 -0.12221,0.24442 -0.24804,0.55184 -0.27959,0.68316 -0.0968,0.40261 0.17865,1.68157 0.4998,2.32063 0.37375,0.74378 0.75804,0.96375 1.44979,0.82992 z m -4.64447,-0.82414 c 0.0533,0 0.12383,0.0696 0.15654,0.15498 0.095,0.24772 0.2268,-0.038 0.22842,-0.49539 6.9e-4,-0.21199 0.06,-0.52573 0.13167,-0.69724 l 0.13027,-0.3118 -0.42207,0.22469 c -0.23216,0.12358 -0.50545,0.22468 -0.60732,0.22468 -0.10186,0 -0.23384,0.0487 -0.29324,0.10803 -0.15472,0.15471 -0.13323,0.71598 0.0367,0.9586 l 0.14472,0.20661 0.19861,-0.18657 c 0.10923,-0.10261 0.24229,-0.18659 0.29569,-0.18659 z m -4.81648,-1.13926 c 0.14629,-0.16211 0.12914,-0.18115 -0.41961,-0.46566 -0.31469,-0.16315 -0.71165,-0.43213 -0.88216,-0.59773 l -0.31001,-0.30107 -0.64146,0.4193 c -0.78182,0.51104 -0.83907,0.69243 -0.19446,0.61609 0.35799,-0.0424 0.45003,-0.0265 0.45003,0.0774 0,0.15354 0.0844,0.16264 0.39916,0.043 0.22038,-0.0838 0.23088,-0.0736 0.23088,0.22502 0,0.27665 0.027,0.31279 0.23344,0.31279 0.15747,0 0.24871,0.0583 0.28035,0.17938 0.0445,0.17021 0.0637,0.1661 0.3741,-0.0801 0.17996,-0.14272 0.39583,-0.33553 0.47974,-0.4285 z m 4.86889,-0.13382 c 0.45041,-0.2294 0.96397,-0.60874 0.96397,-0.71203 0,-0.0405 -0.13163,-0.0866 -0.29251,-0.1024 -0.2288,-0.0225 -0.37199,0.04 -0.65731,0.28681 -0.20063,0.17354 -0.48415,0.40442 -0.63005,0.51305 l -0.26525,0.19752 0.25111,0.005 c 0.1381,0.004 0.42162,-0.0819 0.63004,-0.18799 z m -3.80635,-0.25485 c 0,-0.0483 -0.0808,-0.22045 -0.17968,-0.38253 -0.66242,-1.08647 0.75064,-3.03989 2.19898,-3.03989 0.42533,0 0.85971,0.24353 1.16181,0.65133 0.27592,0.37248 0.30773,1.18021 0.0685,1.73979 -0.20732,0.48502 -0.30137,1.02912 -0.1779,1.02912 0.0429,0 0.24008,-0.14647 0.43823,-0.32549 0.24235,-0.21894 0.36027,-0.40116 0.36027,-0.55664 0,-0.12712 0.0666,-0.46861 0.14807,-0.75886 0.14336,-0.51088 0.15629,-0.52592 0.40504,-0.47128 0.21568,0.0473 0.25696,0.0276 0.25696,-0.12337 0,-0.0988 0.0214,-0.23578 0.0477,-0.3042 0.03,-0.0781 -0.0647,-0.17802 -0.25421,-0.26839 -0.30059,-0.14334 -0.30184,-0.14658 -0.27668,-0.71552 0.023,-0.52159 0.0419,-0.56957 0.21495,-0.54908 0.18929,0.0224 0.18925,0.0218 -0.0185,-0.34927 -0.25623,-0.45738 -0.55621,-0.71695 -1.99199,-1.72365 l -1.12725,-0.79037 -0.43493,0.43493 c -0.34918,0.34917 -0.64781,0.52453 -1.51472,0.88945 -0.59388,0.25 -1.3549,0.54547 -1.69118,0.6566 -0.47704,0.15765 -0.59024,0.22756 -0.51512,0.31807 0.1473,0.17749 0.22017,1.24632 0.1071,1.5707 -0.11831,0.33936 -0.043,0.57529 0.39264,1.23197 0.37613,0.56682 1.1396,1.27497 1.77199,1.64361 0.51152,0.29816 0.60993,0.3293 0.60993,0.19297 z m -1.39986,-0.39685 c -0.4669,-0.31442 -1.02405,-0.96848 -1.42721,-1.67548 -0.20256,-0.35519 -0.23112,-0.37674 -0.23205,-0.17512 -9e-4,0.28816 0.40761,0.92902 0.86505,1.35553 0.39292,0.36634 1.01948,0.79974 1.15619,0.79974 0.0497,0 -0.11317,-0.13709 -0.36198,-0.30467 z m 1.84671,-1.44584 c 0.33365,-0.48495 0.75351,-0.84367 1.06769,-0.91222 0.13232,-0.0288 0.2882,-0.067 0.34637,-0.0845 0.21627,-0.0655 0.74706,0.15092 0.92518,0.37738 0.14246,0.1811 0.18473,0.36876 0.18685,0.82947 0.002,0.48054 0.022,0.56219 0.10272,0.42325 0.16189,-0.27888 0.13488,-1.07256 -0.0459,-1.34845 -0.40905,-0.62428 -1.19251,-0.76729 -1.86452,-0.34032 -0.81368,0.51698 -1.25959,1.22034 -1.24929,1.97053 l 0.006,0.43042 0.12871,-0.47828 c 0.0708,-0.26304 0.24913,-0.65329 0.39629,-0.86719 z m 5.04353,0.94046 c 0.099,-0.0989 0.18001,-0.27797 0.18001,-0.39768 0,-0.11971 0.0264,-0.28643 0.0586,-0.37049 0.0502,-0.13081 0.0316,-0.13836 -0.1291,-0.0524 -0.26832,0.1436 -0.75594,0.12401 -0.98976,-0.0397 -0.26214,-0.1836 -0.33169,-0.12835 -0.47278,0.37551 -0.10743,0.38373 -0.10313,0.43048 0.0499,0.54236 0.26609,0.19457 1.08722,0.15829 1.30309,-0.0576 z m 0.75483,-0.2743 c 0.25647,-0.30479 0.50526,-1.04033 0.50526,-1.49379 0,-0.16242 -0.084,-0.51968 -0.18656,-0.79391 -0.18875,-0.50449 -0.82101,-1.39828 -0.98913,-1.39828 -0.0503,0 -0.004,0.0911 0.10345,0.20251 0.10716,0.11139 0.30112,0.42528 0.43103,0.69755 0.1993,0.41768 0.23554,0.61459 0.23191,1.26009 -0.004,0.65037 -0.0407,0.83543 -0.24752,1.23459 -0.13376,0.25825 -0.24321,0.49113 -0.24321,0.51753 0,0.12771 0.18725,0.0205 0.39481,-0.22629 z m -0.17008,-0.87538 c 0.0303,-0.23399 0.0744,-0.5183 0.0979,-0.63178 0.0417,-0.2013 0.0372,-0.2027 -0.18493,-0.0572 -0.22735,0.14896 -0.31647,0.48851 -0.12822,0.48851 0.0614,0 0.0865,0.13488 0.0659,0.35246 -0.0473,0.4961 0.0826,0.36394 0.14943,-0.15203 z m -0.60276,0.14159 c 0.0594,-0.0594 0.10802,-0.24166 0.10802,-0.40502 0,-0.23278 -0.0373,-0.29701 -0.17265,-0.29701 -0.0949,0 -0.23425,-0.0237 -0.30954,-0.0525 -0.10145,-0.0389 -0.15254,0.0309 -0.19726,0.26934 -0.0332,0.17703 -0.037,0.38293 -0.008,0.45757 0.0623,0.16216 0.4278,0.17961 0.57974,0.0277 z m -8.89019,-0.81455 c 0.25062,-0.55213 0.2411,-1.42899 -0.0193,-1.78127 -0.19766,-0.26736 -0.59811,-0.35899 -0.855,-0.19566 -0.28811,0.18321 -0.38416,0.98992 -0.17678,1.48479 0.15982,0.38138 0.5806,0.87467 0.74609,0.87467 0.0721,0 0.20954,-0.17214 0.30504,-0.38253 z m -0.80594,-0.21465 c -0.18296,-0.23259 -0.26893,-0.93293 -0.11454,-0.93293 0.12425,0 0.28802,0.20949 0.28802,0.36841 0,0.17374 0.23687,0.29808 0.31795,0.1669 0.0295,-0.0479 0.0292,-0.16411 -6.9e-4,-0.25852 -0.03,-0.0944 -0.0123,-0.19768 0.0392,-0.22951 0.0515,-0.0318 0.0937,0.007 0.0937,0.0877 0,0.0877 0.0416,0.11991 0.10461,0.0809 0.0715,-0.0442 0.0401,-0.11689 -0.1,-0.23034 -0.24679,-0.19984 -0.34195,-0.20851 -0.38057,-0.0347 -0.0242,0.10886 -0.0652,0.10367 -0.24229,-0.0309 -0.17931,-0.13619 -0.1972,-0.19184 -0.11261,-0.34991 0.0554,-0.10345 0.18087,-0.21345 0.27897,-0.24458 0.20982,-0.0666 0.64636,0.21463 0.58839,0.37905 -0.0213,0.0602 8e-5,0.13357 0.0475,0.16283 0.15698,0.097 0.0992,0.8128 -0.0785,0.9737 -0.20842,0.1886 -0.26226,0.18712 -0.3134,-0.008 -0.0254,-0.0969 -0.0452,-0.0623 -0.0517,0.0901 -0.013,0.31089 -0.12501,0.31408 -0.36392,0.0106 z m 0.21463,-0.11664 c 0.0285,-0.0461 0.0106,-0.10923 -0.0396,-0.14033 -0.0503,-0.0311 -0.0914,0.006 -0.0914,0.0838 0,0.1581 0.054,0.18137 0.13115,0.0565 z m 0.58889,-0.29828 c 0,-0.0502 -0.0596,-0.0404 -0.13501,0.0221 -0.0742,0.0617 -0.135,0.15256 -0.135,0.20206 0,0.0502 0.0596,0.0404 0.135,-0.0222 0.0743,-0.0617 0.13501,-0.15256 0.13501,-0.20205 z m -0.83858,-0.17486 c -0.0288,-0.0718 -0.0501,-0.0505 -0.0544,0.0544 -0.004,0.0948 0.0174,0.14805 0.0473,0.11814 0.0299,-0.0299 0.033,-0.10754 0.007,-0.17251 z m 0.20854,-0.66347 c 0,-0.0772 -0.0412,-0.11488 -0.0914,-0.0838 -0.0503,0.0311 -0.0682,0.0942 -0.0397,0.14033 0.0772,0.12484 0.13118,0.10166 0.13118,-0.0565 z m 0.36003,-0.0847 c -0.0617,-0.0742 -0.15256,-0.135 -0.20206,-0.135 -0.0502,0 -0.0405,0.0596 0.022,0.135 0.0617,0.0742 0.15257,0.13501 0.20206,0.13501 0.0502,0 0.0404,-0.0597 -0.0221,-0.13501 z m 0.62275,1.29986 c 0.0536,-0.24952 0.0972,-0.66737 0.0972,-0.92857 0,-0.40474 -0.0365,-0.50716 -0.24688,-0.69311 -0.20343,-0.17982 -0.21793,-0.18379 -0.0824,-0.0228 0.0905,0.10753 0.18526,0.35055 0.21066,0.54002 0.0444,0.33213 -0.067,1.1507 -0.20518,1.50687 -0.0444,0.11465 -0.0341,0.15201 0.0312,0.1117 0.0539,-0.0332 0.14181,-0.26472 0.19531,-0.51424 z m 8.90618,-0.32489 c -0.0431,-0.23107 -0.0885,-0.42902 -0.10083,-0.43992 -0.0123,-0.0109 -0.31791,-0.0359 -0.67907,-0.0555 l -0.6567,-0.0358 0.0266,0.40458 c 0.0307,0.46701 0.13267,0.52279 0.98259,0.53787 l 0.50592,0.008 -0.0785,-0.42013 z m -0.48977,-0.95035 c -0.18525,-0.58362 -0.61581,-0.96968 -1.08149,-0.96968 h -0.22442 l 0.221,0.23833 c 0.12153,0.13107 0.29133,0.39435 0.37733,0.58505 0.13712,0.30408 0.19412,0.34671 0.46375,0.34671 0.27688,0 0.30111,-0.0199 0.24383,-0.20041 z m 0.25982,-0.1521 c -0.13934,-0.19387 -0.26219,-0.34368 -0.27299,-0.3329 -0.0636,0.0635 0.30334,0.68541 0.40424,0.68541 0.0804,0 0.0357,-0.12025 -0.13125,-0.35251 z m 1.77395,-0.48639 c 1.04964,-0.43186 2.42801,-1.6137 2.42801,-2.08185 0,-0.12263 -0.27203,-0.0252 -0.72303,0.25926 -0.2693,0.16981 -0.51044,0.28722 -0.53586,0.26092 -0.0254,-0.0263 0.12194,-0.19562 0.32746,-0.37624 0.60346,-0.53037 0.96197,-1.27347 0.61439,-1.27347 -0.17722,0 -0.92011,0.6846 -1.08144,0.99659 -0.0685,0.1325 -0.1674,0.50893 -0.21973,0.83653 -0.13129,0.82188 -0.24665,1.04707 -0.53638,1.04707 -0.12954,0 -0.33485,0.0708 -0.45623,0.15751 -0.12138,0.0866 -0.32278,0.20485 -0.44756,0.2627 -0.44207,0.205 0.10283,0.12805 0.63037,-0.089 z m -0.96974,0.0591 c -0.0619,-0.0249 -0.16313,-0.0249 -0.22501,0 -0.0619,0.0249 -0.0113,0.0454 0.1125,0.0454 0.12376,0 0.17439,-0.0205 0.11251,-0.0454 z m -8.09515,-0.58195 c 1.67341,-0.66594 2.58227,-1.20018 2.58227,-1.51787 0,-0.30233 -0.17809,-0.29406 -0.8093,0.0377 -0.78398,0.41198 -1.61488,0.72965 -2.70095,1.03266 -0.81353,0.22697 -0.85653,0.25134 -0.88528,0.5019 -0.0193,0.16809 0.0234,0.30249 0.1178,0.37157 0.18238,0.13335 0.47461,0.06 1.69546,-0.42589 z m -2.37871,0.12402 c -0.0106,-0.33186 -0.0117,-0.33299 -0.0739,-0.0674 -0.06,0.25573 -0.0434,0.40503 0.0448,0.40503 0.0219,0 0.0349,-0.15188 0.029,-0.33752 z m 10.95169,0.20536 c 0.0961,-0.0726 0.14743,-0.13342 0.1141,-0.135 -0.0332,-0.002 -0.9005,-0.18635 -1.927,-0.4106 -1.02652,-0.22425 -1.90353,-0.39536 -1.94891,-0.38022 -0.0454,0.0152 0.0992,0.1581 0.3216,0.31772 0.30005,0.21548 0.50038,0.29023 0.77786,0.29023 0.20555,0 0.46221,0.0506 0.57033,0.1125 0.17086,0.0978 1.18135,0.28731 1.73199,0.32489 0.10198,0.007 0.26393,-0.0468 0.36003,-0.11952 z m -10.58102,-0.22787 c 0,-0.1485 -0.0405,-0.27002 -0.0901,-0.27002 -0.0496,0 -0.0901,0.12152 -0.0901,0.27002 0,0.14852 0.0405,0.27002 0.0901,0.27002 0.0496,0 0.0901,-0.1215 0.0901,-0.27002 z m 11.55492,-0.33752 c 0.0254,-0.0867 0.0721,-0.31951 0.10398,-0.51754 0.0317,-0.19801 0.0772,-0.43091 0.10092,-0.51754 0.0391,-0.1428 -0.0457,-0.15751 -0.91074,-0.15751 -0.92733,0 -0.98717,-0.0126 -2.14371,-0.45195 -0.65437,-0.24857 -1.25575,-0.48886 -1.3364,-0.534 -0.12746,-0.0713 -0.15894,0.0142 -0.2406,0.65388 -0.0517,0.40478 -0.087,0.74155 -0.0784,0.74838 0.0521,0.0415 4.10195,0.92342 4.26231,0.92807 0.11291,0.004 0.21611,-0.0614 0.24271,-0.15179 z m -2.12865,-0.077 c -0.0299,-0.0299 -0.10754,-0.033 -0.17252,-0.007 -0.0718,0.0288 -0.0505,0.0501 0.0544,0.0544 0.0948,0.004 0.14804,-0.0173 0.11813,-0.0473 z m -0.40315,-0.0952 c -0.0619,-0.0249 -0.16314,-0.0249 -0.22502,0 -0.0619,0.0249 -0.0113,0.0454 0.11251,0.0454 0.12376,0 0.17439,-0.0205 0.11251,-0.0454 z m -0.4069,-0.0847 c -0.0299,-0.0299 -0.10754,-0.0331 -0.17252,-0.007 -0.0718,0.0288 -0.0505,0.0501 0.0544,0.0544 0.0949,0.004 0.14803,-0.0173 0.11813,-0.0473 z m -8.79624,-0.13333 c 0.22276,-0.0514 0.57844,-0.22841 0.79038,-0.39353 0.41253,-0.32138 0.63409,-0.4186 2.58486,-1.13435 0.69304,-0.25427 1.54858,-0.62034 1.9012,-0.81346 0.67437,-0.36936 0.89431,-0.4242 0.95698,-0.23864 0.021,0.0619 0.10806,-0.0225 0.19372,-0.1875 0.12191,-0.23493 0.13584,-0.35701 0.0642,-0.56255 -0.0768,-0.22023 -0.0678,-0.26252 0.0555,-0.26252 0.0808,0 0.2429,0.0901 0.36008,0.20015 0.17637,0.16569 0.22673,0.17806 0.29238,0.0718 0.15323,-0.24791 0.0337,-0.72498 -0.25692,-1.02473 -0.30409,-0.31375 -0.36284,-0.46762 -0.1469,-0.38474 0.26434,0.10145 0.13956,-0.33063 -0.18001,-0.62334 -0.51423,-0.47102 -0.458,-0.71433 0.44733,-1.93585 1.02918,-1.38867 1.17293,-1.69085 1.15112,-2.41993 -0.0128,-0.42396 0.0213,-0.62405 0.12578,-0.73943 0.12628,-0.13954 0.13099,-0.27437 0.04,-1.14387 -0.11861,-1.13283 -0.22649,-1.50624 -0.47334,-1.63836 -0.40848,-0.2186 -1.45703,0.63688 -2.52322,2.05862 -0.44129,0.58846 -0.56346,0.99344 -0.50702,1.68082 0.0289,0.35151 0.0242,0.35752 -0.33075,0.42414 -0.198,0.0371 -0.58279,0.0442 -0.85505,0.0155 l -0.49504,-0.052 0.37193,0.32327 c 0.58643,0.50971 0.84282,1.39583 0.71042,2.45545 -0.12329,0.98681 -0.90959,1.4151 -2.61246,1.42301 -0.79082,0.004 -0.93422,-0.0201 -1.1815,-0.19658 -0.41038,-0.29274 -0.60654,-0.76796 -0.64701,-1.56753 -0.0398,-0.78568 0.1371,-1.54369 0.48467,-2.07731 0.28357,-0.43538 0.5579,-0.60825 1.09068,-0.68734 l 0.43318,-0.0643 -0.62241,-0.15879 c -0.34232,-0.0873 -1.05798,-0.20435 -1.59037,-0.26001 -1.19371,-0.1248 -1.73539,-0.0247 -2.48398,0.45949 -0.71271,0.46088 -0.83864,0.60426 -0.83864,0.9549 0,0.29338 0.006,0.29839 0.25675,0.20386 0.28065,-0.10595 0.59895,-0.0341 0.50715,0.11445 -0.0317,0.0512 -0.20639,0.16311 -0.38824,0.24858 l -0.33065,0.1554 -0.0263,0.74977 c -0.0176,0.50304 0.004,0.73069 0.0674,0.6918 0.0515,-0.0319 0.0939,-0.14669 0.0941,-0.25515 6.9e-4,-0.29268 0.32424,-0.76991 0.56292,-0.82982 0.28493,-0.0714 0.65791,0.0845 0.83003,0.3472 0.21171,0.3231 0.26703,1.02972 0.11485,1.46684 l -0.12929,0.37137 0.91536,0.0407 c 0.72003,0.032 1.00884,0.086 1.35343,0.25277 0.52719,0.25521 0.40974,0.33141 -0.22175,0.14388 -0.25142,-0.0747 -0.81119,-0.16343 -1.24396,-0.19727 l -0.78683,-0.0616 0.24417,0.19581 c 0.59592,0.47784 0.27395,1.8699 -0.47028,2.03337 -0.14791,0.0324 -0.26892,0.0989 -0.26892,0.14783 0,0.16711 0.20132,0.48198 0.52395,0.81948 0.2918,0.30526 0.36731,0.33753 0.78992,0.33753 0.51712,0 1.48246,-0.26899 2.10637,-0.58693 0.67158,-0.34224 1.17139,-0.74502 1.11306,-0.89702 -0.0838,-0.21874 0.11289,-0.15666 0.27168,0.0856 0.18082,0.27594 0.18375,0.35217 0.0111,0.2859 -0.0789,-0.0302 -0.36678,0.12401 -0.69754,0.37377 -0.30977,0.23392 -0.8265,0.5451 -1.14826,0.69152 -0.51865,0.23601 -0.70497,0.27019 -1.64174,0.30112 l -1.05668,0.0349 0.36788,0.52444 c 0.52358,0.74643 1.02501,0.92685 1.97051,0.70905 z m -0.22806,-3.59747 c -0.0764,-0.12348 0.12377,-0.27524 0.31807,-0.24124 0.0742,0.0129 0.135,0.0838 0.135,0.15739 0,0.16318 -0.36257,0.23028 -0.45307,0.0838 z m -0.64179,-0.40616 c -0.0297,-0.0776 -0.009,-0.18522 0.044,-0.23921 0.12994,-0.12995 0.38443,0.073 0.31579,0.25184 -0.0659,0.17159 -0.29218,0.16363 -0.35982,-0.0126 z m 0.6417,-0.13403 c -0.07,-0.11324 0.12548,-0.2803 0.27316,-0.23348 0.0496,0.0157 0.0901,0.0854 0.0901,0.15481 0,0.15926 -0.27637,0.21912 -0.36316,0.0788 z m 6.4697,-3.37387 c -0.0306,-0.0797 -0.0344,-0.4862 -0.008,-0.9032 0.026,-0.41701 0.0215,-0.75691 -0.0106,-0.75534 -0.0315,0.002 -0.13617,0.0624 -0.23226,0.13501 -0.21157,0.16002 -0.51538,0.17108 -0.66235,0.0242 -0.41836,-0.41838 0.3982,-2.1218 1.52821,-3.18803 0.5769,-0.5443 0.84092,-0.65601 1.0515,-0.44489 0.24468,0.24531 0.204,2.06279 -0.0655,2.92859 -0.35785,1.14939 -0.84629,1.9857 -1.29618,2.21935 -0.22163,0.11509 -0.25529,0.11338 -0.30479,-0.0155 z m 0.5787,-0.49132 c 0.22194,-0.26106 0.63161,-1.13159 0.82017,-1.7428 0.22756,-0.73771 0.34331,-2.23928 0.20062,-2.6029 -0.0948,-0.24169 -0.10716,-0.24582 -0.3536,-0.11838 -0.45801,0.23685 -1.30601,1.24214 -1.70455,2.02069 -0.56889,1.11137 -0.48562,1.60859 0.1986,1.18572 0.17362,-0.1073 0.35908,-0.16825 0.41214,-0.13547 0.0652,0.0403 0.0758,0.34203 0.0326,0.9289 -0.0621,0.84628 -0.0593,0.86569 0.10767,0.73425 0.0943,-0.0742 0.22311,-0.19575 0.28624,-0.27001 z m -5.37341,7.87529 c 1.23565,-0.41651 2.78129,-1.07885 2.78236,-1.19233 0.002,-0.16412 -0.1495,-0.14177 -0.99459,0.14703 -1.21912,0.41662 -1.67636,0.61818 -2.16526,0.95448 -0.54674,0.37609 -0.50128,0.38702 0.37749,0.0908 z m 6.89936,0.17088 c -0.0299,-0.0299 -0.10754,-0.0331 -0.17251,-0.007 -0.0718,0.0288 -0.0505,0.0501 0.0544,0.0544 0.0948,0.004 0.14804,-0.0172 0.11813,-0.0473 z m -0.36002,-0.0901 c -0.0299,-0.0299 -0.10754,-0.0331 -0.17251,-0.007 -0.0718,0.0288 -0.0505,0.0501 0.0544,0.0544 0.0948,0.004 0.14803,-0.0173 0.11813,-0.0473 z m -1.39926,-0.68816 c 0.009,-0.2599 0.008,-0.58898 -0.002,-0.73128 -0.0247,-0.34942 -0.44461,-0.95042 -0.66715,-0.95497 -0.0371,-6.8e-4 -0.066,0.39353 -0.0641,0.87618 l 0.004,0.87757 0.28906,0.19401 c 0.15897,0.10671 0.31943,0.19784 0.35656,0.20253 0.0371,0.004 0.0749,-0.20414 0.0839,-0.46404 z m 0.41768,0.22501 c 0.0442,-0.0866 0.13093,-0.59513 0.19266,-1.13001 0.10335,-0.8957 0.0997,-0.98633 -0.0462,-1.14759 -0.22103,-0.24422 -0.32253,-0.21828 -0.21833,0.0558 0.11102,0.29201 0.11353,0.78676 0.004,0.8987 -0.0987,0.10145 -0.17084,1.48112 -0.0774,1.48081 0.0355,-9e-5 0.10061,-0.0711 0.14481,-0.15772 z m -1.3342,-1.05684 v -0.67431 l -0.67505,0.33402 c -0.37128,0.18372 -0.67348,0.35552 -0.67155,0.3818 0.002,0.0263 0.21456,0.14343 0.47252,0.2604 0.25798,0.11695 0.5298,0.24619 0.60406,0.28722 0.24794,0.13699 0.27002,0.0889 0.27002,-0.58913 z m 6.37245,0.21731 c 0.0483,-0.57594 -0.10103,-0.65785 -2.11637,-1.1599 -1.00063,-0.24928 -1.86133,-0.45324 -1.91264,-0.45324 -0.0513,0 -0.0933,0.10082 -0.0933,0.22425 0,0.12677 -0.0783,0.27313 -0.18002,0.33668 -0.3822,0.23868 -0.21645,0.38899 0.92257,0.8366 1.11679,0.43888 1.8335,0.57432 2.90269,0.54847 0.44881,-0.0108 0.45012,-0.0118 0.47704,-0.33286 z m -2.23169,0.10656 c -0.12351,-0.0344 -0.23897,-0.13741 -0.25662,-0.229 -0.0286,-0.14861 0.009,-0.15983 0.35686,-0.10439 0.35497,0.0567 0.5243,0.16781 0.52796,0.34624 0.002,0.0806 -0.31568,0.0741 -0.6282,-0.0129 z m 0.29204,-0.1592 c -0.0619,-0.0249 -0.16314,-0.0249 -0.22502,0 -0.0619,0.0249 -0.0113,0.0454 0.11252,0.0454 0.12375,0 0.17438,-0.0205 0.1125,-0.0454 z m -12.58446,-0.57947 c -0.16991,-0.25251 -0.30893,-0.51347 -0.30893,-0.57995 0,-0.0665 -0.24303,-0.23749 -0.54003,-0.38004 -0.29704,-0.14257 -0.54005,-0.2445 -0.54005,-0.22654 0,0.10649 0.38941,0.76665 0.59952,1.01635 0.2091,0.24849 0.82395,0.62042 1.037,0.62726 0.0338,9e-4 -0.0777,-0.20459 -0.24751,-0.45708 z m 9.28245,-0.47923 c -0.0723,-0.48252 -0.17408,-0.52379 -0.31247,-0.12679 -0.0804,0.23053 -0.0718,0.32697 0.0446,0.50465 0.20996,0.32044 0.3442,0.13107 0.26788,-0.37786 z m 0.93934,-0.51001 c 0,-0.25909 -0.21597,-0.89185 -0.30441,-0.89185 -0.024,0 -0.0402,0.1201 -0.036,0.26689 0.004,0.1468 -0.0449,0.33025 -0.10925,0.40768 -0.0981,0.11822 -0.0838,0.17594 0.0896,0.36037 0.24729,0.26324 0.36014,0.2184 0.36014,-0.14309 z m -11.2698,-1.77866 c -0.0962,-0.0376 -0.43101,0.24797 -0.43101,0.36756 0,0.0455 0.11529,-0.0113 0.25619,-0.12646 0.14092,-0.11514 0.21957,-0.22364 0.17482,-0.2411 z m 10.90978,0.0907 c 0,-0.0418 -0.088,-0.15322 -0.19527,-0.24752 -0.18448,-0.16198 -0.19196,-0.16235 -0.13501,-0.006 0.033,0.0907 0.0602,0.20206 0.0602,0.24751 0,0.0454 0.0608,0.0826 0.13502,0.0826 0.0742,0 0.13501,-0.0342 0.13501,-0.0761 z m -10.67076,-0.59153 c -0.08,-0.0584 -0.18159,-0.24605 -0.22593,-0.41688 -0.0744,-0.28647 -0.0771,-0.2798 -0.0341,0.0857 0.0567,0.48282 0.097,0.55564 0.27054,0.48905 0.11728,-0.0449 0.11591,-0.0655 -0.0106,-0.15798 z m 6.0756,0.0607 c 0.15085,-0.0584 -0.0823,-0.0718 -0.74064,-0.0425 -0.6612,0.0294 -1.04693,0.007 -1.23698,-0.0717 -0.75741,-0.31373 -0.70165,-1.60795 0.0924,-2.14276 0.26649,-0.1795 0.40118,-0.2069 0.87421,-0.17776 0.4575,0.0282 0.62117,0.084 0.90006,0.30681 0.18748,0.14979 0.41168,0.41124 0.49824,0.58098 0.19513,0.38266 0.20345,0.96824 0.0175,1.23367 -0.17132,0.24457 -0.12767,0.24846 0.30597,0.0272 0.18628,-0.095 0.38718,-0.2792 0.44644,-0.40926 0.13507,-0.29644 0.13965,-1.28168 0.008,-1.80299 -0.33428,-1.32752 -2.22355,-2.04804 -3.17643,-1.21141 -0.50268,0.44135 -0.72269,1.06728 -0.72636,2.06635 -0.005,1.44264 0.39264,1.84474 1.75199,1.77041 0.42078,-0.023 0.86413,-0.0802 0.98523,-0.12709 z m -1.20462,-3.27328 c -0.61938,-0.0903 -0.78265,-0.19925 -0.51398,-0.34305 0.29108,-0.15576 1.36341,0.12427 1.36341,0.35607 0,0.0982 -0.0966,0.0967 -0.84943,-0.013 z m -4.28091,3.16006 c 0,-0.0496 -0.034,-0.0901 -0.0756,-0.0901 -0.12479,0 -0.28447,-0.43687 -0.28447,-0.77828 0,-0.24643 0.0733,-0.39322 0.32008,-0.63987 0.33096,-0.33096 0.29831,-0.50173 -0.086,-0.44998 -0.422,0.0568 -0.73549,1.04807 -0.51327,1.62303 0.11281,0.2919 0.63926,0.56787 0.63926,0.33511 z m 0.23301,-0.27691 c -0.12815,-0.15231 -0.23301,-0.33658 -0.23301,-0.4095 0,-0.1901 0.25854,-0.66369 0.36233,-0.66369 0.0483,0 0.0877,-0.0607 0.0877,-0.13499 0,-0.0742 -0.037,-0.13501 -0.082,-0.13501 -0.15634,0 -0.54804,0.55493 -0.54804,0.77643 0,0.26565 0.22021,0.71889 0.38064,0.78344 0.24823,0.0999 0.25586,0.0489 0.0323,-0.21668 z m 3.82253,-0.0324 c -0.12788,-0.13614 -0.22359,-0.37436 -0.25214,-0.62761 -0.0422,-0.37489 -0.0201,-0.43411 0.27145,-0.72566 0.24592,-0.24591 0.39553,-0.31988 0.66397,-0.32825 l 0.34653,-0.0108 -0.37598,-0.0906 c -0.46275,-0.11153 -0.74322,-0.0468 -1.10049,0.25378 -0.30734,0.25861 -0.49592,0.80374 -0.40431,1.16872 0.0678,0.27006 0.51501,0.57902 0.83889,0.57951 l 0.2182,3.4e-4 z m 1.35175,-0.0437 c 0.35503,-0.35503 0.36361,-0.83724 0.0213,-1.19459 -0.4519,-0.47168 -1.2862,-0.24644 -1.42482,0.38464 -0.18441,0.83968 0.80367,1.40986 1.40358,0.80995 z m -0.83427,0.0463 c -0.33777,-0.16839 -0.48522,-0.51928 -0.35269,-0.83927 0.10738,-0.25922 0.41744,-0.47405 0.68421,-0.47405 0.0691,0 0.23604,0.0948 0.3708,0.21077 0.59447,0.51134 -0.004,1.45075 -0.70232,1.10255 z m 0.55732,-0.86329 c 0,-0.0989 -0.0583,-0.18001 -0.12969,-0.18001 -0.15901,0 -0.26066,0.14812 -0.18532,0.27002 0.0979,0.15838 0.31501,0.0963 0.31501,-0.0901 z m 0.708,0.64182 c -0.0181,-0.0527 -0.0841,0.0133 -0.14665,0.14666 -0.10513,0.22417 -0.10261,0.23145 0.033,0.0959 0.0806,-0.0807 0.13181,-0.18983 0.1137,-0.24256 z m -5.2083,-0.50682 c 0,-0.0742 -0.0583,-0.135 -0.12971,-0.135 -0.15036,0 -0.25188,0.12847 -0.16787,0.21246 0.10758,0.10758 0.29758,0.0581 0.29758,-0.0774 z m -1.42121,-2.98256 c 0.64502,-0.61001 1.26631,-0.83984 2.30214,-0.85159 l 0.78418,-0.008 -0.40502,-0.13092 c -0.66871,-0.21615 -1.69109,-0.39135 -2.28058,-0.39082 -1.01687,8.9e-4 -1.60523,0.27979 -2.13588,1.01235 -0.47921,0.66149 -0.28744,0.89508 0.69783,0.84997 0.53174,-0.0245 0.57818,-0.0458 1.03733,-0.48008 z m -1.49074,-1.08655 c 0.50891,-0.45472 1.06559,-0.59654 2.13651,-0.54434 0.95183,0.0463 1.51074,0.17929 3.88065,0.92272 0.69305,0.21741 1.58162,0.4786 1.97459,0.58041 0.82637,0.21411 1.67066,0.24854 1.67066,0.068 0,-0.21018 -0.20942,-0.33302 -0.56783,-0.33302 -0.19376,0 -1.12576,-0.25973 -2.07463,-0.57816 -2.22872,-0.74793 -2.81186,-0.91496 -3.78226,-1.08329 -1.86708,-0.3239 -3.06352,-0.038 -3.78272,0.90391 -0.36093,0.47271 -0.48106,0.88246 -0.31673,1.08044 0.0958,0.11541 0.14409,0.0713 0.32546,-0.2962 0.11716,-0.23746 0.35849,-0.56173 0.5363,-0.72059 z m 8.92231,0.46381 c -0.0871,-0.0871 -1.8879,-0.67041 -2.03981,-0.66072 -0.0798,0.005 0.3205,0.16457 0.88979,0.35439 1.03326,0.34453 1.24448,0.40081 1.15002,0.30633 z m 0.71719,-0.33277 c 0.0125,-0.21647 0.10377,-0.49232 0.21052,-0.63674 l 0.1884,-0.25485 -0.33728,-0.51036 c -0.44914,-0.67967 -0.93124,-1.26505 -1.12897,-1.37089 -0.1233,-0.066 -0.0854,0.0664 0.16234,0.56724 0.17775,0.35931 0.42887,1.08808 0.55804,1.61946 0.12917,0.5314 0.2551,0.9666 0.27987,0.9671 0.0247,6.8e-4 0.0549,-0.17092 0.0671,-0.38096 z m -0.47449,-0.17971 c -0.56089,-1.79145 -0.95171,-2.54896 -1.48273,-2.87379 -0.49862,-0.30502 -1.236,-0.5011 -2.14456,-0.57026 -0.65355,-0.0498 -0.67771,-0.0452 -0.4501,0.0861 0.24793,0.14294 0.5245,0.59459 0.5245,0.85649 0,0.31825 -0.53057,0.98482 -0.99499,1.25007 -0.36344,0.20756 -0.4283,0.27575 -0.29743,0.31273 0.0921,0.026 0.75465,0.17544 1.47245,0.3321 0.71779,0.15665 1.77087,0.43947 2.34016,0.6285 0.56928,0.18903 1.06147,0.34748 1.09376,0.35214 0.0322,0.004 0.005,-0.16369 -0.061,-0.37407 z m -4.62863,-1.42537 c 0.50393,-0.27833 0.98815,-1.00835 0.82058,-1.23708 -0.0605,-0.0826 -0.1332,-0.21858 -0.16148,-0.3021 -0.0643,-0.18977 -0.4904,-0.34318 -0.95335,-0.34318 -0.39009,0 -1.093,0.35886 -1.19736,0.6113 -0.26344,0.63724 -0.17986,1.1996 0.21989,1.4796 0.24342,0.1705 0.72995,0.0907 1.27172,-0.20854 z m -1.08894,-0.0428 c -0.0641,-0.0772 -0.13476,-0.35988 -0.157,-0.62807 -0.0385,-0.46385 -0.0245,-0.50358 0.28797,-0.81598 0.2915,-0.29151 0.36532,-0.3224 0.65729,-0.27502 0.40814,0.0663 0.53684,0.19435 0.61258,0.60991 0.0553,0.30323 0.0278,0.35706 -0.40276,0.78755 -0.48324,0.48324 -0.7836,0.58003 -0.99808,0.32161 z m 0.502,-0.30571 c -0.15459,-0.0288 -0.31045,-0.13578 -0.36912,-0.25344 -0.0558,-0.112 -0.12823,-0.23034 -0.16087,-0.26298 -0.079,-0.079 0.036,0.51472 0.13867,0.71561 0.0765,0.14965 0.0961,0.14988 0.36984,0.004 l 0.28907,-0.15371 z m 0.23873,-0.32856 c -0.0159,-0.0937 -0.0362,-0.27158 -0.0449,-0.39534 -0.0182,-0.25475 -0.17986,-0.27412 -0.22739,-0.0272 -0.0171,0.0892 -0.0678,0.20074 -0.1125,0.24776 -0.13046,0.13727 -0.0941,0.30305 0.0763,0.34692 0.24746,0.0638 0.3399,0.0122 0.30867,-0.17208 z m 0.47342,-0.52786 c -0.0487,-0.25923 -0.11146,-0.33132 -0.34207,-0.39245 -0.23162,-0.0614 -0.33519,-0.0352 -0.57501,0.14571 -0.34086,0.25706 -0.35692,0.28924 -0.11252,0.22533 0.0989,-0.0259 0.18001,-0.0785 0.18001,-0.11695 0,-0.18827 0.27704,-0.13611 0.53666,0.10103 0.27917,0.25498 0.2849,0.27389 0.14695,0.48445 -0.20494,0.31279 -0.17756,0.38295 0.0411,0.10514 0.14277,-0.1815 0.17108,-0.30656 0.12499,-0.5522 z m -0.21955,0.26751 c 0,-0.0742 -0.0405,-0.13499 -0.0901,-0.13499 -0.0496,0 -0.0901,0.0607 -0.0901,0.13499 0,0.0742 0.0405,0.13502 0.0901,0.13502 0.0496,0 0.0901,-0.0607 0.0901,-0.13502 z m -0.72004,-0.0953 c 0,-0.0772 -0.0405,-0.11529 -0.0901,-0.0847 -0.0496,0.0305 -0.0901,0.0938 -0.0901,0.14032 0,0.0465 0.0405,0.0847 0.0901,0.0847 0.0496,0 0.0901,-0.0631 0.0901,-0.14032 z m -0.94985,0.97288 c -0.15244,-0.29223 -0.16376,-0.54693 -0.0396,-0.8942 l 0.0905,-0.25338 -0.18996,0.22416 c -0.10451,0.12329 -0.28631,0.4143 -0.40408,0.6467 l -0.21413,0.42254 0.24608,0.0373 c 0.63184,0.0959 0.65296,0.0884 0.51131,-0.18319 z"
         id="path4952-7"
         sodipodi:nodetypes="sscsssssssssscssssssscsssscsssscsssssssscsssssscsssssssssssssscsscssssscsssssssssssscssscsssssscscscscssssccsssssssscsssssssssssssssssssssssssssssssssssssssssssssscsssscsssscsssssssssssscccsssssssssssssssssscscsssscssssscssssssssssssssccssssssssssssssssssscssssssssssssssssssscsssscsssssssssssssssssssssssssssssssscssssssssscssscsssssssssssssccsssssssssssssssssssssssssssssssssssscssccssscssssssssssssssssssssssssssssssssssssscsssssssssssssssssssscssssssssssssssssssssssssssssssssssssscssssssscssssssscsscssscsssscsssssssssssscsssssssssssssssssscsssssssssssssssssssscssssssssssssscccscssccssssssssscscsssssssssssssscssssssssssscsssssssssssssssssssssssssssssscsssssssssssssssssssssssssssssssssssssscssssccsssssssssssssssssssssssssscscsssssssssssssssssssssscsssscscssssssssscsssssssssssssscssssccsssssssssssssssssssssssssssscsscss" />
      <circle
         style="fill:none;stroke:#ff0000;stroke-width:0.1;stroke-dasharray:none"
         id="path788-8-1-8-1-9-2-2-9-1-4"
         cx="-196.15077"
         cy="-107.05286"
         r="19.954653" />
      <ellipse
         style="fill:none;stroke:#ff00ff;stroke-width:0.1;stroke-dasharray:none;stroke-opacity:1"
         id="path1138-9-4-0-0-1-2-8-1-8-7"
         cx="-196.15077"
         cy="-107.05286"
         rx="18.492125"
         ry="18.492126" />
      <circle
         style="fill:none;stroke:#0000ff;stroke-width:0.1;stroke-linecap:round;stroke-dasharray:none;stroke-opacity:1;paint-order:markers stroke fill"
         id="path13019-1-33-4-5-5-6"
         cx="-196.15077"
         cy="-122.06387"
         r="2" />
    </g>
  </g>
</svg>
