<?xml version="1.0" encoding="UTF-8" standalone="no"?>
<!-- Created with Inkscape (http://www.inkscape.org/) -->

<svg
   width="41.008999mm"
   height="41.008999mm"
   viewBox="0 0 41.008999 41.008999"
   version="1.1"
   id="svg1"
   inkscape:version="1.4.2 (f4327f4, 2025-05-13)"
   sodipodi:docname="154.svg"
   xmlns:inkscape="http://www.inkscape.org/namespaces/inkscape"
   xmlns:sodipodi="http://sodipodi.sourceforge.net/DTD/sodipodi-0.dtd"
   xmlns="http://www.w3.org/2000/svg"
   xmlns:svg="http://www.w3.org/2000/svg">
  <sodipodi:namedview
     id="namedview1"
     pagecolor="#ffffff"
     bordercolor="#000000"
     borderopacity="0.25"
     inkscape:showpageshadow="2"
     inkscape:pageopacity="0.0"
     inkscape:pagecheckerboard="0"
     inkscape:deskcolor="#d1d1d1"
     inkscape:document-units="mm"
     inkscape:zoom="1.5878906"
     inkscape:cx="108.3198"
     inkscape:cy="200.26568"
     inkscape:window-width="1050"
     inkscape:window-height="1081"
     inkscape:window-x="3737"
     inkscape:window-y="0"
     inkscape:window-maximized="0"
     inkscape:current-layer="layer1" />
  <defs
     id="defs1" />
  <g
     inkscape:label="Layer 1"
     inkscape:groupmode="layer"
     id="layer1"
     transform="translate(-0.7937635,-0.79375582)">
    <g
       id="g11342"
       transform="translate(175.41882,128.47674)">
      <path
         style="fill:#000000;stroke-width:0.1;stroke-dasharray:none"
         d="m -158.62216,-91.2575 c -0.61601,-0.14903 -0.94271,-1.24723 -0.55849,-1.87737 0.19343,-0.31724 0.52619,-0.51016 1.01463,-0.58827 0.28504,-0.0456 0.35418,-0.0949 0.39254,-0.27997 0.0892,-0.43016 0.3873,-2.34732 0.36712,-2.36085 -0.0111,-0.007 -0.2011,-0.0994 -0.42205,-0.20395 -0.60884,-0.28847 -1.29161,-1.07431 -1.48009,-1.7035 -0.1335,-0.44565 -0.17454,-0.50417 -0.30474,-0.43449 -0.25672,0.13739 -0.74648,0.0935 -0.92271,-0.0827 -0.24278,-0.24278 -0.46719,-1.3646 -0.40966,-2.04796 l 0.0475,-0.56395 -0.5651,0.0293 c -0.46577,0.0243 -0.58469,0.003 -0.67657,-0.12306 -0.085,-0.11616 -0.11144,-0.68207 -0.11144,-2.37812 v -2.22568 l -0.26183,-0.1159 c -0.35203,-0.15582 -0.91763,-0.88811 -1.04035,-1.34697 -0.0547,-0.20462 -0.12899,-0.37203 -0.16499,-0.37203 -0.036,0 -0.13197,-0.12488 -0.21326,-0.27752 -0.11283,-0.21192 -0.14545,-0.46927 -0.13799,-1.08874 0.0251,-2.07738 1.11047,-4.2614 2.58966,-5.21059 0.26491,-0.16999 0.49714,-0.40415 0.59917,-0.60416 0.19772,-0.38754 0.20157,-0.41877 0.0517,-0.41877 -0.0632,0 -0.18449,-0.077 -0.26962,-0.17103 -0.13415,-0.14823 -0.1416,-0.21493 -0.0559,-0.50078 0.14272,-0.47637 0.38214,-0.73876 0.90949,-0.99676 0.40898,-0.2001 0.44988,-0.24261 0.33953,-0.35294 -0.1449,-0.1449 -0.16193,-0.3979 -0.0419,-0.62223 0.18175,-0.33961 1.0176,-0.44302 1.7601,-0.21778 0.23055,0.0699 0.42411,0.12758 0.43015,0.12808 0.006,6.6e-4 0.059,-0.11483 0.11756,-0.25632 0.22266,-0.53756 0.90066,-0.4049 1.17547,0.22998 0.147,0.33956 0.22566,0.40933 0.66122,0.58636 0.4415,0.17942 0.5133,0.18768 0.67118,0.0771 0.0972,-0.068 0.25326,-0.12382 0.34672,-0.12382 0.0935,0 0.25068,-0.1013 0.34939,-0.22509 l 0.17948,-0.22507 1.89446,1.12577 c 1.59299,0.94663 1.89446,1.15702 1.89446,1.32205 0,0.10794 0.0603,0.31715 0.13404,0.46494 0.0738,0.14777 0.11276,0.33619 0.0868,0.41873 -0.0425,0.13524 0.0304,0.15102 0.74123,0.16 0.88658,0.0112 1.57182,0.21689 2.41987,0.72634 1.28849,0.77407 2.55828,2.86623 2.85307,4.70087 0.12721,0.79171 0.0601,1.32227 -0.21933,1.73405 -0.13046,0.19225 -0.20906,0.42921 -0.20906,0.63033 0,0.85755 -0.53874,1.84922 -1.17086,2.15523 -0.54793,0.26525 -1.44556,0.26254 -2.01089,-0.006 -0.46155,-0.21931 -1.03971,-0.82054 -1.34817,-1.40199 -0.11493,-0.21666 -0.26668,-0.39415 -0.33721,-0.39444 -0.0706,-2.6e-4 -0.23829,-0.0579 -0.37282,-0.12809 -0.31438,-0.16395 -0.31045,-0.16503 -0.31045,0.0851 0,0.27182 -0.29135,1.04206 -0.46803,1.23726 -0.12663,0.13994 -0.11379,0.1533 0.19452,0.20261 0.18155,0.029 0.39652,0.1262 0.47774,0.21595 0.0838,0.0925 0.32081,0.18741 0.5481,0.21927 0.97042,0.13598 1.73183,0.52614 1.92544,0.98663 0.0542,0.1289 0.26764,0.3641 0.47431,0.52267 0.7223,0.5542 0.73319,0.5866 0.73319,2.18038 0,1.26988 0.0155,1.42047 0.15718,1.52411 0.22639,0.16564 0.11681,0.40366 -0.29151,0.63316 -0.24378,0.13699 -0.4453,0.18496 -0.68221,0.16237 -0.18492,-0.0176 -0.33619,-0.031 -0.33616,-0.0298 3e-5,9.2e-4 0.0605,0.29044 0.13423,0.64268 0.2253,1.07557 0.37938,2.52977 0.436,4.11487 0.0471,1.31804 0.036,1.53776 -0.0866,1.72492 -0.27529,0.42012 -1.43775,0.52387 -2.4443,0.21814 -0.6671,-0.20264 -0.7721,-0.34487 -0.7716,-1.04524 3.1e-4,-0.53684 0.2373,-0.97493 0.60163,-1.11246 0.13858,-0.0523 0.25194,-0.13273 0.25194,-0.17872 0,-0.046 -0.12343,-0.46026 -0.27433,-0.92058 -0.24569,-0.74957 -0.29247,-0.83137 -0.44829,-0.78363 -0.25135,0.077 -0.24819,0.0528 -0.0962,0.73583 0.21985,0.98819 0.20469,1.18444 -0.12292,1.59211 -0.59765,0.74371 -1.1968,1.04627 -1.98365,1.00171 -0.4729,-0.0267 -0.54744,-0.0582 -0.80456,-0.33872 -0.23434,-0.25573 -0.28337,-0.37665 -0.28337,-0.69898 0,-0.42914 0.16489,-0.81999 0.42186,-0.99998 0.16285,-0.11408 0.1608,-0.12699 -0.0895,-0.56529 -0.23418,-0.41005 -0.27961,-0.44629 -0.52908,-0.42214 l -0.27288,0.0264 -0.0949,1.62242 c -0.0521,0.89234 -0.12404,1.6911 -0.15979,1.77502 -0.0799,0.18777 -0.40976,0.36076 -0.83417,0.43761 -0.17612,0.0318 -0.32022,0.0905 -0.32022,0.13046 0,0.0398 -0.11148,0.19183 -0.24773,0.33769 l -0.24774,0.26521 -1.35335,-0.0101 c -0.74433,-0.005 -1.43019,-0.0285 -1.52412,-0.0512 z m 2.77451,-0.21983 c 0.17655,-0.0893 0.28926,-0.33866 0.66182,-1.46417 l 0.44902,-1.35653 -0.21239,-0.36239 c -0.35545,-0.60654 -1.03735,-1.06166 -1.59068,-1.06166 -0.26091,0 -0.75846,0.21133 -0.75904,0.3224 -1.8e-4,0.034 -0.0572,0.40769 -0.1266,0.83037 -0.0694,0.42268 -0.12694,0.79461 -0.12776,0.8265 -9.2e-4,0.0318 0.2048,0.10082 0.45693,0.15316 0.25213,0.0523 0.53072,0.14991 0.61908,0.21682 0.20632,0.15622 0.0794,0.15674 -0.35167,9.3e-4 -0.18786,-0.0677 -0.58326,-0.12475 -0.87867,-0.12681 -0.89118,-0.006 -1.3842,0.35982 -1.3842,1.02771 0,0.296 0.19251,0.79771 0.34138,0.88973 0.0783,0.0484 0.0804,0.0219 0.009,-0.11205 -0.16218,-0.30306 -0.0889,-1.27114 0.088,-1.16184 0.0423,0.0262 0.0558,0.082 0.0299,0.12391 -0.026,0.0419 -0.0506,0.24997 -0.055,0.46225 -0.01,0.48513 0.19113,0.81593 0.49545,0.81593 0.19084,0 0.21301,-0.0266 0.16035,-0.19214 -0.10867,-0.34164 -0.15514,-1.25951 -0.0638,-1.25951 0.0471,0 0.10074,0.26616 0.11913,0.59146 0.0488,0.86356 0.14738,0.94592 1.13051,0.94432 0.45285,-6.4e-4 0.86533,-0.0462 0.98941,-0.10892 z m 1.03749,-0.74567 c 0.17103,-0.0475 0.35856,-0.14371 0.41672,-0.21378 0.11188,-0.13483 0.34561,-2.89849 0.23584,-2.78868 -0.0852,0.0853 -0.97308,2.47301 -1.04575,2.81226 -0.0658,0.30708 -0.0518,0.31382 0.39319,0.1902 z m 7.19457,0.006 c 0.18299,-0.0424 0.36492,-0.12799 0.40429,-0.1901 0.0804,-0.12682 0.0797,-1.90968 -9.3e-4,-2.88812 l -0.0528,-0.64042 -0.18623,0.31509 c -0.25959,0.43922 -0.78898,0.76851 -1.31714,0.81926 -0.3897,0.0374 -0.42708,0.0591 -0.38333,0.22207 0.0267,0.0994 0.0491,0.22368 0.0496,0.27632 6.4e-4,0.0531 0.22366,0.12088 0.50105,0.15226 0.27493,0.0311 0.57275,0.11544 0.66178,0.18742 0.1523,0.1231 0.14671,0.1278 -0.0942,0.0792 -0.14089,-0.0284 -0.52515,-0.0738 -0.8539,-0.10076 -0.51384,-0.0421 -0.62703,-0.0254 -0.80644,0.12006 -0.1731,0.14029 -0.21467,0.26278 -0.24364,0.71782 -0.0271,0.42606 -0.005,0.57363 0.0995,0.66029 0.1208,0.10022 0.12925,0.0555 0.083,-0.43991 -0.0346,-0.36972 -0.0196,-0.57118 0.0451,-0.6112 0.0675,-0.0418 0.0967,0.085 0.0967,0.42058 0,0.47979 0.10511,0.81064 0.25754,0.81064 0.0463,0 0.0589,-0.15966 0.0295,-0.37359 -0.054,-0.39446 0.0912,-0.99267 0.24102,-0.99267 0.0527,0 0.0607,0.0599 0.0199,0.14944 -0.0374,0.0822 -0.0831,0.36452 -0.10147,0.6274 -0.0442,0.63314 0.0794,0.76091 0.7337,0.75816 0.2667,-9.2e-4 0.63463,-0.0368 0.81761,-0.0792 z m -4.64495,-0.82098 c 0,-0.0266 -0.0452,-0.13223 -0.10033,-0.23481 -0.1307,-0.24294 -0.23611,-0.82003 -0.15856,-0.86796 0.0333,-0.0206 0.10621,0.16103 0.16216,0.4035 0.10966,0.47505 0.29816,0.74807 0.51558,0.74679 0.26119,-0.002 1.01896,-0.5086 1.33324,-0.89214 0.34945,-0.42644 0.34708,-0.37233 0.0702,-1.60876 -0.10567,-0.47187 -0.15166,-0.56239 -0.24603,-0.48409 -0.0638,0.0529 -0.24286,0.0881 -0.39784,0.0779 -0.15499,-0.0101 -0.45471,0.0606 -0.66606,0.15711 -0.21134,0.0966 -0.5249,0.20147 -0.69683,0.23311 l -0.31258,0.0574 0.1716,0.29079 c 0.15928,0.26999 0.20254,0.29081 0.60431,0.29081 0.4336,0 0.50451,0.12338 0.0767,0.13343 -0.63506,0.0148 -0.78848,0.0509 -0.94885,0.22308 -0.37563,0.40321 -0.29158,1.15032 0.15684,1.39404 0.23165,0.12589 0.4365,0.16332 0.4365,0.0797 z m -1.88579,-2.67984 c 0.34752,-0.89323 0.52179,-1.2325 0.70122,-1.36517 0.62074,-0.45892 0.39583,-1.65133 -0.4048,-2.14616 -0.9477,-0.58571 -2.80745,-0.0692 -3.28222,0.91148 -0.1729,0.35715 -0.17349,0.37534 -0.0258,0.79092 0.13524,0.38078 0.13955,0.49396 0.0411,1.07969 -0.0605,0.35989 -0.0968,0.66736 -0.081,0.68325 0.0159,0.0159 0.1877,-0.0135 0.38176,-0.0653 0.29342,-0.0783 0.42137,-0.0679 0.75954,0.0611 0.44566,0.1702 0.98677,0.61521 1.21231,0.99703 0.0793,0.13432 0.1648,0.24366 0.18989,0.24298 0.0252,-6.5e-4 0.25374,-0.53614 0.50809,-1.18988 z m 5.85719,0.60492 c 0.39256,-0.17834 0.86768,-0.68068 0.94856,-1.00293 0.1115,-0.44425 -0.43567,-3.11774 -0.81075,-3.96128 -0.17328,-0.38968 -0.58316,-0.8403 -0.92279,-1.01443 -0.24438,-0.12531 -0.28314,-0.12086 -0.28314,0.0325 0,0.0704 -0.0566,0.12809 -0.12594,0.12809 -0.0965,0 -0.11301,0.0647 -0.0705,0.27715 0.0304,0.15242 0.10638,0.32808 0.16864,0.39035 0.0623,0.0623 0.11618,0.17772 0.11979,0.25655 0.004,0.0787 0.0239,0.27783 0.0451,0.4422 0.0377,0.29317 0.0456,0.52514 0.0434,1.26691 -6.5e-4,0.20367 -0.0493,0.42846 -0.10832,0.49951 -0.059,0.0711 -0.0965,0.27797 -0.0833,0.45978 0.0188,0.26052 -0.0228,0.37718 -0.19597,0.55042 -0.12091,0.12091 -0.21983,0.23921 -0.21983,0.26291 0,0.0237 0.1201,0.38698 0.26688,0.80733 l 0.26687,0.76425 0.30951,-0.002 c 0.17023,-9.2e-4 0.46355,-0.0719 0.65181,-0.15737 z m -3.86467,-0.61376 c 0.62438,-0.1734 0.26945,-0.38569 -0.48685,-0.2912 -0.42797,0.0534 -0.45595,0.0705 -0.36283,0.21951 0.1132,0.18127 0.37547,0.20339 0.84968,0.0716 z m 0.66179,-0.32894 c 0,-0.0424 0.1575,-0.0562 0.35001,-0.0302 0.34111,0.0458 0.3471,0.0422 0.235,-0.13723 -0.0721,-0.11538 -0.16293,-0.16353 -0.24327,-0.12892 -0.0706,0.0303 -0.2535,0.10094 -0.40657,0.15678 -0.15307,0.0558 -0.25232,0.1275 -0.22059,0.15925 0.0844,0.0844 0.28542,0.0705 0.28542,-0.0195 z m -1.24289,-0.10087 c 1.84868,-0.18607 2.40306,-0.62582 2.61896,-2.07749 0.15301,-1.02883 -0.0528,-1.86969 -0.6391,-2.60992 l -0.30292,-0.38253 0.18212,-0.19386 c 0.26888,-0.28621 0.58415,-0.24934 0.89786,0.105 0.33264,0.37573 0.44996,0.37769 0.44996,0.007 v -0.29136 l -0.76852,-0.10502 c -0.42268,-0.0578 -0.76851,-0.13973 -0.76851,-0.18215 0,-0.0423 0.12488,-0.0556 0.2775,-0.0294 0.15265,0.0262 0.67114,0.1048 1.15223,0.17465 1.69631,0.24633 1.81003,0.18971 1.90252,-0.94718 0.0688,-0.84659 -0.009,-1.12039 -0.3924,-1.37131 -0.34062,-0.22317 -1.2925,-0.45592 -2.10456,-0.51458 -0.40943,-0.0295 -0.72304,-0.0883 -0.6969,-0.13067 0.0262,-0.0422 0.22664,-0.0536 0.44555,-0.0252 0.37064,0.0482 0.38664,0.0426 0.23229,-0.0812 -0.0926,-0.0744 -0.32843,-0.13308 -0.53464,-0.13308 h -0.36891 l 0.005,2.31997 c 0.005,2.48643 -7e-5,2.51762 -0.4299,2.5552 -0.67096,0.0587 -0.7685,-0.10372 -0.7685,-1.27925 v -0.83639 l -0.32767,-0.0981 c -0.18021,-0.054 -0.39619,-0.17389 -0.47995,-0.26644 -0.14963,-0.16534 -0.15469,-0.16545 -0.29141,-0.005 -0.26321,0.3079 -3.28616,1.09869 -4.75025,1.24261 l -0.59775,0.0588 -0.20245,0.78036 c -0.29646,1.14271 -0.30709,1.34421 -0.10575,2.00708 0.21867,0.71992 0.74043,1.34383 1.39885,1.67268 l 0.4464,0.22298 0.0259,-0.38415 c 0.0143,-0.2113 -0.0146,-0.45979 -0.064,-0.55223 -0.26834,-0.50139 0.0872,-1.25654 0.78381,-1.66478 1.62458,-0.95206 3.43733,-0.32884 3.54937,1.22031 0.0354,0.48988 0.0267,0.51479 -0.30516,0.87569 -0.3874,0.42125 -0.67887,1.01189 -0.49934,1.01189 0.0599,0 0.5236,-0.0418 1.03045,-0.0927 z m -0.72112,-0.32359 c 0,-0.0435 0.13638,-0.15962 0.30307,-0.25796 0.77044,-0.45456 0.7742,-1.89153 0.007,-2.79873 -0.69465,-0.82173 -2.01587,-0.81539 -3.38445,0.0161 -1.13122,0.68739 -1.56179,1.57277 -1.05675,2.17298 0.12325,0.14647 0.19684,0.29352 0.1635,0.32676 -0.0839,0.0836 -0.45984,-0.3697 -0.52628,-0.63448 -0.21589,-0.86015 1.1305,-2.14856 2.66217,-2.54751 0.68749,-0.17906 1.03227,-0.163 1.53605,0.0716 1.46347,0.68148 1.79741,2.95353 0.53041,3.60872 -0.12928,0.0668 -0.23503,0.0859 -0.23503,0.0423 z m -4.48157,-0.62248 c -0.35712,-0.28091 -0.70833,-0.88901 -0.94372,-1.63405 -0.22163,-0.70143 -0.25465,-0.91355 -0.14219,-0.91355 0.0375,0 0.11517,0.22688 0.17245,0.5042 0.13496,0.6534 0.63399,1.64646 0.96908,1.92842 0.32386,0.27251 0.27446,0.37461 -0.0556,0.11498 z m 5.95457,-0.29402 c -0.14078,-0.0629 -0.13346,-0.39596 0.0214,-0.97273 0.0694,-0.2583 0.12651,-0.62773 0.12708,-0.82094 l 9.2e-4,-0.3513 0.39617,-0.0543 c 0.60782,-0.0833 0.9401,-0.0652 1.04127,0.0566 0.17021,0.2051 0.22004,0.81825 0.0796,0.97995 -0.0703,0.081 -0.15306,0.25321 -0.18384,0.38273 -0.0308,0.12951 -0.16309,0.35539 -0.29405,0.50196 -0.1945,0.21769 -0.31536,0.2719 -0.65999,0.29607 -0.23203,0.0163 -0.46991,0.008 -0.52864,-0.0181 z m 1.06404,-0.31095 c 0.0966,-0.10565 0.20375,-0.28818 0.23786,-0.4056 0.0341,-0.11741 0.12133,-0.34171 0.19384,-0.49841 0.0983,-0.21254 0.11219,-0.36406 0.0545,-0.59634 -0.0759,-0.30575 -0.0844,-0.311 -0.46155,-0.28836 -0.72178,0.0432 -0.87319,0.099 -0.82248,0.30274 0.0252,0.10107 -0.0246,0.49896 -0.11078,0.88416 -0.086,0.38523 -0.13545,0.72146 -0.10974,0.74717 0.0257,0.0257 0.2258,0.0468 0.44461,0.0468 0.30354,0 0.43952,-0.0456 0.57369,-0.19213 z m -0.35957,-0.57639 c -0.029,-0.047 -0.12736,-0.0855 -0.21851,-0.0855 -0.0912,0 -0.16575,-0.0385 -0.16575,-0.0855 0,-0.11457 0.28385,-0.10895 0.40074,0.008 0.0675,0.0675 0.15491,0.053 0.31596,-0.0525 0.27294,-0.17885 0.29413,-0.0852 0.0304,0.13476 -0.22114,0.18451 -0.28932,0.19963 -0.36291,0.0806 z m 1.0958,-4.21282 c -0.43054,-0.10165 -0.8116,-0.21362 -0.8468,-0.24884 -0.0952,-0.0952 0.0267,-0.081 0.94716,0.11119 0.97915,0.20446 1.78875,0.24694 1.93423,0.10149 0.40569,-0.40571 -1.36156,-1.4722 -2.43953,-1.4722 -0.21005,0 -0.40566,-0.0384 -0.43468,-0.0855 -0.0803,-0.12993 0.50203,-0.1038 1.09165,0.049 0.63676,0.16499 1.23918,0.46372 1.63361,0.81003 0.37732,0.33127 0.45221,0.55478 0.25788,0.76953 -0.20391,0.22531 -1.10353,0.2107 -2.14352,-0.0349 z m -0.49007,-0.44097 c 0.0358,-0.0938 0.0811,-0.35331 0.10078,-0.57639 0.045,-0.51005 0.19009,-0.53356 0.19009,-0.0309 0,0.2584 -0.0552,0.43741 -0.17793,0.57639 -0.15301,0.17335 -0.16882,0.17767 -0.11294,0.0308 z m 0.50033,6.60408 c 0.23627,-0.10765 0.29632,-0.32786 0.0894,-0.32786 -0.0704,0 -0.12807,-0.0409 -0.12807,-0.0907 0,-0.0499 0.0672,-0.0838 0.14942,-0.0756 0.33538,0.0341 0.4358,-0.0165 0.52173,-0.26304 0.10911,-0.31296 0.0624,-0.45913 -0.18514,-0.57873 -0.18146,-0.0877 -0.18011,-0.0906 0.0446,-0.0963 0.45191,-0.0113 0.55845,-0.77428 0.10812,-0.77428 -0.28833,0 -0.2695,-0.15281 0.023,-0.18646 0.19799,-0.0228 0.23484,-0.0672 0.23484,-0.28321 0,-0.2266 -0.0322,-0.25926 -0.27754,-0.28293 -0.33818,-0.0325 -0.36614,-0.16516 -0.0426,-0.20238 0.2872,-0.033 0.35699,-0.31999 0.15342,-0.63067 -0.10636,-0.16234 -0.18477,-0.1976 -0.34815,-0.15658 -0.12288,0.0309 -0.21087,0.0159 -0.21087,-0.0359 0,-0.0489 0.0865,-0.10099 0.19213,-0.116 0.23119,-0.0328 0.21983,-0.28336 -0.0243,-0.53363 -0.1357,-0.13917 -0.19443,-0.14942 -0.37777,-0.0659 -0.14991,0.0683 -0.2171,0.0706 -0.2171,0.007 0,-0.0503 0.0784,-0.11208 0.17428,-0.13713 0.19391,-0.0507 0.18502,-0.18058 -0.0214,-0.31072 -0.0976,-0.0616 -0.19766,-0.045 -0.3565,0.0591 l -0.22077,0.14466 0.36671,0.53564 c 0.49474,0.72265 0.60265,1.14937 0.54977,2.17427 -0.0517,1.00194 -0.21835,1.4559 -0.67931,1.85047 -0.30755,0.26325 -0.32386,0.29726 -0.18208,0.3797 0.20454,0.11896 0.3978,0.11799 0.66406,-0.003 z m -9.33045,-3.06036 c 0.37866,-0.77553 0.51206,-1.45538 0.44579,-2.27198 -0.0426,-0.52595 -0.0291,-0.74851 0.0514,-0.84543 0.13186,-0.1589 0.0758,-0.23676 -0.11715,-0.16272 -0.18423,0.0708 -0.27566,0.44684 -0.15541,0.6394 0.0874,0.13986 0.059,0.1477 -0.37304,0.10311 -0.53208,-0.055 -0.74227,0.0671 -0.94646,0.54954 -0.22215,0.52485 -0.0771,2.008 0.23287,2.38151 0.0631,0.076 0.21257,0.11722 0.36937,0.10193 0.2255,-0.022 0.29648,-0.0933 0.49274,-0.49536 z m -0.57844,0.14943 c 0.0776,-0.10567 0.26494,-0.44189 0.41601,-0.74717 0.24134,-0.48765 0.27324,-0.63279 0.26276,-1.19547 -0.009,-0.49384 0.007,-0.59157 0.0708,-0.42695 0.12666,0.32708 0.10445,0.85261 -0.0554,1.31163 -0.17317,0.49708 -0.62306,1.2501 -0.74689,1.2501 -0.0487,0 -0.0249,-0.0865 0.0528,-0.19214 z m -0.30566,-0.77553 c -0.0991,-0.0752 -0.14973,-0.26336 -0.16633,-0.61638 -0.0221,-0.47072 -0.0101,-0.51008 0.16902,-0.536 0.1061,-0.0154 0.21389,-0.0827 0.23951,-0.14944 0.0746,-0.1942 0.27649,-0.14042 0.33407,0.089 0.029,0.11574 0.12862,0.23448 0.22129,0.2639 0.11673,0.0371 0.15023,0.097 0.10908,0.19519 -0.0735,0.17531 -0.2257,0.61724 -0.26211,0.76079 -0.0349,0.13783 -0.46013,0.13321 -0.64453,-0.007 z m 0.57704,-0.18511 c -0.0294,-0.11741 -0.0206,-0.21348 0.0196,-0.21348 0.0403,0 0.11562,-0.0928 0.16731,-0.2063 0.0758,-0.16637 0.0687,-0.21601 -0.0368,-0.25644 -0.17265,-0.0662 -0.28748,0.0118 -0.28008,0.19026 0.005,0.11771 0.0196,0.11284 0.0794,-0.0264 0.0708,-0.16465 0.0736,-0.16407 0.0794,0.0163 0.01,0.29851 -0.16062,0.31998 -0.26069,0.0328 -0.0936,-0.26834 -0.24669,-0.28264 -0.24435,-0.0229 9.2e-4,0.12444 0.0128,0.12669 0.0842,0.0163 0.052,-0.0805 0.0832,-0.0895 0.0842,-0.0243 6.5e-4,0.0571 -0.0756,0.14487 -0.16947,0.19514 -0.29885,0.15994 -0.2038,0.39223 0.14299,0.34942 0.0551,-0.007 0.12469,0.0271 0.15448,0.0753 0.10792,0.17462 0.23322,0.087 0.17981,-0.12582 z m -0.44241,-0.0619 c 0.0304,-0.15072 0.2405,-0.13692 0.29211,0.0192 0.0353,0.10688 0.0203,0.10982 -0.0914,0.0178 -0.0903,-0.0746 -0.14812,-0.0808 -0.17826,-0.0193 -0.0245,0.0502 -0.0347,0.0421 -0.0226,-0.0178 z m -0.051,-0.62834 c 0.0731,-0.14083 0.0666,-0.17791 -0.0311,-0.17791 -0.0748,0 -0.12346,0.0843 -0.12346,0.2135 0,0.23348 0.0169,0.22958 0.15461,-0.0357 z m 0.38057,-0.29905 c -0.0327,-0.12517 -0.066,-0.14642 -0.11217,-0.0718 -0.078,0.12612 -0.008,0.35258 0.0903,0.29191 0.0376,-0.0232 0.0475,-0.12236 0.022,-0.22021 z m 13.37854,2.07786 c 0.17716,-0.14343 0.17925,-0.16274 0.0509,-0.46981 -0.10955,-0.26219 -0.12411,-0.53293 -0.0803,-1.49417 0.0519,-1.14054 0.0478,-1.18242 -0.15025,-1.4708 -0.11206,-0.16326 -0.33731,-0.38701 -0.50058,-0.49721 l -0.29682,-0.20038 -0.0631,0.61745 c -0.10158,0.99452 -0.3848,1.24713 -1.28163,1.14304 -0.53518,-0.0622 -0.65619,0.0414 -0.24663,0.21113 0.13451,0.0557 0.37287,0.22786 0.52967,0.38257 l 0.2851,0.28127 0.18909,-0.40812 c 0.10399,-0.22447 0.27241,-0.45272 0.37425,-0.50722 0.26202,-0.14024 0.31296,-0.0411 0.063,0.12259 -0.41605,0.27261 -0.50882,0.81402 -0.26542,1.54879 0.19636,0.59276 0.49452,0.89047 0.8918,0.89047 0.17397,0 0.39921,-0.0672 0.50086,-0.1496 z m -4.91198,-1.0977 c 0.11798,-0.0454 0.13508,-0.31116 0.13508,-2.10059 0,-2.11855 0.12981,-4.7856 0.25475,-5.23388 0.0574,-0.20615 0.0718,-0.14776 0.0731,0.29887 9.2e-4,0.30527 -0.0254,0.85283 -0.0586,1.21681 -0.033,0.36398 -0.0363,0.66178 -0.007,0.66178 0.0949,0 0.32171,-0.29357 0.41388,-0.536 0.0495,-0.13025 0.12975,-0.48539 0.17829,-0.78919 0.0832,-0.52058 0.0761,-0.57083 -0.12323,-0.8731 -0.51839,-0.78629 -0.90173,-2.32614 -0.90173,-3.62214 0,-0.43749 0.0771,-1.14654 0.18052,-1.66053 0.17264,-0.85768 0.17422,-0.91359 0.036,-1.27539 -0.11647,-0.30497 -0.2136,-0.40901 -0.50074,-0.53635 -0.32259,-0.14305 -2.10677,-1.4259 -2.10677,-1.51479 0,-0.11786 0.25082,0.0333 1.04498,0.62917 0.48831,0.36647 1.01974,0.721 1.18095,0.78783 0.40532,0.16805 0.89806,0.15497 1.08174,-0.0287 0.14332,-0.14333 0.14337,-0.16269 9.2e-4,-0.41059 -0.0821,-0.14308 -0.1509,-0.3435 -0.15283,-0.44536 -0.003,-0.14812 -0.29489,-0.35625 -1.45819,-1.03912 -0.80006,-0.46965 -1.58515,-0.93077 -1.74466,-1.02469 l -0.29,-0.17079 -0.13524,0.19213 c -0.0744,0.10567 -0.21248,0.19213 -0.30683,0.19213 -0.0943,0 -0.24482,0.0393 -0.33437,0.0871 -0.14752,0.0789 -0.10681,0.14217 0.43256,0.67201 0.32746,0.32167 0.59451,0.63789 0.59342,0.70271 -9.2e-4,0.0648 -0.17029,-0.0585 -0.37599,-0.274 -0.63769,-0.66817 -1.6175,-1.33392 -1.84942,-1.25661 -0.19011,0.0634 0.39284,0.68182 0.99854,1.05932 0.73953,0.46094 1.30585,1.09089 1.92252,2.13858 0.51128,0.86858 0.85044,1.75366 1.23872,3.23246 0.3857,1.46892 0.40212,2.08201 0.13494,5.03805 -0.24531,2.71417 -0.34136,5.62267 -0.19164,5.80308 0.11235,0.13536 0.3981,0.17118 0.63636,0.0798 z m -0.42482,-1.54925 c 0.0323,-0.69273 0.13201,-2.64457 0.22187,-4.33743 0.17885,-3.36919 0.17523,-3.44017 -0.26275,-5.16229 -0.32301,-1.27015 -0.75087,-2.40306 -1.28525,-3.4032 -0.44453,-0.83195 -0.51762,-1.10931 -0.14325,-0.54361 0.55511,0.83884 1.13065,2.25815 1.5106,3.72513 0.47693,1.84156 0.48231,1.93512 0.3183,5.53828 -0.24335,5.34603 -0.2493,5.44263 -0.33545,5.44263 -0.052,0 -0.061,-0.46519 -0.0241,-1.25951 z m 0.0403,-11.79061 c -0.16574,-0.50119 -0.3345,-0.98481 -0.37503,-1.0747 -0.0555,-0.12315 -0.0467,-0.14676 0.036,-0.0957 0.14965,0.0925 0.38595,0.648 0.59088,1.38917 0.26442,0.95617 0.0854,0.80058 -0.25173,-0.21873 z m 0.21973,-2.05817 c -0.80761,-0.28765 -2.16693,-1.10779 -2.56487,-1.54747 -0.31306,-0.34594 -0.047,-0.23405 0.5224,0.21968 0.64259,0.51206 1.61415,1.04596 2.32099,1.27548 0.24656,0.08 0.4483,0.16168 0.4483,0.18139 0,0.0739 -0.31293,0.0184 -0.72682,-0.12908 z m -5.76288,14.03684 c 1.22052,-0.19781 3.66613,-0.86906 3.87194,-1.06276 0.0982,-0.0923 -0.24802,-0.85474 -0.38747,-0.85336 -0.0614,6.6e-4 -0.36131,0.0795 -0.66657,0.1752 -0.78108,0.245 -1.91581,0.48983 -3.14603,0.67874 -0.57966,0.0891 -1.11168,0.2098 -1.18227,0.26837 -0.0939,0.078 -0.11387,0.19702 -0.0744,0.44405 0.0297,0.18566 0.074,0.37002 0.0986,0.40973 0.0666,0.1078 0.57847,0.0871 1.48617,-0.06 z m -3.67157,-0.40153 c 1.2e-4,-0.19961 -0.0414,-1.07381 -0.0923,-1.94265 l -0.0925,-1.57973 -0.37732,-0.38313 -0.37734,-0.38314 v 2.32578 2.32578 h 0.46966 0.46965 l 2.4e-4,-0.36291 z m -0.70614,-1.66373 c -0.0548,-2.08709 0.0505,-2.75136 0.13692,-0.86303 0.0768,1.67783 0.0708,2.71889 -0.0157,2.71889 -0.0398,0 -0.0942,-0.83515 -0.12116,-1.85586 z m 1.80718,1.4289 c 0.28139,0 0.32378,-0.0295 0.39675,-0.27628 0.0466,-0.1572 0.17373,-0.32161 0.29519,-0.38144 0.11741,-0.0578 0.20963,-0.14483 0.20494,-0.19335 -0.005,-0.0485 -0.0143,-0.19892 -0.0214,-0.33423 -0.0108,-0.20733 -0.0857,-0.28288 -0.47692,-0.48081 -0.25528,-0.12914 -0.68367,-0.45074 -0.95202,-0.71465 l -0.48789,-0.47983 0.0542,0.68313 c 0.0298,0.37571 0.0791,1.14928 0.10962,1.71903 l 0.0554,1.0359 0.25351,-0.28874 c 0.20201,-0.23008 0.31751,-0.28873 0.56858,-0.28873 z m 7.71648,-1.25951 c 0.0261,-0.5988 0.0372,-1.09924 0.0246,-1.11209 -0.0125,-0.0129 -0.1915,0.0728 -0.39783,0.19048 -0.20633,0.1176 -0.6591,0.27727 -1.00618,0.35479 -0.62012,0.13854 -0.6267,0.1428 -0.38053,0.2463 0.15503,0.0652 0.3793,0.30805 0.58834,0.63711 0.34192,0.53821 0.61749,0.76251 0.94449,0.76873 0.17105,0.003 0.18199,-0.049 0.22706,-1.08532 z m -5.33668,0.65961 c 0.59804,-0.095 1.57726,-0.29073 2.17608,-0.43471 1.02099,-0.24548 1.08872,-0.27456 1.08872,-0.46748 0,-0.16251 -0.0449,-0.20573 -0.21347,-0.20573 -0.11742,0 -0.21348,-0.0384 -0.21348,-0.0855 0,-0.047 0.18252,-0.0858 0.4056,-0.0865 0.63935,-0.002 1.55756,-0.28961 2.00459,-0.62879 0.11933,-0.0905 0.17246,-0.39432 0.27954,-1.59824 0.246,-2.76592 0.25009,-2.96817 0.0786,-3.87805 l -0.15859,-0.84209 -0.10673,0.52725 c -0.24272,1.19928 -0.76127,1.88076 -1.69886,2.23263 -0.68996,0.25894 -1.68482,0.22416 -2.28408,-0.0798 -1.09312,-0.55457 -1.65728,-1.8484 -1.42711,-3.27289 0.27978,-1.73153 1.22945,-2.80614 2.5923,-2.93341 0.46931,-0.0437 0.61523,-0.0208 1.00857,0.1593 0.25292,0.11579 0.5919,0.34183 0.7533,0.50231 l 0.29344,0.29178 -0.29396,-0.53963 c -0.3495,-0.6416 -1.07604,-1.57552 -1.49312,-1.9193 -0.27035,-0.22285 -0.32507,-0.23723 -0.57451,-0.15105 -0.15164,0.0524 -0.75602,0.41559 -1.34309,0.80711 -0.58706,0.39151 -1.23148,0.77481 -1.43203,0.85175 -0.41332,0.15859 -0.76001,0.18155 -0.80281,0.0532 -0.018,-0.0537 -0.1652,-0.0333 -0.38645,0.0537 -0.45207,0.17757 -0.62355,0.11578 -0.62355,-0.22472 0,-0.34131 0.19104,-0.70391 0.48859,-0.92737 l 0.23722,-0.17816 -0.29886,0.0505 c -0.3448,0.0582 -0.52987,0.24518 -0.83067,0.83877 -0.16757,0.33071 -0.18932,0.43282 -0.0986,0.46307 0.23009,0.0767 0.57351,0.50041 0.67176,0.82883 0.14423,0.48204 0.20272,2.26862 0.10043,3.066 -0.0481,0.375 -0.0749,0.69445 -0.0594,0.70991 0.0155,0.0155 0.13269,-0.29136 0.26056,-0.68182 0.3659,-1.11738 0.51332,-1.17304 0.80358,-0.30334 0.24334,0.72909 0.68305,1.27855 1.58811,1.9844 1.1732,0.91499 1.695,1.46828 1.82602,1.93617 0.2246,0.8022 -0.16588,1.98747 -0.84676,2.57028 -0.49995,0.42792 -1.07415,0.60486 -1.98469,0.61153 l -0.74716,0.005 -1e-5,0.26685 c -2e-5,0.29659 0.0882,0.80054 0.14016,0.80054 0.0183,0 0.52273,-0.0778 1.12075,-0.17295 z m 0.93501,-1.33068 c 0.8423,-0.42106 1.36902,-1.39623 1.28718,-2.38312 -0.0522,-0.62922 -0.34475,-1.0373 -1.24143,-1.73154 -1.46833,-1.13682 -1.94043,-1.68072 -2.21505,-2.55189 -0.0787,-0.24986 -0.17148,-0.45429 -0.20604,-0.45429 -0.0346,0 -0.14806,0.25938 -0.2522,0.57639 -0.10415,0.31701 -0.24277,0.68205 -0.30803,0.81121 -0.11745,0.23245 -0.11583,0.23483 0.16107,0.23599 0.15384,6.4e-4 0.36617,0.0243 0.47183,0.0526 0.37776,0.10122 0.18203,0.1592 -0.44463,0.13169 l -0.63717,-0.0279 0.18301,0.33409 0.18299,0.3341 -0.17253,0.33431 c -0.21616,0.4188 -0.64697,0.71857 -1.03267,0.71857 -0.22223,0 -0.35858,-0.0682 -0.55457,-0.27753 l -0.25989,-0.27752 0.0635,0.51082 c 0.0889,0.71468 0.26916,1.11253 0.65337,1.44142 0.41207,0.3527 0.83007,0.4814 1.56339,0.4814 0.83246,0 1.64072,-0.21347 2.56666,-0.67784 0.44936,-0.22537 0.83558,-0.37972 0.85829,-0.34301 0.0594,0.096 -0.77674,0.98779 -1.18948,1.26859 -0.43213,0.294 -1.08846,0.52078 -1.50719,0.52078 -0.39887,0 -0.974,-0.20087 -1.3132,-0.45867 -0.14413,-0.10953 -0.39653,-0.26686 -0.56091,-0.34964 -0.16438,-0.0827 -0.40455,-0.24935 -0.53369,-0.37019 -0.28286,-0.26466 -0.28552,-0.24424 -0.05,0.3851 0.12409,0.33169 0.33948,0.65607 0.65589,0.98779 0.8444,0.88526 1.36648,1.10131 2.55072,1.05558 0.65995,-0.0255 0.86672,-0.0702 1.28086,-0.27727 z m -2.3286,-3.45648 c -0.088,-0.14239 0.10991,-0.30566 0.2277,-0.18785 0.0985,0.0985 0.0369,0.28068 -0.095,0.28068 -0.0414,0 -0.10112,-0.0418 -0.13268,-0.0927 z m 0.61888,-0.47412 c -0.0797,-0.0797 0.0166,-0.20156 0.15926,-0.20156 0.0677,0 0.12305,0.0576 0.12305,0.12808 0,0.12862 -0.18026,0.17554 -0.28231,0.0735 z m -0.87506,-0.29439 c -0.088,-0.14239 0.1099,-0.30566 0.22772,-0.18787 0.0985,0.0985 0.0368,0.2807 -0.0951,0.2807 -0.0414,0 -0.10113,-0.0418 -0.13268,-0.0929 z m 13.17476,3.40969 c 0.38657,-0.11809 0.845,-0.68851 1.01159,-1.25869 0.20593,-0.70486 0.13286,-2.1499 -0.15066,-2.97966 -0.117,-0.34243 -0.18377,-0.64051 -0.14838,-0.66239 0.0916,-0.0565 0.40968,0.94251 0.53592,1.68295 0.0998,0.5857 0.11414,0.61341 0.21821,0.42315 0.55133,-1.00802 -0.35246,-3.78946 -1.7098,-5.262 -0.96419,-1.04603 -2.80434,-1.71084 -3.90783,-1.41183 -0.26608,0.0722 -0.40016,0.0749 -0.46538,0.0101 -0.10332,-0.10332 -0.57331,-0.12632 -0.5633,-0.0276 0.004,0.0352 0.0553,0.19853 0.11496,0.36291 0.10107,0.27849 0.11267,0.28578 0.17005,0.10675 0.0339,-0.10568 0.10151,-0.19213 0.15034,-0.19213 0.0527,0 0.062,0.0608 0.0229,0.14943 -0.38672,0.87797 -0.48922,1.37868 -0.52879,2.58306 -0.0349,1.06419 -0.0148,1.34568 0.14241,2.00324 0.35942,1.50214 1.09603,2.60829 1.73639,2.60756 0.66011,-6.6e-4 1.11856,-0.58735 1.24848,-1.59739 l 0.0746,-0.57976 0.009,0.55503 c 0.006,0.37251 -0.0426,0.66856 -0.14782,0.90015 -0.16456,0.3623 -0.62117,0.80767 -0.82805,0.80767 -0.17133,0 -0.15786,0.0461 0.17136,0.58656 0.727,1.19343 1.61872,1.5676 2.84385,1.19329 z m -11.566,-0.57451 c 0.38317,-0.18643 1.38676,-1.01806 1.31507,-1.08976 -0.018,-0.018 -0.20183,0.0611 -0.40856,0.17555 -0.45177,0.25025 -1.29806,0.54047 -1.90044,0.65176 -0.46229,0.0855 -0.82372,0.23728 -0.82372,0.34616 0,0.23583 1.28226,0.17676 1.81765,-0.0837 z m -1.87552,-0.0437 c 0.0312,-0.0813 -0.0337,-0.13093 -0.20435,-0.15599 -0.38567,-0.0565 -0.33135,0.0434 0.14635,0.2695 0.007,0.003 0.0328,-0.048 0.058,-0.11351 z m -1.81833,-0.42947 c -0.0483,-0.12697 -0.0878,-0.31854 -0.0878,-0.42567 0,-0.10714 -0.067,-0.32559 -0.14894,-0.48545 -0.10108,-0.19726 -0.15875,-0.54855 -0.17946,-1.09339 -0.024,-0.63101 -0.064,-0.83867 -0.18688,-0.97059 -0.1539,-0.16517 -0.15745,-0.1626 -0.22526,0.16233 -0.0378,0.18158 -0.0692,0.67599 -0.0694,1.09866 -6.4e-4,0.85494 0.0845,1.08718 0.61334,1.67249 0.33964,0.37595 0.41579,0.38708 0.28445,0.0417 z m -0.87591,-0.66806 c -0.29803,-0.55792 -0.2535,-1.5711 0.13416,-3.05273 0.16589,-0.63402 0.34352,-1.53702 0.39473,-2.00667 0.0913,-0.83693 0.32922,-1.98935 0.50695,-2.455 0.11258,-0.29495 0.0815,-0.29326 -0.37414,0.0203 -0.88829,0.61116 -1.81456,2.12305 -2.14564,3.50216 -0.24063,1.00238 -0.19511,2.54444 0.0725,2.45525 0.0548,-0.0183 0.13326,-0.1651 0.17432,-0.32628 0.041,-0.16118 0.11529,-0.33149 0.16497,-0.37846 0.0628,-0.0594 0.0739,-0.0204 0.0363,0.1281 -0.16438,0.64934 -0.15891,1.07971 0.018,1.41432 0.24048,0.45477 0.43971,0.69499 0.74139,0.89385 0.4122,0.2717 0.49464,0.21363 0.27647,-0.19476 z m 1.70326,-1.31672 c 0.32634,-0.15486 0.62107,-0.5594 0.62159,-0.85315 3.2e-4,-0.26181 -0.46441,-0.62698 -0.7961,-0.62536 -0.18219,9.2e-4 -0.23341,0.0251 -0.15634,0.0739 0.0872,0.0553 0.0528,0.11665 -0.14438,0.25708 -0.14247,0.10143 -0.28309,0.26029 -0.31251,0.353 -0.0743,0.23383 -0.21279,0.21139 -0.21279,-0.0345 0,-0.22266 0.18826,-0.43033 0.29908,-0.32992 0.0385,0.0349 0.0436,0.0176 0.0117,-0.0383 -0.0319,-0.0558 0.0101,-0.14111 0.0931,-0.18953 0.0902,-0.0524 0.10652,-0.0891 0.0407,-0.0906 -0.0609,-9.2e-4 -0.20493,0.0917 -0.32021,0.20699 -0.43948,0.43948 -0.1097,1.36165 0.50333,1.40743 0.0398,0.003 0.2077,-0.0588 0.37298,-0.13719 z m 6.55158,-0.42787 c 0.63971,-0.20809 1.18338,-0.79526 1.40716,-1.51976 0.43671,-1.41393 0.0528,-3.02776 -0.93075,-3.91201 -0.54384,-0.48897 -0.88813,-0.60569 -1.62988,-0.55263 -0.96589,0.0691 -1.58458,0.54028 -2.04943,1.5608 -0.44886,0.98544 -0.54022,2.29021 -0.21488,3.06887 0.54793,1.31137 1.9016,1.84793 3.41778,1.35473 z m -2.23189,-0.37665 c -0.46138,-0.11047 -0.8506,-0.47512 -0.92384,-0.86545 -0.0314,-0.1676 -0.0117,-0.52378 0.0438,-0.79151 0.11402,-0.54925 0.49287,-1.04335 0.97563,-1.27243 0.55089,-0.26141 1.43604,-0.13928 1.75228,0.24176 0.13171,0.15872 0.44134,0.17524 0.58533,0.0312 0.0797,-0.0797 0.10247,-0.0726 0.10247,0.0323 0,0.0741 -0.0576,0.18254 -0.1281,0.241 -0.18271,0.15163 -0.15829,0.284 0.0426,0.23145 0.17665,-0.0462 0.23589,0.0598 0.0855,0.15281 -0.14863,0.0918 -0.0925,0.21348 0.0986,0.21348 0.17286,0 0.17545,0.009 0.0426,0.15616 -0.0878,0.097 -0.14131,0.30291 -0.14131,0.54352 0,0.44147 -0.20246,0.76103 -0.6184,0.97613 -0.31902,0.16497 -1.42263,0.22804 -1.91735,0.10957 z m 1.77548,-0.4073 c 0.28647,-0.28646 0.33314,-0.38573 0.33206,-0.70626 -0.002,-0.47337 -0.13934,-0.74401 -0.50361,-0.98948 -0.52845,-0.35612 -1.32203,-0.15571 -1.60605,0.4056 -0.0587,0.116 -0.1073,0.37288 -0.10799,0.57085 -9.2e-4,0.28191 0.0562,0.42539 0.26376,0.66178 0.14576,0.16601 0.2254,0.30184 0.17697,0.30184 -0.14018,0 -0.43335,-0.42101 -0.53923,-0.77437 -0.0857,-0.28588 -0.0731,-0.37284 0.10678,-0.73418 0.23809,-0.47851 0.62204,-0.73489 1.10054,-0.73489 0.47851,0 0.86246,0.25638 1.10054,0.73489 0.18528,0.37239 0.1943,0.44254 0.0986,0.76709 -0.0579,0.19646 -0.18812,0.44888 -0.28932,0.56092 l -0.18401,0.20373 0.18774,-0.0976 c 0.29758,-0.15476 0.45268,-0.44587 0.45268,-0.84959 0,-0.46399 -0.19518,-0.88708 -0.5829,-1.26365 -1.03524,-1.00541 -2.74729,-0.0276 -2.54836,1.45542 0.0762,0.5677 0.48304,0.77469 1.58113,0.80432 0.62408,0.0168 0.62907,0.0152 0.96065,-0.31638 z m -1.17631,0.10657 c -0.90891,-0.44822 -0.48831,-1.83237 0.51931,-1.709 0.85762,0.105 1.1078,1.22784 0.37336,1.67563 -0.33499,0.20423 -0.53133,0.21157 -0.89267,0.0335 z m 0.81752,-0.91879 c 0.12627,-0.15215 0.0316,-0.3951 -0.15387,-0.3951 -0.22995,0 -0.35477,0.17217 -0.25711,0.35465 0.0999,0.18665 0.27531,0.20391 0.41098,0.0405 z m 0.39324,-3.60032 c -0.1409,-0.0645 -0.37338,-0.11904 -0.51662,-0.12117 -0.32486,-0.005 -0.5009,-0.15701 -0.3675,-0.31776 0.20996,-0.25297 0.86734,-0.048 1.12958,0.35226 0.15963,0.24362 0.12444,0.25604 -0.24546,0.0867 z m -7.08745,3.3121 c 0,-0.48134 0.0329,-0.87519 0.0732,-0.87526 0.0402,-7e-5 0.051,-0.0578 0.0241,-0.12821 -0.027,-0.0704 -0.007,-0.12808 0.0434,-0.12808 0.051,0 0.0726,-0.0769 0.048,-0.17079 -0.03,-0.11467 -0.003,-0.17078 0.0833,-0.17078 0.0704,0 0.22568,-0.0769 0.34509,-0.17079 0.2877,-0.22629 0.55471,-0.21556 0.85163,0.0344 l 0.24369,0.20504 -0.0284,-0.61065 c -0.0398,-0.85638 -0.17058,-1.4599 -0.37168,-1.71555 -0.21086,-0.26808 -0.54745,-0.29209 -0.61241,-0.0436 -0.0335,0.12765 -0.007,0.17117 0.0969,0.16094 0.29805,-0.0292 0.29619,0.0149 -0.014,0.33255 -0.34149,0.34971 -0.45781,0.69253 -1.0853,3.19857 -0.2631,1.05072 -0.26767,1.09817 -0.12136,1.25984 0.15027,0.16605 0.15364,0.16525 0.28794,-0.0671 0.10013,-0.17326 0.1359,-0.46547 0.1359,-1.11029 z m 0.47524,0.57424 c -0.20021,-0.68007 -0.006,-1.34586 0.4881,-1.67605 0.29812,-0.19909 0.24068,-0.33872 -0.1038,-0.25226 -0.24347,0.0611 -0.4082,0.30518 -0.58243,0.86295 -0.17977,0.5755 -0.24025,0.9528 -0.17852,1.11365 0.0665,0.17337 0.42825,0.12698 0.37665,-0.0483 z m 0.24281,-0.14652 c -0.18394,-0.4838 0.15901,-1.2177 0.56902,-1.2177 0.21806,0 0.25006,-0.0566 0.13484,-0.23815 -0.10989,-0.17321 -0.4976,0.0178 -0.69572,0.34274 -0.23469,0.38494 -0.22994,1.34704 0.007,1.34704 0.0408,0 0.0341,-0.10526 -0.0147,-0.23393 z m 0.86168,-0.63705 c 0,-0.13794 -0.0253,-0.16262 -0.0949,-0.0927 -0.0522,0.0522 -0.0691,0.13679 -0.0376,0.18785 0.0883,0.14292 0.13268,0.11115 0.13268,-0.095 z m -1.09351,-3.25043 c 0.14346,-0.45864 0.39055,-1.04929 0.5491,-1.31256 0.33106,-0.54979 0.32913,-0.54339 0.16337,-0.54339 -0.19914,0 -0.7172,1.18755 -0.99096,2.27158 -0.25646,1.01541 -0.33241,1.61253 -0.1075,0.84519 0.0688,-0.23482 0.24251,-0.80221 0.38599,-1.26082 z m 1.72078,-0.87396 c 0.39154,-0.16359 0.57699,-0.16494 0.51514,-0.004 -0.0384,0.10012 -3.3e-4,0.11058 0.19481,0.0538 0.50695,-0.14741 0.86908,-0.34232 1.77955,-0.95778 0.51662,-0.34922 1.04921,-0.68282 1.18354,-0.74132 l 0.24423,-0.10637 -0.33974,-0.24613 c -0.41985,-0.30414 -0.64179,-0.60978 -0.87688,-1.20758 -0.28591,-0.72703 -0.58966,-0.94905 -0.85725,-0.62661 -0.11227,0.13526 -0.10822,0.15725 0.14026,0.76166 0.059,0.14339 0.0257,0.13345 -0.20701,-0.0619 -0.52259,-0.43867 -1.72598,-0.64228 -2.12874,-0.36017 -0.47698,0.33409 -0.0905,0.63659 0.93411,0.73113 1.08882,0.10043 1.12457,0.22685 0.0506,0.17908 -0.77092,-0.0343 -0.93559,-0.0158 -1.31552,0.14763 -0.7768,0.33419 -1.28672,1.06989 -0.88905,1.28271 0.13786,0.0738 0.36637,0.0641 0.96814,-0.041 1.10574,-0.19313 2.24177,-0.26115 2.3174,-0.13878 0.0426,0.0691 -0.10941,0.0973 -0.52591,0.0973 -0.9233,0 -1.6011,0.39859 -1.75726,1.03337 -0.0893,0.36321 0.061,0.41727 0.56951,0.2048 z"
         id="path4952-2"
         sodipodi:nodetypes="cssssssssscssscsssssssssssssscsssssscsssssssssssscssssssssssssssssscsssssssssssscssssscscccscsssscsscssssscssssscccsssssssscssssssssssssssscssscsssssscsssssscsssssssssssssssscsscssssssssscsssssccccssssscsssssscsscssscssssssssssscssscsssscssscccssssccssssssssssssssssscsccssssssccsssssssssscsssssccssssssssssssssscssssssssssssssssssssscssssccssssssssssssssssssssssssssscssssssscscsscccssssssssssssssssssssscsssscsssssscsscsssssssssssssccsscsssscsssssssccssssssssssssssscsssscsscssssssssccccccccsssssscsssssscsscsccssssssssssssssssscssssssscssssssssscsssssssssssscsssssssssssssscccssscssssssssssssssssssssssssssssssssssssssssssscsccssssssssssssscsssssssssscsssssssssssccsccssssssscscssssssssssscsssssssssssssssssssssssssscssssssssssssssssssscssssssscssssssssccssssssssssssssssssssssssscsscssssssssssssssss" />
      <circle
         style="fill:none;stroke:#ff0000;stroke-width:0.1;stroke-dasharray:none"
         id="path788-8-1-8-1-9-2-56-8-1-2"
         cx="-154.12056"
         cy="-107.17849"
         r="19.954653" />
      <ellipse
         style="fill:none;stroke:#ff00ff;stroke-width:0.1;stroke-dasharray:none;stroke-opacity:1"
         id="path1138-9-4-0-0-1-2-4-9-7-8"
         cx="-154.12056"
         cy="-107.17849"
         rx="18.492125"
         ry="18.492126" />
      <circle
         style="fill:none;stroke:#0000ff;stroke-width:0.1;stroke-linecap:round;stroke-dasharray:none;stroke-opacity:1;paint-order:markers stroke fill"
         id="path13019-1-33-6-2-4-4"
         cx="-154.12056"
         cy="-122.1895"
         r="2" />
    </g>
  </g>
</svg>
