<?xml version="1.0" encoding="UTF-8" standalone="no"?>
<!-- Created with Inkscape (http://www.inkscape.org/) -->

<svg
   width="41.008999mm"
   height="41.008999mm"
   viewBox="0 0 41.008999 41.008999"
   version="1.1"
   id="svg1"
   inkscape:version="1.4.2 (f4327f4, 2025-05-13)"
   sodipodi:docname="155.svg"
   xmlns:inkscape="http://www.inkscape.org/namespaces/inkscape"
   xmlns:sodipodi="http://sodipodi.sourceforge.net/DTD/sodipodi-0.dtd"
   xmlns="http://www.w3.org/2000/svg"
   xmlns:svg="http://www.w3.org/2000/svg">
  <sodipodi:namedview
     id="namedview1"
     pagecolor="#ffffff"
     bordercolor="#000000"
     borderopacity="0.25"
     inkscape:showpageshadow="2"
     inkscape:pageopacity="0.0"
     inkscape:pagecheckerboard="0"
     inkscape:deskcolor="#d1d1d1"
     inkscape:document-units="mm"
     inkscape:zoom="1.5878906"
     inkscape:cx="108.3198"
     inkscape:cy="200.26568"
     inkscape:window-width="1050"
     inkscape:window-height="1081"
     inkscape:window-x="3737"
     inkscape:window-y="0"
     inkscape:window-maximized="0"
     inkscape:current-layer="layer1" />
  <defs
     id="defs1" />
  <g
     inkscape:label="Layer 1"
     inkscape:groupmode="layer"
     id="layer1"
     transform="translate(-0.7937635,-0.79375582)">
    <g
       id="g11393"
       transform="translate(344.04854,78.491191)">
      <path
         style="fill:#000000;stroke-width:0.1;stroke-dasharray:none"
         d="m -324.2468,-42.09359 c -1.33571,-0.70251 -1.56219,-0.84824 -2.76072,-1.77651 -1.20226,-0.93116 -1.8263,-1.57211 -1.6742,-1.7196 0.0702,-0.0681 0.48135,0.21207 1.07404,0.73196 1.08672,0.95325 2.35523,1.81812 3.62655,2.47259 l 0.86584,0.44572 1.11468,-0.55729 c 1.33002,-0.66494 2.56724,-1.52075 3.61369,-2.49965 0.7266,-0.6797 0.9219,-0.76572 0.9219,-0.40604 0,0.22036 -1.67263,1.6339 -2.84701,2.40599 -0.75936,0.49925 -2.67934,1.4994 -2.83113,1.47478 -0.0128,-0.002 -0.50948,-0.25946 -1.10364,-0.57195 z m 0.0606,-0.57585 c -1.24365,-0.66764 -2.56124,-1.60518 -3.60158,-2.56273 -0.6403,-0.58934 -0.74785,-0.74001 -0.60007,-0.84063 0.099,-0.0674 0.31058,-0.12343 0.47012,-0.12444 0.15954,-9.5e-4 0.25659,-0.0353 0.21565,-0.0763 -0.0409,-0.0409 -0.26049,-0.0395 -0.4879,0.003 -0.30881,0.0579 -0.43255,0.15352 -0.48878,0.37756 -0.12269,0.48884 -0.92096,1.19256 -1.55378,1.36974 -0.46046,0.12892 -0.66291,0.13052 -1.07194,0.008 -0.98758,-0.29469 -1.70099,-1.42181 -1.63006,-2.57536 0.0224,-0.36407 -0.0491,-0.63724 -0.25345,-0.96781 -0.37801,-0.61163 -0.45766,-1.57511 -0.18849,-2.27992 0.54849,-1.43621 2.33671,-1.94461 3.631,-1.03231 l 0.54485,0.38405 1.03655,-0.12495 c 3.23985,-0.39051 6.82513,-0.39046 10.13714,1.2e-4 1.12498,0.13268 1.18805,0.12788 1.441,-0.10975 0.85487,-0.80311 2.31187,-0.79586 3.18205,0.0158 0.81541,0.7606 0.98445,2.21731 0.36683,3.16111 -0.23643,0.36129 -0.29257,0.5754 -0.2534,0.96649 0.14787,1.47663 -1.10392,2.82418 -2.43769,2.62417 -0.67389,-0.10106 -1.41047,-0.64394 -1.69227,-1.24724 -0.22279,-0.47699 -0.23294,-0.48244 -1.24489,-0.66885 -2.4519,-0.45166 -5.33587,-0.5131 -7.88881,-0.16808 l -0.98701,0.13339 0.55411,0.4924 c 0.96598,0.85839 2.19052,1.72423 3.10242,2.19366 l 0.88293,0.45452 0.57777,-0.27964 c 0.82211,-0.39791 2.01098,-1.21018 2.91837,-1.9939 0.71196,-0.61493 0.82045,-0.66901 1.24024,-0.61824 0.25302,0.0306 0.49608,0.0926 0.54014,0.13787 0.12111,0.12431 -1.6227,1.72228 -2.57803,2.36241 -0.68254,0.45734 -2.68185,1.54261 -2.82705,1.53457 -0.0199,-10e-4 -0.49512,-0.24834 -1.05597,-0.54942 z m -5.46989,-2.92181 c 0.21924,-0.2125 0.44684,-0.55448 0.50577,-0.75994 0.0918,-0.32011 0.19268,-0.39551 0.70487,-0.52687 1.50423,-0.38576 3.67014,-0.5544 6.1792,-0.48113 2.25367,0.0658 4.77814,0.3768 5.01972,0.61837 0.0399,0.0399 0.18661,0.29968 0.32598,0.57723 0.62678,1.24823 2.05024,1.41265 2.7951,0.32286 0.2556,-0.37395 0.27926,-0.51074 0.22292,-1.28859 -0.0347,-0.47863 -0.0194,-0.87023 0.0339,-0.87023 0.0533,0 0.19222,-0.14537 0.30865,-0.32306 0.94665,-1.44477 -0.29042,-3.28354 -1.88722,-2.80513 -0.27657,0.0829 -0.6444,0.30219 -0.8174,0.48739 l -0.31456,0.33673 -1.31316,-0.1938 c -1.80892,-0.26697 -8.4031,-0.26541 -10.31551,0.002 l -1.32035,0.18493 -0.36009,-0.33778 c -0.68345,-0.64109 -1.37041,-0.74844 -2.11421,-0.3304 -0.98053,0.55108 -1.20916,1.8324 -0.48726,2.73071 0.33566,0.41768 0.35026,0.4778 0.22768,0.93707 -0.1815,0.67998 0.0326,1.34072 0.59424,1.83384 0.3948,0.34664 0.4961,0.37905 1.02557,0.32817 0.45482,-0.0437 0.67753,-0.14371 0.98613,-0.44281 z m -1.44756,0.26136 c -0.14034,-0.023 -0.3834,-0.18256 -0.54014,-0.35466 -0.2549,-0.27987 -0.25964,-0.30275 -0.0449,-0.21669 0.76559,0.30683 1.31531,0.21742 1.9183,-0.31201 0.48598,-0.42669 0.53922,-0.35174 0.15224,0.21433 -0.32528,0.47581 -0.94914,0.75679 -1.48548,0.66903 z m 15.08264,-0.18252 c -0.27311,-0.1382 -0.84383,-0.84746 -0.84383,-1.04868 0,-0.0476 0.19062,0.0933 0.42358,0.31304 0.41865,0.39484 1.0635,0.61281 1.46835,0.49633 0.11474,-0.033 0.31666,-0.0979 0.44869,-0.14421 0.18577,-0.0651 0.16389,-0.0139 -0.0967,0.22645 -0.37291,0.34395 -0.91137,0.40435 -1.40007,0.15707 z m -0.42372,-1.65846 c -0.26406,-0.0591 -0.58815,-0.13234 -0.72018,-0.16275 -0.22139,-0.051 -0.24006,-0.15373 -0.24006,-1.32067 v -1.26538 l 0.4201,0.0692 c 0.7111,0.11709 0.73619,0.13799 0.67119,0.55904 -0.20608,1.33479 -0.20844,1.53197 -0.0184,1.53197 0.11987,0 0.18739,-0.10813 0.18739,-0.30008 0,-0.32067 0.0318,-0.33653 0.45012,-0.22443 0.23333,0.0625 0.27007,0.15214 0.27007,0.65854 0,0.65458 -0.0424,0.67345 -1.02027,0.45458 z m -13.97371,-0.9187 c -0.0146,-0.51164 -0.0363,-1.06394 -0.0482,-1.22735 -0.0192,-0.26283 0.0475,-0.31342 0.57845,-0.43859 1.26901,-0.29918 1.63062,-0.15603 1.64174,0.64994 0.009,0.61836 -0.14986,0.82668 -0.75176,0.98875 -0.42452,0.11431 -0.45686,0.15234 -0.39453,0.46396 0.0566,0.28307 0.0211,0.35196 -0.21378,0.41485 -0.74331,0.199 -0.78309,0.15727 -0.81187,-0.85156 z m 1.25038,-0.87023 c 0,-0.15404 -0.0675,-0.30258 -0.15003,-0.33009 -0.099,-0.033 -0.15004,0.0793 -0.15004,0.33009 0,0.25073 0.0511,0.36308 0.15004,0.33009 0.0825,-0.0275 0.15003,-0.17605 0.15003,-0.33009 z m 1.02603,1.17031 c 0.003,-0.14854 0.0977,-0.72919 0.21005,-1.29034 l 0.2043,-1.02027 0.60016,-0.074 c 0.33009,-0.0407 0.64183,-0.0368 0.69277,0.009 0.11421,0.1018 0.74135,2.27257 0.67526,2.33732 -0.0262,0.0257 -0.29075,0.0652 -0.58783,0.0877 -0.52644,0.0399 -0.53954,0.0324 -0.5165,-0.29668 0.0182,-0.25985 -0.0233,-0.32849 -0.18005,-0.29785 -0.14148,0.0276 -0.19252,0.13514 -0.16714,0.35196 0.0282,0.24052 -0.0269,0.32915 -0.24007,0.38624 -0.52216,0.13985 -0.697,0.0911 -0.69095,-0.19271 z m 1.11646,-1.23417 c -0.0952,-0.24812 -0.16197,-0.21888 -0.16197,0.071 0,0.13593 0.0517,0.21522 0.11479,0.1762 0.0631,-0.039 0.0844,-0.15023 0.0472,-0.24714 z m 7.46003,1.36563 c -0.43563,-0.23827 -0.54018,-0.48973 -0.53831,-1.2947 0.002,-0.90291 0.0548,-1.02357 0.52555,-1.20253 0.46233,-0.17578 1.07685,-0.043 1.46474,0.31649 0.30213,0.28001 0.31618,0.34243 0.25849,1.14867 -0.0455,0.63594 -0.11627,0.89299 -0.27851,1.01163 -0.26143,0.19116 -1.098,0.20311 -1.43196,0.0204 z m 0.75592,-1.21175 c -0.0196,-0.4126 -0.0898,-0.75019 -0.15577,-0.75019 -0.066,0 -0.13611,0.33759 -0.15576,0.75019 -0.0296,0.6217 -0.003,0.7502 0.15576,0.7502 0.1587,0 0.18539,-0.1285 0.15577,-0.7502 z m -6.0144,0.10092 c 0.0521,-0.73856 0.0337,-1.03116 -0.0651,-1.03116 -0.0758,0 -0.13786,0.13504 -0.13786,0.30008 0,0.24006 -0.06,0.30008 -0.30008,0.30008 -0.27424,0 -0.30008,-0.0451 -0.30008,-0.52383 v -0.52382 l 0.5569,-0.0763 c 0.30629,-0.042 0.87344,-0.0763 1.26033,-0.0763 h 0.70343 v 0.60015 c 0,0.56015 -0.02,0.60016 -0.30008,0.60016 -0.24006,0 -0.30008,-0.06 -0.30008,-0.30008 0,-0.16504 -0.0617,-0.30008 -0.13718,-0.30008 -0.0969,0 -0.11787,0.28168 -0.0714,0.96025 l 0.0658,0.96026 h -0.33892 c -0.18641,0 -0.42209,0.0319 -0.52372,0.0709 -0.16086,0.0617 -0.17537,-0.0626 -0.11202,-0.96026 z m 3.39799,0.52925 c 0,-0.35302 -0.0491,-0.48013 -0.18549,-0.48013 -0.14697,0 -0.16912,0.0872 -0.10667,0.42011 l 0.0788,0.42011 h -0.5235 -0.52349 v -1.27538 -1.27539 l 0.8815,0.0667 c 0.59167,0.0447 0.95672,0.13475 1.11029,0.27372 0.24214,0.21914 0.31127,0.8249 0.10844,0.95026 -0.0746,0.0461 -0.0792,0.15149 -0.0122,0.27715 0.10459,0.19613 0.17319,0.64432 0.14586,0.95297 -0.008,0.0928 -0.19641,0.15004 -0.49341,0.15004 h -0.48013 z m 0,-1.32035 c 0,-0.13336 -0.08,-0.24006 -0.18005,-0.24006 -0.10002,0 -0.18005,0.1067 -0.18005,0.24006 0,0.13337 0.08,0.24007 0.18005,0.24007 0.10003,0 0.18005,-0.1067 0.18005,-0.24007 z m -10.9722,0.95105 c -0.35509,-0.422 -0.39869,-0.91296 -0.12762,-1.43713 0.10072,-0.19478 0.19524,-0.35414 0.21005,-0.35414 0.0148,0 0.0269,0.37243 0.0269,0.82762 0,0.64542 0.0504,0.88324 0.22866,1.08028 0.12577,0.13897 0.17108,0.25267 0.1007,0.25267 -0.0704,0 -0.2678,-0.16619 -0.43872,-0.3693 z m 18.1779,0.29397 c 0.002,-0.0576 0.0792,-0.20422 0.17137,-0.32584 0.24283,-0.32048 0.33812,-1.05634 0.18794,-1.45134 -0.17922,-0.47138 -0.0622,-0.53059 0.16817,-0.0851 0.22317,0.43156 0.24171,1.203 0.035,1.45749 -0.2236,0.27533 -0.5668,0.5223 -0.56251,0.4048 z m -9.95937,3.68051 c -1.12068,-0.67355 -2.39285,-1.70963 -2.18449,-1.77908 0.0759,-0.0253 0.5294,0.248 1.00771,0.60735 0.47831,0.35936 1.18023,0.82822 1.55983,1.04192 l 0.69018,0.38855 0.69018,-0.38424 c 0.3796,-0.21133 1.08067,-0.68048 1.55794,-1.04255 1.04933,-0.79605 1.41494,-0.79335 0.48214,0.004 -0.60551,0.5173 -2.53347,1.7604 -2.73026,1.7604 -0.045,0 -0.52789,-0.26816 -1.07323,-0.59591 z m -9.68776,-6.33773 c -0.13005,-0.083 -1.37879,-2.72725 -3.11598,-6.59825 -0.42178,-0.93984 -0.76686,-1.84373 -0.76686,-2.00863 0,-0.51892 0.58093,-0.99354 1.97421,-1.61294 0.7563,-0.33622 1.34491,-0.6722 1.38678,-0.79157 0.046,-0.13108 0.41483,-0.31525 1.00235,-0.50048 0.51178,-0.16136 1.09155,-0.43837 1.28993,-0.61632 0.31389,-0.28158 0.3789,-0.45392 0.50436,-1.33723 l 0.14402,-1.014 1.1403,-0.4045 c 5.03583,-1.78639 9.38833,-1.78702 14.39948,-0.002 l 1.13602,0.40463 0.14607,0.9447 c 0.18961,1.22636 0.54096,1.61051 1.84302,2.01505 l 0.90023,0.2797 0.0638,0.83562 c 0.0471,0.61658 0.0912,0.7727 0.16828,0.59556 0.17545,-0.40295 0.45271,-0.66017 0.7116,-0.66017 0.2933,0 2.78042,1.6186 3.02612,1.96937 0.37952,0.54186 0.23843,0.87617 -1.95923,4.64224 l -2.13056,3.65108 -0.51634,0.0372 c -0.41121,0.0296 -0.62691,-0.036 -1.05952,-0.32258 -0.29875,-0.19789 -0.70107,-0.39447 -0.89403,-0.43686 -0.38796,-0.0852 -0.40673,-0.13545 -0.22705,-0.60802 0.0937,-0.24651 0.0756,-0.47058 -0.0744,-0.92241 l -0.19822,-0.5968 -0.39371,1.04664 c -0.21653,0.57565 -0.45221,1.10515 -0.52372,1.17666 -0.28633,0.28633 -0.23884,-0.0497 0.1507,-1.06651 0.44058,-1.14995 0.65912,-1.98974 0.46537,-1.78825 -0.0635,0.066 -0.51311,0.63317 -0.99916,1.26033 -0.98529,1.27135 -1.03246,1.31664 -1.37136,1.31674 -0.48627,1.2e-4 -0.81772,-0.28806 -1.0312,-0.89663 l -0.21052,-0.60015 -0.009,0.458 c -0.0155,0.76401 -0.16734,0.92241 -0.88375,0.92202 -1.08463,-5.9e-4 -2.7748,-0.25183 -2.99099,-0.44461 -0.11247,-0.10028 -0.2696,-0.4733 -0.34919,-0.82894 l -0.14471,-0.64662 h -0.68469 -0.68468 l -0.15185,0.71554 c -0.0835,0.39354 -0.23943,0.79305 -0.34648,0.88779 -0.20955,0.18545 -3.4659,0.52032 -3.80275,0.39105 -0.22968,-0.0881 -0.53342,-0.79677 -0.53164,-1.24032 9.1e-4,-0.18367 0.16218,-0.84708 0.35875,-1.47424 0.19659,-0.62717 0.35802,-1.18842 0.35876,-1.24723 9.1e-4,-0.0588 -0.20923,0.1323 -0.46659,0.42467 -0.25836,0.29352 -0.77386,0.6814 -1.15106,0.86609 -0.78906,0.38637 -0.78235,0.28493 -0.13324,2.01512 0.26133,0.69659 0.3358,1.01776 0.22624,0.97571 -0.21349,-0.0819 -0.42037,-0.5033 -0.75312,-1.53397 -0.14919,-0.46212 -0.31769,-0.89063 -0.37444,-0.95225 -0.22442,-0.24368 -0.2492,0.0806 -0.0628,0.82255 0.26202,1.04311 0.25761,1.50928 -0.0143,1.5127 -0.26565,0.003 -1.04716,0.3888 -1.57816,0.7784 -0.42753,0.31368 -0.58208,0.35322 -0.81065,0.20738 z m 1.31676,-1.18121 c 0.51662,-0.17205 0.96945,-0.39135 1.00628,-0.48733 0.0368,-0.096 -0.0704,-0.68358 -0.23834,-1.30577 l -0.3053,-1.13127 0.47201,-0.1271 c 1.73121,-0.46617 2.84195,-1.50076 3.05734,-2.84774 0.16088,-1.00608 -0.40775,-2.64075 -1.19108,-3.42408 -1.0047,-1.0047 -2.12744,-1.07953 -4.18418,-0.27888 -2.7552,1.07255 -3.57627,1.55145 -3.57627,2.08593 0,0.12318 0.70648,1.75956 1.56995,3.63641 0.86347,1.87684 1.64392,3.58799 1.73433,3.80254 0.20438,0.48503 0.40307,0.49431 1.65526,0.0773 z m -1.28198,-0.14045 c -0.32196,-0.52093 -3.31964,-7.30951 -3.29198,-7.45504 0.0486,-0.25571 0.88997,-0.69691 2.79526,-1.46579 2.45586,-0.99106 3.43952,-0.95703 4.43798,0.1535 0.69033,0.76781 1.09261,1.95713 0.98093,2.90008 -0.1412,1.19217 -1.16605,2.15645 -2.71638,2.55583 -0.46313,0.1193 -0.84201,0.27247 -0.84196,0.34037 4e-5,0.0679 0.13894,0.63003 0.30865,1.24918 0.16971,0.61915 0.26273,1.17156 0.2067,1.22758 -0.12074,0.12075 -1.44547,0.58746 -1.66745,0.58746 -0.0848,0 -0.18008,-0.0419 -0.21175,-0.0932 z m 0.40351,-0.26692 c 0,-0.066 -0.054,-0.12003 -0.12003,-0.12003 -0.066,0 -0.12004,0.054 -0.12004,0.12003 0,0.066 0.054,0.12003 0.12004,0.12003 0.066,0 0.12003,-0.054 0.12003,-0.12003 z m 1.20031,-0.3601 c 0,-0.066 -0.0572,-0.12003 -0.12711,-0.12003 -0.0699,0 -0.0937,0.054 -0.0529,0.12003 0.0408,0.066 0.098,0.12004 0.12711,0.12004 0.0291,0 0.0529,-0.054 0.0529,-0.12004 z m 1.38036,-3.24084 c 0.0408,-0.066 0.017,-0.12004 -0.0529,-0.12004 -0.0699,0 -0.12711,0.054 -0.12711,0.12004 0,0.066 0.0238,0.12003 0.0529,0.12003 0.0291,0 0.0863,-0.054 0.12711,-0.12003 z m -0.80127,-1.16542 c 0.84556,-0.62845 0.10902,-2.13599 -0.90193,-1.84605 -0.59054,0.16936 -1.11188,0.48454 -1.0616,0.64179 0.0262,0.082 0.13579,0.46622 0.24351,0.85382 l 0.19584,0.70472 0.60152,-0.0578 c 0.33261,-0.032 0.74508,-0.1645 0.92266,-0.29648 z m -1.4227,-0.52761 c -0.17152,-0.637 -0.11788,-0.75014 0.43628,-0.92021 0.41294,-0.12674 0.48643,-0.11503 0.73321,0.11681 0.40142,0.37712 0.36513,0.88287 -0.0798,1.11298 -0.19478,0.10072 -0.48977,0.18313 -0.65555,0.18313 -0.25136,0 -0.32344,-0.0818 -0.43409,-0.49271 z m 1.05427,0.0426 c 0.031,-0.0941 -0.0663,-0.15003 -0.26067,-0.15003 -0.20171,0 -0.31008,0.0658 -0.31008,0.18839 0,0.22573 0.49472,0.19249 0.57075,-0.0384 z m -4.53179,-1.83047 c 0,-0.066 -0.054,-0.12004 -0.12003,-0.12004 -0.066,0 -0.12003,0.054 -0.12003,0.12004 0,0.066 0.054,0.12003 0.12003,0.12003 0.066,0 0.12003,-0.054 0.12003,-0.12003 z m 4.26112,-1.80048 c 0.0408,-0.066 0.017,-0.12003 -0.0529,-0.12003 -0.0699,0 -0.12712,0.054 -0.12712,0.12003 0,0.066 0.0238,0.12004 0.0529,0.12004 0.0291,0 0.0863,-0.054 0.12712,-0.12004 z m 20.24968,9.27243 c 0.32323,-0.37381 4.05668,-6.86102 4.05668,-7.04884 0,-0.27256 -2.67069,-2.01285 -3.01329,-1.96354 -0.23618,0.034 -0.41572,0.36088 -1.19114,2.16866 -0.50218,1.17075 -0.94335,2.15893 -0.98038,2.19596 -0.037,0.037 -0.27646,-0.54276 -0.53207,-1.28841 -0.55999,-1.6336 -0.68087,-1.70325 -1.60446,-0.92447 -0.33113,0.27921 -0.62208,0.48545 -0.64657,0.45831 -0.0245,-0.0271 -0.16684,-0.72453 -0.31637,-1.54975 -0.14952,-0.82522 -0.33914,-1.66793 -0.42139,-1.8727 l -0.14953,-0.3723 -1.47141,-0.0861 c -1.20437,-0.0704 -1.50275,-0.0547 -1.64414,0.0867 -0.1503,0.15029 -0.0774,0.72448 0.56096,4.4194 0.40353,2.33567 0.78553,4.36929 0.8489,4.51916 0.13245,0.31326 0.65547,0.54993 1.01371,0.45871 0.13461,-0.0343 0.62285,-0.55441 1.08496,-1.15584 0.46213,-0.60144 0.90718,-1.18011 0.98902,-1.28593 0.0818,-0.10582 0.17898,-0.16223 0.21586,-0.12535 0.0369,0.0369 0.27868,0.75761 0.53735,1.60163 0.25867,0.84402 0.52338,1.58767 0.58826,1.65254 0.13864,0.13864 0.8507,0.28886 1.46191,0.30841 0.27531,0.009 0.49726,-0.0622 0.61314,-0.19625 z m -1.40038,-0.25195 c -0.446,-0.099 -0.54193,-0.28884 -1.15075,-2.27697 -0.38427,-1.25485 -0.52265,-1.57121 -0.64344,-1.47096 -0.0846,0.0702 -0.63479,0.749 -1.22257,1.50835 -0.95428,1.23287 -1.1008,1.37335 -1.36875,1.31244 -0.16505,-0.0375 -0.33432,-0.10491 -0.37617,-0.14975 -0.0418,-0.0448 -0.38366,-1.86399 -0.75959,-4.04256 -0.37594,-2.17858 -0.71372,-4.11295 -0.75064,-4.29862 l -0.0671,-0.33758 1.36685,0.0835 c 0.75177,0.0459 1.38045,0.0944 1.39706,0.10771 0.0166,0.0133 0.19407,0.88386 0.39436,1.93453 0.2003,1.05067 0.38923,1.98217 0.41986,2.06999 0.0369,0.1059 0.30842,-0.0658 0.80594,-0.50959 0.41265,-0.3681 0.80583,-0.66952 0.87375,-0.66982 0.0679,-3e-4 0.35773,0.71515 0.64403,1.58988 0.28629,0.87473 0.55575,1.62917 0.5988,1.67654 0.043,0.0474 0.56345,-1.04567 1.15645,-2.42897 0.593,-1.38331 1.14615,-2.51585 1.22922,-2.51676 0.17074,-0.002 2.55117,1.55622 2.54691,1.66707 -10e-4,0.0394 -0.88703,1.58411 -1.96781,3.4326 -1.93405,3.30783 -1.97143,3.36117 -2.36787,3.37942 -0.22154,0.0102 -0.56288,-0.017 -0.75853,-0.0604 z m 0.0556,-0.43115 c 0,-0.0291 -0.054,-0.0863 -0.12003,-0.12711 -0.066,-0.0408 -0.12004,-0.017 -0.12004,0.0529 0,0.0699 0.054,0.12711 0.12004,0.12711 0.066,0 0.12003,-0.0238 0.12003,-0.0529 z m -4.32113,-1.02735 c 0,-0.066 -0.054,-0.12003 -0.12003,-0.12003 -0.066,0 -0.12004,0.054 -0.12004,0.12003 0,0.066 0.054,0.12003 0.12004,0.12003 0.066,0 0.12003,-0.054 0.12003,-0.12003 z m 8.94234,-5.16135 c 0.0408,-0.066 0.017,-0.12003 -0.0529,-0.12003 -0.0699,0 -0.12711,0.054 -0.12711,0.12003 0,0.066 0.0238,0.12003 0.0529,0.12003 0.0291,0 0.0863,-0.054 0.12712,-0.12003 z m -8.46222,-2.57359 c 0,-0.0291 -0.054,-0.0863 -0.12003,-0.12712 -0.066,-0.0408 -0.12003,-0.017 -0.12003,0.0529 0,0.0699 0.054,0.12712 0.12003,0.12712 0.066,0 0.12003,-0.0238 0.12003,-0.0529 z m -1.9205,-0.18713 c 0,-0.066 -0.0238,-0.12003 -0.0529,-0.12003 -0.0291,0 -0.0863,0.054 -0.12712,0.12003 -0.0408,0.066 -0.017,0.12003 0.0529,0.12003 0.0699,0 0.12712,-0.054 0.12712,-0.12003 z m -7.622,8.69921 c 1.67305,-0.12423 1.58921,-0.0759 1.88674,-1.08724 l 0.26191,-0.89021 h 0.62904 c 0.34597,0 0.65984,0.0498 0.69749,0.11075 0.0376,0.0609 0.12244,0.3985 0.18844,0.75019 0.066,0.3517 0.20171,0.70035 0.30157,0.77479 0.0999,0.0744 0.88856,0.20536 1.75266,0.29094 1.80471,0.17874 1.9778,0.13277 1.93983,-0.51514 -0.0211,-0.36063 -2.04221,-6.69776 -2.6992,-8.46338 l -0.23448,-0.63016 h -2.13334 c -1.90397,0 -2.15442,0.0233 -2.32939,0.21662 -0.1455,0.16079 -2.84194,8.88565 -2.84194,9.19568 0,0.0292 0.09,0.14302 0.19996,0.25299 0.15524,0.15525 0.33644,0.18493 0.81021,0.13272 0.33564,-0.037 1.04236,-0.0993 1.5705,-0.13855 z m -2.13089,-0.25358 c -0.0594,-0.10053 2.29824,-8.23232 2.54516,-8.77863 0.12209,-0.27011 0.14436,-0.27263 2.1249,-0.24006 l 2.00152,0.0329 0.82362,2.46065 c 1.27706,3.81536 2.0568,6.3625 1.97328,6.44601 -0.11193,0.11194 -2.97343,-0.18909 -3.14414,-0.33076 -0.0801,-0.0665 -0.18207,-0.41255 -0.22662,-0.76905 -0.0445,-0.3565 -0.15359,-0.70844 -0.24234,-0.78209 -0.0959,-0.0796 -0.51593,-0.11952 -1.03542,-0.0984 l -0.87407,0.0355 -0.19984,0.7934 c -0.10992,0.43637 -0.23355,0.84792 -0.27473,0.91456 -0.0412,0.0666 -0.57568,0.15775 -1.18778,0.20249 -0.61209,0.0447 -1.36254,0.11185 -1.66767,0.14914 -0.30512,0.0373 -0.58226,0.0212 -0.61587,-0.0356 z m 9.15273,-0.33643 c 0,-0.0291 -0.054,-0.0863 -0.12003,-0.12711 -0.066,-0.0408 -0.12003,-0.017 -0.12003,0.0529 0,0.0699 0.054,0.12711 0.12003,0.12711 0.066,0 0.12003,-0.0238 0.12003,-0.0529 z m -2.40063,-0.30716 c 0,-0.066 -0.0572,-0.12003 -0.12711,-0.12003 -0.0699,0 -0.0937,0.054 -0.0529,0.12003 0.0408,0.066 0.098,0.12003 0.12711,0.12003 0.0291,0 0.0529,-0.054 0.0529,-0.12003 z m -1.1471,-2.90746 c 0.27795,-0.39683 0.23179,-0.66095 -0.23968,-1.37124 -0.37261,-0.56137 -0.47672,-0.64259 -0.82371,-0.64259 -0.263,0 -0.55454,0.12505 -0.86292,0.37012 -0.5624,0.44694 -0.64335,0.56487 -0.64572,0.94078 -0.003,0.45707 0.32732,0.72938 0.88699,0.73147 0.27034,10e-4 0.57255,0.0542 0.67158,0.1182 0.32073,0.20727 0.8157,0.1356 1.01346,-0.14674 z m 0.78529,-1.17269 c 0.30753,-0.16458 0.53336,-0.88069 0.37252,-1.18123 -0.28084,-0.52474 -0.97931,-0.39305 -1.19485,0.22528 -0.13681,0.39246 -0.11154,0.50139 0.20074,0.86501 0.20732,0.24141 0.31185,0.25671 0.62159,0.0909 z m -2.97851,-0.55966 c 0.47701,-0.43168 0.13709,-1.2909 -0.48195,-1.21824 -0.43198,0.0507 -0.61868,0.676 -0.33233,1.11303 0.23046,0.35172 0.50298,0.38693 0.81428,0.10521 z m 1.82349,-0.7023 c 0.28482,-0.28481 0.34482,-0.62766 0.17283,-0.98761 -0.31499,-0.65925 -1.29839,-0.38514 -1.29485,0.36092 0.002,0.43457 0.094,0.61938 0.35826,0.71996 0.32193,0.12255 0.57939,0.0911 0.76376,-0.0933 z m -2.20414,-2.69999 c 0,-0.066 -0.0238,-0.12004 -0.0529,-0.12004 -0.0291,0 -0.0863,0.054 -0.12711,0.12004 -0.0408,0.066 -0.017,0.12003 0.0529,0.12003 0.0699,0 0.12712,-0.054 0.12712,-0.12003 z m 3.48091,0 c 0,-0.066 -0.054,-0.12004 -0.12003,-0.12004 -0.066,0 -0.12003,0.054 -0.12003,0.12004 0,0.066 0.054,0.12003 0.12003,0.12003 0.066,0 0.12003,-0.054 0.12003,-0.12003 z m 2.81868,4.10192 c -0.36196,-2.05932 -0.65811,-3.89912 -0.65811,-4.08843 0,-0.5783 0.20095,-0.64283 1.85634,-0.59606 1.45593,0.0411 1.49945,0.0351 1.42709,-0.19764 -0.22469,-0.72267 -0.27121,-0.76702 -1.05978,-1.01059 -1.82016,-0.56218 -2.65756,-0.67004 -5.16442,-0.66521 -2.49722,0.005 -3.07943,0.0819 -5.06524,0.67072 -0.79163,0.23473 -0.87103,0.28764 -0.94636,0.63061 -0.0452,0.20592 -0.1914,0.5991 -0.32483,0.87374 l -0.24261,0.49935 0.39162,0.49446 c 0.57392,0.72463 0.86861,1.59452 0.95262,2.81204 l 0.0734,1.06427 0.71522,-2.43704 c 0.45122,-1.53746 0.81281,-2.55061 0.97961,-2.74471 0.26243,-0.3054 0.2799,-0.30795 2.36794,-0.34532 1.90575,-0.0341 2.12403,-0.0171 2.32126,0.18119 0.11974,0.12037 0.83887,2.11756 1.59806,4.43822 0.7592,2.32065 1.39294,4.20705 1.40832,4.192 0.0154,-0.0151 -0.2682,-1.71227 -0.63017,-3.7716 z m 6.23539,-1.58623 0.0826,-1.38533 -0.69667,-0.28875 c -0.95556,-0.39605 -1.7629,-1.21935 -2.00927,-2.04897 -0.10399,-0.35018 -0.18908,-0.72586 -0.18908,-0.83486 0,-0.20604 -1.56835,-0.75527 -3.24085,-1.13492 -2.91765,-0.66227 -6.47126,-0.43483 -9.60251,0.61462 l -1.02026,0.34194 -0.0774,0.55178 c -0.0426,0.30349 -0.17048,0.73169 -0.28417,0.95156 -0.19696,0.38086 -0.19647,0.40726 0.0103,0.5585 0.1194,0.0873 0.25258,0.15874 0.29595,0.15874 0.11008,0 0.48426,-0.85527 0.58089,-1.32774 0.0735,-0.35961 0.15021,-0.41606 0.91764,-0.67569 1.77044,-0.59897 3.09088,-0.79855 5.33855,-0.8069 2.25338,-0.008 3.29053,0.13445 5.28972,0.7284 l 1.02861,0.30558 0.14891,0.55809 c 0.29507,1.10585 1.00795,1.94459 2.14502,2.52372 0.43464,0.22138 0.51013,0.31491 0.51013,0.63208 0,0.30898 0.59335,2.08226 0.66646,1.99177 0.0126,-0.0156 0.06,-0.65169 0.10544,-1.41362 z m -1.90436,0.18501 c 0.28198,-0.23106 0.57112,-0.42011 0.64253,-0.42011 0.0714,0 0.12983,-0.12503 0.12983,-0.27784 0,-0.19951 -0.11878,-0.3345 -0.4213,-0.47876 -0.23171,-0.11049 -0.6724,-0.43108 -0.97929,-0.71241 -0.50578,-0.46364 -0.55129,-0.48343 -0.48634,-0.21143 0.0394,0.16505 0.16647,0.79971 0.28237,1.41037 0.1159,0.61066 0.23521,1.11029 0.26512,1.11029 0.0299,0 0.2851,-0.18905 0.56708,-0.42011 z m 3.05296,-1.31526 v -1.25525 l -0.83529,-0.24876 c -1.36129,-0.40541 -1.84451,-0.95219 -1.99176,-2.25368 l -0.0833,-0.73659 -0.97543,-0.35215 c -2.54818,-0.91995 -4.4059,-1.25929 -6.91699,-1.2635 -1.02326,-0.002 -2.2926,0.0646 -2.82074,0.14729 -1.18993,0.18638 -3.36752,0.75257 -4.47914,1.1646 l -0.83623,0.30996 -0.0856,0.80113 c -0.0956,0.89457 -0.28947,1.3559 -0.68659,1.63405 -0.1471,0.10303 -0.19884,0.18733 -0.11498,0.18733 0.24716,0 0.72935,-0.59844 0.85938,-1.06657 0.0663,-0.2386 0.12081,-0.65675 0.12118,-0.92923 l 4.5e-4,-0.49541 1.05027,-0.37635 c 2.66195,-0.95385 4.77394,-1.27728 7.6935,-1.17817 2.19338,0.0745 3.70395,0.3535 5.72002,1.05666 1.15385,0.40244 1.37997,0.57625 1.38103,1.06151 0.003,1.15118 0.71348,1.9972 2.0365,2.42331 l 0.84358,0.27169 v 1.17669 c 0,0.64718 0.027,1.17669 0.06,1.17669 0.033,0 0.06,-0.56486 0.06,-1.25525 z"
         id="path4718" />
      <circle
         style="fill:none;stroke:#ff0000;stroke-width:0.1;stroke-dasharray:none"
         id="path788-8-1-8-1-9-2-1-4-2-2"
         cx="-322.75027"
         cy="-57.192936"
         r="19.954653" />
      <ellipse
         style="fill:none;stroke:#ff00ff;stroke-width:0.1;stroke-dasharray:none;stroke-opacity:1"
         id="path1138-9-4-0-0-1-2-6-7-2-6"
         cx="-322.75027"
         cy="-57.192936"
         rx="18.492125"
         ry="18.492126" />
      <circle
         style="fill:none;stroke:#0000ff;stroke-width:0.1;stroke-linecap:round;stroke-dasharray:none;stroke-opacity:1;paint-order:markers stroke fill"
         id="path13019-1-33-7-4-6-7"
         cx="-322.75027"
         cy="-72.203911"
         r="2" />
    </g>
  </g>
</svg>
