<?xml version="1.0" encoding="UTF-8" standalone="no"?>
<!-- Created with Inkscape (http://www.inkscape.org/) -->

<svg
   width="41.008999mm"
   height="41.008999mm"
   viewBox="0 0 41.008999 41.008999"
   version="1.1"
   id="svg1"
   inkscape:version="1.4.2 (f4327f4, 2025-05-13)"
   sodipodi:docname="156.svg"
   xmlns:inkscape="http://www.inkscape.org/namespaces/inkscape"
   xmlns:sodipodi="http://sodipodi.sourceforge.net/DTD/sodipodi-0.dtd"
   xmlns="http://www.w3.org/2000/svg"
   xmlns:svg="http://www.w3.org/2000/svg">
  <sodipodi:namedview
     id="namedview1"
     pagecolor="#ffffff"
     bordercolor="#000000"
     borderopacity="0.25"
     inkscape:showpageshadow="2"
     inkscape:pageopacity="0.0"
     inkscape:pagecheckerboard="0"
     inkscape:deskcolor="#d1d1d1"
     inkscape:document-units="mm"
     inkscape:zoom="1.5878906"
     inkscape:cx="108.3198"
     inkscape:cy="200.26568"
     inkscape:window-width="1050"
     inkscape:window-height="1081"
     inkscape:window-x="3737"
     inkscape:window-y="0"
     inkscape:window-maximized="0"
     inkscape:current-layer="layer1" />
  <defs
     id="defs1" />
  <g
     inkscape:label="Layer 1"
     inkscape:groupmode="layer"
     id="layer1"
     transform="translate(-0.7937635,-0.79375582)">
    <g
       id="g11399"
       transform="translate(301.84859,78.491184)">
      <path
         style="fill:#000000;stroke-width:0.1;stroke-dasharray:none"
         d="m -279.68211,-42.04365 c -0.0834,-0.0381 -0.37367,-0.0722 -0.6449,-0.0757 -0.70267,-0.009 -0.83983,-0.0999 -1.04053,-0.6879 -0.19709,-0.57748 -0.23187,-1.5332 -0.0699,-1.92085 0.0569,-0.13622 0.21908,-0.3451 0.36038,-0.46416 l 0.25689,-0.21648 -0.007,-1.41118 c -0.008,-1.43491 -0.13406,-2.3071 -0.3554,-2.45218 -0.19619,-0.12859 -0.45967,-0.0272 -0.5361,0.20643 -0.041,0.12519 -0.0862,1.38761 -0.10047,2.80539 l -0.026,2.57779 -0.17179,0.09 c -0.32315,0.16932 -1.0909,0.3997 -1.60654,0.48207 -0.74563,0.11911 -1.13079,0.11175 -1.40882,-0.0269 -0.13481,-0.0672 -0.32022,-0.10344 -0.41202,-0.0804 -0.11956,0.03 -0.26208,-0.0373 -0.50244,-0.23716 -0.45002,-0.37426 -0.48111,-0.44286 -0.47976,-1.05855 0.002,-0.6148 0.11648,-1.01403 0.35506,-1.23117 0.2295,-0.20888 1.04366,-0.47591 1.45104,-0.47591 h 0.33353 l 0.0832,-0.36038 c 0.12357,-0.53479 0.22631,-1.88055 0.24182,-3.16757 0.0128,-1.0645 0.002,-1.16012 -0.16593,-1.47947 -0.15202,-0.28894 -0.17981,-0.45221 -0.1808,-1.06218 -0.002,-0.81901 0.12616,-1.24882 0.52557,-1.77208 0.17878,-0.2342 0.22927,-0.36103 0.18689,-0.46937 -0.0319,-0.0816 -0.0604,-0.31218 -0.0634,-0.51229 -0.004,-0.29119 0.0326,-0.4017 0.18436,-0.5535 0.24613,-0.24614 0.23912,-0.30566 -0.0426,-0.36201 -0.51631,-0.10326 -1.552,-1.01213 -2.09133,-1.83526 l -0.12731,-0.19431 -0.21181,0.2319 c -0.40622,0.44476 -0.79875,0.25293 -1.03296,-0.50486 -0.20589,-0.66614 -0.18691,-2.4782 0.0321,-3.06645 l 0.15898,-0.42699 -0.85222,-0.0326 c -0.67263,-0.0257 -0.90675,-0.0645 -1.11103,-0.18377 -0.54806,-0.32009 -0.58092,-0.80719 -0.0773,-1.14655 0.29167,-0.19656 1.52785,-0.61084 2.02671,-0.67921 0.18255,-0.025 0.33191,-0.0558 0.33191,-0.0684 0,-0.0126 -0.10747,-0.2188 -0.23883,-0.45814 l -0.23884,-0.43519 0.19203,-0.15748 c 0.10562,-0.0866 0.30512,-0.24502 0.44334,-0.35203 l 0.25131,-0.19454 -0.10015,-0.53078 -0.10015,-0.53076 0.3126,-0.45056 c 0.27997,-0.4035 0.35027,-0.45852 0.67331,-0.52684 l 0.36072,-0.0763 0.0223,-0.54886 c 0.0274,-0.67319 0.1,-0.73025 0.8788,-0.69026 0.63688,0.0327 1.44742,0.38023 2.04269,0.87582 0.23933,0.19926 0.52513,0.34795 0.83361,0.43371 0.82524,0.22944 1.47925,0.624 2.10831,1.27193 0.31612,0.32561 0.91359,0.82448 1.32772,1.10857 0.57081,0.39159 0.75837,0.56209 0.77537,0.70478 0.0192,0.16136 0.0838,0.2025 0.45208,0.28812 0.56266,0.13082 1.35298,0.50753 1.49743,0.71376 0.27091,0.38679 0.0293,0.90499 -0.51836,1.11193 l -0.21557,0.0814 0.39858,0.43549 c 0.725,0.79218 0.78814,1.16543 0.31359,1.85394 -0.29231,0.42412 -1.46595,1.54927 -1.94421,1.86388 -0.53213,0.35006 -0.90988,0.31431 -1.13064,-0.10702 l -0.10326,-0.1971 -0.16956,0.27435 c -0.0933,0.15089 -0.40592,0.4844 -0.69479,0.74114 -0.36883,0.3278 -0.52523,0.51999 -0.52523,0.64543 0,0.0982 0.0426,0.17779 0.0948,0.17677 0.25856,-0.005 0.7754,-0.16967 0.84909,-0.27044 0.0491,-0.0671 0.37048,-0.16484 0.78176,-0.23773 0.65121,-0.11543 0.70796,-0.1152 0.83905,0.004 0.0773,0.07 0.24033,0.12729 0.36223,0.12735 0.31166,1.5e-4 1.8898,0.43264 2.26294,0.62016 0.44015,0.22117 0.57621,0.36042 0.57621,0.58971 0,0.16036 0.0491,0.2146 0.24658,0.27276 0.62025,0.1826 0.67646,1.36119 0.0942,1.97632 -0.15273,0.16138 -0.41024,0.25857 -0.68512,0.25857 h -0.27838 l 0.22862,0.26038 c 0.12573,0.14321 0.35392,0.49884 0.50707,0.79028 0.31743,0.60407 0.80976,1.13872 1.31984,1.43328 0.53145,0.30689 0.58099,0.41932 0.23752,0.53906 -0.23629,0.0823 -0.78415,0.0229 -1.14983,-0.12478 -0.11011,-0.0445 -0.32333,-0.18896 -0.47379,-0.32107 l -0.27358,-0.24021 0.0382,0.21615 c 0.021,0.11889 0.12273,0.91606 0.22607,1.7715 0.10334,0.85543 0.27376,2.20402 0.37872,2.99686 0.26253,1.98331 0.29012,1.80833 -0.3213,2.03749 -1.02647,0.38471 -1.5955,0.52158 -1.97328,0.47461 -0.19784,-0.0246 -0.51336,-0.0599 -0.70114,-0.0785 -0.18778,-0.0185 -0.4097,-0.0445 -0.49315,-0.0577 -0.13406,-0.0212 -0.15638,0.0291 -0.19153,0.43128 -0.0688,0.78651 -0.22172,0.93771 -0.99302,0.9815 -0.30826,0.0175 -0.76531,0.0508 -1.01569,0.0739 -0.25037,0.0232 -0.52349,0.0109 -0.60696,-0.0272 z m 1.18295,-0.31452 c 0.1489,-0.1489 0.1571,-0.22553 0.13277,-1.24035 -0.0187,-0.78141 -0.0553,-1.11693 -0.13158,-1.20879 -0.12923,-0.15553 -0.0539,-0.25588 0.0977,-0.13009 0.2458,0.204 0.35041,1.86539 0.15686,2.49135 -0.0481,0.15569 -0.0282,0.17071 0.2266,0.17071 0.28566,0 0.56703,-0.10888 0.66656,-0.25793 0.0307,-0.046 0.0562,-0.4443 0.057,-0.88531 0.002,-1.0155 -0.13823,-1.53856 -0.4546,-1.70216 -0.12242,-0.0633 -0.25406,-0.17449 -0.29255,-0.24709 -0.1617,-0.30502 -0.41999,-2.22808 -0.55172,-4.10767 -0.11794,-1.68291 -0.1346,-1.71853 -0.79896,-1.70663 -0.75343,0.0135 -1.63435,0.5794 -1.73427,1.1141 -0.0324,0.1735 0.01,0.36443 0.14682,0.66327 0.26292,0.57363 0.34489,1.24094 0.34666,2.82185 l 0.002,1.34474 -0.22632,0.11705 c -0.37051,0.19159 -0.49554,0.51322 -0.48691,1.25252 0.009,0.78296 0.12971,1.25193 0.36076,1.40332 0.095,0.0622 0.33726,0.13569 0.53844,0.16326 l 0.36579,0.0502 -0.048,-0.2583 c -0.094,-0.50622 -0.14377,-1.49616 -0.0924,-1.83851 0.05,-0.33332 0.28696,-0.743 0.3776,-0.65279 0.0239,0.0237 -0.0245,0.17603 -0.10727,0.33849 -0.17451,0.34228 -0.1942,0.87442 -0.0645,1.74586 0.1,0.67214 0.14102,0.70534 0.88132,0.71285 0.38402,0.004 0.50437,-0.0254 0.63289,-0.15389 z m -1.90372,-2.94301 c 0,-0.14428 0.59637,-0.24235 1.33992,-0.22035 1.02607,0.0304 1.00037,0.17346 -0.0312,0.17346 -0.44858,0 -0.92656,0.0283 -1.06217,0.0629 -0.16057,0.0409 -0.24658,0.0354 -0.24658,-0.016 z m 0.57537,-0.65835 c -0.0758,-0.0758 -0.11523,-0.19577 -0.0927,-0.28201 0.0216,-0.0825 -0.012,-0.22825 -0.0746,-0.32379 -0.17871,-0.27274 0.0562,-0.56888 0.38851,-0.48971 0.0418,0.01 0.22026,0.0138 0.39673,0.008 0.35767,-0.0107 0.38246,0.0289 0.41876,0.6694 0.0185,0.32664 0.0113,0.33849 -0.24646,0.40354 -0.57724,0.14565 -0.65735,0.14709 -0.7903,0.0141 z m -0.22219,-1.46197 c -0.069,-0.0763 -0.12557,-0.22995 -0.12557,-0.34142 0,-0.15143 -0.038,-0.20266 -0.1503,-0.20266 -0.0996,0 -0.16744,-0.0684 -0.20118,-0.20281 -0.0409,-0.16284 -0.0113,-0.23442 0.15029,-0.36323 0.11065,-0.0882 0.20119,-0.22837 0.20119,-0.31141 0,-0.27872 0.21455,-0.48822 0.50002,-0.48822 0.21961,0 0.28931,0.0433 0.41608,0.2581 0.0838,0.14195 0.23396,0.27861 0.3338,0.30366 0.26216,0.0658 0.31685,0.32053 0.12463,0.58052 -0.11126,0.15049 -0.14562,0.27937 -0.11513,0.43184 0.061,0.30472 -0.12886,0.45757 -0.428,0.34466 -0.17162,-0.0648 -0.23756,-0.0597 -0.30669,0.0236 -0.11946,0.14394 -0.24893,0.13335 -0.39914,-0.0326 z m -3.59931,4.08525 c 0.4292,-0.0828 0.97956,-0.22455 1.22301,-0.31512 l 0.44266,-0.16465 -0.0527,-1.56266 c -0.0473,-1.40177 0.0257,-3.15805 0.15805,-3.80683 0.0354,-0.17367 0.007,-0.20557 -0.25359,-0.28362 -0.40562,-0.12153 -1.16143,-0.62316 -1.40533,-0.93272 l -0.20258,-0.25712 -8.7e-4,0.54558 c -8.6e-4,0.54719 0.10254,0.77382 0.24053,0.52726 0.1614,-0.28842 0.73473,-0.005 0.64945,0.32172 -0.0267,0.10234 0.007,0.15958 0.10954,0.18643 0.22175,0.058 0.16605,0.53393 -0.0663,0.56701 -0.11591,0.0165 -0.17325,0.0849 -0.18968,0.22622 -0.0295,0.2539 -0.36785,0.40125 -0.59524,0.25924 -0.20619,-0.12877 -0.22527,-0.11875 -0.22254,0.11683 0.004,0.27351 0.17022,0.49051 0.33033,0.42908 0.0684,-0.0263 0.17519,-0.005 0.23724,0.0459 0.14826,0.12304 0.14484,0.44691 -0.005,0.50452 -0.067,0.0257 -0.0993,0.0946 -0.0746,0.15898 0.10143,0.26433 -0.30367,0.43285 -0.49277,0.20499 -0.11387,-0.1372 -0.18651,-0.0767 -0.25453,0.21186 -0.0426,0.18057 -0.026,0.2088 0.12298,0.2098 0.19424,0.002 0.41805,0.11965 0.35173,0.18596 -0.024,0.0241 -0.22511,0.005 -0.44692,-0.0428 -0.2218,-0.0476 -0.56126,-0.0678 -0.75434,-0.0449 -0.83962,0.0994 -1.02332,0.38196 -1.02541,1.57697 -0.002,0.85302 0.067,1.05499 0.35742,1.05499 0.11454,0 0.13692,-0.0317 0.0935,-0.13277 -0.0314,-0.0731 -0.0715,-0.44004 -0.0891,-0.8156 -0.0283,-0.60269 -0.0115,-0.7229 0.14375,-1.02424 0.12323,-0.23918 0.23085,-0.34918 0.35939,-0.36734 0.17879,-0.0253 0.17741,-0.0199 -0.054,0.2116 -0.27841,0.27841 -0.34724,0.56862 -0.30637,1.29185 0.0401,0.71 0.26958,1.01301 0.80013,1.05656 0.0507,0.004 0.44331,-0.0602 0.8725,-0.14291 z m 9.41057,-0.56692 c 0.69367,-0.2463 0.81561,-0.31395 0.81561,-0.45247 0,-0.0896 -0.10087,-0.91286 -0.22416,-1.82951 -0.12328,-0.91664 -0.26598,-2.05925 -0.3171,-2.53914 -0.0511,-0.47987 -0.10307,-0.8859 -0.11543,-0.90228 -0.0123,-0.0164 -0.0678,0.008 -0.12315,0.0537 -0.0738,0.0613 -0.15097,0.0575 -0.28961,-0.0145 -0.10392,-0.0539 -0.30006,-0.098 -0.43587,-0.098 -0.28381,0 -0.43561,-0.12645 -0.50844,-0.42346 -0.0415,-0.16932 -0.009,-0.24773 0.17194,-0.41728 0.12267,-0.11485 0.24686,-0.30415 0.27598,-0.42069 0.0654,-0.26205 0.23028,-0.3318 0.52293,-0.22135 l 0.2245,0.0848 -0.0509,-0.35684 c -0.10533,-0.7383 -0.35825,-1.67325 -0.4819,-1.78142 -0.0705,-0.0617 -0.29515,-0.13624 -0.49915,-0.16563 -0.33935,-0.0489 -0.3663,-0.0417 -0.31705,0.0856 0.29999,0.77461 0.0865,1.96131 -0.44936,2.49712 -0.1675,0.16749 -0.17052,0.18977 -0.0666,0.49144 0.066,0.19157 0.13849,0.90268 0.18409,1.80595 0.0981,1.94359 0.10068,1.95778 0.35781,2.00198 0.11372,0.0196 0.26402,0.0602 0.334,0.0902 0.10142,0.0435 0.11885,0.0225 0.0859,-0.10347 -0.0496,-0.18979 0.0944,-0.38495 0.28404,-0.38495 0.0845,0 0.14649,-0.0655 0.16142,-0.1707 0.0364,-0.25598 0.34575,-0.27644 0.40835,-0.027 0.0265,0.10531 0.0939,0.22952 0.14992,0.27601 0.19271,0.15993 -0.0399,0.48505 -0.29109,0.40685 -0.075,-0.0233 -0.18185,-0.005 -0.23737,0.0413 -0.0658,0.0545 -0.26949,0.0658 -0.58436,0.0321 -1.03219,-0.11035 -1.45929,-0.0805 -1.75591,0.12294 -0.47104,0.32298 -0.72341,0.93111 -0.47273,1.13915 0.13999,0.11618 0.34166,0.7738 0.34166,1.11409 0,0.16222 0.0368,0.25177 0.10361,0.25177 0.0811,0 0.0901,-0.07 0.0412,-0.32244 -0.1509,-0.78007 -0.0332,-1.74935 0.24279,-1.9991 0.21989,-0.199 0.25517,-0.0728 0.0553,0.19773 -0.16123,0.2182 -0.17739,0.31793 -0.17739,1.09446 0,0.62497 0.0288,0.8891 0.10731,0.98364 0.13347,0.16076 0.51163,0.13669 0.47394,-0.0301 -0.12604,-0.55793 -0.17281,-1.0555 -0.13079,-1.39174 0.0572,-0.45811 0.28407,-0.88436 0.47063,-0.88436 0.11683,0 0.11713,0.0105 0.004,0.13555 -0.21237,0.23467 -0.35607,0.67932 -0.35607,1.10181 0,0.46044 0.17037,1.10514 0.31868,1.20597 0.18945,0.12876 0.93958,0.01 1.74879,-0.27766 z m -1.06597,-3.69824 c -0.0501,-0.0501 -0.0921,-0.16103 -0.0935,-0.24658 -0.002,-0.0856 -0.0526,-0.22181 -0.11381,-0.3028 -0.23139,-0.30592 -0.058,-0.71263 0.26747,-0.62751 0.0836,0.0219 0.17119,0.009 0.19457,-0.029 0.0233,-0.0378 0.12692,-0.0688 0.23012,-0.0688 0.19358,0 0.35076,0.24623 0.27848,0.43625 -0.0198,0.0521 -5.8e-4,0.0948 0.0428,0.0948 0.0434,0 0.10108,0.0699 0.12823,0.15546 0.0685,0.21572 -0.16126,0.55281 -0.34415,0.50499 -0.0784,-0.0205 -0.15826,0.01 -0.18085,0.0687 -0.0497,0.12947 -0.28599,0.13778 -0.40939,0.0144 z m -10.70112,3.25297 c -0.024,-0.57725 0.0215,-0.90066 0.18261,-1.29659 0.0437,-0.10759 0.034,-0.12974 -0.0376,-0.0855 -0.19551,0.12083 -0.381,0.6814 -0.38268,1.15653 -0.002,0.42935 0.10785,0.85709 0.21916,0.85712 0.0246,1e-5 0.0329,-0.28421 0.0185,-0.63159 z m 8.83127,-1.96765 c 0.21695,-0.15224 0.43802,-0.22933 0.75008,-0.26154 l 0.44247,-0.0457 -0.0522,-1.335 c -0.0475,-1.21323 -0.13508,-2.10213 -0.24188,-2.4541 -0.0553,-0.18205 -0.21315,-0.16684 -0.67009,0.0645 l -0.38962,0.19729 0.003,0.69419 c 0.002,0.38179 -0.0257,1.10811 -0.0603,1.61404 l -0.063,0.91987 0.23369,0.0815 c 0.12854,0.0448 0.2337,0.0977 0.2337,0.1175 0,0.0199 -0.25606,0.0166 -0.56903,-0.007 -0.65394,-0.0494 -0.62461,-0.0938 -0.48381,0.73135 0.1226,0.7186 0.2067,0.7809 0.4005,0.2967 0.11337,-0.28328 0.24771,-0.45985 0.46681,-0.61361 z m -0.38699,-1.34875 c 0.0556,-0.78473 0.0694,-2.27068 0.0215,-2.31859 -0.0238,-0.0238 -0.82137,0.25558 -0.87225,0.30552 -0.0108,0.0106 0.0318,0.62937 0.0948,1.37501 0.0629,0.74562 0.11451,1.36555 0.11451,1.37759 0,0.0121 0.13217,0.0219 0.29371,0.0219 h 0.29371 z m -3.71012,-2.24352 c -0.004,-0.41842 0.003,-0.43143 0.39866,-0.79578 0.52206,-0.48022 1.26232,-0.73363 1.75529,-0.6009 0.35678,0.0961 0.60702,0.41998 0.61634,0.79781 0.004,0.19587 0.0147,0.20645 0.0708,0.0759 0.16811,-0.39122 0.0109,-1.00773 -0.29928,-1.17374 -0.21758,-0.11645 -1.06753,-0.0944 -1.45544,0.0378 -0.89524,0.30504 -1.58842,1.35644 -1.27742,1.93756 0.13457,0.25144 0.19519,0.16303 0.19102,-0.27863 z m -0.95758,-0.005 c -0.47715,-0.44631 -0.82963,-1.15963 -0.8873,-1.7956 -0.0308,-0.34002 -0.0888,-0.51333 -0.21815,-0.65291 -0.21317,-0.22989 -0.40676,-0.76935 -0.40676,-1.13351 0,-0.18597 0.0616,-0.3311 0.20312,-0.47885 0.11171,-0.1166 0.1772,-0.23791 0.14553,-0.26958 -0.0804,-0.0804 -0.25133,0.1618 -0.52156,0.73882 -0.19427,0.41484 -0.23184,0.58955 -0.2366,1.10012 -0.005,0.52975 0.0248,0.67142 0.23337,1.11374 0.32821,0.69583 0.76686,1.14871 1.4209,1.46697 0.296,0.14404 0.56233,0.26246 0.59184,0.26315 0.0295,5.7e-4 -0.11647,-0.15786 -0.32439,-0.35235 z m 0.78416,-0.84721 c 0.41677,-0.6298 1.35002,-1.15313 2.04984,-1.14948 0.68101,0.004 1.26723,0.47989 1.26789,1.03025 1.5e-4,0.1294 -0.0865,0.39834 -0.19239,0.59763 -0.10597,0.19931 -0.17654,0.37851 -0.15682,0.39822 0.11577,0.11577 1.31239,-0.4541 1.75373,-0.83517 0.48664,-0.4202 0.65735,-0.84506 0.65164,-1.62179 -0.007,-1.01341 -0.14981,-1.21949 -0.93284,-1.35023 -0.15437,-0.0257 -0.41839,-0.162 -0.58699,-0.30286 -0.16942,-0.14155 -0.43407,-0.27785 -0.59194,-0.30487 -0.15704,-0.0269 -0.4889,-0.15798 -0.73747,-0.29135 l -0.45195,-0.2425 -0.48173,0.23697 c -0.47563,0.23396 -1.13391,0.40793 -1.54354,0.40793 -0.29705,0 -0.33623,0.12106 -0.10773,0.33283 0.18456,0.17104 0.19141,0.20274 0.11629,0.53794 -0.19123,0.85328 -0.60222,1.28278 -1.22754,1.28278 h -0.36612 v 0.2711 c 0,0.34271 0.14316,0.59683 0.7587,1.3468 l 0.49316,0.60086 0.0403,-0.31754 c 0.0222,-0.17464 0.13265,-0.45703 0.24549,-0.62752 z m 3.65328,-0.50016 c 0.028,-0.149 -0.004,-0.4904 -0.0747,-0.80198 -0.0679,-0.29839 -0.10356,-0.56237 -0.0793,-0.58661 0.0242,-0.0242 0.38117,-0.0603 0.79316,-0.0801 l 0.74908,-0.036 0.0866,0.24855 c 0.13315,0.38198 0.10626,0.78748 -0.0668,1.00751 -0.1723,0.21904 -0.86844,0.5082 -1.22349,0.5082 -0.22439,0 -0.23136,-0.01 -0.18453,-0.25945 z m 0.73418,-0.009 c 0.38799,-0.13689 0.67557,-0.38439 0.67557,-0.58144 0,-0.13246 -0.0106,-0.1333 -0.19117,-0.015 -0.18556,0.12159 -0.65295,0.12138 -0.94688,-2.9e-4 -0.0923,-0.0383 -0.11381,0.0247 -0.11381,0.33303 0,0.43391 0.041,0.45269 0.57629,0.26382 z m 0.52685,-0.78127 c 0.13566,-0.10985 0.16046,-0.18328 0.11843,-0.35073 l -0.0531,-0.21179 -0.64011,0.0336 c -0.35205,0.0184 -0.65628,0.0498 -0.67604,0.0696 -0.0198,0.0198 -0.0153,0.11498 0.01,0.21162 0.0915,0.35004 0.91219,0.5139 1.24086,0.24777 z m -0.74062,-0.0979 c -0.0468,-0.0468 -0.0671,-0.13216 -0.045,-0.18967 0.0561,-0.14601 0.60129,-0.13931 0.65785,0.008 0.0803,0.20927 -0.43306,0.36138 -0.61286,0.18159 z m 0.33769,-0.11246 c -0.0252,-0.0252 -0.0906,-0.0279 -0.14541,-0.006 -0.0605,0.0242 -0.0426,0.0422 0.0459,0.0459 0.0799,0.004 0.12478,-0.0147 0.0996,-0.0399 z m -5.44968,1.83637 c -0.17993,-0.23039 -0.34067,-0.40537 -0.35719,-0.38885 -0.0331,0.0331 0.0608,0.17157 0.39991,0.59 0.35725,0.44079 0.31938,0.26247 -0.0427,-0.20115 z m 10.16134,0.11577 c 0.17686,-0.11213 -0.65393,-0.52374 -0.97769,-0.48439 -0.28525,0.0347 -0.41642,-0.0556 -0.46277,-0.31854 -0.0144,-0.0816 -0.0859,-0.20971 -0.15894,-0.28452 -0.16355,-0.16756 -0.16627,-0.24342 -0.0142,-0.39552 0.10754,-0.10754 0.0962,-0.16066 -0.12212,-0.5702 -0.23531,-0.44148 -0.61166,-0.88613 -0.50743,-0.5995 0.0252,0.0694 0.1204,0.47906 0.21149,0.91043 0.18198,0.8618 0.34773,1.15663 0.82938,1.47538 0.15951,0.10555 0.45549,0.21969 0.65773,0.25363 0.20223,0.034 0.38476,0.0652 0.40563,0.0695 0.0208,0.005 0.0833,-0.021 0.13889,-0.0562 z m -3.94729,-0.57769 c 0.26909,-0.22643 0.43729,-0.56118 0.55295,-1.10047 0.14142,-0.65942 -0.10329,-1.51793 -0.43265,-1.51793 -0.0776,0 -0.0729,0.069 0.0218,0.32245 0.19804,0.52989 0.17274,1.3086 -0.0586,1.80314 -0.10767,0.23019 -0.25495,0.47772 -0.3273,0.55006 -0.20127,0.20127 -0.0101,0.15637 0.24377,-0.0572 z m -5.88156,-1.46792 c 0.22278,-0.19152 0.45382,-0.6177 0.51557,-0.95103 0.0478,-0.25825 0.0317,-0.34149 -0.0916,-0.47404 -0.0823,-0.0884 -0.17539,-0.25693 -0.20682,-0.37441 -0.0314,-0.11749 -0.0979,-0.22723 -0.14783,-0.24386 -0.16257,-0.0542 -0.0957,0.26833 0.10515,0.50702 0.1598,0.18989 0.18603,0.27827 0.14249,0.48 -0.0755,0.35024 -0.29056,0.74753 -0.52063,0.96228 -0.10838,0.10116 -0.19706,0.21105 -0.19706,0.2442 0,0.0811 0.23356,-0.006 0.40077,-0.15016 z m -0.47473,-0.0138 c 0.26707,-0.19018 0.52752,-0.60323 0.60946,-0.96658 0.0536,-0.23769 0.0366,-0.30155 -0.12283,-0.46097 -0.1228,-0.12281 -0.18506,-0.27091 -0.18506,-0.44026 v -0.25521 h -0.44919 c -0.43305,0 -0.45091,0.008 -0.49709,0.21809 -0.0264,0.11994 -0.13148,0.2966 -0.23364,0.39258 -0.31615,0.297 -0.19733,0.99001 0.24976,1.4568 0.23845,0.24894 0.34391,0.25825 0.62859,0.0555 z m -0.63714,-0.22861 c -0.34004,-0.40412 -0.44939,-1.0378 -0.20538,-1.19019 0.0801,-0.0501 0.18942,-0.2119 0.24285,-0.35966 0.0685,-0.18938 0.14304,-0.26838 0.25262,-0.26765 0.33308,0.003 0.48074,0.089 0.52457,0.30811 0.0241,0.1209 0.1132,0.2791 0.19781,0.35155 0.0846,0.0724 0.15386,0.20364 0.15386,0.29154 0,0.19223 -0.40743,0.82657 -0.63187,0.98377 -0.22969,0.16088 -0.31624,0.14186 -0.53446,-0.11747 z m 0.56993,-0.071 c 0.0985,-0.0821 0.14326,-0.15035 0.0995,-0.15175 -0.0438,-0.002 -0.1172,0.035 -0.16308,0.0809 -0.12753,0.12753 -0.39078,0.007 -0.51679,-0.23675 -0.12487,-0.24146 -0.15005,-0.52949 -0.0463,-0.52949 0.0366,0 0.10908,-0.10242 0.16094,-0.22761 0.10752,-0.25955 0.27096,-0.29786 0.34018,-0.0797 0.0264,0.0832 0.0915,0.13076 0.14886,0.10877 0.0673,-0.0258 0.14013,0.0722 0.21437,0.28838 0.11001,0.32036 0.11365,0.323 0.16731,0.12147 0.0408,-0.15302 0.0139,-0.25814 -0.10445,-0.40856 -0.0876,-0.11138 -0.15931,-0.26255 -0.15931,-0.33591 0,-0.0734 -0.054,-0.15412 -0.12,-0.17945 -0.20924,-0.0803 -0.41109,-0.0499 -0.41109,0.062 0,0.0594 -0.0854,0.20942 -0.18967,0.33341 -0.28683,0.34087 -0.24138,0.71802 0.13651,1.13291 0.18962,0.20819 0.21735,0.20953 0.44308,0.0215 z m 0.0274,-0.30601 c 0.0908,-0.10037 0.10487,-0.15174 0.0415,-0.15174 -0.0645,0 -0.0817,-0.0684 -0.0527,-0.20864 0.0238,-0.11475 0.0246,-0.16596 0.002,-0.11381 -0.063,0.14504 -0.16695,0.11297 -0.19403,-0.0599 -0.035,-0.22326 -0.17887,-0.17697 -0.16079,0.0518 0.0111,0.14024 -0.0146,0.1808 -0.0948,0.15 -0.14437,-0.0554 -0.14031,0.10362 0.008,0.31548 0.14619,0.20872 0.27301,0.21347 0.45091,0.0169 z m 8.87576,-0.54383 c 0.43964,-0.34582 0.56626,-1.17247 0.23803,-1.55405 -0.14534,-0.16898 -0.41,-0.27785 -1.36566,-0.56181 -0.65196,-0.19371 -1.18538,-0.33891 -1.18538,-0.32266 0,0.0163 0.0721,0.12705 0.16018,0.2462 0.35578,0.48122 0.22897,1.38485 -0.25102,1.78873 -0.12742,0.10723 -0.21886,0.20568 -0.2032,0.21878 0.0448,0.0375 1.89846,0.3286 2.1616,0.3395 0.1398,0.005 0.32176,-0.0574 0.44545,-0.15469 z m -2.52682,-0.49041 c 0.22124,-0.19676 0.43777,-0.69674 0.43976,-1.01543 0.004,-0.54262 -0.51843,-1.13687 -0.9983,-1.13687 -0.28724,0 -0.67112,0.16627 -0.85164,0.36888 -0.14357,0.16113 -0.14323,0.16221 0.0515,0.16221 0.26973,0 0.43445,0.18904 0.43445,0.49858 0,0.36319 -0.23685,0.59029 -0.54504,0.5226 l -0.2317,-0.0509 0.1418,0.24286 c 0.13569,0.23242 0.39179,0.45707 0.63494,0.55699 0.20651,0.0849 0.76202,-0.004 0.92424,-0.14893 z m -4.49593,-0.42032 c 0.21182,-0.0489 0.59852,-0.19399 0.85933,-0.32244 0.45475,-0.22397 0.47502,-0.246 0.49395,-0.53704 0.0109,-0.16691 -0.0232,-0.38614 -0.0759,-0.48716 -0.10698,-0.20548 -0.3127,-0.31741 -0.24127,-0.13126 0.0904,0.23561 -0.89628,0.56553 -1.9261,0.64402 l -0.65958,0.0503 -0.0233,0.28042 c -0.0224,0.26977 -0.0116,0.28357 0.28452,0.36331 0.1693,0.0456 0.30782,0.11571 0.30782,0.15583 0,0.10002 0.51433,0.0917 0.9805,-0.0159 z m -2.41647,-0.21458 c 0.11996,0 0.14618,-0.0544 0.14618,-0.30348 0,-0.27525 -0.0181,-0.30348 -0.19479,-0.30348 -0.1667,0 -0.18736,-0.0246 -0.14321,-0.17071 0.0424,-0.14041 0.0337,-0.15364 -0.0494,-0.0746 -0.11286,0.10757 -0.12986,0.8433 -0.0234,1.01295 0.0529,0.0844 0.0709,0.0789 0.0921,-0.028 0.0145,-0.073 0.0921,-0.13277 0.17249,-0.13277 z m 5.1536,0.12898 c 0,-0.18603 -0.18244,-0.28072 -0.54085,-0.28072 -0.40465,0 -0.5972,-0.13628 -0.5972,-0.4227 0,-0.10135 0.0727,-0.25695 0.16152,-0.34578 0.14059,-0.14059 0.21831,-0.15559 0.59951,-0.11575 0.39846,0.0417 0.44823,0.0301 0.55151,-0.12749 0.10167,-0.15517 0.10046,-0.18978 -0.0115,-0.3313 -0.10811,-0.13665 -0.24058,-0.16514 -0.97858,-0.21053 -0.75694,-0.0466 -0.85354,-0.0386 -0.85354,0.0701 0,0.0674 0.0525,0.14271 0.11662,0.16732 0.19409,0.0745 0.35075,0.47048 0.3286,0.83062 -0.0235,0.38184 0.0703,0.48073 0.68332,0.72051 0.42381,0.16578 0.54061,0.17566 0.54061,0.0458 z m -4.47634,-0.43246 c 0,-0.27314 -0.019,-0.30348 -0.18967,-0.30348 -0.17071,0 -0.18967,0.0303 -0.18967,0.30348 0,0.27313 0.019,0.30348 0.18967,0.30348 0.17071,0 0.18967,-0.0303 0.18967,-0.30348 z m 5.15917,-0.18456 c 0,-0.25387 -0.003,-0.25548 -0.4804,-0.33874 -0.82163,-0.14308 -1.18875,-0.0772 -1.18875,0.2132 0,0.21222 0.14402,0.28472 0.66959,0.33706 0.26397,0.0263 0.53622,0.0793 0.60501,0.11778 0.20717,0.11594 0.39455,-0.0405 0.39455,-0.3293 z m -3.86029,-0.34138 c 1.18242,-0.19369 1.26523,-0.25664 1.35167,-1.02737 0.0558,-0.49733 0.0993,-0.62916 0.245,-0.74265 0.81078,-0.63136 1.27553,-1.18854 1.29246,-1.54956 0.008,-0.17924 -0.22896,-2.06503 -0.3277,-2.60343 -0.11623,-0.63375 -0.36594,-1.3668 -0.58812,-1.72647 l -0.19945,-0.32287 -1.55533,0.0447 c -1.57209,0.0452 -3.86172,0.2598 -4.62762,0.43384 -0.51638,0.11733 -0.52627,0.15046 -0.47204,1.58165 0.0321,0.8476 0.0142,1.1315 -0.0989,1.56757 -0.13029,0.50233 -0.13092,0.55136 -0.011,0.86535 0.17088,0.44743 1.79205,2.2957 2.27546,2.59422 0.6381,0.39405 1.53638,0.34061 2.64613,-0.15742 0.54092,-0.24274 0.67475,-0.18288 0.16273,0.0728 -0.60599,0.30261 -1.02366,0.43601 -1.54391,0.49311 -0.48803,0.0536 -0.4934,0.0567 -0.51694,0.30071 l -0.0238,0.24658 0.78247,-5.8e-4 c 0.43037,-2.3e-4 0.97434,-0.0318 1.20884,-0.0703 z m -3.01894,-1.62839 c -0.27207,-0.12374 -0.42392,-0.35443 -0.38959,-0.59189 0.0175,-0.1211 -0.0328,-0.17881 -0.20438,-0.2343 -0.62233,-0.20134 -1.04602,-0.80991 -1.00471,-1.44313 0.0121,-0.18544 0.0662,-0.39036 0.12011,-0.45539 0.0809,-0.0975 0.0773,-0.14987 -0.0199,-0.29845 -0.35363,-0.5397 -0.29109,-1.54359 0.12188,-1.95656 0.26268,-0.26268 0.51751,-0.28745 0.89182,-0.0867 0.38068,0.20416 0.53576,0.5506 0.53576,1.19689 v 0.54127 l 0.57307,0.0367 c 0.31518,0.0202 0.60825,0.072 0.65124,0.11496 0.0537,0.0536 -0.19146,0.069 -0.7817,0.0489 -0.77086,-0.0263 -0.82941,-0.0195 -0.56561,0.0657 0.16186,0.0523 0.33952,0.16332 0.39481,0.24678 0.14897,0.22489 -0.0992,0.73089 -0.49156,1.00246 -0.16807,0.1163 -0.30687,0.23194 -0.30845,0.25697 -0.002,0.025 0.10273,0.19131 0.2318,0.3695 l 0.23469,0.32396 0.54298,-0.0505 c 0.69222,-0.0644 1.12291,-0.20535 1.91495,-0.6267 0.34968,-0.18602 0.7085,-0.32723 0.79739,-0.31379 0.14974,0.0226 0.13623,0.0588 -0.18385,0.49282 -0.36195,0.49076 -0.9162,0.95185 -1.49235,1.24151 -0.42951,0.21593 -1.22276,0.2761 -1.56833,0.11894 z m 0.21366,-0.71482 c -0.14001,-0.0132 -0.30218,-0.005 -0.36039,0.0165 -0.17224,0.0661 -0.12106,0.32585 0.0982,0.4983 l 0.20399,0.16046 0.15639,-0.32566 0.1564,-0.32567 z m 1.05883,0.58074 c 0.39074,-0.13359 1.04913,-0.60473 1.46054,-1.04513 0.3947,-0.42253 0.4126,-0.53461 0.0622,-0.38947 -0.15826,0.0655 -0.24472,0.17517 -0.31,0.39305 -0.11815,0.39436 -0.38371,0.53237 -0.68814,0.35764 -0.18625,-0.10689 -0.25745,-0.10868 -0.61651,-0.0156 -0.42327,0.1098 -0.69903,0.32636 -0.78557,0.61692 -0.0474,0.15895 -0.0277,0.17071 0.28437,0.17071 0.18436,0 0.45125,-0.0397 0.5931,-0.0882 z m -1.67128,-0.94629 c -0.0865,-0.10996 -0.15724,-0.24573 -0.15724,-0.30174 0,-0.056 -0.0939,-0.15997 -0.20865,-0.23104 -0.11475,-0.0711 -0.3196,-0.2322 -0.45521,-0.35805 -0.23823,-0.22108 -0.24658,-0.22306 -0.24658,-0.0585 0,0.46082 0.64935,1.12158 1.12459,1.14435 0.0675,0.004 0.0489,-0.0605 -0.0569,-0.19509 z m 2.70116,-0.0251 c 0.0511,-0.10293 0.0819,-0.1982 0.0684,-0.21173 -0.0562,-0.0562 -0.57084,0.30596 -0.5296,0.37269 0.0806,0.13037 0.366,0.0308 0.46123,-0.16096 z m -2.29469,-1.52854 c -0.0229,-0.037 -0.10813,-0.0672 -0.18948,-0.0672 -0.12763,0 -0.13524,0.0203 -0.0555,0.14789 0.0681,0.10911 0.11782,0.12675 0.18949,0.0672 0.0535,-0.0443 0.0784,-0.11088 0.0555,-0.14788 z m -1.07383,-0.48906 c -0.009,-0.0393 -0.0685,-0.21521 -0.13144,-0.39102 -0.0641,-0.17896 -0.0947,-0.41875 -0.0695,-0.54481 0.0818,-0.40891 0.54398,-0.74612 0.89173,-0.6506 0.13883,0.0382 0.13174,0.0178 -0.0522,-0.14981 -0.25762,-0.23471 -0.5681,-0.24985 -0.83402,-0.0407 -0.37217,0.29275 -0.42826,1.23471 -0.1045,1.75526 0.0882,0.14185 0.33262,0.1595 0.29986,0.0216 z m 0.24917,-0.28749 c -0.41536,-0.41535 -0.10149,-1.02047 0.50753,-0.97845 0.073,0.005 0.13277,-0.0229 0.13277,-0.062 0,-0.0734 -0.1527,-0.10017 -0.41729,-0.0731 -0.21463,0.022 -0.47701,0.28682 -0.53196,0.53703 -0.0528,0.24039 0.11563,0.62938 0.32269,0.74525 0.20528,0.11488 0.19956,0.0446 -0.0138,-0.16872 z m 0.56443,-0.54258 c 0,-0.0626 -0.0492,-0.1138 -0.10933,-0.1138 -0.12675,0 -0.21231,0.10828 -0.14151,0.17909 0.0907,0.0907 0.25084,0.049 0.25084,-0.0653 z m 4.55487,1.8638 c -0.0432,-0.0807 -0.0785,-0.19492 -0.0785,-0.25378 0,-0.0588 -0.0683,-0.16883 -0.15174,-0.24436 -0.17169,-0.15538 -0.19954,-0.43489 -0.0553,-0.55464 0.053,-0.0441 0.33347,-0.0739 0.62314,-0.0662 0.49263,0.013 0.5342,0.0276 0.64326,0.22694 0.11245,0.20549 0.1085,0.22013 -0.11101,0.41132 -0.12519,0.10903 -0.217,0.24614 -0.20403,0.30468 0.0671,0.30289 -0.51548,0.45692 -0.66581,0.17603 z m -2.13298,-1.08794 c -0.76425,-0.51503 -0.87632,-1.45174 -0.24681,-2.06312 0.47069,-0.45712 1.28538,-0.47357 1.73778,-0.035 0.48858,0.47356 0.58381,1.01265 0.28873,1.63447 -0.27673,0.58316 -1.23281,0.83229 -1.7797,0.46373 z m 1.26243,-0.13383 c 0.26865,-0.16603 0.56545,-0.68735 0.56273,-0.98843 -0.003,-0.32394 -0.2712,-0.79829 -0.54838,-0.9696 -0.75252,-0.46507 -1.80192,0.0888 -1.80192,0.951 0,0.34747 0.30769,0.86721 0.60577,1.02325 0.35392,0.18527 0.8672,0.17822 1.1818,-0.0162 z m -0.93469,-0.0977 c -0.72468,-0.40246 -0.42807,-1.56859 0.39897,-1.56859 0.43852,0 0.8725,0.41511 0.8725,0.83456 0,0.59565 -0.74559,1.02608 -1.27147,0.73403 z m 0.82283,-0.14844 c 0.35398,-0.27178 0.38719,-0.73458 0.0751,-1.04664 -0.37601,-0.37602 -0.91265,-0.27884 -1.1134,0.20162 -0.0937,0.22431 -0.0938,0.29434 -5.7e-4,0.51724 0.0593,0.14178 0.17067,0.29437 0.2476,0.3391 0.18821,0.1094 0.64257,0.1029 0.79135,-0.0113 z m -0.83563,-0.17853 c -0.2086,-0.26519 -0.19862,-0.52433 0.029,-0.75191 0.37275,-0.37276 1.02769,-0.12881 1.02769,0.38279 0,0.0931 -0.0707,0.25917 -0.15725,0.36912 -0.12129,0.1542 -0.22412,0.1999 -0.44971,0.1999 -0.22559,0 -0.32842,-0.0457 -0.44971,-0.1999 z m 0.67731,-0.44499 c 0,-0.0626 -0.0512,-0.11381 -0.1138,-0.11381 -0.0626,0 -0.1138,0.0512 -0.1138,0.11381 0,0.0626 0.0512,0.11381 0.1138,0.11381 0.0626,0 0.1138,-0.0512 0.1138,-0.11381 z m -4.93154,-1.05432 c 0,-0.0583 0.12068,-0.21191 0.26819,-0.34142 0.41082,-0.36071 1.0216,-0.31098 1.0216,0.0831 0,0.10893 -0.062,0.13657 -0.30592,0.13657 -0.16825,0 -0.42848,0.0512 -0.57829,0.11381 -0.33742,0.14098 -0.40558,0.1423 -0.40558,0.008 z m 3.52087,-0.53006 c -0.0259,-0.0675 -0.0282,-0.17202 -0.005,-0.23231 0.0534,-0.13908 0.50239,-0.22553 0.84127,-0.16196 0.2576,0.0484 0.64755,0.30028 0.57443,0.37115 -0.0208,0.0202 -0.3362,0.0613 -0.70076,0.0913 -0.57283,0.0471 -0.66923,0.0378 -0.70992,-0.0681 z m 8.46659,7.17259 c 0,-0.28659 -0.30027,-0.43292 -1.70707,-0.83191 -0.97087,-0.27534 -0.94838,-0.27474 -0.94838,-0.0252 0,0.21185 0.0224,0.22543 0.62593,0.37815 0.34425,0.0872 0.91612,0.25946 1.27082,0.38295 0.78085,0.27189 0.7587,0.26909 0.7587,0.096 z m -3.12964,-0.55511 c 0.27899,-0.0823 0.32245,-0.12345 0.32245,-0.30551 0,-0.23662 0.0134,-0.23642 -1.2898,-0.0199 -0.56213,0.0934 -0.5643,0.0946 -0.17942,0.10231 0.32985,0.006 0.40911,0.0376 0.51695,0.20216 0.0701,0.10691 0.16787,0.17676 0.21737,0.15521 0.0495,-0.0215 0.2351,-0.082 0.41245,-0.13425 z m -0.41306,-0.5652 c 0.29024,-0.0339 0.41491,-0.077 0.3655,-0.12639 -0.0922,-0.0922 -1.27861,0.0781 -1.35008,0.1938 -0.0316,0.0511 0.0538,0.0618 0.24797,0.0309 0.16288,-0.0258 0.49435,-0.0701 0.73661,-0.0984 z m -8.5396,-1.1162 c 0.21524,-0.19377 0.2136,-0.24402 -0.0169,-0.51802 -0.32655,-0.38807 -0.39069,-0.75371 -0.23649,-1.34823 0.10645,-0.41042 0.12855,-0.75023 0.10824,-1.66418 -0.014,-0.63165 -0.0336,-1.14857 -0.0435,-1.14872 -0.01,-1.6e-4 -0.069,0.12202 -0.13149,0.27149 -0.10047,0.24045 -0.10059,0.29686 -9e-4,0.48939 0.14285,0.27624 0.1423,0.45239 -0.002,0.65852 -0.0725,0.10358 -0.0865,0.18103 -0.0379,0.21103 0.13868,0.0857 0.0862,0.40455 -0.075,0.45572 -0.0835,0.0266 -0.15174,0.11479 -0.15174,0.19642 0,0.0845 -0.0815,0.1854 -0.18967,0.23467 -0.21511,0.098 -0.23995,0.31883 -0.11895,1.05745 0.11222,0.6851 0.23026,1.05061 0.39126,1.21161 0.15814,0.15814 0.22686,0.14356 0.50535,-0.10715 z m 9.25117,-0.59719 c 0.78094,-0.61894 1.71414,-1.56651 1.83855,-1.86687 0.12701,-0.30665 0.0683,-0.52978 -0.24681,-0.93858 -0.17325,-0.22473 -0.29902,-0.31987 -0.39837,-0.30136 -0.0798,0.0148 -0.24761,0.0317 -0.37279,0.0375 -0.12519,0.005 -0.27273,0.0534 -0.32787,0.10572 -0.0552,0.0524 -0.25146,0.0952 -0.43626,0.0952 -0.40143,0 -0.63947,-0.1949 -0.63947,-0.52359 0,-0.17075 -0.059,-0.25493 -0.2631,-0.37535 -0.32974,-0.19455 -0.41739,-0.48541 -0.2396,-0.79518 0.0704,-0.12275 0.11849,-0.23253 0.10675,-0.24394 -0.0117,-0.0114 -0.33721,-0.0453 -0.72327,-0.0754 l -0.70193,-0.0546 0.18287,0.33224 c 0.30917,0.56168 0.55757,1.5026 0.68934,2.61116 0.21506,1.80941 0.42674,2.46296 0.79774,2.46296 0.0777,0 0.40809,-0.21148 0.73422,-0.46996 z m 0.95335,-1.5529 c -0.0521,-0.021 -0.0948,-0.0843 -0.0948,-0.14064 0,-0.0563 -0.0682,-0.12401 -0.15156,-0.15048 -0.17897,-0.0568 -0.28222,-0.38961 -0.17431,-0.56185 0.0417,-0.0666 0.15635,-0.13288 0.25478,-0.14737 0.0984,-0.0145 0.21927,-0.0814 0.26854,-0.14888 0.0781,-0.1067 0.10642,-0.10859 0.21972,-0.0146 0.0715,0.0594 0.20297,0.14431 0.29204,0.18872 0.2134,0.10638 0.24342,0.30003 0.0731,0.47162 -0.0755,0.0762 -0.17938,0.2319 -0.23065,0.34607 -0.0883,0.1965 -0.23476,0.24698 -0.45684,0.15736 z m -10.68666,-2.22446 c 0.1087,-0.20787 0.19762,-0.3935 0.19762,-0.41251 0,-0.019 -0.12802,-0.0152 -0.2845,0.008 -0.2113,0.0319 -0.26377,0.0207 -0.2039,-0.0436 0.10702,-0.11511 1.59255,-0.44605 2.64395,-0.58903 1.1689,-0.15895 5.77179,-0.23141 6.62609,-0.10431 0.34489,0.0513 0.64598,0.12387 0.66908,0.16124 0.0231,0.0374 -0.0147,0.0679 -0.0841,0.0679 -0.0694,0 0.11692,0.18778 0.41396,0.41729 0.29704,0.2295 0.59931,0.41715 0.6717,0.41699 0.19285,-2.8e-4 0.59738,-0.26671 0.74319,-0.48924 0.11591,-0.17691 0.11648,-0.20882 0.007,-0.37619 -0.17337,-0.26461 -0.81741,-0.54192 -1.72388,-0.74231 -0.73808,-0.16316 -0.95186,-0.17449 -3.18115,-0.16862 -1.91516,0.005 -2.70641,0.04 -3.98317,0.17596 -3.13603,0.33394 -4.74694,0.74052 -4.9825,1.25753 -0.22602,0.49605 0.35925,0.76893 1.69317,0.78946 l 0.58004,0.009 0.19762,-0.37796 z m -1.95855,-0.0441 c -0.14703,-0.14702 -0.14703,-0.14699 -0.003,-0.29105 0.21654,-0.21654 1.73704,-0.59694 3.35823,-0.84016 2.51939,-0.378 6.28459,-0.49327 7.71565,-0.23623 0.74857,0.13446 1.79106,0.43092 2.00836,0.57114 0.23822,0.15371 0.002,0.15384 -0.38626,2.2e-4 -0.57941,-0.22922 -1.56457,-0.43204 -2.55,-0.52497 -0.90029,-0.0849 -3.81284,-0.002 -5.33137,0.15218 -1.14974,0.11657 -3.37858,0.52923 -4.30563,0.79718 -0.37427,0.10818 -0.52545,0.28347 -0.30721,0.35623 0.0658,0.0219 0.0675,0.045 0.006,0.0829 -0.0468,0.0289 -0.13895,-0.002 -0.20491,-0.0674 z m 5.10598,-1.84618 c 0.51658,-0.043 0.95991,-0.0988 0.98516,-0.12408 0.0253,-0.0253 0.10194,-0.25055 0.1704,-0.50065 l 0.12447,-0.45471 -0.40784,-0.23018 -0.40784,-0.23017 v -0.4798 c 0,-0.47141 -0.007,-0.48726 -0.38888,-0.9053 -0.2477,-0.27103 -0.43361,-0.41316 -0.51212,-0.39154 -0.0678,0.0187 -0.47322,0.0746 -0.90097,0.12444 l -0.77773,0.0905 -0.2931,0.41315 -0.29309,0.41316 0.10081,0.46977 c 0.0554,0.25839 0.10202,0.50837 0.10348,0.55551 0.002,0.0471 -0.18357,0.22633 -0.41119,0.39819 l -0.41385,0.31246 0.16843,0.36051 c 0.0926,0.19829 0.19171,0.397 0.22014,0.44157 0.0361,0.0566 0.34488,0.041 1.02309,-0.0518 0.53426,-0.0731 1.39404,-0.16803 1.91063,-0.21102 z m -1.26045,-0.29054 c -0.39455,-0.13331 -0.87376,-0.65443 -1.03384,-1.12425 -0.11427,-0.33539 -0.11399,-0.3369 0.10811,-0.55899 0.14861,-0.14862 0.22269,-0.29937 0.22269,-0.45321 0,-0.203 0.034,-0.23913 0.28451,-0.30255 0.15648,-0.0396 0.48095,-0.0946 0.72104,-0.12223 0.38127,-0.0438 0.44216,-0.0327 0.48106,0.0881 0.10805,0.33539 0.21939,0.47769 0.43165,0.55169 0.22267,0.0776 0.22651,0.0877 0.18528,0.4871 -0.0506,0.49033 -0.25609,0.9133 -0.59846,1.23185 -0.33253,0.30938 -0.42026,0.33153 -0.80204,0.20252 z m 0.71243,-0.29377 c 0.34038,-0.36091 0.48036,-0.64531 0.53193,-1.08069 0.0395,-0.33374 0.0283,-0.36566 -0.15932,-0.45113 -0.11101,-0.0506 -0.26001,-0.19419 -0.3311,-0.31912 -0.0999,-0.17566 -0.18277,-0.22726 -0.36525,-0.22763 -0.45563,-8.6e-4 -0.93999,0.0961 -0.93999,0.18839 0,0.0713 0.0904,0.0689 0.39589,-0.0103 0.59541,-0.15445 0.72121,-0.13564 0.85765,0.12818 0.0656,0.12698 0.20469,0.2633 0.30896,0.30295 0.1699,0.0645 0.18449,0.10167 0.14048,0.35713 -0.0774,0.44967 -0.32696,0.91036 -0.62696,1.15764 -0.15182,0.12514 -0.2296,0.22752 -0.17286,0.22752 0.0568,0 0.219,-0.12282 0.36057,-0.27293 z m -0.75295,0.0395 c -0.30201,-0.15943 -0.71215,-0.65979 -0.78777,-0.9611 -0.0314,-0.12521 0.006,-0.23398 0.1241,-0.35957 0.093,-0.099 0.15111,-0.22517 0.12907,-0.28032 -0.0286,-0.0715 -0.0418,-0.0655 -0.046,0.0207 -0.004,0.0665 -0.0743,0.18281 -0.15774,0.25833 -0.18867,0.17077 -0.1898,0.27346 -0.007,0.62897 0.20154,0.3918 0.71753,0.84813 0.95532,0.84485 0.0418,-5.7e-4 -0.0528,-0.0689 -0.20996,-0.15192 z m 0.61656,-0.23443 c 0.22092,-0.22597 0.31491,-0.42933 0.42133,-0.91159 0.0353,-0.15996 0.0122,-0.21386 -0.10782,-0.25196 -0.084,-0.0267 -0.20624,-0.15195 -0.27164,-0.27843 -0.11339,-0.21927 -0.13496,-0.22755 -0.46409,-0.17819 -0.47108,0.0706 -0.55338,0.11006 -0.55338,0.26505 0,0.0733 -0.0683,0.22019 -0.15174,0.3263 -0.0834,0.1061 -0.15174,0.21691 -0.15174,0.24625 0,0.0293 0.0683,-0.0273 0.15174,-0.12577 l 0.15174,-0.17913 0.14625,0.17236 c 0.0805,0.0948 0.1656,0.14103 0.18924,0.10278 0.0236,-0.0383 -0.0105,-0.09 -0.0757,-0.11509 -0.20452,-0.0785 -0.1017,-0.38403 0.13853,-0.41166 0.11475,-0.0132 0.20864,0.0127 0.20864,0.0576 0,0.0549 0.0476,0.0519 0.14558,-0.009 0.19212,-0.11999 0.414,0.0484 0.35602,0.27005 -0.022,0.0842 -0.004,0.19567 0.0385,0.24772 0.12349,0.14879 0.0477,0.43937 -0.12281,0.47075 -0.0834,0.0154 -0.21282,0.0925 -0.28746,0.17148 -0.0747,0.079 -0.18318,0.14355 -0.24117,0.14355 -0.15886,0 -0.34388,-0.21722 -0.34388,-0.40373 0,-0.12392 -0.0456,-0.16529 -0.18219,-0.16529 -0.13886,0 -0.16748,0.0271 -0.12033,0.11381 0.12077,0.22218 0.6791,0.67259 0.84358,0.68052 0.0264,8.9e-4 0.15361,-0.10581 0.28281,-0.23797 z m -0.35104,-0.29082 c 0.0521,-0.0834 0.17441,-0.15174 0.27176,-0.15174 0.20835,0 0.20503,-0.20073 -0.005,-0.33328 -0.27049,-0.1703 -0.67813,0.21486 -0.55821,0.52739 0.0589,0.15363 0.18057,0.13599 0.29196,-0.0424 z m -0.56772,-0.57537 c -0.0723,-0.0723 -0.21726,0.0448 -0.16337,0.13199 0.032,0.0519 0.0745,0.0505 0.12895,-0.004 0.0447,-0.0447 0.0602,-0.10228 0.0344,-0.12803 z m 0.61129,-0.22329 c -0.0233,-0.0233 -0.0658,0.0188 -0.0943,0.0936 -0.0411,0.10813 -0.0324,0.11684 0.0425,0.0425 0.0519,-0.0515 0.0752,-0.11269 0.0518,-0.13604 z m -0.16993,-0.094 c -0.0688,-0.0688 -0.28032,0.057 -0.23076,0.13714 0.034,0.055 0.0836,0.0518 0.15838,-0.0103 0.0599,-0.0497 0.0925,-0.10679 0.0724,-0.12686 z m 0.48806,0.0581 c 0,-0.0418 -0.0341,-0.0759 -0.0759,-0.0759 -0.0418,0 -0.0759,0.0341 -0.0759,0.0759 0,0.0418 0.0342,0.0759 0.0759,0.0759 0.0418,0 0.0759,-0.0341 0.0759,-0.0759 z m 2.14979,1.25216 c 0.11633,-0.31281 0.19292,-0.59881 0.1702,-0.63557 -0.0227,-0.0367 -0.22967,-0.14328 -0.45989,-0.23671 l -0.41857,-0.16989 v -0.41174 c 0,-0.36477 -0.0357,-0.45894 -0.3126,-0.82576 -0.17193,-0.22771 -0.36234,-0.41403 -0.42315,-0.41403 -0.0674,0 0.0251,0.15878 0.23672,0.4065 0.3271,0.38286 0.34729,0.43248 0.34747,0.85354 l 1.5e-4,0.44705 0.4171,0.21794 c 0.22941,0.11986 0.41711,0.24485 0.41711,0.27775 0,0.0329 -0.0679,0.27624 -0.15077,0.54076 -0.17594,0.56131 -0.16826,0.51888 -0.094,0.51888 0.0323,0 0.15389,-0.25593 0.27021,-0.56872 z m 1.74031,0.49284 c 0.55165,0 0.59574,-0.0109 0.50167,-0.12427 -0.0896,-0.10796 -0.22776,-0.118 -1.0525,-0.0764 -0.52215,0.0263 -1.00912,0.0481 -1.08214,0.0484 -0.073,2.9e-4 -0.13278,0.0569 -0.13278,0.12555 0,0.10939 0.0722,0.11883 0.58048,0.0759 0.31926,-0.027 0.85264,-0.0491 1.18527,-0.0491 z m 1.4536,-0.48018 c 0.14196,-0.39742 -0.42335,-0.6945 -0.66501,-0.34948 -0.13305,0.18997 -0.0846,0.41796 0.11933,0.56076 0.20105,0.14082 0.45504,0.0425 0.54568,-0.21128 z m -2.32531,-0.53232 c -0.039,-0.74576 -0.2484,-1.34241 -0.53365,-1.52062 -0.16244,-0.10149 -0.17216,-0.1982 -0.0199,-0.1982 0.2924,0 0.69553,1.03212 0.74085,1.89675 0.0171,0.32513 0.057,0.49057 0.11716,0.48557 0.0503,-0.005 0.19469,-0.0127 0.32104,-0.019 l 0.22972,-0.0114 -0.0457,-0.51212 c -0.11179,-1.25229 -0.50055,-1.95251 -1.18122,-2.1276 -0.37566,-0.0966 -1.58448,-0.16714 -1.58448,-0.0924 0,0.0268 0.11949,0.15457 0.26554,0.28388 0.2485,0.22001 0.26554,0.26465 0.26554,0.69569 v 0.4606 l 0.45523,0.2298 c 0.25037,0.12639 0.45521,0.27623 0.45521,0.33298 0,0.0568 -0.0512,0.24832 -0.1138,0.42572 -0.0626,0.17741 -0.1138,0.33534 -0.1138,0.35095 0,0.0156 0.17535,0.0284 0.38968,0.0284 h 0.38969 z m 1.1906,0.55439 c -0.0267,-0.0434 -0.006,-0.24604 0.0466,-0.45049 0.1553,-0.60592 -0.004,-1.15719 -0.47213,-1.62582 -0.20411,-0.20467 -0.39326,-0.34997 -0.42032,-0.32291 -0.0271,0.0271 0.004,0.10917 0.0676,0.18245 0.2854,0.32546 0.45642,0.89728 0.55608,1.85929 0.0326,0.31524 0.0764,0.43625 0.15801,0.43625 0.062,0 0.0909,-0.0354 0.0641,-0.0788 z m 0.86027,-0.98702 c 0.18877,-0.004 0.16503,-0.0395 -0.32387,-0.49316 -0.29017,-0.26925 -0.55361,-0.48955 -0.58543,-0.48955 -0.0318,0 0.006,0.11096 0.0841,0.24658 0.0781,0.13562 0.16498,0.38981 0.19309,0.56488 0.0484,0.30151 0.0611,0.31452 0.23975,0.24658 0.10376,-0.0394 0.28031,-0.0733 0.39235,-0.0753 z m -4.86632,-1.84741 c 0.007,-0.005 -0.0474,-0.23069 -0.12156,-0.50158 -0.13223,-0.48304 -0.13979,-0.49253 -0.39261,-0.49253 h -0.25779 l -0.0379,0.5486 -0.0379,0.5486 0.41728,-0.047 c 0.22951,-0.0258 0.42326,-0.0511 0.43055,-0.0561 z m 1.88904,-0.11547 c -0.24253,-0.268 -1.87068,-1.01399 -1.97594,-0.90534 -0.0142,0.0147 0.0297,0.23893 0.0975,0.49834 l 0.12332,0.47164 0.72306,0.0246 c 0.39768,0.0135 0.82224,0.0317 0.94346,0.0405 0.21272,0.0153 0.2158,0.0108 0.0886,-0.12973 z"
         id="path4952-2-3-5"
         sodipodi:nodetypes="ssssscsssscssssscsscssccsssssscssscsssssscsscccsscsssssssssscsssscssssssssssssscsssssscsssssssssssscsssssscssssssccsssscssssssccsssssssscsssssssssssssssssssssscsssscsssssssssssssscssscsssssssssssssssssssssscssssssssssssssssssssssssssssscssssscsssssssssssssscssscscsssccscsscssccsssssscsssssssssssssssssssscssssssssssssscssssscsscssssssscsssscsscsccsscsssssssssssssssssssssssssssssssssssssssssssssssssssssscsssssssscsssssscsssssssssssssssscsscssssccsssssssssssssssscssssssssscssssssssssssssssssssssssssssssssssssssscssssscssssssssssccccssssscssscsssssscscsssssssssscccsssssssssssssssssssssssssssssssssssssssssssssssssssssssssssssssssssssssscsscsccsssssssssssssssssssssssssssssssssssssssssssscsssssccssssssccsssssssssssscssssssssssssssssssssssssscsssssssccsssssssscsssssssscccsssscccscscssssssssssssssssssscsssssssssssssssssssssssssssscsssssssssssssscssssssssssssssssssssssssssscsscssssccssssccssscssssssssssssscssssscssssscsscsscssssssssssssscccssssscssss" />
      <circle
         style="fill:none;stroke:#ff0000;stroke-width:0.1;stroke-dasharray:none"
         id="path788-8-1-8-1-9-2-6-3-4"
         cx="-280.55032"
         cy="-57.192928"
         r="19.954653" />
      <ellipse
         style="fill:none;stroke:#ff00ff;stroke-width:0.1;stroke-dasharray:none;stroke-opacity:1"
         id="path1138-9-4-0-0-1-2-0-0-6"
         cx="-280.55032"
         cy="-57.192928"
         rx="18.492125"
         ry="18.492126" />
      <circle
         style="fill:none;stroke:#0000ff;stroke-width:0.1;stroke-linecap:round;stroke-dasharray:none;stroke-opacity:1;paint-order:markers stroke fill"
         id="path13019-1-33-3-83-70"
         cx="-280.55032"
         cy="-72.20388"
         r="2" />
    </g>
  </g>
</svg>
