<?xml version="1.0" encoding="UTF-8" standalone="no"?>
<!-- Created with Inkscape (http://www.inkscape.org/) -->

<svg
   width="41.008999mm"
   height="41.008999mm"
   viewBox="0 0 41.008999 41.008999"
   version="1.1"
   id="svg1"
   inkscape:version="1.4.2 (f4327f4, 2025-05-13)"
   sodipodi:docname="157.svg"
   xmlns:inkscape="http://www.inkscape.org/namespaces/inkscape"
   xmlns:sodipodi="http://sodipodi.sourceforge.net/DTD/sodipodi-0.dtd"
   xmlns="http://www.w3.org/2000/svg"
   xmlns:svg="http://www.w3.org/2000/svg">
  <sodipodi:namedview
     id="namedview1"
     pagecolor="#ffffff"
     bordercolor="#000000"
     borderopacity="0.25"
     inkscape:showpageshadow="2"
     inkscape:pageopacity="0.0"
     inkscape:pagecheckerboard="0"
     inkscape:deskcolor="#d1d1d1"
     inkscape:document-units="mm"
     inkscape:zoom="1.5878906"
     inkscape:cx="108.3198"
     inkscape:cy="200.26568"
     inkscape:window-width="1050"
     inkscape:window-height="1081"
     inkscape:window-x="3737"
     inkscape:window-y="0"
     inkscape:window-maximized="0"
     inkscape:current-layer="layer1" />
  <defs
     id="defs1" />
  <g
     inkscape:label="Layer 1"
     inkscape:groupmode="layer"
     id="layer1"
     transform="translate(-0.7937635,-0.79375582)">
    <g
       id="g11405"
       transform="translate(259.7148,78.482414)">
      <circle
         style="fill:none;stroke:#ff0000;stroke-width:0.1;stroke-dasharray:none"
         id="path788-8-1-8-1-9-2-9-3-7-1"
         cx="-238.41653"
         cy="-57.184158"
         r="19.954653" />
      <path
         style="fill:#000000;stroke-width:0.1;stroke-dasharray:none"
         d="m -240.47225,-41.56415 c -0.23856,-0.0689 -0.30358,-0.14401 -0.35299,-0.40733 -0.10023,-0.5344 0.005,-1.78581 0.17793,-2.11625 0.17079,-0.32625 0.14129,-0.73318 -0.18169,-2.50659 -0.14877,-0.81691 -0.28408,-1.06747 -0.57646,-1.06747 -0.15235,0 -0.16756,0.15449 -0.20863,2.11939 -0.0245,1.17262 -0.0875,2.22569 -0.14111,2.35733 -0.1303,0.32021 -0.64128,0.51218 -1.68293,0.63224 -0.80371,0.0926 -2.40503,0.0417 -2.59554,-0.0825 -0.29472,-0.19219 -0.46199,-1.14034 -0.30441,-1.72555 0.16243,-0.60321 0.55996,-0.99028 1.15343,-1.12308 0.2755,-0.0617 0.51695,-0.13807 0.53656,-0.1698 0.0196,-0.0317 0.0826,-0.82743 0.14003,-1.76822 0.0921,-1.50882 0.0874,-1.75303 -0.0399,-2.07089 -0.18187,-0.45457 -0.18457,-1.60207 -0.006,-2.59001 0.0725,-0.40109 0.13256,-0.82857 0.13355,-0.94996 9e-4,-0.1214 0.0725,-0.29885 0.15893,-0.39434 0.12197,-0.13478 0.15115,-0.30655 0.13043,-0.76787 -0.0207,-0.46181 0.009,-0.63304 0.13081,-0.76828 0.22945,-0.25353 0.0544,-0.57947 -0.38949,-0.72497 -0.51905,-0.17015 -0.7491,-0.34943 -0.94755,-0.73845 -0.0984,-0.19287 -0.21898,-0.35068 -0.26795,-0.35068 -0.19772,0 -0.80853,-0.66645 -0.98236,-1.07186 -0.41941,-0.97812 -0.37523,-1.45946 0.16527,-1.80065 l 0.36289,-0.22911 v -1.46029 c 0,-1.06896 0.0355,-1.54499 0.1321,-1.7764 0.0726,-0.17387 0.11814,-0.31612 0.10108,-0.31612 -0.017,0 -0.20978,0.0811 -0.42834,0.18032 -0.53997,0.24501 -0.94162,0.23847 -1.12145,-0.0182 -0.0781,-0.11143 -0.14191,-0.27127 -0.14191,-0.3552 0,-0.23675 0.56173,-0.67333 1.03785,-0.80664 0.33947,-0.0951 0.41654,-0.15124 0.36586,-0.26677 -0.57019,-1.29996 -0.489,-1.78925 0.46861,-2.82357 0.61532,-0.66462 1.10306,-0.88147 1.95626,-0.86977 1.14146,0.0157 2.6034,0.58216 4.19696,1.62628 l 0.90571,0.59343 0.33029,-0.51632 c 0.72164,-1.1281 1.54475,-1.88938 1.80727,-1.6715 0.2238,0.18575 0.5963,1.36278 0.68818,2.17458 0.0565,0.49901 0.0594,1.22232 0.007,1.94862 -0.0803,1.13232 -0.0919,1.17745 -0.59255,2.29232 -0.35075,0.78123 -0.59532,1.50405 -0.7812,2.30889 -0.14882,0.6444 -0.27108,1.2024 -0.27167,1.24 -6.9e-4,0.0376 0.13224,0.0694 0.29518,0.0706 0.63233,0.004 2.07381,0.47152 2.07381,0.67152 0,0.0625 0.31257,0.25108 0.6946,0.41896 0.89457,0.39315 2.11928,1.12343 2.38193,1.42031 0.1864,0.2107 0.20509,0.32391 0.20509,1.24177 0,0.99876 0.002,1.00753 0.1678,0.79254 0.0923,-0.11956 0.28517,-0.42249 0.42863,-0.67318 0.4132,-0.72202 0.77299,-1.12599 1.09854,-1.23344 0.67283,-0.22206 0.93829,0.35682 0.57642,1.25698 -0.38136,0.94861 -1.74284,2.07198 -2.90948,2.4006 -0.2256,0.0636 -0.42517,0.12652 -0.44346,0.13996 -0.0182,0.0135 0.0954,0.33345 0.25262,0.71116 0.58586,1.40728 1.16983,4.34352 1.25576,6.314 0.0735,1.68467 0.0667,1.69671 -1.03458,1.85304 -0.898,0.12748 -2.3596,0.0737 -2.68804,-0.0988 -0.11755,-0.0618 -0.24488,-0.16488 -0.28296,-0.22917 -0.0471,-0.0796 -0.28699,-0.11462 -0.75203,-0.1098 l -0.68281,0.007 v 0.44738 c 0,0.73734 -0.16831,1.24543 -0.46303,1.39783 -0.29682,0.1535 -2.74417,0.17762 -3.24777,0.032 z m 0.88494,-1.08941 c 0,-0.64885 0.0324,-0.98803 0.0912,-0.95176 0.0513,0.0317 0.0912,0.47192 0.0912,1.0081 v 0.95176 h 0.54693 c 0.42034,0 0.54957,-0.0317 0.55835,-0.13673 0.006,-0.0752 0.0216,-0.17775 0.0341,-0.2279 0.0126,-0.0502 0.0285,-0.4911 0.0356,-0.97992 0.009,-0.61105 0.0404,-0.84606 0.10119,-0.75205 0.0486,0.0752 0.089,0.55477 0.0898,1.06571 6.9e-4,0.51094 0.0388,0.95205 0.0843,0.98026 0.0457,0.0283 0.23806,-1.9e-4 0.42763,-0.0629 0.4352,-0.1443 0.53421,-0.46214 0.45854,-1.47202 -0.0648,-0.86479 -0.20273,-1.10523 -0.7181,-1.25181 -0.57996,-0.16494 -0.65308,-0.29619 -0.12733,-0.22852 0.42475,0.0547 0.44074,0.0486 0.39252,-0.1477 -0.0276,-0.11258 -0.0792,-0.42645 -0.11457,-0.69747 -0.0542,-0.41571 -0.0815,-0.46917 -0.17467,-0.34184 -0.14855,0.20317 -0.22041,0.19136 -0.50713,-0.0834 l -0.24453,-0.23426 -0.0976,0.27986 c -0.11236,0.3223 -0.16713,0.33702 -0.46845,0.12597 -0.12082,-0.0847 -0.23318,-0.11539 -0.24967,-0.0683 -0.11184,0.31897 -0.18888,0.3409 -0.50706,0.14423 -0.17397,-0.10751 -0.34222,-0.19548 -0.37392,-0.19548 -0.085,0 -0.0673,1.02847 0.0198,1.16609 0.0572,0.09 0.16834,0.0968 0.47228,0.0285 0.56439,-0.12681 0.64941,-0.014 0.1362,0.1809 -0.59332,0.22524 -0.75006,0.39183 -0.86268,0.91701 -0.13459,0.62754 -0.12456,1.67313 0.0171,1.79036 0.0986,0.0815 0.30461,0.13153 0.77483,0.18789 0.0851,0.01 0.11395,-0.24146 0.11395,-0.99444 z m -3.2045,-0.30753 c 0.31818,-0.0681 0.6234,-0.16883 0.67826,-0.22371 0.0549,-0.0549 0.13853,-0.65719 0.18587,-1.33847 0.0776,-1.11652 0.0708,-1.2537 -0.0692,-1.39098 -0.14533,-0.14257 -0.16869,-0.13564 -0.3655,0.10834 l -0.21024,0.26064 -0.21053,-0.37459 c -0.11579,-0.20601 -0.23706,-0.37458 -0.2695,-0.37458 -0.0324,0 -0.11385,0.10259 -0.18093,0.22789 -0.15317,0.2862 -0.25006,0.28786 -0.37824,0.006 -0.0864,-0.18963 -0.12614,-0.20597 -0.27707,-0.11394 -0.14425,0.088 -0.19797,0.0781 -0.2962,-0.0542 -0.11235,-0.15135 -0.12354,-0.14845 -0.17551,0.0455 -0.10859,0.40531 -0.0645,0.60331 0.14709,0.66214 0.45361,0.12607 0.88877,0.35425 0.88877,0.46603 0,0.0881 -0.0992,0.0735 -0.38742,-0.0574 -0.47849,-0.21719 -1.25282,-0.23194 -1.6744,-0.0319 -0.58995,0.27996 -0.86077,0.9752 -0.68485,1.75815 0.12113,0.53911 0.28649,0.69211 0.22108,0.20458 -0.0942,-0.70248 0.39224,-1.92838 0.76523,-1.92838 0.12819,0 0.12149,0.0318 -0.0438,0.2077 -0.44085,0.46925 -0.63631,1.71431 -0.31896,2.03167 0.13574,0.13573 0.2795,0.14788 1.11666,0.0943 0.52849,-0.0338 1.2212,-0.11723 1.53937,-0.18539 z m 10.72039,-0.3502 c 0.26963,-0.0951 0.37912,-0.19373 0.43577,-0.39279 0.0733,-0.25791 -0.0721,-2.67176 -0.1667,-2.76641 -0.0256,-0.0256 -0.0831,0.0126 -0.12781,0.0848 -0.0447,0.0723 -0.0968,0.11212 -0.11572,0.0885 -0.0189,-0.0236 -0.12654,-0.17626 -0.23905,-0.3392 -0.25301,-0.36639 -0.33077,-0.37046 -0.45165,-0.0237 -0.0697,0.19989 -0.13527,0.25711 -0.24601,0.21461 -0.0848,-0.0326 -0.18447,-0.004 -0.22745,0.0657 -0.0595,0.0962 -0.13017,0.0657 -0.31855,-0.13754 -0.30077,-0.32454 -0.42016,-0.19901 -0.38518,0.40504 0.0216,0.37281 0.0466,0.41284 0.27442,0.43904 0.45913,0.0529 0.25838,0.19906 -0.27346,0.1992 -0.69443,1.9e-4 -1.12772,0.21766 -1.27104,0.63795 -0.1267,0.37151 -0.14026,0.96922 -0.0279,1.23062 0.055,0.1281 0.0805,0.006 0.086,-0.41021 0.009,-0.66854 0.0767,-1.00272 0.20424,-1.00272 0.0486,0 0.0578,0.0901 0.0209,0.2051 -0.0998,0.31171 -0.0704,1.20442 0.0469,1.42365 0.0672,0.12553 0.19168,0.19411 0.3515,0.19362 l 0.24748,-6.9e-4 0.0136,-0.75128 c 0.007,-0.41321 0.0595,-0.85384 0.11577,-0.97917 0.0812,-0.18099 0.0917,-0.0656 0.0508,0.56064 -0.0283,0.43369 -0.0232,0.90086 0.0113,1.03815 l 0.0627,0.24963 0.78457,-0.0529 c 0.43151,-0.0291 0.9466,-0.10997 1.14466,-0.17977 z m -3.41384,-0.88947 c 0,-0.62216 0.17273,-1.12179 0.43664,-1.26304 0.0983,-0.0525 0.34784,-0.12264 0.55466,-0.15572 0.41897,-0.0671 0.41773,-0.064 0.27078,-0.64761 l -0.10528,-0.41806 -0.17547,0.34203 -0.17547,0.34202 -0.14385,-0.20539 c -0.13517,-0.19299 -0.15096,-0.19568 -0.26134,-0.0448 -0.1093,0.14949 -0.13302,0.14255 -0.3416,-0.0999 -0.2148,-0.24971 -0.23144,-0.25396 -0.39947,-0.10194 -0.0965,0.0872 -0.22338,0.15866 -0.2821,0.15866 -0.0588,0 -0.10678,0.082 -0.10678,0.18232 0,0.10023 -0.0513,0.18255 -0.11394,0.18283 -0.17069,6.8e-4 -0.73367,0.17066 -0.88337,0.26661 -0.23056,0.14776 -0.0821,1.28253 0.16772,1.28253 0.0416,0 0.10098,-0.18529 0.132,-0.41177 0.0612,-0.44677 0.3395,-1.0688 0.39915,-0.89226 0.0202,0.0599 -0.006,0.18929 -0.0589,0.28756 -0.0526,0.0983 -0.1226,0.46879 -0.15555,0.82338 -0.0771,0.83025 -0.006,0.92234 0.7063,0.92234 h 0.53577 z m -3.95265,-1.98968 c 0.0124,-0.018 0.14652,0.0557 0.29821,0.16364 l 0.27577,0.19637 0.14168,-0.3391 0.14168,-0.33909 0.29643,0.2873 c 0.2913,0.28235 0.29844,0.28408 0.41324,0.10023 0.0919,-0.14727 0.0947,-0.29711 0.013,-0.70437 -0.3507,-1.74823 -0.72289,-2.85609 -1.03234,-3.07284 -0.11224,-0.0786 -0.40012,-0.13359 -0.69954,-0.13359 -0.7819,0 -1.57832,0.56011 -1.72572,1.21367 -0.0586,0.26012 -0.0278,0.38514 0.1759,0.71313 0.27421,0.44141 0.51405,1.11249 0.60241,1.68556 0.0444,0.28752 0.0933,0.36767 0.20768,0.33971 0.0823,-0.0201 0.27271,0.0408 0.42313,0.13539 0.27098,0.17042 0.27424,0.17024 0.35974,-0.0206 0.0475,-0.10591 0.0964,-0.20737 0.1087,-0.22538 z m -2.62142,0.0293 c 0.19747,0.0627 0.1998,0.0522 0.17385,-0.78025 l -0.0263,-0.84377 -0.45579,-0.10366 c -0.54914,-0.12493 -0.76543,-0.23365 -1.39014,-0.69873 l -0.47857,-0.35629 -0.0181,0.9373 c -0.0251,1.29435 -0.0158,1.42461 0.11335,1.58022 0.10033,0.12088 0.13185,0.11973 0.27529,-0.01 0.15017,-0.13591 0.17006,-0.1311 0.27274,0.0661 0.061,0.11697 0.12361,0.22766 0.13932,0.24597 0.0157,0.0184 0.12674,-0.0808 0.24673,-0.22033 l 0.21817,-0.25364 0.21589,0.38412 c 0.2153,0.38307 0.2163,0.38359 0.36468,0.18685 0.10922,-0.14478 0.20207,-0.18037 0.34897,-0.13374 z m 5.50998,0.0814 c 0.14909,-0.044 0.16064,-0.12208 0.11034,-0.74719 -0.0846,-1.05078 -0.1379,-1.3108 -0.25964,-1.26564 -0.0596,0.0222 -0.32374,0.0949 -0.58696,0.16158 -0.2632,0.0667 -0.47856,0.15197 -0.47856,0.18935 0,0.0373 0.0614,0.36804 0.13645,0.73481 0.24469,1.19574 0.19352,1.10338 0.57411,1.03598 0.18575,-0.0328 0.41267,-0.0819 0.50426,-0.10889 z m 1.51008,-0.46536 c 0.0848,-0.14969 0.0986,-0.14846 0.22291,0.0198 0.12689,0.17178 0.13858,0.16478 0.27667,-0.16573 0.13453,-0.32194 0.13116,-0.40729 -0.0501,-1.27323 -0.10689,-0.51048 -0.20633,-0.94308 -0.22103,-0.96133 -0.0147,-0.0183 -0.13379,0.051 -0.2646,0.1539 -0.13082,0.10291 -0.44015,0.2543 -0.68741,0.33642 -0.24726,0.082 -0.47212,0.18584 -0.49971,0.23047 -0.0276,0.0446 -0.0223,0.4517 0.012,0.9046 0.0656,0.8698 0.16619,1.01324 0.43808,0.62507 l 0.13894,-0.19838 0.19189,0.24395 c 0.22433,0.28519 0.31836,0.30315 0.44234,0.0845 z m 1.83292,-0.12009 c 0,-0.0544 0.077,-0.0728 0.17428,-0.042 0.13861,0.0441 0.1867,-9e-4 0.2349,-0.2207 0.0908,-0.41314 0.19823,-0.41588 0.47754,-0.0122 0.29483,0.42611 0.3662,0.45103 0.44077,0.15392 0.11378,-0.45329 -0.69415,-3.90406 -1.10292,-4.71071 -0.24244,-0.47846 -0.62616,-0.73467 -1.30301,-0.87004 l -0.27444,-0.0549 0.1444,0.39735 c 0.2071,0.56992 0.1852,1.64074 -0.0466,2.27895 -0.1027,0.28284 -0.15644,0.54947 -0.11936,0.59253 0.0371,0.0431 0.1646,0.60484 0.28337,1.24844 0.18771,1.01709 0.23164,1.1487 0.33586,1.00618 0.11311,-0.15469 0.1339,-0.14997 0.36712,0.0832 0.26142,0.26143 0.38809,0.31036 0.38809,0.14993 z m -8.13665,-1.41046 c -0.40427,-0.37487 -0.32523,-0.92697 0.22193,-1.55016 0.39609,-0.45111 0.90641,-0.67499 1.54426,-0.67748 0.63074,-0.002 0.92549,0.20047 1.22261,0.84174 l 0.20751,0.44793 0.0608,-0.27671 c 0.0863,-0.39306 -0.22372,-1.05247 -0.60345,-1.28339 -0.39813,-0.24212 -1.01568,-0.32673 -1.44528,-0.19801 -0.83719,0.25082 -1.81466,1.55497 -1.70039,2.26866 0.0562,0.35113 0.33338,0.659 0.59328,0.659 0.11065,0 0.0848,-0.059 -0.10129,-0.23158 z m 4.72683,-0.3288 c 0.91696,-0.33179 1.42217,-0.75118 1.5761,-1.30832 0.22034,-0.79757 0.064,-2.33187 -0.255,-2.5026 -0.13002,-0.0697 -1.54008,-0.36884 -1.73792,-0.36884 -0.0381,0 -0.0924,0.17392 -0.12093,0.38649 -0.0961,0.71715 -0.54541,0.85017 -1.4828,0.43902 -0.81422,-0.35712 -1.00619,-1.82432 -0.30312,-2.31678 0.10602,-0.0742 0.16563,-0.17879 0.13253,-0.23235 -0.0391,-0.0633 -0.24998,-0.002 -0.60265,0.17647 -0.60401,0.3049 -1.85116,0.63367 -2.41067,0.6355 l -0.36463,9e-4 -0.006,0.49026 c -0.01,0.70023 -0.394,1.45915 -0.85842,1.69609 -0.33656,0.1717 -0.347,0.19122 -0.30326,0.56764 0.0889,0.76461 0.38835,1.48774 0.86935,2.099 0.30689,0.38997 0.42837,0.43416 0.37119,0.13501 -0.0631,-0.3301 0.31189,-1.19603 0.7175,-1.65682 0.98335,-1.11714 2.53537,-1.19491 3.21938,-0.1613 0.29962,0.45276 0.36429,0.82695 0.23562,1.36331 -0.0766,0.31919 -0.0791,0.51408 -0.009,0.69846 0.1131,0.29745 0.12395,0.2963 1.33365,-0.14141 z m -0.004,-0.79854 c -0.0633,-0.10226 0.16211,-1.30562 0.32166,-1.71761 0.0688,-0.17767 0.14545,-0.2051 0.57286,-0.2051 0.43683,0 0.49939,0.0237 0.54532,0.20673 0.0672,0.26803 -0.17705,1.43576 -0.33304,1.59174 -0.16499,0.165 -1.02215,0.26122 -1.1068,0.12424 z m 0.98104,-0.23288 c 0.11212,-0.11212 0.33552,-1.04497 0.33552,-1.40105 0,-0.0646 -0.15381,-0.10645 -0.3919,-0.10645 h -0.3919 l 0.0389,0.33327 c 0.0311,0.266 0.0117,0.32283 -0.0957,0.2816 -0.10054,-0.0386 -0.16112,0.0633 -0.23952,0.40295 -0.0577,0.25003 -0.10495,0.49249 -0.10495,0.53879 0,0.13675 0.70439,0.096 0.84952,-0.0491 z m -0.6672,-0.18038 c 0,-0.12237 0.041,-0.24786 0.0912,-0.27884 0.0532,-0.0328 0.0912,0.0599 0.0912,0.22251 0,0.15336 -0.041,0.27885 -0.0912,0.27885 -0.0502,0 -0.0912,-0.10012 -0.0912,-0.22252 z m 0.41409,0.0465 c -0.0288,-0.0466 -0.0108,-0.11063 0.0402,-0.14212 0.0509,-0.0315 0.0926,0.006 0.0926,0.0848 0,0.16013 -0.0547,0.18371 -0.13284,0.0573 z m 0.0662,-0.52526 c 0.0887,-0.0231 0.21175,-0.0216 0.27346,0.004 0.0617,0.025 -0.0109,0.0438 -0.16126,0.042 -0.1504,-0.002 -0.2009,-0.0224 -0.1122,-0.0454 z m -0.0245,-0.47617 c 0,-0.11196 0.0589,-0.1899 0.14343,-0.1899 0.0848,0 0.13138,0.062 0.11394,0.15196 -0.0444,0.22869 -0.25737,0.26009 -0.25737,0.0379 z m -6.77375,2.05354 c -0.44546,-0.40803 -0.7921,-1.18858 -0.89464,-2.0145 -0.0711,-0.57251 -0.12593,-0.71416 -0.37779,-0.97568 -0.16205,-0.16827 -0.34349,-0.38701 -0.40322,-0.48607 -0.0891,-0.14789 -0.10918,-0.0251 -0.11195,0.68586 -0.004,0.98154 0.13349,1.39452 0.68891,2.07235 0.30906,0.37716 1.16236,1.02697 1.34857,1.02697 0.048,0 -0.0644,-0.13902 -0.24988,-0.30893 z m -1.08906,-0.40598 c -0.2271,-0.24281 -0.4799,-0.57096 -0.56174,-0.72925 -0.19227,-0.37179 -0.25402,-0.36867 -0.12332,0.006 0.0863,0.24745 0.91642,1.16447 1.05417,1.16447 0.0242,0 -0.14199,-0.19865 -0.36911,-0.44145 z m 9.16977,-1.92862 c 0.0108,-0.77847 -0.14937,-1.44691 -0.41461,-1.73161 -0.25812,-0.27705 -0.28589,-0.18045 -0.0837,0.29119 0.3562,0.83101 0.44937,1.84474 0.23845,2.5949 -0.0259,0.092 0.0198,0.0237 0.10173,-0.15176 0.0921,-0.19739 0.15234,-0.57974 0.15814,-1.00272 z m -8.62602,-0.8432 c 0.48952,-0.53537 0.70226,-1.42791 0.43688,-1.83293 -0.13711,-0.20925 -0.22003,-0.24088 -0.63156,-0.24088 -0.41923,0 -0.49668,0.0311 -0.67319,0.26978 -0.333,0.4504 -0.24341,1.3549 0.18772,1.89518 0.14238,0.17844 0.47432,0.13395 0.68015,-0.0912 z m -0.63394,-0.0455 c -0.16542,-0.18609 -0.34099,-0.77602 -0.34172,-1.14818 -2.8e-4,-0.14267 0.0843,-0.37853 0.18801,-0.52414 0.15824,-0.22223 0.25171,-0.26475 0.58203,-0.26475 0.32429,0 0.42114,0.0421 0.55051,0.23961 0.25209,0.38474 0.0463,1.21886 -0.41434,1.67953 -0.21965,0.21964 -0.38064,0.22475 -0.56449,0.018 z m 0.48417,-0.11715 c 0.22371,-0.11973 0.22233,-0.19767 -0.006,-0.34026 -0.2578,-0.161 -0.57437,0.0307 -0.44619,0.27024 0.10066,0.188 0.2023,0.20375 0.45218,0.07 z m 0.44338,-0.89095 c 0.004,-0.0656 -0.0346,-0.094 -0.0847,-0.0629 -0.0502,0.031 -0.0883,0.16674 -0.0847,0.30165 0.005,0.21904 0.0148,0.22578 0.0847,0.0629 0.0431,-0.10022 0.0812,-0.23601 0.0847,-0.30163 z m -1.0243,0.007 c -0.0231,-0.0887 -0.0435,-0.0382 -0.0454,0.11222 -0.002,0.15042 0.017,0.22298 0.042,0.16126 0.0251,-0.0617 0.0266,-0.18478 0.004,-0.27348 z m 0.66587,0.15325 c 1e-4,-0.0776 0.0422,-0.18329 0.0936,-0.2346 0.0637,-0.0637 0.036,-0.14525 -0.0872,-0.25664 -0.17017,-0.154 -0.18934,-0.15444 -0.33612,-0.007 -0.0856,0.0856 -0.15922,0.26853 -0.16353,0.4065 -0.006,0.21666 0.0262,0.24965 0.24262,0.24225 0.16167,-0.005 0.25054,-0.0586 0.25067,-0.14987 z m -0.30243,-0.78017 c 0.0285,-0.0742 0.0303,-0.15616 0.004,-0.18237 -0.0559,-0.0559 -0.43064,0.32741 -0.43064,0.44054 0,0.11771 0.36778,-0.10484 0.42662,-0.25817 z m 0.5428,-0.002 c -0.27562,-0.23723 -0.37049,-0.24132 -0.28256,-0.0121 0.0561,0.14605 0.4208,0.35032 0.49818,0.279 0.025,-0.0231 -0.072,-0.14317 -0.21562,-0.26682 z m 0.32821,1.32694 c 0.13712,-0.27175 0.27175,-0.6787 0.29916,-0.90431 0.0403,-0.33107 0.007,-0.27335 -0.16785,0.29923 -0.11974,0.3902 -0.3159,0.81628 -0.43591,0.94686 -0.13285,0.14457 -0.16471,0.22078 -0.0814,0.19487 0.0752,-0.0234 0.24894,-0.26489 0.38606,-0.53665 z m 5.31969,-0.0513 c 0.0324,-0.17298 0.0335,-0.33994 0.002,-0.37102 -0.0311,-0.0311 -0.0565,0.0272 -0.0565,0.1296 0,0.13773 -0.0592,0.1861 -0.22789,0.1861 -0.18913,0 -0.2279,-0.0436 -0.2279,-0.2567 0,-0.14118 -0.0404,-0.28166 -0.0898,-0.31218 -0.0817,-0.0505 -0.0709,0.13254 0.0415,0.70561 0.0361,0.18395 -0.15821,0.21383 -0.29639,0.0455 -0.0514,-0.0627 -0.11244,-0.2165 -0.13549,-0.34183 -0.0411,-0.22377 -0.0421,-0.22335 -0.0544,0.0228 -0.0127,0.25715 -0.0703,0.2981 -0.25428,0.18091 -0.0856,-0.0545 -0.30506,-0.93447 -0.30506,-1.22259 0,-0.0406 0.16926,-0.19647 0.37614,-0.34633 0.29653,-0.21481 0.34462,-0.28458 0.22718,-0.32965 -0.20333,-0.078 -0.59104,0.19235 -0.70524,0.49181 -0.0978,0.25622 -0.0333,0.95033 0.11361,1.2249 0.15721,0.29379 1.09796,0.65458 1.42153,0.54519 0.0613,-0.0207 0.13802,-0.17921 0.17047,-0.35219 z m -0.78407,-0.44274 c -0.0625,-0.39446 -0.0469,-0.48337 0.11688,-0.66087 0.10399,-0.11281 0.14733,-0.20511 0.0962,-0.20511 -0.0512,0 -0.16343,0.0779 -0.24962,0.17317 -0.15137,0.16725 -0.14903,0.47279 0.007,1.04153 0.0852,0.30834 0.10129,0.11054 0.0284,-0.34872 z m 6.08206,0.17887 c 1.12659,-0.50082 1.8871,-1.45302 2.34521,-2.93634 0.0533,-0.17273 0.0293,-0.2051 -0.15219,-0.2051 -0.26401,0 -0.74894,0.49468 -1.16164,1.18503 -0.16485,0.27574 -0.41326,0.64556 -0.55203,0.82182 -0.13876,0.17625 -0.29908,0.49416 -0.35624,0.70646 l -0.10398,0.386 h -0.58901 c -0.44739,0 -0.58899,0.0311 -0.58899,0.12915 0,0.2829 0.39305,0.2534 1.15883,-0.087 z m -6.55181,-0.398 c -0.0871,-0.47788 -0.0821,-0.49891 0.16759,-0.70318 0.29943,-0.24501 0.22127,-0.28728 -0.11897,-0.0644 -0.21902,0.14352 -0.22935,0.18365 -0.17,0.66089 0.0602,0.48397 0.12054,0.69136 0.18277,0.62811 0.0155,-0.0159 -0.012,-0.25054 -0.0613,-0.52147 z m 5.16679,0.35864 c -0.0301,-0.0487 -0.34535,-0.17497 -0.70068,-0.28079 -0.35532,-0.10582 -0.7126,-0.21467 -0.79395,-0.24188 -0.0813,-0.0272 -0.0535,0.0208 0.0618,0.10689 0.11534,0.0859 0.46401,0.22995 0.77484,0.31993 0.69544,0.20132 0.72593,0.20577 0.658,0.0959 z m -4.11979,-0.13059 c 0.0514,-0.13412 -0.007,-0.2368 -0.13588,-0.2368 -0.0418,0 -0.0759,0.0821 -0.0759,0.18232 0,0.209 0.13885,0.24471 0.21185,0.0545 z m 2.16846,-0.0878 c -0.0588,-0.0708 -0.29065,-0.17509 -0.51521,-0.23163 -0.22457,-0.0566 -0.63864,-0.20468 -0.92015,-0.32919 -0.28152,-0.1245 -0.52527,-0.22636 -0.54168,-0.22636 -0.0164,0 0.0258,0.13332 0.0937,0.29627 0.11799,0.28297 0.16377,0.30482 1.02111,0.48703 0.49366,0.10495 0.91367,0.17768 0.93334,0.16171 0.0197,-0.016 -0.0124,-0.087 -0.0711,-0.15783 z m -3.04919,-0.26303 c -0.0252,-0.0627 -0.046,-0.0114 -0.046,0.11395 0,0.12534 0.0206,0.17662 0.046,0.11394 0.0253,-0.0627 0.0253,-0.16521 0,-0.22789 z m 5.49258,0.25953 c -0.0796,-0.077 -4.75361,-1.33993 -4.79731,-1.29622 -0.0515,0.0515 0.27934,0.15265 2.75389,0.8411 1.54703,0.4304 2.15871,0.56663 2.04342,0.45512 z m 0.90808,-0.74183 c 0.14759,-0.99232 0.13229,-2.05497 -0.0329,-2.29091 -0.41694,-0.59527 -3.9249,-2.2176 -4.79511,-2.2176 -0.27112,0 -0.26229,-0.0154 -0.41219,0.71606 -0.0241,0.11807 -0.0441,0.8326 -0.0441,1.58782 0,1.00331 0.0318,1.40464 0.11808,1.49004 0.13206,0.1307 4.44913,1.37633 4.82436,1.392 0.22991,0.01 0.24373,-0.0177 0.34183,-0.67741 z m -1.88042,-0.0454 c -0.55593,-0.18089 -0.56973,-0.19313 -0.56973,-0.50643 0,-0.44315 0.17159,-1.58838 0.27528,-1.83729 0.11912,-0.28594 0.51855,-0.26796 1.36554,0.0615 l 0.68368,0.26593 0.0275,0.46233 c 0.0306,0.51376 -0.11798,1.45654 -0.25039,1.58896 -0.1708,0.17079 -0.95446,0.1529 -1.5319,-0.035 z m 0.52576,-0.18706 c -0.73021,-0.25907 -0.731,-0.26076 -0.59868,-1.26788 0.11659,-0.88743 0.11105,-1.00895 -0.0392,-0.85866 -0.12629,0.1263 -0.32275,1.85099 -0.22189,1.94805 0.10844,0.10431 0.94203,0.3565 1.17725,0.3561 0.10033,-1.9e-4 -0.0426,-0.0802 -0.31743,-0.17761 z m 1.01591,-0.38322 0.0307,-0.34593 -0.59253,-0.20896 c -0.32587,-0.11492 -0.66429,-0.24053 -0.75203,-0.27912 -0.12187,-0.0536 -0.15953,-0.0275 -0.15953,0.11051 0,0.0994 -0.0242,0.3023 -0.054,0.45096 -0.0469,0.23492 -0.0202,0.28359 0.2051,0.37192 0.50058,0.19628 1.17135,0.36233 1.2311,0.30475 0.0332,-0.032 0.0742,-0.21386 0.0912,-0.40413 z m 0.12194,-0.93525 c 0,-0.35204 -0.004,-0.3562 -0.62427,-0.61403 -0.34335,-0.14277 -0.68176,-0.23751 -0.75203,-0.21056 -0.076,0.0291 -0.12779,0.1786 -0.12779,0.36861 0,0.34867 0.2013,0.50499 0.95716,0.74335 0.49088,0.15478 0.54693,0.12533 0.54693,-0.28737 z m -0.72537,-0.0343 c -0.0673,-0.10908 0.1041,-0.21716 0.22549,-0.14212 0.10195,0.0631 0.035,0.22698 -0.0926,0.22698 -0.0443,0 -0.10399,-0.0382 -0.13285,-0.0848 z m -3.18608,0.40566 c -0.5856,-0.20868 -0.72658,-0.41491 -0.7665,-1.12127 -0.033,-0.58449 -0.0197,-0.63546 0.23867,-0.91203 0.34135,-0.36543 0.76774,-0.38783 1.43829,-0.0756 0.96931,0.45135 1.12924,1.16222 0.43858,1.94933 -0.2128,0.24251 -0.32332,0.29383 -0.62557,0.29053 -0.20192,-0.002 -0.52747,-0.0611 -0.72347,-0.13098 z m 0.8805,-0.0165 c -0.0627,-0.0252 -0.16522,-0.0252 -0.22789,0 -0.0627,0.0252 -0.0114,0.046 0.11394,0.046 0.12534,0 0.17662,-0.0207 0.11395,-0.046 z m -0.63943,-0.14482 c -0.40827,-0.13091 -0.75072,-0.46947 -0.75072,-0.74222 0,-0.12478 -0.0426,-0.25324 -0.0949,-0.28547 -0.0883,-0.0546 -0.071,0.11715 0.0614,0.60987 0.0439,0.16359 0.72049,0.53764 0.94497,0.52247 0.0752,-0.005 0.004,-0.0522 -0.16086,-0.10463 z m 1.12214,-0.29203 c 0.22437,-0.22436 0.29626,-0.66624 0.16435,-1.01001 -0.0821,-0.21426 -0.91893,-0.58741 -1.31958,-0.58848 -0.40757,-9e-4 -0.54423,0.15307 -0.60375,0.68104 -0.0555,0.49168 0.12612,0.82212 0.5539,1.00818 0.46783,0.20351 0.94691,0.16742 1.20508,-0.0908 z m -1.90364,-1.16639 c -0.0252,-0.0627 -0.046,-0.0114 -0.046,0.11394 0,0.12534 0.0207,0.17662 0.046,0.11394 0.0253,-0.0627 0.0253,-0.16521 0,-0.22788 z m -0.67215,3.2129 c -0.0263,-0.10043 -0.2068,-0.35685 -0.40118,-0.56972 -0.19437,-0.21288 -0.33062,-0.32021 -0.30277,-0.23851 0.0315,0.0924 -0.0377,0.21802 -0.18281,0.33217 -0.12839,0.10097 -0.23343,0.21615 -0.23343,0.25592 0,0.0398 0.12363,-0.0462 0.27474,-0.19091 0.26339,-0.25236 0.28126,-0.25649 0.43299,-0.10001 0.15049,0.15514 0.14819,0.17 -0.0469,0.30286 -0.27878,0.18989 -0.26229,0.35822 0.0172,0.17512 0.20873,-0.13677 0.22575,-0.13463 0.27961,0.0351 0.0752,0.23697 0.22456,0.23518 0.16255,-0.002 z m 1.47777,-0.22129 c -0.81294,-0.25936 -1.20064,-0.35608 -1.12528,-0.28071 0.11174,0.11172 1.30726,0.49168 1.53548,0.48799 0.12844,-0.002 -0.0506,-0.0926 -0.4102,-0.20728 z m 6.10307,-1.07992 c 0.12777,-0.25641 0.23083,-0.57095 0.22901,-0.69897 -0.002,-0.16694 -0.0522,-0.0968 -0.17636,0.2482 -0.0952,0.26454 -0.26626,0.63372 -0.38015,0.8204 -0.14427,0.2365 -0.16125,0.3026 -0.056,0.21798 0.0831,-0.0668 0.25567,-0.33121 0.38345,-0.58761 z m -11.22583,0.42552 c 0.82732,-0.18509 2.22851,-0.82273 2.2995,-1.0464 0.0596,-0.1877 -0.0562,-0.92194 -0.11689,-0.7416 -0.0845,0.25054 -1.56344,0.68373 -2.97939,0.87261 l -0.82604,0.11018 -0.028,0.38583 c -0.0241,0.33131 0.002,0.39776 0.18231,0.47022 0.31597,0.12676 0.74058,0.11206 1.46859,-0.0508 z m -2.52168,-0.12667 c 0.10183,0 0.12771,-0.094 0.10646,-0.38741 -0.025,-0.34667 -0.0544,-0.39045 -0.27873,-0.41625 -0.24487,-0.0281 -0.25067,-0.018 -0.25067,0.44274 0,0.39258 0.0242,0.46232 0.14419,0.41625 0.0793,-0.0304 0.20472,-0.0553 0.27871,-0.0553 z m 0.67097,-0.36462 c 0,-0.30385 -0.0304,-0.36463 -0.18232,-0.36463 -0.15193,0 -0.18231,0.0608 -0.18231,0.36463 0,0.30385 0.0304,0.36462 0.18231,0.36462 0.15193,0 0.18232,-0.0608 0.18232,-0.36462 z m 4.95566,-1.29898 c -0.0322,-0.81471 -0.063,-1.48737 -0.0687,-1.4948 -0.005,-0.007 -0.19009,0.25057 -0.41003,0.57333 -0.38207,0.56068 -0.39223,0.59246 -0.22789,0.71261 0.13698,0.10012 0.17323,0.24734 0.178,0.7227 0.006,0.60979 0.17774,0.96746 0.46422,0.96746 0.10044,0 0.11221,-0.27052 0.0644,-1.4813 z m 0.46815,-0.23233 c 0,-1.46872 0.0225,-1.74729 0.15727,-1.95295 0.0865,-0.13194 0.25059,-0.2578 0.36464,-0.27969 0.15266,-0.0293 0.12922,-0.0431 -0.089,-0.0522 -0.44717,-0.0187 -0.633,0.22728 -0.70921,0.93893 -0.089,0.83189 0.0359,3.05963 0.17161,3.05928 0.075,-1.9e-4 0.10464,-0.4854 0.10464,-1.71336 z m -0.95714,1.58805 c 0,-0.0189 -0.0616,-0.0856 -0.13674,-0.1479 -0.11198,-0.0929 -0.13673,-0.0867 -0.13673,0.0344 0,0.0813 0.0616,0.1479 0.13673,0.1479 0.0752,0 0.13674,-0.0154 0.13674,-0.0344 z m -2.5296,-0.79072 c 0.39269,-0.0836 0.52415,-0.15109 0.52415,-0.26903 0,-0.26568 0.3322,-0.59792 0.72868,-0.72877 0.49648,-0.16386 1.09178,-0.69744 1.346,-1.20644 0.3547,-0.71023 0.2723,-1.05749 -0.43439,-1.83072 -0.46126,-0.5047 -0.47224,-0.52949 -0.42141,-0.95116 0.20649,-1.71298 0.17104,-2.10779 -0.23567,-2.62483 -0.32852,-0.41763 -0.89243,-0.77072 -1.23092,-0.77072 -0.27733,0 -0.30469,0.0215 -0.24927,0.1961 0.0481,0.1516 0.031,0.18411 -0.0755,0.14324 -0.0758,-0.0291 -0.31637,-0.10377 -0.53467,-0.16602 -0.2183,-0.0622 -0.4898,-0.19592 -0.60334,-0.2971 -0.14211,-0.12665 -0.34006,-0.18573 -0.63523,-0.18961 -0.6539,-0.009 -0.7098,0.1611 -0.70045,2.12659 0.006,1.43479 0.0236,1.59707 0.17694,1.70918 0.14865,0.1087 0.0905,0.12388 -0.47471,0.12388 -0.35427,0 -0.77424,0.026 -0.93327,0.0578 -0.28482,0.0569 -0.28602,0.0594 -0.0798,0.16162 0.15317,0.0759 0.21708,0.19665 0.23804,0.44967 0.0251,0.30408 -0.0188,0.3929 -0.36462,0.73523 -0.21632,0.21415 -0.47533,0.43533 -0.5756,0.49152 -0.18175,0.10183 -0.18171,0.10323 0.01,0.4477 0.29572,0.53231 0.66887,0.68593 1.49442,0.61523 0.73361,-0.0628 1.60188,-0.31402 2.06178,-0.59649 0.33255,-0.20423 0.46392,-0.22533 0.31953,-0.0514 -0.19926,0.24011 -1.34253,0.69088 -2.01608,0.79493 -0.37568,0.058 -0.89869,0.0832 -1.16224,0.0561 -0.26354,-0.0272 -0.47918,-0.0169 -0.47918,0.0228 0,0.0398 0.0825,0.17714 0.1833,0.30529 0.28819,0.36638 0.86583,0.54096 1.67319,0.50568 0.68307,-0.0299 0.89694,0.0311 0.4908,0.14 -0.1128,0.0302 -0.33957,0.0556 -0.50392,0.0562 -0.29175,9e-4 -0.29782,0.01 -0.25717,0.34308 0.0229,0.18801 0.0446,0.35772 0.0481,0.37714 0.0135,0.0729 2.16993,-0.0697 2.67284,-0.17675 z m -2.57516,-3.41364 c 0,-0.0752 0.041,-0.13673 0.0912,-0.13673 0.0502,0 0.0912,0.0616 0.0912,0.13673 0,0.0752 -0.041,0.13673 -0.0912,0.13673 -0.0502,0 -0.0912,-0.0616 -0.0912,-0.13673 z m -0.66602,-0.0127 c -0.0728,-0.0728 0.01,-0.21519 0.12446,-0.21519 0.0471,0 0.0858,0.0616 0.0858,0.13675 0,0.14096 -0.10756,0.18109 -0.21023,0.0785 z m 0.41002,-0.49549 c 0.0179,-0.0539 0.0716,-0.098 0.11926,-0.098 0.0476,0 0.1013,0.0441 0.11926,0.098 0.018,0.054 -0.0356,0.098 -0.11926,0.098 -0.0836,0 -0.13723,-0.0442 -0.11926,-0.098 z m 1.64833,-0.78363 c -0.36456,-0.051 -0.66309,-0.41017 -0.66309,-0.79775 0,-0.43695 0.36163,-1.06128 0.72925,-1.25901 0.63899,-0.34368 1.41365,-0.0218 1.69019,0.70227 0.1831,0.47949 0.12536,0.94721 -0.14747,1.19411 -0.1902,0.17212 -0.96977,0.24984 -1.60888,0.16038 z m 0.0229,-0.39004 c -0.20975,-0.40562 -0.17034,-0.62959 0.17086,-0.97079 0.35005,-0.35004 0.63465,-0.39179 1.08473,-0.1591 0.28371,0.14668 0.2881,0.14605 0.15947,-0.0228 -0.24875,-0.32654 -0.40424,-0.4015 -0.83267,-0.4015 -0.34476,0 -0.48277,0.0505 -0.70476,0.25787 -0.45756,0.42742 -0.50645,1.30161 -0.0823,1.47226 0.32533,0.13092 0.35169,0.10826 0.20472,-0.17594 z m 1.36915,0.0452 c 0.366,-0.36598 0.23655,-0.88906 -0.27267,-1.10183 -0.71375,-0.29822 -1.3541,0.49084 -0.91133,1.12299 0.20872,0.29799 0.87679,0.28606 1.184,-0.0212 z m -0.99274,-0.034 c -0.4642,-0.51294 0.19585,-1.27042 0.74887,-0.85941 0.29238,0.21728 0.35792,0.61247 0.14128,0.85186 -0.20272,0.22401 -0.69051,0.22814 -0.89015,0.007 z m 0.68778,-0.67194 c -0.0851,-0.0851 -0.13454,-0.0842 -0.22258,0.004 -0.0901,0.0901 -0.0856,0.13019 0.022,0.19674 0.1828,0.11298 0.34843,-0.0526 0.20054,-0.20055 z m 1.51518,5.39057 c 0.26892,-0.0805 0.38255,-0.17068 0.42413,-0.33631 0.0312,-0.12443 0.0371,-0.246 0.0129,-0.27014 -0.0908,-0.0908 -1.01266,0.48156 -1.04445,0.64843 -0.0234,0.12282 0.006,0.15767 0.10356,0.12045 0.0751,-0.0288 0.30179,-0.10195 0.50383,-0.16243 z m -5.93923,-1.70921 c -0.0824,-0.091 -0.19424,-0.29312 -0.24864,-0.44917 -0.0666,-0.19103 -0.19092,-0.3158 -0.38054,-0.38191 -0.1549,-0.054 -0.30018,-0.0796 -0.32284,-0.0569 -0.0724,0.0724 0.34537,0.67434 0.59989,0.86432 0.32388,0.24176 0.56409,0.25795 0.35213,0.0238 z m 7.95004,-2.30075 c 0.33478,-1.38874 0.51527,-1.9135 1.00183,-2.91277 0.29714,-0.6103 0.39928,-0.95023 0.47925,-1.59525 0.15421,-1.24384 0.0574,-2.668 -0.24306,-3.57716 -0.13671,-0.41362 -0.2801,-0.75204 -0.31864,-0.75204 -0.0386,0 -0.35358,0.30357 -0.70009,0.67461 -0.74772,0.80066 -1.22493,1.69114 -1.49477,2.78934 -0.10473,0.42616 -0.23756,0.82128 -0.29521,0.87804 -0.0577,0.0567 -0.32948,0.17596 -0.60406,0.26487 -0.43508,0.1409 -0.4772,0.1745 -0.32777,0.26142 1.02483,0.59619 1.33355,1.52242 1.03945,3.11855 l -0.10656,0.57858 0.51798,0.54306 c 0.3163,0.3316 0.5405,0.65567 0.57583,0.83228 0.0809,0.40453 0.15217,0.23925 0.47587,-1.10353 z m -0.3052,-3.10135 c -0.53,-0.48854 -0.73011,-1.06606 -0.65983,-1.90433 0.0694,-0.82807 0.36665,-1.66132 0.85463,-2.39585 0.56702,-0.85351 0.99474,-0.94558 1.27618,-0.27472 0.28385,0.67658 0.11382,3.49161 -0.26459,4.38047 -0.28873,0.67822 -0.62307,0.73211 -1.20639,0.19443 z m 0.93378,-0.0302 c 0.28228,-0.61953 0.48199,-1.92192 0.48383,-3.15522 9e-4,-0.95816 -0.14831,-1.574 -0.39425,-1.62137 -0.362,-0.0697 -1.14845,1.16537 -1.38733,2.17874 -0.29405,1.24751 -0.0906,2.15396 0.58638,2.61226 0.38907,0.26342 0.58661,0.25941 0.71137,-0.0144 z m -9.57836,3.37772 c 0.04,-0.0679 0.16871,-0.17375 0.28582,-0.23527 0.27578,-0.14489 0.20112,-0.21985 -0.10356,-0.10399 -0.23833,0.0906 -0.51574,0.46269 -0.34497,0.46269 0.0494,0 0.12264,-0.0556 0.16273,-0.12343 z m 0.66543,-0.74256 c 0,-0.0752 -0.041,-0.13673 -0.0912,-0.13673 -0.0502,0 -0.0912,0.0616 -0.0912,0.13673 0,0.0752 0.041,0.13674 0.0912,0.13674 0.0502,0 0.0912,-0.0616 0.0912,-0.13674 z m 0.26744,-0.19814 c -0.13385,-0.35204 -0.022,-0.71921 0.30216,-0.99197 0.22691,-0.19093 0.25707,-0.25412 0.15282,-0.32012 -0.19324,-0.1223 -0.23583,-0.10731 -0.44233,0.15517 -0.14095,0.17918 -0.18894,0.37216 -0.18894,0.75965 0,0.50385 0.0417,0.64099 0.19525,0.64099 0.0405,0 0.032,-0.10968 -0.0189,-0.24372 z m 0.31353,-0.0255 c -0.11929,-0.23913 -0.11825,-0.30021 0.01,-0.54693 0.079,-0.15276 0.20409,-0.27774 0.27801,-0.27774 0.0739,0 0.1344,-0.041 0.1344,-0.0912 0,-0.17578 -0.26207,-0.0889 -0.44917,0.14902 -0.20635,0.26233 -0.2418,0.58459 -0.0945,0.85969 0.15389,0.28754 0.26831,0.20042 0.12199,-0.0929 z m 1.52504,0.18596 c 0.0302,-0.005 0.0507,-0.73602 0.0455,-1.62593 -0.007,-1.35961 0.016,-1.67441 0.15012,-1.97101 0.0878,-0.19413 0.15951,-0.3638 0.15951,-0.37706 0,-0.12448 -1.3974,-0.0426 -1.53191,0.0898 -0.0153,0.0151 0.0717,0.13485 0.19346,0.26618 0.12171,0.13134 0.27781,0.43331 0.34689,0.67104 0.13313,0.4582 0.17268,2.22708 0.061,2.72654 -0.0677,0.30238 -0.0477,0.31 0.57539,0.22041 z m -0.65392,-1.29445 c 0.011,-1.51818 -0.23398,-2.2808 -0.75291,-2.34282 -0.16139,-0.0193 -0.31508,0.0465 -0.46955,0.20096 -0.28102,0.28103 -0.2936,0.42521 -0.0346,0.39637 0.31027,-0.0346 0.30967,0.1986 -6.9e-4,0.30683 -0.35226,0.12279 -0.40288,0.29144 -0.32493,1.08245 l 0.0629,0.63918 0.14777,-0.28811 c 0.40681,-0.79308 1.23516,-0.31098 1.23516,0.71885 0,0.29147 0.0267,0.42572 0.0652,0.32803 0.0359,-0.091 0.0681,-0.55975 0.0716,-1.04174 z m -0.26707,0.64845 c 0,-0.0502 -0.041,-0.0912 -0.0912,-0.0912 -0.0502,0 -0.0912,0.041 -0.0912,0.0912 0,0.0502 0.041,0.0911 0.0912,0.0911 0.0502,0 0.0912,-0.041 0.0912,-0.0911 z m -1.2996,-3.04467 c 0.43904,-0.17048 0.88029,-0.34237 0.98056,-0.38198 0.16248,-0.0641 0.15452,-0.0759 -0.0732,-0.10678 -0.56642,-0.077 -1.72057,0.30603 -1.89304,0.62828 -0.13331,0.24909 0.0526,0.22277 0.98567,-0.13954 z m -0.0965,-0.56483 c 0.7454,-0.21669 2.12569,-0.12265 3.44745,0.23488 1.0209,0.27615 2.08696,0.35071 2.59763,0.1817 0.14221,-0.047 0.005,-0.0569 -0.36462,-0.0262 -0.48229,0.04 -0.78987,-0.005 -1.65335,-0.23588 -2.25448,-0.60578 -4.2999,-0.52811 -5.06684,0.19239 -0.37582,0.35307 -0.23033,0.47847 0.15316,0.13202 0.22355,-0.20197 0.5609,-0.38417 0.88657,-0.47886 z m 6.52781,0.063 c 0.18294,-0.18075 -2.38997,-0.56134 -3.6732,-0.54334 l -0.77483,0.0109 0.57494,0.0747 c 0.31621,0.041 0.80845,0.14497 1.09388,0.23091 0.28542,0.0859 0.70353,0.21089 0.92914,0.27764 0.42326,0.12525 1.70761,0.09 1.85007,-0.0507 z m 0.40618,-0.21377 c -0.0568,-0.17107 -1.86004,-0.59987 -3.03969,-0.72283 -1.1279,-0.11758 -2.43125,-0.0223 -3.22744,0.23608 l -0.4102,0.1331 0.50136,-0.0624 c 0.27575,-0.0344 1.19869,-0.0593 2.05101,-0.0555 1.53855,0.006 2.66005,0.14363 3.60068,0.43876 0.53065,0.1665 0.5695,0.16893 0.52428,0.0328 z m 0.1912,-0.95414 c 0.1028,-0.33678 0.1787,-0.61913 0.1687,-0.62746 -0.20267,-0.16875 -1.71613,-1.09139 -2.13505,-1.30156 -0.85763,-0.43032 -1.98319,-0.81703 -2.57186,-0.88363 -0.8551,-0.0968 -1.41427,0.11552 -2.04426,0.776 -0.77466,0.81214 -0.95892,1.42396 -0.65088,2.16121 0.11521,0.27574 0.16862,0.31727 0.34183,0.26577 0.11291,-0.0335 0.595,-0.14515 1.07128,-0.24798 1.35746,-0.29305 3.31953,-0.16279 4.83129,0.32074 0.74519,0.23834 0.77978,0.22213 0.98895,-0.46309 z m -6.13704,-0.33621 c -0.16102,-0.17073 -0.34691,-0.50379 -0.41309,-0.74017 -0.11292,-0.40332 -0.10656,-0.45571 0.10377,-0.85182 0.22745,-0.42844 0.44201,-0.58313 0.95922,-0.69151 0.25339,-0.053 0.33259,-0.0147 0.66827,0.32439 0.32804,0.33133 0.37334,0.42361 0.32699,0.66619 -0.0671,0.35154 -0.47194,1.23018 -0.66501,1.44352 -0.2392,0.26433 -0.64804,0.20151 -0.98012,-0.1506 z m 0.98085,-0.077 c 0.24566,-0.33454 0.52285,-1.03226 0.51728,-1.30202 -0.002,-0.0986 -0.12209,-0.3177 -0.26679,-0.48688 -0.24935,-0.29153 -0.28515,-0.3043 -0.68518,-0.24431 -0.34232,0.0513 -0.45592,0.11807 -0.60108,0.35319 -0.0984,0.15943 -0.20404,0.3859 -0.23463,0.50325 -0.133,0.50996 0.43461,1.47303 0.86817,1.47303 0.10291,0 0.28095,-0.13109 0.40223,-0.29626 z m -0.78484,-0.1572 c -0.12549,-0.14914 -0.2744,-0.41126 -0.33092,-0.58249 -0.0881,-0.26683 -0.0748,-0.36498 0.0927,-0.68645 0.22853,-0.43844 0.21898,-0.43084 0.63966,-0.50975 0.2979,-0.0558 0.3463,-0.0329 0.58219,0.27633 l 0.25725,0.33729 -0.15117,0.47958 c -0.17899,0.56779 -0.46109,0.95663 -0.69402,0.95663 -0.0922,0 -0.27027,-0.12201 -0.39576,-0.27114 z m 0.72438,-0.21321 c 0.0954,-0.18917 0.10474,-0.25073 0.0267,-0.17652 -0.1714,0.16301 -0.54043,0.14057 -0.74952,-0.0455 -0.17687,-0.15748 -0.17725,-0.15578 -0.03,0.1322 0.15303,0.29921 0.40917,0.5022 0.53533,0.42424 0.039,-0.0241 0.13688,-0.17457 0.21746,-0.33434 z m -0.0969,-0.29055 c 0.16926,-0.13084 0.1698,-0.14108 0.0124,-0.23524 -0.0906,-0.0541 -0.20485,-0.20436 -0.25407,-0.33382 -0.0679,-0.17889 -0.11493,-0.20995 -0.19548,-0.12938 -0.0801,0.08 -0.0803,0.13174 -9e-4,0.21112 0.0728,0.0728 0.0771,0.15734 0.0141,0.27536 -0.17421,0.32551 0.0999,0.46255 0.42405,0.21196 z m -0.50673,-0.27339 c 0,-0.0752 -0.0386,-0.13673 -0.0857,-0.13673 -0.11496,0 -0.19728,0.14235 -0.12446,0.21517 0.1027,0.10269 0.21022,0.0625 0.21022,-0.0785 z m 0.90714,-0.27347 c -9e-4,-0.10023 -0.0823,-0.27918 -0.18095,-0.39755 -0.25732,-0.30887 -0.7501,-0.21184 -0.94899,0.18684 -0.17301,0.34682 -0.17335,0.35382 -0.0141,0.2927 0.0703,-0.0269 0.14948,-0.1321 0.17603,-0.23365 0.0409,-0.15663 0.0942,-0.17481 0.35083,-0.11991 0.42482,0.0909 0.53751,0.20606 0.47659,0.4871 -0.0404,0.18657 -0.0303,0.2097 0.0451,0.10356 0.0534,-0.0752 0.0964,-0.21877 0.0955,-0.31905 z m -0.26904,0.0455 c 0,-0.0502 -0.041,-0.0912 -0.0912,-0.0912 -0.0502,0 -0.0912,0.041 -0.0912,0.0912 0,0.0502 0.041,0.0912 0.0912,0.0912 0.0502,0 0.0912,-0.041 0.0912,-0.0912 z"
         id="path4952-7-6"
         sodipodi:nodetypes="ssssssssssssssscsssssssscssssssssssscsssssscssssscssssssssssscssssssscssssscscssssssscsssssssssssssssssscssssssssssssssssssscsssssssssssssssssscccssscsccsssscccsssssscssssssscssscccsscsssssssssscscsscsssssscssccsssssssssssssssscscssssscsssscsssssssssscscsssssscssssssscccsssssssscccssssssssscssssssssssssssscccccssssssssssssssssssssssssssssssssssssssssssssssccsccssssssssssssssssssssssssccsssssssssssssssccsssssssssssscssscsssscsssssssssssssssssssssssssssssssssssssscssssssssssccssssssscssssssssssssssscssssscsssscsscssssssscsssssssssccssssscsssssssscscssssssssssssssssssssssssssssssssssssssssssssssscsssssssssssssscsssssssssssssssssssssssscssssssccssssssssssssssssscssssssssssssssssssssscsssssssssscsssssssssssssssssssssssssssssssssssssssscssscscsssccsssssssssssssssssssscsssssssscsssssssssssssssssssssssscssssssssssscsssssssssscssscsccsssssssssssssssssss" />
      <ellipse
         style="fill:none;stroke:#ff00ff;stroke-width:0.1;stroke-dasharray:none;stroke-opacity:1"
         id="path1138-9-4-0-0-1-2-25-0-9-29"
         cx="-238.41653"
         cy="-57.184158"
         rx="18.492125"
         ry="18.492126" />
      <circle
         style="fill:none;stroke:#0000ff;stroke-width:0.1;stroke-linecap:round;stroke-dasharray:none;stroke-opacity:1;paint-order:markers stroke fill"
         id="path13019-1-33-5-7-7-4"
         cx="-238.41653"
         cy="-72.195114"
         r="2" />
    </g>
  </g>
</svg>
