<?xml version="1.0" encoding="UTF-8" standalone="no"?>
<!-- Created with Inkscape (http://www.inkscape.org/) -->

<svg
   width="41.008999mm"
   height="41.008999mm"
   viewBox="0 0 41.008999 41.008999"
   version="1.1"
   id="svg1"
   inkscape:version="1.4.2 (f4327f4, 2025-05-13)"
   sodipodi:docname="158.svg"
   xmlns:inkscape="http://www.inkscape.org/namespaces/inkscape"
   xmlns:sodipodi="http://sodipodi.sourceforge.net/DTD/sodipodi-0.dtd"
   xmlns="http://www.w3.org/2000/svg"
   xmlns:svg="http://www.w3.org/2000/svg">
  <sodipodi:namedview
     id="namedview1"
     pagecolor="#ffffff"
     bordercolor="#000000"
     borderopacity="0.25"
     inkscape:showpageshadow="2"
     inkscape:pageopacity="0.0"
     inkscape:pagecheckerboard="0"
     inkscape:deskcolor="#d1d1d1"
     inkscape:document-units="mm"
     inkscape:zoom="1.5878906"
     inkscape:cx="108.3198"
     inkscape:cy="200.26568"
     inkscape:window-width="1050"
     inkscape:window-height="1081"
     inkscape:window-x="3737"
     inkscape:window-y="0"
     inkscape:window-maximized="0"
     inkscape:current-layer="layer1" />
  <defs
     id="defs1" />
  <g
     inkscape:label="Layer 1"
     inkscape:groupmode="layer"
     id="layer1"
     transform="translate(-0.7937635,-0.79375582)">
    <g
       id="g11411"
       transform="translate(217.44878,78.482414)">
      <path
         style="fill:#000000;stroke-width:0.1;stroke-dasharray:none"
         d="m -197.73501,-42.16198 c -0.17176,-0.0779 -0.50226,-0.16553 -0.73447,-0.19454 -0.49438,-0.0617 -0.69122,-0.22949 -0.75778,-0.64572 -0.0522,-0.32659 -0.20627,-0.40648 -0.56804,-0.29463 -0.52345,0.16184 -1.1017,0.25252 -1.32517,0.20784 -0.1571,-0.0315 -0.29543,-0.007 -0.4198,0.0747 -0.14677,0.0962 -0.29027,0.1115 -0.68712,0.0734 -1.25468,-0.12033 -1.73519,-0.41855 -1.73428,-1.07638 8.4e-4,-0.79178 0.57738,-4.83421 0.90672,-6.36034 0.13442,-0.62287 0.4358,-1.47788 0.59761,-1.69533 0.037,-0.0497 -0.0636,-0.11142 -0.27386,-0.16765 -0.44141,-0.11805 -0.7237,-0.50635 -0.89408,-1.22981 -0.25944,-1.10174 -0.35516,-1.32967 -0.70193,-1.67154 l -0.33219,-0.32751 h 0.27829 c 0.3406,0 0.29595,-0.1102 -0.11056,-0.27284 -0.33233,-0.13297 -0.3676,-0.21629 -0.12443,-0.29392 0.39841,-0.12718 0.83098,-0.0469 1.43637,0.26677 0.33011,0.171 0.55816,0.2681 0.50678,0.21577 -0.12182,-0.12407 -0.12003,-0.47329 0.003,-0.57535 0.30127,-0.25003 1.03031,-0.21276 1.37115,0.0701 0.0665,0.0551 0.24256,0.10809 0.39134,0.11761 0.14877,0.01 0.39237,0.0722 0.54133,0.13942 0.25108,0.11323 0.28831,0.1131 0.51039,-0.002 0.13176,-0.0682 0.47246,-0.1434 0.75711,-0.16727 0.28466,-0.0239 0.51756,-0.0714 0.51756,-0.10578 0,-0.0982 0.53014,-0.34155 0.85946,-0.39458 0.16442,-0.0265 0.4164,-0.0138 0.55997,0.0284 0.14357,0.0421 0.37433,0.0553 0.51279,0.0294 l 0.25177,-0.0472 -0.0486,-0.38249 c -0.0894,-0.70485 -0.16296,-0.84294 -0.45501,-0.85392 -0.28416,-0.0107 -0.62808,-0.16321 -0.77956,-0.34573 -0.15448,-0.18614 -0.20784,-0.14034 -0.26269,0.22551 -0.10969,0.73141 -0.37409,1.22693 -0.65468,1.22693 -0.22899,0 -0.83028,-0.68305 -1.16114,-1.31901 -0.56571,-1.08736 -1.06854,-3.11239 -0.96338,-3.87969 0.0563,-0.41066 0.28452,-0.77681 0.8867,-1.4225 0.76983,-0.82545 1.68595,-1.58429 2.21737,-1.83666 0.27184,-0.12911 0.65281,-0.37653 0.84661,-0.54983 0.52741,-0.47165 1.92412,-0.93228 2.82677,-0.93228 0.19737,0 0.42568,-0.0826 0.7221,-0.26139 0.39387,-0.23749 0.48525,-0.26139 1.00002,-0.26157 0.75993,-2.2e-4 2.10274,0.24685 2.36808,0.43578 0.5782,0.41171 1.16665,1.25931 1.33218,1.91881 0.0304,0.12098 0.14911,0.36802 0.26386,0.54898 0.39096,0.61647 0.47163,1.5057 0.13659,1.5057 -0.192,0 -0.19946,0.0294 -0.25081,0.99025 l -0.0429,0.80342 h 0.2269 c 0.2646,0 0.56299,0.26229 0.63788,0.56073 0.0909,0.36224 -0.0954,1.59464 -0.30628,2.02561 -0.25031,0.51162 -0.68113,0.85829 -1.12941,0.90881 -0.23777,0.0268 -0.3134,0.0613 -0.2573,0.1174 0.0437,0.0437 0.0794,0.15845 0.0794,0.25503 0,0.6107 -1.09311,1.45213 -2.02316,1.55735 -0.42448,0.048 -0.62571,0.18031 -0.27429,0.18031 0.24742,0 0.37499,0.26409 0.43321,0.89683 0.0284,0.30829 0.14479,0.81276 0.25871,1.12104 0.17512,0.47396 0.20713,0.67596 0.20718,1.30789 7e-5,0.86738 -0.11648,1.27505 -0.54491,1.90593 l -0.28162,0.41471 0.10331,1.14171 c 0.0568,0.62793 0.1538,1.38379 0.21553,1.67966 0.0617,0.29587 0.11226,0.56254 0.1123,0.59259 3e-5,0.03 0.14968,0.0341 0.33256,0.009 0.26145,-0.0359 0.3901,-0.0115 0.60216,0.11353 0.14832,0.0875 0.32915,0.15911 0.40183,0.15911 0.3982,0 0.68139,0.73693 0.68139,1.7731 0,0.77616 -0.0706,0.99214 -0.32399,0.99214 -0.0931,0 -0.20798,0.0387 -0.2553,0.0861 -0.35559,0.35559 -3.36666,0.35021 -4.17523,-0.007 l -0.34561,-0.15287 0.0542,-1.01222 c 0.0298,-0.55673 0.03,-1.55933 5.6e-4,-2.228 l -0.0537,-1.21577 -0.50409,0.10823 -0.50408,0.10823 -0.19217,0.68021 -0.19218,0.6802 0.40411,0.36018 c 0.55593,0.49548 0.61001,0.70176 0.49021,1.86968 -0.15218,1.48332 -0.23883,1.6204 -1.02425,1.6204 -0.25287,0 -0.60275,0.0505 -0.7775,0.11211 -0.43213,0.15245 -1.01805,0.13862 -1.39598,-0.033 z m 1.14112,-0.0886 c 0.18397,-0.0463 0.36298,-0.13881 0.39779,-0.20552 0.0348,-0.0667 0.12239,-0.45264 0.1946,-0.85761 0.12539,-0.70326 0.12231,-1.44294 -0.008,-1.89815 -0.0817,-0.28529 0.10067,-0.18795 0.1975,0.10546 0.0957,0.28983 0.0636,2.33321 -0.0406,2.58506 -0.12689,0.30679 0.76266,0.0763 0.93286,-0.24176 0.0432,-0.0808 0.11728,-0.57644 0.16461,-1.10159 0.10518,-1.16673 0.038,-1.37818 -0.55299,-1.74185 -0.36167,-0.22255 -0.37192,-0.23838 -0.32299,-0.49917 0.0539,-0.28735 0.51027,-1.79022 0.64771,-2.13298 0.0454,-0.11303 0.11555,-0.20552 0.15607,-0.20552 0.0406,0 0.0537,0.0522 0.0291,0.11598 -0.0245,0.0637 -0.0144,0.0974 0.0224,0.0747 0.10605,-0.0655 0.30508,-0.71534 0.30508,-0.99607 0,-0.78803 -1.06729,-1.80751 -1.89448,-1.80961 -0.54942,-0.002 -0.98268,0.34324 -1.12655,0.89611 -0.043,0.1652 -0.0339,0.16087 0.0786,-0.0374 0.0699,-0.12332 0.1408,-0.18348 0.15747,-0.13369 0.0166,0.0497 -0.17207,0.9074 -0.41942,1.90578 -0.24736,0.99839 -0.4862,2.00223 -0.53077,2.23075 -0.0614,0.31472 -0.14199,0.473 -0.33235,0.65255 -0.20374,0.19219 -0.26696,0.32688 -0.33397,0.71166 -0.11534,0.66231 -0.10756,1.93186 0.0128,2.09651 0.0975,0.1333 0.71007,0.31311 0.791,0.23217 0.0246,-0.0245 0.0667,-0.5771 0.0938,-1.22785 0.0479,-1.15385 0.14824,-1.72213 0.30397,-1.72213 0.0441,0 0.0538,0.056 0.0229,0.13079 -0.0635,0.15393 -0.17459,1.61668 -0.18144,2.3893 l -0.004,0.53959 0.355,0.10916 c 0.4446,0.13671 0.47716,0.138 0.88487,0.0353 z m 6.29259,-1.67208 c 0.0227,-0.95159 -0.0558,-1.31816 -0.36773,-1.71462 -0.1387,-0.17633 -0.19631,-0.19116 -0.74283,-0.19116 -0.32586,0 -0.59246,-0.03 -0.59246,-0.0667 0,-0.10089 0.20049,-0.15748 0.55788,-0.15748 h 0.32147 l -0.10297,-0.29885 c -0.13737,-0.39873 -0.3025,-1.38116 -0.36764,-2.1874 l -0.0529,-0.65522 -0.30869,0.28411 c -0.40862,0.37609 -0.87612,0.6919 -1.45812,0.98499 l -0.4768,0.24012 0.0464,0.38639 c 0.0255,0.21252 0.0467,1.20066 0.0471,2.19587 l 5.7e-4,1.80948 0.31764,0.0861 c 0.61773,0.16729 1.002,0.2029 2.07393,0.19217 l 1.08367,-0.0109 0.0214,-0.89683 z m -11.29008,0.65976 c 0.325,-0.15423 0.43538,-0.40614 0.50252,-1.14687 0.0552,-0.60978 -0.0112,-0.89358 -0.27525,-1.17548 -0.22476,-0.23995 -0.11763,-0.28455 0.14755,-0.0614 0.13518,0.11375 0.26074,0.32157 0.31814,0.52656 0.12416,0.4435 0.0657,1.38569 -0.10185,1.64142 l -0.12534,0.19129 h 0.26329 c 0.48962,0 0.72466,-0.40079 0.72691,-1.23948 0.002,-0.59511 -0.11751,-0.90136 -0.44269,-1.13824 -0.11411,-0.0831 -0.18337,-0.17525 -0.1539,-0.20472 0.0939,-0.0939 0.41849,0.17869 0.61792,0.51898 0.2693,0.45954 0.30965,0.94349 0.12684,1.52162 -0.11476,0.36299 -0.12563,0.4671 -0.0488,0.4671 0.28332,0 0.4413,-0.50003 0.4368,-1.38262 -0.005,-0.97129 -0.44387,-1.33964 -1.57942,-1.32543 -0.33933,0.004 -0.68804,0.0303 -0.77489,0.0579 -0.11286,0.0359 -0.14849,0.0219 -0.12485,-0.0491 0.0394,-0.11811 0.29421,-0.19773 0.66577,-0.20797 0.31295,-0.009 0.29194,0.0679 0.44597,-1.6231 l 0.0893,-0.98039 -0.19526,-0.40224 c -0.50105,-1.03222 -0.45937,-2.13607 0.13284,-3.51746 0.0495,-0.11553 0.0165,-0.11447 -0.40494,0.0131 -0.25237,0.0764 -0.504,0.1764 -0.55916,0.22219 -0.17772,0.14748 -0.62479,1.14174 -0.82357,1.83155 -0.25059,0.86957 -0.50372,2.36187 -0.74831,4.41148 -0.27146,2.27481 -0.27429,2.52559 -0.0313,2.76861 0.36397,0.36398 1.41688,0.51936 1.9156,0.28271 z m 12.05336,-0.31803 c 0,-1.20326 -0.28233,-2.13498 -0.69044,-2.27851 -0.28945,-0.1018 -0.30845,-0.0367 -0.0988,0.33846 0.23008,0.41165 0.37323,1.29639 0.30985,1.91499 l -0.0479,0.46806 h 0.26366 0.26365 z m 0.33631,-0.53537 c 0,-0.5706 -0.036,-0.87097 -0.13473,-1.12704 -0.19656,-0.50939 -0.36284,-0.61092 -0.19236,-0.11747 0.0988,0.28608 0.13604,0.62046 0.13781,1.23886 0.002,0.64387 0.0249,0.8394 0.0959,0.81529 0.0667,-0.0226 0.0934,-0.25404 0.0934,-0.80964 z m -9.97689,0.0629 c 5.6e-4,-0.6829 0.094,-1.11315 0.30727,-1.41321 0.16125,-0.22689 0.12804,-0.38599 -0.10198,-0.48863 -0.10804,-0.0481 -0.13088,-0.0886 -0.071,-0.1256 0.0506,-0.0313 0.16815,0.0254 0.27518,0.13239 0.18608,0.18608 0.18733,0.18623 0.26992,0.0319 0.0638,-0.11934 0.0597,-0.17083 -0.0181,-0.22359 -0.10475,-0.071 -0.72196,-0.0391 -1.01666,0.0526 -0.10006,0.0311 -0.16815,0.0209 -0.16815,-0.0254 0,-0.0427 0.11771,-0.1165 0.26157,-0.16398 0.25045,-0.0827 0.26157,-0.10153 0.26157,-0.44379 0,-0.19659 -0.0209,-0.50956 -0.0463,-0.69547 -0.0411,-0.30017 -0.0808,-0.35698 -0.35499,-0.50738 -0.16978,-0.0931 -0.47172,-0.28436 -0.671,-0.42491 -0.19927,-0.14055 -0.37172,-0.24483 -0.38322,-0.23174 -0.0187,0.0214 -0.26352,2.10973 -0.26344,2.24723 3e-5,0.0309 0.0781,0.056 0.17357,0.056 0.3681,0 0.87548,0.23773 1.08041,0.50621 0.19033,0.24938 0.20342,0.31504 0.20342,1.01989 0,0.41435 -0.0239,0.86044 -0.0532,0.99132 -0.0523,0.23405 -0.0224,0.27042 0.25872,0.31389 0.0308,0.004 0.0563,-0.26879 0.0565,-0.6079 z m 0.82153,-2.72788 c 0.0469,-0.23636 0.10148,-0.48713 0.1214,-0.55728 0.0286,-0.10065 -0.0524,-0.15331 -0.38437,-0.2498 -0.23133,-0.0673 -0.4323,-0.11057 -0.4466,-0.0963 -0.0143,0.0143 -0.007,0.30174 0.0159,0.63871 0.044,0.64175 0.0591,0.66513 0.44554,0.6857 0.14038,0.008 0.17462,-0.0507 0.24804,-0.42106 z m 0.24248,-0.93255 c 0.0169,-0.0505 -0.11514,-0.2707 -0.29328,-0.48939 -0.60881,-0.74746 -0.87201,-1.4638 -0.95073,-2.58754 -0.0793,-1.13099 0.31929,-2.29576 0.92953,-2.7168 0.23882,-0.16477 0.23994,-0.16817 0.0559,-0.16817 -0.1033,0 -0.27736,0.0705 -0.38682,0.15655 -0.23283,0.18315 -0.48917,0.65723 -0.4363,0.8069 0.0289,0.0821 -0.009,0.0905 -0.17852,0.0401 -0.11839,-0.035 -0.3582,-0.0582 -0.53291,-0.0514 -0.17468,0.007 -0.31762,-0.002 -0.31762,-0.0215 0,-0.0187 0.0673,-0.10115 0.14947,-0.18336 0.17766,-0.17766 0.19605,-0.31213 0.0342,-0.25001 -0.24705,0.0948 -0.58161,1.02301 -0.66927,1.85684 -0.0463,0.44063 0.0431,1.23847 0.1972,1.75889 0.0895,0.30227 0.34401,0.42753 1.03576,0.50979 0.27345,0.0325 0.40461,0.0806 0.39177,0.14373 -0.0289,0.14252 0.23317,0.61161 0.54174,0.96941 0.28563,0.3312 0.37851,0.38 0.42988,0.22588 z m -2.17958,-2.09538 c -0.19894,-0.10151 -0.31401,-0.30666 -0.13303,-0.23722 0.0925,0.0355 0.0989,-0.0141 0.0413,-0.31757 -0.0375,-0.1978 -0.0588,-0.65387 -0.0473,-1.01351 0.0223,-0.69524 0.0157,-0.68509 0.43203,-0.65872 0.24684,0.0156 0.5979,0.15536 0.5979,0.23799 0,0.0361 -0.0307,0.0657 -0.0683,0.0657 -0.0951,0 -0.18302,1.03793 -0.11965,1.41305 0.0287,0.16987 0.098,0.35463 0.1539,0.41057 0.0559,0.0559 0.0809,0.12255 0.0555,0.148 -0.0813,0.0814 -0.72491,0.0474 -0.9123,-0.0483 z m 0.6153,-1.0078 -0.0141,-1.02767 -0.25609,-0.0226 c -0.23453,-0.0207 -0.26006,-0.002 -0.30355,0.21488 -0.0593,0.29626 -0.0525,0.97218 0.0141,1.41127 0.0494,0.32562 0.14257,0.4086 0.49893,0.44429 0.0472,0.004 0.0696,-0.37152 0.0607,-1.02018 z m 4.97458,3.013 c 0.26095,-0.13495 0.5695,-0.59585 0.6845,-1.02249 0.37109,-1.37667 -0.91369,-2.94872 -2.39398,-2.92923 -0.79716,0.0105 -1.39297,0.3478 -1.57188,0.88993 -0.1391,0.42146 0.0415,1.749 0.23794,1.749 0.0344,0 0.0582,-0.30043 0.0531,-0.66763 -0.007,-0.53665 0.0191,-0.71622 0.13535,-0.91527 0.32208,-0.55146 1.02684,-0.76947 1.77984,-0.55057 0.72616,0.21111 1.30153,0.87812 1.46664,1.70028 0.11012,0.54834 -0.0535,1.13935 -0.43111,1.55733 -0.28885,0.31972 -0.2815,0.35469 0.0396,0.18865 z m -4.07622,-0.21072 c -0.11782,-0.13175 -0.30075,-0.41284 -0.5049,-0.77589 -0.003,-0.005 -0.15034,-0.034 -0.32709,-0.0632 l -0.32136,-0.0531 0.22953,0.37304 c 0.27482,0.44666 0.36338,0.52575 0.73013,0.65216 0.34316,0.1183 0.38978,0.0863 0.19369,-0.13295 z m 0.8274,-0.37825 c 0.10992,-0.3781 0.10773,-0.4168 -0.0455,-0.80341 -0.23984,-0.60495 -0.23818,-1.64406 0.003,-2.03237 0.21101,-0.33939 0.66444,-0.61843 1.187,-0.7305 0.72985,-0.15653 1.80597,0.27145 2.41674,0.96116 0.62258,0.70305 0.78526,2.00115 0.3382,2.69877 l -0.21254,0.33167 0.29007,-0.23204 c 0.80916,-0.64731 1.34026,-1.33122 1.67585,-2.15807 l 0.17403,-0.42876 -0.18202,-0.11414 c -0.10011,-0.0628 -0.34031,-0.27402 -0.53377,-0.46941 -0.28138,-0.28417 -0.38462,-0.4635 -0.51608,-0.89629 l -0.16434,-0.54104 0.16109,-0.10695 c 0.31938,-0.21207 0.18817,-0.28257 -0.69772,-0.37492 -0.95332,-0.0994 -1.82844,-0.34832 -2.3864,-0.67888 l -0.36786,-0.21794 -0.33893,0.2588 c -0.18641,0.14233 -0.53742,0.31603 -0.78001,0.38598 -0.36693,0.10579 -0.47658,0.17848 -0.65216,0.43232 -0.68336,0.98796 -0.72641,2.83593 -0.0955,4.09897 0.17396,0.34825 0.56627,1.01383 0.59777,1.01415 0.007,7e-5 0.0653,-0.17863 0.12885,-0.3971 z m 4.93984,-0.11722 c 1.07701,-0.70308 1.91429,-1.76047 2.13091,-2.6911 0.11264,-0.48391 0.0637,-1.30004 -0.1164,-1.94201 -0.12842,-0.45765 -0.19731,-0.52179 -0.40767,-0.37961 -0.0938,0.0634 -0.0713,0.1108 0.13825,0.29079 0.23164,0.19896 0.25037,0.24816 0.25037,0.65791 0,0.55822 -0.23435,1.12569 -0.60309,1.46029 -0.15871,0.14404 -0.3467,0.43121 -0.45293,0.69195 -0.31768,0.7797 -0.76805,1.4521 -1.31312,1.96047 -0.55335,0.51612 -0.47608,0.50605 0.37368,-0.0487 z m -6.88629,-0.10892 c -0.10768,-0.21952 -0.25986,-0.43916 -0.33821,-0.4881 -0.13341,-0.0833 -0.13226,-0.0686 0.0181,0.231 0.14,0.2789 0.42306,0.65627 0.49227,0.65627 0.0129,0 -0.0646,-0.17963 -0.17223,-0.39917 z m -0.66786,-0.55373 c -0.47069,-1.14969 -0.4425,-2.5037 0.0771,-3.69945 0.04,-0.092 0.0233,-0.13079 -0.0562,-0.13079 -0.0737,0 -0.19749,0.22725 -0.35609,0.65394 -0.21429,0.5765 -0.24388,0.74689 -0.24997,1.43868 -0.005,0.6036 0.026,0.87099 0.13544,1.15841 0.12485,0.32777 0.53012,1.00894 0.60029,1.00894 0.014,0 -0.0537,-0.19338 -0.1505,-0.42973 z m 9.09222,-2.26916 c 0.20456,-0.28728 0.37039,-0.83324 0.3586,-1.18059 -0.007,-0.20912 -0.0229,-0.17415 -0.0717,0.15831 -0.0744,0.50797 -0.26972,0.91328 -0.58359,1.21145 -0.19439,0.18468 -0.25598,0.20616 -0.40124,0.13999 -0.231,-0.10525 -0.65331,-0.4656 -0.65331,-0.55745 0,-0.0407 0.14057,0.0464 0.31239,0.19348 0.17183,0.14707 0.36731,0.2674 0.43444,0.2674 0.0671,0 0.22082,-0.1093 0.34155,-0.24289 l 0.2195,-0.24289 -0.2283,0.20552 c -0.29551,0.26603 -0.39207,0.25921 -0.75735,-0.0535 -0.1664,-0.14243 -0.32131,-0.2402 -0.34424,-0.21725 -0.0568,0.0567 -0.28764,-0.4005 -0.35711,-0.70729 -0.0396,-0.175 -0.0249,-0.2864 0.0492,-0.37369 0.3487,-0.41036 0.40482,-0.44668 0.76716,-0.49651 0.39275,-0.054 0.83324,0.002 0.83324,0.10791 0,0.0331 0.0925,0.11899 0.20552,0.19083 0.1915,0.12171 0.1891,0.11419 -0.0353,-0.11034 -0.16186,-0.16195 -0.33743,-0.25393 -0.53547,-0.28049 -0.38551,-0.0517 -1.05357,0.10945 -1.109,0.26754 -0.0235,0.0671 -0.10974,0.19641 -0.19159,0.28739 -0.13596,0.15116 -0.14058,0.19482 -0.0536,0.5057 0.14225,0.50807 0.47879,0.98533 0.86955,1.23314 l 0.348,0.2207 0.21056,-0.14994 c 0.11581,-0.0824 0.28318,-0.25193 0.37195,-0.37658 z m -0.37495,-0.1224 c 0.26253,-0.29625 0.37297,-0.51922 0.32241,-0.65099 -0.0727,-0.18938 -0.17764,-0.1303 -0.17764,0.1 0,0.21594 -0.17649,0.44576 -0.25044,0.32611 -0.0218,-0.0352 -0.0627,-0.23811 -0.0909,-0.45095 -0.0478,-0.36031 -0.0391,-0.39187 0.1263,-0.45807 0.17514,-0.0701 0.17464,-0.0712 -0.0359,-0.0758 -0.16304,-0.003 -0.20279,-0.0327 -0.16816,-0.12295 0.025,-0.065 0.0454,-0.15109 0.0454,-0.19125 0,-0.0401 0.0342,-0.0519 0.0759,-0.026 0.0417,0.0258 0.0566,0.0782 0.0329,0.11652 -0.0236,0.0382 0.0226,0.0696 0.10289,0.0696 0.0803,0 0.16367,0.0463 0.18541,0.10299 0.0429,0.1119 -0.0794,0.27069 -0.20861,0.27069 -0.0488,0 -0.0693,0.11767 -0.052,0.29895 0.0325,0.34049 0.12138,0.39922 0.14642,0.0967 0.0265,-0.32005 0.15103,-0.38737 0.31718,-0.17145 l 0.14378,0.18684 0.002,-0.3516 c 0.003,-0.50175 -0.24224,-0.74066 -0.73094,-0.71393 -0.33276,0.0183 -0.35123,0.0305 -0.354,0.23692 -0.002,0.14663 -0.0507,0.23508 -0.14947,0.27095 -0.13224,0.0481 -0.12831,0.056 0.0402,0.0812 0.17165,0.0257 0.18868,0.0636 0.20948,0.46528 0.025,0.48346 -0.0861,0.5502 -0.27406,0.16449 -0.0786,-0.16131 -0.11713,-0.18574 -0.16817,-0.10659 -0.0472,0.0733 0.029,0.19378 0.26576,0.42034 0.18258,0.17469 0.36128,0.31764 0.39708,0.31764 0.0359,0 0.14707,-0.0925 0.24724,-0.20553 z m -0.49728,-1.39204 c -0.0633,-0.165 0.0209,-0.24924 0.13509,-0.13509 0.0674,0.0674 0.0677,0.1092 8.3e-4,0.17568 -0.0665,0.0665 -0.0989,0.0568 -0.13628,-0.0406 z m -0.0793,0.75686 c -0.033,-0.20277 -0.0846,-0.27814 -0.20247,-0.29503 -0.20197,-0.029 -0.25222,-0.26701 -0.0719,-0.34066 0.0749,-0.0306 0.14375,-0.12797 0.1528,-0.21628 0.0254,-0.24736 -0.24156,-0.1378 -0.42605,0.17488 -0.13458,0.2281 -0.14287,0.29788 -0.068,0.57118 0.0799,0.2913 0.0903,0.30052 0.16208,0.1432 0.10538,-0.23094 0.24675,-0.21069 0.36305,0.0521 0.12305,0.278 0.14633,0.25501 0.0905,-0.0893 z m -9.74323,-0.31606 0.17398,-0.18519 -0.32911,-0.29205 c -0.30819,-0.2735 -0.3291,-0.3164 -0.3291,-0.67518 0,-0.2913 -0.0297,-0.39255 -0.12405,-0.42249 -0.33349,-0.10585 -0.40058,-0.54214 -0.14657,-0.95317 l 0.15034,-0.24324 -0.31955,-0.20216 c -0.38591,-0.24414 -0.89074,-0.42977 -1.15772,-0.42569 l -0.19613,0.003 0.1912,0.104 c 0.10516,0.0572 0.23055,0.19037 0.27865,0.29595 0.0821,0.18008 0.0751,0.19197 -0.11243,0.19197 h -0.1999 l 0.25089,0.25886 c 0.20865,0.21526 0.28647,0.39914 0.4622,1.09211 0.23421,0.92357 0.41923,1.28511 0.76577,1.49643 0.3072,0.18732 0.43298,0.17887 0.64153,-0.0431 z m 2.94478,-0.63691 c 0.1088,-0.16442 0.18476,-0.29896 0.16879,-0.29896 -0.14447,0 -0.68785,0.25306 -0.76339,0.35551 -0.0826,0.11211 -0.0733,0.13707 0.0668,0.17888 0.28781,0.0859 0.32651,0.0686 0.52771,-0.23543 z m -2.69905,-0.0876 c -0.15357,-0.23206 -0.20642,-0.40407 -0.20658,-0.67241 -1.5e-4,-0.1983 -0.0133,-0.36066 -0.0294,-0.36079 -0.0995,-8.3e-4 -0.22805,0.30452 -0.23007,0.54653 -0.003,0.35543 0.093,0.5401 0.3545,0.682 0.31604,0.17151 0.33375,0.14049 0.11151,-0.19533 z m 0.30443,-0.0335 c -0.16386,-0.21483 -0.21271,-0.37042 -0.23724,-0.75552 -0.0342,-0.53733 -0.15881,-0.50575 -0.16074,0.0407 -8.4e-4,0.34751 0.0791,0.55249 0.32015,0.81718 0.24572,0.26978 0.30361,0.19361 0.0779,-0.10239 z m 1.25299,-0.0406 0.82061,-0.23646 -0.26074,-0.26802 c -0.31272,-0.32144 -0.43399,-0.76281 -0.33304,-1.21208 0.0381,-0.16984 0.0598,-0.31738 0.0481,-0.32787 -0.0117,-0.0105 -0.37442,0.15371 -0.80601,0.36486 l -0.78474,0.38392 -0.0234,0.36873 c -0.0129,0.20281 -0.004,0.44404 0.0187,0.53608 0.0396,0.15748 0.38737,0.62728 0.46445,0.62728 0.0194,0 0.4047,-0.1064 0.85604,-0.23644 z m 7.65256,-0.20261 c 0.25458,-0.0541 0.30433,-0.21115 0.22808,-0.71966 l -0.047,-0.31322 -0.98739,-0.0458 c -1.01159,-0.047 -1.82669,-0.20807 -2.57554,-0.50921 -0.39241,-0.15779 -0.47447,-0.2443 -0.29894,-0.31513 0.0539,-0.0218 0.0588,-0.0401 0.0116,-0.0436 -0.24606,-0.0177 -0.54052,0.71047 -0.39628,0.98 0.0771,0.14403 0.87896,0.57374 1.36452,0.73123 0.75646,0.24536 2.10254,0.36266 2.70096,0.23538 z m 0.69708,-0.37863 c 0.0426,-0.4456 -0.0487,-0.75177 -0.22402,-0.75177 -0.13422,0 -0.14906,0.0319 -0.10872,0.23355 0.0257,0.12845 0.0466,0.36634 0.0466,0.52863 0,0.24065 0.0241,0.29052 0.1308,0.2703 0.088,-0.0166 0.13879,-0.10859 0.15523,-0.28071 z m 0.49302,0.20878 c 0.4487,-0.20443 0.39456,-1.33424 -0.0639,-1.33424 -0.14216,0 -0.14228,0.002 -0.005,0.10299 0.13197,0.0965 0.12538,0.10639 -0.1046,0.15689 -0.2052,0.0451 -0.23837,0.0803 -0.20231,0.21465 0.0237,0.0884 0.0436,0.33729 0.0441,0.5531 8.3e-4,0.41494 0.0317,0.44328 0.33165,0.30661 z m -7.33716,-0.0781 c 0.62529,-0.18733 0.9131,-0.7547 0.67928,-1.33906 -0.23599,-0.58983 -0.93335,-0.80474 -1.44018,-0.44385 -0.54008,0.38457 -0.51419,1.29254 0.0488,1.71248 0.24388,0.18192 0.31616,0.18906 0.7121,0.0705 z m 1.35239,-0.22294 c 0.12966,-0.0894 0.24655,-0.17031 0.25973,-0.17968 0.0132,-0.009 -0.0433,-0.24728 -0.12561,-0.52868 -0.0823,-0.28139 -0.18685,-0.65456 -0.23239,-0.82926 -0.0718,-0.27566 -0.10955,-0.31749 -0.28544,-0.3166 -0.11146,5.6e-4 -0.27178,0.0195 -0.3563,0.0423 -0.14517,0.0391 -0.14038,0.0553 0.0865,0.29593 0.3837,0.40682 0.42535,1.06695 0.0939,1.48829 l -0.14973,0.19035 h 0.23678 c 0.13023,0 0.34287,-0.0732 0.47252,-0.16264 z m -4.68457,-0.58295 c 0.22381,-0.20454 0.53961,-0.41165 0.70179,-0.46024 0.23651,-0.0709 0.29487,-0.12373 0.29487,-0.26708 0,-0.53363 -0.51415,-0.91249 -1.04454,-0.76966 -0.30654,0.0825 -0.46088,0.31863 -0.30814,0.47136 0.13344,0.13345 0.096,0.27839 -0.14205,0.54948 -0.2474,0.28177 -0.28669,0.55068 -0.10677,0.73061 0.0646,0.0646 0.13555,0.11744 0.15768,0.11744 0.0221,0 0.22335,-0.16736 0.44716,-0.37191 z m 5.1819,-0.0789 c 0,-0.51263 0.15182,-0.84632 0.43922,-0.96537 0.18024,-0.0747 0.23341,-0.14285 0.23341,-0.29935 0,-0.11148 -0.0175,-0.22021 -0.039,-0.24163 -0.064,-0.064 -1.09055,0.19459 -1.09398,0.2756 -0.007,0.17404 0.35308,1.60676 0.40424,1.60679 0.0308,2e-5 0.056,-0.16919 0.056,-0.37604 z m 5.15106,-0.2609 c 0.0415,-0.0416 0.0572,-0.14578 0.0348,-0.23156 -0.0372,-0.14209 -0.11184,-0.15998 -0.83834,-0.20085 -1.3625,-0.0766 -2.44849,-0.48173 -3.21297,-1.19853 -0.35048,-0.32862 -0.40376,-0.35777 -0.36267,-0.19837 0.0265,0.10276 0.0487,0.46159 0.0492,0.7974 l 8.3e-4,0.61057 0.35501,0.11754 c 0.93366,0.30913 1.67826,0.41469 2.79931,0.39686 0.61635,-0.01 1.13225,-0.0507 1.17465,-0.0931 z m -8.71973,-0.49902 c 0.11304,-0.041 0.20552,-0.10557 0.20552,-0.14367 0,-0.0867 -0.32841,-0.21505 -0.55037,-0.21505 -0.14737,0 -0.16332,0.0313 -0.13589,0.26622 0.0247,0.21091 0.0565,0.25591 0.15315,0.21657 0.0671,-0.0273 0.21456,-0.0832 0.32759,-0.12407 z m 9.85978,-0.28211 c 0.77415,-0.22717 1.50652,-1.03169 1.27322,-1.39863 -0.0698,-0.10991 -0.46436,-0.18894 -0.46436,-0.093 0,0.0384 0.0673,0.0697 0.14946,0.0697 0.40007,0 -0.0193,0.41975 -0.48994,0.49032 -1.2736,0.19099 -2.66863,-0.48257 -3.21604,-1.55283 -0.21895,-0.42804 -0.23376,-0.65643 -0.0426,-0.65643 0.0758,0 0.52137,0.24108 0.99026,0.53573 1.29803,0.81568 2.20452,1.05033 2.87041,0.74302 0.36573,-0.16881 0.58964,-0.40395 0.74993,-0.78757 0.11519,-0.2757 0.11438,-0.29555 -0.0152,-0.36575 -0.2551,-0.13829 -0.69196,-0.66658 -0.81273,-0.98281 -0.0661,-0.17306 -0.10924,-0.4293 -0.0959,-0.56942 0.0202,-0.21169 0.0647,-0.26783 0.26357,-0.33211 0.39252,-0.12687 0.3847,-0.20682 -0.0151,-0.15415 -0.77663,0.10233 -1.15454,0.23415 -2.31683,0.80814 -1.47343,0.72763 -1.83623,0.8765 -2.33479,0.95805 -0.40642,0.0665 -1.25139,-0.027 -1.40635,-0.15564 -0.10729,-0.0891 -0.18185,-0.0148 -0.18497,0.18418 -0.002,0.0856 -0.0657,0.33932 -0.14329,0.56374 -0.1298,0.37599 -0.13167,0.42587 -0.0239,0.63525 0.20326,0.39479 1.14807,1.27473 1.6296,1.51769 0.48615,0.2453 1.29651,0.51135 1.87771,0.61648 0.43213,0.0782 1.37425,0.0385 1.75762,-0.074 z m -2.70376,0.0441 c 0,-0.0159 -0.17657,-0.0861 -0.39237,-0.156 -0.85558,-0.27744 -1.75988,-0.9871 -2.18736,-1.71653 -0.17169,-0.29296 -0.21827,-0.32853 -0.34287,-0.26185 -0.13852,0.0742 -0.13563,0.0896 0.0732,0.39319 0.27971,0.40655 0.78366,0.86972 1.23242,1.13272 0.5518,0.32337 1.61696,0.7242 1.61696,0.60847 z m -3.84893,-0.58745 c 0.12957,-0.0282 0.12278,-0.04 -0.0509,-0.0886 -0.21499,-0.0602 -1.03279,0.13723 -1.03279,0.24938 0,0.0538 0.30402,0.009 1.08368,-0.16077 z m 6.71957,-0.59825 c -0.12946,-0.22865 -0.36836,-0.42976 -0.51079,-0.43002 -0.0853,-1.6e-4 -0.35692,-0.10092 -0.60354,-0.22393 -0.43825,-0.21856 -0.87393,-0.28386 -1.06891,-0.16018 -0.20749,0.13161 0.76861,0.69914 1.42538,0.82877 0.50604,0.0999 0.81928,0.0938 0.75786,-0.0146 z m 0.63528,-0.0287 c 0.0881,-0.0758 -0.26881,-0.32626 -0.46489,-0.32626 -0.21248,0 -0.21775,0.007 -0.10053,0.13669 0.068,0.0752 0.12369,0.17669 0.12369,0.22562 0,0.0787 0.3407,0.0509 0.44173,-0.036 z m -8.4055,-0.40595 c 0.1284,-0.35925 0.1508,-0.69915 0.19424,-2.94713 0.0409,-2.11586 0.0709,-2.60894 0.17938,-2.94685 0.23274,-0.72496 0.47089,-1.18342 0.80133,-1.5426 0.28424,-0.30895 0.30113,-0.34521 0.13728,-0.29471 -0.36225,0.11164 -0.7365,0.3365 -1.28087,0.76959 -0.67009,0.53312 -1.70796,1.63076 -1.97854,2.09246 -0.18302,0.31228 -0.19521,0.38417 -0.15378,0.90643 0.0681,0.85792 0.54053,2.55346 0.92622,3.32375 0.20607,0.41157 0.8248,1.11022 0.94842,1.07095 0.0446,-0.0142 0.1465,-0.20853 0.22632,-0.43189 z m 9.87993,-0.48368 c 0.26282,-0.20046 0.58913,-0.81106 0.66619,-1.24654 l 0.0491,-0.2778 -0.27463,0.259 c -0.15105,0.14245 -0.34993,0.27791 -0.44198,0.30101 -0.12002,0.0301 -0.19123,0.13128 -0.25175,0.35757 -0.0491,0.18349 -0.20221,0.43688 -0.36586,0.60538 l -0.28144,0.28979 0.33037,-0.0528 c 0.1817,-0.029 0.43818,-0.13506 0.56996,-0.23558 z m -3.90041,-0.0994 c -0.17303,-0.15822 -1.0412,-0.75717 -1.09753,-0.75717 -0.0775,0 0.0529,0.25844 0.29234,0.5792 0.15913,0.21321 0.22373,0.24289 0.52873,0.24289 0.2013,0 0.31759,-0.0273 0.27646,-0.0649 z m -4.16034,-0.12644 c 0.38928,-0.27267 0.41852,-0.44122 0.46174,-2.66188 0.0463,-2.37874 0.0338,-2.33422 0.75358,-2.69447 0.62201,-0.31132 1.38198,-0.44325 2.85656,-0.49589 l 1.32781,-0.0474 -0.25451,-0.52316 c -0.6081,-1.25001 -1.45471,-1.99756 -2.1428,-1.89207 -0.17125,0.0262 -0.16352,0.0388 0.11538,0.18799 l 0.29895,0.15986 -0.33631,0.15391 c -0.57701,0.26402 -1.35513,0.16567 -1.23181,-0.1557 0.0257,-0.0671 0.13245,-0.14356 0.23709,-0.16982 0.10464,-0.0263 0.17388,-0.0642 0.15385,-0.0842 -0.0648,-0.0648 -1.19202,0.1997 -1.6581,0.38913 -0.24921,0.10128 -0.54877,0.26215 -0.66569,0.35751 -0.18835,0.1536 -0.2016,0.19091 -0.11634,0.32744 0.0865,0.13845 0.0644,0.18594 -0.21789,0.4682 -0.34734,0.34734 -0.68904,1.01009 -0.84574,1.64033 -0.1331,0.53538 -0.12423,4.42038 0.0107,4.67245 0.11797,0.22041 0.58189,0.48054 0.86078,0.48266 0.12443,8.3e-4 0.3012,-0.0507 0.39279,-0.11494 z m 4.16408,-6.17489 c -0.29408,-0.10506 -0.56053,-0.35218 -0.56053,-0.51988 0,-0.19284 0.23058,-0.28856 0.69515,-0.28856 0.39206,0 0.41296,0.0105 0.60729,0.30412 0.27858,0.42096 0.23679,0.55175 -0.18207,0.56989 -0.1846,0.008 -0.43653,-0.0215 -0.55984,-0.0655 z m 0.85946,-0.1212 c 0,-0.0331 -0.11383,-0.18442 -0.25296,-0.33632 -0.1973,-0.21539 -0.30931,-0.27618 -0.50888,-0.27618 -0.30264,0 -0.55018,0.15772 -0.49073,0.31264 0.0683,0.17808 0.5152,0.35645 0.89758,0.35829 0.19525,8.3e-4 0.35499,-0.0254 0.35499,-0.0584 z m -2.1113,-0.87946 c -0.33175,-0.17998 -0.26383,-0.36464 0.20394,-0.55449 l 0.40945,-0.16619 0.33405,0.19576 c 0.43257,0.2535 0.47757,0.33748 0.27064,0.50504 -0.21143,0.1712 -0.91789,0.18273 -1.21808,0.0199 z m 1.19102,-0.14851 c 0.0144,-0.0432 -0.10945,-0.15485 -0.27525,-0.24803 -0.26815,-0.15072 -0.33232,-0.15959 -0.5806,-0.0803 -0.35653,0.11392 -0.44599,0.19571 -0.33523,0.30649 0.19018,0.19018 1.12923,0.20737 1.19108,0.0219 z m -1.39703,6.00488 c 0.14361,-0.0454 0.89268,-0.39409 1.66461,-0.7749 1.41014,-0.69563 1.85649,-0.84865 2.50612,-0.85916 l 0.35131,-0.005 -0.26158,-0.10072 c -0.62725,-0.24156 -1.20342,-0.11108 -2.5965,0.58798 -1.12991,0.56699 -1.82849,0.79464 -2.43853,0.79464 -0.85031,0 -1.01368,-0.28558 -1.01683,-1.7774 -0.002,-0.96255 0.0939,-1.29125 0.42733,-1.46366 0.7677,-0.39699 3.12736,-0.65429 4.59302,-0.50081 0.77412,0.081 1.62563,0.29674 1.82695,0.46278 0.0582,0.048 0.0796,0.39319 0.0671,1.08078 -0.0127,0.69834 0.005,0.98634 0.0592,0.93271 0.0427,-0.0427 0.0879,-0.45271 0.10057,-0.91119 0.013,-0.47454 0.0592,-0.87737 0.10734,-0.93523 0.34058,-0.41038 -1.42029,-0.84853 -3.40918,-0.84827 -1.72045,2.2e-4 -3.11736,0.26792 -3.66029,0.70145 -0.20461,0.16339 -0.22657,0.22765 -0.27432,0.8027 -0.0683,0.82288 -0.0757,1.90043 -0.0159,2.33663 0.0545,0.39797 0.17101,0.49388 0.69942,0.57591 0.38646,0.06 0.8927,0.0207 1.27005,-0.0985 z m 0.55642,-0.83976 c 0.24915,-0.0941 0.83977,-0.35687 1.31248,-0.58399 0.8897,-0.42747 1.31776,-0.57718 1.65223,-0.57789 0.18279,-2.9e-4 0.19775,-0.0279 0.24111,-0.44266 0.0431,-0.41248 0.3563,-1.27671 0.46268,-1.27671 0.026,0 0.0253,0.1009 -0.002,0.22422 -0.0412,0.18749 -0.026,0.22421 0.0922,0.22421 0.0778,0 0.23747,0.10024 0.35485,0.22275 0.17703,0.18479 0.21445,0.28989 0.21951,0.61658 0.003,0.2166 -0.0215,0.49471 -0.0552,0.61803 -0.0507,0.18539 -0.0442,0.20737 0.0374,0.12696 0.0709,-0.0698 0.0981,-0.34346 0.0964,-0.97157 l -0.003,-0.87432 -0.48345,-0.18085 c -0.43812,-0.16388 -0.62501,-0.18386 -1.99249,-0.21313 -1.63923,-0.035 -2.5152,0.0438 -3.2814,0.29529 -0.77959,0.25592 -0.77745,0.25154 -0.77745,1.58474 0,1.05575 0.0117,1.15454 0.15216,1.28162 0.31652,0.28644 1.09741,0.25743 1.97324,-0.0733 z m -0.25698,-0.6066 c -0.32062,-0.13386 -0.5979,-0.52199 -0.5979,-0.83691 0,-0.4763 0.15437,-0.96604 0.36947,-1.17211 0.5723,-0.5483 1.76694,-0.35981 2.1154,0.33376 0.16306,0.32456 0.16863,0.90536 0.0118,1.23574 -0.23379,0.49268 -1.2231,0.72167 -1.89884,0.43952 z m 0.7498,-0.14592 c 0.23618,-0.12213 0.44598,-0.45553 0.44598,-0.70874 0,-0.4577 -0.52454,-0.88291 -0.96882,-0.78533 -0.25465,0.0559 -0.56501,0.37952 -0.63053,0.65743 -0.0682,0.28929 0.13613,0.68573 0.42755,0.82944 0.2999,0.14789 0.45085,0.14939 0.72582,0.007 z m -0.8653,-0.21954 c -0.3284,-0.3284 -0.19389,-0.92683 0.24591,-1.09404 0.2764,-0.10509 0.66904,0.0454 0.80509,0.30842 0.15754,0.30465 0.13832,0.47647 -0.0827,0.73911 -0.2546,0.30258 -0.69128,0.32355 -0.96832,0.0465 z m 0.48917,-0.58884 c 0,-0.0547 -0.0221,-0.12178 -0.0491,-0.14882 -0.0676,-0.0676 -0.25804,0.0999 -0.20717,0.1822 0.0637,0.10304 0.25633,0.0779 0.25633,-0.0334 z m 0.91213,0.84402 c 0.40536,-0.11258 0.5826,-0.37838 0.5826,-0.87371 0,-0.73929 -0.37994,-1.09983 -1.1617,-1.10235 -0.48044,-0.002 -0.78198,0.13132 -0.93132,0.41034 l -0.0804,0.15021 0.24592,-0.14994 c 0.28997,-0.17679 0.65671,-0.19311 0.94853,-0.0422 0.5708,0.29517 0.67015,1.14821 0.17873,1.53475 -0.21632,0.17015 -0.17834,0.18288 0.21763,0.0729 z m 3.25634,0.57814 c 0.11925,-0.13179 0.11491,-0.13555 -0.0974,-0.0846 -0.32536,0.078 -0.33295,0.0889 -0.24306,0.34677 0.0823,0.23593 0.0823,0.23596 0.14894,0.0559 0.0366,-0.0991 0.12282,-0.24223 0.19148,-0.31809 z m -0.10506,-0.96751 c 0.0809,-0.30203 0.0495,-0.69203 -0.0695,-0.86195 -0.1388,-0.19817 -0.53105,-0.41596 -0.58676,-0.3258 -0.0216,0.035 0.0421,0.10054 0.14127,0.14579 0.30972,0.14111 0.43864,0.41915 0.38894,0.83878 -0.0444,0.37456 0.0426,0.51469 0.12609,0.20318 z m -0.25185,-0.30541 c 0,-0.36675 -0.16728,-0.64747 -0.38582,-0.64747 -0.13485,0 -0.12431,0.0269 0.0883,0.22554 0.21874,0.20432 0.23689,0.25407 0.19299,0.52866 -0.0318,0.19898 -0.0222,0.28686 0.028,0.25583 0.0421,-0.0259 0.0764,-0.18916 0.0764,-0.36256 z m -0.48898,-0.0444 c 0.0236,-0.0383 0.009,-0.0907 -0.033,-0.11651 -0.0417,-0.0258 -0.0759,0.005 -0.0759,0.0696 0,0.13128 0.0448,0.15061 0.10891,0.047 z m 1.62766,-1.62942 c -0.0326,-0.3114 -0.0351,-0.31389 -0.16076,-0.1587 -0.12122,0.14971 -0.11994,0.16635 0.0255,0.32969 0.0843,0.0946 0.15662,0.16601 0.16077,0.15869 0.004,-0.007 -0.007,-0.15567 -0.0255,-0.32968 z m -0.35746,-0.16372 c 0.11552,-0.18694 -1.77634,-0.63137 -2.09415,-0.49196 -0.10709,0.047 -0.0189,0.0775 0.34136,0.11803 0.26717,0.03 0.7212,0.13732 1.00894,0.23831 0.61081,0.21438 0.68661,0.22821 0.74385,0.13562 z m -0.0723,-0.80763 c -0.12798,-0.44305 -0.63068,-1.51489 -0.71048,-1.51489 -0.0245,0 -0.10998,-0.0532 -0.18977,-0.11821 -0.14307,-0.11659 -0.14301,-0.11755 0.004,-0.0699 0.26421,0.0854 -0.26484,-0.41381 -0.59807,-0.56429 -0.3095,-0.13975 -1.30924,-0.29387 -1.90636,-0.29387 h -0.34111 l 0.49212,0.50448 c 0.53089,0.54421 0.89832,1.12327 1.11185,1.75229 l 0.13457,0.39638 0.52629,0.0581 c 0.28946,0.032 0.75716,0.13648 1.03934,0.23231 0.28219,0.0958 0.52406,0.14604 0.53749,0.11158 0.0134,-0.0345 -0.0316,-0.25672 -0.10014,-0.49389 z m -1.49375,-0.063 c -0.32211,-0.16753 -0.53811,-0.38841 -0.74923,-0.76615 -0.20419,-0.36533 -0.22073,-0.41777 -0.11023,-0.34947 0.0411,0.0254 0.0751,0.003 0.0757,-0.0516 5.7e-4,-0.0538 0.0831,0.0461 0.1837,0.22188 0.10354,0.1811 0.16234,0.37304 0.1356,0.44271 -0.036,0.0936 -0.0163,0.11119 0.0817,0.0735 0.0862,-0.0331 0.11147,-0.0212 0.0762,0.036 -0.0348,0.0562 -0.0194,0.0647 0.045,0.025 0.0643,-0.0397 0.0798,-0.0313 0.0451,0.0247 -0.0582,0.0941 0.36462,0.38564 0.55978,0.3861 0.0655,1.5e-4 0.17487,-0.0612 0.24289,-0.1364 0.19428,-0.21467 0.1445,-0.28262 -0.0637,-0.087 -0.18418,0.17302 -0.1921,0.17384 -0.45768,0.0472 -0.14864,-0.0709 -0.25472,-0.14439 -0.23577,-0.16336 0.019,-0.0189 0.1421,0.0192 0.2736,0.0848 0.18508,0.0923 0.26296,0.0995 0.34463,0.0317 0.11734,-0.0974 0.28006,-0.53561 0.25535,-0.6877 -0.009,-0.0538 0.0191,-0.182 0.062,-0.28476 0.0767,-0.18389 0.0788,-0.18248 0.13128,0.0894 0.0294,0.15193 0.0358,0.3201 0.0144,0.37369 -0.0215,0.0536 -0.0416,-0.0175 -0.0449,-0.15793 -0.008,-0.34278 -0.0507,-0.27347 -0.11151,0.18062 -0.0355,0.26537 -0.0279,0.34118 0.0266,0.26158 0.11469,-0.16768 0.0946,-0.0227 -0.0304,0.21886 -0.16759,0.32408 -0.38298,0.37771 -0.75012,0.18676 z m -0.56051,-0.70457 c -0.0441,-0.0822 -0.0968,-0.14948 -0.11737,-0.14948 -0.0206,0 -0.002,0.0673 0.0426,0.14948 0.0441,0.0822 0.0968,0.14947 0.11737,0.14947 0.0205,0 0.002,-0.0673 -0.0426,-0.14947 z m 0.37725,0.22992 c -0.0597,-0.0388 -0.13321,-0.0553 -0.16335,-0.0367 -0.0301,0.0187 -0.0234,-0.0758 0.015,-0.20996 0.0873,-0.30418 0.0906,-0.2822 -0.0438,-0.2822 -0.16002,0 -0.31279,-0.35075 -0.20132,-0.46223 0.0628,-0.0628 0.11405,-0.06 0.19977,0.0112 0.0977,0.0811 0.11527,0.0715 0.11527,-0.063 0,-0.21809 0.27823,-0.21107 0.37881,0.01 0.0463,0.10165 0.1492,0.17245 0.25998,0.17895 0.22918,0.0135 0.22839,0.003 -0.02,-0.24466 -0.19649,-0.19648 -0.59884,-0.32323 -0.85542,-0.26948 -0.0684,0.0144 -0.17604,0.15029 -0.23904,0.30208 -0.0877,0.2113 -0.11546,0.23714 -0.11839,0.11021 -0.003,-0.12563 -0.0356,-0.15427 -0.13465,-0.11813 -0.12455,0.0455 -0.12455,0.0406 0,-0.10166 0.0719,-0.0822 0.13078,-0.20555 0.13078,-0.27425 0,-0.0713 0.056,-0.12238 0.1308,-0.11901 0.0781,0.003 0.0932,0.021 0.0374,0.0436 -0.17213,0.0695 -0.0982,0.17282 0.0762,0.10652 0.17471,-0.0664 0.43131,-0.0572 0.73844,0.0265 0.17274,0.0471 0.17256,0.0461 -0.0113,-0.0647 -0.11805,-0.0712 -0.14481,-0.11355 -0.0727,-0.11522 0.17792,-0.004 0.46077,0.22567 0.41728,0.33902 -0.0215,0.0561 -0.007,0.12173 0.032,0.14589 0.0391,0.0241 0.10825,0.1134 0.15367,0.19827 0.0621,0.11609 0.0609,0.14098 -0.004,0.10044 -0.0513,-0.0317 -0.0814,-0.0123 -0.0733,0.0471 0.0296,0.21545 -0.01,0.28776 -0.15574,0.28776 -0.0836,0 -0.17603,-0.0588 -0.20554,-0.13078 -0.0533,-0.12982 -0.38996,-0.19947 -0.38996,-0.0807 0,0.0341 0.0614,0.062 0.13645,0.062 0.18522,0 0.4811,0.3281 0.44893,0.4978 -0.0295,0.15509 -0.40188,0.22283 -0.5818,0.1058 z m 0.42671,-0.2486 c -0.0612,-0.0925 -0.18291,-0.17891 -0.2707,-0.19205 -0.12774,-0.0191 -0.15958,0.0144 -0.15958,0.16816 0,0.17087 0.0299,0.19204 0.27069,0.19204 0.26382,0 0.26786,-0.004 0.15959,-0.16815 z m 0.20104,-0.43613 c -0.024,-0.0389 -0.0757,-0.0511 -0.11455,-0.027 -0.039,0.024 -0.0511,0.0756 -0.027,0.11453 0.024,0.039 0.0756,0.0511 0.11454,0.027 0.0389,-0.024 0.0511,-0.0756 0.027,-0.11454 z m -0.79792,-0.0823 c -0.0163,-0.0488 -0.0696,-0.10206 -0.11839,-0.11834 -0.0546,-0.0183 -0.0713,0.0159 -0.0434,0.0888 0.0522,0.13585 0.20661,0.16411 0.16177,0.0296 z m 0.3908,-0.16841 c 0,-0.0593 -0.0314,-0.12704 -0.0696,-0.15069 -0.0889,-0.055 -0.17823,0.085 -0.11727,0.18365 0.0687,0.11119 0.18684,0.0904 0.18684,-0.033 z m -0.78473,-0.266 c 0.0254,-0.0411 0.0106,-0.0748 -0.0329,-0.0748 -0.0435,0 -0.0792,0.0336 -0.0792,0.0748 0,0.0411 0.0148,0.0748 0.0329,0.0748 0.0181,0 0.0537,-0.0336 0.0792,-0.0748 z m 1.15842,-0.0748 c 0,-0.0411 -0.0356,-0.0748 -0.0792,-0.0748 -0.0436,0 -0.0584,0.0336 -0.033,0.0748 0.0254,0.0411 0.061,0.0748 0.0792,0.0748 0.0181,0 0.033,-0.0336 0.033,-0.0748 z m -1.4141,0.40483 c 0.003,-0.087 0.0213,-0.10477 0.0451,-0.0452 0.0216,0.054 0.0189,0.11841 -0.006,0.14325 -0.0249,0.0249 -0.0425,-0.0193 -0.0393,-0.0981 z m 0.53737,-0.75557 c 0.0727,-0.0189 0.17361,-0.0177 0.2242,0.002 0.0506,0.0205 -0.009,0.036 -0.13221,0.0345 -0.12331,-0.002 -0.16471,-0.0184 -0.092,-0.0373 z m -0.31091,1.88804 c -0.0829,-0.2357 -0.23709,-0.57609 -0.34275,-0.75639 -0.2177,-0.37148 -0.92285,-1.15663 -1.24442,-1.38562 -0.19095,-0.13597 -0.24258,-0.14223 -0.47599,-0.0578 -0.27864,0.10075 -0.34774,0.21387 -0.13102,0.2145 0.151,5.6e-4 0.56802,0.24726 0.90301,0.53447 0.35663,0.30577 0.80564,0.993 1.02664,1.57138 0.17402,0.45539 0.21392,0.50931 0.30756,0.41567 0.0936,-0.0936 0.0881,-0.16319 -0.0431,-0.53618 z m -2.82945,-1.34731 c 0.32538,-0.0549 0.35912,-0.15727 0.092,-0.279 -0.1467,-0.0668 -0.2652,-0.0619 -0.53628,0.0223 -0.19137,0.0595 -0.3608,0.14661 -0.37651,0.19375 -0.0293,0.0876 0.22719,0.16546 0.42847,0.13 0.0617,-0.0108 0.23822,-0.041 0.39236,-0.067 z"
         id="path4952-2-1"
         sodipodi:nodetypes="csssssscssssscssssssssscssssscsssssssssssscssssscsssssssssssscsssssssssscsccccccsssscccsssssssssssssssssssssssssssscscccsssscsscsscsccsscccsssssscscssssssssssscssssssssssssscccsssscssssssssssssssssssssscsssssssssssssssssssssssssssssssssssssssssccscssscsssssssssssssscssssssssscsscssscssscssssssssssssssssssssssssssssssssssssssscsssscssssssssscsscssssssssssssssssccssssssssscccscccsssssssssccsssscsscssscsssscssssssccssssscssccsssscsssccsscssssssssssssssssssscsssssssssssscsscsssssssssssssscssscssssccssccsssssssssssssssssssssssscsssssssssssssssssssssssssssssssssssssssssscsssscssssssssssscssscsssssssssscsscsssscsssscssscssssssssssscssscsssssssssssssscscsscsssssccsssssccsssscssssssssssssssssssscscssssssssssssssssssssssssssssssssssssssssssscsscssssscsscssssssssssssssssssscscccscscssssssssssssssssssssssssssssssssssssssssssssssssssssssssssssssssssscccccsssscsssssssssss" />
      <circle
         style="fill:none;stroke:#ff0000;stroke-width:0.1;stroke-dasharray:none"
         id="path788-8-1-8-1-9-2-2-9-1-0"
         cx="-196.15051"
         cy="-57.184158"
         r="19.954653" />
      <ellipse
         style="fill:none;stroke:#ff00ff;stroke-width:0.1;stroke-dasharray:none;stroke-opacity:1"
         id="path1138-9-4-0-0-1-2-8-1-8-6"
         cx="-196.15051"
         cy="-57.184158"
         rx="18.492125"
         ry="18.492126" />
      <circle
         style="fill:none;stroke:#0000ff;stroke-width:0.1;stroke-linecap:round;stroke-dasharray:none;stroke-opacity:1;paint-order:markers stroke fill"
         id="path13019-1-33-4-5-5-5"
         cx="-196.15051"
         cy="-72.195107"
         r="2" />
    </g>
  </g>
</svg>
