<?xml version="1.0" encoding="UTF-8" standalone="no"?>
<!-- Created with Inkscape (http://www.inkscape.org/) -->

<svg
   width="41.008999mm"
   height="41.008999mm"
   viewBox="0 0 41.008999 41.008999"
   version="1.1"
   id="svg1"
   sodipodi:docname="100.svg"
   inkscape:version="1.4.2 (f4327f4, 2025-05-13)"
   xmlns:inkscape="http://www.inkscape.org/namespaces/inkscape"
   xmlns:sodipodi="http://sodipodi.sourceforge.net/DTD/sodipodi-0.dtd"
   xmlns="http://www.w3.org/2000/svg"
   xmlns:svg="http://www.w3.org/2000/svg">
  <sodipodi:namedview
     id="namedview1"
     pagecolor="#ffffff"
     bordercolor="#000000"
     borderopacity="0.25"
     inkscape:showpageshadow="2"
     inkscape:pageopacity="0.0"
     inkscape:pagecheckerboard="0"
     inkscape:deskcolor="#d1d1d1"
     inkscape:document-units="mm"
     showguides="false"
     inkscape:zoom="4"
     inkscape:cx="114"
     inkscape:cy="65.25"
     inkscape:window-width="1050"
     inkscape:window-height="1081"
     inkscape:window-x="857"
     inkscape:window-y="0"
     inkscape:window-maximized="0"
     inkscape:current-layer="layer1" />
  <defs
     id="defs1" />
  <g
     inkscape:label="Layer 1"
     inkscape:groupmode="layer"
     id="layer1"
     transform="translate(-70.643761,-99.218767)">
    <g
       id="g6793"
       transform="translate(641.33243,425.44659)">
      <path
         style="fill:#000000;stroke-width:0.1;stroke-dasharray:none"
         d="m -545.47053,-289.76997 c -0.23873,-0.38627 -0.83988,-1.6004 -1.33588,-2.69805 l -0.90182,-1.99574 h -1.72702 c -1.5219,0 -1.78206,-0.0547 -2.19047,-0.46099 -0.36611,-0.36417 -0.41722,-0.53426 -0.24337,-0.80987 0.42013,-0.66605 2.52066,-0.88718 3.29243,-0.34661 0.24891,0.17434 0.45016,0.28889 0.44721,0.25454 -0.003,-0.0343 -0.1633,-0.65814 -0.35635,-1.38621 -0.29286,-1.10454 -0.50899,-1.46932 -1.30507,-2.2028 -0.52475,-0.48348 -1.01037,-1.13537 -1.07919,-1.44864 -0.12226,-0.5567 -0.14163,-0.56389 -0.85634,-0.31819 -1.66706,0.57311 -2.60834,-0.6844 -1.01557,-1.35675 0.57375,-0.24219 2.56574,-0.32296 3.39612,-0.13769 0.16799,0.0375 0.3407,-0.0202 0.38379,-0.12809 0.0822,-0.20587 0.0127,-0.2521 -1.30012,-0.86499 -0.63275,-0.2954 -0.9281,-0.61851 -1.32357,-1.44799 -0.36789,-0.77164 -0.65024,-1.09803 -1.01813,-1.17694 -1.84591,-0.39592 -3.5273,-1.36988 -3.63258,-2.1042 -0.068,-0.47375 -0.0476,-0.47983 1.1785,-0.35168 0.6862,0.0717 1.8894,0.34564 2.67378,0.60872 0.78439,0.26308 1.47359,0.40157 1.53156,0.30776 0.17387,-0.28132 1.1808,-0.19277 1.66508,0.14643 0.40465,0.28343 0.45257,0.28393 0.45257,0.005 0,-0.17176 -0.21785,-0.45502 -0.48411,-0.62948 -0.4822,-0.31595 -1.24178,-1.94235 -1.19776,-2.56462 0.0165,-0.23297 -0.32959,-0.42516 -1.2025,-0.66785 -1.40321,-0.39013 -3.02494,-1.16648 -3.41273,-1.63373 -0.34035,-0.4101 -0.15545,-0.87969 0.45608,-1.15832 0.37847,-0.17244 0.8089,-0.12308 1.99108,0.22833 1.19815,0.35615 1.66226,0.61483 2.25743,1.25819 0.60508,0.65404 0.83809,0.78164 1.21122,0.66322 l 0.462,-0.14663 -0.49851,-0.39446 c -1.44143,-1.14054 -1.8221,-1.62481 -1.8221,-2.31799 0,-0.65902 0.56153,-1.51066 0.99606,-1.51066 0.0999,0 0.2405,-0.23485 0.31254,-0.5219 0.10582,-0.42159 0.23587,-0.50966 0.67662,-0.45816 0.40057,0.0468 0.7073,0.32588 1.15378,1.04978 l 0.60815,0.98604 -0.55,0.97842 c -0.3025,0.53814 -0.54062,1.23982 -0.52916,1.55931 0.0208,0.57827 0.0215,0.5779 0.17851,-0.0839 0.21338,-0.89959 1.06188,-2.14193 1.89903,-2.78045 0.77597,-0.59186 1.91628,-0.70968 2.10514,-0.21751 0.14808,0.38591 -0.13399,0.72856 -1.61785,1.96531 -0.64978,0.54158 -1.05342,0.98468 -0.89698,0.98468 0.48184,0 0.95846,0.71013 0.95846,1.42804 0,0.95221 -0.74253,2.38588 -1.7371,3.35397 -0.46205,0.44975 -0.89496,1.09262 -0.96204,1.42861 -0.12149,0.6085 -0.1181,0.60715 0.8691,-0.34521 1.43116,-1.38065 3.45904,-1.81847 3.45904,-0.7468 0,0.49908 -1.03058,2.03203 -1.7427,2.59217 -0.28745,0.22611 -0.86053,0.51902 -1.27351,0.65093 -0.41298,0.13189 -0.81823,0.30068 -0.90057,0.37509 -0.25815,0.23328 -0.56661,2.27558 -0.42745,2.83005 0.12268,0.48878 0.15389,0.4575 0.40594,-0.40693 0.29573,-1.01419 1.42682,-2.20034 2.0982,-2.20034 0.41407,0 1.02559,0.50632 1.02559,0.84917 0,0.39622 -1.18526,1.31532 -2.01795,1.5648 -1.17338,0.35156 -1.59159,1.33457 -1.44198,3.38939 0.0457,0.62818 0.0783,0.69028 0.1425,0.27143 0.10474,-0.68368 0.93329,-1.59501 1.45013,-1.59501 0.21563,0 0.50066,0.13087 0.6334,0.29082 0.31066,0.37431 -0.19414,1.42046 -0.85538,1.77268 -0.72118,0.38414 -0.96954,0.83044 -0.83475,1.49997 0.25976,1.29036 2.47876,6.24087 2.91947,6.51324 0.25897,0.16005 0.27352,0.51188 0.0212,0.51188 -0.10286,0 -0.38234,-0.31604 -0.62107,-0.70231 z m -3.18512,-5.21934 0.63337,-0.0165 -0.81451,-0.38054 c -0.48455,-0.22639 -1.02072,-0.33203 -1.32357,-0.26079 -1.49612,0.35196 -1.53406,1.004 -0.0466,0.80011 0.50484,-0.0692 1.20291,-0.13323 1.55126,-0.14229 z m -1.9709,-0.92483 c -0.1239,-0.1239 -0.9592,0.18073 -0.9592,0.34982 0,0.0965 0.22947,0.071 0.50993,-0.0568 0.28046,-0.12779 0.48263,-0.25964 0.44927,-0.293 z m 1.99339,0.12681 c -0.0692,-0.112 -0.23498,-0.20223 -0.36837,-0.20051 -0.14571,0.002 -0.1206,0.0819 0.063,0.20051 0.39119,0.2528 0.46168,0.2528 0.30544,0 z m 2.12073,-2.7922 c 0.2914,-0.63956 0.28449,-0.66945 -0.15472,-0.66945 -0.47581,0 -0.95529,0.54588 -1.13211,1.28887 l -0.1371,0.57618 0.60147,-0.3553 c 0.33081,-0.19542 0.70092,-0.57355 0.82246,-0.8403 z m -2.50567,-1.32145 c -0.22823,-1.14116 -1.54951,-2.15395 -1.54951,-1.18773 0,0.42992 1.12796,1.83973 1.47193,1.83973 0.12541,0 0.15621,-0.25887 0.0776,-0.652 z m 0.28313,-1.28246 c 0,-0.37525 -0.1083,-0.50906 -0.41195,-0.50906 -0.39261,0 -0.39629,0.0239 -0.0784,0.50906 0.18346,0.27999 0.36883,0.50907 0.41195,0.50907 0.0431,0 0.0784,-0.22908 0.0784,-0.50907 z m -2.92118,-0.40725 c 0.40206,-0.16799 1.03513,-0.30544 1.40683,-0.30544 0.89441,0 1.07402,-0.33744 0.27322,-0.51332 -1.49161,-0.32762 -3.85903,0.40328 -3.02194,0.93297 0.39295,0.24865 0.49402,0.24005 1.34189,-0.11421 z m 5.2166,-0.69286 c 0.87254,-0.37401 1.2911,-0.87481 1.05306,-1.25997 -0.35492,-0.57428 -1.85493,0.30958 -2.01827,1.18923 -0.10255,0.55228 -0.15004,0.54879 0.96521,0.0707 z m -0.78275,-0.19995 c 0.19333,-0.31283 1.74535,-1.09523 1.74535,-0.87987 0,0.0935 -0.34362,0.34499 -0.7636,0.5588 -1.11535,0.56782 -1.13904,0.57557 -0.98175,0.32107 z m -1.61699,-1.60162 c -0.25338,-1.57595 -0.27094,-1.60587 -1.08561,-1.84995 -1.68635,-0.50524 -2.01962,-0.22625 -1.20087,1.00533 0.35025,0.52688 1.8166,1.5255 2.34911,1.59982 0.0331,0.005 0.005,-0.33522 -0.0626,-0.7552 z m 2.75696,-1.53867 c 0.50549,-0.35407 1.68886,-1.97642 1.54589,-2.11938 -0.31304,-0.31305 -3.26068,1.8917 -3.43857,2.57197 -0.0964,0.36874 -0.0592,0.37451 0.69626,0.10798 0.43897,-0.15489 0.97736,-0.40714 1.19642,-0.56057 z m -1.14846,-0.95575 c 0.22259,-0.168 0.91443,-0.6021 1.53743,-0.96468 1.27252,-0.7406 0.87913,-0.92291 -0.52486,-0.24325 -0.96711,0.46817 -2.1095,1.64692 -2.1095,2.17664 0,0.25979 0.0845,0.22079 0.34611,-0.15981 0.19037,-0.27691 0.52823,-0.64091 0.75082,-0.8089 z m -1.76643,-0.42545 c -0.30427,-0.48721 -1.12459,-0.83812 -1.4862,-0.63576 -0.22583,0.12638 -0.0919,0.30873 0.57424,0.78179 0.87656,0.62249 1.34506,0.54747 0.91196,-0.14603 z m -3.50485,-0.17709 c -1.42409,-0.67382 -3.35984,-1.26602 -3.35984,-1.02787 0,0.47473 2.7861,1.6002 3.97072,1.604 0.53386,0.001 0.45685,-0.071 -0.61088,-0.57613 z m 1.93446,0.28589 c 0,-0.14591 -2.17327,-1.10898 -2.50024,-1.10797 -0.13679,4.2e-4 0.30107,0.27496 0.97303,0.61011 1.22333,0.61012 1.52721,0.70919 1.52721,0.49786 z m 4.3753,-3.95148 c 0.37207,-1.12018 0.21662,-1.7106 -0.49968,-1.89791 l -0.41343,-0.10812 0.40699,0.51739 c 0.22383,0.28457 0.40698,0.63942 0.40698,0.78857 0,0.14915 -0.41235,0.73547 -0.91633,1.30292 -0.50397,0.56745 -0.91631,1.15862 -0.91631,1.31371 0,0.15509 -0.0533,0.44984 -0.11835,0.65499 -0.0651,0.20515 0.29446,-0.0634 0.799,-0.59679 0.55154,-0.58308 1.05044,-1.37053 1.25113,-1.97476 z m -2.33904,2.5728 c 0,-0.0365 -0.25199,-0.28847 -0.55997,-0.55998 l -0.55998,-0.49366 0.49366,0.55998 c 0.46139,0.52338 0.62629,0.65335 0.62629,0.49366 z m -0.2854,-2.14799 c 0.0182,-1.27136 -0.0143,-1.38772 -0.36258,-1.29665 -0.36628,0.0958 -0.98103,0.78863 -0.98103,1.10565 0,0.12453 1.1965,1.59429 1.29376,1.58925 0.0164,-7.7e-4 0.0388,-0.63006 0.0499,-1.39825 z m 2.11804,-1.15934 c 0,-0.80291 -1.5598,-0.81614 -1.71918,-0.0146 -0.47626,2.3951 -0.31934,2.64454 0.82229,1.30709 0.49329,-0.57791 0.89689,-1.15953 0.89689,-1.29251 z m -3.43579,-0.44436 c -0.34636,-0.64252 -1.1418,-1.2534 -2.04878,-1.5734 -0.49026,-0.17297 -0.91477,-0.29061 -0.94335,-0.26141 -0.0464,0.0474 2.98413,2.16394 3.12615,2.18326 0.0319,0.005 -0.0284,-0.15246 -0.13402,-0.34845 z m -1.04399,0.0683 c 0,-0.0465 -0.46579,-0.42639 -1.03508,-0.84428 -0.69981,-0.51371 -1.2934,-0.77822 -1.83264,-0.81662 -1.03373,-0.0737 -1.01282,0.20189 0.0567,0.74753 1.40519,0.71687 2.811,1.17366 2.811,0.91337 z m 1.91812,-1.90089 c -0.27825,-0.53197 -0.68417,-1.19631 -0.90204,-1.47629 l -0.39615,-0.50907 -0.005,0.74773 c -0.004,0.62841 0.13131,0.86401 0.84664,1.4763 0.46813,0.40071 0.87608,0.72856 0.90656,0.72856 0.0305,0 -0.17225,-0.43525 -0.45049,-0.96723 z m 4.08886,-1.15979 0.61088,-0.51861 -1.01813,0.53976 c -0.96624,0.51224 -1.71639,1.19144 -1.7263,1.56301 -0.004,0.15842 0.67493,-0.34584 2.13355,-1.58416 z m -3.42888,-0.39688 c -0.28429,-0.43388 -1.27811,-0.88024 -1.48941,-0.66894 -0.0467,0.0467 0.25981,0.66386 0.68126,1.37134 l 0.76627,1.28634 0.17835,-0.75413 c 0.13506,-0.5711 0.10194,-0.87075 -0.13647,-1.23461 z m -5.07253,1.3654 c -0.19599,-0.0513 -0.51671,-0.0513 -0.71269,0 -0.19599,0.0512 -0.0356,0.0931 0.35634,0.0931 0.39198,0 0.55234,-0.0419 0.35635,-0.0931 z m 9.21411,-2.03508 c 0,-0.20879 -1.10004,0.16977 -1.66751,0.57384 -0.97232,0.69236 -0.63198,0.78021 0.54756,0.14134 0.61597,-0.33362 1.11995,-0.65546 1.11995,-0.71518 z m -3.34801,0.3801 c -0.19544,-0.61576 -0.91827,-1.46268 -1.24837,-1.46268 -0.49222,0 -0.32243,0.61045 0.32022,1.15119 0.33598,0.28272 0.61088,0.66165 0.61088,0.84209 0,0.23847 0.0611,0.26693 0.22385,0.10421 0.12312,-0.12312 0.16516,-0.40879 0.0934,-0.63481 z"
         id="path27322-7-1"
         sodipodi:nodetypes="cscsssscsssssssssscssssssssssssscsssssscssssssssssssssssssssssssssssccccsssscssssssccssssscsssssssssssssssssssssssssssssssssssssssssssssscsccsssssscssssssssscssssscsscsscccssccsscssscsccssccscscsssscssccscssssssssss" />
      <circle
         style="fill:none;stroke:#ff0000;stroke-width:0.1;stroke-dasharray:none"
         id="path788-8-1-8-1-9-2-1"
         cx="-550.15485"
         cy="-305.694"
         r="19.954653" />
      <ellipse
         style="fill:none;stroke:#ff00ff;stroke-width:0.1;stroke-dasharray:none;stroke-opacity:1"
         id="path1138-9-4-0-0-1-2-6"
         cx="-550.15485"
         cy="-305.694"
         rx="18.492125"
         ry="18.492126" />
      <circle
         style="fill:none;stroke:#0000ff;stroke-width:0.1;stroke-linecap:round;stroke-dasharray:none;stroke-opacity:1;paint-order:markers stroke fill"
         id="path13019-1-33-7"
         cx="-550.15485"
         cy="-320.70499"
         r="2" />
    </g>
  </g>
</svg>
