<?xml version="1.0" encoding="UTF-8" standalone="no"?>
<!-- Created with Inkscape (http://www.inkscape.org/) -->

<svg
   width="41.008999mm"
   height="41.008999mm"
   viewBox="0 0 41.008999 41.008999"
   version="1.1"
   id="svg1"
   sodipodi:docname="101.svg"
   inkscape:version="1.4.2 (f4327f4, 2025-05-13)"
   xmlns:inkscape="http://www.inkscape.org/namespaces/inkscape"
   xmlns:sodipodi="http://sodipodi.sourceforge.net/DTD/sodipodi-0.dtd"
   xmlns="http://www.w3.org/2000/svg"
   xmlns:svg="http://www.w3.org/2000/svg">
  <sodipodi:namedview
     id="namedview1"
     pagecolor="#ffffff"
     bordercolor="#000000"
     borderopacity="0.25"
     inkscape:showpageshadow="2"
     inkscape:pageopacity="0.0"
     inkscape:pagecheckerboard="0"
     inkscape:deskcolor="#d1d1d1"
     inkscape:document-units="mm"
     showguides="false"
     inkscape:zoom="4"
     inkscape:cx="114"
     inkscape:cy="65.25"
     inkscape:window-width="1050"
     inkscape:window-height="1081"
     inkscape:window-x="857"
     inkscape:window-y="0"
     inkscape:window-maximized="0"
     inkscape:current-layer="layer1" />
  <defs
     id="defs1" />
  <g
     inkscape:label="Layer 1"
     inkscape:groupmode="layer"
     id="layer1"
     transform="translate(-70.643761,-99.218767)">
    <g
       id="g6787"
       transform="translate(600.27765,425.41727)">
      <path
         style="fill:#000000;stroke-width:0.1;stroke-dasharray:none"
         d="m -505.74685,-290.25059 c -0.0818,-0.24852 -0.26902,-1.06187 -0.41603,-1.80745 -0.49254,-2.49809 -1.09193,-3.09193 -2.61387,-2.58964 -1.35772,0.44808 -3.437,0.18391 -5.13607,-0.65254 -0.82664,-0.40695 -1.50298,-0.81992 -1.50298,-0.91772 0,-0.27587 4.74862,-0.48675 5.74585,-0.25516 0.48858,0.11347 1.3322,0.51917 1.87471,0.90157 l 0.98638,0.69526 -0.15815,-0.85018 c -0.087,-0.4676 -0.32946,-1.35604 -0.53882,-1.97431 -0.42599,-1.258 -0.93925,-1.53612 -2.20826,-1.19659 -0.40552,0.10851 -0.83591,0.13635 -0.95641,0.0619 -0.1205,-0.0745 -0.95791,-0.27135 -1.86089,-0.4375 -2.26129,-0.41609 -4.77417,-1.10202 -4.95499,-1.35254 -0.0851,-0.11797 -0.4116,-0.0368 -0.75388,0.18749 -0.33204,0.21757 -0.66418,0.33509 -0.73811,0.26117 -0.2511,-0.2511 1.32655,-1.64456 2.16414,-1.91146 0.9613,-0.30634 3.32557,-0.0935 6.30094,0.56706 1.01886,0.22622 1.92645,0.33731 2.01688,0.24687 0.27233,-0.27232 -0.66774,-0.84779 -1.23245,-0.75444 -0.64076,0.10592 -0.8115,-0.2556 -0.50342,-1.06592 0.18176,-0.47806 0.34797,-0.58775 0.77367,-0.51056 0.43174,0.0783 0.52074,0.0163 0.43694,-0.30412 -0.17033,-0.65133 -2.59595,-0.78254 -3.85591,-0.20856 -0.91941,0.41884 -1.05658,0.42507 -2.3065,0.10486 -0.73093,-0.18725 -2.22586,-0.68831 -3.32206,-1.11346 -1.98393,-0.76945 -1.99017,-0.77437 -1.3568,-1.06861 0.51561,-0.23954 0.99667,-0.2435 2.53624,-0.0209 1.04497,0.15108 2.14292,0.21372 2.43991,0.13918 0.68256,-0.17131 2.33209,0.26521 3.11868,0.82531 0.38095,0.27126 0.98279,0.4285 1.64007,0.4285 0.94233,0 1.03829,-0.0496 1.03829,-0.5366 0,-0.67042 -1.27475,-1.39325 -1.75467,-0.99496 -0.21503,0.17847 -0.36636,0.1787 -0.54421,8.5e-4 -0.33928,-0.33927 -0.0392,-1.03308 0.37767,-0.87312 0.18385,0.0705 0.31008,0.0176 0.28051,-0.11776 -0.11623,-0.53181 0.52152,-0.41739 0.73,0.13097 0.25738,0.67695 0.46908,0.78412 0.30431,0.15404 -0.16816,-0.64307 -1.2048,-1.51482 -2.16699,-1.82232 -1.20781,-0.38605 -2.17798,-1.28045 -2.68856,-2.47863 -0.24168,-0.56716 -0.78479,-1.38703 -1.2069,-1.82194 -0.73538,-0.75767 -1.64361,-2.71117 -1.26051,-2.71117 0.36461,0 2.30412,1.87467 2.65638,2.56759 0.19808,0.38962 0.88093,1.27418 1.51746,1.96569 0.63652,0.69149 1.45611,1.65057 1.8213,2.13126 0.37766,0.49711 0.70407,0.75376 0.75693,0.59517 0.16366,-0.49097 -0.98753,-3.12352 -2.03842,-4.66151 -0.33962,-0.49705 -0.71572,-1.42414 -0.83576,-2.0602 -0.12005,-0.63606 -0.41667,-1.60191 -0.65915,-2.14634 -0.2425,-0.54443 -0.53758,-1.4982 -0.65576,-2.11952 -0.11817,-0.6213 -0.29165,-1.30757 -0.38551,-1.52502 -0.0987,-0.22863 -0.0741,-0.39539 0.0582,-0.39539 0.36802,0 1.56355,1.96333 1.72741,2.83679 0.0827,0.44069 0.5514,1.42182 1.04163,2.18029 0.93366,1.44456 0.95331,1.51759 0.98472,3.65943 0.0125,0.84947 0.1221,1.36903 0.30197,1.43089 0.19479,0.067 0.28241,-0.18093 0.28241,-0.79906 0,-0.73842 0.0895,-0.92019 0.50835,-1.03243 1.04488,-0.28003 1.12932,0.009 0.31491,1.07889 -0.72389,0.95072 -0.84862,1.48594 -0.52442,2.25028 l 0.27462,0.64745 0.26797,-0.53448 c 0.14738,-0.29396 0.42313,-0.89033 0.61277,-1.32524 0.18965,-0.43492 0.5426,-1.13113 0.78435,-1.54715 0.31064,-0.53457 0.48606,-1.41249 0.59815,-2.99358 0.0872,-1.23045 0.23109,-2.23718 0.31967,-2.23718 0.30824,0 0.68444,1.75621 0.68319,3.18923 -0.002,2.19244 -0.28036,2.86584 -1.80166,4.35718 -0.74806,0.73333 -1.36011,1.49245 -1.36011,1.68693 0,0.29417 0.63376,2.22854 0.8115,2.47686 0.0295,0.0412 0.26557,-0.0387 0.52474,-0.17739 0.39389,-0.21081 0.47121,-0.46561 0.47121,-1.55291 0,-1.19706 0.10705,-1.47181 1.34329,-3.44785 1.38164,-2.20845 3.7442,-4.72462 4.43618,-4.72462 0.35601,0 0.35934,0.0351 0.0375,0.39539 -0.19426,0.21746 -0.62286,0.96785 -0.95244,1.66754 -0.32958,0.6997 -1.04023,1.78882 -1.57923,2.42027 -0.56654,0.66371 -1.23757,1.82217 -1.59053,2.74582 -0.46444,1.21543 -0.84046,1.78995 -1.57143,2.40097 -0.84445,0.70588 -0.9531,0.90169 -0.89645,1.61565 0.0354,0.44683 0.23796,1.19717 0.45002,1.66743 l 0.38555,0.855 0.66444,-0.47313 c 0.36545,-0.26022 0.72742,-0.63839 0.80438,-0.84038 0.0769,-0.202 0.57727,-0.90499 1.11178,-1.56219 0.53451,-0.65721 0.97183,-1.297 0.97183,-1.42175 0,-0.12475 0.46067,-0.71931 1.02372,-1.32124 0.56303,-0.60193 1.32028,-1.70668 1.68276,-2.45499 0.87535,-1.80705 1.24649,-2.03331 1.03632,-0.63178 -0.29678,1.97907 -0.79025,3.19103 -2.14519,5.2686 -1.28805,1.97502 -2.16827,2.77277 -3.05942,2.77277 -0.19504,0 -0.76963,0.26199 -1.27688,0.5822 -0.91757,0.57925 -0.92146,0.58761 -0.76097,1.638 0.0887,0.58069 0.19298,1.20829 0.23169,1.39469 0.0387,0.18639 0.0781,0.41514 0.0877,0.50834 0.009,0.0932 0.12704,0.16945 0.26117,0.16945 0.15344,0 0.18868,-0.25135 0.095,-0.67779 -0.11281,-0.51363 -0.0683,-0.6778 0.18381,-0.6778 0.18297,0 0.39367,-0.15894 0.46821,-0.35321 0.0746,-0.19427 0.22435,-0.29834 0.33288,-0.23126 0.10854,0.067 0.38884,-0.09 0.62291,-0.34899 0.23406,-0.25903 0.93391,-0.72731 1.55522,-1.04065 0.62131,-0.31332 1.50633,-0.90795 1.96671,-1.32138 0.97392,-0.87459 2.24473,-1.55121 3.28618,-1.74968 0.8036,-0.15314 1.01771,0.18022 0.26848,0.41802 -0.25619,0.0813 -1.28252,1.1811 -2.28074,2.44398 -2.1828,2.76151 -2.55803,3.06748 -3.96642,3.23429 -0.62898,0.0745 -1.35992,0.34325 -1.72482,0.63421 -0.63146,0.50351 -0.63234,0.50807 -0.31216,1.60614 0.30478,1.04526 0.33497,1.07527 0.59424,0.59081 0.15024,-0.28071 0.21525,-0.69282 0.14448,-0.91581 -0.0783,-0.24671 0.05,-0.56712 0.32776,-0.81849 0.55389,-0.50126 0.6476,-0.42735 0.72919,0.57512 0.0422,0.51821 -0.0289,0.76068 -0.21228,0.7246 -0.15162,-0.0298 -0.38395,0.14809 -0.5163,0.39537 -0.22458,0.41964 -0.16855,0.44977 0.84049,0.45182 1.32712,0.003 3.06389,0.77271 4.11601,1.82482 0.81626,0.81626 1.74263,2.629 1.47167,2.87981 -0.0895,0.0828 -0.21006,0.0178 -0.26786,-0.14442 -0.1919,-0.53887 -0.93254,-1.07335 -2.03842,-1.47101 -0.60113,-0.21617 -1.71767,-0.8985 -2.48119,-1.51629 -0.76351,-0.61779 -1.60837,-1.12325 -1.87747,-1.12325 -0.55709,0 -0.54415,0.31686 0.11888,2.91263 0.35782,1.40087 0.41909,3.22206 0.073,2.17081 z m 5.10738,-2.78833 c 0.18022,-0.29161 -1.23009,-1.55129 -2.1807,-1.94779 -1.19761,-0.49951 -1.0527,-0.23318 0.22592,0.41521 1.07824,0.54678 2.14855,1.49678 1.68635,1.49678 -0.13618,0 -0.3054,-0.0935 -0.37604,-0.20781 -0.0706,-0.11429 -0.55956,-0.4499 -1.0865,-0.74579 -0.52694,-0.2959 -1.26308,-0.73028 -1.63587,-0.96528 l -0.67779,-0.42729 0.66515,0.72286 c 0.36583,0.39757 1.17372,0.97629 1.79532,1.28605 1.23576,0.61581 1.40893,0.65659 1.58416,0.37306 z m -8.71977,-1.89972 1.06025,-0.28242 -2.37227,-0.12972 c -1.30475,-0.0714 -2.57561,-0.2061 -2.82413,-0.29947 l -0.45186,-0.16976 0.45186,0.28938 c 0.44584,0.28553 2.20639,0.8295 2.78056,0.85915 0.16244,0.008 0.77245,-0.11184 1.35559,-0.26716 z m -0.0694,-1.08598 c -0.57996,-0.23279 -2.66247,-0.26324 -3.20102,-0.0468 -0.59365,0.23857 0.81806,0.42222 2.40868,0.31334 0.90769,-0.0622 1.122,-0.13422 0.79234,-0.26653 z m 3.00643,-3.26917 c -0.0696,-0.0696 -0.19589,0.0558 -0.28073,0.27865 -0.12262,0.32199 -0.0967,0.34795 0.12647,0.12648 0.1544,-0.15326 0.22383,-0.33557 0.15426,-0.40513 z m -3.38233,-0.0793 c 0.18985,-0.12035 -0.31322,-0.2486 -1.35558,-0.3456 -0.91161,-0.0848 -2.20217,-0.30818 -2.86789,-0.49634 -0.66574,-0.18816 -1.25478,-0.29775 -1.309,-0.24355 -0.10706,0.10707 2.06424,0.67358 3.875,1.01102 0.62131,0.11579 1.18049,0.22296 1.24262,0.23817 0.0622,0.0152 0.24881,-0.0585 0.41485,-0.1637 z m 1.84445,-0.21041 c 0,-0.22477 -0.12709,-0.56928 -0.28241,-0.76559 -0.3358,-0.42437 -1.97689,-0.77094 -1.97689,-0.41748 0,0.12989 0.11366,0.23617 0.25259,0.23617 0.13892,0 0.59996,0.305 1.02454,0.67779 0.90196,0.79193 0.98217,0.81391 0.98217,0.26911 z m 4.40564,-0.23267 c 0.37279,-0.22756 1.32979,-1.26928 2.12666,-2.31495 1.37592,-1.8055 1.39867,-1.85489 0.45186,-0.98123 -1.09131,1.00699 -3.81721,2.81413 -4.36645,2.89474 -0.18993,0.0278 -0.42452,0.1377 -0.52131,0.24406 -0.097,0.10659 -0.032,0.10979 0.14482,0.007 0.23896,-0.13873 0.284,-0.0903 0.17654,0.18971 -0.20423,0.5322 1.09357,0.50643 1.98788,-0.0394 z m -6.43901,-0.26237 c -0.18639,-0.12046 -0.74558,-0.2053 -1.24262,-0.18854 l -0.90372,0.0305 1.01668,0.15807 c 0.55918,0.0869 1.11836,0.17177 1.24262,0.18853 0.12426,0.0167 0.0734,-0.0681 -0.11296,-0.18853 z m -5.70946,-0.58837 c -0.075,-0.0751 -0.26993,-0.0831 -0.43303,-0.0179 -0.18024,0.0722 -0.12669,0.12567 0.1365,0.1365 0.23817,0.01 0.37161,-0.0436 0.29653,-0.11866 z m 4.24091,-0.0894 c 0.37217,-0.15992 0.31502,-0.19697 -0.32408,-0.21004 -0.42676,-0.009 -1.36274,-0.18053 -2.07997,-0.38178 -0.88737,-0.24899 -1.5779,-0.3098 -2.16116,-0.19035 l -0.85712,0.17554 1.01668,0.20275 c 3.27581,0.65327 3.72869,0.69479 4.40565,0.40388 z m 7.8749,-0.80713 c 0.9207,-0.56818 1.96553,-1.35223 2.32188,-1.74233 0.67237,-0.73607 0.28232,-0.51439 -0.99845,0.56745 -0.40844,0.345 -1.24001,0.87932 -1.84794,1.18738 -0.96673,0.48988 -1.62696,1.02057 -1.26968,1.02057 0.0661,0 0.8735,-0.46488 1.79419,-1.03307 z m -9.06103,-0.0203 c -0.15534,-0.0627 -0.4095,-0.0627 -0.56483,0 -0.15533,0.0627 -0.0283,0.11396 0.28241,0.11396 0.31066,0 0.43774,-0.0513 0.28242,-0.11396 z m 4.23273,-0.81057 c -0.002,-0.15533 -0.10202,-0.43492 -0.22247,-0.62131 -0.17066,-0.26409 -0.21978,-0.20175 -0.22247,0.28241 -0.002,0.34172 0.0982,0.62131 0.22247,0.62131 0.12426,0 0.22437,-0.12709 0.22247,-0.28241 z m 3.77046,-1.61073 c 0.64344,-0.54159 2.64615,-3.5256 2.90983,-4.33559 0.0781,-0.23993 -0.1835,0.0722 -0.58134,0.69343 -0.83986,1.31166 -2.031,2.62348 -2.2559,2.48448 -0.0855,-0.0529 -0.4507,0.23067 -0.81144,0.6301 l -0.65588,0.72625 0.73427,-0.66359 c 0.40386,-0.36497 0.73428,-0.55192 0.73428,-0.41546 0,0.13646 -0.3128,0.51132 -0.69513,0.83302 -0.42973,0.3616 -0.56574,0.58492 -0.35623,0.58492 0.1864,0 0.62629,-0.24191 0.97754,-0.53756 z m -8.39858,-0.47097 c 0.66151,-0.3029 0.64329,-0.3108 -0.75814,-0.32871 -0.78977,-0.0101 -2.04645,-0.17655 -2.79264,-0.3699 -1.95368,-0.50625 -1.88551,-0.22209 0.0837,0.34887 0.91281,0.26466 1.76131,0.51801 1.88557,0.563 0.4365,0.15804 0.91011,0.0942 1.58151,-0.21326 z m -0.33889,-0.788 c 0.53873,-0.16211 0.5283,-0.17621 -0.22593,-0.30519 -0.43492,-0.0744 -1.65495,-0.17536 -2.71117,-0.22441 l -1.92041,-0.0892 1.58151,0.39847 c 1.72347,0.43423 2.41142,0.4805 3.276,0.22032 z m -4.97047,-0.32564 c 0,-0.0488 -0.15779,-0.14934 -0.35063,-0.22335 -0.20106,-0.0772 -0.29175,-0.0393 -0.2126,0.0888 0.13268,0.21468 0.56323,0.31754 0.56323,0.13455 z m 15.6396,-2.05755 c 0.42925,-0.81889 -0.90819,0.55843 -1.4113,1.45339 l -0.45306,0.80592 0.81376,-0.90372 c 0.44756,-0.49705 0.92033,-1.10707 1.0506,-1.35559 z m -4.11714,-0.67237 c 0,-0.16876 0.20191,-0.77789 0.44871,-1.35363 0.24679,-0.57575 0.33118,-0.97418 0.18754,-0.8854 -0.17417,0.10765 -0.21312,0.0361 -0.11691,-0.21453 0.0793,-0.20679 0.10354,-0.37596 0.0538,-0.37596 -0.22353,0 -1.00877,1.33426 -1.1383,1.93418 -0.10783,0.49939 -0.0266,0.41761 0.32788,-0.32983 0.63783,-1.34513 0.81837,-1.04518 0.24558,0.40801 -0.52424,1.33002 -0.54787,1.45748 -0.23421,1.26363 0.12426,-0.0768 0.22593,-0.27771 0.22593,-0.44647 z m -6.04804,-2.09525 c -0.71209,-0.71451 -1.33228,-1.27847 -1.3782,-1.25326 -0.27514,0.15105 0.93011,1.61678 1.6776,2.04018 0.49012,0.2776 0.91457,0.50642 0.94322,0.50847 0.0286,0.002 -0.53053,-0.58089 -1.24262,-1.29539 z m 0.85163,0.32468 c 0,-0.0388 -0.33042,-0.3693 -0.73428,-0.73427 l -0.73427,-0.66358 0.66358,0.73427 c 0.61855,0.68445 0.80497,0.83813 0.80497,0.66358 z m 7.94391,-2.92303 c 0.86683,-1.35083 0.60327,-1.88886 -0.38802,-0.7921 l -0.66501,0.73576 0.73428,-0.66358 c 0.40385,-0.36496 0.73427,-0.58447 0.73427,-0.48777 0,0.0967 -0.33042,0.56391 -0.73427,1.03825 -0.40386,0.47435 -0.92809,1.2022 -1.16497,1.61743 l -0.4307,0.75498 0.60448,-0.55179 c 0.33246,-0.30349 0.92193,-1.04652 1.30994,-1.65118 z m -3.27605,0.79539 c 0.48041,-1.14977 0.2576,-1.10887 -0.28046,0.0515 -0.2524,0.54432 -0.3666,0.93263 -0.25376,0.8629 0.11283,-0.0698 0.35324,-0.48121 0.53422,-0.91438 z m 1.99454,-0.20175 c 0.21357,-0.32596 0.27665,-0.52363 0.14017,-0.43928 -0.26082,0.16119 -0.78684,1.03193 -0.62341,1.03193 0.0522,0 0.26967,-0.2667 0.48324,-0.59265 z m -10.08164,-1.17568 c -0.41826,-0.47554 -0.80435,-0.82986 -0.858,-0.78738 -0.0996,0.0789 1.35133,1.65198 1.52364,1.65198 0.0522,0 -0.24737,-0.38907 -0.66564,-0.8646 z m 3.65552,-0.22897 c -0.10122,-0.35295 -0.34423,-0.93754 -0.54001,-1.29911 l -0.35597,-0.65738 -0.009,0.56483 c -0.008,0.50564 0.73474,2.03337 0.98771,2.03337 0.0552,0 0.0177,-0.28877 -0.0835,-0.64171 z m -3.17337,0.1119 c 0,-0.0429 -0.22876,-0.27163 -0.50835,-0.50835 l -0.50834,-0.43039 0.43039,0.50835 c 0.40447,0.47772 0.5863,0.61119 0.5863,0.43039 z m 3.04591,-1.87118 c -0.33426,-0.68318 -0.652,-1.19789 -0.70609,-1.1438 -0.0541,0.0541 0.15982,0.58394 0.47538,1.17744 0.31557,0.59348 0.58555,1.29268 0.59996,1.55376 0.0222,0.40242 0.0424,0.41227 0.13234,0.0647 0.0584,-0.22548 -0.16735,-0.96894 -0.50159,-1.65213 z"
         id="path27322-1"
         sodipodi:nodetypes="csssssscsssssssssssssssssssssssssssssscssssssssssssssssssssscssssscsssssssssssssscsssssssssssscsssssssssssssssscssscsscssssccssssssscssssccscscssssssssssssssssssssssscsssscsccsscssssscssssssscsssssssssssscscscsscsscssssssssssssssscsssssssscsssssssssssssssscssscsssscsssscssssssssssssssscsccsccsscssscssss" />
      <circle
         style="fill:none;stroke:#ff0000;stroke-width:0.1;stroke-dasharray:none"
         id="path788-8-1-8-1-9-2"
         cx="-509.12939"
         cy="-305.694"
         r="19.954653" />
      <ellipse
         style="fill:none;stroke:#ff00ff;stroke-width:0.1;stroke-dasharray:none;stroke-opacity:1"
         id="path1138-9-4-0-0-1-2"
         cx="-509.12939"
         cy="-305.694"
         rx="18.492125"
         ry="18.492126" />
      <circle
         style="fill:none;stroke:#0000ff;stroke-width:0.1;stroke-linecap:round;stroke-dasharray:none;stroke-opacity:1;paint-order:markers stroke fill"
         id="path13019-1-33"
         cx="-509.12939"
         cy="-320.70499"
         r="2" />
    </g>
  </g>
</svg>
