<?xml version="1.0" encoding="UTF-8" standalone="no"?>
<!-- Created with Inkscape (http://www.inkscape.org/) -->

<svg
   width="41.008999mm"
   height="41.008999mm"
   viewBox="0 0 41.008999 41.008999"
   version="1.1"
   id="svg1"
   sodipodi:docname="102.svg"
   inkscape:version="1.4.2 (f4327f4, 2025-05-13)"
   xmlns:inkscape="http://www.inkscape.org/namespaces/inkscape"
   xmlns:sodipodi="http://sodipodi.sourceforge.net/DTD/sodipodi-0.dtd"
   xmlns="http://www.w3.org/2000/svg"
   xmlns:svg="http://www.w3.org/2000/svg">
  <sodipodi:namedview
     id="namedview1"
     pagecolor="#ffffff"
     bordercolor="#000000"
     borderopacity="0.25"
     inkscape:showpageshadow="2"
     inkscape:pageopacity="0.0"
     inkscape:pagecheckerboard="0"
     inkscape:deskcolor="#d1d1d1"
     inkscape:document-units="mm"
     showguides="false"
     inkscape:zoom="4"
     inkscape:cx="114"
     inkscape:cy="65.25"
     inkscape:window-width="1050"
     inkscape:window-height="1081"
     inkscape:window-x="857"
     inkscape:window-y="0"
     inkscape:window-maximized="0"
     inkscape:current-layer="layer1" />
  <defs
     id="defs1" />
  <g
     inkscape:label="Layer 1"
     inkscape:groupmode="layer"
     id="layer1"
     transform="translate(-70.643761,-99.218767)">
    <g
       id="g6781"
       transform="translate(559.5257,425.41727)">
      <path
         style="fill:#000000;stroke-width:0.1;stroke-dasharray:none"
         d="m -466.85559,-293.30861 c 0.0105,-3.07343 -0.0602,-6.50462 -0.15708,-7.62484 l -0.17617,-2.03677 h -0.78493 c -1.02375,0 -2.10067,-0.38255 -2.10067,-0.74622 0,-0.15815 -0.28065,-0.43269 -0.62367,-0.61006 -0.36708,-0.18983 -0.68204,-0.55731 -0.76553,-0.89319 -0.078,-0.31387 -0.3226,-0.81639 -0.54352,-1.11671 -0.22093,-0.30031 -0.36998,-0.77034 -0.33121,-1.0445 0.0617,-0.43599 0.19711,-0.50654 1.08083,-0.56288 0.68174,-0.0434 1.18319,0.0489 1.54181,0.28383 0.615,0.40297 1.7891,0.54853 1.65747,0.20548 -0.0478,-0.1247 -0.20249,-0.78834 -0.34364,-1.47476 -0.30488,-1.48258 -0.37158,-1.61779 -0.6947,-1.40812 -0.13568,0.0881 -0.52871,0.18484 -0.8734,0.21511 -0.34468,0.0302 -1.2472,0.10817 -2.0056,0.17312 -2.23301,0.19125 -3.78568,-0.46143 -3.09046,-1.29912 0.13094,-0.15777 0.57908,-0.29535 0.99588,-0.30571 l 0.75779,-0.0189 -0.66578,-0.19262 c -0.7354,-0.21278 -1.52767,-1.07789 -1.52767,-1.66814 0,-0.4679 0.4383,-1.49408 0.7269,-1.70188 0.11723,-0.0844 0.58917,-0.15789 1.04875,-0.16328 0.76376,-0.009 0.88513,-0.0914 1.41173,-0.95881 0.48544,-0.79964 0.66632,-0.93956 1.14908,-0.88893 0.31511,0.0331 0.68335,-0.008 0.81829,-0.0915 0.13493,-0.0834 0.4882,-0.041 0.78502,0.0943 0.40231,0.1833 0.65889,0.18628 1.00793,0.0117 0.86072,-0.4305 1.764,-0.20872 2.34229,0.57511 0.29056,0.39384 0.5283,0.93282 0.5283,1.19774 0,0.28889 0.12542,0.48167 0.31335,0.48167 0.35497,0 0.44054,0.94124 0.10445,1.14895 -0.11489,0.071 -0.2089,0.42012 -0.2089,0.77582 0,0.92839 -1.47852,2.32892 -2.32711,2.20438 -0.32861,-0.0482 -0.5973,-0.0335 -0.59708,0.0328 0.002,0.77886 1.08552,4.31566 1.43543,4.68812 0.48436,0.51557 0.55509,1.06731 0.2423,1.89003 -0.12232,0.3217 -0.13236,1.00678 -0.0255,1.73702 0.0971,0.66319 0.18795,1.04457 0.20196,0.84751 0.034,-0.47909 1.24137,-1.83515 1.63384,-1.83515 0.17143,0 0.59222,-0.19976 0.9351,-0.44391 0.50359,-0.35858 0.8042,-0.41912 1.56409,-0.31497 1.33712,0.18328 1.42673,0.30235 0.76326,1.01414 -0.32361,0.34717 -0.83965,0.90179 -1.14678,1.23248 -0.44891,0.48337 -0.73564,0.60141 -1.4623,0.60204 -0.54282,4.2e-4 -1.18494,0.17212 -1.60747,0.42972 l -0.70358,0.42895 0.15008,3.00224 c 0.15744,3.14937 -0.0475,9.71679 -0.30325,9.71679 -0.082,0 -0.14046,-2.51463 -0.12995,-5.58807 z m 2.57668,-8.40821 c 0.89103,0 1.28599,-0.23595 1.82385,-1.08955 l 0.35746,-0.56731 -1.32495,0.43571 c -0.76447,0.2514 -1.59006,0.69996 -1.95165,1.06038 -0.4837,0.48214 -0.52259,0.57175 -0.1704,0.39272 0.25095,-0.12757 0.82051,-0.23195 1.26569,-0.23195 z m 0.83019,-1.57418 c 1.10157,-0.35692 1.31283,-0.48655 0.97019,-0.5953 -0.56575,-0.17956 -2.94962,1.06182 -3.39073,1.76571 -0.28563,0.45577 -0.24982,0.44515 0.34691,-0.10295 0.36598,-0.33614 1.29911,-0.8165 2.07363,-1.06746 z m -4.34054,-0.85311 c -0.21202,-0.41586 -0.5544,-0.94325 -0.76086,-1.172 -0.44559,-0.49369 -3.18543,-1.91183 -3.35876,-1.73849 -0.0662,0.0662 0.0844,0.39748 0.33476,0.7361 0.25034,0.33861 0.45517,0.73517 0.45517,0.88124 0,0.14607 0.43094,0.66691 0.95763,1.15741 0.81998,0.76364 1.08699,0.89183 1.85758,0.89183 h 0.89995 z m 0.625,-1.61948 c -0.19687,-0.18125 -0.22476,-0.14732 -0.12079,0.14698 0.0744,0.21046 0.14929,0.58648 0.1665,0.8356 0.022,0.31912 0.0577,0.2757 0.12079,-0.14698 0.0492,-0.32996 -0.0257,-0.70598 -0.1665,-0.8356 z m -0.73472,-0.38 c -0.27065,-0.60021 -0.47136,-0.79843 -0.73786,-0.72874 -0.20134,0.0527 -0.56315,-0.0423 -0.804,-0.211 -0.61217,-0.42878 -1.57283,-0.67685 -1.88174,-0.48594 -0.16751,0.10353 0.21762,0.38593 1.08554,0.796 0.73983,0.34955 1.6196,0.95275 1.95505,1.34044 0.73906,0.85415 0.92941,0.50093 0.38301,-0.71076 z m -3.63776,-4.11577 c 0,-0.25435 -0.5363,-0.44015 -1.27048,-0.44015 -0.33529,0 -0.60962,-0.094 -0.60962,-0.2089 0,-0.1149 -0.32902,-0.2089 -0.73115,-0.2089 -0.70182,0 -0.95756,0.25321 -0.52546,0.52027 0.59227,0.36604 3.13671,0.63995 3.13671,0.33768 z m 2.12999,-0.48272 c -0.24974,-0.24974 -1.93646,-0.76616 -2.56008,-0.78381 -0.17911,-0.005 -0.50813,0.13202 -0.73116,0.30465 -0.36179,0.28002 -0.36457,0.29955 -0.0258,0.18113 0.20882,-0.0729 0.58484,-0.0287 0.83561,0.0983 0.25075,0.12708 0.83194,0.26477 1.29152,0.30599 0.45959,0.0412 0.97191,0.0908 1.13851,0.11006 0.23612,0.0274 0.24746,-0.0204 0.0515,-0.21635 z m 3.10629,-1.16665 c 0.22221,-0.19026 0.40735,-0.58355 0.41141,-0.87398 0.004,-0.29042 0.14176,-0.76306 0.30595,-1.05029 0.55506,-0.97098 0.31788,-0.89498 -0.8356,0.26775 -0.63192,0.63698 -1.14895,1.24578 -1.14895,1.35287 0,0.10709 -0.19414,0.37041 -0.43143,0.58515 -0.40742,0.36872 -0.41033,0.39836 -0.0522,0.53269 0.37372,0.14018 0.94824,-0.12699 1.75085,-0.81419 z m -2.11277,0.2798 c 0.5662,-0.60269 0.44371,-1.15958 -0.25503,-1.15958 -0.60706,0 -0.98838,0.36537 -0.98838,0.94702 0,0.87392 0.53601,0.96555 1.24341,0.21256 z m -1.45232,-0.10368 c 0,-0.10862 -0.25851,-0.3217 -0.57447,-0.4735 -0.31596,-0.1518 -0.57822,-0.41544 -0.58281,-0.58587 -0.0112,-0.41598 -1.69104,-2.0773 -2.14096,-2.11734 -0.19663,-0.0175 -0.49851,-0.0473 -0.67085,-0.0662 -0.8462,-0.0929 -1.46743,0.97466 -1.14971,1.97573 0.19907,0.62721 1.29336,1.10244 2.51332,1.09148 0.58886,-0.006 1.20447,0.0751 1.36804,0.1786 0.3936,0.24911 1.23744,0.24714 1.23744,-0.003 z m 1.37575,-2.43566 c 0.0917,-0.48888 0.0282,-0.87168 -0.20337,-1.22506 -0.18523,-0.28269 -0.33677,-0.66132 -0.33677,-0.84141 0,-0.42031 -0.85085,-0.75553 -1.20118,-0.47322 -0.17732,0.14288 -0.35319,0.13401 -0.54799,-0.0276 -0.42391,-0.35182 -0.84468,-0.10189 -1.35392,0.80418 l -0.45345,0.80681 0.96527,0.96527 0.96528,0.96528 0.52444,-0.56588 0.52444,-0.56588 0.27022,0.50492 c 0.14863,0.27771 0.21343,0.60011 0.14401,0.71644 -0.0694,0.11634 0.0303,0.0846 0.2217,-0.0706 0.19135,-0.15516 0.40795,-0.6021 0.48132,-0.9932 z m 1.74254,0.39211 c 0.41473,-0.50313 0.64191,-1.01069 0.64191,-1.43412 0,-0.69242 -0.73835,-1.84098 -1.05691,-1.6441 -0.10332,0.0639 -0.36341,0.0221 -0.57797,-0.0927 -0.68004,-0.36395 -1.24046,0.78185 -0.66423,1.35808 0.26902,0.26903 0.3201,1.05769 0.12386,1.91265 -0.14389,0.62685 -0.11567,0.67893 0.3678,0.67893 0.35047,0 0.73591,-0.25752 1.16554,-0.77875 z"
         id="path27322-7-3"
         sodipodi:nodetypes="sccssssssccssssssccssscscsscssscsscssscssssscscsssssscsssssssssssssssscsssscssscssssssssssccscsssccccsssssccsssscssccscsccsssscscccccsssssssscssss" />
      <circle
         style="fill:none;stroke:#ff0000;stroke-width:0.1;stroke-dasharray:none"
         id="path788-8-1-8-1-9-2-9"
         cx="-468.37744"
         cy="-305.694"
         r="19.954653" />
      <ellipse
         style="fill:none;stroke:#ff00ff;stroke-width:0.1;stroke-dasharray:none;stroke-opacity:1"
         id="path1138-9-4-0-0-1-2-25"
         cx="-468.37744"
         cy="-305.694"
         rx="18.492125"
         ry="18.492126" />
      <circle
         style="fill:none;stroke:#0000ff;stroke-width:0.1;stroke-linecap:round;stroke-dasharray:none;stroke-opacity:1;paint-order:markers stroke fill"
         id="path13019-1-33-5"
         cx="-468.37744"
         cy="-320.70499"
         r="2" />
    </g>
  </g>
</svg>
