<?xml version="1.0" encoding="UTF-8" standalone="no"?>
<!-- Created with Inkscape (http://www.inkscape.org/) -->

<svg
   width="41.008999mm"
   height="41.008999mm"
   viewBox="0 0 41.008999 41.008999"
   version="1.1"
   id="svg1"
   sodipodi:docname="105.svg"
   inkscape:version="1.4.2 (f4327f4, 2025-05-13)"
   xmlns:inkscape="http://www.inkscape.org/namespaces/inkscape"
   xmlns:sodipodi="http://sodipodi.sourceforge.net/DTD/sodipodi-0.dtd"
   xmlns="http://www.w3.org/2000/svg"
   xmlns:svg="http://www.w3.org/2000/svg">
  <sodipodi:namedview
     id="namedview1"
     pagecolor="#ffffff"
     bordercolor="#000000"
     borderopacity="0.25"
     inkscape:showpageshadow="2"
     inkscape:pageopacity="0.0"
     inkscape:pagecheckerboard="0"
     inkscape:deskcolor="#d1d1d1"
     inkscape:document-units="mm"
     showguides="false"
     inkscape:zoom="4"
     inkscape:cx="114"
     inkscape:cy="45.25"
     inkscape:window-width="1050"
     inkscape:window-height="1081"
     inkscape:window-x="857"
     inkscape:window-y="0"
     inkscape:window-maximized="0"
     inkscape:current-layer="layer1" />
  <defs
     id="defs1" />
  <g
     inkscape:label="Layer 1"
     inkscape:groupmode="layer"
     id="layer1"
     transform="translate(-70.643761,-99.218767)">
    <g
       id="g6683"
       transform="translate(641.30317,375.82471)">
      <path
         style="fill:#000000;stroke-width:0.1;stroke-dasharray:none"
         d="m -549.47704,-237.21471 c -0.44926,-5.55698 -0.693,-6.6158 -2.21874,-9.63828 -0.73588,-1.45778 -1.57252,-2.15815 -3.22072,-2.69616 -0.48458,-0.15818 -1.37532,-0.61942 -1.97943,-1.02499 -0.6041,-0.40558 -1.2673,-0.73742 -1.47377,-0.73742 -0.20647,0 -0.43016,-0.0886 -0.49709,-0.19689 -0.0669,-0.10829 0.55816,-0.36349 1.38909,-0.56712 2.50251,-0.61328 3.93629,0.0135 4.84791,2.11908 0.28049,0.64787 0.84328,1.8718 1.25064,2.71981 l 0.74066,1.54185 -0.12659,-1.22133 c -0.0825,-0.79601 0.0293,-2.06164 0.32107,-3.63436 0.59332,-3.19821 0.77381,-5.17729 0.59244,-6.496 l -0.14905,-1.0838 -0.62983,0.32571 c -0.82354,0.42587 -1.31414,0.41105 -1.97934,-0.0598 -1.22483,-0.86691 -2.62142,-1.1812 -3.68335,-0.82889 -0.4529,0.15025 -0.49559,0.0958 -0.49559,-0.63219 0,-1.08625 0.59384,-1.6244 1.99811,-1.81068 l 1.13454,-0.15051 -0.69471,-0.2921 c -0.48233,-0.20281 -0.82572,-0.58826 -1.12324,-1.26086 -0.23569,-0.53281 -0.57836,-1.0931 -0.76148,-1.24508 -0.74555,-0.61874 -0.27769,-1.3237 0.87848,-1.3237 0.81642,0 1.17149,-0.2154 1.05971,-0.64284 -0.07,-0.26782 0.18296,-0.62065 0.78954,-1.10107 l 0.89261,-0.70696 1.43902,0.68679 c 0.79147,0.37773 1.55325,0.61619 1.69285,0.52991 0.13961,-0.0863 0.65927,-0.14285 1.15479,-0.12569 0.66262,0.0229 1.02926,0.17778 1.38598,0.58538 0.26884,0.30717 0.72377,0.5542 1.02063,0.5542 0.34778,0 0.82251,0.31759 1.35382,0.9057 l 0.81824,0.90568 -0.94819,0.96614 c -0.5215,0.53137 -1.12597,1.02255 -1.34326,1.09152 -0.41124,0.13052 -0.55819,0.75649 -0.17758,0.75649 0.31218,0 1.36574,1.73718 1.20818,1.99213 -0.0726,0.1175 -0.41313,0.35899 -0.75669,0.53665 -0.57734,0.29856 -0.68145,0.28447 -1.37478,-0.18604 -0.41257,-0.27998 -1.10649,-0.56688 -1.54204,-0.63756 l -0.7919,-0.12851 0.0213,3.0112 c 0.0139,1.96383 -0.10411,3.66243 -0.33931,4.88345 -0.52846,2.74346 -0.64673,4.17166 -0.43776,5.28632 l 0.18581,0.99118 0.40357,-1.21145 c 0.52634,-1.57996 1.32155,-3.16934 2.21144,-4.42004 1.19134,-1.67437 1.26727,-1.88494 0.92713,-2.57133 -0.55133,-1.11256 -0.4634,-2.39019 0.22376,-3.25141 0.79232,-0.99301 1.64673,-1.0252 2.99841,-0.11296 0.91216,0.61561 1.70188,1.82814 1.3923,2.13773 -0.0758,0.0758 -0.0171,0.28342 0.13057,0.46132 0.4855,0.585 0.40843,1.71409 -0.15301,2.24153 -0.32937,0.30943 -0.56575,0.39737 -0.65967,0.24541 -0.0805,-0.13025 -0.63301,-0.23683 -1.22778,-0.23683 -0.87076,0 -1.05671,0.0644 -0.95462,0.33039 0.19454,0.50696 -0.1074,0.39357 -0.65873,-0.24738 l -0.49699,-0.57778 -0.37857,0.57778 -0.37858,0.57778 0.72093,0.002 c 0.89137,0.002 2.77287,1.05608 3.56293,1.995 0.3246,0.38579 0.55102,0.74058 0.50315,0.78846 -0.0479,0.0479 -0.62188,-0.0251 -1.27557,-0.16216 -0.77758,-0.16305 -1.57635,-0.54543 -2.31018,-1.1059 -0.61692,-0.47109 -1.28376,-0.85659 -1.48187,-0.85659 -0.44811,0 -2.19181,3.55735 -2.58219,5.26796 -0.21577,0.94549 -0.21614,1.63114 -0.002,3.30395 0.14878,1.16097 0.23188,2.85424 0.18467,3.76282 -0.0472,0.90859 -0.10588,1.40418 -0.13036,1.10132 z m -3.44112,-12.39865 c -0.14455,-1.31682 -1.65347,-2.3669 -3.37944,-2.35179 l -0.82153,0.007 1.14222,0.39469 c 1.24,0.42849 2.93265,1.45689 2.93265,1.7818 0,0.11123 -0.49272,-0.12933 -1.09491,-0.53459 -0.93721,-0.63069 -3.03631,-1.34295 -3.26978,-1.10948 -0.13555,0.13555 1.85767,1.21339 2.9019,1.56919 0.56196,0.19148 1.07727,0.43798 1.14514,0.54779 0.23452,0.37947 0.49893,0.19787 0.44375,-0.30479 z m 9.07426,-0.0485 c -0.44755,-0.30412 -1.08531,-0.6562 -1.41723,-0.7824 -0.58976,-0.22422 -0.59459,-0.2196 -0.21213,0.20301 0.44314,0.48967 1.62625,1.11979 2.11663,1.12733 0.17956,0.002 -0.0397,-0.24382 -0.48727,-0.54794 z m 1.98204,-3.58568 c -0.004,-0.4495 -0.0517,-0.69339 -0.10645,-0.54196 -0.0547,0.15143 -0.2647,0.27541 -0.46662,0.27551 -0.2019,9e-5 -0.86269,0.19841 -1.46842,0.4407 l -1.10131,0.44051 0.88105,-0.123 c 0.48458,-0.0677 1.12865,-0.17489 1.43126,-0.23832 0.80951,-0.16971 0.36826,0.16213 -0.48396,0.36396 -0.67282,0.15934 -0.68283,0.17387 -0.13431,0.19473 0.326,0.0124 0.65696,0.12648 0.73546,0.25351 0.27246,0.44084 0.72043,-0.2284 0.7133,-1.06564 z m -1.98642,-0.77832 c 0.49884,-0.44908 0.71525,-0.2366 0.24152,0.23713 -0.19193,0.19193 -0.0615,0.19496 0.53319,0.0125 0.72493,-0.22248 0.77053,-0.28566 0.57582,-0.79779 -0.45677,-1.20139 -1.51573,-1.50956 -1.51573,-0.44108 0,0.41923 -0.19948,0.92115 -0.49559,1.24696 -0.55243,0.60785 -0.10824,0.43464 0.66079,-0.25768 z m -0.64364,-1.61635 c -0.32823,-1.18876 -0.81642,-1.49252 -1.44886,-0.90148 -0.36188,0.33818 -0.49559,0.71293 -0.49559,1.38897 0,1.11648 0.49763,1.69616 0.86569,1.00846 0.1296,-0.24215 0.23562,-0.59547 0.23562,-0.78515 0,-0.18968 0.0991,-0.34487 0.22027,-0.34487 0.31235,0 0.2709,0.44405 -0.11311,1.21145 l -0.33065,0.66078 0.64811,-0.70332 c 0.59872,-0.64974 0.63061,-0.7667 0.41852,-1.53484 z m -1.53288,1.58653 c -0.18484,-0.18671 0.25186,-1.88139 0.48482,-1.88139 0.10011,0 0.0938,0.27256 -0.014,0.60572 -0.10782,0.33315 -0.22656,0.78808 -0.26387,1.01094 -0.0373,0.22287 -0.13043,0.342 -0.20693,0.26473 z m 3.424,-1.74143 c -0.0634,-0.1653 -0.3329,-0.41159 -0.5988,-0.5473 -0.26591,-0.13569 -0.73128,-0.41559 -1.03414,-0.62197 -0.30581,-0.20839 -0.42824,-0.23927 -0.27533,-0.0694 0.15143,0.16818 0.27533,0.4811 0.27533,0.69535 0,0.25025 0.1145,0.34563 0.32018,0.26669 0.1761,-0.0676 0.54507,0.0346 0.81994,0.22719 0.60816,0.42597 0.63847,0.42901 0.49282,0.0495 z m -7.79712,-2.70007 c 0.44078,-0.45356 0.68933,-2.33968 0.32721,-2.48295 -0.12114,-0.048 -0.27688,0.24942 -0.34608,0.66079 -0.13915,0.8271 -0.8348,2.28363 -1.00798,2.11044 -0.0606,-0.0606 0.0459,-0.41177 0.2365,-0.78045 0.19066,-0.36867 0.34664,-0.97488 0.34664,-1.34712 0,-0.66416 -0.01,-0.67032 -0.52969,-0.32974 -0.61617,0.40373 -0.84375,1.11083 -0.65741,2.04253 0.10899,0.54498 0.22791,0.64985 0.68055,0.60016 0.30166,-0.0331 0.72927,-0.24626 0.95026,-0.47366 z m -1.94921,-0.53832 c -0.0672,-0.70461 0.0221,-1.01018 0.41803,-1.43171 0.5774,-0.6146 0.32632,-0.71245 -0.37353,-0.14556 -0.82637,0.66939 -1.04351,1.32452 -0.64208,1.93718 0.50736,0.77432 0.69497,0.66133 0.59758,-0.35991 z m 6.24608,0.22703 c 0.0776,-0.12553 -0.25181,-0.62112 -0.732,-1.10132 -0.68566,-0.68566 -1.03905,-0.87307 -1.64634,-0.87307 -0.81476,0 -1.19052,0.42283 -0.75914,0.85421 0.13591,0.13592 0.49986,0.25067 0.80878,0.25503 0.30892,0.004 0.85902,0.25166 1.22246,0.54957 0.73429,0.60188 0.90008,0.64917 1.10624,0.31558 z m -7.67142,-0.65281 c -0.31815,-0.84285 -1.18735,-0.8919 -2.06787,-0.11669 l -0.618,0.54409 0.67008,-0.24472 c 0.538,-0.19646 0.79853,-0.1752 1.32158,0.10789 0.90693,0.49082 0.97793,0.4611 0.69421,-0.29057 z m 8.04142,-0.43403 c -0.31207,-0.54374 -1.07683,-1.10781 -1.50197,-1.10781 -0.0634,0 0.26347,0.43607 0.72622,0.96905 0.92812,1.06897 1.35326,1.14502 0.77575,0.13876 z m -9.71344,-0.62301 c -0.2896,-0.0965 -0.90371,0.34419 -0.90371,0.64856 0,0.10911 0.26132,0.0271 0.58072,-0.18214 0.31941,-0.20928 0.46476,-0.41917 0.32299,-0.46642 z m 3.186,-0.49662 c 0.61639,-0.40632 0.6226,-0.42587 0.13587,-0.42726 -1.0268,-0.003 -1.72092,0.70294 -1.43191,1.45611 0.1162,0.30281 0.17521,0.2843 0.39341,-0.1234 0.14118,-0.26381 0.54737,-0.67125 0.90263,-0.90545 z m -1.82783,0.30786 c -0.14912,-0.0604 -0.44648,-0.064 -0.66079,-0.008 -0.21431,0.0559 -0.0923,0.10522 0.27113,0.10971 0.36344,0.004 0.53878,-0.0412 0.38966,-0.10154 z m 7.38952,-1.06696 c 0.35993,-0.30287 0.72922,-0.55066 0.82063,-0.55066 0.26693,0 1.62965,-1.4812 1.49063,-1.62022 -0.0695,-0.0695 -0.32915,-0.0179 -0.57698,0.11476 -0.24784,0.13265 -1.05253,0.38156 -1.78821,0.55316 -1.31963,0.3078 -2.9071,1.43223 -2.63762,1.86825 0.063,0.10195 0.54714,0.18536 1.07584,0.18536 0.70402,0 1.13644,-0.14736 1.61571,-0.55065 z m -6.2733,-0.23694 c 0.27481,-0.10546 0.23893,-0.26308 -0.21314,-0.93612 -0.61425,-0.91449 -1.67745,-1.58349 -2.50075,-1.57353 -0.46671,0.006 -0.49591,0.0406 -0.18515,0.22195 0.20292,0.1184 0.48643,0.5862 0.63003,1.03956 0.38675,1.22099 1.18929,1.66246 2.26901,1.24814 z m 5.92036,-1.52916 c 0.51907,-0.0855 1.285,-0.29593 1.70207,-0.46768 l 0.75831,-0.31224 -0.45767,-0.45767 c -0.3788,-0.3788 -0.61365,-0.43132 -1.36285,-0.30473 -0.77845,0.13151 -1.04917,0.34227 -1.9337,1.50535 -0.87121,1.14556 -0.92309,1.2637 -0.33923,0.77241 0.37913,-0.319 1.11401,-0.64995 1.63307,-0.73544 z m -4.4497,-0.10613 c 0.25756,0 -0.0603,-0.99032 -0.75921,-2.36594 -0.58239,-1.14615 -0.59053,-1.15194 -1.12665,-0.80066 -0.69425,0.4549 -0.68012,0.63611 0.12077,1.54827 0.36344,0.41393 0.66079,0.94094 0.66079,1.17112 0,0.23018 0.11094,0.69755 0.24652,1.03859 l 0.24652,0.62006 0.21236,-0.60572 c 0.1168,-0.33315 0.2963,-0.60572 0.3989,-0.60572 z m -1.26384,0.49559 c -0.32625,-0.86302 -0.97993,-1.77548 -1.33504,-1.86355 -0.2077,-0.0515 -0.62545,-0.0225 -0.92831,0.0645 -0.40493,0.11633 -0.44095,0.16401 -0.13613,0.18016 0.64847,0.0344 1.79672,0.83539 2.07595,1.44825 0.28546,0.62649 0.54826,0.76508 0.32353,0.17061 z m 5.00995,-1.63343 c 0.67157,-0.68856 0.74702,-0.86282 0.5125,-1.18355 -0.25251,-0.34532 -0.3483,-0.31804 -1.17073,0.33332 -0.94543,0.7488 -1.52157,1.54753 -1.11624,1.54753 0.1254,0 0.23321,0.27258 0.23956,0.60572 l 0.0116,0.60573 0.36791,-0.55066 c 0.20236,-0.30286 0.72231,-0.914 1.15544,-1.3581 z m -2.64777,-0.73411 c 0,-0.84862 -0.0574,-0.93201 -0.89547,-1.30178 -0.49251,-0.2173 -0.94056,-0.34999 -0.99568,-0.29486 -0.0551,0.0551 0.22394,0.80089 0.62014,1.65729 0.62108,1.34249 0.75829,1.50809 0.99568,1.20156 0.15143,-0.19554 0.27533,-0.76353 0.27533,-1.26221 z m 1.68507,-0.22199 c 0.70972,-0.46504 0.4048,-0.88321 -0.41636,-0.571 -0.68306,0.2597 -0.73078,0.33531 -0.91728,1.45348 l -0.14696,0.88105 0.45797,-0.69678 c 0.25189,-0.38324 0.71208,-0.86327 1.02263,-1.06675 z"
         id="path27322-3-8"
         sodipodi:nodetypes="csssssssscssscssssscsssssscsssssscssssssscssscssssssssssssccccssscssssccsccssssssssssscscssscssssscssssssssssssssscsssssssssssssssssssssssssssssssssssscsssscsssssssssssscssscccccsssssssssscssssscssssssssssscsssssssssssssscsssssssssssscss" />
      <circle
         style="fill:none;stroke:#ff0000;stroke-width:0.1;stroke-dasharray:none"
         id="path788-8-1-8-1-9-2-1-6"
         cx="-550.15491"
         cy="-256.10144"
         r="19.954653" />
      <ellipse
         style="fill:none;stroke:#ff00ff;stroke-width:0.1;stroke-dasharray:none;stroke-opacity:1"
         id="path1138-9-4-0-0-1-2-6-8"
         cx="-550.15491"
         cy="-256.10144"
         rx="18.492125"
         ry="18.492126" />
      <circle
         style="fill:none;stroke:#0000ff;stroke-width:0.1;stroke-linecap:round;stroke-dasharray:none;stroke-opacity:1;paint-order:markers stroke fill"
         id="path13019-1-33-7-6"
         cx="-550.15491"
         cy="-271.1124"
         r="2" />
    </g>
  </g>
</svg>
