<?xml version="1.0" encoding="UTF-8" standalone="no"?>
<!-- Created with Inkscape (http://www.inkscape.org/) -->

<svg
   width="41.008999mm"
   height="41.008999mm"
   viewBox="0 0 41.008999 41.008999"
   version="1.1"
   id="svg1"
   sodipodi:docname="106.svg"
   inkscape:version="1.4.2 (f4327f4, 2025-05-13)"
   xmlns:inkscape="http://www.inkscape.org/namespaces/inkscape"
   xmlns:sodipodi="http://sodipodi.sourceforge.net/DTD/sodipodi-0.dtd"
   xmlns="http://www.w3.org/2000/svg"
   xmlns:svg="http://www.w3.org/2000/svg">
  <sodipodi:namedview
     id="namedview1"
     pagecolor="#ffffff"
     bordercolor="#000000"
     borderopacity="0.25"
     inkscape:showpageshadow="2"
     inkscape:pageopacity="0.0"
     inkscape:pagecheckerboard="0"
     inkscape:deskcolor="#d1d1d1"
     inkscape:document-units="mm"
     showguides="false"
     inkscape:zoom="4"
     inkscape:cx="114"
     inkscape:cy="45.25"
     inkscape:window-width="1050"
     inkscape:window-height="1081"
     inkscape:window-x="857"
     inkscape:window-y="0"
     inkscape:window-maximized="0"
     inkscape:current-layer="layer1" />
  <defs
     id="defs1" />
  <g
     inkscape:label="Layer 1"
     inkscape:groupmode="layer"
     id="layer1"
     transform="translate(-70.643761,-99.218767)">
    <g
       id="g6677"
       transform="translate(599.10303,375.82471)">
      <path
         style="fill:#000000;stroke-width:0.1;stroke-dasharray:none"
         d="m -513.18026,-239.80679 c 0,-0.0994 0.40607,-0.72102 0.90239,-1.38127 1.6995,-2.26083 1.99286,-3.42217 1.38336,-5.47642 -0.45248,-1.52505 -1.06903,-2.66218 -2.36875,-4.36877 -0.85486,-1.12247 -1.12125,-1.63507 -1.12125,-2.15761 0,-2.325 3.22825,1.55509 3.52102,4.23198 0.16519,1.51053 0.53195,3.31198 0.69476,3.4126 0.19801,0.12238 1.16837,-2.98157 1.31783,-4.21542 0.15968,-1.31836 -0.37422,-2.74519 -1.89635,-5.06787 -1.94381,-2.96616 -2.16077,-3.41905 -1.80726,-3.77258 0.26967,-0.26966 0.394,-0.23639 1.14229,0.30567 1.69576,1.2284 2.83262,3.61025 2.86235,5.99688 0.0235,1.88761 0.35707,2.16703 0.37319,0.31262 0.0204,-2.34962 -0.4577,-5.11888 -1.26799,-7.3441 -0.77359,-2.12445 -1.05421,-3.71025 -0.73954,-4.1791 0.31478,-0.46903 0.90753,0.25153 1.69267,2.05763 l 0.66917,1.53931 0.43815,-0.94547 c 0.38199,-0.82427 0.43245,-1.24479 0.39363,-3.2804 -0.0366,-1.91931 0.0167,-2.42842 0.29956,-2.86009 0.73094,-1.11555 1.40941,-0.34732 1.41201,1.59879 7.6e-4,0.81777 -0.13042,1.48764 -0.39835,2.02917 l -0.39997,0.80842 1.27821,-0.87511 c 1.34135,-0.91831 2.18015,-1.10654 2.39827,-0.53817 0.20218,0.52688 -1.13427,1.53564 -2.76732,2.08879 -1.78198,0.60358 -2.07643,0.9897 -2.61972,3.43534 -0.36235,1.63113 -0.38661,2.05581 -0.19258,3.37151 0.12209,0.82791 0.22138,1.99453 0.22065,2.59248 -7.6e-4,0.59793 0.0526,1.03317 0.11863,0.9672 0.066,-0.066 0.46662,-1.61291 0.89032,-3.43763 0.42371,-1.82472 0.95665,-3.73882 1.18434,-4.25354 0.35069,-0.79278 0.46005,-0.89763 0.71534,-0.68574 0.67781,0.56252 0.2104,3.27256 -0.9347,5.41935 -1.81763,3.40761 -2.73297,5.30717 -2.94983,6.12159 l -0.21377,0.80282 1.3257,-1.40495 c 0.95555,-1.01266 1.54722,-1.88014 2.11906,-3.1068 1.12698,-2.41753 2.23102,-3.70755 3.51393,-4.10587 1.27048,-0.39445 -0.24144,2.59365 -2.32484,4.59474 -3.98203,3.82473 -4.61795,4.4831 -4.94948,5.12421 -0.35651,0.6894 -0.35427,0.68854 0.72371,-0.28149 1.78173,-1.6033 3.38946,-2.16023 3.38946,-1.17415 0,0.39361 -1.05193,1.14123 -3.35354,2.38339 -1.36165,0.73487 -1.47146,0.8463 -1.86529,1.89287 -0.23016,0.61161 -0.77456,1.55995 -1.20977,2.10742 -0.43521,0.54747 -0.89737,1.19862 -1.02701,1.447 -0.23588,0.4519 -0.57269,0.61116 -0.57269,0.27077 z m 5.01769,-6.3563 c 0,-0.0552 -0.18064,-0.004 -0.40141,0.11448 -0.22078,0.11815 -0.40142,0.25998 -0.40142,0.31518 0,0.0552 0.18064,0.004 0.40142,-0.11448 0.22077,-0.11816 0.40141,-0.25999 0.40141,-0.31518 z m 0.70113,-0.68835 c 0.069,0 0.064,0.0993 -0.011,0.22073 -0.0959,0.15514 -0.01,0.15304 0.28922,-0.007 0.48795,-0.26114 0.57391,-0.45868 0.12457,-0.28625 -0.16558,0.0636 -0.30107,0.0585 -0.30107,-0.0112 0,-0.13344 0.89982,-0.52453 1.39408,-0.60592 0.34728,-0.0572 0.54311,-0.51448 0.22032,-0.51448 -0.31976,0 -1.62265,0.71178 -2.21652,1.21089 -0.43406,0.36481 -0.44261,0.39281 -0.0633,0.20753 0.24111,-0.1178 0.49482,-0.21418 0.56378,-0.21418 z m -4.11368,-3.51375 c -0.49619,-1.30509 -1.78915,-3.10961 -2.22806,-3.10961 -0.41599,0 -0.12945,1.0119 0.53176,1.87785 0.39142,0.51263 0.75501,0.93206 0.80798,0.93206 0.16838,0 -0.5467,-1.28671 -0.97599,-1.7562 -0.22711,-0.24837 -0.32087,-0.45159 -0.20834,-0.45159 0.30067,0 0.74097,0.5573 1.46678,1.85654 0.68449,1.2253 0.92074,1.47912 0.60587,0.65095 z m 8.84972,-3.72341 c 0.83119,-1.39414 0.90449,-1.59399 0.58464,-1.59399 -0.58996,0 -3.07545,3.01326 -2.75216,3.33655 0.11677,0.11676 1.72048,-1.87001 2.00469,-2.48353 0.11507,-0.24839 0.28734,-0.4516 0.38284,-0.4516 0.27962,0 -0.3255,1.00742 -1.42454,2.3716 -0.56172,0.69725 -1.01756,1.37464 -1.01296,1.50531 0.0134,0.38186 1.36455,-1.25373 2.21749,-2.68434 z m -6.64634,-0.70511 c -0.22406,-0.65124 -0.63524,-1.51287 -0.91373,-1.91474 -0.5617,-0.81052 -1.95501,-1.89382 -2.05398,-1.59695 -0.0678,0.20352 0.098,0.49165 1.62526,2.82352 1.16972,1.78598 1.2348,1.86361 0.96291,1.14849 -0.33321,-0.87642 -0.84063,-1.80012 -1.37512,-2.50326 -0.27272,-0.35877 -0.4058,-0.6523 -0.29576,-0.6523 0.31991,0 1.61702,2.01814 1.97425,3.07167 0.17982,0.53033 0.36218,0.929 0.40525,0.88593 0.0431,-0.0431 -0.10502,-0.61113 -0.32908,-1.26236 z m 3.52846,-1.27914 c 0.16834,-0.80738 0.27183,-1.56918 0.22999,-1.69292 -0.0419,-0.12372 -0.23687,0.49565 -0.43339,1.37636 -0.19651,0.88073 -0.405,1.73876 -0.4633,1.90673 -0.0774,0.22311 -0.0432,0.24778 0.12731,0.0916 0.12832,-0.11759 0.37104,-0.87439 0.53939,-1.68176 z m 0.8313,-2.11858 c 0.0782,-0.98298 0.0481,-1.34467 -0.10025,-1.20425 -0.11662,0.11039 -0.26497,0.47166 -0.32967,0.80283 -0.098,0.50156 -0.083,0.53508 0.0898,0.20071 0.16048,-0.31052 0.18478,-0.18556 0.10729,0.55181 -0.0551,0.52427 -0.14913,1.20166 -0.20898,1.5053 l -0.10883,0.55209 0.21943,-0.50177 c 0.12068,-0.27597 0.26972,-1.13401 0.33119,-1.90672 z m -3.67074,-0.85301 c -0.0753,-0.41395 -0.3052,-1.18501 -0.51086,-1.71344 -0.37236,-0.95672 -0.48323,-1.52353 -0.25297,-1.29328 0.0665,0.0665 0.33278,0.69123 0.59167,1.38823 0.33163,0.89288 0.47377,1.11216 0.48115,0.74227 0.006,-0.28874 -0.32824,-1.19192 -0.7422,-2.00708 -0.70826,-1.39467 -0.75628,-1.44477 -0.81409,-0.84932 -0.0542,0.55871 1.08393,4.48527 1.30012,4.48527 0.0463,0 0.0225,-0.3387 -0.0528,-0.75265 z m 4.37805,-3.53011 c 1.15773,-0.51285 1.7327,-1.0452 1.44231,-1.33541 -0.20733,-0.20722 -1.11963,0.19097 -1.88818,0.82408 -0.5605,0.46174 -0.18578,0.30992 0.6331,-0.2565 0.59187,-0.4094 0.86159,-0.47537 0.66892,-0.16362 -0.0696,0.11268 -0.59431,0.4731 -1.16592,0.80094 -1.25082,0.71739 -1.12997,0.7683 0.30977,0.13051 z m -1.37648,-2.89716 c -0.003,-2.10373 -0.72149,-2.13808 -0.95288,-0.0455 -0.0826,0.74706 -0.062,0.97414 0.0638,0.70247 0.10222,-0.22077 0.1922,-0.5993 0.19996,-0.84115 0.008,-0.24186 0.10655,-0.49689 0.21954,-0.56673 0.13227,-0.0817 0.17099,0.14639 0.10871,0.64046 -0.0532,0.42209 -0.13894,1.21903 -0.19053,1.77097 l -0.0938,1.00353 0.32356,-0.70247 c 0.18956,-0.41155 0.32278,-1.22389 0.32166,-1.96153 z"
         id="path27322-3-1-6"
         sodipodi:nodetypes="sssssssssssssssscssscscsssssssssssscssssssssssssscscscscssssssccsssssssssssssssssssssssssssssssssssssscsssssscssssssssssssssssssscsss" />
      <circle
         style="fill:none;stroke:#ff0000;stroke-width:0.1;stroke-dasharray:none"
         id="path788-8-1-8-1-9-2-4"
         cx="-507.95477"
         cy="-256.10144"
         r="19.954653" />
      <ellipse
         style="fill:none;stroke:#ff00ff;stroke-width:0.1;stroke-dasharray:none;stroke-opacity:1"
         id="path1138-9-4-0-0-1-2-24"
         cx="-507.95477"
         cy="-256.10144"
         rx="18.492125"
         ry="18.492126" />
      <circle
         style="fill:none;stroke:#0000ff;stroke-width:0.1;stroke-linecap:round;stroke-dasharray:none;stroke-opacity:1;paint-order:markers stroke fill"
         id="path13019-1-33-9"
         cx="-507.95477"
         cy="-271.1124"
         r="2" />
    </g>
  </g>
</svg>
