<?xml version="1.0" encoding="UTF-8" standalone="no"?>
<!-- Created with Inkscape (http://www.inkscape.org/) -->

<svg
   width="41.008999mm"
   height="41.008999mm"
   viewBox="0 0 41.008999 41.008999"
   version="1.1"
   id="svg1"
   sodipodi:docname="107.svg"
   inkscape:version="1.4.2 (f4327f4, 2025-05-13)"
   xmlns:inkscape="http://www.inkscape.org/namespaces/inkscape"
   xmlns:sodipodi="http://sodipodi.sourceforge.net/DTD/sodipodi-0.dtd"
   xmlns="http://www.w3.org/2000/svg"
   xmlns:svg="http://www.w3.org/2000/svg">
  <sodipodi:namedview
     id="namedview1"
     pagecolor="#ffffff"
     bordercolor="#000000"
     borderopacity="0.25"
     inkscape:showpageshadow="2"
     inkscape:pageopacity="0.0"
     inkscape:pagecheckerboard="0"
     inkscape:deskcolor="#d1d1d1"
     inkscape:document-units="mm"
     showguides="false"
     inkscape:zoom="4"
     inkscape:cx="114"
     inkscape:cy="45.25"
     inkscape:window-width="1050"
     inkscape:window-height="1081"
     inkscape:window-x="857"
     inkscape:window-y="0"
     inkscape:window-maximized="0"
     inkscape:current-layer="layer1" />
  <defs
     id="defs1" />
  <g
     inkscape:label="Layer 1"
     inkscape:groupmode="layer"
     id="layer1"
     transform="translate(-70.643761,-99.218767)">
    <g
       id="g6671"
       transform="matrix(-1,0,0,1,-374.60647,375.82471)">
      <path
         style="fill:#000000;stroke-width:0.1;stroke-dasharray:none"
         d="m -464.48327,-239.00217 c -0.0887,-0.0902 -0.10046,-0.70089 -0.0263,-1.35706 0.1316,-1.16321 0.12127,-1.19649 -0.41308,-1.3306 -0.30143,-0.0757 -0.96056,-0.0337 -1.46473,0.0933 -0.50417,0.12695 -1.2043,0.23082 -1.55583,0.23082 -1.07903,0 -3.32942,-0.49718 -3.26439,-0.72121 0.12221,-0.4211 2.48085,-1.42547 3.55713,-1.51473 1.20068,-0.0996 1.94673,0.18539 2.84984,1.0885 l 0.54932,0.54933 0.15158,-1.20376 c 0.13116,-1.04149 -0.2149,-5.38756 -0.44902,-5.63931 -0.0422,-0.0454 -0.47494,0.10881 -0.96153,0.3428 -0.48659,0.23398 -1.30446,0.53174 -1.81748,0.66167 -0.51303,0.12994 -1.10529,0.29213 -1.31614,0.36043 -0.35956,0.11648 -0.36399,0.087 -0.0715,-0.47541 0.45504,-0.87492 1.16971,-1.45928 2.13131,-1.74268 0.72326,-0.21315 0.94776,-0.19777 1.53352,0.10515 l 0.68622,0.35485 -0.11343,-1.25083 c -0.0624,-0.68796 -0.17126,-1.34441 -0.24194,-1.45878 -0.0806,-0.13036 -0.46348,-0.0598 -1.02612,0.18909 -0.79596,0.35209 -1.00087,0.36696 -1.80978,0.13133 l -0.91219,-0.26571 1.00149,-0.5889 c 0.90081,-0.5297 1.07687,-0.56577 1.75137,-0.35876 0.41244,0.12658 0.77865,0.20138 0.81381,0.16622 0.0352,-0.0352 -0.14941,-0.38051 -0.41016,-0.76743 -0.6857,-1.01753 -1.89187,-1.63504 -3.20171,-1.63917 -0.94692,-0.003 -1.11609,-0.0692 -1.35841,-0.53169 l -0.27679,-0.52828 -0.58394,0.45933 c -0.53793,0.42313 -0.57408,0.42801 -0.45869,0.0619 0.0928,-0.29441 -0.0351,-0.48899 -0.49329,-0.75059 -0.81795,-0.46697 -1.12249,-1.14637 -0.84318,-1.88102 0.21228,-0.55832 0.50828,-0.66264 1.62391,-0.57227 0.25652,0.0208 0.4664,-0.0622 0.4664,-0.18433 0,-0.33739 1.1571,-0.26531 1.45237,0.0905 0.16225,0.19549 0.22062,0.65695 0.15582,1.23181 -0.0747,0.66208 -0.0241,0.94971 0.18052,1.02823 0.48311,0.18539 0.31465,0.47869 -0.35147,0.61191 -0.87056,0.17411 -0.56582,0.54656 0.4472,0.54656 1.01533,0 2.18468,0.47124 2.92216,1.17762 l 0.5573,0.53379 -0.32257,-1.21846 c -0.17742,-0.67014 -0.33492,-1.76745 -0.35001,-2.43846 -0.0242,-1.07778 -0.084,-1.24093 -0.51298,-1.39956 -0.26704,-0.0988 -0.5654,-0.13019 -0.66303,-0.0699 -0.0976,0.0603 -0.6081,0.002 -1.13438,-0.13124 -0.6768,-0.17043 -0.89226,-0.30555 -0.73613,-0.46168 0.32916,-0.32917 0.27424,-0.46149 -0.30021,-0.72322 -0.47872,-0.21813 -0.51554,-0.3302 -0.4541,-1.38254 0.0367,-0.62985 0.17184,-1.25016 0.30015,-1.37847 0.17287,-0.17287 0.16267,-0.34685 -0.0394,-0.67175 -0.35141,-0.56504 0.0545,-1.6155 0.81719,-2.11529 0.46144,-0.30234 0.57338,-0.30679 0.97699,-0.0388 0.42736,0.28375 0.47584,0.26263 0.77622,-0.33819 0.22187,-0.44381 0.57532,-0.72418 1.14951,-0.91184 0.7937,-0.25941 0.84907,-0.24784 1.29553,0.27066 0.25651,0.29791 0.46639,0.66022 0.46639,0.80512 0,0.17191 0.20582,0.23326 0.59229,0.17654 0.55385,-0.0813 0.60122,-0.031 0.72995,0.77397 0.0757,0.47349 0.0835,0.94851 0.0173,1.05561 -0.0662,0.10708 -0.0323,0.1947 0.0754,0.1947 0.10763,0 0.35365,0.24108 0.54671,0.53574 0.33181,0.5064 0.33034,0.5586 -0.0269,0.95327 -0.29056,0.32105 -0.5535,0.39398 -1.13795,0.31559 -0.61228,-0.0821 -0.77929,-0.0285 -0.85881,0.27555 -0.0656,0.2512 -0.33192,0.39983 -0.79569,0.4442 -0.65495,0.0627 -0.69832,0.11505 -0.71946,0.86903 l -0.0225,0.80233 0.32535,-0.5362 c 0.29424,-0.48494 0.62853,-0.68515 1.74066,-1.04253 0.64004,-0.20567 0.40343,0.15517 -0.82339,1.25569 l -1.19762,1.07434 0.0272,1.41306 c 0.0255,1.32257 0.8579,5.29481 0.89059,4.24959 0.0238,-0.76269 0.36378,-1.22021 1.56705,-2.10913 0.61872,-0.45707 1.16278,-0.83103 1.20901,-0.83103 0.17487,0 -0.55793,1.98554 -0.86421,2.34161 -0.17619,0.20483 -0.61917,0.51422 -0.9844,0.68754 -0.73496,0.34876 -0.88986,0.70726 -0.70636,1.63473 l 0.12304,0.62185 0.38869,-0.8014 c 0.21378,-0.44077 0.76936,-1.06414 1.23461,-1.38527 0.46524,-0.32112 1.01691,-0.7378 1.22592,-0.92596 0.54342,-0.48919 0.59287,-0.31059 0.24157,0.8724 -0.38493,1.29615 -0.95116,2.03193 -1.9597,2.54645 -0.63926,0.32612 -0.80431,0.54104 -0.9109,1.18609 -0.17358,1.05037 -0.1448,2.34995 0.0634,2.86065 0.15518,0.38075 0.18125,0.36781 0.31965,-0.15875 0.19168,-0.72928 0.89431,-1.28079 2.17271,-1.7054 0.55481,-0.18428 1.12062,-0.46986 1.25736,-0.63461 0.28213,-0.33996 1.02699,-0.40689 1.02699,-0.0923 0,0.114 -0.0888,0.20729 -0.19741,0.20729 -0.10859,0 -0.65655,0.45913 -1.21772,1.02029 -0.56116,0.56117 -1.47506,1.23743 -2.03089,1.50281 -0.92009,0.4393 -1.01642,0.5533 -1.07571,1.27313 l -0.0651,0.79062 0.83039,-0.8304 c 0.60507,-0.60507 1.20518,-0.94614 2.21162,-1.257 1.59078,-0.49135 2.00842,-0.52927 1.48914,-0.13523 -0.20165,0.153 -0.73375,0.8462 -1.18245,1.54044 -0.59547,0.9213 -1.18293,1.50224 -2.17492,2.15079 -0.75053,0.49068 -1.39794,1.07418 -1.44585,1.30312 -0.0477,0.22801 -0.16328,0.91331 -0.2568,1.52289 -0.0935,0.60958 -0.24255,1.03452 -0.33121,0.94431 z m -1.86338,-3.0192 c 0.88441,-0.2227 0.91921,-0.25517 0.45673,-0.42625 -0.57458,-0.21254 -4.13246,0.015 -4.13246,0.26428 0,0.41543 2.27163,0.51553 3.67573,0.16197 z m 5.32255,-2.48813 c 1.00599,-1.17526 0.93595,-1.37276 -0.19802,-0.55842 -0.86446,0.62082 -2.37446,2.24571 -2.37446,2.55514 0,0.27725 1.8654,-1.17064 2.57248,-1.99672 z m -4.59657,1.65861 c -0.33724,-0.33724 -2.32578,-0.46209 -2.95072,-0.18525 -0.43321,0.1919 -0.33113,0.21241 0.6224,0.12506 0.62734,-0.0575 1.42019,-0.0212 1.76191,0.0807 0.84538,0.25207 0.83926,0.25229 0.56641,-0.0206 z m 4.79362,-3.04006 c -0.0773,-0.13481 -1.01787,0.43968 -1.59616,0.9749 -0.32369,0.29958 -0.73196,0.82453 -0.90726,1.16655 -0.24913,0.48607 -0.006,0.32766 1.11201,-0.7255 0.78692,-0.74104 1.41304,-1.37821 1.39141,-1.41595 z m -0.87512,-1.29044 c 0.38457,-0.335 0.40058,-0.38087 0.0748,-0.21423 -0.70316,0.35966 -1.04764,0.63401 -0.80027,0.63733 0.12987,0.002 0.45635,-0.18865 0.72549,-0.4231 z m -3.91543,-1.57785 c 0.31352,-0.15766 0.57003,-0.31885 0.57003,-0.3582 0,-0.19796 -2.00225,0.33735 -2.27245,0.60755 -0.27921,0.2792 -0.23492,0.29814 0.40968,0.17517 0.39749,-0.0758 0.97923,-0.26686 1.29274,-0.42452 z m 0.004,-0.61925 c -0.14034,-0.0568 -0.42017,-0.0602 -0.62185,-0.008 -0.20168,0.0526 -0.0869,0.099 0.25516,0.10323 0.34202,0.004 0.50703,-0.0388 0.36669,-0.0956 z m 3.71188,-2.39266 c 0.31227,-0.48775 0.6182,-1.20248 0.5147,-1.20248 -0.0317,0 -0.50859,0.52238 -1.0598,1.16084 -0.91246,1.05691 -0.9466,1.13209 -0.38123,0.83973 0.34152,-0.17661 0.75837,-0.53575 0.92633,-0.79809 z m -0.39589,-0.65874 0.42503,-0.59632 -0.50111,0.32833 c -0.27561,0.18059 -0.67905,0.63549 -0.89653,1.01089 l -0.39543,0.68255 0.47151,-0.41456 c 0.25932,-0.22801 0.66276,-0.68292 0.89653,-1.01089 z m -3.57924,0.3986 0.518,-0.28668 -0.58579,-0.14702 c -0.68684,-0.17239 -1.77226,0.2843 -1.33513,0.56175 0.37749,0.2396 0.80993,0.20012 1.40292,-0.12805 z m 2.8612,-1.71965 c 0.46492,-0.402 0.80386,-1.29552 0.49143,-1.29552 -0.28359,0 -1.48687,1.15766 -1.48687,1.4305 0,0.34419 0.52335,0.27322 0.99544,-0.13498 z m -8.45036,-3.14745 c -0.11802,-0.22052 -0.21458,-0.64804 -0.21458,-0.95005 0,-0.34661 -0.0956,-0.51764 -0.2591,-0.46378 -0.40947,0.13485 -0.43117,0.98103 -0.0363,1.4173 0.46586,0.51477 0.78621,0.51259 0.51003,-0.003 z m 1.6564,-0.0237 c 0.32932,-0.61533 -0.12345,-1.98024 -0.54172,-1.6331 -0.15985,0.13266 -0.46113,0.19661 -0.66953,0.14211 -0.28781,-0.0753 -0.36697,0.006 -0.3293,0.33828 0.0273,0.24055 0.0574,0.5473 0.0668,0.68167 0.0244,0.34462 0.61353,0.89576 0.95757,0.89576 0.15885,0 0.39111,-0.19113 0.51612,-0.42472 z m 0.5885,-1.73794 c -0.27212,-0.30528 -0.3607,-0.0675 -0.22646,0.60803 0.12312,0.6196 0.12407,0.61998 0.26123,0.10364 0.0757,-0.28501 0.0601,-0.60527 -0.0348,-0.71167 z m 2.51533,-0.73931 c -0.17101,-0.11052 -0.59076,-0.20094 -0.93278,-0.20094 -0.47711,0 -0.54948,0.0468 -0.31092,0.20094 0.17101,0.11051 0.59075,0.20093 0.93277,0.20093 0.47711,0 0.54949,-0.0468 0.31093,-0.20093 z m 1.03641,-0.81919 c 0,-0.78106 -0.47166,-0.92582 -1.00773,-0.3093 l -0.43346,0.49853 0.56433,0.29568 c 0.69804,0.36573 0.87686,0.26684 0.87686,-0.48491 z m 1.86556,-0.35201 c 0,-0.14994 -0.79886,0.33267 -0.94675,0.57196 -0.0774,0.12522 0.10397,0.0674 0.40302,-0.1286 0.29905,-0.19594 0.54373,-0.39545 0.54373,-0.44336 z m -3.21642,-0.0686 c 0.41279,-0.45612 0.35436,-0.58176 -0.78199,-1.68137 -0.67937,-0.65742 -1.49623,-0.61299 -1.3172,0.0717 0.0589,0.22544 6.7e-4,0.58049 -0.12954,0.78899 -0.59692,0.95581 1.43075,1.70249 2.22873,0.82074 z m 1.67295,-0.85107 c 0.0766,-0.12394 0.31521,-0.17934 0.53024,-0.12311 0.21503,0.0562 0.45135,0.005 0.52515,-0.11487 0.0896,-0.14505 -0.21325,-0.18372 -0.91252,-0.11654 -0.57567,0.0553 -1.19563,0.0172 -1.37767,-0.0847 -0.20595,-0.11525 -0.33099,-0.10692 -0.33099,0.022 0,0.49787 1.30159,0.8446 1.56579,0.41712 z m 1.14194,-1.08824 c -0.15952,-0.15952 -0.31719,-0.12939 -0.55211,0.10553 -0.30023,0.30025 -0.28083,0.31965 0.22329,0.22329 0.39443,-0.0754 0.48834,-0.16931 0.32882,-0.32882 z m -2.46811,-0.42563 c -0.0683,-0.4652 -0.0249,-0.56079 0.19327,-0.42595 0.15471,0.0956 0.0751,-0.14765 -0.17695,-0.54058 -0.44433,-0.69274 -0.83122,-0.81224 -1.6551,-0.5112 -0.75661,0.27645 0.40817,2.15439 1.30389,2.10219 0.34476,-0.0201 0.40666,-0.13551 0.33489,-0.62446 z m 4.63716,0.48642 c 0.13129,-0.21243 -0.24203,-0.82449 -0.49738,-0.81544 -0.0715,0.002 -0.36328,0.19493 -0.64829,0.42756 -0.48073,0.39236 -0.48574,0.4139 -0.0693,0.29788 0.24692,-0.0688 0.50894,-0.028 0.58227,0.0906 0.17086,0.27647 0.46159,0.27616 0.63267,-6.3e-4 z m -1.09137,-0.9859 c 0.50123,-0.43567 0.41938,-1.90625 -0.10612,-1.90669 -0.24068,-2e-4 -0.36274,0.16053 -0.36274,0.47764 0,0.26287 -0.2332,0.79401 -0.51821,1.18033 -0.28502,0.38632 -0.51822,0.73269 -0.51822,0.76972 0,0.1704 1.17953,-0.23785 1.50529,-0.521 z m -1.66667,-0.24872 c 0.79134,0 1.00018,-1.83555 0.31421,-2.76161 -0.21389,-0.28874 -0.38355,-0.31085 -1.02186,-0.1332 -0.88561,0.24648 -1.09196,0.68001 -0.89071,1.87125 0.1623,0.96063 0.66207,1.5823 1.0002,1.24417 0.12134,-0.12133 0.39051,-0.22061 0.59816,-0.22061 z m -3.17044,-1.2437 c 0.51367,0 0.73447,-0.33287 0.32502,-0.48999 -0.51416,-0.1973 -0.93055,0.0863 -1.25024,0.85137 -0.41756,0.99936 -0.37832,1.1117 0.1091,0.31229 0.23802,-0.39037 0.58122,-0.67367 0.81612,-0.67367 z"
         id="path27322-3-0"
         sodipodi:nodetypes="sssssssscsssssssscsssscsssscscsssssssssssscsssscssssssssssssssssssssscssscssssssscssssssssssssssscsssssssssssssssssssssssssssssscssssssscccccsssssscsscssscssssssscsssccsssssssssssssssssssscsssssssssssssscsssssssssssssssscssssssssssssssssssssss" />
      <circle
         style="fill:none;stroke:#ff0000;stroke-width:0.1;stroke-dasharray:none"
         id="path788-8-1-8-1-9-2-9-1"
         cx="-465.75473"
         cy="-256.10144"
         r="19.954653" />
      <ellipse
         style="fill:none;stroke:#ff00ff;stroke-width:0.1;stroke-dasharray:none;stroke-opacity:1"
         id="path1138-9-4-0-0-1-2-25-6"
         cx="-465.75473"
         cy="-256.10144"
         rx="18.492125"
         ry="18.492126" />
      <circle
         style="fill:none;stroke:#0000ff;stroke-width:0.1;stroke-linecap:round;stroke-dasharray:none;stroke-opacity:1;paint-order:markers stroke fill"
         id="path13019-1-33-5-6"
         cx="-465.75473"
         cy="-271.1124"
         r="2" />
    </g>
  </g>
</svg>
