<?xml version="1.0" encoding="UTF-8" standalone="no"?>
<!-- Created with Inkscape (http://www.inkscape.org/) -->

<svg
   width="41.008999mm"
   height="41.008999mm"
   viewBox="0 0 41.008999 41.008999"
   version="1.1"
   id="svg1"
   sodipodi:docname="109.svg"
   inkscape:version="1.4.2 (f4327f4, 2025-05-13)"
   xmlns:inkscape="http://www.inkscape.org/namespaces/inkscape"
   xmlns:sodipodi="http://sodipodi.sourceforge.net/DTD/sodipodi-0.dtd"
   xmlns="http://www.w3.org/2000/svg"
   xmlns:svg="http://www.w3.org/2000/svg">
  <sodipodi:namedview
     id="namedview1"
     pagecolor="#ffffff"
     bordercolor="#000000"
     borderopacity="0.25"
     inkscape:showpageshadow="2"
     inkscape:pageopacity="0.0"
     inkscape:pagecheckerboard="0"
     inkscape:deskcolor="#d1d1d1"
     inkscape:document-units="mm"
     showguides="false"
     inkscape:zoom="4"
     inkscape:cx="114"
     inkscape:cy="45.25"
     inkscape:window-width="1050"
     inkscape:window-height="1081"
     inkscape:window-x="857"
     inkscape:window-y="0"
     inkscape:window-maximized="0"
     inkscape:current-layer="layer1" />
  <defs
     id="defs1" />
  <g
     inkscape:label="Layer 1"
     inkscape:groupmode="layer"
     id="layer1"
     transform="translate(-70.643761,-99.218767)">
    <g
       id="g6659"
       transform="translate(472.50303,375.3031)">
      <path
         style="fill:#000000;stroke-width:0.1;stroke-dasharray:none"
         d="m -375.11753,-238.9356 c -0.23855,-1.41932 -1.17871,-4.08134 -1.9326,-5.47209 -0.91518,-1.68826 -2.05716,-2.40456 -4.78163,-2.99918 -1.43377,-0.31292 -2.65749,-0.77646 -4.20648,-1.59339 -1.20147,-0.63365 -2.18652,-1.21759 -2.18899,-1.29764 -0.002,-0.0801 0.8369,-0.21564 1.86527,-0.3013 1.96193,-0.16343 4.13042,0.11223 5.68437,0.72261 0.94452,0.37099 2.52808,2.05114 2.73559,2.90245 0.0763,0.31323 0.3084,0.78867 0.51565,1.05653 0.37029,0.47855 0.37922,0.46418 0.51421,-0.82731 0.10672,-1.021 0.0399,-1.57487 -0.29946,-2.48187 -0.66483,-1.77689 -1.63568,-3.15473 -2.68622,-3.81232 -0.52179,-0.32661 -1.35066,-0.86124 -1.84193,-1.18807 -1.1278,-0.75028 -2.96524,-0.97501 -4.57364,-0.55938 -2.25616,0.58301 -3.17165,0.62368 -4.89636,0.21751 -0.90832,-0.2139 -1.65022,-0.4485 -1.64864,-0.52133 0.002,-0.0728 0.98494,-0.60363 2.18525,-1.17957 1.45476,-0.69801 2.4695,-1.04715 3.04348,-1.04715 1.35323,0 2.98873,0.58368 3.69181,1.31754 1.01724,1.06178 1.12646,0.77104 0.13393,-0.35653 -0.4953,-0.5627 -0.90055,-1.14143 -0.90055,-1.28609 0,-0.14464 -0.53925,-0.6344 -1.19835,-1.08833 -0.65909,-0.45393 -1.36224,-1.07547 -1.56255,-1.38119 -0.71242,-1.08728 -1.23198,-3.0828 -1.45182,-5.57607 -0.12262,-1.39076 -0.33031,-2.65801 -0.46152,-2.81612 -0.47426,-0.57144 0.0505,-0.54519 0.81897,0.041 1.0936,0.83413 1.70984,1.84464 2.88026,4.72306 0.79035,1.94368 1.03765,2.85755 1.13109,4.17961 0.1252,1.77166 0.83289,3.50277 1.17468,2.87349 0.44854,-0.82578 0.44344,-2.16866 -0.015,-3.95764 -0.67616,-2.6385 -0.54728,-4.07179 0.55951,-6.2228 0.55617,-1.08088 0.94296,-1.60846 1.07929,-1.47214 0.11685,0.11686 0.29691,1.5623 0.40013,3.21209 0.21836,3.49042 0.0347,4.8387 -0.92883,6.8164 -0.36421,0.7476 -0.6622,1.60412 -0.6622,1.90337 0,0.69048 1.23096,1.87457 2.90937,2.79862 l 1.25596,0.69147 -0.53948,-1.43329 c -0.71464,-1.89861 -0.71984,-4.09141 -0.0166,-6.99776 0.28711,-1.18662 0.58618,-2.22165 0.66461,-2.30007 0.26573,-0.26573 0.57711,0.28845 1.27294,2.26548 0.97463,2.76913 0.97814,4.32005 0.0145,6.3807 -0.96646,2.06662 -1.02819,2.73182 -0.34658,3.73489 0.30093,0.44287 0.67765,1.11556 0.83714,1.49488 l 0.28999,0.68968 0.35636,-0.68913 c 0.19599,-0.37902 0.35636,-1.02359 0.35636,-1.43239 0,-1.29556 0.66063,-2.76957 1.80008,-4.01631 1.29097,-1.41252 2.18298,-2.00079 3.36688,-2.22041 l 0.86811,-0.16104 -0.43843,0.55738 c -0.24114,0.30655 -0.58063,0.98821 -0.75441,1.5148 -0.2291,0.69416 -0.88394,1.53485 -2.38144,3.0573 -1.13599,1.15493 -2.25192,2.50721 -2.47985,3.00506 -0.23845,0.52086 -0.4758,1.70399 -0.55902,2.78655 -0.137,1.78241 -0.10732,1.97093 0.56411,3.5838 0.81745,1.96359 1.41511,4.5285 1.12323,4.82039 -0.11529,0.11529 -0.2562,-0.15731 -0.34047,-0.65872 z m -4.40625,-8.56246 c -1.44631,-1.18112 -3.1412,-1.8972 -5.22854,-2.20901 -1.122,-0.16761 -2.06253,-0.28221 -2.09007,-0.25467 -0.0276,0.0276 0.76464,0.45652 1.76041,0.95328 1.1179,0.5577 2.40081,1.00187 3.35366,1.16111 0.84875,0.14184 1.79118,0.39696 2.09431,0.56693 0.81686,0.45802 0.85218,0.38828 0.11023,-0.21764 z m 1.08275,0.26672 c -0.47968,-0.84862 -1.29185,-1.74832 -1.82901,-2.02609 -0.91874,-0.4751 -3.44203,-1.00901 -4.61343,-0.97617 -0.9143,0.0257 -0.85837,0.0493 0.48505,0.20519 1.73064,0.20082 3.7251,1.09677 5.09509,2.28881 0.97088,0.84477 1.09329,0.91693 0.8623,0.50826 z m 4.64828,-7.45151 0.61134,-0.98084 -0.57891,0.53262 c -0.63356,0.58291 -1.35851,1.9571 -1.5798,2.99463 -0.0996,0.46708 0.0172,0.33426 0.39749,-0.4521 0.29619,-0.61241 0.81364,-1.55484 1.14988,-2.09431 z m 2.22092,-0.75109 c 0.28455,-0.60114 0.47652,-1.13382 0.4266,-1.18375 -0.0499,-0.0499 -0.41785,0.0998 -0.81763,0.3328 -0.70663,0.41179 -1.8425,2.07852 -2.6769,3.928 l -0.39783,0.88182 1.47419,-1.43295 c 0.84042,-0.81691 1.69661,-1.90283 1.99157,-2.52592 z m -7.01235,-3.42633 0.0109,-3.63749 -0.40218,1.54318 c -0.47053,1.80543 -0.55189,4.63969 -0.16978,5.91504 0.24638,0.8224 0.2799,0.85157 0.40919,0.35625 0.0775,-0.29672 0.14578,-2.17636 0.15182,-4.17698 z m 1.58476,1.27846 c 0.0134,-1.00542 -0.33701,-2.68568 -0.83017,-3.98101 -0.36968,-0.97102 -0.37148,-0.95557 -0.3748,3.21086 l -0.003,4.18659 0.59872,-1.30029 c 0.32931,-0.71517 0.60362,-1.66744 0.60958,-2.11615 z m -10.0198,2.49152 c 1.88512,-0.3816 1.94281,-0.40989 1.15654,-0.56733 -0.46607,-0.0933 -1.81426,-0.0401 -3.08636,0.12184 -1.24233,0.15815 -2.4076,0.25903 -2.58947,0.22419 -0.63925,-0.12245 -0.0139,0.25215 0.70528,0.42248 1.11169,0.26327 1.66328,0.23418 3.81401,-0.20118 z m 2.06124,-1.21008 c -0.40654,-0.25794 -1.22114,-0.45665 -2.14211,-0.52255 -1.22306,-0.0875 -1.6498,-0.0228 -2.41112,0.36559 -0.50877,0.25956 -0.92509,0.49471 -0.92514,0.52255 -7e-5,0.0278 1.38014,0.0507 3.06714,0.0507 h 3.06725 z m -1.27887,-4.5991 c -0.58543,-1.24281 -1.23032,-2.95408 -1.43309,-3.80283 -0.20277,-0.84874 -0.5084,-1.79119 -0.67915,-2.09431 -0.28475,-0.50547 -0.30049,-0.4324 -0.18996,0.88182 0.30338,3.60725 0.85274,5.17774 2.23761,6.39676 0.54874,0.48301 1.02725,0.87821 1.06336,0.87821 0.0361,0 -0.41333,-1.01684 -0.99877,-2.25965 z m 1.10042,0.22015 c -0.25221,-1.54962 -1.90254,-5.45824 -2.70315,-6.40208 l -0.59991,-0.70725 0.4008,0.88181 c 0.22044,0.485 0.57159,1.52665 0.78034,2.31477 0.35219,1.32973 2.1,5.37737 2.25504,5.22233 0.0378,-0.0378 -0.0221,-0.62716 -0.13312,-1.30958 z m 3.41346,-0.6827 c 0.0859,-0.6878 0.0771,-2.01834 -0.0194,-2.95676 -0.17436,-1.6936 -0.17688,-1.69889 -0.34002,-0.7142 -0.23199,1.40028 -0.21754,5.9618 0.0171,5.38176 0.10238,-0.25314 0.25646,-1.02301 0.34239,-1.7108 z m -0.89635,-0.19881 c -0.086,-1.36624 -0.0216,-2.62122 0.1951,-3.80283 0.17787,-0.96999 0.30045,-1.78773 0.27238,-1.81719 -0.18224,-0.1913 -1.10093,2.20616 -1.18646,3.09627 -0.0894,0.93046 0.52253,4.56294 0.76867,4.56294 0.0432,0 0.0209,-0.91764 -0.0497,-2.03919 z"
         id="path27322"
         sodipodi:nodetypes="cssssssssscsssscssssssssscssscsssssscssssssscsssscsssssssccsssssssssscssscsssssssscssccssscccsscscssssssssssscsssssssscscssscccsscccsssscc" />
      <circle
         style="fill:none;stroke:#ff0000;stroke-width:0.1;stroke-dasharray:none"
         id="path788-8-1-8-1-9-2-56-3"
         cx="-381.35477"
         cy="-255.57983"
         r="19.954653" />
      <ellipse
         style="fill:none;stroke:#ff00ff;stroke-width:0.1;stroke-dasharray:none;stroke-opacity:1"
         id="path1138-9-4-0-0-1-2-4-8"
         cx="-381.35477"
         cy="-255.57983"
         rx="18.492125"
         ry="18.492126" />
      <circle
         style="fill:none;stroke:#0000ff;stroke-width:0.1;stroke-linecap:round;stroke-dasharray:none;stroke-opacity:1;paint-order:markers stroke fill"
         id="path13019-1-33-6-6"
         cx="-381.35477"
         cy="-270.59082"
         r="2" />
    </g>
  </g>
</svg>
