<?xml version="1.0" encoding="UTF-8" standalone="no"?>
<!-- Created with Inkscape (http://www.inkscape.org/) -->

<svg
   width="41.008999mm"
   height="41.008999mm"
   viewBox="0 0 41.008999 41.008999"
   version="1.1"
   id="svg1"
   sodipodi:docname="110.svg"
   inkscape:version="1.4.2 (f4327f4, 2025-05-13)"
   xmlns:inkscape="http://www.inkscape.org/namespaces/inkscape"
   xmlns:sodipodi="http://sodipodi.sourceforge.net/DTD/sodipodi-0.dtd"
   xmlns="http://www.w3.org/2000/svg"
   xmlns:svg="http://www.w3.org/2000/svg">
  <sodipodi:namedview
     id="namedview1"
     pagecolor="#ffffff"
     bordercolor="#000000"
     borderopacity="0.25"
     inkscape:showpageshadow="2"
     inkscape:pageopacity="0.0"
     inkscape:pagecheckerboard="0"
     inkscape:deskcolor="#d1d1d1"
     inkscape:document-units="mm"
     showguides="false"
     inkscape:zoom="4"
     inkscape:cx="114"
     inkscape:cy="65.25"
     inkscape:window-width="1050"
     inkscape:window-height="1081"
     inkscape:window-x="857"
     inkscape:window-y="0"
     inkscape:window-maximized="0"
     inkscape:current-layer="layer1" />
  <defs
     id="defs1" />
  <g
     inkscape:label="Layer 1"
     inkscape:groupmode="layer"
     id="layer1"
     transform="translate(-70.643761,-99.218767)">
    <g
       id="g6575"
       transform="translate(641.39057,325.35171)">
      <path
         style="fill:#000000;stroke-width:0.1;stroke-dasharray:none"
         d="m -557.02946,-189.79173 c 0,-0.23225 0.65833,-1.39378 1.46298,-2.58118 0.80463,-1.18741 1.84873,-2.91745 2.32021,-3.84455 0.84295,-1.65752 0.84645,-1.7199 0.20999,-3.73897 -0.47537,-1.5081 -0.75929,-1.94126 -1.06924,-1.63132 -0.57979,0.57979 -1.78669,0.53196 -1.78669,-0.0708 0,-0.27105 0.18108,-0.6739 0.40241,-0.89523 0.28383,-0.28382 0.0605,-0.74441 -0.75817,-1.56298 -1.33752,-1.33753 -1.49127,-2.34063 -0.4024,-2.62537 0.41699,-0.10904 0.75816,-0.41337 0.75816,-0.67626 0,-0.2629 0.23325,-0.67157 0.51832,-0.90816 0.3933,-0.32643 0.62859,-0.29734 0.97543,0.12063 0.25139,0.30292 0.67316,0.46784 0.93726,0.3665 0.2641,-0.10129 0.70984,0.0924 0.99054,0.4307 0.40431,0.48716 0.42261,0.94369 0.088,2.19698 -0.34585,1.29541 -0.32428,1.63693 0.11907,1.88515 0.69684,0.39023 0.69837,1.36626 0.003,1.63326 -0.42699,0.16384 -0.45653,0.44262 -0.14241,1.34361 0.21796,0.62526 0.51809,0.996 0.66696,0.82381 0.68582,-0.79322 3.02348,-8.70208 3.04129,-10.28944 0.003,-0.32029 -0.25487,-0.41673 -0.72066,-0.2689 -1.00473,0.31889 -1.347,-0.42014 -0.67183,-1.45058 0.50734,-0.77429 0.49274,-0.94976 -0.14843,-1.78397 -0.99049,-1.2887 -0.88593,-2.26601 0.37468,-3.50205 0.9413,-0.92298 1.15237,-0.98975 1.62737,-0.51475 0.30019,0.30019 0.87489,0.60857 1.27714,0.68533 0.90872,0.17336 1.14049,1.52956 0.51816,3.03196 -0.34901,0.84262 -0.35677,1.23046 -0.0311,1.55615 0.23861,0.2386 0.43382,0.75936 0.43382,1.15725 0,0.58238 -0.18479,0.67706 -0.9477,0.48559 -0.76307,-0.19152 -0.94771,-0.0969 -0.94771,0.48603 0,0.39813 -0.42647,2.36525 -0.9477,4.37139 -1.13504,4.36852 -1.12117,4.13187 -0.20881,3.5621 0.54868,-0.34266 0.63432,-0.58745 0.33265,-0.95092 -0.47528,-0.57268 0.21144,-1.62671 1.05982,-1.62671 0.31922,0 0.52221,-0.41259 0.52221,-1.06144 0,-1.42737 0.63507,-1.97122 2.30185,-1.97122 1.34454,0 1.40084,0.055 1.64961,1.61071 0.21961,1.37333 0.13669,1.70854 -0.56215,2.27449 -0.45093,0.36508 -1.14209,0.66378 -1.53598,0.66378 -0.44788,0 -0.71616,0.26663 -0.71616,0.71174 0,0.39146 -0.24212,0.91268 -0.53802,1.15827 -0.42443,0.35224 -0.61646,0.30637 -0.9095,-0.21727 -0.66097,-1.18107 -2.87432,0.93801 -4.37717,4.1907 -1.85369,4.01209 -5.16867,8.7748 -5.16867,7.42598 z m 12.93713,-14.65827 c 0.47176,-0.57188 0.44074,-0.58832 -0.33267,-0.17622 -0.88212,0.47003 -1.09931,0.8069 -0.52028,0.8069 0.18298,0 0.5668,-0.28381 0.85295,-0.63068 z m -11.40342,-0.85318 c -0.39794,-0.74356 -1.15462,-1.09495 -1.15462,-0.53617 0,0.37859 1.23348,1.67107 1.41835,1.4862 0.0877,-0.0877 -0.031,-0.51519 -0.26373,-0.95003 z m 1.31537,-0.76352 c -0.1407,-0.6404 -0.41278,-1.16436 -0.60471,-1.16436 -0.4377,0 -0.43703,0.0129 0.0739,1.47912 0.5197,1.49082 0.88034,1.27694 0.53075,-0.31476 z m 9.89286,-0.30029 c -0.16183,-0.16185 -0.53617,0.0367 -0.83186,0.441 -0.8351,1.14204 -0.63308,1.61243 0.29424,0.68511 0.45752,-0.45752 0.69945,-0.96428 0.53762,-1.12611 z m -8.72807,-0.3883 c -0.4077,-0.4077 -0.62414,0.16329 -0.33794,0.89154 0.26845,0.68313 0.28874,0.68431 0.42152,0.0246 0.0767,-0.38118 0.0391,-0.79345 -0.0835,-0.91612 z m 7.35857,0.23765 c 0,-0.20849 -0.17059,-0.27365 -0.37908,-0.1448 -0.20849,0.1288 -0.37908,0.40488 -0.37908,0.61338 0,0.20849 0.17059,0.27365 0.37908,0.14479 0.20849,-0.1288 0.37908,-0.40487 0.37908,-0.61337 z m -2.45484,-8.63232 c -0.14142,-0.64369 -0.41451,-1.26768 -0.60697,-1.38661 -0.39758,-0.24571 -0.45585,1.10017 -0.10445,2.41233 0.35541,1.32713 1.01827,0.37143 0.7114,-1.02572 z m -1.68288,0.29754 c -0.33396,-0.83486 -0.36512,-0.84437 -0.38722,-0.1182 -0.0129,0.43437 0.0897,0.90348 0.22869,1.04247 0.45276,0.45278 0.52977,0.004 0.15853,-0.92425 z m 3.00047,-0.17217 c 0,-0.50894 -0.17058,-0.92534 -0.37907,-0.92534 -0.2085,0 -0.37908,0.52184 -0.37908,1.15962 0,0.67655 0.15792,1.06201 0.37908,0.92533 0.20849,-0.12881 0.37907,-0.65068 0.37907,-1.15961 z"
         id="path1587-1-86-1-8"
         sodipodi:nodetypes="csssssssssssssssssscssssssssssssssssssssssssccsssssssssscsssssssssssssssssssssscssssssss" />
      <circle
         style="fill:none;stroke:#ff0000;stroke-width:0.1;stroke-dasharray:none"
         id="path788-8-1-8-1-9-2-1-4"
         cx="-550.24231"
         cy="-205.62845"
         r="19.954653" />
      <ellipse
         style="fill:none;stroke:#ff00ff;stroke-width:0.1;stroke-dasharray:none;stroke-opacity:1"
         id="path1138-9-4-0-0-1-2-6-7"
         cx="-550.24231"
         cy="-205.62845"
         rx="18.492125"
         ry="18.492126" />
      <circle
         style="fill:none;stroke:#0000ff;stroke-width:0.1;stroke-linecap:round;stroke-dasharray:none;stroke-opacity:1;paint-order:markers stroke fill"
         id="path13019-1-33-7-4"
         cx="-550.24231"
         cy="-220.63942"
         r="2" />
    </g>
  </g>
</svg>
