<?xml version="1.0" encoding="UTF-8" standalone="no"?>
<!-- Created with Inkscape (http://www.inkscape.org/) -->

<svg
   width="41.008999mm"
   height="41.008999mm"
   viewBox="0 0 41.008999 41.008999"
   version="1.1"
   id="svg1"
   sodipodi:docname="111.svg"
   inkscape:version="1.4.2 (f4327f4, 2025-05-13)"
   xmlns:inkscape="http://www.inkscape.org/namespaces/inkscape"
   xmlns:sodipodi="http://sodipodi.sourceforge.net/DTD/sodipodi-0.dtd"
   xmlns="http://www.w3.org/2000/svg"
   xmlns:svg="http://www.w3.org/2000/svg">
  <sodipodi:namedview
     id="namedview1"
     pagecolor="#ffffff"
     bordercolor="#000000"
     borderopacity="0.25"
     inkscape:showpageshadow="2"
     inkscape:pageopacity="0.0"
     inkscape:pagecheckerboard="0"
     inkscape:deskcolor="#d1d1d1"
     inkscape:document-units="mm"
     showguides="false"
     inkscape:zoom="4"
     inkscape:cx="114"
     inkscape:cy="65.25"
     inkscape:window-width="1050"
     inkscape:window-height="1081"
     inkscape:window-x="857"
     inkscape:window-y="0"
     inkscape:window-maximized="0"
     inkscape:current-layer="layer1" />
  <defs
     id="defs1" />
  <g
     inkscape:label="Layer 1"
     inkscape:groupmode="layer"
     id="layer1"
     transform="translate(-70.643761,-99.218767)">
    <g
       id="g10449"
       transform="translate(599.10306,326.0143)">
      <path
         style="fill:#000000;stroke-width:0.1;stroke-dasharray:none"
         d="m -508.2736,-189.41623 c -0.1458,-0.14802 -0.2651,-1.11746 -0.2651,-2.15431 0,-1.03685 -0.0938,-1.88517 -0.20845,-1.88517 -0.11462,0 -0.47926,0.33445 -0.81027,0.74323 -0.54592,0.67418 -0.64551,0.6906 -1.07199,0.17674 -0.37646,-0.45361 -0.38245,-0.67215 -0.0301,-1.09671 0.24202,-0.29161 0.69892,-0.53526 1.01532,-0.54144 0.47737,-0.009 0.45566,-0.10167 -0.12745,-0.54238 -0.62988,-0.47606 -0.74727,-0.4703 -1.13178,0.0556 -0.44255,0.60521 -1.52339,0.4595 -1.52339,-0.20539 0,-0.20468 0.3831,-0.54669 0.85135,-0.76005 0.6604,-0.30088 1.09647,-0.26562 1.94409,0.15723 l 1.09272,0.54512 v -1.33876 c 0,-1.26057 -0.0927,-1.37416 -1.58681,-1.94477 -2.20218,-0.84102 -3.0096,-1.97602 -3.00288,-4.22117 0.009,-3.10143 0.88159,-3.54459 1.73214,-0.87998 0.22498,0.70485 0.94252,1.89781 1.59453,2.65103 l 1.18547,1.36947 0.15073,-2.12082 c 0.083,-1.16644 0.14013,-3.46979 0.12719,-5.11855 l -0.0237,-2.99774 -1.40194,-0.22863 c -0.97021,-0.15823 -1.68888,-0.57236 -2.33371,-1.34476 -1.09384,-1.31024 -1.87563,-3.65154 -1.55577,-4.65929 0.20685,-0.65177 0.3586,-0.58981 1.87459,0.76551 0.90721,0.81108 2.06738,1.84806 2.57811,2.30438 l 0.92863,0.82969 0.22106,-1.38241 c 0.14399,-0.90047 0.72644,-1.96633 1.67071,-3.05736 0.79732,-0.92123 1.61774,-2.04386 1.82318,-2.49474 0.20543,-0.45088 0.58658,-0.81979 0.84699,-0.81979 0.35708,0 0.47346,0.71115 0.47346,2.89289 0,3.64026 -0.77681,5.45563 -2.82778,6.60834 l -1.41385,0.79462 v 2.53023 2.53021 l 0.75928,-0.75927 c 0.41759,-0.41759 0.77548,-1.20646 0.79531,-1.75301 0.0235,-0.64773 0.25177,-1.03517 0.65567,-1.11274 1.00295,-0.19264 1.15068,0.93352 0.24844,1.89391 -0.89359,0.95117 -0.67464,1.60091 0.32839,0.97451 0.79417,-0.49597 1.63229,-0.02 1.33394,0.75745 -0.17302,0.45087 -0.49551,0.53177 -1.42491,0.35741 -0.72506,-0.13603 -1.29566,-0.0727 -1.43936,0.15985 -0.14279,0.23105 0.0576,0.3852 0.50083,0.3852 0.8866,0 1.33692,0.94143 0.72993,1.52602 -0.33673,0.32429 -0.55517,0.23965 -0.97372,-0.37723 -0.62974,-0.92814 -1.34781,-1.03077 -1.65271,-0.2362 -0.11797,0.30751 -0.21456,2.38448 -0.21456,4.61548 v 4.05638 l 1.97636,-1.69937 c 1.08701,-0.93464 2.20452,-2.13677 2.48337,-2.6714 0.73205,-1.4035 1.19695,-1.19602 1.18802,0.53021 -0.012,2.30915 -1.09565,4.334 -2.77935,5.19295 -0.78449,0.40023 -1.74122,0.72768 -2.12604,0.72768 -0.54716,0 -0.7236,0.27698 -0.80938,1.27063 -0.0604,0.69885 -0.22901,1.14952 -0.37482,1.0015 z m 2.33469,-3.18506 c 0.30799,-0.11823 0.45677,-0.45718 0.34903,-0.79531 -0.15414,-0.4838 -0.1233,-0.49845 0.17211,-0.0819 0.28802,0.40614 0.46463,0.42054 0.88447,0.0721 0.66717,-0.55371 1.65011,-2.60944 1.65011,-3.45106 0,-0.53469 -0.10434,-0.49568 -0.61582,0.23015 -0.3387,0.48068 -0.57336,1.00508 -0.52145,1.16534 0.052,0.16025 -0.0756,0.18632 -0.28334,0.058 -0.46029,-0.28448 -1.47527,0.49164 -1.20816,0.92385 0.10514,0.17016 -0.0392,0.22098 -0.32068,0.11289 -0.47075,-0.18065 -1.64565,1.03096 -1.64565,1.69705 0,0.32454 0.78191,0.35951 1.53938,0.0688 z m -3.54018,-6.70699 c -0.11623,-0.30279 -0.43758,-0.46366 -0.7142,-0.35752 -0.27662,0.1062 -0.41253,0.0468 -0.30202,-0.13213 0.11049,-0.17882 -0.19935,-0.91496 -0.68857,-1.63589 -0.48924,-0.72092 -0.8996,-1.56694 -0.91193,-1.88002 -0.0143,-0.36414 -0.14148,-0.27216 -0.35287,0.25525 -0.41048,1.02411 -0.0653,2.53346 0.57924,2.53346 0.26444,0 0.39969,0.21136 0.30057,0.46968 -0.0999,0.26049 0.1805,0.64342 0.62966,0.85975 1.17344,0.56518 1.70449,0.52422 1.46012,-0.11262 z m 0.54926,-11.93916 c -0.22967,-0.50408 -1.25361,-1.54172 -2.2754,-2.30587 l -1.85781,-1.38935 0.30585,1.06642 c 0.16821,0.58654 0.54995,1.43897 0.84829,1.8943 0.64949,0.99123 1.95632,1.78843 1.95632,1.19339 0,-0.21513 0.25752,-0.13363 0.57228,0.18114 0.76517,0.76515 0.96278,0.48437 0.45047,-0.64003 z m 3.09415,0.3072 c 1.15684,-0.81028 1.89208,-2.7457 1.89208,-4.98064 v -2.03382 l -0.76042,0.67336 c -1.53185,1.35645 -2.77427,3.74685 -2.77427,5.33766 0,1.65169 0.38304,1.88568 1.64261,1.00344 z"
         id="path1587-1-86-3"
         sodipodi:nodetypes="sssssssssssscssssscsscssssscsssssscccssssssssssssscsssssssssssssssssssssssssssssssssscssssssscsss" />
      <circle
         style="fill:none;stroke:#ff0000;stroke-width:0.1;stroke-dasharray:none"
         id="path788-8-1-8-1-9-2-6"
         cx="-507.9548"
         cy="-206.29103"
         r="19.954653" />
      <ellipse
         style="fill:none;stroke:#ff00ff;stroke-width:0.1;stroke-dasharray:none;stroke-opacity:1"
         id="path1138-9-4-0-0-1-2-0"
         cx="-507.9548"
         cy="-206.29103"
         rx="18.492125"
         ry="18.492126" />
      <circle
         style="fill:none;stroke:#0000ff;stroke-width:0.1;stroke-linecap:round;stroke-dasharray:none;stroke-opacity:1;paint-order:markers stroke fill"
         id="path13019-1-33-3"
         cx="-507.9548"
         cy="-221.302"
         r="2" />
    </g>
  </g>
</svg>
