<?xml version="1.0" encoding="UTF-8" standalone="no"?>
<!-- Created with Inkscape (http://www.inkscape.org/) -->

<svg
   width="41.008999mm"
   height="41.008999mm"
   viewBox="0 0 41.008999 41.008999"
   version="1.1"
   id="svg1"
   sodipodi:docname="112.svg"
   inkscape:version="1.4.2 (f4327f4, 2025-05-13)"
   xmlns:inkscape="http://www.inkscape.org/namespaces/inkscape"
   xmlns:sodipodi="http://sodipodi.sourceforge.net/DTD/sodipodi-0.dtd"
   xmlns="http://www.w3.org/2000/svg"
   xmlns:svg="http://www.w3.org/2000/svg">
  <sodipodi:namedview
     id="namedview1"
     pagecolor="#ffffff"
     bordercolor="#000000"
     borderopacity="0.25"
     inkscape:showpageshadow="2"
     inkscape:pageopacity="0.0"
     inkscape:pagecheckerboard="0"
     inkscape:deskcolor="#d1d1d1"
     inkscape:document-units="mm"
     showguides="false"
     inkscape:zoom="4"
     inkscape:cx="114"
     inkscape:cy="65.25"
     inkscape:window-width="1050"
     inkscape:window-height="1081"
     inkscape:window-x="857"
     inkscape:window-y="0"
     inkscape:window-maximized="0"
     inkscape:current-layer="layer1" />
  <defs
     id="defs1" />
  <g
     inkscape:label="Layer 1"
     inkscape:groupmode="layer"
     id="layer1"
     transform="translate(-70.643761,-99.218767)">
    <g
       id="g6581"
       transform="translate(558.94257,326.62541)">
      <path
         style="fill:#000000;stroke-width:0.1;stroke-dasharray:none"
         d="m -465.80234,-193.6002 c 0,-3.6868 -0.28375,-3.95946 -3.51889,-3.3813 -2.20315,0.39374 -2.46138,0.37826 -3.08345,-0.18473 -0.90513,-0.81912 -0.91933,-2.72763 -0.0238,-3.20686 0.97968,-0.52431 1.70264,-0.42882 3.6629,0.4838 0.97789,0.45528 1.77799,0.7602 1.77799,0.67759 0,-0.47317 -1.87679,-4.82189 -2.28852,-5.30275 -0.27007,-0.3154 -0.93243,-0.6583 -1.47191,-0.76199 -0.53948,-0.10368 -1.43934,-0.27712 -1.99969,-0.38539 -1.25678,-0.24284 -1.8633,-1.21813 -1.35184,-2.17379 0.48905,-0.9138 2.02454,-0.87774 3.23705,0.076 0.8958,0.70464 0.94068,0.7101 0.69381,0.0846 -0.65859,-1.66853 -1.26176,-5.53428 -1.07848,-6.912 0.35676,-2.6817 1.88116,-4.02525 2.55529,-2.25214 0.3819,1.00445 -0.0786,2.8381 -1.01013,4.02236 -0.8126,1.03306 -0.83224,1.61003 -0.13471,3.95888 l 0.53754,1.81005 0.66641,-1.4885 c 0.82348,-1.83929 1.56584,-2.686 2.35501,-2.686 1.558,0 1.18116,1.74415 -0.87769,4.06232 l -1.51245,1.70294 0.71427,1.774 c 0.39286,0.97571 0.8727,2.26931 1.06631,2.87467 0.44774,1.39992 0.78474,1.39706 1.04849,-0.009 0.28817,-1.53605 2.07545,-3.63176 3.09728,-3.63176 0.97238,0 1.65042,1.09273 1.37038,2.2085 -0.10918,0.43493 -1.11005,1.68831 -2.2242,2.78531 -1.96534,1.9351 -2.01581,2.02915 -1.69298,3.15479 0.37122,1.29438 0.44301,4.03923 0.12723,4.86229 -0.4343,1.1318 -0.6411,0.43438 -0.6411,-2.16211 z m -3.59832,-3.94849 c 0.58208,-0.11648 1.05832,-0.34501 1.05832,-0.50799 0,-0.38374 -3.28982,-0.38831 -3.52677,-0.005 -0.42573,0.68882 0.56231,0.89412 2.46845,0.5129 z m -0.44209,-2.03611 c -1.40404,-0.49405 -2.56324,-0.3479 -2.56402,0.32327 -3.2e-4,0.27665 0.60192,0.36102 1.94733,0.27282 l 1.94777,-0.12774 z m 7.42097,-1.91028 c 0.28274,-0.40368 0.50803,-0.96675 0.50063,-1.25126 -0.0145,-0.55501 -3.03453,2.52477 -3.03453,3.09449 0,0.44696 1.89562,-0.93196 2.5339,-1.84323 z m -0.31794,-2.19988 c -0.25506,-0.27149 -1.13802,0.40431 -1.64122,1.25617 -0.90832,1.53767 -0.67414,1.60381 0.57675,0.16289 0.63333,-0.72953 1.11233,-1.3681 1.06447,-1.41906 z m -9.32792,-2.786 c -0.27939,-0.18056 -0.73659,-0.3283 -1.01599,-0.3283 -0.45156,0 -0.45156,0.0365 0,0.3283 0.2794,0.18056 0.7366,0.32829 1.01599,0.32829 0.45155,0 0.45155,-0.0365 0,-0.32829 z m 0.67732,-0.84667 c -0.46566,-0.2662 -1.15145,-0.48252 -1.52398,-0.48071 -0.51548,0.003 -0.43455,0.11443 0.33866,0.46849 1.349,0.61768 2.26094,0.6271 1.18532,0.0128 z m 5.0026,-2.05293 c -0.11354,-0.11353 -0.38897,0.14956 -0.61207,0.5846 -0.38781,0.7562 -0.37874,0.76527 0.2064,0.2064 0.33664,-0.32152 0.51918,-0.67747 0.40567,-0.791 z m -2.9996,-5.90569 c -0.0128,-0.33495 -0.11776,-0.27727 -0.30967,0.16933 -0.40007,0.93103 -0.40007,1.46573 0,0.84666 0.18057,-0.27939 0.31992,-0.73659 0.30967,-1.01599 z"
         id="path1587-1-86-1-3"
         sodipodi:nodetypes="cssssssssssssssscssscsssssssscccscccssscsssssssssssssscssccsssscssc" />
      <circle
         style="fill:none;stroke:#ff0000;stroke-width:0.1;stroke-dasharray:none"
         id="path788-8-1-8-1-9-2-9-3"
         cx="-467.79431"
         cy="-206.90215"
         r="19.954653" />
      <ellipse
         style="fill:none;stroke:#ff00ff;stroke-width:0.1;stroke-dasharray:none;stroke-opacity:1"
         id="path1138-9-4-0-0-1-2-25-0"
         cx="-467.79431"
         cy="-206.90215"
         rx="18.492125"
         ry="18.492126" />
      <circle
         style="fill:none;stroke:#0000fe;stroke-width:0.1;stroke-linecap:round;stroke-dasharray:none;stroke-opacity:1;paint-order:markers stroke fill"
         id="path13019-1-33-5-7"
         cx="-467.79431"
         cy="-221.91312"
         r="2" />
    </g>
  </g>
</svg>
