<?xml version="1.0" encoding="UTF-8" standalone="no"?>
<!-- Created with Inkscape (http://www.inkscape.org/) -->

<svg
   width="41.008999mm"
   height="41.008999mm"
   viewBox="0 0 41.008999 41.008999"
   version="1.1"
   id="svg1"
   sodipodi:docname="113.svg"
   inkscape:version="1.4.2 (f4327f4, 2025-05-13)"
   xmlns:inkscape="http://www.inkscape.org/namespaces/inkscape"
   xmlns:sodipodi="http://sodipodi.sourceforge.net/DTD/sodipodi-0.dtd"
   xmlns="http://www.w3.org/2000/svg"
   xmlns:svg="http://www.w3.org/2000/svg">
  <sodipodi:namedview
     id="namedview1"
     pagecolor="#ffffff"
     bordercolor="#000000"
     borderopacity="0.25"
     inkscape:showpageshadow="2"
     inkscape:pageopacity="0.0"
     inkscape:pagecheckerboard="0"
     inkscape:deskcolor="#d1d1d1"
     inkscape:document-units="mm"
     showguides="false"
     inkscape:zoom="2"
     inkscape:cx="57.5"
     inkscape:cy="36.5"
     inkscape:window-width="1050"
     inkscape:window-height="1081"
     inkscape:window-x="857"
     inkscape:window-y="0"
     inkscape:window-maximized="0"
     inkscape:current-layer="layer1" />
  <defs
     id="defs1" />
  <g
     inkscape:label="Layer 1"
     inkscape:groupmode="layer"
     id="layer1"
     transform="translate(-70.643761,-99.218767)">
    <g
       id="g6587"
       transform="translate(517.95319,326.62541)">
      <path
         style="fill:#000000;stroke-width:0.1;stroke-dasharray:none"
         d="m -426.65682,-193.53845 c 0.007,-3.09873 -0.0553,-3.87275 -0.3878,-4.82798 -0.49825,-1.4316 -2.02623,-3.13928 -2.81605,-3.14723 -0.30002,-0.003 -1.20305,-0.18238 -2.00673,-0.39858 l -1.46124,-0.39309 0.7761,-0.33204 c 0.96691,-0.41366 1.63508,-0.42157 2.15866,-0.0256 0.53014,0.40098 0.84021,0.40502 0.50959,0.006 -0.14293,-0.17221 -0.3729,-0.31312 -0.51105,-0.31312 -0.43736,0 -1.15894,-0.94457 -1.15894,-1.51708 0,-0.43127 0.1699,-0.63146 0.78281,-0.9224 0.87759,-0.41657 1.44386,-0.39069 1.98311,0.0906 0.50156,0.4477 0.46208,0.70843 -0.2413,1.59352 -0.54357,0.684 -0.58205,0.82835 -0.37034,1.38925 0.12994,0.34427 0.58328,0.96478 1.0074,1.37893 l 0.77114,0.753 0.17327,-1.01761 c 0.0953,-0.55969 0.16342,-2.43603 0.15141,-4.16965 -0.0185,-2.67346 -0.0808,-3.2519 -0.41048,-3.80991 -0.21375,-0.36185 -0.57252,-0.71627 -0.79725,-0.7876 -0.22476,-0.0713 -0.8385,-0.52853 -1.3639,-1.016 -0.52539,-0.48748 -1.26054,-1.04198 -1.63368,-1.23226 -1.32218,-0.67421 -0.71783,-1.02995 1.01022,-0.59465 1.38876,0.34983 2.17998,1.01495 2.48303,2.08727 0.12147,0.42983 0.35139,1.01489 0.51093,1.30013 l 0.29006,0.51865 0.14038,-0.74832 c 0.0879,-0.4684 0.0168,-1.16463 -0.1901,-1.86121 -0.18177,-0.61208 -0.33049,-1.38094 -0.33049,-1.70858 0,-0.53745 -0.0422,-0.57312 -0.4315,-0.36477 -0.33565,0.17964 -0.54429,0.15702 -0.93936,-0.10184 -0.27934,-0.18303 -0.50788,-0.43087 -0.50788,-0.55077 0,-0.1199 -0.17996,-0.16089 -0.39993,-0.0911 -0.21995,0.0698 -0.46392,0.0234 -0.54214,-0.10319 -0.0782,-0.12656 -0.36794,-0.31593 -0.64381,-0.42082 -0.56038,-0.21306 -0.67005,-0.77574 -0.1873,-0.96099 0.17287,-0.0663 0.37246,-0.48434 0.44355,-0.92888 0.14099,-0.8817 0.53255,-1.34387 0.98989,-1.16837 0.1605,0.0616 0.49114,-0.0276 0.73476,-0.19827 0.35072,-0.24565 0.73599,-0.27497 1.85051,-0.14081 l 1.40757,0.16943 0.0685,0.73062 c 0.0377,0.40184 0.20434,0.88142 0.37035,1.06573 0.166,0.18432 0.24619,0.48012 0.17819,0.65733 -0.068,0.17721 -0.0233,0.3842 0.0994,0.46 0.28199,0.17428 0.29361,0.94817 0.0142,0.94817 -0.11482,0 -0.20875,0.13649 -0.20875,0.30333 0,0.35857 -1.34244,1.04721 -1.65949,0.85127 -0.3049,-0.18844 -0.27409,0.25493 0.10685,1.53768 0.20624,0.69448 0.26987,1.34139 0.17312,1.76006 -0.0841,0.36409 -0.16043,2.3156 -0.16954,4.3367 -0.0166,3.66956 -0.016,3.67382 0.37187,3.03597 0.21364,-0.3513 0.83177,-1.1595 1.37363,-1.79598 1.22781,-1.44223 2.00281,-3.80396 0.96586,-2.94338 -0.43422,0.36038 -0.7448,0.0959 -0.7448,-0.63412 0,-0.34171 -0.14702,-0.84565 -0.32671,-1.1199 -0.29679,-0.45295 -0.2963,-0.55743 0.006,-1.14077 0.18263,-0.35318 0.41687,-0.64215 0.52053,-0.64215 0.10367,0 0.34238,-0.15389 0.53047,-0.34198 0.49964,-0.49964 1.9281,-0.0581 2.10607,0.65101 0.0694,0.27623 0.0786,0.57906 0.0205,0.67296 -0.0581,0.0939 0.012,0.33141 0.15556,0.52778 0.23939,0.32738 0.31591,0.30344 0.92086,-0.28801 l 0.65978,-0.64506 -0.002,0.59883 c -7.9e-4,0.32936 -0.22729,1.08261 -0.5026,1.6739 -0.39859,0.85605 -0.77027,1.25525 -1.82451,1.95958 -0.72817,0.48649 -1.46485,1.04537 -1.63707,1.24196 -0.87724,1.0014 -2.08748,2.56286 -2.08748,2.69327 0,0.0814 0.32872,0.26694 0.73048,0.41222 0.80783,0.29211 1.09957,0.71495 1.45911,2.11477 l 0.24158,0.94055 0.37961,-1.54239 c 0.37756,-1.53407 0.37728,-1.54422 -0.0518,-1.87874 -0.48473,-0.37788 -0.59039,-1.65831 -0.18091,-2.1923 0.48886,-0.63748 1.29335,-0.62349 2.03068,0.0353 0.63139,0.56415 0.6711,0.67146 0.4891,1.3217 -0.13681,0.48887 -0.40333,0.80453 -0.86186,1.02083 -0.54264,0.25597 -0.71005,0.50362 -0.91718,1.35687 -0.37741,1.55456 -0.67158,2.15337 -1.82451,3.71391 -1.16557,1.57766 -1.20496,1.70684 -1.39719,4.58354 -0.0748,1.11925 -0.20135,2.07539 -0.28123,2.12476 -0.0799,0.0494 -0.14157,-1.57091 -0.1371,-3.60061 z m 1.34973,-3.07409 c 0.78689,-1.09573 0.76033,-1.50355 -0.17456,-2.67996 -0.33921,-0.42684 -0.67758,-1.05301 -0.75192,-1.39149 -0.18453,-0.84015 -0.44352,-0.77277 -0.61868,0.16096 -0.0995,0.53021 0.009,1.42323 0.34207,2.81634 0.26825,1.12198 0.49529,2.04075 0.50453,2.04172 0.009,7.9e-4 0.3236,-0.42544 0.69856,-0.94757 z m 0.78411,-2.63853 c -0.0667,-0.16652 -0.11611,-0.11706 -0.12612,0.12612 -0.009,0.22005 0.0402,0.34334 0.10963,0.27398 0.0694,-0.0694 0.0768,-0.24941 0.0165,-0.4001 z m -0.8941,-0.98373 c -0.18469,-0.37023 -0.3799,-0.62905 -0.43379,-0.57515 -0.0539,0.0539 0.0568,0.39725 0.24592,0.76303 0.18915,0.36577 0.38436,0.62459 0.4338,0.57515 0.0495,-0.0495 -0.0612,-0.3928 -0.24593,-0.76303 z m 0.63845,-0.0855 c -0.0734,-0.29227 -0.26223,-0.58084 -0.4197,-0.64128 -0.22415,-0.086 -0.21194,0.0462 0.0563,0.60853 0.38708,0.81171 0.56293,0.82755 0.36345,0.0327 z m -6.1494,-1.91848 c -0.40184,-0.15474 -0.87152,-0.28135 -1.04374,-0.28135 -0.17222,0 0.0156,0.12661 0.41749,0.28135 0.40184,0.15475 0.87152,0.28137 1.04375,0.28137 0.17221,0 -0.0156,-0.12662 -0.4175,-0.28137 z m 9.08055,0.10438 c 0.22563,-0.36507 -0.10896,-0.67356 -0.43608,-0.40207 -0.16199,0.13444 -0.29454,0.32688 -0.29454,0.42763 0,0.25167 0.57165,0.23167 0.73062,-0.0256 z m -1.10755,-1.3512 c -0.30009,-0.65863 -0.66681,-0.6847 -0.66681,-0.0474 0,0.59801 0.41999,1.06212 0.70408,0.77804 0.13162,-0.13162 0.11849,-0.38875 -0.0372,-0.73062 z m 0.79443,0.2154 c 0,-0.16544 -0.0883,-0.35534 -0.19612,-0.422 -0.10786,-0.0667 -0.18181,0.0687 -0.16432,0.3008 0.0359,0.47668 0.36044,0.58581 0.36044,0.1212 z m 0.716,0.11571 c 0.063,-0.1018 -0.0202,-0.29678 -0.18465,-0.43328 -0.24402,-0.20252 -0.29304,-0.16847 -0.2664,0.1851 0.0339,0.4494 0.25238,0.56964 0.45105,0.24818 z m -8.12622,-0.88083 c 0.13134,-0.53225 -0.28959,-1.23031 -0.74188,-1.23031 -0.39085,0 -0.45456,1.04378 -0.097,1.58945 0.3869,0.59048 0.63029,0.48628 0.8389,-0.35914 z m 0.69768,-0.72115 c -0.0394,-0.20361 -0.1983,-0.41232 -0.35297,-0.46382 -0.225,-0.075 -0.2335,-0.005 -0.0425,0.35232 0.13127,0.24528 0.17357,0.56144 0.094,0.70258 -0.10951,0.19428 -0.0817,0.19862 0.1143,0.0178 0.14242,-0.13131 0.22665,-0.40534 0.18718,-0.60894 z m -2.05487,-0.1163 c 0,-0.11481 -0.0939,-0.15069 -0.20874,-0.0797 -0.11482,0.0709 -0.20875,0.22294 -0.20875,0.33776 0,0.11481 0.0939,0.15069 0.20875,0.0797 0.11481,-0.0709 0.20874,-0.22295 0.20874,-0.33776 z m 8.29074,-2.28686 c 0.18475,-0.44037 0.16129,-0.57716 -0.13027,-0.75924 -0.31164,-0.19462 -0.3812,-0.0825 -0.56232,0.90622 -0.19141,1.04483 -0.18177,1.101 0.13027,0.75923 0.18533,-0.20299 0.43838,-0.61079 0.56232,-0.90621 z m 0.99856,0.22402 c 0.20781,-0.22963 0.33086,-0.4175 0.27345,-0.4175 -0.0574,0 -0.27439,0.18787 -0.4822,0.4175 -0.20781,0.22962 -0.33085,0.41749 -0.27345,0.41749 0.0574,0 0.2744,-0.18787 0.4822,-0.41749 z m 0.29523,-1.16467 c 0.4602,-0.77998 0.29982,-1.00714 -0.17255,-0.24438 -0.15997,0.25832 -0.43927,0.70452 -0.62067,0.99155 -0.30671,0.48533 -0.30523,0.50245 0.0211,0.24438 0.19297,-0.15262 0.54044,-0.59882 0.77216,-0.99155 z m -2.27833,-0.0337 c 0,-0.38101 -0.76717,-0.32328 -0.91772,0.069 -0.0701,0.18257 -0.0757,0.41549 -0.0126,0.5176 0.15072,0.24388 0.93036,-0.24772 0.93036,-0.58665 z m 1.55034,-0.40279 c 0.18717,-0.48777 -0.32948,-0.75276 -0.71535,-0.36689 -0.27834,0.27832 -0.27834,0.33512 0,0.51112 0.44031,0.27843 0.56263,0.25377 0.71535,-0.14423 z m -1.55034,-0.55839 c 0,-0.15442 -0.16439,-0.42906 -0.36531,-0.61031 -0.3134,-0.2827 -0.42096,-0.28872 -0.75681,-0.0424 -0.22699,0.16651 -0.33939,0.42294 -0.26748,0.61031 0.1565,0.40785 1.3896,0.44546 1.3896,0.0424 z m 1.20949,-1.06244 c -0.0338,-0.23479 -0.22577,-0.45821 -0.42669,-0.49651 -0.3013,-0.0574 -0.36531,0.085 -0.36531,0.81303 0,0.87576 0.003,0.87964 0.42669,0.4965 0.23467,-0.21237 0.39906,-0.57824 0.36531,-0.81302 z m -1.13408,-0.72183 c -0.0359,-0.0451 -0.20454,0.0336 -0.37468,0.1748 -0.24313,0.20178 -0.25538,0.31534 -0.0572,0.53044 0.20467,0.22218 0.27519,0.18928 0.37468,-0.17481 0.0674,-0.24667 0.0932,-0.48537 0.0572,-0.53043 z m -5.38271,-0.16895 c -0.28764,-0.3102 -0.47289,-0.61409 -0.41166,-0.6753 0.0612,-0.0612 0.29066,0.12213 0.50988,0.40743 0.21922,0.28531 0.40067,0.40968 0.40322,0.27637 0.006,-0.28759 -1.17827,-1.32323 -1.51251,-1.32323 -0.12795,0 -0.0503,0.13792 0.17257,0.30649 0.48697,0.36832 0.2451,0.41587 -0.39132,0.0769 -0.25077,-0.13355 -0.0374,0.14826 0.47417,0.62624 1.03587,0.96786 1.5703,1.18362 0.75565,0.30507 z m 2.17607,-2.67159 c -0.14754,-0.17776 -0.31521,-0.27624 -0.37262,-0.21884 -0.0574,0.0574 0.0163,0.24982 0.16387,0.42759 0.14753,0.17777 0.31521,0.27625 0.37261,0.21884 0.0574,-0.0574 -0.0163,-0.24982 -0.16386,-0.42759 z m -1.46124,-0.27833 c 0,-0.29376 -0.235,-0.42912 -0.54108,-0.31165 -0.16033,0.0615 -0.23955,0.19595 -0.17602,0.29873 0.1457,0.23575 0.7171,0.24604 0.7171,0.0129 z m 2.58978,-0.0664 c -0.0817,-0.13223 0.0123,-0.35805 0.20892,-0.50183 0.21001,-0.15356 0.27146,-0.3146 0.14893,-0.39032 -0.25007,-0.15456 -1.90389,0.0851 -1.90389,0.27591 0,0.18951 1.09376,0.84444 1.42137,0.8511 0.15358,0.003 0.20818,-0.0997 0.12467,-0.23486 z m -3.27197,-0.7841 c -0.0493,-0.65493 -2.2681,-1.18625 -2.25958,-0.5411 0.002,0.11481 0.19435,0.23877 0.42852,0.27546 0.23417,0.0367 0.42577,0.16429 0.42577,0.28356 0,0.12563 0.21416,0.16311 0.50907,0.0891 0.28,-0.0703 0.56735,-0.0335 0.63857,0.0817 0.19763,0.31977 0.29081,0.25151 0.25765,-0.18875 z m 1.51719,-0.0192 c 0.26475,-0.22962 0.69034,-0.4175 0.94574,-0.4175 0.52964,0 1.0353,-0.50056 0.83427,-0.82584 -0.22619,-0.36598 -0.90903,-0.24265 -1.04601,0.18892 -0.071,0.22376 -0.29979,0.46099 -0.50841,0.5272 -0.44385,0.14088 -1.22337,0.94472 -0.91614,0.94472 0.11504,0 0.42578,-0.18788 0.69055,-0.4175 z m -1.34466,-1.92787 c -0.27224,-0.5737 -0.4696,-0.7264 -0.95678,-0.74025 -0.70051,-0.0199 -0.76046,0.041 -0.86099,0.87418 -0.0662,0.54871 0.006,0.63035 0.76182,0.85501 0.65403,0.19455 0.8961,0.19262 1.11697,-0.009 0.23607,-0.21539 0.22614,-0.3749 -0.061,-0.98006 z m 1.75458,0.68954 c 0.11873,-0.22185 0.38806,-0.458 0.59849,-0.52479 0.62515,-0.19842 0.43416,-1.04104 -0.25436,-1.12223 -0.76608,-0.0903 -1.17155,0.29101 -1.17155,1.10178 0,1.00102 0.43137,1.28528 0.82742,0.54524 z m -0.96309,-1.26662 c 0.22268,-0.44636 0.24206,-0.63335 0.0675,-0.65098 -0.29615,-0.0299 -0.84824,0.0425 -0.93118,0.12197 -0.0649,0.0623 0.40407,1.15525 0.49572,1.15525 0.0305,0 0.19616,-0.28181 0.36798,-0.62624 z"
         id="path27322-3"
         sodipodi:nodetypes="cscscsscssssssscssssssssscssssssssssssssccsssssssssssssscssssssccsssssscssssssssssccssssscssssssssssssssssssssssssssssssssssssssssssssscsssssssssssssssssssssssssssssssssssssssssscssssssssssssssssssssssssssssssssssssssssssssssssssssssssssssssss" />
      <circle
         style="fill:none;stroke:#ff0000;stroke-width:0.1;stroke-dasharray:none"
         id="path788-8-1-8-1-9-2-2-9"
         cx="-426.80493"
         cy="-206.90215"
         r="19.954653" />
      <ellipse
         style="fill:none;stroke:#ff00ff;stroke-width:0.1;stroke-dasharray:none;stroke-opacity:1"
         id="path1138-9-4-0-0-1-2-8-1"
         cx="-426.80493"
         cy="-206.90215"
         rx="18.492125"
         ry="18.492126" />
      <circle
         style="fill:none;stroke:#0000ff;stroke-width:0.1;stroke-linecap:round;stroke-dasharray:none;stroke-opacity:1;paint-order:markers stroke fill"
         id="path13019-1-33-4-5"
         cx="-426.80493"
         cy="-221.91312"
         r="2" />
    </g>
  </g>
</svg>
