<?xml version="1.0" encoding="UTF-8" standalone="no"?>
<!-- Created with Inkscape (http://www.inkscape.org/) -->

<svg
   width="41.008999mm"
   height="41.008999mm"
   viewBox="0 0 41.008999 41.008999"
   version="1.1"
   id="svg1"
   sodipodi:docname="114.svg"
   inkscape:version="1.4.2 (f4327f4, 2025-05-13)"
   xmlns:inkscape="http://www.inkscape.org/namespaces/inkscape"
   xmlns:sodipodi="http://sodipodi.sourceforge.net/DTD/sodipodi-0.dtd"
   xmlns="http://www.w3.org/2000/svg"
   xmlns:svg="http://www.w3.org/2000/svg">
  <sodipodi:namedview
     id="namedview1"
     pagecolor="#ffffff"
     bordercolor="#000000"
     borderopacity="0.25"
     inkscape:showpageshadow="2"
     inkscape:pageopacity="0.0"
     inkscape:pagecheckerboard="0"
     inkscape:deskcolor="#d1d1d1"
     inkscape:document-units="mm"
     showguides="false"
     inkscape:zoom="2"
     inkscape:cx="57.5"
     inkscape:cy="36.5"
     inkscape:window-width="1050"
     inkscape:window-height="1081"
     inkscape:window-x="857"
     inkscape:window-y="0"
     inkscape:window-maximized="0"
     inkscape:current-layer="layer1" />
  <defs
     id="defs1" />
  <g
     inkscape:label="Layer 1"
     inkscape:groupmode="layer"
     id="layer1"
     transform="translate(-70.643761,-99.218767)">
    <g
       id="g6593"
       transform="translate(477.20719,326.62541)">
      <path
         style="fill:#000000;stroke-width:0.1;stroke-dasharray:none"
         d="m -385.30228,-192.45708 c 0.0321,-1.76001 -0.0389,-3.03622 -0.17684,-3.17524 -0.12683,-0.12784 -0.98384,-0.39089 -1.90447,-0.58455 -3.0801,-0.64792 -3.92706,-1.35511 -4.92804,-4.11477 -0.67843,-1.87045 -0.73172,-2.71815 -0.15637,-2.48751 0.21885,0.0877 0.81639,0.28838 1.32786,0.44588 0.51147,0.15749 1.55234,0.70902 2.31305,1.2256 1.19918,0.81435 1.44732,1.11087 1.86597,2.22981 0.26557,0.70981 0.72345,1.5765 1.01752,1.92597 l 0.53465,0.6354 0.15165,-0.80835 c 0.10912,-0.58165 0.0519,-0.91856 -0.20402,-1.20135 -0.19561,-0.21615 -0.35566,-0.56402 -0.35566,-0.77302 0,-0.20901 -0.10232,-0.38003 -0.22739,-0.38003 -0.30974,0 -0.28907,-0.84457 0.0254,-1.03894 0.34004,-0.21016 0.60963,0.27042 0.49542,0.88311 -0.051,0.2733 0.0636,0.70156 0.2545,0.95168 0.32438,0.42498 0.3476,0.37232 0.35436,-0.80373 0.004,-0.6941 -0.19672,-1.83876 -0.44754,-2.5524 -0.25012,-0.71164 -0.45801,-1.52669 -0.46196,-1.8112 -0.0159,-1.14196 -1.67365,-2.18635 -4.96231,-3.12621 -1.08575,-0.31029 -1.69106,-0.65442 -2.43454,-1.38409 -0.54423,-0.53411 -0.93674,-1.0565 -0.87225,-1.16084 0.0645,-0.10435 0.86278,-0.18972 1.77397,-0.18972 1.53671,0 1.75509,0.0636 3.01478,0.87776 1.38687,0.89638 1.80821,1.34565 2.80154,2.98729 0.31054,0.51321 0.59412,0.84461 0.63018,0.73644 0.0361,-0.10818 -0.19244,-1.08699 -0.50778,-2.17513 -0.31533,-1.08815 -0.57333,-2.22363 -0.57333,-2.52328 0,-0.55449 -1.13886,-1.72216 -1.67967,-1.72216 -0.661,0 -1.72702,-1.43531 -2.16857,-2.91983 -0.55153,-1.85425 -1.18287,-4.63105 -1.077,-4.73692 0.25124,-0.25124 1.71721,1.13667 2.21122,2.09346 0.32069,0.6211 0.85594,1.64224 1.18945,2.2692 0.3335,0.62696 0.71137,1.69355 0.83969,2.37021 0.26367,1.3903 0.31946,1.4908 0.69778,1.25698 0.19127,-0.1182 0.21846,-0.50804 0.0928,-1.33023 -0.30536,-1.99787 -0.22962,-2.70211 0.3941,-3.66426 0.32427,-0.50026 0.70797,-1.28539 0.85262,-1.74476 0.1722,-0.5468 0.69456,-1.20388 1.51274,-1.90287 1.31906,-1.12691 1.59698,-1.19423 1.26456,-0.30631 -0.11185,0.29873 -0.32482,1.24803 -0.47328,2.10953 -0.26167,1.51841 -0.97522,3.23072 -1.88199,4.51618 -0.24259,0.34392 -0.32858,0.62532 -0.19108,0.62532 0.1375,0 0.31454,0.16816 0.39341,0.3737 0.097,0.25271 -0.10779,0.58821 -0.63244,1.03619 l -0.77586,0.6625 0.76727,-0.3745 c 0.70131,-0.34231 0.79835,-0.34343 1.12881,-0.013 0.33023,0.33023 0.33028,0.3928 4.5e-4,0.72253 -0.29771,0.29771 -0.44049,0.31135 -0.81445,0.0778 -0.68603,-0.42842 -1.19586,-0.11648 -1.19586,0.73171 0,0.60169 0.55366,2.77336 1.0929,4.28675 0.0669,0.18759 0.19393,-0.2571 0.28242,-0.98821 0.11616,-0.9597 0.35521,-1.59193 0.85973,-2.27386 0.38435,-0.51951 1.13868,-1.60296 1.67628,-2.40766 l 0.97746,-1.46309 0.0749,1.34939 c 0.0941,1.69375 -0.29597,3.5223 -0.88664,4.15632 -0.2491,0.26738 -1.01255,0.89957 -1.69655,1.40487 -1.43398,1.05934 -1.54459,1.54529 -0.82007,3.60265 l 0.42359,1.20281 0.68352,-0.82924 c 0.47941,-0.5816 0.72401,-1.17104 0.81909,-1.97383 0.1936,-1.6347 1.06628,-2.97669 2.62327,-4.03401 0.72573,-0.49284 1.4942,-1.16267 1.70769,-1.48852 0.21351,-0.32584 0.47686,-0.53764 0.58523,-0.47066 0.31758,0.19628 -0.38635,2.76579 -1.04243,3.80509 -0.72533,1.149 -2.42305,2.81357 -3.36797,3.30221 -0.67095,0.34696 -0.67472,0.35838 -0.17853,0.54193 0.27877,0.10313 0.64989,0.13262 0.82469,0.0656 0.42308,-0.16235 0.71122,0.33476 0.38381,0.66217 -0.19338,0.19337 -0.38651,0.18023 -0.76466,-0.052 -0.49198,-0.30217 -0.49496,-0.29838 -0.10802,0.13729 0.21886,0.24641 0.39793,0.57539 0.39793,0.73103 0,0.15565 -0.17907,0.246 -0.39793,0.20077 -0.21885,-0.0452 -0.38423,-0.25425 -0.3675,-0.4645 0.0429,-0.53924 -0.79492,-0.75234 -1.2335,-0.31375 -0.48398,0.48397 -0.79918,2.68408 -0.83517,5.82962 -0.0529,4.62685 -0.11736,5.68463 -0.34622,5.68463 -0.13869,0 -0.20378,-1.12315 -0.17054,-2.9428 z m -1.05373,-4.17636 c -0.23394,-0.14897 -0.74556,-0.47811 -1.13693,-0.73142 -0.39137,-0.25331 -1.01,-0.91841 -1.37472,-1.478 -0.36472,-0.5596 -1.26083,-1.46084 -1.99135,-2.00275 -0.73053,-0.5419 -1.27025,-1.0791 -1.19938,-1.19377 0.0709,-0.11466 0.0204,-0.20848 -0.11196,-0.20848 -0.33116,0 -0.30776,0.18897 0.20963,1.69278 0.9013,2.61967 1.64494,3.31306 4.13863,3.85904 1.79415,0.39281 1.99831,0.40152 1.46608,0.0626 z m -0.577,-1.23725 c -0.11569,-0.21886 -0.33448,-0.73254 -0.4862,-1.14153 -0.30459,-0.8211 -1.1049,-1.57304 -2.61802,-2.45979 -1.64428,-0.96361 -1.84758,-0.56333 -0.32917,0.64814 0.7465,0.5956 1.52377,1.41419 1.72728,1.81908 0.40022,0.79632 1.17168,1.51886 1.63029,1.52697 0.20132,0.003 0.2238,-0.11293 0.0758,-0.39287 z m 5.43381,-5.87993 c 0.49957,-0.45134 0.84219,-0.9276 0.76138,-1.05837 -0.0808,-0.13076 -0.0424,-0.1732 0.0852,-0.0943 0.43599,0.26946 1.68261,-1.6784 2.01143,-3.14289 0.1331,-0.59281 0.038,-0.5223 -0.72583,0.53824 -0.48346,0.67123 -1.24902,1.64331 -1.70126,2.16017 -0.79121,0.90427 -1.70396,2.41775 -1.45809,2.41775 0.0654,0 0.52762,-0.36927 1.02719,-0.8206 z m 0.0855,-1.65669 c 0.63369,-0.52331 1.79101,-2.34319 1.33464,-2.0987 -1.07758,0.57726 -2.0495,1.86204 -2.4296,3.21168 -0.14522,0.51561 -0.11962,0.50504 0.27542,-0.11369 0.23953,-0.37518 0.60833,-0.82486 0.81954,-0.99929 z m -1.81807,-1.46024 c 1.02697,-1.02696 1.44231,-2.27329 1.14816,-3.4453 -0.1339,-0.53351 -0.16728,-0.51603 -0.93519,0.48999 -1.77302,2.32278 -2.28042,3.68887 -0.75579,2.03485 0.49798,-0.54025 1.05675,-1.33097 1.24172,-1.75716 0.24091,-0.55511 0.3388,-0.64412 0.34518,-0.31385 0.0101,0.52585 -0.38769,1.15827 -1.62546,2.58385 -0.47679,0.54912 -0.86688,1.08632 -0.86688,1.19378 0,0.42726 0.51368,0.14843 1.44826,-0.78616 z m -4.26887,0.26424 c 0.0942,-0.15245 0.063,-0.20117 -0.0745,-0.1162 -0.13021,0.0804 -0.36945,-0.0136 -0.53163,-0.20899 -0.42702,-0.51453 -3.47489,-1.91353 -4.16883,-1.91353 -0.32467,0 -0.59029,-0.10233 -0.59029,-0.22739 0,-0.12506 -0.17907,-0.22313 -0.39793,-0.21792 -0.84551,0.0201 1.2836,1.51566 2.7334,1.92002 0.77901,0.21727 1.67219,0.53302 1.98485,0.70167 0.70905,0.38248 0.84217,0.39043 1.04494,0.0623 z m -1.27233,-1.43329 c 0,-0.24962 -2.02382,-1.26008 -2.52121,-1.25881 -0.52447,0.002 -0.5186,0.0174 0.13367,0.36537 0.37518,0.20017 1.04028,0.49931 1.478,0.66473 0.98196,0.37111 0.90954,0.3529 0.90954,0.22871 z m 4.09294,-2.8519 c 0,-0.12506 -0.10232,-0.22739 -0.22738,-0.22739 -0.12506,0 -0.22739,0.10233 -0.22739,0.22739 0,0.12506 0.10233,0.22738 0.22739,0.22738 0.12506,0 0.22738,-0.10232 0.22738,-0.22738 z m -3.68741,-1.30746 c -0.1909,-0.21886 -0.51555,-0.90955 -0.72143,-1.53486 -0.20588,-0.62531 -0.67948,-1.69047 -1.05245,-2.36703 -0.37296,-0.67655 -0.67599,-1.34166 -0.67341,-1.478 0.009,-0.47201 1.81789,2.93956 2.07096,3.90575 0.13976,0.53364 0.34386,1.02571 0.45354,1.09349 0.39317,0.243 0.18672,-0.72022 -0.39363,-1.83637 -0.32512,-0.6253 -0.85008,-1.64853 -1.16657,-2.27385 -0.6268,-1.2384 -1.15385,-1.93278 -1.46702,-1.93278 -0.11008,0 -0.0942,0.19793 0.0352,0.43983 0.12947,0.2419 0.23539,0.69707 0.23539,1.01149 0,0.31443 0.25796,1.38826 0.57324,2.38631 0.42005,1.32971 0.75891,1.97086 1.26806,2.39929 0.78791,0.66298 1.36584,0.79174 0.83809,0.18672 z m 3.71542,-3.09525 c 0.37755,-0.73314 0.81671,-2.08195 0.9759,-2.99735 l 0.28942,-1.66436 -0.74836,0.5708 c -0.44403,0.33869 -0.90938,1.00279 -1.1443,1.63305 -0.21776,0.58424 -0.63245,1.41854 -0.92153,1.85403 -0.52832,0.79587 -0.72235,2.27792 -0.29823,2.27792 0.12507,0 0.22739,-0.12126 0.22739,-0.26946 0,-0.1482 0.3445,-0.9412 0.76555,-1.76224 0.42105,-0.82102 0.88897,-1.87506 1.03982,-2.34231 0.15086,-0.46723 0.38009,-0.91492 0.50944,-0.99486 0.36468,-0.22539 0.0409,0.67533 -1.19744,3.33134 -0.61455,1.31807 -1.1167,2.54595 -1.11587,2.72862 0.002,0.42215 0.73327,-0.64682 1.61821,-2.36518 z"
         id="path27322-3-1"
         sodipodi:nodetypes="csssssssscssssssscsssssssssssssssssssssssssssscssccssssscsssscsssssssscsssssssssccssssssssssssssscsssscssssssssssssssssssssssssssssssscsssssssssssssssssssssssscssssssssscs" />
      <circle
         style="fill:none;stroke:#ff0000;stroke-width:0.1;stroke-dasharray:none"
         id="path788-8-1-8-1-9-2-56-8"
         cx="-386.05893"
         cy="-206.90215"
         r="19.954653" />
      <ellipse
         style="fill:none;stroke:#ff00ff;stroke-width:0.1;stroke-dasharray:none;stroke-opacity:1"
         id="path1138-9-4-0-0-1-2-4-9"
         cx="-386.05893"
         cy="-206.90215"
         rx="18.492125"
         ry="18.492126" />
      <circle
         style="fill:none;stroke:#0000ff;stroke-width:0.1;stroke-linecap:round;stroke-dasharray:none;stroke-opacity:1;paint-order:markers stroke fill"
         id="path13019-1-33-6-2"
         cx="-386.05893"
         cy="-221.91312"
         r="2" />
    </g>
  </g>
</svg>
