<?xml version="1.0" encoding="UTF-8" standalone="no"?>
<!-- Created with Inkscape (http://www.inkscape.org/) -->

<svg
   width="41.008999mm"
   height="41.008999mm"
   viewBox="0 0 41.008999 41.008999"
   version="1.1"
   id="svg1"
   sodipodi:docname="115.svg"
   inkscape:version="1.4.2 (f4327f4, 2025-05-13)"
   xmlns:inkscape="http://www.inkscape.org/namespaces/inkscape"
   xmlns:sodipodi="http://sodipodi.sourceforge.net/DTD/sodipodi-0.dtd"
   xmlns="http://www.w3.org/2000/svg"
   xmlns:svg="http://www.w3.org/2000/svg">
  <sodipodi:namedview
     id="namedview1"
     pagecolor="#ffffff"
     bordercolor="#000000"
     borderopacity="0.25"
     inkscape:showpageshadow="2"
     inkscape:pageopacity="0.0"
     inkscape:pagecheckerboard="0"
     inkscape:deskcolor="#d1d1d1"
     inkscape:document-units="mm"
     showguides="false"
     inkscape:zoom="2"
     inkscape:cx="57.5"
     inkscape:cy="36.5"
     inkscape:window-width="1050"
     inkscape:window-height="1081"
     inkscape:window-x="857"
     inkscape:window-y="0"
     inkscape:window-maximized="0"
     inkscape:current-layer="layer1" />
  <defs
     id="defs1" />
  <g
     inkscape:label="Layer 1"
     inkscape:groupmode="layer"
     id="layer1"
     transform="translate(-70.643761,-99.218767)">
    <g
       id="g6430"
       transform="translate(641.2096,275.77487)">
      <path
         style="fill:#000000;stroke-width:0.1;stroke-dasharray:none"
         d="m -546.87971,-140.34005 c -0.0992,-0.25714 -0.34506,-1.00223 -0.54632,-1.65573 -0.39951,-1.29726 -1.18729,-1.7729 -2.93633,-1.7729 -1.07349,0 -1.93337,-0.66907 -1.58478,-1.23311 0.28307,-0.45802 0.75919,-0.39324 2.19029,0.29803 1.70922,0.82562 1.79141,0.78943 1.23874,-0.54546 -0.62818,-1.51728 -1.48406,-2.15383 -3.5158,-2.61486 -2.30688,-0.52347 -3.81522,-2.31123 -2.80354,-3.3229 1.07703,-1.07704 3.67798,0.33813 3.67798,2.00117 0,0.48839 0.30074,0.88123 0.9196,1.20126 0.50578,0.26155 0.97571,0.47554 1.04429,0.47554 0.0686,0 -0.0416,-0.96945 -0.24486,-2.15434 -0.31613,-1.84303 -0.5346,-2.31002 -1.51182,-3.23166 -1.19032,-1.12261 -1.4878,-2.2933 -0.66314,-2.60975 0.26353,-0.10108 0.75445,0.0653 1.09093,0.36978 0.59672,0.54003 0.61177,0.52707 0.61177,-0.5263 0,-0.83011 -0.32738,-1.46347 -1.41519,-2.73789 -1.44552,-1.69346 -1.6197,-2.3568 -0.61881,-2.3568 0.60646,0 0.79831,0.25983 1.61096,2.18185 l 0.52716,1.24678 0.30706,-1.65798 c 0.25086,-1.3545 0.21281,-1.85566 -0.20789,-2.73789 -1.11973,-2.34807 -0.25641,-5.42247 1.52268,-5.42247 1.62729,0 1.8485,2.49553 0.45588,5.14294 -1.22429,2.32742 -1.21533,2.97759 0.0239,1.73829 1.18094,-1.18094 2.07371,-1.24714 2.34311,-0.17377 0.38139,1.51962 -1.17219,3.76952 -3.10801,4.50102 l -0.89679,0.33888 0.2174,2.77909 c 0.11957,1.5285 0.32477,3.17327 0.45598,3.65503 0.21921,0.80486 0.25784,0.7498 0.47578,-0.6784 0.41859,-2.7429 1.69817,-4.21311 2.84122,-3.26447 1.02104,0.84739 0.006,3.74768 -1.474,4.20962 -0.39754,0.12413 -0.82586,0.38211 -0.9518,0.5733 -0.28141,0.42715 -0.30818,2.14117 -0.0442,2.82912 0.17862,0.46548 0.24077,0.46449 0.76762,-0.0124 0.56006,-0.50686 1.53156,-0.42635 1.53156,0.12692 0,0.15289 -0.32399,0.75539 -0.71998,1.33892 -0.5909,0.87075 -0.67169,1.24726 -0.45061,2.10036 0.29723,1.14711 0.16706,2.44896 -0.16011,1.60108 z m 0.39564,-4.4005 c 0,-0.17143 -0.14027,-0.22501 -0.3117,-0.11905 -0.17143,0.10591 -0.31169,0.33289 -0.31169,0.50432 0,0.17143 0.14026,0.22501 0.31169,0.11906 0.17143,-0.10591 0.3117,-0.3329 0.3117,-0.50433 z m -5.61048,-4.13291 c 0,-0.0647 -0.24546,-0.31019 -0.54547,-0.54547 -0.49436,-0.38769 -0.50539,-0.37668 -0.11769,0.11769 0.4072,0.5192 0.66315,0.68431 0.66315,0.42779 z m -1.38255,-1.3763 c 0.10073,-0.3207 0.27077,-0.3262 0.83246,-0.0269 0.64054,0.34132 0.66631,0.32814 0.27815,-0.1424 -0.46737,-0.56658 -1.76075,-0.70039 -2.06178,-0.21332 -0.10379,0.16788 -0.0184,0.62336 0.18968,1.01217 0.28477,0.53209 0.41007,0.5915 0.50664,0.24021 0.0706,-0.25669 0.18526,-0.64809 0.25485,-0.86976 z m 7.92334,-1.52663 c 0.006,-0.93291 -0.57034,-1.21463 -1.19399,-0.5831 -0.47971,0.48577 -0.47762,0.5436 0.0299,0.83161 0.3,0.17024 0.54761,0.54802 0.55023,0.83951 0.005,0.4561 0.0469,0.46481 0.30692,0.0624 0.16619,-0.25714 0.3043,-0.77485 0.30693,-1.15045 z m -5.24726,-2.74571 c 0,-0.16286 -0.15079,-0.34637 -0.33507,-0.40779 -0.1843,-0.0615 -0.33508,0.12207 -0.33508,0.40779 0,0.28571 0.15078,0.46923 0.33508,0.4078 0.18428,-0.0614 0.33507,-0.24494 0.33507,-0.4078 z m 4.48872,-3.92697 c 0.49123,-0.94993 0.60262,-2.15105 0.19949,-2.15105 -0.43959,0 -1.4902,0.91456 -1.06279,0.92517 0.88393,0.0219 0.75206,1.00921 -0.28024,2.09796 -0.98625,1.04017 -0.99793,1.07607 -0.18115,0.55656 0.48019,-0.30544 1.07631,-0.94832 1.32469,-1.42864 z m -1.41229,0.49081 c 0.6023,-0.72574 0.17253,-0.8625 -0.47206,-0.15022 -0.31124,0.34391 -0.42106,0.6253 -0.24406,0.6253 0.17702,0 0.49926,-0.21378 0.71612,-0.47508 z m -0.62964,-5.77719 c 0,-0.76408 -0.12346,-1.18887 -0.3117,-1.07252 -0.17143,0.1059 -0.31169,0.67527 -0.31169,1.26517 0,0.58988 0.14026,1.07252 0.31169,1.07252 0.17143,0 0.3117,-0.56932 0.3117,-1.26517 z m 0.93508,-1.23816 c 0,-0.84293 -0.15773,-1.31707 -0.47915,-1.44042 -0.58081,-0.22287 -1.71037,0.73058 -1.68295,1.42059 0.0128,0.32357 0.11818,0.25228 0.30165,-0.20415 0.51666,-1.28538 1.54875,-0.69717 1.54875,0.88264 0,0.32884 0.0701,0.5979 0.15585,0.5979 0.0858,0 0.15585,-0.56545 0.15585,-1.25656 z"
         id="path1587-1-86-18"
         sodipodi:nodetypes="csssssssssssssssssscssssssscsssssssssssccssssssssssssssssssssscssssssssssssssssssssssssssssss" />
      <circle
         style="fill:none;stroke:#ff0000;stroke-width:0.1;stroke-dasharray:none"
         id="path788-8-1-8-1-9-2-1-44"
         cx="-550.06134"
         cy="-156.05161"
         r="19.954653" />
      <ellipse
         style="fill:none;stroke:#ff00ff;stroke-width:0.1;stroke-dasharray:none;stroke-opacity:1"
         id="path1138-9-4-0-0-1-2-6-5"
         cx="-550.06134"
         cy="-156.05161"
         rx="18.492125"
         ry="18.492126" />
      <circle
         style="fill:none;stroke:#0000ff;stroke-width:0.1;stroke-linecap:round;stroke-dasharray:none;stroke-opacity:1;paint-order:markers stroke fill"
         id="path13019-1-33-7-8"
         cx="-550.06134"
         cy="-171.06258"
         r="2" />
    </g>
  </g>
</svg>
