<?xml version="1.0" encoding="UTF-8" standalone="no"?>
<!-- Created with Inkscape (http://www.inkscape.org/) -->

<svg
   width="41.008999mm"
   height="41.008999mm"
   viewBox="0 0 41.008999 41.008999"
   version="1.1"
   id="svg1"
   sodipodi:docname="116.svg"
   inkscape:version="1.4.2 (f4327f4, 2025-05-13)"
   xmlns:inkscape="http://www.inkscape.org/namespaces/inkscape"
   xmlns:sodipodi="http://sodipodi.sourceforge.net/DTD/sodipodi-0.dtd"
   xmlns="http://www.w3.org/2000/svg"
   xmlns:svg="http://www.w3.org/2000/svg">
  <sodipodi:namedview
     id="namedview1"
     pagecolor="#ffffff"
     bordercolor="#000000"
     borderopacity="0.25"
     inkscape:showpageshadow="2"
     inkscape:pageopacity="0.0"
     inkscape:pagecheckerboard="0"
     inkscape:deskcolor="#d1d1d1"
     inkscape:document-units="mm"
     showguides="false"
     inkscape:zoom="2"
     inkscape:cx="57.5"
     inkscape:cy="36.5"
     inkscape:window-width="1050"
     inkscape:window-height="1081"
     inkscape:window-x="857"
     inkscape:window-y="0"
     inkscape:window-maximized="0"
     inkscape:current-layer="layer1" />
  <defs
     id="defs1" />
  <g
     inkscape:label="Layer 1"
     inkscape:groupmode="layer"
     id="layer1"
     transform="translate(-70.643761,-99.218767)">
    <g
       id="g6436"
       transform="translate(600.18412,275.77487)">
      <path
         style="fill:#000000;stroke-width:0.1;stroke-dasharray:none"
         d="m -508.99738,-139.37796 c -0.11802,-0.4406 -0.21688,-1.69866 -0.21956,-2.79567 -0.007,-2.89683 -0.64064,-3.72602 -5.52347,-7.22863 -0.66631,-0.47796 -0.6738,-0.55009 -0.11667,-1.12209 0.75704,-0.77716 1.71539,-0.42703 1.72998,0.63204 0.007,0.45721 0.41993,1.11039 0.94626,1.49431 l 0.93507,0.68205 -0.21847,-1.34626 c -0.1529,-0.94224 -0.063,-1.50181 0.29988,-1.86461 0.45377,-0.45377 0.51934,-0.26013 0.52628,1.5543 0.005,1.50732 0.19782,2.31546 0.70416,2.96277 l 0.69624,0.89009 0.008,-4.38488 c 0.008,-4.60904 -0.27761,-5.76224 -1.42876,-5.76224 -0.38475,0 -0.69956,-0.16022 -0.69956,-0.35604 0,-0.19582 0.19085,-0.35605 0.4241,-0.35605 0.23325,0 0.11331,-0.22723 -0.26648,-0.50494 -0.3798,-0.27772 -0.56897,-0.62653 -0.42037,-0.77513 0.1486,-0.1486 0.73113,0.17142 1.2945,0.71117 l 1.02432,0.98136 0.16227,-1.54137 c 0.0892,-0.84776 -0.0135,-1.76771 -0.22694,-2.04433 -0.28694,-0.37077 -0.27226,-0.54232 0.0558,-0.65274 0.66663,-0.22437 0.53688,-1.08692 -0.26703,-1.77524 -0.39164,-0.33534 -0.71207,-0.80496 -0.71207,-1.04362 0,-0.77921 0.80891,-0.95607 1.30015,-0.28428 0.44537,0.6091 0.48004,0.58562 0.48004,-0.32504 0,-0.53986 -0.17585,-1.31015 -0.3908,-1.71177 -0.30619,-0.57213 -0.26765,-0.85335 0.17802,-1.29903 0.52107,-0.52106 0.62055,-0.51709 1.18494,0.0474 0.53011,0.53011 0.54974,0.72236 0.14069,1.37736 -0.38371,0.61442 -1.18634,7.66996 -0.9164,8.05566 0.18205,0.26013 2.29583,-2.98063 2.29583,-3.51988 0,-0.86927 1.13409,-1.20237 1.65735,-0.48679 0.50332,0.68833 0.25675,1.58695 -0.43543,1.58695 -0.67403,0 -1.98688,1.48489 -1.78288,2.0165 0.0927,0.24163 -0.12649,0.53297 -0.48704,0.64742 -0.8054,0.25563 -1.554,1.95945 -1.35669,3.08793 0.13254,0.75828 0.20104,0.71238 0.74604,-0.50025 0.6516,-1.44979 0.98356,-1.61453 1.64571,-0.81669 0.48838,0.58846 0.21203,1.26174 -0.51789,1.26174 -0.26884,0 -0.83106,0.48064 -1.24937,1.06812 -0.6793,0.95399 -0.69502,1.06812 -0.14708,1.06812 0.57178,0 0.57343,0.0443 0.0242,0.65109 -0.4111,0.45426 -0.58686,1.2885 -0.58132,2.75931 l 0.008,2.10821 0.69624,-0.8901 c 0.38294,-0.48955 0.69982,-1.15334 0.70416,-1.47508 0.0108,-0.82221 0.93405,-1.08323 1.48459,-0.41987 0.39004,0.46996 0.30525,0.67886 -0.55342,1.36355 -0.55771,0.4447 -0.91116,0.97498 -0.78545,1.17841 0.12569,0.20341 -0.086,0.46967 -0.47045,0.59171 -0.62007,0.1968 -1.35467,1.46512 -1.03418,1.78559 0.32653,0.32655 3.85911,-2.1945 3.85911,-2.75408 0,-0.34445 0.16022,-0.62627 0.35604,-0.62627 0.19583,0 0.35605,0.23529 0.35605,0.52289 0,0.3185 0.20874,0.44277 0.53405,0.31794 0.29373,-0.11277 0.53407,-0.052 0.53407,0.13513 0,0.18702 -0.66619,0.64045 -1.48039,1.00762 -0.81422,0.36715 -2.10321,1.11873 -2.86443,1.67014 l -1.38403,1.0026 0.24011,2.12233 c 0.15309,1.35315 0.1094,2.12234 -0.12044,2.12234 -0.19827,0 -0.45711,-0.36049 -0.57518,-0.80108 z"
         id="path1587-1-29-3"
         sodipodi:nodetypes="ccsscscsscsccsssssscscssssssssssssssssssssssccscsssssssssssscsscc" />
      <circle
         style="fill:none;stroke:#ff0000;stroke-width:0.1;stroke-dasharray:none"
         id="path788-8-1-8-1-9-2-11"
         cx="-509.03586"
         cy="-156.05161"
         r="19.954653" />
      <ellipse
         style="fill:none;stroke:#ff00ff;stroke-width:0.1;stroke-dasharray:none;stroke-opacity:1"
         id="path1138-9-4-0-0-1-2-1"
         cx="-509.03586"
         cy="-156.05161"
         rx="18.492125"
         ry="18.492126" />
      <circle
         style="fill:none;stroke:#0000ff;stroke-width:0.1;stroke-linecap:round;stroke-dasharray:none;stroke-opacity:1;paint-order:markers stroke fill"
         id="path13019-1-33-36"
         cx="-509.03589"
         cy="-171.06258"
         r="2" />
    </g>
  </g>
</svg>
