<?xml version="1.0" encoding="UTF-8" standalone="no"?>
<!-- Created with Inkscape (http://www.inkscape.org/) -->

<svg
   width="41.008999mm"
   height="41.008999mm"
   viewBox="0 0 41.008999 41.008999"
   version="1.1"
   id="svg1"
   sodipodi:docname="117.svg"
   inkscape:version="1.4.2 (f4327f4, 2025-05-13)"
   xmlns:inkscape="http://www.inkscape.org/namespaces/inkscape"
   xmlns:sodipodi="http://sodipodi.sourceforge.net/DTD/sodipodi-0.dtd"
   xmlns="http://www.w3.org/2000/svg"
   xmlns:svg="http://www.w3.org/2000/svg">
  <sodipodi:namedview
     id="namedview1"
     pagecolor="#ffffff"
     bordercolor="#000000"
     borderopacity="0.25"
     inkscape:showpageshadow="2"
     inkscape:pageopacity="0.0"
     inkscape:pagecheckerboard="0"
     inkscape:deskcolor="#d1d1d1"
     inkscape:document-units="mm"
     showguides="false"
     inkscape:zoom="2"
     inkscape:cx="57.5"
     inkscape:cy="36.5"
     inkscape:window-width="1050"
     inkscape:window-height="1081"
     inkscape:window-x="857"
     inkscape:window-y="0"
     inkscape:window-maximized="0"
     inkscape:current-layer="layer1" />
  <defs
     id="defs1" />
  <g
     inkscape:label="Layer 1"
     inkscape:groupmode="layer"
     id="layer1"
     transform="translate(-70.643761,-99.218767)">
    <g
       id="g6442"
       transform="translate(559.4322,275.77487)">
      <path
         style="fill:#000000;stroke-width:0.1;stroke-dasharray:none"
         d="m -467.43013,-139.43841 c -0.1901,-0.52017 -0.40511,-1.11723 -0.47782,-1.32678 -0.0727,-0.20955 -0.64423,-0.4834 -1.27004,-0.60857 -1.4219,-0.28438 -3.39225,-2.14595 -3.39225,-3.20496 0,-1.06624 1.04269,-1.0434 2.66408,0.0584 0.68855,0.46787 1.28072,0.81609 1.31594,0.77382 0.0352,-0.0422 -0.0896,-1.12422 -0.27717,-2.40431 -0.2867,-1.95559 -0.50076,-2.45011 -1.33986,-3.0953 -3.09731,-2.38154 -3.09083,-2.37398 -2.98322,-3.47926 0.15429,-1.58481 1.33922,-1.62525 2.86663,-0.0979 1.13087,1.13087 1.20421,1.15569 1.34415,0.45503 0.56141,-2.81081 0.50198,-3.39207 -0.53447,-5.22861 -0.71086,-1.25954 -1.00429,-2.19874 -0.92965,-2.9755 0.15295,-1.59195 0.98043,-1.45267 1.87312,0.31527 l 0.73232,1.45031 0.39608,-1.45031 c 0.2811,-1.02922 0.29316,-1.79912 0.0415,-2.65176 -0.77326,-2.62014 -0.0428,-4.96942 1.4773,-4.75076 1.60286,0.23059 1.55128,3.74348 -0.0889,6.05723 -0.36133,0.50971 -0.7638,1.46844 -0.89435,2.13049 l -0.23737,1.20372 1.03296,-0.97457 c 1.92173,-1.81309 3.75747,-0.47331 2.15056,1.56956 -0.38875,0.49423 -1.40418,1.16492 -2.25651,1.49042 -1.03456,0.3951 -1.59801,0.83279 -1.69513,1.31675 -0.33232,1.6562 -0.53905,4.33609 -0.33449,4.33609 0.12115,0 0.67996,-0.38692 1.24197,-0.85981 1.16879,-0.98349 2.51373,-1.12382 2.83162,-0.29547 0.35234,0.9182 -0.78625,2.22738 -2.60566,2.99606 l -1.69928,0.71793 0.20782,1.38603 c 0.11426,0.76233 0.29573,1.84132 0.40318,2.39778 l 0.19537,1.01173 0.51493,-1.01173 c 1.24724,-2.45058 3.24309,-3.65654 3.69501,-2.23266 0.30387,0.95742 -0.6303,2.5561 -2.25795,3.86413 -1.34306,1.07931 -1.3928,1.18851 -1.18189,2.59499 0.25006,1.66745 -0.0146,1.92902 -0.52852,0.52249 z m -1.01305,-2.7774 c 0,-0.65937 -2.93847,-2.73887 -3.32458,-2.35276 -0.0937,0.0937 6.9e-4,0.49024 0.21006,0.88121 0.58493,1.09295 3.11452,2.28813 3.11452,1.47155 z m 3.22723,-1.78055 c 1.60091,-1.77202 1.69857,-3.19445 0.13569,-1.97656 -0.57357,0.44696 -1.9837,2.64478 -1.98595,3.0953 -0.003,0.58914 0.68076,0.17576 1.85026,-1.11874 z m -1.7485,-5.37127 c 2.0672,-1.0468 2.94897,-2.19402 1.68635,-2.19402 -0.33992,0 -1.22253,0.61906 -1.96136,1.37569 -1.46472,1.5 -1.40748,1.67031 0.27501,0.81833 z m -2.6754,-1.49251 c -1.09084,-2.10946 -2.93039,-3.23517 -2.93039,-1.79322 0,0.64305 0.8823,1.5727 2.40744,2.53664 1.11313,0.70351 1.20422,0.57402 0.52295,-0.74342 z m 4.66233,-6.86565 c 1.06168,-1.06167 1.29105,-1.75333 0.57541,-1.73513 -0.50644,0.013 -1.15017,0.51894 -2.29544,1.80453 l -0.83378,0.93592 h 0.77425 c 0.42585,0 1.22664,-0.45239 1.77956,-1.00532 z m -3.79633,-1.35291 c -0.38716,-1.43775 -1.04503,-2.23235 -1.04503,-1.26221 0,0.76545 0.99988,3.07912 1.23085,2.84815 0.10451,-0.10451 0.0209,-0.8182 -0.18582,-1.58594 z m 3.0351,-4.82948 c 0.50038,-1.49663 0.49831,-2.67902 -0.005,-2.99024 -0.95189,-0.5883 -1.64632,1.88713 -1.10081,3.9241 0.25162,0.93952 0.56942,0.67119 1.10604,-0.93386 z"
         id="path1587-1-5"
         sodipodi:nodetypes="cssssscssssssscscssscsssssssscsscssssccsscssscsssssssssscscsssssssssss" />
      <circle
         style="fill:none;stroke:#ff0000;stroke-width:0.1;stroke-dasharray:none"
         id="path788-8-1-8-1-9-2-9-7"
         cx="-468.28394"
         cy="-156.05161"
         r="19.954653" />
      <ellipse
         style="fill:none;stroke:#ff00ff;stroke-width:0.1;stroke-dasharray:none;stroke-opacity:1"
         id="path1138-9-4-0-0-1-2-25-9"
         cx="-468.28394"
         cy="-156.05161"
         rx="18.492125"
         ry="18.492126" />
      <circle
         style="fill:none;stroke:#0000ff;stroke-width:0.1;stroke-linecap:round;stroke-dasharray:none;stroke-opacity:1;paint-order:markers stroke fill"
         id="path13019-1-33-5-1"
         cx="-468.28394"
         cy="-171.06258"
         r="2" />
    </g>
  </g>
</svg>
