<?xml version="1.0" encoding="UTF-8" standalone="no"?>
<!-- Created with Inkscape (http://www.inkscape.org/) -->

<svg
   width="41.008999mm"
   height="41.008999mm"
   viewBox="0 0 41.008999 41.008999"
   version="1.1"
   id="svg1"
   sodipodi:docname="118.svg"
   inkscape:version="1.4.2 (f4327f4, 2025-05-13)"
   xmlns:inkscape="http://www.inkscape.org/namespaces/inkscape"
   xmlns:sodipodi="http://sodipodi.sourceforge.net/DTD/sodipodi-0.dtd"
   xmlns="http://www.w3.org/2000/svg"
   xmlns:svg="http://www.w3.org/2000/svg">
  <sodipodi:namedview
     id="namedview1"
     pagecolor="#ffffff"
     bordercolor="#000000"
     borderopacity="0.25"
     inkscape:showpageshadow="2"
     inkscape:pageopacity="0.0"
     inkscape:pagecheckerboard="0"
     inkscape:deskcolor="#d1d1d1"
     inkscape:document-units="mm"
     showguides="false"
     inkscape:zoom="2"
     inkscape:cx="57.5"
     inkscape:cy="36.5"
     inkscape:window-width="1050"
     inkscape:window-height="1081"
     inkscape:window-x="857"
     inkscape:window-y="0"
     inkscape:window-maximized="0"
     inkscape:current-layer="layer1" />
  <defs
     id="defs1" />
  <g
     inkscape:label="Layer 1"
     inkscape:groupmode="layer"
     id="layer1"
     transform="translate(-70.643761,-99.218767)">
    <g
       id="g6448"
       transform="translate(518.44282,275.77487)">
      <path
         style="fill:#000000;stroke-width:0.1;stroke-dasharray:none"
         d="m -427.20734,-137.6022 c -0.15259,-0.15471 -0.27742,-0.81086 -0.27742,-1.45811 0,-1.02033 -0.20208,-1.26793 -1.51973,-1.86211 -1.59585,-0.71963 -2.77899,-2.08496 -2.37424,-2.73986 0.37566,-0.60784 1.0939,-0.45914 2.54771,0.52744 l 1.34626,0.91359 v -0.89633 c 0,-0.55156 -0.37299,-1.15195 -0.96973,-1.56092 -1.87363,-1.28407 -2.72925,-2.30251 -2.72925,-3.24866 0,-1.42144 0.97641,-1.5625 2.28883,-0.33067 l 1.13495,1.06526 -0.19591,-1.83736 c -0.10778,-1.01054 -0.3849,-1.90035 -0.61586,-1.97734 -1.80546,-0.60181 -3.92951,-4.07822 -3.03705,-4.97067 0.27952,-0.27954 0.83049,0.0414 1.8894,1.10022 l 1.49483,1.49483 v -1.56371 c 0,-1.1204 -0.22088,-1.76344 -0.77916,-2.26832 -1.04194,-0.94232 -2.28073,-3.42269 -2.03249,-4.06959 0.31127,-0.81117 1.2052,-0.61199 2.045,0.45563 0.7374,0.93744 0.76665,0.9438 0.76665,0.16659 0,-0.44443 -0.2588,-1.3085 -0.5751,-1.92017 -0.73611,-1.42347 -0.57293,-3.99939 0.28749,-4.53856 1.4163,-0.8875 1.82872,0.79244 1.26001,5.13257 l -0.29081,2.21938 0.96747,-1.18532 c 0.61535,-0.75391 1.17448,-1.10589 1.53621,-0.96708 0.80006,0.30701 0.40044,1.60851 -1.16134,3.7824 -0.86264,1.20075 -1.28334,2.19787 -1.2817,3.03789 l 0.003,1.25046 0.71276,-1.08121 c 0.88788,-1.34688 1.81024,-1.90238 2.31712,-1.39549 0.55948,0.55948 -0.26399,2.69836 -1.66114,4.3146 -1.01871,1.17848 -1.17029,1.60607 -1.06009,2.99068 l 0.12862,1.6156 0.92153,-1.09518 c 0.98185,-1.16687 2.33535,-1.47149 2.33535,-0.52559 0,0.84059 -1.28498,3.20952 -2.18002,4.01899 -0.45052,0.40729 -0.77931,1.15623 -0.77931,1.7748 v 1.07017 l 1.35139,-1.31243 c 1.43677,-1.3954 2.24413,-1.64257 2.57224,-0.78749 0.29745,0.77513 -0.73441,2.12658 -2.4112,3.15801 -1.26179,0.77615 -1.49341,1.11857 -1.58737,2.34656 -0.0605,0.7908 -0.23485,1.31122 -0.38743,1.1565 z"
         id="path1587-1-29-6"
         sodipodi:nodetypes="ssssscsssscsssscsssssssscsssccsssscsscscssssss" />
      <circle
         style="fill:none;stroke:#ff0000;stroke-width:0.1;stroke-dasharray:none"
         id="path788-8-1-8-1-9-2-2-46"
         cx="-427.29456"
         cy="-156.05161"
         r="19.954653" />
      <ellipse
         style="fill:none;stroke:#ff00ff;stroke-width:0.1;stroke-dasharray:none;stroke-opacity:1"
         id="path1138-9-4-0-0-1-2-8-3"
         cx="-427.29456"
         cy="-156.05161"
         rx="18.492125"
         ry="18.492126" />
      <circle
         style="fill:none;stroke:#0000ff;stroke-width:0.1;stroke-linecap:round;stroke-dasharray:none;stroke-opacity:1;paint-order:markers stroke fill"
         id="path13019-1-33-4-4"
         cx="-427.29459"
         cy="-171.06258"
         r="2" />
    </g>
  </g>
</svg>
