<?xml version="1.0" encoding="UTF-8" standalone="no"?>
<!-- Created with Inkscape (http://www.inkscape.org/) -->

<svg
   width="41.008999mm"
   height="41.008999mm"
   viewBox="0 0 41.008999 41.008999"
   version="1.1"
   id="svg1"
   sodipodi:docname="119.svg"
   inkscape:version="1.4.2 (f4327f4, 2025-05-13)"
   xmlns:inkscape="http://www.inkscape.org/namespaces/inkscape"
   xmlns:sodipodi="http://sodipodi.sourceforge.net/DTD/sodipodi-0.dtd"
   xmlns="http://www.w3.org/2000/svg"
   xmlns:svg="http://www.w3.org/2000/svg">
  <sodipodi:namedview
     id="namedview1"
     pagecolor="#ffffff"
     bordercolor="#000000"
     borderopacity="0.25"
     inkscape:showpageshadow="2"
     inkscape:pageopacity="0.0"
     inkscape:pagecheckerboard="0"
     inkscape:deskcolor="#d1d1d1"
     inkscape:document-units="mm"
     showguides="false"
     inkscape:zoom="2"
     inkscape:cx="57.5"
     inkscape:cy="36.5"
     inkscape:window-width="1050"
     inkscape:window-height="1081"
     inkscape:window-x="857"
     inkscape:window-y="0"
     inkscape:window-maximized="0"
     inkscape:current-layer="layer1" />
  <defs
     id="defs1" />
  <g
     inkscape:label="Layer 1"
     inkscape:groupmode="layer"
     id="layer1"
     transform="translate(-70.643761,-99.218767)">
    <g
       id="g6454"
       transform="translate(477.69684,275.77487)">
      <path
         style="fill:#000000;stroke-width:0.1;stroke-dasharray:none"
         d="m -387.60525,-139.29278 c 0,-0.22185 0.16073,-0.93984 0.35718,-1.59551 l 0.35717,-1.19214 -1.4176,-1.21172 c -2.6385,-2.25532 -3.91156,-5.66139 -1.46484,-3.91917 0.96833,0.68951 2.77286,3.2069 2.77286,3.86824 0,0.22095 0.12377,0.40173 0.27507,0.40173 0.31231,0 1.03919,-3.9198 0.88008,-4.74598 -0.0574,-0.29761 -0.51075,-0.73054 -1.00766,-0.96205 -1.59588,-0.74356 -3.77609,-2.55858 -3.77609,-3.14359 0,-0.44446 0.14326,-0.51882 0.68036,-0.35313 1.32977,0.41019 2.26644,1.02403 3.22016,2.11026 l 0.96647,1.10074 -0.0901,-2.03564 -0.0901,-2.03563 -1.36072,-0.35978 c -3.41133,-0.90196 -5.90846,-2.88005 -3.63575,-2.88005 1.11162,0 2.56206,0.67921 3.67817,1.72242 1.01585,0.94948 1.20273,0.61519 0.66709,-1.19325 -0.37233,-1.25704 -0.52808,-1.43636 -1.24783,-1.43656 -0.45233,-1.4e-4 -1.63884,-0.38681 -2.63671,-0.85927 -1.99407,-0.94415 -2.81463,-1.67522 -2.26293,-2.01619 0.62474,-0.38611 2.36608,0.16788 3.94793,1.25599 l 1.57232,1.08156 -0.20835,-0.86486 c -0.20368,-0.84549 -0.40582,-1.28348 -2.12478,-4.604 -1.65712,-3.20105 -1.21647,-5.43422 0.54659,-2.77006 0.77214,1.1668 0.96575,1.78587 1.75207,5.60203 l 0.37384,1.8143 0.22322,-2.09753 c 0.26336,-2.47463 1.04478,-4.70608 1.64801,-4.70608 0.72211,0 0.50726,2.26928 -0.4898,5.17316 -0.88122,2.56652 -0.90085,2.73305 -0.48563,4.11806 0.42499,1.41755 0.56428,1.38402 0.91316,-0.21972 0.22348,-1.0273 1.88961,-3.60417 2.47579,-3.82912 1.67035,-0.64097 0.67413,2.47309 -1.51515,4.73627 l -1.31632,1.36071 0.16189,2.36294 c 0.17104,2.49659 0.36966,2.62815 0.99771,0.66089 0.72243,-2.26281 2.26262,-4.09243 3.04041,-3.61173 0.83685,0.51721 -0.38942,3.20707 -2.36954,5.19763 -1.31351,1.32043 -1.51955,1.70156 -1.69419,3.13371 -0.10938,0.89675 -0.29003,1.97063 -0.4015,2.3864 -0.18203,0.67892 -0.15111,0.71368 0.30334,0.34097 0.27829,-0.22826 0.50601,-0.58663 0.50601,-0.79638 0,-0.20975 0.53615,-0.86575 1.19146,-1.45778 2.64708,-2.39148 4.47288,-2.54008 2.95088,-0.24016 -0.92822,1.40264 -2.59515,2.75387 -3.41493,2.76818 -0.89228,0.0155 -1.86151,0.99434 -2.42356,2.44741 -0.56508,1.46086 -1.0253,2.13124 -1.0253,1.49348 z"
         id="path1587-1-0"
         sodipodi:nodetypes="sscssssssssscccsssssssscsssscssssssscssssssssssssss" />
      <circle
         style="fill:none;stroke:#ff0000;stroke-width:0.1;stroke-dasharray:none"
         id="path788-8-1-8-1-9-2-56-9"
         cx="-386.54858"
         cy="-156.05161"
         r="19.954653" />
      <ellipse
         style="fill:none;stroke:#ff00ff;stroke-width:0.1;stroke-dasharray:none;stroke-opacity:1"
         id="path1138-9-4-0-0-1-2-4-2"
         cx="-386.54858"
         cy="-156.05161"
         rx="18.492125"
         ry="18.492126" />
      <circle
         style="fill:none;stroke:#0000ff;stroke-width:0.1;stroke-linecap:round;stroke-dasharray:none;stroke-opacity:1;paint-order:markers stroke fill"
         id="path13019-1-33-6-69"
         cx="-386.54858"
         cy="-171.06258"
         r="2" />
    </g>
  </g>
</svg>
