<?xml version="1.0" encoding="UTF-8" standalone="no"?>
<!-- Created with Inkscape (http://www.inkscape.org/) -->

<svg
   width="41.008999mm"
   height="41.008999mm"
   viewBox="0 0 41.008999 41.008999"
   version="1.1"
   id="svg1"
   sodipodi:docname="121.svg"
   inkscape:version="1.4.2 (f4327f4, 2025-05-13)"
   xmlns:inkscape="http://www.inkscape.org/namespaces/inkscape"
   xmlns:sodipodi="http://sodipodi.sourceforge.net/DTD/sodipodi-0.dtd"
   xmlns="http://www.w3.org/2000/svg"
   xmlns:svg="http://www.w3.org/2000/svg">
  <sodipodi:namedview
     id="namedview1"
     pagecolor="#ffffff"
     bordercolor="#000000"
     borderopacity="0.25"
     inkscape:showpageshadow="2"
     inkscape:pageopacity="0.0"
     inkscape:pagecheckerboard="0"
     inkscape:deskcolor="#d1d1d1"
     inkscape:document-units="mm"
     showguides="false"
     inkscape:zoom="2"
     inkscape:cx="57.5"
     inkscape:cy="36.5"
     inkscape:window-width="1050"
     inkscape:window-height="1081"
     inkscape:window-x="857"
     inkscape:window-y="0"
     inkscape:window-maximized="0"
     inkscape:current-layer="layer1" />
  <defs
     id="defs1" />
  <g
     inkscape:label="Layer 1"
     inkscape:groupmode="layer"
     id="layer1"
     transform="translate(-70.643761,-99.218767)">
    <g
       id="g6275"
       transform="translate(599.10306,226.53209)">
      <path
         style="fill:#000000;stroke-width:0.1;stroke-dasharray:none"
         d="m -508.0781,-90.74052 c 0.65702,-2.00391 0.6582,-2.06496 0.0486,-2.51071 -0.34363,-0.25127 -1.0838,-0.45742 -1.64483,-0.4581 -1.90706,-0.003 -4.18805,-2.08131 -4.18805,-3.81714 0,-0.62741 -0.16763,-0.62886 2.02369,0.0175 2.17123,0.64042 2.60878,0.96621 3.20128,2.38366 0.84519,2.02197 1.2268,1.31464 0.98953,-1.8341 -0.27048,-3.58939 -0.86671,-4.62555 -2.57928,-4.48242 -0.8651,0.0723 -1.41106,-0.14391 -2.30132,-0.91138 -0.98356,-0.84787 -1.08847,-1.06229 -0.66695,-1.36301 0.94382,-0.67334 3.09078,-0.13316 4.0588,1.02119 l 0.8908,1.06229 -0.29927,-1.28985 c -0.1646,-0.70943 -0.30285,-1.93749 -0.30722,-2.72904 -0.009,-1.61304 -0.47593,-2.72925 -1.14188,-2.72925 -1.20908,0 -3.29949,-2.70291 -2.6177,-3.38468 0.38127,-0.38129 2.64158,1.21528 3.18273,2.24813 0.43018,0.82101 0.45806,0.77889 0.83359,-1.25915 0.22843,-1.23971 0.27645,-2.52031 0.11658,-3.10779 -0.30128,-1.10694 0.0731,-2.86572 0.86816,-4.07923 0.72017,-1.09913 1.05849,-0.57376 1.16251,1.80524 0.066,1.51032 -0.0524,2.19835 -0.45735,2.65686 -0.49985,0.56597 -1.3943,3.79122 -1.12584,4.05968 0.063,0.063 0.35804,-0.39814 0.65547,-1.02493 0.51355,-1.08222 3.00012,-2.8782 3.41312,-2.4652 0.73679,0.73679 -1.57999,3.88414 -2.8591,3.88414 -1.10369,0 -1.47745,1.17535 -1.28174,4.0307 0.19583,2.85713 0.88262,4.7974 0.90073,2.54467 0.02,-2.49544 1.8125,-4.90802 3.64647,-4.90802 0.70617,0 0.94515,0.47536 0.40638,0.80834 -0.16086,0.0994 -0.46421,0.86281 -0.67412,1.69645 -0.20992,0.83363 -0.69865,1.77407 -1.0861,2.08987 -2.60322,2.12186 -2.39086,1.60868 -2.10789,5.09377 0.22161,2.72924 0.30024,3.01657 0.58835,2.14987 0.18292,-0.55023 0.59554,-1.37661 0.91693,-1.83638 0.66076,-0.94524 3.18925,-2.48349 3.43326,-2.08868 0.20973,0.33933 -0.54972,2.5266 -1.24648,3.59 -0.30205,0.46098 -1.09448,1.1001 -1.76096,1.42028 -1.37872,0.66235 -1.4978,0.84429 -2.33184,3.56271 -0.33415,1.08907 -0.77064,2.03131 -0.96998,2.09385 -0.21165,0.0664 -0.0823,-0.74073 0.31095,-1.94011 z"
         id="path1587-1-86"
         sodipodi:nodetypes="sscsssssssscssssssssssssssssssssssssssssss" />
      <circle
         style="fill:none;stroke:#ff0000;stroke-width:0.1;stroke-dasharray:none"
         id="path788-8-1-8-1-9-2-4-0"
         cx="-507.9548"
         cy="-106.80882"
         r="19.954653" />
      <ellipse
         style="fill:none;stroke:#ff00ff;stroke-width:0.1;stroke-dasharray:none;stroke-opacity:1"
         id="path1138-9-4-0-0-1-2-24-0"
         cx="-507.9548"
         cy="-106.80882"
         rx="18.492125"
         ry="18.492126" />
      <circle
         style="fill:none;stroke:#0000ff;stroke-width:0.1;stroke-linecap:round;stroke-dasharray:none;stroke-opacity:1;paint-order:markers stroke fill"
         id="path13019-1-33-9-4"
         cx="-507.9548"
         cy="-121.81979"
         r="2" />
    </g>
  </g>
</svg>
