<?xml version="1.0" encoding="UTF-8" standalone="no"?>
<!-- Created with Inkscape (http://www.inkscape.org/) -->

<svg
   width="41.008999mm"
   height="41.008999mm"
   viewBox="0 0 41.008999 41.008999"
   version="1.1"
   id="svg1"
   sodipodi:docname="123.svg"
   inkscape:version="1.4.2 (f4327f4, 2025-05-13)"
   xmlns:inkscape="http://www.inkscape.org/namespaces/inkscape"
   xmlns:sodipodi="http://sodipodi.sourceforge.net/DTD/sodipodi-0.dtd"
   xmlns="http://www.w3.org/2000/svg"
   xmlns:svg="http://www.w3.org/2000/svg">
  <sodipodi:namedview
     id="namedview1"
     pagecolor="#ffffff"
     bordercolor="#000000"
     borderopacity="0.25"
     inkscape:showpageshadow="2"
     inkscape:pageopacity="0.0"
     inkscape:pagecheckerboard="0"
     inkscape:deskcolor="#d1d1d1"
     inkscape:document-units="mm"
     showguides="false"
     inkscape:zoom="2"
     inkscape:cx="57.5"
     inkscape:cy="36.5"
     inkscape:window-width="1050"
     inkscape:window-height="1081"
     inkscape:window-x="857"
     inkscape:window-y="0"
     inkscape:window-maximized="0"
     inkscape:current-layer="layer1" />
  <defs
     id="defs1" />
  <g
     inkscape:label="Layer 1"
     inkscape:groupmode="layer"
     id="layer1"
     transform="translate(-70.643761,-99.218767)">
    <g
       id="g6311"
       transform="translate(514.98368,226.17437)">
      <path
         style="fill:#000000;stroke-width:0.1;stroke-dasharray:none"
         d="m -427.68007,-90.92101 c 1.13578,-1.38606 1.20236,-1.57653 0.73669,-2.10701 -0.70466,-0.80277 -0.97137,-1.83943 -0.61803,-2.40226 0.45542,-0.72541 1.36476,-0.16977 1.59345,0.97367 0.16419,0.82101 0.29688,0.94843 0.66741,0.64093 0.69042,-0.573 0.55933,-1.50318 -0.29144,-2.06807 -0.65778,-0.43675 -0.69431,-0.57239 -0.28653,-1.06373 0.60265,-0.72615 1.13807,-0.53535 1.39106,0.49568 0.16706,0.68084 0.27241,0.52411 0.62895,-0.93566 0.41169,-1.68556 0.39454,-1.79771 -0.44283,-2.89556 -1.22505,-1.60612 -1.72792,-3.15621 -1.22178,-3.76606 0.52164,-0.62855 1.26337,-0.31557 1.86163,0.7855 0.47566,0.87542 0.4822,0.86604 0.49551,-0.7097 0.0127,-1.51019 -0.0503,-1.62347 -1.1632,-2.08846 -1.55546,-0.64992 -2.91737,-2.03261 -2.66075,-2.70135 0.2829,-0.73724 1.56169,-0.65191 2.61205,0.17431 0.68535,0.53909 0.88828,0.58613 0.88828,0.20591 0,-0.91782 -1.25396,-2.08456 -2.2404,-2.08456 -0.63406,0 -0.98618,-0.19555 -1.06415,-0.59099 -0.16864,-0.85537 0.85477,-1.11194 1.63149,-0.40902 0.36393,0.32936 0.65919,0.46153 0.65614,0.29373 -0.006,-0.32174 -1.11056,-2.2047 -2.09656,-3.57358 -0.92724,-1.28726 -1.13846,-2.91024 -0.41491,-3.18789 0.81507,-0.31277 1.78837,0.94057 2.0627,2.65618 l 0.21498,1.3444 0.45136,-1.07345 c 0.30586,-0.72746 0.64201,-1.03674 1.04288,-0.95953 0.87879,0.16923 0.91252,1.13914 0.0942,2.70909 -0.65836,1.26311 -0.68787,1.54051 -0.30816,2.89674 l 0.41994,1.49984 0.64617,-0.88703 c 1.54971,-2.12742 2.23326,-0.0645 0.76729,2.31562 -0.45681,0.74168 -0.8353,1.79603 -0.84109,2.34302 -0.0115,1.07286 0.51048,0.8407 0.71991,-0.32028 0.17332,-0.96091 1.42975,-0.8934 1.56861,0.0842 0.0729,0.51277 -0.0654,0.75853 -0.42636,0.75853 -0.47556,0 -1.86819,1.81128 -1.87142,2.43399 -6.8e-4,0.13347 0.55088,-0.13202 1.22572,-0.58997 1.46944,-0.99718 1.68394,-1.01851 2.11637,-0.21053 0.45257,0.84566 -0.2749,1.82877 -2.17896,2.94462 -0.82583,0.48397 -1.50359,1.05515 -1.50611,1.26931 -0.003,0.21415 -0.10219,0.76863 -0.22149,1.23217 -0.21486,0.83494 -0.21021,0.83693 0.49773,0.21196 0.84568,-0.74653 1.7511,-0.51298 1.7511,0.45172 0,0.56944 -0.21808,0.68483 -1.29438,0.68483 -1.0599,0 -1.36526,0.15555 -1.68562,0.85866 -0.51084,1.12118 -0.52331,1.09582 0.44737,0.91026 0.56947,-0.10881 0.90618,0.0157 1.04909,0.38817 0.31861,0.83026 -0.47072,1.53234 -1.99714,1.77643 -0.92648,0.14815 -1.82545,0.6386 -2.77519,1.51404 -1.88334,1.73599 -2.15963,1.63587 -0.6316,-0.2289 z m 4.37888,-2.34239 c 0.52317,-0.39571 0.54901,-0.49712 0.12887,-0.50569 -0.28905,-0.006 -0.82002,0.21202 -1.17993,0.48424 -0.52318,0.39571 -0.54902,0.49712 -0.12887,0.5057 0.28904,0.006 0.82001,-0.21203 1.17993,-0.48425 z m -3.22253,-1.0221 c 0,-0.27813 -0.14693,-0.50568 -0.32654,-0.50568 -0.17959,0 -0.23921,0.22755 -0.13249,0.50568 0.10678,0.27814 0.25368,0.50569 0.32655,0.50569 0.0729,0 0.13248,-0.22755 0.13248,-0.50569 z m 5.95888,-7.02617 c 0.71399,-0.65432 1.08179,-1.21762 0.87748,-1.34389 -0.41418,-0.25598 -1.97058,0.89334 -2.46773,1.8223 -0.54685,1.02178 0.19766,0.79781 1.59025,-0.47841 z m -3.39561,-1.03341 c -0.27836,-0.66623 -0.66556,-1.21132 -0.86044,-1.21132 -0.5049,0 -0.44957,0.24444 0.39593,1.7488 0.88202,1.56934 1.19397,1.20837 0.46451,-0.53748 z m -0.46156,-5.26668 c -1.12883,-1.02684 -1.76457,-1.2644 -1.76457,-0.6594 0,0.3733 1.98413,1.68343 2.52842,1.66951 0.18541,-0.005 -0.15832,-0.4593 -0.76385,-1.01011 z m 2.94321,-1.82445 c -0.0115,-0.63452 -0.0533,-0.62176 -0.49374,0.14872 -0.6649,1.16312 -0.65669,2.08217 0.0102,1.19977 0.27223,-0.35992 0.48959,-0.96674 0.48303,-1.34849 z m -1.81586,-5.49982 c -0.28867,-0.28868 -0.45301,-0.0274 -0.69072,1.09805 l -0.21346,1.01068 0.54956,-0.95688 c 0.30227,-0.5263 0.46185,-1.04463 0.35462,-1.15185 z m -2.40291,-0.87176 c -0.1199,-0.47783 -0.45589,-1.06462 -0.74657,-1.304 -0.46627,-0.38395 -0.49889,-0.31631 -0.27696,0.57426 0.25772,1.03407 0.85991,1.98014 1.10464,1.73541 0.0753,-0.0753 0.0389,-0.52786 -0.0812,-1.00567 z"
         id="path1587-1"
         sodipodi:nodetypes="cssssssssssssssssssscssscsssscsscsssssssssssssssssccscscsssssssssssssssscscscccsscssssssss" />
      <circle
         style="fill:none;stroke:#ff0000;stroke-width:0.1;stroke-dasharray:none"
         id="path788-8-1-8-1-9-2-2-4-1"
         cx="-423.83542"
         cy="-106.4511"
         r="19.954653" />
      <ellipse
         style="fill:none;stroke:#ff00ff;stroke-width:0.1;stroke-dasharray:none;stroke-opacity:1"
         id="path1138-9-4-0-0-1-2-8-2-1"
         cx="-423.83542"
         cy="-106.4511"
         rx="18.492125"
         ry="18.492126" />
      <circle
         style="fill:none;stroke:#0000ff;stroke-width:0.1;stroke-linecap:round;stroke-dasharray:none;stroke-opacity:1;paint-order:markers stroke fill"
         id="path13019-1-33-4-9-0"
         cx="-423.83542"
         cy="-121.46207"
         r="2" />
    </g>
  </g>
</svg>
