<?xml version="1.0" encoding="UTF-8" standalone="no"?>
<!-- Created with Inkscape (http://www.inkscape.org/) -->

<svg
   width="41.008999mm"
   height="41.008999mm"
   viewBox="0 0 41.008999 41.008999"
   version="1.1"
   id="svg1"
   sodipodi:docname="125.svg"
   inkscape:version="1.4.2 (f4327f4, 2025-05-13)"
   xmlns:inkscape="http://www.inkscape.org/namespaces/inkscape"
   xmlns:sodipodi="http://sodipodi.sourceforge.net/DTD/sodipodi-0.dtd"
   xmlns="http://www.w3.org/2000/svg"
   xmlns:svg="http://www.w3.org/2000/svg">
  <sodipodi:namedview
     id="namedview1"
     pagecolor="#ffffff"
     bordercolor="#000000"
     borderopacity="0.25"
     inkscape:showpageshadow="2"
     inkscape:pageopacity="0.0"
     inkscape:pagecheckerboard="0"
     inkscape:deskcolor="#d1d1d1"
     inkscape:document-units="mm"
     showguides="false"
     inkscape:zoom="2"
     inkscape:cx="57.5"
     inkscape:cy="36.5"
     inkscape:window-width="1050"
     inkscape:window-height="1081"
     inkscape:window-x="857"
     inkscape:window-y="0"
     inkscape:window-maximized="0"
     inkscape:current-layer="layer1" />
  <defs
     id="defs1" />
  <g
     inkscape:label="Layer 1"
     inkscape:groupmode="layer"
     id="layer1"
     transform="translate(-70.643761,-99.218767)">
    <g
       id="g6229"
       transform="translate(641.30305,177.03743)">
      <path
         style="fill:#000000;stroke-width:0.1;stroke-dasharray:none"
         d="m -550.36631,-39.29415 c -0.0737,-0.30542 -0.21385,-1.38719 -0.31129,-2.40391 -0.19071,-1.9898 -0.56693,-1.82374 -0.5534,0.24428 0.005,0.91091 0.0429,0.99969 0.20485,0.49363 0.19214,-0.59997 0.19763,-0.59655 0.19763,0.12341 0,0.40725 -0.0848,1.01811 -0.18825,1.35748 -0.37822,1.23981 -0.57528,-0.21502 -0.40136,-2.96333 0.21339,-3.37237 -0.21747,-5.22036 -1.35418,-5.80818 -0.88618,-0.45827 -0.96537,-0.96892 -0.11722,-0.75604 0.57832,0.14515 0.5935,0.11949 0.34723,-0.58696 -0.20179,-0.57883 -0.47962,-0.79812 -1.2835,-1.01301 -1.17399,-0.31385 -1.64303,-0.6336 -1.64303,-1.1201 0,-0.45829 0.99283,-0.43204 1.67279,0.0442 0.62718,0.43929 0.65999,0.37721 0.26211,-0.49602 -0.15753,-0.34575 -0.46297,-0.63218 -0.67874,-0.6365 -0.50069,-0.01 -1.25616,-0.57831 -1.25616,-0.94492 0,-0.34755 0.14618,-0.35254 0.75667,-0.0259 0.66986,0.35849 0.60189,0.15866 -0.38645,-1.13613 -0.87521,-1.1466 -1.05158,-1.68921 -0.63313,-1.94782 0.31506,-0.19471 1.36963,1.26415 1.73239,2.39652 0.16308,0.50905 0.35532,0.92555 0.42719,0.92555 0.0718,0 0.0668,-0.1666 -0.0113,-0.37021 -0.0781,-0.20363 -0.0771,-0.53967 0.003,-0.74676 0.11547,-0.30089 0.21708,-0.31627 0.50591,-0.0766 0.25088,0.20822 0.34627,0.71963 0.31192,1.67231 -0.0273,0.7548 -0.0252,1.59449 0.004,1.86599 0.0486,0.44351 0.0703,0.43576 0.21459,-0.0763 0.29901,-1.0617 0.6541,-0.42542 0.66238,1.18695 0.007,1.502 0.50282,3.89049 0.75433,3.63899 0.25741,-0.25742 0.11319,-3.68309 -0.25194,-5.98374 -0.6167,-3.88596 -0.58016,-3.78813 -1.61171,-4.31439 -1.11423,-0.56841 -1.4931,-1.23898 -0.70007,-1.23898 0.29049,0 0.73208,0.18456 0.98132,0.41012 0.43312,0.39196 0.44607,0.37284 0.29251,-0.43193 -0.19935,-1.04473 -0.15967,-1.00294 -1.38155,-1.45491 -1.03697,-0.38357 -1.53634,-0.99145 -0.81447,-0.99145 0.22167,0 0.71957,0.16369 1.10645,0.36375 0.66802,0.34545 0.6968,0.3386 0.57269,-0.13606 -0.078,-0.29864 -0.71384,-0.79415 -1.57951,-1.23115 -1.03521,-0.52257 -1.4488,-0.87126 -1.4488,-1.22143 0,-0.65927 0.48472,-0.61688 1.59986,0.13988 l 0.92829,0.62996 -0.16977,-0.67641 c -0.19545,-0.77874 -0.71973,-1.23647 -1.66259,-1.45156 -0.87967,-0.20067 -1.41052,-0.81729 -0.94912,-1.10246 0.38674,-0.23902 0.94,-0.0811 1.54911,0.44198 0.50467,0.43343 0.52035,0.37493 0.16936,-0.63189 -0.21755,-0.62409 -0.50311,-0.83135 -1.66601,-1.20921 -0.91025,-0.29577 -1.43149,-0.60781 -1.48324,-0.88795 -0.10993,-0.59499 0.84002,-0.56852 1.85729,0.0517 0.96201,0.58657 0.89948,0.30641 -0.34412,-1.54157 -0.8302,-1.23368 -0.91806,-1.66432 -0.37636,-1.84488 0.40373,-0.13458 1.19749,1.26773 1.40891,2.48906 0.17662,1.02025 0.18089,1.02384 0.41943,0.35201 0.13255,-0.37332 0.41287,-0.67876 0.62295,-0.67876 0.30862,0 0.34759,0.17769 0.20302,0.92558 -0.40292,2.08436 -0.39961,2.46311 0.0119,1.35748 0.27296,-0.73344 0.5327,-1.04896 0.86346,-1.04896 0.63952,0 0.59516,0.51602 -0.17015,1.97965 -0.37841,0.7237 -0.57646,1.40411 -0.48107,1.65269 0.13956,0.36368 0.20422,0.33783 0.46428,-0.1857 0.38937,-0.78384 1.40047,-0.97861 1.40047,-0.26977 0,0.27293 -0.11186,0.56536 -0.24858,0.64986 -0.57524,0.35552 -1.00307,1.62881 -0.83977,2.49929 l 0.16552,0.88233 0.54397,-0.6822 c 0.32285,-0.40489 0.66273,-0.6088 0.83613,-0.50163 0.2102,0.12992 0.10422,0.51498 -0.37802,1.37279 -0.56268,1.00095 -0.62546,1.28525 -0.39143,1.77208 0.27604,0.57417 0.27893,0.57456 0.29547,0.0391 0.02,-0.64557 0.45183,-0.97395 0.80996,-0.61583 0.1776,0.1776 0.0954,0.51741 -0.26688,1.10363 l -0.52348,0.84701 0.54433,3.21008 0.54433,3.21007 0.57806,-2.86664 0.57805,-2.86665 -0.53707,-1.14695 c -0.49041,-1.04728 -0.49539,-1.69143 -0.013,-1.69143 0.10315,0 0.35557,0.35493 0.56102,0.78874 l 0.37353,0.78873 0.29941,-1.18903 c 0.26949,-1.0702 0.24454,-1.32145 -0.24951,-2.51344 -0.30191,-0.72841 -0.4762,-1.3971 -0.38733,-1.48599 0.25746,-0.25745 0.84949,0.36203 1.04289,1.09123 l 0.17734,0.66862 0.30019,-0.86193 c 0.25807,-0.74105 0.23305,-1.01374 -0.17849,-1.94409 -0.37815,-0.85485 -0.42263,-1.20516 -0.21178,-1.66792 0.52504,-1.15235 0.94386,-0.54907 0.79273,1.14194 -0.0349,0.39125 0.029,0.52672 0.17476,0.37021 0.43674,-0.4689 0.70373,-1.73044 0.53365,-2.52158 -0.20453,-0.95142 -0.0353,-1.20796 0.4101,-0.62149 0.24271,0.31964 0.32706,0.34021 0.33291,0.0811 0.0118,-0.51909 1.21432,-1.99783 1.62472,-1.99783 0.64459,0 0.37666,0.70259 -0.753,1.97453 -1.23303,1.38832 -1.44008,1.95493 -0.48593,1.32974 0.3436,-0.22513 0.69264,-0.34145 0.77561,-0.25847 0.23087,0.23086 -0.34899,0.81683 -1.12736,1.13924 -0.48884,0.20249 -0.78214,0.57022 -0.97908,1.22756 -0.39712,1.32545 -0.38381,1.33898 0.63524,0.64651 0.9376,-0.63711 1.44772,-0.54802 1.15969,0.20257 -0.18886,0.49217 -1.34864,1.14282 -2.03711,1.14282 -0.31889,0 -0.53326,0.22697 -0.64101,0.67874 -0.089,0.3733 -0.22554,0.8917 -0.30332,1.15198 -0.13219,0.44232 -0.0973,0.4385 0.53437,-0.0583 0.37169,-0.29236 0.77381,-0.47099 0.8936,-0.39696 0.48367,0.29893 0.16467,0.863 -0.75271,1.33102 -1.11989,0.57131 -1.13372,0.58881 -1.37271,1.73626 l -0.17994,0.86386 0.7479,-0.70572 c 0.73187,-0.6906 1.28163,-0.70833 1.28163,-0.0414 0,0.18398 -0.53313,0.66252 -1.18473,1.06346 l -1.18473,0.72897 -0.55304,2.97855 c -0.44688,2.40671 -0.52024,3.41346 -0.38206,5.24383 l 0.17101,2.26528 0.45899,-1.20042 c 0.32268,-0.84391 0.41317,-1.51194 0.30467,-2.24938 -0.16444,-1.1177 0.0129,-1.31843 0.54541,-0.61705 0.30052,0.39588 0.32832,0.38042 0.33306,-0.1851 0.003,-0.33938 -0.14969,-1.12732 -0.339,-1.75098 -0.38112,-1.25565 -0.19479,-1.99009 0.34109,-1.3444 0.17502,0.2109 0.39461,0.74372 0.48798,1.18407 l 0.16977,0.80063 0.40285,-0.76488 c 0.35797,-0.67966 0.36416,-0.89343 0.0556,-1.91875 -0.33383,-1.10925 -0.28194,-1.88247 0.12632,-1.88247 0.50058,0 1.05615,2.45528 0.66477,2.93786 -0.24675,0.30424 -0.21445,0.3311 0.19909,0.16555 1.00593,-0.40271 1.27544,-0.41447 1.56288,-0.0681 0.40744,0.49094 -0.10496,0.88023 -1.46392,1.11222 -0.8392,0.14327 -1.16123,0.34758 -1.5223,0.96583 l -0.45795,0.78412 0.91206,-0.14801 c 1.25906,-0.20432 1.03499,0.44085 -0.28137,0.81018 -0.8955,0.25126 -1.01145,0.39211 -1.62742,1.97689 -0.8736,2.24764 -1.02218,3.31628 -0.76055,5.47029 0.20348,1.67536 0.031,2.47064 -0.2677,1.23409 z m -0.275,-6.7934 c -0.32004,-0.32004 -0.40857,0.22385 -0.21823,1.34083 l 0.20362,1.195 0.0763,-1.19891 c 0.042,-0.6594 0.0142,-1.26102 -0.0617,-1.33692 z m 4.30465,-6.40902 c 0,-0.15489 0.11108,-0.35026 0.24683,-0.43416 0.13574,-0.0839 0.24681,-0.75686 0.24681,-1.49545 0,-0.73862 0.11106,-1.34294 0.24681,-1.34294 0.13576,0 0.24682,0.33976 0.24682,0.75502 0,1.01719 0.3372,0.74173 1.08108,-0.88314 0.45759,-0.99949 0.7518,-1.35278 1.12661,-1.35278 0.75058,0 0.62279,0.65325 -0.30424,1.5552 -0.44634,0.43426 -1.02945,1.05333 -1.29579,1.37574 l -0.48425,0.58617 0.80215,-0.17386 c 0.49546,-0.10738 0.80216,-0.0774 0.80216,0.0786 0,0.37373 -1.02053,1.02088 -1.60987,1.02088 -0.28202,0 -0.64603,0.13328 -0.80893,0.29618 -0.21335,0.21334 -0.29619,0.21742 -0.29619,0.0145 z"
         id="path27479"
         sodipodi:nodetypes="cscssssssssssssssssssscsscscssssssssssssscsssssssssssssssssssssscssssssscccccssscsssscsssscsssssssssssssssssscssscsscssssssscsssssssscssssccsscssscsssssssscsssscc" />
      <circle
         style="fill:none;stroke:#ff0000;stroke-width:0.1;stroke-dasharray:none"
         id="path788-8-1-8-1-9-2-1-4-5"
         cx="-550.15479"
         cy="-57.314159"
         r="19.954653" />
      <ellipse
         style="fill:none;stroke:#ff00ff;stroke-width:0.1;stroke-dasharray:none;stroke-opacity:1"
         id="path1138-9-4-0-0-1-2-6-7-1"
         cx="-550.15479"
         cy="-57.314159"
         rx="18.492125"
         ry="18.492126" />
      <circle
         style="fill:none;stroke:#0000ff;stroke-width:0.1;stroke-linecap:round;stroke-dasharray:none;stroke-opacity:1;paint-order:markers stroke fill"
         id="path13019-1-33-7-4-4"
         cx="-550.15472"
         cy="-72.325127"
         r="2" />
    </g>
  </g>
</svg>
