<?xml version="1.0" encoding="UTF-8" standalone="no"?>
<!-- Created with Inkscape (http://www.inkscape.org/) -->

<svg
   width="41.008999mm"
   height="41.008999mm"
   viewBox="0 0 41.008999 41.008999"
   version="1.1"
   id="svg1"
   sodipodi:docname="126.svg"
   inkscape:version="1.4.2 (f4327f4, 2025-05-13)"
   xmlns:inkscape="http://www.inkscape.org/namespaces/inkscape"
   xmlns:sodipodi="http://sodipodi.sourceforge.net/DTD/sodipodi-0.dtd"
   xmlns="http://www.w3.org/2000/svg"
   xmlns:svg="http://www.w3.org/2000/svg">
  <sodipodi:namedview
     id="namedview1"
     pagecolor="#ffffff"
     bordercolor="#000000"
     borderopacity="0.25"
     inkscape:showpageshadow="2"
     inkscape:pageopacity="0.0"
     inkscape:pagecheckerboard="0"
     inkscape:deskcolor="#d1d1d1"
     inkscape:document-units="mm"
     showguides="false"
     inkscape:zoom="2"
     inkscape:cx="57.5"
     inkscape:cy="36.5"
     inkscape:window-width="1050"
     inkscape:window-height="1081"
     inkscape:window-x="857"
     inkscape:window-y="0"
     inkscape:window-maximized="0"
     inkscape:current-layer="layer1" />
  <defs
     id="defs1" />
  <g
     inkscape:label="Layer 1"
     inkscape:groupmode="layer"
     id="layer1"
     transform="translate(-70.643761,-99.218767)">
    <g
       id="g6216"
       transform="translate(599.10303,177.03743)">
      <path
         style="fill:#000000;stroke-width:0.1;stroke-dasharray:none"
         d="m -508.96241,-42.07614 c 0.21562,-1.72576 0.1506,-2.03583 -0.64597,-3.08019 -0.48714,-0.63868 -1.95638,-1.87301 -3.26498,-2.74297 -2.70335,-1.79719 -3.41406,-2.5108 -2.95622,-2.96835 0.48544,-0.48517 2.53044,0.66555 3.08352,1.7351 0.73524,1.42177 1.55,1.59249 1.55,0.32476 0,-0.56425 0.15004,-1.02591 0.33343,-1.02591 0.50335,0 1.04892,1.21208 1.04892,2.33035 0,0.54638 0.20892,1.27914 0.46428,1.62836 0.41546,0.56819 0.4878,0.43894 0.68817,-1.22991 0.44791,-3.73045 0.31901,-4.77657 -0.64255,-5.21468 -1.06541,-0.48543 -2.45906,-2.61498 -2.00711,-3.06692 0.19411,-0.19411 0.78451,0.0801 1.51257,0.70242 1.5273,1.30553 1.71259,1.29529 1.71259,-0.0946 0,-1.41062 -1.94662,-4.74787 -3.82571,-6.5587 -1.19596,-1.15252 -1.82729,-2.6794 -1.09893,-2.6578 0.5567,0.0164 1.76911,1.26001 2.35112,2.41144 l 0.6114,1.20956 0.32444,-0.96765 c 0.53255,-1.58832 1.1183,-0.89138 1.1299,1.3444 0.0105,2.07435 0.63932,3.95812 0.96975,2.90635 0.0896,-0.28511 0.72219,-2.15129 1.40581,-4.14707 0.68362,-1.99578 1.24343,-4.01747 1.24403,-4.49267 10e-4,-0.9541 1.18038,-3.1103 1.70097,-3.1103 0.99114,0 0.58931,2.61613 -0.60467,3.9367 -0.80653,0.89206 -1.89299,4.01186 -1.39712,4.01186 0.19243,0 0.90007,-0.61287 1.57251,-1.36191 1.29896,-1.44697 3.0424,-2.31449 3.42084,-1.70217 0.36048,0.58328 -1.27,2.00721 -3.53757,3.08942 -1.96888,0.93967 -2.18353,1.15352 -2.6678,2.6582 -0.73509,2.28404 -1.25537,5.41995 -1.24238,7.48842 0.0104,1.61467 0.0504,1.69868 0.51837,1.08003 0.27908,-0.36895 0.5074,-1.10034 0.5074,-1.62529 0,-1.08341 0.65637,-2.71491 1.09224,-2.71491 0.31822,0 0.39369,0.41448 0.31461,1.72794 -0.0554,0.92046 -0.0784,0.93994 3.15473,-2.67832 0.38214,-0.42766 1.07274,-0.77757 1.53466,-0.77757 0.72797,0 0.79141,0.0905 0.47621,0.6795 -0.20002,0.37372 -0.76267,0.95691 -1.25036,1.29597 -1.17458,0.8166 -4.43246,3.6049 -4.55382,3.89746 -0.0526,0.12683 0.37504,0.16161 0.95038,0.0772 0.75484,-0.11076 1.04607,-0.0137 1.04607,0.34861 0,0.5937 -1.41432,1.30425 -2.59603,1.30425 -1.0837,0 -1.55105,0.91579 -1.55105,3.03936 0,2.46851 -0.38678,4.9092 -0.77797,4.9092 -0.209,0 -0.24674,-0.73387 -0.0986,-1.91894 z"
         id="path1587-1-5-4"
         sodipodi:nodetypes="ssssssssssssssssscscsssssssssscssssssssssssssss" />
      <circle
         style="fill:none;stroke:#ff0000;stroke-width:0.1;stroke-dasharray:none"
         id="path788-8-1-8-1-9-2-6-2"
         cx="-507.95477"
         cy="-57.314159"
         r="19.954653" />
      <ellipse
         style="fill:none;stroke:#ff00ff;stroke-width:0.1;stroke-dasharray:none;stroke-opacity:1"
         id="path1138-9-4-0-0-1-2-0-1"
         cx="-507.95477"
         cy="-57.314159"
         rx="18.492125"
         ry="18.492126" />
      <circle
         style="fill:none;stroke:#0000ff;stroke-width:0.1;stroke-linecap:round;stroke-dasharray:none;stroke-opacity:1;paint-order:markers stroke fill"
         id="path13019-1-33-3-8"
         cx="-507.95474"
         cy="-72.325127"
         r="2" />
    </g>
  </g>
</svg>
