<?xml version="1.0" encoding="UTF-8" standalone="no"?>
<!-- Created with Inkscape (http://www.inkscape.org/) -->

<svg
   width="41.008999mm"
   height="41.008999mm"
   viewBox="0 0 41.008999 41.008999"
   version="1.1"
   id="svg1"
   sodipodi:docname="127.svg"
   inkscape:version="1.4.2 (f4327f4, 2025-05-13)"
   xmlns:inkscape="http://www.inkscape.org/namespaces/inkscape"
   xmlns:sodipodi="http://sodipodi.sourceforge.net/DTD/sodipodi-0.dtd"
   xmlns="http://www.w3.org/2000/svg"
   xmlns:svg="http://www.w3.org/2000/svg">
  <sodipodi:namedview
     id="namedview1"
     pagecolor="#ffffff"
     bordercolor="#000000"
     borderopacity="0.25"
     inkscape:showpageshadow="2"
     inkscape:pageopacity="0.0"
     inkscape:pagecheckerboard="0"
     inkscape:deskcolor="#d1d1d1"
     inkscape:document-units="mm"
     showguides="false"
     inkscape:zoom="2"
     inkscape:cx="57.5"
     inkscape:cy="36.5"
     inkscape:window-width="1050"
     inkscape:window-height="1081"
     inkscape:window-x="857"
     inkscape:window-y="0"
     inkscape:window-maximized="0"
     inkscape:current-layer="layer1" />
  <defs
     id="defs1" />
  <g
     inkscape:label="Layer 1"
     inkscape:groupmode="layer"
     id="layer1"
     transform="translate(-70.643761,-99.218767)">
    <g
       id="g6203"
       transform="translate(556.90311,177.03743)">
      <path
         style="fill:#000000;stroke-width:0.1;stroke-dasharray:none"
         d="m -465.27967,-39.38911 c 0.009,-0.44946 -0.0862,-1.14587 -0.21211,-1.54758 -0.12589,-0.40172 -0.28095,-1.57556 -0.3446,-2.60854 -0.18236,-2.95933 -1.02636,-4.66667 -2.31739,-4.68786 -0.48119,-0.008 -0.82949,-0.35547 -0.59311,-0.59186 0.0766,-0.0766 0.53204,0.0773 1.01214,0.34187 l 0.87292,0.48108 -0.87883,-0.84968 c -0.68535,-0.66263 -1.03867,-0.84969 -1.60497,-0.84969 -0.78314,0 -1.14479,-0.31552 -0.77989,-0.68042 0.16313,-0.16312 0.53543,-0.0607 1.32782,0.36544 0.92216,0.49588 1.03987,0.52242 0.72421,0.1633 -0.42945,-0.48857 -1.85999,-1.23802 -2.67813,-1.40306 -0.63185,-0.12746 -0.90271,-0.60905 -0.52079,-0.92602 0.18889,-0.15676 0.59525,0.0221 1.486,0.65399 l 1.22603,0.86975 -0.47467,-0.84455 c -0.53219,-0.94692 -1.37547,-1.53736 -2.1957,-1.53736 -0.57923,0 -0.93925,-0.51409 -0.59859,-0.85474 0.1284,-0.1284 0.39443,-0.0482 0.73885,0.22272 0.54422,0.42808 1.00632,0.55398 0.97941,0.26683 -0.0441,-0.4702 -0.37618,-0.92737 -1.01712,-1.40014 -0.63254,-0.46657 -0.66383,-0.53017 -0.26086,-0.53017 0.71349,0 0.54373,-0.32742 -0.48116,-0.92804 -0.51649,-0.30268 -0.93907,-0.60361 -0.93907,-0.66871 0,-0.14851 1.23007,0.0177 1.72854,0.23348 0.33441,0.1448 0.34705,0.10615 0.12484,-0.38155 -0.13599,-0.29847 -0.40216,-0.59184 -0.59148,-0.65193 -0.46537,-0.1477 -1.99848,-1.73594 -1.83423,-1.90019 0.072,-0.072 0.40908,0.0671 0.74904,0.3092 0.33996,0.24207 0.66746,0.44013 0.72778,0.44013 0.0603,0 -0.12365,-0.57424 -0.40884,-1.27609 -0.28518,-0.70185 -0.4899,-1.57049 -0.45492,-1.93031 l 0.0636,-0.65423 0.29988,0.52171 c 0.16494,0.28693 0.36786,0.99124 0.45093,1.56511 0.0831,0.57389 0.31525,1.41905 0.51595,1.87815 l 0.36489,0.83473 0.22759,-1.01084 c 0.12517,-0.55596 0.29802,-0.93941 0.3841,-0.85212 0.21897,0.22204 0.19569,1.71287 -0.0334,2.14097 -0.12495,0.23346 -0.0928,0.53223 0.0939,0.87317 l 0.28384,0.51828 0.14087,-0.67821 c 0.29165,-1.40413 0.84606,-0.40313 0.61822,1.11619 -0.0892,0.59506 -0.0598,0.91846 0.0837,0.91846 0.12181,0 0.22147,-0.23477 0.22147,-0.52171 0,-0.28694 0.083,-0.5217 0.18435,-0.5217 0.25502,0 0.43546,0.76504 0.43885,1.86075 0.002,0.50692 0.0647,0.85989 0.14016,0.78437 0.26971,-0.26972 0.69328,0.32459 0.57298,0.80394 -0.0817,0.32546 0.0196,0.61978 0.31504,0.91519 0.23949,0.2395 0.43736,0.59979 0.43969,0.80064 0.002,0.20087 0.32789,1.21037 0.72347,2.24334 1.16938,3.05367 0.91313,1.09609 -0.38847,-2.96763 -0.61685,-1.92584 -1.23963,-4.2055 -1.38396,-5.0659 -0.22334,-1.33132 -0.38319,-1.70156 -1.07301,-2.48523 -0.73583,-0.83596 -1.5348,-2.68458 -1.2712,-2.94127 0.0589,-0.0574 0.14627,0.005 0.19409,0.13786 0.0478,0.13323 0.45755,0.77126 0.9105,1.41788 0.97745,1.39536 1.06606,1.76255 0.17852,0.73977 -0.3486,-0.40172 -0.54259,-0.54153 -0.43108,-0.31069 0.1115,0.23083 0.39685,0.59538 0.63412,0.8101 0.42381,0.38354 0.43461,0.38166 0.6147,-0.10667 0.10082,-0.2734 0.23835,-0.85037 0.30562,-1.28216 0.11672,-0.74922 0.0872,-0.79971 -0.64754,-1.10577 -1.67076,-0.696 -3.55924,-3.38495 -3.00292,-4.27576 0.13782,-0.22068 0.25058,-0.68718 0.25058,-1.03667 0,-0.73615 0.47895,-1.02328 1.08036,-0.64768 0.32605,0.20362 0.5023,0.17601 0.96361,-0.15092 0.54903,-0.38911 1.60355,-0.53262 2.02534,-0.27563 0.27831,0.16956 0.6967,0.25446 1.50478,0.30536 0.50355,0.0317 0.97597,0.3401 1.90113,1.24105 1.11357,1.08443 1.24334,1.30247 1.35966,2.28455 0.10206,0.86174 0.0543,1.16788 -0.23167,1.48406 -0.60559,0.66967 -1.94034,1.231 -3.33982,1.40456 -0.7324,0.0908 -1.37565,0.20916 -1.42944,0.26295 -0.41354,0.41354 -0.27877,5.36429 0.14604,5.36429 0.10652,0 0.19414,-0.16434 0.19474,-0.36519 6.2e-4,-0.20086 0.23242,-0.74083 0.51519,-1.19994 0.28276,-0.45909 0.51705,-1.08685 0.52064,-1.39502 0.0144,-1.23974 0.61019,-1.98871 1.88465,-2.36922 0.49113,-0.14664 0.48196,-0.11855 -0.15651,0.47936 -0.37302,0.34932 -0.68281,0.66787 -0.68844,0.70791 -0.43994,3.13272 -0.60666,3.76138 -1.21804,4.59272 -0.35744,0.48603 -0.64988,1.0656 -0.64988,1.28793 0,0.22233 0.39465,1.62578 0.87701,3.11879 l 0.87702,2.71454 0.40904,-1.2271 c 0.36193,-1.0858 0.38138,-1.38835 0.16891,-2.6274 -0.24091,-1.40489 -0.13442,-3.21485 0.20136,-3.42237 0.0988,-0.061 0.17953,0.0982 0.17953,0.3538 0,0.25562 0.10689,1.07854 0.23753,1.82872 l 0.23752,1.36396 0.37687,-0.9295 c 0.52233,-1.28829 0.49148,-1.71295 -0.21562,-2.96732 -0.33869,-0.60083 -0.67771,-1.48118 -0.75338,-1.95633 -0.14086,-0.88445 -0.0824,-0.99256 1.02404,-1.89334 0.37466,-0.30503 2.23944,-0.15272 3.16236,0.25828 1.4531,0.64711 2.54931,2.6964 1.85359,3.46517 -0.43138,0.47667 -2.84298,1.43365 -3.61282,1.43365 -0.54706,0 -0.64302,0.1083 -0.97061,1.09558 -0.19995,0.60257 -0.63392,1.75293 -0.96439,2.55637 l -0.60086,1.46077 1.20847,-1.16632 c 1.3396,-1.29288 2.31448,-2.06826 2.6004,-2.06826 0.66208,0 -2.21506,3.12915 -3.34608,3.63917 -0.98641,0.44482 -1.16935,0.95379 -0.84605,2.35395 0.12671,0.54876 0.26619,2.12464 0.30996,3.50195 0.0438,1.3773 0.13923,2.86822 0.21213,3.31316 0.0929,0.56718 0.0633,0.76621 -0.0989,0.6659 -0.12732,-0.0787 -0.24093,-0.39576 -0.25245,-0.70463 -0.017,-0.4533 -0.0581,-0.40302 -0.21369,0.26079 -0.26099,1.11362 -0.3945,1.18622 -0.37436,0.20353 z m 0.39148,-2.01712 c -0.005,-0.25825 -0.13772,-0.98602 -0.29527,-1.61729 l -0.28643,-1.14776 -0.0155,0.83474 c -0.021,1.13323 0.20314,2.39985 0.42463,2.39985 0.0998,0 0.1774,-0.21129 0.17253,-0.46954 z m -0.0971,-3.92637 c -0.0824,-0.71021 -0.21675,-1.18308 -0.29849,-1.05083 -0.15255,0.24683 0.1923,2.59815 0.35691,2.43354 0.0503,-0.0503 0.024,-0.67252 -0.0584,-1.38271 z m -1.55038,-3.18273 c -0.2229,-0.64788 -0.50201,-1.34412 -0.62024,-1.54719 -0.1853,-0.31827 -0.21584,-0.29003 -0.22133,0.20453 -0.006,0.48645 1.03573,2.73172 1.19351,2.57395 0.0293,-0.0293 -0.12905,-0.58342 -0.35194,-1.23129 z m 4.5527,-2.42571 c 1.07611,-1.29265 0.4819,-1.00909 -0.92045,0.43925 -1.05924,1.09398 -1.13631,1.22071 -0.51518,0.84716 0.40172,-0.24159 1.04775,-0.82047 1.43563,-1.28641 z m -5.87186,-0.70852 c -0.29434,-0.59783 -0.39215,-0.28257 -0.2235,0.7204 0.14803,0.88041 0.15867,0.89125 0.28296,0.28872 0.0711,-0.34433 0.0443,-0.79843 -0.0595,-1.00912 z m -0.57216,-0.0343 c 0,-0.32125 -0.11856,-0.5217 -0.30854,-0.5217 -0.25339,0 -0.26606,0.0933 -0.0708,0.5217 0.13074,0.28695 0.26958,0.52171 0.30855,0.52171 0.039,0 0.0708,-0.23476 0.0708,-0.52171 z m 4.11225,-1.61729 c -0.0498,-0.25824 -0.0904,-0.0469 -0.0904,0.46954 0,0.51649 0.0407,0.72778 0.0904,0.46954 0.0498,-0.25825 0.0498,-0.68083 0,-0.93908 z m -4.37862,0.47365 c 0.0171,-0.22729 -0.0571,-0.46778 -0.1649,-0.53441 -0.15195,-0.0939 -0.15281,0.38679 -0.002,0.8955 0.0532,0.1791 0.13999,-0.009 0.16651,-0.36109 z m -0.68516,-0.91856 c -0.0754,-0.30048 -0.27021,-0.54633 -0.43289,-0.54633 -0.24702,0 -0.24076,0.10634 0.038,0.64544 0.38614,0.74672 0.59406,0.69453 0.39487,-0.0991 z m -0.55779,-1.58993 c -0.13677,-0.219 -0.28909,-0.35779 -0.33849,-0.30839 -0.0494,0.0494 0.0166,0.21811 0.14681,0.3749 0.13013,0.15681 0.16699,0.36195 0.0819,0.45587 -0.0851,0.0939 -0.0392,0.10441 0.10188,0.0233 0.19979,-0.11483 0.20154,-0.23562 0.008,-0.54568 z m 3.58109,-0.39604 c 0.26772,-0.37598 0.5167,-1.2229 0.65785,-2.23775 0.12491,-0.89805 0.32848,-1.82316 0.45238,-2.05579 0.19669,-0.36931 0.18409,-0.38902 -0.0993,-0.15538 -0.17847,0.14716 -0.39075,0.70941 -0.47174,1.24942 -0.081,0.54001 -0.3729,1.36693 -0.64873,1.83758 -0.43088,0.73526 -0.68847,1.96683 -0.41136,1.96683 0.0495,0 0.28396,-0.27221 0.52085,-0.60491 z m 5.04628,0.0714 c 0.93262,-0.48227 2.27268,-1.75944 2.27268,-2.16601 0,-0.6051 -1.62719,-1.76602 -2.1787,-1.55439 -0.53124,0.20386 -1.15442,1.42948 -1.27378,2.50519 l -0.11298,1.01834 0.41066,-1.0032 c 0.40663,-0.99335 0.85061,-1.68359 0.99198,-1.54222 0.0403,0.0403 -0.16093,0.55857 -0.4471,1.15178 -0.58882,1.22057 -0.66391,1.5589 -0.21393,0.96399 0.41143,-0.54397 0.40671,-0.10053 -0.006,0.48755 -0.38469,0.54922 -0.28508,0.57411 0.55637,0.13897 z m 1.02058,0.0118 c 0.62898,-0.35956 0.90908,-0.39345 0.71974,-0.0871 -0.0768,0.12426 0.16004,0.071 0.52631,-0.11844 0.44521,-0.23023 0.62574,-0.4491 0.54468,-0.66036 -0.0667,-0.17378 -0.12126,-0.46822 -0.12126,-0.65429 0,-0.24026 -0.2268,-0.12339 -0.78257,0.40328 -0.4304,0.40787 -1.01474,0.89646 -1.29852,1.08576 -0.6304,0.42051 -0.31168,0.44464 0.41162,0.0312 z m -10.73159,-0.7052 c -0.0624,-0.10092 -0.32616,-0.23711 -0.58619,-0.30265 -0.45614,-0.11495 -0.45852,-0.10848 -0.0678,0.1835 0.44864,0.33518 0.83042,0.40474 0.65391,0.11915 z m 7.5303,-0.59906 c -0.0685,-0.43042 -0.0349,-0.92343 0.0745,-1.09559 0.14413,-0.22686 0.19973,-0.0689 0.20206,0.57388 0.002,0.48779 0.0971,0.8869 0.21188,0.8869 0.11478,0 0.20868,-0.21885 0.20868,-0.48634 0,-0.26749 0.22085,-0.92257 0.49078,-1.45574 l 0.49076,-0.9694 -0.54294,0.063 c -0.29861,0.0346 -0.80118,0.17093 -1.11682,0.30281 -0.46535,0.19445 -0.57387,0.37301 -0.57387,0.94421 0,0.71571 0.36714,2.01879 0.56879,2.01879 0.0608,0 0.0547,-0.35215 -0.0138,-0.78256 z m -8.28571,-1.42001 c -0.14809,-0.17843 -0.46478,-0.41816 -0.70377,-0.53274 -0.27003,-0.12945 -0.19752,-0.007 0.19151,0.32338 0.712,0.6047 0.90625,0.68409 0.51226,0.20936 z m 1.19541,-0.13207 c -0.0666,-0.16648 -0.11606,-0.11703 -0.12607,0.12607 -0.009,0.21999 0.0403,0.34324 0.10961,0.2739 0.0693,-0.0693 0.0767,-0.24933 0.0165,-0.39997 z m -1.7943,-2.90431 c -0.10996,-0.27491 -0.20589,-0.39013 -0.21316,-0.25605 -0.0177,0.32567 0.22543,0.94357 0.33006,0.83893 0.0457,-0.0457 -0.007,-0.30797 -0.1169,-0.58288 z m 8.22526,-0.78437 c 1.11403,-0.50676 1.3007,-0.78897 1.29321,-1.9551 -0.005,-0.74711 -0.11992,-1.09425 -0.47289,-1.42585 l -0.46656,-0.43831 -0.15207,0.6924 c -0.17331,0.78904 -0.57393,1.49403 -1.30707,2.30007 l -0.50765,0.55813 0.50187,-0.0551 c 0.27603,-0.0303 0.75634,-0.22184 1.06737,-0.42563 0.31102,-0.20379 0.5655,-0.2816 0.5655,-0.17293 0,0.10868 -0.44606,0.44586 -0.99124,0.74932 -1.12529,0.62632 -0.79476,0.74811 0.46953,0.173 z m -4.99531,-0.84379 c -0.73704,-1.09524 -1.24793,-2.31494 -0.96964,-2.31494 0.0932,0 0.33049,0.42162 0.52729,0.93692 0.19679,0.5153 0.44403,0.9902 0.54942,1.05533 0.10753,0.0665 0.10032,-0.1217 -0.0164,-0.42878 -0.25232,-0.66367 -0.25555,-0.72874 -0.0362,-0.72874 0.0945,0 0.27853,0.35215 0.40889,0.78257 0.22372,0.73867 0.23194,0.74454 0.14646,0.10481 -0.0498,-0.37276 0.0114,-1.17097 0.13589,-1.77381 0.3746,-1.8132 0.3585,-1.90874 -0.3312,-1.9657 -0.33872,-0.028 -0.73958,0.0518 -0.89083,0.17733 -0.20449,0.16973 -0.37756,0.13537 -0.67526,-0.13406 -0.56684,-0.51297 -0.76566,-0.29 -0.92117,1.03305 -0.10913,0.92855 -0.0545,1.31736 0.2764,1.96593 0.37891,0.7427 1.96003,2.31408 2.32844,2.31408 0.0864,0 -0.15308,-0.4608 -0.53208,-1.02399 z m 1.76073,0.22713 c 0,-0.68948 0.60659,-2.83977 0.75829,-2.68806 0.0904,0.0904 -0.0364,0.70856 -0.47927,2.33716 l -0.11351,0.41737 0.34542,-0.41737 c 0.33826,-0.40872 0.3424,-0.4066 0.20016,0.10271 -0.12393,0.44376 -0.0997,0.4823 0.16491,0.26266 0.17059,-0.14157 0.37137,-0.19619 0.44619,-0.12137 0.36717,0.36717 1.80805,-1.73835 1.80805,-2.64209 0,-0.23773 -0.14086,-0.48628 -0.31302,-0.55235 -0.17218,-0.0661 -0.31602,-0.2744 -0.31966,-0.46298 -0.0132,-0.68117 -0.48444,-1.00014 -1.45415,-0.98428 -0.88188,0.0144 -0.96429,0.0662 -1.35317,0.85009 -0.63158,1.27311 -0.56388,4.48669 0.0945,4.48669 0.11838,0 0.21523,-0.26468 0.21523,-0.58818 z m 1.2521,-0.31489 c 0,-0.16771 1.26118,-2.0185 1.37546,-2.0185 0.17592,0 -0.71782,1.59214 -1.04719,1.86549 -0.18055,0.14985 -0.32827,0.21871 -0.32827,0.15301 z m 2.08682,-3.1407 c 0,-0.0433 -0.16434,-0.20767 -0.36519,-0.36519 -0.33098,-0.25958 -0.33836,-0.2522 -0.0788,0.0788 0.27263,0.34762 0.44399,0.45816 0.44399,0.28641 z m -3.53195,-1.43938 c -0.0258,-0.24952 -0.31204,-0.20119 -0.40171,0.0678 -0.0459,0.13773 0.0292,0.21286 0.16694,0.16695 0.13773,-0.0459 0.24337,-0.15156 0.23477,-0.23477 z"
         id="path27479-4"
         sodipodi:nodetypes="cssssscsssssssscssssssssssssssssscssscsssscsssssscsssssssscsssssssssssssssssssssssscssscssssscssssssssscsssssssssccsscssssssssssscssssssssssssssssssssssssssssccsssccssssssssccssscssssccssssssssccsscssscsssccsssscsscsssssscsscccscssccssscssssscsssssssssssssscssssssssssssssssssssssss" />
      <circle
         style="fill:none;stroke:#ff0000;stroke-width:0.1;stroke-dasharray:none"
         id="path788-8-1-8-1-9-2-9-3-9"
         cx="-465.75485"
         cy="-57.314159"
         r="19.954653" />
      <ellipse
         style="fill:none;stroke:#ff00ff;stroke-width:0.1;stroke-dasharray:none;stroke-opacity:1"
         id="path1138-9-4-0-0-1-2-25-0-3"
         cx="-465.75485"
         cy="-57.314159"
         rx="18.492125"
         ry="18.492126" />
      <circle
         style="fill:none;stroke:#0000ff;stroke-width:0.1;stroke-linecap:round;stroke-dasharray:none;stroke-opacity:1;paint-order:markers stroke fill"
         id="path13019-1-33-5-7-5"
         cx="-465.75485"
         cy="-72.325142"
         r="2" />
    </g>
  </g>
</svg>
