<?xml version="1.0" encoding="UTF-8" standalone="no"?>
<!-- Created with Inkscape (http://www.inkscape.org/) -->

<svg
   width="41.008999mm"
   height="41.008999mm"
   viewBox="0 0 41.008999 41.008999"
   version="1.1"
   id="svg1"
   sodipodi:docname="128.svg"
   inkscape:version="1.4.2 (f4327f4, 2025-05-13)"
   xmlns:inkscape="http://www.inkscape.org/namespaces/inkscape"
   xmlns:sodipodi="http://sodipodi.sourceforge.net/DTD/sodipodi-0.dtd"
   xmlns="http://www.w3.org/2000/svg"
   xmlns:svg="http://www.w3.org/2000/svg">
  <sodipodi:namedview
     id="namedview1"
     pagecolor="#ffffff"
     bordercolor="#000000"
     borderopacity="0.25"
     inkscape:showpageshadow="2"
     inkscape:pageopacity="0.0"
     inkscape:pagecheckerboard="0"
     inkscape:deskcolor="#d1d1d1"
     inkscape:document-units="mm"
     showguides="false"
     inkscape:zoom="2"
     inkscape:cx="57.5"
     inkscape:cy="36.5"
     inkscape:window-width="1050"
     inkscape:window-height="1081"
     inkscape:window-x="857"
     inkscape:window-y="0"
     inkscape:window-maximized="0"
     inkscape:current-layer="layer1" />
  <defs
     id="defs1" />
  <g
     inkscape:label="Layer 1"
     inkscape:groupmode="layer"
     id="layer1"
     transform="translate(-70.643761,-99.218767)">
    <g
       id="g6190"
       transform="translate(514.70301,177.03743)">
      <path
         style="fill:#000000;stroke-width:0.1;stroke-dasharray:none"
         d="m -423.72357,-39.7544 c -0.0562,-0.0922 -0.17409,-0.8714 -0.262,-1.73163 -0.21726,-2.12605 -0.76463,-3.01526 -1.85895,-3.01982 -1.30587,-0.005 -1.6142,-0.37969 -0.39285,-0.47683 0.57379,-0.0456 1.1398,0.0136 1.25783,0.13161 0.13394,0.13395 0.21586,0.13482 0.21799,0.003 0.002,-0.11675 0.10089,-0.0615 0.22002,0.12289 0.14778,0.22868 0.21768,-0.37995 0.22002,-1.91582 l 0.003,-2.25101 -1.31515,-1.99431 c -1.6142,-2.44781 -2.07548,-2.88545 -2.96958,-2.81731 -0.72893,0.0556 -1.3012,-0.27487 -1.3012,-0.75128 0,-0.54081 1.13975,-1.66556 1.68778,-1.66556 0.68708,0 1.06327,0.68106 0.78314,1.41784 -0.17725,0.46623 -0.0846,0.71479 0.58846,1.57869 0.43936,0.56393 0.82267,1.02534 0.85181,1.02534 0.0291,0 -0.0347,-0.46914 -0.14179,-1.04253 -0.10711,-0.5734 -0.14721,-1.09007 -0.0891,-1.14818 0.18654,-0.18655 0.56502,1.07687 0.56502,1.88617 0,0.64643 0.94993,2.76234 1.24015,2.76234 0.0443,0 0.0747,-0.98033 0.0677,-2.17851 -0.007,-1.19818 0.0579,-2.78178 0.14431,-3.51913 0.12933,-1.10391 0.0709,-1.5575 -0.33098,-2.56897 -0.26841,-0.67559 -0.60096,-1.36442 -0.73899,-1.53074 -0.13803,-0.16631 -0.26859,-0.42249 -0.29013,-0.56927 -0.0523,-0.35623 -1.66445,-2.88389 -1.97213,-3.09203 -0.13346,-0.0903 -0.5635,-0.1657 -0.95565,-0.16758 -0.39213,-0.002 -0.79177,-0.1291 -0.88808,-0.28272 -0.35089,-0.55967 -0.30384,-1.2555 0.10465,-1.54758 0.22752,-0.16267 0.50811,-0.46752 0.62355,-0.67744 0.19098,-0.34732 0.27685,-0.32927 0.95373,0.20047 0.63304,0.49542 0.72397,0.68166 0.61031,1.24996 -0.0915,0.45764 0.0248,0.98676 0.36966,1.68126 l 0.50323,1.01345 0.12276,-1.09971 0.12275,-1.0997 0.29801,0.67031 c 0.16391,0.36867 0.34309,1.22332 0.39818,1.89921 0.0551,0.6759 0.23631,1.53206 0.40269,1.90257 0.16639,0.37052 0.42383,0.9738 0.5721,1.34062 0.25049,0.61975 0.2998,0.47119 0.69669,-2.09889 l 0.42711,-2.76583 -0.45538,-0.48474 c -0.4259,-0.45334 -0.89502,-1.91559 -0.61457,-1.91559 0.0698,0 0.37032,0.40807 0.66774,0.90681 l 0.54076,0.90682 0.22483,-0.88572 c 0.20914,-0.82397 0.1696,-0.96493 -0.56702,-2.02182 -0.70257,-1.008 -0.76063,-1.19441 -0.51502,-1.65334 0.31752,-0.5933 1.57388,-1.15519 1.88571,-0.84335 0.11227,0.11227 0.3444,0.15031 0.51583,0.0845 0.30302,-0.11629 1.16281,0.76201 1.44914,1.48032 0.2239,0.56174 -0.20719,1.11801 -1.16273,1.50034 -1.07926,0.43183 -1.28178,0.77728 -1.41732,2.41748 -0.0901,1.09036 -0.0591,1.23278 0.21815,1.00267 0.36732,-0.30484 0.4376,-0.53401 0.0997,-0.32521 -0.12289,0.0759 -0.22344,0.0384 -0.22344,-0.0833 0,-0.21825 1.16471,-1.14559 1.43883,-1.14559 0.2555,0 -0.26475,0.76796 -1.10799,1.63554 -0.76434,0.78641 -0.85228,1.01475 -1.11866,2.90468 -0.159,1.12814 -0.34728,2.60419 -0.41839,3.28008 l -0.12931,1.2289 0.43545,-1.09485 c 0.30548,-0.76805 0.39683,-1.3767 0.30603,-2.03913 -0.0712,-0.51936 -0.0306,-1.12087 0.0902,-1.33669 0.18328,-0.32749 0.24566,-0.25355 0.37708,0.44703 0.15629,0.83309 0.16011,0.83567 0.50567,0.34233 0.29893,-0.42678 0.30719,-0.62128 0.0584,-1.37514 -0.32556,-0.98644 -0.18039,-1.26612 0.7442,-1.43378 0.74343,-0.13481 1.54759,0.66312 1.45368,1.44242 -0.0502,0.41636 -0.28181,0.61635 -0.98364,0.84923 -0.80322,0.26652 -1.00266,0.47824 -1.59482,1.69301 -0.6813,1.39764 -1.39731,3.52619 -1.39731,4.15392 0,0.1861 0.28748,-0.10866 0.63883,-0.655 0.35136,-0.54634 0.9078,-1.24033 1.23653,-1.5422 0.48179,-0.4424 0.56999,-0.67503 0.45478,-1.19954 -0.17769,-0.80902 0.27543,-1.71488 0.85781,-1.71488 0.52752,0 1.72767,1.23912 1.72767,1.78377 0,0.65964 -0.58574,0.96811 -1.54655,0.81447 -0.84439,-0.13502 -0.90552,-0.10026 -1.81599,1.03296 -1.42315,1.77132 -1.76887,2.6854 -1.75344,4.63596 l 0.0133,1.67578 0.5362,-1.67578 c 0.2949,-0.92168 0.53809,-2.10625 0.54042,-2.63239 0.004,-1.0345 0.4309,-1.42786 1.09593,-1.0112 0.60471,0.37888 0.55562,1.06572 -0.1013,1.41729 -0.69073,0.36967 -0.84963,0.72667 -1.56406,3.51408 -0.45624,1.78005 -0.50259,2.29214 -0.33108,3.65815 0.1097,0.8736 0.14103,1.75203 0.0696,1.95206 -0.17416,0.4879 -0.0374,0.33232 0.80964,-0.92105 0.64915,-0.96055 0.67557,-1.06133 0.27827,-1.06133 -0.27553,0 -0.52255,0.22879 -0.6634,0.61446 -0.12343,0.33795 -0.23236,0.4859 -0.24207,0.32878 -0.01,-0.15711 0.30039,-0.91121 0.68908,-1.67578 0.4729,-0.93021 0.69192,-1.66311 0.66201,-2.2153 -0.0437,-0.80543 0.46965,-2.41464 0.77019,-2.41464 0.0829,0 0.10518,0.54996 0.0494,1.22213 l -0.10136,1.22212 0.73133,-0.83111 c 0.61926,-0.70374 0.72874,-0.99656 0.71439,-1.91071 -0.021,-1.33804 0.37828,-1.82229 1.33012,-1.61323 0.36683,0.0806 0.89556,0.38982 1.17496,0.68723 0.44592,0.47465 0.48348,0.65472 0.30735,1.47336 -0.26153,1.21566 -0.71357,1.50135 -1.77072,1.11908 -0.97445,-0.35236 -1.20991,-0.18684 -2.70173,1.89934 -1.10865,1.55037 -1.19264,1.87751 -0.47623,1.85513 0.47971,-0.015 0.48226,-0.0245 0.0558,-0.20773 -0.3989,-0.17141 -0.38227,-0.19371 0.15491,-0.20773 0.70866,-0.0185 1.29743,-0.74555 1.29743,-1.60212 0,-0.73943 0.41652,-1.09734 1.01323,-0.87065 1.16098,0.44105 1.31479,1.58032 0.2329,1.72503 -0.35921,0.0481 -0.8597,0.19793 -1.11221,0.33307 -0.45317,0.24253 -0.45339,0.24773 -0.0172,0.40243 0.37629,0.13346 0.33548,0.18033 -0.27491,0.31576 -0.75712,0.16799 -1.81998,1.21851 -2.43383,2.40557 -0.28189,0.54512 -0.33279,1.03239 -0.22139,2.11964 0.13409,1.30889 0.0869,1.66069 -0.16704,1.24422 z m 4.69348,-7.29625 c 0,-0.18694 -0.13529,-0.26194 -0.33457,-0.18547 -0.23546,0.0904 -0.28038,0.0407 -0.15167,-0.16754 0.12926,-0.20915 0.0973,-0.24305 -0.10891,-0.11559 -0.22784,0.14082 -0.20156,0.24635 0.1199,0.4814 0.50267,0.36756 0.47525,0.3683 0.47525,-0.0128 z m -2.63816,-2.25568 c 0,-0.57146 -0.0283,-0.60441 -0.19204,-0.22343 -0.10561,0.24578 -0.19203,0.74851 -0.19203,1.11718 0,0.57147 0.0283,0.60441 0.19203,0.22344 0.10562,-0.24578 0.19204,-0.74852 0.19204,-1.11719 z m 3.94708,-0.34411 c 0.0942,-0.15242 -0.0742,-0.18005 -0.48955,-0.0803 -0.85607,0.20566 -0.9371,0.31268 -0.23672,0.31268 0.32045,0 0.64728,-0.10458 0.72627,-0.23239 z m 0.008,-0.54253 c 0.29028,-0.21955 0.3323,-0.33039 0.12707,-0.33515 -0.25991,-0.006 -0.25991,-0.0648 0,-0.38515 0.16866,-0.20793 0.19568,-0.31163 0.06,-0.23045 -0.13744,0.0823 -0.35786,-0.0966 -0.49794,-0.40398 -0.30827,-0.67659 -0.61179,-0.70155 -0.94564,-0.0778 -0.19712,0.36832 -0.19241,0.43603 0.0211,0.30405 0.16865,-0.10423 0.2398,-0.065 0.18428,0.10152 -0.16873,0.50616 -0.52639,0.21682 -0.48061,-0.3888 0.04,-0.52944 0.0167,-0.55206 -0.1923,-0.18697 -0.17367,0.30331 -0.15965,0.56145 0.052,0.9569 l 0.28982,0.54153 0.5089,-0.62174 c 0.27989,-0.34196 0.51251,-0.50199 0.51694,-0.35563 0.004,0.14636 -0.0974,0.33128 -0.22626,0.41091 -0.16222,0.10026 -0.15936,0.23508 0.009,0.43833 0.17882,0.21547 0.16685,0.32433 -0.045,0.40934 -0.15874,0.0637 -0.18215,0.12375 -0.052,0.13345 0.13013,0.01 0.43177,-0.12998 0.67031,-0.31041 z m -0.45048,-0.32681 c -0.0707,-0.11441 -0.0431,-0.26081 0.0613,-0.32533 0.10441,-0.0645 0.18984,0.0291 0.18984,0.20799 0,0.37675 -0.0704,0.40967 -0.25113,0.11734 z m -10.39936,-3.89824 c 0,-0.0464 -0.14187,-0.2021 -0.31527,-0.346 -0.2414,-0.20034 -0.35417,-0.19867 -0.48139,0.007 -0.10155,0.16431 -0.0719,0.21055 0.0764,0.11893 0.13338,-0.0824 0.30568,-0.0477 0.38286,0.0772 0.13814,0.2235 0.33741,0.30779 0.33741,0.14272 z m 9.12379,-2.12233 c 0.23852,-0.1512 0.22505,-0.21692 -0.0675,-0.32917 -0.20102,-0.0772 -0.30937,-0.0494 -0.24078,0.0616 0.0686,0.11099 -0.002,0.25272 -0.15596,0.31496 -0.15438,0.0622 -0.18015,0.11956 -0.0573,0.12738 0.12289,0.008 0.35756,-0.0708 0.52147,-0.17471 z m -0.37829,-0.86351 c 0.18488,-0.18488 0.15447,-0.2363 -0.11623,-0.19657 -0.20165,0.0296 -0.4793,0.16648 -0.617,0.30419 -0.18489,0.18487 -0.15448,0.2363 0.11623,0.19657 0.20165,-0.0296 0.4793,-0.16648 0.617,-0.30419 z m -3.0116,-1.23095 c -0.062,-0.15361 -0.1127,-0.0279 -0.1127,0.27929 0,0.30723 0.0508,0.43291 0.1127,0.2793 0.062,-0.15362 0.062,-0.40498 0,-0.55859 z m 1.12184,-1.99697 c -0.0714,-0.17824 -0.12427,-0.1253 -0.135,0.135 -0.01,0.23553 0.0432,0.3675 0.11736,0.29325 0.0742,-0.0742 0.0822,-0.26696 0.0177,-0.42825 z m 0.64536,0.0451 c 0,-0.2624 -0.082,-0.36164 -0.20078,-0.2429 -0.11043,0.11043 -0.13322,0.31008 -0.0507,0.44368 0.2101,0.33994 0.25144,0.30693 0.25144,-0.20078 z m -4.57198,-1.79929 c -0.19906,-0.49865 -0.22087,-0.46483 -0.23371,0.36238 -0.008,0.5018 0.0612,0.98905 0.15341,1.08276 0.26298,0.26741 0.3242,-0.83418 0.0803,-1.44514 z m 2.01377,-1.70627 c -0.19474,-0.33488 -0.23834,-0.34453 -0.24392,-0.054 -0.008,0.37628 0.22772,0.71508 0.38608,0.55672 0.0522,-0.0522 -0.0117,-0.27845 -0.14216,-0.50273 z m -4.40275,0.18068 c 0.0658,-0.10647 -0.10423,-0.38297 -0.37783,-0.61445 -0.49616,-0.41978 -0.49644,-0.41966 -0.10596,0.0442 0.21533,0.25575 0.32425,0.53225 0.24205,0.61444 -0.0822,0.0822 -0.0884,0.14945 -0.0137,0.14945 0.0747,0 0.18961,-0.0871 0.25541,-0.19358 z m 0.19691,-0.84854 c -0.1036,-0.26997 -0.0617,-0.32172 0.15325,-0.18891 0.19837,0.12259 0.24263,0.0967 0.13425,-0.0787 -0.0889,-0.14388 -0.25528,-0.20376 -0.36968,-0.13306 -0.11439,0.0707 -0.208,0.005 -0.208,-0.14531 0,-0.15062 -0.0584,-0.21544 -0.12982,-0.14404 -0.0714,0.0714 -0.0176,0.33952 0.11958,0.59583 0.29768,0.55622 0.50233,0.6204 0.30042,0.0942 z m 6.91566,-1.61709 c 0.0922,-0.0121 0.25737,-0.022 0.36712,-0.022 0.10974,0 0.26286,-0.16505 0.34026,-0.36676 0.11768,-0.30667 0.085,-0.32049 -0.19953,-0.0844 -0.40096,0.33277 -0.46264,-0.008 -0.0721,-0.39794 0.20855,-0.20853 0.19613,-0.274 -0.0558,-0.29458 -0.1782,-0.0145 -0.41224,-0.0103 -0.52011,0.01 -0.10788,0.0198 -0.14242,-0.1694 -0.0768,-0.42041 0.0656,-0.25102 0.0212,-0.45639 -0.0987,-0.45639 -0.11993,0 -0.18354,0.22623 -0.14135,0.50273 0.0422,0.2765 0.2,0.4776 0.35069,0.44688 0.43227,-0.0881 0.32395,0.20153 -0.34045,0.91047 -0.46096,0.49186 -0.50283,0.5981 -0.16758,0.42528 0.24578,-0.1267 0.52228,-0.24028 0.61445,-0.25239 z m -1.46223,-1.19508 c -0.0533,-0.27651 -0.0968,-0.0503 -0.0968,0.50273 0,0.55301 0.0436,0.77924 0.0968,0.50274 0.0533,-0.27651 0.0533,-0.72896 0,-1.00547 z m 0.7207,0.38152 c 0.0958,0.0592 0.11996,-0.16578 0.0536,-0.5 l -0.12065,-0.60769 -0.15995,0.55859 c -0.088,0.30723 -0.15831,0.70941 -0.1563,0.89375 0.003,0.21723 0.0398,0.19661 0.10635,-0.0586 0.0565,-0.21656 0.18113,-0.34528 0.27696,-0.28605 z m -1.03885,-0.98921 c 0.0654,-0.24984 0.0276,-0.3979 -0.0838,-0.32904 -0.11143,0.0688 -0.20967,0.29524 -0.21831,0.50304 -0.0128,0.30801 -0.0512,0.29525 -0.20773,-0.0691 -0.10562,-0.24578 -0.19909,-0.32941 -0.20773,-0.18585 -0.009,0.14356 -0.0812,0.43177 -0.16131,0.64045 -0.12354,0.32196 -0.077,0.34272 0.30725,0.13706 0.24907,-0.13329 0.5063,-0.44677 0.57164,-0.69661 z m -2.88963,22.09084 c -0.43217,-0.79426 -0.66104,-1.04385 -0.71269,-0.77718 -0.0419,0.21605 0.13411,0.61656 0.39101,0.89002 0.75151,0.79995 0.53703,0.91124 -0.31479,0.16335 -0.43003,-0.37758 -0.9249,-0.63162 -1.09972,-0.56454 -0.52307,0.20073 -1.24651,-0.32731 -1.24651,-0.90981 0,-0.53906 0.42237,-1.11635 0.94562,-1.29243 0.45936,-0.15458 -0.17266,-0.76192 -0.9559,-0.91857 -0.84383,-0.16877 -1.03941,-0.65392 -0.55913,-1.38694 0.29354,-0.44799 0.52597,-0.55523 1.08589,-0.501 0.69327,0.0671 0.71242,0.0981 0.71242,1.15002 0,0.92777 0.095,1.1604 0.67031,1.64091 0.38008,0.31746 0.56056,0.60349 0.41684,0.66061 -0.16165,0.0643 -0.0824,0.29278 0.21875,0.63089 0.50807,0.5704 0.82628,0.54631 0.80105,-0.0606 -0.0128,-0.30801 -0.0512,-0.29525 -0.20773,0.0691 l -0.19203,0.44688 0.007,-0.44688 c 0.003,-0.24578 0.0801,-0.69824 0.16986,-1.00546 0.16057,-0.54931 0.16607,-0.54652 0.33064,0.16757 0.092,0.3994 0.10238,1.02192 0.023,1.38338 -0.0796,0.36208 -0.0292,0.87236 0.11207,1.13632 0.14103,0.26351 0.20796,0.52757 0.14875,0.58678 -0.0592,0.0592 -0.39414,-0.41884 -0.74427,-1.06233 z m -1.47608,-1.37101 c 0.0296,-0.39289 -0.008,-0.42877 -0.17247,-0.16758 -0.14068,0.22252 -0.21126,0.24004 -0.21355,0.053 -0.002,-0.15361 -0.11954,-0.2793 -0.26148,-0.2793 -0.14635,0 -0.083,0.19346 0.14635,0.44688 0.4939,0.54577 0.45574,0.5498 0.50115,-0.053 z m -1.28318,-2.72674 c 0,-0.0542 -0.10055,-0.16067 -0.22344,-0.23662 -0.12289,-0.0759 -0.22344,-0.0316 -0.22344,0.0985 0,0.13014 0.10055,0.23663 0.22344,0.23663 0.12289,0 0.22344,-0.0443 0.22344,-0.0985 z m 0.57992,-0.6063 c 0.0988,-0.15983 0.0613,-0.1973 -0.0985,-0.0985 -0.14187,0.0877 -0.25796,0.0362 -0.25796,-0.11444 0,-0.15062 -0.0603,-0.21352 -0.13409,-0.13977 -0.12782,0.12782 0.0665,0.6107 0.24581,0.6107 0.047,0 0.15709,-0.11608 0.24477,-0.25796 z m 2.62602,-4.03649 c -0.75658,-1.55726 -1.58338,-2.40866 -2.33907,-2.40866 -0.80127,0 -1.01406,-0.44584 -0.64177,-1.34463 0.44586,-1.07642 1.56239,-0.75329 1.56239,0.45216 0,0.32022 0.25916,0.92853 0.57591,1.3518 0.75359,1.007 1.48041,2.4209 1.38761,2.69932 -0.0405,0.12132 -0.28572,-0.21617 -0.54507,-0.74999 z m -2.09324,-3.86639 c -0.15545,-0.18731 -0.34081,-0.28239 -0.4119,-0.21129 -0.0711,0.0711 0.0187,0.22281 0.19941,0.33713 0.47302,0.29915 0.53482,0.26254 0.21249,-0.12584 z m -0.21733,-1.21449 -0.55698,-0.42792 1.00385,0.12847 c 1.20303,0.15397 1.43272,0.28459 0.53835,0.30614 -0.5659,0.0137 -0.59286,0.041 -0.20482,0.20773 0.29314,0.12597 0.33157,0.19572 0.11172,0.20276 -0.18434,0.006 -0.58579,-0.18182 -0.89212,-0.41718 z"
         id="path27479-2"
         sodipodi:nodetypes="cscsscsscssssssssssscssssscsssssscccssssscssscssssssssssssssscsscsssssssssssssssscscsssscsssssssccssssssssssssssssssccssssssssssssscsssccssssssssscscssssccssssscscssccsssscsssssssssssssssssssssscsssscssssssssssssssssssscssscscssssssccsssssscscssscsssssscccsssssssssssssssccsssssccsccssssssssssscsssssssssssssscsssss" />
      <circle
         style="fill:none;stroke:#ff0000;stroke-width:0.1;stroke-dasharray:none"
         id="path788-8-1-8-1-9-2-2-9-4"
         cx="-423.55475"
         cy="-57.314159"
         r="19.954653" />
      <ellipse
         style="fill:none;stroke:#ff00ff;stroke-width:0.1;stroke-dasharray:none;stroke-opacity:1"
         id="path1138-9-4-0-0-1-2-8-1-5"
         cx="-423.55475"
         cy="-57.314159"
         rx="18.492125"
         ry="18.492126" />
      <circle
         style="fill:none;stroke:#0000ff;stroke-width:0.1;stroke-linecap:round;stroke-dasharray:none;stroke-opacity:1;paint-order:markers stroke fill"
         id="path13019-1-33-4-5-8"
         cx="-423.55475"
         cy="-72.325127"
         r="2" />
    </g>
  </g>
</svg>
