<?xml version="1.0" encoding="UTF-8" standalone="no"?>
<!-- Created with Inkscape (http://www.inkscape.org/) -->

<svg
   width="41.008999mm"
   height="41.008999mm"
   viewBox="0 0 41.008999 41.008999"
   version="1.1"
   id="svg1"
   sodipodi:docname="129.svg"
   inkscape:version="1.4.2 (f4327f4, 2025-05-13)"
   xmlns:inkscape="http://www.inkscape.org/namespaces/inkscape"
   xmlns:sodipodi="http://sodipodi.sourceforge.net/DTD/sodipodi-0.dtd"
   xmlns="http://www.w3.org/2000/svg"
   xmlns:svg="http://www.w3.org/2000/svg">
  <sodipodi:namedview
     id="namedview1"
     pagecolor="#ffffff"
     bordercolor="#000000"
     borderopacity="0.25"
     inkscape:showpageshadow="2"
     inkscape:pageopacity="0.0"
     inkscape:pagecheckerboard="0"
     inkscape:deskcolor="#d1d1d1"
     inkscape:document-units="mm"
     showguides="false"
     inkscape:zoom="2"
     inkscape:cx="57.5"
     inkscape:cy="36.5"
     inkscape:window-width="1050"
     inkscape:window-height="1081"
     inkscape:window-x="857"
     inkscape:window-y="0"
     inkscape:window-maximized="0"
     inkscape:current-layer="layer1" />
  <defs
     id="defs1" />
  <g
     inkscape:label="Layer 1"
     inkscape:groupmode="layer"
     id="layer1"
     transform="translate(-70.643761,-99.218767)">
    <g
       id="g6167"
       transform="translate(472.49235,176.83339)">
      <path
         style="fill:#000000;stroke-width:0.1;stroke-dasharray:none"
         d="m -381.91412,-38.541225 c 0.064,-0.29677 0.28176,-1.12235 0.48388,-1.83461 0.2524,-0.88944 0.36878,-2.10805 0.3716,-3.89095 0.004,-2.35913 -0.0458,-2.69284 -0.5427,-3.65836 -0.40306,-0.78313 -0.82862,-1.22648 -1.61878,-1.68645 -1.49199,-0.86851 -2.15941,-1.55251 -2.64883,-2.71461 -0.48655,-1.15526 -0.78799,-2.62119 -0.53733,-2.61306 0.0944,0.003 0.34544,0.3828 0.55785,0.84387 0.2124,0.46107 1.07314,1.59981 1.91275,2.53052 0.83962,0.93072 1.72028,1.98359 1.95703,2.33972 0.23674,0.35613 0.36325,0.45326 0.28111,0.21584 -0.60822,-1.75813 -0.98845,-3.17868 -1.09767,-4.10091 -0.19231,-1.62394 -0.50868,-2.25018 -1.43086,-2.83232 -0.49138,-0.3102 -0.77571,-0.62838 -0.68815,-0.77007 0.0862,-0.13945 0.0523,-0.18153 -0.0803,-0.0996 -0.12623,0.078 -0.48118,-0.15725 -0.78877,-0.52281 -0.97185,-1.15498 -0.62157,-1.39289 0.84367,-0.57301 0.6308,0.35296 1.01984,0.80257 1.44434,1.66919 l 0.58098,1.18609 0.0126,-0.90921 c 0.006,-0.50006 -0.19244,-1.45715 -0.44301,-2.12686 -0.42737,-1.14225 -0.53096,-1.25012 -1.67274,-1.74209 -2.09303,-0.90184 -2.28788,-0.98739 -2.6201,-1.15045 -0.17806,-0.0874 -0.35581,-0.3753 -0.39499,-0.63978 -0.0585,-0.39486 0.0183,-0.46812 0.42965,-0.40962 0.28487,0.0405 0.61841,0.31722 0.77339,0.64161 0.16171,0.3385 0.62498,0.71143 1.13953,0.91731 1.2062,0.48263 1.21998,0.46176 0.37657,-0.57038 -0.90387,-1.10613 -1.4608,-2.14649 -1.4608,-2.7288 0,-0.35156 -0.16731,-0.44208 -0.91731,-0.49635 -0.51708,-0.0374 -0.9173,-0.17624 -0.9173,-0.31818 0,-0.13849 -0.0884,-0.33275 -0.19648,-0.43168 -0.11416,-0.10449 -0.13143,-0.0668 -0.0412,0.0899 0.0865,0.15024 0.0439,0.2698 -0.096,0.2698 -0.17209,0 -0.21028,-0.289 -0.12121,-0.91731 0.0715,-0.50452 0.13675,-1.08176 0.14493,-1.28274 0.009,-0.22581 0.13312,-0.32008 0.32431,-0.24671 0.1945,0.0746 0.30941,-0.0187 0.30941,-0.25121 0,-0.24016 0.11358,-0.32635 0.32376,-0.2457 0.17807,0.0684 0.32524,0.006 0.32706,-0.13878 0.002,-0.16697 0.0809,-0.14479 0.21583,0.0607 0.18892,0.28778 0.23615,0.28778 0.42507,0 0.11689,-0.17807 0.21402,-0.21794 0.21584,-0.0886 0.002,0.12934 0.24612,0.34579 0.54289,0.48101 0.67576,0.30789 0.70208,0.9845 0.0934,2.3995 -0.42193,0.98079 -0.42736,1.0825 -0.0997,1.86673 0.19061,0.45618 0.51282,1.01396 0.71604,1.23951 0.35269,0.39146 0.37456,0.32809 0.48135,-1.39505 0.10679,-1.72293 0.12497,-1.77565 0.39933,-1.15762 0.15809,0.35613 0.33968,1.47309 0.40352,2.48213 0.0829,1.31016 0.23328,2.00163 0.52607,2.41887 0.22549,0.32134 0.53818,0.95267 0.69486,1.40295 l 0.28487,0.81867 0.23085,-1.07919 c 0.12697,-0.59355 0.34149,-1.89345 0.47672,-2.88867 0.30451,-2.24109 0.12123,-2.79142 -1.1255,-3.37953 -1.25996,-0.59438 -1.50934,-1.06488 -1.13403,-2.13966 0.21463,-0.61465 0.23311,-0.93184 0.0661,-1.13315 -0.16651,-0.20063 -0.16361,-0.27957 0.0103,-0.27957 0.13325,0 0.24226,0.0971 0.24226,0.21584 0,0.527 0.65495,0.14731 0.83771,-0.48564 0.1114,-0.3858 0.21131,-0.53149 0.22201,-0.32375 0.025,0.48537 0.66697,0.49759 0.66697,0.0127 0,-0.31829 0.0405,-0.31139 0.3169,0.0539 0.19882,0.26287 0.31945,0.31271 0.32376,0.13375 0.005,-0.2139 0.0922,-0.19992 0.34802,0.056 0.18763,0.18764 0.43045,0.28597 0.53959,0.21852 0.10914,-0.0675 0.19843,0.0288 0.19843,0.21385 0,0.18508 0.0932,0.3365 0.20717,0.3365 0.11395,0 0.3246,0.39194 0.46813,0.87097 0.23204,0.77448 0.21362,0.93438 -0.16634,1.4433 -0.23502,0.31477 -0.56427,0.61797 -0.73167,0.67377 -0.1674,0.0558 -0.0401,-0.21263 0.28293,-0.59651 0.52545,-0.62446 0.741,-1.09651 0.50069,-1.09651 -0.13299,0 -1.07847,1.59977 -1.04016,1.75996 0.0186,0.0777 -0.1088,0.25951 -0.28308,0.40413 -0.19889,0.16508 -0.31685,0.65276 -0.31685,1.31005 v 1.04707 l 0.98642,-0.98641 c 0.54252,-0.54252 1.03531,-0.9375 1.09509,-0.87772 0.20025,0.20025 -0.55101,1.39243 -1.40629,2.23164 -0.81321,0.79794 -0.86489,0.93429 -1.30064,3.43133 -0.56528,3.23939 -0.56521,3.8853 6.6e-4,6.1539 0.44362,1.7787 0.84066,2.64676 0.84066,1.83794 0,-0.21664 0.2553,-0.96278 0.56735,-1.65811 l 0.56734,-1.26421 -0.45106,-1.2449 c -0.45342,-1.25143 -0.67143,-2.73199 -0.43683,-2.96659 0.23926,-0.23926 1.04824,2.02007 1.05587,2.94881 0.007,0.91618 0.0126,0.92252 0.31611,0.39165 0.39232,-0.6863 0.40546,-1.86932 0.0326,-2.94061 -0.46694,-1.34177 -0.61222,-3.66428 -0.2481,-3.96648 0.70334,-0.58372 0.99043,0.30377 0.39314,1.21536 -0.3399,0.51874 -0.3377,0.64957 0.0361,2.15065 0.2189,0.87906 0.42194,1.57408 0.45118,1.54447 0.0292,-0.0296 0.15827,-0.81058 0.28673,-1.73549 0.12845,-0.92491 0.38728,-1.97893 0.57517,-2.34227 0.32021,-0.61921 0.31506,-0.68968 -0.0822,-1.12423 -0.6464,-0.70712 -0.72376,-1.26325 -0.25444,-1.82905 0.23053,-0.27792 0.52631,-0.43422 0.66248,-0.35007 0.13529,0.0836 0.33227,0.0182 0.4377,-0.14541 0.14506,-0.22505 0.2325,-0.23455 0.35928,-0.0391 0.11048,0.17036 0.27595,0.18987 0.48563,0.0573 0.48303,-0.3055 0.64175,-0.25012 0.64175,0.22393 0,0.23742 0.12995,0.43168 0.28877,0.43168 0.19253,0 0.30089,0.32089 0.32518,0.96291 0.0419,1.10938 -0.29648,1.41129 -1.58203,1.41129 -0.67767,0 -0.81868,0.0925 -1.06903,0.70147 -0.15861,0.38581 -0.39726,1.52399 -0.53031,2.5293 -0.15463,1.16837 -0.47626,2.32859 -0.89144,3.21582 -0.35724,0.76341 -0.62055,1.41698 -0.58513,1.4524 0.17839,0.17839 2.23473,-1.70946 2.89694,-2.65957 0.83273,-1.19477 0.92368,-1.73999 0.47459,-2.84499 -0.28247,-0.69504 -0.16487,-0.99392 0.35102,-0.89205 0.0666,0.0131 0.27027,-0.12535 0.45269,-0.30776 0.22072,-0.22072 0.52497,-0.28534 0.90959,-0.19318 0.78676,0.1885 0.77522,0.16741 0.78507,1.436 l 0.009,1.12387 -0.92511,0.10792 c -0.823,0.096 -0.98388,0.21175 -1.45767,1.04861 -0.44877,0.79269 -0.47301,0.91769 -0.15408,0.79447 0.44358,-0.17138 2.35574,-0.54806 2.78216,-0.54806 1.21132,0 -1.24787,1.26837 -2.8167,1.45276 -0.90244,0.10607 -1.35381,0.33299 -2.53613,1.27502 -1.72376,1.37344 -2.01855,2.04617 -1.81693,4.14639 0.49753,5.18269 0.32228,7.86578 -0.64361,9.8532 -0.27277,0.56125 -0.29919,0.57563 -0.1983,0.10792 z m -2.21609,-12.21283 c -0.38581,-0.30405 -0.70148,-0.65482 -0.70148,-0.77946 0,-0.13489 0.15289,-0.11006 0.37772,0.0614 0.20775,0.15839 0.12551,2.2e-4 -0.18273,-0.35128 -0.30825,-0.35161 -0.72104,-0.87942 -0.91731,-1.17293 -0.45752,-0.6842 -0.46369,-0.1966 -0.009,0.70625 0.40792,0.80988 1.5794,2.09475 1.90675,2.09131 0.12511,-0.002 -0.0882,-0.25118 -0.47401,-0.55524 z m 3.55836,-4.89225 c -0.18248,-0.51143 -0.27198,-0.59633 -0.33035,-0.31338 -0.0441,0.21344 0.0369,0.5291 0.18003,0.70146 0.39187,0.47217 0.42591,0.38429 0.15032,-0.38808 z m -3.40266,-1.03678 c -0.24314,-0.45429 -1.44174,-1.28883 -1.82844,-1.27305 -0.11871,0.005 0.009,0.17445 0.28292,0.37691 0.27431,0.20246 0.75994,0.58357 1.07918,0.84691 0.72176,0.59539 0.76084,0.59952 0.46634,0.0492 z m 9.32793,-0.35162 c -0.2184,-0.0874 -0.19377,-0.219 0.10792,-0.57652 l 0.39091,-0.46324 -0.48054,0.40656 c -0.48057,0.40657 -0.47668,0.7956 0.007,0.7635 0.17246,-0.0114 0.16393,-0.0543 -0.0259,-0.1303 z m -0.002,-1.6264 c -0.11293,-0.11294 -0.43508,-0.17284 -0.71586,-0.13311 -0.39631,0.056 -0.51919,0.21711 -0.54924,0.71975 -0.0213,0.35613 0.0101,0.47754 0.0697,0.26979 0.0596,-0.20774 0.25048,-0.37771 0.42402,-0.37771 0.25337,0 0.26895,0.0957 0.079,0.48563 -0.19127,0.39285 -0.12812,0.36673 0.33055,-0.13669 0.35868,-0.39367 0.49157,-0.69777 0.36168,-0.82766 z m -4.903,-1.86315 c -0.12161,-0.12802 -0.53218,0.19645 -0.53218,0.42058 0,0.11638 0.13589,0.0864 0.30199,-0.0667 0.16609,-0.15307 0.26968,-0.31232 0.23019,-0.35388 z m 3.56328,-0.46402 c 0.0963,0 0.23112,-0.14601 0.29961,-0.32447 0.10351,-0.26973 0.0254,-0.26254 -0.46254,0.0426 -0.78054,0.48805 -0.88393,0.59567 -0.40752,0.42418 0.21745,-0.0782 0.47415,-0.14231 0.57045,-0.14231 z m -11.21808,-0.53959 c -0.30078,-0.36241 -0.64751,-0.42868 -0.64751,-0.12374 0,0.11 0.16997,0.24443 0.37772,0.29872 0.20774,0.0543 0.41388,0.10997 0.4581,0.12374 0.0442,0.0138 -0.0405,-0.12065 -0.18831,-0.29872 z m 11.34103,-0.33928 c 0.29817,-0.48244 -0.12821,-0.45287 -0.56108,0.0389 l -0.45436,0.51621 0.34105,-0.53366 c 0.52865,-0.8272 0.43016,-1.08512 -0.41438,-1.08512 -0.70372,0 -0.75543,0.0466 -0.75543,0.68096 v 0.68097 l 0.46828,-0.41117 c 0.44453,-0.39033 0.4609,-0.39104 0.32304,-0.014 -0.20803,0.56902 0.0229,0.83139 0.50477,0.5735 0.22361,-0.11967 0.47027,-0.32065 0.54811,-0.44662 z m -8.81417,-1.33094 c -0.0516,-0.26848 -0.0958,-0.0996 -0.0982,0.3752 -0.002,0.47484 0.0398,0.69451 0.0939,0.48815 0.054,-0.20636 0.056,-0.59486 0.004,-0.86335 z m 6.5383,0.79414 c 0,-0.18507 -0.0971,-0.27647 -0.21585,-0.2031 -0.11871,0.0733 -0.21583,0.22479 -0.21583,0.33649 0,0.11171 0.0971,0.2031 0.21583,0.2031 0.11872,0 0.21585,-0.15142 0.21585,-0.33649 z m -2.06861,-0.23363 c 0.11367,-0.29623 0.0821,-0.30959 -0.19274,-0.0815 -0.37453,0.31083 -0.41351,0.43577 -0.13596,0.43577 0.10602,0 0.25393,-0.15942 0.3287,-0.35428 z m -3.13901,-2.38409 c -0.26029,-0.31998 -0.24904,-0.34647 0.0927,-0.21831 0.27878,0.10455 0.3399,0.0702 0.21583,-0.12147 -0.17158,-0.265 -0.1872,-0.35958 -0.24905,-1.50838 -0.0404,-0.75009 -0.27911,-0.75516 -0.62363,-0.0132 -0.22187,0.47779 -0.21259,0.63809 0.054,0.93262 0.4183,0.46221 0.41692,0.77717 -0.002,0.42959 -0.50296,-0.41742 -0.38104,-0.0701 0.14863,0.42327 0.57298,0.53382 0.76926,0.57482 0.36343,0.076 z m -4.06348,-0.4807 c -0.13637,-0.25479 -0.15272,-0.45015 -0.0377,-0.45015 0.11176,0 0.16273,-0.21854 0.11323,-0.48564 -0.0587,-0.31644 0.0238,-0.24125 0.23666,0.21584 0.17966,0.38581 0.35543,0.70147 0.39061,0.70147 0.0352,0 0.0376,-0.36423 0.006,-0.80939 l -0.0585,-0.80939 0.27979,0.97127 0.27977,0.97127 0.12269,-0.75543 c 0.14936,-0.91957 0.009,-1.09004 -1.01137,-1.22754 -0.60313,-0.0812 -0.86593,-0.0116 -1.0948,0.2905 -0.40734,0.53759 -0.39773,0.58961 0.25158,1.36127 0.61582,0.73187 0.90819,0.74637 0.52262,0.0259 z m -0.9987,-0.0943 c -0.0746,-0.19437 -0.22728,-0.29676 -0.33932,-0.22751 -0.12145,0.075 -0.0999,0.25096 0.0533,0.43565 0.31574,0.38044 0.469,0.26889 0.28594,-0.20814 z m 7.42167,-1.83997 c -0.0664,-0.57261 -0.26518,-0.62671 -1.79237,-0.48788 -0.38319,0.0348 -0.41397,0.56957 -0.0868,1.50808 0.30705,0.88079 0.72383,0.89711 0.54871,0.0215 -0.0817,-0.40824 -0.0509,-0.60835 0.0809,-0.52686 0.11692,0.0723 0.22537,0.34419 0.241,0.60428 0.018,0.29969 0.0867,0.19621 0.18742,-0.28253 l 0.15901,-0.75543 0.046,0.97127 0.046,0.97126 0.31786,-0.72866 c 0.17483,-0.40076 0.28831,-0.98352 0.25219,-1.29502 z m 0.68975,0.62073 c 0,-0.23742 -0.0971,-0.43166 -0.21583,-0.43166 -0.11871,0 -0.21584,0.19424 -0.21584,0.43166 0,0.23742 0.0971,0.43168 0.21584,0.43168 0.11871,0 0.21583,-0.19426 0.21583,-0.43168 z"
         id="path27479-4-0"
         sodipodi:nodetypes="ccscssscsssssssssssccssssssssssssssssssscsscssssssssscssssssssssscsssssssssssscssssssscsscsssssssssssssssssssssssssssscsssssssscsssscsscscssccccsscccscsscccsssssscssssssssssssssssssscssscsssscccscssssssssssccssssccscccssssccccsssscsssssccsssssscccscsssss" />
      <circle
         style="fill:none;stroke:#ff0000;stroke-width:0.1;stroke-dasharray:none"
         id="path788-8-1-8-1-9-2-56-8-4"
         cx="-381.34409"
         cy="-57.110126"
         r="19.954653" />
      <ellipse
         style="fill:none;stroke:#ff00ff;stroke-width:0.1;stroke-dasharray:none;stroke-opacity:1"
         id="path1138-9-4-0-0-1-2-4-9-1"
         cx="-381.34409"
         cy="-57.110126"
         rx="18.492125"
         ry="18.492126" />
      <circle
         style="fill:none;stroke:#0000ff;stroke-width:0.1;stroke-linecap:round;stroke-dasharray:none;stroke-opacity:1;paint-order:markers stroke fill"
         id="path13019-1-33-6-2-7"
         cx="-381.34409"
         cy="-72.121109"
         r="2" />
    </g>
  </g>
</svg>
