<?xml version="1.0" encoding="UTF-8" standalone="no"?>
<!-- Created with Inkscape (http://www.inkscape.org/) -->

<svg
   width="41.008999mm"
   height="41.008999mm"
   viewBox="0 0 41.008999 41.008999"
   version="1.1"
   id="svg1"
   sodipodi:docname="130.svg"
   inkscape:version="1.4.2 (f4327f4, 2025-05-13)"
   xmlns:inkscape="http://www.inkscape.org/namespaces/inkscape"
   xmlns:sodipodi="http://sodipodi.sourceforge.net/DTD/sodipodi-0.dtd"
   xmlns="http://www.w3.org/2000/svg"
   xmlns:svg="http://www.w3.org/2000/svg">
  <sodipodi:namedview
     id="namedview1"
     pagecolor="#ffffff"
     bordercolor="#000000"
     borderopacity="0.25"
     inkscape:showpageshadow="2"
     inkscape:pageopacity="0.0"
     inkscape:pagecheckerboard="0"
     inkscape:deskcolor="#d1d1d1"
     inkscape:document-units="mm"
     showguides="false"
     inkscape:zoom="2"
     inkscape:cx="156.5"
     inkscape:cy="47.5"
     inkscape:window-width="1050"
     inkscape:window-height="1081"
     inkscape:window-x="857"
     inkscape:window-y="0"
     inkscape:window-maximized="0"
     inkscape:current-layer="layer1" />
  <defs
     id="defs1" />
  <g
     inkscape:label="Layer 1"
     inkscape:groupmode="layer"
     id="layer1"
     transform="translate(-70.643761,-99.218767)">
    <g
       id="g11771"
       transform="translate(413.8986,425.32913)">
      <path
         style="fill:#000000;stroke-width:0.1;stroke-dasharray:none"
         d="m -324.16868,-286.85805 c 0.0986,-0.33554 0.19062,-2.25722 0.20454,-4.27042 0.0189,-2.74636 0.12498,-4.04081 0.4245,-5.18402 0.52643,-2.00924 0.34759,-3.36631 -0.64891,-4.92409 -0.91284,-1.42701 -1.29203,-1.64929 -2.81423,-1.64974 -1.16521,-4.4e-4 -2.63064,-0.53487 -2.7797,-1.01393 -0.0695,-0.22337 2.67855,-0.035 3.43063,0.23522 0.15252,0.0548 0.2773,0.0143 0.2773,-0.09 0,-0.25614 -1.97882,-2.25066 -2.71892,-2.74049 -0.64384,-0.42613 -1.27238,-2.03558 -0.92322,-2.36402 0.56805,-0.53433 2.08657,1.02414 2.08844,2.14338 4.4e-4,0.2726 0.27535,0.80326 0.61088,1.17924 l 0.61007,0.68361 -0.0752,-1.34562 c -0.0456,-0.81708 0.0138,-1.34563 0.15143,-1.34563 0.33938,0 0.5452,0.84076 0.57025,2.32932 0.0204,1.2126 0.10849,1.44454 0.99017,2.60662 0.53228,0.70156 0.99353,1.27557 1.02501,1.27557 0.0314,0 -0.33021,-1.37263 -0.80373,-3.05029 -0.47352,-1.67766 -0.92569,-3.59935 -1.00482,-4.27042 -0.1598,-1.35509 -0.38714,-1.63649 -1.01413,-1.25522 -0.34932,0.21243 -0.48999,0.17471 -0.81206,-0.21776 -0.29068,-0.35423 -0.48451,-0.42156 -0.76374,-0.26529 -0.47501,0.26582 -0.81437,0.0603 -0.81437,-0.49322 0,-0.48966 -0.0875,-0.51809 -0.65681,-0.2134 -0.48599,0.26009 -0.96479,-0.19187 -0.86234,-0.81401 0.0364,-0.2208 -0.0148,-0.5306 -0.11382,-0.68847 -0.10196,-0.16262 -0.066,-0.42434 0.083,-0.60387 0.20635,-0.24864 0.18611,-0.39372 -0.0941,-0.67388 -0.32814,-0.32814 -0.32095,-0.40769 0.0889,-0.98325 0.24525,-0.34443 0.44591,-0.78551 0.44591,-0.9802 0,-0.19469 0.1331,-0.35398 0.29579,-0.35398 0.16268,0 0.58695,-0.29671 0.94282,-0.65935 0.35586,-0.36265 0.81583,-0.66213 1.02216,-0.66552 0.20632,-0.003 0.43978,-0.11077 0.51879,-0.23862 0.079,-0.12785 0.30951,-0.20521 0.51223,-0.17192 0.20272,0.0333 0.49773,-0.0205 0.65559,-0.11939 0.16309,-0.10225 0.42571,-0.0648 0.60823,0.0866 0.17667,0.14662 0.64648,0.29323 1.04402,0.3258 0.63656,0.0521 0.72281,0.13618 0.72281,0.70426 0,0.58521 0.0595,0.63632 0.64161,0.55085 0.58487,-0.0859 0.63208,-0.0443 0.5337,0.47034 -0.0832,0.43525 0.0112,0.61882 0.41212,0.8015 0.64018,0.29168 0.66805,0.64968 0.0678,0.87171 -0.44074,0.16304 -0.43805,0.17957 0.10613,0.65273 0.77936,0.67765 0.53784,1.25142 -0.45869,1.08971 -0.73475,-0.11924 -0.73706,-0.11682 -0.39246,0.40911 0.38637,0.58967 0.23826,1.43814 -0.25104,1.43814 -0.17004,0 -0.5274,-0.22461 -0.79412,-0.49913 -0.26672,-0.27453 -0.41095,-0.36869 -0.32051,-0.20923 0.0904,0.15945 0.10321,0.5338 0.0284,0.83189 -0.0993,0.39584 -0.28716,0.54199 -0.69646,0.54199 -0.63574,0 -0.63301,0.12079 0.0745,3.29238 l 0.36326,1.62857 0.27459,-0.79313 c 0.34665,-1.0013 1.80992,-3.63124 2.13067,-3.82947 0.14527,-0.0898 0.19431,-0.0242 0.12304,0.1644 -0.0652,0.17254 -0.2842,0.88635 -0.48671,1.58627 -0.2025,0.69992 -0.65559,1.82653 -1.00686,2.50358 -0.63697,1.22768 -0.6378,1.23472 -0.31008,2.60961 0.18074,0.75825 0.4546,2.02751 0.60858,2.82058 l 0.27996,1.44196 0.51007,-1.06762 c 0.45722,-0.95701 0.48211,-1.16094 0.24021,-1.96835 -0.27568,-0.92011 -0.12652,-3.16041 0.1971,-2.9604 0.0931,0.0575 0.29785,0.71039 0.45497,1.45075 l 0.28567,1.34612 0.62361,-0.72957 0.62361,-0.72957 -0.57311,-0.47456 c -0.31521,-0.26101 -0.51104,-0.57498 -0.43518,-0.69773 0.0759,-0.12274 -0.0112,-0.28041 -0.19356,-0.35037 -0.4025,-0.15445 -0.43739,-0.72517 -0.0542,-0.88621 0.19858,-0.0834 0.16709,-0.18629 -0.11092,-0.36227 -0.47587,-0.30122 -0.50583,-0.858 -0.0555,-1.03082 0.18303,-0.0703 0.33277,-0.27809 0.33277,-0.4619 0,-0.2462 0.17776,-0.30812 0.67504,-0.23513 0.48055,0.0705 0.64415,0.0185 0.56779,-0.18044 -0.059,-0.15373 0.0484,-0.40866 0.23855,-0.56651 0.29315,-0.2433 0.42607,-0.18665 0.87307,0.372 0.50448,0.63052 0.52731,0.63712 0.52836,0.1529 0.002,-0.62915 0.63795,-0.91306 0.98453,-0.4391 0.16682,0.22814 0.45979,0.30763 0.85527,0.23202 0.50315,-0.0962 0.60154,-0.0371 0.60154,0.36152 0,0.26207 0.15393,0.53557 0.34208,0.60776 0.18814,0.0722 0.32254,0.29368 0.29866,0.49218 -0.0239,0.19851 0.0398,0.55458 0.14152,0.79129 0.11916,0.27732 0.0939,0.46072 -0.0711,0.5157 -0.18112,0.0604 -0.1584,0.2343 0.0776,0.59452 0.31224,0.47654 0.28888,0.55972 -0.36438,1.29758 -0.39418,0.44523 -0.83076,0.73745 -1.00302,0.67135 -0.16775,-0.0644 -0.36646,0.043 -0.44154,0.23873 -0.1733,0.4516 -0.72782,0.46178 -0.89869,0.0165 -0.11383,-0.29662 -0.1647,-0.29209 -0.40465,0.0361 -0.31882,0.43602 -1.00411,0.26923 -1.00411,-0.24441 0,-1.1125 -1.69576,0.6728 -2.87626,3.02813 l -0.85408,1.70404 0.002,2.84367 c 0.002,1.68118 -0.15272,3.74568 -0.37659,5.05018 -0.20828,1.21358 -0.32776,2.58622 -0.26551,3.0503 0.0622,0.46408 0.0228,0.84378 -0.0876,0.84378 -0.1104,0 -0.20706,-0.22461 -0.21479,-0.49914 l -0.0141,-0.49913 -0.20062,0.49913 c -0.28416,0.70693 -0.5207,0.62108 -0.30563,-0.11092 z m 1.08876,-7.15434 c 0.0854,-2.14222 0.0561,-2.6216 -0.12868,-2.10747 -0.13155,0.36603 -0.27815,1.96328 -0.32576,3.54944 -0.0637,2.12222 -0.0297,2.67884 0.12867,2.10747 0.11839,-0.42704 0.26499,-2.02429 0.32577,-3.54944 z m 1.34257,-9.03499 c -0.24183,-0.63021 -0.37561,-0.11996 -0.19632,0.7488 0.16429,0.79608 0.18158,0.81153 0.25268,0.22577 0.042,-0.34584 0.0166,-0.7844 -0.0563,-0.97457 z m 4.75484,-0.11589 c -0.003,-0.54711 -0.0553,-0.64073 -0.21844,-0.38822 -0.17929,0.27742 -0.21989,0.25896 -0.24418,-0.11092 -0.0236,-0.35837 -0.0482,-0.37127 -0.12834,-0.0671 -0.0929,0.35273 0.2637,1.28721 0.49124,1.28721 0.0567,0 0.10159,-0.32445 0.0997,-0.72098 z m -1.11361,0.07 c 0.30858,-0.5766 0.28959,-0.91393 -0.0476,-0.84648 -0.4697,0.0939 -0.83656,1.27557 -0.39602,1.27557 0.11772,0 0.31737,-0.19309 0.44367,-0.42909 z m -8.25838,-0.25772 c -0.39198,-0.20962 -2.87671,-0.38245 -2.66723,-0.18552 0.0958,0.0901 0.37385,0.21011 0.61787,0.26677 0.66671,0.15482 2.36488,0.0875 2.04936,-0.0813 z m 10.48119,-0.0342 c -0.004,-0.33404 -0.20435,-0.62321 -0.70013,-1.01096 -0.32736,-0.25602 -0.35607,-0.23005 -0.24526,0.22184 0.14668,0.59814 0.47781,1.06642 0.75411,1.06642 0.10707,0 0.19314,-0.12478 0.19128,-0.2773 z m -3.14035,-0.40982 c 0.15981,-0.2559 0.23615,-0.5197 0.16964,-0.58621 -0.18124,-0.18124 -0.79717,0.39508 -0.79717,0.74589 0,0.44792 0.29494,0.37287 0.62753,-0.15968 z m -0.60782,-0.80066 c 0.16794,-0.45494 0.14229,-0.472 -0.36318,-0.24169 -0.29914,0.1363 -0.54389,0.38884 -0.54389,0.56123 0,0.48078 0.70305,0.23311 0.90707,-0.31954 z m 4.63892,0.27336 c 0,-0.17988 -0.29452,-0.47937 -0.6545,-0.66552 -0.82637,-0.42733 -1.02787,-0.42903 -0.67654,-0.006 0.1519,0.18302 0.18907,0.33593 0.0826,0.33981 -0.30674,0.0112 0.63505,0.65847 0.95806,0.65847 0.15969,0 0.29036,-0.14717 0.29036,-0.32706 z m -5.24393,-0.89306 c 0.13624,-0.35504 -0.0506,-0.41533 -0.6154,-0.19859 -0.1923,0.0738 -0.2944,0.22353 -0.2269,0.33276 0.19338,0.31288 0.70183,0.23189 0.8423,-0.13417 z m -3.28385,-0.57981 c 0.43733,-0.84571 1.0015,-2.41502 0.86821,-2.41502 -0.12573,0 -1.10968,1.95611 -1.31116,2.60661 -0.22338,0.72124 0.0269,0.61298 0.44295,-0.19159 z m 8.30595,0.0252 c 0,-0.12201 -0.19966,-0.22184 -0.44369,-0.22184 -0.24402,0 -0.44368,0.0998 -0.44368,0.22184 0,0.12202 0.19966,0.22184 0.44368,0.22184 0.24403,0 0.44369,-0.0998 0.44369,-0.22184 z m -4.93866,-0.37528 c -0.21502,-0.0561 -0.33391,-0.19425 -0.26421,-0.30703 0.0697,-0.11278 -0.0788,-0.20505 -0.33004,-0.20505 -0.50146,0 -0.61949,0.34105 -0.17947,0.51861 0.15252,0.0615 0.47696,0.10819 0.72098,0.10366 0.37094,-0.007 0.37958,-0.0249 0.0527,-0.11019 z m -8.23622,-0.67845 c -0.0327,-0.49277 -0.83243,-1.83019 -1.09443,-1.83019 -0.10877,0 -0.13716,0.15791 -0.0631,0.35091 0.074,0.193 0.13465,0.4291 0.13465,0.52469 0,0.17125 0.85859,1.34281 0.98409,1.34281 0.0355,0 0.053,-0.1747 0.0388,-0.38822 z m -0.43129,-0.20336 c -0.0813,-0.0813 -0.1479,-0.25105 -0.1479,-0.37713 0,-0.139 0.10332,-0.12591 0.26251,0.0333 0.14438,0.14438 0.21093,0.31408 0.1479,0.37713 -0.0631,0.063 -0.18118,0.048 -0.26251,-0.0333 z m 12.71432,-0.2874 c 0.30045,-0.56139 -0.0273,-0.73792 -0.61089,-0.32912 -0.59044,0.41356 -0.59879,1.27988 -0.009,0.96438 0.21596,-0.11557 0.49504,-0.40145 0.62018,-0.63526 z m 0.78092,0.65713 c 0.0754,-0.12201 -0.0684,-0.22184 -0.31966,-0.22184 -0.25122,0 -0.45678,0.0998 -0.45678,0.22184 0,0.12201 0.14385,0.22185 0.31967,0.22185 0.17582,0 0.38137,-0.0998 0.45677,-0.22185 z m -4.29499,-0.45106 c -0.55391,-0.46145 -1.2679,-0.60075 -1.01956,-0.19891 0.1518,0.24561 0.93222,0.61681 1.32143,0.62853 0.12202,0.003 -0.0138,-0.18966 -0.30187,-0.42962 z m 0.84927,-0.6716 c -0.26168,-0.48894 -0.65831,-0.57439 -0.65831,-0.14182 0,0.37955 0.46411,0.83436 0.70163,0.68757 0.10281,-0.0636 0.0833,-0.30913 -0.0433,-0.54575 z m 1.27792,-0.37475 c -0.0884,-0.36974 -0.1009,-0.36974 -0.26183,0 -0.093,0.21352 -0.093,0.56292 0,0.77644 0.16093,0.36973 0.1734,0.36973 0.26183,0 0.0511,-0.21352 0.0511,-0.56292 0,-0.77644 z m -8.7433,-3.22165 c 0.0747,-0.49799 0.0411,-0.78465 -0.0831,-0.70789 -0.11479,0.0709 -0.21024,0.2978 -0.21211,0.50411 -0.002,0.20632 -0.11009,0.52487 -0.2405,0.70789 -0.1828,0.25651 -0.21099,0.18027 -0.12306,-0.33276 0.0627,-0.36604 0.1546,-0.81526 0.20415,-0.99828 0.0495,-0.18302 0.0501,-0.2635 8.4e-4,-0.17884 -0.15117,0.26175 -0.73119,-0.0738 -0.59382,-0.34355 0.0712,-0.13972 -0.22163,0.11092 -0.65067,0.557 -0.42902,0.44607 -0.83045,0.76064 -0.89206,0.69903 -0.0616,-0.0616 -0.0572,0.0975 0.01,0.35362 0.17984,0.6877 0.58952,0.56932 1.26759,-0.36628 l 0.60292,-0.8319 -0.14818,0.83023 c -0.0815,0.45662 -0.0837,0.99845 -0.005,1.20404 0.21731,0.56631 0.70637,-0.0553 0.86263,-1.09642 z m 1.70476,0.49527 c 0,-0.37089 -0.20169,-1.06969 -0.4482,-1.55287 -0.50491,-0.98972 -0.76207,-1.17324 -0.43367,-0.30948 0.27718,0.72904 0.27518,1.04638 -0.006,0.87291 -0.12201,-0.0754 -0.22184,-0.32498 -0.22184,-0.5546 0,-0.22962 -0.0909,-0.47368 -0.20203,-0.54236 -0.21337,-0.13187 0.23081,2.04709 0.50909,2.49734 0.32477,0.52549 0.80213,0.28093 0.80213,-0.41094 z m -1.25082,0.11976 c -0.0703,-0.18302 -0.16692,-0.33276 -0.21488,-0.33276 -0.048,0 -0.0872,0.14974 -0.0872,0.33276 0,0.18301 0.0967,0.33276 0.21488,0.33276 0.11818,0 0.15742,-0.14975 0.0872,-0.33276 z m 2.79875,-0.72098 c -0.005,-0.42659 -0.52595,-1.11802 -1.21518,-1.6141 -0.43076,-0.31005 -0.43237,-0.30604 -0.0554,0.13797 0.59656,0.70276 0.46036,0.89781 -0.20577,0.29468 l -0.59399,-0.53781 0.53853,0.74383 c 0.29619,0.4091 0.63785,0.88329 0.75924,1.05374 0.30913,0.43409 0.77854,0.38652 0.77263,-0.0783 z m -5.73843,-0.55539 c 1.0529,-0.80309 1.13847,-1.18841 0.24767,-1.11545 -0.77884,0.0638 -1.69616,0.76289 -1.78498,1.36034 -0.10221,0.68759 0.42482,0.60363 1.53731,-0.24489 z m 0.0865,-0.83111 c 0.0754,-0.12201 0.30591,-0.22031 0.51223,-0.21844 0.32328,0.003 0.32914,0.0331 0.0423,0.21844 -0.43444,0.28076 -0.72812,0.28076 -0.5546,0 z m -0.5546,-0.47929 c 0,-0.21979 -0.27176,-0.23827 -0.7583,-0.0516 -0.19299,0.074 -0.3509,0.27157 -0.3509,0.43892 0,0.24404 0.10977,0.25426 0.5546,0.0516 0.30503,-0.13898 0.5546,-0.33649 0.5546,-0.43893 z m 7.32071,0.39364 c 0,-0.1691 -0.33953,-0.46859 -0.75451,-0.66552 -0.9761,-0.46319 -1.46066,-0.46706 -0.89622,-0.008 0.42308,0.34473 0.33917,0.34174 -0.67859,-0.0242 l -0.44368,-0.1595 0.44368,0.32765 c 0.46606,0.34419 1.58072,0.78886 2.05202,0.81862 0.15252,0.01 0.2773,-0.12085 0.2773,-0.28997 z m -6.87703,-1.0404 c -0.24828,-0.17303 -0.13565,-0.20083 0.44368,-0.10947 l 0.77644,0.12244 -0.77644,-0.31394 c -0.95297,-0.38532 -1.91871,-0.43129 -2.12281,-0.10105 -0.21761,0.3521 0.33161,0.63392 1.23545,0.63392 0.60441,0 0.70271,-0.0514 0.44368,-0.2319 z m 6.22966,-0.42682 c 0.23404,0 0.42553,-0.0892 0.42553,-0.19811 0,-0.33158 -0.59261,-0.4497 -1.25681,-0.25048 -0.34585,0.10373 -0.49815,0.19719 -0.33843,0.20767 0.16344,0.0107 0.22027,0.13254 0.12998,0.27861 -0.10936,0.17695 -0.0371,0.21225 0.22689,0.11092 0.21302,-0.0817 0.57879,-0.14861 0.81284,-0.14861 z m -5.29658,-0.43905 c -0.27987,-0.23335 -0.48636,-0.50455 -0.45886,-0.60268 0.0909,-0.32414 -1.11844,-0.6212 -1.39657,-0.34306 -0.19152,0.19151 0.0423,0.39001 0.94395,0.80149 1.46441,0.66828 1.55769,0.68304 0.91148,0.14425 z m -1.82044,-0.10247 c 0,-0.0538 -0.0998,-0.15952 -0.22183,-0.23493 -0.12202,-0.0754 -0.22185,-0.0314 -0.22185,0.0978 0,0.12921 0.0998,0.23493 0.22185,0.23493 0.12201,0 0.22183,-0.044 0.22183,-0.0978 z m 2.5065,-0.27132 c -0.0991,-0.25827 -0.0588,-0.31794 0.13421,-0.19864 0.15174,0.0938 0.0703,-0.23248 -0.18096,-0.725 -0.49883,-0.97779 -0.80621,-1.26796 -1.00405,-0.94784 -0.16405,0.26544 0.24648,1.34911 0.7016,1.852 0.43976,0.48593 0.53012,0.49097 0.3492,0.0195 z m -0.36205,-0.44426 c -0.0813,-0.0813 -0.14789,-0.25105 -0.14789,-0.37713 0,-0.139 0.10332,-0.1259 0.26251,0.0333 0.14438,0.14438 0.21093,0.31408 0.14789,0.37713 -0.0631,0.063 -0.18117,0.048 -0.26251,-0.0333 z m 4.6778,-0.24236 c 0.10793,-0.32378 -0.57427,-0.36153 -1.05441,-0.0584 -0.18303,0.11557 -0.34415,0.41478 -0.35807,0.66494 -0.0248,0.44527 -0.0112,0.44657 0.64771,0.0617 0.37016,-0.21618 0.71431,-0.51693 0.76477,-0.66833 z m -1.39519,-0.40062 c 0.45232,-0.95323 0.303,-1.21432 -0.361,-0.63124 -0.42299,0.37145 -0.4655,0.37672 -0.34381,0.0428 0.0764,-0.20962 0.0397,-0.44237 -0.0813,-0.51723 -0.13733,-0.0849 -0.18138,0.18385 -0.11705,0.71388 0.0568,0.46749 0.1103,0.98065 0.11899,1.14037 0.0247,0.45439 0.36963,0.12522 0.78424,-0.74851 z m -2.52431,-1.27558 c -0.43017,-0.43017 -0.5371,0.0591 -0.22109,1.01161 l 0.31317,0.94393 0.0706,-0.86114 c 0.0388,-0.47362 -0.0344,-0.9661 -0.16268,-1.0944 z m 1.09037,0.84634 c 0,-1.10036 -0.34966,-1.33921 -0.58542,-0.3999 -0.0948,0.37775 -0.0555,0.62995 0.1067,0.684 0.14128,0.0471 0.25688,0.22706 0.25688,0.3999 0,0.17285 0.0499,0.31428 0.11092,0.31428 0.061,0 0.11092,-0.44923 0.11092,-0.99828 z m -2.80369,0.44368 c -0.13914,-0.36256 -0.52391,-0.4576 -0.52391,-0.12941 0,0.16838 0.15547,0.283 0.6031,0.44465 0.0267,0.01 -0.009,-0.13223 -0.0791,-0.31524 z"
         id="path27479-9"
         sodipodi:nodetypes="cssscsssssssccssssssssssssssssssssssssssssssssssssssscssssssscsssscccssssssssssscsssssssssssssssccsssscsccsssssssssssssssssssssssssscssscsssssssscssssccssssssssssssssssscsssssssssssssssssssssssssscssssssssssscscssscssscscsccccssssssccssssssssscssssssssscssssssssscscscssccsscssssssssssssssssssssssssssssssssssssssssssssssssscsssssssssssss" />
      <circle
         style="fill:none;stroke:#ff0000;stroke-width:0.1;stroke-dasharray:none"
         id="path788-8-1-8-1-9-2-1-5"
         cx="-322.75034"
         cy="-305.60587"
         r="19.954653" />
      <ellipse
         style="fill:none;stroke:#ff00ff;stroke-width:0.1;stroke-dasharray:none;stroke-opacity:1"
         id="path1138-9-4-0-0-1-2-6-50"
         cx="-322.75034"
         cy="-305.60587"
         rx="18.492125"
         ry="18.492126" />
      <circle
         style="fill:none;stroke:#0000ff;stroke-width:0.1;stroke-linecap:round;stroke-dasharray:none;stroke-opacity:1;paint-order:markers stroke fill"
         id="path13019-1-33-7-5"
         cx="-322.75034"
         cy="-320.61685"
         r="2" />
    </g>
  </g>
</svg>
