<?xml version="1.0" encoding="UTF-8" standalone="no"?>
<!-- Created with Inkscape (http://www.inkscape.org/) -->

<svg
   width="41.008999mm"
   height="41.008999mm"
   viewBox="0 0 41.008999 41.008999"
   version="1.1"
   id="svg1"
   sodipodi:docname="131.svg"
   inkscape:version="1.4.2 (f4327f4, 2025-05-13)"
   xmlns:inkscape="http://www.inkscape.org/namespaces/inkscape"
   xmlns:sodipodi="http://sodipodi.sourceforge.net/DTD/sodipodi-0.dtd"
   xmlns="http://www.w3.org/2000/svg"
   xmlns:svg="http://www.w3.org/2000/svg">
  <sodipodi:namedview
     id="namedview1"
     pagecolor="#ffffff"
     bordercolor="#000000"
     borderopacity="0.25"
     inkscape:showpageshadow="2"
     inkscape:pageopacity="0.0"
     inkscape:pagecheckerboard="0"
     inkscape:deskcolor="#d1d1d1"
     inkscape:document-units="mm"
     showguides="false"
     inkscape:zoom="2"
     inkscape:cx="156.5"
     inkscape:cy="47.5"
     inkscape:window-width="1050"
     inkscape:window-height="1081"
     inkscape:window-x="857"
     inkscape:window-y="0"
     inkscape:window-maximized="0"
     inkscape:current-layer="layer1" />
  <defs
     id="defs1" />
  <g
     inkscape:label="Layer 1"
     inkscape:groupmode="layer"
     id="layer1"
     transform="translate(-70.643761,-99.218767)">
    <g
       id="g11765"
       transform="translate(371.69404,425.32913)">
      <circle
         style="fill:none;stroke:#ff0000;stroke-width:0.1;stroke-dasharray:none"
         id="path788-8-1-8-1-9-2-7"
         cx="-280.54578"
         cy="-305.60587"
         r="19.954653" />
      <path
         style="fill:#000000;stroke-width:0.1;stroke-dasharray:none"
         d="m -281.56031,-288.94406 c 0.0602,-0.27443 0.2965,-0.95531 0.52493,-1.51307 0.60946,-1.48809 0.57122,-2.61345 -0.20257,-5.96226 -0.13205,-0.57148 0.22041,-0.43409 0.61886,0.24123 l 0.35949,0.60929 0.19837,-1.1409 c 0.28733,-1.65244 0.45902,-4.33063 0.27763,-4.33063 -0.0835,0 -0.31852,0.11682 -0.52233,0.25957 -0.27471,0.19241 -0.42662,0.21304 -0.58721,0.0798 -0.16106,-0.13368 -0.2693,-0.11634 -0.42194,0.0676 -0.22253,0.26813 -0.98313,0.34268 -0.98313,0.0963 0,-0.0831 -0.18449,-0.37027 -0.40996,-0.63825 -0.23048,-0.2739 -0.36815,-0.59618 -0.31447,-0.73609 0.0587,-0.15307 -0.0384,-0.32057 -0.25253,-0.43514 -0.2978,-0.15936 -0.34094,-0.30876 -0.29895,-1.03488 0.0478,-0.8261 0.0633,-0.85 0.58072,-0.89989 0.43186,-0.0416 0.53161,-0.1223 0.53161,-0.4298 0,-0.55538 0.35537,-0.78913 0.89042,-0.58569 0.62785,0.2387 0.91539,0.21072 0.8045,-0.0783 -0.0518,-0.13495 -0.19852,-0.24536 -0.32607,-0.24536 -0.23391,0 -0.55097,-0.6268 -0.55097,-1.08921 0,-0.13752 0.14375,-0.28762 0.31944,-0.33356 0.31402,-0.0822 0.31369,-0.0914 -0.0193,-0.54165 -0.1863,-0.25196 -0.28602,-0.54337 -0.22163,-0.64755 0.0643,-0.1042 -0.006,-0.32653 -0.15865,-0.4941 -0.29767,-0.32893 -0.28346,-0.83506 0.0263,-0.93821 0.12199,-0.0406 0.15955,0.0588 0.10336,0.27357 -0.11043,0.4223 0.2084,0.82309 0.66562,0.83671 l 0.34801,0.0105 -0.35131,0.14175 c -0.48448,0.19548 -0.55586,0.3637 -0.30175,0.71121 0.34119,0.4666 0.9588,0.29275 1.06995,-0.30119 0.0866,-0.46309 0.0988,-0.47001 0.21651,-0.12279 0.10294,0.30383 0.17973,0.33845 0.44083,0.19871 0.41881,-0.22414 0.39974,-0.5472 -0.0519,-0.87856 l -0.36805,-0.27004 0.38562,0.18345 c 0.46326,0.22039 0.87403,-0.0429 0.55874,-0.35831 -0.24507,-0.24509 -1.02614,-0.0402 -1.02614,0.26921 0,0.41788 -0.56495,0.26368 -0.77534,-0.21164 -0.28589,-0.64585 -1.06089,-0.91219 -1.65768,-0.56968 -0.577,0.33113 -1.00206,0.17772 -1.00206,-0.36169 0,-0.24981 -0.0927,-0.41407 -0.23368,-0.41407 -0.3971,0 -0.74777,-0.48876 -0.74777,-1.04221 0,-0.61012 0.24792,-0.92069 0.73497,-0.92069 0.24515,0 0.38686,-0.15102 0.49891,-0.53162 0.13798,-0.46872 0.22426,-0.53163 0.72902,-0.53163 0.50236,0 0.5937,0.0656 0.74545,0.53503 0.0952,0.29427 0.33263,0.64688 0.5278,0.78358 0.31056,0.21753 0.34523,0.36186 0.27765,1.15603 -0.0424,0.49911 -0.11871,0.97459 -0.16941,1.05663 -0.15737,0.25463 0.0882,0.16426 0.4372,-0.1609 0.25564,-0.23817 0.31102,-0.43729 0.23882,-0.85876 -0.0517,-0.30179 -0.13604,-1.24799 -0.18741,-2.10267 -0.0859,-1.42952 -0.0728,-1.52853 0.16327,-1.23643 0.14117,0.17463 0.25668,0.48746 0.25668,0.69518 0,0.20773 0.0678,0.37767 0.15058,0.37767 0.2097,0 0.41765,-0.9459 0.36284,-1.65041 -0.0343,-0.44022 0.0633,-0.7166 0.38928,-1.10414 0.50512,-0.6003 0.81267,-0.65232 1.06533,-0.1802 0.34106,0.63726 -0.19879,1.71549 -0.993,1.98331 -0.23599,0.0796 -0.79303,1.80049 -0.9129,2.82031 -0.0846,0.72068 -0.0596,0.9115 0.11982,0.9099 0.28526,-0.003 0.96308,-1.03023 0.96308,-1.46017 0,-0.62677 0.37532,-1.12924 1.16419,-1.5586 l 0.79872,-0.43472 -6.2e-4,0.54184 c -9.4e-4,0.82424 -0.52836,1.5587 -1.26099,1.75598 -1.02512,0.27605 -1.59176,1.86465 -0.79784,2.23679 0.35139,0.1647 0.40976,0.12441 0.71098,-0.49073 0.18049,-0.36859 0.63134,-1.0127 1.00188,-1.43135 0.37056,-0.41866 0.67372,-0.86878 0.67372,-1.00029 0,-0.35458 0.61602,-1.07289 1.16241,-1.35544 0.42931,-0.222 0.48927,-0.22163 0.57572,0.004 0.25245,0.65778 -0.44832,1.72289 -1.13348,1.72289 -0.33507,0 -1.42247,0.90614 -1.42247,1.18537 0,0.0586 0.26447,-0.004 0.58773,-0.13903 0.79248,-0.33111 0.97902,-0.22923 0.55868,0.30515 -0.20362,0.25884 -0.66052,0.53475 -1.09574,0.66165 -0.65315,0.19045 -0.80316,0.32483 -1.19986,1.07485 -0.24935,0.47144 -0.58266,1.00003 -0.74068,1.17465 -0.27552,0.30443 -0.27355,0.31748 0.0477,0.31748 0.37096,0 0.53485,0.29439 0.53108,0.95393 -0.003,0.51753 -0.14054,0.74972 -0.52912,0.89308 -0.15744,0.0581 -0.28627,0.21835 -0.28627,0.35611 0,0.13778 -0.0588,0.2505 -0.13072,0.2505 -0.072,0 -0.10063,-0.25763 -0.0639,-0.5725 0.0567,-0.48596 0.0174,-0.57253 -0.26071,-0.57253 -0.44945,0 -0.59463,0.47106 -0.25935,0.84154 0.17182,0.18986 0.20175,0.30349 0.08,0.30349 -0.14644,0 -0.1496,0.0842 -0.0128,0.33984 0.1,0.18691 0.27492,0.30413 0.38864,0.2605 0.28938,-0.11104 0.45708,0.043 0.8172,0.75091 0.25047,0.49232 0.27637,0.68831 0.12974,0.98145 -0.10073,0.20147 -0.20479,1.3682 -0.23117,2.59275 l -0.048,2.22643 0.60146,-0.91785 c 0.33081,-0.5048 0.7525,-1.07871 0.93711,-1.27534 0.60754,-0.6471 2.91028,-0.71714 2.67609,-0.0814 -0.14356,0.38972 -0.3772,0.5153 -0.96402,0.51818 -0.28138,9.3e-4 -0.60323,0.11291 -0.71523,0.24786 -0.22731,0.2739 -0.98145,0.33674 -0.98145,0.0818 0,-0.36977 -0.32275,-0.1173 -0.79917,0.62515 -0.54365,0.84721 -0.92854,1.79105 -0.78776,1.93181 0.0477,0.0477 0.58982,-0.2819 1.20483,-0.73233 0.79198,-0.58007 1.13371,-0.75044 1.1714,-0.58406 0.13579,0.59952 -1.1838,2.00548 -2.44816,2.6084 l -0.58427,0.27861 -0.10969,1.94096 c -0.11305,2.00047 -0.55789,3.89612 -1.04219,4.44116 -0.38456,0.43282 -0.56965,0.34479 -0.44719,-0.21271 z m 0.97369,-1.70931 c 0.0591,-0.28667 -0.0382,-0.15063 -0.23366,0.32716 -0.45179,1.10427 -0.56706,1.62845 -0.17986,0.81787 0.17192,-0.35986 0.358,-0.87512 0.41352,-1.14503 z m 0.3659,-3.33551 c -0.0809,-0.94498 -0.48123,-2.30783 -0.67787,-2.30783 -0.0375,0 -3e-5,0.23763 0.0833,0.52805 0.0833,0.29042 0.19897,1.09803 0.25706,1.79469 0.0643,0.77201 0.16898,1.22748 0.26787,1.16636 0.0965,-0.0596 0.12471,-0.53853 0.0697,-1.18127 z m 1.99815,-2.40316 c 0.28392,-0.23889 0.63077,-0.65588 0.77078,-0.92662 l 0.25455,-0.49226 -0.99044,0.69476 c -0.86449,0.60639 -1.49332,1.26078 -1.49332,1.55398 0,0.15086 0.90471,-0.36392 1.45843,-0.82986 z m -1.51027,-0.75321 c -0.0523,-0.1305 -0.0909,-0.0917 -0.0988,0.0988 -0.007,0.17243 0.0316,0.26904 0.0859,0.21469 0.0543,-0.0543 0.0601,-0.19544 0.0129,-0.31352 z m 0.1652,-1.07036 c -0.0415,-0.15914 -0.0781,-0.0685 -0.0815,0.20136 -0.003,0.26989 0.0306,0.40011 0.0754,0.28938 0.0447,-0.11075 0.0475,-0.33158 0.006,-0.49074 z m 0.17109,-3.11103 c -0.0324,-0.51731 -0.059,-0.0941 -0.059,0.94055 0,1.03461 0.0266,1.45787 0.059,0.94056 0.0324,-0.5173 0.0324,-1.36381 0,-1.88111 z m 2.46361,1.88929 c 0.27374,-0.27376 0.24553,-0.78516 -0.0434,-0.78516 -0.28215,0 -0.63731,0.58999 -0.49438,0.82125 0.13182,0.21329 0.29957,0.20204 0.53769,-0.0361 z m 1.40973,-0.39373 c 0.4066,-0.15603 0.3039,-0.34768 -0.22818,-0.42576 -0.56104,-0.0823 -0.91442,0.079 -0.7512,0.34319 0.12334,0.19958 0.57519,0.23768 0.97938,0.0825 z m -5.89283,-0.97732 c 0.14364,-0.37431 0.12186,-1.33466 -0.0378,-1.66549 -0.0754,-0.15622 -0.24367,-0.50487 -0.37398,-0.77476 -0.25635,-0.53092 -1.00074,-0.98225 -1.38003,-0.83671 -0.26159,0.10041 -0.3187,1.02444 -0.086,1.3919 0.10504,0.1659 0.32724,0.1988 0.81538,0.12074 0.78134,-0.12493 0.89915,0.11219 0.18024,0.36279 -0.57268,0.19964 -0.65108,0.66356 -0.16357,0.96801 0.17994,0.11237 0.32715,0.31408 0.32715,0.44827 0,0.32565 0.59264,0.31347 0.71859,-0.0148 z m 1.25243,-0.31798 c 0.58707,-0.30359 0.60041,-0.46539 0.0812,-0.98469 l -0.4015,-0.4015 h 0.63722 c 0.35046,0 0.68367,-0.0752 0.74045,-0.16705 0.16681,-0.2699 -0.46106,-1.45978 -0.77276,-1.46448 -0.4492,-0.006 -0.95441,0.64512 -0.84324,1.08807 0.0546,0.21748 9.4e-4,0.49855 -0.12242,0.64782 -0.27561,0.33208 -0.18295,1.53139 0.1183,1.53139 0.0441,0 0.29743,-0.1123 0.56286,-0.24956 z m -0.90779,-2.04049 c -0.0556,-0.0899 -0.18875,-0.16245 -0.29591,-0.16107 -0.11706,9.3e-4 -0.0968,0.0658 0.0506,0.16107 0.31425,0.20309 0.37087,0.20309 0.24537,0 z m 0.33693,-0.72804 c 0.39208,-0.5984 0.24486,-0.95569 -0.46274,-1.12303 -1.10104,-0.26039 -1.44191,0.22852 -0.76197,1.09291 0.42415,0.53925 0.8837,0.55054 1.22471,0.0302 z m 0.05,-2.31166 c 0.0928,-0.48647 0.67627,-0.77891 0.67627,-0.33894 0,0.121 0.15171,0.3573 0.33714,0.52511 0.28853,0.26112 0.35892,0.27067 0.48823,0.0662 0.2291,-0.36222 0.19014,-0.45663 -0.21196,-0.51374 -0.27738,-0.0394 -0.38819,-0.18744 -0.44983,-0.60105 l -0.0818,-0.54879 -0.44034,0.40951 c -0.24221,0.22523 -0.57345,0.39857 -0.7361,0.38521 -0.28802,-0.0237 -0.32795,0.24876 -0.1243,0.84807 0.10325,0.30398 0.4704,0.14727 0.54267,-0.23162 z m 1.65523,-0.51807 c -9.4e-4,-0.0675 -0.072,-0.23247 -0.15677,-0.36667 -0.12554,-0.19856 -0.19334,-0.20491 -0.36417,-0.0341 -0.17084,0.17085 -0.16449,0.23864 0.0341,0.36418 0.29616,0.18723 0.49023,0.20182 0.48686,0.0366 z m -0.8481,-2.6908 c 0.27491,-0.27491 0.24836,-0.94874 -0.0374,-0.94874 -0.33383,0 -0.74778,0.45923 -0.74778,0.82956 0,0.35769 0.47462,0.42973 0.78516,0.11918 z m -2.50276,-0.68033 c 0.13906,-0.21225 0.2065,-0.50667 0.14985,-0.6543 -0.15435,-0.40226 -0.7041,-0.32374 -0.91088,0.13011 -0.37114,0.81454 0.27789,1.26158 0.76103,0.52419 z m 1.22687,-0.44569 c 0,-0.19697 -0.16721,-0.38511 -0.43161,-0.48565 -0.54209,-0.2061 -0.62995,-0.12114 -0.37502,0.36267 0.36205,0.68709 0.80663,0.75488 0.80663,0.12298 z m 4.22625,0.0654 c 0.21024,-0.13276 0.34619,-0.27745 0.30212,-0.32151 -0.0916,-0.0916 -1.42042,0.55685 -1.42042,0.69313 0,0.13176 0.67802,-0.0935 1.1183,-0.37162 z m -6.26308,-0.61322 c 0.36436,-0.55608 0.0695,-1.11474 -0.55048,-1.04312 -0.34423,0.0397 -0.45018,0.14979 -0.49154,0.51043 -0.10094,0.88066 0.58444,1.23105 1.04202,0.53269 z m 2.03683,-0.57383 c 0,-0.46504 -0.28584,-0.56506 -0.74848,-0.26194 -0.49674,0.32548 -0.37951,0.57944 0.26742,0.57944 0.36714,0 0.48106,-0.0753 0.48106,-0.3175 z m -0.77825,-0.60378 c 0.38918,-0.85417 -0.59416,-1.67576 -1.03028,-0.86082 -0.10136,0.1894 -0.1394,0.58378 -0.0845,0.87639 0.0872,0.46556 0.15219,0.52201 0.51906,0.45189 0.23109,-0.0442 0.49845,-0.25397 0.59572,-0.46746 z m 4.00702,0.18036 c 0.29492,-0.20657 0.79009,-1.34706 0.64696,-1.49015 -0.0226,-0.0226 -0.33349,0.12223 -0.69075,0.322 -0.5182,0.28974 -0.65992,0.46989 -0.70081,0.89076 -0.0579,0.59552 0.16948,0.68022 0.7446,0.27739 z m 2.33279,-0.40411 c 0.17994,-0.17993 0.32716,-0.39473 0.32716,-0.47735 0,-0.0826 0.0446,-0.26662 0.0992,-0.40893 0.14769,-0.38486 -0.17246,-0.31369 -0.74104,0.16474 -0.52802,0.4443 -0.67667,1.04869 -0.2579,1.04869 0.13495,0 0.39258,-0.14722 0.5725,-0.32715 z m -4.79389,-1.10102 c -0.0415,-0.15916 -0.0781,-0.0685 -0.0815,0.20135 -0.003,0.26991 0.0306,0.40012 0.0754,0.28938 0.0447,-0.11075 0.0475,-0.33158 0.006,-0.49073 z m 1.71399,-1.29617 c 0.19042,-0.17235 0.29912,-0.49798 0.29912,-0.89616 0,-0.60315 -0.0141,-0.61898 -0.39788,-0.44415 -0.66934,0.30497 -0.99128,1.61102 -0.39711,1.61102 0.10819,0 0.33133,-0.12182 0.49587,-0.27071 z m 0.18071,11.80279 c -0.22466,-0.34272 -0.29199,-0.58745 -0.18976,-0.68968 0.10221,-0.10221 0.069,-0.23276 -0.0939,-0.36785 -0.35394,-0.29374 -0.31408,-1.19171 0.0748,-1.68615 0.17995,-0.22874 0.32716,-0.57227 0.32716,-0.76339 0,-0.19113 0.10987,-0.61047 0.24417,-0.9319 0.13429,-0.32142 0.20717,-0.74231 0.16194,-0.9353 -0.0453,-0.19301 -0.0193,-0.44719 0.0576,-0.56486 0.19577,-0.29957 0.97149,-0.0784 1.09551,0.31233 0.0745,0.2348 0.19607,0.28679 0.49506,0.21175 0.50762,-0.12741 0.71239,0.31682 0.33715,0.73144 -0.2473,0.27328 -0.23749,0.30825 0.14374,0.51227 0.78699,0.42119 0.30739,1.0875 -0.66873,0.9291 -0.47737,-0.0775 -0.55097,-0.0545 -0.40183,0.12518 0.14187,0.17092 0.11747,0.21473 -0.1094,0.19633 -0.22752,-0.0184 -0.29199,0.0988 -0.29199,0.53102 0,0.73967 0.42134,1.02322 0.89008,0.59899 0.41214,-0.37296 0.42916,-0.67465 0.0505,-0.89522 -0.15744,-0.0917 -0.20831,-0.16896 -0.11306,-0.1717 0.37267,-0.0106 0.72209,0.43821 0.91626,1.17716 0.2683,1.02096 0.0614,1.66012 -0.56084,1.73219 -0.25191,0.0292 -0.44682,0.15277 -0.44682,0.28331 0,0.16998 -0.20873,0.22687 -0.78476,0.21388 -0.69592,-0.0157 -0.82419,-0.0779 -1.13298,-0.5489 z m 1.75416,0.15669 c 0,-0.24406 -0.35364,-0.89282 -0.48667,-0.89282 -0.1775,0 -0.23602,0.85853 -0.0699,1.0247 0.0925,0.0925 0.55652,-0.0174 0.55652,-0.13188 z m -0.88297,-0.48171 c 0.21779,-0.69588 0.16833,-0.75723 -0.43953,-0.54533 -0.54908,0.19141 -0.53448,0.15586 -0.28699,0.69904 0.26193,0.57486 0.51525,0.52126 0.72652,-0.15371 z m 1.8887,-0.15369 c 0.19734,-0.43314 0.0694,-1.23888 -0.19671,-1.23888 -0.24802,0 -0.97258,0.50577 -0.97258,0.67888 0,0.28825 0.52994,0.95688 0.7584,0.95688 0.12653,0 0.31143,-0.1786 0.41089,-0.39688 z m -2.01993,-1.08941 c 0.0556,-0.47622 -0.47562,-1.24042 -0.74605,-1.07328 -0.0976,0.0603 -0.22865,0.3427 -0.29119,0.62748 -0.0883,0.40218 -0.0462,0.56717 0.18871,0.73894 0.43373,0.31716 0.79176,0.19346 0.84853,-0.29314 z m 0.19634,-1.2127 c 0,-0.13495 -0.003,-0.2848 -0.005,-0.333 -0.003,-0.0482 0.0978,-0.19126 0.22445,-0.31791 0.12754,-0.12755 0.19618,-0.40868 0.15385,-0.63013 -0.0421,-0.21991 3.3e-4,-0.54341 0.0943,-0.71888 0.2288,-0.42749 0.0665,-0.97695 -0.31831,-1.07757 -0.24485,-0.0641 -0.31202,0.005 -0.31202,0.32279 0,0.22239 0.0754,0.54508 0.16735,0.71708 0.13107,0.2449 0.11791,0.29374 -0.0607,0.2252 -0.12542,-0.0481 -0.26461,0.008 -0.3093,0.12637 -0.11951,0.31448 0.0515,1.27711 0.22694,1.27711 0.0839,0 0.073,0.14518 -0.0243,0.32714 -0.11871,0.22182 -0.12056,0.32716 -0.005,0.32716 0.0932,0 0.16933,-0.11041 0.16933,-0.24536 z m -0.32966,-0.20447 c -9.4e-4,-0.0675 -0.0738,-0.2331 -0.16106,-0.36805 -0.12824,-0.1984 -0.15906,-0.17493 -0.16109,0.12268 -9.3e-4,0.20243 0.0712,0.36804 0.16109,0.36804 0.0899,0 0.16244,-0.0551 0.16106,-0.12267 z m 2.04718,-0.68893 c 0,-0.26218 -0.82099,-0.79375 -0.98011,-0.63463 -0.0545,0.0544 -0.0497,0.29577 0.0106,0.53621 0.0889,0.35441 0.19112,0.42774 0.53958,0.38736 0.24531,-0.0285 0.42986,-0.15249 0.42986,-0.28894 z m -0.56175,-0.99347 c 0.37309,-0.19967 0.41827,-0.48497 0.0768,-0.48497 -0.13178,0 -0.3184,0.14721 -0.41469,0.32715 -0.19709,0.36826 -0.1214,0.40363 0.3379,0.15782 z m -8.14862,2.27776 c -0.29239,-0.18768 -0.53163,-0.40249 -0.53163,-0.47736 0,-0.0748 -0.16491,-0.15966 -0.36651,-0.18842 -0.7577,-0.10805 -0.98107,-1.70468 -0.26469,-1.89202 0.16724,-0.0438 0.30406,-0.21815 0.30406,-0.38759 0,-0.71682 1.34203,-1.32831 1.57616,-0.71818 0.0596,0.15527 0.22155,0.21218 0.4447,0.15629 0.58033,-0.14536 0.92031,0.24917 0.99397,1.15348 0.0901,1.10604 -0.0386,1.54994 -0.50014,1.72542 -0.23214,0.0882 -0.38822,0.28076 -0.38822,0.4788 0,0.18216 -0.0677,0.33119 -0.15019,0.33119 -0.0826,0 -0.24822,0.036 -0.36804,0.0798 -0.11981,0.0439 -0.45707,-0.0737 -0.74947,-0.26143 z m 1.02235,-0.71805 c 0,-0.56947 -0.0518,-0.66161 -0.39977,-0.71072 -0.40085,-0.0566 -0.82704,0.31976 -0.82704,0.7303 0,0.33929 0.51078,0.73688 0.87915,0.68433 0.28829,-0.0412 0.34766,-0.16135 0.34766,-0.70391 z m -1.39039,-0.40894 c 0.48119,-0.48118 0.41288,-0.90625 -0.18551,-1.1541 -0.45639,-0.18904 -0.53718,-0.17881 -0.73609,0.0932 -0.28705,0.39255 -0.28138,0.57822 0.0311,1.0245 0.31386,0.44812 0.47221,0.45459 0.89039,0.0364 z m 2.25796,-0.27785 c 0.0454,-0.4548 0.0134,-0.49109 -0.36806,-0.41816 -0.48429,0.0925 -0.47433,0.0657 -0.22597,0.61077 0.24553,0.53887 0.53025,0.44655 0.59403,-0.19261 z m -0.13896,-0.77638 c 0.30825,-0.37143 0.1458,-0.98243 -0.2772,-1.04252 -0.41178,-0.0584 -0.81186,0.57945 -0.64162,1.0231 0.12319,0.32105 0.65909,0.33237 0.91882,0.0194 z m -1.08575,-0.59835 c 0.0448,-0.17132 -0.0494,-0.47315 -0.2094,-0.67072 -0.28073,-0.34669 -0.30588,-0.34937 -0.72094,-0.0775 -0.49745,0.32595 -0.51519,0.40706 -0.19053,0.87059 0.29338,0.41888 0.99949,0.34175 1.12087,-0.12244 z"
         id="path1142"
         sodipodi:nodetypes="sssscsssssssssscsssssssssssscsssssscsssssssssssssssssssssssssscssccsssssscsscssssscsssssssssssscssscssssssscssssscsssssssssscssssssssccsccsssssssssssssssssssssssssscsscscssscssssssssssssscssssssssssssssssssssssssssssssssssssssssssssssscsssccsccssssssssssssssssssssssssssssssssssssssssssssssscssscsssssssscccscscssssssssssssssssssssssssssssssssssssssssssscsss" />
      <ellipse
         style="fill:none;stroke:#ff00ff;stroke-width:0.1;stroke-dasharray:none;stroke-opacity:1"
         id="path1138-9-4-0-0-1-2-41"
         cx="-280.54578"
         cy="-305.60587"
         rx="18.492125"
         ry="18.492126" />
      <circle
         style="fill:none;stroke:#0000ff;stroke-width:0.1;stroke-linecap:round;stroke-dasharray:none;stroke-opacity:1;paint-order:markers stroke fill"
         id="path13019-1-33-58"
         cx="-280.54581"
         cy="-320.61685"
         r="2" />
    </g>
  </g>
</svg>
