<?xml version="1.0" encoding="UTF-8" standalone="no"?>
<!-- Created with Inkscape (http://www.inkscape.org/) -->

<svg
   width="41.008999mm"
   height="41.008999mm"
   viewBox="0 0 41.008999 41.008999"
   version="1.1"
   id="svg1"
   sodipodi:docname="132.svg"
   inkscape:version="1.4.2 (f4327f4, 2025-05-13)"
   xmlns:inkscape="http://www.inkscape.org/namespaces/inkscape"
   xmlns:sodipodi="http://sodipodi.sourceforge.net/DTD/sodipodi-0.dtd"
   xmlns="http://www.w3.org/2000/svg"
   xmlns:svg="http://www.w3.org/2000/svg">
  <sodipodi:namedview
     id="namedview1"
     pagecolor="#ffffff"
     bordercolor="#000000"
     borderopacity="0.25"
     inkscape:showpageshadow="2"
     inkscape:pageopacity="0.0"
     inkscape:pagecheckerboard="0"
     inkscape:deskcolor="#d1d1d1"
     inkscape:document-units="mm"
     showguides="false"
     inkscape:zoom="2"
     inkscape:cx="156.5"
     inkscape:cy="47.5"
     inkscape:window-width="1050"
     inkscape:window-height="1081"
     inkscape:window-x="857"
     inkscape:window-y="0"
     inkscape:window-maximized="0"
     inkscape:current-layer="layer1" />
  <defs
     id="defs1" />
  <g
     inkscape:label="Layer 1"
     inkscape:groupmode="layer"
     id="layer1"
     transform="translate(-70.643761,-99.218767)">
    <g
       id="g11747"
       transform="translate(329.4988,425.31845)">
      <path
         style="fill:#000000;stroke-width:0.1;stroke-dasharray:none"
         d="m -240.64093,-291.09148 c -0.11889,-4.99371 -0.50975,-7.34843 -1.34516,-8.10403 -0.28893,-0.26132 -0.71008,-0.47513 -0.9359,-0.47513 -0.2258,0 -0.41056,-0.14254 -0.41056,-0.31676 0,-0.35442 0.53731,-0.43208 0.73839,-0.10671 0.0713,0.11552 0.30787,0.30532 0.52549,0.42179 0.36255,0.19403 0.37986,0.15659 0.20672,-0.44711 -0.10393,-0.36238 -0.34361,-0.89491 -0.53264,-1.18339 -0.32596,-0.49748 -0.41341,-0.51705 -1.69666,-0.37962 -1.15712,0.12392 -1.35299,0.0962 -1.35299,-0.19117 0,-0.27695 0.15784,-0.31097 0.89746,-0.19342 0.82014,0.13034 0.8725,0.11236 0.60766,-0.20868 -0.1594,-0.19321 -0.41512,-0.35131 -0.56825,-0.35131 -0.38432,0 -0.60627,-0.41506 -0.35585,-0.66548 0.13434,-0.13434 0.33219,-0.0805 0.56704,0.15436 0.19839,0.19839 0.69342,0.58649 1.10007,0.86245 l 0.73936,0.50175 -0.1479,-0.47933 c -0.32431,-1.05108 -0.7511,-1.64158 -1.20845,-1.67202 -0.25834,-0.0172 -0.65137,-0.0409 -0.8734,-0.0528 -0.22203,-0.0118 -0.44085,-0.1316 -0.48628,-0.26613 -0.1248,-0.36962 0.34009,-0.56442 0.6779,-0.28406 0.16356,0.13573 0.46188,0.21511 0.66295,0.17638 0.31439,-0.0606 0.28547,-0.15684 -0.20652,-0.68769 -0.36498,-0.39383 -0.49879,-0.69059 -0.36962,-0.81976 0.30828,-0.30828 0.86436,-0.002 0.86436,0.4754 0,0.23312 0.18481,0.72777 0.4107,1.09921 l 0.4107,0.67536 0.0644,-1.23429 c 0.0432,-0.8266 0.16217,-1.26656 0.3604,-1.33202 0.21701,-0.0717 0.25927,0.0225 0.15837,0.35286 -0.0757,0.24784 -0.19919,0.66442 -0.27446,0.92574 l -0.13689,0.47513 0.55839,-0.51115 c 0.58929,-0.53947 0.91588,-0.48719 0.68674,0.10994 -0.0752,0.19584 -0.19796,0.29476 -0.27292,0.21981 -0.25624,-0.25626 -0.90963,0.5627 -0.90963,1.14015 0,0.3171 0.13461,0.89629 0.29915,1.28709 l 0.29913,0.71054 0.16605,-0.63351 c 0.0913,-0.34843 0.14079,-0.79981 0.10993,-1.00305 -0.0345,-0.22693 0.0801,-0.36955 0.29679,-0.36955 0.26279,0 0.32053,0.12134 0.2261,0.47513 -0.0698,0.26132 -0.18213,0.7127 -0.24974,1.00305 -0.12043,0.51733 -0.11593,0.51945 0.22443,0.10559 0.19103,-0.23229 0.44281,-0.3962 0.55951,-0.36424 0.1167,0.0319 0.16218,-0.11059 0.10107,-0.31675 -0.31614,-1.06661 -0.97657,-5.06253 -0.97657,-5.90872 0,-0.9072 -0.0247,-0.95083 -0.36954,-0.652 -0.45233,0.39203 -1.74258,0.32544 -1.98194,-0.10227 -0.097,-0.17338 -0.38117,-0.2727 -0.65236,-0.22801 -0.65147,0.10734 -1.51939,-1.22329 -1.35009,-2.06984 0.0642,-0.32093 0.0343,-0.63445 -0.0664,-0.6967 -0.10073,-0.0623 -0.18314,-0.44265 -0.18314,-0.84533 0,-0.53001 0.10915,-0.7668 0.3953,-0.85763 0.33584,-0.10658 0.35649,-0.18905 0.13726,-0.5483 -0.21278,-0.34869 -0.19755,-0.46782 0.0869,-0.67922 0.18971,-0.14101 0.38213,-0.44405 0.42762,-0.67344 0.062,-0.31257 0.25335,-0.41656 0.76373,-0.41503 0.51001,0.002 0.68103,-0.0913 0.68103,-0.36955 0,-0.45558 0.48702,-0.48577 0.84661,-0.0525 0.23607,0.28443 0.29057,0.28388 0.50189,-0.005 0.17069,-0.23344 0.42894,-0.28583 0.92246,-0.18712 0.37696,0.0754 0.6854,0.2244 0.6854,0.33111 0,0.10672 0.11878,0.17861 0.26397,0.15976 0.6555,-0.0851 0.83769,0.029 0.72633,0.45478 -0.0878,0.33569 -0.0369,0.40912 0.21629,0.31196 0.56937,-0.21848 1.11628,0.0869 1.11628,0.62339 0,0.27567 0.095,0.55996 0.21117,0.63174 0.32749,0.2024 0.25952,1.78964 -0.0822,1.92079 -0.16488,0.0633 -0.24829,0.28517 -0.1904,0.50653 0.0651,0.24922 -0.0598,0.49561 -0.34009,0.67067 -0.24371,0.1522 -0.44311,0.39641 -0.44311,0.54269 0,0.14627 -0.19005,0.26595 -0.42234,0.26595 -0.26262,0 -0.42234,0.14078 -0.42234,0.37227 0,0.20474 -0.21381,0.46607 -0.47513,0.58071 -0.26506,0.1163 -0.50757,0.43844 -0.54851,0.72863 -0.11743,0.83241 0.19629,3.59764 0.40815,3.59764 0.10623,0 0.19285,-0.11879 0.19249,-0.26397 -0.002,-0.4694 0.90221,-3.32592 1.05186,-3.32592 0.26273,0 -0.0176,2.40012 -0.46173,3.95302 -0.42314,1.47954 -0.42581,1.58581 -0.0904,3.5991 0.19009,1.14099 0.35563,2.30795 0.36787,2.59324 0.0122,0.28528 0.19806,-0.5741 0.41294,-1.90975 0.21488,-1.33565 0.54945,-3.07703 0.74348,-3.86975 0.2745,-1.12143 0.30003,-1.55714 0.11499,-1.96326 -0.46621,-1.0232 -0.13927,-1.86664 0.37877,-0.9772 0.11839,0.20325 0.21814,0.30371 0.22166,0.22323 0.003,-0.0805 -0.19541,-0.48838 -0.44209,-0.90648 -0.45911,-0.77814 -0.41479,-1.19575 0.0831,-0.78257 0.22319,0.18522 0.26142,0.0867 0.19317,-0.49784 -0.0947,-0.81109 0.25316,-0.99542 0.47863,-0.25363 0.0814,0.26762 0.19032,0.36496 0.2495,0.22288 0.0578,-0.13874 0.004,-0.44133 -0.11979,-0.67242 -0.32794,-0.61275 -0.29122,-1.57442 0.0551,-1.44155 0.16569,0.0636 0.43775,-0.18567 0.66675,-0.61091 0.21277,-0.39508 0.46691,-0.71833 0.56476,-0.71833 0.29515,0 0.20035,0.71869 -0.16327,1.23783 -0.26294,0.3754 -0.2837,0.54358 -0.0905,0.73329 0.19152,0.18806 0.23467,0.17436 0.18281,-0.058 -0.0374,-0.16732 0.0984,-0.34058 0.30168,-0.38503 0.59593,-0.13032 0.42432,0.36096 -0.26263,0.75186 -0.76526,0.43545 -0.84695,0.76407 -0.10603,0.42648 0.29085,-0.13252 0.59969,-0.16982 0.6863,-0.0829 0.18425,0.18493 -0.7136,0.96638 -1.11033,0.96638 -0.14892,0 -0.32547,0.14255 -0.39232,0.31676 -0.13497,0.35173 0.18747,0.43833 0.39312,0.10559 0.16444,-0.26607 0.95027,-0.2787 0.95027,-0.0153 0,0.10775 -0.38011,0.3636 -0.84469,0.56857 -0.46457,0.20497 -0.84467,0.45276 -0.84467,0.55063 0,0.0979 0.19819,0.0719 0.44042,-0.0578 0.24223,-0.12963 0.49505,-0.18107 0.56182,-0.1143 0.16683,0.16682 -0.5838,0.96867 -0.9068,0.96867 -0.14379,0 -0.32128,0.15598 -0.39444,0.34662 -0.10512,0.27394 -0.0725,0.29647 0.15521,0.10741 0.28564,-0.23705 0.56613,-0.12845 0.56613,0.2192 0,0.0993 -0.22743,0.28412 -0.50538,0.41076 -0.43395,0.19773 -0.56676,0.53284 -0.93968,2.37113 -0.23886,1.17748 -0.49351,2.56849 -0.56589,3.09113 -0.0724,0.52264 -0.17768,1.14032 -0.23398,1.3726 -0.0563,0.23229 0.30831,-0.39032 0.81026,-1.38357 0.50195,-0.99326 1.21699,-2.17515 1.58898,-2.62644 0.52147,-0.63263 0.62217,-0.88578 0.43978,-1.10554 -0.13011,-0.15678 -0.25799,-0.81604 -0.28418,-1.46504 -0.0402,-0.99762 0.0133,-1.19594 0.34677,-1.28314 0.21693,-0.0567 0.34194,-0.18803 0.27781,-0.2918 -0.0641,-0.10375 0.0557,-0.25231 0.26634,-0.33013 0.21062,-0.0778 0.45064,-0.24344 0.53341,-0.36805 0.181,-0.27255 1.64447,-0.34959 1.64447,-0.0866 0,0.10164 0.23668,0.1254 0.52595,0.0528 0.37443,-0.094 0.56345,-0.0343 0.6561,0.20714 0.0716,0.18654 0.2736,0.33916 0.44892,0.33916 0.22314,0 0.28955,0.15294 0.22133,0.50977 -0.0721,0.37728 0.0313,0.57864 0.39773,0.77477 0.49486,0.26484 0.62977,0.62216 0.34313,0.9088 -0.0836,0.0836 -0.16239,0.31326 -0.17505,0.51032 -0.0127,0.19706 -0.0393,0.57508 -0.0591,0.84005 -0.0199,0.26497 -0.20243,0.54074 -0.40568,0.61281 -0.20324,0.0721 -0.53642,0.27441 -0.74038,0.44962 -0.20397,0.17521 -0.43279,0.25661 -0.50849,0.18091 -0.0757,-0.0757 -0.26103,-0.0353 -0.4118,0.0899 -0.15175,0.12595 -0.3961,0.15119 -0.54736,0.0565 -0.27152,-0.16992 -0.37034,-0.19395 -1.05086,-0.25555 -0.19543,-0.0177 -0.41564,-0.22222 -0.48936,-0.4545 -0.23412,-0.73765 -0.67963,-0.463 -1.67314,1.03145 -0.971,1.46058 -1.19516,1.95524 -0.69971,1.54406 0.31906,-0.2648 1.76115,-0.60682 3.21752,-0.76311 0.95223,-0.10219 1.01659,-0.0834 0.65575,0.19142 -0.22007,0.16759 -1.12281,0.54582 -2.00612,0.84051 -3.44249,1.14848 -3.64561,1.57522 -3.72196,7.81972 -0.056,4.58526 -0.15086,5.2933 -0.72891,5.44446 -0.35505,0.0929 -0.38746,-0.18639 -0.48184,-4.15064 z m 0.87075,-0.23797 c -0.0156,-2.19464 -0.0675,-2.73873 -0.20142,-2.11169 -0.22053,1.03279 -0.16901,5.68417 0.059,5.32534 0.0899,-0.14149 0.154,-1.58764 0.14243,-3.21365 z m -0.19938,-7.49651 c -0.12191,-1.45179 -0.31207,-2.73119 -0.4226,-2.84311 -0.12836,-0.12999 -0.39541,-0.009 -0.73933,0.3349 l -0.53839,0.53839 0.42346,1.67121 c 0.23291,0.91916 0.54278,2.52645 0.6886,3.57173 l 0.26513,1.90053 0.27239,-1.26702 c 0.21141,-0.98336 0.22277,-1.85795 0.0508,-3.90663 z m 4.34159,-1.86845 c -0.18073,-0.18072 -1.5055,0.21166 -2.00148,0.59282 -0.48739,0.37455 -0.42963,0.37064 0.77892,-0.0528 0.71794,-0.25151 1.26808,-0.49454 1.22256,-0.54006 z m 2.56654,-2.24983 c 0.067,-0.17447 0.0504,-0.57834 -0.037,-0.89747 l -0.15867,-0.58025 -0.15981,0.52793 c -0.23628,0.78059 -0.23018,1.26701 0.0159,1.26701 0.11979,0 0.27258,-0.14275 0.33953,-0.31722 z m -1.41684,-0.80387 c 0.008,-0.094 -0.0802,-0.11211 -0.19633,-0.0403 -0.11614,0.0718 -0.20449,0.33872 -0.19633,0.59318 0.0143,0.44607 0.0214,0.44752 0.19633,0.0403 0.0998,-0.23229 0.18817,-0.49922 0.19633,-0.59317 z m 0.63027,-0.14592 c -0.0106,-0.48349 -0.0269,-0.49238 -0.19309,-0.10559 -0.0998,0.23229 -0.18671,0.61239 -0.19309,0.84468 -0.01,0.34859 0.0241,0.36702 0.19309,0.10559 0.11259,-0.17421 0.19948,-0.55432 0.19309,-0.84468 z m 1.64839,0.70507 c 0.0401,-0.12034 -0.12077,-0.44699 -0.3575,-0.7259 l -0.43043,-0.5071 0.182,0.52793 c 0.1001,0.29036 0.13625,0.65858 0.0803,0.81828 -0.0603,0.17239 0.0109,0.25282 0.1755,0.19797 0.15243,-0.0508 0.30997,-0.19084 0.35009,-0.31118 z m 0.90372,-0.37299 c 0,-0.31032 -0.96178,-1.17676 -1.30624,-1.17676 -0.10639,0 0.0603,0.3326 0.3703,0.73909 0.5946,0.77956 0.93594,0.93919 0.93594,0.43767 z m -3.06196,-0.83781 c 0.32493,-0.25043 0.34795,-0.32706 0.0998,-0.33224 -0.39962,-0.008 -1.26122,0.5774 -1.26122,0.85738 0,0.2265 0.45047,0.0228 1.16143,-0.52514 z m -1.03669,-0.2846 c -0.14645,-0.14644 -0.54707,0.1511 -0.54707,0.40631 0,0.14002 0.12116,0.12401 0.32186,-0.0425 0.17701,-0.14692 0.27836,-0.3106 0.22521,-0.36376 z m 4.21292,0.17087 c -0.0765,-0.12387 -0.24024,-0.22522 -0.36375,-0.22522 -0.14003,0 -0.124,0.12117 0.0425,0.32186 0.28962,0.34898 0.54848,0.2711 0.32119,-0.0966 z m -2.16569,-0.65106 c -0.13109,-0.50131 -0.40011,-0.70592 -0.69143,-0.52587 -0.12809,0.0792 -0.0784,0.3282 0.12868,0.64416 0.38538,0.58816 0.72862,0.51601 0.56275,-0.11829 z m -6.43745,-0.94676 c 0,-0.33442 -0.0352,-0.31244 -0.16908,0.10559 -0.093,0.29035 -0.16906,0.71797 -0.16906,0.95025 0,0.33443 0.0352,0.31245 0.16906,-0.10558 0.093,-0.29036 0.16908,-0.71797 0.16908,-0.95026 z m 4.45957,1.08717 c 1.02886,-0.30763 0.9662,-0.43978 -0.29967,-0.63211 -0.56299,-0.0855 -0.70383,-0.0671 -0.42234,0.0552 0.38811,0.16864 0.39238,0.19575 0.0528,0.33436 -0.20326,0.083 -0.36955,0.2357 -0.36955,0.33942 0,0.23079 -0.0829,0.23851 1.03876,-0.0968 z m 4.34606,-0.37156 c 0.14182,-0.14307 -0.13014,-0.19153 -0.82817,-0.14756 -0.65703,0.0414 -1.07517,0.17413 -1.13673,0.3609 -0.0782,0.23727 0.0849,0.26633 0.82817,0.14757 0.50906,-0.0813 1.02059,-0.24373 1.13673,-0.36091 z m -12.77576,-0.0697 c 0,-0.0512 -0.095,-0.15185 -0.21117,-0.22363 -0.11614,-0.0718 -0.21116,-0.0299 -0.21116,0.0931 0,0.123 0.095,0.22363 0.21116,0.22363 0.11615,0 0.21117,-0.0419 0.21117,-0.0931 z m 11.50663,-0.74935 c 0.60477,-0.63124 0.61549,-1.0059 0.0223,-0.77825 -0.35337,0.1356 -1.08018,1.40956 -0.80417,1.40956 0.0974,0 0.44926,-0.2841 0.78192,-0.63131 z m -2.30129,0.0453 c 0.0299,-0.14808 0.006,-0.1726 -0.0524,-0.0545 -0.0718,0.14448 -0.24304,0.14184 -0.52316,-0.008 -0.229,-0.12256 -0.57768,-0.18378 -0.77485,-0.13606 -0.287,0.0694 -0.25322,0.13312 0.16944,0.31924 0.64688,0.28485 1.10842,0.2377 1.18089,-0.12062 z m 2.9853,0.24724 c -0.0701,-0.0702 -0.2523,-0.0777 -0.40474,-0.0167 -0.16845,0.0675 -0.11842,0.11746 0.12758,0.12759 0.22261,0.009 0.34733,-0.0408 0.27716,-0.11091 z m -2.60317,-1.27815 c -0.24879,-0.56147 -0.38626,-0.70204 -0.44614,-0.45617 -0.10051,0.41271 0.59978,1.87694 0.72313,1.51202 0.0454,-0.13438 -0.0793,-0.60951 -0.27699,-1.05585 z m 1.29804,0.46381 c 0.51637,-0.95882 0.24484,-1.21418 -0.31486,-0.29611 -0.46922,0.76963 -0.5335,1.02687 -0.2566,1.02687 0.0979,0 0.35502,-0.32884 0.57146,-0.73076 z m -1.80522,0.12311 c 0,-0.27004 -0.62092,-0.74235 -0.77428,-0.58898 -0.15338,0.15337 0.31893,0.77429 0.58897,0.77429 0.10192,0 0.18531,-0.0834 0.18531,-0.18531 z m 1.07276,-1.02892 c -0.1756,-0.30149 -0.21524,-0.23342 -0.21524,0.36955 0,0.60297 0.0397,0.67104 0.21524,0.36955 0.14621,-0.25103 0.14621,-0.48807 0,-0.7391 z m -9.30548,-2.42845 c 0.002,-0.4936 0.0656,-1.13503 0.1422,-1.42539 0.12486,-0.47315 0.10282,-0.49799 -0.21254,-0.23936 -0.42262,0.34659 -0.8332,1.74832 -0.65111,2.22286 0.27232,0.70963 0.71848,0.36447 0.72145,-0.55811 z m 0.84179,0.39902 c 0,-0.27414 0.0604,-0.93933 0.13428,-1.47818 0.15647,-1.14156 -0.17905,-1.33857 -0.53596,-0.31472 -0.25776,0.7394 -0.30831,1.93332 -0.0911,2.15057 0.28213,0.28213 0.49273,0.12926 0.49273,-0.35767 z m 1.8749,-0.2854 c 0.044,-0.0246 -0.24111,-0.54619 -0.63351,-1.15905 -0.61276,-0.95699 -0.72315,-1.04634 -0.78207,-0.63297 -0.0378,0.26471 0.12536,0.81004 0.36242,1.21183 0.4498,0.76235 0.38017,1.00071 -0.10544,0.36099 -0.26077,-0.34352 -0.28101,-0.33733 -0.28725,0.088 -0.0104,0.70883 0.35486,0.74198 1.44585,0.13121 z m -3.77543,-0.35878 c 0,-0.13544 0.18182,-0.60287 0.40404,-1.03874 l 0.40404,-0.7925 -0.66684,0.38946 c -0.72083,0.42098 -1.13442,1.25933 -0.90991,1.8444 0.11402,0.29711 0.19878,0.31659 0.45441,0.10443 0.17284,-0.14345 0.31426,-0.37162 0.31426,-0.50705 z m 6.99438,-0.47809 c -0.18405,-0.3165 -0.22526,-0.32562 -0.23053,-0.051 -0.006,0.35562 0.21522,0.67582 0.36488,0.52617 0.0493,-0.0493 -0.0111,-0.26318 -0.13435,-0.47514 z m -7.78259,-0.4092 c 0.2387,-0.30346 0.72751,-0.73073 1.08624,-0.94948 l 0.65223,-0.39772 -0.5912,-8e-4 c -1.18557,-0.002 -2.19973,0.83735 -1.91361,1.58297 0.16622,0.43317 0.26447,0.40304 0.76634,-0.23498 z m 5.26926,0.24413 c 0.0288,-0.24099 -1.47852,-1.49829 -1.62303,-1.35378 -0.1875,0.1875 1.02026,1.67751 1.31029,1.6165 0.15871,-0.0334 0.29944,-0.15161 0.31274,-0.26272 z m 0.79819,-0.87099 c 0,-0.37155 -1.08379,-0.9331 -1.80087,-0.9331 -0.52738,0 -0.5096,0.035 0.35906,0.70583 0.90565,0.69949 1.44181,0.78399 1.44181,0.22727 z m -6.15886,-0.69587 c 0.21094,-0.13371 0.16016,-0.21044 -0.20194,-0.30514 -0.55126,-0.14415 -0.71218,-0.0607 -0.5109,0.26503 0.16655,0.26947 0.33598,0.27901 0.71284,0.0401 z m 2.94909,-0.0683 c 0.34653,-0.34652 0.3191,-0.80244 -0.0483,-0.80244 -0.33819,0 -0.96534,0.55856 -0.96534,0.85977 0,0.28207 0.71463,0.24166 1.01361,-0.0573 z m 3.60785,-0.14947 c 0.47065,-0.29806 -0.41827,-0.65482 -1.59842,-0.64149 l -1.01694,0.0115 0.95026,0.38896 c 1.12751,0.46151 1.28174,0.48383 1.6651,0.24104 z m -4.73136,-0.44876 c -0.20802,-0.3366 -1.73041,-0.68745 -2.32997,-0.53696 -0.79704,0.20004 -0.40754,0.5028 0.75051,0.58338 0.52264,0.0364 1.11861,0.0841 1.32437,0.10614 0.20576,0.022 0.32055,-0.0466 0.25509,-0.15256 z m -0.82277,-1.16327 c -0.45489,-0.40166 -0.94816,-0.73029 -1.09617,-0.73029 -0.40608,0 -0.53609,0.34499 -0.22674,0.60172 0.22796,0.1892 1.68177,0.78871 2.0444,0.84306 0.0581,0.009 -0.2666,-0.31282 -0.72149,-0.71449 z m 1.02912,-0.12995 c -0.68326,-1.35096 -1.54725,-2.00187 -1.89986,-1.43133 -0.12874,0.20831 2.01303,2.3811 2.18127,2.21285 0.0416,-0.0416 -0.085,-0.39327 -0.28141,-0.78152 z m 1.96531,0.66664 c 0.20167,-0.11616 0.81805,-0.39786 1.36973,-0.626 1.12108,-0.46361 1.30854,-0.85216 0.41115,-0.85216 -0.58778,0 -2.36446,1.12446 -2.36446,1.49646 0,0.24733 0.12946,0.24326 0.58358,-0.0183 z m 2.79513,0.0303 c 0,-0.39331 -0.49595,-0.61276 -1.02442,-0.45328 -1.59629,0.48169 -1.64081,0.57249 -0.29006,0.59164 0.72297,0.0103 1.31448,-0.052 1.31448,-0.13836 z m -1.82754,-2.08625 c 0.13711,-0.23156 0.0653,-0.2853 -0.3095,-0.23145 -0.45106,0.0648 -1.45284,1.24183 -1.45284,1.707 0,0.23054 1.49162,-1.01834 1.76234,-1.47555 z m -1.77451,-0.54333 c 0.006,-0.21011 -0.0829,-0.32329 -0.199,-0.25151 -0.11615,0.0718 -0.20024,0.6238 -0.18688,1.22669 l 0.0243,1.09618 0.17472,-0.84468 c 0.0961,-0.46457 0.18019,-1.01659 0.18688,-1.22668 z m -1.03846,0.075 c -0.12719,-0.23765 -0.32293,-0.4321 -0.43499,-0.4321 -0.30828,0 -0.24542,0.53104 0.16581,1.40066 l 0.36954,0.78146 0.0654,-0.65896 c 0.036,-0.36243 -0.0386,-0.8534 -0.16581,-1.09106 z m 1.844,-0.13146 c -0.20784,-0.20783 -0.5822,0.11122 -0.5822,0.49617 0,0.32234 0.0278,0.32177 0.35697,-0.007 0.19634,-0.19634 0.29769,-0.41627 0.22523,-0.48874 z"
         id="path27479-9-2"
         sodipodi:nodetypes="sssssssssssssssscsssssssssscsssscssssscsssssssssssssssssssssscsssssssssssssssscsssssssscssssscssssssssssssssssssssssssssssssssssssssssssssssssssssssssssssssssssscsscsssssssssccssssssssssssssssscsssssssssssssssssssssssssssssssssssssssssssssssssssssssssssssssssssssssssssssssssssssssssssssssssssscssssscssssscsssssssssssssssssssssssscsssssssssssssssssssssssssssssssssscsssssscsscsccc" />
      <circle
         style="fill:none;stroke:#ff0000;stroke-width:0.1;stroke-dasharray:none"
         id="path788-8-1-8-1-9-2-9-9"
         cx="-238.35054"
         cy="-305.59518"
         r="19.954653" />
      <ellipse
         style="fill:none;stroke:#ff00ff;stroke-width:0.1;stroke-dasharray:none;stroke-opacity:1"
         id="path1138-9-4-0-0-1-2-25-65"
         cx="-238.35054"
         cy="-305.59518"
         rx="18.492125"
         ry="18.492126" />
      <circle
         style="fill:none;stroke:#0000ff;stroke-width:0.1;stroke-linecap:round;stroke-dasharray:none;stroke-opacity:1;paint-order:markers stroke fill"
         id="path13019-1-33-5-79"
         cx="-238.35054"
         cy="-320.60617"
         r="2" />
    </g>
  </g>
</svg>
