<?xml version="1.0" encoding="UTF-8" standalone="no"?>
<!-- Created with Inkscape (http://www.inkscape.org/) -->

<svg
   width="41.008999mm"
   height="41.008999mm"
   viewBox="0 0 41.008999 41.008999"
   version="1.1"
   id="svg1"
   sodipodi:docname="134.svg"
   inkscape:version="1.4.2 (f4327f4, 2025-05-13)"
   xmlns:inkscape="http://www.inkscape.org/namespaces/inkscape"
   xmlns:sodipodi="http://sodipodi.sourceforge.net/DTD/sodipodi-0.dtd"
   xmlns="http://www.w3.org/2000/svg"
   xmlns:svg="http://www.w3.org/2000/svg">
  <sodipodi:namedview
     id="namedview1"
     pagecolor="#ffffff"
     bordercolor="#000000"
     borderopacity="0.25"
     inkscape:showpageshadow="2"
     inkscape:pageopacity="0.0"
     inkscape:pagecheckerboard="0"
     inkscape:deskcolor="#d1d1d1"
     inkscape:document-units="mm"
     showguides="false"
     inkscape:zoom="2"
     inkscape:cx="156.5"
     inkscape:cy="47.5"
     inkscape:window-width="1050"
     inkscape:window-height="1081"
     inkscape:window-x="857"
     inkscape:window-y="0"
     inkscape:window-maximized="0"
     inkscape:current-layer="layer1" />
  <defs
     id="defs1" />
  <g
     inkscape:label="Layer 1"
     inkscape:groupmode="layer"
     id="layer1"
     transform="translate(-70.643761,-99.218767)">
    <g
       id="g15181"
       transform="translate(245.21432,425.31845)">
      <circle
         style="fill:none;stroke:#ff0000;stroke-width:0.1;stroke-dasharray:none"
         id="path788-8-1-8-1-9-2-56-6"
         cx="-154.06606"
         cy="-305.59518"
         r="19.954653" />
      <path
         style="fill:#000000;stroke-width:0.1;stroke-dasharray:none"
         d="m -151.39825,-288.76764 c -0.003,-1.14792 -0.13079,-2.59475 -0.28313,-3.21518 -0.32923,-1.34082 -1.80933,-5.3246 -2.11609,-5.69557 -0.15994,-0.19342 -0.7976,-0.2346 -2.47921,-0.16008 -2.22046,0.0984 -2.27795,0.11336 -2.9968,0.77986 -0.40309,0.37374 -0.93534,0.84762 -1.18275,1.05303 l -0.44986,0.37348 0.41336,-1.08789 c 0.59864,-1.57547 0.7113,-1.7415 1.52163,-2.24231 0.95203,-0.58838 2.49067,-0.48566 4.01346,0.26796 0.59919,0.29654 1.11503,0.51357 1.1463,0.48229 0.12017,-0.12016 -0.59054,-2.51038 -0.8763,-2.94712 -0.16537,-0.25274 -0.9574,-0.80652 -1.76006,-1.23061 -1.98719,-1.04992 -2.71411,-1.71314 -3.66813,-3.34664 -0.44743,-0.76611 -0.81351,-1.43658 -0.81351,-1.48994 0,-0.0534 0.89989,0.3596 1.99974,0.91771 2.26121,1.14744 3.11251,1.95391 3.9723,3.76311 l 0.58482,1.23061 -0.11753,-2.46122 c -0.11593,-2.42784 -0.12796,-2.4765 -0.88851,-3.58927 -0.42405,-0.62043 -0.8889,-1.48744 -1.03299,-1.9267 -0.3644,-1.11081 -0.14518,-2.83315 0.52201,-4.10138 0.30321,-0.57635 0.83574,-1.62776 1.1834,-2.33646 0.6874,-1.40127 1.21109,-1.62365 1.33185,-0.56557 0.0379,0.33197 0.24555,0.82819 0.46148,1.10269 0.21593,0.2745 0.39259,0.67297 0.39259,0.88549 0,0.21251 0.23073,1.04683 0.51275,1.85401 0.28202,0.80718 0.51275,1.73137 0.51275,2.05375 0,0.81381 -0.47538,1.86962 -1.30054,2.88848 -1.32485,1.63584 -1.4375,2.02941 -1.30228,4.54984 0.0667,1.2439 0.28722,3.00001 0.48995,3.90245 l 0.36861,1.64082 0.11635,-1.34647 c 0.29057,-3.36262 1.6647,-5.82986 4.19098,-7.52487 1.64434,-1.10328 2.19194,-1.26292 1.31129,-0.38226 -0.27221,0.2722 -0.79286,1.22364 -1.15702,2.11428 -0.64433,1.5759 -1.11752,2.1982 -2.88318,3.79175 -0.52659,0.47524 -0.91575,1.0508 -1.05158,1.55526 -0.27803,1.03251 1.2e-4,3.26555 0.59187,4.75164 0.24384,0.61238 0.58031,1.70398 0.74771,2.42578 0.33622,1.44978 0.43242,4.54617 0.15653,5.03824 -0.10742,0.19158 -0.17853,-0.50012 -0.18226,-1.77299 z m -8.09538,-8.44526 c 0.26494,-0.28201 0.43556,-0.51275 0.37916,-0.51275 -0.0564,0 -0.31932,0.23074 -0.58426,0.51275 -0.26494,0.28201 -0.43556,0.51275 -0.37916,0.51275 0.0564,0 0.31932,-0.23074 0.58426,-0.51275 z m 2.35867,-0.92483 c 0.90244,-0.002 1.77177,-0.0873 1.93182,-0.18861 0.46962,-0.29724 -1.43896,-0.49524 -2.34974,-0.24377 -0.89503,0.24714 -1.22841,0.13431 -0.48354,-0.16365 l 0.49126,-0.19651 -0.5483,-0.0131 c -0.52539,-0.0125 -1.81037,0.85609 -1.81037,1.22368 0,0.0961 0.25381,0.0423 0.56403,-0.11951 0.35004,-0.18261 1.18654,-0.29591 2.20484,-0.29864 z m 7.15168,-4.73257 c 0.25719,-0.38541 0.62897,-1.11607 0.82616,-1.6237 0.1972,-0.50762 0.49241,-1.13062 0.65603,-1.38443 0.16362,-0.25382 0.22614,-0.46058 0.13894,-0.45949 -0.25126,0.003 -1.81664,1.30024 -2.36631,1.96075 -0.6169,0.74129 -1.10478,1.63067 -0.78668,1.43408 0.12406,-0.0767 0.22557,-0.0256 0.22557,0.11356 0,0.14041 0.24715,0.0318 0.55556,-0.24429 0.30557,-0.27347 0.1158,0.003 -0.4217,0.61454 -0.5375,0.61146 -1.06857,1.28235 -1.18017,1.49087 -0.33521,0.62635 1.83769,-1.13027 2.3526,-1.90189 z m -1.30629,-0.41759 c 0,-0.28194 2.07091,-2.28009 2.2144,-2.13659 0.0542,0.0542 -0.42186,0.61072 -1.05793,1.23671 -0.63606,0.62598 -1.15647,1.03092 -1.15647,0.89988 z m -4.0906,0.86626 c -0.11446,-0.21386 -0.71763,-0.60002 -1.34038,-0.85814 -0.62274,-0.25813 -1.13227,-0.53991 -1.13227,-0.62619 0,-0.0863 0.32008,-0.0232 0.71127,0.14028 0.95308,0.39823 1.08292,0.37432 0.49192,-0.0906 -0.27111,-0.21326 -0.88348,-0.50476 -1.36081,-0.64777 -0.47734,-0.14301 -0.86789,-0.34096 -0.86789,-0.43987 0,-0.0989 0.17853,-0.0843 0.39673,0.0325 0.66431,0.35553 0.90913,0.23715 0.39513,-0.19106 -0.26631,-0.22185 -0.38986,-0.40645 -0.27455,-0.4102 0.1153,-0.004 0.56396,0.28524 0.99703,0.6422 0.61244,0.50483 0.72535,0.54885 0.50821,0.19811 -0.25008,-0.4039 -3.20068,-1.99348 -3.37563,-1.81854 -0.11114,0.11114 1.24877,2.05268 1.75785,2.50966 0.3386,0.30395 2.60626,1.64878 3.243,1.92325 0.0322,0.0139 -0.0351,-0.14977 -0.14961,-0.36363 z m 1.62938,-4.92218 c 0,-0.21374 -0.17687,-0.97517 -0.39305,-1.69208 -0.21618,-0.71693 -0.43987,-1.99571 -0.4971,-2.84176 l -0.10404,-1.53825 0.20666,1.33316 c 0.11367,0.73323 0.38192,1.88693 0.5961,2.56376 0.21419,0.67684 0.33575,0.99988 0.27013,0.71785 -0.0656,-0.28201 -0.14443,-1.06652 -0.17513,-1.74336 -0.0544,-1.19965 -0.0525,-1.20481 0.0786,-0.2051 l 0.13447,1.02551 0.16875,-1.16617 c 0.13539,-0.93561 0.0938,-1.3614 -0.21028,-2.15357 -0.20846,-0.54307 -0.35556,-1.06034 -0.32687,-1.14952 0.0287,-0.0891 -0.0489,-0.35096 -0.1724,-0.58174 -0.21325,-0.39845 -0.2548,-0.37849 -0.8243,0.39591 -0.80285,1.09171 -1.21279,2.32277 -1.21279,3.64201 0,1.25053 0.21679,1.92925 0.96231,3.01282 0.59126,0.85934 1.49891,1.08977 1.49891,0.38053 z m 1.43796,-1.30349 c 0.30433,-0.49914 0.40055,-1.00145 0.38306,-1.99974 -0.023,-1.3107 -0.026,-1.3176 -0.18007,-0.4102 -0.0862,0.50763 -0.30608,1.28033 -0.48863,1.71713 -0.57639,1.37914 -0.39745,1.81316 0.28564,0.69281 z m -0.27052,-3.61541 c -0.0617,-1.05784 -0.21117,-2.02232 -0.33216,-2.14331 -0.15657,-0.15658 -0.21515,0.60473 -0.20325,2.64118 0.0161,2.75587 0.0284,2.83476 0.33216,2.14331 0.24204,-0.55085 0.28933,-1.16531 0.20325,-2.64118 z m -0.85538,-2.74273 c -0.19971,-1.5739 -0.31604,-1.91335 -0.53644,-1.56536 -0.27684,0.43711 -0.21982,1.12124 0.15982,1.91733 0.19009,0.39865 0.38335,0.72481 0.42944,0.72481 0.0461,0 0.0223,-0.48455 -0.0528,-1.07678 z"
         id="path27479-9-2-1"
         sodipodi:nodetypes="cssssscsssssssssscssssssssssssscssssssssscssssssssscssssssssssssssssssssssssssssscsssssssssscssssscssssssssssssssssssssssss" />
      <ellipse
         style="fill:none;stroke:#ff00ff;stroke-width:0.1;stroke-dasharray:none;stroke-opacity:1"
         id="path1138-9-4-0-0-1-2-4-3"
         cx="-154.06606"
         cy="-305.59518"
         rx="18.492125"
         ry="18.492126" />
      <circle
         style="fill:none;stroke:#0000ff;stroke-width:0.1;stroke-linecap:round;stroke-dasharray:none;stroke-opacity:1;paint-order:markers stroke fill"
         id="path13019-1-33-6-1"
         cx="-154.06607"
         cy="-320.60617"
         r="2" />
    </g>
  </g>
</svg>
