<?xml version="1.0" encoding="UTF-8" standalone="no"?>
<!-- Created with Inkscape (http://www.inkscape.org/) -->

<svg
   width="41.008999mm"
   height="41.008999mm"
   viewBox="0 0 41.008999 41.008999"
   version="1.1"
   id="svg1"
   sodipodi:docname="135.svg"
   inkscape:version="1.4.2 (f4327f4, 2025-05-13)"
   xmlns:inkscape="http://www.inkscape.org/namespaces/inkscape"
   xmlns:sodipodi="http://sodipodi.sourceforge.net/DTD/sodipodi-0.dtd"
   xmlns="http://www.w3.org/2000/svg"
   xmlns:svg="http://www.w3.org/2000/svg">
  <sodipodi:namedview
     id="namedview1"
     pagecolor="#ffffff"
     bordercolor="#000000"
     borderopacity="0.25"
     inkscape:showpageshadow="2"
     inkscape:pageopacity="0.0"
     inkscape:pagecheckerboard="0"
     inkscape:deskcolor="#d1d1d1"
     inkscape:document-units="mm"
     showguides="false"
     inkscape:zoom="2"
     inkscape:cx="156.5"
     inkscape:cy="47.5"
     inkscape:window-width="1050"
     inkscape:window-height="1081"
     inkscape:window-x="857"
     inkscape:window-y="0"
     inkscape:window-maximized="0"
     inkscape:current-layer="layer1" />
  <defs
     id="defs1" />
  <g
     inkscape:label="Layer 1"
     inkscape:groupmode="layer"
     id="layer1"
     transform="translate(-70.643761,-99.218767)">
    <g
       id="g11709"
       transform="translate(414.00638,375.61545)">
      <path
         style="fill:#000000;stroke-width:0.1;stroke-dasharray:none"
         d="m -318.94373,-238.05034 c -0.19121,-0.37553 -0.46673,-1.05179 -0.61228,-1.5028 -0.59298,-1.83745 -2.04265,-2.41044 -4.7755,-1.88755 -1.72415,0.32988 -6.17293,0.23285 -6.17293,-0.13465 0,-0.34467 0.86509,-0.90227 2.33024,-1.50199 l 1.53366,-0.62776 1.88028,0.40283 c 2.15288,0.46121 2.95925,0.78826 3.94584,1.60032 l 0.69999,0.57616 -0.33062,-1.87622 c -0.48554,-2.75548 -1.07893,-3.28458 -4.22458,-3.76688 -1.57209,-0.24104 -5.37962,-1.85832 -5.37962,-2.28503 0,-0.32749 0.59907,-0.48884 2.36643,-0.63735 1.78712,-0.15016 2.58687,0.0824 4.49563,1.30723 0.73352,0.47071 1.22452,1.0151 1.58097,1.75288 0.77392,1.60189 0.82529,0.63214 0.0921,-1.73801 -0.34916,-1.12866 -0.85043,-2.22622 -1.17267,-2.56756 -0.53564,-0.56741 -0.70221,-0.60185 -3.45053,-0.71345 -2.30709,-0.0937 -3.12797,-0.22016 -4.0826,-0.62903 -0.65718,-0.28148 -1.19488,-0.58887 -1.19488,-0.68309 0,-0.0942 0.38407,-0.36222 0.85349,-0.59555 0.65233,-0.32424 1.36309,-0.42422 3.01565,-0.42422 2.56184,0 3.31006,0.32989 4.55192,2.00697 0.6813,0.92006 0.80751,1.00599 0.87215,0.59374 0.0416,-0.26511 -0.13766,-0.97771 -0.39829,-1.58355 -0.26063,-0.60586 -0.47386,-1.36836 -0.47386,-1.69446 0,-0.88894 -0.81854,-1.82635 -2.40478,-2.75402 -1.20528,-0.70487 -4.6507,-3.88283 -4.6507,-4.28967 0,-0.0721 0.38957,-0.13108 0.8657,-0.13108 1.90561,0 4.40448,1.90776 5.04634,3.85262 0.16319,0.49447 0.49637,1.18695 0.7404,1.53886 l 0.44368,0.63982 -0.14489,-1.57957 c -0.0904,-0.98499 -0.39786,-2.15593 -0.81691,-3.11069 -0.75595,-1.72235 -0.87125,-3.47134 -0.42314,-6.41835 0.41939,-2.75809 0.71808,-2.56232 1.66823,1.09343 0.70729,2.72131 0.7156,3.06259 0.12139,4.98644 -0.54085,1.75105 -0.4355,3.40949 0.17763,2.79636 0.1855,-0.18551 0.42784,-0.822 0.53851,-1.4144 0.11068,-0.59241 0.42602,-1.5272 0.70076,-2.07732 0.49763,-0.99642 3.11511,-3.72114 3.57469,-3.72114 0.28216,0 0.14681,0.95556 -0.37075,2.61736 -0.29133,0.93542 -0.73327,1.50636 -2.4827,3.20749 l -2.12828,2.06951 0.0102,1.68583 c 0.006,0.9272 0.14629,1.99307 0.31256,2.3686 l 0.30229,0.68279 0.17853,-0.68279 c 0.28768,-1.10029 0.99862,-2.66694 1.62054,-3.57114 0.58956,-0.85712 3.8696,-3.29771 4.10953,-3.05777 0.19917,0.19917 -0.60487,2.18897 -1.27646,3.15892 -0.32534,0.46989 -1.32368,1.365 -2.21853,1.98914 -2.36607,1.65029 -2.62473,2.79922 -1.51481,6.72858 0.55609,1.96867 0.63841,2.12302 0.87922,1.6485 0.14613,-0.28795 0.33472,-1.13713 0.41909,-1.88709 0.0844,-0.74995 0.39385,-1.88878 0.68774,-2.53071 0.54243,-1.18482 3.3835,-4.41896 3.65012,-4.15513 0.23526,0.2328 -0.35317,3.19534 -0.81751,4.11592 -0.2347,0.46533 -1.02691,1.48951 -1.76045,2.27596 -0.73355,0.78646 -1.56342,1.88248 -1.84417,2.43562 -0.53979,1.06351 -0.53348,1.78167 0.0391,4.4562 0.22699,1.06014 0.25869,1.09887 0.46561,0.56899 0.12212,-0.31272 0.29894,-1.30631 0.39294,-2.20798 0.14014,-1.3443 0.33202,-1.89707 1.06595,-3.07078 0.82908,-1.32589 2.79547,-3.13802 3.40811,-3.14074 0.18345,-8.6e-4 0.16994,0.24471 -0.0469,0.85233 -0.16752,0.46942 -0.30908,1.06388 -0.31458,1.32102 -0.0144,0.67155 -1.23557,2.532 -2.5397,3.86908 -0.65013,0.66654 -1.30103,1.62205 -1.54781,2.27218 -0.4176,1.10014 -0.41734,1.14357 0.0138,2.23741 0.50231,1.27435 0.44352,1.96803 -0.0797,0.94042 z m -6.6808,-3.87637 c 0.24299,-0.18378 0.60145,-0.32766 0.79658,-0.31973 0.22031,0.009 0.16069,0.0924 -0.15729,0.22027 -0.83747,0.33662 -0.59001,0.3847 0.73958,0.1437 0.68842,-0.12478 1.22298,-0.25556 1.18792,-0.29062 -0.0351,-0.0351 -0.58655,-0.12353 -1.22551,-0.19659 -1.23149,-0.1408 -2.92607,0.13659 -3.33548,0.546 -0.38825,0.38825 1.47171,0.29217 1.9942,-0.10303 z m -2.37636,-0.0609 c 0,-0.10004 -0.35846,-0.14004 -0.79658,-0.0889 -0.43812,0.0512 -0.79659,0.133 -0.79659,0.18189 0,0.0489 0.35847,0.0889 0.79659,0.0889 0.43812,0 0.79658,-0.0819 0.79658,-0.1819 z m 3.6038,-0.85375 c 0.0418,-0.0356 -0.47025,-0.13062 -1.13798,-0.21109 -0.84721,-0.10209 -1.48912,-0.0412 -2.12442,0.20142 -0.89685,0.34254 -0.87992,0.34568 1.13797,0.21109 1.1266,-0.0752 2.08259,-0.16579 2.12443,-0.20142 z m 7.43264,-1.65954 c -0.0599,-0.0599 0.0952,-0.25196 0.34481,-0.42675 0.70602,-0.49452 0.53351,-0.80014 -0.22904,-0.4058 -0.67553,0.34932 -0.91759,0.79658 -0.43113,0.79658 0.13842,0 -0.0664,0.29713 -0.45519,0.6603 -0.38877,0.36317 -0.70686,0.74173 -0.70686,0.84124 0,0.0995 0.35693,-0.16501 0.79318,-0.58786 0.43624,-0.42282 0.74415,-0.81779 0.68423,-0.87771 z m -0.58316,-1.28775 c 0,-0.40211 -0.0379,-0.38884 -0.32526,0.1138 -0.17889,0.31294 -0.32526,0.77382 -0.32526,1.02419 0,0.4021 0.0379,0.38882 0.32526,-0.11381 0.1789,-0.31294 0.32526,-0.77382 0.32526,-1.02418 z m 1.39301,-0.23344 c 0.36932,-0.19098 0.67149,-0.38744 0.67149,-0.43657 0,-0.0491 0.0662,-0.2617 0.14698,-0.47236 0.13671,-0.35627 0.0975,-0.3574 -0.56225,-0.0163 -0.39007,0.20172 -0.81827,0.57053 -0.95157,0.81959 -0.29114,0.54401 -0.18393,0.56029 0.69535,0.1056 z m -0.24395,-1.41663 c 0.003,-0.15647 -0.0435,-0.2845 -0.1029,-0.2845 -0.13547,0 -0.80421,1.27897 -0.79737,1.52498 0.009,0.29368 0.8947,-0.92788 0.90027,-1.24048 z m -6.49281,0.41731 c -0.25906,-0.24991 -0.70044,-0.32189 -1.46799,-0.23939 -0.37802,0.0406 -0.22524,0.11458 0.45519,0.22037 0.5633,0.0876 1.07027,0.17462 1.1266,0.19342 0.0563,0.0188 0.005,-0.0597 -0.1138,-0.1744 z m 0.35362,-0.35951 c -0.29353,-0.31246 -0.58194,-0.51985 -0.64091,-0.46088 -0.0985,0.0985 0.8572,1.00408 1.07803,1.0214 0.0532,0.004 -0.14359,-0.24807 -0.43712,-0.56052 z m -1.61935,-0.25482 c 0.11915,-0.10067 -0.9214,-0.48834 -1.46979,-0.5476 -1.49724,-0.16179 -2.00684,0.29691 -0.72394,0.65162 0.6434,0.1779 1.93238,0.11677 2.19373,-0.10402 z m 8.99063,-0.21887 c 0.17004,-0.44312 0.0564,-0.40661 -0.43931,0.14119 -0.34571,0.382 -0.35515,0.43979 -0.0529,0.3238 0.20236,-0.0777 0.42384,-0.28691 0.49218,-0.46499 z m -8.4198,-0.18916 c -0.0986,-0.25704 -1.13506,-0.84083 -1.68348,-0.94825 -0.0626,-0.0123 -0.26742,-0.0811 -0.45518,-0.15309 -1.16347,-0.44579 -2.07419,-0.24612 -1.19967,0.26301 0.32116,0.18697 0.19495,0.23747 -0.6211,0.2485 -0.81976,0.0111 -0.94326,0.0609 -0.61877,0.24981 0.28427,0.16545 0.64584,0.15663 1.20992,-0.0295 0.44247,-0.14603 1.00256,-0.21371 1.24464,-0.1504 0.24693,0.0646 0.44169,-4.5e-4 0.44365,-0.14808 0.002,-0.15711 0.0856,-0.13356 0.20706,0.0584 0.15919,0.25146 0.82362,0.64324 1.54618,0.91168 0.0274,0.0102 -0.006,-0.12576 -0.0733,-0.30207 z m 7.98935,-0.13464 c 0.22657,-0.25036 0.36073,-0.45519 0.29815,-0.45519 -0.0626,0 -0.29917,0.20483 -0.52574,0.45519 -0.22657,0.25036 -0.36074,0.45519 -0.29815,0.45519 0.0626,0 0.29917,-0.20483 0.52574,-0.45519 z m -12.06258,-0.91038 c 0.0785,-0.12692 -0.0918,-0.22606 -0.38487,-0.22411 -0.42279,0.003 -0.45878,0.0466 -0.18412,0.22411 0.42349,0.27368 0.39984,0.27368 0.56899,0 z m 10.08581,-0.49989 c 0.33616,-0.4001 0.61284,-0.84434 0.61484,-0.98719 0.002,-0.14283 0.18919,-0.44525 0.41597,-0.67202 0.22678,-0.22678 0.36277,-0.60178 0.30222,-0.83335 -0.0606,-0.23158 -0.0173,-0.4784 0.0961,-0.54849 0.11343,-0.0701 0.20561,-0.35186 0.20484,-0.62612 -8.6e-4,-0.44269 -0.04,-0.42461 -0.34547,0.16109 -0.18923,0.36286 -0.3045,0.69931 -0.25613,0.74767 0.0483,0.0483 -0.20586,0.40241 -0.56493,0.7868 -0.7434,0.79581 -0.83473,1.14532 -0.25455,0.97408 0.33586,-0.0991 0.33007,-0.0712 -0.0369,0.17784 -0.68982,0.4682 -1.27175,1.07201 -1.27175,1.31958 0,0.44292 0.49238,0.2183 1.09578,-0.49989 z m -0.8728,-0.62903 c 0.25289,-0.49572 0.45529,-1.08462 0.44975,-1.30867 -0.0107,-0.43055 -0.70987,0.75604 -1.00055,1.6979 -0.24926,0.80767 0.047,0.59832 0.5508,-0.38923 z m 1.59123,-2.74022 c -0.005,-0.52709 -0.89303,0.71112 -0.89726,1.25178 -0.003,0.3773 0.0738,0.33836 0.44863,-0.22759 0.24871,-0.37553 0.4506,-0.83642 0.44863,-1.02419 z m -7.7317,0.66416 c -0.31294,-0.1321 -1.02987,-0.18497 -1.59317,-0.1175 -1.01389,0.12145 -1.01735,0.11955 -0.34412,-0.18862 l 0.68007,-0.31131 -0.95604,-0.25744 c -0.9547,-0.25708 -2.00404,-0.14657 -2.24044,0.23592 -0.0688,0.11131 -0.29827,0.20082 -0.50994,0.19891 -0.33466,-0.003 -0.34033,-0.0355 -0.0434,-0.24907 0.28393,-0.20424 0.27121,-0.22281 -0.0755,-0.11032 -0.22929,0.0744 -0.53655,0.14177 -0.68279,0.1497 -0.34822,0.0189 0.69147,0.45612 1.51973,0.6391 0.35618,0.0787 1.5852,0.16731 2.73115,0.19693 1.63343,0.0422 1.9606,0.002 1.51454,-0.1863 z m 0.91039,-0.0673 c 0,-0.0472 -0.17923,-0.22649 -0.3983,-0.39829 -0.36098,-0.2831 -0.36903,-0.27506 -0.0859,0.0859 0.29733,0.37911 0.48423,0.49968 0.48423,0.31236 z m -1.12539,-0.69548 c -0.24598,-0.29638 -2.29469,-0.88149 -2.47059,-0.7056 -0.0563,0.0563 2.19766,0.91658 2.65656,1.01385 0.0466,0.01 -0.0371,-0.12883 -0.18597,-0.30825 z m -3.03298,-0.72167 c -0.0756,-0.0756 -0.27194,-0.0837 -0.43623,-0.018 -0.18156,0.0727 -0.12763,0.12658 0.13751,0.13751 0.23992,0.01 0.37435,-0.044 0.29872,-0.11955 z m 7.90134,-1.20807 c 0.0698,-0.11283 -0.0711,-0.1534 -0.31298,-0.0901 -0.24186,0.0632 -0.49574,0.2609 -0.56418,0.43923 -0.0984,0.25632 -0.0329,0.27521 0.31297,0.0901 0.24057,-0.12875 0.49445,-0.32641 0.56419,-0.43924 z m 1.43495,-1.10774 0.62577,-0.53566 -0.68279,0.14326 c -0.37553,0.0788 -0.87974,0.33662 -1.12047,0.57293 -0.43151,0.42359 -0.43071,0.42914 0.057,0.3924 0.27208,-0.0205 0.7763,-0.27832 1.12048,-0.57293 z m 0.27317,-1.64341 c 0.12253,0 0.34558,-0.23044 0.49565,-0.51209 0.25655,-0.48147 0.24682,-0.49232 -0.16269,-0.18149 -0.94197,0.71497 -1.51125,1.28256 -1.72286,1.71776 -0.12809,0.26343 0.0711,0.14356 0.47288,-0.28449 0.38182,-0.40683 0.79447,-0.73969 0.91702,-0.73969 z m 0.85746,0.4755 c 0.15248,-0.19894 0.28051,-0.44114 0.28449,-0.53824 0.01,-0.23644 -1.20714,0.40292 -1.5476,0.81314 -0.22562,0.27184 -0.16686,0.30566 0.35797,0.20601 0.34533,-0.0656 0.75265,-0.28198 0.90514,-0.48091 z m -7.70316,-0.6462 c -0.47117,-0.60078 -0.92407,-0.9235 -1.67274,-1.19191 -0.79473,-0.28492 -0.61166,-0.0822 0.79138,0.87619 1.19295,0.81491 1.30406,0.85471 0.88136,0.31572 z m 0.43105,-0.42411 c -0.14906,-0.32713 -0.31017,-0.47733 -0.35803,-0.33374 -0.0478,0.14359 0.0376,0.41125 0.18995,0.59481 0.41282,0.4974 0.47187,0.40568 0.16808,-0.26107 z m 7.8861,-0.23396 c 0.11986,-0.31238 0.0866,-0.32646 -0.20325,-0.0859 -0.39494,0.32776 -0.43604,0.45951 -0.14337,0.45951 0.1118,0 0.26777,-0.16812 0.34662,-0.37359 z m -9.22041,-1.4976 c -0.41662,-0.34781 -0.83495,-0.63238 -0.92964,-0.63238 -0.34787,0 0.12004,0.81391 0.81026,1.40936 0.60095,0.51846 0.72309,0.55448 0.79357,0.23408 0.0483,-0.21972 -0.23469,-0.64415 -0.67419,-1.01106 z m 5.598,0.13745 0.68279,-0.57938 -0.72525,0.35835 c -0.39889,0.19709 -0.789,0.4615 -0.86692,0.58756 -0.25532,0.41311 0.21306,0.22434 0.90938,-0.36653 z m -7.51066,-0.4336 c -0.91659,-0.78999 -0.87493,-1.09418 0.0601,-0.43922 0.41956,0.29387 0.48188,0.29759 0.37629,0.0224 -0.14493,-0.37767 -1.02929,-0.66943 -1.27732,-0.42139 -0.24585,0.24586 0.92556,1.64133 1.36946,1.63138 0.25993,-0.006 0.0912,-0.25899 -0.52859,-0.79319 z m 7.02852,-0.46185 c 0.0778,-0.20254 0.0396,-0.2939 -0.0894,-0.21417 -0.12374,0.0765 -0.22499,0.23543 -0.22499,0.35322 0,0.32739 0.16314,0.25524 0.31444,-0.13905 z m 0.89577,0.14143 c 0.30638,-0.11649 0.7827,-0.52869 1.05849,-0.916 l 0.50144,-0.70421 -0.75918,0.36568 c -0.41755,0.20113 -0.9432,0.61332 -1.1681,0.916 -0.45634,0.61414 -0.42749,0.64072 0.36735,0.33853 z m -3.26363,-0.1865 c -0.003,-0.0939 -0.20729,-0.42674 -0.45444,-0.7397 l -0.44937,-0.56899 0.2491,0.73969 c 0.21831,0.64824 0.66866,1.03963 0.65471,0.569 z m 3.39493,-1.31534 c 0.29971,-0.44007 0.49012,-0.85494 0.42312,-0.92193 -0.10721,-0.10721 -0.69317,0.61323 -1.17175,1.44068 -0.37583,0.64977 0.2465,0.21855 0.74863,-0.51875 z m -3.48614,-1.30202 c -0.072,-1.03272 -0.21745,-2.18492 -0.32321,-2.56045 l -0.19231,-0.68279 -0.16374,0.72307 c -0.11234,0.49612 -0.0468,0.94925 0.20888,1.44363 0.20494,0.3963 0.31627,0.7769 0.24739,0.84577 -0.0689,0.0689 -0.18957,-0.0425 -0.26822,-0.24743 -0.24486,-0.63809 -0.58563,-0.14295 -0.42015,0.61047 0.13582,0.61842 0.74765,1.71701 0.96806,1.73825 0.0409,0.004 0.0153,-0.8378 -0.0567,-1.87052 z m 0.70834,0.1138 c -0.0573,-0.21906 -0.10408,-0.0398 -0.10408,0.39829 0,0.43813 0.0468,0.61736 0.10408,0.39829 0.0573,-0.21906 0.0573,-0.57752 0,-0.79658 z m 4.39504,0.10014 c 0,-0.12518 -0.20484,-0.0422 -0.45519,0.18435 -0.25036,0.22657 -0.4552,0.51436 -0.4552,0.63955 0,0.12517 0.20484,0.0422 0.4552,-0.18435 0.25035,-0.22657 0.45519,-0.51437 0.45519,-0.63955 z m -0.19509,-0.66913 c 0.36803,-0.52482 0.40197,-0.64596 0.11687,-0.41701 -0.40561,0.32571 -0.93858,1.1567 -0.74187,1.1567 0.0585,0 0.33972,-0.33286 0.625,-0.73969 z m -4.5863,-1.24463 c -0.24652,-0.38429 -0.25326,-0.38369 -0.12911,0.0114 0.072,0.2293 0.14287,0.58776 0.15739,0.79659 0.0237,0.34205 0.0366,0.34091 0.12911,-0.0114 0.0565,-0.21513 -0.0144,-0.57359 -0.15739,-0.79659 z m -0.29784,-1.4723 c -0.0727,-0.18156 -0.12659,-0.12762 -0.13751,0.13751 -0.01,0.23993 0.044,0.37435 0.11954,0.29872 0.0756,-0.0756 0.0837,-0.27194 0.018,-0.43623 z"
         id="path27322-2"
         sodipodi:nodetypes="csssscsscsssssssssssssssssssssscsssssssssssccscssssssssssssssssscsssssccssssssssssssssssssssssssssssssscssssscccccssscsscsssssscssscscsssssccsccsssssssssssssscssssssssscsscsscssscsscsscssssssssssssssssssscssscssssscssssssssssssssssscsssssssssssscsssccssccccsscsssssscssscsssssssssssscsssssssssssscsscscscsscsss" />
      <circle
         style="fill:none;stroke:#ff0000;stroke-width:0.1;stroke-dasharray:none"
         id="path788-8-1-8-1-9-2-1-6-7"
         cx="-322.85812"
         cy="-255.89218"
         r="19.954653" />
      <ellipse
         style="fill:none;stroke:#ff00ff;stroke-width:0.1;stroke-dasharray:none;stroke-opacity:1"
         id="path1138-9-4-0-0-1-2-6-8-2"
         cx="-322.85812"
         cy="-255.89218"
         rx="18.492125"
         ry="18.492126" />
      <circle
         style="fill:none;stroke:#0000ff;stroke-width:0.1;stroke-linecap:round;stroke-dasharray:none;stroke-opacity:1;paint-order:markers stroke fill"
         id="path13019-1-33-7-6-2"
         cx="-322.85812"
         cy="-270.90317"
         r="2" />
    </g>
  </g>
</svg>
