<?xml version="1.0" encoding="UTF-8" standalone="no"?>
<!-- Created with Inkscape (http://www.inkscape.org/) -->

<svg
   width="41.008999mm"
   height="41.008999mm"
   viewBox="0 0 41.008999 41.008999"
   version="1.1"
   id="svg1"
   sodipodi:docname="136.svg"
   inkscape:version="1.4.2 (f4327f4, 2025-05-13)"
   xmlns:inkscape="http://www.inkscape.org/namespaces/inkscape"
   xmlns:sodipodi="http://sodipodi.sourceforge.net/DTD/sodipodi-0.dtd"
   xmlns="http://www.w3.org/2000/svg"
   xmlns:svg="http://www.w3.org/2000/svg">
  <sodipodi:namedview
     id="namedview1"
     pagecolor="#ffffff"
     bordercolor="#000000"
     borderopacity="0.25"
     inkscape:showpageshadow="2"
     inkscape:pageopacity="0.0"
     inkscape:pagecheckerboard="0"
     inkscape:deskcolor="#d1d1d1"
     inkscape:document-units="mm"
     showguides="false"
     inkscape:zoom="2"
     inkscape:cx="156.5"
     inkscape:cy="47.5"
     inkscape:window-width="1050"
     inkscape:window-height="1081"
     inkscape:window-x="857"
     inkscape:window-y="0"
     inkscape:window-maximized="0"
     inkscape:current-layer="layer1" />
  <defs
     id="defs1" />
  <g
     inkscape:label="Layer 1"
     inkscape:groupmode="layer"
     id="layer1"
     transform="translate(-70.643761,-99.218767)">
    <g
       id="g11715"
       transform="translate(371.69855,375.60591)">
      <path
         style="fill:#000000;stroke-width:0.1;stroke-dasharray:none"
         d="m -278.97876,-243.10596 c 0.0106,-3.17374 -0.0621,-6.71691 -0.16221,-7.87369 l -0.18191,-2.10325 h -0.81056 c -1.05717,0 -2.16923,-0.39504 -2.16923,-0.77058 0,-0.16331 -0.28982,-0.4468 -0.64402,-0.62997 -0.37906,-0.19602 -0.7043,-0.5755 -0.79051,-0.92234 -0.0805,-0.32412 -0.33314,-0.84304 -0.56126,-1.15316 -0.22815,-0.31011 -0.38206,-0.79548 -0.34202,-1.07858 0.0637,-0.45022 0.20354,-0.52307 1.1161,-0.58125 0.70399,-0.0448 1.2218,0.0505 1.59213,0.29309 0.63508,0.41611 1.8475,0.56643 1.71157,0.21219 -0.0494,-0.12877 -0.20911,-0.81407 -0.35486,-1.5229 -0.31482,-1.53097 -0.38371,-1.67059 -0.71737,-1.45407 -0.14011,0.0909 -0.54596,0.19087 -0.9019,0.22212 -0.35593,0.0312 -1.28791,0.1117 -2.07107,0.17878 -2.30589,0.19749 -3.90923,-0.4765 -3.19133,-1.34152 0.13523,-0.16293 0.598,-0.305 1.02839,-0.31569 l 0.78253,-0.0195 -0.68751,-0.19891 c -0.7594,-0.21972 -1.57753,-1.11306 -1.57753,-1.72258 0,-0.48317 0.4526,-1.54284 0.75062,-1.75743 0.12106,-0.0872 0.6084,-0.16304 1.08298,-0.16861 0.78869,-0.009 0.91402,-0.0944 1.4578,-0.9901 0.50129,-0.82573 0.68808,-0.97022 1.18658,-0.91794 0.32541,0.0342 0.70566,-0.008 0.845,-0.0945 0.13934,-0.0861 0.50414,-0.0423 0.81065,0.0973 0.41544,0.18929 0.68039,0.19236 1.04082,0.0121 0.88882,-0.44455 1.82157,-0.21553 2.41874,0.59388 0.30004,0.4067 0.54554,0.96327 0.54554,1.23683 0,0.29832 0.12952,0.49739 0.32358,0.49739 0.36656,0 0.45492,0.97196 0.10785,1.18645 -0.11865,0.0733 -0.21573,0.43383 -0.21573,0.80114 0,0.95869 -1.52677,2.40493 -2.40305,2.27632 -0.33934,-0.0498 -0.6168,-0.0346 -0.61658,0.0339 0.002,0.80428 1.12097,4.45652 1.48229,4.84113 0.50017,0.5324 0.57321,1.10215 0.2502,1.95172 -0.1263,0.33219 -0.13667,1.03964 -0.0263,1.7937 0.10018,0.68485 0.19408,1.07867 0.20856,0.87518 0.0351,-0.49473 1.28188,-1.89505 1.68715,-1.89505 0.17702,0 0.61156,-0.20627 0.96562,-0.45839 0.52003,-0.37029 0.83046,-0.4328 1.61514,-0.32525 1.38076,0.18926 1.4733,0.31221 0.78818,1.04724 -0.33418,0.3585 -0.86706,0.93122 -1.18421,1.2727 -0.46356,0.49914 -0.75965,0.62104 -1.51003,0.62169 -0.56055,4.3e-4 -1.22361,0.17774 -1.65993,0.44375 l -0.72654,0.44294 0.15497,3.10023 c 0.16257,3.25215 -0.049,10.03392 -0.31315,10.03392 -0.0846,0 -0.14503,-2.5967 -0.13419,-5.77045 z m 2.66077,-8.68264 c 0.92011,0 1.32797,-0.24364 1.88338,-1.12511 l 0.36912,-0.58582 -1.36818,0.44993 c -0.78943,0.25961 -1.64196,0.72281 -2.01535,1.09499 -0.49949,0.49787 -0.53965,0.59041 -0.17597,0.40553 0.25915,-0.13173 0.8473,-0.23952 1.307,-0.23952 z m 0.85729,-1.62555 c 1.13753,-0.36857 1.35568,-0.50243 1.00186,-0.61472 -0.58422,-0.18543 -3.04589,1.09647 -3.5014,1.82332 -0.29495,0.47065 -0.25798,0.45969 0.35823,-0.10631 0.37793,-0.34711 1.34151,-0.84314 2.14131,-1.10229 z m -4.4822,-0.88096 c -0.21895,-0.42943 -0.5725,-0.97403 -0.78569,-1.21024 -0.46014,-0.50981 -3.2894,-1.97423 -3.46839,-1.79524 -0.0684,0.0684 0.0871,0.41046 0.34569,0.76013 0.25851,0.34967 0.47003,0.75917 0.47003,0.91001 0,0.15083 0.445,0.68866 0.98888,1.19518 0.84675,0.78856 1.12246,0.92093 1.91821,0.92093 h 0.92933 z m 0.64539,-1.67233 c -0.20329,-0.18717 -0.23209,-0.15213 -0.12472,0.15178 0.0768,0.21733 0.15415,0.60562 0.17193,0.86287 0.0228,0.32954 0.0596,0.2847 0.12472,-0.15178 0.0508,-0.34073 -0.0266,-0.72902 -0.17193,-0.86287 z m -0.7587,-0.3924 c -0.27949,-0.6198 -0.48674,-0.82449 -0.76194,-0.75252 -0.20791,0.0544 -0.58152,-0.0437 -0.83024,-0.2179 -0.63215,-0.44277 -1.62416,-0.69894 -1.94315,-0.50179 -0.17297,0.10691 0.22471,0.39852 1.12096,0.82198 0.76398,0.36096 1.67247,0.98384 2.01886,1.38418 0.76318,0.88204 0.95975,0.51728 0.39551,-0.73395 z m -3.75648,-4.2501 c 0,-0.26265 -0.55381,-0.45451 -1.31195,-0.45451 -0.34622,0 -0.62951,-0.0971 -0.62951,-0.21573 0,-0.11864 -0.33975,-0.21571 -0.75501,-0.21571 -0.72473,0 -0.98881,0.26148 -0.54262,0.53725 0.61161,0.37798 3.23909,0.66084 3.23909,0.3487 z m 2.19951,-0.49847 c -0.2579,-0.2579 -1.99966,-0.79116 -2.64364,-0.8094 -0.18496,-0.005 -0.52471,0.13633 -0.75503,0.31459 -0.37359,0.28917 -0.37646,0.30933 -0.0266,0.18705 0.21564,-0.0753 0.60393,-0.0297 0.86288,0.10154 0.25894,0.13122 0.8591,0.27341 1.33368,0.31597 0.47458,0.0426 1.00363,0.0937 1.17565,0.11366 0.24384,0.0283 0.25555,-0.021 0.0532,-0.22341 z m 3.20766,-1.20473 c 0.22946,-0.19647 0.42065,-0.6026 0.42484,-0.9025 0.004,-0.29991 0.14639,-0.78797 0.31594,-1.08458 0.57317,-1.00266 0.32826,-0.92419 -0.86287,0.27649 -0.65254,0.65778 -1.18645,1.28644 -1.18645,1.39703 0,0.11059 -0.20047,0.3825 -0.44551,0.60425 -0.42073,0.38075 -0.42372,0.41136 -0.0539,0.55007 0.38591,0.14476 0.97919,-0.13113 1.80798,-0.84076 z m -2.18172,0.28893 c 0.58467,-0.62235 0.45819,-1.19743 -0.26335,-1.19743 -0.62687,0 -1.02064,0.3773 -1.02064,0.97793 0,0.90244 0.55351,0.99707 1.28399,0.2195 z m -1.49972,-0.10706 c 0,-0.11217 -0.26695,-0.3322 -0.59322,-0.48896 -0.32627,-0.15675 -0.59709,-0.429 -0.60182,-0.60499 -0.0118,-0.42954 -1.74624,-2.14509 -2.21085,-2.18644 -0.20304,-0.0181 -0.51478,-0.0488 -0.69274,-0.0684 -0.87381,-0.0959 -1.51532,1.00647 -1.18723,2.04022 0.20557,0.64768 1.33557,1.13841 2.59535,1.1271 0.60808,-0.006 1.24377,0.0775 1.41268,0.18443 0.40646,0.25724 1.27783,0.25521 1.27783,-0.003 z m 1.42066,-2.51515 c 0.0948,-0.50484 0.0291,-0.90014 -0.21001,-1.26505 -0.19128,-0.29191 -0.34777,-0.6829 -0.34777,-0.86886 0,-0.43403 -0.87861,-0.78019 -1.24038,-0.48868 -0.1831,0.14755 -0.36472,0.13839 -0.56588,-0.0285 -0.43773,-0.36329 -0.87225,-0.1052 -1.3981,0.83043 l -0.46825,0.83314 0.99677,0.99679 0.99678,0.99678 0.54156,-0.58435 0.54156,-0.58435 0.27904,0.5214 c 0.15348,0.28677 0.22039,0.61969 0.14871,0.73982 -0.0717,0.12014 0.0314,0.0873 0.22894,-0.0729 0.1976,-0.16023 0.42125,-0.62175 0.49703,-1.02561 z m 1.79941,0.40491 c 0.42825,-0.51955 0.66285,-1.04368 0.66285,-1.48093 0,-0.71502 -0.76245,-1.90107 -1.09139,-1.69776 -0.10667,0.066 -0.37528,0.0228 -0.59684,-0.0957 -0.70224,-0.37583 -1.28095,0.80737 -0.68591,1.4024 0.2778,0.27781 0.33054,1.09221 0.1279,1.97508 -0.14858,0.64731 -0.11944,0.70108 0.3798,0.70108 0.36191,0 0.75993,-0.26592 1.20359,-0.80416 z"
         id="path27322-9"
         sodipodi:nodetypes="sccssssssccssssssccssscscssssssssscssscssssscscsssssscsssssssssssssssscsssscssscssssssssssccscsssccccsssssccsssscssscscsccsssscscccccsssssssscssss" />
      <circle
         style="fill:none;stroke:#ff0000;stroke-width:0.1;stroke-dasharray:none"
         id="path788-8-1-8-1-9-2-4-08"
         cx="-280.55029"
         cy="-255.88264"
         r="19.954653" />
      <ellipse
         style="fill:none;stroke:#ff00ff;stroke-width:0.1;stroke-dasharray:none;stroke-opacity:1"
         id="path1138-9-4-0-0-1-2-24-1"
         cx="-280.55029"
         cy="-255.88264"
         rx="18.492125"
         ry="18.492126" />
      <circle
         style="fill:none;stroke:#0000ff;stroke-width:0.1;stroke-linecap:round;stroke-dasharray:none;stroke-opacity:1;paint-order:markers stroke fill"
         id="path13019-1-33-9-9"
         cx="-280.55029"
         cy="-270.89362"
         r="2" />
    </g>
  </g>
</svg>
