<?xml version="1.0" encoding="UTF-8" standalone="no"?>
<!-- Created with Inkscape (http://www.inkscape.org/) -->

<svg
   width="41.008999mm"
   height="41.008999mm"
   viewBox="0 0 41.008999 41.008999"
   version="1.1"
   id="svg1"
   sodipodi:docname="137.svg"
   inkscape:version="1.4.2 (f4327f4, 2025-05-13)"
   xmlns:inkscape="http://www.inkscape.org/namespaces/inkscape"
   xmlns:sodipodi="http://sodipodi.sourceforge.net/DTD/sodipodi-0.dtd"
   xmlns="http://www.w3.org/2000/svg"
   xmlns:svg="http://www.w3.org/2000/svg">
  <sodipodi:namedview
     id="namedview1"
     pagecolor="#ffffff"
     bordercolor="#000000"
     borderopacity="0.25"
     inkscape:showpageshadow="2"
     inkscape:pageopacity="0.0"
     inkscape:pagecheckerboard="0"
     inkscape:deskcolor="#d1d1d1"
     inkscape:document-units="mm"
     showguides="false"
     inkscape:zoom="2"
     inkscape:cx="156.5"
     inkscape:cy="47.5"
     inkscape:window-width="1050"
     inkscape:window-height="1081"
     inkscape:window-x="857"
     inkscape:window-y="0"
     inkscape:window-maximized="0"
     inkscape:current-layer="layer1" />
  <defs
     id="defs1" />
  <g
     inkscape:label="Layer 1"
     inkscape:groupmode="layer"
     id="layer1"
     transform="translate(-70.643761,-99.218767)">
    <g
       id="g11721"
       transform="translate(329.4988,375.60591)">
      <path
         style="fill:#000000;stroke-width:0.1;stroke-dasharray:none"
         d="m -237.69613,-238.04036 c -0.43374,-5.36502 -0.66906,-6.38727 -2.1421,-9.30533 -0.71046,-1.40742 -1.5182,-2.08361 -3.10946,-2.60302 -0.46784,-0.15271 -1.32781,-0.59802 -1.91105,-0.98959 -0.58324,-0.39157 -1.22353,-0.71193 -1.42286,-0.71193 -0.19934,0 -0.41531,-0.0855 -0.47992,-0.19009 -0.0646,-0.10455 0.53888,-0.35094 1.3411,-0.54754 2.41607,-0.59209 3.80032,0.013 4.68045,2.04588 0.2708,0.62549 0.81415,1.80713 1.20743,2.62585 l 0.71507,1.48858 -0.12221,-1.17914 c -0.0797,-0.76851 0.0283,-1.99042 0.30998,-3.5088 0.57282,-3.08773 0.74708,-4.99844 0.57198,-6.2716 l -0.14391,-1.04636 -0.60807,0.31445 c -0.79509,0.41116 -1.26874,0.39686 -1.91097,-0.0577 -1.18251,-0.83696 -2.53086,-1.1404 -3.55611,-0.80026 -0.43725,0.14506 -0.47847,0.0925 -0.47847,-0.61035 0,-1.04873 0.57333,-1.56828 1.92909,-1.74813 l 1.09535,-0.1453 -0.67072,-0.28202 c -0.46566,-0.19579 -0.79719,-0.56793 -1.08443,-1.2173 -0.22755,-0.5144 -0.55838,-1.05533 -0.73518,-1.20207 -0.71979,-0.59736 -0.26809,-1.27797 0.84814,-1.27797 0.78821,0 1.13101,-0.20795 1.0231,-0.62063 -0.0676,-0.25857 0.17664,-0.59921 0.76226,-1.06303 l 0.86178,-0.68254 1.38931,0.66306 c 0.76413,0.36468 1.4996,0.5949 1.63438,0.5116 0.13478,-0.0833 0.63649,-0.13791 1.11489,-0.12134 0.63973,0.0221 0.99371,0.17164 1.33811,0.56516 0.25954,0.29656 0.69876,0.53506 0.98536,0.53506 0.33577,0 0.7941,0.30661 1.30706,0.8744 l 0.78997,0.8744 -0.91544,0.93276 c -0.50348,0.51302 -1.08707,0.98724 -1.29685,1.05382 -0.39704,0.12601 -0.5389,0.73036 -0.17144,0.73036 0.3014,0 1.31856,1.67717 1.16644,1.92331 -0.0701,0.11344 -0.39885,0.34659 -0.73055,0.51811 -0.55739,0.28825 -0.65791,0.27465 -1.32729,-0.17961 -0.39832,-0.27031 -1.06826,-0.5473 -1.48877,-0.61554 l -0.76455,-0.12407 0.0206,2.90718 c 0.0134,1.89599 -0.10051,3.53591 -0.32759,4.71476 -0.5102,2.64868 -0.62438,4.02754 -0.42264,5.1037 l 0.17939,0.95694 0.38964,-1.1696 c 0.50816,-1.52538 1.27589,-3.05985 2.13504,-4.26735 1.15019,-1.61653 1.22349,-1.81983 0.89511,-2.4825 -0.53229,-1.07414 -0.4474,-2.30763 0.21603,-3.13909 0.76495,-0.95871 1.58984,-0.98979 2.89483,-0.10906 0.88065,0.59434 1.64309,1.76499 1.3442,2.06388 -0.0732,0.0732 -0.0165,0.27363 0.12606,0.44539 0.46873,0.56478 0.39432,1.65488 -0.14772,2.1641 -0.31799,0.29874 -0.54621,0.38363 -0.63689,0.23692 -0.0777,-0.12575 -0.61114,-0.22865 -1.18536,-0.22865 -0.84068,0 -1.02021,0.0621 -0.92165,0.31898 0.18783,0.48945 -0.10368,0.37997 -0.63597,-0.23884 l -0.47982,-0.55782 -0.36549,0.55782 -0.36551,0.55783 0.69603,0.002 c 0.86057,0.002 2.67708,1.0196 3.43985,1.92609 0.31339,0.37245 0.53198,0.71498 0.48577,0.7612 -0.0462,0.0462 -0.6004,-0.0242 -1.23151,-0.15656 -0.75071,-0.15741 -1.5219,-0.52657 -2.23038,-1.06768 -0.5956,-0.45482 -1.2394,-0.827 -1.43067,-0.827 -0.43263,0 -2.1161,3.43446 -2.49299,5.08598 -0.20832,0.91282 -0.20867,1.57479 -0.002,3.18981 0.14364,1.12086 0.22387,2.75565 0.17829,3.63284 -0.0456,0.8772 -0.10222,1.35567 -0.12586,1.06327 z m -3.32225,-11.97034 c -0.13956,-1.27134 -1.59635,-2.28514 -3.2627,-2.27055 l -0.79316,0.007 1.10277,0.38106 c 1.19716,0.41369 2.83135,1.40656 2.83135,1.72024 0,0.1074 -0.4757,-0.12486 -1.0571,-0.51612 -0.90483,-0.6089 -2.93142,-1.29655 -3.15682,-1.07115 -0.13087,0.13087 1.7935,1.17147 2.80165,1.51498 0.54255,0.18487 1.04006,0.42286 1.10558,0.52887 0.22642,0.36635 0.4817,0.19102 0.42843,-0.29426 z m 8.7608,-0.0469 c -0.4321,-0.29362 -1.04782,-0.63353 -1.36828,-0.75537 -0.56939,-0.21648 -0.57405,-0.21202 -0.2048,0.196 0.42783,0.47274 1.57007,1.0811 2.04352,1.08837 0.17335,0.002 -0.0383,-0.23539 -0.47044,-0.529 z m 1.91357,-3.46181 c -0.004,-0.43399 -0.0499,-0.66945 -0.10278,-0.52325 -0.0528,0.1462 -0.25555,0.2659 -0.45049,0.26599 -0.19493,9e-5 -0.83289,0.19156 -1.4177,0.42548 l -1.06326,0.42529 0.85061,-0.11874 c 0.46784,-0.0654 1.08966,-0.16886 1.38182,-0.2301 0.78154,-0.16384 0.35554,0.15654 -0.46724,0.3514 -0.64958,0.15383 -0.65925,0.16786 -0.12968,0.188 0.31475,0.012 0.63427,0.12211 0.71006,0.24475 0.26305,0.42561 0.69554,-0.22051 0.68866,-1.02882 z m -1.9178,-0.75145 c 0.4816,-0.43356 0.69053,-0.22842 0.23317,0.22894 -0.18529,0.1853 -0.0594,0.18823 0.51477,0.0121 0.69989,-0.2148 0.74391,-0.27579 0.55593,-0.77024 -0.44099,-1.15989 -1.46336,-1.45741 -1.46336,-0.42584 0,0.40475 -0.1926,0.88934 -0.47848,1.20389 -0.53334,0.58685 -0.1045,0.41961 0.63797,-0.24878 z m -0.62141,-1.56051 c -0.31689,-1.1477 -0.78822,-1.44097 -1.39881,-0.87035 -0.34938,0.32651 -0.47847,0.6883 -0.47847,1.34099 0,1.07791 0.48044,1.63758 0.83579,0.97362 0.12512,-0.23379 0.22748,-0.57489 0.22748,-0.75802 0,-0.18313 0.0957,-0.33296 0.21266,-0.33296 0.30156,0 0.26153,0.42871 -0.1092,1.1696 l -0.31923,0.63796 0.62572,-0.67903 c 0.57803,-0.62729 0.60882,-0.74022 0.40406,-1.48181 z m -1.47993,1.53172 c -0.17845,-0.18026 0.24316,-1.81641 0.46807,-1.81641 0.0967,0 0.0906,0.26316 -0.0135,0.58481 -0.1041,0.32164 -0.21873,0.76085 -0.25476,0.97602 -0.036,0.21517 -0.12592,0.33018 -0.19977,0.25558 z m 3.30572,-1.68127 c -0.0612,-0.1596 -0.32139,-0.39738 -0.57811,-0.52839 -0.25673,-0.13102 -0.70602,-0.40124 -0.99842,-0.60049 -0.29525,-0.2012 -0.41345,-0.231 -0.26582,-0.067 0.1462,0.16238 0.26582,0.46448 0.26582,0.67134 0,0.24161 0.11054,0.33368 0.30912,0.25748 0.17001,-0.0653 0.52624,0.0334 0.79161,0.21933 0.58716,0.41126 0.61642,0.4142 0.4758,0.0477 z m -7.52777,-2.6068 c 0.42555,-0.4379 0.66552,-2.25887 0.3159,-2.39719 -0.11696,-0.0463 -0.26731,0.24081 -0.33412,0.63797 -0.13434,0.79854 -0.80596,2.20474 -0.97316,2.03754 -0.0585,-0.0585 0.0443,-0.39755 0.22833,-0.75349 0.18407,-0.35594 0.33467,-0.94121 0.33467,-1.30059 0,-0.64121 -0.01,-0.64716 -0.5114,-0.31835 -0.59488,0.38978 -0.8146,1.07246 -0.6347,1.97198 0.10523,0.52615 0.22004,0.62739 0.65704,0.57942 0.29124,-0.032 0.70409,-0.23775 0.91744,-0.45729 z m -1.88188,-0.51973 c -0.0649,-0.68027 0.0213,-0.97528 0.40359,-1.38225 0.55746,-0.59338 0.31504,-0.68784 -0.36062,-0.14053 -0.79783,0.64627 -1.00747,1.27876 -0.6199,1.87026 0.48983,0.74757 0.67096,0.63848 0.57693,-0.34748 z m 6.03032,0.21919 c 0.0749,-0.1212 -0.24311,-0.59967 -0.70672,-1.06328 -0.66197,-0.66198 -1.00316,-0.84291 -1.58947,-0.84291 -0.78661,0 -1.14939,0.40822 -0.73291,0.82471 0.13122,0.13121 0.48259,0.24201 0.78084,0.24621 0.29824,0.004 0.82935,0.24297 1.18023,0.53059 0.70892,0.58109 0.86898,0.62675 1.06803,0.30468 z m -7.40642,-0.63026 c -0.30716,-0.81374 -1.14633,-0.8611 -1.99643,-0.11266 l -0.59666,0.5253 0.64694,-0.23627 c 0.51941,-0.18968 0.77094,-0.16915 1.27592,0.10416 0.8756,0.47387 0.94415,0.44517 0.67023,-0.28053 z m 7.76363,-0.41904 c -0.30129,-0.52496 -1.03963,-1.06954 -1.45008,-1.06954 -0.0612,0 0.25437,0.42101 0.70113,0.93557 0.89606,1.03205 1.30652,1.10547 0.74895,0.13397 z m -9.37789,-0.60149 c -0.2796,-0.0932 -0.8725,0.3323 -0.8725,0.62616 0,0.10534 0.2523,0.0262 0.56067,-0.17585 0.30837,-0.20205 0.4487,-0.40469 0.31183,-0.45031 z m 3.07594,-0.47946 c 0.59509,-0.39229 0.60109,-0.41116 0.13117,-0.4125 -0.99132,-0.003 -1.66147,0.67865 -1.38244,1.40581 0.11219,0.29235 0.16916,0.27447 0.37982,-0.11914 0.1363,-0.25469 0.52846,-0.64807 0.87145,-0.87417 z m -1.76469,0.29723 c -0.14397,-0.0583 -0.43106,-0.0618 -0.63796,-0.008 -0.20691,0.0539 -0.0891,0.10157 0.26177,0.1059 0.35088,0.004 0.52016,-0.0398 0.37619,-0.098 z m 7.13425,-1.03012 c 0.3475,-0.29239 0.70403,-0.53162 0.79229,-0.53162 0.2577,0 1.57336,-1.43004 1.43913,-1.56426 -0.0671,-0.0671 -0.31778,-0.0173 -0.55705,0.1108 -0.23927,0.12806 -1.01617,0.36838 -1.72643,0.53405 -1.27405,0.29717 -2.80668,1.38275 -2.54651,1.80371 0.0608,0.0984 0.52824,0.17896 1.03868,0.17896 0.6797,0 1.09718,-0.14227 1.55989,-0.53164 z m -6.05659,-0.22874 c 0.26532,-0.10182 0.23068,-0.25399 -0.20578,-0.90379 -0.59302,-0.8829 -1.6195,-1.52878 -2.41435,-1.51917 -0.45059,0.006 -0.47879,0.0392 -0.17876,0.21429 0.19591,0.11431 0.46963,0.56595 0.60826,1.00365 0.37339,1.17881 1.14821,1.60503 2.19063,1.20502 z m 5.71585,-1.47634 c 0.50114,-0.0825 1.24061,-0.28571 1.64327,-0.45152 l 0.73211,-0.30146 -0.44186,-0.44186 c -0.36571,-0.36571 -0.59245,-0.41641 -1.31576,-0.2942 -0.75156,0.12697 -1.01293,0.33044 -1.86691,1.45334 -0.84111,1.106 -0.89121,1.22005 -0.32751,0.74573 0.36603,-0.30798 1.07553,-0.6275 1.57666,-0.71003 z m -4.29599,-0.10246 c 0.24866,0 -0.0582,-0.95611 -0.73299,-2.28421 -0.56227,-1.10656 -0.57013,-1.11214 -1.08772,-0.773 -0.67027,0.43918 -0.65663,0.61413 0.1166,1.49478 0.35088,0.39963 0.63796,0.90844 0.63796,1.13067 0,0.22223 0.1071,0.67345 0.238,1.00271 l 0.238,0.59864 0.20503,-0.5848 c 0.11277,-0.32164 0.28607,-0.58479 0.38512,-0.58479 z m -1.22018,0.47847 c -0.31498,-0.83321 -0.94608,-1.71414 -1.28892,-1.79918 -0.20053,-0.0497 -0.60385,-0.0217 -0.89624,0.0623 -0.39095,0.11231 -0.42572,0.15834 -0.13143,0.17393 0.62607,0.0332 1.73465,0.80654 2.00424,1.39822 0.27559,0.60485 0.52932,0.73866 0.31235,0.16472 z m 4.83688,-1.57701 c 0.64837,-0.66477 0.72122,-0.83301 0.4948,-1.14266 -0.24379,-0.33339 -0.33627,-0.30705 -1.13029,0.32181 -0.91277,0.72293 -1.469,1.49407 -1.07768,1.49407 0.12107,0 0.22516,0.26316 0.23129,0.5848 l 0.0112,0.5848 0.35521,-0.53163 c 0.19536,-0.2924 0.69735,-0.88244 1.11552,-1.31119 z m -2.5563,-0.70875 c 0,-0.8193 -0.0554,-0.89981 -0.86454,-1.2568 -0.4755,-0.20979 -0.90807,-0.3379 -0.96129,-0.28468 -0.0532,0.0532 0.21621,0.77324 0.59872,1.60004 0.59962,1.29612 0.7321,1.456 0.96129,1.16006 0.1462,-0.18878 0.26582,-0.73716 0.26582,-1.21862 z m 1.62686,-0.21432 c 0.6852,-0.44896 0.39081,-0.85269 -0.40198,-0.55127 -0.65947,0.25073 -0.70554,0.32373 -0.8856,1.40328 l -0.14188,0.85061 0.44216,-0.67271 c 0.24318,-0.37 0.68747,-0.83345 0.9873,-1.02991 z"
         id="path27322-5"
         sodipodi:nodetypes="csssssssscssscssssscsscssscsscssscssssssscssscssssssssssssccccssccsscscccccssssssccssscsccssccsssscsscsssssssssssscsssscssssssssscssssssssssssscssssssscsssscsssssssssssscssscccccsssssssssscssssscsssssscsssscssssssssscsssscsccssssssssscss" />
      <circle
         style="fill:none;stroke:#ff0000;stroke-width:0.1;stroke-dasharray:none"
         id="path788-8-1-8-1-9-2-9-1-2"
         cx="-238.35054"
         cy="-255.88264"
         r="19.954653" />
      <ellipse
         style="fill:none;stroke:#ff00ff;stroke-width:0.1;stroke-dasharray:none;stroke-opacity:1"
         id="path1138-9-4-0-0-1-2-25-6-4"
         cx="-238.35054"
         cy="-255.88264"
         rx="18.492125"
         ry="18.492126" />
      <circle
         style="fill:none;stroke:#0000ff;stroke-width:0.1;stroke-linecap:round;stroke-dasharray:none;stroke-opacity:1;paint-order:markers stroke fill"
         id="path13019-1-33-5-6-8"
         cx="-238.35054"
         cy="-270.89362"
         r="2" />
    </g>
  </g>
</svg>
