<?xml version="1.0" encoding="UTF-8" standalone="no"?>
<!-- Created with Inkscape (http://www.inkscape.org/) -->

<svg
   width="41.008999mm"
   height="41.008999mm"
   viewBox="0 0 41.008999 41.008999"
   version="1.1"
   id="svg1"
   sodipodi:docname="138.svg"
   inkscape:version="1.4.2 (f4327f4, 2025-05-13)"
   xmlns:inkscape="http://www.inkscape.org/namespaces/inkscape"
   xmlns:sodipodi="http://sodipodi.sourceforge.net/DTD/sodipodi-0.dtd"
   xmlns="http://www.w3.org/2000/svg"
   xmlns:svg="http://www.w3.org/2000/svg">
  <sodipodi:namedview
     id="namedview1"
     pagecolor="#ffffff"
     bordercolor="#000000"
     borderopacity="0.25"
     inkscape:showpageshadow="2"
     inkscape:pageopacity="0.0"
     inkscape:pagecheckerboard="0"
     inkscape:deskcolor="#d1d1d1"
     inkscape:document-units="mm"
     showguides="false"
     inkscape:zoom="2"
     inkscape:cx="156.5"
     inkscape:cy="47.5"
     inkscape:window-width="1050"
     inkscape:window-height="1081"
     inkscape:window-x="857"
     inkscape:window-y="0"
     inkscape:window-maximized="0"
     inkscape:current-layer="layer1" />
  <defs
     id="defs1" />
  <g
     inkscape:label="Layer 1"
     inkscape:groupmode="layer"
     id="layer1"
     transform="translate(-70.643761,-99.218767)">
    <g
       id="g11730"
       transform="translate(287.29877,375.60591)">
      <path
         style="fill:#000000;stroke-width:0.1;stroke-dasharray:none"
         d="m -202.82021,-243.82573 c 0.16366,-0.10438 0.76896,-0.32365 1.34509,-0.48724 l 1.0475,-0.29745 0.22688,-1.61593 c 0.42227,-3.00764 2.33594,-5.54945 2.20195,-2.92472 -0.053,1.03879 -1.06104,3.55452 -1.54892,3.8657 -0.16299,0.10396 -0.23812,0.28033 -0.16693,0.39194 0.14695,0.2304 3.38065,-1.07776 3.91526,-1.58388 0.19255,-0.18236 0.2986,-0.72054 0.23558,-1.19604 -0.20238,-1.52716 0.11071,-3.98954 0.54229,-4.26481 0.32788,-0.20913 0.45014,-0.13843 0.58064,0.33575 0.32309,1.17399 0.31099,2.15381 -0.0416,3.36848 l -0.35728,1.23091 1.45934,-1.02427 1.45933,-1.02427 -0.37485,-1.1731 c -0.93976,-2.94097 -0.65548,-5.71387 0.4139,-4.03728 0.52305,0.82005 0.70447,2.20965 0.46005,3.52387 -0.22246,1.19616 0.11209,1.17674 1.19416,-0.0694 0.75213,-0.86615 0.81113,-1.06542 0.47261,-1.59648 -0.21273,-0.33375 -0.48577,-1.39099 -0.60676,-2.34943 -0.24176,-1.9153 -0.0885,-2.86462 0.42257,-2.61807 0.57881,0.27921 0.98948,1.82448 0.93107,3.5034 l -0.0581,1.66883 0.53999,-0.56065 c 0.52788,-0.54808 0.75588,-0.90329 2.39663,-3.73379 1.58172,-2.72867 3.43648,-3.45437 2.30068,-0.90018 -0.49744,1.11863 -0.86303,1.55275 -3.30826,3.92845 l -1.16252,1.12947 1.6524,-0.82228 c 1.94947,-0.97011 3.96332,-1.44362 4.24715,-0.99862 0.33978,0.53271 -1.43538,1.44199 -4.04674,2.07281 -2.30799,0.55755 -2.44008,0.62142 -3.26644,1.57943 -0.84576,0.98051 -0.75549,1.0675 0.59177,0.57026 0.863,-0.31852 3.54794,-0.3019 3.9897,0.0247 1.2588,0.93063 -1.50722,1.66098 -4.2069,1.11082 l -1.62319,-0.3308 -1.66698,1.23126 c -1.76127,1.3009 -1.76488,1.50933 -0.0181,1.04699 2.00923,-0.53178 4.08366,-0.25646 4.09501,0.54351 0.0122,0.86071 -2.54911,1.22175 -4.94927,0.69762 -1.59214,-0.34768 -1.97025,-0.32035 -3.10893,0.22468 -0.71301,0.34127 -1.59022,0.71329 -1.94939,0.82669 -0.5865,0.18518 -0.59759,0.22433 -0.1088,0.38421 0.29933,0.0979 0.67085,0.0973 0.82558,-10e-4 0.15474,-0.0987 0.89095,-0.0118 1.63603,0.19306 3.00976,0.82751 3.97847,2.10449 1.56566,2.06388 -1.4715,-0.0248 -3.25266,-0.61868 -3.64895,-1.2167 -0.43131,-0.65093 -1.60943,-0.90539 -2.94583,-0.6363 -1.34358,0.27052 -2.05467,0.24644 -1.58419,-0.0536 z"
         id="path1587"
         sodipodi:nodetypes="cscsssscsssscccsssssssscsssscssssssscsssssssssssscc" />
      <path
         style="fill:#000000;stroke-width:0.1;stroke-dasharray:none"
         d="m -202.28686,-243.72066 c -0.061,-0.095 -0.32706,-0.35817 -0.59133,-0.58488 l -0.48048,-0.41219 0.27389,-0.90827 c 0.50978,-1.6905 0.11882,-3.49843 -0.44985,-2.08028 -0.22507,0.56126 -0.30582,2.13479 -0.1241,2.41791 0.0607,0.0946 0.0574,0.20599 -0.007,0.24756 -0.13369,0.0858 -1.52198,-1.39247 -1.68089,-1.78987 -0.0572,-0.14317 0.0179,-0.45309 0.16701,-0.68874 0.47886,-0.75684 0.91344,-2.13292 0.75269,-2.38336 -0.12213,-0.19027 -0.20389,-0.18273 -0.38829,0.0358 -0.45655,0.54101 -0.68885,1.06117 -0.79865,1.78825 l -0.11128,0.73678 -0.52082,-0.89618 -0.52081,-0.89619 0.48365,-0.52792 c 1.2125,-1.32351 1.73794,-2.85649 0.76502,-2.23198 -0.47587,0.30546 -0.91015,0.99479 -1.10129,1.74807 -0.17396,0.6856 -0.34583,0.59385 -0.61346,-0.32752 -0.18603,-0.64044 -0.16863,-0.76 0.13944,-0.95786 0.19359,-0.12435 0.59528,-0.61592 0.89263,-1.09238 0.5942,-0.95213 0.74458,-1.49057 0.41472,-1.48493 -0.37355,0.006 -0.96677,0.72203 -1.34494,1.62251 l -0.3759,0.89506 -0.14846,-0.42749 c -0.14514,-0.41791 -0.17896,-0.66096 -0.35552,-2.55479 -0.17021,-1.82569 -0.9725,-2.6606 -0.99517,-1.03563 -0.01,0.71167 0.0773,1.02988 0.78933,2.87962 l 0.3385,0.87941 -0.67193,-0.8366 c -0.79274,-0.98699 -1.74043,-1.72753 -1.99866,-1.56178 -0.30913,0.19843 0.40641,1.11085 1.63119,2.07999 1.08249,0.85656 1.13665,0.92245 1.33948,1.62946 0.20759,0.72362 0.13875,0.74754 -0.45129,0.15686 -0.37796,-0.37837 -1.7993,-1.02367 -2.11205,-0.95889 -0.89119,0.1846 0.39098,1.24395 1.95008,1.6112 l 0.93742,0.22081 0.58,1.05603 c 0.61281,1.11576 0.56393,1.22666 -0.2455,0.55708 -0.93106,-0.77018 -2.09316,-1.13019 -2.29403,-0.71068 -0.21613,0.45137 1.04796,1.26591 2.44261,1.57394 0.92514,0.20433 1.11808,0.31086 1.58637,0.87596 0.29324,0.35384 0.66566,0.76391 0.82764,0.91127 0.26448,0.24062 0.26079,0.26399 -0.0362,0.22932 -0.18185,-0.0212 -0.37781,-0.11208 -0.43545,-0.20186 -0.0576,-0.0898 -0.46742,-0.22329 -0.91064,-0.29664 -1.79034,-0.29639 -2.61278,0.1417 -1.32924,0.70805 0.78279,0.34539 1.86769,0.46579 2.22256,0.24665 0.38625,-0.23854 1.07013,-0.0858 1.71002,0.38175 0.64333,0.4701 1.02456,0.63062 0.84931,0.3576 z"
         id="path1587-5"
         sodipodi:nodetypes="cscsssscsssscccsssssssscsssscssssssscsssssssssssscc" />
      <path
         style="fill:#000000;stroke-width:0.1;stroke-dasharray:none"
         d="m -202.71845,-243.79743 c -0.0146,-0.10764 0.31048,-1.18249 0.72244,-2.38854 1.25629,-3.67799 1.12906,-6.71167 -0.41018,-9.78036 -0.55155,-1.09958 -0.80487,-1.35411 -1.34669,-1.35309 -1.15802,0.002 -1.94356,-0.42985 -3.36166,-1.84878 -1.10899,-1.10963 -1.3267,-1.45952 -1.11716,-1.79537 0.31284,-0.50142 1.02321,-0.17573 1.11655,0.51195 0.0831,0.61261 1.52643,2.15353 2.26988,2.42346 0.61019,0.22154 0.61254,0.21543 0.0902,-0.23401 -0.92081,-0.79225 -2.8526,-3.79449 -2.62987,-4.08716 0.37505,-0.49287 1.03241,-0.10119 1.11419,0.6639 0.0804,0.7524 1.25776,2.67354 1.78115,2.90643 0.3412,0.15183 -0.28995,-1.09262 -0.78474,-1.54729 -0.17685,-0.1625 -0.27399,-0.49721 -0.21587,-0.74379 0.0861,-0.36512 0.18697,-0.39762 0.54365,-0.17508 0.24089,0.15029 0.43508,0.40781 0.43155,0.57226 -0.0114,0.52893 0.57301,1.65759 0.99436,1.92047 0.32874,0.20511 0.39429,0.14705 0.33415,-0.296 -0.13916,-1.02521 -1.20532,-2.57845 -1.87706,-2.7346 -0.74604,-0.17342 -0.85899,-0.46768 -0.37972,-0.98925 0.27448,-0.2987 0.47407,-0.19862 1.10101,0.55214 0.42117,0.50433 1.03441,1.4212 1.36277,2.03747 l 0.597,1.12051 -0.31346,-1.2925 c -0.17238,-0.71087 -0.59189,-1.58027 -0.93219,-1.93198 -0.78397,-0.81027 -0.83169,-1.16621 -0.1685,-1.25623 0.30057,-0.0408 0.54808,0.10361 0.57994,0.33838 0.0306,0.22524 0.32482,0.96542 0.65387,1.64483 0.64913,1.34026 0.72737,2.8259 0.18019,3.42137 -0.27679,0.30123 -0.21826,0.56671 0.39153,1.77601 1.57313,3.11969 1.78597,6.54724 0.62314,10.03498 -0.59883,1.7961 -1.27754,3.06751 -1.35052,2.52988 z"
         id="path1587-1-8"
         sodipodi:nodetypes="cssssssssssssssssssssscsssssssscc" />
      <path
         style="fill:#000000;stroke-width:0.1;stroke-dasharray:none"
         d="m -201.9841,-243.73013 c 0.0853,-0.11852 0.37779,-1.59924 0.65004,-3.29049 0.83028,-5.15765 2.8958,-8.67754 6.65911,-11.34786 1.34849,-0.95683 1.80974,-1.09902 2.45209,-0.75588 1.37286,0.73347 2.57778,0.71646 5.15617,-0.0725 2.01636,-0.61696 2.49554,-0.89478 2.45882,-1.4256 -0.0548,-0.79248 -1.10338,-0.85428 -1.64814,-0.0971 -0.4853,0.67454 -3.17055,1.59237 -4.22318,1.44351 -0.86395,-0.12218 -0.86288,-0.13092 0.0407,-0.33461 1.59274,-0.35907 5.77996,-2.7028 5.70035,-3.19069 -0.13405,-0.8216 -1.16135,-0.77163 -1.74124,0.0847 -0.57029,0.84214 -3.17989,2.37902 -3.94799,2.3251 -0.50073,-0.0351 1.03364,-1.11367 1.90777,-1.34098 0.31242,-0.0812 0.63894,-0.41716 0.72558,-0.74646 0.12828,-0.48763 0.029,-0.58987 -0.53467,-0.55088 -0.38072,0.0263 -0.7737,0.2094 -0.87329,0.40679 -0.32032,0.63486 -1.72611,1.6055 -2.39205,1.65155 -0.51957,0.036 -0.56071,-0.0743 -0.20974,-0.56215 0.81215,-1.12883 3.05764,-2.29927 3.95337,-2.06066 0.9948,0.26502 1.31454,-0.0129 1.07493,-0.93433 -0.13722,-0.52771 -0.43724,-0.53489 -1.65506,-0.0396 -0.81809,0.33272 -2.12448,1.03378 -2.90308,1.55791 l -1.41563,0.95299 1.18768,-1.33604 c 0.6532,-0.73483 1.69972,-1.50182 2.32553,-1.70445 1.44172,-0.46681 1.72299,-0.85911 0.99277,-1.38448 -0.33095,-0.23811 -0.71581,-0.22293 -0.90179,0.0356 -0.17843,0.24802 -0.99475,0.94072 -1.81402,1.53933 -1.61618,1.18088 -2.6466,2.89457 -2.37304,3.94655 0.13837,0.53216 -0.0986,0.81028 -1.58547,1.86056 -3.83572,2.70947 -6.25142,6.64274 -7.07254,11.51563 -0.42285,2.50941 -0.41978,4.44658 0.006,3.85461 z"
         id="path1587-1-8-4"
         sodipodi:nodetypes="cssssssssssssssssssssscsssssssscc" />
      <circle
         style="fill:none;stroke:#ff0000;stroke-width:0.1;stroke-dasharray:none"
         id="path788-8-1-8-1-9-2-2-4-0"
         cx="-196.15051"
         cy="-255.88264"
         r="19.954653" />
      <ellipse
         style="fill:none;stroke:#ff00ff;stroke-width:0.1;stroke-dasharray:none;stroke-opacity:1"
         id="path1138-9-4-0-0-1-2-8-2-8"
         cx="-196.15051"
         cy="-255.88264"
         rx="18.492125"
         ry="18.492126" />
      <circle
         style="fill:none;stroke:#0000ff;stroke-width:0.1;stroke-linecap:round;stroke-dasharray:none;stroke-opacity:1;paint-order:markers stroke fill"
         id="path13019-1-33-4-9-1"
         cx="-196.15053"
         cy="-270.89362"
         r="2" />
    </g>
  </g>
</svg>
