<?xml version="1.0" encoding="UTF-8" standalone="no"?>
<!-- Created with Inkscape (http://www.inkscape.org/) -->

<svg
   width="41.008999mm"
   height="41.008999mm"
   viewBox="0 0 41.008999 41.009"
   version="1.1"
   id="svg1"
   inkscape:version="1.4.2 (f4327f4, 2025-05-13)"
   sodipodi:docname="235.svg"
   xmlns:inkscape="http://www.inkscape.org/namespaces/inkscape"
   xmlns:sodipodi="http://sodipodi.sourceforge.net/DTD/sodipodi-0.dtd"
   xmlns="http://www.w3.org/2000/svg"
   xmlns:svg="http://www.w3.org/2000/svg">
  <sodipodi:namedview
     id="namedview1"
     pagecolor="#ffffff"
     bordercolor="#000000"
     borderopacity="0.25"
     inkscape:showpageshadow="2"
     inkscape:pageopacity="0.0"
     inkscape:pagecheckerboard="0"
     inkscape:deskcolor="#d1d1d1"
     inkscape:document-units="mm"
     inkscape:zoom="2.0485264"
     inkscape:cx="68.341808"
     inkscape:cy="134.73099"
     inkscape:window-width="1050"
     inkscape:window-height="1081"
     inkscape:window-x="3737"
     inkscape:window-y="0"
     inkscape:window-maximized="0"
     inkscape:current-layer="layer1" />
  <defs
     id="defs1" />
  <g
     inkscape:label="Layer 1"
     inkscape:groupmode="layer"
     id="layer1"
     transform="translate(-114.0891,-77.774176)">
    <g
       id="g172"
       transform="translate(-219.05774,253.01563)">
      <circle
         style="fill:none;stroke:#ff0000;stroke-width:0.1;stroke-dasharray:none"
         id="path788-8-1-8-1-9-2-1-4-2-2-4-5-1-2-0-3"
         cx="353.65134"
         cy="-154.73695"
         r="19.954653" />
      <circle
         style="fill:none;stroke:#0000ff;stroke-width:0.1;stroke-linecap:round;stroke-dasharray:none;stroke-opacity:1;paint-order:markers stroke fill"
         id="path13019-1-33-3-83-70-3-7-5-3-0-0-5"
         cx="353.6514"
         cy="-169.74785"
         r="2" />
      <ellipse
         style="fill:none;stroke:#ff00ff;stroke-width:0.1;stroke-dasharray:none;stroke-opacity:1"
         id="path1138-9-4-0-0-1-2-6-7-2-6-6-394-3-67-1-8-8"
         cx="353.65134"
         cy="-154.73695"
         rx="18.492125"
         ry="18.492126" />
      <path
         style="fill:#000000;stroke-width:0.520349"
         d="m 353.2194,-140.8002 c -0.53079,-0.13297 -1.23568,-0.56317 -1.77237,-1.0817 -0.28439,-0.27474 -0.57991,-0.49954 -0.65672,-0.49954 -0.0768,0 -0.38418,-0.0754 -0.68304,-0.16763 -2.88112,-0.88879 -5.49069,-4.34461 -4.59242,-6.08168 0.0858,-0.16591 0.0967,-0.30155 0.0429,-0.53367 -0.1123,-0.48418 -0.0886,-1.77074 0.046,-2.50207 0.17544,-0.95272 0.55016,-2.05668 0.98742,-2.90897 0.3383,-0.65941 0.36122,-0.73507 0.20983,-0.69281 -1.13128,0.31581 -2.09104,0.23198 -3.11778,-0.27231 -1.15879,-0.56914 -2.08715,-1.63693 -2.48848,-2.86221 -0.16483,-0.50325 -0.19118,-0.7336 -0.18927,-1.65471 0.002,-0.96157 0.0246,-1.13438 0.22239,-1.7042 0.65441,-1.88487 1.9514,-3.18744 3.54865,-3.56395 2.40012,-0.56576 4.94244,1.12234 5.50614,3.65608 0.21132,0.94982 0.0466,2.33165 -0.40395,3.38947 -0.0496,0.11649 -0.0383,0.14069 0.0479,0.10253 2.46387,-1.09048 4.28824,-1.32181 6.39324,-0.81067 0.74245,0.18029 1.83785,0.59294 2.07707,0.78247 0.0941,0.0745 0.10243,0.0627 0.0479,-0.0683 -0.43088,-1.03455 -0.59179,-2.25867 -0.40978,-3.11735 0.38813,-1.83111 1.70295,-3.02586 3.59377,-3.26559 2.55198,-0.32356 5.227,1.65249 5.85378,4.32424 0.18106,0.77181 0.12006,2.10452 -0.12869,2.81117 -0.80872,2.29744 -2.93684,3.51786 -5.18692,2.97456 -0.26157,-0.0632 -0.50003,-0.11611 -0.52991,-0.11766 -0.0299,-0.002 0.0818,0.29179 0.24814,0.65187 0.3836,0.83031 0.67381,1.75064 0.7996,2.53574 0.13862,0.86527 0.0618,2.33832 -0.15352,2.94518 -0.0915,0.25784 -0.1669,0.66738 -0.16782,0.91155 -0.002,0.52347 -0.27141,1.34111 -0.64735,1.96445 -0.97477,1.61625 -2.75042,2.93282 -4.54481,3.36977 -0.64374,0.15675 -0.75642,0.21358 -1.18475,0.59749 -0.86758,0.77759 -1.89407,1.10715 -2.76717,0.88842 z m 1.60258,-0.51691 c 0.53767,-0.24139 0.92073,-0.5354 1.73702,-1.33323 0.6745,-0.65925 0.87646,-0.73298 0.36227,-0.13227 l -0.29168,0.34076 0.27186,-0.0585 c 1.64037,-0.35304 3.48881,-1.68609 4.45134,-3.21021 1.06998,-1.69424 0.79995,-3.29135 -0.70567,-4.17371 -0.44741,-0.26219 -1.17036,-0.42515 -1.61913,-0.36496 l -0.3256,0.0437 0.2902,-0.38018 c 0.37897,-0.49648 0.54202,-0.82448 0.76863,-1.54624 0.26178,-0.83375 0.26272,-2.21797 0.002,-3.12642 -0.24278,-0.84634 -0.67117,-1.6381 -1.18883,-2.19724 -0.7735,-0.83547 -2.01045,-1.27041 -2.91597,-1.02533 -0.371,0.10041 -1.00623,0.62346 -1.19092,0.9806 l -0.12426,0.2403 -0.11776,-0.24316 c -0.36149,-0.74639 -1.04504,-1.20677 -1.79177,-1.20677 -0.83493,0 -1.78624,0.46362 -2.64896,1.29098 -0.62598,0.60031 -1.06751,1.27859 -1.38266,2.12406 -0.21084,0.56564 -0.2541,0.80575 -0.28442,1.57865 -0.0259,0.66023 -10e-4,1.05862 0.0894,1.445 0.13475,0.57448 0.49511,1.42968 0.75803,1.79892 0.0895,0.12572 0.16276,0.24397 0.16276,0.2628 0,0.0188 -0.31211,0.0364 -0.69357,0.0391 -1.63382,0.0114 -2.6788,0.94061 -2.66624,2.37074 0.004,0.50269 0.0451,0.65441 0.34058,1.27058 0.18456,0.38485 0.47126,0.87807 0.6371,1.09605 0.87212,1.14628 2.1593,2.10213 3.52099,2.61467 l 0.54052,0.20345 -0.16594,-0.21096 c -0.36439,-0.46325 -0.12757,-0.32522 0.59011,0.34392 1.50571,1.40388 2.40699,1.6963 3.59051,1.16495 z m -1.67349,-0.38422 c -0.9705,-0.26102 -1.78643,-1.14061 -2.91022,-3.13732 -0.28439,-0.50529 -0.6355,-0.97467 -1.06727,-1.42677 -0.3539,-0.37057 -0.76443,-0.8854 -0.91228,-1.1441 l -0.26881,-0.47034 -0.39003,0.43071 c -0.39002,0.43071 -0.39002,0.43071 -0.34062,0.15361 0.1038,-0.58218 0.89572,-1.26359 1.53983,-1.32495 l 0.36847,-0.0351 -0.47559,0.27531 c -0.27154,0.15718 -0.46508,0.32135 -0.45109,0.38262 0.0684,0.2996 0.59279,1.01404 1.09567,1.49285 0.67486,0.64253 1.31185,1.01337 2.32785,1.35521 1.34013,0.45089 3.07619,0.41512 4.46883,-0.0921 1.33956,-0.48788 2.57897,-1.39915 3.52094,-2.58877 l 0.26144,-0.33018 -0.30107,-0.15243 c -0.1656,-0.0838 -0.4166,-0.17735 -0.55779,-0.20782 -0.14118,-0.0305 -0.27704,-0.0883 -0.30192,-0.12858 -0.0764,-0.12364 0.5361,-0.0819 0.95495,0.0652 0.50662,0.17781 1.14934,0.79156 1.14934,1.09752 0,0.20719 -0.009,0.20302 -0.34241,-0.15476 -0.18833,-0.20223 -0.37559,-0.36602 -0.41615,-0.36399 -0.0405,0.002 -0.19856,0.18307 -0.35115,0.40229 -0.15258,0.21921 -0.63986,0.74366 -1.08283,1.16544 -0.6607,0.62908 -0.9153,0.94439 -1.41697,1.75481 -1.28869,2.08181 -1.90592,2.70528 -2.94652,2.97633 -0.53482,0.13929 -0.65447,0.13985 -1.1546,0.005 z m 1.54727,-0.42516 c 0.36612,-0.16195 1.24894,-0.94111 1.24894,-1.10229 0,-0.22186 -0.9465,-0.24448 -1.49582,-0.0357 -0.2133,0.081 -0.51688,0.24579 -0.6746,0.3661 -0.3526,0.26893 -0.36548,0.2158 -0.0381,-0.1571 0.23893,-0.27212 0.24283,-0.28763 0.0991,-0.39386 -0.47957,-0.3544 -1.28783,-0.29646 -1.80441,0.12935 l -0.28677,0.23638 0.20046,0.2628 c 0.24003,0.3147 0.70912,0.65123 1.12265,0.80541 0.39751,0.1482 1.16001,0.0962 1.62854,-0.11104 z m -1.76312,-4.72474 c -1.20542,-0.26801 -1.81202,-1.06316 -1.50975,-1.97903 0.1392,-0.4218 0.71846,-0.89238 1.33155,-1.08175 0.62827,-0.19405 1.78575,-0.21359 2.37026,-0.04 0.48917,0.14527 1.01141,0.51345 1.17385,0.82756 0.25026,0.48396 0.0855,1.22434 -0.36618,1.64566 -0.28325,0.26421 -0.99824,0.56137 -1.57297,0.65376 -0.63409,0.10194 -0.86997,0.0976 -1.42676,-0.0262 z m -1.82309,-2.98694 c 0,-0.0855 0.37984,-0.34044 0.69356,-0.46554 0.14169,-0.0565 0.25761,-0.12158 0.25761,-0.14465 0,-0.0231 -0.0883,-0.22383 -0.19613,-0.44615 -0.36229,-0.74669 -0.46126,-1.3295 -0.41861,-2.46511 0.0419,-1.1168 0.20181,-1.72021 0.59536,-2.24737 0.21434,-0.28711 0.60999,-0.49639 0.80788,-0.42733 0.27281,0.0952 0.49126,0.39321 0.64997,0.88667 0.28831,0.89643 0.29569,2.9569 0.0147,4.10652 -0.0417,0.17083 -0.0223,0.17834 0.46041,0.17827 l 0.504,-7e-5 0.009,-1.24835 c 0.01,-1.39607 0.1781,-2.36523 0.54655,-3.14407 0.37011,-0.78236 0.87887,-0.98077 1.31573,-0.51313 0.3548,0.37983 0.50446,0.98991 0.50342,2.05216 -0.001,1.06975 -0.13303,1.65423 -0.57838,2.56125 l -0.30406,0.61926 0.3287,0.22614 c 0.31449,0.21638 0.58474,0.47733 0.49434,0.47733 -0.0236,0 -0.22326,-0.0906 -0.44378,-0.20138 -1.33091,-0.66848 -2.91643,-0.66949 -4.58594,-0.003 -0.35967,0.1436 -0.65394,0.23291 -0.65394,0.19846 z m 1.30077,-1.01036 c -0.14327,-0.2746 -0.14302,-0.97509 4.7e-4,-1.3185 0.12569,-0.30083 0.46019,-0.55946 0.63618,-0.49193 0.0636,0.0244 0.19009,0.17991 0.28116,0.34559 0.1656,0.30125 0.1656,0.30125 0.13031,-0.96699 -0.0508,-1.82518 -0.34644,-2.6781 -0.88176,-2.54374 -0.61652,0.15474 -1.07567,2.17311 -0.84011,3.69308 0.11121,0.71761 0.49685,1.6053 0.66874,1.53934 0.10015,-0.0384 0.10083,-0.0732 0.005,-0.25685 z m 3.63437,-0.3115 c 0.39084,-0.75179 0.54998,-1.4711 0.54998,-2.48596 0,-1.23901 -0.28367,-2.13121 -0.67761,-2.13121 -0.46885,0 -0.88365,0.92755 -1.12201,2.50894 -0.10849,0.71978 -0.15183,1.61792 -0.0608,1.25944 0.17596,-0.69271 0.78763,-0.77091 0.98103,-0.12541 0.0873,0.29132 0.0171,0.98541 -0.14135,1.39837 -0.0247,0.0643 0.007,0.11087 0.075,0.11087 0.0648,0 0.24235,-0.24003 0.39572,-0.53504 z"
         id="path172" />
    </g>
  </g>
</svg>
