<?xml version="1.0" encoding="UTF-8" standalone="no"?>
<!-- Created with Inkscape (http://www.inkscape.org/) -->

<svg
   width="41.008999mm"
   height="41.008999mm"
   viewBox="0 0 41.008999 41.009"
   version="1.1"
   id="svg1"
   inkscape:version="1.4.2 (f4327f4, 2025-05-13)"
   sodipodi:docname="236.svg"
   xmlns:inkscape="http://www.inkscape.org/namespaces/inkscape"
   xmlns:sodipodi="http://sodipodi.sourceforge.net/DTD/sodipodi-0.dtd"
   xmlns="http://www.w3.org/2000/svg"
   xmlns:svg="http://www.w3.org/2000/svg">
  <sodipodi:namedview
     id="namedview1"
     pagecolor="#ffffff"
     bordercolor="#000000"
     borderopacity="0.25"
     inkscape:showpageshadow="2"
     inkscape:pageopacity="0.0"
     inkscape:pagecheckerboard="0"
     inkscape:deskcolor="#d1d1d1"
     inkscape:document-units="mm"
     inkscape:zoom="2.0485264"
     inkscape:cx="68.341808"
     inkscape:cy="134.73099"
     inkscape:window-width="1050"
     inkscape:window-height="1081"
     inkscape:window-x="3737"
     inkscape:window-y="0"
     inkscape:window-maximized="0"
     inkscape:current-layer="layer1" />
  <defs
     id="defs1" />
  <g
     inkscape:label="Layer 1"
     inkscape:groupmode="layer"
     id="layer1"
     transform="translate(-114.0891,-77.774176)">
    <g
       id="g173"
       transform="translate(-261.25775,253.01564)">
      <circle
         style="fill:none;stroke:#ff0000;stroke-width:0.1;stroke-dasharray:none"
         id="path788-8-1-8-1-9-2-6-3-4-7-1-6-19-6-4"
         cx="395.85135"
         cy="-154.73697"
         r="19.954653" />
      <circle
         style="fill:none;stroke:#0000ff;stroke-width:0.1;stroke-linecap:round;stroke-dasharray:none;stroke-opacity:1;paint-order:markers stroke fill"
         id="path13019-1-33-3-83-70-3-7-5-3-0-6"
         cx="395.85138"
         cy="-169.74794"
         r="2" />
      <ellipse
         style="fill:none;stroke:#ff00ff;stroke-width:0.1;stroke-dasharray:none;stroke-opacity:1"
         id="path1138-9-4-0-0-1-2-0-0-6-8-8-1-4-9-0-9"
         cx="395.85135"
         cy="-154.793"
         rx="18.492125"
         ry="18.492126" />
      <path
         style="fill:#000000;stroke-width:0.132516"
         d="m 392.21462,-137.84488 c -0.66407,-0.0434 -1.02091,-0.1461 -1.75741,-0.50565 -1.16437,-0.56845 -1.9735,-1.42787 -2.15109,-2.28483 -0.0405,-0.19556 -0.0391,-0.33512 0.008,-0.77664 0.009,-0.0775 -0.0216,-0.0942 -0.38565,-0.21664 -0.49945,-0.16799 -0.74131,-0.30675 -1.01001,-0.57944 -0.44079,-0.44735 -0.64386,-1.12868 -0.48876,-1.63989 0.0905,-0.29832 0.34105,-0.65318 0.46118,-0.65318 0.0681,0 0.062,0.0216 -0.0893,0.31431 -0.25225,0.48814 -0.27703,0.87354 -0.0817,1.27033 0.18225,0.37021 0.49402,0.67872 0.91946,0.90985 0.23733,0.12894 0.69905,0.25796 0.79937,0.22337 0.0328,-0.0113 0.13063,-0.1158 0.2174,-0.23221 0.5526,-0.74128 1.33,-1.07959 2.8838,-1.25497 0.18802,-0.0212 0.49569,-0.0556 0.6837,-0.0764 0.18801,-0.0208 0.5154,-0.0692 0.72752,-0.10772 0.57263,-0.10387 0.69108,-0.15082 0.94613,-0.37503 0.22975,-0.20197 0.47259,-0.33837 0.76289,-0.42853 0.24574,-0.0764 0.25556,-0.0853 0.49326,-0.45341 0.14655,-0.22691 0.40979,-0.66848 0.40979,-0.68739 0,-0.0103 0.0473,-0.0875 0.10518,-0.17162 0.11718,-0.1703 0.12908,-0.23454 0.0549,-0.29614 -0.1353,-0.1123 -0.0768,-0.36064 0.21945,-0.931 0.148,-0.28497 0.19801,-0.36184 0.47091,-0.7238 0.24228,-0.32135 0.29616,-0.44277 0.36167,-0.81496 0.0593,-0.33714 0.0659,-1.16272 0.0118,-1.49 -0.0581,-0.35182 -0.17561,-0.80938 -0.25318,-0.98576 -0.17846,-0.40583 -0.47877,-0.72618 -0.63751,-0.68006 -0.25328,0.0736 -1.42949,0.7972 -1.87959,1.15632 -0.37493,0.29915 -0.87165,0.78647 -0.89452,0.8776 -0.0132,0.0525 0.006,0.12869 0.0531,0.20797 0.0406,0.0688 0.0742,0.17549 0.0746,0.23706 0.002,0.17322 0.0931,0.25454 0.47365,0.4192 0.71746,0.31041 0.98968,0.59118 1.10231,1.13698 0.0362,0.17565 0.0363,0.26265 3.9e-4,0.4558 -0.0764,0.41086 -0.17775,0.59314 -0.50273,0.90488 -0.28412,0.27254 -0.29363,0.28694 -0.33553,0.50838 -0.12801,0.67644 -0.39105,1.13297 -0.8377,1.45386 -0.41581,0.29873 -1.16476,0.33785 -1.6542,0.0864 -0.10606,-0.0545 -0.29539,-0.11809 -0.42074,-0.14134 -0.12534,-0.0233 -0.3124,-0.0792 -0.41567,-0.12425 -0.15221,-0.0665 -0.24517,-0.0814 -0.49085,-0.0787 -0.47586,0.005 -0.75669,-0.11703 -1.07873,-0.4694 -0.50343,-0.55083 -0.65671,-1.52547 -0.37619,-2.39199 0.16828,-0.5198 0.37693,-0.84232 0.84213,-1.30169 0.2767,-0.27324 0.33023,-0.34494 0.36645,-0.49086 0.0769,-0.30973 0.22127,-0.48263 0.57435,-0.68777 0.23681,-0.13758 0.74422,-0.51308 0.90461,-0.66943 0.0428,-0.0418 0.18023,-0.16257 0.30537,-0.26851 0.12514,-0.10594 0.23543,-0.20167 0.24507,-0.21274 0.01,-0.011 0.18319,-0.14375 0.38567,-0.29486 0.20248,-0.15111 0.43116,-0.3236 0.50817,-0.38331 0.077,-0.0597 0.38338,-0.27027 0.68081,-0.46793 0.29743,-0.19766 0.51053,-0.35915 0.47355,-0.35887 -0.037,2.7e-4 -0.16979,0.025 -0.29514,0.0549 -0.15324,0.0366 -0.40139,0.0544 -0.75753,0.0547 -0.45355,2.6e-4 -0.58083,-0.0127 -0.8859,-0.0898 -0.63564,-0.16069 -1.02772,-0.40689 -1.5554,-0.97669 -0.24681,-0.26653 -0.43612,-0.43123 -0.68369,-0.59482 -0.41335,-0.27313 -0.61241,-0.48206 -0.75485,-0.79233 -0.0915,-0.19925 -0.10765,-0.27726 -0.11022,-0.53154 -0.003,-0.25879 0.009,-0.3211 0.0903,-0.47333 0.11446,-0.21508 0.30674,-0.40342 0.53407,-0.52312 0.1385,-0.0729 0.22064,-0.0904 0.42407,-0.0904 0.23375,0 0.26786,0.0101 0.46396,0.1368 0.11642,0.0752 0.29471,0.23697 0.39621,0.35939 0.20711,0.24979 0.27954,0.2905 0.27954,0.15708 0,-0.0484 -0.0134,-0.0965 -0.03,-0.10668 -0.033,-0.0204 -0.14486,-0.32516 -0.21999,-0.59918 -0.0725,-0.26444 -0.0633,-1.26017 0.0147,-1.58656 0.0857,-0.35876 0.15151,-0.5441 0.31424,-0.88526 0.46814,-0.98151 1.20243,-1.63121 2.37107,-2.09794 0.25781,-0.10296 0.25833,-0.10344 0.14024,-0.12787 -0.28595,-0.0591 -0.60946,-0.19204 -0.85302,-0.35041 -0.78987,-0.51357 -1.12941,-1.49504 -0.83723,-2.42003 0.30718,-0.97239 1.03366,-1.65779 2.00999,-1.8963 0.31344,-0.0765 1.06884,-0.0638 1.4313,0.0243 0.50361,0.12232 0.85073,0.31306 1.20493,0.6621 0.2504,0.24675 0.33002,0.35311 0.44712,0.59728 0.3096,0.64562 0.31149,1.28983 0.006,1.94696 -0.19039,0.40913 -0.4507,0.72058 -0.87357,1.04516 -0.1217,0.0934 -0.21434,0.17678 -0.20587,0.18527 0.009,0.009 0.13961,0.0455 0.29141,0.0823 0.24524,0.0595 0.36788,0.0999 0.76685,0.2529 0.32302,0.12383 0.96481,0.52011 1.11991,0.6915 0.10134,0.11198 0.12476,0.0885 0.12476,-0.12515 0,-0.19146 0.0152,-0.27036 0.13088,-0.679 0.0685,-0.24177 0.29949,-0.70926 0.44186,-0.89407 0.37015,-0.48043 0.77298,-0.74952 1.33859,-0.89418 0.72616,-0.18573 1.48596,0.003 2.04371,0.50646 0.44664,0.4035 0.81356,1.29573 0.81317,1.97733 -8.6e-4,1.57253 -1.10011,2.77553 -2.53605,2.77553 -0.271,0 -0.67369,-0.095 -0.90681,-0.21393 -0.077,-0.0393 -0.14374,-0.0664 -0.14823,-0.0603 -0.004,0.006 0.008,0.18477 0.0264,0.39688 0.0571,0.63703 -0.0256,1.31064 -0.24237,1.97307 -0.0813,0.24848 -0.40888,0.90814 -0.57196,1.15182 -0.0791,0.11813 -0.14376,0.23291 -0.14376,0.25506 0,0.0731 0.43102,0.18745 0.87049,0.23102 l 0.22187,0.022 0.4443,-0.44997 c 0.59791,-0.60555 1.07374,-0.91165 1.72672,-1.11082 0.22746,-0.0694 0.37399,-0.0911 0.6127,-0.0908 0.66963,8.5e-4 1.04314,0.24382 1.53518,0.99886 0.29516,0.4529 0.31494,0.47332 0.45842,0.47332 0.45198,0 1.09093,0.25024 1.39574,0.54662 0.24704,0.2402 0.35388,0.48453 0.35653,0.81535 0.002,0.22749 -0.0212,0.33785 -0.15113,0.72418 -0.1907,0.56701 -0.35345,0.89831 -0.48248,0.98213 -0.0543,0.0353 -0.18851,0.15 -0.29816,0.25492 -0.10965,0.1049 -0.23587,0.21567 -0.28049,0.24616 -0.0446,0.0305 -0.089,0.0662 -0.0987,0.0793 -0.0305,0.0413 -0.36099,0.18153 -0.54346,0.23042 -0.0964,0.0259 -0.26064,0.0472 -0.36495,0.0474 -0.18664,4e-4 -0.19302,0.003 -0.4032,0.22137 -0.31519,0.32609 -0.6204,0.40731 -1.06209,0.28264 -0.11183,-0.0315 -0.25065,-0.0591 -0.30849,-0.0614 -0.0926,-0.003 -0.10626,0.009 -0.11411,0.1012 -0.005,0.0579 -0.0348,0.25033 -0.0665,0.42772 -0.0463,0.25906 -0.0501,0.36257 -0.0194,0.52593 0.021,0.11185 0.0555,0.36905 0.0766,0.57153 0.0211,0.20247 0.0558,0.49626 0.0771,0.65285 0.0213,0.15659 0.0275,0.33014 0.0136,0.38567 -0.0624,0.25148 -0.61197,0.62438 -1.19986,0.81418 -0.30913,0.0998 -0.38157,0.15927 -0.49057,0.40266 -0.0533,0.11906 -0.24359,0.50877 -0.42282,0.86603 -0.17923,0.35727 -0.32587,0.67512 -0.32587,0.70636 0,0.10005 0.23434,0.27442 0.3688,0.27442 0.0665,0 0.43278,-0.10343 0.81396,-0.22984 1.03371,-0.34283 1.28678,-0.40079 1.74487,-0.39969 0.78862,0.002 1.3844,0.25761 1.9327,0.82953 0.54948,0.57314 0.64854,1.33462 0.27193,2.09033 -0.40994,0.82262 -1.251,1.55561 -2.25722,1.9672 -0.12535,0.0513 -0.25946,0.10765 -0.29802,0.12528 -0.25294,0.11566 -0.94541,0.28045 -1.45688,0.3467 -0.41491,0.0538 -1.59141,0.047 -1.99667,-0.0114 -0.60745,-0.0876 -1.42684,-0.31865 -2.00028,-0.56409 l -0.27413,-0.11734 -0.16883,0.19903 c -0.83839,0.98835 -1.88854,1.57087 -3.28929,1.82459 -0.29096,0.0527 -0.53685,0.0618 -0.94665,0.035 z m 1.24467,-0.39819 c 0.87706,-0.18875 1.80496,-0.70439 2.49153,-1.38455 0.29071,-0.28799 0.58616,-0.68451 0.71102,-0.95422 0.1551,-0.33502 0.30291,-0.96689 0.30171,-1.2897 -4.6e-4,-0.15862 -0.0682,-0.51139 -0.12578,-0.65643 -0.0305,-0.0768 -0.0333,-0.0759 -0.1883,0.0565 -0.21546,0.18404 -0.5464,0.34465 -0.88252,0.42831 -0.22803,0.0567 -0.37318,0.068 -0.76438,0.0595 l -0.48292,-0.0106 0.0668,0.0849 c 0.13559,0.17214 0.009,0.15238 -0.62399,-0.097 -0.58817,-0.23193 -1.26766,-0.44437 -1.87064,-0.58484 -0.29622,-0.069 -0.38566,-0.10677 -0.38566,-0.16284 0,-0.0437 0.66579,-0.0121 0.87653,0.0415 0.0675,0.0172 0.24893,0.0634 0.4032,0.10265 0.15427,0.0393 0.36705,0.10313 0.47284,0.14193 0.10579,0.0388 0.20407,0.0705 0.21841,0.0705 0.0144,0 -0.0249,-0.0722 -0.0872,-0.16054 -0.10214,-0.14483 -0.11323,-0.18516 -0.11323,-0.41197 0,-0.13828 0.0122,-0.28495 0.0272,-0.32592 0.0273,-0.0745 0.0273,-0.0745 -0.16959,-0.01 -0.34429,0.11357 -0.75124,0.18639 -1.55815,0.27877 -1.43733,0.16457 -2.22766,0.47839 -2.81193,1.11657 -0.6403,0.69939 -0.52567,1.48453 0.35509,2.43193 0.30855,0.33191 1.07722,0.81846 1.64367,1.04042 0.23299,0.0913 0.69985,0.21402 0.95342,0.25063 0.29594,0.0427 1.24393,0.009 1.54269,-0.056 z m 7.1633,-1.24528 c 0.7224,-0.10326 1.17886,-0.21276 1.70722,-0.40957 0.44036,-0.16404 0.68269,-0.28804 1.10128,-0.56354 0.92036,-0.60573 1.40832,-1.34574 1.40378,-2.12884 -0.002,-0.28932 -0.0124,-0.33741 -0.12924,-0.57851 -0.13534,-0.27932 -0.31633,-0.50276 -0.51791,-0.63935 -0.49169,-0.33319 -0.99042,-0.48262 -1.61081,-0.48262 -0.42248,0 -0.77494,0.0757 -1.36906,0.294 -0.40577,0.1491 -0.68872,0.23094 -0.90566,0.26196 -0.16371,0.0234 -0.16371,0.0234 -0.18622,0.20743 -0.0124,0.10122 -0.0483,0.22331 -0.0797,0.2713 -0.062,0.0948 -0.0221,0.1211 0.0507,0.0335 0.0674,-0.0812 0.46868,-0.29675 0.55246,-0.29675 0.11905,0 0.11828,0.0537 -0.003,0.159 -0.0621,0.0543 -0.23131,0.20363 -0.37593,0.33186 -0.14464,0.12823 -0.31638,0.27929 -0.38165,0.3357 -0.0653,0.0564 -0.24519,0.25245 -0.3998,0.43565 -0.15461,0.1832 -0.29843,0.33308 -0.31959,0.33308 -0.1163,0 0.14555,-0.54469 0.36254,-0.7541 0.0301,-0.0291 0.0863,-0.0917 0.12492,-0.13906 0.0701,-0.0862 0.0701,-0.0862 -0.0175,-0.0264 -0.5403,0.3687 -1.61288,0.54788 -2.26145,0.37779 -0.13498,-0.0354 -0.24788,-0.0621 -0.25087,-0.0593 -0.003,0.003 0.0244,0.12337 0.0608,0.268 0.0883,0.35095 0.0878,0.84401 -0.002,1.19785 -0.0372,0.14779 -0.14072,0.41407 -0.22994,0.5917 -0.0892,0.17765 -0.14922,0.33424 -0.13334,0.34801 0.0158,0.0138 0.0841,0.0449 0.15159,0.0692 0.0675,0.0243 0.15427,0.0578 0.19283,0.0745 0.14139,0.061 0.74404,0.24364 1.01678,0.30831 0.27395,0.065 0.53827,0.11106 0.99926,0.17433 0.32482,0.0446 1.15133,0.0474 1.44829,0.005 z m -4.84958,-2.82688 c 0.4395,-0.1056 0.82015,-0.35866 0.92811,-0.61705 0.0865,-0.20705 0.0711,-0.45903 -0.0351,-0.57642 -0.0857,-0.0947 -0.0906,-0.0958 -0.13149,-0.0306 -0.42434,0.67817 -1.4806,0.93263 -2.10944,0.50817 -0.22194,-0.14981 -0.21298,-0.27221 0.0486,-0.66364 0.0967,-0.14463 0.16158,-0.26782 0.14427,-0.27377 -0.0996,-0.0342 -0.59932,0.31504 -0.75042,0.52457 -0.19545,0.27104 -0.20099,0.64614 -0.0126,0.84843 0.14815,0.15903 0.54965,0.31858 0.88402,0.35131 0.24348,0.0238 0.79758,-0.0142 1.03396,-0.071 z m 2.51344,-0.3298 c 1.07403,-0.14567 1.84198,-0.70916 1.56368,-1.14736 -0.0332,-0.0524 -0.0919,-0.12371 -0.13045,-0.15859 -0.0665,-0.0603 -0.0722,-0.0603 -0.11485,-0.002 -0.0247,0.0337 -0.0448,0.0793 -0.0448,0.10113 0,0.13554 -0.43896,0.36353 -0.94666,0.49168 -0.37891,0.0957 -0.89663,0.0109 -1.02957,-0.1685 -0.0718,-0.097 -0.0718,-0.097 0.0423,-0.32845 0.0627,-0.12732 0.10944,-0.23602 0.10367,-0.24157 -0.0578,-0.0556 -0.78295,0.35553 -0.82631,0.46853 -0.0105,0.0275 0.003,0.0834 0.0288,0.12421 0.0282,0.0437 0.0508,0.1873 0.0549,0.34834 0.008,0.30889 0.0506,0.38647 0.23408,0.42377 0.68824,0.13996 0.68849,0.13999 1.06533,0.0889 z m -1.45451,-1.20171 c 0.11179,-0.11179 0.53246,-0.34782 0.7697,-0.43185 0.14182,-0.0503 0.28786,-0.11692 0.32454,-0.14818 0.0839,-0.0716 0.31613,-0.42894 0.51276,-0.7892 l 0.15095,-0.27656 -0.11976,0.024 c -0.0659,0.0132 -0.17205,0.033 -0.23594,0.044 -0.0875,0.0151 -0.1387,0.0557 -0.20755,0.16488 -0.0502,0.0797 -0.12773,0.20014 -0.17214,0.26763 -0.0917,0.13932 -0.46376,0.53093 -0.85796,0.90301 -0.14681,0.13857 -0.25858,0.2603 -0.24836,0.27051 0.026,0.0261 0.0312,0.0244 0.0837,-0.0282 z m -3.96123,-0.43634 c 0.25985,-0.12805 0.50756,-0.37513 0.64192,-0.64025 0.0956,-0.18869 0.21293,-0.55353 0.23982,-0.7458 0.0171,-0.12218 0.0121,-0.13274 -0.0584,-0.12271 -0.0673,0.01 -0.0782,0.0353 -0.0865,0.20379 -0.0109,0.22213 -0.065,0.35062 -0.14778,0.35062 -0.0318,0 -0.0841,0.0552 -0.11622,0.12272 -0.0398,0.0834 -0.0823,0.12271 -0.13312,0.12271 -0.0671,0 -0.0722,-0.0133 -0.0508,-0.13148 0.0542,-0.29857 0.27795,-0.79699 0.4525,-1.00801 0.0918,-0.111 0.0863,-0.11374 0.14431,0.0712 0.0365,0.11618 0.39292,-0.15352 0.64169,-0.48551 0.0407,-0.0543 0.10036,-0.21716 0.13255,-0.36186 0.13592,-0.61091 -0.12187,-1.10748 -0.71917,-1.38534 -0.34669,-0.16127 -0.55407,-0.23906 -0.74871,-0.28079 -0.17831,-0.0383 -0.36232,-0.17537 -0.32226,-0.24017 0.0288,-0.0466 0.17976,-0.0442 0.27032,0.004 0.0692,0.037 0.072,0.0323 0.0525,-0.0879 -0.0481,-0.29622 -0.37901,-0.61387 -0.78799,-0.75634 -0.32296,-0.1125 -0.8954,-0.13878 -1.18734,-0.0545 -0.47621,0.13747 -0.8792,0.45549 -0.96069,0.75811 -0.0271,0.10087 -0.10509,0.22144 -0.2311,0.35754 -0.74722,0.80709 -1.06518,1.48583 -1.06518,2.27382 0,0.46227 0.13025,0.84604 0.42052,1.23896 0.16679,0.22576 0.33964,0.35748 0.57997,0.44195 0.18297,0.0643 0.40196,0.0892 0.40196,0.0457 0,-0.0116 -0.0577,-0.0787 -0.1282,-0.14902 -0.13044,-0.13019 -0.25531,-0.35874 -0.2567,-0.46982 -4e-4,-0.0337 0.007,-0.0614 0.017,-0.0614 0.01,0 0.15072,0.13454 0.31332,0.29897 0.29274,0.29606 0.47683,0.41141 0.79824,0.50014 l 0.12699,0.0351 -0.0522,-0.17573 c -0.0419,-0.14097 -0.0439,-0.19572 -0.0103,-0.27684 0.0551,-0.13312 0.0834,-0.12761 0.15557,0.0304 0.17179,0.37611 0.20961,0.43832 0.31557,0.51914 0.18554,0.14152 0.38365,0.1877 0.77282,0.18014 0.31925,-0.006 0.37306,-0.0175 0.585,-0.12185 z m -2.39338,-2.76212 c -0.061,-0.0735 -0.0529,-0.45711 0.0137,-0.6515 0.14929,-0.43613 0.34378,-0.77569 0.42617,-0.74407 0.072,0.0276 0.0699,0.0431 -0.0714,0.54013 -0.28093,0.98809 -0.27321,0.97016 -0.36843,0.85544 z m -0.75286,-0.0167 c -0.0491,-0.0794 0.035,-0.35021 0.2202,-0.70895 0.20164,-0.39052 0.26024,-0.4687 0.32251,-0.4302 0.0555,0.0343 0.0441,0.16552 -0.031,0.35564 -0.0372,0.0942 -0.10083,0.28167 -0.14144,0.41665 -0.10652,0.354 -0.1371,0.40321 -0.25061,0.40321 -0.0535,0 -0.1073,-0.0163 -0.11965,-0.0363 z m 1.76718,-0.16526 c -0.0681,-0.17489 -0.075,-0.47361 -0.0173,-0.75057 0.0656,-0.31487 0.11271,-0.45027 0.15684,-0.45027 0.10539,0 0.0973,0.7293 -0.0136,1.21838 -0.0243,0.10711 -0.0805,0.0993 -0.12593,-0.0175 z m -1.15281,-1.72677 c 0,-0.0828 0.23766,-0.2614 0.4252,-0.31962 0.18721,-0.0581 0.63089,-0.13473 0.78441,-0.13544 0.36658,-0.002 0.9184,0.17395 1.01183,0.32208 0.0635,0.1007 -0.005,0.11377 -0.19708,0.0376 -0.52861,-0.2099 -1.01286,-0.19735 -1.73585,0.045 -0.29164,0.0978 -0.28851,0.0972 -0.28851,0.0504 z m 7.81838,3.26068 c 0.58057,-0.079 0.71993,-0.11621 0.8198,-0.21913 0.0824,-0.085 0.29731,-0.52242 0.4262,-0.86774 0.11505,-0.30829 0.18145,-0.42073 0.24843,-0.42073 0.0607,0 0.0655,0.20487 0.008,0.33157 -0.069,0.15147 -0.0375,0.14713 0.29743,-0.041 0.0853,-0.0479 0.14937,-0.009 0.11823,0.0726 -0.0111,0.0288 -0.13544,0.12719 -0.27639,0.21865 -0.26698,0.17322 -0.30745,0.21111 -0.30834,0.2887 -8.6e-4,0.0927 0.22309,0.011 1.20908,-0.44061 0.46716,-0.21398 0.68352,-0.29054 1.05184,-0.37219 l 0.21037,-0.0466 -0.0102,-0.22469 c -0.006,-0.12358 -0.0248,-0.29569 -0.0428,-0.38246 -0.0281,-0.13603 -0.0601,-0.44855 -0.07,-0.6837 -0.002,-0.0395 -0.0553,0.0383 -0.12299,0.17835 -0.13529,0.2801 -0.36823,0.56583 -0.43009,0.5276 -0.0283,-0.0175 -0.01,-0.0847 0.0611,-0.22518 0.17913,-0.35384 0.35264,-0.81035 0.48923,-1.28718 0.14838,-0.51797 0.15456,-0.5702 0.0705,-0.59686 -0.0792,-0.0252 -0.21974,-0.2315 -0.25502,-0.37443 -0.0338,-0.13712 -0.16322,-0.26465 -0.29549,-0.29128 l -0.11483,-0.0231 0.0899,0.20338 c 0.11266,0.25474 0.17196,0.32173 0.35883,0.40534 0.082,0.0367 0.14902,0.0821 0.14902,0.10097 0,0.0369 -0.14765,0.10267 -0.2305,0.10267 -0.12319,0 -0.43567,-0.39844 -0.43567,-0.55552 0,-0.0609 -0.0158,-0.11065 -0.0351,-0.11065 -0.0193,0 -0.0351,-0.0303 -0.0351,-0.0673 0,-0.095 -0.0364,-0.17818 -0.0779,-0.17818 -0.0194,0 -0.0848,0.0532 -0.14526,0.11828 -0.15898,0.17107 -0.24501,0.20683 -0.76223,0.31687 -0.0851,0.0181 -0.0929,0.0364 -0.11444,0.26816 -0.0608,0.65362 -0.57034,1.06224 -1.06633,0.85506 -0.18589,-0.0776 -0.30577,-0.20536 -0.44461,-0.47365 -0.23874,-0.46132 -0.32359,-1.01659 -0.21669,-1.41798 0.12623,-0.47392 0.31874,-0.70714 0.61247,-0.74192 0.16199,-0.0192 0.18144,-0.0305 0.18144,-0.10536 0,-0.16586 -0.13271,-0.14077 -0.54345,0.10275 -0.62254,0.36908 -1.15758,0.89926 -1.40535,1.39256 -0.0819,0.16314 -0.0866,0.19464 -0.0523,0.3546 0.0544,0.25384 0.0454,1.12011 -0.0155,1.46937 -0.12716,0.73078 -0.14665,0.78075 -0.4471,1.14636 -0.24881,0.30276 -0.41191,0.56972 -0.57413,0.93979 -0.18541,0.42293 -0.18739,0.41018 0.0845,0.54339 0.29581,0.14493 0.38941,0.16955 0.86712,0.22811 0.38336,0.047 0.73784,0.0417 1.17426,-0.0177 z m 3.13685,-0.86669 c 0.48199,-0.2431 0.70092,-0.39721 0.62548,-0.4403 -0.0353,-0.0201 -0.67353,0.18326 -0.89519,0.28523 -0.15327,0.0705 -0.27231,0.2111 -0.27231,0.32161 0,0.0665 0.2048,0.003 0.54202,-0.16654 z m -1.85682,-2.789 c 0.0958,-0.0535 0.1662,-0.13061 0.22212,-0.24333 0.0829,-0.16706 0.18407,-0.5753 0.15886,-0.64098 -0.008,-0.0197 -0.0917,-0.0796 -0.187,-0.13318 -0.27314,-0.15353 -0.40348,-0.37649 -0.45959,-0.78615 -0.0389,-0.28443 -0.1035,-0.43095 -0.1898,-0.43095 -0.0278,0 -0.10549,0.0262 -0.17259,0.0582 -0.26593,0.12682 -0.41261,0.78821 -0.29034,1.30922 0.0954,0.40639 0.12963,0.49599 0.25642,0.67038 0.19814,0.27256 0.41227,0.33622 0.66192,0.19681 z m 3.84699,-0.53679 c 0.13603,-0.0687 0.27272,-0.18798 0.27272,-0.23784 0,-0.0195 -0.0345,-0.0721 -0.0767,-0.11707 -0.0988,-0.1052 -0.0485,-0.17003 0.0908,-0.11704 0.14151,0.0538 0.50747,0.0442 0.72459,-0.0192 0.60892,-0.17747 0.90887,-0.46543 1.03528,-0.99385 0.0968,-0.40489 0.0452,-0.65566 -0.18602,-0.90318 -0.0985,-0.10549 -0.42467,-0.32814 -0.54488,-0.372 -0.0337,-0.0123 -0.0614,-0.0562 -0.0614,-0.0975 0,-0.0671 0.0134,-0.0727 0.12463,-0.0518 l 0.12462,0.0234 -0.0592,-0.11589 c -0.0326,-0.0638 -0.14846,-0.22817 -0.2575,-0.36538 -0.19391,-0.24401 -0.27126,-0.37732 -0.42493,-0.73224 -0.18026,-0.41638 -0.69876,-1.04518 -0.97087,-1.17739 -0.14188,-0.069 -0.22255,-0.0812 -0.5352,-0.0817 -0.26706,-4.2e-4 -0.4211,0.0173 -0.56099,0.0644 -0.45735,0.15423 -1.16982,0.5809 -1.50847,0.90339 -0.40073,0.3816 -0.69516,0.86856 -0.74965,1.23985 -0.0263,0.17921 0.12044,0.50905 0.31146,0.70008 0.09,0.09 0.29959,0.23879 0.31296,0.22219 0.005,-0.007 0.0559,-0.0994 0.11193,-0.20542 0.21793,-0.41286 0.80463,-1.19209 0.89754,-1.19209 0.0707,0 0.0159,0.19138 -0.10751,0.37581 -0.65657,0.9808 -0.65374,0.97484 -0.65157,1.37725 0.002,0.23376 0.0176,0.32827 0.0758,0.43828 0.14127,0.26698 0.42523,0.46632 0.74914,0.52589 0.12535,0.023 0.12535,0.023 0.25334,-0.25142 0.13176,-0.28261 0.38553,-0.75094 0.48275,-0.89092 0.0586,-0.0844 0.13782,-0.0682 0.13782,0.0282 0,0.0484 -0.27311,0.70504 -0.3964,0.95296 -0.023,0.0463 -0.0419,0.19069 -0.0419,0.32086 0,0.20882 0.0128,0.25462 0.10911,0.38914 0.123,0.17187 0.40942,0.36137 0.62403,0.41285 0.1926,0.0462 0.55306,0.0188 0.69462,-0.0527 z m -2.69066,-0.7355 c 0.22718,-0.12717 0.23232,-0.1658 0.0459,-0.34446 -0.20498,-0.1964 -0.26548,-0.31353 -0.32504,-0.62922 -0.0406,-0.21515 -0.0639,-0.26426 -0.16125,-0.33922 -0.28993,-0.22333 -0.45039,-0.40005 -0.55358,-0.60967 -0.0604,-0.12259 -0.10973,-0.25645 -0.10973,-0.29747 0,-0.12655 -0.0651,-0.0866 -0.2199,0.13481 -0.0773,0.11059 -0.0763,0.22939 0.005,0.61702 0.0362,0.17219 0.0924,0.49452 0.12481,0.71628 0.0839,0.57375 0.10458,0.63581 0.24395,0.73001 0.23053,0.1558 0.6914,0.16644 0.94957,0.0219 z m 5.09171,-0.84834 c 0.0466,-0.0972 0.0627,-0.21379 0.0619,-0.44703 -8.5e-4,-0.28484 -0.0125,-0.33906 -0.11797,-0.55689 -0.1408,-0.29072 -0.47777,-0.64362 -0.69612,-0.72904 -0.0819,-0.032 -0.14902,-0.0514 -0.14902,-0.0429 0,0.0221 0.17607,0.29307 0.27112,0.41716 0.12359,0.16139 0.12384,0.16176 0.26006,0.38568 0.1738,0.28571 0.27524,0.6109 0.27524,0.88232 0,0.12216 0.007,0.22211 0.0158,0.22211 0.009,0 0.0443,-0.0591 0.0789,-0.13148 z m -8.96289,-1.08114 c 0.34115,-0.0996 0.59842,-0.28393 0.77984,-0.55881 0.1014,-0.15363 0.23453,-0.61898 0.23456,-0.81996 4e-5,-0.13907 0.0852,-0.57715 0.14042,-0.72243 0.0194,-0.051 0.055,-0.0862 0.0789,-0.0781 0.0497,0.0167 0.0555,0.35778 0.0125,0.72731 l -0.0265,0.22789 0.22164,-0.23077 c 0.1219,-0.12692 0.2675,-0.30048 0.32354,-0.38567 0.0561,-0.0852 0.12913,-0.19513 0.16239,-0.24428 0.14219,-0.21013 0.37076,-0.72811 0.53302,-1.2079 0.0969,-0.28644 0.0958,-0.6386 -0.003,-0.91022 -0.16763,-0.4623 -0.44281,-0.74319 -0.87781,-0.89607 -0.18442,-0.0648 -0.32648,-0.0846 -0.68819,-0.0958 -0.43552,-0.0134 -0.46977,-0.009 -0.76986,0.0933 -0.55135,0.18862 -1.04999,0.53852 -1.36594,0.9585 -0.15467,0.20559 -0.19578,0.17698 -0.19578,-0.13627 0,-0.76535 -0.2382,-1.85997 -0.53217,-2.44552 -0.25329,-0.50453 -0.60196,-0.91857 -0.90273,-1.07201 -0.29631,-0.15117 -0.65584,-0.15043 -0.95696,0.002 -0.20042,0.10143 -0.65054,0.56224 -0.78831,0.80703 -0.12466,0.2215 -0.25584,0.59405 -0.25584,0.72662 0,0.0826 -0.0867,0.2161 -0.14032,0.2161 -0.0133,0 -0.0606,-0.0315 -0.10511,-0.0701 -0.13945,-0.12094 -0.1911,-0.0913 -0.2906,0.16655 -0.13935,0.36117 -0.20221,0.71574 -0.21907,1.2359 -0.0153,0.4732 -0.0153,0.47328 0.0386,0.28454 0.0771,-0.2698 0.20402,-0.42478 0.34785,-0.42478 0.0932,0 0.13005,0.0244 0.203,0.13465 0.13609,0.20565 0.36196,0.66913 0.42146,0.86486 0.10916,0.35906 0.19851,0.51003 0.35973,0.60782 0.0845,0.0513 0.15409,0.10903 0.1547,0.12846 4.6e-4,0.0224 -0.14386,0.0307 -0.39565,0.0227 -0.40216,-0.0128 -0.57113,0.0182 -0.8309,0.1526 -0.14518,0.0751 -0.15351,0.10878 -0.0585,0.2362 0.1259,0.16876 0.23426,0.49468 0.23426,0.70462 0,0.45152 -0.39978,0.86457 -0.83678,0.86457 -0.17253,0 -0.13752,0.082 0.16185,0.37904 0.50642,0.50245 1.2358,0.75231 2.2001,0.75366 0.67852,8.6e-4 1.07249,-0.0967 1.69979,-0.42117 0.20211,-0.10455 0.37566,-0.20128 0.38568,-0.21496 0.01,-0.0137 0.0656,-0.0548 0.12339,-0.0914 0.24003,-0.15193 0.61146,-0.52296 0.96771,-0.96666 0.36483,-0.45439 0.67996,-1.24638 0.75308,-1.89268 0.0287,-0.25315 0.0104,-0.25977 -0.28552,-0.10407 -0.14823,0.078 -0.21238,0.0959 -0.24023,0.0672 -0.0571,-0.0589 0.22639,-0.29618 0.45705,-0.38248 0.22935,-0.0858 0.33075,-0.0872 0.53925,-0.008 0.21207,0.0812 0.20292,0.14817 -0.0274,0.20003 -0.10183,0.0229 -0.19389,0.0505 -0.2046,0.0612 -0.0107,0.0107 -0.0351,0.19824 -0.0543,0.41675 -0.0372,0.4249 -0.011,0.70051 0.11091,1.16864 0.17156,0.65845 0.17855,1.11153 0.0221,1.43131 -0.30751,0.62853 -1.06363,0.8346 -1.95922,0.53396 l -0.26479,-0.0889 -0.31026,0.13117 -0.31026,0.13119 0.27716,0.0104 c 0.16036,0.006 0.2926,-0.005 0.3138,-0.0263 0.0517,-0.0517 0.20674,-0.0425 0.531,0.0314 0.3608,0.0823 0.85632,0.0897 1.10683,0.0166 z m -3.80733,-3.23566 c -0.47962,-0.21787 -0.85822,-1.04822 -0.85822,-1.88221 0,-0.41457 0.0869,-0.75974 0.22377,-0.88828 0.0473,-0.0443 0.14905,-0.0883 0.22949,-0.0991 0.13437,-0.0181 0.15434,-0.009 0.28176,0.12478 0.33532,0.3525 0.66742,1.4528 0.66742,2.21129 0,0.36578 -0.0453,0.47254 -0.23394,0.55136 -0.14251,0.0596 -0.13966,0.0598 -0.31028,-0.0178 z m -0.0362,-0.32318 c -0.061,-0.0987 -0.11365,-0.3932 -0.086,-0.48119 0.0163,-0.0518 0.0388,-0.1365 0.0501,-0.18817 0.0282,-0.12906 0.112,-0.20407 0.22818,-0.20407 h 0.0976 l -0.11729,-0.45401 c -0.18734,-0.72513 -0.3439,-1.01856 -0.54348,-1.01856 -0.10357,0 -0.11405,0.0215 -0.19958,0.40878 -0.0472,0.21354 0.011,0.97027 0.0926,1.20483 0.1284,0.36901 0.37201,0.77056 0.4675,0.77056 0.0187,0 0.0234,-0.0172 0.0104,-0.0382 z m 3.77688,3.19805 c 0.20228,-0.0876 0.40483,-0.29147 0.50654,-0.5099 0.0916,-0.19676 0.11292,-0.55868 0.0491,-0.83504 -0.019,-0.0823 -0.043,-0.19291 -0.0532,-0.24594 -0.022,-0.11289 -0.1174,-0.1289 -0.20318,-0.0341 -0.12564,0.13883 -0.24627,0.47544 -0.26283,0.73342 -0.0183,0.2855 -0.0546,0.31645 -0.17697,0.15093 -0.0428,-0.0579 -0.094,-0.10518 -0.11388,-0.10518 -0.0199,0 -0.11956,0.0789 -0.22155,0.17537 -0.13367,0.12642 -0.20128,0.22447 -0.24222,0.35123 -0.0593,0.1837 -0.0388,0.32442 0.0527,0.36101 0.11626,0.0465 0.52013,0.0211 0.66552,-0.0418 z m -5.19494,-2.86255 c 0,-0.01 -0.0366,-0.077 -0.0814,-0.14901 -0.0448,-0.0719 -0.094,-0.16234 -0.10927,-0.20091 -0.0194,-0.049 -0.033,-0.0561 -0.0452,-0.0232 -0.01,0.0258 1.3e-4,0.0645 0.0216,0.0859 0.0214,0.0214 0.0389,0.0639 0.0389,0.0943 0,0.0675 0.0967,0.21116 0.14223,0.21116 0.0182,0 0.0331,-0.009 0.0331,-0.0182 z m 0.32632,-0.10932 c -0.054,-0.2853 -0.0489,-0.38374 0.024,-0.46103 0.0756,-0.0802 0.0756,-0.0802 -0.021,-0.33308 -0.11217,-0.29388 -0.25389,-0.54137 -0.32583,-0.56897 -0.0988,-0.0379 -0.12627,0.0542 -0.1237,0.41435 0.003,0.43383 0.0892,0.72787 0.27202,0.92844 0.0711,0.0781 0.18798,0.0917 0.17447,0.0203 z m -0.59366,-0.46412 c -0.0123,-0.0616 -0.0297,-0.10468 -0.0386,-0.0958 -0.009,0.009 -0.005,0.0658 0.008,0.12644 0.0316,0.14379 0.0599,0.11547 0.0306,-0.0306 z"
         id="path171" />
    </g>
  </g>
</svg>
