<?xml version="1.0" encoding="UTF-8" standalone="no"?>
<!-- Created with Inkscape (http://www.inkscape.org/) -->

<svg
   width="41.008999mm"
   height="41.008999mm"
   viewBox="0 0 41.008999 41.008999"
   version="1.1"
   id="svg1"
   inkscape:version="1.4.2 (f4327f4, 2025-05-13)"
   sodipodi:docname="160.svg"
   xmlns:inkscape="http://www.inkscape.org/namespaces/inkscape"
   xmlns:sodipodi="http://sodipodi.sourceforge.net/DTD/sodipodi-0.dtd"
   xmlns="http://www.w3.org/2000/svg"
   xmlns:svg="http://www.w3.org/2000/svg">
  <sodipodi:namedview
     id="namedview1"
     pagecolor="#ffffff"
     bordercolor="#000000"
     borderopacity="0.25"
     inkscape:showpageshadow="2"
     inkscape:pageopacity="0.0"
     inkscape:pagecheckerboard="0"
     inkscape:deskcolor="#d1d1d1"
     inkscape:document-units="mm"
     inkscape:zoom="1.5878906"
     inkscape:cx="108.3198"
     inkscape:cy="200.26568"
     inkscape:window-width="1050"
     inkscape:window-height="1081"
     inkscape:window-x="3737"
     inkscape:window-y="0"
     inkscape:window-maximized="0"
     inkscape:current-layer="layer1" />
  <defs
     id="defs1" />
  <g
     inkscape:label="Layer 1"
     inkscape:groupmode="layer"
     id="layer1"
     transform="translate(-0.7937635,-0.79375582)">
    <g
       id="g15763"
       transform="translate(114.22978,324.96482)">
      <path
         style="fill:#000000;stroke-width:0.1;stroke-dasharray:none"
         d="m -89.12975,-287.53583 c -1.81371,-0.0205 -1.88594,-0.0252 -2.41373,-0.15698 -0.6734,-0.16812 -1.32108,-0.60605 -1.61038,-1.08888 -0.35568,-0.59361 -0.32752,-1.25038 0.0774,-1.80546 0.18555,-0.25434 0.62669,-0.55335 0.98565,-0.66808 0.0849,-0.0272 0.15936,-0.0537 0.16549,-0.0591 0.006,-0.005 -0.0202,-0.0573 -0.0584,-0.1155 -0.11825,-0.17975 -0.17495,-0.36764 -0.1755,-0.58146 -5.1e-4,-0.20515 0.0262,-0.3064 0.19984,-0.75547 0.0528,-0.13682 0.0923,-0.25257 0.0877,-0.2572 -0.0135,-0.0134 -0.68993,0.0409 -0.90664,0.0727 -0.10805,0.0159 -0.35019,0.078 -0.53808,0.13799 -0.1879,0.0601 -0.42155,0.1243 -0.51923,0.14282 -0.38037,0.0721 -0.45347,0.1846 -0.50019,0.76992 -0.0173,0.21611 -0.0432,0.43713 -0.0577,0.49116 -0.0145,0.054 -0.0264,0.1286 -0.0265,0.16572 -8e-5,0.0378 0.14053,0.29103 0.31944,0.57536 0.38831,0.61706 0.43156,0.70132 0.4819,0.93888 0.15984,0.7541 -0.1593,1.37945 -0.89973,1.763 -0.67969,0.3521 -1.41184,0.35589 -2.40049,0.0125 -1.55384,-0.53977 -3.15939,-1.88868 -3.88371,-3.26291 -0.32749,-0.62133 -0.51716,-1.26947 -0.5425,-1.85384 -0.0179,-0.41245 0.0141,-0.62142 0.13657,-0.89148 0.24985,-0.55101 0.61311,-0.91215 1.15176,-1.14503 0.27962,-0.1209 0.5262,-0.17334 0.90738,-0.193 0.80513,-0.0415 1.53958,0.22369 2.12799,0.76839 l 0.13527,0.12522 0.12081,-0.16433 c 0.14103,-0.19182 0.23667,-0.28368 0.40217,-0.38622 0.17705,-0.10971 0.57413,-0.23369 0.86943,-0.27147 0.25301,-0.0324 0.25962,-0.0351 0.25938,-0.10672 -2.2e-4,-0.0675 -0.0378,-0.39976 -0.10973,-0.97165 -0.0155,-0.12349 -0.0363,-0.34818 -0.046,-0.49931 -0.0217,-0.3347 -0.0175,-0.33095 -0.44832,-0.40737 -0.50884,-0.0902 -0.89909,-0.27359 -1.14725,-0.5389 -0.30572,-0.32684 -0.41174,-0.89439 -0.23562,-1.26129 0.0356,-0.0741 0.19532,-0.26504 0.38004,-0.45422 l 0.31866,-0.32637 -0.2188,-0.0203 c -0.6799,-0.0629 -1.20256,-0.24588 -1.46042,-0.51121 l -0.12163,-0.12515 -0.17441,0.0182 c -0.35144,0.0368 -1.0752,-0.10685 -1.33073,-0.26409 -0.0815,-0.0502 -0.15635,-0.12145 -0.17521,-0.16701 -0.0476,-0.11492 -0.0102,-0.23007 0.0866,-0.26661 0.10168,-0.0384 0.10089,-0.0587 -0.004,-0.10213 -0.0463,-0.0192 -0.15995,-0.11589 -0.2526,-0.21493 -0.16336,-0.17464 -0.16845,-0.18471 -0.16845,-0.33342 v -0.15334 h 0.10048 0.10048 l -0.14309,-0.16054 c -0.19176,-0.21516 -0.3468,-0.4794 -0.44101,-0.75163 -0.0689,-0.19894 -0.0775,-0.26291 -0.0756,-0.56133 0.002,-0.28628 0.0137,-0.37257 0.0788,-0.57536 0.15124,-0.47039 0.35118,-0.72138 0.86878,-1.09056 0.17858,-0.12737 0.3357,-0.25302 0.34916,-0.27919 0.0135,-0.0261 0.0317,-0.14809 0.0405,-0.27091 0.0317,-0.44093 0.29836,-0.82499 0.79224,-1.14132 0.12965,-0.083 0.23617,-0.15938 0.23672,-0.16964 5.4e-4,-0.0103 -0.0607,-0.0639 -0.13607,-0.11926 -0.0754,-0.0553 -0.18273,-0.15117 -0.23856,-0.21298 -0.0868,-0.096 -0.10153,-0.13183 -0.10153,-0.24625 0,-0.11732 0.0286,-0.18239 0.23155,-0.52578 0.2627,-0.44462 0.39338,-0.59169 0.63343,-0.71286 0.25599,-0.12923 0.896,-0.35981 1.57228,-0.56648 0.23967,-0.0733 0.25091,-0.0902 0.27627,-0.41915 0.0143,-0.18547 0.0101,-0.21737 -0.0309,-0.2331 -0.0261,-0.01 -0.25202,-0.0374 -0.50201,-0.0607 -1.15093,-0.10774 -1.46559,-0.15196 -1.80169,-0.25315 -0.42396,-0.12766 -0.75898,-0.40685 -0.94044,-0.78372 -0.25601,-0.53169 -0.21709,-1.11295 0.10817,-1.61553 0.12694,-0.19614 0.63588,-0.70568 0.87459,-0.8756 0.60564,-0.43114 1.31507,-0.77316 2.07671,-1.00121 0.20839,-0.0624 0.45092,-0.13838 0.53897,-0.16885 0.28119,-0.0973 0.97594,-0.22688 1.5343,-0.2861 0.35173,-0.0373 1.29677,-0.0191 1.53018,0.0295 0.17347,0.0361 1.1069,0.42296 1.65903,0.68754 0.55388,0.26542 0.79939,0.43362 1.72192,1.17963 0.64514,0.5217 1.46526,1.37682 1.87959,1.9598 0.20544,0.28907 0.62996,1.01759 0.8084,1.3873 0.25261,0.52337 0.44486,1.16666 0.53063,1.77549 0.0617,0.43799 0.085,1.44926 0.0438,1.90014 -0.0453,0.49571 -0.0686,0.61213 -0.22794,1.13574 -0.0767,0.25188 -0.13924,0.48324 -0.13908,0.51411 10e-5,0.0309 0.0253,0.1362 0.056,0.23405 0.0727,0.23193 0.0704,0.35119 -0.014,0.69932 -0.10773,0.4446 -0.19848,0.59906 -0.61029,1.03864 -0.23643,0.25236 -0.28718,0.33597 -0.41267,0.67983 -0.10161,0.27841 -0.2892,0.54795 -0.49111,0.70564 l -0.15138,0.11823 0.0888,0.0444 c 0.062,0.0309 0.0914,0.0677 0.0976,0.12146 0.013,0.11345 -0.0962,0.28533 -0.22864,0.35978 l -0.11492,0.0646 0.29365,0.0625 c 0.58865,0.12529 1.21608,0.39087 1.45801,0.61719 0.24976,0.23361 0.39526,0.61695 0.39737,1.04693 0.002,0.39601 -0.12158,0.70014 -0.40949,1.00828 -0.21297,0.22793 -0.35135,0.32214 -0.62874,0.42807 l -0.22307,0.0852 0.0941,0.15634 c 0.10536,0.17498 0.13925,0.33674 0.11659,0.55639 -0.0206,0.19854 -0.0793,0.30314 -0.27595,0.4902 -0.12057,0.11474 -0.16507,0.17717 -0.16507,0.23167 0,0.21162 -0.10148,0.54882 -0.33188,1.1027 -0.57024,1.37082 -0.56669,1.36123 -0.5041,1.36123 0.0643,0 0.16125,-0.0682 0.36571,-0.25759 0.38529,-0.35675 1.08451,-0.61258 1.67372,-0.61237 0.66756,2.1e-4 1.06661,0.13384 1.37072,0.45894 0.42366,0.45291 0.56813,0.81826 0.56888,1.43879 6.4e-4,0.5448 -0.0945,0.95912 -0.32625,1.42107 -0.19772,0.39407 -0.37034,0.62483 -0.86599,1.15772 -0.17231,0.18524 -0.34387,0.37264 -0.38126,0.41647 -0.0963,0.1129 -0.4842,0.44237 -0.69795,0.59286 l -0.18089,0.12737 h 0.1743 c 0.14222,0 0.20207,-0.0157 0.32505,-0.0851 l 0.15074,-0.0851 0.38912,0.0194 c 0.33909,0.017 0.38477,0.0142 0.35534,-0.0215 -0.028,-0.0338 -0.013,-0.0523 0.0866,-0.10664 0.1063,-0.0581 0.14722,-0.0642 0.35136,-0.0524 0.20144,0.0117 0.24036,0.0226 0.30361,0.0859 l 0.0726,0.0726 -0.0582,0.16353 c -0.032,0.09 -0.0654,0.19667 -0.074,0.23716 -0.0106,0.0496 -0.0457,0.0856 -0.10736,0.1101 -0.12027,0.0479 -0.11927,0.0466 -0.0774,0.0971 0.0304,0.0365 0.0255,0.055 -0.0299,0.11392 -0.0653,0.0695 -0.0708,0.0703 -0.47423,0.0633 -0.45731,-0.008 -0.53057,0.0105 -0.72082,0.18071 -0.0596,0.0533 -0.13993,0.11412 -0.17852,0.13514 -0.0891,0.0485 -0.40616,0.0516 -2.6523,0.0262 z m 0.49115,-0.62234 c 0.35124,-0.1248 0.95575,-0.43269 1.17881,-0.6004 0.11577,-0.087 0.39255,-0.28539 0.61506,-0.44078 0.68776,-0.48027 1.02037,-0.78621 1.2977,-1.19364 0.24413,-0.35865 0.30556,-0.50759 0.43341,-1.05076 0.0824,-0.35024 0.10051,-0.48031 0.0989,-0.71127 -0.002,-0.30891 -0.0662,-0.57762 -0.18785,-0.78833 -0.10268,-0.17787 -0.44519,-0.47506 -0.68403,-0.59353 l -0.20904,-0.10368 -0.45053,6.3e-4 c -0.35454,5.3e-4 -0.48629,0.0116 -0.61843,0.0517 -0.25211,0.0769 -0.49288,0.19537 -0.61283,0.30168 l -0.10714,0.095 0.0597,0.13407 c 0.0985,0.22141 0.043,0.29013 -0.30036,0.37202 -0.19978,0.0476 -0.20486,0.0474 -0.39698,-0.0155 -0.2162,-0.0709 -0.28475,-0.0618 -0.28475,0.0377 0,0.0894 -0.10564,0.24148 -0.22234,0.32012 -0.0717,0.0483 -0.13458,0.0638 -0.25895,0.0638 h -0.16424 v -0.17619 c 0,-0.17307 0.006,-0.18809 0.36828,-0.84901 0.43096,-0.78733 0.43944,-0.80559 0.61287,-1.31836 0.0731,-0.21611 0.16613,-0.48134 0.20677,-0.5894 0.0877,-0.23306 0.0995,-0.52541 0.0317,-0.78698 -0.0566,-0.21881 -0.13012,-0.35752 -0.28945,-0.54618 -0.18704,-0.22145 -0.59735,-0.64553 -0.62458,-0.64553 -0.0127,0 -0.11334,0.17783 -0.22363,0.39519 -0.24013,0.47325 -0.3884,0.65891 -0.74978,0.93882 -0.41979,0.32514 -1.491,0.82582 -1.77021,0.82737 -0.0253,1.1e-4 -0.17227,0.0345 -0.32664,0.0763 -0.27255,0.0738 -0.30179,0.0759 -1.01039,0.0741 -0.75509,-0.002 -0.9835,-0.0284 -1.19656,-0.13859 -0.0471,-0.0244 -0.0905,-0.0394 -0.0965,-0.0335 -0.006,0.006 0.0361,0.0921 0.0935,0.19152 0.11766,0.20383 0.54858,0.65334 0.80657,0.84139 0.0926,0.0675 0.19365,0.14691 0.22452,0.17646 0.0692,0.0662 0.26201,0.15779 0.334,0.15862 0.0293,3.2e-4 0.12407,0.0353 0.2105,0.0778 0.15279,0.075 0.1726,0.0774 0.71043,0.0863 l 0.55325,0.009 0.0195,-0.0776 c 0.0158,-0.0629 0.006,-0.0858 -0.0474,-0.12137 -0.1167,-0.0763 -0.16257,-0.13594 -0.19375,-0.25174 -0.0559,-0.2074 0.0213,-0.33256 0.22141,-0.35941 0.14094,-0.0189 0.18222,0.0127 0.23042,0.17586 0.0426,0.14427 0.0817,0.14755 0.1255,0.0105 0.0314,-0.0981 0.13296,-0.16791 0.29966,-0.20602 0.0603,-0.0137 0.0936,-0.002 0.14804,0.0525 0.0834,0.0834 0.0745,0.15832 -0.0418,0.35211 -0.22079,0.3679 -0.28462,0.48017 -0.375,0.65956 -0.0545,0.10806 -0.14308,0.32909 -0.19699,0.49116 -0.0538,0.16209 -0.11811,0.34167 -0.14269,0.39905 -0.0712,0.16618 -0.0586,0.43199 0.0286,0.60705 0.0905,0.18171 0.23234,0.26952 0.66001,0.40871 0.39406,0.12824 0.5613,0.14442 0.9086,0.088 0.15437,-0.0251 0.43934,-0.0533 0.63327,-0.0626 l 0.3526,-0.0169 0.0636,0.081 c 0.0645,0.082 0.0726,0.23413 0.0188,0.35523 -0.0194,0.0435 -0.004,0.0491 0.13555,0.0491 0.16619,0 0.26964,0.0609 0.26964,0.15871 0,0.0665 -0.20452,0.25192 -0.2975,0.26969 -0.0432,0.008 -0.16698,-0.008 -0.27498,-0.0366 -0.108,-0.0283 -0.20669,-0.0451 -0.21928,-0.0374 -0.0489,0.0302 -0.32578,-0.0769 -0.45101,-0.17455 -0.17105,-0.13327 -0.3448,-0.15957 -0.45928,-0.0695 -0.0551,0.0433 -0.0986,0.0559 -0.14913,0.0433 -0.13107,-0.0329 -0.79969,-0.12532 -0.90777,-0.12546 -0.11218,-1e-4 -0.27225,-0.0667 -0.27225,-0.11311 0,-0.015 -0.0662,-0.0273 -0.1471,-0.0273 -0.12345,0 -0.19827,0.026 -0.46547,0.16138 -0.38076,0.19301 -0.48432,0.2858 -0.56194,0.50349 -0.032,0.0897 -0.0835,0.23256 -0.1145,0.31746 -0.0649,0.17789 -0.0725,0.41605 -0.0181,0.56859 0.0424,0.11891 0.20895,0.34463 0.43498,0.58964 0.14061,0.15241 0.41737,0.3293 0.51522,0.3293 0.0207,0 0.0739,0.0378 0.11824,0.0841 0.0867,0.0905 0.28829,0.17707 0.49088,0.21082 0.0693,0.0116 0.17661,0.0404 0.23856,0.064 0.18254,0.0698 0.40147,0.0832 1.30547,0.0795 0.85168,-0.003 0.8571,-0.004 1.06652,-0.0782 z m -6.66163,-0.0787 c 0.29273,-0.0811 0.6472,-0.26163 0.8282,-0.42178 0.20435,-0.18079 0.33095,-0.46213 0.35286,-0.7842 0.0127,-0.18557 0.004,-0.24469 -0.0723,-0.47076 -0.11033,-0.3289 -0.2443,-0.59624 -0.47219,-0.94234 -0.0995,-0.15108 -0.19989,-0.32789 -0.22312,-0.39294 -0.0962,-0.2692 -0.0749,-0.72744 0.0496,-1.06659 0.0571,-0.15585 0.0577,-0.16615 0.0115,-0.25259 -0.0737,-0.13765 -0.0283,-0.21654 0.19938,-0.34618 0.10505,-0.0599 0.25192,-0.12857 0.32639,-0.1527 l 0.13539,-0.0438 -0.0788,-0.0363 c -0.0433,-0.02 -0.13422,-0.0532 -0.202,-0.0738 -0.14299,-0.0435 -0.55164,-0.31253 -0.72248,-0.47563 -0.14284,-0.13637 -0.1869,-0.29233 -0.10741,-0.38015 0.0452,-0.05 0.0467,-0.0733 0.0153,-0.24878 -0.0397,-0.22239 -0.0141,-0.36365 0.0854,-0.46953 0.0341,-0.0364 0.0555,-0.0726 0.0474,-0.0807 -0.0254,-0.0254 -0.75744,0.15139 -0.83397,0.20144 -0.25403,0.16616 -0.54326,0.5231 -0.51444,0.63489 0.009,0.0342 0.14961,0.23754 0.31287,0.45185 0.43075,0.56545 0.44273,0.58327 0.47662,0.70912 0.017,0.0631 0.0557,0.14628 0.0859,0.18477 0.0696,0.0885 0.38586,0.64343 0.45412,0.79688 0.0426,0.096 0.0461,0.132 0.0198,0.21051 -0.0174,0.0521 -0.0425,0.10664 -0.0558,0.12119 -0.0281,0.0309 -0.1793,-0.0725 -0.26235,-0.17952 -0.0305,-0.0392 -0.17244,-0.19147 -0.31539,-0.33811 -0.19352,-0.19853 -0.28943,-0.324 -0.37549,-0.49117 -0.19609,-0.38096 -0.66518,-1.03775 -0.98221,-1.37526 -0.087,-0.0926 -0.20532,-0.23155 -0.26293,-0.30873 -0.19127,-0.25624 -0.49393,-0.45871 -0.84469,-0.56505 -0.22938,-0.0695 -0.75913,-0.0683 -0.93876,0.002 -0.0694,0.0272 -0.2176,0.0598 -0.3292,0.0724 -0.21773,0.0245 -0.4617,0.12095 -0.60648,0.23982 -0.17598,0.1445 -0.45475,0.43109 -0.50812,0.52239 l -0.0545,0.0932 0.0958,-0.0952 c 0.11672,-0.11609 0.20568,-0.15475 0.60264,-0.26196 0.26095,-0.0704 0.34348,-0.0812 0.53326,-0.0693 0.26391,0.0166 0.4178,0.0583 0.49299,0.13353 0.0299,0.0299 0.0717,0.0543 0.093,0.0543 0.0881,0 0.264,0.0967 0.38232,0.2101 0.0694,0.0666 0.26523,0.23722 0.43504,0.37923 0.46437,0.38838 0.93207,0.83323 1.06036,1.00859 0.0628,0.0859 0.1987,0.24465 0.30185,0.35272 0.34907,0.36568 0.47615,0.51962 0.47615,0.57676 0,0.0314 0.0442,0.12258 0.0982,0.20281 0.11344,0.16845 0.11733,0.1908 0.0447,0.25658 -0.10785,0.0976 -0.18829,0.0226 -0.82463,-0.76952 -0.18061,-0.22481 -0.632,-0.71747 -1.00843,-1.10063 -0.61896,-0.63004 -0.69868,-0.70143 -0.86925,-0.77838 -0.10329,-0.0466 -0.19937,-0.10539 -0.21351,-0.13067 -0.0219,-0.0391 -0.0941,-0.0471 -0.48581,-0.0537 l -0.46009,-0.007 -0.14034,0.0948 c -0.17578,0.11874 -0.47399,0.24108 -0.5327,0.21855 -0.0244,-0.009 -0.0612,-0.0492 -0.0818,-0.0884 -0.036,-0.0685 -0.0394,-0.0625 -0.0893,0.15067 -0.0783,0.33492 -0.071,0.73208 0.0215,1.16304 0.0416,0.19334 0.1026,0.41437 0.13576,0.49117 0.0332,0.0768 0.0962,0.23763 0.14018,0.35743 0.0858,0.2338 0.17418,0.39078 0.49575,0.88029 0.51677,0.78664 0.6997,0.95492 1.70689,1.57015 0.62669,0.38281 0.74197,0.442 1.10863,0.56924 0.17752,0.0616 0.44651,0.16333 0.59776,0.22608 0.15125,0.0627 0.33439,0.12548 0.40697,0.13942 0.24248,0.0466 0.62313,0.0359 0.83782,-0.0237 z m -2.75939,-1.27544 c -0.0404,-0.0533 -0.0874,-0.0716 -0.21984,-0.086 -0.0926,-0.0101 -0.19683,-0.0367 -0.23155,-0.0593 -0.0757,-0.049 -0.0825,-0.1539 -0.014,-0.21524 0.0465,-0.0416 1.12587,-0.25914 1.25598,-0.25309 0.0473,0.002 0.75029,0.13155 1.04315,0.19195 0.0489,0.0101 0.1243,0.0553 0.16759,0.1005 l 0.0787,0.0822 -0.0822,0.0655 c -0.0715,0.0571 -0.1222,0.0674 -0.39214,0.0801 -0.25613,0.012 -0.3368,0.0272 -0.46435,0.0876 -0.14691,0.0694 -0.17695,0.073 -0.62214,0.0733 -0.46171,3.2e-4 -0.46845,-6.3e-4 -0.51923,-0.0675 z m 5.42276,-5.74378 c 0.8495,-0.11711 1.10941,-0.19573 1.68277,-0.50899 0.71957,-0.39314 1.01133,-0.69271 1.38705,-1.42415 l 0.14513,-0.28255 -0.0538,-0.12179 c -0.0296,-0.067 -0.0936,-0.15008 -0.14216,-0.18465 -0.097,-0.0691 -0.41384,-0.142 -0.86579,-0.19926 l -0.28744,-0.0364 -0.16656,0.15887 c -0.17682,0.16867 -0.23177,0.18679 -0.3308,0.10913 -0.0631,-0.0494 -0.25945,-0.41078 -0.2604,-0.47918 -2.8e-4,-0.0207 0.0269,-0.0763 0.0604,-0.12338 l 0.061,-0.0856 0.39512,0.0178 c 0.56455,0.0254 1.36272,0.13387 2.09315,0.28434 0.71774,0.14786 0.78077,0.1782 0.74677,0.35944 -0.0227,0.12121 -0.13346,0.24473 -0.21938,0.24473 -0.0356,0 -0.17451,-0.0302 -0.30874,-0.0671 l -0.24405,-0.0671 0.0421,0.0642 c 0.0491,0.075 0.41659,0.40671 0.45104,0.40718 0.0128,2.1e-4 0.28235,-0.12909 0.5988,-0.28728 0.51148,-0.25566 0.59434,-0.3069 0.74625,-0.46137 0.0962,-0.0979 0.21881,-0.26355 0.28066,-0.37931 0.10433,-0.19529 0.10979,-0.21811 0.10979,-0.45812 0,-0.21552 -0.0111,-0.27623 -0.0755,-0.41359 -0.13422,-0.28641 -0.30659,-0.42241 -0.69637,-0.54943 -0.25165,-0.082 -0.96679,-0.25634 -1.22791,-0.29931 -0.10686,-0.0176 -0.11929,-0.0138 -0.11929,0.036 0,0.0951 -0.23558,0.21627 -0.64553,0.33196 -0.34361,0.097 -0.40897,0.10672 -0.70167,0.10466 -0.21242,-9.2e-4 -0.45432,-0.0261 -0.70756,-0.0719 -0.21163,-0.0382 -0.37923,-0.0607 -0.37246,-0.0497 0.006,0.0109 0.0505,0.0276 0.0971,0.0369 0.11858,0.0237 0.10561,0.0614 -0.0345,0.10033 -0.17762,0.0493 -0.24415,0.0543 -0.76481,0.0569 -0.30831,9.2e-4 -0.46242,0.0117 -0.43556,0.0286 0.0357,0.0227 0.0334,0.0373 -0.0167,0.10481 -0.15173,0.20465 -0.61124,0.20194 -1.32359,-0.007 -0.0594,-0.0175 -0.0617,-0.0137 -0.0351,0.0567 0.0413,0.10855 -0.004,0.16997 -0.154,0.21216 -0.19373,0.0543 -0.31095,0.008 -0.50074,-0.19683 -0.0856,-0.0924 -0.16628,-0.1681 -0.17931,-0.1681 -0.013,0 -0.0702,0.0505 -0.12691,0.11227 -0.1129,0.12278 -0.19248,0.14051 -0.29827,0.0664 -0.0619,-0.0434 -0.0646,-0.043 -0.0494,0.007 0.0747,0.24603 0.0867,0.41554 0.15792,2.2561 0.0431,1.11339 0.13264,1.45292 0.42157,1.59867 0.43104,0.21745 1.08276,0.27599 1.86765,0.16779 z m 4.95003,-1.12979 c 0.0684,-0.14136 0.0764,-0.34342 0.0189,-0.48095 -0.0614,-0.14713 -0.12075,-0.16445 -0.32925,-0.0963 -0.0981,0.0321 -0.18274,0.0626 -0.18813,0.0677 -0.0197,0.0189 0.375,0.63063 0.40692,0.63063 0.0181,0 0.0592,-0.0545 0.0915,-0.12113 z m -7.71926,-1.97685 c -0.003,-0.41293 -0.0104,-0.81442 -0.0172,-0.89219 l -0.0121,-0.14141 -0.16475,0.0272 c -0.18898,0.0313 -0.30365,-0.003 -0.3287,-0.0991 -0.0132,-0.0507 -0.0307,-0.0566 -0.13052,-0.0437 -0.10083,0.013 -0.14438,0.0457 -0.3495,0.26214 -0.29184,0.30795 -0.37852,0.46767 -0.3786,0.69755 -6e-5,0.21497 0.0661,0.34622 0.27355,0.5424 0.23719,0.22432 0.64643,0.38971 0.97866,0.3955 l 0.1341,0.003 -0.005,-0.75078 z m 1.88391,-1.40508 c 0,-0.028 0.0411,-0.0816 0.0912,-0.11928 l 0.0913,-0.0684 0.6476,0.007 c 0.35619,0.004 0.70619,0.0179 0.77779,0.0313 0.11704,0.0218 0.12765,0.0195 0.10507,-0.0227 -0.0198,-0.037 -0.005,-0.0581 0.0722,-0.0993 0.10077,-0.0543 0.19157,-0.0515 1.02159,0.0304 0.0963,0.01 0.14065,0.005 0.1179,-0.0103 -0.0276,-0.0193 -0.01,-0.0497 0.0735,-0.12481 0.0972,-0.0878 0.13788,-0.10328 0.35106,-0.13355 l 0.24113,-0.0342 -0.0429,-0.0655 c -0.0393,-0.06 -0.0383,-0.07 0.0109,-0.11929 0.0296,-0.0296 0.20414,-0.11552 0.38786,-0.19093 0.95004,-0.38997 1.27808,-0.62201 1.49483,-1.05737 0.27161,-0.54552 0.25593,-1.10895 -0.047,-1.68885 -0.14341,-0.27457 -0.35893,-0.49348 -0.7192,-0.73054 -0.51429,-0.3384 -0.66135,-0.40305 -1.05352,-0.46311 -0.36408,-0.0558 -0.44971,-0.0971 -0.44971,-0.21734 0,-0.0747 0.0842,-0.16647 0.21929,-0.23865 0.1397,-0.0747 0.1234,-0.17772 -0.0741,-0.46888 -0.09,-0.13261 -0.25593,-0.39009 -0.36879,-0.57219 -0.12091,-0.19509 -0.22073,-0.32767 -0.24302,-0.32277 -0.0208,0.005 -0.1106,0.11114 -0.19957,0.2368 -0.089,0.12567 -0.30841,0.4351 -0.48767,0.68763 -0.34657,0.48823 -0.5684,0.85492 -0.54252,0.89679 0.008,0.014 0.0695,0.0255 0.13528,0.0255 0.14946,0 0.38955,0.0699 0.5367,0.15618 0.1862,0.10921 0.39604,0.3459 0.49605,0.55952 0.12457,0.26609 0.1278,0.52399 0.0102,0.81394 -0.13291,0.32768 -0.31257,0.55285 -0.66872,0.83815 -0.14453,0.11576 -0.17797,0.13015 -0.30271,0.13015 -0.12994,0 -0.1381,-0.004 -0.11117,-0.0543 0.0535,-0.0998 0.0301,-0.0921 -0.11432,0.0376 -0.12375,0.11128 -0.16001,0.12891 -0.26498,0.12891 -0.0669,0 -0.12747,-0.01 -0.13466,-0.0212 -0.007,-0.0117 0.004,-0.0691 0.0236,-0.1277 0.0201,-0.0586 0.0284,-0.10272 0.0184,-0.098 -0.01,0.005 -0.0837,0.043 -0.1639,0.0852 -0.0802,0.0422 -0.24321,0.11539 -0.3624,0.16274 -0.18779,0.0746 -0.22736,0.0817 -0.29637,0.0531 -0.0591,-0.0245 -0.0795,-0.052 -0.0792,-0.10676 5.7e-4,-0.0987 0.018,-0.11904 0.182,-0.21301 0.0772,-0.0442 0.26038,-0.16573 0.40711,-0.27004 0.14673,-0.10431 0.30027,-0.19805 0.34121,-0.20832 0.0889,-0.0223 0.18707,0.0243 0.21597,0.1024 0.0182,0.0491 0.0422,0.0287 0.18188,-0.15365 0.16919,-0.22089 0.33685,-0.37037 0.38326,-0.34168 0.0151,0.009 0.0644,0.0706 0.10945,0.13607 0.0639,0.093 0.0759,0.1311 0.0547,0.17399 -0.0261,0.0527 -0.0254,0.0527 0.0197,-9.2e-4 0.0259,-0.0309 0.0835,-0.1319 0.12811,-0.22453 0.20606,-0.42771 0.0218,-0.85616 -0.47349,-1.10098 l -0.2142,-0.10588 -0.44328,-0.01 c -0.74815,-0.0168 -0.96808,0.0171 -2.05763,0.31668 -0.98451,0.27075 -0.99539,0.27273 -1.58575,0.289 -1.01283,0.0279 -1.07271,0.025 -1.50157,-0.0729 -0.51013,-0.11645 -0.75222,-0.23498 -1.40023,-0.6855 -0.20862,-0.14505 -0.34016,-0.078 -0.4251,0.21671 -0.0639,0.22183 -0.0414,0.42294 0.0741,0.65933 0.0701,0.14353 0.15778,0.25053 0.39294,0.47947 0.28018,0.27277 0.38495,0.41716 0.34709,0.47839 -0.008,0.0136 -0.0587,0.0328 -0.11187,0.0427 -0.0759,0.0142 -0.12452,0.002 -0.22599,-0.0576 l -0.12932,-0.0757 -0.0625,0.0587 c -0.0784,0.0736 -0.17224,0.0744 -0.33982,0.003 -0.26415,-0.11323 -0.54126,-0.37485 -0.50809,-0.47969 0.006,-0.0217 0.0203,-0.0746 0.0297,-0.11774 0.016,-0.0726 0.0245,-0.0769 0.11689,-0.0596 l 0.0997,0.0187 -0.07,-0.13806 c -0.17233,-0.34009 -0.20066,-0.67185 -0.0805,-0.94338 0.0744,-0.16809 0.28251,-0.39028 0.4264,-0.45516 0.11823,-0.0533 0.13915,-0.0975 0.0725,-0.15281 -0.0312,-0.026 -0.0576,-0.024 -0.11928,0.008 -0.16879,0.089 -0.42131,0.32269 -0.5359,0.49607 -0.17805,0.26941 -0.24352,0.50706 -0.24326,0.88309 2.4e-4,0.35104 0.0396,0.54423 0.16028,0.78587 0.11526,0.23085 0.23691,0.37698 0.56656,0.68053 0.35052,0.32277 0.56758,0.48599 0.79641,0.59885 0.0978,0.0482 0.22202,0.12653 0.27612,0.17403 0.0826,0.0725 0.0966,0.10132 0.0874,0.17995 -0.0102,0.0871 -0.004,0.0955 0.0916,0.12119 0.0564,0.0151 0.16305,0.036 0.23698,0.046 0.21954,0.0301 0.43738,0.27467 0.35794,0.40187 -0.0269,0.043 -0.0112,0.0543 0.13021,0.0936 0.0884,0.0246 0.45052,0.10287 0.80467,0.17398 0.35415,0.0711 0.74495,0.1555 0.86843,0.18753 0.13066,0.0338 0.3055,0.0572 0.4182,0.0558 0.12276,-9.1e-4 0.21391,0.0118 0.24898,0.0364 0.0393,0.0275 0.0752,0.0312 0.12392,0.0126 0.12528,-0.0476 0.22858,-0.0314 0.2778,0.0438 l 0.0458,0.0698 0.071,-0.0558 c 0.10035,-0.079 0.15984,-0.07 0.28498,0.0431 l 0.1095,0.0989 0.0849,-0.0849 c 0.12847,-0.12846 0.25766,-0.11814 0.48523,0.0388 0.20576,0.14188 0.22144,0.14741 0.22144,0.078 z m -2.32953,-2.12058 c -0.1971,-0.043 -0.43359,-0.17233 -0.53085,-0.29034 -0.0644,-0.078 -0.15378,-0.11985 -0.58905,-0.27525 -0.28224,-0.10076 -0.54438,-0.20501 -0.58253,-0.23166 -0.0792,-0.0553 -0.19171,-0.28457 -0.15683,-0.31946 0.0127,-0.0127 0.0804,-0.031 0.15034,-0.0405 0.10011,-0.0137 0.15334,-0.004 0.2502,0.0453 0.91207,0.46531 1.92068,0.58521 2.57299,0.30588 0.0859,-0.0368 0.13378,-0.0816 0.17656,-0.16546 0.0812,-0.15909 0.16023,-0.19043 0.32328,-0.12815 0.17123,0.0654 0.28347,0.16415 0.30417,0.26762 0.0349,0.17454 -0.088,0.28589 -0.24819,0.22498 -0.13241,-0.0504 -0.27546,-0.0279 -0.58919,0.0924 l -0.3084,0.11826 -0.0193,0.13483 c -0.0215,0.15086 -0.0539,0.20108 -0.16738,0.25974 -0.0934,0.0482 -0.36898,0.0492 -0.58582,0.002 z m 8.66868,-1.24944 c 0.0609,-0.11755 0.13087,-0.28234 0.15553,-0.36619 0.0645,-0.21933 0.0587,-0.58016 -0.0128,-0.7925 -0.14668,-0.43542 -0.57204,-0.88307 -0.96468,-1.01526 -0.19476,-0.0656 -0.62058,-0.0619 -0.89246,0.007 -0.25996,0.0665 -0.69533,0.2835 -0.69533,0.34659 0,0.008 0.0833,0.0434 0.18517,0.0773 0.10184,0.0338 0.44598,0.1928 0.76475,0.35313 0.34639,0.17421 0.61349,0.29167 0.66385,0.29194 0.16189,6.3e-4 0.41121,0.0779 0.54192,0.16734 0.1661,0.11376 0.23219,0.20187 0.24977,0.33298 0.0238,0.17807 -0.16942,0.31412 -0.32672,0.22994 -0.0448,-0.024 -0.0427,-0.007 0.0184,0.14398 0.038,0.0941 0.0827,0.25317 0.0993,0.35349 0.0351,0.21206 0.0363,0.21132 0.21329,-0.13033 z m -8.43012,-0.89747 c 0.10806,-0.0283 0.41118,-0.10954 0.67361,-0.18075 0.55388,-0.15028 1.09596,-0.25215 1.66996,-0.31377 0.59567,-0.0639 0.77554,-0.0968 0.82216,-0.15002 0.0226,-0.0259 0.13917,-0.22381 0.25898,-0.43993 0.34711,-0.62611 0.65404,-1.0703 0.97355,-1.40888 0.10485,-0.11111 0.19063,-0.20885 0.19063,-0.21722 0,-0.0151 -0.0941,-0.12235 -0.50295,-0.57313 -0.24793,-0.27337 -0.28057,-0.32451 -0.28191,-0.44169 -5.8e-4,-0.0502 -0.0247,-0.1083 -0.0571,-0.13767 -0.0553,-0.0501 -0.0561,-0.0491 -0.0568,0.0728 -6.1e-4,0.12286 -0.0788,0.33859 -0.13539,0.37356 -0.0162,0.0101 -0.0445,-0.01 -0.0626,-0.0436 l -0.0331,-0.0618 -0.0394,0.0751 c -0.0216,0.0414 -0.0503,0.0751 -0.0636,0.0751 -0.0534,0 -0.14934,-0.13726 -0.2361,-0.3376 -0.10799,-0.24939 -0.21454,-0.40841 -0.40852,-0.60965 -0.1341,-0.13912 -0.14986,-0.14735 -0.28218,-0.14735 -0.0869,0 -0.22852,0.0326 -0.37252,0.0857 -0.19308,0.0713 -0.25719,0.0827 -0.37926,0.0682 -0.0808,-0.01 -0.15485,-0.0304 -0.16453,-0.046 -0.01,-0.0157 0.0248,-0.0733 0.0768,-0.128 l 0.0944,-0.0995 -0.30609,0.0177 c -0.16834,0.01 -0.36411,0.0177 -0.43502,0.0177 l -0.12896,-10e-6 0.01,0.13804 c 0.008,0.11951 6.3e-4,0.14373 -0.0561,0.18059 -0.0361,0.0235 -0.1478,0.0515 -0.24814,0.0626 -0.10033,0.0111 -0.23593,0.0429 -0.30133,0.0708 -0.1522,0.0649 -0.42398,0.24551 -0.61429,0.40809 -0.10571,0.0904 -0.1817,0.13158 -0.26214,0.14237 l -0.1133,0.0152 v -0.11794 c 0,-0.0973 0.0203,-0.14199 0.11609,-0.25561 0.0638,-0.0758 0.14058,-0.14545 0.17051,-0.15495 0.0299,-0.009 0.0481,-0.0236 0.0403,-0.0314 -0.0209,-0.0209 -0.3485,0.17683 -0.51302,0.3098 -0.0792,0.064 -0.17777,0.16933 -0.21914,0.23411 -0.0414,0.0648 -0.17643,0.20903 -0.30016,0.32058 l -0.22497,0.2028 0.16344,0.0505 c 0.0958,0.0295 0.21984,0.0972 0.29981,0.16356 0.075,0.0622 0.14064,0.11313 0.14585,0.11313 0.005,0 0.0553,-0.0691 0.1114,-0.15355 0.13474,-0.203 0.36599,-0.41089 0.627,-0.56369 0.40569,-0.23748 0.74021,-0.27237 1.00904,-0.10526 l 0.14052,0.0873 0.13581,-0.0962 c 0.52631,-0.37297 0.65694,-0.43519 0.92167,-0.43899 0.25356,-0.004 0.44842,0.0731 0.61765,0.24321 0.16133,0.16218 0.24433,0.32074 0.29425,0.56214 0.0417,0.20205 0.0218,0.40732 -0.0709,0.7269 -0.20163,0.69548 -0.55598,1.15318 -1.09426,1.41342 -0.48818,0.23601 -0.7525,0.22446 -1.11427,-0.0486 -0.20088,-0.15165 -0.21169,-0.15479 -0.42918,-0.12443 -0.22856,0.0319 -0.29944,-0.0154 -0.67894,-0.4535 -0.42689,-0.49277 -0.76989,-0.82159 -0.94892,-0.90969 -0.12292,-0.0605 -0.17755,-0.0689 -0.45013,-0.0689 -0.30435,0 -0.31446,0.002 -0.53327,0.11016 -0.56523,0.27918 -0.85385,0.84045 -0.6794,1.32124 0.0595,0.16415 0.27866,0.46221 0.46817,0.63687 0.22348,0.20597 0.43202,0.33743 0.69712,0.43944 0.1838,0.0707 0.20983,0.073 0.90999,0.0798 0.55581,0.005 0.74211,0.0162 0.81393,0.0476 0.12088,0.0528 0.11639,0.0528 0.34574,-0.007 z m 8.73963,-1.25212 c 0.0172,-0.0681 0.0312,-0.22244 0.0312,-0.34295 -2e-5,-0.12053 0.0212,-0.412 0.047,-0.64773 0.0396,-0.36092 0.0417,-0.46953 0.0132,-0.68763 -0.24683,-1.88917 -0.2104,-1.71406 -0.54718,-2.63066 -0.24856,-0.67654 -0.48861,-1.08526 -1.12492,-1.91537 -0.18629,-0.24303 -0.40443,-0.53927 -0.48475,-0.65831 -0.11614,-0.17212 -0.18701,-0.24332 -0.3462,-0.3478 -0.11008,-0.0723 -0.24013,-0.16997 -0.28899,-0.21713 -0.1668,-0.16101 -1.41777,-1.08615 -1.62363,-1.20074 -0.20572,-0.11451 -0.72474,-0.35439 -1.2359,-0.5712 -0.33065,-0.14025 -0.55845,-0.17235 -1.25686,-0.17707 -0.41335,-0.003 -0.56899,0.009 -0.98233,0.0753 -0.27015,0.0432 -0.64904,0.12632 -0.84201,0.18464 -0.94776,0.28646 -1.13009,0.34909 -1.40333,0.48206 -0.16208,0.0789 -0.39376,0.18525 -0.51484,0.2364 -0.12109,0.0512 -0.29159,0.14691 -0.37891,0.21284 -0.5635,0.42544 -0.95858,0.80822 -1.0669,1.03362 -0.0695,0.14467 -0.0747,0.18369 -0.083,0.62087 l -0.009,0.46648 0.13753,0.16501 c 0.0757,0.0908 0.2132,0.23493 0.30566,0.32039 0.15234,0.14081 0.19818,0.16493 0.48875,0.2573 0.25279,0.0803 0.38365,0.10528 0.61846,0.11777 0.23651,0.0126 0.329,0.0304 0.44907,0.0862 0.18389,0.0856 0.28873,0.0882 0.54425,0.0136 0.11086,-0.0324 0.39194,-0.0744 0.64545,-0.0965 0.27238,-0.0238 0.52083,-0.0619 0.6315,-0.0969 0.10034,-0.0317 0.27084,-0.0656 0.37889,-0.0752 0.10806,-0.01 0.27225,-0.0464 0.36487,-0.0818 0.25919,-0.0988 0.28381,-0.10268 0.38604,-0.06 0.11152,0.0466 0.18933,0.18655 0.18933,0.34055 0,0.21098 -0.0951,0.27812 -0.43504,0.30732 -0.12349,0.0106 -0.31294,0.0384 -0.421,0.0619 -0.10806,0.0235 -0.30694,0.0587 -0.44197,0.0783 -0.14693,0.0214 -0.26634,0.0546 -0.2974,0.0827 -0.0515,0.0466 -0.11666,0.21981 -0.11666,0.31021 0,0.0555 0.0587,0.0488 0.47713,-0.0543 0.17993,-0.0443 0.39443,-0.0714 0.65957,-0.0834 0.24616,-0.011 0.47156,-0.0382 0.60344,-0.0726 0.19422,-0.0507 0.3108,-0.055 1.50839,-0.0555 0.93527,-4.2e-4 1.31559,0.008 1.36122,0.0322 0.11235,0.0582 0.16009,0.11536 0.17863,0.21426 0.0166,0.0883 0.006,0.10891 -0.11767,0.2347 -0.15229,0.15462 -0.25064,0.17617 -0.41299,0.0905 -0.0795,-0.042 -0.23138,-0.0484 -1.32475,-0.0564 -0.69724,-0.006 -1.37548,0.003 -1.5577,0.0197 -0.6577,0.0585 -1.18849,0.1463 -1.57174,0.2599 -0.20839,0.0618 -0.5115,0.14799 -0.6736,0.1916 -0.16208,0.0437 -0.37408,0.11064 -0.47112,0.14897 -0.097,0.0383 -0.27385,0.0912 -0.39293,0.1173 -0.25247,0.0555 -0.49442,0.16977 -0.59911,0.2829 -0.0406,0.0439 -0.1537,0.21223 -0.25127,0.37404 -0.15034,0.24929 -0.17895,0.31783 -0.1875,0.44906 -0.009,0.13756 -9.2e-4,0.16507 0.0697,0.24609 0.0863,0.0987 0.12018,0.1134 0.12018,0.0521 0,-0.0216 0.017,-0.0456 0.0376,-0.0536 0.0238,-0.009 0.0332,-0.0445 0.0256,-0.0962 -0.006,-0.045 0.007,-0.12753 0.0304,-0.18338 0.0354,-0.0848 0.0626,-0.10649 0.16385,-0.13132 0.0668,-0.0163 0.16812,-0.055 0.2252,-0.0858 0.0717,-0.0387 0.1585,-0.0563 0.28067,-0.057 0.19728,-6.4e-4 0.22015,-0.0105 0.7803,-0.32661 0.57479,-0.32432 0.73306,-0.39797 0.95426,-0.44404 0.11578,-0.0241 0.23385,-0.0511 0.26239,-0.0599 0.0424,-0.0131 0.0484,-0.006 0.0332,0.0428 -0.0103,0.0324 -0.013,0.0589 -0.006,0.0589 0.0459,0 0.24156,-0.10224 0.32682,-0.17075 0.0818,-0.0658 0.18813,-0.10214 0.53322,-0.18251 0.41457,-0.0966 0.43491,-0.0987 0.53193,-0.0553 l 0.10088,0.0451 0.26961,-0.13852 c 0.28848,-0.14823 0.3317,-0.15732 0.87497,-0.18427 l 0.30257,-0.015 0.12847,0.11842 c 0.22958,0.21162 0.29729,0.33734 0.31985,0.59388 l 0.0199,0.22623 0.14114,0.12694 c 0.0776,0.0698 0.16315,0.17113 0.19005,0.22516 0.0669,0.13426 0.46108,0.53682 0.70092,0.71571 0.2749,0.20504 0.24451,0.16966 0.71522,0.83262 0.10033,0.14132 0.26821,0.37175 0.37306,0.51205 0.10485,0.14032 0.19799,0.28985 0.20699,0.33229 0.009,0.0425 0.018,0.077 0.0199,0.0769 0.002,-2.2e-4 0.0779,-0.0381 0.16884,-0.0842 0.13001,-0.0659 0.20198,-0.0838 0.33679,-0.0837 0.0943,3e-5 0.28141,-0.0201 0.41578,-0.0448 l 0.24431,-0.0448 0.47139,0.11739 c 0.25926,0.0646 0.51559,0.14295 0.56962,0.17419 0.054,0.0313 0.16595,0.13156 0.24871,0.22294 0.17031,0.18804 0.20222,0.18586 0.25337,-0.0172 z m -7.3433,-0.005 c 0.0864,-0.0436 0.0954,-0.0716 0.0382,-0.11908 -0.0558,-0.0463 -0.10234,-0.25541 -0.0831,-0.37374 0.026,-0.16048 0.18445,-0.41964 0.31129,-0.50928 0.18139,-0.1282 0.40149,-0.0983 0.54058,0.0735 0.0405,0.05 0.0479,0.0386 0.11825,-0.1803 0.16373,-0.50956 0.16002,-0.76444 -0.0149,-1.02624 -0.18488,-0.27664 -0.4605,-0.33 -0.80823,-0.15648 -0.26907,0.13428 -0.48013,0.34759 -0.63897,0.64583 -0.096,0.18031 -0.14085,0.2364 -0.20743,0.25961 -0.12246,0.0426 -0.1282,0.0399 -0.14908,-0.0714 -0.0127,-0.0674 -0.003,-0.15008 0.0313,-0.24871 0.061,-0.17923 0.0451,-0.22923 -0.09,-0.28568 -0.31694,-0.13242 -0.88116,0.16831 -1.1954,0.63717 l -0.10225,0.15254 0.0895,0.0982 c 0.0492,0.054 0.16503,0.17711 0.25736,0.27349 l 0.16786,0.17527 0.16936,-0.17762 c 0.0952,-0.0998 0.20444,-0.18635 0.24943,-0.19756 0.13185,-0.0328 0.27149,0.0576 0.36199,0.23462 0.0857,0.16777 0.0952,0.2946 0.0343,0.46363 -0.0222,0.0618 -0.0406,0.11543 -0.0409,0.11929 -2.2e-4,0.004 0.0235,0.007 0.0526,0.007 0.0292,0 0.12071,0.0468 0.20349,0.10399 0.24535,0.16957 0.49811,0.2061 0.70481,0.10188 z m -3.74748,-1.82263 c -0.009,-0.009 -0.0336,-0.0103 -0.0538,-0.002 -0.0224,0.009 -0.0158,0.0156 0.017,0.017 0.0296,9.2e-4 0.0461,-0.006 0.0368,-0.0147 z m 5.47006,-1.54775 c -0.0945,-0.18641 -0.15613,-0.23611 -0.26554,-0.21423 l -0.0887,0.0178 0.11925,0.0769 c 0.0656,0.0423 0.15635,0.11651 0.20169,0.16489 0.0453,0.0484 0.0866,0.088 0.0917,0.088 0.005,0 -0.0212,-0.06 -0.0583,-0.13332 z m -0.58647,-0.24851 c -0.009,-0.009 -0.0336,-0.0104 -0.0538,-0.002 -0.0224,0.009 -0.0158,0.0156 0.017,0.017 0.0296,9.2e-4 0.0461,-0.005 0.0369,-0.0147 z"
         id="path13017" />
      <circle
         style="fill:none;stroke:#ff0000;stroke-width:0.1;stroke-dasharray:none"
         id="path788-8-1-8-1-9-2-1-4-2-2-6"
         cx="-92.931519"
         cy="-303.66656"
         r="19.954653" />
      <ellipse
         style="fill:none;stroke:#ff00ff;stroke-width:0.1;stroke-dasharray:none;stroke-opacity:1"
         id="path1138-9-4-0-0-1-2-6-7-2-6-9"
         cx="-92.931519"
         cy="-303.66656"
         rx="18.492125"
         ry="18.492126" />
      <circle
         style="fill:none;stroke:#0000ff;stroke-width:0.1;stroke-linecap:round;stroke-dasharray:none;stroke-opacity:1;paint-order:markers stroke fill"
         id="path13019-1-33-7-4-6-7-5"
         cx="-92.931526"
         cy="-318.67755"
         r="2" />
    </g>
  </g>
</svg>
