<?xml version="1.0" encoding="UTF-8" standalone="no"?>
<!-- Created with Inkscape (http://www.inkscape.org/) -->

<svg
   width="41.008999mm"
   height="41.008999mm"
   viewBox="0 0 41.008999 41.008999"
   version="1.1"
   id="svg1"
   inkscape:version="1.4.2 (f4327f4, 2025-05-13)"
   sodipodi:docname="161.svg"
   xmlns:inkscape="http://www.inkscape.org/namespaces/inkscape"
   xmlns:sodipodi="http://sodipodi.sourceforge.net/DTD/sodipodi-0.dtd"
   xmlns="http://www.w3.org/2000/svg"
   xmlns:svg="http://www.w3.org/2000/svg">
  <sodipodi:namedview
     id="namedview1"
     pagecolor="#ffffff"
     bordercolor="#000000"
     borderopacity="0.25"
     inkscape:showpageshadow="2"
     inkscape:pageopacity="0.0"
     inkscape:pagecheckerboard="0"
     inkscape:deskcolor="#d1d1d1"
     inkscape:document-units="mm"
     inkscape:zoom="1.5878906"
     inkscape:cx="108.3198"
     inkscape:cy="200.26568"
     inkscape:window-width="1050"
     inkscape:window-height="1081"
     inkscape:window-x="3737"
     inkscape:window-y="0"
     inkscape:window-maximized="0"
     inkscape:current-layer="layer1" />
  <defs
     id="defs1" />
  <g
     inkscape:label="Layer 1"
     inkscape:groupmode="layer"
     id="layer1"
     transform="translate(-0.7937635,-0.79375582)">
    <g
       id="g15757"
       transform="translate(72.029773,324.87598)">
      <path
         style="fill:#000000;stroke-width:0.1;stroke-dasharray:none"
         d="m -51.01627,-287.0937 c -0.38599,-0.0717 -0.85818,-0.25421 -1.15874,-0.44772 -0.55926,-0.36008 -1.08887,-1.07454 -1.33323,-1.79854 l -0.0657,-0.1944 -0.12292,0.10972 c -0.65195,0.58192 -1.80777,1.13927 -2.59499,1.25134 -0.72679,0.10347 -1.22481,-0.029 -1.63026,-0.43352 -0.25009,-0.24955 -0.37864,-0.50081 -0.44205,-0.86403 -0.0382,-0.21892 -0.0379,-0.29006 0.003,-0.55953 0.13046,-0.86863 0.52995,-1.46238 1.35901,-2.01986 0.539,-0.36243 1.07769,-0.57967 1.69744,-0.68452 l 0.31778,-0.0537 -0.0416,-0.15617 c -0.0228,-0.0859 -0.064,-0.28827 -0.0915,-0.44973 -0.0275,-0.16145 -0.0636,-0.31023 -0.0802,-0.33061 -0.0166,-0.0203 -0.0812,-0.0538 -0.14358,-0.0744 -0.16347,-0.0539 -0.28812,-0.16274 -0.52694,-0.46019 -0.27625,-0.34406 -0.38485,-0.44707 -0.5563,-0.52766 -0.24679,-0.11601 -0.4361,-0.11253 -0.80407,0.0148 -0.42,0.14526 -0.5786,0.14734 -0.80769,0.0106 -0.39604,-0.23643 -0.5448,-0.72945 -0.4187,-1.3876 0.13268,-0.69251 0.62466,-1.51453 1.0303,-1.72147 0.0954,-0.0486 0.18553,-0.0657 0.34646,-0.0657 0.11965,0 0.21754,-0.009 0.21754,-0.0194 0,-0.0107 -0.0869,-0.11197 -0.19313,-0.22508 -0.27814,-0.29617 -0.33971,-0.43834 -0.35686,-0.82395 -0.0401,-0.9025 0.31198,-1.50175 1.34997,-2.29745 0.19734,-0.15128 0.40747,-0.31784 0.46696,-0.37013 l 0.10814,-0.0951 -0.0927,-0.0699 c -0.17987,-0.13545 -0.74404,-0.62177 -0.93752,-0.80815 -0.46339,-0.44638 -0.77088,-0.91941 -0.90607,-1.39385 -0.10201,-0.35803 -0.10184,-1.0295 3.7e-4,-1.40509 0.13497,-0.49599 0.42709,-0.97613 0.91238,-1.49959 0.0945,-0.10198 0.17231,-0.19599 0.17283,-0.20892 5.2e-4,-0.013 -0.069,-0.13505 -0.1544,-0.27138 -0.59507,-0.94952 -0.86439,-1.71677 -0.86439,-2.46257 0,-0.86283 0.41806,-1.52154 1.09698,-1.72846 0.28578,-0.0871 1.71003,-0.0782 2.32183,0.0146 1.08845,0.16499 2.03345,0.56714 3.25733,1.38619 l 0.29511,0.19749 0.38471,-0.21788 c 0.21159,-0.11984 0.43685,-0.23364 0.50059,-0.25289 0.1093,-0.0331 0.15875,-0.0871 0.0797,-0.0871 -0.0962,0 -0.764,-0.31155 -1.03342,-0.48215 -0.23465,-0.1486 -0.59592,-0.4439 -0.84412,-0.68997 -0.45867,-0.45477 -0.68194,-0.80435 -0.68194,-1.06777 0,-0.34991 0.53936,-0.63865 1.42144,-0.76099 0.38799,-0.0538 1.71706,-0.0558 2.08581,-0.003 1.54867,0.22122 2.95203,0.86205 3.83171,1.74972 0.35377,0.35699 0.51465,0.58089 0.70744,0.98459 0.38047,0.79667 0.64281,1.91468 0.79201,3.37524 0.0384,0.37621 0.039,1.55201 9e-4,1.8386 -0.0626,0.47094 -0.2351,1.18336 -0.31048,1.28239 -0.0129,0.017 -0.034,0.0656 -0.0467,0.10815 -0.052,0.17316 -0.30658,0.64199 -0.51417,0.94695 -0.23805,0.34974 -0.78469,0.92793 -1.15429,1.22094 -0.46534,0.36891 -0.96511,0.68543 -1.64803,1.04379 -0.0682,0.0358 -0.0693,0.0409 -0.0197,0.0957 0.0773,0.0854 0.43359,0.28926 0.66346,0.37957 0.19269,0.0757 0.31115,0.11155 0.78797,0.23841 0.47546,0.12651 0.59173,0.16179 0.78624,0.23862 0.56538,0.22333 1.04056,0.7105 1.34533,1.37927 0.0597,0.13117 0.12461,0.3038 0.14407,0.38363 0.0194,0.0798 0.0456,0.15903 0.0581,0.17603 0.058,0.0788 0.0997,0.58762 0.085,1.03822 -0.0168,0.5127 -0.086,0.84481 -0.27076,1.29894 -0.26997,0.66339 -0.8168,1.23216 -1.60751,1.67203 -0.44352,0.24672 -1.07955,0.49107 -1.57566,0.60534 -0.40348,0.0929 -0.48769,0.10232 -1.01126,0.11272 -0.55113,0.0109 -0.61428,0.0282 -0.89794,0.24609 -0.18585,0.14272 -0.34516,0.2021 -0.54298,0.20239 -0.0837,1.1e-4 -0.15259,0.0262 -0.23175,0.088 -0.34764,0.27131 -0.73924,0.19239 -1.07475,-0.21663 -0.14525,-0.17707 -0.32439,-0.52045 -0.38013,-0.72863 l -0.0351,-0.1312 -0.10678,0.10678 c -0.0605,0.0605 -0.1637,0.1222 -0.23832,0.14243 -0.16169,0.0438 -0.51726,0.0156 -0.64667,-0.0513 -0.0512,-0.0265 -0.0972,-0.0437 -0.10214,-0.0382 -0.0265,0.0297 0.0945,0.377 0.20198,0.57985 0.0681,0.12847 0.15457,0.29806 0.19226,0.37687 0.0617,0.12903 0.0854,0.14858 0.23847,0.19653 1.04164,0.32634 1.98711,0.8964 2.48578,1.49878 0.51861,0.62646 0.72251,1.23151 0.68729,2.03946 -0.0268,0.61337 -0.1319,0.88755 -0.50578,1.31869 -0.53487,0.61678 -1.56245,0.88518 -2.6295,0.68681 z m 1.26625,-0.21607 c 0.30005,-0.0618 0.68599,-0.18963 0.81186,-0.26892 0.18805,-0.11844 0.50107,-0.43142 0.59095,-0.59086 0.26146,-0.46384 0.32024,-1.31065 0.12134,-1.74853 -0.0401,-0.0882 -0.0423,-0.0813 -0.0446,0.14476 -0.003,0.29647 -0.0717,0.62972 -0.16905,0.82187 -0.12057,0.23794 -0.45164,0.57207 -0.67507,0.68131 -0.37866,0.18513 -0.44845,0.20823 -0.76209,0.25231 -0.49379,0.0694 -0.96848,0.028 -1.50184,-0.13094 -0.82628,-0.24623 -1.41899,-0.76112 -1.76791,-1.5358 -0.0578,-0.12843 -0.11872,-0.26132 -0.1353,-0.29532 -0.0166,-0.034 -0.0579,-0.14522 -0.0918,-0.2472 l -0.0617,-0.18541 0.0175,0.27811 c 0.0682,1.08654 0.69776,2.06227 1.6288,2.52421 0.26751,0.13272 0.58644,0.23939 0.85848,0.28712 0.28873,0.0507 0.96213,0.0582 1.18044,0.0133 z m 0.13285,-0.9874 c 0.27469,-0.0685 0.53522,-0.2389 0.72147,-0.4718 0.24666,-0.30845 0.34921,-0.64529 0.34985,-1.14911 4.7e-4,-0.33094 -0.01,-0.40237 -0.0948,-0.66437 -0.11934,-0.36758 -0.23069,-0.56174 -0.46708,-0.81445 -0.24611,-0.26308 -0.50536,-0.41437 -1.18271,-0.69016 -0.3095,-0.12602 -0.57834,-0.23615 -0.59741,-0.24473 -0.0226,-0.0101 -0.0294,0.012 -0.0196,0.0635 0.0262,0.13666 -0.0824,0.0941 -0.2683,-0.10527 -0.23652,-0.25364 -0.29173,-0.33027 -0.41513,-0.57614 -0.14583,-0.29059 -0.23247,-0.50975 -0.31017,-0.7846 -0.0608,-0.21499 -0.0744,-0.23622 -0.18865,-0.29355 -0.24934,-0.12515 -1.2162,-0.0469 -1.27451,0.10306 -0.0271,0.0696 0.0534,0.55464 0.13594,0.81997 0.043,0.13816 0.22357,0.54845 0.40126,0.91177 0.17769,0.3633 0.31756,0.66607 0.31082,0.67282 -0.0337,0.0337 -0.114,-0.0425 -0.26832,-0.25474 -0.22434,-0.30849 -0.23742,-0.31826 -0.30246,-0.22607 -0.34367,0.48725 -0.32039,1.38705 0.0551,2.13045 0.21356,0.42277 0.59957,0.90899 0.89218,1.12379 0.40237,0.29536 0.92153,0.48123 1.4239,0.50978 0.38213,0.0217 0.87976,-0.005 1.09861,-0.0601 z m -6.65833,-0.0622 c 0.48547,-0.0607 1.04523,-0.30765 1.77217,-0.78164 0.58464,-0.38122 0.85389,-0.67584 0.85129,-0.9315 l -8.9e-4,-0.0927 -0.049,0.0702 c -0.13081,0.18761 -0.73077,0.56975 -1.12202,0.71466 -1.03384,0.38292 -1.95412,0.37214 -2.49859,-0.0293 -0.2161,-0.15931 -0.34862,-0.40763 -0.5146,-0.96422 -0.0443,-0.14871 -0.092,-0.27038 -0.10586,-0.27038 -0.0472,0 -0.15662,0.30492 -0.19265,0.53668 -0.14121,0.90822 0.47672,1.67081 1.42675,1.76076 0.0595,0.005 0.12242,0.0125 0.13987,0.0152 0.0175,0.003 0.14954,-0.01 0.29356,-0.0279 z m 0.87986,-1.0624 c 0.15296,-0.0429 0.33373,-0.10155 0.40171,-0.13035 0.068,-0.0288 0.18618,-0.0793 0.26266,-0.11208 0.36706,-0.15762 0.8567,-0.51798 0.99845,-0.73481 0.0363,-0.0554 0.0562,-0.17101 0.0665,-0.38447 0.025,-0.51957 0.13416,-0.87801 0.38451,-1.26226 l 0.12661,-0.19433 -0.0812,-0.19861 c -0.13477,-0.32964 -0.22452,-0.70319 -0.26484,-1.10245 l -0.0382,-0.37853 -0.0938,8.9e-4 c -0.0516,5.8e-4 -0.17326,0.0201 -0.27043,0.0434 -0.0972,0.0232 -0.37877,0.0674 -0.62574,0.0982 -0.36873,0.0459 -0.44907,0.0648 -0.44907,0.10562 0,0.0687 0.11718,0.61515 0.15219,0.70969 0.0641,0.17324 0.21854,0.76796 0.21734,0.83723 -9e-4,0.0708 -0.006,0.069 -0.10133,-0.0388 -0.0848,-0.0959 -0.17944,-0.28492 -0.24693,-0.4931 -0.0142,-0.0436 -0.0394,-0.0388 -0.19641,0.0376 -0.0991,0.0482 -0.25537,0.10341 -0.34722,0.12273 -0.55455,0.11657 -1.46738,0.61581 -1.89173,1.0346 -0.29988,0.29595 -0.34844,0.40938 -0.32793,0.76592 0.0177,0.30649 0.0818,0.50159 0.2558,0.77879 0.17717,0.28214 0.32244,0.40074 0.61672,0.50356 0.26277,0.0918 0.29262,0.095 0.75707,0.0815 0.32482,-0.009 0.47873,-0.0294 0.69528,-0.0901 z m 6.07203,-3.57275 c 0,-0.018 -0.17936,-0.21253 -0.39857,-0.43224 -0.3912,-0.39209 -0.53295,-0.57777 -0.57795,-0.75705 -0.018,-0.0717 0.0646,-0.002 0.40744,0.3445 0.35401,0.35772 0.46739,0.45271 0.64146,0.53745 0.1783,0.0868 0.24609,0.10308 0.43261,0.10392 0.22262,9e-4 0.48096,-0.06 0.4326,-0.10216 -0.0143,-0.0125 -0.12335,-0.0479 -0.24233,-0.0788 -0.57212,-0.14845 -1.1364,-0.56794 -1.35555,-1.00769 -0.15081,-0.30263 -0.10044,-0.30299 0.18356,-9e-4 0.64794,0.68831 1.20087,0.98271 1.69535,0.90268 0.11829,-0.0192 0.17531,-0.0495 0.25396,-0.13537 0.27821,-0.30358 0.11443,-0.52689 -0.67264,-0.91717 -0.37618,-0.18654 -0.55274,-0.31175 -0.55274,-0.39197 0,-0.059 0.0751,-0.0504 0.33164,0.0382 0.16422,0.0567 0.2771,0.0761 0.40293,0.0695 0.16932,-0.009 0.17854,-0.0141 0.29468,-0.16372 0.19299,-0.2487 0.30157,-0.51216 0.30323,-0.73577 0.002,-0.26896 -0.0259,-0.36192 -0.10752,-0.35812 -0.20554,0.01 -0.33351,0.11962 -0.5084,0.43722 -0.18263,0.33164 -0.35846,0.40581 -0.63164,0.26644 -0.44745,-0.22826 -0.7893,-0.87906 -1.02861,-1.95816 -0.20261,-0.91362 -0.20505,-0.92628 -0.39908,-2.07043 -0.10405,-0.61358 -0.25085,-0.98904 -0.4632,-1.18479 -0.20052,-0.18483 -0.32636,-0.23293 -0.60429,-0.231 -0.26479,0.002 -0.50023,0.0782 -0.73042,0.23681 -0.1673,0.11529 -0.22628,0.26045 -0.22704,0.55877 -9e-4,0.37377 0.14282,0.66491 0.44365,0.89832 0.0576,0.0447 0.10083,0.13467 0.15597,0.32446 0.042,0.14446 0.13852,0.45734 0.21454,0.69527 0.54385,1.70226 0.64847,2.07617 0.7955,2.84288 0.0521,0.27192 0.10946,0.52169 0.12737,0.55504 0.0179,0.0333 0.0665,0.12372 0.108,0.20085 0.0415,0.0771 0.1212,0.26538 0.17708,0.41834 0.31837,0.87129 0.52745,1.12788 0.91905,1.12788 0.10583,0 0.17936,-0.0134 0.17936,-0.0328 z m 2.39481,-0.71075 c 0.86596,-0.0723 1.20122,-0.20143 1.62267,-0.62503 0.28639,-0.28784 0.52595,-0.67308 0.69062,-1.11058 0.14804,-0.3933 0.1645,-0.82432 0.0429,-1.1226 -0.17289,-0.42405 -0.53699,-0.90181 -0.99271,-1.30257 -0.15597,-0.13715 -0.70428,-0.48969 -1.02356,-0.6581 -0.16995,-0.0896 -0.35072,-0.18712 -0.4017,-0.21663 -0.051,-0.0296 -0.17614,-0.0991 -0.27811,-0.15465 -0.23079,-0.1257 -0.71631,-0.42906 -0.81666,-0.51024 -0.45886,-0.37124 -0.68466,-0.71262 -0.73927,-1.11769 -0.0417,-0.30927 -0.002,-0.56913 0.16674,-1.09351 0.21375,-0.66393 0.23365,-0.71389 0.3181,-0.79834 0.0953,-0.0953 0.12453,-0.0441 0.0567,0.0994 -0.0258,0.0546 -0.0569,0.14098 -0.0691,0.19196 -0.0122,0.051 -0.0328,0.10661 -0.0458,0.12361 -0.0588,0.0767 -0.18936,0.70606 -0.20506,0.98882 -0.0207,0.37299 0.0175,0.59835 0.14829,0.87476 0.11436,0.24171 0.41806,0.55696 0.75508,0.78384 0.19929,0.13415 1.10498,0.64352 1.14422,0.64352 0.0307,0 0.45089,0.25032 0.76991,0.45874 0.61256,0.40016 1.13838,1.03296 1.38183,1.66298 0.10777,0.27885 0.0998,0.74095 -0.0186,1.08795 -0.10828,0.31705 -0.24534,0.56541 -0.48005,0.86976 -0.0985,0.12776 -0.18964,0.26547 -0.20252,0.30602 l -0.0234,0.0738 0.10402,-0.0624 c 0.0572,-0.0343 0.21525,-0.12889 0.35121,-0.21016 0.13597,-0.0813 0.33239,-0.21176 0.43649,-0.28998 0.44931,-0.33756 0.797,-0.92351 0.96093,-1.61939 0.0704,-0.29883 0.0814,-0.41333 0.0811,-0.84038 -3.5e-4,-0.40899 -0.0126,-0.54513 -0.0714,-0.78797 -0.14389,-0.59514 -0.39592,-1.04898 -0.78428,-1.41226 -0.32005,-0.29939 -0.72766,-0.47548 -1.70444,-0.73632 -1.12345,-0.3 -1.55067,-0.61129 -1.73749,-1.26596 -0.10154,-0.35586 -0.1084,-0.46417 -0.11351,-1.79225 -0.005,-1.31496 -0.007,-1.36776 -0.0758,-1.60684 -0.0388,-0.13597 -0.0801,-0.25668 -0.0916,-0.26825 -0.0216,-0.0216 -0.92393,1.04952 -1.2475,1.48072 -0.7574,1.00929 -1.04168,1.90056 -0.91948,2.8827 0.0179,0.14401 0.0527,0.32143 0.0773,0.39425 0.0503,0.14907 0.0552,0.19229 0.0215,0.19153 -0.0341,-8.3e-4 -0.15095,-0.29025 -0.22428,-0.55569 -0.0973,-0.35222 -0.0914,-0.88877 0.0141,-1.29766 0.21058,-0.81546 0.58164,-1.44309 1.28806,-2.17869 0.65075,-0.67764 0.89263,-1.05731 0.89152,-1.39941 -7e-4,-0.22087 -0.0135,-0.22764 -0.27111,-0.14366 -0.66499,0.21679 -1.25033,0.60599 -1.72567,1.1474 -0.12995,0.14803 -0.15974,0.19706 -0.11016,0.18132 0.0571,-0.0181 0.068,-0.01 0.068,0.0524 0,0.0921 -0.0914,0.17765 -0.30242,0.28327 -0.0934,0.0468 -0.15476,0.0957 -0.14325,0.11433 0.0313,0.0507 0.22435,0.003 0.42189,-0.1059 0.13314,-0.0729 0.18584,-0.0882 0.21249,-0.0615 0.0266,0.0267 0.019,0.0621 -0.0309,0.14274 -0.11512,0.18626 -0.42529,0.25811 -0.77418,0.17931 -0.0756,-0.0171 -0.14642,-0.0254 -0.15745,-0.0186 -0.0471,0.0291 -0.33895,0.66985 -0.41482,0.91078 -0.13366,0.42451 -0.13612,0.43501 -0.17341,0.74163 -0.0416,0.34256 -0.0188,0.74284 0.0571,0.99998 0.0504,0.17087 0.0663,0.18996 0.27972,0.33759 0.48487,0.33531 0.61023,0.67518 0.99411,2.69499 0.0551,0.28959 0.16644,0.82246 0.24548,1.17423 0.21579,0.96032 0.52219,1.46779 0.88622,1.46779 0.11143,0 0.15132,-0.0179 0.24236,-0.10897 0.0599,-0.0599 0.13587,-0.1617 0.16875,-0.22614 0.0762,-0.14937 0.27803,-0.33246 0.39473,-0.35809 0.12611,-0.0277 0.31585,0.0434 0.39274,0.14709 0.0924,0.12462 0.0885,0.46303 -0.008,0.71607 -0.15545,0.40676 -0.40865,0.70922 -0.63197,0.75491 -0.094,0.0192 -0.0904,0.0227 0.13816,0.13126 0.41248,0.19589 0.61819,0.45729 0.56846,0.72239 l -0.0211,0.11254 0.11784,-0.0181 c 0.0648,-0.01 0.29862,-0.0332 0.51957,-0.0517 z m -2.58579,-5.52163 c -0.0254,-0.0297 -0.0646,-0.10274 -0.0872,-0.16222 -0.0227,-0.0595 -0.0535,-0.12429 -0.0684,-0.14403 -0.016,-0.0211 -0.0148,-0.0435 0.003,-0.0545 0.0167,-0.0103 0.0417,-9e-4 0.0555,0.0204 0.0338,0.0524 0.1953,0.36935 0.1953,0.38339 0,0.0301 -0.0574,0.005 -0.0983,-0.043 z m -1.36194,5.28966 c 0.12312,-0.0807 0.1938,-0.22486 0.15632,-0.31887 -0.0177,-0.0444 -0.0572,-0.17111 -0.0878,-0.28158 -0.0305,-0.11046 -0.11219,-0.39552 -0.18142,-0.63347 -0.0692,-0.23793 -0.14572,-0.50213 -0.16997,-0.58711 -0.0243,-0.085 -0.0819,-0.28661 -0.12793,-0.44806 -0.0461,-0.16145 -0.10907,-0.37699 -0.13989,-0.47897 -0.0308,-0.10197 -0.086,-0.2897 -0.12262,-0.41715 -0.11506,-0.40062 -0.30423,-1.01864 -0.45159,-1.47541 -0.1286,-0.39859 -0.15168,-0.4462 -0.24411,-0.50333 -0.24816,-0.15336 -0.41596,-0.4753 -0.41478,-0.79578 3.5e-4,-0.0971 0.0337,-0.28776 0.074,-0.42373 0.0403,-0.13596 0.0783,-0.26781 0.0844,-0.29299 0.007,-0.028 -0.0339,-0.068 -0.10467,-0.10288 -0.14659,-0.0724 -0.24848,-0.0429 -0.53848,0.15566 -0.31688,0.21697 -0.52153,0.25529 -0.73975,0.13851 -0.12377,-0.0663 -0.28622,-0.27809 -0.30565,-0.39859 -0.0352,-0.21816 -0.0453,-0.24874 -0.1073,-0.3224 l -0.0618,-0.0734 -0.0612,0.0773 c -0.12397,0.15668 -0.32651,0.59539 -0.52784,1.14333 -0.34418,0.93666 -0.48765,1.25216 -0.8291,1.82315 -0.0864,0.14447 -0.20106,0.34609 -0.25483,0.44806 -0.22034,0.41785 -0.41035,0.63519 -0.59607,0.68181 -0.15031,0.0377 -0.10159,-0.0897 0.18265,-0.4778 0.0423,-0.0578 0.0769,-0.11522 0.0769,-0.12772 0,-0.0418 -0.13633,-0.0636 -0.51528,-0.0821 l -0.37622,-0.0185 -0.19154,0.18208 c -0.58847,0.5594 -0.96684,1.53794 -0.81887,2.11776 0.054,0.21164 0.16137,0.37003 0.32883,0.48518 0.12994,0.0894 0.27992,0.0788 0.63576,-0.0448 0.4393,-0.15255 0.96821,-0.0995 1.21864,0.12217 0.0442,0.0391 0.13083,0.16056 0.19239,0.26973 0.32699,0.5799 0.69652,0.72288 1.55345,0.60104 0.17168,-0.0244 0.39417,-0.0655 0.49441,-0.0913 0.74343,-0.19133 0.88946,-0.21523 1.32558,-0.21689 l 0.43261,-0.002 0.38627,0.19793 c 0.21244,0.10885 0.42797,0.20873 0.47896,0.22196 0.11697,0.0304 0.25383,0.0101 0.3475,-0.0512 z m -3.99521,-0.91718 c -0.20881,-0.19298 -0.17562,-0.55454 0.0749,-0.81521 0.16394,-0.17061 0.31909,-0.23865 0.54457,-0.23879 0.23456,-1.2e-4 0.35048,0.0558 0.43887,0.21195 0.23466,0.41448 -0.18808,0.9413 -0.75605,0.94217 -0.17571,2.5e-4 -0.20362,-0.009 -0.30225,-0.10012 z m 0.62869,-0.1593 c 0.19415,-0.10101 0.29576,-0.29461 0.26244,-0.49999 -0.0236,-0.14515 -0.12523,-0.20987 -0.32919,-0.20954 -0.18963,3.5e-4 -0.26793,0.038 -0.37768,0.1819 -0.1305,0.1711 -0.14349,0.51764 -0.0206,0.54976 0.12,0.0313 0.38662,0.0187 0.46503,-0.0221 z m 1.77548,-0.13416 c -0.27092,-0.12801 -0.43473,-0.4093 -0.53543,-0.9194 -0.0543,-0.2751 -0.0643,-0.41209 -0.0527,-0.7185 0.0165,-0.43167 0.0261,-0.45143 0.28138,-0.57864 0.40907,-0.20386 0.80328,0.0213 1.07097,0.61167 0.17528,0.38657 0.23097,0.82679 0.15149,1.19741 -0.0445,0.20755 -0.1961,0.37891 -0.39259,0.44377 -0.19345,0.0639 -0.33146,0.0543 -0.52317,-0.0363 z m 0.49294,-0.16385 c 0.0997,-0.0454 0.20652,-0.2453 0.25505,-0.4772 0.0339,-0.16214 0.0342,-0.23724 0.002,-0.42618 -0.0898,-0.51707 -0.39712,-0.92214 -0.73472,-0.96842 -0.33729,-0.0462 -0.4035,0.0578 -0.40577,0.63729 -8.9e-4,0.2921 0.0125,0.43145 0.0558,0.57166 0.11134,0.3605 0.26604,0.58708 0.45107,0.66064 0.10336,0.0411 0.28952,0.0422 0.37727,0.002 z m -5.2068,-0.28999 c -0.0244,-0.0244 -0.0533,-0.11215 -0.0643,-0.19507 -0.0737,-0.5556 0.34933,-1.04766 1.03363,-1.2023 0.19437,-0.0439 0.26647,-0.0464 0.47266,-0.0164 0.13382,0.0195 0.26422,0.0528 0.28977,0.074 0.10561,0.0877 -0.0178,0.67663 -0.18326,0.87465 -0.29499,0.353 -0.65215,0.50776 -1.17421,0.50879 -0.24603,4.7e-4 -0.34125,-0.0106 -0.37429,-0.0436 z m 0.98031,-0.25164 c 0.33014,-0.16593 0.53679,-0.43462 0.59806,-0.77759 l 0.0289,-0.16195 -0.1116,-0.031 c -0.44198,-0.12276 -1.0786,0.17609 -1.30264,0.6115 -0.087,0.16899 -0.11703,0.40262 -0.0571,0.44356 0.0236,0.0161 0.18289,0.0241 0.35385,0.0175 0.26823,-0.0102 0.33546,-0.0242 0.49052,-0.1021 z m 0.0882,-2.16053 c 0.0474,-0.0594 0.14376,-0.21475 0.21412,-0.34521 0.10997,-0.20387 0.12826,-0.26462 0.13014,-0.43238 0.002,-0.16686 0.01,-0.19283 0.0532,-0.17898 0.0911,0.0289 0.20169,-0.11428 0.28749,-0.37231 0.0766,-0.23041 0.12302,-0.35499 0.31132,-0.83564 0.0402,-0.10269 0.17434,-0.38775 0.29804,-0.63347 0.12369,-0.24571 0.22997,-0.45754 0.23619,-0.47074 0.0178,-0.0379 -0.24661,0.0119 -0.35675,0.0673 -0.0548,0.0276 -0.35379,0.30256 -0.66437,0.61116 -0.31057,0.3086 -0.75073,0.71172 -0.97813,0.89583 -0.22739,0.18411 -0.45492,0.39257 -0.50561,0.46325 -0.22615,0.3153 -0.10719,0.72422 0.30242,1.03947 0.17096,0.13157 0.46834,0.29605 0.53939,0.29833 0.0255,8.2e-4 0.0852,-0.0471 0.13253,-0.10652 z m -0.51879,-1.92842 c 0.085,-0.0766 0.35613,-0.32882 0.60257,-0.56051 0.54215,-0.50971 0.63581,-0.59214 0.90461,-0.79613 l 0.20935,-0.15887 -0.18529,-0.0935 c -0.10191,-0.0514 -0.20382,-0.0935 -0.22646,-0.0935 -0.0227,0 -0.0891,0.0505 -0.14766,0.11228 -0.0586,0.0618 -0.30812,0.2732 -0.55455,0.46988 -0.59084,0.47156 -0.65912,0.53691 -0.83361,0.79779 -0.14204,0.21239 -0.27882,0.55228 -0.27882,0.6929 0,0.059 0.0209,0.0494 0.17768,-0.0821 0.0977,-0.082 0.2472,-0.21159 0.33218,-0.28818 z m 3.32927,-0.73022 c 0.0458,-0.0334 0.0796,-0.0727 0.0753,-0.0874 -0.0101,-0.0346 -0.68927,-0.26694 -0.78008,-0.26694 -0.0559,0 -0.0664,0.0135 -0.0543,0.0695 0.0282,0.12956 0.086,0.21598 0.19493,0.29165 0.0919,0.0639 0.1372,0.0738 0.29476,0.0647 0.12278,-0.007 0.21447,-0.0314 0.26934,-0.0716 z m 1.39779,-0.27791 c 0.25315,-0.0523 0.51064,-0.15491 0.51064,-0.20351 0,-0.0173 -0.0134,-0.0564 -0.0296,-0.0868 -0.0677,-0.12643 -0.10234,-0.60787 -0.066,-0.91616 0.053,-0.44949 0.14855,-0.75955 0.52667,-1.70926 l 0.0663,-0.16638 -0.0864,0.0175 c -0.0476,0.01 -0.2042,0.0885 -0.34814,0.17522 -0.388,0.23373 -0.51191,0.26331 -1.09793,0.26209 -0.46411,-9e-4 -0.50823,-0.006 -0.7197,-0.0866 -0.54505,-0.20711 -0.8408,-0.5732 -0.8408,-1.04077 v -0.18575 l -0.20288,0.008 -0.20288,0.008 -0.10686,-0.27811 c -0.28001,-0.72865 -0.41289,-0.88068 -0.76977,-0.88068 -0.34799,0 -0.5695,0.24114 -0.57098,0.6216 -9e-4,0.34495 0.32885,0.80845 0.77974,1.09452 0.0794,0.0503 0.14486,0.10202 0.14547,0.11476 0.003,0.0513 -0.28429,0.0192 -0.43832,-0.0492 -0.39422,-0.1748 -0.64304,-0.67993 -0.60396,-1.22611 0.0187,-0.26143 0.11318,-0.46231 0.28155,-0.59866 0.1137,-0.0921 0.13011,-0.096 0.40158,-0.0947 0.15566,7e-4 0.31085,0.0115 0.34483,0.0241 0.0522,0.0193 0.0772,-0.005 0.16144,-0.15989 0.10115,-0.18546 0.38905,-0.49611 0.58155,-0.62754 0.14038,-0.0958 0.15893,-0.14946 0.0518,-0.1496 -0.21233,-2.3e-4 -0.4297,-0.27767 -0.4022,-0.51321 0.007,-0.0576 0.007,-0.10469 10e-6,-0.10469 -0.11076,0 -0.69193,0.20669 -0.97965,0.34841 -0.72091,0.35507 -1.30159,0.90914 -1.5545,1.48322 -0.16255,0.36897 -0.20637,0.6001 -0.20637,1.0885 0,0.5909 0.0748,0.87433 0.34399,1.30429 0.27917,0.44582 1.16201,1.2482 1.83404,1.66687 0.30436,0.18962 1.15763,0.56201 1.66864,0.72825 0.52156,0.16968 1.10215,0.21961 1.52883,0.13147 z m -2.32466,-0.88858 c -0.18981,-0.0544 -0.31055,-0.18717 -0.50051,-0.55074 -0.14389,-0.27537 -0.21061,-0.3632 -0.46755,-0.61555 -0.22645,-0.22238 -0.30805,-0.32436 -0.33382,-0.41716 -0.0433,-0.15612 -0.0429,-0.16917 0.005,-0.16917 0.0218,0 0.0626,0.0382 0.0907,0.085 0.028,0.0468 0.14577,0.17832 0.2616,0.29241 0.43082,0.42434 0.97553,0.63278 1.43922,0.55074 0.23576,-0.0417 0.45548,-0.116 0.45548,-0.15401 0,-0.0124 -0.0357,-0.0389 -0.0794,-0.0588 -0.12522,-0.057 -0.087,-0.1456 0.0586,-0.136 0.24997,0.0165 0.42402,0.17561 0.44635,0.40813 0.0163,0.16976 -0.0364,0.34127 -0.10478,0.34127 -0.0311,0 -0.0426,-0.0461 -0.0426,-0.16996 0,-0.0935 -0.0105,-0.16954 -0.0232,-0.16903 -0.0127,4.7e-4 -0.0688,0.0804 -0.12447,0.17769 -0.27142,0.47368 -0.68602,0.69816 -1.08082,0.58518 z m 0.57436,-0.29764 c 0.16072,-0.082 0.28328,-0.23157 0.28328,-0.34572 v -0.0911 l -0.0975,0.0504 c -0.11511,0.0596 -0.39738,0.0705 -0.85674,0.0334 l -0.32077,-0.026 0.0213,0.0851 c 0.0403,0.1604 0.21387,0.31731 0.40388,0.36501 0.12194,0.0306 0.44707,-0.0102 0.5665,-0.0711 z m 7.19555,0.64376 c 1.00515,-0.51544 1.79869,-1.21365 2.31659,-2.03826 0.40607,-0.64656 0.62576,-1.2676 0.7538,-2.13083 0.0829,-0.55926 0.0685,-1.16216 -0.048,-2.00856 -0.0433,-0.31442 -0.1059,-0.77182 -0.13911,-1.01645 -0.0332,-0.24463 -0.0692,-0.47272 -0.0801,-0.50685 -0.0108,-0.0341 -0.0444,-0.17467 -0.0745,-0.31229 -0.0736,-0.33569 -0.14807,-0.60023 -0.20232,-0.7184 -0.0246,-0.0536 -0.0447,-0.11369 -0.0447,-0.13361 0,-0.0913 -0.38352,-0.81415 -0.55027,-1.03709 -0.69419,-0.92813 -1.89744,-1.55559 -3.62351,-1.88953 -0.42493,-0.0822 -0.48805,-0.0863 -1.34203,-0.0862 -0.80188,8e-5 -0.93463,0.007 -1.26228,0.07 -0.59315,0.11321 -0.86852,0.23424 -0.95985,0.4219 -0.0394,0.081 -0.0382,0.1072 0.0118,0.23853 0.12476,0.32834 0.56919,0.79309 1.22243,1.27831 0.58393,0.43373 1.30822,0.64978 2.43779,0.72718 0.6672,0.0458 0.79043,0.0605 0.79043,0.0945 0,0.0166 -0.0502,0.0512 -0.11153,0.0768 -0.0848,0.0355 -0.23452,0.0462 -0.62574,0.045 l -0.51422,-0.002 0.13906,0.0806 c 0.22976,0.13318 0.55161,0.22782 0.91945,0.27036 0.19127,0.0221 0.35509,0.0476 0.36402,0.0564 0.009,0.009 -0.0566,0.0476 -0.14568,0.0859 -0.1333,0.0573 -0.20106,0.0672 -0.38321,0.0554 -0.23605,-0.0151 -0.336,-0.0607 -0.83183,-0.37955 -0.31048,-0.19963 -0.34869,-0.2139 -0.57167,-0.21357 -0.24486,3.5e-4 -0.34363,0.0475 -0.82354,0.39287 l -0.34458,0.24798 0.23643,0.19228 c 1.48324,1.20632 2.40993,3.14602 2.53859,5.3136 0.0151,0.25493 0.0263,0.85982 0.0248,1.34419 -0.003,0.79469 0.004,0.91212 0.0651,1.20279 0.0374,0.17717 0.0951,0.38207 0.12851,0.45532 l 0.0607,0.13319 0.13077,-0.0508 c 0.0719,-0.0279 0.31421,-0.14485 0.53842,-0.25981 z m -5.3679,-2.39166 c 0.45618,-0.15596 0.61219,-0.32682 0.63974,-0.7007 0.0318,-0.43082 -0.0741,-0.74743 -0.34975,-1.04506 -0.27553,-0.29761 -0.66767,-0.42425 -1.06184,-0.34293 -0.0935,0.0193 -0.19065,0.0382 -0.21595,0.0418 -0.0348,0.005 -0.0616,-0.07 -0.10985,-0.30699 -0.0732,-0.35977 -0.15205,-0.5005 -0.34406,-0.61413 -0.38599,-0.22842 -0.9443,0.0414 -1.36143,0.65776 -0.10023,0.1481 -0.10577,0.16726 -0.0626,0.2163 0.0261,0.0296 0.0839,0.12682 0.12867,0.21605 0.0447,0.0892 0.0896,0.16223 0.0997,0.16223 0.0101,0 0.0709,-0.0591 0.135,-0.13133 0.10459,-0.11786 0.13084,-0.13133 0.25589,-0.13133 0.41315,0 0.3396,0.50079 -0.11683,0.79553 l -0.0927,0.0598 0.1236,-0.0159 c 0.068,-0.009 0.16813,-0.0255 0.22255,-0.0373 0.0873,-0.0189 0.10059,-0.0128 0.11309,0.0517 0.13429,0.6939 0.14893,0.734 0.3357,0.91892 0.087,0.0861 0.19386,0.14878 0.3453,0.20251 0.28432,0.10087 0.33923,0.10777 0.74471,0.0937 0.26114,-0.009 0.39345,-0.0301 0.57099,-0.0908 z m -1.02854,-0.28333 c -0.15212,-0.0438 -0.11816,-0.36502 0.0584,-0.55221 0.15379,-0.16307 0.41485,-0.25075 0.52586,-0.17662 0.17703,0.1182 0.10853,0.46339 -0.12772,0.64359 -0.10881,0.083 -0.32445,0.12325 -0.45653,0.0853 z m 2.63314,-0.48802 c 0.11208,-0.0779 0.29167,-0.22425 0.39908,-0.3253 0.17182,-0.16162 0.50236,-0.39571 1.05106,-0.74434 l 0.16482,-0.10473 -0.30388,-0.0508 c -0.16714,-0.0279 -0.38436,-0.0787 -0.48272,-0.11294 l -0.17883,-0.0622 -0.0423,0.0812 c -0.0725,0.13931 -0.18724,0.22601 -0.2844,0.2149 -0.0771,-0.009 -0.0894,-0.0244 -0.0977,-0.12412 -0.005,-0.0627 0.0122,-0.15587 0.0386,-0.20704 0.0264,-0.0511 0.0481,-0.10565 0.0481,-0.12109 0,-0.0154 -0.08,-0.0809 -0.17768,-0.14546 -0.14283,-0.0944 -0.52439,-0.4023 -0.59484,-0.48007 -0.0466,-0.0514 -0.46399,-0.36805 -0.55622,-0.42196 -0.0595,-0.0348 -0.19565,-0.0929 -0.30259,-0.12924 -0.13083,-0.0444 -0.22439,-0.10015 -0.28602,-0.17034 -0.15629,-0.178 -0.27375,-0.21473 -0.62493,-0.19538 l -0.30592,0.0168 0.0187,-0.0745 c 0.0176,-0.07 0.0107,-0.0745 -0.11322,-0.0743 -0.21281,2.3e-4 -0.82788,0.0635 -0.90628,0.0933 -0.0852,0.0323 -0.15567,0.23055 -0.12523,0.35186 0.0285,0.11359 0.0652,0.0993 0.10747,-0.0419 0.0413,-0.13784 0.16219,-0.24886 0.27097,-0.24886 0.10251,0 0.0918,0.0645 -0.0362,0.21768 -0.10826,0.12959 -0.1249,0.20603 -0.0419,0.19244 0.0236,-0.004 0.14732,-0.0361 0.27478,-0.0716 0.28971,-0.0806 0.72179,-0.0733 0.9056,0.0151 0.17491,0.0843 0.27662,0.2356 0.29328,0.43644 0.008,0.0922 0.0227,0.16753 0.0332,0.16728 0.0106,-2.3e-4 0.0819,-0.023 0.1584,-0.0505 0.088,-0.0317 0.24235,-0.0506 0.42034,-0.0515 0.24868,-8.9e-4 0.3006,0.008 0.44806,0.0845 0.44377,0.2287 0.67548,0.66386 0.67628,1.27009 4.1e-4,0.30783 -0.0726,0.62779 -0.20136,0.88176 -0.042,0.0829 -0.0764,0.15669 -0.0764,0.16396 0,0.0474 0.25909,-0.0608 0.42971,-0.17931 z m -0.5558,-0.21316 c 0.18908,-0.38848 0.25009,-0.94583 0.1378,-1.25904 -0.0754,-0.21026 -0.26025,-0.39877 -0.45975,-0.46879 -0.20616,-0.0724 -0.54998,-0.0695 -0.94248,0.008 -0.17245,0.034 -0.33339,0.0618 -0.35764,0.0618 -0.0622,0 -0.0547,-0.10525 0.0177,-0.2472 0.1,-0.19595 0.076,-0.30156 -0.0927,-0.40936 -0.15814,-0.10101 -0.58449,-0.0935 -0.82142,0.0144 -0.10257,0.0468 -0.0946,0.0675 0.051,0.13322 0.26569,0.1198 0.48794,0.43084 0.51599,0.72209 l 0.0137,0.14219 h 0.37532 c 0.36142,0 0.38299,0.004 0.58254,0.10136 0.40783,0.19948 0.66577,0.5599 0.75116,1.0496 0.0253,0.14472 0.0458,0.29777 0.0458,0.34012 0,0.11511 0.0707,0.0424 0.18291,-0.18828 z m 2.6982,-1.18351 c 0.10587,-0.0175 0.11388,-0.0258 0.0963,-0.10009 -0.0742,-0.31382 -0.50611,-1.42361 -0.57688,-1.48209 -0.0202,-0.0167 -0.12702,-0.0534 -0.23749,-0.0815 -0.37898,-0.0967 -1.07185,-0.30465 -1.18969,-0.35698 -0.034,-0.0151 -0.18695,-0.0757 -0.3399,-0.13469 -0.38255,-0.14751 -0.68685,-0.30051 -1.3603,-0.68395 -0.54829,-0.31218 -1.12545,-0.60156 -1.20061,-0.60197 -0.0191,-9e-5 -0.0744,-0.0209 -0.12294,-0.0462 -0.11153,-0.0582 -0.66366,-0.16995 -0.83948,-0.16995 -0.2158,0 -0.5825,0.0821 -0.96188,0.21532 -0.3984,0.13989 -0.38168,0.13581 -0.38168,0.0933 0,-0.0464 0.3012,-0.23057 0.5279,-0.32282 0.23517,-0.0957 0.63846,-0.17121 0.91435,-0.17121 0.51625,0 1.15353,0.23722 2.18077,0.81179 1.39554,0.78057 1.87929,0.99803 2.55715,1.14957 0.17846,0.0399 0.32774,0.0693 0.33173,0.0655 0.0275,-0.0267 -0.34687,-0.52343 -0.58048,-0.77028 -0.74898,-0.79139 -1.86725,-1.40755 -3.05764,-1.68471 -0.6861,-0.15976 -1.6833,-0.17049 -2.22663,-0.024 -0.3631,0.0979 -0.61619,0.19311 -0.94941,0.35711 -0.14076,0.0692 -0.26093,0.12595 -0.26705,0.12595 -0.006,0 -0.12483,0.064 -0.2638,0.14209 -0.2603,0.14638 -0.36218,0.16001 -0.20086,0.0269 0.53668,-0.4429 1.21859,-0.77751 1.82608,-0.89606 0.9161,-0.17876 2.09597,0.004 3.32022,0.51265 0.12609,0.0525 0.29877,0.12181 0.38375,0.15414 0.1448,0.0551 0.14992,0.0552 0.0814,0.003 -0.21524,-0.16531 -0.93957,-0.60046 -1.31749,-0.7915 -0.56261,-0.28441 -0.8408,-0.39353 -1.42143,-0.55757 -0.78838,-0.22272 -2.49902,-0.30133 -2.97627,-0.13677 -0.35835,0.12356 -0.62572,0.48136 -0.74637,0.9988 -0.0792,0.33965 -0.0795,0.6576 -9e-4,1.06956 0.10853,0.56955 0.22355,0.85296 0.67481,1.66264 0.2237,0.40138 0.23039,0.40962 0.29468,0.3626 0.12081,-0.0884 0.58837,-0.31157 0.82284,-0.3928 0.428,-0.14828 1.2234,-0.30325 1.86489,-0.36336 0.16742,-0.0157 0.31123,-0.0354 0.31957,-0.0437 0.0364,-0.0364 -0.31998,-0.0658 -0.74757,-0.0617 -0.42524,0.004 -0.67895,0.0355 -1.0429,0.12917 -0.13152,0.0339 -0.14581,0.0139 -0.0493,-0.0688 0.32962,-0.28222 1.07933,-0.33511 1.98828,-0.14027 0.23793,0.051 0.57109,0.12217 0.74035,0.15812 0.29847,0.0634 0.31434,0.0711 0.52597,0.2557 0.12001,0.10468 0.44337,0.34058 0.71856,0.52423 0.4821,0.32174 0.50395,0.33266 0.59881,0.2996 0.23861,-0.0832 0.53367,-0.0221 0.67587,0.13981 0.12509,0.14248 0.15936,0.23611 0.15937,0.43552 l 2e-5,0.16157 0.30955,0.0955 c 0.42609,0.13149 0.85466,0.18132 1.14569,0.13321 z m -1.94007,-0.6938 c -0.0729,-0.14388 -0.0869,-0.15558 -0.16268,-0.13655 -0.0456,0.0115 -0.0868,0.0246 -0.0915,0.0294 -0.0267,0.0267 0.0465,0.12322 0.14306,0.18884 0.17429,0.11843 0.20211,0.098 0.11109,-0.0817 z m -4.09844,-0.70321 c -8.9e-4,-0.0655 0.0139,-0.14795 0.0329,-0.18337 0.0557,-0.10402 0.0409,-0.1303 -0.073,-0.1303 -0.0793,0 -0.12016,0.0194 -0.15591,0.074 -0.0809,0.12343 0.0126,0.35863 0.1426,0.35863 0.0436,0 0.0547,-0.0248 0.0535,-0.11894 z"
         id="path13360"
         sodipodi:nodetypes="csscsssscsscssscsssssssscssscssssssssscscssssssscssssscssssssssscsssssssssscssscssssssccsssscssssssscsssssssssssscssssssssssssssscsscsssssscccccscscscsscccsssccssssssssccssscscscscssssssscssssssssssssssssssscssssssssscssscssssssssscssssccsssccssscssssssssssscssssssssssssssscssscscccssccscccsssssscssssccsssscsssssssscssssssscccssccssssssscsssscsscsssssscscsccsccscssssssssscsssssssscsssssssssssssssscssssssssscssssscccscsscscssscccsscsccssssssscsssssssccssssssssscssssscsssscsccsssscssssscssssscscssssccsssssssscssccscsccsssscsssssssssccscssssssssssscsscsscsccsssssssscscssssscsscssccsssccsssssssscscscssssssscscsssssssssscsssssssssscsssscssssscssssssssscssssscsssssssss" />
      <circle
         style="fill:none;stroke:#ff0000;stroke-width:0.1;stroke-dasharray:none"
         id="path788-8-1-8-1-9-2-6-3-4-8"
         cx="-50.73151"
         cy="-303.57773"
         r="19.954653" />
      <ellipse
         style="fill:none;stroke:#ff00ff;stroke-width:0.1;stroke-dasharray:none;stroke-opacity:1"
         id="path1138-9-4-0-0-1-2-0-0-6-1"
         cx="-50.73151"
         cy="-303.57773"
         rx="18.492125"
         ry="18.492126" />
      <circle
         style="fill:none;stroke:#0000ff;stroke-width:0.1;stroke-linecap:round;stroke-dasharray:none;stroke-opacity:1;paint-order:markers stroke fill"
         id="path13019-1-33-3-83-70-7"
         cx="-50.731514"
         cy="-318.58871"
         r="2" />
    </g>
  </g>
</svg>
