<?xml version="1.0" encoding="UTF-8" standalone="no"?>
<!-- Created with Inkscape (http://www.inkscape.org/) -->

<svg
   width="41.008999mm"
   height="41.008999mm"
   viewBox="0 0 41.008999 41.008999"
   version="1.1"
   id="svg1"
   inkscape:version="1.4.2 (f4327f4, 2025-05-13)"
   sodipodi:docname="162.svg"
   xmlns:inkscape="http://www.inkscape.org/namespaces/inkscape"
   xmlns:sodipodi="http://sodipodi.sourceforge.net/DTD/sodipodi-0.dtd"
   xmlns="http://www.w3.org/2000/svg"
   xmlns:svg="http://www.w3.org/2000/svg">
  <sodipodi:namedview
     id="namedview1"
     pagecolor="#ffffff"
     bordercolor="#000000"
     borderopacity="0.25"
     inkscape:showpageshadow="2"
     inkscape:pageopacity="0.0"
     inkscape:pagecheckerboard="0"
     inkscape:deskcolor="#d1d1d1"
     inkscape:document-units="mm"
     inkscape:zoom="1.5878906"
     inkscape:cx="108.3198"
     inkscape:cy="200.26568"
     inkscape:window-width="1050"
     inkscape:window-height="1081"
     inkscape:window-x="3737"
     inkscape:window-y="0"
     inkscape:window-maximized="0"
     inkscape:current-layer="layer1" />
  <defs
     id="defs1" />
  <g
     inkscape:label="Layer 1"
     inkscape:groupmode="layer"
     id="layer1"
     transform="translate(-0.7937635,-0.79375582)">
    <g
       id="g15751"
       transform="translate(29.829997,324.87598)">
      <path
         style="fill:#000000;stroke-width:0.1;stroke-dasharray:none"
         d="m -9.59612,-286.76386 c -2.17104,-0.1872 -3.95705,-0.66498 -4.38443,-1.17289 -0.78304,-0.93059 -0.44654,-2.18478 0.82808,-3.08645 0.41752,-0.29534 0.59198,-0.34259 1.39722,-0.37842 0.84133,-0.0374 0.96597,-0.0745 1.45517,-0.4324 0.29426,-0.2153 0.53502,-0.43033 0.53502,-0.47784 0,-0.0476 -0.11405,-0.24591 -0.25344,-0.4409 -1.24304,-1.73885 -1.21081,-1.65738 -1.0375,-2.62218 0.0453,-0.25228 0.0262,-0.43832 -0.0499,-0.48535 -0.0679,-0.0419 -0.1234,-0.24699 -0.1234,-0.45567 0,-0.46917 0.42669,-0.84629 0.95751,-0.84629 0.32036,0 0.41975,-0.0831 0.82958,-0.69343 0.25609,-0.38137 0.46518,-0.7235 0.46464,-0.76028 -4.3e-4,-0.0368 -0.31657,-0.26962 -0.70227,-0.51741 -1.16944,-0.75131 -2.35936,-1.67287 -3.02964,-2.34638 -0.57979,-0.58259 -0.67865,-0.63847 -1.12945,-0.63847 -0.58196,0 -0.83947,-0.15811 -1.27045,-0.78001 -0.31015,-0.44755 -0.33434,-0.45899 -0.97124,-0.45899 -1.15085,0 -1.79418,-0.40861 -1.79418,-1.13959 0,-0.73753 0.75447,-0.97805 1.94455,-0.61989 0.50756,0.15276 0.51466,0.15136 0.4293,-0.0845 -0.0477,-0.13189 -0.30089,-0.39186 -0.56257,-0.5777 -0.26168,-0.18585 -0.68756,-0.52434 -0.94642,-0.75221 -0.42578,-0.37482 -0.47064,-0.46431 -0.47064,-0.939 0,-0.43525 0.0539,-0.57104 0.31603,-0.79653 0.63653,-0.54752 1.36869,-0.2957 2.07728,0.71446 0.5139,0.73261 0.78345,0.9994 0.89604,0.88683 0.0942,-0.0942 -0.19378,-0.65121 -0.69814,-1.3504 -0.23741,-0.32913 -0.39482,-0.67917 -0.39482,-0.87805 0,-0.41903 0.44586,-0.87943 0.86781,-0.89613 1.06828,-0.0423 1.31319,0.18616 1.64614,1.53561 0.1351,0.54757 0.3034,1.01412 0.37399,1.03678 0.18955,0.0608 0.56743,-0.61542 0.83831,-1.50019 0.71012,-2.31949 2.18708,-3.89738 4.58081,-4.89389 0.82373,-0.34293 0.92195,-0.35812 1.99591,-0.30875 1.97048,0.0906 4.28678,1.07923 4.97887,2.12505 0.57748,0.87261 0.41396,1.87168 -0.3592,2.19472 -0.20947,0.0876 -0.89134,0.19258 -1.51528,0.23347 -1.08545,0.0712 -1.13118,0.0845 -1.05954,0.31027 0.10074,0.31738 0.34019,0.4791 0.93204,0.6295 0.80908,0.20559 1.12859,0.42769 1.39032,0.9664 0.20466,0.42126 0.22455,0.55915 0.12043,0.835 -0.11851,0.314 -0.10664,0.33636 0.2393,0.45054 0.59056,0.19489 0.98837,0.69654 1.04847,1.32213 0.0482,0.50106 0.018,0.58321 -0.40036,1.08944 -0.25054,0.30319 -0.48645,0.72969 -0.52864,0.95576 -0.052,0.27838 -0.23882,0.56429 -0.58737,0.89876 -0.58743,0.5637 -1.25569,0.89982 -2.50905,1.26198 l -0.88421,0.2555 0.22073,0.55998 c 0.12139,0.30799 0.38848,1.11404 0.59354,1.79124 l 0.37281,1.23126 0.71186,0.35856 c 0.92205,0.46446 1.1806,0.91386 1.17827,2.0481 -0.003,1.42454 -0.53068,2.42166 -1.28173,2.42166 -0.61514,0 -0.37465,0.1781 0.5239,0.38798 1.58215,0.36955 2.1658,0.81948 2.25402,1.7376 0.0929,0.9665 -0.53025,1.74845 -1.77533,2.22787 -0.36968,0.14235 -0.90314,0.20222 -1.97112,0.22123 -1.14792,0.0204 -1.60171,0.076 -2.10048,0.25748 -0.98819,0.35946 -2.69349,0.51551 -4.20712,0.385 z m 3.93481,-0.54626 c 0.74381,-0.24446 1.36027,-0.75142 1.47641,-1.21413 0.27479,-1.09484 -0.80243,-2.13619 -2.37795,-2.29881 -0.53095,-0.0548 -0.66561,-0.025 -1.03343,0.228 -0.55303,0.3805 -1.02107,0.55081 -1.28422,0.46729 -0.32372,-0.10275 -0.14965,-0.25764 0.75066,-0.66793 0.90748,-0.41355 1.24867,-0.78638 1.13482,-1.24003 -0.0388,-0.1549 -0.27279,-0.59431 -0.5198,-0.97648 -0.24701,-0.38218 -0.43366,-0.71031 -0.41476,-0.72919 0.0189,-0.0189 0.18383,0.005 0.36657,0.0551 0.2145,0.0577 0.33631,0.16617 0.34373,0.30603 0.006,0.11914 0.019,0.27997 0.0281,0.35741 0.0424,0.35769 1.69473,-0.0443 2.32809,-0.56633 0.45924,-0.37855 0.72975,-0.90429 0.72975,-1.41831 v -0.3305 l -0.53503,0.16697 c -0.85737,0.26756 -3.08701,0.0269 -2.35459,-0.25424 0.10408,-0.0399 0.26584,-0.009 0.35946,0.0687 0.2082,0.17278 1.64266,0.0887 2.10777,-0.12354 0.27274,-0.12446 0.30975,-0.20346 0.30975,-0.66111 0,-0.28588 -0.15206,-1.14247 -0.33791,-1.90355 -0.41401,-1.69542 -0.42778,-2.10663 -0.0434,-1.29426 0.16654,0.35194 0.37472,1.17801 0.52564,2.08578 0.22899,1.37741 0.26872,1.49963 0.47516,1.46193 0.18219,-0.0332 0.19834,-0.0131 0.0845,0.10498 -0.21254,0.22054 -0.16927,0.60353 0.0952,0.8429 0.23264,0.21053 0.23912,0.20975 0.45336,-0.0548 0.30428,-0.37577 0.38658,-0.21829 0.16949,0.32429 -0.34458,0.86119 -0.22378,1.35402 0.3319,1.35402 0.52949,0 0.64968,-0.27436 0.56025,-1.2789 l -0.0717,-0.80486 0.23036,0.26591 c 0.25236,0.29131 0.30573,0.92912 0.11886,1.4206 -0.14161,0.37249 -0.64991,0.84779 -0.90663,0.84779 -0.24692,0 -0.39047,0.34392 -0.19652,0.47088 0.0795,0.0521 0.29667,0.0815 0.48252,0.0653 0.50188,-0.0436 0.89421,-0.88027 0.88302,-1.88311 -0.0143,-1.28311 -0.57613,-2.1448 -1.39834,-2.1448 h -0.42612 l -0.12808,-0.64765 c -0.23324,-1.17942 -0.56293,-2.28684 -0.84868,-2.85074 l -0.28199,-0.5565 h -0.9281 c -0.51044,0 -1.10121,-0.0496 -1.31279,-0.11033 -0.24725,-0.0709 -0.43151,-0.0715 -0.51563,-0.002 -0.23909,0.19843 -3.19597,-1.95565 -3.95349,-2.88009 l -0.40387,-0.49288 0.23906,-0.30392 c 0.2131,-0.27092 0.23097,-0.39331 0.16447,-1.12705 l -0.0746,-0.82313 0.52215,-0.51477 c 0.57672,-0.56855 0.60195,-0.63366 0.34515,-0.89045 -0.53465,-0.53466 -1.82029,0.20062 -1.71086,0.97846 0.0282,0.20082 0.0906,0.45589 0.13867,0.56684 0.048,0.11094 0.0431,0.19363 -0.011,0.18377 -0.74028,-0.13514 -1.28097,0.31904 -1.28097,1.07607 0,0.4363 0.0418,0.53344 0.2754,0.63987 0.15146,0.0691 0.3041,0.20028 0.33918,0.2917 0.0984,0.25645 -0.511,0.075 -0.76711,-0.22851 -0.45202,-0.53555 -0.0452,-1.72177 0.68755,-2.00483 0.42925,-0.16581 0.32037,-0.71444 -0.50848,-2.56196 l -0.42076,-0.93791 -0.48804,0.0641 c -0.62194,0.0817 -0.69463,0.13092 -0.69463,0.47035 0,0.39308 0.2423,0.92619 0.7287,1.60321 0.4645,0.64656 0.43744,0.62983 0.74921,0.46298 0.12326,-0.066 0.28465,-0.0993 0.35866,-0.0741 0.074,0.0252 -0.0859,0.15881 -0.35535,0.29689 -0.64517,0.33062 -1.42817,1.0618 -1.78004,1.66223 l -0.28291,0.48274 -0.41311,-0.20909 c -1.13457,-0.57423 -1.92606,-0.27571 -1.47981,0.55812 0.24974,0.46663 1.37237,0.73282 1.89993,0.45048 0.16423,-0.0879 0.23106,-0.0336 0.38334,0.31158 0.25177,0.57063 0.74962,0.84277 1.56196,0.85381 0.55399,0.007 0.64582,0.0374 0.59612,0.194 -0.0811,0.2556 1.08116,1.30155 3.08227,2.77371 1.62223,1.19345 1.75614,1.37381 1.02327,1.37814 -0.33155,0.002 -0.5531,0.36559 -0.5531,0.90779 0,0.45165 0.61007,1.10692 1.40498,1.50912 0.73433,0.37153 0.75699,0.47779 0.0487,0.22834 -0.66868,-0.23549 -1.24569,-0.64954 -1.49621,-1.07362 l -0.20677,-0.35004 -0.31245,0.29936 c -0.17185,0.16464 -0.45119,0.55425 -0.62077,0.86582 -0.38899,0.7147 -0.34115,1.21943 0.18496,1.95143 1.01415,1.411 1.21374,1.85849 0.82894,1.85849 -0.0927,0 -0.35885,0.17008 -0.59135,0.37796 -0.62174,0.55595 -0.87843,0.66959 -1.14142,0.50536 -0.50192,-0.31346 -2.10247,0.32686 -2.58257,1.0332 -0.22185,0.32637 -0.25848,0.49593 -0.21747,1.00635 0.0437,0.54481 0.0982,0.65607 0.48373,0.98935 0.85751,0.74127 2.4024,1.03733 5.23142,1.00256 1.60425,-0.0197 2.09553,-0.0651 2.6395,-0.24389 z m 4.16258,-0.57901 c 0.30294,-0.11328 0.75409,-0.38578 1.00256,-0.60556 0.40708,-0.36008 0.45703,-0.46308 0.50497,-1.04124 0.0518,-0.62418 0.0412,-0.65361 -0.38714,-1.08199 -0.44785,-0.44786 -0.88053,-0.62039 -1.9994,-0.79725 -0.50581,-0.0799 -0.62684,-0.055 -1.14162,0.23553 -0.3167,0.17874 -0.63508,0.32498 -0.70751,0.32498 -0.24416,0 -0.13409,-0.16922 0.2088,-0.321 0.74627,-0.33033 0.85695,-1.32442 0.20823,-1.87028 l -0.34471,-0.29005 -0.22529,0.28641 c -0.26416,0.33582 -0.99007,0.73066 -1.34331,0.73066 -0.24034,0 -0.24153,0.006 -0.0427,0.22596 0.25348,0.28008 0.17761,0.36163 -0.41175,0.44255 -0.30861,0.0424 -0.51929,0.14822 -0.63114,0.31705 -0.16701,0.25212 -0.16477,0.25344 0.43719,0.2559 0.97851,0.004 2.00796,0.58818 2.4173,1.37172 0.2285,0.43737 0.19571,1.15325 -0.0773,1.68844 l -0.23623,0.46303 1.10915,-0.0644 c 0.64552,-0.0375 1.33939,-0.15056 1.65995,-0.27042 z m -4.662,-4.20056 c 0,-0.11962 -0.36388,-0.34187 -0.55973,-0.34187 -0.0891,0 -0.0901,0.0634 -0.004,0.22527 0.12151,0.22704 0.56318,0.31848 0.56318,0.1166 z m 2.87221,-1.60881 c 0,-0.62556 -0.0298,-0.7199 -0.26631,-0.84497 -0.14646,-0.0774 -0.27783,-0.1408 -0.29191,-0.1408 -0.0647,0 -0.29539,0.92979 -0.24352,0.98166 0.0323,0.0323 0.0919,-0.074 0.13265,-0.23623 0.0842,-0.33563 0.18602,-0.3687 0.3875,-0.12593 0.0808,0.0974 0.0918,0.16895 0.0259,0.16895 -0.24643,0 -0.25202,0.37874 -0.009,0.637 0.13645,0.14525 0.25193,0.26417 0.25661,0.26429 0.005,1.1e-4 0.008,-0.31668 0.008,-0.70397 z m -6.92709,-3.13212 c 0,-0.0585 -0.0471,-0.10636 -0.10459,-0.10636 -0.1921,0 -0.45862,0.35108 -0.45502,0.59938 0.004,0.23359 0.0169,0.2302 0.28158,-0.0707 0.15292,-0.17382 0.27803,-0.36389 0.27803,-0.42238 z m 6.58919,-3.99352 c 1.07013,-0.22567 2.09937,-0.7507 2.58588,-1.31909 0.43634,-0.50976 0.50791,-0.72009 0.20185,-0.59316 -0.10842,0.045 -0.55192,0.10687 -0.98557,0.13758 -0.67848,0.048 -0.82772,0.0236 -1.07003,-0.17503 l -0.2816,-0.23085 0.90545,0.005 c 1.11665,0.005 1.77165,-0.18158 2.26431,-0.64621 0.32169,-0.30341 0.37827,-0.4335 0.37827,-0.86983 0,-0.61926 -0.36776,-1.12422 -0.96149,-1.32016 -0.63274,-0.20883 -1.04372,-0.0413 -1.88073,0.7668 -0.41933,0.40483 -0.77819,0.715 -0.79746,0.68927 -0.0193,-0.0257 -0.0897,-0.23407 -0.15636,-0.46297 -0.10586,-0.36316 -0.0929,-0.4419 0.10168,-0.61801 0.21474,-0.19432 0.22894,-0.19368 0.38326,0.0173 0.15758,0.21549 0.16447,0.2149 0.41221,-0.0353 l 0.25195,-0.25452 -0.47434,-0.44485 c -0.3646,-0.34194 -0.56501,-0.44486 -0.86628,-0.44486 -0.50668,0 -0.58746,0.14909 -0.29972,0.55318 0.36136,0.50749 0.27343,0.56166 -0.1257,0.0774 -0.35061,-0.42535 -1.08058,-0.8485 -1.47223,-0.85342 -0.52158,-0.006 -0.80838,0.76352 -0.49483,1.32862 0.12909,0.23265 0.16079,0.24184 0.29139,0.0845 0.20099,-0.24218 0.53743,-0.22169 0.67818,0.0413 0.15424,0.28821 0.1482,0.71919 -0.0123,0.87972 -0.18838,0.18838 0.35187,0.29834 1.06759,0.2173 l 0.58192,-0.0659 -0.26591,0.22027 c -0.52036,0.43105 -1.33142,0.23902 -2.00235,-0.4741 -0.48119,-0.51144 -0.71658,-1.01327 -0.71658,-1.52769 0,-0.84478 0.53481,-1.18093 1.37525,-0.86438 0.26577,0.1001 0.74653,0.17383 1.06833,0.16384 0.65952,-0.0205 1.13698,0.17935 1.48468,0.62138 0.21501,0.27334 0.25907,0.28471 0.62944,0.16247 0.21905,-0.0723 0.39926,-0.16552 0.4005,-0.20718 9e-4,-0.0417 -0.26488,-0.31488 -0.59134,-0.60718 l -0.59358,-0.53143 0.35874,-0.004 c 0.47859,-0.005 0.88923,0.16111 0.97921,0.39558 0.0592,0.15427 0.0241,0.1788 -0.18175,0.12711 l -0.25511,-0.0641 0.27048,0.22314 c 0.14876,0.12272 0.32617,0.20489 0.39422,0.18258 0.25263,-0.0828 0.20023,-0.65778 -0.0993,-1.09005 -0.24011,-0.34647 -0.41787,-0.46121 -0.93769,-0.60523 -1.31625,-0.36467 -2.81044,-0.65729 -3.72982,-0.73042 -0.65763,-0.0524 -0.96424,-0.12346 -1.00022,-0.23207 -0.0428,-0.12934 0.10666,-0.14278 0.85873,-0.0772 0.50084,0.0437 1.29306,0.17056 1.76051,0.28193 0.81429,0.194 0.84991,0.19408 0.84991,0.002 0,-0.11031 0.028,-0.27361 0.0622,-0.3629 0.0469,-0.12235 -0.10098,-0.19446 -0.60065,-0.29276 -0.67869,-0.13353 -1.30356,-0.45341 -0.90019,-0.46084 0.10706,-0.002 0.84201,0.1023 1.63322,0.23169 2.06885,0.33837 2.87152,0.17728 3.01843,-0.60576 0.21645,-1.15379 -1.19867,-2.41675 -3.37779,-3.01457 -0.70806,-0.19427 -1.10825,-0.23471 -1.96716,-0.19881 -0.96133,0.0402 -1.16988,0.0896 -1.92303,0.45526 -1.56041,0.7577 -2.79414,2.16107 -3.55345,4.04203 l -0.3815,0.94507 0.47505,0.0817 c 0.93314,0.16044 1.29871,1.04969 0.63365,1.54138 -0.46697,0.34525 -0.70416,0.93633 -0.61482,1.53212 l 0.0702,0.46851 0.50533,-0.0767 c 0.27794,-0.0422 0.78963,-0.0321 1.13711,0.0224 0.34747,0.0544 0.64018,0.0847 0.65046,0.0671 0.0103,-0.0176 0.20727,-0.42115 0.43773,-0.89671 0.23046,-0.47555 0.56214,-0.98508 0.73707,-1.13227 0.17494,-0.1472 0.35247,-0.40474 0.39454,-0.57233 0.10277,-0.40952 0.62179,-0.9545 0.99122,-1.04084 0.21872,-0.0511 0.36366,-0.006 0.53502,0.16494 0.33844,0.33844 0.29666,0.47006 -0.10481,0.33012 -0.46049,-0.16053 -0.83151,0.0911 -1.15433,0.78306 -0.31462,0.67433 -0.30425,0.6618 -0.40837,0.49332 -0.10367,-0.16774 -0.70032,0.89641 -0.92022,1.64123 -0.12462,0.42212 -0.11798,0.50408 0.0565,0.69688 0.29745,0.32867 0.11061,0.50717 -0.25693,0.24546 -0.4975,-0.35426 -1.43374,-0.61073 -1.99748,-0.54719 -0.49897,0.0563 -0.949,0.3333 -0.949,0.58424 0,0.0702 0.25116,0.37497 0.55814,0.67733 0.55673,0.54836 0.55993,0.54969 1.26715,0.5287 0.69975,-0.0208 1.21194,0.13587 1.298,0.39697 0.0331,0.10054 -0.0556,0.10181 -0.37012,0.005 -0.36302,-0.11141 -0.43283,-0.10083 -0.56973,0.0864 -0.21768,0.2977 -0.21232,0.30872 0.31708,0.65198 0.31536,0.20449 0.51062,0.2692 0.5857,0.19413 0.14772,-0.14772 0.51812,-0.14519 0.51812,0.004 0,0.0639 -0.0758,0.14523 -0.16831,0.18076 -0.0926,0.0355 -0.14018,0.11009 -0.10579,0.16571 0.0358,0.0578 0.16013,0.0489 0.2903,-0.0208 0.17474,-0.0935 0.27155,-0.0827 0.41555,0.0465 0.3546,0.31827 2.22687,0.38863 3.45418,0.12981 z m -1.26191,-0.509 c -0.9073,-0.18345 -1.45684,-0.61324 -1.56694,-1.22548 -0.04,-0.2224 -0.12278,-0.46744 -0.18395,-0.54452 -0.14342,-0.18075 0.31854,-0.58296 0.6756,-0.58824 0.3196,-0.005 0.32495,0.15867 0.0123,0.37761 -0.19765,0.13843 -0.22905,0.24282 -0.1744,0.57961 0.0842,0.51913 0.24607,0.71284 0.80969,0.96922 0.80508,0.36623 2.32748,0.18798 3.01528,-0.35304 0.38281,-0.30113 0.46386,-0.28436 0.24442,0.0505 -0.38152,0.58228 -1.7847,0.9461 -2.83207,0.7343 z m 1.82508,-5.98111 c -0.18585,-0.11511 -0.52639,-0.20956 -0.75676,-0.20988 -0.32695,-4.3e-4 -0.40454,-0.0378 -0.35363,-0.17052 0.0898,-0.2341 0.56485,-0.33441 0.88747,-0.18741 0.25294,0.11525 0.69743,0.65937 0.60424,0.73969 -0.0239,0.0206 -0.19547,-0.0568 -0.38132,-0.17188 z m -11.68959,0.68179 c -0.19933,-0.23223 -0.55602,-0.65471 -0.79266,-0.93884 -0.32656,-0.39211 -0.50756,-0.5166 -0.75108,-0.5166 -0.56949,0 -0.67717,0.098 -0.67717,0.61635 0,0.60788 0.27514,0.96799 1.17362,1.53609 l 0.68159,0.43097 0.36406,-0.35287 0.36405,-0.35285 z"
         id="path13725" />
      <circle
         style="fill:none;stroke:#ff0000;stroke-width:0.1;stroke-dasharray:none"
         id="path788-8-1-8-1-9-2-9-3-7-1-8"
         cx="-8.5317345"
         cy="-303.57773"
         r="19.954653" />
      <ellipse
         style="fill:none;stroke:#ff00ff;stroke-width:0.1;stroke-dasharray:none;stroke-opacity:1"
         id="path1138-9-4-0-0-1-2-25-0-9-29-0"
         cx="-8.5317345"
         cy="-303.57773"
         rx="18.492125"
         ry="18.492126" />
      <circle
         style="fill:none;stroke:#0000ff;stroke-width:0.1;stroke-linecap:round;stroke-dasharray:none;stroke-opacity:1;paint-order:markers stroke fill"
         id="path13019-1-33-5-7-7-4-5"
         cx="-8.5317383"
         cy="-318.58871"
         r="2" />
    </g>
  </g>
</svg>
