<?xml version="1.0" encoding="UTF-8" standalone="no"?>
<!-- Created with Inkscape (http://www.inkscape.org/) -->

<svg
   width="41.008999mm"
   height="41.008999mm"
   viewBox="0 0 41.008999 41.008999"
   version="1.1"
   id="svg1"
   inkscape:version="1.4.2 (f4327f4, 2025-05-13)"
   sodipodi:docname="362.svg"
   xmlns:inkscape="http://www.inkscape.org/namespaces/inkscape"
   xmlns:sodipodi="http://sodipodi.sourceforge.net/DTD/sodipodi-0.dtd"
   xmlns="http://www.w3.org/2000/svg"
   xmlns:svg="http://www.w3.org/2000/svg">
  <sodipodi:namedview
     id="namedview1"
     pagecolor="#ffffff"
     bordercolor="#000000"
     borderopacity="0.25"
     inkscape:showpageshadow="2"
     inkscape:pageopacity="0.0"
     inkscape:pagecheckerboard="0"
     inkscape:deskcolor="#d1d1d1"
     inkscape:document-units="mm"
     inkscape:zoom="1.4513545"
     inkscape:cx="86.470947"
     inkscape:cy="71.657199"
     inkscape:window-width="1050"
     inkscape:window-height="1081"
     inkscape:window-x="857"
     inkscape:window-y="0"
     inkscape:window-maximized="0"
     inkscape:current-layer="layer1"
     showguides="false" />
  <defs
     id="defs1" />
  <g
     inkscape:label="Layer 1"
     inkscape:groupmode="layer"
     id="layer1"
     transform="translate(333.37504,1257.5646)">
    <g
       id="g590"
       transform="translate(-375.88128,-1282.0487)">
      <circle
         style="fill:none;stroke:#0000ff;stroke-width:0.1;stroke-linecap:round;stroke-dasharray:none;stroke-opacity:1;paint-order:markers stroke fill"
         id="circle6695-6-0-4-8"
         cx="63.010735"
         cy="28.826027"
         r="2" />
      <path
         style="fill:#000000;stroke-width:0.319463"
         d="m 55.666986,64.918219 c -0.8165,-0.259695 -1.3187,-0.762084 -1.7213,-1.721606 -0.1309,-0.312166 -0.5301,-1.755496 -0.8869,-3.207401 l -0.6488,-2.639825 -0.4139,-0.297325 c -0.2276,-0.163528 -0.5491,-0.485687 -0.7145,-0.71591 -0.1654,-0.230223 -0.3711,-0.440908 -0.457,-0.468189 -0.2474,-0.07851 -0.8395,-0.771005 -1.0329,-1.207934 -0.1126,-0.254556 -0.1914,-0.650665 -0.2177,-1.094509 -0.075,-1.266138 0.3958,-2.345191 1.8277,-4.189533 0.3683,-0.474411 0.7689,-0.954777 0.8901,-1.06748 0.2704,-0.251402 0.2786,-0.344315 0.03,-0.345088 -0.4741,-0.0015 -1.7048,-0.38019 -2.5147,-0.77383 -0.7601,-0.369469 -0.9846,-0.529836 -1.5644,-1.117477 -1.0283,-1.04232 -1.4413,-2.023167 -1.536,-3.647922 -0.055,-0.940877 0.1022,-1.957746 0.4143,-2.683645 0.1646,-0.382636 0.1683,-0.454026 0.068,-1.296408 -0.1246,-1.052003 -0.068,-1.829428 0.2188,-3.014762 0.1125,-0.464773 0.1919,-0.857675 0.1765,-0.873116 -0.015,-0.01544 -0.2548,-0.174643 -0.532,-0.35378 -0.6491,-0.419554 -1.083,-0.8027 -1.4864,-1.312578 -0.2884,-0.364534 -0.3236,-0.4609 -0.3236,-0.884924 v -0.475841 l 0.6551,-0.638927 c 0.3603,-0.35141 0.8677,-0.778482 1.1276,-0.949048 1.127,-0.73967 2.6171,-1.323798 3.8382,-1.504552 0.5947,-0.08804 0.717,-0.13773 1.0153,-0.412473 1.5686,-1.445087 4.599,-2.589749 7.7654,-2.933196 1.5399,-0.167019 4.4408,-0.123457 5.7508,0.08636 1.1108,0.177905 2.62,0.565265 3.6379,0.93372 1.1192,0.405134 2.7234,1.245518 3.5772,1.873962 0.5757,0.423791 0.7994,0.536232 1.2276,0.617185 1.3906,0.262884 3.1357,1.027725 4.3928,1.925346 0.7831,0.559168 2.1809,1.914007 2.3991,2.325468 0.088,0.165065 0.1481,0.468512 0.1499,0.751101 0,0.389336 -0.042,0.540523 -0.2486,0.845247 -0.3496,0.515732 -1.6027,1.747942 -2.1395,2.103857 l -0.4463,0.295836 0.048,0.380361 c 0.3001,2.354005 0.275,4.346337 -0.072,5.724357 -0.1198,0.475304 -0.3284,1.108118 -0.4636,1.406254 -0.5223,1.152105 -1.4845,2.28932 -2.5536,3.018177 -0.609,0.415228 -1.7741,0.920356 -2.1278,0.92252 -0.2922,0.0018 -0.2906,0.06886 0.015,0.615506 0.6647,1.190811 0.843,2.891415 0.4407,4.203821 -0.2432,0.793108 -0.654,1.540766 -1.15,2.092392 -0.3814,0.424208 -0.383,0.428443 -0.383,1.051674 0,2.247832 -0.5177,5.994842 -0.9602,6.949092 -0.2817,0.607561 -0.8268,1.185259 -1.3685,1.450276 -1.3552,0.663055 -2.8403,-0.06378 -3.8637,-1.891049 l -0.3643,-0.65051 -1.941,-0.09538 c -1.0676,-0.05246 -2.4946,-0.121494 -3.1712,-0.153405 l -1.2301,-0.05802 -0.1126,0.566481 c -0.1449,0.729074 -0.6017,1.639177 -0.9966,1.985973 -0.5987,0.525643 -1.4093,0.746197 -2.024,0.550684 z m 1.1953,-0.700108 c 0.583,-0.293625 0.9763,-0.843026 1.1982,-1.673597 0.1748,-0.654282 0.1614,-0.695846 -0.2443,-0.763418 -0.766,-0.127536 -1.14,-0.370632 -1.0263,-0.666966 0.075,-0.195862 0.2614,-0.219416 0.6444,-0.08149 0.4222,0.152061 1.5713,0.234822 5.2209,0.376032 1.4644,0.05666 2.7276,0.136239 2.8071,0.176843 0.079,0.0406 0.3205,0.414606 0.5356,0.831115 0.97,1.87797 2.4618,2.44124 3.6133,1.364198 0.5265,-0.492466 0.6767,-0.793699 0.8906,-1.785723 0.2846,-1.320129 0.6058,-4.157221 0.6058,-5.35043 v -0.329684 l -0.4526,0.409973 c -0.7343,0.665114 -1.3497,0.992363 -1.8756,0.99738 -0.3599,0.0034 -0.4895,-0.03554 -0.6645,-0.199816 -0.1919,-0.18014 -0.2349,-0.190056 -0.3662,-0.08452 -0.4643,0.373031 -0.8108,0.425311 -0.9608,0.14497 -0.1082,-0.202114 -0.1088,-0.201354 0.5155,-0.602406 0.1624,-0.104296 0.4286,-0.384719 0.5917,-0.623163 0.163,-0.238444 0.4771,-0.668792 0.698,-0.956328 0.4564,-0.594366 0.4909,-0.809353 0.1877,-1.169681 -0.4781,-0.568226 -1.2924,-0.648105 -2.1783,-0.213667 -0.4757,0.233325 -0.6982,0.227214 -0.7938,-0.0218 -0.068,-0.177372 0.2809,-0.470708 0.7925,-0.666056 0.2615,-0.09987 0.3647,-0.187033 0.3647,-0.307872 0,-0.422245 0.796,-0.831754 1.6167,-0.831754 0.5396,0 0.8752,-0.600834 0.9915,-1.775018 0.049,-0.496276 0.074,-0.552169 0.2561,-0.577936 0.111,-0.01569 0.234,0.02235 0.2734,0.08452 0.1171,0.18466 0.084,1.021113 -0.059,1.503667 -0.2789,0.938861 -0.739,1.341873 -1.6457,1.44141 -0.3095,0.03397 -0.6349,0.10367 -0.7231,0.154878 -0.1365,0.07927 -0.1101,0.09376 0.1777,0.09753 0.469,0.0061 0.9574,0.249211 1.3292,0.661568 0.5511,0.611252 0.546,1.197235 -0.017,1.901273 -0.6179,0.773264 -0.7815,1.0503 -0.725,1.228019 0.072,0.228689 0.2307,0.272496 0.588,0.162852 0.6848,-0.210196 2.5832,-2.011744 3.1688,-3.00722 0.9184,-1.56147 0.8875,-3.593499 -0.079,-5.163852 l -0.265,-0.430783 -0.5211,0.0074 c -0.2865,0.004 -0.8605,0.03323 -1.2755,0.06485 -0.6126,0.04668 -0.7845,0.03323 -0.9138,-0.07149 -0.1948,-0.157776 -0.1231,-0.406386 0.1351,-0.467894 0.099,-0.0237 0.9225,-0.09607 1.829,-0.160829 1.3825,-0.09875 1.7419,-0.153019 2.2289,-0.336551 1.9206,-0.723769 3.4123,-2.417784 3.9372,-4.471018 0.3543,-1.385734 0.4204,-2.863389 0.2163,-4.834174 -0.1797,-1.736087 -0.2097,-1.586542 0.4007,-1.99779 0.2906,-0.195722 0.9139,-0.742939 1.3852,-1.216037 1.1884,-1.193025 1.2291,-1.468675 0.3587,-2.433041 -1.5284,-1.693452 -3.6224,-2.898647 -5.8295,-3.355104 -0.657,-0.135873 -0.7951,-0.201378 -1.457,-0.690819 -1.9473,-1.439896 -4.7733,-2.481989 -7.6401,-2.817338 -1.3761,-0.160971 -3.8191,-0.162056 -5.1848,-0.0023 -1.8731,0.219113 -3.9812,0.810341 -5.3628,1.50403 -0.6399,0.321349 -1.3881,0.822568 -1.9863,1.330769 -0.4377,0.371898 -0.5079,0.400836 -1.2026,0.496 -1.4697,0.201328 -2.9776,0.864633 -4.2134,1.853437 -1.2091,0.967429 -1.2437,1.202049 -0.3094,2.097893 0.4133,0.396192 0.8583,0.724506 1.2485,0.921008 0.6972,0.351087 0.6721,0.213068 0.2919,1.604507 -0.1901,0.696053 -0.2324,1.031739 -0.2396,1.901804 0,0.581108 0.037,1.253715 0.093,1.494685 0.094,0.405576 0.086,0.472548 -0.1107,0.901473 -0.2871,0.627138 -0.457,1.480072 -0.457,2.294961 0,2.064162 0.9401,3.673657 2.6317,4.50581 1.3452,0.661751 2.2555,0.863697 4.1274,0.915701 1.0082,0.02801 1.339,0.06528 1.4355,0.161736 0.345,0.34497 -0.4758,0.602998 -1.6153,0.507808 l -0.5602,-0.04679 -0.5809,0.61257 c -1.0178,1.073248 -1.9891,2.462461 -2.3489,3.359338 -0.2191,0.546496 -0.2753,1.654496 -0.1087,2.14357 0.1388,0.407249 0.556,1.022551 0.6379,0.940684 0.026,-0.02627 0.062,-0.15047 0.078,-0.276006 0.074,-0.553602 0.6112,-1.219965 1.0775,-1.337008 0.4078,-0.102351 0.1361,-0.284213 -0.4284,-0.28674 -0.2894,-0.0013 -0.4607,-0.131816 -0.4607,-0.35117 0,-0.207249 0.1541,-0.282049 0.5829,-0.283051 0.3317,-7.67e-4 0.3748,-0.02354 0.4015,-0.21218 0.14,-0.98613 1.1614,-2.663863 1.585,-2.603376 0.3153,0.04503 0.2604,0.36103 -0.1669,0.959806 -0.7423,1.040264 -0.9693,1.951649 -0.6519,2.61729 0.1873,0.392611 0.094,0.542954 -0.4185,0.673025 -0.6642,0.168631 -0.9094,0.50665 -0.9094,1.253257 0,0.414306 0.032,0.493828 0.3439,0.847911 0.6956,0.790284 2.6783,1.456009 5.3211,1.786686 1.7936,0.224417 4.8533,0.164748 6.7478,-0.131593 0.5762,-0.09014 0.773,-0.02392 0.773,0.260145 0,0.253186 -0.1752,0.312882 -1.3524,0.460823 -3.3143,0.416514 -6.8994,0.179985 -9.4638,-0.624377 -0.44,-0.138015 -0.8119,-0.23901 -0.8265,-0.224434 -0.049,0.04913 1.1443,4.736216 1.335,5.24316 0.2206,0.586249 0.8393,1.260245 1.276,1.389986 0.3325,0.09878 0.766,0.04717 1.1257,-0.134016 z m 1.144,-9.490769 c -2.3832,-0.210245 -2.9063,-0.379369 -2.483,-0.802725 0.087,-0.0871 0.2184,-0.12119 0.3592,-0.09331 1.2638,0.250123 4.1906,0.41176 5.8007,0.320354 0.7045,-0.04 1.3335,-0.03974 1.4157,5.76e-4 0.1817,0.08912 0.1924,0.347105 0.02,0.489939 -0.1574,0.130594 -3.8927,0.192815 -5.1129,0.08517 z m 0,-12.709264 c -0.4196,-0.212082 -0.6193,-0.960422 -0.7242,-2.714079 -0.055,-0.926727 -0.061,-0.946077 -0.3,-1.083387 -0.3088,-0.177211 -0.3859,-0.375084 -0.2134,-0.547567 0.1168,-0.116774 0.1792,-0.120295 0.4642,-0.02621 0.3703,0.122187 0.6213,0.04133 0.7774,-0.250348 0.1394,-0.260349 0.4771,-0.214814 0.6323,0.08524 0.1558,0.301366 0.4369,0.389763 0.8285,0.260538 0.3665,-0.120959 0.5668,-0.0436 0.5668,0.218929 0,0.15407 -0.071,0.236389 -0.2806,0.323846 l -0.2807,0.117266 -0.1089,0.956111 c -0.1235,1.084832 -0.3548,2.074984 -0.5566,2.382927 -0.182,0.277825 -0.5513,0.404808 -0.8048,0.276732 z m 0.4616,-1.090744 c 0.1467,-0.519568 0.3021,-1.612812 0.3021,-2.124468 0,-0.299736 -0.041,-0.388854 -0.2522,-0.544842 -0.2163,-0.159894 -0.2778,-0.171202 -0.4316,-0.07929 -0.172,0.102891 -0.1776,0.153099 -0.1376,1.248286 0.041,1.116089 0.1779,1.944067 0.322,1.944067 0.04,0 0.1285,-0.19969 0.1973,-0.443753 z m 5.4159,-2.513533 c -0.1395,-0.09229 -0.3162,-0.148021 -0.3926,-0.12384 -0.1002,0.03168 -0.1887,-0.05873 -0.317,-0.323683 -0.224,-0.462817 -0.2235,-0.673878 0,-1.141094 0.6083,-1.256553 2.4722,-0.824356 2.4722,0.573245 0,0.257636 -0.064,0.496454 -0.1874,0.695614 -0.1699,0.274778 -0.229,0.30652 -0.6291,0.337707 -0.2429,0.01893 -0.4987,0.06039 -0.5684,0.09214 -0.072,0.03254 -0.2374,-0.01549 -0.3804,-0.110088 z m -10.961,-0.584729 c -0.4476,-0.355479 -0.5267,-1.20164 -0.1563,-1.67261 0.3011,-0.382736 0.5979,-0.531915 1.0588,-0.532178 0.7776,-4.47e-4 1.3093,0.524681 1.3099,1.293685 0,0.740552 -0.2667,0.950138 -1.3214,1.036437 -0.5973,0.04887 -0.6876,0.03617 -0.891,-0.125334 z m 9.7776,-2.142646 c -0.3859,-0.219572 -0.6487,-0.661999 -0.6147,-1.035048 0.02,-0.216873 0.058,-0.253574 0.2634,-0.253574 0.2036,0 0.2576,0.05034 0.3536,0.329649 0.1465,0.426278 0.2524,0.490194 0.7287,0.440113 0.3176,-0.03338 0.4219,-0.0093 0.5441,0.125728 0.1454,0.160686 0.1449,0.173184 -0.013,0.328837 -0.2657,0.262631 -0.8606,0.292928 -1.2625,0.0643 z m -8.6593,-0.437972 c -0.155,-0.186757 0.028,-0.44171 0.362,-0.504368 0.3191,-0.05986 0.5075,-0.230748 0.6407,-0.581046 0.1636,-0.430203 0.5988,-0.366807 0.5988,0.08722 0,0.687158 -1.2256,1.451081 -1.6015,0.998194 z"
         id="path531" />
      <path
         style="vector-effect:non-scaling-stroke;fill:none;stroke:#ff0000;stroke-width:0.264583;stroke-dasharray:none;stroke-opacity:1;-inkscape-stroke:hairline"
         d="m 55.666986,64.918219 c -0.8165,-0.259695 -1.3187,-0.762084 -1.7213,-1.721606 -0.1309,-0.312166 -0.5301,-1.755496 -0.8869,-3.207401 l -0.6488,-2.639825 -0.4139,-0.297325 c -0.2276,-0.163528 -0.5491,-0.485687 -0.7145,-0.71591 -0.1654,-0.230223 -0.3711,-0.440908 -0.457,-0.468189 -0.2474,-0.07851 -0.8395,-0.771005 -1.0329,-1.207934 -0.1126,-0.254556 -0.1914,-0.650665 -0.2177,-1.094509 -0.075,-1.266138 0.3958,-2.345191 1.8277,-4.189533 0.3683,-0.474411 0.7689,-0.954777 0.8901,-1.06748 0.2704,-0.251402 0.2786,-0.344315 0.03,-0.345088 -0.4741,-0.0015 -1.7048,-0.38019 -2.5147,-0.77383 -0.7601,-0.369469 -0.9846,-0.529836 -1.5644,-1.117477 -1.0283,-1.04232 -1.4413,-2.023167 -1.536,-3.647922 -0.055,-0.940877 0.1022,-1.957746 0.4143,-2.683645 0.1646,-0.382636 0.1683,-0.454026 0.068,-1.296408 -0.1246,-1.052003 -0.068,-1.829428 0.2188,-3.014762 0.1125,-0.464773 0.1919,-0.857675 0.1765,-0.873116 -0.015,-0.01544 -0.2548,-0.174643 -0.532,-0.35378 -0.6491,-0.419554 -1.083,-0.8027 -1.4864,-1.312578 -0.2884,-0.364534 -0.3236,-0.4609 -0.3236,-0.884924 v -0.475841 l 0.6551,-0.638927 c 0.3603,-0.35141 0.8677,-0.778482 1.1276,-0.949048 1.127,-0.73967 2.6171,-1.323798 3.8382,-1.504552 0.5947,-0.08804 0.717,-0.13773 1.0153,-0.412473 1.5686,-1.445087 4.599,-2.589749 7.7654,-2.933196 1.5399,-0.167019 4.4408,-0.123457 5.7508,0.08636 1.1108,0.177905 2.62,0.565265 3.6379,0.93372 1.1192,0.405134 2.7234,1.245518 3.5772,1.873962 0.5757,0.423791 0.7994,0.536232 1.2276,0.617185 1.3906,0.262884 3.1357,1.027725 4.3928,1.925346 0.7831,0.559168 2.1809,1.914007 2.3991,2.325468 0.088,0.165065 0.1481,0.468512 0.1499,0.751101 0,0.389336 -0.042,0.540523 -0.2486,0.845247 -0.3496,0.515732 -1.6027,1.747942 -2.1395,2.103857 l -0.4463,0.295836 0.048,0.380361 c 0.3001,2.354005 0.275,4.346337 -0.072,5.724357 -0.1198,0.475304 -0.3284,1.108118 -0.4636,1.406254 -0.5223,1.152105 -1.4845,2.28932 -2.5536,3.018177 -0.609,0.415228 -1.7741,0.920356 -2.1278,0.92252 -0.2922,0.0018 -0.2906,0.06886 0.015,0.615506 0.6647,1.190811 0.843,2.891415 0.4407,4.203821 -0.2432,0.793108 -0.654,1.540766 -1.15,2.092392 -0.3814,0.424208 -0.383,0.428443 -0.383,1.051674 0,2.247832 -0.5177,5.994842 -0.9602,6.949092 -0.2817,0.607561 -0.8268,1.185259 -1.3685,1.450276 -1.3552,0.663055 -2.8403,-0.06378 -3.8637,-1.891049 l -0.3643,-0.65051 -1.941,-0.09538 c -1.0676,-0.05246 -2.4946,-0.121494 -3.1712,-0.153405 l -1.2301,-0.05802 -0.1126,0.566481 c -0.1449,0.729074 -0.6017,1.639177 -0.9966,1.985973 -0.5987,0.525643 -1.4093,0.746197 -2.024,0.550684 z"
         id="path539" />
    </g>
  </g>
</svg>
