<?xml version="1.0" encoding="UTF-8" standalone="no"?>
<!-- Created with Inkscape (http://www.inkscape.org/) -->

<svg
   width="41.008999mm"
   height="41.008999mm"
   viewBox="0 0 41.008999 41.008999"
   version="1.1"
   id="svg1"
   inkscape:version="1.4.2 (f4327f4, 2025-05-13)"
   sodipodi:docname="363.svg"
   xmlns:inkscape="http://www.inkscape.org/namespaces/inkscape"
   xmlns:sodipodi="http://sodipodi.sourceforge.net/DTD/sodipodi-0.dtd"
   xmlns="http://www.w3.org/2000/svg"
   xmlns:svg="http://www.w3.org/2000/svg">
  <sodipodi:namedview
     id="namedview1"
     pagecolor="#ffffff"
     bordercolor="#000000"
     borderopacity="0.25"
     inkscape:showpageshadow="2"
     inkscape:pageopacity="0.0"
     inkscape:pagecheckerboard="0"
     inkscape:deskcolor="#d1d1d1"
     inkscape:document-units="mm"
     inkscape:zoom="1.4513545"
     inkscape:cx="86.470947"
     inkscape:cy="71.657199"
     inkscape:window-width="1050"
     inkscape:window-height="1081"
     inkscape:window-x="857"
     inkscape:window-y="0"
     inkscape:window-maximized="0"
     inkscape:current-layer="layer1"
     showguides="false" />
  <defs
     id="defs1" />
  <g
     inkscape:label="Layer 1"
     inkscape:groupmode="layer"
     id="layer1"
     transform="translate(333.37504,1257.5646)">
    <g
       id="g592"
       transform="translate(-375.88128,-1282.0487)">
      <circle
         style="fill:none;stroke:#0000ff;stroke-width:0.1;stroke-linecap:round;stroke-dasharray:none;stroke-opacity:1;paint-order:markers stroke fill"
         id="circle6695-6-0-4-3"
         cx="59.788849"
         cy="29.900557"
         r="2" />
      <path
         style="fill:#000000;stroke-width:0.315998"
         d="m 66.791947,63.585823 c -3.42905,-0.41413 -6.39725,-1.2841 -9.40782,-2.75743 -2.59542,-1.27017 -4.79688,-2.96863 -5.68938,-4.38945 -0.29065,-0.4627 -0.29836,-0.46783 -0.8543,-0.5696 -2.55598,-0.46784 -5.39787,-1.85721 -6.78434,-3.31681 -0.77162,-0.81231 -1.03568,-1.32892 -1.04412,-2.04267 -0.005,-0.44491 0.0338,-0.61167 0.21533,-0.91969 0.37884,-0.64277 1.03068,-0.98275 1.70658,-0.89011 l 0.3607,0.0494 -0.42644,-0.56205 c -1.35993,-1.79239 -1.77179,-4.48827 -1.03109,-6.74903 0.11012,-0.33611 0.23479,-1.03015 0.29285,-1.63035 0.17997,-1.86041 0.59445,-3.54507 1.26506,-5.14187 l 0.35113,-0.83608 0.013,-2.29921 c 0.0125,-2.20539 0.0221,-2.33255 0.23481,-3.11613 0.25944,-0.95573 0.60518,-1.64493 0.89936,-1.7928 0.61332,-0.30829 2.38897,0.0765 3.97478,0.86137 l 0.75589,0.3741 0.62682,-0.28961 c 1.79461,-0.82916 4.30407,-1.30046 6.93286,-1.30205 4.17796,-0.003 7.94405,0.93829 10.86934,2.7153 0.3688,0.22404 0.57297,0.29241 0.87307,0.29241 0.21541,0 0.46335,0.0383 0.55091,0.0852 0.13629,0.073 0.18334,0.0379 0.32702,-0.24378 0.0923,-0.18094 0.28636,-0.41338 0.43125,-0.51654 0.53884,-0.38368 1.53998,-0.27202 2.00568,0.2237 0.1722,0.18325 0.2004,0.29613 0.2007,0.80283 0,0.53808 0.019,0.60104 0.2094,0.72042 0.115,0.072 0.276,0.18682 0.3578,0.25526 0.082,0.0684 0.3075,0.1364 0.5016,0.15101 1.6925,0.12734 3.1921,0.57309 3.5245,1.04762 0.1879,0.26825 0.1707,1.4753 -0.035,2.48702 -0.3083,1.51304 -1.1015,3.52158 -1.8635,4.71889 l -0.2606,0.40937 -0.01,1.97345 c -0.01,1.44751 -0.047,2.21855 -0.1553,2.89314 -0.3393,2.11847 -0.8238,3.55476 -1.586,4.70124 -0.4284,0.64431 -0.447,0.69145 -0.2734,0.69145 0.2436,0 1.7837,0.84268 2.2934,1.25487 0.5006,0.40489 0.5368,0.42026 0.6528,0.27668 0.2442,-0.30233 0.4395,-0.83698 0.6077,-1.6636 0.2912,-1.43093 0.5229,-1.91047 1.0422,-2.15685 0.605,-0.28714 1.2434,-0.11367 1.586,0.43101 0.3092,0.49145 0.4175,1.10372 0.3643,2.05862 -0.084,1.50781 -0.6351,3.03635 -1.4277,3.95998 -0.3416,0.39803 -0.3698,0.46295 -0.2948,0.6781 0.079,0.22759 0.1109,0.23991 0.7268,0.28332 0.8866,0.0625 1.5431,0.32579 2.0324,0.81507 0.4203,0.42032 0.5749,0.79474 0.5757,1.39394 0,0.43665 -0.1043,0.71775 -0.4137,1.10834 l -0.2419,0.30545 0.2437,0.3628 c 0.3101,0.46183 0.4113,0.83155 0.4119,1.50496 0,0.91524 -0.4321,1.51593 -1.4626,2.02965 -0.7435,0.37059 -1.5113,0.50422 -3.9714,0.69122 -0.9427,0.0717 -2.1278,0.20401 -2.6337,0.29413 -1.8676,0.33274 -2.93779,0.41869 -5.09754,0.40944 -1.20802,-0.005 -2.49913,-0.058 -3.05418,-0.12509 z m 5.02066,-0.70556 c 1.03376,-0.0801 3.11669,-0.36991 3.24979,-0.45213 0.031,-0.0192 0.8071,-0.0949 1.7246,-0.16833 3.4556,-0.27635 4.3771,-0.47668 5.0065,-1.08845 0.4068,-0.39538 0.4811,-0.6483 0.3774,-1.28523 -0.1365,-0.83907 -0.7525,-1.32549 -1.913,-1.51065 -0.2961,-0.0472 -0.5878,-0.13535 -0.6483,-0.19578 -0.063,-0.0631 -0.1444,-0.47186 -0.1909,-0.96034 -0.3202,-3.36057 -2.0033,-5.75539 -4.7329,-6.73431 l -0.5923,-0.21243 -0.6585,0.53555 c -1.40612,1.14365 -3.24851,1.82917 -5.47253,2.03623 -1.82972,0.17036 -2.34101,0.0922 -2.34101,-0.35777 0,-0.32605 0.1538,-0.38821 0.96048,-0.38821 1.58223,0 3.4869,-0.36372 4.64124,-0.88629 0.6945,-0.31441 1.33525,-0.72222 1.27866,-0.81381 -0.0278,-0.0448 -0.009,-0.0557 0.0422,-0.0242 0.13854,0.0856 1.06996,-0.74493 1.58236,-1.41094 1.355,-1.7613 2.026,-4.60421 1.924,-8.15175 l -0.044,-1.54674 0.3392,-0.54161 c 1.0964,-1.75097 1.8736,-3.94549 2.0322,-5.73833 0.037,-0.42038 0.021,-0.61284 -0.061,-0.71271 -0.1473,-0.17995 -1.016,-0.45447 -1.9414,-0.61348 -0.9853,-0.16931 -1.1331,-0.16648 -1.0842,0.0208 0.022,0.0816 -0.02,0.26032 -0.091,0.39714 -0.1572,0.30152 -0.166,0.45653 -0.026,0.46154 0.9841,0.0353 2.172,0.28798 2.367,0.50345 0.1432,0.15822 0.1435,0.20185 0.01,0.96461 -0.1973,1.11342 -0.7774,2.5752 -1.5063,3.79548 -0.1511,0.25291 -0.3223,0.45984 -0.3806,0.45984 -0.058,0 -0.2474,-0.37624 -0.4205,-0.83608 -0.1731,-0.45984 -0.4568,-1.12908 -0.6306,-1.48719 -0.1737,-0.35811 -0.2972,-0.66981 -0.2744,-0.69266 0.023,-0.0229 0.2065,-0.004 0.408,0.0429 0.68,0.15677 0.7392,0.11985 0.3639,-0.22706 -0.1852,-0.1713 -0.5803,-0.49956 -0.8779,-0.72948 l -0.541,-0.41804 0.5225,-0.0249 c 0.2874,-0.0137 0.5226,-0.0528 0.5226,-0.0868 0,-0.0341 -0.2163,-0.1898 -0.4807,-0.34605 -0.2644,-0.15626 -0.5483,-0.34086 -0.6308,-0.41023 -0.2391,-0.20095 -0.4613,-0.19628 -0.5684,0.0119 -0.1414,0.27487 -0.50808,0.64706 -0.63758,0.64706 -0.0618,0 -0.13405,0.0564 -0.16053,0.12542 -0.0721,0.18806 -0.43569,0.1457 -0.94214,-0.10979 -0.64458,-0.32516 -0.79881,-0.56537 -0.80058,-1.24686 0,-0.53246 -0.0108,-0.55782 -0.24443,-0.65327 -0.39661,-0.16212 -0.71851,-0.66869 -0.71851,-1.13071 0,-0.21647 0.0545,-0.49866 0.12112,-0.62707 0.0666,-0.12842 0.10273,-0.26326 0.0803,-0.29964 -0.0864,-0.13983 -1.52778,-0.8705 -2.47906,-1.25671 -2.54445,-1.03301 -5.30895,-1.47092 -8.70353,-1.37865 -1.91298,0.052 -2.59585,0.13748 -4.02637,0.50405 -3.70062,0.94828 -6.48102,3.24352 -8.11657,6.70029 -0.90812,1.91934 -1.42891,4.0764 -1.5644,6.4796 -0.0168,0.2983 -0.0606,0.45268 -0.12466,0.43947 -0.0543,-0.0112 -0.15933,0.0721 -0.23339,0.18514 -0.10516,0.1605 -0.14293,0.50326 -0.17239,1.56456 -0.0419,1.50824 0.0371,2.21104 0.34874,3.10297 0.23104,0.66131 0.82446,1.71682 1.00392,1.78569 0.0634,0.0244 0.13772,0.11468 0.16503,0.20074 0.0712,0.22436 1.29134,1.18488 1.43506,1.12973 0.0654,-0.0251 0.0982,-0.0121 0.0729,0.0289 -0.0994,0.1609 1.22117,0.75995 2.38389,1.08137 0.51792,0.14317 2.17807,0.4308 2.48655,0.4308 0.12763,0 0.35057,0.24304 0.35057,0.3822 0,0.0657 -0.0764,0.19583 -0.16976,0.2892 -0.14381,0.1438 -0.23649,0.16177 -0.60618,0.11751 -1.60735,-0.19244 -3.96494,-0.87694 -5.71877,-1.66039 -1.15255,-0.51486 -1.85036,-0.47725 -2.15728,0.11627 -0.28281,0.54689 -0.0393,1.22685 0.72109,2.0134 1.35961,1.40638 3.90986,2.58617 6.8536,3.17059 0.43819,0.087 0.48218,0.118 0.6611,0.46585 0.10541,0.20496 0.22337,0.37265 0.26212,0.37265 0.0388,0 0.0705,0.0418 0.0705,0.0929 0,0.16237 0.68711,0.92101 1.3344,1.47332 1.81686,1.55021 4.704,3.07022 7.61162,4.00734 3.26378,1.05188 7.13684,1.5294 10.37155,1.27872 z m -11.20761,-6.69032 c -1.34056,-0.349 -2.82075,-1.23516 -3.9714,-2.37758 -1.16502,-1.15667 -1.73729,-2.22487 -1.74686,-3.2607 -0.006,-0.64062 0.12968,-0.99349 0.52177,-1.35781 0.40198,-0.37354 0.80115,-0.52336 1.39441,-0.52336 0.73611,0 1.14612,0.17994 2.62006,1.14985 1.30779,0.86059 2.25293,1.38981 2.64468,1.48085 0.33113,0.077 0.46031,0.19329 0.46031,0.4145 0,0.50456 -0.55243,0.51151 -1.51745,0.0191 -0.39193,-0.19999 -0.82223,-0.43944 -0.95621,-0.5321 -1.84644,-1.27711 -2.76599,-1.77972 -3.25595,-1.77972 -0.27166,0 -0.72957,0.23217 -0.66476,0.33703 0.0269,0.0435 -0.007,0.0577 -0.0752,0.0315 -0.21257,-0.0816 -0.41402,0.42954 -0.35746,0.90702 0.15301,1.29188 1.49647,2.86991 3.39771,3.99092 0.60829,0.35866 1.14858,0.56726 2.04346,0.78896 0.81097,0.20093 1.0099,0.35842 0.87901,0.69593 -0.0604,0.15563 -0.13481,0.18732 -0.43099,0.18351 -0.19693,-0.003 -0.64021,-0.0781 -0.98509,-0.16786 z m -7.51316,-10.24101 c -0.22534,-0.28649 -0.29638,-0.94242 -0.23735,-2.19185 0.0407,-0.86175 0.0284,-1.03953 -0.0741,-1.07889 -0.0675,-0.0259 -0.16305,-0.12234 -0.21225,-0.21426 -0.1289,-0.24086 0.0873,-0.45271 0.32968,-0.323 0.2686,0.14376 0.58447,0.10851 0.8634,-0.0963 l 0.25615,-0.18812 0.13761,0.19734 c 0.34722,0.49796 0.51628,0.61842 0.80273,0.57193 0.49713,-0.0807 0.6422,0.29333 0.18748,0.48333 -0.24622,0.10288 -0.29779,0.18605 -0.47693,0.7691 -0.44793,1.45789 -0.90483,2.2841 -1.26314,2.2841 -0.08,0 -0.22101,-0.096 -0.31331,-0.21333 z m 6.70294,-2.66829 c -0.14672,-0.0638 -0.38523,-0.27867 -0.53002,-0.47747 -0.24019,-0.32978 -0.26048,-0.40637 -0.23157,-0.87397 0.0523,-0.84619 0.57414,-1.36866 1.36688,-1.36866 0.80397,0 1.37655,0.51159 1.44089,1.28736 0.0275,0.33193 -0.006,0.52195 -0.13635,0.77789 -0.095,0.18627 -0.14615,0.36528 -0.11364,0.39779 0.0325,0.0325 0.0215,0.0484 -0.0243,0.0353 -0.046,-0.0131 -0.24202,0.059 -0.4356,0.16025 -0.40287,0.21072 -0.93659,0.23531 -1.3361,0.0615 z m -10.76945,-1.04529 c -1.04614,-0.23866 -1.46926,-1.49379 -0.7698,-2.2835 0.63499,-0.71697 1.81382,-0.59685 2.29793,0.23416 0.15753,0.27038 0.18628,0.41608 0.15345,0.77756 -0.0793,0.87421 -0.85452,1.46046 -1.68158,1.27178 z m 33.09837,15.16887 c 0.029,-0.0747 0.052,-0.30073 0.052,-0.5023 0,-0.48618 -0.344,-0.88655 -0.9596,-1.11685 -0.4262,-0.1595 -1.0803,-0.25335 -1.1663,-0.16736 -0.022,0.0221 0.013,0.3398 0.078,0.70598 0.065,0.36617 0.12,0.78733 0.1216,0.9359 0,0.22553 0.041,0.27857 0.2328,0.32126 0.1265,0.0281 0.3993,0.0978 0.6062,0.15492 0.3284,0.0906 0.4147,0.0848 0.6794,-0.046 0.1668,-0.0824 0.3267,-0.21089 0.3554,-0.28558 z m -0.3155,0.059 c -0.024,-0.0383 0.01,-0.0697 0.075,-0.0697 0.065,0 0.099,0.0314 0.075,0.0697 -0.024,0.0383 -0.058,0.0697 -0.075,0.0697 -0.017,0 -0.051,-0.0314 -0.075,-0.0697 z m -2.2871,-4.3448 c 0.6934,-1.04773 1.069,-2.29056 1.0799,-3.57359 0.01,-1.06187 -0.2673,-1.63341 -0.7087,-1.46557 -0.2966,0.11276 -0.4279,0.40323 -0.6454,1.42835 -0.2378,1.12018 -0.4538,1.71496 -0.7689,2.11724 l -0.2512,0.32073 0.2603,0.34813 c 0.1433,0.19148 0.364,0.52681 0.4905,0.74519 0.1266,0.21838 0.2533,0.39709 0.2817,0.39713 0.028,5e-5 0.1462,-0.14287 0.2618,-0.31761 z m -7.07798,-19.83895 c 0.10599,-0.0996 0.21656,-0.28956 0.24569,-0.42221 0.083,-0.37798 0.24289,-0.49215 0.56139,-0.40081 0.6821,0.19561 1.2832,0.0239 1.5715,-0.44886 0.1982,-0.32514 0.2055,-0.53463 0.031,-0.88498 -0.1677,-0.33612 -0.4721,-0.53865 -0.7959,-0.52945 -0.3293,0.009 -0.3841,-0.1595 -0.1661,-0.51224 0.096,-0.15604 0.1754,-0.39945 0.1754,-0.54091 0,-0.52137 -0.6285,-0.91335 -1.2118,-0.75575 -0.36033,0.0974 -0.71118,0.53123 -0.71118,0.87942 0,0.37584 -0.18549,0.43838 -0.61907,0.20873 -0.18834,-0.0997 -0.46338,-0.18124 -0.61124,-0.18111 -0.34178,2.9e-4 -0.81347,0.40051 -0.94628,0.80291 -0.0856,0.25936 -0.0747,0.32463 0.0958,0.57339 0.17797,0.25974 0.31651,0.33204 0.97302,0.50781 0.21801,0.0584 0.25862,0.37815 0.0681,0.53628 -0.066,0.0548 -0.14479,0.21238 -0.17506,0.35019 -0.17456,0.79478 0.91402,1.38223 1.51505,0.81759 z m -0.41348,-1.70152 c -0.24935,-0.26903 -0.20802,-0.74953 0.0807,-0.93871 0.2473,-0.16203 0.70022,-0.0931 0.90986,0.13856 0.1723,0.19046 0.1249,0.60686 -0.097,0.85212 -0.20345,0.22474 -0.66187,0.19808 -0.89359,-0.052 z m -24.91101,-0.60792 c 0.0221,-0.81501 0.26171,-2.07799 0.43507,-2.29205 0.0948,-0.11713 0.23778,-0.17368 0.43907,-0.17368 0.37787,0 1.17207,0.16343 1.53879,0.31665 0.2727,0.11395 0.29558,0.10762 0.74224,-0.20527 l 0.46089,-0.32285 -0.56207,-0.25554 c -1.17564,-0.53451 -2.78387,-0.85823 -2.95293,-0.59439 -0.17336,0.27049 -0.4325,1.08234 -0.54429,1.70518 -0.14365,0.80034 -0.24809,2.6819 -0.16684,3.00564 l 0.0579,0.23056 0.26793,-0.40451 c 0.23302,-0.35179 0.27008,-0.4834 0.28427,-1.00974 z m 22.98959,-1.0836 c -0.0307,-0.0307 0.0101,-0.13128 0.0906,-0.22339 0.0806,-0.0921 0.0995,-0.13997 0.042,-0.10636 -0.0575,0.0336 -0.1045,0.0213 -0.1045,-0.0274 0,-0.0487 0.0564,-0.0885 0.12542,-0.0885 0.0689,0 0.12538,-0.0389 0.12538,-0.0865 0,-0.0582 -0.0556,-0.0568 -0.16988,0.004 -0.0934,0.05 -0.15926,0.15479 -0.1463,0.23286 0.0142,0.0863 -0.0231,0.1319 -0.0951,0.11633 -0.0981,-0.0212 -0.1,-0.003 -0.0107,0.10451 0.0594,0.0716 0.12848,0.13013 0.15351,0.13013 0.025,0 0.0202,-0.0252 -0.0104,-0.0559 z m 4.18398,-0.38204 c -0.02,-0.104 -0.037,-0.0386 -0.038,0.14533 0,0.18394 0.015,0.26903 0.036,0.1891 0.021,-0.0799 0.022,-0.23043 0,-0.33443 z"
         id="path534"
         sodipodi:nodetypes="sssssssscsssscsssscsssssssscssssssccssssssssssssscscscssssssccssssssscsssssccsscsscsccsscsssscssscssssssssccsscsssssssssssssssssssssssssssccsscssssssssscssssssssssssscsssssscsssscscsccssscscsssccssscsssssccssscsssccssscssssssssssssccssssscsssscsssscscccssssscscsccccscc" />
      <path
         style="vector-effect:non-scaling-stroke;fill:none;stroke:#ff0000;stroke-width:0.264583;stroke-dasharray:none;stroke-opacity:1;-inkscape-stroke:hairline"
         d="m 66.791912,63.585823 c -3.42905,-0.41413 -6.39725,-1.2841 -9.40782,-2.75743 -2.59542,-1.27017 -4.79688,-2.96863 -5.68938,-4.38945 -0.29065,-0.4627 -0.29836,-0.46783 -0.8543,-0.5696 -2.55598,-0.46784 -5.39787,-1.85721 -6.78434,-3.31681 -0.77162,-0.81231 -1.03568,-1.32892 -1.04412,-2.04267 -0.005,-0.44491 0.0338,-0.61167 0.21533,-0.91969 0.37884,-0.64277 1.03068,-0.98275 1.70658,-0.89011 l 0.3607,0.0494 -0.42644,-0.56205 c -1.35993,-1.79239 -1.77179,-4.48827 -1.03109,-6.74903 0.11012,-0.33611 0.23479,-1.03015 0.29285,-1.63035 0.17997,-1.86041 0.59445,-3.54507 1.26506,-5.14187 l 0.35113,-0.83608 0.013,-2.29921 c 0.0125,-2.20539 0.0221,-2.33255 0.23481,-3.11613 0.25944,-0.95573 0.60518,-1.64493 0.89936,-1.7928 0.61332,-0.30829 2.38897,0.0765 3.97478,0.86137 l 0.75589,0.3741 0.62682,-0.28961 c 1.79461,-0.82916 4.30407,-1.30046 6.93286,-1.30205 4.17796,-0.003 7.94405,0.93829 10.86934,2.7153 0.3688,0.22404 0.57297,0.29241 0.87307,0.29241 0.21541,0 0.46335,0.0383 0.55091,0.0852 0.13629,0.073 0.18334,0.0379 0.32702,-0.24378 0.0923,-0.18094 0.28636,-0.41338 0.43125,-0.51654 0.53885,-0.38368 1.54005,-0.27202 2.00575,0.2237 0.1722,0.18325 0.2004,0.29613 0.2007,0.80283 0,0.53808 0.019,0.60104 0.2094,0.72042 0.115,0.072 0.276,0.18682 0.3578,0.25526 0.082,0.0684 0.3075,0.1364 0.5016,0.15101 1.6925,0.12734 3.1921,0.57309 3.5245,1.04762 0.1879,0.26825 0.1707,1.4753 -0.035,2.48702 -0.3083,1.51304 -1.1015,3.52158 -1.8635,4.71889 l -0.2606,0.40937 -0.01,1.97345 c -0.01,1.44751 -0.047,2.21855 -0.1553,2.89314 -0.3393,2.11847 -0.8238,3.55476 -1.586,4.70124 -0.4284,0.64431 -0.447,0.69145 -0.2734,0.69145 0.2436,0 1.7837,0.84268 2.2934,1.25487 0.5006,0.40489 0.5368,0.42026 0.6528,0.27668 0.2442,-0.30233 0.4395,-0.83698 0.6077,-1.6636 0.2912,-1.43093 0.5229,-1.91047 1.0422,-2.15685 0.605,-0.28714 1.2434,-0.11367 1.586,0.43101 0.3092,0.49145 0.4175,1.10372 0.3643,2.05862 -0.084,1.50781 -0.6351,3.03635 -1.4277,3.95998 -0.3416,0.39803 -0.3698,0.46295 -0.2948,0.6781 0.079,0.22759 0.1109,0.23991 0.7268,0.28332 0.8866,0.0625 1.5431,0.32579 2.0324,0.81507 0.4203,0.42032 0.5749,0.79474 0.5757,1.39394 0,0.43665 -0.1043,0.71775 -0.4137,1.10834 l -0.2419,0.30545 0.2437,0.3628 c 0.3101,0.46183 0.4113,0.83155 0.4119,1.50496 0,0.91524 -0.4321,1.51593 -1.4626,2.02965 -0.7435,0.37059 -1.5113,0.50422 -3.9714,0.69122 -0.9427,0.0717 -2.1278,0.20401 -2.6337,0.29413 -1.8677,0.33274 -2.93786,0.41869 -5.09761,0.40944 -1.20802,-0.005 -2.49913,-0.058 -3.05418,-0.12509 z"
         id="path535" />
    </g>
  </g>
</svg>
