<?xml version="1.0" encoding="UTF-8" standalone="no"?>
<!-- Created with Inkscape (http://www.inkscape.org/) -->

<svg
   width="41.008999mm"
   height="41.008999mm"
   viewBox="0 0 41.008999 41.008999"
   version="1.1"
   id="svg1"
   inkscape:version="1.4.2 (f4327f4, 2025-05-13)"
   sodipodi:docname="364.svg"
   xmlns:inkscape="http://www.inkscape.org/namespaces/inkscape"
   xmlns:sodipodi="http://sodipodi.sourceforge.net/DTD/sodipodi-0.dtd"
   xmlns="http://www.w3.org/2000/svg"
   xmlns:svg="http://www.w3.org/2000/svg">
  <sodipodi:namedview
     id="namedview1"
     pagecolor="#ffffff"
     bordercolor="#000000"
     borderopacity="0.25"
     inkscape:showpageshadow="2"
     inkscape:pageopacity="0.0"
     inkscape:pagecheckerboard="0"
     inkscape:deskcolor="#d1d1d1"
     inkscape:document-units="mm"
     inkscape:zoom="1.4513545"
     inkscape:cx="86.470947"
     inkscape:cy="71.657199"
     inkscape:window-width="1050"
     inkscape:window-height="1081"
     inkscape:window-x="857"
     inkscape:window-y="0"
     inkscape:window-maximized="0"
     inkscape:current-layer="layer1"
     showguides="false" />
  <defs
     id="defs1" />
  <g
     inkscape:label="Layer 1"
     inkscape:groupmode="layer"
     id="layer1"
     transform="translate(333.37504,1257.5646)">
    <g
       id="g589"
       transform="translate(-375.88127,-1282.0487)">
      <g
         id="g588">
        <circle
           style="fill:none;stroke:#0000ff;stroke-width:0.1;stroke-linecap:round;stroke-dasharray:none;stroke-opacity:1;paint-order:markers stroke fill"
           id="circle6695-6-0-4-5"
           cx="63.010735"
           cy="28.736818"
           r="2" />
        <g
           id="g533"
           transform="translate(-1132.0491,-8.3541668)">
          <g
             id="g534"
             transform="matrix(0.27443066,0,0,0.27443066,854.7269,24.192517)">
            <path
               style="fill:#000000"
               d="m 1292.1395,66.662276 c -0.5093,-0.89518 -2.201,-3.57281 -3.7592,-5.95029 l -2.8332,-4.3227 1.378,-0.004 c 1.8065,-0.005 2.4562,-0.38062 1.369,-0.79083 -1.4136,-0.53337 -5.9244,-3.2564 -5.7803,-3.48945 0.077,-0.12519 0.2805,-0.21035 0.4514,-0.18925 0.1709,0.0211 0.9954,0.0243 1.8321,0.007 1.7339,-0.0357 2.1494,-0.64575 0.6615,-0.97106 -1.2003,-0.26242 -4.1695,-1.48284 -4.9494,-2.03436 -0.6379,-0.45104 -0.6404,-0.46691 -0.1323,-0.8548 0.9097,-0.69457 5.334,-2.79051 7.3242,-3.46971 1.0586,-0.36126 2.6083,-0.7292 3.4439,-0.81764 l 1.5192,-0.1608 0.3965,0.94911 c 1.0263,2.45607 1.3273,5.5941 1.2997,13.54562 -0.036,10.4961 -0.3747,11.79838 -2.2211,8.55319 z m -107.2879,-0.28496 c -0.8797,-2.52837 -1.5063,-16.09098 -0.9308,-20.14548 0.277,-1.95146 0.4251,-2.36823 0.9678,-2.7238 0.5861,-0.38405 0.792,-0.38246 2.4177,0.0187 3.0212,0.74553 8.984,3.97846 9.4325,5.11405 0.083,0.21129 -0.8884,0.64835 -2.8378,1.27627 -1.6305,0.52522 -3.0711,1.05864 -3.2013,1.18538 -0.2856,0.27805 0.7248,0.56006 2.2076,0.61617 0.5876,0.0222 1.0302,0.15751 0.9834,0.3006 -0.047,0.14309 -1.205,0.82213 -2.5739,1.50899 -1.3689,0.68685 -2.5343,1.38528 -2.5899,1.55205 -0.07,0.21087 0.3516,0.27507 1.3853,0.2108 0.8175,-0.0508 1.4862,-0.021 1.486,0.0663 -2e-4,0.0873 -0.3316,0.62309 -0.7365,1.19062 -1.7638,2.47239 -3.7241,6.11775 -4.93,9.16783 -0.3928,0.99352 -0.8641,1.28217 -1.0801,0.66146 z"
               id="path533"
               sodipodi:nodetypes="sscsscssssssscscsssssscssssscssssss" />
            <path
               style="fill:#000000"
               d="m 1246.9265,178.86519 c -5.115,-0.49226 -9.2902,-2.0243 -11.3972,-4.18211 l -0.9968,-1.02078 -0.895,0.99069 c -1.777,1.96693 -5.4122,3.37862 -10.2768,3.99094 -3.8385,0.48316 -11.8467,0.19816 -14.7051,-0.52332 -7.8309,-1.97665 -11.7636,-7.12545 -10.8229,-14.1698 0.3313,-2.48071 1.507,-5.70271 2.6157,-7.16789 0.4313,-0.57002 0.7875,-1.16042 0.7916,-1.312 0,-0.15159 -0.6178,-0.58247 -1.3817,-0.95751 -2.1248,-1.04305 -4.0198,-2.9003 -5.0085,-4.90877 -1.6214,-3.29357 -1.2828,-8.0358 0.8802,-12.32581 1.1651,-2.31073 2.7355,-4.5667 4.3956,-6.31435 l 1.4237,-1.49872 -1.5401,-0.2975 c -6.5436,-1.26407 -9.9085,-2.63848 -13.7955,-5.63485 -4.014,-3.09414 -7.1062,-8.81882 -7.9887,-14.78939 -0.4152,-2.80902 -0.2043,-8.70837 0.3878,-10.851939 0.3304,-1.196037 0.3612,-1.863061 0.1524,-3.307292 -0.3912,-2.705669 -0.325,-10.172318 0.12,-13.546554 0.3392,-2.571672 1.6303,-9.010711 1.8539,-9.245819 0.043,-0.04466 -0.082,-0.699501 -0.2762,-1.455208 -1.1534,-4.484123 -1.8762,-15.190002 -1.4529,-21.51834 0.3105,-4.640217 0.9027,-7.584517 1.8849,-9.37001 0.5278,-0.959521 0.867,-1.246908 1.8335,-1.55342 1.4863,-0.471378 4.8023,-0.108735 8.3422,0.912291 2.4628,0.710382 6.9903,2.765299 8.5768,3.892803 l 0.9137,0.649327 1.5999,-1.043078 c 2.2011,-1.435044 7.9907,-4.220907 10.8252,-5.208906 12.7984,-4.46099 30.3665,-4.994048 44.438,-1.348354 6.0271,1.561545 12.9833,4.455087 17.5456,7.298433 1.0384,0.647184 1.9574,1.176699 2.0422,1.176699 0.085,0 1.0023,-0.548644 2.0389,-1.219207 4.7007,-3.040863 10.8619,-5.130794 15.1258,-5.130794 1.268,0 1.6625,0.11161 2.1628,0.611868 1.5113,1.511321 2.6129,6.747447 3.1134,14.798483 0.2536,4.080709 0.2448,6.339739 -0.045,11.565354 -0.4674,8.427073 -0.491,7.871099 0.4825,11.38888 1.7874,6.459599 2.5676,13.270819 2.3486,20.505208 -0.3355,11.084385 -3.1782,18.969215 -8.8929,24.666065 -4.8032,4.7881 -10.9999,7.44509 -20.2299,8.67408 l -1.2883,0.17155 0.7931,0.83894 c 3.4644,3.66459 6.982,10.9637 8.5309,17.70167 l 0.5919,2.57521 0.7521,-0.53553 c 0.4136,-0.29454 1.6793,-1.55475 2.8127,-2.80047 1.1333,-1.24571 2.5473,-2.55053 3.1422,-2.89958 1.9608,-1.15056 4.2963,-0.73493 5.8567,1.04226 1.0777,1.22745 1.4967,2.77992 1.3066,4.84197 -0.324,3.51536 -2.0621,6.7903 -5.3166,10.01759 -2.2131,2.19456 -4.0622,3.44235 -6.675,4.50425 -1.3006,0.52861 -1.5745,0.76197 -1.8591,1.58389 -1.4677,4.23956 -5.5254,7.6933 -11.3525,9.663 -5.4237,1.83334 -16.1512,2.78157 -23.4844,2.07585 z m 10.2491,-2.35111 c 7.2827,-0.42285 11.4996,-1.29165 15.3769,-3.16807 3.8714,-1.87356 6.3696,-4.8654 7.2946,-8.73594 1.0056,-4.20768 -0.3028,-13.85883 -2.823,-20.82316 -1.6556,-4.57537 -3.6848,-8.13125 -6.603,-11.57108 l -1.4736,-1.73701 h -1.5299 c -1.195,0 -1.635,-0.1161 -2.0098,-0.53024 -0.3945,-0.43591 -0.4269,-0.64643 -0.1823,-1.18333 0.3663,-0.80384 0.5993,-0.85622 5.2501,-1.17999 13.6416,-0.94971 22.1079,-6.12638 26.2871,-16.07313 3.8987,-9.27932 3.8055,-24.46089 -0.2287,-37.240579 -0.3505,-1.110273 -0.4313,-1.80842 -0.2755,-2.38125 0.7111,-2.615522 1.0163,-15.580906 0.4986,-21.183357 -0.3405,-3.684966 -0.9012,-7.008226 -1.4903,-8.832259 l -0.4594,-1.4224 -2.1316,0.134011 c -3.8252,0.240482 -9.4989,2.541275 -13.5207,5.48283 l -2.0923,1.530337 -1.8582,-1.251997 c -7.2313,-4.871972 -16.7873,-8.291022 -27.5229,-9.847388 -3.7452,-0.542955 -17.1583,-0.453336 -21.1667,0.141423 -9.3279,1.384078 -17.4572,4.294012 -23.6545,8.467242 -1.2229,0.823438 -2.269,1.49716 -2.3247,1.49716 -0.056,0 -0.8711,-0.589938 -1.8119,-1.310974 -3.5123,-2.692095 -10.0319,-5.021131 -14.0927,-5.034432 -1.372,-0.0045 -1.4116,0.01704 -1.8181,0.987593 -0.958,2.287642 -1.2413,5.025065 -1.2526,12.104688 -0.012,7.461245 0.3043,11.303218 1.301,15.807303 l 0.629,2.842719 -0.6205,2.448947 c -1.2669,4.999547 -1.5989,7.902639 -1.5962,13.958323 0,3.629122 0.1229,6.203622 0.3351,7.111299 0.1934,0.826964 0.236,1.547143 0.1019,1.719791 -0.8707,1.12037 -1.3576,7.27138 -0.8533,10.77791 0.4117,2.86262 1.636,6.52568 2.8593,8.55478 1.1099,1.8412 3.6658,4.62073 5.2645,5.72527 3.0814,2.12888 7.6138,3.74847 11.8606,4.23818 4.0775,0.47018 4.1096,0.46861 4.1096,-0.20111 0,-0.32443 -0.2366,-0.7556 -0.5259,-0.95817 -0.3971,-0.27817 -0.6633,-1.09052 -1.0877,-3.31924 -0.3091,-1.62301 -0.4918,-3.23061 -0.406,-3.57245 0.5615,-2.23725 3.969,-3.84808 10.327,-4.88188 l 2.8834,-0.46884 -0.039,-2.37475 c -0.021,-1.30611 -0.1148,-4.64861 -0.2074,-7.42778 l -0.1685,-5.053024 0.6241,-0.437076 c 1.1251,-0.788071 4.162,-0.495604 4.8017,0.462429 0.1069,0.160116 0.1962,2.803731 0.1984,5.874701 0,3.07097 0.081,6.31543 0.174,7.2099 l 0.17,1.62631 1.4837,0.008 c 2.1202,0.0118 7.2695,0.66338 9.2937,1.176 3.4994,0.88627 5.5536,2.59257 5.5494,4.60957 0,2.20582 -0.5279,5.45774 -0.925,5.74851 -0.3034,0.22218 -0.5045,1.36148 -0.7942,4.49792 -0.7882,8.53598 -1.7437,17.01976 -2.3949,21.266 -0.5467,3.56433 -0.7691,4.44993 -1.2119,4.82496 -0.9269,0.78506 -4.5802,1.76455 -7.798,2.09079 -4.5792,0.46425 -12.4441,-0.35046 -13.0639,-1.35326 -0.1216,-0.19682 -0.6902,-0.15182 -1.8563,0.14692 -1.1204,0.28703 -2.4373,0.39947 -3.9491,0.33718 l -2.2682,-0.0935 -1.0974,1.63695 c -1.6495,2.46067 -2.3286,4.71693 -2.3361,7.76132 -0.01,2.32037 0.063,2.65868 0.8649,4.28837 1.4417,2.9285 4.0373,4.67125 8.654,5.81053 2.0474,0.50526 3.123,0.58928 7.6729,0.59938 10.9661,0.0243 15.4665,-2.01238 15.4665,-6.99968 0,-2.65556 -1.4883,-4.79045 -4.2201,-6.05368 -1.193,-0.55165 -1.9599,-0.6926 -4.235,-0.77831 -1.5279,-0.0576 -2.9269,-0.22538 -3.1088,-0.37291 -0.4564,-0.37016 -0.4138,-0.99607 0.1071,-1.57166 0.3601,-0.39781 0.8423,-0.4833 2.712,-0.48071 3.8449,0.005 6.6437,1.0518 8.903,3.32898 l 1.3371,1.34775 1.0231,-1.03545 c 1.6791,-1.69933 3.7909,-2.54668 7.4582,-2.99251 1.6095,-0.19567 2.4704,0.16128 2.4704,1.02427 0,0.83907 -0.4873,1.23423 -1.522,1.23423 -1.6217,0 -4.5071,0.81653 -5.7167,1.61778 -1.5364,1.01765 -2.2863,2.51387 -2.2863,4.56171 0,3.46122 2.2529,5.43607 7.6216,6.68116 3.4931,0.8101 7.427,0.99196 13.6463,0.63086 z m -3.1439,-19.41786 c -3.4238,-1.0828 -5.2072,-3.34355 -5.2407,-6.64339 -0.03,-2.95613 1.3977,-5.09838 5.6376,-8.4586 1.0914,-0.86498 2.6023,-2.14293 3.3576,-2.83988 1.5273,-1.40943 1.8946,-1.51245 2.6027,-0.73002 0.3806,0.42056 0.4326,0.68953 0.2394,1.23892 -0.2365,0.67245 -0.8676,1.25352 -5.5429,5.10307 -3.5611,2.93215 -4.4767,4.94811 -3.3767,7.43489 0.4071,0.92038 0.8152,1.32815 1.9482,1.94665 1.2725,0.69467 1.6853,0.78187 3.6821,0.77782 4.3814,-0.009 8.0181,-1.85768 11.3053,-5.74724 0.9058,-1.07178 1.7585,-1.22911 2.2665,-0.41817 0.4919,0.78518 -0.1024,1.91098 -2.013,3.81335 -3.2939,3.27956 -7.1568,4.90952 -11.5535,4.875 -1.2399,-0.01 -2.7305,-0.16832 -3.3126,-0.3524 z m -18.8769,-50.82068 c -1.365,-1.55469 -2.7076,-6.677851 -3.1006,-11.831786 -0.1739,-2.280424 -0.1823,-2.302203 -0.9569,-2.472345 -1.5643,-0.343563 -1.156,-1.785481 0.4326,-1.527699 1.1126,0.18056 2.5675,-0.292803 3.6188,-1.177444 0.6603,-0.555589 0.8977,-0.627437 1.2501,-0.378343 2.1271,1.503612 2.8275,1.769199 4.6683,1.770149 1.6398,8.47e-4 1.8521,0.05831 1.8521,0.501287 0,0.527648 -0.3301,0.790878 -1.5214,1.213071 -0.6699,0.237424 -0.7276,0.369189 -0.7276,1.661388 0,1.93212 -0.701,7.411612 -1.1855,9.267132 -0.4974,1.90437 -1.3028,3.5129 -1.8675,3.72961 -0.9498,0.36445 -1.6746,0.1422 -2.4624,-0.75502 z m 2.102,-1.39516 c 0.8442,-2.21212 1.8336,-8.428735 1.8209,-11.441605 0,-1.183897 -0.015,-1.197274 -1.4831,-1.910181 l -1.478,-0.717934 -1.2861,0.651713 -1.2861,0.651713 0.135,1.918305 c 0.3049,4.329522 1.2605,8.738649 2.2916,10.573299 0.6705,1.19301 0.9154,1.24533 1.2858,0.27469 z m -24.3659,-13.437866 c -3.4034,-1.528683 -4.298,-6.016458 -1.7569,-8.81288 2.2314,-2.455529 6.5168,-2.088106 8.5008,0.728844 0.6884,0.977407 0.7929,1.357666 0.7938,2.890104 0,2.186502 -0.6501,3.560326 -2.2108,4.662837 -1.3582,0.959477 -3.8255,1.205469 -5.3269,0.531095 z m 44.187,-0.171233 c -3.0357,-1.565705 -3.875,-5.812088 -1.6673,-8.435784 2.2335,-2.654313 6.617,-2.397716 8.6631,0.5071 1.1058,1.570065 1.2488,3.901843 0.3432,5.59664 -0.9446,1.767687 -2.4679,2.731337 -4.5037,2.849018 -1.3291,0.07684 -1.878,-0.02323 -2.8353,-0.516974 z m -52.3249,-13.63786 c -0.8739,-0.304841 -0.1247,-2.064313 1.5663,-3.678387 1.5138,-1.444884 2.2498,-1.821164 2.7501,-1.405928 0.5201,0.431587 0.4781,0.70575 -0.1906,1.245324 -1.7411,1.404745 -2.5767,2.268253 -2.8623,2.957818 -0.3359,0.810942 -0.7123,1.073437 -1.2635,0.881173 z m 62.7982,-3.631956 c -0.7134,-0.655477 -1.5171,-1.261589 -1.7859,-1.346916 -0.5889,-0.186914 -0.6501,-1.132545 -0.087,-1.348539 0.6422,-0.246414 1.8124,0.377221 3.0235,1.611175 1.1267,1.148064 1.3474,2.046338 0.5406,2.200703 -0.2166,0.04145 -0.9776,-0.460945 -1.691,-1.116423 z m 17.0138,88.219915 c 4.4924,-2.39445 8.1028,-7.19653 8.4246,-11.20541 0.089,-1.11011 0.018,-2.02844 -0.1982,-2.54962 -0.4027,-0.97229 -1.6338,-1.68704 -2.4589,-1.42759 -0.3201,0.10067 -1.9252,1.53098 -3.5667,3.17847 -1.6416,1.64749 -3.3445,3.20794 -3.7842,3.46768 -0.598,0.35324 -0.7606,0.60581 -0.6453,1.00234 0.085,0.29156 0.2281,2.28629 0.3185,4.43272 0.091,2.14643 0.2191,3.9026 0.2858,3.9026 0.067,0 0.7976,-0.36054 1.6244,-0.80119 z m -56.8237,-7.01195 c 2.7612,-0.58015 3.8765,-1.11231 4.0503,-1.93257 0.6451,-3.04338 2.4864,-18.257 2.9194,-24.12096 0.091,-1.23692 0.2327,-2.59373 0.314,-3.01513 0.1358,-0.70317 0.097,-0.75163 -0.4768,-0.58932 -2.8309,0.8013 -6.0585,1.50167 -8.1655,1.77185 -4.9974,0.64084 -13.568,0.21403 -18.3224,-0.91246 -0.8367,-0.19826 -1.5213,-0.30728 -1.5213,-0.24227 0,0.38154 1.185,6.74634 1.7138,9.20504 1.288,5.9889 1.1489,5.64178 2.6448,6.59871 4.68,2.99376 6.0569,8.55078 2.9347,11.84443 -0.3733,0.39383 -0.6787,0.7762 -0.6787,0.8497 0,0.26363 2.1608,0.70786 4.5641,0.93829 2.9871,0.28642 7.6552,0.10231 10.0236,-0.39531 z m -7.0591,-1.30296 c -0.9104,-0.91032 -0.8629,-2.08829 0.1239,-3.07508 0.9719,-0.97189 2.0618,-1.01678 3.0245,-0.12458 0.9704,0.89934 0.9532,2.18469 -0.042,3.13814 -0.9682,0.92752 -2.2157,0.95223 -3.1064,0.0615 z m 5.8715,-5.02647 c -1.2543,-1.16241 -0.7528,-3.06569 0.9683,-3.67475 0.8173,-0.28924 2.1983,0.47538 2.5188,1.39459 0.762,2.18587 -1.789,3.85392 -3.4871,2.28016 z m -9.8664,-0.24293 c -1.4299,-1.22997 -0.7718,-3.37803 1.1529,-3.76298 0.7132,-0.14263 0.9766,-0.0415 1.6528,0.63468 0.8565,0.85658 0.9837,1.48483 0.5106,2.52322 -0.5845,1.28266 -2.1884,1.5753 -3.3163,0.60508 z m -6.279,4.64935 c 3.6235,-1.85754 3.5556,-5.81867 -0.1499,-8.7477 -1.2095,-0.95609 -3.7655,-2.15365 -4.5965,-2.15365 -0.6476,0 -1.5042,-0.8319 -1.5042,-1.4609 0,-0.92799 0.8092,-1.27243 2.1445,-0.91286 0.5962,0.16053 1.1363,0.23948 1.2004,0.17545 0.093,-0.0928 -1.2731,-7.23602 -1.8958,-9.91426 l -0.1402,-0.60319 -1.1318,0.77873 c -2.7961,1.92372 -5.9159,6.12473 -7.2525,9.76584 -0.8793,2.39515 -1.0886,5.58587 -0.4857,7.4012 0.5375,1.61816 2.1458,3.51602 3.8024,4.48684 3.18,1.86356 7.6523,2.39281 10.0093,1.1845 z m 15.313,-27.58132 c 2.757,-0.31431 6.5355,-1.15259 8.5328,-1.89307 1.1529,-0.42743 1.389,-0.62419 1.389,-1.15743 0,-0.76119 0.058,-0.75029 -1.1993,-0.22489 -3.1169,1.30232 -10.6195,2.11998 -16.9246,1.8445 -4.4141,-0.19286 -8.8124,-0.75785 -10.48,-1.34623 -1.4478,-0.5108 -1.5066,-0.49855 -1.3572,0.28282 0.1609,0.8415 0.611,1.07987 3.0223,1.60037 4.9438,1.06716 12.1684,1.44668 17.017,0.89393 z m 4.2333,-3.78202 c 3.912,-0.82399 5.9531,-1.98396 5.9531,-3.38316 0,-1.99653 -4.8733,-3.5238 -11.9724,-3.75211 l -2.3151,-0.0745 v 2.03259 c 0,2.66689 -0.3786,3.18194 -2.4664,3.35507 -1.1059,0.0917 -1.6693,0.0105 -2.1606,-0.31141 -0.6234,-0.40845 -0.6646,-0.57486 -0.6646,-2.68146 v -2.24599 l -1.1245,0.15254 c -5.8915,0.7992 -9.5703,2.1209 -10.1006,3.62886 -0.6148,1.74836 2.2024,3.01426 8.3146,3.73603 2.2542,0.26618 14.7422,-0.0786 16.5365,-0.4565 z m -10.0468,-3.62704 c 0.094,-0.15209 0.084,-4.5574 -0.022,-9.78958 l -0.1931,-9.513056 h -1.191 -1.191 l 0.1726,5.622396 c 0.095,3.09232 0.2478,7.49763 0.3396,9.78958 l 0.167,4.16719 h 0.8736 c 0.4805,0 0.9505,-0.12444 1.0445,-0.27653 z"
               id="path532"
               sodipodi:nodetypes="sscssssscsssscssssssccssssscsssssssssssssscsscssssssscsscsssscsssssscsscsscsssssssssscscscsssssssssccscssccccscsssssssscsccssssssscscsssssssccssssssssssssscssssssssssssssscscccsssssscssssssssssssssssssssssscsssscsssccscssssssssssssssssssssssssssssssscssssssssssssssssscsssscssssscccccsscscc" />
          </g>
        </g>
      </g>
      <path
         style="vector-effect:non-scaling-stroke;fill:none;stroke:#ff0000;stroke-width:0.264583;stroke-dasharray:none;stroke-opacity:1;-inkscape-stroke:hairline"
         d="m 64.872684,64.924442 c -1.403713,-0.135091 -2.549516,-0.55553 -3.127741,-1.147699 l -0.273553,-0.280134 -0.245615,0.271876 c -0.487663,0.539786 -1.485274,0.927197 -2.820269,1.095236 -1.053402,0.132594 -3.251098,0.05438 -4.035531,-0.143615 -2.149039,-0.542453 -3.228292,-1.955442 -2.970135,-3.888627 0.09092,-0.680783 0.413567,-1.564999 0.717828,-1.967089 0.118362,-0.156431 0.216114,-0.318455 0.217239,-0.360053 0,-0.0416 -0.169543,-0.159848 -0.37918,-0.26277 -0.583111,-0.286245 -1.103157,-0.795931 -1.374486,-1.347117 -0.444962,-0.903857 -0.35204,-2.20527 0.241554,-3.38258 0.319739,-0.634136 0.750705,-1.253243 1.206287,-1.732852 l 0.390707,-0.411294 -0.422651,-0.08164 c -1.795764,-0.3469 -2.719196,-0.72408 -3.785908,-1.546376 -1.101565,-0.849127 -1.950159,-2.420155 -2.192344,-4.058662 -0.113944,-0.770881 -0.05607,-2.389844 0.106424,-2.978102 0.09067,-0.32823 0.09912,-0.511284 0.04182,-0.907625 -0.107357,-0.742519 -0.08919,-2.791594 0.03293,-3.717589 0.09309,-0.705745 0.447404,-2.472815 0.508767,-2.537336 0.0118,-0.01227 -0.0225,-0.191964 -0.0758,-0.399354 -0.316528,-1.23058 -0.514887,-4.168602 -0.39872,-5.905293 0.08521,-1.273415 0.247728,-2.081422 0.517274,-2.571418 0.144845,-0.263321 0.237932,-0.34219 0.503169,-0.426306 0.407886,-0.129361 1.317898,-0.02984 2.289355,0.250361 0.675868,0.194952 1.918353,0.758883 2.353737,1.068306 l 0.250748,0.178193 0.439061,-0.28625 c 0.604049,-0.393822 2.192893,-1.158347 2.970767,-1.429485 3.512273,-1.224232 8.333499,-1.37052 12.19515,-0.370028 1.654021,0.428534 3.563015,1.22261 4.81505,2.002913 0.284969,0.177606 0.537171,0.322922 0.560442,0.322922 0.02333,0 0.275062,-0.150566 0.559537,-0.334588 1.290016,-0.834505 2.980839,-1.408046 4.150983,-1.408046 0.347978,0 0.456241,0.03063 0.593539,0.167913 0.414747,0.414755 0.71706,1.851707 0.854412,4.061159 0.0696,1.119872 0.06718,1.739819 -0.01235,3.173887 -0.128269,2.312646 -0.134745,2.160071 0.132413,3.125458 0.490517,1.772712 0.704628,3.64192 0.644528,5.627258 -0.09207,3.041894 -0.872196,5.205733 -2.440485,6.769123 -1.318145,1.314002 -3.01871,2.043161 -5.551704,2.380434 l -0.35355,0.04708 0.217651,0.230231 c 0.950738,1.005676 1.916075,3.008775 2.341141,4.857881 l 0.162435,0.706717 0.2064,-0.146966 c 0.113504,-0.08083 0.460851,-0.426671 0.771891,-0.768535 0.311012,-0.341861 0.699057,-0.699944 0.862316,-0.795734 0.538104,-0.315749 1.179036,-0.201687 1.607258,0.286028 0.295754,0.33685 0.41074,0.762896 0.358571,1.328785 -0.08892,0.964723 -0.565903,1.863467 -1.459038,2.749134 -0.607342,0.602255 -1.114792,0.944687 -1.831825,1.236105 -0.356924,0.145066 -0.432091,0.209107 -0.510194,0.434668 -0.402782,1.163465 -1.516339,2.111277 -3.115474,2.651823 -1.488429,0.503125 -4.432384,0.763348 -6.444839,0.569677 z"
         id="path541" />
    </g>
  </g>
</svg>
