<?xml version="1.0" encoding="UTF-8" standalone="no"?>
<!-- Created with Inkscape (http://www.inkscape.org/) -->

<svg
   width="41.008999mm"
   height="41.008999mm"
   viewBox="0 0 41.008999 41.008999"
   version="1.1"
   id="svg1"
   inkscape:version="1.4.2 (f4327f4, 2025-05-13)"
   sodipodi:docname="321.svg"
   xmlns:inkscape="http://www.inkscape.org/namespaces/inkscape"
   xmlns:sodipodi="http://sodipodi.sourceforge.net/DTD/sodipodi-0.dtd"
   xmlns="http://www.w3.org/2000/svg"
   xmlns:svg="http://www.w3.org/2000/svg">
  <sodipodi:namedview
     id="namedview1"
     pagecolor="#ffffff"
     bordercolor="#000000"
     borderopacity="0.25"
     inkscape:showpageshadow="2"
     inkscape:pageopacity="0.0"
     inkscape:pagecheckerboard="0"
     inkscape:deskcolor="#d1d1d1"
     inkscape:document-units="mm"
     inkscape:zoom="1.4513545"
     inkscape:cx="86.470947"
     inkscape:cy="71.657199"
     inkscape:window-width="1050"
     inkscape:window-height="1081"
     inkscape:window-x="857"
     inkscape:window-y="0"
     inkscape:window-maximized="0"
     inkscape:current-layer="layer1" />
  <defs
     id="defs1" />
  <g
     inkscape:label="Layer 1"
     inkscape:groupmode="layer"
     id="layer1"
     transform="translate(333.37504,1257.5646)">
    <g
       id="g106"
       transform="translate(-1374.0381,-1032.5675)">
      <ellipse
         style="fill:none;stroke:#ff00ff;stroke-width:0.1;stroke-dasharray:none;stroke-opacity:1"
         id="path1138-9-4-0-0-1-2-8-1-8-1-17-4-3-6"
         cx="1061.1676"
         cy="-204.49263"
         rx="18.492125"
         ry="18.492126" />
      <circle
         style="fill:none;stroke:#ff0000;stroke-width:0.1;stroke-dasharray:none"
         id="path788-8-1-8-1-9-2-2-9-1-6-9-1-8-0"
         cx="1061.1676"
         cy="-204.49263"
         r="19.954653" />
      <circle
         style="fill:none;stroke:#0000ff;stroke-width:0.1;stroke-linecap:round;stroke-dasharray:none;stroke-opacity:1;paint-order:markers stroke fill"
         id="path13019-1-33-4-5-5-2-4-6-5-5"
         cx="1061.1676"
         cy="-219.50362"
         r="2" />
      <path
         style="fill:#000000;stroke-width:0.241705"
         d="m 1058.9426,-189.85295 c -0.2219,-0.089 -0.3203,-0.25531 -0.4221,-0.71276 -0.1089,-0.48949 -0.2956,-0.77992 -0.5015,-0.77992 -0.054,0 -0.276,0.15108 -0.4933,0.33574 -0.2893,0.24571 -0.4197,0.40932 -0.4865,0.61012 -0.1178,0.35354 -0.3194,0.48855 -0.6609,0.44274 -0.2771,-0.0372 -0.4776,-0.17716 -0.5413,-0.37791 -0.029,-0.0882 0.025,-0.18586 0.1854,-0.3417 0.2197,-0.2133 0.3451,-0.45164 0.2746,-0.52204 -0.039,-0.0393 -0.5519,0.48973 -0.5519,0.56967 0,0.028 -0.058,0.10834 -0.128,0.17869 -0.1562,0.15624 -0.5494,0.17104 -0.7531,0.0283 -0.1943,-0.13608 -0.1794,-0.22615 0.082,-0.495 0.2965,-0.30517 0.2852,-0.36952 -0.048,-0.27542 -0.1495,0.0422 -0.3382,0.066 -0.4193,0.0528 -0.1227,-0.02 -0.1443,-0.0575 -0.1279,-0.22201 0.015,-0.15608 0.06,-0.21083 0.2115,-0.25872 0.1055,-0.0334 0.2781,-0.14 0.3836,-0.23689 0.1056,-0.0969 0.2782,-0.20336 0.3838,-0.23661 0.1234,-0.0389 0.2297,-0.13876 0.2977,-0.27964 l 0.106,-0.21918 -0.3938,-0.0526 c -0.2165,-0.0289 -0.5155,-0.0959 -0.6645,-0.1488 -0.2672,-0.0949 -0.7746,-0.45407 -0.781,-0.55289 0,-0.028 -0.068,-0.12013 -0.1473,-0.20476 -0.2712,-0.29024 -0.3037,-0.34686 -0.3037,-0.53089 0,-0.10141 0.039,-0.31694 0.088,-0.47895 0.049,-0.16201 0.075,-0.30801 0.059,-0.32444 -0.016,-0.0164 0,-0.0879 0.039,-0.15865 0.037,-0.0708 0.09,-0.3251 0.1171,-0.56506 l 0.048,-0.43627 0.4449,-0.22383 c 0.2446,-0.1231 0.4547,-0.25663 0.4666,-0.29671 0.012,-0.04 -0.08,-0.13567 -0.204,-0.21241 -0.2412,-0.14908 -0.4837,-0.42021 -0.4837,-0.54091 0,-0.0404 0.093,-0.1279 0.2079,-0.19439 0.1143,-0.0665 0.3054,-0.19499 0.4246,-0.28557 0.1193,-0.0906 0.3493,-0.20787 0.5111,-0.26064 0.2073,-0.0676 0.3195,-0.14864 0.3794,-0.27433 0.053,-0.11054 0.152,-0.19175 0.2608,-0.2135 0.1834,-0.0367 1.7336,-1.53611 1.7336,-1.67684 0,-0.094 -0.037,-0.0931 -0.9366,0.0249 -0.8657,0.11348 -1.1597,0.2266 -1.7068,0.65666 -0.6707,0.52709 -1.1988,0.87356 -1.8973,1.24459 -0.3692,0.19622 -0.8204,0.43771 -1.0026,0.53666 -0.1822,0.0989 -0.3466,0.16447 -0.3654,0.14563 -0.019,-0.0188 0.094,-0.29185 0.2513,-0.60671 0.2012,-0.40358 0.3064,-0.71263 0.3562,-1.04764 0.069,-0.4645 0.051,-1.11056 -0.039,-1.39279 -0.041,-0.1277 0.01,-0.16657 0.5214,-0.40428 1.0395,-0.48273 1.453,-0.59398 2.0532,-0.5524 0.2901,0.0202 0.5275,0.0125 0.5275,-0.0169 0,-0.0829 -0.3243,-0.28239 -0.6075,-0.37373 -0.3857,-0.12438 -1.1629,-0.27003 -1.4408,-0.27003 -0.351,0 -0.3733,-0.10681 -0.078,-0.37489 0.381,-0.34577 0.8047,-1.06589 0.7515,-1.27755 -0.1051,-0.4187 -0.4435,-1.18322 -0.7005,-1.58275 -0.4256,-0.66143 -0.3698,-0.67628 0.6953,-0.18512 1.1135,0.51342 1.2666,0.63108 2.0833,1.60088 0.7597,0.902 2.0074,2.01191 2.1272,1.89211 0.1323,-0.13226 0.1816,-0.61297 0.1061,-1.03536 -0.1277,-0.71426 -0.064,-1.1195 0.2559,-1.63227 0.3316,-0.53122 0.567,-0.79445 0.7104,-0.79445 0.059,0 0.1576,-0.0569 0.2206,-0.12656 0.1445,-0.15973 0.1319,-0.16413 -0.7342,-0.25571 -0.6735,-0.0712 -1.8775,-0.21393 -3.8259,-0.45357 -0.9337,-0.11485 -1.7225,-0.19396 -1.9937,-0.2 -0.1311,-0.003 -3.1174,-0.3685 -3.3619,-0.41157 -0.1522,-0.0268 -0.2432,0.005 -0.4052,0.14126 l -0.2091,0.17585 -2.6643,-0.33526 c -3.5163,-0.44246 -3.2739,-0.39989 -3.6493,-0.64083 -0.2847,-0.18267 -0.326,-0.23611 -0.326,-0.42176 0,-0.25606 0.1016,-0.36718 0.4984,-0.54485 0.2281,-0.10213 0.3707,-0.12519 0.5888,-0.0953 0.9131,0.12536 2.7548,0.35403 2.7966,0.34724 0.027,-0.005 0.063,-0.003 0.082,0.004 0.017,0.007 0.1758,0.0222 0.3517,0.0347 0.3707,0.0263 2.1058,0.22366 2.3182,0.26363 0.079,0.0149 0.2135,0.1374 0.2988,0.27239 0.1709,0.27093 0.063,0.24608 1.5718,0.36363 0.2638,0.0206 1.9762,0.22203 3.8051,0.44773 3.0351,0.37454 4.49,0.53209 5.1801,0.56095 0.228,0.01 0.2667,-0.0113 0.3574,-0.19265 0.056,-0.11184 0.1493,-0.2763 0.2078,-0.36547 0.1354,-0.20657 0.1348,-0.20951 -0.043,-0.25407 -0.082,-0.0206 -0.1838,-0.11401 -0.2265,-0.20767 -0.042,-0.0936 -0.145,-0.22331 -0.2274,-0.2881 -0.2004,-0.15772 -0.5379,-0.69139 -0.5846,-0.92463 -0.044,-0.22429 0.1818,-0.8759 0.37,-1.06418 0.092,-0.0924 0.178,-0.11707 0.3125,-0.0902 0.1855,0.0371 0.2225,-0.0144 0.1897,-0.2646 -0.027,-0.20738 0.1367,-0.81257 0.3245,-1.19763 0.2631,-0.53957 0.7989,-1.05071 1.3155,-1.25492 0.5526,-0.2185 1.636,-0.24725 2.1447,-0.057 0.492,0.18414 0.9286,0.54415 1.1899,0.98144 0.3124,0.52258 0.4038,0.833 0.4411,1.4977 0.027,0.48928 0.048,0.5796 0.1199,0.52002 0.1769,-0.14681 0.6038,0.2953 0.6977,0.72243 0.043,0.19754 -0.2016,0.71369 -0.4492,0.94626 -0.1269,0.11924 -0.135,0.16005 -0.075,0.38423 0.059,0.21852 0.044,0.3057 -0.1081,0.67717 -0.096,0.23449 -0.1608,0.44063 -0.1433,0.45808 0.017,0.0174 0.1121,0.01 0.2104,-0.0172 0.2578,-0.0704 0.6097,-0.0342 0.7322,0.0754 0.1025,0.0917 0.2175,0.48322 0.1899,0.6465 -0.017,0.10412 0.058,0.12565 0.5998,0.17177 0.7403,0.063 3.0834,0.35024 3.3558,0.41145 0.2051,0.0461 0.2945,0.0337 0.4637,-0.0641 0.485,-0.28051 0.4109,-0.27707 1.9824,-0.0922 4.4143,0.51945 5.7897,0.67285 6.3241,0.70538 0.4032,0.0245 0.5488,0.0658 0.8461,0.23958 0.3096,0.18094 0.3592,0.23643 0.3594,0.40178 0,0.26996 -0.049,0.32312 -0.4459,0.48143 -0.3287,0.13101 -0.3901,0.13538 -0.9588,0.0683 -1.5099,-0.17806 -3.0076,-0.33064 -3.8185,-0.38901 -0.4849,-0.0349 -1.3855,-0.11943 -2.001,-0.18783 -0.6155,-0.0684 -1.3202,-0.14472 -1.5658,-0.16961 -0.3503,-0.0354 -0.4952,-0.0837 -0.6715,-0.2236 -0.2342,-0.18588 -0.3859,-0.22449 -1.1041,-0.28111 -1.158,-0.0913 -1.5204,-0.12983 -3.1336,-0.33329 -0.2773,-0.0349 -0.3037,-0.0267 -0.3037,0.0947 0,0.19248 -0.097,0.22808 -0.6369,0.23253 l -0.4823,0.004 -0.038,0.35172 c -0.028,0.2613 -0.1432,0.55349 -0.4477,1.13639 -0.2252,0.43155 -0.4765,0.91697 -0.5583,1.07871 l -0.1486,0.29406 0.1766,0.18431 c 0.097,0.10138 0.2173,0.18433 0.2671,0.18433 0.05,0 0.2318,-0.12704 0.4045,-0.28229 0.4429,-0.39812 0.8828,-0.67697 1.0681,-0.67697 0.087,0 0.3666,0.10026 0.6214,0.2228 0.2548,0.12253 0.6982,0.29859 0.9854,0.39123 0.5563,0.17942 0.6722,0.28251 0.7488,0.6658 0.024,0.11988 0.176,0.44932 0.3378,0.73209 0.1617,0.28278 0.3305,0.58608 0.375,0.67401 0.044,0.088 0.2078,0.40449 0.3625,0.70346 0.1548,0.29897 0.2834,0.58378 0.2857,0.63293 0,0.0492 -0.098,0.21394 -0.2227,0.36623 -0.2394,0.29217 -0.2402,0.29935 -0.1158,0.9744 0.037,0.2004 0.01,0.24576 -0.4129,0.67149 -1.6387,1.65366 -1.6297,1.64562 -1.806,1.60689 -0.2608,-0.0573 -0.3445,0.0907 -0.2618,0.46308 0.037,0.16782 0.086,0.43463 0.1099,0.5929 0.023,0.15828 0.098,0.43167 0.1655,0.60754 0.068,0.17586 0.151,0.44926 0.1854,0.60753 0.034,0.15828 0.077,0.35192 0.094,0.43031 0.017,0.0784 0.1035,0.24788 0.191,0.37664 0.087,0.12877 0.1588,0.27521 0.1588,0.32543 0,0.064 0.041,0.0784 0.1356,0.0483 0.2126,-0.0674 0.6958,-0.42888 0.6958,-0.5204 0,-0.0454 -0.1367,-0.15185 -0.3038,-0.23658 -0.1671,-0.0847 -0.3609,-0.2173 -0.4308,-0.29463 -0.1267,-0.14027 -0.1267,-0.14079 0,-0.23631 0.098,-0.0738 0.2147,-0.0853 0.5108,-0.0498 0.211,0.0252 0.8234,0.0395 1.3609,0.0314 0.8189,-0.0121 1.0034,0.003 1.139,0.0916 0.1189,0.0779 0.1565,0.15157 0.1419,0.27786 -0.03,0.2559 -0.3794,0.3999 -1.0937,0.45017 l -0.5889,0.0415 -0.01,0.22383 c -0.01,0.12311 -0.029,0.27363 -0.054,0.33449 -0.067,0.16127 -0.4321,0.24031 -1.1114,0.24071 -0.5057,2.9e-4 -0.5927,-0.0145 -0.5615,-0.0955 0.032,-0.0834 -0.1377,-0.0959 -1.2963,-0.0959 -1.0748,0 -1.3478,-0.0176 -1.4087,-0.0909 -0.056,-0.0678 -0.06,-0.21863 -0.012,-0.59156 0.1455,-1.12886 0.1521,-1.69217 0.024,-2.09933 -0.156,-0.49668 -0.084,-0.85615 0.2241,-1.10803 l 0.2086,-0.17099 -0.4136,-0.43166 c -0.2275,-0.23742 -0.4425,-0.43167 -0.478,-0.43167 -0.035,0 -0.2023,0.0808 -0.3709,0.17974 -0.4437,0.26012 -0.5062,0.28034 -1.106,0.35769 -0.5113,0.066 -0.5445,0.0796 -0.5598,0.22998 -0.01,0.088 0.037,0.37571 0.1018,0.63951 0.069,0.27999 0.096,0.51955 0.065,0.57556 -0.029,0.0527 -0.1991,0.42686 -0.3783,0.83136 -0.1791,0.40448 -0.3918,0.82205 -0.4726,0.92793 -0.081,0.10587 -0.1673,0.2854 -0.1922,0.39896 -0.05,0.22558 -0.1713,0.3441 -0.2159,0.21019 -0.062,-0.18458 -0.4866,-0.58109 -0.8307,-0.77504 -0.2002,-0.11274 -0.5683,-0.40947 -0.8182,-0.65938 -0.513,-0.51308 -0.5416,-0.59504 -0.4878,-1.39767 0.027,-0.39743 0.015,-0.49521 -0.056,-0.49359 -0.123,0.003 -0.236,0.1029 -0.5633,0.49882 l -0.2818,0.34098 0.2021,0.17256 c 0.1323,0.11299 0.2021,0.2309 0.2021,0.34153 0,0.20415 0.3449,0.67412 0.6239,0.85038 0.1947,0.12287 0.2769,0.28778 0.1436,0.28778 -0.1154,0 -0.067,0.13047 0.1758,0.47882 0.1991,0.28489 0.3005,0.36568 0.5964,0.47517 0.3681,0.13618 0.5596,0.35104 0.4853,0.54454 -0.054,0.14068 -0.4816,0.1299 -1.0976,-0.0276 -0.5925,-0.15153 -0.6716,-0.1562 -0.6716,-0.0397 0,0.13439 0.3109,0.78403 0.4175,0.87254 0.1204,0.0999 0.1208,0.28056 0,0.38015 -0.1075,0.0893 -0.5324,0.14466 -0.6739,0.0879 z m -2.6973,-0.6349 c 0.1204,-0.0844 0.1618,-0.0874 0.2458,-0.0176 0.086,0.072 0.1319,0.0479 0.32,-0.17032 0.1205,-0.13979 0.302,-0.41245 0.4035,-0.60591 0.1015,-0.19344 0.3016,-0.46007 0.4448,-0.59249 l 0.2604,-0.24077 0.2396,0.35976 c 0.4376,0.65694 0.4676,0.71511 0.5155,0.99492 0.046,0.27141 0.053,0.27745 0.2696,0.25588 0.122,-0.0121 0.2328,-0.0327 0.2461,-0.0455 0.013,-0.0129 -0.023,-0.16661 -0.08,-0.34166 -0.058,-0.17504 -0.1041,-0.3769 -0.1041,-0.44859 0,-0.0717 -0.058,-0.22455 -0.1276,-0.33971 -0.1414,-0.23182 -0.1673,-0.43322 -0.056,-0.43322 0.1169,0 0.5166,0.25818 0.769,0.49676 0.1843,0.1742 0.2996,0.22698 0.5436,0.24892 l 0.3097,0.0279 -0.1778,-0.10203 c -0.098,-0.0561 -0.1627,-0.12629 -0.1444,-0.15594 0.018,-0.0297 -0.036,-0.0995 -0.1212,-0.15513 -0.084,-0.0557 -0.1744,-0.16674 -0.1987,-0.24682 -0.025,-0.0801 -0.2378,-0.33265 -0.4744,-0.56128 -0.2546,-0.24594 -0.4494,-0.49311 -0.477,-0.60533 -0.026,-0.10431 -0.1414,-0.32014 -0.2571,-0.47963 -0.31,-0.42743 -0.3672,-0.55797 -0.3011,-0.68819 0.077,-0.15212 0.7709,-2.25184 0.8096,-2.45047 0.1387,-0.7118 0.1628,-0.9662 0.1265,-1.33377 -0.104,-1.05671 -0.1133,-0.98272 0.1682,-1.35723 0.4396,-0.5847 0.4891,-0.72968 0.5994,-1.7577 0.098,-0.91216 0.3543,-2.0778 0.4944,-2.24813 0.036,-0.0444 0.099,-0.0743 0.1379,-0.0666 0.039,0.008 0.1332,-0.02 0.2088,-0.0618 0.123,-0.0682 0.1417,-0.0581 0.1807,0.0971 0.032,0.12785 0.013,0.19871 -0.075,0.27051 -0.2325,0.19093 -0.4569,0.54901 -0.5019,0.80074 -0.025,0.14069 -0.074,0.31108 -0.1095,0.37864 -0.1231,0.23769 0.2984,0.36694 0.6111,0.18744 0.2046,-0.11731 1.1256,-0.97608 1.602,-1.4937 0.2764,-0.30031 0.5874,-0.71714 0.6922,-0.92795 0.1048,-0.21049 0.2282,-0.42589 0.2743,-0.47864 0.046,-0.0528 0.161,-0.24988 0.2553,-0.43803 0.169,-0.33702 0.1728,-0.47994 0.01,-0.35909 -0.046,0.0339 -0.2099,0.15806 -0.3647,0.27584 -0.2596,0.19762 -0.3089,0.21174 -0.6386,0.18288 l -0.3572,-0.0312 0.1167,0.22884 c 0.064,0.12587 0.1457,0.25797 0.1814,0.29355 0.1059,0.10592 0.074,0.22148 -0.052,0.18853 -0.119,-0.0311 -0.4542,0.13689 -0.826,0.4139 -0.1155,0.086 -0.2511,0.13748 -0.3065,0.11623 -0.1809,-0.0694 0.012,-0.27906 0.4503,-0.48799 0.2283,-0.10893 0.4151,-0.22185 0.4151,-0.25092 0,-0.0291 -0.046,-0.0912 -0.1027,-0.13805 -0.057,-0.0469 -0.211,-0.24462 -0.3434,-0.43949 -0.1822,-0.26818 -0.8666,-1.00157 -1.2456,-1.33467 -0.013,-0.0116 -0.098,0.0276 -0.1893,0.0873 -0.1442,0.0945 -0.1655,0.0958 -0.1655,0.0103 0,-0.054 0.05,-0.1849 0.1107,-0.291 0.062,-0.10737 0.087,-0.216 0.056,-0.245 -0.031,-0.0286 -0.066,-0.0232 -0.079,0.0119 -0.013,0.0351 -0.1527,0.26087 -0.3109,0.50156 -0.1582,0.24069 -0.2876,0.47796 -0.2876,0.52727 0,0.0494 -0.1269,0.14923 -0.2817,0.22203 -0.3293,0.15477 -0.369,0.19566 -0.7993,0.82294 l -0.326,0.47503 v 0.54819 c 0,0.84558 0.059,1.21967 0.1915,1.21967 0.1522,0 0.3919,-0.25394 0.5628,-0.59598 0.1267,-0.25389 0.3322,-0.44497 0.3322,-0.30893 0,0.17404 -0.2296,0.77876 -0.3625,0.95474 -0.3052,0.40403 -0.4155,0.47496 -0.6755,0.43413 -0.223,-0.0351 -0.2445,-0.0237 -0.3257,0.17095 -0.1217,0.29166 -0.1653,0.56009 -0.2289,1.4118 -0.05,0.67788 -0.075,0.7774 -0.284,1.1578 -0.1258,0.22889 -0.2023,0.4326 -0.1697,0.45267 0.033,0.0201 -0.03,0.27192 -0.1401,0.56183 l -0.1991,0.52533 0.01,1.24421 c 0.01,0.68431 -0.015,1.27425 -0.042,1.31099 -0.027,0.0368 -0.053,0.13475 -0.058,0.21782 -0.01,0.0831 -0.058,0.20567 -0.1178,0.27242 -0.092,0.10176 -0.097,0.14524 -0.031,0.2692 0.069,0.13009 0.052,0.19459 -0.1494,0.53773 -0.1257,0.21444 -0.2286,0.41113 -0.2286,0.43706 0,0.0259 -0.069,0.13803 -0.154,0.24911 -0.085,0.11107 -0.2014,0.30084 -0.2592,0.42171 -0.3004,0.62778 -0.4728,0.85181 -0.7696,1.00057 -0.2065,0.10344 -0.674,0.57047 -0.6227,0.62185 0.074,0.0738 0.5395,-0.238 1.1679,-0.78171 0.3328,-0.28792 0.4054,-0.14044 0.082,0.1665 -0.1365,0.12967 -0.2815,0.31242 -0.3221,0.40609 -0.04,0.0937 -0.1277,0.1875 -0.1939,0.20849 -0.066,0.021 -0.1686,0.13957 -0.2278,0.26352 -0.131,0.27477 -0.1347,0.32326 -0.017,0.22578 0.071,-0.0592 0.1103,-0.0461 0.1867,0.063 l 0.096,0.13779 0.096,-0.18271 c 0.053,-0.10049 0.2305,-0.31221 0.3948,-0.47048 0.1644,-0.15828 0.3245,-0.35316 0.3559,-0.43305 0.035,-0.0917 0.1312,-0.16013 0.2584,-0.18556 0.1198,-0.024 0.2139,-0.0882 0.2324,-0.1585 0.037,-0.14284 0.134,-0.15423 0.1848,-0.0218 0.037,0.0975 -0.093,0.3393 -0.3076,0.56948 -0.064,0.0691 -0.1171,0.15843 -0.1171,0.19852 0,0.0959 -0.3875,0.6879 -0.4931,0.75351 -0.09,0.0559 -0.1123,0.17269 -0.033,0.17269 0.027,0 0.1149,-0.0457 0.1946,-0.10148 z m 1.0346,-1.68614 c 0,-0.13327 0.1534,-0.38671 0.2341,-0.38671 0.1064,0 0.1075,0.0553 0.01,0.27454 -0.077,0.16418 -0.2398,0.2407 -0.2398,0.11217 z m 0.8917,-0.0738 c -0.054,-0.10017 -0.054,-0.15339 0,-0.2073 0.084,-0.0842 0.1925,0.0441 0.1941,0.23015 0,0.15346 -0.107,0.14073 -0.1946,-0.0229 z m -1.0836,-0.15301 c 0,-0.088 0.029,-0.15988 0.064,-0.15988 0.036,0 0.064,0.0719 0.064,0.15988 0,0.088 -0.029,0.15988 -0.064,0.15988 -0.035,0 -0.064,-0.0719 -0.064,-0.15988 z m 1.3369,-0.008 c -0.074,-0.0894 -0.069,-0.10016 0.034,-0.0799 0.066,0.0129 0.1327,0.0593 0.1473,0.10331 0.037,0.11408 -0.081,0.0989 -0.1821,-0.0233 z m -2.0403,-0.1525 c 0,-0.0352 0.029,-0.064 0.064,-0.064 0.036,0 0.063,0.0288 0.063,0.064 0,0.0351 -0.029,0.0639 -0.063,0.0639 -0.035,0 -0.064,-0.0288 -0.064,-0.0639 z m 0.5144,-0.34316 c -0.066,-0.19916 -0.056,-0.23269 0.1352,-0.44822 0.4462,-0.50395 0.7702,-2.58612 0.6131,-3.94099 -0.056,-0.4777 0.012,-0.33426 0.1693,0.36282 0.1765,0.78098 0.1891,1.15917 0.068,2.07052 -0.1617,1.22062 -0.1648,1.17609 0.083,1.19992 0.2691,0.0259 0.2622,0.0936 -0.032,0.30866 -0.1319,0.0964 -0.3864,0.28496 -0.5655,0.41894 -0.1791,0.13398 -0.3423,0.2436 -0.3628,0.2436 -0.02,0 -0.069,-0.0969 -0.1081,-0.21525 z m 2.0446,-5.90804 c 0,-0.128 0.016,-0.15133 0.058,-0.0858 0.032,0.0495 0.042,0.12871 0.024,0.17587 -0.052,0.13523 -0.083,0.10085 -0.082,-0.0902 z m 0.063,-0.97526 c 0,-0.0704 0.029,-0.12789 0.064,-0.12789 0.036,0 0.064,0.0575 0.064,0.12789 0,0.0704 -0.029,0.1279 -0.064,0.1279 -0.035,0 -0.064,-0.0575 -0.064,-0.1279 z m 2.4963,-5.55952 c -0.084,-0.15818 -0.083,-0.19606 0.01,-0.19606 0.074,0 0.2411,0.1851 0.2449,0.27178 0.01,0.1004 -0.1883,0.0425 -0.2516,-0.0758 z m 5.7374,13.57916 c 0.2337,-0.0354 0.2656,-0.14552 0.088,-0.3056 -0.1814,-0.16418 -1.3361,-0.18348 -1.4947,-0.025 -0.1309,0.13092 -0.1491,0.34473 -0.034,0.38761 0.089,0.0329 1.1148,-0.008 1.439,-0.057 z m -0.6235,-0.94028 c 0,-0.14257 -0.1449,-0.23662 -0.3645,-0.23662 -0.145,0 -0.2111,0.0301 -0.2111,0.0959 0,0.0993 0.059,0.11829 0.3038,0.0984 0.079,-0.007 0.1439,0.0192 0.1439,0.0569 0,0.0376 0.029,0.0686 0.064,0.0686 0.035,0 0.064,-0.0375 0.064,-0.0832 z m -4.9716,-0.47642 c 0.3003,-0.31347 0.3671,-0.57778 0.3671,-1.45155 0,-0.88502 0.087,-1.23151 0.3572,-1.40794 0.085,-0.0557 0.1545,-0.16254 0.1545,-0.23754 0,-0.13162 0.01,-0.13239 0.126,-0.0223 0.1079,0.0976 0.165,0.10421 0.3958,0.0456 0.1484,-0.0376 0.2931,-0.0541 0.3217,-0.0365 0.028,0.0176 0.052,9.6e-4 0.052,-0.0357 0,-0.0373 0.041,-0.0677 0.091,-0.0677 0.2048,0 0.2941,-0.18746 0.2537,-0.53219 -0.043,-0.37043 0.051,-0.80624 0.2301,-1.05991 0.2706,-0.38342 0.218,-0.59853 -0.1282,-0.52486 -0.2217,0.0471 -0.2521,0.0371 -0.6819,-0.226 -0.1465,-0.0898 -0.157,-0.1148 -0.074,-0.17586 0.054,-0.0392 0.1608,-0.1863 0.2383,-0.327 0.088,-0.16072 0.1255,-0.19638 0.099,-0.0959 -0.089,0.33912 -0.067,0.47867 0.079,0.49941 0.1762,0.0251 0.5812,-0.18069 0.7847,-0.39862 0.1179,-0.12626 0.1527,-0.22793 0.1419,-0.4132 -0.012,-0.19906 0.015,-0.2652 0.142,-0.34831 0.1257,-0.0823 0.8708,-1.11894 0.8708,-1.21137 0,-0.0454 -0.8429,0.25929 -0.9139,0.33038 -0.039,0.0389 -0.1084,0.0708 -0.1541,0.0708 -0.046,0 -0.083,0.0611 -0.083,0.13573 0,0.10853 -0.017,0.12098 -0.088,0.062 -0.072,-0.0595 -0.1889,0.058 -0.6118,0.61345 -0.2878,0.37791 -0.5392,0.76725 -0.5588,0.86522 -0.019,0.0979 -0.074,0.17811 -0.1213,0.17811 -0.1538,0 -0.1922,0.21003 -0.2108,1.15111 -0.02,1.03971 -0.1346,1.41248 -0.1361,0.44446 0,-0.66915 -0.043,-0.81211 -0.2015,-0.68427 -0.1144,0.0924 -0.3092,0.56665 -0.3092,0.75271 0,0.0932 -0.043,0.12661 -0.1635,0.12661 -0.09,0 -0.3314,0.0833 -0.5369,0.18532 -0.3497,0.17347 -0.675,0.28103 -0.8984,0.29698 -0.3028,0.0216 -0.6455,0.1223 -0.7247,0.21288 -0.05,0.0573 -0.1103,0.20493 -0.1338,0.32804 -0.1207,0.63112 -0.1227,0.61045 0.069,0.73551 0.2816,0.18342 0.3293,0.2843 0.3769,0.7993 0.025,0.2638 0.083,0.55562 0.1303,0.64847 0.087,0.17167 0.6954,0.6945 0.8078,0.6945 0.034,0 0.1346,0.0575 0.224,0.12791 0.2074,0.16315 0.2166,0.16209 0.4178,-0.048 z m -0.052,-1.01889 c -0.044,-0.41898 0.01,-1.89499 0.078,-2.17867 0.094,-0.38 0.1112,-0.0492 0.047,0.89532 -0.039,0.57156 -0.062,1.06798 -0.054,1.10315 0.063,0.23782 0.084,0.60754 0.034,0.60754 -0.033,0 -0.08,-0.1923 -0.1053,-0.42734 z m 0.9309,-2.35453 c 0,-0.0528 0.029,-0.0959 0.064,-0.0959 0.035,0 0.064,0.0431 0.064,0.0959 0,0.0527 -0.029,0.0959 -0.064,0.0959 -0.035,0 -0.064,-0.0431 -0.064,-0.0959 z m 3.4213,3.38756 c 0.1407,-0.0507 0.3469,-0.0926 0.4584,-0.0931 0.3705,-0.002 0.386,-0.0249 0.3118,-0.4664 -0.036,-0.21884 -0.089,-0.43212 -0.1161,-0.47395 -0.027,-0.0419 -0.031,-0.19675 -0.01,-0.34427 0.037,-0.23469 0.024,-0.28294 -0.1105,-0.38616 l -0.1534,-0.11796 0.2964,-9.6e-4 c 0.2449,-9.6e-4 0.3147,-0.0293 0.4013,-0.16152 0.058,-0.0881 0.2121,-0.22854 0.3431,-0.3122 0.131,-0.0836 0.3101,-0.21638 0.3981,-0.29493 0.087,-0.0786 0.2261,-0.18693 0.3069,-0.24084 0.083,-0.0547 0.1321,-0.13749 0.1128,-0.18747 -0.019,-0.0492 0.093,-0.34319 0.2489,-0.65331 0.3674,-0.73146 0.3489,-0.90395 -0.2349,-2.20252 -0.14,-0.31133 -0.2301,-0.59044 -0.2002,-0.62025 0.03,-0.0299 0.251,0.18894 0.4916,0.48611 0.2405,0.29717 0.4634,0.54031 0.4955,0.54031 0.1305,0 0.041,-0.23289 -0.2545,-0.66744 -0.2798,-0.41053 -0.8383,-1.43983 -0.8383,-1.54491 0,-0.0225 0.058,-0.0257 0.1279,-0.008 0.07,0.0184 0.1276,0.0145 0.127,-0.009 -0.01,-0.15352 -0.3582,-0.39371 -0.5812,-0.39371 -0.093,0 -0.3677,-0.0752 -0.6093,-0.16702 -0.2417,-0.0919 -0.5256,-0.16809 -0.6311,-0.16939 -0.2381,-0.003 -0.5436,0.13685 -0.5436,0.24875 0,0.13855 -0.5792,0.99201 -0.915,1.34839 l -0.3143,0.33347 0.064,0.54951 c 0.036,0.30224 0.084,0.56864 0.1065,0.59198 0.069,0.0696 0.161,-0.12971 0.1693,-0.3695 0.018,-0.52744 0.03,-0.59816 0.1007,-0.62173 0.04,-0.0136 0.094,0.0358 0.1172,0.10996 0.065,0.20648 0.1894,0.0612 0.3857,-0.45244 0.093,-0.24377 0.1943,-0.42781 0.2249,-0.40895 0.03,0.0188 0.044,0.0693 0.03,0.11217 -0.014,0.0428 -0.039,0.17133 -0.056,0.28555 -0.041,0.28733 -0.4234,0.95096 -0.8669,1.50335 -0.3598,0.44811 -0.8364,1.29108 -0.8364,1.47947 0,0.15978 0.5759,0.43782 0.8364,0.4038 0.2845,-0.0372 0.547,0.0722 0.7881,0.32866 0.1507,0.16012 0.1879,0.26006 0.1974,0.52949 0.01,0.25859 0.043,0.35792 0.1557,0.44869 0.135,0.10932 0.1405,0.14342 0.088,0.54945 -0.034,0.26899 -0.032,0.49994 0.01,0.60993 0.058,0.16124 0.036,0.20343 -0.2378,0.47332 -0.2866,0.28251 -0.3921,0.53597 -0.2206,0.52995 0.044,-9.6e-4 0.195,-0.0443 0.3357,-0.095 z m 0.9003,-3.08379 c -0.019,-0.0616 -0.049,-0.24142 -0.065,-0.39969 -0.017,-0.15828 -0.061,-0.44279 -0.097,-0.63225 -0.086,-0.44834 -0.088,-1.2912 0,-1.15838 0.034,0.0528 0.063,0.2686 0.064,0.47963 0,0.21104 0.06,0.64126 0.1289,0.95603 0.069,0.31477 0.1264,0.63852 0.1264,0.71945 0,0.17294 -0.1035,0.19651 -0.1547,0.0352 z m -0.8485,-1.52742 c -0.024,-0.0619 -0.01,-0.53141 0.033,-1.04326 0.042,-0.51185 0.076,-1.07819 0.076,-1.25854 0,-0.20798 0.034,-0.35589 0.092,-0.40439 0.077,-0.0638 0.099,-0.0357 0.131,0.16803 0.021,0.13449 0.07,0.41918 0.1092,0.63266 0.062,0.348 0.053,0.45714 -0.1,1.05519 -0.093,0.36688 -0.1696,0.7157 -0.1693,0.77518 0,0.15521 -0.1205,0.20825 -0.1716,0.0751 z m -10.1846,4.37514 c 0.1187,-0.12998 0.1749,-0.24755 0.1522,-0.31877 -0.021,-0.0673 0.034,-0.20341 0.1356,-0.33745 0.128,-0.16785 0.1776,-0.31757 0.1964,-0.59252 0.027,-0.4001 0.2426,-1.39928 0.3543,-1.64461 0.057,-0.12463 0.044,-0.19379 -0.068,-0.375 -0.1663,-0.26889 -0.2197,-0.2914 -0.8085,-0.34118 -0.4387,-0.0371 -0.4682,-0.0311 -0.5635,0.11423 -0.056,0.0843 -0.092,0.23939 -0.083,0.34452 0.01,0.10513 -0.01,0.2487 -0.042,0.31905 -0.085,0.18015 -0.3746,0.47963 -0.4628,0.47963 -0.1977,0 -0.4064,0.81974 -0.3828,1.50424 0.01,0.2343 0.051,0.3307 0.2277,0.51325 0.24,0.24759 0.7774,0.53455 1.0079,0.53821 0.087,9.6e-4 0.2251,-0.0827 0.3357,-0.2036 z m -0.545,-3.93828 c -0.043,-0.0429 -0.2259,0.11654 -0.2259,0.197 0,0.0364 0.058,0.0137 0.1283,-0.05 0.07,-0.0639 0.1145,-0.12997 0.098,-0.14693 z m 5.4289,0.11803 c 0.138,-0.032 0.325,-0.11292 0.4157,-0.17983 0.2108,-0.15563 1.0922,-1.17242 1.0918,-1.25969 0,-0.0699 -0.482,-0.28987 -0.6348,-0.28987 -0.1291,0 -0.3242,0.19249 -0.3242,0.31975 0,0.16307 -0.1824,0.29672 -0.691,0.50651 -0.7441,0.30677 -1.0857,0.5219 -1.1208,0.70564 -0.017,0.0891 -0.017,0.18381 0,0.21039 0.041,0.0672 0.9595,0.0578 1.2644,-0.0129 z m -3.8312,-0.33846 c -0.023,-0.14949 -0.056,-0.31973 -0.072,-0.37833 -0.016,-0.0586 0,-0.12504 0.036,-0.14767 0.037,-0.0227 0.066,-0.0701 0.066,-0.10561 0,-0.13184 -0.6826,0.0239 -1.2361,0.282 l -0.5648,0.26331 0.6286,0.17273 c 0.3458,0.095 0.7536,0.17558 0.9061,0.17905 l 0.2774,0.007 z m 3.5803,-0.81504 c 0.07,-0.0278 0.2328,-0.13279 0.361,-0.2333 0.1282,-0.1005 0.2865,-0.21532 0.3518,-0.25516 0.195,-0.11904 0.057,-0.16771 -0.4704,-0.16518 -0.311,9.6e-4 -0.4502,-0.0168 -0.3703,-0.0488 0.1172,-0.0469 0.1118,-0.0575 -0.064,-0.12685 -0.3517,-0.13868 -0.5137,-0.14745 -0.6087,-0.0329 -0.078,0.094 -0.076,0.11876 0.017,0.1868 0.062,0.0458 0.083,0.10276 0.051,0.13697 -0.066,0.0686 -0.1438,0.72179 -0.095,0.80032 0.018,0.0296 0.1831,-0.006 0.3663,-0.0788 0.1833,-0.0729 0.3908,-0.15522 0.4611,-0.18303 z m 2.0821,-0.51391 c 0.1358,-0.0727 0.38,-0.53117 0.38,-0.71351 0,-0.14116 -0.042,-0.14607 -0.1696,-0.0194 -0.13,0.13003 -0.2236,0.0594 -0.1754,-0.1324 0.027,-0.10709 0.012,-0.15737 -0.048,-0.16046 -0.1768,-0.01 0.1771,-0.11457 0.3992,-0.11891 0.1491,-0.003 0.3235,-0.0721 0.495,-0.19635 0.1457,-0.10552 0.3021,-0.19185 0.3477,-0.19185 0.045,0 0.1753,-0.12034 0.2882,-0.26743 0.1821,-0.23676 0.2056,-0.31419 0.2056,-0.67526 0,-0.59041 -0.05,-0.52389 -0.4601,0.61582 -0.03,0.084 -0.07,0.13748 -0.089,0.11882 -0.019,-0.0187 0.01,-0.13777 0.062,-0.26467 0.053,-0.1269 0.071,-0.23075 0.041,-0.23075 -0.03,0 -0.068,0.036 -0.084,0.0799 -0.015,0.044 -0.052,0.058 -0.081,0.0311 -0.029,-0.0269 0.011,-0.2283 0.086,-0.44766 0.077,-0.21935 0.1564,-0.51394 0.1777,-0.65462 0.021,-0.14069 0.052,-0.2774 0.068,-0.30378 0.016,-0.0263 0.01,-0.048 -0.029,-0.048 -0.045,0 -0.228,0.35393 -0.2975,0.57556 -0.085,0.27351 -0.1519,0.4423 -0.3689,0.94328 -0.141,0.32534 -0.2789,0.59153 -0.3065,0.59153 -0.074,0 0.037,-0.43211 0.2124,-0.83264 0.2067,-0.46981 0.2556,-0.63822 0.1856,-0.63822 -0.032,0 -0.085,0.0562 -0.1163,0.12489 -0.032,0.0687 -0.2016,0.29872 -0.3775,0.51115 -0.2625,0.31716 -0.354,0.38598 -0.5115,0.38469 l -0.1919,-9.6e-4 0.1919,-0.16238 c 0.4427,-0.3747 0.5929,-0.55128 0.8476,-0.99653 0.3166,-0.55353 0.7051,-1.43739 0.7537,-1.71483 0.01,-0.0527 0.092,-0.32487 0.1843,-0.60467 0.092,-0.27982 0.1827,-0.62515 0.2014,-0.76742 l 0.034,-0.25867 -0.092,0.19185 c -0.051,0.10553 -0.2967,0.65046 -0.5462,1.21097 -0.2496,0.56052 -0.4767,1.03535 -0.5049,1.05519 -0.028,0.0199 -0.1355,0.20874 -0.2385,0.41979 -0.4016,0.82283 -1.6186,2.26261 -1.8487,2.187 -0.092,-0.0303 -0.1286,-0.30045 -0.04,-0.30045 0.07,0 0.8845,-0.79183 1.1201,-1.08873 0.2081,-0.26232 0.5458,-0.79088 0.5458,-0.85424 0,-0.0326 -0.053,-0.0117 -0.1169,0.0465 -0.1191,0.10779 -0.331,0.1449 -0.3304,0.0579 10e-5,-0.0263 0.085,-0.1762 0.1893,-0.33295 0.104,-0.15672 0.1758,-0.29822 0.1596,-0.31442 -0.016,-0.0162 -0.038,-0.0175 -0.05,-0.003 -0.012,0.0147 -0.1623,0.2137 -0.3357,0.44232 -0.1735,0.22863 -0.337,0.42528 -0.3634,0.437 -0.027,0.0117 -0.048,0.0549 -0.048,0.0959 0,0.0678 -0.1688,0.20094 -0.633,0.50161 -0.091,0.059 -0.2537,0.10934 -0.3614,0.11191 -0.1766,0.005 -0.5396,0.27723 -0.5396,0.40586 0,0.0607 0.1939,-0.0176 0.4033,-0.16277 0.3211,-0.22262 0.2769,-0.0422 -0.067,0.27525 -0.1847,0.17022 -0.3357,0.33355 -0.3357,0.36297 0,0.13298 0.4257,0.54942 0.7078,0.69237 0.4431,0.22453 0.5399,0.20559 0.8978,-0.17565 0.1821,-0.19402 0.3129,-0.29185 0.3129,-0.2341 0,0.0545 -0.1029,0.19281 -0.2286,0.30723 -0.1257,0.11441 -0.2151,0.22144 -0.1987,0.23785 0.016,0.0164 0.138,-0.0155 0.2703,-0.0707 0.2625,-0.10963 0.3965,-0.083 0.1492,0.0297 -0.127,0.0579 -0.1521,0.11626 -0.1521,0.35412 0,0.15665 0.021,0.28481 0.048,0.28481 0.026,0 0.048,0.0719 0.048,0.15988 0,0.17348 0.1133,0.2064 0.3233,0.094 z m -9.2622,-0.39773 c 0.1533,-0.0791 0.5797,-0.36277 0.9476,-0.6303 0.5268,-0.38314 0.7601,-0.51064 1.0988,-0.60057 l 0.4299,-0.11416 -0.1102,-0.1895 c -0.106,-0.18234 -0.124,-0.18827 -0.4745,-0.15721 -0.2005,0.0178 -0.4567,0.0783 -0.5694,0.13456 -0.2642,0.13174 -0.4497,0.13469 -0.4004,0.007 0.049,-0.12823 -0.056,-0.12096 -0.3107,0.0214 -0.1154,0.0645 -0.2836,0.13571 -0.3738,0.15814 -0.3128,0.0778 -0.4658,0.27701 -0.515,0.67051 -0.054,0.42987 -0.068,0.84463 -0.029,0.84463 0.015,0 0.1532,-0.0647 0.3064,-0.14388 z m 8.7354,-0.18005 c -0.018,-0.11648 -0.071,-0.13386 -0.449,-0.14716 -0.2687,-0.01 -0.4715,-0.051 -0.5436,-0.11134 -0.063,-0.0529 -0.1961,-0.1309 -0.2952,-0.17319 -0.1743,-0.0744 -0.1795,-0.0712 -0.1599,0.0995 0.016,0.14142 0.071,0.19398 0.2762,0.2647 0.3513,0.12121 0.6583,0.18348 0.9477,0.19218 0.2126,0.007 0.2416,-0.01 0.2238,-0.12473 z m -4.8422,-1.40627 c 0.098,-0.0524 0.1228,-0.12452 0.111,-0.32407 -0.01,-0.14114 0.012,-0.27625 0.045,-0.30025 0.1281,-0.092 0.084,-0.25396 -0.1378,-0.51375 -0.1696,-0.19804 -0.2629,-0.25941 -0.3519,-0.23118 -0.068,0.0215 -0.1211,0.008 -0.1211,-0.0306 0,-0.038 -0.1654,-0.23803 -0.3676,-0.44451 -0.2023,-0.20648 -0.4397,-0.4682 -0.5277,-0.58159 -0.087,-0.11339 -0.3253,-0.37591 -0.5276,-0.58337 -0.2022,-0.20745 -0.3678,-0.40388 -0.3678,-0.43648 0,-0.0327 -0.064,-0.0798 -0.1435,-0.10489 -0.079,-0.0251 -0.1804,-0.0918 -0.2253,-0.1482 -0.067,-0.0845 -0.075,-0.0121 -0.041,0.409 0.033,0.42006 0.016,0.58027 -0.09,0.89532 -0.072,0.21104 -0.1106,0.40175 -0.086,0.4238 0.024,0.0221 0.1908,0.0878 0.3705,0.14598 0.1796,0.0582 0.4128,0.18409 0.5182,0.27966 0.1845,0.16725 0.2104,0.23593 0.2239,0.59242 0.011,0.2679 1.0925,1.01418 1.4775,1.01884 0.063,6.2e-4 0.1729,-0.0289 0.2423,-0.0661 z m -1.7972,-0.31622 c 0,-0.0351 -0.058,-0.064 -0.1279,-0.064 -0.07,0 -0.1279,0.0288 -0.1279,0.064 0,0.0351 0.058,0.064 0.1279,0.064 0.07,0 0.1279,-0.0288 0.1279,-0.064 z m 8.1463,-0.8027 c 0.022,-0.057 0.012,-0.0826 -0.025,-0.0602 -0.035,0.0215 -0.063,0.0662 -0.063,0.0993 0,0.092 0.046,0.0717 0.088,-0.0391 z m -0.4026,-1.063 c 0.1071,-0.21204 0.1815,-0.39866 0.1654,-0.41471 -0.063,-0.0633 -0.4908,0.6236 -0.4908,0.78865 0,0.16526 0.1267,0.0197 0.3254,-0.37394 z m 0.8724,0.42023 c -0.021,-0.0212 -0.01,-0.11473 0.03,-0.20784 0.1681,-0.41979 0.3225,-0.82431 0.382,-1.00066 0.095,-0.28377 0.2481,-1.07388 0.2141,-1.10795 -0.016,-0.0162 -0.043,0.0107 -0.06,0.0596 -0.5035,1.499 -0.7405,2.2205 -0.7405,2.25384 0,0.0229 0.048,0.0416 0.1066,0.0416 0.059,0 0.089,-0.0174 0.068,-0.0386 z m 1.2391,-1.6076 c 0.071,-0.2729 0.1461,-0.77093 0.166,-1.1067 0.039,-0.66511 -0.028,-1.85161 -0.1049,-1.85161 -0.027,0 -0.066,0.45325 -0.088,1.00722 -0.022,0.55398 -0.069,1.09356 -0.1052,1.19908 -0.056,0.16517 -0.059,0.14895 -0.029,-0.11668 0.047,-0.40226 -0.039,-1.921 -0.1059,-1.85371 -0.062,0.0631 -0.1091,2.12946 -0.048,2.09138 0.1002,-0.0622 0.1095,0.22773 0.017,0.55274 -0.054,0.19222 -0.1105,0.42143 -0.1249,0.50937 -0.014,0.088 -0.07,0.34693 -0.1242,0.57556 -0.054,0.22862 -0.096,0.44446 -0.093,0.47963 0.011,0.1519 0.5216,-1.03476 0.6398,-1.48628 z m 0.9504,-1.028 c 0,-0.0814 0.027,-0.19657 0.058,-0.25581 0.031,-0.0593 0.074,-0.27671 0.098,-0.48326 0.041,-0.36942 0.039,-0.3748 -0.1031,-0.32833 -0.08,0.026 -0.2533,0.0432 -0.3852,0.0383 l -0.2399,-0.009 v 0.37632 c 0,0.20698 -0.017,0.50705 -0.039,0.66683 -0.034,0.24996 -0.023,0.2937 0.079,0.31333 0.2072,0.0399 0.5323,-0.15373 0.5346,-0.3184 z m -2.7537,-0.23195 c 0.3594,-0.21835 1.0277,-0.86233 1.2509,-1.20535 0.1328,-0.20402 0.1766,-0.38726 0.3857,-1.61215 0.063,-0.37049 0.1133,-1.0296 0.1186,-1.5668 0.01,-0.82856 -0.01,-0.9769 -0.147,-1.39327 -0.4319,-1.28774 -1.9408,-1.781 -3.3577,-1.09764 -0.9023,0.43519 -1.3542,1.32255 -1.3336,2.61881 0.017,1.04559 0.3288,2.73521 0.5747,3.11051 0.2633,0.40184 1.6887,1.36606 2.0193,1.36606 0.069,0 0.2897,-0.0991 0.4891,-0.22017 z m -0.4098,-0.0996 c 0.022,-0.0351 0.052,-0.064 0.068,-0.064 0.015,0 0.028,0.0288 0.028,0.064 0,0.0352 -0.031,0.064 -0.068,0.064 -0.037,0 -0.05,-0.0288 -0.028,-0.064 z m -0.1599,-0.25458 c 0,-0.0793 0.29,-0.15511 0.3801,-0.0994 0.1366,0.0844 0.062,0.16212 -0.1562,0.16212 -0.123,0 -0.2239,-0.0282 -0.2239,-0.0628 z m -0.2078,-0.45925 c -0.097,-0.0353 -0.1758,-0.0906 -0.1758,-0.12286 0,-0.11044 0.032,-0.15453 0.096,-0.13215 0.1781,0.0623 0.4055,0.0516 0.5984,-0.0284 0.379,-0.15722 0.4738,0.0732 0.1029,0.25001 -0.253,0.12067 -0.3659,0.12675 -0.6214,0.0334 z m -0.8473,-1.05806 c -0.1206,-0.0262 -0.4157,-0.40578 -0.4157,-0.53478 0,-0.0797 -0.1102,-0.076 -0.1605,0.006 -0.065,0.10493 -0.1671,-2.4e-4 -0.1463,-0.1506 0.015,-0.10967 -0.018,-0.14247 -0.1606,-0.15882 -0.1028,-0.0118 -0.1691,-0.0528 -0.1548,-0.0959 0.015,-0.0461 0.2046,-0.0827 0.488,-0.0942 0.4402,-0.018 0.4853,-0.007 0.9118,0.23982 0.2468,0.14228 0.5038,0.2587 0.571,0.2587 0.067,0 0.1222,0.0278 0.1222,0.0617 0,0.0894 -0.2212,0.1941 -0.4099,0.1941 -0.103,0 -0.2011,0.0588 -0.2674,0.15988 -0.1041,0.15897 -0.1332,0.16782 -0.3778,0.11466 z m 0.021,-0.61558 c 0.014,-0.0695 -0.022,-0.10661 -0.1013,-0.10661 -0.1679,0 -0.22,0.0674 -0.1331,0.1721 0.09,0.10897 0.2068,0.0764 0.2344,-0.0655 z m 1.9201,0.61284 c -0.01,-0.0264 -0.013,-0.0911 -0.015,-0.1439 -0.01,-0.10972 -0.1589,-0.13295 -0.2794,-0.0427 -0.044,0.0335 -0.088,0.0496 -0.096,0.0359 -0.1807,-0.31402 -0.1811,-0.37682 0,-0.37682 0.048,0 0.2724,-0.11713 0.499,-0.26028 0.3184,-0.20111 0.4925,-0.26681 0.7658,-0.28903 0.2865,-0.0232 0.3538,-0.0103 0.3538,0.0685 0,0.061 -0.06,0.0972 -0.1599,0.0972 -0.088,0 -0.1599,0.0288 -0.1599,0.064 0,0.0351 0.029,0.064 0.064,0.064 0.036,0 0.064,0.0431 0.064,0.0959 0,0.0527 -0.053,0.0959 -0.1177,0.0959 -0.1151,0 -0.266,0.23631 -0.266,0.41645 0,0.0498 -0.056,0.12045 -0.1237,0.15686 -0.1428,0.0764 -0.5112,0.0892 -0.5256,0.0182 z m 0.3018,-0.51264 c -0.058,-0.058 -0.2363,0.048 -0.1946,0.11559 0.029,0.0464 0.07,0.0437 0.1336,-0.009 0.05,-0.0419 0.078,-0.09 0.061,-0.10693 z m -2.0876,-1.02261 c -0.3396,-0.22994 -0.8904,-0.74678 -0.8904,-0.83551 0,-0.0712 0.054,-0.0826 0.2398,-0.05 0.1319,0.0231 0.3795,0.0601 0.5501,0.082 l 0.3103,0.0399 -0.045,-0.5394 c -0.066,-0.79728 0.116,-2.10195 0.294,-2.10195 0.032,0 0.058,0.0337 0.058,0.0749 0,0.0412 0.043,0.12296 0.097,0.18171 0.083,0.0922 0.087,0.23217 0.032,1.01914 -0.075,1.04894 -0.1153,1.27294 -0.2056,1.14447 -0.041,-0.0593 -0.051,-0.0272 -0.03,0.10338 0.02,0.12524 0,0.21384 -0.068,0.26156 -0.074,0.0541 -0.087,0.13124 -0.055,0.30799 0.025,0.12972 0.072,0.21896 0.105,0.19832 0.034,-0.0206 0.061,0.008 0.061,0.0622 0,0.11167 -0.099,0.13387 -0.1599,0.0357 -0.062,-0.10077 -0.1598,-0.0745 -0.119,0.032 0.046,0.12179 0.028,0.12001 -0.1736,-0.0164 z m 1.8518,0.0347 c -0.01,-0.0452 -0.01,-0.10376 0,-0.13015 0.01,-0.0264 -0.021,-0.048 -0.057,-0.048 -0.036,0 -0.064,-0.11511 -0.064,-0.25581 0,-0.21317 -0.021,-0.2558 -0.1279,-0.2558 -0.14,0 -0.1761,-0.16118 -0.048,-0.21439 0.056,-0.023 0.035,-0.0728 -0.066,-0.16121 -0.1271,-0.11142 -0.1543,-0.22183 -0.2088,-0.85146 -0.035,-0.39789 -0.079,-0.80977 -0.097,-0.9153 -0.026,-0.14183 0.01,-0.24854 0.1268,-0.4093 l 0.1613,-0.21746 0.061,0.1591 c 0.085,0.22601 0.2136,1.33449 0.2233,1.93854 l 0.01,0.5116 0.1917,-0.003 c 0.1056,-9.6e-4 0.343,-0.024 0.5277,-0.0502 0.2317,-0.0328 0.3357,-0.0256 0.3357,0.0234 0,0.0848 -0.6866,0.81527 -0.8468,0.90106 -0.08,0.0426 -0.1146,0.0362 -0.12,-0.022 z m 2.2459,2.54358 c 0,-0.0156 -0.029,-0.046 -0.064,-0.0677 -0.036,-0.0217 -0.064,-0.009 -0.064,0.0281 0,0.0373 0.029,0.0677 0.064,0.0677 0.036,0 0.064,-0.0127 0.064,-0.0281 z m -0.333,-1.18188 c -0.01,-0.0853 -0.052,-0.166 -0.093,-0.17944 -0.1018,-0.0334 -0.1703,0.20996 -0.1179,0.4188 0.042,0.16716 0.045,0.16817 0.1364,0.0434 0.052,-0.0703 0.085,-0.19752 0.075,-0.28277 z m -0.3704,-0.0767 c 0,-0.0309 -0.058,-0.0561 -0.1279,-0.0561 -0.1229,0 -0.1733,0.12506 -0.086,0.21261 0.049,0.0484 0.2138,-0.0726 0.2138,-0.15649 z m -4.9252,-0.009 c 0,-0.044 -0.028,-0.12286 -0.06,-0.17533 -0.047,-0.0741 -0.078,-0.0784 -0.137,-0.0187 -0.06,0.0596 -0.059,0.0986 0.01,0.17533 0.099,0.11906 0.1944,0.12832 0.1931,0.0187 z m 5.2188,-0.4152 c -0.044,-0.0444 -0.1657,0.0458 -0.1657,0.12303 0,0.0423 0.036,0.0375 0.098,-0.0129 0.054,-0.0445 0.084,-0.0941 0.068,-0.11016 z m -5.8572,-0.3361 c -0.1582,-0.14786 -0.1918,-0.21976 -0.1556,-0.33385 0.05,-0.15864 0.2052,-0.30054 0.3313,-0.30375 0.1203,-0.003 0.096,0.085 -0.048,0.17498 -0.1664,0.10394 -0.1636,0.31099 0.01,0.40147 0.1485,0.0795 0.1411,0.0829 0.2416,-0.11063 0.1075,-0.20651 0.089,-0.39335 -0.06,-0.60187 -0.1665,-0.23387 -0.2164,-0.2329 -0.3155,0.007 -0.095,0.22941 -0.289,0.27171 -0.22,0.048 0.1382,-0.44785 0.3387,-0.60722 0.527,-0.41888 0.06,0.0597 0.077,0.0522 0.077,-0.0336 0,-0.12117 -0.2673,-0.25118 -0.4065,-0.19775 -0.2085,0.08 -0.4005,0.82587 -0.282,1.09543 0.043,0.0981 0.095,0.19266 0.1147,0.21025 0.02,0.0176 0.1066,0.13238 0.1924,0.25511 0.1228,0.17551 0.1608,0.19905 0.1778,0.11027 0.013,-0.0642 -0.065,-0.19399 -0.18,-0.3013 z m 5.826,0.0713 c 0.1384,-0.11214 0.1424,-0.13295 0.058,-0.30376 -0.05,-0.10087 -0.1035,-0.20933 -0.1181,-0.24105 -0.014,-0.0317 0.034,-0.0417 0.1097,-0.022 0.175,0.0458 0.2125,-0.0177 0.1009,-0.17035 -0.077,-0.10499 -0.1023,-0.10905 -0.1961,-0.0312 -0.2378,0.19721 -0.3864,0.88881 -0.191,0.88881 0.049,0 0.1557,-0.0542 0.2374,-0.12039 z m 0.505,-0.79266 c 0,-0.15222 -0.2742,-0.49033 -0.3997,-0.49289 -0.097,-0.002 -0.043,0.14702 0.1279,0.35334 0.1887,0.22747 0.2718,0.27013 0.2718,0.13955 z m -2.1424,16.83682 c -0.181,-0.0667 -0.5017,-0.12013 -0.7392,-0.12294 -0.6737,-0.008 -0.8431,-0.25641 -0.3358,-0.4923 0.134,-0.0623 0.267,-0.15143 0.2956,-0.19803 0.028,-0.0466 0.082,-0.0663 0.1183,-0.0437 0.042,0.0263 0.041,-0.007 -0.01,-0.091 -0.039,-0.0726 -0.099,-0.14976 -0.1344,-0.17137 -0.1281,-0.0792 -0.067,-0.32955 0.099,-0.40521 0.1979,-0.0902 1.1085,-0.0983 1.3358,-0.0118 0.2132,0.081 0.2099,0.25842 -0.01,0.44831 -0.1478,0.12851 -0.2442,0.15081 -0.6714,0.15542 -0.3055,0.003 -0.4988,0.0317 -0.4989,0.0733 0,0.0654 0.5027,0.2217 0.831,0.25828 0.1616,0.018 0.4161,0.27785 0.4869,0.49723 0.081,0.24923 -0.2577,0.29461 -0.7744,0.10393 z"
         id="path102" />
    </g>
  </g>
</svg>
