<?xml version="1.0" encoding="UTF-8" standalone="no"?>
<!-- Created with Inkscape (http://www.inkscape.org/) -->

<svg
   width="41.008999mm"
   height="41.008999mm"
   viewBox="0 0 41.008999 41.008999"
   version="1.1"
   id="svg1"
   inkscape:version="1.4.2 (f4327f4, 2025-05-13)"
   sodipodi:docname="322.svg"
   xmlns:inkscape="http://www.inkscape.org/namespaces/inkscape"
   xmlns:sodipodi="http://sodipodi.sourceforge.net/DTD/sodipodi-0.dtd"
   xmlns="http://www.w3.org/2000/svg"
   xmlns:svg="http://www.w3.org/2000/svg">
  <sodipodi:namedview
     id="namedview1"
     pagecolor="#ffffff"
     bordercolor="#000000"
     borderopacity="0.25"
     inkscape:showpageshadow="2"
     inkscape:pageopacity="0.0"
     inkscape:pagecheckerboard="0"
     inkscape:deskcolor="#d1d1d1"
     inkscape:document-units="mm"
     inkscape:zoom="1.4513545"
     inkscape:cx="86.470947"
     inkscape:cy="71.657199"
     inkscape:window-width="1050"
     inkscape:window-height="1081"
     inkscape:window-x="857"
     inkscape:window-y="0"
     inkscape:window-maximized="0"
     inkscape:current-layer="layer1" />
  <defs
     id="defs1" />
  <g
     inkscape:label="Layer 1"
     inkscape:groupmode="layer"
     id="layer1"
     transform="translate(333.37504,1257.5646)">
    <g
       id="g105"
       transform="translate(-1416.054,-1032.7365)">
      <circle
         style="fill:none;stroke:#ff0000;stroke-width:0.1;stroke-dasharray:none"
         id="path788-8-1-8-1-9-2-2-9-1-6-9-29-1-9"
         cx="1103.1835"
         cy="-204.32362"
         r="19.954653" />
      <ellipse
         style="fill:none;stroke:#ff00ff;stroke-width:0.1;stroke-dasharray:none;stroke-opacity:1"
         id="path1138-9-4-0-0-1-2-8-1-8-1-17-7-1-6"
         cx="1103.1835"
         cy="-204.32362"
         rx="18.492125"
         ry="18.492126" />
      <circle
         style="fill:none;stroke:#0000ff;stroke-width:0.1;stroke-linecap:round;stroke-dasharray:none;stroke-opacity:1;paint-order:markers stroke fill"
         id="path13019-1-33-4-5-5-2-4-3-8-8"
         cx="1103.1835"
         cy="-219.33459"
         r="2" />
      <g
         id="g104"
         transform="translate(0.37417734,-0.09354433)">
        <path
           style="fill:#000000;stroke-width:0.114071"
           d="m 1093.4511,-190.61388 c -0.8142,-0.029 -1.6057,-0.0751 -2.1964,-0.12744 -0.3425,-0.0304 -0.3553,-0.0327 -0.3817,-0.068 -0.027,-0.036 -0.05,-0.14986 -0.067,-0.32766 -0.01,-0.0759 -0.018,-0.18719 -0.023,-0.24728 -0.012,-0.12208 0,-0.41696 0.03,-0.66616 0.1657,-1.4573 0.9151,-4.26756 1.6869,-6.32639 0.5012,-1.33655 0.9524,-2.18584 1.2559,-2.36369 0.1455,-0.0853 0.3966,-0.1711 0.6689,-0.22857 0.7367,-0.15543 1.9012,-0.17532 2.7826,-0.0475 0.3381,0.049 0.5475,0.10492 0.7406,0.1977 0.088,0.0425 0.1254,0.0685 0.1852,0.13004 0.5651,0.58158 1.537,3.00358 2.2085,5.50342 0.3724,1.38665 0.5979,2.72472 0.5979,3.54853 0,0.33051 -0.046,0.71827 -0.089,0.75957 -0.053,0.0506 -0.4329,0.14408 -0.7856,0.19345 -0.7189,0.10064 -1.5795,0.10562 -3.1527,0.0183 -0.2824,-0.0157 -0.5232,-0.0285 -0.5352,-0.0285 -0.045,0 -0.058,-0.0515 -0.065,-0.25878 -0.01,-0.10754 -0.015,-0.26797 -0.023,-0.35654 -0.046,-0.44314 -0.061,-1.51509 -0.026,-1.84596 0.023,-0.22305 0.034,-0.26894 0.072,-0.31927 0.068,-0.0894 0.191,-0.11938 0.6769,-0.16437 0.2212,-0.0205 0.3734,-0.0243 1.2133,-0.0302 0.8648,-0.006 0.9678,-0.005 1.0351,0.012 0.087,0.0217 0.2894,0.11977 0.3383,0.16349 0.028,0.0256 0.032,0.0344 0.023,0.0601 -0.015,0.0427 -0.098,0.0901 -0.2058,0.11704 -0.1702,0.0427 -0.3615,0.0573 -0.9087,0.0692 -0.9505,0.0208 -1.2049,0.0352 -1.4345,0.0813 -0.1637,0.0329 -0.268,0.0748 -0.3271,0.13149 l -0.05,0.0477 v 0.15206 c 0,0.10962 0.01,0.16096 0.016,0.18398 0.099,0.19049 0.4827,0.24016 1.3004,0.1681 0.4166,-0.0367 0.9747,-0.0506 1.186,-0.0294 0.1558,0.0156 0.3809,0.0583 0.48,0.0911 0.079,0.0264 0.1407,0.0811 0.1591,0.14209 0.01,0.0364 0.01,0.0509 -0.01,0.0902 -0.028,0.0617 -0.071,0.0968 -0.1895,0.15368 l -0.098,0.047 -1.3733,8.6e-4 c -1.5477,8.6e-4 -1.3949,-0.009 -1.4094,0.0943 -0.01,0.0297 -0.018,0.10743 -0.03,0.17259 -0.028,0.14854 -0.028,0.16996 0,0.27999 0.03,0.11164 0.054,0.13646 0.1686,0.1743 0.3307,0.1093 0.9398,0.16042 1.912,0.16048 0.5362,5e-5 0.9271,-0.0125 1.1904,-0.0381 0.063,-0.006 0.1616,-0.014 0.2185,-0.0175 0.1454,-0.009 0.1545,-0.0118 0.1721,-0.0542 0.048,-0.11738 0.061,-0.61224 0.024,-0.98583 -0.1172,-1.20935 -0.5703,-3.06386 -1.2335,-5.04907 -0.3696,-1.10654 -0.7164,-1.99446 -1.006,-2.57629 -0.1637,-0.32891 -0.2817,-0.50791 -0.3586,-0.54441 -0.021,-0.01 -0.1326,-0.0332 -0.2497,-0.0524 -0.7909,-0.12969 -1.6986,-0.14809 -2.5763,-0.0522 -0.2393,0.0261 -0.6195,0.0921 -0.6793,0.11791 -0.1982,0.0856 -0.4479,0.39348 -0.7171,0.88445 -0.6044,1.10264 -1.3364,3.14058 -1.8414,5.127 -0.3873,1.52316 -0.5453,2.63755 -0.4395,3.09881 0.012,0.0545 0.019,0.0636 0.048,0.0716 0.1389,0.0371 0.9962,0.0509 2.1165,0.034 1.0068,-0.0153 1.8254,-0.0345 1.8341,-0.0431 0.013,-0.0126 0.013,-0.56684 0,-0.61345 -0.01,-0.034 -0.024,-0.0541 -0.055,-0.0743 -0.055,-0.0356 -0.3295,-0.10715 -0.466,-0.12138 -0.058,-0.006 -0.1601,-0.0171 -0.2265,-0.0244 -0.1654,-0.0183 -0.502,-0.007 -0.9316,0.0315 -0.4505,0.0402 -0.9833,0.0457 -1.1941,0.0123 -0.1542,-0.0245 -0.3525,-0.0733 -0.4765,-0.1174 -0.088,-0.0312 -0.089,-0.0323 -0.089,-0.0711 0,-0.0969 0.2105,-0.20087 0.5196,-0.25651 0.4531,-0.0816 1.0845,-0.0961 2.2348,-0.0514 0.2341,0.009 0.4814,0.0165 0.5495,0.0166 l 0.124,9e-5 0.013,-0.0316 c 0.01,-0.0208 0.014,-0.11934 0.014,-0.28843 0,-0.24315 0,-0.25769 -0.022,-0.27351 -0.086,-0.0629 -0.3326,-0.0753 -1.2136,-0.0609 -1.4678,0.0239 -1.917,-0.0418 -1.8009,-0.26331 0.037,-0.0699 0.1661,-0.16354 0.2667,-0.19287 0.1373,-0.0401 0.1931,-0.0422 1.1834,-0.0454 1.237,-0.004 1.2411,-0.003 2.0367,0.12698 0.019,0.003 0.049,0.0203 0.066,0.0381 l 0.031,0.0323 0.01,0.90203 c 0.01,0.91655 0,1.13943 -0.036,1.36786 -0.01,0.0538 -0.019,0.15644 -0.023,0.22815 -0.01,0.16062 -0.023,0.19921 -0.083,0.22326 -0.051,0.0203 -0.2254,0.0489 -0.4122,0.0675 -0.1562,0.0155 -1.5223,0.0227 -1.8805,0.01 z m 2.2083,-3.91059 c -0.3768,-0.052 -0.7459,-0.20599 -1.0604,-0.44259 -0.2238,-0.16837 -0.3248,-0.27547 -0.4896,-0.51896 -0.1164,-0.1721 -0.311,-0.61318 -0.365,-0.82733 -0.069,-0.27474 -0.08,-0.37086 -0.08,-0.68355 0,-0.30186 0.01,-0.3603 0.065,-0.58636 0.1635,-0.63712 0.6474,-1.18126 1.3091,-1.47203 0.705,-0.30977 1.4912,-0.32003 2.1056,-0.0275 0.2033,0.0968 0.3418,0.19468 0.5011,0.35412 0.3,0.30003 0.4599,0.64275 0.5237,1.12219 0.021,0.15298 0.017,0.51372 -0.01,0.69583 -0.028,0.22021 -0.084,0.48154 -0.1209,0.57093 -0.056,0.13325 -0.1554,0.2692 -0.3108,0.42498 -0.4435,0.44471 -0.8495,0.62697 -1.3463,0.60446 -0.2442,-0.011 -0.4434,-0.0618 -0.6613,-0.16821 -0.1646,-0.0805 -0.2819,-0.16251 -0.4147,-0.29016 -0.1448,-0.13928 -0.2437,-0.27229 -0.2786,-0.37488 -0.1327,-0.38909 -0.142,-0.76771 -0.027,-1.08201 0.1371,-0.37414 0.4675,-0.6663 0.8812,-0.77914 0.1033,-0.0282 0.1349,-0.0315 0.3105,-0.0322 0.1713,-5.3e-4 0.207,0.003 0.2869,0.0256 0.3122,0.0902 0.5141,0.3042 0.5762,0.61081 0.028,0.14016 0.019,0.51984 -0.016,0.65082 -0.06,0.22531 -0.1752,0.3871 -0.3481,0.4917 -0.1073,0.0649 -0.1784,0.0834 -0.3202,0.0832 -0.1124,-8e-5 -0.1263,-0.003 -0.2006,-0.0378 -0.1471,-0.0695 -0.223,-0.18395 -0.2335,-0.35205 -0.01,-0.0707 0,-0.12067 0.015,-0.1842 0.011,-0.048 0.024,-0.0872 0.028,-0.0872 0.01,0 0.032,0.051 0.061,0.11338 0.071,0.14924 0.098,0.18089 0.1785,0.20427 0.1378,0.0401 0.2659,-0.004 0.3851,-0.133 0.1209,-0.13059 0.1931,-0.31576 0.1924,-0.49416 0,-0.15907 -0.043,-0.27118 -0.1398,-0.36792 -0.2054,-0.20541 -0.6377,-0.21921 -0.9236,-0.0295 -0.2399,0.15928 -0.3868,0.42377 -0.422,0.76033 -0.062,0.59008 0.3356,1.04124 0.9651,1.0959 0.4028,0.035 0.8137,-0.10692 1.1015,-0.38029 0.2116,-0.2009 0.3505,-0.45795 0.4194,-0.77543 0.078,-0.36128 0.078,-0.69828 0,-0.98271 -0.031,-0.11355 -0.1337,-0.32019 -0.2059,-0.41512 -0.2924,-0.3847 -0.8158,-0.59298 -1.4329,-0.57018 -0.4331,0.016 -0.8496,0.13325 -1.2123,0.3413 -0.1758,0.10079 -0.3112,0.20498 -0.4554,0.3502 -0.3703,0.37306 -0.5367,0.84395 -0.4779,1.3521 0.044,0.37751 0.1958,0.75033 0.4804,1.17685 0.099,0.14775 0.138,0.19633 0.2091,0.25709 0.2641,0.2261 0.6335,0.39947 1.0248,0.48098 0.199,0.0414 0.4843,0.051 0.6997,0.0236 0.2338,-0.0298 0.6206,-0.1323 0.6943,-0.18394 0.029,-0.0203 0.066,-0.024 0.066,-0.007 0,0.0271 -0.091,0.10861 -0.1941,0.17339 -0.2314,0.14595 -0.4834,0.24878 -0.7322,0.2987 -0.1415,0.0283 -0.4704,0.0405 -0.6035,0.0221 z m 14.2903,-9.20077 c -1.2071,-0.0745 -2.354,-0.48629 -3.295,-1.18302 -0.047,-0.0351 -0.155,-0.11109 -0.239,-0.16881 -0.4803,-0.33032 -0.7114,-0.56284 -1.0193,-1.02596 -0.2076,-0.31237 -0.5164,-0.86557 -0.6432,-1.15255 -0.2863,-0.64791 -0.441,-1.265 -0.4917,-1.96146 -0.019,-0.26377 -0.01,-0.79635 0.023,-1.05236 0.1747,-1.4691 0.876,-2.78166 2.0196,-3.77996 0.1106,-0.0964 0.3856,-0.3026 0.5567,-0.41724 0.7616,-0.51023 1.6179,-0.84371 2.5084,-0.97692 0.3511,-0.0525 0.5188,-0.064 0.9316,-0.0642 0.417,-1.1e-4 0.5529,0.009 0.8959,0.0578 1.9756,0.28311 3.6839,1.50283 4.5596,3.25551 0.3109,0.62241 0.4945,1.24511 0.5792,1.96526 0.026,0.21868 0.029,0.957 0.01,1.17313 -0.079,0.72428 -0.2583,1.35298 -0.5601,1.96673 -0.4331,0.88049 -0.8465,1.43168 -1.3765,1.83568 -0.076,0.0576 -0.1933,0.14953 -0.2616,0.20418 -0.8295,0.66451 -1.857,1.11041 -2.9162,1.26566 -0.3849,0.0564 -0.9164,0.0807 -1.2767,0.0585 z m 0.9432,-0.84541 c 1.6897,-0.16829 3.1774,-1.11154 4.0293,-2.55464 0.1087,-0.18403 0.2936,-0.5634 0.2852,-0.58515 -0.01,-0.0133 -0.027,-0.0171 -0.1018,-0.0171 -0.5316,3.4e-4 -1.2371,0.35489 -2.0044,1.00728 -0.2377,0.20201 -0.3524,0.31317 -0.5928,0.57408 -0.3168,0.34387 -0.7495,0.77347 -0.8988,0.89235 -0.1705,0.13581 -0.3159,0.21898 -0.8231,0.47078 -0.242,0.12012 -0.4399,0.2243 -0.4399,0.2315 0,0.016 0.3004,0.005 0.5463,-0.019 z m -1.4262,-0.35032 c 0.1012,-0.0127 0.2332,-0.0261 0.2933,-0.0299 0.06,-0.003 0.1404,-0.0168 0.1783,-0.029 0.038,-0.0121 0.157,-0.0452 0.2645,-0.0737 0.1703,-0.045 0.2208,-0.0642 0.3911,-0.14905 0.3429,-0.17088 0.6329,-0.35748 0.9107,-0.58608 0.068,-0.0564 0.241,-0.21939 0.3835,-0.3623 0.3035,-0.30451 0.9788,-0.95451 1.144,-1.10131 0.4988,-0.44307 0.938,-0.69346 1.5475,-0.88209 0.092,-0.0285 0.2111,-0.0599 0.2646,-0.0699 0.1147,-0.0214 0.335,-0.0407 0.4671,-0.0409 l 0.094,-2.3e-4 0.018,-0.0546 c 0.077,-0.23415 0.1794,-0.85199 0.1794,-1.08218 v -0.0555 l -0.2099,-0.0221 c -0.3068,-0.0322 -0.7087,-0.0302 -0.9115,0.005 -0.3232,0.0556 -0.4851,0.11065 -0.72,0.245 -0.3913,0.22381 -0.7293,0.50012 -1.4824,1.21207 -0.5598,0.52909 -0.6829,0.63025 -1.1272,0.92608 -0.7859,0.52335 -1.6227,0.88212 -2.6511,1.1366 -0.2877,0.0712 -0.4408,0.0966 -0.8108,0.13444 -0.4699,0.0481 -0.5416,0.0535 -0.6297,0.0482 -0.046,-0.003 -0.083,-0.003 -0.083,5.3e-4 0,0.0144 0.3193,0.25108 0.4715,0.34958 0.2521,0.16315 0.6859,0.39295 0.8166,0.43263 0.021,0.007 0.1179,0.0212 0.2127,0.0322 0.095,0.011 0.2217,0.0266 0.2819,0.0348 0.1453,0.0197 0.4711,0.0112 0.7073,-0.0183 z m -1.7769,-1.24272 c 0.072,-0.006 0.1892,-0.0216 0.2588,-0.0339 0.07,-0.0123 0.1652,-0.0256 0.2127,-0.0296 0.1797,-0.0152 0.5703,-0.13495 0.9432,-0.28921 0.2405,-0.0995 0.7753,-0.36551 1.0293,-0.51197 0.7612,-0.43884 1.409,-0.91608 1.9322,-1.42345 0.1305,-0.12659 0.1927,-0.18222 0.4773,-0.42705 0.693,-0.59609 0.9838,-0.7738 1.5987,-0.97698 0.4248,-0.14036 0.6815,-0.17795 1.1603,-0.16994 l 0.2952,0.005 -0.01,-0.10412 c -0.025,-0.28756 -0.1126,-0.74732 -0.1455,-0.76475 -0.069,-0.0364 -0.7328,-0.0521 -1.0363,-0.0247 -0.5043,0.0457 -0.9531,0.15218 -1.2616,0.29955 -0.1101,0.0526 -0.3042,0.17691 -0.6533,0.41859 -0.4646,0.32157 -0.7541,0.54907 -1.2825,1.00792 -0.5716,0.49644 -0.8193,0.70196 -1.0811,0.89699 -0.642,0.47829 -1.1635,0.73171 -1.9149,0.93053 -0.3682,0.0974 -0.7303,0.13602 -1.1617,0.12388 -0.5807,-0.0164 -0.8891,-0.0857 -1.2924,-0.29072 -0.1167,-0.0594 -0.2144,-0.10577 -0.217,-0.10315 -0.01,0.008 0.1121,0.25224 0.2031,0.4151 0.1624,0.29056 0.5318,0.80889 0.6142,0.86204 0.014,0.009 0.102,0.0371 0.1961,0.0628 0.4177,0.11403 0.7977,0.15665 1.1343,0.12724 z m 0.069,-1.6431 c 0.4445,-0.0602 0.8311,-0.17788 1.2481,-0.37985 0.5158,-0.24986 0.9641,-0.55628 1.6675,-1.1399 0.1265,-0.10498 0.2792,-0.23428 0.3393,-0.28734 0.1417,-0.12517 0.4138,-0.34137 0.8611,-0.68428 0.198,-0.15181 0.3946,-0.30347 0.4366,-0.337 0.1167,-0.0928 0.4842,-0.33494 0.6492,-0.42777 0.3498,-0.19669 0.687,-0.31537 1.0492,-0.36921 0.192,-0.0285 0.5379,-0.0409 0.9373,-0.0335 0.174,0.003 0.3183,0.005 0.3209,0.003 0.01,-0.006 -0.1114,-0.28259 -0.2002,-0.45738 -0.1452,-0.28553 -0.327,-0.57202 -0.5214,-0.8218 l -0.076,-0.0972 -0.019,0.12597 c -0.053,0.34945 -0.1634,0.57509 -0.4067,0.83129 -0.1869,0.19708 -0.4112,0.32731 -0.6876,0.39942 -0.098,0.0257 -0.1511,0.0317 -0.3163,0.0367 -0.281,0.009 -0.5009,-0.0232 -0.7748,-0.11109 -0.06,-0.0195 -0.1134,-0.0354 -0.117,-0.0354 -0.01,0 -0.043,0.11305 -0.088,0.2512 -0.085,0.26179 -0.1651,0.43895 -0.3051,0.67465 -0.053,0.09 -0.097,0.14379 -0.201,0.24728 -0.3148,0.31361 -0.6525,0.47028 -1.1144,0.51702 -0.1516,0.0153 -0.5255,0.0152 -0.7781,-7e-5 -0.3467,-0.021 -0.3842,-0.0203 -0.4073,0.008 -0.012,0.0146 -0.028,0.0732 -0.04,0.1433 -0.03,0.18058 -0.1264,0.447 -0.2216,0.61236 -0.145,0.25205 -0.3636,0.47392 -0.6189,0.62809 -0.6757,0.40819 -1.5544,0.42735 -2.1169,0.0462 -0.1138,-0.0771 -0.18,-0.145 -0.3078,-0.31542 -0.2369,-0.316 -0.2971,-0.52076 -0.2809,-0.95468 0.01,-0.25143 0.041,-0.38059 0.1374,-0.57562 0.09,-0.18076 0.2397,-0.38572 0.3788,-0.51919 0.1362,-0.13048 0.4225,-0.29812 0.6244,-0.36546 0.2813,-0.0938 0.5699,-0.082 0.7975,0.0325 0.2841,0.14308 0.4977,0.43545 0.58,0.79394 0.034,0.14732 0.033,0.39936 0,0.52975 -0.041,0.15725 -0.1065,0.27279 -0.213,0.37944 -0.1028,0.10299 -0.1942,0.15748 -0.3406,0.20319 -0.073,0.0229 -0.1106,0.027 -0.2472,0.027 -0.1608,0 -0.1612,-5e-5 -0.232,-0.0385 -0.1416,-0.0768 -0.2421,-0.2126 -0.2753,-0.37192 -0.032,-0.15013 0.01,-0.25633 0.1081,-0.28473 l 0.035,-0.0101 0.01,0.15229 c 0.01,0.14756 0.01,0.15363 0.037,0.19583 0.058,0.0769 0.1065,0.0895 0.3213,0.0844 0.2477,-0.006 0.2875,-0.0203 0.416,-0.15126 0.2679,-0.27294 0.2662,-0.62731 -0.01,-0.90214 -0.111,-0.11262 -0.2509,-0.19395 -0.4216,-0.24495 -0.1142,-0.0341 -0.3412,-0.0429 -0.4423,-0.0172 -0.3456,0.0881 -0.736,0.47587 -0.8637,0.85787 -0.03,0.0899 -0.037,0.13321 -0.042,0.24406 -0.01,0.0838 0,0.16217 0.01,0.20703 0.1145,0.58566 0.8008,0.98279 1.515,0.87674 0.3004,-0.0446 0.5287,-0.16228 0.742,-0.38256 0.2281,-0.23547 0.3761,-0.51978 0.5184,-0.99535 l 0.049,-0.16269 -10e-5,-0.31628 -10e-5,-0.31629 -0.044,-0.18977 c -0.1703,-0.73195 -0.4233,-1.06263 -0.947,-1.23787 -0.1925,-0.0644 -0.3171,-0.0854 -0.55,-0.0926 -0.6108,-0.0188 -1.2037,0.16642 -1.5863,0.49545 -0.091,0.0779 -0.234,0.2429 -0.2554,0.29386 -0.1758,0.41902 -0.3115,0.99615 -0.3503,1.48951 -0.02,0.2505 -0.01,0.78876 0.023,1.01833 0.02,0.14877 0.088,0.51791 0.096,0.52408 0,8.6e-4 0.062,0.0427 0.1346,0.0927 0.6212,0.42667 0.994,0.58015 1.5182,0.62501 0.194,0.0166 0.6696,0.005 0.8626,-0.0213 z m 2.653,-2.48637 c 0.247,-0.0336 0.4981,-0.12662 0.6651,-0.24628 0.3042,-0.21788 0.4805,-0.56037 0.5356,-1.04111 0.019,-0.16362 0.01,-0.51389 -0.023,-0.70733 -0.072,-0.45588 -0.2496,-0.94816 -0.4163,-1.15202 -0.2416,-0.29571 -0.5731,-0.56275 -0.8876,-0.71513 -0.3525,-0.17071 -0.6455,-0.24129 -1.0452,-0.25179 -0.265,-0.007 -0.3978,0.005 -0.6984,0.0613 -0.3956,0.0746 -0.5308,0.11208 -0.6671,0.18495 -0.7061,0.37743 -1.2942,0.87633 -1.7526,1.48692 -0.054,0.0725 -0.098,0.13316 -0.096,0.13472 0,0.002 0.1088,-0.0309 0.2382,-0.0722 0.4839,-0.15447 0.7157,-0.20015 1.0148,-0.20004 0.2689,1.1e-4 0.4274,0.029 0.7616,0.13847 0.2688,0.0881 0.3981,0.16382 0.5574,0.32638 0.043,0.0438 0.072,0.0641 0.091,0.0641 0.016,0 0.085,-0.0376 0.1614,-0.0885 0.073,-0.0487 0.1692,-0.10893 0.2134,-0.13393 0.045,-0.025 0.1245,-0.0767 0.1782,-0.11482 0.167,-0.11846 0.4075,-0.22288 0.6154,-0.26722 0.1235,-0.0264 0.3926,-0.0267 0.513,-5.4e-4 0.3478,0.075 0.5807,0.2508 0.7183,0.54194 0.1257,0.26613 0.1542,0.66208 0.067,0.93826 -0.1004,0.32016 -0.3103,0.55997 -0.5744,0.65607 -0.094,0.0341 -0.2923,0.0372 -0.3851,0.006 -0.2705,-0.0912 -0.5227,-0.34511 -0.5629,-0.56663 -0.036,-0.19793 0.091,-0.38986 0.3213,-0.4868 0.084,-0.035 0.1877,-0.0434 0.2444,-0.0196 0.075,0.0314 0.063,0.0409 -0.084,0.0659 -0.1391,0.0237 -0.2201,0.0864 -0.2654,0.20578 -0.05,0.13173 -0.015,0.24223 0.1112,0.35512 0.1875,0.16711 0.4691,0.23131 0.6424,0.14648 0.1388,-0.0679 0.284,-0.27709 0.3239,-0.46654 0.053,-0.25113 -0.043,-0.5444 -0.2457,-0.75171 -0.1641,-0.16779 -0.3537,-0.25821 -0.5838,-0.27846 -0.072,-0.006 -0.093,-0.003 -0.2058,0.0343 -0.3262,0.10777 -0.5805,0.27546 -0.7467,0.49242 -0.1372,0.17911 -0.1867,0.36947 -0.1579,0.60695 0.041,0.34576 0.1933,0.69728 0.4021,0.93359 0.051,0.058 0.1115,0.0835 0.3224,0.13632 0.2128,0.0532 0.5012,0.0719 0.6985,0.045 z m 2.639,-1.43086 c 0.1813,-0.0319 0.2924,-0.0719 0.4572,-0.16453 0.1445,-0.0812 0.1675,-0.099 0.2947,-0.22774 0.1465,-0.14822 0.2203,-0.25416 0.2813,-0.40408 0.071,-0.174 0.1024,-0.37732 0.087,-0.56025 -0.01,-0.11371 -0.01,-0.10841 -0.1949,-0.28213 -0.7896,-0.72579 -1.7905,-1.20065 -2.8477,-1.35105 -0.4223,-0.0601 -0.9628,-0.0688 -1.366,-0.0219 -0.034,0.003 -0.059,0.009 -0.056,0.0116 0,0.003 0.072,0.0224 0.155,0.0443 0.4869,0.12846 0.9102,0.32712 1.2097,0.56769 0.1318,0.10596 0.434,0.40195 0.5192,0.50864 0.079,0.099 0.1076,0.12524 0.1365,0.12524 0.01,0 0.078,-0.0634 0.1589,-0.14088 0.161,-0.15553 0.2312,-0.20672 0.3778,-0.27539 0.4994,-0.23403 1.1745,0.009 1.4272,0.51403 0.1328,0.26536 0.1241,0.58029 -0.023,0.86053 -0.068,0.12921 -0.2483,0.26675 -0.428,0.3266 -0.078,0.0257 -0.1123,0.0307 -0.2185,0.0308 -0.1613,1.1e-4 -0.2357,-0.0258 -0.3228,-0.11302 -0.069,-0.0686 -0.1039,-0.15032 -0.12,-0.27747 -0.021,-0.16072 0.034,-0.31597 0.1376,-0.39161 0.047,-0.0341 0.1102,-0.0595 0.1213,-0.0485 0,0.002 -0.012,0.0377 -0.033,0.0788 -0.034,0.0687 -0.037,0.0836 -0.037,0.18956 0,0.10911 0,0.11874 0.04,0.18749 0.047,0.0854 0.088,0.12334 0.1538,0.14131 0.064,0.0171 0.1794,0.006 0.2359,-0.0228 0.063,-0.0321 0.1862,-0.15477 0.2413,-0.24013 0.2495,-0.38664 0.026,-0.88605 -0.4633,-1.03373 -0.094,-0.0283 -0.2953,-0.0281 -0.391,5.3e-4 -0.2149,0.0642 -0.4058,0.21799 -0.5556,0.44742 -0.096,0.14708 -0.1101,0.18438 -0.1155,0.30533 -0.01,0.20168 0.036,0.39265 0.1385,0.59418 0.097,0.18981 0.1573,0.27826 0.2506,0.36624 0.2458,0.23198 0.4621,0.30562 0.7492,0.25514 z m -17.4247,7.50337 c -1.7319,-0.13277 -3.3332,-1.07739 -4.2972,-2.53511 -0.5413,-0.8184 -0.8461,-1.69458 -0.9383,-2.69705 -0.018,-0.19938 -0.018,-0.74248 0,-0.94311 0.07,-0.76866 0.2555,-1.42763 0.5907,-2.09899 0.674,-1.34997 1.8707,-2.38698 3.3039,-2.86322 0.4043,-0.13435 0.8287,-0.22197 1.2816,-0.26459 0.2482,-0.0233 0.7601,-0.0234 1.0129,-2.3e-4 1.1791,0.10837 2.2459,0.55268 3.1634,1.31737 0.1795,0.1497 0.5343,0.50356 0.6794,0.67782 0.7769,0.9329 1.2166,1.98806 1.3348,3.20311 0.022,0.22722 0.019,0.82013 -0.01,1.05238 -0.077,0.72411 -0.2495,1.33435 -0.5545,1.96097 -0.7179,1.47484 -2.0413,2.57334 -3.6224,3.00682 -0.335,0.0918 -0.7218,0.15825 -1.0754,0.18464 -0.1778,0.0133 -0.6956,0.0128 -0.8729,-8.6e-4 z m 0.9142,-0.64906 c 0.3007,-0.0287 0.5276,-0.0686 0.8207,-0.14445 1.1422,-0.29576 2.1546,-0.99452 2.8483,-1.96587 0.2922,-0.40913 0.5381,-0.89955 0.6947,-1.38555 0.4216,-1.30908 0.2863,-2.75284 -0.371,-3.95681 -0.4957,-0.90796 -1.2622,-1.64976 -2.1789,-2.10878 -1.432,-0.71707 -3.0994,-0.72315 -4.5322,-0.0165 -1.2199,0.60159 -2.1558,1.6844 -2.5777,2.98216 -0.5081,1.56288 -0.2114,3.30727 0.7846,4.61202 0.1504,0.19713 0.2766,0.33989 0.4727,0.53482 0.6447,0.64101 1.4472,1.09492 2.3281,1.31682 0.2653,0.0669 0.5256,0.10906 0.8758,0.14212 0.1283,0.0121 0.6712,0.006 0.8349,-0.01 z m -0.6508,-0.57008 c -1.2795,-0.0609 -2.5534,-0.72072 -3.2624,-1.68975 -0.358,-0.48928 -0.5467,-1.00508 -0.5746,-1.57022 -0.021,-0.41779 0.091,-0.90794 0.2995,-1.3208 0.1202,-0.2376 0.1791,-0.33123 0.4281,-0.68118 0.7838,-1.1012 1.2451,-1.9138 1.373,-2.41858 0.01,-0.0277 0.017,-0.0458 0.022,-0.0402 0.014,0.0146 0.066,0.19366 0.095,0.32364 0.021,0.0929 0.025,0.1503 0.025,0.33627 0,0.25548 -0.018,0.37189 -0.096,0.60269 -0.064,0.18796 -0.085,0.23389 -0.3384,0.73722 -0.3201,0.63514 -0.3926,0.84284 -0.4208,1.20566 -0.023,0.29947 0.05,0.74243 0.175,1.0537 0.09,0.22448 0.2151,0.41546 0.4341,0.66303 0.1249,0.14107 0.2066,0.19965 0.4658,0.33394 0.2781,0.14405 0.4764,0.19541 0.7131,0.18481 0.2368,-0.0106 0.2693,-0.0357 0.1737,-0.13412 -0.1257,-0.12957 -0.3182,-0.36607 -0.386,-0.47422 -0.1479,-0.23594 -0.3726,-0.71111 -0.4612,-0.97575 -0.056,-0.16694 -0.068,-0.25415 -0.076,-0.56131 -0.023,-0.90388 0.1376,-1.61566 0.5014,-2.2216 0.1441,-0.23988 0.471,-0.84616 0.5922,-1.09837 0.2497,-0.51917 0.3788,-0.88671 0.477,-1.35716 0.029,-0.14146 0.033,-0.14951 0.059,-0.14951 0.032,0 0.057,0.0395 0.057,0.092 0,0.0867 0.1353,0.53415 0.2388,0.79359 0.1128,0.28301 0.3242,0.72267 0.5804,1.20763 0.4328,0.81897 0.6425,1.31444 0.7217,1.70608 0.047,0.23172 0.084,0.55199 0.1057,0.92523 0.013,0.2234 0.013,0.23877 -0.01,0.2602 -0.032,0.0348 -0.073,0.0383 -0.2034,0.0174 -0.087,-0.014 -0.1588,-0.0175 -0.2634,-0.0129 -0.4257,0.0184 -0.752,0.21877 -0.9137,0.56114 -0.068,0.14347 -0.081,0.21193 -0.081,0.41303 0,0.17479 0,0.18057 0.041,0.29631 0.167,0.47647 0.5861,0.74325 1.0717,0.68214 0.4381,-0.0551 0.8841,-0.3094 1.0896,-0.62097 0.1209,-0.18348 0.1719,-0.37501 0.1718,-0.64682 -10e-5,-0.27278 -0.039,-0.48597 -0.2066,-1.13453 -0.1389,-0.53772 -0.1887,-0.78071 -0.2585,-1.26168 -0.051,-0.35042 -0.058,-0.44133 -0.058,-0.75909 0,-0.30578 0.01,-0.40045 0.047,-0.59807 0.027,-0.13145 0.098,-0.38787 0.1205,-0.43275 0.019,-0.0375 0.052,-0.0643 0.065,-0.0519 0,0.003 0.01,0.048 0.015,0.10091 0.037,0.34818 0.6632,1.7078 1.1492,2.49425 0.2594,0.41969 0.4108,0.78396 0.4897,1.17736 0.08,0.39842 0.075,0.83076 -0.013,1.22641 -0.2354,1.05891 -1.0493,1.9834 -2.1673,2.46161 -0.4737,0.20257 -1.0377,0.33307 -1.5166,0.35089 -0.086,0.003 -0.1924,0.008 -0.2367,0.009 -0.045,0.002 -0.1607,-3.4e-4 -0.2587,-0.005 z"
           id="path103"
           sodipodi:nodetypes="csscccssssssssssssccccssscssssscscsssccscscccssssccssssssssccsscssssssssssccscscsssscsccsscccsssscssscccsssscsssccssscccscsscsscsscssssscccsssscscccssssscsssscsscsscsccssccsssssssccssscssssscsscscsssssssscssccsssssssssccssssssssscssssscsssssssscsscssscssscsssscssssccsssscsssscscccsscsssccssccccsssssccccsccssscssscsccsssssscsscscssscssscssscsscsssscsssccsccsssscsssssccsccsccsssssccscccsccssscssscsssccsssssssssssssscscssccssccsssssssscsscsssssscscsscsssssscsccsssssccc" />
        <path
           d="m 1114.0697,-193.05877 c -0.2111,0.41277 -0.3952,0.68653 -0.6411,0.95289 -0.8359,0.90513 -2.0074,1.20839 -3.4091,0.88259 -0.3431,-0.0798 -1.1734,-0.36208 -1.374,-0.46698 -0.1728,-0.0908 -0.2958,-0.1934 -0.2429,-0.20307 0.012,-0.006 0.073,0.009 0.139,0.024 0.066,0.0151 0.2702,0.0472 0.4532,0.0701 0.1827,0.0238 0.3926,0.0551 0.4662,0.07 0.816,0.16134 1.7267,0.0669 2.4641,-0.25534 0.6313,-0.27598 1.0946,-0.69672 1.4126,-1.28281 0.1337,-0.24637 0.2979,-0.72706 0.3053,-0.89403 0,-0.037 0.01,-0.10224 0.013,-0.14408 0.033,-0.25117 -0.02,-0.66788 -0.1296,-1.02127 -0.078,-0.2509 -0.2057,-0.50804 -0.3121,-0.6268 -0.078,-0.0872 -0.448,-0.33096 -0.7048,-0.46458 -0.1393,-0.0724 -0.4655,-0.19828 -0.5949,-0.23144 -0.7039,-0.173 -1.2958,-0.002 -1.7222,0.49828 -0.3623,0.42503 -0.5479,1.02937 -0.4969,1.61865 0.041,0.46868 0.2295,0.82892 0.5452,1.0392 0.1145,0.0757 0.3354,0.15089 0.4811,0.16357 0.2055,0.0167 0.4635,-0.0169 0.6921,-0.0908 0.2391,-0.0772 0.5151,-0.21667 0.6268,-0.31679 0.078,-0.0696 0.1455,-0.18612 0.2219,-0.38203 0.04,-0.10332 0.076,-0.21252 0.086,-0.26281 0.039,-0.20039 0.033,-0.39581 -0.016,-0.52617 -0.032,-0.082 -0.2249,-0.36421 -0.3115,-0.45285 -0.1877,-0.19202 -0.4034,-0.27929 -0.6437,-0.26119 -0.1171,0.009 -0.3012,0.0893 -0.3866,0.16828 -0.1586,0.14659 -0.2393,0.34802 -0.2152,0.53658 0.015,0.12073 0.093,0.19765 0.226,0.22272 0.097,0.0185 0.266,0.003 0.3613,-0.0346 0.068,-0.0261 0.081,-0.0276 0.086,-0.009 0.01,0.0271 2e-4,0.0365 -0.1138,0.11293 -0.3288,0.22167 -0.5927,0.21286 -0.7435,-0.0249 -0.1693,-0.26707 -0.1298,-0.75291 0.087,-1.07244 0.1853,-0.27277 0.4644,-0.40592 0.802,-0.38254 0.1506,0.0103 0.2813,0.0461 0.482,0.13387 0.3599,0.15612 0.5475,0.30958 0.7202,0.58988 0.2182,0.35453 0.31,0.83953 0.2463,1.29985 -0.025,0.18032 -0.1114,0.42279 -0.1986,0.55732 -0.1244,0.19185 -0.2556,0.28546 -0.6114,0.43597 -0.4922,0.20822 -0.9666,0.27218 -1.4046,0.18931 -0.1609,-0.0304 -0.472,-0.15143 -0.6109,-0.23779 -0.5472,-0.33949 -0.8986,-0.93976 -0.9527,-1.62758 -0.044,-0.55905 0.1254,-1.09977 0.4802,-1.53192 0.3506,-0.42714 0.9969,-0.8104 1.5643,-0.92776 0.2522,-0.0522 0.5158,-0.0655 0.7555,-0.0384 0.2619,0.03 0.3283,0.0473 0.6318,0.16427 0.2422,0.0942 0.2919,0.1243 0.3982,0.18176 0.5228,0.32302 0.9109,0.76285 1.1636,1.31873 0.2713,0.59657 0.3337,1.23429 0.1815,1.85255 -0.03,0.12181 -0.1988,0.57368 -0.2563,0.68637 z m -2.0063,-4.45405 c -0.018,0.008 -0.027,1.9e-4 -0.025,-0.0258 0,-0.0132 0,-0.0425 -0.012,-0.0649 -0.01,-0.0223 -0.023,-0.12959 -0.033,-0.23815 -0.03,-0.30558 -0.096,-0.60243 -0.2062,-0.93475 -0.064,-0.19142 -0.2645,-0.64502 -0.3684,-0.83211 -0.5703,-1.02673 -1.3937,-1.77289 -2.2173,-2.00887 -0.2411,-0.0691 -0.4169,-0.0806 -0.7457,-0.0502 -0.3749,0.0351 -0.7162,0.11698 -0.9839,0.23632 -0.1172,0.0521 -0.1348,0.0632 -0.3523,0.21919 -0.6465,0.46374 -0.9749,1.14727 -0.9148,1.90395 0.045,0.56748 0.3173,1.10193 0.7403,1.45365 0.415,0.34514 0.9736,0.48954 1.5105,0.39045 0.051,-0.01 0.1151,-0.0185 0.1426,-0.0218 0.027,-0.002 0.1094,-0.0293 0.1826,-0.0598 0.2901,-0.12038 0.4948,-0.29282 0.6779,-0.57128 0.092,-0.13959 0.193,-0.40024 0.2252,-0.57957 0.1189,-0.6628 -0.1142,-1.26102 -0.5926,-1.52055 -0.2804,-0.15309 -0.6986,-0.17091 -1.002,-0.0444 -0.3462,0.14428 -0.5774,0.47443 -0.6287,0.89783 -0.035,0.28804 0.022,0.58328 0.1462,0.75787 0.1223,0.17195 0.2609,0.22997 0.4463,0.18651 0.1793,-0.0418 0.4161,-0.24005 0.4796,-0.40131 0.063,-0.16019 -0.01,-0.31977 -0.1953,-0.42856 l -0.052,-0.0308 0.051,-0.004 c 0.079,-0.006 0.23,0.0562 0.2838,0.12113 0.1325,0.14489 0.1505,0.42519 0.04,0.62278 -0.057,0.10234 -0.1189,0.16918 -0.222,0.24133 -0.5297,0.37045 -1.0852,0.19154 -1.3596,-0.43774 -0.1248,-0.28647 -0.1489,-0.56335 -0.08,-0.92011 0.029,-0.14982 0.1642,-0.49677 0.2485,-0.63757 0.182,-0.30358 0.368,-0.48604 0.6113,-0.59977 0.1331,-0.0623 0.2422,-0.0922 0.3818,-0.1047 0.6173,-0.0557 1.3068,0.3654 1.6856,1.02888 0.071,0.12406 0.1636,0.3448 0.1989,0.47281 0.1136,0.41211 0.085,0.84879 -0.08,1.21945 -0.173,0.38849 -0.2905,0.55759 -0.6026,0.86721 -0.1749,0.17351 -0.2817,0.25415 -0.4641,0.35015 -0.6938,0.36508 -1.6242,0.18823 -2.4479,-0.46554 -0.1827,-0.14511 -0.3088,-0.26865 -0.3885,-0.38121 -0.1723,-0.24298 -0.3781,-0.7074 -0.4449,-1.00393 -0.01,-0.0447 -0.029,-0.19329 -0.042,-0.32994 -0.018,-0.18773 -0.02,-0.29925 -0.011,-0.45398 0.015,-0.25354 0.026,-0.32029 0.083,-0.51384 0.1607,-0.5445 0.5195,-1.08248 0.9728,-1.45841 0.2237,-0.18562 0.4319,-0.31559 0.7043,-0.43977 0.4505,-0.20544 0.8943,-0.29117 1.38,-0.2667 0.2032,0.0104 0.3784,0.0539 0.7381,0.18525 0.3583,0.12868 0.551,0.2294 0.8066,0.4093 0.41,0.29108 0.7953,0.7586 1.2384,1.50267 0.1321,0.22214 0.1895,0.358 0.2664,0.63083 0.2048,0.72758 0.344,1.86042 0.2563,2.08596 -0.01,0.0252 -0.022,0.0483 -0.028,0.0493 z m -3.6789,4.85853 c -0.2142,0.43342 -0.4979,0.822 -0.7967,1.09087 -0.5273,0.47469 -1.2957,0.6202 -2.1571,0.40879 -0.1981,-0.0481 -0.5895,-0.20146 -0.7699,-0.29955 -0.8302,-0.4542 -1.3567,-1.11678 -1.4786,-1.86096 -0.1216,-0.74208 0.011,-1.57155 0.3963,-2.47383 0.1766,-0.41362 0.3835,-0.76992 0.6493,-1.11721 0.2903,-0.37945 0.5885,-0.65381 0.9367,-0.86192 0.055,-0.0332 0.143,-0.0875 0.1952,-0.12114 0.1074,-0.0691 0.2827,-0.15741 0.3223,-0.1622 0.024,-0.002 0.025,-10e-4 0.01,0.0256 -0.01,0.0157 -0.096,0.1039 -0.1906,0.1957 -0.5461,0.5293 -0.8836,0.97034 -1.1823,1.54495 -0.127,0.24449 -0.3848,0.90594 -0.4404,1.13067 -0.233,0.94072 -0.1471,1.72387 0.2567,2.33979 0.2299,0.35038 0.5748,0.63352 1.0354,0.8495 0.3756,0.17618 0.7089,0.2372 1.1169,0.2047 0.4234,-0.0338 0.8252,-0.17703 1.1026,-0.39316 0.5447,-0.42429 0.8625,-0.94626 0.8927,-1.46599 0.024,-0.41626 -0.1324,-0.82149 -0.444,-1.15005 -0.2659,-0.28037 -0.5953,-0.49093 -1.0459,-0.66884 -0.2816,-0.10955 -0.3273,-0.11659 -0.5039,-0.10054 -0.1212,0.0129 -0.3149,0.0915 -0.4303,0.17433 -0.1616,0.11604 -0.3082,0.27595 -0.4358,0.47524 -0.06,0.0938 -0.084,0.14481 -0.1544,0.32568 -0.071,0.18228 -0.086,0.23267 -0.1024,0.33626 -0.042,0.26298 -0.022,0.47114 0.063,0.66773 0.1052,0.24322 0.2583,0.3857 0.5254,0.48921 0.2108,0.082 0.501,0.12087 0.6789,0.0925 0.207,-0.0334 0.4832,-0.18668 0.6083,-0.33748 0.059,-0.0713 0.065,-0.0825 0.1174,-0.23376 0.083,-0.23793 0.093,-0.40156 0.036,-0.55773 -0.052,-0.14185 -0.1977,-0.24956 -0.3647,-0.26978 -0.1578,-0.0185 -0.2648,0.0109 -0.3564,0.0998 -0.048,0.0459 -0.052,0.0548 -0.089,0.17091 -0.083,0.2648 -0.093,0.27921 -0.133,0.18841 -0.027,-0.0609 -0.026,-0.15992 0,-0.29763 0.041,-0.20418 0.1023,-0.28788 0.2576,-0.3544 0.23,-0.0982 0.5617,-0.0413 0.7623,0.13089 0.1404,0.12009 0.1934,0.23984 0.2107,0.4748 0.03,0.40399 -0.1605,0.86198 -0.4822,1.16076 -0.2227,0.20692 -0.494,0.34776 -0.7179,0.37307 -0.098,0.0114 -0.3162,-0.006 -0.5008,-0.0382 -0.1747,-0.0315 -0.439,-0.12465 -0.5673,-0.20245 -0.2528,-0.15203 -0.4227,-0.34602 -0.532,-0.60732 -0.1812,-0.43351 -0.1602,-0.95487 0.062,-1.52667 0.092,-0.23773 0.1455,-0.34395 0.2694,-0.53686 0.1125,-0.17533 0.1423,-0.20923 0.2516,-0.28667 0.3409,-0.24144 0.67,-0.37937 0.9749,-0.40853 0.6151,-0.0587 1.2433,0.12567 1.6735,0.49124 0.6389,0.54278 0.8887,1.44559 0.6561,2.37112 -0.026,0.10245 -0.147,0.4436 -0.1849,0.52038 z"
           style="fill:#000000;stroke-width:0.114071"
           id="path1-83" />
      </g>
    </g>
  </g>
</svg>
