<?xml version="1.0" encoding="UTF-8" standalone="no"?>
<!-- Created with Inkscape (http://www.inkscape.org/) -->

<svg
   width="41.008999mm"
   height="41.008999mm"
   viewBox="0 0 41.008999 41.009"
   version="1.1"
   id="svg1"
   inkscape:version="1.4.2 (f4327f4, 2025-05-13)"
   sodipodi:docname="265.svg"
   xmlns:inkscape="http://www.inkscape.org/namespaces/inkscape"
   xmlns:sodipodi="http://sodipodi.sourceforge.net/DTD/sodipodi-0.dtd"
   xmlns="http://www.w3.org/2000/svg"
   xmlns:svg="http://www.w3.org/2000/svg">
  <sodipodi:namedview
     id="namedview1"
     pagecolor="#ffffff"
     bordercolor="#000000"
     borderopacity="0.25"
     inkscape:showpageshadow="2"
     inkscape:pageopacity="0.0"
     inkscape:pagecheckerboard="0"
     inkscape:deskcolor="#d1d1d1"
     inkscape:document-units="mm"
     inkscape:zoom="2.8970539"
     inkscape:cx="84.223494"
     inkscape:cy="68.000116"
     inkscape:window-width="1168"
     inkscape:window-height="1081"
     inkscape:window-x="3737"
     inkscape:window-y="0"
     inkscape:window-maximized="0"
     inkscape:current-layer="layer1" />
  <defs
     id="defs1" />
  <g
     inkscape:label="Layer 1"
     inkscape:groupmode="layer"
     id="layer1"
     transform="translate(-114.0891,-77.774176)">
    <g
       id="g17"
       transform="translate(-440.66189,252.86696)">
      <path
         style="fill:#000000;stroke-width:0.1;stroke-dasharray:none"
         d="m 566.84872,-141.9659 c -1.29528,-0.12663 -2.30509,-0.48438 -3.1374,-1.11155 -0.78435,-0.59101 -1.26204,-1.31818 -1.42575,-2.17027 -0.22212,-1.15625 0.14712,-2.14058 0.93344,-2.48832 0.42341,-0.18725 1.07362,-0.27675 1.56363,-0.21525 1.21352,0.15235 1.93449,1.02871 1.78918,2.17481 -0.11017,0.86834 -0.63854,1.41447 -1.49801,1.54808 -0.33776,0.0526 -0.86029,0.0146 -1.1079,-0.0804 -0.12951,-0.0497 -0.092,0.0611 0.13601,0.40082 0.49965,0.7447 1.18962,1.21854 2.11686,1.45376 0.54142,0.13731 1.49738,0.22617 1.99847,0.18569 1.28098,-0.10338 2.3234,-0.66281 3.09866,-1.66273 0.89529,-1.15475 1.26572,-2.31404 1.43662,-4.49603 0.098,-1.25224 0.1733,-3.56937 0.15632,-4.81604 l -0.0144,-1.06508 -0.21203,0.44095 c -0.55137,1.14666 -1.23116,1.86748 -2.181,2.31257 -0.75051,0.35171 -1.61529,0.51084 -2.77731,0.51107 -1.89072,3.4e-4 -3.39973,-0.62102 -4.71722,-1.94244 -1.48032,-1.48473 -2.14521,-3.25686 -2.14663,-5.72141 -5.3e-4,-0.96523 0.0456,-1.474 0.20835,-2.29226 0.55953,-2.81449 2.46717,-4.95889 5.18168,-5.82479 1.06787,-0.34064 1.88899,-0.44431 3.29943,-0.41655 0.91662,0.018 1.08996,0.0342 1.58317,0.14843 0.67393,0.15598 1.07535,0.29719 1.62263,0.57084 2.24494,1.12248 3.86084,3.55284 4.56224,6.8617 0.60055,2.83312 0.52335,6.54841 -0.19154,9.21861 -0.94593,3.53309 -2.96546,6.35413 -5.4502,7.61324 -0.70673,0.35813 -1.68107,0.66244 -2.53253,0.791 -0.57142,0.0863 -1.76382,0.12345 -2.29464,0.0716 z m 3.08186,-9.86363 c 0.59038,-0.14883 1.00828,-0.38431 1.44001,-0.8114 0.61333,-0.60675 0.95143,-1.30409 1.1923,-2.45924 0.23008,-1.10332 0.30806,-2.12818 0.30796,-4.04748 -1.6e-4,-2.95446 -0.25852,-4.68423 -0.8888,-5.95057 -0.63742,-1.2807 -1.51427,-1.87411 -2.76924,-1.87411 -0.88128,0 -1.4333,0.22513 -2.03775,0.83103 -0.31996,0.32073 -0.43851,0.48161 -0.63209,0.85785 -0.62257,1.20994 -0.9171,2.80862 -0.97262,5.27911 -0.0666,2.96229 0.25465,5.23493 0.93837,6.63891 0.22169,0.45525 0.30738,0.57768 0.63505,0.90729 0.4157,0.41817 0.70231,0.58583 1.19192,0.69727 0.3847,0.0876 1.09677,0.0569 1.59489,-0.0687 z m 11.60018,9.84578 c 0,-0.0478 0.14077,-0.0705 0.59042,-0.0952 1.14829,-0.063 1.58478,-0.17414 1.68132,-0.42803 0.0264,-0.0693 0.0401,-0.6048 0.0329,-1.28315 l -0.013,-1.1642 -1.81759,-0.0231 -1.81759,-0.0231 2.63913,-3.95934 c 2.60559,-3.90901 2.64121,-3.95952 2.80136,-3.97368 l 0.16223,-0.0144 0.0116,3.719 0.0115,3.719 0.9146,0.013 0.91457,0.013 v 0.25273 0.25273 l -0.91457,0.013 -0.9146,0.013 v 1.23395 c 0,1.15052 0.006,1.24057 0.0887,1.33182 0.12822,0.1415 0.46202,0.2256 1.14226,0.28775 0.44435,0.0406 0.59828,0.0707 0.59828,0.11709 0,0.0518 -0.52164,0.0625 -3.05633,0.0625 -2.53926,0 -3.05633,-0.0101 -3.05633,-0.0627 z m 2.30424,-5.85315 c 0.007,-1.27983 -0.004,-2.32599 -0.0231,-2.32481 -0.0605,0.004 -3.07061,4.58751 -3.04247,4.63303 0.0159,0.0257 0.64009,0.0383 1.54015,0.0311 l 1.51346,-0.0115 z m -4.61965,-6.67994 v -0.46307 h 5.51065 5.51066 v 0.46307 0.46309 h -5.51066 -5.51065 z m 3.81151,-1.71659 c -0.38871,-0.0601 -0.89331,-0.23589 -1.21062,-0.42188 -0.39522,-0.23167 -1.0306,-0.88133 -1.20938,-1.23659 -0.41769,-0.83 -0.32628,-1.72702 0.21234,-2.08378 0.56244,-0.37254 1.36529,-0.25598 1.61923,0.23509 0.10656,0.20609 0.0962,0.62773 -0.0212,0.85775 -0.20062,0.39326 -0.51813,0.54636 -1.06073,0.51155 l -0.34677,-0.0222 0.0261,0.25352 c 0.0387,0.3752 0.23291,0.72645 0.60783,1.09945 0.53037,0.52766 1.12515,0.75446 1.85554,0.70759 0.96849,-0.0621 1.87227,-0.96816 2.08424,-2.08937 0.12128,-0.64169 0.0757,-1.82048 -0.097,-2.50814 -0.15732,-0.62632 -0.46242,-1.064 -0.87626,-1.25713 -0.31682,-0.14784 -0.5514,-0.13775 -1.22717,0.0531 -0.79891,0.22559 -1.21376,0.20803 -1.27957,-0.0541 -0.0671,-0.26757 0.11999,-0.3574 0.67757,-0.3253 0.21649,0.013 0.56303,0.0495 0.77009,0.0823 0.6907,0.10945 1.13522,-0.0852 1.43612,-0.62904 0.24798,-0.4482 0.31011,-0.82998 0.28156,-1.73009 -0.0258,-0.81691 -0.0953,-1.19441 -0.29174,-1.58592 -0.16197,-0.32287 -0.32109,-0.48647 -0.61209,-0.62938 -0.24126,-0.1184 -0.3063,-0.12923 -0.75039,-0.1249 -0.5606,0.006 -0.88841,0.10021 -1.28253,0.37055 -0.26903,0.18451 -0.43808,0.38524 -0.57091,0.67788 -0.1389,0.30588 -0.12518,0.35488 0.091,0.3259 0.24785,-0.0332 0.38899,0.009 0.57601,0.17347 0.68881,0.60477 0.006,1.68779 -0.93209,1.47813 -0.43453,-0.0972 -0.64116,-0.45233 -0.6036,-1.03763 0.056,-0.87278 0.84344,-1.66707 1.95494,-1.97201 0.32304,-0.0887 0.4481,-0.0973 1.13246,-0.0787 0.8872,0.0241 1.12704,0.0764 1.7418,0.3792 1.35841,0.66914 2.00755,1.97446 1.50162,3.01957 -0.2855,0.5898 -1.23816,1.10239 -2.44507,1.31564 -0.4031,0.0712 -0.34612,0.10915 0.22818,0.15198 1.42767,0.10641 2.39375,0.81108 2.65995,1.94013 0.0894,0.37937 0.0891,1.14396 -6.7e-4,1.49574 -0.22994,0.90065 -0.87524,1.59895 -1.99024,2.15369 -0.88527,0.44045 -1.85953,0.62584 -2.64847,0.50398 z"
         id="path4"
         sodipodi:nodetypes="sssssssssssscsssscsssssssssssssssssssssssscssscccsscccccccccsssssccsssccscccscccccssssssscsssssssssssssssssssssssssssscssssss" />
      <circle
         style="fill:none;stroke:#ff0000;stroke-width:0.1;stroke-dasharray:none"
         id="path788-8-1-8-1-9-2-6-3-4-7-1-6-1-0-8-3"
         cx="575.25549"
         cy="-154.58829"
         r="19.954653" />
      <circle
         style="fill:none;stroke:#0000ff;stroke-width:0.1;stroke-linecap:round;stroke-dasharray:none;stroke-opacity:1;paint-order:markers stroke fill"
         id="path13019-1-33-3-83-70-3-7-5-9-5-4-1"
         cx="575.25549"
         cy="-169.59926"
         r="2" />
      <ellipse
         style="fill:none;stroke:#ff00ff;stroke-width:0.1;stroke-dasharray:none;stroke-opacity:1"
         id="path1138-9-4-0-0-1-2-0-0-1-8-3-0-3-8"
         cx="575.25549"
         cy="-154.58829"
         rx="18.492125"
         ry="18.492126" />
    </g>
  </g>
</svg>
