<?xml version="1.0" encoding="UTF-8" standalone="no"?>
<!-- Created with Inkscape (http://www.inkscape.org/) -->

<svg
   width="41.008999mm"
   height="41.008999mm"
   viewBox="0 0 41.008999 41.009"
   version="1.1"
   id="svg1"
   inkscape:version="1.4.2 (f4327f4, 2025-05-13)"
   sodipodi:docname="266.svg"
   xmlns:inkscape="http://www.inkscape.org/namespaces/inkscape"
   xmlns:sodipodi="http://sodipodi.sourceforge.net/DTD/sodipodi-0.dtd"
   xmlns="http://www.w3.org/2000/svg"
   xmlns:svg="http://www.w3.org/2000/svg">
  <sodipodi:namedview
     id="namedview1"
     pagecolor="#ffffff"
     bordercolor="#000000"
     borderopacity="0.25"
     inkscape:showpageshadow="2"
     inkscape:pageopacity="0.0"
     inkscape:pagecheckerboard="0"
     inkscape:deskcolor="#d1d1d1"
     inkscape:document-units="mm"
     inkscape:zoom="2.8970539"
     inkscape:cx="84.223494"
     inkscape:cy="68.000116"
     inkscape:window-width="1168"
     inkscape:window-height="1081"
     inkscape:window-x="3737"
     inkscape:window-y="0"
     inkscape:window-maximized="0"
     inkscape:current-layer="layer1" />
  <defs
     id="defs1" />
  <g
     inkscape:label="Layer 1"
     inkscape:groupmode="layer"
     id="layer1"
     transform="translate(-114.0891,-77.774176)">
    <g
       id="g18"
       transform="translate(-482.86184,252.98218)">
      <circle
         style="fill:none;stroke:#ff0000;stroke-width:0.1;stroke-dasharray:none"
         id="path788-8-1-8-1-9-2-6-3-4-7-1-6-1-0-8-3-6"
         cx="617.45544"
         cy="-154.70351"
         r="19.954653" />
      <circle
         style="fill:none;stroke:#0000ff;stroke-width:0.1;stroke-linecap:round;stroke-dasharray:none;stroke-opacity:1;paint-order:markers stroke fill"
         id="path13019-1-33-3-83-70-3-7-5-9-5-4-1-5"
         cx="617.45544"
         cy="-169.71448"
         r="2" />
      <path
         style="fill:#000000;stroke-width:0.1;stroke-dasharray:none"
         d="m 621.22534,-139.60193 c -0.0388,-0.0902 -0.26269,-1.37632 -0.26269,-1.50853 0,-0.07 -0.0847,-0.59485 -0.18815,-1.16632 -0.10348,-0.57148 -0.18821,-1.09046 -0.18827,-1.1533 -5e-5,-0.0628 -0.0759,-0.53263 -0.16855,-1.04399 -0.0926,-0.51137 -0.17894,-1.02988 -0.19175,-1.15225 -0.0128,-0.12237 -0.0919,-0.59217 -0.17563,-1.044 -0.0838,-0.45183 -0.16645,-0.95243 -0.1837,-1.11246 -0.0173,-0.16002 -0.10703,-0.69913 -0.19947,-1.19803 -0.0924,-0.4989 -0.17558,-1.00735 -0.18473,-1.12988 l -0.0167,-0.22281 0.20933,0.21914 c 0.56401,0.59043 0.67143,0.68445 0.67143,0.58763 0,-0.0179 -0.0225,-0.20655 -0.05,-0.41931 -0.0275,-0.21276 -0.065,-0.5643 -0.0834,-0.7812 -0.0184,-0.2169 -0.10276,-0.84844 -0.18741,-1.40341 -0.0847,-0.55498 -0.17115,-1.14767 -0.19223,-1.3171 -0.0211,-0.16945 -0.11068,-0.69315 -0.19911,-1.16381 l -0.16078,-0.85574 -0.37649,0.003 c -0.35277,0.003 -0.40624,0.0134 -0.84858,0.16216 -0.25966,0.0873 -0.50433,0.17604 -0.54372,0.19712 l -0.0716,0.0384 0.0227,4.5403 c 0.0133,2.67036 0.0364,4.62714 0.0561,4.75117 0.0722,0.45485 0.32468,1.08248 0.50312,1.2507 0.0521,0.0491 0.19493,0.15739 0.31729,0.24053 0.22767,0.15466 0.27676,0.23144 0.20402,0.31908 -0.0522,0.0629 -0.21987,0.063 -0.54683,4.3e-4 -0.14149,-0.0271 -0.47717,-0.0658 -0.74596,-0.086 -0.26879,-0.0202 -0.63053,-0.0519 -0.80387,-0.0704 -0.78681,-0.084 -1.98186,-0.0796 -2.9151,0.0109 -0.049,0.005 -0.0882,-0.0377 -0.14617,-0.15825 -0.0435,-0.0906 -0.0694,-0.18067 -0.0573,-0.20014 0.012,-0.0195 0.12402,-0.10195 0.24886,-0.18329 0.31771,-0.20701 0.5327,-0.44006 0.66972,-0.72597 0.16944,-0.35356 0.25949,-0.71113 0.29385,-1.16675 0.0166,-0.22008 0.05,-0.6389 0.0742,-0.93071 0.0885,-1.06654 0.0384,-5.15918 -0.0699,-5.70929 l -0.0222,-0.11278 -0.20531,0.15222 c -0.28936,0.21453 -0.80397,0.47749 -1.21989,0.62333 -0.49168,0.17241 -0.97304,0.31437 -1.1761,0.34683 l -0.17115,0.0274 0.009,2.92445 0.009,2.92444 0.086,0.19044 c 0.0941,0.20843 0.3524,0.4427 0.65979,0.59847 0.15054,0.0763 0.16399,0.0929 0.15033,0.18599 l -0.015,0.1022 -0.142,-0.0504 c -0.35364,-0.12548 -0.92191,-0.18652 -2.19576,-0.23585 -0.69657,-0.027 -1.54375,-0.0495 -1.88262,-0.05 -0.33888,-4.3e-4 -0.76632,-0.0109 -0.94987,-0.0231 l -0.33374,-0.0221 v -0.12903 c 0,-0.11645 0.0103,-0.13131 0.10602,-0.15232 0.15391,-0.0339 0.79438,-0.47281 0.91858,-0.62963 0.14557,-0.18381 0.27239,-0.47246 0.31226,-0.71073 0.082,-0.49051 0.12881,-2.94669 0.0783,-4.11367 l -0.0225,-0.51949 -0.3626,-0.17422 c -0.19943,-0.0958 -0.50122,-0.24462 -0.67066,-0.33068 -0.16944,-0.0861 -0.36968,-0.18067 -0.44499,-0.21026 -0.29668,-0.11659 -0.71229,-0.39826 -0.92341,-0.62584 -0.2029,-0.21871 -0.28871,-0.33588 -0.57874,-0.79029 -0.1173,-0.18378 -0.39758,-0.78492 -0.39758,-0.85272 0,-0.0484 0.47388,-0.26084 0.66338,-0.29739 0.0964,-0.0186 0.4294,-0.0818 0.74002,-0.14037 0.31064,-0.0586 0.59005,-0.1115 0.6209,-0.11754 0.19092,-0.0373 0.15359,0.15639 -0.05,0.25974 -0.0786,0.0399 -0.20862,0.11753 -0.28886,0.17249 -0.0802,0.055 -0.19575,0.11714 -0.25672,0.13819 -0.11789,0.0407 -0.67589,0.39907 -0.67526,0.43369 6.8e-4,0.0454 0.28729,0.31678 0.38813,0.36762 0.0593,0.0299 0.14634,0.0891 0.1934,0.13156 0.2415,0.21783 1.64244,0.9425 1.87211,0.96839 l 0.15868,0.0179 -0.0224,-1.14322 c -0.0222,-1.13268 -0.0785,-2.78762 -0.17717,-5.19941 -0.0281,-0.68716 -0.0513,-1.44192 -0.0515,-1.67725 -4e-4,-0.40806 -0.005,-0.43579 -0.0986,-0.59901 -0.12779,-0.22274 -0.39572,-0.47103 -0.63485,-0.58831 -0.20491,-0.10049 -0.23085,-0.14971 -0.11987,-0.22745 0.058,-0.0407 0.1876,-0.0461 0.72452,-0.0309 0.35964,0.0102 1.32521,-0.002 2.14572,-0.0278 2.03576,-0.0631 1.80205,-0.0711 1.78881,0.0611 -0.008,0.079 -0.0626,0.16358 -0.19063,0.29471 -0.33823,0.34643 -0.31211,0.0913 -0.30889,3.01744 0.003,2.35562 0.0694,5.02295 0.13821,5.51648 l 0.0199,0.14244 0.17627,-0.0619 c 0.17438,-0.0612 0.6076,-0.25101 0.70683,-0.30965 0.38151,-0.22549 0.59009,-0.35223 0.71181,-0.43252 0.0809,-0.0534 0.21233,-0.13549 0.29216,-0.18256 0.0798,-0.047 0.24992,-0.16258 0.378,-0.25672 0.12808,-0.0941 0.29698,-0.21813 0.37532,-0.27557 l 0.14244,-0.10442 0.0107,-1.53859 c 0.0135,-1.93304 -0.0339,-3.28532 -0.18636,-5.32096 -0.0674,-0.90051 -0.0959,-0.99497 -0.35076,-1.16402 -0.1898,-0.1259 -0.30911,-0.29045 -0.25201,-0.34756 0.0201,-0.0201 0.13998,-0.0187 0.3188,0.004 0.45072,0.0565 2.80233,0.0455 3.47707,-0.0164 0.3619,-0.0332 0.58315,-0.0404 0.60381,-0.0197 0.0207,0.0206 -0.0186,0.0933 -0.10713,0.19833 -0.15247,0.18082 -0.49935,0.88227 -0.5516,1.11541 -0.0892,0.39796 -0.11279,1.29617 -0.0963,3.66281 0.009,1.33257 0.0266,2.43245 0.0382,2.44418 0.0117,0.0117 0.21018,-0.0199 0.44101,-0.0702 0.91348,-0.19915 1.3773,-0.22302 1.67241,-0.0861 0.34793,0.16146 0.49312,0.23723 0.69098,0.3606 0.10889,0.0679 0.20347,0.11757 0.21016,0.11037 0.0115,-0.0124 10e-4,-0.15043 -0.0848,-1.15721 -0.02,-0.23391 -0.0968,-0.84233 -0.17061,-1.35206 -0.0738,-0.50972 -0.14915,-1.0962 -0.16745,-1.30329 -0.0183,-0.20709 -0.10335,-0.85269 -0.18899,-1.43467 -0.0856,-0.58198 -0.15571,-1.12221 -0.15571,-1.2005 0,-0.0783 -0.0847,-0.73316 -0.18827,-1.45525 -0.10354,-0.72209 -0.18826,-1.36649 -0.18826,-1.43199 v -0.11909 l 0.79584,0.0276 c 0.43771,0.0152 1.34265,0.0317 2.01098,0.0368 l 1.21515,0.009 -0.0131,0.63194 c -0.007,0.34757 -0.004,0.64691 0.007,0.66522 0.0283,0.0458 0.49652,-0.0842 0.98121,-0.27236 0.56596,-0.21973 1.02925,-0.36987 1.13961,-0.36931 0.10512,4.3e-4 0.30093,0.18324 0.64033,0.5975 0.10354,0.12639 0.24987,0.30266 0.32517,0.39171 0.30947,0.36599 0.58485,0.70215 0.63091,0.77017 0.027,0.0398 0.10564,0.13398 0.17486,0.2093 0.0692,0.0753 0.17498,0.21008 0.23503,0.2995 0.0601,0.0894 0.12258,0.16259 0.13897,0.16259 0.0164,0 0.0653,0.0577 0.10874,0.12836 0.0434,0.0706 0.13531,0.18998 0.20418,0.26528 0.22827,0.24957 0.56573,0.78119 0.58926,0.92824 0.0382,0.23902 -0.0381,1.40899 -0.19839,3.04239 -0.0999,1.0178 -0.15462,1.74297 -0.15475,2.05085 l -2.1e-4,0.47631 -0.21293,0.22539 c -0.42703,0.45205 -1.0663,0.81002 -1.92452,1.07768 -0.71214,0.2221 -1.13456,0.30191 -1.23835,0.23399 -0.0389,-0.0255 -0.15055,-0.19817 -0.49213,-0.76119 -0.22084,-0.36402 -0.50289,-0.81961 -0.69458,-1.12193 -0.075,-0.11822 -0.12983,-0.22142 -0.12192,-0.22933 0.008,-0.008 0.11567,-0.0248 0.23946,-0.0374 l 0.22508,-0.0231 0.099,0.12989 c 0.0544,0.0714 0.17057,0.20813 0.25809,0.30374 0.0875,0.0956 0.26455,0.28938 0.39341,0.43058 0.12887,0.14119 0.2537,0.26171 0.27742,0.2678 0.0489,0.0126 0.16805,-0.10792 0.36808,-0.372 0.26834,-0.35425 0.25375,-0.26907 0.25473,-1.48748 0.002,-2.34342 -0.117,-4.18219 -0.41218,-6.37584 -0.0549,-0.40764 -0.0978,-0.42974 -0.64243,-0.33082 -0.53841,0.0978 -1.05605,0.22414 -1.12981,0.2758 l -0.0727,0.0509 0.002,2.62517 c 0.003,4.23445 0.0307,5.07861 0.28965,8.71771 0.0469,0.65874 0.0853,1.31825 0.0853,1.46555 0,0.26675 -0.0422,0.42054 -0.1048,0.38186 -0.0181,-0.0111 -0.22417,-0.40824 -0.45797,-0.88237 -0.2338,-0.47412 -0.44879,-0.89284 -0.47775,-0.9305 -0.0475,-0.0618 -0.0528,0.26954 -0.0537,3.38017 -4.3e-4,2.08117 -0.0136,3.44861 -0.0327,3.44861 -0.057,0 -0.27363,-0.28112 -0.31379,-0.40717 -0.0216,-0.0679 -0.0875,-0.20782 -0.14649,-0.31104 -0.059,-0.10321 -0.18419,-0.34036 -0.27832,-0.52702 -0.0941,-0.18666 -0.18655,-0.33741 -0.20538,-0.33502 -0.0406,0.005 -0.11177,0.88207 -0.11716,1.44334 -0.002,0.2165 -0.0642,1.10989 -0.13808,1.98531 -0.0739,0.87542 -0.15955,1.89203 -0.19041,2.25915 -0.0619,0.73654 -0.096,0.96971 -0.13027,0.88997 z"
         id="path5" />
      <ellipse
         style="fill:none;stroke:#ff00ff;stroke-width:0.1;stroke-dasharray:none;stroke-opacity:1"
         id="path1138-9-4-0-0-1-2-0-0-1-8-3-7-5"
         cx="617.45544"
         cy="-154.70351"
         rx="18.492125"
         ry="18.492126" />
    </g>
  </g>
</svg>
