<?xml version="1.0" encoding="UTF-8" standalone="no"?>
<!-- Created with Inkscape (http://www.inkscape.org/) -->

<svg
   width="41.008999mm"
   height="41.008999mm"
   viewBox="0 0 41.008999 41.008999"
   version="1.1"
   id="svg1"
   inkscape:version="1.4.2 (f4327f4, 2025-05-13)"
   sodipodi:docname="149.svg"
   xmlns:inkscape="http://www.inkscape.org/namespaces/inkscape"
   xmlns:sodipodi="http://sodipodi.sourceforge.net/DTD/sodipodi-0.dtd"
   xmlns="http://www.w3.org/2000/svg"
   xmlns:svg="http://www.w3.org/2000/svg">
  <sodipodi:namedview
     id="namedview1"
     pagecolor="#ffffff"
     bordercolor="#000000"
     borderopacity="0.25"
     inkscape:showpageshadow="2"
     inkscape:pageopacity="0.0"
     inkscape:pagecheckerboard="0"
     inkscape:deskcolor="#d1d1d1"
     inkscape:document-units="mm"
     inkscape:zoom="1.5878906"
     inkscape:cx="108.3198"
     inkscape:cy="200.26568"
     inkscape:window-width="1050"
     inkscape:window-height="1081"
     inkscape:window-x="3737"
     inkscape:window-y="0"
     inkscape:window-maximized="0"
     inkscape:current-layer="layer1" />
  <defs
     id="defs1" />
  <g
     inkscape:label="Layer 1"
     inkscape:groupmode="layer"
     id="layer1"
     transform="translate(-0.7937635,-0.79375582)">
    <g
       id="g11469"
       transform="translate(175.32558,178.23417)">
      <path
         style="fill:#000000;stroke-width:0.1;stroke-dasharray:none"
         d="m -157.24571,-142.09837 c -0.17795,-0.16077 -0.41115,-0.5736 -0.49052,-0.86837 -0.10892,-0.40449 -0.12965,-0.81129 -0.0659,-1.29371 0.0734,-0.55516 0.0811,-1.30474 0.0168,-1.61084 -0.10565,-0.50231 -0.37074,-0.85936 -0.68063,-0.91674 -0.24656,-0.0457 -0.41537,-0.1414 -0.46281,-0.26249 -0.0238,-0.0607 -0.0808,-0.27277 -0.12669,-0.4712 -0.13477,-0.58266 -0.32701,-0.89595 -0.54977,-0.89595 -0.0765,0 -0.23392,0.0756 -0.42891,0.20602 -0.18945,0.12671 -0.35313,0.20602 -0.42519,0.20602 -0.15984,0 -0.27363,-0.15588 -0.30888,-0.42312 -0.0401,-0.30405 -0.13274,-0.49163 -0.45243,-0.91601 -0.33091,-0.43926 -0.41387,-0.6103 -0.47173,-0.97245 -0.0589,-0.36889 0.003,-0.82103 0.19928,-1.46066 0.0867,-0.28214 0.15261,-0.51298 0.14651,-0.51298 -0.006,0 -0.13312,0.0547 -0.28225,0.12165 -1.19321,0.53536 -2.27533,0.52884 -3.36574,-0.0203 -0.66861,-0.3367 -3.53171,-2.40557 -5.41511,-3.91295 -1.12329,-0.89902 -1.42304,-1.36744 -1.18971,-1.85914 0.21458,-0.4522 1.10241,-0.88419 2.56929,-1.25014 1.70354,-0.42499 3.027,-0.60655 4.71864,-0.64732 2.93169,-0.0707 5.74606,0.4732 8.29309,1.60255 0.387,0.1716 0.47485,0.19713 0.52761,0.15334 0.055,-0.0457 0.0293,-0.0873 -0.19648,-0.31808 -1.17131,-1.19733 -2.63989,-2.07296 -4.11796,-2.45531 -0.97514,-0.25225 -1.7281,-0.31667 -3.33531,-0.28538 -1.30923,0.0255 -2.1557,-0.018 -2.96544,-0.15228 -1.06155,-0.17606 -1.84114,-0.53782 -2.15081,-0.99806 -0.14179,-0.21075 -0.14489,-0.33944 -0.0103,-0.42763 0.0954,-0.0625 0.11061,-0.0625 0.20595,-4e-5 0.0566,0.0371 0.1785,0.18708 0.27085,0.3333 0.0923,0.14621 0.23607,0.31956 0.31939,0.38521 0.71878,0.56634 2.11515,0.77536 4.80758,0.71964 1.34518,-0.0278 1.71113,-0.002 2.5278,0.17834 0.96458,0.21302 1.97267,0.63998 2.82873,1.19808 0.56911,0.37101 0.90867,0.64797 1.47348,1.20182 0.47298,0.46378 0.48606,0.47307 0.54609,0.38737 0.0737,-0.10524 0.31576,-0.19283 0.43142,-0.15611 0.0806,0.0256 0.0831,0.009 0.0831,-0.5549 0,-1.77908 0.48052,-3.38934 1.39507,-4.67502 0.29883,-0.42009 0.86864,-1.01852 1.3656,-1.43419 0.99814,-0.83485 1.90644,-1.73669 2.31405,-2.29758 0.26791,-0.36866 0.48373,-0.79526 0.55477,-1.09664 0.0623,-0.26436 0.0647,-0.33602 0.0184,-0.5612 -0.0292,-0.14198 -0.0621,-0.3163 -0.0731,-0.38737 -0.0466,-0.29981 0.20679,-0.41938 0.35914,-0.16951 0.0614,0.10067 0.0817,0.20756 0.0818,0.43052 5.3e-4,1.01832 -0.91582,2.26894 -2.92358,3.99006 -0.39562,0.33914 -0.87433,0.79277 -1.06379,1.00806 -1.25618,1.42743 -1.90466,3.19815 -1.90466,5.20079 0,0.42662 0.0128,0.56785 0.0515,0.56804 0.0283,1.2e-4 0.10525,0.0283 0.17094,0.0625 0.0657,0.0343 0.12529,0.0564 0.13244,0.0493 0.007,-0.007 0.0887,-0.19494 0.18126,-0.41731 1.27858,-3.07212 3.74155,-5.95958 6.77758,-7.94569 1.06653,-0.6977 2.33974,-1.37903 3.24522,-1.7366 1.84599,-0.72897 2.5278,-0.35141 2.34079,1.29624 -0.15243,1.343 -0.86386,5.26747 -1.15586,6.3761 -0.12909,0.49013 -0.35996,1.03058 -0.57171,1.33836 -0.40746,0.59221 -1.1892,1.10785 -2.06128,1.35962 l -0.34353,0.0992 0.32389,0.17728 c 0.49425,0.27052 0.91896,0.5687 1.15897,0.81369 0.36142,0.36891 0.48937,0.6959 0.5647,1.44313 0.0333,0.32999 0.099,0.5116 0.2847,0.78611 0.20017,0.29597 0.20521,0.4817 0.0152,0.55998 -0.0737,0.0303 -0.27298,0.0682 -0.44295,0.0842 -0.41987,0.0395 -0.49445,0.0919 -0.49445,0.34801 0,0.20039 0.0991,0.42951 0.47655,1.10204 l 0.1197,0.21327 -0.0943,0.17817 c -0.0519,0.098 -0.13448,0.24642 -0.18362,0.32983 -0.0823,0.13977 -0.0855,0.17011 -0.0401,0.38661 0.0271,0.12922 0.0896,0.31832 0.13897,0.42022 0.14072,0.29067 0.53678,0.75407 0.91,1.0647 0.51634,0.42975 0.98412,0.91552 1.14451,1.18852 0.31079,0.529 0.41644,1.09685 0.2447,1.31518 -0.2431,0.30906 -0.81595,-0.0777 -1.59647,-1.07786 -0.6629,-0.84943 -0.95826,-1.07952 -1.50626,-1.17339 -0.21556,-0.0369 -0.32697,-0.0323 -0.62287,0.0258 -0.83736,0.16453 -1.37371,0.53633 -1.7524,1.21478 -0.32045,0.57412 -0.35993,0.62475 -0.48712,0.62475 -0.14523,0 -0.45837,-0.20425 -0.60215,-0.39276 -0.15362,-0.2014 -0.22568,-0.39307 -0.25567,-0.68008 -0.0143,-0.13654 -0.0422,-0.2583 -0.0621,-0.27058 -0.0199,-0.0123 -0.12931,0.009 -0.2432,0.0465 -0.55213,0.18339 -0.89513,-0.24075 -1.31694,-1.62852 -0.47726,-1.57022 -1.28687,-2.96823 -2.05079,-3.54124 -0.25048,-0.18789 -0.52872,-0.33325 -0.49532,-0.25877 0.007,0.0164 0.16411,0.3265 0.34836,0.6891 0.7452,1.4666 1.10073,2.47025 1.18957,3.35813 0.0299,0.29877 -0.0299,0.63809 -0.13234,0.75131 -0.14748,0.16297 -0.42421,0.069 -0.71636,-0.24339 -0.43393,-0.4639 -1.23346,-2.12267 -1.70457,-3.53642 -0.0831,-0.24929 -0.16108,-0.48106 -0.17335,-0.51505 -0.0381,-0.10559 -0.13726,0.24259 -0.17618,0.61871 -0.0988,0.95541 0.32323,2.48384 1.08583,3.93201 0.31594,0.59997 0.44,0.96256 0.44479,1.29993 0.004,0.31514 -0.0728,0.43498 -0.37069,0.57476 -0.11788,0.0553 -0.21433,0.11383 -0.21433,0.13001 0,0.0162 0.0676,0.10999 0.15031,0.20845 0.21748,0.25902 0.30101,0.46822 0.3018,0.75588 8.9e-4,0.32439 -0.0628,0.54226 -0.18124,0.61985 -0.0891,0.0584 -0.13209,0.0505 -0.60572,-0.11076 -0.85982,-0.29274 -1.46767,-0.27011 -2.17498,0.081 -0.40668,0.20187 -0.67164,0.44616 -0.82651,0.76205 -0.16735,0.34133 -0.19471,0.70343 -0.10862,1.43748 0.11218,0.95638 0.0782,1.48698 -0.1133,1.77224 -0.136,0.20254 -0.3022,0.20454 -0.52165,0.006 z m 0.0594,-2.76774 c 0.10362,-0.41442 0.21659,-0.80802 0.25105,-0.87465 0.16331,-0.31582 0.58362,-0.65098 1.06344,-0.84803 l 0.26961,-0.11072 -0.1015,-0.26967 c -0.0558,-0.14832 -0.10948,-0.27765 -0.11923,-0.28739 -0.0316,-0.0316 -0.81566,0.12308 -1.14224,0.22532 -0.17471,0.0547 -0.34407,0.12587 -0.37635,0.15815 -0.0469,0.0469 -0.0648,0.3189 -0.0891,1.35685 -0.027,1.15092 -0.0179,1.47751 0.0394,1.42023 0.009,-0.009 0.10136,-0.35566 0.20498,-0.77009 z m 3.36126,-1.92811 c 0,-0.083 -0.34304,-0.24139 -0.73769,-0.34066 -0.33432,-0.0841 -1.1165,-0.16625 -1.1165,-0.11727 0,0.0132 0.0497,0.13862 0.1105,0.27876 l 0.1105,0.25478 0.47666,-0.0243 c 0.26216,-0.0134 0.59718,-0.0103 0.74449,0.007 0.30867,0.0358 0.41204,0.0212 0.41204,-0.0581 z m -3.65266,-0.27401 c 0.0143,-0.11898 0.0261,-0.35847 0.0263,-0.5322 l 3.1e-4,-0.31586 -0.15452,-0.1207 c -0.28606,-0.22344 -0.93754,-0.54549 -1.10347,-0.54549 -0.0857,0 -0.21949,0.80133 -0.16807,1.00622 0.023,0.0915 0.049,0.10629 0.1875,0.10629 0.19064,0 0.72071,0.25846 0.97072,0.47332 0.0906,0.0779 0.17614,0.14234 0.18998,0.14319 0.0138,8.6e-4 0.0369,-0.0958 0.0512,-0.21477 z m 4.28907,-0.74747 c 0.24294,-0.1853 0.3183,-0.3366 0.30117,-0.60466 -0.0265,-0.41557 -0.30614,-0.65677 -0.76082,-0.65636 -0.64845,5.7e-4 -1.00107,0.68052 -0.60007,1.15709 0.15894,0.18888 0.31647,0.24676 0.63387,0.23289 0.22507,-0.01 0.29904,-0.0322 0.42585,-0.12896 z m -0.6521,0.0572 c -0.1686,-0.0523 -0.3079,-0.19676 -0.36116,-0.37451 -0.0919,-0.30689 0.20706,-0.65546 0.56227,-0.65546 0.42654,0 0.68758,0.42277 0.47566,0.77034 -0.1412,0.23157 -0.42111,0.33895 -0.67677,0.25963 z m -2.52031,-0.29211 c 0.19924,-0.17493 0.26083,-0.38958 0.16796,-0.5853 -0.23021,-0.48512 -1.0093,-0.36385 -1.08066,0.16821 -0.0426,0.31769 0.18505,0.54155 0.55267,0.54342 0.18229,9.4e-4 0.23691,-0.0182 0.36003,-0.12633 z m 1.34528,-0.0904 c 0.17729,-0.11934 0.25846,-0.28439 0.22572,-0.45892 -0.0875,-0.46634 -0.83643,-0.49108 -0.97392,-0.0322 -0.12804,0.42737 0.36355,0.75004 0.7482,0.4911 z m -3.83604,-0.53411 c 1.2e-4,-0.0902 0.16506,-0.72713 0.22246,-0.85907 0.0243,-0.0558 -0.0172,-0.0698 -0.27209,-0.0914 -0.32258,-0.0274 -0.75159,-0.15029 -0.97267,-0.27863 -0.075,-0.0435 -0.15224,-0.0791 -0.17176,-0.0791 -0.0655,0 -0.21367,0.28697 -0.35511,0.68792 -0.13394,0.37969 -0.16724,0.54877 -0.1178,0.59821 0.0124,0.0124 0.13756,-0.014 0.27813,-0.0586 0.33091,-0.10509 0.74045,-0.0816 1.08341,0.0621 0.30851,0.12926 0.30526,0.12906 0.30543,0.0187 z m 1.23787,-0.18542 c 0.18457,-0.16492 0.20985,-0.40145 0.0618,-0.57747 -0.18922,-0.22487 -0.50934,-0.2296 -0.72819,-0.0108 -0.17143,0.17143 -0.16737,0.41663 0.01,0.58199 0.17962,0.16778 0.4729,0.17057 0.65681,0.006 z m 3.06102,-0.29122 c 0.0373,-0.0412 0.15236,-0.11714 0.25573,-0.16877 0.10337,-0.0516 0.17905,-0.11526 0.16817,-0.14142 -0.019,-0.0457 -0.29928,-0.92548 -0.33801,-1.06097 -0.0116,-0.0405 -0.10366,-0.0847 -0.23993,-0.11521 -0.12164,-0.0272 -0.32526,-0.11218 -0.4525,-0.1888 -0.12724,-0.0766 -0.23135,-0.13482 -0.23135,-0.12934 0,0.005 0.14071,0.3796 0.31268,0.83138 0.17198,0.45177 0.3314,0.87239 0.35427,0.93471 0.0488,0.13303 0.0791,0.13984 0.17094,0.0384 z m 7.31538,-0.13619 c 0.10481,-0.1161 0.34817,-0.3326 0.5408,-0.48112 0.19262,-0.14851 0.36679,-0.28425 0.38703,-0.30162 0.0489,-0.042 -0.13515,-0.53073 -0.19988,-0.53073 -0.067,0 -0.54988,0.50671 -0.71791,0.75328 -0.18044,0.2648 -0.34743,0.63704 -0.319,0.71112 0.0395,0.1029 0.11161,0.0677 0.30896,-0.15093 z m -6.41014,-0.74691 c -0.17107,-0.36826 -0.32402,-0.68389 -0.33989,-0.70139 -0.0431,-0.0475 -0.41364,0.12869 -0.39433,0.1875 0.0305,0.0929 0.35649,1.02665 0.37787,1.08237 0.0255,0.0664 0.12395,0.088 0.43348,0.0955 l 0.2339,0.006 z m 10.42097,0.31035 c -0.15985,-0.17636 -0.60395,-0.63123 -0.98689,-1.01082 -0.5326,-0.52795 -0.72079,-0.69017 -0.80065,-0.69017 -0.10763,0 -1.0903,0.47536 -1.26661,0.61271 l -0.0992,0.0773 0.10611,0.26278 c 0.0612,0.15158 0.12932,0.2599 0.16097,0.25598 0.0302,-0.004 0.2107,-0.0475 0.40116,-0.0973 0.27619,-0.0721 0.4263,-0.0869 0.74167,-0.0731 0.47196,0.0207 0.53893,0.0506 1.40516,0.62627 0.32575,0.21648 0.60051,0.38537 0.61058,0.37529 0.0101,-0.0101 -0.11247,-0.16261 -0.27232,-0.33896 z m -5.14444,0.13808 c 0.59532,-0.34888 0.38764,-1.2277 -0.30587,-1.29434 -0.54059,-0.0519 -0.99197,0.41774 -0.86273,0.89771 0.0529,0.19655 0.27752,0.43465 0.46373,0.49162 0.19855,0.0607 0.51097,0.0186 0.70487,-0.095 z m -0.65996,-0.0695 c -0.0715,-0.0458 -0.16168,-0.15012 -0.20047,-0.23186 -0.0597,-0.1258 -0.063,-0.17373 -0.0215,-0.31234 0.18194,-0.60725 1.11415,-0.52928 1.11415,0.0932 0,0.42368 -0.52257,0.68784 -0.89222,0.45102 z m -7.36398,-0.0705 c 0.0321,-0.021 0.0363,-0.10626 0.0135,-0.2775 -0.0522,-0.39182 -0.12162,-1.37481 -0.12229,-1.7329 l -6.2e-4,-0.3273 -0.14583,0.16482 c -0.0802,0.0906 -0.21618,0.26996 -0.30217,0.39847 -0.15266,0.22813 -0.15701,0.24515 -0.1843,0.72107 -0.0154,0.26808 -0.0392,0.60214 -0.0529,0.74236 l -0.0249,0.25494 0.13934,0.0401 c 0.16695,0.048 0.61495,0.0585 0.68021,0.016 z m 0.72571,-0.21434 c 0.0847,-7.5e-4 0.24698,0.034 0.36054,0.0771 0.11355,0.0431 0.20611,0.0756 0.20567,0.0721 -4.6e-4,-0.003 -0.13724,-0.4227 -0.30403,-0.93157 l -0.30324,-0.92522 -0.27883,-0.11295 c -0.15336,-0.0621 -0.29839,-0.13249 -0.32228,-0.15638 -0.10106,-0.10107 -0.10019,-0.13817 -0.0251,1.06907 0.0232,0.37393 0.0528,0.76444 0.0657,0.86781 l 0.0234,0.18794 0.21204,-0.0733 c 0.11663,-0.0403 0.28138,-0.0739 0.36612,-0.0746 z m -4.44247,-0.17296 0.22938,-0.29521 -0.33972,-0.089 c -0.33573,-0.088 -0.72658,-0.2604 -0.86355,-0.38094 -0.10412,-0.0916 -0.18091,-0.0404 -0.30421,0.2029 -0.1159,0.22871 -0.14352,0.48647 -0.0626,0.58399 0.0319,0.0384 0.16814,0.0633 0.40998,0.0748 0.27539,0.0132 0.3962,0.0382 0.50385,0.10459 0.0779,0.048 0.15416,0.0888 0.16953,0.0907 0.0154,0.002 0.13116,-0.12944 0.25732,-0.29181 z m 2.88343,-0.8467 c 0.0226,-0.17337 0.0224,-0.17375 -0.16702,-0.25753 -0.10431,-0.0461 -0.2064,-0.0839 -0.22685,-0.0839 -0.0205,0 -0.15995,0.1892 -0.31001,0.42043 -0.24852,0.38297 -0.2662,0.42427 -0.19842,0.46355 0.24076,0.13952 0.67286,0.44114 0.74247,0.51826 l 0.0814,0.0902 0.0279,-0.48871 c 0.0153,-0.26879 0.0381,-0.56685 0.0505,-0.66234 z m -1.67071,1.0008 c 0.1107,-0.0573 0.21199,-0.21623 0.21199,-0.33272 0,-0.19061 -0.21141,-0.39144 -0.41204,-0.39144 -0.15084,0 -0.33412,0.1243 -0.39377,0.26704 -0.14579,0.34895 0.23545,0.64243 0.59382,0.45712 z m 0.90629,-0.96251 c 0.16203,-0.23307 0.2946,-0.43939 0.2946,-0.45849 0,-0.0191 -0.12034,-0.24434 -0.26743,-0.50053 -0.14709,-0.2562 -0.27813,-0.49952 -0.29121,-0.54071 -0.0276,-0.087 -0.0829,-0.098 -0.11196,-0.0224 -0.0111,0.0289 -0.19554,0.27588 -0.4099,0.54889 l -0.38975,0.49638 0.31826,0.38245 c 0.26141,0.31414 0.5293,0.56747 0.55699,0.52671 0.003,-0.005 0.13837,-0.19924 0.3004,-0.43231 z m 8.42391,0.11406 c 0.0581,-0.0457 0.14643,-0.14912 0.19631,-0.22982 l 0.0907,-0.14674 -0.23739,-0.52215 c -0.13056,-0.28719 -0.2505,-0.53679 -0.26653,-0.55467 -0.0384,-0.0428 -0.41324,0.0582 -0.41324,0.11142 0,0.074 0.47315,1.42444 0.49919,1.42474 0.0139,1.8e-4 0.0729,-0.0371 0.13097,-0.0828 z m -10.38049,-0.12593 c 0.0837,-0.0659 0.10857,-0.12172 0.10857,-0.24423 0,-0.27371 -0.26509,-0.40775 -0.53271,-0.26935 -0.13032,0.0674 -0.16776,0.13745 -0.16776,0.31392 0,0.2642 0.35684,0.38456 0.5919,0.19966 z m 12.49082,0.0261 c 0.19143,-0.08 0.31895,-0.28843 0.29141,-0.47632 -0.0239,-0.1631 -0.20647,-0.35302 -0.38158,-0.39697 -0.17114,-0.0429 -0.4287,0.0663 -0.53727,0.22794 -0.1162,0.17298 -0.11896,0.30442 -0.0101,0.48058 0.13002,0.21038 0.37613,0.27399 0.63752,0.16477 z m -1.27661,-0.40218 c 0.12402,-0.005 0.22548,-0.0118 0.22548,-0.0148 0,-0.007 -0.69457,-1.61357 -0.77407,-1.78995 l -0.065,-0.14422 -0.03,0.19362 c -0.0293,0.18906 -0.20865,0.57089 -0.30621,0.65186 -0.0364,0.0302 0.0246,0.18782 0.2378,0.61472 0.27578,0.55228 0.2905,0.57269 0.3866,0.53615 0.0549,-0.0209 0.20137,-0.0422 0.32539,-0.0474 z m -6.04553,-0.16276 c 0.007,-0.0597 -0.0617,-0.45817 -0.15254,-0.88554 -0.21083,-0.99193 -0.4016,-2.0513 -0.43961,-2.44117 l -0.0297,-0.30441 -0.0771,0.2014 c -0.23992,0.62681 -0.49148,1.48317 -0.54561,1.85737 -0.0236,0.16308 -0.0134,0.18587 0.18475,0.41205 0.11535,0.13168 0.31472,0.40305 0.44304,0.60305 0.38373,0.59809 0.45866,0.69334 0.53418,0.67903 0.0404,-0.008 0.0753,-0.0591 0.0826,-0.12178 z m -4.16528,-0.35433 c 0.39021,-0.48451 0.70765,-0.98081 0.96212,-1.5042 0.20699,-0.42573 0.20962,-0.43587 0.14055,-0.54128 -0.0387,-0.0591 -0.0822,-0.10716 -0.0966,-0.10682 -0.0144,3.3e-4 -0.22267,0.16258 -0.46283,0.36054 -0.24017,0.19795 -0.7819,0.63805 -1.20385,0.97798 -0.42195,0.33994 -0.7678,0.62792 -0.76855,0.63997 -7.8e-4,0.012 0.0825,0.0467 0.18496,0.0769 0.21413,0.0632 0.70158,0.2941 0.82317,0.38988 0.0453,0.0357 0.0932,0.0655 0.10651,0.0662 0.0132,7.1e-4 0.15477,-0.16093 0.31447,-0.35923 z m 14.15823,0.0667 c 0.0402,-0.33925 0.18938,-0.73263 0.34192,-0.90147 0.0764,-0.0846 0.13896,-0.17074 0.13896,-0.19143 0,-0.0947 -0.73412,-0.71467 -0.8463,-0.71467 -0.10731,0 -0.47223,0.94921 -0.47223,1.22833 0,0.0694 0.10991,0.20726 0.37217,0.46679 0.2047,0.20256 0.38747,0.35884 0.40616,0.34729 0.0187,-0.0115 0.0454,-0.11723 0.0593,-0.23484 z m -1.33193,-0.10409 c 0.34194,-0.38945 -0.0625,-0.95602 -0.5732,-0.803 -0.2165,0.0649 -0.41587,0.29431 -0.41587,0.47861 0,0.19724 0.0614,0.33583 0.18462,0.41655 0.26431,0.17318 0.60583,0.13406 0.80445,-0.0922 z m -10.66173,-0.0323 c 0.10765,-0.12275 0.19572,-0.24868 0.19572,-0.27984 0,-0.11061 -0.25515,-0.45635 -0.61741,-0.83661 -0.202,-0.21205 -0.40228,-0.45376 -0.44506,-0.53715 l -0.0778,-0.15161 -0.13056,0.32455 c -0.0718,0.1785 -0.13047,0.33995 -0.13035,0.35878 1.3e-4,0.0188 0.1873,0.26915 0.41595,0.55626 0.22864,0.28711 0.44531,0.58227 0.48147,0.65592 0.0362,0.0737 0.0762,0.13368 0.089,0.1334 0.0128,-3e-4 0.11135,-0.10095 0.21899,-0.2237 z m -6.26302,-0.1947 c 0.10525,-0.0543 0.0918,-0.0881 -0.10921,-0.27338 -0.22274,-0.2053 -0.47456,-0.3378 -0.64203,-0.3378 -0.10549,0 -0.14635,0.0318 -0.24935,0.19425 -0.0678,0.10684 -0.11733,0.21346 -0.11017,0.23692 0.0217,0.071 0.28549,0.18265 0.52475,0.22218 0.23368,0.0386 0.4613,0.0222 0.58601,-0.0422 z m 2.73369,-0.0807 c 0.0741,-0.0827 0.75716,-0.6458 1.83708,-1.51442 l 0.48055,-0.38652 -0.13067,-0.1999 c -0.0719,-0.10994 -0.1413,-0.20023 -0.15428,-0.20064 -0.013,-4e-4 -0.17604,0.11092 -0.36234,0.24739 -0.18631,0.13646 -0.81538,0.58363 -1.39794,0.99369 -0.58256,0.41006 -1.07221,0.75732 -1.08811,0.77168 -0.0159,0.0143 0.0607,0.0198 0.17013,0.0122 0.2608,-0.0183 0.45026,0.0767 0.48338,0.24234 0.029,0.14488 0.0576,0.15093 0.1622,0.0342 z m 11.94348,-0.46448 c 0.0761,-0.0581 0.22422,-0.13927 0.32912,-0.18047 l 0.19072,-0.0749 -0.44196,-0.53365 c -0.24308,-0.29351 -0.56766,-0.67682 -0.7213,-0.8518 l -0.27934,-0.31815 -0.0423,0.15333 c -0.0233,0.0843 -0.0875,0.2319 -0.14279,0.32791 l -0.10045,0.17458 0.43607,0.90283 0.43607,0.90283 0.0989,-0.19846 c 0.0544,-0.10916 0.16118,-0.24597 0.2373,-0.30403 z m -13.2657,0.34245 c 0.12945,-0.0484 0.52318,-0.3011 0.93571,-0.60047 0.39172,-0.28427 0.90952,-0.65636 1.15066,-0.82688 l 0.43844,-0.31002 -0.14181,-0.12452 c -0.16623,-0.14595 -0.26122,-0.31339 -0.26122,-0.46047 0,-0.0578 -0.0112,-0.10505 -0.0249,-0.10505 -0.0451,0 -0.84904,0.74004 -1.49387,1.37508 -0.62395,0.61449 -0.82663,0.83697 -0.97747,1.07303 l -0.0767,0.12008 0.11386,-0.0286 c 0.0626,-0.0157 0.21444,-0.0662 0.33736,-0.1122 z m -2.55537,-0.25838 0.1653,-0.2414 -0.18542,-0.16163 c -0.10197,-0.0889 -0.33287,-0.26312 -0.5131,-0.38717 l -0.32768,-0.22553 -0.15906,0.15472 c -0.23512,0.22871 -0.33284,0.40152 -0.28139,0.49765 0.12994,0.24279 0.8086,0.6374 1.05413,0.61293 0.0486,-0.005 0.14924,-0.10648 0.24722,-0.24957 z m 1.52119,-0.32515 c 0.1684,-0.15047 0.1788,-0.29493 0.0318,-0.44191 -0.0686,-0.0686 -0.16408,-0.12465 -0.21228,-0.12465 -0.14696,0 -0.32783,0.11824 -0.35668,0.23316 -0.0815,0.32464 0.28934,0.55481 0.53713,0.3334 z m 2.80026,-1.72485 0.24558,-0.23121 -0.12907,-0.40746 c -0.071,-0.2241 -0.17918,-0.61287 -0.24043,-0.86394 l -0.11136,-0.45647 -0.18503,0.22985 c -0.10177,0.12642 -0.25943,0.3133 -0.35036,0.41528 -0.12857,0.14419 -1.73597,1.82381 -1.85843,1.94192 -0.0148,0.0143 0.11528,0.24603 0.28904,0.51505 0.17376,0.26902 0.34234,0.53148 0.37462,0.58326 0.0577,0.0926 0.0724,0.081 0.88927,-0.70047 0.45682,-0.43703 0.94109,-0.89865 1.07617,-1.02581 z m 12.31754,1.58836 c 0.2262,-0.15372 0.4087,-0.41779 0.34951,-0.50575 -0.0883,-0.13119 -1.03514,-0.97535 -1.14713,-1.0227 -0.11501,-0.0486 -0.41055,-0.11161 -0.73502,-0.15665 l -0.18086,-0.0251 0.22645,0.24459 c 0.26821,0.28969 1.09946,1.29586 1.20444,1.45788 0.0404,0.0623 0.0855,0.11332 0.10032,0.11332 0.0148,0 0.0968,-0.0475 0.18229,-0.10559 z m -8.25198,-1.29535 c 0.0722,-0.2153 0.18484,-0.50989 0.25031,-0.65467 0.0655,-0.14477 0.11904,-0.27467 0.11904,-0.28867 0,-0.014 -0.0584,-0.0513 -0.12981,-0.0829 -0.0714,-0.0316 -0.20339,-0.13104 -0.29331,-0.22096 l -0.1635,-0.1635 -0.56803,0.56694 -0.56803,0.56694 0.38123,0.56075 c 0.20968,0.30841 0.4349,0.65775 0.5005,0.77631 l 0.11926,0.21556 0.11053,-0.44218 c 0.0608,-0.2432 0.1696,-0.61833 0.24181,-0.83362 z m 9.95342,1.09602 c 0.15189,-0.15189 0.17969,-0.30477 0.0909,-0.49972 -0.13908,-0.30523 -0.67433,-0.29217 -0.83597,0.0204 -0.16485,0.31879 0.0398,0.61595 0.42577,0.61831 0.14966,9.2e-4 0.20235,-0.022 0.31933,-0.139 z m -19.39065,-0.39803 c 0,-0.0481 -0.83335,-0.82759 -0.93361,-0.87328 -0.0705,-0.0321 -0.12247,-0.0214 -0.23593,0.0487 -0.19774,0.1222 -0.35501,0.31748 -0.35501,0.44079 0,0.3017 0.39615,0.65352 0.92709,0.82337 l 0.16482,0.0527 0.21632,-0.231 c 0.11898,-0.12705 0.21632,-0.24466 0.21632,-0.26134 z m 15.27923,0.33658 c 0.007,-0.0734 -0.0254,-0.2974 -0.0725,-0.49785 -0.0471,-0.20044 -0.10561,-0.56545 -0.1301,-0.81112 -0.0306,-0.30715 -0.0658,-0.47044 -0.11265,-0.52275 -0.14719,-0.16443 -1.78393,-1.13945 -1.91276,-1.13945 -0.0177,0 0.0585,0.11589 0.16927,0.25753 0.23846,0.30487 1.06106,1.53784 1.48936,2.23238 0.32366,0.52482 0.42937,0.65626 0.50729,0.63071 0.0269,-0.009 0.0548,-0.0761 0.062,-0.14945 z m -13.75239,-0.17051 c 0.11276,-0.0603 0.21343,-0.27335 0.18052,-0.38198 -0.0542,-0.17906 -0.18535,-0.27606 -0.37311,-0.27606 -0.2117,0 -0.37485,0.12383 -0.41085,0.31183 -0.0374,0.19503 0.14215,0.38864 0.3603,0.38864 0.0901,0 0.19954,-0.0191 0.24314,-0.0424 z m 16.64127,-0.41453 c 0.002,-0.0587 0.04,-0.25181 0.0854,-0.42915 0.0454,-0.17734 0.0754,-0.32952 0.0667,-0.33819 -0.021,-0.021 -0.89891,-0.2585 -0.9567,-0.25881 -0.0368,-1.5e-4 -0.18593,0.28101 -0.19863,0.37457 -0.002,0.0135 0.20989,0.22099 0.47051,0.46107 0.49523,0.4562 0.52525,0.46694 0.53275,0.19051 z m 2.13851,-0.0561 c 0.18595,-0.39736 0.45009,-0.63716 0.88321,-0.80183 0.1502,-0.0571 0.1423,-0.15128 -0.0212,-0.25308 -0.24675,-0.15361 -0.87423,-0.45151 -1.0019,-0.47565 -0.11978,-0.0226 -0.12903,-0.0147 -0.1792,0.15486 -0.0734,0.24811 -0.30368,0.61661 -0.52114,0.83407 -0.10057,0.10057 -0.18285,0.1925 -0.18285,0.20429 0,0.0118 0.10661,0.0783 0.23692,0.14785 0.13031,0.0695 0.32964,0.1989 0.44295,0.28751 0.11331,0.0886 0.2089,0.1626 0.21243,0.16444 0.004,0.002 0.0624,-0.11628 0.1308,-0.26246 z m -15.57587,-2.33007 0.34054,-0.39144 -0.58875,-0.0234 -0.58875,-0.0234 -0.32963,0.24871 c -0.52811,0.39846 -1.59691,1.24141 -1.71917,1.3559 -0.10276,0.0962 -0.10825,0.11644 -0.0652,0.23992 0.0544,0.15609 0.33041,0.43685 0.629,0.63983 l 0.20767,0.14118 0.88688,-0.89788 c 0.48778,-0.49384 1.04011,-1.07404 1.22741,-1.28933 z m -6.3015,1.96744 c 0.0821,-0.0737 0.20484,-0.17457 0.27282,-0.22418 l 0.12362,-0.0902 -0.24723,-0.25157 c -0.25333,-0.25777 -0.58046,-0.49499 -0.68262,-0.49499 -0.10255,0 -0.44854,0.26463 -0.50895,0.38927 -0.0509,0.10507 -0.051,0.13673 -3.2e-4,0.2348 0.0322,0.0623 0.12086,0.16081 0.19691,0.21882 0.18112,0.13815 0.56752,0.35034 0.63969,0.35129 0.0312,4e-4 0.12396,-0.0595 0.20602,-0.13323 z m 2.23128,-0.0114 c 0.14953,-0.14326 0.17948,-0.27234 0.10472,-0.45127 -0.12242,-0.29299 -0.52777,-0.34759 -0.77145,-0.10392 -0.19841,0.19842 -0.12149,0.54786 0.14581,0.66234 0.14885,0.0637 0.39549,0.013 0.52092,-0.10715 z m 8.01136,-0.97739 c 0.59627,-0.58019 0.6037,-0.58966 0.62691,-0.79791 0.0129,-0.11591 0.006,-0.22151 -0.0152,-0.23467 -0.041,-0.0254 -1.00015,0.75974 -1.25605,1.02819 l -0.15148,0.15891 0.0691,0.21577 c 0.038,0.11867 0.0813,0.21602 0.0962,0.21632 0.0149,3.1e-4 0.29867,-0.26367 0.63056,-0.58661 z m 10.6718,0.52337 c 0.24932,-0.11831 0.30103,-0.40543 0.10781,-0.59865 -0.3411,-0.3411 -0.91217,0.0992 -0.63742,0.49141 0.11945,0.17054 0.31343,0.20982 0.52961,0.10724 z m -2.77713,-0.19281 c -0.0228,-0.10182 -0.0608,-0.40559 -0.0845,-0.67504 -0.0706,-0.80362 -0.0603,-0.77145 -0.28096,-0.87978 -0.10631,-0.0522 -0.25605,-0.12154 -0.33276,-0.15411 -0.13754,-0.0584 -0.13906,-0.0579 -0.11023,0.0364 0.0161,0.0526 0.0427,0.42007 0.0591,0.81666 0.0387,0.9374 0.0457,0.95271 0.45876,1.00993 0.16981,0.0235 0.31402,0.0402 0.32045,0.0369 0.006,-0.003 -0.007,-0.0891 -0.0298,-0.19096 z m 1.86787,0.15022 c 0.032,-0.0833 0.0315,-0.40128 -0.001,-0.82091 l -0.0257,-0.32983 -0.62303,-0.1201 c -0.34267,-0.066 -0.66469,-0.12837 -0.7156,-0.13849 -0.0904,-0.018 -0.0913,-0.0147 -0.0373,0.1409 0.0304,0.0876 0.1062,0.36615 0.16844,0.61898 l 0.11316,0.45969 0.48039,0.12355 c 0.57095,0.14684 0.60837,0.15071 0.64079,0.0662 z m -20.98874,-0.4033 c 0.2783,-0.21775 0.28174,-0.2228 0.2173,-0.31933 -0.18981,-0.28437 -0.54239,-0.57193 -0.70125,-0.57193 -0.11532,0 -0.43379,0.21543 -0.5256,0.35555 -0.0946,0.14433 -0.0762,0.23126 0.0901,0.42551 0.14891,0.17397 0.41185,0.32874 0.56157,0.33055 0.0413,4.6e-4 0.20236,-0.0987 0.35788,-0.22035 z m 2.25422,-0.0448 c 0.10447,-0.12145 0.12579,-0.36908 0.0413,-0.47917 -0.23561,-0.30688 -0.785,-0.14578 -0.785,0.23019 0,0.12582 0.0272,0.18138 0.13638,0.27897 0.12021,0.10741 0.15872,0.11934 0.32484,0.10061 0.13636,-0.0154 0.21446,-0.0515 0.28252,-0.1306 z m 9.27228,-0.94546 c 0.14164,-0.11086 0.25753,-0.20564 0.25753,-0.21061 0,-0.005 -0.0699,-0.0553 -0.15523,-0.11177 -0.0854,-0.0565 -0.19156,-0.17022 -0.23599,-0.2527 -0.0444,-0.0825 -0.0942,-0.14998 -0.11073,-0.14998 -0.0902,0 -1.53942,0.92871 -1.64186,1.05214 -0.0346,0.0417 -0.0261,0.10051 0.0342,0.23683 0.0858,0.19387 0.25879,0.34172 0.49488,0.42289 l 0.1459,0.0502 0.47689,-0.4177 c 0.2623,-0.22973 0.59278,-0.5084 0.73442,-0.61926 z m -6.57121,0.49708 c 0.34514,-0.27964 0.77885,-0.62025 0.96381,-0.75692 l 0.33628,-0.2485 -0.3145,-0.0285 c -0.17297,-0.0157 -0.43555,-0.0542 -0.5835,-0.0856 l -0.26902,-0.0572 -0.70046,0.37404 c -0.75911,0.40535 -1.0148,0.56257 -1.04,0.63948 -0.0466,0.14231 0.64788,0.66773 0.88632,0.67053 0.0593,6.2e-4 0.32321,-0.18498 0.72107,-0.50733 z m 12.54,0.16879 c -0.0329,-0.12615 -0.11094,-0.51601 -0.17351,-0.86636 l -0.11377,-0.63698 -0.47667,-0.027 c -0.26217,-0.0148 -0.63499,-0.0383 -0.82849,-0.052 l -0.35183,-0.0251 0.0142,0.15977 c 0.008,0.0879 -0.013,0.24823 -0.0461,0.35635 l -0.0603,0.19657 0.43474,0.20507 c 0.45412,0.2142 1.30236,0.70729 1.51491,0.88062 0.068,0.0554 0.12879,0.0868 0.13512,0.0696 0.006,-0.0172 -0.0154,-0.1344 -0.0482,-0.26054 z m 5.53859,-0.21661 c 0.0345,-0.10872 0.14137,-0.25119 0.314,-0.41856 0.14395,-0.13956 0.26172,-0.26407 0.26172,-0.2767 0,-0.0869 -0.28538,-0.3226 -0.47787,-0.39462 -0.31203,-0.11675 -0.33646,-0.11102 -0.38634,0.0907 -0.0633,0.25599 -0.30609,0.74167 -0.45619,0.91262 -0.0717,0.0816 -0.12372,0.14908 -0.11571,0.14993 0.008,7.8e-4 0.18145,0.0347 0.38541,0.0752 0.20396,0.0405 0.3825,0.063 0.39676,0.05 0.0143,-0.013 0.0495,-0.0979 0.0782,-0.18854 z m -23.98024,-0.19351 0.26232,-0.2347 -0.0805,-0.0905 c -0.0926,-0.10416 -0.61607,-0.44958 -0.68126,-0.44958 -0.0697,0 -0.39445,0.23664 -0.48804,0.35562 -0.10866,0.13813 -0.1085,0.26334 4.7e-4,0.40192 0.14108,0.17936 0.50593,0.33206 0.65922,0.27591 0.036,-0.0132 0.18345,-0.12957 0.32773,-0.25866 z m 2.12839,-0.0313 c 0.16256,-0.0991 0.24715,-0.33513 0.18156,-0.50655 -0.0523,-0.13659 -0.26994,-0.27778 -0.42858,-0.27799 -0.23949,-3.1e-4 -0.52331,0.23873 -0.52331,0.44075 0,0.35737 0.43192,0.55013 0.77033,0.34379 z m 9.10213,-0.43828 c 0.38301,-0.24005 0.7643,-0.47138 0.84731,-0.51405 0.11679,-0.0601 0.146,-0.0964 0.12918,-0.16073 -0.0181,-0.0691 -0.0471,-0.0799 -0.17152,-0.0639 -0.0824,0.0106 -0.37229,0.04 -0.64423,0.0654 -0.72648,0.0679 -1.14421,0.14856 -1.20641,0.23307 -0.0321,0.0436 -0.0424,0.12024 -0.0264,0.196 0.0309,0.14625 0.3024,0.68067 0.34584,0.68067 0.0164,0 0.34325,-0.19641 0.72627,-0.43646 z m -5.91793,-0.19692 c 0.28762,-0.1503 0.48724,-0.27717 0.45325,-0.28806 -0.0334,-0.0107 -0.19981,-0.0513 -0.36978,-0.0901 -0.16997,-0.0389 -0.41709,-0.11541 -0.54916,-0.17009 l -0.24013,-0.0994 -0.43819,0.23192 c -0.54528,0.28861 -0.66791,0.37519 -0.66791,0.4716 0,0.10544 0.34091,0.3955 0.54902,0.46713 0.16954,0.0584 0.17626,0.0569 0.46048,-0.0976 0.15864,-0.0862 0.51973,-0.27766 0.80242,-0.42539 z m 16.65717,0.36499 c 0.0179,-0.091 0.11416,-0.332 0.21391,-0.53565 0.0998,-0.20365 0.17391,-0.37779 0.16479,-0.38697 -0.0242,-0.0244 -3.15242,0.0682 -3.17828,0.094 -0.012,0.012 -0.01,0.0706 0.005,0.13022 0.0213,0.085 0.0912,0.13774 0.32428,0.24473 0.39183,0.17984 1.01005,0.37446 1.57247,0.49502 0.83641,0.17929 0.85421,0.17847 0.89748,-0.0414 z m 1.13376,-3.1e-4 c 0.1189,-0.13685 0.11765,-0.27453 -0.004,-0.4157 -0.25305,-0.29419 -0.75105,-3.2e-4 -0.60342,0.35615 0.0939,0.22659 0.43315,0.25987 0.6072,0.0596 z m -23.80629,-0.52345 0.14362,-0.11098 -0.14362,-0.15099 c -0.079,-0.0831 -0.21503,-0.20367 -0.30233,-0.26806 l -0.15871,-0.11706 -0.20182,0.10227 c -0.21515,0.10902 -0.57266,0.42521 -0.57266,0.50646 0,0.11121 0.27523,0.34429 0.49398,0.41834 l 0.22528,0.0763 0.18633,-0.17264 c 0.10247,-0.095 0.25095,-0.22257 0.32993,-0.28361 z m 1.69077,-0.0323 c 0.28825,-0.14705 0.37314,-0.46854 0.18329,-0.69416 -0.31166,-0.37037 -0.92575,-0.17089 -0.92575,0.30073 0,0.21396 0.11371,0.37653 0.30132,0.43081 0.20031,0.058 0.26501,0.0525 0.44114,-0.0374 z m 7.60833,-0.0135 c 0.0188,-0.019 0.0314,-0.18584 0.028,-0.37084 -0.008,-0.41963 -0.14785,-0.88217 -0.43324,-1.43128 -0.30737,-0.59139 -0.31957,-0.60237 -0.75048,-0.67608 -0.48028,-0.0821 -0.7837,-0.0814 -0.86725,0.002 -0.0796,0.0796 -0.0796,0.0761 0.002,0.35011 0.0812,0.27364 0.2644,0.64254 0.46915,0.94487 0.28382,0.41909 0.3835,0.65747 0.38768,0.9271 l 0.004,0.24722 0.16481,0.0265 c 0.22825,0.0367 0.95409,0.0223 0.99586,-0.0198 z m -4.81622,-0.13684 c 0.4542,-0.24727 0.43947,-0.22867 0.2911,-0.36768 -0.16394,-0.1536 -0.36452,-0.46381 -0.36452,-0.56376 0,-0.0879 -0.0317,-0.0822 -0.42832,0.0772 -0.34688,0.13933 -0.64298,0.33847 -0.64298,0.43241 0,0.0988 0.27671,0.37791 0.48212,0.48631 0.22404,0.11823 0.34945,0.10603 0.6626,-0.0645 z m 2.37966,-0.25768 c -0.16602,-0.42362 -0.46877,-0.80088 -0.76329,-0.95113 -0.38859,-0.19824 -0.47622,-0.52863 -0.24764,-0.93365 0.068,-0.12047 0.12361,-0.23785 0.12361,-0.26086 0,-0.11294 -0.84415,0.0309 -1.11717,0.19031 -0.16329,0.0954 -0.22331,0.23539 -0.18605,0.43401 0.0227,0.12082 0.56034,1.09096 0.73342,1.32334 0.111,0.14902 1.02094,0.42977 1.42172,0.43865 l 0.13085,0.003 -0.0954,-0.24357 z m 4.57222,0.1207 c 0.1813,-0.026 0.58922,-0.07 0.90649,-0.0977 l 0.57686,-0.0504 -0.28843,-0.28961 c -0.15864,-0.15929 -0.46374,-0.40462 -0.678,-0.54518 -0.64631,-0.42398 -1.66513,-0.91325 -1.9017,-0.91325 -0.0747,0 -0.0642,0.0261 0.0874,0.21632 0.2341,0.29385 0.50885,0.87355 0.64603,1.36305 0.10915,0.38951 0.11751,0.40427 0.21763,0.38457 0.0573,-0.0113 0.25246,-0.0418 0.43376,-0.0678 z m -12.51588,-0.0984 c 0.085,-0.0764 0.25336,-0.19934 0.37402,-0.27324 l 0.21939,-0.13437 -0.15148,-0.15513 c -0.19491,-0.19961 -0.4982,-0.36387 -0.72586,-0.39312 -0.3302,-0.0424 -0.73837,0.25529 -0.67827,0.49474 0.0323,0.12885 0.2853,0.41855 0.45757,0.52402 0.1857,0.11369 0.32772,0.096 0.50463,-0.0629 z m 19.88973,-0.0156 c -0.0171,-0.0397 -0.0511,-0.1313 -0.0755,-0.20366 -0.0248,-0.0733 -0.0814,-0.14147 -0.12783,-0.15395 -0.12841,-0.0345 -1.83466,-0.0276 -1.83362,0.007 0.002,0.0538 0.1392,0.20343 0.25373,0.27583 0.11226,0.071 0.69784,0.12692 1.47003,0.14047 0.31352,0.006 0.34156,-4.7e-4 0.31324,-0.0661 z m 2.74635,-0.0351 1.50853,-0.029 -0.0558,-0.10702 c -0.10075,-0.19308 -0.0459,-0.34257 0.19178,-0.52246 l 0.14331,-0.10848 -0.22662,0.0216 c -0.12464,0.0119 -0.88486,0.0806 -1.68937,0.15257 -0.80451,0.072 -1.5055,0.13906 -1.55777,0.14899 -0.0879,0.0167 -0.0931,0.0326 -0.069,0.2124 0.0384,0.28721 0.0503,0.30897 0.15414,0.28325 0.0508,-0.0126 0.77117,-0.0359 1.60087,-0.0519 z m -17.80186,-0.56237 c 0.29138,-0.14164 0.53044,-0.27001 0.53126,-0.28527 0.004,-0.0703 -0.21787,-0.27545 -0.41135,-0.38075 l -0.21363,-0.11628 -0.29452,0.114 c -0.43512,0.1684 -0.60356,0.26074 -0.60356,0.33085 0,0.1109 0.1575,0.37548 0.28978,0.48678 0.0707,0.0595 0.13841,0.1082 0.15041,0.1082 0.012,0 0.26023,-0.11589 0.55161,-0.25753 z m 15.02082,0.0599 c 0.0288,-0.0386 0.0733,-0.15623 0.0989,-0.26137 0.0509,-0.20899 -0.003,-0.48772 -0.11227,-0.57822 -0.0661,-0.0549 -0.57578,-0.008 -1.47494,0.13523 l -0.55201,0.088 0.0284,0.12886 c 0.0363,0.16459 0.0361,0.34792 -4.2e-4,0.4796 l -0.0287,0.10351 0.99438,-0.0127 c 0.87958,-0.0112 1.00041,-0.0208 1.0467,-0.0829 z m -17.88936,-0.0946 c 0.27841,-0.24445 0.28497,-0.57252 0.016,-0.79886 -0.44578,-0.37509 -1.18282,0.13068 -0.9229,0.63331 0.0984,0.19019 0.2897,0.29264 0.54688,0.29283 0.18156,1.2e-4 0.2374,-0.0196 0.36003,-0.12728 z m 21.24666,-0.1578 c 1.30112,-0.10515 1.56462,-0.14436 1.84998,-0.27528 0.28484,-0.13068 0.25004,-0.15442 -0.35193,-0.24007 -0.7192,-0.10232 -3.0678,-0.20098 -3.0678,-0.12887 0,0.01 0.0393,0.0849 0.0874,0.16635 0.0698,0.11826 0.0835,0.19447 0.0683,0.37816 l -0.0191,0.23006 0.19321,-0.0229 c 0.10627,-0.0126 0.66423,-0.0609 1.23993,-0.10747 z m -19.19995,-0.38845 c 0.16713,-0.0759 0.37341,-0.1608 0.45839,-0.18862 0.17546,-0.0574 0.18138,-0.0698 0.0846,-0.17677 -0.0806,-0.0891 -0.0868,-0.33417 -0.0107,-0.42588 0.0281,-0.0339 0.0386,-0.0741 0.0233,-0.0894 -0.035,-0.035 -0.89972,0.053 -1.10629,0.11258 -0.20473,0.059 -0.26163,0.16832 -0.19808,0.38043 0.0396,0.13204 0.36027,0.52567 0.42829,0.52567 0.009,0 0.15329,-0.0621 0.32042,-0.13803 z m 14.76083,-0.1932 c 0.43371,-0.0667 0.84161,-0.12147 0.90646,-0.12167 0.11341,-3.1e-4 0.11682,-0.006 0.0895,-0.15147 -0.0477,-0.25415 -0.19327,-0.60073 -0.29516,-0.70262 -0.094,-0.094 -0.10028,-0.0947 -0.23107,-0.0273 -0.20394,0.10511 -0.90837,0.56753 -1.25438,0.82341 -0.26021,0.19244 -0.29965,0.237 -0.25614,0.28942 0.0331,0.0399 0.0872,0.053 0.1518,0.0368 0.0552,-0.0139 0.45524,-0.0798 0.88895,-0.14651 z m -0.58479,-0.40372 c 0.27944,-0.20025 0.63887,-0.44205 0.79874,-0.53731 l 0.29066,-0.17321 -0.25995,-0.52369 c -0.26824,-0.54038 -0.4244,-1.03997 -0.4244,-1.3578 0,-0.24008 -0.0609,-0.21537 -0.23417,0.095 -0.3221,0.57703 -0.6769,1.70415 -0.73492,2.33471 -0.026,0.28217 -0.008,0.52644 0.0395,0.52644 0.009,0 0.24513,-0.16385 0.52457,-0.36411 z m 6.44385,0.24805 c -0.0508,-0.16008 -0.22838,-1.0639 -0.22869,-1.164 l -3.3e-4,-0.10574 -0.95543,-0.0722 c -1.18674,-0.0897 -2.00092,-0.17434 -2.39131,-0.24859 -0.1649,-0.0314 -0.30225,-0.0542 -0.30522,-0.0508 -0.003,0.003 0.10828,0.20194 0.24722,0.44114 0.13895,0.23921 0.3268,0.59381 0.41745,0.78801 l 0.16481,0.3531 0.84469,0.0308 c 0.46457,0.0169 1.04864,0.0443 1.29792,0.0609 0.84075,0.0559 0.93591,0.0525 0.90889,-0.0326 z m 1.57571,-0.27186 c 0.20936,-0.10969 0.58511,-0.57583 0.58511,-0.72587 0,-0.0458 -0.0605,-0.0964 -0.16565,-0.13846 -0.21684,-0.0868 -0.38243,-0.084 -0.46554,0.008 -0.10891,0.12034 -0.19289,0.41321 -0.19289,0.6727 0,0.26674 0.0326,0.29184 0.23897,0.18375 z m -0.72818,-0.38334 c 0.0396,-0.0404 0.0843,-0.12395 0.0994,-0.1857 0.0221,-0.0905 0.003,-0.13644 -0.0973,-0.23692 -0.13828,-0.13829 -0.2424,-0.15438 -0.41647,-0.0644 -0.32261,0.16683 -0.1593,0.64183 0.2006,0.58342 0.078,-0.0126 0.17415,-0.056 0.21374,-0.0964 z m 1.59057,-0.74299 c 0.12941,-0.23134 0.25837,-0.6457 0.25837,-0.83014 0,-0.25972 -0.10947,-0.32296 -0.59746,-0.34512 l -0.20602,-0.009 -0.0705,0.28221 c -0.0789,0.31588 -0.16653,0.89545 -0.1395,0.92248 0.0346,0.0346 0.4184,0.12714 0.54233,0.13076 0.10483,0.003 0.14103,-0.0226 0.21276,-0.15083 z m -2.64025,-0.23692 c 0.0729,-0.31535 0.0683,-0.80816 -0.009,-0.91793 -0.0605,-0.0864 -0.0925,-0.0914 -0.56656,-0.0887 -0.27633,0.002 -0.90381,0.0247 -1.3944,0.0515 l -0.89199,0.0487 -0.24134,0.22662 c -0.13273,0.12464 -0.32169,0.29759 -0.4199,0.38434 -0.0982,0.0867 -0.17198,0.16431 -0.16393,0.17236 0.0632,0.0632 3.14389,0.3546 3.53616,0.33447 0.0884,-0.005 0.10965,-0.0343 0.15056,-0.2113 z m 1.33906,-0.0651 c 0.11658,-0.0624 0.20866,-0.29787 0.16308,-0.41705 -0.083,-0.21696 -0.30046,-0.31248 -0.5111,-0.22446 -0.28626,0.1196 -0.3544,0.36698 -0.15579,0.56559 0.12974,0.12974 0.34316,0.1619 0.50381,0.0759 z m -4.57145,-0.61229 0.27622,-0.25349 -0.15818,-0.15818 c -0.1745,-0.1745 -0.30119,-0.46843 -0.3733,-0.86611 -0.0636,-0.35103 -0.23212,-0.92267 -0.32629,-1.10719 -0.10521,-0.20614 -0.22604,-0.3092 -0.3255,-0.27763 -0.10455,0.0332 -0.55477,0.4798 -0.70763,0.70198 l -0.11905,0.17303 0.076,0.34662 c 0.15648,0.71371 0.4446,1.30434 0.82923,1.69985 l 0.23771,0.24444 0.15729,-0.12492 c 0.0865,-0.0687 0.28159,-0.23898 0.43351,-0.3784 z m 1.90759,-0.42773 1.15372,-0.0486 0.11401,-0.22777 c 0.14149,-0.2827 0.19333,-0.71865 0.10012,-0.84207 -0.0601,-0.0796 -0.0675,-0.0797 -0.44666,-0.008 -0.21204,0.0403 -0.64791,0.12994 -0.9686,0.19924 l -0.58307,0.126 -0.29682,0.3667 c -0.16325,0.20169 -0.33197,0.38551 -0.37493,0.4085 -0.11417,0.0611 -0.0954,0.10954 0.0352,0.0906 0.0623,-0.009 0.63248,-0.0383 1.26702,-0.065 z m 4.34491,-0.20573 c 0.26264,-0.51651 0.21229,-1.03741 -0.11058,-1.14397 -0.12868,-0.0425 -0.56633,-0.032 -0.61301,0.0147 -0.0357,0.0358 -0.0959,0.64596 -0.0971,0.98516 l -0.001,0.35801 0.19572,0.0257 c 0.10764,0.0142 0.22353,0.032 0.25752,0.0397 0.17293,0.039 0.22814,-0.003 0.36872,-0.27933 z m -1.43742,-0.0101 c 0.21732,-0.20821 0.1942,-0.48524 -0.0531,-0.63601 -0.43069,-0.26259 -0.94518,0.21266 -0.6443,0.59517 0.0485,0.0616 0.12726,0.12877 0.17512,0.14926 0.14959,0.0641 0.39551,0.013 0.52226,-0.10842 z m -3.69491,-0.56762 c 0.24971,-0.30052 0.57464,-0.76973 0.66432,-0.95931 l 0.11073,-0.23406 -0.15186,-0.6199 c -0.18141,-0.74053 -0.24461,-0.90886 -0.38176,-1.01674 -0.13476,-0.106 -0.30672,-0.1019 -0.58712,0.014 -0.30797,0.12729 -0.70047,0.38422 -0.70047,0.45853 0,0.0366 0.0696,0.0795 0.17512,0.10784 0.23115,0.0622 0.35939,0.13097 0.49269,0.26428 0.15108,0.15107 0.177,0.30859 0.0926,0.56268 -0.12385,0.37285 -0.0843,0.81845 0.11379,1.28202 0.0909,0.2127 0.10351,0.22303 0.17195,0.14066 z m 1.04165,-0.31293 c 0.40407,-0.0891 0.80634,-0.17498 0.89393,-0.19089 0.1391,-0.0253 0.16968,-0.0525 0.24171,-0.21534 0.0966,-0.21847 0.13501,-0.45534 0.0978,-0.60364 -0.0348,-0.13871 -0.14155,-0.13834 -0.81534,0.003 l -0.5226,0.10949 -0.12542,0.25477 c -0.069,0.14013 -0.21792,0.37851 -0.33098,0.52975 -0.11305,0.15124 -0.1984,0.27499 -0.18966,0.27499 0.009,0 0.3465,-0.0729 0.75057,-0.16197 z m 2.61028,-0.35352 c 0.14518,-0.0751 0.2052,-0.17739 0.2052,-0.34981 0,-0.18186 -0.0672,-0.28628 -0.22738,-0.3532 -0.41409,-0.17302 -0.80457,0.28949 -0.51972,0.61559 0.13426,0.15371 0.34727,0.18807 0.5419,0.0874 z m 1.68479,-0.2715 c 0.069,-0.15205 0.10675,-0.32231 0.11922,-0.53759 0.0176,-0.30433 0.0145,-0.31752 -0.0909,-0.3866 -0.0871,-0.057 -0.16826,-0.0673 -0.40116,-0.0506 -0.18392,0.0132 -0.30509,0.0419 -0.32735,0.0776 -0.10118,0.16229 -0.21505,1.04023 -0.14406,1.11081 0.009,0.009 0.18062,0.0153 0.38027,0.0131 l 0.36301,-0.004 0.10098,-0.22251 z m -3.63691,-0.55597 c 0.39112,-0.0793 0.48851,-0.13635 0.57503,-0.33693 0.0715,-0.16584 0.0982,-0.55839 0.0465,-0.68492 -0.0281,-0.0687 -0.0625,-0.0751 -0.28843,-0.0538 -0.22332,0.021 -0.8242,0.19127 -0.88319,0.25026 -0.0114,0.0114 0.0134,0.10997 0.0551,0.21899 0.0442,0.11548 0.0745,0.29713 0.0727,0.43515 -0.004,0.27193 -0.0271,0.2624 0.42234,0.1713 z m 2.26445,-0.48651 c 0.22002,-0.22002 0.18945,-0.53133 -0.0651,-0.66296 -0.22937,-0.11861 -0.5366,-0.0494 -0.67819,0.15272 -0.0354,0.0505 -0.0643,0.16369 -0.0643,0.25153 0,0.12554 0.0274,0.1853 0.12797,0.27926 0.10585,0.0989 0.16354,0.11954 0.33375,0.11954 0.17909,0 0.22396,-0.0182 0.34588,-0.14009 z m 1.57002,-0.16755 c 0.20639,-0.23763 0.23071,-0.77519 0.0405,-0.89611 -0.0642,-0.0408 -0.65252,-0.0403 -0.71689,6.3e-4 -0.0949,0.0603 -0.17672,0.3362 -0.17616,0.59406 9.8e-4,0.45264 -0.007,0.4445 0.40565,0.42382 0.31835,-0.016 0.36568,-0.0289 0.44686,-0.12239 z m -4.07339,-0.39351 c 0.15083,-0.0457 0.39475,-0.10755 0.54205,-0.13744 0.32819,-0.0666 0.37374,-0.14477 0.29714,-0.50994 -0.0753,-0.3589 -0.0977,-0.36894 -0.5292,-0.23742 -0.59471,0.18124 -0.60444,0.18944 -0.67701,0.57035 -0.0402,0.21125 -0.0158,0.39754 0.0522,0.39754 0.0224,0 0.16404,-0.0374 0.31486,-0.0831 z m 2.64767,-0.71143 c 0.0875,-0.0588 0.16161,-0.15602 0.19756,-0.25916 0.0515,-0.14773 0.0498,-0.18139 -0.0159,-0.31981 -0.19273,-0.40615 -0.81397,-0.35347 -0.96568,0.0819 -0.0496,0.14237 -0.0501,0.18919 -0.003,0.30226 0.11555,0.27896 0.51491,0.37778 0.78727,0.19482 z m 1.70388,-0.0348 c 0.10248,-0.12178 0.18665,-0.35328 0.18707,-0.51452 1.3e-4,-0.0479 -0.0382,-0.136 -0.0852,-0.19572 -0.0799,-0.10158 -0.10705,-0.10852 -0.42234,-0.10793 -0.18532,3.1e-4 -0.35842,0.0143 -0.38468,0.031 -0.0514,0.0327 -0.15628,0.40653 -0.20045,0.71448 l -0.0272,0.18986 0.41555,0.002 c 0.41002,0.002 0.41689,3.2e-4 0.51726,-0.11902 z m -4.11853,-0.20074 c 0.20114,-0.068 0.39732,-0.12361 0.43597,-0.12361 0.0903,0 0.12085,-0.0836 0.11796,-0.3227 -0.005,-0.3965 -0.17761,-0.6303 -0.42078,-0.56926 -0.12016,0.0301 -0.80486,0.48069 -0.91427,0.60159 -0.0659,0.0728 -0.0645,0.0784 0.0261,0.10595 0.14192,0.0431 0.27342,0.17909 0.30287,0.3132 0.0143,0.0651 0.0396,0.11844 0.0562,0.11844 0.0166,0 0.19476,-0.0556 0.39589,-0.12361 z m 4.34348,-0.94532 c 0.11915,-0.2162 0.14382,-0.55858 0.0448,-0.62127 -0.0824,-0.0521 -0.64102,-0.0507 -0.8312,0.002 -0.13901,0.0386 -0.15494,0.0589 -0.19572,0.24902 -0.0244,0.11385 -0.0444,0.29013 -0.0444,0.39173 v 0.18474 l 0.46283,-0.0116 0.46284,-0.0117 z m -2.01575,-0.0689 c 0.19805,-0.0792 0.33138,-0.25138 0.35688,-0.46079 0.0363,-0.29831 -0.24216,-0.55943 -0.59105,-0.55415 -0.22406,0.003 -0.39465,0.10711 -0.50809,0.30895 -0.15496,0.27572 -0.0419,0.57627 0.26872,0.71432 0.16484,0.0733 0.27444,0.0713 0.47354,-0.008 z m 1.64657,-0.73312 c 0.27966,-0.01 0.31455,-0.0206 0.39016,-0.1219 0.11404,-0.15274 0.14197,-0.62034 0.0479,-0.8022 -0.0768,-0.14859 -0.19694,-0.19078 -0.45898,-0.16124 -0.35464,0.04 -0.56315,0.29618 -0.6455,0.79316 -0.0595,0.35891 -0.041,0.39393 0.1814,0.34333 0.0978,-0.0222 0.31607,-0.0453 0.48499,-0.0511 z"
         id="path4692" />
      <circle
         style="fill:none;stroke:#ff0000;stroke-width:0.1;stroke-dasharray:none"
         id="path788-8-1-8-1-9-2-56-8-1-6"
         cx="-154.02731"
         cy="-156.93591"
         r="19.954653" />
      <ellipse
         style="fill:none;stroke:#ff00ff;stroke-width:0.1;stroke-dasharray:none;stroke-opacity:1"
         id="path1138-9-4-0-0-1-2-4-9-7-0"
         cx="-154.02731"
         cy="-156.93591"
         rx="18.492125"
         ry="18.492126" />
      <circle
         style="fill:none;stroke:#0000ff;stroke-width:0.1;stroke-linecap:round;stroke-dasharray:none;stroke-opacity:1;paint-order:markers stroke fill"
         id="path13019-1-33-6-2-4-5"
         cx="-154.02731"
         cy="-171.9469"
         r="2" />
    </g>
  </g>
</svg>
