<?xml version="1.0" encoding="UTF-8" standalone="no"?>
<!-- Created with Inkscape (http://www.inkscape.org/) -->

<svg
   width="41.008999mm"
   height="41.008999mm"
   viewBox="0 0 41.008999 41.009"
   version="1.1"
   id="svg1"
   inkscape:version="1.4.2 (f4327f4, 2025-05-13)"
   sodipodi:docname="233.svg"
   xmlns:inkscape="http://www.inkscape.org/namespaces/inkscape"
   xmlns:sodipodi="http://sodipodi.sourceforge.net/DTD/sodipodi-0.dtd"
   xmlns="http://www.w3.org/2000/svg"
   xmlns:svg="http://www.w3.org/2000/svg">
  <sodipodi:namedview
     id="namedview1"
     pagecolor="#ffffff"
     bordercolor="#000000"
     borderopacity="0.25"
     inkscape:showpageshadow="2"
     inkscape:pageopacity="0.0"
     inkscape:pagecheckerboard="0"
     inkscape:deskcolor="#d1d1d1"
     inkscape:document-units="mm"
     inkscape:zoom="2.0485264"
     inkscape:cx="68.341808"
     inkscape:cy="134.73099"
     inkscape:window-width="1050"
     inkscape:window-height="1081"
     inkscape:window-x="3737"
     inkscape:window-y="0"
     inkscape:window-maximized="0"
     inkscape:current-layer="layer1" />
  <defs
     id="defs1" />
  <g
     inkscape:label="Layer 1"
     inkscape:groupmode="layer"
     id="layer1"
     transform="translate(-114.0891,-77.774176)">
    <g
       id="g167"
       transform="translate(-345.6575,302.65784)">
      <circle
         style="fill:none;stroke:#ff0000;stroke-width:0.1;stroke-dasharray:none"
         id="path788-8-1-8-1-9-2-2-9-1-0-0-4-6-7-1"
         cx="480.2511"
         cy="-204.37917"
         r="19.954653" />
      <ellipse
         style="fill:none;stroke:#ff00ff;stroke-width:0.1;stroke-dasharray:none;stroke-opacity:1"
         id="path1138-9-4-0-0-1-2-8-1-8-6-2-9-9-1-1"
         cx="480.2511"
         cy="-204.37917"
         rx="18.492125"
         ry="18.492126" />
      <circle
         style="fill:none;stroke:#0000ff;stroke-width:0.1;stroke-linecap:round;stroke-dasharray:none;stroke-opacity:1;paint-order:markers stroke fill"
         id="path13019-1-33-4-5-5-5-5-7-1-5-83"
         cx="480.2511"
         cy="-219.39015"
         r="2" />
      <path
         style="fill:#000000;stroke-width:0.171986"
         d="m 475.47729,-188.07735 c -0.46456,-0.0523 -1.0309,-0.18678 -1.30995,-0.31094 -0.55819,-0.24839 -0.75078,-0.66722 -0.48312,-1.0506 0.17505,-0.25074 0.94585,-0.55201 1.57795,-0.61677 l 0.28949,-0.0296 -0.24195,-0.20636 c -0.68199,-0.58165 -1.16676,-1.2346 -1.51691,-2.04313 -0.003,-0.006 -0.234,0.0923 -0.5146,0.21744 -0.63622,0.2839 -1.46393,0.52478 -2.12099,0.61725 -1.12997,0.15904 -1.33326,-0.042 -0.92051,-0.91023 0.33601,-0.70685 1.19598,-2.10615 1.7091,-2.78104 0.11417,-0.15017 0.39091,-0.46314 0.61498,-0.6955 0.34443,-0.35718 0.39734,-0.43146 0.34232,-0.48059 -0.0358,-0.032 -0.24727,-0.21011 -0.46998,-0.39588 -0.83818,-0.69921 -1.53094,-1.56574 -1.98097,-2.47794 -0.3333,-0.67557 -0.43529,-0.97893 -0.55619,-1.65431 -0.11967,-0.66853 -0.16598,-2.22697 -0.0869,-2.92455 0.26227,-2.31336 1.22521,-4.39918 2.77761,-6.01653 1.64098,-1.70967 3.86481,-2.77675 6.32621,-3.03556 0.43048,-0.0453 1.94546,-0.0685 2.22972,-0.0341 0.11377,0.0137 0.11377,0.0137 0.12704,-0.46407 0.0167,-0.60147 -0.047,-1.13206 -0.1853,-1.54453 -0.0624,-0.18586 -0.0876,-0.32115 -0.06,-0.32115 0.0263,0 0.22387,0.17916 0.43918,0.39816 0.43848,0.44598 0.7451,0.9759 0.79876,1.38045 0.0165,0.12409 0.0444,0.23456 0.062,0.24546 0.0176,0.0109 0.0961,-0.0709 0.17421,-0.1818 0.18451,-0.26177 0.61815,-0.58146 1.09364,-0.80628 0.40582,-0.19187 0.53769,-0.20328 0.2509,-0.0218 -0.45948,0.29088 -0.91165,0.76898 -1.1497,1.21561 -0.0771,0.14457 -0.1401,0.28334 -0.1401,0.30837 0,0.025 0.16893,0.0908 0.37541,0.14613 2.20233,0.59013 4.32749,1.93936 5.63128,3.57521 1.34592,1.68872 2.03644,3.5107 2.16335,5.70809 0.0552,0.95678 -0.14694,2.51642 -0.43948,3.38997 -0.35306,1.05425 -1.04225,2.16213 -1.81069,2.9107 -0.12749,0.12419 -0.23099,0.24706 -0.23001,0.27303 9.4e-4,0.026 0.15404,0.25198 0.34012,0.50226 0.71333,0.95945 1.23643,1.99763 1.54763,3.07156 0.20012,0.69057 0.25118,1.17208 0.14195,1.33876 -0.11823,0.18047 -0.36333,0.22248 -0.95364,0.16346 -0.56563,-0.0565 -0.92969,-0.16507 -1.6861,-0.50258 -0.27863,-0.12434 -0.52709,-0.22552 -0.55212,-0.22485 -0.025,6e-4 -0.10693,0.13882 -0.18202,0.30698 -0.24268,0.54354 -0.89023,1.30525 -1.49376,1.75709 -0.12079,0.0904 -0.2027,0.16452 -0.18202,0.16462 0.0207,10e-5 0.22309,0.0303 0.44978,0.0671 1.04233,0.16906 1.56729,0.48186 1.56729,0.93388 0,0.3992 -0.45185,0.75925 -1.13762,0.90646 -0.85949,0.1845 -2.2458,0.24336 -2.82762,0.12004 -0.61286,-0.12991 -1.00693,-0.39862 -1.21043,-0.82538 l -0.0781,-0.16382 -0.6153,0.0383 c -0.75238,0.0468 -2.01898,0.0498 -2.39236,0.006 l -0.2754,-0.0325 -0.0522,0.19522 c -0.0771,0.28842 -0.37578,0.54548 -0.76985,0.66267 -0.5941,0.17666 -1.54629,0.22915 -2.404,0.13251 z m 1.71193,-0.54138 c 0.44723,-0.0459 0.53444,-0.0648 0.49125,-0.10661 -0.0104,-0.0101 -0.37457,0.009 -0.80919,0.0429 -0.76552,0.0594 -0.79805,0.0583 -1.04029,-0.0323 -0.37008,-0.13846 -0.53365,-0.30202 -0.53365,-0.53362 0,-0.22036 -0.0189,-0.22453 -0.53377,-0.1174 -0.68435,0.14242 -0.75809,0.21133 -0.44899,0.41963 0.46772,0.3152 1.66496,0.45156 2.87464,0.32743 z m 8.53596,-0.0394 c 0.44922,-0.0927 0.89064,-0.29623 0.91449,-0.42165 0.0289,-0.15174 -0.59227,-0.35332 -1.0927,-0.35461 -0.27955,-6e-4 -0.31478,0.0212 -0.43651,0.27235 -0.0499,0.10283 -0.14579,0.19388 -0.27076,0.25697 -0.26068,0.1316 -0.86957,0.212 -1.44445,0.19072 -0.25986,-0.01 -0.46459,-0.01 -0.45495,3e-5 0.0586,0.0586 0.93273,0.13451 1.5924,0.13826 0.59612,0.004 0.86966,-0.0155 1.19248,-0.0821 z m -3.63732,-1.15763 c 1.64168,-0.26433 2.84526,-0.84031 3.46304,-1.65723 0.31491,-0.41643 0.57835,-0.97158 0.67402,-1.42042 0.0651,-0.30514 0.0824,-0.59331 0.0824,-1.36513 0,-1.33017 -0.0165,-1.35833 -0.76693,-1.30606 -0.20388,0.0143 -0.59593,0.0501 -0.87124,0.0798 -0.61646,0.0665 -1.84533,0.0308 -2.41173,-0.0701 -0.59843,-0.10654 -1.20587,-0.25943 -1.20587,-0.3035 0,-0.0211 0.54775,-0.0386 1.21725,-0.0391 0.66948,-5.2e-4 1.40676,-0.0207 1.6384,-0.0452 1.7902,-0.1886 3.31644,-0.95239 4.34582,-2.1748 0.77705,-0.92278 1.25155,-1.95492 1.52075,-3.30805 0.12705,-0.63853 0.11597,-2.27325 -0.0203,-2.98855 -0.48073,-2.52451 -1.87502,-4.60638 -4.06051,-6.06295 -0.49312,-0.32864 -1.48396,-0.8316 -2.07046,-1.05097 -0.54719,-0.20467 -1.50705,-0.45254 -2.16147,-0.55817 -0.66911,-0.10801 -2.34384,-0.1052 -2.98054,0.005 -1.29388,0.22392 -2.35218,0.62721 -3.16225,1.20508 -0.40435,0.28845 -1.13566,0.92875 -1.54747,1.35491 l -0.34128,0.35318 0.40954,-0.36299 c 0.60121,-0.53287 0.8168,-0.70182 1.29678,-1.01631 1.30888,-0.8576 2.965,-1.32153 4.71767,-1.32153 2.52167,0 4.95749,1.02752 6.90336,2.91206 1.22553,1.18691 1.93821,2.42302 2.37079,4.11208 0.21811,0.85158 0.29876,1.43558 0.32869,2.38007 0.0308,0.97091 -0.0136,1.1995 -0.10886,0.56129 -0.12041,-0.80635 -0.39815,-1.73156 -0.69804,-2.32534 -0.18926,-0.37474 -0.59704,-0.96487 -0.85561,-1.23824 -0.51015,-0.53934 -1.28142,-1.03082 -1.96434,-1.25172 -0.98076,-0.31725 -2.04866,-0.22325 -2.86645,0.2523 -0.3761,0.21872 -0.93023,0.77141 -1.14484,1.14188 -0.0914,0.15776 -0.21425,0.4388 -0.27303,0.62454 -0.0588,0.18574 -0.1171,0.33803 -0.12962,0.33842 -0.0125,3.5e-4 -0.0807,-0.1824 -0.15136,-0.40622 -0.36635,-1.15923 -1.32762,-2.15161 -2.44417,-2.52327 -0.72976,-0.24293 -1.73317,-0.26337 -2.56534,-0.0522 -0.93169,0.23634 -1.6816,0.67368 -2.41816,1.41024 -1.5578,1.5578 -2.22342,3.96103 -1.67859,6.06058 0.3584,1.38115 1.25271,2.49857 2.52295,3.15239 0.65575,0.33754 1.59684,0.63817 2.57101,0.82131 0.49113,0.0923 0.71068,0.14832 0.68444,0.17454 -0.0142,0.0143 -0.61423,0.0384 -1.33346,0.0536 -1.61938,0.0345 -1.61159,0.0318 -1.7702,0.61354 -0.0946,0.34697 -0.12661,1.20903 -0.0646,1.74075 0.10201,0.87539 0.27183,1.31902 0.72151,1.8849 0.70757,0.8904 1.91294,1.45325 3.54436,1.65506 0.63923,0.0791 2.46409,0.0554 3.05389,-0.0395 z m -1.35774,-9.74847 c -0.42425,-0.43014 -0.87486,-0.76135 -1.38157,-1.01548 l -0.44473,-0.22305 0.26619,-0.20906 c 0.93033,-0.73073 2.15753,-0.86264 3.22398,-0.34653 0.26874,0.13006 0.65981,0.42705 0.65981,0.50108 0,0.0208 -0.14846,0.1194 -0.32991,0.21908 -0.45667,0.25087 -0.84283,0.54365 -1.30609,0.99023 l -0.39483,0.38063 z m -4.82053,-1.37832 c -0.70032,-0.22745 -1.08391,-0.83702 -1.03696,-1.64789 0.0375,-0.64884 0.42236,-1.20589 0.96095,-1.39103 0.3635,-0.12498 0.81874,-0.10865 1.09985,0.0394 0.30631,0.16136 0.58281,0.45669 0.73715,0.78734 0.11306,0.2422 0.12739,0.3244 0.12696,0.72807 -5.2e-4,0.40734 -0.0136,0.47994 -0.12514,0.69243 -0.27205,0.5181 -0.72135,0.79905 -1.30777,0.81772 -0.18771,0.006 -0.39248,-0.006 -0.45504,-0.0261 z m 0.55444,-0.62707 c 0.0511,-0.0463 0.0826,-0.13819 0.0826,-0.24115 0,-0.2971 -0.29722,-0.49513 -0.52203,-0.34783 -0.24202,0.15858 -0.25708,0.44578 -0.0326,0.62234 0.13642,0.10731 0.33185,0.0935 0.47203,-0.0334 z m 0.053,-1.17702 c 0.21163,-0.10297 0.31782,-0.27445 0.31782,-0.51326 0,-0.17721 -0.0222,-0.22484 -0.16618,-0.3568 -0.1342,-0.12298 -0.20353,-0.15227 -0.36024,-0.15223 -0.52198,1.8e-4 -0.86555,0.49106 -0.59694,0.85286 0.17805,0.23983 0.51511,0.31072 0.80554,0.16943 z m 8.53077,1.77525 c -0.29141,-0.0933 -0.6785,-0.4546 -0.81475,-0.76036 -0.0897,-0.20123 -0.1071,-0.3167 -0.10838,-0.71762 -9.3e-4,-0.43891 0.009,-0.49784 0.12823,-0.72426 0.15634,-0.29699 0.53065,-0.68019 0.78035,-0.79888 0.25097,-0.11928 0.63791,-0.14107 0.94095,-0.053 0.6642,0.1931 1.05381,0.79821 1.05871,1.64439 0.002,0.30803 -0.0172,0.40353 -0.12374,0.62075 -0.14803,0.30192 -0.4548,0.60068 -0.75307,0.7334 -0.27558,0.12262 -0.81461,0.14964 -1.1083,0.0556 z m 0.53075,-0.52209 c 0.0712,-0.0271 0.14631,-0.11076 0.18708,-0.20834 0.0625,-0.14957 0.0611,-0.17509 -0.016,-0.3072 -0.157,-0.26884 -0.48711,-0.25867 -0.64322,0.0198 -0.0563,0.10036 -0.0573,0.14143 -0.007,0.26349 0.0329,0.0795 0.11338,0.17366 0.17874,0.20919 0.14505,0.0789 0.15194,0.0793 0.30012,0.0231 z m 0.22874,-1.24892 c 0.46084,-0.19255 0.4251,-0.80482 -0.059,-1.01101 -0.19616,-0.0836 -0.45358,-0.0171 -0.67013,0.17307 -0.1367,0.12002 -0.15866,0.16742 -0.15866,0.34236 0,0.25078 0.0551,0.35855 0.24179,0.47235 0.17188,0.10481 0.42868,0.11403 0.64601,0.0232 z m -14.54902,10.37637 c 0.36412,-0.18608 0.88214,-0.57543 1.21573,-0.91376 0.30379,-0.30811 0.82776,-1.00799 0.78595,-1.04982 -0.0109,-0.0109 -0.0893,0.0775 -0.1743,0.19628 -0.37362,0.52256 -1.12286,1.21923 -1.79186,1.66614 -0.34938,0.23339 -0.36143,0.2677 -0.0355,0.10116 z m 18.1386,-0.20352 c 0.0714,-0.0789 0.0721,-0.10885 0.009,-0.37955 -0.20523,-0.88493 -0.99516,-2.35569 -1.59543,-2.97053 -0.20477,-0.20973 -0.27011,-0.25011 -0.40471,-0.25011 -0.0883,0 -0.17304,0.0203 -0.18835,0.045 -0.0153,0.0248 0.15068,0.24489 0.36883,0.48917 0.44265,0.49566 0.77803,0.98581 1.06041,1.54979 0.19873,0.3969 0.47537,1.16569 0.44849,1.24635 -0.0249,0.0746 -0.70425,-0.46283 -1.09815,-0.86859 -0.19677,-0.20269 -0.3669,-0.36853 -0.37808,-0.36853 -0.0112,0 0.0772,0.12798 0.19632,0.28441 0.32227,0.42304 1.01179,1.09147 1.24497,1.2069 0.24732,0.12241 0.24002,0.12208 0.33631,0.0157 z"
         id="path138" />
    </g>
  </g>
</svg>
