<?xml version="1.0" encoding="UTF-8" standalone="no"?>
<!-- Created with Inkscape (http://www.inkscape.org/) -->

<svg
   width="41.008999mm"
   height="41.008999mm"
   viewBox="0 0 41.008999 41.009"
   version="1.1"
   id="svg1"
   inkscape:version="1.4.2 (f4327f4, 2025-05-13)"
   sodipodi:docname="245.svg"
   xmlns:inkscape="http://www.inkscape.org/namespaces/inkscape"
   xmlns:sodipodi="http://sodipodi.sourceforge.net/DTD/sodipodi-0.dtd"
   xmlns="http://www.w3.org/2000/svg"
   xmlns:svg="http://www.w3.org/2000/svg">
  <sodipodi:namedview
     id="namedview1"
     pagecolor="#ffffff"
     bordercolor="#000000"
     borderopacity="0.25"
     inkscape:showpageshadow="2"
     inkscape:pageopacity="0.0"
     inkscape:pagecheckerboard="0"
     inkscape:deskcolor="#d1d1d1"
     inkscape:document-units="mm"
     inkscape:zoom="2.8970539"
     inkscape:cx="84.223494"
     inkscape:cy="68.000116"
     inkscape:window-width="1168"
     inkscape:window-height="1081"
     inkscape:window-x="3737"
     inkscape:window-y="0"
     inkscape:window-maximized="0"
     inkscape:current-layer="layer1" />
  <defs
     id="defs1" />
  <g
     inkscape:label="Layer 1"
     inkscape:groupmode="layer"
     id="layer1"
     transform="translate(-114.0891,-77.774176)">
    <g
       id="g187"
       transform="translate(-219.05777,153.49916)">
      <circle
         style="fill:none;stroke:#ff0000;stroke-width:0.1;stroke-dasharray:none"
         id="path788-8-1-8-1-9-2-1-4-2-2-4-5-1-2-8-7"
         cx="353.65137"
         cy="-55.220486"
         r="19.954653" />
      <ellipse
         style="fill:none;stroke:#ff00ff;stroke-width:0.1;stroke-dasharray:none;stroke-opacity:1"
         id="path1138-9-4-0-0-1-2-6-7-2-6-6-394-3-67-3-5"
         cx="353.65137"
         cy="-55.220486"
         rx="18.492125"
         ry="18.492126" />
      <circle
         style="fill:none;stroke:#0000ff;stroke-width:0.1;stroke-linecap:round;stroke-dasharray:none;stroke-opacity:1;paint-order:markers stroke fill"
         id="path13019-1-33-7-4-6-7-2-0-9-7-90-4"
         cx="353.65137"
         cy="-70.231468"
         r="2" />
      <path
         style="fill:#000000;stroke-width:0.138985"
         d="m 356.74323,-39.973057 c -0.0356,-0.02071 -0.0852,-0.02584 -0.11031,-0.01136 -0.0251,0.01444 -0.0337,0.01312 -0.0193,-0.0031 0.0372,-0.04122 -0.22304,-0.239971 -0.31424,-0.239971 -0.0415,0 -0.17028,0.01958 -0.28616,0.04352 -0.17987,0.03716 -0.23338,0.03462 -0.36582,-0.01744 -0.0853,-0.03352 -0.16982,-0.05186 -0.18775,-0.04078 -0.018,0.0111 -0.0281,-0.0012 -0.0225,-0.02687 0.005,-0.02588 -0.0147,-0.04778 -0.0451,-0.0487 -0.0303,-0.0012 -0.0552,-0.01824 -0.0552,-0.03845 -2e-5,-0.02022 -0.035,-0.08642 -0.0778,-0.147096 -0.13665,-0.193919 -0.20973,-0.361207 -0.2731,-0.625143 -0.0558,-0.232478 -0.0703,-0.256933 -0.14961,-0.252434 -0.0483,0.0027 -0.30682,0.02675 -0.57449,0.05333 -0.41956,0.0417 -0.58695,0.04028 -1.21352,-0.01022 -0.39976,-0.03223 -0.73338,-0.05242 -0.7414,-0.0449 -0.008,0.0075 -0.0278,0.09809 -0.0442,0.201262 -0.0525,0.332428 -0.14118,0.577524 -0.26972,0.745929 -0.0691,0.09049 -0.11442,0.176946 -0.10079,0.192139 0.0136,0.01519 0.007,0.01722 -0.0158,0.0046 -0.0223,-0.01269 -0.0719,7.35e-4 -0.11032,0.02971 -0.11699,0.08855 -0.45457,0.06959 -0.65462,-0.03678 -0.21999,-0.116974 -0.24303,-0.115635 -0.37357,0.02166 -0.14323,0.150652 -0.27794,0.217358 -0.43897,0.217358 -0.16102,0 -0.29573,-0.0667 -0.43896,-0.217358 -0.13181,-0.138633 -0.19912,-0.141441 -0.4112,-0.01714 -0.13499,0.07911 -0.19703,0.09332 -0.34515,0.0791 -0.68754,-0.06606 -1.03797,-1.311469 -0.62521,-2.221824 l 0.10614,-0.234062 -0.10919,-0.05646 c -0.06,-0.03104 -0.12938,-0.04486 -0.15407,-0.03067 -0.0247,0.01417 -0.0329,0.01254 -0.0183,-0.0037 0.0312,-0.03458 -0.28381,-0.243353 -0.34756,-0.230274 -0.0238,0.0049 -0.045,-0.0076 -0.047,-0.02785 -0.002,-0.02022 -0.12856,-0.162302 -0.28145,-0.315724 -0.15288,-0.153425 -0.35813,-0.401646 -0.45607,-0.551602 l -0.17812,-0.272645 -0.0602,0.294187 c -0.0331,0.1618 -0.0782,0.337519 -0.10017,0.390481 -0.0493,0.118753 -0.21452,0.25305 -0.31135,0.25305 -0.10283,0 -0.25622,-0.11898 -0.37575,-0.291454 -0.0581,-0.08384 -0.12097,-0.138238 -0.14434,-0.124897 -0.0228,0.01299 -0.0304,0.01136 -0.017,-0.0037 0.0135,-0.01501 -0.04,-0.162449 -0.11882,-0.327658 -0.16095,-0.337466 -0.25497,-0.729108 -0.25497,-1.062094 v -0.223692 l -0.11377,0.124969 c -0.0626,0.06873 -0.1481,0.163278 -0.19005,0.210107 -0.12939,0.144459 -0.50453,0.278483 -0.50461,0.180276 -2e-5,-0.01466 -0.0406,-0.105218 -0.0902,-0.201209 -0.24886,-0.481852 -0.35688,-1.032987 -0.29103,-1.485082 0.0337,-0.231346 0.032,-0.241939 -0.0313,-0.202326 -0.0373,0.0233 -0.0578,0.06574 -0.0462,0.09591 0.0114,0.02975 0.009,0.0425 -0.005,0.02831 -0.0142,-0.01417 -0.0896,0.0318 -0.16753,0.102247 -0.15981,0.144378 -0.29003,0.1634 -0.39565,0.05779 -0.2355,-0.235514 -0.21495,-1.584303 0.0372,-2.440188 0.0403,-0.136889 0.0618,-0.267691 0.0475,-0.290676 -0.0142,-0.02299 -0.01,-0.03177 0.0101,-0.01958 0.0198,0.01224 0.0881,-0.10519 0.15191,-0.260927 0.13821,-0.33761 0.49106,-0.894832 0.76413,-1.20676 0.1083,-0.123703 0.18504,-0.238055 0.17054,-0.254117 -0.0145,-0.01607 -0.008,-0.01903 0.0133,-0.0067 0.0218,0.01243 0.0963,-0.02398 0.16547,-0.08085 0.20069,-0.164969 0.5446,-0.374613 0.75489,-0.460167 l 0.19406,-0.07895 -0.26021,-0.27458 c -0.14312,-0.15102 -0.32605,-0.361283 -0.40651,-0.467257 -0.0805,-0.105973 -0.16354,-0.18202 -0.18462,-0.168989 -0.021,0.01303 -0.0275,0.0062 -0.0143,-0.01516 0.0132,-0.02135 -0.0401,-0.1439 -0.11845,-0.272288 -0.16825,-0.275662 -0.21483,-0.285132 -0.59289,-0.120553 -0.20669,0.08997 -0.28737,0.104301 -0.59636,0.105905 -0.32019,0.0016 -0.36576,-0.0066 -0.43823,-0.07885 -0.0466,-0.04645 -0.0809,-0.12642 -0.0809,-0.188441 0,-0.115123 0.0268,-0.174097 0.35845,-0.789969 0.11765,-0.218452 0.20618,-0.404909 0.19675,-0.414345 -0.009,-0.0094 -0.1396,3.81e-4 -0.28924,0.02193 -0.3724,0.05351 -0.60868,0.0174 -0.73904,-0.112976 -0.0929,-0.09292 -0.10298,-0.12769 -0.1024,-0.354088 0.002,-0.472884 0.15493,-0.963233 0.44288,-1.412627 0.12214,-0.190649 0.13325,-0.234947 0.051,-0.20339 -0.0327,0.01254 -0.0475,0.0063 -0.0347,-0.01444 0.0124,-0.01998 -0.0157,-0.03644 -0.0624,-0.03655 -0.14458,-3.81e-4 -0.36207,-0.07471 -0.43664,-0.149277 -0.11145,-0.111445 -0.0868,-0.23299 0.0918,-0.452236 0.0896,-0.110039 0.15168,-0.21135 0.1379,-0.225132 -0.0138,-0.0138 -0.007,-0.01953 0.0136,-0.01281 0.0521,0.0165 0.27935,-0.245081 0.24548,-0.282532 -0.0147,-0.01626 -0.008,-0.01915 0.0139,-0.0064 0.0497,0.02831 0.21023,-0.134361 0.17116,-0.173435 -0.0154,-0.01535 -0.0102,-0.02242 0.0114,-0.01565 0.0217,0.0067 0.11262,-0.06886 0.20225,-0.168005 0.0896,-0.09915 0.22668,-0.239803 0.30457,-0.312573 0.0779,-0.07277 0.16487,-0.177183 0.19328,-0.232027 0.047,-0.09056 0.0451,-0.103221 -0.0197,-0.137899 -0.0392,-0.02101 -0.12621,-0.03832 -0.19328,-0.03851 -0.47712,-0.0012 -0.6624,-0.09971 -0.5826,-0.309607 0.05,-0.131815 0.6007,-0.394669 1.05037,-0.501466 0.49113,-0.116643 0.58719,-0.183311 0.76488,-0.530832 0.0517,-0.101125 0.14315,-0.256481 0.20321,-0.345234 0.06,-0.08876 0.10179,-0.17977 0.0928,-0.202252 -0.009,-0.02249 -0.1129,-0.102494 -0.23084,-0.177795 -0.28627,-0.182802 -0.55818,-0.431341 -0.72713,-0.664651 -0.0762,-0.105225 -0.14736,-0.199593 -0.15815,-0.209704 -0.0227,-0.02132 -0.0268,-0.03504 -0.12372,-0.413927 -0.0578,-0.22587 -0.0643,-0.304154 -0.0315,-0.376203 0.0525,-0.115142 0.11396,-0.09478 0.35106,0.116275 0.16642,0.148152 0.24424,0.191443 0.24424,0.135897 0,-0.01273 -0.0417,-0.138473 -0.0925,-0.279451 -0.13445,-0.372694 -0.26671,-1.07741 -0.30834,-1.642771 -0.0311,-0.421397 -0.0279,-0.514652 0.0218,-0.643535 0.0895,-0.232268 0.0981,-0.510564 0.0287,-0.933538 -0.0696,-0.424251 -0.0623,-1.104675 0.0128,-1.195179 0.0234,-0.02823 0.0344,-0.05953 0.0243,-0.0696 -0.0101,-0.01007 0.0322,-0.01531 0.0938,-0.01163 0.1506,0.009 0.17439,0.03973 0.24347,0.315135 0.0326,0.130011 0.10488,0.327438 0.1606,0.438727 0.12484,0.24931 0.3941,0.610249 0.44504,0.596566 0.0207,-0.0056 0.0276,0.006 0.0155,0.02573 -0.0182,0.02937 0.0937,0.117122 0.16377,0.128483 0.0101,0.0016 0.0146,0.01428 0.01,0.02812 -0.0231,0.06916 0.76578,0.575681 1.24028,0.796395 0.4603,0.214101 1.52094,0.640232 1.60532,0.644959 0.0436,0.0022 0.0726,0.01512 0.0646,0.02816 -0.0126,0.02029 0.0696,0.06821 0.11692,0.06821 0.009,0 -0.0593,-0.112912 -0.15117,-0.250918 -0.12241,-0.18409 -0.16452,-0.281617 -0.15808,-0.366163 0.005,-0.06338 0.0157,-0.108326 0.0241,-0.09988 0.008,0.0084 0.0753,-0.01098 0.14858,-0.04313 0.0835,-0.03663 0.28436,-0.06511 0.53773,-0.07624 0.36414,-0.01595 0.43247,-0.0084 0.68472,0.07646 0.15412,0.05182 0.36394,0.14358 0.46627,0.203917 l 0.18607,0.109706 0.002,-0.341947 c 0.002,-0.188073 0.01,-0.364848 0.0191,-0.392834 0.01,-0.02796 0.0351,-0.12047 0.0569,-0.205518 0.0495,-0.193696 0.12262,-0.26826 0.26287,-0.26826 0.0888,0 0.17827,0.06655 0.46914,0.348805 l 0.35947,0.348809 0.0436,-0.284455 c 0.0579,-0.378204 0.16024,-0.706395 0.28648,-0.919228 0.0568,-0.09583 0.10058,-0.183892 0.0972,-0.195691 -0.003,-0.01178 0.0136,-0.02299 0.0377,-0.02489 0.0242,-0.0019 0.11012,-0.02796 0.19102,-0.05791 0.12907,-0.04778 0.1628,-0.04789 0.27529,-0.0012 0.0705,0.02945 0.16276,0.08599 0.20499,0.12566 0.0422,0.03968 0.0906,0.05957 0.10752,0.04421 0.017,-0.01535 0.0205,-0.01 0.008,0.01189 -0.0125,0.02189 0.0147,0.09637 0.0604,0.165479 0.096,0.145181 0.26462,0.519626 0.30166,0.669773 0.0139,0.05656 0.0309,0.09726 0.0378,0.09043 0.007,-0.0068 0.0398,-0.188554 0.0734,-0.403837 0.0674,-0.433017 0.14051,-0.566627 0.28519,-0.521503 0.15238,0.04752 0.15917,0.09185 0.0783,0.511434 -0.0312,0.1618 -0.0889,0.608594 -0.12836,0.992876 -0.0925,0.901322 -0.10324,0.96454 -0.19432,1.139971 l -0.0764,0.147094 -0.0428,-0.459668 c -0.0634,-0.682168 -0.25741,-1.292474 -0.59604,-1.875436 -0.20539,-0.353604 -0.33561,-0.348402 -0.50419,0.02013 -0.11816,0.258323 -0.17629,0.587955 -0.17804,1.009504 -0.002,0.377353 0.0672,0.637648 0.30277,1.145921 0.11178,0.241198 0.14326,0.412616 0.0826,0.45007 -0.017,0.01049 -0.1229,-0.133324 -0.23541,-0.319595 -0.11249,-0.186272 -0.22395,-0.334131 -0.24765,-0.328571 -0.0238,0.0056 -0.0327,-0.0067 -0.02,-0.02724 0.0279,-0.04502 -0.23088,-0.391641 -0.28158,-0.377278 -0.0196,0.0056 -0.0242,-0.0085 -0.0101,-0.03127 0.0141,-0.02275 -0.01,-0.07696 -0.0532,-0.120424 -0.0434,-0.04347 -0.12944,-0.145222 -0.19129,-0.22612 -0.0618,-0.0809 -0.19763,-0.236543 -0.30175,-0.345865 l -0.18932,-0.198768 -0.0278,0.125223 c -0.0152,0.06887 -0.0388,0.361029 -0.0525,0.649242 -0.0136,0.28821 -0.0354,0.52402 -0.0484,0.52402 -0.0131,0 -0.0395,-0.01429 -0.0586,-0.03177 -0.0677,-0.06156 -0.74094,-0.400076 -0.95662,-0.480979 -0.15766,-0.05915 -0.29388,-0.08116 -0.49049,-0.07928 -0.14972,0.0016 -0.27714,0.0076 -0.28315,0.01357 -0.0291,0.02903 0.36359,0.539575 0.39842,0.518049 0.0219,-0.01352 0.0291,-0.0075 0.0161,0.01357 -0.0129,0.0209 0.0189,0.08033 0.0706,0.132047 0.12703,0.127028 0.73977,0.440207 0.79695,0.407323 0.0251,-0.01441 0.0335,-0.01288 0.0188,0.0034 -0.0367,0.04062 0.51506,0.359285 0.56679,0.327316 0.0228,-0.01407 0.032,-0.0103 0.0204,0.0084 -0.0244,0.03967 0.52154,0.406201 0.57813,0.388061 0.021,-0.0067 0.0261,-6.9e-5 0.0111,0.01482 -0.0149,0.0149 0.0241,0.06485 0.0867,0.111012 0.23123,0.170592 0.88695,0.840229 1.06007,1.082556 0.5067,0.709268 0.87183,1.540153 0.99746,2.26974 0.0253,0.146634 0.0585,0.266607 0.0738,0.266607 0.0409,0 0.0806,-0.211427 0.0492,-0.262196 -0.0154,-0.02489 -0.0111,-0.03363 0.0102,-0.02052 0.0213,0.01314 0.0978,-0.144336 0.18034,-0.371243 0.23859,-0.655815 0.63114,-1.369978 1.07398,-1.953856 0.083,-0.10953 0.14092,-0.215511 0.12856,-0.235514 -0.0124,-0.01999 -0.005,-0.02569 0.0161,-0.01262 0.0212,0.01308 0.11058,-0.0603 0.19874,-0.163039 0.0881,-0.102744 0.20533,-0.229043 0.26038,-0.280668 0.055,-0.05161 0.0914,-0.107892 0.0808,-0.125044 -0.0106,-0.01714 0.003,-0.02268 0.03,-0.01228 0.0534,0.02048 0.2641,-0.176893 0.24312,-0.227712 -0.007,-0.01702 0.0148,-0.03101 0.0485,-0.03101 0.0337,-2.7e-5 0.0999,-0.03336 0.1471,-0.07408 0.0473,-0.04072 0.23911,-0.17431 0.4264,-0.296874 0.1873,-0.122563 0.33099,-0.232386 0.31931,-0.244054 -0.0117,-0.01167 5.1e-4,-0.01893 0.0272,-0.01615 0.0573,0.006 0.85182,-0.382046 0.86977,-0.424786 0.007,-0.01615 0.0248,-0.02166 0.0401,-0.01219 0.0241,0.01493 0.77032,-0.26367 0.92203,-0.344257 0.0311,-0.01649 0.0599,-0.0921 0.0661,-0.173094 0.0143,-0.188772 -0.08,-0.291093 -0.29842,-0.323848 -0.24823,-0.03724 -0.9076,0.136239 -0.9076,0.238769 0,0.02117 -0.0138,0.02994 -0.0306,0.01953 -0.0442,-0.02736 -0.30626,0.159103 -0.28099,0.200009 0.0117,0.01892 -0.002,0.02553 -0.0299,0.01475 -0.0282,-0.01079 -0.0724,0.006 -0.0983,0.0372 -0.0753,0.09072 -0.24761,0.07132 -0.3178,-0.0358 -0.0524,-0.08016 -0.0572,-0.161201 -0.0344,-0.602603 0.0189,-0.365244 0.0145,-0.517283 -0.0153,-0.535693 -0.0532,-0.03288 -0.15552,0.05013 -0.12421,0.100795 0.0139,0.02245 0.006,0.02724 -0.0195,0.01159 -0.0525,-0.03249 -0.34629,0.175362 -0.30785,0.217817 0.015,0.01649 0.009,0.01942 -0.0139,0.0066 -0.0508,-0.02895 -0.17189,0.09793 -0.13371,0.14002 0.0152,0.01676 0.009,0.01995 -0.0134,0.0071 -0.0508,-0.02895 -0.17188,0.09793 -0.1337,0.14002 0.0152,0.01676 0.007,0.01896 -0.017,0.0048 -0.10303,-0.05915 -0.46237,0.606203 -0.39034,0.722747 0.0128,0.02087 0.008,0.02835 -0.0111,0.0166 -0.019,-0.0117 -0.0733,0.03538 -0.12073,0.104639 -0.12134,0.17708 -0.16543,0.16119 -0.13523,-0.04875 0.0138,-0.09607 0.0343,-0.282232 0.0456,-0.413699 0.0324,-0.376725 -0.10183,-1.172892 -0.17845,-1.05854 -0.0195,0.02907 -0.023,0.0099 -0.009,-0.04977 0.0258,-0.111408 -0.2264,-0.743638 -0.28274,-0.708817 -0.0184,0.0114 -0.0292,0.0071 -0.0238,-0.0096 0.0138,-0.04322 -0.0849,-0.26934 -0.11755,-0.26934 -0.015,0 -0.0453,0.08688 -0.0675,0.193058 -0.0221,0.106183 -0.0818,0.375089 -0.13246,0.597565 -0.10353,0.454288 -0.3104,1.601912 -0.32459,1.800621 -0.0108,0.150667 -0.038,0.16183 -0.1175,0.04826 -0.14694,-0.209784 0.002,-1.773642 0.25251,-2.666073 0.10519,-0.373501 0.17576,-0.488248 0.30026,-0.488248 0.14651,0 0.22028,0.05704 0.40059,0.309735 0.22788,0.319342 0.39769,0.69983 0.52424,1.174638 0.0956,0.358719 0.111,0.390873 0.15887,0.331911 0.0439,-0.05402 0.0441,-0.05992 0.002,-0.03417 -0.0354,0.02128 -0.0432,0.01752 -0.0251,-0.01194 0.0146,-0.02368 0.039,-0.03541 0.0541,-0.02607 0.0151,0.0094 0.11741,-0.05351 0.2273,-0.139682 0.52963,-0.415337 0.77022,-0.532986 0.93574,-0.457575 0.14136,0.06441 0.18362,0.226458 0.18099,0.69419 l -0.002,0.425303 0.20003,-0.12045 c 0.42402,-0.255333 1.00339,-0.35471 1.39658,-0.239542 0.19782,0.05794 0.36714,0.231436 0.39599,0.405754 0.0361,0.218402 0.0455,0.2325 0.13564,0.205073 0.17557,-0.05339 0.87386,-0.366228 1.27806,-0.572566 0.4817,-0.245913 0.94256,-0.553357 0.92761,-0.618817 -0.005,-0.02432 0.005,-0.03466 0.0243,-0.02296 0.0339,0.02094 0.51897,-0.373831 0.51897,-0.42232 0,-0.01364 0.0495,-0.08084 0.10992,-0.149314 0.0604,-0.06847 0.10203,-0.146039 0.0924,-0.172372 -0.01,-0.02633 -0.004,-0.03941 0.0128,-0.02907 0.0405,0.02501 0.16765,-0.205912 0.28466,-0.516814 0.10999,-0.292249 0.14597,-0.343953 0.23933,-0.343953 0.19851,0 0.24523,0.545063 0.10751,1.254395 -0.0893,0.459723 -0.0912,0.55449 -0.0173,0.830696 0.0394,0.147202 0.0568,0.378367 0.0562,0.746453 -0.002,0.857781 -0.12386,1.41272 -0.45194,2.051633 l -0.17545,0.341677 0.13742,0.08116 c 0.0756,0.04464 0.15396,0.07567 0.17419,0.06896 0.0202,-0.0067 0.025,-3.79e-4 0.0106,0.01391 -0.0143,0.01436 -0.003,0.07095 0.0254,0.125758 0.0919,0.177771 -0.0402,0.356181 -0.52614,0.710233 l -0.30619,0.223107 0.34929,0.35221 c 0.19212,0.193715 0.4019,0.414212 0.46619,0.489988 0.0642,0.07578 0.13432,0.127005 0.15564,0.113835 0.0215,-0.0133 0.028,-0.0066 0.0145,0.01527 -0.0288,0.04665 0.24804,0.276323 0.28661,0.237758 0.0146,-0.01462 0.021,-0.0034 0.0143,0.02474 -0.0145,0.06101 0.33525,0.340267 0.38653,0.308576 0.0195,-0.01205 0.0249,-0.0048 0.012,0.01604 -0.0129,0.0209 0.0466,0.08347 0.13221,0.139096 0.22218,0.144322 0.32117,0.241924 0.32117,0.316667 0,0.03576 -0.091,0.163343 -0.20225,0.283498 -0.11124,0.12015 -0.20226,0.235988 -0.20226,0.257415 0,0.02143 0.0926,0.148148 0.20585,0.281597 0.17762,0.20936 0.21418,0.236373 0.2666,0.196926 0.0508,-0.03821 0.0534,-0.03739 0.0158,0.0048 -0.0364,0.04091 -0.015,0.08616 0.11261,0.23725 0.23336,0.276429 0.28172,0.357533 0.28172,0.472543 0,0.08425 -0.0246,0.114305 -0.12959,0.158156 -0.0712,0.02979 -0.22835,0.05554 -0.34908,0.05723 -0.15348,0.0022 -0.21222,0.01573 -0.19534,0.04511 0.0874,0.152092 0.17041,0.241673 0.20445,0.220637 0.0234,-0.01448 0.0289,-0.0073 0.0136,0.01763 -0.0143,0.02318 0.0217,0.112615 0.0801,0.198742 0.29994,0.442696 0.63164,1.174007 0.6406,1.41237 0.004,0.10562 -0.0172,0.153946 -0.0979,0.22335 -0.0872,0.07499 -0.12618,0.0847 -0.2544,0.06336 -0.15645,-0.02604 -0.37425,-0.122838 -0.5417,-0.240747 -0.0529,-0.0372 -0.108,-0.05574 -0.12258,-0.04116 -0.0145,0.01455 -0.0211,0.0099 -0.0145,-0.0103 0.0172,-0.05298 -0.35555,-0.390675 -0.39536,-0.35818 -0.0184,0.01497 -0.0209,0.01201 -0.006,-0.0066 0.0152,-0.01859 0.002,-0.06263 -0.0303,-0.09788 -0.0719,-0.07945 -0.0555,-0.252001 0.0289,-0.304876 0.0503,-0.03146 0.0843,-0.01908 0.16803,0.06116 0.0578,0.05534 0.11628,0.08934 0.13004,0.07558 0.0138,-0.01376 0.0251,-0.008 0.0251,0.01288 0,0.06154 0.28522,0.241645 0.33448,0.211206 0.0247,-0.01527 0.0351,-0.01219 0.0234,0.0069 -0.0233,0.03762 0.22008,0.220296 0.25153,0.188849 0.0106,-0.0106 -0.0262,-0.112038 -0.0817,-0.225368 -0.0705,-0.143736 -0.111,-0.192332 -0.13393,-0.160668 -0.0228,0.03135 -0.0266,0.02592 -0.0127,-0.01756 0.0386,-0.120434 -0.67775,-1.302952 -0.76055,-1.255519 -0.0238,0.01364 -0.0314,0.01166 -0.017,-0.0044 0.0145,-0.01603 -0.0243,-0.09967 -0.0862,-0.185823 -0.0969,-0.134917 -0.10647,-0.1679 -0.0691,-0.237824 0.0353,-0.06598 0.0652,-0.07724 0.1597,-0.06013 0.0639,0.01159 0.23045,0.03241 0.37003,0.04628 l 0.25379,0.02519 -0.15709,-0.208052 c -0.0864,-0.114427 -0.17163,-0.208055 -0.18943,-0.208055 -0.0178,0 -0.0323,-0.02227 -0.0323,-0.04946 0,-0.02721 -0.0337,-0.07989 -0.0747,-0.117073 -0.10055,-0.09099 -0.29302,-0.432075 -0.29302,-0.519263 0,-0.03854 0.0287,-0.110996 0.0637,-0.161002 0.035,-0.05001 0.064,-0.0992 0.0643,-0.10931 3.6e-4,-0.0101 0.0111,-0.0149 0.0239,-0.01064 0.0128,0.0042 0.0527,-0.02489 0.0888,-0.06474 0.0633,-0.06986 0.0624,-0.0758 -0.0214,-0.165107 -0.0479,-0.05095 -0.10797,-0.08459 -0.13357,-0.07476 -0.0256,0.0098 -0.0579,-3.8e-4 -0.0718,-0.02299 -0.0166,-0.0269 -0.007,-0.03059 0.0264,-0.01083 0.0284,0.01653 -0.0311,-0.04212 -0.13221,-0.130307 -0.2476,-0.215922 -0.62004,-0.590251 -0.87678,-0.881237 l -0.21088,-0.239025 0.13274,0.220637 c 0.19567,0.325262 0.43545,0.837646 0.56789,1.213521 0.20072,0.569693 0.26436,0.954452 0.29124,1.761144 l 0.0244,0.73149 0.15521,0.133682 c 0.16499,0.142087 0.19096,0.221715 0.0976,0.299171 -0.0316,0.02629 -0.0794,0.09037 -0.10605,0.142402 -0.0519,0.101345 -0.12041,0.737452 -0.0746,0.693473 0.0461,-0.04436 0.1465,0.0326 0.25926,0.198762 0.0592,0.08716 0.12142,0.168606 0.13838,0.180981 0.0169,0.01239 0.0292,0.03313 0.0274,0.04615 -0.002,0.01299 0.0579,0.143541 0.13294,0.290075 0.0751,0.146529 0.13783,0.274693 0.13953,0.284804 0.002,0.0101 0.0341,0.130901 0.0722,0.268416 0.0644,0.2332 0.065,0.258442 0.009,0.374975 -0.0707,0.148315 -0.18876,0.18134 -0.57094,0.159745 -0.18985,-0.01071 -0.31033,-0.04364 -0.49807,-0.136064 -0.1362,-0.06705 -0.27066,-0.11308 -0.2988,-0.10228 -0.0281,0.01079 -0.0805,0.06603 -0.11656,0.122731 -0.1202,0.189486 -0.35629,0.506353 -0.46487,0.623946 -0.0656,0.07105 -0.0964,0.134096 -0.0792,0.161968 0.0165,0.02652 0.0131,0.03629 -0.007,0.02333 -0.0467,-0.02885 -0.50135,0.428716 -0.46356,0.466501 0.0157,0.01573 0.012,0.02527 -0.008,0.02121 -0.13056,-0.02633 -0.0714,0.02337 0.20224,0.169874 0.55702,0.298234 0.96464,0.650923 1.34376,1.162634 0.0854,0.115294 0.16554,0.202174 0.17803,0.193058 0.0125,-0.0091 0.0149,-0.006 0.005,0.0071 -0.01,0.01299 0.0416,0.131314 0.11399,0.262925 0.18437,0.335511 0.43851,0.981755 0.55068,1.400283 0.11,0.410358 0.15945,1.141509 0.0936,1.38373 -0.022,0.0809 -0.0363,0.155754 -0.0318,0.16634 0.005,0.0106 -0.0296,0.05965 -0.0756,0.109029 -0.046,0.04938 -0.0756,0.110518 -0.0659,0.135859 0.01,0.02535 -5.1e-4,0.05744 -0.0231,0.07133 -0.0253,0.01558 -0.0304,0.0084 -0.0137,-0.0187 0.0195,-0.03169 5.1e-4,-0.03732 -0.0673,-0.02022 -0.10513,0.02638 -0.39961,-0.120649 -0.50467,-0.251966 -0.0559,-0.06992 -0.0609,-0.0387 -0.0786,0.491978 -0.0197,0.59109 -0.0884,0.934458 -0.25046,1.252184 -0.15389,0.301646 -0.38977,0.246244 -0.67994,-0.159703 -0.0969,-0.135517 -0.18956,-0.238082 -0.206,-0.227921 -0.0164,0.01014 -0.0207,-0.0056 -0.009,-0.03488 0.0112,-0.02934 0.002,-0.06427 -0.0189,-0.07763 -0.0223,-0.01379 -0.0394,0.0045 -0.0395,0.04225 -0.002,0.440407 -0.15145,1.032402 -0.34176,1.352351 -0.0606,0.101809 -0.11041,0.205062 -0.11079,0.229452 -3.8e-4,0.0244 -0.0126,0.03698 -0.0272,0.02792 -0.0322,-0.01988 -0.24088,0.24611 -0.22676,0.288987 0.005,0.01668 -0.004,0.02173 -0.0208,0.01129 -0.017,-0.01049 -0.0794,0.01303 -0.1388,0.05219 -0.0594,0.03917 -0.13476,0.07131 -0.16743,0.07145 -0.11574,3.8e-4 -0.25081,-0.151192 -0.33135,-0.372086 -0.0621,-0.170365 -0.0886,-0.208486 -0.11372,-0.163625 -0.0179,0.03214 -0.021,0.07746 -0.007,0.10065 0.0158,0.02553 0.01,0.03214 -0.0151,0.01672 -0.0516,-0.03192 -0.24018,0.258194 -0.20489,0.315295 0.0145,0.02337 0.009,0.03089 -0.0128,0.01744 -0.052,-0.03211 -0.13328,0.07166 -0.0993,0.12669 0.0162,0.02622 0.0117,0.03446 -0.0111,0.02037 -0.021,-0.01303 -0.0855,0.03818 -0.14321,0.113832 -0.0576,0.07565 -0.1581,0.194029 -0.22318,0.263072 -0.0651,0.06905 -0.1082,0.141927 -0.0958,0.161968 0.0124,0.02002 0.005,0.02561 -0.0163,0.01243 -0.0492,-0.0304 -0.48732,0.336824 -0.48732,0.408459 0,0.02929 0.0265,0.154934 0.0589,0.279203 0.0941,0.361428 0.0595,0.825592 -0.0845,1.133231 -0.0632,0.134947 -0.10394,0.25757 -0.0906,0.2725 0.0134,0.01493 0.006,0.01687 -0.0159,0.0042 -0.0221,-0.01258 -0.096,0.03473 -0.16419,0.105134 -0.15394,0.158836 -0.3484,0.217498 -0.54525,0.164494 -0.0786,-0.02116 -0.16331,-0.06316 -0.18836,-0.09335 -0.0705,-0.08492 -0.1341,-0.0658 -0.2151,0.06461 -0.22024,0.354582 -0.57901,0.550129 -0.78705,0.428978 z m 0.31058,-0.51944 c 0.30358,-0.340035 0.4034,-0.878688 0.24972,-1.347468 -0.046,-0.140271 -0.0734,-0.281617 -0.0609,-0.314098 0.0387,-0.100696 0.19726,-0.07161 0.26866,0.04926 0.0352,0.05958 0.0801,0.09839 0.0997,0.08625 0.0197,-0.01213 0.025,-0.0047 0.0119,0.01646 -0.0131,0.02121 -5.1e-4,0.104492 0.0279,0.185098 0.0284,0.08061 0.0627,0.243709 0.0762,0.362454 0.0375,0.33074 0.0848,0.44285 0.23791,0.564122 0.0774,0.06129 0.15645,0.111442 0.17569,0.111442 0.0624,0 0.16487,-0.140867 0.13622,-0.18723 -0.0169,-0.02728 -0.0123,-0.0353 0.0117,-0.02048 0.0234,0.01441 0.0668,-0.04697 0.10681,-0.150602 0.099,-0.256598 0.093,-0.778987 -0.0117,-1.00681 -0.13747,-0.29937 -0.49605,-0.630453 -0.60793,-0.561303 -0.0248,0.01535 -0.0312,0.009 -0.0159,-0.01581 0.0314,-0.05082 -0.12521,-0.09604 -0.31969,-0.09231 -0.13326,0.0027 -0.39321,0.110985 -0.39321,0.164015 0,0.04185 -0.15547,-0.0111 -0.34935,-0.118984 -0.10113,-0.05627 -0.26662,-0.112673 -0.36773,-0.125341 -0.15644,-0.01961 -0.21404,-0.0076 -0.38612,0.08061 -0.11124,0.057 -0.19812,0.124323 -0.19306,0.149607 0.005,0.02527 -0.01,0.04183 -0.0333,0.03678 -0.0532,-0.01151 -0.22006,0.233921 -0.30169,0.443709 -0.0863,0.221656 -0.11545,0.643163 -0.0623,0.899012 0.0242,0.116569 0.0592,0.202586 0.0777,0.191151 0.0185,-0.01144 0.0238,0.005 0.0116,0.03655 -0.0241,0.0628 0.0536,0.20284 0.19997,0.360164 0.0698,0.07506 0.12902,0.101128 0.22977,0.101128 0.20237,0 0.22993,-0.05864 0.23865,-0.507896 0.007,-0.372185 0.0432,-0.595722 0.13288,-0.825136 0.0391,-0.09982 0.14927,-0.134385 0.23284,-0.07299 0.0217,0.01592 0.0367,0.253411 0.0367,0.578615 0,0.53806 0.0488,0.821614 0.13257,0.769864 0.0176,-0.01091 0.0223,0.0059 0.0101,0.03724 -0.0121,0.03146 -0.002,0.05707 0.021,0.05707 0.0236,0 0.0333,0.01543 0.0217,0.03427 -0.0248,0.04001 0.11914,0.149607 0.19639,0.149607 0.0292,0 0.10032,-0.05312 0.15829,-0.118042 z m -6.59415,-0.0423 c 0.17275,-0.18389 0.22547,-0.42071 0.22547,-1.012872 0,-0.471489 0.008,-0.550446 0.0599,-0.570225 0.0329,-0.01262 0.0825,-0.0042 0.1102,0.01884 0.091,0.07554 0.20235,0.518361 0.22095,0.878787 0.01,0.192142 0.0253,0.385211 0.0341,0.42905 0.0193,0.09582 0.22827,0.232869 0.355,0.232869 0.0915,0 0.20953,-0.09805 0.22857,-0.189833 0.005,-0.02706 0.0396,-0.115385 0.0754,-0.196287 0.17823,-0.402185 0.15766,-0.876598 -0.0584,-1.345181 -0.26697,-0.579192 -0.69709,-0.722845 -1.31355,-0.438701 l -0.26841,0.123719 -0.19442,-0.09844 c -0.12348,-0.06253 -0.25366,-0.09844 -0.35679,-0.09844 -0.17427,0 -0.42527,0.112653 -0.40855,0.183368 0.005,0.02352 -0.005,0.03318 -0.0243,0.02146 -0.0503,-0.03108 -0.24953,0.256264 -0.34116,0.492085 -0.11376,0.292803 -0.11376,0.821432 -3e-5,1.10993 0.15693,0.398035 0.36791,0.506422 0.57172,0.293696 0.098,-0.102325 0.10175,-0.120933 0.11205,-0.56079 0.0111,-0.474656 0.057,-0.670271 0.20656,-0.880279 0.0819,-0.114961 0.23283,-0.146917 0.26748,-0.05662 0.0108,0.0282 -0.0137,0.156446 -0.0545,0.284995 -0.0971,0.306004 -0.0762,0.727473 0.0512,1.034233 0.0485,0.116678 0.10215,0.199419 0.11926,0.183867 0.0171,-0.01555 0.0188,-0.0069 0.003,0.0193 -0.032,0.05536 0.0448,0.163731 0.0943,0.13315 0.0185,-0.0114 0.0312,-0.0071 0.0283,0.0096 -0.0204,0.117784 0.14494,0.116932 0.25602,-0.0012 z m 4.13771,-1.236164 c 0.11909,-0.01949 0.24538,-0.06156 0.28064,-0.09348 0.0352,-0.03192 0.0924,-0.160653 0.12708,-0.286093 0.0347,-0.12544 0.11066,-0.317164 0.16896,-0.426051 0.0584,-0.108892 0.0956,-0.214873 0.0828,-0.235517 -0.0128,-0.02063 -0.006,-0.02709 0.0143,-0.01432 0.035,0.02162 0.169,-0.09122 0.14859,-0.125139 -0.005,-0.0085 -0.003,-0.01239 0.003,-0.0086 0.007,0.0037 0.0805,-0.04223 0.16313,-0.10209 0.19918,-0.144287 0.507,-0.231767 0.72188,-0.205152 0.0927,0.01147 0.27192,0.06186 0.39829,0.111953 0.22977,0.09108 0.22977,0.09108 0.43117,0.02029 0.27836,-0.09783 0.4994,-0.09053 0.75688,0.02504 0.25097,0.112627 0.26824,0.105906 0.53712,-0.209112 0.2716,-0.318172 0.45566,-0.609926 0.43162,-0.68414 -0.0155,-0.04788 -0.0119,-0.05322 0.0128,-0.01889 0.0249,0.03466 0.0602,-0.01098 0.12803,-0.165479 0.24893,-0.566972 0.35923,-1.106882 0.3593,-1.758766 7e-5,-0.71795 -0.0376,-0.940427 -0.42574,-2.518004 -0.15138,-0.615173 -0.20143,-1.236415 -0.12803,-1.58932 0.0581,-0.279462 0.22703,-0.609637 0.4239,-0.828603 l 0.16029,-0.178287 -0.28179,0.03223 c -0.15499,0.01771 -0.56311,0.02382 -0.90694,0.0136 -0.72319,-0.02151 -1.13086,-0.09573 -1.61875,-0.294639 -0.1773,-0.07229 -0.33911,-0.121081 -0.35956,-0.108436 -0.0212,0.01308 -0.0259,0.0047 -0.011,-0.01945 0.0145,-0.02337 0.009,-0.04245 -0.0115,-0.04245 -0.0662,0 -0.28911,-0.21846 -0.31073,-0.304624 -0.0135,-0.05351 -0.0903,-0.118449 -0.21535,-0.182 -0.36172,-0.183802 -0.45991,-0.257971 -0.94511,-0.713962 l -0.24058,-0.226097 -0.0761,0.134164 c -0.0418,0.07379 -0.15583,0.283095 -0.2533,0.465118 -0.35036,0.654365 -0.46989,0.864176 -0.50448,0.88555 -0.0554,0.0342 -0.14798,-0.06249 -0.22388,-0.233693 -0.0416,-0.09401 -0.0859,-0.147133 -0.11003,-0.132215 -0.0233,0.01436 -0.0299,0.0081 -0.0158,-0.01475 0.0309,-0.05012 -0.05,-0.233412 -0.0917,-0.207626 -0.017,0.01052 -0.02,-0.0093 -0.007,-0.04396 0.0177,-0.0462 0.0111,-0.05504 -0.0244,-0.03302 -0.0326,0.02017 -0.0399,0.01592 -0.0221,-0.01288 0.015,-0.02416 -0.10319,-0.275753 -0.27011,-0.575137 -0.16317,-0.29269 -0.29668,-0.540856 -0.29668,-0.551481 0,-0.07207 -0.16212,-0.344523 -0.19347,-0.325144 -0.0224,0.01387 -0.0276,0.0061 -0.0124,-0.01847 0.0251,-0.04049 -0.14047,-0.226485 -0.20153,-0.226485 -0.0554,0 -0.0744,-0.144864 -0.0301,-0.228445 0.0782,-0.147377 0.44749,-0.633804 0.52114,-0.686401 0.0573,-0.041 0.0614,-0.05733 0.0212,-0.08554 -0.0401,-0.02812 -0.0391,-0.03192 0.005,-0.01976 0.0303,0.0083 0.14618,-0.04624 0.25742,-0.121245 0.11124,-0.075 0.26758,-0.15737 0.34743,-0.183049 0.31918,-0.102649 0.69858,-0.02925 0.98045,0.189695 0.073,0.05671 0.146,0.09115 0.16218,0.07652 0.0162,-0.01462 0.019,-0.0084 0.007,0.01376 -0.0125,0.02219 0.0258,0.08704 0.0854,0.144112 0.0596,0.05707 0.15233,0.167272 0.20611,0.244879 0.0825,0.119022 0.10705,0.13415 0.15697,0.09668 0.048,-0.0361 0.0512,-0.03541 0.0167,0.0037 -0.0323,0.03652 -0.03,0.07774 0.009,0.171719 0.099,0.236991 0.0677,0.349614 -0.17555,0.632937 -0.16956,0.19742 -0.14493,0.31458 0.11934,0.567607 0.27293,0.261329 0.75628,0.592974 0.81307,0.55788 0.0236,-0.01459 0.0316,-0.0094 0.0184,0.01197 -0.0132,0.02146 0.0991,0.0931 0.26093,0.16633 0.61341,0.277638 1.05473,0.368629 1.79192,0.36948 0.63077,7.36e-4 1.07113,-0.06465 1.57981,-0.234548 0.48811,-0.163024 1.25173,-0.592302 1.25173,-0.703672 0,-0.02189 0.0311,-0.04436 0.0692,-0.04995 0.0933,-0.01372 0.31985,-0.237432 0.29124,-0.287677 -0.0125,-0.02207 -0.009,-0.02771 0.007,-0.01246 0.0408,0.03708 0.1697,-0.0825 0.14022,-0.130189 -0.0128,-0.02063 -0.005,-0.0266 0.0162,-0.01318 0.0217,0.01338 0.11602,-0.06266 0.20969,-0.16899 0.41087,-0.466372 0.79032,-1.187347 0.96425,-1.832141 0.097,-0.359551 0.10347,-0.428871 0.10288,-1.100795 -5.1e-4,-0.645381 -0.0102,-0.757522 -0.0971,-1.121584 -0.10415,-0.436512 -0.29043,-0.944249 -0.49833,-1.358255 -0.19505,-0.388441 -0.7185,-1.19619 -0.75894,-1.171191 -0.0198,0.01224 -0.0234,0.0027 -0.008,-0.02223 0.015,-0.02424 0.002,-0.08413 -0.0311,-0.133092 -0.11026,-0.168276 -0.0629,-0.239853 0.19033,-0.287857 0.16182,-0.03066 0.48681,-0.172725 0.48681,-0.21279 0,-0.01775 0.0175,-0.03226 0.0389,-0.03226 0.0537,0 0.3288,-0.224688 0.3288,-0.268541 0,-0.01958 -0.0429,-0.07536 -0.0953,-0.12395 -0.0671,-0.06214 -0.11888,-0.08123 -0.17467,-0.06434 -0.0436,0.01322 -0.0876,0.02409 -0.0977,0.02412 -0.0744,3.8e-4 -0.10539,-0.0163 -0.12511,-0.06766 -0.0152,-0.03959 0.0442,-0.131321 0.18025,-0.278234 0.22415,-0.242122 0.32911,-0.415253 0.29004,-0.478471 -0.0145,-0.02356 -0.009,-0.03124 0.0125,-0.01782 0.0374,0.02314 0.14466,-0.193525 0.22446,-0.453487 0.12994,-0.423263 0.22339,-1.408729 0.16384,-1.727702 l -0.0308,-0.16484 -0.0844,0.136589 c -0.0464,0.07512 -0.0724,0.155994 -0.0578,0.179716 0.0155,0.02504 0.0108,0.03332 -0.0111,0.01979 -0.0207,-0.01283 -0.0958,0.06322 -0.16663,0.168993 -0.0709,0.105773 -0.18779,0.265958 -0.25975,0.355969 -0.072,0.09001 -0.121,0.181024 -0.10895,0.202253 0.012,0.02124 0.007,0.02584 -0.009,0.01026 -0.0418,-0.03805 -0.31472,0.231698 -0.28579,0.282525 0.0125,0.022 0.01,0.0285 -0.005,0.01448 -0.0342,-0.03078 -0.48416,0.337128 -0.46978,0.384124 0.005,0.01816 -0.005,0.02372 -0.0233,0.01239 -0.0184,-0.01136 -0.0734,0.01091 -0.12239,0.04943 -0.049,0.03852 -0.22456,0.151495 -0.39018,0.251054 -0.16561,0.09956 -0.28884,0.194582 -0.27383,0.211157 0.015,0.01657 0.007,0.01889 -0.0162,0.0052 -0.024,-0.01376 -0.17292,0.03972 -0.33096,0.118817 -0.31222,0.156256 -0.70378,0.30728 -1.5237,0.587692 -0.7675,0.262485 -1.21277,0.447723 -1.18484,0.492906 0.0145,0.02333 0.006,0.02766 -0.021,0.01095 -0.0952,-0.05882 -1.45583,0.702892 -1.45583,0.814995 0,0.02257 -0.015,0.05481 -0.0334,0.07166 -0.0195,0.01782 -0.0224,0.0114 -0.007,-0.01531 0.10906,-0.189502 -0.34517,0.198547 -0.76222,0.651191 -0.1652,0.179295 -0.20315,0.240662 -0.16548,0.267648 0.0367,0.02626 0.033,0.02991 -0.0145,0.01471 -0.0723,-0.02318 -0.18066,0.1047 -0.15201,0.17936 0.01,0.02598 5.1e-4,0.05803 -0.0208,0.07123 -0.0236,0.01462 -0.0303,0.0015 -0.017,-0.03306 0.012,-0.03139 0.0136,-0.05707 0.003,-0.05707 -0.0287,0 -0.43591,0.61184 -0.62771,0.943132 -0.22117,0.382061 -0.28279,0.381993 -0.39292,-3.8e-4 -0.11697,-0.406239 -0.19981,-0.589255 -0.41474,-0.916302 -0.4508,-0.685967 -1.16754,-1.258669 -2.2683,-1.812437 -0.66603,-0.335065 -2.11612,-0.862273 -2.21078,-0.80377 -0.0257,0.01588 -0.0341,0.0114 -0.0204,-0.01087 0.0138,-0.0223 -0.0937,-0.07919 -0.26092,-0.138153 -0.1564,-0.05514 -0.47737,-0.196509 -0.71327,-0.314163 -0.23591,-0.117653 -0.43861,-0.206973 -0.45047,-0.198483 -0.0118,0.0085 -0.0147,0.0057 -0.006,-0.006 0.008,-0.01178 -0.11982,-0.112809 -0.28499,-0.224475 -0.16516,-0.111668 -0.34259,-0.242676 -0.39426,-0.291128 -0.0517,-0.04845 -0.10959,-0.08784 -0.12871,-0.08754 -0.0191,2.81e-4 -0.01,0.01813 0.0204,0.03958 0.049,0.03469 0.049,0.03735 0,0.02394 -0.0303,-0.0083 -0.0552,-0.03268 -0.0552,-0.05422 0,-0.05384 -0.64709,-0.692621 -0.68891,-0.680059 -0.0185,0.0056 -0.0244,-0.0047 -0.0134,-0.02265 0.0293,-0.04747 -0.23719,-0.376817 -0.28233,-0.348907 -0.0211,0.01308 -0.027,0.0057 -0.0132,-0.01657 0.0246,-0.03979 -0.3382,-0.594548 -0.38962,-0.595802 -0.0523,-0.0012 -0.0834,0.205712 -0.08,0.532561 0.004,0.402299 0.15455,1.183176 0.32331,1.679266 0.12908,0.379443 0.12458,0.447623 -0.0321,0.486951 -0.0508,0.01277 -0.0924,0.04867 -0.0924,0.07981 0,0.08077 0.22388,0.348833 0.26838,0.321333 0.0204,-0.01265 0.0269,-0.0062 0.0141,0.01428 -0.0262,0.04237 0.21146,0.23848 0.56327,0.464836 0.26704,0.171813 0.31041,0.266406 0.11807,0.257534 -0.14383,-0.0067 -0.46424,-0.191291 -0.7062,-0.407011 -0.0957,-0.08535 -0.18598,-0.143269 -0.20054,-0.128708 -0.0145,0.01456 -0.021,0.0016 -0.0142,-0.02869 0.007,-0.03032 -0.008,-0.05102 -0.0337,-0.04597 -0.0253,0.0051 -0.0419,-0.0034 -0.0368,-0.01911 0.009,-0.02895 -5e-4,-0.04289 -0.19635,-0.265863 -0.0882,-0.10057 -0.10316,-0.108607 -0.0686,-0.03678 0.095,0.197394 0.33579,0.483437 0.38962,0.462785 0.0296,-0.01136 0.0453,-0.0068 0.0348,0.01007 -0.0307,0.04959 0.18716,0.237524 0.2385,0.205792 0.0281,-0.01732 0.0361,-0.01292 0.021,0.01147 -0.0143,0.02314 0.10528,0.120895 0.28807,0.235517 0.17187,0.107778 0.32136,0.222597 0.33217,0.255151 0.0115,0.03442 -0.0711,0.20356 -0.19733,0.404507 -0.49065,0.78075 -0.77878,1.469792 -0.9671,2.312686 -0.0767,0.343495 -0.0861,0.477451 -0.0853,1.213519 0.002,0.917058 0.0444,1.212629 0.24132,1.648655 0.14534,0.321777 0.53007,0.868504 0.96857,1.376415 0.3358,0.388958 1.14796,1.018335 1.24039,0.96122 0.0254,-0.0157 0.0323,-0.01 0.0173,0.01436 -0.0551,0.08911 0.79576,0.411776 1.33277,0.505422 0.58596,0.102182 1.57671,0.0463 2.25504,-0.127179 0.46578,-0.119132 1.01907,-0.36698 1.17277,-0.525361 0.14164,-0.145948 0.16852,-0.1577 0.24694,-0.10796 0.0382,0.02424 0.0388,0.04999 0.003,0.128141 -0.0244,0.05378 -0.0569,0.09779 -0.0721,0.09779 -0.0152,0 -0.14455,0.114055 -0.28758,0.25346 -0.17436,0.169905 -0.38769,0.325375 -0.64719,0.47163 -0.21291,0.119999 -0.37456,0.231995 -0.35923,0.248877 0.0153,0.01687 0.009,0.01995 -0.0139,0.0068 -0.023,-0.01315 -0.14709,0.02372 -0.2758,0.08187 -0.67268,0.303949 -1.31479,0.424255 -2.11825,0.39687 l -0.5604,-0.01911 0.10992,0.159774 c 0.0604,0.08788 0.10994,0.178456 0.10994,0.201285 0,0.02284 0.0191,0.02971 0.0425,0.01527 0.0234,-0.01444 0.0327,-0.01049 0.0209,0.0087 -0.0119,0.01924 0.0113,0.13348 0.0516,0.253901 0.0402,0.120421 0.0826,0.359604 0.0942,0.53152 0.0309,0.45971 -0.007,0.710306 -0.37823,2.500583 -0.29859,1.43988 -0.26466,2.109934 0.15181,2.997843 0.14827,0.316112 0.45412,0.760122 0.50285,0.730005 0.0229,-0.01414 0.0303,-0.0084 0.017,0.01303 -0.0331,0.05353 0.11891,0.236791 0.17143,0.206711 0.0237,-0.01357 0.0307,-0.0111 0.0158,0.0055 -0.0373,0.04117 0.0446,0.133778 0.0923,0.104322 0.021,-0.01303 0.0279,-0.0067 0.0151,0.01387 -0.0128,0.02063 0.009,0.06661 0.0481,0.102143 0.0674,0.06104 0.0879,0.06127 0.37154,0.0042 0.3132,-0.06311 0.45256,-0.05527 0.73656,0.04146 0.16151,0.055 0.17795,0.05405 0.33096,-0.01915 0.27513,-0.131648 0.4781,-0.166641 0.69959,-0.12061 0.26192,0.05443 0.53549,0.187715 0.69333,0.337782 0.0707,0.06731 0.14524,0.117347 0.16548,0.111198 0.0202,-0.0062 0.0249,7.36e-4 0.0104,0.01512 -0.0146,0.01448 0.0126,0.09445 0.0602,0.177737 0.0476,0.08329 0.12258,0.262496 0.16671,0.398222 0.13629,0.419174 0.25348,0.453969 1.56452,0.464539 0.36406,0.0031 0.75935,-0.0106 0.87844,-0.03013 z m -1.08465,-1.521333 c -0.20359,-0.08403 -0.35849,-0.178984 -0.55784,-0.34197 -0.10618,-0.08681 -0.2296,-0.07919 -0.19459,0.01201 0.0111,0.02881 0.004,0.04229 -0.0161,0.02998 -0.0199,-0.01228 -0.0909,0.01945 -0.15784,0.0705 -0.28497,0.217358 -0.52921,0.256128 -0.73477,0.116633 -0.072,-0.04884 -0.13881,-0.08083 -0.14855,-0.0711 -0.01,0.0097 -0.0152,-0.01235 -0.0121,-0.0491 0.003,-0.03674 -0.0125,-0.06358 -0.0343,-0.05965 -0.0219,0.0039 -0.0399,-0.01284 -0.0399,-0.03732 0,-0.02443 -0.0642,-0.143501 -0.14269,-0.264563 -0.0785,-0.121058 -0.14599,-0.225569 -0.15003,-0.232242 -0.004,-0.0067 -0.05,0.01581 -0.10215,0.04999 -0.0521,0.03416 -0.0841,0.07941 -0.0711,0.100552 0.0131,0.02112 0.007,0.02781 -0.0143,0.01485 -0.021,-0.01296 -0.082,0.01095 -0.13566,0.05315 -0.0536,0.04219 -0.16398,0.08563 -0.2452,0.09652 -0.13945,0.0187 -0.15774,0.0094 -0.32825,-0.167538 -0.0993,-0.10304 -0.22287,-0.27081 -0.27457,-0.372824 -0.0517,-0.102011 -0.11684,-0.185477 -0.14477,-0.185477 -0.0279,0 -0.12281,0.04117 -0.21084,0.09149 -0.17394,0.09944 -0.32224,0.117708 -0.3917,0.04825 -0.0866,-0.08656 -0.041,-0.174597 0.17708,-0.342429 0.12166,-0.09362 0.21182,-0.185411 0.20034,-0.203981 -0.0115,-0.01865 0.007,-0.02291 0.0422,-0.0095 0.0474,0.01821 0.0555,0.01125 0.0328,-0.02801 -0.0166,-0.02873 -0.0165,-0.03975 2.1e-4,-0.02451 0.0168,0.01524 0.0651,0.0051 0.10721,-0.02254 0.12442,-0.08152 0.22135,-0.01611 0.31386,0.211829 0.048,0.118589 0.0994,0.195136 0.12159,0.181438 0.021,-0.01303 0.0279,-0.0068 0.0152,0.0138 -0.0303,0.04904 0.19227,0.38482 0.23684,0.357272 0.0189,-0.01163 0.0318,-0.0075 0.0289,0.0092 -0.0148,0.08535 0.0115,0.122248 0.0872,0.122248 0.10731,0 0.25596,-0.10317 0.22375,-0.155291 -0.0142,-0.02306 -0.007,-0.02941 0.0156,-0.01505 0.0221,0.01367 0.10603,-0.04352 0.18638,-0.127147 0.0804,-0.08362 0.16466,-0.145855 0.18732,-0.138298 0.0227,0.0076 0.11381,0.145936 0.20252,0.307497 0.0887,0.161565 0.18036,0.289209 0.20368,0.28365 0.0234,-0.0056 0.0326,0.0059 0.0205,0.02539 -0.0411,0.06643 0.19991,0.297299 0.31029,0.297299 0.11987,0 0.46465,-0.222229 0.44991,-0.289988 -0.005,-0.02553 0.005,-0.03732 0.0228,-0.02618 0.018,0.01113 0.0608,-0.01071 0.0951,-0.04861 0.0474,-0.05238 0.051,-0.07265 0.0148,-0.0847 -0.0262,-0.0087 0.0197,-0.01847 0.10188,-0.0217 0.12105,-0.0047 0.16599,0.01322 0.23688,0.09476 0.0481,0.05535 0.0881,0.108892 0.0889,0.119007 5e-4,0.0101 0.0139,0.01425 0.029,0.0092 0.0152,-0.0051 0.0234,0.0057 0.0184,0.02368 -0.0161,0.05719 0.2022,0.219714 0.4061,0.302474 0.19645,0.07974 0.19653,0.07974 0.29511,0.0068 0.12299,-0.09094 0.26405,-0.338519 0.27453,-0.481857 0.005,-0.05955 0.0244,-0.103518 0.0446,-0.0977 0.0202,0.0058 0.0815,0.02037 0.13632,0.03234 0.0652,0.01425 0.11952,0.06384 0.15733,0.14353 0.0318,0.06698 0.13099,0.193621 0.22048,0.281442 0.14545,0.14274 0.16948,0.15417 0.22666,0.10776 0.0556,-0.04517 0.0603,-0.04476 0.0352,0.0034 -0.0158,0.03033 0.0313,-0.0074 0.10476,-0.08383 0.0734,-0.07644 0.1233,-0.155459 0.11086,-0.175586 -0.0125,-0.02014 -5.1e-4,-0.03204 0.0261,-0.02649 0.0269,0.0057 0.0464,-0.01847 0.0436,-0.05386 -0.002,-0.03519 0.007,-0.05604 0.0234,-0.04638 0.0449,0.02778 0.11336,-0.07574 0.16338,-0.247046 0.0326,-0.11135 0.0765,-0.172413 0.15009,-0.208554 0.11522,-0.05656 0.1488,-0.03146 0.2809,0.209956 0.0797,0.145735 0.25499,0.238075 0.36931,0.194608 0.11156,-0.04241 0.44639,-0.468681 0.41194,-0.524429 -0.0165,-0.02679 -0.0102,-0.03272 0.017,-0.01589 0.0283,0.01752 0.0738,-0.04221 0.13174,-0.173233 0.0486,-0.109991 0.11566,-0.210431 0.14892,-0.223195 0.0678,-0.02599 0.20224,0.03313 0.20224,0.08893 0,0.07341 0.1894,0.319597 0.27637,0.359221 0.10202,0.04649 0.0752,0.07462 0.41625,-0.434848 0.16458,-0.245781 0.23027,-0.31501 0.30747,-0.32397 0.069,-0.008 0.11021,0.0111 0.1387,0.06434 0.0349,0.0652 0.008,0.120957 -0.19058,0.400628 -0.12712,0.178687 -0.28457,0.40209 -0.34989,0.496447 -0.0668,0.0966 -0.14764,0.171562 -0.18487,0.171562 -0.0826,0 -0.22119,-0.0953 -0.33529,-0.230554 -0.048,-0.05692 -0.096,-0.09479 -0.10668,-0.08414 -0.0106,0.01064 -0.0414,-0.0094 -0.0682,-0.04442 -0.0419,-0.05461 -0.0539,-0.05609 -0.084,-0.01037 -0.0193,0.02937 -0.0252,0.07074 -0.0132,0.09193 0.012,0.02121 0.008,0.02603 -0.009,0.01079 -0.0396,-0.03602 -0.31528,0.378106 -0.28595,0.429727 0.0123,0.02162 0.009,0.02698 -0.007,0.01193 -0.0316,-0.0286 -0.15309,0.117315 -0.13762,0.165242 0.005,0.01516 -0.003,0.02493 -0.0186,0.02166 -0.0152,-0.0034 -0.0742,0.0133 -0.1311,0.03678 -0.16663,0.06876 -0.26264,0.05077 -0.46234,-0.0866 -0.1034,-0.07112 -0.18824,-0.116632 -0.18855,-0.101129 -3.1e-4,0.01551 -0.0146,0.006 -0.0318,-0.02116 -0.0239,-0.03777 -0.0486,-0.02481 -0.10496,0.05516 -0.1212,0.171969 -0.22901,0.406007 -0.20121,0.436827 0.0143,0.01584 0.006,0.01745 -0.0181,0.0034 -0.0437,-0.02508 -0.14566,0.112025 -0.12826,0.172538 0.005,0.01668 -0.006,0.02101 -0.0248,0.0097 -0.0184,-0.01136 -0.0855,-0.0027 -0.14914,0.01964 -0.15594,0.05436 -0.29964,-0.008 -0.49976,-0.216811 -0.10286,-0.107341 -0.17925,-0.15748 -0.22486,-0.147586 -0.038,0.0082 -0.0645,0.03591 -0.0589,0.0615 0.005,0.02557 -0.005,0.03742 -0.0225,0.02633 -0.0467,-0.02885 -0.2639,0.220044 -0.2257,0.258609 0.0732,0.0739 -0.31928,0.0467 -0.51968,-0.03602 z m 1.27202,-1.63643 c -0.061,-0.0372 -0.20319,-0.172126 -0.31594,-0.299822 -0.11275,-0.127697 -0.22259,-0.221302 -0.24409,-0.208014 -0.0215,0.0133 -0.0903,0.114849 -0.15284,0.225687 -0.0735,0.130167 -0.14474,0.209313 -0.20131,0.223509 -0.12309,0.0309 -0.40956,-0.124148 -0.60976,-0.330007 -0.0902,-0.09272 -0.17425,-0.168575 -0.18683,-0.168575 -0.0446,0 -0.25312,0.321613 -0.22718,0.350344 0.0145,0.01603 0.007,0.01865 -0.0147,0.0057 -0.0497,-0.02835 -0.17286,0.09803 -0.13371,0.137185 0.0152,0.0152 0.0111,0.02275 -0.009,0.0168 -0.0202,-0.006 -0.0756,0.01068 -0.12319,0.03697 -0.0763,0.04226 -0.10208,0.03694 -0.22064,-0.04576 -0.22255,-0.155216 -0.66175,-0.553267 -0.66469,-0.602406 -0.005,-0.09033 -0.0894,-0.0425 -0.33911,0.193061 -0.32354,0.305207 -0.37007,0.306593 -0.61969,0.01843 -0.10511,-0.121326 -0.2086,-0.209782 -0.22997,-0.196573 -0.022,0.01353 -0.0281,0.0067 -0.0141,-0.01592 0.0136,-0.02196 -0.0165,-0.100646 -0.0669,-0.174856 -0.0504,-0.07422 -0.10212,-0.191188 -0.11502,-0.259943 -0.0129,-0.06875 -0.0396,-0.125006 -0.0593,-0.125006 -0.0196,0 -0.18106,0.100502 -0.35862,0.223342 -0.26426,0.182821 -0.34514,0.221185 -0.44578,0.211445 -0.11118,-0.01075 -0.13069,-0.03123 -0.20404,-0.214151 -0.14568,-0.363255 -0.3125,-0.958103 -0.28925,-1.031372 0.0258,-0.08115 0.18869,-0.136337 0.24279,-0.08223 0.0197,0.01964 0.0781,0.224444 0.12983,0.455136 0.10542,0.469639 0.13703,0.548147 0.22069,0.548147 0.0912,0 0.3434,-0.15488 0.3183,-0.195477 -0.0131,-0.02121 -0.003,-0.02489 0.0222,-0.0089 0.0278,0.01725 0.0972,-0.02911 0.1839,-0.123024 0.22133,-0.239746 0.34747,-0.190558 0.47704,0.186032 0.0892,0.259425 0.16153,0.39818 0.28207,0.541418 0.11652,0.138489 0.19456,0.144196 0.32453,0.02375 0.0539,-0.05004 0.1102,-0.09555 0.12489,-0.101128 0.0147,-0.0057 0.0221,-0.02378 0.0165,-0.04044 -0.005,-0.01668 0.005,-0.02132 0.0223,-0.01034 0.0354,0.02185 0.14095,-0.08591 0.23933,-0.244351 0.0902,-0.145263 0.15687,-0.1259 0.28534,0.0829 0.0639,0.103907 0.13029,0.173478 0.15244,0.159798 0.022,-0.0136 0.0285,-0.007 0.0149,0.01512 -0.0323,0.05216 0.15566,0.273262 0.20585,0.242239 0.0215,-0.0133 0.0285,-0.007 0.0154,0.01414 -0.0238,0.03852 0.0411,0.113862 0.0981,0.113975 0.017,3.5e-5 0.0417,0.01239 0.0552,0.0274 0.0135,0.01505 -3e-4,0.01326 -0.0306,-0.004 -0.0476,-0.02702 -0.0482,-0.02275 -0.005,0.03089 0.0278,0.03424 0.0699,0.06221 0.0936,0.06221 0.0238,0 0.14688,-0.115834 0.27364,-0.257412 0.3042,-0.339762 0.35497,-0.341084 0.7066,-0.01839 0.14325,0.131462 0.2907,0.239028 0.32766,0.239028 0.0806,0 0.34505,-0.352864 0.30859,-0.41186 -0.0141,-0.02276 -0.009,-0.03055 0.0124,-0.01759 0.0206,0.01277 0.0672,-0.0095 0.10332,-0.04948 0.0906,-0.100174 0.14645,-0.09127 0.23855,0.03807 0.0433,0.06091 0.0967,0.09973 0.11851,0.08625 0.0244,-0.01509 0.0289,-0.0071 0.0117,0.02067 -0.0316,0.05121 0.1195,0.232496 0.16858,0.20217 0.017,-0.01052 0.0212,0.0066 0.009,0.03792 -0.0197,0.05135 0.0206,0.07482 0.10548,0.06143 0.0152,-0.0022 0.0234,0.01634 0.0184,0.04161 -0.005,0.02527 0.0322,0.05064 0.0827,0.05635 0.17808,0.0201 0.76802,-0.604193 0.8277,-0.875914 0.0315,-0.143614 0.16928,-0.239355 0.2682,-0.18642 0.0392,0.02094 0.0843,0.02626 0.10029,0.01182 0.016,-0.01444 0.0182,-0.0071 0.005,0.0163 -0.0274,0.04781 0.24359,0.409276 0.3323,0.443318 0.0685,0.02629 0.25451,-0.08087 0.24014,-0.138344 -0.005,-0.02223 0.006,-0.03032 0.0264,-0.01794 0.0504,0.03112 0.25175,-0.255971 0.29672,-0.422944 0.0513,-0.190486 0.1073,-0.229137 0.2356,-0.162575 0.12012,0.06232 0.17505,0.07013 0.095,0.01353 -0.0365,-0.02584 -0.0387,-0.03466 -0.007,-0.02611 0.0268,0.0071 0.0487,0.02903 0.0485,0.04877 -2.4e-4,0.06449 0.11751,0.167607 0.16889,0.147889 0.0276,-0.0106 0.0406,-0.0037 0.0287,0.0155 -0.0212,0.03431 0.16098,0.148239 0.23703,0.148239 0.0579,0 0.17729,-0.212787 0.24008,-0.4281 0.0594,-0.203617 0.12733,-0.256948 0.24628,-0.193286 0.10075,0.05391 0.0754,0.244561 -0.0755,0.56687 -0.0618,0.131925 -0.10883,0.246308 -0.10463,0.254181 0.0101,0.01904 -0.18037,0.168071 -0.21481,0.168071 -0.0494,0 -0.34757,-0.159722 -0.34757,-0.186158 0,-0.01432 -0.0433,-0.05441 -0.0963,-0.08913 -0.0963,-0.0631 -0.0963,-0.0631 -0.31084,0.14919 -0.11799,0.116757 -0.20438,0.230125 -0.19198,0.251932 0.0124,0.02181 0.01,0.02839 -0.005,0.01459 -0.0154,-0.0138 -0.11793,0.04827 -0.22796,0.1379 -0.11004,0.08963 -0.23169,0.162963 -0.27033,0.162963 -0.0386,0 -0.11429,-0.05776 -0.16814,-0.128351 -0.0539,-0.07059 -0.1124,-0.119375 -0.13015,-0.108408 -0.0177,0.01098 -0.0237,-0.0022 -0.0132,-0.02971 0.0105,-0.02728 -0.0214,-0.08764 -0.0708,-0.134088 -0.0899,-0.08445 -0.0899,-0.08445 -0.15629,0.02013 -0.13434,0.211625 -0.29078,0.387834 -0.48975,0.551633 -0.11217,0.09235 -0.20395,0.182616 -0.20395,0.200593 0,0.01797 -0.0165,0.03472 -0.0367,0.03724 -0.0202,0.0027 -0.0762,0.03561 -0.12449,0.07355 -0.1089,0.08567 -0.1417,0.08579 -0.28064,0.0012 z m -4.59859,-2.206029 c -0.1204,-0.05632 -0.17002,-0.112223 -0.254,-0.28621 -0.0574,-0.118924 -0.13486,-0.260148 -0.17213,-0.313832 -0.0829,-0.119387 -0.0876,-0.24643 -0.0102,-0.276111 0.11117,-0.04266 0.2335,0.05695 0.34766,0.283107 0.0889,0.176182 0.14196,0.236578 0.24586,0.279982 0.11997,0.05013 0.14808,0.04939 0.29796,-0.0079 0.16189,-0.06182 0.4484,-0.28648 0.4484,-0.35159 0,-0.05733 0.18682,-0.245013 0.26399,-0.265194 0.0408,-0.01068 0.0653,-0.01049 0.0544,3.81e-4 -0.0296,0.0296 0.23818,0.307401 0.27461,0.284887 0.0172,-0.01064 0.0228,0.0027 0.0124,0.02994 -0.0242,0.06318 0.18426,0.265026 0.23891,0.231258 0.0227,-0.01402 0.0312,-0.06134 0.019,-0.105145 -0.0147,-0.05242 -0.0111,-0.06356 0.0105,-0.0326 0.0236,0.03377 0.0787,-0.02329 0.19547,-0.202253 0.0894,-0.137121 0.18245,-0.249314 0.20666,-0.249314 0.0242,0 0.1,0.07869 0.16836,0.174863 0.0684,0.09617 0.13809,0.162368 0.15492,0.147092 0.0169,-0.01527 0.0199,-0.009 0.007,0.01394 -0.021,0.03678 0.27039,0.344409 0.32625,0.344409 0.0446,0 0.28453,-0.280879 0.35098,-0.411024 0.1238,-0.242478 0.27401,-0.222084 0.56533,0.07674 0.10036,0.102956 0.19424,0.187191 0.20862,0.187191 0.0143,0 0.10404,-0.117186 0.19926,-0.260418 0.0952,-0.14323 0.19591,-0.269161 0.22375,-0.279841 0.0279,-0.01068 0.096,0.01095 0.15146,0.04801 0.0554,0.03708 0.11326,0.06786 0.12842,0.0684 0.0152,3.79e-4 0.0288,0.01752 0.0303,0.03773 0.004,0.05545 0.1136,0.16617 0.14522,0.146627 0.0152,-0.0094 0.0481,0.0076 0.0731,0.03766 0.025,0.03013 0.0331,0.05476 0.018,0.05476 -0.0399,0 0.0564,0.108393 0.13232,0.149029 0.0762,0.04081 0.19622,-0.05469 0.15631,-0.124414 -0.0136,-0.02364 -0.0115,-0.03116 0.005,-0.01668 0.0371,0.03348 0.15217,-0.111781 0.22313,-0.281595 0.0647,-0.154706 0.13237,-0.164019 0.28133,-0.03868 0.0603,0.05069 0.12724,0.08124 0.14888,0.06786 0.0222,-0.01373 0.0288,-0.0071 0.015,0.0152 -0.0269,0.04357 0.22949,0.272987 0.27421,0.245347 0.0154,-0.0095 0.0399,0.0022 0.0545,0.02579 0.0165,0.0269 0.0106,0.03321 -0.0159,0.01683 -0.0234,-0.01444 -0.0425,-0.0174 -0.0425,-0.0067 0,0.01079 0.0488,0.04486 0.1085,0.07571 0.18642,0.09641 0.49287,0.05606 0.42375,-0.05579 -0.0176,-0.02854 -0.0139,-0.03739 0.01,-0.02288 0.0234,0.01451 0.0481,-0.04392 0.0635,-0.150606 0.0362,-0.251086 0.17365,-0.532524 0.2903,-0.594609 0.16789,-0.08937 0.18642,-0.01933 0.10024,0.378501 -0.0421,0.194206 -0.0765,0.417677 -0.0765,0.496608 0,0.167826 -0.0822,0.239194 -0.34291,0.297613 -0.214,0.04796 -0.45968,-0.02333 -0.7478,-0.217015 -0.17257,-0.116005 -0.22458,-0.135415 -0.26946,-0.100548 -0.0475,0.0369 -0.0488,0.03451 -0.009,-0.01626 0.0379,-0.04858 0.0362,-0.06793 -0.009,-0.105633 -0.0446,-0.03708 -0.0668,-0.03686 -0.11245,0.0012 -0.0313,0.02595 -0.0481,0.0702 -0.0372,0.09835 0.0107,0.02816 0.006,0.04286 -0.0103,0.03268 -0.0165,-0.01018 -0.0844,0.04733 -0.15091,0.127769 -0.0665,0.08045 -0.15235,0.163062 -0.19071,0.183592 -0.10289,0.05507 -0.28042,-0.04262 -0.52444,-0.2886 -0.20102,-0.202633 -0.20789,-0.206133 -0.25958,-0.132326 -0.17818,0.254385 -0.36152,0.455205 -0.41557,0.455205 -0.0344,0 -0.17625,-0.1117 -0.31519,-0.24822 -0.2309,-0.226888 -0.25627,-0.242357 -0.29511,-0.180006 -0.35795,0.574554 -0.51028,0.644828 -0.80938,0.373387 -0.078,-0.07074 -0.15911,-0.117886 -0.18036,-0.104757 -0.0212,0.01311 -0.0282,0.007 -0.0154,-0.01367 0.0289,-0.04667 -0.0994,-0.168189 -0.1374,-0.13019 -0.0152,0.0152 -0.0244,0.01113 -0.0203,-0.0091 0.0433,-0.214915 -0.0921,-0.155884 -0.27419,0.119512 -0.0903,0.13652 -0.20234,0.271076 -0.249,0.299012 -0.0467,0.02792 -0.0723,0.03747 -0.057,0.02116 0.0153,-0.0163 -0.015,-0.05777 -0.0674,-0.09213 -0.0525,-0.03438 -0.0969,-0.07698 -0.0989,-0.0947 -0.006,-0.0548 -0.26395,-0.377272 -0.30287,-0.378883 -0.0202,-7.36e-4 -0.13507,0.09711 -0.2552,0.217665 -0.34301,0.344214 -0.63065,0.437743 -0.9241,0.300486 z m -1.02711,-6.334507 c -0.25707,-0.03648 -0.62674,-0.153638 -0.86889,-0.275365 -0.0936,-0.04706 -0.18314,-0.07389 -0.19895,-0.05963 -0.0159,0.01425 -0.0151,0.0022 0.002,-0.02629 0.0228,-0.03924 0.0146,-0.04619 -0.0328,-0.02801 -0.0377,0.01448 -0.054,0.0095 -0.0405,-0.01239 0.0125,-0.02013 -0.006,-0.04764 -0.0412,-0.06112 -0.0351,-0.01349 -0.0916,-0.0506 -0.12548,-0.08248 -0.0339,-0.03189 -0.1308,-0.121887 -0.21535,-0.200012 -0.19499,-0.180138 -0.45736,-0.546848 -0.59592,-0.832888 -0.26392,-0.544838 -0.35805,-1.296672 -0.23484,-1.87572 0.0364,-0.17152 0.0677,-0.347506 0.0694,-0.391082 0.002,-0.04357 0.0141,-0.07239 0.0277,-0.06402 0.0135,0.0084 0.0436,-0.04254 0.067,-0.113125 0.0234,-0.07059 0.12089,-0.248631 0.21686,-0.395653 0.096,-0.147023 0.18131,-0.283863 0.18962,-0.304086 0.008,-0.02022 0.10649,-0.117159 0.21819,-0.215407 0.11169,-0.09825 0.19853,-0.194632 0.19297,-0.214182 -0.005,-0.01953 0.005,-0.02626 0.0233,-0.01493 0.0184,0.01132 0.0726,-0.01 0.12042,-0.04734 0.15288,-0.119349 0.48922,-0.295556 0.71446,-0.374306 0.90818,-0.317529 1.79163,-0.208676 2.55349,0.314625 0.11124,0.07641 0.22294,0.13937 0.24822,0.139913 0.0253,3.8e-4 0.0372,0.0097 0.0265,0.02037 -0.0317,0.03169 0.39655,0.444926 0.43591,0.420611 0.02,-0.01239 0.0244,-0.0034 0.0101,0.01992 -0.0143,0.02322 0.0195,0.104388 0.0751,0.180354 0.11703,0.159829 0.18603,0.237745 0.14168,0.160015 -0.0199,-0.03488 -0.0155,-0.04301 0.0136,-0.02505 0.0237,0.01462 0.0342,0.04092 0.0235,0.05841 -0.0108,0.01748 0.0288,0.128051 0.0882,0.245679 0.20928,0.414994 0.2797,0.719919 0.27868,1.206749 -0.002,0.621313 -0.13578,1.061611 -0.4747,1.554315 -0.0697,0.101437 -0.11955,0.194502 -0.11062,0.20681 0.009,0.01231 0.007,0.01588 -0.004,0.0079 -0.0113,-0.008 -0.0973,0.06752 -0.191,0.167725 -0.66847,0.714652 -1.62325,1.048494 -2.60157,0.909652 z m 1.20296,-0.295322 c 0.30525,-0.08458 0.70239,-0.277923 0.67198,-0.32713 -0.012,-0.0193 0.002,-0.02592 0.0316,-0.01466 0.0337,0.01296 0.17338,-0.09833 0.38105,-0.3038 0.18026,-0.178344 0.244,-0.246632 0.14165,-0.151746 -0.42912,0.397823 -0.96296,0.612703 -1.60185,0.644766 -0.45953,0.02307 -0.72501,-0.03219 -1.13998,-0.237234 -0.15169,-0.07495 -0.28821,-0.132702 -0.30339,-0.128332 -0.0152,0.0044 -0.0247,-0.0044 -0.021,-0.01964 0.008,-0.03405 -0.5307,-0.57996 -0.56296,-0.570499 -0.0128,0.0037 -0.0219,-0.01322 -0.0204,-0.0377 0.002,-0.02447 -0.0565,-0.168636 -0.12906,-0.320325 -0.18388,-0.384342 -0.22685,-0.613377 -0.20445,-1.089749 0.021,-0.446632 0.12469,-0.810572 0.32085,-1.126136 0.0617,-0.09918 0.10113,-0.198097 0.0877,-0.219809 -0.0136,-0.02185 -0.007,-0.02891 0.0139,-0.01581 0.053,0.03279 0.13268,-0.07191 0.099,-0.130202 -0.0151,-0.02618 -0.0142,-0.03569 0.002,-0.02109 0.0349,0.03154 0.4099,-0.297815 0.39528,-0.347159 -0.005,-0.01877 0.005,-0.02485 0.0233,-0.01353 0.0184,0.01136 0.0726,-0.009 0.12042,-0.04523 0.14695,-0.111138 0.53221,-0.264977 0.81299,-0.324631 0.39111,-0.08309 0.88814,-0.05205 1.24145,0.07755 0.15169,0.05565 0.30354,0.102942 0.33745,0.105111 0.0339,0.0022 0.0548,0.01512 0.0463,0.02881 -0.0231,0.03747 0.16441,0.149714 0.2066,0.123647 0.0201,-0.01246 0.0323,-0.009 0.0272,0.0076 -0.015,0.04758 0.39683,0.419213 0.43061,0.388617 0.0165,-0.01505 0.0195,-0.0086 0.007,0.01428 -0.0131,0.02291 0.009,0.08392 0.05,0.135594 0.10367,0.131793 0.31325,0.564619 0.36856,0.761135 0.0254,0.09066 0.0576,0.338581 0.0714,0.550949 0.025,0.386115 0.025,0.386115 0.0309,0.08667 0.007,-0.366715 -0.078,-0.799918 -0.2183,-1.110676 -0.13424,-0.297271 -0.42944,-0.713823 -0.48257,-0.680982 -0.022,0.01364 -0.0299,0.0084 -0.0176,-0.0117 0.0124,-0.02007 -0.0422,-0.09972 -0.12139,-0.177022 -0.12894,-0.125907 -0.15081,-0.135149 -0.20993,-0.08872 -0.0593,0.04666 -0.0613,0.04574 -0.0183,-0.0093 0.0412,-0.05271 0.0311,-0.07381 -0.0736,-0.153619 -0.14586,-0.111225 -0.50026,-0.289357 -0.72807,-0.365954 -0.3218,-0.108192 -0.6239,-0.147167 -0.986,-0.127214 -1.0761,0.05929 -2.00558,0.778083 -2.35253,1.819251 -0.0837,0.251283 -0.0956,0.348554 -0.0975,0.800847 -0.002,0.397547 0.013,0.565092 0.0648,0.735469 0.0802,0.264491 0.28243,0.717081 0.32033,0.717081 0.0149,0 0.0361,0.03476 0.0473,0.07724 0.0111,0.04249 0.0367,0.06704 0.0569,0.05456 0.0202,-0.01246 0.0487,-0.0034 0.0633,0.02037 0.0166,0.0269 0.0106,0.03322 -0.0159,0.01684 -0.0647,-0.03995 -0.051,0.0063 0.0369,0.125239 0.0436,0.05907 0.0959,0.09721 0.116,0.08476 0.0201,-0.01243 0.0253,-0.0042 0.0114,0.01813 -0.0397,0.06432 0.43461,0.431067 0.76455,0.591105 0.26769,0.129843 0.61871,0.235011 0.92246,0.276365 0.20438,0.02781 0.72507,-0.02116 0.98231,-0.09247 z m 0.84079,-1.389908 c 0.20402,-0.204029 0.10764,-0.560247 -0.16544,-0.611476 -0.15833,-0.02971 -0.332,0.05836 -0.40909,0.207447 -0.18359,0.355018 0.29028,0.688267 0.57453,0.404029 z m 0.82021,0.05042 c 0.0125,-0.03272 0.007,-0.04748 -0.0145,-0.03462 -0.02,0.01235 -0.0364,0.03804 -0.0364,0.05708 0,0.05289 0.0263,0.04124 0.0508,-0.02246 z m -2.59018,-1.486382 c 0.3589,-0.183092 0.47569,-0.627338 0.23712,-0.901973 -0.0527,-0.06067 -0.11184,-0.105772 -0.13142,-0.100214 -0.0196,0.0056 -0.0254,-0.0063 -0.0131,-0.02645 0.0125,-0.0201 -0.038,-0.0619 -0.11208,-0.09285 -0.55988,-0.233929 -1.10649,0.396801 -0.77629,0.895753 0.18305,0.27662 0.51266,0.370134 0.79567,0.225748 z m 7.69472,3.124039 c -0.68213,-0.09445 -1.35141,-0.455823 -1.81243,-0.978609 -0.53282,-0.604186 -0.75924,-1.265573 -0.72223,-2.109682 0.0155,-0.356394 0.0371,-0.473709 0.13706,-0.746028 0.1174,-0.320097 0.39714,-0.795666 0.58377,-0.992416 0.1752,-0.184706 0.534,-0.457203 0.77709,-0.59017 0.37159,-0.20326 0.716,-0.286625 1.26867,-0.307087 0.42676,-0.01581 0.51664,-0.0077 0.83755,0.07521 0.36547,0.09446 0.68863,0.237939 0.96639,0.429035 0.0847,0.05831 0.16584,0.09425 0.18022,0.07989 0.0144,-0.01437 0.0214,-0.0096 0.0156,0.01064 -0.006,0.02022 0.0683,0.119517 0.16446,0.220641 0.52661,0.553525 0.84385,1.355897 0.84329,2.132851 -3.5e-4,0.475035 -0.0781,0.820657 -0.28108,1.249077 -0.09,0.189975 -0.16108,0.350704 -0.15798,0.357179 0.003,0.0065 -0.002,0.0078 -0.009,0.0031 -0.008,-0.0048 -0.0868,0.09012 -0.17474,0.210963 -0.19094,0.262404 -0.49489,0.509219 -0.816,0.662603 -0.49904,0.238378 -1.27843,0.365159 -1.80046,0.292876 z m 0.96036,-0.260368 c 0.43865,-0.067 1.08269,-0.361022 0.9912,-0.452515 -0.0142,-0.01421 -9e-5,-0.01592 0.0313,-0.0039 0.039,0.01497 0.14077,-0.06697 0.32012,-0.257646 0.30852,-0.327997 0.56578,-0.807844 0.65031,-1.212943 0.13007,-0.623396 0.0361,-1.317841 -0.25934,-1.916026 -0.17151,-0.347269 -0.54183,-0.807467 -0.61392,-0.762909 -0.0221,0.01367 -0.0285,0.007 -0.0147,-0.01539 0.0303,-0.04891 -0.18195,-0.206 -0.23444,-0.173568 -0.0209,0.01292 -0.0334,0.0022 -0.0279,-0.02325 0.005,-0.02569 -0.0983,-0.101227 -0.23089,-0.167873 -0.75297,-0.378557 -1.75479,-0.374256 -2.45901,0.01057 -0.26268,0.143541 -0.63047,0.411714 -0.61759,0.450329 0.005,0.01322 -0.002,0.02401 -0.0139,0.02401 -0.0518,0 -0.14072,0.103554 -0.11909,0.138557 0.0131,0.02105 0.006,0.02743 -0.0153,0.01417 -0.05,-0.0309 -0.42257,0.52481 -0.39685,0.591839 0.0105,0.02743 0.004,0.04053 -0.0144,0.02915 -0.0431,-0.0266 -0.16823,0.307339 -0.21984,0.586535 -0.11715,0.633746 0.0321,1.362005 0.40205,1.961832 0.0666,0.107971 0.0833,0.116856 0.13863,0.07355 0.0576,-0.04517 0.0584,-0.04351 0.008,0.01999 -0.0506,0.0643 -0.0339,0.08879 0.23416,0.341619 0.63005,0.594346 1.57328,0.879447 2.46101,0.743859 z m -1.40026,-0.237261 c -0.10659,-0.02869 -0.2436,-0.07792 -0.30446,-0.109401 -0.0608,-0.03146 -0.12559,-0.04801 -0.14382,-0.03674 -0.0183,0.01129 -0.0451,0.0012 -0.0598,-0.02257 -0.0175,-0.02831 -0.009,-0.03435 0.0251,-0.01763 0.0284,0.01398 0.0204,0.0042 -0.018,-0.02189 -0.0383,-0.02603 -0.14176,-0.10101 -0.22984,-0.166608 -0.14757,-0.109897 -0.17783,-0.11624 -0.16359,-0.03427 0.003,0.01668 -0.0132,0.01893 -0.0356,0.0051 -0.0285,-0.01759 -0.0292,-0.03694 -0.002,-0.06378 0.0269,-0.02683 -0.0224,-0.104305 -0.16228,-0.255356 -0.11043,-0.119273 -0.20078,-0.233443 -0.20078,-0.253707 0,-0.02026 -0.0207,-0.02496 -0.046,-0.01042 -0.0253,0.01456 -0.0351,0.01425 -0.0217,-7.35e-4 0.0134,-0.01493 -0.0238,-0.124073 -0.0825,-0.242562 -0.16819,-0.338964 -0.22393,-0.597942 -0.22151,-1.029169 0.003,-0.550085 0.13338,-1.02112 0.37886,-1.369553 0.0391,-0.05548 0.0592,-0.120093 0.0446,-0.14358 -0.0156,-0.02524 -0.0104,-0.03283 0.0127,-0.01855 0.0215,0.0133 0.0838,-0.02968 0.1385,-0.09544 0.57356,-0.690273 1.56858,-0.916138 2.44466,-0.554938 0.44138,0.181973 0.75391,0.428715 1.04984,0.828822 0.0853,0.115298 0.16793,0.198039 0.18365,0.183866 0.0157,-0.01417 0.017,-0.0057 0.003,0.01893 -0.0141,0.02459 0.009,0.112805 0.0515,0.196036 0.29451,0.57727 0.28476,1.502556 -0.0217,2.053028 -0.10109,0.181639 -0.10735,0.203763 -0.0471,0.166528 0.0272,-0.01676 0.0324,-0.01003 0.0147,0.01865 -0.0152,0.0247 -0.0366,0.03606 -0.0474,0.02527 -0.0108,-0.01083 -0.0746,0.05241 -0.14192,0.140496 -0.30624,0.401064 -0.7937,0.702033 -1.30965,0.808595 -0.34503,0.07126 -0.82556,0.07194 -1.08709,0.0015 z m 1.97768,-1.180968 c 0.11781,-0.06959 0.18348,-0.190143 0.18348,-0.336816 0,-0.123583 -0.0996,-0.274154 -0.1588,-0.240199 -0.0239,0.01367 -0.0312,0.01136 -0.0162,-0.0052 0.0544,-0.05999 -0.0582,-0.128792 -0.21067,-0.128792 -0.19015,0 -0.33598,0.103177 -0.38008,0.268918 -0.0953,0.358046 0.26344,0.630414 0.58226,0.442083 z m -2.11807,-1.542255 c 0.0319,-0.01224 0.049,-0.03686 0.0379,-0.05474 -0.0111,-0.01786 0.005,-0.02265 0.0369,-0.0106 0.0884,0.0339 0.26679,-0.183144 0.30752,-0.374157 0.0972,-0.455805 -0.28291,-0.827234 -0.72357,-0.707023 -0.16335,0.04456 -0.23251,0.09706 -0.20085,0.152479 0.0132,0.02299 0.0111,0.0304 -0.004,0.01645 -0.0334,-0.0301 -0.14047,0.06619 -0.19925,0.179233 -0.0992,0.190733 -0.016,0.587739 0.12061,0.575835 0.0489,-0.0042 0.0554,0.005 0.0248,0.03549 -0.0649,0.06492 0.20283,0.208869 0.38895,0.209097 0.0843,1.06e-4 0.17936,-0.0098 0.21123,-0.02204 z m 3.37533,-4.177268 c -0.0943,-0.0943 -0.047,-0.176081 0.15774,-0.273049 0.11474,-0.05432 0.19165,-0.112125 0.17819,-0.133909 -0.0136,-0.02192 -0.006,-0.0274 0.0176,-0.01277 0.0228,0.01407 0.0956,-0.0022 0.16197,-0.03614 0.14342,-0.07338 0.76413,-0.493735 0.76413,-0.517476 0,-0.0091 -0.0191,-0.0047 -0.0425,0.0097 -0.0265,0.01638 -0.0324,0.01007 -0.0159,-0.01683 0.0146,-0.02368 0.0394,-0.03515 0.055,-0.0255 0.0156,0.0097 0.0839,-0.03972 0.15177,-0.109724 0.083,-0.08559 0.15712,-0.127274 0.22646,-0.127274 0.0567,0 0.10311,-0.01258 0.10311,-0.02797 0,-0.01539 0.0428,-0.07412 0.0951,-0.13055 0.0758,-0.08172 0.10571,-0.09382 0.1471,-0.05948 0.13435,0.111507 -0.009,0.311743 -0.49936,0.698079 -0.16051,0.126431 -0.2816,0.246441 -0.26908,0.26669 0.0125,0.02026 0.005,0.02573 -0.0171,0.01219 -0.0219,-0.01353 -0.11232,0.02432 -0.20095,0.08414 -0.22161,0.149565 -0.81972,0.443926 -0.902,0.443926 -0.0371,0 -0.0872,-0.01988 -0.11153,-0.04412 z m -13.28354,-0.260679 c -0.28146,-0.123745 -0.52217,-0.273143 -0.79299,-0.492169 -0.0828,-0.06693 -0.16402,-0.109439 -0.18057,-0.09445 -0.0165,0.01501 -0.0195,0.0088 -0.007,-0.0138 0.0129,-0.02257 -0.0111,-0.07222 -0.0533,-0.11032 -0.0422,-0.0381 -0.15764,-0.170901 -0.25655,-0.295122 -0.18307,-0.229899 -0.22958,-0.390721 -0.12468,-0.430976 0.0888,-0.03408 0.15652,0.0099 0.30774,0.199818 0.0782,0.09826 0.15534,0.166816 0.17136,0.15235 0.0161,-0.01448 0.0182,-0.0072 0.005,0.01607 -0.0141,0.02458 0.0646,0.117715 0.18716,0.22169 0.28895,0.245104 0.45273,0.351115 0.85764,0.555165 0.32127,0.1619 0.34664,0.182716 0.34664,0.284486 0,0.155713 -0.11879,0.157583 -0.46071,0.0072 z m 12.02997,18.283711 c 0.0789,-0.06245 0.13245,-0.1312 0.11912,-0.152772 -0.0149,-0.02412 -0.007,-0.02839 0.0214,-0.01102 0.0553,0.03417 0.30467,-0.194824 0.27121,-0.248987 -0.0125,-0.02013 -0.005,-0.02584 0.0161,-0.01269 0.0508,0.03135 0.27588,-0.225539 0.24353,-0.277885 -0.0138,-0.02234 -0.008,-0.02987 0.0128,-0.01694 0.0518,0.03199 0.29757,-0.32881 0.50232,-0.737458 0.14045,-0.280306 0.17007,-0.374626 0.17007,-0.54156 0,-0.175145 0.0123,-0.210198 0.0921,-0.262496 0.12784,-0.08377 0.18971,-0.02261 0.21929,0.2168 0.0549,0.444777 0.15453,0.896348 0.2148,0.97407 0.0288,0.03708 0.0598,0.02535 0.14234,-0.05375 0.058,-0.05564 0.0971,-0.123327 0.0867,-0.150435 -0.0104,-0.02709 -0.003,-0.0398 0.0152,-0.0282 0.0188,0.01159 0.0857,-0.087 0.14873,-0.219102 0.27227,-0.570464 0.29216,-1.261095 0.0556,-1.931004 -0.075,-0.212364 -0.14453,-0.446555 -0.15457,-0.520425 -0.0155,-0.114092 -0.006,-0.138135 0.0619,-0.159756 0.11844,-0.03758 0.22721,0.08293 0.51577,0.571483 0.25245,0.427405 0.74608,1.101578 0.80658,1.101578 0.096,0 0.20189,-0.956026 0.15091,-1.362539 -0.0455,-0.363308 -0.14595,-0.739781 -0.19002,-0.71254 -0.0175,0.01076 -0.0227,-0.004 -0.0115,-0.03291 0.022,-0.05767 -0.23791,-0.619878 -0.27586,-0.596425 -0.013,0.008 -0.0235,-0.01615 -0.0235,-0.05367 0,-0.0375 0.009,-0.06669 0.0196,-0.06481 0.0108,0.0019 0.0658,-0.0095 0.1223,-0.02539 0.0742,-0.02082 0.12083,-0.01231 0.16847,0.03081 0.0362,0.03279 0.0796,0.04715 0.0964,0.03192 0.0167,-0.0152 0.0186,-0.0071 0.004,0.01809 -0.0147,0.02564 0.0132,0.0984 0.0636,0.165479 0.0494,0.06585 0.14061,0.221139 0.20256,0.345081 0.11852,0.237129 0.51882,0.638338 0.6372,0.638656 0.0988,2.78e-4 0.11315,-0.179321 0.0519,-0.649546 -0.0652,-0.5 -0.15602,-0.870601 -0.31483,-1.284296 -0.13185,-0.343508 -0.41633,-0.836186 -0.45996,-0.796595 -0.0169,0.01527 -0.0191,0.0078 -0.005,-0.01653 0.0329,-0.05743 -0.22885,-0.423062 -0.28019,-0.391331 -0.0226,0.01398 -0.0283,0.0067 -0.0133,-0.01744 0.0326,-0.05276 -0.26683,-0.381692 -0.31843,-0.349805 -0.021,0.01299 -0.0273,0.006 -0.014,-0.01558 0.0298,-0.04813 -0.26687,-0.272812 -0.31824,-0.241057 -0.0204,0.01254 -0.027,0.0067 -0.0148,-0.01296 0.0121,-0.01969 -0.0887,-0.09519 -0.22415,-0.16782 -1.03402,-0.554444 -1.89086,-0.178071 -2.12637,0.934013 -0.083,0.391736 -0.0278,0.789091 0.28017,2.016216 0.13966,0.556633 0.21371,0.998522 0.24646,1.470929 l 0.0269,0.386122 0.0633,-0.441281 c 0.12383,-0.862778 0.0745,-1.631114 -0.17812,-2.771967 -0.13885,-0.627161 -0.13737,-0.721496 0.0114,-0.721496 0.0562,0 0.074,0.03625 0.0925,0.188342 0.0126,0.103588 0.0658,0.318711 0.11801,0.478053 0.27125,0.827029 0.37219,1.490121 0.3436,2.257083 -0.0242,0.649823 -0.11068,1.079341 -0.36274,1.801889 -0.10231,0.293267 -0.18813,0.568869 -0.1907,0.612441 -0.002,0.04357 -0.0147,0.07304 -0.0269,0.0655 -0.0122,-0.0076 -0.0685,0.105726 -0.12503,0.25173 -0.0566,0.146006 -0.14229,0.344687 -0.19054,0.441514 -0.0483,0.09683 -0.0776,0.192393 -0.0653,0.212361 0.0124,0.01995 0.007,0.03177 -0.0126,0.02618 -0.0193,-0.0056 -0.10864,0.08918 -0.19866,0.210533 -0.09,0.121356 -0.25051,0.315345 -0.35665,0.431095 -0.10613,0.11575 -0.18246,0.227449 -0.16962,0.248219 0.0339,0.05491 0.0488,0.04946 0.20694,-0.07579 z m 0.17979,-0.194521 c 0,-0.0076 0.0289,-0.0366 0.0643,-0.06436 0.0584,-0.04574 0.0597,-0.04444 0.0139,0.01387 -0.048,0.06126 -0.0782,0.08074 -0.0782,0.05047 z m -10.56488,-0.252722 c -0.0312,-0.0455 -0.0727,-0.07925 -0.0921,-0.07499 -0.0195,0.0042 -0.0333,-0.02056 -0.0306,-0.05515 0.002,-0.03461 -0.017,-0.05836 -0.0438,-0.05281 -0.0268,0.0056 -0.0406,-0.0031 -0.0307,-0.01904 0.0234,-0.038 -0.14002,-0.309108 -0.17197,-0.285164 -0.0136,0.01007 -0.0177,0.0089 -0.01,-0.0027 0.008,-0.01155 -0.0645,-0.189445 -0.16158,-0.395315 -0.21876,-0.464062 -0.29846,-0.699967 -0.41834,-1.238478 -0.13669,-0.614011 -0.20736,-1.223104 -0.20607,-1.776195 0.002,-0.580364 0.0392,-0.899131 0.16621,-1.398573 0.0523,-0.20562 0.10465,-0.518658 0.11639,-0.695634 0.0129,-0.194909 0.0401,-0.33739 0.0691,-0.361364 0.0643,-0.05334 0.21995,-0.02652 0.2066,0.03556 -0.006,0.02717 -0.0611,0.415644 -0.12284,0.863298 -0.0808,0.585858 -0.11576,0.999396 -0.12488,1.475842 -0.007,0.364057 -0.005,0.620549 0.006,0.569986 0.42871,-2.135371 0.48987,-2.504502 0.49091,-2.962768 3.8e-4,-0.164226 -0.0251,-0.383251 -0.0569,-0.490532 -0.0691,-0.232716 -0.21782,-0.503226 -0.26997,-0.491074 -0.0207,0.0048 -0.0294,-0.01239 -0.0195,-0.03818 0.0251,-0.06536 -0.18665,-0.261755 -0.24397,-0.226321 -0.0296,0.01828 -0.0361,0.01292 -0.0186,-0.01524 0.0174,-0.02816 -0.0341,-0.07026 -0.14726,-0.120306 -0.1445,-0.06392 -0.22451,-0.07407 -0.47156,-0.05979 -0.30892,0.01786 -0.69771,0.122803 -0.663,0.178972 0.011,0.01774 -0.003,0.02337 -0.0315,0.0125 -0.085,-0.03264 -0.57762,0.326507 -0.87178,0.63557 -0.31237,0.328184 -0.59998,0.735852 -0.57151,0.810051 0.0118,0.0309 0.003,0.03972 -0.0235,0.02337 -0.0288,-0.01775 -0.0347,-0.0057 -0.0184,0.03678 0.0133,0.03469 0.01,0.05416 -0.008,0.04323 -0.0484,-0.02991 -0.27919,0.541236 -0.37055,0.917005 -0.0877,0.360938 -0.17623,1.371981 -0.1346,1.537862 0.0181,0.07208 0.0451,0.09925 0.089,0.08962 0.0347,-0.0076 0.0585,-0.03476 0.053,-0.06033 -0.005,-0.02558 0.005,-0.03727 0.0231,-0.02599 0.077,0.0476 0.48192,-0.470001 0.81004,-1.035513 0.12568,-0.216598 0.17164,-0.266608 0.245,-0.266608 0.12999,0 0.11886,0.06777 -0.10668,0.649908 -0.24512,0.632633 -0.335,1.062127 -0.30662,1.465145 0.0283,0.4006 0.1281,0.826136 0.20044,0.853889 0.0653,0.02508 0.23906,-0.16595 0.20337,-0.22368 -0.0121,-0.01945 -0.005,-0.0247 0.0165,-0.01163 0.0471,0.02903 0.16884,-0.147019 0.13721,-0.198206 -0.0125,-0.02014 -0.005,-0.03211 0.016,-0.02656 0.0212,0.0056 0.1183,-0.122278 0.21566,-0.284083 0.0974,-0.161801 0.21318,-0.310347 0.25739,-0.330103 0.0468,-0.02094 0.11273,-0.115673 0.15797,-0.227115 0.0873,-0.215131 0.16099,-0.267036 0.2207,-0.155474 0.0313,0.05834 0.0191,0.15957 -0.054,0.451671 -0.25669,1.02492 -0.21206,1.720596 0.14943,2.329522 0.0751,0.126406 0.14862,0.229832 0.1635,0.229832 0.0563,0 0.14837,-0.548599 0.18921,-1.127272 0.0375,-0.530577 0.0504,-0.603324 0.11032,-0.622361 0.0834,-0.02648 0.17471,0.04368 0.17471,0.134213 0,0.337234 0.58012,1.523229 0.70678,1.444945 0.022,-0.0136 0.0299,-0.0084 0.0175,0.01171 -0.0344,0.05565 0.0638,0.174169 0.34528,0.416366 0.27407,0.235886 0.33369,0.269628 0.24332,0.137714 z m 1.0406,-8.123117 0.23903,-0.04833 -0.51483,-0.02553 c -0.28316,-0.01402 -0.60584,-0.0435 -0.71708,-0.06546 -0.62819,-0.124075 -1.40308,-0.457808 -1.83541,-0.790478 -0.12316,-0.09477 -0.24088,-0.161835 -0.26159,-0.149029 -0.0207,0.01281 -0.0332,0.008 -0.0276,-0.01079 0.0156,-0.05273 -0.53249,-0.594807 -0.5763,-0.569944 -0.0214,0.01209 -0.0265,0.0084 -0.0115,-0.0081 0.0373,-0.04117 -0.0446,-0.133772 -0.0923,-0.10432 -0.0234,0.01444 -0.0272,0.0057 -0.01,-0.02249 0.0173,-0.02796 -0.003,-0.07735 -0.0516,-0.125194 -0.10662,-0.105106 -0.41941,-0.546008 -0.55852,-0.787286 -0.0643,-0.111616 -0.12825,-0.183094 -0.15107,-0.168993 -0.0224,0.01391 -0.0289,0.0073 -0.015,-0.01524 0.0322,-0.05219 -0.0508,-0.232889 -0.0946,-0.205822 -0.0186,0.01151 -0.0247,0.04496 -0.0135,0.07431 0.0112,0.02934 0.005,0.04351 -0.0149,0.0315 -0.0326,-0.02013 -0.7561,1.370829 -0.72774,1.399184 0.007,0.0069 0.12396,-0.01281 0.26008,-0.04386 0.23089,-0.05267 0.32826,-0.105897 0.68439,-0.374142 0.11272,-0.0849 0.11272,-0.0849 0.1971,0 0.0464,0.04669 0.15665,0.217281 0.24499,0.379086 0.18985,0.347741 0.25021,0.432347 0.51503,0.721815 0.11123,0.121584 0.22115,0.210369 0.24778,0.200148 0.0263,-0.0101 0.044,7.36e-4 0.0392,0.02394 -0.0241,0.116544 0.88049,0.580746 1.15502,0.592716 0.0737,0.0031 0.1275,0.01676 0.11941,0.03006 -0.008,0.01333 0.10532,0.04377 0.252,0.06767 0.1467,0.0239 0.29153,0.04937 0.32187,0.05661 0.12391,0.02959 1.17515,-0.01706 1.39739,-0.06198 z m 9.92837,-0.03112 c 0.27282,-0.04013 0.62231,-0.07162 0.77667,-0.06997 0.19935,0.0022 0.31665,-0.01554 0.40492,-0.06099 0.18887,-0.09726 0.43909,-0.313941 0.4124,-0.357127 -0.0144,-0.0233 -0.006,-0.02721 0.0221,-0.01 0.0604,0.03732 0.74861,-0.671099 0.72125,-0.742403 -0.0107,-0.02785 -0.003,-0.04066 0.0165,-0.02846 0.0446,0.02755 0.36855,-0.46367 0.53352,-0.808975 0.20473,-0.428503 0.42135,-1.184688 0.42138,-1.470932 0,-0.0713 -0.0446,0.0222 -0.12642,0.26435 -0.0695,0.206068 -0.17736,0.475632 -0.23965,0.599028 -0.0623,0.123395 -0.10318,0.240658 -0.0909,0.26058 0.0123,0.01992 0.007,0.03169 -0.0113,0.0261 -0.0444,-0.0133 -0.45096,0.583239 -0.41917,0.615036 0.0135,0.01349 0.008,0.01976 -0.0122,0.01395 -0.0202,-0.0058 -0.17743,0.130699 -0.34935,0.303356 -0.17191,0.172656 -0.43668,0.400912 -0.58837,0.507232 -0.15168,0.106318 -0.27126,0.209606 -0.26569,0.229527 0.005,0.01992 -0.004,0.02747 -0.0215,0.0168 -0.0173,-0.01068 -0.17359,0.05191 -0.34734,0.139108 -0.35225,0.176784 -0.77208,0.317407 -1.24105,0.415683 -0.23717,0.0497 -0.4838,0.06555 -1.02238,0.06572 -0.71675,2.77e-4 -0.73318,0.01159 -0.15437,0.107036 0.45058,0.07429 1.01163,0.06909 1.58084,-0.01466 z m -5.55277,-0.863735 c 0.0436,-0.07042 0.0672,-0.14744 0.0525,-0.171162 -0.0169,-0.02728 -0.0107,-0.03328 0.0166,-0.01634 0.0904,0.05585 0.66672,-1.308189 0.66672,-1.577901 0,-0.109667 -0.12057,-0.288806 -0.16649,-0.24735 -0.016,0.01448 -0.0165,0.0044 -0.002,-0.02234 0.0718,-0.12426 -0.37499,-0.422811 -0.6387,-0.426794 -0.17668,-0.0027 -0.4934,0.112856 -0.45955,0.167622 0.0106,0.01717 -0.002,0.02291 -0.0287,0.01281 -0.0618,-0.02372 -0.43389,0.300478 -0.43389,0.378041 0,0.03238 0.0161,0.109709 0.0358,0.171821 0.0196,0.0621 0.0713,0.228765 0.1149,0.370342 0.0903,0.293601 0.28599,0.700814 0.56087,1.167102 0.10419,0.176726 0.19223,0.321523 0.19563,0.321765 0.003,2.81e-4 0.0418,-0.05717 0.0853,-0.127583 z m 9.48142,-0.803294 c -0.007,-0.02683 -0.0863,-0.291424 -0.17736,-0.588 -0.15565,-0.507163 -0.22064,-0.643205 -0.22064,-0.461794 0,0.043 -0.0589,0.225421 -0.13091,0.405378 -0.0802,0.200425 -0.12186,0.355732 -0.10753,0.400851 0.0298,0.09383 0.18476,0.196804 0.2425,0.16112 0.0274,-0.01691 0.0344,-0.01166 0.0187,0.01383 -0.0156,0.02523 0.0212,0.05449 0.0954,0.07591 0.18113,0.05224 0.29361,0.04931 0.27981,-0.0073 z m -19.31376,-1.403402 c 0.1575,-0.03013 0.36166,-0.09219 0.45371,-0.1379 0.15803,-0.07848 0.16718,-0.0913 0.16434,-0.230205 -0.002,-0.0809 -0.0323,-0.271201 -0.0681,-0.42289 -0.0358,-0.151689 -0.074,-0.478927 -0.0847,-0.727196 -0.0107,-0.248265 -0.0354,-0.461181 -0.0549,-0.473147 -0.11419,-0.07057 -0.7251,0.76038 -0.907,1.233713 -0.12902,0.335719 -0.18045,0.677464 -0.11399,0.75753 0.0579,0.0698 0.24616,0.06983 0.61062,9.5e-5 z m -0.0859,-2.117028 c 0.0854,-0.02372 0.12921,-0.05413 0.11383,-0.07902 -0.0151,-0.02443 -0.008,-0.03002 0.0177,-0.01406 0.0559,0.03451 0.27108,-0.119045 0.23921,-0.170615 -0.0139,-0.02257 -0.007,-0.02907 0.0151,-0.01516 0.0857,0.05295 0.19611,-0.189474 0.22827,-0.501128 0.0173,-0.16771 0.0586,-0.409664 0.0918,-0.537679 0.0332,-0.128016 0.0511,-0.241959 0.0399,-0.253206 -0.0112,-0.01125 -0.0204,0.0055 -0.0204,0.03716 0,0.03169 -0.0603,0.146134 -0.13385,0.254349 -0.0736,0.108215 -0.13428,0.216518 -0.13483,0.240677 -3.8e-4,0.02417 -0.0111,0.04071 -0.0236,0.03678 -0.0471,-0.01493 -0.55702,0.601015 -0.5316,0.642159 0.0167,0.02702 0.01,0.03234 -0.0187,0.01459 -0.0511,-0.03157 -0.15561,0.08841 -0.12299,0.141179 0.0115,0.0185 0.004,0.02333 -0.0162,0.01071 -0.0347,-0.02139 -0.15072,0.08158 -0.20999,0.186244 -0.0331,0.05849 0.26501,0.06296 0.4665,0.007 z m 0.88687,-1.924849 c 0.0533,-0.159851 0.0915,-0.295945 0.085,-0.302437 -0.007,-0.0065 -0.14753,0.03173 -0.31342,0.08492 l -0.30163,0.09672 0.13945,0.06243 c 0.18584,0.0832 0.26579,0.168694 0.26579,0.284208 0,0.131964 0.0139,0.106756 0.12476,-0.225839 z m 10.25142,-1.582738 c -0.007,-0.02135 -0.002,-0.02755 0.0128,-0.01376 0.0138,0.0138 0.16362,-0.08064 0.33296,-0.209847 0.16934,-0.129201 0.44082,-0.311585 0.60327,-0.405293 0.17198,-0.0992 0.28528,-0.186735 0.27119,-0.209538 -0.0135,-0.02177 -0.007,-0.0285 0.0146,-0.01516 0.0214,0.01322 0.22663,-0.0645 0.45616,-0.172656 0.53914,-0.254053 0.96929,-0.42308 1.74115,-0.68417 0.7888,-0.266821 1.06585,-0.377278 1.4348,-0.572026 0.37943,-0.200289 0.57292,-0.332334 0.5402,-0.368629 -0.0143,-0.01585 -0.007,-0.01797 0.0162,-0.0047 0.11913,0.06811 1.27769,-1.039705 1.20698,-1.154121 -0.0101,-0.01642 5.1e-4,-0.04183 0.0247,-0.05647 0.0287,-0.01774 0.0331,-0.01056 0.0133,0.02155 -0.0197,0.03185 -0.0154,0.03926 0.0127,0.02189 0.0233,-0.01444 0.0425,-0.05008 0.0425,-0.07923 0,-0.02915 0.0124,-0.05302 0.0276,-0.05305 0.06,-1.4e-4 0.36531,-0.552222 0.47098,-0.85172 l 0.0555,-0.157161 -0.10978,0.105179 c -0.0604,0.05785 -0.10643,0.123522 -0.10233,0.145934 0.004,0.02242 -0.0138,0.03644 -0.0396,0.03116 -0.0259,-0.0053 -0.14633,0.07299 -0.2676,0.17391 -0.12126,0.100915 -0.25359,0.201208 -0.29406,0.222867 -0.0405,0.02165 -0.0623,0.05766 -0.0485,0.07999 0.0152,0.02447 0.008,0.03021 -0.0173,0.01444 -0.0536,-0.03314 -0.45004,0.200873 -0.42069,0.24836 0.012,0.01938 0.005,0.02511 -0.0147,0.01273 -0.02,-0.01239 -0.17567,0.04595 -0.34584,0.129639 -0.17016,0.08369 -0.50365,0.237626 -0.74107,0.342084 -0.23742,0.104461 -0.42496,0.196637 -0.41677,0.204833 0.008,0.0082 -0.021,0.01702 -0.0648,0.01958 -0.11377,0.0067 -1.25764,0.459752 -1.72382,0.682791 -0.2168,0.103728 -0.38369,0.204887 -0.37125,0.22503 0.0131,0.02109 0.004,0.02501 -0.0214,0.0093 -0.0515,-0.03189 -0.56441,0.266087 -0.5363,0.311583 0.0102,0.0166 -5.1e-4,0.04218 -0.0244,0.05682 -0.0269,0.0166 -0.0333,0.01068 -0.0169,-0.01584 0.0597,-0.09649 -0.0515,-0.02638 -0.36423,0.229635 -0.18203,0.149048 -0.32641,0.29069 -0.32085,0.314762 0.005,0.02406 -0.007,0.03333 -0.0274,0.02056 -0.0702,-0.04335 -0.86774,0.836755 -0.82337,0.90855 0.0136,0.02192 0.009,0.03036 -0.009,0.01877 -0.0385,-0.02382 -0.32047,0.361748 -0.32047,0.438231 0,0.02724 -0.008,0.04137 -0.0182,0.03139 -0.0204,-0.02029 -0.22409,0.307322 -0.33858,0.544284 -0.0664,0.13742 -0.0414,0.118433 0.23,-0.174717 0.16746,-0.180891 0.29897,-0.346369 0.29222,-0.367732 z m -2.38069,0.0034 c -0.0526,-0.09419 -0.11062,-0.162033 -0.12884,-0.150777 -0.0182,0.01125 -0.0254,-0.0012 -0.016,-0.0274 0.0232,-0.06492 -0.32156,-0.565289 -0.38079,-0.552597 -0.0258,0.0056 -0.0364,-0.0073 -0.0231,-0.02865 0.0299,-0.04823 -0.41763,-0.559096 -0.46437,-0.530205 -0.0186,0.01155 -0.0294,-0.0012 -0.0239,-0.02771 0.005,-0.02694 -0.0185,-0.04645 -0.0539,-0.04366 -0.0352,0.0027 -0.0559,-0.0081 -0.046,-0.02412 0.0333,-0.05372 -0.63825,-0.563158 -0.74224,-0.563158 -0.0269,0 -0.041,-0.0078 -0.0313,-0.01744 0.0262,-0.02622 -0.28114,-0.213539 -0.7345,-0.447712 -0.73472,-0.379492 -1.84409,-0.859285 -1.91972,-0.830262 -0.0283,0.01087 -0.0432,0.0063 -0.0332,-0.0099 0.01,-0.0163 -0.0429,-0.0512 -0.1176,-0.0775 -0.61706,-0.217093 -1.5822,-0.681557 -2.00831,-0.966483 -0.21961,-0.146849 -0.63883,-0.486668 -0.69201,-0.560953 -0.0412,-0.05753 -0.0333,0.0027 0.014,0.106474 0.0231,0.05088 0.0589,0.0822 0.0792,0.06959 0.0214,-0.01322 0.0257,-0.0045 0.0101,0.02063 -0.0386,0.06252 0.25444,0.548049 0.60207,0.997458 0.0704,0.09101 0.13362,0.173277 0.14048,0.182803 0.007,0.0095 0.0282,-0.0071 0.0474,-0.03678 0.0264,-0.04102 0.0326,-0.03189 0.0255,0.03784 -0.006,0.06024 0.007,0.08845 0.0394,0.08183 0.0269,-0.0056 0.0395,0.0047 0.0283,0.02291 -0.0449,0.07261 0.79055,0.766023 0.86641,0.719134 0.0254,-0.01577 0.0325,-0.01011 0.0175,0.0141 -0.0354,0.05721 0.46675,0.344857 0.5531,0.316853 0.048,-0.01554 0.0535,-0.01197 0.0195,0.01249 -0.0814,0.05848 0.50885,0.311839 1.65016,0.708367 1.12883,0.392196 1.75913,0.672444 2.3772,1.056975 0.31239,0.194366 0.87095,0.605917 0.9116,0.671693 0.0127,0.02056 0.0385,0.02785 0.0573,0.01623 0.0189,-0.01163 0.0342,-7.36e-4 0.0342,0.0239 0,0.02477 0.008,0.03655 0.0189,0.02614 0.0105,-0.01041 -0.0241,-0.09598 -0.0768,-0.190161 z m 3.10022,-1.867043 c 0.0249,-0.02511 0.0546,-0.03644 0.0659,-0.02511 0.0113,0.01133 -0.009,0.03189 -0.0453,0.04569 -0.0524,0.01995 -0.0566,0.01574 -0.0206,-0.0206 z"
         id="path182" />
    </g>
  </g>
</svg>
