<?xml version="1.0" encoding="UTF-8" standalone="no"?>
<!-- Created with Inkscape (http://www.inkscape.org/) -->

<svg
   width="41.008999mm"
   height="41.008999mm"
   viewBox="0 0 41.008999 41.009"
   version="1.1"
   id="svg1"
   inkscape:version="1.4.2 (f4327f4, 2025-05-13)"
   sodipodi:docname="246.svg"
   xmlns:inkscape="http://www.inkscape.org/namespaces/inkscape"
   xmlns:sodipodi="http://sodipodi.sourceforge.net/DTD/sodipodi-0.dtd"
   xmlns="http://www.w3.org/2000/svg"
   xmlns:svg="http://www.w3.org/2000/svg">
  <sodipodi:namedview
     id="namedview1"
     pagecolor="#ffffff"
     bordercolor="#000000"
     borderopacity="0.25"
     inkscape:showpageshadow="2"
     inkscape:pageopacity="0.0"
     inkscape:pagecheckerboard="0"
     inkscape:deskcolor="#d1d1d1"
     inkscape:document-units="mm"
     inkscape:zoom="2.8970539"
     inkscape:cx="84.223494"
     inkscape:cy="68.000116"
     inkscape:window-width="1168"
     inkscape:window-height="1081"
     inkscape:window-x="3737"
     inkscape:window-y="0"
     inkscape:window-maximized="0"
     inkscape:current-layer="layer1" />
  <defs
     id="defs1" />
  <g
     inkscape:label="Layer 1"
     inkscape:groupmode="layer"
     id="layer1"
     transform="translate(-114.0891,-77.774176)">
    <g
       id="g188"
       transform="translate(-172.46117,228.27125)">
      <g
         id="g228"
         transform="translate(-88.865522,-74.789676)">
        <ellipse
           style="fill:none;stroke:#ff00ff;stroke-width:0.1;stroke-dasharray:none;stroke-opacity:1"
           id="path1138-9-4-0-0-1-2-6-7-2-6-6-394-3-67-3-5-3"
           cx="395.92029"
           cy="-55.2029"
           rx="18.492125"
           ry="18.492126" />
        <circle
           style="fill:none;stroke:#ff0000;stroke-width:0.1;stroke-dasharray:none"
           id="path788-8-1-8-1-9-2-6-3-4-7-1-6-19-0-1"
           cx="395.92029"
           cy="-55.2029"
           r="19.954653" />
        <circle
           style="fill:none;stroke:#0000ff;stroke-width:0.1;stroke-linecap:round;stroke-dasharray:none;stroke-opacity:1;paint-order:markers stroke fill"
           id="path13019-1-33-3-83-70-3-7-5-3-3-9"
           cx="395.92029"
           cy="-70.213875"
           r="2" />
        <path
           style="fill:#000000;stroke-width:0.139556"
           d="m 392.39357,-39.467558 c -0.0749,-0.04562 -0.15227,-0.06596 -0.19706,-0.05173 -0.15309,0.04859 -0.32162,-0.0204 -0.50504,-0.206723 -0.0991,-0.100673 -0.21001,-0.183041 -0.24648,-0.183041 -0.1182,0 -0.36598,-0.173282 -0.48524,-0.339348 -0.26648,-0.371059 -0.30187,-0.838151 -0.0894,-1.180215 l 0.10672,-0.171828 -0.2012,-0.138566 c -0.22839,-0.157309 -0.82547,-0.772559 -0.96534,-0.994748 -0.0512,-0.08123 -0.2425,-0.372012 -0.42526,-0.646175 -0.53559,-0.803519 -0.77822,-1.386429 -0.93754,-2.25238 -0.0905,-0.492137 -0.0907,-1.772182 -1.4e-4,-2.363152 0.17803,-1.163133 0.5978,-2.384219 1.15037,-3.346355 0.20382,-0.35489 0.20382,-0.35489 0.12541,-0.465 -0.0888,-0.124698 -0.0604,-0.124504 -1.00961,-0.0068 -1.68131,0.208401 -3.45552,0.810902 -4.61305,1.566547 -0.15368,0.100325 -0.27942,0.176305 -0.27942,0.168845 0,-0.0074 0.12047,-0.110887 0.2677,-0.229851 1.23047,-0.994191 3.00089,-1.711064 4.82785,-1.954884 0.25386,-0.03386 0.46584,-0.06524 0.47108,-0.0697 0.005,-0.0045 -0.048,-0.132736 -0.11842,-0.28506 l -0.12796,-0.276952 -0.56131,-0.02429 c -0.83978,-0.03635 -2.66705,-0.02904 -3.33735,0.01331 -0.78123,0.04939 -1.47998,0.131379 -2.06775,0.242634 -0.71633,0.135585 -0.73429,0.135421 -0.31988,-0.003 1.17461,-0.392027 2.78822,-0.602788 4.87078,-0.636192 0.69557,-0.01116 1.26446,-0.03052 1.26422,-0.04304 -2.8e-4,-0.0125 -0.0249,-0.114138 -0.0549,-0.225835 -0.03,-0.111696 -0.0548,-0.248775 -0.0549,-0.304626 -2.8e-4,-0.05585 -0.0101,-0.101541 -0.0219,-0.101541 -0.071,0 -1.47729,-0.26898 -1.49242,-0.285438 -0.0187,-0.02037 0.66665,0.0093 1.19081,0.05147 l 0.28616,0.02303 v -0.46935 c 0,-0.429754 -0.005,-0.467718 -0.0646,-0.450003 -0.41158,0.123239 -1.43127,0.119089 -2.0216,-0.0082 -2.03165,-0.438174 -3.59922,-2.013555 -4.00398,-4.023929 -0.19593,-0.973109 -0.10554,-1.993832 0.25651,-2.896643 0.71729,-1.788632 2.40848,-3.00352 4.29005,-3.0818 0.77946,-0.03242 1.40524,0.102998 2.11598,0.457925 1.2536,0.626037 2.24901,1.901806 2.60363,3.336976 0.0548,0.221984 0.0952,0.32141 0.12357,0.304277 0.0231,-0.01399 0.15403,-0.09758 0.29082,-0.185744 0.13679,-0.08817 0.39086,-0.225664 0.56461,-0.30555 0.17374,-0.0799 0.41075,-0.218175 0.52669,-0.307301 0.66063,-0.507826 1.53478,-0.907101 2.37088,-1.082913 0.57188,-0.120254 1.80791,-0.07016 1.67006,0.06768 -0.0208,0.02081 -0.2514,0.06115 -0.51241,0.08962 -0.58945,0.06432 -0.95043,0.136308 -1.37755,0.274752 -0.30132,0.09766 -1.02484,0.430745 -0.99322,0.457236 0.007,0.006 0.11278,-0.0018 0.23462,-0.01765 0.50385,-0.06508 1.21571,-0.02693 1.84622,0.09888 0.68889,0.137477 1.57803,0.504399 2.00457,0.827235 0.10666,0.08073 0.20804,0.146771 0.22529,0.146771 0.0172,0 0.0505,-0.09685 0.0737,-0.215214 0.12168,-0.61846 0.51091,-1.479767 0.90489,-2.002357 0.46995,-0.623369 1.15128,-1.192911 1.79478,-1.500315 0.62242,-0.297341 1.10305,-0.414999 1.80929,-0.442933 0.83909,-0.0332 1.47626,0.111678 2.26623,0.515256 1.39562,0.712978 2.38815,2.10383 2.62791,3.682488 0.10356,0.681932 0.0412,1.655381 -0.14448,2.253636 -0.67232,2.166691 -2.68488,3.655608 -4.93902,3.653964 -0.34329,-2.78e-4 -0.75061,-0.04237 -0.9276,-0.09592 -0.0591,-0.01792 -0.0646,0.01995 -0.0646,0.449573 v 0.469127 l 0.19679,-0.02315 c 0.2947,-0.03465 1.30145,-0.07425 1.27992,-0.05036 -0.0103,0.01143 -0.32601,0.07289 -0.70157,0.136568 -0.37554,0.06368 -0.70894,0.123284 -0.74088,0.13245 -0.0405,0.01161 -0.0708,0.09814 -0.0999,0.285957 -0.023,0.148114 -0.0527,0.297475 -0.0659,0.331911 -0.0222,0.05791 0.0505,0.06262 0.96765,0.06268 2.13404,1.37e-4 4.06223,0.244962 5.3672,0.681482 0.30546,0.102179 0.28456,0.100699 -0.46155,-0.03268 -0.63935,-0.114308 -1.31796,-0.191894 -2.16007,-0.246969 -0.77947,-0.05097 -3.7907,-0.02296 -3.84947,0.03579 -0.0281,0.02804 -0.24913,0.510687 -0.24913,0.543892 0,0.003 0.11216,0.01639 0.24925,0.03008 1.05419,0.105336 2.29095,0.431935 3.24029,0.85568 0.68597,0.306196 1.61229,0.880011 2.0491,1.269334 0.10443,0.09308 0.0765,0.08226 -0.14528,-0.05637 -1.40736,-0.879468 -2.96154,-1.382648 -5.00565,-1.62063 -0.69006,-0.08034 -0.63913,-0.09067 -0.83826,0.169977 l -0.17307,0.226525 0.12901,0.25616 c 0.99013,1.96615 1.30492,4.479711 0.77705,6.204852 -0.0296,0.09647 -0.0418,0.175392 -0.0273,0.175392 0.0145,0 0.17489,-0.05089 0.3564,-0.113083 0.51238,-0.175575 1.3943,-0.392433 1.86236,-0.457941 0.78565,-0.109961 1.6569,-0.07519 2.32829,0.09291 1.25403,0.313981 2.19725,1.072305 2.49157,2.003142 0.10157,0.321266 0.11207,0.433115 0.0467,0.49842 -0.0821,0.08213 -0.17978,0.04524 -0.46528,-0.175789 -1.59736,-1.236687 -3.50655,-1.327824 -6.16447,-0.294262 -0.30971,0.120427 -0.82479,0.320594 -1.14465,0.444809 -0.58156,0.225843 -0.58156,0.225843 -0.87082,0.51716 -0.28425,0.286269 -0.62403,0.567657 -0.79384,0.657395 -0.0785,0.04148 -0.0811,0.05112 -0.0291,0.108555 0.10554,0.116611 0.17972,0.354137 0.18204,0.582872 0.002,0.184179 -0.0202,0.272875 -0.11668,0.468843 -0.18559,0.376982 -0.5492,0.646367 -0.76216,0.564647 -0.0306,-0.01176 -0.0557,-0.0076 -0.0557,0.0092 0,0.05656 -0.30285,0.375243 -0.40857,0.429907 -0.28344,0.146575 -0.45744,-7.26e-4 -0.50172,-0.424165 -0.0129,-0.122787 -0.0376,-0.223249 -0.055,-0.223249 -0.0174,0 -0.0317,0.01472 -0.0317,0.03272 0,0.06697 -0.25934,0.157583 -0.377,0.13174 -0.29301,-0.06436 -0.60345,-0.555972 -0.64744,-1.025289 -0.0202,-0.214658 -0.0202,-0.214658 -0.15326,-0.193838 -0.39032,0.06105 -1.04129,0.09458 -1.83668,0.09461 l -0.89124,3.3e-5 -0.0443,0.234673 c -0.0878,0.465245 -0.43755,0.909977 -0.71567,0.909977 -0.11026,0 -0.26925,-0.0786 -0.32504,-0.160703 -0.0134,-0.01967 -0.0364,0.06246 -0.0511,0.18248 -0.0329,0.267226 -0.0657,0.359352 -0.16314,0.456765 -0.0958,0.0958 -0.24444,0.09576 -0.40168,-1.15e-4 z m 0.26874,-0.815602 c 0.0476,-0.230874 0.10355,-0.462889 0.12436,-0.515586 0.0473,-0.119768 0.14348,-0.218045 0.21338,-0.218045 0.0766,0 0.18105,0.189829 0.23363,0.424799 0.0249,0.111604 0.0616,0.202914 0.0815,0.202914 0.0625,0 0.21187,-0.186422 0.2616,-0.326663 0.084,-0.236806 0.0625,-1.137991 -0.0379,-1.587627 -0.10471,-0.468987 -0.29959,-1.036432 -0.4878,-1.420418 -0.16388,-0.334352 -0.10222,-0.306596 0.14623,0.06583 0.36867,0.55259 0.60548,1.071118 0.7583,1.660337 0.0523,0.201798 0.10453,0.376267 0.11598,0.387702 0.0115,0.01146 0.43066,0.02081 0.93159,0.02081 0.85938,0 1.80541,-0.06225 1.9853,-0.130644 0.0548,-0.02081 0.10201,-0.09457 0.14542,-0.227028 0.14031,-0.427989 0.48005,-1.027012 0.90708,-1.599311 0.43162,-0.578463 0.44098,-0.570792 0.11282,0.09255 -0.54472,1.101144 -0.7248,1.664732 -0.72548,2.270598 -3.8e-4,0.351244 0.0108,0.427221 0.0828,0.561863 0.0915,0.171182 0.22044,0.268728 0.24784,0.187447 0.009,-0.02626 0.0353,-0.12252 0.0587,-0.213905 0.0665,-0.259355 0.13592,-0.369245 0.23318,-0.369245 0.17269,0 0.2752,0.217139 0.37352,0.791072 0.0311,0.181238 0.0625,0.335565 0.0699,0.342954 0.0427,0.04274 0.25653,-0.392554 0.32312,-0.657914 0.0896,-0.357115 0.12607,-0.439186 0.19507,-0.439186 0.086,0 0.13546,0.09743 0.17716,0.349036 l 0.0404,0.244013 0.0902,-0.08421 c 0.2083,-0.194524 0.26535,-0.508973 0.13335,-0.734989 -0.0987,-0.168982 -0.34691,-0.350591 -0.578,-0.422881 -0.11716,-0.03665 -0.40126,-0.06947 -0.72761,-0.08402 l -0.53541,-0.02389 0.16616,-0.09817 c 0.40084,-0.23681 0.94104,-0.299147 1.31717,-0.151994 0.19097,0.07472 0.19097,0.07472 0.34611,-0.01338 1.07031,-0.607954 2.15475,-2.325855 2.42087,-3.835032 0.0886,-0.502574 0.089,-1.571396 5.6e-4,-2.17853 -0.0786,-0.540809 -0.23335,-1.199039 -0.40373,-1.71743 -0.1212,-0.368762 -0.48368,-1.236201 -0.54586,-1.306265 -0.016,-0.01807 -0.134,0.06259 -0.26216,0.17922 -0.52378,0.476613 -1.43923,0.994825 -2.21012,1.25109 -0.9846,0.327309 -1.68284,0.440059 -2.74921,0.443943 -1.47501,0.0053 -2.63578,-0.247315 -3.8032,-0.827924 -0.57834,-0.287635 -1.01677,-0.586964 -1.47795,-1.009047 l -0.31089,-0.284522 -0.29434,0.601588 c -0.45644,0.932922 -0.67813,1.610047 -0.86185,2.632421 -0.11709,0.651639 -0.11459,1.898527 0.005,2.455463 0.16214,0.755498 0.40318,1.302502 0.91206,2.069709 0.52409,0.790156 0.97433,1.282711 1.40118,1.53286 0.15069,0.08831 0.15069,0.08831 0.35185,0.0115 0.29998,-0.114557 0.74467,-0.08755 1.06952,0.06496 0.22717,0.106652 0.49974,0.300736 0.46755,0.332921 -0.008,0.0082 -0.16064,-0.01046 -0.33871,-0.04152 -0.61403,-0.107078 -0.98743,-0.0582 -1.33429,0.174662 -0.20568,0.13808 -0.34453,0.357672 -0.3454,0.546269 -2.8e-4,0.07217 0.0446,0.221709 0.0999,0.332316 l 0.10048,0.201104 0.0415,-0.251391 c 0.0466,-0.282853 0.12462,-0.399383 0.21631,-0.323283 0.031,0.02567 0.0664,0.107334 0.0787,0.181449 0.0412,0.2471 0.16335,0.576573 0.25522,0.688619 l 0.0908,0.110773 0.002,-0.339148 c 0.002,-0.365191 0.0385,-0.516807 0.13534,-0.553981 0.088,-0.03375 0.16128,0.08543 0.16196,0.263242 8.8e-4,0.286766 0.17444,0.817961 0.24416,0.748239 0.01,-0.0095 0.0562,-0.206187 0.10381,-0.437062 z m -0.374,-4.539611 c -0.085,-0.04211 -0.1736,-0.09936 -0.19672,-0.127202 -0.0298,-0.03598 -0.0672,-0.04106 -0.12897,-0.01758 -0.12702,0.0483 -0.29223,-0.01169 -0.5234,-0.190025 -0.73509,-0.567119 -1.28006,-1.735015 -1.3635,-2.922043 -0.0227,-0.323232 0.0172,-0.946728 0.0501,-0.783581 0.31706,1.569528 0.76966,2.625637 1.37672,3.212411 0.18835,0.182051 0.19072,0.183082 0.17006,0.07385 -0.066,-0.348644 -0.0659,-0.372799 0.002,-0.456372 0.10022,-0.123759 0.16394,-0.07422 0.31802,0.24723 0.13028,0.271795 0.47059,0.681768 0.4188,0.504536 -0.0922,-0.315527 -0.13695,-0.558929 -0.12731,-0.692288 0.0101,-0.139787 0.0223,-0.158229 0.11128,-0.168497 0.09,-0.01038 0.11265,0.0135 0.22782,0.240008 0.0703,0.138344 0.19066,0.315257 0.26735,0.393136 0.13896,0.141108 0.13955,0.141301 0.17181,0.05538 0.0412,-0.109764 -0.0194,-0.5279 -0.12142,-0.837401 -0.16857,-0.51148 -0.0275,-0.660455 0.33952,-0.35837 0.11223,0.09239 0.21503,0.167989 0.22844,0.167989 0.0769,0 -0.0985,-0.688549 -0.25708,-1.009451 -0.3472,-0.702522 -0.95009,-1.266332 -1.89793,-1.774867 -0.17262,-0.09261 -0.29724,-0.168412 -0.27693,-0.168441 0.10271,-1.38e-4 0.64148,0.157795 0.88707,0.260037 1.04029,0.433071 1.79289,1.37709 1.93701,2.429661 0.0597,0.436258 0.009,0.625893 -0.18887,0.700987 -0.0501,0.01906 -0.13221,0.02681 -0.18236,0.01725 -0.0912,-0.01743 -0.0912,-0.01743 -0.0904,0.38856 5.6e-4,0.35459 -0.009,0.419204 -0.0765,0.510389 -0.12567,0.170014 -0.25433,0.215485 -0.42263,0.149376 -0.14079,-0.0553 -0.14079,-0.0553 -0.18628,0.05451 -0.0416,0.10048 -0.15757,0.177487 -0.26713,0.177417 -0.0241,-1.8e-5 -0.11337,-0.03449 -0.19844,-0.07661 z m 6.10221,-0.0096 c -0.0523,-0.05226 -0.095,-0.120703 -0.095,-0.152087 0,-0.06408 -0.0574,-0.07661 -0.0923,-0.02014 -0.0396,0.0641 -0.33353,0.04355 -0.39599,-0.02771 -0.14806,-0.168852 -0.18345,-0.305876 -0.17052,-0.66018 l 0.0126,-0.346063 -0.14089,2.7e-5 c -0.18704,4e-5 -0.26754,-0.04807 -0.31678,-0.189321 -0.0566,-0.162276 -0.051,-0.392068 0.0175,-0.723757 0.22268,-1.07808 1.0693,-1.992448 2.17561,-2.349728 0.19469,-0.06287 0.5354,-0.133826 0.5354,-0.1115 0,0.0073 -0.0967,0.06199 -0.21492,0.121656 -0.58612,0.295876 -1.24242,0.824155 -1.58178,1.273228 -0.3182,0.421064 -0.59745,1.139635 -0.56005,1.441127 0.0121,0.09725 0.0121,0.09725 0.19669,-0.06413 0.21268,-0.185907 0.27053,-0.212686 0.36001,-0.166668 0.0852,0.04381 0.0827,0.187899 -0.009,0.518702 -0.0877,0.316473 -0.13033,0.685415 -0.0953,0.824924 l 0.0253,0.100687 0.12565,-0.121774 c 0.0691,-0.06698 0.1842,-0.233239 0.2558,-0.369468 0.14657,-0.278948 0.20669,-0.342958 0.29151,-0.31041 0.10245,0.03931 0.10738,0.159306 0.022,0.535717 -0.0457,0.201665 -0.0705,0.379012 -0.0551,0.394101 0.0496,0.0485 0.28096,-0.258917 0.43097,-0.572583 0.11042,-0.23092 0.16348,-0.304622 0.21926,-0.304622 0.11729,0 0.1643,0.151007 0.12114,0.389138 -0.0467,0.257722 -0.0177,0.250178 0.24626,-0.06414 0.51515,-0.613299 0.91414,-1.558884 1.15061,-2.726892 l 0.0856,-0.422814 0.0324,0.258468 c 0.0422,0.336552 -0.0264,1.0641 -0.14218,1.508925 -0.17885,0.687158 -0.48724,1.280205 -0.89623,1.723483 -0.31647,0.342999 -0.53753,0.486253 -0.72865,0.472184 -0.11217,-0.0083 -0.1842,0.01376 -0.29945,0.0915 -0.0834,0.05631 -0.21102,0.111993 -0.28345,0.123748 -0.10865,0.01762 -0.14833,0.0047 -0.22672,-0.07365 z m 3.63989,1.271006 c 1.6139,-0.643133 2.67431,-0.894892 3.77917,-0.897228 0.42972,-0.0011 0.64077,0.01687 0.94157,0.0794 0.4906,0.101961 0.97211,0.262263 1.33851,0.445612 0.15738,0.07876 0.28616,0.128347 0.28616,0.110198 0,-0.01813 -0.11952,-0.133603 -0.26561,-0.256573 -0.46832,-0.394212 -1.2698,-0.742062 -1.96831,-0.854275 -0.42828,-0.0688 -1.32203,-0.05956 -1.80929,0.01873 -0.64023,0.102848 -1.70681,0.401209 -2.38966,0.668483 -0.0349,0.01365 -0.14431,0.168645 -0.24314,0.344419 -0.0988,0.175775 -0.21732,0.381901 -0.26329,0.458056 -0.0459,0.07615 -0.0753,0.138466 -0.0652,0.138466 0.0101,0 0.30672,-0.114876 0.65905,-0.255282 z m -5.34111,-6.136987 c 1.10248,-0.124239 2.2341,-0.53292 3.13855,-1.133485 0.34269,-0.227549 1.23697,-1.05597 1.23697,-1.145875 0,-0.01844 -0.29494,-0.04506 -0.65541,-0.05915 -0.36048,-0.0141 -0.72187,-0.03176 -0.8031,-0.03918 -0.0813,-0.0074 -0.57971,-0.02385 -1.10773,-0.03646 -0.91372,-0.02181 -1.38666,-0.0451 -1.41111,-0.06956 -0.0136,-0.01365 0.66362,-0.08591 1.26341,-0.134839 0.24371,-0.01988 1.01815,-0.04682 1.721,-0.05986 l 1.27791,-0.02371 0.11788,-0.239051 0.11788,-0.23905 -0.47268,0.02504 c -1.32644,0.07029 -3.08874,0.21833 -3.7774,0.317334 -0.3252,0.04675 -0.38336,0.03907 -0.18463,-0.02437 0.89029,-0.284239 2.51969,-0.560382 4.01721,-0.680814 0.44908,-0.03613 0.57092,-0.05752 0.59473,-0.104453 0.0343,-0.06758 0.12554,-0.522853 0.1077,-0.537349 -0.022,-0.01795 -3.68305,0.726027 -4.44062,0.902429 -0.16315,0.03798 -0.30124,0.06444 -0.3069,0.05879 -0.0248,-0.02474 0.91001,-0.360554 1.44627,-0.51957 0.92269,-0.273602 1.63906,-0.42202 3.22981,-0.669149 l 0.12497,-0.01944 -0.0192,-0.634338 c -0.0329,-1.083922 -0.22076,-1.760583 -0.83231,-2.997307 -0.51658,-1.04463 -0.57431,-1.219106 -0.57425,-1.735623 8e-5,-0.834958 0.33135,-1.579853 1.00347,-2.256344 0.78911,-0.794247 1.85913,-1.252496 3.08939,-1.323066 l 0.36924,-0.02118 -0.40617,0.105914 c -1.19575,0.311808 -1.99916,0.711206 -2.62336,1.304137 -0.62157,0.590429 -0.9293,1.199985 -0.96607,1.913608 -0.0277,0.537348 0.0233,0.706027 0.52361,1.735438 0.4569,0.939873 0.63425,1.406126 0.76065,1.999681 0.0447,0.210063 0.0981,0.392747 0.11871,0.405967 0.0893,0.0574 0.66968,0.123336 1.06028,0.120447 0.5233,-0.0039 0.90946,-0.06252 1.36619,-0.207485 0.99071,-0.314441 1.87802,-0.971917 2.43455,-1.803954 0.37915,-0.566834 0.59473,-1.070681 0.72943,-1.704893 0.0923,-0.434383 0.091,-1.408103 -0.003,-1.837549 -0.42877,-1.970516 -2.05522,-3.423352 -3.99228,-3.5661 -1.67767,-0.123636 -3.40581,0.986707 -4.12357,2.649428 -0.35243,0.816425 -0.43537,1.43507 -0.30976,2.310561 0.0164,0.114701 0.0138,0.193853 -0.006,0.193853 -0.0189,0 -0.11597,-0.143503 -0.21578,-0.318895 -0.0998,-0.175396 -0.23963,-0.38596 -0.31071,-0.467923 -0.20138,-0.232218 -0.68391,-0.572564 -1.08927,-0.768301 -0.52151,-0.251822 -0.89246,-0.339612 -1.42158,-0.336426 -0.5246,0.003 -0.86969,0.08689 -1.32305,0.32105 -0.51833,0.267705 -0.81615,0.542884 -1.32348,1.222864 -0.0803,0.10762 -0.0803,0.10762 -0.0269,-0.103733 0.15361,-0.606767 0.59452,-1.196034 1.1388,-1.521956 0.24563,-0.147087 0.21941,-0.156548 -0.21937,-0.07918 -0.66324,0.116949 -1.15748,0.275909 -1.69004,0.543543 -0.6763,0.339876 -0.98314,0.607387 -1.25075,1.09045 -0.10736,0.193802 -0.20125,0.334227 -0.20863,0.31206 -0.007,-0.02218 0.004,-0.155859 0.0264,-0.297093 0.14005,-0.902595 -0.12438,-1.903708 -0.75105,-2.84347 -0.87423,-1.310995 -2.34149,-2.051087 -3.74904,-1.891033 -1.06359,0.120944 -1.89157,0.51977 -2.64646,1.274767 -0.87837,0.878492 -1.31897,1.94836 -1.31728,3.198631 8.8e-4,0.773999 0.15818,1.413938 0.52054,2.119991 0.94237,1.836117 3.06399,2.854274 5.04827,2.422639 l 0.18522,-0.04028 0.0649,-0.352924 c 0.10303,-0.560079 0.33269,-1.189618 0.74595,-2.044734 0.46855,-0.969492 0.5164,-1.119246 0.51326,-1.606204 -0.002,-0.312949 -0.0197,-0.418893 -0.11572,-0.694907 -0.16276,-0.467659 -0.4176,-0.871611 -0.785,-1.244324 -0.64037,-0.649635 -1.43183,-1.054445 -2.74731,-1.405185 l -0.40971,-0.109238 0.36923,0.02226 c 1.93366,0.116504 3.50385,1.204373 4.04678,2.803696 0.0745,0.219354 0.0878,0.331114 0.0883,0.738487 5.6e-4,0.603199 -0.0486,0.765218 -0.52723,1.733973 -0.59033,1.194921 -0.77349,1.87012 -0.80848,2.980467 l -0.0217,0.689699 0.1251,0.0198 c 0.0688,0.01087 0.34943,0.05501 0.62359,0.09805 1.30001,0.204105 2.53074,0.511866 3.5921,0.898256 0.35056,0.127624 0.58437,0.236068 0.41419,0.192113 -0.0406,-0.0105 -1.08743,-0.227318 -2.32623,-0.481843 -1.23882,-0.254522 -2.28146,-0.469492 -2.317,-0.477711 -0.0814,-0.01881 -0.0807,0.06536 0.003,0.365851 l 0.0618,0.221546 0.35066,0.02756 c 1.33421,0.104905 2.93945,0.351775 3.87692,0.596229 0.42068,0.109698 0.57238,0.164584 0.46155,0.166999 -0.0406,7.26e-4 -0.18185,-0.01394 -0.31385,-0.03294 -0.95444,-0.137347 -4.17245,-0.382454 -4.17245,-0.317805 0,0.01298 0.0488,0.120313 0.1085,0.238523 l 0.10849,0.214933 1.32233,0.0234 c 1.28527,0.02274 1.78448,0.05 2.53336,0.138397 0.58892,0.06951 0.45568,0.09159 -0.74949,0.124241 -1.09953,0.02979 -2.70389,0.09686 -2.76271,0.115499 -0.0627,0.01988 0.0448,0.176413 0.32429,0.472229 0.98164,1.039033 2.60766,1.730912 4.3954,1.870258 0.43403,0.03383 1.21449,0.01484 1.71698,-0.04179 z m -1.33241,-0.45428 c -0.20132,-0.08765 -0.34182,-0.337234 -0.21384,-0.379844 0.0227,-0.0076 0.0932,0.02967 0.15639,0.08284 0.18003,0.151486 0.34377,0.181913 0.53135,0.09875 0.0863,-0.03826 0.17975,-0.0972 0.20762,-0.130967 0.11783,-0.142743 0.24078,-0.01617 0.13746,0.141509 -0.137,0.209083 -0.55163,0.304118 -0.81898,0.18771 z m -1.00372,-0.835944 c -0.3165,-0.06236 -0.77653,-0.370766 -0.73576,-0.493246 0.0268,-0.08049 0.12893,-0.05841 0.31785,0.06872 0.19094,0.128496 0.49571,0.242143 0.64935,0.242143 0.17084,0 0.47214,-0.12052 0.60789,-0.24317 0.15254,-0.137814 0.27172,-0.357985 0.31116,-0.574831 0.0322,-0.177199 -0.0104,-0.437421 -0.0717,-0.437421 -0.0766,0 -0.2808,-0.189837 -0.33002,-0.306893 -0.0279,-0.06626 -0.11332,-0.144836 -0.22284,-0.204914 -0.48938,-0.26842 -0.56423,-0.815447 -0.15435,-1.128077 0.25525,-0.194692 0.46084,-0.258487 0.83834,-0.26016 0.39819,-0.0018 0.579,0.04242 0.81603,0.199421 0.49247,0.326199 0.43107,0.956138 -0.11729,1.203412 -0.0857,0.03867 -0.15659,0.104026 -0.1837,0.169475 -0.0449,0.108403 -0.26689,0.327736 -0.33171,0.327736 -0.0499,0 -0.0446,0.442577 0.007,0.594507 0.10393,0.305814 0.37801,0.55762 0.68376,0.6282 0.25409,0.05865 0.53944,-0.0075 0.82319,-0.190934 0.12389,-0.08008 0.24962,-0.145592 0.27939,-0.145592 0.10476,0 0.0525,0.143381 -0.0999,0.273762 -0.31344,0.268301 -0.80313,0.36183 -1.19995,0.229187 -0.1864,-0.0623 -0.43915,-0.26592 -0.5785,-0.466024 -0.0499,-0.07164 -0.0694,-0.08028 -0.087,-0.03859 -0.0534,0.126862 -0.36021,0.405682 -0.52049,0.473128 -0.21328,0.08975 -0.49102,0.121511 -0.70089,0.08016 z m 1.38836,-1.68132 c 0.0463,-0.03238 0.12056,-0.134768 0.16514,-0.227499 0.0646,-0.134527 0.11041,-0.178672 0.2263,-0.218446 0.18079,-0.06205 0.27526,-0.144427 0.33941,-0.295961 0.24789,-0.585618 -0.94878,-0.971213 -1.57661,-0.50802 -0.15848,0.116923 -0.2159,0.220838 -0.21754,0.393719 -8.7e-4,0.108615 0.0257,0.164238 0.12816,0.266706 0.0712,0.07121 0.18336,0.143256 0.24924,0.160103 0.0915,0.0234 0.14283,0.07295 0.21754,0.209992 0.14158,0.259711 0.30291,0.33529 0.46836,0.219406 z m -3.65033,-1.614854 c -0.39746,-0.08773 -0.7642,-0.381893 -0.95155,-0.763249 -0.0892,-0.18153 -0.0998,-0.244225 -0.0998,-0.590787 0,-0.35426 0.009,-0.406772 0.10854,-0.608778 0.52009,-1.059274 1.96175,-1.048785 2.47211,0.01799 0.1039,0.217194 0.11473,0.273353 0.11392,0.590787 -5.6e-4,0.283647 -0.0168,0.385551 -0.0838,0.53246 -0.28065,0.61519 -0.93432,0.959569 -1.55946,0.821577 z m 0.5126,-1.702046 c 0.18107,-0.09363 0.24832,-0.377892 0.13157,-0.556066 -0.0699,-0.106749 -0.26698,-0.179138 -0.39805,-0.146245 -0.2844,0.07138 -0.38306,0.438027 -0.17409,0.646995 0.12167,0.121667 0.27503,0.140921 0.44057,0.05532 z m 5.89045,1.681523 c -0.38523,-0.09985 -0.7402,-0.3934 -0.92101,-0.761658 -0.0981,-0.199873 -0.10854,-0.256488 -0.10854,-0.590317 0,-0.323339 0.0122,-0.395491 0.099,-0.580379 0.26992,-0.575914 0.89624,-0.919324 1.46298,-0.802145 0.46265,0.09566 0.81297,0.36061 1.01239,0.765672 0.11246,0.228453 0.12113,0.27253 0.12113,0.616077 0,0.33469 -0.0104,0.391126 -0.10854,0.591092 -0.22974,0.467919 -0.65793,0.754718 -1.16207,0.778357 -0.15411,0.0073 -0.332,-2.81e-4 -0.39531,-0.01669 z m 0.45258,-1.719747 c 0.18868,-0.132157 0.20276,-0.469622 0.0254,-0.609123 -0.26737,-0.210311 -0.68024,0.02236 -0.61898,0.348859 0.0482,0.25697 0.38649,0.405303 0.59357,0.260264 z"
           id="path180" />
      </g>
    </g>
  </g>
</svg>
