<?xml version="1.0" encoding="UTF-8" standalone="no"?>
<!-- Created with Inkscape (http://www.inkscape.org/) -->

<svg
   width="41.008999mm"
   height="41.008999mm"
   viewBox="0 0 41.008999 41.009"
   version="1.1"
   id="svg1"
   inkscape:version="1.4.2 (f4327f4, 2025-05-13)"
   sodipodi:docname="249.svg"
   xmlns:inkscape="http://www.inkscape.org/namespaces/inkscape"
   xmlns:sodipodi="http://sodipodi.sourceforge.net/DTD/sodipodi-0.dtd"
   xmlns="http://www.w3.org/2000/svg"
   xmlns:svg="http://www.w3.org/2000/svg">
  <sodipodi:namedview
     id="namedview1"
     pagecolor="#ffffff"
     bordercolor="#000000"
     borderopacity="0.25"
     inkscape:showpageshadow="2"
     inkscape:pageopacity="0.0"
     inkscape:pagecheckerboard="0"
     inkscape:deskcolor="#d1d1d1"
     inkscape:document-units="mm"
     inkscape:zoom="2.8970539"
     inkscape:cx="84.223494"
     inkscape:cy="68.000116"
     inkscape:window-width="1168"
     inkscape:window-height="1081"
     inkscape:window-x="3737"
     inkscape:window-y="0"
     inkscape:window-maximized="0"
     inkscape:current-layer="layer1" />
  <defs
     id="defs1" />
  <g
     inkscape:label="Layer 1"
     inkscape:groupmode="layer"
     id="layer1"
     transform="translate(-114.0891,-77.774176)">
    <g
       id="g191"
       transform="translate(-387.85733,153.45534)">
      <circle
         style="fill:none;stroke:#ff0000;stroke-width:0.1;stroke-dasharray:none"
         id="path788-8-1-8-1-9-2-56-8-1-7-71-3-2-7-5-1"
         cx="522.45093"
         cy="-55.176662"
         r="19.954653" />
      <ellipse
         style="fill:none;stroke:#ff00ff;stroke-width:0.1;stroke-dasharray:none;stroke-opacity:1"
         id="path1138-9-4-0-0-1-2-4-9-7-82-6-75-2-1-90-3"
         cx="522.45093"
         cy="-55.176662"
         rx="18.492125"
         ry="18.492126" />
      <circle
         style="fill:none;stroke:#0000ff;stroke-width:0.1;stroke-linecap:round;stroke-dasharray:none;stroke-opacity:1;paint-order:markers stroke fill"
         id="path13019-1-33-6-2-4-0-0-76-9-2-75-0"
         cx="522.45093"
         cy="-70.187653"
         r="2" />
      <path
         style="fill:#000000;stroke-width:0.220782"
         d="m 522.3847,-41.505373 c -0.1702,-0.02357 -1.09139,-0.3673 -1.43118,-0.534024 -0.41815,-0.205184 -0.90616,-0.287028 -1.86927,-0.313486 -1.55547,-0.04273 -2.89489,-0.352068 -4.2195,-0.97447 l -0.59774,-0.280871 -0.18976,0.356022 c -0.36859,0.691543 -0.98272,1.212108 -1.42997,1.212108 -0.33402,0 -0.36916,-0.193883 -0.10061,-0.554943 0.11596,-0.155907 0.12055,-0.184233 0.0415,-0.256696 -0.0632,-0.05801 -0.0785,-0.142076 -0.0528,-0.292077 0.11701,-0.686315 0.14093,-0.912057 0.0996,-0.939375 -0.13057,-0.08619 -0.18324,-0.30102 -0.12596,-0.51371 0.0592,-0.219709 0.0592,-0.219709 -0.48509,-0.777388 -0.57471,-0.588886 -1.40113,-1.602021 -2.02139,-2.478118 -0.20473,-0.289155 -0.39724,-0.558595 -0.4278,-0.598756 -0.0305,-0.04015 -0.0429,-0.07302 -0.0275,-0.07302 0.0154,0 0.22234,0.25623 0.45987,0.5694 1.66293,2.192398 3.16805,3.607325 4.66699,4.387268 0.97962,0.50973 2.30736,0.918956 3.32966,1.026239 0.27267,0.02862 0.21962,0.0035 -0.35049,-0.165942 -2.30453,-0.684923 -3.7103,-1.450852 -5.09876,-2.778032 -0.75882,-0.725338 -1.27068,-1.329037 -2.40904,-2.841333 -0.84059,-1.116714 -1.23723,-1.541148 -1.44023,-1.541148 -0.12248,0 -0.14291,-0.09029 -0.0301,-0.133524 0.15307,-0.05873 0.44351,0.130602 0.66716,0.434906 1.71992,2.340222 2.66873,3.491038 3.43997,4.172341 1.2973,1.146016 2.44537,1.808216 4.02791,2.323254 0.93479,0.304229 2.03687,0.559758 2.77093,0.642463 0.22605,0.02546 0.24841,0.01895 0.15964,-0.04653 -0.0567,-0.04189 -0.26707,-0.09348 -0.46732,-0.11467 -1.79796,-0.190219 -4.04694,-1.17562 -5.66446,-2.481919 -0.7108,-0.574024 -1.1474,-1.098313 -2.95568,-3.549195 -0.49966,-0.677232 -0.9362,-1.130294 -1.08908,-1.130294 -0.0489,0 -0.0889,-0.02629 -0.0889,-0.05842 0,-0.118379 0.23544,-0.05329 0.43224,0.119509 0.11145,0.09786 0.63607,0.774743 1.16582,1.504189 0.52975,0.729447 1.17768,1.583058 1.43983,1.896913 0.89513,1.071656 1.92812,1.843541 3.44815,2.576553 1.21062,0.583811 2.15825,0.893909 3.06483,1.002929 0.34931,0.042 0.35014,0.04175 0.24458,-0.07657 -0.0679,-0.07604 -0.2463,-0.144819 -0.49653,-0.191363 -1.72092,-0.320095 -3.82559,-1.590853 -5.07595,-3.064781 -0.39787,-0.469 -0.54275,-0.658376 -1.64071,-2.14464 -0.49211,-0.666146 -0.65633,-0.843695 -0.97259,-1.051473 -0.38416,-0.252382 -0.45798,-0.337613 -0.29242,-0.337613 0.28416,0 0.56714,0.276771 1.22437,1.19751 1.66263,2.329231 2.60483,3.313524 4.00316,4.182048 0.82318,0.511289 2.0069,0.995436 2.76359,1.130319 0.27015,0.04814 0.24498,-0.045 -0.0448,-0.166107 -0.10548,-0.04407 -0.25098,-0.163264 -0.32332,-0.26487 -0.0723,-0.101608 -0.23431,-0.225864 -0.35993,-0.276123 -0.23775,-0.09513 -0.40703,-0.286118 -0.49601,-0.559633 -0.0574,-0.176367 -0.41329,-0.442448 -1.02741,-0.768111 -1.32959,-0.705067 -2.26238,-1.505937 -3.22117,-2.76563 -0.53387,-0.701398 -0.69029,-0.850515 -1.05596,-1.006717 -0.20747,-0.08862 -0.2694,-0.140326 -0.22333,-0.186407 0.0767,-0.07671 0.27151,-0.0323 0.51313,0.116974 0.0979,0.06047 0.39738,0.422454 0.66559,0.804419 0.56813,0.809074 1.45325,1.717552 2.13565,2.192005 0.433,0.301058 1.27023,0.809876 1.33261,0.809876 0.0149,0 -0.0351,-0.15115 -0.11104,-0.335887 -0.076,-0.184738 -0.1385,-0.375318 -0.13897,-0.42351 -0.002,-0.273304 0.684,-1.109888 0.91092,-1.109888 0.0521,0 0.19999,0.119627 0.32869,0.265838 0.33785,0.383829 0.74224,0.637788 2.08813,1.311371 1.77463,0.888166 2.15042,1.178635 2.87213,2.220089 0.4296,0.619939 0.54182,0.656407 0.13598,0.0442 -0.62542,-0.943475 -1.56641,-1.714217 -2.68683,-2.200723 -1.11895,-0.485868 -1.72305,-0.826777 -2.11532,-1.193719 -0.40596,-0.379766 -0.58054,-0.661225 -0.69393,-1.118828 -0.0579,-0.233496 -0.0734,-0.256927 -0.0775,-0.116831 -0.005,0.153978 -0.0268,0.176025 -0.184,0.181658 -0.0984,0.0035 -0.25606,0.06346 -0.35035,0.133182 -0.227,0.167824 -0.21793,0.06441 0.0184,-0.209753 0.18234,-0.211556 0.18358,-0.216254 0.0313,-0.118864 -0.0872,0.05577 -0.17129,0.1014 -0.18681,0.1014 -0.0767,0 0.1129,-0.365902 0.24228,-0.467673 0.0815,-0.06406 0.11825,-0.116478 0.0818,-0.116478 -0.175,0 -0.41678,0.39275 -0.41678,0.677023 0,0.273214 -0.48054,0.338459 -1.01634,0.137993 -0.41864,-0.156632 -0.92157,-0.528514 -1.74423,-1.28971 -0.36871,-0.341157 -0.82503,-0.725242 -1.01404,-0.853523 -1.4379,-0.975888 -3.86512,-1.607242 -4.64471,-1.208154 -0.16658,0.08528 -0.22613,0.191736 -0.22613,0.404218 0,0.241648 0.0667,0.323773 0.40165,0.494279 0.1807,0.09199 0.4337,0.28007 0.5622,0.417955 l 0.23366,0.250701 -0.24616,-0.214327 c -0.1354,-0.117879 -0.37198,-0.278123 -0.52574,-0.356096 -0.37183,-0.18856 -0.50739,-0.348057 -0.50739,-0.597011 0,-0.272594 0.21948,-0.490277 0.53731,-0.532907 0.19573,-0.02626 0.26868,-0.07399 0.39777,-0.260249 0.1781,-0.257013 0.55332,-0.548165 0.98678,-0.765705 1.33664,-0.670814 3.45028,-0.678689 5.24997,-0.01955 0.50294,0.184203 1.47577,0.528584 1.99351,0.705698 0.83618,0.286049 1.29633,0.349905 2.94997,0.409359 1.12503,0.04045 1.81131,0.146147 2.54105,0.39136 0.41291,0.138746 0.58662,0.169481 0.8094,0.143205 0.156,-0.01841 0.31372,-0.05831 0.35049,-0.0887 0.14791,-0.122241 1.51576,-0.539983 1.78845,-0.546195 0.53942,-0.01228 0.62533,0.237629 0.15343,0.446327 -0.37819,0.167254 -0.5607,0.336708 -0.5607,0.520579 0,0.18286 0.22328,0.381379 0.47012,0.417992 l 0.20165,0.02992 -0.20445,-0.06118 c -0.19168,-0.05735 -0.40891,-0.242843 -0.40891,-0.349154 0,-0.02601 0.17742,-0.06564 0.39429,-0.08807 0.51459,-0.05321 1.15857,-0.258068 1.53028,-0.48678 0.16332,-0.100497 0.31628,-0.184626 0.33989,-0.186953 0.0836,-0.0082 0.80234,-0.559569 0.80234,-0.615484 0,-0.03123 0.0804,-0.160869 0.17866,-0.288084 0.25178,-0.32596 0.4757,-0.865515 0.54846,-1.321497 0.0342,-0.214069 0.0576,-0.963244 0.0522,-1.664832 -0.008,-1.050396 0.007,-1.341828 0.0915,-1.650642 0.15001,-0.554801 0.38532,-0.976674 0.80728,-1.447249 0.61591,-0.686886 1.02603,-0.980665 1.21015,-0.866873 0.10702,0.06614 0.0673,0.409538 -0.0815,0.703332 -0.12986,0.256509 -0.13443,0.289417 -0.0489,0.351944 0.0543,0.03972 0.079,0.10894 0.0582,0.163177 -0.0199,0.05181 -0.011,0.109736 0.0198,0.128725 0.074,0.04577 0.0704,0.352622 -0.007,0.63339 -0.0448,0.161569 -0.0448,0.24406 2.2e-4,0.289154 0.0346,0.0347 0.0631,0.130374 0.0631,0.212606 0,0.08624 0.0494,0.180384 0.11683,0.222472 0.0643,0.04013 0.11683,0.123879 0.11683,0.186111 0,0.06591 0.067,0.145158 0.16064,0.189816 0.1364,0.06509 0.1633,0.117778 0.17826,0.349023 0.01,0.149797 0.0557,0.303956 0.10222,0.342578 0.0466,0.03862 0.0847,0.139886 0.0847,0.225032 0,0.119137 -0.0502,0.181425 -0.21781,0.270318 -0.4168,0.221043 -1.33427,0.945202 -1.97276,1.557106 -0.3534,0.338699 -0.82038,0.781216 -1.0377,0.98337 -0.21733,0.202153 -0.38267,0.38002 -0.36743,0.395258 0.0455,0.04553 0.5873,-0.428368 1.6092,-1.40761 1.43952,-1.379433 2.03302,-1.733897 2.90318,-1.733897 0.44498,0 0.44498,0 0.3337,0.127449 -0.0612,0.0701 0.0434,0.01805 0.23249,-0.115661 0.40469,-0.286204 0.65577,-0.346743 1.035,-0.249553 0.21376,0.05478 0.30718,0.05533 0.40613,0.0023 0.13751,-0.07359 0.57657,-0.156572 1.12084,-0.21184 0.25621,-0.02601 0.37007,-0.0114 0.48192,0.06189 0.18496,0.121183 0.1834,0.168441 -0.0142,0.432899 -0.15723,0.210449 -0.15386,0.209137 0.15914,-0.06186 0.51821,-0.448695 0.87608,-0.563917 1.07361,-0.345658 0.091,0.100576 0.0894,0.114388 -0.0261,0.218919 -0.0678,0.06137 -0.1619,0.190492 -0.2091,0.286953 -0.0815,0.166615 -0.0761,0.164484 0.10819,-0.0426 0.36077,-0.405282 1.41517,-0.769179 1.65412,-0.570869 0.0484,0.04014 0.0879,0.15764 0.0879,0.261122 0,0.164734 -0.12178,0.312304 -0.97846,1.185673 -1.38194,1.408877 -1.67898,1.571378 -3.17119,1.734921 -1.6558,0.181468 -1.90021,0.214878 -2.21377,0.302587 -0.36263,0.101438 -1.16993,0.491735 -1.44572,0.698953 -0.10227,0.07684 -0.20116,0.139717 -0.21974,0.139717 -0.0186,0 -0.0199,-0.111718 -0.003,-0.248264 0.0226,-0.18208 0.0161,-0.21712 -0.0244,-0.131434 -0.0304,0.06425 -0.0576,0.182547 -0.0602,0.262868 -0.006,0.175592 -0.0969,0.334727 -0.15687,0.274739 -0.0518,-0.05175 0.0707,-0.556123 0.22001,-0.905646 0.059,-0.138165 0.0845,-0.237117 0.0566,-0.219891 -0.0876,0.05411 -0.34796,0.751225 -0.38389,1.02761 -0.0235,0.180487 -0.0733,0.288756 -0.15705,0.341046 -0.11836,0.07391 -0.12125,0.06899 -0.082,-0.140191 0.0224,-0.119243 0.062,-0.25957 0.0878,-0.311839 0.026,-0.05227 0.14229,-0.339121 0.25848,-0.637447 0.1162,-0.298326 0.34448,-0.745202 0.50728,-0.993058 0.24126,-0.367289 0.25826,-0.407776 0.0919,-0.218878 -0.28581,0.324623 -0.70399,1.096601 -0.88317,1.630384 -0.0833,0.247905 -0.25527,0.863517 -0.38235,1.36803 -0.19934,0.791362 -0.29494,1.045608 -0.69637,1.851937 -0.76178,1.530196 -1.4624,2.338071 -2.81097,3.241271 -0.84446,0.565573 -2.18755,1.242328 -2.95984,1.491397 -0.29709,0.09581 -0.54024,0.195115 -0.54035,0.220672 -9e-5,0.02556 0.0675,0.114117 0.15017,0.196805 0.13295,0.132959 0.18205,0.146128 0.42476,0.113931 0.34126,-0.04527 0.53478,0.06692 0.53478,0.310007 0,0.236221 -0.20117,0.458493 -0.48506,0.535958 -0.27748,0.07572 -1.1051,0.150722 -1.32581,0.120156 z m 1.30741,-1.650448 c 1.5713,-0.534178 3.60954,-1.839694 4.45971,-2.856503 0.21035,-0.251591 0.20352,-0.248217 -0.15959,0.07867 -0.48444,0.436115 -1.3073,1.051383 -1.87014,1.398352 -0.82354,0.507677 -2.28998,1.13611 -3.0218,1.294984 -0.17693,0.03841 -0.24176,0.135788 -0.15091,0.226649 0.068,0.06805 0.19701,0.04337 0.74273,-0.142144 z m -2.39058,0.06829 c 0.0432,-0.0699 -0.0666,-0.139156 -0.14449,-0.09107 -0.0653,0.04038 -0.0225,0.145449 0.0594,0.145449 0.0283,0 0.0666,-0.02446 0.0851,-0.05438 z m 2.65686,-0.539483 c 1.1194,-0.389178 2.44277,-1.116508 3.36239,-1.847982 0.4659,-0.370581 1.47153,-1.332411 1.55597,-1.488202 0.0309,-0.05711 -0.21445,0.101841 -0.54538,0.353243 -1.17155,0.890031 -2.3725,1.537779 -3.58898,1.935779 -0.73559,0.240662 -1.60768,0.414304 -2.08077,0.414304 -0.15767,0 -0.27679,0.01972 -0.26472,0.04381 0.0121,0.02409 0.12138,0.245535 0.2429,0.492083 l 0.22097,0.448269 0.29878,-0.08873 c 0.16433,-0.0488 0.52381,-0.166961 0.79884,-0.262577 z m -1.86576,0.243371 c 0,-0.03213 -0.0279,-0.05842 -0.0619,-0.05842 -0.0341,0 -0.0455,0.02629 -0.0257,0.05842 0.0198,0.03214 0.0477,0.05842 0.0619,0.05842 0.0142,0 0.0258,-0.02629 0.0258,-0.05842 z m -0.35907,-0.227125 c 0.17699,-0.112153 -0.2347,-0.532272 -0.52159,-0.532272 -0.33596,0 -0.28208,0.305608 0.0832,0.471422 0.27393,0.124382 0.32668,0.131704 0.43849,0.06085 z m -1.97754,-0.207543 c 0,-0.0463 -0.0287,-0.101835 -0.0636,-0.123423 -0.0824,-0.05098 -0.19506,0.06161 -0.1441,0.144096 0.0573,0.09265 0.2076,0.07768 0.2076,-0.02066 z m 0.43166,-0.474998 c 0.05,-0.130524 -0.0652,-0.317053 -0.19588,-0.317053 -0.0609,0 -0.15316,0.04255 -0.20517,0.09457 -0.0871,0.08714 -0.0868,0.103189 0.005,0.204452 0.12091,0.133606 0.34785,0.143937 0.39617,0.01804 z m 3.30691,-0.173257 c 1.33838,-0.217016 2.74403,-0.799019 4.05898,-1.680598 1.04208,-0.698654 1.72413,-1.30507 1.72413,-1.532953 0,-0.02089 -0.14049,0.09043 -0.31221,0.247359 -1.35573,1.239066 -3.79116,2.286965 -5.74067,2.470052 -0.60228,0.05657 -1.65267,0.0063 -1.85363,-0.08864 -0.037,-0.01746 -0.002,0.01548 0.078,0.07319 0.0799,0.05771 0.30332,0.226699 0.49652,0.375525 0.34441,0.265302 0.35814,0.270063 0.70177,0.243587 0.19277,-0.01486 0.57393,-0.06324 0.84702,-0.107516 z m -4.68539,-0.05831 c 0.0245,-0.171066 -0.24839,-0.418008 -0.35978,-0.325571 -0.0864,0.07172 -0.0673,0.267482 0.0394,0.403549 0.0882,0.112481 0.30052,0.06081 0.32038,-0.07798 z m 1.67702,-0.08955 c 0,-0.04507 -0.046,-0.09081 -0.10225,-0.101641 -0.10067,-0.01939 -0.14231,0.10456 -0.062,0.184811 0.0612,0.06123 0.1643,0.0091 0.1643,-0.08317 z m -0.64871,-0.303465 c 0.0769,-0.121862 -0.13735,-0.370117 -0.42507,-0.492596 -0.4116,-0.175223 -0.37348,0.208748 0.049,0.493464 0.21656,0.145935 0.28356,0.14578 0.37606,-9.01e-4 z m 4.51912,-0.300223 c 1.56394,-0.391631 3.23076,-1.230306 4.48294,-2.255644 0.55198,-0.451978 0.60395,-0.517202 0.76449,-0.959466 0.11435,-0.315037 0.12364,-0.383025 0.0524,-0.383025 -0.0477,0 -0.0868,0.03286 -0.0869,0.07302 -1.9e-4,0.04016 -0.0277,0.171677 -0.0612,0.292261 -0.0492,0.176851 -0.13093,0.265036 -0.42317,0.456069 -0.27118,0.177254 -0.40193,0.229158 -0.51984,0.206347 -0.14026,-0.02713 -0.17676,0.003 -0.3326,0.27412 -0.42917,0.746817 -0.6376,0.917004 -1.12373,0.917574 -0.22673,2.66e-4 -0.35229,0.02877 -0.40465,0.09186 -0.10943,0.131857 -0.37675,0.259026 -0.53356,0.253817 -0.0742,-0.0024 -0.31903,0.0635 -0.54392,0.146587 -0.2249,0.08309 -0.48777,0.147495 -0.58416,0.143125 -0.0964,-0.0043 -0.24754,0.02118 -0.33588,0.05678 -0.16452,0.06628 -0.40576,0.01561 -0.47739,-0.100276 -0.0219,-0.03556 -0.15995,-0.0015 -0.35408,0.08735 -0.20662,0.09459 -0.42598,0.146453 -0.62605,0.148002 -0.2743,0.0021 -0.3245,-0.01741 -0.45905,-0.178573 -0.098,-0.117351 -0.20456,-0.180962 -0.30323,-0.180962 -0.0922,0 -0.19685,-0.05684 -0.26573,-0.1444 l -0.11359,-0.1444 -0.2682,0.208964 c -0.34645,0.26991 -0.65055,0.376594 -0.86267,0.302645 -0.0879,-0.03064 -0.17342,-0.09105 -0.18998,-0.134214 -0.021,-0.05473 -0.0983,-0.06934 -0.25537,-0.04828 -0.15672,0.02102 -0.24697,0.0041 -0.29661,-0.05577 -0.0622,-0.07504 -0.10223,-0.07069 -0.31392,0.03404 -0.24257,0.120013 -0.24257,0.120013 -0.62204,-0.08072 -0.46043,-0.243568 -0.95505,-0.682003 -1.15575,-1.024458 -0.13351,-0.22783 -0.14123,-0.273029 -0.0769,-0.450725 0.0794,-0.219468 0.0484,-0.418663 -0.0924,-0.594839 -0.0917,-0.114744 -0.0923,-0.114552 -0.0317,0.01076 0.0781,0.161794 0.0804,0.584158 0.004,0.631804 -0.0351,0.0217 -0.0584,-0.05441 -0.0584,-0.190823 0,-0.172214 -0.0379,-0.26107 -0.15701,-0.368542 l -0.15702,-0.141618 0.12781,0.168521 c 0.18533,0.244387 0.17014,0.36979 -0.0261,0.215417 -0.0847,-0.06659 -0.19637,-0.119403 -0.24827,-0.117366 -0.066,0.0026 -0.0567,0.0189 0.0309,0.05426 0.1439,0.05807 0.36322,0.333783 0.53471,0.672226 0.30071,0.593413 0.75501,0.951515 1.9979,1.574855 0.43373,0.217527 0.82519,0.425075 0.8699,0.461218 0.0447,0.03615 0.33386,0.111402 0.64257,0.167242 0.81797,0.147964 2.04825,0.107119 2.85447,-0.09477 z m -3.63677,-2.48827 c 0,-0.114129 -0.0335,-0.149918 -0.15317,-0.163801 -0.17679,-0.02051 -0.26872,0.130192 -0.15963,0.261647 0.11206,0.135006 0.3128,0.07221 0.3128,-0.09785 z m -5.47427,-0.315184 c -0.18356,-0.03944 -0.38734,-0.120238 -0.45285,-0.179524 -0.10882,-0.09848 -0.41091,-0.585459 -0.41091,-0.662397 0,-0.01788 0.13901,0.11687 0.3089,0.299433 0.21803,0.234262 0.35123,0.331176 0.45273,0.329355 0.12932,-0.0023 0.12201,-0.01408 -0.0724,-0.116802 -0.11896,-0.06283 -0.30148,-0.22024 -0.40562,-0.349819 -0.10413,-0.129579 -0.22047,-0.223651 -0.25852,-0.209046 -0.0381,0.01461 -0.10197,-0.0042 -0.14202,-0.0419 -0.099,-0.09303 -0.0635,-0.01097 0.1659,0.383309 0.28504,0.489979 0.47502,0.630038 0.84642,0.624021 l 0.30219,-0.0049 z m 0.67206,-0.417989 c -0.10308,-0.08125 -0.24442,-0.249115 -0.31405,-0.373034 -0.14978,-0.266468 -0.31955,-0.355156 -0.75445,-0.3941 -0.17672,-0.01583 -0.44785,-0.06857 -0.60254,-0.117203 -0.15469,-0.04863 -0.29514,-0.07455 -0.31212,-0.05758 -0.0714,0.07146 0.34779,0.213238 0.79717,0.269585 0.531,0.06659 0.54243,0.07267 0.9666,0.514675 0.16186,0.168674 0.31962,0.306389 0.35056,0.306032 0.0309,-3.54e-4 -0.0281,-0.06712 -0.13117,-0.148375 z m 6.7802,0.0032 c 0.0413,-0.107676 -0.21648,-0.290167 -0.3419,-0.242033 -0.1064,0.04083 -0.11722,0.249635 -0.0151,0.290852 0.14886,0.06006 0.32441,0.03606 0.35698,-0.04882 z m -7.14772,-0.02588 c 0,-0.09793 -0.10361,-0.122176 -0.13809,-0.03232 -0.0204,0.05302 1.9e-4,0.08729 0.0523,0.08729 0.0472,0 0.0858,-0.02473 0.0858,-0.05496 z m 8.81459,-0.05686 c 0.1449,-0.09175 0.0261,-0.238663 -0.19308,-0.238663 -0.22984,0 -0.31168,0.08162 -0.20761,0.207013 0.0787,0.09487 0.27621,0.110471 0.40069,0.03165 z m -9.2527,-0.180248 c 0.0198,-0.03214 0.008,-0.05842 -0.0258,-0.05842 -0.0341,0 -0.0619,0.02629 -0.0619,0.05842 0,0.03214 0.0116,0.05842 0.0258,0.05842 0.0142,0 0.042,-0.02629 0.0619,-0.05842 z m -0.18334,-0.08762 c 0.0233,-0.06066 -0.005,-0.08762 -0.0885,-0.08762 -0.10196,0 -0.11012,0.01449 -0.0494,0.08762 0.0399,0.04819 0.0798,0.08762 0.0886,0.08762 0.009,0 0.0309,-0.03943 0.0494,-0.08762 z m 8.35728,-0.0041 c 0.12771,-0.127703 0.11717,-0.16854 -0.0879,-0.341143 -0.2436,-0.204966 -0.43083,-0.244025 -0.60929,-0.127098 -0.2351,0.15405 -0.18094,0.324765 0.14834,0.467599 0.26334,0.114218 0.43512,0.11442 0.5489,6.28e-4 z m 3.36305,-0.550771 c 0,-0.03213 -0.0263,-0.05842 -0.0584,-0.05842 -0.0321,0 -0.0584,0.02629 -0.0584,0.05842 0,0.03214 0.0263,0.05841 0.0584,0.05841 0.0321,0 0.0584,-0.02628 0.0584,-0.05841 z m -3.50491,-0.233661 c 0,-0.03214 -0.0263,-0.05841 -0.0584,-0.05841 -0.0321,0 -0.0584,0.02629 -0.0584,0.05841 0,0.03214 0.0262,0.05842 0.0584,0.05842 0.0321,0 0.0584,-0.02629 0.0584,-0.05842 z m -4.28194,-0.155136 c 0.058,-0.151016 -0.19464,-0.321521 -0.44517,-0.300506 -0.17818,0.01494 -0.20897,0.03867 -0.20897,0.160933 0,0.103188 0.0409,0.154796 0.14603,0.184026 0.26748,0.0744 0.46927,0.05674 0.50811,-0.04446 z m 2.32086,-0.05348 c 0.11695,-0.116961 0.11582,-0.193746 -0.005,-0.327114 -0.11432,-0.126333 -0.46695,-0.140868 -0.61891,-0.02551 -0.0562,0.04268 -0.10223,0.132542 -0.10223,0.199692 0,0.06715 0.046,0.148885 0.10223,0.181633 0.15651,0.09116 0.52069,0.0744 0.62379,-0.0287 z m -1.43755,-0.361519 c 0.0141,-0.09831 -0.0105,-0.130838 -0.0988,-0.130838 -0.14242,0 -0.1957,0.07353 -0.14639,0.202051 0.0519,0.135138 0.22282,0.08548 0.24516,-0.07122 z m 8.13026,0.06874 c 0,-0.05087 -0.0313,-0.08208 -0.0694,-0.06937 -0.10832,0.0361 -0.12628,0.161859 -0.0232,0.161859 0.0509,0 0.0925,-0.04162 0.0925,-0.09249 z m -10.29227,-0.262391 c -0.0115,-0.03453 -0.0459,-0.0628 -0.0764,-0.0628 -0.0306,0 -0.0649,0.02826 -0.0764,0.0628 -0.0114,0.03454 0.0229,0.0628 0.0764,0.0628 0.0536,0 0.0879,-0.02826 0.0764,-0.0628 z m -1.62443,-0.05403 c 0,-0.03214 -0.0263,-0.05842 -0.0584,-0.05842 -0.0321,0 -0.0584,0.02628 -0.0584,0.05842 0,0.03214 0.0263,0.05842 0.0584,0.05842 0.0321,0 0.0584,-0.02629 0.0584,-0.05842 z m 0.25978,-0.413895 c -0.0188,-0.03043 -0.0591,-0.03994 -0.0896,-0.02113 -0.0304,0.01881 -0.0399,0.05909 -0.0212,0.08952 0.0188,0.03043 0.0591,0.03994 0.0896,0.02113 0.0304,-0.01881 0.0399,-0.0591 0.0211,-0.08953 z m 14.92637,-0.608369 c 0,-0.03213 -0.0255,-0.01899 -0.0566,0.0292 -0.0312,0.04819 -0.0566,0.11391 -0.0566,0.146039 0,0.03213 0.0255,0.01899 0.0566,-0.02921 0.0312,-0.04819 0.0566,-0.113908 0.0566,-0.146037 z m -16.38775,-0.256282 c 0.0493,-0.07974 -0.12858,-0.199495 -0.23541,-0.158501 -0.0769,0.02952 -0.0813,0.05293 -0.0228,0.123365 0.0805,0.09686 0.20922,0.114392 0.25821,0.03514 z m 16.43668,-0.212619 c -0.018,-0.01798 -0.0507,0.01443 -0.0726,0.07205 -0.0317,0.08326 -0.0249,0.08997 0.0327,0.0327 0.0399,-0.03962 0.0579,-0.08677 0.0399,-0.104746 z m -18.18504,0.03076 c 0.0198,-0.03214 0.008,-0.05842 -0.0258,-0.05842 -0.0341,0 -0.0619,0.02629 -0.0619,0.05842 0,0.03214 0.0116,0.05842 0.0258,0.05842 0.0142,0 0.042,-0.02629 0.0619,-0.05842 z m 21.17549,-0.467322 c 0,-0.03213 -0.0279,-0.05842 -0.0619,-0.05842 -0.0341,0 -0.0456,0.02629 -0.0258,0.05842 0.0198,0.03214 0.0477,0.05841 0.0619,0.05841 0.0142,0 0.0258,-0.02629 0.0258,-0.05841 z m -1.548,-0.292075 c 0,-0.09121 -0.0377,-0.151706 -0.10241,-0.164159 -0.11562,-0.02227 -0.19083,0.117602 -0.13768,0.256099 0.0557,0.145184 0.24009,0.07458 0.24009,-0.09194 z m 0.77829,0.03897 c 0.0109,-0.05635 -0.0184,-0.09739 -0.0695,-0.09739 -0.10852,0 -0.17402,0.09522 -0.12266,0.178329 0.0528,0.08549 0.16948,0.03637 0.19224,-0.08095 z m 1.61672,-0.331046 c 0.0198,-0.03214 0.008,-0.05842 -0.0257,-0.05842 -0.0341,0 -0.0619,0.02629 -0.0619,0.05842 0,0.03214 0.0116,0.05841 0.0257,0.05841 0.0142,0 0.042,-0.02629 0.0619,-0.05841 z m -0.53589,-0.422622 c 0.10944,-0.146583 0.11039,-0.16281 0.0177,-0.304224 -0.11735,-0.179108 -0.2365,-0.187445 -0.48791,-0.03414 -0.25172,0.153475 -0.3132,0.393168 -0.13737,0.535542 0.1129,0.09142 0.15397,0.09558 0.31101,0.0315 0.0995,-0.0406 0.23297,-0.143509 0.29655,-0.228673 z m -2.58187,0.08674 c 0.0727,-0.09265 0.0706,-0.09472 -0.022,-0.02206 -0.0973,0.07631 -0.12824,0.124281 -0.0802,0.124281 0.0121,0 0.0582,-0.04601 0.10223,-0.102226 z m 1.3714,-0.232445 c -0.0594,-0.05938 -0.10838,0.03003 -0.0596,0.108851 0.0368,0.05954 0.0506,0.0596 0.0703,2.42e-4 0.0135,-0.04058 0.009,-0.08967 -0.0107,-0.109085 z m -3.5402,-0.07424 c 0,-0.03214 -0.0262,-0.05841 -0.0584,-0.05841 -0.0321,0 -0.0584,0.02628 -0.0584,0.05841 0,0.03214 0.0263,0.05842 0.0584,0.05842 0.0321,0 0.0584,-0.02629 0.0584,-0.05842 z m 5.6117,-0.118885 c 0.13586,-0.07271 0.1454,-0.190394 0.0236,-0.291456 -0.18107,-0.15028 -0.50408,0.147921 -0.33902,0.312983 0.0566,0.05659 0.18592,0.04777 0.31539,-0.02153 z m -1.23057,-0.432611 c 0,-0.06166 -0.11211,-0.08756 -0.14544,-0.03361 -0.0202,0.03265 0.005,0.05936 0.0544,0.05936 0.0501,0 0.0911,-0.01159 0.0911,-0.02576 z m -4.38113,-0.383146 c 0,-0.03214 -0.0262,-0.05841 -0.0584,-0.05841 -0.0321,0 -0.0584,0.02628 -0.0584,0.05841 0,0.03214 0.0263,0.05842 0.0584,0.05842 0.0321,0 0.0584,-0.02629 0.0584,-0.05842 z m 0.55809,-0.297166 c 0.0602,-0.0974 -0.0751,-0.209098 -0.15578,-0.128512 -0.0674,0.06741 -0.0253,0.192017 0.065,0.192017 0.0283,0 0.0692,-0.02858 0.0908,-0.0635 z m -0.40925,-0.662766 c 0.12072,-0.184245 0.0245,-0.399959 -0.16622,-0.372558 -0.16463,0.02366 -0.26757,0.29487 -0.16076,0.423564 0.10803,0.130168 0.21969,0.11275 0.32698,-0.051 z m 0.43532,-0.383617 c 0,-0.03214 -0.0116,-0.05841 -0.0258,-0.05841 -0.0142,0 -0.042,0.02628 -0.0619,0.05841 -0.0198,0.03214 -0.008,0.05842 0.0258,0.05842 0.0341,0 0.0619,-0.02629 0.0619,-0.05842 z m -0.64257,-0.551497 c 0,-0.01417 -0.0263,-0.042 -0.0584,-0.06186 -0.0321,-0.01985 -0.0584,-0.0082 -0.0584,0.02576 0,0.03402 0.0262,0.06187 0.0584,0.06187 0.0321,0 0.0584,-0.01159 0.0584,-0.02577 z m 0.30083,-0.529184 c 0,-0.03052 -0.0283,-0.06491 -0.0628,-0.07642 -0.0345,-0.01152 -0.0628,0.02288 -0.0628,0.07642 0,0.05355 0.0283,0.08794 0.0628,0.07643 0.0345,-0.01152 0.0628,-0.0459 0.0628,-0.07643 z m -14.18459,10.523401 c -0.56683,-0.297714 -0.96339,-0.589544 -1.57974,-1.16253 -0.25046,-0.232842 -0.54066,-0.493943 -0.64487,-0.580221 -0.20803,-0.17224 -0.23218,-0.222828 -0.10641,-0.222828 0.0456,0 0.35457,0.265273 0.6864,0.589495 0.33181,0.324221 0.77416,0.719242 0.983,0.877824 0.36004,0.273407 1.02225,0.635626 1.16206,0.635626 0.0356,0 0.0647,-0.09547 0.0647,-0.212161 0,-0.116689 0.0539,-0.299373 0.11976,-0.405963 0.13021,-0.210682 0.44491,-0.433349 0.61245,-0.433349 0.0578,0 0.0888,-0.01631 0.0688,-0.03623 -0.0732,-0.07322 -0.3429,0.04481 -0.56888,0.248955 -0.29155,0.2634 -0.32396,0.119358 -0.0423,-0.187987 0.13882,-0.151476 0.25272,-0.215256 0.42352,-0.237155 0.227,-0.0291 0.23634,-0.02333 0.32949,0.203322 0.0949,0.230985 0.0945,0.233609 -0.0393,0.267203 -0.20012,0.05023 -0.4585,0.288652 -0.67001,0.618262 -0.10303,0.160558 -0.21745,0.291158 -0.25427,0.290219 -0.0368,-9.02e-4 -0.28179,-0.114558 -0.54439,-0.25249 z m -3.31951,-2.783392 c -0.0198,-0.03214 -0.008,-0.05842 0.0257,-0.05842 0.034,0 0.0619,0.02629 0.0619,0.05842 0,0.03214 -0.0116,0.05841 -0.0257,0.05841 -0.0142,0 -0.042,-0.02628 -0.0619,-0.05841 z m -0.34542,-0.324555 c -0.0758,-0.07573 -0.0818,-0.11474 -0.0279,-0.179694 0.0591,-0.0712 0.0863,-0.07138 0.19187,-0.0013 0.0677,0.04492 0.12301,0.117539 0.12301,0.161373 0,0.118359 -0.17621,0.1304 -0.287,0.01961 z m 0.17018,-0.08435 c -0.0199,-0.03214 -0.0609,-0.05841 -0.0911,-0.05841 -0.0302,0 -0.0549,0.02629 -0.0549,0.05841 0,0.03214 0.041,0.05842 0.0911,0.05842 0.0501,0 0.0749,-0.02628 0.0549,-0.05842 z m -1.72268,-0.262177 c -0.0584,-0.0704 -0.0542,-0.0938 0.022,-0.12308 0.12974,-0.04979 0.26946,0.01273 0.26946,0.120556 0,0.114502 -0.19716,0.11621 -0.29152,0.0024 z m 0.20388,-0.0299 c -0.0198,-0.03214 -0.0624,-0.05841 -0.0945,-0.05841 -0.0321,0 -0.0422,0.02629 -0.0223,0.05841 0.0198,0.03214 0.0623,0.05842 0.0945,0.05842 0.0321,0 0.0422,-0.02629 0.0223,-0.05842 z m -1.42508,-0.170244 c -0.0842,-0.05335 -0.0506,-0.238661 0.0433,-0.238661 0.0859,0 0.19757,0.164814 0.15661,0.231102 -0.0456,0.07382 -0.0925,0.07559 -0.19995,0.0076 z m 1.57112,-0.121831 c 0,-0.03214 0.0263,-0.05842 0.0584,-0.05842 0.0321,0 0.0584,0.02629 0.0584,0.05842 0,0.03214 -0.0263,0.05841 -0.0584,0.05841 -0.0321,0 -0.0584,-0.02629 -0.0584,-0.05841 z m -2.94485,-0.134997 c -0.0709,-0.05189 -0.0978,-0.118006 -0.0737,-0.180915 0.0304,-0.07927 0.0996,-0.0956 0.34538,-0.08147 0.28416,0.01634 0.30734,0.02869 0.30734,0.163716 0,0.128569 -0.028,0.148097 -0.23367,0.163236 -0.13414,0.0099 -0.28123,-0.01763 -0.34537,-0.06457 z m 0.52465,-0.04678 c 0.0559,-0.09048 -0.0853,-0.166758 -0.31071,-0.167821 -0.19111,-9.02e-4 -0.27103,0.131859 -0.11683,0.194079 0.1354,0.05463 0.38711,0.03918 0.42754,-0.02626 z m 1.49526,0.06131 c -0.075,-0.03005 -0.12552,-0.08753 -0.11233,-0.127732 0.0357,-0.108912 0.36267,-0.123649 0.44852,-0.02022 0.14723,0.177406 -0.0482,0.263393 -0.33619,0.14795 z m 0.22396,-0.1132 c -0.11509,-0.07437 -0.25042,-0.07437 -0.20446,0 0.0198,0.03214 0.0937,0.05801 0.16409,0.05752 0.10405,-6.92e-4 0.11159,-0.01149 0.0403,-0.05752 z m -1.25593,-0.292076 c -0.0198,-0.03213 -0.008,-0.05842 0.0257,-0.05842 0.0341,0 0.0619,0.02629 0.0619,0.05842 0,0.03214 -0.0116,0.05841 -0.0257,0.05841 -0.0143,0 -0.042,-0.02628 -0.0619,-0.05841 z m 4.46715,-3.312379 c -0.3087,-0.212765 -0.39533,-0.456688 -0.26199,-0.737681 0.17739,-0.373831 0.68069,-0.508509 0.99027,-0.26499 0.21099,0.165964 0.27246,0.345141 0.20375,0.593956 -0.0977,0.353708 -0.26246,0.508261 -0.54196,0.508261 -0.13597,0 -0.31012,-0.04445 -0.39007,-0.09955 z m 0.66819,-0.197012 c 0.20546,-0.244175 0.20435,-0.529404 -0.003,-0.692261 -0.52141,-0.410143 -1.16603,0.294457 -0.65941,0.720758 0.24661,0.207503 0.47168,0.197816 0.66211,-0.0285 z m 1.61017,-1.428419 c -0.057,-0.06871 -0.0588,-0.123074 -0.007,-0.2353 0.0843,-0.184965 0.21146,-0.234091 0.39251,-0.1516 0.15492,0.07059 0.19309,0.285272 0.0722,0.406154 -0.0986,0.09861 -0.3687,0.08723 -0.45708,-0.01926 z m 0.39848,-0.192061 c -0.0249,-0.129616 -0.22099,-0.125991 -0.30305,0.0056 -0.0499,0.08001 -0.0455,0.115996 0.0197,0.156566 0.1152,0.07184 0.30723,-0.03806 0.28334,-0.162171 z m -1.95709,-0.454549 c -0.41136,-0.304935 -0.51938,-0.515875 -0.42775,-0.835342 0.13923,-0.485485 0.73627,-0.752891 1.10474,-0.494799 0.15702,0.109974 0.29891,0.414739 0.29891,0.642003 0,0.2082 -0.3175,0.873202 -0.43919,0.919902 -0.14676,0.05632 -0.14993,0.05494 -0.53671,-0.231764 z m 0.56699,0.0451 c 0,-0.02655 -0.0789,-0.03672 -0.17524,-0.02258 -0.0964,0.01415 -0.17524,0.03589 -0.17524,0.0483 0,0.01241 0.0789,0.02258 0.17524,0.02258 0.0964,0 0.17524,-0.02174 0.17524,-0.0483 z m -0.0142,-0.28759 c 0.0348,-0.106071 -0.19066,-0.09042 -0.28196,0.01957 -0.0675,0.08132 -0.0565,0.09021 0.0906,0.07302 0.0921,-0.01076 0.17821,-0.05243 0.19139,-0.09259 z m -0.37901,-0.07302 c 0.10827,-0.126454 0.41821,-0.159817 0.48473,-0.05219 0.0673,0.108787 0.14031,-0.0705 0.14129,-0.346617 4.9e-4,-0.202158 -0.0332,-0.28694 -0.16986,-0.42351 -0.23997,-0.239977 -0.48178,-0.23088 -0.74053,0.02786 -0.24431,0.24432 -0.27354,0.561113 -0.0716,0.776078 0.15563,0.165644 0.22673,0.169313 0.35597,0.01837 z m 1.85366,-1.818082 c -0.0804,-0.03203 -0.20516,-0.113799 -0.27747,-0.181726 -0.2502,-0.235059 -0.13065,-0.710918 0.2248,-0.894728 0.41599,-0.215114 0.75007,-0.008 0.7984,0.494927 0.0254,0.264763 0.0118,0.30751 -0.14994,0.469227 -0.18445,0.18445 -0.3409,0.213938 -0.59579,0.1123 z m 0.49312,-0.222717 c 0.0564,-0.06221 0.1051,-0.210147 0.10847,-0.328762 0.005,-0.167381 -0.0299,-0.246685 -0.15498,-0.354223 -0.0886,-0.0762 -0.21421,-0.13856 -0.27915,-0.13856 -0.1624,0 -0.45957,0.310942 -0.45957,0.480871 0,0.364207 0.54856,0.602198 0.78523,0.340674 z m -4.02319,-0.541364 c -0.0767,-0.109468 -0.0784,-0.146606 -0.0113,-0.248263 0.1124,-0.170357 0.36179,-0.18799 0.44554,-0.0315 0.0526,0.09822 0.047,0.15402 -0.0266,0.26637 -0.11588,0.176845 -0.28917,0.18254 -0.40764,0.01339 z m 0.31508,-0.07317 c 0.0793,-0.09548 0.0352,-0.207011 -0.0818,-0.207011 -0.10503,0 -0.22693,0.156035 -0.18053,0.231101 0.0537,0.08693 0.1798,0.07535 0.26233,-0.02409 z m 1.57414,-4.254068 c -0.27637,-0.186243 -0.33217,-0.377522 -0.19319,-0.662172 0.13746,-0.281504 0.48686,-0.476035 0.71135,-0.39603 0.3742,0.133361 0.51749,0.756888 0.24146,1.05071 -0.17365,0.184838 -0.4918,0.187974 -0.75962,0.0075 z m 0.566,-0.02829 c 0.21465,-0.143326 0.25352,-0.512288 0.0776,-0.736021 -0.21847,-0.277747 -0.64214,-0.161789 -0.77409,0.211871 -0.10308,0.291879 0.43643,0.697846 0.69657,0.52415 z"
         id="path189"
         sodipodi:nodetypes="cssscssssssssssssssssssssssssssssssssssssssssssssssssssssssssssssssssssssssssssssssssscsssssssssssssssscssssssssssssssssscsssssssssssssssssssssssssssssssssssssssssssssssssssssssccssssssssssssssssssscsssssssssssssssssssssssssssssssssssssssssssssssssssssssssssssssssscsssssssssssssscssssssssssssssssssssssssscssssssssssssssssssssssssssssssssssssssssssssssssssssssssssssssssssssssssssssssssssssssssssssssssssssssssssssssssssssssssssssssssssssssssssssssssssssssssssssssssssssssssssssssssssssssssssssssssssssssssssssssssssssssssssssssssssssssssssssssssssssssssssssssssssssssssssssssssssssssssssssssssssssssssscssssssssssssssssssssssssssssssssssss" />
    </g>
  </g>
</svg>
