<?xml version="1.0" encoding="UTF-8" standalone="no"?>
<!-- Created with Inkscape (http://www.inkscape.org/) -->

<svg
   width="41.008999mm"
   height="41.008999mm"
   viewBox="0 0 41.008999 41.009"
   version="1.1"
   id="svg1"
   inkscape:version="1.4.2 (f4327f4, 2025-05-13)"
   sodipodi:docname="252.svg"
   xmlns:inkscape="http://www.inkscape.org/namespaces/inkscape"
   xmlns:sodipodi="http://sodipodi.sourceforge.net/DTD/sodipodi-0.dtd"
   xmlns="http://www.w3.org/2000/svg"
   xmlns:svg="http://www.w3.org/2000/svg">
  <sodipodi:namedview
     id="namedview1"
     pagecolor="#ffffff"
     bordercolor="#000000"
     borderopacity="0.25"
     inkscape:showpageshadow="2"
     inkscape:pageopacity="0.0"
     inkscape:pagecheckerboard="0"
     inkscape:deskcolor="#d1d1d1"
     inkscape:document-units="mm"
     inkscape:zoom="2.8970539"
     inkscape:cx="84.223494"
     inkscape:cy="68.000116"
     inkscape:window-width="1168"
     inkscape:window-height="1081"
     inkscape:window-x="3737"
     inkscape:window-y="0"
     inkscape:window-maximized="0"
     inkscape:current-layer="layer1" />
  <defs
     id="defs1" />
  <g
     inkscape:label="Layer 1"
     inkscape:groupmode="layer"
     id="layer1"
     transform="translate(-114.0891,-77.774176)">
    <g
       id="g32"
       transform="translate(-525.04068,402.06481)">
      <circle
         style="fill:none;fill-opacity:1;stroke:#0000ff;stroke-width:0.1;stroke-dasharray:none;stroke-opacity:1"
         id="path12-9"
         cx="659.63428"
         cy="-318.61786"
         r="2" />
      <circle
         style="fill:none;stroke:#ff0000;stroke-width:0.1;stroke-dasharray:none"
         id="path788-8-1-8-1-9-2-56-8-1-0-8"
         cx="659.63428"
         cy="-303.78613"
         r="19.954653" />
      <ellipse
         style="fill:none;stroke:#ff00ff;stroke-width:0.1;stroke-dasharray:none;stroke-opacity:1"
         id="path1138-9-4-0-0-1-2-4-9-7-02-13"
         cx="659.63428"
         cy="-303.78613"
         rx="18.492125"
         ry="18.492126" />
      <path
         style="fill:#000000;stroke-width:0.1;stroke-dasharray:none"
         d="m 663.0441,-288.1269 c -0.52217,-0.2694 -1.2914,-0.4066 -2.00052,-0.3568 -0.17107,0.012 -0.33015,0.026 -0.35352,0.032 -0.0234,0.01 -0.0532,0.01 -0.0664,-0.01 -0.0131,-0.01 -0.13821,-0.3545 -0.27794,-0.7679 -0.79311,-2.3465 -1.31817,-3.4073 -2.17469,-4.3934 -0.37035,-0.4264 -0.92658,-0.8551 -1.61423,-1.2442 -0.86662,-0.4902 -1.50414,-0.9841 -1.92365,-1.4898 -0.10669,-0.1285 -0.20131,-0.2369 -0.21027,-0.2405 -0.0239,-0.01 -0.24986,0.6886 -0.32497,1.0046 -0.066,0.2776 -0.14977,0.7477 -0.18172,1.0194 -0.0176,0.15 -0.0182,0.1507 -0.0706,0.1037 -0.029,-0.026 -0.15391,-0.1815 -0.27745,-0.3455 -0.79091,-1.0495 -1.21694,-2.2033 -1.2634,-3.4214 -0.0227,-0.5967 0.0598,-1.2199 0.22531,-1.701 0.0279,-0.081 0.0507,-0.1555 0.0507,-0.1654 0,-0.015 -0.93758,0.2987 -1.20202,0.4033 -0.0552,0.021 -0.10578,0.034 -0.11233,0.027 -0.018,-0.018 0.0865,-0.52 0.15716,-0.7549 0.2024,-0.6731 0.53889,-1.3153 0.99519,-1.8995 0.10336,-0.1323 0.18792,-0.2446 0.18792,-0.2494 0,-0.01 -0.31533,-0.017 -0.70074,-0.027 l -0.70074,-0.019 0.0703,-0.095 c 0.34683,-0.4657 0.88976,-1.0116 1.34258,-1.3499 0.58449,-0.4366 1.03057,-0.6749 1.60863,-0.8592 0.18532,-0.059 0.35944,-0.1156 0.38692,-0.1256 0.0425,-0.015 0.0193,-0.044 -0.15552,-0.194 -0.76881,-0.6576 -1.72195,-1.1847 -2.73943,-1.5153 -0.87365,-0.2837 -1.6017,-0.3989 -2.5204,-0.3989 -1.12912,0 -2.00347,0.1827 -3.05852,0.6388 l -0.15552,0.067 0.15552,-0.1456 c 0.58797,-0.5507 1.46618,-1.0959 2.31981,-1.4403 0.70619,-0.2847 1.66994,-0.5388 2.33533,-0.6155 0.11977,-0.014 0.31476,-0.038 0.43332,-0.052 0.89911,-0.1131 2.31421,-0.064 3.4065,0.1174 0.21016,0.035 0.38826,0.063 0.3958,0.063 0.0449,0 -0.3052,-0.5734 -0.54691,-0.8956 -1.12755,-1.5036 -3.09018,-2.9605 -4.89654,-3.635 -0.84307,-0.3148 -1.50159,-0.4459 -2.23936,-0.4459 -0.45937,0 -0.77276,0.043 -1.1235,0.1552 -0.12463,0.04 -0.22006,0.062 -0.21206,0.049 0.0525,-0.085 0.67571,-0.4531 1.04858,-0.6193 0.72764,-0.3241 1.45273,-0.4799 2.37083,-0.5093 1.60645,-0.051 3.3961,0.3931 5.29535,1.3151 0.86693,0.4208 1.3992,0.7299 2.0284,1.1775 0.42324,0.3011 0.36051,0.2831 0.72977,0.2087 0.52062,-0.105 0.90808,-0.1453 1.39807,-0.1459 0.2516,0 0.48881,0.01 0.52712,0.017 l 0.0697,0.017 -0.0573,-0.1135 c -0.093,-0.1842 -0.33143,-0.5397 -0.50159,-0.7481 -0.44401,-0.5435 -0.92876,-0.9703 -2.08938,-1.8397 -0.63755,-0.4777 -0.68918,-0.5195 -0.64077,-0.5195 0.0744,0 1.001,0.2636 1.37789,0.3921 1.65839,0.5651 3.00964,1.4086 3.94402,2.462 0.14873,0.1677 0.29063,0.3109 0.31534,0.3182 0.0247,0.01 0.14029,0.026 0.25687,0.042 0.11658,0.015 0.26821,0.044 0.33696,0.062 0.45478,0.1245 0.55982,0.1577 0.75621,0.239 0.2898,0.1199 0.67569,0.3421 0.9419,0.542 0.26246,0.1972 0.63844,0.5817 0.81576,0.8343 l 0.13129,0.187 0.14579,-0.2025 c 0.6415,-0.8909 0.77551,-1.9627 0.38933,-3.1134 -0.10997,-0.3276 -0.39109,-0.912 -0.59101,-1.2284 -0.0801,-0.1268 -0.14182,-0.2344 -0.13714,-0.239 0.0144,-0.015 0.30707,0.1317 0.49811,0.2487 1.09211,0.6695 1.90622,1.9518 2.35741,3.7132 0.0469,0.1829 0.0915,0.3389 0.0992,0.3465 0.0231,0.024 0.22128,-0.3298 0.31604,-0.5629 0.47302,-1.1636 0.44948,-2.6165 -0.0611,-3.7685 l -0.0804,-0.1814 0.15617,0.1685 c 0.92906,1.0022 1.38275,2.394 1.33907,4.1083 -0.022,0.8634 -0.11413,1.4359 -0.35468,2.2038 -0.29457,0.9405 -0.3875,1.2585 -0.45149,1.5446 -0.0938,0.4198 -0.095,0.4117 0.0606,0.4117 0.17135,0 0.25028,-0.034 0.29919,-0.1286 0.0224,-0.043 0.0498,-0.079 0.0609,-0.079 0.0362,0 0.12953,0.2232 0.16178,0.3872 0.0502,0.255 -0.008,0.8073 -0.0935,0.893 -0.0195,0.02 -0.0296,0.041 -0.0225,0.049 0.0203,0.021 -0.0413,0.2469 -0.12495,0.4598 -0.23862,0.6073 -0.29294,0.7078 -0.4835,0.8942 -0.12711,0.1244 -0.14798,0.1827 -0.18364,0.5138 -0.0287,0.2661 -0.0669,0.3727 -0.17511,0.4885 l -0.0647,0.069 0.1985,0.2271 c 0.30682,0.3509 0.4779,0.623 0.98824,1.5721 0.11307,0.2103 0.21265,0.3824 0.22127,0.3824 0.0287,0 0.22281,-0.2958 0.31475,-0.4796 0.0499,-0.1 0.12172,-0.2677 0.15959,-0.3731 0.0379,-0.1054 0.0748,-0.2014 0.0821,-0.2132 0.0379,-0.061 0.55356,0.4028 0.774,0.6966 0.38602,0.5142 0.51741,0.9213 0.45234,1.4015 -0.0297,0.2189 -0.0284,0.253 0.0138,0.3628 0.16354,0.4253 0.22475,0.6368 0.23947,0.8277 0.0142,0.1846 0.007,0.2355 -0.0693,0.4886 -0.17975,0.5961 -0.44077,1.2272 -0.67966,1.6431 -0.37793,0.658 -0.9484,1.179 -1.53118,1.3981 -0.082,0.031 -0.0825,0.032 0.0426,-0.1519 0.11648,-0.1718 0.22826,-0.4502 0.19047,-0.4743 -0.0169,-0.01 -0.13844,-0.02 -0.27014,-0.02 h -0.23947 l -0.1048,0.2084 c -0.43035,0.8559 -0.91965,1.4603 -1.4959,1.8475 -0.41958,0.2821 -1.24148,0.6397 -1.46994,0.6397 h -0.0838 l 0.14527,-0.2916 c 0.0799,-0.1603 0.20076,-0.4548 0.26858,-0.6544 0.0678,-0.1995 0.1525,-0.4387 0.18817,-0.5314 0.14194,-0.3686 0.24685,-0.959 0.17043,-0.959 -0.048,0 -0.0867,0.083 -0.15791,0.3386 -0.0406,0.1454 -0.0836,0.2717 -0.0956,0.2805 -0.012,0.01 -0.0665,0.072 -0.12102,0.1393 -0.0548,0.069 -0.1117,0.1158 -0.12713,0.1062 -0.0154,-0.01 -0.0206,-0.01 -0.0116,0.01 0.0296,0.048 -0.35798,0.3843 -0.57349,0.4977 -0.0511,0.027 -0.0392,-0.01 0.0821,-0.2359 0.14954,-0.282 0.17656,-0.3616 0.22395,-0.6596 0.0714,-0.4491 -0.0961,-0.8841 -0.43705,-1.1343 -0.3522,-0.2586 -1.19809,-0.617 -1.36002,-0.5764 -0.0324,0.01 -0.1206,0.091 -0.19599,0.1837 -0.19423,0.2393 -0.38009,0.3995 -0.56016,0.4825 -0.17094,0.079 -0.37583,0.1226 -0.37583,0.08 0,-0.05 0.15539,-0.4654 0.25842,-0.6894 0.0574,-0.125 0.10445,-0.2421 0.10445,-0.2603 0,-0.018 -0.0321,-0.04 -0.0713,-0.047 -0.0392,-0.01 -0.0894,-0.021 -0.11144,-0.029 -0.0319,-0.012 -0.0497,0.024 -0.0863,0.1731 -0.19538,0.7993 -0.23795,1.1078 -0.19765,1.4321 0.0396,0.3188 0.0761,0.4057 0.19669,0.4679 0.0699,0.036 0.11742,0.087 0.15266,0.162 0.0507,0.1086 0.0524,0.1096 0.18875,0.1096 0.16733,0 0.27058,-0.041 0.49131,-0.1954 0.093,-0.065 0.17492,-0.1124 0.18203,-0.1052 0.007,0.01 -0.0194,0.2088 -0.0588,0.4484 -0.086,0.5218 -0.0904,0.6852 -0.0222,0.8174 l 0.05,0.097 0.14211,-0.1167 c 0.13551,-0.1113 0.22385,-0.1597 0.2477,-0.1359 0.006,0.01 -0.0197,0.086 -0.0571,0.1773 -0.18978,0.4641 -0.22533,0.5978 -0.22769,0.8558 -0.003,0.2975 0.0212,0.3461 0.14835,0.3019 0.12955,-0.045 0.36017,-0.1876 0.60269,-0.3727 0.12239,-0.093 0.22732,-0.1649 0.23317,-0.1592 0.034,0.034 0.0669,0.4571 0.053,0.6811 -0.0216,0.3478 -0.0937,0.6563 -0.23831,1.0198 -0.15301,0.3847 -0.25875,0.581 -0.78374,1.4552 -0.46939,0.7818 -0.68705,1.2059 -0.79928,1.5574 -0.0404,0.1266 -0.0851,0.2298 -0.0994,0.2295 -0.0142,0 -0.0938,-0.036 -0.17673,-0.078 z m -0.0302,-1.0148 c 0.17157,-0.2413 0.43805,-0.6059 0.66768,-0.9136 l 0.15476,-0.2074 -0.30774,-0.016 c -0.16925,-0.01 -0.48269,-0.041 -0.69653,-0.07 -0.21383,-0.029 -0.46041,-0.061 -0.54795,-0.071 -0.25001,-0.027 -0.33604,-0.091 -0.50762,-0.3743 -0.54381,-0.9007 -0.98467,-2.0458 -1.57148,-4.0819 -0.32093,-1.1137 -0.45977,-1.5176 -0.68137,-1.9827 -0.33265,-0.6981 -0.73536,-1.2243 -1.20814,-1.5791 -0.20986,-0.1574 -0.63757,-0.3552 -0.89484,-0.4138 -0.845,-0.1927 -1.63324,-0.8287 -1.92627,-1.5542 -0.12791,-0.3167 -0.15322,-0.461 -0.15149,-0.8633 l 0.002,-0.3799 -0.16996,-0.043 c -0.31649,-0.078 -0.54804,-0.2944 -0.63739,-0.5952 -0.0867,-0.292 -0.0143,-0.6216 0.18544,-0.8437 0.13267,-0.1476 0.22807,-0.2113 0.47116,-0.315 0.2157,-0.093 0.15967,-0.096 -0.14121,-0.01 -0.775,0.2223 -1.56111,0.8373 -2.24658,1.7577 -0.18869,0.2532 -0.48691,0.7247 -0.60123,0.9503 l -0.0697,0.1375 0.0868,-0.058 c 0.19423,-0.13 0.58416,-0.2956 0.87144,-0.3702 0.26356,-0.069 0.36316,-0.081 0.74925,-0.092 0.42592,-0.012 0.96005,0.01 0.93134,0.038 -0.008,0.01 -0.0982,0.043 -0.20149,0.077 -0.44542,0.15 -0.79234,0.357 -1.01663,0.6064 -0.23735,0.264 -0.45253,0.7506 -0.56424,1.276 -0.0449,0.2113 -0.0566,0.3572 -0.0585,0.7306 -0.002,0.4213 0.0396,0.929 0.087,1.0591 0.018,0.049 0.14327,-0.3391 0.41679,-1.2923 0.0736,-0.2567 0.18649,-0.6124 0.2508,-0.7906 0.12526,-0.347 0.36242,-0.8722 0.38411,-0.8504 0.007,0.01 7e-4,0.1569 -0.0146,0.3328 -0.0738,0.8498 0.14372,1.784 0.59765,2.5674 0.2928,0.5052 0.79738,1.0457 1.30856,1.4017 0.15682,0.1092 0.49507,0.3237 0.75168,0.4767 0.95224,0.5677 1.26268,0.7803 1.59453,1.0923 0.54036,0.5079 1.11185,1.3447 1.56154,2.2866 0.24583,0.5148 0.40878,0.9031 0.8278,1.9722 0.19835,0.506 0.37669,0.9448 0.39631,0.9749 0.0338,0.052 0.0632,0.056 0.56227,0.07 0.50844,0.014 0.81996,0.058 1.03204,0.1441 0.13639,0.056 0.16592,0.04 0.32438,-0.1842 z m 0.80863,-1.8898 c 0.18854,-0.07 0.44991,-0.3235 0.5844,-0.566 0.0731,-0.1318 0.38208,-0.8159 0.38208,-0.846 0,-0.01 -0.12744,0.1265 -0.28321,0.289 -0.18212,0.19 -0.3177,0.3584 -0.37986,0.4715 -0.20063,0.3656 -0.24498,0.3847 -0.83863,0.36 -0.49029,-0.021 -0.73413,-0.049 -0.74653,-0.086 -0.005,-0.014 -0.0347,-0.021 -0.0667,-0.015 -0.14742,0.027 -0.4388,-0.2781 -0.51065,-0.5367 -0.0371,-0.1337 -0.0303,-0.5053 0.0131,-0.7101 0.0208,-0.098 0.0316,-0.1885 0.0239,-0.2008 -0.008,-0.012 -0.0747,-0.022 -0.14913,-0.022 -0.0826,0 -0.15854,-0.016 -0.19506,-0.043 -0.0576,-0.041 -0.0591,-0.05 -0.0418,-0.2822 l 0.018,-0.2402 -0.0904,-0.029 c -0.0498,-0.016 -0.11081,-0.052 -0.1357,-0.08 -0.0871,-0.096 -0.21717,-0.6466 -0.24201,-1.0237 l -0.0171,-0.2592 -0.18144,-0.01 c -0.26332,-0.01 -0.26535,-0.01 -0.17276,0.2816 0.12613,0.3926 0.29136,0.8442 0.58694,1.6041 0.15249,0.3921 0.32769,0.8601 0.38935,1.0399 0.14099,0.4114 0.1908,0.5085 0.32093,0.6261 0.25475,0.2302 0.60265,0.3191 1.27862,0.3265 0.25295,0.01 0.3286,-0.01 0.45359,-0.052 z m -0.088,-0.5443 c 0.12409,-0.066 0.16665,-0.2031 0.0631,-0.2032 -0.0645,0 -0.43416,0.1816 -0.43416,0.2133 0,0.031 0.3084,0.023 0.37106,-0.01 z m -0.70624,-0.1145 c 0.16891,-0.049 0.32614,-0.1514 0.37301,-0.2425 0.0405,-0.078 0.25966,-0.6853 0.28197,-0.7804 0.0147,-0.063 0.0107,-0.065 -0.0765,-0.056 -0.12637,0.014 -0.40008,-0.046 -0.41814,-0.094 -0.0204,-0.053 0.0667,-0.112 0.27239,-0.1839 0.24195,-0.085 0.2913,-0.1197 0.2913,-0.206 0,-0.04 -0.0146,-0.092 -0.0324,-0.1154 -0.0442,-0.059 -0.23559,-0.1223 -0.36899,-0.1223 -0.0604,0 -0.16391,-0.01 -0.23008,-0.016 l -0.12032,-0.016 0.18853,-0.1973 c 0.17927,-0.1876 0.45082,-0.5399 0.43031,-0.5583 -0.005,-0.01 -0.11458,0.014 -0.24288,0.042 -0.32837,0.07 -0.79437,0.041 -0.90353,-0.058 -0.0122,-0.011 0.0956,-0.076 0.23975,-0.1439 0.14411,-0.068 0.26203,-0.1312 0.26203,-0.1405 0,-0.025 -0.22642,-0.1233 -0.42542,-0.1834 -0.1994,-0.061 -0.19474,-0.081 0.0283,-0.1279 l 0.13422,-0.027 -0.0135,-0.096 c -0.0262,-0.1862 -0.11374,-0.4753 -0.19331,-0.6385 -0.22795,-0.4676 -0.78987,-0.9589 -1.20236,-1.0513 -0.13868,-0.031 -0.29268,-0.015 -0.36444,0.038 -0.0407,0.029 -0.029,0.043 0.1125,0.1174 0.22039,0.1175 0.23664,0.1797 0.0656,0.2512 -0.11006,0.045 -0.52112,0.051 -0.69248,0.01 -0.0665,-0.017 -0.12527,-0.026 -0.13071,-0.021 -0.0204,0.021 0.35507,1.1255 0.3923,1.1547 0.0299,0.023 0.0615,0.022 0.1373,-0.01 0.18136,-0.063 0.25894,-0.1173 0.36341,-0.2494 0.11466,-0.1451 0.12239,-0.133 0.0759,0.1183 -0.0374,0.2024 -0.007,0.238 0.15875,0.1862 0.0635,-0.02 0.1358,-0.044 0.16074,-0.055 0.0705,-0.029 0.0577,0.072 -0.021,0.1653 -0.10109,0.1201 -0.14665,0.3276 -0.0912,0.4153 0.0187,0.029 0.0435,0.021 0.12921,-0.047 0.12415,-0.098 0.13052,-0.076 0.0387,0.1406 -0.0711,0.1673 -0.10623,0.4397 -0.0768,0.5963 l 0.0179,0.095 0.15198,-0.1448 c 0.23042,-0.2198 0.28219,-0.1907 0.1815,0.102 -0.0541,0.1572 -0.0488,0.2454 0.0149,0.2454 0.0289,0 0.0371,0.043 0.0371,0.1895 0,0.3135 0.1149,0.3765 0.23327,0.1282 0.0356,-0.076 0.0726,-0.136 0.0822,-0.136 0.01,-1e-4 0.0296,0.038 0.0446,0.084 0.0212,0.066 0.0167,0.124 -0.0207,0.2655 -0.0648,0.2457 -0.046,0.2815 0.11565,0.22 0.0812,-0.031 0.0808,-0.027 -0.0248,0.2208 -0.0768,0.1803 -0.0872,0.3741 -0.0277,0.5164 0.048,0.1148 0.0941,0.1368 0.17222,0.082 0.13917,-0.097 0.17819,-0.04 0.1202,0.1767 -0.0246,0.092 -0.024,0.1232 0.003,0.156 0.0436,0.052 0.1857,0.052 0.36631,0 z m -0.48061,-0.083 c -0.008,-0.01 -0.0289,-10e-5 -0.0465,0.018 -0.0254,0.025 -0.0224,0.028 0.0145,0.015 0.0256,-0.01 0.0399,-0.025 0.032,-0.033 z m 4.39271,-2.0086 c 0.3453,-0.3061 0.52967,-0.4895 0.59797,-0.5946 0.0346,-0.053 0.0705,-0.097 0.0797,-0.097 0.0864,0 0.6438,-1.2015 0.5851,-1.2602 -0.018,-0.019 -0.76877,0.093 -0.82433,0.1214 -0.0242,0.012 -0.0588,0.099 -0.0842,0.2106 -0.0237,0.1042 -0.0846,0.3234 -0.13527,0.4874 -0.0507,0.1639 -0.10304,0.341 -0.1164,0.3935 -0.0544,0.214 -0.29109,0.6903 -0.50584,1.0182 l -0.0503,0.076 0.11663,-0.08 c 0.0642,-0.044 0.21579,-0.1682 0.33696,-0.2757 z m 0.0292,-1.4631 c 0.0322,-0.041 0.0313,-0.043 -0.01,-0.01 -0.0249,0.02 -0.0454,0.04 -0.0454,0.045 0,0.022 0.0213,0.01 0.0552,-0.036 z m -13.11514,-1.0563 c 0.0435,-0.1425 0.11304,-0.3391 0.15445,-0.4368 0.0414,-0.098 0.0753,-0.2055 0.0753,-0.2393 0,-0.058 -0.33089,-0.6846 -0.36205,-0.6846 -0.0285,0 -0.34526,0.8391 -0.35741,0.947 -0.0161,0.1429 0.0468,0.3514 0.20679,0.6859 l 0.13024,0.2721 0.0368,-0.1425 c 0.0202,-0.078 0.0724,-0.2593 0.11593,-0.4018 z m 12.94109,0.1308 c 0.89853,-0.3032 1.96205,-0.3756 2.87652,-0.1956 0.141,0.027 0.26756,0.044 0.28125,0.035 0.0793,-0.049 0.47248,-0.7315 0.74441,-1.2922 0.29157,-0.6012 0.34222,-0.9872 0.17753,-1.3529 l -0.056,-0.1244 -0.0232,0.1426 c -0.0658,0.4046 -0.10328,0.546 -0.19062,0.7187 -0.0532,0.1054 -0.10637,0.1802 -0.12133,0.1711 -0.0147,-0.01 -0.0198,-0.01 -0.0114,0.01 0.0222,0.036 -0.092,0.2276 -0.14143,0.2372 -0.0567,0.01 -0.2135,-0.1548 -0.28625,-0.3025 -0.0523,-0.1061 -0.0591,-0.1584 -0.0591,-0.4568 0,-0.3188 0.004,-0.3447 0.0731,-0.4796 0.0499,-0.097 0.15436,-0.2189 0.3294,-0.3834 0.29269,-0.275 0.43266,-0.5024 0.40694,-0.6609 -0.0132,-0.081 -0.42921,-0.8738 -0.45866,-0.8738 -0.008,0 -0.0403,0.05 -0.0725,0.1102 -0.087,0.1637 -0.25441,0.3478 -0.38673,0.4253 -0.12924,0.076 -0.22861,0.085 -0.55467,0.049 -0.165,-0.019 -0.20722,-0.014 -0.26306,0.022 -0.1665,0.1091 -0.15912,0.3174 0.0215,0.6075 0.36136,0.5802 0.35955,0.575 0.33906,0.9758 -0.0151,0.296 -0.0617,0.4965 -0.15658,0.6738 l -0.0555,0.1037 -0.0137,-0.5832 c -0.012,-0.51 -0.0204,-0.5998 -0.0673,-0.7154 -0.0545,-0.1343 -0.31826,-0.5798 -0.39515,-0.6674 -0.0639,-0.073 -0.18021,-0.1254 -0.36249,-0.1638 -0.20048,-0.043 -0.25974,-0.082 -0.57464,-0.3847 -0.44017,-0.4231 -0.86439,-0.5644 -1.43073,-0.4765 -0.10132,0.015 -0.23076,0.045 -0.28765,0.065 -0.0569,0.02 -0.10964,0.03 -0.11722,0.023 -0.0316,-0.031 0.22196,-0.2474 0.36874,-0.3138 0.12684,-0.058 0.2073,-0.075 0.40218,-0.083 0.49929,-0.023 0.7071,0.075 1.13857,0.534 0.36968,0.3937 0.47026,0.4589 0.70803,0.459 0.36978,0 0.36875,-0.1402 -0.007,-0.9429 -0.33205,-0.7093 -1.14284,-1.8533 -1.80845,-2.5517 -0.19788,-0.2076 -0.34209,-0.2562 -0.85805,-0.2894 -0.2861,-0.019 -0.19946,-0.061 -0.80698,0.3989 -0.45794,0.3468 -0.93996,0.7448 -1.08464,0.8955 l -0.0902,0.094 0.0419,0.1166 c 0.0511,0.142 0.091,0.1504 -0.4771,-0.1002 -0.41945,-0.1849 -0.41979,-0.1851 -0.32335,-0.2078 0.1142,-0.026 0.119,-0.049 0.0297,-0.1388 -0.0665,-0.066 -0.0682,-0.067 -0.33048,-0.044 -0.37515,0.033 -0.98387,0.026 -1.19677,-0.012 -0.46297,-0.083 -0.85242,-0.2696 -1.11782,-0.5341 -0.20309,-0.2023 -0.31004,-0.4133 -0.37302,-0.7359 -0.0579,-0.2966 -0.0746,-0.3536 -0.16653,-0.5711 -0.13713,-0.3243 -0.49227,-0.7827 -0.81558,-1.0526 -0.0854,-0.071 -0.14497,-0.1332 -0.13242,-0.1376 0.041,-0.015 0.42054,0.1503 0.6332,0.275 0.14061,0.082 0.30267,0.2145 0.5004,0.4081 0.19069,0.1866 0.29243,0.2702 0.29243,0.24 0,-0.026 -0.037,-0.16 -0.0822,-0.2992 -0.0849,-0.2613 -0.10624,-0.4779 -0.0647,-0.657 l 0.0215,-0.093 -0.26777,-0.2228 c -0.14728,-0.1224 -0.38817,-0.3518 -0.53532,-0.5096 -0.28327,-0.3039 -0.32343,-0.3253 -0.43818,-0.2351 -0.0362,0.028 -0.0746,0.051 -0.0853,0.051 -0.0107,0 -0.0276,-0.066 -0.0377,-0.1459 -0.01,-0.08 -0.0504,-0.2781 -0.0897,-0.4392 -0.042,-0.1723 -0.0626,-0.307 -0.0499,-0.327 0.0118,-0.019 0.0215,-0.045 0.0215,-0.06 0,-0.014 -0.01,-0.01 -0.0221,0.01 -0.0161,0.025 -0.0268,0.014 -0.0394,-0.04 -0.0244,-0.1043 -0.0897,-0.3382 -0.13264,-0.4756 -0.0201,-0.064 -0.0553,-0.2216 -0.0784,-0.3498 -0.0922,-0.5134 -0.18715,-0.7911 -0.3178,-0.9294 -0.0384,-0.041 -0.19234,-0.1816 -0.34203,-0.3133 -1.90757,-1.6779 -4.13884,-2.8583 -6.37124,-3.3707 -0.85723,-0.1969 -1.47592,-0.2736 -2.32482,-0.2881 l -0.64799,-0.011 0.22031,0.08 c 0.9341,0.3383 1.28172,0.4861 2.00878,0.853 1.24002,0.6259 2.30129,1.3752 3.24867,2.2938 0.71689,0.695 1.35966,1.5086 1.547,1.9582 0.0364,0.087 0.049,0.1836 0.05,0.3827 l 0.001,0.2661 0.24651,0.1236 c 0.29249,0.1467 0.44024,0.2453 0.62648,0.4182 l 0.13788,0.128 -0.45359,-0.153 c -1.14616,-0.3865 -2.18523,-0.564 -3.4438,-0.5885 -1.14298,-0.022 -1.83975,0.039 -2.86765,0.2538 -0.38037,0.079 -1.01849,0.2437 -1.04369,0.2688 -0.009,0.01 0.12533,0.014 0.2965,0.014 0.17115,0 0.49677,0.017 0.72358,0.04 2.49629,0.2358 4.53725,1.2354 5.76179,2.8217 l 0.19743,0.2559 0.0159,-0.4114 c 0.0236,-0.6098 0.11673,-1.0462 0.30895,-1.448 0.0545,-0.1141 0.11843,-0.2307 0.14197,-0.2592 l 0.0428,-0.052 -0.0169,0.052 c -0.0948,0.2904 -0.0992,0.3407 -0.11708,1.3608 -0.0162,0.9225 -0.0233,1.0434 -0.072,1.2222 -0.11683,0.429 -0.32035,0.6857 -0.70608,0.8905 -0.30115,0.16 -0.46588,0.3283 -0.46588,0.4761 0,0.1081 0.0798,0.2318 0.19071,0.2954 0.0395,0.023 0.32478,0.036 0.98864,0.047 0.63979,0.01 0.97385,0.026 1.0627,0.051 l 0.1296,0.034 -0.15551,0.034 c -0.44007,0.096 -0.53474,0.1245 -0.72576,0.2163 -0.22607,0.1088 -0.37161,0.2337 -0.43981,0.3774 -0.14106,0.2972 -0.0297,0.8491 0.25794,1.2777 0.15555,0.232 0.54585,0.6067 0.76677,0.7362 0.22933,0.1347 0.5297,0.2262 0.74182,0.2262 0.25666,0 0.36269,-0.042 0.53059,-0.2083 0.12142,-0.1205 0.15593,-0.1757 0.20088,-0.3212 0.0682,-0.2208 0.0758,-0.5454 0.0133,-0.5693 -0.0678,-0.026 -0.193,-0.016 -0.43204,0.033 -0.12474,0.026 -0.2268,0.043 -0.2268,0.038 0,-0.01 0.0652,-0.108 0.145,-0.2278 0.10733,-0.1612 0.14051,-0.232 0.12772,-0.2722 -0.0249,-0.078 -0.34123,-0.3412 -0.49893,-0.414 -0.0741,-0.034 -0.1284,-0.073 -0.12059,-0.085 0.0251,-0.041 0.44988,0.015 0.76152,0.099 0.3836,0.1035 0.60776,0.1874 0.90002,0.3366 0.93253,0.4761 1.88258,1.3337 2.62457,2.3692 0.25187,0.3515 0.30352,0.4097 0.49478,0.5579 0.24023,0.1861 0.45705,0.2875 0.90537,0.4231 0.23522,0.071 0.62596,0.1893 0.86831,0.2628 1.03133,0.3127 1.58421,0.599 2.082,1.078 0.12367,0.119 0.23489,0.2168 0.24715,0.2173 0.0123,0 0.17617,-0.051 0.36424,-0.1144 z m 0.82528,-2.0152 c -0.26617,-0.2955 -0.32865,-0.4172 -0.32973,-0.6428 -4.3e-4,-0.092 0.009,-0.2257 0.0208,-0.2955 l 0.0216,-0.1271 -0.20306,-0.1922 c -0.35698,-0.3382 -0.4557,-0.3776 -0.53956,-0.2155 -0.036,0.069 -0.0821,0.2771 -0.0706,0.3184 0.003,0.01 -0.006,0.02 -0.0189,0.02 -0.0134,0 -0.0616,-0.076 -0.10727,-0.1685 -0.0736,-0.1496 -0.0814,-0.1859 -0.0689,-0.3233 0.0242,-0.2672 0.19782,-0.4598 0.46928,-0.5206 0.28589,-0.063 0.44157,0.012 1.33825,0.656 0.25764,0.185 0.30774,0.2331 0.36936,0.3546 0.12219,0.2412 0.0808,0.4952 -0.14177,0.8697 -0.12685,0.2136 -0.40194,0.5061 -0.47494,0.5052 -0.0306,0 -0.13555,-0.095 -0.2645,-0.2379 z m -4.25675,-0.7102 c -0.29999,-0.081 -0.43908,-0.1952 -0.82227,-0.6772 -0.26044,-0.3277 -0.37379,-0.4422 -0.60494,-0.6108 l -0.0638,-0.046 0.1275,0.014 c 0.2816,0.032 0.52626,0.204 0.86584,0.6102 0.2133,0.2553 0.36493,0.3963 0.65256,0.6071 0.0927,0.068 0.17334,0.1283 0.17928,0.1342 0.0259,0.025 -0.20469,0.01 -0.33417,-0.031 z m 1.89371,-1.1275 c -0.82237,-0.5259 -1.27386,-0.8915 -1.58761,-1.2858 -0.33375,-0.4194 -0.77716,-0.6627 -1.40832,-0.7728 -0.1283,-0.022 -0.46473,-0.048 -0.74761,-0.057 -0.28289,-0.01 -0.49867,-0.025 -0.47952,-0.034 0.0518,-0.027 0.77597,-0.198 1.05866,-0.2491 0.30399,-0.055 0.83984,-0.061 1.03678,-0.013 0.21133,0.052 0.48463,0.1914 0.66493,0.3385 0.19692,0.1606 0.45193,0.4759 0.62038,0.767 0.19063,0.3295 0.36647,0.575 0.46636,0.6512 l 0.0892,0.068 0.36755,-0.042 c 0.20215,-0.023 0.37203,-0.038 0.3775,-0.031 0.005,0.01 -0.0196,0.055 -0.0558,0.1096 -0.14213,0.2153 -0.17803,0.4285 -0.10635,0.6317 0.0215,0.061 0.0361,0.114 0.0324,0.1178 -0.004,0.01 -0.15156,-0.086 -0.32856,-0.199 z m -4.78439,-2.5023 c -0.38025,-0.3385 -0.88295,-0.5865 -1.41181,-0.6964 -0.47979,-0.1 -1.14881,-0.095 -1.67193,0.013 -0.14029,0.028 -0.26027,0.047 -0.26662,0.041 -0.0177,-0.018 0.32101,-0.1816 0.53202,-0.2573 0.53968,-0.194 1.23947,-0.2401 1.71857,-0.1135 0.56822,0.1501 0.93395,0.4314 1.16404,0.8951 0.11939,0.2407 0.10438,0.2682 -0.0643,0.1182 z m 0.34403,-0.4623 c -0.0674,-0.019 -0.18167,-0.067 -0.25396,-0.108 -0.14712,-0.083 -0.70213,-0.5796 -0.68283,-0.6108 0.0205,-0.033 0.19868,0.072 0.41492,0.2435 0.11207,0.089 0.31447,0.2363 0.44977,0.3269 0.1353,0.091 0.25096,0.1696 0.25703,0.1756 0.019,0.019 -0.0577,0.01 -0.18493,-0.027 z m -5.39837,-3.3496 c -1.24279,-0.6362 -2.65938,-1.0973 -3.87499,-1.2614 l -0.27216,-0.037 0.34992,-0.01 c 1.58296,-0.011 2.91211,0.3612 3.68527,1.034 0.18755,0.1633 0.40258,0.3895 0.36834,0.3875 -0.0127,0 -0.12808,-0.055 -0.25638,-0.1208 z m 0.75124,-3.3906 c -1.25597,-1.2561 -2.8154,-2.3403 -4.69103,-3.2616 -0.29938,-0.147 -0.58222,-0.2824 -0.62856,-0.3007 -0.13468,-0.053 -0.0972,-0.08 0.0518,-0.037 1.66232,0.4811 3.43037,1.4332 4.47763,2.4113 0.41908,0.3913 0.6595,0.6676 0.88773,1.0197 0.13524,0.2087 0.31746,0.5451 0.2998,0.5535 -0.005,0.01 -0.18333,-0.1714 -0.39741,-0.3855 z m 4.18027,12.6688 c 0.0602,-0.1532 0.18666,-0.4769 0.28112,-0.7193 0.0945,-0.2423 0.21703,-0.5308 0.2724,-0.6409 0.0554,-0.1102 0.10067,-0.2215 0.10067,-0.2474 0,-0.06 -0.37105,-0.4862 -0.56381,-0.6464 -0.16501,-0.137 -0.41724,-0.3052 -0.4335,-0.289 -0.006,0.01 0.0287,0.069 0.0765,0.1401 0.16244,0.2423 0.20253,0.4115 0.2148,0.906 0.007,0.2952 -0.003,0.5697 -0.0303,0.8316 -0.0585,0.5545 -0.0796,0.9439 -0.0512,0.9439 0.0131,0 0.0731,-0.1255 0.13329,-0.2786 z m 10.08032,-1.2365 c 0,-0.021 -0.01,-0.031 -0.022,-0.024 -0.0121,0.01 -0.0153,0.025 -0.007,0.038 0.021,0.034 0.0291,0.03 0.0291,-0.014 z m -2.53903,-5.0558 c 0.0655,-0.045 0.16909,-0.3051 0.15787,-0.395 -0.006,-0.051 -0.0338,-0.018 -0.14385,0.1681 -0.0748,0.1269 -0.13608,0.2385 -0.13608,0.2483 0,0.031 0.0639,0.02 0.12206,-0.022 z m -14.50313,-0.2855 c 0.44111,-0.1278 0.82137,-0.178 1.2009,-0.1584 0.30887,0.015 0.63173,0.077 0.83973,0.161 0.0597,0.024 0.11537,0.037 0.12377,0.027 0.0152,-0.014 -0.24906,-0.627 -0.31702,-0.7341 -0.0577,-0.091 -0.16113,-0.095 -0.49445,-0.021 -0.5414,0.1214 -1.13044,0.3734 -1.68129,0.7192 -0.36089,0.2267 -0.40034,0.2669 -0.16848,0.1719 0.10692,-0.044 0.3305,-0.1192 0.49684,-0.1673 z m 9.25052,0.1671 c 0.21406,-0.053 0.30949,-0.1129 0.30949,-0.1952 0,-0.048 -0.10733,-0.045 -0.22763,0.01 -0.13526,0.057 -0.40642,0.075 -0.58157,0.039 -0.47739,-0.099 -0.88088,-0.5279 -0.99247,-1.0547 -0.0479,-0.226 -0.0477,-0.3694 7e-4,-0.5748 0.0441,-0.1872 0.0357,-0.2138 -0.10925,-0.3447 -0.14609,-0.132 -0.4445,-0.3398 -0.47357,-0.33 -0.0139,0.01 0.0239,0.1138 0.0841,0.242 l 0.10945,0.2334 0.013,0.5572 0.013,0.5573 0.0832,0.1756 c 0.26645,0.5624 1.05077,0.8682 1.77163,0.6906 z m 1.50909,-0.2137 c 0.15993,-0.1329 0.4248,-0.3435 0.5886,-0.468 0.16379,-0.1244 0.30733,-0.2432 0.31897,-0.264 0.0135,-0.024 -0.004,-0.083 -0.0473,-0.1635 -0.14581,-0.268 -0.41952,-0.5835 -1.01393,-1.1694 -0.36982,-0.3645 -0.60227,-0.6118 -0.57914,-0.6162 0.0212,-0.01 0.12162,0.021 0.22304,0.056 l 0.18441,0.063 0.0163,-0.1723 c 0.009,-0.095 0.0164,-0.2545 0.0164,-0.3549 2.3e-4,-0.2192 -0.0225,-0.2591 -0.38861,-0.6803 -0.40624,-0.4674 -0.54421,-0.739 -0.72711,-1.4309 -0.47161,-1.7842 -1.63528,-3.2462 -3.66628,-4.6057 -0.48452,-0.3244 -0.48984,-0.32 -0.0907,0.076 0.4478,0.4431 0.56143,0.5743 0.788,0.9093 0.54889,0.8116 0.83141,1.7578 0.74289,2.4882 -0.0399,0.3287 -0.1062,0.5457 -0.2506,0.8193 -0.0632,0.1198 -0.11174,0.2204 -0.10791,0.2237 0.004,0.01 0.21108,0.1253 0.46056,0.2709 0.49739,0.2906 0.49552,0.3019 -0.0254,0.1529 -0.53051,-0.1518 -1.18376,-0.4454 -1.62911,-0.7322 -0.21442,-0.1381 -0.20962,-0.1485 -0.0836,0.1802 0.28602,0.7461 0.86745,1.4428 2.08819,2.502 0.6268,0.5439 1.31939,1.2287 1.67765,1.6588 0.0679,0.081 0.0689,0.087 0.0259,0.1382 -0.0442,0.052 -0.044,0.053 0.01,0.01 0.0532,-0.044 0.0569,-0.043 0.15694,0.065 0.13215,0.1434 0.53672,0.6551 0.79934,1.0111 0.11307,0.1533 0.20928,0.2786 0.21381,0.2786 0.005,0 0.13908,-0.1088 0.29901,-0.2416 z m -1.56876,-0.099 c 0.13103,-0.042 0.1522,-0.1081 0.0793,-0.2498 -0.0336,-0.065 -0.0725,-0.1223 -0.0865,-0.127 -0.014,-0.01 -0.0537,0.033 -0.0882,0.084 -0.0897,0.1317 -0.19226,0.1801 -0.29323,0.1382 -0.11485,-0.047 -0.22273,-0.1464 -0.27785,-0.2543 -0.0266,-0.052 -0.0733,-0.234 -0.10373,-0.404 -0.089,-0.4969 -0.17417,-0.6351 -0.39156,-0.6351 -0.11531,0 -0.12229,0.01 -0.13767,0.081 -0.0698,0.3489 0.0833,0.7953 0.37332,1.0886 0.2795,0.2826 0.60418,0.3803 0.92611,0.2785 z m 5.00533,-0.068 c 0.0134,-0.024 0.21797,-0.318 0.45468,-0.6512 0.61272,-0.8624 0.79543,-1.1808 0.93667,-1.6324 l 0.0596,-0.1905 -0.0693,0.016 c -0.0381,0.01 -0.16932,0.023 -0.2916,0.032 -0.30828,0.022 -0.36997,-0.011 -0.59124,-0.313 -0.29843,-0.4072 -0.51273,-0.7477 -0.58238,-0.9251 -0.10142,-0.2583 -0.14254,-0.5855 -0.17229,-1.3708 -0.0149,-0.3921 -0.0439,-0.8657 -0.0646,-1.0528 -0.0695,-0.6277 -0.23802,-1.3029 -0.48129,-1.928 -0.13017,-0.3346 -0.54049,-1.1768 -0.59975,-1.2313 -0.0201,-0.019 -0.0223,-0.01 -0.008,0.026 0.2084,0.5235 0.25662,0.7935 0.23844,1.3349 -0.0104,0.3097 -0.0284,0.4611 -0.0788,0.6609 -0.12786,0.5076 -0.34625,0.9958 -0.64676,1.4454 l -0.15182,0.2272 0.13332,0.1596 c 0.15629,0.187 0.23297,0.3307 0.34101,0.6386 0.11504,0.3279 0.16642,0.4047 0.37682,0.5631 0.19401,0.1459 0.36297,0.3362 0.4498,0.5063 0.0271,0.053 0.091,0.245 0.14214,0.4262 0.14875,0.5279 0.35264,1.0485 0.41106,1.0496 0.0159,0 0.0833,-0.061 0.14975,-0.1361 0.0665,-0.076 0.1279,-0.1295 0.13645,-0.1211 0.0189,0.019 -0.0482,0.5453 -0.0894,0.7018 -0.0162,0.062 -0.0886,0.2224 -0.16074,0.357 -0.17633,0.3292 -0.40977,0.8859 -0.38779,0.9248 0.0282,0.051 0.48231,0.5261 0.5028,0.5271 0.0102,0 0.0294,-0.02 0.0428,-0.044 z m -0.9158,-1.2022 c 0.0623,-0.2048 0.13907,-0.4276 0.17059,-0.4951 0.057,-0.1221 0.0571,-0.1235 0.01,-0.2789 -0.0444,-0.1466 -0.0501,-0.1536 -0.093,-0.1148 -0.0806,0.073 -0.35895,0.5144 -0.37503,0.5948 -0.009,0.043 0.004,0.1824 0.0269,0.3106 0.0557,0.306 0.09,0.4131 0.12206,0.381 0.0139,-0.014 0.0762,-0.1928 0.13853,-0.3976 z m -0.32489,0.3191 c 0,-0.1742 -0.15503,-0.4901 -0.31607,-0.6437 -0.19293,-0.184 -1.55168,-1.001 -1.59419,-0.9585 -0.007,0.01 5e-5,0.052 0.016,0.1006 0.0186,0.057 0.13658,0.1931 0.33135,0.384 0.35221,0.3453 0.4886,0.5215 0.64637,0.8352 0.0801,0.1593 0.13364,0.235 0.17815,0.2519 0.035,0.013 0.18339,0.034 0.32975,0.047 0.41443,0.036 0.40868,0.036 0.40868,-0.017 z m -0.34093,-1.368 c -0.0352,-0.1273 -0.4463,-0.9097 -0.51983,-0.9891 -0.13075,-0.1414 -0.64145,-0.5636 -0.83678,-0.6919 -0.3016,-0.1979 -0.6032,-0.3642 -0.87165,-0.4807 l -0.23563,-0.1022 0.0611,0.076 c 0.0336,0.041 0.13232,0.1604 0.21941,0.2649 0.2065,0.2476 0.38845,0.5308 0.46907,0.7301 0.0355,0.088 0.0775,0.1753 0.0932,0.1945 0.0157,0.019 0.18691,0.1141 0.38048,0.211 0.4436,0.2223 0.77243,0.4417 1.03014,0.6873 0.11088,0.1057 0.2094,0.1927 0.21894,0.1933 0.01,0 0.006,-0.041 -0.008,-0.093 z m 0.16751,-0.2631 c 0.1354,-0.2895 0.17342,-0.4112 0.17342,-0.5549 0,-0.1602 -0.0421,-0.2605 -0.22409,-0.5341 l -0.14537,-0.2184 -0.11575,0.1964 c -0.16177,0.2746 -0.16415,0.3277 -0.0327,0.7301 0.12397,0.3796 0.20456,0.5817 0.23194,0.5817 0.0103,0 0.0609,-0.091 0.1126,-0.2008 z m 2.19217,-1.3312 c 0.23699,-0.6562 0.43803,-1.3564 0.55726,-1.9411 0.12785,-0.627 0.15665,-0.926 0.15609,-1.6201 -5.4e-4,-0.6745 -0.0314,-0.9589 -0.16142,-1.4904 l -0.0476,-0.1943 -10e-4,0.5054 c -0.002,0.7829 -0.0954,1.2663 -0.34326,1.7755 -0.14784,0.3038 -0.32744,0.5498 -0.53287,0.73 -0.10021,0.088 -0.14784,0.1493 -0.14904,0.192 -0.004,0.1534 0.0892,1.3604 0.12253,1.5811 0.0491,0.3249 0.22013,0.8632 0.26127,0.822 0.007,-0.01 0.0693,-0.1692 0.1383,-0.3601 z m -3.22198,-0.5108 c -0.29349,-0.6972 -0.96462,-1.3258 -1.97712,-1.8515 -0.1896,-0.099 -0.34473,-0.172 -0.34473,-0.1632 0,0.01 0.0628,0.1058 0.13945,0.2158 0.16598,0.2381 0.24776,0.3975 0.32622,0.636 0.0479,0.1457 0.0766,0.1901 0.16301,0.2527 0.0577,0.042 0.11557,0.075 0.12866,0.075 0.0131,0 0.20797,0.092 0.43304,0.204 0.47257,0.2357 0.7744,0.4285 1.01279,0.6468 0.0927,0.085 0.17208,0.1511 0.17647,0.1471 0.004,-0.01 -0.0216,-0.077 -0.0578,-0.1637 z m -14.20604,0.047 c -0.009,-0.014 -0.0299,-0.026 -0.0469,-0.026 -0.0186,0 -0.0154,0.01 0.008,0.026 0.0498,0.032 0.0588,0.032 0.0389,0 z"
         id="path14"
         sodipodi:nodetypes="cccssscscssssssscccssccsccscssscscscsscsssscscsccccsssscsccccsscsssccsccscsssssssssssssscssssscsssssssssccssscssssscsscscsssssssscssscssscsscscsscsssssscccssccscsssscssccssscssccsscccsssssccssssssssssscsssccscsssscscscsccssscccccssccsscssscsccsccssssscscssssssccsssccsssscssssssssssscsccccccccscsssssscsccssccsssssscsscccsscssccsssssssssscssscssssssscscscssscscssssscssssssssssccscssssscssssccccsssssccsccsccssscssccssscsssccssssssssscsscscscssccsccccsscsssssssssscccsscsssccscscscsssscsccscsssccccsscscssccccccsccccsccssccssssscssssssccscsssccsscsscsccscsssscccccscccccsscccssssccssscscscssscsssccssccsssssssscscccssssssssssccscssccsscccsssssssssssccsssccsscsccscsccscssssscsssssssscssssscssccssscscsccsccss" />
    </g>
  </g>
</svg>
