<?xml version="1.0" encoding="UTF-8" standalone="no"?>
<!-- Created with Inkscape (http://www.inkscape.org/) -->

<svg
   width="41.008999mm"
   height="41.008999mm"
   viewBox="0 0 41.008999 41.009"
   version="1.1"
   id="svg1"
   inkscape:version="1.4.2 (f4327f4, 2025-05-13)"
   sodipodi:docname="255.svg"
   xmlns:inkscape="http://www.inkscape.org/namespaces/inkscape"
   xmlns:sodipodi="http://sodipodi.sourceforge.net/DTD/sodipodi-0.dtd"
   xmlns="http://www.w3.org/2000/svg"
   xmlns:svg="http://www.w3.org/2000/svg">
  <sodipodi:namedview
     id="namedview1"
     pagecolor="#ffffff"
     bordercolor="#000000"
     borderopacity="0.25"
     inkscape:showpageshadow="2"
     inkscape:pageopacity="0.0"
     inkscape:pagecheckerboard="0"
     inkscape:deskcolor="#d1d1d1"
     inkscape:document-units="mm"
     inkscape:zoom="2.8970539"
     inkscape:cx="84.223494"
     inkscape:cy="68.000116"
     inkscape:window-width="1168"
     inkscape:window-height="1081"
     inkscape:window-x="3737"
     inkscape:window-y="0"
     inkscape:window-maximized="0"
     inkscape:current-layer="layer1" />
  <defs
     id="defs1" />
  <g
     inkscape:label="Layer 1"
     inkscape:groupmode="layer"
     id="layer1"
     transform="translate(-114.0891,-77.774176)">
    <g
       id="g25"
       transform="translate(-440.64084,352.31507)">
      <ellipse
         style="fill:none;stroke:#ff00ff;stroke-width:0.1;stroke-dasharray:none;stroke-opacity:1"
         id="path1138-9-4-0-0-1-2-0-0-1-8-3-0-8"
         cx="575.23444"
         cy="-254.1891"
         rx="18.492125"
         ry="18.492126" />
      <circle
         style="fill:none;stroke:#ff0000;stroke-width:0.1;stroke-dasharray:none"
         id="path788-8-1-8-1-9-2-6-3-4-7-1-6-1-0-5"
         cx="575.23444"
         cy="-254.03639"
         r="19.954653" />
      <circle
         style="fill:none;stroke:#0000ff;stroke-width:0.1;stroke-linecap:round;stroke-dasharray:none;stroke-opacity:1;paint-order:markers stroke fill"
         id="path13019-1-33-3-83-70-3-7-5-9-5-8"
         cx="575.23444"
         cy="-269.04736"
         r="2" />
      <path
         style="fill:#000000;stroke-width:0.1;stroke-dasharray:none"
         d="m 566.68933,-245.73363 c -0.11702,-0.045 -0.22414,-0.1214 -0.3207,-0.22873 l -0.14499,-0.16119 -0.0844,0.0803 c -0.22039,0.20966 -0.59858,0.33653 -0.88851,0.29807 -0.5354,-0.071 -0.86548,-0.5032 -0.92308,-1.20861 l -0.0213,-0.26163 h -1.9117 c -2.10207,0 -2.06175,0.004 -2.06175,-0.19923 0,-0.21175 -0.0699,-0.20443 2.04471,-0.21402 l 1.92187,-0.009 0.0224,-0.2035 c 0.13805,-1.25116 1.00381,-2.13027 2.3153,-2.35098 0.15178,-0.0255 0.24474,-0.0573 0.24474,-0.0835 0,-0.0233 0.023,-0.2216 0.0512,-0.44071 0.13162,-1.02365 0.31322,-1.84657 0.59035,-2.6751 0.18092,-0.54089 0.20727,-0.60603 0.47198,-1.16662 l 0.1594,-0.33758 0.0393,-0.82707 c 0.0679,-1.43036 0.19551,-2.3828 0.46358,-3.46021 0.33287,-1.33782 0.84317,-2.38364 1.43171,-2.93416 0.19002,-0.17773 0.24993,-0.18677 0.4917,-0.0742 0.49997,0.23281 1.27673,1.26109 2.17999,2.88591 0.20186,0.36309 0.37818,0.67016 0.39185,0.68238 0.0137,0.0122 0.15396,3.8e-4 0.31178,-0.0264 0.47199,-0.0799 2.72465,-0.0999 3.37062,-0.0299 0.28119,0.0305 0.53222,0.0635 0.55784,0.0733 0.0322,0.0124 0.12244,-0.12123 0.29159,-0.43142 0.47888,-0.87816 1.0177,-1.74575 1.41117,-2.27223 0.248,-0.33182 0.75544,-0.81773 0.93383,-0.8942 0.2505,-0.10738 0.30235,-0.0936 0.53746,0.14308 1.04299,1.04987 1.72375,3.43402 1.83973,6.44305 l 0.0253,0.6546 0.15578,0.3207 c 0.51932,1.06907 0.92656,2.52701 1.08911,3.89906 0.0308,0.25994 0.0661,0.48133 0.0784,0.49198 0.0123,0.0107 0.16633,0.046 0.34227,0.0785 1.26793,0.2343 2.08403,1.09709 2.24642,2.37494 l 0.0225,0.17723 h 1.91582 c 1.81313,0 1.91881,0.003 1.97168,0.0617 0.0797,0.0881 0.0705,0.22799 -0.0192,0.2908 -0.0657,0.046 -0.30933,0.0526 -1.96776,0.0526 h -1.89272 l -0.0558,0.35151 c -0.11853,0.74721 -0.4481,1.10613 -1.02182,1.11279 -0.29369,0.003 -0.53341,-0.0753 -0.72259,-0.23722 l -0.14132,-0.12096 -0.12505,0.13452 c -0.27299,0.29368 -0.65247,0.37906 -1.09172,0.24565 -0.43409,-0.13186 -0.73267,-0.32405 -0.85431,-0.54992 l -0.0634,-0.11763 -0.1523,0.0674 c -0.27754,0.12277 -0.67286,0.0161 -0.98471,-0.26559 -0.12482,-0.11277 -0.3376,-0.47556 -0.3376,-0.57561 0,-0.0377 -0.27338,-0.0441 -1.59038,-0.0368 l -1.59039,0.009 -0.0768,0.21202 c -0.15038,0.41533 -0.48115,0.77389 -0.90629,0.98243 -0.45394,0.22266 -0.6271,0.25629 -1.32187,0.25675 -0.53372,3.8e-4 -0.6401,-0.009 -0.87439,-0.0769 -0.62368,-0.18063 -1.05107,-0.51863 -1.29804,-1.02655 -0.077,-0.15835 -0.14,-0.30533 -0.14,-0.32662 0,-0.0287 -0.41193,-0.0364 -1.5904,-0.0299 l -1.5904,0.009 -0.0692,0.18567 c -0.0962,0.25821 -0.40905,0.56679 -0.6774,0.66819 -0.23451,0.0886 -0.36976,0.0933 -0.58532,0.0201 -0.12739,-0.0433 -0.16325,-0.0455 -0.17477,-0.0109 -0.0356,0.10698 -0.2962,0.33817 -0.5037,0.44694 -0.42973,0.22529 -0.82379,0.2786 -1.14539,0.15497 z m 0.6701,-0.40145 c 0.48996,-0.15397 0.61203,-0.28547 0.63651,-0.68569 0.016,-0.26192 0.0217,-0.27823 0.11152,-0.32112 0.12136,-0.058 0.22197,9.6e-4 0.31743,0.18597 0.0893,0.1731 0.2659,0.29166 0.39581,0.2658 0.15973,-0.0318 0.386,-0.18205 0.48965,-0.32514 0.41503,-0.57293 -0.0985,-1.9685 -0.91976,-2.49974 -0.64373,-0.41637 -1.63043,-0.42158 -2.47077,-0.013 -0.37214,0.18093 -0.60241,0.37967 -0.82432,0.71144 -0.46491,0.6951 -0.5404,1.95427 -0.14824,2.47252 0.10259,0.13558 0.20868,0.17982 0.43679,0.18217 0.34757,0.003 0.5817,-0.19747 0.63404,-0.5444 0.024,-0.15915 0.0925,-0.23626 0.21154,-0.238 0.10268,-0.001 0.194,0.12885 0.24269,0.34639 0.0658,0.29426 0.31728,0.52955 0.5664,0.53004 0.0584,1.1e-4 0.20271,-0.0301 0.32071,-0.0672 z m 16.44736,0.021 c 0.16123,-0.0674 0.31008,-0.26744 0.37618,-0.50561 0.0687,-0.24763 0.13018,-0.32566 0.2565,-0.32566 0.11201,0 0.19922,0.10722 0.19922,0.2449 0,0.34402 0.34663,0.59113 0.74161,0.5287 0.11045,-0.0174 0.21162,-0.0582 0.26247,-0.10562 0.20519,-0.19144 0.31249,-0.57392 0.31249,-1.11379 0,-1.2076 -0.68638,-2.10606 -1.79859,-2.35431 -1.30309,-0.29087 -2.29104,0.18053 -2.75957,1.31674 -0.21039,0.51021 -0.25965,1.04078 -0.12137,1.3072 0.12912,0.24877 0.47054,0.47148 0.65924,0.43004 0.10782,-0.0237 0.23962,-0.15205 0.32027,-0.31194 0.0646,-0.12801 0.16512,-0.19041 0.25887,-0.16066 0.11676,0.037 0.16343,0.15187 0.15751,0.38753 -0.007,0.26329 0.0494,0.36654 0.26869,0.49503 0.18188,0.10658 0.49503,0.20962 0.64453,0.21208 0.0609,9.6e-4 0.16081,-0.0191 0.22195,-0.0446 z m -7.89444,-0.066 c 0.0372,-0.009 0.13595,-0.0349 0.21943,-0.0585 0.0835,-0.0237 0.17164,-0.0468 0.19592,-0.0515 0.10805,-0.0208 0.48985,-0.30613 0.63156,-0.472 0.2101,-0.24593 0.31234,-0.51032 0.34749,-0.8986 0.0523,-0.57786 -0.0485,-1.18815 -0.27089,-1.64034 -0.17927,-0.36446 -0.42048,-0.50576 -0.80293,-0.47037 -0.19909,0.0185 -0.59976,0.1425 -0.663,0.2053 -0.0233,0.0231 -0.0534,0.29815 -0.0763,0.69649 -0.0208,0.36206 -0.053,0.83299 -0.0716,1.04651 -0.0186,0.21352 -0.0442,0.5857 -0.057,0.82707 l -0.0232,0.43886 -0.0249,-0.27007 c -0.0137,-0.14853 -0.0333,-0.39919 -0.0434,-0.55701 -0.0774,-1.20246 -0.15081,-2.16797 -0.16588,-2.18304 -0.0523,-0.0523 -0.5025,-0.18641 -0.6822,-0.20319 -0.26101,-0.0244 -0.4332,0.0285 -0.59443,0.18261 -0.40401,0.38612 -0.63481,1.68834 -0.40551,2.28802 0.13653,0.35709 0.20647,0.47784 0.36489,0.63006 0.28717,0.27593 0.61774,0.43441 1.04158,0.49936 0.19351,0.0297 0.93834,0.023 1.08039,-0.01 z m -2.98743,-1.7696 c 1.3e-4,-0.18103 0.009,-0.4051 0.0189,-0.49794 l 0.0186,-0.16879 -0.24273,-0.15191 c -0.14305,-0.0895 -0.35268,-0.26925 -0.51047,-0.43764 -0.31914,-0.34057 -0.52993,-0.73428 -0.64229,-1.19963 -0.0483,-0.2 -0.10517,-0.3442 -0.16645,-0.42197 -0.10819,-0.13731 -0.21492,-0.3713 -0.24638,-0.54014 -0.0189,-0.10147 -0.005,-0.0874 0.0978,0.0996 0.15777,0.28676 0.29379,0.42203 0.55251,0.54948 0.385,0.18964 0.94638,0.1587 1.38766,-0.0765 0.10447,-0.0557 0.30388,-0.20349 0.44311,-0.32847 0.52865,-0.47451 0.79093,-0.62171 1.23314,-0.69207 l 0.25064,-0.0399 v -0.25424 -0.25423 l -0.14347,-0.0439 c -0.69499,-0.21277 -1.46137,-1.35146 -1.33438,-1.98262 0.0578,-0.28737 0.377,-0.5201 0.88708,-0.64683 0.36657,-0.0911 1.325,-0.0807 1.68554,0.0182 0.83153,0.22817 1.02967,0.69885 0.62688,1.48919 -0.29088,0.57075 -0.757,1.00127 -1.25896,1.16283 -0.0521,0.0168 -0.0592,0.0533 -0.0506,0.26258 l 0.01,0.24307 0.2363,0.0412 c 0.47222,0.0824 0.68834,0.19639 1.15906,0.61144 0.57237,0.50468 0.76727,0.59156 1.33951,0.5971 0.35566,0.003 0.38161,-0.001 0.59779,-0.10753 0.2589,-0.12731 0.40857,-0.28471 0.56128,-0.59026 0.0578,-0.11554 0.10531,-0.19244 0.1057,-0.17089 0.002,0.11383 -0.14256,0.47057 -0.25308,0.62441 -0.0903,0.12568 -0.1405,0.24404 -0.17575,0.4144 -0.13783,0.66595 -0.54839,1.26359 -1.13718,1.65535 l -0.27863,0.1854 0.0313,0.22853 c 0.0172,0.12569 0.0247,0.34642 0.0168,0.4905 l -0.0145,0.26197 1.51971,-0.009 1.5197,-0.009 0.0434,-0.25676 c 0.15064,-0.89196 0.74119,-1.75094 1.43272,-2.08396 0.15615,-0.0752 0.38645,-0.1622 0.51178,-0.19335 0.16774,-0.0417 0.22787,-0.0715 0.22787,-0.11301 0,-0.031 -0.0236,-0.23804 -0.0523,-0.46007 -0.20382,-1.57219 -0.65119,-2.64582 -1.40606,-3.37441 -0.2625,-0.25335 -0.3736,-0.33325 -0.6688,-0.48094 -0.19471,-0.0974 -0.43206,-0.20003 -0.52744,-0.22804 -0.16894,-0.0496 -0.17401,-0.0548 -0.19592,-0.20088 -0.0594,-0.39593 -0.42908,-0.86605 -0.83247,-1.05856 -0.3694,-0.17629 -0.62223,-0.2227 -1.20346,-0.22088 -0.47872,10e-4 -0.51481,-0.003 -0.51481,-0.0608 0,-0.10878 -0.1222,-0.19741 -0.27219,-0.19741 -0.38576,0 -0.97299,0.54942 -0.97612,0.91327 -4.8e-4,0.0763 0.0306,0.099 0.27263,0.19797 0.27101,0.1108 0.65932,0.37368 0.78158,0.52911 0.0615,0.0781 0.067,0.079 0.17101,0.0263 0.0591,-0.0299 0.13247,-0.0763 0.16301,-0.10301 0.12192,-0.10668 0.51093,-0.2119 0.78613,-0.21263 0.26201,-4.8e-4 0.79561,0.11137 0.79561,0.16709 0,0.014 -0.0351,0.0187 -0.0779,0.0105 -0.14107,-0.0269 -0.60715,0.0576 -0.79735,0.14468 -0.21571,0.0988 -0.20729,0.11268 0.13259,0.21895 0.12068,0.0377 0.33899,0.12493 0.48513,0.19377 l 0.2657,0.12514 h -0.72816 c -0.54583,0 -0.73897,0.0108 -0.77131,0.0431 -0.0957,0.0957 0.23482,0.82507 0.58688,1.29515 0.0426,0.0568 0.20918,0.23847 0.37029,0.40369 0.16112,0.16522 0.28591,0.3004 0.27732,0.3004 -0.0716,0 -0.55094,-0.37347 -0.79117,-0.61641 -0.27177,-0.27483 -0.47557,-0.56218 -0.61841,-0.87194 -0.35106,-0.76132 -0.34374,-0.74991 -0.62926,-0.98036 -0.30445,-0.24573 -0.72669,-0.40499 -1.2955,-0.48865 -0.31687,-0.0466 -0.42806,-0.049 -0.71299,-0.0156 -0.78904,0.0926 -1.39049,0.36723 -1.68727,0.77041 -0.0648,0.0881 -0.16513,0.28169 -0.22286,0.43023 -0.26848,0.6908 -0.79323,1.31449 -1.44881,1.72198 -0.13068,0.0812 -0.1029,0.0434 0.19882,-0.27056 0.19351,-0.20139 0.43973,-0.50256 0.54929,-0.6719 0.19788,-0.30585 0.385,-0.72713 0.40567,-0.91334 0.01,-0.0897 -4.9e-4,-0.10055 -0.12416,-0.12775 -0.0743,-0.0163 -0.41166,-0.0249 -0.74977,-0.0191 l -0.61474,0.0106 0.12525,-0.0756 c 0.0689,-0.0416 0.30374,-0.13861 0.5219,-0.21558 0.21817,-0.077 0.39666,-0.14631 0.39666,-0.15409 0,-0.008 -0.0847,-0.0516 -0.18819,-0.0974 -0.20913,-0.0925 -0.64867,-0.16597 -0.80532,-0.13464 -0.14642,0.0293 -0.0675,-0.0287 0.13268,-0.0975 0.22323,-0.0767 0.69357,-0.10456 0.93141,-0.0551 0.10379,0.0215 0.30244,0.10401 0.44144,0.18323 l 0.25273,0.14402 0.18307,-0.16429 c 0.21702,-0.19476 0.46112,-0.33969 0.78815,-0.46799 0.22224,-0.0872 0.23857,-0.10053 0.23446,-0.19158 -0.0211,-0.46778 -0.83181,-1.0568 -1.14886,-0.83473 -0.0392,0.0274 -0.0801,0.0852 -0.0909,0.1285 -0.0196,0.078 -0.0241,0.0787 -0.53555,0.08 -0.76359,0.002 -1.165,0.12708 -1.55642,0.48482 -0.20446,0.18685 -0.41227,0.54835 -0.44966,0.78218 -0.024,0.14969 -0.0279,0.153 -0.29891,0.24878 -0.48229,0.17047 -0.85434,0.40894 -1.18153,0.75732 -0.0928,0.0988 -0.19486,0.20721 -0.22672,0.24082 -0.24701,0.26056 -0.62656,1.0399 -0.82037,1.68444 -0.15752,0.52389 -0.37361,1.81382 -0.31385,1.87357 0.01,0.01 0.12757,0.0483 0.26164,0.0854 0.64952,0.17999 1.17401,0.6101 1.53711,1.26051 0.13812,0.24741 0.30277,0.72807 0.35689,1.04181 l 0.0393,0.22787 h 1.51565 1.51565 z m 2.61972,-7.83189 c -0.01,-0.0325 -0.0342,-0.27935 -0.0546,-0.54857 -0.05,-0.66348 -0.1257,-1.38615 -0.1475,-1.40795 -0.01,-0.01 -0.0256,0.0181 -0.035,0.0621 -0.0192,0.0893 -0.10801,1.03839 -0.1386,1.4809 -0.0109,0.15782 -0.0279,0.32872 -0.0376,0.37978 l -0.0178,0.0928 h 0.22438 c 0.19793,0 0.2223,-0.007 0.20671,-0.0591 z m -5.49753,-1.44162 c 0.59743,-0.47588 1.26616,-0.83735 2.02455,-1.09433 0.17142,-0.0581 0.33473,-0.10562 0.3629,-0.10562 0.0281,0 0.0512,-0.0214 0.0512,-0.0475 0,-0.0261 -0.1773,-0.34135 -0.394,-0.70049 -0.72865,-1.20758 -1.29632,-1.99108 -1.45964,-2.0146 -0.0492,-0.007 -0.14732,0.0361 -0.26276,0.11557 -0.75922,0.5229 -1.23878,2.08806 -1.37989,4.50372 l -0.0227,0.38822 0.36387,-0.38206 c 0.20013,-0.21014 0.52252,-0.50845 0.71643,-0.6629 z m 11.52078,0.11661 c -0.13946,-1.8042 -0.52792,-3.12689 -1.09739,-3.73658 -0.11815,-0.12649 -0.2762,-0.26426 -0.35122,-0.30615 l -0.1364,-0.0761 -0.12301,0.108 c -0.24721,0.21705 -0.74756,0.93445 -1.33763,1.91788 -0.19496,0.32492 -0.37172,0.62332 -0.39279,0.6631 -0.0368,0.0694 -0.0213,0.0779 0.39016,0.21329 1.07445,0.35347 1.97102,0.92623 2.76015,1.76329 l 0.30382,0.32227 0.0111,-0.18973 c 0.006,-0.10435 -0.006,-0.40999 -0.0267,-0.67922 z"
         id="path21" />
    </g>
  </g>
</svg>
