<?xml version="1.0" encoding="UTF-8" standalone="no"?>
<!-- Created with Inkscape (http://www.inkscape.org/) -->

<svg
   width="41.008999mm"
   height="41.008999mm"
   viewBox="0 0 41.008999 41.009"
   version="1.1"
   id="svg1"
   inkscape:version="1.4.2 (f4327f4, 2025-05-13)"
   sodipodi:docname="256.svg"
   xmlns:inkscape="http://www.inkscape.org/namespaces/inkscape"
   xmlns:sodipodi="http://sodipodi.sourceforge.net/DTD/sodipodi-0.dtd"
   xmlns="http://www.w3.org/2000/svg"
   xmlns:svg="http://www.w3.org/2000/svg">
  <sodipodi:namedview
     id="namedview1"
     pagecolor="#ffffff"
     bordercolor="#000000"
     borderopacity="0.25"
     inkscape:showpageshadow="2"
     inkscape:pageopacity="0.0"
     inkscape:pagecheckerboard="0"
     inkscape:deskcolor="#d1d1d1"
     inkscape:document-units="mm"
     inkscape:zoom="2.8970539"
     inkscape:cx="84.223494"
     inkscape:cy="68.000116"
     inkscape:window-width="1168"
     inkscape:window-height="1081"
     inkscape:window-x="3737"
     inkscape:window-y="0"
     inkscape:window-maximized="0"
     inkscape:current-layer="layer1" />
  <defs
     id="defs1" />
  <g
     inkscape:label="Layer 1"
     inkscape:groupmode="layer"
     id="layer1"
     transform="translate(-114.0891,-77.774176)">
    <g
       id="g26"
       transform="translate(-482.84085,352.31507)">
      <ellipse
         style="fill:none;stroke:#ff00ff;stroke-width:0.1;stroke-dasharray:none;stroke-opacity:1"
         id="path1138-9-4-0-0-1-2-0-0-1-8-3-5"
         cx="617.43451"
         cy="-254.1682"
         rx="18.492125"
         ry="18.492126" />
      <circle
         style="fill:none;stroke:#ff0000;stroke-width:0.1;stroke-dasharray:none"
         id="path788-8-1-8-1-9-2-6-3-4-7-1-6-1-0-5-5"
         cx="617.43445"
         cy="-254.03639"
         r="19.954653" />
      <circle
         style="fill:none;stroke:#0000ff;stroke-width:0.1;stroke-linecap:round;stroke-dasharray:none;stroke-opacity:1;paint-order:markers stroke fill"
         id="path13019-1-33-3-83-70-3-7-5-9-5-8-1"
         cx="617.43445"
         cy="-269.04736"
         r="2" />
      <path
         style="fill:#000000;stroke-width:0.1;stroke-dasharray:none"
         d="m 615.36075,-237.07175 c -0.16702,-0.0201 -0.29135,-0.0514 -0.62264,-0.15676 -0.47165,-0.15005 -0.60646,-0.20905 -0.68686,-0.30062 -0.0772,-0.0879 -0.13741,-0.22557 -0.15278,-0.34926 l -0.0129,-0.10281 -0.13159,-0.0109 c -0.0723,-0.006 -0.39201,-0.012 -0.71035,-0.0133 -0.60122,-0.003 -0.74822,-0.0149 -0.88663,-0.0744 -0.15448,-0.0664 -0.22652,-0.17498 -0.27122,-0.40864 -0.10671,-0.55804 0.008,-1.16741 0.29832,-1.58252 l 0.0801,-0.11465 -0.0489,-0.0499 c -0.0646,-0.0662 -0.11567,-0.15519 -0.38647,-0.67482 -0.4991,-0.95745 -0.65211,-1.29391 -0.83375,-1.83284 -0.28518,-0.84598 -0.43972,-1.69005 -0.48684,-2.65829 -0.0406,-0.8381 0.0596,-1.52545 0.35439,-2.42686 0.15295,-0.46759 0.2569,-0.73682 0.65074,-1.68496 0.31097,-0.74877 0.61206,-1.53242 0.68721,-1.78899 0.0483,-0.16455 0.053,-0.32713 0.0165,-0.53764 -0.0447,-0.25681 -0.0454,-0.94242 0,-1.27767 0.0472,-0.35651 0.21692,-1.36399 0.26734,-1.58728 0.13663,-0.60455 0.45992,-1.54218 0.75511,-2.19021 0.0324,-0.0711 0.0589,-0.13533 0.0589,-0.14265 0,-0.007 -0.0634,0.006 -0.14095,0.0277 -0.4343,0.12627 -1.59056,0.35149 -1.62543,0.31662 -0.006,-0.006 0.007,-0.0109 0.0271,-0.0109 0.064,0 0.64162,-0.12188 1.00265,-0.21158 0.33913,-0.0843 0.77125,-0.2021 0.77985,-0.21264 0.0206,-0.0253 0.23488,-0.52746 0.2734,-0.64056 0.056,-0.16415 0.11284,-0.40584 0.099,-0.41976 -0.006,-0.006 -0.23689,0.0228 -0.515,0.0622 -0.64668,0.0916 -1.11185,0.14798 -1.67202,0.2028 -0.57118,0.0559 -1.38112,0.11897 -1.4084,0.10968 -0.0118,-0.004 0.0459,-0.0127 0.12805,-0.0195 0.70216,-0.0583 3.4537,-0.40672 3.48875,-0.44186 0.006,-0.006 0.009,-0.12214 0.008,-0.25878 0,-0.20716 -0.009,-0.27321 -0.0454,-0.39753 l -0.043,-0.14907 -0.29696,0.006 c -0.68214,0.0136 -1.30179,-0.0894 -1.79641,-0.29845 -0.0917,-0.0387 -0.17463,-0.0782 -0.18428,-0.0877 -0.009,-0.009 0.0282,0.003 0.084,0.0274 0.46099,0.20246 1.06479,0.2994 1.79558,0.28831 l 0.37129,-0.006 -0.0751,-0.17538 c -0.0413,-0.0965 -0.11939,-0.27233 -0.17357,-0.39079 -0.15072,-0.32957 -0.21432,-0.53648 -0.28199,-0.91778 -0.10526,-0.59259 -0.12156,-0.99286 -0.0548,-1.33985 0.0395,-0.20535 0.0389,-0.20791 -0.0589,-0.27075 -0.11986,-0.0769 -0.24119,-0.21207 -0.29672,-0.33053 l -0.0472,-0.10028 v -0.49987 c 0,-0.33162 0.008,-0.55299 0.0236,-0.65772 0.0377,-0.25118 0.0873,-0.47837 0.11614,-0.53424 0.0406,-0.0781 0.0341,-0.12167 -0.0697,-0.49092 -0.24183,-0.85886 -0.42094,-1.85228 -0.36033,-1.99857 0.0477,-0.1152 0.21096,-0.19551 0.39419,-0.19393 0.11438,9.3e-4 0.18871,0.0283 0.36216,0.13323 0.37369,0.22595 0.65799,0.48461 1.49179,1.35703 0.3128,0.32731 0.59356,0.59098 0.68161,0.6401 0.0224,0.0125 0.0224,0.01 0,-0.019 -0.22698,-0.28128 -1.46693,-1.54785 -1.69363,-1.73 -0.18488,-0.14853 -0.4035,-0.29354 -0.58137,-0.38559 -0.10913,-0.0565 -0.14571,-0.0666 -0.23918,-0.0666 -0.11231,0 -0.27723,0.0455 -0.35891,0.099 -0.0401,0.0264 -0.0447,0.0262 -0.066,-0.003 -0.0354,-0.048 -0.0633,-0.21288 -0.0501,-0.29458 0.0177,-0.11206 0.0748,-0.21746 0.13912,-0.25725 0.11773,-0.0728 0.35355,-0.0357 0.59591,0.0936 0.78574,0.41938 1.23106,0.73803 1.72037,1.23107 0.27552,0.27766 0.62713,0.689 0.79516,0.93038 0.0413,0.0589 0.0947,0.11633 0.11927,0.1275 0.0347,0.0158 0.13817,0.0123 0.46834,-0.0155 0.23306,-0.0197 0.4829,-0.0436 0.55529,-0.053 0.50292,-0.0653 0.64498,-0.0635 1.46452,0.0178 0.89994,0.0894 0.98393,0.0951 1.03835,0.0716 0.0271,-0.0117 0.12109,-0.10553 0.20908,-0.20856 0.088,-0.10302 0.27817,-0.32545 0.42247,-0.49426 0.43542,-0.50927 0.68373,-0.73992 1.07498,-0.99841 0.1109,-0.0733 0.3161,-0.21323 0.45597,-0.31096 0.54893,-0.38353 0.93087,-0.5217 1.10132,-0.39841 0.0259,0.0189 0.0712,0.0814 0.10012,0.13881 0.0483,0.0959 0.0524,0.11873 0.0513,0.27984 -5.9e-4,0.0965 -0.0106,0.19832 -0.0224,0.22633 l -0.0212,0.051 -0.0477,-0.0454 c -0.0788,-0.0751 -0.24748,-0.16759 -0.34573,-0.18957 -0.0812,-0.0182 -0.10701,-0.0162 -0.21284,0.0161 -0.18441,0.0563 -0.37417,0.19487 -0.89088,0.6501 -0.40091,0.35315 -1.20926,1.17849 -1.57707,1.6101 -0.0318,0.0374 -0.0318,0.0377 0.008,0.0281 0.0229,-0.006 0.37028,-0.34051 0.79528,-0.76749 0.83804,-0.84194 1.31735,-1.27216 1.5474,-1.38895 0.11397,-0.0578 0.14612,-0.0662 0.25614,-0.0669 0.14753,-5.8e-4 0.27964,0.0535 0.37882,0.15584 0.0501,0.0515 0.061,0.0776 0.0678,0.15956 0.0136,0.16611 -0.0565,0.54556 -0.27245,1.47289 -0.10778,0.46263 -0.15073,0.67916 -0.14948,0.75418 0,0.0579 0.0377,0.27098 0.0814,0.47356 0.12799,0.59175 0.13577,0.86114 0.0371,1.28912 -0.0603,0.26228 -0.0916,0.32947 -0.19247,0.41318 -0.0459,0.0381 -0.10166,0.0861 -0.1241,0.10668 l -0.0406,0.0375 0.0418,0.15278 c 0.0992,0.36046 0.097,0.62287 -0.0112,1.36822 -0.0377,0.26046 -0.0734,0.56037 -0.0789,0.66649 -0.013,0.25365 -0.0271,0.30134 -0.12174,0.42342 l -0.0798,0.10275 0.31233,0.004 c 0.43389,0.006 1.08647,0.0353 1.63656,0.0754 1.29025,0.0942 1.77726,0.0904 2.3567,-0.0187 0.10477,-0.0197 0.19376,-0.0327 0.19765,-0.0287 0.006,0.004 -0.0778,0.0241 -0.18176,0.0447 -0.67113,0.13341 -1.2883,0.14644 -2.61813,0.0553 -0.56299,-0.0386 -1.52166,-0.0653 -1.64981,-0.046 l -0.0801,0.0121 0.0212,0.19673 c 0.0206,0.18993 0.0577,0.4311 0.0964,0.62146 0.0177,0.0871 0.0218,0.0921 0.0831,0.10286 0.97897,0.17204 2.511,0.5322 3.59876,0.84604 0.78845,0.22746 1.0526,0.30696 1.04507,0.31449 -0.006,0.004 -0.10449,-0.0207 -0.22352,-0.0546 -1.20926,-0.34532 -3.58428,-0.90566 -4.39429,-1.03675 l -0.0736,-0.0119 0.0436,0.16363 c 0.10973,0.41384 0.4131,1.2091 0.47612,1.24804 0.0347,0.0216 0.53349,0.0836 0.79411,0.0988 l 0.27186,0.0158 -0.35956,-0.007 c -0.19772,-0.004 -0.42441,-0.0156 -0.50369,-0.0268 -0.0792,-0.0111 -0.15224,-0.0176 -0.16219,-0.0142 -0.01,0.004 0.0341,0.10075 0.0981,0.2165 0.54286,0.98453 0.90525,2.23081 1.13736,3.91123 0.10342,0.74847 0.1046,0.75454 0.21061,1.05235 0.28859,0.81087 0.62396,1.61352 0.91491,2.18961 l 0.0871,0.17261 0.18146,-0.40062 c 0.51541,-1.13809 0.82944,-1.65718 1.27141,-2.10164 0.34012,-0.34206 0.5584,-0.46506 0.82526,-0.46506 0.24618,0 0.43954,0.15349 0.53519,0.42485 0.0483,0.13783 0.067,0.45382 0.0359,0.61281 -0.0559,0.28386 -0.18482,0.65582 -0.39113,1.12842 -0.0674,0.15434 -0.1645,0.37703 -0.21586,0.49484 -0.19224,0.44132 -0.32517,0.83959 -0.38501,1.15384 -0.0354,0.18483 -0.0559,0.52964 -0.0788,1.2979 -0.0288,0.96877 -0.056,1.4132 -0.11537,1.86792 -0.0975,0.747 -0.30267,1.43253 -0.61671,2.06085 -0.17456,0.3493 -0.25385,0.4834 -0.57547,0.97342 -0.21433,0.32647 -0.41287,0.65548 -0.73575,1.21897 -0.13263,0.23152 -0.30007,0.51896 -0.37204,0.63876 -0.072,0.11979 -0.1393,0.23818 -0.14954,0.26308 -0.0118,0.0294 -0.0171,0.24558 -0.0147,0.6153 0.006,0.59668 -0.01,0.7977 -0.0713,1.04358 -0.0667,0.26683 -0.17545,0.43045 -0.32941,0.49575 -0.0583,0.0248 -0.47824,0.0373 -1.86226,0.0557 l -0.0807,9.4e-4 -0.0106,0.12406 c -0.0182,0.21829 -0.1053,0.31981 -0.3982,0.46451 -0.2092,0.10332 -0.37411,0.16797 -0.56988,0.22333 -0.94635,0.26768 -2.01244,0.10389 -2.70436,-0.41547 l -0.11921,-0.0895 -0.15525,0.11656 c -0.35479,0.26647 -0.77826,0.43002 -1.2896,0.4981 -0.23547,0.0313 -0.73421,0.0297 -1.00914,-0.004 z m 0.76195,-0.18422 c 0.16762,-0.0191 0.17681,-0.0222 0.16692,-0.057 -0.11532,-0.4053 -0.15784,-0.68274 -0.14536,-0.94887 0.0106,-0.22269 0.0565,-0.44725 0.0917,-0.44725 0.0188,0 0.0247,0.0932 0.0306,0.46918 0.006,0.37013 0.0136,0.49139 0.0371,0.5744 0.0371,0.13108 0.12946,0.3238 0.16144,0.33608 0.0259,0.01 0.3502,-0.0619 0.53348,-0.11829 0.26758,-0.0823 0.3952,-0.21755 0.46299,-0.49076 0.0312,-0.12696 0.0383,-0.40376 0.0112,-0.45436 -0.009,-0.0178 -0.0928,-0.093 -0.18512,-0.16723 -0.64285,-0.51703 -1.11008,-0.72231 -1.61011,-0.70735 -0.19554,0.006 -0.19589,0.006 -0.28124,0.0714 -0.0885,0.0677 -0.11625,0.0707 -0.11625,0.0125 0,-0.0242 -0.0118,-0.0341 -0.0424,-0.0341 -0.0236,0 -0.0923,-0.0237 -0.15348,-0.0526 -0.15572,-0.0737 -0.2069,-0.0804 -0.28871,-0.0377 -0.17269,0.0901 -0.3535,0.28636 -0.44791,0.48635 -0.12934,0.27393 -0.21792,0.91942 -0.14854,1.08222 0.0389,0.0912 0.0981,0.13125 0.31764,0.21455 0.32917,0.12486 0.34495,0.11623 0.29837,-0.16292 -0.0577,-0.34657 -0.0406,-0.55797 0.0518,-0.63477 0.0418,-0.0347 0.0459,-0.0166 0.0177,0.0776 -0.0488,0.16206 -0.0159,0.52638 0.0647,0.71322 0.0721,0.16768 0.23623,0.26098 0.45904,0.26098 h 0.10448 l -0.0118,-0.10085 c -0.007,-0.0555 -0.0236,-0.19946 -0.0377,-0.31998 -0.0643,-0.54982 -0.006,-1.17523 0.11455,-1.17523 0.0318,0 0.0354,0.007 0.0271,0.057 -0.0602,0.35289 -0.0772,0.91985 -0.0359,1.19388 0.04,0.26411 0.0857,0.3298 0.25443,0.36383 0.0911,0.0183 0.10596,0.0182 0.2989,-0.004 z m 3.59924,-0.0497 c 0.0265,-0.0208 0.069,-0.0968 0.1056,-0.18854 0.13399,-0.33606 0.18058,-0.6544 0.15095,-1.03209 -0.0177,-0.22833 -0.007,-0.34029 0.0324,-0.35365 0.04,-0.0133 0.0995,0.32627 0.0834,0.47517 -0.006,0.04 -0.0165,0.15569 -0.0265,0.25698 -0.0106,0.10545 -0.0477,0.2891 -0.0867,0.4297 -0.0893,0.32247 -0.0982,0.38203 -0.062,0.41811 0.0347,0.0346 0.14671,0.0238 0.286,-0.0274 0.17527,-0.0645 0.3304,-0.27093 0.39902,-0.53096 0.0153,-0.0579 0.0324,-0.18338 0.0383,-0.27888 0.008,-0.15126 0.0136,-0.16948 0.0341,-0.14134 0.0501,0.0686 0.006,0.39543 -0.0915,0.66173 -0.066,0.18246 -0.0694,0.20335 -0.0341,0.21691 0.0406,0.0155 0.3353,-0.0691 0.49026,-0.14064 0.14465,-0.0668 0.2397,-0.14453 0.27958,-0.22846 0.0513,-0.10792 0.0288,-0.51439 -0.0442,-0.79966 -0.0518,-0.20179 -0.12386,-0.33941 -0.23853,-0.45407 -0.13706,-0.13702 -0.25214,-0.18155 -0.47618,-0.18417 l -0.16444,-0.002 v 0.13449 c -0.006,0.18609 -0.0371,0.2063 -0.081,0.0479 -0.0259,-0.0925 -0.0888,-0.17805 -0.15826,-0.21423 -0.0542,-0.0283 -0.0962,-0.031 -0.37671,-0.0238 -0.34772,0.008 -0.45839,0.0296 -0.66647,0.12486 -0.34938,0.16001 -0.83821,0.53291 -0.95136,0.72578 -0.0413,0.0705 -0.0436,0.0863 -0.0336,0.22302 0.0389,0.50911 0.17569,0.6636 0.72743,0.823 0.1125,0.0326 0.21086,0.053 0.21857,0.0456 0.0265,-0.0252 0.15337,-0.41727 0.17934,-0.55303 0.0141,-0.0745 0.0259,-0.20369 0.0265,-0.28725 5.9e-4,-0.19845 0.0277,-0.4767 0.0488,-0.49759 0.0288,-0.0286 0.0627,0.21142 0.0613,0.43336 0,0.22143 -0.0124,0.30338 -0.0879,0.65523 -0.0554,0.25731 -0.0513,0.26988 0.0843,0.28464 0.20573,0.0224 0.28954,0.0177 0.33589,-0.0188 z m 2.51224,-0.8783 c 0.17463,-0.0242 0.26981,-0.0667 0.37918,-0.16901 0.17003,-0.15905 0.23152,-0.34738 0.23352,-0.71563 0,-0.13505 -0.006,-0.30079 -0.0106,-0.36832 l -0.0123,-0.12277 0.0488,0.10523 c 0.0686,0.14716 0.0918,0.25601 0.0918,0.42994 0,0.21947 -0.0631,0.45747 -0.18512,0.69823 -0.0254,0.0506 -0.0418,0.0997 -0.0365,0.109 0.006,0.01 0.1522,0.0169 0.35226,0.0169 0.40463,0 0.42619,-0.007 0.49026,-0.14647 0.0229,-0.0502 0.0691,-0.19768 0.1023,-0.32761 0.13423,-0.52454 0.12499,-0.9122 -0.0288,-1.22231 -0.0909,-0.18295 -0.18194,-0.26974 -0.44839,-0.42751 -0.32416,-0.19198 -0.28264,-0.19848 -0.93257,0.1458 -0.26486,0.14026 -0.61535,0.27853 -0.88574,0.34942 -0.13488,0.0354 -0.19943,0.0413 -0.44285,0.0413 -0.19141,-6e-5 -0.28506,0.006 -0.28506,0.0187 0,0.0104 0.0436,0.0368 0.0964,0.0588 0.15349,0.0636 0.2281,0.15565 0.41722,0.51447 0.0928,0.17614 0.19259,0.37636 0.22163,0.44495 0.0655,0.1546 0.14176,0.41448 0.14176,0.48291 0,0.0282 0.01,0.0546 0.0218,0.0589 0.0224,0.007 0.3548,0.0369 0.4723,0.0414 0.0354,9.4e-4 0.12474,-0.006 0.19842,-0.0162 z m 0.99717,-0.62155 c 0.0594,-0.50054 0.0177,-0.75973 -0.16578,-1.03426 -0.0477,-0.071 -0.0984,-0.15784 -0.11303,-0.19295 l -0.0265,-0.0638 0.04,0.0212 c 0.0224,0.0117 0.0885,0.0705 0.14766,0.13055 0.19872,0.20198 0.29183,0.47902 0.25638,0.76309 -0.0189,0.15026 -0.0957,0.41339 -0.13052,0.44633 -0.013,0.0123 -0.0153,-0.008 -0.008,-0.0702 z m -9.27816,0.58318 c 0.0136,-0.0217 0.033,-0.10327 0.0436,-0.18127 0.0329,-0.2454 0.0918,-0.3594 0.41646,-0.80531 0.19565,-0.26884 0.27092,-0.33325 0.62148,-0.53208 0.053,-0.0301 0.0847,-0.0554 0.0702,-0.0563 -0.0141,-5.9e-4 -0.11703,-0.004 -0.22799,-0.007 -0.42459,-0.0129 -0.8057,-0.14083 -1.44562,-0.48512 -0.16473,-0.0887 -0.31192,-0.16873 -0.32705,-0.17797 -0.0442,-0.0271 -0.38584,0.2285 -0.4849,0.3629 -0.19613,0.26621 -0.27593,0.54586 -0.29772,1.04347 l -0.0112,0.25237 -0.0442,-0.0857 c -0.0613,-0.11943 -0.068,-0.29949 -0.0224,-0.60309 0.0365,-0.24441 0.0283,-0.31893 -0.0218,-0.19348 -0.10553,0.26381 -0.14859,0.59137 -0.11849,0.90169 0.0254,0.25991 0.0554,0.38002 0.11584,0.45909 0.0875,0.1147 0.1172,0.12177 0.51199,0.12177 0.19454,0 0.35874,-0.006 0.36493,-0.0112 0.007,-0.007 -0.0159,-0.0535 -0.0488,-0.10523 -0.34231,-0.53562 -0.44084,-1.06849 -0.26751,-1.44704 0.0554,-0.12128 0.16938,-0.27465 0.18924,-0.25484 0.007,0.007 -0.006,0.0603 -0.0306,0.11663 -0.15754,0.35621 -0.15772,0.83473 -4.7e-4,1.1782 0.0994,0.21706 0.28318,0.44135 0.39991,0.48812 0.11302,0.0452 0.19684,0.0576 0.40315,0.0598 0.17722,0.002 0.18959,-4e-4 0.21256,-0.0375 z m 3.54593,-0.81812 c 0.0365,-0.40154 0.0282,-0.69905 -0.0241,-0.89633 -0.0195,-0.0723 -0.0977,-0.29335 -0.17433,-0.4911 -0.43154,-1.11388 -0.54998,-1.40788 -0.59362,-1.47382 -0.0436,-0.0662 -0.32876,-0.33271 -0.35573,-0.33271 -0.006,0 -0.0218,0.0358 -0.0347,0.0797 -0.0318,0.10716 -0.14847,0.22212 -0.27805,0.27359 -0.0854,0.034 -0.13387,0.0401 -0.31993,0.0406 -0.18234,5.3e-4 -0.24124,-0.007 -0.35031,-0.0405 -0.27099,-0.085 -0.47654,-0.22606 -0.55946,-0.38367 -0.0283,-0.0543 -0.27247,-0.7494 -0.41099,-1.17123 -0.34937,-1.06385 -0.65534,-2.12454 -0.93339,-3.23597 -0.25414,-1.01557 -0.27457,-1.18797 -0.31539,-2.65718 -0.0147,-0.52092 -0.0347,-1.0142 -0.0442,-1.0962 -0.0306,-0.25287 -0.10778,-0.51397 -0.19972,-0.67525 -0.0218,-0.0386 -0.0686,-0.11979 -0.10348,-0.18044 -0.1764,-0.30683 -0.24001,-0.69402 -0.23972,-1.45947 3e-4,-0.85445 0.10831,-1.66832 0.34114,-2.57113 0.0624,-0.24189 0.13339,-0.43988 0.36751,-1.02494 0.15955,-0.39882 0.28771,-0.72757 0.28471,-0.73056 -0.008,-0.007 -0.2803,0.57757 -0.40056,0.86126 -0.2833,0.6679 -0.4005,1.08675 -0.53997,1.9293 -0.15325,0.92562 -0.17792,1.14152 -0.18846,1.65007 -0.0106,0.50661 0.013,0.73163 0.10295,0.98712 0.06,0.17022 0.0982,0.24168 0.24654,0.46134 0.26239,0.38837 0.3032,0.72641 0.19259,1.59458 -0.13075,1.02674 -0.0817,1.79211 0.18276,2.85011 0.10136,0.40564 0.5826,2.07274 0.82532,2.85888 0.33177,1.07477 0.57984,1.78681 0.96249,2.76242 0.21697,0.55318 0.42765,1.1623 0.47223,1.36504 0.0153,0.0697 -0.0236,0.15803 -0.11202,0.25384 -0.0395,0.0427 -0.0715,0.0856 -0.0715,0.0954 0,0.01 0.0218,0.0265 0.0483,0.0371 0.1056,0.0422 0.22668,0.0551 0.50998,0.0543 0.16291,-4.5e-4 0.33083,0.007 0.37323,0.0166 0.0424,0.01 0.13623,0.031 0.20861,0.0475 0.32075,0.0735 0.70034,0.30426 0.99094,0.60249 l 0.0877,0.09 0.0112,-0.0753 c 0.006,-0.0414 0.0247,-0.22838 0.0418,-0.41547 z m 1.08935,0.0663 c 0.17834,-0.13397 0.40863,-0.25271 0.58049,-0.29928 0.12215,-0.0331 0.19718,-0.0378 0.72066,-0.0452 0.53237,-0.007 0.58337,-0.0108 0.57354,-0.0369 -0.006,-0.0158 -0.0436,-0.0832 -0.0835,-0.14964 -0.0436,-0.0728 -0.0728,-0.14256 -0.0727,-0.1754 0,-0.0817 0.27775,-0.75208 0.52182,-1.25942 0.37883,-0.78749 0.70653,-1.65314 1.15072,-3.03958 0.11751,-0.36656 0.27571,-0.85591 0.35162,-1.08742 0.55928,-1.7059 0.7097,-2.38287 0.73061,-3.28859 0.0112,-0.47917 -0.013,-0.77256 -0.0928,-1.14005 -0.11001,-0.50593 -0.13151,-0.64369 -0.14152,-0.90736 -0.0112,-0.29576 0.006,-0.41939 0.0769,-0.59224 0.053,-0.12719 0.0946,-0.17499 0.19831,-0.22785 0.10902,-0.0556 0.13611,-0.0909 0.17628,-0.23016 0.0978,-0.33886 0.10902,-0.65375 0.043,-1.20848 -0.11668,-0.9809 -0.20166,-1.39969 -0.52677,-2.59552 -0.10189,-0.37474 -0.12074,-0.42971 -0.14718,-0.42971 -0.008,0 0.008,0.0849 0.0365,0.18855 0.17062,0.62558 0.33076,1.35684 0.40809,1.86353 0.0845,0.55292 0.10348,0.80118 0.10507,1.36805 0,0.46917 0,0.54893 -0.0306,0.64865 -0.0418,0.1477 -0.11586,0.29529 -0.21239,0.42369 -0.0964,0.12824 -0.14418,0.25384 -0.17864,0.46974 -0.0424,0.26463 -0.0495,0.88627 -0.017,1.42383 0.0359,0.594 0.0371,1.22823 0,1.49252 -0.0572,0.43747 -0.34561,1.61357 -0.61601,2.51339 -0.23011,0.76551 -0.58425,1.79936 -0.89434,2.6104 -0.10755,0.28136 -0.16732,0.4123 -0.2254,0.49366 -0.28953,0.40576 -0.83386,0.52926 -1.29791,0.29449 -0.1106,-0.0559 -0.2781,-0.22289 -0.30879,-0.30769 -0.013,-0.0359 -0.0288,-0.0654 -0.0354,-0.0654 -0.007,0 -0.0829,0.0743 -0.16968,0.16498 -0.2804,0.29333 -0.41935,0.53897 -0.59138,1.04551 -0.34791,1.02437 -0.48337,1.64697 -0.48254,2.21842 4.1e-4,0.25921 0,0.25734 0.16615,0.10291 0.0797,-0.073 0.20714,-0.1794 0.28312,-0.23645 z m -6.44789,-1.99335 c -0.0768,-0.15894 -0.25921,-0.58159 -0.37646,-0.87232 -0.43278,-1.07276 -0.70665,-2.06525 -0.83493,-3.0255 -0.0471,-0.35193 -0.0659,-1.16842 -0.0347,-1.51056 0.0554,-0.61109 0.20201,-1.21295 0.41911,-1.72115 0.0395,-0.0923 0.13788,-0.29688 0.21863,-0.45444 0.17497,-0.34154 0.27199,-0.58612 0.50233,-1.26651 0.19218,-0.56791 0.26362,-0.75415 0.43065,-1.12275 0.1152,-0.25435 0.13511,-0.33964 0.0881,-0.37856 -0.033,-0.0273 -0.0218,-0.0529 -0.48613,1.10453 -0.20331,0.50644 -0.43266,1.06681 -0.50969,1.24527 -0.44638,1.03406 -0.64287,1.62647 -0.74747,2.25378 -0.10701,0.64198 -0.0951,1.5306 0.0318,2.35662 0.17816,1.16055 0.64645,2.43107 1.25008,3.39177 0.0608,0.0968 0.0955,0.0966 0.0488,-1.9e-4 z m 5.16807,-0.32422 c -4.8e-4,-0.37913 0.007,-0.45079 0.13057,-1.21459 0.1708,-1.05783 0.189,-1.159 0.23324,-1.2979 0.0495,-0.15479 0.16432,-0.36412 0.191,-0.34763 0.0336,0.0208 0.15136,0.29905 0.21391,0.50549 0.16627,0.54884 0.32905,1.62974 0.35255,2.34147 0.006,0.16881 0.0136,0.31813 0.0182,0.33179 0.0153,0.0491 0.0413,-0.009 0.0689,-0.1569 0.0559,-0.29967 0.14029,-0.519 0.36044,-0.93959 0.0972,-0.18563 0.13865,-0.2834 0.13865,-0.32693 0,-0.0392 -0.0418,-0.15268 -0.11309,-0.30812 -0.19512,-0.42457 -0.24565,-0.65317 -0.24507,-1.10835 4.7e-4,-0.35243 0.0171,-0.45796 0.14672,-0.93834 0.33047,-1.22339 0.5829,-2.38983 0.69297,-3.20203 0.0477,-0.35387 0.10796,-0.61904 0.1658,-0.73236 0.02,-0.0397 0.17127,-0.21092 0.33565,-0.38056 0.16439,-0.16965 0.34513,-0.37084 0.40168,-0.4471 0.18134,-0.2446 0.37888,-0.66645 0.55456,-1.18435 l 0.0815,-0.24016 -0.0459,-0.0903 c -0.0834,-0.16482 -0.0513,-0.3753 0.12945,-0.844 0.0406,-0.10612 0.0883,-0.2324 0.10537,-0.28064 0.0171,-0.0483 0.0745,-0.21008 0.12775,-0.35969 0.0531,-0.1496 0.14559,-0.44557 0.20531,-0.65772 0.0598,-0.21214 0.15896,-0.55935 0.22045,-0.77158 0.22051,-0.76082 0.28324,-1.05248 0.2999,-1.39436 0.0188,-0.3845 -0.053,-0.80835 -0.19513,-1.15153 -0.0354,-0.0853 -0.10088,-0.25108 -0.14576,-0.36834 l -0.0817,-0.21321 -0.17592,-0.0651 c -0.4121,-0.15246 -0.70688,-0.30822 -1.21369,-0.6413 -0.20419,-0.13421 -0.38382,-0.24884 -0.3992,-0.25473 -0.0177,-0.007 -0.13375,0.053 -0.31279,0.16112 -0.7484,0.45169 -1.14313,0.59386 -1.7715,0.63813 -0.4293,0.0302 -1.05178,-0.0322 -1.42442,-0.14293 -0.21179,-0.063 -0.53843,-0.21908 -0.75789,-0.36233 l -0.16113,-0.10521 -0.26857,0.11875 c -0.3052,0.13496 -0.77125,0.31784 -1.06167,0.41661 l -0.19684,0.0669 -0.0704,0.18859 c -0.091,0.24378 -0.1655,0.52587 -0.21421,0.81129 -0.053,0.31023 -0.0572,0.96559 -0.008,1.27134 0.0354,0.22312 0.15007,0.69721 0.30055,1.24553 0.15885,0.57857 0.20119,0.7182 0.52424,1.7276 0.11108,0.34727 0.20725,0.66102 0.21367,0.69719 0.0177,0.0996 -0.006,0.18406 -0.0633,0.23597 -0.0283,0.0254 -0.0518,0.0639 -0.0518,0.0858 0,0.0758 0.26509,0.75401 0.40386,1.03314 0.23029,0.46341 0.48902,0.78319 0.86572,1.07003 0.20944,0.15949 0.29212,0.25374 0.34508,0.39308 0.0182,0.0485 0.0733,0.31134 0.12192,0.58411 0.23717,1.33104 0.40061,2.05146 0.71936,3.17104 0.0756,0.26549 0.14694,0.5373 0.15855,0.60405 0.0247,0.14201 0.0141,0.361 -0.0277,0.56194 -0.0424,0.20564 -0.17617,0.65721 -0.22911,0.77495 -0.0762,0.16947 -0.11255,0.28768 -0.11255,0.36615 0,0.0799 0.0804,0.32755 0.18469,0.56897 0.11768,0.27224 0.21339,0.53306 0.25426,0.69279 0.0341,0.13375 0.0604,0.20171 0.0778,0.20171 0,0 0.006,-0.15193 0.006,-0.33763 z m 7.12231,-0.21463 c 0.41423,-0.89957 0.56294,-1.27058 0.68597,-1.71167 0.26746,-0.95881 0.32441,-1.31872 0.32341,-2.04194 0,-0.95011 -0.17599,-1.82975 -0.611,-3.07811 -0.15967,-0.45815 -0.35132,-0.93832 -0.84357,-2.11347 -0.12934,-0.30869 -0.25615,-0.61201 -0.28189,-0.67406 -0.0906,-0.21886 -0.0572,-0.0733 0.0629,0.27199 0.24124,0.69454 0.48619,1.33795 0.71724,1.88412 0.0674,0.15918 0.13617,0.35254 0.1529,0.42971 0.0536,0.24625 0.14188,0.53141 0.31256,1.00851 0.26952,0.75322 0.32588,1.04358 0.34055,1.75391 0.0123,0.59436 -0.0259,1.03922 -0.15473,1.8153 -0.10089,0.60651 -0.22775,1.02194 -0.57301,1.87669 -0.26862,0.66513 -0.41646,1.03835 -0.43394,1.09552 -0.0129,0.0421 -0.0123,0.0425 0.0288,0.0154 0.0289,-0.0192 0.1138,-0.18402 0.27406,-0.53194 z m -2.38077,-15.43468 c 0,-0.005 -0.006,-0.008 -0.008,-0.008 -0.006,0 -0.008,0.004 -0.008,0.008 0,0.005 0.006,0.008 0.008,0.008 0.006,0 0.008,-0.004 0.008,-0.008 z m -0.0717,-0.18854 c -0.0472,-0.12 -0.19213,-0.39532 -0.22075,-0.4191 -0.0123,-0.0102 0.0341,0.10065 0.10325,0.24633 0.12245,0.25818 0.18989,0.35736 0.1175,0.17277 z m -0.36663,-0.0438 c 4.1e-4,-0.0358 -0.16768,-0.39351 -0.22457,-0.47776 -0.0559,-0.0833 -0.0899,-0.11004 -0.24914,-0.19768 -0.42977,-0.2366 -0.7577,-0.36376 -0.93823,-0.36376 -0.0799,0 -0.11214,0.0104 -0.19353,0.0624 l -0.0976,0.0624 0.2946,0.19494 c 0.54774,0.36247 0.80235,0.50418 1.17358,0.65321 0.19477,0.0782 0.23458,0.0894 0.23488,0.0661 z m -7.1298,-0.33458 c 0.44544,-0.16774 0.89617,-0.36807 0.87485,-0.38881 -0.008,-0.008 -0.0943,-0.0751 -0.19083,-0.14848 -0.20319,-0.15461 -0.17768,-0.1531 -0.44431,-0.0263 -0.24036,0.11433 -0.39773,0.22115 -0.52295,0.35502 -0.0916,0.098 -0.23417,0.32837 -0.23417,0.37856 0,0.0173 0.15655,-0.0341 0.51741,-0.17 z m 3.37625,0.10898 c 0.44355,-0.0672 0.92957,-0.19124 0.92957,-0.23735 0,-0.0244 -0.15378,-0.11615 -0.24371,-0.14528 -0.0442,-0.0144 -0.1555,-0.0388 -0.24691,-0.0545 -0.36009,-0.0612 -0.54903,-0.17786 -0.7163,-0.44233 -0.0259,-0.041 -0.053,-0.0746 -0.0605,-0.0746 -0.007,-2e-5 -0.0318,0.0418 -0.0547,0.093 -0.0726,0.16423 -0.19224,0.27038 -0.37995,0.33709 -0.13205,0.047 -0.52783,0.14697 -0.64845,0.16389 -0.11979,0.0168 -0.24542,0.0768 -0.24542,0.1173 0,0.0381 0.45292,0.16892 0.78922,0.22789 0.34141,0.0599 0.55497,0.0634 0.87697,0.0147 z m 1.19737,-0.34238 c 0.21515,-0.10795 0.64427,-0.36335 0.64427,-0.38347 0,-0.0218 -0.35909,-0.16843 -0.51741,-0.21123 -0.18092,-0.0489 -0.21114,-0.0768 -0.0702,-0.0648 0.1291,0.011 0.34025,0.0803 0.52359,0.17191 l 0.13776,0.0689 0.12534,-0.0877 c 0.12367,-0.0864 0.43335,-0.3539 0.42299,-0.36526 -0.008,-0.008 -0.32434,-0.0488 -0.85506,-0.108 -0.50492,-0.0563 -0.52942,-0.0604 -0.51323,-0.0866 0.0153,-0.0245 0.59922,0.0259 1.18465,0.10219 l 0.25431,0.0331 0.0877,-0.0804 c 0.0483,-0.0443 0.20607,-0.19512 0.35072,-0.33534 0.19,-0.18408 0.25456,-0.25662 0.23235,-0.261 -0.0977,-0.0193 -1.09559,0.0959 -1.72361,0.19891 -0.20937,0.0343 -0.38454,0.0587 -0.38919,0.054 -0.0218,-0.0217 0.0229,-0.0454 0.13116,-0.0699 0.41063,-0.0928 1.07657,-0.18634 1.6441,-0.23086 0.20255,-0.0159 0.3849,-0.032 0.40515,-0.0357 0.0995,-0.0185 0.31522,-0.58438 0.41752,-1.09496 0.0436,-0.21667 0.10614,-0.70382 0.095,-0.73736 -0.006,-0.01 -0.0406,0.0637 -0.0828,0.1627 -0.1191,0.2784 -0.28441,0.60549 -0.37677,0.7454 -0.1841,0.27886 -0.44225,0.5021 -0.67731,0.58565 -0.098,0.0348 -0.14848,0.0406 -0.35956,0.0411 -0.23277,5.3e-4 -0.25402,-0.003 -0.40951,-0.0567 -0.20343,-0.071 -0.35609,-0.15959 -0.53755,-0.31186 -0.17004,-0.14264 -0.1993,-0.1557 -0.48996,-0.21853 -0.12604,-0.0272 -0.24313,-0.0551 -0.26021,-0.0618 -0.0271,-0.0108 -0.0288,-0.007 -0.013,0.0351 0.0324,0.0859 -0.0224,0.0413 -0.0759,-0.0617 -0.0477,-0.0914 -0.0495,-0.10351 -0.0406,-0.27108 0.0271,-0.50729 0.30427,-0.96472 0.70536,-1.16432 0.25343,-0.12614 0.27674,-0.13059 0.69521,-0.13287 0.20937,-9.4e-4 0.38695,-0.008 0.3946,-0.0163 0.0206,-0.0211 -0.15418,-0.17474 -0.25172,-0.22091 -0.11384,-0.0539 -0.28111,-0.065 -0.4224,-0.0281 -0.0601,0.0157 -0.22187,0.0763 -0.35951,0.13468 -0.13764,0.0584 -0.27087,0.11028 -0.29607,0.11533 l -0.0459,0.009 0.0247,-0.12009 c 0.0165,-0.0793 0.0295,-0.31397 0.0377,-0.69012 0.007,-0.31351 0.0112,-0.57284 0.008,-0.57627 0,-0.004 -0.0241,0.0139 -0.0488,0.0387 -0.0442,0.0444 -0.0448,0.0479 -0.0448,0.32479 0,0.31186 -0.0218,0.45988 -0.10712,0.72665 -0.0626,0.19575 -0.0874,0.21585 -0.04,0.0326 0.0259,-0.10178 0.0277,-0.13057 0.009,-0.17048 -0.0324,-0.071 -0.0495,-0.0373 -0.0808,0.15637 -0.0288,0.18111 -0.0418,0.21831 -0.0889,0.25729 -0.0241,0.02 -0.0312,0.0198 -0.0442,-9.4e-4 -0.023,-0.0361 -0.0675,-0.24874 -0.0849,-0.40227 l -0.0147,-0.13154 v 0.20754 c 0,0.15248 -0.007,0.20569 -0.0236,0.20056 -0.0388,-0.013 -0.13687,-0.17475 -0.16608,-0.27426 -0.0371,-0.12583 -0.0365,-0.42933 0,-0.76254 0.0383,-0.33736 0.0377,-0.35121 -0.0265,-0.419 l -0.0536,-0.0573 0.01,0.0633 c 0.0112,0.0672 -0.0195,0.24361 -0.0418,0.24361 -0.007,0 -0.0141,-0.0364 -0.0147,-0.0808 0,-0.11661 -0.0341,-0.13731 -0.0477,-0.0309 -0.006,0.047 -0.0195,0.10515 -0.03,0.12927 -0.0177,0.0417 -0.0195,0.0422 -0.033,0.008 -0.007,-0.0193 -0.0154,-0.0666 -0.0171,-0.10523 0,-0.0642 -0.006,-0.0661 -0.017,-0.0233 -0.007,0.0258 -0.02,0.0948 -0.0265,0.15347 -0.0159,0.13883 -0.0616,0.13877 -0.0616,-7e-5 0,-0.0282 -0.007,-0.0512 -0.0177,-0.0512 -0.01,0 -0.0177,0.047 -0.0177,0.1058 0,0.10635 -0.0359,0.22745 -0.0678,0.22745 -0.009,0 -0.0224,-0.0231 -0.0282,-0.0515 -0.007,-0.0283 -0.0224,-0.0605 -0.0359,-0.0717 -0.0195,-0.0163 -0.0265,-0.0113 -0.0359,0.0251 -0.0171,0.0675 -0.0389,0.0553 -0.0669,-0.0379 l -0.0254,-0.0833 -0.0212,0.0587 -0.0212,0.0587 -0.0695,-0.12007 c -0.0783,-0.13524 -0.0804,-0.13804 -0.0925,-0.12587 -0.006,0.005 0.006,0.0476 0.0177,0.095 0.0365,0.12083 0.033,0.13046 -0.0195,0.0533 -0.0254,-0.037 -0.0758,-0.15787 -0.11249,-0.26854 -0.0365,-0.11068 -0.0724,-0.20654 -0.0794,-0.21301 -0.007,-0.007 -0.006,0.13817 0,0.32146 0.0295,0.63318 0.01,0.87495 -0.0865,1.08392 l -0.0424,0.0912 -0.0129,-0.0658 c -0.007,-0.0362 -0.0195,-0.0658 -0.0265,-0.0658 -0.0241,0 -0.033,0.07 -0.0159,0.12781 0.008,0.0309 0.0159,0.0778 0.0159,0.10447 0,0.0473 0,0.0484 -0.10289,0.0484 -0.17256,0 -0.21373,-0.0559 -0.23871,-0.32448 -0.0141,-0.15528 -0.0608,-0.3277 -0.0859,-0.31933 -0.0106,0.004 -0.0265,0.0314 -0.0354,0.062 -0.008,0.0306 -0.0218,0.0556 -0.0288,0.0556 -0.0241,0 -0.0908,-0.18084 -0.10625,-0.28794 -0.008,-0.0587 -0.0159,-0.18167 -0.0159,-0.27331 -5.3e-4,-0.18412 -0.0206,-0.2811 -0.0754,-0.35777 l -0.0359,-0.0508 -0.0159,0.0421 c -0.008,0.0231 -0.0106,0.11704 -0.006,0.20868 0.007,0.0917 0.0136,0.32447 0.0159,0.5174 0.006,0.29227 0.0123,0.39257 0.0513,0.60121 0.0259,0.13773 0.0465,0.25722 0.0465,0.26553 0,0.008 -0.12033,-0.0454 -0.26745,-0.11934 -0.14713,-0.0739 -0.33447,-0.1608 -0.4164,-0.193 -0.1344,-0.0529 -0.16173,-0.0577 -0.28059,-0.0501 -0.0764,0.005 -0.16526,0.0233 -0.21149,0.0437 -0.0925,0.0409 -0.27794,0.20452 -0.25644,0.22637 0.008,0.008 0.18959,0.0195 0.40344,0.025 0.41705,0.0109 0.42871,0.0131 0.64398,0.12176 0.21415,0.10799 0.41952,0.29622 0.59344,0.54387 0.0799,0.11371 0.0883,0.13786 0.18611,0.52846 0.10955,0.43761 0.11391,0.49651 0.043,0.57906 l -0.0354,0.0407 0.0112,-0.11623 c 0.006,-0.0639 0.006,-0.12053 -0.006,-0.12576 -0.0265,-0.0165 -0.39979,0.0651 -0.44497,0.0972 -0.0236,0.0168 -0.11808,0.0857 -0.20973,0.15295 -0.28311,0.2078 -0.60976,0.36026 -0.86825,0.40528 -0.33148,0.0577 -0.59987,-0.036 -0.90607,-0.31628 -0.23647,-0.21647 -0.36345,-0.41147 -0.57165,-0.87768 -0.0711,-0.15918 -0.13764,-0.29729 -0.1479,-0.30694 -0.0265,-0.025 -0.006,0.23194 0.0389,0.48235 0.0718,0.40035 0.25497,0.84085 0.47613,1.14475 0.0577,0.0794 0.14706,0.20756 0.19836,0.28482 l 0.0933,0.14045 0.25161,-0.0145 c 0.54927,-0.0317 1.24372,0.005 1.57967,0.0826 0.29531,0.0686 0.26503,0.11008 -0.0388,0.0533 -0.12056,-0.0224 -0.30608,-0.05 -0.41216,-0.061 -0.20537,-0.0214 -1.04329,-0.0234 -1.24042,-0.003 l -0.11785,0.0123 0.0688,0.15497 c 0.0377,0.0852 0.0786,0.16684 0.0907,0.18133 0.0354,0.0427 0.40433,0.32142 0.42542,0.32137 0.0634,-2e-4 0.66611,-0.12396 0.68673,-0.14105 0.0136,-0.0114 0.0383,-0.0156 0.0542,-0.009 0.0159,0.007 0.14047,-0.008 0.27646,-0.0334 0.13593,-0.0245 0.26857,-0.0482 0.29472,-0.0525 0.0879,-0.0147 0.0688,0.0244 -0.0247,0.051 -0.0939,0.0267 -0.52271,0.11262 -0.96861,0.19418 -0.13446,0.0246 -0.24678,0.047 -0.24955,0.0498 -0.01,0.0102 0.55687,0.43261 0.5809,0.43261 0.006,0 0.15543,-0.071 0.33406,-0.15785 0.17864,-0.0868 0.33265,-0.15785 0.3422,-0.15785 0.0716,0 -0.0849,0.0977 -0.42513,0.26556 l -0.18811,0.0928 0.13552,0.0871 c 0.0746,0.0479 0.17864,0.10486 0.23135,0.12657 l 0.0958,0.0395 0.0603,-0.0704 c 0.0772,-0.0901 0.11537,-0.10458 0.31821,-0.12046 0.17611,-0.0138 0.2956,-0.0529 0.568,-0.18574 0.1797,-0.0877 0.33707,-0.23034 0.36198,-0.32814 0.01,-0.0403 0.0371,-0.11682 0.0599,-0.16987 0.0229,-0.053 0.0465,-0.13384 0.053,-0.17951 0.0141,-0.0989 0.0513,-0.13122 0.17015,-0.14698 0.0459,-0.006 0.087,-0.0218 0.0922,-0.0352 0.006,-0.0155 0.0371,-0.0242 0.0872,-0.0242 0.0747,0 0.0817,-0.005 0.16467,-0.10962 0.0477,-0.0603 0.0957,-0.12686 0.10673,-0.14793 0.0318,-0.0609 0.0247,-0.1539 -0.0147,-0.18974 -0.0659,-0.0596 -0.32263,-0.11637 -0.57,-0.1261 -0.24325,-0.01 -0.35691,0.007 -0.55982,0.0833 l -0.10201,0.0382 0.008,0.0736 c 0.0112,0.097 0.0524,0.15648 0.16703,0.24138 0.0611,0.0451 0.10501,0.0943 0.12392,0.13875 l 0.0295,0.0688 0.0648,-0.0441 c 0.0813,-0.0553 0.0906,-0.055 0.13741,0.004 0.0318,0.0402 0.0365,0.0634 0.0288,0.13986 -0.006,0.0504 -0.0141,0.0997 -0.0206,0.10962 -0.0277,0.0451 -0.28435,9.3e-4 -0.338,-0.0575 -0.0195,-0.0212 -0.0447,-0.0679 -0.056,-0.10395 -0.0224,-0.0707 -0.0702,-0.11157 -0.19383,-0.16652 -0.0436,-0.0193 -0.0987,-0.0565 -0.12274,-0.0827 -0.0383,-0.0415 -0.0436,-0.0636 -0.0436,-0.17338 0,-0.15829 0.0371,-0.21864 0.16073,-0.26149 0.0465,-0.0162 0.14006,-0.0493 0.20761,-0.0735 0.14877,-0.0535 0.3482,-0.0588 0.70764,-0.0185 0.53638,0.06 0.66742,0.13379 0.64822,0.36536 -0.01,0.1186 -0.0577,0.18064 -0.15284,0.19773 -0.0871,0.0157 -0.10312,0.0326 -0.13493,0.14181 -0.0154,0.0525 -0.0513,0.1219 -0.0794,0.15432 -0.0845,0.0963 -0.17122,0.0971 -0.27487,0.003 -0.0595,-0.0543 -0.0774,-0.0142 -0.0675,0.1508 0.0147,0.25135 0.14153,0.44847 0.36233,0.56448 0.16379,0.0861 0.29278,0.1288 0.48077,0.15925 0.16616,0.0269 0.26522,0.0759 0.31875,0.15759 0.0159,0.0241 0.0318,0.0439 0.0359,0.0439 0.006,0 0.0879,-0.0405 0.18653,-0.09 z m -3.3196,-0.6203 c 0,-0.0145 0.0118,-0.0263 0.0265,-0.0263 0.0141,0 0.0265,0.0119 0.0265,0.0263 0,0.0145 -0.0118,0.0263 -0.0265,0.0263 -0.0147,0 -0.0265,-0.0119 -0.0265,-0.0263 z m 0.92156,0.01 c -0.006,-0.009 0,-0.0212 0.007,-0.0273 0.0212,-0.013 0.0531,0.004 0.0531,0.0271 0,0.0213 -0.0477,0.0215 -0.0606,2e-4 z m 1.99801,-0.0374 c -0.007,-0.0103 -0.007,-0.0229 0,-0.0281 0.0123,-0.0125 0.0465,0.01 0.0465,0.0302 0,0.0225 -0.03,0.021 -0.0447,-0.003 z m 0.46546,-0.15669 c 0,-0.01 0.0118,-0.0176 0.0265,-0.0176 0.0147,0 0.0265,0.007 0.0265,0.0176 0,0.01 -0.0118,0.0176 -0.0265,0.0176 -0.0147,0 -0.0265,-0.007 -0.0265,-0.0176 z m -2.81226,-0.047 c -0.007,-0.007 -0.0118,-0.0221 -0.0118,-0.0349 0,-0.0262 0.0454,-0.032 0.0602,-0.007 0.0118,0.0193 -0.033,0.0586 -0.0489,0.0428 z m 2.10533,-0.0169 c -0.0165,-0.0164 0.006,-0.0414 0.033,-0.0414 0.0141,0 0.0254,0.0119 0.0254,0.0263 0,0.0265 -0.0371,0.036 -0.0583,0.0151 z m 0.36739,-0.0536 c -0.0212,-0.021 -0.0112,-0.058 0.0154,-0.058 0.0147,0 0.0265,0.0114 0.0265,0.0253 0,0.0294 -0.0254,0.049 -0.0413,0.0327 z m -2.79994,-0.058 c 0,-0.01 0.0118,-0.0176 0.0265,-0.0176 0.0141,0 0.0265,0.007 0.0265,0.0176 0,0.01 -0.0118,0.0176 -0.0265,0.0176 -0.0147,0 -0.0265,-0.007 -0.0265,-0.0176 z m -0.59981,-0.0736 c 0.0165,-0.0164 0.0259,-0.0164 0.0418,0 0.0165,0.0164 0.0118,0.0211 -0.0212,0.0211 -0.033,0 -0.0371,-0.005 -0.0212,-0.0211 z m 4.02818,-0.1026 c -0.0165,-0.0269 0.006,-0.0444 0.0288,-0.0219 0.0123,0.0126 0.0129,0.0224 0,0.0298 -0.01,0.006 -0.0229,0.003 -0.0295,-0.007 z m -2.93729,-0.0342 c 0,-0.01 0.0118,-0.0176 0.0265,-0.0176 0.0147,0 0.0265,0.007 0.0265,0.0176 0,0.01 -0.0118,0.0176 -0.0265,0.0176 -0.0147,0 -0.0265,-0.007 -0.0265,-0.0176 z m -0.88569,-0.0877 c -0.006,-0.01 0,-0.0176 0.007,-0.0176 0.01,0 0.0188,0.007 0.0188,0.0176 0,0.01 -0.006,0.0176 -0.007,0.0176 -0.006,0 -0.0123,-0.007 -0.0182,-0.0176 z m 3.25952,-0.0621 c -0.006,-0.0149 -0.006,-0.0314 -5.9e-4,-0.0369 0.0154,-0.0153 0.0472,0.0108 0.0472,0.0386 0,0.0337 -0.0336,0.0324 -0.0465,-0.002 z m -2.79477,-0.22725 c 0,-0.0198 0.0123,-0.0269 0.0395,-0.0231 0.0218,0.003 0.0395,0.0135 0.0395,0.0231 0,0.01 -0.0177,0.0201 -0.0395,0.0231 -0.0271,0.004 -0.0395,-0.004 -0.0395,-0.0231 z m 2.89395,-0.10524 c 0,-0.0145 0.0118,-0.0263 0.0265,-0.0263 0.0147,0 0.0265,0.0118 0.0265,0.0263 0,0.0145 -0.0118,0.0263 -0.0265,0.0263 -0.0141,0 -0.0265,-0.0119 -0.0265,-0.0263 z m 0.45274,-0.003 c 0.0129,-0.006 0.0277,-0.005 0.0336,9.4e-4 0.006,0.006 -0.006,0.01 -0.023,0.009 -0.0206,-5.9e-4 -0.0247,-0.005 -0.0106,-0.0106 z m -3.78517,-0.0392 c 0,-0.0215 0.0112,-0.0365 0.0277,-0.0365 0.0165,0 0.0254,0.012 0.0218,0.0292 -0.008,0.044 -0.0495,0.0501 -0.0495,0.007 z m 0.87049,-0.9739 c 0.12722,-0.0387 0.13946,-0.0585 0.11284,-0.18136 -0.0254,-0.11646 -0.0968,-0.2844 -0.1212,-0.2844 -0.009,0 -0.033,0.0276 -0.053,0.0612 -0.0454,0.0764 -0.12674,0.12713 -0.22987,0.14266 -0.0436,0.007 -0.22946,0.004 -0.41275,-0.006 -0.26827,-0.0145 -0.35244,-0.0253 -0.43177,-0.0558 -0.2463,-0.0942 -0.41911,-0.28958 -0.53296,-0.6025 -0.0613,-0.1684 -0.1152,-0.25875 -0.15436,-0.25875 -0.0277,0 -0.006,0.43378 0.0306,0.54789 0.085,0.28569 0.38036,0.50344 0.80577,0.59389 0.38701,0.0822 0.79905,0.10027 0.98675,0.0431 z m 2.73481,0.0169 c 0.48837,-0.0793 0.88357,-0.32128 0.99252,-0.60789 0.0465,-0.12207 0.076,-0.53984 0.0406,-0.57541 -0.0218,-0.022 -0.0306,-0.0203 -0.066,0.0132 -0.0224,0.0212 -0.0554,0.0839 -0.0724,0.13933 -0.0945,0.3025 -0.26115,0.52384 -0.47153,0.62589 -0.24471,0.11874 -0.77131,0.17833 -0.96985,0.10976 -0.0495,-0.017 -0.12157,-0.0583 -0.16061,-0.0918 -0.0389,-0.0335 -0.0784,-0.0608 -0.0874,-0.0608 -0.0524,0 -0.074,0.19762 -0.0377,0.34217 0.0212,0.0836 0.006,0.075 0.23488,0.12041 0.0886,0.0174 0.45404,0.008 0.59733,-0.015 z m -3.73099,-0.43165 c -0.15595,-0.19128 -0.22693,-0.2945 -0.2512,-0.36552 -0.033,-0.0976 -0.0336,-0.25929 -5.8e-4,-0.39589 0.0365,-0.1503 0.0365,-0.1491 -0.0477,-0.14899 -0.11926,1.4e-4 -0.1986,0.0306 -0.25897,0.0994 -0.053,0.0602 -0.0554,0.0685 -0.0436,0.16159 0.0277,0.22274 0.1222,0.42018 0.24971,0.52234 0.10037,0.0804 0.20078,0.13998 0.28653,0.17 0.1195,0.0418 0.12958,0.0353 0.0659,-0.0429 z m 3.60419,0.0606 0.0807,-0.011 -0.0615,-0.0718 c -0.12385,-0.14475 -0.1387,-0.31764 -0.0518,-0.60637 0.0513,-0.16986 0.0547,-0.21654 0.0188,-0.24628 -0.0383,-0.0318 -0.12051,0.002 -0.2595,0.10631 -0.19141,0.14384 -0.26793,0.32335 -0.22487,0.52784 0.0513,0.24402 0.21114,0.34068 0.4982,0.30134 z m -2.97535,-0.0252 c 0.10549,-0.04 0.19036,-0.163 0.20968,-0.30405 0.0318,-0.23319 -0.19696,-0.5102 -0.46288,-0.56016 -0.0715,-0.0135 -0.0719,-0.006 -0.0112,0.226 0.0628,0.2401 0.0536,0.3461 -0.0442,0.52445 l -0.0727,0.13247 h 0.16591 c 0.0913,0 0.18817,-0.008 0.21532,-0.0187 z m 3.43439,-0.0179 c 0.2053,-0.0768 0.40079,-0.32201 0.45774,-0.57423 0.0312,-0.13799 0.0259,-0.18476 -0.0283,-0.25342 -0.061,-0.0777 -0.30396,-0.15199 -0.3608,-0.11045 -0.0306,0.0224 -0.03,0.0298 0.0153,0.1789 0.0867,0.28413 0.0542,0.39973 -0.18216,0.64585 l -0.14395,0.14992 h 0.072 c 0.0395,0 0.11591,-0.0165 0.16968,-0.0366 z m 2.13029,-1.47583 c 0.0153,-0.10977 -0.0106,-0.25474 -0.0653,-0.36258 -0.0447,-0.0888 -0.13205,-0.17775 -0.15332,-0.15653 -0.006,0.006 0.0153,0.0639 0.0454,0.13038 0.063,0.1397 0.12161,0.353 0.12161,0.44293 0,0.0859 0.0377,0.0464 0.0518,-0.0542 z m -8.30644,-0.21951 c 0.0966,-0.23323 0.10449,-0.27413 0.0542,-0.28142 -0.02,-0.003 -0.0483,0.009 -0.0634,0.0263 -0.0295,0.0338 -0.13729,0.33378 -0.13729,0.38183 0,0.0429 0.0365,0.103 0.0518,0.0856 0.007,-0.008 0.0501,-0.10378 0.0951,-0.21226 z m -0.34838,-0.0352 c 0.0171,-0.0651 0.0583,-0.17493 0.0913,-0.24405 0.0542,-0.11359 0.0583,-0.13213 0.0413,-0.19293 -0.01,-0.0369 -0.0631,-0.12646 -0.11727,-0.19881 -0.0542,-0.0723 -0.10855,-0.15522 -0.12074,-0.18416 -0.0123,-0.0289 -0.0312,-0.16312 -0.0424,-0.29817 -0.0342,-0.41759 -0.0536,-0.44623 -0.0865,-0.12715 -0.0577,0.56161 -0.0413,0.85674 0.0621,1.11618 0.0383,0.0958 0.12204,0.24748 0.13677,0.24748 0,0 0.0182,-0.0533 0.0354,-0.11839 z m 8.99859,-0.009 c 0.0976,-0.20548 0.11786,-0.33857 0.10732,-0.70532 -0.008,-0.29392 -0.0495,-0.68977 -0.0764,-0.73302 -0.0254,-0.041 -0.0383,0.0591 -0.0395,0.30426 0,0.23524 -0.006,0.26205 -0.0447,0.342 -0.0241,0.0477 -0.087,0.13655 -0.14024,0.19741 -0.053,0.0608 -0.10119,0.12809 -0.10654,0.14942 -0.0141,0.056 0.18741,0.57304 0.22334,0.57304 0.008,0 0.0436,-0.0575 0.0767,-0.12779 z m -5.99521,-0.58982 -0.006,-0.22651 -0.0622,-0.0187 c -0.1099,-0.033 -0.2251,-0.12414 -0.30968,-0.24503 -0.17833,-0.25502 -0.23465,-0.28037 -0.16744,-0.0754 0.0418,0.12666 0.0506,0.1405 0.11903,0.17668 0.16179,0.0858 0.26238,0.22328 0.34131,0.46637 0.0465,0.14261 0.0495,0.14909 0.0711,0.14909 0.009,0 0.0147,-0.0953 0.0124,-0.22651 z m 2.98607,0.023 c 0.0477,-0.15682 0.10766,-0.2476 0.22475,-0.34082 0.0506,-0.0404 0.10378,-0.0958 0.1179,-0.1231 0.0259,-0.05 0.0661,-0.28041 0.0513,-0.29501 -0.0177,-0.0176 -0.0835,0.0644 -0.15219,0.18952 -0.0472,0.0857 -0.11503,0.17312 -0.19171,0.24672 -0.17045,0.1636 -0.20809,0.2794 -0.1433,0.44127 0.0336,0.0835 0.03,0.0875 0.0931,-0.11858 z m -5.80869,-0.0729 c 0.008,-0.0858 -0.095,-0.29758 -0.12892,-0.26369 -0.006,0.005 0.007,0.0591 0.0265,0.1209 0.0195,0.0618 0.0354,0.12865 0.0354,0.14876 5.3e-4,0.081 0.0589,0.0758 0.067,-0.006 z m 8.58508,0.009 c 0.0147,-0.0314 0.0359,-0.10225 0.0471,-0.15756 0.0247,-0.1208 0.053,-0.14802 0.053,-0.0506 0,0.0864 0.0271,0.10877 0.0418,0.0347 0.0147,-0.0743 0.0112,-0.44397 -0.006,-0.54124 -0.0165,-0.0984 -0.0318,-0.0656 -0.0447,0.0965 -0.007,0.0833 -0.0206,0.13804 -0.0448,0.17029 -0.0195,0.0262 -0.0354,0.0605 -0.0354,0.0764 0,0.0159 -0.0112,0.0734 -0.0254,0.12786 -0.0359,0.143 -0.0529,0.3007 -0.0318,0.3007 0.009,0 0.0295,-0.0256 0.0442,-0.057 z m -8.77384,-0.35556 c -0.0447,-0.19731 -0.0716,-0.28697 -0.0802,-0.26574 -0.02,0.0491 0.006,0.26508 0.0454,0.38325 0.0336,0.0991 0.0847,0.19759 0.0967,0.18559 0,-0.003 -0.0247,-0.13932 -0.0619,-0.3031 z m 8.73161,0.0267 c 0.0182,-0.0916 0.0383,-0.20213 0.0436,-0.24555 l 0.01,-0.079 -0.0377,0.0702 c -0.0751,0.13971 -0.13222,0.46384 -0.0893,0.50679 0.0154,0.0152 0.0283,-0.0296 0.0728,-0.25248 z m -8.40656,0.16849 c -0.006,-0.0299 -0.0341,-0.087 -0.0626,-0.12677 -0.0631,-0.0882 -0.17098,-0.30451 -0.23724,-0.47581 -0.0483,-0.12576 -0.0787,-0.16071 -0.0787,-0.0914 0,0.0533 0.2771,0.72392 0.30908,0.74794 0.0465,0.0351 0.0817,0.008 0.0694,-0.054 z m 8.26956,-0.10288 c 0.0254,-0.0936 0.007,-0.10405 -0.0547,-0.0304 -0.0483,0.0584 -0.0654,0.12068 -0.04,0.1461 0.0212,0.0212 0.0758,-0.0453 0.0947,-0.11568 z m -8.10471,0.04 c 0.0188,-0.0191 0.03,-0.0467 0.0247,-0.0614 -0.0129,-0.0341 -0.008,-0.0338 0.0988,0.008 0.10866,0.0429 0.10519,0.0429 0.10519,4.6e-4 0,-0.0299 0.006,-0.0324 0.0447,-0.0176 0.072,0.0274 0.1264,0.0199 0.1552,-0.0212 0.0254,-0.036 0.0288,-0.0366 0.0594,-0.008 0.0359,0.0323 0.0911,0.0397 0.0911,0.0122 0,-0.01 -0.0395,-0.0607 -0.0872,-0.11371 -0.0547,-0.0602 -0.0835,-0.10631 -0.0771,-0.12296 0.0259,-0.0671 0.13665,0.002 0.31539,0.19624 0.0849,0.0923 0.15732,0.15875 0.16097,0.1477 0.006,-0.011 -0.0371,-0.0985 -0.0907,-0.19445 -0.10176,-0.18223 -0.19376,-0.3849 -0.18063,-0.39803 0.006,-0.004 0.0282,0.0273 0.053,0.0701 0.0424,0.0725 0.21479,0.2571 0.23994,0.2571 0.0212,0 0.0518,-0.0893 0.0518,-0.15048 0,-0.0336 -0.0112,-0.0885 -0.0254,-0.12195 -0.0383,-0.092 -0.006,-0.0734 0.0957,0.0533 0.0935,0.11744 0.14882,0.16648 0.18793,0.16648 0.0123,0 0.0224,-0.011 0.0224,-0.0244 0,-0.0496 0.0963,-0.0598 0.20432,-0.0216 0.0377,0.0133 0.11832,0.0299 0.1794,0.0369 l 0.11101,0.0129 -0.0123,-0.0589 c -0.007,-0.0324 -0.0312,-0.0911 -0.0542,-0.13049 -0.0674,-0.11563 -0.11067,-0.2627 -0.15725,-0.53355 -0.078,-0.45331 -0.0777,-0.45263 -0.44549,-0.83442 -0.14972,-0.15539 -0.35503,-0.37471 -0.45634,-0.48737 -0.29825,-0.33177 -0.95018,-0.90362 -1.13246,-0.99334 -0.0845,-0.0416 -0.2436,-0.0469 -0.3297,-0.0109 -0.0812,0.034 -0.13394,0.10717 -0.13394,0.18605 0,0.0358 0.0483,0.23013 0.1079,0.43173 0.17051,0.57937 0.18553,0.63901 0.27958,1.11195 0.13028,0.65496 0.21433,0.96937 0.33,1.23433 0.0283,0.0641 0.0324,0.0914 0.0177,0.10896 -0.0147,0.0179 0,0.0546 0.053,0.15435 0.0887,0.16068 0.12657,0.18342 0.1936,0.11636 z m 7.99016,-0.10154 c 0.17987,-0.21807 0.26598,-0.44431 0.375,-0.9857 0.0792,-0.39286 0.22546,-1.01365 0.3946,-1.67438 0.0706,-0.27598 0.10737,-0.45067 0.0994,-0.47356 -0.007,-0.0203 -0.0577,-0.059 -0.1152,-0.0881 -0.13735,-0.0694 -0.28924,-0.072 -0.43,-0.007 -0.22334,0.10266 -1.73168,1.60941 -1.85878,1.85681 -0.0472,0.092 -0.0671,0.17472 -0.11415,0.47552 -0.0477,0.30395 -0.0895,0.43658 -0.17357,0.54674 -0.0921,0.1208 -0.0925,0.14493 0,0.0821 0.0436,-0.0299 0.12281,-0.0737 0.17622,-0.0974 0.11597,-0.0513 0.423,-0.13532 0.45162,-0.1236 0.0118,0.005 0.009,0.009 -0.006,0.01 -0.0572,0.004 -0.2095,0.0886 -0.23895,0.1336 -0.0306,0.0465 -0.03,0.0483 0.009,0.0804 0.0518,0.0422 0.10866,0.0415 0.19447,-0.003 0.0377,-0.0193 0.077,-0.0351 0.0869,-0.0351 0.01,0 0.0495,0.0284 0.0879,0.063 0.0472,0.0427 0.0926,0.0661 0.14036,0.0725 0.0827,0.011 0.0879,0.032 0.037,0.15096 l -0.0336,0.0789 0.0878,-0.0545 c 0.0958,-0.0596 0.14117,-0.0533 0.15219,0.021 0.007,0.0531 0.0424,0.062 0.10825,0.0279 0.0418,-0.0217 0.0921,-0.0274 0.20319,-0.0232 0.138,0.006 0.14743,0.008 0.14754,0.0438 6e-5,0.04 0.0371,0.0572 0.0938,0.0436 0.0177,-0.004 0.0746,-0.0589 0.12616,-0.12149 z m -1.57178,-0.2775 c 0.0823,-0.0692 0.0648,-0.0793 -0.0501,-0.0284 -0.0572,0.0253 -0.10019,0.0522 -0.0954,0.0599 0.0177,0.0287 0.0934,0.0123 0.14546,-0.0314 z m -8.70975,7.15461 c 0.007,-0.007 0.017,-0.007 0.0236,0 0.007,0.007 0,0.0117 -0.0118,0.0117 -0.013,0 -0.0182,-0.006 -0.0118,-0.0117 z m 0.1301,-0.0174 c 0.0118,-0.005 0.0318,-0.005 0.0436,0 0.0118,0.005 0,0.008 -0.0218,0.008 -0.0241,0 -0.0341,-0.004 -0.0218,-0.008 z m 0.0968,-0.0181 c 0.0171,-0.005 0.0406,-0.004 0.0524,5.9e-4 0.0118,0.005 0,0.008 -0.0312,0.008 -0.0289,-3.4e-4 -0.0389,-0.004 -0.0218,-0.008 z m 15.37716,-0.48771 c 0,-0.005 0.006,-0.008 0.008,-0.008 0.006,0 0.008,0.004 0.008,0.008 0,0.005 -0.006,0.008 -0.008,0.008 -0.006,0 -0.008,-0.004 -0.008,-0.008 z m -0.10524,-0.0351 c 0,-0.005 0.006,-0.008 0.008,-0.008 0.006,0 0.008,0.004 0.008,0.008 0,0.005 -0.006,0.008 -0.008,0.008 -0.006,0 -0.008,-0.004 -0.008,-0.008 z m -0.0643,-0.0204 c 0.007,-0.007 0.017,-0.007 0.0236,0 0.007,0.007 0,0.0117 -0.0118,0.0117 -0.0129,0 -0.0182,-0.006 -0.0118,-0.0117 z m -0.0617,-0.0179 c 0.013,-0.006 0.0277,-0.005 0.0336,9.4e-4 0.006,0.006 -0.006,0.01 -0.0229,0.009 -0.0206,-5.9e-4 -0.0247,-0.005 -0.0106,-0.0106 z m -0.061,-0.0172 c 0.007,-0.007 0.0171,-0.007 0.0236,0 0.007,0.007 0,0.0117 -0.0118,0.0117 -0.0129,0 -0.0182,-0.006 -0.0118,-0.0117 z m -0.0524,-0.0176 c 0.007,-0.007 0.017,-0.007 0.0236,0 0.007,0.007 0,0.0117 -0.0118,0.0117 -0.0129,0 -0.0182,-0.006 -0.0118,-0.0117 z m -16.50545,-0.52664 c 0.0171,-0.005 0.0406,-0.004 0.0524,5.9e-4 0.0118,0.005 0,0.008 -0.0312,0.008 -0.0288,-3.4e-4 -0.0389,-0.004 -0.0218,-0.008 z m 16.19812,-1.64851 c 0.0129,-0.006 0.0277,-0.005 0.0336,9.4e-4 0.006,0.006 -0.006,0.01 -0.023,0.009 -0.0206,-5.9e-4 -0.0247,-0.005 -0.0106,-0.0106 z m 0.0618,-0.0173 c 0.007,-0.007 0.0171,-0.007 0.0236,0 0.007,0.007 0,0.0117 -0.0118,0.0117 -0.0129,0 -0.0182,-0.006 -0.0118,-0.0117 z m -14.95357,-0.0421 c -0.0365,-0.0191 -0.0658,-0.0386 -0.0658,-0.0434 0,-0.005 0.0318,0.007 0.0702,0.0271 0.0389,0.0196 0.0702,0.0396 0.0702,0.0443 0,0.0115 -1.1e-4,0.0114 -0.0745,-0.0279 z m 15.02372,0.0246 c 0.007,-0.007 0.0171,-0.007 0.0236,0 0.007,0.007 0,0.0117 -0.0118,0.0117 -0.013,0 -0.0182,-0.006 -0.0118,-0.0117 z m 0.0465,-0.0146 c 0,-0.005 0.006,-0.008 0.008,-0.008 0.006,0 0.008,0.004 0.008,0.008 0,0.005 -0.006,0.008 -0.008,0.008 -0.006,0 -0.008,-0.004 -0.008,-0.008 z m -15.1818,-0.0816 c -0.007,-0.0125 -0.006,-0.0155 0.007,-0.007 0.02,0.0125 0.0271,0.028 0.0123,0.028 -0.006,0 -0.0136,-0.009 -0.02,-0.0202 z"
         id="path25" />
    </g>
  </g>
</svg>
