<?xml version="1.0" encoding="UTF-8" standalone="no"?>
<!-- Created with Inkscape (http://www.inkscape.org/) -->

<svg
   width="41.008999mm"
   height="41.008999mm"
   viewBox="0 0 41.008999 41.009"
   version="1.1"
   id="svg1"
   inkscape:version="1.4.2 (f4327f4, 2025-05-13)"
   sodipodi:docname="258.svg"
   xmlns:inkscape="http://www.inkscape.org/namespaces/inkscape"
   xmlns:sodipodi="http://sodipodi.sourceforge.net/DTD/sodipodi-0.dtd"
   xmlns="http://www.w3.org/2000/svg"
   xmlns:svg="http://www.w3.org/2000/svg">
  <sodipodi:namedview
     id="namedview1"
     pagecolor="#ffffff"
     bordercolor="#000000"
     borderopacity="0.25"
     inkscape:showpageshadow="2"
     inkscape:pageopacity="0.0"
     inkscape:pagecheckerboard="0"
     inkscape:deskcolor="#d1d1d1"
     inkscape:document-units="mm"
     inkscape:zoom="2.8970539"
     inkscape:cx="84.223494"
     inkscape:cy="68.000116"
     inkscape:window-width="1168"
     inkscape:window-height="1081"
     inkscape:window-x="3737"
     inkscape:window-y="0"
     inkscape:window-maximized="0"
     inkscape:current-layer="layer1" />
  <defs
     id="defs1" />
  <g
     inkscape:label="Layer 1"
     inkscape:groupmode="layer"
     id="layer1"
     transform="translate(-114.0891,-77.774176)">
    <g
       id="g28"
       transform="translate(-567.24045,352.31505)">
      <ellipse
         style="fill:none;stroke:#ff00ff;stroke-width:0.1;stroke-dasharray:none;stroke-opacity:1"
         id="path1138-9-4-0-0-1-2-4-9-7-82-6-75-2-1-90-4-5-1-0-6"
         cx="701.83447"
         cy="-254.20995"
         rx="18.492125"
         ry="18.492126" />
      <circle
         style="fill:none;stroke:#ff0000;stroke-width:0.1;stroke-dasharray:none"
         id="path788-8-1-8-1-9-2-6-3-4-7-1-6-1-0-5-5-1-8-0"
         cx="701.83405"
         cy="-254.03638"
         r="19.954653" />
      <circle
         style="fill:none;stroke:#0000ff;stroke-width:0.1;stroke-linecap:round;stroke-dasharray:none;stroke-opacity:1;paint-order:markers stroke fill"
         id="path13019-1-33-3-83-70-3-7-5-9-5-8-1-5-0-8"
         cx="701.83405"
         cy="-269.04736"
         r="2" />
      <path
         style="fill:#000000;stroke-width:0.1;stroke-dasharray:none"
         d="m 710.09605,-241.7746 c -1.08957,-0.0489 -3.61766,-0.22866 -3.76921,-0.26793 -0.64381,-0.16686 -0.62393,-1.1086 0.027,-1.28072 0.17342,-0.0459 1.84509,0.009 2.69623,0.088 1.33634,0.1245 2.61486,0.0121 2.61486,-0.22983 0,-0.11249 -0.18782,-0.15567 -1.15432,-0.26537 -0.81649,-0.0927 -2.30352,-0.32975 -2.39058,-0.38111 -0.0185,-0.0109 -0.11574,0.0287 -0.21621,0.088 -0.39268,0.2317 -0.53913,0.24042 -4.05087,0.24124 -2.87432,8.2e-4 -3.34,0.0111 -3.57745,0.0801 -0.22105,0.0643 -0.3295,0.0694 -0.57016,0.027 -0.20792,-0.0367 -0.37565,-0.0366 -0.5584,1.1e-4 -0.32191,0.0647 -0.61213,-0.002 -0.77832,-0.179 -0.14268,-0.15188 -0.19004,-0.53132 -0.10026,-0.80335 0.0486,-0.14712 0.0492,-0.19469 0.002,-0.21014 -0.0329,-0.0109 -0.15657,-0.0938 -0.27475,-0.18397 l -0.21488,-0.16402 -0.1575,0.48043 c -0.28973,0.88374 -0.45978,1.07318 -0.96402,1.07403 -0.17089,3.8e-4 -0.38916,-0.004 -0.48503,-0.01 -0.0959,-0.006 -0.3085,0.002 -0.47249,0.0195 -0.40954,0.0413 -0.77225,-0.0471 -0.94881,-0.2314 -0.0777,-0.0812 -0.16999,-0.14753 -0.20501,-0.14753 -0.13956,0 -0.40731,-0.30062 -0.43998,-0.494 -0.0772,-0.45678 0.18874,-0.8298 0.69683,-0.9775 l 0.27371,-0.0795 v -0.28887 c 0,-0.67941 -0.18916,-2.11354 -0.56536,-4.28627 -0.22464,-1.29744 -0.28713,-1.43761 -1.48752,-3.33704 -0.92441,-1.46274 -1.32845,-2.50257 -1.43096,-3.68258 -0.0834,-0.96015 0.038,-1.63894 0.53864,-3.0118 0.32751,-0.89809 0.42332,-1.27501 0.50653,-1.99282 0.0729,-0.62864 0.21078,-1.16661 0.3984,-1.55416 0.0812,-0.16773 0.14762,-0.35358 0.14762,-0.413 0,-0.24763 0.16691,-0.89317 0.29049,-1.12349 0.26065,-0.48579 0.65962,-0.6 1.13786,-0.32572 0.2453,0.14068 0.61025,0.53106 0.80006,0.8558 0.0807,0.13805 0.10329,0.14735 0.28683,0.11817 0.10956,-0.0174 0.50179,-0.0512 0.87161,-0.075 0.38061,-0.0246 0.75884,-0.0766 0.87162,-0.12002 0.10956,-0.0422 0.29131,-0.0777 0.40388,-0.0789 0.12501,-0.002 0.30915,-0.0572 0.47316,-0.14354 0.14768,-0.0777 0.50711,-0.26865 0.79873,-0.42425 0.58911,-0.31433 1.04405,-0.48877 1.13233,-0.43421 0.0406,0.0251 -0.008,0.16498 -0.16081,0.46477 -0.12036,0.2359 -0.25857,0.58166 -0.30711,0.76837 -0.0485,0.1867 -0.13975,0.43515 -0.2027,0.55214 -0.0967,0.17974 -0.10611,0.23656 -0.0607,0.36689 0.0397,0.11385 0.037,0.24296 -0.0102,0.49322 -0.0769,0.4078 -0.0448,0.8072 0.0999,1.24321 0.16022,0.48254 0.12284,0.90202 -0.12652,1.41948 -0.1056,0.21915 -0.19917,0.41084 -0.20792,0.42598 -0.009,0.0152 0.1918,0.0669 0.44567,0.115 0.6493,0.12304 1.52179,0.42393 2.1657,0.74686 1.02429,0.5137 2.30648,1.46288 3.0699,2.2726 1.06647,1.13113 1.88457,3.07154 2.26821,5.37983 0.22503,1.35402 0.25315,2.18337 0.10301,3.03821 -0.0554,0.31502 -0.11429,0.80896 -0.13101,1.09763 -0.0267,0.46141 -0.0181,0.55266 0.0714,0.75489 0.20662,0.46708 0.73237,0.82017 1.53098,1.02818 0.4523,0.11781 0.66861,0.15389 1.99226,0.33219 0.52048,0.0701 1.12779,0.17032 1.34959,0.22268 1.10436,0.26071 1.57516,0.72949 1.57516,1.56841 0,1.23614 -1.37989,1.93492 -3.62204,1.83419 z m 0.49158,-0.22636 c 0.0165,-0.0616 0.031,-0.30256 0.0323,-0.53542 0.002,-0.38885 0.008,-0.41524 0.0777,-0.32374 0.0414,0.0548 0.13599,0.29623 0.21009,0.53652 l 0.13475,0.43691 0.27393,-0.0319 c 0.29371,-0.0342 0.34243,-0.0724 0.65768,-0.51557 0.16411,-0.23072 0.23643,-0.6039 0.16905,-0.87237 -0.0297,-0.11851 -0.0396,-0.12235 -0.14295,-0.0558 -0.39177,0.25233 -1.48468,0.34986 -2.8191,0.25157 -0.53767,-0.0396 -1.39657,-0.087 -1.90867,-0.10525 l -0.93108,-0.0332 -0.17712,0.17711 c -0.19907,0.19908 -0.23437,0.42993 -0.10424,0.68158 0.0791,0.15307 0.15338,0.196 0.43507,0.25168 0.22926,0.0453 0.23916,0.0235 0.23916,-0.52612 0,-0.23061 0.0172,-0.41929 0.0383,-0.41929 0.0393,0 0.28399,0.61798 0.33806,0.85375 0.0343,0.14937 0.16677,0.19219 0.59462,0.19219 h 0.26123 l 0.0271,-0.23658 c 0.0149,-0.13011 0.0147,-0.34304 -3.8e-4,-0.47316 -0.0171,-0.14734 -0.008,-0.23658 0.0239,-0.23658 0.0598,0 0.28747,0.54573 0.33632,0.80614 l 0.0334,0.1779 0.40106,0.035 c 0.30959,0.027 0.41064,0.0198 0.44309,-0.0314 0.0491,-0.0775 0.0679,-0.35747 0.0486,-0.72622 -0.007,-0.14678 0.008,-0.26149 0.0352,-0.26149 0.0603,0 0.28761,0.55814 0.3358,0.82464 0.0195,0.10802 0.0451,0.2132 0.0568,0.23375 0.0117,0.0206 0.20787,0.0373 0.4359,0.0373 0.38786,0 0.41655,-0.007 0.44464,-0.11207 z m 2.19191,-0.33313 c 0.33615,-0.19289 0.59876,-0.46944 0.73161,-0.77047 l 0.10788,-0.24443 -0.11788,-0.0946 c -0.21756,-0.17458 -0.56344,-0.29639 -0.91967,-0.3239 l -0.35355,-0.0273 -0.032,0.15996 c -0.0247,0.12359 -0.005,0.19588 0.0859,0.31791 0.17224,0.23076 0.24386,0.50303 0.2198,0.83561 -0.0117,0.16145 -0.0113,0.29356 8.2e-4,0.29356 0.0122,0 0.13681,-0.0659 0.27712,-0.14637 z m -0.79756,-1.10242 c 0.3038,-0.23897 0.0948,-0.55875 -0.45391,-0.69443 -0.29027,-0.0718 -0.36268,-0.074 -0.52931,-0.0163 -0.21967,0.0761 -0.6091,0.0892 -0.65068,0.0219 -0.0153,-0.0247 0.0338,-0.0669 0.10913,-0.0936 0.0753,-0.0268 0.29379,-0.17459 0.48555,-0.32851 0.19176,-0.15391 0.46498,-0.34097 0.60717,-0.4157 0.1422,-0.0747 0.25109,-0.14331 0.24199,-0.15241 -0.0208,-0.0208 -0.87096,-0.15972 -0.97932,-0.15997 -0.0442,-1.1e-4 -0.29841,0.14767 -0.56494,0.32839 -0.26652,0.18073 -0.57777,0.36938 -0.69165,0.41924 -0.26711,0.11694 -0.61537,0.16343 -0.80474,0.10742 l -0.14942,-0.0442 0.20858,-0.058 c 0.11472,-0.0319 0.31643,-0.14448 0.44826,-0.25021 0.27508,-0.22063 0.64204,-0.59238 0.60999,-0.61796 -0.0119,-0.01 -0.22338,-0.0518 -0.46992,-0.0939 -0.42868,-0.0733 -0.45417,-0.0725 -0.58342,0.0185 -0.0743,0.0523 -0.25111,0.2511 -0.39285,0.4417 -0.14173,0.1906 -0.26624,0.34654 -0.2767,0.34654 -0.068,0 0.17086,-0.71934 0.28853,-0.86893 0.0956,-0.12159 0.0961,-0.12888 0.009,-0.158 -0.58963,-0.19803 -1.04436,-0.53648 -1.24031,-0.92316 -0.10351,-0.20429 -0.12064,-0.30814 -0.12064,-0.73157 0,-0.27142 0.0463,-0.766 0.10285,-1.09908 0.15329,-0.90252 0.15222,-0.90378 -0.3557,-0.4169 -0.41107,0.39406 -0.75203,0.60816 -0.97215,0.61047 -0.0925,8.1e-4 -0.0841,-0.0203 0.0747,-0.18795 0.0985,-0.10398 0.345,-0.42986 0.54779,-0.72418 0.34154,-0.4957 0.53212,-0.70798 0.74,-0.82432 0.0752,-0.0421 0.0769,-0.10186 0.019,-0.6849 -0.0349,-0.35132 -0.0754,-0.65041 -0.09,-0.66461 -0.0543,-0.0527 -0.40087,0.39934 -0.6156,0.80288 -0.29593,0.55611 -0.71635,0.98099 -1.2001,1.21283 -0.20064,0.0962 -0.39365,0.17483 -0.4289,0.17483 -0.0353,0 0.0778,-0.14008 0.25129,-0.31129 0.4273,-0.42179 0.67426,-0.80293 1.13403,-1.75019 0.21421,-0.44132 0.45139,-0.90699 0.52707,-1.03482 l 0.13761,-0.23243 -0.0918,-0.36526 c -0.0505,-0.20088 -0.18247,-0.64541 -0.29328,-0.98783 -0.19565,-0.60459 -0.2028,-0.61754 -0.2475,-0.44826 -0.22079,0.83612 -0.25082,0.89843 -0.9079,1.8839 -0.21914,0.32868 -0.6562,1.0186 -0.97122,1.53315 -0.68706,1.12223 -0.95117,1.41313 -1.55167,1.70914 -0.22864,0.1127 -0.57258,0.23773 -0.76434,0.27786 -0.36409,0.0762 -1.46929,0.10318 -1.46929,0.0358 0,-0.0213 0.16181,-0.0804 0.35957,-0.1314 0.83398,-0.21484 1.56333,-0.59562 2.12802,-1.111 0.41756,-0.3811 0.53427,-0.56873 0.969,-1.5578 0.18663,-0.4246 0.51393,-1.1082 0.72733,-1.5191 0.2134,-0.4109 0.44507,-0.90735 0.5148,-1.10324 0.15496,-0.43524 0.28194,-1.08291 0.28194,-1.43808 0,-0.24507 -0.0217,-0.29344 -0.30131,-0.67049 -0.16571,-0.2235 -0.42725,-0.53362 -0.5812,-0.68915 l -0.2799,-0.28279 -0.0842,0.64748 c -0.10563,0.81193 -0.16652,1.03839 -0.59506,2.21325 -0.19061,0.52258 -0.42814,1.21335 -0.52785,1.53504 -0.26,0.83888 -0.46525,1.20567 -0.94136,1.68227 -0.29457,0.29488 -0.50726,0.45574 -0.80876,0.6117 -0.41374,0.21402 -1.0474,0.40809 -1.32967,0.40723 -0.13103,-3.8e-4 -0.0947,-0.0296 0.24455,-0.19685 1.18147,-0.58228 1.81253,-1.41721 2.16396,-2.86302 0.0862,-0.35459 0.23532,-0.8235 0.33139,-1.04202 0.61405,-1.3966 0.83276,-3.51148 0.40373,-3.90416 -0.22846,-0.20911 -1.43191,-0.95867 -1.53919,-0.95867 -0.0145,0 -0.005,0.11767 0.0221,0.26149 0.0634,0.34115 0.0161,1.49156 -0.0834,2.02962 -0.0871,0.47106 -0.0981,1.38888 -0.0305,2.54013 0.065,1.10788 -0.0626,1.55181 -0.60021,2.08745 -0.26915,0.2682 -0.84562,0.65191 -0.97939,0.65191 -0.0356,0 0.0467,-0.14542 0.18291,-0.32317 0.74002,-0.96549 0.9948,-1.7415 0.89668,-2.73105 -0.11748,-1.18484 -0.13763,-1.65855 -0.0932,-2.19157 0.0255,-0.30617 0.0607,-0.73651 0.0782,-0.9563 l 0.0319,-0.39964 -0.39944,-0.37576 c -0.46292,-0.43549 -0.93209,-0.70169 -1.48673,-0.84353 -0.47374,-0.12117 -0.49986,-0.12129 -0.53093,-0.002 -0.0206,0.0787 0.0205,0.11044 0.23078,0.17827 0.51175,0.1651 1.01348,0.54327 1.28491,0.96846 0.19914,0.31197 0.17669,0.37746 -0.0264,0.0767 -0.32757,-0.48519 -0.79327,-0.83998 -1.30455,-0.99385 -0.20786,-0.0625 -0.21789,-0.0603 -0.35087,0.0785 -0.0753,0.0786 -0.1794,0.15638 -0.23134,0.17288 -0.0519,0.0165 -0.0834,0.0588 -0.0699,0.0939 0.0389,0.10121 -0.31291,0.40702 -0.63992,0.55639 -0.56419,0.25768 -1.06977,0.19536 -1.93202,-0.23817 -0.46384,-0.23321 -0.47979,-0.22857 -0.86815,0.25305 -0.13092,0.16236 -0.25637,0.29674 -0.27878,0.29864 -0.0655,0.006 0.15659,-0.28197 0.42554,-0.55092 0.13666,-0.13666 0.24046,-0.25558 0.23067,-0.26428 -0.01,-0.009 -0.11567,-0.0652 -0.2353,-0.12554 l -0.21751,-0.10972 -0.18095,0.14572 c -0.0995,0.0802 -0.27619,0.26209 -0.39261,0.40431 -0.11643,0.14222 -0.21168,0.23855 -0.21168,0.21407 0,-0.081 0.33488,-0.48477 0.51763,-0.62416 0.0988,-0.0754 0.17967,-0.15416 0.17967,-0.17508 0,-0.0632 -0.35112,-0.21011 -0.41433,-0.17338 -0.0323,0.0189 -0.1709,0.12239 -0.30787,0.2302 l -0.24903,0.19601 0.26335,-0.2528 0.26335,-0.25279 -0.27554,-0.15551 c -0.4008,-0.2262 -0.75109,-0.56218 -0.89498,-0.8584 -0.11628,-0.23941 -0.18416,-0.58411 -0.30601,-1.5541 l -0.0376,-0.29883 -0.0602,0.42335 c -0.0781,0.54905 -0.12059,0.6984 -0.50139,1.75994 -0.38712,1.07916 -0.51804,1.68259 -0.51804,2.38776 0,1.37264 0.43316,2.54994 1.61673,4.39414 0.63247,0.98549 1.07449,1.82607 1.16854,2.22216 0.0614,0.25841 0.0858,0.29139 0.32154,0.433 0.31933,0.19185 0.66256,0.27888 0.9653,0.24476 0.21137,-0.0238 0.22456,-0.0195 0.13695,0.0445 -0.17262,0.12622 -0.48793,0.18073 -0.88919,0.15372 l -0.39072,-0.0263 0.0341,0.18239 c 0.0188,0.10032 0.0376,0.1857 0.0421,0.18974 0.004,0.004 0.12975,0.0433 0.27854,0.0872 0.30895,0.0911 0.91158,0.10529 1.13709,0.0267 0.21973,-0.0766 0.22404,-0.0652 -0.69783,-1.83952 -0.39866,-0.76729 -1.11112,-2.3531 -1.44792,-3.22282 -0.098,-0.2531 -0.016,-0.35352 0.0861,-0.10536 0.79296,1.92848 1.1897,2.79598 1.73848,3.80128 0.47302,0.86654 0.62883,1.28111 0.63063,1.678 8.2e-4,0.15584 -0.0541,0.66013 -0.12187,1.12064 -0.0678,0.46052 -0.16972,1.17192 -0.22662,1.58092 -0.0569,0.40898 -0.14717,0.87335 -0.20059,1.03191 -0.12721,0.37761 -0.12502,0.39087 0.0648,0.39216 0.22572,0.002 0.52924,0.15328 0.73125,0.36562 0.23969,0.25195 0.15386,0.28418 -0.11845,0.0445 -0.36692,-0.32298 -0.87068,-0.39151 -1.29698,-0.17643 -0.49171,0.24808 -0.68393,0.77862 -0.39664,1.09477 l 0.12699,0.13975 -0.0323,-0.21454 c -0.0308,-0.20502 0.0435,-0.50766 0.12465,-0.50766 0.0752,0 0.0985,0.0685 0.0452,0.13279 -0.0647,0.0779 -0.0306,0.49717 0.0467,0.57447 0.0674,0.0674 0.46702,0.11073 0.63396,0.0688 0.12933,-0.0324 0.13025,-0.0356 0.0478,-0.16141 -0.0462,-0.0706 -0.0841,-0.20464 -0.0841,-0.29793 0,-0.17331 0.12279,-0.41637 0.21034,-0.41637 0.0676,0 0.0583,0.0577 -0.0276,0.17139 -0.10797,0.14275 -0.089,0.35243 0.046,0.50943 0.10678,0.12414 0.15767,0.14045 0.49073,0.15727 0.5162,0.026 0.62259,-0.0374 0.83568,-0.49857 0.0926,-0.20043 0.22843,-0.57734 0.30182,-0.83758 0.0734,-0.26024 0.35043,-1.04359 0.61566,-1.74077 0.78804,-2.07148 1.27943,-3.63391 1.33226,-4.23603 l 0.0153,-0.17432 -0.24903,-0.011 c -0.42926,-0.0189 -0.81601,-0.12202 -1.05987,-0.28253 -0.22034,-0.14504 -0.26403,-0.15476 -0.69582,-0.15476 -0.25339,0 -0.46071,-0.0132 -0.46071,-0.0295 0,-0.0163 0.14008,-0.0723 0.3113,-0.12452 0.3024,-0.0923 0.46826,-0.1012 1.38212,-0.0739 0.22456,0.007 0.45302,-0.0171 0.57278,-0.0596 l 0.19923,-0.0708 0.0147,-0.32945 0.0147,-0.32946 -0.28862,0.10088 c -0.21853,0.0763 -0.50031,0.11156 -1.16023,0.14489 -0.91791,0.0464 -1.28584,0.11664 -1.69427,0.32361 -0.1365,0.0691 -0.24819,0.10248 -0.24819,0.074 0,-0.0285 0.0929,-0.1525 0.20636,-0.27563 0.28981,-0.31442 0.71591,-0.50513 1.33555,-0.59778 0.60156,-0.09 0.94765,-0.21215 1.33369,-0.47094 0.49202,-0.32983 0.65339,-0.53293 0.78608,-0.98933 0.17928,-0.61664 0.32388,-1.55103 0.35757,-2.31051 0.0167,-0.37666 0.0494,-0.68483 0.0725,-0.68483 0.0699,0 0.0474,1.05418 -0.0354,1.65435 -0.0743,0.5392 -0.13832,0.83382 -0.37085,1.70759 -0.0866,0.32541 -0.11379,0.62668 -0.14836,1.64362 -0.032,0.94126 -0.0683,1.3728 -0.14861,1.76813 -0.12801,0.62981 -0.77993,2.59619 -1.37053,4.13394 l -0.43041,1.12066 0.232,0.21167 c 0.12761,0.11643 0.26198,0.21167 0.2986,0.21167 0.0367,0 0.1809,-0.071 0.32061,-0.1579 0.36067,-0.22422 0.69356,-0.2461 1.07654,-0.0708 0.19678,0.0901 0.27117,0.14767 0.23609,0.18274 -0.035,0.035 -0.10451,0.0202 -0.2204,-0.0474 -0.66834,-0.38948 -1.55178,0.15029 -1.4175,0.86609 0.0552,0.29426 0.22061,0.4226 0.54468,0.4226 0.41154,0 0.43008,-0.0144 0.34018,-0.26442 -0.0705,-0.19603 -0.0686,-0.22451 0.0295,-0.44624 0.0576,-0.13027 0.1405,-0.25056 0.18416,-0.26732 0.13878,-0.0532 0.1415,0.0225 0.007,0.18279 -0.15931,0.18932 -0.17613,0.47902 -0.0377,0.64991 0.076,0.0938 0.15335,0.11865 0.42386,0.13587 0.20903,0.0133 0.3901,-0.003 0.49167,-0.0456 0.12873,-0.0533 0.84081,-0.0669 3.57312,-0.0681 3.10973,-0.002 3.43481,-0.009 3.66566,-0.0882 0.13933,-0.0477 0.29192,-0.12932 0.3391,-0.18144 0.0795,-0.0878 0.0799,-0.10867 0.007,-0.28421 -0.13205,-0.31603 -0.31118,-0.506 -0.68057,-0.72174 -0.51939,-0.30334 -1.13933,-0.96112 -1.01714,-1.07923 0.0213,-0.0206 0.0753,0.0186 0.12001,0.0871 0.18237,0.27938 0.59861,0.66876 0.91725,0.85806 0.40883,0.24288 0.71969,0.58194 0.79637,0.86862 0.054,0.20178 0.0684,0.21423 0.30716,0.26544 0.47875,0.10267 1.43701,0.24707 2.1627,0.32589 0.40145,0.0436 0.81556,0.0982 0.92025,0.1213 0.2331,0.0514 0.39664,0.19051 0.36526,0.31053 -0.0305,0.11676 0.0237,0.11262 0.18477,-0.0141 z m -7.25678,-0.92184 c -0.10405,-0.0707 -0.45104,-0.23651 -0.77111,-0.36844 -0.92629,-0.38185 -1.48287,-0.7271 -1.91229,-1.18617 -0.31626,-0.33811 -0.39606,-0.51081 -0.37803,-0.8181 0.009,-0.14734 0.0411,-0.26378 0.0768,-0.27556 0.0459,-0.0151 0.0541,0.0363 0.0318,0.19887 -0.0876,0.63939 0.81202,1.41296 2.35678,2.02647 0.44272,0.17582 0.8617,0.41922 0.8617,0.50058 0,0.0793 -0.061,0.0614 -0.26567,-0.0776 z m -2.70373,-0.58119 c -0.18587,-0.31536 -0.18692,-0.31897 -0.0496,-0.17154 0.0716,0.0768 0.13019,0.1609 0.13019,0.18677 0,0.0656 -0.0371,0.0586 -0.0806,-0.0153 z m 0.14973,-0.0639 c -0.0455,-0.0693 -0.07,-0.13866 -0.0546,-0.15405 0.0153,-0.0154 0.0639,0.0413 0.10764,0.12607 0.096,0.18571 0.0621,0.20363 -0.053,0.028 z m -0.40504,0.014 c -0.0948,-0.11969 -0.1745,-0.29991 -0.11694,-0.26434 0.0303,0.0188 0.0892,0.0999 0.13077,0.18034 0.0785,0.15169 0.0718,0.19212 -0.0139,0.084 z m -0.55206,-0.13393 c -0.0323,-0.0927 -0.0481,-0.17929 -0.035,-0.19234 0.0332,-0.0332 0.13331,0.24248 0.11162,0.30757 -0.01,0.0294 -0.0443,-0.0225 -0.0766,-0.11523 z m 0.24041,0.0215 c -0.029,-0.0763 -0.0646,-0.15778 -0.079,-0.18122 -0.0145,-0.0234 -0.005,-0.0426 0.0215,-0.0426 0.0528,0 0.17182,0.30087 0.13395,0.33873 -0.0131,0.0131 -0.0474,-0.0386 -0.0764,-0.11486 z m 0.9218,0.0255 c -0.0497,-0.0549 -0.0673,-0.0999 -0.0389,-0.0999 0.0627,0 0.18689,0.14237 0.15342,0.17584 -0.0131,0.0132 -0.0647,-0.021 -0.11443,-0.0759 z m 0.22285,0.0234 c -0.0962,-0.11597 -0.0275,-0.13782 0.0754,-0.024 0.0497,0.055 0.0673,0.0999 0.039,0.0999 -0.0282,0 -0.0798,-0.0341 -0.11442,-0.0759 z m -1.9411,-0.17179 c -0.0308,-0.11438 -0.0474,-0.23373 -0.0369,-0.26524 0.0105,-0.0315 0.0465,0.0514 0.0799,0.18408 0.0334,0.13275 0.05,0.25211 0.0369,0.26524 -0.0131,0.0131 -0.0491,-0.0697 -0.0799,-0.18408 z m 0.25742,0.0522 c -0.0322,-0.0924 -0.057,-0.20384 -0.055,-0.2477 0.002,-0.0438 0.0359,0.009 0.0755,0.117 0.0396,0.10819 0.0644,0.21965 0.055,0.24769 -0.009,0.028 -0.0434,-0.0246 -0.0755,-0.11699 z m -0.47273,-0.0784 c -0.0694,-0.33794 -0.0935,-0.52297 -0.0681,-0.52297 0.0392,0 0.14495,0.53913 0.11993,0.61127 -0.0117,0.0336 -0.035,-0.006 -0.0518,-0.0883 z m 5.79961,0.021 c -0.44276,-0.087 -0.90356,-0.26225 -1.38238,-0.52572 -0.27043,-0.1488 -0.68219,-0.36507 -0.91504,-0.48059 l -0.42336,-0.21004 -0.63735,0.002 c -0.55153,0.002 -0.62074,-0.006 -0.514,-0.062 0.39437,-0.20663 1.32039,-0.27529 1.85064,-0.13722 0.33756,0.0879 0.55595,0.20709 1.10566,0.6034 0.40303,0.29056 1.30907,0.7637 1.46248,0.7637 0.0487,0 0.10248,0.0225 0.11942,0.0498 0.0371,0.0601 -0.35186,0.0578 -0.66607,-0.004 z m -6.14965,-0.23267 c -0.0126,-0.0206 -0.0367,-0.14943 -0.0535,-0.28639 -0.0347,-0.28313 0.0375,-0.16679 0.085,0.13696 0.028,0.1793 0.0175,0.22906 -0.0314,0.14943 z m -0.23191,-0.28017 c 0,-0.0924 -0.0118,-0.24373 -0.0262,-0.33619 -0.0193,-0.12358 -0.0146,-0.14171 0.0178,-0.0685 0.0643,0.14545 0.10318,0.57277 0.0521,0.57277 -0.024,0 -0.0437,-0.0756 -0.0437,-0.1681 z m -0.26984,-0.38876 c -0.0218,-0.1556 -0.0289,-0.31249 -0.0159,-0.34864 0.0328,-0.0912 0.10011,0.36437 0.0755,0.5117 -0.0124,0.0746 -0.0349,0.0131 -0.0596,-0.16306 z m -0.2626,-0.21514 c 1.9e-4,-0.16436 0.01,-0.2256 0.0207,-0.13607 0.0111,0.0895 0.0109,0.22399 -4.6e-4,0.29883 -0.0114,0.0749 -0.0204,0.002 -0.0202,-0.16276 z m -0.26447,-0.30178 c 0,-0.13869 0.0194,-0.21508 0.0498,-0.19628 0.0274,0.0169 0.0498,0.11911 0.0498,0.22707 0,0.10796 -0.0225,0.19628 -0.0498,0.19628 -0.0274,0 -0.0498,-0.10218 -0.0498,-0.22707 z m 6.49957,-0.0687 c -0.27174,-0.26919 -0.72702,-0.53334 -1.14536,-0.6645 -0.49111,-0.15398 -1.37802,-0.15113 -1.93664,0.007 -0.21595,0.0608 -0.40206,0.10117 -0.41359,0.0896 -0.0378,-0.0378 0.65296,-0.47057 0.91774,-0.57494 0.85401,-0.33661 1.66705,-0.15962 2.27293,0.4948 0.2751,0.29715 0.54757,0.71517 0.52002,0.79783 -0.009,0.0264 -0.10562,-0.0406 -0.2151,-0.14906 z m -6.69879,-0.0666 c 0,-0.0988 0.0211,-0.19272 0.0469,-0.20865 0.0279,-0.0172 0.0351,0.0469 0.0179,0.15894 -0.0386,0.2501 -0.0648,0.27016 -0.0648,0.0497 z m -0.1734,-0.36979 c 0.081,-0.19394 0.12359,-0.25892 0.12359,-0.18871 0,0.0895 -0.12167,0.37294 -0.16009,0.37294 -0.0223,0 -0.006,-0.0829 0.0365,-0.18423 z m 6.72297,-0.4233 c -0.60957,-0.82453 -1.77659,-1.05012 -2.95992,-0.57215 -0.16633,0.0672 -0.30242,0.10552 -0.30242,0.0852 0,-0.0203 0.11941,-0.11625 0.26536,-0.21316 1.10099,-0.73101 2.00265,-0.73707 2.65909,-0.0179 0.23692,0.25955 0.53768,0.77908 0.50461,0.87165 -0.01,0.0267 -0.0846,-0.0425 -0.16672,-0.15365 z m -11.46856,-6.37085 c -0.0607,-0.1437 -0.1,-0.27167 -0.0873,-0.28438 0.0309,-0.0309 0.23214,0.44223 0.21281,0.50023 -0.008,0.025 -0.0648,-0.0721 -0.12553,-0.21585 z m -0.16496,0.0746 c -0.1335,-0.34138 -0.19528,-0.5343 -0.17699,-0.55259 0.0108,-0.0108 0.0779,0.13124 0.14921,0.31565 0.0713,0.18441 0.11933,0.34553 0.10681,0.35805 -0.0125,0.0126 -0.0481,-0.042 -0.079,-0.12111 z m 2.46957,-0.0516 c -0.017,-0.10553 -0.0387,-0.23109 -0.0483,-0.27903 -0.01,-0.0479 8.2e-4,-0.0872 0.023,-0.0872 0.0466,0 0.12337,0.49091 0.083,0.53125 -0.0147,0.0147 -0.0407,-0.0595 -0.0576,-0.16506 z m 0.22759,-0.27903 c 0.005,-0.48024 0.0287,-0.46024 0.0602,0.0498 0.0122,0.1986 0.002,0.3611 -0.0209,0.3611 -0.0238,0 -0.0414,-0.18491 -0.0392,-0.41091 z m -0.57101,0.1187 c -0.0196,-0.14701 -0.0249,-0.27794 -0.0119,-0.29095 0.0332,-0.0332 0.0961,0.41328 0.0694,0.49288 -0.012,0.0359 -0.0379,-0.0549 -0.0575,-0.20193 z m -2.45994,0.0728 c -0.0301,-0.0661 -0.0671,-0.20634 -0.0822,-0.31151 -0.0212,-0.14819 -0.006,-0.12444 0.0696,0.10551 0.10092,0.30874 0.10736,0.4139 0.0127,0.206 z m 2.24416,-0.22718 c -0.0323,-0.12238 -0.0493,-0.23195 -0.0378,-0.24348 0.0373,-0.0373 0.12835,0.25713 0.11222,0.36313 -0.0103,0.0676 -0.0358,0.0266 -0.0745,-0.11965 z m -2.55472,-0.0639 c -3.9e-4,-0.0616 -0.0115,-0.20171 -0.0249,-0.31129 -0.0185,-0.15025 -0.0141,-0.16862 0.0173,-0.0747 0.0725,0.21632 0.1035,0.49806 0.0548,0.49806 -0.0257,0 -0.0469,-0.0505 -0.0472,-0.11207 z m 2.26933,0.0498 c -0.0105,-0.0343 -0.0322,-0.12181 -0.048,-0.19459 -0.0158,-0.0728 -0.0416,-0.17365 -0.0572,-0.22414 -0.0156,-0.0505 0.004,-0.0358 0.0437,0.0327 0.0812,0.14051 0.15748,0.44826 0.11107,0.44826 -0.0167,0 -0.039,-0.028 -0.0496,-0.0622 z m -0.33854,-0.17432 c -0.0129,-0.0754 -0.0397,-0.1818 -0.0595,-0.23658 -0.0355,-0.0982 -0.0349,-0.0982 0.0428,-0.002 0.0434,0.0532 0.0788,0.15964 0.0788,0.23658 0,0.17846 -0.0316,0.17996 -0.0621,0.002 z m 1.76222,-0.19923 c -0.004,-0.1986 0.0101,-0.3611 0.0305,-0.36113 0.0206,-1e-5 0.0309,0.11765 0.0229,0.26149 -0.0241,0.43843 -0.0464,0.47991 -0.0536,0.0996 z m -0.16565,0.11207 c -0.0112,-0.0959 -0.002,-0.17432 0.0194,-0.17432 0.0219,0 0.0399,0.0785 0.0399,0.17432 0,0.0959 -0.009,0.17433 -0.0194,0.17433 -0.0107,0 -0.0287,-0.0785 -0.0398,-0.17433 z m -3.7677,0.0249 c -0.005,-0.0685 -0.0208,-0.21417 -0.0349,-0.32374 -0.0223,-0.17364 -0.0188,-0.18346 0.0278,-0.0765 0.0294,0.0675 0.0451,0.21319 0.0349,0.32374 -0.0102,0.11055 -0.0227,0.14498 -0.0278,0.0765 z m 1.61538,-0.382 c -0.0436,-0.12791 -0.0687,-0.24308 -0.0558,-0.25593 0.0248,-0.0248 0.10468,0.16304 0.15567,0.3662 0.0528,0.21034 -0.0167,0.13353 -0.0998,-0.11027 z m 0.24778,0.10451 c -0.0183,-0.073 -0.0221,-0.14392 -0.008,-0.15762 0.0137,-0.0137 0.0399,0.0348 0.0582,0.10781 0.0183,0.073 0.0221,0.14392 0.008,0.15761 -0.0137,0.0137 -0.0399,-0.0348 -0.0582,-0.1078 z m -0.52617,-0.11964 c -0.0308,-0.11437 -0.0474,-0.23372 -0.0369,-0.26523 0.0105,-0.0315 0.0465,0.0514 0.0798,0.18408 0.0334,0.13275 0.0501,0.25211 0.0369,0.26524 -0.0131,0.0131 -0.0491,-0.0697 -0.0799,-0.18409 z m -1.57783,-0.17565 c 1.9e-4,-0.19175 0.009,-0.26409 0.02,-0.16075 0.0108,0.10333 0.0106,0.26022 -3.7e-4,0.34864 -0.011,0.0884 -0.0198,0.004 -0.0196,-0.18789 z m 4.48218,0.0249 c 0,-0.17806 0.009,-0.2509 0.0201,-0.16188 0.011,0.089 0.011,0.23472 0,0.32375 -0.011,0.089 -0.0201,0.0162 -0.0201,-0.16187 z m 0.23487,-0.0872 c 0.005,-0.10053 0.14524,-0.62412 0.17503,-0.65245 0.035,-0.0333 8.2e-4,0.17379 -0.0832,0.50302 -0.0419,0.16442 -0.0968,0.25367 -0.0918,0.14943 z m -4.97303,-0.18678 c 0.002,-0.0822 0.0195,-0.21666 0.0404,-0.29884 0.0363,-0.14279 0.0381,-0.14059 0.0404,0.0498 0.002,0.10957 -0.0169,0.24405 -0.0404,0.29883 -0.0363,0.0844 -0.0425,0.0768 -0.0404,-0.0498 z m 5.22876,-0.0996 c 8.1e-4,-0.0822 0.0194,-0.20545 0.0413,-0.27393 0.0363,-0.1132 0.04,-0.10867 0.0413,0.0498 8.2e-4,0.0959 -0.0178,0.21916 -0.0413,0.27395 -0.0363,0.0846 -0.0426,0.0771 -0.0413,-0.0498 z m 0.2082,-0.0249 c 0.0171,-0.0685 0.0314,-0.25339 0.0317,-0.41091 3.8e-4,-0.15859 0.023,-0.28638 0.0509,-0.28638 0.0643,0 0.007,0.70257 -0.0633,0.772 -0.0337,0.0334 -0.04,0.009 -0.0192,-0.0747 z m -5.6891,-0.24903 c -8.2e-4,-0.0412 0.029,-0.14195 0.0666,-0.22414 0.0376,-0.0822 0.0692,-0.1158 0.0702,-0.0747 8.1e-4,0.0411 -0.029,0.14195 -0.0666,0.22414 -0.0376,0.0822 -0.0692,0.11579 -0.0702,0.0747 z m 6.01072,-0.43582 c 0.011,-0.1849 0.0431,-0.3586 0.0712,-0.386 0.035,-0.034 0.0412,0.004 0.0197,0.11829 -0.0173,0.0925 -0.0315,0.26616 -0.0315,0.38601 0,0.11985 -0.0179,0.21789 -0.0397,0.21789 -0.0219,0 -0.0307,-0.15128 -0.0197,-0.33619 z m -6.0882,0.0373 c 0.0179,-0.0685 0.0525,-0.14582 0.0768,-0.17183 0.0711,-0.0761 0.0492,0.0331 -0.0344,0.17183 l -0.075,0.12451 z m 6.37881,-0.41444 c -0.0229,-0.24164 -0.03,-0.45084 -0.0159,-0.4649 0.0389,-0.0389 0.0937,0.47951 0.0745,0.70502 -0.012,0.14016 -0.0293,0.069 -0.0585,-0.24012 z m -6.40723,0.16541 c 0,-0.0274 0.0238,-0.0498 0.0527,-0.0498 0.029,0 0.0389,0.0225 0.022,0.0498 -0.0169,0.0274 -0.0407,0.0498 -0.0528,0.0498 -0.0121,0 -0.022,-0.0224 -0.022,-0.0498 z m 6.65238,-0.61794 c -0.0205,-0.16181 -0.0502,-0.32798 -0.0661,-0.36927 -0.0179,-0.0467 -0.008,-0.0623 0.026,-0.0412 0.0593,0.0367 0.13647,0.53135 0.0997,0.63895 -0.0123,0.0362 -0.0392,-0.0666 -0.0597,-0.22847 z m 0.27073,-0.35577 c 0,-0.0425 -0.0354,-0.14577 -0.0788,-0.22961 -0.047,-0.0909 -0.055,-0.13771 -0.0199,-0.11596 0.0519,0.032 0.19826,0.32473 0.19826,0.39625 0,0.0146 -0.0225,0.0265 -0.0498,0.0265 -0.0274,0 -0.0498,-0.0347 -0.0498,-0.0772 z m 0.19922,-0.36725 c 0,-0.0253 -0.058,-0.11495 -0.12894,-0.19923 -0.0709,-0.0843 -0.10606,-0.15324 -0.0781,-0.15324 0.028,0 0.0935,0.0616 0.14568,0.13697 0.15155,0.21888 0.17015,0.26149 0.11412,0.26149 -0.029,0 -0.0528,-0.0207 -0.0528,-0.046 z m -0.0498,-0.45208 c -0.0959,-0.0807 -0.15191,-0.14675 -0.12452,-0.14675 0.0274,0 0.12825,0.0661 0.22414,0.14675 0.0959,0.0807 0.1519,0.14674 0.12451,0.14674 -0.0274,0 -0.12825,-0.0661 -0.22413,-0.14674 z m 13.98801,14.04916 0.46551,-0.0287 -0.16667,-0.24484 c -0.10867,-0.15962 -0.2587,-0.29622 -0.43107,-0.39244 l -0.26437,-0.1476 -0.3333,0.0821 c -0.1962,0.0483 -0.49301,0.17853 -0.72157,0.31656 l -0.38824,0.23448 0.2923,0.0649 c 0.17537,0.0389 0.3597,0.12117 0.46074,0.20553 l 0.16842,0.1406 0.22636,-0.10104 c 0.14958,-0.0668 0.38427,-0.11073 0.69189,-0.12963 z m -18.32616,-0.74366 c 0.12164,-0.17083 0.34424,-0.31666 0.61597,-0.40355 0.32743,-0.10469 0.42357,-0.41668 0.66248,-2.14998 0.26433,-1.91776 0.28765,-2.11841 0.25581,-2.20141 -0.0247,-0.0643 -0.0762,-0.0511 -0.31866,0.0818 -0.26611,0.14588 -0.32598,0.15855 -0.74973,0.15861 -0.25328,3e-5 -0.4606,0.005 -0.46071,0.0116 -1.1e-4,0.007 0.0538,0.34254 0.11982,0.7471 0.11352,0.69574 0.23832,1.76202 0.30582,2.6129 l 0.0304,0.38313 0.15405,0.0153 c 0.29652,0.0295 0.19086,0.11485 -0.1496,0.12089 -0.41155,0.007 -0.77669,0.16229 -0.91444,0.3882 -0.10965,0.17981 -0.12532,0.56515 -0.0283,0.69775 0.0577,0.0789 0.0653,0.0609 0.0623,-0.14743 -0.002,-0.15756 0.0192,-0.24514 0.064,-0.26061 0.0515,-0.0177 0.0596,0.0127 0.0342,0.1284 -0.0226,0.10308 -0.005,0.20471 0.055,0.31719 l 0.0883,0.16551 0.0336,-0.25802 c 0.0185,-0.14191 0.0814,-0.32523 0.13992,-0.40739 z m 2.84721,-13.61781 c 0.27651,-0.1227 0.59441,-0.35752 0.59441,-0.43905 0,-0.0249 -0.0545,-0.0454 -0.12127,-0.0454 -0.0667,0 -0.18173,-0.0229 -0.25561,-0.051 -0.14696,-0.0558 -0.3204,-0.0229 -0.3204,0.061 0,0.0331 0.0749,0.043 0.19923,0.0263 0.11323,-0.0152 0.18722,-0.007 0.17138,0.0183 -0.0378,0.0612 -0.35713,0.0574 -0.39553,-0.005 -0.0169,-0.0274 -0.10644,-0.0498 -0.19892,-0.0498 -0.23806,0 -0.41281,-0.0775 -0.58107,-0.25759 l -0.14572,-0.156 -0.30914,0.0855 c -0.31235,0.0863 -0.7325,0.2994 -0.7325,0.37144 0,0.0549 0.92941,0.49261 1.17045,0.55121 0.28194,0.0685 0.61023,0.0295 0.92469,-0.11007 z m 3.53823,-0.20861 c -0.0273,-0.22384 -0.0532,-0.26453 -0.27444,-0.43159 -0.53209,-0.40173 -1.30499,-0.69095 -1.84646,-0.69095 -0.3849,0 -0.34138,0.1016 0.077,0.17974 0.66693,0.12455 1.3586,0.49594 1.83635,0.98603 0.12157,0.1247 0.22478,0.22159 0.22936,0.21532 0.005,-0.007 -0.005,-0.12262 -0.0218,-0.25855 z m -5.49291,-0.42446 c 0.13285,-0.0817 0.39094,-0.18782 0.57352,-0.23571 0.25137,-0.0659 0.33196,-0.10844 0.33196,-0.17511 0,-0.0687 -0.0411,-0.0879 -0.18678,-0.0872 -0.29023,0.002 -0.83904,0.13204 -1.14756,0.27329 l -0.27996,0.12817 0.19701,0.12103 c 0.10836,0.0666 0.2135,0.12173 0.23363,0.12258 0.0202,8.1e-4 0.14531,-0.0653 0.27818,-0.14708 z m 1.8172,-0.004 c 0.10424,-0.0289 0.20075,-0.0819 0.21446,-0.11761 0.0256,-0.0668 -0.21719,-0.4626 -0.35285,-0.57519 -0.0418,-0.0347 -0.076,-0.10799 -0.076,-0.16286 0,-0.0851 0.0228,-0.0952 0.15565,-0.0686 0.0856,0.0171 0.31044,0.0311 0.49962,0.0311 0.24902,0 0.35138,0.0193 0.37077,0.0698 0.0241,0.0628 -0.20886,0.41514 -0.40262,0.6089 -0.14362,0.14362 -0.0922,0.21785 0.15106,0.21785 0.34201,0 0.67281,-0.20193 0.43333,-0.26452 -0.0536,-0.014 -0.0345,-0.025 0.0498,-0.0286 0.10469,-0.004 0.13697,-0.0308 0.13697,-0.11175 0,-0.0961 -0.0189,-0.10295 -0.2029,-0.0736 -0.13325,0.0213 -0.19207,0.0149 -0.17138,-0.0185 0.0173,-0.0281 0.10863,-0.051 0.20289,-0.051 0.12428,0 0.17139,-0.022 0.17139,-0.0801 0,-0.0612 -0.0302,-0.0725 -0.12869,-0.0478 -0.0834,0.0209 -0.11743,0.014 -0.0967,-0.0195 0.0176,-0.0285 0.0643,-0.0518 0.10379,-0.0518 0.0395,0 0.0718,-0.0185 0.0718,-0.0412 0,-0.0226 0.0704,-0.0309 0.15649,-0.0182 0.10442,0.0154 0.14539,0.005 0.12313,-0.031 -0.0184,-0.0297 0.008,-0.0762 0.0588,-0.10333 0.0944,-0.0505 0.35887,-0.40108 0.35887,-0.47572 0,-0.0229 -0.12887,-0.0274 -0.28638,-0.0102 -0.26312,0.0287 -0.27837,0.0252 -0.18774,-0.0443 0.0543,-0.0417 0.18874,-0.10003 0.29885,-0.12977 0.1101,-0.0297 0.22698,-0.0615 0.25973,-0.0706 0.0727,-0.0203 0.21439,-0.47923 0.21439,-0.69447 0,-0.0861 -0.056,-0.34371 -0.12452,-0.57251 -0.13645,-0.45587 -0.16414,-0.99392 -0.0703,-1.3665 0.0442,-0.17544 0.0398,-0.24319 -0.0238,-0.36626 -0.0742,-0.14345 -0.0717,-0.1625 0.0506,-0.38116 0.0707,-0.12657 0.16189,-0.3575 0.20253,-0.51316 0.0407,-0.15566 0.13808,-0.42453 0.21651,-0.5975 0.0785,-0.17297 0.1213,-0.30133 0.0953,-0.28524 -0.026,0.0161 -0.0474,0.005 -0.0474,-0.0252 0,-0.16642 -0.81843,0.50389 -1.18044,0.96682 -0.29897,0.3823 -0.47578,0.52535 -0.64994,0.52587 -0.16149,4.6e-4 -0.138,-0.0817 0.0331,-0.11588 0.0939,-0.0188 0.21213,-0.1133 0.33479,-0.26772 0.10429,-0.13127 0.39196,-0.43966 0.63926,-0.68531 0.40778,-0.40504 0.42878,-0.43467 0.22552,-0.31814 -0.76699,0.4397 -1.19215,0.64027 -1.35727,0.64027 -0.0978,0 -0.31993,0.0446 -0.49358,0.099 -0.19066,0.0598 -0.45735,0.0992 -0.67323,0.0996 -0.33801,4.7e-4 -1.09603,0.0846 -1.16872,0.12956 -0.0185,0.0114 0.0219,0.13574 0.0897,0.2763 0.0768,0.15925 0.10566,0.27317 0.0765,0.30231 -0.0292,0.0291 -0.10384,-0.0753 -0.19824,-0.27698 -0.43756,-0.93504 -1.12755,-1.56949 -1.58266,-1.45525 -0.49573,0.12442 -0.68689,0.9953 -0.36691,1.67167 0.0886,0.18721 0.14348,0.37247 0.13053,0.44028 -0.0156,0.0815 0.021,0.16144 0.12028,0.26301 0.1708,0.17471 0.22176,0.34679 0.16277,0.5495 -0.0688,0.23655 -0.14146,0.19285 -0.12498,-0.0752 0.0132,-0.21548 -0.002,-0.26078 -0.14546,-0.40787 -0.13005,-0.13417 -0.15488,-0.19291 -0.13133,-0.31067 0.0184,-0.0918 8.2e-4,-0.18549 -0.0476,-0.25461 -0.0421,-0.0602 -0.11731,-0.22494 -0.16704,-0.36615 l -0.0904,-0.25673 -0.0391,0.24684 c -0.0215,0.13575 -0.04,0.37462 -0.0411,0.53081 -0.002,0.24302 0.0176,0.30448 0.13411,0.42609 0.1732,0.18078 0.17109,0.26358 -0.0133,0.51809 -0.0952,0.13148 -0.14942,0.26678 -0.14942,0.37312 0,0.17019 -0.0798,0.22663 -0.13117,0.0928 -0.0381,-0.0995 0.0559,-0.35704 0.21359,-0.58451 l 0.12893,-0.18605 -0.15548,-0.17709 c -0.10123,-0.1153 -0.1569,-0.23295 -0.15954,-0.33722 l -0.004,-0.16014 -0.0767,0.17433 c -0.14918,0.33914 -0.18029,0.90449 -0.0924,1.67981 0.11283,0.99577 0.11168,0.99177 0.32039,1.12156 0.20233,0.12581 0.62237,0.14587 1.38394,0.0661 0.42363,-0.0443 0.7221,-1.9e-4 1.05041,0.15522 0.21998,0.10418 0.20467,0.16877 -0.0249,0.10509 -0.2829,-0.0785 -0.93162,-0.0158 -1.35349,0.13064 -0.20341,0.0706 -0.46676,0.12842 -0.58523,0.12842 -0.11848,0 -0.21541,0.0122 -0.21541,0.0273 0,0.0588 0.28869,0.27209 0.57823,0.42724 l 0.30428,0.16304 0.2934,-0.1305 c 0.53909,-0.2398 0.85157,-0.30529 1.47629,-0.30941 0.32187,-0.002 0.58522,0.0131 0.58522,0.0337 0,0.0207 0.0323,0.0376 0.0718,0.0376 0.0394,0 0.0862,0.0233 0.10377,0.0518 0.0207,0.0336 -0.0132,0.0404 -0.0967,0.0195 -0.0984,-0.0247 -0.12869,-0.0135 -0.12869,0.0478 0,0.0581 0.0471,0.0801 0.17137,0.0801 0.0943,0 0.18351,0.0196 0.19833,0.0436 0.0149,0.0239 -0.0721,0.0324 -0.19323,0.0188 -0.20508,-0.0231 -0.21827,-0.0176 -0.19251,0.0809 0.0221,0.0846 0.0688,0.10715 0.23352,0.11281 l 0.20587,0.007 -0.19259,0.0303 c -0.18544,0.0291 -0.1891,0.0334 -0.0986,0.11483 0.0936,0.0842 0.29597,0.18048 0.39079,0.18596 0.0274,0.002 0.1351,-0.0208 0.23934,-0.0497 z m -0.49241,-1.62778 c -0.017,-0.0754 -0.0526,-0.22349 -0.079,-0.32923 l -0.0482,-0.19227 -0.10867,0.0989 c -0.16739,0.15232 -0.30925,0.21094 -0.51042,0.21094 -0.34707,0 -0.66909,-0.32049 -0.66909,-0.6659 0,-0.0988 -0.0189,-0.12065 -0.0829,-0.0961 -0.15101,0.058 -0.0247,-0.0696 0.15186,-0.15339 0.23319,-0.11066 0.61504,-0.10368 0.80932,0.0148 0.29114,0.17753 0.49373,0.54432 0.58685,1.06245 0.0385,0.2143 -0.003,0.25613 -0.0497,0.0498 z m -0.47898,-0.3311 c 0.16685,-0.0863 0.33612,-0.26821 0.29127,-0.31306 -0.0184,-0.0184 -0.10189,0.0322 -0.18559,0.11236 -0.21773,0.20861 -0.53225,0.20706 -0.73762,-0.004 -0.0801,-0.0822 -0.16098,-0.22319 -0.1797,-0.31334 -0.0323,-0.15549 -0.0277,-0.16234 0.0895,-0.13294 0.13269,0.0333 0.22837,-0.0524 0.14809,-0.13269 -0.0299,-0.0299 -0.0962,-0.0287 -0.17994,0.003 -0.10394,0.0395 -0.13263,0.0835 -0.13263,0.20355 0,0.45963 0.49296,0.78022 0.88666,0.57663 z m 1.61223,0.0697 c -0.0133,-0.52742 0.23507,-0.7969 0.7346,-0.7969 0.21851,0 0.4522,0.0865 0.4522,0.16738 0,0.0313 -0.0235,0.0282 -0.0598,-0.008 -0.0884,-0.0884 -0.19683,-0.0725 -0.18667,0.0274 0.0225,0.22157 -0.0135,0.33135 -0.15119,0.45993 -0.17069,0.15944 -0.42912,0.22406 -0.6144,0.15362 -0.1214,-0.0461 -0.12877,-0.0394 -0.14719,0.13587 -0.0121,0.11474 -0.0225,0.0621 -0.0276,-0.13929 z m 0.74237,-0.19539 c 0.10571,-0.10571 0.14441,-0.19097 0.14131,-0.31129 l -0.004,-0.1657 -0.0429,0.14348 c -0.0932,0.31126 -0.39346,0.48488 -0.66202,0.38278 -0.0733,-0.0278 -0.13318,-0.0325 -0.13318,-0.0104 0,0.0819 0.0723,0.10668 0.31098,0.10668 0.20389,0 0.26876,-0.0242 0.39015,-0.14559 z m -0.46455,-0.33173 c -0.0474,-0.0474 -0.14262,0.0294 -0.10724,0.0866 0.021,0.034 0.0489,0.0331 0.0846,-0.002 0.0293,-0.0293 0.0395,-0.0671 0.0226,-0.0841 z m -4.79472,0.6001 c -0.0827,-0.0408 -0.17788,-0.11838 -0.21162,-0.17242 -0.059,-0.0945 -0.0506,-0.0972 0.22498,-0.0698 0.2473,0.0246 0.31688,0.0109 0.51045,-0.10002 0.39211,-0.22475 0.64098,-0.32412 0.89671,-0.35805 0.13686,-0.0182 0.24884,-0.0211 0.24884,-0.007 0,0.0146 -0.14785,0.0958 -0.32857,0.18038 -0.18073,0.0846 -0.41775,0.22438 -0.52673,0.3107 -0.17918,0.14192 -0.4856,0.286 -0.61399,0.28871 -0.0274,4.6e-4 -0.11743,-0.0323 -0.20007,-0.0731 z m 3.21495,-1.03335 c -8.1e-4,-0.131 -0.0352,-0.31864 -0.0763,-0.41699 -0.1123,-0.26878 -0.0883,-0.3093 0.0762,-0.1285 0.11584,0.12735 0.14796,0.20908 0.14796,0.37648 0,0.1176 -0.0329,0.25734 -0.0732,0.31051 -0.0676,0.0894 -0.0732,0.0787 -0.0747,-0.1415 z m 1.463,-0.16898 c -0.005,-0.37834 -0.004,-0.38057 0.0871,-0.26805 0.0505,0.0624 0.0919,0.17717 0.0919,0.25502 0,0.1447 -0.0921,0.39557 -0.14495,0.39493 -0.0162,-1.9e-4 -0.0314,-0.17205 -0.0341,-0.3819 z m -1.01316,0.0439 c -0.009,-0.31351 -0.17798,-0.922 -0.35447,-1.27394 -0.10811,-0.21559 -0.19657,-0.40504 -0.19657,-0.42101 0,-0.0747 0.41882,0.38756 0.51089,0.56395 0.11968,0.22928 0.17761,0.91745 0.0943,1.12065 -0.0505,0.12311 -0.051,0.12323 -0.0542,0.0104 z m 0.35478,-0.22043 c -0.009,-0.33729 -0.11354,-0.75128 -0.26291,-1.04406 -0.13195,-0.25867 -0.11951,-0.28166 0.0608,-0.11241 0.30256,0.2839 0.43148,0.80835 0.32064,1.30429 -0.057,0.25505 -0.10927,0.18989 -0.11858,-0.14782 z m 0.28955,-0.22026 c 0,-0.28471 -0.17611,-0.93812 -0.32431,-1.20327 -0.069,-0.12341 -0.1166,-0.23319 -0.10585,-0.24395 0.0443,-0.0443 0.35381,0.32335 0.44821,0.53222 0.11902,0.26334 0.1474,0.95077 0.0435,1.05462 -0.0489,0.0489 -0.0616,0.0203 -0.0616,-0.13962 z m -3.57042,-0.50353 c -0.0171,-0.0479 -0.0404,-0.10958 -0.0519,-0.13698 -0.0115,-0.0274 0.0144,-0.007 0.0575,0.0469 0.0783,0.0966 0.10195,0.17726 0.0519,0.17726 -0.0145,0 -0.0404,-0.0392 -0.0575,-0.0872 z m 0.15867,-0.11207 c -0.0499,-0.0551 -0.0795,-0.11143 -0.0658,-0.12512 0.0137,-0.0137 0.0657,0.0202 0.1156,0.0753 0.0499,0.0551 0.0795,0.11143 0.0658,0.12513 -0.0137,0.0137 -0.0657,-0.0202 -0.11559,-0.0754 z m 0.12377,-0.10191 c -0.0681,-0.0523 -0.10004,-0.0956 -0.071,-0.0962 0.072,-0.002 0.25214,0.13398 0.22038,0.16574 -0.014,0.014 -0.0812,-0.0172 -0.14934,-0.0695 z m 0.16261,-0.11524 c -0.0616,-0.0305 -0.11206,-0.0732 -0.11206,-0.0948 0,-0.0216 0.0672,-0.005 0.14942,0.038 0.0822,0.0425 0.14941,0.0879 0.14941,0.10089 0,0.0335 -0.0575,0.0199 -0.18677,-0.0441 z m 0.18677,-0.1564 c -0.11312,-0.0435 -0.13934,-0.0677 -0.0747,-0.0687 0.0548,-8.2e-4 0.16685,0.0292 0.24903,0.0669 0.19275,0.0883 0.0539,0.0897 -0.17432,0.002 z m -0.57231,-0.0256 c 0.0167,-0.027 0.1,-0.0491 0.18511,-0.0491 0.18814,0 0.16914,0.0248 -0.0511,0.0668 -0.10268,0.0196 -0.15297,0.0129 -0.13403,-0.0177 z m 4.78097,8.2e-4 c -0.0169,-0.0274 -0.008,-0.0498 0.019,-0.0498 0.0274,0 0.0637,0.0225 0.0806,0.0498 0.0169,0.0274 0.008,0.0498 -0.019,0.0498 -0.0274,0 -0.0637,-0.0225 -0.0806,-0.0498 z m -3.95962,-0.0813 -0.22413,-0.0683 0.21771,0.0212 c 0.11974,0.0116 0.24189,0.0453 0.27145,0.0749 0.0651,0.0651 0.0254,0.0609 -0.26503,-0.0276 z m -0.84671,-0.0693 c 0,-0.0267 0.0822,-0.0486 0.18262,-0.0486 0.21346,0 0.20623,0.0231 -0.0207,0.0663 -0.093,0.0177 -0.16186,0.0102 -0.16186,-0.0177 z m 4.75653,0.002 c -0.0656,-0.0283 -0.0741,-0.0437 -0.0249,-0.0456 0.0411,-0.002 0.10833,0.019 0.14943,0.0456 0.091,0.0589 0.0124,0.0589 -0.12452,0 z m -3.83511,-0.0996 -0.0996,-0.0428 0.0996,-0.002 c 0.0548,-0.002 0.13323,0.019 0.17432,0.0456 0.0664,0.0429 0.0664,0.048 0,0.0456 -0.0411,-0.002 -0.11953,-0.022 -0.17432,-0.0456 z m 3.7604,-0.0498 -0.12452,-0.0399 0.13697,-0.005 c 0.0754,-0.002 0.13697,0.0175 0.13697,0.0448 0,0.0274 -0.006,0.0476 -0.0125,0.0448 -0.007,-0.002 -0.0685,-0.0229 -0.13697,-0.0448 z m -4.66869,-0.0358 c 0.0757,-0.0114 0.18778,-0.0111 0.24904,8.1e-4 0.0612,0.0118 -8.2e-4,0.0212 -0.13765,0.0208 -0.13697,-3.8e-4 -0.1871,-0.01 -0.11139,-0.0215 z m 0.96587,-0.38171 c -0.34553,-0.69913 -0.7131,-1.1107 -1.1227,-1.25707 -0.15303,-0.0547 -0.16136,-0.0647 -0.0555,-0.0664 0.25391,-0.004 0.63673,0.32247 0.95538,0.81492 0.21004,0.32462 0.45827,0.82387 0.42577,0.85637 -0.0114,0.0114 -0.10272,-0.14513 -0.20292,-0.34787 z m -0.9541,0.26802 -0.24903,-0.0341 0.23363,-0.008 c 0.12851,-0.004 0.2475,0.0146 0.26443,0.042 0.0169,0.0274 0.0238,0.0463 0.0153,0.042 -0.008,-0.004 -0.12745,-0.0232 -0.26442,-0.042 z m 4.38662,0.005 c -0.0891,-0.0349 -0.0897,-0.04 -0.008,-0.0712 0.12576,-0.0483 0.23956,-0.0414 0.2063,0.0124 -0.0157,0.0253 0.011,0.0563 0.0593,0.0689 0.0579,0.0151 0.0453,0.0237 -0.0367,0.0252 -0.0685,0.002 -0.1677,-0.0146 -0.22048,-0.0354 z m -0.16201,-0.14015 c 0.0425,-0.0688 0.23308,-0.11759 0.23308,-0.0596 0,0.0248 -0.0206,0.0452 -0.0457,0.0452 -0.0251,0 -0.0849,0.015 -0.13268,0.0334 -0.0547,0.021 -0.075,0.014 -0.0546,-0.0189 z m -4.37403,-0.0643 -0.19923,-0.0357 0.23365,-0.007 c 0.1285,-0.004 0.24749,0.0154 0.26442,0.0428 0.0334,0.054 0.002,0.054 -0.29884,0 z m 5.04371,-0.0623 c 0.0579,-0.0616 0.17636,-0.31381 0.26321,-0.56033 0.17396,-0.49383 0.29049,-0.7446 0.32837,-0.70671 0.0136,0.0136 -0.0186,0.11092 -0.0715,0.2163 -0.0529,0.10539 -0.14731,0.34849 -0.20975,0.54025 -0.11923,0.36619 -0.26771,0.62259 -0.36053,0.62259 -0.0303,0 -0.007,-0.0505 0.0502,-0.1121 z m -0.73544,0.006 c 0,-0.048 0.2198,-0.11117 0.29711,-0.0854 0.0288,0.01 -0.0263,0.0421 -0.12238,0.0721 -0.0961,0.03 -0.17473,0.036 -0.17473,0.0133 z m -4.18375,-0.0792 c -0.0685,-0.0123 -0.14623,-0.0433 -0.17277,-0.0688 -0.0617,-0.0595 0.27864,0.002 0.3446,0.0616 0.05,0.0456 0.0434,0.0459 -0.17183,0.007 z m 4.33317,-0.11352 c 0.0411,-0.0265 0.11953,-0.047 0.17432,-0.0456 l 0.0996,0.002 -0.0996,0.0428 c -0.0548,0.0235 -0.13323,0.044 -0.17432,0.0456 -0.0664,0.002 -0.0664,-0.002 0,-0.0456 z m -4.45769,-0.0804 -0.19923,-0.07 0.19493,0.0236 c 0.10722,0.013 0.21816,0.0468 0.24655,0.0752 0.0658,0.0658 0.007,0.0589 -0.24225,-0.0288 z m 4.5822,-0.069 c 0.0169,-0.0274 0.0799,-0.0483 0.13991,-0.0463 0.10522,0.003 0.10555,0.005 0.01,0.0463 -0.1371,0.0589 -0.18584,0.0589 -0.14943,0 z m -4.47454,-0.0806 c -0.0777,-0.0421 -0.13108,-0.0869 -0.1185,-0.0995 0.0332,-0.0332 0.28477,0.0889 0.28477,0.13828 0,0.0523 0.003,0.0532 -0.16627,-0.0388 z m 4.65856,-0.10261 c 0.049,-0.0129 0.0729,-0.0523 0.0569,-0.0938 -0.0183,-0.0477 0.006,-0.0716 0.0728,-0.0716 0.0758,0 0.0939,0.0243 0.0742,0.0996 -0.0183,0.07 -0.0651,0.0979 -0.15722,0.0938 -0.0792,-0.003 -0.0977,-0.0146 -0.0468,-0.028 z m -4.71641,-0.119 c -0.0822,-0.0527 -0.11581,-0.0953 -0.0747,-0.0949 0.0411,3.8e-4 0.13074,0.0447 0.19922,0.0982 0.15924,0.12456 0.0715,0.12217 -0.12451,-0.003 z m -0.0249,-0.19585 c -0.0974,-0.0533 -0.13832,-0.0964 -0.0927,-0.0975 0.0449,-8.1e-4 0.13456,0.042 0.19923,0.0959 0.14779,0.12312 0.11621,0.12361 -0.10654,0.002 z m 4.97132,0.0656 c 0.0359,-0.0144 0.0789,-0.0127 0.0954,0.004 0.0166,0.0166 -0.0129,0.0283 -0.0654,0.0261 -0.0581,-0.002 -0.0698,-0.0142 -0.0301,-0.0301 z m -5.09584,-0.26481 -0.0996,-0.0428 0.0996,-0.002 c 0.0548,-0.002 0.13324,0.0189 0.17432,0.0456 0.0664,0.043 0.0664,0.048 0,0.0456 -0.0411,-0.002 -0.11954,-0.0221 -0.17432,-0.0456 z m 6.87264,6.03905 c -0.18091,-0.44046 -0.32863,-0.52028 -1.33334,-0.72037 -0.49542,-0.0987 -0.54337,-0.1007 -0.61791,-0.0261 -0.0908,0.0908 -0.13969,0.0712 0.47776,0.19099 0.33566,0.0651 0.92275,0.33102 1.29983,0.58872 0.12327,0.0842 0.23003,0.15326 0.23725,0.15339 0.007,1.1e-4 -0.0214,-0.0838 -0.0636,-0.18657 z m -5.8954,-0.11514 c 0.2749,-0.14024 0.9045,-0.29577 1.19731,-0.29577 0.20786,0 0.24107,-0.0137 0.24107,-0.0996 0,-0.0927 -0.0331,-0.0996 -0.47843,-0.0996 -0.52949,0 -0.94983,0.0891 -1.3305,0.28199 l -0.24712,0.12523 0.14396,0.0949 c 0.18151,0.11966 0.22653,0.11898 0.47371,-0.007 z m 2.72949,-0.22105 c 0.006,0.0924 0.0133,0.0906 0.106,-0.0249 0.23723,-0.29562 0.23536,-0.29903 -0.16265,-0.29684 -0.3531,0.002 -0.3591,0.004 -0.22325,0.0776 0.0827,0.0448 0.13395,0.11001 0.12576,0.15988 -0.007,0.0463 0.007,0.11759 0.0326,0.1584 0.0376,0.0602 0.0529,0.0509 0.0809,-0.0498 0.0282,-0.10149 0.0356,-0.10593 0.0406,-0.0244 z m -0.19537,-0.12452 c 0,-0.0274 -0.0237,-0.0498 -0.0528,-0.0498 -0.029,0 -0.0389,0.0224 -0.022,0.0498 0.0169,0.0274 0.0407,0.0498 0.0528,0.0498 0.0121,0 0.022,-0.0225 0.022,-0.0498 z m 2.39072,-5.9768 c 0,-0.0274 -0.01,-0.0498 -0.022,-0.0498 -0.0121,0 -0.0358,0.0225 -0.0528,0.0498 -0.0169,0.0274 -0.007,0.0498 0.022,0.0498 0.029,0 0.0528,-0.0224 0.0528,-0.0498 z"
         id="path27-8" />
    </g>
  </g>
</svg>
