<?xml version="1.0" encoding="UTF-8" standalone="no"?>
<!-- Created with Inkscape (http://www.inkscape.org/) -->

<svg
   width="41.008999mm"
   height="41.008999mm"
   viewBox="0 0 41.008999 41.009"
   version="1.1"
   id="svg1"
   inkscape:version="1.4.2 (f4327f4, 2025-05-13)"
   sodipodi:docname="259.svg"
   xmlns:inkscape="http://www.inkscape.org/namespaces/inkscape"
   xmlns:sodipodi="http://sodipodi.sourceforge.net/DTD/sodipodi-0.dtd"
   xmlns="http://www.w3.org/2000/svg"
   xmlns:svg="http://www.w3.org/2000/svg">
  <sodipodi:namedview
     id="namedview1"
     pagecolor="#ffffff"
     bordercolor="#000000"
     borderopacity="0.25"
     inkscape:showpageshadow="2"
     inkscape:pageopacity="0.0"
     inkscape:pagecheckerboard="0"
     inkscape:deskcolor="#d1d1d1"
     inkscape:document-units="mm"
     inkscape:zoom="2.8970539"
     inkscape:cx="84.223494"
     inkscape:cy="68.000116"
     inkscape:window-width="1168"
     inkscape:window-height="1081"
     inkscape:window-x="3737"
     inkscape:window-y="0"
     inkscape:window-maximized="0"
     inkscape:current-layer="layer1" />
  <defs
     id="defs1" />
  <g
     inkscape:label="Layer 1"
     inkscape:groupmode="layer"
     id="layer1"
     transform="translate(-114.0891,-77.774176)">
    <g
       id="g29"
       transform="translate(-609.44042,352.30391)">
      <path
         style="fill:#000000;stroke-width:0.1;stroke-dasharray:none"
         d="m 752.66445,-234.20235 c -0.37072,-0.23157 -0.93185,-0.96363 -1.58087,-2.06246 -0.31503,-0.53334 -0.39129,-0.62563 -0.49577,-0.59989 -0.068,0.0168 -0.47131,0.13932 -0.89648,0.2724 -1.83256,0.57365 -3.15031,0.77889 -5.26239,0.81962 -1.77572,0.0342 -2.65849,-0.0377 -4.16234,-0.33914 -2.92655,-0.58665 -5.80356,-1.92413 -8.13391,-3.78134 -0.77965,-0.62137 -2.37074,-2.23121 -2.96279,-2.99772 -2.19239,-2.83846 -3.50034,-5.98709 -3.97681,-9.57339 -0.13676,-1.02947 -0.18101,-2.92574 -0.0936,-4.01487 0.12845,-1.60202 0.44785,-3.18356 0.96603,-4.78351 1.37874,-4.25707 3.47572,-8.12164 6.15543,-11.34397 1.39619,-1.67891 2.07228,-1.78112 3.55314,-0.53712 0.94406,0.79306 0.80344,0.72744 1.20367,0.5616 0.51853,-0.21486 1.75234,-0.60955 2.45061,-0.78391 2.75431,-0.68777 5.75599,-0.73927 8.58594,-0.1473 3.56678,0.74607 6.78796,2.48152 9.38046,5.05377 0.97843,0.97079 1.68122,1.82277 2.40342,2.91364 1.68638,2.54725 2.73211,5.38961 3.16119,8.59227 0.14452,1.0787 0.17321,3.4535 0.0555,4.59329 -0.35543,3.44155 -1.25681,6.1405 -3.15264,9.43978 -1.98746,3.45872 -4.15087,6.41731 -6.05465,8.28008 -0.61956,0.60622 -0.77724,0.66666 -1.14303,0.43817 z m -7.31384,-3.27959 c 1.3285,-0.11237 2.99138,-0.44639 4.07146,-0.81786 l 0.32536,-0.11191 -0.44331,-0.0412 c -1.23866,-0.11509 -2.71292,-0.56123 -3.99397,-1.20856 -0.83993,-0.42442 -0.88033,-0.43824 -1.04104,-0.35578 -0.69959,0.35889 -2.84045,1.02884 -3.84444,1.20303 -0.62458,0.10837 -0.77932,0.0845 -0.89322,-0.13817 -0.15017,-0.29355 -0.2461,-1.57654 -0.24333,-3.25468 0.002,-1.34885 0.0242,-1.75282 0.13755,-2.52715 0.26626,-1.81868 0.56906,-3.04405 1.05801,-4.28126 0.63321,-1.60227 1.05851,-2.20998 2.7988,-3.99916 1.91715,-1.97103 2.48787,-2.71976 3.22915,-4.23635 0.84228,-1.72319 1.21046,-3.18164 1.52365,-6.0354 0.11866,-1.08129 0.13593,-3.50262 0.0305,-4.27608 -0.0816,-0.59848 -0.16735,-0.71926 -0.50942,-0.71745 -0.76906,0.003 -3.04617,0.76243 -4.39778,1.46465 l -0.22981,0.11939 -0.72463,-0.37417 c -0.90025,-0.46484 -1.62489,-0.74704 -2.4929,-0.97084 -0.688,-0.17741 -1.82178,-0.35923 -2.23987,-0.35923 -0.2282,0 -0.24332,-0.0134 -0.58414,-0.5203 -0.91639,-1.36275 -2.08784,-2.80652 -2.4676,-3.04122 -0.35109,-0.21701 -0.48344,-0.17465 -0.95615,0.30596 -0.7079,0.71976 -2.05874,2.60066 -2.97867,4.14749 -1.82315,3.06557 -3.27893,7.02447 -3.72808,10.13828 -0.0492,0.34012 -0.077,1.15279 -0.0767,2.22983 4.4e-4,1.45085 0.0196,1.8237 0.13423,2.59154 0.58252,3.90377 2.29767,7.36715 4.97606,10.04802 1.01877,1.01972 1.58202,1.48578 2.67049,2.20968 1.88352,1.25266 4.28818,2.18014 6.81674,2.62923 1.33156,0.23651 2.69165,0.2965 4.07315,0.17966 z M 738.51,-256.17061 c -0.71467,-0.18268 -1.27257,-0.59743 -1.5498,-1.15217 -0.0947,-0.18943 -0.17311,-0.34986 -0.1743,-0.35651 -9.5e-4,-0.008 -0.15498,0.065 -0.34177,0.15923 -1.11226,0.56105 -2.65066,0.0106 -3.19673,-1.14358 -0.2344,-0.49549 -0.2413,-0.87585 -0.0191,-1.0507 0.31272,-0.246 0.67562,-0.0956 0.82027,0.33991 0.17718,0.53343 0.86365,1.02341 1.43379,1.02341 0.46425,0 0.98276,-0.34459 1.18931,-0.79039 l 0.13847,-0.29888 -0.19863,-0.24324 c -0.69986,-0.85704 -0.66806,-1.52166 0.0727,-1.52166 0.37749,0 1.58034,0.35678 2.05488,0.6095 0.8311,0.44262 0.60498,0.9959 -0.55383,1.3552 -0.3599,0.11155 -0.47335,0.25033 -0.47481,0.5807 -0.002,0.54889 0.27675,1.03428 0.73329,1.2748 0.18899,0.0996 0.35174,0.13058 0.69341,0.13206 0.39306,0.002 0.49375,-0.0222 0.84198,-0.20072 0.36512,-0.18711 0.40987,-0.19675 0.58207,-0.12542 0.10257,0.0425 0.22641,0.15435 0.27511,0.24854 0.0794,0.15346 0.0784,0.19284 -0.01,0.37801 -0.11213,0.23642 -0.52542,0.55561 -0.91712,0.70842 -0.34691,0.13531 -1.01976,0.17065 -1.39983,0.0735 z m 5.38591,-2.34296 c -0.0479,-0.0189 -0.26053,-0.17732 -0.47252,-0.35219 -0.52589,-0.43376 -0.87361,-0.55557 -1.58598,-0.55557 -0.52097,0 -0.57683,-0.0118 -0.71132,-0.14597 -0.4019,-0.40189 0.11154,-0.97297 0.92791,-1.03202 0.95184,-0.0689 2.10703,0.5491 2.43002,1.29989 0.15033,0.34946 0.1255,0.60117 -0.073,0.74022 -0.12793,0.0896 -0.35265,0.10955 -0.5151,0.0456 z m -9.91725,-3.60235 c -0.61087,-0.53973 -0.90094,-0.64531 -1.75971,-0.64055 -0.63455,0.003 -0.64732,9.1e-4 -0.8176,-0.16939 -0.0952,-0.0952 -0.17298,-0.2165 -0.17298,-0.26969 0,-0.1975 0.18828,-0.4504 0.43233,-0.58072 0.21725,-0.11602 0.34053,-0.1343 0.90557,-0.13436 0.5381,-8e-5 0.71778,0.024 1.01326,0.13629 0.85433,0.32439 1.44367,1.05181 1.26574,1.56226 -0.12384,0.35521 -0.52325,0.39955 -0.86661,0.0961 z m 11.98244,-2.15718 c -0.30307,-0.28108 -0.81193,-0.7136 -1.13079,-0.96117 -0.5831,-0.45273 -0.6939,-0.62213 -0.50543,-0.77271 0.13383,-0.10697 1.15631,-0.49059 1.63082,-0.61195 0.52578,-0.13446 0.72795,-0.0966 0.84402,0.15816 0.0425,0.0932 0.0671,0.5677 0.0671,1.29091 0,0.9387 -0.0166,1.16715 -0.0925,1.27564 -0.0509,0.0727 -0.13072,0.13215 -0.17736,0.13215 -0.0467,0 -0.33279,-0.22997 -0.63585,-0.51103 z m -13.31445,-3.97396 c -0.0566,-0.12427 -0.031,-0.20866 0.18511,-0.60948 0.29503,-0.54722 0.70525,-1.17523 0.91664,-1.40335 0.10661,-0.11495 0.20859,-0.16194 0.35199,-0.16194 0.1685,0 0.25565,0.0565 0.5267,0.34191 0.32479,0.34191 0.71793,0.8843 0.90548,1.24925 0.0753,0.14662 0.0843,0.22243 0.0366,0.31148 -0.0765,0.14294 -0.16037,0.16154 -0.93507,0.20731 -0.33438,0.0197 -0.84277,0.0745 -1.12978,0.12146 -0.71602,0.11732 -0.78033,0.11309 -0.85769,-0.0566 z m 23.12785,25.33449 c 0.30564,-0.16114 0.42794,-0.31374 0.42794,-0.53398 0,-0.34845 -0.14862,-0.42067 -0.94258,-0.4581 -0.81467,-0.0384 -1.16087,-0.16591 -1.66401,-0.61277 -0.37787,-0.3356 -0.63869,-0.37282 -0.8379,-0.11957 -0.42328,0.5381 0.41377,1.52318 1.534,1.8053 0.34974,0.0881 1.25584,0.0386 1.48255,-0.081 z m -4.60342,-2.72128 c 0.36813,-0.16774 0.30516,-0.6652 -0.16819,-1.32853 l -0.27671,-0.38778 0.11191,-0.2529 c 0.12477,-0.28206 0.46733,-0.6118 0.76468,-0.73604 0.33228,-0.13883 0.73214,-0.10319 1.14223,0.10163 0.40288,0.20132 0.58904,0.40588 0.78014,0.85721 0.0692,0.16348 0.16987,0.33069 0.2237,0.37158 0.16408,0.12462 0.456,0.0898 0.60845,-0.0724 0.11941,-0.12712 0.13304,-0.18682 0.10215,-0.44761 -0.0475,-0.40066 -0.3555,-0.96339 -0.69059,-1.26154 -0.14957,-0.13308 -0.44584,-0.32517 -0.65842,-0.42689 -0.36013,-0.17233 -0.43115,-0.18495 -1.0406,-0.18495 -0.59837,0 -0.68043,0.0138 -0.96362,0.16319 l -0.30953,0.1632 -0.11936,-0.26984 c -0.55523,-1.25517 -2.34012,-1.74515 -3.4927,-0.9588 -0.36093,0.24625 -0.51107,0.51449 -0.42545,0.76012 0.11939,0.34246 0.4101,0.37617 0.91929,0.1066 0.32041,-0.16965 0.38383,-0.18222 0.80086,-0.15895 0.76967,0.043 1.22704,0.41824 1.36208,1.11758 0.092,0.47634 -0.009,0.81047 -0.26092,0.8648 -0.7044,0.15184 -1.22702,0.50248 -1.22702,0.82326 0,0.2152 0.0699,0.32041 0.32704,0.49288 0.35909,0.24079 1.7932,0.71895 2.18243,0.7277 0.0884,0.002 0.22708,-0.0266 0.30817,-0.0637 z m -5.08096,-0.79308 c 0.29967,-0.15497 0.42001,-0.30817 0.42001,-0.53479 0,-0.34847 -0.1478,-0.42856 -0.85034,-0.46075 -0.71473,-0.0327 -1.02911,-0.16276 -1.56286,-0.6461 -0.49115,-0.44481 -0.70908,-0.50583 -0.94913,-0.26579 -0.50641,0.50641 0.40152,1.63159 1.58467,1.96386 0.39347,0.1105 1.0909,0.0815 1.35765,-0.0564 z"
         id="path28" />
      <circle
         style="fill:none;stroke:#0000ff;stroke-width:0.1;stroke-linecap:round;stroke-dasharray:none;stroke-opacity:1;paint-order:markers stroke fill"
         id="path13019-1-33-3-83-70-3-7-5-9-5-8-1-5-0"
         cx="743.90662"
         cy="-270.88776"
         r="2" />
      <path
         d="m 752.62717,-234.19546 c -0.37072,-0.23156 -0.93184,-0.96362 -1.58086,-2.06245 -0.31504,-0.53335 -0.39129,-0.62564 -0.49577,-0.5999 -0.068,0.0168 -0.47132,0.13933 -0.89648,0.2724 -1.83256,0.57366 -3.15031,0.77889 -5.2624,0.81962 -1.77571,0.0342 -2.65849,-0.0377 -4.16233,-0.33913 -2.92656,-0.58666 -5.80356,-1.92413 -8.13391,-3.78135 -0.77965,-0.62136 -2.37074,-2.23121 -2.96279,-2.99772 -2.1924,-2.83845 -3.50034,-5.98708 -3.97681,-9.57339 -0.13677,-1.02947 -0.18101,-2.92574 -0.0936,-4.01487 0.12845,-1.60202 0.44784,-3.18355 0.96603,-4.7835 1.37874,-4.25707 3.47571,-8.12165 6.15543,-11.34397 1.39618,-1.67892 2.07228,-1.78112 3.55314,-0.53712 0.94406,0.79306 0.80343,0.72743 1.20367,0.56159 0.51853,-0.21486 1.75234,-0.60954 2.45061,-0.78391 2.75431,-0.68777 5.75599,-0.73927 8.58594,-0.14729 3.56678,0.74606 6.78796,2.48151 9.38046,5.05376 0.97843,0.97079 1.68122,1.82278 2.40342,2.91365 1.68637,2.54724 2.7321,5.3896 3.16119,8.59226 0.14452,1.07871 0.17321,3.45351 0.0555,4.5933 -0.35543,3.44154 -1.25681,6.14049 -3.15264,9.43977 -1.98746,3.45872 -4.15087,6.41731 -6.05465,8.28009 -0.61956,0.60621 -0.77724,0.66665 -1.14303,0.43816 z"
         style="fill:none;stroke:#ff0000;stroke-width:0.1;stroke-dasharray:none;stroke-opacity:1"
         id="path1" />
    </g>
  </g>
</svg>
