<?xml version="1.0" encoding="UTF-8" standalone="no"?>
<!-- Created with Inkscape (http://www.inkscape.org/) -->

<svg
   width="41.008999mm"
   height="41.008999mm"
   viewBox="0 0 41.008999 41.009"
   version="1.1"
   id="svg1"
   inkscape:version="1.4.2 (f4327f4, 2025-05-13)"
   sodipodi:docname="261.svg"
   xmlns:inkscape="http://www.inkscape.org/namespaces/inkscape"
   xmlns:sodipodi="http://sodipodi.sourceforge.net/DTD/sodipodi-0.dtd"
   xmlns="http://www.w3.org/2000/svg"
   xmlns:svg="http://www.w3.org/2000/svg">
  <sodipodi:namedview
     id="namedview1"
     pagecolor="#ffffff"
     bordercolor="#000000"
     borderopacity="0.25"
     inkscape:showpageshadow="2"
     inkscape:pageopacity="0.0"
     inkscape:pagecheckerboard="0"
     inkscape:deskcolor="#d1d1d1"
     inkscape:document-units="mm"
     inkscape:zoom="2.8970539"
     inkscape:cx="84.223494"
     inkscape:cy="68.000116"
     inkscape:window-width="1168"
     inkscape:window-height="1081"
     inkscape:window-x="3737"
     inkscape:window-y="0"
     inkscape:window-maximized="0"
     inkscape:current-layer="layer1" />
  <defs
     id="defs1" />
  <g
     inkscape:label="Layer 1"
     inkscape:groupmode="layer"
     id="layer1"
     transform="translate(-114.0891,-77.774176)">
    <g
       id="g23"
       transform="translate(-482.84085,302.6129)">
      <circle
         style="fill:none;stroke:#ff0000;stroke-width:0.1;stroke-dasharray:none"
         id="path788-8-1-8-1-9-2-6-3-4-7-1-6-1-0-8-8"
         cx="617.43445"
         cy="-204.33423"
         r="19.954653" />
      <circle
         style="fill:none;stroke:#0000ff;stroke-width:0.1;stroke-linecap:round;stroke-dasharray:none;stroke-opacity:1;paint-order:markers stroke fill"
         id="path13019-1-33-3-83-70-3-7-5-9-5-4-3"
         cx="617.43445"
         cy="-219.3452"
         r="2" />
      <path
         style="fill:#000000;stroke-width:0.1;stroke-dasharray:none"
         d="m 607.96059,-192.48105 c -1.24591,-0.22153 -2.62507,-1.01925 -2.7301,-1.57909 -0.0723,-0.38554 0.4839,-1.38448 1.22789,-2.20522 l 0.36483,-0.40245 -0.56884,-7e-4 c -0.68998,-0.001 -1.27138,-0.13012 -1.75949,-0.39028 -0.55832,-0.29758 -0.83772,-0.55191 -0.83772,-0.76255 0,-0.26918 0.16965,-0.37245 0.69644,-0.42393 0.40152,-0.0392 0.46476,-0.0617 0.42831,-0.15176 -0.25988,-0.64257 0.20502,-1.36139 0.88047,-1.36139 0.26503,0 0.24831,0.0511 0.34771,-1.06248 0.15882,-1.77946 0.82981,-3.65652 1.74985,-4.89515 0.99524,-1.33986 2.46996,-2.2196 4.27508,-2.55027 0.60425,-0.11069 2.40417,-0.11158 2.92307,-0.001 0.69784,0.14811 1.66164,0.46845 2.2828,0.75871 1.66395,0.77757 3.39293,2.30255 4.22195,3.7238 0.06,0.10291 0.0937,0.0947 0.40463,-0.0986 0.41567,-0.25839 0.91862,-0.32481 1.24116,-0.16391 0.11508,0.0574 0.21539,0.097 0.22292,0.088 0.008,-0.009 -0.15636,-0.71128 -0.36418,-1.56061 -0.4472,-1.82754 -0.57225,-2.60527 -0.57096,-3.55106 0.001,-1.30636 0.32225,-2.10706 1.18225,-2.9538 0.28777,-0.28333 0.57173,-0.62208 0.63102,-0.75277 0.12951,-0.28544 0.56944,-0.77525 0.85456,-0.95146 0.554,-0.3424 1.34432,-0.30421 1.86061,0.0899 0.23063,0.17604 0.35413,0.21858 0.74698,0.25729 0.70298,0.0693 1.38786,0.26196 1.99921,0.56247 0.42998,0.21134 0.65688,0.37966 1.06384,0.78918 0.83344,0.83868 1.13831,1.63211 1.14021,2.96747 10e-4,0.87532 -0.12194,1.42837 -0.48048,2.15715 -0.81188,1.65022 -2.67754,2.50837 -4.6966,2.16028 -0.56957,-0.0982 -0.6405,-0.0987 -0.81993,-0.006 -0.33125,0.1713 -0.39177,0.37699 -0.39177,1.33164 0,1.09959 -0.0936,1.48081 -0.62738,2.55557 -0.4331,0.87201 -0.69615,1.19783 -1.15111,1.42578 -0.10202,0.0511 -0.24784,0.14734 -0.32404,0.21383 l -0.13855,0.1209 0.92182,0.91232 c 1.3234,1.30976 1.5111,1.66938 1.15211,2.20729 -0.53432,0.8006 -1.70218,1.63786 -2.68187,1.92266 -0.80338,0.23355 -1.32481,-0.17912 -2.11294,-1.6722 -0.18695,-0.35416 -0.34762,-0.6541 -0.35704,-0.66653 -0.009,-0.0124 -0.11521,0.0522 -0.23507,0.14362 -0.46293,0.3531 -1.13431,0.45521 -1.75827,0.26743 l -0.31399,-0.0945 -0.19529,0.20106 c -0.30644,0.31551 -0.6915,0.45571 -1.25425,0.45669 -0.28255,4.9e-4 -0.57999,-0.0384 -0.70961,-0.0929 -0.20735,-0.0871 -0.24156,-0.0834 -0.48334,0.0517 -0.62239,0.34787 -1.64932,0.44709 -2.30223,0.22246 l -0.3566,-0.12269 -0.37791,0.19283 c -0.33554,0.1712 -0.42591,0.18958 -0.80621,0.16393 -0.30497,-0.0206 -0.51681,-0.0784 -0.73564,-0.20066 -0.34032,-0.1902 -0.3743,-0.17393 -0.44663,0.21389 -0.13705,0.73484 -0.8732,2.1707 -1.22406,2.38755 -0.24556,0.15175 -0.61458,0.19906 -1.00762,0.12917 z m 0.75539,-0.72565 0.17642,-0.20928 -0.47656,-0.0414 c -0.86865,-0.0754 -2.26775,-0.71276 -2.45193,-1.11698 -0.0977,-0.21437 -0.13751,-0.20453 -0.26645,0.0659 -0.15754,0.33035 -0.14071,0.38589 0.19445,0.6418 0.60188,0.45957 1.68186,0.85784 2.34751,0.86569 0.26161,0.003 0.32279,-0.0233 0.47656,-0.20572 z m 0.34045,-0.54978 c 0.27463,-0.38569 0.97561,-2.38619 0.97561,-2.78427 0,-0.0884 -0.091,-0.1157 -0.49904,-0.14949 -0.27448,-0.0227 -0.82738,-0.10301 -1.22869,-0.1784 l -0.72964,-0.13708 -0.25956,0.24944 c -0.30402,0.29218 -1.11326,1.31819 -1.25335,1.58908 -0.19294,0.37311 0.009,0.61892 0.84787,1.02981 0.44387,0.21752 1.13415,0.46346 1.4482,0.51598 0.43418,0.0726 0.56934,0.0465 0.6986,-0.13507 z m 13.73087,-1.0352 c 0.55073,-0.23502 1.0844,-0.5924 1.5878,-1.06327 0.49798,-0.46582 0.54175,-0.6019 0.30399,-0.94499 l -0.17821,-0.25715 -0.17775,0.30733 c -0.44499,0.76931 -1.83644,1.75103 -2.4918,1.75805 l -0.17639,0.002 0.2103,0.19129 c 0.25891,0.23553 0.38403,0.23646 0.92206,0.007 z m -0.73215,-0.4336 c 0.69876,-0.23334 1.95932,-1.22191 2.23305,-1.75125 l 0.10351,-0.20018 -0.3864,-0.43778 c -0.85804,-0.97211 -2.54129,-2.31048 -2.73427,-2.17405 -0.16475,0.11648 -1.43946,0.96337 -1.54971,1.0296 -0.0994,0.0597 -0.0744,0.14488 0.2599,0.88696 0.62562,1.38875 1.45554,2.74959 1.67687,2.74959 0.0489,0 0.22758,-0.0463 0.39705,-0.10289 z m -10.01846,-0.41657 c 0.2125,-0.10841 0.2544,-0.15917 0.22588,-0.27366 -0.0192,-0.0773 -0.0546,-0.26372 -0.0785,-0.41424 l -0.0435,-0.27367 h -0.8527 -0.85269 l -0.035,0.30586 c -0.0408,0.35647 0.0249,0.4573 0.42777,0.65674 0.35419,0.17532 0.86396,0.17489 1.20879,-7e-4 z m 2.56724,-0.0954 c 0.19479,-0.0574 0.41798,-0.14517 0.49598,-0.19498 0.13143,-0.0839 0.13549,-0.10595 0.0555,-0.30038 -0.0475,-0.11538 -0.10553,-0.32668 -0.12902,-0.46953 l -0.0427,-0.25973 -0.65672,0.11204 c -0.3612,0.0617 -0.95373,0.13205 -1.31675,0.15652 -0.73007,0.0492 -0.70073,0.0225 -0.59042,0.53692 0.08,0.37287 0.0644,0.35835 0.51918,0.48628 0.41249,0.11606 1.14347,0.0866 1.66496,-0.0671 z m 2.27593,-0.22728 c 0.13615,-0.0378 0.34818,-0.16096 0.47117,-0.27367 l 0.22363,-0.20493 -0.16473,-0.3538 c -0.0906,-0.19459 -0.18303,-0.44971 -0.2054,-0.56694 -0.0226,-0.11857 -0.0729,-0.2013 -0.11327,-0.18646 -0.30635,0.11258 -0.86825,0.28306 -1.32826,0.403 l -0.54734,0.14271 0.021,0.24891 c 0.0338,0.40112 0.20496,0.68885 0.46201,0.77651 0.28465,0.0971 0.85882,0.1042 1.18125,0.0147 z m 2.421,-0.509 c 0.12142,-0.0348 0.31489,-0.15455 0.42994,-0.26605 l 0.20917,-0.20274 -0.13217,-0.32958 c -0.0727,-0.18127 -0.20353,-0.53895 -0.29077,-0.79483 l -0.1586,-0.46526 -0.33278,0.17121 c -0.18302,0.0942 -0.62255,0.29247 -0.9767,0.44069 -0.61175,0.25602 -0.64354,0.27881 -0.63607,0.45615 0.004,0.10267 0.0732,0.33848 0.153,0.52402 0.13116,0.30491 0.17376,0.34618 0.44288,0.42905 0.35164,0.10828 0.98129,0.12647 1.2921,0.0373 z m -6.03246,-0.61696 c 3.57806,-0.39695 7.02763,-1.97795 9.11575,-4.1779 0.74482,-0.78471 1.16821,-1.51759 1.07993,-1.86933 -0.11387,-0.45372 -0.6479,-0.74389 -1.13009,-0.61406 -0.32657,0.0879 -0.64685,0.35653 -0.64685,0.54245 0,0.0791 -0.17359,0.38083 -0.38574,0.67046 -0.94876,1.29523 -2.16238,2.30886 -3.63881,3.03919 -1.07634,0.53241 -1.99075,0.83946 -3.25184,1.0919 -1.45063,0.29038 -2.09665,0.35137 -3.67039,0.34652 -1.67343,-0.005 -2.48872,-0.1193 -3.68074,-0.51527 -0.83791,-0.27835 -1.10851,-0.44143 -1.1369,-0.68514 -0.0206,-0.17746 -0.0752,-0.2017 -0.39817,-0.1769 -0.24579,0.0189 -0.43166,0.16751 -0.51133,0.40889 -0.13762,0.41697 0.0754,0.66677 0.92988,1.09018 1.76902,0.87663 4.36467,1.17746 7.3253,0.84901 z m -6.29823,-0.0808 c -0.0336,-0.029 -0.26756,-0.13155 -0.51982,-0.22784 -0.25224,-0.0963 -0.62895,-0.2787 -0.8371,-0.40533 l -0.37847,-0.23025 -0.39693,0.10393 c -0.2183,0.0572 -0.45736,0.10392 -0.53123,0.10392 -0.0739,0 -0.13432,0.0272 -0.13432,0.0603 0,0.0865 0.74175,0.43595 1.15907,0.54604 0.37319,0.0985 1.74362,0.13956 1.6388,0.0491 z m 6.28151,-1.32969 c 0.40728,-0.0617 0.75823,-0.13091 0.77988,-0.15371 0.0217,-0.0228 -0.0718,-0.66435 -0.20775,-1.42566 -0.18717,-1.04846 -0.27481,-1.40529 -0.36132,-1.47117 -0.0863,-0.0657 -0.26378,-0.0777 -0.72595,-0.0489 -0.33645,0.021 -1.11801,0.0696 -1.73679,0.1082 -0.61879,0.0385 -1.17629,0.0975 -1.2389,0.13101 -0.21787,0.1166 -0.3078,0.43913 -0.43663,1.56598 -0.1671,1.4617 -0.17205,1.37458 0.08,1.41027 0.50565,0.0716 3.13206,-0.008 3.84747,-0.11607 z m -4.35128,-0.17908 c 0.0183,-0.1151 0.0652,-0.58598 0.1041,-1.04638 0.10067,-1.18974 0.16683,-1.48187 0.39428,-1.74091 0.23847,-0.27161 0.5082,-0.35032 1.2128,-0.35397 0.30103,-0.001 0.98863,-0.0423 1.528,-0.0905 0.58598,-0.0524 1.07581,-0.0662 1.21708,-0.0343 0.42002,0.0947 0.4666,0.19289 0.66853,1.40848 0.10112,0.6088 0.20361,1.26495 0.22774,1.45809 0.0294,0.23513 0.0734,0.35118 0.13305,0.35118 0.11066,0 0.11729,0.10258 -0.068,-1.05041 -0.28736,-1.78809 -0.28696,-1.94979 0.006,-2.29767 0.12352,-0.14679 0.32271,-0.24206 0.87995,-0.42085 0.74092,-0.23774 1.27618,-0.43846 1.78276,-0.66853 0.36866,-0.16743 0.70898,-0.1709 0.91438,-0.009 0.0885,0.0696 0.41046,0.62903 0.72564,1.26082 0.48933,0.98083 0.57907,1.12326 0.65799,1.04433 0.0789,-0.0789 0.035,-0.196 -0.32211,-0.85837 -0.56044,-1.03951 -0.719,-1.42538 -0.71967,-1.75146 -4.9e-4,-0.26961 0.0177,-0.29337 0.7692,-1.00226 0.4582,-0.43221 0.74099,-0.74387 0.69868,-0.77002 -0.0404,-0.025 -0.27531,0.16672 -0.54439,0.44424 -1.01618,1.0481 -2.13398,1.54233 -2.57975,1.14064 -0.15887,-0.14315 -0.88783,-2.03056 -0.88783,-2.29875 0,-0.24406 -0.0111,-0.23294 0.69314,-0.69025 0.44341,-0.28789 0.60087,-0.48769 0.45648,-0.57919 -0.13129,-0.0832 -0.24812,-0.0682 -0.24812,0.0319 0,0.14523 -0.48006,0.53557 -0.94818,0.77097 -1.02391,0.51489 -2.20833,0.76809 -3.59151,0.76776 -1.55203,-4.9e-4 -2.41861,-0.26917 -2.71272,-0.84143 -0.1344,-0.26151 -0.13919,-0.26419 -0.25114,-0.14048 -0.11063,0.12224 -0.10372,0.13712 0.22537,0.48508 0.31983,0.33817 0.33767,0.37457 0.30799,0.62818 -0.0173,0.14805 -0.21278,0.83279 -0.43433,1.52162 -0.44763,1.39173 -0.58215,1.61359 -0.97768,1.61243 -0.2845,-7e-4 -0.81536,-0.25392 -1.13124,-0.5393 -0.22888,-0.20678 -0.33865,-0.23874 -0.33865,-0.0986 0,0.095 0.77279,0.56212 1.26735,0.76606 0.27689,0.11419 0.58246,0.28187 0.67904,0.37263 0.30999,0.2913 0.32561,0.45147 0.18111,1.85687 -0.0722,0.70248 -0.13133,1.34331 -0.13133,1.42407 0,0.22282 0.1184,0.17551 0.15622,-0.0624 z m 0.65406,-3.35933 c -0.13872,-0.0517 -0.32706,-0.16883 -0.41853,-0.26031 -0.22054,-0.22054 -0.20709,-0.51617 0.0616,-1.35359 0.5393,-1.6809 0.71322,-1.96509 1.20258,-1.96509 0.29136,0 1.41399,0.11068 1.6756,0.1652 0.19722,0.0411 0.3317,0.2682 0.40257,0.67982 0.36708,2.13211 0.36938,2.18338 0.10916,2.42785 -0.30736,0.28875 -0.59656,0.35217 -1.71829,0.37679 -0.8191,0.018 -1.12025,10e-4 -1.31469,-0.0707 z m 2.41235,-0.35838 c 0.40911,-0.11497 0.47773,-0.20346 0.46134,-0.59502 -0.0166,-0.39559 -0.29547,-2.02745 -0.35705,-2.08904 -0.0561,-0.0561 -0.55832,-0.13047 -1.24243,-0.18399 -0.68029,-0.0532 -0.71377,-0.0341 -0.92347,0.52633 -0.2236,0.5976 -0.58148,1.82169 -0.58148,1.98884 0,0.19747 0.21872,0.34405 0.6238,0.41803 0.3714,0.0678 1.69838,0.025 2.01929,-0.0651 z m 1.39379,0.0843 c -0.27829,-0.0464 -0.39679,-0.3188 -0.54882,-1.26145 -0.24619,-1.5266 -0.24704,-1.559 -0.0456,-1.7457 0.10841,-0.10046 0.31389,-0.1897 0.53957,-0.23433 0.20047,-0.0396 0.66382,-0.14258 1.02967,-0.22874 0.84754,-0.19962 1.07407,-0.20185 1.19429,-0.0117 0.0504,0.0797 0.25619,0.59175 0.45732,1.13793 0.40531,1.10065 0.41794,1.27607 0.11289,1.56833 -0.40292,0.38602 -2.13509,0.87655 -2.73932,0.77574 z m 1.1248,-0.44118 c 0.20043,-0.0491 0.57713,-0.17033 0.83711,-0.26949 0.40516,-0.15454 0.48915,-0.21393 0.58795,-0.41567 0.11151,-0.2277 0.11118,-0.24657 -0.0101,-0.57915 -0.37597,-1.03081 -0.541,-1.44611 -0.60557,-1.52392 -0.0869,-0.10468 -0.26317,-0.0853 -1.30257,0.14323 -0.60894,0.13389 -0.80221,0.20312 -0.91188,0.32668 -0.15643,0.17623 -0.1555,0.20701 0.0428,1.43956 0.17389,1.08027 0.27431,1.14506 1.36221,0.87876 z m -6.04153,4.01019 c 0.0198,-0.1151 0.0867,-0.75248 0.14871,-1.4164 0.11165,-1.19571 0.11151,-1.20876 -0.0159,-1.37947 -0.1428,-0.19126 -0.11837,-0.17605 -0.81667,-0.50852 -0.2757,-0.13127 -0.62743,-0.33499 -0.78162,-0.45273 l -0.28034,-0.21405 -0.10172,0.40492 c -0.16141,0.6426 -0.29071,1.53505 -0.3387,2.33785 -0.036,0.60206 -0.0273,0.75262 0.0459,0.7992 0.27054,0.1719 1.69618,0.62476 1.99883,0.63493 0.0698,0.002 0.11768,-0.0671 0.1415,-0.20573 z m 7.29929,-0.34261 c 0.84198,-0.25462 2.23379,-0.89492 2.83986,-1.3065 l 0.39261,-0.26661 -0.22844,-0.40244 c -0.12564,-0.22134 -0.37352,-0.6922 -0.55083,-1.04637 -0.17733,-0.35415 -0.36721,-0.69463 -0.42197,-0.75661 -0.1413,-0.15992 -0.32159,-0.14112 -0.86168,0.0898 -0.26047,0.11139 -0.86406,0.33013 -1.3413,0.4861 -0.47725,0.15597 -0.91858,0.3296 -0.98073,0.38585 -0.22662,0.20509 -0.21925,0.51376 0.0563,2.35444 0.0877,0.5858 0.12147,0.69222 0.21972,0.69222 0.0639,0 0.45828,-0.10347 0.87648,-0.22992 z m 7.65988,-0.97625 c 0.0567,-0.22594 -0.0103,-0.31731 -0.26292,-0.35831 -0.40886,-0.0663 -1.36346,0.14408 -1.47543,0.32524 -0.021,0.034 0.0986,0.13705 0.26581,0.22906 0.16719,0.092 0.44859,0.26591 0.62533,0.38643 l 0.32135,0.21914 0.24464,-0.32789 c 0.13454,-0.18033 0.2611,-0.39348 0.28122,-0.47367 z m 0.77168,-0.48824 c 0.22895,-0.43355 -0.042,-0.8186 -0.6391,-0.90813 -0.37477,-0.0562 -0.48654,-0.003 -0.86552,0.41318 l -0.32262,0.35417 0.52304,-0.022 c 0.46398,-0.0195 0.54382,-0.006 0.7072,0.12294 0.16302,0.12829 0.18026,0.17524 0.15002,0.40836 l -0.0342,0.26341 0.19274,-0.22538 c 0.106,-0.12395 0.2358,-0.3069 0.28842,-0.40655 z m 0.71056,-1.36425 c 0.16141,-0.47779 0.1734,-0.5868 0.16527,-1.50362 -0.01,-1.10495 0.0522,-1.37319 0.38136,-1.65015 0.30512,-0.25675 0.62318,-0.32252 1.14376,-0.23655 0.24677,0.0408 0.64332,0.0741 0.88121,0.0741 h 0.43254 l -0.39321,-0.19649 c -0.75564,-0.3776 -1.23718,-1.09517 -1.23718,-1.84357 0,-0.39254 0.1636,-0.37782 0.22327,0.0201 0.12086,0.80603 0.67533,1.42059 1.59599,1.76901 l 0.37044,0.14019 0.42331,-0.13896 c 1.46867,-0.48213 2.47004,-1.95884 2.47241,-3.64602 0.003,-1.93645 -1.04403,-3.23982 -2.97338,-3.70235 -0.60938,-0.14609 -0.8946,-0.16163 -1.00166,-0.0546 -0.0563,0.0563 -0.13954,0.0157 -0.34195,-0.16724 -1.0553,-0.9534 -2.3995,-0.29889 -2.70329,1.31626 -0.0433,0.23021 -0.10498,0.44729 -0.13709,0.48241 -0.0983,0.10757 -0.18734,-0.10626 -0.16726,-0.40192 0.0102,-0.15051 -10e-4,-0.27367 -0.0252,-0.27367 -0.0961,0 -0.5818,0.63697 -0.79695,1.04516 -0.57437,1.08976 -0.53529,2.36379 0.16352,5.32973 0.33404,1.41777 0.39701,1.79977 0.39318,2.38552 -0.004,0.5549 -0.0524,0.72239 -0.32653,1.12079 l -0.19054,0.27693 0.30348,0.0293 c 0.40086,0.0387 0.78195,0.22596 0.90842,0.4463 l 0.10218,0.17804 0.0799,-0.14178 c 0.044,-0.078 0.15823,-0.37359 0.25395,-0.65692 z m 1.14837,-6.78729 c -0.32812,-0.0832 -0.5749,-0.24156 -0.86213,-0.55317 -0.35238,-0.38228 -0.57567,-0.8895 -0.66679,-1.51462 -0.24466,-1.67864 1.08083,-2.92934 2.26305,-2.13535 0.38929,0.26145 0.75714,0.78848 0.91647,1.31306 0.17267,0.56846 0.14531,1.45792 -0.0592,1.92467 -0.31457,0.71797 -0.97863,1.12082 -1.5914,0.96541 z m 0.90298,-0.48586 c 0.14297,-0.10904 0.30767,-0.32811 0.40876,-0.54368 0.14753,-0.31463 0.16929,-0.44404 0.16929,-1.00649 0,-0.59959 -0.015,-0.67599 -0.21164,-1.0752 -0.58812,-1.19418 -1.72346,-1.39984 -2.29498,-0.41571 -0.56485,0.97265 -0.23433,2.50429 0.66517,3.08246 0.25754,0.16554 0.34335,0.18709 0.65999,0.16577 0.27632,-0.0186 0.42163,-0.0685 0.60341,-0.20715 z m -1.07505,-0.48853 c -0.16365,-0.0955 -0.36145,-0.45426 -0.38576,-0.69971 -0.019,-0.19174 -0.002,-0.22065 0.13279,-0.23141 0.15686,-0.0125 0.32845,-0.18484 0.32845,-0.3299 0,-0.0438 -0.0482,-0.12784 -0.10703,-0.18671 -0.0905,-0.0905 -0.093,-0.11593 -0.0161,-0.16459 0.45314,-0.28685 1.08367,0.52568 0.89874,1.15814 -0.12856,0.43963 -0.51898,0.64797 -0.8511,0.45418 z m 4.46388,-0.34149 c -0.25749,-0.27409 -0.31358,-0.75897 -0.0974,-0.84192 0.30723,-0.1179 0.70498,0.67151 0.46118,0.91531 -0.11374,0.11374 -0.20536,0.0952 -0.36379,-0.0734 z m -10.173,8.34464 c 0.48977,-0.50517 1.08393,-1.26357 1.08393,-1.38356 0,-0.22844 -0.56282,-1.1144 -1.05169,-1.65552 l -0.2241,-0.24806 -0.72174,0.70515 c -0.63923,0.62453 -0.71776,0.72505 -0.68692,0.87922 0.0461,0.23056 1.0002,2.20182 1.06568,2.20182 0.028,0 0.26873,-0.22457 0.53484,-0.49905 z m -11.7414,-1.10251 c 0.10164,-0.0645 0.97705,-2.58879 0.97705,-2.81742 0,-0.0998 -0.1112,-0.27732 -0.30035,-0.47953 l -0.30036,-0.32111 -0.18859,0.17898 c -0.61473,0.58342 -1.72471,2.47408 -1.62918,2.77505 0.0432,0.13615 0.50221,0.48407 0.82176,0.6229 0.24034,0.10442 0.49337,0.12121 0.61967,0.0411 z m 9.33073,-1.27206 c 0.41757,-0.22842 1.14635,-0.78834 1.49842,-1.15124 l 0.28977,-0.29867 -0.19318,-0.16137 c -0.52405,-0.43775 -1.1587,-0.89036 -1.60554,-1.14501 l -0.4955,-0.28237 -0.24717,0.26774 c -0.13595,0.14726 -0.409,0.36916 -0.60678,0.49312 -0.24574,0.15401 -0.35986,0.2673 -0.36042,0.3578 -10e-4,0.17903 0.75093,2.03519 0.8523,2.10362 0.12695,0.0857 0.53263,-1.1e-4 0.8681,-0.18362 z m -3.78178,-2.11721 c 1.24268,-0.27758 2.38253,-0.84793 2.38253,-1.19216 0,-0.1305 -0.84702,-0.40642 -1.70539,-0.55553 -0.85172,-0.14796 -2.24501,-0.0916 -3.06443,0.12392 -1.1579,0.30455 -1.92703,0.70767 -1.92703,1.00999 0,0.24746 0.46565,0.52439 1.13147,0.6729 0.59277,0.13221 2.48352,0.0971 3.18285,-0.0591 z"
         id="path30"
         sodipodi:nodetypes="csscsssssssssssssssscssssssssssssssscssssssscssssscsssssccscsssssssssscssssscsscsccsccsscsssssscsscccssccsssscssssssscsssscsssssscsscsssssssssssssssssssssssscsssssssssssssssssscssssssssssssscssssssssscssssscsssssssscssssssscssssssssssssssssssssssssssssssscssscsssscsssssssssssssscssssscssscssssssscsssscsssscsssssssscsscsssssssssssssssssssssscsssssssssscssssssscsssssscsscsscsssssssss" />
      <ellipse
         style="fill:none;stroke:#ff00ff;stroke-width:0.1;stroke-dasharray:none;stroke-opacity:1"
         id="path1138-9-4-0-0-1-2-0-0-1-8-3-7"
         cx="617.55975"
         cy="-204.2915"
         rx="18.492125"
         ry="18.492126" />
    </g>
  </g>
</svg>
