<?xml version="1.0" encoding="UTF-8" standalone="no"?>
<!-- Created with Inkscape (http://www.inkscape.org/) -->

<svg
   width="41.008999mm"
   height="41.008999mm"
   viewBox="0 0 41.008999 41.009"
   version="1.1"
   id="svg1"
   inkscape:version="1.4.2 (f4327f4, 2025-05-13)"
   sodipodi:docname="264.svg"
   xmlns:inkscape="http://www.inkscape.org/namespaces/inkscape"
   xmlns:sodipodi="http://sodipodi.sourceforge.net/DTD/sodipodi-0.dtd"
   xmlns="http://www.w3.org/2000/svg"
   xmlns:svg="http://www.w3.org/2000/svg">
  <sodipodi:namedview
     id="namedview1"
     pagecolor="#ffffff"
     bordercolor="#000000"
     borderopacity="0.25"
     inkscape:showpageshadow="2"
     inkscape:pageopacity="0.0"
     inkscape:pagecheckerboard="0"
     inkscape:deskcolor="#d1d1d1"
     inkscape:document-units="mm"
     inkscape:zoom="2.8970539"
     inkscape:cx="84.223494"
     inkscape:cy="68.000116"
     inkscape:window-width="1168"
     inkscape:window-height="1081"
     inkscape:window-x="3737"
     inkscape:window-y="0"
     inkscape:window-maximized="0"
     inkscape:current-layer="layer1" />
  <defs
     id="defs1" />
  <g
     inkscape:label="Layer 1"
     inkscape:groupmode="layer"
     id="layer1"
     transform="translate(-114.0891,-77.774176)">
    <g
       id="g20"
       transform="translate(-609.44046,302.69449)">
      <path
         style="fill:#000000;stroke-width:0.1;stroke-dasharray:none"
         d="m 737.67848,-191.1389 c -0.35423,-0.17567 -0.56713,-0.24445 -0.73611,-0.23783 -0.17542,0.007 -0.29539,-0.0347 -0.45767,-0.15844 -0.12096,-0.0923 -0.33518,-0.19365 -0.47604,-0.22529 -0.15922,-0.0358 -0.35391,-0.1477 -0.51465,-0.29587 -0.1422,-0.13108 -0.38376,-0.29718 -0.5368,-0.36911 -0.36195,-0.17014 -0.73953,-0.60322 -0.84988,-0.9748 -0.0565,-0.19037 -0.16197,-0.35933 -0.29972,-0.48028 -0.29334,-0.25755 -0.42919,-0.63676 -0.38422,-1.07247 0.0237,-0.22951 0.009,-0.3957 -0.0452,-0.501 -0.0444,-0.0867 -0.10069,-0.30803 -0.12518,-0.49192 -0.0245,-0.18389 -0.0684,-0.37974 -0.0975,-0.43523 -0.0333,-0.0634 -0.0216,-0.17634 0.0315,-0.30395 0.0465,-0.11169 0.10327,-0.51765 0.12617,-0.90215 0.0477,-0.80037 0.10706,-1.08551 0.26734,-1.28344 l 0.11332,-0.13995 -0.3054,-0.27459 c -0.39482,-0.35498 -0.6883,-0.95028 -0.74593,-1.51304 -0.0304,-0.29691 -0.0786,-0.44679 -0.1794,-0.55794 -0.16276,-0.17944 -0.23502,-0.39679 -0.36382,-1.09422 -0.0641,-0.34683 -0.19489,-0.72735 -0.39798,-1.1574 -0.23888,-0.50584 -0.30256,-0.70555 -0.30256,-0.94895 0,-0.34689 -0.11834,-0.5599 -0.61089,-1.09954 -1.2194,-1.33598 -2.06195,-3.69257 -1.64662,-4.60559 0.18716,-0.41145 0.2095,-0.41857 1.18081,-0.37597 1.00488,0.044 2.12706,0.22228 2.96258,0.47048 3.2092,0.95339 7.17413,3.92845 10.01812,7.51706 0.32357,0.40827 0.59821,0.71365 0.61032,0.67861 0.0121,-0.035 -0.0631,-0.15154 -0.16717,-0.25889 -0.22938,-0.23667 -0.23557,-0.33774 -0.0352,-0.57581 l 0.15395,-0.18297 -0.24824,-0.62716 c -0.5568,-1.4067 -1.4747,-2.86697 -2.36656,-3.76491 -0.48488,-0.48819 -0.64077,-0.60669 -0.94536,-0.71868 -0.40454,-0.14873 -0.63829,-0.33208 -0.63829,-0.50064 0,-0.14595 0.0895,-0.13932 0.45592,0.0338 1.18173,0.55825 2.82395,2.74703 3.76823,5.02236 0.1997,0.48118 0.21887,0.5029 0.38866,0.44009 0.1,-0.037 0.22661,-0.26201 0.48849,-0.86811 0.66302,-1.53446 1.12739,-2.41906 1.68004,-3.20037 0.38216,-0.54028 1.12661,-1.30771 1.52519,-1.57227 0.4658,-0.30918 0.50798,-0.31738 0.50798,-0.0987 0,0.20057 -0.0974,0.28654 -0.62559,0.55233 -0.54057,0.27199 -1.26233,1.19641 -2.06892,2.64977 -0.37527,0.6762 -0.89355,1.83891 -1.03361,2.3188 l -0.0913,0.31274 0.17719,0.16976 c 0.22342,0.21405 0.22241,0.31655 -0.006,0.60392 -0.10074,0.12675 -0.16682,0.24678 -0.14687,0.26671 0.0514,0.0513 0.27896,-0.23713 0.72022,-0.91298 1.08728,-1.66532 3.19254,-3.95127 4.92976,-5.35286 1.98049,-1.59786 4.05326,-2.66442 5.98694,-3.08062 0.68163,-0.14671 1.80201,-0.27073 2.18843,-0.24224 0.25079,0.0185 0.28367,0.0404 0.39513,0.26333 0.17836,0.35671 0.16862,1.39739 -0.0193,2.06685 -0.17968,0.63999 -0.73751,1.76202 -1.34488,2.70514 -0.45685,0.70939 -0.48939,0.7816 -0.48962,1.08683 -1.8e-4,0.24688 -0.0611,0.46947 -0.24883,0.90876 -0.21074,0.49325 -0.26153,0.69792 -0.33373,1.34476 -0.0468,0.41963 -0.0854,0.76885 -0.0858,0.77604 -3e-4,0.007 -0.0788,0.10294 -0.17436,0.21277 -0.15508,0.17823 -0.17724,0.25723 -0.20627,0.73535 -0.0265,0.43702 -0.0678,0.60737 -0.22413,0.92488 -0.10538,0.21407 -0.28753,0.46828 -0.40478,0.56492 l -0.21317,0.17572 0.12819,0.21727 c 0.0897,0.15208 0.1455,0.39637 0.18587,0.81428 0.0374,0.38741 0.11431,0.74106 0.21895,1.00729 0.143,0.3638 0.15329,0.43689 0.0908,0.64534 -0.0387,0.12929 -0.0704,0.38758 -0.0704,0.57397 0,0.1864 -0.0252,0.35449 -0.0561,0.37355 -0.0312,0.0193 -0.0408,0.23587 -0.0217,0.48878 0.0403,0.53302 -0.0742,0.91596 -0.34109,1.14052 -0.12237,0.10298 -0.18625,0.23656 -0.23921,0.50028 -0.0863,0.42966 -0.42415,0.87465 -0.74508,0.98132 -0.11333,0.0376 -0.31698,0.19455 -0.45256,0.34862 -0.17436,0.19815 -0.32848,0.30481 -0.52659,0.36443 -0.15405,0.0464 -0.37178,0.15316 -0.48384,0.23734 -0.11206,0.0842 -0.34471,0.18258 -0.51698,0.21867 -0.17228,0.0361 -0.45951,0.1544 -0.6383,0.26291 -0.28323,0.17191 -0.39937,0.20274 -0.90256,0.23961 -0.31763,0.0233 -0.78697,0.0622 -1.04299,0.0865 -0.43299,0.0412 -0.4855,0.033 -0.75233,-0.11611 -0.15776,-0.0882 -0.31759,-0.16048 -0.35517,-0.16067 -0.45304,-0.002 -0.97539,-0.43241 -1.51283,-1.24584 -0.46274,-0.70037 -1.40292,-2.58924 -1.81913,-3.65473 l -0.32297,-0.82679 -0.0368,1.14654 c -0.0367,1.14355 -0.0665,1.33617 -0.26653,1.72292 l -0.10577,0.20454 -0.11443,-0.14731 c -0.2488,-0.32025 -0.41545,-1.27456 -0.41762,-2.39145 -6e-4,-0.29812 -0.0191,-0.52401 -0.0411,-0.50197 -0.022,0.022 -0.16878,0.41641 -0.3261,0.87639 -0.61579,1.80051 -1.23664,3.16421 -1.93752,4.25579 -0.35459,0.55224 -0.53554,0.71295 -0.87434,0.77651 -0.12409,0.0233 -0.35525,0.12821 -0.5137,0.23318 -0.30197,0.20006 -0.42814,0.21678 -1.23225,0.16331 -0.18388,-0.0122 -0.47112,-0.002 -0.63829,0.0222 -0.27796,0.0406 -0.34656,0.0233 -0.80231,-0.20276 z m 1.98771,-0.28562 c 0,-0.10191 -0.27859,-0.11316 -0.34004,-0.0138 -0.0658,0.10645 0.15791,0.24863 0.25907,0.16468 0.0445,-0.037 0.081,-0.10489 0.081,-0.15095 z m 0.92705,-0.0823 c 0.0251,-6.9e-4 0.0456,-0.0288 0.0456,-0.0622 0,-0.0667 -0.29821,-0.0825 -0.45095,-0.0239 -0.0529,0.0203 -0.0962,0.0721 -0.0962,0.11518 0,0.0593 0.0552,0.0654 0.22797,0.0253 0.12538,-0.0291 0.24847,-0.0536 0.27355,-0.0544 z m -1.77811,-0.0622 c 0,-0.10132 -0.0405,-0.12158 -0.24315,-0.12158 -0.13374,0 -0.24316,0.0219 -0.24316,0.0487 0,0.10096 0.15204,0.19452 0.3161,0.19452 0.12969,0 0.17021,-0.029 0.17021,-0.12158 z m 11.08916,-0.0369 c 0.19826,-0.0761 0.0678,-0.26705 -0.18236,-0.26705 -0.0873,0 -0.12012,0.18899 -0.0457,0.26342 0.0502,0.0502 0.10444,0.0511 0.22805,0.003 z m -12.24416,-0.0803 c 0,-0.11984 -0.19963,-0.24742 -0.38428,-0.24559 l -0.19322,0.002 0.17056,0.15005 c 0.1685,0.14824 0.40694,0.20309 0.40694,0.0936 z m 11.61084,-0.0666 c 0,-0.0776 -0.26254,-0.18086 -0.45988,-0.18086 -0.20125,0 -0.18769,0.11051 0.0192,0.15613 0.0919,0.0203 0.19453,0.046 0.22796,0.0571 0.12437,0.0415 0.21277,0.028 0.21277,-0.0324 z m -9.27541,-0.0354 c 0.12581,-0.0483 0.12423,-0.32088 -0.002,-0.36937 -0.14247,-0.0547 -0.41385,0.0569 -0.43753,0.17986 -0.0278,0.14425 0.24794,0.26309 0.43968,0.18951 z m 10.85994,-0.0868 c 0.17778,-0.0951 0.14761,-0.24118 -0.0496,-0.24009 -0.22208,10e-4 -0.34546,0.086 -0.29951,0.20571 0.0429,0.11181 0.17932,0.12525 0.3491,0.0344 z m -11.67563,-0.16963 c 0,-0.0276 -0.0653,-0.11151 -0.14504,-0.18645 -0.10869,-0.10212 -0.20272,-0.13143 -0.37523,-0.11698 -0.29675,0.0248 -0.32721,0.12791 -0.0746,0.25241 0.21014,0.10357 0.59488,0.13657 0.59488,0.0511 z m -2.64774,-0.0659 c 0.10826,-0.17517 -0.19501,-0.41472 -0.39174,-0.30943 -0.1652,0.0884 -0.15281,0.16154 0.0456,0.26917 0.19463,0.1056 0.29831,0.11765 0.34614,0.0403 z m 4.87156,-0.19894 c 0.36346,-0.33503 0.71091,-1.05806 0.93462,-1.94493 0.22119,-0.87689 0.37217,-2.29266 0.2252,-2.11184 -0.10254,0.12618 -1.55973,2.66433 -1.69288,2.94868 -0.20842,0.44511 -0.32754,0.97167 -0.27087,1.19743 0.0364,0.14499 0.0708,0.1649 0.28474,0.1649 0.2012,0 0.29115,-0.044 0.51919,-0.25424 z m 8.16216,0.18751 c 0.2197,-0.0766 0.2478,-0.20277 0.0667,-0.29968 -0.16704,-0.0894 -0.36448,-0.0535 -0.44658,0.0812 -0.0535,0.0878 -0.0433,0.12757 0.051,0.19756 0.14049,0.10432 0.0974,0.10158 0.32885,0.0209 z m 2.42714,-0.0887 c 0.17672,-0.12378 0.1716,-0.20931 -0.0125,-0.20931 -0.14702,0 -0.33869,0.14006 -0.33869,0.2475 0,0.0882 0.20207,0.0663 0.35121,-0.0382 z m -14.06093,-0.0644 c 0.17734,-0.17735 -0.0144,-0.37459 -0.29552,-0.30403 -0.2112,0.053 -0.27416,0.21201 -0.12664,0.31987 0.15007,0.10975 0.30228,0.10403 0.42216,-0.0158 z m 10.63549,-0.0581 c 0.21468,-0.21469 0.0496,-0.8723 -0.40699,-1.6216 -0.14778,-0.24251 -0.58497,-0.88448 -0.97153,-1.42661 -0.38655,-0.54214 -0.71536,-1.02086 -0.73068,-1.06382 -0.0153,-0.0429 -0.0485,-0.0589 -0.0738,-0.0354 -0.0729,0.0677 0.14599,1.24176 0.34333,1.84182 0.29476,0.89627 0.78713,1.84977 1.10782,2.14538 0.30105,0.2775 0.55827,0.33383 0.73182,0.16029 z m 2.18202,-0.20105 c 0.17148,-0.17148 0.0662,-0.28016 -0.21952,-0.22657 -0.19577,0.0367 -0.32313,0.13394 -0.43828,0.33451 -0.0817,0.14225 0.50366,0.0462 0.6578,-0.10794 z m -10.78125,-0.15841 c 0.29208,-0.15104 0.70764,-0.73788 1.55036,-2.18938 0.19411,-0.33434 0.57171,-0.96188 0.83911,-1.39453 0.61255,-0.9911 0.92122,-1.63536 1.07675,-2.24737 0.12832,-0.50493 0.15833,-0.88693 0.0697,-0.88693 -0.0289,0 -0.12874,0.10999 -0.2219,0.24442 -0.0932,0.13443 -0.35099,0.41482 -0.57295,0.62309 -0.40747,0.38235 -0.58742,0.52451 -1.65724,1.30923 -0.52758,0.38699 -0.5968,0.46004 -0.65681,0.69325 -0.1623,0.63069 -0.34753,1.11228 -0.76857,1.99824 -0.50115,1.05451 -0.59001,1.42228 -0.42209,1.74699 0.0872,0.16855 0.13117,0.19324 0.34454,0.19324 0.13454,0 0.32314,-0.0406 0.41912,-0.0902 z m 11.65405,0.053 c 0.28629,-0.0768 0.2081,-0.38831 -0.0975,-0.38831 -0.15487,0 -0.30866,0.0948 -0.30866,0.19018 0,0.0563 0.17761,0.23562 0.2323,0.23452 0.0227,-4.6e-4 0.10091,-0.0169 0.17382,-0.0364 z m 1.53145,-0.1114 c 0.10246,-0.10246 0.0493,-0.27691 -0.0843,-0.27691 -0.11143,0 -0.39428,0.26513 -0.39428,0.36957 0,0.0935 0.36263,0.0233 0.47862,-0.0927 z m -17.51591,-0.0147 c 0.0131,-0.0397 -0.0343,-0.13027 -0.10531,-0.20125 -0.16541,-0.16541 -0.45603,-0.14726 -0.45603,0.0285 0,0.21199 0.49799,0.36525 0.56134,0.17277 z m 1.29274,0.01 c 0,-0.091 -0.22721,-0.21126 -0.39909,-0.21126 -0.10608,0 -0.11418,0.1311 -0.0143,0.231 0.10793,0.10792 0.41337,0.0933 0.41337,-0.0197 z m 13.00703,-0.23927 c 0.1153,-0.13892 0.14686,-0.55311 0.0645,-0.8471 -0.0412,-0.14724 -0.26272,-0.57821 -0.49221,-0.95769 -0.23698,-0.39186 -0.55605,-1.04252 -0.73848,-1.50594 -0.30582,-0.77685 -0.33392,-0.8235 -0.58591,-0.97264 -1.17138,-0.69333 -2.55594,-1.71565 -2.77375,-2.04808 -0.17427,-0.26596 -0.238,-0.0919 -0.12804,0.34959 0.13944,0.55996 0.62492,1.50532 1.16704,2.27255 0.25939,0.36709 0.80979,1.17045 1.22313,1.78525 0.90917,1.35227 1.1218,1.61819 1.47209,1.84098 0.29921,0.19029 0.67029,0.22923 0.79159,0.0831 z m -11.53476,-0.15704 c 0.41757,-0.11597 0.57754,-0.32088 1.10994,-1.42182 0.49861,-1.03109 0.65779,-1.437 0.73462,-1.87334 0.0555,-0.31505 -0.0342,-0.30276 -0.8192,0.11225 -0.9407,0.49732 -1.43719,0.84217 -1.95598,1.35857 -0.51964,0.51723 -0.70593,0.88125 -0.63755,1.24574 0.0901,0.48014 0.87711,0.77053 1.56817,0.5786 z m 14.28748,-0.0992 c 0.11665,-0.0687 0.0344,-0.20203 -0.12462,-0.20203 -0.18405,0 -0.31611,0.096 -0.31611,0.22976 0,0.0627 0.0497,0.0732 0.19757,0.0415 0.10866,-0.0233 0.21808,-0.0544 0.24316,-0.0692 z m -16.64377,-0.0155 c 0.0192,-0.0312 -0.0269,-0.1 -0.10248,-0.15292 -0.15368,-0.10765 -0.22657,-0.0248 -0.10602,0.12041 0.085,0.10242 0.15823,0.11385 0.2085,0.0325 z m 17.96935,-0.11627 c 0.0886,-0.0717 0.12454,-0.14837 0.0998,-0.21277 -0.0836,-0.21793 -0.52876,-0.0389 -0.52876,0.21272 0,0.14925 0.24464,0.14928 0.42893,5e-5 z m -19.39534,-0.21479 c 0,-0.25015 -0.11316,-0.45152 -0.20316,-0.36152 -0.0502,0.0502 -0.0523,0.4033 -0.003,0.53147 0.0203,0.0529 0.075,0.0962 0.12158,0.0962 0.0595,0 0.0847,-0.0792 0.0847,-0.26611 z m 16.98789,0.0163 c 0.27465,-0.0762 0.6157,-0.38756 0.6725,-0.61387 0.10513,-0.4189 -0.38082,-1.12312 -1.12236,-1.62647 -0.50479,-0.34264 -2.19842,-1.15728 -2.40599,-1.15728 -0.21277,0 0.53312,1.70679 1.14171,2.61256 0.5141,0.76512 0.99412,0.98496 1.71414,0.78506 z m -16.37999,-0.29061 c 0,-0.0869 -0.22907,-0.34469 -0.27002,-0.30392 -0.0649,0.0646 0.0805,0.35797 0.17733,0.35797 0.051,0 0.0927,-0.0243 0.0927,-0.054 z m 18.11535,-0.0657 c 0,-0.0785 -0.0297,-0.10826 -0.0865,-0.0865 -0.14379,0.0552 -0.1681,0.20615 -0.0332,0.20615 0.0785,0 0.11967,-0.0412 0.11967,-0.11967 z m 1.41034,-0.21713 c 0.0469,-0.10303 0.0516,-0.20758 0.0139,-0.31417 -0.0874,-0.24726 -0.18786,-0.23163 -0.23064,0.0359 -0.0641,0.40106 0.0778,0.58327 0.21675,0.27828 z m -18.29204,-0.14072 c 0.0934,-0.0616 0.408,-0.35825 0.69908,-0.65923 0.35168,-0.36363 0.70076,-0.65164 1.04042,-0.8584 0.28115,-0.17114 0.54102,-0.32193 0.57751,-0.33509 0.34735,-0.12525 -1.01291,-0.0352 -1.62997,0.10787 -1.18565,0.27497 -1.77028,0.75677 -1.61234,1.32877 0.0727,0.26313 0.37099,0.52901 0.59296,0.52846 0.0894,-2.3e-4 0.23894,-0.0508 0.33234,-0.11238 z m 17.68314,-0.28261 c 0.0953,-0.20913 0.004,-0.27475 -0.13799,-0.0994 -0.14036,0.17314 -0.1478,0.25162 -0.0239,0.25162 0.0509,0 0.1237,-0.0685 0.16185,-0.15223 z m -19.98061,-0.24373 c 0,-0.23144 -0.15676,-0.24458 -0.2173,-0.0182 -0.0492,0.18379 -0.0149,0.24446 0.12315,0.21788 0.0599,-0.0116 0.0942,-0.0841 0.0942,-0.19967 z m 19.1052,-0.003 c 0.17721,-0.12413 0.31713,-0.40073 0.31713,-0.62692 0,-0.58628 -1.11636,-1.08437 -2.56837,-1.14596 -0.42629,-0.0181 -0.77507,-0.0187 -0.77507,-0.001 0,0.0173 0.19414,0.14687 0.43142,0.28784 0.23728,0.14096 0.7502,0.51319 1.13981,0.82715 0.95667,0.77093 1.16248,0.86416 1.45508,0.65922 z m -18.34533,-0.0449 c 0,-0.0876 -0.11877,-0.22492 -0.19453,-0.22492 -0.0587,0 -0.0651,0.20643 -0.008,0.26342 0.0696,0.0696 0.20263,0.0443 0.20263,-0.0385 z m 8.28686,-0.9544 c 0.6779,-1.46734 0.72047,-1.60691 0.75551,-2.47719 0.0165,-0.40956 0.006,-0.74436 -0.0229,-0.74399 -0.0562,6.9e-4 -0.80567,1.65511 -1.03091,2.27563 -0.17962,0.49485 -0.28899,1.25607 -0.23852,1.66003 0.0226,0.18105 0.0484,0.32004 0.0573,0.30886 0.009,-0.0111 0.2247,-0.47167 0.47957,-1.02334 z m 3.20024,0.45546 c -0.056,-0.61833 -0.18703,-1.12938 -0.42339,-1.65067 -0.28021,-0.61798 -1.05606,-2.02255 -1.11841,-2.02473 -0.0309,-0.001 -0.0389,0.22029 -0.0186,0.50931 0.0391,0.55454 0.23121,1.20581 0.53576,1.81661 0.22286,0.44699 1.03811,1.87749 1.05612,1.85317 0.007,-0.009 -0.007,-0.23596 -0.0315,-0.50369 z m 8.75589,-0.0339 c 0,-0.099 -0.11927,-0.29995 -0.178,-0.29995 -0.075,0 -0.12815,0.16668 -0.0871,0.27355 0.0396,0.10331 0.26514,0.12576 0.26514,0.0264 z m -0.79027,-0.22034 c 0,-0.20259 -0.14611,-0.15011 -0.17117,0.0615 -0.0149,0.12624 0.002,0.15403 0.076,0.12559 0.0523,-0.0201 0.0952,-0.10427 0.0952,-0.18706 z m -20.27491,0.10523 c 0.0469,-0.0759 -0.0975,-0.30642 -0.19187,-0.30642 -0.1051,0 -0.14015,0.0811 -0.10053,0.23261 0.0351,0.13412 0.22543,0.18217 0.2924,0.0738 z m 0.67186,-0.24829 c 0.049,-0.0794 -0.0793,-0.2405 -0.19146,-0.2405 -0.10313,0 -0.10932,0.13247 -0.0108,0.231 0.0897,0.0897 0.15091,0.0926 0.20226,0.01 z m 1.91568,-0.25063 c 0.84618,-0.39383 1.49896,-1.15083 1.61087,-1.86808 l 0.0417,-0.26727 -0.23481,0.0349 c -1.18598,0.17634 -1.92506,0.30438 -2.18008,0.3777 -0.58591,0.16844 -1.12461,0.78873 -1.12461,1.29493 0,0.22528 0.034,0.30171 0.21423,0.48197 l 0.21423,0.21423 0.50005,-0.0275 c 0.40834,-0.0225 0.58411,-0.0667 0.95842,-0.24086 z m 18.46548,-0.1844 c 0.0768,-0.0768 0.10197,-0.35258 0.0321,-0.35258 -0.0888,0 -0.26314,0.20759 -0.26314,0.31337 0,0.12733 0.12215,0.14806 0.231,0.0392 z m -20.65636,-0.2882 c 0,-0.22974 -0.0772,-0.27498 -0.21303,-0.12487 -0.0881,0.0973 -0.0937,0.13581 -0.0311,0.21133 0.12638,0.15228 0.24411,0.11058 0.24411,-0.0865 z m 4.28254,0.0134 c 1.07468,-0.24628 3.49351,-1.7554 4.01043,-2.50214 0.20736,-0.29953 0.41441,-0.86636 0.34296,-0.93888 -0.0272,-0.0276 -0.35599,0.0754 -0.73066,0.22882 -0.9711,0.39773 -1.1131,0.42119 -1.88093,0.31073 -0.76982,-0.11074 -1.02543,-0.0683 -1.32599,0.22019 -0.26296,0.25239 -0.4373,0.59113 -0.77043,1.49691 -0.29444,0.80059 -0.41207,1.0495 -0.55008,1.16404 -0.0524,0.0434 -0.0952,0.10249 -0.0952,0.13119 0,0.0654 0.44733,0.0158 0.9999,-0.11086 z m 15.2381,-0.0659 c 0.305,-0.34136 0.20326,-0.8349 -0.26959,-1.30775 -0.39239,-0.39238 -0.65843,-0.4732 -1.86252,-0.56582 -0.58656,-0.0451 -1.13487,-0.0892 -1.21845,-0.098 -0.12938,-0.0136 -0.14953,0.007 -0.13556,0.13602 0.009,0.0836 0.0895,0.30242 0.17882,0.48631 0.43293,0.89127 1.66948,1.60266 2.7146,1.56171 0.38419,-0.0151 0.43141,-0.032 0.5927,-0.21248 z m -20.23404,0.13418 c 0.058,-0.058 -0.0213,-0.20682 -0.11018,-0.20682 -0.10183,0 -0.16827,0.1021 -0.11866,0.18237 0.0415,0.0672 0.17215,0.0811 0.22884,0.0244 z m 20.70339,-0.14001 c 0.0162,-0.11411 -9e-4,-0.13648 -0.081,-0.10576 -0.0558,0.0214 -0.11295,0.0389 -0.12693,0.0389 -0.014,0 -0.0254,0.0567 -0.0254,0.12604 0,0.17904 0.20693,0.12651 0.23331,-0.0592 z m -3.30981,-0.32517 c -0.0243,-0.0418 -0.11853,-0.17173 -0.20939,-0.28875 -0.0909,-0.11702 -0.35653,-0.60974 -0.59038,-1.09493 -0.65546,-1.35996 -0.93097,-1.55139 -1.96854,-1.3679 -0.81594,0.1443 -1.08082,0.12196 -1.94806,-0.16425 -0.91309,-0.30136 -0.9843,-0.28576 -0.80764,0.17683 0.20221,0.52946 0.82302,1.0457 2.1264,1.76821 0.80715,0.44744 1.54401,0.76805 2.12305,0.92375 0.50619,0.13611 1.34434,0.16705 1.27456,0.0471 z m -17.36936,-0.14065 c 0.0201,-0.0523 0.003,-0.16795 -0.0373,-0.25703 -0.0672,-0.14756 -0.0793,-0.15223 -0.13506,-0.0525 -0.0698,0.12468 -0.0183,0.40461 0.0744,0.40461 0.0338,0 0.0779,-0.0428 0.098,-0.0951 z m 20.87288,0.002 c 0.059,-0.0711 0.0611,-0.12833 0.009,-0.24316 -0.10244,-0.22482 -0.19261,-0.18129 -0.19261,0.093 0,0.25702 0.0567,0.30335 0.18386,0.15018 z m -20.18577,-0.0565 c 0.0766,-0.0923 0.0362,-0.43016 -0.0585,-0.48867 -0.14663,-0.0906 -0.33413,0.40557 -0.20285,0.53684 0.0672,0.0672 0.18333,0.0458 0.26135,-0.0482 z m 20.8791,-0.0868 c 0.0183,-0.0297 -0.007,-0.0877 -0.0572,-0.12902 -0.0498,-0.0413 -0.0905,-0.0603 -0.0905,-0.0423 0,0.0181 -0.0166,0.0761 -0.0369,0.12902 -0.0395,0.10298 0.12396,0.1404 0.18461,0.0422 z m -0.66665,-0.60779 c 0.0443,-0.13956 -0.0799,-0.43252 -0.18341,-0.43252 -0.12544,0 -0.21156,0.40322 -0.10819,0.50658 0.0817,0.0817 0.25623,0.0374 0.2916,-0.0741 z m 0.61225,0.0504 c 0.0633,-0.10248 -0.0261,-0.36128 -0.12487,-0.36128 -0.0624,0 -0.09,0.0654 -0.09,0.21276 0,0.21058 0.1237,0.29607 0.2149,0.14852 z m -21.20014,-0.23324 c 0.29858,-0.15238 0.44106,-0.31819 0.45624,-0.53093 0.01,-0.1405 -0.0149,-0.17838 -0.12784,-0.19444 -0.28591,-0.0407 -0.49121,0.18746 -0.57862,0.64292 -0.0444,0.23152 -0.0429,0.23204 0.25022,0.0824 z m 3.55829,-0.22345 c 0.56412,-0.0931 0.79846,-0.18333 0.95936,-0.36949 0.10835,-0.12535 0.54828,-0.94592 0.5215,-0.9727 -0.009,-0.009 -0.33929,-0.0506 -0.73316,-0.0917 -1.26129,-0.13147 -2.31536,0.0864 -2.81027,0.58086 -0.29472,0.29446 -0.40078,0.65846 -0.239,0.8203 0.18134,0.18142 1.30365,0.19737 2.30157,0.0327 z m 15.5542,-0.4624 c 0.32656,-0.0978 0.39083,-0.23747 0.26317,-0.57175 -0.12436,-0.32562 -0.34809,-0.52055 -0.80586,-0.70215 -0.55413,-0.21982 -2.15358,-0.19592 -3.00439,0.0449 -0.0858,0.0243 -0.0705,0.0755 0.10314,0.34536 0.33809,0.52548 0.51322,0.7069 0.74748,0.77435 0.53788,0.15486 2.30527,0.2265 2.69646,0.10929 z m 1.77884,-0.12608 c -0.0542,-0.25022 -0.23845,-0.51344 -0.39399,-0.56281 -0.15967,-0.0506 -0.34301,0.0123 -0.38965,0.13385 -0.0652,0.16997 0.45528,0.62577 0.71521,0.6263 0.0937,1.8e-4 0.10449,-0.0308 0.0684,-0.19734 z m -13.29247,-0.87105 c 0.52998,-0.10856 0.98527,-0.28924 0.98527,-0.39101 0,-0.0376 -0.0479,-0.0538 -0.10638,-0.0361 -0.40271,0.12201 -0.82633,0.16801 -2.12665,0.23091 -0.81023,0.0392 -1.46349,0.0809 -1.45169,0.0927 0.0118,0.0118 0.19601,0.0593 0.40934,0.10562 0.53851,0.11684 1.71461,0.11572 2.29011,-0.002 z m 7.24941,-0.24531 c 0.31423,-0.054 0.6268,-0.12064 0.6946,-0.14812 0.0689,-0.0279 -0.65397,-0.052 -1.63964,-0.0546 -0.96959,-0.003 -1.83129,-0.0195 -1.91487,-0.0378 -0.15103,-0.0328 -0.15095,-0.0325 0.0134,0.0626 0.47221,0.2732 1.80633,0.35658 2.84651,0.17791 z m -12.16212,-0.53514 c 1.30296,-0.44837 1.70158,-0.47189 3.62995,-0.21421 1.45795,0.19482 2.53228,0.13445 2.99495,-0.16832 l 0.14942,-0.0978 -0.36847,-0.10087 c -0.45079,-0.12339 -0.81504,-0.31069 -1.55249,-0.7983 -0.60292,-0.39866 -1.14593,-0.66904 -1.86329,-0.92781 -0.58723,-0.21183 -1.12588,-0.21361 -1.86451,-0.006 -0.32089,0.0901 -0.93585,0.19162 -1.48892,0.24579 -1.28134,0.1255 -1.59782,0.29409 -1.73056,0.92186 -0.0966,0.45688 0.27167,1.12999 0.72752,1.32972 0.29987,0.13137 0.5468,0.0981 1.3664,-0.18389 z m -2.8146,-0.31684 c 0.10248,-0.15641 0.10112,-0.16297 -0.0628,-0.30396 -0.27519,-0.23671 -0.58627,-0.16386 -0.58627,0.13728 0,0.33334 0.46209,0.45201 0.64905,0.16668 z m 14.58053,-0.20523 c 1.72502,-0.33592 2.19827,-0.3208 3.79762,0.12134 0.55332,0.15297 0.84111,0.11976 1.1254,-0.12985 0.60927,-0.53494 0.60023,-1.45559 -0.0177,-1.80182 -0.27093,-0.1518 -0.95551,-0.25494 -1.69731,-0.25572 -0.2407,-2.3e-4 -0.7331,-0.0579 -1.09421,-0.12809 -0.92548,-0.17989 -1.4315,-0.14391 -1.99395,0.14176 -0.23404,0.11886 -0.75454,0.44735 -1.15666,0.72997 -1.02396,0.71966 -1.13949,0.78637 -1.80684,1.04325 -0.32599,0.12548 -0.5927,0.24964 -0.5927,0.2759 0,0.0518 0.52638,0.2248 0.82066,0.26965 0.429,0.0654 1.44137,-0.0377 2.61569,-0.26639 z m -4.89665,-0.40999 c -0.002,-0.23247 -0.18001,-0.59806 -0.46828,-0.96097 -0.32322,-0.4069 -3.25498,-3.22448 -3.83357,-3.68426 -0.87629,-0.69636 -1.47333,-0.90184 -2.62042,-0.90184 -0.40475,0 -0.7359,0.0234 -0.7359,0.052 0,0.0286 0.0921,0.17272 0.20475,0.3202 0.24217,0.31716 0.55415,0.92025 0.61025,1.17966 0.0323,0.14931 0.1305,0.23849 0.51912,0.47139 0.79272,0.47505 1.04902,0.7095 1.30205,1.19101 0.24871,0.4733 0.30807,0.51825 1.02478,0.77593 0.45337,0.163 1.70377,0.78025 2.57,1.26865 0.53264,0.30031 0.92632,0.44459 1.23099,0.45112 0.17633,0.004 0.19742,-0.0138 0.19623,-0.16294 z m 2.01529,-0.0373 c 0.18822,-0.0774 0.61223,-0.32884 0.94224,-0.5587 0.33,-0.22986 1.13296,-0.69245 1.78434,-1.02799 l 1.18433,-0.61006 0.1639,-0.34268 c 0.2093,-0.43757 0.79981,-1.06935 1.32721,-1.41997 0.36605,-0.24335 0.41901,-0.30373 0.48046,-0.54777 0.10099,-0.4011 0.35103,-0.94026 0.55323,-1.19298 0.0971,-0.12141 0.15971,-0.23768 0.13903,-0.25836 -0.0714,-0.0714 -1.08237,-0.0352 -1.50669,0.0539 -0.99555,0.20902 -1.71762,0.74475 -3.04028,2.25566 -0.46507,0.53126 -1.08935,1.22561 -1.38729,1.543 -0.86446,0.92087 -1.31706,1.64195 -1.31706,2.09833 0,0.12491 0.0292,0.15108 0.16717,0.14989 0.0919,-6.9e-4 0.32118,-0.0648 0.50941,-0.14222 z m 9.52257,0.049 c 0.29913,-0.20951 0.0368,-0.64923 -0.30891,-0.51779 -0.30073,0.11434 -0.34814,0.4443 -0.0794,0.55286 0.18587,0.0751 0.23773,0.0704 0.38835,-0.0351 z m -22.11394,-0.75834 c 0,-0.12384 -0.12283,-0.21043 -0.2421,-0.17068 -0.074,0.0247 0.0952,0.29418 0.18476,0.29418 0.0315,0 0.0573,-0.0556 0.0573,-0.1235 z m 1.14254,-0.0738 c 0.0437,-0.0363 0.0712,-0.13662 0.0611,-0.22307 -0.0263,-0.22632 -0.27823,-0.24231 -0.5265,-0.0334 -0.22664,0.19071 -0.23732,0.25617 -0.0541,0.33157 0.15122,0.0622 0.39677,0.0268 0.51945,-0.0751 z m 2.61753,-0.58934 c 1.29206,-0.28334 1.61015,-0.42235 1.63868,-0.71611 0.0152,-0.15692 -0.0294,-0.24655 -0.23262,-0.467 -0.13831,-0.15005 -0.3916,-0.36274 -0.56288,-0.47265 -0.28973,-0.18592 -0.35393,-0.20138 -0.92239,-0.22221 -0.65492,-0.024 -1.54699,0.0977 -1.97679,0.26968 -0.37854,0.15146 -0.54907,0.39356 -0.54907,0.77955 0,0.524 0.19598,0.93175 0.51672,1.07506 0.20814,0.093 0.92836,0.008 2.08835,-0.24632 z m 18.01112,-0.0608 0.14352,-0.11787 -0.13102,-0.13304 c -0.0856,-0.0869 -0.21201,-0.13562 -0.36474,-0.14048 -0.19518,-0.006 -0.23677,0.014 -0.25223,0.12232 -0.0119,0.0831 0.0403,0.17599 0.14498,0.25836 0.20195,0.15885 0.27701,0.1606 0.45949,0.0107 z m 0.8613,-0.0686 c 0.0412,-0.15746 -0.0472,-0.20184 -0.16577,-0.0833 -0.10198,0.10197 -0.11894,0.16586 -0.0598,0.22505 0.0628,0.0628 0.19352,-0.0195 0.22551,-0.14179 z m -23.12391,-0.39642 c -0.16632,-0.17704 -0.23806,-0.1859 -0.23806,-0.0294 0,0.0645 0.0752,0.17647 0.16717,0.24895 0.14874,0.11726 0.16946,0.1205 0.18787,0.0294 0.0114,-0.0564 -0.0412,-0.16836 -0.11698,-0.24897 z m 1.21812,0.19114 c 0.13071,-0.15749 0.0489,-0.36041 -0.19303,-0.47863 -0.19612,-0.0958 -0.24865,-0.0998 -0.39513,-0.0299 -0.20346,0.0972 -0.25092,0.31695 -0.10361,0.47973 0.12906,0.14261 0.58165,0.16141 0.69177,0.0287 z m 19.97708,-0.0876 c 0.49861,-0.30405 0.5849,-1.33343 0.13947,-1.66389 -0.23542,-0.17465 -0.78091,-0.28627 -1.60329,-0.32806 -1.03939,-0.0529 -1.3138,0.0154 -1.78806,0.4446 -0.39199,0.35473 -0.55235,0.5923 -0.55235,0.81831 0,0.33768 0.36544,0.47908 1.79087,0.69294 1.18836,0.1783 1.76326,0.18861 2.01336,0.0361 z m 1.48013,-0.5822 c 0.25304,-0.13085 0.31331,-0.32289 0.15198,-0.48423 -0.14126,-0.14126 -0.50738,-0.1214 -0.67562,0.0367 -0.15166,0.14248 -0.19114,0.44524 -0.0647,0.49626 0.15062,0.0608 0.41974,0.0385 0.58835,-0.0487 z m 0.76078,-0.10697 c 0.1071,-0.15291 0.1257,-0.3512 0.0329,-0.3512 -0.0607,0 -0.30239,0.35173 -0.30283,0.44072 -4.9e-4,0.0983 0.18033,0.0383 0.26988,-0.0895 z m -22.79706,-0.44673 c 0.14391,-0.14392 0.11536,-0.2552 -0.0763,-0.29729 -0.18539,-0.0407 -0.49688,0.0494 -0.49688,0.14381 0,0.10749 0.19002,0.24901 0.33435,0.24901 0.0788,0 0.18627,-0.043 0.23881,-0.0955 z m -1.06974,-0.13847 c 0.0156,-0.10959 -0.005,-0.13677 -0.0912,-0.12034 -0.0618,0.0118 -0.12027,0.0842 -0.13145,0.1628 -0.0156,0.10959 0.005,0.13677 0.0912,0.12034 0.0618,-0.0118 0.12026,-0.0841 0.13145,-0.1628 z m 3.9616,-0.40531 c 0.31762,-0.10926 0.5734,-0.22211 0.5684,-0.25079 -0.0479,-0.27424 -0.29216,-0.95743 -0.40114,-1.1219 -0.3299,-0.49788 -1.33714,-0.68446 -1.92706,-0.35697 -0.35229,0.19558 -0.50679,0.46351 -0.50679,0.87888 0,0.53702 0.32849,0.92138 0.90425,1.05803 0.33101,0.0786 0.69033,0.0239 1.36234,-0.20725 z m 19.51605,-0.2165 c 0.0943,-0.17618 0.0299,-0.2992 -0.1566,-0.2992 -0.33412,0 -0.51489,0.22694 -0.28667,0.35987 0.17446,0.10161 0.3708,0.0747 0.44327,-0.0607 z m 0.83755,-0.13141 c -0.0245,-0.1721 -0.23219,-0.22647 -0.23219,-0.0608 0,0.13768 0.0501,0.19696 0.16633,0.19696 0.0536,0 0.0781,-0.0506 0.0659,-0.13615 z m -23.30516,-0.10713 c 0.2884,-0.2884 0.0406,-0.85093 -0.37485,-0.85093 -0.38915,0 -0.63054,0.43903 -0.43858,0.7977 0.13669,0.25541 0.58211,0.28456 0.81343,0.0533 z m 20.66137,0.0388 c 0.42109,-0.17594 0.69733,-0.72175 0.6153,-1.21571 -0.1215,-0.73157 -0.63708,-1.00483 -1.51272,-0.80176 -0.76212,0.17676 -0.98374,0.41603 -1.15959,1.25197 -0.0498,0.23696 -0.0906,0.44196 -0.0906,0.45556 0,0.0248 0.34837,0.13092 0.97264,0.29629 0.42853,0.11352 0.92225,0.11926 1.17499,0.0136 z m -21.84986,-0.3374 c 0.1123,-0.0711 0.0401,-0.24837 -0.10117,-0.24837 -0.12968,0 -0.25723,0.11153 -0.25723,0.22492 0,0.0896 0.2302,0.10462 0.3584,0.0235 z m 23.90851,-0.49396 c 0.15466,-0.15467 0.17865,-0.21663 0.14711,-0.37994 -0.0502,-0.26009 -0.24083,-0.4079 -0.52596,-0.4079 -0.28482,0 -0.484,0.21602 -0.484,0.52492 0,0.45342 0.51532,0.61044 0.86285,0.26292 z m -24.63164,-0.0205 c 0,-0.17192 -0.14394,-0.30876 -0.27278,-0.25932 -0.19551,0.075 -0.0625,0.40385 0.16335,0.40385 0.0747,0 0.10943,-0.0459 0.10943,-0.14453 z m 25.44288,-0.28483 c 0.0466,-0.0754 -0.13871,-0.30012 -0.24751,-0.30012 -0.0409,0 -0.11083,0.044 -0.15545,0.0978 -0.0689,0.0831 -0.0637,0.11049 0.0346,0.18237 0.13755,0.10058 0.3127,0.11009 0.36839,0.02 z m -24.68474,-0.0542 c 0.0197,-0.0319 0.0184,-0.12764 -0.003,-0.21276 -0.0277,-0.1105 -0.0794,-0.15477 -0.18064,-0.15477 -0.18337,0 -0.2249,0.0739 -0.15092,0.26845 0.0596,0.1568 0.26187,0.2167 0.33456,0.0991 z m 1.16087,-0.27416 c 0.27157,-0.11347 0.42652,-0.43522 0.32105,-0.66669 -0.10466,-0.22971 -0.39921,-0.3038 -0.87701,-0.22059 -0.57712,0.1005 -0.69437,0.16752 -0.69437,0.39691 0,0.10526 0.0342,0.23647 0.076,0.29157 0.20828,0.27458 0.76672,0.36912 1.17435,0.1988 z m 24.14763,-0.16632 c 0.0889,-0.0889 0.0954,-0.27073 0.0116,-0.32252 -0.16541,-0.10224 -0.38627,0.11906 -0.31884,0.31948 0.0325,0.0966 0.21191,0.0984 0.30723,0.003 z m -26.14096,-0.14326 c 0.16061,-0.1125 0.17238,-0.24974 0.0345,-0.40211 -0.19866,-0.21951 -0.68966,-0.078 -0.68966,0.19876 0,0.13071 0.22181,0.29798 0.39513,0.29798 0.0687,0 0.18572,-0.0426 0.26003,-0.0946 z m 4.45456,-0.15034 c 0.30124,-0.16122 -0.33212,-0.52981 -0.80208,-0.46677 -0.13891,0.0187 -0.3063,0.0876 -0.37197,0.15328 -0.11868,0.11867 -0.11743,0.12016 0.20648,0.24457 0.35607,0.13677 0.78385,0.16724 0.96757,0.0689 z m 2.12426,-0.25256 c -0.32655,-0.29772 -1.01793,-0.63921 -1.39816,-0.6906 l -0.27356,-0.0369 0.21277,0.18687 c 0.35402,0.31094 0.7726,0.5594 1.14053,0.67702 0.56868,0.1818 0.63583,0.15305 0.31842,-0.13632 z m 18.81171,0.0806 c 0.0197,-0.0621 0.0187,-0.1579 -0.002,-0.21276 -0.0781,-0.20347 -0.32922,-0.0616 -0.32922,0.18597 0,0.10757 0.0341,0.13981 0.14788,0.13981 0.0908,0 0.16174,-0.0436 0.18375,-0.11302 z m -0.65728,-0.10795 c 0.23027,-0.10926 0.40435,-0.38229 0.37494,-0.58804 -0.0257,-0.17978 -0.30646,-0.3042 -0.75406,-0.33416 -0.62806,-0.042 -0.99368,0.25248 -0.79365,0.6393 0.18072,0.34947 0.74542,0.4857 1.17277,0.2829 z m -4.98101,-0.36241 c 0.38043,-0.18311 1.15772,-0.7895 1.09386,-0.85337 -0.0334,-0.0334 -0.64805,0.18628 -0.94479,0.33767 -0.28686,0.14634 -0.71143,0.50842 -0.80821,0.68926 -0.0556,0.10389 -0.0465,0.11278 0.0792,0.0773 0.0781,-0.022 0.33908,-0.13493 0.57997,-0.25087 z m -20.50251,0.077 c 0.0913,-0.0667 0.0983,-0.10356 0.0403,-0.21205 -0.0865,-0.16166 -0.33984,-0.23395 -0.46265,-0.13202 -0.12774,0.10601 -0.11227,0.22029 0.0447,0.33024 0.16512,0.11566 0.23493,0.11821 0.37768,0.0138 z m 23.09931,-0.11777 c 0.31525,-0.17952 0.33025,-0.26117 0.0641,-0.349 -0.43824,-0.14464 -1.14716,0.11747 -1.04411,0.38602 0.061,0.15907 0.67647,0.13583 0.98,-0.037 z m -18.9722,-0.002 0.17186,-0.0735 -0.15962,-0.14995 c -0.13071,-0.12279 -0.23616,-0.15428 -0.58218,-0.17383 -0.46888,-0.0265 -0.54114,0.0431 -0.2858,0.27545 0.23313,0.2121 0.54167,0.25601 0.85574,0.12178 z m 22.88879,0.0122 c 0.16264,-0.0567 0.19144,-0.097 0.19144,-0.26761 0,-0.17088 -0.0287,-0.21088 -0.19248,-0.26797 -0.36289,-0.1265 -0.62472,0.21588 -0.3756,0.49114 0.11804,0.13044 0.12693,0.13149 0.37664,0.0445 z m -24.5704,-0.32556 c 0.34656,-0.15821 0.52069,-0.3731 0.35413,-0.43702 -0.19276,-0.074 -1.33464,-0.0529 -1.56577,0.0289 -0.23437,0.0829 -0.46947,0.40105 -0.36886,0.4991 0.16676,0.16251 1.14909,0.10595 1.5805,-0.091 z m 1.94552,-0.31628 c -0.0389,-0.23944 -0.28834,-0.54659 -0.51573,-0.63493 -0.22001,-0.0855 -0.37596,0.0314 -0.37596,0.28183 0,0.24385 0.15812,0.43259 0.40879,0.48794 0.0928,0.0205 0.19607,0.0464 0.22951,0.0575 0.0334,0.0112 0.11224,0.0224 0.17512,0.0251 0.0981,0.004 0.10924,-0.0266 0.0783,-0.21746 z m -3.89096,0.009 0.15716,-0.10297 -0.15395,-0.15395 c -0.11436,-0.11435 -0.21765,-0.15394 -0.40162,-0.15394 -0.39539,0 -0.56325,0.24145 -0.33,0.4747 0.12394,0.12394 0.49091,0.0918 0.72841,-0.0639 z m 23.51499,-0.15035 c 0.23905,-0.22457 0.19866,-0.30473 -0.15357,-0.30473 -0.29963,0 -0.73087,0.16259 -0.8219,0.30988 -0.0737,0.11922 0.11363,0.18249 0.47395,0.16009 0.26338,-0.0164 0.3861,-0.0568 0.50152,-0.16524 z m -18.4275,0.028 c -0.0672,-0.17503 -0.87242,-0.55034 -0.87242,-0.40661 0,0.0666 0.37084,0.41488 0.48632,0.45675 0.0502,0.0182 0.16555,0.0352 0.25645,0.0378 0.12422,0.003 0.15642,-0.0182 0.12965,-0.088 z m 22.09604,-0.065 c 0.18001,-0.12608 0.15593,-0.35112 -0.0405,-0.37895 -0.15139,-0.0215 -0.37492,0.13932 -0.37492,0.26964 0,0.0692 0.15587,0.19939 0.24483,0.20452 0.0176,6.8e-4 0.0944,-0.0418 0.17063,-0.0952 z m -1.39667,-0.23285 c 0.10929,-0.0565 0.18839,-0.13368 0.17579,-0.17148 -0.0477,-0.14298 -0.33204,-0.29076 -0.68369,-0.35528 -0.54247,-0.0995 -1.36801,0.0343 -1.36801,0.22185 0,0.0985 0.3799,0.3061 0.71334,0.3899 0.32215,0.081 0.9272,0.0367 1.16257,-0.085 z m -24.10411,-0.11721 c 0.53844,-0.31554 0.4118,-0.54365 -0.32028,-0.5769 -0.53458,-0.0243 -1.12195,0.10894 -1.18311,0.26833 -0.055,0.14319 0.0696,0.32897 0.28673,0.42773 0.29298,0.13325 0.88488,0.0753 1.21666,-0.11916 z m 21.22146,0.0122 c 0.19375,-0.0883 0.31744,-0.27482 0.37079,-0.55925 0.0414,-0.22047 0.0405,-0.22165 -0.16975,-0.22165 -0.32956,0 -0.59392,0.24985 -0.71647,0.67716 -0.0479,0.16689 -0.0416,0.1739 0.15579,0.1739 0.11311,0 0.27495,-0.0316 0.35964,-0.0702 z m -1.13699,-0.24658 c 0.0819,-0.0766 0.17681,-0.1911 0.21099,-0.25455 0.0566,-0.10507 0.0448,-0.1119 -0.13228,-0.0765 -0.23294,0.0466 -0.52346,0.24343 -0.61685,0.41794 -0.0642,0.11999 -0.056,0.12455 0.16081,0.0894 0.12567,-0.0204 0.29546,-0.0997 0.37733,-0.17626 z m -22.84086,0.1 c 0,-0.12504 -0.13626,-0.26046 -0.22889,-0.22746 -0.19965,0.0711 -0.27245,0.15405 -0.18432,0.20996 0.0891,0.0565 0.41321,0.0702 0.41321,0.0175 z m 3.69602,-0.0385 c 0.10812,-0.10812 0.0886,-0.21783 -0.0463,-0.26067 -0.14436,-0.0458 -0.36704,0.0626 -0.36704,0.17872 0,0.14785 0.28998,0.20535 0.41337,0.082 z m 1.22795,-0.0213 c 0,-0.0916 -0.40864,-0.3076 -0.46858,-0.24766 -0.0688,0.0688 0.25026,0.30776 0.45338,0.33957 0.008,0.001 0.0152,-0.04 0.0152,-0.0919 z m 23.11052,-0.1279 c 0.2258,-0.20434 0.0965,-0.4465 -0.23835,-0.4465 -0.44526,0 -0.75461,0.35215 -0.42555,0.48442 0.22114,0.0889 0.54417,0.0704 0.6639,-0.0379 z m -27.06185,-0.20334 c 0.14658,-0.14659 0.15118,-0.20487 0.026,-0.33 -0.19947,-0.19947 -0.63395,-0.062 -0.63395,0.20061 0,0.25983 0.39366,0.34362 0.60789,0.12939 z m 25.92055,-0.19057 c 0.37938,-0.17286 0.22237,-0.55724 -0.27309,-0.66856 -0.47706,-0.10719 -1.25649,0.0895 -1.35319,0.34149 -0.0455,0.11856 0.26461,0.32005 0.56874,0.36954 0.11702,0.0191 0.2538,0.0447 0.30395,0.057 0.14881,0.0365 0.58026,-0.0205 0.75359,-0.0994 z m -2.99135,-0.25251 c 0.028,-0.0447 0.008,-0.082 -0.0513,-0.0948 -0.10687,-0.0232 -0.39347,0.16625 -0.4336,0.28664 -0.0318,0.0954 0.41598,-0.0817 0.48496,-0.19183 z m 1.17558,0.0757 c 0.0631,-0.10207 -0.0938,-0.2405 -0.27251,-0.2405 -0.21062,0 -0.25669,0.0485 -0.18078,0.19037 0.0662,0.12371 0.38596,0.15908 0.45329,0.0501 z m -25.2334,-0.17323 c 0.0401,-0.0649 -0.24962,-0.14755 -0.33412,-0.0953 -0.0324,0.02 -0.0433,0.0619 -0.024,0.093 0.0446,0.0722 0.31385,0.0739 0.35813,0.002 z m 28.87681,-0.0277 c 0.12921,-0.0945 0.0786,-0.22198 -0.0881,-0.22198 -0.13553,0 -0.32022,0.16888 -0.27128,0.24805 0.0503,0.0814 0.23022,0.0684 0.35938,-0.0261 z m -26.77649,-0.0244 c -0.003,-0.14908 -0.27218,-0.31914 -0.50505,-0.31914 -0.19208,0 -0.4793,0.21992 -0.34507,0.26422 0.0502,0.0165 0.13221,0.0438 0.18237,0.0605 0.1462,0.0488 0.66877,0.0444 0.66775,-0.006 z m 26.02202,-0.32488 c 0.0564,-0.10533 0.0444,-0.15256 -0.0693,-0.27355 -0.16726,-0.17804 -0.37872,-0.18766 -0.54172,-0.0246 -0.23639,0.2364 -0.0988,0.42028 0.31701,0.42369 0.16817,0.001 0.24322,-0.0306 0.29396,-0.12547 z m -1.00415,-0.50787 c 0.24905,-0.10406 0.27446,-0.2475 0.0537,-0.30292 -0.18404,-0.0462 -0.37756,0.003 -0.52674,0.13406 -0.26959,0.23673 0.0433,0.34842 0.47308,0.16886 z m 1.85214,-0.0943 c 0,-0.0334 -0.0805,-0.0608 -0.17878,-0.0608 -0.0983,0 -0.19569,0.0273 -0.21636,0.0608 -0.0224,0.0362 0.05,0.0608 0.17879,0.0608 0.11899,0 0.21635,-0.0273 0.21635,-0.0608 z"
         id="path4678" />
      <circle
         style="fill:none;stroke:#ff0000;stroke-width:0.1;stroke-dasharray:none"
         id="path788-8-1-8-1-9-2-2-9-1-6"
         cx="744.03406"
         cy="-204.41582"
         r="19.954653" />
      <ellipse
         style="fill:none;stroke:#ff00ff;stroke-width:0.1;stroke-dasharray:none;stroke-opacity:1"
         id="path1138-9-4-0-0-1-2-8-1-8-1"
         cx="744.03406"
         cy="-204.41582"
         rx="18.492125"
         ry="18.492126" />
      <circle
         style="fill:none;stroke:#0000ff;stroke-width:0.1;stroke-linecap:round;stroke-dasharray:none;stroke-opacity:1;paint-order:markers stroke fill"
         id="path13019-1-33-4-5-5-2"
         cx="744.034"
         cy="-219.42679"
         r="2" />
    </g>
  </g>
</svg>
