<?xml version="1.0" encoding="UTF-8" standalone="no"?>
<!-- Created with Inkscape (http://www.inkscape.org/) -->

<svg
   width="41.008999mm"
   height="41.008999mm"
   viewBox="0 0 41.008999 41.009"
   version="1.1"
   id="svg1"
   inkscape:version="1.4.2 (f4327f4, 2025-05-13)"
   sodipodi:docname="267.svg"
   xmlns:inkscape="http://www.inkscape.org/namespaces/inkscape"
   xmlns:sodipodi="http://sodipodi.sourceforge.net/DTD/sodipodi-0.dtd"
   xmlns="http://www.w3.org/2000/svg"
   xmlns:svg="http://www.w3.org/2000/svg">
  <sodipodi:namedview
     id="namedview1"
     pagecolor="#ffffff"
     bordercolor="#000000"
     borderopacity="0.25"
     inkscape:showpageshadow="2"
     inkscape:pageopacity="0.0"
     inkscape:pagecheckerboard="0"
     inkscape:deskcolor="#d1d1d1"
     inkscape:document-units="mm"
     inkscape:zoom="2.8970539"
     inkscape:cx="84.223494"
     inkscape:cy="68.000116"
     inkscape:window-width="1168"
     inkscape:window-height="1081"
     inkscape:window-x="3737"
     inkscape:window-y="0"
     inkscape:window-maximized="0"
     inkscape:current-layer="layer1" />
  <defs
     id="defs1" />
  <g
     inkscape:label="Layer 1"
     inkscape:groupmode="layer"
     id="layer1"
     transform="translate(-114.0891,-77.774176)">
    <g
       id="g16"
       transform="translate(-525.06161,252.98218)">
      <circle
         style="fill:none;stroke:#ff0000;stroke-width:0.1;stroke-dasharray:none"
         id="path788-8-1-8-1-9-2-6-3-4-7-1-6-1-0-8-3-6-1"
         cx="659.65521"
         cy="-154.70351"
         r="19.954653" />
      <circle
         style="fill:none;stroke:#0000ff;stroke-width:0.1;stroke-linecap:round;stroke-dasharray:none;stroke-opacity:1;paint-order:markers stroke fill"
         id="path13019-1-33-3-83-70-3-7-5-9-5-4-1-5-2"
         cx="659.65521"
         cy="-169.71451"
         r="2" />
      <path
         style="fill:#000000;stroke-width:0.1;stroke-dasharray:none"
         d="m 657.87631,-138.96088 c -0.12928,-0.006 -0.44449,-0.15709 -0.70053,-0.336 -0.25602,-0.1789 -0.92625,-0.48414 -1.48938,-0.67831 -1.11283,-0.38369 -1.80545,-0.80264 -2.4758,-1.49749 -0.53342,-0.55293 -1.11058,-1.48839 -1.37111,-2.22229 l -0.19734,-0.55523 -0.27759,0.36661 c -0.68839,0.90912 -1.99853,1.65596 -3.06944,1.7497 -3.28966,0.28798 -4.53308,-3.4477 -2.23072,-6.70185 0.59558,-0.8418 1.39595,-1.6541 2.46739,-2.5042 l 0.89219,-0.70788 -0.20101,-0.25183 c -0.11051,-0.13854 -0.30633,-0.61376 -0.43504,-1.0561 -0.24507,-0.84198 -0.23438,-1.45347 0.0382,-2.18153 0.0726,-0.19402 0.1125,-0.40841 0.0886,-0.47643 -0.0735,-0.20902 -1.1309,-0.74394 -1.59358,-0.80613 -0.24064,-0.0324 -0.72821,-0.027 -1.0835,0.0118 -0.67418,0.0737 -0.8432,0.0154 -0.96884,-0.33401 -0.14482,-0.40284 0.072,-0.63394 0.7671,-0.81735 1.08943,-0.28744 2.45974,0.0299 3.45508,0.80029 l 0.22757,0.17611 0.41821,-0.34181 c 0.29202,-0.23867 0.69467,-0.43902 1.33438,-0.66395 0.63971,-0.22493 1.07912,-0.3207 1.45627,-0.31727 l 0.5401,0.005 0.0621,-0.27797 c 0.12948,-0.57949 0.75407,-1.68843 1.18531,-2.10443 0.58406,-0.56348 1.51733,-0.99324 1.83055,-0.84298 0.27057,0.12979 0.41185,0.49519 0.28984,0.74956 -0.0498,0.10392 -0.28674,0.29286 -0.52633,0.41972 -0.2396,0.12685 -0.60162,0.40403 -0.8045,0.61595 -0.37301,0.38956 -0.88349,1.46532 -0.80342,1.69305 0.0239,0.068 0.18915,0.2103 0.36726,0.31615 0.3909,0.23238 0.91712,0.73205 1.15147,1.09341 0.24178,0.37285 0.57692,1.38786 0.56852,1.72182 -0.007,0.27767 0.005,0.2805 1.13414,0.27428 3.43366,-0.0189 5.78904,0.95025 6.87957,2.83072 0.3889,0.6706 0.49901,1.02382 0.51525,1.65261 0.0466,1.81152 -1.61733,3.1979 -3.85626,3.213 -0.3482,0.002 -0.83378,-0.0462 -1.07905,-0.10794 l -0.44595,-0.11221 0.19357,0.55657 c 0.25773,0.73902 0.39131,1.82727 0.32035,2.60292 -0.0842,0.92092 -0.40428,1.78373 -1.0218,2.75468 -0.30026,0.4721 -0.61816,1.10519 -0.70643,1.40686 -0.12584,0.43003 -0.43198,0.89393 -0.59074,0.89517 -0.0105,5.2e-4 -0.12573,-0.005 -0.25497,-0.0105 z m 0.20357,-2.15881 c 0.65339,-1.13244 1.0109,-1.87285 0.84151,-1.74271 -0.0858,0.066 -0.5278,0.29996 -0.9821,0.51986 -0.77361,0.37462 -2.25089,0.80214 -2.81183,0.81413 -0.10821,0.002 0.0679,0.12322 0.39151,0.26877 0.65775,0.29583 2.0667,0.86772 2.11674,0.85916 0.0178,-0.003 0.21769,-0.3267 0.44417,-0.71921 z m -0.36326,-2.34444 c 0.3859,-0.19907 0.91998,-0.52242 1.18686,-0.71848 l 0.48523,-0.35651 -0.0598,-0.60399 c -0.0328,-0.33221 -0.0864,-0.61677 -0.119,-0.63238 -0.0326,-0.0157 -0.36942,0.18703 -0.74854,0.45044 -0.57131,0.39683 -0.9453,0.56882 -2.18416,1.00441 -1.23885,0.4356 -1.63822,0.53542 -2.33215,0.58356 -0.46052,0.0319 -0.84766,0.0795 -0.86028,0.10582 -0.0126,0.0263 0.12253,0.28186 0.30045,0.56781 l 0.32342,0.51996 0.62437,-0.0266 c 1.22966,-0.0524 2.30094,-0.33545 3.38365,-0.89405 z m -0.23276,-2.57422 c 0.37505,-0.22579 0.81992,-0.53115 0.98856,-0.67867 l 0.3066,-0.26822 -0.25296,-0.41978 c -0.13916,-0.23086 -0.29099,-0.43851 -0.33745,-0.46142 -0.0464,-0.0229 -0.37933,0.15998 -0.73968,0.4064 -0.50299,0.34397 -0.9576,0.55439 -1.9571,0.90582 -0.99949,0.35143 -1.4858,0.47176 -2.09334,0.51836 -0.43528,0.0333 -0.80933,0.099 -0.83125,0.14595 -0.0219,0.0469 -0.0103,0.30493 0.0259,0.57332 l 0.0657,0.48797 0.44955,0.008 c 1.35155,0.025 3.13512,-0.47151 4.3755,-1.21806 z m -7.68722,2.12797 c 0.67737,-0.50416 1.06484,-1.08788 1.85528,-2.79495 0.99447,-2.14773 1.48795,-3.92042 1.38737,-4.98379 -0.0925,-0.97801 -0.51827,-0.98146 -2.06645,-0.0167 -3.79843,2.36703 -5.58444,5.07828 -4.80519,7.29449 0.48233,1.3718 2.14971,1.60195 3.62899,0.50093 z m 13.96449,-5.04334 c 1.12078,-1.25593 -0.004,-3.29577 -2.25583,-4.09259 -1.3761,-0.48686 -3.50023,-0.61849 -5.71301,-0.35405 -1.25301,0.14973 -1.78398,0.33982 -1.83281,0.6563 -0.12388,0.80184 1.71112,2.32144 4.43109,3.6695 1.6575,0.82148 2.34795,1.04622 3.16634,1.03067 0.82943,-0.0158 1.743,-0.3928 2.20427,-0.90969 z m -7.53522,0.92269 c 0.83498,-0.46984 0.83249,-0.43942 0.073,-0.89118 -0.37972,-0.22588 -1.01153,-0.65878 -1.40403,-0.96201 -0.39249,-0.30322 -0.73534,-0.54369 -0.76185,-0.53436 -0.0265,0.009 -0.14342,0.41143 -0.25978,0.89358 -0.11635,0.48214 -0.33819,1.2152 -0.493,1.62902 -0.19171,0.51249 -0.23528,0.75248 -0.13664,0.75267 0.72258,0.001 2.1658,-0.42827 2.98225,-0.88772 z"
         id="path1-5" />
      <path
         style="fill:#000000;stroke-width:0.1;stroke-dasharray:none"
         d="m 662.80075,-155.586 c -0.0469,-0.0648 -0.097,-0.27489 -0.11027,-0.46754 -0.0133,-0.19265 -0.12662,-0.63367 -0.25178,-0.98003 -0.24739,-0.68444 -0.31468,-1.18038 -0.24055,-1.7727 0.059,-0.47134 0.28508,-1.11224 0.5371,-1.52251 l 0.19057,-0.31051 -0.28418,0.009 c -0.70471,0.0217 -1.57271,-0.31883 -2.03355,-0.79777 -1.41567,-1.4712 -0.10075,-3.51977 2.35896,-3.67516 0.63629,-0.0402 1.33788,0.0296 2.1629,0.21515 l 0.687,0.15452 0.0432,-0.19449 c 0.0238,-0.10694 0.17641,-0.38567 0.3393,-0.61933 0.31003,-0.4448 0.60844,-0.67704 1.06461,-0.8285 0.12156,-0.0404 0.24018,-0.10443 0.26367,-0.1423 0.0721,-0.11654 -0.0811,-0.833 -0.23073,-1.07978 -0.0778,-0.12839 -0.26971,-0.3609 -0.42636,-0.51676 -0.29718,-0.29581 -0.33472,-0.3998 -0.21539,-0.59588 0.13763,-0.22608 0.333,-0.21147 0.69112,0.0519 0.56123,0.41265 0.9405,1.19524 0.95619,1.97328 l 0.003,0.17788 0.32683,0.0685 c 0.22822,0.0479 0.48093,0.16385 0.83752,0.38436 0.35658,0.22051 0.57325,0.39477 0.71801,0.5776 l 0.20713,0.26195 0.15785,-0.078 c 0.32914,-0.16264 1.10521,-0.2926 1.47281,-0.24658 0.49789,0.0623 1.06699,0.34455 1.11628,0.5536 0.0426,0.18059 -0.0784,0.39043 -0.24817,0.43047 -0.0693,0.0164 -0.25224,-0.0243 -0.4063,-0.0903 -0.15407,-0.0661 -0.42798,-0.13266 -0.60871,-0.14801 -0.33227,-0.0283 -1.0481,0.14371 -1.1266,0.27064 -0.0234,0.0379 -0.0277,0.17267 -0.01,0.29947 0.0399,0.27831 0.004,0.72551 -0.0792,0.97857 -0.0856,0.26108 -0.44388,0.81639 -0.60784,0.942 -0.13618,0.10461 -0.13292,0.11144 0.30831,0.65223 1.34208,1.64494 1.79011,3.15461 1.30857,4.4094 -0.17172,0.44747 -0.29895,0.63757 -0.59522,0.8895 -0.85363,0.72566 -2.16671,0.4632 -3.04315,-0.60833 -0.13645,-0.16653 -0.30147,-0.41914 -0.36695,-0.56115 l -0.11914,-0.25815 -0.19268,0.30922 c -0.25556,0.41091 -0.72738,0.89767 -1.12816,1.16464 -0.47588,0.31695 -1.01529,0.49792 -1.72224,0.5777 -0.34375,0.0388 -0.7718,0.13158 -0.95124,0.20622 -0.25577,0.1064 -0.59786,0.13917 -0.66009,0.0632 -0.004,-0.005 -0.0462,-0.0626 -0.0939,-0.1268 z m 1.11785,-0.74012 c 0.79859,-0.12521 1.29367,-0.24062 1.16529,-0.2716 -0.065,-0.0156 -0.34924,-0.13754 -0.63142,-0.27078 -0.48059,-0.22683 -1.25982,-0.77173 -1.48335,-1.03701 -0.0433,-0.051 -0.033,0.0805 0.0227,0.29274 0.11299,0.43135 0.38477,1.33136 0.40832,1.35212 0.008,0.007 0.24172,-0.0221 0.51851,-0.0654 z m 0.98714,-1.08495 c 0.24561,0.10841 0.60853,0.2399 0.80649,0.29221 l 0.35992,0.0951 0.26743,-0.26324 c 0.14712,-0.14476 0.26325,-0.28102 0.25808,-0.3028 -0.005,-0.0218 -0.23341,-0.10516 -0.50734,-0.18533 -0.41275,-0.12086 -0.6407,-0.23406 -1.33125,-0.6611 -0.69054,-0.42704 -0.89362,-0.58046 -1.18618,-0.8957 -0.19412,-0.20922 -0.36732,-0.37703 -0.38489,-0.37288 -0.0178,0.004 -0.0881,0.16837 -0.1566,0.36501 l -0.12465,0.35748 0.25518,0.29013 c 0.50258,0.57138 1.05468,0.97698 1.7438,1.28114 z m 1.14836,-1.11134 c 0.25425,0.0928 0.5739,0.18835 0.71035,0.21223 l 0.24809,0.0434 0.1038,-0.28469 c 0.0571,-0.1566 0.098,-0.31026 0.091,-0.34152 -0.007,-0.0312 -0.22424,-0.12043 -0.48272,-0.19816 -0.36078,-0.10851 -0.63852,-0.24559 -1.19565,-0.59012 -0.55712,-0.34453 -0.80382,-0.53182 -1.06209,-0.80609 -0.18503,-0.19652 -0.36181,-0.35103 -0.39294,-0.34333 -0.0311,0.007 -0.15084,0.11328 -0.26581,0.23504 l -0.20929,0.22108 0.1707,0.2194 c 0.51265,0.66008 1.44397,1.32559 2.28475,1.63265 z m -4.00825,-2.87302 c 0.50556,0.13023 0.93687,0.0901 2.06518,-0.19227 1.41956,-0.35523 2.46417,-0.80594 2.93681,-1.26715 0.43472,-0.42418 0.27108,-0.63042 -0.7942,-1.00086 -2.61362,-0.90891 -4.61163,-0.71581 -5.37556,0.51953 -0.47287,0.76465 0.0636,1.65635 1.16776,1.94076 z m 7.84805,4.76189 c 1.03946,0.0518 1.5844,-1.28137 1.09363,-2.67431 -0.29993,-0.85119 -1.06121,-1.92443 -2.04749,-2.88657 -0.55848,-0.54483 -0.85608,-0.72653 -1.02733,-0.62718 -0.43391,0.2517 -0.45281,1.72461 -0.0456,3.55681 0.24816,1.1165 0.40805,1.53599 0.73325,1.92376 0.32957,0.39302 0.86566,0.68626 1.29347,0.70756 z m -3.36926,-3.26778 c 0.55023,0.21939 0.53463,0.23001 0.45719,-0.31083 -0.0387,-0.27041 -0.0757,-0.7425 -0.0821,-1.04909 -0.007,-0.30657 -0.0239,-0.56491 -0.0386,-0.57405 -0.0147,-0.009 -0.25366,0.0907 -0.53085,0.22189 -0.27715,0.13121 -0.71604,0.30902 -0.97527,0.39517 -0.32104,0.10671 -0.45344,0.1789 -0.41524,0.22644 0.28003,0.3481 1.04688,0.87594 1.58491,1.09045 z"
         id="path1-5-2" />
      <ellipse
         style="fill:none;stroke:#ff00ff;stroke-width:0.1;stroke-dasharray:none;stroke-opacity:1"
         id="path1138-9-4-0-0-1-2-4-9-7-02-13-2-4"
         cx="659.65521"
         cy="-154.70351"
         rx="18.492125"
         ry="18.492126" />
    </g>
  </g>
</svg>
