<?xml version="1.0" encoding="UTF-8" standalone="no"?>
<!-- Created with Inkscape (http://www.inkscape.org/) -->

<svg
   width="41.008999mm"
   height="41.008999mm"
   viewBox="0 0 41.008999 41.008999"
   version="1.1"
   id="svg1"
   inkscape:version="1.4.2 (f4327f4, 2025-05-13)"
   sodipodi:docname="286.svg"
   xmlns:inkscape="http://www.inkscape.org/namespaces/inkscape"
   xmlns:sodipodi="http://sodipodi.sourceforge.net/DTD/sodipodi-0.dtd"
   xmlns="http://www.w3.org/2000/svg"
   xmlns:svg="http://www.w3.org/2000/svg">
  <sodipodi:namedview
     id="namedview1"
     pagecolor="#ffffff"
     bordercolor="#000000"
     borderopacity="0.25"
     inkscape:showpageshadow="2"
     inkscape:pageopacity="0.0"
     inkscape:pagecheckerboard="0"
     inkscape:deskcolor="#d1d1d1"
     inkscape:document-units="mm"
     inkscape:zoom="1.4513545"
     inkscape:cx="86.470947"
     inkscape:cy="-62.700049"
     inkscape:window-width="1050"
     inkscape:window-height="1081"
     inkscape:window-x="857"
     inkscape:window-y="0"
     inkscape:window-maximized="0"
     inkscape:current-layer="layer1" />
  <defs
     id="defs1" />
  <g
     inkscape:label="Layer 1"
     inkscape:groupmode="layer"
     id="layer1"
     transform="translate(333.37504,1257.5646)">
    <g
       id="g72"
       transform="translate(-1153.5892,-983.09588)">
      <path
         style="fill:#000000;stroke-width:0.1;stroke-dasharray:none"
         d="m 840.39701,-241.37112 c -0.0317,-0.009 -1.04272,-0.034 -2.24676,-0.0569 -2.89273,-0.0549 -4.70332,-0.13435 -5.35757,-0.23501 -0.56825,-0.0874 -1.05264,-0.34194 -1.32192,-0.6946 -0.40182,-0.52624 -0.5681,-1.21774 -0.48171,-2.00304 0.0945,-0.85874 0.45164,-1.58755 0.90998,-1.85697 0.16625,-0.0977 0.21678,-0.10759 0.54799,-0.10696 0.31142,5.5e-4 0.39624,0.0153 0.57923,0.10052 0.29378,0.13683 0.58293,0.42711 0.72538,0.7282 0.064,0.13527 0.11637,0.27517 0.11637,0.31089 5e-5,0.11245 0.0717,0.11565 0.21106,0.009 0.12244,-0.0934 0.13464,-0.12016 0.13464,-0.29596 0,-0.20474 0.0918,-1.09055 0.15072,-1.45453 0.0448,-0.27652 0.0406,-0.28817 -0.47107,-1.29597 -0.229,-0.45109 -0.44739,-0.9088 -0.48531,-1.01715 -0.0379,-0.10835 -0.16673,-0.41303 -0.2863,-0.67707 -0.11954,-0.26404 -0.24851,-0.5492 -0.28657,-0.63369 -0.12718,-0.28229 -0.34205,-0.87966 -0.44208,-1.22899 -0.20047,-0.6999 -0.22422,-0.83226 -0.20722,-1.15567 0.0141,-0.26932 0.0387,-0.35955 0.17561,-0.64485 0.18532,-0.38623 0.28294,-0.48776 0.62322,-0.64812 0.19006,-0.0896 0.32085,-0.12195 0.54791,-0.13567 0.34569,-0.0209 0.54794,0.0393 0.81376,0.24222 l 0.16619,0.12685 0.026,-0.29418 c 0.0662,-0.74766 0.41176,-1.94074 0.81248,-2.80542 l 0.0959,-0.20689 -0.0921,-0.10036 c -0.32063,-0.34932 -0.52721,-0.77933 -0.52619,-1.09541 0.003,-0.50966 0.61099,-1.06809 1.17386,-1.07571 0.35757,-0.004 0.5544,0.13439 0.90858,0.64264 0.0466,0.067 0.0518,0.0667 0.12961,-0.006 0.1937,-0.18121 0.99676,-0.50273 1.55122,-0.62106 0.57135,-0.12194 1.7073,-0.14915 2.42376,-0.058 0.59283,0.0754 1.23333,0.21279 1.64724,0.35338 0.39233,0.13326 0.85176,0.3212 0.92175,0.37704 0.0317,0.0253 0.13535,0.0759 0.23043,0.11244 0.23657,0.091 0.50775,0.26816 0.81696,0.53367 l 0.26012,0.22337 0.14832,-0.11747 c 0.25056,-0.19845 0.53271,-0.30928 0.78839,-0.30971 0.35796,-5.4e-4 0.55346,0.12342 0.93992,0.59615 0.0305,0.0372 0.0619,0.18696 0.0718,0.34289 0.0213,0.33012 -0.0431,0.50511 -0.3026,0.82314 -0.32085,0.39328 -0.30548,0.36315 -0.25855,0.50708 0.0235,0.0719 0.0642,0.17393 0.0904,0.22674 0.0918,0.18445 0.36023,1.05869 0.41853,1.36341 0.0822,0.42963 0.13743,0.9136 0.13787,1.20878 v 0.25064 l 0.24334,-0.25362 c 0.36588,-0.38129 0.70654,-0.46821 1.16587,-0.29744 0.73945,0.27489 1.03061,0.81731 0.83263,1.55114 -0.034,0.1259 -0.0781,0.29803 -0.0981,0.38253 -0.0341,0.14451 -0.42861,0.8524 -0.76466,1.37234 -0.083,0.12837 -0.15089,0.26097 -0.15091,0.29466 0,0.0337 -0.0878,0.20816 -0.19506,0.38771 -0.10727,0.17954 -0.28301,0.49063 -0.39055,0.6913 -0.10753,0.20067 -0.22712,0.41073 -0.26579,0.4668 -0.0386,0.0561 -0.0704,0.12519 -0.0704,0.15362 -8e-5,0.0284 -0.13801,0.29364 -0.3065,0.58936 -0.16847,0.29572 -0.30667,0.56093 -0.30709,0.58934 0,0.0284 0.0528,0.14935 0.11838,0.26874 0.20949,0.3817 0.45695,1.24474 0.45695,1.59356 0,0.13766 0.0411,0.19136 0.17886,0.23351 0.0731,0.0224 0.0906,0.002 0.14835,-0.17771 0.10102,-0.31319 0.22585,-0.50199 0.474,-0.71697 0.48088,-0.41658 1.14273,-0.48214 1.5937,-0.15787 0.19221,0.13821 0.37077,0.35506 0.44235,0.53727 0.47041,1.19728 0.50117,1.98941 0.11106,2.86128 -0.11749,0.26259 -0.20194,0.39011 -0.3513,0.53064 -0.26606,0.25026 -0.73075,0.47609 -1.11838,0.54349 -0.61516,0.10696 -2.371,0.19064 -5.24239,0.24984 -1.00334,0.0207 -2.08352,0.0457 -2.40036,0.0556 -0.31683,0.01 -0.602,0.0112 -0.63371,0.003 z m 3.30289,-0.70882 c 0.11618,-0.0223 0.32044,-0.0566 0.45391,-0.0761 0.30609,-0.0448 0.91008,-0.3333 1.11042,-0.53038 0.42233,-0.4155 0.60277,-0.71962 0.7347,-1.23844 0.15064,-0.59235 0.13903,-1.39369 -0.0327,-2.25198 -0.0747,-0.37345 -0.26927,-0.86655 -0.44844,-1.13646 -0.0598,-0.0903 -0.13209,-0.2073 -0.16039,-0.26011 -0.15796,-0.2946 -1.31744,-1.03695 -1.61963,-1.03695 -0.0367,0 -0.13889,-0.0255 -0.22712,-0.0566 -0.2811,-0.0992 -1.04145,-0.24406 -1.59669,-0.30425 -1.35453,-0.14687 -2.8971,-0.077 -4.21833,0.19102 -0.9417,0.19105 -1.21986,0.3548 -1.65321,0.97322 -0.26413,0.37694 -0.33456,0.51859 -0.47892,0.96329 -0.16825,0.5183 -0.25114,1.14301 -0.22419,1.68986 0.0486,0.9852 0.28287,1.6499 0.74064,2.10097 0.54966,0.54158 1.48185,0.81981 3.01118,0.89873 0.41192,0.0212 1.1205,0.0624 1.57466,0.0915 0.91478,0.0585 2.69224,0.0484 3.03403,-0.0173 z m -11.55626,-0.70169 c 0.0613,-0.0452 0.11136,-0.0922 0.11136,-0.10432 0,-0.0121 0.0423,-0.0675 0.0938,-0.12315 0.0968,-0.1044 0.22994,-0.39322 0.38492,-0.835 0.12499,-0.35633 0.13906,-0.43376 0.13977,-0.76928 0.003,-0.36802 -0.0715,-0.56081 -0.28425,-0.75766 -0.14627,-0.13532 -0.17794,-0.14768 -0.37828,-0.14768 -0.26908,0 -0.36134,0.0742 -0.51714,0.41591 -0.14352,0.31471 -0.21674,1.04627 -0.16405,1.63879 0.0433,0.48726 0.0849,0.627 0.21744,0.73128 0.11617,0.0914 0.22481,0.078 0.39642,-0.0488 z m 17.49423,0.0768 c 0.0688,-0.0313 0.1362,-0.11903 0.1995,-0.25924 0.0824,-0.18266 0.0981,-0.28347 0.11329,-0.73038 0.0462,-1.35294 -0.3924,-2.11048 -1.01173,-1.74751 -0.12248,0.0717 -0.1911,0.15165 -0.27223,0.31684 -0.20589,0.4193 -0.1188,1.07222 0.23701,1.77667 0.16059,0.31792 0.32066,0.5348 0.45529,0.6169 0.14315,0.0873 0.14542,0.0875 0.27887,0.0268 z m -7.24183,-7.02147 c 0.89838,-0.0705 1.62352,-0.25222 2.24482,-0.56251 0.19011,-0.0949 0.38804,-0.19253 0.43986,-0.21686 0.13522,-0.0635 0.5532,-0.46532 0.77053,-0.74084 0.44312,-0.56175 0.59583,-1.11648 0.59053,-2.14539 -0.003,-0.44548 -0.0235,-0.75051 -0.0668,-0.96015 -0.0349,-0.16899 -0.0635,-0.35348 -0.0635,-0.40999 0,-0.18998 -0.3729,-1.09655 -0.61707,-1.50023 -0.13113,-0.21677 -0.26397,-0.44313 -0.2952,-0.50302 -0.0597,-0.11443 -0.96818,-1.06248 -1.01815,-1.06248 -0.016,0 -0.10224,-0.0532 -0.19185,-0.11811 -0.30656,-0.22227 -0.85409,-0.53002 -1.1612,-0.65267 -0.37037,-0.14792 -1.18927,-0.35562 -1.76692,-0.44815 -0.31009,-0.0496 -0.64202,-0.0674 -1.24817,-0.0669 -0.88592,8.3e-4 -1.18004,0.0404 -1.74514,0.23514 -0.14916,0.0514 -0.32473,0.10766 -0.39015,0.12505 -0.21766,0.0578 -0.59031,0.28174 -0.87937,0.52837 -0.37187,0.3173 -0.82591,0.77219 -0.82591,0.82746 0,0.0239 -0.0786,0.16952 -0.1746,0.32359 -0.096,0.15408 -0.24341,0.42693 -0.32748,0.60636 -0.16499,0.35209 -0.41966,1.09173 -0.41966,1.21884 0,0.043 -0.0367,0.25372 -0.0816,0.46827 -0.1222,0.58396 -0.11385,1.19064 0.0235,1.71509 0.11893,0.4539 0.17828,0.58498 0.39578,0.87428 0.58517,0.7782 1.51288,1.41339 2.61954,1.79352 0.20067,0.0689 0.49446,0.16995 0.65289,0.2245 0.80236,0.27629 1.67886,0.42179 2.90155,0.48167 0.0644,0.004 0.34959,-0.0125 0.63371,-0.0349 z m -2.44481,-1.73 c -0.0924,-0.0473 -0.2074,-0.2649 -0.20652,-0.39108 0.003,-0.21327 0.18984,-0.24831 0.23179,-0.0431 0.0352,0.17216 0.067,0.20765 0.18566,0.20765 0.20785,0 0.35006,-0.24772 0.35006,-0.60981 0,-0.1968 -0.013,-0.23299 -0.11875,-0.33355 -0.14773,-0.14037 -0.27372,-0.37973 -0.25799,-0.4902 0.0163,-0.11511 0.26684,-0.15931 0.69867,-0.12335 0.2976,0.0248 0.34047,0.0379 0.37548,0.11477 0.0558,0.12254 -0.0816,0.3785 -0.27501,0.51224 l -0.15064,0.10417 -0.003,0.33605 c -0.003,0.28604 0.01,0.34749 0.0754,0.41287 0.11996,0.11996 0.29699,0.1014 0.37627,-0.0394 0.13505,-0.24003 0.36383,-0.0607 0.23342,0.1829 -0.1173,0.21913 -0.51588,0.27617 -0.72143,0.10323 l -0.11764,-0.099 -0.12065,0.0859 c -0.13629,0.097 -0.43103,0.13399 -0.55662,0.0698 z m 3.38383,-0.96566 c -0.43401,-0.17877 -0.80002,-0.44878 -1.23671,-0.91234 -0.19478,-0.20679 -0.37862,-0.59684 -0.4483,-0.95133 -0.0813,-0.41378 -0.0788,-0.58573 0.0138,-0.90923 0.0901,-0.31518 0.25722,-0.50979 0.56856,-0.66212 0.46162,-0.22588 0.98462,-0.13898 1.56864,0.26062 0.34188,0.23394 1.10289,0.95503 1.31318,1.24431 0.0768,0.10561 0.16031,0.21364 0.18563,0.24006 0.0672,0.0701 0.16907,0.44655 0.17295,0.63942 0.006,0.29888 -0.10222,0.53469 -0.35114,0.76515 -0.35366,0.32742 -0.51251,0.38887 -1.03767,0.40144 -0.4235,0.0101 -0.45429,0.005 -0.74891,-0.11598 z m 0.0512,-1.21636 c 0.20556,-0.10486 0.36808,-0.40989 0.34196,-0.64174 -0.023,-0.20301 -0.18726,-0.45614 -0.3513,-0.54097 -0.14371,-0.0743 -0.46535,-0.0829 -0.61897,-0.0166 -0.0628,0.0271 -0.16988,0.11844 -0.23785,0.20292 -0.22195,0.27589 -0.21498,0.58732 0.0188,0.84624 0.0774,0.0856 0.17572,0.1699 0.21865,0.1873 0.14619,0.0592 0.4781,0.0397 0.62857,-0.0371 z m -0.76179,-0.55253 c 0,-0.18016 0.29157,-0.33048 0.53666,-0.27665 0.13572,0.0298 0.36051,0.22819 0.33685,0.29726 -0.0102,0.0298 -0.0671,0.044 -0.14746,0.0367 -0.26604,-0.0243 -0.47975,-0.0209 -0.60123,0.01 -0.11639,0.0291 -0.12482,0.0246 -0.12482,-0.0668 z m -5.63599,1.64213 c -0.32273,-0.0869 -0.51295,-0.2013 -0.75002,-0.45112 -0.25793,-0.27183 -0.35987,-0.53353 -0.3141,-0.80635 0.0363,-0.21635 0.28326,-0.6913 0.4866,-0.93587 0.2538,-0.30527 0.97553,-0.95929 1.20086,-1.08821 0.55708,-0.31873 1.15782,-0.3974 1.67137,-0.21889 0.40321,0.14016 0.55969,0.31462 0.59733,0.66601 0.0328,0.30674 -0.004,0.76302 -0.0802,0.97733 -0.1387,0.39309 -0.58755,1.00305 -0.94446,1.28345 -0.3522,0.27672 -0.82761,0.51175 -1.16609,0.57651 -0.35512,0.068 -0.43964,0.0676 -0.70128,-0.003 z m 1.70429,-1.34252 c 0.1471,-0.0733 0.2126,-0.13573 0.2764,-0.26344 0.10011,-0.20049 0.10495,-0.33078 0.021,-0.565 -0.0962,-0.26845 -0.2575,-0.36107 -0.62884,-0.36107 -0.26107,0 -0.31088,0.0119 -0.4302,0.10294 -0.29838,0.22756 -0.35044,0.66014 -0.11117,0.92311 0.25087,0.27565 0.53926,0.32967 0.8728,0.16346 z m -0.15489,-0.48947 c -0.14523,-0.0785 -0.15584,-0.079 -0.33161,-0.0166 -0.22863,0.0812 -0.26733,0.0808 -0.26708,-0.003 0,-0.13329 0.16388,-0.282 0.33533,-0.305 0.28414,-0.0381 0.59692,0.17027 0.50719,0.33791 -0.0474,0.0885 -0.0559,0.0881 -0.24383,-0.0136 z m 9.7999,2.61415 c 0.0625,-0.13072 0.0105,-0.38751 -0.1028,-0.50811 -0.044,-0.0469 -0.0801,-0.10375 -0.0801,-0.12639 0,-0.0792 -0.28397,-0.18352 -0.50095,-0.18393 -0.26875,-5.5e-4 -0.42079,0.0881 -0.42079,0.24524 0,0.14995 0.26921,0.39269 0.62568,0.56416 0.31663,0.15229 0.40966,0.15404 0.47893,0.009 z m -14.80601,-0.34431 c 0.1321,-0.0453 0.27428,-0.10579 0.31593,-0.13442 0.0416,-0.0286 0.10105,-0.052 0.13195,-0.052 0.0796,0 0.23398,-0.15425 0.23398,-0.23373 0,-0.14296 -0.35181,-0.34153 -0.60618,-0.34215 -0.0482,-1.2e-4 -0.17172,0.0423 -0.27447,0.0944 -0.20387,0.10333 -0.33961,0.28262 -0.37391,0.49395 -0.0174,0.10726 -0.005,0.1422 0.0683,0.19361 0.11844,0.0829 0.21628,0.0791 0.50438,-0.0196 z m 15.29504,-0.0188 c 0.035,-0.0135 0.0801,-0.0676 0.10019,-0.1204 0.0745,-0.19583 -0.15287,-0.35874 -0.32042,-0.22961 -0.0988,0.0761 -0.10211,0.21924 -0.007,0.31409 0.0649,0.0649 0.12657,0.0747 0.22748,0.0359 z m -15.91241,-0.69202 c 0.15191,-0.13747 0.0268,-0.37662 -0.18439,-0.35218 -0.0686,0.008 -0.12841,0.0494 -0.16434,0.11367 -0.0506,0.0906 -0.0496,0.11167 0.009,0.20163 0.0769,0.11734 0.23193,0.13419 0.33945,0.0369 z m 15.58617,-0.0133 c 0.19376,-0.19376 -0.0277,-0.47472 -0.27137,-0.3443 -0.10807,0.0578 -0.10119,0.2827 0.0111,0.36132 0.11282,0.079 0.16785,0.0754 0.26031,-0.017 z m -0.68472,-0.14038 c 0.0873,-0.079 0.0901,-0.19652 0.007,-0.28866 -0.0791,-0.0873 -0.19652,-0.0901 -0.28864,-0.007 -0.0915,0.0828 -0.0891,0.18641 0.007,0.28209 0.0934,0.0935 0.18209,0.0977 0.27544,0.0133 z m -13.61764,-0.18643 c 0.041,-0.0622 0.0416,-0.0957 0.004,-0.17283 -0.0387,-0.0777 -0.0761,-0.0956 -0.19926,-0.0956 -0.13031,0 -0.15671,0.0146 -0.18828,0.10445 -0.0768,0.21834 0.25503,0.35997 0.38431,0.16403 z m -0.76039,-0.10333 c 0.12096,-0.12095 -0.0218,-0.40876 -0.17816,-0.35914 -0.0467,0.0149 -0.1125,0.0689 -0.14602,0.12009 -0.0559,0.0853 -0.0557,0.10119 0.003,0.18911 0.0686,0.10462 0.24091,0.13132 0.32231,0.0499 z m 9.99261,-6.53853 c -0.13193,-0.0718 -0.28185,-0.34587 -0.25272,-0.46199 0.0128,-0.05 0.0676,-0.14413 0.12229,-0.20912 0.085,-0.10091 0.1256,-0.11816 0.27845,-0.11804 0.22678,1.4e-4 0.39469,0.10036 0.48414,0.28889 0.0914,0.1925 0.033,0.41278 -0.13188,0.49806 -0.13787,0.0713 -0.37142,0.0724 -0.50028,0.003 z m -1.80451,-0.48898 c -0.18088,-0.0517 -0.2305,-0.0988 -0.22997,-0.2186 0,-0.12789 0.29277,-1.71781 0.32541,-1.77063 0.04,-0.0649 0.41112,-0.0431 0.58105,0.0341 0.25578,0.11616 0.25924,0.16861 0.0727,1.10227 -0.0891,0.44581 -0.1741,0.83029 -0.18901,0.85439 -0.0326,0.0529 -0.37286,0.052 -0.56023,-0.002 z m -2.6957,-0.15948 c -0.0954,-0.0954 -0.16655,-0.74975 -0.20738,-1.9075 -0.0182,-0.51566 -0.0116,-0.70786 0.0283,-0.82572 l 0.052,-0.15362 0.33978,-0.0112 c 0.1974,-0.006 0.36007,0.005 0.38821,0.029 0.0336,0.0279 0.0547,0.23045 0.0688,0.66405 0.0111,0.34312 0.0323,0.65288 0.0468,0.68838 0.0265,0.0645 0.20768,0.14666 0.32369,0.14675 0.0547,3e-5 0.0601,-0.0815 0.0492,-0.73477 -0.007,-0.40438 0.004,-0.75038 0.0224,-0.76947 0.0524,-0.0524 0.69504,-0.0526 0.74734,-5.4e-4 0.0561,0.0561 0.0957,0.61644 0.13004,1.8389 0.0213,0.76264 0.0168,0.98064 -0.0221,1.02735 -0.0372,0.0448 -0.12773,0.0593 -0.37096,0.0593 -0.41574,0 -0.47539,-0.0484 -0.47539,-0.38593 v -0.23231 l -0.16149,-0.0724 c -0.0889,-0.0398 -0.17527,-0.0638 -0.19205,-0.0534 -0.0168,0.0104 -0.0307,0.15178 -0.0311,0.31423 0,0.16247 -0.016,0.31975 -0.0349,0.34954 -0.0534,0.0843 -0.62268,0.10795 -0.70156,0.029 z m 5.13447,-0.25368 c -0.22273,-0.0545 -0.42942,-0.18736 -0.4795,-0.3083 -0.0416,-0.10027 -0.0387,-0.14516 0.0191,-0.29966 0.0374,-0.0999 0.0813,-0.19906 0.0978,-0.22023 0.0163,-0.0211 0.0671,-0.13352 0.1127,-0.24964 0.17938,-0.45705 0.43619,-0.95913 0.50114,-0.97974 0.0851,-0.027 0.54597,0.15493 0.63136,0.24925 0.06,0.0664 0.0534,0.0968 -0.10899,0.50621 -0.0951,0.23958 -0.21482,0.53067 -0.26612,0.64684 -0.0513,0.11617 -0.1055,0.27798 -0.12048,0.35954 -0.0149,0.0816 -0.0685,0.18959 -0.11891,0.24004 -0.0985,0.0985 -0.0955,0.0979 -0.26805,0.0557 z m -2.01776,-1.85545 c -0.43807,-0.22091 -0.35277,-0.73351 0.13085,-0.7863 0.21136,-0.0231 0.35349,0.0374 0.44655,0.19006 0.092,0.15087 0.097,0.27964 0.0182,0.4681 -0.0949,0.227 -0.30846,0.27296 -0.59568,0.12814 z"
         id="path35"
         sodipodi:nodetypes="cssssssssssssssssscsssscsscssssssssssscssssssssccssssssssssscssssssssssssccsssssssssssssssssssssscsssssssssssssssssssscsssssscssssssssssssssssssssssssccsssscssssssssssscsssssssssssssscssssssssssscsssssssssssscssssssscssssssssssssssssssssssssssssssssssssssssssssssscssssssscsssssscsccssssscscsssscsscsccsssssssssssssssss" />
      <circle
         style="fill:none;stroke:#ff0000;stroke-width:0.1;stroke-dasharray:none"
         id="path788-8-1-8-1-9-2-2-9-1-6-9-2"
         cx="840.71863"
         cy="-253.96422"
         r="19.954653" />
      <ellipse
         style="fill:none;stroke:#ff00ff;stroke-width:0.1;stroke-dasharray:none;stroke-opacity:1"
         id="path1138-9-4-0-0-1-2-8-1-8-1-17-8"
         cx="840.71863"
         cy="-253.96422"
         rx="18.492125"
         ry="18.492126" />
      <circle
         style="fill:none;stroke:#0000ff;stroke-width:0.1;stroke-linecap:round;stroke-dasharray:none;stroke-opacity:1;paint-order:markers stroke fill"
         id="path13019-1-33-4-5-5-2-4-2"
         cx="840.71863"
         cy="-268.97519"
         r="2" />
    </g>
  </g>
</svg>
