<?xml version="1.0" encoding="UTF-8" standalone="no"?>
<!-- Created with Inkscape (http://www.inkscape.org/) -->

<svg
   width="41.008999mm"
   height="41.008999mm"
   viewBox="0 0 41.008999 41.008999"
   version="1.1"
   id="svg1"
   inkscape:version="1.4.2 (f4327f4, 2025-05-13)"
   sodipodi:docname="287.svg"
   xmlns:inkscape="http://www.inkscape.org/namespaces/inkscape"
   xmlns:sodipodi="http://sodipodi.sourceforge.net/DTD/sodipodi-0.dtd"
   xmlns="http://www.w3.org/2000/svg"
   xmlns:svg="http://www.w3.org/2000/svg">
  <sodipodi:namedview
     id="namedview1"
     pagecolor="#ffffff"
     bordercolor="#000000"
     borderopacity="0.25"
     inkscape:showpageshadow="2"
     inkscape:pageopacity="0.0"
     inkscape:pagecheckerboard="0"
     inkscape:deskcolor="#d1d1d1"
     inkscape:document-units="mm"
     inkscape:zoom="1.4513545"
     inkscape:cx="86.470947"
     inkscape:cy="-62.700049"
     inkscape:window-width="1050"
     inkscape:window-height="1081"
     inkscape:window-x="857"
     inkscape:window-y="0"
     inkscape:window-maximized="0"
     inkscape:current-layer="layer1" />
  <defs
     id="defs1" />
  <g
     inkscape:label="Layer 1"
     inkscape:groupmode="layer"
     id="layer1"
     transform="translate(333.37504,1257.5646)">
    <g
       id="g71"
       transform="translate(-1195.6816,-983.09588)">
      <path
         style="fill:#000000;stroke-width:0.1;stroke-dasharray:none"
         d="m 876.65709,-242.77626 c -0.76321,-0.0207 -1.93002,-0.0677 -2.22581,-0.0896 -0.46023,-0.0341 -1.0358,-0.0803 -1.14663,-0.092 -0.0519,-0.005 -0.17939,-0.0186 -0.28327,-0.0293 -0.21575,-0.0222 -0.61205,-0.0819 -0.80651,-0.12156 -0.21007,-0.0429 -0.27222,-0.13005 -0.13102,-0.18368 0.1137,-0.0432 0.49502,-0.0991 0.88357,-0.12949 0.0742,-0.005 0.28666,-0.0232 0.47214,-0.0388 0.50959,-0.0427 1.03407,-0.077 1.63226,-0.10688 1.16204,-0.0581 1.79412,-0.10538 1.79412,-0.13399 0,-0.0103 -0.0842,-0.065 -0.18715,-0.1214 -0.10296,-0.0565 -0.2807,-0.19168 -0.39502,-0.30056 -0.11431,-0.10888 -0.22013,-0.19036 -0.23517,-0.18107 -0.015,0.009 -0.0192,0.003 -0.009,-0.0123 0.0101,-0.0161 -0.0416,-0.10103 -0.11466,-0.18874 -0.36055,-0.43326 -0.61051,-0.89347 -0.69939,-1.28772 -0.23693,-1.05093 -0.11374,-1.85112 0.53369,-3.46685 0.0624,-0.1558 0.14114,-0.34399 0.17488,-0.41818 0.0337,-0.0742 0.10115,-0.22578 0.14976,-0.33683 0.0486,-0.11107 0.12152,-0.26283 0.162,-0.33724 0.26014,-0.47815 0.3828,-0.69664 0.48142,-0.85749 0.0616,-0.10042 0.11195,-0.19023 0.11195,-0.19957 0,-0.0323 0.19261,-0.25186 0.22109,-0.25186 0.10535,0 -0.12611,0.56067 -0.84093,2.03695 -0.48641,1.00457 -0.64323,1.44149 -0.72808,2.02862 -0.0393,0.27211 -0.0337,1.01195 0.009,1.21189 0.0843,0.39288 0.41378,0.89597 0.78767,1.20283 0.21094,0.17313 0.52223,0.39517 0.68555,0.48902 0.26512,0.15233 0.46487,0.257 0.64785,0.33948 0.11129,0.0501 0.26305,0.11888 0.33724,0.1527 0.46369,0.21134 1.24289,0.4499 1.79414,0.54927 0.73612,0.13271 0.95726,0.1466 2.02345,0.12714 0.52677,-0.01 1.00953,-0.0248 1.07277,-0.0336 l 0.11501,-0.0162 -0.016,-0.36809 c -0.017,-0.39467 -0.0184,-1.40341 -0.003,-1.51472 0.005,-0.0371 0.0184,-0.12816 0.0289,-0.20235 0.10219,-0.73504 0.41443,-1.48828 0.82842,-1.99856 0.30453,-0.37531 0.73291,-0.6525 1.32991,-0.86054 0.13254,-0.0461 0.24493,-0.0959 0.24982,-0.11056 0.005,-0.0147 -0.0301,-0.0495 -0.0775,-0.0777 -0.11681,-0.069 -0.54367,-0.50773 -0.8135,-0.8361 -0.12116,-0.14748 -0.29367,-0.35386 -0.38333,-0.45865 -0.0896,-0.10478 -0.18277,-0.2192 -0.20699,-0.25425 -0.10807,-0.15648 -0.51956,-0.57117 -0.55376,-0.55805 -0.0203,0.008 -0.0301,0.003 -0.022,-0.01 0.0231,-0.0376 -0.52903,-0.48396 -0.67342,-0.54428 -0.0147,-0.006 -0.10553,-0.0561 -0.20199,-0.11083 -0.42545,-0.24186 -1.77768,-0.7288 -2.42815,-0.87435 -0.0519,-0.0117 -0.1005,-0.0225 -0.10791,-0.0242 -0.008,-0.002 -0.0499,-0.0116 -0.0944,-0.0223 -0.52072,-0.12331 -1.33783,-0.17261 -1.64575,-0.0993 -0.19023,0.0453 -0.48309,0.13963 -0.49912,0.16079 -0.0324,0.0427 -0.15096,0.10908 -0.19486,0.10908 -0.0652,0 -0.0606,-0.074 0.0116,-0.18885 0.0328,-0.0519 0.0731,-0.11871 0.0897,-0.14838 0.35458,-0.63355 0.47107,-0.84733 0.64689,-1.1871 0.5043,-0.97451 0.58935,-1.13213 0.63322,-1.1736 0.008,-0.008 0.0484,-0.0592 0.09,-0.11512 0.12505,-0.16773 0.1413,-0.33683 0.10392,-1.08103 -0.0694,-1.38136 -0.0255,-1.73483 0.33239,-2.6754 0.0703,-0.18488 0.39963,-0.86087 0.44837,-0.92047 0.0157,-0.0191 0.0105,-0.0419 -0.0139,-0.0621 -0.12462,-0.10342 -0.45253,-0.69377 -0.48824,-0.87899 -0.0515,-0.26694 -0.0611,-0.37713 -0.0533,-0.60936 0.019,-0.56305 0.26405,-1.05272 0.6939,-1.38671 0.10531,-0.0818 0.20364,-0.14879 0.21847,-0.14879 0.0149,0 0.0462,-0.0163 0.0695,-0.0361 0.0235,-0.0198 0.12758,-0.0644 0.23144,-0.099 0.15553,-0.0519 0.26241,-0.0651 0.60572,-0.0749 0.45857,-0.013 0.61921,0.0104 0.86241,0.12642 0.13547,0.0646 0.46064,0.35432 0.6198,0.55221 0.0683,0.085 0.0267,0.0837 0.47512,0.0156 0.10387,-0.0157 0.23135,-0.034 0.28326,-0.0404 0.052,-0.007 0.13693,-0.0183 0.18889,-0.0263 0.0519,-0.008 0.13691,-0.0207 0.18886,-0.0281 0.0519,-0.008 0.30688,-0.0206 0.56656,-0.0292 0.43505,-0.0145 0.82436,0.0131 1.18709,0.0842 0.0371,0.008 0.10387,0.0202 0.14838,0.029 0.46656,0.0911 1.20329,0.40152 1.56507,0.6595 0.32939,0.23491 0.29149,0.22451 0.89109,0.24461 0.5365,0.0179 0.54197,0.0188 0.71279,0.10352 0.46454,0.23049 0.7358,0.51344 0.82464,0.86021 0.0434,0.16951 0.0534,0.27829 0.0815,0.88265 0.0104,0.22259 0.022,0.42291 0.0258,0.44516 0.003,0.0223 0.016,0.0951 0.0267,0.16188 0.0264,0.16498 0.0721,0.33474 0.18874,0.70148 0.0873,0.27474 0.0992,0.34577 0.10352,0.62051 0.0104,0.66315 -0.0179,1.00493 -0.12102,1.45689 -0.10651,0.46711 -0.31189,0.92771 -0.69941,1.56861 -0.29555,0.48879 -0.51688,0.90924 -0.57698,1.09597 -0.0539,0.16753 -0.0465,0.36871 0.0264,0.7139 0.0487,0.23061 0.0486,0.23736 -0.003,0.33336 -0.0859,0.16243 -0.3654,0.47117 -0.6208,0.68581 -0.329,0.27646 -0.37923,0.30902 -0.58715,0.38037 -0.11841,0.0406 -0.17645,0.0739 -0.16786,0.0963 0.008,0.0188 0.10953,0.17115 0.22736,0.33857 0.11787,0.16743 0.275,0.42584 0.34919,0.57422 0.17434,0.34863 0.32924,0.81354 0.32924,0.98809 0,0.15433 -0.081,0.42647 -0.19418,0.65316 -0.1438,0.28776 -0.14356,0.28224 -0.014,0.31463 0.57159,0.14277 0.94917,0.35605 1.30636,0.73791 0.15916,0.17012 0.35272,0.5021 0.41139,0.70563 0.017,0.0594 0.0507,0.17468 0.0747,0.25629 0.0329,0.11203 0.0435,0.26737 0.0439,0.63402 0,0.41795 -0.008,0.51948 -0.0614,0.72845 -0.15347,0.60387 -0.368,0.97163 -0.85609,1.46757 -0.10799,0.10975 -0.19119,0.20792 -0.18488,0.21817 0.006,0.0102 0.0681,0.0207 0.13719,0.0234 0.0691,0.003 0.1352,0.0107 0.14689,0.0179 0.0258,0.0159 0.6798,0.0588 1.42942,0.0937 0.3042,0.0142 0.63807,0.0318 0.74193,0.0392 0.10387,0.008 0.29812,0.0212 0.43167,0.0306 0.76023,0.0538 0.90077,0.0666 1.20059,0.10913 0.47905,0.0681 0.62052,0.11041 0.62052,0.18575 0,0.0213 -0.0212,0.0492 -0.0473,0.0622 -0.0858,0.0429 -0.68967,0.12777 -1.27477,0.179 -0.0667,0.006 -0.21247,0.0199 -0.32376,0.0314 -0.11129,0.0113 -0.21298,0.018 -0.22598,0.0146 -0.013,-0.003 -0.14051,0.006 -0.2833,0.021 -0.98581,0.10327 -1.71036,0.1141 -8.08367,0.12077 -3.41289,0.003 -6.34487,0.003 -6.51553,-0.002 z m 10.4661,-8.96989 c 0.29267,-0.0937 0.66716,-0.25762 0.81641,-0.35744 0.21601,-0.14445 0.22773,-0.20014 0.0798,-0.37925 -0.17712,-0.21431 -0.16853,-0.36561 0.0206,-0.36561 0.057,0 0.1161,-0.0152 0.1313,-0.0337 0.0255,-0.0311 0.0783,-0.20105 0.10274,-0.33041 0.0908,-0.48098 0.26453,-1.1019 0.3812,-1.36256 0.22009,-0.4917 0.38124,-0.77335 0.5441,-0.95102 0.0964,-0.10521 0.201,-0.13295 0.22873,-0.0607 0.008,0.0222 0.0283,0.0405 0.0437,0.0405 0.0357,0 0.13711,-0.16421 0.11924,-0.19313 -0.008,-0.0119 -0.003,-0.0431 0.0121,-0.0694 0.0327,-0.0612 0.0486,-0.16418 0.0983,-0.63518 0.0661,-0.62681 0.0456,-1.32368 -0.0533,-1.80716 -0.0687,-0.33582 -0.42015,-1.17223 -0.47773,-1.13665 -0.0187,0.0115 -0.0229,0.007 -0.0108,-0.0129 0.0193,-0.0312 -0.2496,-0.46234 -0.40564,-0.65048 -0.16801,-0.2026 -0.6004,-0.63487 -0.78774,-0.78752 -0.50576,-0.41211 -1.17456,-0.77168 -1.75858,-0.9455 -0.18115,-0.0539 -0.46855,-0.12012 -0.5396,-0.1243 -0.0223,-0.002 -0.29132,-0.0173 -0.59792,-0.0354 -0.63282,-0.0375 -1.54904,-0.003 -1.8572,0.0699 -0.0965,0.0229 -0.19967,0.047 -0.22932,0.0538 -0.0498,0.0113 -0.0538,0.033 -0.0508,0.27651 0.003,0.23658 -0.0189,0.5486 -0.054,0.77753 -0.0176,0.11394 -0.14134,0.43584 -0.21805,0.56676 -0.0813,0.13869 -0.34198,0.40752 -0.50002,0.51561 -0.0667,0.0456 -0.21854,0.13027 -0.33725,0.18797 l -0.21584,0.10494 -0.40468,-0.003 c -0.27006,-0.002 -0.481,-0.0186 -0.63403,-0.0502 -0.2667,-0.055 -0.31356,-0.0564 -0.36875,-0.0106 -0.0866,0.0719 -0.43472,0.84141 -0.48142,1.06417 -0.009,0.0433 -0.0355,0.31544 -0.0587,0.60479 -0.0352,0.43946 -0.0367,0.58323 -0.009,0.87298 0.018,0.19078 0.0426,0.37897 0.0548,0.41818 0.012,0.0392 0.0612,0.19271 0.10917,0.34109 l 0.0872,0.26981 0.63044,-0.009 c 0.59421,-0.008 0.64088,-0.005 0.81247,0.0516 0.23006,0.0765 0.87431,0.40319 1.1398,0.57803 0.19361,0.12749 0.78124,0.54828 0.80939,0.57961 0.008,0.008 0.12882,0.1106 0.26979,0.22746 0.29976,0.24849 0.60573,0.51913 0.88981,0.78702 0.21432,0.20215 0.616,0.56325 1.08206,0.97281 0.33058,0.2905 0.89439,0.7172 1.15141,0.8714 0.19078,0.11446 0.27583,0.12977 0.43609,0.0785 z m -0.55116,-1.6852 c -0.48402,-0.0335 -1.11916,-0.20985 -1.55856,-0.4325 -0.40093,-0.20317 -0.66725,-0.51004 -0.66725,-0.76888 0,-0.3399 0.28311,-0.5749 1.03873,-0.86228 0.38892,-0.14792 0.77364,-0.34186 1.25453,-0.63241 0.4765,-0.28789 0.53044,-0.31231 0.60981,-0.27615 0.0618,0.0282 0.14034,0.19713 0.16359,0.35185 0.008,0.0479 0.0226,0.13029 0.034,0.18303 0.029,0.13333 0.0291,1.2094 8e-5,1.45543 -0.0354,0.30026 -0.0396,0.32321 -0.0907,0.49796 -0.0605,0.20688 -0.16393,0.41036 -0.22517,0.44314 -0.0578,0.0309 -0.37162,0.0538 -0.55903,0.0408 z"
         id="path32" />
      <circle
         style="fill:none;stroke:#ff0000;stroke-width:0.1;stroke-dasharray:none"
         id="path788-8-1-8-1-9-2-2-9-1-6-9-29"
         cx="882.81104"
         cy="-253.96422"
         r="19.954653" />
      <ellipse
         style="fill:none;stroke:#ff00ff;stroke-width:0.1;stroke-dasharray:none;stroke-opacity:1"
         id="path1138-9-4-0-0-1-2-8-1-8-1-17-7"
         cx="882.81104"
         cy="-253.96422"
         rx="18.492125"
         ry="18.492126" />
      <circle
         style="fill:none;stroke:#0000ff;stroke-width:0.1;stroke-linecap:round;stroke-dasharray:none;stroke-opacity:1;paint-order:markers stroke fill"
         id="path13019-1-33-4-5-5-2-4-3"
         cx="882.81104"
         cy="-268.97519"
         r="2" />
    </g>
  </g>
</svg>
