<?xml version="1.0" encoding="UTF-8" standalone="no"?>
<!-- Created with Inkscape (http://www.inkscape.org/) -->

<svg
   width="41.008999mm"
   height="41.008999mm"
   viewBox="0 0 41.008999 41.008999"
   version="1.1"
   id="svg1"
   inkscape:version="1.4.2 (f4327f4, 2025-05-13)"
   sodipodi:docname="288.svg"
   xmlns:inkscape="http://www.inkscape.org/namespaces/inkscape"
   xmlns:sodipodi="http://sodipodi.sourceforge.net/DTD/sodipodi-0.dtd"
   xmlns="http://www.w3.org/2000/svg"
   xmlns:svg="http://www.w3.org/2000/svg">
  <sodipodi:namedview
     id="namedview1"
     pagecolor="#ffffff"
     bordercolor="#000000"
     borderopacity="0.25"
     inkscape:showpageshadow="2"
     inkscape:pageopacity="0.0"
     inkscape:pagecheckerboard="0"
     inkscape:deskcolor="#d1d1d1"
     inkscape:document-units="mm"
     inkscape:zoom="1.4513545"
     inkscape:cx="86.470947"
     inkscape:cy="-62.700049"
     inkscape:window-width="1050"
     inkscape:window-height="1081"
     inkscape:window-x="857"
     inkscape:window-y="0"
     inkscape:window-maximized="0"
     inkscape:current-layer="layer1" />
  <defs
     id="defs1" />
  <g
     inkscape:label="Layer 1"
     inkscape:groupmode="layer"
     id="layer1"
     transform="translate(333.37504,1257.5646)">
    <g
       id="g70"
       transform="translate(-1237.9888,-983.09588)">
      <path
         style="fill:#000000;stroke-width:0.1;stroke-dasharray:none"
         d="m 920.03685,-241.08072 c -0.0136,-0.0136 -0.14721,-0.0208 -0.29697,-0.016 -0.33937,0.0108 -0.44912,-0.0344 -0.5822,-0.23981 -0.10183,-0.15717 -0.1493,-0.18101 -0.3628,-0.18227 -0.18725,-0.001 -1.20504,-0.11057 -1.53494,-0.16509 -0.14746,-0.0244 -0.35695,-0.0739 -0.46552,-0.11 -0.25794,-0.0858 -0.26673,-0.1525 -0.0317,-0.24044 0.25787,-0.0965 1.65748,-0.27299 2.22824,-0.28102 l 0.26759,-0.004 -0.14789,-0.10216 c -0.47436,-0.32771 -0.63223,-0.45414 -0.89466,-0.71645 -0.75995,-0.75971 -1.26417,-1.69838 -1.57291,-2.92827 -0.13287,-0.52937 -0.15744,-0.67491 -0.21357,-1.26532 -0.0836,-0.87946 -0.0499,-2.16717 0.0773,-2.94849 0.0898,-0.55177 0.37248,-1.55599 0.56088,-1.9927 l 0.0498,-0.11534 -0.12655,0.0799 c -0.15568,0.0983 -0.48815,0.33394 -0.78449,0.55607 -0.12247,0.0918 -0.22929,0.16029 -0.23736,0.15221 -0.0214,-0.0215 0.52662,-0.48561 0.94208,-0.79761 0.31514,-0.23667 0.3712,-0.29258 0.45026,-0.44922 0.0497,-0.0984 0.0903,-0.18457 0.0903,-0.19148 0,-0.007 -0.0572,0.007 -0.12708,0.0312 -0.0699,0.0241 -0.16948,0.0396 -0.22131,0.0346 l -0.0942,-0.009 0.007,-0.18539 c 0.009,-0.23514 0.17049,-1.18605 0.2654,-1.55983 0.0487,-0.1918 0.0609,-0.28473 0.0374,-0.28469 -0.26109,5e-4 -2.97791,0.1826 -3.46908,0.23252 -0.29556,0.03 -0.20277,-0.0159 0.13449,-0.0666 0.42408,-0.0637 1.96075,-0.21785 2.56706,-0.2575 0.28543,-0.0187 0.59036,-0.041 0.67763,-0.0495 l 0.15868,-0.0156 0.0462,-0.15826 c 0.0591,-0.20253 0.29215,-0.88877 0.39525,-1.16372 0.0437,-0.11648 0.0763,-0.21358 0.0724,-0.21577 -0.004,-0.002 -0.25427,-0.0493 -0.55648,-0.10459 -0.30221,-0.0553 -0.79673,-0.14645 -1.09894,-0.20248 -0.30221,-0.056 -0.65591,-0.11817 -0.78602,-0.13808 -0.2748,-0.042 -0.32607,-0.10351 -0.0611,-0.0732 0.28533,0.0326 1.57277,0.22333 2.07929,0.30796 0.25796,0.0431 0.47958,0.0669 0.49248,0.0529 0.0129,-0.014 0.11975,-0.23153 0.23743,-0.48338 0.11769,-0.25183 0.28241,-0.58078 0.36603,-0.73098 l 0.15202,-0.27308 -0.14114,-0.0748 c -0.7257,-0.38449 -1.2681,-1.05035 -1.47401,-1.80949 -0.0997,-0.36744 -0.1004,-1.00184 -0.003,-1.36468 0.24058,-0.88335 0.92842,-1.57595 1.79925,-1.81173 0.34217,-0.0926 0.90144,-0.0928 1.27228,-2.5e-4 0.34935,0.0871 0.73889,0.26072 1.0606,0.47269 0.27457,0.18091 0.77058,0.60064 0.79978,0.6768 0.028,0.0736 0.071,0.0569 0.2629,-0.1026 0.2595,-0.21599 0.6873,-0.47314 1.1764,-0.7071 0.5488,-0.2626 0.6447,-0.29692 0.6933,-0.24829 0.027,0.0273 0.029,0.0592 0.01,0.1206 l -0.032,0.0835 0.6892,-0.17057 c 0.3791,-0.0938 0.8253,-0.22154 0.9916,-0.28384 0.3076,-0.11526 0.3845,-0.12148 0.3845,-0.031 0,0.0633 -0.2164,0.38767 -0.3569,0.53476 -0.1209,0.12671 -0.1109,0.13595 0.1585,0.14599 0.5095,0.019 1.0934,0.25661 1.5139,0.6162 l 0.1708,0.14601 0.1956,-0.19943 c 0.6914,-0.70528 1.4724,-1.08592 2.317,-1.12931 1.0662,-0.0548 2.0495,0.58394 2.4514,1.59227 0.158,0.39661 0.1831,0.5316 0.1843,0.99209 0,0.49725 -0.057,0.74379 -0.2852,1.20578 -0.2444,0.49498 -0.6355,0.92601 -1.0904,1.20177 -0.1748,0.10602 -0.1866,0.11976 -0.1487,0.17403 0.085,0.12135 0.3826,0.65334 0.5968,1.06629 0.122,0.23505 0.2246,0.43058 0.2281,0.43451 0,0.004 0.1496,-0.0198 0.3247,-0.0528 0.6192,-0.11652 2.4994,-0.37836 2.526,-0.35176 0.025,0.0249 -0.058,0.0449 -0.4981,0.11993 -0.5926,0.10116 -1.2563,0.22317 -1.8233,0.33521 l -0.4802,0.0949 0.089,0.19842 c 0.1131,0.25239 0.3051,0.77126 0.397,1.07259 l 0.071,0.23313 0.4154,0.0207 c 0.7298,0.0363 2.482,0.20029 3.1086,0.2909 0.1138,0.0164 0.224,0.0302 0.245,0.0305 0.021,2.5e-4 0.038,0.0158 0.038,0.0344 0,0.0198 -0.029,0.0268 -0.069,0.0169 -0.1703,-0.042 -3.6866,-0.26555 -3.6855,-0.23426 0,0.009 0.048,0.22171 0.1056,0.47355 0.1164,0.50699 0.2519,1.4396 0.2209,1.52035 -0.025,0.0646 -0.1661,0.0675 -0.3635,0.008 -0.1261,-0.0383 -0.1412,-0.038 -0.1259,0.002 0.01,0.0249 0.095,0.0982 0.1891,0.16289 0.6094,0.4175 1.5664,1.19526 1.4984,1.2179 -0.019,0.006 -0.071,-0.0227 -0.1158,-0.0644 -0.1507,-0.14029 -1.0833,-0.80125 -1.3426,-0.95152 -0.022,-0.0128 0,0.0572 0.05,0.15546 0.3517,0.69683 0.6399,1.81674 0.7372,2.86466 0.04,0.429 0.04,1.48808 0,1.92314 -0.1739,1.91469 -0.7,3.32266 -1.644,4.39994 -0.1344,0.15341 -0.3896,0.39961 -0.567,0.54712 -0.1775,0.1475 -0.3227,0.28035 -0.3227,0.29523 0,0.0149 -0.012,0.0195 -0.027,0.0102 -0.015,-0.009 -0.06,0.009 -0.099,0.0409 l -0.071,0.0578 0.1674,0.018 c 0.092,0.01 0.346,0.0326 0.5643,0.0505 1.0875,0.0891 1.7857,0.23136 1.7857,0.36381 0,0.10772 -0.7304,0.25653 -1.6484,0.33581 -0.7345,0.0634 -0.6862,0.0523 -0.7282,0.16851 -0.084,0.23297 -0.3871,0.37645 -0.676,0.32026 -0.087,-0.017 -0.1743,-0.015 -0.2385,0.005 -0.056,0.0176 -0.1587,0.0233 -0.229,0.0126 -0.1729,-0.0264 -0.2551,-0.0266 -0.4232,-0.001 -0.084,0.0129 -0.182,0.008 -0.2381,-0.0114 -0.065,-0.0227 -0.1444,-0.0238 -0.2506,-0.004 -0.2272,0.0431 -0.3761,-0.006 -0.544,-0.17946 l -0.1376,-0.14216 -0.6102,0.0205 c -0.8418,0.0282 -5.131,0.0342 -5.5607,0.008 l -0.3503,-0.0216 -0.092,0.11176 c -0.13929,0.16901 -0.23432,0.20532 -0.53855,0.20579 -0.14597,2.3e-4 -0.34098,7.6e-4 -0.43332,0.001 -0.0923,5.1e-4 -0.21597,-0.001 -0.27472,-0.003 -0.0588,-0.002 -0.17558,0.004 -0.25958,0.0148 -0.084,0.0103 -0.16382,0.008 -0.17737,-0.006 z m 0.3225,-0.32204 c 0.0376,-0.0434 0.0534,-0.11405 0.0534,-0.23782 0,-0.1838 0.0485,-0.26765 0.13537,-0.23429 0.0607,0.0233 0.11368,0.23509 0.10264,0.4104 l -0.009,0.14406 0.1035,-0.005 c 0.21421,-0.0103 0.29085,-0.18263 0.23315,-0.52423 -0.0186,-0.1109 -0.0144,-0.12705 0.0346,-0.12664 0.0747,5e-4 0.11544,0.0304 0.16173,0.11826 0.0918,0.17411 0.0953,0.27473 0.0164,0.4689 -0.0174,0.0429 -0.006,0.0534 0.0594,0.0534 0.12574,0 0.24842,-0.0787 0.29508,-0.18935 0.0847,-0.20089 0.0406,-0.57358 -0.10877,-0.91722 -0.0181,-0.042 -0.008,-0.0534 0.0463,-0.0534 0.0383,0 0.0942,0.0223 0.12424,0.0495 0.0505,0.0457 0.07,0.0453 0.25336,-0.004 0.2233,-0.0605 0.3738,-0.0518 0.7855,0.0452 0.7915,0.18654 1.7418,0.30642 2.429,0.30642 0.6986,0 1.4937,-0.10056 2.4038,-0.30406 0.4702,-0.10513 0.6,-0.11217 0.8532,-0.0462 0.1601,0.0417 0.184,0.0417 0.2301,0 0.042,-0.0377 0.1852,-0.0681 0.1836,-0.0389 -2e-4,0.004 -0.041,0.12439 -0.091,0.26711 -0.099,0.28389 -0.1153,0.49466 -0.049,0.65216 0.056,0.13435 0.1873,0.23309 0.3095,0.23309 h 0.099 l -0.044,-0.12877 c -0.055,-0.15975 -0.032,-0.29805 0.071,-0.4198 0.1254,-0.14896 0.1519,-0.12266 0.1502,0.1491 0,0.21202 0.01,0.25085 0.07,0.31742 0.069,0.0736 0.1966,0.11916 0.2628,0.0939 0.02,-0.008 0.029,-0.0924 0.023,-0.21962 -0.01,-0.16862 0,-0.22074 0.049,-0.27957 0.097,-0.12002 0.1504,-0.0658 0.1653,0.16854 0.011,0.17726 0.024,0.21465 0.097,0.27711 0.1063,0.0914 0.1562,0.0909 0.2498,-0.003 0.094,-0.0937 0.098,-0.25225 0.013,-0.44093 -0.034,-0.0738 -0.053,-0.14221 -0.043,-0.1519 0.038,-0.0378 0.2459,0.10864 0.2981,0.20987 0.042,0.0804 0.051,0.14644 0.038,0.2671 l -0.017,0.16026 h 0.1087 c 0.2078,0 0.3498,-0.13127 0.3498,-0.32347 0,-0.12973 -0.094,-0.28089 -0.3782,-0.60757 -0.044,-0.0504 -0.08,-0.11469 -0.08,-0.14294 0,-0.0515 0.1107,-0.10755 0.1449,-0.0733 0.01,0.0101 0.058,-0.0608 0.1057,-0.15747 0.072,-0.14425 0.1727,-0.25232 0.5635,-0.6031 0.2618,-0.23505 0.5547,-0.52353 0.6509,-0.64105 0.5175,-0.63261 0.9213,-1.44273 1.1716,-2.35051 0.226,-0.82009 0.3066,-1.53669 0.2848,-2.53366 -0.018,-0.84674 -0.098,-1.46379 -0.2793,-2.17267 -0.1,-0.39048 -0.1873,-0.65713 -0.5109,-1.55894 -0.1009,-0.28107 -0.147,-0.34727 -0.147,-0.21076 0,0.101 -0.1264,0.27736 -0.2071,0.289 -0.065,0.009 -0.068,-5e-4 -0.07,-0.22894 v -0.23871 l -0.042,0.19498 c -0.053,0.24574 -0.1271,0.47225 -0.2049,0.62923 -0.1085,0.21868 -0.3616,0.4981 -0.5771,0.63699 l -0.089,0.057 0.058,0.0983 c 0.032,0.054 0.082,0.1383 0.1112,0.18722 l 0.053,0.0889 -0.072,-0.0769 c -0.04,-0.0423 -0.1026,-0.1157 -0.1398,-0.1631 l -0.068,-0.0862 -0.3139,0.15305 c -0.7566,0.36887 -2.2015,0.71145 -3.977,0.94286 -0.5806,0.0757 -0.7318,0.0836 -1.6026,0.0837 -0.8468,1.1e-4 -1.0491,-0.01 -1.6942,-0.0828 -1.1898,-0.13472 -2.73674,-0.42959 -3.50319,-0.66771 -0.29936,-0.093 -0.83288,-0.31217 -0.89101,-0.36601 -0.0575,-0.0532 -0.11128,-0.0245 -0.20611,0.11004 -0.12819,0.18184 -0.15082,0.14873 -0.0306,-0.0447 l 0.0949,-0.15265 -0.0673,-0.0356 c -0.22937,-0.12136 -0.52223,-0.45634 -0.64521,-0.73802 -0.0691,-0.15831 -0.14673,-0.43474 -0.19437,-0.69226 -0.0242,-0.13069 -0.0266,-0.12355 -0.0487,0.14689 -0.0249,0.30537 -0.0621,0.36379 -0.16938,0.26671 -0.0522,-0.0472 -0.0835,-0.10981 -0.13746,-0.27452 -0.0174,-0.0529 -0.0261,-0.0485 -0.08,0.0403 -0.0333,0.0548 -0.12787,0.26693 -0.21013,0.47144 -0.35275,0.87719 -0.56554,1.72747 -0.65839,2.63078 -0.0519,0.50477 -0.0583,1.4859 -0.0128,1.956 0.12225,1.26402 0.48767,2.36133 1.0768,3.23343 0.30836,0.45645 0.5503,0.71193 1.06397,1.12346 0.3429,0.27472 0.54965,0.49428 0.62387,0.66255 0.0408,0.0924 0.0631,0.1131 0.0999,0.0925 0.0531,-0.0297 0.1558,0.0127 0.1558,0.0643 0,0.018 -0.0652,0.10436 -0.14499,0.19182 -0.21725,0.23824 -0.31624,0.396 -0.33466,0.53329 -0.0149,0.11094 -0.006,0.13443 0.0911,0.23118 0.0953,0.0953 0.12577,0.10769 0.26444,0.10769 0.14553,0 0.15449,-0.004 0.12517,-0.059 -0.0505,-0.0944 -0.0369,-0.31349 0.0259,-0.41654 0.0572,-0.0939 0.23113,-0.1922 0.27041,-0.15292 0.0113,0.0114 0.003,0.0509 -0.0212,0.0878 -0.068,0.10887 -0.0889,0.25721 -0.055,0.39058 0.0471,0.18569 0.21182,0.2264 0.3358,0.083 z m 0.80131,-5.07544 c -0.18624,-0.0474 -0.38344,-0.13768 -0.56035,-0.25644 -0.13172,-0.0884 -0.13351,-0.0887 -0.19234,-0.0299 -0.0404,0.0404 -0.0808,0.053 -0.1265,0.0394 -0.25013,-0.0745 -0.65647,-0.44105 -0.89121,-0.80393 -0.16646,-0.2573 -0.31272,-0.61944 -0.36926,-0.91424 -0.0237,-0.1232 -0.043,-0.23653 -0.043,-0.25184 0,-0.0577 0.0527,-0.0247 0.0894,0.0561 0.0947,0.20828 0.57303,0.87324 0.81336,1.13078 0.1456,0.15602 0.26991,0.27848 0.27626,0.27213 0.006,-0.006 -0.009,-0.0791 -0.034,-0.16158 -0.0706,-0.2328 -0.0565,-0.2481 0.0887,-0.0965 0.16235,0.16945 0.51568,0.43396 0.76246,0.57081 0.17737,0.0984 0.17969,0.0988 0.16024,0.0277 -0.0108,-0.0396 -0.0283,-0.12702 -0.0389,-0.19418 l -0.0192,-0.1221 0.11836,0.10941 c 0.15112,0.13967 0.28689,0.24164 0.32176,0.24164 0.0154,0 0.0184,-0.0872 0.007,-0.19842 -0.0134,-0.12961 -0.009,-0.19842 0.0113,-0.19842 0.0174,0 0.0914,0.0342 0.16447,0.076 0.20024,0.11446 0.21194,0.10317 0.13434,-0.12937 -0.085,-0.25386 -0.115,-0.40447 -0.081,-0.40447 0.014,0 0.061,0.028 0.1048,0.0623 l 0.079,0.0623 -0.06,-0.17416 c -0.068,-0.19725 -0.059,-0.23668 0.03,-0.13032 0.053,0.0631 0.049,0.0358 -0.031,-0.20173 -0.051,-0.1511 -0.1122,-0.35328 -0.1372,-0.44927 -0.025,-0.096 -0.0544,-0.19765 -0.0652,-0.22589 -0.0164,-0.0429 -0.006,-0.0479 0.0624,-0.0307 l 0.082,0.0206 -0.048,-0.11523 c -0.06,-0.14319 -0.26441,-0.49487 -0.40064,-0.68767 -0.0564,-0.0798 -0.10249,-0.15239 -0.10249,-0.16134 0,-0.0314 0.11715,0.0469 0.28621,0.19127 0.38912,0.33227 0.67462,0.86683 0.53662,1.00484 -0.022,0.0222 0,0.10995 0.062,0.28847 0.089,0.24346 0.2141,0.68587 0.2141,0.75818 0,0.0185 -0.048,0.0565 -0.1068,0.0845 -0.123,0.0587 -0.1213,0.0522 -0.061,0.2228 0.025,0.0714 0.046,0.14808 0.046,0.17044 0,0.0517 -0.2435,0.19587 -0.3308,0.19587 -0.055,0 -0.066,0.0178 -0.066,0.10311 0,0.13258 -0.058,0.1787 -0.21171,0.16762 -0.0851,-0.006 -0.13514,0.006 -0.16183,0.0403 -0.0575,0.0732 -0.14333,0.0845 -0.31332,0.0412 z m 7.62069,-0.038 c -0.022,-0.0397 -0.063,-0.05 -0.1711,-0.0434 -0.1722,0.0106 -0.2302,-0.0316 -0.2302,-0.16771 0,-0.0929 -0.01,-0.10311 -0.087,-0.10311 -0.054,0 -0.1293,-0.0374 -0.2001,-0.0992 l -0.1137,-0.0992 0.038,-0.16387 c 0.041,-0.17536 0.043,-0.17073 -0.1156,-0.26641 -0.051,-0.0308 -0.052,-0.0464 -0.014,-0.19842 0.023,-0.0907 0.088,-0.31294 0.1461,-0.49379 0.095,-0.29629 0.1013,-0.33923 0.067,-0.43417 -0.082,-0.22711 0.1357,-0.61132 0.5566,-0.98164 0.1211,-0.10658 0.2329,-0.19379 0.2486,-0.19379 0.016,0 -0.018,0.0652 -0.076,0.145 -0.1247,0.17359 -0.2723,0.43649 -0.3734,0.66514 l -0.074,0.16706 0.078,-0.0196 c 0.075,-0.0188 0.077,-0.0155 0.056,0.0838 -0.012,0.0568 -0.075,0.2694 -0.1407,0.47235 -0.066,0.20294 -0.119,0.38021 -0.119,0.39393 0,0.0137 0.028,2e-5 0.061,-0.0305 0.086,-0.0778 0.1,-0.0459 0.046,0.10702 -0.051,0.14473 -0.042,0.18207 0.03,0.1221 0.026,-0.0216 0.054,-0.0321 0.063,-0.0233 0.024,0.0242 -0.049,0.29825 -0.1156,0.43076 -0.032,0.0646 -0.05,0.12582 -0.04,0.13608 0.01,0.0103 0.1014,-0.0268 0.2025,-0.0824 0.1011,-0.0556 0.1887,-0.0962 0.1947,-0.0902 0.01,0.006 0,0.0967 -0.012,0.20155 -0.02,0.1693 -0.017,0.19069 0.03,0.19069 0.029,0 0.1314,-0.0717 0.2272,-0.15924 l 0.1743,-0.15923 -0.019,0.0982 c -0.01,0.054 -0.027,0.13939 -0.037,0.18976 -0.01,0.0504 -0.01,0.0916 0,0.0916 0.08,0 0.5775,-0.35425 0.8447,-0.60129 l 0.1917,-0.17712 -0.02,0.12706 c -0.011,0.0699 -0.029,0.15231 -0.04,0.18316 -0.028,0.0806 0.2394,-0.18114 0.4423,-0.43233 0.2144,-0.26543 0.3198,-0.4192 0.5073,-0.74026 0.081,-0.13851 0.1576,-0.25183 0.1704,-0.25183 0.035,0 0,0.2293 -0.083,0.51894 -0.1674,0.595 -0.546,1.11534 -1.002,1.37686 -0.1719,0.0986 -0.2358,0.10845 -0.2889,0.0444 -0.031,-0.0375 -0.06,-0.0289 -0.1961,0.0581 -0.3599,0.23019 -0.7412,0.32854 -0.8084,0.20848 z m -2.0802,-4.03555 c 1.4817,-0.15571 2.8,-0.50326 3.7951,-1.00051 l 0.3305,-0.16512 -0.1146,-0.12833 c -0.1665,-0.18659 -0.663,-0.6488 -0.9279,-0.86382 -0.7395,-0.60031 -1.7048,-1.15505 -2.5712,-1.47754 -0.1947,-0.0725 -0.2286,-0.10474 -0.1764,-0.1677 0.03,-0.0362 0.072,-0.0294 0.2698,0.0444 0.7545,0.2811 1.5703,0.73868 2.2586,1.26683 0.1961,0.15053 0.5811,0.49759 0.8555,0.77125 l 0.499,0.49755 0.1461,-0.10728 c 0.1688,-0.12388 0.3326,-0.29819 0.4398,-0.46805 0.078,-0.12296 0.2398,-0.55686 0.273,-0.73047 0.018,-0.0948 0.012,-0.10259 -0.1405,-0.18023 -0.9993,-0.50842 -2.6562,-1.07601 -4.1389,-1.41786 -0.4211,-0.0971 -0.5128,-0.14169 -0.4404,-0.21411 0.051,-0.0514 1.4581,0.28998 2.2982,0.55772 0.7327,0.23349 1.4674,0.52072 2.0694,0.80901 0.1896,0.0908 0.3579,0.15691 0.374,0.14696 0.016,-0.01 0.029,-0.0722 0.029,-0.1384 0,-0.0662 0.014,-0.1203 0.031,-0.1203 0.039,0 0.2131,0.27081 0.2131,0.33158 0,0.0247 0.01,0.0377 0.016,0.0289 0.02,-0.0202 -0.063,-0.78303 -0.1095,-0.99744 -0.019,-0.0885 -0.027,-0.16797 -0.019,-0.17654 0.027,-0.0273 0.3569,0.39324 0.4822,0.61505 0.066,0.11752 0.1138,0.17934 0.1053,0.13737 -0.01,-0.042 -0.043,-0.24116 -0.077,-0.44263 -0.034,-0.20147 -0.093,-0.48308 -0.1306,-0.62579 l -0.069,-0.25947 -0.5647,-0.0197 c -0.3106,-0.0108 -1.4507,-0.0361 -2.5337,-0.0562 -1.0829,-0.0201 -1.981,-0.0481 -1.9958,-0.0622 -0.015,-0.0142 -0.018,-0.0495 -0.01,-0.0785 0.019,-0.0493 0.1054,-0.0515 1.309,-0.0336 0.7089,0.0106 1.8351,0.0354 2.5027,0.0553 0.6677,0.0199 1.2219,0.0281 1.2317,0.0183 0.023,-0.0228 -0.1373,-0.53978 -0.3169,-1.02367 -0.1357,-0.36565 -0.1417,-0.37542 -0.2183,-0.35611 -0.043,0.0109 -0.3398,0.0728 -0.6588,0.13751 -1.1273,0.22866 -1.6688,0.35117 -3.1113,0.70385 -0.4687,0.11462 -0.8637,0.20136 -0.8776,0.19275 -0.049,-0.0306 -0.024,-0.10554 0.044,-0.13167 0.2847,-0.10825 2.6344,-0.65389 4.1046,-0.95318 0.2907,-0.0592 0.4961,-0.11533 0.4961,-0.13565 0,-0.0488 -0.5348,-1.09845 -0.7374,-1.4473 -0.4312,-0.74237 -0.867,-1.39027 -1.1035,-1.64032 -0.051,-0.0543 -0.087,-0.10555 -0.078,-0.11387 0.01,-0.008 0.1236,0.0184 0.2561,0.0593 0.1326,0.0409 0.2459,0.0696 0.2517,0.0638 0.01,-0.006 -0.1791,-0.13074 -0.4109,-0.27761 -0.5024,-0.31832 -0.762,-0.51325 -0.7866,-0.59063 -0.01,-0.0312 0,-0.0932 0.013,-0.13783 0.021,-0.0557 0.02,-0.13068 0,-0.23945 -0.019,-0.0872 -0.026,-0.26745 -0.017,-0.40104 0.014,-0.20458 0.037,-0.28333 0.1451,-0.5018 0.1778,-0.35885 0.4262,-0.60118 0.8028,-0.78325 0.3385,-0.16367 0.5825,-0.21029 1.0166,-0.19422 l 0.3218,0.0119 -0.1326,-0.0564 c -0.3278,-0.13951 -0.5702,-0.18217 -0.94,-0.16545 -0.3992,0.018 -0.6105,0.0754 -0.9897,0.26849 -0.3652,0.18597 -0.6401,0.37968 -1.155,0.81384 l -0.2355,0.19852 0.1321,0.17172 c 0.1437,0.18677 0.2622,0.37157 0.2624,0.40907 0,0.013 -0.088,-0.051 -0.1955,-0.14225 -0.6713,-0.56951 -1.4467,-0.8351 -2.1916,-0.75072 -0.316,0.0358 -0.5904,0.0974 -0.8107,0.1819 -0.2357,0.0904 -0.2534,0.0749 -0.088,-0.0774 0.1833,-0.16866 0.4557,-0.32241 0.7369,-0.4158 l 0.2136,-0.071 -0.122,-0.0102 c -0.2009,-0.0168 -0.7599,0.0529 -1.0695,0.13335 -0.1593,0.0414 -0.3061,0.0753 -0.3261,0.0753 -0.02,0 0.018,-0.056 0.084,-0.12451 0.1284,-0.13254 0.391,-0.30026 0.5732,-0.36615 0.1894,-0.0685 0.105,-0.0622 -0.2569,0.019 -0.4344,0.0976 -0.9917,0.27399 -1.3977,0.44251 -0.171,0.071 -0.3175,0.12239 -0.3255,0.11432 -0.01,-0.008 0.083,-0.0992 0.2015,-0.20258 0.1189,-0.10335 0.2092,-0.18791 0.2007,-0.18791 -0.01,0 -0.1903,0.0903 -0.4041,0.20062 -0.4421,0.22822 -0.9759,0.57349 -1.158,0.74899 -0.068,0.0653 -0.1336,0.1188 -0.1463,0.1188 -0.013,0 0.012,-0.0598 0.055,-0.13291 l 0.078,-0.13292 -0.1453,-0.13512 c -0.53334,-0.49594 -1.17855,-0.89908 -1.70214,-1.0635 -0.4518,-0.14187 -0.99975,-0.11375 -1.4036,0.072 l -0.15323,0.0705 0.29127,-0.0144 c 0.38639,-0.0191 0.67519,0.0329 0.96813,0.1746 0.70377,0.34033 1.08433,0.98771 0.98267,1.67159 -0.0234,0.15797 -0.0234,0.23736 0,0.28209 0.0754,0.14095 -0.0552,0.26543 -0.78512,0.74807 -0.22244,0.1471 -0.40445,0.27201 -0.40445,0.27758 0,0.006 0.11676,-0.0293 0.25946,-0.0776 0.1427,-0.0482 0.25945,-0.0776 0.25945,-0.0652 0,0.0124 -0.064,0.11042 -0.14217,0.2179 -0.28747,0.39509 -0.67776,1.08302 -1.0412,1.8353 -0.25847,0.53499 -0.51004,1.12137 -0.48978,1.14162 0.008,0.008 0.37087,0.0894 0.8059,0.18039 1.28743,0.26933 1.61236,0.34163 2.47421,0.55055 1.1473,0.27807 1.4179,0.3542 1.4371,0.40433 0.039,0.10171 -0.046,0.10489 -0.3922,0.0147 -0.1909,-0.0497 -0.615,-0.15344 -0.9424,-0.23046 -1.50901,-0.35499 -2.05603,-0.47761 -2.88302,-0.64625 -0.5036,-0.10269 -0.55079,-0.10764 -0.58467,-0.0613 -0.0689,0.0941 -0.45303,1.33569 -0.42274,1.36619 0.005,0.005 0.28777,-5e-4 0.62918,-0.0113 1.34243,-0.0429 3.78265,-0.0917 4.10075,-0.082 0.3156,0.01 0.3363,0.0142 0.345,0.0753 0.011,0.0739 0.2108,0.0658 -3.39762,0.13699 -0.94019,0.0185 -1.71385,0.0377 -1.71921,0.0426 -0.0419,0.0383 -0.29554,1.35285 -0.26661,1.38177 0.009,0.009 0.0169,-0.003 0.0169,-0.0263 1e-4,-0.0939 0.55179,-0.83088 0.59096,-0.78953 0.007,0.008 -0.005,0.10295 -0.0277,0.21209 -0.0571,0.27886 -0.136,0.82813 -0.136,0.94732 0,0.0934 0.007,0.0871 0.0992,-0.0955 0.11796,-0.23251 0.18649,-0.25503 0.20017,-0.0658 0.005,0.0714 0.0189,0.12974 0.0304,0.12974 0.0116,0 0.17216,-0.0745 0.35693,-0.16549 0.97015,-0.47789 2.27153,-0.91862 3.78408,-1.28149 0.5813,-0.13948 0.6251,-0.1415 0.6266,-0.0289 2e-4,0.02 -0.1538,0.0701 -0.3582,0.11641 -1.48546,0.33643 -2.75666,0.7614 -3.9843,1.33196 l -0.42037,0.19539 0.0186,0.13737 c 0.0553,0.40606 0.21222,0.74414 0.46051,0.99216 0.10088,0.10077 0.23424,0.21059 0.29639,0.24406 l 0.11295,0.0608 0.083,-0.10634 c 0.51918,-0.66567 1.32695,-1.35056 2.16563,-1.83617 0.45659,-0.26439 1.47279,-0.72822 1.59539,-0.72822 0.037,0 0.067,0.0983 0.039,0.12642 -0.014,0.0136 -0.1345,0.0643 -0.2688,0.11279 -0.3295,0.11898 -1.0641,0.47552 -1.40973,0.68419 -0.66577,0.40194 -1.24686,0.86037 -1.80294,1.42235 -0.40107,0.40534 -0.40946,0.35316 0.092,0.57246 0.68139,0.29802 1.53196,0.5469 2.49047,0.72877 0.7546,0.14315 1.4187,0.2251 2.2037,0.27191 0.4389,0.0262 1.6873,-0.0129 2.2284,-0.0698 z m -2.5903,-2.47758 c -0.155,-0.0621 -0.2589,-0.1666 -0.3436,-0.34581 -0.097,-0.20593 -0.1154,-0.42805 -0.052,-0.64415 l 0.036,-0.1221 0.024,0.15731 c 0.037,0.23461 0.1405,0.4869 0.2432,0.58958 0.2097,0.20974 0.4937,0.19079 0.7173,-0.0479 0.1824,-0.19471 0.2093,-0.32105 0.2097,-0.98864 v -0.56436 l -0.1622,-0.0821 c -0.5846,-0.29594 -0.751,-0.67219 -0.4188,-0.94668 0.1147,-0.0947 0.4087,-0.15542 0.7421,-0.15317 0.6281,0.004 0.9363,0.20097 0.8592,0.54849 -0.044,0.19818 -0.2156,0.36149 -0.5673,0.53957 l -0.163,0.0825 v 0.54565 c 0,0.30011 0.015,0.61431 0.033,0.69823 0.08,0.37523 0.4528,0.61977 0.7274,0.47777 0.2025,-0.1047 0.3318,-0.34101 0.3866,-0.70629 0.029,-0.19061 0.072,-0.11524 0.095,0.16632 0.024,0.27842 -0.04,0.4696 -0.2124,0.63762 -0.1578,0.15411 -0.2498,0.19098 -0.4746,0.19011 -0.2293,-0.001 -0.3868,-0.0763 -0.5587,-0.26752 l -0.1397,-0.15533 -0.1649,0.16936 c -0.091,0.0932 -0.2092,0.18845 -0.2632,0.21177 -0.1105,0.0477 -0.4442,0.0536 -0.5537,0.01 z m 1.2475,-2.28543 c 0.2286,-0.13582 0.3965,-0.29309 0.3965,-0.3715 0,-0.18003 -0.1347,-0.24678 -0.5346,-0.26492 -0.4864,-0.0221 -0.8086,0.0771 -0.8086,0.24898 0,0.0808 0.1671,0.24576 0.3816,0.37674 0.2704,0.16508 0.3042,0.16572 0.5651,0.0107 z m -3.4442,-1.17714 c -0.32782,-0.0921 -0.59108,-0.31082 -0.7589,-0.63066 -0.077,-0.14685 -0.0855,-0.19334 -0.0858,-0.46875 0,-0.28353 0.007,-0.32037 0.0989,-0.50742 0.19219,-0.3907 0.53473,-0.61171 0.9793,-0.6318 0.3708,-0.0168 0.6504,0.10145 0.9013,0.38111 0.2692,0.30004 0.3573,0.80097 0.2058,1.17014 -0.2144,0.52228 -0.8208,0.83328 -1.3405,0.68738 z m 0.7714,-1.16369 c 0.059,-0.0226 0.1388,-0.16747 0.1388,-0.25191 0,-0.0331 -0.036,-0.10249 -0.079,-0.15415 -0.1804,-0.21443 -0.509,-0.0497 -0.4567,0.22894 0.011,0.0565 0.049,0.12375 0.086,0.14942 0.068,0.0478 0.2229,0.0616 0.3111,0.0277 z m 5.0418,1.17553 c -0.1884,-0.0442 -0.472,-0.2104 -0.5895,-0.34548 -0.1447,-0.16621 -0.2762,-0.44764 -0.3007,-0.64334 -0.056,-0.44904 0.21,-0.92727 0.6424,-1.15445 0.1698,-0.0892 0.2054,-0.0963 0.4884,-0.0966 0.2678,-2.5e-4 0.3267,0.01 0.4798,0.0814 0.2445,0.11457 0.4555,0.32196 0.5618,0.55208 0.078,0.16981 0.088,0.22321 0.087,0.49557 0,0.2823 -0.01,0.31908 -0.096,0.48892 -0.2497,0.47937 -0.7792,0.73792 -1.2736,0.62186 z m 0.6361,-1.17553 c 0.078,-0.03 0.1452,-0.18724 0.123,-0.28815 -0.038,-0.17098 -0.2832,-0.27337 -0.4143,-0.1727 -0.2081,0.15975 -0.1173,0.47981 0.1361,0.47981 0.058,0 0.128,-0.009 0.1552,-0.019 z m -9.26291,-1.34708 c 0.0738,-0.11332 0.17468,-0.26659 0.22426,-0.34059 l 0.0902,-0.13455 -0.0735,0.0211 c -0.23769,0.0683 -0.61168,0.11881 -0.64353,0.087 -0.0948,-0.0948 0.98847,-1.01987 1.58727,-1.35562 0.17097,-0.0959 0.1849,-0.11038 0.12209,-0.1272 -0.039,-0.0104 -0.22461,-0.0192 -0.41251,-0.0194 -0.18788,-2.4e-4 -0.3494,-0.0131 -0.35895,-0.0285 -0.041,-0.0663 0.59643,-0.46035 0.74481,-0.46035 0.0288,0 0.0611,-0.009 0.0718,-0.0194 0.0323,-0.0323 -0.23895,-0.22085 -0.5214,-0.36261 l -0.26621,-0.1336 0.13298,-0.002 c 0.16039,-0.002 0.46129,0.0726 0.62069,0.1539 0.064,0.0326 0.11633,0.0508 0.11633,0.0405 0,-0.0104 -0.0562,-0.12684 -0.12484,-0.25881 -0.31937,-0.61386 -0.98373,-0.97865 -1.70722,-0.9374 -0.31912,0.0182 -0.45509,0.0812 -0.65506,0.30364 -0.67693,0.75292 -0.81467,1.74575 -0.36404,2.62424 0.1224,0.23863 0.19667,0.33556 0.45325,0.59152 0.24663,0.24605 0.35676,0.33142 0.56109,0.435 0.1398,0.0709 0.25739,0.12887 0.26129,0.12887 0.004,0 0.0675,-0.0927 0.14119,-0.20605 z m 12.25991,-0.005 c 0.4702,-0.30973 0.7957,-0.72318 0.9701,-1.23221 0.2893,-0.84434 0.082,-1.72493 -0.5536,-2.35693 -0.2522,-0.2505 -0.3511,-0.29011 -0.7247,-0.29011 -0.6141,0 -1.1878,0.27445 -1.4869,0.71125 -0.103,0.15051 -0.2608,0.50979 -0.2238,0.50979 0.01,0 0.057,-0.0265 0.1128,-0.0588 0.1281,-0.0746 0.4406,-0.15532 0.5938,-0.15333 0.1169,0.002 0.116,0.003 -0.1289,0.12974 -0.1356,0.0705 -0.3118,0.17593 -0.3915,0.23426 l -0.145,0.10606 0.1016,0.0436 c 0.4036,0.17338 0.7258,0.37466 0.7268,0.45399 0,0.0284 -0.092,0.0383 -0.3582,0.0386 -0.1973,2.3e-4 -0.3758,0.0113 -0.3966,0.0246 -0.025,0.0159 0.038,0.0673 0.1869,0.15204 0.344,0.19572 0.8227,0.54994 1.1915,0.88169 0.3701,0.33289 0.4155,0.38747 0.3645,0.43845 -0.024,0.0245 -0.108,0.0208 -0.3077,-0.0136 -0.1507,-0.026 -0.3,-0.0573 -0.3318,-0.0695 -0.04,-0.0155 -0.021,0.0252 0.064,0.13513 0.067,0.0865 0.1769,0.23295 0.2441,0.32538 0.067,0.0924 0.1437,0.16864 0.1701,0.16934 0.027,7.6e-4 0.1715,-0.08 0.3224,-0.17942 z m -1.8967,-2.10873 c -0.01,-0.0168 -0.039,-0.0305 -0.065,-0.0305 -0.025,0 -0.037,0.0137 -0.027,0.0305 0.01,0.0168 0.039,0.0305 0.065,0.0305 0.025,0 0.037,-0.0137 0.027,-0.0305 z m -8.96704,-0.021 c -0.0294,-0.008 -0.0774,-0.008 -0.10683,0 -0.0294,0.008 -0.005,0.014 0.0534,0.014 0.0588,0 0.0828,-0.006 0.0534,-0.014 z"
         id="path33" />
      <circle
         style="fill:none;stroke:#ff0000;stroke-width:0.1;stroke-dasharray:none"
         id="path788-8-1-8-1-9-2-2-9-1-6-9-9"
         cx="925.11823"
         cy="-253.96422"
         r="19.954653" />
      <ellipse
         style="fill:none;stroke:#ff00ff;stroke-width:0.1;stroke-dasharray:none;stroke-opacity:1"
         id="path1138-9-4-0-0-1-2-8-1-8-1-17-3"
         cx="925.11823"
         cy="-253.96422"
         rx="18.492125"
         ry="18.492126" />
      <circle
         style="fill:none;stroke:#0000ff;stroke-width:0.1;stroke-linecap:round;stroke-dasharray:none;stroke-opacity:1;paint-order:markers stroke fill"
         id="path13019-1-33-4-5-5-2-4-30"
         cx="925.11823"
         cy="-268.97519"
         r="2" />
    </g>
  </g>
</svg>
