<?xml version="1.0" encoding="UTF-8" standalone="no"?>
<!-- Created with Inkscape (http://www.inkscape.org/) -->

<svg
   width="41.008999mm"
   height="41.008999mm"
   viewBox="0 0 41.008999 41.008999"
   version="1.1"
   id="svg1"
   inkscape:version="1.4.2 (f4327f4, 2025-05-13)"
   sodipodi:docname="289.svg"
   xmlns:inkscape="http://www.inkscape.org/namespaces/inkscape"
   xmlns:sodipodi="http://sodipodi.sourceforge.net/DTD/sodipodi-0.dtd"
   xmlns="http://www.w3.org/2000/svg"
   xmlns:svg="http://www.w3.org/2000/svg">
  <sodipodi:namedview
     id="namedview1"
     pagecolor="#ffffff"
     bordercolor="#000000"
     borderopacity="0.25"
     inkscape:showpageshadow="2"
     inkscape:pageopacity="0.0"
     inkscape:pagecheckerboard="0"
     inkscape:deskcolor="#d1d1d1"
     inkscape:document-units="mm"
     inkscape:zoom="1.4513545"
     inkscape:cx="86.470947"
     inkscape:cy="-62.700049"
     inkscape:window-width="1050"
     inkscape:window-height="1081"
     inkscape:window-x="857"
     inkscape:window-y="0"
     inkscape:window-maximized="0"
     inkscape:current-layer="layer1" />
  <defs
     id="defs1" />
  <g
     inkscape:label="Layer 1"
     inkscape:groupmode="layer"
     id="layer1"
     transform="translate(333.37504,1257.5646)">
    <g
       id="g69"
       transform="translate(-1280.1888,-983.09588)">
      <path
         style="fill:#000000;stroke-width:0.1;stroke-dasharray:none"
         d="m 964.95959,-242.04434 c -0.075,-0.23397 -0.1995,-0.58161 -0.2768,-0.77255 l -0.1405,-0.34716 -0.2001,0.39702 c -0.1098,0.21838 -0.2927,0.49828 -0.4058,0.622 l -0.20591,0.22498 -0.23142,-0.21742 c -0.22169,-0.20831 -0.23152,-0.27888 -0.23152,-1.68388 0,-1.59418 0.069,-1.82033 0.49017,-1.59525 0.37148,0.19886 0.41818,0.42986 0.25108,1.23885 -0.085,0.41303 -0.14133,0.92142 -0.12431,1.12974 l 0.0312,0.37882 0.2759,-0.52363 c 0.1518,-0.28799 0.3381,-0.52362 0.4143,-0.52362 0.076,0 0.2406,0.24631 0.3653,0.54734 0.1244,0.30102 0.2423,0.53176 0.2615,0.51276 0.018,-0.019 0.1034,-0.4275 0.187,-0.90776 0.1747,-1.00179 0.4152,-1.67439 0.5779,-1.61751 0.1443,0.0504 0.1257,0.53096 -0.075,2.01026 -0.1631,1.19958 -0.2365,1.37601 -0.6195,1.49032 -0.1763,0.0525 -0.2286,-0.003 -0.344,-0.36331 z m -7.42684,0.12861 c -0.36648,-0.14997 -0.58104,-0.48679 -0.58994,-0.92598 0,-0.32308 0.0314,-0.42786 0.16498,-0.45489 0.14314,-0.029 0.16316,0.0161 0.11514,0.25858 -0.0471,0.23327 -0.013,0.32707 0.17283,0.45593 0.63979,0.44808 0.69736,0.0733 0.18213,-1.18518 -0.36582,-0.89361 -0.41096,-1.0791 -0.31414,-1.29148 0.15884,-0.34846 0.56718,-0.43044 0.90146,-0.18093 0.14602,0.10913 0.2656,0.29444 0.2656,0.41195 0,0.30133 -0.17559,0.28971 -0.32971,-0.0218 -0.0719,-0.14477 -0.19639,-0.26319 -0.27738,-0.26319 -0.30472,0 -0.2436,0.3096 0.19482,0.98747 0.87608,1.35417 0.92372,1.55837 0.4697,2.01231 -0.29228,0.29239 -0.57828,0.35144 -0.9551,0.19724 z m 1.4795,-0.0625 c -0.0276,-0.0722 0,-0.43675 0.0524,-0.81008 0.0563,-0.37332 0.13385,-1.11637 0.1718,-1.6512 0.0719,-1.00848 0.16498,-1.16744 0.44,-0.74803 0.10597,0.16213 0.15712,0.60484 0.18312,1.59529 l 0.0368,1.37089 0.2648,-0.0621 c 0.42333,-0.0994 0.45037,-0.0951 0.48856,0.0783 0.0275,0.1256 -0.0652,0.18244 -0.39289,0.23869 -0.76474,0.13152 -1.19048,0.12743 -1.24387,-0.0119 z m 2.29396,-0.0449 c -0.45113,-0.2277 -0.73152,-0.67492 -0.73152,-1.16659 0,-0.59095 0.3097,-1.35843 0.7093,-1.75803 0.33938,-0.33948 0.43033,-0.38121 0.71261,-0.32715 0.71545,0.13705 1.16553,1.13533 0.97201,2.15584 -0.10994,0.57779 -0.20296,0.78049 -0.47125,1.02334 -0.31036,0.28081 -0.72821,0.30627 -1.19115,0.0726 z m 0.96303,-0.41908 c 0.29316,-0.48201 0.43289,-1.28026 0.3063,-1.75025 -0.135,-0.50115 -0.45028,-0.80353 -0.6852,-0.65696 -0.4359,0.272 -0.62668,1.94087 -0.28058,2.45456 0.24192,0.35912 0.42012,0.34632 0.65948,-0.0473 z m 12.35255,-0.14863 -0.2582,-0.76945 -0.2542,0.50145 c -0.3692,0.72862 -0.5149,0.82372 -0.8212,0.53603 -0.2383,-0.22385 -0.2464,-0.27564 -0.2464,-1.56712 0,-0.73459 0.047,-1.42243 0.1034,-1.52854 0.1439,-0.26897 0.4594,-0.2406 0.6556,0.059 0.1533,0.23385 0.1535,0.31066 0,1.07217 -0.2658,1.33849 -0.1802,1.78274 0.1867,0.96931 0.278,-0.61665 0.4053,-0.67362 0.6406,-0.28665 0.11,0.18098 0.2284,0.45749 0.263,0.61447 0.034,0.157 0.079,0.2681 0.1007,0.24692 0.021,-0.0211 0.106,-0.3937 0.1896,-0.82781 0.2657,-1.38928 0.5474,-2.02604 0.7095,-1.60384 0.029,0.0755 -0.036,0.8034 -0.1467,1.61759 -0.153,1.13737 -0.2398,1.50995 -0.374,1.60814 -0.3582,0.26195 -0.4836,0.15486 -0.751,-0.64166 z m -6.5044,0.35805 c -0.1087,-0.5406 -0.074,-3.17912 0.041,-3.17912 0.057,0 0.2303,0.0648 0.3838,0.14427 0.1534,0.0793 0.3687,0.12077 0.4785,0.0921 0.2882,-0.0754 0.8846,0.20302 1.0826,0.50532 0.2257,0.34433 0.1562,0.93041 -0.2059,1.73733 -0.3716,0.82801 -0.9264,1.26687 -1.0837,0.85711 -0.038,-0.0991 0.079,-0.28731 0.3265,-0.52363 0.4584,-0.43862 0.5893,-0.96141 0.3896,-1.55831 -0.1374,-0.41088 -0.5845,-0.82515 -0.7679,-0.71174 -0.069,0.0432 -0.11,0.49852 -0.11,1.25225 0,1.22383 -0.093,1.69615 -0.3341,1.69615 -0.077,0 -0.1677,-0.14027 -0.202,-0.31169 z m 9.4145,0.0644 c -0.2384,-0.25381 -0.2396,-0.26467 -0.1047,-0.97713 0.076,-0.39626 0.1559,-0.98961 0.1795,-1.31855 l 0.043,-0.5981 -0.2233,0.19915 c -0.3604,0.32128 -0.4949,0.77646 -0.4949,1.67292 0,0.8921 -0.1376,1.25262 -0.4345,1.13872 -0.1361,-0.0522 -0.164,-0.22239 -0.164,-0.99896 0,-0.5148 -0.029,-1.21187 -0.064,-1.54905 -0.054,-0.52014 -0.041,-0.61305 0.095,-0.61305 0.088,0 0.2373,0.13377 0.3338,0.29726 l 0.1755,0.29725 0.2864,-0.34714 c 0.3136,-0.38057 0.6584,-0.45194 0.8826,-0.1827 0.095,0.11357 0.1532,0.58381 0.1897,1.52099 0.029,0.74613 0.073,1.4239 0.099,1.50619 0.088,0.28087 -0.5245,0.24421 -0.7988,-0.0477 z m -6.4848,-0.0271 c -0.6921,-0.34572 -0.8523,-1.24627 -0.4038,-2.26886 0.799,-1.82159 2.5256,-0.75687 2.0997,1.29478 -0.2148,1.03509 -0.847,1.39815 -1.6959,0.97408 z m 1.1061,-0.54119 c 0.298,-0.58419 0.3534,-1.43244 0.1217,-1.86982 -0.2554,-0.48262 -0.5007,-0.611 -0.6873,-0.35963 -0.3699,0.4982 -0.4909,1.95414 -0.1994,2.39906 0.2456,0.37501 0.5178,0.3147 0.7647,-0.16961 z m -2.8875,-3.49017 c -0.8014,-0.14007 -1.4102,-0.79936 -1.4102,-1.52708 0,-0.49325 0.1993,-0.91626 0.6949,-1.47445 0.5197,-0.58541 1.1436,-0.96126 1.7708,-1.06674 l 0.4764,-0.0801 -0.4615,-0.0118 c -0.79,-0.0202 -1.743,0.52882 -2.2807,1.31371 l -0.237,0.34568 -0.4878,-0.53395 c -0.8558,-0.93616 -2.3093,-1.46722 -3.3949,-1.24028 -0.28519,0.0597 -0.5858,0.15202 -0.66815,0.20535 -0.10201,0.0662 -0.0387,0.0733 0.19957,0.0222 0.72468,-0.15501 1.62128,-0.0872 2.09438,0.15811 0.898,0.46573 1.7914,1.60626 1.7944,2.29052 0,0.76409 -0.8271,1.42056 -1.9922,1.57511 l -0.5306,0.0704 0.069,-0.43451 c 0.096,-0.59854 0.3625,-1.16146 0.7933,-1.67418 0.4068,-0.48412 0.4242,-0.53959 0.2224,-0.70717 -0.1847,-0.15332 -0.4383,-7.6e-4 -0.7469,0.44981 -0.2792,0.40756 -0.4023,0.91238 -0.4054,1.6631 v 0.5735 h -0.5621 -0.56203 l 0.0606,-0.43488 c 0.0981,-0.71544 0.43913,-1.48795 0.86403,-1.95756 0.5921,-0.65421 0.5047,-0.93353 -0.1512,-0.48399 -0.66424,0.45511 -0.98641,1.24715 -0.92657,2.278 l 0.0312,0.54856 -0.2992,-0.0309 c -0.5311,-0.0548 -1.3203,-0.50155 -1.55398,-0.87972 -0.31452,-0.50882 -0.34336,-1.07116 -0.10985,-2.14228 0.24399,-1.11911 0.24712,-1.13874 0.56277,-3.47991 0.13689,-1.01482 0.32152,-2.09198 0.41009,-2.39369 0.51126,-1.73868 1.85984,-3.11413 3.53324,-3.60385 l 0.4489,-0.13134 -0.3602,-0.0326 c -0.198,-0.018 -0.6375,0.0314 -0.9766,0.10977 -0.4318,0.0997 -0.6061,0.10873 -0.5819,0.03 0.072,-0.23396 0.8173,-0.49429 1.561,-0.54536 l 0.7567,-0.0519 -0.399,-0.12391 c -0.2194,-0.0681 -0.525,-0.1273 -0.6791,-0.13149 -0.1599,-0.004 -0.2538,-0.0505 -0.2185,-0.10741 0.082,-0.13283 1.359,-0.12783 1.7139,0.007 0.1544,0.0585 0.3835,0.20258 0.509,0.32016 0.2085,0.19536 0.3419,0.21442 1.546,0.22114 1.3384,0.008 1.7711,0.1014 2.4428,0.53058 0.3424,0.21871 0.2057,0.24624 -0.4163,0.0839 -0.3076,-0.0803 -0.5592,-0.11658 -0.5592,-0.0806 0,0.0362 0.2039,0.17367 0.4531,0.30588 1.7785,0.94354 2.873,3.23799 2.4089,5.04997 -0.084,0.32882 -0.4486,1.20147 -0.8095,1.93921 -0.3609,0.73776 -0.6562,1.39769 -0.6562,1.46655 0,0.0688 0.1459,0.19888 0.3242,0.289 0.1782,0.0901 0.4229,0.25424 0.5439,0.36474 l 0.22,0.2009 0.49,-0.41029 c 1.2775,-1.06964 1.843,-1.98911 2.1651,-3.52042 0.2665,-1.26675 0.2384,-1.47677 -0.2978,-2.22815 -0.3127,-0.43821 -0.442,-0.70057 -0.3774,-0.76519 0.064,-0.0647 0.2271,0.0589 0.4741,0.36031 0.2067,0.25226 0.3892,0.4452 0.4058,0.42876 0.074,-0.0732 -0.4588,-2.27874 -0.6814,-2.82581 -0.4447,-1.09307 -1.325,-2.3031 -1.8867,-2.59356 -0.1573,-0.0814 -0.6787,-0.18415 -1.1586,-0.22843 -1.3385,-0.12352 -1.7602,-0.39662 -2.3141,-1.49875 -0.2259,-0.44961 -0.5154,-1.20654 -0.4613,-1.20654 0.017,0 0.1774,0.0736 0.3574,0.16331 0.2196,0.10951 0.73,0.18469 1.5492,0.22817 1.1203,0.0596 1.2506,0.087 1.5726,0.33266 0.4112,0.31346 0.7274,0.91664 0.8671,1.65246 0.1506,0.79403 0.801,1.53586 0.801,0.91354 0,-0.27104 0.213,-0.70042 0.3159,-0.63682 0.048,0.0296 0.057,0.3429 0.021,0.69615 l -0.065,0.64225 0.4837,0.72198 c 0.3626,0.54131 0.4911,0.67205 0.5136,0.5225 0.1605,-1.0715 0.2544,-1.28996 0.8026,-1.86461 0.3037,-0.31842 0.5791,-0.57894 0.6118,-0.57894 0.034,0 0.064,0.37026 0.068,0.82282 0,0.45255 0.044,1.09713 0.088,1.43238 0.095,0.72487 -0.057,1.27304 -0.6013,2.17419 l -0.3556,0.58953 0.081,0.85665 0.081,0.85666 0.7777,-0.77296 c 0.4278,-0.42512 0.8045,-0.77296 0.8372,-0.77296 0.1203,0 -0.078,1.43079 -0.2353,1.69682 -0.2025,0.34275 -0.7201,0.59714 -1.2152,0.59714 h -0.3773 l -0.1779,0.7546 c -0.1935,0.82092 -0.1664,0.9994 0.093,0.60483 0.3063,-0.46747 1.0465,-0.78889 1.0465,-0.45442 0,0.0685 -2.6433,3.11891 -3.4015,3.92557 -0.1792,0.19061 -0.182,0.19061 -0.2502,0 -0.084,-0.23298 -0.3386,-0.54189 -0.4479,-0.54189 -0.043,0 -0.014,0.15565 0.065,0.34587 0.2275,0.54477 0.1823,0.90066 -0.1649,1.29605 -0.3345,0.381 -1.3082,0.89305 -1.9098,1.0041 l -0.374,0.0691 v -0.43498 c 0,-1.16228 -1.1859,-3.13886 -1.455,-2.43704 -0.04,0.10337 0.1295,0.36211 0.4956,0.75763 0.5615,0.60635 0.8618,1.27013 0.8618,1.90471 0,0.29306 0.075,0.26566 -1.1469,0.4206 -0.11,0.0139 -0.3952,-0.01 -0.6346,-0.0508 z m 0.4779,-1.45409 c -0.1506,-0.53784 -0.6416,-1.32146 -0.8279,-1.32146 -0.2192,0 -0.2838,0.30573 -0.1139,0.53822 0.6891,0.94214 0.8779,1.29081 0.9354,1.72742 l 0.062,0.47714 0.032,-0.49713 c 0.017,-0.27341 -0.023,-0.6893 -0.088,-0.92419 z m 2.4156,-0.65437 c -0.2349,-0.66845 -0.6144,-1.1882 -1.0758,-1.47329 -0.2702,-0.16707 -0.371,-0.18617 -0.4845,-0.092 -0.1191,0.0993 -0.023,0.23724 0.5894,0.83271 0.6211,0.60502 0.7612,0.8049 0.9191,1.31217 0.1665,0.53472 0.1896,0.56527 0.2167,0.28705 0.017,-0.17126 -0.057,-0.56126 -0.1649,-0.86669 z m -9.64066,0.5344 c 0.0968,-0.44194 0.57752,-1.04241 1.20486,-1.5058 0.4981,-0.36802 0.5456,-0.43262 0.4141,-0.56408 -0.1229,-0.12284 -0.1892,-0.1269 -0.3845,-0.0234 -0.78806,0.41738 -1.29477,1.15344 -1.42589,2.07107 -0.069,0.48151 0.086,0.49955 0.19143,0.0222 z m 7.10586,-3.95237 c 1.1928,-0.30615 2.1245,-0.91875 2.5804,-1.69669 0.315,-0.53749 0.2521,-0.6546 -0.5405,-1.00566 l -0.5297,-0.23466 0.2055,-0.26134 c 0.1283,-0.16354 0.2019,-0.39633 0.1954,-0.62192 l -0.013,-0.36058 -0.081,0.3467 c -0.1073,0.4578 -0.4234,0.70055 -0.9109,0.70055 -0.7226,0 -1.0793,-0.62602 -0.7357,-1.29072 0.3756,-0.72597 1.3993,-0.55435 2.2907,0.38397 0.4197,0.44156 0.4953,0.38106 0.2152,-0.17175 -0.3203,-0.63214 -0.9141,-1.15492 -1.7866,-1.57311 -0.8255,-0.39565 -0.9856,-0.41053 -1.514,-0.14103 -0.5218,0.26605 -0.8564,0.25157 -1.5683,-0.0679 -0.5504,-0.24699 -0.6313,-0.2582 -1.0598,-0.14689 -0.6691,0.17378 -1.5958,0.64594 -2.0778,1.05849 -0.3517,0.30117 -1.10055,1.51178 -0.99825,1.61407 0.017,0.0171 0.27547,-0.19882 0.57373,-0.48004 0.53342,-0.50282 1.36662,-0.97746 1.71932,-0.97938 0.3229,-9.5e-4 0.7444,0.28633 0.846,0.5784 0.1441,0.41274 0.041,0.78305 -0.2969,1.06737 -0.4929,0.41463 -1.0955,0.26238 -1.3971,-0.35293 -0.1371,-0.27964 -0.1706,-0.30458 -0.1745,-0.12952 0,0.11919 0.1099,0.35256 0.249,0.51855 l 0.2541,0.30178 -0.4115,0.11082 c -0.2263,0.061 -0.5707,0.2566 -0.76517,0.43478 -0.35034,0.32116 -0.35205,0.32665 -0.19398,0.63231 0.37965,0.7343 1.82435,1.62502 3.04945,1.88025 0.7588,0.15809 2.0066,0.1086 2.8736,-0.11383 z m -2.1131,-1.64528 c -0.4887,-0.12063 -0.7529,-0.35071 -0.7529,-0.656 0,-0.29357 0.034,-0.2921 0.3401,0.0154 0.27,0.27009 0.4628,0.307 0.7635,0.14609 0.3215,-0.17207 0.2312,-0.46875 -0.2309,-0.75817 -0.5166,-0.32352 -0.57,-0.3987 -0.572,-0.80352 0,-0.47353 0.2876,-0.62901 1.1722,-0.62901 0.6425,0 0.7598,0.0294 0.9752,0.24481 0.1345,0.13464 0.2448,0.31072 0.2448,0.39129 0,0.2005 -0.4213,0.68511 -0.7474,0.85961 -0.1474,0.0789 -0.3547,0.31322 -0.4605,0.52072 l -0.1924,0.37725 h 0.2783 c 0.1648,0 0.4328,-0.12704 0.6555,-0.31069 0.4209,-0.34697 0.5145,-0.34551 0.3368,0.006 -0.2816,0.55649 -1.006,0.79532 -1.8103,0.59695 z m 10.2811,-0.61804 c 0.2191,-0.22899 0.4017,-0.77054 0.2596,-0.77054 -0.044,0 -0.3253,0.25257 -0.6252,0.56127 l -0.5451,0.56124 0.3492,-0.065 c 0.1918,-0.0358 0.4446,-0.16488 0.5615,-0.28697 z m -12.3885,-1.4295 c 0.2039,-0.0782 0.2041,-0.42655 0,-0.50478 -0.2087,-0.0801 -0.4656,0.18614 -0.3844,0.39801 0.069,0.18086 0.1398,0.20044 0.3839,0.10675 z m 5.0945,-0.24004 c 0,-0.18137 -0.06,-0.25656 -0.2247,-0.27991 -0.2713,-0.0384 -0.4005,0.21827 -0.2194,0.43644 0.1869,0.22516 0.4441,0.13449 0.4441,-0.15653 z m 6.5523,-1.30346 c 0.2535,-0.66019 0.2256,-3.08543 -0.034,-2.92525 -0.2011,0.1243 -0.4912,0.8748 -0.548,1.41718 -0.072,0.69528 0.1295,2.04291 0.2978,1.98685 0.062,-0.0208 0.1909,-0.23645 0.2839,-0.47878 z m -3.3623,-4.40513 c -0.1619,-0.55884 -0.5195,-1.13159 -0.8106,-1.29795 -0.2165,-0.12364 -0.6648,-0.20532 -1.4462,-0.26329 -0.6229,-0.0462 -1.1486,-0.0699 -1.1683,-0.0527 -0.067,0.0586 0.5721,1.094 0.8171,1.32412 0.1615,0.15173 0.4334,0.255 0.8037,0.30524 0.3077,0.0418 0.5776,0.0577 0.5998,0.0355 0.023,-0.0222 -0.123,-0.19066 -0.3238,-0.37427 -0.5823,-0.53365 -0.2942,-0.51576 0.6021,0.0374 0.4551,0.28075 0.8642,0.51045 0.9093,0.51045 0.045,0 0.052,-0.10101 0.017,-0.22441 z m -13.3144,12.34271 c -0.70953,-0.70953 -0.97643,-0.90358 -1.63951,-1.19183 -0.55304,-0.24042 -0.83355,-0.4237 -0.92985,-0.60746 -0.076,-0.14476 -0.11906,-0.28178 -0.0968,-0.30451 0.0222,-0.0228 0.3029,0.0487 0.62252,0.15869 0.31977,0.11004 0.60159,0.17972 0.62632,0.15495 0.0615,-0.0613 -0.14706,-0.64234 -0.33128,-0.92347 -0.0956,-0.14568 -0.24885,-0.22905 -0.42194,-0.2294 -1.15673,-0.003 -1.65666,-0.81305 -1.00915,-1.63634 l 0.2147,-0.27298 0.16159,0.23241 c 0.089,0.12783 0.31282,0.38923 0.49797,0.58092 0.31544,0.32667 0.33272,0.3329 0.27698,0.0992 -0.0327,-0.13714 -0.11252,-0.6858 -0.17716,-1.21923 -0.10205,-0.83868 -0.0941,-1.09045 0.0549,-1.86069 0.19586,-1.01362 0.14771,-1.20435 -0.44446,-1.75732 -0.42991,-0.40145 -0.59557,-0.82564 -0.59268,-1.51779 0,-0.56137 0.30144,-2.16051 0.42783,-2.28685 0.0968,-0.0975 0.72418,0.42104 0.94935,0.78549 0.18776,0.30366 0.37813,1.15695 0.43948,1.9694 l 0.0262,0.34656 0.52963,-0.71583 c 0.43373,-0.58633 0.57421,-0.88319 0.77708,-1.64086 0.55115,-2.05973 1.52448,-2.74105 3.51957,-2.46395 0.77921,0.10819 0.96571,0.17733 0.71641,0.26561 -0.078,0.0276 -0.3367,0.22967 -0.5744,0.44877 -0.32002,0.29503 -0.4484,0.49981 -0.49472,0.7892 -0.14011,0.87686 -0.90726,1.45341 -2.23048,1.67661 -0.65854,0.11108 -0.71724,0.14284 -0.98469,0.53272 -0.32303,0.47116 -0.90933,1.60411 -0.90933,1.75755 0,0.0559 0.20581,-0.0552 0.45726,-0.24715 0.44706,-0.34118 0.68529,-0.38279 0.57715,-0.10073 -0.0302,0.0774 -0.29496,0.32666 -0.58934,0.55376 -0.72924,0.56264 -0.94263,1.03213 -1.00504,2.2105 l -0.0484,0.92834 0.19704,-0.54856 c 0.18094,-0.50402 0.86538,-1.29657 1.11958,-1.29657 0.18567,0 0.30971,0.4548 0.26915,0.98638 -0.0501,0.65301 -0.42635,1.47697 -0.98118,2.14849 -0.44772,0.54191 -0.44118,0.60022 0.20921,1.85032 0.27093,0.52098 0.6381,1.028 1.02287,1.41272 0.59434,0.5944 0.60011,0.60569 0.60881,1.19033 0,0.32464 0.0132,0.59024 0.0132,0.59022 -3.9e-4,-1e-5 -0.38221,-0.38142 -0.84837,-0.84755 z m -2.19439,-3.36637 c 0,-0.21535 -0.65327,-0.91131 -0.77925,-0.83345 -0.20882,0.12913 -0.13778,0.61507 0.10727,0.7345 0.48907,0.23821 0.67382,0.26541 0.67186,0.0989 z m 1.49664,-1.81838 c 0.12297,-0.25358 0.20031,-0.61694 0.20031,-0.93825 0,-0.44519 -0.0265,-0.51951 -0.17452,-0.49213 -0.19797,0.0366 -0.56117,1.01649 -0.67721,1.82751 l -0.0719,0.49869 0.26128,-0.24097 c 0.14365,-0.13252 0.35129,-0.42721 0.46159,-0.65485 z m -1.05991,-3.90548 c 0.0916,-0.67339 0.0772,-1.52999 -0.0354,-1.93265 -0.10991,-0.39683 -0.6415,-1.08319 -0.75336,-0.97344 -0.16002,0.15683 -0.27332,1.81279 -0.154,2.24811 0.10859,0.39385 0.62893,1.12071 0.8032,1.12071 0.0419,0 0.10468,-0.20823 0.13935,-0.46273 z m 2.60668,-2.87939 c 0.52572,-0.39763 1.09813,-0.68027 1.26508,-0.62463 0.0548,0.0182 -0.24532,0.2773 -0.66667,0.5757 -0.42143,0.29839 -0.71648,0.55907 -0.65589,0.57928 0.21167,0.0705 1.18719,-0.3033 1.53092,-0.58665 0.23407,-0.19298 0.38164,-0.42559 0.45519,-0.7176 0.0605,-0.23764 0.24504,-0.62018 0.41161,-0.85006 0.16657,-0.22989 0.3028,-0.44706 0.3028,-0.48256 0,-0.0355 -0.26612,-0.0405 -0.59133,-0.0105 -1.25562,0.11383 -2.4394,1.1544 -2.74201,2.41013 -0.0567,0.23285 -0.0444,0.27081 0.0606,0.18813 0.0718,-0.0569 0.35536,-0.27331 0.62962,-0.48075 z"
         id="path34" />
      <circle
         style="fill:none;stroke:#ff0000;stroke-width:0.1;stroke-dasharray:none"
         id="path788-8-1-8-1-9-2-2-9-1-6-9-9-0"
         cx="967.31824"
         cy="-253.96422"
         r="19.954653" />
      <ellipse
         style="fill:none;stroke:#ff00ff;stroke-width:0.1;stroke-dasharray:none;stroke-opacity:1"
         id="path1138-9-4-0-0-1-2-8-1-8-1-17-3-2"
         cx="967.31824"
         cy="-253.96422"
         rx="18.492125"
         ry="18.492126" />
      <circle
         style="fill:none;stroke:#0000ff;stroke-width:0.1;stroke-linecap:round;stroke-dasharray:none;stroke-opacity:1;paint-order:markers stroke fill"
         id="path13019-1-33-4-5-5-2-4-30-1"
         cx="967.31818"
         cy="-268.97519"
         r="2" />
    </g>
  </g>
</svg>
