<?xml version="1.0" encoding="UTF-8" standalone="no"?>
<!-- Created with Inkscape (http://www.inkscape.org/) -->

<svg
   width="41.008999mm"
   height="41.008999mm"
   viewBox="0 0 41.008999 41.008999"
   version="1.1"
   id="svg1"
   inkscape:version="1.4.2 (f4327f4, 2025-05-13)"
   sodipodi:docname="292.svg"
   xmlns:inkscape="http://www.inkscape.org/namespaces/inkscape"
   xmlns:sodipodi="http://sodipodi.sourceforge.net/DTD/sodipodi-0.dtd"
   xmlns="http://www.w3.org/2000/svg"
   xmlns:svg="http://www.w3.org/2000/svg">
  <sodipodi:namedview
     id="namedview1"
     pagecolor="#ffffff"
     bordercolor="#000000"
     borderopacity="0.25"
     inkscape:showpageshadow="2"
     inkscape:pageopacity="0.0"
     inkscape:pagecheckerboard="0"
     inkscape:deskcolor="#d1d1d1"
     inkscape:document-units="mm"
     inkscape:zoom="1.4513545"
     inkscape:cx="86.470947"
     inkscape:cy="-62.700049"
     inkscape:window-width="1050"
     inkscape:window-height="1081"
     inkscape:window-x="857"
     inkscape:window-y="0"
     inkscape:window-maximized="0"
     inkscape:current-layer="layer1" />
  <defs
     id="defs1" />
  <g
     inkscape:label="Layer 1"
     inkscape:groupmode="layer"
     id="layer1"
     transform="translate(333.37504,1257.5646)">
    <g
       id="g66"
       transform="translate(-1195.605,-1032.7365)">
      <path
         style="fill:#000000;stroke-width:0.1;stroke-dasharray:none"
         d="m 882.55891,-188.74049 c -0.14479,-0.11661 -0.33044,-0.27696 -0.31947,-0.28793 0.0109,-0.011 0.0101,-0.0515 -0.003,-0.0899 -0.0178,-0.0557 -0.0682,-0.0746 -0.24768,-0.0925 -0.12399,-0.0124 -0.28247,-0.0319 -0.35216,-0.0434 -0.11588,-0.0191 -0.13395,-0.009 -0.21173,0.11282 -0.0705,0.1108 -0.0698,0.16095 -0.1267,0.21643 -0.20763,0.20234 -0.26802,0.0356 -0.28491,1.2e-4 -0.0337,-0.0708 -0.0688,-0.1205 -0.0815,-0.18137 -0.0106,-0.0508 -0.0276,-0.13251 -0.0377,-0.18158 -0.0144,-0.0691 -0.053,-0.098 -0.17197,-0.12813 -0.24102,-0.0611 -0.67407,-0.24818 -0.87512,-0.37801 l -0.18342,-0.11846 -0.30505,-0.77441 c -0.16778,-0.42593 -0.33444,-0.83958 -0.37038,-0.91922 -0.0359,-0.0797 -0.18872,-0.43805 -0.33954,-0.79644 -0.37661,-0.89504 -1.06305,-2.2658 -1.2823,-2.56064 -0.15519,-0.20866 -0.21645,-0.2597 -0.42627,-0.35509 -0.75389,-0.34272 -1.45731,-0.36638 -2.02437,-0.0681 -0.11056,0.0582 -0.23948,0.10575 -0.28649,0.10575 -0.14375,0 -0.46762,0.13932 -0.56829,0.24447 -0.0524,0.0547 -0.12949,0.17683 -0.17129,0.27141 -0.0418,0.0946 -0.0915,0.17196 -0.11045,0.17196 -0.0188,0 -0.0997,0.059 -0.17959,0.13118 -0.20554,0.18569 -0.27475,0.43175 -0.21725,0.77256 0.0309,0.18308 0.0314,0.26892 0.003,0.32406 -0.0221,0.0412 -0.0393,0.12806 -0.0383,0.1929 0.003,0.0649 -0.0117,0.23192 -0.0284,0.3713 -0.0295,0.24754 -0.0312,0.2509 -0.0763,0.14481 -0.097,-0.22845 -0.1281,-0.51738 -0.0804,-0.74814 0.0249,-0.12038 0.0361,-0.228 0.0249,-0.23917 -0.0112,-0.0112 -0.0833,0.0479 -0.16027,0.13129 l -0.13995,0.1516 -0.0226,-0.13652 c -0.0639,-0.38657 -0.003,-0.80017 0.15397,-1.0183 0.1029,-0.1445 0.0393,-0.17524 -0.10736,-0.0519 l -0.11717,0.0986 0.0255,-0.1436 c 0.0514,-0.29068 0.14293,-0.50016 0.32135,-0.73532 0.18085,-0.23834 0.18313,-0.24464 0.21184,-0.58486 0.0703,-0.83289 0.33009,-1.5189 0.76112,-2.00981 l 0.11642,-0.13259 -0.14237,0.0614 c -0.29206,0.12613 -0.29182,0.1265 -0.1208,-0.2022 0.34963,-0.67202 0.93187,-1.23974 2.05279,-2.00156 0.57448,-0.39043 0.84012,-0.5389 0.89005,-0.49745 0.0301,0.025 0.0719,-0.0214 0.14512,-0.16136 0.11135,-0.21269 0.34581,-0.44964 0.44744,-0.45222 0.0371,-0.001 0.006,-0.0318 -0.0753,-0.0747 -0.18278,-0.0965 -0.31604,-0.0653 -0.51829,0.1211 -0.13326,0.12284 -0.15774,0.13419 -0.15774,0.0731 0,-0.19637 0.27738,-0.81659 0.41451,-0.92685 0.0226,-0.0181 0.0117,-0.0221 -0.0263,-0.01 -0.0892,0.0288 -0.9386,-0.45609 -1.16317,-0.66399 -0.21099,-0.19531 -0.41343,-0.49592 -0.52974,-0.78659 -0.0463,-0.1158 -0.15304,-0.28803 -0.23717,-0.38273 -0.18087,-0.20366 -0.26214,-0.4197 -0.29265,-0.77813 -0.0186,-0.21709 -0.0333,-0.26247 -0.0856,-0.26247 -0.0938,0 -0.10856,-0.0726 -0.13233,-0.65158 -0.0274,-0.66599 0.0368,-1.01824 0.223,-1.22536 0.17035,-0.18948 0.19478,-0.33888 0.0781,-0.47758 -0.0506,-0.0601 -0.10229,-0.16418 -0.11488,-0.23119 -0.0208,-0.11089 -0.007,-0.136 0.14741,-0.2795 0.0937,-0.0867 0.19431,-0.17148 0.22368,-0.18837 0.042,-0.0242 0.0236,-0.0504 -0.0855,-0.12251 -0.44045,-0.29102 -0.77516,-0.77661 -0.93747,-1.36007 -0.0496,-0.17845 -0.0665,-0.20333 -0.11198,-0.16555 -0.0295,0.0245 -0.0797,0.0945 -0.11156,0.15571 l -0.058,0.11125 -0.0263,-0.0968 c -0.089,-0.32772 -0.063,-0.92575 0.055,-1.26828 0.026,-0.0755 0.04,-0.13734 0.0311,-0.13734 -0.009,0 -0.0697,0.0407 -0.13493,0.0905 -0.0653,0.0498 -0.12816,0.0905 -0.13979,0.0905 -0.066,0 0.0486,-0.59463 0.16871,-0.87502 0.14305,-0.33388 0.52588,-0.7494 0.87745,-0.9524 0.0971,-0.0561 0.18342,-0.10781 0.19195,-0.11506 0.0289,-0.0246 -0.12375,-0.11873 -0.19455,-0.11988 -0.0601,-0.001 -0.0521,-0.0204 0.0543,-0.13189 0.20902,-0.21903 0.49032,-0.40854 0.78531,-0.52903 0.26258,-0.10726 0.30879,-0.11458 0.71515,-0.11317 0.33717,10e-4 0.48507,0.0181 0.66068,0.0757 0.12444,0.0408 0.22625,0.067 0.22625,0.0581 0,-0.0603 -0.12669,-0.2381 -0.24125,-0.33869 l -0.13634,-0.11972 0.21858,0.0198 c 0.24299,0.0221 0.45296,0.11511 0.65003,0.28814 0.1181,0.10369 0.13873,0.11022 0.20918,0.0662 0.39486,-0.24673 1.30809,-0.61608 1.94256,-0.78567 0.1075,-0.0288 0.12521,-0.048 0.11695,-0.12711 -0.0127,-0.12193 0.0408,-0.14142 0.45323,-0.16482 0.31781,-0.0181 0.33486,-0.0232 0.33486,-0.10069 0,-0.0449 0.0285,-0.0942 0.0634,-0.10953 0.0349,-0.0153 0.33216,-0.0298 0.66068,-0.0322 0.32855,-0.003 0.61363,-0.0144 0.63355,-0.0266 0.0199,-0.0122 0.16244,-0.034 0.31675,-0.0483 0.21272,-0.0198 0.28056,-0.0391 0.28056,-0.08 0,-0.0376 0.0191,-0.0457 0.0634,-0.0266 0.36169,0.15558 1.27288,0.31708 2.43458,0.43153 0.83845,0.0826 1.30493,0.2363 1.86438,0.6143 0.22859,0.15445 0.25695,0.16501 0.28961,0.10788 0.14368,-0.25106 0.46702,-0.49565 0.71534,-0.54107 l 0.13605,-0.0249 -0.12702,0.18873 c -0.11324,0.1683 -0.17192,0.35538 -0.0998,0.31836 0.65739,-0.33765 1.06911,-0.41896 1.60591,-0.31716 0.22288,0.0423 0.60688,0.21295 0.78539,0.34909 l 0.12144,0.0926 -0.11967,0.0999 -0.11968,0.0999 0.12584,0.0267 c 0.22334,0.0475 0.67853,0.30962 0.90283,0.51996 0.12008,0.11264 0.27601,0.30254 0.34649,0.42201 0.1206,0.20441 0.28938,0.66275 0.25626,0.69587 -0.008,0.008 -0.0836,-0.0198 -0.16735,-0.0626 -0.0838,-0.0427 -0.14561,-0.0642 -0.13745,-0.0478 0.22535,0.45486 0.35439,0.90646 0.35481,1.2416 v 0.19806 l -0.1353,-0.1393 -0.1353,-0.1393 -0.0408,0.30767 c -0.0901,0.67947 -0.35615,1.20531 -0.77987,1.54112 -0.13369,0.10594 -0.20796,0.19001 -0.19787,0.22392 0.009,0.0299 0.0805,0.20092 0.15912,0.38012 0.0786,0.1792 0.18444,0.47244 0.23513,0.65164 0.15067,0.53275 0.14983,0.52093 0.0406,0.56248 -0.0844,0.032 -0.0929,0.0503 -0.0723,0.15328 0.10824,0.53919 0.11663,1.14849 0.0218,1.57402 -0.0388,0.17405 -0.051,0.19006 -0.14398,0.19006 -0.0888,0 -0.10474,0.0171 -0.12665,0.13576 -0.0688,0.37263 -0.3602,0.77052 -0.59928,0.81833 -0.0562,0.0112 -0.13193,0.0632 -0.16831,0.1155 -0.18842,0.27077 -0.61158,0.74811 -0.83585,0.94289 l -0.25387,0.22048 0.11748,0.0937 c 0.22742,0.18145 0.78409,0.99009 1.13266,1.64537 l 0.15846,0.29787 -0.15979,-0.0707 c -0.17694,-0.0783 -0.64021,-0.19426 -0.66737,-0.16709 -0.01,0.01 0.0655,0.11684 0.16674,0.2385 0.49259,0.59188 0.8039,1.24935 0.79768,1.68457 -0.003,0.10074 -0.008,0.0955 -0.0854,-0.0724 -0.0461,-0.0996 -0.14353,-0.23775 -0.21648,-0.30709 l -0.13265,-0.12609 0.0564,0.1598 c 0.23481,0.66552 0.3699,1.79518 0.3337,2.79066 l -0.0204,0.56238 0.23536,0.14357 c 0.21996,0.13417 0.70103,0.58546 0.70103,0.65764 0,0.0178 -0.10883,0.0255 -0.24185,0.017 -0.40806,-0.026 -0.78077,0.0615 -1.28928,0.30262 -0.19136,0.0907 -0.23067,0.13115 -0.44795,0.46068 -0.43668,0.6623 -1.12482,2.16051 -1.99112,4.33506 -0.13087,0.32854 -0.25351,0.61678 -0.27255,0.64054 -0.085,0.10622 -0.82267,0.28337 -1.3481,0.32376 l -0.31344,0.0241 0.0236,0.10699 0.0236,0.10699 -0.24811,-0.13769 c -0.13644,-0.0757 -0.29405,-0.16516 -0.35027,-0.19874 -0.0999,-0.0597 -0.10668,-0.0583 -0.30295,0.0599 -0.11039,0.0665 -0.21322,0.12568 -0.22846,0.13153 -0.0152,0.006 -0.0393,0.0962 -0.0534,0.2007 -0.0249,0.18435 -0.014,0.17649 -0.046,0.24436 l -0.22029,0.10261 -0.19292,-0.175 -0.0785,-0.0959 c -0.0735,-0.0898 -0.0901,-0.094 -0.2595,-0.0655 -0.0996,0.0167 -0.26482,0.0314 -0.36722,0.0326 -0.13496,0.001 -0.19224,0.0179 -0.20817,0.0594 l -0.0776,0.21425 z m 0.19664,-0.23446 c 0.09,-0.0597 0.0602,-0.0358 0.12099,-0.19953 l 0.065,-0.17494 -0.10001,0.0197 c -0.055,0.0108 -0.20225,0.0388 -0.32716,0.0622 -0.24349,0.0455 -0.25571,0.069 -0.13929,0.268 l 0.1932,0.14874 z m 1.46681,-0.19976 c 0.0477,-0.39689 0.0548,-0.49458 0.0357,-0.49458 -0.0114,0 -0.14898,0.0676 -0.30571,0.15029 l -0.28502,0.1503 0.10593,0.13376 c 0.13089,0.16524 0.17925,0.20529 0.27158,0.22482 0.12227,0.0259 0.15873,-0.008 0.17758,-0.16459 z m -2.80084,-0.0861 c 0.0888,-0.13371 0.16696,-0.25589 0.1736,-0.27151 0.007,-0.0156 -0.1378,-0.0284 -0.32096,-0.0284 h -0.33298 l 0.0244,0.20816 c 0.0372,0.31758 0.0464,0.33487 0.1778,0.33487 0.1037,0 0.13442,-0.0268 0.27811,-0.24312 z m 3.90203,-0.29087 c -0.0857,-0.31628 -0.21332,-0.74768 -0.22453,-0.75889 -0.007,-0.007 -0.1063,0.0952 -0.22143,0.22628 -0.15513,0.17669 -0.19874,0.24895 -0.16854,0.27915 0.0318,0.0318 0.61851,0.38503 0.64514,0.38843 0.003,5.4e-4 -0.0104,-0.0603 -0.0307,-0.13497 z m 0.18639,-0.46964 c 0.15844,-0.33027 0.21465,-0.52317 0.24034,-0.82458 0.0699,-0.82099 -0.5333,-1.69141 -1.54656,-2.23147 -0.11727,-0.0625 -0.21324,-0.12767 -0.21324,-0.14481 0,-0.0589 0.43453,-0.0318 0.63834,0.0399 l 0.20212,0.071 -0.0247,-0.16542 c -0.0138,-0.091 -0.097,-0.38715 -0.18529,-0.65816 -0.0883,-0.27101 -0.155,-0.50924 -0.14828,-0.5294 0.0263,-0.0789 0.24625,0.29469 0.31665,0.53775 0.0409,0.14126 0.0899,0.29756 0.10877,0.34733 0.0533,0.14012 0.01,-0.64901 -0.0567,-1.02768 -0.0311,-0.17696 -0.048,-0.33016 -0.0378,-0.34044 0.0349,-0.0349 0.25456,0.23186 0.36354,0.4417 l 0.10859,0.2091 0.0109,-0.19959 c 0.006,-0.11505 -0.0281,-0.38756 -0.081,-0.64337 -0.0505,-0.24408 -0.0859,-0.44969 -0.0787,-0.45689 0.007,-0.007 0.0623,0.0283 0.12245,0.0789 0.0601,0.0506 0.12072,0.092 0.13466,0.092 0.0421,0 -0.0215,-0.36709 -0.10027,-0.57897 -0.10134,-0.27231 -0.42431,-0.59662 -0.6558,-0.65854 -0.18406,-0.0492 -0.20849,-0.0823 -0.0852,-0.11535 0.21917,-0.0588 0.3981,-0.0158 0.56407,0.13556 l 0.0844,0.0769 -0.0252,-0.10861 c -0.0637,-0.27299 -0.23048,-0.46448 -0.5236,-0.60113 l -0.1267,-0.0591 0.13987,-0.0277 c 0.0803,-0.0159 0.19213,-0.0117 0.26248,0.01 0.0963,0.0296 0.12255,0.0274 0.12255,-0.0101 0,-0.0767 -0.20774,-0.22976 -0.37268,-0.27451 -0.0837,-0.0227 -0.17258,-0.0471 -0.19747,-0.0541 -0.0577,-0.0164 -0.0589,-0.16801 -0.003,-0.22508 0.0561,-0.0561 0.15662,-0.0528 0.33529,0.0108 0.17248,0.0615 0.1928,0.0489 0.11456,-0.0705 -0.0854,-0.13032 -0.24444,-0.20077 -0.5091,-0.22548 l -0.23096,-0.0215 -0.0257,-0.29114 -0.0257,-0.29113 -0.10968,0.3232 c -0.0603,0.17777 -0.1149,0.32957 -0.12138,0.33733 -0.0146,0.0177 -0.0953,-0.0387 -0.3827,-0.26753 l -0.22726,-0.18101 0.0753,0.12671 c 0.0414,0.0697 0.11286,0.18963 0.15878,0.26654 l 0.0835,0.13983 -0.10503,-0.0199 c -0.0578,-0.011 -0.20276,-0.0297 -0.32223,-0.0418 -0.11948,-0.012 -0.26609,-0.029 -0.32581,-0.0377 -0.0598,-0.009 0.005,0.0219 0.1448,0.068 l 0.25343,0.0839 -0.16292,0.043 c -0.37293,0.0984 -0.67312,0.28168 -0.86086,0.52562 -0.10511,0.13653 -0.10155,0.17334 0.0125,0.12998 0.051,-0.0194 0.16916,-0.035 0.26246,-0.0346 l 0.16958,6.6e-4 -0.16606,0.10431 c -0.33277,0.20905 -0.60828,0.63318 -0.75487,1.16214 -0.11159,0.40277 -0.10739,0.41933 0.0792,0.31225 0.0846,-0.0486 0.19458,-0.1 0.24437,-0.1143 0.0879,-0.0253 0.0872,-0.0225 -0.0247,0.0958 -0.11047,0.11679 -0.3735,0.61486 -0.3735,0.70723 0,0.0336 0.0307,0.0316 0.12555,-0.008 0.0691,-0.0288 0.15772,-0.0525 0.19707,-0.0525 0.071,0 0.071,10e-4 -0.003,0.1659 -0.0446,0.10089 -0.0796,0.27469 -0.0893,0.44348 -0.0112,0.19448 -0.005,0.25431 0.0186,0.19989 0.0417,-0.094 0.26343,-0.32026 0.36946,-0.37701 0.0422,-0.0226 0.0699,-0.0272 0.0616,-0.0104 -0.13472,0.27271 -0.14627,0.32729 -0.12447,0.58678 0.0154,0.18249 0.0546,0.33368 0.1247,0.47968 l 0.10233,0.21318 -0.18366,2.7e-4 c -0.25361,5.3e-4 -0.6119,0.0607 -0.87701,0.14751 -0.45883,0.15034 -0.72803,0.42146 -0.80987,0.81557 -0.0551,0.26545 -0.0175,0.30202 0.13148,0.12793 0.20347,-0.2377 0.61304,-0.45124 1.05583,-0.55047 0.28438,-0.0637 1.27539,-0.16081 1.61919,-0.1586 0.79088,0.005 1.37699,0.41489 1.7573,1.22878 0.26587,0.569 0.30996,1.00015 0.14629,1.43086 -0.0697,0.18354 -0.0705,0.20301 -0.0157,0.42109 0.0316,0.12576 0.0695,0.22118 0.0843,0.21204 0.0148,-0.009 0.0799,-0.12702 0.14457,-0.26196 z m -11.17019,-6.65295 c 0.098,-0.0726 0.27294,-0.17992 0.38881,-0.2384 0.6879,-0.34726 1.60304,-0.26845 2.38827,0.20566 0.11211,0.0677 0.21148,0.12308 0.2208,0.12308 0.009,0 0.0279,-0.26473 0.0412,-0.58828 0.0456,-1.10617 -0.0723,-2.2717 -0.28766,-2.84375 -0.0936,-0.24857 -0.2206,-0.47779 -0.26478,-0.47779 -0.0405,0 -0.9993,0.64227 -1.32349,0.88652 -0.69877,0.52646 -1.54834,1.48614 -1.10611,1.24947 0.1207,-0.0646 0.55082,-0.14419 0.60757,-0.11242 0.038,0.0212 0.005,0.0557 -0.12412,0.13123 -0.36264,0.21155 -0.77211,0.67232 -1.0028,1.12846 -0.12924,0.25555 -0.27055,0.75727 -0.29655,1.05282 l -0.0215,0.24348 0.30103,-0.31401 c 0.16558,-0.17271 0.38121,-0.37344 0.47917,-0.44607 z m 16.00378,0.1537 c -0.0368,-0.17855 -0.17556,-0.46318 -0.30239,-0.62042 l -0.11351,-0.14074 v 0.383 0.383 l 0.17195,0.0526 c 0.26105,0.0799 0.27178,0.0774 0.24395,-0.0575 z m -6.15394,-5.18373 c 0.36036,-0.0587 0.49434,-0.0883 0.78741,-0.17385 l 0.15386,-0.0449 -0.28962,-0.0185 -0.28961,-0.0185 0.2172,-0.0479 c 0.55666,-0.12286 1.28256,-0.29809 1.42997,-0.34519 l 0.16292,-0.0521 -0.3077,-0.007 -0.30773,-0.007 0.30773,-0.0706 c 0.93158,-0.2137 1.56164,-0.46384 1.7721,-0.70354 l 0.11671,-0.13293 -0.0122,0.25662 -0.0122,0.25663 0.12672,-0.0743 c 0.27815,-0.16313 0.71379,-0.49903 1.01619,-0.78351 0.39154,-0.36836 0.67781,-0.74327 0.88441,-1.15819 0.14553,-0.29225 0.15889,-0.30809 0.18212,-0.21555 0.0138,0.055 0.0181,0.14853 0.009,0.20801 -0.0202,0.13719 0.0135,0.13665 0.1303,-0.002 0.10237,-0.12165 0.21675,-0.45568 0.25666,-0.74954 0.014,-0.10453 0.0399,-0.19007 0.0572,-0.19007 0.0173,0 0.0516,0.0677 0.0764,0.15035 l 0.045,0.15034 0.0289,-0.10509 c 0.0159,-0.0578 0.0393,-0.26917 0.052,-0.46971 0.0268,-0.42403 -0.0252,-0.84846 -0.14903,-1.21437 -0.0463,-0.13707 -0.0756,-0.24921 -0.0651,-0.24921 0.0106,0 0.0742,0.0339 0.14123,0.0754 0.15359,0.0949 0.154,0.0787 0.009,-0.38452 -0.20182,-0.64599 -0.55385,-1.30201 -0.8428,-1.57061 -0.0519,-0.0483 -0.0944,-0.10019 -0.0944,-0.11537 0,-0.0332 0.24574,0.001 0.33487,0.0465 0.0968,0.0496 0.077,-0.0142 -0.0603,-0.19405 -0.13732,-0.17985 -0.22724,-0.24656 -0.54609,-0.40514 -0.62853,-0.31262 -1.04205,-0.80705 -1.09373,-1.30771 -0.0213,-0.20618 -0.021,-0.20727 0.0596,-0.16421 0.12019,0.0643 0.12792,0.0254 0.0334,-0.16834 -0.10567,-0.21655 -0.45769,-0.57818 -0.7199,-0.73952 -0.14632,-0.09 -0.18021,-0.12506 -0.13028,-0.13467 0.12523,-0.0241 0.37906,0.0334 0.47272,0.10702 0.15577,0.12254 0.10776,-0.003 -0.0642,-0.16753 -0.0865,-0.0829 -0.31049,-0.22682 -0.49776,-0.31991 l -0.34055,-0.16925 0.20971,0.0125 0.20971,0.0125 -0.13732,-0.1421 c -0.21505,-0.22257 -0.72617,-0.59297 -1.0054,-0.72859 -0.3807,-0.18491 -0.70267,-0.27121 -1.17135,-0.31396 -1.23631,-0.11279 -2.32055,-0.30773 -2.68238,-0.48227 -0.2049,-0.0988 -0.21544,-0.086 -0.12948,0.15764 0.0537,0.15213 0.0535,0.15308 -0.0272,0.13284 -0.22103,-0.0555 -0.9721,-0.10155 -1.2796,-0.0785 l -0.34126,0.0255 0.091,0.0716 c 0.0501,0.0394 0.0911,0.097 0.0911,0.12795 0,0.0489 -0.047,0.053 -0.35314,0.0313 -0.19426,-0.0138 -0.38134,-0.0142 -0.41581,-0.001 -0.0566,0.0217 -0.0548,0.0304 0.0183,0.0897 0.0445,0.0361 0.0728,0.0717 0.0628,0.0791 -0.0101,0.007 -0.18101,0.0522 -0.38012,0.0995 -0.79922,0.18978 -1.67997,0.57901 -2.22017,0.98116 -0.4844,0.36061 -0.7891,0.75049 -0.94839,1.21347 -0.0888,0.25794 -0.0889,0.28078 -0.003,0.23401 0.0385,-0.0206 0.15493,-0.0375 0.25865,-0.0375 h 0.18863 l -0.24713,0.22627 c -0.26428,0.24195 -0.58845,0.65113 -0.53101,0.67027 0.0191,0.007 0.12229,-0.0217 0.22926,-0.0623 0.10696,-0.0406 0.2058,-0.0739 0.21966,-0.0739 0.0138,-1e-5 -0.0638,0.12917 -0.17261,0.28707 -0.10877,0.1579 -0.22811,0.35492 -0.26524,0.43781 l -0.0675,0.15072 -0.0639,-0.16747 c -0.0351,-0.0921 -0.0737,-0.17355 -0.0857,-0.18097 -0.0119,-0.007 -0.0218,0.30204 -0.0218,0.68768 v 0.70118 l -0.19009,0.19253 c -0.10452,0.1059 -0.19004,0.20424 -0.19004,0.21855 0,0.0143 0.0774,0.0261 0.17196,0.0262 l 0.17195,1.3e-4 -0.14479,0.13233 c -0.6409,0.58561 -0.85077,0.7871 -0.85077,0.81674 0,0.0189 0.0489,0.0528 0.10861,0.0753 0.13342,0.0504 0.13387,0.0712 0.0125,0.55537 -0.0864,0.34463 -0.10043,0.37501 -0.13966,0.30172 -0.13341,-0.2493 -0.248,0.66494 -0.16796,1.34015 l 0.0236,0.19911 0.0704,-0.11652 c 0.0961,-0.15893 0.18093,-0.19026 0.15153,-0.0559 -0.0877,0.40063 -0.0577,0.78205 0.0778,0.98703 0.0596,0.0901 0.06,0.0893 0.0989,-0.16291 l 0.0391,-0.25341 0.0479,0.27151 c 0.10989,0.62225 0.3009,1.05241 0.60619,1.36519 0.1028,0.10533 0.20273,0.1915 0.22201,0.1915 0.0201,0 0.0146,-0.0574 -0.0133,-0.13575 -0.0997,-0.27923 -0.0638,-0.28097 0.22537,-0.0109 0.5966,0.55716 1.28926,0.9897 1.87702,1.17213 0.46063,0.14298 0.46114,0.14285 0.24755,-0.064 -0.10627,-0.10295 -0.19327,-0.20486 -0.19327,-0.22646 0,-0.0216 0.10184,0.0159 0.22628,0.0833 0.29389,0.15924 0.74086,0.30148 1.01908,0.32432 l 0.22083,0.0181 -0.19005,-0.0991 c -0.20711,-0.10803 -0.25048,-0.16884 -0.087,-0.12195 0.20005,0.0574 1.26079,0.22111 1.76134,0.27189 0.67393,0.0684 2.20793,0.0498 2.71515,-0.0328 z m -2.62464,-2.18275 c -0.18329,-0.0523 -0.65641,-0.32778 -0.70888,-0.41269 -0.0122,-0.02 0.0633,0.007 0.16815,0.0603 0.195,0.0988 0.82809,0.23276 1.10435,0.23366 0.33365,10e-4 0.75362,-0.19957 0.9273,-0.44308 0.0693,-0.0971 0.0835,-0.16171 0.0816,-0.37098 -0.003,-0.1629 -0.0239,-0.29439 -0.0628,-0.36813 -0.0561,-0.10646 -0.0781,-0.11655 -0.30545,-0.14036 -0.73902,-0.0774 -1.1701,-0.39083 -1.17368,-0.85342 -0.003,-0.20347 0.0728,-0.34162 0.22627,-0.42051 0.1224,-0.0629 0.5422,-0.0565 0.80584,0.0123 0.29828,0.0778 0.74747,0.0549 0.94738,-0.0483 0.0801,-0.0414 0.24548,-0.0949 0.36745,-0.11886 0.25743,-0.0506 0.4467,-0.008 0.53659,0.12001 0.0615,0.0878 0.0722,0.37212 0.0191,0.51147 -0.0932,0.24509 -0.51005,0.56415 -0.949,0.72635 -0.0933,0.0345 -0.17935,0.088 -0.19125,0.11902 -0.0414,0.10804 -0.0578,0.46188 -0.0295,0.64155 0.027,0.17197 0.0375,0.18547 0.20944,0.27048 0.15599,0.0771 0.23104,0.0895 0.54304,0.0895 0.32361,7e-5 0.38918,-0.0116 0.61801,-0.11038 0.25852,-0.11156 0.57326,-0.30412 0.73956,-0.45248 0.0498,-0.0444 0.13006,-0.11468 0.1784,-0.15616 l 0.0879,-0.0754 -0.0758,0.10861 c -0.17174,0.24606 -0.62611,0.61232 -0.96905,0.78115 -0.21898,0.10781 -0.25257,0.11396 -0.5398,0.0989 -0.26258,-0.0138 -0.34541,-0.0354 -0.58091,-0.15181 l -0.27464,-0.13573 -0.17107,0.12467 c -0.50615,0.36888 -1.0501,0.49716 -1.52863,0.36051 z m 1.28729,-2.26962 c 0.0678,-0.0498 0.0667,-0.053 -0.0316,-0.0905 -0.11502,-0.0439 -0.18733,-0.0477 -0.30537,-0.0161 -0.0879,0.0236 -0.10975,0.10453 -0.0362,0.13421 0.0936,0.0377 0.30549,0.0221 0.37319,-0.0276 z m 0.8922,-0.0435 c 0.0178,-0.011 0.0133,-0.0429 -0.0101,-0.0711 -0.0429,-0.0517 -0.26957,-0.0694 -0.3745,-0.0291 -0.0766,0.0294 -0.0729,0.11306 0.006,0.13562 0.0701,0.02 0.32768,-0.004 0.37843,-0.0354 z m -4.94894,0.69206 c -0.18475,-0.0634 -0.46361,-0.36416 -0.59892,-0.64579 -0.1404,-0.29233 -0.19399,-0.64807 -0.16714,-1.10969 0.026,-0.44896 0.0878,-0.70436 0.2599,-1.07689 0.32839,-0.71076 0.77437,-1.1185 1.36104,-1.24432 0.18369,-0.0394 0.52848,-0.0252 0.66549,0.0273 0.0462,0.0177 0.0582,0.0124 0.0398,-0.0174 -0.0373,-0.0603 -0.2892,-0.18402 -0.50584,-0.24835 -0.17335,-0.0515 -0.17938,-0.0573 -0.11195,-0.10814 0.0519,-0.0391 0.13216,-0.0491 0.29444,-0.0369 0.39691,0.03 0.87193,0.37896 1.12844,0.82902 0.13852,0.24306 0.28515,0.65742 0.31665,0.89479 l 0.0223,0.16887 -0.1937,0.0627 c -0.19614,0.0635 -0.26635,0.1058 -0.34674,0.20897 -0.0399,0.0513 -0.0244,0.0534 0.15304,0.0213 0.13377,-0.0242 0.224,-0.0237 0.27974,0.002 0.0767,0.035 0.0712,0.0406 -0.0804,0.0821 -0.0895,0.0245 -0.22795,0.0774 -0.30773,0.11764 -0.13456,0.0678 -0.56776,0.40459 -0.65303,0.50768 -0.0205,0.0249 -0.13355,0.15897 -0.25109,0.29799 -0.11753,0.13903 -0.34817,0.45828 -0.51255,0.70943 -0.37728,0.57649 -0.49542,0.65974 -0.79184,0.55796 z m 1.45045,-1.82392 c 0.21069,-0.0957 0.38413,-0.2602 0.4873,-0.46219 0.12059,-0.23606 0.12531,-0.64604 0.0101,-0.86478 -0.31538,-0.59816 -1.10536,-0.7297 -1.57311,-0.26195 -0.20321,0.2032 -0.26527,0.36659 -0.26511,0.698 0,0.31721 0.04,0.42474 0.24389,0.65689 0.24787,0.2823 0.75336,0.39014 1.09707,0.23403 z m -0.6721,-0.22325 c -0.35083,-0.14774 -0.54161,-0.69582 -0.36363,-1.04468 0.14197,-0.27828 0.43915,-0.4308 0.7489,-0.38434 0.14765,0.0221 0.15413,0.0282 0.13445,0.1266 -0.0502,0.25097 0.12855,0.47159 0.33923,0.41871 0.11129,-0.0279 0.16642,0.11262 0.14571,0.3714 -0.0278,0.34759 -0.23556,0.51806 -0.65575,0.5381 -0.14212,0.007 -0.29915,-0.005 -0.34891,-0.0258 z m 0.26765,-0.2966 c 0.0582,-0.0929 -0.0159,-0.19006 -0.14491,-0.19006 -0.082,0 -0.10723,0.0183 -0.11656,0.0841 -0.007,0.0462 -0.003,0.10843 0.009,0.13818 0.0277,0.0723 0.20106,0.0502 0.25263,-0.0322 z m 7.29645,1.1694 c -0.1497,-0.0454 -0.24848,-0.10739 -0.5376,-0.33714 -0.85955,-0.68305 -1.71399,-1.05902 -2.20336,-0.96953 -0.14802,0.0271 -0.2005,-0.001 -0.10821,-0.0582 0.0247,-0.0152 0.14276,-0.0551 0.26245,-0.0887 l 0.2176,-0.0609 -0.10862,-0.0463 c -0.0597,-0.0255 -0.20926,-0.0465 -0.33232,-0.0466 -0.195,-2.7e-4 -0.22654,-0.01 -0.24564,-0.0753 -0.0509,-0.17419 -0.0629,-0.74003 -0.021,-0.98862 0.0854,-0.50642 0.41741,-1.02848 0.76763,-1.20715 0.14141,-0.0721 0.35627,-0.0941 0.35627,-0.0364 0,0.0182 -0.0812,0.0927 -0.18045,0.16558 -0.15282,0.11217 -0.32639,0.29955 -0.32639,0.35235 0,0.008 0.11482,-0.0421 0.2552,-0.11172 0.48953,-0.24299 1.0736,-0.19062 1.59261,0.14279 0.73259,0.4706 1.28317,1.37429 1.32895,2.18126 0.0317,0.55753 -0.16093,1.04002 -0.46342,1.16106 -0.0795,0.0318 -0.14818,0.0564 -0.15278,0.0547 -0.005,-0.001 -0.05,-0.0158 -0.10094,-0.0312 z m -1.18222,-1.39861 c 0.18367,-0.0626 0.4193,-0.2689 0.52161,-0.45673 0.049,-0.0899 0.0651,-0.20033 0.0653,-0.44537 1.4e-4,-0.29226 -0.0104,-0.34369 -0.10183,-0.49931 -0.1249,-0.2125 -0.33657,-0.37103 -0.5961,-0.44648 -0.70806,-0.20584 -1.39408,0.48342 -1.18771,1.1933 0.16388,0.56373 0.72922,0.84866 1.29879,0.65459 z m -0.72648,-0.21784 c -0.13411,-0.0687 -0.23061,-0.19197 -0.29196,-0.37289 -0.0734,-0.21639 -0.056,-0.27041 0.1121,-0.34851 0.14823,-0.0688 0.15381,-0.0774 0.15198,-0.23437 -0.003,-0.0896 -0.0146,-0.20654 -0.0304,-0.25985 -0.0249,-0.0849 -0.0143,-0.10426 0.0853,-0.15579 0.0626,-0.0324 0.19033,-0.0674 0.28386,-0.0778 0.24492,-0.0272 0.5351,0.12517 0.65484,0.34398 0.12887,0.23555 0.14358,0.59096 0.0324,0.7817 -0.17811,0.30551 -0.7019,0.47529 -0.99807,0.32352 z m 0.74608,-0.40569 c 0.014,-0.0999 -0.0508,-0.18806 -0.13853,-0.18806 -0.0955,0 -0.15626,0.0943 -0.12952,0.20084 0.0199,0.0793 0.0406,0.0915 0.13982,0.0819 0.0898,-0.009 0.1191,-0.0303 0.12823,-0.0947 z m -8.79081,19.10499 c -0.81662,-0.0769 -1.55939,-0.3473 -2.05038,-0.7464 -0.31097,-0.25278 -1.14402,-1.12155 -1.2759,-1.33061 -0.1169,-0.1853 -0.14443,-0.36422 -0.0758,-0.49245 0.0296,-0.0553 0.003,-0.1447 -0.14282,-0.4411 -0.21074,-0.43533 -0.25206,-0.60722 -0.17436,-0.72577 0.0467,-0.0714 0.0474,-0.11325 0.005,-0.31661 -0.0741,-0.35435 -0.0122,-0.59078 0.2013,-0.77057 0.0603,-0.0508 0.14045,-0.10208 0.178,-0.11399 0.0397,-0.0126 0.0778,-0.0692 0.091,-0.13524 0.052,-0.26 0.31179,-0.46646 0.64886,-0.51563 0.0958,-0.014 0.22724,-0.0567 0.29206,-0.0949 0.27103,-0.15991 0.53237,-0.22288 0.92749,-0.2235 0.31668,-5.3e-4 0.42752,0.0154 0.66413,0.0954 0.52942,0.17888 0.67182,0.26908 0.86573,0.54838 0.22718,0.32723 0.91136,1.71226 1.32255,2.67726 0.3904,0.9163 0.95822,2.33768 0.94082,2.3551 -0.04,0.0401 -0.98599,0.19863 -1.37872,0.23116 -0.50878,0.0421 -0.58697,0.0421 -1.03884,-5.3e-4 z m -0.65686,-1.15776 c 0.10622,-0.0647 0.11921,-0.0886 0.10333,-0.18992 -0.0318,-0.20299 0.0456,-0.71716 0.15872,-1.05543 0.15904,-0.47526 0.43963,-0.94844 0.80018,-1.34939 0.28808,-0.32035 0.0932,-0.6615 -0.37784,-0.6615 -0.11987,0 -0.22235,0.0388 -0.44465,0.16845 -0.85518,0.49872 -1.31467,1.4667 -1.12697,2.3741 0.0676,0.32651 0.19837,0.60461 0.33497,0.71206 0.12872,0.10124 0.38761,0.10201 0.55226,0.001 z m -1.54969,-0.59632 c 0.3568,-0.18451 -0.21558,-0.70469 -0.59907,-0.54446 -0.10918,0.0456 -0.12678,0.0698 -0.12678,0.17442 0,0.0901 0.0304,0.15021 0.11766,0.23271 0.19452,0.18395 0.41972,0.2348 0.60819,0.13733 z m -0.12936,-1.00084 c 0.11183,-0.0509 0.15336,-0.18567 0.0923,-0.29968 -0.11539,-0.21561 -0.59621,-0.33218 -0.75974,-0.18419 -0.27538,0.24922 0.28723,0.6571 0.6674,0.48387 z m 0.0709,-1.05845 c 0.33797,-0.14121 0.0632,-0.5278 -0.37548,-0.52809 -0.21181,-1.4e-4 -0.36434,0.0925 -0.36434,0.22136 0,0.10038 0.14887,0.24713 0.30773,0.30333 0.18583,0.0657 0.28109,0.0665 0.43209,0.003 z m 0.70019,-0.65699 c 0.2364,-0.16557 -0.0409,-0.55006 -0.42324,-0.5868 -0.43032,-0.0414 -0.41946,0.37422 0.0152,0.57473 0.17808,0.0822 0.30286,0.0859 0.40824,0.0121 z m 0.79646,-0.39822 c 0.15721,-0.11012 0.0615,-0.42133 -0.18451,-0.59949 -0.39117,-0.28335 -0.66235,0.0598 -0.33864,0.42849 0.111,0.12639 0.27679,0.2231 0.3874,0.22594 0.0304,6.6e-4 0.0915,-0.024 0.13575,-0.0549 z m 12.08146,4.86514 c -0.33527,-0.0271 -1.27521,-0.18907 -1.31228,-0.22615 -0.0244,-0.0245 0.73655,-1.88633 1.21463,-2.97164 0.35274,-0.80079 0.64127,-1.38204 0.89847,-1.81011 0.24991,-0.41591 0.32153,-0.49848 0.51813,-0.59729 0.71828,-0.36109 1.39555,-0.40563 1.97344,-0.12981 0.14045,0.067 0.32871,0.13377 0.4183,0.14828 0.0896,0.0145 0.22424,0.0574 0.29915,0.0954 0.14776,0.0749 0.35248,0.32701 0.35248,0.43409 0,0.0379 0.0604,0.10465 0.14032,0.15508 0.31097,0.1963 0.40492,0.44175 0.31978,0.83549 -0.0491,0.22719 -0.049,0.25988 0.003,0.31585 0.0843,0.0948 0.0334,0.31522 -0.17224,0.74623 -0.17105,0.35844 -0.17631,0.37864 -0.12473,0.4784 0.0469,0.0906 0.0472,0.12338 0.003,0.25222 -0.0829,0.24044 -0.22591,0.41676 -0.82047,1.01108 -0.57522,0.57498 -0.78945,0.73388 -1.28307,0.95165 -0.33319,0.14698 -0.85905,0.26953 -1.34571,0.31361 -0.48507,0.0439 -0.50714,0.0439 -1.07981,-0.003 z m 2.37212,-1.21717 c 0.20554,-0.20553 0.3064,-0.5598 0.30619,-1.07557 0,-0.4461 -0.0486,-0.63772 -0.26062,-1.03176 -0.22963,-0.42672 -0.59958,-0.78244 -1.04964,-1.00925 -0.18534,-0.0934 -0.4191,-0.0987 -0.58922,-0.0134 -0.25741,0.12911 -0.27671,0.38005 -0.0482,0.62657 0.30848,0.33275 0.62241,0.86895 0.783,1.33733 0.1041,0.30362 0.18576,0.86137 0.15232,1.0404 -0.0194,0.10411 -0.008,0.12537 0.0973,0.18992 0.0761,0.0464 0.18292,0.0727 0.29543,0.0728 0.15578,1.2e-4 0.19213,-0.0158 0.31342,-0.13706 z m 1.30506,-0.51952 c 0.36756,-0.11013 0.49904,-0.52352 0.18626,-0.58571 -0.40107,-0.0798 -0.87275,0.40041 -0.56,0.57008 0.12165,0.066 0.19531,0.0691 0.37374,0.0156 z m 0.20379,-1.01541 c 0.40883,-0.17374 0.39223,-0.5579 -0.0239,-0.55177 -0.39874,0.006 -0.71451,0.41207 -0.42779,0.55027 0.11085,0.0534 0.32775,0.0542 0.45164,0.001 z m -0.0393,-1.07611 c 0.15445,-0.0701 0.26726,-0.19422 0.26726,-0.29397 0,-0.0316 -0.0332,-0.0932 -0.0738,-0.13675 -0.0593,-0.0637 -0.11437,-0.0792 -0.28056,-0.0791 -0.44237,2.6e-4 -0.72705,0.38139 -0.39335,0.52657 0.15703,0.0683 0.30444,0.0632 0.48048,-0.0167 z m -0.76451,-0.65078 c 0.2834,-0.13079 0.41264,-0.36969 0.27466,-0.50767 -0.20907,-0.20908 -0.76337,0.0521 -0.76337,0.35961 0,0.20296 0.22323,0.27059 0.48871,0.14806 z m -0.91238,-0.37871 c 0.14141,-0.0591 0.34111,-0.27822 0.37438,-0.41082 0.0148,-0.0596 0.004,-0.13195 -0.0288,-0.1894 -0.0437,-0.0767 -0.0786,-0.0925 -0.19924,-0.0903 -0.1833,0.003 -0.35177,0.11882 -0.44755,0.3066 -0.0941,0.18435 -0.0912,0.30639 0.009,0.37647 0.0985,0.069 0.14239,0.0701 0.29232,0.007 z"
         id="path36"
         sodipodi:nodetypes="cscssssscssscssssssssssssscssssscssscsssscsssssscssssssssssssssssssscssssssssssscssscssssssssssssssssscsssscccssssscccccsssssscsssssscsscssscsscsscsssssssscccssssscccssscccsscssccsssscsssscscssssssssssssssccsssssssccsssssssscsscssssssssscccssscsscsssscsssscssssssssccssssscsssssssssssssssssssssscsscsssscccsssscccsscccsscccsssscsssscssssssssssssssssssscccssssssscssscssssssscsssssscssscssscsssssscsssscssscsssssscssssssssssssscsssssssssssssscsssscssssssssscsssssssssssssssscssssssssssssscscssssssssssscsscccssssscssssssssssssssssscsssssscssssssssssscssscscssssscsssssccsssssssssssssssssssssssssssssssssssssssssssssscsscsssssscsssssssssssssssssssssssssssssssssssss" />
      <circle
         style="fill:none;stroke:#ff0000;stroke-width:0.1;stroke-dasharray:none"
         id="path788-8-1-8-1-9-2-2-9-1-6-9-29-1"
         cx="882.7345"
         cy="-204.32361"
         r="19.954653" />
      <ellipse
         style="fill:none;stroke:#ff00ff;stroke-width:0.1;stroke-dasharray:none;stroke-opacity:1"
         id="path1138-9-4-0-0-1-2-8-1-8-1-17-7-1"
         cx="882.7345"
         cy="-204.32361"
         rx="18.492125"
         ry="18.492126" />
      <circle
         style="fill:none;stroke:#0000ff;stroke-width:0.1;stroke-linecap:round;stroke-dasharray:none;stroke-opacity:1;paint-order:markers stroke fill"
         id="path13019-1-33-4-5-5-2-4-3-8"
         cx="882.7345"
         cy="-219.33458"
         r="2" />
    </g>
  </g>
</svg>
