<?xml version="1.0" encoding="UTF-8" standalone="no"?>
<!-- Created with Inkscape (http://www.inkscape.org/) -->

<svg
   width="41.008999mm"
   height="41.008999mm"
   viewBox="0 0 41.008999 41.008999"
   version="1.1"
   id="svg1"
   inkscape:version="1.4.2 (f4327f4, 2025-05-13)"
   sodipodi:docname="293.svg"
   xmlns:inkscape="http://www.inkscape.org/namespaces/inkscape"
   xmlns:sodipodi="http://sodipodi.sourceforge.net/DTD/sodipodi-0.dtd"
   xmlns="http://www.w3.org/2000/svg"
   xmlns:svg="http://www.w3.org/2000/svg">
  <sodipodi:namedview
     id="namedview1"
     pagecolor="#ffffff"
     bordercolor="#000000"
     borderopacity="0.25"
     inkscape:showpageshadow="2"
     inkscape:pageopacity="0.0"
     inkscape:pagecheckerboard="0"
     inkscape:deskcolor="#d1d1d1"
     inkscape:document-units="mm"
     inkscape:zoom="1.4513545"
     inkscape:cx="86.470947"
     inkscape:cy="-62.700049"
     inkscape:window-width="1050"
     inkscape:window-height="1081"
     inkscape:window-x="857"
     inkscape:window-y="0"
     inkscape:window-maximized="0"
     inkscape:current-layer="layer1" />
  <defs
     id="defs1" />
  <g
     inkscape:label="Layer 1"
     inkscape:groupmode="layer"
     id="layer1"
     transform="translate(333.37504,1257.5646)">
    <g
       id="g67"
       transform="translate(-1238.173,-1032.7365)">
      <path
         d="m 921.50328,-189.69771 c -1.69097,-0.42859 -2.51784,-1.02641 -2.86682,-2.07261 -0.24953,-0.74799 -0.21995,-2.91362 0.0572,-4.23488 0.25513,-1.21321 0.87239,-2.89584 1.35806,-3.7026 0.29348,-0.48753 0.29421,-0.51062 0.0195,-0.59181 -0.87154,-0.25755 -3.26704,-1.59078 -3.93128,-2.18791 -0.86898,-0.78128 -1.60844,-1.85567 -1.98603,-2.88532 -0.24916,-0.67972 -0.43844,-3.23161 -0.28008,-3.7786 0.19183,-0.66308 0.83843,-0.0141 0.83843,0.84151 0,0.53247 1.47004,2.34445 2.57553,3.17474 1.19799,0.8997 2.97709,1.08448 3.67943,0.38213 0.35957,-0.35955 0.3911,-0.969 0.067,-1.29325 -0.12878,-0.12877 -0.23407,-0.28098 -0.23407,-0.33825 0,-0.0573 -0.14425,-0.30668 -0.32062,-0.55424 -0.39767,-0.55856 -0.54483,-2.69722 -0.21776,-3.16712 0.11076,-0.1601 0.16956,-0.37713 0.12914,-0.4823 -0.0402,-0.10517 0.0353,-0.2813 0.16786,-0.39142 0.13268,-0.11016 0.24138,-0.28231 0.24138,-0.38265 0,-0.1003 0.27594,-0.43619 0.61323,-0.74635 0.33742,-0.31018 0.57612,-0.60119 0.53059,-0.64672 -0.045,-0.0455 0.21728,-0.16359 0.58415,-0.26237 0.47776,-0.12864 0.60521,-0.21774 0.4494,-0.31405 -0.44453,-0.27471 0.30772,-0.34616 0.94786,-0.0901 0.77598,0.31045 0.78998,0.31027 0.66752,-0.009 -0.0755,-0.19574 -0.045,-0.22595 0.12197,-0.1226 0.12184,0.0755 0.66071,0.11965 1.19726,0.0983 0.78962,-0.0314 0.97561,0.007 0.97561,0.20065 0,0.16137 0.15082,0.23945 0.46267,0.23945 0.30309,0 0.52049,0.10773 0.62992,0.31218 0.0913,0.17171 0.27168,0.3122 0.39961,0.3122 0.12793,0 0.30236,0.18387 0.38781,0.4086 0.0852,0.22473 0.29652,0.58798 0.46888,0.80721 0.20425,0.2596 0.26036,0.4518 0.16103,0.55118 -0.0998,0.0993 -0.0791,0.29416 0.0572,0.55861 0.33693,0.65238 -0.1782,3.10592 -0.79533,3.78779 -0.18295,0.20222 -0.19719,0.33239 -0.0633,0.58206 0.25696,0.48012 0.72778,0.67002 1.70546,0.6878 1.81245,0.033 3.76452,-0.95067 5.08083,-2.56016 0.57538,-0.70347 0.71548,-0.99322 0.71743,-1.48289 0,-0.78394 0.21509,-1.15597 0.4976,-0.87339 0.13767,0.13763 0.19792,0.67773 0.19135,1.71573 -0.0122,1.29913 -0.0779,1.69675 -0.49176,2.7921 -0.26523,0.70247 -0.70368,1.59911 -0.97439,1.99251 -0.51087,0.7426 -2.16593,2.01036 -3.51779,2.69456 -0.42919,0.21727 -0.79557,0.40755 -0.81408,0.42285 -0.0183,0.0153 0.14692,0.47459 0.36748,1.02066 0.95869,2.37341 1.58057,5.22567 1.40055,6.42401 -0.20827,1.38708 -1.21139,2.44088 -2.67401,2.80919 -0.84719,0.21331 -2.56238,0.10736 -3.84924,-0.23786 -0.87397,-0.23441 -0.89685,-0.232 -1.61538,0.16954 -0.72267,0.40392 -2.33099,0.62191 -3.11744,0.42256 z m 5.22908,-2.24444 0.50077,-0.78046 h 0.9111 c 0.50113,0 0.95138,-0.0652 1.00068,-0.14507 0.0536,-0.0865 -0.25623,-0.10931 -0.76783,-0.0566 -0.71049,0.0733 -0.87482,0.0437 -0.95796,-0.17293 -0.0584,-0.15307 0.0207,-0.40351 0.19184,-0.60415 0.20352,-0.23884 0.21484,-0.28317 0.0365,-0.1463 -0.20973,0.16155 -0.27169,0.15271 -0.34935,-0.0498 -0.0523,-0.13543 -0.0304,-0.20632 0.0487,-0.15753 0.0791,0.0488 0.18831,0.0162 0.24308,-0.0726 0.0548,-0.0886 0.17589,-0.11405 0.26913,-0.0565 0.10346,0.064 0.12428,0.0316 0.0536,-0.0831 -0.0889,-0.14474 -0.17321,-0.14132 -0.36554,0.015 -0.21618,0.17569 -0.23504,0.16112 -0.1418,-0.10943 0.0949,-0.27551 0.084,-0.28251 -0.0901,-0.0595 -0.10833,0.13897 -0.44258,0.30548 -0.74178,0.37 -0.29931,0.0645 -0.74153,0.21824 -0.98279,0.34156 -0.39352,0.2011 -0.53448,0.19112 -1.36645,-0.0969 -0.51027,-0.17659 -1.04487,-0.32107 -1.18802,-0.32107 -0.14314,0 -0.3861,-0.11393 -0.53996,-0.25307 -0.3166,-0.28661 -0.75176,-0.1943 -0.70137,0.14884 0.0304,0.20547 0.195,0.41557 1.0736,1.36879 0.1502,0.163 0.27314,0.32236 0.27314,0.35413 0,0.0318 -0.33364,0.144 -0.74153,0.2494 -1.10013,0.28434 -1.18449,0.31641 -1.08747,0.41337 0.16919,0.16916 1.8906,-0.43641 3.41444,-1.20114 1.49634,-0.75088 2.1988,-0.92936 2.39684,-0.609 0.15605,0.25252 -0.23821,1.27021 -0.73958,1.9091 -0.25258,0.32195 -0.39049,0.58535 -0.30626,0.58535 0.084,0 0.3782,-0.35122 0.65365,-0.78046 z m -3.70572,-0.98605 c -0.53205,-0.59177 -0.55214,-0.72225 -0.13572,-0.88053 0.27947,-0.10626 0.59522,-0.0796 1.10195,0.093 0.7968,0.27148 0.85072,0.36205 0.38769,0.6512 -0.74251,0.46364 -1.03331,0.49293 -1.35392,0.13633 z m -1.05522,-1.04316 c -0.0535,-0.0858 -0.017,-0.1561 0.0779,-0.1561 0.0962,0 0.13158,-0.0694 0.0791,-0.1543 -0.0572,-0.0923 0.0146,-0.1121 0.17795,-0.0494 0.16956,0.0651 0.20194,0.12874 0.0852,0.16764 -0.10346,0.0346 -0.1485,0.12698 -0.0998,0.20549 0.0487,0.0785 0.0183,0.14277 -0.0682,0.14277 -0.0864,0 -0.19938,-0.0702 -0.25257,-0.15609 z m 4.64884,-0.68231 c 0.65207,-0.27783 1.14334,-0.8378 1.25009,-1.42496 0.13852,-0.76197 -0.19135,-2.21496 -0.6909,-3.04382 -0.0779,-0.12877 -0.24624,-0.44486 -0.37454,-0.70241 -0.33376,-0.66983 -0.55932,-0.98916 -1.0602,-1.50056 -0.47484,-0.485 -0.57332,-0.53603 -0.57332,-0.29736 0,0.0844 -0.22835,0.38836 -0.50734,0.67568 -0.27911,0.28734 -0.64622,0.78032 -0.81603,1.09551 -0.16968,0.31517 -0.36285,0.57306 -0.42919,0.57306 -0.0657,0 -0.12051,0.12643 -0.12051,0.28096 0,0.15454 -0.0876,0.36862 -0.19488,0.47575 -0.1261,0.12623 -0.19487,0.68079 -0.195,1.57574 -3.6e-4,1.52476 0.16932,1.88009 1.09222,2.28752 0.61507,0.2715 1.98786,0.27407 2.6196,0.005 z m -1.41296,-11.49297 c 0.18429,-0.1717 0.54641,-0.31218 0.80459,-0.31218 0.57441,0 1.59919,-0.68416 1.90204,-1.26977 0.12281,-0.23747 0.22324,-0.45887 0.22324,-0.49198 0,-0.0331 -0.2919,-0.0717 -0.64866,-0.0856 -0.35677,-0.014 -0.86424,-0.1513 -1.12764,-0.30516 -0.85985,-0.50216 -0.91256,-1.74981 -0.0743,-1.74981 0.16335,0 0.65425,0.24586 1.09112,0.54633 0.43674,0.30048 0.85656,0.54633 0.93276,0.54633 0.0767,0 0.13864,-0.31588 0.13864,-0.70198 0,-0.58637 -0.0925,-0.80411 -0.56053,-1.32237 -0.68457,-0.75773 -1.40127,-0.94129 -2.34718,-0.60115 -0.56358,0.20266 -0.70307,0.20399 -1.07274,0.01 -0.87239,-0.45711 -2.2649,0.18394 -2.72294,1.25356 -0.34423,0.80364 -0.51781,1.67384 -0.33376,1.67384 0.0743,0 0.48689,-0.31608 0.91657,-0.70242 0.84122,-0.75635 1.33177,-0.88002 1.58836,-0.40044 0.35835,0.66959 -0.42421,1.59755 -1.59445,1.89074 -0.40777,0.10212 -0.74141,0.24745 -0.74141,0.32286 0,0.26449 1.14407,1.40043 1.33615,1.32669 0.10711,-0.041 0.23882,-0.0298 0.29335,0.0247 0.0548,0.0545 0.28982,0.12396 0.52268,0.15422 0.23285,0.0303 0.52608,0.15638 0.65182,0.28027 0.302,0.29763 0.42299,0.28484 0.822,-0.0869 z m -1.37157,-1.47013 c -0.16664,-0.12176 -0.24905,-0.27512 -0.18344,-0.3408 0.0657,-0.0657 0.20255,-0.0363 0.30419,0.0652 0.10103,0.10164 0.31112,0.18472 0.46571,0.18472 0.34581,0 0.37624,-0.50703 0.0462,-0.78048 -0.41349,-0.34315 -0.27704,-0.62436 0.30285,-0.62436 0.63101,0 0.80824,0.19339 0.47898,0.52259 -0.2869,0.28699 -0.31137,0.88225 -0.0365,0.88225 0.10955,0 0.36006,-0.1126 0.55652,-0.25006 0.48591,-0.34034 0.6629,-0.10991 0.20242,0.26349 -0.44526,0.36097 -1.68854,0.40596 -2.13794,0.0774 z m -9.72759,-1.069 c -0.15411,-0.15301 -0.17212,-0.13508 -0.0877,0.0874 0.0584,0.15394 0.14595,0.24057 0.19403,0.19252 0.0475,-0.0481 0,-0.17402 -0.10712,-0.2799 z m 22.25407,-0.69685 c -0.0402,-0.15187 -0.0743,-0.0654 -0.0779,0.19216 0,0.25755 0.0292,0.38182 0.0718,0.27612 0.0426,-0.10565 0.045,-0.31639 0,-0.46828 z m -12.91234,-0.0359 c 0.37162,-0.235 0.11807,-0.28465 -0.30772,-0.0603 -0.21508,0.11333 -0.28507,0.20562 -0.15605,0.20556 0.12879,-4e-5 0.33742,-0.0655 0.46377,-0.1453 z m 3.3963,0.0557 c -0.0523,-0.0519 -0.18647,-0.0575 -0.29919,-0.0123 -0.12452,0.0499 -0.0876,0.0868 0.0937,0.0943 0.16457,0.007 0.25671,-0.0302 0.20486,-0.082 z"
         style="fill:#000000;stroke-width:0.1;stroke-dasharray:none"
         id="path1-00" />
      <circle
         style="fill:none;stroke:#ff0000;stroke-width:0.1;stroke-dasharray:none"
         id="path788-8-1-8-1-9-2-2-9-1-6-9-9-3"
         cx="925.30249"
         cy="-204.32361"
         r="19.954653" />
      <ellipse
         style="fill:none;stroke:#ff00ff;stroke-width:0.1;stroke-dasharray:none;stroke-opacity:1"
         id="path1138-9-4-0-0-1-2-8-1-8-1-17-3-3"
         cx="925.30249"
         cy="-204.32361"
         rx="18.492125"
         ry="18.492126" />
      <circle
         style="fill:none;stroke:#0000ff;stroke-width:0.1;stroke-linecap:round;stroke-dasharray:none;stroke-opacity:1;paint-order:markers stroke fill"
         id="path13019-1-33-4-5-5-2-4-30-2"
         cx="925.30249"
         cy="-219.33458"
         r="2" />
    </g>
  </g>
</svg>
