<?xml version="1.0" encoding="UTF-8" standalone="no"?>
<!-- Created with Inkscape (http://www.inkscape.org/) -->

<svg
   width="41.008999mm"
   height="41.008999mm"
   viewBox="0 0 41.008999 41.008999"
   version="1.1"
   id="svg1"
   inkscape:version="1.4.2 (f4327f4, 2025-05-13)"
   sodipodi:docname="294.svg"
   xmlns:inkscape="http://www.inkscape.org/namespaces/inkscape"
   xmlns:sodipodi="http://sodipodi.sourceforge.net/DTD/sodipodi-0.dtd"
   xmlns="http://www.w3.org/2000/svg"
   xmlns:svg="http://www.w3.org/2000/svg">
  <sodipodi:namedview
     id="namedview1"
     pagecolor="#ffffff"
     bordercolor="#000000"
     borderopacity="0.25"
     inkscape:showpageshadow="2"
     inkscape:pageopacity="0.0"
     inkscape:pagecheckerboard="0"
     inkscape:deskcolor="#d1d1d1"
     inkscape:document-units="mm"
     inkscape:zoom="1.4513545"
     inkscape:cx="86.470947"
     inkscape:cy="-62.700049"
     inkscape:window-width="1050"
     inkscape:window-height="1081"
     inkscape:window-x="857"
     inkscape:window-y="0"
     inkscape:window-maximized="0"
     inkscape:current-layer="layer1" />
  <defs
     id="defs1" />
  <g
     inkscape:label="Layer 1"
     inkscape:groupmode="layer"
     id="layer1"
     transform="translate(333.37504,1257.5646)">
    <g
       id="g68"
       transform="translate(-1280.1888,-1032.7365)">
      <path
         d="m 967.38429,-192.04833 c -5.68896,-1.0591 -10.35261,-4.72514 -10.35261,-8.13792 0,-0.87778 -0.0532,-1.01179 -0.40206,-1.01179 -0.56922,0 -0.50175,-0.26767 0.27503,-1.0913 l 0.67703,-0.71789 -0.62681,-0.006 -0.6268,-0.006 0.55364,-0.48724 c 0.30443,-0.26798 0.87258,-0.54708 1.26242,-0.62022 0.54361,-0.10198 0.68386,-0.21173 0.60165,-0.47083 -0.0942,-0.2968 0.0577,-0.33176 1.25027,-0.28785 0.74662,0.0275 1.19921,0.002 1.00577,-0.0554 -0.40047,-0.11998 -0.43922,-0.42299 -0.15104,-1.18093 l 0.20081,-0.52811 -1.35003,0.0628 c -1.15362,0.0536 -1.36043,0.0116 -1.42151,-0.28847 -0.0479,-0.23367 0.11343,-0.42154 0.48123,-0.56137 l 0.55273,-0.21015 -0.75862,-0.7369 c -0.66381,-0.64478 -0.74465,-0.82319 -0.64664,-1.42741 0.11313,-0.6971 0.81553,-1.63798 1.22284,-1.63798 0.12141,0 0.53525,0.25821 0.91977,0.57379 0.92668,0.76051 1.97804,1.28906 2.31044,1.16149 0.46953,-0.18015 1.61589,0.25522 2.08119,0.7904 0.3809,0.43802 0.5477,0.49348 1.0923,0.36327 0.9905,-0.23678 1.9391,-0.11196 2.4995,0.32887 0.554,0.43573 2.176,0.56444 2.3033,0.18276 0.097,-0.28969 1.7796,-0.37241 2.2111,-0.10867 0.257,0.15703 0.4406,0.11753 0.7483,-0.16092 0.2763,-0.24997 0.8964,-0.41686 1.9223,-0.51731 1.2852,-0.12584 1.7502,-0.28536 3.0711,-1.05363 0.8561,-0.49795 1.673,-0.86078 1.8153,-0.80629 0.3687,0.14118 0.8469,1.1417 0.8469,1.77216 0,0.59644 -0.9561,1.59193 -2.135,2.22284 -0.5285,0.28285 -0.6813,0.47788 -0.6103,0.77931 0.7535,3.20204 0.9021,5.19548 0.5325,7.14433 -0.6489,3.42178 -3.2237,5.9789 -6.7789,6.73225 -1.6342,0.34631 -2.7051,0.34563 -4.5771,-0.003 z m -5.0111,-5.95522 c 1.15135,-0.34818 2.2972,-1.89803 2.2972,-3.10707 0,-0.5745 -0.1073,-0.59206 -1.09579,-0.17906 -0.89773,0.37509 -1.47568,0.22768 -1.73005,-0.44127 -0.32898,-0.86543 0.0881,-1.32666 1.12498,-1.24419 0.56845,0.0452 0.80922,7.6e-4 0.68272,-0.12552 -0.10743,-0.10745 -0.80474,-0.22981 -1.54961,-0.27189 -1.1768,-0.0665 -1.40434,-0.0212 -1.73613,0.34542 -0.21008,0.23208 -0.50145,0.42195 -0.64762,0.42195 -0.42319,0 -0.83711,0.82107 -0.9627,1.90969 -0.0975,0.84559 -0.0819,0.91883 0.0985,0.4615 0.27542,-0.69804 0.8735,-0.8864 1.50357,-0.47353 0.6515,0.42687 0.62149,0.90033 -0.11594,1.82822 -0.33467,0.42122 -0.53821,0.83194 -0.45228,0.91272 0.39887,0.37468 1.26272,0.36232 2.58311,-0.037 z m -0.6243,-1.56513 c 0.0893,-0.28163 0.0274,-0.37327 -0.23765,-0.35178 -0.45829,0.0371 -0.58729,-0.72 -0.18021,-1.05784 0.45426,-0.37702 1.20285,0.0691 0.93997,0.56028 -0.10621,0.19861 -0.14207,0.55665 -0.0795,0.79564 0.0832,0.31834 0.0228,0.43455 -0.22489,0.43455 -0.24077,0 -0.30368,-0.10999 -0.21768,-0.38085 z m 8.4999,-1.44444 c -0.2676,-0.15581 -0.3609,-0.50348 -0.3899,-1.45129 l -0.038,-1.24639 -0.073,1.17283 c -0.072,1.15466 0.1424,1.7489 0.626,1.73586 0.1246,-0.003 0.068,-0.0983 -0.1252,-0.21101 z m 3.4509,-1.33422 c 0.1354,-0.29733 0.2994,-0.98879 0.3643,-1.53658 0.1155,-0.97557 0.108,-0.99333 -0.3662,-0.86647 -0.2662,0.0713 -0.6479,0.13075 -0.8482,0.13226 -0.3273,0.002 -0.3579,0.17264 -0.3015,1.68115 0.062,1.65148 0.069,1.67402 0.484,1.40433 0.2317,-0.15075 0.5321,-0.51736 0.6676,-0.81469 z m -7.9011,-1.50105 c 0.1365,-0.99599 0.2138,-0.91081 -1.1784,-1.29904 -0.2272,-0.0634 -0.3518,0.0135 -0.3518,0.21697 0,0.17329 -0.093,0.31508 -0.2078,0.31508 -0.1142,0 0.112,0.31961 0.5026,0.71027 0.3907,0.39064 0.7103,0.86104 0.7103,1.0453 0,0.68005 0.3994,-0.0719 0.5251,-0.98858 z m -2.79077,-1.08947 c -0.0669,-0.0668 -0.24016,-0.0739 -0.38527,-0.0159 -0.16039,0.0642 -0.11275,0.11181 0.12141,0.12146 0.21189,0.009 0.33064,-0.0388 0.26386,-0.10558 z m 8.96887,-0.68263 c 0.5877,-0.33168 1.3327,-0.60444 1.6554,-0.60614 0.4125,-0.002 0.5045,-0.0551 0.3098,-0.17854 -0.1524,-0.0965 -0.223,-0.26298 -0.1569,-0.36993 0.071,-0.11362 -0.086,-0.155 -0.3762,-0.0995 -0.2731,0.0522 -0.4965,0.21355 -0.4965,0.35856 0,0.232 -1.9079,1.09662 -2.4198,1.09662 -0.1065,0 -0.1935,0.0905 -0.1935,0.20103 0,0.35561 0.5826,0.216 1.6777,-0.40205 z m 0.6201,0.0196 c -0.053,-0.0529 -0.2523,0.0669 -0.4432,0.26613 -0.3315,0.34614 -0.3272,0.35043 0.096,0.0962 0.2437,-0.14638 0.3999,-0.30941 0.347,-0.36229 z m -2.6214,0.0958 c -0.076,-0.19711 0.068,-0.31329 0.4586,-0.37192 0.489,-0.0733 0.4657,-0.0895 -0.1664,-0.11538 -0.6425,-0.0264 -0.7218,0.0205 -0.6299,0.37191 0.058,0.22113 0.1822,0.40205 0.2764,0.40205 0.094,0 0.1218,-0.129 0.061,-0.28666 z m 3.6865,0.1652 c -0.067,-0.0668 -0.2402,-0.0739 -0.3853,-0.0159 -0.1604,0.0642 -0.1127,0.1118 0.1214,0.12145 0.2119,0.009 0.3307,-0.0388 0.2639,-0.10558 z m -8.1874,-0.14892 c 0,-0.0381 -0.1965,-0.24168 -0.4366,-0.45229 -0.2401,-0.21062 -0.3704,-0.26987 -0.2897,-0.13167 0.086,0.14609 0.037,0.25966 -0.1161,0.27131 -0.1448,0.011 -0.037,0.0925 0.2394,0.18098 0.2764,0.0885 0.5251,0.16996 0.5528,0.18099 0.027,0.011 0.05,-0.0112 0.05,-0.0493 z m 0.3515,-0.62256 c -0.4517,-0.3303 -0.4516,-0.53378 4e-4,-0.38842 0.2969,0.0955 0.3047,0.0793 0.05,-0.10375 -0.1659,-0.1193 -1.0339,-0.21829 -1.9289,-0.21998 -1.36953,-0.002 -1.68483,-0.0668 -1.99109,-0.40512 -0.42213,-0.46649 -0.17946,-0.52503 0.39021,-0.0941 0.56602,0.42809 1.11746,0.37533 1.11746,-0.10691 0,-0.44316 -0.3175,-0.54802 -0.45647,-0.15077 -0.0653,0.18702 -0.1853,0.16659 -0.469,-0.0799 -0.20961,-0.18214 -0.99422,-0.60726 -1.7435,-0.94471 -1.08775,-0.48989 -1.4184,-0.74683 -1.64048,-1.275 -0.15294,-0.3638 -0.2356,-0.73021 -0.18371,-0.81422 0.0517,-0.084 0.008,-0.15276 -0.10492,-0.15276 -0.3757,0 -0.47531,0.82006 -0.14405,1.1861 0.47173,0.52125 0.38854,0.7465 -0.11176,0.30246 -0.31751,-0.28187 -0.4064,-0.30336 -0.33665,-0.0814 0.0517,0.16584 0.66555,0.49928 1.36331,0.74097 0.69777,0.2417 1.36948,0.54139 1.49263,0.66596 0.16586,0.16781 0.0936,0.17877 -0.27868,0.0423 -0.2764,-0.10133 -0.77389,-0.24409 -1.1056,-0.31726 -0.56831,-0.12537 -0.58061,-0.11548 -0.21281,0.17159 0.21455,0.16753 0.58175,0.30461 0.81591,0.30461 0.23408,0 0.60127,0.14308 0.8159,0.31794 0.3245,0.2644 0.33187,0.29968 0.0441,0.20951 -0.34425,-0.10787 -1.6594,0.24782 -1.50121,0.40601 0.0456,0.0456 0.30231,-5.3e-4 0.5705,-0.1025 0.33232,-0.12634 0.74145,-0.0971 1.2843,0.0919 0.43816,0.15248 1.29669,0.27861 1.90792,0.28028 0.84069,0.002 1.28119,0.12024 1.80919,0.48444 0.7011,0.48365 1.2047,0.51384 0.5468,0.0328 z m 7.6349,0.36945 c -0.067,-0.0668 -0.2402,-0.0739 -0.3853,-0.0159 -0.1604,0.0642 -0.1127,0.1118 0.1214,0.12145 0.212,0.009 0.3307,-0.0388 0.2639,-0.10558 z m -1.6543,-0.48162 c 0.068,-0.11056 0.028,-0.20101 -0.089,-0.20101 -0.1171,0 -0.2129,0.0905 -0.2129,0.20101 0,0.11056 0.04,0.20102 0.089,0.20102 0.049,0 0.1445,-0.0905 0.2128,-0.20102 z m -0.804,-0.20101 c -0.068,-0.11056 -0.4581,-0.18912 -0.8662,-0.17457 l -0.742,0.0264 0.7036,0.1481 c 1.036,0.21806 1.0394,0.21806 0.9046,0 z m -11.57181,-0.68776 c 0.19466,-0.2346 0.16252,-0.26622 -0.1796,-0.17675 -0.50281,0.13149 -0.75072,0.46246 -0.3463,0.46246 0.15879,0 0.39545,-0.12857 0.5259,-0.28571 z m 18.99331,-0.31735 c 0.077,0 0.085,0.0905 0.016,0.20102 -0.2069,0.33475 0.1699,0.21744 0.7035,-0.21898 0.4835,-0.3955 0.4848,-0.40232 0.033,-0.18026 -0.2583,0.12693 -0.5199,0.18051 -0.5813,0.11905 -0.062,-0.0615 0.2982,-0.28745 0.7992,-0.5022 0.5009,-0.21475 0.9834,-0.51101 1.0721,-0.65837 0.1284,-0.21336 0.092,-0.21174 -0.1789,0.008 -0.187,0.15174 -0.3401,0.18543 -0.3401,0.0748 0,-0.11056 0.1347,-0.3128 0.2993,-0.44943 0.1647,-0.13662 0.2438,-0.33817 0.1761,-0.4479 -0.1176,-0.19011 -1.179,0.78291 -1.179,1.08072 0,0.078 -0.3096,0.35152 -0.688,0.60789 -0.3785,0.25637 -0.7234,0.60182 -0.7665,0.76766 -0.058,0.22443 -0.01,0.21158 0.2077,-0.0502 0.1573,-0.19348 0.3492,-0.35178 0.4265,-0.35178 z m -12.3464,0.15077 c 1e-4,-0.16273 -0.2655,-0.23869 -0.7538,-0.21556 -1.0112,0.0479 -1.0609,0.0854 -0.3519,0.26581 0.9144,0.23268 1.1056,0.22399 1.1057,-0.0502 z m 4.2213,0.0502 c -0.7261,-0.23253 -1.2493,-0.23253 -1.1056,0 0.068,0.11056 0.4581,0.19201 0.8662,0.18098 0.6664,-0.018 0.6908,-0.0364 0.2394,-0.18098 z m 3.6183,-0.22445 c 0,-0.0977 -0.2261,-0.17759 -0.5025,-0.17759 -0.29,0 -0.5025,0.11577 -0.5025,0.27365 0,0.18351 0.1655,0.24201 0.5025,0.17759 0.2764,-0.0528 0.5025,-0.17598 0.5025,-0.27365 z m 4.3634,-0.50662 c 0.5392,-0.3747 0.6301,-0.49804 0.3104,-0.42085 -0.2488,0.06 -0.4523,0.0272 -0.4523,-0.073 0,-0.1002 0.1476,-0.18219 0.3281,-0.18219 0.3618,0 1.7679,-1.38833 1.5882,-1.56812 -0.062,-0.0619 -0.4176,0.22035 -0.7903,0.62726 -0.5081,0.55471 -0.8374,0.73984 -1.3158,0.73984 -0.3742,0 -0.5867,0.0831 -0.5138,0.20102 0.068,0.11056 -0.062,0.20101 -0.2896,0.20101 -0.2277,0 -0.4139,0.10177 -0.4139,0.22615 0,0.14618 0.231,0.18298 0.6533,0.10406 0.5761,-0.10766 0.6117,-0.0902 0.3015,0.14781 -0.3303,0.25339 -0.4654,0.52709 -0.2602,0.52709 0.05,0 0.4348,-0.23852 0.8544,-0.53005 z m -12.957,-0.005 c -0.1382,-0.0558 -0.3643,-0.0558 -0.5025,0 -0.1382,0.0558 -0.025,0.10139 0.2513,0.10139 0.2764,0 0.3894,-0.0457 0.2512,-0.10139 z m -2.69279,-0.55413 c -0.0395,-0.0325 -0.38778,-0.11466 -0.7748,-0.18261 l -0.70354,-0.12353 0.70354,0.37924 c 0.39219,0.21136 0.73514,0.2922 0.7748,0.1826 0.0387,-0.10814 0.0387,-0.22321 0,-0.2557 z m -2.10537,-0.70171 c -0.34494,-0.2103 -0.72976,-0.67692 -0.85527,-1.03694 -0.12551,-0.36002 -0.27556,-0.60724 -0.33346,-0.54936 -0.34432,0.34437 0.9706,1.9715 1.59155,1.96942 0.12331,-4.2e-4 -0.0577,-0.17281 -0.40282,-0.38312 z m 0.54794,-0.32682 c -0.48572,-0.27767 -0.92555,-0.46236 -0.97751,-0.41046 -0.13486,0.13488 1.19837,0.91896 1.55918,0.91696 0.16578,-7.6e-4 -0.0959,-0.22885 -0.58167,-0.5065 z m 17.76752,0.10993 c 0.071,-0.11395 -0.011,-0.14765 -0.1892,-0.079 -0.3483,0.13364 -0.4119,0.27772 -0.1229,0.27772 0.1041,0 0.2445,-0.0894 0.3121,-0.19872 z m -24.16457,8.6369 c -0.10067,-0.38493 -0.12088,-0.38763 -0.37684,-0.0502 -0.33506,0.4416 -0.36537,0.0532 -0.0502,-0.63918 0.26068,-0.57204 0.57081,-0.67905 0.57081,-0.19693 0,0.22188 0.11701,0.27794 0.39561,0.18952 0.36309,-0.11524 0.37798,-0.0751 0.18136,0.489 -0.24624,0.70639 -0.56648,0.7987 -0.72094,0.20784 z m -0.25801,-2.43218 c 0,-0.53956 -0.0433,-0.59198 -0.30642,-0.3734 -0.57567,0.47776 -0.5702,-0.007 0.008,-0.60919 0.72914,-0.76102 0.9026,-0.75589 0.9026,0.0267 0,0.53957 0.0433,0.59199 0.30641,0.3734 0.54095,-0.44897 0.53145,-0.0669 -0.0144,0.58185 -0.66768,0.79345 -0.895,0.79361 -0.895,6.3e-4 z m 1.20612,-2.11957 c 0,-0.18846 0.19769,-0.55313 0.43937,-0.81035 l 0.43937,-0.4677 -0.6404,0.12809 c -0.95882,0.19175 -0.7995,-0.26588 0.18477,-0.53092 1.22648,-0.33027 1.52059,-0.14485 0.97835,0.61675 l -0.43634,0.61274 0.52257,-0.13115 c 0.65484,-0.16436 0.71463,0.25366 0.0699,0.49104 -1.13874,0.41947 -1.55797,0.44409 -1.55797,0.0915 z"
         style="fill:#000000;stroke-width:0.1;stroke-dasharray:none"
         id="path1-66" />
      <circle
         style="fill:none;stroke:#ff0000;stroke-width:0.1;stroke-dasharray:none"
         id="path788-8-1-8-1-9-2-2-9-1-6-9-9-0-0"
         cx="967.31824"
         cy="-204.32361"
         r="19.954653" />
      <ellipse
         style="fill:none;stroke:#ff00ff;stroke-width:0.1;stroke-dasharray:none;stroke-opacity:1"
         id="path1138-9-4-0-0-1-2-8-1-8-1-17-3-2-6"
         cx="967.31824"
         cy="-204.32361"
         rx="18.492125"
         ry="18.492126" />
      <circle
         style="fill:none;stroke:#0000ff;stroke-width:0.1;stroke-linecap:round;stroke-dasharray:none;stroke-opacity:1;paint-order:markers stroke fill"
         id="path13019-1-33-4-5-5-2-4-30-1-9"
         cx="967.31818"
         cy="-219.33458"
         r="2" />
    </g>
  </g>
</svg>
