<?xml version="1.0" encoding="UTF-8" standalone="no"?>
<!-- Created with Inkscape (http://www.inkscape.org/) -->

<svg
   width="41.008999mm"
   height="41.008999mm"
   viewBox="0 0 41.008999 41.008999"
   version="1.1"
   id="svg1"
   inkscape:version="1.4.2 (f4327f4, 2025-05-13)"
   sodipodi:docname="366.svg"
   xmlns:inkscape="http://www.inkscape.org/namespaces/inkscape"
   xmlns:sodipodi="http://sodipodi.sourceforge.net/DTD/sodipodi-0.dtd"
   xmlns="http://www.w3.org/2000/svg"
   xmlns:svg="http://www.w3.org/2000/svg">
  <sodipodi:namedview
     id="namedview1"
     pagecolor="#ffffff"
     bordercolor="#000000"
     borderopacity="0.25"
     inkscape:showpageshadow="2"
     inkscape:pageopacity="0.0"
     inkscape:pagecheckerboard="0"
     inkscape:deskcolor="#d1d1d1"
     inkscape:document-units="mm"
     inkscape:zoom="1.4513545"
     inkscape:cx="86.470947"
     inkscape:cy="71.657199"
     inkscape:window-width="1050"
     inkscape:window-height="1081"
     inkscape:window-x="857"
     inkscape:window-y="0"
     inkscape:window-maximized="0"
     inkscape:current-layer="layer1"
     showguides="false" />
  <defs
     id="defs1" />
  <g
     inkscape:label="Layer 1"
     inkscape:groupmode="layer"
     id="layer1"
     transform="translate(333.37504,1257.5646)">
    <g
       id="g7"
       transform="translate(-1011.1454,-1163.6159)">
      <circle
         style="fill:none;stroke:#0000ff;stroke-width:0.1;stroke-linecap:round;stroke-dasharray:none;stroke-opacity:1;paint-order:markers stroke fill"
         id="circle6695-6-0-4"
         cx="698.2749"
         cy="-88.45565"
         r="2" />
      <circle
         style="fill:none;stroke:#ff0000;stroke-width:0.1;stroke-dasharray:none"
         id="circle6705-3-4-5"
         cx="698.2749"
         cy="-73.444237"
         r="19.954653" />
      <ellipse
         style="fill:none;stroke:#ff00ff;stroke-width:0.1;stroke-dasharray:none;stroke-opacity:1"
         id="path1138-9-4-0-0-1-2-0-0-6-8-8-1-2-0-7-3-35-3-8"
         cx="698.2749"
         cy="-73.444237"
         rx="18.492125"
         ry="18.492126" />
      <path
         style="fill:#000000;stroke-width:0.211361"
         d="m 693.06686,-57.483431 c -0.78432,-0.02288 -1.72802,-0.04906 -2.09711,-0.05815 l -0.67107,-0.01655 0.89477,-0.05143 c 1.24377,-0.07149 11.61672,-0.08338 13.25367,-0.01519 l 1.34215,0.05591 -0.89476,0.03624 c -1.4327,0.05804 -10.26535,0.09475 -11.82765,0.04916 z m 0.97864,-0.789331 c -0.99883,-0.174921 -1.82634,-0.424676 -2.06853,-0.624309 -0.22676,-0.186911 -0.3641,-0.449494 -0.3641,-0.6961 0,-0.332552 0.9679,-1.086872 2.6004,-2.026594 0.9032,-0.519911 1.05315,-0.618593 0.93999,-0.618593 -0.0336,0 -0.36632,-0.224891 -0.73945,-0.499758 -0.37312,-0.274869 -0.80996,-0.547495 -0.97074,-0.605838 -0.16078,-0.05834 -0.48795,-0.175949 -0.72704,-0.261348 -1.4253,-0.509094 -2.81647,-1.840429 -3.36868,-3.223805 -0.21353,-0.534931 -0.48485,-0.800186 -1.33906,-1.309095 -0.64113,-0.381964 -1.09293,-0.775523 -1.09293,-0.952038 0,-0.04825 0.073,-0.129636 0.16224,-0.180849 l 0.16224,-0.09311 -0.39135,-0.419054 c -0.39657,-0.424646 -0.71457,-0.904273 -0.71552,-1.079208 -6.4e-4,-0.1324 0.20377,-0.229538 0.40043,-0.190206 l 0.1636,0.03272 -0.25586,-0.348652 c -0.29773,-0.405704 -0.5512,-0.875432 -0.63346,-1.173914 -0.0721,-0.261721 0.0333,-0.399722 0.27785,-0.363824 0.0873,0.01281 0.15876,0.01716 0.15876,0.0097 0,-0.0075 -0.14908,-0.298839 -0.33127,-0.647406 -0.39641,-0.758375 -0.54778,-1.228022 -0.45877,-1.423385 0.0868,-0.190497 0.2775,-0.169282 0.62461,0.06948 0.1636,0.112541 0.28014,0.165173 0.2622,0.118415 -0.13367,-0.348343 -0.27577,-0.907986 -0.30265,-1.192043 -0.0392,-0.413906 0.0333,-0.582943 0.24981,-0.582943 0.35793,0 2.15022,1.595428 3.04692,2.712251 0.24695,0.307574 0.46411,0.565284 0.48258,0.572688 0.0185,0.0074 0.14505,-0.168753 0.28129,-0.391459 0.4085,-0.667766 1.00182,-1.439034 1.48641,-1.932221 l 0.45667,-0.464771 -0.25655,-0.219961 c -0.15844,-0.135838 -0.37419,-0.253191 -0.56413,-0.306844 -0.97687,-0.27594 -1.70784,-0.744609 -2.28644,-1.465972 -0.34472,-0.42977 -0.55384,-0.860386 -0.85296,-1.756382 -0.29077,-0.870996 -0.31342,-1.347442 -0.0879,-1.848688 0.18926,-0.420621 0.57032,-0.786715 0.97801,-0.939604 0.55154,-0.206831 1.35521,-0.147708 1.91299,0.140734 0.0997,0.05158 0.19912,0.07277 0.22081,0.04709 0.0217,-0.02569 0.11106,-0.219744 0.1986,-0.431239 0.59268,-1.432063 1.87679,-2.512334 3.33841,-2.808498 0.55126,-0.111699 1.56507,-0.08117 2.08684,0.06284 1.53133,0.422645 2.63691,1.535243 3.05489,3.074272 0.1634,0.601688 0.17795,1.98877 0.0287,2.738183 -0.48491,2.435022 -1.8025,4.092091 -3.62097,4.553895 -0.22028,0.05594 -0.37241,0.11908 -0.33806,0.140307 0.17316,0.107023 0.76564,0.271152 1.23892,0.343209 0.78008,0.118767 1.1535,0.10544 1.58379,-0.05652 0.50188,-0.188906 1.35598,-0.355772 2.05548,-0.401577 l 0.5829,-0.03817 0.88777,-0.435725 c 2.59355,-1.272927 4.83839,-2.017406 7.25767,-2.406939 0.92375,-0.148733 2.69807,-0.180112 2.9993,-0.05304 0.59077,0.249222 0.30041,0.999327 -0.83744,2.163461 l -0.55063,0.563351 0.5182,-0.0017 c 0.6569,-0.0021 0.84657,0.07665 0.87051,0.361335 0.0137,0.16372 -0.0305,0.263668 -0.24733,0.55883 -0.43732,0.595243 -1.23704,1.30093 -2.03739,1.797841 l -0.29534,0.183367 0.40971,0.04131 c 0.22535,0.02272 0.46865,0.07992 0.54067,0.127115 0.45646,0.299082 -0.28998,1.06969 -1.68668,1.741306 l -0.65705,0.315943 0.24472,0.117463 c 0.18781,0.09015 0.24878,0.152652 0.26218,0.268796 0.0158,0.136799 -0.0203,0.170344 -0.37565,0.349297 -0.50217,0.25289 -1.01006,0.422425 -2.02033,0.674406 -1.22677,0.305975 -1.22844,0.306491 -1.22936,0.378973 -0.002,0.151183 -0.4501,1.062697 -0.74475,1.514725 -0.35848,0.549963 -1.06115,1.307423 -1.51403,1.63207 -0.16909,0.121216 -0.30864,0.239267 -0.31012,0.262335 -0.001,0.02307 0.19598,0.04194 0.43878,0.04194 0.61783,0 1.55431,0.103056 1.77521,0.195355 0.10206,0.04264 0.23792,0.160829 0.30194,0.262642 0.19554,0.311018 0.12416,0.613622 -0.37695,1.597951 l -0.43457,0.85361 0.0915,0.236882 c 0.0503,0.130285 0.15971,0.398511 0.24307,0.596058 0.17894,0.424002 0.17686,0.870741 -0.005,1.072101 -0.2963,0.328083 -1.27805,0.661341 -2.62346,0.890539 -2.1455,0.365499 -3.13186,0.314079 -3.44146,-0.179407 -0.1625,-0.259019 -0.12237,-0.586102 0.10752,-0.87636 0.28609,-0.361223 1.43641,-1.436037 2.37246,-2.216734 0.4794,-0.399848 0.8729,-0.742349 0.87443,-0.761113 10e-4,-0.01877 -0.12933,-0.04882 -0.2908,-0.0668 -0.16148,-0.01796 -0.64306,-0.07408 -1.07018,-0.124682 l -0.77658,-0.092 -0.59352,0.171091 c -0.53661,0.154684 -1.3511,0.328231 -2.01749,0.429873 l -0.24959,0.03807 0.25646,0.130337 c 0.2984,0.151651 0.55029,0.426992 0.55029,0.601517 0,0.192303 -0.25899,0.632736 -0.73202,1.244857 l -0.43626,0.56454 0.19244,0.552655 c 0.32051,0.920422 0.30889,1.234657 -0.0562,1.521883 -0.31235,0.245699 -1.78107,0.306858 -2.85453,0.118867 z m 2.40197,-0.409771 c 0.27542,-0.115076 0.32309,-0.239787 0.22917,-0.599583 -0.043,-0.164953 -0.13049,-0.421535 -0.19431,-0.570184 -0.0677,-0.157633 -0.11603,-0.390906 -0.11603,-0.559738 0,-0.265647 0.0252,-0.321645 0.30551,-0.680416 0.4693,-0.600529 0.75701,-1.036508 0.75701,-1.14709 0,-0.07066 -0.16937,-0.18778 -0.5732,-0.396381 -0.57061,-0.294754 -0.57662,-0.296386 -1.32817,-0.360908 -0.41522,-0.03565 -0.76181,-0.05936 -0.77019,-0.05269 -0.008,0.0067 0.18035,0.1395 0.41942,0.295183 0.23906,0.15568 0.50413,0.355992 0.58904,0.445135 l 0.15438,0.162083 -0.12642,0.114247 c -0.0695,0.06284 -0.56559,0.361164 -1.10236,0.66295 -1.11323,0.625898 -1.98991,1.197536 -2.38464,1.554908 -0.24918,0.225596 -0.26617,0.257013 -0.20806,0.384559 0.0854,0.187331 0.47169,0.360308 1.23722,0.553932 0.77353,0.195648 1.27724,0.256309 2.20739,0.265827 0.50431,0.0052 0.7706,-0.016 0.90424,-0.07184 z m 4.94469,-0.958659 c 1.2743,-0.186793 2.63985,-0.552867 2.96344,-0.794427 0.17051,-0.127295 0.18534,-0.160833 0.15875,-0.359029 -0.0162,-0.120242 -0.11698,-0.403212 -0.22412,-0.628826 -0.32044,-0.674729 -0.32598,-0.624974 0.18174,-1.630723 0.24704,-0.489392 0.45576,-0.976411 0.46382,-1.082265 0.014,-0.183341 10e-4,-0.197595 -0.26497,-0.30079 -0.22272,-0.08629 -0.50721,-0.117975 -1.39808,-0.155727 l -1.11845,-0.0474 -0.66619,0.320226 -0.66619,0.320227 0.27474,0.03884 c 0.15109,0.02137 0.58786,0.07894 0.97057,0.127938 0.38272,0.049 0.72874,0.11639 0.76894,0.149751 0.19706,0.163548 0.16367,0.197533 -1.99605,2.031276 -0.71567,0.607652 -1.65743,1.554673 -1.70965,1.719203 -0.0287,0.09031 -6.3e-4,0.1531 0.11181,0.249743 0.13956,0.120042 0.1994,0.129101 0.85281,0.129101 0.3865,0 0.97018,-0.0392 1.29708,-0.08712 z m -3.79557,-4.001052 c 1.14729,-0.15438 2.524,-0.596536 3.59984,-1.156149 1.20498,-0.626794 2.00167,-1.239966 2.61715,-2.014301 0.3236,-0.407129 0.63777,-0.894972 0.59839,-0.929204 -0.0114,-0.0099 -0.31017,0.04161 -0.66388,0.114548 -0.72627,0.149757 -1.82299,0.225675 -2.32232,0.160753 -0.18371,-0.02388 -0.30885,-0.05177 -0.27809,-0.06198 0.0308,-0.01021 0.55923,-0.07114 1.17438,-0.135405 1.01078,-0.105596 1.58926,-0.19604 2.06914,-0.323499 0.11063,-0.02938 0.20054,-0.109242 0.26397,-0.234453 0.053,-0.104441 0.0886,-0.197531 0.0792,-0.206867 -0.009,-0.0093 -0.40765,0.07055 -0.88515,0.177518 -1.47578,0.330611 -2.16546,0.42544 -3.34467,0.459876 -1.03991,0.03036 -1.90137,-0.03549 -1.90137,-0.145371 0,-0.02207 0.4341,-0.08396 0.96466,-0.137533 2.3852,-0.240852 4.31914,-0.691511 5.02267,-1.170411 0.19579,-0.13327 0.42639,-0.411453 0.37976,-0.458092 -0.0157,-0.0157 -0.50475,0.05997 -1.08675,0.168176 -0.582,0.108211 -1.09088,0.18986 -1.13085,0.181441 -0.0399,-0.0084 0.29415,-0.176353 0.74248,-0.373195 0.44832,-0.196839 0.99943,-0.465773 1.22468,-0.59763 0.71048,-0.4159 1.26514,-1.011714 1.26514,-1.359008 0,-0.107416 -0.0123,-0.106747 -0.51728,0.02806 -0.2845,0.07596 -0.71582,0.200661 -0.95846,0.277125 -0.24265,0.07646 -0.45034,0.129867 -0.46153,0.118675 -0.0112,-0.01119 0.19974,-0.194335 0.46873,-0.406984 1.28602,-1.016637 1.99606,-1.913591 1.87656,-2.370537 -0.0163,-0.06226 -0.0378,-0.113199 -0.0478,-0.113199 -0.0101,0 -0.44961,0.149782 -0.97681,0.33285 l -0.95855,0.332851 1.00574,-0.989942 c 0.85353,-0.840128 1.03239,-1.045572 1.18186,-1.357526 0.17275,-0.360527 0.25915,-0.931934 0.1565,-1.035006 -0.0469,-0.04706 -1.13815,0.26712 -1.43448,0.412981 -0.10463,0.0515 -0.33112,0.256851 -0.5033,0.456332 -0.76715,0.888749 -1.19627,1.16004 -0.60064,0.379725 0.10447,-0.136867 0.2341,-0.316228 0.28806,-0.398579 0.0981,-0.149658 0.098,-0.149705 -0.0351,-0.09828 -0.73728,0.284784 -2.49053,1.144561 -3.29127,1.613997 -1.33686,0.783744 -2.67751,1.794344 -3.46876,2.61479 -0.13841,0.143516 -0.29391,0.284102 -0.34557,0.312414 -0.0816,0.04472 -0.0881,0.03108 -0.0494,-0.103758 0.0735,-0.256024 0.28439,-0.640279 0.49217,-0.896473 0.32107,-0.395879 1.20711,-1.151054 1.89448,-1.614669 0.35434,-0.238989 0.61704,-0.443594 0.58379,-0.454678 -0.12127,-0.04042 -0.99401,0.17136 -1.4847,0.360284 -0.57188,0.22018 -1.14022,0.53736 -1.60333,0.894776 -0.35862,0.276774 -0.43822,0.298349 -0.43791,0.118699 2.1e-4,-0.181198 0.19378,-0.485644 0.45898,-0.72223 l 0.22974,-0.204945 -0.27456,-0.03558 c -0.9132,-0.118315 -1.53818,-0.33695 -1.9076,-0.667326 -0.25448,-0.227585 -0.29085,-0.241841 -0.70453,-0.276131 -0.51054,-0.04232 -1.18906,-0.206701 -1.70384,-0.412784 l -0.3653,-0.146238 -0.61464,0.62776 c -0.34353,0.350863 -0.59267,0.648112 -0.56482,0.6739 0.0936,0.08669 1.0554,0.224619 1.97915,0.283823 0.5075,0.03253 1.0863,0.07548 1.28622,0.09546 l 0.3635,0.03633 -0.27961,0.04053 c -0.60086,0.0871 -2.06174,0.05457 -2.72068,-0.06058 -0.34908,-0.061 -0.68536,-0.125297 -0.74729,-0.14287 -0.0923,-0.0262 -0.16544,0.04815 -0.40599,0.41278 -0.88231,1.3374 -1.35482,2.852396 -1.35482,4.343934 0,1.686815 0.56562,3.074908 1.687,4.140108 1.047,0.994544 2.48113,1.562863 4.35266,1.724863 0.36684,0.03175 1.6386,-0.01847 2.12506,-0.08394 z m -2.76817,-0.98551 c -0.0923,-0.01315 -0.19167,-0.04711 -0.22089,-0.0755 -0.0628,-0.061 0.39137,-0.06886 0.7242,-0.01253 0.20338,0.03442 0.21099,0.04147 0.0839,0.07769 -0.1536,0.04377 -0.33052,0.04689 -0.58719,0.01033 z m 1.76156,-0.253349 c 0.063,-0.06123 1.46998,-0.65935 1.49414,-0.635193 0.0485,0.04852 -0.44098,0.365435 -0.73108,0.473308 -0.27595,0.102609 -0.82111,0.218268 -0.76306,0.161885 z m 2.54449,-1.605429 c 0.26094,-0.270604 0.47534,-0.436402 0.47534,-0.367576 0,0.07385 -0.4282,0.493351 -0.58299,0.57113 -0.15166,0.07622 -0.13895,0.05219 0.10765,-0.203554 z m -10.20383,-1.9369 c -0.17614,-1.218613 0.0375,-2.824626 0.53207,-3.999671 l 0.14111,-0.335267 -0.37785,-0.486051 c -0.20782,-0.267328 -0.6083,-0.723898 -0.88997,-1.014599 l -0.51211,-0.528549 -0.1134,0.222286 c -0.25681,0.503377 -0.19339,1.139965 0.20306,2.038371 l 0.22009,0.498737 -0.16287,-0.08422 c -0.17368,-0.08982 -0.43499,-0.416644 -0.6186,-0.773717 -0.14577,-0.283491 -0.21111,-0.189551 -0.21226,0.305175 -7.5e-4,0.487344 0.15037,0.916882 0.56091,1.590238 0.18315,0.300383 0.33299,0.556129 0.33299,0.568324 0,0.08404 -0.37344,-0.200432 -0.61489,-0.468396 l -0.29121,-0.323182 0.0403,0.19573 c 0.10538,0.511879 0.4577,1.257778 0.89891,1.903073 0.27423,0.401087 0.86773,1.129316 0.89674,1.100306 0.0125,-0.01251 -0.002,-0.196377 -0.033,-0.40859 z m 16.59612,-1.139201 c 0.13501,-0.19249 0.19135,-0.223427 0.54212,-0.297689 0.29096,-0.0616 0.34239,-0.08448 0.20031,-0.08912 -0.10513,-0.0035 -0.3442,0.02067 -0.53126,0.05355 l -0.34012,0.0598 -0.11762,0.301271 c -0.11289,0.289133 -0.11332,0.298968 -0.0109,0.244132 0.0587,-0.03143 0.17456,-0.153805 0.25743,-0.271954 z m 0.66756,-1.318937 c 0.19511,-0.170677 0.34707,-0.371701 0.46025,-0.608847 l 0.16897,-0.35404 0.43355,-0.112713 c 0.55067,-0.143161 0.25499,-0.158485 -0.40529,-0.02101 -0.43439,0.09045 -0.44687,0.09755 -0.42972,0.244523 0.0242,0.207359 -0.15854,0.598469 -0.40933,0.876063 -0.27659,0.306155 -0.18146,0.293592 0.18157,-0.02398 z m 0.38584,-2.052004 c 0.35543,-0.378297 0.50255,-0.622992 0.59742,-0.993708 0.0874,-0.34133 0.065,-0.329362 1.20905,-0.64717 0.32128,-0.08925 0.5378,-0.171194 0.48117,-0.182101 -0.13607,-0.0262 -0.63856,0.07165 -1.43303,0.279077 l -0.64733,0.169006 0.0246,0.296712 c 0.0317,0.382139 -0.0503,0.620804 -0.35577,1.035769 -0.13605,0.184805 -0.22589,0.336009 -0.19967,0.336009 0.0262,0 0.17183,-0.132117 0.32355,-0.293594 z m -19.35823,-2.341689 c -0.34904,-0.331246 -0.52507,-0.435624 -0.30777,-0.182503 0.36061,0.420053 0.53063,0.57712 0.57582,0.531936 0.0277,-0.02775 -0.0878,-0.178364 -0.26805,-0.349433 z m 19.86674,-0.21227 c 0.32569,-0.397745 0.50941,-0.796976 0.53857,-1.170288 0.0126,-0.161924 0.0365,-0.307942 0.0531,-0.324484 0.0165,-0.01654 0.27728,-0.11392 0.57943,-0.216399 0.30214,-0.102478 0.49545,-0.18821 0.42956,-0.190515 -0.10848,-0.0038 -1.42217,0.31679 -1.46221,0.356828 -0.009,0.0093 0.0119,0.130925 0.047,0.270367 0.09,0.357268 -0.0397,0.763973 -0.42286,1.32673 -0.24177,0.355069 -0.27519,0.428292 -0.16149,0.353788 0.0789,-0.05167 0.25838,-0.234384 0.39892,-0.406027 z m -11.05791,-0.257669 c 0.51979,-0.124422 1.20715,-0.475774 1.57399,-0.804558 1.14947,-1.030242 1.84843,-2.959354 1.76451,-4.86999 -0.034,-0.773952 -0.12814,-1.189877 -0.39238,-1.733697 -0.41626,-0.856691 -1.35364,-1.398067 -2.42071,-1.398067 -0.63167,0 -1.04737,0.157231 -1.6868,0.638012 -0.67645,0.508603 -0.94707,0.648209 -1.25658,0.648209 -0.42626,0 -0.65778,-0.278011 -0.65778,-0.789888 v -0.292139 l -0.14542,0.135575 c -0.08,0.07457 -0.24348,0.252219 -0.36333,0.394784 l -0.2179,0.25921 0.0896,0.214498 c 0.11659,0.279047 0.0716,0.609452 -0.14656,1.075583 -0.0919,0.196394 -0.16586,0.385711 -0.16437,0.420705 10e-4,0.03499 0.30977,0.307868 0.68505,0.606389 0.37529,0.29852 1.03465,0.834782 1.46525,1.191692 l 0.78292,0.648928 0.37373,-0.03134 c 0.20555,-0.01724 0.43586,-0.0077 0.5118,0.02116 0.3406,0.129495 0.59813,0.672944 0.51063,1.077552 -0.0622,0.28744 -0.27402,0.666917 -0.5045,0.903613 -0.6022,0.61847 -1.51338,0.955765 -2.79304,1.033914 l -0.61514,0.03757 0.30417,0.17791 c 0.35506,0.207673 1.06318,0.445962 1.54128,0.518655 0.4386,0.06669 1.30381,0.02529 1.76156,-0.08428 z m -0.614,-5.177826 c -0.55372,-0.220928 -0.76472,-1.112583 -0.42675,-1.803373 0.18017,-0.36827 0.55313,-0.716069 0.86951,-0.810859 0.60009,-0.179789 1.18836,0.368892 1.27281,1.187137 0.0891,0.863045 -0.95419,1.73088 -1.71557,1.427095 z m 0.88243,-1.794221 c 0.0369,-0.03691 0.0671,-0.132537 0.0671,-0.212507 0,-0.188289 -0.0954,-0.279613 -0.292,-0.279613 -0.20564,0 -0.31673,0.210373 -0.22149,0.419419 0.0701,0.1537 0.32401,0.195064 0.44637,0.0727 z m -2.25369,5.733369 c 0.5109,-0.115622 0.93092,-0.304131 1.30215,-0.584411 0.16511,-0.124663 0.29184,-0.235025 0.28162,-0.245248 -0.0102,-0.01022 -0.18202,0.01973 -0.38176,0.06656 -0.87512,0.205167 -1.89171,-0.127288 -2.71943,-0.889327 -0.14281,-0.131478 -0.58013,-0.617973 -0.97183,-1.081101 -0.77755,-0.919356 -1.16728,-1.294536 -1.64475,-1.583361 -0.39855,-0.24109 -0.72909,-0.314327 -1.04036,-0.23051 -0.65128,0.175372 -0.70949,0.691271 -0.22115,1.959963 0.31447,0.81702 0.42824,1.019906 0.8012,1.428843 0.60515,0.663538 1.58294,1.136496 2.58495,1.250339 0.5685,0.06459 1.50814,0.02169 2.00936,-0.09174 z m 1.31419,-1.20312 c 0.35279,-0.132984 0.56114,-0.479903 0.41874,-0.697235 -0.0811,-0.123836 -0.11954,-0.132795 -0.52633,-0.122786 -0.51676,0.01272 -0.44351,0.05696 -1.97105,-1.190566 -1.25444,-1.02449 -1.5359,-1.237815 -2.10283,-1.593746 -0.85663,-0.537803 -1.58344,-0.652993 -2.2251,-0.35265 l -0.27619,0.129275 0.45223,0.03751 c 0.92621,0.07681 1.59141,0.556399 2.83256,2.042205 0.58019,0.694566 1.24465,1.30677 1.65667,1.526369 0.58306,0.31077 1.27214,0.398475 1.7413,0.221631 z m -3.21556,-4.764623 c 0,-0.225005 -0.15289,-0.313848 -0.3043,-0.176825 -0.0633,0.0573 -0.11512,0.132996 -0.11512,0.168214 0,0.113229 0.13506,0.203517 0.27922,0.186669 0.11355,-0.01327 0.1402,-0.04713 0.1402,-0.178058 z m 2.16606,-0.980725 c 0.83908,-0.673099 1.34074,-0.891273 2.16073,-0.9397 0.66503,-0.03928 0.55267,-0.140163 -0.15611,-0.140163 -0.61055,0 -1.26192,0.20992 -1.82636,0.588597 -0.21286,0.142808 -0.47296,0.289605 -0.578,0.326215 -0.17434,0.06076 -0.2002,0.05518 -0.2968,-0.06411 -0.0813,-0.100395 -0.0975,-0.18017 -0.0698,-0.344223 0.0462,-0.273292 0.002,-0.270789 -0.14038,0.0079 -0.13961,0.273652 -0.14627,0.599755 -0.0152,0.744579 0.16741,0.184989 0.56405,0.107927 0.92186,-0.179107 z m -5.43754,24.314471 c -0.58442,-0.419789 -1.13224,-0.852602 -1.23334,-0.974424 -0.0696,-0.08392 -0.0579,-0.08383 0.14539,0.0011 0.39241,0.163867 0.71706,0.379187 1.05199,0.69771 0.28257,0.268732 0.58425,0.621149 0.52909,0.618074 -0.01,-6.34e-4 -0.23169,-0.15464 -0.49313,-0.342431 z m 1.25807,-0.197935 c -0.70921,-0.624734 -1.14851,-1.040828 -1.12437,-1.064966 0.052,-0.05201 0.6774,0.369023 0.90617,0.61008 0.24736,0.260657 0.49471,0.598764 0.46197,0.631495 -0.0111,0.01116 -0.12084,-0.06833 -0.24377,-0.176609 z m 0.25163,-1.230105 c -0.67615,-0.574334 -1.23601,-1.093309 -1.2088,-1.120525 0.0567,-0.05669 0.62971,0.304239 0.94449,0.594919 0.3045,0.28119 0.69238,0.769404 0.64718,0.814601 -0.0108,0.01078 -0.18306,-0.119276 -0.38287,-0.288995 z m 16.52502,-0.261337 c 0.10272,-0.156765 0.54606,-0.491346 0.86172,-0.650323 0.30951,-0.155884 0.68592,-0.290009 0.71953,-0.256392 0.0331,0.0331 -0.61446,0.450702 -1.20158,0.774861 -0.36747,0.202894 -0.44351,0.229304 -0.37967,0.131854 z m -15.93965,-0.827861 c -0.38414,-0.373822 -0.68725,-0.690868 -0.67356,-0.70455 0.0537,-0.05373 0.65838,0.402401 0.93866,0.708082 0.28128,0.306772 0.53573,0.676143 0.46577,0.676143 -0.0179,0 -0.34674,-0.305855 -0.73087,-0.679675 z m 14.91144,-0.05491 c 0.25066,-0.31648 0.73406,-0.689529 1.15877,-0.894249 0.19464,-0.09382 0.36307,-0.161402 0.37429,-0.150179 0.048,0.04802 -1.55505,1.271814 -1.66959,1.274579 -0.0257,6.34e-4 0.0358,-0.102948 0.13653,-0.230151 z m -18.38905,-1.81357 c 0.0523,-0.06353 0.11082,-0.194642 0.13016,-0.291355 0.0294,-0.146609 0.007,-0.204099 -0.13484,-0.345846 -0.0935,-0.09351 -0.21094,-0.170009 -0.26097,-0.170009 -0.14018,0 -0.40324,0.152804 -0.44345,0.257588 -0.0198,0.05168 -0.0501,0.07993 -0.0672,0.06278 -0.0584,-0.05836 0.0925,-0.26302 0.25639,-0.34775 0.23241,-0.120187 0.41862,-0.1048 0.59789,0.04941 0.22433,0.19296 0.2204,0.5325 -0.009,0.746911 -0.0904,0.08458 -0.12154,0.101806 -0.0693,0.03827 z m 19.45778,-1.40352 c -0.74744,-0.368394 -0.46193,-1.509126 0.37465,-1.496892 0.83921,0.01226 1.08974,1.11477 0.33903,1.491946 -0.24119,0.121177 -0.47458,0.122795 -0.71368,0.005 z m 0.71851,-0.201478 c 0.10375,-0.06991 0.22268,-0.217721 0.2653,-0.32973 0.068,-0.17875 0.066,-0.226712 -0.0168,-0.401275 -0.16281,-0.343105 -0.55057,-0.486198 -0.86357,-0.318679 -0.15411,0.08247 -0.33884,0.382112 -0.33912,0.550045 -2.1e-4,0.193805 0.15015,0.44554 0.32205,0.538813 0.21867,0.118647 0.41612,0.106412 0.63216,-0.03917 z m 6.09185,-2.932102 c -0.16916,-0.04661 -0.77312,-0.181399 -1.34214,-0.299531 l -1.03457,-0.214783 0.51964,-0.0029 c 0.28581,-0.0017 0.71361,0.03691 0.95069,0.08563 0.43301,0.08899 1.21454,0.381088 1.27308,0.475816 0.0392,0.06347 0.0121,0.06021 -0.3667,-0.04417 z m -31.3067,-0.49005 c 0.0696,-0.07492 0.85149,-0.256337 1.25306,-0.290725 0.35208,-0.03015 1.29041,0.01894 1.24363,0.06505 -0.01,0.0098 -0.45853,0.0586 -0.99679,0.108373 -0.53825,0.04977 -1.10447,0.105721 -1.25825,0.124338 -0.15379,0.01862 -0.26253,0.01545 -0.24165,-0.0071 z m 22.85847,-10.198141 c 0.39623,-0.570212 1.21422,-1.278221 1.90528,-1.649103 0.62383,-0.334803 0.66322,-0.292136 0.11707,0.126815 -0.43774,0.335786 -1.63362,1.283568 -2.043,1.619155 -0.0898,0.0736 -0.0862,0.05693 0.0207,-0.09687 z m -21.42051,-1.860108 c 0.31731,-0.126938 1.16006,-0.18593 1.6756,-0.117291 0.95551,0.127219 0.822,0.170811 -0.52316,0.170811 -0.87491,0 -1.24344,-0.01712 -1.15244,-0.05352 z m 20.38616,-2.560638 c 0.21119,-0.408379 0.16335,-0.90455 -0.11962,-1.240848 -0.20078,-0.238605 -0.41346,-0.332138 -0.7547,-0.331897 -0.34931,2.53e-4 -0.5739,0.118242 -0.80718,0.424077 -0.14459,0.189572 -0.16026,0.252564 -0.16026,0.644196 0,0.36832 -0.0101,0.415574 -0.0671,0.311928 -0.28318,-0.515079 -0.047,-1.220056 0.50275,-1.500503 0.34123,-0.174085 0.90126,-0.130875 1.2257,0.09457 0.28579,0.198588 0.49196,0.572224 0.49119,0.890192 -6.4e-4,0.229905 -0.21353,0.765899 -0.33386,0.840274 -0.0393,0.02425 -0.0298,-0.02961 0.0231,-0.13199 z m -15.26599,-0.645007 c -0.55277,-0.240776 -0.63973,-0.932567 -0.17213,-1.369382 0.21438,-0.200258 0.6187,-0.22414 0.87262,-0.05154 0.31131,0.211615 0.4633,0.477833 0.43265,0.757803 -0.0348,0.31726 -0.16858,0.505771 -0.44966,0.633394 -0.27373,0.12428 -0.44891,0.131899 -0.68348,0.02972 z m 0.64079,-0.226277 c 0.50276,-0.259987 0.24917,-1.118549 -0.33038,-1.118549 -0.43864,0 -0.75482,0.443838 -0.59267,0.831933 0.0427,0.102013 0.13609,0.226514 0.20769,0.276671 0.16141,0.113054 0.50669,0.117855 0.71536,0.0099 z"
         id="path35-2-5" />
    </g>
  </g>
</svg>
