<?xml version="1.0" encoding="UTF-8" standalone="no"?>
<!-- Created with Inkscape (http://www.inkscape.org/) -->

<svg
   width="41.008999mm"
   height="41.008999mm"
   viewBox="0 0 41.008999 41.009"
   version="1.1"
   id="svg1"
   inkscape:version="1.4.2 (f4327f4, 2025-05-13)"
   sodipodi:docname="224.svg"
   xmlns:inkscape="http://www.inkscape.org/namespaces/inkscape"
   xmlns:sodipodi="http://sodipodi.sourceforge.net/DTD/sodipodi-0.dtd"
   xmlns="http://www.w3.org/2000/svg"
   xmlns:svg="http://www.w3.org/2000/svg">
  <sodipodi:namedview
     id="namedview1"
     pagecolor="#ffffff"
     bordercolor="#000000"
     borderopacity="0.25"
     inkscape:showpageshadow="2"
     inkscape:pageopacity="0.0"
     inkscape:pagecheckerboard="0"
     inkscape:deskcolor="#d1d1d1"
     inkscape:document-units="mm"
     inkscape:zoom="2.0485264"
     inkscape:cx="68.341808"
     inkscape:cy="134.73099"
     inkscape:window-width="1050"
     inkscape:window-height="1081"
     inkscape:window-x="3737"
     inkscape:window-y="0"
     inkscape:window-maximized="0"
     inkscape:current-layer="layer1" />
  <defs
     id="defs1" />
  <g
     inkscape:label="Layer 1"
     inkscape:groupmode="layer"
     id="layer1"
     transform="translate(-114.0891,-77.774176)">
    <g
       id="g155"
       transform="translate(-387.85733,402.26247)">
      <circle
         style="fill:none;stroke:#ff0000;stroke-width:0.1;stroke-dasharray:none"
         id="path788-8-1-8-1-9-2-56-8-1-7-71-3-2-3-6"
         cx="522.45093"
         cy="-303.9838"
         r="19.954653" />
      <ellipse
         style="fill:none;stroke:#ff00ff;stroke-width:0.1;stroke-dasharray:none;stroke-opacity:1"
         id="path1138-9-4-0-0-1-2-4-9-7-82-6-75-2-3-5"
         cx="522.45093"
         cy="-303.9838"
         rx="18.492125"
         ry="18.492126" />
      <circle
         style="fill:none;stroke:#0000ff;stroke-width:0.1;stroke-linecap:round;stroke-dasharray:none;stroke-opacity:1;paint-order:markers stroke fill"
         id="path13019-1-33-6-2-4-0-0-76-9-7-5"
         cx="522.45093"
         cy="-318.99475"
         r="2" />
      <path
         style="fill:#000000;stroke-width:0.199753"
         d="m 514.75209,-293.1098 c -0.13493,-0.32694 -0.12869,-0.71741 0.016,-1.00102 0.0618,-0.12122 0.13657,-0.23531 0.16605,-0.25353 0.1218,-0.0752 0.0419,-0.13201 -0.14459,-0.10273 -0.15484,0.0244 -0.22308,0.008 -0.312,-0.0759 -0.14963,-0.14077 -0.20201,-0.47441 -0.12493,-0.79574 0.0973,-0.40555 0.53644,-0.77845 0.93337,-0.79254 0.19082,-0.007 0.19324,-0.15726 0.006,-0.41097 -0.36549,-0.49685 -0.77267,-0.99939 -0.91879,-1.13395 -0.49003,-0.45128 -1.25577,-0.58166 -1.79662,-0.30592 -0.18772,0.0957 -0.28485,0.0948 -0.28485,-0.003 0,-0.0256 0.16004,-0.12521 0.35563,-0.2215 0.31925,-0.15717 0.40172,-0.17496 0.80599,-0.17393 0.67939,0.002 0.90085,0.12403 1.70991,0.94431 l 0.65142,0.66047 0.41864,-0.20055 c 0.23025,-0.11031 0.50933,-0.23318 0.62018,-0.27307 0.22833,-0.0821 0.34934,-0.19585 0.26723,-0.25108 -0.0291,-0.0196 -0.2773,-0.20478 -0.55153,-0.41153 -0.88011,-0.66355 -1.3179,-0.84809 -2.14014,-0.9021 -0.32222,-0.0212 -0.49894,-0.0543 -0.49894,-0.0936 0,-0.0712 0.40076,-0.21806 0.73558,-0.26953 0.39511,-0.0608 0.10666,-0.15059 -0.52417,-0.16324 -0.61346,-0.0124 -0.98872,0.0629 -1.36571,0.27356 -0.29964,0.16748 -0.32553,0.16446 -0.32553,-0.038 0,-0.236 0.17116,-0.56297 0.43328,-0.82772 0.2144,-0.21654 0.21703,-0.22308 0.0667,-0.16594 -0.27904,0.10606 -0.68032,0.35904 -0.88134,0.55562 -0.24618,0.24074 -0.32896,0.2025 -0.28915,-0.1336 0.0675,-0.56975 0.69418,-1.35937 1.39105,-1.75265 l 0.29521,-0.16662 -0.17756,-0.0873 c -0.57527,-0.28287 -1.13916,-0.8095 -1.47324,-1.37588 -0.37515,-0.63601 -0.47576,-1.05302 -0.52882,-2.19184 -0.0881,-1.89092 -0.36808,-3.31985 -0.82528,-4.21166 -0.25881,-0.50484 -0.82473,-1.16348 -1.24435,-1.44826 -0.12555,-0.0852 -0.24016,-0.16792 -0.2547,-0.18384 -0.0145,-0.016 -0.11312,-0.0791 -0.21909,-0.14044 -0.1406,-0.0814 -0.20844,-0.0957 -0.25104,-0.0531 -0.0426,0.0426 -0.0584,0.0226 -0.0584,-0.0743 0,-0.11504 0.0353,-0.14175 0.26513,-0.20066 0.1503,-0.0385 0.28757,-0.10987 0.31694,-0.16474 0.0585,-0.1093 0.40755,-0.22169 1.18845,-0.38266 0.77534,-0.15983 2.2186,-0.15672 3.19749,0.007 1.57152,0.26265 2.73403,0.63042 4.94159,1.56336 0.31975,0.13514 0.77446,0.31415 1.01046,0.39781 l 0.42909,0.15213 0.4958,-0.33091 c 1.38838,-0.92664 3.02331,-1.66984 4.3857,-1.99363 0.47384,-0.11262 0.51474,-0.13461 1.17975,-0.63421 0.71691,-0.5386 1.46487,-1.00686 2.277,-1.42549 0.59749,-0.30801 1.24025,-0.58303 1.29029,-0.5521 0.021,0.013 0.11432,-0.0227 0.20744,-0.0794 0.17883,-0.10875 0.58956,-0.14172 0.58956,-0.0474 0,0.0306 -0.14672,0.19113 -0.32605,0.35674 -0.73055,0.67465 -1.38755,1.52375 -1.76603,2.28238 -0.20245,0.40581 -0.46561,1.25072 -0.40137,1.28868 0.0198,0.0116 0.19047,0.0382 0.37941,0.059 0.79652,0.0876 2.21975,0.45079 2.21975,0.56646 0,0.0585 -0.21462,0.0455 -1.05702,-0.0637 -1.07871,-0.13988 -1.59816,-0.17077 -1.6444,-0.0978 -0.0249,0.0393 -0.0456,0.25286 -0.046,0.4747 -8.8e-4,0.40334 -8.8e-4,0.40334 0.24238,0.56154 0.21051,0.13694 0.2632,0.15064 0.39208,0.10198 0.23215,-0.0876 0.53751,0.0797 0.87788,0.48085 1.22073,1.43893 1.89833,3.72239 1.72069,5.79861 -0.0249,0.29068 -0.0421,0.53363 -0.0382,0.53988 0.004,0.006 0.15828,-0.0497 0.34317,-0.12441 0.46421,-0.18751 0.9645,-0.2493 1.46018,-0.18036 0.45905,0.0639 0.99026,0.2956 1.01775,0.44401 0.0157,0.085 -0.004,0.0928 -0.15856,0.0599 -0.20993,-0.045 -0.20439,-0.0375 0.15559,0.20976 l 0.27939,0.19192 0.64551,-0.23637 c 1.01189,-0.37054 2.69409,-0.80887 3.86942,-1.00827 0.55969,-0.0949 0.71349,-0.10067 0.71349,-0.0265 0,0.0686 0.0171,0.064 -0.89846,0.23857 -0.4215,0.0804 -1.07553,0.22703 -1.45342,0.326 -0.37788,0.099 -0.81578,0.21295 -0.9731,0.25331 -0.46198,0.11851 -1.70998,0.56069 -1.79227,0.63501 -0.009,0.009 0.0203,0.0879 0.0661,0.1763 0.0986,0.19072 0.11152,0.53605 0.02,0.53605 -0.0347,0 -0.13186,-0.0654 -0.21581,-0.14534 l -0.15265,-0.14534 0.0441,0.2114 c 0.0243,0.11628 0.0383,0.3444 0.0312,0.50696 l -0.0128,0.29555 0.9668,0.0336 c 1.57964,0.0549 3.93692,0.31642 3.98511,0.44201 0.0156,0.0408 0.0186,0.084 0.006,0.096 -0.0121,0.0121 -0.5085,-0.0337 -1.1032,-0.10165 -1.51347,-0.17298 -2.39905,-0.24176 -3.18574,-0.24742 -0.37261,-0.003 -0.68492,0.004 -0.69401,0.0135 -0.009,0.01 -0.0881,0.16108 -0.17564,0.33549 -0.0875,0.17441 -0.27033,0.46802 -0.40626,0.65248 -0.29801,0.4044 -1.11876,1.24477 -1.4767,1.51203 -0.14247,0.10636 -0.35652,0.27234 -0.47566,0.36883 -0.55935,0.45303 -2.06093,1.36951 -2.94423,1.79699 -0.37234,0.18019 -0.40701,0.21106 -0.46739,0.41616 -0.13512,0.45894 -0.46884,1.08703 -0.70082,1.31899 -0.21254,0.21255 -0.2626,0.23619 -0.56791,0.26809 -0.18415,0.0192 -0.56968,0.035 -0.85674,0.035 -0.46731,0 -0.55862,-0.0167 -0.87263,-0.15902 -0.42207,-0.19137 -0.71441,-0.41551 -1.20607,-0.92471 -0.34892,-0.36134 -0.38651,-0.38526 -0.66065,-0.42036 -0.66409,-0.085 -2.46233,-0.60162 -2.77469,-0.79707 -0.27496,-0.17204 -0.32463,-0.15382 -0.50547,0.18547 -0.19334,0.36275 -0.78984,0.96128 -1.1695,1.17346 -0.55711,0.31139 -1.36161,0.53875 -2.13426,0.60319 -0.42626,0.0355 -0.42626,0.0355 -0.54163,0.25336 -0.0634,0.1198 -0.11529,0.29096 -0.11521,0.38037 2e-4,0.2564 -0.18421,0.39243 -0.53177,0.39218 -0.28728,-1.9e-4 -0.28728,-1.9e-4 -0.3908,-0.25104 z m 0.62656,0.009 c 0.0177,-0.0462 -0.008,-0.15252 -0.0576,-0.23621 -0.10919,-0.18484 -0.0565,-0.26117 0.0892,-0.12928 0.1026,0.0929 0.10608,0.0927 0.1077,-0.004 8.8e-4,-0.0554 0.0366,-0.14685 0.0793,-0.20327 0.13254,-0.17523 0.096,-0.24094 -0.13381,-0.24094 -0.15268,0 -0.2114,-0.022 -0.2114,-0.0793 0,-0.0632 0.078,-0.0794 0.38317,-0.0797 0.4513,-5.3e-4 1.23008,-0.0842 1.56192,-0.16767 l 0.2346,-0.0591 -0.25155,-0.0955 c -0.59992,-0.22772 -0.82419,-0.74017 -0.52875,-1.20818 0.14395,-0.22804 0.47265,-0.51259 1.27786,-1.10624 0.33336,-0.24577 0.5953,-0.48627 0.70549,-0.64775 0.0964,-0.14126 0.16549,-0.2643 0.15356,-0.27341 -0.0119,-0.009 -0.11683,-0.0446 -0.23311,-0.0788 -0.46557,-0.137 -0.46388,-0.26457 0.002,-0.16781 0.48131,0.0999 1.51953,0.0617 2.21769,-0.0816 0.1419,-0.0291 0.19233,0.002 0.47567,0.28845 0.17432,0.17656 0.34047,0.32105 0.36924,0.3211 0.0288,5e-5 -0.0148,-0.0622 -0.0969,-0.13823 -0.10501,-0.0974 -0.13259,-0.15491 -0.0932,-0.19431 0.0394,-0.0394 0.0856,-0.0292 0.15597,0.0345 0.0958,0.0867 0.0989,0.0849 0.0743,-0.0436 -0.0356,-0.18651 0.0714,-0.16926 0.17343,0.028 0.0842,0.16276 0.19702,0.18511 0.22434,0.0444 0.008,-0.0415 -0.0692,-0.2149 -0.17177,-0.38519 -0.21253,-0.35295 -0.23156,-0.50385 -0.0807,-0.64034 0.22302,-0.20182 0.0889,-0.35347 -0.13845,-0.15654 -0.0837,0.0725 -0.23865,0.15542 -0.34426,0.18422 -0.10562,0.0288 -0.2215,0.0879 -0.25752,0.13124 -0.14837,0.17879 -0.98452,0.0679 -2.02704,-0.26866 -0.49008,-0.15824 -0.59898,-0.17705 -0.74535,-0.12874 -0.26607,0.0878 -0.38707,0.25339 -0.42531,0.58201 -0.0395,0.33939 -0.0964,0.4778 -0.31493,0.76634 -0.2363,0.31199 -0.32512,0.37344 -0.84109,0.58196 -0.82505,0.33341 -1.07523,0.62601 -1.12763,1.31884 -0.0166,0.21902 -0.0493,0.39823 -0.0729,0.39823 -0.054,0 -0.15272,-0.34942 -0.15311,-0.54172 -2.1e-4,-0.12199 -0.0228,-0.14534 -0.14065,-0.14534 -0.30841,0 -0.7061,0.48358 -0.70455,0.85672 0.002,0.32022 0.0517,0.41905 0.20439,0.40133 0.0971,-0.0112 0.14347,-0.0516 0.15531,-0.13497 0.009,-0.0654 0.0331,-0.1189 0.0528,-0.1189 0.0197,0 0.036,-0.14864 0.036,-0.33032 0,-0.18168 0.0226,-0.34223 0.0502,-0.35675 0.0276,-0.0146 0.0778,0.12658 0.11166,0.31358 0.0466,0.25768 0.0959,0.36958 0.20338,0.46207 0.25221,0.21694 0.41666,0.21609 1.11464,-0.006 0.0792,-0.0251 0.12069,-8.9e-4 0.16556,0.0977 0.0684,0.15015 0.0354,0.2156 -0.0663,0.13123 -0.0501,-0.0415 -0.13825,-0.0355 -0.32198,0.0225 -0.13912,0.0438 -0.34808,0.0956 -0.46436,0.11497 -0.69792,0.11622 -0.84562,0.27044 -0.84562,0.88299 0,0.34547 0.0161,0.41946 0.10571,0.4872 0.13899,0.10502 0.32402,0.10462 0.36447,-8.8e-4 z m 11.09445,-0.65961 c 0.40013,-0.11111 0.70953,-0.54951 1.16406,-1.6494 0.2391,-0.57856 0.59074,-1.08891 0.6852,-0.99445 0.0347,0.0347 0.0184,0.10032 -0.0479,0.19391 -0.19992,0.28187 -0.28476,0.41976 -0.28503,0.46333 -5.3e-4,0.1116 1.84238,-0.97957 2.57434,-1.52409 0.44176,-0.32865 0.77251,-0.71361 1.13538,-1.32146 0.17153,-0.28735 0.30407,-0.66064 0.23455,-0.66064 -0.0152,0 -0.11819,0.083 -0.22882,0.1845 -0.41674,0.38228 -1.17845,0.66112 -1.80592,0.66112 -0.36778,0 -0.6616,0.14317 -1.09062,0.53147 -0.75115,0.67981 -1.25144,1.39193 -1.8318,2.60737 -0.55518,1.16273 -1.51133,1.08373 -2.58437,-0.21351 -0.40602,-0.49086 -0.77787,-1.10119 -1.00187,-1.64443 -0.0927,-0.22487 -0.18488,-0.4264 -0.20481,-0.44784 -0.0199,-0.0214 -0.11856,0.004 -0.21921,0.058 -0.10063,0.0534 -0.51594,0.27014 -0.9229,0.48178 -1.04112,0.5414 -0.97792,0.46503 -0.6483,0.78347 0.54228,0.52389 1.09831,0.89264 1.44318,0.95707 0.12965,0.0242 0.23572,0.036 0.23572,0.026 0,-0.01 -0.0581,-0.1452 -0.12924,-0.30059 -0.31117,-0.68032 -0.49906,-1.46468 -0.35085,-1.46468 0.0333,0 0.0692,0.0297 0.0797,0.0661 0.0105,0.0363 0.0719,0.25632 0.13644,0.48887 0.16886,0.60837 0.49353,1.19197 0.91463,1.64405 0.46798,0.50242 0.80096,0.74226 1.32635,0.95536 0.35073,0.14226 0.49906,0.1736 0.8241,0.17409 0.21801,3.9e-4 0.48712,-0.0246 0.59801,-0.0554 z m -8.27504,-0.85511 c 0.56552,-0.27967 1.09424,-0.8554 1.4062,-1.53123 0.12801,-0.2773 0.29865,-0.97086 0.29865,-1.21385 v -0.20453 l -0.15635,0.11559 c -0.12971,0.0959 -0.17022,0.10407 -0.23783,0.048 -0.0448,-0.0372 -0.0815,-0.10039 -0.0815,-0.14043 0,-0.0508 -0.0701,-0.0728 -0.23143,-0.0728 -0.2074,0 -0.23823,0.0165 -0.29722,0.15888 -0.0838,0.20227 -0.37544,0.49396 -0.7943,0.7944 -0.61753,0.44295 -1.26461,1.0033 -1.35061,1.1696 -0.17796,0.34416 -0.004,0.72588 0.41864,0.91799 0.38018,0.17284 0.61112,0.16348 1.02574,-0.0415 z m -3.08045,-0.036 c 0.0168,-0.0271 0.006,-0.0641 -0.0233,-0.0824 -0.0295,-0.0183 -0.0537,0.004 -0.0537,0.0492 0,0.0928 0.0317,0.10651 0.077,0.0332 z m 10.92142,-0.17548 c 0.49704,-0.42959 0.43882,-1.43996 -0.11962,-2.07599 -0.16259,-0.18519 -0.55692,-0.42827 -0.60948,-0.37571 -0.0146,0.0145 0.0332,0.17672 0.10588,0.36044 0.15873,0.40076 0.27632,1.09306 0.19882,1.17055 -0.0593,0.0593 -0.16109,-0.15844 -0.16423,-0.3511 -0.004,-0.20494 -0.13789,-0.69071 -0.25474,-0.91973 -0.14782,-0.28972 -0.70336,-0.88228 -0.90577,-0.96612 -0.13178,-0.0546 -0.18879,-0.0512 -0.34343,0.02 -0.10198,0.047 -0.26931,0.12419 -0.37183,0.17149 -0.22202,0.10239 -0.22244,0.0995 0.11927,0.81248 0.57787,1.20574 1.54214,2.26041 2.07549,2.27008 0.0727,0.002 0.19401,-0.0511 0.26964,-0.11645 z m -3.96923,-0.64005 c 0,-0.0105 -0.17763,-0.15514 -0.39473,-0.32144 -0.2171,-0.16628 -0.46176,-0.38589 -0.54368,-0.488 l -0.14894,-0.18567 -0.22495,0.11725 c -0.12372,0.0645 -0.24172,0.10047 -0.26221,0.08 -0.0349,-0.0349 0.0307,-0.0966 0.27593,-0.25952 0.098,-0.0651 0.0947,-0.0772 -0.0845,-0.31198 -0.10258,-0.13435 -0.25549,-0.37627 -0.3398,-0.53763 -0.0843,-0.16136 -0.17113,-0.29343 -0.19293,-0.2935 -0.0218,-7e-5 -0.0409,0.0891 -0.0424,0.19806 -0.003,0.17711 -0.0927,0.70422 -0.18386,1.0741 -0.0315,0.12779 -0.007,0.14815 0.40688,0.33768 0.37903,0.17361 1.26838,0.49088 1.60312,0.57193 0.0581,0.0141 0.11166,0.0283 0.11891,0.0317 0.007,0.004 0.0132,-0.003 0.0132,-0.013 z m -6.49429,-1.23611 c -0.0586,-0.0799 -0.32776,-0.37343 -0.59818,-0.6522 -0.27042,-0.27877 -0.44411,-0.44578 -0.38597,-0.37111 0.0581,0.0747 0.14272,0.17194 0.18797,0.21618 0.0452,0.0442 0.24359,0.27663 0.44076,0.51645 0.19717,0.23981 0.38177,0.43603 0.41021,0.43603 0.0284,0 0.004,-0.0654 -0.0548,-0.14535 z m 6.80747,-0.6846 c 0.36119,-0.18591 0.67452,-0.34903 0.69629,-0.36248 0.0218,-0.0135 -0.0152,-0.23228 -0.082,-0.48626 -0.0669,-0.25398 -0.13773,-0.55693 -0.15739,-0.67319 -0.0601,-0.3552 -0.0833,-0.39446 -0.30004,-0.505 -0.20942,-0.10684 -0.20942,-0.10684 -0.43448,0.0776 -0.27589,0.22607 -0.90596,0.52863 -1.32513,0.63634 -0.39228,0.10079 -0.42725,0.13459 -0.13917,0.13459 0.12912,0 0.29831,-0.043 0.39197,-0.0997 0.0906,-0.0549 0.22425,-0.1174 0.29692,-0.13907 0.0727,-0.0216 0.19758,-0.0855 0.27757,-0.14182 0.16712,-0.11771 0.34707,-0.10891 0.42846,0.021 0.052,0.0828 0.0221,0.17789 -0.16331,0.51932 -0.008,0.0152 0.0684,0.15708 0.17038,0.31532 0.2659,0.41271 0.24086,0.74052 -0.0565,0.74052 -0.0633,0 -0.14469,0.0357 -0.18087,0.0793 -0.13478,0.16238 -0.31896,0.0929 -0.62831,-0.23711 -0.2966,-0.31638 -0.2966,-0.31638 -0.53442,-0.25634 -0.13081,0.0331 -0.24544,0.0661 -0.25473,0.0735 -0.0347,0.0274 0.22092,0.48243 0.42302,0.7531 l 0.20926,0.28023 0.35295,-0.19586 c 0.19412,-0.10772 0.64847,-0.34798 1.00966,-0.5339 z m -2.63863,-0.20631 c 0,-0.0114 -0.0356,-0.0208 -0.0793,-0.0208 -0.0436,0 -0.0793,0.023 -0.0793,0.0512 0,0.0281 0.0357,0.0376 0.0793,0.0208 0.0436,-0.0168 0.0793,-0.0398 0.0793,-0.0512 z m -2.16366,-0.24539 c 0.0764,-0.12221 0.0994,-0.22573 0.0797,-0.35876 -0.0328,-0.2216 0.0463,-0.5425 0.16254,-0.65869 0.0753,-0.0753 0.0518,-0.11143 -0.25673,-0.39414 -0.20882,-0.19133 -0.40611,-0.43591 -0.51218,-0.63492 -0.17253,-0.32372 -0.17253,-0.32372 -0.41264,-0.28771 -0.19178,0.0288 -0.23525,0.0213 -0.21595,-0.0371 0.0133,-0.0401 0.10551,-0.0849 0.20493,-0.0995 0.32215,-0.0471 0.2173,-0.1657 -0.24202,-0.27379 -0.79513,-0.18711 -1.43236,-0.76692 -1.68128,-1.52981 -0.0219,-0.067 -0.0963,-0.0205 -0.338,0.21141 -0.17048,0.16353 -0.40424,0.34387 -0.51947,0.40076 -0.65791,0.32478 -1.2729,0.84025 -1.61061,1.34997 -0.20655,0.31178 -0.19951,0.3645 0.0227,0.16946 0.24714,-0.217 0.73036,-0.39003 1.10127,-0.39436 0.33396,-0.004 0.43149,0.0417 0.29215,0.13674 -0.42601,0.2904 -0.5554,0.40326 -0.7573,0.66049 -0.12729,0.16218 -0.22406,0.30226 -0.21504,0.31128 0.009,0.009 0.14487,-0.0423 0.30191,-0.11414 0.5799,-0.26509 1.43656,-0.30256 2.00238,-0.0876 0.31789,0.12078 0.68786,0.35137 0.68786,0.42872 0,0.0293 -0.17929,0.0544 -0.40959,0.0574 l -0.4096,0.005 0.32608,0.0715 c 0.48177,0.10567 0.92268,0.32798 1.60298,0.8082 0.33428,0.23598 0.62599,0.42947 0.64821,0.43 0.0222,5.2e-4 0.0887,-0.0764 0.1478,-0.17082 z m 6.04151,-0.14781 c 0.1345,-0.0595 0.24455,-0.11896 0.24455,-0.13214 0,-0.0131 -0.13081,-0.024 -0.29068,-0.024 -0.24665,0 -0.29069,0.0146 -0.29069,0.0969 0,0.0818 0.0415,0.16737 0.0813,0.16737 0.006,0 0.12094,-0.0487 0.25544,-0.10818 z m 8.73031,-0.84315 c 0.18007,-0.18895 0.38663,-0.41489 0.459,-0.50208 0.13027,-0.15698 0.56845,-0.85027 0.56845,-0.89941 0,-0.0456 -0.8699,-0.0252 -0.94469,0.0221 -0.0915,0.058 -0.28068,0.55617 -0.2992,0.788 -0.0374,0.46739 -0.15616,0.78486 -0.43888,1.17271 -0.13485,0.18498 -0.13485,0.18498 0.0965,-0.0265 0.12725,-0.11627 0.37871,-0.36599 0.5588,-0.55493 z m -3.41626,0.49067 c 0.38615,-0.097 0.90065,-0.36712 1.14303,-0.6001 0.15915,-0.15298 0.28816,-0.20056 0.28816,-0.10627 0,0.0267 -0.0833,0.12707 -0.18497,0.22303 -0.22958,0.21654 -0.23227,0.26247 -0.0132,0.22457 0.65322,-0.11297 1.36607,-0.50665 1.64358,-0.90769 0.14739,-0.21299 0.31701,-0.6426 0.25672,-0.65019 -0.0206,-0.003 -0.15484,-5.2e-4 -0.29851,0.004 -0.23288,0.008 -0.25368,7e-5 -0.19172,-0.0746 0.0382,-0.046 0.12449,-0.0837 0.1917,-0.0837 0.23289,0 0.37734,-0.0876 0.36284,-0.22007 -0.007,-0.0679 -0.0155,-0.20075 -0.018,-0.29523 -0.005,-0.19772 -0.0775,-0.21555 -0.26866,-0.0661 -0.0727,0.0569 -0.16185,0.10388 -0.19819,0.10453 -0.12774,0.002 -0.0639,-0.10447 0.14534,-0.24293 0.11627,-0.0769 0.21141,-0.17649 0.21141,-0.22121 0,-0.163 -0.45903,-0.53105 -0.77868,-0.62435 -0.28776,-0.084 -0.32544,-0.0837 -0.67473,0.004 -0.45399,0.11525 -0.63934,0.20623 -0.71744,0.35215 -0.0581,0.10861 -0.0525,0.11088 0.18484,0.0753 0.56661,-0.0849 1.09478,0.17543 1.1701,0.5769 0.0823,0.43887 -0.31305,1.03744 -0.87257,1.32097 l -0.27267,0.13817 -0.14957,-0.12586 c -0.0823,-0.0692 -0.26531,-0.15595 -0.40677,-0.19273 -0.75234,-0.19562 -0.95849,-0.30542 -1.10488,-0.5885 -0.0688,-0.13306 -0.0695,-0.17656 -0.004,-0.33101 0.11148,-0.26682 0.5685,-0.55256 1.10221,-0.68915 l 0.27598,-0.0707 -0.29314,-0.0366 c -0.36683,-0.0458 -1.0911,0.0415 -1.53376,0.18485 -0.55107,0.17851 -1.40148,0.6377 -1.34631,0.72695 0.0138,0.0225 0.2245,0.16264 0.46801,0.31144 0.44114,0.26958 0.60952,0.4124 0.5529,0.46902 -0.0315,0.0315 -0.33448,-0.13438 -0.85505,-0.46823 -0.25189,-0.16154 -0.34597,-0.1951 -0.47039,-0.16777 -0.12889,0.0283 -0.14991,0.0195 -0.12279,-0.0512 0.0414,-0.10776 -0.49239,-0.38978 -0.8236,-0.43517 -0.22403,-0.0307 -0.22403,-0.0307 -0.29735,0.21763 -0.0653,0.22113 -0.0635,0.26888 0.016,0.43582 0.11872,0.24897 0.4878,0.71961 0.81201,1.0355 0.26222,0.25547 0.26222,0.25547 0.49373,0.1779 0.12733,-0.0427 0.31476,-0.0936 0.41649,-0.11316 0.10174,-0.0196 0.33397,-0.0711 0.51606,-0.1145 0.31553,-0.0752 0.49554,-0.0595 0.40023,0.035 -0.0243,0.0241 -0.29397,0.103 -0.59918,0.17528 -0.88407,0.20938 -0.86481,0.19327 -0.49728,0.4158 0.27975,0.16938 0.64734,0.30446 1.02579,0.37692 0.22148,0.0424 0.95293,-0.0189 1.31707,-0.11032 z m -8.73262,-0.37837 c 0.034,-0.0545 0.12038,-0.0991 0.19188,-0.0991 0.18456,0 0.56256,-0.2006 0.7998,-0.42441 0.1997,-0.18841 0.20083,-0.19172 0.0841,-0.24382 -0.0927,-0.0414 -0.17011,-0.0254 -0.35702,0.0738 -0.26237,0.13918 -0.72761,0.53663 -0.81137,0.69315 -0.0692,0.12938 0.0119,0.12973 0.0926,3.9e-4 z m -0.48449,-0.16897 c 0.0422,-0.1328 -0.01,-0.36614 -0.0815,-0.36614 -0.0285,0 -0.0519,0.0377 -0.0519,0.0837 0,0.16151 -0.12946,0.0385 -0.17127,-0.16271 -0.0435,-0.20935 -0.12372,-0.34379 -0.20517,-0.34379 -0.0567,0 -0.0607,0.63565 -0.004,0.72408 0.0462,0.0727 0.25945,0.16611 0.39053,0.17105 0.0489,0.002 0.10456,-0.046 0.12369,-0.10617 z m -0.67965,-0.65714 0.009,-0.60747 -0.1936,-8.9e-4 c -0.10649,-3.9e-4 -0.24713,-0.0151 -0.31252,-0.0326 -0.10459,-0.0281 -0.11892,-0.0122 -0.11892,0.13177 0,0.2204 0.15236,0.5886 0.24356,0.5886 0.0465,0 0.0736,0.0584 0.0736,0.15855 0,0.14448 0.15346,0.37043 0.25105,0.36964 0.0218,-1.7e-4 0.0436,-0.27367 0.0482,-0.60779 z m 2.55431,0.31763 c 0.31022,-0.18844 0.4599,-0.32461 0.4108,-0.3737 -0.0408,-0.0408 -0.42944,0.15027 -0.48491,0.23845 -0.0265,0.042 -0.10718,0.13119 -0.17948,0.19819 -0.18654,0.17289 -0.0987,0.15109 0.25359,-0.063 z m -3.01217,0.0752 c 0,-0.0311 -0.0582,-0.15601 -0.1294,-0.27747 -0.0712,-0.12145 -0.14503,-0.31861 -0.16415,-0.43815 -0.0563,-0.35219 -0.0749,-0.36403 -0.57201,-0.36403 -0.24566,0 -0.46294,0.0162 -0.48286,0.0361 -0.0593,0.059 0.23607,0.55037 0.502,0.83512 0.24087,0.25791 0.25572,0.26511 0.54701,0.26511 0.17776,0 0.29941,-0.023 0.29941,-0.0566 z m 4.16538,-0.53749 c -0.0195,-0.20117 -0.18082,-0.26504 -0.29055,-0.11499 -0.0986,0.13482 -0.0884,0.16492 0.0758,0.2249 0.22071,0.0806 0.23258,0.0745 0.21476,-0.10991 z m -1.58925,0.0167 c 0.10475,-0.03 0.18239,-0.03 0.20096,0 0.11461,0.18545 0.62859,-0.14155 0.57067,-0.36305 -0.037,-0.14159 -0.17669,-0.19895 -0.17669,-0.0726 0,0.12951 -0.10354,0.22031 -0.25122,0.22031 -0.15679,0 -0.4887,-0.26023 -0.4887,-0.38316 0,-0.0718 -0.0444,-0.0923 -0.19819,-0.0917 -0.2628,8.8e-4 -0.36455,0.0635 -0.25354,0.15567 0.089,0.0738 0.10872,0.16063 0.0365,0.16063 -0.0249,0 -0.15828,-0.0863 -0.2964,-0.19176 -0.23308,-0.17797 -0.24841,-0.18272 -0.21306,-0.0661 0.053,0.17505 0.1078,0.22252 0.32805,0.28431 0.22003,0.0618 0.29767,0.18492 0.11655,0.18492 -0.15441,0 -0.10569,0.045 0.14582,0.13469 0.24663,0.0879 0.26553,0.0891 0.47922,0.0278 z m 1.01774,-0.13914 c 0,-0.0453 -0.0238,-0.0677 -0.0528,-0.0497 -0.0291,0.0179 -0.0528,0.055 -0.0528,0.0824 0,0.0273 0.0238,0.0497 0.0528,0.0497 0.0291,0 0.0528,-0.0371 0.0528,-0.0824 z m -0.0518,-0.36556 c -0.0368,-0.0443 -0.0914,-0.0805 -0.12142,-0.0805 -0.03,0 -0.0114,0.0477 0.0414,0.10602 0.1093,0.12078 0.18217,0.0976 0.0801,-0.0255 z m 0.62329,-0.0374 c -0.0187,-0.19013 -0.0804,-0.21811 -0.60047,-0.27271 l -0.31456,-0.033 0.21858,0.10014 c 0.12022,0.0551 0.26293,0.16098 0.31711,0.23533 0.0645,0.0885 0.14987,0.13577 0.24721,0.13687 0.13564,0.002 0.14724,-0.0131 0.13213,-0.16663 z m -3.67954,-0.4465 c -0.0111,-0.062 -0.0828,-0.14128 -0.15947,-0.1762 -0.12679,-0.0578 -0.15254,-0.0487 -0.28571,0.10033 -0.25725,0.28791 -0.19464,0.39768 0.25002,0.43832 0.13176,0.012 0.16335,-0.008 0.18691,-0.11764 0.0156,-0.0727 0.0193,-0.18283 0.008,-0.24481 z m -0.75494,0.13028 c 0.0325,-0.0931 0.0977,-0.212 0.14493,-0.26421 0.0697,-0.077 0.0735,-0.10997 0.0198,-0.17457 -0.0538,-0.0649 -0.0506,-0.0856 0.0171,-0.11159 0.12989,-0.0498 0.58539,0.12418 0.93352,0.35666 0.17406,0.11623 0.34425,0.20207 0.3782,0.19076 0.068,-0.0227 -0.57326,-0.40913 -1.13203,-0.68219 -0.19621,-0.0959 -0.35674,-0.2065 -0.35674,-0.24583 0,-0.12634 0.21934,-0.0317 1.09793,0.47361 0.29864,0.17178 0.56876,0.29638 0.60026,0.27692 0.13414,-0.0829 -0.15957,-0.86775 -0.32472,-0.86775 -0.0287,0 -0.0522,-0.0356 -0.0522,-0.0793 0,-0.12997 0.10868,-0.0909 0.2941,0.1057 0.096,0.10174 0.18794,0.18498 0.20443,0.18498 0.0165,0 0.0301,-0.0654 0.0302,-0.14534 2e-4,-0.17503 0.16819,-0.4731 0.35429,-0.62876 0.10348,-0.0865 0.14179,-0.17741 0.16156,-0.38317 0.0186,-0.1941 0.0483,-0.26971 0.10586,-0.26971 0.0654,0 0.0744,0.0533 0.0498,0.29149 -0.0323,0.31251 0.0143,0.33595 0.14916,0.0752 0.0782,-0.15126 0.23609,-0.21504 0.23609,-0.0954 0,0.0925 -0.20477,0.40198 -0.28679,0.43345 -0.0619,0.0237 -0.061,0.0633 0.006,0.25629 0.10237,0.29501 0.0601,0.60707 -0.13548,0.99831 l -0.15178,0.30373 0.23122,0.0184 0.23121,0.0184 2.1e-4,-0.26464 c 3.9e-4,-0.35264 0.0778,-0.61247 0.23784,-0.7985 0.0725,-0.0842 0.14633,-0.23049 0.16411,-0.32497 0.0327,-0.1743 0.15721,-0.23628 0.18845,-0.0939 0.0111,0.0506 0.0419,0.0624 0.0878,0.0337 0.0572,-0.0358 0.0484,-0.0959 -0.0461,-0.31571 -0.095,-0.22087 -0.14089,-0.27152 -0.24598,-0.27152 -0.10496,0 -0.12292,-0.0197 -0.0958,-0.10528 0.0481,-0.15152 -0.16921,-0.32629 -0.76399,-0.61449 l -0.49986,-0.24222 -0.23596,0.24974 c -0.21941,0.23223 -0.24088,0.24301 -0.30612,0.15379 -0.0385,-0.0528 -0.0701,-0.12339 -0.0701,-0.15694 0,-0.0928 0.20452,-0.25786 0.33412,-0.26966 0.0633,-0.006 0.17457,-0.0303 0.24724,-0.0544 0.0988,-0.0329 0.0198,-0.0506 -0.31293,-0.0704 -0.43992,-0.0261 -0.6094,-0.11031 -0.37306,-0.18532 0.0619,-0.0197 0.10142,-0.0469 0.0878,-0.0606 -0.0136,-0.0136 -0.19506,0.0269 -0.40314,0.0901 -0.36509,0.11089 -0.37516,0.1184 -0.28808,0.21463 0.0857,0.0946 0.0847,0.0997 -0.0183,0.0997 -0.14819,0 -0.54435,-0.30662 -1.23828,-0.95843 -0.69057,-0.64864 -0.91888,-0.80766 -0.3729,-0.25973 0.52898,0.53087 0.76221,0.95857 0.79049,1.44962 0.0253,0.43872 -0.0699,0.67022 -0.35551,0.8652 -0.19138,0.13064 -0.57105,0.16042 -0.82311,0.0646 -0.21352,-0.0811 -0.20419,-0.0343 0.0216,0.10831 l 0.20044,0.12666 -8.8e-4,0.71566 c -5.3e-4,0.40484 0.024,0.77306 0.0566,0.8478 0.0557,0.12744 0.0774,0.13263 0.61329,0.14629 l 0.55549,0.0141 z m 1.51261,-2.26134 c -0.0504,-0.0815 0.0302,-0.33641 0.14677,-0.46488 0.12084,-0.13308 0.2322,-0.14798 0.4306,-0.0576 0.16918,0.0771 0.18031,0.21599 0.0157,0.19618 -0.16422,-0.0198 -0.3522,0.0936 -0.41082,0.24779 -0.0506,0.1332 -0.12788,0.16647 -0.18225,0.0785 z m 0.60629,2.35592 c 0,-0.10693 -0.14415,-0.20829 -0.24253,-0.17053 -0.0729,0.028 -0.0673,0.0477 0.039,0.13628 0.14807,0.12336 0.20355,0.1327 0.20355,0.0342 z m 1.21557,0.0243 c 0,-0.0267 0.0151,-0.0921 0.0335,-0.14534 0.0295,-0.0851 0.0233,-0.084 -0.0512,0.009 -0.0982,0.1225 -0.11007,0.18497 -0.0352,0.18497 0.0291,0 0.0528,-0.0219 0.0528,-0.0485 z m 2.84151,-0.0319 c 0.22263,-0.0891 0.40319,-0.35643 0.37379,-0.55347 -0.0147,-0.0988 -0.11317,-0.15448 -0.57274,-0.32413 -0.30521,-0.11267 -0.82589,-0.2867 -1.15707,-0.38673 -0.33116,-0.10002 -0.62845,-0.20978 -0.66064,-0.2439 -0.11522,-0.12218 0.45831,0.008 1.38168,0.3138 0.50143,0.16603 0.91169,0.27991 0.91169,0.25308 0,-0.0268 -0.0762,-0.18202 -0.1694,-0.34487 -0.19593,-0.34244 -0.67525,-0.84646 -1.11224,-1.16958 -0.27892,-0.20623 -0.3704,-0.3177 -0.26072,-0.3177 0.0237,0 0.23133,0.12931 0.46133,0.28739 0.22999,0.15806 0.42517,0.28038 0.43373,0.27181 0.0162,-0.0162 -0.0785,-0.41215 -0.35517,-1.4841 -0.278,-1.07722 -0.32653,-1.35221 -0.35672,-2.02167 -0.0326,-0.72225 0.0304,-0.99827 0.28146,-1.23393 0.21484,-0.20165 0.6337,-0.17625 1.08858,0.0661 l 0.35438,0.18876 -0.0721,-0.17267 c -0.0618,-0.14804 -0.0611,-0.18847 0.005,-0.28333 0.0825,-0.11776 0.40614,-0.15774 0.46791,-0.0578 0.0884,0.14306 0.11451,0.0227 0.0487,-0.22462 -0.0958,-0.35982 -0.0943,-0.58919 0.005,-0.78142 0.17021,-0.32914 0.52953,-0.2371 1.02644,0.26291 0.17585,0.17694 0.38311,0.41749 0.46058,0.53455 0.0976,0.14741 0.15776,0.19594 0.19584,0.15786 0.10306,-0.10307 0.23273,-0.0552 0.42393,0.15642 0.21874,0.24211 0.24413,0.25274 0.24413,0.10223 0,-0.20724 0.19861,-0.46661 0.3603,-0.4705 0.0432,-8.9e-4 0.0582,0.0343 0.0395,0.0933 -0.023,0.0726 0.0135,0.11082 0.15476,0.1619 0.24663,0.0892 0.74937,0.59509 1.08369,1.09054 0.65824,0.97546 0.93614,2.01525 0.88688,3.31833 -0.0175,0.4615 -0.0551,0.73387 -0.13191,0.95457 l -0.10749,0.30879 0.13879,-0.0355 c 0.0763,-0.0195 0.3082,-0.048 0.51526,-0.0632 0.30328,-0.0223 0.4227,-0.007 0.61426,0.0775 0.26862,0.11882 0.6537,0.44524 0.70097,0.59419 0.0286,0.0902 0.0778,0.0757 0.5572,-0.1639 0.32796,-0.16394 0.52579,-0.29375 0.52579,-0.34505 0,-0.0639 0.0355,-0.0744 0.15855,-0.0475 0.48738,0.10705 -0.18634,-0.34227 -0.85883,-0.57277 -0.14309,-0.049 -0.10961,-0.18352 0.0528,-0.21224 0.0799,-0.0141 -0.11627,-0.0184 -0.43602,-0.01 -0.60136,0.0168 -0.98214,0.11063 -1.41377,0.34851 -0.10901,0.0601 -0.19913,0.10176 -0.20026,0.0926 -8.9e-4,-0.009 -0.009,-0.59928 -0.0172,-1.31145 -0.0138,-1.17542 -0.028,-1.35335 -0.15584,-1.92907 -0.24587,-1.10819 -0.54996,-1.79943 -1.08378,-2.46361 -0.38912,-0.48413 -0.74659,-0.78674 -0.92936,-0.78674 -0.12376,0 -0.32107,0.17626 -0.42206,0.37702 -0.0877,0.17436 -0.18077,0.17868 -0.20047,0.009 -0.0188,-0.16139 0.0323,-0.56985 0.0893,-0.71424 0.0403,-0.10212 -0.29131,-0.33667 -0.91083,-0.64426 -0.5331,-0.26469 -1.65156,-0.62012 -2.18578,-0.69464 -0.26752,-0.0373 -0.40968,-0.10354 -0.35011,-0.16311 0.07,-0.0699 0.84336,-0.17506 1.55694,-0.21165 0.38515,-0.0198 0.70028,-0.0571 0.70028,-0.0829 0,-0.12005 -2.46981,0.0901 -3.90303,0.33201 -0.70278,0.11865 -0.85416,0.12491 -0.85194,0.0352 0.004,-0.13383 0.83415,-0.68279 1.66318,-1.09889 0.29068,-0.14589 0.46905,-0.2508 0.39638,-0.23313 -0.19618,0.0477 -1.24289,0.48569 -1.64823,0.68968 -0.65182,0.32803 -2.2069,1.27317 -2.20908,1.34264 -4e-4,0.0146 0.13999,0.0714 0.31209,0.12641 0.36113,0.1154 0.46479,0.17051 0.41476,0.22054 -0.0881,0.0881 -1.59022,-0.39129 -3.31739,-1.05878 -1.44618,-0.5589 -2.57788,-0.90286 -3.64673,-1.10836 -0.93922,-0.18058 -1.28525,-0.21137 -2.3783,-0.21157 -0.99376,-1.8e-4 -1.21586,0.0159 -1.77052,0.12798 l -0.63422,0.1282 0.84563,0.0659 c 2.07568,0.16177 3.8564,0.72735 5.53924,1.75935 1.21712,0.7464 2.33434,1.94111 2.59746,2.77765 0.24979,0.79414 -0.18211,1.45951 -1.00235,1.54416 -0.44422,0.0459 -1.02754,-0.13353 -1.43963,-0.44272 -0.0945,-0.0709 -0.17177,-0.11673 -0.17177,-0.10189 0,0.0624 0.29506,0.29334 0.48348,0.37831 0.11197,0.0505 0.20359,0.11865 0.20359,0.15144 0,0.0361 -0.20965,0.0847 -0.53164,0.12323 -0.57195,0.0684 -0.86863,0.16655 -0.51218,0.16944 0.25473,0.002 0.25143,0.0781 -0.0132,0.30455 -0.11627,0.0995 -0.21141,0.20173 -0.21141,0.22714 0,0.0598 0.29375,-0.0638 0.43108,-0.18137 0.49795,-0.42635 0.883,-0.58781 1.21902,-0.51111 0.38393,0.0876 0.64706,0.28388 1.51079,1.12693 0.23082,0.22528 0.45535,0.4096 0.49896,0.4096 0.0436,0 0.18026,-0.0356 0.30365,-0.0791 0.12339,-0.0436 0.4415,-0.1063 0.70692,-0.13948 0.41677,-0.0521 0.52222,-0.0871 0.77326,-0.25679 0.44262,-0.29914 0.95393,-0.48444 1.28414,-0.46536 0.23346,0.0135 0.27738,0.0327 0.29091,0.12752 0.009,0.0618 -0.045,0.18407 -0.12066,0.27395 -0.17478,0.20772 -0.50306,0.75175 -0.50306,0.83369 0,0.0345 0.0773,0.0936 0.17176,0.13137 0.25028,0.1 0.56572,0.32935 0.56702,0.41232 8.8e-4,0.0475 -0.0302,0.059 -0.0914,0.0342 -0.43497,-0.17618 -0.77076,-0.29094 -0.79128,-0.27042 -0.0136,0.0136 0.0677,0.0831 0.18074,0.15436 0.67051,0.42328 0.96576,1.28643 0.71303,2.08448 l -0.10462,0.33033 0.21908,0.002 c 0.12048,8.8e-4 0.48069,0.0715 0.80044,0.15636 0.66491,0.17632 1.22986,0.20484 1.54666,0.0781 z m -0.95141,-2.84895 c -0.13772,-0.15704 -0.41718,-0.39639 -0.62101,-0.53191 -0.35689,-0.23725 -0.44982,-0.34397 -0.29954,-0.34397 0.0918,0 0.64802,0.36447 0.85654,0.56128 0.2185,0.20622 0.39366,0.44174 0.39366,0.5293 0,0.12577 -0.0725,0.0786 -0.32965,-0.2147 z m -0.83857,-3.423 c -0.0341,-0.0638 -0.15314,-0.35513 -0.26448,-0.64742 -0.12305,-0.32311 -0.20304,-0.47702 -0.20405,-0.3926 -8.8e-4,0.0764 -0.0341,0.16586 -0.0739,0.19884 -0.0583,0.0484 -0.0786,0.0216 -0.10512,-0.13887 -0.0493,-0.29829 -0.0408,-0.62738 0.0228,-0.87996 0.0313,-0.12422 0.0485,-0.30717 0.0383,-0.40658 -0.0174,-0.16837 -0.0267,-0.15577 -0.13704,0.1845 -0.0651,0.20088 -0.14541,0.52867 -0.1784,0.72844 -0.0825,0.49911 -0.18067,0.44583 -0.16075,-0.0872 0.0124,-0.33133 0.0468,-0.47408 0.18034,-0.74795 0.0993,-0.20361 0.19434,-0.33308 0.23858,-0.32493 0.0466,0.009 0.10904,-0.0904 0.17037,-0.27006 0.0533,-0.156 0.17089,-0.35769 0.2614,-0.44821 0.14922,-0.14921 0.20108,-0.16642 0.55556,-0.18432 0.34015,-0.0171 0.427,-0.002 0.66808,0.11943 0.33435,0.16793 0.5487,0.34011 0.77755,0.62454 0.16875,0.20975 0.21943,0.35717 0.12279,0.35717 -0.027,0 -0.19063,-0.0977 -0.36373,-0.2172 -0.51655,-0.35644 -1.01068,-0.33582 -1.23961,0.0517 -0.13775,0.23318 -0.30318,0.90434 -0.30318,1.22998 0,0.16518 0.0356,0.48672 0.0793,0.71456 0.092,0.48106 0.0995,0.65207 0.0283,0.65207 -0.0281,0 -0.079,-0.0522 -0.11306,-0.11597 z m -1.19395,6.07508 c 0.0877,-0.17667 0.0887,-0.20523 0.0131,-0.35125 -0.0452,-0.0874 -0.084,-0.22552 -0.0862,-0.30691 -0.008,-0.30577 -0.14629,0.20456 -0.15051,0.55673 -0.004,0.38333 0.0674,0.41602 0.22351,0.10143 z m 11.6495,0.19038 c 0.3182,-0.0382 0.34801,-0.085 0.34854,-0.54727 4e-4,-0.28652 -0.0971,-0.68816 -0.16639,-0.6859 -0.0195,5.3e-4 -0.24959,0.11576 -0.51119,0.25583 -0.31596,0.16914 -0.47419,0.2841 -0.47127,0.34236 0.003,0.0482 0.009,0.21853 0.0132,0.37839 l 0.009,0.29069 0.25105,-4e-4 c 0.13807,-2e-4 0.37533,-0.0154 0.52724,-0.0336 z m -12.46491,-0.49099 c 0.13874,-0.32251 0.13986,-0.29883 -0.0236,-0.49303 -0.13273,-0.15774 -0.1373,-0.20853 -0.0448,-0.49645 0.0226,-0.0702 -0.005,-0.0577 -0.10048,0.0451 -0.22858,0.24716 -0.33597,1.04273 -0.15498,1.14814 0.16096,0.0937 0.20879,0.0637 0.32382,-0.20375 z m -3.88887,-0.30732 c 0.0164,-0.28341 0.0427,-0.56286 0.0585,-0.621 0.0218,-0.0802 -0.0251,-0.14413 -0.19444,-0.26498 -0.25042,-0.17871 -0.45608,-0.52743 -0.36486,-0.61865 0.0395,-0.0395 0.10344,-0.0161 0.21642,0.0789 0.48361,0.40692 1.13451,0.28826 1.27471,-0.23239 0.12946,-0.48078 -0.13336,-1.08286 -0.73557,-1.68507 -0.44464,-0.44464 -0.67312,-0.55898 -1.02319,-0.51203 -0.33654,0.0452 -0.81292,0.5635 -1.00512,1.0937 -0.35561,0.98092 -0.16521,2.03026 0.48897,2.69485 0.33228,0.33756 0.77432,0.56614 1.11658,0.57739 0.13805,0.004 0.13833,0.004 0.16802,-0.51076 z m 9.90967,0.36996 c 0.31264,-0.26691 0.49207,-1.32662 0.38147,-2.25294 -0.12329,-1.03257 -0.50272,-2.0651 -1.03172,-2.80756 -0.51098,-0.71718 -1.33442,-1.34507 -1.88008,-1.43362 -0.28261,-0.0459 -0.4988,0.15776 -0.57932,0.54562 -0.0971,0.46791 0.0329,1.59721 0.2908,2.52639 0.0404,0.14533 0.0999,0.36536 0.13226,0.48894 l 0.0589,0.22467 0.20117,-0.21146 c 0.23415,-0.24614 0.38518,-0.26767 0.72472,-0.1033 0.39589,0.19164 0.67921,0.49029 0.92015,0.96993 0.20034,0.39876 0.22642,0.49443 0.2488,0.91247 0.0145,0.27211 -8.9e-4,0.56626 -0.0369,0.70484 -0.10405,0.4003 -0.0976,0.43156 0.10476,0.50562 0.2598,0.0951 0.27462,0.0929 0.46492,-0.0696 z m 3.49287,-0.0697 c 0.33048,-0.0709 0.44935,-0.18734 0.24385,-0.23893 -0.31597,-0.0793 -0.96494,0.067 -1.01785,0.22935 -0.0274,0.0841 0.40185,0.0894 0.774,0.01 z m -4.26399,-0.29053 c 0.29733,-0.85981 -0.17091,-2.10862 -0.92986,-2.47994 -0.43852,-0.21454 -0.70032,-0.093 -0.75806,0.35206 -0.0291,0.22451 -0.0278,0.22702 0.0747,0.13622 0.0641,-0.0568 0.18993,-0.0925 0.32602,-0.0925 0.1851,0 0.25942,0.0348 0.45087,0.21129 0.45457,0.41901 0.69894,1.07387 0.65267,1.74897 -0.0338,0.49261 0.0392,0.54177 0.18366,0.12388 z m -4.08045,-0.19282 c 0,-0.28599 -0.01,-0.31843 -0.0758,-0.25105 -0.0618,0.0632 -0.065,0.12371 -0.0176,0.32844 0.032,0.13807 0.0661,0.25104 0.0758,0.25104 0.01,0 0.0176,-0.14779 0.0176,-0.32843 z m 6.10432,-0.0329 c 0.20347,-0.06 0.49482,-0.12519 0.64743,-0.14494 0.2948,-0.0382 0.31921,-0.0731 0.20436,-0.29326 -0.0994,-0.19041 -0.32181,-0.88337 -0.44744,-1.39383 -0.2536,-1.03034 -0.33939,-1.62488 -0.46136,-3.1975 -0.0371,-0.47919 -0.17297,-0.83425 -0.3942,-1.0306 -0.11909,-0.1057 -0.11909,-0.1057 -0.0827,0.25945 0.0325,0.32561 0.0276,0.35782 -0.0452,0.29743 -0.0449,-0.0373 -0.0816,-0.095 -0.0816,-0.12843 0,-0.14335 -0.48957,-0.87587 -0.77134,-1.15411 -0.35867,-0.35419 -0.62407,-0.50265 -0.73459,-0.41092 -0.17994,0.14934 -0.14264,0.556 0.11301,1.2321 0.0748,0.19788 0.12251,0.37331 0.10596,0.38985 -0.0165,0.0165 -0.11636,-0.0661 -0.22182,-0.18352 -0.3368,-0.37517 -0.72296,-0.43368 -0.53932,-0.0817 0.19316,0.37019 0.24779,0.44891 0.54433,0.78433 0.39902,0.45134 0.55566,0.683 0.83963,1.24171 0.66619,1.31072 0.84679,2.87074 0.473,4.08596 -0.0262,0.0852 -0.002,0.0815 0.22619,-0.0336 0.14059,-0.0711 0.4221,-0.1784 0.62559,-0.23838 z m 1.69477,-0.62641 c 0.0846,-0.67713 -0.41021,-1.80509 -0.86825,-1.97922 -0.17133,-0.0652 -0.26497,0.027 -0.30666,0.3016 -0.026,0.17151 -0.0192,0.19622 0.0387,0.14168 0.0966,-0.0907 0.29158,-0.0828 0.4456,0.0181 0.19182,0.12569 0.48443,0.69005 0.55256,1.06574 0.0536,0.29554 0.046,0.49889 -0.0315,0.83201 -0.0237,0.10217 -0.0219,0.10242 0.0544,0.007 0.0434,-0.0542 0.0952,-0.22838 0.11504,-0.38722 z m 4.14635,0.32834 c -0.0368,-0.0444 -0.0914,-0.0805 -0.12142,-0.0805 -0.0301,0 -0.0114,0.0477 0.0414,0.10602 0.10929,0.12077 0.18216,0.0976 0.08,-0.0255 z m -3.75785,-0.28874 c 0.25256,-0.55319 0.32266,-1.2397 0.2146,-2.1015 -0.15016,-1.19756 -0.55,-2.0861 -1.32234,-2.93851 -0.38397,-0.42379 -0.73125,-0.5848 -0.81132,-0.37614 -0.095,0.24749 0.0268,2.26661 0.1868,3.09763 l 0.058,0.30084 0.14326,-0.10592 c 0.19086,-0.14111 0.3774,-0.091 0.63679,0.17096 0.43173,0.43607 0.71534,1.18419 0.67476,1.77992 -0.0133,0.19497 -0.0431,0.39845 -0.0663,0.4522 -0.0378,0.0876 -0.031,0.0907 0.0668,0.0296 0.06,-0.0374 0.15852,-0.17655 0.21906,-0.30912 z m -16.073,0.23995 c 0.15347,-0.0795 0.48945,-0.4216 0.57971,-0.59025 0.0304,-0.0568 0.0429,-0.16832 0.0276,-0.24782 -0.0604,-0.31614 0.11372,-1.1128 0.3841,-1.75698 0.0358,-0.0854 0.009,-0.0762 -0.13793,0.0479 l -0.18229,0.15357 -0.0173,-0.14604 c -0.0208,-0.17568 0.0746,-0.43454 0.22002,-0.59712 0.12736,-0.1424 0.10174,-0.14533 -0.26353,-0.0302 -0.1548,0.0489 -0.29841,0.0718 -0.31911,0.0511 -0.0207,-0.0207 0.0463,-0.12156 0.14885,-0.22412 0.20954,-0.20954 0.78353,-0.44421 1.0865,-0.44421 h 0.19003 l -0.23257,-0.20471 c -0.2668,-0.23485 -0.51268,-0.67161 -0.42655,-0.75773 0.0378,-0.0378 0.13374,0.0104 0.30988,0.15612 0.28944,0.23935 0.80204,0.54537 1.06894,0.63816 0.0988,0.0343 0.33907,0.0625 0.53391,0.0625 0.28037,0 0.3907,-0.0248 0.52898,-0.11891 0.32833,-0.22347 0.39585,-0.36861 0.39585,-0.85103 0,-0.41197 -0.0106,-0.45131 -0.21141,-0.78617 -0.39889,-0.66512 -1.27298,-1.54639 -2.04904,-2.06588 -1.69151,-1.13229 -3.74783,-1.78387 -6.04335,-1.91496 -0.6625,-0.0378 -0.82899,0.004 -0.56019,0.13789 0.423,0.21203 1.16505,0.93096 1.50059,1.45382 0.61408,0.95692 0.9554,2.32531 1.09787,4.4016 0.0985,1.43583 0.31074,2.05043 0.98432,2.85074 0.27016,0.321 0.53176,0.53617 0.89408,0.73543 0.25265,0.13896 0.3054,0.14403 0.49197,0.0474 z m 7.4756,-2.4219 c 0.29128,-0.39421 0.29824,-0.41098 0.17045,-0.41098 -0.18271,0 -0.66961,0.17654 -0.96609,0.3503 -0.26828,0.15722 -0.26693,0.15935 0.16165,0.25387 0.22202,0.049 0.17303,0.13526 -0.0793,0.13966 -0.12354,0.002 -0.33164,0.0212 -0.46245,0.0423 l -0.23782,0.0384 0.35594,0.0648 c 0.19577,0.0356 0.40982,0.086 0.47567,0.11185 0.0949,0.0372 0.13615,0.0236 0.19898,-0.0661 0.0436,-0.0622 0.21593,-0.29808 0.38295,-0.52411 z m 5.8147,-6.16593 0.0202,-0.3377 -0.58527,0.0347 c -0.83471,0.0493 -1.24592,0.0948 -1.24592,0.13759 0,0.0204 0.13676,0.0676 0.3039,0.10474 0.37084,0.0825 1.09212,0.32421 1.30807,0.43838 0.17954,0.0949 0.16969,0.11359 0.19904,-0.37763 z m -4.12417,-0.50835 c 0.3439,-0.0369 0.3535,-0.0423 0.85482,-0.48567 0.27887,-0.24663 0.50703,-0.45754 0.50703,-0.46869 0,-0.0468 -0.85585,0.3733 -1.30551,0.64083 -0.43912,0.26126 -0.69312,0.46166 -0.48288,0.38099 0.0433,-0.0166 0.23524,-0.0469 0.42654,-0.0675 z m 4.59898,-0.008 c -0.0363,-0.0146 -0.0958,-0.0146 -0.13212,0 -0.0363,0.0147 -0.006,0.0266 0.0661,0.0266 0.0727,0 0.10239,-0.012 0.0661,-0.0266 z m -1.76992,-0.22291 1.38795,-0.0327 0.20343,-0.58793 c 0.35992,-1.04018 0.90057,-1.87157 1.72713,-2.65589 0.37685,-0.3576 0.4309,-0.42764 0.30667,-0.39742 -0.2429,0.0591 -0.98926,0.41648 -1.65084,0.79049 -0.87104,0.49243 -0.91669,0.52172 -1.59176,1.02113 -0.54118,0.40037 -0.59374,0.45302 -0.47958,0.48045 0.23594,0.0567 0.16648,0.13557 -0.20322,0.2308 -0.33601,0.0865 -0.40778,0.13209 -0.8593,0.54516 -0.27097,0.24789 -0.55213,0.51086 -0.6248,0.58438 l -0.13213,0.13368 0.26426,-0.0397 c 0.14534,-0.0218 0.88883,-0.0544 1.65219,-0.0724 z"
         id="path139" />
    </g>
  </g>
</svg>
