<?xml version="1.0" encoding="UTF-8" standalone="no"?>
<!-- Created with Inkscape (http://www.inkscape.org/) -->

<svg
   width="41.008999mm"
   height="41.008999mm"
   viewBox="0 0 41.008999 41.009"
   version="1.1"
   id="svg1"
   inkscape:version="1.4.2 (f4327f4, 2025-05-13)"
   sodipodi:docname="251.svg"
   xmlns:inkscape="http://www.inkscape.org/namespaces/inkscape"
   xmlns:sodipodi="http://sodipodi.sourceforge.net/DTD/sodipodi-0.dtd"
   xmlns="http://www.w3.org/2000/svg"
   xmlns:svg="http://www.w3.org/2000/svg">
  <sodipodi:namedview
     id="namedview1"
     pagecolor="#ffffff"
     bordercolor="#000000"
     borderopacity="0.25"
     inkscape:showpageshadow="2"
     inkscape:pageopacity="0.0"
     inkscape:pagecheckerboard="0"
     inkscape:deskcolor="#d1d1d1"
     inkscape:document-units="mm"
     inkscape:zoom="2.8970539"
     inkscape:cx="84.223494"
     inkscape:cy="68.000116"
     inkscape:window-width="1168"
     inkscape:window-height="1081"
     inkscape:window-x="3737"
     inkscape:window-y="0"
     inkscape:window-maximized="0"
     inkscape:current-layer="layer1" />
  <defs
     id="defs1" />
  <g
     inkscape:label="Layer 1"
     inkscape:groupmode="layer"
     id="layer1"
     transform="translate(-114.0891,-77.774176)">
    <g
       id="g33"
       transform="translate(-482.84091,402.02309)">
      <circle
         style="fill:none;stroke:#ff0000;stroke-width:0.1;stroke-dasharray:none"
         id="path788-8-1-8-1-9-2-6-3-0-8-8"
         cx="617.43451"
         cy="-303.74442"
         r="19.954653" />
      <ellipse
         style="fill:none;stroke:#ff00ff;stroke-width:0.1;stroke-dasharray:none;stroke-opacity:1"
         id="path1138-9-4-0-0-1-2-0-0-1-8-3"
         cx="617.43451"
         cy="-303.74442"
         rx="18.492125"
         ry="18.492126" />
      <path
         style="fill:#000000;stroke-width:0.1;stroke-dasharray:none"
         d="m 614.06277,-287.83592 c -0.11258,-0.0201 -0.55167,-0.0928 -0.97575,-0.16148 -1.01194,-0.16398 -1.613,-0.38233 -1.95383,-0.70978 -0.37809,-0.36324 -0.49277,-0.60807 -0.67381,-1.43855 -0.12394,-0.56853 -0.49046,-3.02678 -0.49046,-3.28955 0,-0.0341 -0.17674,-0.0789 -0.39275,-0.0997 -0.81516,-0.0783 -1.75396,-0.68785 -2.24393,-1.45689 -0.64932,-1.01914 -1.04471,-3.52823 -1.04697,-6.64382 -0.003,-4.18038 0.73714,-5.43797 3.53234,-6.00165 l 0.91081,-0.18367 0.1885,-0.65292 c 0.94334,-3.26754 2.5465,-5.03328 5.05538,-5.56806 0.86137,-0.18361 2.54751,-0.10712 3.58596,0.16268 1.94339,0.5049 3.63364,1.63578 4.38968,2.93699 0.31569,0.5433 0.45802,0.69906 0.91867,1.0053 2.22596,1.47981 2.58123,3.70555 0.87906,5.50723 l -0.4046,0.42826 0.11271,1.08647 c 0.15474,1.4916 0.13489,5.78923 -0.0383,8.29164 -0.2139,3.09057 -0.3821,4.6353 -0.5339,4.90332 -0.33363,0.58902 -1.55319,0.9519 -3.19098,0.94946 -1.14742,-0.002 -2.01925,-0.16604 -2.28367,-0.43047 -0.29926,-0.29925 -0.4421,-1.19147 -0.45835,-2.86301 l -0.0141,-1.45267 -0.415,-5.6e-4 -0.41501,-5.7e-4 -0.0892,1.82177 c -0.0581,1.18582 -0.13377,1.9649 -0.21683,2.2318 -0.20121,0.64663 -0.55738,1.06149 -1.17039,1.36328 -0.49466,0.24351 -0.6057,0.2652 -1.44813,0.28278 -0.50182,0.0104 -1.00451,0.002 -1.11709,-0.0175 z m 2.08017,-1.45288 c 0.12434,-0.0815 0.28165,-0.28116 0.34959,-0.44376 0.15067,-0.36061 0.2663,-1.85372 0.26967,-3.48216 0.003,-1.64008 -0.0685,-1.57036 1.68423,-1.63319 0.75799,-0.0272 1.73661,-0.007 2.33025,0.0484 l 1.02347,0.0952 -0.69596,0.37881 c -0.38277,0.20835 -0.77885,0.40406 -0.88017,0.43492 -0.22807,0.0695 -0.23322,0.24424 -0.0604,2.0481 0.1609,1.67956 0.1567,1.6652 0.50568,1.73067 0.42064,0.0789 2.39297,-0.019 2.74279,-0.13619 0.34034,-0.11399 0.33008,-0.0813 0.47365,-1.50964 0.32307,-3.21415 0.48273,-8.00519 0.33559,-10.06978 -0.0545,-0.76494 -0.10877,-1.40045 -0.12056,-1.41224 -0.0118,-0.0118 -0.25103,0.0719 -0.53165,0.18589 -1.0439,0.42418 -1.82468,0.56033 -3.24275,0.56548 -0.99693,0.003 -1.46658,-0.0314 -1.96505,-0.14659 -1.3914,-0.3215 -2.60745,-1.10713 -3.09216,-1.9977 -0.62105,-1.14107 -0.61404,-2.90432 0.0169,-4.2526 0.48988,-1.04687 1.55331,-1.80078 2.99339,-2.12217 0.71362,-0.15926 2.92284,-0.21239 3.68446,-0.0886 l 0.40939,0.0665 -0.45032,-0.33097 c -0.64949,-0.47733 -1.82168,-1.0418 -2.57913,-1.24197 -0.9149,-0.24179 -2.50588,-0.30147 -3.26664,-0.12256 -1.62603,0.38241 -2.82269,1.60172 -3.59936,3.66749 -0.8452,2.24804 -1.15874,5.0784 -1.2543,11.32277 -0.0509,3.32368 0.0285,4.68082 0.392,6.70227 0.21547,1.19829 0.30806,1.40134 0.69758,1.5299 1.18563,0.39129 3.37256,0.51334 3.82982,0.21373 z m -6.25544,-7.40198 c 6.7e-4,-2.89982 0.22098,-7.2751 0.44747,-8.88692 0.0583,-0.41475 0.0827,-0.7775 0.0542,-0.80611 -0.0895,-0.0899 -1.3386,0.25154 -1.70412,0.46575 -0.44053,0.25817 -0.7272,0.73996 -0.90554,1.52191 -0.17574,0.77056 -0.1995,4.64584 -0.0366,5.96549 0.19773,1.60143 0.55415,2.75158 0.96879,3.1262 0.14844,0.13411 0.99119,0.55586 1.11393,0.55747 0.0338,3.1e-4 0.0616,-0.87427 0.0619,-1.94379 z m 12.32203,-7.29111 c 1.57193,-0.43212 2.60898,-1.10983 3.0947,-2.02239 0.12562,-0.23601 0.17517,-0.47818 0.17735,-0.86681 0.003,-0.48854 -0.0258,-0.58266 -0.30292,-1.0001 -0.37966,-0.5718 -1.22798,-1.18656 -2.09863,-1.52082 -1.13343,-0.43514 -3.19654,-0.62892 -4.47308,-0.42013 -0.66793,0.10924 -1.44391,0.50589 -1.79721,0.91864 -0.48366,0.56505 -0.64906,1.10901 -0.65445,2.15233 -0.004,0.82991 0.0137,0.93805 0.22924,1.37698 0.36801,0.74945 1.13226,1.21995 2.42711,1.49418 0.75191,0.15925 2.63745,0.0972 3.39789,-0.11188 z"
         id="path11" />
      <circle
         style="fill:none;fill-opacity:1;stroke:#0000ff;stroke-width:0.1;stroke-dasharray:none;stroke-opacity:1"
         id="path12"
         cx="617.43445"
         cy="-319.03049"
         r="2" />
    </g>
  </g>
</svg>
