<?xml version="1.0" encoding="UTF-8" standalone="no"?>
<!-- Created with Inkscape (http://www.inkscape.org/) -->

<svg
   width="41.008999mm"
   height="41.008999mm"
   viewBox="0 0 41.008999 41.009"
   version="1.1"
   id="svg1"
   inkscape:version="1.4.2 (f4327f4, 2025-05-13)"
   sodipodi:docname="269.svg"
   xmlns:inkscape="http://www.inkscape.org/namespaces/inkscape"
   xmlns:sodipodi="http://sodipodi.sourceforge.net/DTD/sodipodi-0.dtd"
   xmlns="http://www.w3.org/2000/svg"
   xmlns:svg="http://www.w3.org/2000/svg">
  <sodipodi:namedview
     id="namedview1"
     pagecolor="#ffffff"
     bordercolor="#000000"
     borderopacity="0.25"
     inkscape:showpageshadow="2"
     inkscape:pageopacity="0.0"
     inkscape:pagecheckerboard="0"
     inkscape:deskcolor="#d1d1d1"
     inkscape:document-units="mm"
     inkscape:zoom="2.8970539"
     inkscape:cx="89.05599"
     inkscape:cy="80.426533"
     inkscape:window-width="1168"
     inkscape:window-height="1081"
     inkscape:window-x="3737"
     inkscape:window-y="0"
     inkscape:window-maximized="0"
     inkscape:current-layer="layer1" />
  <defs
     id="defs1" />
  <g
     inkscape:label="Layer 1"
     inkscape:groupmode="layer"
     id="layer1"
     transform="translate(-114.0891,-77.774176)">
    <g
       id="g14"
       transform="translate(-609.16119,252.98046)">
      <path
         style="fill:#000000;stroke-width:0.1;stroke-dasharray:none"
         d="m 745.30177,-135.81927 c 0,-0.0136 0.045,-0.0612 0.0999,-0.1057 0.085,-0.0691 0.0925,-0.0688 0.0501,0.002 -0.0686,0.11383 0.41643,-0.1636 0.54524,-0.31187 0.0746,-0.0859 0.0465,-0.0772 -0.10475,0.0326 -0.24728,0.17928 -0.35433,0.24213 -0.35433,0.20813 0,-0.0138 0.10003,-0.0914 0.22229,-0.17229 0.12227,-0.0809 0.38136,-0.28881 0.57578,-0.46202 l 0.3535,-0.31492 -0.29515,0.3213 -0.29515,0.32132 0.36897,-0.3525 c 0.3391,-0.32393 0.49259,-0.50276 0.28038,-0.32664 -0.17363,0.14411 -0.0851,-0.04 0.10109,-0.21041 0.10433,-0.0954 0.15128,-0.12029 0.10436,-0.0554 -0.0844,0.1169 -0.084,0.11695 0.0465,0.006 0.13508,-0.11525 0.17851,-0.18904 0.0728,-0.12371 -0.0998,0.0616 -0.0653,-0.0691 0.0409,-0.15517 0.0861,-0.0699 0.0929,-0.0689 0.0489,0.008 -0.0319,0.0553 -0.003,0.0465 0.0772,-0.024 0.14328,-0.12565 0.17859,-0.20946 0.0397,-0.0942 -0.0494,0.041 -0.0886,0.0473 -0.0886,0.0145 0,-0.0676 0.12352,-0.18153 0.19685,-0.18169 0.0271,-4e-5 0.0669,-0.0198 0.0886,-0.044 0.0217,-0.0242 0.006,-0.0248 -0.0344,-0.002 -0.11003,0.0633 -0.0892,-0.0556 0.0262,-0.14918 0.0862,-0.0699 0.0927,-0.069 0.0477,0.008 -0.045,0.0763 -0.0385,0.0774 0.0477,0.008 0.11242,-0.0913 0.13546,-0.15455 0.0332,-0.0914 -0.0405,0.025 -0.056,0.008 -0.0394,-0.0408 0.015,-0.045 0.0562,-0.0821 0.0913,-0.0821 0.0352,0 0.0861,-0.0242 0.11319,-0.0538 0.029,-0.0317 0.0159,-0.0344 -0.0323,-0.007 -0.0557,0.0322 -0.0728,0.0213 -0.0541,-0.0349 0.015,-0.0452 0.0562,-0.0821 0.0913,-0.0821 0.0352,0 0.0861,-0.0242 0.11318,-0.0538 0.0291,-0.0318 0.0159,-0.0344 -0.0323,-0.007 -0.0561,0.0326 -0.0722,0.0215 -0.0516,-0.0349 0.0164,-0.0451 0.0616,-0.0747 0.10062,-0.0658 0.039,0.009 0.0544,-0.01 0.0343,-0.0429 -0.02,-0.0326 0.0221,-0.16096 0.0938,-0.28546 0.11237,-0.19523 0.18062,-0.2408 0.49604,-0.33113 0.58997,-0.16895 2.2135,-0.99931 2.2135,-1.13207 0,-0.0162 -0.14613,0.0639 -0.32474,0.17821 -0.34975,0.22373 -1.1196,0.62384 -1.19445,0.6208 -0.0252,-9.2e-4 0.19353,-0.12725 0.48601,-0.28052 0.84648,-0.44354 1.36495,-0.82118 2.12476,-1.5476 0.39027,-0.37312 0.6434,-0.599 0.56251,-0.50196 -0.13149,0.15774 -0.12367,0.15487 0.0738,-0.027 0.21476,-0.19787 0.31026,-0.32804 0.13231,-0.18034 -0.15903,0.13199 -0.093,-0.0345 0.072,-0.18163 0.11973,-0.10669 0.13878,-0.11311 0.0748,-0.025 -0.0849,0.1169 -0.0844,0.11697 0.0461,0.006 0.13941,-0.11893 0.17742,-0.18836 0.0652,-0.11898 -0.0409,0.0251 -0.0552,0.01 -0.0369,-0.0408 0.0164,-0.0451 0.0565,-0.0764 0.0892,-0.0697 0.0326,0.007 0.10907,-0.0458 0.16978,-0.1171 0.0932,-0.10931 0.0943,-0.11707 0.007,-0.0495 -0.0568,0.044 -0.10335,0.0535 -0.10335,0.0209 0,-0.0749 0.14842,-0.20068 0.18895,-0.16015 0.0168,0.0167 0.0675,-0.0166 0.11268,-0.0743 0.0748,-0.0953 0.0729,-0.0974 -0.0211,-0.0237 -0.0568,0.0445 -0.10334,0.0545 -0.10334,0.022 0,-0.0664 0.18139,-0.23197 0.22068,-0.20148 0.014,0.011 0.0431,-7e-5 0.0648,-0.0242 0.0217,-0.0242 0.003,-0.0227 -0.0421,0.003 -0.0557,0.0323 -0.0729,0.0213 -0.0541,-0.0349 0.015,-0.0452 0.057,-0.0821 0.0933,-0.0821 0.0362,0 0.10048,-0.0371 0.14271,-0.0826 0.0633,-0.068 0.0625,-0.0743 -0.005,-0.0362 -0.0554,0.0316 -0.0728,0.0202 -0.0541,-0.0356 0.015,-0.0452 0.057,-0.0821 0.0933,-0.0821 0.0362,0 0.0973,-0.0314 0.13566,-0.0697 0.0536,-0.0536 0.044,-0.0649 -0.0413,-0.0488 -0.0611,0.0115 -0.12435,0.0262 -0.14059,0.0324 -0.0162,0.007 -0.0454,0.01 -0.0648,0.008 -0.0194,-0.002 -0.13897,0.1069 -0.26575,0.24247 -0.12677,0.13557 -0.1707,0.19655 -0.0976,0.13547 0.18151,-0.15163 0.16889,-0.0291 -0.0147,0.14353 -0.0812,0.0762 -0.14764,0.11607 -0.14764,0.0884 0,-0.0276 -0.37869,0.32176 -0.84153,0.77649 -0.46284,0.45471 -1.01103,0.94108 -1.21819,1.08079 -0.52439,0.35367 -1.17949,0.64476 -1.6798,0.74639 -0.57603,0.11703 -2.27965,0.16792 -3.83426,0.11454 -1.19222,-0.0408 -1.52178,-0.0946 -1.12204,-0.18267 1.19839,-0.26406 3.27164,-1.18268 3.91238,-1.73349 0.0812,-0.0698 -0.0384,-0.0109 -0.26575,0.13192 -0.522,0.32686 -1.17669,0.69022 -1.24356,0.69022 -0.0281,0 0.25348,-0.17323 0.62576,-0.38493 0.83853,-0.47689 1.37068,-0.87268 1.94355,-1.44557 0.24371,-0.24371 0.40468,-0.38996 0.35771,-0.325 -0.0639,0.0883 -0.045,0.0821 0.0752,-0.025 0.16705,-0.14889 0.22731,-0.25143 0.072,-0.12257 -0.0559,0.0464 -0.0886,0.0502 -0.0886,0.011 0,-0.0622 0.11108,-0.15571 0.18702,-0.15744 0.0217,-4.7e-4 0.0615,-0.025 0.0886,-0.0546 0.029,-0.0316 0.0159,-0.0344 -0.0323,-0.007 -0.0557,0.0322 -0.0729,0.0214 -0.0541,-0.0349 0.015,-0.0451 0.0562,-0.0821 0.0913,-0.0821 0.0352,0 0.0861,-0.0242 0.11319,-0.0537 0.0292,-0.0319 0.015,-0.0341 -0.0347,-0.005 -0.0652,0.0378 -0.0737,0.0234 -0.0381,-0.0643 0.0251,-0.0622 0.0684,-0.24591 0.0961,-0.40831 l 0.0503,-0.29528 -0.0219,0.35433 c -0.0133,0.21639 -0.004,0.30749 0.0255,0.23399 0.0563,-0.14308 0.087,-0.61247 0.0617,-0.94265 l -0.0181,-0.23622 -0.0423,0.23622 -0.0423,0.23623 -0.008,-0.22334 c -0.005,-0.12286 -0.0482,-0.31877 -0.097,-0.43537 -0.10751,-0.25732 -0.10871,-0.27519 -0.0147,-0.22113 0.0429,0.0246 0.0532,0.0199 0.0246,-0.0113 -0.0271,-0.0295 -0.078,-0.0537 -0.11319,-0.0537 -0.0352,0 -0.0763,-0.037 -0.0913,-0.0821 -0.0187,-0.0561 -0.002,-0.0672 0.0541,-0.0349 0.0481,0.028 0.0613,0.0251 0.0323,-0.007 -0.0271,-0.0296 -0.0802,-0.0538 -0.11811,-0.0538 -0.17336,0 -0.0342,-0.19641 0.34448,-0.48616 0.22736,-0.17395 0.58757,-0.48862 0.80045,-0.69926 0.21288,-0.21061 0.40072,-0.36929 0.41742,-0.35261 0.0167,0.0166 0.12155,-0.0642 0.23301,-0.17979 0.11147,-0.1156 0.17608,-0.20505 0.1436,-0.19882 -0.13228,0.0254 -0.15786,-0.008 -0.081,-0.10602 0.0733,-0.0935 0.0713,-0.0957 -0.0217,-0.0228 -0.0565,0.0442 -0.086,0.10756 -0.0656,0.14053 0.0204,0.0331 5.5e-4,0.048 -0.0438,0.0331 -0.0445,-0.0148 -0.29402,0.11106 -0.55448,0.27976 -1.00196,0.64899 -1.9783,1.10955 -3.25978,1.53769 -0.78936,0.26372 -1.02281,0.30984 -1.02281,0.20207 0,-0.0325 0.0473,-0.059 0.10536,-0.059 0.0579,0 0.25062,-0.14992 0.42814,-0.33312 0.17754,-0.18322 0.28957,-0.31453 0.24897,-0.29179 -0.0406,0.0227 -0.0738,0.0164 -0.0738,-0.0141 0,-0.0629 0.17717,-0.22248 0.23053,-0.20757 0.0194,0.006 0.0485,-0.006 0.0648,-0.0243 0.0162,-0.0187 -0.007,-0.0129 -0.0519,0.0131 -0.0557,0.0322 -0.0729,0.0213 -0.0541,-0.0349 0.015,-0.0452 0.0562,-0.0821 0.0913,-0.0821 0.0352,0 0.0861,-0.0242 0.11319,-0.0538 0.029,-0.0316 0.0159,-0.0344 -0.0323,-0.007 -0.0557,0.0322 -0.0729,0.0213 -0.0541,-0.0349 0.015,-0.0452 0.0562,-0.0821 0.0913,-0.0821 0.0352,0 0.0861,-0.0242 0.11318,-0.0538 0.029,-0.0317 0.0159,-0.0344 -0.0323,-0.007 -0.0448,0.026 -0.0701,0.0235 -0.0562,-0.006 0.0139,-0.0288 0.1481,-0.30496 0.29818,-0.61352 0.53371,-1.09738 0.79635,-2.19809 0.87365,-3.6614 l 0.0483,-0.91536 -0.021,0.94488 c -0.0199,0.89931 -0.0663,1.22313 -0.35063,2.45078 -0.0188,0.0812 0.006,0.0451 0.0547,-0.08 0.26317,-0.6745 0.46165,-2.53398 0.3544,-3.32018 -0.0424,-0.31017 -0.0525,-0.32968 -0.0896,-0.17255 -0.0253,0.107 -0.0448,0.1319 -0.0489,0.0629 -0.0163,-0.26701 -0.21229,-0.92069 -0.39709,-1.32453 -0.10946,-0.23921 -0.18408,-0.45911 -0.16582,-0.48867 0.0183,-0.0297 9.3e-4,-0.0465 -0.0376,-0.0376 -0.039,0.009 -0.0843,-0.0207 -0.10063,-0.0658 -0.0205,-0.0564 -0.005,-0.0673 0.0517,-0.0349 0.0481,0.028 0.0614,0.0251 0.0323,-0.007 -0.0271,-0.0296 -0.0669,-0.0541 -0.0886,-0.0547 -0.0759,-0.002 -0.187,-0.0953 -0.187,-0.15745 0,-0.0378 0.0412,-0.031 0.10335,0.0172 0.0842,0.0652 0.0824,0.0556 -0.009,-0.0518 -0.123,-0.14416 -0.18499,-0.17477 -0.11759,-0.058 0.0235,0.0406 -0.11871,-0.0896 -0.3159,-0.2894 -0.38506,-0.39007 -0.86127,-0.73636 -1.35853,-0.98786 -0.17052,-0.0863 -0.31003,-0.1701 -0.31003,-0.18632 0,-0.0501 0.60182,0.27171 0.95049,0.50811 0.18173,0.12321 0.48734,0.36173 0.67913,0.53004 l 0.34872,0.30603 -0.34101,-0.3303 c -0.39635,-0.38393 -0.84115,-0.69424 -1.45303,-1.01372 -0.23969,-0.12514 -0.57646,-0.35609 -0.74839,-0.51323 -0.17379,-0.15883 -0.32896,-0.25923 -0.34943,-0.22611 -0.0358,0.0579 0.0613,0.29826 0.12043,0.29826 0.0162,0 -1.3e-4,-0.0555 -0.0363,-0.12318 -0.0829,-0.15489 -0.0403,-0.2065 0.0653,-0.0792 0.10825,0.13043 0.13847,0.34124 0.0409,0.28508 -0.043,-0.0248 -0.0534,-0.0201 -0.0249,0.0112 0.0271,0.0296 0.078,0.0538 0.1132,0.0538 0.0352,0 0.0763,0.037 0.0913,0.0821 0.0186,0.0559 0.002,0.0672 -0.0541,0.0352 -0.0448,-0.0257 -0.004,0.037 0.092,0.13942 0.21279,0.22856 0.28623,0.24884 0.0879,0.0243 -0.0788,-0.0892 0.0163,-0.0144 0.21116,0.16595 0.19488,0.18039 0.51877,0.43922 0.71976,0.57515 0.20098,0.13593 0.38547,0.2805 0.40996,0.32126 0.0275,0.0458 4.6e-4,0.0406 -0.0702,-0.0135 -0.1131,-0.0864 -0.11312,-0.0858 -0.002,0.0444 0.11525,0.13507 0.18905,0.1785 0.12371,0.0727 -0.094,-0.15216 0.0909,-0.0313 0.34179,0.22348 0.27235,0.27651 0.37988,0.4612 0.17495,0.30048 -0.0932,-0.0731 -0.0956,-0.071 -0.0238,0.0204 0.0438,0.0557 0.10683,0.0956 0.14025,0.0886 0.0335,-0.008 0.0742,0.024 0.0906,0.0692 0.02,0.0551 0.005,0.0667 -0.046,0.0352 -0.0501,-0.031 -0.0613,-0.0233 -0.0332,0.0222 0.0235,0.038 0.068,0.0535 0.099,0.0344 0.085,-0.0524 0.3466,0.568 0.41281,0.97914 0.054,0.33525 -0.002,0.96069 -0.0949,1.05323 -0.0471,0.0471 -0.17298,0.0657 -0.88433,0.12975 -1.3369,0.12055 -2.50674,0.37579 -3.10163,0.67671 -0.25662,0.12983 -1.12081,0.77182 -1.12081,0.83265 0,0.0163 0.19185,-0.12059 0.42633,-0.30406 0.47164,-0.36902 0.73914,-0.51932 1.21656,-0.68359 0.35258,-0.1213 1.47704,-0.35061 1.68195,-0.343 0.0715,0.003 -0.19331,0.0662 -0.58831,0.14115 -0.7958,0.15106 -1.21156,0.27412 -1.62433,0.48076 -0.3769,0.18869 -1.36779,0.98698 -1.75531,1.41413 -0.17507,0.19296 -0.2962,0.31099 -0.26918,0.26226 0.0424,-0.0763 0.0354,-0.0774 -0.0508,-0.008 -0.11243,0.0913 -0.13546,0.15458 -0.0332,0.0914 0.0405,-0.025 0.056,-0.008 0.0394,0.0408 -0.015,0.045 -0.0562,0.0821 -0.0914,0.0821 -0.0353,0 -0.0861,0.0242 -0.11318,0.0538 -0.029,0.0317 -0.0159,0.0344 0.0323,0.007 0.0558,-0.0322 0.0728,-0.0213 0.0541,0.0349 -0.015,0.0451 -0.0562,0.0821 -0.0914,0.0821 -0.0353,0 -0.0861,0.0242 -0.11318,0.0538 -0.029,0.0316 -0.0159,0.0344 0.0322,0.007 0.0557,-0.0322 0.0728,-0.0214 0.0541,0.0349 -0.015,0.0451 -0.0562,0.0821 -0.0913,0.0821 -0.0353,0 -0.0861,0.0242 -0.11319,0.0538 -0.029,0.0316 -0.0159,0.0344 0.0322,0.007 0.0558,-0.0322 0.0728,-0.0213 0.0541,0.0349 -0.015,0.0451 -0.057,0.0821 -0.0933,0.0821 -0.0364,0 -0.10044,0.0385 -0.14271,0.0858 -0.0663,0.074 -0.0626,0.075 0.0265,0.008 0.22792,-0.17246 0.0839,0.0557 -0.21158,0.33509 -0.4493,0.42493 -0.77932,0.57021 -1.56431,0.68863 l -0.6686,0.10088 -0.55052,-0.34317 c -0.30277,-0.18875 -0.54151,-0.35278 -0.53054,-0.36448 0.011,-0.0117 0.25792,0.12953 0.54876,0.3139 l 0.52878,0.33522 0.67037,-0.1011 c 0.60973,-0.0919 1.16333,-0.28024 1.2536,-0.42628 0.0168,-0.0273 -0.1091,0.0209 -0.27971,0.10701 -0.20577,0.10373 -0.53497,0.19101 -0.97729,0.25889 l -0.66697,0.10242 -0.51847,-0.32868 c -0.28515,-0.18077 -0.56148,-0.32867 -0.61408,-0.32867 -0.0527,0 -0.0956,-0.0265 -0.0956,-0.059 0,-0.0326 0.0199,-0.0556 0.0443,-0.0512 0.0244,0.005 0.1328,-0.0128 0.24098,-0.0378 0.13112,-0.0305 0.17155,-0.0612 0.12128,-0.0923 -0.0414,-0.0256 -0.12998,-0.0175 -0.19667,0.018 -0.10712,0.0571 -0.11225,0.0536 -0.0436,-0.0296 0.0661,-0.0799 0.0586,-0.10428 -0.0495,-0.16218 -0.07,-0.0374 -0.23775,-0.16512 -0.37292,-0.28377 -0.13515,-0.11865 -0.1926,-0.15243 -0.12764,-0.075 0.065,0.0774 0.22175,0.21649 0.34843,0.30917 0.12668,0.0927 0.19841,0.16852 0.15943,0.16852 -0.039,0 -0.24589,-0.17075 -0.45979,-0.37944 -0.27174,-0.26516 -0.37779,-0.40838 -0.35204,-0.47551 0.0204,-0.0533 0.0122,-0.0809 -0.0185,-0.0617 -0.0305,0.0188 -0.0858,-0.0226 -0.1229,-0.0919 -0.11667,-0.21802 0.0172,-0.25605 0.3349,-0.0953 0.50701,0.2565 1.62411,0.55099 1.53342,0.40425 -0.0213,-0.0348 -0.0823,-0.0463 -0.13527,-0.026 -0.0582,0.0223 -0.0816,0.0129 -0.059,-0.0235 0.039,-0.0631 -0.23529,-0.35777 -0.30182,-0.32422 -0.0208,0.011 -0.0488,-0.013 -0.062,-0.0525 -0.0151,-0.0454 0.003,-0.0545 0.0521,-0.0248 0.0501,0.031 0.0613,0.0233 0.0331,-0.0222 -0.0235,-0.038 -0.0673,-0.054 -0.0972,-0.0354 -0.0299,0.0185 -0.10065,-0.0633 -0.15716,-0.1818 -0.0971,-0.2034 -0.0971,-0.2196 -0.002,-0.28948 0.0557,-0.0407 0.0827,-0.0928 0.0598,-0.11558 -0.0228,-0.0228 0.0884,0.0312 0.24726,0.1199 0.15881,0.0888 0.437,0.22238 0.6182,0.29693 0.18119,0.0744 0.28817,0.13615 0.23773,0.13693 -0.0503,4.5e-4 -0.30954,-0.10395 -0.57578,-0.23271 -0.26624,-0.12875 -0.48408,-0.22053 -0.48408,-0.20396 0,0.066 1.02039,0.51473 1.18355,0.5205 0.096,0.003 0.17449,0.026 0.17457,0.0504 7e-5,0.0243 0.0317,0.0442 0.0702,0.0442 0.0385,0 -0.005,-0.0785 -0.0969,-0.17438 -0.0919,-0.096 -0.19319,-0.16898 -0.22512,-0.16239 -0.032,0.007 -0.0715,-0.0249 -0.0879,-0.0701 -0.02,-0.0551 -0.005,-0.0666 0.046,-0.0352 0.0501,0.031 0.0613,0.0233 0.0331,-0.0222 -0.0235,-0.038 -0.0665,-0.0545 -0.0954,-0.0365 -0.029,0.0178 -0.11014,-0.0813 -0.18033,-0.2205 -0.0702,-0.13918 -0.10713,-0.23355 -0.0819,-0.20969 0.0251,0.0237 0.0749,0.005 0.11059,-0.0435 0.0566,-0.0757 0.11272,-0.0719 0.43925,0.0305 0.49426,0.15481 0.96273,0.15232 1.29151,-0.007 0.14097,-0.0682 0.4749,-0.3257 0.74207,-0.57213 l 0.48576,-0.44806 -0.41338,0.43926 -0.41336,0.43929 0.45766,-0.44146 c 0.42056,-0.40564 0.52954,-0.52522 0.41337,-0.45355 -0.0244,0.015 -0.0526,-0.58799 -0.0628,-1.34003 -0.0207,-1.53237 0.0617,-2.38173 0.31587,-3.2589 l 0.1499,-0.51731 -0.12033,-0.1281 c -0.13419,-0.14283 -0.15992,-0.23881 -0.0466,-0.17355 0.0429,0.0246 0.0532,0.0199 0.0245,-0.0113 -0.0271,-0.0295 -0.078,-0.0538 -0.11318,-0.0538 -0.0353,0 -0.0762,-0.037 -0.0913,-0.0821 -0.0167,-0.0498 -9.3e-4,-0.0658 0.0394,-0.0408 0.1023,0.0633 0.0793,-1.8e-4 -0.0332,-0.0914 -0.0862,-0.0699 -0.0928,-0.0689 -0.0483,0.008 0.0284,0.0487 -0.10285,-0.0673 -0.29166,-0.25757 -0.2345,-0.23644 -0.48428,-0.4131 -0.78821,-0.55745 -0.41062,-0.19499 -0.50227,-0.21453 -1.18816,-0.25346 l -0.7432,-0.0421 0.74043,0.0113 c 0.71586,0.011 0.75508,0.0184 1.18112,0.22157 0.24236,0.11562 0.58681,0.33669 0.76545,0.49124 l 0.3248,0.28099 -0.3248,-0.31143 c -0.19259,-0.18467 -0.49975,-0.39455 -0.75459,-0.51561 -0.40204,-0.19097 -0.48401,-0.20728 -1.26968,-0.25266 -0.46194,-0.0267 -1.29431,-0.0499 -1.84973,-0.0517 l -1.00982,-0.003 -0.23033,0.16916 c -0.12668,0.093 -0.29638,0.24585 -0.37714,0.33957 -0.11074,0.12854 -0.089,0.11814 0.0886,-0.0421 0.46581,-0.42076 0.41629,-0.40868 1.62157,-0.39519 l 1.09413,0.0123 -1.12685,0.032 c -1.12315,0.0319 -1.1276,0.0326 -1.34472,0.19834 -0.11981,0.0915 -0.26006,0.23078 -0.31167,0.30953 -0.0516,0.0787 -0.11565,0.12972 -0.14234,0.11322 -0.0266,-0.0165 -0.0678,9.3e-4 -0.0913,0.0391 -0.0287,0.0463 -0.017,0.0533 0.0355,0.0208 0.0562,-0.0348 0.0679,-0.0216 0.0418,0.0463 -0.10351,0.26968 -0.16205,0.59506 -0.14759,0.82001 0.0202,0.31726 -0.0787,0.35018 -0.40059,0.13294 -0.17589,-0.11876 -0.20652,-0.12782 -0.12521,-0.037 0.0592,0.066 0.18625,0.15274 0.28241,0.19256 0.0962,0.0398 0.1629,0.0843 0.14842,0.0988 -0.0681,0.0681 -0.62704,-0.35095 -0.62704,-0.47017 0,-0.0284 0.0262,-0.0352 0.0584,-0.0154 0.0351,0.0216 0.0423,-0.006 0.0183,-0.0685 -0.0327,-0.0849 -0.0558,-0.0662 -0.12398,0.10021 -0.057,0.13912 -0.0751,0.3423 -0.0566,0.63393 0.0358,0.56321 -0.0259,0.4932 -0.081,-0.0918 l -0.0427,-0.45555 0.0186,0.5162 0.0186,0.51621 -0.15582,-0.0371 c -0.22206,-0.0529 -0.37018,-0.13302 -0.54196,-0.29287 -0.14392,-0.13394 -0.15026,-0.13477 -0.15883,-0.0212 -0.013,0.1727 0.20095,0.76032 0.36966,1.01527 0.17764,0.26843 0.18903,0.36599 0.0191,0.16374 l -0.12406,-0.14764 0.0883,0.14764 c 0.0486,0.0811 0.11161,0.14911 0.14014,0.15092 0.0569,0.003 0.84977,0.79395 0.79653,0.79395 -0.018,0 -0.20631,-0.16609 -0.41829,-0.36908 l -0.38544,-0.3691 0.38214,0.39862 c 0.21019,0.21923 0.42942,0.39861 0.4872,0.39861 0.0577,0 0.10505,0.0249 0.10505,0.0555 0,0.0855 -0.46602,0.0278 -0.84177,-0.10438 -0.43098,-0.15149 -0.92292,-0.4519 -1.3728,-0.83835 l -0.35432,-0.30437 0.35432,0.3353 c 0.19489,0.18442 0.52707,0.43911 0.73819,0.566 0.21112,0.12686 0.36075,0.23082 0.33254,0.231 -0.21325,0.002 -1.57269,-1.08282 -1.57269,-1.25422 0,-0.0326 0.0466,-0.0231 0.10341,0.0208 0.0842,0.0652 0.0824,0.0555 -0.009,-0.0518 -0.12255,-0.14366 -0.18656,-0.17571 -0.11588,-0.058 0.0301,0.0502 0.0124,0.0479 -0.0556,-0.008 -0.11532,-0.0935 -0.13612,-0.21251 -0.0262,-0.14919 0.0429,0.0247 0.0533,0.0199 0.0245,-0.0113 -0.027,-0.0296 -0.0779,-0.0538 -0.11319,-0.0538 -0.0352,0 -0.0762,-0.037 -0.0913,-0.0821 -0.0183,-0.0546 -0.002,-0.0664 0.0486,-0.0352 0.0501,0.031 0.0613,0.0234 0.0331,-0.0222 -0.0235,-0.038 -0.0674,-0.054 -0.0975,-0.0352 -0.0301,0.0185 -0.0857,-0.0341 -0.12351,-0.11715 -0.0378,-0.083 -0.11104,-0.15136 -0.16264,-0.15187 -0.0799,-4.6e-4 -0.0811,-0.009 -0.009,-0.0551 0.0472,-0.0299 0.11107,-0.0385 0.142,-0.0196 0.031,0.0191 0.0383,0.006 0.0161,-0.0302 -0.0275,-0.0447 -0.16471,-0.0173 -0.43728,0.0871 -0.56645,0.21675 -0.6482,0.21843 -0.75322,0.0153 -0.0486,-0.0937 -0.11055,-0.3916 -0.13796,-0.66193 -0.0274,-0.2703 -0.0802,-0.54831 -0.11744,-0.61783 -0.0876,-0.16346 -0.0857,-0.21095 0.007,-0.15578 0.15577,0.0935 -0.10132,-0.16741 -0.51024,-0.51793 l -0.41988,-0.35993 0.4164,0.40548 c 0.41123,0.40044 0.23256,0.27245 -0.254,-0.18196 -0.23252,-0.21715 -0.34063,-0.39029 -0.18279,-0.29276 0.0426,0.0264 0.0521,0.0162 0.0254,-0.0269 -0.0235,-0.0381 -0.068,-0.0535 -0.0989,-0.0344 -0.14358,0.0887 -0.31127,-0.77065 -0.18571,-0.95165 0.0525,-0.0757 0.78478,-0.2904 1.31306,-0.38505 0.21113,-0.0378 0.74341,-0.0762 1.18286,-0.0852 l 0.79899,-0.0164 1.24247,-0.70829 c 2.00578,-1.14342 1.89305,-1.09563 2.68118,-1.13693 l 0.67912,-0.0356 -0.62173,-0.01 c -0.59417,-0.01 -0.64002,-0.002 -1.03348,0.1875 -0.22645,0.10888 -0.97985,0.522 -1.67426,0.91817 l -1.26254,0.72032 -0.86342,0.0237 c -0.55713,0.0154 -1.06148,0.0659 -1.42169,0.14267 -0.30704,0.0656 -0.56801,0.10921 -0.57994,0.0973 -0.0429,-0.0429 0.81778,-0.21121 1.40845,-0.27546 0.33148,-0.0361 0.77833,-0.0534 0.99301,-0.0386 l 0.39026,0.0269 1.29921,-0.73812 c 1.94777,-1.1066 2.01198,-1.13391 2.66582,-1.13391 h 0.54319 l 0.10153,-0.31003 c 0.14202,-0.43377 0.37454,-0.88167 0.43753,-0.84275 0.0292,0.0179 0.0721,0.002 0.0956,-0.0365 0.0283,-0.0457 0.017,-0.0533 -0.0332,-0.0222 -0.0506,0.0314 -0.0667,0.0196 -0.0485,-0.0352 0.015,-0.0452 0.0562,-0.0821 0.0913,-0.0821 0.0352,0 0.0862,-0.0242 0.1132,-0.0538 0.0286,-0.0313 0.0184,-0.0359 -0.0245,-0.0113 -0.11003,0.0633 -0.0892,-0.0556 0.0262,-0.14918 0.0861,-0.0699 0.0929,-0.0689 0.0488,0.008 -0.0319,0.0553 -0.003,0.0465 0.0772,-0.024 0.14327,-0.12567 0.17858,-0.20947 0.0397,-0.0942 -0.0494,0.0409 -0.0886,0.0474 -0.0886,0.0145 0,-0.12405 1.19784,-1.20142 1.72333,-1.54998 0.50939,-0.3379 2.13851,-1.18481 2.26604,-1.17803 0.0308,0.002 -0.26883,0.1588 -0.66571,0.34926 -0.72124,0.34612 -1.6958,0.90422 -1.75981,1.00779 -0.0186,0.0302 0.18656,-0.0822 0.45603,-0.24968 1.28439,-0.79843 4.32683,-2.02324 5.85889,-2.35862 0.53379,-0.11686 0.83149,-0.2942 1.18615,-0.70662 0.065,-0.0756 -0.0413,0.003 -0.23621,0.17594 -0.37373,0.33045 -0.54534,0.42449 -0.7568,0.41476 -0.0736,-0.003 -0.0299,-0.0293 0.10181,-0.06 0.26077,-0.0611 0.62277,-0.35883 1.74749,-1.43695 l 0.73819,-0.70758 -0.73815,0.76571 -0.73816,0.76571 0.8415,-0.82598 c 0.46282,-0.45427 0.8415,-0.8371 0.8415,-0.85069 0,-0.0135 -0.0531,0.0233 -0.11811,0.0823 -0.065,0.0588 -0.11811,0.0802 -0.11811,0.0479 0,-0.0743 0.20633,-0.26475 0.24505,-0.22603 0.0159,0.0159 0.11996,-0.0705 0.23143,-0.19181 l 0.20266,-0.22055 -0.23273,0.20668 -0.23273,0.2067 0.25298,-0.31003 c 0.13915,-0.17055 0.26706,-0.31005 0.28426,-0.31005 0.0172,0 -0.005,0.0466 -0.048,0.10329 -0.0436,0.0569 -0.007,0.0388 0.0814,-0.0399 0.16705,-0.1489 0.22731,-0.25145 0.072,-0.12257 -0.14033,0.11647 -0.10286,-0.0282 0.0397,-0.15325 0.0812,-0.0713 0.10997,-0.0799 0.0784,-0.0239 -0.0315,0.0561 -0.003,0.0473 0.0784,-0.0238 0.14328,-0.12567 0.17858,-0.20946 0.0397,-0.0942 -0.14033,0.11646 -0.10288,-0.0282 0.0397,-0.15325 0.0705,-0.0619 0.10885,-0.0793 0.0851,-0.0387 -0.0627,0.10724 -0.005,0.0905 0.0895,-0.0262 0.0688,-0.0848 0.0687,-0.0924 -4.1e-4,-0.0509 -0.0564,0.0341 -0.0731,0.0237 -0.0541,-0.0329 0.015,-0.0451 0.057,-0.0821 0.0933,-0.0821 0.0362,0 0.10049,-0.0385 0.14271,-0.0858 0.0663,-0.074 0.0627,-0.0751 -0.0265,-0.008 -0.0633,0.048 -0.10336,0.0539 -0.10336,0.0153 0,-0.0622 0.11108,-0.1557 0.18701,-0.15746 0.0217,-4.4e-4 0.0615,-0.025 0.0886,-0.0546 0.029,-0.0318 0.0159,-0.0344 -0.0323,-0.007 -0.0557,0.0323 -0.0729,0.0214 -0.0541,-0.0349 0.0151,-0.0451 0.0562,-0.0821 0.0913,-0.0821 0.0352,0 0.0861,-0.0242 0.11319,-0.0537 0.0291,-0.0318 0.0159,-0.0344 -0.0323,-0.007 -0.0557,0.0322 -0.0729,0.0213 -0.0541,-0.0349 0.015,-0.0452 0.0562,-0.0821 0.0913,-0.0821 0.0352,0 0.0861,-0.0242 0.11318,-0.0538 0.029,-0.0316 0.0159,-0.0344 -0.0323,-0.007 -0.0557,0.0322 -0.0728,0.0213 -0.0541,-0.0349 0.0151,-0.0452 0.0562,-0.0821 0.0913,-0.0821 0.0352,0 0.0861,-0.0242 0.11318,-0.0538 0.029,-0.0316 0.0159,-0.0344 -0.0323,-0.007 -0.0557,0.0322 -0.0728,0.0214 -0.0541,-0.0349 0.015,-0.0451 0.0562,-0.0821 0.0913,-0.0821 0.0352,0 0.0861,-0.0242 0.11319,-0.0537 0.0291,-0.0317 0.0159,-0.0344 -0.0323,-0.007 -0.0561,0.0324 -0.0722,0.0215 -0.0517,-0.0349 0.0164,-0.0452 0.0616,-0.0747 0.10064,-0.0659 0.0389,0.009 0.054,-0.0111 0.0335,-0.0443 -0.0206,-0.0334 0.0638,-0.24636 0.18753,-0.47351 0.25951,-0.47651 0.32885,-0.49979 0.68887,-0.2313 l 0.24472,0.18251 -0.20446,-0.18251 c -0.11245,-0.10032 -0.17778,-0.1825 -0.14518,-0.1825 0.0708,0 0.55632,0.48501 0.55632,0.55573 0,0.027 -0.0465,0.0133 -0.10334,-0.0308 -0.0842,-0.0652 -0.0824,-0.0556 0.009,0.0519 0.12256,0.14366 0.18656,0.17571 0.11587,0.058 -0.0301,-0.0502 -0.0123,-0.0479 0.0556,0.008 0.11532,0.0935 0.13613,0.2125 0.0261,0.1492 -0.0429,-0.0247 -0.0532,-0.0199 -0.0247,0.0113 0.0271,0.0296 0.078,0.0537 0.11318,0.0537 0.0352,0 0.0763,0.037 0.0913,0.0821 0.0183,0.0547 0.002,0.0664 -0.0485,0.0352 -0.0501,-0.031 -0.0613,-0.0234 -0.0331,0.0222 0.0236,0.0381 0.0667,0.0544 0.0959,0.0364 0.0796,-0.0493 0.49002,0.80927 0.69852,1.46139 0.31292,0.9787 0.38256,2.24729 0.15002,2.7329 -0.0466,0.0975 -0.0684,0.12401 -0.0484,0.059 0.21188,-0.68652 0.14797,-1.82734 -0.15543,-2.77448 -0.10091,-0.31505 -0.1937,-0.56259 -0.20619,-0.5501 -0.0125,0.0125 0.0567,0.26975 0.15384,0.57172 0.24007,0.74651 0.33342,1.62549 0.23715,2.23313 -0.0401,0.25337 -0.0767,0.5072 -0.0812,0.56404 -0.005,0.0569 -0.0357,0.10393 -0.0693,0.1046 -0.0336,4.6e-4 0.085,0.0845 0.26363,0.18615 0.17865,0.10166 0.64311,0.3735 1.03214,0.60402 0.80052,0.47436 0.93759,0.54993 0.76904,0.42398 -0.52731,-0.39406 -0.36925,-0.31558 0.50197,0.24926 0.79878,0.51788 1.88054,1.31101 2.42125,1.77523 0.56029,0.48103 1.2992,1.20088 1.2992,1.2657 0,0.0308 -0.0399,0.023 -0.0886,-0.0176 -0.1677,-0.13918 -0.0882,-0.0219 0.10243,0.15135 0.16055,0.1458 0.17247,0.14991 0.0747,0.0257 -0.0977,-0.1241 -0.0858,-0.11998 0.0747,0.0257 0.19806,0.17987 0.26968,0.34564 0.0877,0.20288 -0.094,-0.0737 -0.0959,-0.0715 -0.0211,0.0237 0.0452,0.0576 0.0959,0.0912 0.11268,0.0743 0.0405,-0.0405 0.18894,0.0853 0.18894,0.16017 0,0.0326 -0.0465,0.0226 -0.10334,-0.022 -0.0935,-0.0733 -0.0957,-0.0713 -0.0228,0.0216 0.0442,0.0564 0.10274,0.0889 0.12992,0.0722 0.0693,-0.0429 0.18781,0.19701 0.13751,0.27837 -0.0247,0.04 -0.0151,0.0507 0.0238,0.0266 0.0359,-0.0221 0.0931,0.0119 0.12723,0.0756 0.082,0.15318 0.0783,0.19904 -0.0119,0.14719 -0.0429,-0.0246 -0.0532,-0.0199 -0.0246,0.0113 0.0271,0.0295 0.0789,0.0538 0.11515,0.0538 0.0976,0 0.8241,1.42519 1.15905,2.27361 0.4596,1.16417 0.60769,1.72064 0.62548,2.35029 0.0151,0.53431 0.0125,0.54638 -0.0956,0.44851 -0.1246,-0.11275 -0.15123,-0.23043 -0.0374,-0.16487 0.0429,0.0247 0.0532,0.0199 0.0246,-0.0113 -0.0271,-0.0296 -0.0779,-0.0538 -0.11318,-0.0538 -0.0351,0 -0.0763,-0.037 -0.0913,-0.0821 -0.0183,-0.0547 -0.002,-0.0664 0.0485,-0.0352 0.0512,0.0317 0.0614,0.0234 0.0312,-0.0251 -0.0245,-0.0396 -0.0594,-0.0572 -0.0775,-0.0391 -0.0424,0.0423 -0.19144,-0.0804 -0.19144,-0.15765 0,-0.0326 0.0465,-0.0226 0.10335,0.022 0.094,0.0737 0.0959,0.0715 0.0211,-0.0237 -0.0452,-0.0576 -0.0959,-0.0912 -0.11267,-0.0743 -0.0394,0.0394 -0.18895,-0.0844 -0.18895,-0.1564 0,-0.0305 0.0332,-0.0358 0.0738,-0.0122 0.0406,0.0237 0.0232,-0.0146 -0.0386,-0.0851 -0.13261,-0.15116 -0.20447,-0.17397 -0.0867,-0.0276 0.0446,0.0555 -0.23785,-0.21889 -0.62761,-0.60957 -0.40911,-0.41008 -0.90835,-0.84208 -1.18109,-1.02202 -0.25985,-0.1714 -0.48573,-0.32589 -0.50197,-0.34329 -0.0523,-0.0561 0.25783,0.11477 0.5315,0.29277 0.15345,0.0998 0.20455,0.11922 0.12094,0.046 -0.39739,-0.34823 -1.42495,-0.81943 -1.97158,-0.9041 -0.22412,-0.0348 -0.22194,-0.0317 0.19746,0.26273 0.23324,0.16379 0.62755,0.48704 0.87623,0.71832 0.24868,0.23128 0.34585,0.30549 0.21593,0.16491 -0.12993,-0.14058 -0.39041,-0.38539 -0.57886,-0.54403 -0.18845,-0.15864 -0.31692,-0.28844 -0.28549,-0.28844 0.0781,0 1.30726,1.17865 1.30726,1.25363 0,0.0331 -0.0464,0.0241 -0.10335,-0.02 -0.0842,-0.0652 -0.0824,-0.0555 0.009,0.0519 0.12287,0.14399 0.18547,0.17505 0.11705,0.058 -0.0237,-0.0406 0.0146,-0.0232 0.0851,0.0387 0.15224,0.13354 0.17437,0.26294 0.0249,0.14571 -0.0933,-0.0731 -0.0956,-0.071 -0.0238,0.0203 0.0438,0.0557 0.10684,0.0956 0.14026,0.0886 0.0335,-0.008 0.0742,0.024 0.0906,0.0692 0.0205,0.0564 0.005,0.0673 -0.0517,0.0349 -0.0481,-0.0279 -0.0614,-0.0251 -0.0323,0.007 0.0271,0.0296 0.078,0.0538 0.11318,0.0538 0.0352,0 0.0763,0.037 0.0913,0.0821 0.0187,0.0561 9.3e-4,0.0672 -0.0541,0.0349 -0.0481,-0.028 -0.0614,-0.0251 -0.0323,0.007 0.0271,0.0295 0.078,0.0538 0.11319,0.0538 0.0351,0 0.0763,0.037 0.0913,0.0821 0.0183,0.0546 0.002,0.0664 -0.0485,0.0352 -0.0501,-0.031 -0.0614,-0.0233 -0.0331,0.0222 0.0235,0.0381 0.0664,0.0545 0.0952,0.0367 0.0712,-0.044 0.24993,0.31234 0.19842,0.39568 -0.0254,0.0412 -0.0145,0.05 0.0288,0.0232 0.0467,-0.0289 0.14508,0.11958 0.29699,0.44856 0.40895,0.88553 0.74242,2.08995 0.8035,2.90205 0.0222,0.29552 0.011,0.26377 -0.0588,-0.16623 -0.10431,-0.64292 -0.32318,-1.55646 -0.38155,-1.59252 -0.0233,-0.0144 0.0162,0.19317 0.0879,0.46125 0.42914,1.60704 0.43772,4.1238 0.0207,6.04886 -0.0663,0.30572 -0.1088,0.5675 -0.0946,0.58173 0.0307,0.0307 0.24983,-1.00299 0.34578,-1.63123 0.0372,-0.2436 0.087,-1.094 0.11079,-1.88975 l 0.0431,-1.44684 -0.0153,1.47636 c -0.0104,1.00544 -0.0456,1.66476 -0.11035,2.06694 -0.1302,0.80841 -0.47458,2.16889 -0.72291,2.85588 -0.3067,0.84846 -0.87498,2.04831 -0.9612,2.02942 -0.0408,-0.008 -0.0578,0.01 -0.0379,0.0422 0.0483,0.078 -0.19455,0.54812 -0.26177,0.50657 -0.029,-0.0178 -0.0719,-0.002 -0.0954,0.0365 -0.0267,0.0431 -0.0172,0.0534 0.0255,0.0269 0.0847,-0.0523 0.0868,-0.003 0.006,0.14753 -0.0341,0.0638 -0.0854,0.10144 -0.11402,0.0837 -0.0286,-0.0178 -0.0713,-9.4e-4 -0.0947,0.037 -0.0283,0.0457 -0.017,0.0533 0.0331,0.0222 0.0505,-0.0314 0.0667,-0.0196 0.0485,0.0352 -0.015,0.0451 -0.0562,0.0821 -0.0913,0.0821 -0.0352,0 -0.0861,0.0242 -0.11319,0.0538 -0.0285,0.0313 -0.0183,0.0359 0.0246,0.0113 0.0901,-0.0519 0.0938,-0.006 0.0118,0.14719 -0.0341,0.0638 -0.0855,0.10142 -0.11402,0.0837 -0.0286,-0.0178 -0.0712,-9.3e-4 -0.0947,0.037 -0.0267,0.0431 -0.0171,0.0534 0.0255,0.027 0.10644,-0.0658 0.08,0.0589 -0.0317,0.14952 -0.0679,0.0551 -0.0857,0.0573 -0.0556,0.008 0.0646,-0.10756 0.006,-0.0902 -0.0882,0.0262 -0.0688,0.0848 -0.0687,0.0926 4.1e-4,0.0509 0.0564,-0.0341 0.073,-0.0237 0.0541,0.0329 -0.015,0.0452 -0.0562,0.0821 -0.0913,0.0821 -0.0351,0 -0.0861,0.0242 -0.11318,0.0538 -0.0285,0.0313 -0.0183,0.0359 0.0246,0.0113 0.11002,-0.0634 0.0892,0.0556 -0.0261,0.14917 -0.0679,0.0551 -0.0858,0.0574 -0.0555,0.008 0.0646,-0.10756 0.006,-0.0902 -0.0882,0.0262 -0.0551,0.0679 -0.0574,0.0858 -0.007,0.0555 0.11035,-0.0663 0.0891,0.0538 -0.0261,0.14732 -0.0679,0.0551 -0.0857,0.0573 -0.0556,0.008 0.0646,-0.10756 0.006,-0.0902 -0.0882,0.0263 -0.0551,0.0679 -0.0574,0.0858 -0.007,0.0556 0.0406,-0.0244 0.0738,-0.0194 0.0738,0.011 0,0.0721 -0.14951,0.19584 -0.18895,0.1564 -0.0168,-0.0168 -0.0675,0.0152 -0.11267,0.0709 -0.0544,0.0671 -0.0573,0.0863 -0.008,0.0571 0.13555,-0.0814 0.0759,0.0583 -0.0868,0.2033 -0.12054,0.10745 -0.1394,0.1137 -0.0756,0.025 0.0638,-0.0886 0.0449,-0.0824 -0.0756,0.025 -0.16705,0.1489 -0.22731,0.25144 -0.072,0.12258 0.0488,-0.0405 0.0886,-0.0486 0.0886,-0.0179 0,0.0841 -1.55843,1.6136 -2.09147,2.05276 -0.52187,0.42997 -1.37693,1.03557 -1.3106,0.92824 0.0388,-0.0629 -0.0323,-0.0967 -0.15851,-0.0756 -0.0258,0.005 -0.0198,-0.0391 0.0133,-0.0964 0.0791,-0.13694 0.44092,-0.54391 0.38146,-0.42899 -0.0395,0.0762 -0.032,0.0773 0.054,0.008 0.11242,-0.0913 0.13546,-0.15458 0.0332,-0.0913 -0.0405,0.025 -0.056,0.008 -0.0394,-0.0408 0.015,-0.0451 0.0562,-0.0821 0.0913,-0.0821 0.0352,0 0.0861,-0.0242 0.11319,-0.0538 0.0291,-0.0316 0.0159,-0.0344 -0.0323,-0.007 -0.0557,0.0322 -0.0729,0.0214 -0.0541,-0.0349 0.015,-0.0451 0.0562,-0.0821 0.0913,-0.0821 0.0352,0 0.0861,-0.0242 0.1132,-0.0537 0.029,-0.0317 0.0159,-0.0344 -0.0323,-0.007 -0.0557,0.0322 -0.0729,0.0213 -0.0541,-0.0349 0.015,-0.0451 0.0562,-0.0821 0.0913,-0.0821 0.0352,0 0.0861,-0.0242 0.11319,-0.0538 0.0291,-0.0317 0.0159,-0.0344 -0.0323,-0.007 -0.0557,0.0322 -0.0729,0.0213 -0.0541,-0.0349 0.015,-0.0452 0.0562,-0.0821 0.0913,-0.0821 0.0352,0 0.0861,-0.0242 0.11318,-0.0538 0.029,-0.0316 0.0159,-0.0344 -0.0323,-0.007 -0.0557,0.0322 -0.0728,0.0214 -0.0541,-0.0349 0.015,-0.0451 0.0562,-0.0821 0.0913,-0.0821 0.0352,0 0.0861,-0.0242 0.11318,-0.0537 0.029,-0.0318 0.0159,-0.0344 -0.0323,-0.007 -0.10034,0.0581 -0.11373,0.0897 0.3259,-0.76793 0.61192,-1.19371 0.93963,-2.357 0.89773,-3.18678 -0.0143,-0.28287 -9.3e-4,-0.42104 0.0381,-0.39768 0.033,0.0196 0.0235,-0.009 -0.0211,-0.0642 -0.14105,-0.17389 -0.5815,-0.12997 -1.04782,0.1045 -0.41476,0.20852 -1.04999,0.71399 -0.99963,0.79546 0.0327,0.0529 -0.28722,0.37379 -0.33005,0.33096 -0.016,-0.016 -0.14705,0.0952 -0.29119,0.24717 -0.14413,0.15198 -0.21555,0.24116 -0.15871,0.19823 0.0967,-0.073 0.13105,-0.0479 0.10721,0.0786 -0.006,0.0297 0.22118,-0.16526 0.50388,-0.43286 0.53126,-0.50289 1.22027,-1.02435 1.52966,-1.15772 0.2371,-0.10219 0.48272,-0.0503 0.52319,0.11068 0.0291,0.11573 0.0251,0.11793 -0.0448,0.0247 -0.0688,-0.0918 -0.0772,-0.0842 -0.0817,0.074 -0.003,0.0969 -0.0219,0.2294 -0.0424,0.29429 -0.0206,0.0649 -0.0232,0.11801 -0.006,0.11801 0.0175,0 0.059,-0.0864 0.0923,-0.19193 l 0.0605,-0.19192 -0.0307,0.2067 c -0.0414,0.27893 -0.64121,1.451 -0.73214,1.43061 -0.0398,-0.008 -0.056,0.01 -0.036,0.0425 0.0482,0.0779 -0.13589,0.42961 -0.20316,0.38801 -0.0288,-0.0178 -0.0716,-0.002 -0.0952,0.0367 -0.0267,0.0432 -0.0172,0.0534 0.0255,0.0269 0.0847,-0.0523 0.0868,-0.003 0.006,0.14754 -0.0341,0.0638 -0.0855,0.10142 -0.11403,0.0837 -0.0286,-0.0178 -0.0713,-9.4e-4 -0.0947,0.037 -0.0282,0.0456 -0.017,0.0532 0.0331,0.0222 0.0505,-0.0314 0.0667,-0.0196 0.0485,0.0352 -0.015,0.0451 -0.0562,0.0821 -0.0913,0.0821 -0.0352,0 -0.0861,0.0242 -0.11319,0.0538 -0.0285,0.0313 -0.0183,0.0359 0.0246,0.0113 0.0901,-0.0518 0.0938,-0.006 0.0118,0.14718 -0.0341,0.0638 -0.0855,0.10143 -0.11402,0.0837 -0.0286,-0.0178 -0.0713,-9.3e-4 -0.0947,0.037 -0.0283,0.0456 -0.017,0.0533 0.0331,0.0222 0.0505,-0.0313 0.0667,-0.0195 0.0485,0.0352 -0.015,0.0452 -0.0562,0.0821 -0.0913,0.0821 -0.0352,0 -0.0861,0.0242 -0.11319,0.0537 -0.029,0.0317 -0.0159,0.0344 0.0323,0.007 0.0557,-0.0322 0.0729,-0.0214 0.0541,0.0349 -0.015,0.0452 -0.0562,0.0821 -0.0913,0.0821 -0.0352,0 -0.0861,0.0242 -0.11319,0.0538 -0.029,0.0316 -0.0159,0.0344 0.0323,0.007 0.0557,-0.0323 0.0729,-0.0213 0.0541,0.0349 -0.015,0.0452 -0.0562,0.0821 -0.0913,0.0821 -0.0352,0 -0.0861,0.0242 -0.11318,0.0538 -0.029,0.0316 -0.0159,0.0344 0.0323,0.007 0.0557,-0.0322 0.0729,-0.0213 0.0541,0.0349 -0.015,0.0451 -0.0562,0.082 -0.0913,0.082 -0.0352,0 -0.0861,0.0242 -0.1132,0.0538 -0.029,0.0316 -0.0159,0.0344 0.0323,0.007 0.0557,-0.0322 0.0728,-0.0214 0.0541,0.0349 -0.015,0.0451 -0.0562,0.0821 -0.0913,0.0821 -0.0352,0 -0.0861,0.0242 -0.11319,0.0537 -0.029,0.0318 -0.0159,0.0344 0.0323,0.007 0.0557,-0.0322 0.0729,-0.0213 0.0541,0.0349 -0.015,0.0451 -0.0562,0.0821 -0.0913,0.0821 -0.0352,0 -0.0861,0.0242 -0.11319,0.0538 -0.0291,0.0318 -0.0159,0.0344 0.0323,0.007 0.0557,-0.0322 0.0729,-0.0213 0.0541,0.0349 -0.015,0.0451 -0.0562,0.0821 -0.0913,0.0821 -0.0352,0 -0.0861,0.0242 -0.11319,0.0538 -0.0291,0.0316 -0.0159,0.0344 0.0323,0.007 0.0557,-0.0322 0.0729,-0.0213 0.0541,0.0349 -0.015,0.0451 -0.0562,0.0821 -0.0913,0.0821 -0.0352,0 -0.0861,0.0242 -0.11318,0.0538 -0.0291,0.0316 -0.0159,0.0344 0.0323,0.007 0.0557,-0.0322 0.0729,-0.0213 0.0541,0.0349 -0.015,0.0451 -0.057,0.0821 -0.0933,0.0821 -0.0362,0 -0.1005,0.0385 -0.14272,0.0858 -0.0663,0.074 -0.0627,0.075 0.0266,0.008 0.0568,-0.043 0.10335,-0.0516 0.10335,-0.0192 0,0.0749 -0.14841,0.20068 -0.18895,0.16017 -0.0168,-0.0167 -0.0675,0.0166 -0.11267,0.0743 -0.0748,0.0953 -0.0729,0.0975 0.0211,0.0237 0.18203,-0.14275 0.1104,0.023 -0.0877,0.20288 -0.16055,0.1458 -0.17247,0.14991 -0.0747,0.0257 0.0977,-0.1241 0.0858,-0.11998 -0.0747,0.0257 -0.19071,0.17319 -0.27013,0.29055 -0.10242,0.15136 0.0488,-0.0405 0.0886,-0.0477 0.0886,-0.0162 0,0.0316 -0.3654,0.41414 -0.812,0.85019 -0.79691,0.77808 -1.76557,1.55013 -2.58257,2.05842 -0.433,0.26937 -1.90757,1.00603 -2.00895,1.00361 -0.0324,-4.7e-4 0.29571,-0.17307 0.72932,-0.38285 0.76604,-0.37065 1.75108,-0.93757 1.81846,-1.04661 0.0184,-0.0297 -0.17881,0.0791 -0.43806,0.24154 -1.01671,0.63719 -2.34988,1.22275 -3.46798,1.52324 -0.29231,0.0785 -0.4151,0.12773 -0.27286,0.1093 0.14226,-0.0184 0.53968,-0.12468 0.88317,-0.23605 0.34349,-0.11139 0.6347,-0.19234 0.64714,-0.17989 0.0124,0.0124 -0.27867,0.12075 -0.64693,0.24066 -0.58654,0.19102 -0.75929,0.22118 -1.39299,0.24328 -0.39788,0.0138 -0.72343,0.0142 -0.72343,4.5e-4 z m 6.1417,-2.47164 c 0.27608,-0.21301 0.55511,-0.44856 0.62007,-0.52345 0.065,-0.0749 -0.0546,0.008 -0.26574,0.18466 -0.21112,0.17644 -0.52337,0.42266 -0.69389,0.54715 -0.17053,0.12447 -0.31005,0.24059 -0.31005,0.25804 0,0.036 -0.0228,0.0523 0.64961,-0.4664 z m -3.24801,-0.63836 c 0.0348,-0.065 0.0499,-0.11813 0.0337,-0.11813 -0.0162,0 -0.0579,0.0533 -0.0928,0.11813 -0.0348,0.065 -0.05,0.1181 -0.0337,0.1181 0.0162,0 0.0579,-0.0533 0.0927,-0.1181 z m 4.60627,-0.56102 c 0.30728,-0.30857 0.5454,-0.56105 0.52916,-0.56105 -0.0162,0 -0.28094,0.25248 -0.58821,0.56105 -0.30728,0.30854 -0.5454,0.56102 -0.52916,0.56102 0.0162,0 0.28093,-0.25248 0.58821,-0.56102 z m 2.46684,-0.76247 c 0.20229,-0.14891 0.36779,-0.28294 0.36779,-0.29784 0,-0.0249 -0.8791,0.58944 -0.94487,0.66053 -0.0782,0.0846 0.24842,-0.12075 0.57708,-0.36269 z m -0.4885,0.0834 c 0.0588,-0.065 0.0936,-0.1181 0.0774,-0.1181 -0.0162,0 -0.0776,0.0532 -0.13641,0.1181 -0.0588,0.065 -0.0936,0.1181 -0.0774,0.1181 0.0162,0 0.0776,-0.0531 0.13642,-0.1181 z m -3.35732,-0.68291 c 0.23833,-0.2246 0.21699,-0.21341 -0.12691,0.0666 -0.48777,0.39708 -0.60249,0.50693 -0.34553,0.33084 0.10228,-0.0701 0.31488,-0.24893 0.47244,-0.39742 z m 4.90492,-0.28208 c 0.0232,-0.0377 -0.10965,0.0609 -0.29509,0.21923 -0.18544,0.15822 -0.33716,0.30021 -0.33716,0.31554 0,0.0396 0.58156,-0.45226 0.63225,-0.53477 z m -4.05743,-0.49415 c 0,-0.0444 -0.053,0.002 -0.29774,0.26328 l -0.26328,0.28052 0.28051,-0.2633 c 0.15428,-0.1448 0.28051,-0.27102 0.28051,-0.2805 z m 4.87202,-0.25344 c 0.38874,-0.38976 0.69353,-0.70866 0.67729,-0.70866 -0.0162,0 -0.3476,0.3189 -0.73634,0.70866 -0.38875,0.38976 -0.69353,0.70866 -0.67729,0.70866 0.0162,0 0.34759,-0.3189 0.73634,-0.70866 z m -1.32873,0.17716 c 0.0348,-0.065 0.05,-0.1181 0.0336,-0.1181 -0.0162,0 -0.058,0.0532 -0.0927,0.1181 -0.0348,0.065 -0.05,0.11811 -0.0337,0.11811 0.0162,0 0.0579,-0.0533 0.0927,-0.11811 z m -6.92775,-0.96298 c 0.0233,-0.0378 -0.0827,0.0338 -0.2354,0.15905 -0.15277,0.12519 -0.27776,0.23993 -0.27776,0.255 0,0.0402 0.46351,-0.33374 0.51316,-0.41405 z m 7.42272,-0.0145 c 0.0202,-0.0526 0.0103,-0.0762 -0.0232,-0.0556 -0.0321,0.0198 -0.0584,0.0611 -0.0584,0.0916 0,0.0849 0.0424,0.0663 0.0816,-0.0361 z m -7.02054,-0.32173 c 0.15996,-0.1624 0.27756,-0.29526 0.26131,-0.29526 -0.0162,0 -0.1604,0.13286 -0.32036,0.29526 -0.15996,0.1624 -0.27754,0.29526 -0.2613,0.29526 0.0162,0 0.16039,-0.13286 0.32035,-0.29526 z m 7.17336,-0.0886 c 0,-0.0324 -0.0258,-0.0192 -0.0573,0.0296 -0.0315,0.0487 -0.0573,0.11515 -0.0573,0.14764 0,0.0324 0.0258,0.0192 0.0573,-0.0295 0.0315,-0.0487 0.0573,-0.11516 0.0573,-0.14765 z m 0.0834,-0.18023 c 0.0201,-0.0526 0.0103,-0.0762 -0.0232,-0.0555 -0.0321,0.0198 -0.0584,0.0611 -0.0584,0.0916 0,0.0849 0.0424,0.0662 0.0816,-0.0362 z m -2.78808,-0.40865 c 0.0542,0.008 0.16053,-0.0544 0.23622,-0.14046 0.0756,-0.0861 0.11347,-0.13678 0.084,-0.11271 -0.0295,0.0241 -0.0846,0.018 -0.12257,-0.0135 -0.0478,-0.0396 -0.13083,0.01 -0.27118,0.16034 -0.11123,0.11966 -0.16237,0.18892 -0.11365,0.1539 0.0487,-0.035 0.13296,-0.0564 0.1872,-0.0477 z m 0.0223,-0.1524 c 0.0559,-0.0618 0.12692,-0.0966 0.15789,-0.0774 0.0708,0.0437 -0.0354,0.15678 -0.16518,0.17585 -0.083,0.0122 -0.082,4.4e-4 0.007,-0.0984 z m 3.00724,-0.26265 c 0.0567,-0.22736 0.11175,-0.65255 0.12233,-0.94488 l 0.0193,-0.5315 -0.0491,0.5315 c -0.027,0.29233 -0.10316,0.74094 -0.16921,0.99693 -0.0661,0.25599 -0.099,0.44204 -0.0732,0.4134 0.0258,-0.0286 0.0933,-0.23808 0.14996,-0.46545 z m -0.73643,0.0296 c 0.0348,-0.065 0.05,-0.11811 0.0336,-0.11811 -0.0162,0 -0.0579,0.0533 -0.0927,0.11811 -0.0348,0.065 -0.05,0.11811 -0.0336,0.11811 0.0162,0 0.058,-0.0533 0.0927,-0.11811 z m 0.41159,-0.8563 c 0,-0.0326 -0.0258,-0.0192 -0.0573,0.0295 -0.0315,0.0487 -0.0573,0.11516 -0.0573,0.14764 0,0.0326 0.0258,0.0192 0.0573,-0.0296 0.0315,-0.0486 0.0573,-0.11515 0.0573,-0.14764 z m -6.10723,-1.62908 c 0.0213,-0.0344 -0.0969,0.0349 -0.26273,0.15393 -0.16578,0.1191 -0.30143,0.22863 -0.30143,0.24338 0,0.0406 0.51974,-0.32545 0.56416,-0.39731 z m 10.17963,-0.26067 c 0,-0.0324 -0.038,0.008 -0.0844,0.0886 -0.0464,0.0812 -0.0843,0.17422 -0.0843,0.2067 0,0.0324 0.038,-0.008 0.0843,-0.0886 0.0464,-0.0812 0.0844,-0.17423 0.0844,-0.2067 z m -9.85798,0 c 0.1102,-0.11368 0.18706,-0.20669 0.17082,-0.20669 -0.0162,0 -0.11968,0.093 -0.22986,0.20669 -0.11019,0.11368 -0.18705,0.2067 -0.17082,0.2067 0.0162,0 0.11968,-0.093 0.22986,-0.2067 z m 0.44663,-0.39861 0.17346,-0.19194 -0.19193,0.17345 c -0.17891,0.16167 -0.21908,0.21041 -0.17345,0.21041 0.0102,0 0.0965,-0.0864 0.19192,-0.19192 z m 9.5909,-0.0148 c 0,-0.0324 -0.0258,-0.0192 -0.0573,0.0295 -0.0315,0.0488 -0.0573,0.11515 -0.0573,0.14764 0,0.0324 0.0258,0.0192 0.0573,-0.0296 0.0315,-0.0487 0.0573,-0.11515 0.0573,-0.14763 z m -12.69499,-0.0886 c 0.0348,-0.065 0.05,-0.1181 0.0337,-0.1181 -0.0162,0 -0.0579,0.0533 -0.0927,0.1181 -0.0348,0.065 -0.05,0.11812 -0.0337,0.11812 0.0162,0 0.0579,-0.0532 0.0927,-0.11812 z m 12.84011,-0.29525 c 0.0274,-0.10264 0.0228,-0.12063 -0.0153,-0.059 -0.0301,0.0486 -0.0725,0.15501 -0.0942,0.23623 -0.0274,0.10262 -0.0228,0.1206 0.0153,0.059 0.0301,-0.0487 0.0725,-0.15501 0.0942,-0.23621 z m 0.20595,-0.59056 c -0.002,-0.0584 -0.0206,-0.0484 -0.054,0.0295 -0.0698,0.16235 -0.0698,0.25558 0,0.14765 0.0315,-0.0488 0.0558,-0.12846 0.054,-0.17718 z m -9.11372,0.015 c -0.0149,-0.0149 0.0442,-0.0936 0.13145,-0.1749 0.096,-0.0894 0.0593,-0.0731 -0.0926,0.0407 -0.13819,0.10362 -0.23549,0.214 -0.2162,0.24521 0.0214,0.0348 0.068,0.0294 0.11982,-0.0136 0.0466,-0.0387 0.0725,-0.0827 0.0576,-0.0975 z m -3.49642,-0.0477 c 0.0202,-0.0526 0.0103,-0.0762 -0.0232,-0.0556 -0.0321,0.0198 -0.0584,0.0611 -0.0584,0.0916 0,0.0849 0.0423,0.0662 0.0816,-0.0362 z m -7.25305,-0.21838 0.17346,-0.19194 -0.19192,0.17346 c -0.10559,0.0954 -0.19194,0.18176 -0.19194,0.19193 0,0.0456 0.0488,0.006 0.2104,-0.17345 z m 20.06599,-0.45979 c 0.0196,-0.11252 -0.0166,-0.0452 -0.0803,0.14975 -0.0637,0.19487 -0.11432,0.38091 -0.11247,0.4134 0.006,0.0948 0.15387,-0.33905 0.19278,-0.56315 z m -23.99686,-0.43361 c 0,-0.0123 -0.0466,-0.0587 -0.10328,-0.10329 -0.0936,-0.0735 -0.0957,-0.0714 -0.0223,0.0223 0.0771,0.0983 0.12563,0.12965 0.12563,0.081 z m 5.22637,-0.74541 c 0.22563,-0.22737 0.39693,-0.4134 0.3807,-0.4134 -0.0162,0 -0.21414,0.18603 -0.43976,0.4134 -0.22561,0.22736 -0.39692,0.41338 -0.38068,0.41338 0.0162,0 0.21412,-0.18602 0.43974,-0.41338 z m -4.3792,-0.0912 c -0.0193,-0.0502 -0.0477,-0.0785 -0.063,-0.063 -0.0155,0.0155 -0.011,0.0564 0.011,0.0912 0.0583,0.0942 0.0922,0.0758 0.0523,-0.0282 z m 2.61366,-0.38425 c 0.13755,-0.0666 0.28545,-0.16412 0.32868,-0.21675 0.0432,-0.0527 -0.038,-0.0187 -0.18062,0.0752 -0.34819,0.22965 -0.87638,0.26391 -1.42132,0.0921 -0.20972,-0.066 -0.39175,-0.10974 -0.4045,-0.097 -0.0128,0.0129 0.14555,0.0766 0.3518,0.14194 0.50075,0.15858 1.00392,0.16021 1.32596,0.005 z m 1.33433,-2.58069 c -0.0255,-1.31896 0.0612,-2.27419 0.27629,-3.0467 0.0619,-0.2222 0.0909,-0.38164 0.0645,-0.35433 -0.0811,0.0839 -0.23858,0.77591 -0.32607,1.43294 -0.0856,0.64268 -0.11323,2.33357 -0.0472,2.88343 0.0205,0.17052 0.0415,0.31003 0.0467,0.31003 0.004,0 -9.4e-4,-0.55142 -0.0141,-1.22537 z m 6.03127,0.31003 c 0.006,-0.40255 -0.1039,-0.94668 -0.20286,-1.00785 -0.0271,-0.0166 -0.008,0.0836 0.0415,0.22299 0.0992,0.27694 0.13147,0.88506 0.0668,1.2573 -0.0351,0.20218 -0.0317,0.21494 0.0238,0.0886 0.0357,-0.0812 0.0675,-0.33367 0.0706,-0.56102 z m 0.83692,-0.0886 c -0.0532,-0.24219 -0.1009,-0.19447 -0.0517,0.0517 0.0208,0.10372 0.0501,0.17633 0.0651,0.1613 0.015,-0.015 0.009,-0.1109 -0.0134,-0.21298 z m -0.20168,-0.59672 c -0.0311,-0.0778 -0.0583,-0.11042 -0.0604,-0.0726 -0.005,0.0921 0.0638,0.26701 0.0934,0.23741 0.0129,-0.0129 -0.002,-0.0872 -0.0331,-0.16495 z m -1.36327,-1.13509 c 0,-0.011 -0.073,-0.0837 -0.1624,-0.1624 l -0.16241,-0.14318 0.14318,0.16241 c 0.13381,0.15179 0.18163,0.18948 0.18163,0.14317 z m -0.79287,-0.64842 c -0.095,-0.0713 -0.32091,-0.24758 -0.50196,-0.39181 -0.18105,-0.14423 -0.28932,-0.21266 -0.24059,-0.15206 0.0917,0.11401 0.8336,0.68008 0.88581,0.67585 0.0162,-0.002 -0.0482,-0.0607 -0.14326,-0.13198 z m -12.21006,-0.12983 c -0.0371,-0.0813 -0.0785,-0.13677 -0.0921,-0.12317 -0.0274,0.0276 0.0921,0.27105 0.13331,0.27105 0.0144,0 -0.005,-0.0666 -0.0412,-0.14788 z m -0.15909,-0.36443 c -0.0695,-0.11971 -0.0864,-0.0814 -0.0295,0.0672 0.0201,0.0527 0.0493,0.0835 0.0645,0.0684 0.0152,-0.0152 -4.7e-4,-0.0761 -0.035,-0.13543 z m -0.12069,-0.41227 c -0.0793,-0.28576 -0.0793,-0.33225 -2.2e-4,-0.28336 0.0349,0.0214 0.0284,-0.0171 -0.0145,-0.0857 -0.0442,-0.0708 -0.0878,-0.0955 -0.10055,-0.0572 -0.0285,0.0854 0.11117,0.72046 0.14983,0.6818 0.0158,-0.0158 2.2e-4,-0.13073 -0.0345,-0.25556 z m -2.70078,0.007 c -0.0193,-0.0502 -0.0477,-0.0784 -0.063,-0.0629 -0.0155,0.0155 -0.011,0.0564 0.0109,0.0912 0.0583,0.0942 0.0922,0.0759 0.0523,-0.0282 z m -0.1199,-0.57323 c -0.0184,-0.23548 -0.0515,-0.44806 -0.0733,-0.47239 -0.0394,-0.0437 -0.0294,0.16745 0.0307,0.64956 0.0506,0.40597 0.0791,0.2875 0.0426,-0.17717 z m 29.99814,0.30912 c -0.0172,-0.0656 -0.0586,-0.13601 -0.0922,-0.15676 -0.0336,-0.0208 -0.0477,-0.0137 -0.0315,0.0157 0.0162,0.0294 0.0462,0.0999 0.0664,0.15676 0.0508,0.14263 0.0956,0.1304 0.0574,-0.0157 z m -18.74865,-0.32544 c -0.0182,-0.0181 -0.0511,0.0147 -0.0734,0.0728 -0.0321,0.0842 -0.0253,0.0909 0.0331,0.0331 0.0403,-0.0401 0.0585,-0.0878 0.0403,-0.10592 z m 18.63405,-9.3e-4 c -0.0193,-0.0501 -0.0476,-0.0784 -0.0631,-0.0629 -0.0155,0.0155 -0.0106,0.0564 0.0107,0.0912 0.0582,0.0942 0.0923,0.0759 0.0524,-0.0281 z m -25.26219,-0.42556 c 0.003,-0.3421 -0.003,-0.36985 -0.0488,-0.19575 -0.0424,0.16258 -0.0187,0.59441 0.0327,0.59438 0.007,-1e-5 0.0141,-0.17939 0.0163,-0.39863 z m 6.72038,0.20332 c 0.008,-0.0486 0.0506,-0.13723 0.0966,-0.19735 0.0461,-0.0601 4.6e-4,-0.0333 -0.1011,0.0594 -0.11208,0.1023 -0.21362,0.15109 -0.25786,0.12375 -0.0484,-0.0299 -0.0579,-0.0208 -0.0284,0.027 0.0245,0.0396 0.0818,0.0579 0.12723,0.0405 0.0455,-0.0174 0.0826,-0.002 0.0826,0.0352 0,0.0915 0.0648,0.0202 0.0808,-0.0889 z m 2.47001,-0.0272 c -0.0392,-0.0129 -0.0563,-0.048 -0.0379,-0.0778 0.0183,-0.0298 0.006,-0.054 -0.0291,-0.054 -0.0724,0 -0.0755,0.0159 -0.0268,0.14246 0.0196,0.0512 0.0648,0.075 0.10044,0.053 0.0455,-0.0281 0.0435,-0.0471 -0.006,-0.0638 z m 15.91078,-0.1118 c -0.05,-0.0921 -0.0919,-0.14893 -0.0932,-0.12611 -0.005,0.0702 0.1334,0.34438 0.15949,0.3183 0.0135,-0.0135 -0.0163,-0.10001 -0.0663,-0.19219 z m -25.84348,-0.0792 c 0.0348,-0.065 0.05,-0.11811 0.0337,-0.11811 -0.0163,0 -0.0579,0.0531 -0.0928,0.11811 -0.0348,0.065 -0.0499,0.11812 -0.0337,0.11812 0.0162,0 0.0579,-0.0531 0.0928,-0.11812 z m 27.26338,-0.84152 c -0.0164,-0.0406 -0.0298,-0.008 -0.0298,0.0738 0,0.0812 0.0134,0.11441 0.0298,0.0738 0.0164,-0.0406 0.0164,-0.10701 0,-0.14763 z m -0.21326,-0.79077 c -0.103,-0.34922 -0.21379,-0.67624 -0.24621,-0.72672 -0.0488,-0.0761 -0.0544,-0.0766 -0.0321,-0.003 0.0147,0.0487 0.11443,0.38686 0.22152,0.75141 0.10709,0.36453 0.20581,0.65169 0.21939,0.63812 0.0135,-0.0136 -0.0596,-0.31042 -0.16259,-0.65962 z m -1.00825,0.005 c -0.27537,-0.27843 -0.60696,-0.59055 -0.73688,-0.69355 -0.12992,-0.10296 0.0827,0.1238 0.47244,0.50397 0.38976,0.3802 0.72136,0.69228 0.73689,0.69356 0.0156,0.002 -0.19709,-0.22552 -0.47245,-0.50398 z m -31.21834,0.0607 c -0.0193,-0.0502 -0.0477,-0.0785 -0.063,-0.0629 -0.0155,0.0155 -0.0109,0.0564 0.011,0.0912 0.0583,0.0942 0.0922,0.0759 0.0523,-0.0281 z m -0.0962,-0.60295 c -0.0136,-0.0894 -0.0245,-0.0162 -0.0245,0.1624 0,0.17865 0.0112,0.25172 0.0245,0.16239 0.0136,-0.0894 0.0136,-0.23546 0,-0.32479 z m 31.97276,-0.44388 c -0.0583,-0.0579 -0.0651,-0.0512 -0.0331,0.033 0.0221,0.0581 0.0551,0.091 0.0734,0.0728 0.0182,-0.0182 4e-5,-0.0658 -0.0403,-0.10592 z m -0.13717,-0.39904 c -0.0678,-0.16317 -0.13344,-0.28651 -0.14584,-0.27409 -0.0277,0.0278 0.20132,0.57075 0.24078,0.57075 0.0156,0 -0.0271,-0.13348 -0.0949,-0.29666 z m -0.21717,-0.48679 c -0.0583,-0.0579 -0.0651,-0.0512 -0.0331,0.033 0.0222,0.0581 0.0553,0.091 0.0734,0.0728 0.0182,-0.0182 4e-5,-0.0658 -0.0403,-0.10591 z m -0.17727,-0.37843 c -0.0696,-0.11974 -0.0864,-0.0814 -0.0295,0.0672 0.0202,0.0527 0.0493,0.0835 0.0644,0.0684 0.0152,-0.0152 -4.7e-4,-0.0761 -0.035,-0.1354 z m -0.24344,-0.49164 c -0.0348,-0.065 -0.0765,-0.11811 -0.0927,-0.11811 -0.0162,0 -9.2e-4,0.0533 0.0337,0.11811 0.0348,0.065 0.0765,0.1181 0.0927,0.1181 0.0162,0 9.3e-4,-0.0533 -0.0336,-0.1181 z m -21.36308,-0.33901 c -0.203,-0.0116 -0.53519,-0.0116 -0.73819,0 -0.20299,0.0115 -0.037,0.0209 0.36909,0.0209 0.406,0 0.57209,-0.01 0.3691,-0.0209 z m -1.96862,-0.3106 c -0.002,-0.0584 -0.0206,-0.0484 -0.054,0.0295 -0.0698,0.16235 -0.0698,0.25559 0,0.14764 0.0316,-0.0486 0.0558,-0.12845 0.054,-0.17717 z m 2.47078,0.059 0.0881,-0.14764 -0.12405,0.14764 c -0.15949,0.18982 -0.16078,0.12359 -0.003,-0.14418 0.0681,-0.11549 0.14756,-0.19535 0.17649,-0.17748 0.0289,0.0179 0.035,-0.013 0.0137,-0.0689 -0.0262,-0.0684 -0.0165,-0.0877 0.0296,-0.059 0.0461,0.0285 0.0557,0.008 0.0295,-0.059 -0.0214,-0.056 -0.0146,-0.0864 0.0155,-0.0679 0.0298,0.0184 0.0572,-0.0456 0.0608,-0.14228 0.008,-0.18829 0.0275,-0.18473 -0.41989,-0.0728 -0.0909,0.0227 -0.0978,0.0172 -0.0295,-0.0247 0.0487,-0.03 0.22954,-0.0872 0.40181,-0.12758 0.17228,-0.0402 0.30145,-0.0851 0.28705,-0.0995 -0.0509,-0.0509 -0.77238,0.16828 -1.09752,0.33336 -0.18123,0.092 -0.43582,0.26509 -0.56574,0.38455 l -0.23622,0.21722 0.26574,-0.20447 c 0.27981,-0.2153 0.76267,-0.47967 0.80279,-0.43955 0.013,0.0129 -0.10744,0.085 -0.26755,0.16002 -0.16015,0.075 -0.39026,0.23787 -0.51138,0.36189 -0.12112,0.12404 -0.24064,0.2129 -0.26559,0.19747 -0.0249,-0.0155 -0.0646,0.003 -0.0881,0.0412 -0.0287,0.0464 -0.017,0.0533 0.0355,0.0208 0.0574,-0.0355 0.0678,-0.0212 0.039,0.054 -0.036,0.0939 0.0145,0.10078 0.61775,0.0835 0.62872,-0.018 0.66083,-0.0251 0.74514,-0.16645 z m 20.56565,0.059 c -0.0348,-0.065 -0.0765,-0.11811 -0.0927,-0.11811 -0.0162,0 -9.2e-4,0.0533 0.0336,0.11811 0.0348,0.065 0.0765,0.11811 0.0927,0.11811 0.0162,0 9.3e-4,-0.0532 -0.0336,-0.11811 z m -22.91745,-0.42679 c 0.0365,-0.10483 0.042,-0.16463 0.0124,-0.13288 -0.0629,0.0673 -0.14737,0.32346 -0.10657,0.32346 0.0154,0 0.0576,-0.0858 0.0942,-0.19058 z m 1.12621,-1.61061 c 0.20925,-0.21111 0.36716,-0.38385 0.35091,-0.38385 -0.0162,0 -0.20072,0.17274 -0.40996,0.38385 -0.20925,0.21113 -0.36716,0.38386 -0.35091,0.38386 0.0163,0 0.20072,-0.17273 0.40996,-0.38386 z m 20.31488,0.059 c -0.14345,-0.14615 -0.2741,-0.26574 -0.29034,-0.26574 -0.0162,0 0.0879,0.11959 0.23127,0.26574 0.14345,0.14617 0.2741,0.26576 0.29034,0.26576 0.0162,0 -0.0879,-0.11959 -0.23127,-0.26576 z m -0.35436,-0.28299 c 0,-0.01 -0.11294,-0.12259 -0.25098,-0.25099 l -0.25099,-0.23345 0.23345,0.251 c 0.21709,0.23342 0.26852,0.27812 0.26852,0.23344 z m -19.07471,-0.55738 c 0,-0.0417 -0.3323,0.21135 -0.41863,0.31882 -0.0459,0.0571 0.0296,0.0141 0.16765,-0.0957 0.13805,-0.10971 0.25098,-0.2101 0.25098,-0.22313 z m 18.47866,0.008 c -0.15768,-0.18998 -2.16475,-1.64627 -2.59291,-1.88134 -0.22245,-0.12214 0.0829,0.10482 0.73818,0.54879 0.38977,0.26403 0.97441,0.69094 1.29922,0.9487 0.62665,0.4973 0.68057,0.53454 0.55551,0.38385 z m -7.41482,-4.05384 c -0.0179,-0.3375 -0.01,-0.39731 0.0397,-0.28363 0.0343,0.0793 0.0459,0.21876 0.0259,0.31004 -0.02,0.0913 -0.0232,0.16597 -0.007,0.16597 0.0588,0 0.21245,-0.81302 0.27351,-1.44727 0.0615,-0.63921 0.021,-1.75831 -0.0559,-1.53937 -0.0215,0.0612 -0.0189,0.23346 0.006,0.38267 0.0247,0.1492 0.0424,0.37761 0.0394,0.50752 -0.005,0.18239 -0.0102,0.19585 -0.0268,0.059 -0.0568,-0.4679 -0.0837,-0.54987 -0.17577,-0.53636 -0.0515,0.008 -0.11889,0.0649 -0.14983,0.12741 -0.0548,0.11061 -0.0538,0.11059 0.0362,-9.2e-4 0.0509,-0.0629 0.0924,-0.0859 0.0924,-0.0508 0,0.035 -0.0552,0.12654 -0.12262,0.20321 -0.0674,0.0766 -0.10572,0.10625 -0.0851,0.0657 0.0538,-0.10582 -1.1e-4,-0.0911 -0.0951,0.0262 -0.0688,0.0848 -0.0687,0.0926 4.2e-4,0.0509 0.0563,-0.0341 0.073,-0.0237 0.0541,0.0329 -0.015,0.0452 -0.0562,0.0821 -0.0913,0.0821 -0.0352,0 -0.0861,0.0242 -0.11318,0.0538 -0.0286,0.0313 -0.0184,0.0359 0.0247,0.0113 0.11003,-0.0633 0.0892,0.0556 -0.0261,0.1492 -0.0679,0.0551 -0.0857,0.0573 -0.0556,0.008 0.0646,-0.10756 0.006,-0.0902 -0.0882,0.0262 -0.0551,0.0679 -0.0574,0.0858 -0.007,0.0556 0.11036,-0.0663 0.0891,0.0539 -0.0261,0.14731 -0.0679,0.0551 -0.0857,0.0573 -0.0556,0.008 0.0707,-0.11767 0.006,-0.0857 -0.11587,0.058 -0.0916,0.10735 -0.0933,0.11697 -0.009,0.0519 0.14926,-0.11559 0.12741,0.0131 -0.0249,0.14672 -0.0705,0.062 -0.10884,0.0793 -0.0851,0.0387 0.0684,-0.11702 0.006,-0.0859 -0.11706,0.058 -0.0916,0.10734 -0.0933,0.11699 -0.009,0.0519 0.16672,-0.12912 0.11845,0.0184 -0.0573,0.17511 -0.0883,0.0787 -0.12494,0.0967 -0.0814,0.0398 0.1128,-0.14705 0.0459,-0.1282 -0.0884,0.0249 -0.0618,0.0706 -0.0793,0.10888 -0.0386,0.0851 0.1357,-0.0793 0.0758,0.0595 -0.0882,0.2045 -0.14588,0.12894 -0.15084,0.12997 -0.0499,0.01 0.17082,-0.20253 0.0801,-0.15835 -0.11663,0.0569 -0.0954,0.10428 -0.12694,0.15421 -0.0701,0.11088 0.0568,-0.0433 0.10336,-0.0521 0.10336,-0.0197 0,0.0728 -0.14791,0.20119 -0.18691,0.1622 -0.0157,-0.0157 -0.10619,0.0566 -0.20125,0.16064 -0.0951,0.10395 -0.12947,0.15618 -0.0764,0.116 0.078,-0.0591 0.1027,-0.0569 0.12913,0.0121 0.0223,0.0583 -0.0429,0.11544 -0.20716,0.18113 -0.13192,0.0528 -0.22416,0.11168 -0.20498,0.13085 0.0717,0.0716 0.93631,-0.48631 1.32197,-0.85311 0.22001,-0.20927 0.35351,-0.34779 0.29667,-0.30783 -0.0568,0.04 -0.10334,0.0469 -0.10334,0.0155 0,-0.0756 0.20753,-0.26161 0.24736,-0.22177 0.0171,0.0171 0.0681,-0.0146 0.11331,-0.0703 0.069,-0.085 0.0691,-0.0934 5.5e-4,-0.0522 -0.0563,0.0341 -0.073,0.0237 -0.0541,-0.0329 0.015,-0.0452 0.0562,-0.0821 0.0913,-0.0821 0.0352,0 0.0861,-0.0242 0.11319,-0.0538 0.0286,-0.0313 0.0184,-0.0359 -0.0246,-0.0113 -0.0406,0.0233 -0.0738,0.0144 -0.0738,-0.0201 0,-0.0344 0.0572,-0.0625 0.12712,-0.0625 0.12486,0 0.12643,0.0119 0.089,0.66825 -0.0211,0.36755 -0.0535,0.79938 -0.0722,0.95965 -0.0303,0.25941 -0.0247,0.27998 0.0508,0.18757 0.0617,-0.0756 0.0787,-0.22008 0.0622,-0.53148 z m -0.075,0.3351 c 0.003,-0.0688 0.0168,-0.0829 0.0357,-0.0357 0.0171,0.0426 0.0149,0.0935 -0.005,0.11319 -0.0196,0.0196 -0.0336,-0.0154 -0.031,-0.0776 z m -1.65818,-0.16695 c 0,-0.0176 0.0757,-0.0709 0.16837,-0.11886 0.0926,-0.0479 0.33842,-0.22376 0.54625,-0.39081 l 0.37789,-0.30377 -0.3224,0.2968 c -0.29749,0.27386 -0.77011,0.59092 -0.77011,0.51664 z m -0.0591,-0.11618 c 0,-0.0123 0.0465,-0.0588 0.10335,-0.10328 0.0937,-0.0735 0.0957,-0.0714 0.0223,0.0223 -0.0771,0.0984 -0.12564,0.12967 -0.12564,0.081 z m 1.87259,-0.39109 c -0.0222,-0.0812 -0.0361,-0.32037 -0.0309,-0.53149 l 0.009,-0.38385 0.0354,0.38385 0.0354,0.38386 0.0461,-0.47243 c 0.0684,-0.70186 0.0964,-0.77802 0.065,-0.17717 -0.0153,0.29233 -0.0486,0.6245 -0.074,0.73818 -0.0441,0.19741 -0.048,0.20006 -0.0865,0.059 z m 2.087,-2.65174 c -0.16749,-0.32831 -0.21101,-0.30876 -0.05,0.0226 0.0706,0.14546 0.13861,0.25435 0.15099,0.24195 0.0124,-0.0124 -0.0331,-0.13138 -0.10092,-0.26444 z m -1.50881,-1.36398 c 0.0503,-0.0975 0.0783,-0.17716 0.0621,-0.17716 -0.0162,0 -0.0707,0.0797 -0.12114,0.17716 -0.0503,0.0975 -0.0783,0.17717 -0.0621,0.17717 0.0162,0 0.0707,-0.0797 0.12114,-0.17717 z m -11.309,35.55215 c -0.79924,-0.10099 -1.38548,-0.19785 -1.32403,-0.21879 0.0351,-0.012 0.32741,0.0214 0.64961,0.0738 0.91434,0.14906 3.26888,0.18103 4.32794,0.0588 0.93951,-0.10855 1.19082,-0.0915 0.37872,0.0255 -0.60881,0.0878 -3.47638,0.13094 -4.03224,0.0607 z m -0.0142,-0.12426 c -2.91501,-0.30837 -5.7988,-1.41165 -8.15425,-3.11966 -0.31892,-0.23123 -0.56325,-0.3936 -0.54298,-0.36081 0.0657,0.10636 1.16536,0.86672 1.80193,1.24603 0.34105,0.20321 0.96556,0.53656 1.38781,0.74079 0.42222,0.20423 0.74511,0.37252 0.71747,0.37397 -0.10208,0.006 -1.50487,-0.69814 -2.10528,-1.05579 -0.71683,-0.42703 -1.59863,-1.04645 -2.20492,-1.54887 -0.50558,-0.41896 -2.10608,-1.9964 -2.10608,-2.07573 0,-0.0308 0.0466,-0.0201 0.10341,0.0234 0.0569,0.0436 0.0388,0.008 -0.0398,-0.0813 -0.15923,-0.17863 -0.24045,-0.21844 -0.11684,-0.0572 0.0435,0.0569 0.008,0.0389 -0.0814,-0.0398 -0.16309,-0.14538 -0.22165,-0.28335 -0.0867,-0.20451 0.0406,0.0237 0.0231,-0.0145 -0.0387,-0.0851 -0.13425,-0.15304 -0.20176,-0.17223 -0.0878,-0.0249 0.0652,0.0842 0.0556,0.0824 -0.0518,-0.008 -0.13961,-0.11914 -0.18305,-0.25004 -0.058,-0.17495 0.0502,0.0301 0.0479,0.0124 -0.008,-0.0556 -0.0945,-0.11652 -0.15215,-0.13334 -0.0895,-0.0262 0.0237,0.0406 -0.0145,0.0232 -0.0851,-0.0387 -0.15225,-0.13355 -0.17435,-0.26293 -0.0249,-0.14572 0.0932,0.0731 0.0956,0.0712 0.0237,-0.0203 -0.0436,-0.0558 -0.10679,-0.0957 -0.14026,-0.0886 -0.0334,0.008 -0.0742,-0.024 -0.0906,-0.0692 -0.0207,-0.057 -0.005,-0.0672 0.0516,-0.0329 0.0692,0.0417 0.0693,0.0341 4.6e-4,-0.0509 -0.0944,-0.11639 -0.15291,-0.13368 -0.0883,-0.0262 0.0302,0.0502 0.0124,0.0479 -0.0555,-0.008 -0.11531,-0.0935 -0.13613,-0.2125 -0.0262,-0.14918 0.0429,0.0247 0.0532,0.0199 0.0245,-0.0113 -0.027,-0.0296 -0.078,-0.0538 -0.11319,-0.0538 -0.0352,0 -0.0762,-0.037 -0.0913,-0.0821 -0.0187,-0.056 -0.002,-0.0672 0.0541,-0.0349 0.0481,0.0279 0.0612,0.0251 0.0322,-0.007 -0.027,-0.0297 -0.0779,-0.0537 -0.11319,-0.0537 -0.0352,0 -0.0763,-0.037 -0.0913,-0.0821 -0.0187,-0.0561 -0.002,-0.0672 0.0541,-0.0349 0.0481,0.028 0.0613,0.0251 0.0322,-0.007 -0.027,-0.0296 -0.078,-0.0538 -0.11319,-0.0538 -0.0352,0 -0.0762,-0.037 -0.0914,-0.0821 -0.0183,-0.0547 -0.002,-0.0665 0.0486,-0.0352 0.0501,0.031 0.0613,0.0233 0.0332,-0.0222 -0.0235,-0.038 -0.0662,-0.0546 -0.0948,-0.037 -0.0674,0.0417 -0.19286,-0.19147 -0.14486,-0.26913 0.0201,-0.0327 0.005,-0.052 -0.0342,-0.043 -0.039,0.008 -0.0843,-0.0207 -0.10065,-0.0658 -0.0205,-0.0564 -0.005,-0.0673 0.0517,-0.0349 0.0481,0.028 0.0613,0.0251 0.0323,-0.007 -0.0271,-0.0296 -0.0769,-0.0538 -0.11062,-0.0538 -0.15527,0 -1.119,-2.02382 -1.52652,-3.2057 -0.35545,-1.03085 -0.77264,-2.81514 -0.75967,-3.24905 0.003,-0.0877 0.0562,0.1326 0.11895,0.48949 0.13727,0.78032 0.40935,1.93811 0.44667,1.90079 0.0147,-0.0148 -0.0147,-0.18682 -0.0655,-0.38241 -0.3673,-1.41744 -0.50501,-2.58016 -0.50501,-4.26371 0,-1.68355 0.13771,-2.84626 0.50501,-4.26373 0.0507,-0.19559 0.08,-0.36767 0.0655,-0.3824 -0.0372,-0.0372 -0.3094,1.12047 -0.44667,1.90079 -0.0628,0.35689 -0.11632,0.57717 -0.11895,0.48949 -0.0129,-0.43389 0.40422,-2.21819 0.75967,-3.24906 0.40752,-1.18187 1.37125,-3.20569 1.52652,-3.20569 0.0337,0 0.0836,-0.0242 0.11062,-0.0538 0.0291,-0.0316 0.0159,-0.0344 -0.0323,-0.007 -0.0561,0.0324 -0.0722,0.0215 -0.0517,-0.0349 0.0164,-0.0451 0.0617,-0.0747 0.10065,-0.0658 0.039,0.008 0.0543,-0.011 0.0342,-0.043 -0.048,-0.0777 0.0774,-0.31077 0.14486,-0.26912 0.0287,0.0177 0.0713,9.3e-4 0.0948,-0.037 0.0283,-0.0457 0.017,-0.0533 -0.0332,-0.0222 -0.0505,0.0314 -0.0668,0.0196 -0.0486,-0.0352 0.015,-0.0451 0.0562,-0.0821 0.0914,-0.0821 0.0352,0 0.0862,-0.0242 0.11319,-0.0538 0.0291,-0.0318 0.0159,-0.0344 -0.0322,-0.007 -0.0557,0.0322 -0.0728,0.0214 -0.0541,-0.0349 0.015,-0.0451 0.0562,-0.0821 0.0913,-0.0821 0.0352,0 0.0861,-0.0242 0.11319,-0.0537 0.0291,-0.0316 0.0159,-0.0344 -0.0322,-0.007 -0.0557,0.0322 -0.0728,0.0212 -0.0541,-0.0349 0.015,-0.0452 0.0562,-0.0821 0.0913,-0.0821 0.0352,0 0.0862,-0.0242 0.11319,-0.0538 0.0286,-0.0313 0.0183,-0.0359 -0.0245,-0.0113 -0.11003,0.0634 -0.0892,-0.0556 0.0262,-0.14918 0.0862,-0.0699 0.0928,-0.0689 0.0478,0.008 -0.045,0.0763 -0.0384,0.0774 0.0478,0.008 0.10823,-0.0878 0.13698,-0.15551 0.0408,-0.0962 -0.0998,0.0616 -0.0655,-0.0691 0.0408,-0.15518 0.0862,-0.0699 0.0928,-0.0689 0.0478,0.008 -0.045,0.0763 -0.0385,0.0774 0.0478,0.008 0.10811,-0.0878 0.13698,-0.15551 0.0408,-0.0962 -0.0998,0.0616 -0.0655,-0.0691 0.0408,-0.15519 0.0863,-0.0699 0.0928,-0.0689 0.0478,0.008 -0.045,0.0763 -0.0385,0.0774 0.0478,0.008 0.10821,-0.0878 0.13699,-0.15551 0.0408,-0.0961 -0.11417,0.0706 -0.0574,-0.0715 0.0727,-0.18276 0.13053,-0.11137 0.13098,-0.11132 0.0453,0.006 -0.0857,0.11693 -0.0852,0.11699 0.0453,0.006 0.13509,-0.11526 0.17852,-0.18905 0.0727,-0.1237 -0.12448,0.0769 -0.0516,-0.0747 0.10154,-0.21119 0.12055,-0.10744 0.13941,-0.11369 0.0757,-0.0249 -0.0637,0.0886 -0.045,0.0824 0.0757,-0.025 0.16704,-0.14891 0.2273,-0.25145 0.0721,-0.12258 -0.0486,0.0405 -0.0886,0.0495 -0.0886,0.02 0,-0.0774 1.60838,-1.66394 2.10606,-2.07728 0.90148,-0.74873 2.18294,-1.58921 3.21995,-2.11193 0.53535,-0.26982 1.35713,-0.62404 1.38443,-0.59671 0.0112,0.0112 -0.265,0.14432 -0.61376,0.29586 -1.09617,0.4763 -2.8179,1.50121 -3.43922,2.04726 -0.11368,0.0999 0.059,-0.008 0.38387,-0.23938 2.41201,-1.7197 5.09577,-2.75118 8.06061,-3.098 0.961,-0.11241 2.83255,-0.11086 3.80734,0.003 1.48017,0.17314 2.93051,0.53628 4.28354,1.07254 0.37352,0.14806 0.70696,0.28598 0.74097,0.30652 0.034,0.0206 0.0111,-0.008 -0.0509,-0.0659 -0.062,-0.0569 -0.0872,-0.1034 -0.0562,-0.1034 0.031,0 0.10563,0.0544 0.16575,0.12079 0.10782,0.11914 0.10368,0.12641 -0.30372,0.53381 l -0.41302,0.41302 -0.53066,-0.20493 c -1.5519,-0.59934 -3.207,-0.94905 -5.01485,-1.05957 -0.26993,-0.0165 -0.26339,-0.0191 0.0762,-0.0287 1.18302,-0.0339 3.36141,0.42007 4.93864,1.0292 l 0.5306,0.20491 0.35721,-0.37076 0.35721,-0.37074 -0.35804,0.34091 -0.35803,0.3409 -0.52978,-0.20458 c -1.20133,-0.46397 -2.42696,-0.77211 -3.80333,-0.95622 -0.88811,-0.11878 -2.81442,-0.1345 -3.72045,-0.0304 -1.88521,0.21672 -3.79436,0.78738 -5.46259,1.63277 -0.73096,0.37042 -1.6757,0.93429 -1.92503,1.14897 -0.078,0.0672 0.0841,-0.0215 0.36007,-0.19724 0.2761,-0.17567 0.74636,-0.45651 1.04503,-0.6241 0.56845,-0.31894 1.72863,-0.85386 1.76753,-0.81495 0.0124,0.0124 -0.24641,0.13883 -0.57519,0.28088 -0.73479,0.31745 -1.84636,0.94476 -2.58448,1.45859 -0.56643,0.39429 -1.48296,1.13648 -1.68466,1.36423 -0.13432,0.15164 -0.26029,0.17165 -0.14915,0.0236 0.0426,-0.0569 -0.11352,0.082 -0.34711,0.30846 -0.23358,0.22649 -0.4247,0.42497 -0.4247,0.44105 0,0.0162 0.16454,-0.12935 0.36563,-0.32321 0.31685,-0.30544 0.30008,-0.27943 -0.12546,0.19485 -0.27012,0.30101 -0.52101,0.56424 -0.55757,0.58492 -0.0365,0.0207 0.0131,-0.0529 0.11059,-0.16348 l 0.17704,-0.20105 -0.22134,0.20351 c -0.21563,0.19829 -0.28165,0.28365 -0.16227,0.20986 0.12446,-0.0769 0.0515,0.0747 -0.10153,0.21116 -0.11972,0.1067 -0.13878,0.11311 -0.0748,0.025 0.0849,-0.11691 0.0844,-0.11696 -0.0462,-0.006 -0.13508,0.11524 -0.17851,0.18905 -0.0727,0.12371 0.0998,-0.0616 0.0655,0.0691 -0.0408,0.15518 -0.0863,0.0699 -0.0929,0.0689 -0.049,-0.008 0.0319,-0.0553 0.003,-0.0465 -0.0772,0.0238 -0.14328,0.12567 -0.17857,0.20946 -0.0397,0.0942 0.14032,-0.11646 0.10284,0.0282 -0.0397,0.15325 -0.0801,0.0704 -0.10909,0.0794 -0.0772,0.0239 0.0439,-0.0763 0.0372,-0.0774 -0.049,-0.008 -0.11243,0.0913 -0.13545,0.15458 -0.0332,0.0914 0.0405,-0.025 0.0559,-0.008 0.0394,0.0408 -0.015,0.0452 -0.0562,0.0821 -0.0912,0.0821 -0.0352,0 -0.0862,0.0242 -0.1132,0.0538 -0.0286,0.0313 -0.0183,0.0359 0.0245,0.0113 0.11002,-0.0634 0.0892,0.0556 -0.0262,0.14918 -0.0862,0.0699 -0.0928,0.0689 -0.0478,-0.008 0.045,-0.0763 0.0384,-0.0774 -0.0478,-0.008 -0.11242,0.0913 -0.13544,0.15459 -0.0332,0.0914 0.0405,-0.0249 0.0559,-0.008 0.0394,0.0408 -0.015,0.0451 -0.0562,0.0821 -0.0913,0.0821 -0.0352,0 -0.0862,0.0242 -0.11321,0.0538 -0.0291,0.0318 -0.0159,0.0344 0.0322,0.007 0.0557,-0.0322 0.0728,-0.0213 0.0541,0.0349 -0.015,0.0451 -0.0562,0.0821 -0.0912,0.0821 -0.0352,0 -0.0861,0.0242 -0.11319,0.0538 -0.0291,0.0316 -0.0159,0.0344 0.0322,0.007 0.0557,-0.0322 0.0728,-0.0214 0.0541,0.0349 -0.015,0.0451 -0.0562,0.0821 -0.0913,0.0821 -0.0352,0 -0.0862,0.0242 -0.1132,0.0538 -0.0287,0.0313 -0.0184,0.0359 0.0245,0.0113 0.09,-0.0519 0.0937,-0.006 0.0117,0.1472 -0.0341,0.0638 -0.0855,0.10143 -0.11401,0.0837 -0.0287,-0.0178 -0.0713,-9.3e-4 -0.0948,0.037 -0.0281,0.0456 -0.017,0.0532 0.0331,0.0222 0.0509,-0.0315 0.0661,-0.0198 0.0461,0.0352 -0.0164,0.045 -0.0616,0.0747 -0.10065,0.0659 -0.039,-0.008 -0.055,0.01 -0.0356,0.0407 0.0194,0.0314 -0.1356,0.38409 -0.34438,0.78394 -0.87319,1.67238 -1.49617,3.70777 -1.6866,5.51042 -0.0343,0.3248 -0.0726,0.68357 -0.085,0.79725 -0.0124,0.11368 -0.0125,-0.0494 -1.2e-4,-0.3624 0.0124,-0.31299 0.076,-0.88186 0.14135,-1.26418 0.0654,-0.38229 0.10832,-0.70561 0.0954,-0.71849 -0.0305,-0.0305 -0.19141,0.86367 -0.28388,1.57735 -0.0937,0.72359 -0.0937,2.9378 0,3.66139 0.0926,0.7137 0.25338,1.60785 0.28388,1.57735 0.0129,-0.0129 -0.03,-0.33618 -0.0954,-0.7185 -0.0655,-0.38229 -0.12895,-0.95117 -0.14135,-1.26418 -0.0124,-0.31298 -0.0124,-0.47605 1.2e-4,-0.36238 0.0124,0.11369 0.0507,0.47245 0.085,0.79725 0.18648,1.76671 0.8166,3.84157 1.65595,5.4527 0.37171,0.7135 0.38614,0.74865 0.28049,0.68336 -0.0426,-0.0263 -0.0521,-0.0162 -0.0255,0.0269 0.0235,0.0381 0.0661,0.0546 0.0948,0.037 0.0287,-0.0178 0.0798,0.02 0.11403,0.0837 0.0807,0.15066 0.0786,0.19992 -0.007,0.14754 -0.0426,-0.0263 -0.0521,-0.0161 -0.0255,0.0269 0.0235,0.038 0.066,0.0547 0.0948,0.037 0.0287,-0.0178 0.0799,0.02 0.11403,0.0837 0.0819,0.15318 0.0783,0.19902 -0.0119,0.14719 -0.0429,-0.0246 -0.0532,-0.0199 -0.0245,0.0113 0.027,0.0296 0.0779,0.0538 0.11318,0.0538 0.0352,0 0.0762,0.037 0.0914,0.0821 0.0187,0.0561 0.002,0.0672 -0.0541,0.0349 -0.0481,-0.028 -0.0613,-0.0251 -0.0322,0.007 0.027,0.0295 0.078,0.0537 0.11319,0.0537 0.0352,0 0.0762,0.037 0.0914,0.0821 0.0187,0.056 0.002,0.0672 -0.0541,0.0349 -0.0481,-0.0279 -0.0613,-0.0251 -0.0322,0.007 0.027,0.0296 0.0779,0.0538 0.11318,0.0538 0.0352,0 0.0762,0.037 0.0913,0.0821 0.019,0.0567 0.002,0.067 -0.0541,0.0329 -0.0691,-0.0417 -0.0693,-0.0339 -4.5e-4,0.0508 0.0944,0.11637 0.1529,0.13367 0.0883,0.0262 -0.0302,-0.0502 -0.0124,-0.0479 0.0555,0.008 0.11532,0.0935 0.13613,0.21251 0.0262,0.14919 -0.0429,-0.0246 -0.0533,-0.0199 -0.0245,0.0113 0.027,0.0296 0.0779,0.0538 0.11319,0.0538 0.0352,0 0.0762,0.037 0.0913,0.0821 0.0189,0.0568 0.002,0.067 -0.0541,0.0329 -0.0691,-0.0417 -0.0692,-0.0341 -4.3e-4,0.0509 0.0945,0.11652 0.15216,0.13335 0.0895,0.026 -0.0237,-0.0406 0.0145,-0.0232 0.0851,0.0387 0.15232,0.13361 0.17419,0.26233 0.0249,0.14673 -0.0842,-0.0652 -0.0824,-0.0556 0.008,0.0519 0.12256,0.14364 0.18656,0.1757 0.11587,0.058 -0.0302,-0.0502 -0.0124,-0.0479 0.0556,0.008 0.11526,0.0935 0.13626,0.21292 0.0262,0.14852 -0.0406,-0.0237 -0.0232,0.0145 0.0387,0.0851 0.13431,0.15314 0.20126,0.17198 0.0884,0.0249 -0.0436,-0.0569 -0.008,-0.0388 0.0814,0.0398 0.16348,0.14575 0.22092,0.28187 0.0867,0.20578 -0.0406,-0.023 0.0178,0.0552 0.1297,0.17368 0.25207,0.26701 0.32581,0.28678 0.0881,0.0236 -0.0954,-0.10559 0.13221,0.1143 0.50568,0.48857 1.12132,1.12375 2.22617,1.98487 3.41033,2.65798 0.30043,0.17078 0.54626,0.32238 0.54626,0.3369 0,0.0244 -0.56556,-0.27487 -0.93243,-0.49357 l -0.1601,-0.0954 0.13728,0.11392 c 0.0756,0.0627 0.43425,0.27588 0.79724,0.47383 2.59495,1.41509 5.6718,2.10141 8.56361,1.91023 0.52502,-0.0348 1.10445,-0.0878 1.28762,-0.1178 0.27253,-0.0449 0.46024,-0.0288 1.03345,0.0877 0.38524,0.0783 0.93961,0.1583 1.23193,0.17781 0.29232,0.0196 0.57137,0.0487 0.62009,0.065 0.22314,0.0744 -1.9904,0.56119 -3.1886,0.70136 -0.79485,0.093 -2.88756,0.10569 -3.67589,0.0222 z m -6.84117,-3.4447 c -0.087,-0.0866 -1.11754,-0.79169 -1.08837,-0.74449 0.0384,0.0623 1.03442,0.76901 1.08374,0.76901 0.0162,0 0.0181,-0.0111 0.005,-0.0244 z m -2.26866,-0.40341 c -0.19487,-0.16813 -0.6998,-0.63852 -1.12205,-1.04528 -0.60549,-0.5833 -0.65541,-0.62295 -0.23621,-0.18764 0.50172,0.52099 1.61894,1.54333 1.68306,1.54012 0.0163,-9.2e-4 -0.12992,-0.13906 -0.3248,-0.3072 z m 1.09253,-0.42111 c 0,-0.0124 -0.12625,-0.12079 -0.28053,-0.24103 l -0.28051,-0.21861 0.26576,0.24087 c 0.2631,0.23848 0.29528,0.26229 0.29528,0.21877 z m -0.59056,-0.46798 c 0,-0.01 -0.0997,-0.10954 -0.22146,-0.22145 l -0.22145,-0.20352 0.20351,0.22147 c 0.18943,0.20612 0.2394,0.2486 0.2394,0.2035 z m -0.53149,-0.47083 c 0,-0.008 -0.19266,-0.20165 -0.42815,-0.42815 l -0.42816,-0.41182 0.4118,0.42817 c 0.38249,0.39766 0.44451,0.45511 0.44451,0.4118 z m -3.89762,-3.34978 c -0.0348,-0.065 -0.0764,-0.11811 -0.0928,-0.11811 -0.0163,0 -9.3e-4,0.0533 0.0337,0.11811 0.0348,0.065 0.0764,0.1181 0.0928,0.1181 0.0163,0 9.3e-4,-0.0533 -0.0337,-0.1181 z m 0.67912,-0.88582 c -0.0504,-0.0975 -0.10492,-0.17717 -0.12113,-0.17717 -0.0163,0 0.0117,0.0798 0.0621,0.17717 0.0504,0.0975 0.10494,0.17716 0.12115,0.17716 0.0163,0 -0.0117,-0.0797 -0.0621,-0.17716 z m -0.37664,-0.74852 c -0.0697,-0.11972 -0.0864,-0.0814 -0.0295,0.0672 0.0202,0.0527 0.0492,0.0835 0.0644,0.0684 0.0152,-0.0152 -4.4e-4,-0.0762 -0.035,-0.13541 z m -1.1811,-0.1181 c -0.0697,-0.11973 -0.0865,-0.0814 -0.0295,0.0672 0.0202,0.0527 0.0492,0.0835 0.0644,0.0684 0.0152,-0.0152 -4.4e-4,-0.0761 -0.0351,-0.1354 z m -0.17896,-0.43874 c -0.0633,-0.14278 -0.11706,-0.2402 -0.11936,-0.2165 -0.007,0.0699 0.18563,0.52498 0.21116,0.49945 0.0129,-0.0129 -0.0285,-0.14018 -0.0917,-0.28295 z m 1.12384,0.0252 c -0.0697,-0.11971 -0.0865,-0.0813 -0.0295,0.0672 0.0202,0.0527 0.0492,0.0835 0.0644,0.0684 0.0152,-0.0152 -4.5e-4,-0.0761 -0.0351,-0.13542 z m -0.11799,-0.27116 c -0.0583,-0.0579 -0.0651,-0.051 -0.0331,0.0331 0.0221,0.0581 0.0552,0.091 0.0734,0.0728 0.0181,-0.0181 3e-5,-0.0658 -0.0403,-0.10592 z m -1.1811,-0.17715 c -0.0583,-0.0579 -0.0651,-0.0512 -0.0331,0.0331 0.0221,0.0581 0.0552,0.091 0.0734,0.0728 0.0181,-0.0181 3e-5,-0.0658 -0.0403,-0.10591 z m 1.10224,-0.0877 c -0.0962,-0.22638 -0.18638,-0.31826 -0.10756,-0.1096 0.0739,0.19585 0.11645,0.272 0.15179,0.272 0.0136,0 -0.007,-0.073 -0.0443,-0.1624 z m -1.15175,-0.13381 c -0.0171,-0.0656 -0.0586,-0.13599 -0.0921,-0.15675 -0.0335,-0.0208 -0.0478,-0.0137 -0.0316,0.0157 0.0163,0.0294 0.0462,0.0999 0.0664,0.15677 0.0507,0.14262 0.0955,0.13037 0.0573,-0.0157 z m 0.94611,-0.45675 c -0.0511,-0.15428 -0.11698,-0.30683 -0.14646,-0.339 -0.0448,-0.0488 0.007,0.13025 0.15701,0.54569 0.0147,0.0406 0.0392,0.0738 0.0545,0.0738 0.0154,0 -0.0141,-0.12622 -0.0651,-0.28051 z m -1.1579,-0.16998 c -0.0362,-0.11785 -0.0744,-0.18832 -0.085,-0.15659 -0.0208,0.0624 0.0835,0.37086 0.12527,0.37086 0.0141,0 -0.005,-0.0964 -0.0402,-0.21427 z m 0.97913,-0.3786 c -0.0173,-0.0663 -0.0448,-0.10724 -0.0607,-0.0912 -0.032,0.032 0.0245,0.21159 0.0665,0.21159 0.0142,0 0.0117,-0.0542 -0.006,-0.12044 z m -0.18977,-0.6768 c -0.0612,-0.22737 -0.11375,-0.37898 -0.11666,-0.33695 -0.009,0.11435 0.1899,0.87395 0.21038,0.8076 0.01,-0.0316 -0.0324,-0.2433 -0.0936,-0.47065 z m 0.0936,-8.20684 c -0.0205,-0.0664 -0.21835,0.69325 -0.21038,0.80759 0.003,0.0419 0.0555,-0.10958 0.11668,-0.33695 0.0612,-0.22734 0.10339,-0.43914 0.0936,-0.47064 z m 0.0967,-0.20856 c 0.0171,-0.065 0.007,-0.10328 -0.0226,-0.0851 -0.0295,0.0182 -0.0536,0.0714 -0.0536,0.1182 0,0.12222 0.0401,0.10482 0.0762,-0.0331 z m -0.96918,-0.41195 c 0.0383,-0.11294 0.044,-0.17938 0.013,-0.14765 -0.0312,0.0317 -0.0753,0.13744 -0.0985,0.23489 -0.0542,0.22853 -0.003,0.17718 0.0856,-0.0872 z m 1.15156,-0.1467 c 0.0534,-0.16116 0.0738,-0.26745 0.0451,-0.23622 -0.0286,0.0313 -0.0956,0.18862 -0.14897,0.34976 -0.0534,0.16113 -0.0738,0.26745 -0.0452,0.23622 0.0286,-0.0313 0.0956,-0.18863 0.14898,-0.34976 z m -0.95033,-0.44437 c 0.0172,-0.0656 0.01,-0.10614 -0.0153,-0.0903 -0.0255,0.0158 -0.0605,0.0823 -0.0776,0.14778 -0.0172,0.0656 -0.01,0.10625 0.0153,0.0905 0.0255,-0.0158 0.0605,-0.0822 0.0776,-0.1478 z m 1.15344,-0.13746 c 0.0388,-0.0914 0.0466,-0.15124 0.0171,-0.13298 -0.0295,0.0183 -0.0836,0.11899 -0.12016,0.22386 -0.077,0.2211 -9.3e-4,0.1542 0.10307,-0.0909 z m -1.06362,-0.18973 c -0.0182,-0.0181 -0.0512,0.0147 -0.0734,0.0728 -0.0321,0.0842 -0.0252,0.0909 0.0331,0.0331 0.0403,-0.0401 0.0585,-0.0878 0.0403,-0.10591 z m 1.18109,-0.17718 c -0.0181,-0.0181 -0.0512,0.0147 -0.0734,0.0728 -0.0321,0.0842 -0.0252,0.0909 0.0331,0.033 0.0402,-0.0401 0.0585,-0.0878 0.0402,-0.10593 z m -0.95437,-0.42287 c -0.0255,-0.0255 -0.21792,0.42954 -0.21115,0.49947 0.002,0.0237 0.0559,-0.0737 0.11935,-0.21651 0.0634,-0.14278 0.1046,-0.27011 0.0918,-0.28296 z m 1.08208,0.12917 c 0,-0.0326 -0.0257,-0.0192 -0.0572,0.0295 -0.0316,0.0487 -0.0573,0.11515 -0.0573,0.14763 0,0.0324 0.0256,0.0192 0.0573,-0.0296 0.0315,-0.0487 0.0572,-0.11516 0.0572,-0.14763 z m -0.94489,-0.41338 c 0,-0.0326 -0.0257,-0.0192 -0.0571,0.0295 -0.0316,0.0487 -0.0573,0.11515 -0.0573,0.14764 0,0.0326 0.0257,0.0192 0.0573,-0.0296 0.0316,-0.0487 0.0571,-0.11516 0.0571,-0.14765 z m 1.50772,-0.73818 c 0.0503,-0.0975 0.0783,-0.17718 0.0621,-0.17718 -0.0163,0 -0.0707,0.0798 -0.12113,0.17718 -0.0505,0.0975 -0.0783,0.17716 -0.0621,0.17716 0.0163,0 0.0708,-0.0797 0.12115,-0.17716 z m -0.67913,-0.88583 c 0.0348,-0.065 0.05,-0.11811 0.0337,-0.11811 -0.0163,0 -0.0579,0.0531 -0.0928,0.11811 -0.0348,0.065 -0.05,0.1181 -0.0337,0.1181 0.0163,0 0.0579,-0.0533 0.0928,-0.1181 z m 3.92714,-4.71804 0.35433,-0.31402 -0.32481,0.25572 c -0.17863,0.14065 -0.67157,0.60185 -1.09542,1.0249 l -0.77063,0.76917 0.74111,-0.71086 c 0.4076,-0.39098 0.90055,-0.85217 1.09542,-1.02491 z m 0.3248,1.08616 c 0.11018,-0.11367 0.18705,-0.20669 0.17081,-0.20669 -0.0163,0 -0.11968,0.093 -0.22987,0.20669 -0.11018,0.11368 -0.18703,0.2067 -0.17079,0.2067 0.0163,0 0.11966,-0.0929 0.22985,-0.2067 z m 1.21064,-0.98989 c 0.12608,-0.13313 -0.48681,0.32348 -0.7382,0.54995 -0.14616,0.13168 -0.0532,0.0758 0.2067,-0.12407 0.25984,-0.19994 0.49901,-0.39158 0.5315,-0.42588 z m 12.43102,29.83322 c 0.14617,-0.0336 0.54213,-0.12647 0.87991,-0.20625 0.33779,-0.0799 0.62518,-0.1341 0.63862,-0.12063 0.033,0.033 -1.18507,0.32007 -1.51853,0.35791 l -0.26573,0.0301 z m -6.7913,-0.0836 c -0.35518,-0.10284 -0.17374,-0.10483 0.23623,-0.002 0.17864,0.0445 0.25836,0.0807 0.17715,0.0803 -0.0812,-4.4e-4 -0.26722,-0.0355 -0.41338,-0.0777 z m -1.21062,-0.31705 c -0.77841,-0.241 -1.58427,-0.5396 -1.54965,-0.57422 0.0122,-0.0122 0.2329,0.0592 0.49059,0.15868 0.25769,0.0995 0.81398,0.28344 1.23623,0.40892 0.42224,0.12549 0.71455,0.22768 0.6496,0.22708 -0.065,-4.5e-4 -0.43701,-0.0998 -0.82677,-0.22046 z m 9.68499,-0.008 c 0.065,-0.0279 0.15797,-0.0507 0.2067,-0.0507 0.0558,0 0.045,0.0188 -0.0296,0.0507 -0.065,0.028 -0.15797,0.0508 -0.20669,0.0508 -0.0558,0 -0.045,-0.0188 0.0295,-0.0508 z m -0.56102,-0.33374 c -0.62416,-0.0946 -1.24304,-0.21454 -1.22102,-0.23655 0.0146,-0.0146 0.2488,0.0149 0.52045,0.0656 0.27163,0.0507 0.73304,0.11496 1.02537,0.14281 0.44262,0.0421 0.47225,0.0506 0.17717,0.0506 -0.19489,-4e-5 -0.42077,-0.01 -0.50197,-0.0224 z m -4.10431,-0.13558 c 0.83747,-0.0726 1.95197,-0.11812 1.53819,-0.0629 -0.19335,0.0257 -0.73814,0.0607 -1.21062,0.0778 -0.64142,0.0232 -0.72441,0.0194 -0.32757,-0.0149 z m -1.28443,-0.0464 c 0.13803,-0.0124 0.36391,-0.0124 0.50195,0 0.13804,0.0124 0.0251,0.0226 -0.25098,0.0226 -0.27608,0 -0.38903,-0.01 -0.25097,-0.0226 z m -1.19587,-0.10339 c -0.55807,-0.0994 -0.31136,-0.10187 0.38384,-0.005 0.34737,0.049 0.45983,0.0787 0.29528,0.0783 -0.14616,-4.6e-4 -0.45176,-0.0338 -0.67912,-0.0744 z m 4.4045,0.008 c 0.0135,-0.0119 0.17077,-0.0366 0.3494,-0.0551 0.20969,-0.0216 0.27248,-0.0161 0.17718,0.0156 -0.14632,0.0488 -0.57389,0.0809 -0.52658,0.0395 z m 0.75173,-0.019 c 0.0426,-0.0171 0.0936,-0.0149 0.11318,0.005 0.0196,0.0195 -0.0153,0.0335 -0.0775,0.0311 -0.0688,-0.003 -0.0828,-0.0167 -0.0357,-0.0357 z m -6.64997,-0.28304 c -0.80793,-0.20604 -1.56974,-0.44186 -1.53606,-0.47552 0.011,-0.011 0.31113,0.0693 0.66813,0.17745 0.35699,0.10811 0.94139,0.26365 1.29868,0.3457 0.35729,0.0821 0.58317,0.14993 0.50196,0.15087 -0.0811,9.3e-4 -0.50091,-0.0884 -0.93271,-0.1985 z m 10.23385,0.12339 c 0.0974,-0.0444 0.2436,-0.0969 0.3248,-0.1169 0.11857,-0.0292 0.11276,-0.0202 -0.0295,0.0443 -0.0974,0.0443 -0.2436,0.0969 -0.3248,0.11689 -0.11858,0.0292 -0.11277,0.0202 0.0296,-0.0443 z m 0.56102,-0.2134 c 0.0488,-0.0316 0.11516,-0.0573 0.14764,-0.0573 0.0325,0 0.0192,0.0257 -0.0296,0.0573 -0.0487,0.0315 -0.11516,0.0572 -0.14764,0.0572 -0.0325,0 -0.0192,-0.0257 0.0295,-0.0572 z m -12.66725,-0.50403 c -0.14769,-0.0711 -0.1526,-0.0793 -0.0296,-0.0492 0.16733,0.0408 0.35541,0.13678 0.26574,0.13545 -0.0324,-4.4e-4 -0.13878,-0.0393 -0.2362,-0.0863 z m -0.94281,-0.38548 c -0.35613,-0.16132 -0.67334,-0.31915 -0.70489,-0.35069 -0.0514,-0.0514 1.37636,0.57199 1.43608,0.627 0.0791,0.0727 -0.15961,-0.0173 -0.73119,-0.27631 z m 9.4467,0.24683 c -0.29232,-0.02 0.47835,-0.0364 1.71258,-0.0364 2.45173,0 2.68843,-0.023 3.44233,-0.3362 0.70393,-0.2923 1.28303,-0.71619 2.19427,-1.60615 0.63228,-0.61751 0.74431,-0.71093 0.43273,-0.36079 -0.78463,0.88168 -1.68513,1.5932 -2.48286,1.96179 -0.74432,0.3439 -1.02423,0.38112 -2.99591,0.39857 -0.9744,0.009 -2.01081,-4.7e-4 -2.30314,-0.0208 z m -0.29527,-0.45397 c 0.1624,-0.0452 0.32185,-0.0798 0.35433,-0.0771 0.0999,0.009 -0.40578,0.16082 -0.5315,0.16001 -0.065,-4.3e-4 0.0147,-0.0377 0.17717,-0.0828 z m 0.73345,-0.20668 c 0.17604,-0.0624 0.33028,-0.10339 0.34276,-0.0909 0.0275,0.0275 -0.51035,0.2149 -0.59954,0.20883 -0.0348,-0.002 0.0807,-0.0555 0.25678,-0.11793 z m 0.42303,-0.13636 c 0.0547,-0.0498 0.90439,-0.3872 0.92446,-0.36713 0.0119,0.0119 -0.17722,0.10438 -0.42025,0.20556 -0.40236,0.1675 -0.56968,0.22113 -0.50421,0.16157 z m 7.70174,-2.45793 c 0.0588,-0.065 0.12018,-0.11811 0.13641,-0.11811 0.0162,0 -0.0185,0.0533 -0.0774,0.11811 -0.0588,0.065 -0.12018,0.11812 -0.13642,0.11812 -0.0162,0 0.0185,-0.0533 0.0774,-0.11812 z m 0.7741,-0.81641 c -0.0174,-0.0283 0.0471,-0.12681 0.14335,-0.21905 0.0963,-0.0922 0.17506,-0.14425 0.17506,-0.11556 0,0.0287 0.0919,-0.037 0.20439,-0.14594 0.11242,-0.10899 0.19196,-0.21823 0.17675,-0.24286 -0.0474,-0.0766 0.5163,-0.52145 0.9077,-0.71617 0.25698,-0.12783 0.47803,-0.19131 0.70866,-0.2035 0.24242,-0.0129 0.29431,-0.003 0.18753,0.0324 -0.0812,0.0277 -0.20303,0.0385 -0.27073,0.024 -0.17483,-0.0371 -1.06076,0.57063 -1.68855,1.15827 -0.28184,0.26382 -0.52671,0.45657 -0.54416,0.42835 z m 0.2003,-0.15799 c 0.0763,-0.0812 0.12541,-0.14762 0.10917,-0.14762 -0.0162,0 -0.0919,0.0665 -0.16823,0.14762 -0.0763,0.0812 -0.12541,0.14765 -0.10917,0.14765 0.0162,0 0.092,-0.0665 0.16823,-0.14765 z m 1.05627,-0.93091 c 0.48746,-0.36681 0.50859,-0.38969 0.20626,-0.2233 -0.13385,0.0737 -0.35974,0.23908 -0.50196,0.36755 -0.32332,0.29206 -0.2118,0.23767 0.2957,-0.14425 z m -8.5267,-0.45687 c 0.065,-0.0279 0.15797,-0.0507 0.20669,-0.0507 0.0558,0 0.045,0.0188 -0.0295,0.0507 -0.065,0.028 -0.15799,0.0508 -0.2067,0.0508 -0.0558,0 -0.0449,-0.0188 0.0296,-0.0508 z m 0.97441,-0.30364 c 0.37351,-0.13055 1.01765,-0.39166 1.4314,-0.58021 0.41376,-0.18857 0.73973,-0.32255 0.72439,-0.29773 -0.082,0.13256 -2.54948,1.13044 -2.76682,1.11891 -0.0375,-0.002 0.2375,-0.11042 0.61103,-0.24097 z m -0.77019,-0.18356 c 0.24472,-0.26073 0.29774,-0.30764 0.29774,-0.26328 0,0.01 -0.12622,0.13571 -0.28051,0.2805 l -0.28051,0.26327 z m 3.01427,-0.77119 c 0,-0.0163 0.1528,-0.11557 0.33956,-0.22071 0.18676,-0.10515 0.49237,-0.29469 0.67912,-0.42122 0.18677,-0.12653 0.33957,-0.21676 0.33957,-0.20053 0,0.0421 -0.61842,0.45549 -1.01869,0.68081 -0.18676,0.10516 -0.33956,0.17788 -0.33956,0.16165 z m 1.35825,-0.71994 c 0.0763,-0.0813 0.15199,-0.14765 0.16823,-0.14765 0.0162,0 -0.0329,0.0665 -0.10917,0.14765 -0.0763,0.0812 -0.15199,0.14762 -0.16822,0.14762 -0.0163,0 0.0329,-0.0665 0.10916,-0.14762 z m -13.51469,-1.8675 c -0.20624,-0.0655 -0.36454,-0.12918 -0.35178,-0.14193 0.0129,-0.0128 0.19051,0.029 0.39502,0.0925 0.45821,0.14263 0.51602,0.14437 0.41382,0.0124 -0.0652,-0.0842 -0.0555,-0.0824 0.0518,0.008 0.0725,0.0619 0.13186,0.12166 0.13186,0.13288 0,0.0521 -0.3001,0.003 -0.64073,-0.10505 z m -0.73229,-0.29203 c -0.1218,-0.0643 -0.22145,-0.13011 -0.22145,-0.14622 0,-0.0263 0.46645,0.19167 0.52657,0.24609 0.0679,0.0614 -0.10941,0.003 -0.30512,-0.0999 z m 2.10138,-0.0836 c 0,-0.0664 0.0192,-0.0718 0.0788,-0.0223 0.0433,0.0359 0.0787,0.0754 0.0787,0.0877 0,0.0123 -0.0355,0.0223 -0.0787,0.0223 -0.0433,0 -0.0788,-0.0394 -0.0788,-0.0878 z m 7.42122,-1.97772 c 0.47802,-0.0689 1.23421,-0.11417 1.06299,-0.0636 -0.0812,0.0239 -0.42667,0.0586 -0.76771,0.077 -0.41194,0.0222 -0.51105,0.0178 -0.29528,-0.0134 z m -11.41234,-1.98948 c 0.0406,-0.0164 0.10701,-0.0164 0.14763,0 0.0406,0.0164 0.008,0.0299 -0.0738,0.0299 -0.0811,0 -0.11441,-0.0135 -0.0738,-0.0299 z m -0.23253,-0.0602 c 0.0426,-0.0171 0.0935,-0.0149 0.11319,0.005 0.0196,0.0197 -0.0153,0.0335 -0.0775,0.031 -0.0688,-0.003 -0.0829,-0.0167 -0.0357,-0.0357 z m -0.40232,-0.10724 c -0.19286,-0.11025 -0.12538,-0.11149 0.1261,-0.002 0.10931,0.0474 0.15884,0.0864 0.11012,0.0864 -0.0487,1.1e-4 -0.15502,-0.0378 -0.23622,-0.0842 z m -8.59885,-0.79723 c 0,-0.4385 0.01,-0.61787 0.0207,-0.39862 0.0114,0.21924 0.0114,0.57799 0,0.79723 -0.0114,0.21924 -0.0207,0.0399 -0.0207,-0.39861 z m 8.63329,-1.03249 c -0.12722,-0.0453 -0.29994,-0.15503 -0.38384,-0.24378 l -0.15257,-0.16135 0.19462,0.15624 c 0.10701,0.086 0.2997,0.18453 0.42814,0.21911 0.12844,0.0347 0.23355,0.0751 0.23355,0.09 0,0.042 -0.069,0.0292 -0.3199,-0.0604 z m -3.16435,-0.0305 c 0.0486,-0.0316 0.11517,-0.0572 0.14764,-0.0572 0.0326,0 0.0192,0.0257 -0.0295,0.0572 -0.0487,0.0316 -0.11516,0.0573 -0.14763,0.0573 -0.0326,0 -0.0192,-0.0257 0.0295,-0.0573 z m 0.29528,-0.10811 c 0.0487,-0.0301 0.15501,-0.0725 0.23621,-0.0942 0.10263,-0.0276 0.12062,-0.0228 0.059,0.0153 -0.0486,0.0301 -0.15502,0.0726 -0.23622,0.0942 -0.10263,0.0275 -0.12062,0.0228 -0.059,-0.0154 z m 13.83359,-0.30133 c -0.13155,-0.0953 -0.25789,-0.20352 -0.28075,-0.24052 -0.032,-0.0517 0.43018,0.27291 0.55634,0.39079 0.0916,0.0856 -0.0767,-0.007 -0.27559,-0.15027 z m -15.67795,-3.43933 c 0.0343,-0.0343 0.0973,-0.0508 0.13986,-0.0365 0.0442,0.0148 0.0174,0.0415 -0.0624,0.0623 -0.0983,0.0257 -0.12128,0.018 -0.0774,-0.0258 z m 29.24582,-0.46248 c -0.0532,-0.0344 -0.0605,-0.0576 -0.0183,-0.0581 0.0386,-4.5e-4 0.0868,0.0256 0.10683,0.0581 0.0453,0.0733 0.0248,0.0733 -0.0886,0 z m -0.47244,-0.18007 c -0.31354,-0.12835 -0.37537,-0.13799 -0.32102,-0.0501 0.0222,0.0359 -0.0302,0.0191 -0.11646,-0.0376 -0.0862,-0.0564 -0.14668,-0.11279 -0.13437,-0.1251 0.0297,-0.0298 0.75384,0.19871 0.86713,0.27344 0.13357,0.088 0.002,0.0611 -0.29528,-0.0607 z m -16.01097,-6.11052 c 0.17472,-0.0829 0.32863,-0.13979 0.34202,-0.12641 0.0135,0.0135 -0.0897,0.0705 -0.2291,0.12679 -0.40408,0.16335 -0.4576,0.16317 -0.11292,-4.4e-4 z m 0.47956,-0.2054 c 0.0486,-0.0315 0.11515,-0.0572 0.14764,-0.0572 0.0325,0 0.0192,0.0257 -0.0296,0.0572 -0.0486,0.0316 -0.11515,0.0573 -0.14764,0.0573 -0.0324,0 -0.0192,-0.0257 0.0296,-0.0573 z m 0.47243,-0.18628 c 0.40005,-0.17897 2.12216,-0.74464 2.39172,-0.78562 0.12992,-0.0197 -0.071,0.0558 -0.44643,0.16804 -0.37546,0.11218 -1.01176,0.32565 -1.41401,0.47438 -0.77571,0.28683 -0.96844,0.33877 -0.53128,0.1432 z m 11.20511,-0.42634 c -0.28367,-0.17441 -0.36288,-0.25676 -0.13233,-0.13757 0.18512,0.0957 0.43483,0.27397 0.38386,0.27404 -0.0162,1e-5 -0.12943,-0.0613 -0.25153,-0.13647 z m -0.85478,-0.49295 c -0.26743,-0.15087 -0.47725,-0.2833 -0.46627,-0.29428 0.024,-0.0238 0.98203,0.50977 0.98203,0.54708 0,0.0387 0.007,0.0423 -0.51576,-0.2528 z m -17.90935,-1.87113 c 0,-0.10316 2.66567,-0.87085 2.96914,-0.85501 0.11845,0.007 0.11973,0.01 0.0131,0.0323 -0.72718,0.15712 -1.94097,0.48492 -2.39038,0.64557 -0.60673,0.21687 -0.5919,0.21243 -0.5919,0.1771 z m 3.20486,-0.90278 c 0.0575,-0.0149 0.13718,-0.0141 0.17715,0.002 0.04,0.0162 -0.008,0.0285 -0.10449,0.0273 -0.0975,-9.2e-4 -0.13015,-0.0144 -0.0726,-0.0294 z m 9.0195,-0.11023 c -0.54159,-0.23486 -1.88469,-0.6554 -2.60146,-0.81453 -1.23292,-0.27373 -1.9138,-0.34955 -3.54025,-0.39427 l -1.56494,-0.043 1.59447,0.0159 c 1.68207,0.0168 2.18241,0.0684 3.51376,0.36223 0.74463,0.16437 2.20484,0.62957 2.71653,0.86543 0.41146,0.18967 0.31565,0.19636 -0.11811,0.009 z m -8.5039,0.0342 c 0.33924,-0.0648 2.29036,-0.19682 2.48258,-0.16811 0.0798,0.012 -0.38614,0.0569 -1.03574,0.0997 -0.64959,0.0429 -1.30069,0.0872 -1.44684,0.0986 l -0.26575,0.0205 z m -3.77952,-0.24563 c 0.34487,-0.15314 1.59577,-0.53266 1.67196,-0.50728 0.0322,0.011 -0.16457,0.0808 -0.43752,0.15552 -0.27293,0.0747 -0.70729,0.21293 -0.96523,0.30703 -0.53908,0.19666 -0.65452,0.21584 -0.26921,0.0448 z m 2.0374,-0.61597 c 0.16241,-0.0453 0.33514,-0.0803 0.38384,-0.078 0.0487,0.002 -0.0442,0.0412 -0.20666,0.0863 -0.16242,0.0452 -0.33515,0.0802 -0.38386,0.078 -0.0488,-0.002 0.0442,-0.0412 0.20668,-0.0863 z m 0.82678,-0.17048 c 0.19487,-0.0456 0.52705,-0.0967 0.73817,-0.11364 l 0.38386,-0.0309 -0.44291,0.0763 c -0.2436,0.042 -0.57579,0.0931 -0.73818,0.11362 -0.28535,0.0362 -0.28337,0.0347 0.059,-0.0454 z m 1.28524,-0.19256 c 0.0897,-0.0136 0.22264,-0.0131 0.29527,9.1e-4 0.0726,0.0141 -9.2e-4,0.025 -0.1632,0.0247 -0.16241,-4.4e-4 -0.22184,-0.012 -0.13207,-0.0255 z"
         id="path10" />
      <path
         d="m 751.70747,-174.64828 c -0.43989,0.0619 -0.77413,0.42735 -1.07014,0.77493 -0.41943,0.84336 -0.97711,1.60264 -1.56463,2.33772 -2.37155,-1.00947 -4.99581,-1.52368 -7.55357,-1.3811 -1.01949,-0.12781 -2.02984,0.18945 -3.04272,0.2759 -0.43619,0.15624 -1.17307,0.26101 -1.69887,0.45504 -6.05279,1.8251 -10.95688,7.0132 -12.38508,13.17883 -0.34178,1.10768 -0.34548,2.25585 -0.32794,3.40242 0.0201,1.39993 -0.0819,2.81395 0.14205,4.19873 0.15805,0.7674 0.40846,1.51121 0.61625,2.26575 -0.5516,0.1294 0.49935,0.52875 0.38384,1.0397 2.6473,6.67723 9.55897,11.56028 16.80454,11.36865 1.07952,-0.0229 2.13669,0.005 3.20713,-0.23636 -0.45973,0.37046 -1.34661,0.76922 -0.97605,1.50189 0.27041,0.51501 0.79337,0.79714 1.36979,0.69744 0.62356,-0.0383 1.25618,0.0473 1.75024,-0.19004 1.43869,-0.37819 2.71908,-1.15548 4.03334,-1.82478 -0.17127,-0.15456 0.60931,-0.50076 0.83144,-0.76266 0.52901,-0.40655 1.03911,-0.92448 1.50997,-1.34442 0.63823,0.61683 1.50858,-0.0846 2.10524,-0.43359 2.51847,-1.90107 4.62586,-4.40897 5.79822,-7.35997 1.14802,-2.72569 1.44992,-5.78901 0.97683,-8.69854 -0.25662,-0.55132 -0.0706,-0.96731 0.46701,-1.02447 0.52967,0.3698 0.25544,-0.71493 0.36704,-1.04899 -0.0103,-2.00489 -1.06363,-3.80839 -1.97454,-5.53123 -1.5799,-2.55276 -4.28979,-4.108 -6.73423,-5.66987 0.19588,-2.06158 -0.5649,-4.2742 -2.13283,-5.65279 -0.25078,-0.20218 -0.57282,-0.38013 -0.90233,-0.33819 z"
         style="fill:none;stroke:#ff0000;stroke-width:0.1;stroke-dasharray:none;stroke-opacity:1"
         id="path1-57" />
      <circle
         style="fill:none;stroke:#0000ff;stroke-width:0.1;stroke-linecap:round;stroke-dasharray:none;stroke-opacity:1;paint-order:markers stroke fill"
         id="path13019-1-33-3-83-70-3-7-5-3-3-7"
         cx="743.75482"
         cy="-167.94867"
         r="2" />
    </g>
  </g>
</svg>
