<?xml version="1.0" encoding="UTF-8" standalone="no"?>
<!-- Created with Inkscape (http://www.inkscape.org/) -->

<svg
   width="41.008999mm"
   height="41.008999mm"
   viewBox="0 0 41.008999 41.009"
   version="1.1"
   id="svg1"
   inkscape:version="1.4.2 (f4327f4, 2025-05-13)"
   sodipodi:docname="270.svg"
   xmlns:inkscape="http://www.inkscape.org/namespaces/inkscape"
   xmlns:sodipodi="http://sodipodi.sourceforge.net/DTD/sodipodi-0.dtd"
   xmlns="http://www.w3.org/2000/svg"
   xmlns:svg="http://www.w3.org/2000/svg">
  <sodipodi:namedview
     id="namedview1"
     pagecolor="#ffffff"
     bordercolor="#000000"
     borderopacity="0.25"
     inkscape:showpageshadow="2"
     inkscape:pageopacity="0.0"
     inkscape:pagecheckerboard="0"
     inkscape:deskcolor="#d1d1d1"
     inkscape:document-units="mm"
     inkscape:zoom="2.8970539"
     inkscape:cx="89.05599"
     inkscape:cy="80.426533"
     inkscape:window-width="1168"
     inkscape:window-height="1081"
     inkscape:window-x="3737"
     inkscape:window-y="0"
     inkscape:window-maximized="0"
     inkscape:current-layer="layer1" />
  <defs
     id="defs1" />
  <g
     inkscape:label="Layer 1"
     inkscape:groupmode="layer"
     id="layer1"
     transform="translate(-114.0891,-77.774176)">
    <g
       id="g9"
       transform="translate(-440.66183,203.34646)">
      <path
         style="fill:#000000;stroke-width:0.1;stroke-dasharray:none"
         d="m 574.51778,-91.14235 c -0.58866,-0.0798 -0.91713,-0.28904 -1.15018,-0.73269 -0.13803,-0.26276 -0.15431,-0.31068 -0.68126,-2.00564 -0.25904,-0.83316 -0.48313,-1.55329 -0.49799,-1.6003 l -0.0271,-0.0854 -2.49523,1.11254 c -1.37237,0.6119 -2.49904,1.10872 -2.50371,1.10404 -0.005,-0.005 0.28174,-0.72009 0.63648,-1.58983 0.35474,-0.86973 0.64064,-1.58567 0.63535,-1.59097 -0.006,-0.006 -0.98448,0.21567 -2.17594,0.49105 -1.19146,0.27539 -2.17362,0.49338 -2.18255,0.48444 -0.009,-0.009 0.45133,-0.60255 1.02283,-1.31916 0.91403,-1.14613 1.03121,-1.30379 0.97388,-1.31017 -0.0358,-0.003 -1.89888,0.17219 -4.14008,0.3915 -2.24121,0.2193 -4.08169,0.39197 -4.08996,0.3837 -0.008,-0.008 0.009,-0.0331 0.0399,-0.0553 0.4194,-0.30658 6.9807,-5.26112 6.9812,-5.27161 2.9e-4,-0.008 -1.29469,-0.58429 -2.8779,-1.28071 -2.30598,-1.01432 -2.87019,-1.27236 -2.83634,-1.29715 0.0233,-0.017 0.53469,-0.25115 1.13656,-0.5203 1.21164,-0.54183 2.90333,-1.30242 3.23896,-1.45625 l 0.21672,-0.0994 -0.10419,-0.11713 c -0.0573,-0.0644 -0.37971,-0.41458 -0.7164,-0.77814 -0.9094,-0.98196 -1.34234,-1.50634 -1.2865,-1.5583 0.0282,-0.0263 1.1458,-0.30148 1.71498,-0.42233 0.57605,-0.1223 1.12818,-0.22336 1.57812,-0.28885 0.19387,-0.0282 0.35677,-0.0558 0.36201,-0.0615 0.006,-0.006 -0.007,-0.0907 -0.0282,-0.18917 -0.0207,-0.0984 -0.0526,-0.37459 -0.0708,-0.61361 -0.084,-1.10532 0.14707,-2.74816 0.55487,-3.9446 0.14986,-0.43972 0.45246,-1.0604 0.51692,-1.06032 0.0622,9e-5 0.38153,0.21112 0.68329,0.45152 0.34309,0.27332 0.86331,0.78458 1.27032,1.24844 0.19402,0.22112 0.38375,0.43712 0.42163,0.48 l 0.0688,0.0779 0.20359,-0.17812 c 0.11202,-0.098 0.26944,-0.22348 0.34993,-0.27892 l 0.14634,-0.10073 0.44535,0.1857 c 1.79411,0.74813 3.38025,1.0122 5.82295,0.96942 1.23193,-0.0215 1.86957,-0.0808 2.72667,-0.2534 0.79366,-0.15979 1.69338,-0.44635 2.55193,-0.8128 l 0.21087,-0.09 0.17472,0.12538 c 0.0961,0.069 0.25305,0.19663 0.34876,0.2837 0.14596,0.1328 0.17964,0.15213 0.20885,0.11988 0.0192,-0.0212 0.13205,-0.15619 0.25088,-0.30008 0.31164,-0.37747 1.30833,-1.36364 1.58821,-1.5715 0.3629,-0.26951 0.54284,-0.37195 0.59528,-0.33887 0.0241,0.0152 0.0975,0.13209 0.16312,0.25978 0.42143,0.81993 0.75524,2.15674 0.86363,3.45862 0.0432,0.51861 0.0205,1.5157 -0.0414,1.82361 -0.0254,0.12659 -0.0399,0.23651 -0.0322,0.24425 0.008,0.008 0.17269,0.0372 0.36656,0.0655 1.02349,0.14939 3.25054,0.64542 3.2779,0.7301 0.0251,0.0776 -0.43764,0.62737 -1.40124,1.66478 -0.33147,0.35686 -0.62186,0.67622 -0.6453,0.7097 -0.0421,0.0601 -0.0383,0.0628 0.29666,0.22029 0.18661,0.0876 1.22236,0.55442 2.30167,1.03723 1.0793,0.48279 1.96238,0.88635 1.96238,0.89681 0,0.0104 -1.29618,0.58936 -2.88042,1.28649 l -2.88041,1.26748 1.05575,0.79638 c 0.58066,0.43801 2.16134,1.62951 3.51264,2.64777 1.3513,1.01826 2.46504,1.86456 2.47499,1.88068 0.0124,0.02 -0.0284,0.0238 -0.12959,0.0121 -0.53462,-0.0622 -8.06358,-0.78648 -8.11,-0.78026 -0.0478,0.007 0.1223,0.23321 0.98683,1.31599 0.59085,0.74 1.02865,1.31143 1.00794,1.31559 -0.0202,0.005 -1.00245,-0.21585 -2.18288,-0.48861 -1.18045,-0.27277 -2.15201,-0.49019 -2.15906,-0.48316 -0.007,0.007 0.27577,0.71988 0.62844,1.58412 0.35267,0.86424 0.63595,1.57661 0.62952,1.58303 -0.007,0.007 -1.10812,-0.47752 -2.44822,-1.07541 -1.3401,-0.59791 -2.46166,-1.0937 -2.49236,-1.10176 -0.0517,-0.0136 -0.0938,0.10776 -0.57697,1.65997 -0.57826,1.85797 -0.66723,2.08274 -0.92782,2.34383 -0.17029,0.17063 -0.40035,0.29153 -0.67032,0.35225 -0.23156,0.052 -1.4606,0.0777 -1.76269,0.0367 z m 1.49322,-0.57673 c 0.58265,-0.13688 0.95105,-0.48179 1.01446,-0.94975 l 0.0186,-0.13772 -0.10867,0.16602 c -0.20803,0.3176 -0.52623,0.53389 -0.95789,0.65111 -0.30149,0.0819 -1.22008,0.0912 -1.50105,0.0152 -0.39105,-0.10569 -0.66867,-0.30057 -0.8923,-0.62637 l -0.10362,-0.15095 0.0182,0.12393 c 0.045,0.30673 0.25178,0.5995 0.53041,0.75114 0.39663,0.21588 1.39519,0.29513 1.98185,0.15731 z m -0.3152,-1.18406 c 0.88809,-0.0736 1.25581,-0.27936 1.54351,-0.86374 0.29349,-0.59614 0.44618,-1.19951 0.65259,-2.57883 0.12988,-0.86779 0.21228,-1.28065 0.34591,-1.73278 0.0519,-0.17551 0.16326,-0.56079 0.24751,-0.85618 0.285,-0.99923 0.49865,-1.62177 0.68104,-1.98442 0.33996,-0.67593 0.76827,-1.2059 1.34015,-1.65821 0.11455,-0.0906 0.21443,-0.17138 0.22201,-0.17955 0.008,-0.008 -0.0772,0.0336 -0.18841,0.0928 -0.56316,0.29979 -1.08907,0.87595 -1.54379,1.6913 -0.44558,0.79894 -0.84816,1.85757 -1.42443,3.74573 l -0.18914,0.6197 -0.0214,-0.15148 c -0.0276,-0.19648 -2.9e-4,-0.82494 0.0501,-1.1496 0.0218,-0.13995 0.039,-0.26389 0.0386,-0.27541 -0.002,-0.0477 -0.0843,0.13056 -0.14878,0.32332 -0.20105,0.60048 -0.32303,1.46234 -0.37423,2.64404 -0.04,0.92217 -0.0603,1.07257 -0.17713,1.30825 -0.0975,0.1966 -0.29821,0.45444 -0.32988,0.42366 -0.009,-0.009 -0.005,-0.0714 0.0104,-0.13771 0.0366,-0.15899 0.0368,-0.71477 2.1e-4,-0.92124 -0.0396,-0.22385 -0.15046,-0.55401 -0.23016,-0.68565 l -0.0661,-0.10913 0.0145,0.23329 c 0.0231,0.37093 -0.0817,0.97072 -0.16921,0.96721 -0.0139,-4.8e-4 -0.0463,-0.0561 -0.0718,-0.1233 -0.0256,-0.0672 -0.0668,-0.1514 -0.0916,-0.18695 -0.0447,-0.0638 -0.0454,-0.0629 -0.048,0.0723 -0.006,0.30569 -0.0871,0.36988 -0.21002,0.16643 -0.0418,-0.0692 -0.0845,-0.12587 -0.0949,-0.12587 -0.0246,0 -0.11623,0.24941 -0.16011,0.43602 -0.019,0.0807 -0.0433,0.13653 -0.0541,0.12393 -0.0104,-0.0125 -0.0408,-0.10188 -0.0667,-0.19849 -0.0259,-0.0966 -0.0662,-0.22052 -0.0894,-0.27541 l -0.0425,-0.0998 -0.046,0.0637 c -0.1386,0.19174 -0.16196,0.21138 -0.20702,0.17399 -0.0257,-0.0213 -0.0511,-0.10431 -0.0623,-0.20318 -0.0172,-0.15185 -0.0225,-0.16234 -0.0575,-0.11455 -0.0212,0.0289 -0.0595,0.11156 -0.0851,0.18354 -0.0257,0.0721 -0.0589,0.12683 -0.074,0.1218 -0.0688,-0.0229 -0.13165,-0.3428 -0.1498,-0.76228 l -0.0184,-0.4269 -0.0879,0.17902 c -0.16054,0.32737 -0.20729,0.5647 -0.20887,1.06037 -9.4e-4,0.27951 0.0104,0.46838 0.031,0.51642 0.0178,0.0417 0.0219,0.0757 0.009,0.0757 -0.044,0 -0.24726,-0.24289 -0.31477,-0.37623 -0.1336,-0.26382 -0.15675,-0.40166 -0.18427,-1.09728 -0.0498,-1.26129 -0.16102,-2.14613 -0.34764,-2.76798 -0.0717,-0.23896 -0.17572,-0.50443 -0.19146,-0.4887 -0.005,0.005 0.009,0.10742 0.0323,0.22807 0.0498,0.26633 0.0872,1.38999 0.0447,1.34854 -0.0155,-0.0152 -0.1111,-0.3002 -0.21246,-0.63347 -0.8471,-2.78556 -1.41239,-4.00435 -2.24283,-4.83558 -0.31258,-0.31289 -0.45666,-0.42368 -0.78658,-0.60482 -0.18861,-0.10361 -0.17834,-0.087 0.0559,0.0897 0.54894,0.41428 1.04599,1.0108 1.36599,1.63931 0.20811,0.40876 0.34087,0.78304 0.61796,1.7421 0.14224,0.49231 0.29568,1.01616 0.34098,1.16411 0.11478,0.37477 0.2279,0.95176 0.36042,1.83798 0.17146,1.14663 0.27941,1.61525 0.49806,2.16205 0.0606,0.15148 0.15197,0.35028 0.20311,0.44179 0.12164,0.21767 0.35678,0.43741 0.57217,0.53469 0.39923,0.18032 1.07326,0.2533 1.79051,0.19387 z m -5.88536,-2.91042 1.90279,-1.73488 -0.5119,-0.0326 c -0.79575,-0.0505 -0.64715,-0.0862 -1.5419,0.36979 l -0.78779,0.40147 -0.4114,1.07892 c -0.22627,0.5934 -0.4707,1.23258 -0.5432,1.42039 -0.11247,0.29144 -0.12282,0.33343 -0.0706,0.28659 0.0336,-0.0302 0.91745,-0.83558 1.96398,-1.78976 z m -1.42113,0.6753 c 0.0156,-0.0355 0.16306,-0.3619 0.32779,-0.72546 l 0.2995,-0.66101 0.40951,-0.2552 c 0.4976,-0.3101 0.94533,-0.53452 1.22199,-0.61248 0.19145,-0.054 0.74363,-0.10983 0.74363,-0.0753 0,0.008 -0.15801,0.11965 -0.35115,0.24726 -0.70805,0.46785 -1.47806,1.07718 -2.24081,1.7732 -0.21377,0.19509 -0.39996,0.35891 -0.41371,0.36405 -0.0137,0.005 -0.0123,-0.0196 0.003,-0.055 z m 14.22353,0.69985 c -0.0972,-0.25374 -0.34083,-0.89165 -0.54157,-1.41761 l -0.36501,-0.95627 -0.79565,-0.40385 -0.79566,-0.40384 -0.40242,0.0208 c -0.22134,0.0115 -0.50145,0.0285 -0.62249,0.0381 l -0.22006,0.0173 1.9541,1.78335 c 1.07476,0.98084 1.95664,1.78335 1.95973,1.78335 0.003,0 -0.0738,-0.20759 -0.17097,-0.46133 z m -0.7551,-0.96163 c -0.7365,-0.67936 -1.58242,-1.35095 -2.29287,-1.8204 -0.19315,-0.12761 -0.35117,-0.23888 -0.35117,-0.24726 0,-0.0348 0.55257,0.0214 0.74363,0.0756 0.2865,0.0813 0.6806,0.27838 1.19312,0.59669 l 0.43572,0.27061 0.23346,0.50952 c 0.34399,0.75076 0.40054,0.88219 0.39101,0.90871 -0.005,0.0132 -0.16355,-0.11889 -0.3529,-0.29354 z m -6.27613,-0.77307 c 0.23592,-0.38939 0.4335,-0.85296 0.47857,-1.1228 0.0175,-0.10477 0.0143,-0.10177 -0.0647,0.0607 -0.10039,0.20611 -0.26591,0.39132 -0.47928,0.53623 -0.0872,0.0592 -0.1784,0.13804 -0.20278,0.17523 l -0.0443,0.0676 -0.054,-0.0686 c -0.0297,-0.0378 -0.13675,-0.12274 -0.23794,-0.18891 -0.22925,-0.14991 -0.31009,-0.2357 -0.43353,-0.46004 -0.0843,-0.15323 -0.0952,-0.16417 -0.08,-0.0808 0.084,0.46361 0.34046,0.99637 0.68402,1.4215 l 0.11375,0.1408 0.0914,-0.12703 c 0.0503,-0.0699 0.15322,-0.22907 0.22879,-0.35379 z m -7.04097,-1.72586 c 1.40849,-0.69082 2.54622,-1.25603 2.52827,-1.25603 -0.018,0 -0.60598,-0.11156 -1.30673,-0.24788 -0.70074,-0.13634 -1.29691,-0.24788 -1.3248,-0.24788 -0.0588,0 -0.52865,0.28884 -0.88776,0.54575 -0.5471,0.39139 -1.04432,0.87242 -1.52262,1.47306 -0.28471,0.35751 -1.10766,1.46282 -1.10766,1.48768 0,0.0187 0.4583,-0.20337 3.6213,-1.7547 z m -2.64711,0.65125 c 0.1602,-0.30971 0.59986,-0.76469 1.10511,-1.14355 0.33811,-0.25354 1.4955,-0.98323 1.56235,-0.98501 0.11179,-0.002 1.78079,0.23551 1.76361,0.25199 -0.0373,0.0358 -3.64591,1.60011 -3.65959,1.58642 -0.007,-0.007 0.38488,-0.27066 0.87155,-0.5852 0.48668,-0.31454 0.90481,-0.59174 0.92921,-0.61601 0.0408,-0.0405 0.0394,-0.0448 -0.0167,-0.0531 -0.13722,-0.02 -0.86748,0.42398 -1.89097,1.14973 -0.36356,0.2578 -0.67064,0.46909 -0.68238,0.46955 -0.0117,2.9e-4 -0.003,-0.0333 0.0178,-0.0749 z m 19.55676,0.96399 c -0.42653,-0.73624 -0.82947,-1.26907 -1.35971,-1.798 -0.4636,-0.46246 -0.74959,-0.69687 -1.53049,-1.25452 l -0.5045,-0.36027 -1.31487,0.25649 c -0.72319,0.14107 -1.31907,0.26069 -1.32418,0.2658 -0.008,0.008 6.07158,3.01804 6.10004,3.0205 0.006,2.8e-4 -0.0245,-0.058 -0.0663,-0.13 z m -1.47227,-1.30486 c -0.73206,-0.51891 -1.1898,-0.81918 -1.58396,-1.03899 -0.2893,-0.16133 -0.44473,-0.21139 -0.41928,-0.13502 0.006,0.0189 0.42376,0.30045 0.92769,0.62568 0.50393,0.32522 0.90519,0.595 0.89169,0.59949 -0.0207,0.007 -3.47086,-1.48456 -3.62453,-1.5668 -0.0284,-0.0152 -0.0476,-0.0314 -0.0425,-0.0359 0.005,-0.005 0.40849,-0.0617 0.89645,-0.12694 l 0.88719,-0.11866 0.44859,0.27131 c 0.89334,0.54029 1.35864,0.88406 1.75807,1.29888 0.23967,0.24891 0.4782,0.56871 0.46152,0.61877 -0.005,0.0152 -0.27549,-0.16105 -0.60091,-0.39173 z m -19.58729,-2.54416 c 2.84908,-1.12097 5.17155,-2.04565 5.16104,-2.05486 -0.0104,-0.009 -0.77515,-0.27384 -1.6992,-0.58807 -0.92403,-0.31424 -1.68688,-0.57548 -1.69522,-0.58054 -0.0115,-0.007 -6.98009,5.22638 -7.04838,5.29302 -0.0163,0.016 -0.62785,0.25556 5.28176,-2.06955 z m -2.99512,0.46133 c 0.002,-0.0274 4.65114,-3.40549 4.70402,-3.41814 0.042,-0.0104 2.48292,0.85256 2.48264,0.87738 -2.1e-4,0.0215 -3.19603,1.13708 -3.21193,1.12118 -0.008,-0.008 0.37043,-0.24503 0.84048,-0.52722 0.47006,-0.28219 0.86211,-0.52517 0.87124,-0.53994 0.009,-0.0147 -0.002,-0.034 -0.0248,-0.0427 -0.054,-0.0206 -0.27197,0.0783 -1.62842,0.73963 -1.36866,0.66726 -2.05517,0.99014 -2.07118,0.97414 -0.0147,-0.0147 0.0784,-0.0805 1.36887,-0.96686 1.17971,-0.81025 1.32038,-0.92343 1.14774,-0.92343 -0.0776,0 -0.17457,0.0582 -2.1255,1.27669 -1.7272,1.07872 -2.32729,1.44998 -2.3437,1.44998 -0.006,0 -0.0104,-0.009 -0.009,-0.0206 z m 29.88055,1.58079 c -0.12508,-0.11572 -6.97055,-5.25085 -7.00025,-5.25124 -0.0535,-9.5e-4 -3.40879,1.14083 -3.40928,1.15991 -2.8e-4,0.0124 10.37226,4.11291 10.43707,4.12604 0.007,0.001 -0.006,-0.0142 -0.0275,-0.0346 z m -2.53289,-1.67814 c -0.50143,-0.31767 -3.11805,-1.94832 -3.61945,-2.25561 -0.51376,-0.31487 -0.70466,-0.40407 -0.70466,-0.32926 0,0.0554 0.19117,0.19663 1.27126,0.93914 1.24098,0.85312 1.32445,0.91236 1.30834,0.92847 -0.0151,0.0151 -0.73978,-0.32629 -2.07007,-0.97509 -1.37019,-0.66826 -1.57418,-0.7606 -1.63155,-0.73858 -0.0386,0.0147 -0.0393,0.0222 -0.006,0.0557 0.0216,0.0213 0.41521,0.2636 0.87463,0.5385 0.45941,0.27489 0.82889,0.50624 0.82104,0.51409 -0.016,0.016 -3.21235,-1.09921 -3.21241,-1.12081 -8e-5,-0.0249 2.4407,-0.88746 2.48254,-0.87739 0.0528,0.0127 4.70201,3.39088 4.70421,3.41814 0.002,0.0359 -0.0349,0.0191 -0.21867,-0.0974 z m -14.64384,0.55179 c -0.0104,-0.41006 -0.006,-0.69396 0.0168,-0.85812 l 0.0329,-0.24532 -0.10258,-0.14892 c -0.0564,-0.082 -0.1522,-0.19141 -0.21287,-0.24334 -0.11386,-0.0975 -0.3884,-0.21782 -0.43343,-0.18999 -0.0599,0.0371 -0.002,0.78532 0.0861,1.13006 0.0696,0.26981 0.27863,0.70379 0.4666,0.96876 0.0779,0.10984 0.1464,0.19969 0.15218,0.19969 0.006,0 0.003,-0.27577 -0.006,-0.61282 z m 2.53579,0.30935 c 0.22709,-0.33974 0.35959,-0.65482 0.44067,-1.04787 0.0462,-0.22386 0.0784,-0.88 0.0458,-0.93275 -0.0297,-0.048 -0.29909,0.0612 -0.43259,0.17557 -0.0607,0.0519 -0.15644,0.16143 -0.21285,0.24334 l -0.10258,0.14892 0.033,0.24532 c 0.0222,0.1653 0.0275,0.44745 0.0163,0.86501 l -0.0167,0.6197 0.0545,-0.0688 c 0.0299,-0.0379 0.10845,-0.14965 0.17447,-0.24838 z m -1.54509,-0.77756 c -0.008,-0.15527 -9.5e-4,-0.35047 0.0145,-0.43379 0.0356,-0.18963 -9.4e-4,-0.28507 -0.11328,-0.29803 -0.0592,-0.007 -0.10177,0.0161 -0.18571,0.10004 -0.0975,0.0975 -0.1088,0.12283 -0.10776,0.24295 4.7e-4,0.0738 0.0223,0.17279 0.0482,0.22013 0.0355,0.0649 0.33066,0.43975 0.35392,0.44939 0.002,9.4e-4 -0.002,-0.12542 -0.0104,-0.28069 z m 0.65664,-0.12934 c 0.06,-0.0927 0.0792,-0.15538 0.0792,-0.25799 0,-0.12116 -0.0115,-0.14713 -0.10891,-0.24445 -0.20249,-0.2025 -0.36424,-0.0937 -0.30076,0.20229 0.0192,0.0896 0.0253,0.25794 0.0155,0.42996 l -0.016,0.28277 0.12581,-0.14506 c 0.0692,-0.0798 0.16145,-0.20017 0.20504,-0.26752 z m 0.40538,0.0284 c 0.0807,-0.16913 0.0994,-0.24302 0.10926,-0.43099 0.0115,-0.22007 0.009,-0.22827 -0.0601,-0.27401 -0.0999,-0.0655 -0.1934,-0.0355 -0.24799,0.0796 -0.0388,0.0818 -0.041,0.14522 -0.017,0.50168 0.0151,0.22438 0.0203,0.43331 0.0115,0.46429 -0.0249,0.0878 0.0965,-0.11466 0.20427,-0.34059 z m -1.55991,-0.3252 c 0.008,-0.27454 0.006,-0.2833 -0.0669,-0.35673 -0.0646,-0.0648 -0.0856,-0.0715 -0.15141,-0.0485 -0.19092,0.0671 -0.17589,0.38299 0.0386,0.81052 l 0.13124,0.26166 0.0201,-0.1928 c 0.0115,-0.10604 0.0238,-0.31945 0.0283,-0.47424 z m 0.98793,-1.07107 c 0.42624,-0.0726 0.85954,-0.21143 1.73938,-0.55697 0.45859,-0.18009 0.85487,-0.33476 0.88066,-0.34372 0.0424,-0.0147 0.0454,-0.0568 0.0304,-0.43861 -0.0104,-0.27437 -0.005,-0.50402 0.0172,-0.65549 0.25757,-1.78366 2.08501,-2.48167 6.6809,-2.55183 1.50197,-0.0229 2.33642,0.0234 4.32262,0.23989 0.5445,0.0594 0.99506,0.10292 1.00122,0.0967 0.0304,-0.0303 -0.98544,-0.49372 -2.11518,-0.9649 -1.59449,-0.66501 -2.32841,-1.02073 -2.93455,-1.42234 -0.3348,-0.22181 -0.86626,-0.67877 -0.86626,-0.74482 0,-0.0464 0.55218,-0.28797 0.95107,-0.41609 0.37105,-0.11919 0.70723,-0.20133 1.94085,-0.47426 0.31054,-0.0687 0.65942,-0.15261 0.77529,-0.18646 l 0.21068,-0.0615 -1.33463,-0.28464 -1.33461,-0.28463 -0.54236,0.35884 c -0.29829,0.19737 -0.56385,0.36708 -0.59012,0.37713 -0.0365,0.0139 -0.019,-0.0427 0.0738,-0.23927 0.40189,-0.85134 0.54302,-2.17025 0.38575,-3.60502 -0.0714,-0.65074 -0.0822,-0.66951 -0.10315,-0.17792 -0.0305,0.71755 -0.1342,1.28296 -0.33064,1.80402 -0.0519,0.13783 -0.0589,0.14528 -0.0768,0.0827 -0.0104,-0.0379 -0.0219,-0.13083 -0.0245,-0.20657 -0.002,-0.0758 -0.0201,-0.18729 -0.0388,-0.24788 -0.0318,-0.10315 -0.0351,-0.0854 -0.053,0.27542 -0.0184,0.37463 -0.0877,0.79586 -0.1585,0.96397 l -0.0348,0.0827 -0.0207,-0.15147 c -0.0115,-0.0833 -0.035,-0.27965 -0.0525,-0.43632 -0.0175,-0.15665 -0.0537,-0.35494 -0.0805,-0.44067 l -0.0486,-0.15584 -0.0193,0.26165 c -0.0604,0.81883 -0.13692,1.24158 -0.26951,1.49015 l -0.0646,0.12106 -0.017,-0.53708 c -0.009,-0.29539 -0.0186,-0.55463 -0.0207,-0.57609 -0.008,-0.0876 -0.0355,0.008 -0.10212,0.3584 -0.0386,0.20305 -0.0946,0.4658 -0.1245,0.58391 -0.0588,0.23252 -0.17364,0.51513 -0.20933,0.51515 -0.0122,0 -0.0115,-0.12083 0.002,-0.26854 0.0246,-0.26786 0.003,-0.64037 -0.0363,-0.64037 -0.0115,0 -0.0364,0.0512 -0.0551,0.11398 -0.1126,0.37567 -0.4255,0.95669 -0.64613,1.19961 -0.0739,0.0814 -0.12972,0.15226 -0.12393,0.15738 0.0351,0.0311 0.22664,0.11478 0.3883,0.16984 0.29097,0.099 0.58826,0.13221 0.9916,0.11098 l 0.35453,-0.0188 -0.0404,0.0768 c -0.0508,0.0965 -0.27461,0.31115 -0.40586,0.38924 -0.0547,0.0326 -0.30499,0.12684 -0.55617,0.20951 -0.25118,0.0827 -0.52246,0.18337 -0.60284,0.22373 -0.22001,0.11053 -0.46772,0.29512 -0.61347,0.45724 l -0.1303,0.14492 0.0234,-0.16438 c 0.0444,-0.31205 0.0266,-0.69687 -0.0425,-0.9211 -0.0837,-0.27153 -0.15555,-0.4099 -0.44375,-0.8545 -0.42475,-0.65529 -0.52109,-0.89835 -0.54034,-1.36333 l -0.0126,-0.30297 0.0791,0.16525 c 0.0434,0.0908 0.10016,0.18268 0.12611,0.20399 0.0417,0.0343 0.0581,0.0281 0.14401,-0.0551 0.14739,-0.14265 0.31593,-0.42288 0.85153,-1.41584 0.95768,-1.77544 1.65836,-2.88383 2.32116,-3.67181 0.079,-0.094 0.11363,-0.15593 0.0966,-0.17296 -0.0337,-0.0337 -0.52534,0.38361 -1.02416,0.86938 -0.98529,0.95947 -1.80088,2.05724 -2.34637,3.15823 l -0.14519,0.29301 -0.18115,-0.05 c -0.5567,-0.1534 -1.15867,-0.19815 -1.69598,-0.1261 -0.39445,0.053 -0.70483,0.12952 -1.40464,0.34673 -1.05614,0.3278 -1.30305,0.37164 -2.0932,0.37164 -0.79225,0 -1.04803,-0.0454 -2.09321,-0.37057 -1.00156,-0.31172 -1.32021,-0.37218 -1.95549,-0.37109 -0.46924,9.4e-4 -0.83578,0.0501 -1.20045,0.16151 l -0.12631,0.0386 -0.16961,-0.33616 c -0.36653,-0.72637 -0.85608,-1.46365 -1.43562,-2.16206 -0.35593,-0.42893 -1.11696,-1.19563 -1.5564,-1.56802 -0.35428,-0.3002 -0.47282,-0.33822 -0.25637,-0.0822 0.068,0.0806 0.23885,0.30134 0.37948,0.4907 0.63079,0.84929 1.1397,1.68719 2.02415,3.33259 0.45259,0.84199 0.62482,1.12536 0.76843,1.26436 0.0859,0.0831 0.10235,0.0894 0.14401,0.055 0.0259,-0.0213 0.0816,-0.11305 0.12381,-0.20399 l 0.0768,-0.16525 9.4e-4,0.23235 c 0.002,0.43924 -0.13242,0.79272 -0.54387,1.42604 -0.29362,0.45198 -0.36529,0.5895 -0.4494,0.86241 -0.0691,0.22423 -0.0868,0.60905 -0.0425,0.9211 l 0.0234,0.16438 -0.1303,-0.14492 c -0.14575,-0.16211 -0.39348,-0.34674 -0.61347,-0.45724 -0.0804,-0.0404 -0.35167,-0.14104 -0.60285,-0.22372 -0.25118,-0.0827 -0.50146,-0.17698 -0.55616,-0.20952 -0.13126,-0.0781 -0.35512,-0.29279 -0.40588,-0.38924 l -0.0404,-0.0768 0.35453,0.0188 c 0.40335,0.0213 0.70064,-0.012 0.9916,-0.11086 0.16166,-0.055 0.3532,-0.13876 0.3883,-0.16984 0.006,-0.005 -0.05,-0.076 -0.12394,-0.15736 -0.21752,-0.23952 -0.5351,-0.82914 -0.64604,-1.19942 -0.0188,-0.0627 -0.0436,-0.11421 -0.0552,-0.11421 -0.0558,0 -0.0624,0.67663 -0.008,0.8607 0.0226,0.0766 -0.0393,0.0559 -0.0823,-0.0275 -0.0774,-0.14971 -0.15839,-0.44202 -0.25361,-0.91478 -0.0533,-0.26455 -0.10247,-0.48661 -0.10937,-0.49347 -0.0169,-0.0169 -0.0175,-0.008 -0.0368,0.60265 l -0.017,0.53707 -0.0611,-0.1142 c -0.12942,-0.24201 -0.2165,-0.72241 -0.27385,-1.51075 l -0.0181,-0.24787 -0.0488,0.15584 c -0.0269,0.0858 -0.0632,0.28403 -0.0807,0.44068 -0.0175,0.15665 -0.0411,0.35299 -0.0525,0.43631 l -0.0207,0.15148 -0.0348,-0.0827 c -0.07,-0.16612 -0.13907,-0.58778 -0.15802,-0.96397 -0.0182,-0.36124 -0.0215,-0.37863 -0.0533,-0.27542 -0.0186,0.0606 -0.0358,0.17833 -0.038,0.26165 -0.007,0.27767 -0.0372,0.28364 -0.12991,0.0261 -0.18008,-0.49997 -0.27438,-1.03965 -0.30293,-1.73376 -0.0206,-0.50076 -0.0266,-0.49063 -0.10695,0.17902 -0.0684,0.57041 -0.0695,1.7063 -0.002,2.18959 0.0851,0.61038 0.22349,1.10107 0.42135,1.49415 0.0515,0.10224 0.0809,0.18592 0.0656,0.18592 -0.0154,0 -0.28117,-0.16873 -0.59062,-0.37496 l -0.56262,-0.37496 -1.34201,0.28715 -1.34201,0.28716 0.38303,0.0999 c 0.21068,0.055 0.6805,0.16384 1.04406,0.24195 0.82081,0.17634 1.2928,0.29714 1.6663,0.42648 0.33091,0.11455 0.79872,0.32827 0.79872,0.36481 0,0.0406 -0.38475,0.39874 -0.60592,0.5639 -0.63279,0.47255 -1.32008,0.81811 -3.15358,1.5856 -1.17692,0.49266 -2.20803,0.95991 -2.18003,0.98791 0.006,0.006 0.46101,-0.0393 1.01235,-0.0994 1.99945,-0.21796 2.83026,-0.26421 4.33503,-0.2413 2.98802,0.0455 4.74187,0.35734 5.72877,1.01855 0.0908,0.0609 0.26142,0.20867 0.37899,0.32836 0.17621,0.17942 0.23751,0.26693 0.34898,0.49832 0.0744,0.15438 0.15631,0.37365 0.18207,0.48726 0.0565,0.24911 0.0816,0.82117 0.0479,1.09112 l -0.0245,0.196 0.42837,0.1673 c 0.2356,0.092 0.63906,0.24972 0.89659,0.35047 0.52052,0.20362 0.98248,0.34436 1.3358,0.40696 0.30724,0.0544 0.35647,0.0546 0.66303,0.002 z m -0.73016,-0.72496 c -0.47291,-0.13151 -0.94057,-0.44572 -1.59917,-1.07444 -0.22723,-0.21692 -0.41726,-0.40515 -0.4223,-0.41829 -0.008,-0.0207 0.18839,-0.37702 0.57883,-1.0504 l 0.10799,-0.18633 0.15882,0.21387 c 0.0874,0.11764 0.20488,0.25415 0.26115,0.30338 l 0.10235,0.0896 h 1.21353 c 1.06536,0 1.22268,-0.006 1.28848,-0.0443 0.0412,-0.0243 0.1423,-0.13712 0.22459,-0.25056 0.0823,-0.1134 0.16822,-0.22997 0.19095,-0.25891 0.0386,-0.0492 0.0639,-0.0136 0.38559,0.54175 0.18935,0.3269 0.3486,0.60646 0.35389,0.62124 0.0132,0.0371 -0.5337,0.58969 -0.83588,0.84464 -0.34176,0.28835 -0.6953,0.51109 -0.97554,0.61463 -0.31119,0.11501 -0.73475,0.13719 -1.03331,0.0541 z m -2.25472,-1.93251 c -0.0832,-0.44017 -0.31299,-0.88053 -0.54604,-1.04647 l -0.0922,-0.0656 0.0649,0.0912 c 0.0357,0.0501 0.082,0.14797 0.10292,0.21745 0.0402,0.13344 0.0524,0.44886 0.0174,0.44694 -0.0115,-4.7e-4 -0.0498,-0.0633 -0.0854,-0.13923 -0.0357,-0.076 -0.14738,-0.22185 -0.24831,-0.32419 -0.43436,-0.44044 -1.13702,-0.78954 -2.05689,-1.02195 -0.5745,-0.14516 -1.49432,-0.27583 -1.9435,-0.27611 -0.11145,-5e-5 -0.17371,-0.0151 -0.22285,-0.0538 -0.0659,-0.0518 -0.0688,-0.0688 -0.0867,-0.48888 -0.0104,-0.24832 -0.047,-0.60075 -0.0849,-0.82067 -0.0365,-0.21199 -0.0601,-0.3917 -0.0523,-0.39936 0.0227,-0.0224 0.14369,0.13887 0.22724,0.30282 0.13039,0.25591 0.27768,0.78061 0.27768,0.98925 v 0.0768 l 0.26853,0.0188 c 1.02871,0.0717 2.93567,0.53171 3.71151,0.89529 0.71357,0.33438 1.00908,0.77315 0.92348,1.37115 -0.0239,0.16741 -0.102,0.47718 -0.12028,0.47718 -0.003,0 -0.0282,-0.1127 -0.0543,-0.25049 z m 5.20346,0.11282 c -0.24308,-0.79297 0.0195,-1.32138 0.85013,-1.71062 0.77585,-0.36358 2.68279,-0.82357 3.71152,-0.89528 l 0.26853,-0.0188 v -0.0768 c 0,-0.20865 0.14728,-0.73334 0.27768,-0.98926 0.0836,-0.16395 0.20456,-0.32521 0.22723,-0.30281 0.008,0.008 -0.0158,0.18736 -0.0523,0.39936 -0.0379,0.21991 -0.0744,0.57235 -0.0848,0.82066 -0.0178,0.42003 -0.0208,0.43711 -0.0867,0.48888 -0.0492,0.0387 -0.11144,0.0536 -0.22285,0.0538 -0.44919,3e-4 -1.369,0.13094 -1.94351,0.27609 -0.91987,0.23242 -1.62252,0.58153 -2.05688,1.02196 -0.10096,0.10234 -0.21267,0.24823 -0.24831,0.32419 -0.0357,0.076 -0.0742,0.13861 -0.0854,0.13923 -0.035,0.002 -0.0228,-0.3135 0.0174,-0.44694 0.0209,-0.0695 0.0672,-0.16733 0.10292,-0.21745 l 0.0649,-0.0912 -0.0922,0.0656 c -0.2329,0.16584 -0.45723,0.59545 -0.54861,1.05062 l -0.0523,0.26012 z m -5.18138,-1.62806 c -0.20548,-0.0578 -0.86758,-0.37257 -0.86758,-0.41243 0,-0.0131 0.0341,-0.0181 0.0757,-0.0115 0.58943,0.0997 0.999,0.11714 1.22062,0.052 0.19795,-0.0581 0.28948,-0.11692 0.58777,-0.37746 0.1377,-0.12028 0.2881,-0.23489 0.33419,-0.25468 0.13238,-0.0569 0.39787,-0.0771 0.53287,-0.0409 0.13609,0.0366 0.12553,0.0588 -0.052,0.10948 -0.13317,0.038 -0.31911,0.15629 -0.34407,0.21892 -0.024,0.0601 0.38626,0.0234 0.55062,-0.0494 0.0721,-0.0319 0.13559,-0.0579 0.14123,-0.0579 0.07,0 -0.16295,0.26448 -0.28876,0.32789 -0.0595,0.0301 -0.18484,0.0558 -0.30808,0.0634 -0.22065,0.0137 -0.29564,0.0461 -0.64056,0.27692 -0.25282,0.1692 -0.36896,0.2121 -0.57011,0.21058 -0.0984,-9.4e-4 -0.26579,-0.0258 -0.37182,-0.0556 z m 4.62025,0.006 c -0.0644,-0.0302 -0.20376,-0.11098 -0.30983,-0.17952 -0.31413,-0.20322 -0.41023,-0.24316 -0.61978,-0.2576 -0.10603,-0.007 -0.23702,-0.0356 -0.29107,-0.0627 -0.10016,-0.0503 -0.30108,-0.25155 -0.30108,-0.30139 0,-0.0364 4.6e-4,-0.0363 0.15025,0.0299 0.13969,0.0618 0.53829,0.10741 0.53829,0.0616 0,-0.0709 -0.29992,-0.2545 -0.41839,-0.25605 -0.0981,-9.4e-4 -0.0738,-0.0546 0.0389,-0.0853 0.0891,-0.0244 0.16775,-0.0246 0.32246,-9.4e-4 0.22004,0.0337 0.25558,0.0554 0.66299,0.40474 0.36807,0.31558 0.58342,0.36136 1.28185,0.27242 0.18116,-0.023 0.36655,-0.049 0.412,-0.0578 0.074,-0.0143 0.0783,-0.0115 0.0413,0.0264 -0.0585,0.06 -0.55814,0.30489 -0.77118,0.37801 -0.25522,0.0876 -0.58316,0.10016 -0.73669,0.0283 z m -14.93478,-0.54779 c 0,-0.044 1.28741,-0.33114 2.05189,-0.45773 0.67765,-0.11225 1.63294,-0.20854 2.0696,-0.20871 0.12925,-6e-5 0.17316,-0.0104 0.18601,-0.0439 0.0577,-0.1503 0.0768,-0.95565 0.0297,-1.25754 -0.0208,-0.13404 0.0321,-0.0811 0.12403,0.12394 0.16541,0.36915 0.276,0.94994 0.2759,1.44888 l -4e-5,0.18299 -1.03968,0.002 c -0.57182,9.4e-4 -1.26895,0.0172 -1.54919,0.0355 -0.5865,0.0383 -1.99446,0.16192 -2.08632,0.18318 -0.0341,0.008 -0.0619,0.003 -0.0619,-0.009 z m 25.38445,-0.0351 c -1.21871,-0.12968 -2.61549,-0.2021 -3.6025,-0.18678 l -0.6296,0.0104 v -0.18299 c 0,-0.49931 0.11052,-1.0798 0.27594,-1.44889 0.096,-0.21428 0.14039,-0.25409 0.12276,-0.11018 -0.0427,0.34939 -0.0243,1.09948 0.0305,1.24247 0.0135,0.035 0.0552,0.0451 0.18652,0.0452 0.43665,2.1e-4 1.39195,0.0965 2.0696,0.20873 0.75985,0.12582 2.05188,0.41371 2.05188,0.45721 0,0.0124 -0.009,0.0208 -0.0207,0.0186 -0.0115,-0.002 -0.22937,-0.0261 -0.48448,-0.0532 z m -16.29024,-0.19126 c -0.61532,-0.086 -1.14676,-0.39862 -1.56378,-0.9198 -0.0972,-0.12147 -0.17668,-0.23646 -0.17668,-0.25554 0,-0.0191 0.10223,0.0336 0.22722,0.11719 0.12497,0.0836 0.37595,0.22471 0.55773,0.31372 0.80543,0.39439 1.53286,0.51289 1.97324,0.32145 0.0873,-0.038 0.078,-0.0394 -0.16924,-0.0267 -0.31102,0.0161 -0.61864,-0.033 -0.89598,-0.14295 -0.32046,-0.12705 -1.29129,-0.64481 -1.49032,-0.79482 -0.23554,-0.17754 -0.35705,-0.33684 -0.41448,-0.54343 -0.0248,-0.0892 -0.0538,-0.16212 -0.0644,-0.16212 -0.0652,0 -0.0436,0.47149 0.0276,0.60466 0.0515,0.0962 -0.0168,0.0631 -0.12099,-0.0586 -0.15408,-0.18001 -0.20883,-0.31711 -0.20883,-0.52288 0,-0.52841 0.42599,-1.06179 0.97774,-1.22425 0.20059,-0.0591 0.6036,-0.0609 0.78687,-0.003 0.10362,0.0325 1.87556,1.00511 2.42179,1.32938 0.10372,0.0616 0.20217,0.0953 0.31222,0.10695 0.40817,0.0434 0.48685,0.25968 0.17243,0.47401 -0.12093,0.0824 -0.12893,0.093 -0.0578,0.0766 0.24151,-0.0558 0.43328,-0.23597 0.47871,-0.44979 0.098,-0.46092 -0.34741,-1.08258 -1.19479,-1.66787 -0.4094,-0.28277 -0.63007,-0.47861 -0.70519,-0.62588 -0.11017,-0.21592 -0.0358,-0.64594 0.15349,-0.88751 0.0687,-0.0877 0.0728,-0.0363 0.0146,0.19064 -0.0693,0.27119 -0.0725,0.52742 -0.008,0.62061 0.0748,0.10753 0.13701,0.15221 0.50349,0.36129 0.18935,0.10799 0.44966,0.28011 0.57846,0.3824 0.25987,0.2064 0.65312,0.60345 0.79707,0.80479 0.0515,0.072 0.10212,0.13083 0.11259,0.13083 0.0237,0 0.12434,-0.46722 0.17721,-0.82251 0.034,-0.22858 0.0913,-0.94009 0.10016,-1.24268 l 0.002,-0.0968 0.0229,0.0964 c 0.0517,0.21715 0.0887,1.08307 0.0755,1.76686 l -0.0137,0.71193 h 0.4392 0.43919 l -0.0195,-0.11478 c -0.0324,-0.19127 -0.023,-1.55223 0.0136,-1.97838 0.0396,-0.46136 0.0815,-0.59324 0.0828,-0.26028 0.002,0.51372 0.0868,1.23134 0.20883,1.76668 l 0.0451,0.19817 0.1669,-0.21194 c 0.36513,-0.46366 0.79796,-0.82771 1.36019,-1.14407 0.40571,-0.22827 0.50656,-0.3234 0.52604,-0.49615 0.0147,-0.13055 -0.0305,-0.42663 -0.092,-0.60294 -0.0386,-0.11075 -0.0182,-0.1331 0.0504,-0.055 0.14974,0.17033 0.24691,0.58628 0.18764,0.80319 -0.045,0.16465 -0.25463,0.36826 -0.6907,0.67085 -0.66309,0.46012 -0.92764,0.7258 -1.13071,1.13557 -0.18694,0.37722 -0.17176,0.62993 0.0509,0.84725 0.091,0.0888 0.32714,0.2048 0.35669,0.17524 0.006,-0.006 -0.0329,-0.038 -0.0865,-0.0711 -0.12263,-0.0758 -0.20847,-0.18356 -0.20847,-0.26174 0,-0.12209 0.20991,-0.23466 0.43826,-0.23504 0.0562,-9e-5 0.14483,-0.0324 0.22034,-0.0801 0.0695,-0.044 0.62409,-0.35854 1.23244,-0.69897 1.08069,-0.60476 1.18004,-0.65101 1.48835,-0.69281 0.31254,-0.0424 0.77348,0.10925 1.03251,0.33956 0.38388,0.3414 0.56196,0.896 0.39497,1.23011 -0.0723,0.14464 -0.22359,0.34279 -0.26173,0.34279 -0.0126,0 -0.006,-0.0577 0.0158,-0.12831 0.0409,-0.1358 0.0488,-0.42798 0.014,-0.5167 -0.0165,-0.0419 -0.0283,-0.0246 -0.0575,0.0827 -0.055,0.20301 -0.12252,0.32195 -0.26114,0.46057 -0.18925,0.18926 -0.40965,0.32346 -1.09033,0.66391 -0.7399,0.37006 -0.88696,0.41468 -1.3674,0.41492 -0.35443,2.2e-4 -0.37596,0.0211 -0.091,0.0882 0.30826,0.0727 0.73667,0.0228 1.23388,-0.14343 0.32624,-0.10903 0.90137,-0.39364 1.16138,-0.57464 0.098,-0.0682 0.18346,-0.11864 0.19,-0.11214 0.0227,0.0227 -0.14864,0.24674 -0.3529,0.46174 -0.65623,0.69072 -1.51462,0.90749 -2.52939,0.63873 -0.14064,-0.0373 -0.35134,-0.10672 -0.4682,-0.15444 -0.19646,-0.0801 -0.2385,-0.11317 -0.55678,-0.43733 -0.18936,-0.19284 -0.38569,-0.37874 -0.43631,-0.41311 -0.136,-0.0923 -0.3989,-0.16533 -0.59567,-0.16533 h -0.17325 l -0.0117,-0.16188 c -0.007,-0.089 -0.033,-0.19439 -0.0591,-0.23411 -0.0466,-0.0713 -0.0518,-0.0722 -0.3752,-0.0722 -0.3214,0 -0.32899,0.001 -0.38496,0.0725 -0.0427,0.0542 -0.0571,0.11247 -0.0571,0.23073 v 0.15817 l -0.24448,0.0116 c -0.3739,0.018 -0.51114,0.0966 -0.9406,0.5396 -0.3619,0.37329 -0.44424,0.42888 -0.82549,0.55728 -0.43686,0.14712 -1.00781,0.21572 -1.3718,0.16485 z m 0.53916,-1.47456 c 0.19276,-0.0806 0.37422,-0.31097 0.35914,-0.45603 -0.008,-0.0776 -0.0419,-0.0976 -0.6939,-0.41115 -0.37698,-0.18127 -0.6917,-0.32958 -0.69938,-0.32958 -0.0345,0 0.022,0.4425 0.0744,0.58128 0.18686,0.4954 0.60515,0.76365 0.95977,0.61548 z m 7.12601,-0.0276 c 0.23622,-0.11259 0.4374,-0.38931 0.52353,-0.72001 0.043,-0.16495 0.0559,-0.45049 0.0204,-0.44723 -0.0115,9.4e-4 -0.32431,0.15287 -0.69543,0.3374 -0.74191,0.36886 -0.738,0.36542 -0.63764,0.56059 0.15661,0.30452 0.48217,0.41561 0.78911,0.26925 z m -5.62957,1.42671 c 0.25759,-0.42651 0.38225,-0.57789 0.56327,-0.68398 0.13995,-0.082 0.43353,-0.1481 0.65956,-0.1485 0.26237,-2.8e-4 0.54538,0.0321 0.50443,0.0581 -0.0199,0.0127 -0.0683,0.0231 -0.10752,0.0234 -0.0933,4.7e-4 -0.43741,0.0897 -0.63788,0.16512 -0.1927,0.0725 -0.57758,0.32403 -0.81733,0.53407 -0.0973,0.0853 -0.1882,0.15505 -0.20193,0.15505 -0.0137,0 0.003,-0.0465 0.0374,-0.10327 z m 3.41968,-0.0998 c -0.38092,-0.3342 -0.79754,-0.54665 -1.22115,-0.62265 -0.31745,-0.057 -0.33032,-0.0637 -0.1632,-0.0854 0.44008,-0.0573 0.85148,-0.002 1.07852,0.1429 0.15746,0.10108 0.27152,0.23335 0.44757,0.51922 0.19599,0.31825 0.17597,0.32475 -0.14174,0.0459 z m -3.24345,-1.93926 c -0.25808,-0.13766 -0.37285,-0.2193 -0.83456,-0.59359 -0.21581,-0.17494 -0.45568,-0.35906 -0.53306,-0.40914 -0.1855,-0.12008 -0.11892,-0.12731 0.18508,-0.0202 0.42294,0.14913 0.69885,0.31243 1.00174,0.59285 0.15542,0.14389 0.44245,0.47963 0.44245,0.51754 0,0.0366 -0.0776,0.0104 -0.26165,-0.0875 z m 3.01586,0.0836 c 0,-0.0115 0.087,-0.12287 0.19345,-0.24779 0.34974,-0.41072 0.72417,-0.67008 1.22644,-0.8496 0.33172,-0.11857 0.40657,-0.11294 0.20634,0.0155 -0.0816,0.0524 -0.32287,0.2367 -0.53614,0.40963 -0.44569,0.3614 -0.6219,0.48536 -0.86208,0.60645 -0.17349,0.0875 -0.22801,0.10316 -0.22801,0.0657 z"
         id="path13" />
      <circle
         style="fill:none;stroke:#ff0000;stroke-width:0.1;stroke-dasharray:none"
         id="path788-8-1-8-1-9-2-6-3-4-7-1-6-1-0-8-3-6-1-0-9"
         cx="575.25543"
         cy="-105.06779"
         r="19.954653" />
      <circle
         style="fill:none;stroke:#0000ff;stroke-width:0.1;stroke-linecap:round;stroke-dasharray:none;stroke-opacity:1;paint-order:markers stroke fill"
         id="path13019-1-33-3-83-70-3-7-5-9-5-4-1-5-2-2-8"
         cx="575.25543"
         cy="-120.07878"
         r="2" />
      <ellipse
         style="fill:none;stroke:#ff00ff;stroke-width:0.1;stroke-dasharray:none;stroke-opacity:1"
         id="path1138-9-4-0-0-1-2-0-0-1-8-3-0-3-8-3"
         cx="575.25543"
         cy="-105.06779"
         rx="18.492125"
         ry="18.492126" />
    </g>
  </g>
</svg>
