<?xml version="1.0" encoding="UTF-8" standalone="no"?>
<!-- Created with Inkscape (http://www.inkscape.org/) -->

<svg
   width="41.008999mm"
   height="41.008999mm"
   viewBox="0 0 41.008999 41.008999"
   version="1.1"
   id="svg1"
   inkscape:version="1.4.2 (f4327f4, 2025-05-13)"
   sodipodi:docname="182.svg"
   xmlns:inkscape="http://www.inkscape.org/namespaces/inkscape"
   xmlns:sodipodi="http://sodipodi.sourceforge.net/DTD/sodipodi-0.dtd"
   xmlns="http://www.w3.org/2000/svg"
   xmlns:svg="http://www.w3.org/2000/svg">
  <sodipodi:namedview
     id="namedview1"
     pagecolor="#ffffff"
     bordercolor="#000000"
     borderopacity="0.25"
     inkscape:showpageshadow="2"
     inkscape:pageopacity="0.0"
     inkscape:pagecheckerboard="0"
     inkscape:deskcolor="#d1d1d1"
     inkscape:document-units="mm"
     inkscape:zoom="1.5878906"
     inkscape:cx="108.3198"
     inkscape:cy="200.26568"
     inkscape:window-width="1050"
     inkscape:window-height="1081"
     inkscape:window-x="3737"
     inkscape:window-y="0"
     inkscape:window-maximized="0"
     inkscape:current-layer="layer1" />
  <defs
     id="defs1" />
  <g
     inkscape:label="Layer 1"
     inkscape:groupmode="layer"
     id="layer1"
     transform="translate(-0.7937635,-0.79375582)">
    <g
       id="g15636"
       transform="translate(29.829997,126.16991)">
      <path
         style="fill:#000000;stroke-width:0.1;stroke-dasharray:none"
         d="m -12.971386,-86.592822 c -7.695694,-1.892499 -13.216081,-8.205209 -14.245063,-16.289608 -0.741788,-5.82785 1.940772,-12.53172 6.54155,-16.3478 2.042243,-1.69391 5.566065,-3.44226 8.032097,-3.9851 6.7830141,-1.49313 14.202292,1.02657 18.5527472,6.30084 7.3358268,8.89356 5.1839848,21.930282 -4.6349908,28.080583 -3.9808593,2.493499 -9.615489,3.379892 -14.2463404,2.241085 z m 3.8796046,-2.347595 c -0.076148,-1.045489 -0.095989,-1.066242 -1.2098816,-1.266425 -2.06202,-0.370572 -2.311753,-0.457445 -2.196566,-0.764117 0.492741,-1.312102 0.487808,-1.321991 -0.95869,-1.921532 -0.768697,-0.318598 -2.060411,-1.067206 -2.870527,-1.663562 l -1.472904,-1.084302 -0.575667,0.612754 -0.575624,0.612743 -1.037048,-1.178522 -1.037058,-1.178511 -0.803768,0.474798 c -0.442086,0.261133 -0.803767,0.606469 -0.803767,0.767399 0,0.513579 3.22529,3.797482 4.674384,4.759347 2.277046,1.511407 5.999174,2.809427 8.237953,2.872823 0.6775872,0.0192 0.7033809,-0.0236 0.6291636,-1.042893 z m 5.8643924,0.154987 c 3.43241255,-1.238142 7.5438065,-4.241874 8.5989368,-6.282326 0.3966552,-0.767023 0.396001,-0.76875 -0.4846757,-1.243011 l -0.8818886,-0.474927 -1.1765164,1.334411 -1.1764843,1.334432 -0.4791952,-0.529485 c -0.62177397,-0.687058 -0.72937839,-0.674134 -2.07030982,0.248435 -0.62185978,0.427854 -1.85240898,1.105173 -2.73456578,1.505164 l -1.6038989,0.727244 0.2354792,0.821088 c 0.1295157,0.451589 0.2354899,0.835514 0.2354899,0.853146 0,0.01759 -0.6794962,0.108945 -1.5100011,0.202918 l -1.5099904,0.170828 v 1.154659 1.154637 l 1.3709509,-0.161122 c 0.7540353,-0.0887 2.1880387,-0.455868 3.1866694,-0.816091 z m -3.1629027,-5.698315 c -0.06864,-0.311434 -0.2466118,-1.302364 -0.3953682,-2.202067 -0.148735,-0.899713 -0.3275216,-1.829854 -0.3972666,-2.067006 -0.092879,-0.315585 0.1299662,-0.538441 0.8309768,-0.831256 0.5267715,-0.220056 1.2437625,-0.674006 1.5932704,-1.008796 l 0.6355342,-0.6087 2.132794,1.73973 c 1.17306297,0.956856 2.19981482,1.661471 2.28167911,1.565792 0.0819394,-0.09567 0.56400888,-0.943793 1.07144309,-1.884734 l 0.9225795,-1.710808 -0.8197799,-0.3364 c -0.450881,-0.18503 -1.61252181,-0.5892 -2.5814335,-0.89816 l -1.7616536,-0.56176 -0.010725,-1.85783 c -0.00965,-1.65482 0.045796,-1.87539 0.5033266,-2.01856 0.2825192,-0.0884 1.39025591,-0.4944 2.46164541,-0.9022 2.20572429,-0.83958 2.16437919,-0.58867 0.52270671,-3.17078 l -0.85133294,-1.339 -1.52410458,1.339 c -2.609887,2.29291 -2.6907002,2.34042 -3.1983812,1.88097 -0.241217,-0.21831 -0.8705629,-0.57741 -1.3985356,-0.79801 -0.8902863,-0.37199 -0.9489309,-0.45938 -0.8085937,-1.20501 0.083226,-0.44216 0.3070797,-1.62019 0.4974385,-2.61782 0.1903911,-0.99766 0.2847179,-1.87534 0.2096426,-1.95043 -0.1731774,-0.17316 -3.9513544,-0.18053 -4.1238564,-0.008 -0.07068,0.0707 0.01083,0.89171 0.181082,1.82458 0.7192644,3.9412 0.7523297,3.52094 -0.311831,3.96557 -0.522664,0.21838 -1.201613,0.63314 -1.508768,0.92171 l -0.558453,0.52464 -2.005166,-1.69212 c -1.102857,-0.93068 -2.08422,-1.71011 -2.180832,-1.73208 -0.1923,-0.0438 -2.128085,3.25921 -2.128085,3.63102 0,0.12642 0.12233,0.22986 0.271869,0.22986 0.149539,0 1.263153,0.36717 2.474709,0.81592 l 2.20285,0.81592 v 1.78681 1.78679 l -2.47472,0.81116 c -1.361094,0.44613 -2.474708,0.90513 -2.474708,1.02 0,0.31992 1.864946,3.528384 2.052431,3.531033 0.09073,9.54e-4 0.656952,-0.401021 1.258327,-0.893987 0.601354,-0.492977 1.319889,-1.075004 1.596713,-1.293408 0.276846,-0.218398 0.702705,-0.569798 0.9464,-0.780898 0.400827,-0.34724 0.497084,-0.33306 1.010085,0.14889 0.311884,0.293 0.990201,0.709507 1.507341,0.925595 1.0616837,0.443599 1.0813857,0.545251 0.56284,2.902799 -0.634612,2.885049 -0.709076,2.768328 1.7664587,2.768328 2.0925751,0 2.140945,-0.01362 2.0190656,-0.566261 z m -16.0133343,-2.894154 c 0.425602,-0.242225 0.774541,-0.506115 0.77541,-0.586414 0,-0.08033 -0.272095,-0.816422 -0.606577,-1.635827 l -0.608185,-1.48983 0.752641,-0.2592 0.75262,-0.2592 0.04429,-3.32759 0.04429,-3.32758 -0.804818,-0.15083 -0.804829,-0.15084 0.507102,-1.35536 c 0.563783,-1.50683 0.516293,-1.69993 -0.554292,-2.25355 l -0.744093,-0.3848 -0.461918,1.07866 c -1.262102,2.94733 -1.669214,7.44305 -0.930762,10.27822 0.512829,1.968836 1.402203,4.264554 1.65214,4.264554 0.117246,0 0.561392,-0.198177 0.986983,-0.440413 z M 7.0296511,-98.17343 c 1.3674008,-3.17861 1.7300469,-7.2886 0.9406511,-10.66062 -0.401889,-1.71664 -1.2639148,-3.70777 -1.6042206,-3.70546 -0.10103,7.6e-4 -0.5034446,0.25718 -0.8943404,0.56999 l -0.7106739,0.56873 0.5512139,1.4733 c 0.5807185,1.55209 0.4761063,1.90355 -0.5694572,1.91286 -0.3805033,0.004 -0.4262564,0.2707 -0.377511,2.20593 0.030566,1.21115 -0.034857,2.72983 -0.145303,3.37485 -0.1988639,1.16158 -0.1934692,1.17438 0.5662397,1.34124 0.9011508,0.19794 0.9350526,0.44977 0.2695419,2.00235 l -0.4975028,1.160611 0.8120792,0.495143 c 0.446634,0.272331 0.8830791,0.495562 0.9698555,0.496087 0.086766,4.94e-4 0.3969984,-0.555236 0.6894276,-1.235011 z m -25.2524711,-16.77601 0.529957,0.66463 1.655915,-1.11043 c 0.91075,-0.61073 2.18421,-1.31217 2.829901,-1.55875 1.125197,-0.42973 1.170725,-0.48587 1.095928,-1.35165 l -0.07808,-0.9033 1.447077,-0.2178 1.4470775,-0.21779 v -1.13251 -1.1325 l -1.1954135,0.16742 c -3.676236,0.51483 -6.957715,2.07867 -9.605022,4.57742 -1.049768,0.99087 -2.110561,2.14889 -2.357301,2.57339 l -0.448597,0.77179 0.939021,0.48174 0.938989,0.48175 1.135289,-1.37902 1.135289,-1.37901 z m 23.7385017,0.57654 c -0.5867674,-1.09689 -3.1379456,-3.54821 -4.89475148,-4.70317 -1.97395602,-1.29772 -5.08178562,-2.43293 -7.02177542,-2.5649 l -1.2583271,-0.0856 -0.077435,1.06958 c -0.05931,0.81977 0.011368,1.06957 0.3022104,1.06957 0.2087524,0 0.9618117,0.12487 1.6734509,0.27748 1.2881749,0.27627 1.2932049,0.28115 1.1384854,1.1058 -0.1523386,0.81199 -0.1242926,0.84291 1.4239218,1.57141 0.8686325,0.40871 2.1292762,1.16529 2.80143644,1.68128 l 1.22217296,0.93817 0.6170442,-0.57966 0.6169907,-0.57967 0.8568027,1.00133 c 0.4712157,0.55073 0.8610284,1.08859 0.86623,1.1952 0.00536,0.10661 0.4646091,-0.0383 1.0209067,-0.32215 0.926966,-0.4729 0.9865115,-0.56269 0.7125937,-1.07469 z"
         id="path6583-0"
         sodipodi:nodetypes="ssssssssscsscccccsssssssscccssscssscccssssssscssscssccssscssssssccsscssssscccsscsssssssssccscccccccsscsssccsscscscsssscsssccssscccccssscccccccsscsssssscccscscc" />
      <circle
         style="fill:none;stroke:#ff0000;stroke-width:0.1;stroke-dasharray:none"
         id="path788-8-1-8-1-9-2-9-3-7-1-2-04"
         cx="-8.5317345"
         cy="-104.87166"
         r="19.954653" />
      <circle
         style="fill:none;stroke:#0000ff;stroke-width:0.1;stroke-linecap:round;stroke-dasharray:none;stroke-opacity:1;paint-order:markers stroke fill"
         id="path13019-1-33-5-7-7-4-6-7"
         cx="-8.5317383"
         cy="-119.88263"
         r="2" />
    </g>
  </g>
</svg>
