<?xml version="1.0" encoding="UTF-8" standalone="no"?>
<!-- Created with Inkscape (http://www.inkscape.org/) -->

<svg
   width="41.008999mm"
   height="41.008999mm"
   viewBox="0 0 41.008999 41.008999"
   version="1.1"
   id="svg1"
   inkscape:version="1.4.2 (f4327f4, 2025-05-13)"
   sodipodi:docname="183.svg"
   xmlns:inkscape="http://www.inkscape.org/namespaces/inkscape"
   xmlns:sodipodi="http://sodipodi.sourceforge.net/DTD/sodipodi-0.dtd"
   xmlns="http://www.w3.org/2000/svg"
   xmlns:svg="http://www.w3.org/2000/svg">
  <sodipodi:namedview
     id="namedview1"
     pagecolor="#ffffff"
     bordercolor="#000000"
     borderopacity="0.25"
     inkscape:showpageshadow="2"
     inkscape:pageopacity="0.0"
     inkscape:pagecheckerboard="0"
     inkscape:deskcolor="#d1d1d1"
     inkscape:document-units="mm"
     inkscape:zoom="1.5878906"
     inkscape:cx="108.3198"
     inkscape:cy="200.26568"
     inkscape:window-width="1050"
     inkscape:window-height="1081"
     inkscape:window-x="3737"
     inkscape:window-y="0"
     inkscape:window-maximized="0"
     inkscape:current-layer="layer1" />
  <defs
     id="defs1" />
  <g
     inkscape:label="Layer 1"
     inkscape:groupmode="layer"
     id="layer1"
     transform="translate(-0.7937635,-0.79375582)">
    <g
       id="g15631"
       transform="translate(-12.369778,126.16276)">
      <path
         style="fill:#000000;stroke-width:0.1;stroke-dasharray:none"
         d="m 30.417137,-86.63097 c -3.596547,-0.645642 -6.899809,-2.352384 -9.541533,-4.929959 -1.854721,-1.809674 -2.269346,-2.638966 -1.135448,-2.271002 1.23281,0.400065 2.807865,0.488031 3.121557,0.17434 0.173185,-0.173175 0.809131,-0.314879 1.413222,-0.314879 1.265991,0 1.355775,-0.649126 0.110169,-0.796581 -0.79298,-0.09386 -1.06914,-0.617581 -0.325665,-0.617581 0.236672,0 0.575292,-0.318193 0.752486,-0.707087 0.210012,-0.460922 0.552523,-0.707087 0.983856,-0.707087 1.0896,0 0.771953,-0.75627 -0.398943,-0.949798 -1.720863,-0.284445 -1.979117,-0.221802 -2.166691,0.525542 -0.160133,0.63802 -0.317658,0.707087 -1.612726,0.707087 -1.197395,0 -1.459775,0.09375 -1.583189,0.565671 -0.241921,0.925105 -1.03274,0.653114 -1.527346,-0.525296 -0.349674,-0.833109 -0.656321,-1.125378 -1.319975,-1.258113 -0.767046,-0.153399 -0.918434,-0.357531 -1.343161,-1.810957 -0.482655,-1.6517 -0.901962,-4.89065 -0.633135,-4.89065 0.07985,0 0.702031,0.31032 1.382746,0.6896 0.680714,0.37928 2.383149,1.0223 3.783179,1.42894 4.411686,1.28137 7.591128,1.63766 14.707362,1.64813 5.598958,0.009 6.880759,-0.0734 9.201191,-0.58671 2.840897,-0.62833 5.694546,-1.58866 6.629731,-2.23106 1.412143,-0.97005 1.715775,-0.0501 0.456754,1.38381 -0.453076,0.51603 -0.866728,1.31594 -0.919215,1.77756 -0.123499,1.086236 -0.910129,1.133068 -1.033425,0.0615 -0.10027,-0.87144 -0.148951,-0.89713 -0.919022,-0.48501 -0.763368,0.40855 -0.807357,3.07242 -0.05206,3.156003 0.272226,0.03015 -0.777789,0.125584 -2.333378,0.212129 -2.662377,0.148117 -2.833638,0.194693 -2.918718,0.793727 -0.08584,0.604529 0.0021,0.636374 1.767706,0.636374 1.669542,0 1.858099,0.0574 1.858099,0.565671 0,0.534233 -0.188557,0.565661 -3.394007,0.565661 -3.467799,0 -4.580713,0.389525 -1.909132,0.668208 3.02801,0.315862 3.888966,0.518893 3.888966,0.917087 0,0.261066 -0.329256,0.39455 -0.97322,0.39455 -0.53528,0 -1.051896,0.127272 -1.148029,0.28283 -0.0961,0.155558 -1.185498,0.28283 -2.420788,0.28283 -1.807868,0 -2.245978,0.08274 -2.245978,0.424257 0,0.306401 0.314258,0.424245 1.131332,0.424245 1.512242,0 1.591806,0.775448 0.09257,0.902143 -1.15283,0.09738 -1.567925,0.638929 -0.669801,0.873794 0.317476,0.08306 0.577227,0.353779 0.577227,0.601675 0,0.37131 -0.364265,0.450735 -2.067191,0.450735 -1.346817,0 -2.258517,0.140806 -2.616218,0.404042 -0.511645,0.376558 -0.515323,0.417115 -0.05409,0.595934 0.272237,0.105508 0.494959,0.432808 0.494959,0.72728 0,0.475727 -0.212802,0.531699 -1.909121,0.502142 -1.050026,-0.01828 -2.481869,-0.136081 -3.18189,-0.26175 z m -0.07066,-7.807607 c 1.403676,-0.168599 1.484876,-0.222593 1.484876,-0.987458 0,-0.73349 -0.09097,-0.809099 -0.97322,-0.809099 -0.53528,0 -1.051896,0.127272 -1.14803,0.28283 -0.0961,0.155558 -0.617239,0.282831 -1.157982,0.282831 -0.977303,0 -2.377451,0.685429 -2.377451,1.163871 0,0.290837 2.036127,0.323559 4.171807,0.06703 z m -10.39415,-2.944587 c 0,-0.146386 -0.190909,-0.266144 -0.424246,-0.266144 -0.437383,0 -0.561908,0.333736 -0.243385,0.652259 0.225961,0.225961 0.667631,-0.0295 0.667631,-0.386115 z m 10.243018,-3.668176 c -5.789375,-0.47065 -11.183474,-1.75876 -13.849154,-3.30717 -1.110957,-0.64532 -1.201724,-0.78727 -1.197854,-1.87339 0.01069,-2.92296 1.588203,-7.08642 3.79016,-10.00135 3.211821,-4.25175 8.079512,-6.80634 13.502355,-7.08611 2.904875,-0.14985 4.887243,0.0701 4.614097,0.51213 -0.09129,0.1477 -0.540283,0.26855 -0.997774,0.26855 -0.457501,0 -0.831815,0.11334 -0.831815,0.25188 0,0.23827 0.422386,0.33605 3.34523,0.77439 0.934544,0.14017 1.284004,0.34149 1.477874,0.8514 0.139651,0.36731 0.364532,0.66783 0.499747,0.66783 0.135215,0 0.615646,0.31804 1.067632,0.70674 0.451985,0.38871 1.108157,0.70689 1.458162,0.70709 0.350005,1.9e-4 0.636373,0.12761 0.636373,0.28318 0,0.15556 -0.193645,0.28283 -0.430317,0.28283 -0.710764,0 -1.144042,1.29345 -0.706884,2.1103 0.306541,0.57276 0.617603,0.70571 1.814218,0.77537 1.05784,0.0616 1.444243,0.19758 1.444243,0.50834 0,0.28608 -0.345419,0.45284 -1.06063,0.51203 -0.69381,0.0574 -1.06063,0.2286 -1.06063,0.49495 0,0.22396 0.19092,0.40719 0.424257,0.40719 0.233336,0 0.424245,0.19491 0.424245,0.43312 0,0.23822 -0.190909,0.50639 -0.424245,0.59593 -0.233337,0.0896 -0.424257,0.46737 -0.424257,0.83963 0,0.6613 0.05569,0.67683 2.427662,0.67683 1.81582,0 2.398232,0.089 2.310929,0.35353 -0.07194,0.21788 -0.774711,0.38556 -1.83145,0.43695 -1.561959,0.076 -1.726432,0.14469 -1.846179,0.77115 -0.156958,0.82107 -0.02983,0.98387 0.768029,0.98387 0.331864,0 0.724297,0.11078 0.872073,0.24617 0.147786,0.13539 0.873248,0.32387 1.612159,0.41883 1.288108,0.16557 1.34346,0.14377 1.34346,-0.52899 0,-0.51312 0.152009,-0.70168 0.565671,-0.70168 0.471388,0 0.565661,0.18856 0.565661,1.13133 0,1.07381 0.326039,1.46506 0.707087,0.8485 0.0961,-0.15555 0.358204,-0.28283 0.582358,-0.28283 0.608976,0 0.540005,2.05887 -0.08744,2.60898 -2.748665,2.41003 -13.085198,4.007 -21.505094,3.3225 z m -3.637467,-5.18901 c 1.319098,-0.55115 2.908851,-2.02335 3.767978,-3.48935 1.09302,-1.8651 1.225617,-4.58946 0.306787,-6.30381 -1.637847,-3.0559 -5.562185,-3.44185 -8.527083,-0.83863 -2.810377,2.46754 -3.462133,6.8762 -1.382019,9.34828 1.34113,1.59385 3.797996,2.13434 5.834337,1.28351 z m -3.22806,-0.44499 c -2.657898,-0.80651 -3.72011,-3.36957 -2.74705,-6.62843 0.474306,-1.58849 2.824113,-3.97263 4.362577,-4.42632 3.115121,-0.91866 5.577717,1.1164 5.546139,4.58324 -0.02533,2.78425 -1.908298,5.39898 -4.574128,6.3519 -1.151664,0.41166 -1.562472,0.43066 -2.587538,0.11961 z m 3.270348,-4.82482 c 0.09685,-0.15665 -0.02843,-0.36329 -0.278351,-0.45919 -0.541523,-0.20781 -0.843328,0.0212 -0.583021,0.44237 0.234855,0.38001 0.632109,0.38777 0.861372,0.0168 z"
         id="path6583-9"
         sodipodi:nodetypes="ssssssssssssssssssscsssssssssssssssssssssssssssssssssssssssssscsssssssssssssssssssssssssssssssssssssssssssssssssssss" />
      <circle
         style="fill:none;stroke:#ff0000;stroke-width:0.1;stroke-dasharray:none"
         id="path788-8-1-8-1-9-2-2-9-1-0-0-4"
         cx="33.668041"
         cy="-104.86451"
         r="19.954653" />
      <circle
         style="fill:none;stroke:#0000ff;stroke-width:0.1;stroke-linecap:round;stroke-dasharray:none;stroke-opacity:1;paint-order:markers stroke fill"
         id="path13019-1-33-4-5-5-5-5-7"
         cx="33.668037"
         cy="-119.87548"
         r="2" />
    </g>
  </g>
</svg>
