<?xml version="1.0" encoding="UTF-8" standalone="no"?>
<!-- Created with Inkscape (http://www.inkscape.org/) -->

<svg
   width="41.008999mm"
   height="41.008999mm"
   viewBox="0 0 41.008999 41.009"
   version="1.1"
   id="svg1"
   inkscape:version="1.4.2 (f4327f4, 2025-05-13)"
   sodipodi:docname="222.svg"
   xmlns:inkscape="http://www.inkscape.org/namespaces/inkscape"
   xmlns:sodipodi="http://sodipodi.sourceforge.net/DTD/sodipodi-0.dtd"
   xmlns="http://www.w3.org/2000/svg"
   xmlns:svg="http://www.w3.org/2000/svg">
  <sodipodi:namedview
     id="namedview1"
     pagecolor="#ffffff"
     bordercolor="#000000"
     borderopacity="0.25"
     inkscape:showpageshadow="2"
     inkscape:pageopacity="0.0"
     inkscape:pagecheckerboard="0"
     inkscape:deskcolor="#d1d1d1"
     inkscape:document-units="mm"
     inkscape:zoom="2.0485264"
     inkscape:cx="68.341808"
     inkscape:cy="134.73099"
     inkscape:window-width="1050"
     inkscape:window-height="1081"
     inkscape:window-x="3737"
     inkscape:window-y="0"
     inkscape:window-maximized="0"
     inkscape:current-layer="layer1" />
  <defs
     id="defs1" />
  <g
     inkscape:label="Layer 1"
     inkscape:groupmode="layer"
     id="layer1"
     transform="translate(-114.0891,-77.774176)">
    <g
       id="g153"
       transform="translate(-303.45749,402.14608)">
      <circle
         style="fill:none;stroke:#ff0000;stroke-width:0.1;stroke-dasharray:none"
         id="path788-8-1-8-1-9-2-9-3-7-1-2-04-7-7-6"
         cx="438.05109"
         cy="-303.8674"
         r="19.954653" />
      <ellipse
         style="fill:none;stroke:#ff00ff;stroke-width:0.1;stroke-dasharray:none;stroke-opacity:1"
         id="path1138-9-4-0-0-1-2-25-0-9-29-6-3-1-5-4"
         cx="438.05109"
         cy="-303.8674"
         rx="18.492125"
         ry="18.492126" />
      <circle
         style="fill:none;stroke:#0000ff;stroke-width:0.1;stroke-linecap:round;stroke-dasharray:none;stroke-opacity:1;paint-order:markers stroke fill"
         id="path13019-1-33-5-7-7-4-6-7-8-1-3"
         cx="438.05109"
         cy="-318.87836"
         r="2" />
      <path
         style="fill:#000000;stroke-width:0.126555"
         d="m 436.41834,-286.89381 c -0.0611,-0.0276 -0.14848,-0.0797 -0.19422,-0.1157 -0.083,-0.0653 -0.0834,-0.0653 -0.25042,0.0186 -0.23766,0.11937 -0.53779,0.1192 -0.75184,0 -0.11749,-0.0656 -0.17055,-0.0788 -0.21705,-0.054 -0.19063,0.10203 -0.51633,-0.0105 -0.72872,-0.2518 -0.19033,-0.21621 -0.27765,-0.49635 -0.29974,-0.96157 -0.0282,-0.59313 0.051,-1.05564 0.2899,-1.69585 0.16343,-0.43777 0.3166,-1.29663 0.38123,-2.13742 l 0.0133,-0.17413 -0.1205,0.0509 c -0.0663,0.028 -0.42184,0.17648 -0.79018,0.33007 -1.0342,0.43126 -1.4342,0.60882 -1.93725,0.85995 -0.55079,0.27495 -0.70675,0.37221 -1.20301,0.75017 -0.20658,0.15733 -0.48782,0.34177 -0.62498,0.40989 -0.22133,0.10988 -0.27786,0.12382 -0.50227,0.12372 -0.22374,-1e-4 -0.27794,-0.0134 -0.47052,-0.11555 -0.29288,-0.15537 -0.73689,-0.60527 -0.94768,-0.96025 -0.25741,-0.43351 -0.63137,-1.37587 -0.75784,-1.90975 l -0.0409,-0.17298 -0.11995,0.0501 c -0.20738,0.0866 -0.49535,-0.007 -0.61272,-0.19968 -0.17613,-0.28885 0.025,-0.69057 0.40309,-0.80519 0.14918,-0.0452 0.15064,-0.047 0.15478,-0.20057 0.008,-0.29005 0.22927,-0.49511 0.5601,-0.51862 0.18912,-0.0134 0.21495,-0.0251 0.31518,-0.14158 0.20251,-0.23543 0.54129,-0.29172 0.80191,-0.13322 0.0931,0.0566 0.11013,0.0581 0.14715,0.0136 0.12564,-0.15139 0.49132,-0.20402 0.69295,-0.0998 0.21122,0.10921 0.40855,0.45071 0.40855,0.70696 0,0.078 0.0216,0.11713 0.0826,0.14979 0.072,0.0386 0.17363,0.0261 0.79525,-0.0976 1.39813,-0.2782 2.39841,-0.53334 3.25744,-0.8309 0.51775,-0.17934 0.56973,-0.21697 0.51532,-0.37301 -0.0359,-0.10281 -0.026,-0.35794 0.0183,-0.47262 0.0143,-0.037 -0.0471,-0.0801 -0.23516,-0.16453 -0.81983,-0.36817 -1.68463,-1.18301 -2.01013,-1.89399 l -0.0846,-0.18468 -0.11474,0.0875 c -0.16655,0.12705 -0.33477,0.17698 -0.60171,0.17865 -0.63347,0.004 -1.13886,-0.26776 -2.17515,-1.16947 -0.42166,-0.36687 -0.82875,-0.66862 -1.11616,-0.82726 -0.43677,-0.24111 -0.68471,-0.44325 -0.79663,-0.64947 -0.0462,-0.085 -0.0622,-0.18468 -0.0621,-0.38425 0,-0.23759 0.0134,-0.29633 0.11199,-0.49653 0.19616,-0.39846 0.64646,-0.76231 1.16625,-0.94234 0.63859,-0.2212 1.66646,-0.18664 2.43373,0.0818 0.10823,0.0378 0.33485,0.14154 0.50364,0.2304 l 0.30689,0.16155 -0.0408,-0.20305 c -0.11469,-0.57001 -0.15789,-1.08953 -0.15886,-1.91079 -9.7e-4,-1.15493 0.10328,-2.00457 0.38298,-3.10882 0.29262,-1.15526 0.68599,-2.19057 1.41827,-3.73278 0.50433,-1.06209 0.58936,-1.39251 0.47561,-1.84812 -0.0758,-0.30373 -0.314,-0.76737 -0.57164,-1.1128 -0.21617,-0.28981 -0.21752,-0.29299 -0.12581,-0.29299 0.051,0 0.20413,0.0534 0.34029,0.11864 0.30438,0.14588 0.73127,0.55791 0.91784,0.88588 0.0886,0.15568 0.11795,0.18905 0.10324,0.1172 -0.0498,-0.24321 -0.15264,-0.6221 -0.23113,-0.85134 -0.10163,-0.29689 -0.10551,-0.34267 -0.0265,-0.31392 0.18923,0.0689 0.40296,0.2701 0.60263,0.56734 0.0625,0.093 0.0192,-0.20483 -0.0798,-0.55019 -0.13524,-0.47136 -0.36064,-0.86003 -0.70578,-1.21694 -0.0824,-0.0853 -0.1353,-0.16414 -0.11739,-0.17521 0.0179,-0.011 0.106,0.002 0.19575,0.0292 0.46029,0.13915 1.00947,0.63504 1.29868,1.17271 l 0.0895,0.16642 -0.0193,-0.41856 c -0.0106,-0.2302 -0.0413,-0.5843 -0.0682,-0.78687 -0.0267,-0.2026 -0.0488,-0.3721 -0.049,-0.37671 0,-0.005 0.0136,-0.009 0.0305,-0.009 0.0624,0 0.38666,0.49286 0.54074,0.82199 0.16044,0.34273 0.33225,0.82941 0.40134,1.13684 0.0605,0.26923 0.0763,0.27969 0.10125,0.067 0.0417,-0.35509 0.0323,-0.94171 -0.0212,-1.32522 -0.0286,-0.20529 -0.0423,-0.38285 -0.0303,-0.39461 0.0388,-0.0381 0.38023,0.36052 0.53537,0.62505 0.0831,0.14173 0.19894,0.37437 0.25739,0.51701 l 0.10627,0.25933 0.1408,-0.43709 c 0.16356,-0.5078 0.47552,-1.16312 0.69635,-1.46281 0.25671,-0.34838 0.26135,-0.33647 0.23479,0.60272 -0.0246,0.87016 0.007,1.69519 0.0582,1.51517 0.10215,-0.35955 0.22849,-1.69357 0.22991,-2.42762 9.7e-4,-0.33264 0.021,-0.46879 0.0702,-0.46879 0.0457,0 0.31049,0.55358 0.4245,0.88734 0.13452,0.3938 0.2301,0.77512 0.30336,1.21017 l 0.0594,0.35257 0.0952,-0.24562 c 0.23941,-0.61764 0.7299,-1.4343 0.86143,-1.4343 0.015,0 0.0292,0.32018 0.0316,0.71154 0.003,0.39134 0.0137,0.82454 0.0251,0.96266 l 0.0207,0.25114 0.13861,-0.3181 c 0.15258,-0.35017 0.24291,-0.61791 0.3427,-1.0158 0.0362,-0.14433 0.0758,-0.2724 0.088,-0.2846 0.0122,-0.0122 0.0656,0.0264 0.11866,0.0857 0.11729,0.13128 0.23189,0.49126 0.26145,0.8213 l 0.0216,0.24133 0.12323,-0.16808 c 0.21624,-0.29492 0.60534,-0.62563 0.8813,-0.74903 0.15848,-0.0709 0.37718,-0.13306 0.39727,-0.11297 0.0101,0.0101 -0.0397,0.0881 -0.11066,0.17328 -0.31468,0.37804 -0.55372,1.10344 -0.61926,1.87938 -0.0117,0.13812 -0.029,0.32647 -0.0384,0.41855 -0.0166,0.16156 -0.0136,0.15746 0.0854,-0.11719 0.12614,-0.35013 0.3558,-0.80749 0.55879,-1.11284 0.18164,-0.27322 0.46404,-0.58775 0.49788,-0.55452 0.0132,0.013 -0.002,0.2164 -0.0345,0.45204 -0.084,0.61424 -0.10477,1.94486 -0.0386,2.47259 0.1119,0.89244 0.27827,1.45892 0.80394,2.73743 0.3785,0.92053 0.49723,1.27081 0.65601,1.9352 0.38056,1.59243 0.39154,3.14022 0.0332,4.67755 -0.0356,0.15265 -0.0648,0.28464 -0.0648,0.29333 0,0.009 0.13521,-0.0521 0.30047,-0.13513 0.81098,-0.40729 1.74563,-0.48551 2.56301,-0.21448 0.70443,0.23359 1.19236,0.73595 1.19698,1.23238 0.004,0.37425 -0.20193,0.65 -0.91288,1.22551 -0.39266,0.31785 -0.65727,0.57767 -1.27021,1.24721 -0.5332,0.58242 -0.86553,0.8181 -1.31651,0.93363 -0.27317,0.07 -0.54559,0.0415 -0.79467,-0.0829 l -0.18973,-0.0948 -0.0781,0.1367 c -0.43582,0.76317 -1.5785,1.66986 -2.60061,2.06355 -0.0719,0.0277 -0.0719,0.0277 0.009,0.18619 0.13009,0.25697 0.0907,0.61085 -0.0821,0.73743 -0.0435,0.0319 -0.0454,0.058 -0.012,0.16743 0.0389,0.12765 0.0471,0.13279 0.53388,0.33798 0.27191,0.1146 0.97858,0.41779 1.5704,0.67376 1.06076,0.45878 2.25134,0.94408 2.30953,0.9414 0.0164,-9.8e-4 0.0918,-0.0575 0.16744,-0.12594 0.10176,-0.0922 0.15173,-0.17313 0.19179,-0.31093 0.0661,-0.22733 0.24547,-0.47051 0.40179,-0.5447 0.1567,-0.0744 0.39776,-0.0698 0.55508,0.0104 0.11842,0.0604 0.28192,0.21959 0.3094,0.30124 0.008,0.0234 0.0523,0.0231 0.13934,-9.7e-4 0.29673,-0.0821 0.63122,0.10585 0.74493,0.41844 0.0252,0.0692 0.0727,0.11067 0.16264,0.1418 0.33742,0.11681 0.50002,0.32209 0.48158,0.60795 -0.01,0.14849 -0.003,0.16247 0.12383,0.25881 0.0853,0.0648 0.15131,0.15162 0.1818,0.23892 0.0429,0.12273 0.0418,0.15306 -0.0104,0.28957 -0.0784,0.20535 -0.22808,0.34434 -0.4252,0.39486 -0.15171,0.0389 -0.16744,0.0537 -0.26195,0.24557 -0.41123,0.83537 -1.40077,1.87442 -2.09407,2.19885 -0.47817,0.22377 -0.88853,0.18163 -1.30684,-0.1342 -0.18894,-0.14265 -0.26318,-0.21376 -0.72245,-0.69212 -0.45561,-0.47452 -0.69317,-0.68566 -1.04546,-0.92916 -0.48567,-0.33573 -2.02322,-1.25014 -2.05262,-1.22076 -0.0267,0.0267 0.0586,0.82697 0.12122,1.13663 0.0361,0.17827 0.12532,0.49104 0.1984,0.69505 0.22306,0.62266 0.24338,1.18315 0.064,1.76451 -0.22448,0.72745 -0.58646,1.09643 -1.01288,1.03249 -0.10855,-0.0162 -0.15296,-0.009 -0.18674,0.0321 -0.0244,0.0294 -0.1275,0.0776 -0.22918,0.10714 -0.21757,0.0632 -0.4147,0.0452 -0.61329,-0.0561 -0.124,-0.0633 -0.14244,-0.065 -0.19409,-0.0183 -0.0314,0.0284 -0.12413,0.0753 -0.20609,0.10425 -0.2431,0.0858 -0.52584,0.0133 -0.75641,-0.19407 -0.0711,-0.064 -0.17507,-0.12617 -0.23106,-0.13831 -0.31353,-0.068 -0.4833,-0.33414 -0.48384,-0.75869 0,-0.48473 0.1017,-0.82866 0.40539,-1.36232 0.24965,-0.43876 0.42343,-0.81123 0.46524,-0.99732 0.0315,-0.1402 0.16489,-1.01767 0.16652,-1.0954 0,-0.0138 -0.0377,-0.0251 -0.0845,-0.0251 -0.0901,0 -0.33139,-0.10983 -0.3667,-0.16694 -0.0115,-0.0187 -0.0473,-0.0339 -0.0794,-0.0339 -0.0321,0 -0.13295,-0.048 -0.22404,-0.10681 -0.15144,-0.0977 -0.18565,-0.10604 -0.4,-0.0978 -0.19019,0.008 -0.25017,0.0235 -0.31809,0.086 -0.10555,0.097 -0.21184,0.15209 -0.29356,0.15209 -0.035,0 -0.11355,0.0622 -0.17464,0.13824 -0.10583,0.13168 -0.11078,0.15028 -0.10478,0.39343 0.01,0.40633 0.0669,0.79399 0.14993,1.02291 0.0423,0.11657 0.18406,0.40589 0.31499,0.64294 0.31019,0.5616 0.41209,0.86724 0.43399,1.30159 0.0192,0.38261 -0.0183,0.5671 -0.14664,0.71961 -0.11883,0.14121 -0.24775,0.20122 -0.43232,0.20122 -0.12641,0 -0.16834,0.0159 -0.22175,0.0837 -0.17438,0.22169 -0.59231,0.34115 -0.82497,0.23579 z m 0.44588,-0.21474 c 0.16796,-0.0767 0.34048,-0.25163 0.38132,-0.38661 0.0172,-0.0568 0.0405,-0.19223 0.0519,-0.30099 0.024,-0.23041 0.0999,-0.409 0.19552,-0.46014 0.061,-0.0327 0.065,-0.0286 0.0421,0.043 -0.014,0.0436 -0.0375,0.21777 -0.0523,0.3872 -0.0149,0.16945 -0.0367,0.33895 -0.0487,0.3767 -0.0369,0.11639 0.13629,0.0892 0.26746,-0.042 0.27354,-0.27352 0.16923,-1.00289 -0.25253,-1.76588 -0.4549,-0.823 -0.49647,-0.99563 -0.52361,-2.17509 -0.0155,-0.6731 -0.0299,-0.86559 -0.0678,-0.90929 -0.0672,-0.0774 -0.14394,-0.34791 -0.14394,-0.50752 0,-0.11233 -0.0208,-0.15305 -0.12988,-0.25418 -0.0805,-0.0747 -0.15328,-0.18664 -0.19144,-0.29458 -0.0615,-0.17417 -0.0615,-0.17417 -0.19659,-0.15723 -0.27077,0.0339 -0.49346,-0.17214 -0.53782,-0.49772 -0.0177,-0.13017 -0.0519,-0.20661 -0.13266,-0.29625 -0.0598,-0.0664 -0.11618,-0.14179 -0.12528,-0.16743 -0.0261,-0.0736 -0.0408,-0.0387 -0.17165,0.40545 -0.17772,0.60348 -0.25253,1.03484 -0.30774,1.77467 -0.0921,1.23302 -0.18762,1.78535 -0.43671,2.52334 -0.21039,0.62338 -0.26136,0.89776 -0.26212,1.41107 -9.7e-4,0.57101 0.0618,0.79942 0.28204,1.02787 0.1411,0.1464 0.16883,0.16081 0.30927,0.16081 0.15426,0 0.15426,0 0.10444,-0.0999 -0.0274,-0.0549 -0.0451,-0.14779 -0.0393,-0.20636 0.0105,-0.10648 0.0105,-0.10648 0.14446,0.072 0.20398,0.27186 0.28266,0.31762 0.5464,0.31779 0.29112,0 0.45287,-0.0644 0.43219,-0.17257 -0.008,-0.0432 -0.008,-0.0785 0.002,-0.0785 0.01,0 0.0842,0.055 0.16637,0.12236 0.25656,0.21024 0.4643,0.25505 0.69466,0.14983 z m 2.78323,0.0129 c 0.0655,-0.0273 0.17642,-0.0952 0.24651,-0.15068 0.15371,-0.12175 0.17529,-0.12483 0.14934,-0.0214 -0.0168,0.0671 -0.003,0.0855 0.0881,0.11721 0.0594,0.0207 0.19323,0.0376 0.29738,0.0376 0.23391,0 0.44524,-0.12175 0.5708,-0.32888 0.0461,-0.0759 0.0955,-0.13849 0.10988,-0.13899 0.0546,-0.002 0.0598,0.0963 0.0112,0.21284 -0.0482,0.11551 -0.0475,0.1211 0.0159,0.1211 0.11943,0 0.31719,-0.12598 0.41158,-0.2622 0.14255,-0.20568 0.28521,-0.58934 0.34365,-0.92415 0.0761,-0.43611 0.0472,-0.78302 -0.10357,-1.24192 -0.28831,-0.87752 -0.3189,-1.0791 -0.35304,-2.3265 -0.0318,-1.16046 -0.0782,-1.53542 -0.26936,-2.17647 -0.0577,-0.19338 -0.10937,-0.35611 -0.11488,-0.36163 -0.006,-0.006 -0.0666,0.0284 -0.13573,0.0752 -0.15621,0.10601 -0.3445,0.1587 -0.47434,0.13273 -0.099,-0.0198 -0.099,-0.0198 -0.10377,0.16198 -0.003,0.1 -0.0204,0.22285 -0.0395,0.27304 -0.019,0.0502 -0.035,0.16186 -0.0354,0.24814 -9.7e-4,0.30028 -0.15318,0.51352 -0.44486,0.62501 -0.13123,0.0502 -0.14097,0.0628 -0.1496,0.19457 -0.005,0.0775 -0.0458,0.21625 -0.0904,0.30833 -0.0678,0.13976 -0.0981,0.31681 -0.18377,1.0715 -0.1468,1.29331 -0.16229,1.35744 -0.45325,1.87513 -0.42155,0.75 -0.53401,1.03617 -0.57392,1.46052 -0.0269,0.28668 0.0324,0.54265 0.14654,0.63247 0.097,0.0763 0.14814,0.0862 0.12431,0.0241 -0.009,-0.0234 -0.0214,-0.19296 -0.0274,-0.37672 -0.006,-0.18374 -0.0231,-0.36998 -0.0379,-0.41389 -0.0205,-0.061 -0.0159,-0.0762 0.0198,-0.0643 0.095,0.0317 0.17003,0.22667 0.1957,0.50827 0.0287,0.31453 0.10072,0.46721 0.28783,0.60991 0.1929,0.14714 0.37844,0.17889 0.57227,0.0979 z m 6.93954,-1.78712 c 0.64084,-0.24351 1.67584,-1.25833 2.12999,-2.08846 l 0.12326,-0.22532 -0.0948,-0.0816 c -0.11562,-0.0995 -0.0949,-0.13051 0.0579,-0.0867 0.25073,0.0719 0.45915,0.009 0.54993,-0.16691 0.075,-0.14495 0.0622,-0.25508 -0.043,-0.37289 l -0.0938,-0.10498 -0.14894,0.10285 c -0.16958,0.11708 -0.40025,0.17558 -0.39987,0.10141 0,-0.0251 0.0528,-0.0814 0.11707,-0.12516 0.15779,-0.10745 0.25102,-0.26759 0.25102,-0.43111 0,-0.1144 -0.02,-0.15253 -0.13403,-0.25555 -0.0737,-0.0666 -0.15347,-0.1211 -0.17723,-0.1211 -0.0237,0 -0.0604,0.0641 -0.0814,0.1423 -0.0458,0.17061 -0.23489,0.40135 -0.37723,0.46031 -0.14248,0.059 -0.15932,0.0226 -0.0537,-0.11596 0.22674,-0.29726 0.28306,-0.61873 0.14443,-0.82443 -0.0932,-0.13841 -0.20192,-0.19683 -0.36732,-0.19748 h -0.12556 l -0.002,0.20929 c -0.002,0.22399 -0.0916,0.56415 -0.15363,0.58485 -0.0259,0.009 -0.0416,-0.10054 -0.0503,-0.34893 -0.01,-0.28291 -0.0277,-0.39061 -0.082,-0.49543 -0.14303,-0.27598 -0.44438,-0.36843 -0.64652,-0.19834 -0.14908,0.12545 -0.30255,0.4697 -0.32725,0.73399 -0.0113,0.12095 -0.0335,0.22797 -0.0495,0.23781 -0.0159,0.01 -0.0557,-0.0451 -0.0884,-0.12203 l -0.0594,-0.13994 -0.1891,0.1628 c -0.10401,0.0895 -0.27201,0.26462 -0.37333,0.38904 -0.10134,0.12442 -0.1917,0.21416 -0.20081,0.19943 -0.0276,-0.0446 0.0947,-0.28123 0.2395,-0.46355 l 0.13649,-0.17184 -0.49155,-0.15965 c -0.63204,-0.20529 -1.5946,-0.58996 -2.71139,-1.08355 -0.17116,-0.0756 -0.33242,-0.13757 -0.35833,-0.13757 -0.0935,0 -0.48224,0.51213 -0.64805,0.85386 l -0.16249,0.33484 0.0143,0.47542 0.0143,0.47541 0.64199,0.34233 c 1.4189,0.75655 1.78657,1.01636 2.60098,1.83789 0.35913,0.36226 0.70942,0.7005 0.77844,0.75167 0.25741,0.19079 0.59208,0.23713 0.89135,0.12342 z m -16.63095,-1.25514 c 0.11623,-0.0659 0.39007,-0.2536 0.60855,-0.41697 0.68886,-0.51514 1.26479,-0.79589 3.13537,-1.52843 0.50644,-0.19832 0.93082,-0.37031 0.94305,-0.38219 0.0122,-0.0119 0.0433,-0.1702 0.069,-0.35181 l 0.0468,-0.33021 -0.16652,-0.23903 c -0.30964,-0.44446 -0.60194,-0.77932 -0.90008,-1.03118 l -0.15841,-0.13382 -0.41083,0.11743 c -0.79377,0.22692 -1.63492,0.41379 -2.44516,0.54322 l -0.36011,0.0576 0.0691,0.1039 c 0.10845,0.16304 0.20306,0.39444 0.19224,0.47013 -0.008,0.0531 -0.046,0.015 -0.1664,-0.16533 -0.086,-0.12893 -0.2093,-0.28526 -0.27383,-0.34744 l -0.11729,-0.11304 -0.0355,0.12978 c -0.0371,0.13593 -0.1834,0.34488 -0.21763,0.311 -0.0109,-0.0108 -0.003,-0.0688 0.0182,-0.12894 0.0231,-0.0664 0.0314,-0.22546 0.0212,-0.4057 -0.0276,-0.48378 -0.20841,-0.75441 -0.49902,-0.74678 -0.26029,0.007 -0.41332,0.20505 -0.5397,0.69912 -0.0412,0.16129 -0.09,0.2949 -0.10849,0.29693 -0.0588,0.007 -0.0582,-0.50421 9.7e-4,-0.70752 0.0626,-0.2153 0.0449,-0.24174 -0.16162,-0.24256 -0.16635,-9.7e-4 -0.31196,0.0772 -0.39313,0.21039 -0.0985,0.1615 -0.0904,0.49886 0.0169,0.71096 0.0454,0.0896 0.0747,0.17096 0.065,0.18058 -0.01,0.01 -0.058,-0.005 -0.10768,-0.0318 -0.1293,-0.0707 -0.27696,-0.38308 -0.28182,-0.59611 -0.004,-0.16656 -0.007,-0.17098 -0.0903,-0.1516 -0.38895,0.0898 -0.47476,0.38236 -0.20278,0.69134 0.0732,0.0832 0.13313,0.16777 0.13313,0.18797 0,0.0982 -0.27571,-0.0282 -0.39659,-0.18191 -0.0557,-0.0709 -0.076,-0.0762 -0.1798,-0.0476 -0.14679,0.0405 -0.34671,0.23144 -0.37001,0.35336 -0.01,0.0509 -0.002,0.12666 0.017,0.16848 0.035,0.0769 0.20958,0.17971 0.30509,0.17971 0.10167,0 0.22519,-0.0801 0.29319,-0.19012 0.0856,-0.13855 0.1369,-0.11444 0.11031,0.0518 -0.0159,0.0991 0.0168,0.2308 0.15535,0.62581 0.4967,1.41643 0.97294,2.15029 1.58903,2.44859 0.24221,0.11728 0.50682,0.0946 0.79321,-0.068 z m 7.34706,-1.78833 c 0.0288,-0.15206 0.0801,-0.13598 0.0801,0.0251 0,0.16848 0.0433,0.16979 0.19897,0.006 0.13385,-0.14069 0.20146,-0.32358 0.22814,-0.61716 0.0155,-0.16994 0.0104,-0.19254 -0.0432,-0.19254 -0.0743,0 -0.35049,-0.28157 -0.35049,-0.3573 0,-0.0381 0.0361,-0.0177 0.11816,0.0669 0.065,0.0669 0.1499,0.13866 0.18869,0.15943 0.0657,0.0352 0.069,0.0313 0.0481,-0.058 -0.10535,-0.44937 -0.28087,-0.75027 -0.67514,-1.1574 -0.38384,-0.39637 -0.65619,-0.73502 -0.84171,-1.04658 -0.0958,-0.1608 -0.17865,-0.30606 -0.18423,-0.32278 -0.006,-0.0167 -0.15325,-0.0695 -0.32817,-0.11739 -0.17492,-0.0478 -0.3444,-0.0947 -0.37664,-0.10416 -0.0455,-0.0133 -0.0586,0.003 -0.0586,0.0723 0,0.17448 0.075,0.38851 0.15938,0.4549 0.10094,0.0794 0.17925,0.0832 0.31106,0.0151 0.0888,-0.0459 0.0988,-0.0458 0.0988,0 0,0.0686 -0.19422,0.18425 -0.30972,0.18441 -0.11553,0 -0.11964,0.0658 -0.0167,0.2676 0.0894,0.17534 0.14321,0.20202 0.17243,0.0856 0.0425,-0.16929 0.0871,-0.0815 0.0886,0.17433 9.8e-4,0.27298 0.0534,0.47171 0.15122,0.57982 0.0918,0.10139 0.33437,0.0868 0.56382,-0.0339 0.22025,-0.11586 0.25463,-0.0676 0.0684,0.096 -0.1331,0.11685 -0.13236,0.15805 0.007,0.37846 0.0782,0.12383 0.228,0.22696 0.3298,0.22696 0.0293,0 0.1129,-0.0304 0.18581,-0.0677 0.1349,-0.0688 0.16192,-0.0497 0.0981,0.0695 -0.0409,0.0765 -0.20197,0.16557 -0.29934,0.16557 -0.0581,0 -0.066,0.0148 -0.0489,0.0921 0.0517,0.23397 0.12387,0.40698 0.19933,0.47787 0.0702,0.0659 0.0945,0.0718 0.16509,0.0396 0.0456,-0.0207 0.12123,-0.0986 0.16818,-0.17295 0.10469,-0.16584 0.16601,-0.17796 0.13338,-0.0264 -0.0537,0.24936 -0.18623,0.39344 -0.36186,0.39344 -0.091,0 -0.0959,0.007 -0.0762,0.10464 0.0115,0.0576 0.0214,0.19693 0.022,0.30973 l 9.7e-4,0.20508 0.0825,-0.13393 c 0.0454,-0.0737 0.0918,-0.18291 0.10314,-0.24276 z m 1.95162,0.004 c 0.0485,-0.32636 0.0498,-0.31822 -0.0437,-0.29475 -0.10233,0.0257 -0.30061,-0.0663 -0.39122,-0.18152 -0.0877,-0.11149 -0.0377,-0.12751 0.12524,-0.0402 0.15347,0.0822 0.22264,0.0858 0.32785,0.0169 0.12796,-0.0838 0.21527,-0.33681 0.24059,-0.6971 0.0125,-0.1774 0.0353,-0.32256 0.0507,-0.32256 0.0155,0 0.0451,0.0678 0.066,0.15068 0.0209,0.0828 0.049,0.15068 0.0625,0.15068 0.0135,0 0.075,-0.0339 0.13653,-0.0754 0.11223,-0.0756 0.20538,-0.20808 0.24917,-0.35434 0.0211,-0.0705 0.0167,-0.0747 -0.0445,-0.0418 -0.15747,0.0843 -0.49378,-0.0135 -0.57621,-0.16753 -0.0547,-0.10225 -0.0215,-0.11059 0.13096,-0.0329 0.24345,0.1242 0.43758,0.0735 0.52147,-0.13608 0.071,-0.17724 0.10453,-0.48228 0.0564,-0.51202 -0.0206,-0.0127 -0.0375,-0.0427 -0.0375,-0.0666 0,-0.0352 0.0324,-0.0349 0.17344,0.002 0.23594,0.0612 0.40626,0.0134 0.57158,-0.16014 0.069,-0.0725 0.12557,-0.14365 0.12557,-0.15804 0,-0.0144 -0.0706,-0.0476 -0.15691,-0.0739 -0.22061,-0.0672 -0.22839,-0.13147 -0.0159,-0.13147 0.23512,0 0.35113,-0.1031 0.44008,-0.3911 0.0371,-0.12028 0.0676,-0.22974 0.0676,-0.24325 0,-0.0135 -0.15445,0.0204 -0.34322,0.0754 l -0.34321,0.10005 -0.13275,0.27129 c -0.18651,0.38114 -0.58017,0.77502 -1.0392,1.03974 -0.64313,0.3709 -0.77136,0.45296 -0.94292,0.60345 -0.24922,0.21859 -0.34691,0.43251 -0.34365,0.75254 9.7e-4,0.13911 0.0206,0.31321 0.0428,0.38687 0.0331,0.11026 0.0569,0.13587 0.13484,0.14487 0.0631,0.008 0.12144,-0.0142 0.17492,-0.0645 0.0976,-0.0917 0.10749,-0.0386 0.0119,0.0639 -0.0604,0.0648 -0.12795,0.0899 -0.20798,0.0773 -0.10082,-0.016 0.0974,0.25884 0.24224,0.33584 0.15942,0.0847 0.30278,0.0778 0.44939,-0.0217 0.14563,-0.0988 0.15386,-0.10038 0.15386,-0.0291 0,0.0301 -0.0527,0.10434 -0.11713,0.16509 -0.11189,0.10554 -0.11375,0.11099 -0.0418,0.12222 0.16096,0.0251 0.18348,-9.7e-4 0.22231,-0.26256 z m -1.08102,-0.16584 c -0.0111,-0.0292 -0.0203,-0.0736 -0.0203,-0.0987 0,-0.0252 -0.0363,-0.0849 -0.0806,-0.13274 l -0.0806,-0.087 -0.0365,0.17061 c -0.0201,0.0938 -0.0366,0.1774 -0.0366,0.1857 0,0.009 0.0618,0.0151 0.13751,0.0151 0.11165,0 0.13371,-0.01 0.11721,-0.053 z m -0.0555,-0.43628 c -0.0204,-0.0532 -0.0377,-0.21334 -0.0385,-0.35587 -9.7e-4,-0.21448 0.0139,-0.29055 0.0877,-0.44125 0.11765,-0.24044 0.40769,-0.50496 0.81552,-0.74379 0.71782,-0.42034 0.83709,-0.50241 1.06243,-0.73103 0.20311,-0.20605 0.50729,-0.64361 0.47198,-0.67892 -0.007,-0.007 -0.0496,-0.003 -0.0956,0.009 -0.054,0.0135 -0.13996,0.10357 -0.24288,0.25419 -0.23134,0.33858 -0.53389,0.5952 -0.98556,0.83597 -0.4918,0.26214 -0.80445,0.46984 -0.95031,0.63129 -0.25579,0.28313 -0.34713,0.84325 -0.19399,1.18947 0.0756,0.17105 0.13276,0.19661 0.0692,0.031 z m -0.26666,-0.85012 c 9.7e-4,-0.11878 -0.1669,-0.45593 -0.32457,-0.65294 -0.0737,-0.0921 -0.29168,-0.33672 -0.48444,-0.54364 -0.19276,-0.20691 -0.4069,-0.47268 -0.47587,-0.5906 -0.10094,-0.1726 -0.14557,-0.21843 -0.22896,-0.23512 -0.057,-0.0114 -0.10877,-0.0155 -0.11512,-0.009 -0.0373,0.0373 0.50675,0.77011 0.8247,1.11063 0.40636,0.43523 0.59007,0.68209 0.68968,0.92688 0.065,0.15994 0.11363,0.15737 0.11458,-0.006 z m 3.9919,-0.2818 c 0.0387,-0.0568 0.15854,-0.19412 0.26629,-0.30516 l 0.19593,-0.20189 -0.25325,-0.12532 c -0.13927,-0.0689 -0.26545,-0.11776 -0.28037,-0.10853 -0.015,0.01 -0.0357,0.0592 -0.046,0.11115 -0.0104,0.0519 -0.0771,0.16001 -0.14834,0.24026 l -0.12946,0.14589 0.059,0.23759 c 0.0325,0.13067 0.0682,0.28231 0.0795,0.33698 0.0206,0.0994 0.0206,0.0994 0.10347,-0.0642 0.0456,-0.0899 0.11456,-0.21003 0.15326,-0.26683 z m -7.00519,0.14873 c 0.0326,-0.12101 0.0274,-0.1458 -0.0573,-0.2737 -0.077,-0.1163 -0.0941,-0.18084 -0.099,-0.37275 -0.005,-0.1894 -0.0196,-0.24679 -0.0809,-0.312 -0.0529,-0.0563 -0.0795,-0.1341 -0.0902,-0.26311 -0.0152,-0.18319 -0.0152,-0.18319 -0.10323,-0.13888 -0.0484,0.0244 -0.22702,0.0935 -0.3969,0.15372 l -0.30885,0.10941 0.12469,0.0906 c 0.20028,0.14551 0.61517,0.6062 0.79539,0.88317 0.0915,0.14066 0.16959,0.25594 0.17349,0.25616 0.004,0 0.0232,-0.0594 0.0429,-0.13262 z m 3.42633,-0.48911 c 0.16448,-0.14661 0.40204,-0.2989 1.08686,-0.69677 0.2333,-0.13555 0.46621,-0.34265 0.60759,-0.54028 l 0.11466,-0.16026 -0.14813,0.0241 c -1.0054,0.16379 -2.15882,0.18851 -3.05604,0.0655 l -0.16087,-0.0221 0.064,0.10526 c 0.0781,0.12836 0.27901,0.37822 0.67636,0.84087 0.16549,0.1927 0.34808,0.4389 0.40576,0.54712 l 0.10487,0.19676 0.0588,-0.0966 c 0.0324,-0.0532 0.1431,-0.1718 0.24616,-0.26366 z m -3.16482,-0.35871 c 0.24191,-0.67389 0.23047,-0.6026 0.12892,-0.80332 -0.0494,-0.0975 -0.10588,-0.26904 -0.12561,-0.38117 -0.0292,-0.16588 -0.0512,-0.21087 -0.11834,-0.24143 -0.0453,-0.0206 -0.0867,-0.0375 -0.092,-0.0375 -0.0173,0 -0.0169,0.11475 9.8e-4,0.24071 0.0124,0.0891 0.0306,0.11842 0.0649,0.10524 0.077,-0.0296 0.0561,0.0295 -0.0897,0.25397 -0.1647,0.25349 -0.2059,0.37963 -0.17859,0.54692 0.0248,0.1516 0.0472,0.15618 0.12188,0.0249 0.0314,-0.0551 0.0728,-0.10024 0.0921,-0.10024 0.0448,0 0.0446,0.004 -0.0157,0.2934 -0.046,0.22065 -0.0449,0.2983 0.007,0.48763 0.0254,0.0927 0.046,0.0534 0.20488,-0.38906 z m 6.38932,0.0898 c 0.1164,-0.19861 0.12068,-0.45794 0.0118,-0.71109 -0.0861,-0.20026 -0.0623,-0.26399 0.05,-0.13353 l 0.0768,0.0892 0.0375,-0.0824 c 0.0571,-0.12536 0.0437,-0.38076 -0.0285,-0.53969 -0.0356,-0.0783 -0.0784,-0.14229 -0.0951,-0.14229 -0.0167,0 -0.0405,0.0855 -0.0528,0.18988 -0.0241,0.20513 -0.12103,0.45513 -0.21831,0.56309 -0.11163,0.12392 -0.11091,0.21736 0.005,0.577 0.0604,0.1882 0.11289,0.34265 0.11672,0.34322 0.004,0 0.0476,-0.0684 0.0974,-0.15338 z m -2.00875,-1.33393 c 1.81097,-0.23098 3.11344,-0.76817 4.20776,-1.73542 0.41481,-0.36663 0.89433,-1.04792 0.89433,-1.27058 0,-0.0328 0.0151,-0.0595 0.0335,-0.0595 0.0468,0 0.0392,0.15988 -0.0147,0.31086 -0.0452,0.12671 -0.0452,0.12671 0.0911,0.19625 0.29956,0.15283 0.71839,0.10596 1.09549,-0.12257 0.21536,-0.1305 0.58515,-0.49923 0.97331,-0.97051 0.40068,-0.48645 0.53144,-0.61736 1.05249,-1.0537 0.51979,-0.43531 0.70334,-0.62291 0.77339,-0.79057 0.24231,-0.57991 -0.58814,-1.21058 -1.67995,-1.27579 -1.17325,-0.0701 -2.3065,0.51499 -2.85525,1.4741 l -0.14325,0.25036 0.12166,0.15939 c 0.13966,0.18296 0.32696,0.53893 0.31013,0.58941 -0.006,0.0188 -0.0733,-0.0541 -0.14905,-0.1618 -0.22559,-0.32104 -0.40182,-0.50176 -0.65061,-0.66716 -0.27406,-0.1822 -0.44109,-0.25098 -0.96736,-0.39843 -0.54909,-0.15384 -0.69986,-0.23746 -1.32264,-0.73352 -0.67502,-0.53767 -1.18434,-0.8122 -1.80712,-0.97401 -0.84084,-0.21846 -1.67699,-0.18398 -2.50196,0.10317 -0.63397,0.22067 -1.09892,0.49573 -1.7181,1.01642 -0.35177,0.29581 -0.47666,0.36345 -1.05475,0.57122 -0.26705,0.096 -0.57385,0.22089 -0.6818,0.27759 -0.31806,0.16706 -0.66344,0.51523 -0.94989,0.95758 -0.005,0.008 -0.0179,0.005 -0.0286,-0.006 -0.0283,-0.0283 0.0919,-0.28188 0.2295,-0.48427 l 0.11868,-0.17455 -0.11338,-0.18828 c -0.4119,-0.68402 -1.10237,-1.10664 -2.14061,-1.3102 -0.43139,-0.0846 -1.15047,-0.0769 -1.49459,0.0159 -0.6678,0.1802 -1.14376,0.57126 -1.26785,1.04169 -0.085,0.32224 0.0567,0.53246 0.55739,0.82716 0.44628,0.26265 0.75658,0.50181 1.40142,1.08009 0.64399,0.5775 0.92885,0.78247 1.30933,0.94208 0.44613,0.18715 0.94789,0.17318 1.13319,-0.0316 0.0523,-0.0578 0.0526,-0.0759 0.004,-0.23926 -0.0567,-0.19092 -0.0703,-0.36558 -0.0244,-0.31359 0.0155,0.0175 0.0622,0.12976 0.10388,0.24946 0.22993,0.65997 0.82374,1.39146 1.49147,1.83727 0.87308,0.58292 2.15192,0.98302 3.54991,1.11066 0.43138,0.0394 1.63719,0.011 2.11379,-0.0498 z m -1.44076,-0.5044 c -0.33061,-0.0539 -0.7723,-0.16796 -0.85428,-0.22076 -0.057,-0.0366 -0.0201,-0.0331 0.56117,0.0544 1.34268,0.20229 2.47783,-0.018 3.26937,-0.6344 0.12864,-0.10017 0.24061,-0.17541 0.24884,-0.16717 0.0249,0.0248 -0.20112,0.2454 -0.43211,0.4218 -0.28204,0.21539 -0.63823,0.38251 -1.03672,0.48641 -0.40875,0.10658 -1.28519,0.13635 -1.75627,0.0596 z m 0.0858,-0.28644 c -0.87848,-0.0995 -1.41534,-0.33101 -1.85978,-0.80214 -0.22304,-0.23644 -0.49417,-0.71693 -0.54325,-0.96275 -0.0133,-0.0667 -0.0603,-0.13695 -0.11978,-0.17934 -0.0938,-0.0668 -0.10063,-0.0673 -0.16328,-0.0105 -0.084,0.076 -0.12042,0.0396 -0.0703,-0.0704 0.0517,-0.11357 0.24084,-0.19323 0.35534,-0.14969 0.12506,0.0475 0.10403,0.1009 -0.0403,0.10212 -0.12006,9.8e-4 -0.12264,0.004 -0.0586,0.0532 0.2174,0.16917 0.82289,0.3453 1.49088,0.43365 0.32934,0.0436 0.57712,0.0513 1.17112,0.0365 1.58541,-0.0395 2.67514,-0.30769 3.36429,-0.82802 0.10359,-0.0782 0.20318,-0.16995 0.22135,-0.2039 0.0299,-0.0557 0.0184,-0.0617 -0.11686,-0.0617 -0.0824,0 -0.15873,-0.0144 -0.16956,-0.0319 -0.0288,-0.0465 0.22876,-0.1147 0.33369,-0.0884 0.12982,0.0326 0.25144,0.1675 0.25038,0.27775 -9.7e-4,0.0936 -9.7e-4,0.0936 -0.095,-0.0197 l -0.094,-0.11336 -0.0725,0.10179 c -0.0507,0.0712 -0.0724,0.1513 -0.0724,0.26634 0,0.91384 -1.06984,1.95597 -2.26019,2.20166 -0.32466,0.067 -1.06933,0.0921 -1.45123,0.0488 z m 0.26253,-0.18242 c 0,-0.01 -0.049,-0.0471 -0.10882,-0.0836 -0.12825,-0.0782 -0.27547,-0.0848 -0.43107,-0.0194 l -0.11228,0.0471 0.13355,0.022 c 0.0735,0.0121 0.15615,0.0267 0.18378,0.0326 0.0867,0.0183 0.33484,0.0192 0.33484,9.7e-4 z m 0.83712,-0.008 c 0,-0.0389 -0.1073,-0.0973 -0.22702,-0.12363 -0.11976,-0.0263 -0.31507,0.0258 -0.37714,0.10054 -0.0347,0.0418 0.005,0.0485 0.28195,0.0485 0.17721,0 0.32221,-0.0114 0.32221,-0.0255 z m 0.3525,-0.12348 c 0.12668,-0.1661 0.34509,-0.24374 0.5394,-0.19178 0.13498,0.0361 0.16242,0.0322 0.31442,-0.0448 0.0916,-0.0464 0.16653,-0.0915 0.16653,-0.10007 0,-0.0405 -0.42408,-0.22289 -0.66187,-0.28452 -0.3297,-0.0855 -0.42431,-0.089 -0.5938,-0.0223 -0.21343,0.0841 -0.4857,0.0719 -0.6333,-0.0282 -0.14003,-0.0951 -0.22943,-0.0874 -0.4096,0.0348 -0.13775,0.0934 -0.42878,0.13257 -0.61454,0.0825 -0.0768,-0.0207 -0.18728,-0.0274 -0.24558,-0.015 -0.20752,0.0442 -0.7241,0.25804 -0.70359,0.2912 0.0326,0.0527 0.41318,0.21548 0.64322,0.27509 0.20921,0.0541 0.20921,0.0541 0.30931,-0.0301 0.20944,-0.17622 0.52262,-0.18051 0.70263,-0.01 0.0809,0.0767 0.0809,0.0767 0.19109,-0.005 0.21828,-0.16159 0.60098,-0.11765 0.73325,0.0842 0.0722,0.11028 0.15963,0.0981 0.26243,-0.0367 z m 0.31717,-0.002 c 0.0767,-0.0296 0.0941,-0.0456 0.0503,-0.0465 -0.0369,-9.7e-4 -0.10463,0.0202 -0.15067,0.0465 -0.10437,0.0597 -0.0544,0.0597 0.10044,0 z m -3.22955,-0.38329 c 0.0175,-0.0174 0.12221,-0.0775 0.23271,-0.13351 l 0.20091,-0.10181 -0.18417,-9.7e-4 c -0.21749,-9.7e-4 -0.41705,-0.0992 -0.519,-0.25502 -0.0576,-0.0881 -0.0863,-0.10194 -0.20559,-0.0994 l -0.13861,0.003 0.0702,0.10044 c 0.0853,0.12199 0.46028,0.51902 0.49026,0.51902 0.0118,0 0.0358,-0.0143 0.0533,-0.0317 z m 4.2227,-0.16352 c 0.46274,-0.3662 0.76966,-0.84911 0.8628,-1.35754 l 0.0238,-0.12969 -0.1448,0.11866 c -0.12769,0.10462 -0.14943,0.14294 -0.18382,0.32398 -0.0687,0.36168 -0.31699,0.56639 -0.57696,0.47577 -0.0953,-0.0333 -0.10736,-0.0289 -0.15061,0.0543 -0.1,0.1922 -0.28894,0.31125 -0.4988,0.31426 l -0.14056,0.002 0.17292,0.0764 c 0.0951,0.042 0.23042,0.1155 0.30076,0.16328 0.0703,0.0477 0.13806,0.0869 0.15056,0.0869 0.0125,0 0.0957,-0.0577 0.18476,-0.12825 z m -3.52121,-0.17309 c 0.0114,-0.0184 0.006,-0.0335 -0.0127,-0.0335 -0.0184,0 -0.0428,0.0151 -0.0542,0.0335 -0.0114,0.0184 -0.006,0.0335 0.0128,0.0335 0.0184,0 0.0428,-0.0151 0.0542,-0.0335 z m 0.75145,0 c 0.12162,-0.0349 0.33678,-0.21985 0.33678,-0.28951 0,-0.0308 -0.14347,-0.0441 -0.56085,-0.052 -0.30847,-0.006 -0.56684,-0.007 -0.57414,-0.003 -0.039,0.0226 0.18384,0.28875 0.27491,0.32836 0.12621,0.0548 0.36268,0.0621 0.5233,0.0161 z m 1.12356,-0.0381 c 0.0795,-0.0221 0.19161,-0.0949 0.27624,-0.17958 0.16789,-0.16788 0.1838,-0.23484 0.0494,-0.20797 -0.0511,0.0103 -0.28847,0.0367 -0.52738,0.0587 -0.23889,0.022 -0.43924,0.0442 -0.4452,0.0494 -0.006,0.005 0.0139,0.0571 0.044,0.11545 0.0923,0.17835 0.324,0.24139 0.6029,0.16397 z m -2.05489,-0.0652 c 0.0533,-0.0285 0.0637,-0.0565 0.0465,-0.12602 -0.0122,-0.0491 -0.0337,-0.10136 -0.0481,-0.11606 -0.0311,-0.0319 -0.78258,-0.1884 -0.80556,-0.16775 -0.009,0.008 0.0214,0.085 0.067,0.17139 0.14233,0.26944 0.47937,0.37802 0.74019,0.23844 z m 2.68056,-0.0479 c -0.11324,-0.0953 -0.15849,-0.1042 -0.18454,-0.0363 -0.0125,0.0328 0.0199,0.0576 0.10524,0.0802 0.18373,0.0489 0.1873,0.0469 0.0793,-0.0439 z m 0.52957,-0.0669 c 0.11359,-0.0587 0.24417,-0.22435 0.29349,-0.3722 l 0.0348,-0.10427 -0.19351,0.0602 c -0.10643,0.0332 -0.31167,0.0846 -0.45611,0.11448 -0.14443,0.0298 -0.27004,0.0616 -0.27913,0.0708 -0.061,0.061 0.27051,0.28119 0.42333,0.28119 0.044,0 0.12378,-0.0225 0.17716,-0.0502 z m -4.11849,-0.26874 c 0,-0.0832 -0.0258,-0.102 -0.22602,-0.16438 -0.0926,-0.0289 -0.0943,0 -0.009,0.14009 0.0857,0.14068 0.23477,0.1561 0.23477,0.0243 z m 4.80572,-0.0687 c 0.10376,-0.0492 0.17649,-0.15588 0.23211,-0.34036 0.0217,-0.0719 0.0124,-0.0702 -0.22229,0.042 -0.21324,0.10197 -0.24627,0.12973 -0.25522,0.21457 -0.008,0.0713 0.006,0.10165 0.0503,0.11313 0.0333,0.009 0.0657,0.0174 0.0721,0.0195 0.007,0.002 0.0617,-0.0199 0.12298,-0.0489 z m -2.77993,-0.21738 c -0.21793,-0.0311 -0.41817,-0.12255 -0.68459,-0.31254 -0.1187,-0.0847 -0.23524,-0.15392 -0.25899,-0.15392 -0.0238,0 -0.11933,0.0469 -0.2124,0.10412 -0.18269,0.11241 -0.42643,0.19735 -0.5654,0.19706 -0.36818,-9.7e-4 -0.73971,-0.35375 -0.73971,-0.70273 0,-0.4695 0.39627,-0.67588 1.28443,-0.669 0.35566,0.003 0.47559,-0.009 0.62558,-0.0615 0.50043,-0.17516 1.03557,-0.1768 1.54907,-0.005 0.28974,0.097 0.30699,0.099 0.45521,0.0513 0.70416,-0.22642 1.25187,-0.1205 1.46019,0.28234 0.11919,0.2305 -0.007,0.56442 -0.29067,0.77001 -0.28657,0.2076 -0.51863,0.20278 -0.92453,-0.0192 -0.11574,-0.0633 -0.2297,-0.11507 -0.25324,-0.11507 -0.0235,0 -0.0871,0.0465 -0.14116,0.10323 -0.0541,0.0568 -0.2065,0.17574 -0.33869,0.26437 -0.34918,0.23413 -0.63598,0.31326 -0.9651,0.26628 z m 0.64164,-0.3266 c 0.11348,-0.0574 0.2943,-0.17708 0.40182,-0.26597 0.39637,-0.3277 0.42209,-0.33345 0.68426,-0.1531 0.32138,0.22106 0.56504,0.24586 0.79646,0.0811 0.34124,-0.24299 0.32783,-0.58156 -0.0302,-0.76455 -0.11918,-0.0609 -0.20277,-0.0753 -0.43612,-0.0753 -0.15878,0 -0.37457,0.0173 -0.47952,0.0383 l -0.19083,0.0383 0.10063,0.0705 c 0.11948,0.0837 0.16695,0.17157 0.0779,0.14404 -0.0325,-0.01 -0.15043,-0.0565 -0.26206,-0.10327 -0.65142,-0.27288 -1.29019,-0.28373 -2.05964,-0.035 -0.42312,0.13678 -0.4826,0.14183 -0.35568,0.0301 l 0.0939,-0.0826 h -0.22789 c -0.27003,9.7e-4 -0.64191,0.0741 -0.81045,0.15986 -0.24431,0.12442 -0.29849,0.42565 -0.11565,0.64294 0.22415,0.26641 0.51789,0.28219 0.90952,0.0489 0.24522,-0.14608 0.35785,-0.15323 0.54735,-0.0347 0.08,0.05 0.22829,0.14315 0.32959,0.20698 0.2432,0.15321 0.34262,0.18092 0.60272,0.16799 0.1623,-0.008 0.27012,-0.0373 0.42398,-0.11516 z m 5.8627,-0.63049 c -0.0999,-0.0282 -0.0648,-0.069 0.0789,-0.0921 0.37806,-0.0605 0.66616,-0.3666 0.66616,-0.7079 0,-0.0988 -0.0364,-0.23758 -0.10044,-0.38366 -0.11056,-0.25186 -0.12366,-0.38191 -0.055,-0.54613 0.0693,-0.16586 0.37619,-0.42133 0.67449,-0.56147 0.42161,-0.19809 0.64031,-0.24556 1.13848,-0.24713 0.40694,-9.7e-4 0.44817,0.005 0.63292,0.0912 0.10871,0.0509 0.18986,0.10033 0.18037,0.10983 -0.01,0.01 -0.12858,-1.1e-4 -0.2646,-0.0214 -0.68032,-0.1063 -1.56549,0.14066 -1.9969,0.55714 -0.21183,0.2045 -0.22157,0.28077 -0.0753,0.58984 0.15469,0.327 0.1188,0.6389 -0.10476,0.91012 -0.1687,0.20467 -0.56742,0.35999 -0.77418,0.30158 z m -13.28656,-0.15691 c -0.32042,-0.0881 -0.54627,-0.30402 -0.62159,-0.59436 -0.0435,-0.16748 -0.0275,-0.29104 0.066,-0.51174 0.0302,-0.0714 0.0549,-0.1564 0.0549,-0.18906 0,-0.0724 -0.18781,-0.24214 -0.37195,-0.33609 -0.37172,-0.18964 -1.10852,-0.25975 -1.54388,-0.14694 -0.1106,0.0287 -0.20961,0.0435 -0.22004,0.0331 -0.0299,-0.0299 0.0937,-0.11063 0.29425,-0.19208 0.15952,-0.0648 0.24687,-0.075 0.65293,-0.076 0.42569,-9.7e-4 0.49115,0.007 0.71202,0.0876 0.46189,0.1688 0.71107,0.38933 0.71107,0.62927 0,0.0591 -0.0392,0.20537 -0.087,0.32494 -0.1022,0.25546 -0.092,0.37474 0.0485,0.56857 0.10401,0.14347 0.35601,0.29554 0.54914,0.33134 0.11684,0.0217 0.17774,0.0823 0.0837,0.0832 -0.023,0 -0.072,0.007 -0.10883,0.0153 -0.0369,0.008 -0.13552,-0.004 -0.21931,-0.0271 z m 5.77964,-0.60786 c -0.39945,-0.14229 -0.52499,-0.4566 -0.35456,-0.88759 0.13022,-0.32928 0.32228,-0.46892 0.64452,-0.46862 0.21958,0 0.40441,0.10339 0.51624,0.28813 0.0949,0.15672 0.1046,0.12666 0.0152,-0.0469 -0.12148,-0.23568 -0.35822,-0.40884 -0.55894,-0.40884 -0.20987,0 -0.51944,0.2658 -0.67699,0.58128 -0.0995,0.19925 -0.15133,0.20097 -0.0838,0.003 0.12152,-0.35663 0.40487,-0.64707 0.65926,-0.67575 0.25533,-0.0288 0.38188,0.0137 0.55426,0.18609 0.1953,0.1953 0.24065,0.34913 0.22882,0.77616 -0.01,0.36112 -0.0666,0.49882 -0.25786,0.62773 -0.0889,0.0599 -0.15752,0.0752 -0.33303,0.074 -0.1216,-9.7e-4 -0.28047,-0.0226 -0.35308,-0.0485 z m 0.69862,-0.1485 c 0.11635,-0.10928 0.16487,-0.27868 0.14442,-0.50415 -0.0216,-0.23777 -0.0914,-0.37611 -0.23462,-0.46461 -0.34183,-0.21126 -0.75017,-0.067 -0.88691,0.31338 -0.10007,0.27839 -0.0673,0.47065 0.10216,0.59924 0.14961,0.11352 0.30481,0.15284 0.5662,0.14346 0.1832,-0.007 0.23987,-0.0226 0.30875,-0.0873 z m -0.55571,0.007 c -0.23097,-0.1433 -0.20839,-0.53449 0.0382,-0.66202 0.27335,-0.14135 0.57033,0.007 0.57033,0.28468 0,0.33601 -0.33767,0.54538 -0.60855,0.37734 z m 0.46624,-0.15165 c 0.11257,-0.10545 0.10572,-0.33151 -0.0129,-0.4248 -0.1222,-0.0962 -0.2848,-0.0892 -0.41147,0.0173 -0.0851,0.0716 -0.10302,0.1113 -0.10302,0.22799 0,0.16975 0.0498,0.24649 0.1842,0.28369 0.11682,0.0324 0.23612,-0.004 0.34318,-0.10418 z m -0.4245,-0.0132 c -0.0963,-0.12246 -0.0906,-0.24022 0.0137,-0.27986 0.0511,-0.0194 0.0761,-0.0496 0.065,-0.0785 -0.0463,-0.12072 0.25265,-0.0823 0.31859,0.0409 0.14846,0.27738 -0.20606,0.56055 -0.39735,0.31739 z m 1.66025,0.30923 c -0.31888,-0.11858 -0.45541,-0.39287 -0.38501,-0.77349 0.0481,-0.26004 0.13409,-0.39928 0.31033,-0.50256 0.22751,-0.13333 0.53999,-0.10523 0.77609,0.0698 0.13019,0.0965 0.2782,0.39406 0.30151,0.60614 0.0255,0.23146 -0.0848,0.43685 -0.28821,0.53694 -0.19669,0.0968 -0.54219,0.12732 -0.71471,0.0632 z m 0.60036,-0.12366 c 0.0568,-0.0175 0.14722,-0.0778 0.20091,-0.13389 0.0848,-0.0886 0.0975,-0.12687 0.0964,-0.29221 -0.002,-0.27871 -0.11242,-0.46396 -0.35047,-0.58612 -0.29742,-0.15265 -0.56074,-0.0976 -0.75076,0.15688 -0.0531,0.0711 -0.0701,0.14972 -0.0756,0.34951 -0.005,0.19139 0,0.2262 0.0188,0.13513 0.0785,-0.37099 0.41908,-0.48044 0.66526,-0.21382 0.17548,0.19006 0.13828,0.42381 -0.0926,0.58176 l -0.11671,0.0798 0.15068,-0.0226 c 0.0828,-0.0124 0.19717,-0.0369 0.25398,-0.0545 z m -0.22886,-0.14832 c 0.0999,-0.11492 0.0958,-0.25451 -0.0114,-0.38175 -0.0726,-0.0863 -0.11058,-0.10302 -0.23439,-0.10302 -0.16281,0 -0.26502,0.0728 -0.30045,0.21395 -0.0261,0.10398 0.0656,0.30117 0.16288,0.35028 0.11351,0.0574 0.29764,0.0191 0.38331,-0.0794 z m -0.39601,-0.0134 c -0.11795,-0.11793 -0.1308,-0.25404 -0.0265,-0.2813 0.0474,-0.0124 0.0646,-0.0361 0.0514,-0.0705 -0.0273,-0.0713 0.12674,-0.10721 0.22774,-0.0532 0.16079,0.086 0.19536,0.29493 0.0696,0.42068 -0.10837,0.10835 -0.20275,0.10377 -0.3222,-0.0156 z m -0.41525,-0.68064 c 0.0917,-0.43747 0.35799,-0.6948 0.71918,-0.6948 0.34862,0 0.62147,0.2456 0.71609,0.64458 0.0353,0.14899 -0.0286,0.10566 -0.11441,-0.0776 -0.1981,-0.42293 -0.62984,-0.57486 -0.96183,-0.33846 -0.0998,0.0711 -0.30955,0.42419 -0.30955,0.52116 0,0.0297 -0.0162,0.0539 -0.0362,0.0539 -0.0231,0 -0.0279,-0.0392 -0.0133,-0.10882 z m -2.22075,-0.70149 c -0.16542,-0.16543 0.29629,-0.55072 0.89738,-0.74887 0.2704,-0.0892 0.62091,-0.0848 0.77276,0.01 0.14264,0.0887 0.20027,0.19694 0.16117,0.30267 -0.0401,0.10858 -0.1595,0.14181 -0.50918,0.14181 -0.31913,10e-6 -0.52346,0.0487 -1.0366,0.24715 -0.26544,0.10264 -0.2354,0.0976 -0.28553,0.0476 z m 0.37606,-0.24482 c 0.34291,-0.15167 0.64493,-0.21726 1.00026,-0.21726 0.29573,0 0.32847,-0.006 0.31866,-0.0586 -0.0158,-0.0851 -0.22114,-0.17569 -0.39809,-0.17575 -0.29789,-1e-4 -0.75788,0.19162 -1.03571,0.43171 -0.14383,0.12429 -0.12757,0.12711 0.11488,0.0199 z m 3.46794,0.1684 c -0.58496,-0.32898 -0.71516,-0.36492 -1.12931,-0.31182 -0.23916,0.0306 -0.28661,0.028 -0.35996,-0.02 -0.13534,-0.0887 -0.10772,-0.25716 0.056,-0.34183 0.1727,-0.0892 0.51422,-0.0973 0.8226,-0.0193 0.33913,0.0857 0.51839,0.18851 0.74273,0.4257 0.27123,0.28679 0.19106,0.44905 -0.13207,0.26733 z m 0.0524,-0.18258 c -0.24665,-0.25259 -0.70834,-0.43747 -1.09242,-0.43747 -0.21755,0 -0.39977,0.0537 -0.39977,0.11768 0,0.0654 0.0569,0.0737 0.28227,0.041 0.44478,-0.0644 0.73695,0.0112 1.1506,0.29764 0.20559,0.14236 0.21412,0.13964 0.0593,-0.0189 z m -6.76598,0.70352 c 0.14735,-0.0718 0.42611,-0.19274 0.61947,-0.26892 0.41725,-0.16437 0.48869,-0.20915 0.90409,-0.56666 0.81364,-0.70026 1.5487,-1.06484 2.47738,-1.22875 0.33873,-0.0598 1.12611,-0.0683 1.45702,-0.0158 0.84285,0.13369 1.5577,0.49606 2.44435,1.2391 0.48338,0.40507 0.58737,0.46532 1.10359,0.63943 0.53119,0.17914 0.75401,0.28077 1.00083,0.45649 0.0892,0.0636 0.16543,0.11078 0.16922,0.10491 0.004,-0.006 0.0362,-0.0784 0.072,-0.16107 0.0987,-0.22784 0.34893,-0.59578 0.56023,-0.82389 0.1891,-0.20416 0.1891,-0.20416 0.27153,-0.65296 0.14377,-0.7829 0.17039,-1.10579 0.1694,-2.05603 -9.7e-4,-0.96959 -0.0402,-1.38719 -0.20435,-2.17648 -0.17227,-0.82832 -0.3683,-1.44316 -0.80415,-2.52208 -0.48185,-1.19276 -0.61353,-1.71445 -0.68816,-2.72645 -0.03,-0.40582 -0.0296,-0.65256 0.002,-1.07149 0.0349,-0.46933 0.1504,-1.19993 0.22367,-1.41486 0.046,-0.13502 -0.16561,0.24553 -0.35382,0.6362 -0.37932,0.78741 -0.61347,1.63821 -0.60617,2.20247 0.004,0.33198 0.0716,0.95047 0.17022,1.56527 0.0905,0.5638 0.0435,0.59848 -0.11255,0.0829 -0.21079,-0.69664 -0.28943,-1.27429 -0.30998,-2.27694 -0.0134,-0.65391 -0.006,-0.92585 0.0363,-1.24262 0.0951,-0.72103 0.27165,-1.27183 0.52693,-1.64329 l 0.11076,-0.16116 -0.13565,0.10726 c -0.21644,0.17114 -0.55407,0.5449 -0.72641,0.80411 -0.38767,0.58314 -0.73249,1.56335 -0.85858,2.44056 -0.0621,0.43247 -0.1046,0.61598 -0.14249,0.61598 -0.0623,0 -0.008,-1.07383 0.0722,-1.42309 0.089,-0.38786 0.25406,-0.88747 0.37074,-1.12173 0.11838,-0.23768 0.14484,-0.49214 0.10152,-0.97607 -0.039,-0.43533 -0.0965,-0.66071 -0.10007,-0.39271 -0.003,0.23415 -0.14878,0.76209 -0.2978,1.08012 -0.22153,0.47274 -0.498,0.83619 -0.82041,1.07855 -0.18996,0.14279 -0.25756,0.17515 -0.25607,0.12255 0,-0.0138 0.11871,-0.17216 0.26293,-0.3519 l 0.26222,-0.32679 -0.0158,-0.56054 c -0.0141,-0.49933 0.0276,-1.27031 0.0777,-1.43673 0.0507,-0.16866 -0.31691,0.59491 -0.4586,0.95235 -0.29532,0.74504 -0.35633,1.01526 -0.37598,1.66502 -0.0214,0.7066 -0.13854,1.4129 -0.29532,1.77993 l -0.0406,0.0952 -0.0118,-0.10503 c -0.007,-0.0577 0.0129,-0.27625 0.0433,-0.48552 0.0747,-0.51697 0.10189,-1.65253 0.0525,-2.19276 -0.0706,-0.77148 -0.23322,-1.61824 -0.42052,-2.18912 -0.0465,-0.14177 -0.0483,-0.11901 -0.0305,0.38508 0.0277,0.78525 -0.0851,1.62288 -0.30761,2.28591 -0.082,0.24405 -0.082,0.24405 -0.016,0.54601 0.0541,0.24826 0.14314,0.5017 0.32529,0.92668 0.0367,0.0854 -0.0545,0.038 -0.15028,-0.0782 -0.21843,-0.26502 -0.38031,-0.70537 -0.49743,-1.35326 -0.0774,-0.42813 -0.0798,-1.65054 -0.004,-2.10952 0.0289,-0.17495 0.0488,-0.32214 0.0444,-0.3271 -0.005,-0.005 -0.0999,0.20601 -0.21208,0.4688 -0.23775,0.55676 -0.45619,1.20417 -0.62633,1.85627 -0.18489,0.70857 -0.25813,0.94867 -0.28944,0.94867 -0.0444,0 -0.0338,-0.27715 0.0249,-0.64609 0.0497,-0.3125 0.0494,-0.35257 -0.004,-0.57323 -0.0315,-0.1305 -0.10208,-0.35027 -0.15667,-0.4884 -0.10238,-0.25904 -0.32947,-0.71293 -0.3476,-0.6948 -0.006,0.006 0.004,0.0701 0.021,0.14325 0.0674,0.28656 0.0742,0.79654 0.0172,1.28822 -0.0651,0.5621 -0.19352,1.28887 -0.286,1.61903 -0.0602,0.215 -0.15657,0.41254 -0.18659,0.38253 -0.008,-0.008 0.017,-0.23842 0.0541,-0.51356 0.0705,-0.52325 0.068,-0.66427 -0.0226,-1.25363 -0.0555,-0.36066 -0.11277,-0.60188 -0.23465,-0.98778 -0.0933,-0.29535 -0.38134,-0.99846 -0.401,-0.9788 -0.007,0.007 0.0128,0.13192 0.0437,0.27797 0.0879,0.41652 0.0779,1.68794 -0.0183,2.31402 -0.0886,0.57644 -0.23979,1.19087 -0.39829,1.61805 -0.1278,0.34448 -0.13321,0.35541 -0.16173,0.32688 -0.0105,-0.0105 0.0268,-0.20695 0.0829,-0.43647 0.12202,-0.49883 0.18022,-0.8502 0.27033,-1.63159 0.0997,-0.86507 0.0966,-0.91414 -0.0809,-1.25338 -0.20658,-0.39492 -0.43839,-0.69932 -0.71936,-0.9446 l -0.14796,-0.12917 0.12156,0.15991 c 0.3575,0.47029 0.54902,1.16258 0.51799,1.87234 -0.0165,0.37709 -0.1062,0.86413 -0.15916,0.86413 -0.0153,0 -0.033,-0.16198 -0.0392,-0.35996 -0.0109,-0.3443 -0.0174,-0.37232 -0.15129,-0.64457 -0.19928,-0.40531 -0.25414,-0.46551 -0.15943,-0.17501 0.13208,0.40518 0.18731,0.8623 0.239,1.9781 0.0245,0.52845 -0.0789,1.28076 -0.19132,1.39127 -0.0276,0.0272 -0.0314,-0.13009 -0.0145,-0.59933 0.0258,-0.71338 -0.009,-1.11573 -0.13894,-1.61678 -0.1662,-0.64017 -0.47527,-1.13406 -0.93334,-1.49153 l -0.13478,-0.10518 0.0934,0.1167 c 0.19768,0.247 0.42481,0.61294 0.49217,0.79296 0.22603,0.60414 0.17506,1.02233 -0.242,1.98574 -1.07791,2.48998 -1.43939,3.56493 -1.68365,5.00678 -0.22601,1.33413 -0.2441,2.95119 -0.0458,4.09206 0.0359,0.20644 0.0565,0.24522 0.23241,0.43732 0.10617,0.11594 0.24336,0.31323 0.30489,0.43844 l 0.11185,0.22763 0.20093,-0.16267 c 0.1105,-0.0894 0.32147,-0.22138 0.4688,-0.29311 z"
         id="path148" />
    </g>
  </g>
</svg>
