<?xml version="1.0" encoding="UTF-8" standalone="no"?>
<!-- Created with Inkscape (http://www.inkscape.org/) -->

<svg
   width="41.008999mm"
   height="41.008999mm"
   viewBox="0 0 41.008999 41.008999"
   version="1.1"
   id="svg1"
   inkscape:version="1.4.2 (f4327f4, 2025-05-13)"
   sodipodi:docname="301.svg"
   xmlns:inkscape="http://www.inkscape.org/namespaces/inkscape"
   xmlns:sodipodi="http://sodipodi.sourceforge.net/DTD/sodipodi-0.dtd"
   xmlns="http://www.w3.org/2000/svg"
   xmlns:svg="http://www.w3.org/2000/svg">
  <sodipodi:namedview
     id="namedview1"
     pagecolor="#ffffff"
     bordercolor="#000000"
     borderopacity="0.25"
     inkscape:showpageshadow="2"
     inkscape:pageopacity="0.0"
     inkscape:pagecheckerboard="0"
     inkscape:deskcolor="#d1d1d1"
     inkscape:document-units="mm"
     inkscape:zoom="1.4513545"
     inkscape:cx="86.470947"
     inkscape:cy="-62.700049"
     inkscape:window-width="1050"
     inkscape:window-height="1081"
     inkscape:window-x="857"
     inkscape:window-y="0"
     inkscape:window-maximized="0"
     inkscape:current-layer="layer1" />
  <defs
     id="defs1" />
  <g
     inkscape:label="Layer 1"
     inkscape:groupmode="layer"
     id="layer1"
     transform="translate(333.37504,1257.5646)">
    <g
       id="g42"
       transform="translate(-1153.5892,-1132.1017)">
      <circle
         style="fill:none;stroke:#0000ff;stroke-width:0.1;stroke-linecap:round;stroke-dasharray:none;stroke-opacity:1;paint-order:markers stroke fill"
         id="circle3716"
         cx="840.71863"
         cy="-119.96941"
         r="2" />
      <circle
         style="fill:none;stroke:#ff0000;stroke-width:0.1;stroke-dasharray:none"
         id="circle3718"
         cx="840.71863"
         cy="-104.95844"
         r="19.954653" />
      <path
         d="m 849.47553,-89.0005 c -1.01814,-0.50843 -0.90103,-2.1667 0.15304,-2.1667 0.23376,0 0.50761,0.0826 0.60859,0.18363 0.14278,0.14283 0.18362,0.13906 0.18362,-0.0169 0,-0.11096 0.13447,-0.0392 0.30092,0.16067 0.26524,0.31835 0.30161,0.32771 0.30606,0.0788 0.008,-0.43788 -0.42947,-1.07206 -1.01703,-1.47467 -0.51762,-0.35468 -3.23125,-1.37984 -3.65247,-1.37984 -0.11456,0 -0.91026,0.91239 -1.76818,2.02755 -2.51982,3.27535 -2.70838,3.31764 -0.33261,0.0747 0.78689,-1.07411 1.46652,-2.04632 1.5103,-2.16046 0.0445,-0.11592 -0.0422,-0.24249 -0.1968,-0.28677 -0.15207,-0.0436 -0.39137,-0.12673 -0.53186,-0.18476 -0.19404,-0.0802 -0.46488,0.17287 -1.12797,1.05381 -0.47986,0.6376 -0.90314,1.15928 -0.94056,1.15928 -0.0376,0 0.30716,-0.54461 0.76568,-1.21024 l 0.83364,-1.21024 -1.06846,-0.55971 c -0.58765,-0.30785 -1.0888,-0.53792 -1.11361,-0.51126 -0.0249,0.0267 -0.30526,0.53048 -0.62307,1.1196 -0.31779,0.58915 -0.59904,1.09845 -0.62501,1.1318 -0.026,0.0333 -0.33284,-0.12844 -0.68211,-0.35956 -0.68477,-0.45317 -0.66795,-0.45936 -1.14409,0.4206 l -0.2314,0.42773 -0.6314,-0.50005 c -0.90829,-0.71941 -1.93696,-1.77478 -3.14095,-3.22256 -1.56023,-1.87614 -1.4884,-1.8977 0.35956,-0.10798 0.91736,0.88854 1.99865,1.88099 2.40276,2.20545 0.69471,0.5578 0.7489,0.57556 0.99463,0.32589 0.24495,-0.24882 0.23342,-0.28658 -0.19917,-0.65421 -1.41193,-1.19999 -2.68425,-2.3896 -2.62219,-2.45167 0.0393,-0.0392 0.4469,0.23485 0.9061,0.60887 0.87529,0.71291 2.11474,1.59542 2.34573,1.67013 0.0745,0.0241 0.46582,-0.31051 0.86957,-0.74356 l 0.73409,-0.78739 -1.11662,-1.1292 c -1.67775,-1.69659 -2.74122,-3.74055 -2.97325,-5.71442 -0.0881,-0.74979 -0.13591,-0.83678 -0.45978,-0.83678 -0.42556,0 -0.44877,0.20308 -0.14876,1.30069 0.52388,1.91693 1.60064,3.84848 2.94889,5.28983 0.3882,0.415 0.65101,0.75454 0.58397,0.75454 -0.20966,0 -1.7026,-1.18503 -2.50959,-1.99199 -0.72531,-0.72533 -2.00114,-2.4441 -2.00114,-2.69591 0,-0.0628 0.35179,0.26055 0.78174,0.71845 0.43002,0.45788 0.70346,0.71979 0.60774,0.58202 -0.27125,-0.39032 -1.03548,-2.58307 -1.1582,-3.3229 l -0.1104,-0.66597 -0.78732,0.0864 c -0.43301,0.0476 -2.54318,0.13491 -4.6893,0.19424 -3.23548,0.0894 -3.79279,0.13616 -3.26237,0.27353 0.85607,0.2217 1.0297,0.42972 0.27269,0.32669 -0.62665,-0.0852 -3.83245,-0.39056 -4.10143,-0.39056 -0.55268,0 0.93397,-0.38428 5.29189,-1.36791 0.95742,-0.21609 0.51319,0.0613 -0.7151,0.44648 -0.6358,0.1994 -1.12965,0.38894 -1.09738,0.42121 0.0656,0.0656 6.67237,-0.22305 8.1641,-0.35663 l 0.95636,-0.0856 v -0.86769 c 0,-1.03604 0.26257,-2.07874 0.84081,-3.36725 0.51484,-1.14726 0.68628,-1.1371 0.25517,0.0151 -0.31058,0.83015 -0.63873,2.74103 -0.63873,3.71967 0,0.45746 0.0492,0.5245 0.38258,0.5245 0.36205,0 0.38258,-0.0454 0.38258,-0.84807 0,-1.75321 0.74747,-4.2276 1.45426,-4.81419 0.13968,-0.11592 0.45516,-0.60941 0.70115,-1.09666 0.24596,-0.48724 0.9062,-1.45539 1.46722,-2.15147 0.56105,-0.69607 0.88788,-1.16412 0.72628,-1.0401 -1.16659,0.89518 -1.80902,1.50052 -2.29477,2.16222 -0.66743,0.90924 -0.87013,0.89618 -0.29254,-0.0188 0.99488,-1.57589 2.40304,-2.74243 4.62613,-3.83228 l 1.42447,-0.69831 -0.43325,-0.60236 c -0.85804,-1.19294 -0.66145,-1.13784 0.30317,0.0849 l 0.30081,0.38132 0.51149,-0.55815 c 0.52549,-0.57339 0.88748,-1.50926 0.73625,-1.9034 -0.0469,-0.12231 -0.21631,-0.29243 -0.37633,-0.3781 -0.38143,-0.20413 -1.10137,0.12985 -1.18117,0.54794 -0.0509,0.26543 -0.0173,0.25539 0.25631,-0.0777 0.25679,-0.31237 0.3654,-0.35166 0.59189,-0.21411 0.15256,0.0926 0.29918,0.35084 0.32578,0.57376 0.0376,0.31705 -0.0371,0.43783 -0.34427,0.5546 -0.81035,0.30809 -1.47737,-0.30577 -1.17927,-1.08533 0.38309,-1.00214 1.65627,-1.26842 2.41883,-0.50591 0.33274,0.33278 0.38125,0.49034 0.31145,1.01115 -0.0498,0.36878 -0.27531,0.85657 -0.56141,1.21256 -0.5374,0.66872 -0.49199,0.74517 0.16483,0.27747 1.24957,-0.88975 1.15103,-2.36485 -0.20179,-3.02074 -0.64324,-0.31189 -0.64734,-0.31857 -0.19767,-0.32548 1.00111,-0.0154 1.91272,0.95818 1.91272,2.0428 0,1.06757 -0.52746,1.6346 -2.0627,2.21738 l -0.66619,0.25286 1.14334,1.52668 c 0.62884,0.83968 1.19667,1.58036 1.26184,1.64595 0.0652,0.0656 0.76724,-0.52345 1.56005,-1.30898 0.79287,-0.78555 1.93921,-1.78568 2.54746,-2.22249 l 1.10593,-0.79424 0.25216,0.49649 c 0.45227,0.89044 0.45237,0.89049 1.53893,0.39782 0.55182,-0.2502 1.0164,-0.43366 1.03244,-0.40767 0.0161,0.026 0.28593,0.57712 0.59979,1.22473 0.31383,0.64763 0.84415,1.52356 1.17851,1.94654 0.33441,0.42298 0.6079,0.81192 0.6079,0.86432 0,0.22729 -1.6021,-1.2741 -2.22919,-2.08911 -0.658,-0.85505 -0.70572,-0.88605 -1.10379,-0.71703 -0.2288,0.0971 -0.47888,0.22981 -0.55562,0.29481 -0.18271,0.15466 0.51842,1.16575 1.65293,2.38382 1.47988,1.5888 0.85,1.26703 -0.92657,-0.47332 l -1.6512,-1.61757 -0.84499,0.47579 c -1.03403,0.58224 -2.33265,1.57707 -3.10787,2.38087 l -0.57968,0.601 2.30196,3.01892 2.302,3.01892 -0.38338,0.50262 c -0.21088,0.27644 -0.3834,0.55506 -0.3834,0.61917 0,0.0641 0.2066,0.37739 0.45909,0.69617 0.25251,0.31879 0.45904,0.62786 0.45904,0.68682 0,0.0907 -2.69801,3.62789 -5.38826,7.0641 l -0.737,0.94145 1.79827,0.58641 c 2.78592,0.9085 4.17402,2.04326 4.17402,3.41224 0,0.97459 -0.72172,1.72122 -1.50909,1.56115 -0.11456,-0.0233 -0.36176,0.10178 -0.54932,0.27797 -0.54342,0.51052 -1.20025,0.63404 -1.79428,0.3374 z m 1.16994,-0.84354 c 0.26616,-0.19462 0.26789,-0.22889 0.0294,-0.56963 l -0.25395,-0.36255 v 0.38599 c 0,0.2123 -0.0826,0.46864 -0.18363,0.56963 -0.25158,0.25158 0.056,0.23389 0.40831,-0.0235 z m 1.70412,-0.63752 c 0.43237,-0.65993 0.19976,-1.41094 -0.69421,-2.24114 -0.60726,-0.56399 -1.15305,-0.8642 -2.59957,-1.42989 -1.6682,-0.65242 -2.25291,-0.75259 -2.1233,-0.3638 0.026,0.0782 0.80739,0.47026 1.73615,0.87112 0.92877,0.40087 1.91823,0.89229 2.19879,1.09204 0.61496,0.4379 1.13357,1.51609 0.99489,2.06851 -0.1272,0.50673 0.15608,0.50858 0.48725,0.003 z m -10.83918,-4.46769 c 0.37975,-0.65502 0.45354,-0.89288 0.306,-0.98642 -0.27385,-0.17362 -0.3189,-0.1422 -1.02327,0.7134 -0.57406,0.69735 -0.60669,0.78203 -0.36859,0.95638 0.42376,0.31023 0.55916,0.22504 1.08586,-0.68336 z m 5.19667,0.004 c 0.0335,-0.10026 -0.15941,-0.29613 -0.42845,-0.43524 -0.40316,-0.20848 -0.51207,-0.21678 -0.61953,-0.0473 -0.19357,0.30548 -0.16853,0.37214 0.20925,0.55638 0.41623,0.20299 0.75647,0.173 0.83873,-0.0739 z m -1.34028,-0.57769 c 0.15194,-0.18311 0.10612,-0.29757 -0.24905,-0.62182 l -0.43531,-0.39739 0.41589,0.25364 c 0.22879,0.13951 0.48373,0.22995 0.5666,0.201 0.11349,-0.0396 5.45693,-7.57516 6.03627,-8.51258 0.14424,-0.2334 -3.869,-5.88529 -4.11261,-5.79181 -0.12041,0.0461 -0.1705,-0.0227 -0.13244,-0.18205 0.0335,-0.14098 -0.009,-0.35961 -0.0949,-0.48587 -0.21702,-0.31902 -0.55523,0.14343 -1.47719,2.01977 -0.40165,0.81754 -0.75301,1.46376 -0.78071,1.43606 -0.0917,-0.0917 0.72086,-2.10598 1.25688,-3.11536 l 0.52728,-0.99306 -0.8806,-1.24218 c -1.47144,-2.07563 -1.31685,-2.06251 0.23897,0.0202 0.393,0.52602 0.75349,0.95639 0.80114,0.95639 0.18223,0 0.47177,-0.63322 0.37015,-0.80959 -0.36598,-0.63542 -2.43539,-3.47503 -2.53237,-3.47503 -0.16859,0 -2.04968,1.65606 -2.97978,2.62333 -0.6828,0.71002 -1.88971,2.40161 -1.88971,2.64858 0,0.0461 0.12053,0.0861 0.26778,0.0888 0.34012,0.006 0.70344,0.2839 0.93143,0.71193 0.27095,0.50883 0.2152,0.87813 -0.19009,1.25893 -0.30891,0.29018 -0.42123,0.31744 -0.69792,0.16934 -0.42312,-0.22646 -0.35893,-0.77501 0.11846,-1.01208 0.32631,-0.16205 0.33417,-0.19427 0.1038,-0.42463 -0.48112,-0.48116 -0.79517,-0.30895 -1.14588,0.62833 -0.50288,1.34413 -0.75244,2.42696 -0.86198,3.74011 l -0.0998,1.19711 h 0.6355 c 0.34949,0 2.80337,-0.10815 5.45309,-0.24033 4.83289,-0.24109 6.77257,-0.23653 4.05489,0.009 -0.91016,0.0824 -1.31126,0.16692 -1.07273,0.226 0.80314,0.1989 -0.0606,0.27825 -4.13007,0.37945 -2.31444,0.0575 -4.33625,0.14159 -4.49291,0.18674 -0.2377,0.0685 -0.26911,0.18056 -0.1897,0.6769 0.26338,1.64712 1.31498,3.3287 2.35289,3.76236 0.68114,0.28459 1.56463,0.0359 1.56463,-0.44061 0,-0.2555 -0.0405,-0.27925 -0.22111,-0.12942 -0.12157,0.10094 -0.3798,0.16101 -0.57384,0.13351 -0.48985,-0.0694 -0.57871,-0.80087 -0.12654,-1.04284 0.96273,-0.51522 1.86275,0.89319 1.07452,1.68144 -0.38154,0.38154 -1.34687,0.40741 -2.08756,0.0559 -0.92751,-0.44014 -2.21024,-2.37871 -2.64689,-4.00013 -0.0957,-0.35556 -0.23655,-0.64648 -0.31294,-0.64648 -0.32584,0 0.82773,2.65045 1.73169,3.97858 0.53984,0.79318 2.04037,2.41021 2.43018,2.61883 0.19884,0.10641 0.44586,0.0123 0.9958,-0.37963 0.81607,-0.5815 3.2501,-1.83727 3.35595,-1.73141 0.0376,0.0374 -0.38744,0.31847 -0.94416,0.62449 -1.01606,0.55848 -2.57741,1.64632 -2.73959,1.90873 -0.1491,0.24126 0.33827,0.31921 0.53249,0.0851 0.23897,-0.28792 2.43116,-1.65527 2.51664,-1.56975 0.0359,0.036 -0.33683,0.35822 -0.82845,0.71618 -0.49152,0.35797 -1.04437,0.81122 -1.22851,1.00721 l -0.33476,0.35636 0.88945,0.54965 c 1.02333,0.63234 1.02039,0.63157 1.2678,0.33343 z m 1.46335,-6.40916 c -0.17953,-0.13131 -0.25281,-0.32067 -0.20081,-0.51934 0.0724,-0.27673 -0.0255,-0.33373 -0.84959,-0.4959 -0.95544,-0.18797 -2.15201,-0.60535 -2.04431,-0.71306 0.033,-0.0333 0.50091,0.0372 1.0393,0.15659 1.3161,0.29173 2.29716,0.40045 2.20039,0.24388 -0.0434,-0.0705 -0.47395,-0.20643 -0.9564,-0.30204 -1.13137,-0.22423 -1.45156,-0.31803 -1.36868,-0.40091 0.1251,-0.12514 2.32486,0.28042 2.77336,0.51133 0.36132,0.18599 0.55592,0.19638 1.02815,0.0549 0.53844,-0.16132 0.57563,-0.20869 0.49205,-0.62651 -0.0688,-0.3442 -0.026,-0.47661 0.1786,-0.55522 0.32568,-0.12497 0.74446,0.11351 0.81322,0.46314 0.0666,0.33844 -0.78251,1.11725 -1.35519,1.24304 -0.31167,0.0684 -0.48473,0.21795 -0.54904,0.47435 -0.087,0.34636 -0.46735,0.67237 -0.78459,0.67237 -0.0737,0 -0.26101,-0.093 -0.41646,-0.20664 z m 0.6832,-0.63498 c 0,-0.12625 -0.0667,-0.22954 -0.14823,-0.22954 -0.0815,0 -0.10856,0.10329 -0.0602,0.22954 0.0486,0.12624 0.11516,0.22953 0.14823,0.22953 0.0329,0 0.0602,-0.10329 0.0602,-0.22953 z m -4.19739,-2.69523 c 0.27084,-0.43828 1.45588,-0.76688 2.65152,-0.73527 0.65868,0.0174 1.27596,-0.0168 1.37173,-0.0759 0.28489,-0.17609 0.19855,-0.34425 -0.17015,-0.33124 -0.26442,0.009 -0.34429,-0.0726 -0.34429,-0.35373 0,-0.54701 0.44029,-0.76241 0.83265,-0.40734 0.17326,0.15679 0.31496,0.38261 0.31496,0.50181 0,0.17693 0.0439,0.17257 0.2405,-0.0238 0.48766,-0.48763 1.28977,-0.1217 1.28977,0.58837 0,0.71059 -0.36141,0.81952 -2.67788,0.80719 -1.46243,-0.007 -1.8752,-0.0428 -1.30071,-0.11018 l 0.84161,-0.0987 -0.96127,-0.0249 c -0.56401,-0.0146 -1.1884,0.0699 -1.51067,0.2046 -0.65735,0.27467 -0.7146,0.28052 -0.57777,0.0592 z m 5.71904,-0.7317 c 0.11519,-0.2153 0.0968,-0.33836 -0.0711,-0.47781 -0.18734,-0.15545 -0.22633,-0.13341 -0.22633,0.12792 0,0.38914 -0.27385,0.58027 -0.50304,0.35109 -0.231,-0.23099 -0.36557,-0.21404 -0.47044,0.0593 -0.1429,0.37235 1.0702,0.31466 1.27094,-0.0603 z m 0.85851,6.71828 c 1.49463,-2.0612 2.74572,-3.85552 2.78019,-3.98735 0.0348,-0.13184 -0.0625,-0.39313 -0.21527,-0.58068 l -0.2779,-0.34098 -3.06045,4.08242 c -1.68324,2.24532 -3.07904,4.1283 -3.10171,4.18438 -0.059,0.14581 0.93947,0.60639 1.0585,0.48824 0.0544,-0.054 1.32194,-1.78481 2.81664,-3.84603 z m -12.10872,-9.00199 c -0.0985,-0.13766 -0.37091,1.63606 -0.37091,2.41567 0,1.7679 0.23048,1.43848 0.3177,-0.45408 0.0486,-1.05202 0.0724,-1.93475 0.0532,-1.96159 z m 14.53288,2.78941 c 0.0515,-0.13385 0.0462,-0.32321 -0.0116,-0.42082 -0.0847,-0.14339 -3.65576,-5.22833 -3.82059,-5.44029 -0.0901,-0.11586 -0.51316,0.32931 -0.51316,0.53995 0,0.24266 3.95384,5.5645 4.13411,5.5645 0.0648,0 0.15979,-0.10951 0.21115,-0.24334 z m -4.21208,-6.37373 c -0.18652,-0.34849 -0.32158,-0.33949 -0.55672,0.0371 -0.14824,0.23733 -0.15051,0.37112 -0.0101,0.59599 0.17582,0.28156 0.18878,0.28048 0.4459,-0.0371 0.18942,-0.23388 0.22383,-0.40365 0.12089,-0.59599 z m 3.73065,-3.17757 c 0.95681,-0.62605 1.3046,-1.06997 0.83815,-1.06997 -0.47332,0 -3.68677,2.42923 -4.22828,3.19638 -0.20879,0.29582 -0.2411,0.46365 -0.1244,0.64599 0.13355,0.20866 0.33532,0.0672 1.31962,-0.92514 0.63909,-0.6443 1.6268,-1.47558 2.19491,-1.84726 z m 1.72099,12.54953 0.56112,-0.76441 -0.54109,-0.63217 -0.5411,-0.63215 0.3755,-0.49239 c 0.2066,-0.27081 0.37559,-0.54849 0.37559,-0.61707 0,-0.0685 -0.26257,-0.47523 -0.5835,-0.90369 -0.32092,-0.42846 -0.63665,-0.8823 -0.70161,-1.00855 -0.14585,-0.28345 0.60491,0.50364 1.15584,1.21179 l 0.4063,0.52224 0.39223,-0.4462 c 0.45403,-0.51649 0.53666,-0.32443 0.1032,0.23974 l -0.2919,0.37991 0.52486,0.64049 c 0.28864,0.35227 0.52478,0.694 0.52478,0.75939 0,0.0654 -0.18206,0.30895 -0.4046,0.54125 -0.38854,0.40558 -0.39461,0.43781 -0.15304,0.81173 0.67828,1.04974 0.71751,1.19914 0.14817,0.56515 l -0.59801,-0.66587 -0.56696,0.62761 c -0.77407,0.85676 -0.86561,0.78931 -0.18578,-0.1368 z m 0.92909,-2.21994 c -0.22522,-0.41822 -0.33171,-0.49651 -0.49317,-0.36252 -0.27501,0.22826 -0.2598,0.60046 0.0422,1.03168 0.22752,0.32486 0.26847,0.33394 0.49317,0.10925 0.22461,-0.22467 0.22115,-0.2893 -0.0422,-0.77841 z"
         style="fill:#000000;stroke-width:0.040487"
         id="path7175" />
    </g>
  </g>
</svg>
