<?xml version="1.0" encoding="UTF-8" standalone="no"?>
<!-- Created with Inkscape (http://www.inkscape.org/) -->

<svg
   width="41.008999mm"
   height="41.008999mm"
   viewBox="0 0 41.008999 41.008999"
   version="1.1"
   id="svg1"
   inkscape:version="1.4.2 (f4327f4, 2025-05-13)"
   sodipodi:docname="302.svg"
   xmlns:inkscape="http://www.inkscape.org/namespaces/inkscape"
   xmlns:sodipodi="http://sodipodi.sourceforge.net/DTD/sodipodi-0.dtd"
   xmlns="http://www.w3.org/2000/svg"
   xmlns:svg="http://www.w3.org/2000/svg">
  <sodipodi:namedview
     id="namedview1"
     pagecolor="#ffffff"
     bordercolor="#000000"
     borderopacity="0.25"
     inkscape:showpageshadow="2"
     inkscape:pageopacity="0.0"
     inkscape:pagecheckerboard="0"
     inkscape:deskcolor="#d1d1d1"
     inkscape:document-units="mm"
     inkscape:zoom="1.4513545"
     inkscape:cx="86.470947"
     inkscape:cy="-62.700049"
     inkscape:window-width="1050"
     inkscape:window-height="1081"
     inkscape:window-x="857"
     inkscape:window-y="0"
     inkscape:window-maximized="0"
     inkscape:current-layer="layer1" />
  <defs
     id="defs1" />
  <g
     inkscape:label="Layer 1"
     inkscape:groupmode="layer"
     id="layer1"
     transform="translate(333.37504,1257.5646)">
    <g
       id="g43"
       transform="translate(-1195.7889,-1132.1017)">
      <circle
         style="fill:none;stroke:#0000ff;stroke-width:0.1;stroke-linecap:round;stroke-dasharray:none;stroke-opacity:1;paint-order:markers stroke fill"
         id="circle3720"
         cx="882.9184"
         cy="-119.96941"
         r="2" />
      <circle
         style="fill:none;stroke:#ff0000;stroke-width:0.1;stroke-dasharray:none"
         id="circle3722"
         cx="882.9184"
         cy="-104.95844"
         r="19.954653" />
      <path
         d="m 889.78405,-89.11983 c 0.0444,-0.0424 0.79205,-0.35084 1.66196,-0.68532 3.05961,-1.17644 5.61942,-3.26612 6.6957,-5.46606 0.55434,-1.13294 1.06646,-3.31026 1.05035,-4.46539 l -0.0115,-0.77074 -0.34394,0.96566 c -0.82445,2.31476 -2.09976,4.08276 -3.72158,5.15926 -1.21466,0.80623 -3.42769,1.59896 -4.96248,1.77762 l -1.05975,0.12336 1.1561,-0.60183 c 1.23497,-0.64289 2.67766,-1.93551 3.25951,-2.92057 l 0.35599,-0.60256 -0.60292,0.44574 c -0.91462,0.67618 -2.606,0.74617 -3.49148,0.14448 -0.78934,-0.53644 -1.15209,-1.1714 -1.156,-2.0237 -0.007,-1.46263 1.71175,-2.20621 2.63041,-1.13817 0.24734,0.28748 0.44965,0.69127 0.44965,0.89731 0,0.47437 -0.6598,1.14536 -1.12624,1.14536 -0.41984,0 -0.99327,-0.57914 -0.99327,-1.00317 0,-0.4321 0.514,-0.79267 0.96266,-0.67535 0.21267,0.0557 0.33806,0.0225 0.27865,-0.0736 -0.0598,-0.0961 -0.36508,-0.17471 -0.67939,-0.17471 -0.68399,0 -1.0589,0.71471 -0.79861,1.52248 0.21963,0.68166 1.39569,1.25357 2.2487,1.09355 2.66097,-0.49919 2.48071,-4.12451 -0.24564,-4.94136 -0.44162,-0.13231 -0.80297,-0.3029 -0.80297,-0.37907 0,-0.26258 1.83208,0.055 2.53039,0.43854 0.70823,0.38905 1.516,1.55045 1.516,2.17968 0,0.65079 0.17486,0.16544 0.35335,-0.9805 0.16414,-1.0544 0.15504,-1.11342 -0.11081,-0.71566 -0.34776,0.52057 -0.62796,0.56114 -0.62796,0.0909 0,-0.49316 -1.22777,-2.96961 -1.66488,-3.358 -0.32022,-0.28458 -0.5472,-0.30356 -1.69208,-0.14142 -1.72983,0.24498 -2.58152,0.64758 -4.44671,2.10196 -0.84783,0.66108 -2.13672,1.50253 -2.86415,1.86991 -1.38404,0.69897 -3.81561,1.41166 -4.81625,1.41166 -0.38653,0 -0.5209,0.0649 -0.39499,0.19075 0.12583,0.12588 0.67167,0.0905 1.60486,-0.10411 1.27035,-0.26487 2.30834,-0.28753 1.55707,-0.034 -1.10126,0.37165 -2.06503,0.74836 -2.30455,0.90081 -0.24083,0.15331 -0.22962,0.23624 0.078,0.57623 0.19766,0.21841 0.4114,0.39713 0.47497,0.39713 0.0634,0 0.72215,-0.45546 1.46343,-1.01212 1.74533,-1.31053 3.63929,-2.29519 5.82028,-3.02589 2.32908,-0.78031 2.82895,-0.74094 0.95882,0.0755 -3.5908,1.56764 -6.12097,3.37178 -7.40248,5.27827 l -0.81506,1.21265 -0.94701,-1.45062 -0.94696,-1.45063 -0.75884,0.54968 c -0.41729,0.30232 -0.9396,0.79791 -1.1606,1.10131 -0.22103,0.30338 -0.46048,0.49294 -0.53221,0.42125 -0.0714,-0.0717 -0.27158,-0.9603 -0.4441,-1.97466 -0.25509,-1.4995 -0.37615,-1.84429 -0.64735,-1.84429 -0.57707,0 -2.80783,-0.88744 -3.9343,-1.56512 -0.5949,-0.35791 -1.63122,-1.19303 -2.30295,-1.85585 -1.11838,-1.10358 -1.26075,-1.18713 -1.68955,-0.99176 -0.99203,0.45201 -1.74992,-0.68535 -0.97382,-1.46143 0.17257,-0.17263 0.44729,-0.26269 0.61026,-0.20013 0.16307,0.0626 0.79433,0.16579 1.40284,0.22939 0.8997,0.0941 1.26703,0.038 1.96548,-0.30021 0.4725,-0.22871 1.01402,-0.58709 1.20345,-0.79636 0.33296,-0.36792 0.33033,-0.38051 -0.0797,-0.38051 -0.53773,0 -1.36984,-0.81979 -1.36984,-1.34959 0,-1.21445 1.45681,-2.38291 4.10414,-3.29171 3.79893,-1.30414 8.50993,-1.30692 12.64173,-0.007 0.83291,0.26195 1.14649,0.30437 0.96342,0.13032 -0.33516,-0.31861 -3.1829,-0.98285 -5.37254,-1.25318 -4.49653,-0.5551 -8.70247,0.14127 -11.65285,1.92937 -0.57938,0.35116 -1.63137,1.18591 -2.3376,1.855 -0.70634,0.66909 -1.36019,1.21652 -1.45308,1.21652 -0.4554,0 -0.083,0.55821 0.56816,0.85189 0.8434,0.3803 2.11398,1.38345 1.47885,1.16753 -0.21197,-0.0721 -0.93404,-0.28599 -1.60462,-0.47543 -1.77191,-0.50056 -2.82475,-1.61183 -2.35625,-2.48708 0.29988,-0.56041 0.8881,-0.67104 1.53523,-0.28877 l 0.56562,0.3341 1.09633,-1.00201 c 1.4297,-1.30663 2.53714,-2.05854 4.00319,-2.71787 1.2812,-0.57624 3.41006,-1.16285 4.21994,-1.16285 h 0.49828 l -0.45122,-1.30062 c -0.24826,-0.71534 -0.54306,-2.03537 -0.65513,-2.93336 -0.21921,-1.75627 -0.27647,-4.82216 -0.0901,-4.82216 0.0626,0 0.77426,0.60857 1.58154,1.35239 2.73875,2.52361 6.27725,4.60103 9.67302,5.67898 2.78062,0.88269 2.66104,0.83603 2.18825,0.85345 -0.69337,0.0256 -4.70086,-1.05403 -6.3331,-1.7061 -1.81517,-0.72513 -3.59496,-1.69282 -4.78745,-2.60312 -0.83598,-0.63806 -0.86051,-0.64405 -0.96983,-0.23645 -0.18425,0.68681 -0.11551,2.83674 0.13349,4.17551 l 0.23289,1.25245 1.8261,0.056 1.8261,0.056 -0.76737,-0.58051 c -0.89902,-0.68011 -0.99902,-0.70284 -1.11628,-0.25404 -0.0488,0.18545 -0.0981,0.0537 -0.11045,-0.29285 -0.0123,-0.34654 -0.22255,-0.95349 -0.46717,-1.34881 -0.56725,-0.91657 -1.34567,-2.74983 -1.22064,-2.87486 0.0525,-0.0526 0.24179,0.19433 0.4205,0.54859 0.53207,1.05449 1.33088,2.28123 1.48578,2.2816 0.0795,1.8e-4 0.1445,-0.11311 0.1445,-0.25186 0,-0.13872 0.12269,-0.41994 0.27259,-0.62496 0.26362,-0.36047 0.28737,-0.35372 0.72146,0.20404 0.24688,0.31723 0.72484,0.88025 1.06217,1.25117 l 0.61333,0.6744 0.21455,-0.56308 0.21453,-0.56306 0.96274,0.94823 c 0.78902,0.77711 0.99567,0.89612 1.14534,0.65941 0.10043,-0.15884 0.18388,-0.3972 0.1855,-0.52967 0.007,-0.39999 0.27869,-0.27595 0.97373,0.44116 0.59324,0.612 0.68508,0.64922 0.89459,0.36262 0.20804,-0.28448 0.35939,-0.2064 1.38462,0.71421 0.63308,0.56848 1.11954,1.0651 1.0811,1.1036 -0.0386,0.0385 -0.44344,-0.18158 -0.89989,-0.48904 -1.22078,-0.82226 -1.31166,-0.87024 -1.31166,-0.69216 0,0.0893 0.26609,0.31971 0.5914,0.51185 0.32525,0.19213 0.54473,0.39599 0.48772,0.45301 -0.0569,0.0571 -0.33247,-0.0463 -0.61203,-0.2294 -0.3629,-0.2378 -0.5676,-0.27374 -0.71571,-0.12565 -0.26481,0.26479 -0.29904,0.24586 1.40472,0.77516 0.7948,0.24691 1.98702,0.69308 2.64937,0.99148 0.66236,0.29839 1.20431,0.45697 1.20431,0.35236 0,-0.39354 -0.59709,-1.32375 -0.98198,-1.5297 -0.60365,-0.32307 -0.29173,-0.44417 0.4843,-0.18804 0.86764,0.28633 1.46108,1.03417 1.46108,1.84112 0,0.37742 0.11403,0.67157 0.28606,0.73757 0.33625,0.12902 0.59499,-0.2875 0.76293,-1.2282 0.19115,-1.07084 -0.40928,-1.82789 -2.06678,-2.60565 -1.50231,-0.70493 -1.48616,-0.78333 0.0931,-0.45256 2.69373,0.5642 3.63391,2.03317 2.66599,4.16534 -0.56586,1.24656 0.035,1.21054 0.73082,-0.0438 0.20615,-0.37165 0.21395,-0.36947 0.21963,0.0608 0,0.24541 -0.0896,0.62448 -0.20616,0.84237 -0.17071,0.31897 -0.14043,0.46782 0.15567,0.76391 0.3619,0.36186 0.38068,0.35838 1.17549,-0.21736 0.44423,-0.32181 0.80769,-0.72082 0.80769,-0.88669 0,-0.27314 -0.0283,-0.27303 -0.3028,0.001 -0.39697,0.39697 -0.72141,0.38251 -1.11248,-0.0496 -0.69337,-0.76609 -0.0746,-1.95979 1.01594,-1.95979 0.66161,0 1.36276,0.76183 1.36276,1.48069 0,0.71173 -0.50958,1.54179 -1.25907,2.05111 -0.57284,0.38928 -0.63358,0.49573 -0.3956,0.69329 0.35707,0.29632 0.84929,0.0507 1.53756,-0.76722 0.27639,-0.32845 0.5025,-0.47607 0.5025,-0.32804 0,0.14801 -0.29217,0.61047 -0.6493,1.02766 l -0.64931,0.75856 0.83866,0.95309 c 1.05049,1.19373 2.06874,3.11743 2.46673,4.65994 0.31176,1.20864 0.37395,3.74811 0.11725,4.78927 l -0.14253,0.57806 -0.24252,-0.63659 -0.24249,-0.63659 -0.7576,1.55698 c -1.32492,2.72273 -3.33883,4.29315 -6.78704,5.29239 -1.55416,0.4504 -2.42696,0.61391 -2.22123,0.41616 z m 5.33096,-5.82471 c 0.92737,-0.70538 0.75994,-0.72811 -0.34687,-0.0472 -0.53519,0.3293 -1.02362,0.54818 -1.08539,0.48639 -0.0619,-0.0618 0.17181,-0.43599 0.51919,-0.83158 1.22106,-1.39073 1.81772,-3.45264 1.59568,-5.51465 l -0.12891,-1.19735 -0.23544,1.83049 c -0.29989,2.33131 -0.84253,3.76397 -2.01006,5.30644 l -0.92954,1.22811 0.99757,-0.39223 c 0.54866,-0.21572 1.27932,-0.60658 1.62377,-0.86853 z M 877.2882,-97.9396 c 0.48735,-0.37331 0.17733,-0.66525 -0.87041,-0.81969 l -0.92211,-0.13592 0.12111,0.54272 c 0.2848,1.27598 0.25356,1.24014 0.82045,0.94125 0.28451,-0.15006 0.66743,-0.38782 0.85096,-0.52836 z m 20.37948,-1.21771 c 0.47353,-1.69109 -0.12388,-4.59612 -1.22718,-5.96789 -0.41714,-0.51866 -0.50628,-0.55026 -0.96405,-0.3417 l -0.50439,0.22982 0.57728,0.82341 c 0.85439,1.21867 1.39191,2.91452 1.49664,4.72178 0.0503,0.8724 0.15599,1.54662 0.23427,1.49827 0.0781,-0.0484 0.25257,-0.48202 0.38743,-0.96369 z m -20.88045,-1.10918 c -0.0641,-0.23844 -0.26597,-1.17055 -0.44927,-2.07135 l -0.33317,-1.63781 -0.22917,0.96342 c -0.12607,0.52988 -0.23749,1.41228 -0.24768,1.96089 -0.0189,1.03549 0.067,1.13709 1.01554,1.19604 0.28228,0.0175 0.33472,-0.0711 0.24375,-0.41119 z m 4.1509,-0.14444 c 1.58292,-0.36722 4.15417,-1.64148 5.69748,-2.8236 1.36489,-1.04541 2.84012,-2.71833 3.66559,-4.1569 l 0.41211,-0.71819 -1.21372,-0.67876 c -0.66757,-0.37331 -1.26176,-0.67874 -1.32046,-0.67874 -0.059,0 0.18812,0.2948 0.54839,0.65512 0.90237,0.90233 0.87316,1.515 -0.11558,2.42782 -0.42392,0.39133 -0.77079,0.8472 -0.77079,1.01304 0,0.37839 -1.07627,1.30123 -1.50805,1.29303 -0.29232,-0.006 -0.29387,-0.028 -0.0167,-0.24086 0.69344,-0.53238 0.9637,-1.69881 0.56592,-2.44211 -0.1731,-0.32342 -0.24251,-0.3003 -0.86713,0.28875 -0.37336,0.35218 -0.67887,0.76437 -0.67887,0.91601 0,0.29637 -0.90907,1.29165 -1.17983,1.29165 -0.0901,0 -0.28453,0.28892 -0.43208,0.64205 -0.28898,0.69168 -1.15043,1.47746 -1.61964,1.47746 -0.20203,0 -0.13603,-0.15329 0.21862,-0.50797 0.38918,-0.38917 0.50803,-0.69915 0.50803,-1.3252 0,-0.84063 -0.43318,-1.51985 -0.6346,-0.995 -0.056,0.14551 -0.4778,0.45101 -0.93777,0.6789 -0.45988,0.22786 -1.03129,0.55512 -1.26971,0.72725 -0.47846,0.34533 -0.60568,0.0705 -0.14455,-0.31212 0.67013,-0.55615 0.0219,-2.54674 -0.73458,-2.25638 -0.17216,0.0661 -0.43427,0.40566 -0.58248,0.7547 -0.14826,0.34903 -0.56015,0.80244 -0.91533,1.00758 l -0.64575,0.37298 0.4275,-0.54348 c 0.55362,-0.70378 0.58652,-2.022 0.0626,-2.49634 -0.34721,-0.3142 -0.38933,-0.30621 -0.85831,0.16283 -0.64393,0.64394 -1.04686,0.65565 -0.62928,0.0184 0.47962,-0.73199 0.4014,-1.8764 -0.1705,-2.49347 -0.26493,-0.28588 -0.48174,-0.56088 -0.48174,-0.61113 0,-0.24842 1.20266,0.57508 1.57463,1.07824 0.30572,0.4135 0.46842,0.50743 0.57853,0.33402 0.27644,-0.43538 0.1664,-1.23976 -0.24025,-1.75678 -0.61807,-0.78569 -0.0466,-0.59955 0.80726,0.26307 0.4197,0.42388 0.88673,0.77071 1.03783,0.77071 0.37158,0 0.67372,-0.6117 0.67372,-1.36379 v -0.61838 l -1.30059,0.12701 c -2.28226,0.22286 -3.43931,0.45728 -5.09901,1.03306 l -0.90814,0.31505 0.90814,0.61635 c 1.82683,1.23986 2.4288,2.33267 2.06249,3.74436 -0.57007,2.19722 -1.72209,3.29799 -3.94822,3.77249 l -1.05976,0.22589 0.96175,0.42245 c 0.8377,0.36796 3.21216,1.0312 3.28782,0.91837 0.0146,-0.0223 0.1281,-0.67096 0.25162,-1.44166 0.21504,-1.3417 1.06127,-3.79959 1.37486,-3.99341 0.0823,-0.0508 0.20654,0.40515 0.27616,1.0133 0.18316,1.60098 0.49994,3.12458 0.81316,3.91171 l 0.27317,0.68644 1.13498,-0.13384 c 0.62426,-0.0736 1.59685,-0.24096 2.16125,-0.37189 z m -8.78215,-2.40926 c 0.45123,-0.26443 1.00018,-0.70936 1.21997,-0.98873 0.94999,-1.20777 0.98976,-3.22915 0.0847,-4.30485 -1.12361,-1.33532 -3.58116,-1.08197 -3.51657,0.36249 0.0184,0.40079 0.0408,0.42355 0.1171,0.1146 0.15206,-0.61885 0.44795,-0.86707 1.03346,-0.86707 1.67396,0 0.81128,2.73128 -1.18954,3.76592 -0.3046,0.15751 -0.98415,0.3965 -1.51009,0.53112 l -0.95627,0.24473 0.50243,0.64198 c 0.99485,1.27118 2.57824,1.45893 4.2149,0.49977 z m 22.35699,-0.73292 c -0.067,-0.63914 -0.14748,-1.18808 -0.17929,-1.21989 -0.0321,-0.0319 -0.36626,-0.008 -0.74326,0.0534 l -0.68535,0.11126 0.64734,0.96194 c 0.35604,0.52908 0.64734,1.08843 0.64734,1.24301 0,0.15954 0.094,0.22296 0.21738,0.1467 0.14521,-0.0897 0.17704,-0.5199 0.0959,-1.29639 z m -10.24133,-1.47273 c 0.36434,-0.70467 0.37526,-1.36614 0.0305,-1.83796 -0.25487,-0.34856 -0.27113,-0.34665 -0.48741,0.0576 -0.12309,0.22995 -0.48145,0.55136 -0.79649,0.71424 l -0.57263,0.29615 0.62652,0.65601 c 0.34461,0.36082 0.68936,0.66199 0.76612,0.66928 0.0768,0.007 0.27186,-0.24257 0.43361,-0.55524 z m -2.59629,-1.04779 c 0,-0.76573 -0.53149,-1.59031 -0.83162,-1.29022 -0.11494,0.11495 -0.34408,0.20893 -0.50939,0.20893 -0.16524,0 -0.40157,0.16189 -0.52516,0.35975 -0.19088,0.30565 -0.14034,0.42211 0.3363,0.77449 0.3085,0.2281 0.61865,0.64471 0.68923,0.92581 l 0.12824,0.51109 0.3562,-0.43984 c 0.19589,-0.24192 0.3562,-0.71442 0.3562,-1.05001 z m 11.80183,0.65549 c 0.18549,-0.001 0.33718,-0.0835 0.33718,-0.18233 0,-0.31295 -0.70735,-0.41895 -1.22428,-0.18345 -0.57866,0.26366 -0.46956,0.64197 0.13808,0.47891 0.2265,-0.0608 0.56354,-0.11173 0.74902,-0.11311 z m 1.8663,-0.56895 c 0.22465,-0.14214 0.23092,-0.23009 0.0334,-0.46795 -0.1932,-0.23286 -0.33884,-0.24928 -0.71011,-0.0801 -0.25692,0.11706 -0.46711,0.27117 -0.46711,0.34246 0,0.39166 0.66171,0.51061 1.14374,0.20561 z m -12.19214,-2.07435 c -0.0626,-0.38392 -0.19377,-0.77858 -0.29224,-0.87702 -0.26603,-0.26602 -0.91715,0.15035 -1.23655,0.79075 -0.24988,0.50089 -0.24186,0.57136 0.0884,0.77769 0.19982,0.12477 0.4622,0.44404 0.58317,0.70946 l 0.21986,0.48258 0.37527,-0.59272 c 0.27295,-0.43105 0.3444,-0.7831 0.26202,-1.29074 z m -3.96749,0.9378 c 0.183,-0.6109 0.16784,-0.84326 -0.0873,-1.33656 -0.42705,-0.82574 -0.66601,-0.92054 -0.88287,-0.35018 -0.10188,0.26799 -0.35181,0.59127 -0.55538,0.71839 -0.35108,0.21927 -0.33418,0.2675 0.33012,0.94061 0.38518,0.39023 0.76182,0.72248 0.83705,0.73834 0.0753,0.0159 0.23647,-0.3039 0.35832,-0.7106 z m 6.53781,-0.60934 c 0,-0.38339 -0.10838,-0.83123 -0.24085,-0.9952 -0.21489,-0.266 -0.32153,-0.25132 -0.98954,0.13616 l -0.74873,0.43427 0.70059,0.70053 c 0.38524,0.38528 0.70326,0.806 0.70661,0.93494 0.0153,0.58574 0.57192,-0.59254 0.57192,-1.2107 z m 2.78519,0.0219 c 0,-0.40916 -0.11403,-0.88125 -0.25328,-1.04911 -0.22933,-0.27628 -0.29166,-0.26945 -0.65821,0.0721 -0.22267,0.20745 -0.51348,0.37721 -0.64624,0.37721 -0.52173,0 -0.43354,0.39755 0.25402,1.14536 0.6429,0.69923 0.75059,0.75146 1.0116,0.49048 0.16066,-0.16064 0.29211,-0.62682 0.29211,-1.03596 z m 3.67039,0.58897 c -0.059,-0.0592 -0.3004,0.0931 -0.53591,0.33836 l -0.42814,0.44607 0.53585,-0.33836 c 0.2947,-0.18609 0.48741,-0.38682 0.4282,-0.44607 z m 2.02091,-0.0277 c 0.20331,-0.12855 0.22736,-0.24173 0.0821,-0.38697 -0.14521,-0.14521 -0.30848,-0.0912 -0.55813,0.18466 -0.26704,0.29509 -0.287,0.38921 -0.0821,0.38699 0.14885,-0.001 0.40002,-0.0848 0.55813,-0.18468 z m -22.8694,-0.48414 c 0.0211,-0.10458 -0.11379,-0.21927 -0.29917,-0.25497 -0.21096,-0.0406 -0.33724,0.0539 -0.33724,0.25234 0,0.33523 0.56949,0.33758 0.63641,0.003 z m 9.65736,-0.97551 c 0.0641,-0.25453 0.007,-0.72063 -0.12721,-1.03577 l -0.24332,-0.57297 -0.63496,0.5733 c -0.57234,0.51681 -0.60561,0.60261 -0.33748,0.87076 0.16357,0.16358 0.35132,0.51214 0.41722,0.7746 0.11172,0.4451 0.14295,0.45619 0.46461,0.16503 0.18973,-0.17168 0.3972,-0.52041 0.46114,-0.77495 z m 12.22495,0.81062 c 0.11806,-0.1422 0.15834,-0.31487 0.0894,-0.38369 -0.14463,-0.1446 -0.64232,0.22205 -0.64232,0.4732 0,0.25368 0.30958,0.20356 0.55281,-0.0894 z M 892.14995,-108.6 c 0.0612,-0.15896 0.027,-0.28902 -0.0757,-0.28902 -0.10271,0 -0.18664,0.13006 -0.18664,0.28902 0,0.15896 0.0342,0.28901 0.0757,0.28901 0.0415,0 0.12564,-0.13005 0.18667,-0.28901 z m -7.67362,-0.68817 c 0.51823,-1.00205 0.37717,-1.2672 -0.81733,-1.5366 -0.61848,-0.1395 -0.66131,-0.11961 -0.57363,0.26628 0.0525,0.22937 0.0283,0.59043 -0.0531,0.80239 -0.10538,0.27466 -0.0305,0.49921 0.25912,0.78164 0.49777,0.48463 0.81557,0.40049 1.18486,-0.31371 z m 2.5406,0.54366 c 0.48953,-0.63262 0.44167,-0.93381 -0.18927,-1.19185 -1.37553,-0.56252 -1.49134,-0.56378 -1.49134,-0.0162 0,0.30824 0.20575,0.68506 0.52988,0.97033 0.5995,0.52764 0.88133,0.58587 1.15073,0.2377 z m 4.02512,-0.68762 c -0.14158,-0.22908 -3.40699,-1.43452 -3.53611,-1.30537 -0.16428,0.16424 3.31864,1.81711 3.48812,1.65536 0.0914,-0.0872 0.11299,-0.24476 0.048,-0.34999 z m -8.68521,-0.64535 c 0.15948,-0.72614 0.0115,-0.87759 -1.01868,-1.04217 -1.01351,-0.16192 -1.09319,0.16161 -0.24092,0.97818 0.31795,0.30459 0.57811,0.67826 0.57811,0.83039 0,0.48684 0.53948,-0.11985 0.68149,-0.7664 z m 3.17211,-2.43629 c 0,-0.29832 -0.93318,-1.19235 -1.24458,-1.19235 -0.28053,0 -0.0547,0.5909 0.29772,0.77956 0.22102,0.1183 0.3585,0.25844 0.30549,0.31142 -0.0531,0.053 -0.27192,0.002 -0.48646,-0.11252 -0.24616,-0.1317 -0.43267,-0.14017 -0.50512,-0.0229 -0.0634,0.1023 0.16997,0.26809 0.51822,0.3685 0.94374,0.27222 1.11473,0.252 1.11473,-0.13178 z m -1.93874,-0.37345 c -0.0138,-0.38521 -1.65541,-1.66093 -1.81182,-1.40782 -0.0569,0.0915 0.22226,0.43878 0.61958,0.77173 l 0.72252,0.60535 -0.78135,-0.37882 c -0.72462,-0.35133 -0.7973,-0.35544 -1.00026,-0.0569 -0.19211,0.28249 -0.22277,0.26291 -0.24986,-0.15976 -0.0197,-0.30871 -0.36478,-0.78079 -0.96056,-1.31451 -0.86407,-0.77411 -0.94346,-0.80686 -1.12661,-0.46471 -0.16524,0.30878 -0.0422,0.52057 0.76234,1.31451 0.86617,0.85457 1.08493,0.96727 2.25414,1.16124 0.71211,0.11815 1.35981,0.22653 1.43933,0.24085 0.0795,0.0144 0.13911,-0.1257 0.13255,-0.31115 z m 1.48076,22.389 c -0.72877,-0.14481 -1.35856,-0.29678 -1.39949,-0.33771 -0.0408,-0.041 1.16229,-0.12673 2.67385,-0.19067 3.25535,-0.1377 5.14205,-0.56535 7.40924,-1.67946 0.86793,-0.4265 2.06015,-1.21608 2.64945,-1.75463 0.58923,-0.53853 1.07135,-0.92105 1.07135,-0.85004 0,0.0711 -0.25781,0.50389 -0.57294,0.96191 -1.2303,1.78813 -3.53566,3.31881 -5.80358,3.85341 -1.50281,0.35425 -4.23726,0.35297 -6.02788,-0.003 z"
         style="fill:#000000;stroke-width:0.0509808"
         id="path7296" />
    </g>
  </g>
</svg>
