<?xml version="1.0" encoding="UTF-8" standalone="no"?>
<!-- Created with Inkscape (http://www.inkscape.org/) -->

<svg
   width="41.008999mm"
   height="41.008999mm"
   viewBox="0 0 41.008999 41.008999"
   version="1.1"
   id="svg1"
   inkscape:version="1.4.2 (f4327f4, 2025-05-13)"
   sodipodi:docname="303.svg"
   xmlns:inkscape="http://www.inkscape.org/namespaces/inkscape"
   xmlns:sodipodi="http://sodipodi.sourceforge.net/DTD/sodipodi-0.dtd"
   xmlns="http://www.w3.org/2000/svg"
   xmlns:svg="http://www.w3.org/2000/svg">
  <sodipodi:namedview
     id="namedview1"
     pagecolor="#ffffff"
     bordercolor="#000000"
     borderopacity="0.25"
     inkscape:showpageshadow="2"
     inkscape:pageopacity="0.0"
     inkscape:pagecheckerboard="0"
     inkscape:deskcolor="#d1d1d1"
     inkscape:document-units="mm"
     inkscape:zoom="1.4513545"
     inkscape:cx="86.470947"
     inkscape:cy="-62.700049"
     inkscape:window-width="1050"
     inkscape:window-height="1081"
     inkscape:window-x="857"
     inkscape:window-y="0"
     inkscape:window-maximized="0"
     inkscape:current-layer="layer1" />
  <defs
     id="defs1" />
  <g
     inkscape:label="Layer 1"
     inkscape:groupmode="layer"
     id="layer1"
     transform="translate(333.37504,1257.5646)">
    <g
       id="g48"
       transform="translate(-1238.173,-1132.1466)">
      <circle
         style="fill:none;stroke:#0000ff;stroke-width:0.1;stroke-linecap:round;stroke-dasharray:none;stroke-opacity:1;paint-order:markers stroke fill"
         id="circle3724"
         cx="925.30249"
         cy="-119.92443"
         r="2" />
      <circle
         style="fill:none;stroke:#ff0000;stroke-width:0.1;stroke-dasharray:none"
         id="circle3726"
         cx="925.30249"
         cy="-104.91346"
         r="19.954653" />
      <path
         d="m 917.3394,-87.65623 c -2.53141,-0.28836 -2.51358,-0.31541 0.31427,-0.47836 1.44071,-0.083 3.08028,-0.21 3.6434,-0.28217 l 1.02393,-0.13124 -1.86261,-0.66503 c -1.0244,-0.36576 -2.64506,-1.07214 -3.6015,-1.56972 -1.51736,-0.78942 -1.80567,-0.87433 -2.26219,-0.66632 -0.74813,0.34087 -0.83171,0.29771 -0.38318,-0.19789 0.35096,-0.38775 0.35832,-0.45676 0.0665,-0.62 -0.69554,-0.38928 -3.66509,-2.56483 -4.06372,-2.97718 -0.38403,-0.39728 -0.34895,-0.3927 0.41914,0.0548 1.58572,0.9239 4.15926,2.30221 4.29866,2.30221 0.32504,0 0.6877,-1.26745 0.80951,-2.82903 l 0.13077,-1.67646 0.49851,1.01268 c 0.69531,1.41229 2.45354,3.23977 4.03419,4.19308 l 1.33488,0.80506 -1.04776,-0.1413 c -1.29878,-0.17519 -2.75992,-0.80084 -3.47953,-1.48995 l -0.54565,-0.52256 -0.36171,0.55197 c -0.19888,0.30359 -0.33052,0.57894 -0.29251,0.61192 0.56751,0.49208 4.66409,2.04881 7.23375,2.74886 l 2.02506,0.55169 1.79663,-0.46844 c 2.43906,-0.6359 6.94877,-2.33347 7.52386,-2.83211 0.038,-0.0329 -0.0936,-0.30833 -0.29257,-0.61192 l -0.36165,-0.55197 -0.54571,0.52256 c -0.71962,0.68911 -2.18075,1.31476 -3.47945,1.48995 l -1.04784,0.1413 1.33488,-0.80506 c 1.58064,-0.95331 3.33887,-2.78079 4.03418,-4.19308 l 0.49858,-1.01268 0.1307,1.67646 c 0.12291,1.57523 0.48488,2.82903 0.8169,2.82903 0.13494,0 1.37795,-0.66373 4.08177,-2.17949 l 1.04779,-0.58738 -0.7335,0.64823 c -0.40339,0.35654 -1.44071,1.13649 -2.30512,1.73323 -0.86443,0.59674 -1.61034,1.1156 -1.6577,1.15303 -0.0476,0.0374 0.0853,0.25721 0.29446,0.48843 0.43436,0.47998 0.34556,0.5206 -0.39759,0.18201 -0.45654,-0.20802 -0.74483,-0.1231 -2.26218,0.66631 -0.95638,0.49759 -2.5771,1.20396 -3.60152,1.56973 l -1.86252,0.66502 1.02385,0.13125 c 0.56321,0.0721 2.2027,0.19925 3.64341,0.28236 2.41417,0.1393 2.53733,0.1658 1.57169,0.33809 -0.88738,0.15834 -4.90282,0.1996 -9.16812,0.0942 -0.6051,-0.015 -2.27898,0.0323 -3.71966,0.10482 -1.44071,0.0727 -3.3739,0.0462 -4.29589,-0.059 z m 3.45767,-5.25625 c -1.7758,-1.32777 -2.46541,-2.04572 -3.56111,-3.7075 -1.19635,-1.81441 -2.19956,-4.72336 -2.57917,-7.47846 -0.21804,-1.58294 -0.3206,-1.88601 -0.63829,-1.88601 -0.26992,0 -0.49487,0.33064 -0.7841,1.15256 -0.22304,0.63391 -0.84011,1.90066 -1.37117,2.81499 -1.13749,1.95854 -1.30368,2.82546 -0.82029,4.28071 0.45526,1.37063 1.31975,2.12481 2.43573,2.12481 0.79131,0 1.66031,-0.54338 1.66031,-1.03826 0,-0.11001 -0.23729,0.0373 -0.52732,0.32735 -1.21665,1.2166 -2.94539,-0.71173 -1.76962,-1.97381 0.54071,-0.58038 1.44409,-0.59053 2.16396,-0.0243 0.44187,0.34758 0.55078,0.60913 0.54548,1.30973 -0.007,1.05508 -0.31444,1.50174 -1.31787,1.92097 -0.98987,0.41362 -1.73366,0.39364 -2.7637,-0.0743 -1.46699,-0.66644 -2.61756,-2.38511 -2.61439,-3.9051 0,-0.70496 0.93347,-2.43355 2.20327,-4.08637 1.17861,-1.53413 2.2845,-3.54198 2.06938,-3.75712 -0.0594,-0.0592 -0.17313,-0.006 -0.25328,0.11697 -0.345,0.53136 -1.08016,0.73356 -1.65026,0.45393 -1.48829,-0.73005 -1.88972,-2.74971 -0.85674,-4.31066 0.7079,-1.06976 1.82443,-1.60822 3.34695,-1.61417 l 1.19533,-0.005 0.45612,-1.24906 c 0.33297,-0.91188 0.77927,-1.57223 1.65336,-2.44631 1.01498,-1.01504 1.42595,-1.26674 2.70002,-1.65373 1.25441,-0.38103 1.80543,-0.43548 3.33324,-0.32958 1.00684,0.0697 2.01912,0.12691 2.2496,0.12691 0.23055,0 1.24285,-0.0571 2.24959,-0.12691 1.5279,-0.1059 2.07883,-0.0515 3.33326,0.32958 1.27245,0.38648 1.68543,0.63909 2.69407,1.64773 0.82188,0.82189 1.32411,1.54793 1.61953,2.34155 l 0.42834,1.15026 1.25726,0.12306 c 2.39968,0.23488 3.89866,1.6454 3.91721,3.686 0.0134,1.51385 -1.42282,2.89221 -2.45029,2.35101 -0.26153,-0.13774 -0.54111,-0.35146 -0.62127,-0.47495 -0.0802,-0.12347 -0.19422,-0.1761 -0.25337,-0.11694 -0.21512,0.21513 0.89079,2.22298 2.06942,3.75712 1.26976,1.65281 2.20182,3.3814 2.20326,4.08636 0,1.51999 -1.14741,3.23866 -2.61442,3.9051 -1.04389,0.47424 -1.74395,0.48691 -2.83269,0.0514 -0.99676,-0.39883 -1.25552,-0.79788 -1.25552,-1.93661 0,-0.6544 0.1204,-0.93146 0.55221,-1.27111 0.72804,-0.57269 1.56868,-0.55273 2.13555,0.0507 0.532,0.56624 0.57919,1.13135 0.1462,1.74953 -0.64116,0.91531 -1.79862,0.79174 -2.21539,-0.23648 -0.14453,-0.35648 -0.17502,-0.36627 -0.18611,-0.0596 -0.0237,0.65325 0.75045,1.20494 1.69081,1.20494 1.14741,0 2.11978,-0.98387 2.4876,-2.517 0.33535,-1.39804 0.19761,-1.98179 -0.91724,-3.88626 -0.50999,-0.87124 -1.13845,-2.14881 -1.39659,-2.83906 -0.71663,-1.91611 -1.05658,-1.65193 -1.4939,1.16086 -0.5812,3.73799 -1.67159,6.30865 -3.6732,8.66025 -0.90632,1.06475 -3.34576,2.98368 -3.79292,2.98368 -0.25259,0 -2.97661,-2.93178 -2.97661,-3.20357 0,-0.0998 -0.25234,0.13223 -0.56076,0.51564 -0.9559,1.1883 -2.45132,2.68798 -2.67951,2.68703 -0.11959,-4.1e-4 -0.73612,-0.3887 -1.36996,-0.86267 z m 3.33426,-3.08707 c 0.39547,-0.54292 0.39508,-0.5453 -0.34722,-2.0161 -0.40875,-0.80989 -1.00516,-2.22694 -1.32544,-3.14899 -0.43627,-1.25604 -0.58643,-1.51879 -0.59885,-1.04779 -0.009,0.34578 -0.2156,0.95514 -0.45882,1.35416 -0.28847,0.47315 -0.35976,0.75297 -0.205,0.80454 1.40563,0.46854 1.30551,2.72246 -0.14787,3.32974 -1.23508,0.51604 -2.1311,-0.0943 -2.66288,-1.81385 -0.13843,-0.44772 -0.0594,-0.41046 0.59111,0.27957 0.60264,0.63902 0.84603,0.7669 1.23342,0.64808 0.75599,-0.23198 1.00633,-0.52003 1.00633,-1.15784 0,-0.71141 -0.27679,-0.93456 -0.63053,-0.50829 -0.32424,0.39068 -0.91953,0.40239 -1.23341,0.0242 -0.32765,-0.39482 -0.12315,-0.78768 0.66975,-1.2868 0.81801,-0.51492 1.90712,-2.44023 1.71783,-3.03666 -0.19066,-0.60059 -0.91947,-0.51056 -1.77306,0.21904 -0.8922,0.76264 -2.21362,0.8393 -3.46558,0.20105 -0.45209,-0.23051 -0.84169,-0.41912 -0.8656,-0.41912 -0.16664,0 0.52534,1.88226 1.2712,3.4577 1.07114,2.26256 2.41323,4.08539 3.89242,5.28678 l 1.09101,0.88608 0.92264,-0.75601 c 0.50736,-0.4158 1.10077,-1.00061 1.31855,-1.29956 z m 6.68291,0.20385 c 1.0819,-1.10922 1.87915,-2.24594 2.66335,-3.79726 0.56154,-1.11092 1.58817,-3.82308 1.48583,-3.92541 -0.0277,-0.0275 -0.41702,0.13734 -0.86569,0.3661 -1.24554,0.635 -2.56901,0.55688 -3.4594,-0.20421 -0.79798,-0.68206 -1.61148,-0.82024 -1.80837,-0.30711 -0.18724,0.48786 0.762,2.35558 1.49425,2.94022 0.34998,0.27943 0.75512,0.60548 0.9003,0.72456 0.19269,0.15809 0.2048,0.32681 0.0452,0.6255 -0.25978,0.48548 -0.88721,0.53415 -1.24997,0.097 -0.35381,-0.42627 -0.63061,-0.20312 -0.63061,0.50829 0,0.63728 0.25045,0.9259 1.00405,1.15709 0.38531,0.11819 0.628,-0.0113 1.22812,-0.65541 0.65698,-0.70506 0.72913,-0.73898 0.59347,-0.27882 -0.30675,1.0402 -0.72193,1.62223 -1.33973,1.87812 -0.89901,0.3724 -2.1349,-0.24011 -2.40134,-1.19009 -0.18066,-0.64431 0.13148,-1.94036 0.46935,-1.94858 0.072,-0.002 0.25653,-0.0824 0.40916,-0.17909 0.22201,-0.14079 0.1908,-0.31784 -0.15642,-0.88741 -0.23855,-0.39134 -0.43886,-0.99443 -0.44503,-1.34021 -0.007,-0.45987 -0.19627,-0.12227 -0.7004,1.25734 -0.37899,1.03731 -0.99533,2.48876 -1.36964,3.22543 l -0.68052,1.33941 1.29245,1.22979 1.29234,1.22979 0.66404,-0.4704 c 0.36519,-0.25871 1.06961,-0.8863 1.56543,-1.39463 z m -16.09433,-1.80647 c -0.14351,-0.17288 -0.36172,-0.31434 -0.48487,-0.31434 -0.12316,0 -0.0412,0.13845 0.18288,0.30768 0.52567,0.39759 0.62832,0.39985 0.30199,0.006 z m 21.40153,-0.0524 c 0.26067,-0.33237 0.25329,-0.33978 -0.0791,-0.079 -0.20166,0.15818 -0.36673,0.32321 -0.36673,0.36673 0,0.17247 0.17211,0.0614 0.44583,-0.28762 z m -8.82121,-3.29155 c 0.68773,-1.37814 1.25046,-2.62763 1.25046,-2.77664 0,-0.40082 -0.42168,-0.32082 -1.36212,0.25845 -1.10607,0.68124 -2.2606,0.67607 -3.56215,-0.0161 -1.79949,-0.9568 -1.89414,-0.71894 -0.70989,1.78398 0.57059,1.20592 1.3333,2.65356 1.69477,3.21699 l 0.65737,1.02439 0.39057,-0.49273 c 0.21479,-0.271 0.95328,-1.62032 1.64099,-2.99846 z m -9.8094,-3.03378 -0.0902,-0.61491 -0.7152,0.34104 -0.71511,0.34105 0.57975,0.25683 c 0.89736,0.39755 1.03953,0.34858 0.94077,-0.32401 z m 16.47995,0.34227 0.64843,-0.27264 -0.71038,-0.32198 -0.71035,-0.32196 -0.0873,0.59461 c -0.0992,0.67582 -0.0373,0.69902 0.85958,0.32197 z m -15.26935,-0.47319 c 0,-0.35561 -0.54001,-0.40541 -0.7479,-0.069 -0.15792,0.25561 0.3127,0.63996 0.58078,0.47428 0.092,-0.0569 0.16712,-0.23921 0.16712,-0.40529 z m 1.10513,0.24098 c 0.35293,-0.26782 0.35126,-0.28728 -0.034,-0.38811 -0.27698,-0.0725 -0.43869,0.0193 -0.50911,0.28863 -0.12088,0.46218 0.0293,0.48965 0.54348,0.0995 z m 6.96279,-0.002 0.57169,-0.2966 -0.60012,-0.31035 c -0.59379,-0.30707 -0.60012,-0.30393 -0.60012,0.2966 0,0.33383 0.0126,0.60697 0.0285,0.60697 0.016,0 0.28569,-0.13349 0.60013,-0.29662 z m 4.57261,-0.0981 c -0.0705,-0.26937 -0.23214,-0.36105 -0.50911,-0.28861 -0.38557,0.10085 -0.3873,0.12027 -0.034,0.38809 0.51417,0.39018 0.66424,0.36271 0.54339,-0.0995 z m 1.28038,-0.25766 c -0.17852,-0.28899 -0.71876,-0.21864 -0.71876,0.0935 0,0.15367 0.0618,0.34145 0.13787,0.41729 0.18956,0.18952 0.72353,-0.28014 0.58089,-0.51089 z m -8.21751,-0.0496 c 0.0885,-0.46322 0.0586,-0.47896 -0.50784,-0.26524 -0.54842,0.20702 -0.56971,0.25081 -0.23919,0.49245 0.51091,0.37363 0.63962,0.33447 0.74703,-0.22721 z m 1.21204,0.0733 c 0,-0.23051 -0.13591,-0.41911 -0.302,-0.41911 -0.37021,0 -0.60685,0.34485 -0.43142,0.62866 0.22786,0.36875 0.73342,0.2243 0.73342,-0.20955 z m -9.19917,-0.51855 c 0.39167,-0.28519 0.93096,-0.61546 1.19851,-0.73392 l 0.4863,-0.21536 -0.59109,-0.71527 c -1.27238,-1.53943 -2.50058,-2.05561 -3.30425,-1.38865 -0.36126,0.2998 -0.44432,1.05706 -0.11595,1.05706 0.11524,0 0.19838,-0.0707 0.18477,-0.15716 -0.0689,-0.43427 0.0642,-0.66539 0.45399,-0.78904 0.91986,-0.29196 1.40973,0.87141 0.6044,1.43549 -0.39127,0.27406 -0.41082,0.38704 -0.2015,1.16445 0.12752,0.47353 0.30858,0.86095 0.40235,0.86095 0.0938,0 0.49089,-0.23334 0.88247,-0.51855 z m 19.05445,-0.3424 c 0.20931,-0.77741 0.18983,-0.89039 -0.20152,-1.16445 -0.80532,-0.56408 -0.31544,-1.72745 0.6045,-1.43549 0.42499,0.13489 0.51846,0.33754 0.43649,0.9462 -0.0317,0.23733 0.0182,0.25561 0.20433,0.0746 0.38499,-0.37404 0.15515,-0.98684 -0.48528,-1.29381 -0.50863,-0.24376 -0.67956,-0.22918 -1.34176,0.1145 -0.41741,0.21662 -1.08422,0.78777 -1.48174,1.26923 l -0.72272,0.87541 0.50396,0.19163 c 0.27722,0.1054 0.63838,0.35346 0.80249,0.55124 0.27055,0.32594 0.91963,0.68463 1.30036,0.71855 0.0821,0.007 0.25337,-0.37414 0.38089,-0.84766 z m -12.36997,-0.50117 c 1.51197,-0.40585 2.8787,-0.39444 4.49982,0.0376 1.2377,0.3298 1.37765,0.32966 2.23472,-0.003 0.50285,-0.19477 1.62159,-0.92214 2.48599,-1.6164 0.86443,-0.69426 1.96416,-1.37752 2.4439,-1.51834 l 0.87217,-0.25604 -0.28576,-0.67975 c -0.15721,-0.37387 -0.41384,-0.67975 -0.57025,-0.67975 -0.3706,0 -2.62502,1.35576 -3.29833,1.98351 -1.22558,1.14273 -2.12168,1.5792 -3.22498,1.57077 l -1.07089,-0.008 0.65413,-0.28472 c 0.73135,-0.31828 1.33664,-1.06184 1.33664,-1.64193 0,-0.31405 -0.49827,-1.51426 -0.74634,-1.79775 -0.0357,-0.0404 -0.40061,0.18292 -0.81158,0.49637 -0.91885,0.70082 -0.95275,0.55926 -0.099,-0.41313 l 0.64827,-0.73835 -0.76851,-1.04691 c -0.4227,-0.57579 -1.05616,-1.25173 -1.40766,-1.50207 -0.59546,-0.42399 -0.67694,-0.43284 -1.18954,-0.12955 -0.30264,0.17908 -0.96191,0.84841 -1.46501,1.4874 l -0.91473,1.16182 0.80995,0.99989 0.80991,0.99989 -0.67473,-0.47349 c -0.37106,-0.26043 -0.73024,-0.5634 -0.7982,-0.67329 -0.0682,-0.1099 -0.19476,-0.19982 -0.28179,-0.19982 -0.21386,0 -0.86475,1.38999 -0.86475,1.8465 0,0.56402 0.61368,1.30974 1.33662,1.62442 l 0.65422,0.28471 -1.04776,0.007 c -1.16651,0.008 -1.7309,-0.27131 -3.56715,-1.76693 -1.15049,-0.93711 -2.59387,-1.78656 -3.03575,-1.78656 -0.12538,0 -0.35658,0.3059 -0.51378,0.67975 l -0.28583,0.67975 0.87225,0.25613 c 0.47965,0.14087 1.53224,0.789 2.33908,1.44032 1.44648,1.1677 2.84353,1.96222 3.45768,1.96633 0.17289,0.002 0.83298,-0.13709 1.46691,-0.30723 z m -11.62664,-1.91214 c -0.40568,-0.40567 -0.34509,-1.1059 0.12094,-1.39784 0.47601,-0.29822 1.39501,-0.0127 1.55206,0.48208 0.11571,0.3646 0.17244,0.37998 0.43436,0.11803 0.16568,-0.1657 0.48929,-0.36094 0.71916,-0.43387 0.33462,-0.10622 0.41785,-0.3176 0.41785,-1.06152 0,-0.9235 -0.007,-0.92889 -0.74021,-0.92889 -2.06101,0 -3.58796,1.71263 -2.81486,3.15713 0.11928,0.22293 0.31459,0.40534 0.43401,0.40534 0.11945,0 0.0642,-0.1532 -0.12331,-0.34046 z m 28.05455,-0.32829 c 0.46547,-1.31661 -0.77437,-2.67122 -2.606,-2.84722 l -1.0389,-0.0998 v 0.95556 c 0,0.77055 0.0809,0.98122 0.41787,1.08818 0.22985,0.0729 0.55338,0.26817 0.71907,0.43387 0.26201,0.26195 0.31863,0.24657 0.43436,-0.11803 0.15706,-0.49485 1.07605,-0.7803 1.55204,-0.48208 0.48005,0.30072 0.52242,0.99634 0.0874,1.43151 -0.27357,0.27356 -0.29068,0.3464 -0.0634,0.27096 0.17077,-0.0568 0.39483,-0.34158 0.49778,-0.63292 z m -18.58952,-0.12666 c -0.1873,-0.20697 -0.63624,-1.03209 -0.9977,-1.83362 -0.42175,-0.93537 -0.99732,-1.77632 -1.60702,-2.34795 l -0.94989,-0.89062 h 0.7552 c 0.41535,0 1.19184,0.14823 1.72544,0.32939 0.53359,0.18116 0.98575,0.29905 1.00475,0.26194 0.0191,-0.0372 0.33084,-0.68693 0.69295,-1.44406 l 0.6584,-1.37666 -1.13599,0.15418 c -1.42375,0.19319 -2.71895,0.9424 -3.84926,2.22645 l -0.87676,0.99608 0.48931,0.30506 c 0.26912,0.16778 1.29592,1.13554 2.28174,2.15058 0.98576,1.01504 1.87268,1.84553 1.97089,1.84553 0.0981,0 0.0254,-0.16934 -0.16206,-0.3763 z m 10.62956,-1.56258 c 1.04786,-1.06638 2.0786,-2.03368 2.29054,-2.14956 0.35317,-0.19303 0.3119,-0.29433 -0.49216,-1.2078 -1.13117,-1.28502 -2.42613,-2.0342 -3.85011,-2.22746 l -1.13602,-0.15418 0.65842,1.37666 c 0.36212,0.75713 0.67394,1.40698 0.69294,1.44406 0.0191,0.0372 0.4711,-0.0808 1.0047,-0.26194 0.53365,-0.18116 1.31009,-0.32939 1.72543,-0.32939 h 0.75527 l -0.94998,0.89062 c -0.60961,0.57163 -1.18516,1.41258 -1.607,2.34795 -0.36141,0.80153 -0.81039,1.62665 -0.99772,1.83362 -0.18724,0.20696 -0.26376,0.3763 -0.16998,0.3763 0.0938,0 1.02791,-0.87249 2.07567,-1.93888 z m -10.14941,-0.76789 c 0.15244,-0.53158 0.12537,-0.69353 -0.13245,-0.79245 -0.47347,-0.18171 -0.68146,0.31052 -0.42182,0.99845 0.26327,0.69745 0.29898,0.68419 0.55427,-0.206 z m 8.43794,-0.59376 c -0.10419,-0.28606 -0.60258,-0.35654 -0.74096,-0.10478 -0.0475,0.0864 0,0.48723 0.11239,0.89062 l 0.19881,0.73346 0.26264,-0.62867 c 0.14438,-0.34579 0.21961,-0.74656 0.16712,-0.89063 z m -9.27116,-0.4715 c 0,-0.11526 -0.0999,-0.20957 -0.22193,-0.20957 -0.12205,0 -0.16364,0.0943 -0.0925,0.20957 0.0713,0.11526 0.17107,0.20955 0.22192,0.20955 0.0507,0 0.0925,-0.0943 0.0925,-0.20955 z m 9.74438,0 c 0.0713,-0.11526 0.0293,-0.20957 -0.0925,-0.20957 -0.12207,0 -0.22195,0.0943 -0.22195,0.20957 0,0.11526 0.042,0.20955 0.0925,0.20955 0.0507,0 0.15071,-0.0943 0.22194,-0.20955 z m -8.27747,-0.91531 c 0,-0.14406 0.33163,-0.8127 0.73697,-1.48588 0.76361,-1.26799 0.81404,-1.70158 0.12547,-1.07844 -0.65667,0.59427 -1.7489,2.79887 -1.44126,2.90916 0.34399,0.12331 0.57882,-0.0165 0.57882,-0.34484 z m 6.68312,-0.98154 c -0.66879,-1.25475 -1.34904,-2.04013 -1.57313,-1.8161 -0.0696,0.0695 0.076,0.41055 0.32331,0.75787 0.24737,0.34733 0.63751,1.05604 0.86703,1.57489 0.291,0.65787 0.5107,0.90753 0.72597,0.82492 0.25187,-0.0967 0.18867,-0.3437 -0.34318,-1.34158 z m -3.13652,-3.35186 c -0.14326,-0.0885 -0.39482,-0.10944 -0.559,-0.0465 -0.23016,0.0883 -0.23888,0.1514 -0.038,0.27554 0.14328,0.0885 0.39482,0.10949 0.559,0.0466 0.23017,-0.0884 0.23888,-0.15142 0.038,-0.27556 z m -1.55584,-0.40931 c 0.15167,-0.24537 -1.96953,-0.24537 -2.93374,0 -0.45313,0.11527 -0.14923,0.16688 1.08777,0.18476 0.94677,0.0137 1.77452,-0.0691 1.84597,-0.18476 z m 5.4485,0 c -0.9642,-0.24537 -3.08542,-0.24537 -2.93382,0 0.0713,0.11556 0.89919,0.19841 1.84599,0.18476 1.23697,-0.0179 1.54087,-0.0695 1.08783,-0.18476 z m -14.70532,18.15812 c -0.91218,-0.75879 -1.43349,-0.97415 -2.35841,-0.97415 h -0.85064 l 0.71432,-0.9358 c 0.68385,-0.89594 1.58801,-2.93282 1.58801,-3.57753 0,-0.16857 0.10117,-0.30648 0.2247,-0.30648 0.22867,0 0.11977,1.57478 -0.21992,3.18105 -0.14545,0.68755 -0.0957,0.83518 0.45865,1.36211 0.57192,0.54356 1.34946,1.74355 1.12974,1.74355 -0.0515,0 -0.36061,-0.22174 -0.68645,-0.49275 z m 20.54303,-0.0725 c 0.1688,-0.32309 0.58896,-0.85564 0.9339,-1.18347 0.5236,-0.49768 0.59995,-0.69064 0.46271,-1.16932 -0.31611,-1.10206 -0.48964,-3.6438 -0.23817,-3.48839 0.12846,0.0794 0.23358,0.27669 0.23358,0.43846 0,0.63386 0.91001,2.67696 1.58808,3.56516 l 0.71425,0.93581 h -0.91813 c -0.70902,0 -1.16451,0.16951 -2.00049,0.74459 l -1.08248,0.74458 z"
         style="fill:#000000;stroke-width:0.0554452"
         id="path7516" />
    </g>
  </g>
</svg>
