<?xml version="1.0" encoding="UTF-8" standalone="no"?>
<!-- Created with Inkscape (http://www.inkscape.org/) -->

<svg
   width="41.008999mm"
   height="41.008999mm"
   viewBox="0 0 41.008999 41.008999"
   version="1.1"
   id="svg1"
   inkscape:version="1.4.2 (f4327f4, 2025-05-13)"
   sodipodi:docname="304.svg"
   xmlns:inkscape="http://www.inkscape.org/namespaces/inkscape"
   xmlns:sodipodi="http://sodipodi.sourceforge.net/DTD/sodipodi-0.dtd"
   xmlns="http://www.w3.org/2000/svg"
   xmlns:svg="http://www.w3.org/2000/svg">
  <sodipodi:namedview
     id="namedview1"
     pagecolor="#ffffff"
     bordercolor="#000000"
     borderopacity="0.25"
     inkscape:showpageshadow="2"
     inkscape:pageopacity="0.0"
     inkscape:pagecheckerboard="0"
     inkscape:deskcolor="#d1d1d1"
     inkscape:document-units="mm"
     inkscape:zoom="1.4513545"
     inkscape:cx="86.470947"
     inkscape:cy="-62.700049"
     inkscape:window-width="1050"
     inkscape:window-height="1081"
     inkscape:window-x="857"
     inkscape:window-y="0"
     inkscape:window-maximized="0"
     inkscape:current-layer="layer1" />
  <defs
     id="defs1" />
  <g
     inkscape:label="Layer 1"
     inkscape:groupmode="layer"
     id="layer1"
     transform="translate(333.37504,1257.5646)">
    <g
       id="g49"
       transform="translate(-1280.1887,-1132.0407)">
      <circle
         style="fill:none;stroke:#0000ff;stroke-width:0.1;stroke-linecap:round;stroke-dasharray:none;stroke-opacity:1;paint-order:markers stroke fill"
         id="circle3708"
         cx="967.31818"
         cy="-120.03033"
         r="2" />
      <circle
         style="fill:none;stroke:#ff0000;stroke-width:0.1;stroke-dasharray:none"
         id="circle3710"
         cx="967.31818"
         cy="-105.01936"
         r="19.954653" />
      <path
         d="m 962.62442,-90.54376 c -0.012,-0.33169 0.9133,-2.93351 1.448,-4.07456 0.6175,-1.31778 1.4395,-2.81471 1.508,-2.74624 0.026,0.0262 -0.1219,0.54802 -0.329,1.15954 -0.2072,0.61151 -0.4189,1.31658 -0.4704,1.5668 -0.092,0.44389 -0.064,0.42673 1.1381,-0.70587 2.1702,-2.04509 5.2695,-4.37321 7.4619,-5.60543 0.295,-0.16579 0.5363,-0.35722 0.5363,-0.4254 0,-0.26181 -1.3368,-1.90796 -2.3209,-2.85792 -1.606,-1.55046 -3.1056,-2.30692 -5.0395,-2.54237 l -0.7255,-0.0883 -0.1458,0.92627 c -0.135,0.85712 -0.8447,2.36976 -1.1118,2.36976 -0.05,0 0,-0.33996 0.107,-0.75546 0.2206,-0.84091 0.1894,-2.81523 -0.051,-3.24195 -0.1271,-0.22536 -0.181,-0.1719 -0.4944,0.49038 -0.1934,0.40881 -0.5548,0.98643 -0.803,1.28359 -0.5211,0.62381 -0.5193,0.61675 -0.2388,0.92676 0.117,0.12922 0.2418,0.49361 0.2774,0.80973 0.1555,1.37908 -0.9066,2.16605 -3.41432,2.52978 -0.61613,0.0894 -0.95247,0.52566 -0.76551,0.993 0.12192,0.30485 0.12605,0.30221 0.13413,-0.0862 0.0107,-0.49987 0.21821,-0.71603 0.68851,-0.71603 0.53634,0 0.84789,0.51397 0.61103,1.00817 -0.34558,0.72104 -1.38816,0.74468 -1.7527,0.0397 -0.19851,-0.38378 -0.2131,-0.38862 -0.58711,-0.19518 -0.61177,0.31636 -1.16286,0.25932 -1.34438,-0.13916 -0.20849,-0.45751 0.0214,-1.52648 0.55372,-2.5738 0.22332,-0.43953 0.38861,-0.81456 0.36718,-0.83342 -0.0214,-0.0189 -0.42315,-0.22673 -0.8928,-0.46198 -2.75518,-1.37982 -4.53617,-3.44413 -5.2123,-6.04129 -0.26976,-1.03605 -0.27451,-3.82717 -0.009,-5.12401 l 0.175,-0.85401 0.0933,1.25716 c 0.18849,2.53826 0.86881,4.16221 2.42659,5.79276 0.54375,0.56916 1.01182,1.01168 1.04007,0.9834 0.0283,-0.0283 -0.0706,-0.2582 -0.21968,-0.51093 -0.88728,-1.50381 -1.40519,-3.99931 -1.27485,-6.14284 0.0823,-1.35412 0.35341,-3.19641 0.45536,-3.09447 0.0348,0.0348 0.0859,0.46448 0.11347,0.95481 0.237,4.21459 1.98216,7.30146 5.48136,9.69547 0.58003,0.39679 0.97993,0.72143 0.88873,0.72143 -0.32758,0 -2.15933,-0.92537 -2.95213,-1.49143 -0.78728,-0.56221 -1.62121,-1.38239 -2.35757,-2.31873 l -0.36162,-0.45984 0.21453,0.52553 c 0.37564,0.92049 0.86004,1.81763 1.3949,2.58341 0.41119,0.58883 0.66122,0.80253 1.1983,1.02449 1.19599,0.49417 1.26145,0.54358 0.61308,0.46282 l -0.59123,-0.0737 0.60591,0.60919 0.60583,0.60921 0.64226,-0.45753 c 0.78634,-0.56007 2.02254,-1.18765 2.79494,-1.41878 0.7285,-0.21801 0.9397,-0.66968 1.0369,-2.21789 l 0.07,-1.11228 0.5786,0.65243 c 0.318,0.35884 0.7356,0.98408 0.9277,1.38944 0.349,0.73621 0.3501,0.73715 1.1541,0.89694 1.1405,0.22673 2.7814,0.92863 3.8979,1.66735 1.182,0.78219 2.753,2.33222 3.5119,3.46502 0.3147,0.4697 0.5869,0.8729 0.6048,0.89601 0.018,0.0231 0.2725,-0.0804 0.5656,-0.22992 0.2932,-0.14956 0.5941,-0.27193 0.6687,-0.27193 0.074,0 0.4107,0.41386 0.7471,0.91969 0.3364,0.50583 0.6473,0.91906 0.6908,0.91827 0.043,-8.3e-4 0.3695,-0.0895 0.7243,-0.19707 0.3547,-0.10762 0.7189,-0.19566 0.8093,-0.19566 0.184,0 0.9969,1.23546 1.6007,2.4325 0.5412,1.07299 1.1848,2.92237 1.4854,4.26812 0.236,1.05644 0.3308,1.90361 0.1617,1.44523 -1.3111,-3.55463 -3.072,-6.832 -3.6712,-6.832 -0.6601,0 -0.6993,0.0939 -0.3738,0.89595 0.3867,0.95304 1.0198,3.27077 0.9499,3.47836 -0.029,0.0872 -0.1273,-0.078 -0.218,-0.36708 -0.091,-0.28904 -0.5215,-1.25143 -0.9575,-2.13863 -0.6071,-1.23495 -0.8429,-1.59831 -1.0064,-1.55001 -0.1174,0.0347 -0.3725,0.10096 -0.5668,0.14727 -0.3132,0.0746 -0.3395,0.12113 -0.2299,0.40895 0.2212,0.58222 0.1197,0.78256 -0.1438,0.28358 -0.2304,-0.43612 -0.2915,-0.47359 -0.6184,-0.37936 -0.5389,0.15538 -2.2491,0.89433 -2.9246,1.26376 l -0.5912,0.32333 0.5254,-0.0958 c 0.7927,-0.1446 2.3054,-0.0977 2.8938,0.0898 0.7822,0.24916 1.729,0.89225 2.0295,1.37844 0.1792,0.28986 0.2665,0.65731 0.2665,1.12093 0,0.62601 -0.047,0.73684 -0.51,1.1998 -0.4574,0.45728 -0.5786,0.51008 -1.1709,0.51008 -0.5765,0 -0.704,-0.0515 -1.0009,-0.40424 -0.4266,-0.50711 -0.4324,-0.96055 -0.017,-1.37542 0.6829,-0.68298 1.7151,-0.20943 1.6241,0.74509 -0.059,0.61529 0.075,0.6519 0.3608,0.0989 0.465,-0.89938 -0.1421,-1.90115 -1.3739,-2.26698 -2.8285,-0.83997 -5.6711,-0.003 -8.9943,2.64878 -0.4952,0.3951 -0.8396,0.60449 -0.765,0.46534 0.3018,-0.56377 3.0806,-3.07436 4.3055,-3.88985 1.2037,-0.80123 3.5534,-2.04344 4.6516,-2.45898 0.6564,-0.2484 0.6746,-0.28427 0.3799,-0.7496 l -0.2653,-0.4191 -0.9785,0.44588 c -1.4614,0.66601 -3.2609,1.7617 -4.6261,2.81681 -1.9615,1.51599 -3.4699,3.11306 -5.9671,6.31817 -0.1955,0.2507 -0.358,0.37461 -0.3614,0.27537 z m 13.5268,-9.58718 c -0.3064,-0.52424 -0.4867,-0.66322 -0.7657,-0.59027 -0.3387,0.0886 -0.3353,0.0654 -0.097,0.6356 0.1797,0.43023 0.2078,0.44505 0.5893,0.31204 0.3234,-0.11271 0.3761,-0.18163 0.2734,-0.35737 z m -15.9229,-0.51334 c -0.0239,-0.12648 -0.13141,-0.22994 -0.23775,-0.22994 -0.10643,0 -0.21343,0.10346 -0.23783,0.22994 -0.0313,0.16131 0.0395,0.22991 0.23783,0.22991 0.19785,0 0.26875,-0.0686 0.23775,-0.22991 z m -1.50934,-1.00819 c 0.30188,-0.17514 1.07514,-0.46979 1.7184,-0.65479 0.64314,-0.18501 1.31104,-0.42925 1.48434,-0.54273 0.4231,-0.27727 0.8268,-0.96386 0.8274,-1.40739 0,-0.36313 -0.3971,-0.88684 -0.6731,-0.88684 -0.082,0 0.095,-0.26474 0.3941,-0.5883 0.2983,-0.32356 0.5423,-0.65514 0.5423,-0.73686 0,-0.34292 -1.461,0.28559 -2.39154,1.0288 -0.33972,0.27138 -0.62042,0.523 -0.6238,0.55912 -0.009,0.0362 0.25968,0.23357 0.5844,0.43875 0.89084,0.56281 0.85364,0.6821 -0.0676,0.21702 l -0.81661,-0.41219 -0.36809,0.43659 c -0.64119,0.7605 -1.19846,1.78281 -1.27241,2.3342 -0.0395,0.29316 -0.0297,0.53302 0.0206,0.53302 0.0511,0 0.3394,-0.14328 0.64136,-0.3184 z m -0.19076,-3.01431 0.42867,-0.44226 -0.63278,-0.46634 c -0.34805,-0.25649 -0.8102,-0.65319 -1.02692,-0.88155 -0.21681,-0.22838 -0.91835,-0.68632 -1.55903,-1.01766 -0.74331,-0.38443 -1.46841,-0.89285 -2.00363,-1.40489 -0.4613,-0.44134 -0.83875,-0.78743 -0.83875,-0.7691 0,0.10559 0.92085,1.52543 1.3906,2.14415 0.67584,0.89016 2.05998,2.19954 2.98006,2.81915 0.37624,0.25341 0.71761,0.46074 0.75858,0.46074 0.0412,0 0.26751,-0.19901 0.5032,-0.44224 z m -3.13597,11.12513 c -0.98038,-0.50711 -0.97611,-1.51992 0.0149,-3.5224 0.44761,-0.90455 1.95572,-3.16424 1.95572,-2.93038 0,0.0446 -0.17518,0.4716 -0.38936,0.9489 -0.33057,0.73675 -0.92444,2.45049 -0.92444,2.66753 0,0.0369 0.23667,-0.14668 0.52586,-0.408 0.4328,-0.39104 0.62619,-0.47514 1.09196,-0.47514 0.72587,0 1.14118,0.35706 1.14118,0.98097 0,0.53273 -0.49141,0.9898 -1.06418,0.9898 -0.69642,0 -0.84407,-0.96281 -0.17345,-1.13113 0.18194,-0.0457 0.40749,-0.01 0.51993,0.0841 0.32332,0.26832 0.39982,0.0138 0.0892,-0.29683 -0.23395,-0.23391 -0.34887,-0.26292 -0.63616,-0.16058 -0.84944,0.30249 -1.22246,1.66325 -0.5952,2.1712 0.35679,0.28889 1.07209,0.44564 1.52038,0.33314 0.22267,-0.0559 0.36669,-0.22898 0.47649,-0.57284 0.28012,-0.87678 0.93739,-1.99051 1.3579,-2.30099 0.73014,-0.53898 1.16654,-0.66687 2.35864,-0.69117 l 1.1602,-0.0236 0.3687,-0.64554 c 0.5466,-0.95712 1.466,-1.91672 2.2399,-2.33797 1.3387,-0.72859 3.0167,-0.56681 3.5329,0.34061 0.2723,0.47892 0.3769,0.46618 0.4751,-0.0579 0.1213,-0.64673 -0.1156,-1.09992 -0.7421,-1.41954 -0.6687,-0.34116 -1.8664,-0.31128 -2.649,0.066 -0.6112,0.29476 -1.7191,1.27641 -2.2184,1.96574 -0.4021,0.55494 -0.4439,0.5222 -0.2367,-0.18475 0.178,-0.60696 0.048,-1.33298 -0.3428,-1.9083 -0.1745,-0.25709 -0.3172,-0.49437 -0.3172,-0.52729 0,-0.0329 0.2258,-0.0599 0.5019,-0.0599 0.6872,0 1.857,-0.61489 2.2242,-1.16904 0.4759,-0.71854 0.3793,-1.49183 -0.2791,-2.23266 l -0.2792,-0.31414 0.3942,0.0933 c 1.127,0.26694 1.7078,1.03157 1.5787,2.0787 -0.069,0.56185 -0.05,0.62408 0.1855,0.62408 0.4839,0 1.6656,0.52274 2.0056,0.88722 0.5068,0.54336 0.6315,0.86613 0.6314,1.6333 0,1.29289 -0.7892,2.20933 -1.9015,2.20933 -0.8911,0 -1.4483,-0.83561 -0.9138,-1.37016 0.4366,-0.43654 1.2342,-0.1203 1.2427,0.4927 0.01,0.24887 0.02,0.25759 0.1321,0.0667 0.1523,-0.26082 -0.01,-0.75896 -0.3305,-1.02646 -0.1233,-0.10239 -0.5062,-0.1841 -0.8627,-0.1841 -0.5265,0 -0.7693,0.0885 -1.3607,0.49578 -0.8738,0.60179 -1.7062,1.65012 -2.1213,2.67155 -0.1697,0.41748 -0.3559,0.75633 -0.4137,0.75299 -0.058,-0.003 -0.4978,-0.0538 -0.9772,-0.11225 -1.8725,-0.22798 -3.15038,0.56539 -3.84689,2.38816 -0.42406,1.10988 -0.5323,1.16814 -2.37617,1.27957 -1.11455,0.0674 -1.3835,0.0434 -1.77346,-0.15839 z m 17.35617,-8.72726 c -1.0757,-0.99272 -2.1741,-1.54 -3.3027,-1.64539 l -0.8585,-0.0802 0.047,-0.41064 c 0.029,-0.26037 -0.075,-0.63691 -0.2842,-1.02889 l -0.3307,-0.61824 0.3107,0.11814 c 0.5952,0.2263 1.9781,0.96041 2.4348,1.29255 1.0151,0.73828 3.0482,2.93955 2.8692,3.10675 -0.024,0.0229 -0.4227,-0.30745 -0.8849,-0.73411 z m 3.7563,-0.56611 -0.5002,-0.97429 -0.6925,0.30627 -0.6925,0.30626 -0.7665,-0.857 c -1.5028,-1.68008 -3.4965,-3.02127 -5.421,-3.64653 -0.3793,-0.12326 -0.6898,-0.25656 -0.6898,-0.29622 0,-0.15438 1.6922,0.1279 2.6278,0.43834 1.2183,0.40431 2.4681,1.13343 3.8368,2.23851 0.5766,0.46546 1.1145,0.82424 1.1953,0.79729 0.151,-0.0502 -2.1055,-2.39039 -2.9301,-3.03884 -0.4452,-0.35014 -0.4347,-0.34833 0.3285,0.0571 0.9602,0.51 1.9988,1.27233 2.938,2.15657 l 0.7045,0.66318 1.5619,-0.0467 c 1.0811,-0.0323 1.562,-0.002 1.562,0.0985 0,0.0816 -0.2277,0.14522 -0.5191,0.14522 -0.5795,0 -1.8589,0.2422 -2.0084,0.3802 -0.053,0.0492 0.046,0.2997 0.2208,0.5568 0.3169,0.46637 0.3203,0.46759 1.542,0.54992 1.2557,0.0847 2.3835,0.3251 3.1537,0.67248 l 0.4357,0.19653 -0.5255,-0.094 c -0.8605,-0.15399 -2.827,-0.0743 -3.7855,0.15324 -0.4923,0.11691 -0.9356,0.21231 -0.9854,0.212 -0.049,-2.6e-4 -0.3154,-0.43899 -0.5905,-0.97486 z m -12.2441,-1.78366 c 0.1193,-0.37606 -0.05,-0.85646 -0.2364,-0.67016 -0.079,0.0795 -0.2613,0.14462 -0.404,0.14462 -0.2525,0 -0.2519,-0.009 0.019,-0.29742 0.1536,-0.16357 0.4225,-0.62142 0.5972,-1.01743 l 0.3178,-0.72002 0.095,0.56689 c 0.1058,0.62627 -0.146,2.25628 -0.3483,2.25628 -0.069,0 -0.088,-0.11824 -0.043,-0.26276 z"
         style="fill:#000000;stroke-width:0.0347621"
         id="path7637" />
    </g>
  </g>
</svg>
