<?xml version="1.0" encoding="UTF-8" standalone="no"?>
<!-- Created with Inkscape (http://www.inkscape.org/) -->

<svg
   width="41.008999mm"
   height="41.008999mm"
   viewBox="0 0 41.008999 41.008999"
   version="1.1"
   id="svg1"
   inkscape:version="1.4.2 (f4327f4, 2025-05-13)"
   sodipodi:docname="305.svg"
   xmlns:inkscape="http://www.inkscape.org/namespaces/inkscape"
   xmlns:sodipodi="http://sodipodi.sourceforge.net/DTD/sodipodi-0.dtd"
   xmlns="http://www.w3.org/2000/svg"
   xmlns:svg="http://www.w3.org/2000/svg">
  <sodipodi:namedview
     id="namedview1"
     pagecolor="#ffffff"
     bordercolor="#000000"
     borderopacity="0.25"
     inkscape:showpageshadow="2"
     inkscape:pageopacity="0.0"
     inkscape:pagecheckerboard="0"
     inkscape:deskcolor="#d1d1d1"
     inkscape:document-units="mm"
     inkscape:zoom="1.4513545"
     inkscape:cx="86.470947"
     inkscape:cy="-62.700049"
     inkscape:window-width="1050"
     inkscape:window-height="1081"
     inkscape:window-x="857"
     inkscape:window-y="0"
     inkscape:window-maximized="0"
     inkscape:current-layer="layer1" />
  <defs
     id="defs1" />
  <g
     inkscape:label="Layer 1"
     inkscape:groupmode="layer"
     id="layer1"
     transform="translate(333.37504,1257.5646)">
    <g
       id="g40"
       transform="translate(-1111.3892,-1181.6571)">
      <circle
         style="fill:none;stroke:#0000ff;stroke-width:0.1;stroke-linecap:round;stroke-dasharray:none;stroke-opacity:1;paint-order:markers stroke fill"
         id="circle6687"
         cx="798.51868"
         cy="-70.414413"
         r="2" />
      <circle
         style="fill:none;stroke:#ff0000;stroke-width:0.1;stroke-dasharray:none"
         id="circle6697"
         cx="798.51868"
         cy="-55.40303"
         r="19.954653" />
      <path
         d="m 803.0278,-39.75062 c -0.83893,-0.19292 -2.3026,-0.84883 -2.1762,-0.97523 0.034,-0.0341 0.41357,0.0506 0.84317,0.18838 0.44129,0.14148 1.36433,0.25576 2.12155,0.26266 1.12376,0.0103 1.48322,-0.0536 2.22435,-0.39479 0.84967,-0.39119 2.02713,-1.3874 2.53989,-2.14891 0.21617,-0.32105 0.35164,-0.35768 1.16685,-0.31538 l 0.92233,0.0478 -0.59662,0.65912 c -0.79749,0.88114 -2.50758,2.02916 -3.57602,2.40074 -1.19029,0.41392 -2.4369,0.51295 -3.4693,0.27556 z m -16.56141,-1.09237 c -1.18408,-0.40373 -2.39874,-1.14084 -3.0751,-1.86609 l -0.46935,-0.50331 0.70961,0.42836 c 3.03893,1.83442 6.27433,1.99304 10.05296,0.49283 0.71551,-0.28408 1.30085,-0.4727 1.30065,-0.41914 0,0.16524 -1.45501,1.09218 -2.28543,1.45651 -1.9872,0.87183 -4.41254,1.03169 -6.23334,0.41084 z m 15.5711,-0.35119 c -1.20627,-0.30562 -2.94201,-1.12577 -4.24167,-2.00421 -0.57926,-0.39152 -1.36981,-0.79158 -1.75678,-0.88902 -0.67558,-0.1701 -0.74674,-0.15247 -1.78534,0.44227 -1.58664,0.90856 -2.88652,1.29749 -4.63872,1.38789 -2.56318,0.13224 -4.36689,-0.43884 -5.892,-1.86552 -2.31626,-2.16671 -2.61867,-5.32374 -0.78899,-8.23645 0.31631,-0.50348 0.60613,-0.88433 0.64417,-0.84634 0.0381,0.038 -0.0143,0.54878 -0.11653,1.13507 -0.45238,2.59774 0.41516,4.7882 2.29884,5.80422 0.79788,0.43036 2.92651,0.45623 4.00636,0.0487 0.9768,-0.36867 0.97012,-0.2193 -0.0155,0.34131 -1.18731,0.67549 -2.53589,1.0343 -3.47119,0.92352 -0.88018,-0.10426 -2.22155,-0.77983 -2.66325,-1.34135 -0.16552,-0.21041 -0.30093,-0.30776 -0.30093,-0.21631 0,0.2991 1.61149,1.93749 2.20194,2.23871 1.6039,0.81826 4.12413,1.01582 6.19668,0.48576 1.06578,-0.27258 2.48225,-0.85753 2.48225,-1.02506 0,-0.0345 -0.26612,-0.22402 -0.59137,-0.42109 -0.32524,-0.19706 -1.41693,-1.16117 -2.42598,-2.14248 -2.78125,-2.70487 -4.03978,-3.07135 -6.84733,-1.99398 -0.21706,0.0833 -0.20563,-0.003 0.0738,-0.54982 1.04473,-2.04781 1.04289,-5.00326 -0.006,-6.11739 -0.50857,-0.54131 -0.97972,-0.47662 -1.54776,0.21249 -0.53087,0.64404 -0.65436,1.03397 -0.19615,0.61929 0.45738,-0.4139 1.20888,-0.33314 1.60683,0.17268 0.30021,0.38161 0.78553,1.35585 0.78553,1.57685 0,0.0438 -0.31772,-0.21322 -0.70608,-0.57119 -0.38835,-0.35796 -0.8468,-0.65087 -1.01888,-0.65087 -0.58855,0 -1.26723,1.11626 -1.27033,2.08946 0,0.15177 -0.0667,0.27595 -0.14721,0.27595 -0.0805,0 -0.2021,-0.40804 -0.27022,-0.90673 -0.28675,-2.09874 0.0531,-3.73127 0.9806,-4.71502 0.50685,-0.53743 0.58022,-0.56452 1.33279,-0.49221 0.59648,0.0574 0.94325,0.20155 1.38154,0.57466 1.78212,1.51717 2.54728,1.68209 4.19243,0.90361 0.50953,-0.24113 1.21038,-0.53858 1.55731,-0.66099 0.78202,-0.2759 2.37079,-0.27716 3.13981,-0.003 0.76171,0.27209 0.66301,-0.0589 -0.13046,-0.43731 -1.91633,-0.91385 -2.59823,-2.31246 -1.74486,-3.57879 l 0.3579,-0.53109 -0.47615,-0.42579 c -0.42971,-0.38425 -0.47525,-0.51549 -0.46638,-1.34513 0.0116,-1.05411 0.39808,-1.93377 1.20525,-2.74092 1.07793,-1.07794 3.2349,-1.70276 4.86377,-1.40892 0.53497,0.0965 1.16305,0.104 1.61637,0.0192 0.82779,-0.15465 1.91051,-10e-4 2.63465,0.37319 0.50154,0.25934 1.41831,1.3942 1.41831,1.75568 0,0.11588 0.26516,0.32156 0.58922,0.45695 1.59401,0.66604 2.24252,2.23905 1.69807,4.1188 -0.14691,0.50709 -0.33728,1.00738 -0.4231,1.11177 -0.0858,0.10438 -0.2489,0.49839 -0.36243,0.87559 -0.26785,0.88998 0,1.62945 0.64566,1.79185 0.56267,0.14121 1.22616,-0.22708 1.29672,-0.7198 0.0501,-0.34972 0.0358,-0.35737 -0.20836,-0.11305 -0.33979,0.33975 -0.59284,0.33088 -1.04683,-0.0368 -0.3173,-0.25691 -0.34704,-0.3621 -0.21175,-0.74905 0.12751,-0.3646 0.2633,-0.45911 0.71454,-0.49724 1.06901,-0.0903 1.58872,1.1616 0.90332,2.17594 -0.98032,1.45077 -3.12225,0.62262 -3.12182,-1.20704 5e-5,-0.35809 0.2036,-1.0262 0.49699,-1.63145 0.8408,-1.7343 0.60514,-3.25551 -0.61562,-3.97393 -0.43514,-0.25607 -0.46749,-0.2543 -0.71896,0.0394 -0.14482,0.16916 -0.43639,0.30756 -0.64785,0.30756 -0.90599,0 -1.21,-1.15263 -0.45009,-1.70621 0.379,-0.27607 0.41177,-0.36656 0.27581,-0.7622 -0.20079,-0.58434 -1.31662,-1.15854 -2.25135,-1.15854 h -0.69023 l 0.40826,0.48518 c 0.89491,1.06354 0.0711,2.75324 -1.0855,2.22627 -0.7791,-0.35497 -0.57914,-1.60761 0.25663,-1.60761 0.36971,0 0.37065,-0.19436 0,-0.52748 -0.38252,-0.34614 -0.78188,-0.32835 -1.42463,0.0634 -0.65673,0.40039 -0.81855,0.30219 -0.24519,-0.1488 l 0.42382,-0.33336 h -0.38686 c -0.51149,0 -1.95228,0.43266 -2.6871,0.80692 -0.32293,0.16449 -0.8374,0.54932 -1.14326,0.85518 -0.46769,0.46766 -0.55614,0.66636 -0.55614,1.24922 0,0.66237 0.28776,1.1887 0.64989,1.1887 0.31051,0 1.07985,-0.48465 1.23779,-0.77973 0.0893,-0.16687 0.16551,-0.68061 0.16933,-1.14165 l 0.006,-0.83825 0.32613,0.63077 c 0.17939,0.34693 0.51334,0.83226 0.74209,1.07851 0.76188,0.82014 1.20895,0.96046 3.11705,0.97827 1.57989,0.0147 1.84417,0.0601 2.64937,0.454 1.1739,0.57432 1.72717,1.37497 1.73575,2.51174 0.008,1.1315 -0.40433,1.90006 -1.23718,2.30325 -0.36624,0.1773 -0.82094,0.32236 -1.01036,0.32236 -0.39445,0 -0.97525,-0.51652 -0.97525,-0.86731 0,-0.30912 0.56305,-0.86732 0.87488,-0.86732 0.13423,0 0.40845,0.17742 0.60942,0.39424 0.20098,0.21683 0.41406,0.39423 0.47359,0.39423 0.24108,0 0.57978,-1.15251 0.47984,-1.63269 -0.26845,-1.28988 -0.94217,-1.67432 -3.23113,-1.84371 -1.96372,-0.14531 -2.66886,-0.40016 -3.5826,-1.2947 -0.42096,-0.41214 -0.67015,-0.5664 -0.67015,-0.41479 0,0.13273 -0.31075,0.68788 -0.69059,1.23364 l -0.69059,0.99231 0.21336,0.80977 c 0.29491,1.11961 1.1931,2.87599 1.91182,3.73869 0.82947,0.99559 1.52829,1.58487 2.89511,2.44125 1.12281,0.70346 1.14517,0.72897 0.54844,0.62544 -0.70156,-0.1217 -1.88361,-0.68487 -2.89957,-1.38136 -1.69676,-1.16327 -3.29955,-1.33301 -5.38801,-0.57061 -2.46568,0.90009 -3.52593,1.01106 -4.5293,0.47407 -0.18869,-0.1009 -0.43538,-0.31532 -0.54819,-0.47634 -0.17329,-0.24712 -0.20605,0.0174 -0.21058,1.69641 -0.006,1.78302 -0.0483,2.09257 -0.42008,2.98643 -0.343,0.82488 -0.36933,0.97815 -0.15233,0.88685 0.14429,-0.0607 0.7996,-0.14529 1.45628,-0.18796 1.46976,-0.0955 1.80508,0.0562 3.4774,1.57356 1.27271,1.15481 2.63209,2.21477 3.48759,2.71945 0.48611,0.28675 0.47329,0.25653 -0.23422,-0.55295 -0.78174,-0.89434 -1.67491,-2.46653 -2.01339,-3.54387 -0.35074,-1.11632 -0.7981,-1.84245 -1.62929,-2.64465 l -0.81277,-0.78434 0.80794,0.40607 c 1.05868,0.53211 1.98006,1.60093 2.50031,2.90049 0.23089,0.5768 0.67808,1.43777 0.99372,1.9133 0.71264,1.07369 2.207,2.7034 2.47884,2.7034 0.24742,0 1.93541,-1.79895 2.16888,-2.31144 0.0925,-0.20314 0.21038,-0.36935 0.26176,-0.36935 0.0513,0 0.42722,0.23729 0.83512,0.52731 0.40798,0.29003 1.17289,0.72081 1.69988,0.95731 l 0.95813,0.42998 0.31082,-0.36594 c 0.17095,-0.20128 0.56406,-0.77398 0.87358,-1.2727 0.30955,-0.4987 0.58337,-0.90672 0.60856,-0.90672 0.0251,0 0.41346,0.49447 0.86284,1.09884 0.44939,0.60437 0.88704,1.14209 0.97257,1.19492 0.22662,0.14005 1.47475,-0.63543 2.30851,-1.4343 l 0.72176,-0.69158 0.88382,0.80917 c 1.58802,1.45382 3.69709,2.13002 6.07362,1.94726 1.10599,-0.085 1.11232,-0.0833 0.587,0.15863 -1.01792,0.46891 -2.42832,0.74168 -3.38603,0.65484 -1.15984,-0.10516 -2.64979,-0.81982 -3.47544,-1.66697 l -0.61163,-0.62757 -0.40771,0.48454 c -0.22422,0.26651 -0.68315,0.68406 -1.01971,0.9279 l -0.61204,0.44334 0.98562,0.63704 c 0.54212,0.35037 1.03925,0.63703 1.10487,0.63703 0.0655,0 0.29836,-0.21288 0.51727,-0.47307 0.5286,-0.6282 0.63207,-0.59681 0.3396,0.10309 -0.13236,0.31688 -0.21581,0.601 -0.18547,0.63138 0.0304,0.0304 0.58129,0.19049 1.22421,0.35582 1.46348,0.37633 1.12226,0.60222 -0.58303,0.38601 -0.64095,-0.0813 -1.16538,-0.0975 -1.16538,-0.0363 0,0.34691 -1.69909,1.90645 -2.47907,2.27544 -1.09999,0.52038 -2.83891,0.64713 -4.1882,0.30527 z m 3.49055,-1.58472 c 0.40291,-0.11989 1.11764,-0.46107 1.58843,-0.75819 l 0.85591,-0.54023 -0.85591,-0.43133 c -0.47079,-0.23722 -1.04128,-0.56199 -1.26782,-0.72171 -0.33401,-0.23547 -0.51276,-0.26148 -0.94509,-0.13747 -0.59363,0.17024 -1.8611,0.17348 -2.58537,0.006 -0.37554,-0.0866 -0.60726,-0.015 -1.12394,0.3469 -0.35796,0.25075 -1.09129,0.61536 -1.62954,0.81026 l -0.97864,0.35437 1.15642,0.51962 c 2.03744,0.91543 3.94926,1.09756 5.78555,0.55117 z m -5.39288,-2.73986 0.65504,-0.36818 -0.73408,-0.55432 c -0.40374,-0.30488 -0.9163,-0.76841 -1.13897,-1.03006 l -0.40493,-0.47576 -0.3796,0.61705 c -0.20877,0.33937 -0.65364,0.91549 -0.98854,1.28024 -0.3511,0.38241 -0.56107,0.74068 -0.49587,0.84619 0.077,0.12454 0.5475,0.16224 1.47249,0.11795 1.04861,-0.0501 1.50909,-0.14915 2.01446,-0.43318 z m 4.10123,-1.17699 c 0.0143,-0.009 -0.10994,-0.18476 -0.27596,-0.38953 l -0.30181,-0.37226 -0.3011,0.37181 c -0.35331,0.43634 -0.15938,0.64902 0.45748,0.50169 0.21755,-0.0519 0.40714,-0.10219 0.42139,-0.11175 z m -10.35078,-12.67214 c -0.0756,-0.2385 -0.18632,-0.71748 -0.24616,-1.06441 -0.10116,-0.58622 -0.11886,-0.6041 -0.25204,-0.25311 -0.15617,0.41157 -0.0699,0.84507 0.27772,1.39638 0.3013,0.47773 0.38701,0.44708 0.22048,-0.0788 z m 17.72002,10.67095 c -0.59586,-0.17289 -1.25814,-0.80769 -1.3898,-1.33217 -0.23371,-0.93103 0.82647,-2.09835 1.70534,-1.87776 0.48533,0.12183 0.9883,0.659 1.12216,1.19845 0.0771,0.31071 0.0185,0.50564 -0.22487,0.74905 -0.41244,0.41249 -0.71496,0.41619 -1.11751,0.0137 -0.37953,-0.37956 -0.39431,-0.60558 -0.0699,-1.06876 0.19714,-0.2815 0.2031,-0.35049 0.0304,-0.35049 -0.79591,0 -1.1017,1.22509 -0.43966,1.76121 0.82356,0.66688 1.69605,0.44058 2.19039,-0.56814 0.46667,-0.95228 -0.68769,-2.55282 -2.40162,-3.33002 -0.44408,-0.20136 -1.6867,-0.62264 -2.76135,-0.93618 -2.26787,-0.66165 -2.96008,-0.98409 -3.69906,-1.72307 -0.51822,-0.51818 -1.15232,-1.94263 -0.94807,-2.12962 0.0548,-0.0504 0.1322,-10e-4 0.17154,0.10917 0.0394,0.11033 0.30217,0.53617 0.58401,0.94617 0.76969,1.11986 1.6622,1.58603 4.31962,2.25617 2.93486,0.74009 3.91369,1.1142 4.71931,1.80377 1.56041,1.33567 1.38619,3.5649 -0.3399,4.34879 -0.71922,0.32665 -0.75968,0.33027 -1.45074,0.12976 z m -15.58495,-1.16786 c -0.5655,-0.58182 -0.79168,-0.98175 -1.05726,-1.86921 -0.45839,-1.53197 -0.69428,-1.95695 -1.2866,-2.31811 -0.62319,-0.37999 -0.94204,-0.3996 -0.48015,-0.0294 0.34754,0.27849 0.99867,1.26517 0.99975,1.51499 0,0.0762 -0.2815,-0.13661 -0.62635,-0.47308 -0.34479,-0.33647 -1.02268,-0.83271 -1.50645,-1.10277 l -0.87965,-0.49101 0.62979,-0.10064 c 0.803,-0.12841 2.09532,0.1464 2.61653,0.55639 0.48896,0.38464 0.7918,0.94911 1.28142,2.38866 0.20438,0.60079 0.55136,1.41405 0.7711,1.80726 0.21975,0.3932 0.36757,0.74695 0.3284,0.7861 -0.0393,0.0391 -0.39491,-0.26191 -0.79053,-0.66902 z m 1.88285,-0.19916 c -0.98903,-2.65833 -2.55645,-4.72271 -4.2152,-5.5516 -0.52854,-0.2641 -0.89641,-0.48648 -0.81749,-0.49419 0.59149,-0.0577 1.80208,0.0769 2.20505,0.24522 0.26826,0.11213 0.83667,0.47162 1.2631,0.79894 1.10811,0.85058 2.5325,1.47653 4.03222,1.772 l 1.30044,0.25619 -0.54404,0.22473 c -0.29919,0.12363 -1.00528,0.30476 -1.56903,0.40257 l -1.02503,0.17785 0.0507,0.78847 c 0.0595,0.93012 -0.0955,2.12885 -0.27531,2.12885 -0.0696,0 -0.25205,-0.33707 -0.4053,-0.74903 z m -5.05718,-2.26186 c -0.34127,-0.35184 -1.02853,-0.89284 -1.52727,-1.20221 -0.49869,-0.30939 -0.9067,-0.59112 -0.9067,-0.62611 0,-0.11511 1.17442,0.14637 1.57692,0.35105 0.2168,0.11033 0.54557,0.36689 0.73057,0.57027 0.37107,0.40795 0.90486,1.38886 0.80831,1.48541 -0.0333,0.0337 -0.3405,-0.22657 -0.68183,-0.57841 z m 6.34299,-3.84044 c -0.0465,-0.12118 -0.24859,-0.24736 -0.44903,-0.28032 -0.30056,-0.0494 -0.25389,-0.0929 0.26635,-0.24789 0.34694,-0.10335 0.87912,-0.18611 1.18265,-0.18384 0.52891,0.004 0.53881,0.0143 0.23656,0.24766 -0.17342,0.13397 -0.50362,0.34284 -0.73368,0.46419 -0.35813,0.1889 -0.43044,0.18892 -0.50285,1.5e-4 z m -2.11452,-2.01022 c -0.10852,-0.40718 -0.35796,-0.92721 -0.55439,-1.15561 l -0.3572,-0.41527 -0.41666,0.32773 c -0.60232,0.47381 -0.73392,0.40235 -0.22922,-0.12441 l 0.43323,-0.45217 -0.65996,-0.26405 c -0.86414,-0.34575 -0.71747,-0.45981 0.30843,-0.23979 0.6748,0.14472 0.88031,0.13401 1.17849,-0.0614 0.60716,-0.39781 1.99853,-0.73826 3.00679,-0.73571 1.2158,0.003 1.79147,0.29848 0.64154,0.32922 -0.43365,0.0116 -1.00135,0.0698 -1.26149,0.12935 -0.45,0.10297 -0.45577,0.11421 -0.11808,0.22857 0.69565,0.23571 0.80674,1.03411 0.18983,1.36428 -0.54941,0.29402 -1.08105,-0.23884 -0.84693,-0.84891 0.10813,-0.28154 -0.28668,-0.32692 -1.03341,-0.11886 -0.3886,0.10826 -0.38836,0.10891 0.11821,0.31879 0.27923,0.11563 0.50768,0.27514 0.50768,0.3544 0,0.0805 -0.13483,0.072 -0.30505,-0.0191 -0.52228,-0.27952 -0.63945,-0.20553 -0.46536,0.29384 0.0876,0.25139 0.13714,0.76587 0.11007,1.14327 l -0.0495,0.68621 z m 2.16834,-1.59877 c 0,-0.11563 -0.0465,-0.25695 -0.10374,-0.31401 -0.14263,-0.14262 -0.54445,0.2108 -0.43717,0.38443 0.1344,0.21743 0.54087,0.1645 0.54087,-0.0704 z"
         style="fill:#000000;stroke-width:0.0417229"
         id="path7758" />
    </g>
  </g>
</svg>
