<?xml version="1.0" encoding="UTF-8" standalone="no"?>
<!-- Created with Inkscape (http://www.inkscape.org/) -->

<svg
   width="41.008999mm"
   height="41.008999mm"
   viewBox="0 0 41.008999 41.008999"
   version="1.1"
   id="svg1"
   inkscape:version="1.4.2 (f4327f4, 2025-05-13)"
   sodipodi:docname="306.svg"
   xmlns:inkscape="http://www.inkscape.org/namespaces/inkscape"
   xmlns:sodipodi="http://sodipodi.sourceforge.net/DTD/sodipodi-0.dtd"
   xmlns="http://www.w3.org/2000/svg"
   xmlns:svg="http://www.w3.org/2000/svg">
  <sodipodi:namedview
     id="namedview1"
     pagecolor="#ffffff"
     bordercolor="#000000"
     borderopacity="0.25"
     inkscape:showpageshadow="2"
     inkscape:pageopacity="0.0"
     inkscape:pagecheckerboard="0"
     inkscape:deskcolor="#d1d1d1"
     inkscape:document-units="mm"
     inkscape:zoom="1.4513545"
     inkscape:cx="86.470947"
     inkscape:cy="-62.700049"
     inkscape:window-width="1050"
     inkscape:window-height="1081"
     inkscape:window-x="857"
     inkscape:window-y="0"
     inkscape:window-maximized="0"
     inkscape:current-layer="layer1" />
  <defs
     id="defs1" />
  <g
     inkscape:label="Layer 1"
     inkscape:groupmode="layer"
     id="layer1"
     transform="translate(333.37504,1257.5646)">
    <g
       id="g39"
       transform="translate(-1153.5892,-1181.6571)">
      <circle
         style="fill:none;stroke:#0000ff;stroke-width:0.1;stroke-linecap:round;stroke-dasharray:none;stroke-opacity:1;paint-order:markers stroke fill"
         id="circle6689"
         cx="840.71863"
         cy="-70.414452"
         r="2" />
      <circle
         style="fill:none;stroke:#ff0000;stroke-width:0.1;stroke-dasharray:none"
         id="circle6699"
         cx="840.71863"
         cy="-55.403038"
         r="19.954653" />
      <path
         d="m 825.96431,-44.09843 c -0.0344,-0.61159 0.0229,-0.74183 0.56677,-1.28784 0.33343,-0.33343 0.60513,-0.68589 0.60496,-0.78205 2e-5,-0.5141 -1.35935,0.54139 -1.60596,1.24701 -0.0863,0.247 -0.10924,0.16906 -0.0748,-0.25436 0.0514,-0.63254 0.46274,-1.3855 0.85129,-1.55859 0.1816,-0.0809 0.0765,-0.25817 -0.564,-0.95076 l -0.78729,-0.85135 1.09175,0.13999 1.09174,0.13997 0.0151,-0.46345 c 0.0255,-0.78039 0.66773,-1.90141 0.93575,-1.6334 0.0605,0.0605 0.0236,0.19686 -0.0821,0.30302 -0.30134,0.30134 -0.49138,1.32407 -0.28546,1.52999 0.15807,0.15807 0.1882,0.11057 0.20154,-0.3175 0.0392,-1.25603 1.12521,-2.14256 1.87189,-1.52798 0.29957,0.24654 0.36323,0.41583 0.28949,0.76985 -0.16458,0.79002 -1.1812,0.80104 -1.18119,0.0128 3e-5,-0.20536 -0.0306,-0.23351 -0.13769,-0.12638 -0.1558,0.15581 -0.47742,1.09605 -0.40102,1.17244 0.0274,0.0274 0.45896,-0.0609 0.95885,-0.19643 0.96752,-0.26221 0.94463,-0.0739 -0.0487,0.40129 -0.71431,0.34169 -0.70196,0.511 0.073,1.00073 0.79061,0.49961 1.91094,0.41026 2.52234,-0.20114 0.18393,-0.18393 0.57411,-0.2519 1.21282,-0.21118 0.79343,0.0505 0.92918,0.016 0.86284,-0.21902 -0.0671,-0.2377 0.0361,-0.27154 0.6975,-0.22858 0.66163,0.043 0.7698,0.008 0.73229,-0.24007 -0.0511,-0.33698 0.13636,-0.45268 1.08367,-0.669 0.37879,-0.0865 0.68697,-0.18745 0.68484,-0.22432 -0.002,-0.0369 -0.15642,-0.52616 -0.34287,-1.08733 -0.18643,-0.56118 -0.3205,-1.09872 -0.29789,-1.19453 0.0511,-0.21644 1.07848,-0.64881 1.60394,-0.67502 0.36898,-0.0184 0.38688,-0.0455 0.32451,-0.49085 -0.0718,-0.5124 -0.29297,-0.64394 -1.02172,-0.60759 -0.42641,0.0213 -0.43348,0.0304 -0.39035,0.50293 0.0506,0.55495 -0.15579,0.45388 -0.25804,-0.12638 -0.0628,-0.35655 -0.12145,-0.38762 -0.70822,-0.37507 -0.72797,0.0156 -0.75418,0.0963 -0.42905,1.32163 l 0.18456,0.69563 0.0245,-0.62967 c 0.0395,-1.01555 0.17138,-0.87011 0.29339,0.32365 0.0624,0.6099 0.15565,1.3119 0.20735,1.56002 0.0517,0.24808 0.0539,0.45107 0.005,0.45111 -0.12544,0 -0.91259,-1.77033 -1.26258,-2.83942 l -0.29367,-0.89707 -0.45329,0.0477 c -0.24933,0.0262 -0.44787,0.12042 -0.44118,0.2094 0.029,0.38766 0.38292,1.52459 0.39386,1.26529 0.0227,-0.53835 0.18042,-0.45702 0.34399,0.17732 0.0898,0.34821 0.3502,1.05333 0.57866,1.56692 l 0.41538,0.93374 -0.5771,-0.71131 c -0.7433,-0.91612 -1.29116,-1.93055 -1.70728,-3.16137 -0.18287,-0.54087 -0.33251,-1.02817 -0.33248,-1.08284 -7e-5,-0.0548 0.34604,-0.10567 0.76895,-0.11331 l 0.76901,-0.0138 -0.0376,-0.51681 c -0.0207,-0.28427 -0.0685,-0.77375 -0.10632,-1.08778 -0.0663,-0.55123 -0.0561,-0.56888 0.29579,-0.51153 1.23185,0.20077 1.13733,0.3115 1.06907,-1.25246 -0.0341,-0.78167 -0.0237,-1.4596 0.0233,-1.50653 0.047,-0.0469 0.39325,0.0524 0.76954,0.22069 0.3763,0.1683 0.71858,0.27166 0.76059,0.22965 0.042,-0.042 0.14314,-0.55159 0.22467,-1.13248 0.15641,-1.11389 0.34963,-1.78034 0.51615,-1.78033 0.20078,-4e-5 2.40046,1.62207 2.96448,2.18609 l 0.58025,0.58025 0.93485,-0.26035 c 0.7457,-0.20764 1.05034,-0.38174 1.50541,-0.86019 0.63051,-0.66289 1.25355,-0.92467 2.52859,-1.06243 1.33029,-0.1437 1.96839,-0.48031 2.29322,-1.20967 0.1264,-0.28384 -0.2621,-0.72339 -0.63942,-0.72342 -0.44471,-10e-6 -0.50156,0.20879 -0.0628,0.2307 0.52437,0.0262 0.69942,0.409 0.34781,0.76061 -0.33274,0.33274 -0.58539,0.2883 -0.84729,-0.14911 -0.50031,-0.83558 0.65949,-1.65395 1.36329,-0.96204 0.30344,0.29778 0.24171,1.2337 -0.10372,1.57914 l -0.30298,0.30298 0.98104,0.009 c 0.53958,0.005 1.02372,-0.0335 1.07587,-0.0856 0.0521,-0.0521 0.16327,-0.46537 0.24699,-0.91828 0.25541,-1.38188 0.59026,-2.10896 1.0803,-2.34566 0.57083,-0.27573 1.11163,0.0432 1.11164,0.65556 -3e-5,0.60752 -0.43245,0.80522 -0.74728,0.34158 -0.21169,-0.31168 -0.25041,-0.30924 -0.47665,0.0302 -0.34373,0.51554 -0.72284,2.20119 -0.49509,2.20116 0.10309,0 0.36357,-0.11788 0.57873,-0.26204 0.3227,-0.21607 0.36588,-0.32599 0.24621,-0.62713 -0.20698,-0.52091 0.29187,-1.00047 0.71184,-0.6844 0.63855,0.48059 0.073,1.37652 -1.11141,1.76071 -0.66386,0.21532 -0.69228,0.24117 -0.88822,0.80846 -0.13701,0.39632 -0.13156,0.55008 0.0168,0.4752 0.65159,-0.32874 1.52201,0.0635 1.52203,0.68582 0,0.66128 -0.98548,1.07725 -1.33365,0.56298 -0.25799,-0.38102 0.30148,-0.82007 0.7176,-0.56308 0.30503,0.18835 0.32688,0.1803 0.21176,-0.0785 -0.16307,-0.36665 -0.81743,-0.41608 -1.14693,-0.0866 -0.13244,0.13244 -0.42647,0.62126 -0.65338,1.0863 -0.67188,1.37665 -1.41636,2.36715 -2.00023,2.66125 -0.46911,0.23631 -0.50912,0.30703 -0.55257,0.97634 -0.0258,0.39683 -0.11285,0.92884 -0.19352,1.18216 l -0.14659,0.46065 1.25813,1.06108 c 1.31005,1.10489 2.83564,2.8075 2.66684,2.9763 -0.0536,0.0536 -0.49094,0.24966 -0.97183,0.43562 l -0.87433,0.33812 0.27224,0.70411 c 0.14971,0.38725 0.2253,0.75105 0.16792,0.80842 -0.0573,0.0573 -0.58466,0.12981 -1.1717,0.16101 -0.58703,0.0312 -1.02588,0.0987 -0.97519,0.14998 0.0507,0.0513 0.12117,0.35447 0.15663,0.67374 l 0.0644,0.5804 -1.07426,0.0359 -1.07432,0.0358 0.14872,0.62993 c 0.0818,0.34647 0.10952,0.66912 0.0616,0.717 -0.25191,0.25192 -3.32579,-0.0334 -4.56144,-0.42338 -0.75002,-0.23674 -1.40159,-0.46833 -1.44797,-0.51472 -0.0464,-0.0464 0.62137,-0.0966 1.48387,-0.11153 0.86244,-0.015 1.79505,-0.0758 2.07244,-0.13499 0.27734,-0.0592 0.50425,-0.0609 0.50428,-0.004 0,0.12262 -0.97325,0.31788 -1.832,0.36746 l -0.60466,0.0349 0.83187,0.15835 c 0.45757,0.0871 1.18185,0.15096 1.60957,0.14192 l 0.77766,-0.0165 -3e-5,-0.46232 10e-6,-0.46228 -1.0302,-0.1489 c -1.12557,-0.16267 -2.79358,-0.54391 -2.91617,-0.66651 -0.0424,-0.0424 0.78264,-0.124 1.83348,-0.18128 1.75281,-0.0956 1.90623,-0.13229 1.85781,-0.44425 -0.0544,-0.35053 -0.11801,-0.38409 -1.08175,-0.57067 -0.40893,-0.0792 -0.38306,-0.0926 0.22914,-0.11912 0.67342,-0.0292 0.68867,-0.0389 0.63279,-0.40383 -0.0315,-0.20569 -0.11765,-0.40416 -0.19145,-0.44106 -0.0738,-0.0369 -0.57871,0.19736 -1.122,0.5206 -0.54331,0.32323 -1.20151,0.65117 -1.46277,0.72869 l -0.47493,0.141 0.41119,-0.42109 c 0.53508,-0.54639 0.86162,-1.35839 0.83438,-2.07446 -0.0339,-0.89131 -0.16489,-0.8832 -0.94657,0.0586 -0.38772,0.46763 -0.72011,0.78743 -0.73795,0.71137 -0.018,-0.0762 0.14841,-0.65915 0.3698,-1.29542 0.28317,-0.81396 0.34227,-1.21706 0.1993,-1.36003 -0.21573,-0.21574 -1.40305,-0.64485 -1.63363,-0.59043 -0.0752,0.0178 0.0398,0.65423 0.25586,1.4143 0.44292,1.5584 0.60716,4.27911 0.29028,4.80842 -0.34698,0.57951 -2.76229,1.29656 -3.98337,1.18258 -0.30786,-0.0287 -0.39866,0.0362 -0.56317,0.40257 -0.25206,0.56128 -0.43494,0.56745 -0.26041,0.009 l 0.1337,-0.42795 -0.63568,-0.0775 c -0.42832,-0.0522 -0.72966,0.0165 -0.92379,0.2106 -0.25467,0.25467 -0.28266,0.25112 -0.24285,-0.0323 0.0414,-0.29274 -0.0334,-0.34119 -0.86823,-0.56203 -0.86297,-0.22831 -0.93963,-0.21694 -1.38353,0.20542 l -0.46978,0.44729 0.30302,-0.52218 c 0.16662,-0.28725 0.2679,-0.55732 0.22494,-0.60028 -0.27866,-0.27866 -3.21609,-0.76513 -3.41557,-0.56564 -0.0349,0.0349 0.10712,0.50426 0.31563,1.04303 0.20846,0.53874 0.33565,0.97954 0.28259,0.97956 -0.0531,-7e-5 -0.33486,-0.42127 -0.62622,-0.93625 l -0.52973,-0.93624 -0.49406,0.35126 c -0.48832,0.34718 -0.78084,0.90798 -0.69588,1.33431 0.0617,0.30951 0.60475,0.80314 0.82611,0.75087 0.13328,-0.0315 0.093,-0.10148 -0.11791,-0.20969 -0.39028,-0.20224 -0.45125,-0.66608 -0.12978,-0.98755 0.48632,-0.48632 1.14513,-0.18633 1.11063,0.50573 -0.042,0.84218 -1.16934,1.28898 -1.76049,0.69782 -0.15034,-0.15033 -0.2906,-0.57955 -0.31163,-0.95376 z m 2.76104,-2.07378 c 0.47071,3e-5 1.3665,0.14437 1.99072,0.32083 l 1.13491,0.32082 0.13114,-0.50956 c 0.142,-0.55195 0.0541,-0.77784 -0.20273,-0.52102 -0.28734,0.28734 -1.57771,0.2622 -2.2625,-0.0441 -0.3807,-0.17029 -0.84106,-0.50887 -1.07189,-0.78836 -0.22251,-0.26946 -0.43724,-0.45718 -0.47712,-0.4173 -0.0901,0.0901 0.20707,0.61664 0.53587,0.94944 0.30432,0.30856 0.19256,0.44247 -0.27862,0.3335 -0.37624,-0.087 -0.6525,0.0587 -0.46566,0.24557 0.0605,0.0605 0.49513,0.11003 0.96581,0.11002 z m -1.18586,-0.99024 c 0.0605,-0.0605 0.0139,-0.20613 -0.10354,-0.3236 -0.11744,-0.11745 -0.29365,-0.19466 -0.39157,-0.17151 -0.10112,0.0238 -0.0562,0.16391 0.10352,0.32357 0.15486,0.15486 0.33106,0.23207 0.39159,0.17154 z m 6.4499,2.13209 c 0.0679,-0.0678 0.14568,-0.53467 0.17279,-1.03752 l 0.0493,-0.91425 -0.6978,-0.005 -0.69783,-0.006 -0.28718,0.81014 -0.28714,0.81021 0.81219,0.23286 c 0.44672,0.12808 0.86774,0.17736 0.9357,0.10959 z m 1.06689,0.23414 c 0.63786,-0.0199 0.74271,-0.28719 0.65473,-1.66859 -0.0575,-0.9034 -0.0884,-0.9755 -0.39705,-0.9276 -0.50046,0.0777 -0.51333,0.16037 -0.0796,0.51207 0.36045,0.29228 0.36301,0.31027 0.0296,0.20491 l -0.36535,-0.11532 -0.15061,0.6474 c -0.0829,0.35607 -0.20528,0.76603 -0.27214,0.91098 -0.16356,0.35476 -0.0299,0.45521 0.58044,0.43615 z m 1.95176,-0.67035 c 0.20951,-0.7284 0.363,-3.08719 0.2108,-3.23938 -0.10395,-0.10396 -0.91381,0.3836 -0.91378,0.55015 -7e-5,0.0616 0.15862,0.16004 0.35228,0.21878 0.3549,0.10745 0.31425,0.36318 -0.0443,0.27857 -0.1043,-0.0247 -0.20794,0.36985 -0.24302,0.92525 -0.0337,0.53251 -0.12891,1.18168 -0.21168,1.44261 -0.14422,0.45437 -0.13368,0.47518 0.25035,0.49436 0.39405,0.0196 0.40425,0.008 0.5995,-0.67021 z m 0.99338,0.25469 c 0.37952,-0.18667 0.80751,-0.45678 0.95102,-0.6003 0.64423,-0.64423 0.68772,-1.90541 0.14135,-4.10234 l -0.37251,-1.49793 -0.33164,0.25923 c -0.24084,0.18837 -0.3346,0.45933 -0.34294,0.99017 l -0.0114,0.73085 0.51504,0.0211 0.51501,0.021 -0.54818,0.17847 -0.54813,0.17854 -0.0506,1.12499 c -0.0278,0.61874 -0.20745,1.52154 -0.39917,2.0062 -0.19178,0.48461 -0.317,0.91449 -0.27832,0.95523 0.0388,0.0402 0.38083,-0.0787 0.76041,-0.26529 z m 6.72574,-0.43347 c 0.19857,-0.19856 -0.14241,-0.25513 -1.04526,-0.17345 l -0.95856,0.0867 0.95855,0.0867 c 0.52718,0.0477 0.99757,0.0477 1.04527,1e-5 z m -8.83107,-8.57724 c 0.54107,0.0494 0.53285,0.0657 0.30962,-0.61833 -0.14909,-0.45682 -0.20001,-0.50353 -0.59421,-0.54499 l -0.43115,-0.0453 v 0.47291 c -3e-5,0.57798 0.0987,0.67945 0.71576,0.73571 z m 1.73447,0.18895 c 0.67764,0.15997 0.88611,0.0342 0.85861,-0.51793 -0.0162,-0.32401 -0.0716,-0.38961 -0.36789,-0.43563 -0.24196,-0.0376 -0.33409,0.009 -0.30052,0.15081 0.0267,0.11279 0.001,0.25202 -0.0561,0.30948 -0.0575,0.0575 -0.14122,-0.0544 -0.18607,-0.24858 -0.0635,-0.27476 -0.1402,-0.35302 -0.34594,-0.35302 -0.20578,0 -0.26906,0.094 -0.28554,0.42413 -0.0259,0.51979 -0.0482,0.49797 0.68342,0.6707 z m 8.69159,8.33182 c 0.50434,-0.0602 0.53111,-0.0824 0.48211,-0.39811 -0.0286,-0.18393 -0.0798,-0.36179 -0.11395,-0.39531 -0.15082,-0.148 -1.25161,-0.17568 -1.25224,-0.0314 -3.6e-4,0.0883 0.15303,0.17623 0.34083,0.19553 0.29874,0.0307 0.31022,0.0493 0.0917,0.14883 -0.25178,0.1146 -0.32083,0.30584 -0.16612,0.46054 0.046,0.046 0.32399,0.055 0.61768,0.0199 z m -5.7851,-6.09604 c 0.47291,0.19272 0.89117,0.35733 0.92941,0.36573 0.12577,0.0276 0.26777,-0.92149 0.17056,-1.13975 -0.0522,-0.11743 -0.6051,-0.30294 -1.22847,-0.41232 -1.09147,-0.19152 -1.13417,-0.18409 -1.15335,0.20072 -0.0218,0.43731 0.0253,0.4735 1.28185,0.98562 z m 3.21408,2.94747 c 0.19502,-0.19502 0.19806,-0.45923 0.0126,-1.08768 -0.13474,-0.45653 -0.27538,-0.86049 -0.3126,-0.89771 -0.037,-0.037 -0.22831,0.0935 -0.42463,0.29056 -0.32824,0.32824 -0.32866,0.41549 -0.0114,1.05663 0.46935,0.94854 0.44597,0.92826 0.73605,0.63818 z m -7.0717,-7.75224 c 0.14157,-0.67967 0.25202,-0.68752 0.26633,-0.0189 0.008,0.35738 0.10008,0.61528 0.23157,0.6463 0.1527,0.036 0.21589,-0.23682 0.20987,-0.90218 -0.008,-0.87071 -0.0434,-0.9647 -0.40458,-1.07843 -0.21759,-0.0685 -0.43641,-0.12718 -0.48621,-0.13034 -0.0499,-0.003 -0.0946,0.43166 -0.0996,0.96621 -0.01,1.02893 0.12483,1.27509 0.28267,0.51734 z m 9.84207,9.04575 c 0.0417,-0.17646 -1.22642,-0.41684 -1.38142,-0.26184 -0.0483,0.0483 -0.0503,0.17404 -0.004,0.27946 0.10223,0.23488 1.32995,0.21928 1.38586,-0.0176 z m -3.77895,-3.48192 c 0.53284,-0.3645 0.5864,-0.80247 0.15064,-1.23178 -0.51159,-0.50452 -0.72077,-0.3814 -0.81442,0.47874 -0.0488,0.44839 -0.0283,0.87572 0.0456,0.94961 0.0739,0.0739 0.35213,-0.0145 0.61819,-0.19657 z m -2.19012,-2.39208 1.11061,0.31392 0.0156,-0.49955 0.0156,-0.49957 -0.79572,-0.21913 c -1.1799,-0.32498 -1.34161,-0.31272 -1.47002,0.11126 -0.0595,0.19668 -0.0809,0.38488 -0.0475,0.41832 0.0333,0.0333 0.56055,0.20205 1.17142,0.37475 z m 5.47715,4.72266 c 0.0909,-0.0908 -0.11629,-0.76569 -0.28761,-0.93701 -0.12102,-0.12102 -1.01116,0.9413 -0.92862,1.10792 0.0885,0.17843 0.99416,0.0512 1.21623,-0.17091 z m -7.60556,-6.92888 c 0.30708,0.093 0.442,-0.0866 1.01767,-1.35467 0.01,-0.0211 -0.19419,-0.14074 -0.45284,-0.26567 l -0.47036,-0.2272 -0.24569,0.83246 c -0.27207,0.92198 -0.27754,0.88527 0.15122,1.01508 z m -0.50146,-1.2774 c 0.14232,-0.55193 0.0817,-0.93273 -0.11693,-0.73413 -0.0725,0.0725 -0.13671,1.25069 -0.0717,1.31572 0.017,0.017 0.10176,-0.24481 0.1886,-0.58159 z m 6.99724,6.85309 c 0.38853,-0.45089 0.40094,-0.53698 0.15012,-1.05168 -0.26386,-0.54147 -0.28639,-0.5548 -0.65689,-0.38839 -0.58283,0.26169 -0.6003,0.31776 -0.32842,1.05224 0.34702,0.9374 0.35724,0.94215 0.83519,0.38783 z m 3.27043,3.09583 0.55841,-0.0661 -0.095,-0.4563 c -0.0916,-0.43977 -0.11597,-0.455 -0.67108,-0.41953 -0.57235,0.0366 -0.81238,0.13053 -0.67764,0.26527 0.0387,0.0387 0.22846,0.0552 0.42161,0.0365 0.33217,-0.0321 0.33674,-0.0264 0.0843,0.10425 -0.275,0.14234 -0.4073,0.4073 -0.26119,0.53198 0.0454,0.0383 0.33344,0.0402 0.64058,0.004 z m -7.4773,-7.9766 0.74618,0.2582 -0.0611,-0.4423 c -0.0607,-0.44003 -0.059,-0.44207 0.33706,-0.40028 0.38519,0.0407 0.38569,0.034 0.0148,-0.2056 -0.21079,-0.13612 -0.55454,-0.36178 -0.76392,-0.50136 -0.25128,-0.16756 -0.44838,-0.18611 -0.57983,-0.0547 -0.22985,0.22984 -0.57528,0.95193 -0.49424,1.03298 0.0299,0.0299 0.3906,0.171 0.80099,0.31302 z m 2.45918,2.0496 c 0.10637,-0.10637 0.24093,-0.30005 0.29902,-0.43041 0.0932,-0.20945 0.053,-0.25265 -0.34459,-0.37061 -0.9698,-0.28774 -1.01532,-0.27615 -0.94959,0.24164 0.0481,0.37891 0.13569,0.50372 0.43104,0.61416 0.20396,0.0763 0.45774,0.0516 0.56411,-0.0548 z m 1.00019,0.23254 c -0.18366,-0.31278 -0.39368,-0.54337 -0.46681,-0.51235 -0.32715,0.13886 -0.48827,0.71028 -0.30808,1.09272 0.18049,0.38307 0.23236,0.39916 0.65242,0.20226 0.45015,-0.21097 0.45182,-0.22161 0.12246,-0.78261 z m 3.51508,4.16235 c 0.394,-0.082 0.46862,-0.14251 0.42379,-0.34304 -0.083,-0.37004 -0.16275,-0.40248 -0.50454,-0.20517 -0.74166,0.42819 -0.69983,0.71115 0.081,0.54842 z m -0.33525,-0.67335 c 0.25804,-0.12468 0.46918,-0.26235 0.46921,-0.30595 -5e-5,-0.17146 -0.98349,-1.5731 -1.10376,-1.57309 -0.0706,-1.4e-4 -0.22309,0.15903 -0.34001,0.35273 -0.15369,0.25679 -0.13086,0.52243 0.0836,0.97243 0.39677,0.83248 0.35995,0.8096 0.89045,0.55339 z m -8.76719,-9.25017 c 0.21208,-0.2036 0.22991,-0.19753 0.16153,0.0623 -0.0652,0.24767 -0.002,0.33264 0.39674,0.5318 0.62856,0.31409 0.65729,0.30998 1.32386,-0.19034 l 0.57516,-0.43169 -0.83554,-0.65752 c -1.41531,-1.11376 -1.55942,-1.18198 -1.74683,-0.82697 -0.40124,0.75977 -0.56444,1.54434 -0.34192,1.64344 0.12532,0.0557 0.33543,-0.003 0.46698,-0.13096 z m 4.31925,4.31218 c 0.90324,0.3895 1.20192,0.18654 0.60456,-0.41082 -0.54012,-0.54012 -1.46197,-0.70122 -1.50277,-0.26264 -0.0147,0.15851 0.0172,0.30408 0.0709,0.32349 0.0537,0.0195 0.42602,0.17694 0.82729,0.34997 z m 3.0559,2.62118 c 0.21504,-0.47893 0.0853,-0.65576 -0.37813,-0.51545 -0.34929,0.10576 -0.34915,0.10221 -0.0287,0.69062 0.1621,0.29758 0.20236,0.28029 0.4069,-0.17519 z m -0.54034,-1.12273 c 0.0231,-0.097 -0.203,-0.4213 -0.50198,-0.72029 -0.4068,-0.40679 -0.58466,-0.50263 -0.7066,-0.3807 -0.15783,0.15783 -0.0382,0.43259 0.46718,1.07323 0.25191,0.31937 0.66883,0.33495 0.7414,0.0278 z m -3.30687,-3.51381 c 0.92732,0.64886 1.59937,0.68658 1.2084,0.0678 -0.13124,-0.20761 -0.51207,-0.66278 -0.84637,-1.01141 -0.65002,-0.67788 -0.8136,-0.69537 -1.36303,-0.14593 -0.20856,0.20855 -0.21438,0.30587 -0.0247,0.40972 0.13689,0.075 0.59839,0.38087 1.02565,0.67985 z m 7.42148,7.20453 c 0.54641,-0.16551 0.5498,-0.27461 0.0326,-1.05182 -0.7447,-1.11899 -2.1802,-2.51429 -2.38062,-2.31387 -0.22693,0.22693 -0.18464,0.31701 0.76764,1.63466 0.47186,0.65293 0.85796,1.24277 0.85796,1.31072 -2e-5,0.27225 0.41462,0.51348 0.72243,0.42035 z m -5.38029,-5.83486 c 0.0464,-0.0464 0.0112,-0.2093 -0.0782,-0.362 -0.0893,-0.15268 -0.17858,-0.26146 -0.19817,-0.24187 -0.0197,0.0197 -0.13516,0.0803 -0.25717,0.13427 -0.16825,0.0749 -0.14072,0.15345 0.11388,0.32628 0.18441,0.12515 0.37323,0.18969 0.41963,0.14329 z m 1.25432,1.01405 c -1e-5,-0.20601 -0.57486,-0.59325 -0.69796,-0.47015 -0.043,0.043 0.0965,0.20808 0.30988,0.36687 0.21343,0.15884 0.38805,0.20529 0.38805,0.1033 z m 1.15108,1.06127 c 0.10567,-0.23719 -0.46208,-0.93785 -0.62662,-0.77331 -0.16446,0.16446 -0.0973,0.3795 0.2166,0.69339 0.22884,0.22883 0.33454,0.24939 0.41002,0.0799 z m -0.62086,-3.41699 0.2414,-0.57424 -0.51459,0.33983 c -0.38149,0.25195 -0.57427,0.49775 -0.74583,0.95003 l -0.23122,0.61022 0.50445,-0.37577 c 0.31925,-0.23779 0.59409,-0.5856 0.7458,-0.95005 z m -0.47943,1.43648 c 0.0558,-0.1257 0.0822,-0.24784 0.0584,-0.27162 -0.0237,-0.0237 -0.11754,0.031 -0.20831,0.12176 -0.0908,0.0908 -0.1171,0.21298 -0.0585,0.27162 0.0586,0.0586 0.15236,0.004 0.20832,-0.12176 z m -0.97263,-1.46394 c 0.34119,-0.23173 0.6216,-0.98283 0.76029,-2.03687 0.0492,-0.37381 0.0439,-0.37889 -0.4755,-0.45753 -0.44518,-0.0674 -2.05718,0.26353 -2.27735,0.46749 -0.0599,0.0514 0.84447,1.32617 1.47065,2.07439 0.10426,0.12463 0.2939,0.10735 0.52193,-0.0475 z m 2.08164,2.55454 c 0.19234,0.0857 0.26558,-0.0395 0.43228,-0.73961 0.11038,-0.46352 0.19147,-1.02816 0.18016,-1.2548 -0.02,-0.40054 -0.0337,-0.40456 -0.48968,-0.143 -0.91794,0.52654 -0.98833,1.75192 -0.12276,2.13741 z m -0.4354,-3.82429 0.65822,-0.65822 -0.56017,-0.19843 -0.56016,-0.19843 -0.13461,0.82043 c -0.074,0.45127 -0.11822,0.83681 -0.0982,0.85682 0.0199,0.0199 0.33248,-0.26007 0.69459,-0.62218 z m 0.86151,0.73762 c -0.0719,-0.46341 -0.18687,-0.42111 -0.42633,0.15696 -0.19836,0.47888 -0.19442,0.4885 0.13716,0.33598 0.25414,-0.11696 0.32802,-0.24275 0.28917,-0.49294 z m 2.4867,-1.44025 c 0.25121,-0.38273 0.62272,-1.15999 0.82565,-1.72713 l 0.369,-1.03113 -1.31382,-0.009 c -0.86923,-0.006 -1.69974,0.1259 -2.45438,0.39041 -2.16817,0.76009 -2.3296,1.13345 -0.73357,1.69721 l 0.93095,0.32882 0.37119,-0.76319 c 0.49861,-1.02524 0.90056,-1.39682 0.48465,-0.44802 -0.45634,1.04111 -0.43172,1.24439 0.14369,1.18646 0.25784,-0.0259 0.7349,-0.19252 1.06017,-0.37019 0.54016,-0.29503 0.5689,-0.29376 0.33205,0.0148 -0.20804,0.27125 -0.9772,0.64203 -1.92217,0.92704 -0.0617,0.0184 -0.0261,0.3742 0.0787,0.79033 l 0.19048,0.75658 0.59048,-0.52316 c 0.32457,-0.28794 0.79581,-0.83653 1.04708,-1.21923 z m 2.15494,-0.61953 c 0.0605,-0.0605 0.0605,-0.15952 3e-5,-0.22002 -0.0605,-0.0605 -0.15952,-0.0605 -0.22005,0 -0.0605,0.0605 -0.0605,0.15952 0,0.22005 0.0605,0.0605 0.1595,0.0605 0.22002,-3e-5 z m -3.30081,-3.52086 c 0.0605,-0.0605 0.088,-0.13209 0.0615,-0.15853 -0.0266,-0.0266 -0.12863,-0.0296 -0.22655,-0.007 -0.0979,0.0231 -0.12545,0.0946 -0.0615,0.15854 0.0641,0.0641 0.16601,0.067 0.22654,0.006 z m -10.32857,-1.07054 c -0.1489,-0.25057 -0.27071,-0.51101 -0.27068,-0.57866 2.1e-4,-0.0675 0.38696,-0.60819 0.85993,-1.20109 1.01625,-1.274 2.77415,-2.72167 4.17229,-3.43533 1.14033,-0.58223 3.16574,-1.20224 4.33588,-1.32734 1.02634,-0.10971 3.66016,-0.0808 3.78245,0.0415 0.0451,0.0451 -0.50193,0.27711 -1.21555,0.51566 -1.72253,0.57572 -3.13644,1.39093 -4.48506,2.58596 l -1.10842,0.98212 0.61826,-0.0419 c 1.49084,-0.1011 2.62323,-0.40712 4.93733,-1.33427 0.35844,-0.1436 0.35001,-0.11355 -0.0964,0.34374 -0.68155,0.69824 -2.69098,1.99118 -3.85617,2.48111 -0.53665,0.22566 -1.46978,0.50867 -2.07357,0.62896 -1.09624,0.21837 -1.09825,0.21955 -1.39155,0.83265 -0.36223,0.75731 -0.52179,0.7936 -0.33739,0.0768 0.0761,-0.29543 0.10867,-0.56675 0.0725,-0.6029 -0.0362,-0.0362 -0.34053,-0.0598 -0.67636,-0.0526 l -0.61066,0.0131 0.57218,1.13947 0.57223,1.13951 0.97143,0.34498 c 0.53428,0.18973 0.97144,0.37753 0.97143,0.41728 7e-5,0.0398 -0.38801,0.009 -0.86222,-0.0691 -0.47421,-0.0778 -0.88821,-0.11538 -0.92002,-0.0836 -0.0318,0.0318 -0.0664,0.33865 -0.0768,0.68188 l -0.0189,0.62404 -0.24095,-0.72899 c -0.2359,-0.71365 -0.2568,-0.73691 -0.98929,-1.1013 -0.86338,-0.42951 -2.24147,-1.62755 -2.63606,-2.29163 z m 2.60608,1.53118 c 0.3481,0.15564 0.34131,0.11594 -0.0801,-0.47001 -0.25319,-0.35205 -0.69287,-0.87748 -0.97714,-1.16774 -0.28444,-0.29009 -0.48851,-0.55638 -0.45386,-0.59145 0.0349,-0.0349 0.31181,-0.055 0.61586,-0.0443 0.30407,0.0106 0.98151,-0.0177 1.50539,-0.0631 0.93377,-0.0809 0.95868,-0.0939 1.26436,-0.66113 0.17152,-0.31824 0.29295,-0.59753 0.26987,-0.6206 -0.0228,-0.0228 -0.34533,-0.14039 -0.7161,-0.26065 -0.87633,-0.28425 -0.86686,-0.44334 0.0158,-0.26488 l 0.6899,0.13948 1.26228,-1.24559 c 1.07073,-1.05659 1.41755,-1.31573 2.28557,-1.70769 0.5628,-0.25415 1.00533,-0.48004 0.98346,-0.50192 -0.0221,-0.0221 -0.49264,0.10929 -1.0462,0.29142 -2.42801,0.79904 -5.54543,2.69776 -7.29197,4.4413 l -0.75898,0.75898 1.02618,0.89932 c 0.56435,0.49463 1.19727,0.97579 1.40637,1.06928 z m 3.55818,-2.88684 1.01007,-0.33241 -0.69147,-0.0931 c -0.55236,-0.0743 -0.76633,-0.0182 -1.06351,0.27897 -0.20462,0.20462 -0.34793,0.39615 -0.31859,0.4255 0.0295,0.0295 0.50798,-0.0961 1.06351,-0.27898 z m 3.94746,10.69883 c 0.13996,-0.0626 0.14355,-0.20337 0.009,-0.40107 -0.16435,-0.2417 -0.13286,-0.23666 0.1519,0.0243 0.19751,0.18097 0.5092,0.31493 0.69266,0.29757 0.18347,-0.0173 0.67533,0.0936 1.09301,0.24661 l 0.75943,0.27812 -0.0131,-0.61308 c -0.0174,-0.81077 0.35925,-2.05061 0.90523,-2.98001 0.4788,-0.81512 2.27564,-2.98924 2.3823,-2.88258 0.0362,0.0362 -0.12506,0.6424 -0.35794,1.34751 -0.35753,1.08245 -0.86485,3.59128 -0.74954,3.70659 0.0195,0.0195 0.35332,-0.36463 0.74142,-0.85399 0.93663,-1.17958 2.23049,-3.37191 2.77039,-4.6942 0.23956,-0.58691 0.47113,-1.03156 0.51451,-0.98819 0.11839,0.1184 -0.34878,3.27556 -0.70548,4.76788 -0.38444,1.60828 -1.247,3.48245 -2.27713,4.94775 -1.12233,1.59639 -1.33399,1.77854 -1.81577,1.56217 -0.8098,-0.36364 -2.16901,-1.51896 -2.95653,-2.51302 -0.47874,-0.60432 -0.85774,-0.98318 -0.9849,-0.98468 -0.31159,-0.004 -0.40412,-0.15884 -0.15956,-0.26776 z m 3.22627,1.97631 c 1.09387,0.60215 1.03738,0.62635 2.01507,-0.86415 0.576,-0.87817 2.15591,-3.74458 2.09682,-3.80434 -0.0132,-0.0134 -0.56607,0.54783 -1.22869,1.24694 -1.08551,1.14533 -1.20128,1.31597 -1.17179,1.72186 l 0.0328,0.45052 -0.21508,-0.35255 c -0.19283,-0.316 -0.26936,-0.32197 -0.73995,-0.0574 l -0.52489,0.29508 0.47723,-0.51301 c 0.42872,-0.46111 0.46336,-0.58852 0.34174,-1.25614 -0.0745,-0.40867 -0.0527,-1.12954 0.0485,-1.60195 0.22259,-1.0403 -0.0577,-0.62032 -0.58514,0.87683 -0.22763,0.64598 -0.36217,1.52125 -0.35604,2.31547 l 0.01,1.27696 -0.53641,-0.39353 c -0.29501,-0.21639 -0.82489,-0.50102 -1.17758,-0.63247 l -0.64126,-0.23902 0.59848,0.50189 c 0.32915,0.27598 1.02951,0.7391 1.55644,1.02918 z"
         style="fill:#000000;stroke-width:0.0411699"
         id="path7879" />
    </g>
  </g>
</svg>
