<?xml version="1.0" encoding="UTF-8" standalone="no"?>
<!-- Created with Inkscape (http://www.inkscape.org/) -->

<svg
   width="41.008999mm"
   height="41.008999mm"
   viewBox="0 0 41.008999 41.008999"
   version="1.1"
   id="svg1"
   inkscape:version="1.4.2 (f4327f4, 2025-05-13)"
   sodipodi:docname="307.svg"
   xmlns:inkscape="http://www.inkscape.org/namespaces/inkscape"
   xmlns:sodipodi="http://sodipodi.sourceforge.net/DTD/sodipodi-0.dtd"
   xmlns="http://www.w3.org/2000/svg"
   xmlns:svg="http://www.w3.org/2000/svg">
  <sodipodi:namedview
     id="namedview1"
     pagecolor="#ffffff"
     bordercolor="#000000"
     borderopacity="0.25"
     inkscape:showpageshadow="2"
     inkscape:pageopacity="0.0"
     inkscape:pagecheckerboard="0"
     inkscape:deskcolor="#d1d1d1"
     inkscape:document-units="mm"
     inkscape:zoom="1.4513545"
     inkscape:cx="86.470947"
     inkscape:cy="71.657199"
     inkscape:window-width="1050"
     inkscape:window-height="1081"
     inkscape:window-x="857"
     inkscape:window-y="0"
     inkscape:window-maximized="0"
     inkscape:current-layer="layer1" />
  <defs
     id="defs1" />
  <g
     inkscape:label="Layer 1"
     inkscape:groupmode="layer"
     id="layer1"
     transform="translate(333.37504,1257.5646)">
    <g
       id="g38"
       transform="translate(-1195.789,-1181.6571)">
      <circle
         style="fill:none;stroke:#0000ff;stroke-width:0.1;stroke-linecap:round;stroke-dasharray:none;stroke-opacity:1;paint-order:markers stroke fill"
         id="circle6691"
         cx="882.91846"
         cy="-70.414452"
         r="2" />
      <circle
         style="fill:none;stroke:#ff0000;stroke-width:0.1;stroke-dasharray:none"
         id="circle6701"
         cx="882.91846"
         cy="-55.403038"
         r="19.954653" />
      <path
         d="m 897.79547,-62.92826 c -0.48416,0.54715 -0.52639,0.68185 -0.33352,1.06405 0.71639,1.41996 0.71525,1.26573 0.0142,1.91832 -0.64432,0.59966 -0.64724,0.60999 -0.41767,1.46687 0.2472,0.92258 0.2316,0.94759 -0.85991,1.37775 -0.34042,0.13397 -0.38904,0.30573 -0.36786,1.29704 l 0.0244,1.14232 -1.07057,0.33831 -1.07056,0.3383 5.2e-4,0.91958 5.1e-4,0.91952 -0.65397,0.11644 c -0.35979,0.0636 -1.02433,0.1045 -1.47689,0.0902 -0.78736,-0.0248 -0.83082,-0.007 -1.00694,0.41794 -0.10127,0.24416 -0.25819,0.8416 -0.34845,1.32776 -0.0906,0.48604 -0.23336,0.90221 -0.31754,0.92468 -0.084,0.0226 -0.53174,-0.0632 -0.99501,-0.19067 -0.80877,-0.22193 -0.84825,-0.21681 -0.9909,0.13295 -0.0818,0.20048 -0.20864,0.79817 -0.28185,1.32822 -0.0732,0.53005 -0.18345,0.97709 -0.24485,0.99356 -0.0615,0.0164 -0.37829,-0.25653 -0.7042,-0.60671 -0.3259,-0.35013 -0.64834,-0.62168 -0.71652,-0.60341 -0.20396,0.0546 -0.11404,0.1707 0.67486,0.87057 0.81252,0.72085 0.64472,0.70181 3.50936,0.39834 0.5054,-0.0535 0.3506,-0.0827 -1.18944,-0.22171 -0.64629,-0.0585 -0.0201,-0.22242 1.06739,-0.27932 0.66448,-0.0349 2.18684,-0.26996 3.38303,-0.52242 2.54967,-0.53801 2.25501,-0.26597 -0.80042,0.73912 -2.69719,0.88718 -6.99038,1.5566 -6.06509,0.94564 0.10066,-0.0664 -0.10076,-0.36616 -0.51205,-0.76135 -0.73075,-0.7024 -0.74599,-0.70808 -1.04086,-0.3883 -0.16615,0.18021 -0.0777,0.37508 0.56718,1.24904 0.82388,1.11656 0.68208,1.06018 2.89284,1.15037 0.14743,0.006 -0.006,-0.12258 -0.34171,-0.28576 l -0.60976,-0.29665 1.19935,0.18816 c 1.07457,0.16862 2.93088,0.26897 4.93233,0.2666 0.60954,-7.3e-4 0.52201,0.0358 -0.63583,0.26575 -1.62351,0.32247 -4.27893,0.50928 -6.32769,0.44523 -1.23544,-0.0387 -1.47273,-0.0943 -1.30362,-0.30594 0.18502,-0.23143 0.13397,-0.36194 -0.48494,-1.24098 -0.68623,-0.97457 -0.69562,-0.98041 -1.18415,-0.73265 l -0.49241,0.24978 0.35509,1.1315 c 0.40766,1.29904 0.5316,1.38983 2.51806,1.8439 0.83727,0.19146 1.00619,0.19723 0.58409,0.0202 -1.88686,-0.79119 -1.80675,-0.90626 0.18918,-0.27167 0.69074,0.21955 1.91936,0.56017 2.73027,0.75661 0.81092,0.19653 1.45394,0.39272 1.42907,0.43581 -0.16457,0.28498 -7.90613,-0.66273 -7.99066,-0.97818 -0.0193,-0.0723 0.044,-0.1837 0.14107,-0.24774 0.11736,-0.0775 0.06,-0.49492 -0.17172,-1.24922 -0.1914,-0.62307 -0.37662,-1.14937 -0.41161,-1.16961 -0.035,-0.0199 -0.24446,0.0654 -0.46639,0.18711 -0.39081,0.21742 -0.39265,0.26167 -0.0624,1.49415 0.34002,1.26895 0.34115,1.27072 1.3383,1.96429 0.5489,0.38183 1.14086,0.77524 1.31548,0.8743 0.28358,0.16082 0.28734,0.14676 0.0354,-0.13222 -0.15512,-0.17175 -0.36763,-0.33803 -0.47219,-0.36939 -0.10467,-0.0311 -0.31805,-0.19745 -0.47433,-0.36889 -0.15627,-0.17143 0.59189,0.17325 1.66255,0.76592 1.07067,0.59269 2.30557,1.23621 2.74421,1.42995 1.22771,0.54247 0.62813,0.50445 -1.27221,-0.0805 -1.91391,-0.5892 -2.96024,-1.02714 -4.70893,-1.97087 -1.21044,-0.65326 -1.44185,-0.873 -1.03446,-0.98216 0.14732,-0.0395 0.19331,-0.35049 0.12933,-0.87427 -0.0546,-0.44714 -0.0963,-0.95305 -0.0925,-1.12417 0.004,-0.17117 -0.0712,-0.29026 -0.16697,-0.26457 -0.0957,0.0256 -0.51622,-0.16001 -0.93471,-0.41242 -0.47013,-0.2836 -0.68985,-0.35001 -0.57499,-0.17388 0.42493,0.65163 1.14841,2.58276 1.22692,3.27495 0.0996,0.87827 0.19689,0.86966 -2.22875,0.19795 l -1.76425,-0.48855 -0.55001,0.50553 c -1.00027,0.91938 -3.33532,0.96792 -6.22979,0.12949 -1.48626,-0.4305 -3.13943,-1.23086 -2.32301,-1.12466 2.34183,0.30465 3.49257,0.27457 5.04652,-0.13186 0.88608,-0.23067 1.61549,-0.4028 1.62149,-0.38035 0.0283,0.10518 -1.0898,0.87142 -1.39961,0.95916 -0.32947,0.095 -0.3296,0.10443 0.005,0.19518 0.58948,0.16005 2.69258,-0.70011 3.49012,-1.4269 0.41877,-0.38162 0.42659,-0.38126 0.4477,0.0204 0.0118,0.22486 0.0198,0.51738 0.0178,0.65014 -0.002,0.15647 0.38059,0.2837 1.08918,0.36182 1.62633,0.17938 1.71428,0.1309 1.46299,-0.80702 -0.22195,-0.82832 -1.13625,-2.57078 -1.39689,-2.66215 -0.0836,-0.0287 -0.23465,-0.17034 -0.33573,-0.31334 -0.11653,-0.16486 -0.35112,-0.21256 -0.64073,-0.13031 l -0.45683,0.12984 0.81771,0.41301 c 0.69651,0.35184 0.7518,0.41151 0.3731,0.4029 -0.8825,-0.0201 -2.57577,-0.49798 -3.27438,-0.92409 -0.55184,-0.33656 -0.63309,-0.43418 -0.35875,-0.43084 0.19511,0.002 0.66367,-0.0299 1.04133,-0.0718 0.37771,-0.0417 0.88253,-0.0872 1.12191,-0.10086 l 0.4352,-0.025 -0.57887,-0.35242 c -0.55187,-0.336 -0.56924,-0.37003 -0.37214,-0.72921 0.19923,-0.36317 0.16272,-0.36179 -1.00793,0.0366 l -1.21463,0.41344 0.56541,-0.85737 c 0.63891,-0.96873 1.80704,-2.08303 2.21176,-2.10975 0.18386,-0.0119 0.11104,0.17359 -0.22875,0.58433 -0.46956,0.56747 -0.47579,0.60308 -0.10848,0.61985 0.74945,0.0341 1.49879,-2.1436 1.43288,-4.16413 -0.0331,-1.01278 -0.0436,-1.03933 -0.41236,-1.03946 -0.2082,-3.7e-4 -0.69913,0.0847 -1.09106,0.18839 -0.63741,0.1708 -0.69238,0.22026 -0.51955,0.49034 0.23357,0.36513 0.1908,0.38114 -0.61793,0.23105 -0.53833,-0.0996 -0.78573,-0.0474 -1.62556,0.34413 -0.95711,0.4461 -1.48233,0.54393 -0.89718,0.1671 0.74136,-0.47738 0.8459,-0.64768 0.23296,-0.3795 -0.87411,0.38247 -1.5173,0.89519 -2.5125,2.00269 -0.9047,1.00674 -1.02508,1.21176 -0.4855,0.82681 0.46151,-0.32929 2.47321,-1.24765 2.58794,-1.18138 0.0515,0.0296 -0.26663,0.28721 -0.70699,0.57216 -0.44033,0.285 -1.52051,1.17108 -2.40035,1.96916 -0.87988,0.79801 -1.60877,1.41735 -1.61978,1.37626 -0.048,-0.17907 1.25447,-2.95696 1.88324,-4.01659 0.959,-1.616 1.97115,-2.46857 3.37838,-2.84563 0.9148,-0.24511 1.18342,-0.24989 1.59604,-0.0286 0.45579,0.2445 0.5637,0.23358 1.32791,-0.13491 0.45752,-0.22052 1.27625,-0.52008 1.81945,-0.66563 l 0.98762,-0.26463 0.0299,0.47807 c 0.0165,0.26294 0.0203,0.63969 0.008,0.83731 -0.0117,0.19759 0.12521,-0.1948 0.30427,-0.87206 0.44278,-1.67594 0.9963,-3.26285 1.82328,-5.23298 0.71335,-1.69937 1.07419,-2.13205 0.65615,-0.7867 -0.12917,0.41561 -0.39623,1.53701 -0.59345,2.49195 -0.1972,0.95493 -0.40602,1.70883 -0.4641,1.67535 -0.058,-0.0333 -0.0182,-0.50987 0.0884,-1.05855 0.10668,-0.54862 0.11312,-0.81676 0.0143,-0.59586 -0.0989,0.22097 -0.35509,1.24081 -0.56932,2.26631 -0.28734,1.37538 -0.34526,2.12043 -0.22083,2.83942 0.14004,0.80923 0.22061,0.98019 0.47428,1.00689 0.3954,0.0413 0.43881,-0.0522 0.3647,-0.7841 -0.0488,-0.48125 -0.12236,-0.60354 -0.35489,-0.58969 -0.23787,0.0143 -0.19791,-0.24318 0.21121,-1.36058 0.48207,-1.3166 2.60552,-5.01141 3.20092,-5.56964 0.28104,-0.26351 0.2816,-0.26178 0.0756,0.23278 -1.81428,4.35766 -2.81499,6.11172 -1.45907,2.55758 0.25804,-0.67642 0.22578,-0.64283 -0.22905,0.23814 -0.29123,0.56413 -0.6755,1.54207 -0.85395,2.17317 -0.2825,0.99923 -0.28708,1.26297 -0.0356,2.04061 0.21971,0.67934 0.35758,0.88798 0.57624,0.8718 0.20426,-0.0154 0.27696,-0.18743 0.25122,-0.59588 -0.0198,-0.31608 -0.0344,-0.7138 -0.0323,-0.88389 0.003,-0.22454 -0.0596,-0.26316 -0.22774,-0.14095 -0.44654,0.32434 -0.31216,-0.16911 0.42933,-1.57496 0.74996,-1.4227 1.76476,-2.79738 2.93355,-3.97399 0.57695,-0.58081 0.53778,-0.46858 -0.49587,1.42011 -0.61729,1.1279 -1.1891,2.18507 -1.27068,2.34929 -0.0882,0.17758 -0.16864,0.22282 -0.19835,0.11195 -0.0276,-0.10282 0.21387,-0.72153 0.53659,-1.37484 0.5754,-1.16496 0.57181,-1.16146 -0.18585,0.18161 -0.83067,1.47248 -1.12987,2.58581 -1.00724,3.74738 0.0727,0.68733 0.10035,0.72414 0.46867,0.62291 0.32677,-0.0875 0.4161,-0.30389 0.53918,-1.28486 0.12912,-1.02896 0.11231,-1.17476 -0.1333,-1.15719 -0.35796,0.0256 0.20381,-0.57493 2.11319,-2.25911 1.23551,-1.08978 3.38886,-2.71223 3.71606,-2.7999 0.0589,-0.0158 -0.45634,0.52833 -1.1448,1.20918 -0.68847,0.68076 -1.56849,1.64035 -1.95563,2.13231 -0.50458,0.64126 -0.67799,0.78365 -0.61239,0.50305 0.0504,-0.2153 0.2226,-0.51446 0.38289,-0.6647 0.16027,-0.1503 0.24063,-0.3025 0.17857,-0.33839 -0.0621,-0.0361 -0.49853,0.40295 -0.96992,0.97498 -0.75905,0.92117 -0.87341,1.17682 -0.99997,2.23549 -0.0786,0.65744 -0.12322,1.26881 -0.0991,1.35857 0.10239,0.38209 0.48991,-0.0178 0.95774,-0.98843 l 0.50175,-1.04095 0.59254,0.65948 c 0.32589,0.36269 0.61914,0.6523 0.65169,0.64358 0.0325,-0.009 0.30183,-0.20329 0.59845,-0.43233 l 0.53929,-0.41642 1.03758,0.52767 1.03759,0.52773 0.31436,-0.80493 c 0.21998,-0.56335 0.40292,-0.79541 0.60943,-0.77311 0.99306,0.10722 1.15977,0.002 1.30293,-0.82458 0.12837,-0.74102 0.19049,-0.8192 0.82616,-1.03976 0.6374,-0.22157 0.67812,-0.27281 0.56042,-0.71206 -0.11813,-0.44088 -0.0682,-0.50319 0.72385,-0.90198 0.84024,-0.42317 0.84782,-0.43435 0.61394,-0.90733 -0.19067,-0.38563 -0.17652,-0.55626 0.0727,-0.87548 0.26288,-0.33679 0.26631,-0.4271 0.0229,-0.59956 -0.24421,-0.173 -0.2332,-0.31135 0.0742,-0.93401 l 0.36101,-0.73095 -0.55284,-0.2246 c -0.30406,-0.12357 -0.58091,-0.23442 -0.61519,-0.24633 -0.0343,-0.0124 0.0151,-0.38462 0.10955,-0.82831 0.14424,-0.67708 0.11077,-0.97151 -0.20867,-1.83344 l -0.38056,-1.02687 1.69215,0.97693 c 0.93069,0.53733 1.75738,0.95952 1.83709,0.93816 0.26095,-0.0699 0.26918,0.39653 0.014,0.79165 -0.30362,0.47011 -0.24909,0.7408 0.18969,0.94254 0.29173,0.1341 0.30861,0.11632 0.14091,-0.14867 -0.10476,-0.16561 -0.1466,-0.43218 -0.0929,-0.59241 0.0718,-0.2141 0.13628,-0.11194 0.24347,0.38525 0.15028,0.69696 0.38086,1.03833 0.65222,0.96562 -0.0102,-0.32059 -0.0993,0.67016 -0.31192,0.91037 z m -1.02506,-1.07556 c -0.37855,-0.23526 -0.65637,-0.43921 -0.61739,-0.45319 0.0383,-0.017 -0.0464,-0.14596 -0.1898,-0.29328 -0.25119,-0.25798 -0.26425,-0.2524 -0.35928,0.1544 -0.0538,0.23218 -0.0274,0.52013 0.0598,0.64004 0.0871,0.11993 0.0861,0.19637 -0.002,0.16987 -0.28391,-0.0856 -0.80269,1.06053 -0.57656,1.27343 0.16389,0.15437 0.3066,0.0547 0.72226,-0.50464 0.62231,-0.8373 0.68729,-0.865 0.82482,-0.35174 0.0588,0.21935 0.18542,0.50699 0.2815,0.63925 0.15992,0.22018 0.19439,0.20982 0.40913,-0.1223 0.32092,-0.49693 0.24449,-0.65641 -0.55216,-1.15152 z m -1.27249,-2.39011 -1.02233,-0.62889 0.12113,1.11844 c 0.0666,0.61506 0.17922,1.20227 0.25018,1.30477 0.24131,0.34854 0.41022,0.11306 0.43123,-0.60164 0.0114,-0.39196 0.0696,-0.72573 0.12918,-0.74168 0.0595,-0.016 0.31221,0.20984 0.56142,0.50167 0.35196,0.41217 0.47254,0.46871 0.53975,0.25308 0.14071,-0.45127 0.0606,-0.54685 -1.01052,-1.20574 z m 1.23361,4.26532 -0.46417,-0.9209 -0.28424,0.60742 c -0.15637,0.3341 -0.471,0.7113 -0.69921,0.8383 -0.30982,0.17236 -0.38746,0.33346 -0.30641,0.63594 0.0982,0.36676 0.14448,0.3791 0.4888,0.13065 0.20916,-0.15096 0.51279,-0.39867 0.67475,-0.55056 0.28642,-0.26855 0.29879,-0.24942 0.4503,0.69576 l 0.1558,0.97187 0.30109,-0.48588 c 0.34115,-0.55043 0.32475,-0.64994 -0.31671,-1.9226 z m -1.06906,1.67677 c -0.24168,0.2202 -0.42066,0.4704 -0.39775,0.55591 0.023,0.0858 -0.0716,0.14363 -0.20991,0.12913 -0.13832,-0.0144 -0.50406,0.17916 -0.81264,0.43047 -0.84112,0.68494 -0.0883,0.54742 0.99141,-0.18106 0.47342,-0.3194 0.86619,-0.56048 0.87286,-0.5356 0.007,0.025 -0.0523,0.56146 -0.13109,1.19249 -0.0787,0.63115 -0.10554,1.19908 -0.0595,1.26231 0.046,0.0631 0.23386,0.007 0.41744,-0.1239 0.27234,-0.19509 0.30065,-0.36923 0.15391,-0.94774 -0.099,-0.3898 -0.20287,-1.02078 -0.23113,-1.40202 -0.0282,-0.38129 -0.0744,-0.71282 -0.10278,-0.73674 -0.0282,-0.0238 -0.24912,0.13672 -0.49079,0.35698 z m -0.85004,1.77828 c -0.53433,0.37728 -0.81109,0.69681 -0.8243,0.95173 -0.0172,0.33243 -0.0404,0.34791 -0.17426,0.11585 -0.2525,-0.43822 -1.20948,-0.0882 -1.40819,0.51487 -0.22219,0.67443 -0.014,0.7942 0.93736,0.53929 0.44818,-0.1201 0.82456,-0.1822 0.83629,-0.13842 0.0118,0.0442 -0.0827,0.56453 -0.20971,1.15677 -0.12707,0.59231 -0.19885,1.09556 -0.15946,1.11833 0.0395,0.0229 0.35787,-0.1353 0.70769,-0.35116 0.65878,-0.40654 0.81397,-0.82285 0.6407,-1.71887 -0.0471,-0.24301 -0.0551,-0.48975 -0.0181,-0.54826 0.0488,-0.0772 0.37228,-1.57229 0.47234,-2.18313 0.003,-0.0138 -0.35791,0.23065 -0.80035,0.54301 z m -2.0596,2.89853 c -0.54037,0.14478 -0.7779,0.30189 -0.89868,0.59433 -0.16128,0.39039 -0.16535,0.39036 -0.22933,-0.002 -0.0971,-0.59536 -0.76079,-0.6144 -1.195,-0.0342 -0.39936,0.53364 -0.30289,0.65331 0.69871,0.86674 l 0.76067,0.16202 -0.5036,0.89148 c -0.56899,1.00724 -0.46175,1.10499 0.83178,0.75838 0.63478,-0.17009 0.73902,-0.25882 0.78022,-0.66242 0.0611,-0.60014 0.0683,-0.58577 -0.29329,-0.58353 -0.26023,0.002 -0.25776,-0.0151 0.0158,-0.10603 0.20898,-0.0694 0.40443,-0.42831 0.5487,-1.00718 0.12309,-0.49457 0.22289,-0.93853 0.22135,-0.98677 -0.002,-0.0483 -0.3333,8.8e-4 -0.73729,0.10916 z m -2.34258,1.90612 c -0.65388,-0.13267 -0.66714,-0.12774 -0.89471,0.32811 -0.22609,0.45279 -0.25327,0.38921 -0.1685,-0.39364 0.0339,-0.3127 -1.405,-0.81662 -1.92999,-0.67596 -0.23494,0.0629 -0.41165,0.16976 -0.39258,0.23773 0.0188,0.0679 0.5237,0.45868 1.12147,0.86855 0.69147,0.47411 1.0542,0.82708 0.99706,0.97017 -0.0495,0.12366 -0.27447,0.64669 -0.50023,1.1622 -0.39361,0.89907 -0.39499,0.94093 -0.0336,1.02542 0.64137,0.14986 0.85359,-0.0131 1.12512,-0.86372 0.1442,-0.4518 0.5119,-1.16681 0.81708,-1.58882 0.30519,-0.42202 0.5476,-0.80519 0.53874,-0.85138 -0.009,-0.0464 -0.31479,-0.14468 -0.67984,-0.21862 z m -2.92609,0.64446 c -0.60877,-0.41035 -1.16615,-0.68315 -1.23861,-0.60622 -0.0726,0.0768 0.0649,0.17995 0.3054,0.22883 0.31124,0.0633 0.47499,0.23003 0.56843,0.57882 0.11521,0.43002 0.0687,0.51331 -0.38012,0.68146 -0.60971,0.22818 -1.0711,-0.14602 -1.12028,-0.90887 -0.0219,-0.34103 -0.11407,-0.49303 -0.31109,-0.51369 -0.54397,-0.0572 -0.81899,0.12129 -1.23394,0.80067 l -0.41954,0.68689 0.12525,-0.59923 c 0.14416,-0.68967 0.13374,-0.79583 -0.0728,-0.74051 -0.0822,0.022 -0.17469,0.41976 -0.20571,0.88385 -0.0444,0.66609 -0.005,0.85927 0.1849,0.91696 0.32116,0.0972 1.80232,0.0185 2.36193,-0.12563 0.35761,-0.0891 0.23603,0.0811 -0.60142,0.86077 -0.57637,0.53671 -1.09872,1.06367 -1.16075,1.17109 -0.14113,0.24444 0.93401,1.36379 1.23443,1.28523 0.15849,-0.0425 0.14765,-0.12448 -0.0439,-0.32875 -0.40857,-0.43581 -0.358,-0.57268 0.0859,-0.23274 l 0.40691,0.31159 0.77456,-0.51024 0.77456,-0.5102 -0.44386,-0.33221 c -0.24408,-0.18264 -0.50035,-0.54309 -0.5694,-0.80082 -0.23996,-0.89553 0.97096,-1.62791 1.45095,-0.87761 0.24421,0.38169 -0.0992,1.12169 -0.50162,1.08058 -0.23625,-0.0241 -0.23725,-0.003 -0.006,0.12799 0.2303,0.1299 0.35491,-5.5e-4 0.72438,-0.75814 0.24542,-0.50322 0.43988,-0.93946 0.43215,-0.96931 -0.008,-0.0299 -0.51218,-0.39014 -1.12098,-0.80056 z m -0.60519,4.23539 c -0.30149,0.28268 -0.24825,0.61061 0.10245,0.63167 0.16869,0.0102 0.40615,-0.77858 0.26325,-0.87415 -0.0343,-0.0229 -0.19894,0.086 -0.36571,0.24249 z m -1.54756,-5.84394 c -0.0908,-0.0275 -0.25122,0.11743 -0.35598,0.32173 -0.17841,0.34805 -0.16037,0.37651 0.28733,0.45138 0.60145,0.10056 0.81628,-0.10253 0.48365,-0.45728 -0.13722,-0.14634 -0.32399,-0.28852 -0.415,-0.31583 z m -0.81571,3.4722 c -0.15874,0.0425 -0.46046,0.0752 -0.66993,0.0749 -0.28235,-1.3e-4 -0.38501,0.0964 -0.39769,0.37251 -0.0279,0.61006 0.21315,0.66108 0.83733,0.17723 0.61391,-0.47588 0.71518,-0.75054 0.23034,-0.62468 z m -0.18302,2.4593 c -0.62901,-0.81452 -1.0307,-0.57099 -0.48779,0.29578 0.21688,0.34629 0.42797,0.49407 0.62868,0.44028 0.36425,-0.0976 0.36827,-0.0766 -0.14087,-0.73607 z m -1.9286,-4.16219 c -0.13301,0.42523 0.12992,1.17572 0.38764,1.10666 0.33435,-0.0895 0.28283,-1.38039 -0.0547,-1.37257 -0.1384,0.003 -0.28821,0.12265 -0.33289,0.26591 z m 0.33657,1.69323 c -0.0972,-0.006 -0.15016,0.216 -0.11782,0.49288 0.0634,0.54381 0.41797,1.15173 0.63744,1.09294 0.19252,-0.0517 -0.30595,-1.57297 -0.51958,-1.58581 z m 0.56693,2.92222 c -0.0292,-0.10925 -0.20163,-0.15877 -0.3831,-0.10997 -0.2509,0.0672 -0.30038,0.19833 -0.20679,0.54774 0.1032,0.38516 0.19262,0.44082 0.55304,0.34425 0.3243,-0.0869 0.38818,-0.17269 0.25995,-0.34923 -0.0935,-0.12874 -0.19395,-0.32343 -0.22321,-0.43263 z m -1.67757,-4.61152 c -0.16493,0.0442 -0.2032,0.23115 -0.11481,0.56099 0.21496,0.80228 0.54719,0.45526 0.39829,-0.41602 -0.0199,-0.11621 -0.14742,-0.18143 -0.28347,-0.14498 z m 0.34669,2.04291 c -0.0432,-0.0291 0.0231,0.32645 0.14721,0.78976 0.12412,0.46326 0.31619,0.86949 0.42678,0.9027 0.13639,0.0407 0.089,-0.21332 -0.14713,-0.78969 -0.19158,-0.46765 -0.38362,-0.87387 -0.42681,-0.90279 z m -0.27228,1.90694 c -0.28575,-0.086 -0.29752,-0.0313 -0.21286,0.99228 0.0732,0.88556 0.0846,0.90534 0.46482,0.80347 0.35718,-0.0958 0.37152,-0.17263 0.17143,-0.91931 -0.12009,-0.44818 -0.31062,-0.84259 -0.42337,-0.87644 z m -0.27444,-1.06813 c -0.0908,0.0243 -0.15606,0.0772 -0.14541,0.11692 0.0107,0.0398 0.10598,0.0986 0.2117,0.13048 0.10582,0.0314 0.17111,-0.021 0.14543,-0.11692 -0.0258,-0.0961 -0.12101,-0.15479 -0.21172,-0.13048 z m -0.48225,-2.03612 c -0.17131,-0.37793 -0.35741,-0.56703 -0.51612,-0.52449 -0.20042,0.0537 -0.18852,0.20845 0.0618,0.80351 0.17042,0.40542 0.33938,0.84712 0.37543,0.98162 0.0532,0.19871 0.10158,0.19363 0.2579,-0.0271 0.215,-0.3036 0.20193,-0.39357 -0.17888,-1.23364 z m -0.15882,2.77695 c -0.70093,0.63636 -1.3838,1.10239 -1.93676,1.32178 l -0.67279,0.26685 0.35544,0.39005 c 0.25751,0.28254 0.57293,0.38676 1.14483,0.37809 1.31146,-0.0198 1.4233,-0.0938 1.40176,-0.92729 -0.024,-0.92948 -0.15233,-1.55672 -0.29248,-1.42948 z m -0.7542,-2.26716 c -0.16491,-0.36988 -0.39068,-0.64655 -0.50301,-0.61645 -0.6722,0.18011 -1.87586,0.90274 -1.98862,1.19391 -0.17766,0.45851 -0.0675,0.5284 0.70621,0.44822 0.36031,-0.0371 1.05944,0.017 1.55378,0.12081 0.89803,0.18836 0.8986,0.18829 0.7148,-0.14343 -0.10117,-0.18261 -0.31855,-0.63395 -0.48316,-1.00306 z m -1.49015,-3.07354 c -0.093,0.0696 -0.26511,0.66022 -0.38261,1.31184 -0.22442,1.24535 -0.16991,1.26842 0.52527,0.22256 0.35099,-0.52797 0.39231,-0.73745 0.22762,-1.15327 -0.11973,-0.30229 -0.26974,-0.4567 -0.3703,-0.38112 z m -0.55886,4.98957 c -0.98251,0.0518 -1.07361,0.0845 -1.29215,0.46296 -0.23298,0.40352 -0.22982,0.41012 0.34928,0.72812 l 0.58435,0.3209 0.89406,-0.50786 c 0.49174,-0.27934 0.95734,-0.57512 1.03469,-0.65723 0.23903,-0.2538 -0.44975,-0.40594 -1.57023,-0.3469 z m 20.08749,-12.18476 c -0.0447,0.34628 -0.0583,0.3516 -0.25065,0.0978 -0.13088,-0.17269 -0.13299,-0.39058 -0.006,-0.61077 0.16305,-0.28247 0.2069,-0.29947 0.25065,-0.0978 0.0293,0.13452 0.0319,0.40934 0.006,0.61077 z m -1.8612,-5.71528 c -0.73522,1.13838 -2.04265,0.0969 -1.72137,-1.37141 l 0.12017,-0.54893 -1.00114,-0.2651 c -0.55069,-0.14548 -1.06649,-0.24838 -1.14644,-0.2278 -0.0797,0.0213 0.007,0.40424 0.19334,0.85269 0.30854,0.74281 0.30951,0.8123 0.0108,0.78014 -0.18032,-0.0194 -0.55607,-0.0209 -0.83505,-0.003 -0.44579,0.028 -0.48233,0.0657 -0.30119,0.31399 0.11332,0.15522 0.29457,0.46041 0.40277,0.67819 0.14358,0.289 0.31481,0.37461 0.63373,0.31688 0.97239,-0.17615 1.74995,0.91821 1.22733,1.72746 -0.47702,0.73856 -1.53158,0.39376 -1.17409,-0.38404 0.0978,-0.21275 0.22637,-0.26658 0.48996,-0.20492 0.40517,0.0946 0.4163,0.005 0.0481,-0.38799 -0.28371,-0.30257 -0.83235,-0.21673 -1.4469,0.22695 -0.38561,0.27823 -0.40028,0.27081 -0.43193,-0.21933 -0.0444,-0.68948 -0.51092,-1.69266 -0.71472,-1.53691 -0.74988,0.57316 -0.76785,0.57407 -0.48396,0.0243 0.21418,-0.41464 0.21828,-0.58355 0.0192,-0.79575 -0.33931,-0.36191 -1.88283,-1.16073 -2.90071,-1.50121 -0.454,-0.15182 -0.74852,-0.32695 -0.65446,-0.38904 0.212,-0.13996 3.39686,-0.31044 4.37806,-0.23436 l 0.722,0.0559 0.0898,-0.59152 0.0898,-0.59152 0.1723,0.57246 c 0.169,0.56165 0.20816,0.57894 2.069,0.91242 l 1.89672,0.3399 -0.45657,0.68832 c -0.25112,0.37854 -0.46502,0.82975 -0.47535,1.00261 -0.025,0.41809 0.24779,0.77322 0.53478,0.69631 0.18923,-0.0507 0.17822,-0.1112 -0.0608,-0.33433 -0.23954,-0.2235 -0.25831,-0.33076 -0.1045,-0.59719 0.10647,-0.1843 0.31938,-0.31085 0.49261,-0.29266 0.41089,0.0431 0.60806,0.8407 0.31863,1.28891 z m -5.75692,-2.57134 c -0.68542,-0.0183 -1.30874,-0.0162 -1.38514,0.004 -0.0765,0.0204 0.32879,0.34555 0.90043,0.72174 0.82143,0.54056 1.14614,0.65733 1.54888,0.55716 0.47398,-0.11764 0.49808,-0.16619 0.34584,-0.68837 -0.1607,-0.55113 -0.187,-0.56226 -1.41001,-0.59498 z m 7.15343,11.23928 -0.18435,0.57969 -0.12058,-0.44755 c -0.0753,-0.27942 -0.0147,-0.54702 0.16166,-0.71241 0.34668,-0.32505 0.38373,-0.17524 0.14351,0.58018 z m -1.07236,2.84049 -0.31587,0.50965 -0.0975,-0.36376 c -0.0974,-0.36364 0.16286,-0.68952 0.53291,-0.66735 0.10793,0.006 0.0541,0.24115 -0.11952,0.52148 z m -2.42454,-4.06178 c -0.16872,0.0961 -0.31564,0.14137 -0.32649,0.10086 -0.0108,-0.0404 0.086,-0.27301 0.21515,-0.51635 0.23486,-0.4422 0.23499,-0.44224 0.32646,-0.10086 0.0544,0.20301 -0.033,0.41259 -0.21513,0.51635 z m 0.52,6.72335 c -0.17531,0.16215 -0.34905,0.38812 -0.38611,0.50221 -0.10389,0.3201 -0.28236,0.12845 -0.28497,-0.30617 -0.002,-0.28793 0.12161,-0.42255 0.47316,-0.51681 0.57219,-0.1533 0.62239,-0.072 0.19792,0.32077 z m -1.82849,-5.00989 c -0.1814,0.0486 -0.34486,0.0323 -0.36338,-0.037 -0.0185,-0.0689 0.0899,-0.2577 0.24107,-0.41963 0.24042,-0.25761 0.28573,-0.25303 0.36341,0.037 0.0593,0.22126 -0.0207,0.36055 -0.2411,0.4196 z m -1.333,1.46192 c 0.0147,0.34127 -0.0861,0.39969 -0.47859,0.27714 -0.21249,-0.0664 -0.20292,-0.14373 0.0465,-0.37765 0.35903,-0.33662 0.41385,-0.32386 0.43208,0.10046 z m 0.65532,5.66786 c -0.0459,0.0795 -0.20087,0.17654 -0.34434,0.21554 -0.14361,0.0386 -0.44371,0.23879 -0.66721,0.44393 -0.22351,0.20511 -0.43689,0.38113 -0.47421,0.39114 -0.1036,0.0278 0.15835,-1.07111 0.28146,-1.18102 0.17082,-0.15239 1.29712,-0.0304 1.20427,0.1304 z m -2.53404,-4.24367 c -0.15619,0.38468 -0.16201,0.38608 -0.59431,0.13653 l -0.43658,-0.25206 0.57528,-0.22851 c 0.63838,-0.25349 0.6842,-0.21873 0.45562,0.3441 z m -0.71623,6.6438 c -0.19499,0.0589 -0.46111,0.17899 -0.58986,0.2724 -0.25683,0.18654 -0.34996,0.0303 -0.22331,-0.37441 0.0673,-0.21608 0.17409,-0.23822 0.6251,-0.13076 0.4855,0.11616 0.50571,0.14074 0.18799,0.23244 z m -2.09829,-6.61296 c -0.33864,0.246 -0.33746,0.24613 -0.64777,-0.0848 -0.25252,-0.26932 -0.24003,-0.29471 0.13907,-0.28249 0.5938,0.019 0.7916,0.16182 0.50874,0.36734 z m -9.64702,0.92915 c -0.069,0.26146 -0.0942,0.60167 -0.0564,0.75592 0.038,0.15424 2.2e-4,0.35337 -0.0838,0.44253 -0.10762,0.11429 -0.17209,-0.043 -0.21853,-0.53369 -0.053,-0.5594 -0.12994,-0.71203 -0.39245,-0.77865 -0.26553,-0.067 -0.21745,-0.12614 0.25647,-0.31428 0.65134,-0.25872 0.67095,-0.24192 0.4946,0.42817 z m 2.02887,10.76906 c -0.0271,0.007 -0.43833,-0.013 -0.91419,-0.0446 -0.6876,-0.0459 -0.81809,-0.10359 -0.6357,-0.28114 0.12626,-0.12288 0.31364,-0.19815 0.41654,-0.16707 0.10347,0.0308 0.15459,-0.25673 0.11455,-0.64368 -0.0967,-0.93263 0.12185,-1.12053 0.34304,-0.29502 0.0971,0.36229 0.29987,0.82964 0.45069,1.03863 0.15078,0.20892 0.25214,0.38585 0.22518,0.39307 z m -4.273,-9.15093 c -0.16948,0.85263 -0.90116,2.27112 -1.65928,3.21674 -0.3538,0.44135 -0.68611,0.81391 -0.73844,0.82793 -0.0523,0.0141 0.0179,-0.57806 0.156,-1.31574 0.13817,-0.73768 0.203,-1.70961 0.14421,-2.15976 -0.0588,-0.4502 -0.0488,-0.8341 0.0223,-0.85313 0.17127,-0.0458 0.71701,1.15791 0.64045,1.41271 -0.0326,0.10974 0.013,0.17979 0.10198,0.15594 0.27773,-0.0745 0.9907,-1.74337 0.95931,-2.24556 -0.0164,-0.26297 0.035,-0.4955 0.11439,-0.51677 0.23429,-0.0628 0.38945,0.82193 0.25913,1.47762 z m 0.87527,8.5197 c -0.0406,0.0704 -0.39723,-0.1473 -0.79244,-0.48373 -0.39523,-0.33643 -1.01973,-0.69659 -1.38781,-0.80038 l -0.66922,-0.18876 0.45813,0.30794 c 0.25198,0.16932 0.60333,0.46794 0.78074,0.66342 0.27916,0.30761 0.21373,0.29998 -0.48606,-0.0565 -1.00583,-0.51253 -2.29938,-0.97295 -3.36457,-1.19774 -0.44794,-0.0945 -0.78897,-0.21558 -0.75764,-0.27005 0.0312,-0.0538 0.59588,-0.1276 1.25478,-0.16366 2.81299,-0.1534 4.58974,0.3886 4.88487,1.49006 0.0842,0.31426 0.11986,0.62908 0.0792,0.6994 z"
         style="fill:#000000;stroke-width:0.0451741"
         id="path8094" />
    </g>
  </g>
</svg>
