<?xml version="1.0" encoding="UTF-8" standalone="no"?>
<!-- Created with Inkscape (http://www.inkscape.org/) -->

<svg
   width="41.008999mm"
   height="41.008999mm"
   viewBox="0 0 41.008999 41.008999"
   version="1.1"
   id="svg1"
   inkscape:version="1.4.2 (f4327f4, 2025-05-13)"
   sodipodi:docname="308.svg"
   xmlns:inkscape="http://www.inkscape.org/namespaces/inkscape"
   xmlns:sodipodi="http://sodipodi.sourceforge.net/DTD/sodipodi-0.dtd"
   xmlns="http://www.w3.org/2000/svg"
   xmlns:svg="http://www.w3.org/2000/svg">
  <sodipodi:namedview
     id="namedview1"
     pagecolor="#ffffff"
     bordercolor="#000000"
     borderopacity="0.25"
     inkscape:showpageshadow="2"
     inkscape:pageopacity="0.0"
     inkscape:pagecheckerboard="0"
     inkscape:deskcolor="#d1d1d1"
     inkscape:document-units="mm"
     inkscape:zoom="1.4513545"
     inkscape:cx="86.470947"
     inkscape:cy="71.657199"
     inkscape:window-width="1050"
     inkscape:window-height="1081"
     inkscape:window-x="857"
     inkscape:window-y="0"
     inkscape:window-maximized="0"
     inkscape:current-layer="layer1" />
  <defs
     id="defs1" />
  <g
     inkscape:label="Layer 1"
     inkscape:groupmode="layer"
     id="layer1"
     transform="translate(333.37504,1257.5646)">
    <g
       id="g37"
       transform="translate(-1237.9889,-1181.6571)">
      <circle
         style="fill:none;stroke:#0000ff;stroke-width:0.1;stroke-linecap:round;stroke-dasharray:none;stroke-opacity:1;paint-order:markers stroke fill"
         id="circle6693"
         cx="925.11841"
         cy="-70.414452"
         r="2" />
      <circle
         style="fill:none;stroke:#ff0000;stroke-width:0.1;stroke-dasharray:none"
         id="circle6703"
         cx="925.11841"
         cy="-55.403038"
         r="19.954653" />
      <path
         d="m 922.45613,-36.17456 c -1.26918,-0.32959 -2.4004,-0.92842 -3.05295,-1.61608 -1.21525,-1.28066 -1.9431,-4.3312 -1.22326,-5.12663 0.42285,-0.46717 0.83371,-0.48859 1.42526,-0.0742 0.24464,0.17137 0.48054,0.27586 0.5242,0.2322 0.22481,-0.22477 -0.42452,-1.68596 -0.98328,-2.21297 -0.61524,-0.58021 -1.11395,-0.76739 -3.35165,-1.25784 -0.56165,-0.12309 -1.0211,-0.29339 -1.0211,-0.37844 0,-0.085 0.32816,-0.0784 0.72938,0.0148 0.40117,0.0931 1.01456,0.17147 1.36315,0.17401 l 0.63383,0.004 -0.58525,-1.03687 c -0.82126,-1.45522 -0.76562,-2.04627 0.0751,-0.79787 1.37013,2.03445 2.93395,2.87951 4.47461,2.41793 0.95082,-0.28489 1.78248,-1.14019 1.9436,-1.99887 0.29508,-1.57311 -1.05371,-3.88926 -2.70209,-4.63999 -1.06858,-0.48665 -2.46245,-0.47672 -2.9127,0.0207 -0.50709,0.56036 -0.32014,2.10109 0.37696,3.10707 0.53636,0.77391 1.82834,1.56636 2.55382,1.56636 0.61177,0 1.24612,-0.5567 1.24612,-1.09357 0,-1.09515 -0.5795,-1.56049 -2.43121,-1.95207 l -1.16701,-0.2468 1.52666,0.0463 c 1.48927,0.0452 1.54292,0.064 2.18814,0.76811 0.86355,0.94232 0.88378,1.70207 0.0669,2.51878 -0.54493,0.54493 -0.67319,0.585 -1.54272,0.48203 -2.25669,-0.26728 -3.97725,-1.96657 -4.13514,-4.08395 l -0.0493,-0.65833 -0.91484,0.77111 c -0.68619,0.57827 -1.13769,0.79621 -1.80578,0.87149 -0.87251,0.0983 -0.88368,0.10831 -0.54385,0.48416 0.19086,0.21108 0.74087,0.5973 1.22223,0.85829 l 0.87524,0.47455 -1.04242,-0.0997 c -0.57338,-0.0549 -1.34137,-0.27606 -1.70679,-0.49163 l -0.66427,-0.39198 0.2212,0.41339 c 0.12166,0.22736 0.57266,0.79463 1.00219,1.26058 1.1102,1.20443 0.58339,1.04982 -0.80604,-0.23657 -0.70582,-0.6534 -1.35956,-1.4837 -1.64633,-2.0909 -0.45093,-0.95479 -1.14614,-3.25788 -1.02114,-3.38288 0.0323,-0.032 0.5403,0.42369 1.1295,1.01285 0.9375,0.93756 1.16716,1.07118 1.84068,1.07118 0.51958,0 1.06607,-0.18811 1.68285,-0.57923 0.5023,-0.31857 0.9128,-0.60304 0.91214,-0.63214 0,-0.0291 -0.42388,-0.0611 -0.94052,-0.0711 -2.46459,-0.0477 -4.13985,-2.34368 -3.87132,-5.30562 0.1227,-1.353 0.78217,-2.7187 1.94178,-4.02105 2.19749,-2.46813 2.67673,-3.18342 2.67673,-3.99491 0,-1.03663 -0.73779,-1.8352 -1.51517,-1.64008 -0.49453,0.12411 -0.80922,0.40668 -0.81584,0.73261 0,0.0802 0.28662,0.14586 0.64059,0.14586 0.90273,0 1.3663,0.39686 1.3663,1.16978 0,1.85368 -2.60088,1.69427 -3.57712,-0.21924 -0.6661,-1.30569 -0.37542,-2.53949 0.85222,-3.61736 1.19877,-1.05257 2.93174,-1.30341 4.81132,-0.69641 2.63653,0.8515 3.3121,3.40613 1.74343,6.59257 -0.32353,0.65707 -0.58817,1.29334 -0.58817,1.41393 0,0.32887 0.52187,0.26505 2.19038,-0.26783 3.08979,-0.98677 6.65476,-1.01665 9.77147,-0.0819 1.61235,0.48358 2.62572,0.66558 2.62572,0.47155 0,-0.077 -0.30824,-0.76492 -0.68507,-1.52867 -1.56889,-3.17986 -0.99067,-5.57176 1.57944,-6.53334 2.99001,-1.11874 6.09555,0.41024 6.1038,3.00518 0.007,1.377 -0.9923,2.52782 -2.38491,2.75381 -0.52827,0.0858 -0.77085,0.0189 -1.09034,-0.30064 -0.86612,-0.86613 -0.30787,-2.16141 0.93155,-2.16141 0.4846,0 0.61656,-0.0753 0.56825,-0.32426 -0.0345,-0.17834 -0.30638,-0.40538 -0.60403,-0.50453 -1.18965,-0.39636 -2.03711,1.01428 -1.44304,2.40199 0.15619,0.36497 1.00908,1.49392 1.89535,2.50881 1.99548,2.28521 2.57729,3.47126 2.57729,5.25406 0,2.32054 -1.12851,4.05177 -3.04079,4.6648 -0.4107,0.13166 -1.00152,0.18846 -1.31284,0.1262 -0.31134,-0.0623 -0.56614,-0.0808 -0.56614,-0.0411 0,0.0397 0.42345,0.34381 0.94096,0.6759 1.54274,0.98997 2.46466,0.81785 3.88013,-0.72448 l 0.83388,-0.90852 -0.13058,0.77801 c -0.34721,2.06959 -1.52818,4.1749 -2.95166,5.26183 -1.28603,0.98194 -1.38682,0.81996 -0.25818,-0.41497 0.54562,-0.59699 0.99198,-1.15399 0.99198,-1.23781 0,-0.0838 -0.40867,0.0546 -0.90817,0.30743 -0.52901,0.26782 -1.23965,0.45657 -1.7019,0.45206 l -0.79372,-0.008 0.6808,-0.34265 c 1.00697,-0.50689 1.75046,-1.02515 1.75046,-1.22023 0,-0.0947 -0.26831,-0.17214 -0.59624,-0.17214 -0.76071,0 -1.26618,-0.26309 -2.17538,-1.13221 -0.6317,-0.60386 -0.7294,-0.64459 -0.7294,-0.30408 0,1.00013 -0.63072,2.4551 -1.37923,3.18153 -0.76725,0.74453 -2.15184,1.36678 -3.04135,1.36678 -0.72352,0 -1.53208,-0.51179 -1.78923,-1.1326 -0.19127,-0.46183 -0.1804,-0.69809 0.0581,-1.26918 0.43438,-1.03954 1.30903,-1.49083 2.84515,-1.46798 l 1.26428,0.0189 -1.25214,0.27376 c -1.29008,0.28207 -2.15164,0.70943 -2.15164,1.06729 0,0.11229 0.21988,0.0312 0.48857,-0.18017 0.58817,-0.46267 1.1687,-0.35605 1.59382,0.29275 0.42343,0.64629 0.0875,1.34932 -0.76188,1.59427 -0.35191,0.10145 -0.48379,0.19238 -0.2931,0.20203 0.4615,0.0234 1.68761,-0.49848 2.14678,-0.91375 1.06784,-0.96562 1.5689,-3.3051 0.82451,-3.8496 -0.47731,-0.34912 -1.87487,-0.35632 -2.6921,-0.0138 -2.18838,0.91707 -3.5321,3.89306 -2.52647,5.59551 0.45151,0.76439 1.8223,1.41815 2.68122,1.27877 1.13657,-0.18445 2.05636,-0.74932 2.78987,-1.71336 0.38968,-0.51223 0.86524,-1.13238 1.05667,-1.37812 l 0.34808,-0.44681 -0.12137,0.48626 c -0.0669,0.26743 -0.373,0.902 -0.68042,1.41015 l -0.55908,0.92386 0.62413,-0.004 c 0.34321,-0.002 0.95228,-0.0809 1.35343,-0.17402 0.40116,-0.0931 0.72939,-0.097 0.72939,-0.008 0,0.19484 -0.33456,0.29839 -1.81466,0.56154 -0.62359,0.11089 -1.46664,0.38866 -1.87346,0.61727 -0.78467,0.44103 -1.56345,1.59418 -1.56345,2.31508 0,0.41606 0.019,0.42085 0.47944,0.11938 1.09983,-0.72065 1.74172,-0.22041 1.70101,1.32574 -0.0617,2.35719 -1.56618,4.50575 -3.68893,5.2693 -1.21288,0.43629 -4.84249,0.56526 -6.17429,0.2194 z m 3.93866,-1.61406 c 0.56162,-0.0675 1.02115,-0.19798 1.02115,-0.29005 0,-0.0921 -0.12497,-0.16742 -0.27766,-0.16742 -0.4893,0 -1.08385,-0.97459 -1.08385,-1.77675 0,-1.39611 1.54847,-2.12133 2.24835,-1.05304 0.56318,0.8595 -0.17289,1.83533 -1.19154,1.57968 -0.38257,-0.096 -0.441,-0.0566 -0.33648,0.22657 0.18564,0.50285 0.45205,0.62824 1.34175,0.63156 1.02925,0.004 1.97719,-0.62919 2.58155,-1.72398 l 0.46188,-0.83662 -0.59812,0.3093 c -0.78056,0.40365 -1.26125,0.3909 -1.65468,-0.0439 -0.51355,-0.56751 -0.59325,-1.46154 -0.2282,-2.56066 0.183,-0.55078 0.30185,-1.02372 0.26422,-1.051 -0.0375,-0.0272 -0.46233,-0.16195 -0.94375,-0.29932 -0.57943,-0.16534 -1.15194,-0.53707 -1.69389,-1.0999 -0.45025,-0.4676 -0.76421,-0.69921 -0.6977,-0.51471 0.21915,0.60804 0.79505,1.31775 1.27971,1.57718 l 0.47701,0.25526 -0.62727,1.04168 c -0.345,0.57291 -0.73484,1.46146 -0.86626,1.97453 -0.13145,0.51306 -0.32105,1.10789 -0.42131,1.32184 -0.27986,0.59702 -0.0397,-2.39475 0.2656,-3.31374 0.23312,-0.70077 0.21768,-0.84616 -0.16966,-1.60045 l -0.4261,-0.82966 -0.41908,0.86573 c -0.40109,0.82852 -0.40609,0.90953 -0.11608,1.88608 0.16666,0.56122 0.29832,1.55154 0.29259,2.2007 l -0.0104,1.18035 -0.44299,-1.49689 c -0.24369,-0.82327 -0.686,-1.86401 -0.98299,-2.31274 l -0.53987,-0.81588 0.60822,-0.476 c 0.33448,-0.26183 0.73778,-0.72654 0.89613,-1.03275 0.44321,-0.85707 0.34155,-0.93984 -0.19127,-0.15573 -0.4949,0.72831 -1.85143,1.52469 -2.59706,1.52469 -0.50481,0 -0.5065,0.0114 -0.13306,0.90528 0.86886,2.07942 -0.30839,3.92441 -1.82583,2.86152 -0.44202,-0.30961 -0.44996,-0.30588 -0.30954,0.14588 0.39989,1.28639 1.57081,2.11687 2.98452,2.11687 0.58244,0 0.8434,-0.099 0.99174,-0.37621 0.28069,-0.52437 0.26929,-0.53888 -0.35078,-0.44789 -0.66045,0.097 -1.19834,-0.36257 -1.19834,-1.02366 0,-0.61375 0.49047,-1.06976 1.15077,-1.06976 0.76204,0 1.2716,0.64028 1.2716,1.59762 0,0.67192 -0.10974,0.88345 -0.74254,1.43043 l -0.74255,0.6419 0.74696,0.0773 c 1.33493,0.13822 1.89684,0.1414 2.93513,0.0167 z m 2.41429,-10.43615 c -0.11571,-0.13947 -0.29596,-0.4677 -0.4005,-0.72936 -0.18078,-0.4527 -0.19061,-0.45523 -0.2023,-0.0521 -0.007,0.23305 0.12518,0.56128 0.2933,0.72938 0.36883,0.36879 0.60539,0.40857 0.3095,0.0521 z m -2.8656,-3.36949 c 0.27208,-0.59419 0.93575,-1.63472 1.47489,-2.31227 0.53914,-0.67754 0.9006,-1.28114 0.80328,-1.34127 -0.5343,-0.33025 -3.11751,-0.49838 -4.58021,-0.2981 -0.85979,0.11773 -1.63071,0.25569 -1.71305,0.30659 -0.0824,0.0508 0.30185,0.63487 0.85379,1.29771 1.22043,1.46575 1.87661,2.84597 2.17324,4.57145 l 0.22377,1.30174 0.13481,-1.22272 c 0.0742,-0.6725 0.35749,-1.70891 0.62948,-2.30313 z m 4.13089,2.73277 c 0.15606,-0.40672 -0.363,-0.90781 -0.77614,-0.74926 -0.32515,0.12478 -0.44298,0.68001 -0.19665,0.92643 0.24245,0.24239 0.85459,0.13088 0.97279,-0.17717 z m -8.67563,-4.70159 c -0.10769,-0.18721 -0.35146,-0.5303 -0.54172,-0.76244 -0.33374,-0.40725 -0.37271,-0.41117 -1.10938,-0.11146 l -0.76358,0.31061 1.2498,0.42406 c 0.68742,0.23325 1.2747,0.43659 1.30522,0.45186 0.0309,0.0154 -0.0323,-0.12542 -0.14034,-0.31263 z m 9.07768,-0.85413 c -0.68962,-0.35752 -0.86466,-0.28757 -1.4948,0.59741 l -0.36117,0.50721 1.24258,-0.38921 1.24258,-0.38921 z m -14.34432,0.2235 c 0.85847,-0.45947 0.95013,-2.41228 0.17305,-3.69005 l -0.38993,-0.64117 -0.32205,0.45983 c -0.17715,0.2529 -0.51693,1.11769 -0.75504,1.92174 l -0.433,1.4619 -0.008,-1.16701 c -0.007,-0.8526 0.12367,-1.45092 0.48203,-2.22083 0.30354,-0.65215 0.42137,-1.123 0.30904,-1.2353 -0.27921,-0.27925 -1.23913,0.008 -2.43746,0.72972 -0.8373,0.5042 -1.04158,0.56997 -0.88985,0.28653 0.22716,-0.4244 1.89154,-1.73936 2.21148,-1.74713 0.11835,-0.003 -0.0912,-0.2734 -0.46557,-0.60119 -0.37446,-0.32777 -0.52437,-0.54573 -0.33316,-0.48436 0.19115,0.0614 0.8304,0.25197 1.4205,0.4235 1.88609,0.54833 2.11098,-0.0379 0.43187,-1.1259 -1.11217,-0.72067 -0.92933,-0.93431 0.37366,-0.43669 0.86186,0.32917 0.90104,0.32823 1.1648,-0.0276 0.35059,-0.47292 0.17981,-1.37658 -0.37085,-1.96277 -0.6817,-0.72558 -0.29128,-0.69608 0.57257,0.0434 l 0.79806,0.68314 0.30528,-0.43586 c 0.61258,-0.87461 0.22179,-2.08766 -0.96402,-2.99215 -0.88957,-0.67848 -0.74131,-0.79694 0.37792,-0.30186 1.07851,0.47708 1.20318,0.18775 0.33675,-0.78186 -0.48489,-0.54272 -0.70483,-0.63159 -1.75047,-0.70722 -0.65779,-0.0476 -1.19589,-0.13198 -1.19589,-0.18756 0,-0.0556 0.15313,-0.21732 0.34036,-0.35943 0.30721,-0.23322 0.28354,-0.25888 -0.24311,-0.26349 -0.98616,-0.008 -2.00511,0.37033 -2.42246,0.90091 -0.59624,0.75799 -0.52559,1.16558 0.11462,0.66194 0.80812,-0.63566 1.73003,-0.53356 2.5455,0.28192 0.6475,0.64756 0.68029,0.74257 0.5978,1.73649 -0.0915,1.10274 -0.0647,1.05836 -2.11392,3.51077 -1.28388,1.53646 -1.95843,2.99474 -2.07877,4.49398 -0.0813,1.01339 -0.0242,1.32755 0.36617,2.02332 0.81163,1.44541 3.07876,2.37868 4.25253,1.75052 z m 21.05502,-0.507 c 1.15805,-0.81389 1.57458,-1.62421 1.56127,-3.03719 -0.0148,-1.56262 -0.97912,-3.51073 -2.67334,-5.40012 -1.89294,-2.11108 -2.16562,-3.72726 -0.80394,-4.76583 0.83465,-0.63664 1.6713,-0.63197 2.43847,0.0136 0.69418,0.58412 0.75725,0.44015 0.20445,-0.46663 -0.44645,-0.7322 -1.40307,-1.20391 -2.44156,-1.20391 h -0.7086 l 0.45916,0.38253 0.45924,0.38253 -1.0308,0.006 c -1.24265,0.007 -2.0698,0.39913 -2.46692,1.16712 -0.16233,0.3138 -0.29508,0.61025 -0.29508,0.65876 0,0.0485 0.43761,-0.0781 0.97249,-0.28129 0.53488,-0.20324 0.97249,-0.28235 0.97249,-0.1758 0,0.10652 -0.0741,0.1937 -0.16466,0.1937 -0.0905,0 -0.47674,0.30311 -0.85818,0.67358 -0.85504,0.83035 -1.05865,1.61033 -0.6345,2.43052 l 0.31236,0.60398 0.83842,-0.68705 c 1.03256,-0.84612 1.2894,-0.88276 0.62111,-0.0886 -0.51871,0.61648 -0.71014,1.97394 -0.31296,2.21942 0.10483,0.0648 0.58928,-0.0175 1.07661,-0.18302 1.27285,-0.43217 1.68768,-0.38018 0.87235,0.10934 -1.41916,0.85201 -2.00871,1.72938 -1.16215,1.72938 0.21664,0 0.89193,-0.17506 1.5006,-0.38901 1.43181,-0.50323 1.64991,-0.49116 0.87783,0.0486 -0.73808,0.5159 -0.76889,0.64287 -0.22658,0.9331 0.539,0.28845 1.92778,1.54975 1.92778,1.75077 0,0.0873 -0.44165,-0.13849 -0.98145,-0.50173 -1.02469,-0.68959 -2.22904,-1.04308 -2.52958,-0.74252 -0.1043,0.10432 0.0104,0.54198 0.28201,1.07914 0.53444,1.05562 0.84135,3.0101 0.52282,3.3287 -0.15202,0.15202 -0.21128,0.066 -0.21128,-0.30659 0,-0.59685 -0.64704,-2.4198 -1.05614,-2.97535 -0.26297,-0.35719 -0.2992,-0.33052 -0.67632,0.49789 -0.53686,1.17905 -0.53142,2.51245 0.0132,3.20454 0.38484,0.48929 0.50753,0.52675 1.46555,0.4473 0.74564,-0.0618 1.27801,-0.25009 1.85605,-0.65633 z m -17.7691,-1.17584 c -0.12703,-0.1531 -0.54576,-0.52767 -0.93044,-0.83235 l -0.69948,-0.55398 v 1.40486 1.40488 l 0.93053,-0.57253 c 0.76255,-0.46921 0.88876,-0.62276 0.69939,-0.85088 z m 13.06182,1.11064 c -0.25876,-0.48348 -0.2581,-1.58881 0,-2.27122 0.17724,-0.4661 0.0738,-0.41256 -0.82165,0.42497 -0.56339,0.52701 -0.99131,1.00195 -0.95095,1.05544 0.0698,0.0922 1.79967,1.13647 1.91714,1.15724 0.0309,0.005 -0.0352,-0.15952 -0.14593,-0.36643 z m 0.38212,-4.33022 c 0,-0.36979 -0.40483,-0.9189 -0.97876,-1.3276 l -0.59057,-0.42051 -0.64552,0.49232 c -0.61649,0.47025 -0.65029,0.56365 -0.75439,2.08227 -0.14606,2.13017 -0.52929,2.53115 -0.53877,0.56369 l -0.007,-1.44904 -0.48959,0.58351 c -0.26927,0.32093 -0.65221,0.88984 -0.85084,1.26426 l -0.36124,0.68076 0.90216,0.30711 0.90213,0.3071 1.70623,-1.4511 c 0.93839,-0.79812 1.70614,-1.53287 1.70614,-1.63277 z m -11.06051,2.73062 c 0.41356,-0.12389 0.75195,-0.28908 0.75195,-0.367 0,-0.26236 -1.26185,-2.00886 -1.50739,-2.08639 -0.17752,-0.056 -0.24647,0.28201 -0.25543,1.25235 -0.0104,1.09191 -0.0471,1.24231 -0.2082,0.84282 -0.10768,-0.26743 -0.24641,-1.08016 -0.30825,-1.80606 -0.098,-1.15138 -0.18502,-1.381 -0.68196,-1.79913 -0.31331,-0.26363 -0.64031,-0.47934 -0.72659,-0.47934 -0.34573,0 -1.57236,1.57492 -1.42363,1.8279 0.22573,0.38404 3.17042,2.84013 3.40508,2.84013 0.11136,0 0.54083,-0.10134 0.95442,-0.22528 z m 5.40058,-1.19892 c 0.21112,-0.33994 0.73953,-0.96404 1.17413,-1.3869 0.85972,-0.83639 0.86687,-0.85123 0.60787,-1.26055 -0.14312,-0.22614 -0.34778,-0.13854 -1.08209,0.46321 -0.49812,0.40814 -1.22207,1.16585 -1.60874,1.6838 -0.38669,0.51796 -0.73799,0.90675 -0.78079,0.86398 -0.0426,-0.0428 0.25025,-0.70187 0.65109,-1.46468 0.47072,-0.8958 1.10012,-1.71785 1.77732,-2.32145 l 1.0485,-0.93452 -0.73806,-0.12186 c -0.57103,-0.0943 -0.79665,-0.0453 -0.99697,0.21626 -0.4743,0.61955 -1.45415,2.6587 -1.79803,3.7419 -0.19246,0.60607 -0.38294,0.9433 -0.43947,0.77801 -0.0551,-0.16047 -0.20605,-0.64185 -0.33587,-1.06975 -0.2953,-0.97365 -1.1884,-2.77269 -1.67418,-3.37261 -0.31101,-0.38414 -0.47716,-0.43332 -1.081,-0.32007 l -0.71343,0.13386 1.12532,1.04187 c 0.63816,0.59081 1.39776,1.553 1.75466,2.22257 0.69668,1.30711 0.73255,2.03556 0.0455,0.92386 -0.4558,-0.73746 -2.45906,-2.67176 -2.7671,-2.67176 -0.35675,0 -0.16731,0.72106 0.30648,1.16611 0.26693,0.25078 0.79121,0.90059 1.16517,1.44407 l 0.67984,0.98811 1.648,-0.0627 c 1.61434,-0.0614 1.65573,-0.0754 2.03182,-0.68075 z m -0.88642,-3.90553 c 0.78813,-0.83563 0.68587,-0.89431 -1.55786,-0.89431 h -1.65388 l 0.76025,0.86377 c 0.41821,0.47504 0.87464,1.24089 1.0144,1.70186 l 0.25405,0.83815 0.26905,-0.91286 c 0.14806,-0.50209 0.55929,-1.22055 0.91399,-1.59661 z m -5.90473,0.22408 c 0,-0.40272 -0.0257,-0.4077 -0.66861,-0.11464 -0.60992,0.27789 -0.62308,0.43512 -0.0581,0.69067 0.47936,0.21675 0.72116,0.0251 0.72636,-0.57603 z m 10.20014,0.5307 c 0.40983,-0.31006 0.40393,-0.32789 -0.21613,-0.65022 -0.58194,-0.30249 -0.58884,-0.29744 -0.49196,0.36264 0.0965,0.65711 0.17659,0.68965 0.70809,0.28758 z m -10.66953,12.43838 c -0.38784,-0.38785 -0.39541,-1.32273 -0.0132,-1.63986 0.42873,-0.35582 1.29178,-0.29574 1.58889,0.11059 0.80092,1.0953 -0.62528,2.47954 -1.57557,1.52927 z m 1.30516,-0.521 c 0.12459,-0.34743 -0.21299,-0.92388 -0.54099,-0.92388 -0.32809,0 -0.66565,0.57645 -0.54105,0.92388 0.0478,0.13372 0.29141,0.24314 0.54105,0.24314 0.24958,0 0.49304,-0.10942 0.54099,-0.24314 z"
         style="fill:#000000;stroke-width:0.0514618"
         id="path8300" />
    </g>
  </g>
</svg>
