<?xml version="1.0" encoding="UTF-8" standalone="no"?>
<!-- Created with Inkscape (http://www.inkscape.org/) -->

<svg
   width="41.008999mm"
   height="41.008999mm"
   viewBox="0 0 41.008999 41.008999"
   version="1.1"
   id="svg1"
   inkscape:version="1.4.2 (f4327f4, 2025-05-13)"
   sodipodi:docname="309.svg"
   xmlns:inkscape="http://www.inkscape.org/namespaces/inkscape"
   xmlns:sodipodi="http://sodipodi.sourceforge.net/DTD/sodipodi-0.dtd"
   xmlns="http://www.w3.org/2000/svg"
   xmlns:svg="http://www.w3.org/2000/svg">
  <sodipodi:namedview
     id="namedview1"
     pagecolor="#ffffff"
     bordercolor="#000000"
     borderopacity="0.25"
     inkscape:showpageshadow="2"
     inkscape:pageopacity="0.0"
     inkscape:pagecheckerboard="0"
     inkscape:deskcolor="#d1d1d1"
     inkscape:document-units="mm"
     inkscape:zoom="1.4513545"
     inkscape:cx="86.470947"
     inkscape:cy="71.657199"
     inkscape:window-width="1050"
     inkscape:window-height="1081"
     inkscape:window-x="857"
     inkscape:window-y="0"
     inkscape:window-maximized="0"
     inkscape:current-layer="layer1" />
  <defs
     id="defs1" />
  <g
     inkscape:label="Layer 1"
     inkscape:groupmode="layer"
     id="layer1"
     transform="translate(333.37504,1257.5646)">
    <g
       id="g36"
       transform="translate(-1280.1887,-1181.6571)">
      <path
         style="fill:#000000;stroke-width:0.181532"
         d="m 970.66832,-36.60889 c -0.4981,-0.34891 -0.5352,-1.17573 -0.072,-1.59536 0.4143,-0.37498 0.7449,-0.37966 1.2614,-0.0179 0.3883,0.27199 0.4033,0.26347 0.4005,-0.22691 0,-0.75217 -0.707,-1.86174 -1.6196,-2.55781 l -0.8037,-0.61294 -0.221,0.87058 c -0.1276,0.50114 -0.414,1.0366 -0.6759,1.26183 -0.9601,0.82585 -2.7125,0.69762 -3.805,-0.2784 -0.469,-0.41907 -0.5787,-0.65556 -0.5787,-1.24732 0,-0.46023 0.1263,-0.86981 0.3417,-1.10777 0.6255,-0.69124 1.9192,-0.33392 1.9192,0.53009 0,0.436 -0.4755,0.90768 -0.9149,0.90768 -0.4873,0 -0.2585,0.49173 0.3833,0.82361 0.7527,0.38923 1.3391,0.32642 1.9789,-0.21194 0.5036,-0.42372 0.5614,-0.56992 0.5131,-1.29752 -0.033,-0.50075 -0.1604,-0.87485 -0.3265,-0.9609 -0.1499,-0.0774 -1.0767,-0.52032 -2.0596,-0.98405 -2.1756,-1.02642 -3.1915,-1.97272 -3.9579,-3.68642 -0.6674,-1.49235 -0.6041,-1.38922 -1.6496,-2.68566 -2.41914,-2.99988 -3.00563,-5.86806 -1.88229,-9.20479 0.34378,-1.02089 0.38889,-1.3976 0.26106,-2.1784 -0.20222,-1.2342 0.0944,-3.1768 0.65511,-4.28192 0.23969,-0.47323 0.77807,-1.16951 1.19622,-1.54729 1.4099,-1.27375 1.9748,-1.37152 6.6367,-1.14891 3.3454,0.15974 4.8794,0.71226 6.2268,2.24286 1.4447,1.64129 1.6298,3.7198 0.5415,6.08119 -0.5525,1.19903 -0.5528,1.20202 -0.2552,2.07873 0.7198,2.11965 0.5491,4.3711 -0.664,8.7599 -1.1416,4.13008 -1.162,6.61863 -0.062,7.65124 0.6022,0.56574 1.9704,0.71803 2.4612,0.27395 0.1972,-0.17851 0.3585,-0.40625 0.3585,-0.50608 0,-0.0998 -0.1562,-0.0402 -0.347,0.13254 -0.897,0.81186 -2.0694,-0.22573 -1.4035,-1.24214 0.234,-0.3571 0.4589,-0.46789 0.9498,-0.46789 0.849,0 1.2476,0.23351 1.5195,0.89005 0.1721,0.41514 0.1757,0.68757 0.015,1.17203 -0.2977,0.90207 -0.9397,1.26687 -2.0431,1.16083 -2.3413,-0.22495 -4.2238,-3.18438 -3.8809,-6.10125 0.1207,-1.0229 0.4455,-2.03918 1.6929,-5.29064 0.4023,-1.04834 0.7889,-2.23285 0.8593,-2.63221 l 0.1277,-0.72615 -0.4271,0.39979 c -0.2348,0.21988 -0.7403,0.53072 -1.1233,0.69076 -0.659,0.27532 -0.7369,0.27092 -1.4497,-0.0817 -0.4145,-0.20503 -0.7795,-0.29514 -0.8111,-0.20024 -0.032,0.0949 -0.328,0.52364 -0.6586,0.95276 l -0.601,0.78022 0.6132,0.68126 c 0.3373,0.3747 0.6132,0.8671 0.6132,1.09419 0,0.49573 -0.4261,1.14364 -0.9291,1.41287 -0.4942,0.26452 -1.2493,-0.22164 -1.2493,-0.80444 0,-0.55777 0.6074,-1.09577 1.0936,-0.96864 0.4969,0.12991 0.3839,-0.20029 -0.2236,-0.65386 -0.4572,-0.3413 -0.6577,-0.37207 -4.909,-0.75304 -1.2533,-0.11228 -1.2681,-0.0626 -0.4638,1.55108 0.4504,0.90379 1.1134,1.69044 2.9695,3.52349 1.7993,1.77693 2.5134,2.61786 2.8906,3.40401 0.3464,0.72212 0.7603,1.23546 1.3418,1.66465 1.7255,1.27347 2.5653,2.49848 2.5653,3.74178 0,0.79678 -0.2978,1.25595 -1.0072,1.5523 -0.7679,0.32089 -0.8189,0.31989 -1.3123,-0.0257 z m -3.6837,-7.75627 c -0.6558,-0.62071 -1.703,-1.48249 -2.327,-1.91508 l -1.1344,-0.78653 0.3036,0.58716 c 0.4459,0.86226 1.9027,2.24822 2.9188,2.77677 1.4362,0.74708 1.5106,0.54094 0.239,-0.66232 z m -2.4584,-8.9468 c -2.1025,-1.04942 -3.2993,-2.47178 -3.8084,-4.52598 l -0.22482,-0.90767 -0.0153,0.93023 c -0.0389,2.2988 1.33272,3.96621 3.94852,4.8028 1.5166,0.48502 1.5388,0.41869 0.1,-0.29938 z m 4.2426,-1.44103 c 1.0241,-0.94789 1.984,-1.72345 2.1329,-1.72345 0.3341,0 0.9968,0.6408 0.9968,0.96373 0,0.35771 -0.408,0.81025 -0.8167,0.906 -0.24,0.0562 -0.1705,0.0922 0.2047,0.10604 0.3121,0.0111 0.6633,-0.0942 0.7801,-0.23505 0.3366,-0.40555 0.4435,-1.5041 0.2028,-2.08508 l -0.2203,-0.53187 -0.6652,0.28357 c -0.7943,0.33858 -2.7532,0.77665 -2.7523,0.6155 5e-4,-0.0624 0.3665,-0.26406 0.8135,-0.4479 0.9881,-0.40631 1.7685,-0.99533 1.6254,-1.22677 -0.058,-0.0937 -0.5284,-0.38243 -1.0455,-0.64153 -0.517,-0.25908 -1.0801,-0.5942 -1.2511,-0.74469 -0.1856,-0.1633 -0.4418,-0.22222 -0.6354,-0.14613 -0.276,0.10853 -0.2434,0.16363 0.2203,0.37034 0.5427,0.24205 0.5414,0.2429 -0.4085,0.2576 -0.5242,0.008 -0.9531,-0.0559 -0.9531,-0.14231 0,-0.0863 0.1771,-0.38223 0.3936,-0.65744 0.3186,-0.40499 0.3523,-0.55673 0.177,-0.79599 -0.405,-0.55272 -0.9517,-1.83967 -1.1675,-2.74821 -0.118,-0.49817 -0.3137,-0.90576 -0.4342,-0.90576 -0.3184,0 -2.2688,1.85946 -2.6665,2.54201 l -0.3393,0.58238 0.551,-0.12103 c 0.8242,-0.18101 1.9403,0.19167 2.4743,0.82618 0.6212,0.73839 0.6179,1.59088 -0.014,2.33631 -0.2621,0.31141 -0.5036,0.53919 -0.5366,0.50619 -0.033,-0.033 0.049,-0.37471 0.1806,-0.75938 0.2368,-0.68905 0.1985,-1.37435 -0.078,-1.37435 -0.078,0 -0.1902,0.12811 -0.2503,0.28462 -0.1235,0.32313 -0.9338,0.28611 -1.8302,-0.0836 -0.4653,-0.19192 -0.571,-0.17885 -0.7716,0.0953 -0.5127,0.70128 -0.1775,2.20154 0.8011,3.58501 0.4694,0.66385 2.9716,2.79021 3.3234,2.82438 0.05,0.004 0.9288,-0.76673 1.9531,-1.71463 z m -2.7999,-0.39261 c 0.067,-0.0668 0,-0.26142 -0.1602,-0.43252 -0.263,-0.29062 -0.2241,-0.30496 0.5896,-0.2175 0.4791,0.0515 0.8993,0.11755 0.9334,0.14685 0.093,0.0798 -1.0087,0.6246 -1.2634,0.6246 -0.1208,0 -0.1662,-0.0547 -0.1,-0.12145 z m -1.985,-4.67065 c -0.054,-0.13957 0.075,-0.41495 0.287,-0.61194 l 0.3846,-0.35815 -0.5084,0.082 c -1.0055,0.16234 -1.0472,0.21087 -0.5944,0.69272 0.4827,0.514 0.5685,0.5528 0.4312,0.19533 z m 0.9843,-0.0489 c -0.089,-0.45543 -0.5124,-0.51796 -0.5124,-0.0755 0,0.22298 0.1166,0.3782 0.2855,0.3782 0.1692,0 0.2617,-0.12353 0.2269,-0.30264 z m 7.7473,-1.76293 c 0,-1.55892 -0.042,-1.75085 -0.5513,-2.57775 -0.5468,-0.88604 -2.069,-2.0921 -2.9677,-2.35152 l -0.433,-0.12492 0.4569,0.61 c 0.9514,1.27013 1.2758,2.42793 0.9316,3.32484 -0.1582,0.41258 -1.1066,0.86579 -1.5303,0.73133 -0.4588,-0.14561 -0.7676,-0.73127 -0.6241,-1.18346 0.1458,-0.45926 0.909,-0.65515 1.2973,-0.33295 0.2642,0.2192 0.2815,0.19685 0.1602,-0.20664 -0.4387,-1.45919 -1.3034,-2.20234 -2.697,-2.31791 -1.4007,-0.11617 -2.7846,0.33428 -3.8157,1.24204 -0.4657,0.4098 -0.8465,0.68429 -0.8465,0.61001 0,-0.0743 0.3294,-0.57138 0.732,-1.10464 0.4026,-0.53324 0.6867,-0.96953 0.6315,-0.96953 -0.056,0 -0.419,0.21075 -0.8083,0.46835 -1.157,0.76568 -2.00364,2.35694 -2.00642,3.77098 0,0.51417 0.0139,0.51015 1.22432,-0.55836 0.674,-0.59195 1.5929,-1.32458 2.0422,-1.62806 0.8989,-0.60731 2.6166,-1.50832 2.8752,-1.50832 0.09,0 0.218,0.34718 0.2834,0.77152 0.2265,1.46686 0.6525,2.42335 1.4282,3.20685 l 0.7665,0.77425 1.1809,-0.1052 c 1.1124,-0.0991 1.1436,10e-4 0.1041,0.33665 -0.2776,0.0894 -0.1263,0.22043 0.7261,0.62789 0.6733,0.32194 1.1451,0.45199 1.2585,0.34698 0.1,-0.0924 0.1815,-0.92593 0.1815,-1.85233 z m -7.2614,1.15791 c -0.061,-0.0998 -0.2094,-0.18028 -0.3284,-0.17877 -0.1304,0.001 -0.1068,0.073 0.057,0.17877 0.3487,0.22537 0.4116,0.22537 0.2722,0 z m -4.2121,17.99722 c -1.5214,-1.20259 -2.18358,-2.174 -2.50558,-3.67549 -0.0805,-0.37325 -0.37654,-0.81998 -0.75253,-1.1336 -0.34124,-0.28466 -0.83879,-0.93818 -1.10569,-1.45226 -0.43581,-0.83954 -0.48995,-1.1564 -0.53159,-3.11307 l -0.0466,-2.1784 0.33441,1.73655 c 0.47129,2.44757 1.17009,3.73004 2.36436,4.3393 0.65621,0.33482 0.68897,0.39543 0.78529,1.4584 0.12075,1.32678 0.75795,2.71295 1.78423,3.87892 0.4068,0.46217 0.6991,0.84029 0.6497,0.84029 -0.048,0 -0.4887,-0.31529 -0.9762,-0.70064 z m 2.1579,-0.84093 c -1.7556,-1.00367 -2.6117,-1.98978 -3.05681,-3.52105 -0.2186,-0.7518 -0.51048,-1.20422 -1.23193,-1.90964 -1.29513,-1.2662 -1.58212,-2.13227 -1.66019,-5.0089 -0.0632,-2.326 0.0439,-2.28247 0.44751,0.18153 0.29804,1.82069 1.17854,3.3843 2.37674,4.22074 0.93438,0.65227 1.00608,0.75718 1.21388,1.77592 0.3016,1.47845 1.04,2.76025 2.2021,3.82233 1.0608,0.96946 0.944,1.14533 -0.2913,0.43907 z m 5.8664,-1.2058 c -0.599,-0.91743 -1.7994,-2.40826 -2.6674,-3.31292 -0.8682,-0.90467 -1.5588,-1.66431 -1.5351,-1.6881 0.1166,-0.117 2.5408,1.48646 3.3598,2.22287 0.8169,0.73444 0.9473,0.79693 1.0525,0.5043 0.6691,-1.86171 1.3877,-3.3922 2.188,-4.66001 0.5695,-0.90206 0.7377,-0.74479 0.2421,0.22647 -0.6743,1.32179 -1.3144,4.14167 -1.4364,6.32828 l -0.1138,2.04719 z m 5.0894,-4.06011 c 1.024,-2.85701 1.0607,-3.04564 1.0579,-5.44598 0,-1.92556 -0.071,-2.54524 -0.3749,-3.3668 -0.3662,-0.99106 -0.3668,-1.01729 -0.032,-1.67113 1.2176,-2.37337 1.1387,-5.09995 -0.2259,-7.80337 -0.381,-0.7545 -0.4667,-1.04376 -0.2579,-0.87057 0.6075,0.50415 1.8701,2.47041 2.2523,3.50747 0.4783,1.29771 0.5173,3.44019 0.093,5.12854 -0.2372,0.94463 -0.2548,1.32687 -0.09,1.9784 0.4227,1.67878 0.1152,3.82665 -0.853,5.95525 -0.5145,1.13106 -1.8173,3.27957 -1.5694,2.58819 z m 2.6258,-3.04184 c 0,-0.0701 0.2042,-0.73571 0.4538,-1.47928 0.5132,-1.52877 0.5886,-3.06482 0.1964,-4.0034 -0.2366,-0.56604 -0.222,-0.70222 0.1773,-1.67334 0.4694,-1.14192 0.5886,-3.11609 0.2707,-4.48646 -0.2575,-1.10994 0.2454,-0.44735 0.7038,0.92748 0.4375,1.31211 0.4816,2.61196 0.1235,3.62847 -0.1767,0.5006 -0.2089,0.96171 -0.1069,1.52048 0.1982,1.0778 -0.092,2.55571 -0.7615,3.88185 -0.5684,1.12546 -1.0572,1.9042 -1.0572,1.6842 z"
         id="path6610"
         sodipodi:nodetypes="csscscssssssssscssssssssssssssssssssssssscssssscsssssssssssssccsscsssssccssscsssssscssscssssssssssscsssscssssssccccssscsscsssssssssscsssssssssssscssssscssssssccsscsssccsssssccsssscsssssscssssscsccscssssssccssssssssss" />
      <circle
         style="fill:none;stroke:#0000ff;stroke-width:0.1;stroke-linecap:round;stroke-dasharray:none;stroke-opacity:1;paint-order:markers stroke fill"
         id="circle6695"
         cx="967.31818"
         cy="-70.414444"
         r="2" />
      <circle
         style="fill:none;stroke:#ff0000;stroke-width:0.1;stroke-dasharray:none"
         id="circle6705"
         cx="967.31818"
         cy="-55.403034"
         r="19.954653" />
    </g>
  </g>
</svg>
