<?xml version="1.0" encoding="UTF-8" standalone="no"?>
<!-- Created with Inkscape (http://www.inkscape.org/) -->

<svg
   width="41.008999mm"
   height="41.008999mm"
   viewBox="0 0 41.008999 41.008999"
   version="1.1"
   id="svg1"
   inkscape:version="1.4.2 (f4327f4, 2025-05-13)"
   sodipodi:docname="351.svg"
   xmlns:inkscape="http://www.inkscape.org/namespaces/inkscape"
   xmlns:sodipodi="http://sodipodi.sourceforge.net/DTD/sodipodi-0.dtd"
   xmlns="http://www.w3.org/2000/svg"
   xmlns:svg="http://www.w3.org/2000/svg">
  <sodipodi:namedview
     id="namedview1"
     pagecolor="#ffffff"
     bordercolor="#000000"
     borderopacity="0.25"
     inkscape:showpageshadow="2"
     inkscape:pageopacity="0.0"
     inkscape:pagecheckerboard="0"
     inkscape:deskcolor="#d1d1d1"
     inkscape:document-units="mm"
     inkscape:zoom="1.4513545"
     inkscape:cx="86.470947"
     inkscape:cy="71.657199"
     inkscape:window-width="1050"
     inkscape:window-height="1081"
     inkscape:window-x="857"
     inkscape:window-y="0"
     inkscape:window-maximized="0"
     inkscape:current-layer="layer1"
     showguides="false" />
  <defs
     id="defs1" />
  <g
     inkscape:label="Layer 1"
     inkscape:groupmode="layer"
     id="layer1"
     transform="translate(333.37504,1257.5646)">
    <g
       id="g570"
       transform="translate(-375.88128,-1282.0487)">
      <circle
         style="fill:none;stroke:#0000ff;stroke-width:0.1;stroke-linecap:round;stroke-dasharray:none;stroke-opacity:1;paint-order:markers stroke fill"
         id="path13019-1-33-6-2-4-0-0-76-9-2-75-0-8-52"
         cx="63.062492"
         cy="30.171854"
         r="2" />
      <path
         style="fill:#000000;stroke-width:0.195886"
         d="m 57.941318,64.928482 c -0.44971,-0.125602 -0.87403,-0.68832 -0.79537,-1.054799 0.0169,-0.07892 0.23064,-1.029757 0.47488,-2.112966 0.42332,-1.877424 0.82711,-3.670108 1.345,-5.971424 0.12969,-0.576259 0.23579,-1.06722 0.23579,-1.09102 0,-0.07008 -0.48688,-0.287682 -0.50721,-0.226691 -0.0416,0.124891 -0.54515,0.925179 -0.74543,1.184781 -0.91064,1.180352 -2.24905,1.536326 -3.74087,0.994946 -1.51624,-0.550241 -2.75106,-1.662149 -3.47741,-3.13127 -0.5439,-1.100114 -0.80169,-2.50681 -0.5499,-3.00069 l 0.10093,-0.19797 -0.1589,-0.281549 c -0.35448,-0.628114 -0.19927,-1.529758 0.35283,-2.049669 0.32598,-0.306967 0.93097,-0.46441 1.29086,-0.335932 l 0.20956,0.07481 0.062,-0.395588 c 0.0773,-0.492791 0.30048,-0.958465 0.47106,-0.982905 0.18461,-0.02645 0.41873,0.09287 0.45342,0.231081 0.021,0.08368 0.068,0.123008 0.14701,0.123008 0.0639,0 0.26997,0.08163 0.45797,0.181398 0.26064,0.138314 0.40406,0.181401 0.60384,0.181401 0.19242,0 0.262,0.01965 0.262,0.07398 0,0.108199 -0.24107,0.279954 -0.48521,0.345696 l -0.21253,0.05723 0.15452,0.07867 c 0.40036,0.203849 0.64473,0.634677 0.68657,1.210462 0.0281,0.386983 -0.0713,0.804948 -0.28587,1.201381 -0.0734,0.135543 -0.12377,0.253836 -0.11204,0.262873 0.0117,0.009 0.12892,0.078 0.26041,0.153243 0.45601,0.260956 0.71056,0.651333 0.87933,1.348532 0.10855,0.448444 0.30201,1.020856 0.34503,1.020856 0.014,0 0.16861,-0.121083 0.34352,-0.269071 0.1749,-0.14799 0.33748,-0.285245 0.36128,-0.305014 0.0238,-0.01977 -0.0173,-0.131921 -0.0914,-0.249227 -0.53152,-0.841995 -0.8041,-2.060075 -0.65731,-2.937374 0.1449,-0.865931 0.32799,-1.294974 1.62977,-3.818924 0.17703,-0.343228 0.21047,-0.460746 0.23074,-0.810784 l 0.0237,-0.409374 -0.17478,-0.03603 c -0.30256,-0.06237 -0.99965,-0.425572 -1.42445,-0.742163 -1.2508,-0.932204 -2.32589,-2.492755 -3.042,-4.415644 -1.28778,-3.457954 -1.22234,-6.543793 0.1986,-9.36452 0.5063,-1.005055 0.94158,-1.608638 1.73385,-2.404228 1.14106,-1.14585 2.26632,-1.762464 3.54774,-1.944085 l 0.25563,-0.03623 -0.29302,0.345393 c -0.35852,0.422597 -0.51692,0.691701 -0.63832,1.084396 -0.0838,0.270954 -0.0855,0.322263 -0.0179,0.515831 0.11807,0.337669 0.31969,0.427461 0.95624,0.425854 0.79707,-0.002 1.49189,-0.213934 1.89549,-0.578132 0.25431,-0.229488 0.35903,-0.445968 0.35903,-0.742178 0,-0.282213 -0.0929,-0.485975 -0.38407,-0.842208 l -0.24356,-0.298002 0.27495,3.92e-4 c 0.95602,0.0014 2.02546,0.449631 3.18874,1.336607 1.54293,1.176452 2.83068,3.160829 3.5888,5.530234 0.156,0.487586 0.47059,1.739834 0.5424,2.159165 0.0312,0.182043 0.0429,0.19112 0.28916,0.224994 0.34089,0.04689 0.62517,-0.0046 1.05375,-0.190787 0.19499,-0.08472 0.36478,-0.143792 0.3773,-0.131274 0.0125,0.01252 -0.1375,0.230024 -0.33338,0.483348 -0.33888,0.438262 -0.8619,0.967348 -1.12975,1.142848 -0.1099,0.07201 -0.12394,0.119966 -0.12443,0.425049 -7.9e-4,0.424548 -0.12389,1.607186 -0.2343,2.249116 -0.18733,1.089091 -0.49513,2.073259 -0.90683,2.899485 -0.35501,0.712439 -0.62486,1.093196 -1.12078,1.58137 l -0.4326,0.425852 10e-4,0.584796 c 0.001,0.56259 0.0783,1.58871 0.12257,1.632974 0.0118,0.01177 0.13078,-0.06211 0.26448,-0.164162 1.40392,-1.071634 3.44426,-1.357427 5.34832,-0.749144 0.63846,0.203964 1.36674,0.541756 1.82531,0.846613 1.73131,1.150969 2.93869,3.490291 3.22329,6.245163 0.0754,0.729933 0.0343,2.183059 -0.08,2.828017 -0.39133,2.208409 -1.40665,3.901191 -2.87906,4.800096 l -0.30694,0.187389 0.25696,0.03043 c 0.32847,0.0389 0.6509,0.18205 0.89724,0.39834 0.22975,0.201717 0.34208,0.400291 0.42094,0.744114 l 0.0578,0.251958 0.31565,-0.485186 c 0.17361,-0.266851 0.41746,-0.659832 0.5419,-0.873287 l 0.22625,-0.388103 0.0382,0.414017 c 0.10761,1.165592 -0.21764,2.320293 -0.8047,2.85683 l -0.27608,0.252323 0.14552,0.120521 c 0.32488,0.269049 0.22072,0.552669 -0.29089,0.792079 -0.83365,0.39011 -1.87506,0.398457 -2.61994,0.021 -0.1406,-0.07125 -0.38505,-0.234944 -0.5432,-0.363763 l -0.28756,-0.234219 v 0.316691 c 0,0.561478 -0.22889,0.845636 -0.84062,1.0436 -0.25675,0.08309 -0.51388,0.110782 -1.21719,0.131101 -1.4638,0.04229 -2.43288,-0.108397 -2.90729,-0.452056 -0.44056,-0.319145 -0.4809,-0.662813 -0.16289,-1.387921 0.32478,-0.740543 0.46787,-1.367648 0.50103,-2.195695 0.0474,-1.18287 -0.16222,-2.125072 -0.80206,-3.605827 -0.34102,-0.789193 -1.05302,-2.157063 -1.15589,-2.220638 -0.0274,-0.01692 -0.12544,0.02145 -0.21789,0.08528 -0.0924,0.06383 -0.17488,0.120695 -0.18319,0.126354 -0.008,0.0057 0.0676,0.283154 0.1687,0.616652 0.35955,1.186191 0.50713,2.362784 0.5009,3.993417 -0.007,1.960283 -0.30632,3.379702 -0.83934,3.986776 -0.19302,0.219833 -0.62656,0.392706 -0.98486,0.392706 -0.16225,0 -0.26599,0.02417 -0.27805,0.06479 -0.0106,0.03563 -0.0478,0.175578 -0.0829,0.310992 -0.0886,0.342662 -0.28848,0.629625 -0.53805,0.772351 -0.20884,0.119434 -0.23558,0.121289 -1.92211,0.133461 -1.30594,0.0094 -1.76936,-0.0041 -1.95999,-0.05738 z m 3.62635,-0.398289 c 0.14642,-0.05522 0.35311,-0.333299 0.44054,-0.592693 0.0565,-0.167625 0.0708,-1.134998 0.0746,-5.053245 0.003,-2.665264 0.0221,-4.960656 0.0434,-5.100871 0.051,-0.336266 0.0968,-0.251645 0.24122,0.445662 0.0669,0.323008 0.1416,0.560782 0.17613,0.560782 0.14579,0 0.65154,-0.180403 0.96514,-0.344271 0.42846,-0.22388 0.86239,-0.60747 1.15523,-1.021195 0.12417,-0.175422 0.43275,-0.727096 0.68575,-1.225941 0.50536,-0.996442 0.58693,-1.033187 0.38394,-0.17293 -0.135,0.572091 -0.53017,1.38932 -0.88055,1.821039 l -0.26499,0.326489 0.25413,0.450933 c 0.86811,1.540371 1.44452,2.96522 1.7025,4.208473 0.11049,0.532471 0.12317,1.873252 0.0225,2.381808 -0.0939,0.474198 -0.29615,1.100814 -0.50922,1.577301 -0.17759,0.397145 -0.18047,0.413823 -0.1007,0.581109 0.15154,0.317784 0.68818,0.5036 1.71826,0.594953 1.07351,0.09521 2.11023,-0.0073 2.51971,-0.249222 0.0813,-0.04801 0.1852,-0.166178 0.23096,-0.262597 0.0764,-0.160992 0.0763,-0.228898 -5.9e-4,-0.831528 -0.28709,-2.247776 -1.08663,-4.986691 -1.96474,-6.73038 -0.2297,-0.456122 -0.75397,-1.23966 -0.96161,-1.437145 l -0.1595,-0.151708 -0.0333,0.16669 c -0.0468,0.234056 -0.13264,0.176985 -0.23387,-0.155522 -0.0794,-0.260797 -0.08,-0.33092 -0.008,-0.851148 0.1491,-1.075213 0.10808,-2.606585 -0.0952,-3.554526 l -0.0577,-0.269212 -0.0691,0.164219 c -0.0889,0.211508 -0.28451,0.306781 -0.46291,0.225496 -0.27654,-0.125999 -0.44774,-0.682006 -0.25839,-0.839158 0.0592,-0.04915 0.0642,-0.08221 0.0201,-0.135255 -0.089,-0.107234 -0.0139,-0.24408 0.11542,-0.210268 0.0599,0.01567 0.15878,7.84e-4 0.21964,-0.03299 0.0608,-0.03382 0.11797,-0.06494 0.12692,-0.06914 0.0333,-0.01563 -0.37403,-0.779705 -0.5623,-1.05483 -0.10728,-0.156782 -0.27502,-0.361539 -0.37275,-0.455018 l -0.1777,-0.169964 -0.0881,0.316739 c -0.25165,0.90516 -0.85191,1.526458 -1.5385,1.59243 l -0.25001,0.02402 0.029,0.346294 c 0.0263,0.314099 -0.031,0.637996 -0.1726,0.974299 -0.0182,0.04327 0.0608,0.03324 0.24951,-0.0317 0.47958,-0.165001 0.9094,-0.410436 1.28522,-0.733895 0.20015,-0.172268 0.36392,-0.2888 0.36392,-0.258961 0,0.02984 0.0466,0.05426 0.10365,0.05426 0.057,0 0.10366,0.02721 0.10366,0.06047 0,0.03326 0.0136,0.04682 0.0303,0.03015 0.0721,-0.07214 0.32918,0.08281 0.40603,0.244755 0.12756,0.268817 0.10523,0.478561 -0.0696,0.653354 -0.20584,0.205847 -0.49665,0.209973 -0.73382,0.0104 -0.15944,-0.134166 -0.17045,-0.136331 -0.22424,-0.04409 -0.13931,0.238863 -0.68512,0.879714 -0.95369,1.119753 -0.39892,0.356546 -0.94193,0.620629 -1.35275,0.657881 -0.26921,0.02441 -0.31523,0.04254 -0.2852,0.112364 0.0197,0.04579 0.0468,0.21475 0.0603,0.375461 0.0208,0.247895 0.008,0.3088 -0.0849,0.401668 -0.32236,0.322366 -1.39854,-0.08422 -2.11738,-0.799971 -0.56517,-0.562739 -0.89446,-1.336391 -0.89446,-2.101506 v -0.345929 l -0.34243,0.181831 c -0.41898,0.222478 -0.93294,0.292497 -1.05626,0.143902 -0.12065,-0.145379 -0.0732,-0.483382 0.12368,-0.880235 0.41709,-0.840915 1.32955,-1.626673 2.26518,-1.950652 l 0.34232,-0.118535 -0.12443,-0.271796 c -0.35215,-0.769195 -0.2318,-1.761389 0.31645,-2.608903 l 0.22491,-0.347673 -0.26573,0.0488 c -0.14615,0.02684 -0.65055,0.03784 -1.12089,0.02444 -0.82424,-0.02348 -0.96483,-0.04547 -1.73624,-0.271594 -0.0991,-0.02905 -0.10369,-0.0058 -0.10439,0.529249 -9.8e-4,0.707413 -0.0617,0.892321 -0.63317,1.925332 -0.88831,1.605885 -1.20109,2.448567 -1.24406,3.351703 -0.0224,0.470785 -0.008,0.646097 0.0807,0.997681 0.36335,1.436873 1.47507,2.821579 2.91696,3.633242 l 0.29044,0.163493 0.10503,-0.285112 c 0.11641,-0.316013 0.52946,-1.063769 0.58762,-1.063769 0.0204,0 0.0175,0.08746 -0.007,0.194356 -0.25397,1.132783 -1.40796,6.265827 -1.79146,7.968582 -0.26964,1.197229 -0.52753,2.344067 -0.57309,2.548525 -0.0789,0.353964 -0.0782,0.379735 0.015,0.538779 0.18493,0.315807 0.33362,0.382424 0.91756,0.411096 0.72716,0.0357 2.88695,-0.0037 3.0234,-0.05516 z m 3.89394,-15.532163 c -0.20095,-0.230374 -0.27041,-0.664175 -0.1256,-0.784361 0.0411,-0.0341 0.0598,-0.114256 0.0449,-0.19217 -0.0212,-0.110928 -0.008,-0.130711 0.077,-0.116288 0.0564,0.0096 0.14013,-0.01379 0.18602,-0.05186 0.11438,-0.09493 0.20695,-0.02474 0.16864,0.12787 -0.0212,0.08454 -0.007,0.134564 0.0451,0.154413 0.11354,0.04357 0.19615,0.348272 0.15565,0.574119 -0.0452,0.252068 -0.15681,0.378982 -0.33327,0.378982 -0.0767,0 -0.17502,-0.04082 -0.21854,-0.0907 z m 0.34256,-0.146766 c 0.0445,-0.115852 0.0391,-0.477501 -0.007,-0.504811 -0.0214,-0.01254 -0.11467,-0.01126 -0.20732,0.0028 -0.20223,0.03077 -0.22226,0.158168 -0.0653,0.415529 0.11065,0.181481 0.22953,0.21818 0.28008,0.08646 z m -2.81554,14.407425 c 0.33848,-0.09955 0.4377,-0.181373 0.59087,-0.487321 0.76507,-1.528127 0.79021,-5.02665 0.0535,-7.441974 l -0.12989,-0.42585 -0.26359,0.100157 c -0.14498,0.05509 -0.38014,0.125151 -0.52259,0.155702 l -0.25899,0.05554 0.0174,4.024395 c 0.0112,2.60262 0.0357,4.037845 0.0692,4.06247 0.0745,0.05476 0.12936,0.04944 0.44409,-0.04312 z m 10.85445,-0.0431 c 0.14253,-0.04999 0.31556,-0.126864 0.3845,-0.170828 l 0.12536,-0.07993 -0.12536,-0.06433 c -0.0689,-0.03538 -0.28862,-0.09177 -0.48815,-0.125299 -0.50252,-0.08445 -0.75923,-0.156728 -0.7292,-0.205318 0.014,-0.02264 0.18379,-0.081 0.37732,-0.129674 0.64388,-0.161955 0.75087,-0.194119 0.72656,-0.218425 -0.0133,-0.01326 -0.12632,-5.88e-4 -0.25123,0.02824 -0.40133,0.09252 -1.07878,0.06596 -1.34003,-0.05255 -0.2249,-0.102017 -0.41601,-0.260034 -0.41601,-0.343977 0,-0.02262 0.10613,-0.09743 0.23585,-0.166247 0.60516,-0.321037 0.7523,-0.955052 0.31147,-1.342107 -0.24157,-0.212105 -0.42838,-0.242516 -0.84577,-0.13769 -0.53497,0.134356 -1.07697,0.03076 -1.42139,-0.271668 -0.0815,-0.07155 -0.0826,-0.0566 -0.0169,0.226309 0.0387,0.166607 0.13155,0.606116 0.2064,0.976687 0.0748,0.370571 0.14629,0.723266 0.15878,0.783764 0.0401,0.194205 0.47541,0.730409 0.77919,0.959768 0.1621,0.122388 0.44916,0.276419 0.63792,0.342292 0.2941,0.102636 0.42102,0.117057 0.88738,0.100824 0.34022,-0.01185 0.64133,-0.05301 0.80334,-0.109837 z m 0.25021,-1.264184 c 0.51396,-0.227347 0.81739,-0.570173 0.94828,-1.071386 0.0423,-0.161992 0.0695,-0.31683 0.0604,-0.344088 -0.009,-0.02726 -0.13551,0.120556 -0.28094,0.328474 -0.43381,0.620188 -0.65654,0.839945 -1.03412,1.020303 -0.19026,0.09088 -0.36652,0.15837 -0.3917,0.149976 -0.0252,-0.0084 0.0696,-0.173588 0.21072,-0.3671 0.31084,-0.426379 0.3857,-0.636236 0.35576,-0.997328 -0.0264,-0.31832 -0.1883,-0.568294 -0.48804,-0.753546 -0.23363,-0.144393 -0.98569,-0.213047 -1.05768,-0.09656 -0.0302,0.0488 0.0129,0.09366 0.14811,0.154366 0.25876,0.11617 0.56543,0.467345 0.60847,0.696782 0.072,0.383698 -0.21413,0.925379 -0.61877,1.171449 l -0.15543,0.09453 0.12635,0.04681 c 0.0695,0.02574 0.16133,0.06157 0.20409,0.07963 0.0427,0.01806 0.31317,0.0241 0.60091,0.01344 0.38221,-0.01416 0.58795,-0.04804 0.7636,-0.125744 z m -2.27151,-2.036019 c 0.24162,-0.06607 0.38872,-0.181702 0.38872,-0.305566 0,-0.08097 -0.0286,-0.08206 -0.37576,-0.01434 -0.21842,0.0426 -0.56564,0.06513 -0.82925,0.05378 -0.24942,-0.01073 -0.4535,-0.01422 -0.4535,-0.0078 0,0.0064 0.0779,0.05987 0.17307,0.118698 0.31163,0.192593 0.73886,0.253051 1.09672,0.155192 z m -0.0507,-0.909007 c 0.7864,-0.457684 1.66528,-1.46559 2.12771,-2.440068 0.51194,-1.078816 0.8999,-2.890901 0.90214,-4.213758 0.004,-2.335981 -0.8975,-4.345897 -2.409,-5.371168 -0.9473,-0.642575 -2.33532,-1.105992 -3.31263,-1.105992 -0.58505,0 -1.81989,0.237729 -2.54395,0.489756 -0.37057,0.128985 -0.72855,0.234816 -0.7955,0.235179 -0.10639,5.87e-4 -0.0754,0.05031 0.24618,0.39462 0.20236,0.216679 0.36792,0.414706 0.36792,0.440062 0,0.02535 0.11155,-0.02254 0.24789,-0.106427 0.3904,-0.240215 0.94852,-0.458883 1.32458,-0.518959 1.06292,-0.169802 2.48339,0.560162 3.1151,1.60081 0.3775,0.621889 0.54708,1.295558 0.54708,2.173412 0,1.153948 -0.25267,1.948764 -1.07989,3.396947 -0.82351,1.441699 -1.05452,1.947373 -1.1407,2.496886 -0.0432,0.275512 -0.0306,0.331884 0.25209,1.128025 0.16366,0.46091 0.32736,0.957606 0.36378,1.103771 0.0967,0.387883 0.35661,0.525135 1.00978,0.533131 0.34265,0.0042 0.388,-0.0096 0.77742,-0.236227 z m 0.8691,-0.0766 c 0.61521,-0.310049 1.3587,-1.000758 1.80635,-1.678103 1.70189,-2.57516 1.6791,-6.765829 -0.0526,-9.672544 -0.81222,-1.363339 -1.8168,-2.170971 -3.37245,-2.711266 -1.1075,-0.384651 -2.32202,-0.464173 -3.29407,-0.215684 -0.60774,0.155361 -1.39991,0.534727 -1.91136,0.915338 l -0.35651,0.265312 0.031,0.261537 c 0.017,0.143845 0.0433,0.273858 0.0584,0.28892 0.0151,0.01506 0.28917,-0.07134 0.60913,-0.192002 0.76403,-0.288126 1.65654,-0.502469 2.41081,-0.578974 0.52438,-0.05319 0.69154,-0.04972 1.19361,0.02478 2.67708,0.397206 4.41779,1.994054 5.09448,4.67345 0.48828,1.933371 0.20928,4.452851 -0.70765,6.390175 -0.38754,0.818807 -0.76218,1.358211 -1.31044,1.886736 -0.25806,0.248764 -0.45741,0.452299 -0.44301,0.452299 0.0144,0 0.12437,-0.04949 0.24438,-0.10997 z M 56.310988,56.37495 c 0.69492,-0.245269 1.28117,-0.796745 1.78287,-1.67712 0.1247,-0.218816 0.22673,-0.421977 0.22673,-0.451466 0,-0.02949 -0.15743,-0.17376 -0.34984,-0.320604 -0.35367,-0.26991 -0.96697,-0.88088 -1.20752,-1.202942 l -0.13092,-0.175291 -0.36087,0.301557 c -0.19847,0.165857 -0.36985,0.308148 -0.38084,0.316201 -0.0307,0.02249 0.13716,0.263012 0.34097,0.488604 0.13428,0.148637 0.16059,0.203042 0.0982,0.203042 -0.16049,0 -0.69477,-0.3076 -0.80629,-0.464209 -0.20707,-0.290812 -0.45562,-0.906562 -0.56883,-1.409196 -0.20827,-0.924783 -0.60229,-1.296684 -1.62259,-1.531524 -0.53309,-0.122701 -1.97443,-0.122864 -2.36671,-1.96e-4 -0.41428,0.129469 -0.4708,0.199312 -0.4708,0.581809 0,1.390622 0.83809,3.149599 1.95021,4.093073 0.79604,0.675334 1.83004,1.215913 2.55884,1.337774 0.40572,0.06784 0.97145,0.02914 1.30741,-0.08944 z m 12.92039,-0.49672 c 0.12001,-0.374049 0.56499,-1.263473 1.04188,-2.082478 0.65829,-1.13054 0.93942,-2.004509 0.98938,-3.075802 0.0528,-1.131602 -0.20892,-1.93915 -0.84789,-2.61649 -0.98155,-1.040505 -2.25087,-1.311657 -3.38289,-0.722655 -0.53898,0.280438 -0.5253,0.240478 -0.26453,0.772475 l 0.22698,0.463088 0.26289,0.06164 c 1.53508,0.359962 2.48322,1.495131 2.39999,2.873418 -0.0303,0.502452 -0.18586,0.919462 -0.61822,1.65765 -0.16696,0.285056 -0.41743,0.740961 -0.5566,1.013121 l -0.25303,0.494841 0.21549,0.342015 c 0.11851,0.188109 0.3076,0.531004 0.42021,0.761987 0.11259,0.230983 0.22051,0.402481 0.23981,0.381106 0.0193,-0.02138 0.0762,-0.167138 0.12653,-0.323919 z m -1.20088,-1.671537 c 0.0161,-0.06418 0.19434,-0.392816 0.39605,-0.7303 0.76804,-1.284969 0.93464,-1.75963 0.82964,-2.363713 -0.0325,-0.186738 -0.13079,-0.491121 -0.21852,-0.676408 -0.29132,-0.615309 -1.11784,-1.294667 -1.73081,-1.422636 l -0.16139,-0.03369 0.14351,0.559725 c 0.0789,0.307846 0.16898,0.769626 0.20012,1.026176 0.0731,0.60251 0.073,1.973087 -1.5e-4,2.673861 l -0.0573,0.548906 0.24631,0.267388 c 0.13547,0.147062 0.26363,0.267387 0.2848,0.267387 0.0212,0 0.0517,-0.05251 0.0678,-0.116692 z m -5.92646,-1.569387 c 0,-0.184707 -0.16929,-0.45312 -0.53906,-0.854688 -0.21662,-0.235238 -0.39384,-0.446783 -0.39384,-0.470101 0,-0.02332 0.0953,-0.0088 0.21188,0.03236 l 0.21189,0.07476 -0.26168,-0.286322 c -0.30833,-0.337359 -0.46643,-0.742504 -0.3852,-0.987121 0.0466,-0.140362 0.0723,-0.152464 0.38272,-0.180283 0.46566,-0.04174 0.6327,-0.143481 0.80129,-0.488082 0.12773,-0.261067 0.13806,-0.326452 0.11683,-0.739409 -0.0312,-0.607511 -0.16271,-0.905984 -0.52224,-1.185531 l -0.27044,-0.210276 -0.3628,0.07379 c -0.72488,0.147425 -1.50814,0.558222 -1.9976,1.04769 -0.27541,0.275408 -0.67433,0.863612 -0.76266,1.12453 l -0.0552,0.162995 0.18976,-0.05218 c 0.48157,-0.132434 0.84587,-0.414589 1.13034,-0.875463 0.10365,-0.167935 0.2032,-0.305336 0.22122,-0.305336 0.018,0 0.0134,0.227397 -0.0101,0.505326 -0.1333,1.571133 0.023,2.165198 0.76013,2.88942 0.37916,0.372516 0.76351,0.603427 1.20761,0.725507 0.32849,0.0903 0.32715,0.09031 0.32715,-0.0016 z m 1.2726,-1.221228 c 0.28423,-0.177874 0.6214,-0.486122 0.86578,-0.791518 l 0.16039,-0.200425 -0.15169,0.07674 c -0.3845,0.194503 -1.37873,0.451786 -1.75169,0.453292 -0.0713,1.96e-4 -0.008,-0.09409 0.24026,-0.35709 0.41895,-0.444111 0.52867,-0.726371 0.49324,-1.268836 -0.0283,-0.432463 -0.15935,-0.724866 -0.40946,-0.913264 -0.37984,-0.286117 -0.35416,-0.280461 -0.29464,-0.06489 0.0791,0.286517 0.0258,0.882134 -0.10088,1.127365 -0.20074,0.388566 -0.55556,0.631067 -1.00046,0.683758 -0.141,0.01669 -0.25613,0.05627 -0.25585,0.08793 10e-4,0.161352 0.27348,0.603844 0.50201,0.816486 0.40456,0.376442 0.6852,0.499087 1.1588,0.506415 0.23665,0.0037 0.33347,-0.02408 0.54419,-0.155959 z m 2.45721,-1.235539 c 0.0803,-0.150025 0.0649,-0.340826 -0.0377,-0.467547 l -0.0914,-0.112828 -0.24553,0.105244 c -0.27394,0.117425 -0.29035,0.164323 -0.14243,0.406939 0.0842,0.138086 0.1352,0.16844 0.28304,0.16844 0.12525,0 0.19672,-0.03062 0.23399,-0.100248 z m -14.74329,-0.164768 c 0.40444,-0.08629 1.64042,-0.07138 2.19719,0.0265 0.56827,0.09991 0.59601,0.08792 0.82024,-0.354268 0.26764,-0.527799 0.19818,-1.143463 -0.17869,-1.58375 -0.45411,-0.530524 -1.10882,-0.550498 -1.57273,-0.04798 l -0.19313,0.209189 -0.19191,-0.168506 c -0.15792,-0.138654 -0.24459,-0.172315 -0.48926,-0.190013 -0.21155,-0.0153 -0.34596,0.0036 -0.4658,0.0656 -0.15963,0.08255 -0.1639,0.09212 -0.0817,0.183003 0.21741,0.240235 0.13226,0.837473 -0.16124,1.130977 -0.15377,0.153773 -0.20275,0.174135 -0.35815,0.148917 -0.20372,-0.03306 -0.21318,-0.0081 -0.0998,0.263239 0.11459,0.27425 0.28303,0.439188 0.411,0.402458 0.0577,-0.01653 0.22142,-0.05496 0.36395,-0.08537 z m 15.57564,-0.282553 c 0.0598,-0.157211 0.0671,-0.472944 0.0117,-0.506266 -0.0214,-0.01287 -0.13216,-0.0081 -0.24619,0.0105 -0.18412,0.03009 -0.20904,0.05152 -0.22279,0.191533 -0.0185,0.188074 0.15566,0.437184 0.30558,0.437184 0.0609,0 0.12129,-0.0529 0.15173,-0.132946 z m -15.97558,-0.802553 c 0.14138,-0.275516 0.142,-0.634312 10e-4,-0.661017 -0.11843,-0.02245 -0.36969,0.36269 -0.36413,0.558157 0.005,0.189649 0.10281,0.376769 0.18336,0.352193 0.0337,-0.01028 0.11453,-0.122481 0.17962,-0.249333 z m 13.4765,-0.458736 c 0.56624,-0.288875 0.9463,-1.058403 0.94053,-1.904337 l -0.002,-0.355315 -0.0931,0.238017 c -0.21946,0.560937 -0.75382,1.114127 -1.45973,1.51118 -0.24073,0.1354 -0.40886,0.246184 -0.37363,0.246184 0.0352,10e-7 0.12745,0.09581 0.20494,0.21291 0.13648,0.206233 0.14788,0.211949 0.3637,0.182366 0.12254,-0.01679 0.31142,-0.07575 0.41974,-0.131005 z m -1.215,-0.64318 c 0.0767,-0.305711 -0.24029,-0.814507 -0.55702,-0.894004 -0.14793,-0.03713 -0.50553,0.07022 -0.53031,0.159195 -0.0128,0.04615 0.94405,0.840995 1.02401,0.85059 0.0183,0.0022 0.0468,-0.04991 0.0633,-0.115781 z m 0.65612,-0.221065 c 1.06729,-0.696872 1.41187,-1.501211 1.29719,-3.027994 -0.0289,-0.384826 -0.0588,-0.932907 -0.0665,-1.217962 l -0.0139,-0.518283 -0.1952,0.292867 c -0.228,0.342058 -0.73857,0.833834 -1.1696,1.126539 -0.64276,0.436492 -1.15888,1.010333 -1.47365,1.638457 -0.11842,0.236301 -0.34898,0.906589 -0.34898,1.014546 0,0.02464 0.0849,-0.01279 0.18863,-0.0832 0.53176,-0.360861 1.26127,0.04 1.39404,0.766026 0.0196,0.106897 0.051,0.194356 0.0698,0.194356 0.0189,0 0.16202,-0.08341 0.31815,-0.185351 z m -10.79207,-0.101085 0.24273,-0.06163 -0.23266,-0.102862 -0.23267,-0.10286 -0.0885,0.160282 c -0.11779,0.213251 -0.12376,0.328172 -0.0122,0.235621 0.0443,-0.03681 0.18987,-0.09465 0.32337,-0.128552 z m 0.99537,-0.231845 c 0.0713,-0.02282 0.0941,-0.04382 0.0508,-0.04666 -0.0433,-0.0028 -0.24864,-0.07656 -0.45633,-0.163819 -0.37107,-0.15591 -0.63058,-0.182591 -0.66792,-0.06867 -0.0261,0.07952 0.61513,0.30865 0.89201,0.318758 0.0285,9.79e-4 0.11013,-0.01679 0.1814,-0.03961 z m -1.22956,-0.429971 c 0.15611,-0.199888 0.16031,-0.282121 0.0115,-0.225013 -0.08,0.03071 -0.18493,0.235963 -0.2553,0.4995 -0.0319,0.119294 -0.0297,0.121349 0.0278,0.02591 0.0343,-0.05701 0.13153,-0.192192 0.21604,-0.300401 z m 8.80543,-0.243853 c 0.15035,-0.619256 0.57967,-1.39035 1.04233,-1.872157 0.12656,-0.131796 0.50737,-0.460624 0.84624,-0.730727 1.21487,-0.968329 1.41547,-1.286109 1.57365,-2.492925 0.0999,-0.762524 0.0818,-0.791513 -0.18447,-0.294262 -0.58124,1.085584 -1.32838,1.805046 -2.40563,2.316528 -0.46285,0.219758 -0.55703,0.28978 -0.83325,0.619491 -0.69132,0.825193 -0.8663,1.963003 -0.41465,2.696279 0.15889,0.257976 0.27203,0.185047 0.37578,-0.242227 z m -4.02478,-3.184959 c -0.8312,-0.487231 -1.36622,-0.958964 -1.83725,-1.619928 -0.86094,-1.20809 -1.39341,-2.832418 -1.56768,-4.782328 l -0.058,-0.64879 -0.25707,-0.407638 c -0.32519,-0.515664 -0.57763,-1.06857 -0.74688,-1.635872 -0.1631,-0.546676 -0.22182,-1.600813 -0.12323,-2.211991 0.15153,-0.939338 0.59398,-1.838948 1.24358,-2.528516 0.62154,-0.65978 0.87091,-0.740906 1.20331,-0.391478 0.23069,0.242509 0.3984,0.556682 0.55188,1.033857 0.0891,0.276981 0.26885,1.055629 0.26885,1.164545 0,0.01578 0.1341,-0.08066 0.29801,-0.214317 1.22006,-0.994893 2.67113,-1.527796 4.58343,-1.683252 2.3753,-0.193095 4.4845,0.61449 5.75057,2.201824 0.11004,0.137961 0.20007,0.238239 0.20007,0.222841 0,-0.07308 -0.37331,-1.043522 -0.56325,-1.464208 -0.59212,-1.31143 -1.33671,-2.393553 -2.24312,-3.259917 -0.55013,-0.525835 -0.95228,-0.826419 -1.60916,-1.202764 -0.39278,-0.225035 -1.26535,-0.570431 -1.31519,-0.520598 -0.01,0.0096 0.0154,0.109935 0.0556,0.222865 0.25145,0.705984 -0.14557,1.463383 -0.95888,1.829268 -0.88151,0.396565 -2.12628,0.466128 -2.60218,0.145421 -0.30109,-0.202906 -0.40402,-0.415378 -0.40262,-0.83116 10e-4,-0.351008 0.0266,-0.442365 0.29473,-1.060794 0.0877,-0.202215 -0.94604,0.329993 -1.61161,0.829729 -1.5328,1.150879 -2.74832,3.049364 -3.26381,5.09762 -0.6408,2.546144 -0.21891,5.515709 1.18302,8.327094 0.6777,1.35902 1.74891,2.595654 2.76349,3.190235 0.36827,0.215821 0.8112,0.38155 0.83513,0.312481 0.0114,-0.03299 -0.0208,-0.08439 -0.0718,-0.114229 z m 3.22653,0.128907 c 1.23268,-0.141736 2.22074,-0.623421 2.9758,-1.450728 0.94358,-1.033845 1.5376,-2.669578 1.63357,-4.498306 0.0273,-0.519463 0.0213,-0.583067 -0.0548,-0.583067 -0.0711,0 -0.0854,0.05985 -0.0854,0.356007 0,0.195806 -0.0356,0.563137 -0.0791,0.816294 -0.27304,1.588957 -1.038,2.611155 -1.95405,2.611155 -0.36947,0 -0.58256,-0.08427 -0.87196,-0.344805 -0.64023,-0.576388 -0.95533,-1.514263 -0.98986,-2.946284 l -0.0162,-0.673765 0.17384,-0.08725 c 0.17461,-0.08764 0.36928,-0.113802 1.32735,-0.178407 l 0.51828,-0.03495 -0.44054,-0.07366 c -0.79898,-0.133588 -1.94694,-0.566432 -2.6065,-0.982795 -0.11111,-0.07014 -0.2135,-0.116045 -0.22753,-0.102012 -0.014,0.01403 0.15143,0.210721 0.36769,0.437083 0.21627,0.226362 0.39321,0.42491 0.39321,0.441215 0,0.05535 -0.87922,-0.211923 -1.21682,-0.369905 -0.60601,-0.28359 -1.2636,-0.794004 -1.61269,-1.251758 -0.10784,-0.141416 -0.20511,-0.248088 -0.21615,-0.237048 -0.0111,0.01105 0.0534,0.187561 0.14328,0.392272 0.0898,0.204708 0.15174,0.383819 0.13754,0.398022 -0.0451,0.04507 -0.56625,-0.372326 -0.89631,-0.717836 -0.36931,-0.386592 -0.71593,-0.903806 -0.94545,-1.410754 -0.0889,-0.196416 -0.19302,-0.382998 -0.23131,-0.414626 -0.0451,-0.03727 -0.0925,-0.30373 -0.13469,-0.757185 -0.10112,-1.087331 -0.41744,-2.128505 -0.73358,-2.41461 -0.0923,-0.08348 -0.10854,-0.08033 -0.31145,0.06029 -0.30577,0.211893 -0.79124,0.851953 -1.05846,1.3955 -0.77851,1.583546 -0.60013,3.295982 0.52052,4.997029 0.12789,0.194133 0.23254,0.376994 0.23254,0.406359 0,0.02937 0.0355,0.06703 0.0789,0.08369 0.0637,0.02444 0.0687,0.01117 0.0259,-0.06879 -0.0588,-0.109769 -0.0714,-0.381181 -0.0202,-0.432399 0.018,-0.01804 0.0992,0.05886 0.18037,0.170891 0.26057,0.359705 0.27131,0.362469 1.50251,0.386808 1.12137,0.02217 1.66472,0.07592 2.15644,0.21333 l 0.27007,0.07547 -0.0227,0.323068 c -0.0125,0.177687 -0.0337,0.556295 -0.0473,0.84135 -0.0581,1.224699 -0.67022,2.44747 -1.38853,2.773491 -0.32116,0.145763 -0.75589,0.136133 -1.07137,-0.02373 -0.4976,-0.252158 -0.92942,-0.881846 -1.16704,-1.701836 -0.14014,-0.483605 -0.26124,-1.433968 -0.23067,-1.810265 0.0177,-0.217318 0.0123,-0.227833 -0.10511,-0.205361 -0.12085,0.02313 -0.12301,0.03286 -0.093,0.41795 0.0794,1.019293 0.49703,2.506767 0.9501,3.383986 1.05968,2.051745 2.9437,3.055014 5.24093,2.790874 z m -1.32611,-1.533901 c -0.66588,-0.179195 -1.25343,-0.758547 -1.25343,-1.235935 0,-0.2435 0.0979,-0.18712 0.25815,0.148691 0.17715,0.371188 0.34189,0.52262 0.7934,0.729331 0.52702,0.241278 1.12304,0.212557 1.70029,-0.08193 0.11682,-0.0596 0.22764,-0.09275 0.24626,-0.07366 0.0725,0.07429 -0.3845,0.392137 -0.7069,0.491715 -0.38669,0.11944 -0.65404,0.125052 -1.03777,0.02179 z m 1.35904,-1.170756 c -0.0395,-0.06397 0.26963,-0.351175 0.38061,-0.353563 0.11515,-0.0025 0.0687,0.195285 -0.0718,0.305814 -0.1533,0.120581 -0.25417,0.13618 -0.30883,0.04775 z m -1.31677,-0.02916 c -0.13639,-0.04975 -0.25914,-0.183331 -0.25914,-0.282005 0,-0.121481 0.0201,-0.120082 0.26681,0.01857 0.25197,0.141614 0.24573,0.355866 -0.008,0.263433 z m -0.10366,-0.939763 c 0,-0.222957 0.86005,-0.352906 1.18897,-0.179645 0.26552,0.139865 0.27849,0.249841 0.0227,0.192366 -0.24607,-0.05529 -0.75497,-0.05392 -1.01731,0.0027 -0.13288,0.02869 -0.19436,0.02381 -0.19436,-0.01546 z m -5.07685,-5.255356 c -0.0854,-0.149534 -0.19374,-0.435236 -0.24076,-0.634896 -0.1137,-0.482874 -0.11474,-1.487 -0.002,-1.957839 0.11568,-0.483251 0.33408,-0.894341 0.42619,-0.802231 0.0128,0.01284 -0.0392,0.277551 -0.11573,0.588257 -0.19608,0.796484 -0.19407,1.459924 0.007,2.171592 0.25717,0.912164 0.22774,1.163872 -0.0742,0.635117 z m 11.76432,7.25677 c 0.78307,-1.035535 1.35117,-2.712956 1.57574,-4.652627 0.0446,-0.384824 0.081,-0.843984 0.0811,-1.020356 l 6e-5,-0.320675 -0.33512,0.151948 c -0.36176,0.164031 -1.16567,0.411661 -1.33642,0.411661 -0.0954,0 -0.24037,0.128693 -0.24445,0.217012 -9.8e-4,0.01959 0.08,0.02236 0.17975,0.0062 0.24488,-0.03974 0.2498,0.10867 0.007,0.224251 l -0.17397,0.08296 -0.0347,0.577008 c -0.0191,0.317355 -0.0689,0.798572 -0.11069,1.069375 -0.12291,0.79628 -0.18129,1.557562 -0.21465,2.798721 l -0.0313,1.166135 0.16718,-0.155485 c 0.0919,-0.08552 0.3035,-0.335764 0.47011,-0.556105 z m -2.39265,-1.383918 c 0.70679,-0.36058 1.26928,-1.594001 1.33913,-2.936439 0.0354,-0.680831 0.0803,-0.636283 -0.68436,-0.679613 l -0.51828,-0.02937 -0.007,0.538199 c -0.008,0.661481 -0.1192,1.196943 -0.34826,1.679283 -0.2871,0.604542 -0.68122,0.957953 -1.06831,0.957953 -0.19478,0 -0.19814,0.04756 -0.015,0.213165 0.46267,0.418432 0.8393,0.49274 1.30174,0.256823 z m -6.49751,0.0016 c 0.11402,-0.05291 0.28769,-0.180668 0.38592,-0.283918 l 0.17861,-0.187727 h -0.19414 c -0.37851,0 -0.75643,-0.328385 -1.014,-0.881079 -0.23415,-0.502468 -0.32426,-1.022098 -0.30536,-1.760876 l 0.0161,-0.627343 -0.57011,0.03208 c -0.31356,0.01765 -0.59927,0.04116 -0.6349,0.05226 -0.1302,0.04056 -0.0521,1.280898 0.12383,1.966993 0.18901,0.737042 0.65546,1.448716 1.10554,1.686741 0.23731,0.125498 0.64149,0.126773 0.90854,0.0029 z m 0.68075,-0.759382 c 0.10123,-0.0637 0.43355,-0.760073 0.43355,-0.908484 0,-0.03476 -0.0707,0.03436 -0.15705,0.153596 -0.17184,0.237222 -0.43212,0.420834 -0.59445,0.419355 -0.057,-5.88e-4 -0.20249,-0.04581 -0.32328,-0.100636 -0.57573,-0.261346 -0.86686,-1.407151 -0.60948,-2.39874 0.0311,-0.119845 0.0207,-0.142528 -0.0653,-0.142528 -0.0899,0 -0.10571,0.04565 -0.13029,0.375754 -0.0772,1.037469 0.27962,2.214867 0.77864,2.568957 0.24284,0.172315 0.43119,0.181547 0.66767,0.03273 z m 4.77674,0.0071 c 0.54865,-0.287437 0.94973,-1.268413 0.9631,-2.355627 0.005,-0.403139 -0.009,-0.499427 -0.0716,-0.512171 -0.066,-0.01332 -0.0777,0.08832 -0.0777,0.672331 0,0.740326 -0.0592,0.994359 -0.32651,1.400714 -0.24021,0.365187 -0.65158,0.501521 -0.98814,0.327482 -0.15152,-0.07835 -0.41878,-0.424026 -0.42569,-0.550586 -0.003,-0.04619 -0.0135,-0.05184 -0.0287,-0.01471 -0.0291,0.07111 0.22087,0.838842 0.30681,0.942386 0.13642,0.164378 0.42919,0.205089 0.64853,0.09018 z m -4.15112,-2.479133 c -0.0124,-0.06414 -0.0225,-0.01165 -0.0225,0.116613 0,0.128276 0.0101,0.180751 0.0225,0.116613 0.0124,-0.06414 0.0124,-0.169089 0,-0.233226 z m -0.84166,-0.03694 c 0.10594,-0.117066 0.0696,-0.276919 -0.0573,-0.251945 -0.11472,0.02258 -0.19817,0.164491 -0.15812,0.268883 0.0429,0.111763 0.10327,0.107016 0.21545,-0.01694 z m 4.98938,-0.03756 c 0.0112,-0.03385 -0.0314,-0.113196 -0.0945,-0.176326 -0.10903,-0.109028 -0.11819,-0.110131 -0.18263,-0.02199 -0.0925,0.126468 -5.9e-4,0.297895 0.14785,0.275968 0.06,-0.0089 0.11816,-0.0438 0.1293,-0.07765 z m -1.03921,-0.12957 c -0.0165,-0.04134 -0.0288,-0.02906 -0.0313,0.03131 -0.002,0.05464 0.01,0.08525 0.0272,0.06802 0.0172,-0.01722 0.0191,-0.06192 0.004,-0.09934 z m -3.16152,-0.05183 c -0.0165,-0.04135 -0.0288,-0.02906 -0.0313,0.03131 -0.002,0.05464 0.01,0.08525 0.0272,0.06803 0.0172,-0.01722 0.0191,-0.06193 0.004,-0.09934 z m -1.17848,-0.08859 c 0.047,-0.08779 0.0305,-0.100417 -0.15366,-0.117984 -0.2107,-0.02009 -0.26268,0.0355 -0.14408,0.154101 0.0928,0.09281 0.23818,0.07517 0.29774,-0.03612 z m 5.84675,0.0076 c 0.0145,-0.04401 -0.0403,-0.06479 -0.17073,-0.06479 -0.16751,0 -0.18355,0.01026 -0.12547,0.08024 0.0759,0.09145 0.26423,0.08162 0.2962,-0.01546 z m 2.55227,-0.815973 c 0.27081,-0.04225 0.60898,-0.108106 0.75151,-0.146356 l 0.25914,-0.06955 -0.40185,-0.09014 c -0.22102,-0.04959 -0.56524,-0.171887 -0.76493,-0.271788 -0.657,-0.328685 -1.0134,-0.771785 -1.70323,-2.117562 -0.60274,-1.175891 -1.30409,-2.082319 -2.01921,-2.60962 -0.64716,-0.477195 -1.49719,-0.828296 -1.83634,-0.75849 -0.0922,0.01897 -0.33079,0.07057 -0.53026,0.11466 l -0.36269,0.08017 0.28494,0.07206 c 0.43744,0.110625 0.81656,0.324936 1.14245,0.645807 0.57684,0.567949 0.913,1.32741 1.0591,2.392689 0.15804,1.152371 0.2001,1.346373 0.36607,1.688272 0.32631,0.672222 0.74613,0.993044 1.42304,1.087473 0.54538,0.07608 1.79195,0.06666 2.33226,-0.01763 z m -3.71322,-0.479741 c -0.3348,-0.437901 -0.48676,-0.910527 -0.58741,-1.826941 -0.0329,-0.299308 -0.0958,-0.707455 -0.13988,-0.906993 -0.31949,-1.446806 -1.16741,-2.337452 -2.32854,-2.44588 -0.30644,-0.02862 -0.34847,-0.01792 -0.80676,0.205297 -0.54785,0.266847 -1.25824,0.754404 -1.58644,1.088818 l -0.22124,0.225432 0.1109,0.35951 c 0.13607,0.441073 0.3471,0.868061 0.66257,1.340583 l 0.23977,0.359136 0.0146,-0.60532 c 0.008,-0.332925 0.0323,-0.605318 0.054,-0.605318 0.0217,0 0.1048,0.134105 0.18475,0.298011 0.50058,1.026256 1.13722,1.772981 1.90351,2.232655 l 0.18739,0.112407 -0.17014,-0.505242 c -0.0936,-0.277884 -0.18661,-0.585711 -0.20674,-0.68406 l -0.0366,-0.178816 0.4321,0.381384 c 0.66074,0.583182 1.27762,0.956409 2.06844,1.251459 0.2138,0.07976 0.39439,0.146156 0.40133,0.147543 0.007,0.0014 -0.0721,-0.108262 -0.17561,-0.243665 z m 5.8232,-0.23708 c 0.16513,-0.100316 0.44013,-0.311439 0.61111,-0.469165 l 0.31086,-0.286773 -0.34155,-0.0023 c -0.98776,-0.0068 -2.1878,-0.613307 -2.90303,-1.46731 -0.28894,-0.345013 -0.70491,-1.055417 -0.65008,-1.110243 0.0154,-0.01541 0.18667,0.08436 0.38058,0.221707 1.21493,0.860541 1.58603,1.028085 1.84985,0.835175 0.0876,-0.06403 0.087,-0.08094 -0.0127,-0.364527 -0.19972,-0.568236 -0.89111,-1.361959 -1.60781,-1.84578 -1.14991,-0.776262 -2.75699,-1.158224 -4.27475,-1.015998 l -0.40597,0.03804 0.38067,0.165619 c 0.54056,0.235184 0.98747,0.55357 1.49497,1.065046 0.55149,0.555798 1.04622,1.294967 1.63869,2.448318 0.36085,0.702446 0.52189,0.958867 0.74617,1.188071 0.50982,0.521022 1.34511,0.843364 2.08319,0.803904 0.34503,-0.01845 0.4405,-0.04624 0.69979,-0.203748 z m -0.23615,-1.690312 -0.0784,-0.411419 -0.14773,0.124302 c -0.18493,0.155616 -0.41775,0.201126 -0.70182,0.137191 -0.12115,-0.02727 -0.22027,-0.04239 -0.22027,-0.03361 0,0.07222 1.02087,0.577732 1.19639,0.592427 0.0166,0.0014 -0.005,-0.182605 -0.0482,-0.408886 z"
         id="path508"
         sodipodi:nodetypes="sssssssssscssscsssssssscssssssssscssscsssssscssssssscssssssssscsssccssssssscssscsscsscsssscsssssssssssssssssssscsssssssssscsssssssscsscsscscssssscssscsscssssssscsssssssscsscsssscsscssscsscscsscssssccsssscssssscscsccssscsscssssscssssscssssssssssssssssssssssssssscsssssssssssscssssscssssssssssscssssssccssssssssscsssscssssssscsssccsssssscsssscssssssssscssscssssssscsssssscssscssscsssssscscsssssscssssscssssssssscssssssssssscsssscsssccsscssssssssssssssscsssscssssccccssscsssscsssssssssssssssscsscssssssssssssssscsssssssssccsssssssscsscssssssssssssssssssssssssscsssssssssccsssssssssssscsscccssscccsssssccssscsscsscssscssssssccssssscscsssccsssccssscssssssssssssscsssssssssssssssssssssssssssssssssssssccssssscssssssscssssscsscsssscsscsscccsscsssssssscsssssssccssscc" />
      <path
         style="vector-effect:non-scaling-stroke;fill:none;stroke:#ff0000;stroke-width:0.264583;stroke-dasharray:none;stroke-opacity:1;-inkscape-stroke:hairline"
         d="m 57.941318,64.928482 c -0.44971,-0.125602 -0.87403,-0.68832 -0.79537,-1.054799 0.0169,-0.07892 0.23064,-1.029757 0.47488,-2.112966 0.42332,-1.877424 0.82711,-3.670108 1.345,-5.971424 0.12969,-0.576259 0.23579,-1.06722 0.23579,-1.09102 0,-0.07008 -0.48688,-0.287682 -0.50721,-0.226691 -0.0416,0.124891 -0.54515,0.925179 -0.74543,1.184781 -0.91064,1.180352 -2.24905,1.536326 -3.74087,0.994946 -1.51624,-0.550241 -2.75106,-1.662149 -3.47741,-3.13127 -0.5439,-1.100114 -0.80169,-2.50681 -0.5499,-3.00069 l 0.10093,-0.19797 -0.1589,-0.281549 c -0.35448,-0.628114 -0.19927,-1.529758 0.35283,-2.049669 0.32598,-0.306967 0.93097,-0.46441 1.29086,-0.335932 l 0.20956,0.07481 0.062,-0.395588 c 0.0773,-0.492791 0.30048,-0.958465 0.47106,-0.982905 0.18461,-0.02645 0.41873,0.09287 0.45342,0.231081 0.021,0.08368 0.068,0.123008 0.14701,0.123008 0.0639,0 0.26997,0.08163 0.45797,0.181398 0.26064,0.138314 0.40406,0.181401 0.60384,0.181401 0.19242,0 0.262,0.01965 0.262,0.07398 0,0.108199 -0.24107,0.279954 -0.48521,0.345696 l -0.21253,0.05723 0.15452,0.07867 c 0.40036,0.203849 0.64473,0.634677 0.68657,1.210462 0.0281,0.386983 -0.0713,0.804948 -0.28587,1.201381 -0.0734,0.135543 -0.12377,0.253836 -0.11204,0.262873 0.0117,0.009 0.12892,0.078 0.26041,0.153243 0.45601,0.260956 0.71056,0.651333 0.87933,1.348532 0.10855,0.448444 0.30201,1.020856 0.34503,1.020856 0.014,0 0.16861,-0.121083 0.34352,-0.269071 0.1749,-0.14799 0.33748,-0.285245 0.36128,-0.305014 0.0238,-0.01977 -0.0173,-0.131921 -0.0914,-0.249227 -0.53152,-0.841995 -0.8041,-2.060075 -0.65731,-2.937374 0.1449,-0.865931 0.32799,-1.294974 1.62977,-3.818924 0.17703,-0.343228 0.21047,-0.460746 0.23074,-0.810784 l 0.0237,-0.409374 -0.17478,-0.03603 c -0.30256,-0.06237 -0.99965,-0.425572 -1.42445,-0.742163 -1.2508,-0.932204 -2.32589,-2.492755 -3.042,-4.415644 -1.28778,-3.457954 -1.22234,-6.543793 0.1986,-9.36452 0.5063,-1.005055 0.94158,-1.608638 1.73385,-2.404228 1.14106,-1.14585 2.26632,-1.762464 3.54774,-1.944085 l 0.25563,-0.03623 -0.29302,0.345393 c -0.35852,0.422597 -0.51692,0.691701 -0.63832,1.084396 -0.0838,0.270954 -0.0855,0.322263 -0.0179,0.515831 0.11807,0.337669 0.31969,0.427461 0.95624,0.425854 0.79707,-0.002 1.49189,-0.213934 1.89549,-0.578132 0.25431,-0.229488 0.35903,-0.445968 0.35903,-0.742178 0,-0.282213 -0.0929,-0.485975 -0.38407,-0.842208 l -0.24356,-0.298002 0.27495,3.92e-4 c 0.95602,0.0014 2.02546,0.449631 3.18874,1.336607 1.54293,1.176452 2.83068,3.160829 3.5888,5.530234 0.156,0.487586 0.47059,1.739834 0.5424,2.159165 0.0312,0.182043 0.0429,0.19112 0.28916,0.224994 0.34089,0.04689 0.62517,-0.0046 1.05375,-0.190787 0.19499,-0.08472 0.36478,-0.143792 0.3773,-0.131274 0.0125,0.01252 -0.1375,0.230024 -0.33338,0.483348 -0.33888,0.438262 -0.8619,0.967348 -1.12975,1.142848 -0.1099,0.07201 -0.12394,0.119966 -0.12443,0.425049 -7.9e-4,0.424548 -0.12389,1.607186 -0.2343,2.249116 -0.18733,1.089091 -0.49513,2.073259 -0.90683,2.899485 -0.35501,0.712439 -0.62486,1.093196 -1.12078,1.58137 l -0.4326,0.425852 10e-4,0.584796 c 0.001,0.56259 0.0783,1.58871 0.12257,1.632974 0.0118,0.01177 0.13078,-0.06211 0.26448,-0.164162 1.40392,-1.071634 3.44426,-1.357427 5.34832,-0.749144 0.63846,0.203964 1.36674,0.541756 1.82531,0.846613 1.73131,1.150969 2.93869,3.490291 3.22329,6.245163 0.0754,0.729933 0.0343,2.183059 -0.08,2.828017 -0.39133,2.208409 -1.40665,3.901191 -2.87906,4.800096 l -0.30694,0.187389 0.25696,0.03043 c 0.32847,0.0389 0.6509,0.18205 0.89724,0.39834 0.22975,0.201717 0.34208,0.400291 0.42094,0.744114 l 0.0578,0.251958 0.31565,-0.485186 c 0.17361,-0.266851 0.41746,-0.659832 0.5419,-0.873287 l 0.22625,-0.388103 0.0382,0.414017 c 0.10761,1.165592 -0.21764,2.320293 -0.8047,2.85683 l -0.27608,0.252323 0.14552,0.120521 c 0.32488,0.269049 0.22072,0.552669 -0.29089,0.792079 -0.83365,0.39011 -1.87506,0.398457 -2.61994,0.021 -0.1406,-0.07125 -0.38505,-0.234944 -0.5432,-0.363763 l -0.28756,-0.234219 v 0.316691 c 0,0.561478 -0.22889,0.845636 -0.84062,1.0436 -0.25675,0.08309 -0.51388,0.110782 -1.21719,0.131101 -1.4638,0.04229 -2.43288,-0.108397 -2.90729,-0.452056 -0.44056,-0.319145 -0.4809,-0.662813 -0.16289,-1.387921 0.32478,-0.740543 0.46787,-1.367648 0.50103,-2.195695 0.0474,-1.18287 -0.16222,-2.125072 -0.80206,-3.605827 -0.34102,-0.789193 -1.05302,-2.157063 -1.15589,-2.220638 -0.0274,-0.01692 -0.12544,0.02145 -0.21789,0.08528 -0.0924,0.06383 -0.17488,0.120695 -0.18319,0.126354 -0.008,0.0057 0.0676,0.283154 0.1687,0.616652 0.35955,1.186191 0.50713,2.362784 0.5009,3.993417 -0.007,1.960283 -0.30632,3.379702 -0.83934,3.986776 -0.19302,0.219833 -0.62656,0.392706 -0.98486,0.392706 -0.16225,0 -0.26599,0.02417 -0.27805,0.06479 -0.0106,0.03563 -0.0478,0.175578 -0.0829,0.310992 -0.0886,0.342662 -0.28848,0.629625 -0.53805,0.772351 -0.20884,0.119434 -0.23558,0.121289 -1.92211,0.133461 -1.30594,0.0094 -1.76936,-0.0041 -1.95999,-0.05738 z"
         id="path509" />
    </g>
  </g>
</svg>
