<?xml version="1.0" encoding="UTF-8" standalone="no"?>
<!-- Created with Inkscape (http://www.inkscape.org/) -->

<svg
   width="41.008999mm"
   height="41.008999mm"
   viewBox="0 0 41.008999 41.008999"
   version="1.1"
   id="svg1"
   inkscape:version="1.4.2 (f4327f4, 2025-05-13)"
   sodipodi:docname="352.svg"
   xmlns:inkscape="http://www.inkscape.org/namespaces/inkscape"
   xmlns:sodipodi="http://sodipodi.sourceforge.net/DTD/sodipodi-0.dtd"
   xmlns="http://www.w3.org/2000/svg"
   xmlns:svg="http://www.w3.org/2000/svg">
  <sodipodi:namedview
     id="namedview1"
     pagecolor="#ffffff"
     bordercolor="#000000"
     borderopacity="0.25"
     inkscape:showpageshadow="2"
     inkscape:pageopacity="0.0"
     inkscape:pagecheckerboard="0"
     inkscape:deskcolor="#d1d1d1"
     inkscape:document-units="mm"
     inkscape:zoom="1.4513545"
     inkscape:cx="86.470947"
     inkscape:cy="71.657199"
     inkscape:window-width="1050"
     inkscape:window-height="1081"
     inkscape:window-x="857"
     inkscape:window-y="0"
     inkscape:window-maximized="0"
     inkscape:current-layer="layer1"
     showguides="false" />
  <defs
     id="defs1" />
  <g
     inkscape:label="Layer 1"
     inkscape:groupmode="layer"
     id="layer1"
     transform="translate(333.37504,1257.5646)">
    <g
       id="g627"
       transform="translate(-375.88128,-1282.0487)">
      <path
         style="vector-effect:non-scaling-stroke;fill:none;stroke:#ff0000;stroke-width:0.264583;stroke-dasharray:none;stroke-opacity:1;-inkscape-stroke:hairline"
         d="m 57.683746,64.757085 c -0.29898,-0.12401 -0.5436,-0.28517 -0.5436,-0.35815 0,-0.073 0.26093,-0.65163 0.57984,-1.28591 0.31892,-0.63429 0.57984,-1.19632 0.57984,-1.24896 0,-0.14082 -1.82428,0.0683 -2.80843,0.32195 -0.4683,0.1207 -0.95016,0.18158 -1.07079,0.13529 -0.53868,-0.20672 0.27905,-2.8191 1.1409,-3.64481 0.3173,-0.30399 0.66972,-0.44818 1.39998,-0.57281 l 0.97594,-0.16654 -0.906,-0.18516 c -0.49829,-0.10183 -0.90599,-0.23592 -0.90599,-0.29797 0,-0.20066 1.2581,-1.66407 1.935,-2.25078 l 0.65806,-0.57036 -0.34712,-1.17475 c -0.19091,-0.64611 -0.56066,-1.51826 -0.82165,-1.93812 -0.38847,-0.62491 -0.48477,-0.94428 -0.5309,-1.76069 -0.0457,-0.80868 -0.10173,-0.99732 -0.29627,-0.99732 -0.13195,0 -0.48969,-0.16973 -0.79499,-0.37719 -0.4334,-0.2945 -0.54101,-0.45078 -0.49091,-0.71287 0.0524,-0.27432 -0.0358,-0.38077 -0.48267,-0.58228 -0.69516,-0.31348 -1.33457,-0.97578 -1.26929,-1.31475 0.0315,-0.16337 -0.1853,-0.47874 -0.57758,-0.84033 -0.69009,-0.6361 -1.1027,-1.31002 -0.98688,-1.61185 0.0411,-0.107 0.283,-0.21528 0.53765,-0.2406 l 0.46301,-0.046 -0.99829,-0.83856 c -0.71794,-0.60305 -1.01145,-0.77607 -1.04516,-0.61607 -0.0796,0.37789 -0.28747,0.24616 -0.39236,-0.24865 -0.0549,-0.25912 -0.28842,-0.86154 -0.51888,-1.33872 -0.23046,-0.47718 -0.41901,-1.03997 -0.41901,-1.25065 0,-0.47893 0.30971,-0.77566 0.5543,-0.53107 0.28677,0.28678 0.20711,-0.92688 -0.10796,-1.64481 -0.33804,-0.77025 -0.51009,-1.63642 -0.38815,-1.95418 0.0749,-0.19524 0.20065,-0.14401 0.74867,0.30505 0.36224,0.29683 0.67906,0.51609 0.70404,0.48724 0.025,-0.0288 0.14537,-0.2471 0.26755,-0.485 l 0.22214,-0.43254 -0.92781,-0.98353 c -1.13907,-1.20747 -1.196,-1.48915 -0.2755,-1.36298 0.35877,0.0492 0.65232,0.0685 0.65232,0.0429 0,-0.0256 -0.13406,-0.5625 -0.29791,-1.19315 -0.52746,-2.03012 -0.3643,-4.64595 0.28203,-4.52177 0.15143,0.0291 0.4989,0.73104 0.98997,1.99991 l 0.75666,1.95508 0.004,-1.74994 c 0.004,-1.79799 0.2308,-2.89771 0.67152,-3.26348 0.16979,-0.14091 0.27756,-0.1128 0.55046,0.14358 0.26283,0.24691 0.41098,0.68474 0.65711,1.94199 0.17478,0.89276 0.48404,2.25161 0.68724,3.01966 l 0.36946,1.39646 0.8899,0.0938 c 0.48944,0.0515 1.24087,0.16341 1.66984,0.24854 0.86565,0.17179 1.02575,0.0772 1.02983,-0.60884 0.003,-0.53257 0.4381,-1.73858 0.65732,-1.8227 0.30889,-0.11853 1.58678,0.61886 2.28842,1.32049 0.91695,0.91695 1.38198,1.9366 1.5483,3.39486 0.0752,0.65976 0.21213,1.5824 0.30419,2.05032 0.1609,0.81784 0.14785,1.67755 -0.0946,6.22936 -0.0527,0.9898 -0.0302,1.81427 0.0553,2.02944 0.14036,0.35298 0.15294,0.34357 0.48417,-0.3624 0.31679,-0.67518 0.34083,-0.90838 0.35127,-3.40656 0.0134,-3.2158 -0.0235,-3.08395 2.14042,-7.63952 1.53802,-3.23791 1.88398,-4.13475 2.41919,-6.27135 0.43255,-1.72681 0.64258,-2.17968 1.0109,-2.17968 0.22324,0 0.39086,0.18534 0.62274,0.68857 0.2807,0.60918 0.31736,0.93454 0.31801,2.82237 l 5.5e-4,2.13381 0.29945,-0.68421 c 0.16469,-0.37632 0.58154,-1.45625 0.92634,-2.39985 0.34479,-0.9436 0.71801,-1.7506 0.82939,-1.79334 0.60166,-0.23088 1.06145,0.99592 1.06145,2.83215 0,1.985 -0.98565,4.65612 -2.69697,7.30874 -0.34719,0.53816 -0.59167,0.97848 -0.54329,0.97848 0.0484,0 0.9114,-0.57629 1.9178,-1.28064 1.0064,-0.70434 1.98169,-1.36169 2.16731,-1.46076 1.23321,-0.6582 0.85884,1.27221 -0.58788,3.03132 -0.36064,0.4385 -1.08939,1.12292 -1.61947,1.52092 -0.53008,0.39801 -0.90431,0.74347 -0.83163,0.7677 0.0727,0.0242 0.7873,-0.12203 1.58805,-0.32501 0.80075,-0.20298 1.62347,-0.36905 1.82827,-0.36905 0.32245,0 0.37237,0.0623 0.37237,0.46488 0,0.72923 -1.50962,2.11655 -3.19657,2.93761 l -1.32151,0.64319 1.06158,0.0428 c 1.30126,0.0525 1.41828,0.26906 0.59196,1.09539 l -0.56302,0.56301 0.64906,0.7143 c 0.74258,0.81722 1.64175,2.59749 2.00813,3.97589 0.37304,1.40345 0.33696,3.94373 -0.0769,5.41594 -0.60146,2.13948 -1.55824,3.66902 -2.94073,4.70114 l -0.70573,0.52688 v 1.32371 c 0,1.11771 -0.043,1.3626 -0.27621,1.57367 -0.62004,0.56113 -2.7931,0.86844 -3.70075,0.52336 -0.40621,-0.15445 -0.47961,-0.57194 -0.24462,-1.39133 l 0.12722,-0.44358 -1.1057,0.20337 c -0.78521,0.14442 -1.21468,0.30636 -1.4817,0.55869 -0.2068,0.19543 -0.62904,0.4252 -0.93831,0.51059 -0.58767,0.16227 -0.97323,0.41541 -2.00734,1.31793 -0.34146,0.298 -0.85692,0.64047 -1.14549,0.76104 -0.69351,0.28977 -2.60411,0.27759 -3.32445,-0.0212 z"
         id="path571" />
      <circle
         style="fill:none;stroke:#0000ff;stroke-width:0.0731707;stroke-linecap:round;stroke-dasharray:none;stroke-opacity:1;paint-order:markers stroke fill"
         id="path13019-1-33-6-2-4-0-0-76-9-2-75-0-8-3"
         cx="55.907429"
         cy="34.527988"
         r="1.4634147" />
      <path
         style="fill:#000000;stroke-width:0.54788"
         d="m 57.683746,64.757082 c -0.29898,-0.12401 -0.5436,-0.28517 -0.5436,-0.35815 0,-0.073 0.26093,-0.65163 0.57984,-1.28591 0.31892,-0.63429 0.57984,-1.19632 0.57984,-1.24896 0,-0.14082 -1.82428,0.0683 -2.80843,0.32195 -0.4683,0.1207 -0.95016,0.18158 -1.07079,0.13529 -0.53868,-0.20672 0.27905,-2.8191 1.1409,-3.64481 0.3173,-0.30399 0.66972,-0.44818 1.39998,-0.57281 l 0.97594,-0.16654 -0.906,-0.18516 c -0.49829,-0.10183 -0.90599,-0.23592 -0.90599,-0.29797 0,-0.20066 1.2581,-1.66407 1.935,-2.25078 l 0.65806,-0.57036 -0.34712,-1.17475 c -0.19091,-0.64611 -0.56066,-1.51826 -0.82165,-1.93812 -0.38847,-0.62491 -0.48477,-0.94428 -0.5309,-1.76069 -0.0457,-0.80868 -0.10173,-0.99732 -0.29627,-0.99732 -0.13195,0 -0.48969,-0.16973 -0.79499,-0.37719 -0.4334,-0.2945 -0.54101,-0.45078 -0.49091,-0.71287 0.0524,-0.27432 -0.0358,-0.38077 -0.48267,-0.58228 -0.69516,-0.31348 -1.33457,-0.97578 -1.26929,-1.31475 0.0315,-0.16337 -0.1853,-0.47874 -0.57758,-0.84033 -0.69009,-0.6361 -1.1027,-1.31002 -0.98688,-1.61185 0.0411,-0.107 0.283,-0.21528 0.53765,-0.2406 l 0.46301,-0.046 -0.99829,-0.83856 c -0.71794,-0.60305 -1.01145,-0.77607 -1.04516,-0.61607 -0.0796,0.37789 -0.28747,0.24616 -0.39236,-0.24865 -0.0549,-0.25912 -0.28842,-0.86154 -0.51888,-1.33872 -0.23046,-0.47718 -0.41901,-1.03997 -0.41901,-1.25065 0,-0.47893 0.30971,-0.77566 0.5543,-0.53107 0.28677,0.28678 0.20711,-0.92688 -0.10796,-1.64481 -0.33804,-0.77025 -0.51009,-1.63642 -0.38815,-1.95418 0.0749,-0.19524 0.20065,-0.14401 0.74867,0.30505 0.36224,0.29683 0.67906,0.51609 0.70404,0.48724 0.025,-0.0288 0.14537,-0.2471 0.26755,-0.485 l 0.22214,-0.43254 -0.92781,-0.98353 c -1.13907,-1.20747 -1.196,-1.48915 -0.2755,-1.36298 0.35877,0.0492 0.65232,0.0685 0.65232,0.0429 0,-0.0256 -0.13406,-0.5625 -0.29791,-1.19315 -0.52746,-2.03012 -0.3643,-4.64595 0.28203,-4.52177 0.15143,0.0291 0.4989,0.73104 0.98997,1.99991 l 0.75666,1.95508 0.004,-1.74994 c 0.004,-1.79799 0.2308,-2.89771 0.67152,-3.263477 0.16979,-0.140914 0.27756,-0.112803 0.55046,0.143577 0.26283,0.24691 0.41098,0.68474 0.65711,1.94199 0.17478,0.89276 0.48404,2.25161 0.68724,3.01966 l 0.36946,1.39646 0.8899,0.0938 c 0.48944,0.0515 1.24087,0.16341 1.66984,0.24854 0.86565,0.17179 1.02575,0.0772 1.02983,-0.60884 0.003,-0.53257 0.4381,-1.73858 0.65732,-1.8227 0.30889,-0.11853 1.58678,0.61886 2.28842,1.32049 0.91695,0.91695 1.38198,1.9366 1.5483,3.39486 0.0752,0.65976 0.21213,1.5824 0.30419,2.05032 0.1609,0.81784 0.14785,1.67755 -0.0946,6.22936 -0.0527,0.9898 -0.0302,1.81427 0.0553,2.02944 0.14036,0.35298 0.15294,0.34357 0.48417,-0.3624 0.31679,-0.67518 0.34083,-0.90838 0.35127,-3.40656 0.0134,-3.2158 -0.0235,-3.08395 2.14042,-7.63952 1.53802,-3.23791 1.88398,-4.13475 2.41919,-6.27135 0.43255,-1.72681 0.64258,-2.179674 1.0109,-2.179674 0.22324,0 0.39086,0.185337 0.62274,0.688564 0.2807,0.60918 0.31736,0.93454 0.31801,2.82237 l 5.5e-4,2.13381 0.29945,-0.68421 c 0.16469,-0.37632 0.58154,-1.45625 0.92634,-2.39985 0.34479,-0.9436 0.71801,-1.7506 0.82939,-1.79334 0.60166,-0.23088 1.06145,0.99592 1.06145,2.83215 0,1.985 -0.98565,4.65612 -2.69697,7.30874 -0.34719,0.53816 -0.59167,0.97848 -0.54329,0.97848 0.0484,0 0.9114,-0.57629 1.9178,-1.28064 1.0064,-0.70434 1.98169,-1.36169 2.16731,-1.46076 1.23321,-0.6582 0.85884,1.27221 -0.58788,3.03132 -0.36064,0.4385 -1.08939,1.12292 -1.61947,1.52092 -0.53008,0.39801 -0.90431,0.74347 -0.83163,0.7677 0.0727,0.0242 0.7873,-0.12203 1.58805,-0.32501 0.80075,-0.20298 1.62347,-0.36905 1.82827,-0.36905 0.32245,0 0.37237,0.0623 0.37237,0.46488 0,0.72923 -1.50962,2.11655 -3.19657,2.93761 l -1.32151,0.64319 1.06158,0.0428 c 1.30126,0.0525 1.41828,0.26906 0.59196,1.09539 l -0.56302,0.56301 0.64906,0.7143 c 0.74258,0.81722 1.64175,2.59749 2.00813,3.97589 0.37304,1.40345 0.33696,3.94373 -0.0769,5.41594 -0.60146,2.13948 -1.55824,3.66902 -2.94073,4.70114 l -0.70573,0.52688 v 1.32371 c 0,1.11771 -0.043,1.3626 -0.27621,1.57367 -0.62004,0.56113 -2.7931,0.86844 -3.70075,0.52336 -0.40621,-0.15445 -0.47961,-0.57194 -0.24462,-1.39133 l 0.12722,-0.44358 -1.1057,0.20337 c -0.78521,0.14442 -1.21468,0.30636 -1.4817,0.55869 -0.2068,0.19543 -0.62904,0.4252 -0.93831,0.51059 -0.58767,0.16227 -0.97323,0.41541 -2.00734,1.31793 -0.34146,0.298 -0.85692,0.64047 -1.14549,0.76104 -0.69351,0.28977 -2.60411,0.27759 -3.32445,-0.0212 z m 3.45719,-0.40857 c 0.3616,-0.15109 0.5245,-0.36097 0.75123,-0.96789 0.62217,-1.6654 1.26585,-5.70762 1.41606,-8.89272 0.0963,-2.04273 0.21305,-2.64496 0.34525,-1.78153 l 0.0823,0.53782 0.59969,-0.26972 c 0.32984,-0.14835 0.85961,-0.50452 1.17726,-0.7915 0.69676,-0.62949 0.82377,-0.65665 0.50944,-0.10896 -0.22293,0.38843 -0.21993,0.44192 0.0508,0.90546 0.15825,0.27095 0.70663,0.83066 1.21863,1.2438 0.54,0.43574 0.98462,0.92293 1.05883,1.16022 0.0704,0.22498 0.12797,1.22445 0.12803,2.22105 8e-5,1.44821 -0.0784,2.15622 -0.39098,3.52654 -0.2151,0.943 -0.35914,1.7465 -0.32008,1.78555 0.0391,0.0391 0.6254,0.0751 1.303,0.0801 0.92538,0.007 1.3709,-0.0587 1.79013,-0.26347 l 0.55813,-0.27256 -0.0324,-1.41425 c -0.0368,-1.60627 -0.56001,-4.36535 -1.17734,-6.20842 -0.37678,-1.12487 -0.44719,-1.23262 -0.90408,-1.38346 l -0.49548,-0.16356 -0.0725,-2.18036 c -0.0399,-1.1992 -0.12174,-2.22944 -0.18195,-2.28943 -0.0602,-0.06 -0.52436,-0.0326 -1.03144,0.0608 -0.50707,0.0934 -1.13083,0.16988 -1.38613,0.16988 -0.39815,0 -0.45109,0.0412 -0.37219,0.28981 0.0715,0.2254 0.001,0.32478 -0.31639,0.4472 -0.46608,0.17964 -1.45079,0.0906 -1.69433,-0.15315 -0.12164,-0.12177 -0.007,-0.13884 0.44559,-0.0665 0.33508,0.0535 0.78272,0.0538 0.99475,5.5e-4 0.35947,-0.0902 0.36973,-0.11421 0.15181,-0.35501 -0.35886,-0.39653 -0.29378,-0.45269 0.52733,-0.455 1.3186,-0.004 3.50067,-0.66482 3.80164,-1.1518 0.0491,-0.0795 -0.20472,-0.21721 -0.57,-0.30919 -0.36223,-0.0912 -0.65861,-0.21295 -0.65861,-0.27053 0,-0.0576 0.37509,-0.18715 0.83352,-0.28795 1.08465,-0.23849 2.12254,-0.68423 2.45399,-1.05391 0.2631,-0.29346 0.26066,-0.29426 -0.71447,-0.2334 -0.53816,0.0336 -0.97768,0.0254 -0.97669,-0.0183 0.001,-0.0437 0.44438,-0.25845 0.98534,-0.47736 1.21352,-0.49106 2.27397,-1.15172 2.4867,-1.54922 0.15739,-0.29408 0.13198,-0.29965 -1.36681,-0.29965 -0.83995,0 -1.52718,-0.0564 -1.52718,-0.12527 0,-0.0689 0.30985,-0.24054 0.68856,-0.38144 1.32873,-0.49435 2.97067,-1.43132 3.73937,-2.13387 0.70428,-0.64367 1.06605,-1.19119 0.89806,-1.35918 -0.0352,-0.0352 -0.64455,0.0739 -1.35411,0.24247 -1.96984,0.46792 -3.24708,0.69144 -3.24708,0.56824 0,-0.0612 0.54984,-0.5107 1.22186,-0.99896 1.46768,-1.06634 2.40564,-2.0977 3.00125,-3.30012 0.68608,-1.38506 0.54446,-1.53108 -0.67159,-0.69249 -2.2364,1.54221 -4.18409,2.81711 -4.30374,2.81711 -0.0695,0 0.11611,-0.37509 0.41256,-0.83352 2.86326,-4.4277 3.8498,-7.47966 3.22275,-9.9699 -0.3068,-1.21843 -0.46482,-1.10072 -1.21936,0.90837 -0.92753,2.46968 -2.65293,6.30898 -2.67264,5.94708 -0.003,-0.0586 0.15272,-0.65359 0.34649,-1.32222 0.47923,-1.65374 0.67102,-3.53137 0.52209,-5.11138 -0.11602,-1.23085 -0.36021,-2.084981 -0.59609,-2.084981 -0.12584,0 -0.40147,0.835451 -0.86082,2.609281 -0.44722,1.72697 -0.78441,2.56698 -2.35669,5.87087 -1.92003,4.03467 -2.0024,4.34048 -1.96908,7.3102 0.0245,2.18286 -0.002,2.4738 -0.29411,3.18755 -0.17659,0.43199 -0.44817,0.96391 -0.60349,1.18205 -0.15533,0.21815 -0.2838,0.51702 -0.28548,0.66417 -0.003,0.23012 -0.44753,1.58127 -0.79528,2.41522 -0.10075,0.24161 -0.0695,0.23883 0.38053,-0.0339 0.87453,-0.53001 1.75278,-1.51283 2.2127,-2.47615 0.42622,-0.89273 0.44978,-1.03365 0.4484,-2.68176 -5.5e-4,-0.95673 -0.0299,-2.35922 -0.0647,-3.11664 -0.0496,-1.08051 -0.006,-1.54884 0.20439,-2.1744 0.31623,-0.94214 2.3871,-5.1355 2.48687,-5.03573 0.0379,0.0379 -0.24799,0.72898 -0.63524,1.53582 l -0.70408,1.46698 0.90394,-0.86801 c 0.49717,-0.47741 1.00906,-0.86801 1.13752,-0.86801 0.26554,0 0.51632,0.55306 0.51632,1.13866 0,0.57432 -0.39521,2.00616 -0.79594,2.88365 l -0.3474,0.76071 0.53284,-0.36207 c 0.64085,-0.43547 0.84247,-0.4513 1.04028,-0.0817 0.41705,0.77928 0.007,2.18133 -1.08107,3.69815 l -0.76411,1.06501 0.43842,-0.12573 c 0.53608,-0.15375 0.68706,-0.0733 0.68706,0.36595 0,0.58186 -0.90742,1.70583 -1.93689,2.39911 -0.57591,0.38783 -0.8792,0.67132 -0.74804,0.69918 0.51911,0.11029 0.0752,0.80825 -0.80288,1.26231 -0.682,0.35268 -1.58578,0.65079 -1.58578,0.52307 0,-0.0615 0.35693,-0.2598 0.79319,-0.44062 0.83925,-0.34785 1.52616,-0.81583 1.52616,-1.03975 0,-0.0739 -0.18482,-0.13443 -0.41072,-0.13443 -0.71064,0 -0.61523,-0.15883 0.40068,-0.66707 1.06772,-0.53416 2.25411,-1.66424 2.41339,-2.29884 0.13964,-0.55639 -0.006,-0.60359 -0.81203,-0.26308 -0.39686,0.16766 -0.72156,0.27059 -0.72156,0.22871 0,-0.0418 0.25223,-0.37872 0.56051,-0.74856 0.90782,-1.08908 1.60523,-2.27985 1.78083,-3.04057 0.17615,-0.76313 0.0799,-1.47331 -0.1997,-1.47331 -0.0947,0 -0.58271,0.42073 -1.08445,0.93494 -0.50172,0.51422 -0.91223,0.90602 -0.91223,0.87067 0,-0.0353 0.3009,-0.73331 0.66866,-1.55102 0.94992,-2.11214 1.33941,-4.31347 0.76318,-4.31347 -0.35316,0 -2.17159,2.02653 -2.55741,2.8501 l -0.39651,0.84638 v 3.40656 c 0,3.22046 -0.0182,3.45171 -0.33395,4.23306 -0.41709,1.03229 -1.3906,2.12892 -2.49505,2.81063 -0.90508,0.55864 -1.09527,0.86757 -1.44219,2.34246 -0.0984,0.41857 -0.22893,0.76104 -0.28995,0.76104 -0.061,0 -0.26921,-0.12448 -0.46263,-0.27663 -0.81157,-0.63838 -1.56533,-2.72718 -1.56976,-4.35007 l -0.002,-0.78526 1.05096,-1.00147 c 0.77949,-0.74277 0.86373,-0.85334 0.32616,-0.42801 -0.83764,0.66273 -1.30271,0.92418 -1.4255,0.80138 -0.0476,-0.0476 -0.12982,-0.46929 -0.18275,-0.93714 -0.0529,-0.46785 -0.12472,-0.85063 -0.15952,-0.85063 -0.2465,0 -0.60603,0.34327 -0.68371,0.6528 -0.0512,0.20379 -0.46137,1.20029 -0.91159,2.21445 -1.20433,2.71285 -1.18708,3.57432 0.10286,5.13524 0.42868,0.51875 1.81985,1.30216 2.62402,1.47767 0.34536,0.0754 0.39253,0.0288 0.53838,-0.53118 0.15177,-0.58277 0.15691,-0.5625 0.10176,0.40093 -0.1098,1.91785 -1.50885,6.03202 -3.1376,9.22672 -0.48637,0.95398 -0.8536,1.76522 -0.81607,1.80275 0.35507,0.35507 2.67187,0.34904 3.52923,-0.009 z m 6.61141,-13.52084 c -0.10191,-0.17939 -0.2788,-0.32616 -0.39308,-0.32616 -0.12592,0 -0.17463,-0.0864 -0.12364,-0.21929 0.0463,-0.12061 0.004,-0.3163 -0.0948,-0.43487 -0.14586,-0.17576 -0.13546,-0.2156 0.0563,-0.2156 0.13854,0 0.23519,-0.11913 0.23519,-0.28992 0,-0.37146 0.24291,-0.37645 0.36005,-0.007 0.0584,0.18408 0.16974,0.2518 0.31946,0.19435 0.15672,-0.0602 0.20669,-0.0232 0.15713,0.11611 -0.0399,0.11236 -0.014,0.31845 0.0578,0.45798 0.0955,0.18568 0.0734,0.25368 -0.0824,0.25368 -0.12426,0 -0.23243,0.16598 -0.2598,0.39864 l -0.0469,0.39864 z m -4.93394,12.1904 c 0.18439,-0.16686 0.26442,-0.4427 0.26288,-0.906 -0.004,-1.12858 -0.21224,-1.10028 -0.45506,0.0618 -0.12459,0.59626 -0.19196,1.08411 -0.14972,1.08411 0.0422,0 0.1961,-0.10795 0.3419,-0.2399 z m 1.89392,-0.91561 c 0.24885,-0.19574 0.43618,-0.57599 0.59474,-1.20721 0.39138,-1.55807 0.67444,-3.59448 0.67505,-4.85642 l 5.5e-4,-1.20332 -0.49745,-0.20785 c -0.66278,-0.27693 -0.70394,-0.37694 -0.45381,-1.10295 0.11749,-0.34102 0.2002,-0.62937 0.1838,-0.64077 -0.0164,-0.0114 -0.37228,0.13714 -0.79086,0.33008 l -0.76104,0.35082 v 1.17492 c 0,0.81227 0.0637,1.24555 0.20629,1.40377 0.17973,0.1994 0.15089,0.39676 -0.22412,1.53349 -0.39929,1.21034 -0.42408,1.40942 -0.343,2.75424 0.048,0.79728 0.1207,1.56375 0.16141,1.70328 0.10119,0.34689 0.78909,0.32922 1.24841,-0.0321 z m -6.96624,-0.65106 c 0.92855,-0.10852 0.97596,-0.14844 1.42371,-1.19894 0.25226,-0.59185 0.30176,-0.90263 0.22514,-1.41355 l -0.0982,-0.65489 -1.04205,0.0871 c -1.32423,0.11075 -2.12804,0.31051 -2.47583,0.61527 -0.24804,0.21734 -1.14561,1.91296 -1.05865,1.99991 0.0199,0.0199 0.29535,-0.0238 0.61203,-0.0972 0.31667,-0.0734 1.13023,-0.12805 1.80792,-0.12141 l 1.23216,0.0121 -1.63259,0.19776 c -1.85144,0.22426 -2.20884,0.36142 -2.20884,0.84771 v 0.34155 l 1.19591,-0.25959 c 0.65776,-0.14278 1.56644,-0.3029 2.0193,-0.35582 z m 9.11773,-0.22502 c 0.89809,-0.17031 0.93959,-0.20253 1.07238,-0.83266 l 0.0995,-0.47242 -1.06276,0.38459 c -0.9781,0.35396 -1.42517,0.65208 -1.42517,0.95036 0,0.15639 0.37928,0.14778 1.316,-0.0299 z m 0.23689,-1.17718 c 0.46142,-0.17026 0.87129,-0.33851 0.91083,-0.37387 0.0396,-0.0353 0.10549,-0.51676 0.14658,-1.06977 0.0636,-0.85668 0.0423,-0.99302 -0.14436,-0.92135 -0.12048,0.0462 -0.58433,0.1857 -1.03078,0.30985 l -0.81173,0.22574 -0.16675,0.905 c -0.26578,1.44247 -0.27857,1.43169 1.09621,0.9244 z m 5.9306,-1.64652 c 0.42877,-0.42878 0.97784,-1.19977 1.27585,-1.79154 0.55667,-1.1054 1.09524,-3.06286 1.09692,-3.98679 0.002,-0.81669 -0.39556,-2.22224 -0.89135,-3.15543 -0.77119,-1.45155 -2.44552,-2.88133 -3.37416,-2.88133 -0.43344,0 -0.4285,0.008 0.29605,0.49622 1.30661,0.87993 2.03294,2.01724 2.53036,3.96215 0.68878,2.69309 0.0621,5.53209 -1.66645,7.5489 -0.36431,0.42508 -0.66239,0.80246 -0.66239,0.83862 0,0.17593 0.72152,-0.35715 1.39517,-1.0308 z m -0.74476,-0.10958 c 1.2268,-1.43132 1.75941,-3.28313 1.6283,-5.66134 -0.14133,-2.56339 -1.05139,-4.42535 -2.64111,-5.40366 -0.36311,-0.22346 -0.33391,-0.16753 0.17695,0.33893 1.20188,1.19151 1.85568,3.00045 1.84648,5.10888 -0.008,1.74997 -0.29378,2.70952 -1.22178,4.097 -0.63035,0.94244 -0.70802,1.13959 -0.63244,1.60533 0.0474,0.29202 0.13777,0.53094 0.20086,0.53094 0.0631,0 0.35232,-0.27723 0.64274,-0.61608 z m -11.74239,-1.79998 c 0.54532,-1.80965 0.60117,-2.48305 0.21999,-2.65243 -0.11959,-0.0531 -0.67905,-0.32772 -1.24323,-0.61015 l -1.0258,-0.51353 0.2691,0.95793 c 0.36756,1.30841 0.79247,3.25925 0.91642,4.20748 0.12629,0.96605 0.17963,0.88024 0.86352,-1.3893 z m -1.31191,0.85774 c -0.26453,-1.50674 -0.28351,-1.55253 -0.70476,-1.70068 -0.38769,-0.13634 -0.45835,-0.0934 -1.18732,0.72166 l -0.77511,0.86663 0.90362,0.30731 c 0.497,0.16902 1.11859,0.31662 1.38132,0.32799 0.47477,0.0205 0.4771,0.0174 0.38225,-0.52291 z m 8.27253,0.26454 0.72481,-0.2566 -0.0457,-0.78312 c -0.0766,-1.31316 -0.0635,-1.29846 -0.91763,-1.02532 -0.83965,0.26851 -0.99363,0.52092 -0.99363,1.62874 0,0.8253 0.0667,0.84891 1.23216,0.4363 z m 4.49758,-1.09425 c 0.76005,-1.18816 1.08365,-2.32633 1.08166,-3.80443 -0.002,-1.80423 -0.49213,-3.43614 -1.38066,-4.60105 -0.36835,-0.48295 -1.87308,-1.3651 -2.04139,-1.19678 -0.044,0.044 0.0535,0.1516 0.21684,0.23901 0.16331,0.0874 0.26256,0.24848 0.22056,0.35795 -0.0436,0.11362 0.22822,0.50362 0.63348,0.90888 0.89575,0.89576 1.19321,1.72052 1.19321,3.30845 0,1.29214 -0.27275,2.43118 -0.80117,3.34588 -0.33751,0.5842 -0.33873,0.60156 -0.1042,1.47686 0.13052,0.48714 0.29519,0.84994 0.36593,0.80622 0.0707,-0.0437 0.34782,-0.42217 0.61574,-0.84099 z m -8.38352,-0.0373 c -0.0368,-0.14104 -0.0692,-0.0607 -0.0722,0.17844 -0.003,0.23918 0.0271,0.35458 0.0668,0.25644 0.0397,-0.0981 0.0421,-0.29384 0.005,-0.43488 z m 3.94482,-1.2655 0.49375,-0.17037 -0.74961,-0.46125 c -0.57675,-0.35487 -0.90789,-0.4591 -1.43599,-0.45196 l -0.68638,0.009 0.46808,0.23303 c 0.3042,0.15144 0.52448,0.40391 0.62917,0.72114 0.17322,0.52484 0.12201,0.52004 1.28098,0.12014 z m -8.68399,-0.0142 c 0,-0.1243 -0.0652,-0.18568 -0.14496,-0.1364 -0.0797,0.0493 -0.14496,0.15097 -0.14496,0.22599 0,0.075 0.0652,0.1364 0.14496,0.1364 0.0797,0 0.14496,-0.1017 0.14496,-0.22599 z m 12.48953,-1.21493 c 0.23872,-0.61447 0.31522,-1.13314 0.32198,-2.18307 0.0104,-1.61259 -0.33752,-2.60809 -1.16559,-3.33513 -0.51897,-0.45567 -0.60954,-0.48781 -0.97708,-0.34677 -0.19454,0.0747 -0.17328,0.1785 0.14923,0.72882 0.32799,0.55966 0.36892,0.76884 0.31998,1.63506 -0.0459,0.81121 -0.14283,1.13276 -0.52906,1.75409 -0.26011,0.41843 -0.45412,0.76873 -0.43113,0.77844 0.73658,0.31093 0.9388,0.53008 1.26761,1.37373 0.40889,1.04909 0.49156,1.01701 1.04406,-0.40517 z m -5.24249,-0.26235 c -5.3e-4,-0.0598 -0.12,-0.28926 -0.26549,-0.50991 l -0.26454,-0.40118 -0.16939,0.37176 c -0.25188,0.55281 -0.21286,0.64805 0.2655,0.64805 0.23918,0 0.43444,-0.0489 0.43392,-0.10872 z m 3.48052,-2.49387 c 0.22258,-0.80118 0.17103,-1.56067 -0.14843,-2.18686 -0.31724,-0.62183 -0.66805,-0.78802 -0.5233,-0.24791 0.048,0.17939 0.0904,1.04371 0.094,1.92072 0.006,1.43851 0.0275,1.56684 0.22076,1.31133 0.11779,-0.15577 0.27843,-0.51455 0.35697,-0.79728 z m -6.72356,-2.16558 c 0.38896,-0.98807 0.7292,-1.8687 0.75609,-1.95696 0.0569,-0.1867 -1.9989,3.22701 -2.11086,3.50517 -0.0413,0.10263 0.0454,0.31972 0.19261,0.48243 0.25409,0.28076 0.27249,0.28234 0.36134,0.0308 0.0515,-0.14574 0.41186,-1.0734 0.80082,-2.06147 z m 12.31854,0.49544 c -0.12388,-0.59899 -0.35082,-1.33408 -0.50432,-1.63353 -0.35969,-0.70166 -1.24341,-1.58251 -1.9521,-1.94576 -0.52857,-0.27093 -0.57168,-0.27278 -0.83353,-0.0358 -0.37931,0.34328 -0.35847,0.39521 0.30913,0.77043 0.92954,0.52242 1.95414,1.65428 2.51823,2.78183 0.28628,0.57225 0.52567,1.14584 0.53196,1.27465 0.007,0.14582 0.0387,0.16685 0.0837,0.0557 0.0397,-0.0982 -0.0291,-0.66855 -0.15302,-1.26754 z m -12.96644,-0.62227 c 1.13392,-1.95252 1.39008,-2.49545 1.48947,-3.15702 l 0.0861,-0.5731 -0.20435,0.52336 c -0.29738,0.76157 -0.87985,1.65572 -1.84792,2.83671 -0.78796,0.96128 -0.84011,1.06915 -0.68328,1.41336 0.0934,0.20496 0.20824,0.37148 0.25524,0.37005 0.047,-0.002 0.45413,-0.63744 0.90475,-1.41336 z m 0.76994,-2.55837 c 0.63613,-1.32225 0.80276,-2.01081 0.2201,-0.90952 -0.24503,0.46313 -0.92883,1.34794 -1.51954,1.96624 -0.89433,0.93607 -1.05889,1.18211 -0.98349,1.47042 0.0856,0.32726 0.1371,0.29562 0.93974,-0.57706 0.48236,-0.52443 1.0626,-1.36686 1.34319,-1.95008 z m -5.81047,0.77728 c -0.38397,-0.41216 -0.43563,-0.65463 -0.16381,-0.76885 0.12846,-0.054 0.10483,-0.12431 -0.0812,-0.2416 -0.61508,-0.38784 -1.25968,-1.06126 -1.25968,-1.31599 0,-0.21151 0.10492,-0.27491 0.455,-0.27491 h 0.455 l -0.70868,-0.67788 c -0.38978,-0.37284 -0.76594,-0.66361 -0.83593,-0.64615 -0.07,0.0175 -0.0937,-0.0966 -0.0526,-0.25351 0.056,-0.21409 0.0182,-0.26359 -0.1516,-0.19844 -0.16665,0.064 -0.20169,0.0229 -0.1331,-0.15581 0.062,-0.16159 0.0191,-0.24261 -0.12836,-0.24261 -0.12179,0 -0.18508,-0.0588 -0.14064,-0.13074 0.0444,-0.0719 -0.1474,-0.46985 -0.42632,-0.88432 -0.27892,-0.41447 -0.50713,-0.81924 -0.50713,-0.89949 0,-0.0802 -0.10511,-0.10557 -0.23358,-0.0563 -0.16714,0.0641 -0.20966,0.0273 -0.14951,-0.12945 0.0592,-0.15427 -0.0111,-0.22045 -0.23754,-0.22369 -0.30087,-0.004 -0.30498,-0.0173 -0.0637,-0.2003 0.23175,-0.17581 0.23422,-0.20479 0.0244,-0.28531 -0.12845,-0.0493 -0.37173,-0.0896 -0.54061,-0.0896 -0.23882,0 -0.2684,0.0387 -0.13311,0.17395 0.25467,0.25467 0.2125,0.38883 -0.0968,0.30794 -0.19521,-0.0511 -0.36276,0.0781 -0.60058,0.46288 l -0.32983,0.53368 0.63682,0.56813 c 0.35025,0.31247 1.02821,0.84414 1.50657,1.18149 l 0.86976,0.61337 -0.89072,0.0427 c -0.80283,0.0385 -0.8834,0.0707 -0.8166,0.32622 0.0787,0.30105 1.70186,1.8779 1.93303,1.8779 0.28459,0 0.12219,0.27187 -0.18946,0.31715 -0.32155,0.0467 -0.32024,0.053 0.0924,0.44385 0.23024,0.21805 0.7684,0.50671 1.19592,0.64148 0.83159,0.26214 0.95537,0.40595 0.47941,0.55701 -0.43198,0.13711 -0.28453,0.38663 0.4501,0.76168 l 0.64508,0.32933 0.23629,-0.54677 c 0.23023,-0.53274 0.22744,-0.55627 -0.10872,-0.9171 z m 5.83559,-1.80419 c 0.68686,-1.31374 0.7366,-1.70446 0.0923,-0.72467 -0.5335,0.81121 -1.28366,1.59072 -2.26291,2.35144 -0.35602,0.27656 -0.39742,0.38293 -0.30782,0.79087 l 0.10352,0.47132 0.96014,-1.00966 c 0.52808,-0.55531 1.16474,-1.401 1.41482,-1.8793 z m -4.76066,0.61594 c 0.72698,-1.76794 0.76656,-1.63053 -0.46969,-1.63053 -1.0147,0 -1.0621,0.0142 -0.84519,0.25367 0.21541,0.23781 0.19177,0.25368 -0.37761,0.25368 -0.56412,0 -0.59626,0.0208 -0.45099,0.29227 0.086,0.16075 0.52357,0.49947 0.9723,0.75272 0.80489,0.45425 0.81065,0.46219 0.42852,0.58957 -0.21305,0.071 -0.38736,0.18568 -0.38736,0.2548 0,0.15792 0.46731,0.42707 0.59957,0.34533 0.0541,-0.0334 0.29282,-0.53362 0.53045,-1.11151 z m 3.4083,0.041 c 0.54184,-0.50687 1.11731,-1.22616 1.3894,-1.73665 0.47432,-0.88992 0.88045,-2.4316 0.88025,-3.34148 l -1.1e-4,-0.50736 -0.43822,0.79728 c -0.49709,0.90438 -1.75928,2.24496 -2.60443,2.76617 -0.49744,0.30677 -0.56878,0.41887 -0.57219,0.89917 -0.004,0.52254 0.0114,0.54047 0.31843,0.37619 0.4985,-0.26679 1.82196,-1.56676 2.17249,-2.13394 0.49736,-0.80474 0.48275,-0.24641 -0.0203,0.7754 -0.31317,0.63614 -0.74749,1.19243 -1.39235,1.78332 -0.87262,0.7996 -1.13297,1.18712 -0.79756,1.18712 0.0768,0 0.55588,-0.38935 1.06459,-0.86522 z m 12.17996,0.13783 c -0.14214,-0.24062 -0.50078,-0.67413 -0.79697,-0.96336 -0.51942,-0.50719 -0.55518,-0.51898 -1.00688,-0.33188 -0.28211,0.11686 -0.3889,0.22048 -0.26854,0.2606 0.1099,0.0367 0.65929,0.38172 1.22088,0.76685 0.56158,0.38513 1.04106,0.70137 1.06549,0.70275 0.0244,0.002 -0.0719,-0.19435 -0.21398,-0.43496 z m -14.39892,-2.43987 c 0.36118,-0.17035 0.55291,-0.38548 0.66544,-0.74665 0.12216,-0.39206 0.30803,-0.58046 0.81787,-0.82902 0.88667,-0.43227 1.53267,-1.1069 1.98147,-2.0693 0.30719,-0.65873 0.37716,-1.03876 0.40054,-2.17543 0.0156,-0.7575 0.0981,-1.56084 0.18342,-1.7852 0.24165,-0.63558 0.18373,-1.71539 -0.14995,-2.79574 -0.2628,-0.85085 -0.43848,-1.12056 -1.2684,-1.94742 -0.52984,-0.52787 -1.17792,-1.03368 -1.44017,-1.124 -0.4496,-0.15484 -0.48556,-0.14178 -0.62991,0.22887 -0.43465,1.11607 -0.26199,3.06505 0.31804,3.58998 0.2502,0.22643 0.24927,0.19858 -0.0168,-0.50166 -0.15494,-0.40776 -0.27596,-1.01792 -0.26894,-1.35591 0.0126,-0.60557 0.0163,-0.60079 0.2579,0.32772 0.27878,1.07155 0.77948,2.03625 1.18987,2.29254 0.26868,0.16779 0.27899,0.11811 0.27899,-1.34403 0,-1.49152 -0.008,-1.52729 -0.4499,-2.03067 -0.24744,-0.28182 -0.38466,-0.5124 -0.30494,-0.5124 0.21031,0 1.03922,0.98089 1.07613,1.27344 0.0173,0.13675 0.0336,0.83072 0.0362,1.54217 l 0.005,1.29353 0.4829,0.12702 c 0.41251,0.10851 0.45603,0.15939 0.29859,0.3491 -0.10137,0.12214 -0.55732,0.41037 -1.01322,0.64051 l -0.82892,0.41844 0.27535,0.54008 c 0.15144,0.29704 0.31618,0.75772 0.36608,1.02372 0.0731,0.38975 0.14347,0.4669 0.3624,0.39741 0.52174,-0.16559 0.63906,0.12322 0.12129,0.29861 -0.46495,0.1575 -0.47688,0.17636 -0.17319,0.27369 0.41493,0.13298 0.42382,0.37491 0.0138,0.37491 -0.3032,0 -0.30467,0.009 -0.05,0.28992 0.25542,0.28223 0.25313,0.29015 -0.0863,0.29878 -0.23776,0.006 -0.48731,0.20196 -0.7847,0.61608 -0.48365,0.67347 -1.54025,1.29107 -2.10073,1.2279 -0.27774,-0.0313 -0.45557,-0.22708 -0.76128,-0.83812 -0.73312,-1.46533 -0.8503,-2.89707 -0.33461,-4.08809 0.0932,-0.21517 0.0358,-0.23579 -0.44961,-0.16164 -0.30603,0.0467 -0.94371,0.23968 -1.41707,0.42872 -0.66867,0.26705 -0.88803,0.3031 -0.98331,0.16165 -0.0675,-0.10015 -0.10416,-0.84531 -0.0816,-1.65592 0.0348,-1.24995 0.004,-1.49682 -0.20155,-1.62512 -0.21845,-0.13621 -0.23481,-0.0756 -0.16421,0.60847 0.0614,0.59537 0.0269,0.8025 -0.15967,0.95735 -0.21838,0.18123 -0.21889,0.21881 -0.006,0.45385 0.17704,0.19563 0.20863,0.41144 0.13355,0.91216 -0.0829,0.55297 -0.18699,0.71456 -0.66314,1.02966 -0.6576,0.43518 -0.7589,0.80142 -0.19167,0.69298 0.30831,-0.0589 0.51601,0.0768 1.19592,0.78171 0.45255,0.46917 1.00234,1.20866 1.22176,1.64332 l 0.39895,0.79029 -0.53348,0.54633 c -0.51858,0.53108 -0.5262,0.55437 -0.2727,0.83448 0.14343,0.15849 0.48834,0.36326 0.76646,0.45505 0.69397,0.22903 1.25112,-0.16521 1.31626,-0.93141 0.0565,-0.665 0.3174,-0.69902 0.3174,-0.0414 0,0.27874 -0.13276,0.6566 -0.30976,0.88162 l -0.30977,0.39381 0.70841,-0.0987 c 0.38962,-0.0543 0.93672,-0.20641 1.21576,-0.33801 z m -2.67352,-0.78289 c 0.1288,-0.41902 0.15818,-0.44729 0.34491,-0.33188 0.10812,0.0668 0.1095,0.18081 0.004,0.37691 -0.21009,0.39256 -0.47352,0.35861 -0.34945,-0.045 z m 5.54432,-0.45355 c 1.32634,-1.40432 1.89118,-3.07951 1.70443,-5.05493 -0.0584,-0.61789 -0.16588,-1.12344 -0.2388,-1.12344 -0.0729,0 -0.13259,0.57525 -0.13259,1.27833 0,2.2097 -0.70649,3.74166 -2.08453,4.52012 -0.40821,0.2306 -0.81988,0.47169 -0.91482,0.53577 -0.095,0.0641 -0.21789,0.43553 -0.2732,0.82545 l -0.10056,0.70895 0.63559,-0.43808 c 0.34958,-0.24094 0.98159,-0.80442 1.40448,-1.25217 z m -6.56727,-0.25882 c -0.38854,-0.21436 -1.08721,-0.87036 -1.08721,-1.0208 0,-0.0663 0.16309,-0.0797 0.3624,-0.0296 0.61859,0.15525 0.39293,-0.52669 -0.44771,-1.353 -0.5947,-0.58456 -0.72601,-0.4089 -0.43713,0.5848 0.26416,0.90869 1.1278,1.98939 1.5847,1.983 0.30828,-0.004 0.3088,-0.008 0.0249,-0.16436 z m 4.24375,-0.80213 c 0.51348,-0.24366 0.51501,-0.24706 0.15434,-0.34352 -1.09062,-0.29168 -1.71634,-1.27905 -1.71634,-2.70831 0,-0.48787 0.0673,-1.06407 0.14958,-1.28046 0.12933,-0.34014 0.12051,-0.36929 -0.0651,-0.21527 -0.62794,0.52115 -0.67932,2.70799 -0.0948,4.03262 0.3798,0.86059 0.65433,0.95051 1.57224,0.51494 z m -8.29292,-1.88144 c 0.30094,-0.39455 0.35269,-0.62144 0.35269,-1.54635 0,-0.65386 0.10816,-1.43149 0.2726,-1.95984 0.26254,-0.84354 0.26296,-0.8846 0.0113,-1.11232 -0.24381,-0.22064 -0.27723,-0.21207 -0.50018,0.1282 -0.63505,0.9692 -0.84495,1.86644 -0.90388,3.86361 -0.0553,1.87334 -0.0477,1.93842 0.1785,1.52303 0.12994,-0.23867 0.39495,-0.64201 0.58893,-0.89633 z m 9.30434,0.97142 c 0.16696,-0.26736 0.15528,-0.27563 -0.17604,-0.12467 -0.49049,0.22348 -1.15222,-0.0688 -1.52634,-0.6741 -0.37833,-0.61215 -0.37006,-0.65439 0.12817,-0.65439 0.24869,0 0.45518,-0.0933 0.50736,-0.2293 0.17821,-0.4644 0.0798,-1.19162 -0.21135,-1.56175 -0.16464,-0.2093 -0.25918,-0.44553 -0.21009,-0.52496 0.0573,-0.0927 -0.0302,-0.10074 -0.24426,-0.0225 -0.46513,0.17001 -0.69127,0.6857 -0.69377,1.58214 -0.003,0.90493 0.24174,1.54964 0.79461,2.09726 0.50262,0.49785 1.35431,0.55646 1.63171,0.11228 z m -7.25717,-0.98204 c -0.0365,-0.13953 -0.0663,-0.0254 -0.0663,0.25368 0,0.27905 0.0298,0.3932 0.0663,0.25368 0.0365,-0.13953 0.0365,-0.36784 0,-0.50736 z m -3.34676,-0.84732 c -0.11583,-0.30184 -0.37716,-0.24679 -0.37716,0.0795 0,0.15571 0.0815,0.4641 0.1812,0.68533 l 0.1812,0.40223 0.0465,-0.48169 c 0.0255,-0.26493 0.0113,-0.57333 -0.0317,-0.68533 z m 2.667,0.38521 c 0,-0.0748 -0.13047,-0.12612 -0.28992,-0.11411 -0.15946,0.012 -0.28992,0.0732 -0.28992,0.13595 0,0.0628 0.13046,0.11411 0.28992,0.11411 0.15945,0 0.28992,-0.0612 0.28992,-0.13595 z m 7.82783,-0.25544 c 0,-0.29152 -0.0419,-0.34949 -0.16421,-0.22718 -0.0903,0.0903 -0.12498,0.26644 -0.077,0.39139 0.1327,0.34581 0.24124,0.27193 0.24124,-0.16421 z m -8.45663,-0.51461 c -0.0402,-0.0997 -0.0731,-0.0181 -0.0731,0.1812 0,0.19932 0.0329,0.28086 0.0731,0.1812 0.0402,-0.0997 0.0402,-0.26274 0,-0.3624 z m 1.28657,-1.31535 c 0.0983,-0.84684 0.0866,-0.89245 -0.30839,-1.20743 -0.2258,-0.18004 -0.43333,-0.30455 -0.46119,-0.27669 -0.13257,0.13256 -0.31758,2.06528 -0.2382,2.48839 l 0.0899,0.47895 0.40789,-0.30156 c 0.34066,-0.25186 0.42473,-0.44663 0.51004,-1.18166 z m 0.5019,-0.017 c 0,-0.35407 -0.0652,-0.68408 -0.14495,-0.73335 -0.0893,-0.0552 -0.14496,0.19177 -0.14496,0.64376 0,0.40334 0.0652,0.73335 0.14496,0.73335 0.0797,0 0.14495,-0.28969 0.14495,-0.64376 z m 1.51435,0.0411 c 0.36239,-0.16511 0.36686,-0.18675 0.27777,-1.34571 -0.0782,-1.01786 -0.0497,-1.25788 0.20981,-1.76663 0.1652,-0.3238 0.53478,-0.79456 0.8213,-1.04613 0.38224,-0.33561 0.45205,-0.45565 0.26222,-0.45085 -0.46507,0.0117 -1.06297,0.3485 -1.27526,0.71826 -0.7051,1.22811 -0.7891,1.52397 -0.79228,2.79047 -0.002,0.69762 0.0264,1.2684 0.0625,1.2684 0.0361,0 0.2314,-0.0755 0.43397,-0.16781 z m -5.15632,-1.66273 c -0.26696,-0.27544 -0.50797,-0.43305 -0.53557,-0.35024 -0.0276,0.0828 0.0965,0.59105 0.2757,1.12943 l 0.32589,0.97887 0.20968,-0.62864 0.20969,-0.62863 z m 6.90317,1.08198 c 0.027,-0.027 -0.0471,-0.40779 -0.16472,-0.84619 -0.30912,-1.1523 -0.19371,-2.08324 0.32545,-2.62512 0.33391,-0.34853 0.36019,-0.41645 0.12935,-0.33438 -0.45324,0.16115 -1.10305,0.81194 -1.32225,1.32424 -0.20115,0.47012 -0.26612,1.88014 -0.11293,2.45096 0.0725,0.26999 0.14543,0.29399 0.58935,0.19387 0.27865,-0.0628 0.52874,-0.13637 0.55575,-0.16338 z m 1.28142,-0.0597 c 0.18453,-0.0708 0.16456,-0.19726 -0.13169,-0.83352 -0.42503,-0.91289 -0.47998,-2.18041 -0.11214,-2.58687 0.22506,-0.24869 0.22138,-0.26509 -0.0596,-0.26509 -0.16473,0 -0.47487,0.20841 -0.68921,0.46313 -0.3601,0.42796 -0.38489,0.54082 -0.32635,1.48584 0.10216,1.64941 0.42801,2.07841 1.31898,1.73651 z m 1.63206,-0.14701 c 0.2713,-0.0728 0.21303,-0.16814 -0.54471,-0.8909 -0.96701,-0.92237 -1.28969,-1.65086 -0.9867,-2.22756 0.18232,-0.347 0.18212,-0.34711 -0.12841,-0.0714 -0.53694,0.47674 -0.29184,2.20771 0.43693,3.08583 0.16413,0.19776 0.703,0.24359 1.22289,0.10402 z m 1.57864,-0.43033 c 0.2974,-0.12426 0.51737,-0.24926 0.48883,-0.27778 -0.0285,-0.0285 -0.40577,-0.19131 -0.83825,-0.36177 -1.14252,-0.45029 -1.85828,-1.06756 -2.04592,-1.76437 -0.12985,-0.48223 -0.1918,-0.55129 -0.36533,-0.40727 -0.51922,0.43091 -0.13266,1.38323 0.96036,2.36595 0.81796,0.73541 0.99879,0.78014 1.80031,0.44524 z m -7.83765,-0.15198 c 0.26672,-0.10235 0.31786,-1.07021 0.08,-1.51459 -0.13357,-0.24959 -0.84523,-0.71677 -1.09184,-0.71677 -0.0527,0 -0.0547,0.21924 -0.004,0.48719 0.0502,0.26797 0.0339,0.64271 -0.0364,0.83276 -0.10783,0.2915 -0.0585,0.39669 0.3153,0.67248 0.50727,0.37425 0.44082,0.35272 0.73734,0.23893 z m -1.26393,-1.53661 c -0.0834,-0.62199 -0.39419,-1.05868 -0.83552,-1.17409 -0.24217,-0.0633 -0.28053,0.004 -0.28053,0.49495 0,0.45787 0.0913,0.6499 0.46983,0.9881 0.2584,0.23089 0.52679,0.38459 0.5964,0.34157 0.0696,-0.043 0.092,-0.33576 0.0498,-0.65053 z m 2.80004,-0.76285 c 0.27704,-0.33108 0.29328,-0.38279 0.0703,-0.22391 -0.61095,0.43534 -0.78752,0.62541 -0.70503,0.75889 0.047,0.076 0.12797,0.0836 0.17996,0.0169 0.052,-0.0667 0.25663,-0.31507 0.45476,-0.55184 z m -4.22751,-0.30559 c -0.188,-0.38588 -0.91386,-0.76871 -1.10158,-0.58099 -0.0496,0.0496 0.16328,0.34987 0.47314,0.6672 0.61672,0.63157 0.95549,0.5851 0.62844,-0.0862 z m 3.49703,0.45039 c 0.0973,-0.11726 0.48039,-0.41775 0.85127,-0.66775 l 0.67432,-0.45454 -0.80515,0.0612 c -0.44283,0.0337 -1.12026,0.2138 -1.50541,0.40024 l -0.70025,0.33899 0.49069,0.26144 c 0.60482,0.32226 0.76892,0.33222 0.99453,0.0604 z m -1.07709,-0.87009 c 0.37084,-0.19718 0.89615,-0.40014 1.16735,-0.45102 0.56555,-0.10609 0.6057,-0.28443 0.27506,-1.22158 -0.11992,-0.33987 -0.40975,-1.53985 -0.64407,-2.66662 -0.50685,-2.43726 -0.55477,-2.57774 -0.85942,-2.51945 -0.42958,0.0822 -0.62062,1.30829 -0.53726,3.44822 0.0419,1.07633 0.11944,2.17823 0.17226,2.44867 0.20246,1.03673 -0.22959,0.23677 -1.25714,-2.32762 -1.16638,-2.91086 -1.26996,-2.97924 -1.28115,-0.84585 -0.006,1.13022 0.36543,3.32727 0.63655,3.76595 0.11879,0.1922 1.19559,0.7194 1.48003,0.72462 0.0954,0.002 0.47694,-0.15814 0.84779,-0.35532 z"
         id="path570"
         sodipodi:nodetypes="cssssssscssscsssssscsscscssssssssscscscssssccssssccscssssssssssssccssssssscsssssssccscsssscscsscssssscccssscssssssssssscsssccscsscsscscsssssscsssssssssssssssscsssssscscscscsssscsssscssscssssssssssssssssssssscssssssccssssscsssssssccssscsssssssscsscsssssccsssscsssssssssscssssccsscssssscssssscssscsssscssssssssssssssssssscsssssscsssccsssscscssssssssssccsccccsscssscsssssscssssscsssscsssssssssssssssscsscssssccsscssscssssssscsssscssssssssssscssscsscsscsssssssscsccsssscsssssssssscscsscsscsssssccssssscssssscssssssscssssssccssscsssssssssssssssccsssssssscsssssscssscscccssssssscsscsssscccssssssssssssssssssssssccssssssscssccccssssssssssscssssscssssssssssscscssssscccssssssssssssssssssssssssssssscsscssccssssssssscssssssssscsscsssssssssssscs" />
    </g>
  </g>
</svg>
