<?xml version="1.0" encoding="UTF-8" standalone="no"?>
<!-- Created with Inkscape (http://www.inkscape.org/) -->

<svg
   width="41.008999mm"
   height="41.008999mm"
   viewBox="0 0 41.008999 41.008999"
   version="1.1"
   id="svg1"
   sodipodi:docname="140.svg"
   inkscape:version="1.4.2 (f4327f4, 2025-05-13)"
   xmlns:inkscape="http://www.inkscape.org/namespaces/inkscape"
   xmlns:sodipodi="http://sodipodi.sourceforge.net/DTD/sodipodi-0.dtd"
   xmlns="http://www.w3.org/2000/svg"
   xmlns:svg="http://www.w3.org/2000/svg">
  <sodipodi:namedview
     id="namedview1"
     pagecolor="#ffffff"
     bordercolor="#000000"
     borderopacity="0.25"
     inkscape:showpageshadow="2"
     inkscape:pageopacity="0.0"
     inkscape:pagecheckerboard="0"
     inkscape:deskcolor="#d1d1d1"
     inkscape:document-units="mm"
     showguides="false"
     inkscape:zoom="2"
     inkscape:cx="156.5"
     inkscape:cy="47.5"
     inkscape:window-width="1050"
     inkscape:window-height="1081"
     inkscape:window-x="857"
     inkscape:window-y="0"
     inkscape:window-maximized="0"
     inkscape:current-layer="layer1" />
  <defs
     id="defs1" />
  <g
     inkscape:label="Layer 1"
     inkscape:groupmode="layer"
     id="layer1"
     transform="translate(-70.643761,-99.218767)">
    <g
       id="g11703"
       transform="translate(414.00638,325.96681)">
      <path
         style="fill:#000000;stroke-width:0.1;stroke-dasharray:none"
         d="m -329.71074,-192.66677 c -0.0132,-0.0223 -0.0415,-0.19395 -0.0629,-0.38152 -0.0627,-0.55038 -0.26808,-0.56305 -0.81729,-0.0505 -0.0931,0.0869 -0.18283,0.13612 -0.19938,0.10936 -0.0622,-0.10065 -0.004,-1.60497 0.0678,-1.73598 0.0665,-0.12215 0.0632,-0.12739 -0.0572,-0.0947 -0.24508,0.0664 -1.41461,0.15389 -1.6196,0.12111 -0.40055,-0.0641 -0.77909,-0.24915 -1.21584,-0.59453 -0.68263,-0.5398 -1.15062,-1.23573 -1.15062,-1.71103 0,-0.55697 0.78586,-1.84829 1.5001,-2.46499 0.5668,-0.48937 1.2366,-0.84408 1.85539,-0.98256 0.45517,-0.10186 1.35531,-0.0437 2.09146,0.135 0.61178,0.14856 0.61778,0.14893 0.70155,0.0433 0.0465,-0.0585 0.19829,-0.2541 0.3374,-0.43448 0.14404,-0.18679 0.39957,-0.42601 0.59361,-0.55572 0.51247,-0.34259 0.62481,-0.46771 0.86926,-0.96815 0.12324,-0.25229 0.41292,-0.73998 0.64374,-1.08376 0.37827,-0.56337 0.41968,-0.65056 0.41968,-0.88367 0,-0.1633 -0.0525,-0.37549 -0.14228,-0.57568 l -0.14228,-0.31705 h -0.52292 -0.52293 l -0.4141,0.42553 c -0.22775,0.23404 -0.41409,0.46276 -0.41409,0.50826 0,0.0455 0.11108,0.21222 0.24684,0.37046 0.23129,0.2696 0.24437,0.30133 0.20765,0.50358 -0.0379,0.20874 -0.04,0.28936 -0.016,0.60799 0.0132,0.17559 -0.1074,0.44568 -0.2226,0.49843 -0.0445,0.0204 -0.13526,0.0651 -0.20164,0.0994 -0.0664,0.0343 -0.17903,0.0623 -0.25034,0.0623 -0.12538,0 -0.12965,-0.0134 -0.12965,-0.40548 0,-0.46674 -0.0551,-0.5659 -0.31464,-0.5659 -0.15136,0 -0.20476,0.0351 -0.32153,0.21158 -0.11084,0.16751 -0.13689,0.26588 -0.125,0.4722 l 0.015,0.26062 -0.19712,-0.006 c -0.30553,-0.009 -0.5113,-0.11778 -0.57623,-0.30403 -0.0824,-0.2365 -0.0722,-0.3539 0.0582,-0.66865 0.12696,-0.30629 0.10874,-0.47018 -0.0462,-0.41574 -0.16387,0.0576 -0.2829,0.2517 -0.28415,0.46346 -10e-4,0.26568 -0.11605,0.26727 -0.45106,0.006 -0.34907,-0.27197 -0.3467,-0.43695 0.0111,-0.77202 0.14454,-0.13536 0.28975,-0.29823 0.3227,-0.36194 0.0569,-0.11006 0.3127,-0.20927 1.01293,-0.39287 0.1641,-0.043 0.2576,-0.11162 0.3571,-0.26199 0.19089,-0.28845 0.73778,-0.83208 1.1205,-1.11382 0.17948,-0.13213 0.3001,-0.25539 0.26882,-0.27472 -0.13784,-0.0852 -0.80319,-0.24222 -1.02631,-0.24222 -0.8467,0 -1.70068,0.52862 -2.11272,1.3078 -0.0983,0.18597 -0.21156,0.33814 -0.25157,0.33814 -0.0417,0 -0.14657,-0.19553 -0.24592,-0.4587 -0.17543,-0.46473 -0.66566,-1.39428 -0.96544,-1.83064 -0.0902,-0.13126 -0.33176,-0.41531 -0.53684,-0.63119 -0.47904,-0.50431 -0.68217,-0.58915 -1.29692,-0.54163 -0.94188,0.0728 -1.50676,0.3317 -2.1966,1.00674 -0.63657,0.62292 -1.17048,1.52848 -1.4019,2.37779 -0.10322,0.37882 -0.1054,0.42715 -0.0303,0.67457 0.1056,0.34814 0.108,0.67125 0.005,0.67125 -0.2172,0 -0.45291,-0.60572 -0.63002,-1.61896 -0.11085,-0.63417 -0.12835,-1.412 -0.0477,-2.11645 0.0641,-0.55914 0.0855,-0.61382 0.51365,-1.31034 0.48291,-0.7856 1.32034,-2.45465 1.32034,-2.63152 0,-0.16873 0.21578,-0.34193 0.72325,-0.58052 0.79385,-0.37322 1.50342,-0.8599 2.00199,-1.37311 0.65839,-0.67772 0.80404,-0.76603 1.33603,-0.80999 0.24465,-0.0202 0.84027,-0.0956 1.32361,-0.16747 0.48333,-0.0719 0.89963,-0.13072 0.92512,-0.13072 0.0255,0 0.26614,-0.21856 0.5348,-0.48569 0.5527,-0.54955 0.66807,-0.59021 0.93034,-0.32795 0.2443,0.24431 0.20989,0.35775 -0.24032,0.79218 -0.39456,0.38074 -0.47064,0.5136 -0.54368,0.94943 -0.049,0.29216 0.25358,1.41945 0.5258,1.95916 0.0599,0.11873 0.20168,0.51817 0.3151,0.88765 0.11342,0.36948 0.24929,0.71379 0.30193,0.76512 0.0817,0.0797 1.27722,0.74054 2.49431,1.3788 0.19136,0.10035 0.47565,0.2789 0.63178,0.39677 0.26043,0.19663 0.31189,0.21438 0.62346,0.21515 0.18677,4e-4 0.36847,0.0192 0.40377,0.0416 0.0353,0.0224 0.14047,0.21028 0.2337,0.41741 0.16757,0.37229 0.17033,0.37504 0.24157,0.24015 0.15767,-0.29852 0.19819,-0.80829 0.16261,-2.04604 -0.0254,-0.88404 -0.0652,-1.37246 -0.14519,-1.78396 -0.26747,-1.37532 -0.35774,-1.49173 -1.34423,-1.73372 -0.61228,-0.15019 -0.71443,-0.19395 -1.19144,-0.51043 -0.30475,-0.20218 -0.56831,-0.42147 -0.63368,-0.52724 -0.0616,-0.0996 -0.15096,-0.36988 -0.19868,-0.60062 -0.0477,-0.23074 -0.15978,-0.58031 -0.24904,-0.77681 -0.12974,-0.2856 -0.16217,-0.43069 -0.16166,-0.7233 4.2e-4,-0.20131 0.0281,-0.39913 0.0617,-0.43959 0.039,-0.0469 0.21251,-0.0805 0.48,-0.0927 0.3936,-0.018 0.43318,-0.0313 0.65442,-0.22069 0.40813,-0.34935 0.67151,-0.3207 1.18369,0.12879 0.33775,0.2964 0.63728,0.36959 1.51274,0.36959 h 0.73204 l 0.51286,0.53234 c 0.28208,0.2928 0.59785,0.57521 0.70174,0.62759 0.10388,0.0524 0.30693,0.18114 0.45122,0.28613 0.14429,0.105 0.51668,0.32649 0.82753,0.49221 0.65579,0.34958 0.7962,0.50778 0.66234,0.74626 -0.0451,0.0803 -0.14742,0.18275 -0.22746,0.22767 -0.13998,0.0786 -0.17071,0.069 -0.80815,-0.25262 -0.36445,-0.18386 -0.75685,-0.34921 -0.872,-0.36743 l -0.20937,-0.0331 0.0245,0.29613 c 0.0207,0.24997 0.0508,0.3182 0.19299,0.43784 0.21568,0.18149 0.25979,0.32353 0.15169,0.4885 -0.11407,0.1741 -0.10843,0.27019 0.0449,0.76548 0.2266,0.73167 0.67241,2.45657 0.73646,2.84945 0.0591,0.36276 0.26132,1.27721 0.38143,1.72525 l 0.0574,0.21423 0.18853,-0.33565 0.18853,-0.33565 h 0.51566 0.51567 l 0.81505,-0.35672 c 1.10472,-0.48352 1.51642,-0.70438 1.69754,-0.91067 0.0841,-0.0958 0.34685,-0.54799 0.58387,-1.00489 0.23701,-0.45689 0.64573,-1.1707 0.90826,-1.58623 0.46862,-0.74172 0.47775,-0.76263 0.50076,-1.14555 0.0217,-0.3609 0.0104,-0.41329 -0.15047,-0.70154 -0.0956,-0.17134 -0.23183,-0.38882 -0.30264,-0.48331 -0.0708,-0.0945 -0.12875,-0.20529 -0.12875,-0.24623 0,-0.10707 0.27234,-0.35073 0.43763,-0.39156 0.11863,-0.0293 0.17114,6.2e-4 0.3332,0.18997 0.1058,0.12361 0.27798,0.38644 0.38261,0.58407 0.27004,0.51001 1.06995,1.17075 1.8074,1.49293 0.49983,0.21837 0.52599,0.23839 0.67709,0.51815 0.22512,0.41682 0.88823,1.22751 1.28448,1.57033 0.45815,0.39638 0.6155,0.49776 0.93502,0.60245 0.32371,0.10606 0.39695,0.21203 0.56437,0.81648 0.0658,0.23745 0.17826,0.61267 0.24999,0.83383 0.26026,0.80242 0.47829,2.25157 0.54662,3.63312 0.0619,1.25148 0.0236,1.55711 -0.28179,2.25172 -0.13704,0.31165 -0.29476,0.61251 -0.35049,0.66858 -0.11499,0.1157 -0.30194,0.0804 -0.25276,-0.0478 0.10021,-0.26114 0.0877,-0.62339 -0.04,-1.16046 -0.26529,-1.11552 -0.40633,-1.64887 -0.4852,-1.83482 -0.0851,-0.20061 -0.3487,-0.46935 -1.00525,-1.02482 l -0.40474,-0.34242 -0.0341,0.15746 c -0.0579,0.26749 -0.0499,0.53755 0.0179,0.60537 0.10708,0.10709 0.20506,0.0736 0.20506,-0.0702 0,-0.21815 0.0911,-0.15446 0.12339,0.0863 0.0163,0.12165 0.0802,0.27498 0.14202,0.34076 0.14231,0.15149 0.14155,0.2365 -0.004,0.39091 -0.11365,0.12096 -0.11407,0.12802 -0.0225,0.36775 0.0514,0.13442 0.12448,0.24441 0.16254,0.24441 0.12467,0 0.3536,0.22109 0.35329,0.3412 -6.1e-4,0.25112 -0.11511,0.52796 -0.24226,0.5859 -0.0907,0.0414 -0.13847,0.11981 -0.16367,0.26896 -0.03,0.17749 -0.0126,0.24075 0.11067,0.40234 0.10804,0.14165 0.17509,0.18421 0.25662,0.16289 0.14406,-0.0377 0.30863,0.0527 0.30929,0.16986 2.1e-4,0.0509 0.061,0.22245 0.13492,0.38122 0.16255,0.34918 0.16639,0.43858 0.0265,0.61648 -0.066,0.0838 -0.10793,0.21892 -0.10793,0.34726 0,0.25553 -0.0751,0.33956 -0.30329,0.33956 -0.14179,0 -0.22172,0.0533 -0.43441,0.28988 -0.25717,0.28601 -0.45541,0.41917 -0.71936,0.48322 -0.088,0.0214 -0.18514,0.12257 -0.27923,0.29089 -0.16016,0.28649 -0.46644,0.71842 -1.06161,1.4971 -0.28628,0.37455 -0.47373,0.56385 -0.67456,0.68125 -0.48772,0.28508 -1.33951,0.67691 -1.9301,0.88785 -0.31496,0.1125 -0.61583,0.23612 -0.66861,0.2747 -0.0869,0.0635 -0.0883,0.0818 -0.0148,0.19362 0.0447,0.0679 0.23392,0.2813 0.42067,0.47422 0.4221,0.43603 0.64657,0.74017 0.64657,0.87604 0,0.0574 -0.0182,0.0949 -0.0405,0.0835 -0.13094,-0.0674 -0.43518,-0.19627 -0.53595,-0.227 l -0.11771,-0.0359 0.10423,0.21572 c 0.0573,0.11864 0.10421,0.27957 0.10421,0.35763 v 0.14192 l -0.17538,-0.10661 c -0.15092,-0.0917 -0.97727,-0.44185 -1.04291,-0.44185 -0.0126,0 -0.0233,0.0789 -0.0238,0.17539 -10e-4,0.24737 -0.0683,0.34115 -0.16273,0.22735 -0.17857,-0.21516 -0.56127,-0.41148 -1.06104,-0.54429 -0.29111,-0.0774 -0.64463,-0.19898 -0.78561,-0.27028 -0.25118,-0.12702 -0.25636,-0.13478 -0.25716,-0.38506 -4.1e-4,-0.14048 -0.0187,-0.28249 -0.0405,-0.31558 -0.0245,-0.0371 -0.33965,-0.072 -0.82214,-0.0911 -0.80688,-0.0319 -1.83152,-0.20867 -2.88706,-0.49801 -0.26717,-0.0732 -0.55862,-0.13301 -0.64766,-0.13283 -0.0891,1.6e-4 -0.5383,0.0849 -0.99836,0.18841 -0.46005,0.10345 -1.10359,0.21347 -1.43008,0.24449 -0.32649,0.031 -0.83645,0.0935 -1.13327,0.1388 -0.29681,0.0454 -0.69642,0.0991 -0.88805,0.11942 -0.38534,0.0409 -0.41736,0.0792 -0.42872,0.51189 -0.006,0.23641 -0.11665,0.47518 -0.33665,0.72773 -0.14005,0.16078 -0.15441,0.21444 -0.15441,0.57695 0,0.21982 -0.0254,0.41534 -0.0564,0.4345 -0.031,0.0192 -0.16058,-0.0612 -0.28797,-0.17866 -0.39384,-0.36302 -0.48059,-0.40398 -0.71944,-0.33967 -0.16737,0.0451 -0.26094,0.12674 -0.46747,0.40802 -0.26809,0.36512 -0.28151,0.37812 -0.32123,0.3112 z m 0.4281,-0.60662 c 0.0922,-0.10415 0.19701,-0.24543 0.23294,-0.31395 0.13248,-0.25258 -0.10686,-0.69648 -0.30734,-0.57002 -0.18277,0.11529 -0.33292,0.51386 -0.33452,0.88798 -0.001,0.40424 0.0428,0.49067 0.16,0.31042 0.0447,-0.0688 0.15674,-0.21028 0.24892,-0.31443 z m 1.34844,-0.33617 c -0.0254,-0.22828 -0.21566,-0.52776 -0.33523,-0.52776 -0.0733,0 -0.16929,0.17295 -0.25861,0.46601 -0.0273,0.0896 0.0283,0.18461 0.24928,0.42643 l 0.28441,0.31118 0.0412,-0.23755 c 0.0227,-0.13065 0.0312,-0.32789 0.0189,-0.43831 z m -2.39298,0.14203 c 0.17067,-0.13575 0.31031,-0.28982 0.31031,-0.34239 0,-0.11661 -0.22709,-0.46416 -0.29896,-0.45755 -0.11236,0.0103 -0.36504,0.51385 -0.39043,0.77803 -0.0143,0.14824 -0.005,0.26935 0.0215,0.26913 0.0261,-2e-4 0.18698,-0.11147 0.35764,-0.24722 z m 1.68522,-0.23001 c 0.056,-0.23052 0.2893,-0.54771 0.40279,-0.54771 0.0568,0 0.16383,0.0774 0.23786,0.172 0.1176,0.15025 0.14584,0.16269 0.22334,0.0984 0.16346,-0.13566 0.26035,-0.40197 0.30453,-0.837 0.0241,-0.23745 0.066,-0.57743 0.093,-0.75552 0.027,-0.17808 0.0417,-0.33211 0.0325,-0.34229 -0.009,-0.0102 -0.0588,0.0627 -0.11034,0.16189 -0.0515,0.0992 -0.10313,0.15231 -0.11473,0.11797 -0.0498,-0.14739 0.15936,-0.45124 0.55226,-0.80217 1.24809,-1.11477 1.41355,-1.35751 1.4864,-2.18071 0.048,-0.5424 -0.0159,-1.61456 -0.11126,-1.86522 -0.0702,-0.18457 -0.069,-0.19151 0.0269,-0.15473 0.0625,0.024 0.081,-0.0122 0.081,-0.15836 0,-0.25785 0.33711,-1.2122 0.61162,-1.73149 0.43981,-0.83199 1.19549,-1.55617 2.05966,-1.97381 1.37866,-0.66629 2.71143,-0.25196 3.7305,1.15971 0.3339,0.46254 0.74435,1.36126 0.88074,1.92846 0.0697,0.28993 0.13648,0.5174 0.14839,0.50549 0.049,-0.0491 -0.11924,-0.80341 -0.30862,-1.3834 -0.21356,-0.65401 -0.35489,-1.02263 -0.57933,-1.51103 -0.075,-0.16325 -0.21734,-0.47288 -0.31626,-0.68806 -0.0989,-0.21518 -0.16227,-0.39102 -0.14077,-0.39074 0.0215,2.1e-4 0.0864,0.10816 0.14426,0.23972 l 0.10515,0.23922 0.17486,-0.25966 c 0.18799,-0.27915 0.26381,-0.32771 0.51164,-0.32771 0.0877,0 0.36674,-0.052 0.62011,-0.11555 0.45266,-0.11353 0.46285,-0.11376 0.58607,-0.0135 0.069,0.0561 0.26005,0.21147 0.42461,0.34521 0.16457,0.13373 0.40059,0.39412 0.52449,0.57863 0.26815,0.39934 0.25952,0.52924 -0.0551,0.82846 -0.25462,0.24222 -0.34009,0.58631 -0.1875,0.7549 0.11031,0.12189 0.0655,0.20615 -0.056,0.10531 -0.0452,-0.0375 -0.0823,-0.0498 -0.0823,-0.0271 0,0.0798 0.19072,0.18453 0.3392,0.18622 0.1274,0.001 0.16622,-0.0354 0.25457,-0.24147 0.11342,-0.26461 0.29157,-0.38372 0.49686,-0.33219 0.15679,0.0393 0.36643,0.44546 0.36643,0.70984 0,0.21801 0.12931,0.31267 0.39204,0.287 0.23377,-0.0229 0.30889,-0.26345 0.18158,-0.58161 -0.0483,-0.12088 -0.0879,-0.28608 -0.0879,-0.3671 6e-5,-0.13447 0.0198,-0.14867 0.22578,-0.16284 0.18123,-0.0124 0.27169,0.0175 0.45928,0.15223 0.31104,0.22338 0.41636,0.1988 0.43802,-0.10221 0.0188,-0.26149 -0.0617,-0.38883 -0.31125,-0.49219 -0.0834,-0.0346 -0.22887,-0.17034 -0.32324,-0.30174 -0.14067,-0.19588 -0.20257,-0.23913 -0.34361,-0.24011 -0.35806,-0.003 -0.58334,-0.17293 -1.37999,-1.04428 -0.42519,-0.46507 -0.82139,-0.87142 -0.88044,-0.90302 -0.0801,-0.0429 -0.19697,-0.0332 -0.46038,0.0381 -0.31057,0.0841 -0.41217,0.0879 -0.84487,0.0317 -0.4802,-0.0623 -0.6735,-0.11571 -1.05848,-0.29245 -0.10389,-0.0477 -0.33445,-0.13226 -0.51236,-0.18795 l -0.32347,-0.10123 -0.0356,-0.24917 c -0.0196,-0.13704 -0.0958,-0.39094 -0.16945,-0.56421 -0.0736,-0.17327 -0.19997,-0.69144 -0.28085,-1.15149 -0.16895,-0.96108 -0.40627,-1.92764 -1.00559,-4.09558 -0.15427,-0.55802 -0.18764,-0.90861 -0.11913,-1.2512 0.0275,-0.13757 0.0439,-0.15677 0.0702,-0.082 0.0242,0.069 0.10084,0.10253 0.26141,0.1145 0.14797,0.011 0.42561,0.12197 0.79628,0.31815 0.62053,0.32843 0.7844,0.36179 0.90827,0.18494 0.10271,-0.14664 0.0357,-0.28968 -0.19453,-0.41509 -0.0901,-0.049 -0.54332,-0.31333 -1.00716,-0.58721 -0.70191,-0.41444 -0.90671,-0.56569 -1.22111,-0.90175 -0.63566,-0.67946 -0.63243,-0.67794 -1.44365,-0.67794 -0.8755,0 -1.08386,-0.053 -1.48712,-0.37791 -0.48312,-0.3893 -0.51181,-0.39955 -0.7829,-0.27963 -0.1274,0.0564 -0.34754,0.19093 -0.48919,0.29906 -0.2404,0.1835 -0.45979,0.26494 -0.38418,0.14262 0.043,-0.0695 -0.34912,-0.0704 -0.45871,-7e-4 -0.0946,0.0598 -0.0926,0.58363 0.003,0.76203 0.0751,0.14038 0.36778,0.31791 0.52447,0.31817 0.0688,1.1e-4 0.22843,-0.0973 0.36396,-0.22226 0.1867,-0.17208 0.29588,-0.2286 0.48225,-0.24961 0.21797,-0.0246 0.31947,0.0122 1.06611,0.38581 0.625,0.31276 0.92738,0.43215 1.24632,0.49209 0.51601,0.097 0.61815,0.14909 0.72045,0.36752 0.044,0.0941 0.1165,0.2385 0.16099,0.32095 0.0445,0.0824 0.0709,0.19174 0.0586,0.24285 -0.0196,0.0817 -0.0271,0.0799 -0.062,-0.015 -0.0219,-0.0593 -0.0607,-0.16084 -0.0864,-0.2255 -0.0487,-0.12268 -0.59643,-0.55699 -0.70247,-0.55699 -0.13285,0 -1.32569,-0.44076 -1.5524,-0.57363 -0.21575,-0.12643 -0.24643,-0.13207 -0.29046,-0.0534 -0.0271,0.0484 -0.10872,0.15463 -0.18142,0.23608 -0.1275,0.14284 -0.13496,0.14449 -0.21079,0.0464 -0.0433,-0.056 -0.0945,-0.20773 -0.11394,-0.33728 -0.0204,-0.13608 -0.0643,-0.23556 -0.10394,-0.23556 -0.0377,0 -0.20375,0.11125 -0.36891,0.24721 -0.25736,0.21187 -0.3296,0.24488 -0.50537,0.23086 l -0.2051,-0.0163 0.0134,0.21371 c 0.0152,0.24276 0.20072,0.84201 0.33035,1.06698 0.16623,0.28846 1.1585,0.82523 1.70736,0.92357 0.1185,0.0212 0.33761,0.0834 0.48689,0.13817 0.14928,0.0548 0.33141,0.0883 0.40473,0.0746 0.0733,-0.0137 0.17816,0.008 0.23295,0.0488 0.11201,0.0828 0.42944,0.85004 0.35171,0.85004 -0.0275,0 -0.0633,-0.0425 -0.0795,-0.0944 -0.0855,-0.27337 -0.27308,-0.62631 -0.36844,-0.69312 -0.18577,-0.1301 -0.19336,-0.0849 -0.0303,0.18046 0.26128,0.42527 0.47654,1.31314 0.53824,2.22008 0.0681,1.00092 0.0697,2.20801 0.004,2.61264 -0.0461,0.28129 -0.2408,0.76757 -0.32927,0.82225 -0.0189,0.0117 -0.21936,-0.0165 -0.44551,-0.0626 l -0.41118,-0.0839 -0.48409,0.27938 c -0.54215,0.31289 -0.81568,0.37234 -1.73181,0.3764 -0.46468,0.002 -0.53793,0.0168 -0.78249,0.15807 -0.2385,0.13771 -0.88533,0.77129 -1.26819,1.2422 -0.10732,0.13201 -0.21816,0.18641 -0.54199,0.26603 -0.51662,0.12701 -0.54402,0.14276 -0.98663,0.56691 -0.42203,0.40441 -0.46051,0.56127 -0.15886,0.6474 0.19352,0.0553 0.35306,-0.026 0.30369,-0.15467 -0.0178,-0.0465 0.0522,-0.11467 0.18993,-0.18493 0.27707,-0.14135 0.3093,-0.13974 0.41444,0.0208 0.0815,0.12432 0.0779,0.15124 -0.0611,0.46106 -0.16499,0.36765 -0.1435,0.43603 0.13954,0.44408 0.16477,0.005 0.17002,0.0103 0.0749,0.0801 -0.0563,0.0413 -0.14907,0.063 -0.20619,0.0481 -0.0965,-0.0251 -0.0957,-0.0189 0.0112,0.0881 0.0987,0.0987 0.13461,0.10612 0.25304,0.0521 0.13718,-0.0625 0.21039,-0.18425 0.26589,-0.44222 0.0159,-0.0742 0.0939,-0.20432 0.17322,-0.28915 0.12143,-0.12989 0.17387,-0.14942 0.33218,-0.12372 0.28339,0.046 0.39045,0.17141 0.39045,0.45746 0,0.27449 0.11211,0.4411 0.29681,0.4411 0.2246,0 0.28784,-0.14851 0.30278,-0.71101 l 0.0138,-0.52214 -0.20151,-0.23338 c -0.29089,-0.3369 -0.30401,-0.3559 -0.30401,-0.44008 0,-0.0998 0.45442,-0.66639 0.72422,-0.90296 l 0.21156,-0.1855 0.84937,0.013 c 0.46716,0.007 0.91361,0.0374 0.99211,0.0672 0.0932,0.0354 0.18039,0.1394 0.2512,0.29948 0.0918,0.20752 0.099,0.27391 0.0468,0.43194 -0.0339,0.1027 -0.084,0.18673 -0.11141,0.18673 -0.0665,0 -0.0636,-0.093 0.004,-0.13491 0.0297,-0.0184 0.0539,-0.0692 0.0539,-0.11292 0,-0.11442 -0.41327,0.36739 -0.83951,0.97875 -0.37901,0.54359 -1.04927,1.74935 -1.04927,1.88753 0,0.0432 -0.16392,0.16123 -0.36427,0.2624 -0.43933,0.22186 -0.70897,0.47854 -1.1565,1.10096 -0.186,0.25868 -0.41228,0.56823 -0.50286,0.68791 -0.33689,0.44512 -0.61291,1.07663 -0.88956,2.03523 -0.15126,0.52414 -0.29806,1.15563 -0.3262,1.40332 -0.0521,0.45831 -0.20264,0.99402 -0.37529,1.33527 -0.12576,0.24855 -0.17971,0.50995 -0.13459,0.65209 0.0339,0.10671 0.0458,0.10113 0.17624,-0.0821 0.0948,-0.1332 0.17486,-0.1915 0.24827,-0.18074 0.14476,0.0212 0.32111,0.33539 0.33367,0.59442 0.006,0.115 0.0236,0.2225 0.0399,0.23888 0.0163,0.0163 0.0896,-0.0882 0.16262,-0.23234 0.13167,-0.25984 0.38573,-0.55809 0.47541,-0.55809 0.17017,0 0.39766,0.49314 0.3377,0.73205 -0.0256,0.10198 -0.0113,0.11453 0.10498,0.0923 0.0902,-0.0173 0.14605,-0.0728 0.16935,-0.1687 z m 0.51208,-1.07387 c 0.0629,-0.0816 0.16316,-0.20911 0.22282,-0.28332 l 0.10847,-0.13491 -0.0369,0.13491 c -0.0534,0.19518 -0.23277,0.43172 -0.32735,0.43172 -0.0646,0 -0.0577,-0.0307 0.033,-0.1484 z m -1.80022,-0.16931 c -0.15541,-0.16221 -0.31428,-0.5372 -0.26285,-0.62041 0.0163,-0.0264 0.0738,0.0684 0.12784,0.21066 0.054,0.14226 0.16434,0.32771 0.2452,0.41211 0.0809,0.0844 0.12274,0.15346 0.0931,0.15346 -0.0297,0 -0.12114,-0.0701 -0.20324,-0.15582 z m 1.89053,-1.50484 c -0.0191,-0.031 0.0341,-0.11443 0.11844,-0.18537 0.0843,-0.0709 0.18078,-0.17637 0.21437,-0.23427 0.0562,-0.0968 0.0612,-0.0932 0.0627,0.0448 6.9e-4,0.0954 -0.0328,0.16216 -0.0928,0.18321 -0.0519,0.0182 -0.13346,0.0815 -0.18116,0.14055 -0.0532,0.066 -0.10016,0.0857 -0.12157,0.0511 z m -1.15456,-0.29428 c -0.12375,-0.15172 -0.18998,-0.51073 -0.13354,-0.7239 l 0.0551,-0.2083 0.008,0.26983 c 0.004,0.1484 0.0422,0.36603 0.0841,0.48362 0.0815,0.22876 0.0768,0.28969 -0.0137,0.17875 z m 14.07246,-5.32788 c -0.0738,-0.0567 -0.11443,-0.12271 -0.0904,-0.14675 0.024,-0.024 0.0674,-0.001 0.0963,0.0502 0.0289,0.0517 0.1121,0.094 0.18483,0.094 0.0727,0 0.13223,0.0243 0.13223,0.0539 0,0.0879 -0.17869,0.0594 -0.32298,-0.0515 z m -12.8877,-0.33707 c -0.0356,-0.0356 -0.0648,-0.0963 -0.0648,-0.13491 0,-0.0453 0.0379,-0.0323 0.10671,0.0365 0.0653,0.0653 0.14203,0.0931 0.19773,0.0718 0.0614,-0.0236 0.0783,-0.0144 0.052,0.0282 -0.0506,0.0819 -0.20907,0.081 -0.29168,-0.001 z m 13.15672,-0.83172 c 0,-0.0514 -0.0403,-0.13794 -0.0896,-0.1924 -0.11822,-0.13063 -0.0698,-0.17156 0.0794,-0.0671 0.12272,0.086 0.158,0.26151 0.0642,0.31949 -0.0297,0.0183 -0.0539,-0.009 -0.0539,-0.06 z m -7.93289,-11.72638 c -0.0742,-0.0547 -0.37775,-0.22389 -0.67456,-0.37591 -0.46911,-0.24026 -0.51631,-0.2764 -0.36108,-0.27653 0.10534,-9e-5 0.16489,0.022 0.14522,0.0538 -0.0184,0.0297 -0.008,0.0539 0.0238,0.0539 0.0314,0 0.0572,-0.0243 0.0572,-0.0539 0,-0.1033 0.0815,-0.0522 0.17288,0.10827 0.0506,0.0889 0.11734,0.16156 0.1484,0.16156 0.0978,0 0.0613,-0.15237 -0.0562,-0.23466 l -0.11262,-0.0789 0.11732,-0.0372 c 0.13075,-0.0415 0.42692,0.003 0.6254,0.093 0.12854,0.0585 0.17723,0.14989 0.0799,0.14989 -0.031,0 -0.031,0.0671 0,0.17502 0.0606,0.21137 0.0648,0.36524 0.01,0.36292 -0.0223,-7e-4 -0.10118,-0.0465 -0.17538,-0.10122 z m 0.11917,-0.18039 c -0.0319,-0.23224 -0.20785,-0.41823 -0.39579,-0.41823 -0.14603,0 -0.14812,0.004 -0.0811,0.16353 0.058,0.13792 0.36657,0.41867 0.46982,0.42744 0.0171,0.001 0.0203,-0.0763 0.007,-0.17274 z m 0.24835,0.0944 c -0.0227,-0.19433 0.0273,-0.25494 0.0854,-0.10352 0.0484,0.12624 0.0398,0.2924 -0.0153,0.2924 -0.0264,0 -0.058,-0.085 -0.0701,-0.18888 z m -3.63241,-1.02197 c 0.16226,-0.1405 0.35169,-0.16484 0.38945,-0.05 0.0114,0.0345 -0.0574,0.0722 -0.15766,0.0862 -0.0978,0.0137 -0.22639,0.0428 -0.28576,0.0645 -0.0751,0.0275 -0.0588,-0.003 0.0539,-0.10066 z m 11.25931,22.18997 c -0.0601,-0.0965 -0.24195,-0.30595 -0.40409,-0.46541 l -0.29479,-0.28991 -0.16701,0.23056 c -0.0919,0.1268 -0.16678,0.24512 -0.16649,0.26293 2e-4,0.0178 0.21795,0.11381 0.48371,0.21335 0.26576,0.0995 0.51356,0.21755 0.55066,0.26225 0.11686,0.14081 0.11531,-0.0254 -0.002,-0.21377 z m -1.17233,-0.0271 c -0.043,-0.23886 -0.33998,-0.68017 -0.47536,-0.70624 -0.0994,-0.0192 -0.27825,0.11466 -0.36174,0.27066 -0.0405,0.0758 0.007,0.12168 0.27181,0.26286 0.17651,0.0941 0.36248,0.21696 0.41326,0.27307 0.14127,0.15611 0.19211,0.12255 0.15203,-0.10035 z m 1.65517,-0.27451 c -0.0292,-0.0545 -0.1636,-0.18971 -0.29871,-0.30042 -0.20004,-0.16392 -0.2458,-0.18309 -0.2464,-0.10325 -4e-4,0.0539 -0.0154,0.1527 -0.0333,0.21948 -0.0269,0.10051 -0.0105,0.12184 0.0952,0.12386 0.0702,0.001 0.20057,0.0358 0.28962,0.0765 0.22208,0.1017 0.25521,0.0989 0.19358,-0.0162 z m -1.1675,-0.54002 c 0.0527,-0.0103 0.17557,0.0597 0.27633,0.15731 0.15139,0.14674 0.18621,0.16099 0.21016,0.086 0.0158,-0.0494 0.0407,-0.12805 0.0555,-0.17472 0.0358,-0.11362 -0.0541,-0.27871 -0.28221,-0.51738 -0.10378,-0.10862 -0.17292,-0.22302 -0.15363,-0.25423 0.0193,-0.0312 0.0832,-0.42648 0.142,-0.8784 0.0973,-0.74726 0.0997,-0.84666 0.0268,-1.09761 -0.0915,-0.31481 -0.45461,-0.85092 -0.95453,-1.40936 -0.18873,-0.21084 -0.45852,-0.52311 -0.59951,-0.69394 -0.213,-0.25808 -0.62768,-0.62264 -0.70824,-0.62264 -0.0116,0 0.0134,0.10024 0.0556,0.22275 0.14375,0.41724 0.0263,0.27501 -0.27962,-0.33876 -0.16793,-0.33688 -0.31536,-0.62274 -0.3276,-0.63524 -0.0122,-0.0125 -0.007,0.0888 0.0117,0.22507 0.0386,0.2819 -0.0218,0.9715 -0.0819,0.93436 -0.0218,-0.0135 -0.0956,0.2073 -0.1639,0.49064 -0.21451,0.88977 -0.66322,1.60135 -1.39579,2.21347 -0.29371,0.24542 -0.31696,0.27875 -0.21095,0.30243 0.19467,0.0435 1.39183,0.51527 1.46808,0.57855 0.0668,0.0554 0.2085,0.39118 0.34338,0.81347 0.0339,0.10599 0.0616,0.29043 0.0616,0.40987 0,0.2748 0.0964,0.36445 0.56951,0.52978 l 0.36501,0.12754 0.27676,-0.29266 c 0.15221,-0.16098 0.30526,-0.29268 0.34009,-0.29268 0.077,0 0.13038,0.0607 0.34341,0.39049 l 0.16506,0.25558 0.17605,-0.25558 c 0.0968,-0.14056 0.21876,-0.26392 0.27095,-0.27412 z m -0.82953,-0.33258 c 0.23881,-0.0229 0.4691,-0.0785 0.55315,-0.13357 0.17299,-0.11335 0.1955,-0.0162 0.024,0.10388 -0.0871,0.061 -0.23862,0.0819 -0.55315,0.0765 l -0.4332,-0.007 z m -0.59414,-0.11232 c -0.13144,-0.0258 -0.26379,-0.0717 -0.29412,-0.10202 -0.0707,-0.0707 -0.0218,-0.0679 0.34589,0.0201 0.16417,0.0393 0.38272,0.061 0.48568,0.0482 0.14227,-0.0176 0.16777,-0.01 0.10625,0.0337 -0.094,0.0661 -0.30635,0.0661 -0.6437,-1e-4 z m 1.43998,-1.38487 c 0.1119,-0.24328 0.14124,-0.38605 0.13586,-0.66107 -0.006,-0.28495 0.004,-0.32546 0.0477,-0.21586 0.03,0.0742 0.0441,0.2442 0.0314,0.37776 -0.0245,0.25689 -0.23833,0.80948 -0.31329,0.80948 -0.0244,0 0.0199,-0.13964 0.0984,-0.31031 z m -0.91589,0.10794 c -0.12249,-0.14042 -0.21501,-0.33728 -0.15851,-0.33728 0.0489,0 0.33209,0.34206 0.33209,0.40113 0,0.0622 -0.0937,0.0277 -0.17358,-0.0639 z m -14.54293,1.48691 c 0.42165,-0.0787 0.45134,-0.14145 0.60294,-1.2751 0.0299,-0.22342 0.026,-0.23177 -0.0915,-0.19553 -0.0675,0.0208 -0.18861,0.0714 -0.26916,0.11236 -0.30656,0.15591 -1.43831,0.31168 -2.28198,0.31406 -0.725,0.002 -0.83622,-0.0102 -1.06581,-0.1171 -0.14526,-0.0676 -0.25633,-0.0942 -0.25633,-0.0613 0,0.032 0.17606,0.23345 0.39125,0.4477 0.36467,0.36311 0.91658,0.7297 1.26825,0.8424 0.17836,0.0572 1.26521,0.014 1.70233,-0.0676 z m 4.63383,-0.36622 c 0.51457,-0.0588 1.21485,-0.15574 1.55618,-0.21532 0.34132,-0.0596 0.83916,-0.14028 1.10629,-0.17934 l 0.48568,-0.071 -0.70155,-0.04 c -0.90095,-0.0513 -1.72679,-0.16779 -2.52081,-0.35552 l -0.63203,-0.14943 -0.11315,0.12044 c -0.14581,0.15521 -0.28553,0.99719 -0.16547,0.99719 0.0271,0 0.4703,-0.0481 0.98486,-0.10701 z m 8.06091,-0.14932 c -0.0204,-0.11131 -0.0784,-0.274 -0.12886,-0.36155 -0.084,-0.14568 -0.13052,-0.1648 -0.54906,-0.22569 -0.54638,-0.0795 -1.4324,-0.27346 -1.55931,-0.34138 -0.0611,-0.0327 -0.16378,-0.0159 -0.31418,0.0515 -0.29441,0.13181 -0.79116,0.30539 -1.0915,0.3814 -0.24001,0.0607 -0.24054,0.0614 -0.10793,0.13408 0.0733,0.0402 0.24253,0.0889 0.37609,0.10824 0.13356,0.0194 0.57068,0.10708 0.97138,0.19494 0.81269,0.17822 1.32099,0.24303 1.98922,0.25366 l 0.45122,0.007 z m 3.74076,-0.42943 c 0.37536,-0.13973 0.99816,-0.41292 1.38401,-0.60711 l 0.70155,-0.35306 0.45871,-0.6045 c 0.25228,-0.33247 0.53471,-0.6846 0.62761,-0.78249 0.0929,-0.0979 0.19947,-0.23872 0.23682,-0.31292 0.0373,-0.0742 -0.0371,-0.0135 -0.16546,0.13492 -0.90406,1.04535 -2.03212,1.68512 -3.57262,2.02619 -0.21589,0.0478 -0.31128,0.0948 -0.31352,0.15452 -0.002,0.0472 -0.0222,0.20118 -0.0454,0.34216 -0.0232,0.14099 -0.0314,0.25633 -0.0182,0.25633 0.0132,0 0.33112,-0.11432 0.70648,-0.25404 z m -7.59841,-0.15316 c 0.53391,-0.10947 0.82341,-0.21594 1.5622,-0.57453 0.60479,-0.29355 0.71924,-0.37274 1.10645,-0.76564 0.49916,-0.50648 0.78237,-0.9621 0.97683,-1.57149 0.50071,-1.56907 0.0602,-3.38603 -1.14385,-4.71818 -0.31978,-0.3538 -0.9604,-0.78325 -1.3338,-0.89414 -0.41126,-0.12213 -0.98711,-0.1037 -1.46088,0.0468 -1.40361,0.44573 -2.44078,1.61574 -2.91968,3.29361 -0.13506,0.47321 -0.13655,0.49895 -0.10129,1.75449 0.0338,1.20372 0.0298,1.28764 -0.0729,1.51645 -0.1748,0.3897 -0.57866,0.89086 -0.95835,1.18925 -0.194,0.15246 -0.3393,0.29891 -0.3229,0.32545 0.0808,0.13068 1.50032,0.41807 2.37182,0.48017 0.73869,0.0526 1.82905,0.0136 2.29631,-0.0822 z m -9.6607,-0.12796 c 0.42356,-0.0524 0.99342,-0.21348 1.36193,-0.38499 0.11397,-0.053 0.16739,-0.13483 0.22449,-0.34373 0.36567,-1.33789 0.49149,-1.72154 0.6779,-2.06714 0.11646,-0.21592 0.19941,-0.39258 0.18432,-0.39258 -0.0151,0 -0.0984,0.0367 -0.18518,0.0816 -0.30926,0.15993 -0.97505,0.25266 -1.87408,0.26103 -0.48231,0.004 -0.87693,-0.01 -0.87693,-0.0313 10e-6,-0.0794 0.29191,-0.10914 0.72042,-0.0734 0.53399,0.0445 0.51515,-0.063 -0.0222,-0.12635 -0.31975,-0.0377 -0.5121,-0.0205 -0.88716,0.0792 -0.14345,0.0381 -0.1539,0.0333 -0.0918,-0.0421 0.18798,-0.22827 1.05739,-0.25246 1.49309,-0.0415 l 0.22007,0.10653 0.61938,-0.12862 c 0.8283,-0.17201 1.05411,-0.26869 1.24586,-0.53339 0.0862,-0.11902 0.14741,-0.22578 0.13597,-0.23721 -0.046,-0.046 -0.90421,-0.22869 -1.3575,-0.28901 -0.86676,-0.11534 -1.55215,0.0192 -2.28076,0.44751 -0.75054,0.44127 -1.27433,0.99696 -1.87939,1.99385 -0.29706,0.48945 -0.37436,0.96687 -0.20849,1.28764 0.13577,0.26254 0.64571,0.47273 1.28608,0.53011 0.37457,0.0335 0.52331,0.024 1.49388,-0.096 z m 12.92011,0.003 c -0.0839,-0.0764 -0.89753,-0.36833 -1.13057,-0.40561 -0.19462,-0.0311 -0.41451,0.0288 -0.34837,0.0949 0.0668,0.0668 0.99725,0.28737 1.47894,0.35063 0.0324,0.004 0.0324,-0.0105 0,-0.04 z m 4.94051,-0.5921 c 0.25229,-0.0878 0.55584,-0.20097 0.67457,-0.25143 0.32449,-0.13792 1.03619,-0.62599 1.41749,-0.9721 0.46829,-0.42507 1.01815,-1.10524 0.93502,-1.15662 -0.0409,-0.0252 -0.26808,0.16332 -0.61587,0.51111 -0.4849,0.4849 -0.61265,0.5805 -1.06294,0.79544 -0.67741,0.32336 -0.9392,0.40667 -1.5874,0.50513 -0.29885,0.0454 -0.62835,0.0988 -0.73224,0.11874 l -0.18888,0.0362 -0.0158,0.35844 -0.0158,0.35844 0.3666,-0.0718 c 0.20163,-0.0396 0.57301,-0.1437 0.8253,-0.23152 z m -0.13491,-0.71142 c 0.72049,-0.15124 1.2789,-0.3489 1.70693,-0.60421 0.38865,-0.23182 1.23418,-1.01662 1.23418,-1.14553 0,-0.0484 -0.10563,-0.0787 -0.33182,-0.095 -0.42351,-0.0306 -0.56133,-0.1666 -0.50762,-0.50081 0.0925,-0.57548 0.094,-0.66513 0.0145,-0.84314 -0.12478,-0.27929 -0.20037,-0.53596 -0.20037,-0.6804 0,-0.10594 0.0203,-0.12405 0.10793,-0.0962 0.0667,0.0212 0.10793,0.01 0.10793,-0.03 0,-0.0484 0.0183,-0.049 0.0744,-0.003 0.0588,0.0488 0.0812,0.0361 0.10719,-0.0609 0.058,-0.21645 0.0366,-0.45822 -0.0466,-0.52731 -0.0931,-0.0772 -0.10892,-0.35409 -0.0233,-0.40701 0.0317,-0.0196 0.044,-0.0712 0.0273,-0.11464 -0.0218,-0.0569 -0.003,-0.0704 0.0669,-0.0482 0.064,0.0203 0.14905,-0.0233 0.24916,-0.12779 0.13915,-0.14524 0.15234,-0.19426 0.15622,-0.58046 0.003,-0.29637 -0.0224,-0.47195 -0.0855,-0.59037 -0.0493,-0.0927 -0.081,-0.17769 -0.0703,-0.18888 0.0107,-0.0112 0.0331,-0.282 0.0497,-0.6018 0.0195,-0.37381 0.058,-0.62096 0.10775,-0.69203 0.0512,-0.0731 0.0901,-0.09 0.11485,-0.05 0.062,0.10031 0.18971,-0.0464 0.18971,-0.21793 0,-0.19231 0.0931,-0.25341 0.18806,-0.12349 0.0709,0.0969 0.17714,0.0757 0.11604,-0.0232 -0.0351,-0.0569 -0.94227,-0.63845 -1.07562,-0.68963 -0.14441,-0.0554 -0.69495,0.51885 -1.13646,1.1854 -0.72421,1.09335 -0.84425,1.28506 -0.84425,1.34837 0,0.0345 -0.0386,0.11792 -0.0858,0.1853 -0.10931,0.15607 -0.1929,0.0948 -0.38326,-0.28084 -0.22939,-0.45269 -0.82047,-1.31734 -0.97612,-1.42792 -0.23585,-0.16755 -0.55176,-0.2802 -0.88283,-0.3148 -0.54406,-0.0569 -0.54069,-0.0326 0.0945,0.68074 0.67032,0.75271 0.87982,0.91311 1.3029,0.99754 0.27651,0.0552 0.32161,0.0835 0.41789,0.26231 0.0614,0.11392 0.2191,0.27013 0.36543,0.36185 0.28511,0.17868 0.38588,0.36611 0.33167,0.61687 -0.0458,0.21193 -0.33672,0.51546 -0.49473,0.51621 -0.10275,4e-4 -0.12142,-0.0283 -0.12142,-0.18707 0,-0.22799 -0.19067,-0.38358 -0.40435,-0.32995 -0.15923,0.04 -0.1647,0.0862 -0.0486,0.41037 0.0792,0.22098 0.0795,0.26207 0.004,0.44329 -0.0606,0.14495 -0.12514,0.20856 -0.23541,0.23191 -0.0836,0.0177 -0.19413,0.055 -0.24567,0.0829 -0.12245,0.0662 -0.34979,0.065 -0.39129,-0.002 -0.018,-0.0291 -0.004,-0.1505 0.0323,-0.26983 0.11429,-0.38148 -0.13766,-0.88094 -0.39465,-0.78233 -0.12077,0.0463 -0.31294,0.42289 -0.31294,0.61318 0,0.24173 -0.18336,0.22193 -0.4779,-0.0516 -0.19886,-0.18468 -0.22976,-0.24066 -0.20067,-0.3636 0.0189,-0.0799 0.049,-0.24957 0.0669,-0.37701 0.0247,-0.17551 0.0832,-0.27963 0.24114,-0.42935 0.35809,-0.33931 0.29415,-0.53033 -0.41575,-1.24211 -0.44696,-0.44813 -0.47859,-0.46028 -0.922,-0.35424 -0.45349,0.10845 -0.56916,0.20758 -0.72337,0.61992 -0.23111,0.61801 -0.2289,0.69641 0.039,1.38154 0.2463,0.62989 0.44987,1.33523 0.44987,1.5587 0,0.0689 0.1147,0.345 0.25489,0.61361 0.22748,0.43588 0.28496,0.50535 0.53459,0.64624 0.15385,0.0868 0.3852,0.28465 0.51412,0.43962 0.12892,0.15497 0.3574,0.4171 0.50772,0.58251 0.55826,0.61433 0.86502,1.01892 1.04884,1.38336 0.10388,0.20596 0.21316,0.39293 0.24284,0.41551 0.063,0.0479 0.29986,0.0179 0.97137,-0.12308 z m 3.1824,-2.1307 c 0.14032,-0.26669 0.23434,-0.30157 0.20102,-0.0746 -0.0174,0.11838 -0.006,0.15939 0.036,0.13327 0.0336,-0.0208 0.077,-0.13719 0.0964,-0.25873 0.0303,-0.18942 0.0447,-0.20824 0.10053,-0.13181 0.0358,0.049 0.0957,0.0892 0.133,0.0892 0.0412,0 0.0567,0.0423 0.0396,0.10787 -0.0412,0.15731 0.0368,0.17628 0.19923,0.0485 0.16612,-0.13067 0.28369,-0.34059 0.3511,-0.62684 0.0412,-0.17484 0.0488,-0.18283 0.0534,-0.0557 0.003,0.0816 0.0291,0.1484 0.058,0.1484 0.0681,0 0.19345,-0.24671 0.2435,-0.47894 0.0265,-0.12336 0.0207,-0.17073 -0.018,-0.14678 -0.0342,0.0211 -0.0818,-0.056 -0.11827,-0.1914 -0.0427,-0.15853 -0.0747,-0.20472 -0.10634,-0.1535 -0.0379,0.0614 -0.0604,0.0607 -0.13812,-0.003 -0.0842,-0.0699 -0.0892,-0.0655 -0.0537,0.0462 0.0472,0.14862 -0.0173,0.57973 -0.077,0.51515 -0.0232,-0.0251 -0.0704,-0.21221 -0.10491,-0.41578 -0.0345,-0.20358 -0.0952,-0.42214 -0.13499,-0.48569 -0.0398,-0.0636 -0.0876,-0.20328 -0.10638,-0.31051 -0.0187,-0.10723 -0.0822,-0.23849 -0.14097,-0.29169 -0.0598,-0.0541 -0.10687,-0.16576 -0.10687,-0.25343 0,-0.31435 -0.0998,-0.0845 -0.1374,0.31638 -0.0308,0.32876 -0.05,0.3914 -0.0951,0.30994 -0.0311,-0.0562 -0.0922,-0.12872 -0.13595,-0.16126 -0.0656,-0.0488 -0.0745,-0.18271 -0.0507,-0.76829 0.0164,-0.40453 0.008,-0.69648 -0.0189,-0.67967 -0.0262,0.0162 -0.0489,0.0948 -0.0505,0.17467 l -0.003,0.14521 -0.0847,-0.12142 c -0.12021,-0.17232 -0.17947,-0.15066 -0.17947,0.0656 0,0.19622 -0.26493,0.56852 -0.40456,0.56852 -0.14762,0 -0.1861,0.37616 -0.05,0.48909 0.10313,0.0856 0.16462,0.012 0.21696,-0.25974 0.0636,-0.33005 0.12579,-0.17554 0.14123,0.35077 0.0124,0.42328 0.0312,0.52617 0.0959,0.52617 0.0465,0 0.0934,-0.0683 0.1113,-0.1619 l 0.0309,-0.1619 0.036,0.1619 c 0.0664,0.29781 0.14528,0.86169 0.14351,1.02534 l -0.002,0.16189 -0.0805,-0.1484 c -0.0443,-0.0816 -0.1124,-0.14841 -0.15136,-0.14841 -0.12062,0 -0.23284,-0.17639 -0.30291,-0.47608 l -0.0671,-0.28722 -0.10936,0.17929 c -0.10795,0.17698 -0.11005,0.17772 -0.16383,0.0579 -0.0642,-0.14309 -0.1459,-0.15998 -0.1459,-0.0302 0,0.0796 -0.0101,0.0779 -0.0792,-0.0135 -0.10841,-0.14334 -0.10211,-0.0933 0.0349,0.27811 0.12096,0.32767 0.16402,0.93628 0.0859,1.21388 -0.066,0.23465 0.0614,0.34092 0.45304,0.3776 0.4455,0.0417 0.42925,0.0474 0.55609,-0.19366 z m -7.27163,-0.84882 c -0.012,-0.097 -0.0221,-0.0307 -0.0224,0.14743 -4e-4,0.17809 0.01,0.25745 0.0218,0.17636 0.0123,-0.0811 0.0126,-0.2268 6.2e-4,-0.32379 z m 10.19635,-1.54189 0.26077,-0.63118 -0.0101,-1.03435 c -0.018,-1.85445 -0.18795,-2.93646 -0.72623,-4.62386 l -0.27283,-0.8553 -0.29705,-0.13137 c -0.41486,-0.18347 -0.85855,-0.49891 -1.17852,-0.83786 -0.56128,-0.59459 -0.94793,-1.07159 -1.02965,-1.2703 -0.0933,-0.22682 -0.32844,-0.50199 -0.42897,-0.50199 -0.15187,0 -0.96063,-0.45757 -1.22235,-0.69156 -0.15666,-0.14006 -0.33251,-0.29066 -0.39079,-0.33469 -0.0988,-0.0746 -0.098,-0.0664 0.0117,0.12233 0.0647,0.1113 0.0945,0.20237 0.0662,0.20237 -0.0683,0 -0.25834,-0.30628 -0.55498,-0.89448 -0.28778,-0.57061 -0.513,-0.81657 -0.67053,-0.73226 -0.20054,0.10733 -0.2549,0.21502 -0.16107,0.31909 0.13315,0.1477 0.62874,1.2069 0.66232,1.41558 0.0294,0.18291 0.028,0.18483 -0.0458,0.0607 -0.0757,-0.12727 -0.0765,-0.12667 -0.11019,0.0841 -0.0312,0.19512 -0.14381,0.40132 -0.78155,1.43125 -0.23763,0.38376 -0.92308,1.63725 -1.11126,2.03218 -0.10087,0.21169 -0.16671,0.2632 -0.65219,0.51033 -0.29701,0.15118 -0.8557,0.4193 -1.24155,0.59582 -0.68382,0.31283 -0.71559,0.32157 -1.25696,0.34582 l -0.55542,0.0249 -0.13264,0.1952 c -0.073,0.10736 -0.13264,0.21801 -0.13264,0.24588 0,0.0279 -0.0409,0.0959 -0.0908,0.15105 -0.0798,0.0882 -0.0813,0.10995 -0.0117,0.17956 0.0435,0.0435 0.21192,0.11504 0.37415,0.15888 0.16222,0.0438 0.34588,0.0943 0.40812,0.11214 0.0891,0.0256 0.12718,-0.001 0.17898,-0.12645 0.0847,-0.20455 0.44356,-0.57779 0.66707,-0.69388 0.0957,-0.0497 0.42904,-0.18088 0.74069,-0.29147 0.31165,-0.11059 0.82162,-0.29538 1.13327,-0.41065 0.64953,-0.24023 0.52443,-0.0793 1.13714,-1.46279 0.4835,-1.09173 0.74084,-1.54591 1.21488,-2.14406 0.51169,-0.64568 0.8413,-0.82508 1.23851,-0.67406 0.33584,0.12769 1.09014,0.76809 1.56315,1.32711 0.26712,0.31572 0.60765,0.66491 0.75671,0.77598 0.14907,0.11108 0.4461,0.36262 0.66007,0.55898 0.21397,0.19636 0.56753,0.48902 0.78569,0.65036 0.31696,0.2344 0.4137,0.34036 0.48146,0.5273 0.081,0.22356 0.39856,1.30579 0.56741,1.93385 0.10555,0.39259 0.15408,2.49004 0.0745,3.22119 -0.0321,0.29539 -0.10571,0.74176 -0.1635,0.99193 -0.0578,0.25018 -0.12214,0.5636 -0.14301,0.69649 -0.0629,0.40043 0.0935,0.1885 0.38948,-0.52785 z m -7.3337,0.1412 c -0.0333,-0.10007 -0.14953,-0.11666 -0.14953,-0.0214 0,0.047 0.0384,0.0854 0.0855,0.0854 0.047,0 0.0758,-0.0289 0.0641,-0.0641 z m -12.75041,-0.25992 c 0.0183,-0.0297 0.01,-0.0539 -0.0194,-0.0539 -0.029,0 -0.0911,-0.0147 -0.1381,-0.0328 -0.056,-0.0215 -0.0854,-0.003 -0.0854,0.0539 0,0.0953 0.18849,0.12071 0.24284,0.0328 z m 11.73743,-0.0539 c 0,-0.0297 -0.0379,-0.0539 -0.0841,-0.0539 -0.0463,0 -0.0691,0.0243 -0.0508,0.0539 0.0183,0.0297 0.0562,0.0539 0.0841,0.0539 0.028,0 0.0508,-0.0243 0.0508,-0.0539 z m -12.84372,-0.0238 c 0,-0.0569 -0.10356,-0.0809 -0.13437,-0.031 -0.0187,0.0302 0.004,0.0548 0.0502,0.0548 0.0463,0 0.0841,-0.0107 0.0841,-0.0238 z m 15.17233,-0.38101 c 0,-0.0282 -0.0261,-0.06 -0.058,-0.0706 -0.0319,-0.0106 -0.058,0.0211 -0.058,0.0706 0,0.0495 0.0261,0.0812 0.058,0.0706 0.0319,-0.0106 0.058,-0.0424 0.058,-0.0706 z m 4.30912,-0.18888 c 0.0701,-0.0701 0.10793,-0.17988 0.10793,-0.313 0,-0.22295 -0.0753,-0.33457 -0.22556,-0.33457 -0.11133,0 -0.31409,-0.36016 -0.31409,-0.55789 0,-0.0718 0.0364,-0.16068 0.0809,-0.19763 0.10827,-0.0899 0.10208,-0.17389 -0.0292,-0.3964 -0.096,-0.16268 -0.12885,-0.1817 -0.25544,-0.14784 -0.1461,0.0391 -0.29378,0.23983 -0.36066,0.49027 l -0.0361,0.13491 0.11634,-0.13491 c 0.0849,-0.0985 0.10771,-0.10825 0.0843,-0.036 -0.0176,0.0544 -0.032,0.15293 -0.032,0.21904 0,0.0661 -0.0332,0.16558 -0.0738,0.22107 -0.0709,0.0969 -0.0793,0.0953 -0.21531,-0.0407 -0.085,-0.085 -0.12869,-0.17506 -0.10934,-0.22549 0.023,-0.0598 -7e-4,-0.0839 -0.0832,-0.0839 -0.14841,0 -0.17956,0.0882 -0.12472,0.35307 0.0395,0.19107 0.0639,0.2164 0.23083,0.24054 0.18536,0.0268 0.18681,0.0292 0.2136,0.35078 l 0.027,0.32379 0.12582,-0.20237 c 0.0692,-0.1113 0.15907,-0.20237 0.1997,-0.20237 0.0406,0 0.0986,-0.0425 0.12887,-0.0944 0.041,-0.0704 0.0554,0.007 0.0567,0.30342 0.001,0.33249 0.0139,0.38768 0.0763,0.3359 0.0576,-0.0478 0.0819,-0.0431 0.10624,0.0204 0.0437,0.11402 0.17631,0.10288 0.3048,-0.0256 z m -20.56075,-0.1619 c 0,-0.0297 -0.0425,-0.0536 -0.0944,-0.0532 -0.0807,7e-4 -0.0827,0.009 -0.0135,0.0532 0.10185,0.0658 0.10793,0.0658 0.10793,0 z m -7.2853,-0.73208 c 0,-0.0168 -0.0255,-0.0782 -0.0567,-0.13641 -0.10939,-0.2044 -0.26663,-1.52445 -0.26617,-2.23451 4.1e-4,-0.77691 0.12473,-1.52745 0.31432,-1.89906 0.0616,-0.12075 0.33884,-0.59282 0.6161,-1.04902 0.27724,-0.45622 0.65412,-1.11077 0.8375,-1.45457 0.32434,-0.60808 0.3463,-0.63471 0.80679,-0.97833 0.65941,-0.49208 1.03281,-0.72195 1.60153,-0.98589 1.05228,-0.48838 2.67832,-0.98031 3.0252,-0.91524 0.27138,0.0509 0.45619,0.21605 0.59599,0.53256 0.0665,0.15055 0.34526,0.97675 0.61946,1.836 0.2742,0.85925 0.52427,1.61874 0.55572,1.68774 0.0743,0.16314 0.34318,0.32681 0.63931,0.38922 1.13335,0.23882 2.6609,1.15418 3.23986,1.94144 0.12108,0.16465 0.17818,0.20079 0.28501,0.18036 0.0735,-0.014 0.2952,0.003 0.49273,0.037 0.19753,0.0344 0.37131,0.0504 0.38618,0.0355 0.0494,-0.0494 -0.16775,-0.57212 -0.28001,-0.67412 -0.0607,-0.0552 -0.20149,-0.11659 -0.3128,-0.13644 -0.16676,-0.0298 -0.20236,-0.0204 -0.20236,0.053 0,0.12325 -0.0686,0.0876 -0.59399,-0.30831 -0.25209,-0.18998 -0.57976,-0.40216 -0.72817,-0.47152 -0.1484,-0.0694 -0.43435,-0.22192 -0.63544,-0.33904 -0.20108,-0.11712 -0.67989,-0.36875 -1.06401,-0.55918 -0.78008,-0.38672 -0.81623,-0.4266 -1.00109,-1.10448 -0.0526,-0.19293 -0.22634,-0.68784 -0.38605,-1.09981 -0.35432,-0.91388 -0.51382,-1.48001 -0.5225,-1.85451 -0.004,-0.15587 -0.012,-0.28345 -0.0187,-0.2835 -0.007,-5e-5 -0.0512,0.0756 -0.099,0.16799 -0.0586,0.11332 -0.10471,0.15032 -0.1415,0.11353 -0.0799,-0.0799 0.24539,-0.53654 0.76475,-1.07323 0.47323,-0.48902 0.50215,-0.58182 0.2357,-0.7564 -0.1332,-0.0873 -0.13805,-0.0845 -0.53505,0.30989 -0.22035,0.21888 -0.47979,0.5141 -0.57653,0.65605 -0.0967,0.14194 -0.1941,0.25812 -0.21636,0.25817 -0.0796,2.1e-4 -0.0386,-0.14679 0.0678,-0.24303 0.13252,-0.11993 0.10387,-0.1653 -0.0518,-0.082 -0.063,0.0337 -0.65582,0.13002 -1.31725,0.21393 -0.7851,0.0996 -1.26653,0.18562 -1.38672,0.24778 -0.10127,0.0524 -0.3666,0.28223 -0.58964,0.51082 -0.58848,0.60312 -1.68073,1.35795 -2.29927,1.58896 -0.30718,0.11473 -0.43688,0.21463 -0.48629,0.37458 -0.1519,0.49169 -1.0341,2.20015 -1.57003,3.04051 -0.27063,0.42437 -0.3419,0.78885 -0.35261,1.80318 -0.008,0.78632 0.007,0.95543 0.13856,1.54444 0.15523,0.69443 0.31752,1.1464 0.41162,1.1464 0.0308,0 0.0559,-0.0138 0.0559,-0.0305 z m 26.22709,-0.64721 c 0,-0.0783 -0.0233,-0.12367 -0.0539,-0.10475 -0.0297,0.0183 -0.0539,0.0805 -0.0539,0.1381 0,0.0576 0.0242,0.10475 0.0539,0.10475 0.0297,0 0.0539,-0.0621 0.0539,-0.1381 z m -10.11844,-8.32654 c -0.0386,-0.1539 -0.12327,-0.27773 -0.18984,-0.27773 -0.0444,0 0.0152,0.3238 0.0785,0.42623 0.0667,0.10784 0.14834,-6.9e-4 0.11135,-0.1485 z m -1.51106,-1.62686 c -0.0537,-0.0593 -0.12197,-0.10793 -0.15165,-0.10793 -0.0297,0 -0.01,0.0486 0.0437,0.10793 0.0537,0.0594 0.12196,0.10793 0.15164,0.10793 0.0297,0 0.01,-0.0486 -0.0437,-0.10793 z m -4.14657,-0.71504 c -0.0149,-0.0371 -0.0272,-0.007 -0.0272,0.0674 0,0.0742 0.0122,0.10456 0.0272,0.0674 0.0149,-0.0371 0.0149,-0.0978 0,-0.13491 z m 1.66669,-0.0453 c 0.11234,-0.21724 0.0683,-0.31892 -0.13818,-0.31892 -0.16238,0 -0.16524,0.004 -0.12952,0.20237 0.0621,0.34445 0.13373,0.37562 0.2677,0.11655 z"
         id="path381" />
      <circle
         style="fill:none;stroke:#ff0000;stroke-width:0.1;stroke-dasharray:none"
         id="path788-8-1-8-1-9-2-1-4-2"
         cx="-322.85812"
         cy="-206.24355"
         r="19.954653" />
      <ellipse
         style="fill:none;stroke:#ff00ff;stroke-width:0.1;stroke-dasharray:none;stroke-opacity:1"
         id="path1138-9-4-0-0-1-2-6-7-2"
         cx="-322.85812"
         cy="-206.24355"
         rx="18.492125"
         ry="18.492126" />
      <circle
         style="fill:none;stroke:#0000ff;stroke-width:0.1;stroke-linecap:round;stroke-dasharray:none;stroke-opacity:1;paint-order:markers stroke fill"
         id="path13019-1-33-7-4-6"
         cx="-322.85812"
         cy="-221.25452"
         r="2" />
    </g>
  </g>
</svg>
