<?xml version="1.0" encoding="UTF-8" standalone="no"?>
<!-- Created with Inkscape (http://www.inkscape.org/) -->

<svg
   width="41.008999mm"
   height="41.008999mm"
   viewBox="0 0 41.008999 41.008999"
   version="1.1"
   id="svg1"
   sodipodi:docname="141.svg"
   inkscape:version="1.4.2 (f4327f4, 2025-05-13)"
   xmlns:inkscape="http://www.inkscape.org/namespaces/inkscape"
   xmlns:sodipodi="http://sodipodi.sourceforge.net/DTD/sodipodi-0.dtd"
   xmlns="http://www.w3.org/2000/svg"
   xmlns:svg="http://www.w3.org/2000/svg">
  <sodipodi:namedview
     id="namedview1"
     pagecolor="#ffffff"
     bordercolor="#000000"
     borderopacity="0.25"
     inkscape:showpageshadow="2"
     inkscape:pageopacity="0.0"
     inkscape:pagecheckerboard="0"
     inkscape:deskcolor="#d1d1d1"
     inkscape:document-units="mm"
     showguides="false"
     inkscape:zoom="2"
     inkscape:cx="156.5"
     inkscape:cy="47.5"
     inkscape:window-width="1050"
     inkscape:window-height="1081"
     inkscape:window-x="857"
     inkscape:window-y="0"
     inkscape:window-maximized="0"
     inkscape:current-layer="layer1" />
  <defs
     id="defs1" />
  <g
     inkscape:label="Layer 1"
     inkscape:groupmode="layer"
     id="layer1"
     transform="translate(-70.643761,-99.218767)">
    <g
       id="g11697"
       transform="translate(371.69858,326.09744)">
      <path
         style="fill:#000000;stroke-width:0.1;stroke-dasharray:none"
         d="m -287.69864,-190.93313 c -0.0982,-0.24541 -0.15018,-0.28854 -0.38015,-0.31539 -0.23634,-0.0276 -0.29399,9.1e-4 -0.51096,0.25461 l -0.24456,0.28572 -0.0781,-0.28138 c -0.21829,-0.78618 0.0489,-1.47089 0.88162,-2.25986 l 0.54327,-0.51466 -0.18262,-0.38159 c -0.14723,-0.30765 -0.23263,-0.39735 -0.44086,-0.46298 -0.38398,-0.12103 -1.0178,-0.4866 -1.40931,-0.81282 -0.77061,-0.64211 -1.45533,-2.07711 -1.56762,-3.28533 l -0.0501,-0.53834 -0.48522,-0.51407 c -0.7999,-0.84746 -1.30419,-1.70116 -1.50299,-2.54435 -0.1896,-0.80415 -0.12216,-1.30715 0.35583,-2.65388 0.14287,-0.40254 0.37771,-1.32474 0.52188,-2.04932 0.15517,-0.77987 0.33627,-1.47109 0.44386,-1.69406 0.22006,-0.45605 0.61514,-0.84469 1.36233,-1.3401 0.62138,-0.41201 0.93189,-0.75412 1.54304,-1.70004 0.44181,-0.68386 0.62665,-0.84814 1.02749,-0.91318 0.48145,-0.0781 0.49782,0.21904 0.0845,1.53424 -0.0987,0.31405 -0.17945,0.66119 -0.17945,0.77141 0,0.37618 0.22169,1.07208 0.575,1.80492 l 0.35294,0.73207 0.55012,0.16185 c 0.76116,0.22394 2.23816,0.89515 2.90808,1.32156 l 0.55843,0.35543 0.3268,-0.16454 c 0.17974,-0.0905 0.60238,-0.25729 0.93918,-0.37067 0.46829,-0.15762 0.62769,-0.24599 0.67743,-0.37557 0.1604,-0.41783 -0.009,-1.94021 -0.25884,-2.32094 -0.11181,-0.17064 -0.15148,-0.18172 -0.50257,-0.14029 -0.54274,0.064 -1.04111,0.23507 -1.51091,0.51844 -0.52331,0.31565 -0.82395,0.37461 -1.07419,0.21063 -0.10481,-0.0687 -0.35586,-0.1333 -0.55786,-0.14362 -0.27306,-0.0139 -0.3866,-0.0544 -0.44253,-0.15781 -0.0414,-0.0765 -0.30069,-0.35621 -0.57625,-0.62165 -0.29481,-0.28396 -0.50103,-0.5435 -0.50103,-0.63054 0,-0.17718 0.26521,-0.53362 0.39703,-0.53362 0.16893,0 0.92038,-0.74063 0.92038,-0.9071 0,-0.0862 -0.0824,-0.27793 -0.18297,-0.42604 -0.10063,-0.14809 -0.18298,-0.33044 -0.18298,-0.4052 0,-0.2133 0.39911,-0.78946 0.97374,-1.40571 0.28966,-0.31065 0.77035,-0.89987 1.06821,-1.30937 0.56262,-0.77353 1.09806,-1.32858 1.28162,-1.32858 0.21404,0 0.19082,0.26952 -0.0656,0.76147 -0.42592,0.81714 -0.33559,1.01462 0.3941,0.86157 0.67627,-0.14185 1.16241,-0.42947 1.76149,-1.04218 0.71726,-0.73356 1.02715,-0.90168 1.02715,-0.55725 0,0.20194 -0.51084,1.27114 -0.94815,1.98449 l -0.31123,0.5077 0.1915,0.13952 c 0.22315,0.16254 0.73695,0.8229 1.011,1.29937 0.41076,0.71415 0.98185,2.28811 1.30699,3.60216 0.0872,0.35223 0.18317,0.64041 0.21335,0.64041 0.11658,0 0.6791,-0.68543 0.81541,-0.99357 0.0789,-0.17819 0.16234,-0.48462 0.18559,-0.68095 l 0.0423,-0.35695 -0.35679,-0.11894 c -0.54157,-0.18054 -1.11541,-0.79345 -1.24158,-1.3261 -0.0507,-0.2142 -0.0485,-0.21644 0.0928,-0.0915 0.22522,0.19921 0.3163,0.15699 0.31584,-0.14639 -5.5e-4,-0.41719 -0.1221,-0.78778 -0.52865,-1.61255 -0.35459,-0.71936 -0.36716,-0.76524 -0.28495,-1.03965 0.0806,-0.26889 0.43185,-0.77344 0.49473,-0.71056 0.0157,0.0157 -0.0214,0.14772 -0.0823,0.2935 -0.14913,0.3569 -0.14039,0.41613 0.0614,0.41613 0.37003,0 0.63612,-0.1661 1.00132,-0.62506 0.70418,-0.88495 1.66964,-1.6245 2.39662,-1.83585 0.21621,-0.0628 0.40625,-0.10113 0.42231,-0.0851 0.016,0.016 -0.12929,0.14754 -0.32299,0.29216 -0.42946,0.32061 -0.82975,0.89869 -0.7998,1.15504 0.0175,0.14987 0.0669,0.18826 0.26698,0.20742 0.19175,0.0184 0.38169,-0.06 0.86744,-0.35791 1.0439,-0.64017 1.11235,-0.66378 1.76634,-0.60924 0.57073,0.0475 1.10956,-0.0478 1.10956,-0.19648 0,-0.0371 0.0329,-0.0675 0.0731,-0.0675 0.14384,0 0.0697,0.29426 -0.12808,0.50823 -0.17062,0.1846 -0.28416,0.22874 -0.74554,0.2898 -0.71066,0.0941 -0.91216,0.23993 -0.94143,0.68153 -0.0274,0.41481 0.20389,0.722 0.6429,0.85354 0.36961,0.11074 0.55516,0.0579 0.69378,-0.19732 0.16451,-0.30296 0.14345,0.022 -0.0253,0.38927 -0.19389,0.42226 -0.36466,0.54192 -0.99991,0.70066 -0.6685,0.16705 -1.01951,0.36636 -1.17508,0.66722 -0.0624,0.12061 -0.10275,0.22824 -0.0897,0.23917 0.0405,0.0339 0.9377,0.31405 1.7725,0.55343 0.43853,0.12575 0.8716,0.27729 0.96236,0.33676 0.18128,0.11879 0.29516,0.35902 0.36743,0.77505 0.10493,0.60413 1.40148,3.01698 2.58744,4.81519 l 0.5551,0.84168 -0.006,0.76849 c -0.005,0.67973 -0.0387,0.86571 -0.28238,1.61017 -0.2827,0.86406 -0.93206,2.31628 -1.2107,2.70759 -0.0862,0.121 -0.2025,0.22001 -0.25852,0.22001 -0.11864,0 -0.15755,-0.13582 -0.50793,-1.7728 -0.3051,-1.42542 -0.4298,-1.7523 -0.80887,-2.12032 -0.32248,-0.31309 -1.10026,-0.71784 -1.37941,-0.71784 -0.27229,0 -0.68039,0.55307 -0.5353,0.72545 0.15966,0.18968 0.38997,0.62145 0.48486,0.90898 0.0684,0.20715 0.12763,0.2685 0.25935,0.2685 0.32478,0 1.19716,0.80656 1.40259,1.29677 0.14906,0.35572 0.12178,0.5028 -0.1423,0.76732 -0.13256,0.13277 -0.29902,0.33354 -0.36993,0.44616 -0.16003,0.25416 -0.4813,0.45547 -0.98047,0.61437 -0.38113,0.12132 -0.38502,0.12098 -0.56722,-0.0501 -0.23612,-0.22182 -0.23168,-0.33538 0.0178,-0.45458 0.43469,-0.2077 0.18423,-0.67699 -0.3613,-0.67699 -0.22064,0 -0.32957,0.043 -0.4333,0.17112 -0.18108,0.22362 -0.17535,0.36558 0.0177,0.43698 0.15339,0.0568 0.15256,0.0607 -0.0464,0.21721 -0.24695,0.19424 -0.35074,0.19632 -0.75016,0.015 -0.43815,-0.19889 -0.40823,-0.0606 0.12876,0.59531 1.31398,1.60483 1.56735,3.12532 0.79076,4.74557 -0.12541,0.26165 -0.24332,0.61153 -0.26204,0.7775 l -0.034,0.30177 0.34918,0.13335 c 0.46231,0.17656 1.17018,0.70391 1.31138,0.97697 0.15024,0.29051 0.14463,0.30729 -0.0748,0.22387 -0.46641,-0.17733 -0.80052,0.0191 -0.71972,0.42313 l 0.0451,0.22559 -0.31903,-0.0461 c -0.17547,-0.0254 -0.41784,-0.0474 -0.5386,-0.049 -0.21003,-0.003 -0.22053,0.0119 -0.24167,0.33972 l -0.0222,0.3426 -0.30725,-0.20067 c -0.39822,-0.26009 -0.79729,-0.42089 -1.28661,-0.51841 -0.47801,-0.0953 -1.52072,-0.62441 -1.62896,-0.82665 -0.0472,-0.0882 -0.0679,-0.46985 -0.0521,-0.96032 l 0.0263,-0.81399 -0.65997,0.33211 c -0.42084,0.2118 -0.93806,0.39739 -1.42758,0.51226 -0.69029,0.16198 -0.92624,0.18015 -2.34123,0.18021 -0.86547,4e-5 -1.80777,-0.0244 -2.09402,-0.0544 l -0.52042,-0.0544 -0.0425,0.41065 c -0.0447,0.43316 -0.36465,1.1831 -0.53216,1.24737 -0.0544,0.0209 -0.28281,0.2655 -0.50747,0.54356 -0.47182,0.58395 -0.63838,0.63575 -0.78051,0.24271 l -0.0951,-0.26286 -0.47691,0.0473 c -0.40157,0.0397 -0.50852,0.0813 -0.67714,0.26286 -0.11013,0.11858 -0.2136,0.2156 -0.22992,0.2156 -0.0163,0 -0.0808,-0.12793 -0.14343,-0.28428 z m 4.27817,-3.02601 0.11828,-0.15797 0.37119,0.1837 0.37119,0.1837 0.0412,-0.16445 c 0.0553,-0.22049 -0.0599,-0.50198 -0.28588,-0.6985 -0.10198,-0.0886 -0.18541,-0.20024 -0.18541,-0.24793 0,-0.0477 -0.0642,-0.16831 -0.14263,-0.26803 l -0.14263,-0.18132 0.81829,-0.0887 c 0.6348,-0.0689 0.82484,-0.0691 0.84749,-9e-4 0.0733,0.22004 0.55826,0.64977 0.89827,0.79604 0.30606,0.13167 0.45665,0.15306 0.82277,0.11692 0.24648,-0.0243 0.67047,-0.0626 0.94217,-0.0852 0.27173,-0.0225 0.49404,-0.0649 0.49404,-0.0942 0,-0.0292 -0.0483,-0.11712 -0.10746,-0.19526 -0.1709,-0.22595 -0.13227,-0.27379 0.18065,-0.22375 0.38927,0.0623 0.38013,-0.0463 -0.0366,-0.43437 -0.36494,-0.33984 -0.39876,-0.45972 -0.18441,-0.65369 0.3242,-0.2934 0.25895,-1.02442 -0.14368,-1.60962 -0.17496,-0.25429 -0.20675,-0.36134 -0.17162,-0.57782 0.0237,-0.14614 0.0571,-0.26571 0.0742,-0.26571 0.12048,0 0.9129,0.6251 1.08181,0.8534 0.41417,0.55979 0.64222,0.75675 0.87677,0.75725 0.12294,3.1e-4 0.32027,0.0643 0.43853,0.14222 0.11825,0.0779 0.24175,0.1252 0.27445,0.10498 0.0327,-0.0202 0.0605,-0.20771 0.0617,-0.41667 0.002,-0.32197 0.031,-0.40078 0.18985,-0.51662 0.15325,-0.11169 0.22041,-0.12173 0.3671,-0.0549 0.24323,0.11082 0.2457,0.10964 0.24684,-0.11947 5.4e-4,-0.1107 0.021,-0.27607 0.0455,-0.3675 0.0364,-0.13578 0.0641,-0.15004 0.15096,-0.0779 0.12718,0.10554 0.23872,-0.0249 0.24052,-0.2812 0.004,-0.44636 -0.8787,-0.72612 -2.82599,-0.89651 -0.44791,-0.0392 -0.90491,-0.094 -1.01555,-0.12175 -0.19808,-0.0497 -0.20053,-0.0574 -0.16008,-0.49769 0.0502,-0.54592 0.17705,-0.99611 0.28077,-0.99611 0.0424,0 0.26313,0.11482 0.4906,0.25515 0.76967,0.47484 1.46753,0.40617 1.76327,-0.17351 0.16347,-0.32045 0.18554,-0.49876 0.0819,-0.66246 -0.0549,-0.0867 -0.0865,-0.0884 -0.18099,-0.01 -0.19562,0.16235 -0.24202,-0.12097 -0.0512,-0.3118 0.15143,-0.15134 0.16827,-0.15308 0.36851,-0.0383 0.20883,0.11974 0.21119,0.11887 0.49892,-0.18298 0.40425,-0.42406 0.60441,-0.78791 0.60441,-1.09871 0,-0.27524 -0.20023,-0.55859 -0.39472,-0.55859 -0.0561,0 -0.12125,-0.0412 -0.14483,-0.0915 -0.0235,-0.0503 -0.1203,-0.22263 -0.21493,-0.38292 -0.17162,-0.29072 -0.17169,-0.292 -0.0324,-0.52824 0.1939,-0.32862 0.14371,-0.45604 -0.23786,-0.60397 -0.18115,-0.0702 -0.61677,-0.26563 -0.96804,-0.43423 -0.58444,-0.28051 -0.69104,-0.36692 -1.2551,-1.01748 -0.69798,-0.80502 -1.00534,-1.05982 -1.23841,-1.02663 -0.13741,0.0196 -0.15892,0.0641 -0.14495,0.2999 0.009,0.15233 0.10424,0.48167 0.2116,0.73189 0.10736,0.25021 0.20954,0.60314 0.22705,0.78428 0.0312,0.32323 0.0241,0.33607 -0.38616,0.68976 -0.57379,0.49471 -0.78716,0.96693 -0.79499,1.75938 -0.006,0.68203 -0.14753,0.98638 -0.77289,1.67062 l -0.36662,0.40114 -0.31142,-0.10821 c -0.17128,-0.0595 -0.48407,-0.11336 -0.69507,-0.11965 -0.21102,-0.006 -0.38392,-0.0186 -0.38426,-0.0273 -0.004,-0.0834 0.57106,-1.03065 0.66703,-1.10046 0.0693,-0.0503 0.14724,-0.1888 0.17333,-0.30762 0.0261,-0.11882 0.10974,-0.29523 0.18589,-0.39201 0.13762,-0.17497 0.13736,-0.17646 -0.044,-0.25913 -0.10036,-0.0457 -0.32137,-0.10481 -0.49115,-0.13132 -0.16976,-0.0265 -0.33287,-0.0844 -0.36244,-0.12857 -0.0905,-0.13533 -0.0622,-0.35474 0.0637,-0.49393 0.13037,-0.14406 0.15106,-0.12264 -0.23755,-0.24593 -0.0648,-0.0206 -0.29591,0.0645 -0.51361,0.18907 -0.367,0.20998 -0.61281,0.50869 -0.61281,0.74469 0,0.0542 -0.12778,0.22334 -0.28396,0.37584 -0.34995,0.34172 -0.6398,0.90095 -0.75729,1.46103 -0.0804,0.38338 -0.0751,0.44984 0.0553,0.69342 0.18507,0.34563 0.66881,0.59876 1.14423,0.59876 0.19076,0 0.50944,0.0349 0.70817,0.0775 l 0.36133,0.0775 -0.63974,0.63611 c -0.35186,0.34985 -0.78455,0.85321 -0.96155,1.11856 -0.21004,0.3149 -0.35993,0.47138 -0.43158,0.45054 -0.40939,-0.11902 -1.50662,-0.57386 -1.7026,-0.70579 -0.34433,-0.23177 -0.43657,-0.4828 -0.43085,-1.17251 0.007,-0.77423 0.0611,-0.90568 0.45503,-1.09473 l 0.3244,-0.15566 -0.025,-0.38424 -0.025,-0.38426 h 0.35869 c 0.3914,0 0.56506,-0.0941 0.64015,-0.34694 0.0484,-0.163 0.0474,-0.16322 -0.17309,-0.0367 -0.20863,0.11974 -0.22912,0.11991 -0.34606,0.003 -0.15317,-0.15317 -0.0502,-0.31172 0.25037,-0.38559 0.29413,-0.0723 0.51105,-0.23364 0.63413,-0.47163 l 0.10955,-0.21187 -0.22419,0.0845 c -0.20198,0.0761 -0.23852,0.0668 -0.3687,-0.0939 -0.18155,-0.22406 -0.13962,-0.40902 0.19987,-0.88156 0.14411,-0.20059 0.2742,-0.48212 0.29466,-0.63769 l 0.0367,-0.27853 -0.11106,0.19165 c -0.12333,0.21284 -0.50394,0.41941 -0.8874,0.48164 -0.33078,0.0537 -0.40951,-0.12306 -0.1882,-0.42241 0.11851,-0.1603 0.13213,-0.21428 0.0541,-0.21428 -0.18939,0 -0.53952,0.49056 -0.70497,0.98772 -0.0895,0.269 -0.18819,0.46146 -0.21928,0.42769 -0.0311,-0.0338 -0.0929,-0.27434 -0.13737,-0.53458 -0.0574,-0.33591 -0.13418,-0.52654 -0.26469,-0.65706 l -0.18386,-0.18385 v 0.30332 c 0,0.40805 -0.20462,0.8592 -0.74202,1.63599 -0.36452,0.52686 -0.44898,0.70333 -0.44898,0.93802 0,0.32665 0.20863,0.6718 0.51752,0.85614 0.10877,0.0649 0.25955,0.20106 0.33508,0.30255 0.13431,0.18047 0.13431,0.1944 0,0.63423 -0.0916,0.29985 -0.13537,0.65701 -0.13145,1.07182 0.007,0.78248 0.20038,1.31106 0.66889,1.83215 0.3881,0.43166 1.26349,1.11629 1.8511,1.44771 0.38015,0.21441 0.65789,0.53442 0.65789,0.75803 0,0.0548 -0.13552,0.32969 -0.30115,0.61082 -0.45961,0.78015 -0.46732,0.84537 -0.15069,1.276 l 0.26885,0.36567 0.20499,-0.21759 c 0.27662,-0.29365 0.50234,-0.28093 0.79894,0.045 0.23814,0.26169 0.23936,0.26207 0.34943,0.1072 0.0607,-0.0855 0.16367,-0.22649 0.22873,-0.31338 z m 3.14311,-1.45263 c -0.21894,-0.0777 -0.47086,-0.20966 -0.5598,-0.29322 -0.15437,-0.14502 -0.19351,-0.14813 -0.86048,-0.0685 -1.59932,0.19095 -2.42173,-0.33309 -2.41,-1.53562 0.004,-0.32241 -0.0304,-0.51533 -0.10408,-0.59857 -0.13646,-0.15419 -0.076,-0.35997 0.19755,-0.67143 0.11384,-0.12965 0.2365,-0.3497 0.2726,-0.489 0.0665,-0.25639 0.18407,-0.34461 0.66026,-0.49516 0.29819,-0.0943 0.30484,-0.003 0.0183,0.25297 -0.12076,0.10759 -0.21957,0.25032 -0.21957,0.31716 0,0.0668 -0.0823,0.19887 -0.18297,0.29341 -0.2083,0.19569 -0.23256,0.29277 -0.0731,0.29277 0.0604,0 0.10978,-0.0421 0.10978,-0.0935 0,-0.0514 0.0988,-0.18019 0.21957,-0.28616 0.24094,-0.21142 0.26601,-0.20421 0.12808,0.0369 -0.0503,0.0879 -0.12508,0.32429 -0.16615,0.52527 -0.0601,0.29405 -0.12125,0.39409 -0.31323,0.51232 -0.21192,0.13052 -0.23445,0.17536 -0.20172,0.40138 0.0512,0.35269 0.26046,0.60697 0.59075,0.7175 0.30479,0.102 0.48001,0.0261 0.29472,-0.12769 -0.0621,-0.0515 -0.11308,-0.14729 -0.11333,-0.21281 -2.3e-4,-0.0655 -0.0477,-0.20969 -0.10545,-0.32039 -0.0913,-0.17502 -0.0912,-0.20127 5.5e-4,-0.20127 0.0579,0 0.10545,-0.0494 0.10545,-0.10979 0,-0.13234 0.0854,-0.14149 0.20493,-0.0219 0.0677,0.0677 0.10768,0.068 0.17465,9.1e-4 0.067,-0.067 0.11523,-0.0611 0.21102,0.0255 0.1125,0.10181 0.14931,0.0953 0.39132,-0.0689 0.14692,-0.0997 0.30721,-0.19579 0.3562,-0.21354 0.0578,-0.0209 0.0185,-0.10761 -0.11219,-0.24716 -0.22547,-0.24074 -0.26237,-0.49715 -0.0816,-0.56654 0.1082,-0.0415 0.10644,-0.0607 -0.0184,-0.19921 -0.076,-0.0843 -0.21043,-0.18094 -0.2989,-0.21477 -0.27355,-0.10464 -0.42194,-0.4037 -0.33724,-0.67966 0.045,-0.14677 0.0474,-0.30615 0.006,-0.41683 -0.23171,-0.6249 0.43124,-1.31364 1.26443,-1.31364 0.32259,0 0.40496,0.0309 0.57895,0.21715 0.44682,0.47833 0.64654,1.29051 0.40719,1.65582 -0.18573,0.28346 -0.0485,0.36789 0.30485,0.18762 0.15843,-0.0808 0.33106,-0.19877 0.38363,-0.2621 0.0526,-0.0633 0.17461,-0.11512 0.27125,-0.11512 0.16864,0 0.17107,0.007 0.0606,0.17566 -0.11071,0.16897 -0.10729,0.17829 0.0898,0.24461 l 0.20489,0.069 -0.30128,0.15444 c -0.1657,0.0849 -0.40415,0.24099 -0.52987,0.34678 l -0.22859,0.19235 0.17995,0.23593 c 0.52636,0.69006 0.54962,1.75047 0.0482,2.19722 -0.21029,0.18737 -0.19722,0.27285 0.0682,0.4461 0.12335,0.0805 0.2558,0.20335 0.29434,0.27299 0.0614,0.1109 0.0426,0.12112 -0.15127,0.0823 -0.14142,-0.0283 -0.22137,-0.0145 -0.22137,0.0381 0,0.10467 -0.0273,0.10093 -0.50787,-0.0696 z m -2.63927,-3.28363 c 0,-0.0378 0.0329,-0.0893 0.0731,-0.1141 0.0402,-0.0249 0.0731,0.006 0.0731,0.0689 0,0.0627 -0.0329,0.1141 -0.0731,0.1141 -0.0402,0 -0.0731,-0.031 -0.0731,-0.0689 z m -1.6671,-5.47526 c 0.12097,-0.13817 0.23227,-0.95482 0.114,-0.83656 -0.0378,0.0377 -0.0868,0.2126 -0.10908,0.38856 -0.0223,0.17596 -0.0906,0.37756 -0.15195,0.448 -0.0614,0.0704 -0.0786,0.12809 -0.0383,0.12809 0.0402,0 0.12365,-0.0577 0.18534,-0.12809 z m -2.13773,-1.72464 c 0.0875,-0.17522 0.14679,-0.41139 0.13322,-0.53063 l -0.0245,-0.21488 -0.20806,0.30662 c -0.16395,0.24162 -0.19763,0.3541 -0.15886,0.53062 0.0271,0.1232 0.0608,0.22401 0.0749,0.22401 0.0141,0 0.0966,-0.14209 0.18334,-0.31574 z m 10.69021,-1.11837 c 1.32678,-0.82532 1.36512,-0.85611 1.54017,-1.23731 0.16532,-0.36003 0.1716,-0.6806 0.0244,-1.24572 -0.0874,-0.33552 -0.41355,-1.18454 -0.51394,-1.33785 -0.007,-0.0121 -0.13459,0.0597 -0.28153,0.1594 -0.14695,0.0997 -0.36489,0.20277 -0.48431,0.229 l -0.21714,0.0476 -5.6e-4,0.5614 c -0.002,1.33371 -0.26292,2.11835 -0.92833,2.78428 -0.3449,0.34518 -0.45461,0.50204 -0.42231,0.60382 0.024,0.0756 0.0686,0.13749 0.0992,0.13749 0.0305,0 0.56351,-0.316 1.1844,-0.70222 z"
         id="path526" />
      <circle
         style="fill:none;stroke:#ff0000;stroke-width:0.1;stroke-dasharray:none"
         id="path788-8-1-8-1-9-2-6-3"
         cx="-280.55032"
         cy="-206.37418"
         r="19.954653" />
      <ellipse
         style="fill:none;stroke:#ff00ff;stroke-width:0.1;stroke-dasharray:none;stroke-opacity:1"
         id="path1138-9-4-0-0-1-2-0-0"
         cx="-280.55032"
         cy="-206.37418"
         rx="18.492125"
         ry="18.492126" />
      <circle
         style="fill:none;stroke:#0000ff;stroke-width:0.1;stroke-linecap:round;stroke-dasharray:none;stroke-opacity:1;paint-order:markers stroke fill"
         id="path13019-1-33-3-83"
         cx="-280.55032"
         cy="-221.38515"
         r="2" />
    </g>
  </g>
</svg>
