<?xml version="1.0" encoding="UTF-8" standalone="no"?>
<!-- Created with Inkscape (http://www.inkscape.org/) -->

<svg
   width="41.008999mm"
   height="41.008999mm"
   viewBox="0 0 41.008999 41.008999"
   version="1.1"
   id="svg1"
   inkscape:version="1.4.2 (f4327f4, 2025-05-13)"
   sodipodi:docname="144.svg"
   xmlns:inkscape="http://www.inkscape.org/namespaces/inkscape"
   xmlns:sodipodi="http://sodipodi.sourceforge.net/DTD/sodipodi-0.dtd"
   xmlns="http://www.w3.org/2000/svg"
   xmlns:svg="http://www.w3.org/2000/svg">
  <sodipodi:namedview
     id="namedview1"
     pagecolor="#ffffff"
     bordercolor="#000000"
     borderopacity="0.25"
     inkscape:showpageshadow="2"
     inkscape:pageopacity="0.0"
     inkscape:pagecheckerboard="0"
     inkscape:deskcolor="#d1d1d1"
     inkscape:document-units="mm"
     inkscape:zoom="1.5878906"
     inkscape:cx="108.3198"
     inkscape:cy="200.26568"
     inkscape:window-width="1050"
     inkscape:window-height="1081"
     inkscape:window-x="3737"
     inkscape:window-y="0"
     inkscape:window-maximized="0"
     inkscape:current-layer="layer1" />
  <defs
     id="defs1" />
  <g
     inkscape:label="Layer 1"
     inkscape:groupmode="layer"
     id="layer1"
     transform="translate(-0.7937635,-0.79375582)">
    <g
       id="g11679"
       transform="translate(175.24901,227.54986)">
      <path
         style="fill:#000000;stroke-width:0.1;stroke-dasharray:none"
         d="m -157.62938,-189.49537 -0.2459,-0.31261 -0.25906,0.25905 c -0.36948,0.36949 -0.75902,0.27578 -0.89957,-0.21642 -0.0956,-0.33469 -0.15558,-0.38533 -0.37051,-0.31266 -0.94855,0.32071 -1.10236,-0.0239 -0.62932,-1.40978 0.3003,-0.8798 0.30224,-0.9077 0.0851,-1.22145 -0.47157,-0.68148 -0.62725,-1.57215 -0.51511,-2.94717 0.0893,-1.09546 0.0456,-1.21617 -0.44177,-1.21958 -0.4524,-0.003 -2.46099,-1.10858 -3.09062,-1.7009 -1.07571,-1.01199 -1.5066,-2.51427 -1.04085,-3.62895 0.25663,-0.61422 0.87809,-1.36316 1.32135,-1.59237 0.36947,-0.19106 1.38628,-0.24138 2.04094,-0.101 0.29267,0.0627 0.32241,0.0151 0.63929,-1.02589 l 0.33234,-1.0917 -0.40691,-0.89649 c -0.44182,-0.97338 -0.83162,-2.12436 -1.05319,-3.10979 -0.0986,-0.43856 -0.26584,-0.7468 -0.55974,-1.03165 -0.65393,-0.63382 -0.5706,-0.85523 0.37482,-0.99586 0.16991,-0.0253 0.25687,-0.14758 0.28563,-0.40172 0.0228,-0.20097 0.10213,-0.43886 0.17643,-0.52866 0.13437,-0.16242 0.67612,-0.14692 1.08335,0.031 0.14654,0.064 0.26254,-0.0146 0.4234,-0.28691 0.44532,-0.75385 0.96111,-0.59435 1.09158,0.33755 0.0439,0.31361 0.22313,0.78232 0.39827,1.04158 0.36488,0.5401 0.39005,0.51161 0.61428,-0.69523 0.52775,-2.84036 2.86181,-4.47059 6.19758,-4.3287 1.06121,0.0452 1.34523,0.10546 2.05051,0.4355 1.61169,0.75421 2.91321,2.39307 3.0841,3.88349 0.0562,0.48988 0.17511,0.83318 0.36983,1.0674 0.36931,0.44425 0.37161,0.9902 0.006,1.34005 -0.15476,0.14795 -0.43721,0.54382 -0.62768,0.87972 -0.19047,0.33589 -0.42994,0.70725 -0.53217,0.82522 -0.10224,0.11798 -0.15806,0.24232 -0.12405,0.27633 0.10701,0.10701 2.20295,-0.54261 3.00236,-0.93056 1.02104,-0.49549 1.20056,-0.45125 1.14912,0.28316 -0.0396,0.56546 -0.0368,0.57007 0.39262,0.65064 0.61124,0.11466 0.76758,0.33963 0.50961,0.73333 -0.11263,0.17189 -0.2834,0.3427 -0.3795,0.37958 -0.0961,0.0369 -0.47224,0.46236 -0.83588,0.94553 -0.80161,1.06508 -1.43945,1.65574 -2.33199,2.15946 l -0.67394,0.38034 -0.001,0.99603 c -6e-4,0.54782 -0.0357,1.28461 -0.0781,1.63729 -0.0725,0.60386 -0.0612,0.64126 0.19368,0.64126 0.14888,0 0.4451,0.17746 0.65827,0.39437 0.28851,0.29356 0.49684,0.39502 0.81508,0.39696 0.39977,0.002 0.42984,0.0304 0.46362,0.43055 0.036,0.42647 0.038,0.4278 0.57488,0.38509 0.4901,-0.0389 0.54575,-0.015 0.61617,0.26558 0.0426,0.16963 0.0413,0.42231 -0.003,0.56153 -0.0688,0.21692 -0.0289,0.2531 0.27937,0.2531 0.4496,0 0.6831,0.26202 0.56626,0.63539 -0.14099,0.45054 -3.09255,3.31612 -3.72685,3.61829 -1.40414,0.6689 -2.84699,-0.009 -3.10937,-1.46068 -0.0793,-0.43882 -0.0879,-0.44446 -0.76331,-0.50047 -0.40182,-0.0333 -0.91284,0.0136 -1.24105,0.11385 -0.37124,0.11345 -1.04418,0.16155 -2.01093,0.14374 l -1.45297,-0.0267 -0.30206,0.59435 c -0.23932,0.47092 -0.27368,0.6398 -0.16544,0.81312 0.25024,0.40072 0.14165,1.07321 -0.41256,2.55474 -0.30204,0.80746 -0.60629,1.57481 -0.67609,1.70524 -0.17621,0.32926 -0.54277,0.29614 -0.83507,-0.0755 z m 0.68728,-0.4508 c 0.078,-0.21833 0.17993,-0.7766 0.22659,-1.24061 l 0.0848,-0.84364 -0.29366,0.0941 c -0.16151,0.0518 -0.49837,0.12099 -0.74856,0.15384 -0.38563,0.0506 -0.5112,0.003 -0.82448,-0.30983 -0.45474,-0.45475 -0.46239,-0.58287 -0.0411,-0.6886 0.56667,-0.14223 0.98824,-0.53695 1.21385,-1.1365 0.22078,-0.58674 0.73319,-1.52433 1.16731,-2.13589 0.3019,-0.42532 0.22951,-0.6454 -0.4432,-1.34748 -0.69636,-0.72676 -1.4191,-1.09225 -2.19731,-1.11116 l -0.61211,-0.0149 -0.28313,0.7069 c -0.18342,0.45794 -0.32899,1.18924 -0.41332,2.07646 -0.15082,1.58672 -0.043,2.1989 0.49277,2.79856 l 0.3406,0.38121 -0.37652,1.07017 c -0.20709,0.5886 -0.34239,1.10432 -0.30066,1.14604 0.0417,0.0417 0.2783,-0.0207 0.52572,-0.13864 0.51439,-0.24529 0.67443,-0.13222 0.67783,0.47887 0.002,0.44264 0.25299,0.42974 0.59328,-0.0306 0.149,-0.20153 0.31405,-0.36643 0.36677,-0.36643 0.0527,0 0.18761,0.19238 0.29973,0.42751 0.253,0.53054 0.36402,0.53676 0.54478,0.0306 z m 8.75268,-6.41257 c 0.37318,-0.52065 0.8556,-1.16035 1.07205,-1.42156 0.29211,-0.35255 0.32546,-0.43243 0.12939,-0.30999 -0.55288,0.34528 -0.4309,-0.0598 0.18481,-0.6137 l 0.64327,-0.57869 -0.24437,-0.31067 c -0.33451,-0.42527 -0.76491,-0.50494 -1.52854,-0.28295 -0.792,0.23025 -1.7605,1.06191 -2.26895,1.94838 -0.4289,0.74777 -0.44756,0.8814 -0.0879,0.62948 0.36944,-0.25876 0.913,-0.24319 1.0594,0.0304 0.0649,0.12128 0.0896,0.43733 0.055,0.70234 -0.0559,0.42734 0.10254,1.15362 0.25167,1.15362 0.0306,0 0.36101,-0.42598 0.73419,-0.94662 z m -3.39349,-0.16957 c 0.73334,-0.18466 0.70949,-0.48648 -0.10805,-1.36744 l -0.64126,-0.691 -1.5268,0.9285 c -0.83975,0.51067 -1.54971,0.95014 -1.57771,0.97659 -0.10602,0.10018 0.084,0.16259 0.84937,0.27896 0.87902,0.13366 2.19298,0.0788 3.00445,-0.12561 z m 8.01455,-0.42883 c 0.33919,-0.0741 0.46539,-0.27874 0.18322,-0.29708 -0.084,-0.005 -0.31758,-0.0229 -0.51912,-0.0389 -0.37164,-0.0293 -0.54439,0.0965 -0.54778,0.39891 -10e-4,0.11507 0.0835,0.14261 0.27296,0.0887 0.15115,-0.043 0.42598,-0.11129 0.61072,-0.15166 z m -10.46973,-0.98785 c 0.88848,-0.54144 1.59226,-1.05434 1.64805,-1.20109 0.0536,-0.14085 0.13632,-0.75396 0.18392,-1.36245 l 0.0865,-1.10636 -1.67287,-0.0896 c -0.93091,-0.0498 -1.71838,-0.0422 -1.77549,0.0172 -0.0564,0.0588 -0.5421,0.77405 -1.07926,1.58954 l -0.97664,1.48272 0.58439,0.37867 c 0.32141,0.20828 0.73157,0.57164 0.91146,0.80749 0.17989,0.23586 0.37481,0.42882 0.43315,0.42882 0.0583,0 0.80388,-0.42523 1.65674,-0.94499 z m 3.52824,-0.13499 c 0.16483,-0.32526 0.6065,-0.8718 0.98149,-1.21453 l 0.6818,-0.62312 -0.39492,-0.80085 -0.39492,-0.80086 -0.8288,-0.0203 c -0.45583,-0.0112 -0.92323,-0.0249 -1.03866,-0.0306 -0.1778,-0.009 -0.23259,0.19473 -0.35846,1.33051 -0.0817,0.73738 -0.10704,1.39696 -0.0563,1.46574 0.30554,0.41388 1.02747,1.2854 1.06476,1.2854 0.0244,0 0.17916,-0.26612 0.34398,-0.59139 z m -9.93283,-0.29169 c -0.64932,-0.90792 -0.89239,-1.80499 -0.95855,-3.53765 l -0.0592,-1.55036 -0.37043,-0.12913 c -0.89789,-0.31301 -1.73186,-0.0819 -2.32349,0.64382 -0.68157,0.83605 -0.70698,0.92645 -0.50446,1.7946 0.21566,0.92445 0.54173,1.49144 0.9699,1.68653 0.4411,0.20097 0.66947,0.17918 1.14215,-0.10899 0.39293,-0.23955 0.40905,-0.27756 0.34791,-0.82006 -0.0492,-0.43635 -0.15273,-0.64803 -0.44449,-0.90873 -0.42743,-0.3819 -0.59546,-0.41355 -0.92318,-0.17392 -0.35212,0.25747 -0.29942,0.91495 0.0988,1.23248 0.3871,0.30865 0.41195,0.43376 0.0862,0.43376 -0.72436,0 -1.01703,-1.31958 -0.42416,-1.91244 0.25258,-0.25258 0.38783,-0.29859 0.69645,-0.23687 0.99582,0.19917 1.60796,1.59616 1.18588,2.70634 -0.10517,0.27663 -0.0762,0.39249 0.18281,0.73212 0.30951,0.40581 1.54953,0.99695 1.63098,0.77754 0.0219,-0.0591 -0.12796,-0.34217 -0.33311,-0.62904 z m 15.46829,0.51665 c 0.25069,-0.13435 0.5528,-0.24428 0.67135,-0.24428 0.11857,0 0.21557,-0.0621 0.21557,-0.13788 0,-0.0955 -0.1949,-0.11203 -0.63424,-0.0537 -0.76244,0.10114 -0.83149,0.13794 -0.83149,0.44312 0,0.29358 0.018,0.29337 0.57881,-0.007 z m -14.76741,-0.69306 c 0.0722,-0.12906 0.0687,-0.33576 -0.01,-0.56028 -0.11666,-0.33465 -0.0803,-1.2448 0.10199,-2.55598 0.0438,-0.31489 0.0424,-0.82078 -0.003,-1.1242 -0.0783,-0.52191 -0.0979,-0.54478 -0.36359,-0.42372 -0.25904,0.11803 -0.28699,0.22817 -0.35979,1.41803 -0.12708,2.07685 -0.10059,2.70448 0.13062,3.09589 0.24043,0.40702 0.34269,0.43755 0.50347,0.15026 z m 2.82655,-1.80694 1.00876,-1.52285 -0.65062,-0.88951 c -0.35784,-0.48922 -0.89264,-1.20931 -1.18844,-1.60019 l -0.53783,-0.7107 -0.30883,0.46641 c -0.16985,0.25652 -0.43195,0.60382 -0.58244,0.77177 -0.25679,0.28659 -0.26587,0.35544 -0.14748,1.11985 0.10214,0.65946 0.0863,1.01516 -0.0832,1.86878 -0.1654,0.83289 -0.18065,1.14134 -0.0726,1.46878 0.14118,0.42776 0.17215,0.44042 1.29623,0.52998 0.20299,0.0162 0.47192,-0.30284 1.26647,-1.50232 z m 11.60633,1.2647 c 0,-0.16099 -0.2886,-0.13105 -0.54516,0.0565 -0.20358,0.14887 -0.1881,0.15935 0.15988,0.10828 0.2119,-0.0312 0.38528,-0.10528 0.38528,-0.16482 z m -2.18251,-1.64722 c 0.0425,-0.19486 0.0837,-0.78535 0.0916,-1.31219 0.0116,-0.76604 -0.0313,-1.01611 -0.21419,-1.24856 l -0.22864,-0.29067 -0.59584,0.87011 c -0.3277,0.47856 -0.64348,0.93306 -0.70171,1.01001 -0.0655,0.0865 0.039,0.42689 0.27357,0.89161 l 0.37946,0.75169 0.45929,-0.15884 c 0.35152,-0.12156 0.4774,-0.24198 0.53645,-0.51316 z m -1.40787,-1.91164 c 0.9194,-1.24884 0.96539,-1.37942 0.63388,-1.79998 -0.15418,-0.19561 -0.36277,-0.38524 -0.46354,-0.4214 -0.21849,-0.0784 -2.5357,-0.43351 -2.8357,-0.43454 -0.18884,-6e-4 -0.20698,0.15952 -0.18321,1.61769 0.0148,0.9051 0.0802,1.65797 0.14852,1.70815 0.0672,0.0493 0.57572,0.0906 1.13009,0.0916 l 1.00794,0.002 0.56202,-0.7634 z m -3.12862,-0.36643 c -0.002,-1.65755 -0.11198,-2.28468 -0.41316,-2.35056 -0.53561,-0.11715 -5.15287,-0.16912 -5.32833,-0.06 -0.22327,0.13889 -0.22632,0.13361 1.16668,2.01621 l 1.0374,1.40202 h 1.76924 1.76923 l -0.001,-1.00769 z m 5.19288,-1.73568 c 0.93419,-0.41315 1.99337,-1.17764 2.54367,-1.83598 0.2532,-0.30291 0.62252,-0.6346 0.82071,-0.73709 0.19819,-0.10248 0.36034,-0.23155 0.36034,-0.28682 0,-0.0553 -0.2273,-0.18976 -0.5051,-0.29888 -0.49734,-0.19536 -0.50408,-0.20609 -0.43825,-0.69693 0.0368,-0.27418 0.0305,-0.47941 -0.014,-0.45607 -0.80656,0.42321 -3.82462,1.42271 -4.35085,1.44089 -0.07,0.003 -0.27864,0.12836 -0.46371,0.27989 l -0.33649,0.27549 0.24863,0.7278 c 0.27845,0.81508 1.00424,1.88818 1.27707,1.88818 0.0982,0 0.48429,-0.13522 0.85799,-0.30048 z m 2.0147,-2.34829 c 0,-0.046 0.11951,-0.21095 0.26558,-0.36643 l 0.26558,-0.2827 h -0.38772 c -0.4327,0 -0.51999,-0.18585 -0.14344,-0.30536 0.28291,-0.0898 0.75488,0.033 0.88033,0.22898 0.0999,0.15603 -0.48129,0.80925 -0.71996,0.80925 -0.0882,0 -0.16037,-0.0376 -0.16037,-0.0837 z m -4.21842,1.58001 c -0.0504,-0.11757 -0.17495,-0.4611 -0.27677,-0.76341 -0.10182,-0.3023 -0.19888,-0.56756 -0.2157,-0.58946 -0.0168,-0.0219 -0.40885,0.1262 -0.87118,0.32912 -1.08448,0.47598 -2.11817,0.64234 -3.1127,0.50095 -0.81669,-0.11611 -1.87245,-0.44376 -2.53666,-0.78723 -0.2202,-0.11386 -0.4383,-0.16113 -0.48467,-0.10503 -0.234,0.28309 -0.75038,1.01875 -0.71831,1.02332 0.0202,0.003 1.35592,0.0602 2.96822,0.12745 1.61231,0.0673 3.37119,0.19463 3.90862,0.28314 1.41202,0.23253 1.44672,0.23205 1.33915,-0.0189 z m -8.7763,-0.42261 c 0.52384,-0.48286 1.14671,-1.4799 1.14671,-1.83556 0,-0.27009 -1.02604,-1.92931 -1.93735,-3.13293 -0.5574,-0.73617 -0.89338,-1.30273 -0.94115,-1.58703 -0.17446,-1.03832 -0.25352,-1.08474 -0.64901,-0.38108 -0.15102,0.26872 -0.29542,0.48859 -0.32087,0.48859 -0.0254,0 -0.23998,-0.1143 -0.47674,-0.25399 -0.53431,-0.31526 -0.68279,-0.23189 -0.68279,0.38334 0,0.4687 -0.0113,0.48136 -0.42751,0.48136 -0.54681,0 -0.54546,0.17686 0.003,0.43727 0.49867,0.23664 0.88894,0.68792 0.98579,1.13992 0.1905,0.88912 0.59952,2.11063 0.94019,2.80782 0.36905,0.75533 1.39685,1.96651 1.66876,1.96651 0.073,0 0.38383,-0.2314 0.69065,-0.51422 z m 8.19891,-1.37383 c 0.76372,-0.35557 1.52578,-1.11472 2.10443,-2.0964 0.23281,-0.39496 0.54886,-0.83916 0.70233,-0.98711 0.36048,-0.34752 0.3525,-0.43276 -0.0874,-0.93378 -0.30177,-0.3437 -0.36644,-0.52423 -0.36644,-1.02297 0,-1.26902 -1.37551,-3.09067 -2.84001,-3.76113 -2.47549,-1.13333 -5.90924,-0.23411 -7.1426,1.87047 -0.36523,0.62322 -0.38707,1.25832 -0.0837,2.43391 0.66072,2.56031 2.19903,4.01622 4.87516,4.61404 1.18168,0.26398 2.10129,0.22605 2.83821,-0.11703 z m -3.14358,-0.656 c -1.02326,-0.34155 -1.6809,-0.7183 -2.25383,-1.29124 -0.6243,-0.6243 -1.56967,-2.19725 -1.4967,-2.49029 0.0381,-0.1531 0.0915,-0.10586 0.19922,0.17629 0.26001,0.68114 0.63326,0.75334 3.3681,0.65141 0.85368,-0.0319 1.22211,0.009 1.64895,0.18216 0.3023,0.12272 0.76951,0.21694 1.03823,0.20936 1.66374,-0.0469 2.0098,-0.024 2.48052,0.16438 0.28161,0.11267 0.51201,0.25181 0.51201,0.30917 0,0.0574 -0.2364,0.39494 -0.52535,0.75014 -0.36779,0.45215 -0.77216,0.77199 -1.34834,1.06649 -0.71986,0.36794 -0.95634,0.42539 -1.88701,0.45851 -0.78786,0.028 -1.23835,-0.0203 -1.7358,-0.18638 z m 3.54118,-0.48438 c 0.72011,-0.36223 0.87588,-0.64298 0.55406,-0.99858 -0.29911,-0.33052 -0.77079,-0.37666 -1.60674,-0.15718 -0.72968,0.19157 -0.76449,0.18951 -1.3972,-0.0827 -0.83727,-0.36018 -1.61327,-0.30237 -2.3328,0.1738 l -0.51466,0.34057 0.32243,0.27735 c 0.17734,0.15253 0.63275,0.39344 1.01204,0.53534 1.45821,0.54559 2.75994,0.51648 3.96287,-0.0886 z m -2.0265,-2.8966 c -0.43516,-0.43517 -0.23527,-0.65583 0.20875,-0.23043 0.19416,0.18602 0.35303,0.38291 0.35303,0.43752 0,0.19159 -0.25833,0.0964 -0.56178,-0.20709 z m 1.04672,0.0689 c 0.14453,-0.27005 0.35618,-0.42784 0.44916,-0.33485 0.11193,0.11193 -0.20425,0.57234 -0.39305,0.57234 -0.14361,0 -0.15574,-0.0513 -0.0561,-0.23749 z m 0.92845,-0.56518 c -0.13808,-0.13808 -0.19195,-0.43284 -0.19195,-1.05044 0,-0.81963 0.0195,-0.87802 0.43104,-1.28953 0.41282,-0.41282 0.44089,-0.42211 0.66452,-0.21973 0.56893,0.51488 0.83755,2.37937 0.37821,2.6252 -0.35298,0.1889 -1.06374,0.15259 -1.28182,-0.0655 z m 1.28413,-0.94588 c -0.15819,-0.15818 -0.18361,0.13645 -0.042,0.48658 0.0797,0.19699 0.0955,0.1892 0.13248,-0.0652 0.0231,-0.1589 -0.0176,-0.34853 -0.0905,-0.4214 z m -0.56822,-0.8074 c 0.23059,-0.25479 0.22072,-0.63056 -0.0187,-0.71026 -0.13431,-0.0448 -0.64334,0.62969 -0.64445,0.85385 -9.5e-4,0.18409 0.45612,0.0851 0.66311,-0.14359 z m -6.26299,1.33883 c -0.22456,-0.0551 -0.46012,-0.15209 -0.52348,-0.21545 -0.19801,-0.198 -0.1466,-1.43848 0.0794,-1.91463 0.44354,-0.93469 1.4381,-1.25563 1.97104,-0.63604 0.25098,0.29177 0.28603,0.45859 0.28603,1.36112 0,0.93283 -0.0256,1.04509 -0.27482,1.2056 -0.36626,0.23589 -1.03597,0.3227 -1.53812,0.1994 z m -0.11892,-1.03713 -0.0502,-0.78852 0.44621,0.0725 c 0.35967,0.0583 0.50449,0.0177 0.74674,-0.20994 0.40585,-0.38127 0.3985,-0.82124 -0.0155,-0.92514 -0.348,-0.0873 -0.78489,0.17207 -1.17914,0.70011 -0.30121,0.40345 -0.44232,1.67584 -0.20268,1.82757 0.28907,0.18302 0.30634,0.13714 0.25452,-0.6765 z"
         id="path970"
         sodipodi:nodetypes="ccsssssscssssscsssscsssssssssssssssssssssccssscscscssssssccssssccsscsscssssscssscssccssssssssscssssssssssscsssssscscssssscssscssssssscccssssssssscsssssssssssssssssssssssccccsssccscsscssssscssscsssscssscsscsscsscccccssscccccssssssscscssssscsssssssssssscsssscsssssssscsssccsssssssssssssssssssssssssssscsssssssssssssssssssssssscsssssssssccssssscc" />
      <circle
         style="fill:none;stroke:#ff0000;stroke-width:0.1;stroke-dasharray:none"
         id="path788-8-1-8-1-9-2-56-8-1"
         cx="-153.95074"
         cy="-206.2516"
         r="19.954653" />
      <ellipse
         style="fill:none;stroke:#ff00ff;stroke-width:0.1;stroke-dasharray:none;stroke-opacity:1"
         id="path1138-9-4-0-0-1-2-4-9-7"
         cx="-153.95074"
         cy="-206.2516"
         rx="18.492125"
         ry="18.492126" />
      <circle
         style="fill:none;stroke:#0000ff;stroke-width:0.1;stroke-linecap:round;stroke-dasharray:none;stroke-opacity:1;paint-order:markers stroke fill"
         id="path13019-1-33-6-2-4"
         cx="-153.95076"
         cy="-221.26257"
         r="2" />
    </g>
  </g>
</svg>
