<?xml version="1.0" encoding="UTF-8" standalone="no"?>
<!-- Created with Inkscape (http://www.inkscape.org/) -->

<svg
   width="41.008999mm"
   height="41.008999mm"
   viewBox="0 0 41.008999 41.008999"
   version="1.1"
   id="svg1"
   inkscape:version="1.4.2 (f4327f4, 2025-05-13)"
   sodipodi:docname="145.svg"
   xmlns:inkscape="http://www.inkscape.org/namespaces/inkscape"
   xmlns:sodipodi="http://sodipodi.sourceforge.net/DTD/sodipodi-0.dtd"
   xmlns="http://www.w3.org/2000/svg"
   xmlns:svg="http://www.w3.org/2000/svg">
  <sodipodi:namedview
     id="namedview1"
     pagecolor="#ffffff"
     bordercolor="#000000"
     borderopacity="0.25"
     inkscape:showpageshadow="2"
     inkscape:pageopacity="0.0"
     inkscape:pagecheckerboard="0"
     inkscape:deskcolor="#d1d1d1"
     inkscape:document-units="mm"
     inkscape:zoom="1.5878906"
     inkscape:cx="108.3198"
     inkscape:cy="200.26568"
     inkscape:window-width="1050"
     inkscape:window-height="1081"
     inkscape:window-x="3737"
     inkscape:window-y="0"
     inkscape:window-maximized="0"
     inkscape:current-layer="layer1" />
  <defs
     id="defs1" />
  <g
     inkscape:label="Layer 1"
     inkscape:groupmode="layer"
     id="layer1"
     transform="translate(-0.7937635,-0.79375582)">
    <g
       id="g11492"
       transform="translate(344.03114,177.99929)">
      <path
         style="fill:#000000;stroke-width:0.1;stroke-dasharray:none"
         d="m -324.05282,-142.37198 c 0,-0.2709 -0.25119,-0.31106 -0.77958,-0.12463 -0.40979,0.14458 -0.50934,0.14558 -0.69227,0.007 -0.1175,-0.089 -0.3575,-0.16356 -0.53332,-0.16559 -0.2604,-0.003 -0.31966,-0.0563 -0.31966,-0.28744 0,-0.15606 -0.0523,-0.31607 -0.11624,-0.35559 -0.0639,-0.0395 -0.11624,-0.16972 -0.11624,-0.28934 0,-0.18981 -0.0478,-0.20382 -0.37512,-0.10994 -0.39758,0.11403 -0.78729,0.0489 -0.78729,-0.13158 0,-0.0596 0.14225,-0.36314 0.31613,-0.67455 0.28756,-0.51506 0.30203,-0.59644 0.16019,-0.90093 -0.1553,-0.3334 -0.15696,-0.33104 -0.41861,0.5952 -0.36964,1.30856 -0.37458,1.31672 -0.98335,1.62521 -1.23071,0.62364 -2.44536,0.88397 -2.44536,0.52411 0,-0.0559 -0.22231,-0.11781 -0.49402,-0.13748 -0.41541,-0.0301 -0.48983,-0.0727 -0.46764,-0.26822 0.0145,-0.12787 -0.0323,-0.34776 -0.10394,-0.48865 -0.11179,-0.21971 -0.0783,-0.31539 0.23515,-0.67243 0.42168,-0.48027 0.42638,-0.52646 0.1837,-1.80579 -0.1,-0.52708 -0.21768,-1.43935 -0.26155,-2.02727 l -0.0798,-1.06896 -1.15197,-0.97878 c -1.58796,-1.34916 -1.61491,-1.39227 -1.60614,-2.56918 0.007,-0.98889 0.33396,-2.73952 0.72088,-3.8641 0.1191,-0.34619 0.42246,-0.97084 0.67414,-1.38813 0.25168,-0.41729 0.52286,-1.00997 0.60263,-1.31706 0.53613,-2.06405 0.58717,-2.10715 2.26469,-1.91216 0.65671,0.0763 1.27116,0.1092 1.36543,0.0731 0.0943,-0.0362 0.50489,-0.10281 0.91248,-0.14807 l 0.74106,-0.0823 0.14472,-0.71567 c 0.21874,-1.08173 0.59124,-1.76778 1.38796,-2.55632 0.8861,-0.87699 2.07574,-1.49077 3.27983,-1.69216 0.73603,-0.12311 1.00896,-0.1137 2.03422,0.0701 2.44369,0.43806 2.55241,0.44873 3.16758,0.31107 0.77102,-0.17255 1.06592,-0.39124 1.29304,-0.95887 0.167,-0.41737 0.21731,-0.45715 0.48905,-0.3866 0.27715,0.0719 0.7723,0.14315 1.15159,0.16559 0.0832,0.005 0.22478,0.18499 0.31467,0.40014 0.13561,0.32453 0.24137,0.40365 0.62071,0.46431 0.25149,0.0402 0.48688,0.1503 0.52308,0.24463 0.0362,0.0943 -0.043,0.41751 -0.17598,0.71815 -0.47996,1.08504 -0.1595,2.30397 1.00413,3.81942 0.64956,0.84594 1.38186,2.31021 1.62543,3.25012 0.2039,0.78687 0.23451,2.64754 0.0563,3.42075 -0.46748,2.02776 -2.17797,3.73272 -3.74481,3.73272 -0.5676,0 -0.57517,0.004 -0.50803,0.31966 0.40782,1.91264 0.33256,2.89898 -0.35251,4.61976 -0.67668,1.69974 -1.16516,2.59236 -1.51929,2.77628 -0.17584,0.0913 -0.43898,0.32807 -0.58474,0.52609 -0.3321,0.4512 -0.55228,0.4553 -0.81986,0.0153 l -0.20964,-0.34474 -0.43294,0.29419 c -0.5331,0.36224 -0.83129,0.32868 -0.82595,-0.093 0.004,-0.3049 4.3e-4,-0.30611 -0.39199,-0.14211 -0.21773,0.091 -0.52025,0.1654 -0.67227,0.1654 -0.22207,0 -0.27641,-0.061 -0.27641,-0.31051 0,-0.17077 0.0847,-0.40411 0.18825,-0.51851 0.1443,-0.15945 0.16987,-0.33055 0.10953,-0.73296 -0.0433,-0.28871 -0.12346,-0.55258 -0.17813,-0.58638 -0.0546,-0.0338 -0.32626,0.39581 -0.60355,0.95464 -0.46209,0.93129 -0.56234,1.05189 -1.2016,1.44544 -0.74126,0.45635 -1.33677,0.57561 -1.33677,0.26772 z m 0.99447,-0.8504 c -0.12294,-0.0237 -0.29238,0.0511 -0.37652,0.16617 -0.26398,0.36102 -0.16762,0.42352 0.22354,0.14499 0.32416,-0.23083 0.34544,-0.2741 0.15298,-0.31116 z m -1.5699,0.15361 c 0.3285,-0.16987 0.46361,-0.40386 0.23319,-0.40386 -0.1353,0 -0.79848,0.57243 -0.6691,0.57753 0.0511,0.002 0.24728,-0.0762 0.43591,-0.17367 z m 7.02682,-0.17137 c 0.16096,-0.31128 0.16129,-0.34873 0.003,-0.34873 -0.0975,0 -0.17734,0.0742 -0.17734,0.16486 0,0.0907 -0.0317,0.24759 -0.0705,0.34872 -0.12266,0.31964 0.0569,0.19881 0.24493,-0.16485 z m -12.37206,0.11215 c 0.12367,-0.0661 0.22485,-0.1708 0.22485,-0.23249 0,-0.19254 -0.30302,-0.12284 -0.52309,0.12034 -0.23108,0.25534 -0.0773,0.31315 0.29824,0.11215 z m 4.65291,-0.11798 c 0.12545,-0.0672 0.19739,-0.17176 0.15986,-0.23249 -0.11543,-0.18677 -0.38853,-0.1226 -0.51948,0.12208 -0.14304,0.26727 -0.01,0.30815 0.35962,0.11041 z m 6.44049,-0.11041 c 0.11573,-0.12787 0.15182,-0.23249 0.0802,-0.23249 -0.0716,0 -0.18615,0.10462 -0.25459,0.23249 -0.0684,0.12786 -0.10452,0.23248 -0.0802,0.23248 0.0243,0 0.13887,-0.10462 0.25459,-0.23248 z m -11.9697,-0.005 c 0.0412,-0.0667 0.0106,-0.19883 -0.0679,-0.29354 -0.12558,-0.1513 -0.1691,-0.14849 -0.35873,0.0231 -0.1187,0.10742 -0.21582,0.23951 -0.21582,0.29353 0,0.14127 0.55318,0.12138 0.64247,-0.0231 z m 7.38186,-0.0575 c 0.11155,-0.13441 0.27167,-0.1603 0.64511,-0.1043 0.48587,0.0729 0.50167,0.0647 0.72363,-0.37334 0.83816,-1.65419 1.41736,-3.60235 1.41736,-4.76737 0,-0.45954 0.0482,-0.73697 0.12817,-0.73697 0.0865,0 0.11482,0.31603 0.0872,0.97062 l -0.041,0.97061 0.31341,-0.65095 c 0.31127,-0.64651 1.41451,-1.8678 1.55782,-1.7245 0.0412,0.0412 -0.19122,0.37335 -0.5164,0.73821 -1.02914,1.15465 -1.42242,2.43927 -1.1884,3.88173 0.0674,0.41499 0.12281,0.7911 0.12329,0.8358 4.4e-4,0.0447 0.18408,0.22099 0.40799,0.39178 0.36837,0.28097 0.44019,0.29681 0.75488,0.16646 0.28943,-0.1199 0.39337,-0.11419 0.61952,0.0341 0.17611,0.11538 0.32978,0.14132 0.4366,0.0737 0.0907,-0.0574 0.39036,-0.10514 0.666,-0.10613 l 0.50116,-0.002 0.56599,-1.19147 c 0.85874,-1.80774 1.08878,-2.63022 1.08101,-3.86502 -0.0105,-1.67447 -0.59306,-3.0481 -1.64644,-3.88239 -0.55779,-0.44178 -0.62272,-0.44638 -0.5753,-0.0408 l 0.0374,0.31965 h -1.0671 c -0.89678,0 -1.11943,-0.0385 -1.3949,-0.24099 -0.45545,-0.33485 -1.07604,-1.51548 -1.08008,-2.05477 -0.003,-0.38834 0.0284,-0.4359 0.28733,-0.4359 0.15983,0 0.2906,-0.0323 0.2906,-0.0719 0,-0.0396 -0.24846,-0.37965 -0.55214,-0.75575 -0.47859,-0.59272 -0.57051,-0.65898 -0.68993,-0.49733 -0.11679,0.15805 -0.14887,0.1182 -0.21034,-0.26136 -0.3575,-2.20729 -0.76278,-3.75753 -1.04318,-3.99023 -0.19687,-0.16338 -1.29155,-0.0167 -2.15886,0.28931 -0.56623,0.19979 -0.73345,0.2165 -0.63913,0.0639 0.21367,-0.34573 -2.74283,-0.28202 -4.03715,0.087 -0.82703,0.23579 -1.21606,0.14655 -0.46366,-0.10635 0.42143,-0.14166 0.42664,-0.14985 0.14637,-0.23027 -0.15982,-0.0458 -0.63772,-0.0886 -1.06199,-0.095 -0.76041,-0.0114 -0.77392,-0.006 -0.95002,0.36621 -0.38484,0.81382 -0.37019,1.24291 0.0297,0.87181 0.30811,-0.28589 0.0374,0.2177 -0.49318,0.91762 -0.94423,1.24546 -1.28209,2.10327 -1.76131,4.47187 -0.34475,1.70389 -0.35821,1.97156 -0.12218,2.42801 0.23684,0.45799 1.82393,1.77587 2.59089,2.15141 2.1463,1.05094 4.92343,0.74352 7.47073,-0.827 0.46282,-0.28534 0.89849,-0.49981 0.96816,-0.47659 0.18572,0.0619 -1.37783,1.17682 -2.24002,1.59728 -1.56954,0.7654 -3.87269,1.11412 -5.01691,0.7596 -0.34896,-0.10812 -0.69986,-0.22398 -0.77978,-0.25746 -0.10783,-0.0451 -0.14531,0.1397 -0.14531,0.71682 0,0.69466 0.0217,0.76887 0.20343,0.69504 0.88887,-0.36122 1.23708,-0.2631 1.43722,0.40496 0.12077,0.40305 0.11165,0.5737 -0.0596,1.11718 -0.23192,0.73573 -0.43339,0.8648 -0.9168,0.58736 l -0.34284,-0.19677 0.0807,0.67084 c 0.0573,0.47636 0.16106,0.75306 0.358,0.95441 0.25172,0.25733 0.30451,0.269 0.57124,0.12625 0.25494,-0.13644 0.3222,-0.13166 0.50759,0.0361 0.26564,0.2404 0.47771,0.24439 0.80504,0.0151 0.33648,-0.23569 0.82643,-1.79479 0.92299,-2.93716 l 0.0742,-0.87763 -0.45469,-0.38469 c -0.97858,-0.82791 0.66332,-0.16711 1.71677,0.69093 0.35949,0.29281 0.68492,0.5011 0.72316,0.46285 0.0382,-0.0383 0.0695,-0.20825 0.0695,-0.37778 0,-0.65256 0.69978,-2.36296 0.88925,-2.17349 0.0347,0.0347 -0.0205,0.43013 -0.1225,0.8788 -0.27577,1.21246 -0.27206,1.22558 0.26875,0.94968 0.24986,-0.12747 0.67662,-0.26732 0.94835,-0.31077 l 0.49405,-0.079 -0.0759,0.72608 c -0.0997,0.95429 -0.44074,1.71779 -0.834,1.86731 -0.41704,0.15856 -0.90898,0.14529 -1.09455,-0.0295 -0.12753,-0.12014 -0.14274,-0.0264 -0.0879,0.54149 0.079,0.8176 0.27384,1.05661 0.83073,1.01911 0.29991,-0.0202 0.44297,0.0339 0.55212,0.20865 0.17592,0.28167 0.35826,0.30027 0.56006,0.0571 z m 5.35296,-2.65759 c -0.0721,-0.0869 -0.28662,-0.61805 -0.47671,-1.18039 -0.39867,-1.17944 -0.41599,-1.13022 0.65766,-1.86967 0.44707,-0.30791 0.66376,-0.39649 0.75258,-0.30767 0.22393,0.22393 0.14417,2.17365 -0.11266,2.75427 -0.26142,0.591 -0.6153,0.85115 -0.82087,0.60346 z m -4.7781,-2.28088 c -0.33698,-0.33699 -0.15296,-0.5932 0.70141,-0.97663 0.9468,-0.42489 1.08867,-0.36559 0.86928,0.36337 -0.0922,0.30627 -0.2573,0.62245 -0.36695,0.70263 -0.30743,0.2248 -0.93625,0.17812 -1.20374,-0.0894 z m -8.85202,-1.90864 c -0.84382,-0.35063 -1.63857,-0.898 -1.96071,-1.3504 -0.39158,-0.54992 -0.19476,-0.52868 0.52371,0.0565 0.75193,0.61245 1.58075,1.06003 2.16641,1.1699 0.56493,0.10598 2.60938,-0.12983 4.00934,-0.46244 1.18877,-0.28245 2.12189,-0.65092 2.80821,-1.10896 0.36992,-0.24686 0.37779,-0.2473 0.37779,-0.0211 0,0.12706 -0.0915,0.33803 -0.20342,0.46881 -0.49241,0.57562 -4.3207,1.53559 -6.08821,1.52667 -0.75069,-0.004 -1.12439,-0.0676 -1.63312,-0.27902 z m 1.29899,-0.93113 c 0,-0.2666 0.24846,-0.74229 0.4226,-0.80911 0.27185,-0.10432 0.23978,0.45692 -0.0443,0.77458 -0.22131,0.24751 -0.37834,0.26184 -0.37834,0.0345 z m -0.96867,-0.0249 c -0.12076,-0.12076 -0.091,-0.85243 0.0347,-0.85243 0.15134,0 0.35281,0.3939 0.35281,0.6898 0,0.23026 -0.22528,0.32482 -0.38747,0.16263 z m 4.11604,-1.88207 c -0.14013,-0.26185 0.0772,-1.87899 0.37316,-2.77675 0.27601,-0.83718 1.25898,-1.18257 1.84816,-0.64938 0.42672,0.3862 0.81585,1.42911 0.8335,2.23396 l 0.0168,0.76274 -0.68033,0.27233 c -0.37418,0.14979 -1.03547,0.30211 -1.46952,0.3385 -0.7218,0.0605 -0.80051,0.045 -0.92169,-0.1814 z m 1.26624,-1.00458 c 0,-0.19181 -0.0507,-0.42719 -0.11267,-0.52309 -0.1128,-0.17454 -0.14531,-0.0575 -0.14531,0.52309 0,0.58059 0.0325,0.69762 0.14531,0.52309 0.062,-0.0959 0.11267,-0.3313 0.11267,-0.52309 z m 1.5147,-0.17219 c 0,-1.07329 -0.63917,-2.21076 -1.24228,-2.21076 -0.33334,0 -0.3445,0.12932 -0.0282,0.32685 0.32827,0.205 0.77808,1.21475 0.87044,1.95397 0.0566,0.45328 0.11733,0.59259 0.23803,0.54627 0.10718,-0.0412 0.16201,-0.24975 0.16201,-0.61633 z m -8.86339,0.7418 c -0.5452,-0.16764 -0.55212,-0.17595 -0.55016,-0.66028 0.003,-0.66454 0.39813,-2.14417 0.64631,-2.41841 0.23086,-0.25509 0.54779,-0.2891 0.72004,-0.0773 0.14661,0.18029 0.60776,2.41967 0.60776,2.95128 0,0.37538 -0.017,0.39035 -0.4359,0.38257 -0.23975,-0.004 -0.68437,-0.0845 -0.98805,-0.17788 z m 0.42168,-2.46005 c 0.27112,-0.52431 0.22562,-0.71721 -0.0858,-0.36381 -0.35543,0.40332 -0.72497,2.1468 -0.50994,2.40588 0.11864,0.14295 0.16729,0.0102 0.27561,-0.75189 0.0724,-0.50902 0.21641,-1.08961 0.32013,-1.29018 z m 0.55557,1.3499 c -0.031,-0.32534 -0.0772,-0.42519 -0.14626,-0.31619 -0.12113,0.19121 -0.13462,0.70108 -0.026,0.98405 0.0731,0.19064 0.0832,0.19105 0.14804,0.006 0.0383,-0.10912 0.0492,-0.41237 0.0243,-0.6739 z m 4.57043,-0.72655 c -0.0899,-0.33947 0.20789,-1.11584 0.42798,-1.11584 0.14012,0 0.10894,0.21003 -0.12939,0.87181 -0.20721,0.57539 -0.2102,0.57783 -0.29859,0.24403 z m -1.60989,-0.50556 c -0.0325,-0.11189 -0.0753,-0.38488 -0.095,-0.60666 -0.0296,-0.33218 0.0153,-0.42915 0.25472,-0.55043 0.35501,-0.17983 0.64091,-0.18907 0.93758,-0.0303 0.26805,0.14346 0.28501,0.44056 0.0564,0.9877 -0.15223,0.36434 -0.21297,0.40311 -0.63149,0.40311 -0.341,0 -0.47866,-0.0536 -0.5222,-0.20342 z m -1.50641,-1.26897 c -0.0426,-0.0426 -0.0772,-0.3434 -0.0769,-0.66839 4.4e-4,-0.44383 0.0679,-0.67512 0.27136,-0.9293 0.15864,-0.19826 0.3269,-0.30374 0.40627,-0.25469 0.18238,0.11272 0.17903,1.60734 -0.004,1.79038 -0.15197,0.15198 -0.47333,0.18537 -0.5967,0.062 z m 1.96373,-0.92016 c -0.20041,-0.20041 -0.44509,-1.01693 -0.39162,-1.30687 0.0624,-0.33831 0.85039,-0.6275 1.7555,-0.64426 0.71862,-0.0133 0.83635,0.0133 0.87349,0.19725 0.0791,0.3918 -0.21129,0.83011 -0.83967,1.26745 -0.85712,0.59654 -1.17645,0.70767 -1.3977,0.48643 z m 8.99832,14.48617 c 0.0941,-0.0595 0.14077,-0.13836 0.10382,-0.17531 -0.0916,-0.0916 -0.44918,0.0543 -0.44918,0.18322 0,0.13248 0.12801,0.12956 0.34536,-0.008 z m -5.87917,-0.42109 c 0.0435,-0.11321 0.0175,-0.16635 -0.0675,-0.13804 -0.17376,0.0579 -0.26943,0.32212 -0.11664,0.32212 0.0624,0 0.14527,-0.0828 0.18412,-0.18408 z m -0.86282,-0.27635 c 0.0941,-0.0595 0.13554,-0.1436 0.0922,-0.18695 -0.10637,-0.10637 -0.43756,0.0289 -0.43756,0.17876 0,0.14764 0.12035,0.15049 0.34536,0.008 z m 0.86065,-0.38233 c -0.008,-0.11188 -0.0211,-0.48663 -0.0291,-0.83277 -0.0144,-0.62507 -0.0185,-0.63179 -0.59574,-0.98698 -0.31967,-0.19669 -0.5812,-0.30273 -0.5812,-0.23566 0,0.63288 0.2921,1.83416 0.50096,2.06025 0.28363,0.30702 0.72709,0.30399 0.70504,-0.005 z m 12.50042,-7.17277 c 0.7124,-0.36344 1.35057,-1.08323 1.84202,-2.0776 l 0.43473,-0.87961 -0.005,-1.51717 c -0.004,-1.37633 -0.0353,-1.59809 -0.33383,-2.38897 -0.40439,-1.07131 -0.73388,-1.6537 -1.60208,-2.83179 -0.38001,-0.51564 -0.74969,-1.17059 -0.84845,-1.50317 -0.22438,-0.75555 -0.22436,-1.90287 5e-5,-2.33314 0.21857,-0.4191 0.2182,-0.42262 -0.0446,-0.42262 -0.32552,0 -0.47286,0.24678 -0.60908,1.0201 -0.15225,0.86438 0.0219,1.62706 0.75972,3.32732 0.28021,0.64572 0.59254,1.45613 0.69405,1.80091 0.41821,1.42036 0.34832,3.35808 -0.16292,4.5168 -0.34323,0.77793 -0.45119,0.57644 -0.15571,-0.2906 0.21144,-0.62044 0.26802,-1.0417 0.2704,-2.01312 0.003,-1.41312 -0.13235,-1.97099 -0.87519,-3.59552 -0.77996,-1.70562 -0.88656,-2.23973 -0.79465,-3.98126 0.0569,-1.07836 0.0421,-1.48207 -0.0544,-1.48207 -0.073,0 -0.13263,0.0467 -0.13263,0.10366 0,0.0571 -0.23601,0.36617 -0.52445,0.68699 -0.35947,0.39981 -0.6951,0.64146 -1.06688,0.76814 -0.60093,0.20475 -1.74129,0.24362 -2.01215,0.0686 -0.12412,-0.0802 0.0123,-0.11319 0.47332,-0.11446 0.91979,-0.003 1.64772,-0.28355 2.13682,-0.82493 0.43888,-0.48579 0.49602,-0.67383 0.27267,-0.89718 -0.10842,-0.10843 -0.16659,-0.0564 -0.26153,0.23427 -0.16696,0.51102 -0.73161,0.85764 -1.67044,1.02541 -0.72152,0.12895 -0.92591,0.11395 -2.40243,-0.17628 -1.76585,-0.34712 -2.20189,-0.33854 -3.4392,0.0677 -1.8147,0.59573 -3.34099,2.20651 -3.55242,3.74906 l -0.0692,0.50479 0.63512,0.0746 c 0.34931,0.0411 0.84593,0.14903 1.10359,0.23993 0.42755,0.15085 0.50015,0.14602 0.83128,-0.0553 0.23979,-0.14582 0.36282,-0.31274 0.36282,-0.49224 0,-1.32123 1.46899,-2.85212 2.92548,-3.04874 l 0.50364,-0.0679 -0.56781,0.28874 c -1.00318,0.51012 -1.86266,1.56304 -2.21376,2.71203 -0.0724,0.23673 -0.0483,0.25036 0.33244,0.18858 0.70095,-0.11375 0.9379,0.14509 1.21257,1.32459 0.13082,0.56179 0.29023,1.3519 0.35423,1.75578 0.0957,0.60385 0.21919,0.87237 0.69506,1.51114 0.31827,0.42723 0.86707,1.05995 1.21954,1.40605 0.593,0.58226 0.68949,0.63327 1.29211,0.68325 0.55817,0.0462 0.69091,0.0168 0.92871,-0.20665 l 0.27746,-0.26066 -0.0659,0.25204 c -0.0362,0.13862 -0.21389,0.40002 -0.39475,0.58088 l -0.32884,0.32885 0.67569,0.41706 c 0.37163,0.22939 0.7421,0.49706 0.82323,0.59484 0.17484,0.21066 0.80149,0.2326 1.21839,0.0426 0.16311,-0.0743 0.32958,-0.10211 0.36994,-0.0617 0.11715,0.11715 -0.29213,0.66011 -0.6051,0.8027 l -0.28595,0.1303 0.37929,0.33293 c 0.33628,0.29519 0.44679,0.32708 0.97472,0.2812 0.32748,-0.0285 0.8135,-0.163 1.08002,-0.29897 z"
         id="path970-0"
         sodipodi:nodetypes="sccscsssssssssssssscsssssssscssssssssssscsscscsssscsccssscssssssssssccscsscccsssssssssssssscsssscssssscsssscssssccscsscsscsssscssssssssscssssssssscssscsssssscsscsscsscsssscsccssscssssssssssssssccssssssscssscssscssccssssssssssssssssssssssssssssssssssccssssscssscccscsssscssccscssccsccccssscccscccsssssscsscssssssscssssssscssssscsssssssssccscscssscscccs" />
      <circle
         style="fill:none;stroke:#ff0000;stroke-width:0.1;stroke-dasharray:none"
         id="path788-8-1-8-1-9-2-1-4-2-9"
         cx="-322.73288"
         cy="-156.70103"
         r="19.954653" />
      <ellipse
         style="fill:none;stroke:#ff00ff;stroke-width:0.1;stroke-dasharray:none;stroke-opacity:1"
         id="path1138-9-4-0-0-1-2-6-7-2-1"
         cx="-322.73288"
         cy="-156.70103"
         rx="18.492125"
         ry="18.492126" />
      <circle
         style="fill:none;stroke:#0000ff;stroke-width:0.1;stroke-linecap:round;stroke-dasharray:none;stroke-opacity:1;paint-order:markers stroke fill"
         id="path13019-1-33-7-4-6-6"
         cx="-322.73288"
         cy="-171.71201"
         r="2" />
    </g>
  </g>
</svg>
