<?xml version="1.0" encoding="UTF-8" standalone="no"?>
<!-- Created with Inkscape (http://www.inkscape.org/) -->

<svg
   width="41.008999mm"
   height="41.008999mm"
   viewBox="0 0 41.008999 41.008999"
   version="1.1"
   id="svg1"
   inkscape:version="1.4.2 (f4327f4, 2025-05-13)"
   sodipodi:docname="146.svg"
   xmlns:inkscape="http://www.inkscape.org/namespaces/inkscape"
   xmlns:sodipodi="http://sodipodi.sourceforge.net/DTD/sodipodi-0.dtd"
   xmlns="http://www.w3.org/2000/svg"
   xmlns:svg="http://www.w3.org/2000/svg">
  <sodipodi:namedview
     id="namedview1"
     pagecolor="#ffffff"
     bordercolor="#000000"
     borderopacity="0.25"
     inkscape:showpageshadow="2"
     inkscape:pageopacity="0.0"
     inkscape:pagecheckerboard="0"
     inkscape:deskcolor="#d1d1d1"
     inkscape:document-units="mm"
     inkscape:zoom="1.5878906"
     inkscape:cx="108.3198"
     inkscape:cy="200.26568"
     inkscape:window-width="1050"
     inkscape:window-height="1081"
     inkscape:window-x="3737"
     inkscape:window-y="0"
     inkscape:window-maximized="0"
     inkscape:current-layer="layer1" />
  <defs
     id="defs1" />
  <g
     inkscape:label="Layer 1"
     inkscape:groupmode="layer"
     id="layer1"
     transform="translate(-0.7937635,-0.79375582)">
    <g
       id="g11486"
       transform="translate(301.84859,177.99485)">
      <path
         style="fill:#000000;stroke-width:0.1;stroke-dasharray:none"
         d="m -277.18001,-141.53327 c -1.05605,-0.24837 -1.74908,-0.48317 -1.93125,-0.6543 -0.19863,-0.1866 -0.79626,-0.36707 -1.98616,-0.59974 -2.0782,-0.40639 -3.32449,-0.35461 -3.83856,0.15946 -0.17191,0.17191 -0.4195,0.31541 -0.55019,0.31891 -0.1307,0.004 -0.89276,0.0838 -1.69347,0.17842 -1.50169,0.1775 -2.09378,0.10828 -2.23563,-0.26135 -0.13675,-0.35638 0.16897,-0.82978 0.7593,-1.17573 l 0.58898,-0.34517 -0.27899,-0.50934 c -0.27739,-0.50641 -0.27761,-0.51533 -0.0379,-1.55046 0.13263,-0.57262 0.53228,-1.93044 0.8881,-3.01739 0.35583,-1.08695 0.64696,-2.04477 0.64696,-2.1285 0,-0.0837 -0.21867,-0.29622 -0.48594,-0.4722 -0.67729,-0.44597 -0.9877,-0.9173 -1.06691,-1.62007 -0.0956,-0.84855 0.0506,-1.46999 0.46075,-1.95739 0.39956,-0.47483 1.24411,-0.90427 1.78694,-0.9086 0.39209,-0.003 0.46751,-0.22387 0.22886,-0.66979 -0.26145,-0.48853 -0.38133,-1.51554 -0.2468,-2.11433 0.072,-0.32045 0.51495,-1.37943 0.98433,-2.35328 0.46938,-0.97386 0.85341,-1.81812 0.85341,-1.87614 0,-0.058 -0.33538,-0.24161 -0.74528,-0.40798 -1.72937,-0.7019 -3.63746,-2.25014 -5.09097,-4.13084 -1.38839,-1.79646 -1.22403,-2.04775 0.96721,-1.47874 2.41563,0.62728 4.30788,1.66585 6.07856,3.33622 l 0.92521,0.87279 1.61272,0.0151 c 1.75548,0.0164 2.56064,0.23011 3.46458,0.91958 0.24562,0.18734 0.47559,0.34061 0.51104,0.34061 0.0354,0 0.10399,-0.40201 0.15229,-0.89335 0.20594,-2.09515 0.93752,-4.29461 1.96027,-5.89341 0.32111,-0.50199 0.57237,-0.75715 0.74558,-0.75715 0.45393,0 0.60246,0.86685 0.60096,3.50726 -0.002,2.72848 -0.15464,3.58848 -0.99816,5.60724 -0.39343,0.94159 -0.53505,1.48321 -0.58836,2.25013 -0.0386,0.55552 -0.1275,1.24827 -0.19755,1.53944 -0.07,0.29116 -0.12875,0.65924 -0.13049,0.81794 -0.003,0.26305 0.0349,0.27757 0.42699,0.16435 1.02052,-0.29467 2.0574,-0.41054 2.3366,-0.26111 0.15252,0.0816 0.2773,0.21156 0.2773,0.28875 0,0.0772 0.12917,0.32175 0.28703,0.54346 0.25406,0.35678 0.27041,0.46549 0.14222,0.94572 -0.0797,0.29843 -0.12987,0.55754 -0.11161,0.57581 0.0183,0.0183 0.74341,0.15411 1.61141,0.30187 2.979,0.5071 6.40896,1.72094 6.40896,2.26808 0,0.24818 -3.29934,3.86774 -3.64726,4.00125 -0.10156,0.039 -1.1423,-0.22452 -2.31275,-0.58554 -1.17045,-0.36102 -2.20781,-0.6564 -2.30525,-0.6564 -0.0975,0 -0.49061,0.5658 -0.8737,1.25732 -0.68668,1.23952 -0.70354,1.25732 -1.19096,1.25732 -0.55952,0 -0.65509,0.13799 -0.65509,0.94597 0,0.66275 -0.20852,1.07205 -0.50436,0.98996 -0.12295,-0.0341 -0.35495,-0.0997 -0.51555,-0.1458 -0.27909,-0.08 -0.29086,-0.0498 -0.26604,0.68434 0.0143,0.42245 -0.0235,0.92768 -0.084,1.12273 -0.10121,0.32651 -0.0521,0.39299 0.61856,0.83832 1.16721,0.77499 1.34664,1.69126 0.34092,1.74095 -0.24741,0.0122 -1.19103,-0.15211 -2.09693,-0.36517 z m 1.5352,-0.33057 c -0.63955,-0.43457 -0.53177,-0.57957 0.13804,-0.18571 l 0.50327,0.29594 -0.39705,-0.34226 c -0.34534,-0.29768 -0.33704,-0.52008 0.009,-0.25251 0.0707,0.0546 0.0165,-0.005 -0.12054,-0.13235 -0.137,-0.12739 -0.40626,-0.23127 -0.59838,-0.23087 -0.45842,0.001 -1.31211,0.24102 -1.4078,0.39586 -0.0694,0.11218 1.72922,0.75832 2.18111,0.78358 0.10789,0.006 -0.0308,-0.14322 -0.30807,-0.33168 z m -12.09307,-0.76406 c 0.23423,-0.0991 0.53822,-0.30635 0.67552,-0.46046 0.22625,-0.25398 0.22926,-0.28802 0.0321,-0.36368 -0.38751,-0.1487 -1.14322,0.0825 -1.57798,0.48275 l -0.42428,0.39061 0.59237,-0.25752 c 0.3258,-0.14164 0.62359,-0.22312 0.66174,-0.18106 0.0382,0.0421 0.004,0.10024 -0.0773,0.12929 -0.0806,0.0291 -0.25933,0.13812 -0.39705,0.24237 -0.32351,0.24491 -0.0445,0.2545 0.51488,0.0177 z m 11.22607,-1.37781 c 0.16664,-0.43828 -0.0753,-2.09414 -0.43897,-3.00427 -0.19897,-0.49795 -0.26392,-0.95862 -0.25803,-1.83009 0.005,-0.64054 0.0447,-1.28078 0.0898,-1.42275 0.0575,-0.181 0.02,-0.25813 -0.12552,-0.25813 -0.30245,0 -0.26524,-0.68492 0.0596,-1.09797 0.1469,-0.18677 0.90626,-0.73791 1.68745,-1.22477 1.56117,-0.97297 2.07514,-1.3963 2.36201,-1.94553 0.10457,-0.2002 0.30185,-0.36396 0.43846,-0.36396 0.15957,0 0.30029,-0.14899 0.39365,-0.4168 0.19863,-0.56977 0.18227,-0.9067 -0.044,-0.9067 -0.10413,0 -0.20835,-0.13223 -0.23161,-0.29384 -0.0382,-0.26521 -0.10682,-0.28995 -0.70403,-0.25377 -0.36397,0.0221 -0.98676,0.16918 -1.38399,0.32695 -0.66734,0.26504 -0.74005,0.33714 -0.95669,0.94859 -0.12895,0.36396 -0.36081,0.76545 -0.51525,0.89221 -0.63413,0.52048 -2.24481,1.44219 -2.44904,1.40146 -0.13684,-0.0273 0.0812,-0.21248 0.57966,-0.49248 l 0.79896,-0.44875 -0.205,-0.42988 c -0.41517,-0.87064 0.13233,-1.86417 1.23647,-2.24376 0.48089,-0.16532 0.51904,-0.21928 0.67089,-0.94906 0.0886,-0.42558 0.16361,-1.38915 0.16679,-2.14126 0.006,-1.23687 0.0455,-1.45794 0.42138,-2.3144 0.96045,-2.18831 1.27062,-3.46968 1.04379,-4.31209 -0.13721,-0.50952 -0.82955,-1.46901 -1.06,-1.46901 -0.25623,0 -0.69725,1.70451 -0.9897,3.825 -0.19016,1.37887 -0.18989,1.53666 0.003,1.83128 0.29139,0.44473 0.12326,0.55077 -0.20719,0.13068 -0.43443,-0.5523 -1.81092,-1.39575 -2.75925,-1.69076 -0.68149,-0.212 -1.1688,-0.26644 -2.15923,-0.24122 l -1.27913,0.0326 -0.83847,-0.77682 c -1.44594,-1.33961 -3.10067,-2.43669 -4.18029,-2.77152 -0.28055,-0.087 -0.29768,-0.0554 -0.29584,0.54522 9.4e-4,0.35068 0.0756,0.7716 0.16544,0.93541 0.0899,0.1638 1.05684,0.84242 2.14873,1.50805 1.09188,0.66563 2.0033,1.22465 2.02537,1.24227 0.022,0.0176 -0.2205,0.4408 -0.53903,0.94041 -0.31853,0.4996 -0.71142,1.22324 -0.87308,1.60808 l -0.29394,0.6997 0.26294,0.33427 c 0.70371,0.89462 0.62096,1.88404 -0.22233,2.65836 -0.36275,0.33308 -0.44211,0.4893 -0.37811,0.74428 0.13595,0.54165 0.51926,0.89251 1.12337,1.02823 0.78405,0.17615 2.31768,1.11517 2.40572,1.47299 0.0762,0.30973 0.37763,0.43421 1.37992,0.56987 l 0.65565,0.0887 -0.32477,0.24608 c -0.19,0.14395 -0.59942,0.26249 -0.98654,0.28563 -0.53558,0.032 -0.65823,0.0837 -0.64335,0.27116 0.0101,0.12739 -0.0622,0.23161 -0.16079,0.23161 -0.0985,0 -0.24457,0.12222 -0.32452,0.2716 -0.08,0.14939 -0.24582,0.25794 -0.36862,0.24123 -0.12279,-0.0167 -0.63154,0.0993 -1.13056,0.2578 -0.49901,0.15849 -1.16416,0.28817 -1.47811,0.28817 -0.31394,0 -0.66057,0.0345 -0.77029,0.0766 -0.22662,0.087 -1.89009,4.95052 -2.02175,5.91111 -0.0607,0.44353 -0.027,0.68457 0.12677,0.9041 l 0.20966,0.29934 0.13538,-0.35605 c 0.14757,-0.38815 0.11581,-0.38786 1.52926,-0.0137 1.19786,0.31715 1.7039,0.33827 3.16634,0.13217 0.79518,-0.11207 2.04588,-0.20318 2.77934,-0.20247 1.1217,0.001 1.43866,0.0507 1.99529,0.31211 0.36395,0.17096 0.77392,0.43698 0.91104,0.59116 0.2865,0.32218 0.44137,0.26945 0.62468,-0.21269 z m -5.3748,-11.19547 c -0.25304,-0.60561 -0.46007,-1.95381 -0.46128,-3.00383 l -9.4e-4,-0.86806 1.07544,0.0417 c 0.95156,0.0369 1.13752,0.0873 1.61428,0.43793 0.30864,0.22698 0.70419,0.39625 0.92594,0.39625 0.37681,0 0.3814,0.008 0.17249,0.29779 -0.11805,0.16379 -0.51651,0.75676 -0.88546,1.31772 -1.1804,1.7947 -2.05955,2.29203 -2.4404,1.38053 z m 1.34435,-0.63597 c 0.66423,-0.70254 0.97944,-1.3061 0.82895,-1.5873 -0.26674,-0.4984 -1.38534,-0.80715 -2.02918,-0.56009 -0.25101,0.0963 -0.27203,0.66876 -0.0612,1.66679 0.27702,1.3113 0.4233,1.36703 1.26141,0.4806 z m 2.85505,-2.5661 c -0.29626,-0.20751 -0.40504,-0.88146 -0.19286,-1.19495 0.20344,-0.30056 0.60728,-0.42756 0.94784,-0.29807 0.42531,0.1617 0.53452,0.33746 0.53704,0.86436 0.002,0.43715 -0.37514,0.83469 -0.79207,0.83469 -0.11319,0 -0.33817,-0.0927 -0.49995,-0.20603 z m 0.60748,-1.02012 c 0.0509,-0.26427 -0.32656,-0.46065 -0.51781,-0.26939 -0.18522,0.18521 0.009,0.58932 0.25998,0.54099 0.11739,-0.0226 0.23341,-0.14483 0.25783,-0.2716 z m -3.47865,0.12032 c -0.32373,-0.23671 -0.17456,-0.61471 0.24259,-0.61471 0.39545,0 0.54013,0.31955 0.26794,0.59175 -0.24419,0.24419 -0.21008,0.24265 -0.51053,0.023 z m -2.90603,-0.95504 c -0.28904,-0.28904 -0.25985,-0.93129 0.0567,-1.24786 0.31799,-0.31799 0.63346,-0.33597 1.02935,-0.0587 0.39365,0.27572 0.41853,1.17393 0.0382,1.3775 -0.37351,0.1999 -0.88568,0.16757 -1.12421,-0.071 z m 1.0907,-0.88582 c 0.0527,-0.27351 -0.3294,-0.45781 -0.53105,-0.25616 -0.20165,0.20165 -0.0173,0.58371 0.25616,0.53104 0.12677,-0.0244 0.25047,-0.14811 0.27489,-0.27488 z m 6.02983,13.58428 c -0.009,-0.0637 -0.0577,-0.64474 -0.10758,-1.29122 -0.0795,-1.03059 -0.0653,-1.1657 0.11455,-1.09665 0.11287,0.0433 0.49969,0.11781 0.85961,0.16556 l 0.65438,0.0868 0.0902,-0.51217 c 0.0496,-0.2817 0.16687,-0.92908 0.26058,-1.43862 0.0937,-0.50955 0.14784,-0.9499 0.12032,-0.97856 -0.1075,-0.11192 -2.311,2.01414 -2.36523,2.28212 -0.17148,0.84727 -0.21025,2.63411 -0.061,2.81389 0.16409,0.19772 0.46443,0.17616 0.4342,-0.0312 z m 2.5883,-2.72971 c 0.5186,-2.45657 0.52549,-2.48155 0.68384,-2.48155 0.48698,0 2.63857,1.33234 4.39689,2.72271 0.59172,0.46789 1.137,0.845 1.21174,0.83802 0.22225,-0.0208 3.13931,-3.27993 3.05613,-3.41453 -0.26098,-0.42227 -4.56933,-1.60207 -6.85589,-1.87742 -1.41322,-0.17018 -1.42278,-0.16944 -1.74617,0.13437 -0.49603,0.466 -0.71448,1.03814 -1.17937,3.08894 l -0.42681,1.88281 -0.59118,-0.0365 -0.59119,-0.0365 0.39468,0.30116 c 0.21708,0.16564 0.54464,0.43329 0.72792,0.59477 0.18328,0.16148 0.36925,0.29549 0.41328,0.29779 0.044,0.002 0.27177,-0.90407 0.50613,-2.01415 z m -8.6905,-2.24994 c 0.0349,-0.091 0.0823,-0.22499 0.10536,-0.29779 0.023,-0.0728 0.11445,-0.27225 0.20316,-0.44326 0.13603,-0.26217 0.1187,-0.3831 -0.11046,-0.77151 -0.47755,-0.8094 -1.59106,-1.3585 -2.96643,-1.46283 -0.80639,-0.0612 -1.03851,-0.0273 -1.56804,0.22909 -0.97951,0.47417 -1.3776,1.41859 -0.97263,2.30741 0.11171,0.24518 0.22664,0.31723 0.43013,0.26963 0.15273,-0.0357 0.72437,0.0185 1.27032,0.12055 1.3066,0.24419 3.52211,0.27409 3.60859,0.0487 z"
         id="path970-9-0"
         sodipodi:nodetypes="cssssssscssssssscssssssssccssssscssscsssssssssssssssscssscccscssccscccsscscsscssscsccsssssssssssscscssscsssscssscsscssssscsssssscsssssssscsscssscssccsscssssssssssssssscssssssssssssssssssssssssscsssssssssscsssscccsscssssssssscss" />
      <circle
         style="fill:none;stroke:#ff0000;stroke-width:0.1;stroke-dasharray:none"
         id="path788-8-1-8-1-9-2-6-3-0"
         cx="-280.55032"
         cy="-156.69659"
         r="19.954653" />
      <ellipse
         style="fill:none;stroke:#ff00ff;stroke-width:0.1;stroke-dasharray:none;stroke-opacity:1"
         id="path1138-9-4-0-0-1-2-0-0-1"
         cx="-280.55032"
         cy="-156.69659"
         rx="18.492125"
         ry="18.492126" />
      <circle
         style="fill:none;stroke:#0000ff;stroke-width:0.1;stroke-linecap:round;stroke-dasharray:none;stroke-opacity:1;paint-order:markers stroke fill"
         id="path13019-1-33-3-83-5"
         cx="-280.55032"
         cy="-171.70758"
         r="2" />
    </g>
  </g>
</svg>
