<?xml version="1.0" encoding="UTF-8" standalone="no"?>
<!-- Created with Inkscape (http://www.inkscape.org/) -->

<svg
   width="41.008999mm"
   height="41.008999mm"
   viewBox="0 0 41.008999 41.008999"
   version="1.1"
   id="svg1"
   inkscape:version="1.4.2 (f4327f4, 2025-05-13)"
   sodipodi:docname="147.svg"
   xmlns:inkscape="http://www.inkscape.org/namespaces/inkscape"
   xmlns:sodipodi="http://sodipodi.sourceforge.net/DTD/sodipodi-0.dtd"
   xmlns="http://www.w3.org/2000/svg"
   xmlns:svg="http://www.w3.org/2000/svg">
  <sodipodi:namedview
     id="namedview1"
     pagecolor="#ffffff"
     bordercolor="#000000"
     borderopacity="0.25"
     inkscape:showpageshadow="2"
     inkscape:pageopacity="0.0"
     inkscape:pagecheckerboard="0"
     inkscape:deskcolor="#d1d1d1"
     inkscape:document-units="mm"
     inkscape:zoom="1.5878906"
     inkscape:cx="108.3198"
     inkscape:cy="200.26568"
     inkscape:window-width="1050"
     inkscape:window-height="1081"
     inkscape:window-x="3737"
     inkscape:window-y="0"
     inkscape:window-maximized="0"
     inkscape:current-layer="layer1" />
  <defs
     id="defs1" />
  <g
     inkscape:label="Layer 1"
     inkscape:groupmode="layer"
     id="layer1"
     transform="translate(-0.7937635,-0.79375582)">
    <g
       id="g11480"
       transform="translate(259.57251,177.86172)">
      <circle
         style="fill:none;stroke:#ff0000;stroke-width:0.1;stroke-dasharray:none"
         id="path788-8-1-8-1-9-2-2-9-1-6-6"
         cx="-238.27425"
         cy="-156.56346"
         r="19.954653" />
      <ellipse
         style="fill:none;stroke:#ff00ff;stroke-width:0.1;stroke-dasharray:none;stroke-opacity:1"
         id="path1138-9-4-0-0-1-2-8-1-8-1-1"
         cx="-238.27425"
         cy="-156.56346"
         rx="18.492125"
         ry="18.492126" />
      <circle
         style="fill:none;stroke:#0000ff;stroke-width:0.1;stroke-linecap:round;stroke-dasharray:none;stroke-opacity:1;paint-order:markers stroke fill"
         id="path13019-1-33-4-5-5-2-3"
         cx="-238.27425"
         cy="-171.57445"
         r="2" />
      <path
         style="fill:#000000;stroke-width:0.1;stroke-dasharray:none"
         d="m -234.72185,-141.30577 c -0.0406,-0.0657 -0.19425,-0.0892 -0.34147,-0.0522 -0.18203,0.0457 -0.43057,-0.0508 -0.77669,-0.30154 -0.27996,-0.2028 -0.55436,-0.36872 -0.60979,-0.36872 -0.1909,0 -0.62605,-0.55959 -0.62605,-0.80509 0,-0.13529 0.0566,-0.40834 0.12579,-0.6068 0.11158,-0.32009 0.0775,-0.43261 -0.30198,-0.99648 -0.23527,-0.34962 -0.42776,-0.6786 -0.42776,-0.73108 0,-0.11737 -1.77154,-0.60505 -2.19786,-0.60505 -0.49017,0 -0.62243,0.26804 -0.54632,1.10725 0.0369,0.40731 0.0175,0.87132 -0.0433,1.03113 -0.14423,0.37934 -0.86918,0.694 -2.61448,1.13478 -1.42297,0.35938 -3.20014,0.48083 -3.35559,0.22932 -0.0412,-0.0667 -0.20697,-0.0881 -0.36837,-0.0476 -0.2064,0.0518 -0.31553,0.0161 -0.36789,-0.12034 -0.0409,-0.10671 -0.15017,-0.194 -0.24271,-0.194 -0.29679,0 -0.18283,-0.57895 0.19974,-1.01467 0.40393,-0.46006 1.01972,-0.70579 2.31959,-0.92566 0.44842,-0.0759 0.81534,-0.15589 0.81534,-0.17787 0,-0.022 -0.16906,-0.31192 -0.37568,-0.6443 -0.76182,-1.22551 -0.58931,-2.79076 0.43685,-3.96382 l 0.54315,-0.62091 -0.20479,-0.76543 c -0.13373,-0.49985 -0.20715,-1.2506 -0.21157,-2.16374 l -0.007,-1.3983 -1.26831,0.005 c -1.0888,0.004 -1.34162,-0.0334 -1.78639,-0.26743 -0.49009,-0.2578 -0.99034,-0.86432 -0.99133,-1.2019 -2.6e-4,-0.0847 0.12866,-0.20306 0.28644,-0.26306 0.22157,-0.0843 0.27398,-0.17661 0.23021,-0.40562 -0.0765,-0.40015 0.0925,-0.47468 0.71242,-0.31411 0.50642,0.13116 0.5628,0.11489 1.89602,-0.5471 l 1.37408,-0.68228 -0.52856,-0.3413 c -0.77919,-0.50315 -1.89239,-1.80557 -2.22627,-2.60467 -0.34052,-0.81499 -0.14009,-1.54696 0.63615,-2.32321 0.33702,-0.33702 0.56456,-0.74039 0.80655,-1.42987 0.6411,-1.82658 1.43052,-2.83501 2.71389,-3.46681 0.73882,-0.36373 0.88632,-0.39256 2.00785,-0.39256 1.01861,0 1.28975,0.0424 1.71085,0.26762 1.08426,0.57989 2.21023,2.40311 2.70668,4.3828 0.19843,0.7913 0.26876,1.51082 0.30671,3.13787 l 0.0492,2.11113 0.40888,0.20976 c 0.54974,0.28203 2.0898,0.70155 2.57542,0.70155 0.31213,0 0.42955,-0.0728 0.57685,-0.35767 0.37628,-0.72765 2.07933,-1.37816 1.90969,-0.72944 -0.0984,0.37621 0.59889,0.32317 1.13587,-0.0864 l 0.43002,-0.32799 -0.0853,0.38839 c -0.055,0.25013 -0.0389,0.38837 0.0451,0.38837 0.0717,0 0.1304,-0.18402 0.1304,-0.40895 0,-0.22493 0.0757,-0.55494 0.16829,-0.73336 0.16497,-0.31797 0.17167,-0.3196 0.33796,-0.0822 0.19682,0.28101 0.37623,0.2058 0.61724,-0.25874 0.13341,-0.25716 0.14399,-0.44964 0.0478,-0.87002 -0.10216,-0.44642 -0.0856,-0.6239 0.0957,-1.02591 0.23912,-0.53031 0.49115,-0.67824 0.30031,-0.17627 -0.2803,0.73726 0.004,0.91774 0.32137,0.20351 l 0.20084,-0.45296 0.0805,0.42276 c 0.0951,0.49986 0.29562,0.89815 0.6924,1.37503 0.59397,0.71385 0.76022,1.21803 0.83016,2.51756 0.0713,1.32498 0.0696,1.33099 -0.60321,2.27093 l -0.35329,0.49348 0.27397,0.62738 c 0.53366,1.22206 0.64279,1.8582 0.58423,3.40557 -0.062,1.63963 -0.26698,2.33054 -1.04415,3.52053 -1.31,2.00584 -2.96808,2.96946 -5.14699,2.99127 -0.59791,0.006 -1.27833,-0.0335 -1.51203,-0.0879 -0.41435,-0.0963 -0.43131,-0.0857 -0.68137,0.42909 -0.22533,0.46378 -0.23658,0.56375 -0.0927,0.82352 0.09,0.16261 0.16566,0.46154 0.16801,0.6643 0.009,0.74705 -1.55796,2.00521 -1.86938,1.5013 z m 0.28389,-0.65142 c 0.057,-0.294 -0.22658,-0.93519 -0.38962,-0.88092 -0.20382,0.0678 -0.2334,0.42518 -0.0682,0.824 0.15702,0.37909 0.38974,0.40803 0.45782,0.0569 z m 0.79789,-0.31262 c 0.0719,-0.31227 -0.0993,-0.71931 -0.24243,-0.57622 -0.0446,0.0446 -0.1083,0.34201 -0.1415,0.66086 -0.0543,0.52181 -0.0416,0.56162 0.12701,0.39853 0.10305,-0.0996 0.21866,-0.31708 0.25692,-0.48317 z m -1.62392,0.32476 c 0,-0.18776 -0.44235,-0.68712 -0.60866,-0.68712 -0.21552,0 -0.11803,0.38241 0.1557,0.61076 0.32323,0.26966 0.45296,0.29153 0.45296,0.0763 z m -0.79749,-1.00108 c 0.0961,-0.0369 0.29281,-0.004 0.43721,0.0735 0.22011,0.1178 0.2892,0.10244 0.4275,-0.095 0.0907,-0.12953 0.4848,-0.35513 0.87572,-0.50132 0.58033,-0.21702 0.74838,-0.3447 0.91577,-0.69573 0.19564,-0.41024 0.19511,-0.42577 -0.0116,-0.3391 -0.47168,0.19786 -0.76586,0.19561 -1.44319,-0.0111 l -0.70598,-0.21543 0.68521,-0.0815 c 0.76753,-0.0913 1.94792,-0.68548 2.01275,-1.01317 0.0742,-0.37521 -0.35934,-2.01798 -0.59473,-2.25336 -0.29974,-0.29973 -0.90845,-0.29573 -1.40868,0.009 -0.46429,0.28309 -0.50837,0.16156 -0.1009,-0.27812 0.49405,-0.53308 0.80577,-0.53036 1.92904,0.0168 0.0609,0.0297 0.0798,-0.64415 0.0439,-1.5639 -0.0666,-1.7078 -0.33966,-2.92094 -0.98706,-4.38484 -0.23613,-0.53394 -0.39122,-0.71941 -0.71452,-0.85449 -0.47225,-0.19732 -0.60975,-0.43789 -0.40373,-0.70642 0.12764,-0.16638 0.3147,-0.15498 1.77335,0.10808 1.2631,0.22778 1.71588,0.26604 2.00864,0.1697 0.41208,-0.13558 0.91724,-0.59842 0.65314,-0.59842 -0.0925,0 -0.0252,-0.16862 0.16861,-0.42277 0.36759,-0.48194 0.26965,-0.52561 -0.53901,-0.24029 -0.28446,0.10036 -0.53836,0.16132 -0.56421,0.13546 -0.0964,-0.0964 1.04486,-0.68031 1.32951,-0.68031 0.32611,0 0.49272,-0.15622 0.62456,-0.58568 0.0784,-0.25544 0.0589,-0.27474 -0.19613,-0.1938 -0.15578,0.0494 -0.34694,0.17702 -0.42481,0.28351 -0.2436,0.33314 -0.33524,0.0303 -0.12453,-0.41147 0.11048,-0.23169 0.16098,-0.42105 0.11223,-0.4208 -0.24184,0.002 -0.869,0.50687 -1.10766,0.89303 -0.25786,0.41722 -0.29728,0.43517 -0.95367,0.43414 -0.6916,-8.9e-4 -2.9098,-0.66579 -3.20402,-0.96011 -0.0913,-0.0913 -0.14296,-0.82151 -0.15252,-2.15525 -0.0209,-2.91958 -0.37671,-4.31183 -1.57469,-6.16209 -0.82306,-1.2712 -1.29175,-1.53049 -2.76504,-1.52963 -0.84843,4.6e-4 -1.07172,0.0497 -1.75571,0.38635 -1.17107,0.57652 -1.3576,0.8252 -1.38772,1.85011 -0.0336,1.14167 -0.52055,2.16699 -1.12155,2.36124 -0.61508,0.19881 -1.22684,0.74777 -1.48587,1.33337 -0.19417,0.43895 -0.21132,0.60485 -0.10384,1.00403 0.16449,0.61082 0.81147,1.15688 1.69317,1.42901 0.78145,0.24119 3.43933,0.25675 4.65562,0.0273 0.9676,-0.18256 2.06071,-0.72728 2.01274,-1.00296 -0.0442,-0.25434 0.13694,-0.2644 0.34067,-0.0189 0.1281,0.15433 0.094,0.25959 -0.20528,0.63415 -0.71755,0.89795 -1.92941,1.5178 -3.84439,1.96634 l -0.96633,0.22633 0.72474,-0.0644 c 1.01812,-0.0904 2.26077,-0.47378 3.32606,-1.02609 1.0107,-0.524 1.08279,-0.54433 1.08279,-0.30539 0,0.0916 -0.14947,0.22936 -0.33217,0.30615 -0.1827,0.0768 -0.45994,0.23722 -0.6161,0.3565 l -0.28392,0.2169 0.59619,0.61208 c 0.66112,0.67874 1.44773,2.09252 1.83289,3.29424 0.5645,1.76127 0.78615,4.84207 0.44153,6.13677 -0.17854,0.67072 -0.64944,1.65114 -1.05929,2.2055 -0.22608,0.30578 -0.23223,0.39335 -0.0995,1.41484 0.1101,0.84719 0.10881,1.19805 -0.006,1.58077 -0.1198,0.39987 -0.11699,0.52852 0.015,0.68755 0.14746,0.17767 0.17102,0.17222 0.25665,-0.0592 0.0519,-0.14018 0.17287,-0.28503 0.26893,-0.32189 z m -6.32915,-17.61478 c 0,-0.19344 0.31951,-0.55218 0.4918,-0.55218 0.17784,0 0.13038,0.32688 -0.0777,0.53493 -0.23643,0.23644 -0.41414,0.24384 -0.41414,0.0173 z m -1.6669,-0.33476 c -0.17333,-0.17333 -0.19323,-0.5798 -0.0284,-0.5798 0.12704,0 0.36661,0.38948 0.36661,0.59601 0,0.17092 -0.15869,0.1633 -0.33821,-0.0162 z m 4.57752,-1.33651 c -0.51274,-0.26351 -0.79762,-0.77413 -0.78824,-1.41283 0.0164,-1.11906 0.64417,-2.17513 1.40467,-2.36305 0.48248,-0.11922 0.88153,0.3368 1.06404,1.21591 0.26119,1.25815 -0.0487,2.3378 -0.74015,2.57884 -0.48142,0.16783 -0.58091,0.16584 -0.94032,-0.0189 z m 0.88566,-0.39942 c 0.10439,-0.1044 0.18981,-0.2663 0.18981,-0.35978 0,-0.13671 -0.0581,-0.14349 -0.29703,-0.0347 -0.23786,0.10838 -0.35817,0.0953 -0.60395,-0.0657 -0.29284,-0.19187 -0.30693,-0.19019 -0.30693,0.0364 0,0.24043 0.41512,0.61359 0.6826,0.61359 0.0801,0 0.23109,-0.0854 0.3355,-0.18982 z m -0.17533,-1.85845 c 0.1795,-0.33541 0.15132,-0.91887 -0.0526,-1.08806 -0.1425,-0.11828 -0.2347,-0.0876 -0.48317,0.1609 -0.51515,0.51516 -0.35664,1.56948 0.19185,1.27594 0.12116,-0.0649 0.2759,-0.2218 0.34387,-0.34878 z m -0.97717,-1.72644 c 0.12169,-0.33272 0.90307,-0.57814 1.12718,-0.35403 0.10968,0.10968 0.0576,0.14265 -0.22516,0.14265 -0.2144,0 -0.45898,0.10076 -0.58643,0.24159 -0.29022,0.32068 -0.43873,0.30648 -0.31559,-0.0303 z m -5.51255,23.37012 c 0.2944,-0.25851 0.26385,-0.42202 -0.0604,-0.32321 -0.31508,0.096 -0.69454,0.4043 -0.69454,0.56426 0,0.14757 0.49088,-0.009 0.75495,-0.24105 z m -0.61921,-0.54074 c 0.18531,-0.34256 -0.16556,-0.25914 -0.53589,0.1274 -0.17852,0.18633 -0.32458,0.37964 -0.32458,0.42959 0,0.14883 0.73659,-0.32798 0.86047,-0.55699 z m 12.58878,0.2967 c -0.0384,-0.14658 -0.14877,-0.26651 -0.24542,-0.26651 -0.1478,0 -0.14556,0.0302 0.0141,0.18982 0.10439,0.10439 0.18981,0.24935 0.18981,0.3221 0,0.0728 0.0251,0.10728 0.0557,0.0767 0.0306,-0.0306 0.0243,-0.17553 -0.0141,-0.32211 z m -0.69774,-0.11746 c -0.10948,-0.10947 -0.44629,0.0907 -0.3674,0.21834 0.0541,0.0875 0.13311,0.0824 0.25215,-0.0163 0.0953,-0.0791 0.14721,-0.17002 0.11525,-0.20198 z m -8.76543,-0.65326 c 0,-0.271 -0.90412,-0.49107 -1.71025,-0.41629 -0.97509,0.0905 -1.45051,0.23659 -1.1477,0.3528 0.11031,0.0423 0.20056,0.1602 0.20056,0.26194 0,0.12625 0.11866,0.18497 0.37369,0.18497 0.2652,0 0.39106,0.0664 0.43353,0.22891 0.0566,0.21652 0.10825,0.2092 0.95502,-0.13568 0.49234,-0.20052 0.89515,-0.41501 0.89515,-0.47665 z m -3.97694,0.41913 0.29284,-0.32665 -0.29536,0.18601 c -0.16244,0.10231 -0.31645,0.2493 -0.34224,0.32665 -0.074,0.22201 0.0287,0.16663 0.34476,-0.18601 z m 4.64129,-2.01919 c 0,-0.74951 0.0461,-0.95812 0.28228,-1.27733 l 0.28228,-0.38153 -0.53518,-0.68523 c -0.29435,-0.37687 -0.68811,-0.91822 -0.87501,-1.203 l -0.33983,-0.51778 -0.3437,0.32929 c -0.90778,0.8697 -1.12431,2.26882 -0.53694,3.46937 0.43143,0.8818 0.79597,1.16266 1.50864,1.1623 l 0.55746,-2.4e-4 v -0.89581 z m 13.10831,-0.26308 c 1.11073,-0.32986 2.63307,-1.44557 3.19662,-2.34279 0.65455,-1.04209 0.83265,-1.77507 0.83663,-3.4432 0.004,-1.34612 -0.0345,-1.66614 -0.26466,-2.24185 -0.14761,-0.36936 -0.34172,-0.77184 -0.43134,-0.8944 -0.15267,-0.2088 -0.17548,-0.19767 -0.36228,0.17677 -0.11847,0.23748 -0.20039,0.69835 -0.2019,1.13598 -0.005,1.44885 -0.9854,3.40837 -2.03985,4.07708 -1.07379,0.68099 -2.34876,0.86055 -3.45204,0.48617 -0.49479,-0.16791 -0.74864,-0.20427 -0.80373,-0.11514 -0.1749,0.283 -0.23496,1.45402 -0.10634,2.07354 0.129,0.62143 0.16242,0.66392 0.70317,0.89399 0.31227,0.13285 0.67647,0.26797 0.80934,0.30025 0.52099,0.1266 1.497,0.0776 2.11638,-0.1064 z m -7.90096,-0.70552 c 0.33208,-0.23261 0.97224,-1.55528 1.14718,-2.37024 0.19779,-0.9215 0.0617,-3.66606 -0.23922,-4.82407 -0.46249,-1.77973 -1.13422,-3.12795 -2.05617,-4.12686 l -0.55622,-0.60265 -1.08021,0.31416 c -0.61704,0.17945 -1.44866,0.32566 -1.93946,0.34099 l -0.85922,0.0268 -0.33098,0.87291 c -0.94011,2.4794 -0.91547,5.37746 0.0625,7.3642 0.40584,0.82439 1.61406,2.23495 2.15309,2.5137 1.04997,0.54296 3.21424,0.83029 3.69861,0.49103 z m 7.96399,-2.94979 c 0.7912,-0.3743 1.23951,-0.82684 1.67909,-1.69494 0.67826,-1.33944 0.83578,-2.59796 0.43553,-3.4796 -0.1857,-0.40905 -0.36644,-0.57626 -0.93346,-0.86362 -0.87972,-0.44583 -1.22599,-0.81357 -1.48416,-1.57618 l -0.20311,-0.59996 -0.15553,0.44482 c -0.0855,0.24465 -0.31627,0.69995 -0.51272,1.01178 -0.49848,0.79125 -1.15302,1.08938 -2.58424,1.17707 l -1.10684,0.0678 0.36083,0.90244 c 0.42899,1.07289 0.78201,2.53421 0.88152,3.64909 0.0717,0.80332 0.0744,0.80817 0.57667,1.05682 0.79091,0.3915 2.10399,0.35032 3.04642,-0.0955 z m -16.04414,-5.63002 c 0.51952,-0.16411 1.03074,-0.36795 1.13606,-0.45296 0.23332,-0.18835 1.01453,-2.12495 0.90242,-2.23707 -0.044,-0.044 -0.77622,0.26467 -1.62703,0.68605 -1.34946,0.66835 -1.60332,0.75557 -1.98879,0.68325 -0.47632,-0.0893 -0.50824,-0.0593 -0.31683,0.29837 0.11266,0.21051 0.0828,0.23364 -0.30197,0.23364 -0.23487,0 -0.42521,0.0408 -0.42299,0.0906 0.0152,0.34313 0.95884,0.98003 1.46942,0.99179 0.11282,0.003 0.6302,-0.12954 1.14971,-0.29366 z m -1.44545,-0.50961 c -0.32843,-0.0858 -0.25114,-0.26406 0.20987,-0.4839 0.46165,-0.22015 0.71957,-0.13063 0.3668,0.12732 -0.12156,0.0889 -0.18232,0.22421 -0.13504,0.30073 0.0872,0.14108 -0.0494,0.15835 -0.44163,0.0559 z m 20.32297,0.44679 c 0,-0.0515 0.1087,-0.1222 0.24159,-0.15694 0.25432,-0.0665 0.34887,-0.56896 0.10707,-0.56896 -0.0876,0 -0.10666,-0.1369 -0.0547,-0.39257 0.19676,-0.96746 0.20703,-1.20533 0.0668,-1.54407 l -0.1495,-0.36094 -0.28917,0.28915 c -0.24523,0.24523 -0.27044,0.33839 -0.16599,0.61311 0.28226,0.7424 0.0407,1.52857 -0.41588,1.35338 -0.0989,-0.0379 -0.24213,-0.31673 -0.31838,-0.61953 -0.0762,-0.30279 -0.18001,-0.57611 -0.23059,-0.60738 -0.0506,-0.0313 -0.1567,0.2002 -0.23581,0.51438 l -0.14383,0.57122 0.63947,0.56085 c 0.56312,0.49387 0.94897,0.6355 0.94897,0.3483 z m 1.55329,-2.96052 v -0.24159 l -0.1038,0.24159 c -0.0571,0.13287 -0.10382,0.35029 -0.10382,0.48316 v 0.24158 l 0.10382,-0.24158 c 0.0571,-0.13287 0.1038,-0.35029 0.1038,-0.48316 z m -16.91086,-0.53497 c 0.2895,-0.0559 0.64282,-0.22318 0.78514,-0.37169 l 0.25878,-0.26999 -1.14751,0.0734 c -1.26003,0.0806 -1.80226,0.19358 -1.81669,0.37849 -0.0206,0.26468 1.00691,0.36622 1.92028,0.18977 z m 1.76866,-0.49174 c 0.21571,-0.0927 0.20678,-0.10473 -0.0836,-0.11231 -0.17876,-0.004 -0.35863,0.0459 -0.39969,0.11231 -0.0891,0.14419 0.14758,0.14419 0.48316,0 z m -4.58067,-5.05369 c -0.25793,-0.0504 -0.3628,0.0411 -0.25229,0.21989 0.0597,0.0967 0.13665,0.0904 0.27249,-0.0221 0.1705,-0.14131 0.1685,-0.1609 -0.0203,-0.19773 z m 0.53718,-1.53726 c 0.0648,-0.17041 0.1178,-0.3723 0.1178,-0.44864 0,-0.20839 -0.32193,0.16651 -0.41794,0.48671 -0.11472,0.38258 0.15312,0.34862 0.30014,-0.0381 z"
         id="path970-9"
         sodipodi:nodetypes="csssssssssssssssssssscscccsssssscssssssssscssssscsssssssssscsssscsssscsssccsssssssssssssscssssscssssssssssssssscssssscscssscssssssssssscssssscssssssssssssssssssscssssccsscsssssssssscsssccsssssssssssssssssssssssssssscssssscsscsscccssssssssssssssssssscsscsssssssssscssscsssssssssssscssssssssssscsssssscssscsscsssscscssssscsccccsscc" />
    </g>
  </g>
</svg>
