<?xml version="1.0" encoding="UTF-8" standalone="no"?>
<!-- Created with Inkscape (http://www.inkscape.org/) -->

<svg
   width="41.008999mm"
   height="41.008999mm"
   viewBox="0 0 41.008999 41.008999"
   version="1.1"
   id="svg1"
   inkscape:version="1.4.2 (f4327f4, 2025-05-13)"
   sodipodi:docname="148.svg"
   xmlns:inkscape="http://www.inkscape.org/namespaces/inkscape"
   xmlns:sodipodi="http://sodipodi.sourceforge.net/DTD/sodipodi-0.dtd"
   xmlns="http://www.w3.org/2000/svg"
   xmlns:svg="http://www.w3.org/2000/svg">
  <sodipodi:namedview
     id="namedview1"
     pagecolor="#ffffff"
     bordercolor="#000000"
     borderopacity="0.25"
     inkscape:showpageshadow="2"
     inkscape:pageopacity="0.0"
     inkscape:pagecheckerboard="0"
     inkscape:deskcolor="#d1d1d1"
     inkscape:document-units="mm"
     inkscape:zoom="1.5878906"
     inkscape:cx="108.3198"
     inkscape:cy="200.26568"
     inkscape:window-width="1050"
     inkscape:window-height="1081"
     inkscape:window-x="3737"
     inkscape:window-y="0"
     inkscape:window-maximized="0"
     inkscape:current-layer="layer1" />
  <defs
     id="defs1" />
  <g
     inkscape:label="Layer 1"
     inkscape:groupmode="layer"
     id="layer1"
     transform="translate(-0.7937635,-0.79375582)">
    <g
       id="g11474"
       transform="translate(217.43289,178.27465)">
      <path
         style="fill:#000000;stroke-width:0.1;stroke-dasharray:none"
         d="m -198.2573,-136.94353 c -6.65035,-0.68013 -12.23568,-4.46394 -15.50925,-10.50683 -1.467,-2.70807 -2.27639,-5.996 -2.37909,-9.66447 -0.0854,-3.05059 0.41175,-5.45571 1.67635,-8.10997 2.4953,-5.23737 7.02847,-9.23664 12.47909,-11.00938 1.95823,-0.63687 3.45869,-0.8538 5.87606,-0.84952 4.0751,0.007 7.11618,0.82972 10.35189,2.79984 3.46538,2.10994 5.901,4.7094 7.52417,8.03026 1.56484,3.20152 2.16533,6.02284 2.0742,9.74533 -0.0623,2.54698 -0.34943,4.27466 -1.0704,6.44197 -1.36773,4.1116 -4.18961,7.63652 -8.08419,10.09828 -2.45614,1.55252 -5.95738,2.73382 -8.96982,3.02637 -1.00359,0.0974 -3.00685,0.0966 -3.96901,-10e-4 z m 3.84154,-2.18141 c 6.14444,-0.56103 11.71789,-4.34417 14.48729,-9.83372 0.94742,-1.87796 1.41759,-3.62465 1.50019,-5.57315 0.0547,-1.2918 -0.0105,-1.61334 -0.38956,-1.93269 -0.37105,-0.3122 -0.9264,-0.43169 -2.81983,-0.60674 -0.95633,-0.0885 -1.88436,-0.17953 -2.06229,-0.20249 -1.85256,-0.23907 -2.61213,-0.21229 -2.8967,0.10211 -0.0728,0.0804 -0.27423,0.54583 -0.44774,1.03435 -0.90457,2.54681 -2.24249,4.14334 -4.1822,4.99067 -0.96162,0.42006 -1.42516,0.50117 -2.86567,0.50142 -1.58919,2.6e-4 -2.20959,-0.13525 -3.55847,-0.77729 -1.70178,-0.81 -2.80587,-1.9177 -3.96901,-3.98195 -0.64423,-1.1433 -0.76668,-1.14271 -4.7565,0.0232 -1.05018,0.30687 -2.49173,0.70749 -3.20342,0.89031 -1.59598,0.40992 -2.62457,0.74866 -3.15408,1.03869 l -0.40438,0.22149 0.003,0.84813 c 0.001,0.67076 0.0421,0.96651 0.19233,1.41424 0.46825,1.39591 1.57374,3.28127 2.91644,4.97376 0.87208,1.09925 2.51899,2.7397 3.42622,3.41274 3.51002,2.60395 7.89675,3.8485 12.18493,3.45695 z m 1.53391,-15.19265 c 1.28382,-0.39956 2.26406,-1.50218 2.59461,-2.91854 0.14191,-0.60805 0.12082,-1.79042 -0.0432,-2.42622 -0.61978,-2.4022 -2.51012,-3.69446 -4.80455,-3.28446 -1.70549,0.30475 -3.03534,1.40025 -3.49205,2.87665 -0.37301,1.20586 -0.26374,2.41479 0.32649,3.61209 0.56381,1.14364 1.68361,2.00373 2.9547,2.26938 0.62777,0.13121 1.83041,0.0683 2.46398,-0.12894 z m -2.58528,-0.88675 c -0.91884,-0.3033 -1.6359,-0.94246 -2.08257,-1.85627 -0.29684,-0.60727 -0.30322,-0.6399 -0.30322,-1.55039 0,-0.87119 0.0158,-0.96332 0.24924,-1.45597 0.60937,-1.28578 2.09038,-2.09777 3.65049,-2.0014 1.48297,0.0916 2.68254,1.29196 2.93511,2.93707 0.24335,1.58495 -0.50233,3.04238 -1.88202,3.6785 -0.53488,0.2466 -0.6627,0.27194 -1.47524,0.29259 -0.48928,0.0131 -0.98059,-0.008 -1.09179,-0.0441 z m 1.88918,-1.22574 c 1.25567,-0.46981 1.81708,-1.75184 1.33333,-3.04477 -0.23601,-0.63082 -0.84759,-1.24319 -1.43716,-1.43902 -1.13229,-0.37609 -2.701,0.34591 -3.11673,1.43447 -0.20609,0.53966 -0.1499,1.43188 0.1237,1.9638 0.52382,1.01838 1.94492,1.51649 3.09686,1.08552 z m -19.31756,-2.22301 c 2.50636,-0.51139 10.48567,-2.49105 10.81443,-2.68304 0.27667,-0.1616 0.29281,-0.18678 0.74068,-1.15682 0.59409,-1.28678 1.61978,-2.32322 2.92136,-2.95196 2.9938,-1.4462 6.39355,-0.97525 8.92349,1.23612 0.28192,0.24641 0.79142,0.79397 1.13224,1.21677 0.35129,0.43582 0.74287,0.83215 0.90417,0.91515 0.18741,0.0965 0.84992,0.21735 1.94098,0.35422 0.91104,0.11427 2.31154,0.317 3.11219,0.45045 1.6378,0.27304 3.45757,0.39823 3.55263,0.24442 0.0995,-0.16094 -0.41366,-0.55428 -0.94676,-0.72574 -0.65622,-0.21104 -1.09667,-0.29707 -2.32282,-0.45368 -2.55732,-0.32663 -4.32411,-0.62524 -4.6336,-0.78314 -0.37968,-0.19368 -0.57401,-0.39241 -1.17397,-1.20042 -1.39455,-1.87814 -3.27782,-2.89148 -5.88475,-3.16645 -1.67831,-0.17701 -3.49643,0.15752 -5.08905,0.93638 -1.43372,0.70116 -2.32101,1.45055 -3.06179,2.58594 -0.74596,1.14323 -0.97658,1.3084 -2.47808,1.77475 -0.98043,0.3045 -5.2711,1.50316 -6.71255,1.87522 -1.23362,0.31844 -1.90098,0.64678 -2.36556,1.16386 -0.4272,0.47546 -0.47135,0.59285 -0.20219,0.53743 0.10014,-0.0206 0.4731,-0.0969 0.82895,-0.16946 z"
         id="path3" />
      <circle
         style="fill:none;stroke:#ff0000;stroke-width:0.1;stroke-dasharray:none"
         id="path788-8-1-8-1-9-2-6-3-4-7-1-6-1-0-8-8-4-1-8"
         cx="-196.11894"
         cy="-157.02946"
         r="19.954653" />
      <circle
         style="fill:none;stroke:#0000ff;stroke-width:0.1;stroke-linecap:round;stroke-dasharray:none;stroke-opacity:1;paint-order:markers stroke fill"
         id="path13019-1-33-3-83-70-3-7-5-9-5-4-3-1-1-8"
         cx="-196.11894"
         cy="-172.04045"
         r="2" />
    </g>
  </g>
</svg>
