<?xml version="1.0" encoding="UTF-8" standalone="no"?>
<!-- Created with Inkscape (http://www.inkscape.org/) -->

<svg
   width="41.008999mm"
   height="41.008999mm"
   viewBox="0 0 41.008999 41.008999"
   version="1.1"
   id="svg1"
   inkscape:version="1.4.2 (f4327f4, 2025-05-13)"
   sodipodi:docname="358.svg"
   xmlns:inkscape="http://www.inkscape.org/namespaces/inkscape"
   xmlns:sodipodi="http://sodipodi.sourceforge.net/DTD/sodipodi-0.dtd"
   xmlns="http://www.w3.org/2000/svg"
   xmlns:svg="http://www.w3.org/2000/svg">
  <sodipodi:namedview
     id="namedview1"
     pagecolor="#ffffff"
     bordercolor="#000000"
     borderopacity="0.25"
     inkscape:showpageshadow="2"
     inkscape:pageopacity="0.0"
     inkscape:pagecheckerboard="0"
     inkscape:deskcolor="#d1d1d1"
     inkscape:document-units="mm"
     inkscape:zoom="1.4513545"
     inkscape:cx="86.470947"
     inkscape:cy="71.657199"
     inkscape:window-width="1050"
     inkscape:window-height="1081"
     inkscape:window-x="857"
     inkscape:window-y="0"
     inkscape:window-maximized="0"
     inkscape:current-layer="layer1"
     showguides="false" />
  <defs
     id="defs1" />
  <g
     inkscape:label="Layer 1"
     inkscape:groupmode="layer"
     id="layer1"
     transform="translate(333.37504,1257.5646)">
    <g
       id="g131"
       transform="translate(-1381.2101,-1031.4959)">
      <g
         id="g191-8-8-7"
         transform="translate(537.45132,-136.86445)">
        <g
           id="g381-9-5"
           transform="translate(8.4373487,-13.523069)">
          <circle
             style="fill:none;stroke:#ff0000;stroke-width:0.1;stroke-dasharray:none"
             id="path788-8-1-8-1-9-2-56-8-1-7-71-3-2-7-5-1-48-6-2"
             cx="522.45093"
             cy="-55.176662"
             r="19.954653" />
          <g
             id="g3">
            <ellipse
               style="fill:none;stroke:#ff00ff;stroke-width:0.1;stroke-dasharray:none;stroke-opacity:1"
               id="path1138-9-4-0-0-1-2-4-9-7-82-6-75-2-1-90-3-2-0-9"
               cx="522.45093"
               cy="-55.176662"
               rx="18.492125"
               ry="18.492126" />
          </g>
          <circle
             style="fill:none;stroke:#0000ff;stroke-width:0.1;stroke-linecap:round;stroke-dasharray:none;stroke-opacity:1;paint-order:markers stroke fill"
             id="path13019-1-33-6-2-4-0-0-76-9-2-75-0-1-2-1"
             cx="522.45093"
             cy="-70.187653"
             r="2" />
        </g>
      </g>
      <path
         style="fill:#000000;stroke-width:0.704983"
         d="m 1066.2241,-191.20262 c -1.0235,-0.37838 -1.7842,-1.17231 -1.9166,-2.00042 -0.1034,-0.64656 -0.1426,-0.68251 -0.5678,-0.52086 -0.7684,0.29215 -1.9751,0.19829 -2.6367,-0.2051 -1.4875,-0.90685 -1.7843,-3.54799 -0.6053,-5.3853 l 0.6275,-0.97781 -0.9759,-0.85367 c -1.5464,-1.35274 -2.2493,-2.71335 -1.8899,-3.65851 0.247,-0.64974 0.9373,-1.24328 1.4458,-1.24328 0.5111,0 0.5047,0.0349 0.1489,-0.81659 -0.2709,-0.64841 -0.3198,-0.67562 -1.2124,-0.67562 -1.1849,0 -1.2209,-0.33396 -0.044,-0.40947 l 0.886,-0.0568 -0.017,-0.74611 -0.017,-0.7461 -1.149,-0.0555 c -0.9047,-0.0437 -1.1489,-0.11885 -1.1489,-0.3534 0,-0.25382 0.179,-0.28115 1.2106,-0.18481 1.1995,0.112 1.2118,0.10835 1.3324,-0.39271 0.1483,-0.61612 0.915,-2.18131 1.4173,-2.89329 0.2229,-0.31598 0.327,-0.68076 0.2635,-0.92359 -0.2823,-1.07955 0.7971,-3.39255 1.6876,-3.61604 0.5834,-0.14643 1.8776,0.35714 2.8887,1.124 0.6644,0.50389 0.992,0.61834 1.8646,0.65149 0.5822,0.0221 1.3371,0.12009 1.6775,0.21772 0.3404,0.0976 0.6338,0.17751 0.652,0.17751 0.018,0 0.088,-0.25171 0.1559,-0.55935 0.3396,-1.54635 2.407,-1.43285 3.0704,0.16855 0.2028,0.48981 0.2833,0.53406 0.6902,0.37937 0.6206,-0.23594 1.691,-0.22192 1.8431,0.0241 0.068,0.10959 0.2343,0.15659 0.3701,0.10446 0.1359,-0.0521 0.5337,-0.0156 0.8841,0.0811 1.1267,0.31109 1.3205,1.43244 0.7393,4.27835 -0.1906,0.9335 -0.2982,2.13682 -0.2617,2.92624 0.062,1.3374 0.063,1.34108 0.6534,1.46683 0.3252,0.0693 0.879,0.24434 1.2306,0.38889 0.9137,0.37566 0.5032,0.69021 -0.4552,0.3489 -1.1075,-0.39435 -1.3361,-0.34959 -1.5648,0.30625 -0.2902,0.83271 -0.3005,0.81528 0.7279,1.24265 0.5129,0.21317 0.9326,0.47617 0.9326,0.58445 0,0.28051 -0.2243,0.24733 -1.2233,-0.18088 -0.4847,-0.20776 -0.8966,-0.35465 -0.9153,-0.32642 -0.019,0.0282 -0.2157,0.31483 -0.4379,0.63691 l -0.4039,0.58558 0.6863,0.53358 c 0.3774,0.29346 0.765,0.58714 0.8613,0.65261 0.096,0.0655 0.1188,0.2098 0.05,0.32073 -0.079,0.12812 -0.4615,-0.0403 -1.0481,-0.46173 l -0.9234,-0.66342 -0.6407,0.39597 c -0.3524,0.21778 -1.0756,0.54378 -1.6071,0.72444 l -0.9663,0.32848 0.7619,0.50425 c 0.4191,0.27733 0.8784,0.50424 1.0206,0.50424 0.1423,0 0.4866,0.17932 0.7653,0.39848 0.379,0.29813 0.4751,0.49776 0.3815,0.79274 -0.069,0.21685 -0.1952,0.84208 -0.2809,1.38941 -0.094,0.60151 -0.2906,1.09721 -0.4963,1.25317 -0.5006,0.37949 -1.5518,0.5385 -2.1263,0.32163 l -0.5023,-0.18958 -0.1224,1.24197 c -0.1569,1.59232 -0.803,2.986 -1.7022,3.67189 -0.5978,0.45592 -0.8991,0.54306 -2.0253,0.5857 -0.807,0.0305 -1.604,-0.0538 -2.0435,-0.21626 z m 2.85,-0.2914 c 0.3492,-0.10015 0.8395,-0.37294 1.0895,-0.60621 0.5092,-0.47507 1.2459,-1.80373 1.0879,-1.96182 -0.056,-0.0564 -0.8891,-0.16894 -1.8504,-0.25005 -0.9612,-0.0811 -2.243,-0.31525 -2.8482,-0.52031 l -1.1005,-0.37286 -0.413,0.50108 c -0.498,0.60422 -0.5233,0.98656 -0.1214,1.83342 0.5416,1.14143 2.5996,1.82315 4.1561,1.37675 z m -4.8875,-3.09992 c 0.9451,-0.72087 1.6258,-2.28533 1.4745,-3.38903 -0.3082,-2.24836 -2.4737,-3.06943 -4.2199,-1.60004 -0.8146,0.68545 -1.1754,1.49519 -1.1921,2.67562 -0.035,2.48648 2.0807,3.7297 3.9375,2.31345 z m 7.2798,-2.45371 c -0.054,-1.30802 -0.1959,-2.8103 -0.3159,-3.3384 -0.2055,-0.90418 -0.2559,-0.96458 -0.8632,-1.03548 -0.567,-0.0662 -0.6887,-0.001 -1.0072,0.53881 -0.7429,1.25901 -2.1695,1.69087 -3.3028,0.99982 -0.7323,-0.44647 -0.944,-0.82567 -1.0408,-1.86352 -0.059,-0.63805 -0.1764,-0.86066 -0.557,-1.06009 -0.4679,-0.24516 -0.5084,-0.21854 -1.4069,0.92471 l -0.9251,1.17713 0.9725,-0.0807 c 1.1405,-0.0946 1.9262,0.23772 2.5141,1.06339 0.6546,0.91937 0.7938,2.62785 0.3068,3.76678 -0.093,0.21732 0.023,0.3624 0.4217,0.52751 0.7054,0.2922 3.2134,0.71436 4.3907,0.73908 l 0.9107,0.0191 z m 2.7348,0.11413 c 0.4975,-0.22665 0.7797,-1.01609 0.5839,-1.63309 -0.063,-0.19885 -0.027,-0.41553 0.079,-0.48151 0.3758,-0.23228 0.1875,-0.61472 -0.4121,-0.83699 -0.3334,-0.1236 -0.7451,-0.29742 -0.915,-0.38627 -0.2397,-0.12537 -0.4623,0.0347 -0.9941,0.71504 -0.6081,0.77777 -0.6725,0.96068 -0.571,1.62269 0.063,0.41036 0.2535,0.85103 0.4236,0.97926 0.3855,0.29067 1.1928,0.3 1.8054,0.0209 z m -1.776,-3.16816 c 0.4875,-0.61648 0.4054,-0.81154 -0.4284,-1.01765 -0.4661,-0.11521 -0.5259,-0.0883 -0.4197,0.18859 0.068,0.17763 0.124,0.56791 0.124,0.86729 0,0.68207 0.1612,0.67356 0.7241,-0.0382 z m -3.9232,-0.6577 c 0.7979,-0.79789 0.8565,-0.7502 -1.6242,-1.32097 l -1.5591,-0.35871 0.1019,0.7602 c 0.1299,0.96793 0.8172,1.60015 1.7396,1.60015 0.512,0 0.8146,-0.15353 1.3418,-0.68067 z m -6.055,-1.25771 0.8508,-1.099 -0.5082,-0.61288 -0.5081,-0.61288 -1.0707,1.1523 c -0.5889,0.63377 -1.0715,1.2078 -1.0726,1.27562 0,0.19123 1.1459,1.11135 1.3112,1.0502 0.081,-0.0299 0.5297,-0.5489 0.9976,-1.15336 z m 11.7903,-0.58042 c 0.9343,-0.45713 1.1756,-0.83868 0.5304,-0.83868 -0.1478,0 -0.2687,-0.12591 -0.2687,-0.27979 0,-0.31363 0.4747,-0.38145 0.6528,-0.0933 0.2117,0.34246 0.6234,0.19217 1.0272,-0.37492 l 0.3998,-0.56144 -0.5809,-0.11618 c -0.7476,-0.14951 -0.6181,-0.54802 0.1576,-0.48504 0.4839,0.0393 0.6229,-0.0384 0.7724,-0.43183 0.2849,-0.74917 0.232,-0.8285 -0.5527,-0.8285 -0.4043,0 -0.7869,-0.0839 -0.8503,-0.18653 -0.116,-0.18768 0.089,-0.23607 1.1191,-0.2644 l 0.5596,-0.0154 0.015,-1.772 c 0.01,-0.9746 0.1114,-2.3176 0.2294,-2.98443 0.2455,-1.38829 0.2787,-2.60973 0.079,-2.91266 -0.075,-0.11441 -0.3093,-0.26167 -0.5198,-0.32725 -0.3349,-0.10436 -0.385,-0.0358 -0.4016,0.54986 -0.011,0.40371 -0.1754,0.8356 -0.4133,1.08887 l -0.3944,0.41977 0.3779,0.85427 c 0.2875,0.65001 0.335,0.96694 0.1987,1.32547 -0.3438,0.90431 -1.3367,1.10883 -2.4601,0.50673 l -0.672,-0.36022 -0.2258,0.42189 c -0.2731,0.51033 -1.1321,1.04464 -1.6794,1.04464 -0.6673,0 -1.3151,-0.81131 -1.3151,-1.64695 0,-0.65709 -0.055,-0.74221 -0.5389,-0.83907 -0.6959,-0.13916 -1.468,-0.83283 -1.6119,-1.44815 -0.1678,-0.71712 0.6603,-1.62768 1.6199,-1.78112 0.4143,-0.0662 0.6699,-0.18924 0.58,-0.2791 -0.2007,-0.20066 -3.0136,-0.5684 -3.2465,-0.42442 -0.094,0.0582 -0.4648,-0.15202 -0.8237,-0.4671 -0.8351,-0.73326 -1.988,-1.32128 -2.5905,-1.32128 -0.6161,0 -1.3375,1.08693 -1.5083,2.27255 -0.1186,0.82311 -0.1032,0.86766 0.2665,0.77098 0.5524,-0.14447 0.4993,0.001 -0.405,1.11158 -0.8011,0.98362 -1.7066,2.78904 -1.5836,3.15783 0.036,0.10879 0.3497,0.29154 0.6965,0.40612 0.3468,0.11459 0.6688,0.3251 0.7155,0.46782 0.083,0.25474 -0.2122,0.23354 -1.316,-0.0944 -0.2493,-0.0741 -0.3264,0.0125 -0.3264,0.36665 0,0.8284 0.1871,1.05373 0.8748,1.05373 0.436,0 0.623,0.0764 0.5706,0.23316 -0.047,0.14038 -0.3154,0.20873 -0.6749,0.17178 l -0.5971,-0.0614 0.2542,0.62095 c 0.2127,0.51972 0.337,0.61097 0.7625,0.55969 0.6477,-0.0781 0.9734,0.19721 1.2488,1.05546 0.1208,0.3765 0.3559,0.84052 0.5224,1.03114 0.5023,0.57481 1.9199,1.19303 3.8681,1.68688 2.4554,0.6224 2.6819,0.65015 4.7048,0.57625 1.4228,-0.052 1.9266,-0.1542 2.7532,-0.5586 z m -7.0922,-2.50205 c -0.8255,-0.91211 0.3326,-1.94803 1.3387,-1.19754 0.5889,0.43919 0.735,0.89505 0.4119,1.28439 -0.3245,0.39105 -1.3648,0.33944 -1.7506,-0.0869 z m 1.385,-0.47814 c 0,-0.30743 -0.796,-0.57633 -1.1176,-0.37756 -0.1491,0.0922 -0.1457,0.20029 0.012,0.39061 0.2928,0.35279 1.1054,0.3432 1.1054,-0.0131 z m 3.5813,0.23893 c -0.5495,-0.54947 0.07,-1.69762 0.8667,-1.60545 0.6083,0.0704 0.7558,0.70642 0.3185,1.37375 -0.3221,0.49164 -0.8266,0.59027 -1.1852,0.2317 z m -8.7667,-2.05179 c -0.612,-0.612 0.16,-2.14598 0.8596,-1.70805 0.4416,0.27648 0.5044,1.14391 0.114,1.57532 -0.372,0.41109 -0.6565,0.44987 -0.9736,0.13273 z m -1.5158,2.80079 c 0.1071,-0.19469 0.104,-0.49518 -0.01,-0.78995 -0.1688,-0.44414 -0.2401,-0.46799 -1.0725,-0.35906 -1.2764,0.16702 -1.8472,0.50514 -1.9809,1.17328 -0.129,0.64523 -0.029,1.00185 0.491,1.75179 l 0.367,0.52922 1.0153,-0.99554 c 0.5585,-0.54754 1.0932,-1.13693 1.1882,-1.30974 z m 10.2733,-5.38988 c 0.2071,-0.11084 0.4972,-0.49032 0.6447,-0.84328 l 0.2681,-0.64174 0.692,0.47023 c 0.3806,0.25862 0.9495,0.47023 1.2643,0.47023 1.1035,0 1.3294,-0.77135 0.5321,-1.81668 l -0.4877,-0.63946 0.581,-0.59945 c 0.7089,-0.73138 0.7297,-1.09051 0.092,-1.59195 -0.5148,-0.40492 -0.991,-0.38004 -1.9165,0.10013 -0.508,0.26356 -0.757,0.097 -0.7628,-0.5103 -0.01,-0.55493 -0.7431,-1.28421 -1.2992,-1.28421 -0.7459,0 -0.9788,0.38602 -0.9186,1.52186 l 0.052,0.98269 -0.8639,-0.0531 c -0.9494,-0.0584 -1.6365,0.39466 -1.6365,1.07904 0,0.47014 0.7641,1.05957 1.5694,1.21064 0.6182,0.11599 0.6389,0.14745 0.6088,0.9262 -0.048,1.24142 0.6019,1.74283 1.5804,1.21917 z m -0.3638,-2.63366 c -0.3948,-0.39472 -0.2657,-1.23239 0.241,-1.56439 0.5535,-0.36268 0.8962,-0.26405 1.3177,0.37924 0.2896,0.44196 0.2901,0.51 0.01,0.94266 -0.3329,0.50808 -1.17,0.63776 -1.5653,0.24249 z m 1.0896,-0.43838 c 0.1982,-0.23886 0.186,-0.34314 -0.07,-0.59955 -0.2895,-0.28951 -0.3313,-0.28951 -0.6208,0 -0.2564,0.25641 -0.2687,0.36069 -0.071,0.59955 0.132,0.15904 0.3034,0.28915 0.3809,0.28915 0.077,0 0.2488,-0.13011 0.3808,-0.28915 z"
         id="path731-5" />
    </g>
  </g>
</svg>
