<?xml version="1.0" encoding="UTF-8" standalone="no"?>
<!-- Created with Inkscape (http://www.inkscape.org/) -->

<svg
   width="41.008999mm"
   height="41.008999mm"
   viewBox="0 0 41.008999 41.008999"
   version="1.1"
   id="svg1"
   inkscape:version="1.4.2 (f4327f4, 2025-05-13)"
   sodipodi:docname="163.svg"
   xmlns:inkscape="http://www.inkscape.org/namespaces/inkscape"
   xmlns:sodipodi="http://sodipodi.sourceforge.net/DTD/sodipodi-0.dtd"
   xmlns="http://www.w3.org/2000/svg"
   xmlns:svg="http://www.w3.org/2000/svg">
  <sodipodi:namedview
     id="namedview1"
     pagecolor="#ffffff"
     bordercolor="#000000"
     borderopacity="0.25"
     inkscape:showpageshadow="2"
     inkscape:pageopacity="0.0"
     inkscape:pagecheckerboard="0"
     inkscape:deskcolor="#d1d1d1"
     inkscape:document-units="mm"
     inkscape:zoom="1.5878906"
     inkscape:cx="108.3198"
     inkscape:cy="200.26568"
     inkscape:window-width="1050"
     inkscape:window-height="1081"
     inkscape:window-x="3737"
     inkscape:window-y="0"
     inkscape:window-maximized="0"
     inkscape:current-layer="layer1" />
  <defs
     id="defs1" />
  <g
     inkscape:label="Layer 1"
     inkscape:groupmode="layer"
     id="layer1"
     transform="translate(-0.7937635,-0.79375582)">
    <g
       id="g15745"
       transform="translate(-12.369767,324.87598)">
      <path
         style="fill:#000000;stroke-width:0.1;stroke-dasharray:none"
         d="m 32.78548,-287.98494 c -1.43474,-0.10209 -2.89761,-0.46004 -4.18443,-1.02384 -0.31558,-0.13827 -1.04481,-0.50593 -1.05472,-0.53178 -0.004,-0.0124 0.16794,-0.35001 0.3838,-0.75018 0.21587,-0.40019 0.39523,-0.73532 0.39858,-0.74475 0.004,-0.01 0.20387,0.0815 0.44563,0.20224 0.66053,0.3297 1.20965,0.54547 1.86896,0.73442 2.11777,0.60694 4.37377,0.56254 6.4582,-0.12711 1.01696,-0.33648 2.03591,-0.85483 2.91053,-1.48066 0.99984,-0.71542 1.85137,-1.56613 2.56773,-2.56522 2.35077,-3.27858 2.68938,-7.64178 0.87256,-11.24361 -0.60368,-1.19682 -1.35373,-2.19704 -2.33628,-3.11555 -0.2459,-0.22986 -0.59825,-0.53267 -0.61984,-0.53267 -0.006,0 -0.0122,1.81828 -0.0122,4.04062 v 4.04062 l -0.27298,-0.21526 c -0.15013,-0.1184 -0.86539,-0.6839 -1.58945,-1.25667 l -1.31648,-1.04141 -0.004,-3.24621 -0.004,-3.2462 -0.86049,1.59694 c -0.47328,0.87832 -1.14624,2.12693 -1.49545,2.7747 -0.34922,0.64778 -0.96905,1.79825 -1.37741,2.55662 -0.40834,0.75837 -0.76344,1.41548 -0.78908,1.46025 l -0.0466,0.0815 h 2.28931 2.28933 v -0.45962 c 0,-0.25279 0.004,-0.45963 0.01,-0.45963 0.0159,0 3.15875,2.48898 3.16263,2.50457 0.002,0.008 -0.4883,0.40156 -1.0893,0.87554 -0.60099,0.47398 -1.30848,1.03199 -1.57221,1.24001 -0.26372,0.20803 -0.48666,0.37823 -0.49542,0.37823 -0.009,0 -0.0159,-0.20683 -0.0159,-0.45961 v -0.45963 h -3.13872 -3.13871 l -0.15289,0.28248 c -0.0841,0.15537 -0.45684,0.84694 -0.82836,1.53684 -0.9701,1.80146 -2.87747,5.34107 -3.86471,7.17196 l -0.40273,0.74687 -1.80148,0.004 c -0.99082,0.003 -1.80148,7e-4 -1.80148,-0.004 0,-0.004 0.35215,-0.66234 0.78256,-1.46034 0.4304,-0.79801 1.50016,-2.78238 2.37725,-4.4097 3.35498,-6.22482 4.24956,-7.88432 4.6249,-8.57953 0.21325,-0.39499 0.77774,-1.44205 1.25443,-2.32681 0.47668,-0.88475 1.02009,-1.89305 1.20756,-2.24064 1.59454,-2.95622 2.04343,-3.79269 2.03824,-3.79816 -0.0226,-0.0237 -0.82787,-0.0383 -1.20461,-0.0219 -1.12046,0.0489 -2.05451,0.21835 -3.05617,0.55425 -3.29158,1.10388 -5.88461,3.72239 -6.951,7.01934 -0.87894,2.7174 -0.65627,5.69013 0.61679,8.2348 0.0738,0.14747 0.19044,0.36722 0.25926,0.48835 0.0687,0.12113 0.12518,0.22935 0.12527,0.24052 3e-4,0.0379 -0.91123,1.71205 -0.92691,1.70237 -0.009,-0.005 -0.097,-0.13222 -0.19662,-0.28205 -1.17245,-1.76425 -1.859,-3.70391 -2.0724,-5.85485 -0.0419,-0.4222 -0.0582,-1.48524 -0.0296,-1.92734 0.14616,-2.25521 0.82881,-4.31454 2.04644,-6.17341 1.98006,-3.02283 5.15872,-5.06101 8.71818,-5.59016 1.06017,-0.15761 2.21674,-0.17959 3.27085,-0.0622 l 0.29291,0.0326 0.12973,-0.23989 c 0.0713,-0.13195 0.51168,-0.94871 0.97848,-1.81504 l 0.84876,-1.57516 h 1.58685 1.58685 v 2.75423 2.75422 l 0.24417,0.1644 c 3.08074,2.07406 5.10757,5.40283 5.51868,9.06364 0.0663,0.59029 0.0836,0.98767 0.0728,1.66342 -0.0108,0.6611 -0.0378,1.02204 -0.12086,1.60177 -0.58529,4.08603 -3.17013,7.66561 -6.86391,9.50542 -1.54945,0.77176 -3.0954,1.19269 -4.82599,1.31404 -0.32109,0.0225 -1.4004,0.0217 -1.72355,-9.7e-4 z m 4.52425,-6.79146 0.004,-1.69936 0.93127,-0.73757 c 0.51221,-0.40567 1.21388,-0.96163 1.55929,-1.23548 0.34541,-0.27386 0.63945,-0.50482 0.65345,-0.51325 0.0212,-0.0127 0.0254,0.48714 0.0254,2.93485 v 2.95017 h -1.58961 -1.58962 z"
         id="path27493" />
      <circle
         style="fill:none;stroke:#ff0000;stroke-width:0.1;stroke-dasharray:none"
         id="path788-8-1-8-1-9-2-2-9-1-0-4"
         cx="33.66803"
         cy="-303.57773"
         r="19.954653" />
      <ellipse
         style="fill:none;stroke:#ff00ff;stroke-width:0.1;stroke-dasharray:none;stroke-opacity:1"
         id="path1138-9-4-0-0-1-2-8-1-8-6-4"
         cx="33.66803"
         cy="-303.57773"
         rx="18.492125"
         ry="18.492126" />
      <circle
         style="fill:none;stroke:#0000ff;stroke-width:0.1;stroke-linecap:round;stroke-dasharray:none;stroke-opacity:1;paint-order:markers stroke fill"
         id="path13019-1-33-4-5-5-5-8"
         cx="33.668026"
         cy="-318.58871"
         r="2" />
    </g>
  </g>
</svg>
