<?xml version="1.0" encoding="UTF-8" standalone="no"?>
<!-- Created with Inkscape (http://www.inkscape.org/) -->

<svg
   width="41.008999mm"
   height="41.008999mm"
   viewBox="0 0 41.008999 41.008999"
   version="1.1"
   id="svg1"
   inkscape:version="1.4.2 (f4327f4, 2025-05-13)"
   sodipodi:docname="165.svg"
   xmlns:inkscape="http://www.inkscape.org/namespaces/inkscape"
   xmlns:sodipodi="http://sodipodi.sourceforge.net/DTD/sodipodi-0.dtd"
   xmlns="http://www.w3.org/2000/svg"
   xmlns:svg="http://www.w3.org/2000/svg">
  <sodipodi:namedview
     id="namedview1"
     pagecolor="#ffffff"
     bordercolor="#000000"
     borderopacity="0.25"
     inkscape:showpageshadow="2"
     inkscape:pageopacity="0.0"
     inkscape:pagecheckerboard="0"
     inkscape:deskcolor="#d1d1d1"
     inkscape:document-units="mm"
     inkscape:zoom="1.5878906"
     inkscape:cx="108.3198"
     inkscape:cy="200.26568"
     inkscape:window-width="1050"
     inkscape:window-height="1081"
     inkscape:window-x="3737"
     inkscape:window-y="0"
     inkscape:window-maximized="0"
     inkscape:current-layer="layer1" />
  <defs
     id="defs1" />
  <g
     inkscape:label="Layer 1"
     inkscape:groupmode="layer"
     id="layer1"
     transform="translate(-0.7937635,-0.79375582)">
    <g
       id="g15710"
       transform="translate(114.22974,275.27677)">
      <path
         style="fill:#000000;stroke-width:0.1;stroke-dasharray:none"
         d="m -95.35099,-236.48311 c -0.62457,-0.30798 -2.26749,-1.76735 -2.96549,-2.63417 -1.28103,-1.59089 -2.16532,-3.29171 -2.5935,-4.98833 -0.26083,-1.03345 -0.57067,-2.74368 -0.57067,-3.14987 0,-0.14134 -0.15117,-0.49244 -0.33594,-0.78022 l -0.33594,-0.52322 -0.0305,-2.7634 c -0.0282,-2.54958 -0.0149,-2.80173 0.17227,-3.25869 0.14464,-0.35316 0.21999,-0.85123 0.26261,-1.73568 0.10062,-2.08827 0.57235,-4.68558 1.00967,-5.55913 0.42407,-0.84708 2.93686,-2.34885 4.89133,-2.92332 0.74959,-0.22031 1.22146,-0.28382 2.42912,-0.32699 1.65415,-0.0591 2.47601,0.0339 3.87107,0.43818 1.67288,0.48478 3.70748,1.68731 4.26716,2.52207 0.453,0.67566 0.65729,1.62434 0.97022,4.50542 0.20707,1.90664 0.35861,2.90114 0.47827,3.1388 0.15322,0.30436 0.17311,0.70301 0.15892,3.18419 l -0.0162,2.83629 -0.26261,0.44812 c -0.19029,0.32469 -0.29186,0.70629 -0.3688,1.38551 -0.47929,4.23098 -2.48017,7.71189 -5.65257,9.83372 l -0.77522,0.5185 -2.1362,-0.003 c -1.73341,-0.002 -2.19853,-0.0331 -2.4669,-0.16543 z m -0.4536,-1.35687 c 0.4736,-0.28388 0.47727,-0.28431 2.74828,-0.31659 l 2.27406,-0.0323 0.60249,0.32198 0.60249,0.32197 0.77926,-0.70311 c 0.42859,-0.3867 0.89321,-0.79659 1.03249,-0.91084 l 0.25326,-0.20773 -0.21004,-0.48999 c -0.11552,-0.26949 -0.22622,-0.48999 -0.24601,-0.48999 -0.0198,0 -0.26198,0.27352 -0.53822,0.6078 l -0.50225,0.60782 -0.57664,-0.4527 -0.57664,-0.45268 -2.74097,-7e-5 -2.74098,-6e-5 -0.52468,0.45896 -0.52468,0.45899 -0.5589,-0.56724 -0.55888,-0.56723 -0.17149,0.3847 -0.1715,0.38471 0.8899,0.96394 c 0.48945,0.53017 0.91139,0.96395 0.93767,0.96395 0.0262,0 0.26115,-0.12791 0.52198,-0.28426 z m -0.61111,-2.35158 0.35065,-0.36179 h 3.18377 3.18378 l 0.42023,0.37965 0.42021,0.37964 0.40918,-0.40918 c 0.34807,-0.34808 0.42501,-0.50748 0.51517,-1.0673 0.15025,-0.93294 0.59977,-2.02852 1.44458,-3.52082 1.5122,-2.67113 1.94646,-3.79016 1.8212,-4.69292 -0.0323,-0.23304 -0.2174,-0.94503 -0.41126,-1.58222 l -0.35249,-1.15851 0.14587,-3.67036 c 0.10473,-2.63527 0.11503,-3.78489 0.0366,-4.07646 -0.0786,-0.29169 -0.29646,-0.58112 -0.77355,-1.02742 -0.92567,-0.86592 -1.68356,-1.21672 -3.48598,-1.61351 -0.33334,-0.0733 -0.27835,-0.30176 -0.70716,2.93667 -0.4462,3.37002 -0.55591,3.85649 -0.94314,4.18232 -0.29946,0.25198 -0.36609,0.26241 -1.67355,0.26204 -1.61787,-3.9e-4 -1.90848,-0.11341 -2.17061,-0.84363 -0.0885,-0.24644 -0.33329,-1.82024 -0.54405,-3.49737 -0.21077,-1.6771 -0.39794,-3.06705 -0.41594,-3.08874 -0.0754,-0.0908 -1.85647,0.42949 -2.48124,0.72468 -0.74705,0.35297 -1.90696,1.36468 -2.10063,1.83223 -0.0944,0.22795 -0.089,1.14702 0.0239,4.05693 l 0.14596,3.76222 -0.34645,1.17959 c -0.64522,2.19689 -0.51408,2.85819 1.14641,5.78129 1.07823,1.89807 1.52649,2.92824 1.71627,3.94426 0.10446,0.55923 0.19617,0.74552 0.54704,1.11117 0.23184,0.24163 0.44924,0.43931 0.4831,0.43931 0.0339,0 0.21936,-0.16279 0.41222,-0.36177 z m -0.77525,-7.91666 c -0.45481,-0.0467 -0.96969,-0.11088 -1.14419,-0.14249 -0.36557,-0.0662 -1.69838,-1.12289 -1.69838,-1.34651 0,-0.18728 0.48379,-1.29274 0.56577,-1.29274 0.0332,0 0.32645,0.13419 0.65173,0.2982 0.76577,0.38611 2.25197,0.8817 3.28755,1.09627 2.45395,0.50842 5.41654,0.19593 7.87093,-0.83023 1.27553,-0.53329 1.35742,-0.52679 1.71426,0.13605 l 0.29353,0.54524 -0.2922,0.3379 c -0.1607,0.18585 -0.49582,0.50579 -0.74469,0.71098 -0.41373,0.34112 -0.53993,0.38379 -1.47317,0.49812 -1.35823,0.16638 -2.46338,0.10544 -2.61392,-0.14416 -0.30218,-0.50096 -0.26773,-0.48995 -1.14599,-0.36644 -0.75297,0.10589 -1.53664,0.0828 -2.54611,-0.0752 -0.35832,-0.056 -0.38162,-0.0414 -0.499,0.31432 l -0.12315,0.37312 -0.63802,-0.0137 c -0.35091,-0.007 -1.01014,-0.052 -1.46495,-0.0988 z m 8.13774,-0.35126 c 0.92661,-0.0778 1.91334,-0.39345 2.33733,-0.74784 0.32313,-0.27008 0.33682,-0.30692 0.21417,-0.57611 -0.0923,-0.20245 -0.17913,-0.26679 -0.29352,-0.21733 -0.72253,0.31245 -2.24415,0.77467 -3.04953,0.92636 l -0.97614,0.18386 0.15157,0.2931 c 0.13416,0.25943 0.19573,0.28754 0.53616,0.2447 0.21151,-0.0266 0.69749,-0.0746 1.07996,-0.10674 z m -6.07324,-0.18228 c 0.15717,-0.22292 0.15205,-0.23543 -0.12334,-0.30157 -0.15803,-0.0379 -0.8017,-0.18877 -1.43042,-0.33514 -0.62869,-0.14639 -1.43632,-0.3853 -1.79471,-0.53093 -0.35839,-0.14563 -0.66334,-0.25064 -0.67765,-0.23337 -0.19937,0.24065 -0.26157,0.52608 -0.14521,0.66628 0.41261,0.49716 1.94343,0.93948 3.31552,0.95798 0.60577,0.008 0.71226,-0.0196 0.85581,-0.22325 z"
         id="path27537" />
      <circle
         style="fill:none;stroke:#ff0000;stroke-width:0.1;stroke-dasharray:none"
         id="path788-8-1-8-1-9-2-1-4-2-2-4"
         cx="-92.931473"
         cy="-253.97852"
         r="19.954653" />
      <ellipse
         style="fill:none;stroke:#ff00ff;stroke-width:0.1;stroke-dasharray:none;stroke-opacity:1"
         id="path1138-9-4-0-0-1-2-6-7-2-6-6"
         cx="-92.931473"
         cy="-253.97852"
         rx="18.492125"
         ry="18.492126" />
      <circle
         style="fill:none;stroke:#0000ff;stroke-width:0.1;stroke-linecap:round;stroke-dasharray:none;stroke-opacity:1;paint-order:markers stroke fill"
         id="path13019-1-33-7-4-6-7-2"
         cx="-92.931473"
         cy="-268.9895"
         r="2" />
    </g>
  </g>
</svg>
