<?xml version="1.0" encoding="UTF-8" standalone="no"?>
<!-- Created with Inkscape (http://www.inkscape.org/) -->

<svg
   width="41.008999mm"
   height="41.008999mm"
   viewBox="0 0 41.008999 41.008999"
   version="1.1"
   id="svg1"
   inkscape:version="1.4.2 (f4327f4, 2025-05-13)"
   sodipodi:docname="166.svg"
   xmlns:inkscape="http://www.inkscape.org/namespaces/inkscape"
   xmlns:sodipodi="http://sodipodi.sourceforge.net/DTD/sodipodi-0.dtd"
   xmlns="http://www.w3.org/2000/svg"
   xmlns:svg="http://www.w3.org/2000/svg">
  <sodipodi:namedview
     id="namedview1"
     pagecolor="#ffffff"
     bordercolor="#000000"
     borderopacity="0.25"
     inkscape:showpageshadow="2"
     inkscape:pageopacity="0.0"
     inkscape:pagecheckerboard="0"
     inkscape:deskcolor="#d1d1d1"
     inkscape:document-units="mm"
     inkscape:zoom="1.5878906"
     inkscape:cx="108.3198"
     inkscape:cy="200.26568"
     inkscape:window-width="1050"
     inkscape:window-height="1081"
     inkscape:window-x="3737"
     inkscape:window-y="0"
     inkscape:window-maximized="0"
     inkscape:current-layer="layer1" />
  <defs
     id="defs1" />
  <g
     inkscape:label="Layer 1"
     inkscape:groupmode="layer"
     id="layer1"
     transform="translate(-0.7937635,-0.79375582)">
    <g
       id="g15715"
       transform="translate(71.924243,275.27677)">
      <path
         style="fill:#000000;stroke-width:0.1;stroke-dasharray:none"
         d="m -52.127373,-235.38883 c -3.733053,-0.31702 -7.171909,-1.68692 -10.13682,-4.03813 -0.802324,-0.63625 -2.26134,-2.08709 -2.885049,-2.8689 -5.14419,-6.44814 -5.509155,-15.31924 -0.910026,-22.12021 0.699776,-1.03479 1.280154,-1.7297 2.273127,-2.72175 1.05045,-1.04945 1.72764,-1.60802 2.852125,-2.35252 1.319635,-0.87373 2.274834,-1.36875 3.690394,-1.91253 4.69163,-1.80227 9.973932,-1.59933 14.564652,0.55955 1.215875,0.5718 2.618649,1.45088 3.735657,2.34104 0.732646,0.58386 2.259062,2.11028 2.842908,2.84292 4.472175,5.61183 5.377969,13.12598 2.361071,19.58674 -0.552515,1.18323 -1.505828,2.70915 -2.359522,3.77676 -0.58837,0.7358 -2.114955,2.26156 -2.844457,2.84292 -3.399363,2.70901 -7.540892,4.15403 -11.801134,4.1175 -0.461439,-0.004 -1.083757,-0.028 -1.382926,-0.0533 z m 3.652158,-3.82534 c 2.186509,-0.32404 4.299578,-1.13058 6.093158,-2.32573 0.961609,-0.64076 1.457692,-1.04871 2.301832,-1.89285 0.843894,-0.84389 1.252101,-1.34026 1.892077,-2.30067 1.212765,-1.81999 1.979683,-3.83129 2.333702,-6.12023 0.168018,-1.08644 0.168534,-3.15509 0.001,-4.24792 -0.256051,-1.6706 -0.664078,-2.97313 -1.403718,-4.48103 -0.901078,-1.83695 -2.112395,-3.40674 -3.634421,-4.70987 -2.173004,-1.86052 -4.725353,-3.01935 -7.609572,-3.45495 -0.678683,-0.10249 -1.003402,-0.12126 -2.098049,-0.12129 -1.350865,-2e-5 -1.767592,0.0373 -2.945041,0.26376 -2.277146,0.43799 -4.593325,1.51511 -6.457348,3.00299 -0.566412,0.4521 -1.795769,1.68146 -2.24788,2.24787 -0.949945,1.19011 -1.926551,2.93704 -2.432692,4.35152 -0.290739,0.81253 -0.565447,1.92771 -0.714617,2.901 -0.166884,1.08883 -0.166884,3.1591 0,4.24792 0.256051,1.67061 0.664078,2.97314 1.403729,4.48102 0.761136,1.55172 1.585767,2.70254 2.823094,3.93988 0.843883,0.84389 1.340235,1.2521 2.300653,1.89207 2.113855,1.40857 4.363296,2.17646 7.182214,2.45181 0.593366,0.0579 2.46894,-0.0153 3.211835,-0.1253 z m -3.289529,-3.62801 c -4.329158,-0.46967 -8.01697,-3.40427 -9.436527,-7.50916 -0.420667,-1.21645 -0.585249,-2.23623 -0.585249,-3.62627 0,-1.39003 0.164582,-2.40983 0.585249,-3.62626 1.361811,-3.93789 4.796547,-6.7967 8.944385,-7.4446 0.712528,-0.11125 2.419962,-0.12289 3.134129,-0.0212 3.470614,0.49379 6.525242,2.58043 8.256081,5.6398 0.647587,1.14465 1.144736,2.61742 1.333399,3.95001 0.09026,0.6376 0.09026,2.36702 0,3.00462 -0.694635,4.90682 -4.514677,8.78628 -9.41183,9.55828 -0.623429,0.0982 -2.21436,0.1405 -2.819637,0.0748 z m 2.652293,-3.82963 c 2.944255,-0.62182 5.159917,-2.84453 5.801218,-5.81963 0.163875,-0.76025 0.163875,-2.21209 0,-2.97233 -0.644074,-2.98797 -2.841337,-5.18514 -5.827666,-5.82742 -0.765852,-0.16471 -2.216909,-0.16528 -2.972343,-0.001 -3.028864,0.65804 -5.243965,2.90673 -5.853182,5.94193 -0.139942,0.69724 -0.126673,2.14551 0.02616,2.85898 0.681568,3.18087 3.149588,5.47103 6.380686,5.92087 0.541301,0.0753 1.869243,0.0203 2.445097,-0.10126 z m -5.397906,-1.95448 c 0,-0.02 0.166165,-0.98149 0.369241,-2.13674 l 0.369231,-2.10043 -1.592469,-1.57004 c -0.875854,-0.86352 -1.584016,-1.57621 -1.573677,-1.58375 0.01123,-0.008 0.927964,-0.17127 2.039146,-0.36383 1.111194,-0.19254 2.07022,-0.36183 2.131165,-0.37619 0.08509,-0.0201 0.342805,-0.47101 1.10805,-1.93865 0.548485,-1.05191 1.01409,-1.91258 1.034656,-1.91258 0.02054,0 0.486473,0.86076 1.035328,1.91276 0.762372,1.46124 1.023924,1.91885 1.108005,1.93856 0.06051,0.0141 1.019242,0.18326 2.130424,0.37569 1.111194,0.19245 2.028808,0.35621 2.039147,0.36392 0.01123,0.008 -0.697812,0.72055 -1.573677,1.58407 l -1.592469,1.57004 0.372082,2.11661 c 0.204636,1.16414 0.362753,2.12594 0.351347,2.13734 -0.01145,0.0114 -0.886821,-0.43157 -1.945388,-0.98436 l -1.924687,-1.0051 -1.922521,1.00449 c -1.057377,0.55245 -1.931614,1.00447 -1.942716,1.00447 -0.01123,0 -0.02032,-0.0163 -0.02032,-0.0363 z"
         id="path27551" />
      <circle
         style="fill:none;stroke:#ff0000;stroke-width:0.1;stroke-dasharray:none"
         id="path788-8-1-8-1-9-2-6-3-4-7"
         cx="-50.62598"
         cy="-253.97852"
         r="19.954653" />
      <circle
         style="fill:none;stroke:#0000ff;stroke-width:0.1;stroke-linecap:round;stroke-dasharray:none;stroke-opacity:1;paint-order:markers stroke fill"
         id="path13019-1-33-3-83-70-3"
         cx="-50.625984"
         cy="-268.9895"
         r="2" />
    </g>
  </g>
</svg>
