<?xml version="1.0" encoding="UTF-8" standalone="no"?>
<!-- Created with Inkscape (http://www.inkscape.org/) -->

<svg
   width="41.008999mm"
   height="41.008999mm"
   viewBox="0 0 41.008999 41.008999"
   version="1.1"
   id="svg1"
   inkscape:version="1.4.2 (f4327f4, 2025-05-13)"
   sodipodi:docname="167.svg"
   xmlns:inkscape="http://www.inkscape.org/namespaces/inkscape"
   xmlns:sodipodi="http://sodipodi.sourceforge.net/DTD/sodipodi-0.dtd"
   xmlns="http://www.w3.org/2000/svg"
   xmlns:svg="http://www.w3.org/2000/svg">
  <sodipodi:namedview
     id="namedview1"
     pagecolor="#ffffff"
     bordercolor="#000000"
     borderopacity="0.25"
     inkscape:showpageshadow="2"
     inkscape:pageopacity="0.0"
     inkscape:pagecheckerboard="0"
     inkscape:deskcolor="#d1d1d1"
     inkscape:document-units="mm"
     inkscape:zoom="1.5878906"
     inkscape:cx="108.3198"
     inkscape:cy="200.26568"
     inkscape:window-width="1050"
     inkscape:window-height="1081"
     inkscape:window-x="3737"
     inkscape:window-y="0"
     inkscape:window-maximized="0"
     inkscape:current-layer="layer1" />
  <defs
     id="defs1" />
  <g
     inkscape:label="Layer 1"
     inkscape:groupmode="layer"
     id="layer1"
     transform="translate(-0.7937635,-0.79375582)">
    <g
       id="g15721"
       transform="translate(29.752894,275.27677)">
      <path
         style="fill:#000000;stroke-width:0.1;stroke-dasharray:none"
         d="m -13.85193,-240.7418 c -1.52508,-1.18008 -2.81581,-2.1883 -2.8683,-2.24049 -0.0525,-0.0522 0.10911,-1.59225 0.35909,-3.42234 0.34889,-2.55407 0.49795,-3.31737 0.64134,-3.28411 0.10275,0.0238 0.37789,0.0749 0.61141,0.11349 l 0.4246,0.0702 -0.59633,-0.55455 -0.59633,-0.55457 -0.89168,-3.34282 -0.89167,-3.34283 2.06645,-3.09518 2.06645,-3.0952 2.1251,-1.30086 2.1251,-1.30087 2.83542,-0.0428 c 2.81904,-0.0426 2.83692,-0.041 3.09346,0.27729 0.65546,0.81315 0.79428,1.15576 0.7948,1.96151 2.7e-4,0.44525 0.13231,1.56826 0.2934,2.49558 0.32272,1.85781 0.30404,2.91149 -0.088,4.9614 l -0.22866,1.1957 -2.24108,0.17562 c -1.2326,0.0966 -2.4221,0.18242 -2.64334,0.19073 -0.39804,0.0149 -0.41262,-0.0128 -1.39247,-2.64826 -0.54462,-1.46484 -1.01869,-2.69189 -1.0535,-2.72677 -0.0348,-0.0349 -0.0321,0.39863 0.006,0.96335 0.066,0.97725 0.0559,1.02274 -0.20796,0.9435 -0.20526,-0.0616 -0.14558,0.0559 0.22972,0.45223 l 0.507,0.53548 -0.31729,2.95287 c -0.17451,1.62407 -0.34895,2.98453 -0.38765,3.02323 -0.0387,0.0387 -0.66998,0.17006 -1.40284,0.29193 -0.73287,0.12186 -1.33248,0.26786 -1.33248,0.32444 0,0.0566 0.4888,0.14614 1.08624,0.19902 l 1.08624,0.0962 0.36307,2.91189 c 0.3245,2.60259 0.39688,2.94368 0.68146,3.21106 0.23658,0.22229 0.45831,0.84683 0.863,2.43086 l 0.54461,2.1317 0.49521,0.19463 c 1.46766,0.57683 1.49868,0.5469 -0.75465,0.72802 -1.14267,0.0918 -2.20235,0.18914 -2.35486,0.21621 -0.18938,0.0336 -1.15634,-0.63097 -3.05015,-2.09637 z m 7.97199,1.16352 c -0.87692,-0.31159 -1.60341,-0.57122 -1.61442,-0.57696 -0.011,-0.006 -0.3019,-0.90197 -0.64643,-1.99161 -0.72245,-2.2849 -0.88236,-2.13825 1.35967,-1.24689 l 1.38643,0.55121 3.65358,0.11638 c 2.00946,0.064 3.68534,0.14814 3.72417,0.18697 0.0388,0.0388 -0.28613,0.68488 -0.72214,1.43567 l -0.79275,1.36507 -2.16889,0.31678 c -1.19289,0.17422 -2.26248,0.33772 -2.37686,0.36333 -0.11438,0.0256 -0.92544,-0.20837 -1.80236,-0.51995 z m -12.08964,-1.22994 c -4.78882,-4.81255 -6.33995,-10.59958 -4.39617,-16.40139 0.44401,-1.32528 1.86057,-4.19289 2.38067,-4.81932 l 0.31013,-0.37354 2.18388,0.17738 c 1.20113,0.0975 2.20997,0.20346 2.24185,0.23534 0.0319,0.0319 -0.65433,1.02299 -1.52494,2.20244 -1.06096,1.43732 -1.55786,2.22347 -1.50689,2.38407 0.43184,1.36059 1.1796,4.33343 1.25285,4.98091 l 0.0926,0.81858 -0.74578,0.0164 c -0.41018,0.009 -0.93295,0.0585 -1.16171,0.11005 l -0.41593,0.0937 0.37774,0.0997 c 0.20777,0.0548 0.75367,0.13896 1.21313,0.18698 0.74729,0.0781 0.83538,0.12012 0.83538,0.39843 0,0.36578 -0.26568,0.42038 -2.77286,0.56982 -1.9173,0.11429 -1.67433,0.23554 0.94945,0.4738 l 1.85064,0.16804 -0.0693,0.36267 c -0.22385,1.17225 -0.95729,6.13278 -0.91264,6.17249 0.0294,0.0261 1.03673,0.76884 2.23847,1.65041 1.20174,0.88158 2.13758,1.63152 2.07965,1.66654 -0.0579,0.035 -0.77244,0.10868 -1.58779,0.16368 l -1.48246,0.10001 z m 15.62504,-2.61121 -3.32744,-0.0768 -1.7927,-0.77783 c -1.16209,-0.5042 -1.82546,-0.86944 -1.88583,-1.03828 -0.0513,-0.14326 -0.20802,-1.20657 -0.34844,-2.36291 -0.35842,-2.95166 -0.36459,-2.94723 2.58685,-1.85567 l 1.85605,0.68644 4.88718,0.0976 c 3.28493,0.0656 4.88717,0.14569 4.88717,0.24435 0,0.0807 -0.26434,1.28766 -0.58742,2.68207 l -0.58742,2.5353 -1.18028,-0.0288 c -0.64916,-0.0158 -2.67763,-0.0633 -4.50772,-0.10551 z m -1.24779,-6.09569 c -1.75429,-0.0762 -1.85598,-0.0983 -3.81269,-0.8265 -1.10568,-0.4115 -2.0546,-0.78644 -2.10871,-0.83319 -0.10896,-0.0941 0.47259,-4.24613 0.61463,-4.38817 0.1949,-0.19489 0.35714,0.11045 0.44889,0.84479 l 0.0964,0.77124 0.5784,-0.0773 c 0.31812,-0.0425 1.70141,-0.17248 3.07398,-0.28888 1.37256,-0.11639 2.57356,-0.23873 2.66888,-0.27187 0.0953,-0.0331 0.1733,-0.27186 0.1733,-0.53049 0,-0.25864 0.0398,-0.76072 0.0885,-1.11573 l 0.0885,-0.64547 3.68393,0.0369 3.68393,0.0369 0.2566,0.83186 c 0.38057,1.23379 0.44034,3.43381 0.13935,5.1298 l -0.24605,1.38643 -3.81269,0.009 c -2.09698,0.005 -4.62375,-0.0263 -5.61505,-0.0693 z m 2.11238,-8.98614 c 0.0357,-0.51471 -0.0364,-1.8027 -0.16025,-2.8622 -0.1239,-1.0595 -0.20828,-1.94081 -0.18752,-1.95846 0.0208,-0.0177 1.21995,-0.0554 2.66485,-0.084 l 2.62711,-0.0519 0.37865,0.6239 c 0.31616,0.52093 0.43222,1.00717 0.70325,2.94617 l 0.3246,2.32228 H 1.66288 -1.54498 Z"
         id="path27713"
         sodipodi:nodetypes="cssssccccccccccsssscscsscsscssssccssscsssccscsscssscssscssccsssscssccsssscsssssccccsssscsssccscssssscssssscccssccsscscccsscccc" />
      <circle
         style="fill:none;stroke:#ff0000;stroke-width:0.1;stroke-dasharray:none"
         id="path788-8-1-8-1-9-2-9-3-7-1-2"
         cx="-8.4546309"
         cy="-253.97852"
         r="19.954653" />
      <ellipse
         style="fill:none;stroke:#ff00ff;stroke-width:0.1;stroke-dasharray:none;stroke-opacity:1"
         id="path1138-9-4-0-0-1-2-25-0-9-29-6"
         cx="-8.4546309"
         cy="-253.97852"
         rx="18.492125"
         ry="18.492126" />
      <circle
         style="fill:none;stroke:#0000ff;stroke-width:0.1;stroke-linecap:round;stroke-dasharray:none;stroke-opacity:1;paint-order:markers stroke fill"
         id="path13019-1-33-5-7-7-4-6"
         cx="-8.4546347"
         cy="-268.9895"
         r="2" />
    </g>
  </g>
</svg>
