<?xml version="1.0" encoding="UTF-8" standalone="no"?>
<!-- Created with Inkscape (http://www.inkscape.org/) -->

<svg
   width="41.008999mm"
   height="41.008999mm"
   viewBox="0 0 41.008999 41.008999"
   version="1.1"
   id="svg1"
   inkscape:version="1.4.2 (f4327f4, 2025-05-13)"
   sodipodi:docname="168.svg"
   xmlns:inkscape="http://www.inkscape.org/namespaces/inkscape"
   xmlns:sodipodi="http://sodipodi.sourceforge.net/DTD/sodipodi-0.dtd"
   xmlns="http://www.w3.org/2000/svg"
   xmlns:svg="http://www.w3.org/2000/svg">
  <sodipodi:namedview
     id="namedview1"
     pagecolor="#ffffff"
     bordercolor="#000000"
     borderopacity="0.25"
     inkscape:showpageshadow="2"
     inkscape:pageopacity="0.0"
     inkscape:pagecheckerboard="0"
     inkscape:deskcolor="#d1d1d1"
     inkscape:document-units="mm"
     inkscape:zoom="1.5878906"
     inkscape:cx="108.3198"
     inkscape:cy="200.26568"
     inkscape:window-width="1050"
     inkscape:window-height="1081"
     inkscape:window-x="3737"
     inkscape:window-y="0"
     inkscape:window-maximized="0"
     inkscape:current-layer="layer1" />
  <defs
     id="defs1" />
  <g
     inkscape:label="Layer 1"
     inkscape:groupmode="layer"
     id="layer1"
     transform="translate(-0.7937635,-0.79375582)">
    <g
       id="g15727"
       transform="translate(-12.369809,275.27677)">
      <path
         style="fill:#000000;stroke-width:0.1;stroke-dasharray:none"
         d="m 30.90727,-235.07473 c -1.40982,-0.22642 -3.37566,-0.80607 -4.83192,-1.42475 -4.48678,-1.90618 -8.57861,-6.20395 -10.22494,-10.73956 -1.64281,-4.52588 -1.5703,-9.66387 0.19645,-13.92039 4.58958,-11.05737 18.06106,-15.2016 28.10387,-8.64558 7.36674,4.80906 10.39549,14.12929 7.33314,22.56597 -1.60742,4.42837 -5.63093,8.72017 -9.9787,10.64406 -2.44752,1.08302 -4.22709,1.46733 -7.17566,1.5496 -1.51793,0.0424 -3.05794,0.0291 -3.42224,-0.0294 z m 2.53908,-2.15923 c 0,-0.76937 -1.37354,-1.81832 -3.06946,-2.3441 -0.77745,-0.24103 -1.44916,-0.40262 -1.49269,-0.35908 -0.12392,0.12392 0.51763,1.82259 0.92069,2.43772 0.3784,0.57751 0.83508,0.71284 2.59271,0.76828 0.97217,0.0306 1.04875,-0.006 1.04875,-0.50282 z m 4.01253,-0.12103 c 0.43387,-0.53338 1.17829,-2.39505 1.02071,-2.55264 -0.0598,-0.0597 -0.74476,0.0885 -1.5222,0.32957 -1.73134,0.53676 -3.06946,1.57262 -3.06946,2.37613 v 0.56792 l 1.60072,-0.13338 c 1.24519,-0.10375 1.6828,-0.23426 1.97023,-0.5876 z m -9.05105,-1.33017 c -0.56607,-1.28078 -0.61307,-1.32474 -1.41652,-1.32474 -0.6745,0 -0.83102,0.0804 -0.83102,0.4272 0,0.95388 0.41308,1.51361 1.36567,1.85051 1.48151,0.52395 1.51746,0.4851 0.88187,-0.95297 z m 11.79353,0.77824 c 0.50595,-0.2114 0.75018,-0.48888 0.85655,-0.97317 0.19822,-0.90251 0.0177,-1.12981 -0.89744,-1.12981 -0.53741,0 -0.80242,0.11554 -0.88625,0.38638 -0.0658,0.21251 -0.28361,0.73413 -0.48408,1.15914 -0.20048,0.42502 -0.40489,0.8613 -0.45425,0.96952 -0.1034,0.22669 0.83038,0.0204 1.86547,-0.41206 z m -14.34545,-2.00237 c -0.1216,-0.31687 -1.8465,-1.64613 -2.13609,-1.64613 -0.0915,0 0.0104,0.47193 0.22651,1.04875 0.25424,0.67875 0.65565,1.23009 1.1378,1.56279 l 0.74498,0.51404 0.0717,-0.58789 c 0.0394,-0.32334 0.0192,-0.72454 -0.0449,-0.89156 z m 7.59044,-1.88418 v -3.32909 l -0.78887,-1.64012 c -0.47261,-0.9826 -0.83943,-2.13009 -0.915,-2.86229 -0.14186,-1.37451 -0.3522,-1.57231 -1.89709,-1.78406 -0.89455,-0.12262 -1.0059,-0.0814 -1.44404,0.53386 -0.41958,0.58925 -0.47419,0.95779 -0.46996,3.17172 0.005,2.654 0.47922,6.95399 0.79849,7.24141 0.10465,0.0942 0.67557,0.28897 1.2687,0.43277 1.16558,0.28259 2.67082,0.98009 2.89384,1.34095 0.421,0.68118 0.55393,-0.064 0.55393,-3.10515 z m 1.46333,2.77225 c 0.45131,-0.30628 1.37476,-0.7105 2.0521,-0.89828 0.67735,-0.18778 1.34376,-0.37659 1.48092,-0.41956 0.40883,-0.1281 0.76593,-2.64823 0.90117,-6.35982 l 0.12707,-3.48752 -0.63881,-0.67007 c -0.5625,-0.59001 -0.74101,-0.6539 -1.49442,-0.53485 -1.3346,0.2109 -1.68347,0.48211 -1.68347,1.30869 0,0.85519 -0.69824,2.98878 -1.32671,4.05396 -0.3878,0.65726 -0.4396,1.14684 -0.4396,4.15467 0,1.8753 0.0453,3.40962 0.10059,3.40962 0.0553,0 0.46984,-0.25057 0.92116,-0.55684 z m 7.95111,-0.36695 c 0.36424,-0.48212 0.94062,-2.16725 0.74128,-2.16725 -0.10222,0 -0.61585,0.32712 -1.14138,0.72694 -0.7858,0.59782 -0.96783,0.87465 -1.02482,1.55849 l -0.0693,0.83154 0.63735,-0.32959 c 0.35054,-0.18127 0.73613,-0.46034 0.85686,-0.62013 z m -20.01198,-1.83497 c -0.25421,-0.77026 -0.47959,-0.93866 -1.76668,-1.32004 -0.44741,-0.13257 -0.32437,0.0699 0.64943,1.069 0.66078,0.67792 1.24197,1.192 1.29155,1.14243 0.0496,-0.0496 -0.0289,-0.4507 -0.1743,-0.89139 z m 23.77303,-1.36093 c -0.0335,-0.0335 -0.43499,0.0538 -0.89213,0.19413 -0.87257,0.26779 -1.08332,0.52093 -1.33821,1.60728 -0.14826,0.63192 -0.0992,0.60713 1.06795,-0.53904 0.67284,-0.66078 1.19591,-1.22884 1.16239,-1.26237 z m -19.50035,-2.11761 c -0.82899,-4.91374 -0.88249,-5.82474 -0.375,-6.38551 0.34325,-0.3793 0.33656,-0.40377 -0.1104,-0.40377 -0.47452,0 -0.4758,0.0149 -0.4758,5.51974 v 5.51974 h 0.83913 0.83913 z m 14.05249,-1.26954 c 0,-5.50487 -10e-4,-5.51974 -0.4758,-5.51974 -0.44696,0 -0.45365,0.0245 -0.11039,0.40377 0.50747,0.56075 0.45527,1.47339 -0.36528,6.38551 l -0.70998,4.2502 h 0.83073 0.83072 z m -15.3122,3.91901 c -0.0766,-0.63752 -0.14186,-3.04689 -0.14507,-5.35414 l -0.006,-4.19501 -1.40951,1.44379 c -1.29194,1.32336 -1.42183,1.54434 -1.55741,2.64947 -0.13591,1.10784 0.084,3.20357 0.49066,4.67651 0.10062,0.3644 0.5565,0.85686 1.15937,1.25237 1.46852,0.96342 1.63394,0.91012 1.46781,-0.47299 z m 17.05374,0.47007 c 1.01299,-0.62971 1.12735,-0.78668 1.32703,-1.82153 0.4372,-2.26578 0.50134,-3.03938 0.34579,-4.17041 -0.14167,-1.03003 -0.30789,-1.30569 -1.56173,-2.58999 l -1.4032,-1.43729 -0.006,4.52619 c -0.004,2.48941 -0.0679,4.89877 -0.14321,5.35415 -0.16862,1.02014 -0.002,1.03621 1.44168,0.13888 z m -20.95537,-3.0747 c -0.23685,-1.14793 -0.43194,-2.73062 -0.43354,-3.51708 l -0.003,-1.42994 1.57611,-1.58671 1.57611,-1.5867 -1.07933,-0.54104 c -1.38964,-0.69661 -2.3269,-0.97443 -3.87915,-1.14989 -1.08111,-0.1222 -1.28446,-0.0854 -1.4728,0.2665 -0.12017,0.22456 -0.34058,1.80169 -0.48979,3.50474 l -0.27129,3.09646 0.92227,1.753 c 1.22114,2.32107 1.51894,2.64158 2.80273,3.01634 0.59835,0.17466 1.10912,0.30495 1.13506,0.28952 0.0259,-0.0154 -0.14663,-0.96727 -0.38348,-2.1152 z m 25.64443,1.02972 c 0.21014,-0.25706 0.79786,-1.2454 1.30606,-2.19629 l 0.92398,-1.7289 -0.15799,-2.13492 c -0.193,-2.60807 -0.48101,-4.4683 -0.7304,-4.7177 -0.33714,-0.33714 -3.42511,0.25722 -4.88856,0.94093 l -1.42171,0.6642 1.5873,1.59797 1.5873,1.59797 -0.003,1.42994 c -0.002,0.78646 -0.199,2.37381 -0.43868,3.52744 -0.23968,1.15363 -0.43709,2.11146 -0.43868,2.12852 -0.002,0.0171 0.5135,-0.12036 1.14465,-0.30538 0.63116,-0.18502 1.31949,-0.54672 1.52962,-0.80378 z m -29.95633,-9.51976 c 0.1619,-1.53871 0.1595,-1.54845 -0.54355,-2.20789 l -0.70617,-0.66237 0.10986,2.87026 c 0.0604,1.57864 0.2407,3.26768 0.40063,3.75342 l 0.29078,0.88316 0.14291,-1.54553 c 0.0786,-0.85004 0.21609,-2.24101 0.30554,-3.09105 z m 33.17937,0 0.10103,-2.87026 -0.71943,0.70371 -0.71942,0.7037 0.25788,2.09846 c 0.14184,1.15416 0.26489,2.52653 0.27344,3.04971 l 0.0156,0.95126 0.34496,-0.88316 c 0.22326,-0.57158 0.3806,-1.89577 0.44598,-3.75342 z m -19.01345,0.93835 c 0.1332,-0.39465 0.31717,-0.89144 0.40883,-1.10395 0.31401,-0.72805 -0.65783,-0.42484 -1.76915,0.55198 l -1.06757,0.93836 0.7605,0.13652 c 1.33812,0.24023 1.41831,0.21508 1.66739,-0.52291 z m 5.68919,0.48802 c 0.39199,-0.008 0.29312,-0.17079 -0.60094,-0.99356 -0.58856,-0.54163 -1.25921,-0.98479 -1.49033,-0.98479 -0.50536,0 -0.50601,0.006 -0.0904,0.80273 0.18141,0.34782 0.33044,0.8187 0.33119,1.04639 10e-4,0.34575 0.11508,0.39124 0.69132,0.27599 0.37949,-0.0759 0.9011,-0.14195 1.15915,-0.14676 z m -8.36431,-1.77767 1.54362,-1.52541 h -0.91371 c -0.85211,0 -1.00457,0.10248 -2.26119,1.51988 -0.74111,0.83593 -1.34748,1.58899 -1.34748,1.67346 0,0.0845 0.32291,0.087 0.71757,0.006 0.47689,-0.0984 1.23531,-0.65969 2.26119,-1.67345 z m 12.03493,1.65039 c 0,-0.0748 -0.60636,-0.81999 -1.34747,-1.65592 -1.25482,-1.41537 -1.41003,-1.51988 -2.25718,-1.51988 h -0.90969 l 1.52281,1.53456 c 0.90286,0.90984 1.75436,1.5705 2.09158,1.62284 0.31282,0.0486 0.64329,0.10317 0.73436,0.12136 0.0911,0.0182 0.16559,-0.0281 0.16559,-0.10296 z m -15.74548,-1.66876 c 0.43735,-0.41087 0.511,-0.69729 0.511,-1.9871 0,-1.36324 -0.0424,-1.50705 -0.44457,-1.50705 -0.24452,0 -0.63638,0.11979 -0.87081,0.26619 -0.35265,0.22023 -0.5091,0.19165 -0.90622,-0.16559 -0.82308,-0.74041 -0.84525,-1.1825 -0.18213,-3.63305 0.34505,-1.27516 0.62963,-2.4809 0.63239,-2.67941 0.004,-0.27177 -0.28733,-0.39748 -1.17825,-0.50879 -2.16277,-0.27022 -2.22533,-0.21512 -3.20711,2.82451 -0.47641,1.47499 -0.98193,3.27793 -1.12338,4.00653 -0.14144,0.72861 -0.3067,1.49861 -0.36724,1.71113 -0.0921,0.32327 0.0385,0.38638 0.79958,0.38638 1.38117,0 3.77491,0.61096 4.75681,1.21409 1.07058,0.6576 0.96203,0.65264 1.57993,0.0722 z m 18.3045,-0.16119 c 1.41722,-0.6965 3.13952,-1.12506 4.52132,-1.12506 0.79459,0 0.86615,-0.0464 0.76573,-0.49678 -0.0609,-0.27323 -0.26429,-1.1855 -0.45192,-2.02727 -0.18764,-0.84178 -0.69464,-2.59462 -1.12668,-3.8952 -0.88668,-2.66918 -0.97912,-2.74181 -3.16108,-2.48339 -0.83023,0.0983 -1.11798,0.2244 -1.11426,0.48819 0.003,0.1956 0.28734,1.39894 0.6324,2.6741 0.67302,2.48718 0.64707,2.87348 -0.24895,3.7054 -0.48098,0.44656 -0.57507,0.46547 -0.82394,0.16559 -0.15454,-0.1862 -0.51719,-0.33854 -0.80591,-0.33854 -0.50038,0 -0.52494,0.0691 -0.52494,1.4761 0,1.21168 0.086,1.56764 0.48007,1.98711 0.26404,0.28105 0.49655,0.511 0.51671,0.511 0.0202,0 0.6238,-0.28856 1.34145,-0.64125 z m -14.65097,-2.22901 c 1.31132,0 1.70999,-0.24655 1.26524,-0.78243 -0.19417,-0.23397 -0.763,-0.32152 -2.08891,-0.32152 h -1.82208 l -0.13799,0.68997 c -0.0759,0.37948 -0.138,0.99578 -0.138,1.36954 v 0.67959 l 0.83727,-0.81758 c 0.76561,-0.7476 0.94401,-0.81757 2.08447,-0.81757 z m 11.98921,-0.13632 -0.1451,-0.96763 h -1.83615 c -1.33823,0 -1.90851,0.0872 -2.10298,0.32152 -0.44648,0.53797 -0.0446,0.78243 1.28643,0.78243 1.16441,0 1.33077,0.0645 2.02927,0.7869 0.8674,0.89706 1.01492,0.71984 0.76853,-0.92322 z m -22.52378,-1.74039 c 0.32722,-1.33578 0.88296,-3.21937 1.23497,-4.18576 0.55501,-1.52368 0.59809,-1.79904 0.32428,-2.07284 -0.2738,-0.27381 -0.41781,-0.1562 -1.08406,0.88531 -0.969,1.51479 -1.82873,3.54754 -2.23258,5.27868 l -0.31331,1.34306 0.70181,0.62707 c 0.38599,0.34489 0.71804,0.61044 0.73788,0.59012 0.0198,-0.0204 0.3038,-1.12987 0.63101,-2.46564 z m 32.17747,1.4256 c 0.2092,-0.15814 -0.52732,-3.05952 -1.13126,-4.45643 -0.24819,-0.57404 -0.81105,-1.60617 -1.25081,-2.29362 -0.69334,-1.08387 -0.84149,-1.20796 -1.1153,-0.93415 -0.27381,0.2738 -0.23057,0.54916 0.3255,2.07284 0.35269,0.96639 0.91368,2.87905 1.24665,4.25036 l 0.60539,2.4933 0.57622,-0.50288 c 0.31692,-0.27659 0.65155,-0.55983 0.74361,-0.62942 z m -20.18193,-2.19837 -0.2309,-0.66236 h -1.96551 c -1.81832,0 -1.96551,0.033 -1.96551,0.44158 0,0.40329 0.14832,0.44186 1.71112,0.44495 0.94112,0.002 1.86015,0.0997 2.0423,0.21742 0.55272,0.35719 0.65022,0.2518 0.4085,-0.44159 z m 4.1494,0.24711 c 0.28087,0.2331 0.30495,0.18009 0.1699,-0.37414 -0.15518,-0.6369 -0.15115,-0.64025 0.29522,-0.24512 0.44271,0.39191 0.46559,0.38351 1.05281,-0.38638 0.58696,-0.76954 0.63442,-0.78699 2.14031,-0.78699 h 1.54004 l -0.15607,-1.15915 c -0.0858,-0.63753 -0.19358,-1.19959 -0.23941,-1.24903 -0.18682,-0.20154 -3.72134,0.44516 -4.63012,0.84716 l -0.97715,0.43224 0.007,1.72353 c 0.005,1.31224 0.062,1.62841 0.23861,1.32491 0.18811,-0.32335 0.29369,-0.34734 0.55914,-0.12703 z m 2.61777,0.19448 c 0.0751,-0.12144 0.92543,-0.2208 1.88974,-0.2208 1.60609,0 1.75328,-0.037 1.75328,-0.44157 0,-0.40851 -0.14719,-0.44158 -1.9655,-0.44158 h -1.96551 l -0.23091,0.66236 c -0.18436,0.52887 -0.16909,0.66237 0.0758,0.66237 0.16867,0 0.36808,-0.0994 0.44313,-0.22078 z m -3.86382,-1.55794 v -1.55795 l -0.98671,-0.43647 c -0.9412,-0.41634 -4.42239,-1.06034 -4.6064,-0.85216 -0.0482,0.0545 -0.15416,0.62073 -0.23551,1.25826 l -0.14791,1.15915 h 1.5419 c 1.50504,0 1.55609,0.0186 2.13605,0.77897 0.57726,0.75684 0.60681,0.76782 1.03945,0.38639 0.43277,-0.38156 0.44167,-0.37814 0.31635,0.12162 -0.0957,0.38153 -0.0495,0.48372 0.17905,0.39603 0.16941,-0.065 0.36673,-0.0232 0.4385,0.0929 0.26449,0.42794 0.32523,0.17641 0.32523,-1.34679 z m -7.20448,-0.70516 c 0.13874,-1.91827 0.11873,-2.0661 -0.3294,-2.43421 -0.26241,-0.21555 -0.53018,-0.33882 -0.59504,-0.27396 -0.0649,0.0648 -0.28186,1.16026 -0.48219,2.43421 l -0.36425,2.31626 h 0.81159 0.81159 z m 16.32696,0 c -0.16917,-1.12327 -0.38126,-2.22501 -0.4713,-2.44833 -0.15895,-0.39418 -0.17791,-0.39418 -0.6495,0 -0.45702,0.382 -0.47757,0.52689 -0.34723,2.44833 l 0.13855,2.0423 h 0.81853 0.81853 z m -9.12248,-4.67018 v -3.40064 l -0.69532,-0.24239 c -0.96762,-0.33731 -4.42734,-0.31348 -4.87598,0.0336 -0.23487,0.1817 -0.47558,1.03927 -0.70457,2.51024 -0.51526,3.30982 -0.40079,3.60619 0.30153,0.78069 0.35368,-1.4229 0.79059,-2.66266 1.01153,-2.87027 0.36438,-0.3424 0.37885,-0.3376 0.22928,0.0761 -0.22553,0.62382 -0.73631,3.36462 -0.82294,4.41579 l -0.0728,0.88316 1.70466,0.15462 c 0.93757,0.085 2.12963,0.34989 2.64903,0.58857 0.51941,0.23867 1.01889,0.44232 1.10997,0.45255 0.0911,0.0103 0.16559,-1.51168 0.16559,-3.38204 z m 1.64611,2.94066 c 0.58872,-0.26043 1.75341,-0.51395 2.68453,-0.58437 0.90456,-0.0684 1.67769,-0.18433 1.71806,-0.25758 0.0855,-0.15517 -0.60338,-4.28757 -0.85034,-5.10096 -0.15729,-0.51806 -0.14416,-0.52952 0.21368,-0.18652 0.2097,0.201 0.66144,1.49263 1.00388,2.87026 0.70232,2.8255 0.81679,2.52914 0.30153,-0.78069 -0.229,-1.47096 -0.4697,-2.32853 -0.70457,-2.51023 -0.44864,-0.34708 -3.90836,-0.37091 -4.87599,-0.0336 l -0.69531,0.24239 v 3.40063 c 0,1.87036 0.0371,3.40064 0.0823,3.40064 0.0453,0 0.55027,-0.20699 1.1222,-0.45998 z m -8.25927,-3.85872 c 0.46311,-3.01683 0.45933,-3.03732 -0.61214,-3.32303 -0.35706,-0.0952 -0.92818,0.16159 -2.09123,0.94031 -1.37089,0.91788 -1.71157,1.28205 -2.37905,2.54312 -0.42847,0.8095 -0.72936,1.51699 -0.66864,1.57219 0.26885,0.24443 3.35056,0.3111 3.42158,0.074 0.0408,-0.13628 0.28304,-0.96468 0.53826,-1.8409 0.25522,-0.87621 0.70156,-1.86924 0.99187,-2.20675 l 0.52783,-0.61363 -0.49736,1.87556 c -0.80129,3.0217 -0.83231,3.44296 -0.27235,3.69916 0.2633,0.12047 0.50758,0.19424 0.54285,0.16395 0.0353,-0.0303 0.25954,-1.3281 0.49838,-2.884 z m 15.07152,1.80464 c -0.0711,-0.37806 -0.34918,-1.57437 -0.6179,-2.65846 l -0.48858,-1.97107 0.51502,0.59875 c 0.28326,0.32931 0.72383,1.31564 0.97905,2.19185 0.25522,0.87622 0.49744,1.70462 0.53827,1.8409 0.071,0.23708 3.15272,0.17041 3.42157,-0.074 0.0607,-0.0552 -0.24017,-0.76269 -0.66864,-1.57219 -0.66748,-1.26107 -1.00815,-1.62524 -2.37905,-2.54312 -1.16304,-0.77872 -1.73417,-1.03552 -2.09123,-0.94031 -1.06509,0.28401 -1.08061,0.34216 -0.71814,2.69102 0.61315,3.97339 0.50392,3.6412 1.10693,3.36645 0.44656,-0.20347 0.51125,-0.35283 0.4027,-0.9298 z m -20.82707,-1.00978 c 0.63071,-1.23629 0.55703,-1.31428 -0.30377,-0.32156 -0.70481,0.8128 -0.81551,1.19592 -0.34556,1.19592 0.1118,0 0.404,-0.39345 0.64933,-0.87436 z m 26.1321,0.70878 c 0.0553,-0.0911 -0.23692,-0.55473 -0.64933,-1.03034 -0.86081,-0.99272 -0.93449,-0.91473 -0.30378,0.32156 0.42672,0.83644 0.73603,1.06646 0.95311,0.70878 z m -13.76339,-5.65821 v -1.18723 l -1.04875,0.0962 c -0.57681,0.0529 -1.77458,0.24742 -2.6617,0.43224 -1.36203,0.28376 -1.6454,0.42138 -1.82152,0.88461 -0.11471,0.30171 -0.20856,0.5941 -0.20856,0.64975 0,0.0557 0.77,0.0412 1.71112,-0.0321 0.94111,-0.0734 2.10854,-0.036 2.59428,0.083 1.45059,0.35537 1.43513,0.36535 1.43513,-0.9265 z m 4.1398,0.89887 c 1.12327,0.0235 2.04231,0.005 2.04231,-0.0408 0,-0.046 -0.0917,-0.32479 -0.20373,-0.6195 -0.23707,-0.62355 -1.39727,-0.98748 -3.93608,-1.23467 l -1.60072,-0.15585 v 1.1796 1.1796 l 0.82796,-0.1756 c 0.45538,-0.0966 1.747,-0.15632 2.87026,-0.13276 z m -10.10112,-0.49745 c 0,-0.37026 -0.19859,-0.39844 -0.66237,-0.094 -0.28822,0.1892 -0.28959,0.24416 -0.0105,0.42363 0.38479,0.24748 0.67291,0.10634 0.67291,-0.32965 z m 13.12268,0.14656 c 0.0672,-0.10871 -0.0344,-0.25774 -0.22582,-0.33119 -0.49209,-0.18883 -0.53264,-0.17378 -0.53264,0.19766 0,0.3581 0.55886,0.45649 0.75846,0.13353 z"
         id="path27727"
         sodipodi:nodetypes="sssssssssssssscssssscsssssssssssssssssscsssscssssssssssssscssssssssssscssssssssssssssssscccssssscccssscsssssssssscsssssscccsssscssssssscssscccsssssssscsscssccccsscsscssscsscssscccccssscccssscssssssssssssssssssssssssssssssssssssscsscssscsssssssssscssssssssscssscsscssssssscssscsssssssscssssscssscssssscssssscccssssscccsccssssssscssssccsssssssscssccsssssssscsssssscssssssssssssssssssccssssssccsssscccssssssssssss" />
      <circle
         style="fill:none;stroke:#ff0000;stroke-width:0.1;stroke-dasharray:none"
         id="path788-8-1-8-1-9-2-2-9-1-0-0"
         cx="33.668072"
         cy="-253.97852"
         r="19.954653" />
      <ellipse
         style="fill:none;stroke:#000000;stroke-width:0.1;stroke-dasharray:none;stroke-opacity:1"
         id="path1138-9-4-0-0-1-2-8-1-8-6-2"
         cx="33.668072"
         cy="-253.97852"
         rx="18.492125"
         ry="18.492126" />
      <circle
         style="fill:none;stroke:#0000ff;stroke-width:0.1;stroke-linecap:round;stroke-dasharray:none;stroke-opacity:1;paint-order:markers stroke fill"
         id="path13019-1-33-4-5-5-5-5"
         cx="33.668068"
         cy="-268.9895"
         r="2" />
    </g>
  </g>
</svg>
