<?xml version="1.0" encoding="UTF-8" standalone="no"?>
<!-- Created with Inkscape (http://www.inkscape.org/) -->

<svg
   width="41.008999mm"
   height="41.008999mm"
   viewBox="0 0 41.008999 41.008999"
   version="1.1"
   id="svg1"
   inkscape:version="1.4.2 (f4327f4, 2025-05-13)"
   sodipodi:docname="169.svg"
   xmlns:inkscape="http://www.inkscape.org/namespaces/inkscape"
   xmlns:sodipodi="http://sodipodi.sourceforge.net/DTD/sodipodi-0.dtd"
   xmlns="http://www.w3.org/2000/svg"
   xmlns:svg="http://www.w3.org/2000/svg">
  <sodipodi:namedview
     id="namedview1"
     pagecolor="#ffffff"
     bordercolor="#000000"
     borderopacity="0.25"
     inkscape:showpageshadow="2"
     inkscape:pageopacity="0.0"
     inkscape:pagecheckerboard="0"
     inkscape:deskcolor="#d1d1d1"
     inkscape:document-units="mm"
     inkscape:zoom="1.5878906"
     inkscape:cx="108.3198"
     inkscape:cy="200.26568"
     inkscape:window-width="1050"
     inkscape:window-height="1081"
     inkscape:window-x="3737"
     inkscape:window-y="0"
     inkscape:window-maximized="0"
     inkscape:current-layer="layer1" />
  <defs
     id="defs1" />
  <g
     inkscape:label="Layer 1"
     inkscape:groupmode="layer"
     id="layer1"
     transform="translate(-0.7937635,-0.79375582)">
    <g
       id="g15733"
       transform="translate(-54.492493,275.27677)">
      <path
         style="fill:#000000;stroke-width:0.1;stroke-dasharray:none"
         d="m 73.867754,-235.57888 c -4.33696,-0.45242 -8.000392,-2.21386 -11.127184,-5.35012 -3.2503,-3.26014 -4.93366,-6.85143 -5.38321,-11.48457 -0.2232,-2.30032 0.12543,-5.25691 0.8835,-7.49271 1.56248,-4.60828 5.225602,-8.71172 9.639942,-10.79872 4.652502,-2.19959 9.840412,-2.36196 14.704422,-0.46023 8.99276,3.516 13.7607,13.4948 10.85557,22.71953 -0.52743,1.67478 -1.80653,4.21638 -2.75243,5.46913 -0.43738,0.57926 -1.37711,1.61366 -2.08831,2.29867 -4.00801,3.8604 -9.24157,5.67181 -14.7323,5.09902 z m 3.86677,-2.46279 c 1.06855,-0.13399 3.35451,-0.68375 3.51858,-0.8462 0.0527,-0.0522 -0.16173,-0.54928 -0.47644,-1.10475 -0.98684,-1.74182 -1.98315,-4.0697 -2.85154,-6.66267 -0.79502,-2.37392 -0.85388,-2.5019 -1.15033,-2.50127 -0.94462,0.002 -5.38512,0.78228 -5.60246,0.98443 -0.0555,0.0516 -0.0411,0.53211 0.032,1.06786 0.19282,1.41387 0.49898,5.95618 0.5002,7.42094 l 9.2e-4,1.25765 0.64866,0.13376 c 1.84195,0.37986 3.66893,0.46483 5.38028,0.25025 z m -10.058982,-3.67152 c 0.38401,-1.61488 0.65113,-3.24283 0.76756,-4.67775 l 0.0872,-1.07485 -0.39244,0.0785 c -0.86269,0.17254 -5.698732,2.10006 -5.698732,2.27136 0,0.18033 0.940942,1.36131 1.786382,2.2421 0.91498,0.95324 2.78386,2.48885 3.029,2.48885 0.0578,0 0.24729,-0.59768 0.421,-1.32819 z m 17.923972,0.46824 c 0.65897,-0.43438 2.17568,-2.02133 3.09698,-3.24042 0.86448,-1.14386 2.03,-3.23657 1.88396,-3.38262 -0.24629,-0.24628 -3.91239,-0.99241 -5.96363,-1.21374 -2.09686,-0.22624 -4.31909,-0.31683 -4.53277,-0.18477 -0.21563,0.13326 1.45614,3.46787 2.57584,5.1379 0.75915,1.13229 2.35552,3.11543 2.51291,3.12173 0.034,9.7e-4 0.22599,-0.10577 0.42671,-0.23808 z m -22.653424,-6.2256 c 1.213142,-0.56932 3.408372,-1.46054 5.114712,-2.07646 l 0.4942,-0.17839 -0.0353,-0.98232 c -0.0439,-1.22392 -0.26501,-3.53225 -0.37592,-3.92421 l -0.0831,-0.29355 -4.12093,1.30884 -4.120922,1.30883 0.0723,0.61989 c 0.15502,1.3295 1.2891,4.87819 1.55896,4.87819 0.0483,0 0.72143,-0.29737 1.4959,-0.66082 z m 12.881064,-4.65466 c 0.098,-0.0907 -0.81986,-4.76766 -0.96397,-4.91176 -0.0469,-0.0469 -4.24821,1.49506 -4.4908,1.6483 -0.032,0.0203 0.49643,3.32865 0.66179,4.14355 l 0.0652,0.32138 2.31084,-0.5516 c 1.27096,-0.30338 2.35857,-0.59582 2.41693,-0.64987 z m 5.26843,-0.31419 c 2.16219,-0.23278 6.99004,-0.26411 9.04895,-0.0587 0.79776,0.0795 1.51471,0.105 1.59323,0.0565 0.10324,-0.0638 0.12202,-0.60467 0.0679,-1.95402 -0.14529,-3.61993 -1.11744,-6.41922 -3.20732,-9.23535 l -0.60948,-0.82127 -1.4389,0.96145 c -2.38729,1.59514 -5.29835,3.1696 -8.50406,4.59945 l -1.0111,0.45097 0.42511,1.64547 c 0.23382,0.905 0.62841,2.29874 0.87689,3.0972 0.38753,1.2453 0.48843,1.4517 0.70954,1.45149 0.14177,-1.2e-4 1.06395,-0.0871 2.04928,-0.19312 z m -18.819974,-2.60009 c 2.025912,-0.66631 5.106752,-1.86475 5.314172,-2.06719 0.26341,-0.25709 -0.96486,-4.59181 -2.09978,-7.41039 l -0.53821,-1.33664 -0.92241,0.98053 c -2.470622,2.62629 -3.882632,5.82815 -4.254742,9.64806 l -0.0889,0.91282 0.44097,-0.0828 c 0.24253,-0.0455 1.20954,-0.3355 2.14892,-0.64446 z m 11.314164,-5.1019 c 0.59459,-0.35163 1.08108,-0.71866 1.08108,-0.81562 0,-0.097 -0.0833,-0.7759 -0.18531,-1.50874 -0.24142,-1.73593 -0.67903,-5.9998 -0.68146,-6.63982 -0.003,-0.82819 -0.0565,-0.85181 -1.30608,-0.57881 -0.60571,0.13234 -1.46269,0.35957 -1.90438,0.50497 -0.91383,0.30083 -3.267142,1.44291 -3.465392,1.68179 -0.0952,0.11474 -0.0457,0.44287 0.17957,1.18767 0.50645,1.67517 1.14537,4.11086 1.61497,6.15656 0.2418,1.05329 0.466562,1.98939 0.499482,2.08022 0.0633,0.17453 2.00211,-0.78768 4.16752,-2.06822 z m 5.82416,-3.88157 c 1.48016,-1.11457 3.76526,-3.03147 4.20451,-3.52705 0.23382,-0.26382 0.23382,-0.27008 0,-0.44742 -0.43598,-0.33066 -2.81946,-1.27268 -3.88194,-1.53425 -1.23568,-0.30421 -2.6216,-0.49675 -3.61391,-0.50209 l -0.71043,-0.004 1.3e-4,0.58687 c 2.4e-4,1.03847 0.70329,6.52317 0.94218,7.3505 0.0536,0.18548 0.16819,0.14378 0.82634,-0.30065 0.42028,-0.2838 1.42517,-1.01375 2.23309,-1.62211 z"
         id="path27741" />
      <circle
         style="fill:none;stroke:#ff0000;stroke-width:0.1;stroke-dasharray:none"
         id="path788-8-1-8-1-9-2-56-8-1-7-71"
         cx="75.790756"
         cy="-253.97852"
         r="19.954653" />
      <ellipse
         style="fill:none;stroke:#000000;stroke-width:0.1;stroke-dasharray:none;stroke-opacity:1"
         id="path1138-9-4-0-0-1-2-4-9-7-82-6"
         cx="75.790756"
         cy="-253.97852"
         rx="18.492125"
         ry="18.492126" />
      <circle
         style="fill:none;stroke:#0000ff;stroke-width:0.1;stroke-linecap:round;stroke-dasharray:none;stroke-opacity:1;paint-order:markers stroke fill"
         id="path13019-1-33-6-2-4-0-0"
         cx="78.704254"
         cy="-267.40033"
         r="2" />
    </g>
  </g>
</svg>
