<?xml version="1.0" encoding="UTF-8" standalone="no"?>
<!-- Created with Inkscape (http://www.inkscape.org/) -->

<svg
   width="41.008999mm"
   height="41.008999mm"
   viewBox="0 0 41.008999 41.008999"
   version="1.1"
   id="svg1"
   inkscape:version="1.4.2 (f4327f4, 2025-05-13)"
   sodipodi:docname="170.svg"
   xmlns:inkscape="http://www.inkscape.org/namespaces/inkscape"
   xmlns:sodipodi="http://sodipodi.sourceforge.net/DTD/sodipodi-0.dtd"
   xmlns="http://www.w3.org/2000/svg"
   xmlns:svg="http://www.w3.org/2000/svg">
  <sodipodi:namedview
     id="namedview1"
     pagecolor="#ffffff"
     bordercolor="#000000"
     borderopacity="0.25"
     inkscape:showpageshadow="2"
     inkscape:pageopacity="0.0"
     inkscape:pagecheckerboard="0"
     inkscape:deskcolor="#d1d1d1"
     inkscape:document-units="mm"
     inkscape:zoom="1.5878906"
     inkscape:cx="108.3198"
     inkscape:cy="200.26568"
     inkscape:window-width="1050"
     inkscape:window-height="1081"
     inkscape:window-x="3737"
     inkscape:window-y="0"
     inkscape:window-maximized="0"
     inkscape:current-layer="layer1" />
  <defs
     id="defs1" />
  <g
     inkscape:label="Layer 1"
     inkscape:groupmode="layer"
     id="layer1"
     transform="translate(-0.7937635,-0.79375582)">
    <g
       id="g16959"
       transform="translate(114.22977,225.74526)">
      <g
         id="g130">
        <path
           style="fill:#000000;stroke-width:0.1;stroke-dasharray:none"
           d="m -95.16055,-185.21851 c -1.66072,-0.21356 -3.57876,-0.73715 -5.08335,-1.38764 -1.47291,-0.6368 -3.6139,-1.88458 -3.6139,-2.10619 0,-0.0807 1.08329,-0.14666 2.40732,-0.14666 2.01397,0 2.57565,0.0572 3.43748,0.34979 3.12541,1.0612 7.02422,1.0596 10.18204,-0.004 0.85429,-0.28779 1.43083,-0.34559 3.44701,-0.34559 1.79476,0 2.40416,0.0508 2.35558,0.19665 -0.1004,0.3012 -2.70124,1.73745 -4.17661,2.30643 -2.63961,1.01797 -6.28454,1.4809 -8.95557,1.13741 z m -9.07891,-4.24302 c -0.058,-0.058 0.0314,-0.30033 0.19885,-0.5384 0.49581,-0.70507 8.30024,-14.23415 8.30024,-14.38858 0,-0.12996 -0.87566,-1.6861 -4.26555,-7.58032 -0.68121,-1.18448 -1.42717,-2.48515 -1.65768,-2.89038 -0.23051,-0.40522 -0.64398,-1.11343 -0.91883,-1.57378 -1.05678,-1.77006 -1.61272,-2.79132 -1.55235,-2.8517 0.045,-0.045 20.19066,-0.0994 22.28275,-0.0602 0.24965,0.004 0.35463,-0.19492 -2.48542,4.7255 -5.03838,8.72907 -5.8255,10.11697 -5.825,10.27104 3.3e-4,0.0911 0.48857,0.98569 1.08506,1.98794 2.67065,4.48734 7.41828,12.7119 7.41828,12.85104 0,0.17238 -22.40834,0.21988 -22.58035,0.0478 z m -1.8023,-1.01267 c -3.12857,-2.98094 -5.24132,-7.37115 -5.7809,-12.01245 -0.51275,-4.41055 0.8103,-9.46891 3.45506,-13.20957 0.8482,-1.19967 3.14336,-3.6449 3.4203,-3.64395 0.0981,3.4e-4 0.43163,0.49043 0.7412,1.0891 l 0.56286,1.08847 -0.99078,1.0231 c -1.8073,1.86627 -2.81599,3.47011 -3.69191,5.87019 -0.79699,2.1838 -1.05174,3.93125 -0.94769,6.50074 0.10735,2.65084 0.57547,4.58138 1.63852,6.75731 0.75364,1.5426 2.183,3.55253 3.259,4.58274 0.37617,0.36017 0.68396,0.72167 0.68396,0.80334 0,0.17375 -1.17272,2.10354 -1.27831,2.10354 -0.0394,0 -0.52146,-0.42865 -1.07131,-0.95256 z m 24.47825,0.005 c -0.32593,-0.52106 -0.59259,-1.01476 -0.59259,-1.09711 0,-0.0823 0.45867,-0.64005 1.01926,-1.23932 2.15662,-2.30543 3.64009,-5.18353 4.28871,-8.32055 0.30072,-1.45443 0.34426,-2.08921 0.27216,-3.96786 -0.16754,-4.36558 -1.67348,-7.99043 -4.5631,-10.98355 l -1.09227,-1.13141 0.55268,-1.06598 c 0.30398,-0.58629 0.64344,-1.06598 0.75437,-1.06598 0.29641,0 2.56254,2.39834 3.44365,3.64455 5.37766,7.60598 4.57035,18.03441 -1.92048,24.80787 -0.72033,0.75169 -1.36821,1.36671 -1.43975,1.36671 -0.0715,0 -0.39672,-0.42631 -0.72264,-0.94737 z m -22.45996,-29.52913 c 0,-0.19578 1.45847,-1.14197 2.81838,-1.82845 1.60856,-0.812 3.74454,-1.45061 5.87887,-1.75767 1.70106,-0.24472 2.26287,-0.25858 3.89306,-0.0961 2.22179,0.22147 3.95315,0.6349 5.69423,1.35972 1.43274,0.59645 3.77097,1.97066 3.87278,2.27609 0.0528,0.15852 -0.44219,0.20695 -2.1154,0.20695 -1.97484,0 -2.32322,-0.0465 -3.63149,-0.48482 -2.01538,-0.67521 -3.28155,-0.87992 -5.39391,-0.87207 -1.99559,0.007 -3.8525,0.3291 -5.51765,0.95586 -0.93306,0.35121 -1.34086,0.40103 -3.28215,0.40103 -1.32052,0 -2.21672,-0.0649 -2.21672,-0.16056 z"
           id="path27831" />
        <circle
           style="fill:none;stroke:#ff0000;stroke-width:0.1;stroke-dasharray:none"
           id="path788-8-1-8-1-9-2-1-4-2-2-4-6"
           cx="-92.931511"
           cy="-204.44701"
           r="19.954653" />
        <ellipse
           style="fill:none;stroke:#000000;stroke-width:0.1;stroke-dasharray:none;stroke-opacity:1"
           id="path1138-9-4-0-0-1-2-6-7-2-6-6-3"
           cx="-92.931511"
           cy="-204.44701"
           rx="18.492125"
           ry="18.492126" />
        <circle
           style="fill:none;stroke:#0000ff;stroke-width:0.1;stroke-linecap:round;stroke-dasharray:none;stroke-opacity:1;paint-order:markers stroke fill"
           id="path13019-1-33-7-4-6-7-2-4"
           cx="-78.805473"
           cy="-204.62566"
           r="2" />
      </g>
    </g>
  </g>
</svg>
