<?xml version="1.0" encoding="UTF-8" standalone="no"?>
<!-- Created with Inkscape (http://www.inkscape.org/) -->

<svg
   width="41.008999mm"
   height="41.008999mm"
   viewBox="0 0 41.008999 41.008999"
   version="1.1"
   id="svg1"
   inkscape:version="1.4.2 (f4327f4, 2025-05-13)"
   sodipodi:docname="171.svg"
   xmlns:inkscape="http://www.inkscape.org/namespaces/inkscape"
   xmlns:sodipodi="http://sodipodi.sourceforge.net/DTD/sodipodi-0.dtd"
   xmlns="http://www.w3.org/2000/svg"
   xmlns:svg="http://www.w3.org/2000/svg">
  <sodipodi:namedview
     id="namedview1"
     pagecolor="#ffffff"
     bordercolor="#000000"
     borderopacity="0.25"
     inkscape:showpageshadow="2"
     inkscape:pageopacity="0.0"
     inkscape:pagecheckerboard="0"
     inkscape:deskcolor="#d1d1d1"
     inkscape:document-units="mm"
     inkscape:zoom="1.5878906"
     inkscape:cx="108.3198"
     inkscape:cy="200.26568"
     inkscape:window-width="1050"
     inkscape:window-height="1081"
     inkscape:window-x="3737"
     inkscape:window-y="0"
     inkscape:window-maximized="0"
     inkscape:current-layer="layer1" />
  <defs
     id="defs1" />
  <g
     inkscape:label="Layer 1"
     inkscape:groupmode="layer"
     id="layer1"
     transform="translate(-0.7937635,-0.79375582)">
    <g
       id="g15699"
       transform="translate(72.029773,225.51202)">
      <path
         style="fill:#000000;stroke-width:0.1;stroke-dasharray:none"
         d="m -55.42386,-187.74793 c -0.26662,-0.69482 0.50595,-2.50707 1.15931,-2.7194 0.23863,-0.0775 0.63069,0.42355 0.87123,1.11356 0.37287,1.0696 0.34035,1.32549 -0.22049,1.73559 -0.88993,0.65074 -1.5281,0.60499 -1.81005,-0.12974 z m 2.18268,-2.33911 c -0.38148,-0.62849 -1.98227,-3.48436 -3.55732,-6.34638 -2.15354,-3.91321 -3.04838,-5.20487 -3.6083,-5.2085 -0.5503,-0.003 -0.6328,-0.1166 -0.31622,-0.43317 0.23561,-0.23559 0.33749,-0.66516 0.22644,-0.95456 -0.11112,-0.28942 0.0312,-0.53194 0.31621,-0.53893 0.31319,-0.007 0.16157,-0.30975 -0.38328,-0.76367 l -0.90142,-0.75095 h 0.90253 c 0.76412,0 1.42256,-0.90753 4.29388,-5.91837 1.86525,-3.2551 3.62595,-5.91837 3.91266,-5.91837 0.74755,0 0.64741,0.39478 -0.38212,1.50642 -0.49687,0.53651 -2.12298,3.08031 -3.61356,5.65289 l -2.71016,4.67743 h 1.07249 c 0.58987,0 1.38349,0.34364 1.7636,0.76367 0.63435,0.70096 1.17601,0.76365 6.59705,0.76365 5.24805,0 5.85215,-0.0648 5.42294,-0.58197 -0.26563,-0.32008 -0.39518,-0.66978 -0.28787,-0.77709 0.28124,-0.28123 4.49568,1.35076 4.49568,1.7409 0,0.27036 -3.79303,1.90914 -4.41882,1.90914 -0.10448,0 -0.006,-0.34364 0.21868,-0.76365 0.40048,-0.74831 0.29037,-0.76366 -5.47636,-0.76366 -4.76534,0 -5.97549,0.10895 -6.36039,0.57274 -0.26144,0.31502 -1.04219,0.57275 -1.735,0.57275 h -1.25966 l 2.88521,5.18941 c 1.58687,2.85419 2.99091,5.03445 3.12012,4.84503 0.12916,-0.18943 1.30364,-0.98757 2.6099,-1.77365 3.78244,-2.27621 4.78593,-4.13828 3.16677,-5.87623 -1.0705,-1.14903 -0.67979,-3.14823 0.61524,-3.14823 0.66527,0 0.90685,0.21256 0.90685,0.79793 0,0.43884 0.38269,1.1078 0.85044,1.48655 1.12884,0.91408 1.16209,3.3685 0.0658,4.85847 -0.88496,1.20276 -6.99959,4.62818 -7.82492,4.38352 -0.29536,-0.0876 -0.19336,0.10665 0.22665,0.43169 0.58948,0.45609 0.66058,0.69543 0.31176,1.04936 -0.35029,0.35542 -0.60785,0.20158 -1.14549,-0.68417 z m 5.49739,-14.88776 c -0.13017,-0.68119 0.0511,-1.35403 0.52824,-1.96065 1.52596,-1.93996 0.82921,-3.33692 -2.83231,-5.6787 -1.50779,-0.96433 -2.80887,-1.80801 -2.89128,-1.87485 -0.0824,-0.0668 0.0471,-0.35872 0.28756,-0.64862 0.36306,-0.43746 0.98611,-0.24225 3.6642,1.14804 3.4237,1.77738 4.69952,3.09358 5.04152,5.20101 0.16107,0.9926 -0.009,1.52019 -0.78707,2.44518 -0.54587,0.64872 -0.99248,1.45538 -0.99248,1.79257 0,0.39141 -0.32906,0.61309 -0.91007,0.61309 -0.68682,0 -0.95869,-0.2544 -1.10831,-1.03707 z m -7.03953,-11.27697 c -1.45835,-1.88472 -0.57596,-3.75448 1.16951,-2.47817 0.55826,0.40822 0.59255,0.6683 0.22654,1.71824 -0.46284,1.32771 -0.81035,1.51687 -1.39605,0.75993 z"
         id="path27922"
         sodipodi:nodetypes="sssssssscsscscssssscssssssscssscssssssssssssssssscssssssssss" />
      <circle
         style="fill:none;stroke:#ff0000;stroke-width:0.1;stroke-dasharray:none"
         id="path788-8-1-8-1-9-2-6-3-4-7-6"
         cx="-50.73151"
         cy="-204.21376"
         r="19.954653" />
      <ellipse
         style="fill:none;stroke:#ff00ff;stroke-width:0.1;stroke-dasharray:none;stroke-opacity:1"
         id="path1138-9-4-0-0-1-2-0-0-6-8-9"
         cx="-50.73151"
         cy="-204.21376"
         rx="18.492125"
         ry="18.492126" />
      <circle
         style="fill:none;stroke:#0000ff;stroke-width:0.1;stroke-linecap:round;stroke-dasharray:none;stroke-opacity:1;paint-order:markers stroke fill"
         id="path13019-1-33-3-83-70-3-2"
         cx="-50.731514"
         cy="-219.22473"
         r="2" />
    </g>
  </g>
</svg>
