<?xml version="1.0" encoding="UTF-8" standalone="no"?>
<!-- Created with Inkscape (http://www.inkscape.org/) -->

<svg
   width="41.008999mm"
   height="41.008999mm"
   viewBox="0 0 41.008999 41.008999"
   version="1.1"
   id="svg1"
   inkscape:version="1.4.2 (f4327f4, 2025-05-13)"
   sodipodi:docname="172.svg"
   xmlns:inkscape="http://www.inkscape.org/namespaces/inkscape"
   xmlns:sodipodi="http://sodipodi.sourceforge.net/DTD/sodipodi-0.dtd"
   xmlns="http://www.w3.org/2000/svg"
   xmlns:svg="http://www.w3.org/2000/svg">
  <sodipodi:namedview
     id="namedview1"
     pagecolor="#ffffff"
     bordercolor="#000000"
     borderopacity="0.25"
     inkscape:showpageshadow="2"
     inkscape:pageopacity="0.0"
     inkscape:pagecheckerboard="0"
     inkscape:deskcolor="#d1d1d1"
     inkscape:document-units="mm"
     inkscape:zoom="1.5878906"
     inkscape:cx="108.3198"
     inkscape:cy="200.26568"
     inkscape:window-width="1050"
     inkscape:window-height="1081"
     inkscape:window-x="3737"
     inkscape:window-y="0"
     inkscape:window-maximized="0"
     inkscape:current-layer="layer1" />
  <defs
     id="defs1" />
  <g
     inkscape:label="Layer 1"
     inkscape:groupmode="layer"
     id="layer1"
     transform="translate(-0.7937635,-0.79375582)">
    <g
       id="g15693"
       transform="translate(29.829774,225.51202)">
      <path
         style="fill:#000000;stroke-width:0.1;stroke-dasharray:none"
         d="m -8.59666,-190.65525 c -0.0279,-0.0878 -0.10529,-0.36024 -0.17194,-0.60551 -0.0666,-0.24527 -0.13987,-0.49876 -0.1627,-0.5633 -0.0413,-0.11683 -0.13602,-0.44712 -0.2692,-0.93884 -0.0385,-0.142 -0.0972,-0.34268 -0.13064,-0.44595 -0.0333,-0.10328 -0.0965,-0.31451 -0.14035,-0.46942 -0.0438,-0.15492 -0.0967,-0.33447 -0.11753,-0.39901 -0.0208,-0.0645 -0.0739,-0.25466 -0.11801,-0.42248 -0.044,-0.16781 -0.0992,-0.3418 -0.12264,-0.38663 -0.0234,-0.0448 -0.0425,-0.11106 -0.0425,-0.14717 0,-0.0928 -0.14865,-0.55805 -0.20004,-0.62601 -0.0323,-0.0428 -0.0857,-0.0297 -0.21638,0.0529 -0.0954,0.0602 -0.43686,0.25791 -0.75872,0.43928 -0.32185,0.18135 -0.7753,0.44117 -1.00766,0.57736 -0.23236,0.13619 -0.53298,0.30865 -0.66804,0.38324 -0.13506,0.0746 -0.25776,0.15541 -0.27268,0.17955 -0.037,0.0598 -0.11548,0.0555 -0.11548,-0.006 0,-0.0277 0.0596,-0.13853 0.13239,-0.24644 0.0728,-0.10793 0.21307,-0.3441 0.31169,-0.52483 0.0986,-0.18072 0.22559,-0.41308 0.28216,-0.51636 0.0565,-0.10327 0.22262,-0.39354 0.36897,-0.64504 0.14636,-0.25151 0.26611,-0.46698 0.26611,-0.47881 0,-0.0119 0.0728,-0.14251 0.16194,-0.29036 0.0891,-0.14785 0.15194,-0.285 0.13974,-0.30475 -0.0122,-0.0198 -0.11678,-0.0502 -0.23236,-0.0675 -0.11558,-0.0173 -0.21015,-0.0503 -0.21015,-0.0732 0,-0.0229 -0.0524,-0.0416 -0.1164,-0.0416 -0.0641,0 -0.19605,-0.0286 -0.29339,-0.0637 -0.0973,-0.0351 -0.25092,-0.0854 -0.34128,-0.11203 -0.0904,-0.0266 -0.34384,-0.10242 -0.5633,-0.1685 -0.88765,-0.26735 -1.05184,-0.31297 -1.12669,-0.31297 -0.043,0 -0.094,-0.0158 -0.11333,-0.0352 -0.0194,-0.0194 -0.13377,-0.06 -0.25427,-0.0903 -0.1205,-0.0304 -0.29302,-0.0769 -0.38339,-0.1035 -0.0904,-0.0265 -0.25936,-0.0733 -0.37554,-0.10367 -0.11618,-0.0304 -0.25348,-0.0732 -0.30512,-0.095 -0.0516,-0.0218 -0.25102,-0.0821 -0.44307,-0.13403 -0.19205,-0.0519 -0.36602,-0.11131 -0.3866,-0.13188 -0.0206,-0.0206 0.0626,-0.0642 0.18488,-0.0968 0.12227,-0.0326 0.34906,-0.0929 0.50396,-0.13401 0.15492,-0.041 0.37217,-0.10333 0.4828,-0.13842 0.11062,-0.0352 0.24141,-0.0638 0.29061,-0.0638 0.0492,0 0.10103,-0.0186 0.11515,-0.0416 0.0141,-0.0228 0.12408,-0.0562 0.24437,-0.0743 0.12029,-0.018 0.25258,-0.0497 0.29397,-0.0702 0.0414,-0.0207 0.17031,-0.0615 0.28649,-0.0908 0.11617,-0.0293 0.36967,-0.0974 0.5633,-0.15135 0.19364,-0.054 0.45768,-0.12682 0.58678,-0.16192 0.12908,-0.0352 0.35089,-0.0988 0.49289,-0.1415 0.142,-0.0428 0.3638,-0.10422 0.49289,-0.13664 0.35958,-0.0903 0.44594,-0.12429 0.44594,-0.17547 0,-0.0258 -0.0739,-0.16877 -0.16429,-0.31752 -0.0904,-0.14876 -0.1643,-0.29411 -0.1643,-0.323 0,-0.0289 -0.0211,-0.0525 -0.047,-0.0525 -0.0259,0 -0.047,-0.0225 -0.047,-0.0501 0,-0.0276 -0.1373,-0.28278 -0.30512,-0.56722 -0.16782,-0.28444 -0.30513,-0.5266 -0.30513,-0.53814 0,-0.0116 -0.11704,-0.21309 -0.2601,-0.44792 -0.14306,-0.23482 -0.25198,-0.4351 -0.24203,-0.44505 0.01,-0.01 0.09,0.0307 0.17797,0.0903 0.0879,0.0596 0.25492,0.16017 0.37111,0.22349 0.11618,0.0633 0.2218,0.12589 0.23471,0.13906 0.0129,0.0132 0.13965,0.0834 0.28165,0.15615 0.142,0.0728 0.32156,0.17018 0.39901,0.21661 0.4192,0.25122 0.82446,0.47172 0.86698,0.47172 0.0266,0 0.0484,0.0211 0.0484,0.047 0,0.0258 0.02,0.0469 0.0444,0.0469 0.0245,0 0.1725,0.0751 0.32903,0.1668 0.29978,0.1757 0.37762,0.17656 0.37762,0.004 0,-0.0579 0.0189,-0.12526 0.042,-0.14978 0.0231,-0.0246 0.0639,-0.13967 0.0906,-0.25584 0.0267,-0.11618 0.10508,-0.41191 0.17404,-0.65718 0.069,-0.24528 0.15629,-0.56215 0.19405,-0.70414 0.0378,-0.142 0.0872,-0.32155 0.10975,-0.399 0.0226,-0.0774 0.0649,-0.23589 0.0941,-0.35207 0.0291,-0.11619 0.0709,-0.24511 0.0928,-0.28649 0.0219,-0.0414 0.0548,-0.17869 0.0731,-0.30513 0.0183,-0.12643 0.0494,-0.25099 0.0689,-0.27681 0.0195,-0.0258 0.058,-0.142 0.0855,-0.25818 0.0274,-0.11618 0.10604,-0.41192 0.17477,-0.65719 0.0687,-0.24527 0.13906,-0.50773 0.15631,-0.58327 0.0389,-0.17015 0.14639,-0.21881 0.14606,-0.0661 -1.3e-4,0.0602 0.0304,0.20458 0.0678,0.32075 0.0374,0.1162 0.10319,0.33799 0.14618,0.4929 0.043,0.1549 0.10754,0.37217 0.14346,0.4828 0.0359,0.11063 0.0653,0.23913 0.0653,0.28556 0,0.0465 0.0158,0.10025 0.0351,0.1196 0.0194,0.0194 0.0597,0.13376 0.0897,0.25427 0.03,0.1205 0.11099,0.4092 0.17995,0.64157 0.16774,0.56525 0.19675,0.66782 0.25881,0.91537 0.0291,0.11618 0.0701,0.24374 0.0909,0.28345 0.0208,0.0397 0.0535,0.16646 0.0725,0.28166 0.019,0.11518 0.0509,0.23055 0.0709,0.25637 0.02,0.0258 0.0511,0.13661 0.0692,0.24619 0.0181,0.1096 0.0521,0.21119 0.0757,0.22576 0.0236,0.0146 0.0428,0.078 0.0428,0.14106 0,0.0677 0.0272,0.11459 0.0666,0.11459 0.0654,0 0.35667,-0.13832 0.40279,-0.19131 0.0129,-0.0149 0.0868,-0.0612 0.16433,-0.10285 0.0775,-0.0418 0.39822,-0.22496 0.71282,-0.40721 0.3146,-0.18225 0.58262,-0.33136 0.5956,-0.33136 0.0129,0 0.27107,-0.14813 0.57356,-0.32919 0.30249,-0.18105 0.55816,-0.32101 0.56817,-0.31099 0.01,0.01 -0.0468,0.13174 -0.12625,0.27052 -0.0794,0.13877 -0.16967,0.30512 -0.20049,0.36966 -0.0308,0.0646 -0.0688,0.12792 -0.0844,0.14083 -0.0156,0.013 -0.10002,0.16078 -0.18761,0.3286 -0.0876,0.16781 -0.17077,0.31569 -0.18481,0.32859 -0.014,0.013 -0.0507,0.0763 -0.0816,0.14083 -0.0308,0.0645 -0.1175,0.22297 -0.19261,0.35207 -0.50117,0.86138 -0.48173,0.81566 -0.37194,0.87442 0.0549,0.0294 0.21217,0.0818 0.3496,0.11666 0.13742,0.0349 0.37123,0.0965 0.51957,0.13717 0.14833,0.0406 0.34364,0.0924 0.434,0.11487 0.0904,0.0225 0.36497,0.0972 0.61025,0.16605 0.24526,0.0688 0.53043,0.14605 0.63371,0.1717 0.10327,0.0256 0.23001,0.0644 0.28165,0.086 0.0516,0.0217 0.1467,0.0492 0.21124,0.0614 0.0645,0.0121 0.37084,0.0903 0.68065,0.1739 0.30982,0.0836 0.66893,0.17725 0.79802,0.20817 0.1291,0.0309 0.26639,0.0688 0.30513,0.0841 0.0387,0.0153 0.10128,0.0363 0.13903,0.0467 0.0377,0.0103 -0.15237,0.079 -0.42248,0.15259 -0.2701,0.0737 -0.52279,0.14884 -0.56151,0.1672 -0.0387,0.0183 -0.16547,0.058 -0.28166,0.088 -0.11617,0.03 -0.2746,0.0739 -0.35206,0.0975 -0.4512,0.13733 -0.68115,0.20325 -0.87628,0.25115 -0.1205,0.0296 -0.23492,0.0696 -0.25427,0.089 -0.0193,0.0194 -0.0734,0.0352 -0.12025,0.0352 -0.0468,0 -0.24923,0.0531 -0.44985,0.1181 -0.20064,0.065 -0.47042,0.14941 -0.59951,0.18771 -0.12908,0.0383 -0.33578,0.10133 -0.45932,0.14009 -0.12354,0.0388 -0.25585,0.0704 -0.29403,0.0704 -0.0382,0 -0.10609,0.0199 -0.15092,0.0441 -0.0448,0.0243 -0.1396,0.0564 -0.2106,0.0712 -0.0723,0.0152 -0.12909,0.0587 -0.12909,0.0986 0,0.0393 0.17955,0.37781 0.39901,0.75235 0.21945,0.37453 0.399,0.69933 0.399,0.72181 0,0.0225 0.0159,0.0478 0.0352,0.0566 0.0194,0.009 0.0968,0.13182 0.17205,0.27382 0.0753,0.142 0.2601,0.46344 0.41075,0.7143 0.15064,0.25086 0.27389,0.46799 0.27389,0.48252 0,0.0145 -0.0828,-0.0217 -0.18397,-0.0806 -0.58539,-0.34044 -2.38131,-1.36425 -2.58556,-1.47397 -0.0903,-0.0485 -0.178,-0.10714 -0.19478,-0.13027 -0.0687,-0.0948 -0.1621,0.0239 -0.24098,0.30611 -0.046,0.16458 -0.11467,0.40201 -0.15256,0.5276 -0.0379,0.12561 -0.0689,0.27875 -0.0689,0.34034 0,0.0616 -0.0166,0.11197 -0.0368,0.11197 -0.0202,0 -0.0603,0.11089 -0.089,0.24643 -0.0287,0.13555 -0.0745,0.32039 -0.10189,0.41075 -0.0489,0.16164 -0.0834,0.2858 -0.29982,1.07966 -0.0598,0.21946 -0.1216,0.42014 -0.13725,0.44595 -0.0157,0.0258 -0.0438,0.142 -0.0627,0.25819 -0.0189,0.11617 -0.0505,0.23236 -0.0706,0.25817 -0.0199,0.0258 -0.0516,0.142 -0.0704,0.25819 -0.0188,0.11618 -0.0501,0.23236 -0.0699,0.25817 -0.0196,0.0259 -0.0468,0.11032 -0.0604,0.18778 -0.0398,0.22759 -0.0724,0.34501 -0.11917,0.42849 -0.0365,0.0653 -0.0524,0.0516 -0.0947,-0.0812 z m -1.04084,0.004 c -0.0904,-0.0209 -0.3544,-0.0745 -0.58677,-0.11906 -0.40223,-0.0771 -0.73339,-0.16632 -0.93883,-0.25301 -0.0516,-0.0218 -0.19951,-0.0771 -0.3286,-0.12301 -0.38522,-0.13688 -1.45996,-0.71493 -1.6495,-0.88717 -0.0294,-0.0268 -0.11307,-0.0909 -0.18592,-0.1425 -0.53567,-0.37974 -1.7087,-1.58362 -1.7087,-1.75365 0,-0.0295 -0.0173,-0.0536 -0.0383,-0.0536 -0.0518,0 -0.51918,-0.79043 -0.7077,-1.19702 -0.0838,-0.18073 -0.16935,-0.36097 -0.1901,-0.40055 -0.0207,-0.0395 -0.0526,-0.13966 -0.0708,-0.22243 -0.0182,-0.0828 -0.0525,-0.16254 -0.0764,-0.17726 -0.0239,-0.0147 -0.0433,-0.067 -0.0433,-0.11626 0,-0.0492 -0.0286,-0.17998 -0.0637,-0.29061 -0.035,-0.11063 -0.0868,-0.28564 -0.11523,-0.38892 -0.0772,-0.28105 -0.218,-1.28522 -0.18484,-1.31838 0.0159,-0.0159 0.0566,-0.0108 0.0907,0.0111 0.034,0.0219 0.13574,0.0617 0.2261,0.0882 0.18111,0.0533 0.16773,0.0135 0.28374,0.84358 0.0289,0.20654 0.0718,0.38258 0.0956,0.39118 0.0237,0.009 0.0431,0.0666 0.0431,0.1289 0,0.10218 0.1333,0.5548 0.23393,0.7943 0.14526,0.34575 0.44263,0.94148 0.47645,0.95449 0.0224,0.009 0.0407,0.0377 0.0407,0.0648 0,0.0731 0.44803,0.7241 0.72003,1.04623 0.88953,1.05349 2.05278,1.86135 3.27004,2.27097 0.64158,0.21591 0.70463,0.23369 0.93884,0.26472 0.11619,0.0154 0.29573,0.0471 0.39901,0.0706 0.10327,0.0235 0.28283,0.0529 0.39901,0.0654 0.11617,0.0125 0.21552,0.0238 0.22076,0.025 0.0167,0.004 0.1073,0.35209 0.10757,0.41312 2.8e-4,0.067 -0.38719,0.0735 -0.65693,0.0108 z m 1.5491,-0.0475 c 0,-0.0525 0.0297,-0.16658 0.0661,-0.25359 0.0612,-0.14649 0.0847,-0.15983 0.31685,-0.18037 0.35047,-0.031 0.88551,-0.12045 1.02531,-0.17142 0.0645,-0.0235 0.24409,-0.0795 0.39901,-0.12432 0.1549,-0.0448 0.30171,-0.0993 0.32625,-0.12111 0.0246,-0.0218 0.0749,-0.0396 0.11204,-0.0396 0.0819,0 0.78659,-0.33829 1.11079,-0.53322 0.41587,-0.25003 1.10447,-0.78655 1.44869,-1.12872 0.37677,-0.37453 0.68717,-0.7459 0.68717,-0.82215 0,-0.028 0.019,-0.0508 0.0424,-0.0508 0.0519,0 0.45737,-0.62615 0.65385,-1.00985 0.39953,-0.78027 0.67958,-1.68628 0.7805,-2.52511 0.0288,-0.23947 0.048,-0.27786 0.15817,-0.31687 0.069,-0.0244 0.16206,-0.0656 0.2069,-0.0913 0.15745,-0.0906 0.19056,-0.0579 0.15383,0.15258 -0.0382,0.21885 -0.0491,0.29823 -0.0978,0.71587 -0.0181,0.1549 -0.0488,0.30277 -0.0682,0.32859 -0.0194,0.0258 -0.0494,0.142 -0.0667,0.25818 -0.0173,0.11619 -0.0498,0.25348 -0.0723,0.30513 -0.0225,0.0516 -0.0858,0.22902 -0.1405,0.39419 -0.10689,0.32238 -0.40794,1.01584 -0.49119,1.13142 -0.0279,0.0387 -0.091,0.14435 -0.14032,0.2347 -0.17714,0.32477 -0.72511,1.06356 -1.04001,1.4022 -0.37193,0.39995 -0.99928,0.93536 -1.40421,1.19841 -0.15491,0.10062 -0.33446,0.21838 -0.399,0.26166 -0.0998,0.0669 -0.75023,0.38826 -1.0562,0.52181 -0.40656,0.17743 -1.17456,0.38255 -1.83074,0.48892 -0.58873,0.0955 -0.68066,0.0921 -0.68066,-0.0252 z m -8.43351,-8.38005 c -0.03,-0.078 0.1032,-1.02403 0.17973,-1.27676 0.0255,-0.0839 0.0608,-0.15257 0.0786,-0.15257 0.0179,0 0.11133,0.0536 0.2078,0.11918 l 0.17538,0.11919 -0.0301,0.26809 c -0.0166,0.14745 -0.0484,0.30367 -0.0707,0.34715 -0.0223,0.0435 -0.0405,0.16541 -0.0405,0.27092 0,0.16566 -0.0177,0.19884 -0.12908,0.24285 -0.071,0.0281 -0.16577,0.0698 -0.21061,0.0928 -0.11063,0.0569 -0.12823,0.0535 -0.16062,-0.0309 z m 15.75645,0.0282 c -0.0387,-0.0215 -0.12544,-0.0607 -0.19271,-0.0871 -0.11162,-0.0437 -0.12746,-0.0841 -0.18135,-0.4627 -0.0325,-0.22817 -0.0692,-0.48056 -0.0816,-0.56087 -0.0195,-0.12677 -9.7e-4,-0.15929 0.13995,-0.24645 0.19167,-0.11846 0.26875,-0.12687 0.26875,-0.0293 0,0.0391 0.0195,0.10772 0.0434,0.15254 0.0239,0.0448 0.0673,0.2822 0.0965,0.52747 0.0292,0.24527 0.0648,0.5146 0.0792,0.59851 0.0272,0.15893 -0.0234,0.19067 -0.17227,0.10788 z m -13.62599,-0.89434 c -0.0656,-0.0516 -0.13093,-0.0939 -0.14508,-0.0939 -0.0141,0 -0.13757,-0.0659 -0.27425,-0.14656 -0.27802,-0.16398 -0.5956,-0.33903 -1.11694,-0.61565 -0.19363,-0.10275 -0.37319,-0.20339 -0.399,-0.22366 -0.0258,-0.0203 -0.16313,-0.0996 -0.30513,-0.17632 -1.34949,-0.72905 -1.58908,-0.87433 -1.62835,-0.9874 -0.0153,-0.0441 -0.0882,-0.21365 -0.16205,-0.37681 -0.0738,-0.16316 -0.13423,-0.30428 -0.13423,-0.31359 0,-0.0183 -0.19918,-0.462 -0.44257,-0.98578 -0.084,-0.18072 -0.19303,-0.42885 -0.24232,-0.55139 -0.0493,-0.12254 -0.10549,-0.22288 -0.12485,-0.22297 -0.0194,-1e-4 -0.0352,-0.0344 -0.0352,-0.076 0,-0.0418 -0.0744,-0.23481 -0.16546,-0.42913 -0.091,-0.19434 -0.15561,-0.36316 -0.14358,-0.3752 0.012,-0.0121 0.14458,0.0514 0.29455,0.14105 0.24275,0.14506 0.46091,0.26619 1.11763,0.62055 0.46989,0.25355 0.8489,0.46362 0.89189,0.49434 0.0259,0.0185 0.21593,0.1246 0.42248,0.23587 0.20655,0.11127 0.44948,0.24393 0.53984,0.2948 0.0904,0.0508 0.29103,0.16244 0.44595,0.24798 0.1549,0.0855 0.3767,0.20853 0.49288,0.27335 0.11619,0.0649 0.32743,0.17671 0.46942,0.24867 0.14201,0.0719 0.26523,0.14666 0.27384,0.16602 0.009,0.0194 0.0318,0.0353 0.0515,0.0353 0.0197,0 0.30339,0.14787 0.63039,0.3286 0.327,0.18073 0.6154,0.32859 0.64089,0.32859 0.0255,0 0.0464,0.0161 0.0464,0.0359 0,0.0198 0.0445,0.0567 0.0989,0.0821 0.0544,0.0254 0.1653,0.1639 0.24645,0.30758 0.0811,0.14368 0.23732,0.41142 0.34704,0.59497 0.10972,0.18355 0.1995,0.3479 0.1995,0.36523 0,0.0172 0.0452,0.0951 0.10054,0.17269 0.0829,0.11637 0.089,0.14847 0.0352,0.18257 -0.0359,0.0228 -0.10131,0.0416 -0.14527,0.042 -0.044,3.8e-4 -0.12846,0.0198 -0.18777,0.0429 -0.0593,0.0232 -0.24513,0.0786 -0.41295,0.12312 -0.16782,0.0445 -0.47224,0.13111 -0.67649,0.19249 -0.44949,0.13509 -0.45437,0.13523 -0.60375,0.0177 z m 11.39626,0.0625 c -0.0516,-0.0112 -0.13614,-0.0397 -0.18777,-0.0634 -0.0918,-0.0421 -0.77599,-0.2223 -1.00926,-0.26588 -0.0645,-0.0121 -0.15961,-0.0398 -0.21124,-0.0617 -0.0516,-0.0219 -0.15197,-0.0524 -0.22297,-0.0678 -0.16187,-0.0352 -0.16111,-0.0676 0.009,-0.37285 0.0758,-0.13621 0.22454,-0.41496 0.33055,-0.61944 0.20934,-0.40375 0.34265,-0.54357 0.69019,-0.72384 0.12444,-0.0646 0.23329,-0.13319 0.2419,-0.15256 0.009,-0.0194 0.0342,-0.0353 0.057,-0.0353 0.0228,0 0.25482,-0.12146 0.51563,-0.26992 0.58937,-0.33544 0.73628,-0.41784 1.14851,-0.64414 0.56173,-0.30835 1.47737,-0.82311 2.06545,-1.16114 0.30981,-0.17808 0.6,-0.34381 0.64486,-0.36828 0.11813,-0.0645 0.77833,-0.43336 0.99811,-0.55772 0.10327,-0.0584 0.2588,-0.1496 0.34562,-0.20259 l 0.15784,-0.0963 -0.0347,0.15811 c -0.0191,0.087 -0.0521,0.1905 -0.0734,0.23008 -0.0213,0.0395 -0.0735,0.15645 -0.11616,0.25972 -0.12114,0.29357 -0.14839,0.35734 -0.27647,0.64684 -0.066,0.14922 -0.12003,0.28333 -0.12003,0.29803 0,0.0147 -0.0302,0.0932 -0.067,0.17464 -0.2002,0.44187 -0.26158,0.59491 -0.26158,0.65232 0,0.0351 -0.0176,0.0837 -0.039,0.10819 -0.0214,0.0246 -0.0965,0.18191 -0.1668,0.34972 -0.21765,0.51974 -0.23864,0.56331 -0.27117,0.56331 -0.0276,0 -0.6434,0.3455 -0.83738,0.46983 -0.0387,0.0248 -0.13378,0.0771 -0.21123,0.11603 -0.0775,0.039 -0.21476,0.11577 -0.30513,0.17061 -0.0904,0.0548 -0.3016,0.17396 -0.46942,0.26469 -0.36958,0.19983 -0.62554,0.34962 -0.65719,0.38462 -0.0129,0.0143 -0.12866,0.0787 -0.25722,0.14331 -0.12855,0.0646 -0.36657,0.19657 -0.52892,0.29338 -0.16234,0.0968 -0.30649,0.17603 -0.32031,0.17603 -0.0138,0 -0.10285,0.0528 -0.19784,0.11736 -0.17444,0.11853 -0.19281,0.1229 -0.36214,0.086 z m -7.62808,-2.21181 c -0.0645,-0.0435 -0.12792,-0.0923 -0.14083,-0.10856 -0.0129,-0.0163 -0.0763,-0.0459 -0.14082,-0.0658 -0.0645,-0.0199 -0.12792,-0.0492 -0.14083,-0.0651 -0.0271,-0.0333 -0.21749,-0.14091 -0.57201,-0.32313 -0.13721,-0.0705 -0.26004,-0.13879 -0.27294,-0.1517 -0.0129,-0.0129 -0.1291,-0.0782 -0.25819,-0.14528 -0.38515,-0.19988 -0.79482,-0.42549 -0.84495,-0.46533 -0.0258,-0.0206 -0.2265,-0.13219 -0.44595,-0.24815 -0.21946,-0.11598 -0.53306,-0.28706 -0.69691,-0.38018 -0.44889,-0.25515 -0.46526,-0.24083 -0.20324,0.17767 0.0987,0.1577 0.19403,0.31841 0.21176,0.35714 0.0178,0.0387 0.0745,0.13378 0.12614,0.21123 0.0516,0.0774 0.1067,0.1778 0.12232,0.22298 0.0156,0.0452 0.0471,0.0821 0.0699,0.0821 0.0228,0 0.0414,0.0317 0.0414,0.0703 0,0.0935 -0.0573,0.0888 -0.19318,-0.0159 -0.0616,-0.0474 -0.38629,-0.24285 -0.7216,-0.43422 -0.33531,-0.19138 -0.65217,-0.37353 -0.70413,-0.40478 -0.0519,-0.0313 -0.12616,-0.0722 -0.16489,-0.0908 -0.0387,-0.0187 -0.20281,-0.11459 -0.36463,-0.21308 -0.16181,-0.0985 -0.30642,-0.17907 -0.32134,-0.17907 -0.0149,0 -0.0832,-0.0397 -0.15174,-0.0884 -0.0685,-0.0486 -0.25134,-0.15669 -0.40625,-0.24016 -0.15491,-0.0835 -0.52849,-0.29719 -0.83019,-0.47491 -0.30168,-0.17772 -0.57101,-0.32314 -0.5985,-0.32314 -0.0275,0 -0.05,-0.0211 -0.05,-0.047 0,-0.0259 -0.0225,-0.047 -0.0499,-0.047 -0.0275,0 -0.29844,-0.14651 -0.60212,-0.32559 -0.30367,-0.17907 -0.64556,-0.37619 -0.75976,-0.43804 -0.1142,-0.0618 -0.28685,-0.15827 -0.38368,-0.21425 -0.0968,-0.0559 -0.24858,-0.14289 -0.33726,-0.19314 -0.0887,-0.0503 -0.24183,-0.14157 -0.34033,-0.20294 -0.0985,-0.0614 -0.21078,-0.12614 -0.24951,-0.14396 -0.0387,-0.0178 -0.17603,-0.0954 -0.30512,-0.17217 -0.12909,-0.0769 -0.32151,-0.18448 -0.42761,-0.23912 -0.20508,-0.10561 -0.20139,-0.0992 -0.55695,-0.95771 -0.0962,-0.23237 -0.19283,-0.46473 -0.21463,-0.51637 -0.18045,-0.42732 -0.22536,-0.53672 -0.2794,-0.68066 -0.034,-0.0904 -0.11119,-0.27582 -0.1717,-0.41213 -0.0605,-0.13631 -0.11003,-0.2572 -0.11003,-0.26863 0,-0.0115 -0.0502,-0.13228 -0.11152,-0.26853 -0.40768,-0.90563 -0.4686,-1.12506 -0.27351,-0.9851 0.0439,0.0315 0.11159,0.0719 0.15032,0.0899 0.0387,0.0179 0.23567,0.13399 0.43765,0.25788 0.20199,0.12391 0.37451,0.22528 0.3834,0.22528 0.009,0 0.17693,0.0951 0.37344,0.21125 0.19651,0.11617 0.36581,0.21123 0.37621,0.21123 0.0104,0 0.30439,0.169 0.6533,0.37554 0.34891,0.20654 0.64386,0.37553 0.65547,0.37553 0.0117,0 0.30681,0.169 0.65603,0.37554 0.34922,0.20654 0.65774,0.37554 0.68559,0.37554 0.0278,0 0.0508,0.0158 0.051,0.0353 1.9e-4,0.0194 0.0478,0.0579 0.10562,0.0855 0.16796,0.0805 0.55842,0.29777 0.76243,0.42449 0.10328,0.0642 0.24587,0.14132 0.31687,0.1715 0.071,0.0302 0.12908,0.0714 0.12908,0.0915 0,0.0202 0.0232,0.0366 0.0516,0.0366 0.0284,0 0.17097,0.0708 0.31687,0.15756 0.45293,0.26905 1.14524,0.66712 1.41533,0.81379 0.23905,0.12982 0.67977,0.38259 0.84495,0.48463 0.29553,0.18254 0.71036,0.42171 0.73147,0.42171 0.0141,0 0.27644,0.14786 0.58291,0.32858 0.30647,0.18074 0.57972,0.3286 0.60721,0.3286 0.0275,0 0.0499,0.0211 0.0499,0.047 0,0.0258 0.0234,0.047 0.0519,0.047 0.0285,0 0.29788,0.14586 0.59851,0.32414 0.30063,0.17829 0.67335,0.39309 0.82825,0.47736 0.15491,0.0843 0.54246,0.30807 0.86121,0.49733 0.31876,0.18928 0.59337,0.34461 0.61025,0.34518 0.0169,5.7e-4 0.0776,0.0375 0.13479,0.0821 0.0951,0.0741 0.0999,0.0994 0.0555,0.29235 -0.0267,0.11618 -0.0657,0.24372 -0.0865,0.28345 -0.0208,0.0397 -0.0535,0.16647 -0.0725,0.28165 -0.019,0.11519 -0.0504,0.23056 -0.0698,0.25637 -0.0194,0.0258 -0.0498,0.11033 -0.0677,0.18777 -0.12361,0.53488 -0.14029,0.55406 -0.35595,0.40907 z m 3.90372,-0.0827 c -0.03,-0.0658 -0.0545,-0.17014 -0.0545,-0.23195 0,-0.0618 -0.0188,-0.12394 -0.0417,-0.13809 -0.0229,-0.0141 -0.0563,-0.10518 -0.0741,-0.20228 -0.0179,-0.0971 -0.0864,-0.34402 -0.15237,-0.5487 -0.0765,-0.23749 -0.10486,-0.39568 -0.0785,-0.43717 0.0228,-0.0358 0.19986,-0.15088 0.3935,-0.25584 0.19363,-0.10496 0.40813,-0.23038 0.47666,-0.2787 0.0685,-0.0483 0.13644,-0.0879 0.1509,-0.0879 0.0144,0 0.18287,-0.0951 0.37423,-0.21123 0.19137,-0.11619 0.37167,-0.21125 0.40067,-0.21125 0.029,0 0.0527,-0.0211 0.0527,-0.047 0,-0.0258 0.0225,-0.047 0.0499,-0.047 0.0275,0 0.30074,-0.14787 0.60721,-0.32859 0.30647,-0.18073 0.57971,-0.3286 0.60721,-0.3286 0.0275,0 0.0499,-0.0211 0.0499,-0.047 0,-0.0258 0.0225,-0.047 0.0499,-0.047 0.0275,0 0.30073,-0.14786 0.60721,-0.32859 0.30647,-0.18072 0.57971,-0.32859 0.6072,-0.32859 0.0275,0 0.0499,-0.0211 0.0499,-0.047 0,-0.0259 0.0225,-0.0469 0.05,-0.0469 0.0275,0 0.30073,-0.14787 0.60721,-0.3286 0.30647,-0.18073 0.56699,-0.3286 0.57893,-0.3286 0.0119,0 0.1559,-0.0812 0.3199,-0.18042 0.26379,-0.15959 0.47877,-0.28362 0.88496,-0.51055 0.0645,-0.036 0.22297,-0.12842 0.35207,-0.20524 0.12909,-0.0768 0.28751,-0.16494 0.35206,-0.19581 0.0646,-0.0309 0.12794,-0.0671 0.14087,-0.0806 0.0129,-0.0135 0.0868,-0.0581 0.16429,-0.0992 0.0775,-0.0411 0.35093,-0.1968 0.60776,-0.34593 0.25684,-0.14914 0.58425,-0.33447 0.7276,-0.41186 0.14335,-0.0774 0.3167,-0.18051 0.38523,-0.22913 0.0685,-0.0486 0.13682,-0.0884 0.15174,-0.0884 0.0149,0 0.16518,-0.0845 0.33391,-0.18776 0.16873,-0.10327 0.31844,-0.18777 0.3327,-0.18777 0.0142,0 0.18602,-0.0972 0.38169,-0.21596 0.36954,-0.22432 0.45883,-0.27564 0.92858,-0.53365 0.27563,-0.15139 0.42131,-0.23609 1.16348,-0.67649 0.201,-0.11928 0.38584,-0.21688 0.41074,-0.21688 0.0249,0 0.0453,-0.0198 0.0453,-0.0438 0,-0.0467 0.18135,-0.11911 0.21473,-0.0857 0.011,0.0109 -0.0329,0.12379 -0.0972,0.25074 -0.0644,0.12697 -0.1172,0.24606 -0.1173,0.26467 -2.4e-4,0.0373 -0.21217,0.52903 -0.28362,0.65793 -0.0249,0.0448 -0.0452,0.10501 -0.0452,0.13374 0,0.0287 -0.0293,0.11878 -0.0651,0.20014 -0.0358,0.0813 -0.15527,0.36972 -0.26542,0.6408 -0.11013,0.2711 -0.21812,0.51296 -0.23996,0.5375 -0.0218,0.0246 -0.0397,0.0741 -0.0397,0.11026 0,0.0361 -0.0333,0.14278 -0.0739,0.23705 -0.0407,0.0942 -0.10105,0.23476 -0.13425,0.31222 -0.0332,0.0774 -0.084,0.19363 -0.11291,0.25819 -0.0289,0.0646 -0.0725,0.17266 -0.097,0.24027 -0.0307,0.085 -0.15748,0.18587 -0.4117,0.32737 -0.20202,0.11245 -0.40956,0.23057 -0.4612,0.26251 -0.0516,0.0319 -0.12323,0.0729 -0.15911,0.0909 -0.0358,0.018 -0.40089,0.23013 -0.81114,0.47125 -0.41025,0.24113 -0.75687,0.43842 -0.77025,0.43842 -0.0134,0 -0.13991,0.0739 -0.28117,0.1643 -0.14126,0.0904 -0.26741,0.16429 -0.28033,0.16429 -0.0129,0 -0.10268,0.0501 -0.19945,0.11108 -0.0968,0.0611 -0.29175,0.17381 -0.43328,0.25049 -0.14153,0.0767 -0.51564,0.29074 -0.83135,0.4757 -0.31572,0.18495 -0.58188,0.33628 -0.59146,0.33628 -0.01,0 -0.20543,0.11328 -0.43522,0.25172 -0.22979,0.13846 -0.52342,0.30887 -0.65251,0.37872 -0.12909,0.0699 -0.29809,0.16454 -0.37554,0.21043 -0.20485,0.12139 -1.05206,0.61197 -1.24395,0.72033 -0.0904,0.051 -0.22038,0.13254 -0.28891,0.18115 -0.15055,0.1068 -0.18052,0.10978 -0.18052,0.0179 0,-0.0387 0.0197,-0.0703 0.0438,-0.0703 0.0241,0 0.0586,-0.0475 0.0768,-0.10563 0.0182,-0.0581 0.046,-0.11618 0.0619,-0.12909 0.0159,-0.0129 0.071,-0.10796 0.12243,-0.21123 0.0514,-0.10327 0.17442,-0.33238 0.27327,-0.5091 0.23468,-0.41961 0.21335,-0.443 -0.17905,-0.19635 -0.10328,0.065 -0.21945,0.1324 -0.25818,0.14997 -0.0387,0.0175 -0.26656,0.14445 -0.50629,0.28197 -0.23973,0.13752 -0.4477,0.25004 -0.46217,0.25004 -0.0145,0 -0.0914,0.0463 -0.17084,0.10292 -0.0795,0.0567 -0.24572,0.15695 -0.36939,0.22297 -0.12366,0.0661 -0.37873,0.20227 -0.56683,0.30275 -0.1881,0.10048 -0.39237,0.22196 -0.45394,0.26992 -0.0616,0.0479 -0.12918,0.0873 -0.15022,0.0873 -0.021,0 -0.16077,0.0739 -0.31052,0.16417 -0.14975,0.0903 -0.28472,0.16423 -0.29994,0.1643 -0.0152,5e-5 -0.0522,-0.0537 -0.0821,-0.11944 z m 1.23642,-3.23782 c -0.12908,-0.0622 -0.26991,-0.11373 -0.31294,-0.11466 -0.043,-9.2e-4 -0.0853,-0.0174 -0.0939,-0.0369 -0.0417,-0.0936 -1.02248,-0.35922 -1.61168,-0.43633 -0.23236,-0.0304 -0.44546,-0.0738 -0.47355,-0.0964 -0.0518,-0.0417 -0.17939,-0.41423 -0.15143,-0.44219 0.0448,-0.0448 1.45135,0.15634 1.51453,0.21657 0.0246,0.0234 0.0822,0.0426 0.1281,0.0426 0.11929,0 0.72844,0.20992 1.10369,0.38032 0.17581,0.0799 0.39831,0.18007 0.49447,0.22275 0.20561,0.0913 0.22063,0.13532 0.0599,0.17566 -0.0645,0.0162 -0.11735,0.0462 -0.11735,0.0667 0,0.028 -0.27332,0.15312 -0.3004,0.13762 -0.003,-9.7e-4 -0.11035,-0.0535 -0.23944,-0.11567 z m -6.70084,-0.0367 c -0.0967,-0.0566 -0.17597,-0.11546 -0.17603,-0.13064 -1.9e-4,-0.0387 0.44771,-0.25363 0.87974,-0.42218 0.20025,-0.0781 0.40634,-0.16079 0.45798,-0.18372 0.0898,-0.0398 0.23097,-0.0749 0.75107,-0.18633 0.45869,-0.0983 0.7076,-0.13939 0.97405,-0.16088 0.30107,-0.0243 0.3175,-0.003 0.21413,0.28334 -0.0671,0.18564 -0.0746,0.18886 -0.58384,0.25214 -0.53371,0.0663 -1.18901,0.24542 -1.64416,0.44936 -0.0813,0.0364 -0.17993,0.0662 -0.21906,0.0662 -0.0391,0 -0.0786,0.0225 -0.0878,0.05 -0.0337,0.10111 -0.3821,0.0904 -0.56608,-0.0173 z"
         id="path27936" />
      <circle
         style="fill:none;stroke:#ff0000;stroke-width:0.1;stroke-dasharray:none"
         id="path788-8-1-8-1-9-2-9-3-7-1-2-0"
         cx="-8.5315113"
         cy="-204.21376"
         r="19.954653" />
      <ellipse
         style="fill:none;stroke:#ff00ff;stroke-width:0.1;stroke-dasharray:none;stroke-opacity:1"
         id="path1138-9-4-0-0-1-2-25-0-9-29-6-2"
         cx="-8.5315113"
         cy="-204.21376"
         rx="18.492125"
         ry="18.492126" />
      <circle
         style="fill:none;stroke:#0000ff;stroke-width:0.1;stroke-linecap:round;stroke-dasharray:none;stroke-opacity:1;paint-order:markers stroke fill"
         id="path13019-1-33-5-7-7-4-6-8"
         cx="-8.5315151"
         cy="-219.22473"
         r="2" />
    </g>
  </g>
</svg>
