<?xml version="1.0" encoding="UTF-8" standalone="no"?>
<!-- Created with Inkscape (http://www.inkscape.org/) -->

<svg
   width="41.008999mm"
   height="41.008999mm"
   viewBox="0 0 41.008999 41.008999"
   version="1.1"
   id="svg1"
   inkscape:version="1.4.2 (f4327f4, 2025-05-13)"
   sodipodi:docname="173.svg"
   xmlns:inkscape="http://www.inkscape.org/namespaces/inkscape"
   xmlns:sodipodi="http://sodipodi.sourceforge.net/DTD/sodipodi-0.dtd"
   xmlns="http://www.w3.org/2000/svg"
   xmlns:svg="http://www.w3.org/2000/svg">
  <sodipodi:namedview
     id="namedview1"
     pagecolor="#ffffff"
     bordercolor="#000000"
     borderopacity="0.25"
     inkscape:showpageshadow="2"
     inkscape:pageopacity="0.0"
     inkscape:pagecheckerboard="0"
     inkscape:deskcolor="#d1d1d1"
     inkscape:document-units="mm"
     inkscape:zoom="1.5878906"
     inkscape:cx="108.3198"
     inkscape:cy="200.26568"
     inkscape:window-width="1050"
     inkscape:window-height="1081"
     inkscape:window-x="3737"
     inkscape:window-y="0"
     inkscape:window-maximized="0"
     inkscape:current-layer="layer1" />
  <defs
     id="defs1" />
  <g
     inkscape:label="Layer 1"
     inkscape:groupmode="layer"
     id="layer1"
     transform="translate(-0.7937635,-0.79375582)">
    <g
       id="g15687"
       transform="translate(-12.370026,225.51202)">
      <path
         style="fill:#000000;stroke-width:0.1;stroke-dasharray:none"
         d="m 31.67884,-185.27857 c -4.49719,-0.51876 -8.2249,-2.32143 -11.43169,-5.52822 -2.8642,-2.86421 -4.63976,-6.22415 -5.3456,-10.11559 -0.29847,-1.64556 -0.29847,-4.96556 0,-6.61112 0.70583,-3.89144 2.48139,-7.25139 5.3456,-10.11558 2.29615,-2.29615 4.46324,-3.64788 7.43144,-4.63536 2.16285,-0.71956 3.51474,-0.92931 5.98971,-0.92931 2.47495,0 3.82683,0.20975 5.9897,0.92931 2.96819,0.98748 5.13529,2.33921 7.43143,4.63536 2.8642,2.86419 4.63976,6.22414 5.3456,10.11558 0.29847,1.64556 0.29847,4.96556 0,6.61112 -0.27553,1.51903 -1.0475,3.8544 -1.70902,5.1701 -1.79484,3.56975 -5.01231,6.78723 -8.58207,8.58207 -1.31376,0.66054 -3.66407,1.43766 -5.10653,1.68844 -1.39315,0.24222 -4.12297,0.34573 -5.35857,0.2032 z m 5.32471,-2.94358 c 4.45706,-0.8816 8.42811,-3.70417 10.81287,-7.68563 3.16591,-5.28562 2.97849,-12.22046 -0.46995,-17.38933 l -0.49483,-0.7417 0.16237,-1.4568 c 0.0893,-0.80125 0.14097,-1.47393 0.1148,-1.49485 -0.0262,-0.0209 -0.63388,0.0564 -1.35046,0.17192 l -1.30288,0.20996 -0.96216,-0.72053 c -4.62527,-3.46365 -10.89076,-4.2042 -16.20092,-1.91486 -1.35152,0.58267 -2.21739,1.08894 -3.46377,2.02526 l -0.90045,0.67644 -1.17146,-0.19968 c -0.64429,-0.10982 -1.3138,-0.19968 -1.48779,-0.19968 h -0.31635 l 0.30443,1.50675 0.30444,1.50674 -0.46285,0.68637 c -0.66438,0.98523 -1.43322,2.55663 -1.84316,3.76712 -0.64574,1.90679 -0.80839,2.96245 -0.80839,5.24671 0,1.53641 0.0607,2.37905 0.22698,3.14895 1.37194,6.3536 5.99207,11.18956 12.16017,12.72824 2.21062,0.55146 4.77806,0.59764 7.14936,0.1286 z m -7.56256,-1.74149 c -0.26222,-0.44077 -0.48078,-0.92707 -0.4857,-1.08066 -0.0183,-0.57159 -0.24022,-0.79648 -1.8978,-1.92308 l -1.69668,-1.15318 -0.01,-0.54043 c -0.005,-0.29723 0.0136,-0.54038 0.0424,-0.54032 0.0288,5e-5 0.33303,0.18015 0.67598,0.40022 0.53246,0.34168 0.64894,0.37418 0.79731,0.22249 0.33038,-0.33778 0.24978,-0.46355 -0.7947,-1.24017 -0.97757,-0.72688 -1.04888,-0.81125 -1.04888,-1.24097 0,-0.34979 0.0383,-0.43135 0.15893,-0.33792 0.0874,0.0677 0.68567,0.53489 1.32947,1.03812 l 1.17056,0.91496 0.27335,-0.27335 c 0.22859,-0.22858 0.2451,-0.29983 0.10082,-0.435 -0.0949,-0.0889 -1.74586,-1.4342 -3.66881,-2.98953 -1.92295,-1.55534 -3.56947,-2.89619 -3.65894,-2.97967 -0.13111,-0.12233 9.6e-4,-0.72979 0.68073,-3.1312 0.46388,-1.63868 0.88587,-3.02499 0.93776,-3.08068 0.0774,-0.0831 6.87165,5.04268 6.87165,5.18419 0,0.0241 -0.70908,-0.1909 -1.57573,-0.47779 l -1.57574,-0.52161 -0.77214,0.23379 c -0.42467,0.12857 -0.74713,0.27424 -0.71656,0.3237 0.0306,0.0495 0.9147,0.64644 1.96475,1.32663 l 1.90917,1.23671 0.98703,-0.59682 c 0.54286,-0.32824 1.00716,-0.61535 1.03176,-0.63801 0.0246,-0.0226 -0.0528,-0.33474 -0.17193,-0.69352 -0.21191,-0.63801 -0.30772,-0.72508 -4.36739,-3.96934 -2.2829,-1.82436 -4.16562,-3.32774 -4.18382,-3.34084 -0.056,-0.0403 -1.14851,-6.09986 -1.10783,-6.14453 0.0381,-0.0418 3.88805,0.71185 3.94758,0.77274 0.0172,0.0176 0.0963,0.9474 0.17572,2.06621 0.0794,1.1188 0.17144,2.21218 0.20447,2.42974 0.0525,0.34584 0.47402,0.70908 3.35478,2.89095 1.8121,1.37247 3.32323,2.54151 3.35805,2.59785 0.0348,0.0564 0.13208,0.83388 0.21614,1.72786 l 0.15282,1.62541 -0.61501,0.62439 -0.615,0.62439 1.35485,-0.57092 c 0.74517,-0.314 1.40526,-0.57092 1.46688,-0.57092 0.0616,0 0.67446,0.22885 1.36188,0.50855 0.68743,0.2797 1.28115,0.50855 1.3194,0.50855 0.0382,0 -0.19217,-0.27176 -0.51207,-0.6039 l -0.58162,-0.6039 0.15398,-1.62902 c 0.10059,-1.06416 0.21575,-1.686 0.33214,-1.79333 0.098,-0.0904 1.59113,-1.23162 3.31814,-2.53611 1.727,-1.30449 3.16918,-2.41904 3.20486,-2.47677 0.0357,-0.0577 0.13596,-1.11641 0.22285,-2.35261 0.0869,-1.2362 0.19687,-2.31058 0.24442,-2.38752 0.0935,-0.15123 3.78357,-0.93588 3.89188,-0.82756 0.0361,0.0361 -0.17987,1.41637 -0.4799,3.06732 l -0.5455,3.00173 -4.21906,3.35805 c -4.08318,3.24991 -4.22368,3.37641 -4.36255,3.92788 -0.20093,0.79797 -0.20938,0.77665 0.46042,1.16114 0.33214,0.19066 0.77857,0.45125 0.99205,0.57908 l 0.38814,0.23243 1.95503,-1.26798 c 1.07525,-0.69739 1.97682,-1.2898 2.00348,-1.31646 0.0267,-0.0267 -0.31262,-0.15818 -0.75396,-0.29228 l -0.80241,-0.24381 -1.64862,0.54866 c -0.90674,0.30176 -1.56467,0.47139 -1.46207,0.37693 0.16775,-0.15443 5.07626,-3.95122 6.26079,-4.84278 0.26412,-0.1988 0.50878,-0.33289 0.54369,-0.29799 0.0893,0.0893 1.70953,5.77155 1.70953,5.99547 0,0.1011 -1.68436,1.54764 -3.74303,3.21453 -2.05867,1.66688 -3.74641,3.09335 -3.75054,3.16992 -0.004,0.0766 0.0939,0.23097 0.21779,0.34311 0.21003,0.19008 0.31273,0.13543 1.516,-0.80669 0.70988,-0.55582 1.31084,-1.01057 1.33548,-1.01057 0.0247,0 0.0243,0.21524 -9.6e-4,0.47832 -0.0409,0.42857 -0.13726,0.54313 -0.92667,1.10132 -1.17097,0.82798 -1.2369,0.91489 -0.92823,1.22356 0.24405,0.24405 0.2535,0.24196 0.91128,-0.20101 l 0.66462,-0.44762 -0.005,0.60727 -0.005,0.60728 -1.77474,1.19521 c -1.56061,1.051 -1.77472,1.23732 -1.77472,1.54437 0,0.19203 -0.21455,0.76805 -0.47677,1.28002 l -0.47676,0.93086 -0.1138,-1.09955 -0.11379,-1.09956 -1.03044,-0.2735 c -0.56674,-0.15043 -1.3308,-0.35876 -1.6979,-0.46295 l -0.66747,-0.18946 v -1.38367 -1.38367 l 0.85262,-0.0376 0.85263,-0.0376 0.65206,-1.51865 c 0.35863,-0.83526 0.70619,-1.53671 0.77236,-1.55876 0.0662,-0.0221 0.62678,0.13109 1.2458,0.34033 l 1.12549,0.38044 2.84355,-2.3743 c 1.56394,-1.30586 2.84151,-2.43476 2.83903,-2.50865 -0.002,-0.0739 -0.074,-0.25433 -0.15892,-0.40097 -0.14689,-0.25364 -0.28996,-0.15858 -2.93524,1.95018 l -2.78083,2.21681 -0.77901,-0.27968 c -0.99608,-0.35761 -1.04184,-0.40616 -0.84064,-0.89191 0.13923,-0.33613 0.13708,-0.4184 -0.0135,-0.51368 -0.0986,-0.0624 -0.23642,-0.11187 -0.30635,-0.10995 -0.0699,0.002 -0.58093,0.94504 -1.13558,2.09581 l -1.00845,2.09232 h -1.24823 c -0.68653,0 -1.29114,0.0143 -1.34359,0.0318 -0.073,0.0244 -2.00393,-3.57723 -2.22501,-4.15018 -0.0241,-0.0625 -0.16674,-0.0478 -0.31697,0.0326 -0.25746,0.13779 -0.26266,0.1713 -0.0904,0.58354 0.10051,0.24055 0.13924,0.46424 0.0861,0.4971 -0.19087,0.11796 -1.4932,0.58942 -1.62835,0.58948 -0.0759,4e-5 -1.36163,-0.97253 -2.85711,-2.16126 -1.49547,-1.18873 -2.75433,-2.16133 -2.79746,-2.16133 -0.13869,0 -0.38929,0.67127 -0.28424,0.76136 0.0558,0.0479 1.34736,1.13036 2.87016,2.40558 l 2.76871,2.3186 1.21235,-0.4039 c 0.66678,-0.22214 1.23047,-0.38366 1.25263,-0.35894 0.0221,0.0247 0.33984,0.74578 0.70597,1.60236 l 0.66567,1.55743 h 0.81582 0.81581 l -0.0359,1.42052 -0.0359,1.42052 -1.58922,0.43556 c -0.87407,0.23956 -1.61588,0.46133 -1.64847,0.49283 -0.0326,0.0315 -0.0898,0.52642 -0.12714,1.09985 l -0.0679,1.04258 z m 3.32394,-14.67615 -0.17731,-1.68321 -3.24199,-2.33005 -3.24199,-2.33006 -0.20459,-1.54897 c -0.11252,-0.85193 -0.24398,-1.92084 -0.29215,-2.37536 l -0.0876,-0.82639 4.03793,-1.00381 4.03793,-1.0038 4.11038,1.0038 4.11037,1.00381 -0.0869,0.82639 c -0.0478,0.45452 -0.17898,1.52343 -0.2915,2.37536 l -0.20458,1.54897 -3.24199,2.33025 -3.24199,2.33025 -0.1743,1.65123 c -0.0959,0.90818 -0.1962,1.6753 -0.22299,1.70472 -0.0268,0.0294 -0.1915,-0.0807 -0.36603,-0.24465 l -0.31735,-0.29813 -0.29425,0.27644 c -0.16184,0.15203 -0.3252,0.27643 -0.36302,0.27643 -0.0378,0 -0.14856,-0.75745 -0.24608,-1.68322 z"
         id="path27950" />
      <circle
         style="fill:none;stroke:#ff0000;stroke-width:0.1;stroke-dasharray:none"
         id="path788-8-1-8-1-9-2-2-9-1-0-0-8"
         cx="33.668289"
         cy="-204.21376"
         r="19.954653" />
      <ellipse
         style="fill:none;stroke:#000000;stroke-width:0.1;stroke-dasharray:none;stroke-opacity:1"
         id="path1138-9-4-0-0-1-2-8-1-8-6-2-4"
         cx="33.668289"
         cy="-204.21376"
         rx="18.492125"
         ry="18.492126" />
      <circle
         style="fill:none;stroke:#0000ff;stroke-width:0.1;stroke-linecap:round;stroke-dasharray:none;stroke-opacity:1;paint-order:markers stroke fill"
         id="path13019-1-33-4-5-5-5-5-5"
         cx="33.668285"
         cy="-219.22473"
         r="2" />
    </g>
  </g>
</svg>
