<?xml version="1.0" encoding="UTF-8" standalone="no"?>
<!-- Created with Inkscape (http://www.inkscape.org/) -->

<svg
   width="41.008999mm"
   height="41.008999mm"
   viewBox="0 0 41.008999 41.008999"
   version="1.1"
   id="svg1"
   inkscape:version="1.4.2 (f4327f4, 2025-05-13)"
   sodipodi:docname="174.svg"
   xmlns:inkscape="http://www.inkscape.org/namespaces/inkscape"
   xmlns:sodipodi="http://sodipodi.sourceforge.net/DTD/sodipodi-0.dtd"
   xmlns="http://www.w3.org/2000/svg"
   xmlns:svg="http://www.w3.org/2000/svg">
  <sodipodi:namedview
     id="namedview1"
     pagecolor="#ffffff"
     bordercolor="#000000"
     borderopacity="0.25"
     inkscape:showpageshadow="2"
     inkscape:pageopacity="0.0"
     inkscape:pagecheckerboard="0"
     inkscape:deskcolor="#d1d1d1"
     inkscape:document-units="mm"
     inkscape:zoom="1.5878906"
     inkscape:cx="108.3198"
     inkscape:cy="200.26568"
     inkscape:window-width="1050"
     inkscape:window-height="1081"
     inkscape:window-x="3737"
     inkscape:window-y="0"
     inkscape:window-maximized="0"
     inkscape:current-layer="layer1" />
  <defs
     id="defs1" />
  <g
     inkscape:label="Layer 1"
     inkscape:groupmode="layer"
     id="layer1"
     transform="translate(-0.7937635,-0.79375582)">
    <g
       id="g15681"
       transform="translate(-54.569825,225.38909)">
      <path
         style="fill:#000000;stroke-width:0.1;stroke-dasharray:none"
         d="m 72.630146,-187.87223 c -0.30714,-0.2416 -0.7325,-1.29426 -1.67155,-4.13668 -0.69268,-2.09669 -0.85655,-2.69044 -0.69107,-2.50388 0.23005,0.25935 1.59035,2.9274 2.15295,4.2227 0.42378,0.9757 0.86606,2.38573 0.78796,2.51209 -0.0806,0.13045 -0.34806,0.0869 -0.57829,-0.0942 z m 0.93589,0.0967 c -0.0774,-0.12523 -0.91333,-3.76476 -0.91333,-3.9765 0,-0.47458 0.40371,0.83947 0.90372,2.94154 0.12017,0.5052 0.21849,0.96164 0.21849,1.01431 0,0.11364 -0.14269,0.12774 -0.20888,0.0206 z m 4.13276,-0.11912 c 0.387,-1.76542 0.94936,-3.76341 1.09944,-3.90617 0.0632,-0.0601 0.0724,0.0187 0.0302,0.25897 -0.10627,0.60633 -0.83647,3.5314 -0.92099,3.68933 -0.11617,0.21707 -0.25918,0.1882 -0.20869,-0.0421 z m 0.56498,0.0265 c 0,-0.65831 1.48586,-4.03264 2.6377,-5.99015 0.71456,-1.21437 0.63051,-0.861 -0.66396,2.7912 -0.95264,2.68775 -1.09946,3.02969 -1.38752,3.23145 -0.27685,0.19392 -0.58622,0.17676 -0.58622,-0.0325 z m -6.50047,-4.59156 c -0.67295,-1.07978 -2.04467,-4.07555 -1.92221,-4.19801 0.0691,-0.0691 0.008,-0.16811 1.19739,1.92828 1.08834,1.9177 1.34393,2.50774 1.1987,2.76726 -0.0618,0.11033 -0.15807,0.009 -0.47388,-0.49753 z m 7.45004,0.31766 c 0,-0.18216 0.13781,-0.55974 0.35447,-0.97115 0.52778,-1.00222 2.07815,-3.5782 2.12523,-3.53112 0.21053,0.21052 -2.0972,4.8003 -2.41358,4.8003 -0.0364,0 -0.0661,-0.13411 -0.0661,-0.29803 z m -8.49843,-4.21241 c -0.077,-0.25003 -0.11796,-1.34284 -0.0622,-1.66081 0.0824,-0.47017 0.25141,-0.4729 0.75724,-0.0122 l 0.4227,0.38497 -0.27521,0.28793 c -0.15136,0.15837 -0.35392,0.47246 -0.45013,0.69798 -0.17072,0.40016 -0.32547,0.51933 -0.39237,0.30213 z m 9.67742,-0.33871 c -0.11322,-0.25288 -0.30827,-0.54693 -0.43345,-0.65345 -0.12518,-0.10651 -0.2276,-0.22914 -0.2276,-0.27251 0,-0.14395 0.86243,-0.80431 0.98767,-0.75626 0.0674,0.0258 0.1486,0.2213 0.18055,0.43434 0.0751,0.50097 -0.0563,1.62671 -0.19524,1.67262 -0.0611,0.0202 -0.19333,-0.15984 -0.31193,-0.42474 z m -10.40156,-0.23054 c -0.3292,-0.61766 -0.87837,-2.23192 -0.87462,-2.57093 0.003,-0.24171 0.006,-0.24364 0.14027,-0.0754 0.13393,0.16812 0.13595,0.16699 0.0772,-0.0432 -0.11447,-0.40934 -0.16173,-1.0633 -0.0729,-1.00838 0.047,0.029 0.30934,0.40605 0.58307,0.83783 0.49333,0.7782 0.49664,0.78779 0.37904,1.09679 -0.14833,0.38972 -0.26824,0.43419 -0.4177,0.15492 -0.24676,-0.46106 -0.15863,-0.12644 0.16043,0.60921 0.34481,0.79498 0.52201,1.50363 0.376,1.50363 -0.045,0 -0.20289,-0.22703 -0.35079,-0.50451 z m -0.52153,-2.31614 c -0.10177,-0.17499 -0.12634,-0.11898 -0.043,0.0981 0.0296,0.0771 0.072,0.12208 0.0942,0.0999 0.0222,-0.0222 -6.5e-4,-0.11131 -0.0512,-0.19796 z m 11.72956,2.58028 c 0,-0.30626 0.24442,-1.03381 0.5497,-1.63625 0.26746,-0.52782 0.29963,-0.70346 0.0555,-0.30307 -0.0941,0.15431 -0.20911,0.28056 -0.25561,0.28056 -0.12093,0 -0.26328,-0.29697 -0.26328,-0.54924 0,-0.21037 0.9293,-1.77362 1.05747,-1.77887 0.12112,-0.005 0.0653,0.51808 -0.1079,1.01082 -0.21777,0.61959 -0.21309,0.67279 0.0209,0.23823 0.26772,-0.49711 0.29623,-0.19751 0.0597,0.62718 -0.20871,0.72762 -0.86271,2.20433 -1.01905,2.30095 -0.0639,0.0395 -0.0975,-0.0261 -0.0975,-0.19031 z m -7.33756,-0.22466 c -1.14963,-0.48127 -2.73775,-1.38942 -3.01034,-1.72143 -0.21669,-0.26391 0.12431,-0.16835 1.27828,0.35822 1.04634,0.47745 2.50897,1.35203 2.50897,1.50024 0,0.1192 -0.28486,0.069 -0.77691,-0.13703 z m 3.21055,-0.0787 c 0.49206,-0.4416 3.21356,-1.78707 3.61474,-1.78707 0.30673,0 -0.7761,0.77183 -1.81736,1.29539 -0.61459,0.30903 -1.45304,0.63498 -1.8571,0.72195 l -0.25897,0.0558 z m -2.28575,-0.34114 c -0.0719,-0.15431 -0.3449,-0.80498 -0.60663,-1.44593 -0.26173,-0.64096 -0.65209,-1.55256 -0.86746,-2.02578 -0.21538,-0.47321 -0.37511,-0.87687 -0.35497,-0.89701 0.0511,-0.0511 0.75761,0.53557 1.38883,1.15314 0.44892,0.43921 0.57596,0.63605 0.83573,1.29486 0.38568,0.97814 0.43353,1.22019 0.3312,1.67559 -0.10567,0.47031 -0.14402,0.50183 -0.36758,0.30214 -0.18321,-0.16363 -0.18418,-0.1634 -0.1242,0.0293 0.0925,0.2973 -0.0868,0.23138 -0.23492,-0.0863 z m 1.62742,0.0863 c 0.0601,-0.19318 0.0594,-0.19333 -0.12571,-0.0279 -0.26167,0.23375 -0.3782,0.0831 -0.42384,-0.54777 -0.0317,-0.43845 9.8e-4,-0.59326 0.22294,-1.05876 0.14304,-0.29987 0.30589,-0.69081 0.36189,-0.86875 0.056,-0.17795 0.2809,-0.50262 0.49978,-0.7215 0.44355,-0.44355 1.49578,-1.26346 1.55082,-1.20842 0.0195,0.0195 -0.0404,0.18489 -0.13316,0.36753 -0.0927,0.18265 -0.42849,0.95362 -0.74614,1.71327 -0.8011,1.91586 -1.09526,2.54657 -1.18767,2.54657 -0.0437,0 -0.0522,-0.0874 -0.0189,-0.19423 z m -2.64318,-0.64111 c -0.31747,-0.15603 -0.74692,-0.51345 -1.32241,-1.10063 -0.92735,-0.94617 -1.48103,-1.5864 -1.42254,-1.64489 0.0205,-0.0205 0.34641,0.10094 0.72437,0.26976 1.24567,0.55639 1.4577,0.62649 1.6201,0.53561 0.12831,-0.0718 0.18374,-0.01 0.3729,0.41759 0.27316,0.61707 0.63648,1.57469 0.63648,1.67758 0,0.1194 -0.10486,0.0927 -0.6089,-0.15502 z m 3.34454,0.17556 c -0.0802,-0.0802 0.65728,-1.95936 0.85534,-2.17964 0.0168,-0.0186 0.0892,0.0148 0.16095,0.0744 0.10774,0.0894 0.31005,0.0297 1.16027,-0.34259 0.56639,-0.24798 1.07836,-0.43469 1.13773,-0.4149 0.15453,0.0515 -1.58343,1.89878 -2.18036,2.31751 -0.53097,0.37245 -1.05482,0.62432 -1.13393,0.54521 z m -5.50053,-0.94212 c -0.68705,-0.30616 -1.32307,-0.64395 -1.41336,-0.75066 -0.41242,-0.48735 -1.14697,-2.53725 -0.97192,-2.7123 0.0853,-0.0853 0.9737,0.80423 2.37319,2.37614 1.16114,1.3042 1.35678,1.54797 1.29329,1.61146 -0.0176,0.0176 -0.59414,-0.21849 -1.2812,-0.52464 z m 6.90846,0.4947 c 0,-0.21108 3.75223,-4.06074 3.85642,-3.95655 0.0268,0.0268 -0.0188,0.32455 -0.10142,0.66161 -0.17852,0.72846 -0.71489,1.86661 -1.00308,2.12852 -0.18338,0.16665 -2.50303,1.23773 -2.68056,1.23773 -0.0392,0 -0.0714,-0.0321 -0.0714,-0.0713 z m -3.20476,-1.09829 c -0.0955,-0.21598 -0.18076,-0.49761 -0.18938,-0.62585 -0.0156,-0.23263 -0.0143,-0.23317 0.5886,-0.23317 h 0.60427 l -0.0238,0.29428 c -0.0364,0.45066 -0.35464,0.95742 -0.60125,0.95742 -0.16001,0 -0.24273,-0.0858 -0.37847,-0.39268 z m -3.69154,-1.35817 c -1.05851,-0.53317 -1.24018,-0.79212 -2.95046,-4.20552 -2.33983,-4.66988 -3.48291,-8.27643 -3.48843,-11.00634 -0.002,-1.09117 0.11823,-1.41909 0.74086,-2.01737 0.32563,-0.31289 0.95762,-0.58219 1.12439,-0.47912 0.0356,0.022 0.0425,0.30574 0.0153,0.63049 -0.12629,1.50636 0.5969,4.23783 2.15106,8.12451 0.33224,0.83086 1.00401,2.61778 1.49282,3.97091 0.48882,1.35313 0.91596,2.52822 0.9492,2.61131 0.0332,0.0831 0.0235,0.15107 -0.0216,0.15107 -0.09,0 -0.90718,-1.68058 -1.75296,-3.60502 -0.29759,-0.67711 -0.55916,-1.21301 -0.58127,-1.1909 -0.0979,0.0979 0.71346,1.93805 1.93573,4.3903 0.7289,1.46239 1.32528,2.71518 1.32528,2.78396 0,0.20032 -0.34251,0.14264 -0.93992,-0.15828 z m 7.32791,0.15454 c 0,-0.0708 0.69582,-1.51784 1.54625,-3.21557 1.43764,-2.86997 1.88685,-3.86919 1.78518,-3.97087 -0.0226,-0.0225 -0.0969,0.0895 -0.16525,0.2489 -0.36102,0.84223 -1.50218,3.2317 -1.84209,3.85715 -0.37978,0.6988 -0.56593,0.89833 -0.3676,0.39404 0.33483,-0.85142 1.1081,-3.00455 1.08672,-3.02593 -0.0141,-0.0141 -0.21311,0.44947 -0.44223,1.03016 -0.52147,1.32163 -1.48646,3.34341 -1.59581,3.34341 -0.11986,0 0.10673,-0.70028 0.72228,-2.2322 0.72137,-1.79524 1.50412,-3.51912 1.70353,-3.75173 l 0.16139,-0.18826 -0.0564,0.25898 c -0.031,0.14243 -0.14866,0.50772 -0.26141,0.81176 -0.11276,0.30403 -0.1906,0.5672 -0.17299,0.58481 0.0176,0.0176 0.15908,-0.30883 0.31437,-0.72544 0.15529,-0.4166 0.64282,-1.65091 1.08339,-2.74292 1.58111,-3.91896 2.10995,-5.88364 2.11125,-7.84353 l 6.5e-4,-0.76494 0.32372,0.0605 c 0.3569,0.0667 0.42972,0.11105 0.91672,0.55833 0.52174,0.47919 0.74348,1.03478 0.7426,1.86063 -0.002,1.47848 -0.36708,3.24255 -1.12852,5.44689 -0.74674,2.16174 -1.82539,4.47877 -3.53037,7.58352 -0.93469,1.70205 -1.08305,1.86802 -2.08809,2.3359 -0.52406,0.24397 -0.84713,0.27693 -0.84713,0.0864 z m -4.27304,-0.1167 c -0.3969,-0.24296 -1.61566,-1.5718 -2.07419,-2.26152 -0.40179,-0.60438 -1.2493,-2.54324 -1.2493,-2.85805 0,-0.32191 -0.0381,-0.34892 1.86687,1.32244 1.36225,1.19517 1.41849,1.22291 2.49251,1.22934 0.77782,0.005 0.90595,-0.0178 1.29486,-0.22693 0.23739,-0.12766 0.96525,-0.71482 1.61746,-1.3048 1.21666,-1.10057 1.53337,-1.3059 1.53337,-0.99411 0,0.1921 -0.48359,1.39305 -0.86598,2.15056 -0.29937,0.59305 -1.29987,1.81155 -2.10872,2.5682 l -0.57091,0.53404 -0.8385,-3.2e-4 c -0.66165,-2.6e-4 -0.89312,-0.0338 -1.09747,-0.15885 z m 6.86277,-1.13824 c 0,-0.18734 0.77115,-1.72394 0.86517,-1.72394 0.18511,0 0.082,0.66048 -0.16241,1.04058 -0.29733,0.46233 -0.70276,0.85657 -0.70276,0.68336 z m -11.92515,-0.31806 c -0.41356,-0.43254 -0.50608,-0.63062 -0.50279,-1.07648 0.003,-0.35505 0.009,-0.36444 0.1392,-0.19991 0.20657,0.26136 0.74193,1.40562 0.70686,1.51082 -0.0169,0.0508 -0.17141,-0.0547 -0.34327,-0.23443 z m 2.4843,-0.52105 c -0.6372,-1.27148 -2.09017,-5.10869 -2.01222,-5.31416 0.0214,-0.0565 0.23572,0.31266 0.47622,0.82029 0.78352,1.65384 2.15163,5.24921 1.99743,5.24921 -0.0456,0 -0.25323,-0.33991 -0.46143,-0.75534 z m 3.12681,-0.99522 c -0.76579,-0.58409 -1.19441,-1.43132 -1.32988,-2.62872 -0.0517,-0.45717 -0.0367,-0.53394 0.14592,-0.7438 0.2674,-0.30734 1.03668,-0.43838 2.10097,-0.3579 0.85806,0.0649 1.15867,0.1789 1.33364,0.50583 0.22061,0.41221 -0.0443,1.6778 -0.5024,2.39996 -0.26088,0.41127 -1.05439,1.10767 -1.26213,1.10767 -0.0633,0 -0.28202,-0.12737 -0.48612,-0.28304 z m -1.67095,-0.67909 c -1.3396,-1.13134 -1.94229,-1.72966 -1.94229,-1.9282 0,-0.4012 1.514,-1.39819 2.00648,-1.32129 0.16987,0.0265 0.14914,0.0545 -0.16212,0.21855 -0.53283,0.28087 -0.8948,0.67839 -0.8948,0.98265 0,0.36967 0.18186,0.67298 0.95446,1.59189 0.37713,0.44856 0.6857,0.83469 0.6857,0.85807 0,0.10746 -0.16795,0.003 -0.64743,-0.40167 z m 3.66878,0.39948 c 0,-0.0246 0.32795,-0.41766 0.72878,-0.87349 0.7347,-0.8355 0.9977,-1.24939 0.9977,-1.57004 0,-0.25186 -0.36198,-0.64482 -0.8157,-0.88553 -0.45891,-0.24345 -0.51117,-0.38342 -0.11345,-0.30388 0.61046,0.12209 1.76194,0.89333 1.84846,1.23807 0.0483,0.19238 -0.0337,0.30095 -0.66165,0.87638 -1.16805,1.07032 -1.98414,1.69488 -1.98414,1.51849 z m 0.61955,-1.43931 c 0.17209,-0.45017 0.17716,-0.8573 0.0193,-1.55317 -0.0454,-0.20033 -0.0292,-0.22554 0.1204,-0.18644 0.27392,0.0716 0.62404,0.49366 0.67587,0.81466 0.0422,0.26126 -0.003,0.35174 -0.40402,0.81197 -0.24831,0.28487 -0.48192,0.52994 -0.51913,0.5446 -0.0372,0.0147 0.0112,-0.17957 0.10756,-0.43162 z m -4.70664,-0.17495 c -0.44333,-0.57892 -0.46578,-0.75445 -0.15216,-1.18973 0.14784,-0.20519 0.53024,-0.45747 0.5951,-0.39261 0.0167,0.0167 -0.009,0.24489 -0.0577,0.50702 -0.0837,0.45279 -0.031,1.10876 0.11739,1.46101 0.13264,0.31487 -0.10691,0.13105 -0.50263,-0.38569 z m -2.1276,-0.84321 c -0.19857,-0.37104 -0.0805,-0.54406 0.60362,-0.88465 0.67446,-0.33577 1.20975,-0.45698 0.77691,-0.17592 -0.11869,0.0771 -0.45586,0.38835 -0.74926,0.69174 -0.50856,0.52586 -0.53802,0.54307 -0.63127,0.36883 z m 8.93169,-0.29331 c -0.23617,-0.24804 -0.56537,-0.55781 -0.73154,-0.68837 l -0.30214,-0.2374 0.25898,0.0532 c 0.33732,0.0693 1.16313,0.44523 1.3503,0.61462 0.11835,0.1071 0.12959,0.1809 0.0586,0.38459 -0.0483,0.13862 -0.11417,0.26831 -0.14632,0.28817 -0.0321,0.0199 -0.25169,-0.16681 -0.48787,-0.41485 z m -9.56412,-6.91201 c -0.3158,-0.39721 -1.02939,-1.14329 -1.58576,-1.65795 -0.55636,-0.51467 -1.12021,-1.03959 -1.25299,-1.16651 -0.21854,-0.20889 -0.2413,-0.28658 -0.24024,-0.82008 10e-4,-0.72039 0.0641,-0.97778 0.23813,-0.97778 0.51865,0 1.90289,1.8065 2.94729,3.84636 0.46481,0.90783 0.64152,1.39077 0.53336,1.45762 -0.0361,0.0223 -0.32398,-0.28445 -0.63979,-0.68166 z m 10.12051,0.68662 c -0.034,-0.22661 0.0552,-0.4474 0.5809,-1.43744 1.05299,-1.98316 2.08342,-3.38934 2.7446,-3.74541 0.38907,-0.20953 0.43622,-0.15166 0.50868,0.62424 0.0693,0.74202 -0.0127,0.88463 -0.99719,1.73396 -0.82211,0.70926 -1.82073,1.71493 -2.46196,2.47935 -0.19914,0.23739 -0.3679,0.39277 -0.37503,0.3453 z"
         id="path27966"
         sodipodi:nodetypes="sssssssssssssscsssssssssssssssssssssscsssssssssssscssssssssscsscssssssssssssssssssssscssssssssssssssscsssssssssssssssssssssssssssssssssssssscsssssscssssssssssssscsssssssssscsssssccsscsssccsssssssssscssssssssssssssssssssssssssssssssssssssssssssscsssssssssssssssscsssssssscsssssssssss" />
      <circle
         style="fill:none;stroke:#ff0000;stroke-width:0.1;stroke-dasharray:none"
         id="path788-8-1-8-1-9-2-56-8-1-7-71-8"
         cx="75.868088"
         cy="-204.09084"
         r="19.954653" />
      <ellipse
         style="fill:none;stroke:#ff00ff;stroke-width:0.1;stroke-dasharray:none;stroke-opacity:1"
         id="path1138-9-4-0-0-1-2-4-9-7-82-6-7"
         cx="75.868088"
         cy="-204.09084"
         rx="18.492125"
         ry="18.492126" />
      <circle
         style="fill:none;stroke:#0000ff;stroke-width:0.1;stroke-linecap:round;stroke-dasharray:none;stroke-opacity:1;paint-order:markers stroke fill"
         id="path13019-1-33-6-2-4-0-0-6"
         cx="75.868088"
         cy="-219.10181"
         r="2" />
    </g>
  </g>
</svg>
