<?xml version="1.0" encoding="UTF-8" standalone="no"?>
<!-- Created with Inkscape (http://www.inkscape.org/) -->

<svg
   width="41.008999mm"
   height="41.008999mm"
   viewBox="0 0 41.008999 41.009"
   version="1.1"
   id="svg1"
   inkscape:version="1.4.2 (f4327f4, 2025-05-13)"
   sodipodi:docname="263.svg"
   xmlns:inkscape="http://www.inkscape.org/namespaces/inkscape"
   xmlns:sodipodi="http://sodipodi.sourceforge.net/DTD/sodipodi-0.dtd"
   xmlns="http://www.w3.org/2000/svg"
   xmlns:svg="http://www.w3.org/2000/svg">
  <sodipodi:namedview
     id="namedview1"
     pagecolor="#ffffff"
     bordercolor="#000000"
     borderopacity="0.25"
     inkscape:showpageshadow="2"
     inkscape:pageopacity="0.0"
     inkscape:pagecheckerboard="0"
     inkscape:deskcolor="#d1d1d1"
     inkscape:document-units="mm"
     inkscape:zoom="2.8970539"
     inkscape:cx="84.223494"
     inkscape:cy="68.000116"
     inkscape:window-width="1168"
     inkscape:window-height="1081"
     inkscape:window-x="3737"
     inkscape:window-y="0"
     inkscape:window-maximized="0"
     inkscape:current-layer="layer1" />
  <defs
     id="defs1" />
  <g
     inkscape:label="Layer 1"
     inkscape:groupmode="layer"
     id="layer1"
     transform="translate(-114.0891,-77.774176)">
    <g
       id="g21"
       transform="translate(-567.24045,302.61289)">
      <circle
         style="fill:none;stroke:#ff0000;stroke-width:0.1;stroke-dasharray:none"
         id="path788-8-1-8-1-9-2-6-3-4-7-1-6-1-0-8-8-4-1"
         cx="701.83405"
         cy="-204.33421"
         r="19.954653" />
      <circle
         style="fill:none;stroke:#0000ff;stroke-width:0.1;stroke-linecap:round;stroke-dasharray:none;stroke-opacity:1;paint-order:markers stroke fill"
         id="path13019-1-33-3-83-70-3-7-5-9-5-4-3-1-1"
         cx="701.83405"
         cy="-219.34518"
         r="2" />
      <path
         style="fill:#000000;stroke-width:0.1;stroke-dasharray:none"
         d="m 703.15547,-186.99323 c -0.92301,-0.0976 -1.28048,-0.20492 -1.54869,-0.46489 l -0.2711,-0.26275 -0.1857,0.23607 c -0.2143,0.27245 -0.63563,0.35943 -1.79019,0.36958 -0.86519,0.008 -1.37271,-0.1103 -1.6729,-0.38866 -0.31235,-0.28963 -0.34713,-0.50119 -0.28217,-1.71632 0.0311,-0.58216 0.0416,-1.05846 0.0232,-1.05846 -0.0184,0 -0.21441,0.10117 -0.43566,0.22482 -0.36187,0.20226 -0.46834,0.22084 -1.06022,0.185 -0.82885,-0.0502 -1.46214,-0.31407 -1.85488,-0.77289 -0.43773,-0.51139 -0.45464,-0.82392 -0.12717,-2.35024 0.11287,-0.526 0.11214,-0.53075 -0.13789,-0.89951 -0.20528,-0.30275 -0.25136,-0.46024 -0.25136,-0.85902 0,-0.66738 0.0939,-0.74104 0.6499,-0.50997 0.24408,0.10144 0.47672,0.18444 0.51696,0.18444 0.0402,0 0.20789,-0.26022 0.37255,-0.57826 0.16466,-0.31804 0.5121,-0.94303 0.77208,-1.38887 0.25999,-0.44584 0.4727,-0.86522 0.4727,-0.93196 0,-0.1221 -0.18811,-0.11534 -1.217,0.0437 -0.27348,0.0423 -0.35365,0.0129 -0.57826,-0.21168 -0.31569,-0.31568 -0.33087,-0.54902 -0.0501,-0.76987 l 0.21064,-0.16569 -0.2144,-0.29028 c -0.25361,-0.34339 -0.22274,-0.62214 0.10096,-0.91137 0.27273,-0.24369 0.46675,-0.24003 1.10121,0.0208 0.28024,0.11521 0.51871,0.20029 0.52993,0.18907 0.0112,-0.0112 -0.14845,-0.28283 -0.35482,-0.60356 -0.46713,-0.72601 -0.66792,-1.32478 -0.93811,-2.7974 -0.59541,-3.24513 -0.723,-4.40094 -0.65256,-5.91105 0.067,-1.43626 0.15266,-1.68835 0.98971,-2.91269 0.69135,-1.01121 0.66686,-0.99041 0.88814,-0.75436 0.10185,0.10864 0.24216,0.27462 0.3118,0.36886 0.16634,0.22508 0.25749,0.0918 0.37737,-0.55173 0.2972,-1.59537 0.45361,-2.19537 0.61795,-2.37029 0.4947,-0.5266 2.11679,-0.99074 3.51818,-1.00669 0.54987,-0.006 1.01968,0.009 1.04404,0.0329 0.0243,0.0243 0.1274,0.64102 0.22899,1.37038 0.10159,0.72935 0.20142,1.34318 0.22184,1.36407 0.0204,0.0209 0.16975,-0.0985 0.33184,-0.26543 0.36797,-0.37885 1.2055,-0.67098 2.0994,-0.73228 0.57799,-0.0396 0.71134,-0.0168 1.32785,0.22771 1.16136,0.46055 1.66942,0.91124 1.67019,1.48161 3.3e-4,0.26365 0.096,0.30147 0.26064,0.10308 0.0605,-0.0729 0.22432,-0.21392 0.36408,-0.31343 0.24762,-0.17633 0.26134,-0.17705 0.53746,-0.0284 0.27679,0.14905 0.29455,0.14796 0.76509,-0.0471 0.55942,-0.23187 0.68806,-0.19147 0.92852,0.29159 0.15389,0.30914 0.15351,0.32085 -0.0193,0.60041 -0.0969,0.15681 -0.48431,0.49416 -0.86089,0.74965 -0.37657,0.25549 -0.68594,0.5068 -0.68749,0.55845 -10e-4,0.0516 0.14882,0.40421 0.33415,0.78344 0.6696,1.37025 0.69953,1.96112 0.18018,3.55746 -0.19389,0.596 -0.52468,1.86588 -0.73507,2.82195 -0.54423,2.47313 -0.76279,3.0644 -1.4281,3.86356 -0.1886,0.22654 -0.32909,0.42488 -0.31219,0.44075 0.0169,0.0158 0.17581,0.089 0.35317,0.16249 0.17735,0.0735 0.34558,0.19389 0.37384,0.26754 0.0705,0.18385 -0.1091,0.58807 -0.54414,1.22438 l -0.36695,0.5367 0.34052,0.67727 0.34052,0.67726 0.66639,-0.0106 c 1.19588,-0.0189 1.34319,0.27423 0.54094,1.07648 l -0.51094,0.51094 0.33092,0.99595 c 0.50247,1.51233 0.63947,2.22046 0.51793,2.67711 -0.14239,0.53501 -0.44086,0.88414 -0.98231,1.14905 -0.50027,0.24476 -1.33494,0.36282 -1.86372,0.26363 -0.16175,-0.0304 -0.45178,-0.19015 -0.64451,-0.35512 l -0.35041,-0.29995 -0.0276,1.27766 c -0.03,1.38858 -0.067,1.49868 -0.5946,1.77154 -0.24839,0.12844 -1.1278,0.20965 -1.66037,0.15332 z m 1.54425,-0.83248 c 0.0778,-0.10632 0.11732,-0.41487 0.11813,-0.92092 10e-4,-0.84836 -0.0115,-0.86252 -0.56959,-0.62931 -0.17338,0.0724 -0.53523,0.1547 -0.80411,0.1828 -0.39548,0.0414 -0.49755,0.0843 -0.53435,0.22505 -0.0383,0.14643 -0.0665,0.15651 -0.17833,0.0637 -0.0731,-0.0606 -0.13283,-0.15815 -0.13283,-0.2167 0,-0.16626 -0.3406,-0.55791 -0.48519,-0.55791 -0.10987,0 -0.12554,0.13864 -0.10086,0.89258 0.016,0.49091 0.0611,0.92439 0.10011,0.96327 0.10408,0.10378 0.93998,0.18473 1.75643,0.17012 0.58847,-0.0105 0.73418,-0.0409 0.83059,-0.17268 z m -4.97268,-0.24702 0.0625,-0.27842 0.0791,0.27842 c 0.072,0.25319 0.10952,0.27843 0.41431,0.27843 0.18434,0 0.35907,-0.0387 0.38828,-0.086 0.0796,-0.12877 0.21891,-1.60061 0.16484,-1.74148 -0.0375,-0.0979 -0.13559,-0.0734 -0.49146,0.12286 -0.56877,0.31362 -0.91111,0.31107 -1.59375,-0.0119 -0.35022,-0.16568 -0.57928,-0.23021 -0.63158,-0.17791 -0.0452,0.0452 -0.087,0.46091 -0.093,0.92396 l -0.0109,0.8419 0.29983,0.0529 c 0.16492,0.0291 0.53596,0.0581 0.82455,0.0642 l 0.52471,0.0113 z m 4.46869,-1.57498 c 0.38746,-0.18387 0.53588,-0.49048 0.51514,-1.06427 -0.0185,-0.51283 -0.13733,-0.60899 -0.25844,-0.20919 -0.15912,0.52523 -0.2489,0.72817 -0.32218,0.72817 -0.0975,0 -0.0951,-0.0328 0.0478,-0.64025 0.1729,-0.73507 0.14917,-0.74972 -0.75955,-0.46904 -0.50604,0.1563 -0.57445,0.20361 -0.6194,0.42833 -0.0555,0.2776 -0.20479,0.32534 -0.37521,0.12 -0.13543,-0.1632 -0.45683,-0.12964 -0.49127,0.0513 -0.0478,0.25109 0.35837,0.7198 0.83141,0.95944 0.53323,0.27015 0.99835,0.30117 1.43172,0.0955 z m -4.10844,-0.12205 c 0.30479,-0.11472 0.88366,-0.67147 0.88366,-0.8499 0,-0.23487 -0.26764,-0.52874 -0.63243,-0.6944 -0.19401,-0.0881 -0.39596,-0.16103 -0.44879,-0.16207 -0.0528,-6.9e-4 -0.12212,0.19467 -0.15398,0.4349 -0.0319,0.24022 -0.1181,0.5871 -0.19161,0.77083 -0.21794,0.54469 -0.0312,0.71682 0.54315,0.50064 z m -0.76943,-0.6016 c 0.0567,-0.30239 0.10488,-0.7089 0.10708,-0.90334 0.004,-0.34312 -0.009,-0.35891 -0.4188,-0.53542 -0.23254,-0.10004 -0.50165,-0.18189 -0.59804,-0.18189 -0.23041,0 -0.32529,0.37178 -0.18424,0.72187 0.19658,0.48786 0.20441,0.56314 0.0586,0.56314 -0.16488,0 -0.16347,-0.0115 -0.0415,0.33819 0.0702,0.20139 0.19425,0.32129 0.44975,0.43472 0.19405,0.0861 0.39137,0.14672 0.43849,0.1346 0.0471,-0.0121 0.13205,-0.26947 0.18875,-0.57187 z m 7.49102,-0.27139 c -0.0146,-0.23321 0.0114,-0.40692 0.0609,-0.40692 0.0902,0 0.13189,0.10718 0.22905,0.58838 0.0573,0.28373 0.0645,0.28783 0.43468,0.24611 0.5787,-0.0653 0.63353,-0.1489 0.63353,-0.96695 0,-0.39113 0.0443,-0.90282 0.0983,-1.1371 0.0815,-0.35306 0.0733,-0.52565 -0.048,-1.00855 -0.19757,-0.78653 -0.68792,-1.83392 -0.85857,-1.83392 -0.17827,0 -0.16994,0.2154 0.0373,0.96312 0.18454,0.66596 0.22251,1.17856 0.0873,1.17856 -0.0896,0 -0.12003,-0.1052 -0.25305,-0.87594 -0.12776,-0.7403 -0.57684,-1.6769 -0.7257,-1.51354 -0.0169,0.0185 0.01,0.42725 0.0595,0.90834 0.0997,0.96805 0.0402,1.32104 -0.30977,1.83674 -0.34165,0.50345 -0.40598,0.79912 -0.31437,1.44504 0.12389,0.87358 0.22168,1.04048 0.59129,1.0092 l 0.30316,-0.0256 z m -10.34463,-0.0284 c 0.0286,-0.0745 0.052,-0.23544 0.052,-0.3576 v -0.22209 l 0.2077,0.19512 0.20769,0.19512 0.0917,-0.3301 c 0.12121,-0.43652 0.11663,-0.68591 -0.0372,-2.02614 -0.0714,-0.62204 -0.15813,-1.53577 -0.19275,-2.0305 -0.0626,-0.8956 -0.0639,-0.89963 -0.29429,-0.9262 -0.68507,-0.0791 -1.07232,0.83828 -0.87018,2.0613 0.0292,0.17668 0.0818,0.32124 0.11683,0.32124 0.0733,0 0.39698,-1.00075 0.47803,-1.47776 0.0514,-0.30294 0.19662,-0.44719 0.21552,-0.21417 0.0303,0.37461 -0.0577,0.82317 -0.3299,1.67923 -0.29509,0.92829 -0.30449,0.99496 -0.20689,1.46752 0.0562,0.27227 0.0854,0.54784 0.0649,0.61237 -0.0205,0.0645 -0.0615,0.35828 -0.0912,0.65275 l -0.0538,0.53542 h 0.29493 c 0.1899,0 0.31344,-0.0482 0.34692,-0.13551 z m -0.94328,-0.65691 c 0.0551,-0.69162 -0.022,-1.61237 -0.21288,-2.54275 l -0.0955,-0.46532 -0.15691,0.20801 c -0.24175,0.3205 -0.50071,1.20398 -0.61263,2.09011 -0.0856,0.67791 -0.0823,0.82573 0.0214,0.95068 0.12029,0.14494 0.7165,0.44802 0.90488,0.45998 0.0586,0.003 0.11701,-0.26654 0.15159,-0.70071 z m 13.14486,0.14707 c 0.0152,-0.18275 0.004,-0.45926 -0.0253,-0.61447 -0.0947,-0.50473 -0.2165,-0.29798 -0.2165,0.36746 0,0.48136 0.0277,0.64053 0.10708,0.61447 0.0589,-0.0194 0.11952,-0.1847 0.13472,-0.36746 z m -6.29148,-0.13663 c 0.20655,-0.0941 0.23195,-0.1442 0.18775,-0.37018 -0.0759,-0.38813 -0.31494,-0.66062 -0.69543,-0.79275 -0.52904,-0.18373 -0.72274,-0.11946 -1.08514,0.36007 -0.17804,0.23558 -0.32391,0.4538 -0.32415,0.48492 -2.4e-4,0.0311 0.20196,0.15921 0.44932,0.28463 0.48417,0.24549 0.97739,0.25669 1.46765,0.0333 z m 1.12592,-0.34116 c 0.42178,-0.1062 0.41105,-0.0853 0.55824,-1.0873 0.0698,-0.47514 0.17188,-0.81057 0.30748,-1.0104 0.24622,-0.36282 0.29512,-1.14819 0.0715,-1.14819 -0.10348,0 -0.11261,-0.0353 -0.0428,-0.1657 0.21453,-0.40085 0.11102,-0.44772 -0.40903,-0.18519 -0.6654,0.33589 -0.73471,0.43137 -0.66253,0.91267 0.0438,0.29187 0.0239,0.44524 -0.0778,0.60045 -0.18256,0.27862 -0.28236,0.2634 -0.23837,-0.0364 0.0426,-0.29007 -0.0453,-0.33747 -0.76527,-0.41273 -0.34967,-0.0366 -0.49968,-0.0887 -0.49968,-0.17371 0,-0.0987 0.11055,-0.11059 0.59067,-0.0633 0.64385,0.0635 0.57907,0.1043 0.73998,-0.46681 0.0705,-0.25021 -0.36735,-0.36429 -1.59218,-0.41483 -1.35283,-0.0558 -1.41446,-0.0178 -1.33592,0.82316 0.0285,0.30534 0.0998,0.58477 0.15833,0.62097 0.078,0.0482 0.0648,0.0818 -0.0493,0.12558 -0.11818,0.0454 -0.14404,0.11837 -0.10717,0.3027 l 0.0486,0.24293 -0.85196,-0.0147 c -0.46859,-0.008 -0.8761,0.009 -0.9056,0.0389 -0.11453,0.11453 0.0734,0.23636 0.36457,0.23636 0.25471,0 0.28847,0.0203 0.20381,0.12226 -0.0686,0.0826 -0.19697,0.10675 -0.39599,0.0745 -0.29967,-0.0486 -0.37862,0.0524 -0.22713,0.29068 0.0933,0.14682 1.53866,0.6159 1.73748,0.5639 0.23276,-0.0608 0.59381,-0.51135 0.59381,-0.7409 0,-0.10476 -0.0456,-0.23608 -0.10138,-0.29184 -0.19024,-0.19023 -0.007,-0.19667 0.62412,-0.0219 0.34668,0.0961 0.7726,0.17467 0.94649,0.17467 0.28183,0 0.32231,0.028 0.37277,0.25771 0.0311,0.14174 0.13243,0.2983 0.22509,0.34789 0.11496,0.0615 0.15182,0.14271 0.11601,0.25552 -0.0577,0.18195 0.007,0.33822 0.13987,0.33822 0.047,0 0.25554,-0.0428 0.46334,-0.0951 z m 1.24005,-0.94001 c 0,-0.78963 -0.0254,-1.02686 -0.10708,-1.00023 -0.14361,0.0468 -0.30586,0.68838 -0.31437,1.24295 -0.006,0.34178 0.0342,0.49089 0.16445,0.62109 0.0942,0.0942 0.19061,0.17134 0.21417,0.17134 0.0236,0 0.0428,-0.46582 0.0428,-1.03515 z m 1.39209,-0.5046 c 0.28389,-0.55591 0.31221,-1.08706 0.0717,-1.34518 -0.21931,-0.23541 -0.68146,-0.51489 -0.97085,-0.58712 l -0.23521,-0.0587 0.20452,0.54461 c 0.11248,0.29954 0.27582,0.86276 0.36298,1.25161 0.0872,0.38885 0.19734,0.69555 0.24486,0.68155 0.0475,-0.014 0.1924,-0.23304 0.32197,-0.48677 z m -8.58815,-0.21563 c 0,-0.0522 0.18696,-0.69058 0.41547,-1.41856 0.44543,-1.41905 0.57519,-1.96597 0.4665,-1.96635 -0.0375,-1.3e-4 -0.22233,0.0754 -0.4108,0.16782 -0.18847,0.0924 -0.4473,0.18929 -0.57519,0.21527 -0.37009,0.0752 -0.45538,0.53821 -0.33185,1.80167 0.0553,0.56541 0.12363,1.15968 0.15189,1.32061 0.0476,0.27086 0.06,0.28079 0.16767,0.13355 0.064,-0.0875 0.11631,-0.20179 0.11631,-0.25401 z m 1.97035,-0.20596 c 0.15288,-0.0425 0.21417,-0.11877 0.21417,-0.26646 0,-0.17333 -0.0947,-0.24859 -0.58346,-0.46394 -0.64572,-0.28449 -0.69137,-0.26894 -0.79537,0.27099 -0.0878,0.45578 -0.011,0.53713 0.49805,0.52752 0.24884,-0.005 0.54882,-0.0353 0.66661,-0.0681 z m -4.93504,-0.57286 c 0.0838,-0.21846 0.0609,-0.35733 -0.0826,-0.50088 -0.22549,-0.22548 -0.37938,-0.16541 -0.37938,0.14809 0,0.41736 0.33814,0.67557 0.462,0.35279 z m 5.27771,-0.55545 c 0,-0.26633 -0.13613,-0.46927 -0.44754,-0.66723 -0.15434,-0.0981 -0.37053,-0.24423 -0.4804,-0.32471 -0.17017,-0.12465 -0.21124,-0.12822 -0.27711,-0.0241 -0.23218,0.36687 0.0621,0.95844 0.54651,1.09859 0.47402,0.13715 0.65854,0.11403 0.65854,-0.0825 z m 6.33938,-0.54264 c 0,-0.2707 -0.0483,-0.32197 -0.68534,-0.72638 -0.44258,-0.28098 -0.68533,-0.3922 -0.68533,-0.31398 0,0.40586 0.44807,1.0087 0.89951,1.2102 0.39838,0.17782 0.47116,0.15158 0.47116,-0.16984 z m 2.34974,-0.10036 c 0.074,-0.074 0.13462,-0.20897 0.13462,-0.29983 0,-0.13105 -0.0608,-0.16522 -0.29371,-0.16522 -0.26669,0 -0.56296,0.17455 -0.56296,0.33165 0,0.25984 0.50273,0.35272 0.72205,0.1334 z m -7.72147,-0.35224 c 0.53922,-0.047 0.59203,-0.0698 0.71599,-0.30953 0.11274,-0.21802 0.11702,-0.30973 0.0271,-0.58209 -0.0666,-0.20177 -0.0851,-0.48653 -0.0491,-0.75751 0.0745,-0.56139 -0.0274,-0.76057 -0.36363,-0.71122 -0.19821,0.0291 -0.26515,-6.5e-4 -0.30862,-0.13776 -0.0432,-0.13615 -0.19852,-0.20673 -0.70079,-0.31847 -0.42519,-0.0946 -0.67415,-0.11468 -0.72995,-0.0589 -0.13385,0.13385 -0.50102,1.64344 -0.50102,2.05993 0,0.3174 0.0479,0.42507 0.30223,0.6794 0.27925,0.27926 0.32971,0.29784 0.66392,0.24454 0.19893,-0.0317 0.62366,-0.0805 0.94384,-0.10842 z m 3.39589,-0.065 c 0.26019,-0.23548 0.28074,-0.53995 0.0968,-1.43395 -0.28842,-1.40176 -0.20401,-1.26955 -0.81061,-1.26955 -0.65198,0 -1.20471,0.25383 -1.49238,0.68534 -0.16874,0.25312 -0.19138,0.36657 -0.1453,0.72817 0.03,0.23558 0.0533,0.62992 0.0518,0.87629 -0.003,0.43142 0.007,0.45097 0.27311,0.52965 0.15176,0.0449 0.63222,0.0713 1.0677,0.0585 0.61341,-0.018 0.82943,-0.0573 0.9589,-0.17444 z m 3.08952,0.0699 c 0,-0.10203 -0.8682,-1.65899 -0.99682,-1.78761 -0.071,-0.071 -0.24018,-0.12909 -0.37594,-0.12909 -0.28744,0 -0.68325,-0.16238 -0.68325,-0.28029 0,-0.0467 0.12823,-0.0574 0.30095,-0.025 0.38206,0.0717 0.48341,-0.11997 0.23849,-0.451 -0.26328,-0.35585 -0.57105,-0.4742 -0.92738,-0.35659 -0.35352,0.11666 -0.36954,0.18922 -0.0832,0.37682 0.1178,0.0772 0.21417,0.17799 0.21417,0.22402 0,0.046 -0.0964,0.0837 -0.21417,0.0837 -0.46666,0 -0.16923,0.79822 0.3826,1.0268 0.29456,0.122 0.31816,0.18887 0.12367,0.35029 -0.1237,0.10266 -0.12173,0.12395 0.0214,0.23137 0.55534,0.41669 1.9995,0.9487 1.9995,0.73657 z m -9.38557,-1.30797 c 0.27995,-0.0984 0.54267,-0.21263 0.58382,-0.25378 0.0722,-0.0722 0.40189,-1.24114 0.40488,-1.43557 0.002,-0.12834 -0.73845,-0.40504 -0.8686,-0.32461 -0.35571,0.21984 -1.33857,1.59708 -1.48592,2.08216 -0.0617,0.2031 -0.0566,0.20514 0.39715,0.15826 0.25281,-0.0261 0.68871,-0.12803 0.96867,-0.22646 z m 8.78277,-1.12274 c 0.0768,0 0.61078,-0.79157 0.56494,-0.83742 -0.0717,-0.0717 -0.63859,0.23894 -0.76478,0.4191 -0.18414,0.2629 -0.18661,0.54032 -0.004,0.47032 0.0745,-0.0286 0.16634,-0.052 0.20403,-0.052 z m -9.93557,-0.60362 -0.21288,-0.16357 0.19275,-0.002 c 0.10601,-6.9e-4 0.19274,-0.0369 0.19274,-0.0798 0,-0.10733 -1.406,-0.85866 -1.72701,-0.92286 -0.42379,-0.0847 -0.28332,0.23302 0.20642,0.46699 0.22381,0.10692 0.40692,0.22338 0.40692,0.25879 0,0.0354 -0.17347,0.15915 -0.3855,0.27498 -0.46956,0.25651 -0.49658,0.38536 -0.0642,0.30646 0.78617,-0.14347 0.93597,-0.14682 1.22182,-0.0274 0.37195,0.15544 0.44976,0.104 0.16899,-0.11171 z m 6.01034,-3.1e-4 c 1.2183,-0.12348 1.86018,-0.28432 2.69384,-0.67498 1.08209,-0.50709 1.88175,-1.34186 2.29473,-2.39549 0.0811,-0.20692 0.31644,-1.13213 0.52299,-2.05602 0.20654,-0.9239 0.47218,-1.98821 0.59031,-2.36514 0.22991,-0.73366 0.65351,-2.22992 0.65351,-2.30839 0,-0.30588 -0.63286,0.75738 -0.85132,1.43029 -0.10652,0.32807 -0.26235,0.43479 -0.26235,0.17967 0,-0.0779 0.16871,-0.56939 0.37491,-1.09226 0.49898,-1.26525 0.569,-1.4894 0.51182,-1.63842 -0.0771,-0.20082 -0.17711,-0.14767 -0.28055,0.14906 -0.11533,0.33083 -0.61852,1.09022 -0.72448,1.09332 -0.14653,0.004 0.0276,-0.61744 0.28545,-1.01928 0.41183,-0.64179 0.32887,-1.16968 -0.12936,-0.82309 -0.38404,0.29048 -0.50973,0.09 -0.80393,-1.28228 -0.26181,-1.22118 -0.34298,-1.49918 -0.43772,-1.49918 -0.046,0 -0.30075,0.2313 -0.56617,0.514 -0.2728,0.29057 -0.55585,0.51401 -0.65114,0.51401 -0.16371,0 -0.16417,-0.007 -0.0162,-0.23559 0.0838,-0.12957 0.35809,-0.47116 0.60953,-0.75909 0.25143,-0.28793 0.45714,-0.55056 0.45714,-0.58363 0,-0.0864 -1.07862,-0.56338 -1.27396,-0.56338 -0.2041,0 -0.23087,0.0705 -0.39845,1.04968 -0.22262,1.30077 -0.55869,3.00029 -0.65215,3.29794 -0.0836,0.26637 -0.33143,0.3947 -0.33084,0.17134 1.5e-4,-0.0589 0.15384,-1.07084 0.34154,-2.24878 0.18769,-1.17792 0.34176,-2.19515 0.34238,-2.26049 6.9e-4,-0.0937 -0.11586,-0.10942 -0.5523,-0.0744 -0.73339,0.0588 -1.24698,0.35673 -1.55569,0.90223 -0.37385,0.66064 -0.58214,0.956 -0.70875,1.005 -0.0656,0.0254 -0.13019,0.0353 -0.14344,0.0221 -0.0133,-0.0133 -0.17134,-0.86047 -0.35129,-1.88269 l -0.32719,-1.8586 -0.32475,-0.0549 c -0.61827,-0.10445 -0.60951,-0.14702 -0.54744,2.65972 l 0.0549,2.48436 0.40011,0.79765 c 0.3341,0.66603 0.40144,0.88119 0.4081,1.30394 0.004,0.27846 -0.0298,0.50904 -0.0759,0.5124 -0.0461,0.003 -0.13075,-0.24773 -0.18801,-0.558 -0.10732,-0.58146 -0.41094,-1.1946 -0.54923,-1.10913 -0.0431,0.0266 -0.0784,0.12097 -0.0784,0.20965 0,0.0887 -0.0335,0.18189 -0.0743,0.20713 -0.15758,0.0974 -0.21927,-0.86522 -0.22581,-3.52313 -0.003,-1.51754 -0.0332,-2.78556 -0.0655,-2.81782 -0.0322,-0.0322 -0.11741,-0.01 -0.18922,0.0497 -0.0895,0.0743 -0.13057,0.26455 -0.13057,0.60488 0,0.52849 -0.0562,0.76752 -0.1805,0.76752 -0.0421,0 -0.0765,-0.3084 -0.0765,-0.68534 0,-0.54256 -0.026,-0.68534 -0.12461,-0.68534 -0.23805,0 -1.2734,0.41759 -1.43431,0.5785 -0.32603,0.32603 -0.73027,2.43528 -0.81266,4.24029 -0.0296,0.64786 -0.0775,1.17793 -0.10657,1.17793 -0.029,0 -0.10084,-0.25323 -0.15955,-0.56274 -0.15258,-0.80432 -0.82277,-2.00004 -1.01442,-1.80987 -0.0382,0.0379 -0.091,0.48877 -0.11725,1.00193 -0.0263,0.51317 -0.0699,0.95518 -0.097,0.98225 -0.0271,0.0271 -0.0732,-0.20762 -0.10251,-0.52154 -0.0293,-0.31392 -0.0719,-0.58931 -0.0945,-0.61199 -0.11813,-0.11812 -0.3124,0.10755 -0.43981,0.51089 -0.30448,0.96391 -0.24737,3.27752 0.13492,5.46577 0.0864,0.49473 0.22153,1.32132 0.30024,1.83686 0.2005,1.31339 0.40654,1.91673 0.86108,2.5214 0.93155,1.23923 2.69032,2.11139 4.66334,2.31248 0.40049,0.0408 0.75299,0.0794 0.78334,0.0856 0.0303,0.006 0.4544,-0.0291 0.94234,-0.0786 z m -1.46868,-0.51207 c -0.83866,-0.13721 -1.51594,-0.56941 -1.79471,-1.14527 -0.22857,-0.47217 -0.23926,-1.23922 -0.021,-1.50874 0.14948,-0.1846 0.22802,-0.1935 2.35843,-0.26735 2.51158,-0.0871 2.65912,-0.0616 2.75992,0.47568 0.14397,0.76743 -0.39596,1.70855 -1.22636,2.13759 -0.5198,0.26857 -1.46269,0.40849 -2.07627,0.30809 z m 1.69619,-0.74498 c 0.1979,-0.12832 0.35982,-0.27914 0.35982,-0.33514 0,-0.15151 -0.63805,-0.23145 -0.9708,-0.12163 -0.33549,0.11071 -0.70071,0.46418 -0.61796,0.59806 0.11647,0.18846 0.85056,0.10405 1.22894,-0.14129 z m 2.5015,-2.48385 c -0.71634,-0.11289 -1.27802,-0.57615 -1.45016,-1.19607 -0.25704,-0.92566 6.9e-4,-1.75799 0.66597,-2.14896 0.33351,-0.19605 0.49673,-0.234 0.99837,-0.23211 0.71559,0.003 1.06379,0.16115 1.36958,0.62322 0.48711,0.73608 0.44254,1.82098 -0.0995,2.42092 -0.35744,0.39563 -0.96701,0.61452 -1.4843,0.533 z m 0.11273,-1.66588 c 0.47671,-0.2539 0.54549,-0.79731 0.15087,-1.19194 -0.32494,-0.32493 -0.63059,-0.32493 -0.95552,0 -0.35126,0.35126 -0.34614,0.76749 0.0131,1.06983 0.28792,0.24225 0.50347,0.27551 0.79149,0.12211 z m -8.26097,1.52349 c -1.37803,-0.49245 -1.62689,-2.26321 -0.43451,-3.0918 0.31048,-0.21575 0.46781,-0.26144 0.98518,-0.28605 0.52093,-0.0248 0.67501,0.002 1.00119,0.17659 0.77788,0.41545 1.14948,1.49861 0.79166,2.30753 -0.36067,0.81535 -1.42597,1.22162 -2.34352,0.89373 z m 0.74998,-1.54892 c 0.0982,-0.0688 0.2255,-0.23831 0.28282,-0.3767 0.1345,-0.32471 -0.0523,-0.71989 -0.43353,-0.91702 -0.7069,-0.36555 -1.37766,0.63836 -0.80749,1.20854 0.24222,0.24222 0.67863,0.28102 0.9582,0.0852 z m 10.46659,-7.30619 c 0.69089,-0.51504 1.64338,-1.32654 1.64338,-1.40015 0,-0.13812 -0.18554,-0.0839 -0.6129,0.17903 -0.4953,0.30476 -0.51462,0.30702 -0.71677,0.0836 -0.18367,-0.20294 -0.2392,-0.15985 -0.38636,0.29981 -0.06,0.18733 -0.18014,0.45719 -0.26703,0.59967 -0.3106,0.50933 -0.16302,0.61274 0.33968,0.238 z"
         id="path1-8" />
      <ellipse
         style="fill:none;stroke:#ff00ff;stroke-width:0.1;stroke-dasharray:none;stroke-opacity:1"
         id="path1138-9-4-0-0-1-2-4-9-7-82-6-75-2-1-90-4-5-1-0-9"
         cx="701.83405"
         cy="-204.33421"
         rx="18.492125"
         ry="18.492126" />
    </g>
  </g>
</svg>
