<?xml version="1.0" encoding="UTF-8" standalone="no"?>
<!-- Created with Inkscape (http://www.inkscape.org/) -->

<svg
   width="41.008999mm"
   height="41.008999mm"
   viewBox="0 0 41.008999 41.009"
   version="1.1"
   id="svg1"
   inkscape:version="1.4.2 (f4327f4, 2025-05-13)"
   sodipodi:docname="240.svg"
   xmlns:inkscape="http://www.inkscape.org/namespaces/inkscape"
   xmlns:sodipodi="http://sodipodi.sourceforge.net/DTD/sodipodi-0.dtd"
   xmlns="http://www.w3.org/2000/svg"
   xmlns:svg="http://www.w3.org/2000/svg">
  <sodipodi:namedview
     id="namedview1"
     pagecolor="#ffffff"
     bordercolor="#000000"
     borderopacity="0.25"
     inkscape:showpageshadow="2"
     inkscape:pageopacity="0.0"
     inkscape:pagecheckerboard="0"
     inkscape:deskcolor="#d1d1d1"
     inkscape:document-units="mm"
     inkscape:zoom="2.8970539"
     inkscape:cx="86.98492"
     inkscape:cy="83.18796"
     inkscape:window-width="1050"
     inkscape:window-height="1081"
     inkscape:window-x="3737"
     inkscape:window-y="0"
     inkscape:window-maximized="0"
     inkscape:current-layer="layer1" />
  <defs
     id="defs1" />
  <g
     inkscape:label="Layer 1"
     inkscape:groupmode="layer"
     id="layer1"
     transform="translate(-114.0891,-77.774176)">
    <g
       id="g186"
       transform="translate(-219.04449,203.13608)">
      <ellipse
         style="fill:none;stroke:#ff00ff;stroke-width:0.1;stroke-dasharray:none;stroke-opacity:1"
         id="path1138-9-4-0-0-1-2-6-7-2-6-6-394-3-67-1-8"
         cx="353.63809"
         cy="-104.85743"
         rx="18.492125"
         ry="18.492126" />
      <circle
         style="fill:none;stroke:#ff0000;stroke-width:0.1;stroke-dasharray:none"
         id="path788-8-1-8-1-9-2-1-4-2-2-4-5-1-2-7-7"
         cx="353.63809"
         cy="-104.85741"
         r="19.954653" />
      <circle
         style="fill:none;stroke:#0000ff;stroke-width:0.1;stroke-linecap:round;stroke-dasharray:none;stroke-opacity:1;paint-order:markers stroke fill"
         id="path13019-1-33-7-4-6-7-2-0-9-7-6-4"
         cx="353.63809"
         cy="-119.86839"
         r="2" />
      <path
         style="fill:#000000;stroke-width:0.124567"
         d="m 347.63092,-88.649722 c -0.0232,-0.01524 -0.0548,-0.140457 -0.0704,-0.279509 -0.0261,-0.232429 -0.0431,-0.273768 -0.22033,-0.534677 -0.17373,-0.255752 -0.19203,-0.299148 -0.19151,-0.454156 3.7e-4,-0.123255 0.0337,-0.247743 0.11878,-0.443288 0.065,-0.149548 0.1131,-0.271903 0.10684,-0.271903 -0.007,0 -0.0933,0.05734 -0.19332,0.12744 -0.44294,0.310287 -0.9207,0.344464 -1.68749,0.120714 l -0.43281,-0.126298 -0.16043,0.09323 c -0.44438,0.258234 -0.50261,0.279283 -0.77266,0.279283 -0.29945,0 -0.40186,-0.03145 -0.47731,-0.146604 -0.0837,-0.12774 -0.0393,-0.232162 0.14232,-0.334729 0.32316,-0.182502 0.40218,-0.246398 0.48996,-0.396182 0.0817,-0.139413 0.0924,-0.196124 0.11381,-0.602222 0.0161,-0.305783 0.043,-0.500342 0.0847,-0.61195 0.0809,-0.216914 0.40605,-0.560548 0.68439,-0.723325 0.11939,-0.06983 0.21708,-0.132113 0.21708,-0.13842 0,-0.0063 -0.0608,-0.04248 -0.13511,-0.08039 -0.21044,-0.107362 -0.40577,-0.307698 -0.63679,-0.653122 -0.26578,-0.397404 -0.38689,-0.514774 -0.63212,-0.612642 -0.12975,-0.05179 -0.21639,-0.111121 -0.26037,-0.178331 -0.0659,-0.100728 -0.0659,-0.100728 -0.41197,-0.102568 -0.60341,-0.003 -0.94274,-0.05336 -1.20298,-0.177806 -0.33985,-0.162511 -0.41198,-0.24179 -0.41198,-0.452869 0,-0.123788 0.0231,-0.21103 0.0826,-0.312603 l 0.0826,-0.140895 -0.18378,-0.142143 c -0.80199,-0.620271 -0.75283,-1.579335 0.10104,-1.971804 0.28001,-0.128704 0.5372,-0.174805 0.96687,-0.173308 0.33126,0.0011 0.37159,-0.0048 0.35586,-0.05253 -0.13491,-0.409073 -0.15607,-0.528123 -0.14428,-0.811862 0.009,-0.219169 0.0304,-0.331051 0.0813,-0.428458 0.20368,-0.389152 0.59496,-0.479125 1.08545,-0.249593 0.26636,0.12464 0.41361,0.23602 0.76108,0.575629 0.29233,0.285716 0.31595,0.282905 0.22212,-0.02643 -0.0623,-0.205546 -0.0626,-0.362745 -7.7e-4,-0.414188 0.0287,-0.02384 0.11524,-0.03557 0.21226,-0.02875 l 0.16377,0.01147 0.0867,-0.346061 c 0.10127,-0.403998 0.21384,-0.939518 0.21378,-1.017088 -2e-5,-0.03 -0.0697,-0.0938 -0.15654,-0.14321 -0.40631,-0.23142 -0.80385,-0.64415 -0.99553,-1.03353 -0.0574,-0.11646 -0.15476,-0.35493 -0.21649,-0.52994 -0.0618,-0.17501 -0.14501,-0.35307 -0.18505,-0.39569 -0.0968,-0.10304 -0.2488,-0.10049 -0.46242,0.008 -0.23935,0.12129 -0.46944,0.13871 -0.66859,0.0506 -0.087,-0.0384 -0.1782,-0.07 -0.20272,-0.07 -0.0245,0 -0.15849,0.10382 -0.29769,0.23071 -0.1392,0.12689 -0.28005,0.23071 -0.31299,0.23071 -0.0936,0 -0.17184,-0.14681 -0.14999,-0.28149 0.0258,-0.15918 0.14006,-0.37794 0.29542,-0.56575 0.0718,-0.0869 0.16373,-0.23266 0.20414,-0.32392 0.0856,-0.19325 0.23378,-0.33006 0.40622,-0.37499 0.0671,-0.0175 0.174,-0.0448 0.23745,-0.0606 0.0649,-0.0162 0.11535,-0.0496 0.11535,-0.0761 0,-0.0543 -0.18326,-0.12514 -0.3309,-0.12788 -0.17177,-0.003 -0.48575,-0.0999 -0.59513,-0.18333 -0.0575,-0.0439 -0.13197,-0.1459 -0.16538,-0.22667 -0.0344,-0.0832 -0.10016,-0.17014 -0.1517,-0.20059 -0.1423,-0.0841 -0.45316,-0.18227 -0.57691,-0.18227 -0.14467,0 -0.23986,-0.0518 -0.23986,-0.13046 0,-0.0978 0.15063,-0.25208 0.33682,-0.34486 0.19773,-0.0985 0.50787,-0.11313 0.8196,-0.0386 0.15369,0.0367 0.19732,0.0367 0.26366,-10e-6 0.095,-0.0526 0.40393,-0.0603 0.49366,-0.0123 0.0799,0.0427 0.0797,0.0255 -7.7e-4,-0.12646 -0.0356,-0.067 -0.0732,-0.16396 -0.0837,-0.21537 -0.0242,-0.11861 -0.27565,-0.38907 -0.51077,-0.5494 -0.2472,-0.16857 -0.30902,-0.24257 -0.28444,-0.34049 0.0252,-0.10025 0.13758,-0.17479 0.34049,-0.22575 0.087,-0.0219 0.17091,-0.0503 0.18647,-0.0632 0.0155,-0.0129 -0.041,-0.17451 -0.12556,-0.35909 -0.1838,-0.401 -0.1838,-0.401 -0.36954,-0.92285 -0.19997,-0.56185 -0.35843,-1.19074 -0.43738,-1.73597 -0.07,-0.48366 -0.12591,-1.66407 -0.0883,-1.86473 0.0206,-0.10933 0.0388,-0.12574 0.21084,-0.18982 0.34535,-0.12858 0.66628,-0.38103 0.66628,-0.52412 0,-0.0627 -0.38234,-0.44734 -0.54382,-0.54716 -0.28978,-0.17916 -0.30252,-0.24788 -0.12743,-0.68756 0.27356,-0.68701 0.60717,-1.24366 0.96142,-1.60423 0.34217,-0.34827 0.4575,-0.34657 0.81354,0.012 0.30363,0.30576 0.65836,0.84119 0.9431,1.42348 0.22565,0.46145 0.51537,1.2724 0.58869,1.64778 0.0727,0.37234 0.10104,0.4291 0.41087,0.82395 0.74347,0.94747 1.43145,2.29951 1.70494,3.35053 0.0393,0.15118 0.0811,0.28619 0.0928,0.30002 0.0117,0.0138 0.085,-0.16794 0.16289,-0.40394 0.16998,-0.51522 0.32699,-0.8282 0.71526,-1.42567 0.1609,-0.24759 0.32963,-0.5116 0.37494,-0.58668 0.11743,-0.19456 0.3778,-0.4453 0.54794,-0.52766 0.08,-0.0388 0.25869,-0.0987 0.39695,-0.13328 0.13825,-0.0345 0.32196,-0.10626 0.40823,-0.15934 0.0863,-0.0531 0.3743,-0.20162 0.64006,-0.33009 0.36413,-0.17602 0.5217,-0.27209 0.63948,-0.38986 0.19255,-0.19254 0.32445,-0.45482 0.36927,-0.73425 0.0188,-0.11671 0.0473,-0.22552 0.0634,-0.24181 0.0396,-0.0399 0.17241,0.0505 0.2786,0.18974 l 0.0855,0.11205 0.26336,-0.13456 c 0.30794,-0.15733 0.63932,-0.20624 0.72203,-0.10659 0.0394,0.0475 0.0297,0.0701 -0.0775,0.17986 l -0.12258,0.12554 0.10219,0.0423 c 0.16807,0.0696 0.36045,0.2251 0.3813,0.30815 0.0188,0.0748 0.0346,0.0786 0.40745,0.0973 0.43085,0.0217 1.06736,0.13944 1.46975,0.27197 0.36671,0.12076 0.95748,0.40736 1.243,0.60299 0.17803,0.12197 0.28239,0.1699 0.40468,0.1858 0.25895,0.0336 0.48826,0.11574 0.64861,0.23212 0.16415,0.11912 0.44471,0.4722 0.4768,0.60005 0.0114,0.0454 0.0983,0.18565 0.19299,0.31158 0.0947,0.12594 0.26431,0.38353 0.37684,0.57242 0.11252,0.18889 0.21623,0.35064 0.23045,0.35944 0.0142,0.009 0.067,-0.14301 0.11726,-0.33734 0.27773,-1.07386 0.65612,-2.10882 1.17152,-3.20421 0.22471,-0.47759 0.22487,-0.47812 0.24588,-0.84043 0.0778,-1.3425 0.32622,-2.20148 0.85546,-2.95855 0.38839,-0.55562 0.85344,-0.67506 1.16866,-0.30016 0.16861,0.20051 0.57415,1.06476 0.77161,1.64435 0.65653,1.92703 0.75809,3.95888 0.30014,6.0049 -0.14799,0.6612 -0.37202,1.31917 -0.61237,1.79854 -0.14197,0.28317 -0.1935,0.31985 -0.45022,0.32061 -0.29797,7.6e-4 -0.30271,0.006 -0.30271,0.29972 0,0.21946 -0.0158,0.29503 -0.10282,0.48947 -0.0949,0.2123 -0.10731,0.33093 -0.0345,0.33093 0.0531,0 0.19858,-0.16762 0.29749,-0.34288 0.13256,-0.23486 0.29606,-0.36986 0.5239,-0.43253 0.24583,-0.0676 0.28907,-0.0896 0.48599,-0.24744 0.21196,-0.16988 0.44877,-0.2405 0.7495,-0.22351 0.20291,0.0115 0.24016,0.0241 0.30913,0.10421 0.0431,0.0501 0.0784,0.11131 0.0784,0.13593 0,0.0246 -0.10011,0.10064 -0.22247,0.16893 -0.3211,0.17921 -0.57886,0.44763 -0.64696,0.67373 -0.0871,0.28897 -0.12633,0.33529 -0.4041,0.47667 -0.19349,0.0985 -0.26169,0.15059 -0.26956,0.20599 -0.0188,0.13273 0.12464,0.0884 0.35659,-0.11016 0.31891,-0.27302 0.42989,-0.32177 0.67305,-0.29565 0.11019,0.0119 0.39315,0.0246 0.6288,0.0285 0.24164,0.004 0.4926,0.0263 0.57557,0.0511 0.19766,0.0593 0.39669,0.25825 0.39669,0.39648 0,0.06 -0.0171,0.10287 -0.0412,0.10303 -0.16082,8.1e-4 -0.6652,0.0775 -0.80878,0.12262 -0.15147,0.0475 -0.18221,0.0722 -0.23447,0.18839 -0.10329,0.22955 -0.17327,0.26726 -0.56829,0.30632 -0.41196,0.0407 -0.53898,0.0892 -0.53898,0.20582 0,0.094 0.11181,0.16398 0.26366,0.16502 0.28176,0.002 0.53014,0.14108 0.56284,0.31538 0.0118,0.0631 0.0958,0.21444 0.18661,0.33646 0.0908,0.12202 0.18744,0.27375 0.21476,0.3372 0.0609,0.14158 0.068,0.41894 0.0133,0.5191 -0.0673,0.12304 -0.15457,0.0893 -0.31796,-0.1231 -0.0835,-0.10848 -0.20156,-0.23521 -0.26239,-0.28161 -0.1106,-0.0844 -0.1106,-0.0844 -0.22092,-0.0171 -0.14392,0.0877 -0.23736,0.085 -0.50266,-0.0149 -0.24036,-0.0905 -0.36884,-0.10208 -0.4948,-0.0447 -0.0866,0.0395 -0.13887,0.10962 -0.39676,0.53274 -0.25595,0.41992 -0.53651,0.77918 -0.84674,1.08425 -0.16907,0.16625 -0.29179,0.31395 -0.29179,0.35116 0,0.0353 0.0683,0.2763 0.15176,0.53552 0.15468,0.48036 0.20313,0.56011 0.43828,0.721485 0.10558,0.07246 0.17691,0.309807 0.15059,0.501126 -0.0119,0.08692 -0.009,0.158036 0.007,0.158036 0.0159,0 0.10252,-0.112968 0.1926,-0.251041 0.20532,-0.314694 0.46398,-0.554096 0.74056,-0.685416 0.1808,-0.0858 0.25281,-0.10164 0.46141,-0.10119 0.40542,7.6e-4 0.58979,0.13515 0.72996,0.53159 0.0593,0.167876 0.0654,0.237936 0.0466,0.539018 -0.0119,0.190331 -0.0372,0.395253 -0.0563,0.455379 -0.0191,0.06013 -0.0259,0.118136 -0.0152,0.128906 0.0108,0.01078 0.12648,3.81e-4 0.25713,-0.02289 0.75144,-0.134291 1.35761,0.09871 1.62616,0.625077 0.0329,0.06451 0.0653,0.217043 0.0734,0.346059 0.012,0.189753 -1.3e-4,0.269459 -0.0682,0.449001 -0.0958,0.253005 -0.2095,0.442221 -0.3809,0.63414 -0.21508,0.240823 -0.20904,0.221644 -0.13627,0.433146 0.12539,0.364455 0.0606,0.598449 -0.20944,0.756717 -0.14718,0.08625 -0.61003,0.149338 -1.09613,0.149392 -0.37945,4.5e-5 -0.54111,0.03195 -0.57861,0.114255 -0.018,0.03933 -0.13444,0.134363 -0.25893,0.211182 -0.28616,0.176587 -0.38455,0.289566 -0.55211,0.634008 -0.15284,0.31418 -0.35482,0.533542 -0.62904,0.683189 l -0.17669,0.09642 0.20964,0.110995 c 0.24356,0.128952 0.64776,0.511332 0.74651,0.706219 0.0861,0.169956 0.1576,0.449666 0.20492,0.80193 0.0676,0.503277 0.23263,0.78656 0.4913,0.843373 0.11863,0.02605 0.23356,0.158287 0.23356,0.268734 0,0.04287 -0.0313,0.109278 -0.0696,0.147564 -0.0588,0.05873 -0.0992,0.06747 -0.25887,0.05592 -0.16259,-0.01177 -0.22995,-0.04005 -0.47786,-0.200633 -0.42644,-0.276241 -0.41702,-0.276313 -1.21656,0.0096 -0.28401,0.10155 -0.30577,0.104262 -0.74156,0.09246 -0.38593,-0.01043 -0.46844,-0.02244 -0.58772,-0.08546 -0.0763,-0.04032 -0.14689,-0.07331 -0.15683,-0.07331 -0.01,0 0.0285,0.08256 0.0855,0.183465 0.14615,0.258969 0.1246,0.430187 -0.11763,0.934927 -0.10061,0.209666 -0.22391,0.490922 -0.274,0.625015 -0.0935,0.250477 -0.15778,0.325449 -0.24888,0.290491 -0.0287,-0.011 -0.16383,-0.189892 -0.30037,-0.397548 -0.35358,-0.537725 -0.60623,-0.737238 -0.97604,-0.770775 -0.18435,-0.01671 -0.18764,-0.0155 -0.21036,0.07781 -0.0538,0.220936 -0.2826,0.630047 -0.42659,0.762769 -0.48961,0.451312 -1.38445,0.210763 -1.87616,-0.504347 -0.0868,-0.126251 -0.16837,-0.232906 -0.18126,-0.237015 -0.0129,-0.0041 -0.0972,0.119694 -0.1873,0.275122 -0.26465,0.45638 -0.72057,0.902365 -0.92248,0.902365 -0.17475,0 -0.63418,-0.350158 -0.79744,-0.607769 -0.0515,-0.08132 -0.10163,-0.148404 -0.11132,-0.149067 -0.01,-7.62e-4 -0.0601,0.08837 -0.11214,0.197845 -0.14779,0.311194 -0.37761,0.466999 -0.6942,0.470636 -0.33412,0.0038 -0.62135,-0.213775 -0.96003,-0.727359 -0.0986,-0.149547 -0.19089,-0.271907 -0.20506,-0.271907 -0.0141,0 -0.0581,0.05761 -0.0977,0.128027 -0.178,0.316701 -0.82785,0.788372 -1.18987,0.863622 -0.19839,0.04124 -0.59186,0.02179 -0.74834,-0.03698 -0.12584,-0.04725 -0.39714,-0.313826 -0.47746,-0.469123 -0.0353,-0.06829 -0.0787,-0.200641 -0.0964,-0.29411 -0.0177,-0.09347 -0.0369,-0.17458 -0.0425,-0.180247 -0.0196,-0.01958 -0.49079,0.122958 -0.61057,0.184706 -0.17516,0.0903 -0.32703,0.26223 -0.53436,0.604973 -0.18343,0.303215 -0.18343,0.303215 -0.32958,0.311803 -0.0804,0.0047 -0.16513,-0.0038 -0.18832,-0.01901 z m 0.3421,-0.459218 c 0.0684,-0.12236 0.22169,-0.320193 0.34066,-0.439639 0.20157,-0.202359 0.23654,-0.22332 0.51293,-0.307428 0.55312,-0.168308 0.56982,-0.177383 0.71206,-0.38684 0.12494,-0.183994 0.26337,-0.291535 0.37524,-0.291535 0.0288,0 0.11026,0.02951 0.181,0.06562 0.21613,0.110261 0.30257,0.01828 0.21529,-0.229055 -0.0794,-0.224987 -0.0664,-0.273788 0.11354,-0.425468 0.18351,-0.154746 0.18717,-0.21758 0.0145,-0.249967 -0.0833,-0.01562 -0.14106,-0.05865 -0.21415,-0.159552 -0.055,-0.07599 -0.16212,-0.177044 -0.23794,-0.224576 -0.18722,-0.117367 -0.23634,-0.179005 -0.31898,-0.400184 -0.0389,-0.104232 -0.0814,-0.189509 -0.0943,-0.189509 -0.0129,0 -0.064,0.08536 -0.11357,0.189691 -0.0496,0.104331 -0.15798,0.273484 -0.24096,0.375899 -0.12306,0.15187 -0.17861,0.193192 -0.30132,0.224088 -0.0827,0.02084 -0.24032,0.07571 -0.35016,0.121945 -0.23366,0.09834 -0.37975,0.09297 -0.63016,-0.02316 -0.32636,-0.151352 -0.66555,-0.417154 -0.75876,-0.594594 -0.0246,-0.04683 -0.067,-0.181195 -0.0942,-0.298592 -0.0272,-0.117397 -0.1148,-0.338626 -0.1946,-0.491624 -0.0798,-0.152997 -0.15197,-0.299251 -0.16037,-0.325014 -0.0127,-0.03928 -0.0628,-0.03511 -0.31,0.02574 -0.42211,0.103976 -0.89065,0.260798 -1.11142,0.371998 -0.46784,0.235644 -0.68263,0.652657 -0.6831,1.3262 -1e-4,0.147076 -0.0148,0.319869 -0.0326,0.383987 -0.0377,0.1357 -0.31235,0.456624 -0.47884,0.55952 -0.0633,0.0391 -0.10551,0.08648 -0.0939,0.105297 0.0362,0.05853 0.32872,0.0023 0.47799,-0.09202 0.23453,-0.148048 0.46702,-0.243783 0.59285,-0.244122 0.0657,-1.25e-4 0.26647,0.04339 0.44632,0.09682 0.66001,0.196075 0.96119,0.203235 1.3195,0.03134 0.24126,-0.115721 0.43003,-0.315448 0.54148,-0.572909 0.11578,-0.267459 0.16987,-0.241566 0.22783,0.109064 0.0375,0.226834 -0.003,0.434551 -0.14908,0.767076 -0.16952,0.385567 -0.16304,0.436181 0.10195,0.796138 0.13111,0.178099 0.16234,0.251455 0.22443,0.527144 0.0112,0.04985 0.0262,0.09064 0.0334,0.09064 0.007,0 0.069,-0.100111 0.13737,-0.222467 z m 7.03643,0.08239 c 0.18816,-0.143812 0.46402,-0.509865 0.62715,-0.832192 0.14834,-0.2931 0.15045,-0.329908 0.0489,-0.856915 -0.0279,-0.145016 -0.0513,-0.34702 -0.0519,-0.448902 l -8.1e-4,-0.185239 -0.4618,-0.449206 c -0.25399,-0.247065 -0.47421,-0.449206 -0.48938,-0.449206 -0.0152,0 -0.0509,0.05926 -0.0793,0.131686 -0.0284,0.07243 -0.16048,0.312886 -0.29339,0.53435 l -0.24166,0.402668 -0.0165,0.512071 c -0.0232,0.717669 0.004,1.017849 0.10874,1.194612 0.13758,0.232722 0.51501,0.553387 0.65134,0.553387 0.0323,0 0.12182,-0.0482 0.1989,-0.107114 z m -4.32844,0.01318 c 0.33827,-0.105282 0.84422,-0.500409 0.98205,-0.766946 0.14011,-0.270943 0.37304,-1.446201 0.28663,-1.446201 -0.0447,0 -0.42255,0.40277 -0.67018,0.714387 -0.27995,0.352286 -0.40881,0.561412 -0.63022,1.022782 -0.10621,0.221301 -0.20762,0.411339 -0.22536,0.422307 -0.044,0.02716 -0.0519,-0.0011 -0.14657,-0.51789 -0.0454,-0.248188 -0.10044,-0.49031 -0.12219,-0.53804 -0.0397,-0.08722 -0.1793,-0.180719 -0.26973,-0.180719 -0.0267,0 -0.11642,0.102102 -0.19938,0.2269 -0.18296,0.275219 -0.19046,0.375429 -0.0492,0.658164 0.20417,0.408604 0.57318,0.551826 1.04411,0.405256 z m 2.65523,-0.01695 c 0.1362,-0.05691 0.27251,-0.217489 0.3815,-0.449415 0.0804,-0.171061 0.0858,-0.215996 0.0967,-0.797821 0.0111,-0.598872 0.009,-0.621676 -0.0704,-0.79546 -0.045,-0.0984 -0.1549,-0.288134 -0.24411,-0.421634 -0.0892,-0.133494 -0.18232,-0.294627 -0.20691,-0.358075 -0.12878,-0.332247 -0.29715,-0.595299 -0.29715,-0.464226 0,0.01657 -0.18452,0.221671 -0.41004,0.45576 l -0.41005,0.425617 -0.0678,0.483291 c -0.10354,0.737526 -0.0994,0.78325 0.0999,1.112805 0.45563,0.753083 0.75273,0.966128 1.1284,0.809158 z m 4.3375,-0.135209 c 0.1556,-0.08046 0.343,-0.32514 0.43883,-0.57294 0.0499,-0.128902 0.0906,-0.262683 0.0906,-0.297293 0,-0.0769 -0.26846,-0.448285 -0.35914,-0.496815 -0.10438,-0.05586 -0.22424,0.01889 -0.2824,0.176111 -0.0366,0.09897 -0.18241,0.922172 -0.18241,1.02985 0,0.0064 -0.0202,0.01165 -0.0448,0.01165 -0.0246,0 -0.099,-0.08176 -0.16541,-0.181695 -0.15143,-0.228076 -0.98234,-1.265501 -1.20367,-1.50284 -0.15622,-0.167515 -0.16569,-0.172694 -0.16688,-0.09119 -0.002,0.138971 0.14776,0.687759 0.26376,0.966414 0.17684,0.424783 0.53107,0.792311 0.905,0.938986 0.20228,0.07935 0.57126,0.08966 0.70646,0.01973 z m 2.48537,-0.504168 c 0.12408,-0.267124 0.23259,-0.530176 0.24115,-0.584556 0.0117,-0.07428 -0.0151,-0.148059 -0.10774,-0.296623 -0.28511,-0.457318 -0.33155,-0.615491 -0.22531,-0.767183 0.0957,-0.136678 0.21556,-0.09797 0.42094,0.135956 0.23875,0.271941 0.41225,0.334653 0.8582,0.310192 0.24456,-0.01341 0.3872,-0.04577 0.76095,-0.172596 0.60794,-0.206299 0.67589,-0.201783 1.13926,0.07573 0.18706,0.112024 0.35611,0.203086 0.37567,0.202363 0.0196,-7.62e-4 -0.009,-0.02472 -0.0633,-0.05328 -0.14361,-0.07546 -0.30965,-0.240603 -0.38091,-0.378812 -0.0341,-0.06617 -0.0928,-0.281222 -0.13053,-0.477894 -0.15995,-0.834774 -0.22629,-0.984398 -0.55623,-1.254545 -0.25791,-0.211167 -0.5367,-0.333039 -1.08651,-0.474962 -0.2606,-0.06727 -0.4906,-0.139398 -0.51111,-0.160287 -0.0279,-0.02838 -0.0193,-0.05266 0.0336,-0.09601 0.0655,-0.05353 0.091,-0.05447 0.32959,-0.01207 0.49567,0.08809 0.93687,-0.02483 1.19622,-0.306202 0.0717,-0.07774 0.18893,-0.257415 0.26059,-0.399273 0.1896,-0.375266 0.30336,-0.514383 0.53763,-0.657441 l 0.20871,-0.127448 -0.19775,-0.02612 c -0.4127,-0.05448 -0.63661,-0.128765 -1.12786,-0.374196 -0.3194,-0.159575 -0.55587,-0.256738 -0.65089,-0.267452 -0.1462,-0.01649 -0.14967,-0.01466 -0.17032,0.08857 -0.0244,0.121921 -0.10689,0.183011 -0.29094,0.215405 -0.18533,0.0326 -0.26475,0.08028 -0.57951,0.347747 -0.1532,0.130185 -0.34158,0.267786 -0.41862,0.305782 -0.077,0.038 -0.14007,0.07894 -0.14007,0.09099 0,0.01203 0.0594,0.06308 0.13203,0.113406 0.2094,0.145111 0.57269,0.547607 0.66934,0.741571 0.11715,0.235077 0.11172,0.346491 -0.03,0.615419 -0.10255,0.194608 -0.1193,0.258288 -0.12455,0.473306 -0.007,0.316457 -0.1189,0.559039 -0.3525,0.769068 -0.19003,0.170854 -0.4652,0.317294 -0.5962,0.317294 -0.0501,0 -0.16776,0.0302 -0.26136,0.06708 -0.17017,0.06707 -0.17017,0.06707 -0.38394,-0.03298 -0.11757,-0.05502 -0.23494,-0.100031 -0.26082,-0.100031 -0.0931,0 -0.3037,-0.132341 -0.40369,-0.253646 -0.0561,-0.06805 -0.13446,-0.20206 -0.17413,-0.297803 -0.0726,-0.175075 -0.12417,-0.180769 -0.12526,-0.01382 -8.1e-4,0.167252 -0.10375,0.307252 -0.28673,0.391021 -0.0965,0.0442 -0.19211,0.112614 -0.21235,0.152027 -0.0644,0.125319 -0.20085,0.250229 -0.31433,0.287681 -0.0605,0.01996 -0.10992,0.05478 -0.10992,0.07741 0,0.05365 0.12061,0.162747 0.25496,0.230643 0.10664,0.0539 0.10664,0.0539 0.0859,0.299685 -0.0245,0.290408 -0.006,0.309206 0.25313,0.247209 0.22737,-0.05454 0.30889,-0.01454 0.54286,0.266324 0.10507,0.126145 0.22227,0.235712 0.26044,0.243481 0.0382,0.0078 0.15982,0.02864 0.27035,0.04633 0.11052,0.01771 0.27183,0.06552 0.35845,0.106238 0.21149,0.09942 0.50588,0.377742 0.67646,0.639548 0.0768,0.117874 0.14901,0.214111 0.16048,0.213864 0.0115,-2.48e-4 0.12237,-0.219008 0.24645,-0.486132 z M 350.6105,-89.7846 c 0.17299,-0.343527 0.4069,-0.677991 0.75901,-1.0853 0.16939,-0.195945 0.30799,-0.361816 0.30799,-0.368594 0,-0.0067 -0.0853,0.0077 -0.18951,0.03226 -0.23617,0.05557 -0.44827,0.05762 -0.59181,0.0057 -0.10805,-0.03907 -0.11385,-0.03641 -0.27702,0.126765 l -0.16668,0.166673 0.0518,0.174245 c 0.0628,0.211583 0.0427,0.313529 -0.0894,0.453487 l -0.10081,0.106749 0.0582,0.25579 c 0.0732,0.322074 0.087,0.371145 0.10417,0.371145 0.007,0 0.068,-0.107526 0.13418,-0.238945 z m 6.75247,-0.268045 0.0527,-0.391638 -0.10886,-0.0909 c -0.10382,-0.08669 -0.10893,-0.101589 -0.11021,-0.321527 -8.2e-4,-0.218986 -0.007,-0.235171 -0.10837,-0.320685 -0.0588,-0.04953 -0.13242,-0.13936 -0.16345,-0.199616 l -0.0564,-0.109559 -0.16479,0.0868 c -0.22392,0.117946 -0.52354,0.121488 -0.75515,0.0089 -0.30491,-0.148168 -0.71149,-0.667959 -0.71149,-0.909593 0,-0.04105 -0.0461,-0.189772 -0.10244,-0.330484 -0.12767,-0.318814 -0.12521,-0.572829 0.006,-0.663644 0.0438,-0.0302 0.12386,-0.09869 0.17798,-0.152206 l 0.0984,-0.0973 -0.27967,-0.05909 c -0.15383,-0.03249 -0.35383,-0.05989 -0.44447,-0.06086 -0.24972,-0.0027 -0.40328,-0.05862 -0.54213,-0.19748 -0.14322,-0.143218 -0.18522,-0.254152 -0.21601,-0.570506 -0.0136,-0.14043 -0.0343,-0.214987 -0.0557,-0.201711 -0.0216,0.01333 -0.0258,0.09503 -0.0115,0.222771 0.0678,0.603735 0.30889,1.21012 0.67211,1.69047 0.11202,0.14812 0.49462,0.570808 0.85025,0.939307 0.73897,0.765723 1.18632,1.268521 1.60777,1.807026 0.16191,0.206867 0.2984,0.361948 0.30332,0.344628 0.005,-0.01732 0.0327,-0.207732 0.0617,-0.423134 z m -3.33605,-1.363605 c 0.0686,-0.122234 0.19885,-0.348311 0.2894,-0.50239 0.26392,-0.449096 0.26373,-0.463549 -0.0115,-0.869975 -0.15901,-0.234844 -0.39326,-0.728025 -0.46811,-0.985521 -0.0301,-0.103351 -0.0647,-0.187749 -0.077,-0.18755 -0.0123,2.47e-4 -0.0722,0.137382 -0.1332,0.30486 -0.0609,0.167477 -0.20365,0.504728 -0.31711,0.749443 -0.2008,0.433051 -0.20472,0.446692 -0.14669,0.510852 0.0328,0.03626 0.10694,0.169732 0.16477,0.296624 0.0986,0.216342 0.52202,0.902806 0.55816,0.904935 0.009,3.81e-4 0.0726,-0.09904 0.14124,-0.221278 z m -2.46519,0.02209 c 0.0926,-0.02643 0.21183,-0.116007 0.40374,-0.303322 0.27231,-0.265802 0.27231,-0.265802 0.27231,-0.438287 0,-0.09487 0.0295,-0.266507 0.0655,-0.381417 0.036,-0.114906 0.0657,-0.280011 0.0659,-0.366896 3.7e-4,-0.149033 -0.009,-0.166757 -0.1723,-0.313102 -0.095,-0.08532 -0.27667,-0.252092 -0.40373,-0.370601 -0.12707,-0.118509 -0.2941,-0.270528 -0.37119,-0.337822 -0.20883,-0.182276 -0.0931,-0.148123 0.25552,0.0754 0.16962,0.108763 0.34011,0.19775 0.37885,0.19775 0.0936,0 0.39169,-0.05285 0.76939,-0.136408 0.27374,-0.06055 0.32354,-0.08322 0.44993,-0.204788 0.13407,-0.128945 0.14332,-0.149776 0.16329,-0.367402 0.0116,-0.126892 0.0497,-0.349358 0.0846,-0.494373 l 0.0634,-0.263666 -0.10339,-0.164792 c -0.11418,-0.181999 -0.20083,-0.347949 -0.25383,-0.486133 -0.0304,-0.07918 -0.0526,-0.09069 -0.17554,-0.09108 -0.21381,-7.61e-4 -0.28195,-0.02967 -0.35758,-0.152022 -0.11156,-0.180514 -0.16205,-0.191345 -0.4341,-0.09312 -0.16939,0.06116 -0.34085,0.09312 -0.58887,0.109754 -0.34717,0.02327 -0.35118,0.02452 -0.51086,0.157233 -0.19033,0.158185 -0.28108,0.209316 -0.37145,0.209316 -0.14086,0 -0.24163,0.08298 -0.37655,0.310101 -0.17281,0.290868 -0.20255,0.212119 -0.041,-0.108619 0.12273,-0.24371 0.19786,-0.306327 0.41456,-0.345466 0.0647,-0.01169 0.1887,-0.08134 0.28013,-0.157316 0.0903,-0.07499 0.21204,-0.15662 0.27064,-0.181393 0.0629,-0.02658 0.11316,-0.07532 0.12271,-0.118993 0.0892,-0.407706 0.11049,-0.861093 0.0488,-1.03819 -0.0395,-0.113178 -0.0863,-0.13639 -0.48685,-0.241395 -0.24515,-0.06426 -0.29633,-0.09198 -0.47481,-0.257149 l -0.20005,-0.185129 -0.27185,0.0023 c -0.32254,0.0027 -0.4195,0.05149 -0.5097,0.255816 -0.0333,0.07551 -0.0781,0.268789 -0.0994,0.429502 -0.0336,0.252907 -0.0309,0.334357 0.0202,0.605578 0.0507,0.269184 0.0531,0.339513 0.0176,0.498787 -0.084,0.375823 -0.0827,0.447263 0.0125,0.70826 0.0495,0.135657 0.08,0.262801 0.0678,0.282539 -0.0122,0.01973 -0.0804,-0.07923 -0.15166,-0.219952 -0.13555,-0.267836 -0.1618,-0.441232 -0.0996,-0.658081 0.0295,-0.102929 0.0222,-0.112899 -0.34379,-0.467429 -0.2748,-0.266209 -0.40733,-0.371263 -0.49982,-0.396223 -0.0692,-0.01866 -0.26214,-0.07149 -0.42869,-0.11736 -0.16655,-0.04586 -0.37419,-0.08325 -0.46142,-0.08307 -0.40305,7.62e-4 -1.02326,0.490234 -1.22872,0.969595 -0.0753,0.175547 -0.15447,0.607036 -0.12538,0.682846 0.01,0.02567 0.0975,0.06674 0.19473,0.0913 0.21782,0.05499 0.47503,0.182002 0.80559,0.397793 0.15267,0.09966 0.34518,0.191351 0.48742,0.232154 0.12931,0.0371 0.32409,0.100237 0.43286,0.140324 0.14712,0.05422 0.29899,0.07723 0.59324,0.08986 0.3629,0.01558 0.38735,0.02057 0.29663,0.06045 -0.17302,0.07607 -0.5436,0.08612 -0.8058,0.02186 -0.28926,-0.07088 -0.45323,-0.05285 -0.65532,0.07209 -0.1826,0.112895 -0.43304,0.414237 -0.56726,0.682564 -0.13771,0.275316 -0.13315,0.459847 0.0182,0.735193 0.0636,0.115698 0.14599,0.324569 0.1831,0.46415 0.0801,0.301353 0.18002,0.464804 0.36932,0.604066 0.18435,0.135639 0.57901,0.325365 0.67679,0.325365 0.0428,0 0.17917,-0.0445 0.30308,-0.09887 0.1239,-0.05438 0.25501,-0.09887 0.29135,-0.09887 0.12217,0 0.34808,-0.314496 0.63452,-0.88337 0.27709,-0.550314 0.27709,-0.550314 0.28863,-0.858682 0.006,-0.181576 -0.005,-0.3683 -0.0292,-0.454122 -0.0571,-0.203981 -0.0141,-0.218525 0.075,-0.02536 0.0624,0.135373 0.0745,0.217889 0.0745,0.507703 0,0.331805 -0.005,0.356708 -0.12339,0.60448 l -0.12339,0.258422 0.11652,0.26891 c 0.13999,0.323076 0.16153,0.351768 0.31857,0.424356 0.0679,0.03142 0.16151,0.115668 0.2103,0.189398 0.0622,0.09408 0.12298,0.142273 0.20811,0.165196 0.0661,0.01779 0.20877,0.07009 0.31703,0.116206 0.2113,0.09 0.44098,0.09431 0.72375,0.01359 z m -0.66416,-2.850233 c -0.0109,-0.02841 -0.004,-0.06783 0.0161,-0.08759 0.0476,-0.04759 0.14078,0.02673 0.11564,0.09222 -0.0241,0.06283 -0.10698,0.05992 -0.13175,-0.0046 z m 0.26451,0.0023 c -0.0288,-0.07513 0.0116,-0.149845 0.0692,-0.127753 0.067,0.02574 0.0672,0.177189 2.4e-4,0.177189 -0.0278,0 -0.059,-0.02224 -0.0695,-0.04944 z m 0.24077,-0.03845 c -0.0121,-0.01208 -0.022,-0.05025 -0.022,-0.08481 0,-0.08982 0.11258,-0.06034 0.12589,0.03298 0.0102,0.07109 -0.0531,0.102652 -0.10391,0.05185 z m -0.69957,-0.04711 c -0.0349,-0.05635 0.0751,-0.15114 0.12144,-0.104754 0.0206,0.02068 0.0286,0.06081 0.0177,0.08922 -0.0228,0.05944 -0.1063,0.06875 -0.13921,0.01554 z m -0.95459,-0.09488 c 0.13769,-0.152141 0.3389,-0.211342 0.72482,-0.213258 0.30683,-0.0015 0.38113,0.0085 0.47626,0.06442 0.13995,0.08223 0.17845,0.165364 0.0646,0.139536 -0.0431,-0.0098 -0.12759,-0.03775 -0.18763,-0.06211 -0.10271,-0.04168 -0.11283,-0.03946 -0.17086,0.03748 l -0.0617,0.08178 -0.0343,-0.09025 c -0.0214,-0.05633 -0.0587,-0.09025 -0.0994,-0.09025 -0.11521,0 -0.40362,0.07165 -0.5428,0.134866 -0.18405,0.08358 -0.24589,0.08277 -0.16899,-0.0023 z m 1.35885,-0.117941 c -0.23051,-0.156639 -0.36257,-0.18289 -0.91145,-0.181203 -0.36466,0.0011 -0.49904,-0.0085 -0.47354,-0.03405 0.0572,-0.05719 0.53158,-0.103462 0.81789,-0.07978 0.34753,0.02875 0.74156,0.205142 0.74156,0.331988 0,0.06631 -0.0327,0.05938 -0.17446,-0.03694 z m 0.21241,-0.02517 c -0.0303,-0.03648 -0.0275,-0.05605 0.0124,-0.08925 0.077,-0.06387 0.14789,0.01436 0.0772,0.08511 -0.0437,0.04371 -0.0563,0.04429 -0.0896,0.0041 z m -0.19021,-0.202199 c -0.0237,-0.06155 0.0109,-0.116932 0.0729,-0.116932 0.0674,0 0.099,0.09919 0.043,0.134656 -0.0655,0.04149 -0.0949,0.03702 -0.11587,-0.01771 z m -0.20434,-0.155545 c 0.0122,-0.0827 0.0563,-0.10489 0.12377,-0.06224 0.0392,0.02479 0.0399,0.03881 0.004,0.08186 -0.0641,0.07724 -0.1405,0.06553 -0.12797,-0.01962 z m -0.2037,-0.02536 c 0,-0.03519 0.0132,-0.0721 0.0292,-0.08203 0.0401,-0.02479 0.11332,0.06905 0.087,0.1116 -0.0361,0.05837 -0.11625,0.03797 -0.11625,-0.02955 z m 5.93167,3.390603 c 0.11737,-0.05552 0.29091,-0.111132 0.38563,-0.123566 0.16211,-0.02129 0.17957,-0.0331 0.29743,-0.201391 0.0972,-0.13877 0.15687,-0.189284 0.26663,-0.225662 0.17804,-0.05901 0.22002,-0.127646 0.26787,-0.437906 0.0384,-0.249106 0.0384,-0.249106 -0.0863,-0.510853 -0.11758,-0.246847 -0.12538,-0.283084 -0.1369,-0.636749 -0.009,-0.269473 -0.002,-0.368632 0.0245,-0.352355 0.0202,0.01246 0.0367,0.0952 0.0367,0.183876 0,0.269291 0.0646,0.496095 0.23004,0.807152 0.0867,0.163143 0.20653,0.415273 0.26618,0.560289 0.12806,0.311346 0.30275,0.510814 0.44745,0.51092 0.052,3.8e-5 0.18254,0.04647 0.29013,0.103188 0.19459,0.102567 0.19643,0.102834 0.34606,0.05079 0.0827,-0.02879 0.20976,-0.06217 0.28227,-0.07421 0.29785,-0.04942 0.59407,-0.286025 0.74283,-0.593315 0.0507,-0.104749 0.066,-0.195572 0.0613,-0.365033 -0.006,-0.210664 0.002,-0.240812 0.13041,-0.455771 0.15564,-0.26228 0.16683,-0.360856 0.0652,-0.575123 -0.10954,-0.231108 -0.5916,-0.692516 -0.8632,-0.826224 l -0.22472,-0.110625 -0.26905,0.138297 c -0.22465,0.115474 -0.30023,0.13821 -0.4579,0.13776 -0.17887,-3.81e-4 -0.45385,-0.0793 -0.45385,-0.130041 0,-0.01291 0.12236,-0.01721 0.27191,-0.0096 0.26501,0.01355 0.27818,0.01059 0.5191,-0.116658 0.2116,-0.111776 0.28559,-0.133107 0.51403,-0.148188 0.3205,-0.02118 0.376,-0.04783 0.77134,-0.370608 0.3434,-0.280381 0.42598,-0.330244 0.60144,-0.36316 0.0667,-0.01253 0.13866,-0.04368 0.15989,-0.06927 0.0847,-0.10203 -0.0799,-0.787656 -0.25221,-1.050682 -0.10111,-0.154343 -0.28942,-0.307744 -0.40866,-0.332901 -0.11708,-0.02472 -0.2007,-0.06601 -0.30813,-0.152206 -0.12206,-0.09794 -0.48731,-0.120071 -0.77315,-0.04685 -0.38129,0.09768 -0.49518,0.172881 -0.92287,0.609348 -0.40408,0.412379 -0.40408,0.412379 -0.38375,0.565617 0.0248,0.186912 -0.0369,0.505996 -0.10931,0.565666 -0.0473,0.03896 -0.0505,0.0334 -0.0296,-0.05075 0.0556,-0.223213 0.0585,-0.287247 0.0177,-0.39002 -0.0282,-0.07109 -0.0495,-0.348786 -0.0614,-0.801785 -0.0183,-0.693042 -0.0183,-0.693042 -0.12346,-0.906348 -0.12217,-0.24785 -0.22823,-0.325316 -0.48117,-0.351419 -0.21809,-0.02251 -0.34115,0.02902 -0.60019,0.2513 -0.13923,0.119487 -0.25138,0.184444 -0.37902,0.219545 -0.31834,0.08755 -0.46127,0.149232 -0.49595,0.214027 -0.0401,0.07503 -0.009,0.881648 0.0399,1.043272 0.0279,0.09176 0.0568,0.113954 0.20335,0.156566 0.0984,0.0286 0.24335,0.109037 0.34192,0.189707 0.0941,0.07702 0.25988,0.174256 0.36836,0.21606 0.128,0.04933 0.23848,0.121663 0.31475,0.206087 0.17952,0.198706 0.14932,0.263463 -0.0425,0.09104 -0.10017,-0.09007 -0.22714,-0.165001 -0.33967,-0.200469 -0.0988,-0.03115 -0.26019,-0.116708 -0.35857,-0.190115 -0.20141,-0.15027 -0.20804,-0.152319 -0.58562,-0.180909 -0.15059,-0.01138 -0.35823,-0.0506 -0.46141,-0.0871 -0.39406,-0.139425 -0.34702,-0.14631 -0.6026,0.08823 -0.16425,0.150732 -0.26515,0.217493 -0.3525,0.233226 -0.15969,0.02875 -0.20476,0.0678 -0.20476,0.177325 0,0.08341 -0.14823,0.328949 -0.22853,0.378583 -0.0615,0.03805 -0.0379,0.240469 0.051,0.437103 0.0556,0.122855 0.0901,0.264508 0.0972,0.399115 0.0218,0.40769 0.20718,0.630873 0.52527,0.632214 0.0906,3.77e-4 0.26861,0.02269 0.39549,0.04956 0.41637,0.08819 0.47932,0.0758 0.74418,-0.146584 0.22381,-0.187925 0.45143,-0.298924 0.61298,-0.298924 0.12018,0 0.0897,0.05101 -0.0599,0.100396 -0.22059,0.0728 -0.40827,0.217532 -0.63171,0.48715 -0.11527,0.139089 -0.27258,0.319629 -0.34957,0.401197 -0.12829,0.135918 -0.13846,0.159331 -0.12164,0.280145 0.0101,0.07251 0.0554,0.22082 0.10074,0.329584 0.0453,0.108759 0.0831,0.234825 0.0839,0.280145 0.002,0.133038 0.11054,0.333176 0.28358,0.524969 0.34819,0.385934 0.60176,0.452778 1.00103,0.263887 z m -0.39469,-2.866791 c 0,-0.111426 0.15907,-0.224462 0.44139,-0.313646 0.49329,-0.155828 0.83117,-0.14131 0.97529,0.0419 0.12668,0.16104 0.0575,0.192696 -0.12209,0.05579 -0.10432,-0.07958 -0.1324,-0.08487 -0.3935,-0.07414 -0.26633,0.01093 -0.28528,0.01672 -0.35945,0.10973 -0.0619,0.07767 -0.0867,0.08972 -0.11881,0.05766 -0.0609,-0.0609 -0.12621,-0.04876 -0.12621,0.02346 0,0.08671 -0.0675,0.122767 -0.10485,0.05601 -0.0432,-0.07729 -0.0825,-0.06683 -0.10643,0.02833 -0.0249,0.09914 -0.0853,0.1097 -0.0853,0.01489 z m -0.22509,-0.01976 c 0.007,-0.03317 0.0388,-0.06552 0.0719,-0.07191 0.0436,-0.0084 0.057,0.0051 0.0487,0.04868 -0.007,0.03317 -0.0388,0.06552 -0.0719,0.07191 -0.0436,0.0084 -0.0571,-0.0051 -0.0487,-0.04868 z m 0.0314,-0.220996 c -0.0401,-0.04827 -0.0173,-0.08724 0.051,-0.08724 0.0491,0 0.0601,0.08496 0.0147,0.113044 -0.0161,0.0099 -0.0456,-0.0015 -0.0657,-0.02582 z m 0.22183,-0.142267 c -0.0694,-0.01843 -0.0996,-0.130055 -0.047,-0.173685 0.0456,-0.03782 0.11776,0.0155 0.11776,0.08699 0,0.05273 0.0403,0.05526 0.0899,0.0057 0.0276,-0.02761 0.0274,-0.05286 -7.7e-4,-0.09805 -0.0284,-0.04549 -0.0285,-0.07034 -3.8e-4,-0.09837 0.0496,-0.04957 0.10916,-0.0099 0.10916,0.07271 0,0.03626 0.0148,0.05675 0.0329,0.04555 0.0181,-0.0112 0.0329,-0.05657 0.0329,-0.100816 0,-0.09165 0.0567,-0.105644 0.11348,-0.02799 0.0325,0.04448 0.0594,0.04679 0.17684,0.01515 0.15738,-0.04238 0.79836,-0.04178 0.86723,7.62e-4 0.0376,0.02327 0.0359,0.03762 -0.0102,0.08372 -0.0502,0.05025 -0.0797,0.05152 -0.30467,0.01302 -0.31612,-0.05408 -0.5295,-0.0299 -0.85301,0.09664 -0.14164,0.0554 -0.26029,0.09901 -0.26366,0.09691 -0.003,-0.0023 -0.0306,-0.01032 -0.0605,-0.01824 z m -3.7022,2.727222 c 0.24259,-0.253124 0.37147,-0.448855 0.57677,-0.875976 0.34491,-0.717549 0.52555,-1.260105 0.5262,-1.580344 7.6e-4,-0.29379 -0.0668,-0.185297 -0.10227,0.164667 -0.0198,0.19527 -0.0515,0.323445 -0.099,0.400378 -0.13032,0.210855 -0.40353,0.332209 -0.95183,0.422776 -0.44608,0.07368 -0.43472,0.06066 -0.22362,0.256216 0.2384,0.220829 0.26018,0.318229 0.1632,0.730143 -0.0917,0.389753 -0.1229,0.644347 -0.0788,0.644347 0.0187,0 0.10397,-0.073 0.18946,-0.162207 z m -6.30836,-1.274165 c 0.43463,-0.08245 0.46279,-0.100842 0.6084,-0.397424 0.0973,-0.198126 0.19246,-0.324625 0.40474,-0.537899 0.20744,-0.208417 0.26599,-0.285563 0.23176,-0.305427 -0.0252,-0.01463 -0.17186,-0.103044 -0.32594,-0.196505 -0.44533,-0.270128 -0.59804,-0.345992 -0.78238,-0.388638 -0.21218,-0.04909 -0.32864,-0.136626 -0.3653,-0.274572 -0.024,-0.09055 -0.0407,-0.103619 -0.12091,-0.09475 -0.13203,0.01463 -0.35392,0.133567 -0.76491,0.410048 -0.37797,0.25427 -0.59106,0.338869 -0.96569,0.383389 l -0.21423,0.02544 0.14856,0.06694 c 0.2224,0.100217 0.34115,0.215264 0.60161,0.58291 0.27597,0.389529 0.46251,0.600082 0.59009,0.666063 0.22838,0.118097 0.54454,0.13811 0.9542,0.0604 z m -2.22712,-1.624948 c 0.51088,-0.0305 0.60054,-0.06473 1.163,-0.443885 0.24181,-0.163003 0.43929,-0.269995 0.56029,-0.303566 0.10277,-0.02852 0.20681,-0.05832 0.23119,-0.06623 0.035,-0.01135 0.0315,-0.0342 -0.0165,-0.108276 -0.10371,-0.160123 -0.2309,-0.295682 -0.35901,-0.382624 -0.18325,-0.124354 -0.48079,-0.115359 -1.05539,0.03191 -0.42954,0.110089 -0.47615,0.115352 -1.0215,0.115352 -0.31428,0 -0.65001,0.01684 -0.74607,0.0374 -0.58161,0.124469 -1.09858,0.644267 -0.85763,0.862323 0.10881,0.09847 0.44877,0.232067 0.64888,0.25499 0.27797,0.03184 0.94348,0.03305 1.45273,0.0027 z m 20.91052,-0.499876 c 0.12307,-0.01984 0.26683,-0.06909 0.33782,-0.115748 0.108,-0.07097 0.12359,-0.09753 0.12359,-0.21044 0,-0.268144 -0.12959,-0.440438 -0.49929,-0.663815 -0.35227,-0.212847 -0.46615,-0.235841 -0.95048,-0.191901 -0.45815,0.04156 -0.74955,0.02457 -1.21243,-0.07066 -0.58842,-0.121068 -0.82255,-0.07819 -1.15206,0.211004 -0.23412,0.205469 -0.27254,0.232402 -0.27254,0.191016 0,-0.06951 0.44572,-0.509409 0.57677,-0.569231 0.18539,-0.08463 0.49648,-0.07784 0.95259,0.02075 0.2096,0.04532 0.41814,0.08239 0.46342,0.08239 0.0953,0 0.12712,-0.08137 0.1106,-0.283286 -0.016,-0.195225 -0.16472,-0.253105 -0.91818,-0.357298 -0.33605,-0.04647 -0.6601,-0.0845 -0.72009,-0.0845 -0.20624,0 -0.31559,0.08449 -0.51358,0.396799 l -0.18574,0.292997 0.10352,0.322505 c 0.057,0.177375 0.11435,0.358924 0.1276,0.403433 0.0207,0.06959 0.0538,0.0858 0.23605,0.115634 0.14924,0.02445 0.34365,0.10088 0.65691,0.258303 0.61565,0.309389 0.693,0.323198 1.69734,0.303068 0.45317,-0.0091 0.92036,-0.03207 1.03818,-0.05105 z m -11.1334,-0.422407 c 0.0186,-0.120211 0.0565,-0.263055 0.0841,-0.317436 0.0276,-0.05439 0.19804,-0.243481 0.37862,-0.420215 l 0.32834,-0.321344 h 0.30421 c 0.29866,0 0.30737,-0.0023 0.47799,-0.123593 0.13861,-0.09857 0.18813,-0.159953 0.24458,-0.303189 0.0831,-0.210847 0.16617,-0.269565 0.52018,-0.367665 0.1327,-0.03679 0.26167,-0.08379 0.28661,-0.104491 0.0893,-0.07412 0.008,-0.333995 -0.44491,-1.424611 -0.18888,-0.454679 -0.19165,-0.465986 -0.18977,-0.774523 8.1e-4,-0.1722 0.0201,-0.39467 0.0423,-0.49437 0.0639,-0.28609 0.0891,-0.79099 0.0396,-0.79099 -0.0225,0 -0.20903,0.0446 -0.41451,0.099 -0.72261,0.19151 -1.05811,0.23063 -1.97198,0.22991 -0.86472,-7.6e-4 -1.07696,-0.0188 -1.61425,-0.13754 -0.26227,-0.058 -0.32899,-0.0634 -0.35062,-0.0284 -0.0146,0.0238 -0.0364,0.21557 -0.0483,0.42624 -0.032,0.56797 -0.0727,0.80285 -0.2543,1.464382 -0.13791,0.502569 -0.16743,0.660822 -0.18256,0.978543 -0.0184,0.387195 0.0198,0.649485 0.0985,0.675713 0.0217,0.0072 0.1011,0.0289 0.17642,0.04817 0.19514,0.04989 0.27584,0.128807 0.32279,0.315665 0.038,0.151273 0.0518,0.167238 0.18616,0.214713 0.0798,0.02822 0.19706,0.07508 0.26058,0.10417 0.0879,0.04026 0.15086,0.04618 0.26367,0.02479 0.25315,-0.048 0.51158,0.01802 0.68268,0.174412 0.0402,0.03675 0.11093,0.165859 0.1572,0.286935 0.0503,0.131724 0.12994,0.264542 0.1982,0.330704 0.1208,0.117085 0.15329,0.19382 0.21586,0.509779 l 0.0389,0.19671 0.0648,-0.126461 c 0.0357,-0.06955 0.0801,-0.224808 0.0987,-0.345016 z m 0.25722,-3.608815 c 0,-0.103303 -0.0223,-0.241066 -0.0494,-0.306145 -0.0272,-0.06507 -0.0494,-0.13164 -0.0494,-0.147921 0,-0.03423 0.25231,0.08679 0.33802,0.162138 0.17114,0.15047 0.0749,-0.175437 -0.12815,-0.434214 -0.0797,-0.1016 -0.18068,-0.1926 -0.22634,-0.20407 -0.0453,-0.0114 -0.0824,-0.0339 -0.0824,-0.0501 0,-0.0495 0.20446,-0.0307 0.39549,0.0365 0.21922,0.0771 0.23071,0.0781 0.23071,0.0203 0,-0.0703 -0.25174,-0.28144 -0.44033,-0.36925 -0.16171,-0.0753 -0.16464,-0.0789 -0.0644,-0.0792 0.23207,-7.7e-4 0.51799,0.19961 0.63762,0.44673 0.0976,0.2016 0.0571,0.24788 -0.14972,0.17122 -0.0814,-0.0302 -0.14793,-0.0457 -0.14793,-0.0346 0,0.0111 0.0366,0.0827 0.0813,0.15899 0.10683,0.182288 0.16179,0.424996 0.11572,0.511069 -0.0459,0.08581 -0.0668,0.08226 -0.21659,-0.03675 l -0.1275,-0.101322 -0.0362,0.200043 c -0.0479,0.265052 -0.0804,0.287872 -0.0804,0.05648 z m -0.60722,3.754562 c -0.0111,-0.05885 -0.0855,-0.191287 -0.16552,-0.294303 -0.08,-0.103013 -0.16978,-0.260562 -0.19952,-0.350113 -0.11355,-0.34187 -0.34268,-0.462817 -0.74745,-0.394544 -0.19767,0.03333 -0.23653,0.03157 -0.28569,-0.01291 -0.0313,-0.02833 -0.11051,-0.07389 -0.17602,-0.101266 -0.0976,-0.04079 -0.12557,-0.04199 -0.15486,-0.0067 -0.0431,0.05194 -0.11963,0.687204 -0.0916,0.760298 0.0287,0.07469 0.17112,0.06444 0.45283,-0.0326 0.42475,-0.146291 0.58444,-0.118098 0.71035,0.125406 0.0438,0.08475 0.0609,0.09071 0.25945,0.09071 0.20202,0 0.21502,0.0048 0.26282,0.09724 0.0276,0.05348 0.0503,0.121193 0.0503,0.150476 0,0.02929 0.0179,0.08564 0.0397,0.125231 0.0364,0.06591 0.0409,0.06684 0.0525,0.01101 0.007,-0.03351 0.004,-0.109122 -0.007,-0.167973 z m 0.53981,-0.04297 c 0.002,-0.09999 0.11413,-0.205988 0.21788,-0.205988 0.12184,0 0.2029,-0.05035 0.43168,-0.268083 0.11173,-0.106334 0.22388,-0.193332 0.24924,-0.193332 0.0254,0 0.17125,0.04212 0.3242,0.09361 0.50102,0.16865 0.45387,0.194737 0.44032,-0.243592 -0.006,-0.209068 -0.0206,-0.394369 -0.0313,-0.411781 -0.0232,-0.03743 -0.122,0.0094 -0.25704,0.121728 -0.0831,0.06913 -0.12627,0.0775 -0.39979,0.0775 h -0.30662 l -0.33,0.32383 c -0.35585,0.349199 -0.36074,0.358951 -0.41518,0.829705 -0.0172,0.148101 -0.0171,0.148169 0.029,0.04944 0.0254,-0.05438 0.0468,-0.132246 0.0476,-0.17303 z m -11.40203,-0.457691 c 0.0997,-0.02833 0.38876,-0.06116 0.64236,-0.07294 l 0.4611,-0.0214 0.0216,-0.151509 c 0.0343,-0.240906 0.1054,-0.344159 0.29984,-0.435495 0.0955,-0.04485 0.19953,-0.09008 0.23125,-0.10053 0.0889,-0.02928 0.0706,-0.06996 -0.0982,-0.218579 -0.20236,-0.178124 -0.81043,-0.477151 -1.14598,-0.563544 -0.58797,-0.151391 -1.29795,0.05425 -1.57995,0.457614 -0.13328,0.190648 -0.15663,0.505875 -0.0549,0.741481 0.0722,0.167195 0.3516,0.487997 0.51,0.585534 0.0935,0.05756 0.0971,0.05693 0.31309,-0.05543 0.12019,-0.06251 0.3001,-0.13685 0.3998,-0.165188 z m 3.66954,-0.07611 c 0.0846,-0.179507 0.0846,-0.179507 0.0145,-0.304403 -0.20331,-0.361758 -0.45276,-0.520761 -0.81661,-0.52054 -0.1756,1.06e-4 -0.32379,0.03721 -0.82183,0.205667 -0.65794,0.222561 -0.71387,0.259591 -0.73361,0.485679 -0.009,0.10189 -3.8e-4,0.116483 0.0728,0.125037 0.0456,0.0054 0.29694,-0.04288 0.55856,-0.107115 0.86117,-0.211456 1.21386,-0.134828 1.51032,0.328138 0.0835,0.130421 0.0847,0.130951 0.10785,0.04944 0.0129,-0.04532 0.0615,-0.16317 0.10806,-0.261899 z m 3.05619,-0.255225 c -0.0429,-0.154613 -0.0451,-0.524441 -0.005,-0.772187 0.06,-0.36645 0.10191,-0.468789 0.24793,-0.60578 0.12578,-0.118026 0.14293,-0.152548 0.16363,-0.329584 0.0352,-0.301072 0.11368,-0.597192 0.23978,-0.904864 0.10929,-0.266647 0.11161,-0.280666 0.0539,-0.325292 -0.20776,-0.160642 -0.93913,-0.41743 -1.60934,-0.565051 -0.18127,-0.0399 -0.56515,-0.13114 -0.85305,-0.2027 -0.28792,-0.0716 -0.5294,-0.12419 -0.53663,-0.11696 -0.007,0.007 0.10018,0.12268 0.2387,0.25654 0.29416,0.284255 0.70712,0.78693 0.87735,1.067958 0.29406,0.485459 0.48519,1.124732 0.50698,1.695635 l 0.0132,0.347145 0.33458,0.329581 c 0.18403,0.181271 0.34083,0.311925 0.34846,0.290347 0.007,-0.02159 -0.002,-0.09573 -0.021,-0.164788 z m 16.19525,-0.117318 c 0.2233,-0.230959 0.36199,-0.480518 0.41956,-0.754954 0.0531,-0.253371 -0.0189,-0.444597 -0.25459,-0.676272 -0.14585,-0.143333 -0.21646,-0.184124 -0.44216,-0.255425 -0.32373,-0.102262 -0.53369,-0.106714 -0.85347,-0.01809 -0.40465,0.112134 -0.71203,0.287328 -1.20263,0.685432 l -0.22538,0.18289 0.21686,0.07027 c 0.11927,0.03865 0.25407,0.105215 0.29954,0.147934 0.0727,0.06836 0.0827,0.104912 0.0827,0.305104 v 0.227436 l 0.30486,-0.02719 c 0.57005,-0.05084 0.67248,-0.03572 1.02876,0.151771 0.17462,0.0919 0.34209,0.167097 0.37215,0.167097 0.0301,0 0.14428,-0.0927 0.25383,-0.205988 z m -6.8502,-0.646536 c -0.0731,-0.333523 -0.0903,-0.612167 -0.0545,-0.881153 0.0854,-0.641913 0.40082,-1.198562 1.06714,-1.883431 0.24987,-0.25682 0.31244,-0.33787 0.2608,-0.33787 -0.12201,0 -1.72979,0.41977 -2.08456,0.544263 -0.37523,0.131667 -0.85706,0.342541 -0.85666,0.374912 1.2e-4,0.01108 0.071,0.161026 0.15746,0.333233 0.0865,0.172207 0.20515,0.447271 0.26373,0.611252 0.091,0.254632 0.1282,0.316267 0.255,0.422258 0.28808,0.240808 0.43239,0.691507 0.39723,1.240602 l -0.0201,0.313103 0.31673,-0.325191 c 0.27562,-0.282993 0.31425,-0.336451 0.29771,-0.411978 z m -12.06778,0.59042 c 0.0868,-0.09591 0.50972,-0.381303 0.66058,-0.445767 0.20312,-0.0868 0.48249,-0.07575 0.81111,0.03211 0.3993,0.13103 0.40538,0.126449 0.38348,-0.289011 -0.032,-0.606769 -0.22063,-1.146318 -0.60631,-1.734118 -0.14485,-0.220761 -0.37358,-0.46821 -1.02972,-1.113998 l -0.84352,-0.83019 -0.0745,0.40174 c -0.0796,0.42916 -0.20397,0.93741 -0.28645,1.170872 -0.0505,0.142936 -0.0505,0.142936 0.0774,0.296623 0.24666,0.296589 0.32617,0.559744 0.39995,1.323705 0.0629,0.651221 0.13323,0.92183 0.30196,1.161772 0.0754,0.107203 0.12695,0.113776 0.20614,0.02628 z m 14.44819,-0.316023 c 0.0597,-0.131118 0.0998,-0.472121 0.13743,-1.168654 0.0191,-0.353479 0.0502,-0.730657 0.0692,-0.838179 0.0371,-0.209983 0.15864,-0.558681 0.23829,-0.683566 0.0453,-0.07092 0.0381,-0.105408 -0.0947,-0.455742 -0.079,-0.20847 -0.18293,-0.54217 -0.23093,-0.74156 -0.048,-0.1994 -0.0904,-0.36584 -0.0942,-0.36988 -0.004,-0.004 -0.0696,0.0879 -0.14608,0.20432 -0.085,0.12929 -0.36209,0.42545 -0.71203,0.76106 -0.66291,0.63575 -0.86447,0.867105 -1.08244,1.242467 -0.19367,0.333519 -0.27323,0.582327 -0.30284,0.946995 -0.0227,0.279771 0.0185,0.675397 0.0765,0.733319 0.0178,0.01782 0.11914,0.0023 0.25158,-0.03863 0.26639,-0.08228 0.83788,-0.09629 0.97282,-0.02384 0.0816,0.04381 0.24723,0.127829 0.52034,0.263944 0.0777,0.03874 0.1806,0.11122 0.22862,0.161068 0.10734,0.111422 0.12061,0.111962 0.16849,0.0069 z m -16.21737,-0.165299 c 0.0596,-0.04175 0.0733,-0.08321 0.0736,-0.22247 2.5e-4,-0.09414 0.0437,-0.31495 0.0967,-0.490687 0.0786,-0.260611 0.0905,-0.340682 0.0647,-0.43425 -0.0885,-0.320342 -0.59467,-0.858051 -0.99838,-1.060496 -0.40056,-0.200858 -0.75531,-0.146338 -0.89632,0.137756 -0.0861,0.173419 -0.086,0.646031 1.1e-4,0.902 0.12708,0.377665 0.1587,0.415204 0.48933,0.581066 0.36131,0.181253 0.54635,0.30255 0.75595,0.495543 0.16899,0.155595 0.28595,0.181439 0.41429,0.09154 z m 1.16087,-0.03515 c 0,-0.01127 -0.0232,-0.259705 -0.0517,-0.552047 -0.08,-0.822214 -0.15268,-1.068361 -0.39505,-1.336639 -0.10929,-0.120972 -0.29423,-0.22819 -0.3307,-0.191717 -0.01,0.0095 0.006,0.10633 0.034,0.215181 0.0288,0.110953 0.0513,0.33417 0.0513,0.508022 0,0.267193 -0.0159,0.357508 -0.11535,0.652642 -0.0664,0.197126 -0.11536,0.407786 -0.11536,0.496255 v 0.153721 l 0.30487,-0.01565 c 0.22937,-0.01177 0.33342,-0.003 0.42021,0.03484 0.12507,0.05478 0.19775,0.06779 0.19775,0.03538 z m 15.79188,-0.378762 c 0.097,-0.0019 0.24679,0.0072 0.3329,0.0203 l 0.15654,0.02392 v -0.146738 c 0,-0.109178 -0.0422,-0.232981 -0.16478,-0.483713 l -0.1648,-0.33698 -1.3e-4,-0.451095 c -2.4e-4,-0.503373 -0.0359,-0.698281 -0.12808,-0.698281 -0.0801,0 -0.14991,0.08331 -0.23393,0.279347 -0.12492,0.291448 -0.16302,0.546171 -0.2477,1.656059 l -0.0206,0.27102 0.14719,-0.06511 c 0.0809,-0.0358 0.22655,-0.06674 0.32353,-0.06874 z m 0.98473,0.04754 c 0.0448,-0.03032 0.21496,-0.161977 0.37811,-0.292578 0.16314,-0.130604 0.39114,-0.302313 0.50668,-0.381577 0.14954,-0.102594 0.22231,-0.177352 0.25257,-0.259468 0.0234,-0.06345 0.0675,-0.182094 0.0978,-0.263666 0.0428,-0.114689 0.0524,-0.226766 0.0424,-0.494373 -0.0147,-0.395005 -0.0879,-0.58828 -0.25552,-0.674963 -0.1255,-0.0649 -0.47794,-0.06508 -0.66142,-3.73e-4 -0.29376,0.103645 -0.63137,0.440336 -0.92319,0.920664 -0.16114,0.265258 -0.15957,0.300523 0.0332,0.744907 0.079,0.182143 0.13407,0.368114 0.14653,0.494845 0.011,0.111667 0.0281,0.216229 0.0381,0.232354 0.0306,0.04954 0.25855,0.03249 0.34472,-0.02578 z m -11.86469,-0.513407 c 8.1e-4,-0.467181 0.009,-0.514241 0.24089,-1.425442 0.15254,-0.599921 0.29083,-1.606101 0.22921,-1.667721 -0.0149,-0.0149 -0.18263,-0.0856 -0.37275,-0.15712 -1.40432,-0.52828 -1.88779,-0.89094 -2.68447,-2.01361 -0.19871,-0.28003 -0.45746,-0.61107 -0.57499,-0.73565 -0.19949,-0.21148 -0.25348,-0.24596 -0.81293,-0.51912 -0.46937,-0.22918 -0.63331,-0.32665 -0.75635,-0.44969 -0.21279,-0.2128 -0.24679,-0.31135 -0.26904,-0.78004 -0.0181,-0.38068 -0.0699,-0.61474 -0.13607,-0.61474 -0.0166,0 -0.0681,0.0297 -0.11436,0.0662 -0.0463,0.0364 -0.12956,0.0753 -0.18503,0.0864 -0.0851,0.017 -0.11896,0.002 -0.2169,-0.0959 -0.0638,-0.0638 -0.11604,-0.13977 -0.11604,-0.16877 0,-0.0651 -0.0774,-0.069 -0.12919,-0.007 -0.0211,0.0254 -0.0524,0.0952 -0.0695,0.1551 -0.027,0.0941 -0.0157,0.13889 0.0838,0.33107 0.0632,0.12222 0.115,0.25332 0.115,0.29134 0,0.11724 -0.14404,0.23091 -0.2926,0.23091 -0.16348,0 -0.25433,-0.0734 -0.54483,-0.43994 -0.21127,-0.26661 -0.31877,-0.35106 -0.44688,-0.35106 -0.0431,0 -0.0686,0.0324 -0.0844,0.10712 -0.0304,0.14369 -0.13403,0.24993 -0.26835,0.27514 -0.0608,0.0114 -0.1185,0.0337 -0.12834,0.0496 -0.031,0.0502 0.13508,0.18612 0.3636,0.29754 0.35539,0.17328 0.46578,0.37218 0.31377,0.56541 -0.0796,0.10124 -0.21842,0.13775 -0.34322,0.0903 -0.0503,-0.0191 -0.19005,-0.12177 -0.31059,-0.22812 -0.24118,-0.21277 -0.3206,-0.24975 -0.4671,-0.21758 -0.0928,0.0204 -0.0981,0.0305 -0.0981,0.1853 0,0.13372 -0.0156,0.17821 -0.0851,0.24263 -0.0468,0.0434 -0.11726,0.0835 -0.15655,0.0891 -0.051,0.007 -0.0714,0.0332 -0.0714,0.0907 0,0.11561 0.15202,0.192 0.46358,0.23295 0.46507,0.0611 0.67348,0.18856 0.67348,0.41173 0,0.14224 -0.18413,0.30209 -0.38101,0.33076 -0.17803,0.0259 -0.34407,0.0973 -0.34407,0.14784 0,0.0176 0.0207,0.0321 0.046,0.0321 0.0711,0 0.2506,0.22351 0.2506,0.3121 0,0.0435 -0.0152,0.11921 -0.0339,0.16822 -0.0431,0.11334 -0.0306,0.12384 0.14385,0.12121 0.0925,-0.002 0.21773,-0.0396 0.35253,-0.1077 0.17638,-0.089 0.23498,-0.10304 0.37506,-0.0896 0.23138,0.0223 0.36871,0.18033 0.51444,0.5922 0.24283,0.68633 0.58439,1.15633 1.01988,1.40343 0.18743,0.10635 0.22851,0.0987 0.2328,-0.0434 8.1e-4,-0.0363 0.0207,-0.10978 0.0435,-0.1634 0.0416,-0.0975 0.0416,-0.0975 0.23538,0.16479 0.3044,0.412 0.49545,0.59784 0.68803,0.66926 0.093,0.0345 0.39157,0.11068 0.66347,0.16931 1.33859,0.28864 1.57179,0.34322 1.86214,0.43588 0.61156,0.195158 1.09731,0.513005 1.25431,0.820741 0.11828,0.231847 0.0778,0.254754 -0.11464,0.06476 -0.10936,-0.108001 -0.1972,-0.169316 -0.22648,-0.158082 -0.11406,0.04377 -0.36975,0.999867 -0.30943,1.157066 0.0143,0.03732 0.0622,0.05314 0.16147,0.05327 0.23292,2.51e-4 0.36168,0.05571 0.56957,0.2451 0.10876,0.09908 0.20887,0.180829 0.22247,0.181659 0.0136,7.62e-4 0.0253,-0.194996 0.0258,-0.435179 z m -6.28103,-5.357983 c -0.17924,-0.0842 -0.30017,-0.23617 -0.36484,-0.45863 -0.12688,-0.43647 0.0968,-0.89343 0.48936,-0.9999 0.12119,-0.0328 0.15631,-0.0297 0.25553,0.0233 0.0905,0.0483 0.13266,0.10562 0.19774,0.2686 0.054,0.13528 0.13004,0.25085 0.21907,0.33305 0.15652,0.14452 0.19154,0.2276 0.1621,0.38451 -0.0661,0.35202 -0.61657,0.60981 -0.95896,0.44904 z m 0.57406,-0.11926 c 0.15895,-0.0822 0.30068,-0.27029 0.30068,-0.39903 0,-0.0929 -0.0341,-0.15166 -0.18126,-0.31167 -0.10937,-0.11895 -0.18127,-0.22706 -0.18127,-0.27252 0,-0.0744 -0.0787,-0.21552 -0.14641,-0.26254 -0.1286,-0.0893 -0.45698,0.0585 -0.58404,0.26286 -0.064,0.10291 -0.077,0.16852 -0.077,0.38755 0,0.22727 0.0124,0.28462 0.0892,0.41541 0.11945,0.20319 0.25062,0.26803 0.49663,0.24553 0.10468,-0.01 0.23225,-0.0391 0.28349,-0.0656 z m 11.52323,5.484963 c 0.0343,-0.05544 0.27163,-0.164317 0.35824,-0.164317 0.17252,0 0.18533,-0.02049 0.13049,-0.208542 -0.0659,-0.226044 -0.39764,-0.912039 -0.44102,-0.912039 -0.0188,0 -0.0943,0.0307 -0.16786,0.06822 -0.19778,0.100892 -0.19957,0.04533 -0.004,-0.134614 0.19648,-0.181111 0.8087,-0.497043 1.27581,-0.658371 0.22795,-0.0787 1.95522,-0.52248 2.38513,-0.61277 0.16728,-0.0352 0.56086,-0.48137 0.74841,-0.84854 0.0571,-0.11186 0.12391,-0.20339 0.14838,-0.20339 0.0256,0 0.0618,0.0676 0.0851,0.15934 0.0224,0.0876 0.0469,0.16563 0.0546,0.17331 0.0243,0.0243 0.55161,-0.53056 0.73197,-0.7703 0.0952,-0.12662 0.25156,-0.36173 0.34737,-0.52248 0.21921,-0.3678 0.34128,-0.49832 0.50803,-0.54322 0.1642,-0.0442 0.31837,-0.0206 0.55872,0.0857 0.10299,0.0456 0.22227,0.0828 0.26507,0.0828 0.0749,0 0.0777,-0.009 0.0732,-0.23319 -0.004,-0.2221 2.4e-4,-0.23759 0.0984,-0.32548 0.0566,-0.0508 0.12341,-0.10041 0.14831,-0.11036 0.0834,-0.0333 -0.0388,-0.0839 -0.25957,-0.10759 -0.43241,-0.0463 -0.61006,-0.23376 -0.49117,-0.5183 0.0679,-0.16267 0.19296,-0.21392 0.62116,-0.25472 0.31096,-0.0297 0.48795,-0.0883 0.48795,-0.16165 0,-0.0159 -0.0519,-0.0808 -0.11535,-0.14425 -0.10616,-0.10616 -0.11536,-0.13109 -0.11536,-0.31283 0,-0.17943 -0.007,-0.19924 -0.077,-0.21678 -0.16277,-0.0409 -0.34752,0.0551 -0.6732,0.3497 -0.14374,0.13003 -0.19509,0.15684 -0.30041,0.15684 -0.17507,0 -0.30072,-0.10243 -0.30072,-0.24514 0,-0.15038 0.10299,-0.26688 0.34117,-0.38586 0.33278,-0.16626 0.45705,-0.32479 0.25461,-0.32479 -0.13389,0 -0.28664,-0.13713 -0.31376,-0.28169 -0.0121,-0.0645 -0.0421,-0.12498 -0.0666,-0.13441 -0.10886,-0.0418 -0.35434,0.16584 -0.47254,0.39962 -0.0951,0.18807 -0.2702,0.34487 -0.41063,0.36765 -0.0979,0.0159 -0.13303,0.005 -0.20318,-0.0656 -0.11112,-0.11113 -0.10841,-0.21709 0.014,-0.54924 0.0969,-0.26284 0.11883,-0.40402 0.0789,-0.50815 -0.0338,-0.088 -0.0748,-0.0583 -0.0983,0.0714 -0.0487,0.26879 -0.17534,0.40374 -0.37899,0.40374 -0.13572,0 -0.28236,-0.0976 -0.32834,-0.21856 -0.038,-0.0998 -0.0763,-0.0985 -0.15802,0.006 -0.10131,0.12878 -0.11696,0.31069 -0.0524,0.60928 0.0473,0.21897 0.0504,0.28768 0.0178,0.3964 -0.0834,0.27822 -0.33669,0.47095 -0.94677,0.72028 -0.6522,0.26656 -0.70229,0.29322 -0.86535,0.46063 -0.0865,0.0888 -0.26653,0.3152 -0.40002,0.50304 -0.92775,1.3056 -1.27767,1.65481 -2.02624,2.0221 -0.23576,0.11568 -0.49912,0.24011 -0.58522,0.2765 l -0.15655,0.0662 v 0.21711 c 0,0.11942 -0.0319,0.42799 -0.0708,0.68574 -0.09,0.595658 -0.0788,0.654795 0.28577,1.513261 0.15162,0.357023 0.2937,0.709265 0.31572,0.782755 0.0383,0.127904 0.10127,0.171331 0.14524,0.100186 z m 5.14538,-5.387133 c -0.30472,-0.10863 -0.51531,-0.40689 -0.46744,-0.66208 0.0218,-0.1161 0.0891,-0.19889 0.31492,-0.38704 0.0327,-0.0272 0.0834,-0.13214 0.11276,-0.23321 0.0633,-0.21791 0.13059,-0.26478 0.34967,-0.24373 0.32659,0.0314 0.52151,0.20737 0.59542,0.53759 0.0791,0.35335 -0.1242,0.80756 -0.43086,0.9627 -0.16681,0.0844 -0.29108,0.0911 -0.47447,0.0258 z m 0.41759,-0.095 c 0.13647,-0.057 0.30057,-0.24392 0.35633,-0.40582 0.0691,-0.20056 0.0583,-0.5337 -0.0218,-0.67023 -0.084,-0.14326 -0.30115,-0.2672 -0.47239,-0.26956 -0.17318,-0.002 -0.1889,0.0114 -0.24894,0.21788 -0.0358,0.12331 -0.0845,0.20442 -0.15871,0.26466 -0.22742,0.18458 -0.25533,0.22088 -0.25533,0.33214 0,0.39635 0.43409,0.68415 0.80081,0.53093 z m -7.76416,2.33715 c 0.76944,-0.11325 1.74655,-0.43207 2.34141,-0.76396 0.51088,-0.28505 0.86682,-0.62511 1.40452,-1.34182 0.33003,-0.43991 0.3531,-0.48173 0.31078,-0.56328 -0.0196,-0.0377 -0.0406,-0.0743 -0.0468,-0.0815 -0.007,-0.007 -0.16102,0.13075 -0.34406,0.30643 -0.18302,0.17568 -0.44661,0.41015 -0.58574,0.52106 -1.34916,1.0755 -3.04636,1.61451 -4.65239,1.47755 -1.56989,-0.13389 -2.94237,-0.757 -4.12531,-1.87293 -0.22462,-0.2119 -0.22462,-0.2119 -0.25728,-0.126 -0.0414,0.10907 -0.0929,0.10996 -0.11999,0.002 -0.0256,-0.10193 0.0621,-0.34598 0.15422,-0.42937 0.0642,-0.0581 0.0667,-0.0578 0.0842,0.009 0.0178,0.0682 0.0225,0.0676 0.35288,-0.0444 2.22573,-0.75418 3.6059,-1.00412 5.00528,-0.90643 0.70632,0.0493 1.15579,0.12511 2.3661,0.39901 1.43876,0.32561 1.95234,0.42256 1.96928,0.37172 0.0279,-0.0836 0.1095,-0.0366 0.21394,0.12311 0.0591,0.0903 0.11478,0.1636 0.12385,0.16287 0.009,-7.6e-4 0.11133,-0.11989 0.22727,-0.2648 0.23868,-0.2983 0.25888,-0.35964 0.3518,-1.0675 0.0364,-0.27748 0.0569,-0.66652 0.058,-1.10409 0.002,-0.7406 -0.0413,-1.08225 -0.20273,-1.60275 l -0.0883,-0.28461 -7.7e-4,0.73769 c -3.7e-4,0.69385 -0.007,0.76112 -0.0938,1.13188 -0.27505,1.16254 -0.60675,1.59646 -1.32139,1.72857 -1.07534,0.19878 -1.90033,-0.40104 -2.14903,-1.56247 -0.0271,-0.12689 -0.0565,-0.25274 -0.0652,-0.27967 -0.009,-0.0291 -0.0719,0.0574 -0.1539,0.21261 -0.0956,0.1811 -0.21921,0.344 -0.40179,0.52964 -0.21982,0.22351 -0.31798,0.29502 -0.5904,0.43008 l -0.32675,0.162 h -0.49721 c -0.49722,0 -0.49722,0 -0.75069,-0.12104 -0.57669,-0.27539 -0.94852,-0.62578 -1.20932,-1.13961 -0.0391,-0.077 -0.0835,-0.14007 -0.0986,-0.14007 -0.0151,0 -0.0371,0.1034 -0.0489,0.22976 -0.0254,0.27232 -0.20456,0.79499 -0.3508,1.02289 -0.15093,0.2352 -0.49014,0.53769 -0.74207,0.6617 -0.1962,0.0966 -0.25592,0.10939 -0.57125,0.12239 -0.20538,0.008 -0.43105,-0.002 -0.54145,-0.0248 -0.28135,-0.0584 -0.62834,-0.24424 -0.76307,-0.40866 -0.14621,-0.17845 -0.32406,-0.55398 -0.4315,-0.91117 -0.0899,-0.29901 -0.212,-0.94971 -0.21545,-1.14857 -0.004,-0.21169 -0.0531,-0.0179 -0.0956,0.37524 -0.0438,0.4042 -0.0537,1.466 -0.0179,1.89691 0.0235,0.28171 0.0235,0.28171 0.27326,0.55904 0.13738,0.15253 0.43762,0.5297 0.66721,0.83815 0.68996,0.92699 1.07535,1.24558 1.94997,1.61202 0.86995,0.36448 1.43941,0.5132 2.39952,0.62666 0.23014,0.0272 1.27704,-0.0125 1.60578,-0.0609 z m -1.25885,-0.5802 c 0.0286,-0.0462 -0.0822,-0.3476 -0.15753,-0.42844 -0.0554,-0.0594 -0.0681,-0.0608 -0.15421,-0.0162 -0.0975,0.0505 -0.37836,0.37756 -0.34917,0.40674 0.0609,0.0609 0.62669,0.0933 0.66091,0.0379 z m 0.40156,-0.007 c 0.0173,-0.0227 0.0516,-0.0931 0.0763,-0.15655 0.0729,-0.18756 0.20111,-0.36233 0.28054,-0.38226 0.11581,-0.0291 0.26114,0.0675 0.42807,0.28443 0.12694,0.16498 0.16561,0.19559 0.22458,0.17781 0.10598,-0.0319 0.11989,-0.053 0.17501,-0.2648 0.0519,-0.1995 0.23559,-0.61239 0.31633,-0.7111 0.11617,-0.14205 0.28394,-0.10271 0.60464,0.14177 0.0923,0.0704 0.17653,0.12795 0.18717,0.12795 0.0106,0 0.0425,-0.0778 0.0709,-0.17304 0.0643,-0.21625 0.0763,-0.2333 0.21247,-0.3031 0.10089,-0.0517 0.1093,-0.0671 0.0926,-0.1701 -0.0241,-0.14821 -0.14547,-0.38881 -0.24195,-0.47944 -0.0766,-0.072 -0.0766,-0.072 -0.27918,0.0325 -0.1138,0.0587 -0.25297,0.10446 -0.31762,0.10446 -0.13882,0 -0.29407,-0.0904 -0.39906,-0.23244 -0.0697,-0.0943 -0.0905,-0.10306 -0.20686,-0.0875 -0.0712,0.01 -0.42166,0.1616 -0.77893,0.33789 -0.64825,0.31989 -0.64938,0.32064 -0.5507,0.36401 0.0544,0.0239 0.13596,0.0443 0.18127,0.0453 0.1576,0.003 0.32817,0.0427 0.3105,0.0713 -0.0326,0.0527 -0.37153,0.0297 -0.54821,-0.0372 -0.11147,-0.0422 -0.30491,-0.17469 -0.53681,-0.36764 -0.40419,-0.33631 -0.55925,-0.4215 -0.76911,-0.42257 -0.13048,-7.6e-4 -0.15771,0.0148 -0.3131,0.17808 -0.2083,0.21884 -0.33593,0.25441 -0.60666,0.16907 -0.099,-0.0312 -0.2118,-0.048 -0.25076,-0.0375 -0.1462,0.0397 -0.44455,0.56036 -0.34175,0.59638 0.19852,0.0696 0.22877,0.0913 0.27253,0.19605 0.0263,0.063 0.0481,0.15576 0.0483,0.2062 8.1e-4,0.1755 0.0453,0.19182 0.18493,0.0679 0.16279,-0.14451 0.40286,-0.30658 0.49845,-0.33651 0.19313,-0.0605 0.33036,0.13115 0.46444,0.64847 0.0876,0.33799 0.0876,0.33799 0.20601,0.34791 0.10362,0.009 0.13026,-0.006 0.21354,-0.11536 0.21539,-0.2836 0.43192,-0.43107 0.54448,-0.37084 0.0747,0.04 0.21511,0.31473 0.24752,0.48452 0.0188,0.0983 0.0307,0.10711 0.14457,0.10711 0.0683,0 0.1383,-0.0185 0.1556,-0.0412 z m 0.50393,0.006 c 0.11783,-0.019 0.22813,-0.0484 0.24513,-0.0653 0.0392,-0.0389 -0.13265,-0.28101 -0.25008,-0.35227 -0.0471,-0.0286 -0.10919,-0.0429 -0.13797,-0.0319 -0.0501,0.0193 -0.25258,0.38037 -0.25258,0.45062 0,0.0431 0.12393,0.0427 0.3955,-8.1e-4 z m -2.08606,-0.28904 c -0.0214,-0.18026 -0.12757,-0.50231 -0.2043,-0.61941 -0.0291,-0.0444 -0.0836,-0.0781 -0.12637,-0.0781 -0.1626,0 -0.71043,0.43694 -0.67232,0.53623 0.0228,0.0596 0.76677,0.3154 0.92664,0.31871 0.0947,0.002 0.0951,8.1e-4 0.0764,-0.1574 z m 3.31625,0.0136 c 0.18925,-0.062 0.40575,-0.14417 0.48111,-0.18261 0.13702,-0.0699 0.13702,-0.0699 0.067,-0.1592 -0.14397,-0.1837 -0.49133,-0.43534 -0.60095,-0.43534 -0.11811,0 -0.36888,0.45622 -0.40812,0.74252 -0.0183,0.13372 -0.0139,0.14735 0.0483,0.14735 0.0377,0 0.22336,-0.0507 0.41261,-0.11272 z m -4.46088,-0.34046 c -8.1e-4,-0.18821 -0.0549,-0.38066 -0.11938,-0.42781 -0.0365,-0.0267 -0.1012,-0.0347 -0.17485,-0.0218 -0.15827,0.0278 -0.38062,0.15124 -0.38062,0.21129 0,0.0435 0.56872,0.36189 0.64631,0.36189 0.0161,0 0.029,-0.0556 0.0285,-0.12359 z m 5.5048,-0.11087 c 0.13596,-0.074 0.2565,-0.14967 0.26787,-0.16798 0.074,-0.11917 -0.19304,-0.30434 -0.40877,-0.28344 -0.13121,0.0127 -0.18824,0.11776 -0.21317,0.39268 -0.0159,0.17488 -0.0114,0.19429 0.0446,0.19387 0.0342,-2.4e-4 0.17349,-0.0611 0.30944,-0.13513 z m -6.27516,-0.34989 c -0.0249,-0.21116 -0.0917,-0.33874 -0.17715,-0.33793 -0.0737,7.7e-4 -0.31164,0.13614 -0.32832,0.1869 -0.0141,0.0427 0.40696,0.33989 0.48157,0.33989 0.0367,0 0.0416,-0.0385 0.0239,-0.18886 z m 7.01672,-0.0992 c 0.0906,-0.0696 0.16479,-0.1483 0.16479,-0.17473 0,-0.0611 -0.20202,-0.16329 -0.32302,-0.16336 -0.073,-3e-5 -0.10167,0.0224 -0.13705,0.10707 -0.0604,0.14456 -0.0953,0.34246 -0.0715,0.40464 0.0174,0.0453 0.0295,0.0455 0.11073,0.002 0.0502,-0.0269 0.16538,-0.1059 0.25602,-0.17557 z m -14.3358,-0.19167 c 0.13074,-0.0578 0.18028,-0.0976 0.18028,-0.14489 0,-0.0879 -0.10627,-0.1415 -0.20569,-0.10369 -0.18808,0.0715 -0.48643,0.42387 -0.48643,0.57449 0,0.0513 0.033,0.0331 0.16579,-0.0911 0.0912,-0.0853 0.24691,-0.19095 0.34605,-0.2348 z m 21.71443,0.29023 c -0.0507,-0.21145 -0.26618,-0.5095 -0.44452,-0.61484 -0.078,-0.0461 -0.10826,-0.0499 -0.14626,-0.0183 -0.0937,0.0778 -0.0556,0.18519 0.10864,0.30658 0.0861,0.0636 0.22268,0.18355 0.30349,0.26647 0.16932,0.17373 0.2091,0.18712 0.17865,0.0601 z m -14.08303,-0.0694 c 0.0286,-0.0298 0.0928,-0.15312 0.14263,-0.27399 0.0498,-0.12086 0.14878,-0.28276 0.21988,-0.35978 0.0711,-0.077 0.12928,-0.14925 0.12928,-0.1605 0,-0.0113 -0.0736,-0.093 -0.16359,-0.18161 -0.1126,-0.11091 -0.16793,-0.14648 -0.1775,-0.11412 -0.007,0.0258 -0.0318,0.11376 -0.0535,0.19533 -0.0825,0.30912 -0.20716,0.36921 -0.47881,0.23071 -0.17086,-0.0871 -0.19889,-0.0836 -0.24619,0.0306 -0.0947,0.22861 -0.23482,0.24855 -0.46506,0.0662 -0.0977,-0.0774 -0.14234,-0.0925 -0.2245,-0.0761 -0.0882,0.0176 -0.1232,0.002 -0.25007,-0.11545 -0.14473,-0.1334 -0.21489,-0.1674 -0.21489,-0.10413 0,0.0412 0.64898,0.61905 0.76127,0.67787 0.0776,0.0406 0.10231,0.0359 0.26367,-0.051 0.18866,-0.10156 0.36277,-0.12547 0.41682,-0.0572 0.0179,0.0227 0.0582,0.11962 0.0895,0.21547 0.05,0.1532 0.0655,0.17173 0.12795,0.15311 0.0391,-0.0116 0.0945,-0.0456 0.12312,-0.0754 z m 6.29595,-0.19431 c 0.13077,-0.30511 0.22926,-0.33664 0.54037,-0.17298 l 0.18805,0.0989 0.12017,-0.0965 c 0.20318,-0.16324 0.71128,-0.69118 0.68781,-0.71466 -0.0122,-0.0122 -0.0952,0.0556 -0.18439,0.15066 -0.14704,0.15661 -0.17184,0.17069 -0.26469,0.15029 -0.0883,-0.0193 -0.12297,-0.004 -0.25097,0.10826 -0.0817,0.0719 -0.17705,0.1382 -0.21193,0.14732 -0.0948,0.0248 -0.19271,-0.0612 -0.2367,-0.20804 -0.0215,-0.0718 -0.0452,-0.13064 -0.0525,-0.13064 -0.007,0 -0.0944,0.0371 -0.19351,0.0824 -0.30672,0.1403 -0.37832,0.10895 -0.49057,-0.21477 -0.0282,-0.0813 -0.0587,-0.1684 -0.0679,-0.1936 -0.0116,-0.0319 -0.051,-0.007 -0.12992,0.0824 -0.0622,0.0705 -0.11385,0.14092 -0.11461,0.15644 -7.6e-4,0.0155 0.0411,0.0823 0.093,0.1483 0.12695,0.16159 0.19116,0.29273 0.23786,0.4859 0.0377,0.15575 0.1328,0.27462 0.221,0.27615 0.0233,3.7e-4 0.0726,-0.0697 0.10947,-0.15582 z m -2.68475,-0.53557 c 0.3809,-0.19516 0.68248,-0.32958 0.73941,-0.32958 0.11771,0 0.11949,-0.0301 0.0167,-0.28289 -0.0436,-0.10747 -0.0899,-0.25109 -0.10261,-0.31916 -0.0274,-0.14616 -0.0803,-0.19071 -0.12906,-0.10885 -0.15323,0.25696 -0.42254,0.4802 -0.57933,0.4802 -0.13255,0 -0.23934,-0.10207 -0.37311,-0.35664 -0.19681,-0.37454 -0.25521,-0.38263 -0.36792,-0.051 -0.0761,0.22368 -0.2643,0.44067 -0.38216,0.44049 -0.14871,-2.5e-4 -0.39218,-0.19511 -0.54545,-0.43658 -0.0431,-0.0679 -0.0894,-0.12354 -0.10275,-0.12348 -0.0201,9e-5 -0.1337,0.49313 -0.15118,0.6558 -0.003,0.0297 0.0536,0.06 0.15983,0.0848 0.245,0.0574 0.4118,0.15551 0.73079,0.42954 0.18253,0.1568 0.31591,0.24692 0.36547,0.24692 0.0429,0 0.3675,-0.14832 0.7213,-0.32958 z m -4.33733,0.0629 c 0.0688,-0.13483 0.0688,-0.13483 -0.0392,-0.3131 -0.0594,-0.0981 -0.13193,-0.17827 -0.16112,-0.17827 -0.0292,0 -0.12247,0.0237 -0.20727,0.0526 -0.11266,0.0383 -0.15418,0.0698 -0.15418,0.11657 0,0.0793 0.36173,0.4571 0.43764,0.4571 0.0316,0 0.0849,-0.0578 0.12418,-0.13483 z m 7.77833,-0.0519 c 0.15702,-0.14186 0.31685,-0.39782 0.27458,-0.43974 -0.048,-0.0475 -0.29088,-0.0904 -0.36253,-0.0639 -0.0864,0.0319 -0.16256,0.15011 -0.20973,0.32528 -0.0315,0.11661 -0.029,0.15304 0.0145,0.21949 0.0711,0.1085 0.12635,0.10046 0.28312,-0.0412 z m -5.86836,0.006 c 0.19879,-0.1028 0.34034,-0.38424 0.42758,-0.85019 0.0231,-0.12317 0.0341,-0.23171 0.0247,-0.24119 -0.0484,-0.0484 -1.38755,0.24906 -1.46285,0.32493 -0.0608,0.0613 0.0307,0.22738 0.26098,0.47349 0.29106,0.31114 0.53221,0.40538 0.74961,0.29296 z m -1.21232,-0.1027 c 0.0578,-0.0993 0.10135,-0.57443 0.0568,-0.61898 -0.0211,-0.0211 -0.56461,0.11917 -0.6994,0.18058 -0.12717,0.0579 -0.11185,0.12644 0.067,0.29966 0.28811,0.27902 0.46867,0.32255 0.5756,0.13874 z m 5.22356,0.0361 c 0.24819,-0.1037 0.56691,-0.4374 0.62007,-0.6492 0.0249,-0.099 0.0787,-0.0814 -0.78926,-0.25796 -0.34313,-0.0698 -0.63764,-0.11842 -0.65448,-0.10801 -0.0486,0.0301 0.002,0.26007 0.11057,0.49922 0.23259,0.51399 0.41021,0.6425 0.7131,0.51595 z m -6.51599,-0.0136 c 0,-0.15289 -0.1165,-0.2399 -0.22729,-0.16975 -0.0371,0.0235 -0.0294,0.0457 0.0397,0.11484 0.0846,0.0846 0.18758,0.11477 0.18758,0.0549 z m 7.73956,-0.0652 c 0.1476,-0.0753 0.40111,-0.31393 0.40111,-0.37757 0,-0.0455 -0.095,-0.0779 -0.49438,-0.16881 -0.33876,-0.0771 -0.36254,-0.0721 -0.36254,0.0769 0,0.1442 0.074,0.41334 0.13311,0.48466 0.0545,0.0657 0.17532,0.0601 0.3227,-0.0151 z m 1.09608,-0.0451 c 0.0288,-0.0221 0.0697,-0.0729 0.091,-0.11293 0.0332,-0.0623 0.0289,-0.078 -0.0297,-0.10939 -0.0836,-0.0447 -0.14692,-0.002 -0.17736,0.11912 -0.0336,0.1337 0.0173,0.17896 0.11599,0.1032 z m -4.93601,-0.54997 c 0.0962,-0.11441 0.20729,-0.42332 0.1661,-0.46209 -0.0156,-0.0146 -0.15442,-0.0143 -0.3085,7.6e-4 -0.15408,0.0152 -0.31723,0.0287 -0.36254,0.0302 -0.17499,0.006 -0.18409,0.0488 -0.0488,0.2331 0.13547,0.18455 0.28561,0.29548 0.4002,0.29568 0.0392,7e-5 0.10828,-0.0439 0.15357,-0.0977 z m 1.16219,-0.002 c 0.14292,-0.0883 0.32193,-0.3295 0.27754,-0.37389 -0.0701,-0.0701 -0.85705,-0.11744 -0.85705,-0.0516 0,0.0572 0.1233,0.28011 0.21558,0.38978 0.103,0.1224 0.20709,0.13261 0.36393,0.0357 z m -4.333,-0.32795 c 0.60125,-0.11179 1.10657,-0.66079 1.28193,-1.39274 0.10512,-0.4388 0.11424,-0.79174 0.0364,-1.40864 -0.14662,-1.16184 -0.51409,-2.26459 -0.89268,-2.67882 -0.29896,-0.32711 -0.50036,-0.35742 -0.9403,-0.14149 -0.41883,0.20556 -0.86828,0.73497 -1.1693,1.37731 -0.14836,0.31659 -0.24397,0.68062 -0.303,1.15364 -0.10557,0.8459 0.19174,2.24748 0.56752,2.67549 0.30651,0.34909 0.87728,0.51606 1.41945,0.41525 z m -0.63071,-0.44325 c -0.30795,-0.16049 -0.58826,-0.55823 -0.71145,-1.00949 -0.0813,-0.29789 -0.0812,-1.11368 2.5e-4,-1.41457 0.22117,-0.81744 0.75239,-1.23225 1.37409,-1.07298 0.27719,0.071 0.46826,0.1864 0.69267,0.41828 0.20493,0.21175 0.40208,0.57756 0.4621,0.8574 0.0232,0.10844 0.0309,0.34938 0.0202,0.6368 -0.0261,0.70417 -0.18945,1.13653 -0.53704,1.42135 -0.22733,0.18628 -0.42195,0.24423 -0.8143,0.24244 -0.28854,-8.1e-4 -0.35908,-0.0128 -0.48655,-0.0792 z m 0.79898,-2.3471 c 0.2397,-0.21313 0.24726,-0.68726 0.014,-0.87546 -0.24019,-0.19374 -0.58276,0.11215 -0.58054,0.51836 7.6e-4,0.12694 0.10691,0.36139 0.18547,0.4094 0.0832,0.0509 0.29834,0.0213 0.38112,-0.0523 z m 9.62838,2.35806 c 0.37272,-0.94872 0.61732,-2.1656 0.76107,-3.7863 0.0765,-0.86264 0.12711,-2.68864 0.0891,-3.21342 l -0.0215,-0.29662 -0.14482,0.29662 c -0.36977,0.75733 -0.81517,2.02484 -1.07835,3.0687 l -0.12554,0.49795 0.15474,0.45888 c 0.0869,0.2577 0.18571,0.63903 0.22537,0.86981 0.0631,0.3669 0.0684,0.48507 0.0496,1.10305 -0.0115,0.38066 -0.0426,0.84043 -0.0691,1.0217 -0.0796,0.54604 -0.0622,0.54382 0.1594,-0.0204 z m -1.92339,0.27978 c 0.48851,-0.13621 0.75861,-0.47248 0.96979,-1.20743 0.14033,-0.48835 0.19107,-0.858 0.19107,-1.392 0,-0.76291 -0.10903,-1.25425 -0.40597,-1.82948 -0.41097,-0.7961 -1.23036,-1.40519 -1.68743,-1.25435 -0.42665,0.14081 -0.83957,0.9843 -1.11436,2.27634 -0.0872,0.40977 -0.10406,0.56952 -0.11861,1.12058 -0.0186,0.70486 0.003,0.89312 0.14243,1.24384 0.22747,0.57196 0.67683,0.99205 1.17197,1.09566 0.18418,0.0385 0.61984,0.0113 0.85111,-0.0532 z m -1.03818,-0.26672 c -0.33076,-0.13385 -0.58837,-0.39145 -0.72314,-0.72314 -0.17316,-0.42615 -0.23511,-1.14435 -0.13328,-1.54498 0.1857,-0.73053 0.73375,-1.25374 1.35502,-1.29361 0.20233,-0.013 0.26159,-0.003 0.41957,0.0691 0.66611,0.30496 1.00441,1.42312 0.74296,2.45562 -0.12743,0.50325 -0.47201,0.93771 -0.82742,1.04326 -0.22378,0.0665 -0.66216,0.0631 -0.83371,-0.007 z m 0.54963,-2.40687 c 0.16354,-0.17629 0.19696,-0.39926 0.0939,-0.62635 -0.14236,-0.31364 -0.34327,-0.38444 -0.55091,-0.19415 -0.10853,0.0995 -0.12213,0.13075 -0.13518,0.31127 -0.0116,0.16023 2.5e-4,0.23109 0.0585,0.35149 0.12274,0.25355 0.37554,0.32826 0.53373,0.15774 z m -10.28877,2.71632 c 0,-0.006 -0.0953,-0.15346 -0.21173,-0.32764 -0.25697,-0.38434 -0.43883,-0.75987 -0.59203,-1.22256 -0.22172,-0.66963 -0.31076,-1.17794 -0.53188,-3.0365 -0.15615,-1.31242 -0.50106,-3.05378 -0.75747,-3.82428 -0.12352,-0.37118 -0.56676,-1.26208 -0.80502,-1.61808 -0.22922,-0.34249 -0.5774,-0.7373 -0.65024,-0.7373 -0.0777,0 -0.42034,0.34664 -0.60115,0.6082 -0.1912,0.27658 -0.44998,0.76847 -0.58399,1.11002 l -0.093,0.23703 0.1309,0.10128 c 0.072,0.0558 0.25326,0.2211 0.4028,0.36754 0.25684,0.2515 0.27191,0.27409 0.27191,0.40747 0,0.28615 -0.21277,0.53303 -0.63443,0.73615 l -0.22247,0.10715 -0.003,0.18127 c -0.0134,0.76763 0.0459,1.41318 0.1998,2.17406 0.16636,0.82275 0.33036,1.31524 0.72359,2.17311 0.20238,0.44151 0.24712,0.51342 0.41902,0.67342 0.19245,0.17913 0.19245,0.17913 0.37472,0.1626 0.16837,-0.0153 0.19336,-0.008 0.32747,0.0945 0.0799,0.061 0.23316,0.22636 0.34068,0.36736 0.31168,0.40874 0.53456,0.47647 0.33595,0.10209 -0.0629,-0.11859 -0.11407,-0.26259 -0.11367,-0.31999 8.1e-4,-0.15679 0.10924,-0.36449 0.24288,-0.46641 0.13817,-0.10539 0.14156,-0.1336 0.0673,-0.55834 -0.0582,-0.33239 -0.0451,-0.43476 0.0618,-0.48344 0.25935,-0.11815 0.658,0.37822 0.70461,0.87732 0.0142,0.1527 0.0434,0.24998 0.0967,0.32305 0.0419,0.0575 0.1014,0.13895 0.13209,0.18098 0.0405,0.0553 0.067,0.20695 0.0964,0.55061 0.0546,0.63783 0.073,0.6672 0.59155,0.945 0.21456,0.11494 0.28015,0.14171 0.28015,0.11436 z m 0.3736,-0.95306 c 0.0127,-0.54938 0.0417,-1.05942 0.0706,-1.24417 0.0701,-0.44836 0.0628,-0.56601 -0.0609,-0.97227 -0.28726,-0.94382 -0.73611,-1.93345 -1.24815,-2.75201 -0.23618,-0.37754 -0.48815,-0.73439 -0.50598,-0.71657 -0.007,0.007 0.0381,0.31589 0.10052,0.68611 0.0624,0.37023 0.13623,0.8882 0.16402,1.15104 0.23038,2.1793 0.28272,2.51262 0.49507,3.15343 0.16579,0.50028 0.43814,1.03263 0.69249,1.3536 0.11851,0.14955 0.22789,0.27191 0.24308,0.27191 0.0152,0 0.0373,-0.41899 0.0492,-0.93107 z m 12.73824,0.86423 c 0.31768,-0.12074 0.55331,-0.2563 0.66334,-0.38162 0.10457,-0.11911 0.10754,-0.13028 0.0859,-0.32359 -0.0124,-0.11012 -0.0306,-0.2745 -0.0405,-0.36527 -0.0271,-0.24905 0.0345,-0.4264 0.20512,-0.58982 0.13774,-0.13198 0.14837,-0.155 0.17769,-0.38488 0.0172,-0.13447 0.0541,-0.30911 0.0821,-0.38809 0.0759,-0.21409 0.26112,-0.44588 0.4265,-0.53361 0.12682,-0.0673 0.15811,-0.0722 0.23521,-0.0371 0.0705,0.0322 0.0845,0.0557 0.0676,0.11375 -0.064,0.21957 -0.11659,0.52256 -0.1171,0.67533 -7.6e-4,0.19708 -0.0282,0.19088 0.36197,0.0814 0.0997,-0.028 0.26104,-0.0597 0.35854,-0.0706 l 0.17728,-0.0198 0.0952,-0.24718 c 0.60341,-1.5672 0.80928,-2.7044 0.77565,-4.28456 -0.023,-1.08126 -0.12432,-1.76491 -0.40535,-2.73553 -0.21123,-0.72951 -0.594,-1.64029 -0.83998,-1.99869 -0.28126,-0.40979 -0.68016,-0.15626 -1.11475,0.70853 -0.1852,0.36853 -0.31579,0.73049 -0.40334,1.11806 -0.0699,0.30938 -0.0727,0.39364 -0.0813,2.44622 -0.01,2.26632 -0.0319,2.80838 -0.16049,3.8838 -0.1661,1.38968 -0.35812,2.27719 -0.67499,3.1198 -0.0545,0.14502 -0.0992,0.26737 -0.0993,0.27191 -2.4e-4,0.0197 0.0607,0.004 0.22508,-0.0586 z m -17.41669,-0.20461 c 0.0281,-0.0448 0.0218,-0.0712 -0.0296,-0.12215 -0.17602,-0.17461 -0.9718,-0.22919 -0.9718,-0.0666 0,0.0175 0.0408,0.0321 0.0906,0.0325 0.0498,3.7e-4 0.20928,0.0513 0.3543,0.11311 0.29253,0.12469 0.49551,0.14044 0.55647,0.0432 z m 22.19939,-0.009 c 0.17125,-0.045 0.34464,-0.0818 0.38532,-0.0818 0.1168,0 0.12239,-0.0583 0.0111,-0.11578 -0.1393,-0.0721 -0.70966,-0.0845 -0.83466,-0.0182 -0.0921,0.0488 -0.14164,0.16274 -0.10842,0.24931 0.0273,0.0711 0.18524,0.0614 0.54665,-0.0335 z m -21.00071,-0.09 c -0.0178,-0.0539 -0.24917,-0.21085 -0.35444,-0.24044 l -0.0824,-0.0232 0.0824,0.0909 c 0.14578,0.16077 0.38973,0.27966 0.35444,0.17273 z m 10.02679,-0.15908 c 0.0813,-0.0369 0.17554,-0.0922 0.20956,-0.12287 0.0977,-0.0883 0.21889,-0.3537 0.35209,-0.77108 0.19167,-0.60061 0.45711,-0.89973 0.79842,-0.89973 h 0.16214 l -0.0226,-0.18127 c -0.0666,-0.53412 -0.43964,-1.02237 -1.00663,-1.31735 -0.36709,-0.19098 -0.53776,-0.23084 -0.99052,-0.2313 -0.48827,-3.7e-4 -0.6737,0.0355 -1.00926,0.19593 -0.50691,0.24236 -0.79182,0.65734 -0.89262,1.30009 l -0.0293,0.18706 0.14106,-0.0212 c 0.18287,-0.0274 0.33992,0.0263 0.46576,0.15925 0.13417,0.14177 0.14785,0.1725 0.28763,0.64577 0.18212,0.61664 0.3182,0.84696 0.60962,1.03177 0.13543,0.0859 0.17232,0.0933 0.46207,0.0926 0.24506,-7.6e-4 0.34765,-0.0156 0.4626,-0.0677 z m -10.34262,-0.77709 c 0.0332,-0.03 0.0603,-0.0739 0.0603,-0.0977 0,-0.0754 -0.38341,-0.45627 -0.53602,-0.5325 -0.14849,-0.0742 -0.43181,-0.10088 -0.46694,-0.044 -0.01,0.0161 0.0374,0.071 0.10517,0.12207 0.0678,0.051 0.21226,0.17601 0.32102,0.27775 0.23429,0.21919 0.37511,0.32893 0.42207,0.32893 0.0188,0 0.0613,-0.0245 0.0944,-0.0545 z m 20.13885,-0.16178 c 0.12612,-0.11897 0.30561,-0.27099 0.39887,-0.33781 l 0.16957,-0.12151 -0.16364,-0.0103 c -0.09,-0.006 -0.22769,0.007 -0.30597,0.0295 -0.15897,0.0445 -0.44237,0.2798 -0.52163,0.43309 -0.0461,0.0891 -0.0455,0.10305 0.007,0.1605 0.0939,0.10379 0.17561,0.0737 0.41633,-0.1534 z m -2.04258,-0.11239 c 0.0824,-0.0649 0.0827,-0.0665 0.0671,-0.50261 -0.009,-0.24811 -7.6e-4,-0.50139 0.0188,-0.58498 0.0189,-0.0811 0.0263,-0.15524 0.0164,-0.16479 -0.0362,-0.0352 -0.27123,0.26988 -0.32144,0.41724 -0.0285,0.0836 -0.0614,0.28866 -0.0731,0.45564 -0.0198,0.28153 -0.0163,0.30875 0.0492,0.37408 0.0874,0.0874 0.13754,0.0885 0.24315,0.006 z m -16.13315,-0.1353 c 0.10458,-0.20497 0.012,-0.66635 -0.17633,-0.87951 -0.10421,-0.1179 -0.10888,-0.1197 -0.11019,-0.0426 -0.002,0.13961 0.0997,0.87177 0.13276,0.95199 0.0377,0.0915 0.0978,0.0798 0.15376,-0.0299 z m 6.08854,-1.59768 c 0.31357,-0.53668 0.84432,-0.82918 1.61591,-0.89053 0.51539,-0.041 1.03027,0.0953 1.4705,0.3893 0.2223,0.14845 0.55415,0.52192 0.67684,0.76174 0.045,0.0879 0.0897,0.15188 0.0994,0.14215 0.01,-0.01 0.0388,-0.14096 0.0648,-0.29166 0.27751,-1.61536 0.84166,-2.66345 1.43365,-2.66345 0.14596,0 0.42725,0.0828 0.63003,0.1855 0.0861,0.0436 0.15608,0.0679 0.15552,0.054 -0.002,-0.0353 -0.2681,-0.23259 -0.41677,-0.30839 -0.18342,-0.0935 -0.56363,-0.0849 -0.80166,0.0182 -0.22883,0.0991 -0.25756,0.0493 -0.0659,-0.11413 l 0.14117,-0.12039 -0.16123,-0.0991 c -0.3158,-0.19403 -1.00097,-0.49722 -1.36011,-0.60182 -0.52064,-0.15165 -0.7578,-0.18243 -1.40483,-0.1823 -0.68919,1.3e-4 -0.82381,0.0234 -1.08063,0.18667 -0.0868,0.0552 -0.16706,0.0911 -0.17838,0.0798 -0.0754,-0.0754 0.271,-0.38935 0.63114,-0.57207 0.15224,-0.0773 0.15896,-0.0858 0.10081,-0.12831 -0.0978,-0.0715 -0.31283,-0.0575 -0.40188,0.0262 -0.0679,0.0639 -0.0763,0.0652 -0.0763,0.0133 0,-0.0639 0.0959,-0.21555 0.22537,-0.35655 0.0456,-0.0496 0.0739,-0.0994 0.0627,-0.11047 -0.0303,-0.0303 -0.31468,0.0729 -0.51058,0.18524 -0.13355,0.0766 -0.17303,0.11741 -0.17303,0.17884 0,0.11266 -0.0631,0.26531 -0.0949,0.22931 -0.0146,-0.0166 -0.0445,-0.11422 -0.0665,-0.21705 -0.0612,-0.2862 -0.11137,-0.29924 -0.20141,-0.0523 -0.0978,0.26818 -0.20212,0.43021 -0.39654,0.61578 -0.16894,0.16124 -0.21981,0.19046 -0.85564,0.49146 -0.22658,0.10726 -0.43936,0.21626 -0.47284,0.24219 -0.0576,0.0447 -0.0545,0.052 0.0577,0.13759 0.11917,0.0909 0.16627,0.2113 0.0678,0.17355 -0.35927,-0.13786 -0.599,-0.14311 -0.84331,-0.0184 -0.14609,0.0745 -0.54789,0.44565 -0.51649,0.47706 0.0105,0.0105 0.0925,-0.0262 0.18222,-0.0814 0.23486,-0.14451 0.42552,-0.20539 0.65465,-0.20903 0.16328,-0.002 0.22986,0.0138 0.35542,0.0874 0.44132,0.25863 0.81457,1.0644 1.05914,2.28653 0.15636,0.78133 0.14387,0.75575 0.22751,0.46581 0.0392,-0.13591 0.11411,-0.32044 0.16649,-0.41007 z m 2.81049,-0.9202 c -0.58337,-0.24233 -1.20123,-0.23288 -2.18049,0.0333 -0.068,0.0184 -0.068,0.0181 -0.004,-0.0333 0.0358,-0.0286 0.20638,-0.098 0.37903,-0.15419 0.26124,-0.0851 0.38324,-0.10497 0.72728,-0.11864 0.24588,-0.01 0.50632,-7.7e-4 0.64269,0.0223 0.23699,0.0401 0.6463,0.21837 0.66761,0.29086 0.0165,0.0561 -0.0125,0.051 -0.23249,-0.0404 z m -0.42006,-0.46753 c -0.33165,-0.0866 -0.62294,-0.0946 -0.93931,-0.0258 -0.41809,0.0908 -0.44732,0.0909 -0.2659,7.6e-4 0.32303,-0.16072 0.9146,-0.19185 1.27733,-0.0672 0.136,0.0467 0.25773,0.13331 0.22096,0.15714 -0.007,0.005 -0.139,-0.0245 -0.29308,-0.0647 z m -5.98744,-1.78959 c -0.39594,-0.0943 -1.00406,-0.77044 -1.22506,-1.36209 -0.0576,-0.15425 -0.0712,-0.26146 -0.0708,-0.56029 3.9e-4,-0.38132 0.0106,-0.42616 0.1038,-0.46047 0.0301,-0.0111 0.0747,-0.0609 0.0989,-0.11082 0.0564,-0.11609 0.18427,-0.15256 0.45598,-0.13005 0.2972,0.0246 0.57282,0.16672 0.83825,0.43214 0.2766,0.27661 0.58503,0.74164 0.67968,1.02478 0.2522,0.75448 -0.18428,1.3327 -0.88077,1.1668 z m 0.52562,-0.3942 c 0.1336,-0.12462 0.13842,-0.13614 0.13585,-0.3249 -0.006,-0.41962 -0.50727,-1.2011 -0.92984,-1.44873 -0.15178,-0.089 -0.5081,-0.13769 -0.68395,-0.0936 -0.0898,0.0226 -0.0898,0.0226 -0.0681,0.3091 0.012,0.15761 0.0527,0.38039 0.0906,0.49506 0.13571,0.41022 0.58573,0.95387 0.93107,1.12482 0.21747,0.10765 0.3608,0.0908 0.52434,-0.0618 z m 8.84552,-0.12348 c -0.0121,-0.0121 -0.0219,-0.0712 -0.0219,-0.13131 0,-0.13837 0.15242,-0.32345 0.239,-0.29023 0.1286,0.0493 0.0251,0.44352 -0.11647,0.44352 -0.0432,0 -0.0885,-0.01 -0.10055,-0.0219 z m -8.00865,-0.23345 c -0.008,-0.0136 -0.0836,-0.23235 -0.16784,-0.48613 -0.19264,-0.58039 -0.18362,-0.56558 -0.31209,-0.51236 -0.2039,0.0845 -0.25043,-0.008 -0.12751,-0.25454 l 0.0739,-0.14792 -0.15998,-0.30063 c -0.088,-0.16534 -0.24835,-0.43709 -0.35636,-0.60388 -0.21397,-0.33041 -0.24451,-0.47788 -0.10313,-0.498 0.09,-0.0128 0.26949,0.20833 0.57197,0.70477 0.32547,0.53418 0.27096,0.50243 0.54752,0.31888 0.12969,-0.0861 0.26256,-0.17255 0.29527,-0.19217 0.056,-0.0336 0.0531,-0.0507 -0.0486,-0.29317 -0.17354,-0.41342 -0.33414,-0.87555 -0.33414,-0.96148 0,-0.0437 0.0228,-0.0882 0.0506,-0.0989 0.0773,-0.0297 0.16494,0.0709 0.24306,0.2786 0.0388,0.10332 0.14079,0.34357 0.22654,0.53391 l 0.1559,0.34606 0.16453,0.0165 c 0.14906,0.015 0.16549,0.0248 0.17474,0.10491 0.007,0.0623 -0.01,0.0991 -0.0577,0.12475 -0.0373,0.02 -0.0679,0.0622 -0.0679,0.0938 0,0.0704 0.32709,0.58011 0.53767,0.83786 0.15737,0.19262 0.18543,0.27764 0.1149,0.34817 -0.1123,0.1123 -0.20336,0.022 -0.65326,-0.64736 -0.15035,-0.22372 -0.2935,-0.41449 -0.31812,-0.42393 -0.0491,-0.0188 -0.32634,0.13992 -0.4998,0.28617 l -0.11001,0.0927 0.13468,0.37421 c 0.20519,0.57014 0.27416,0.84231 0.23296,0.9193 -0.0336,0.0629 -0.17775,0.0906 -0.20787,0.0399 z m 7.56266,-0.005 c -0.0715,-0.0453 -0.13528,-0.34659 -0.1752,-0.82739 -0.0203,-0.24471 -0.0532,-0.46134 -0.0731,-0.4814 -0.0468,-0.047 -0.41685,-0.19003 -0.632,-0.24411 l -0.16734,-0.0421 -0.29053,0.30139 c -0.16141,0.16743 -0.31776,0.3014 -0.35176,0.3014 -0.11709,0 -0.0671,-0.1508 0.14145,-0.42707 0.20133,-0.26664 0.20221,-0.26876 0.13183,-0.31805 -0.14269,-0.0999 -0.063,-0.17397 0.19282,-0.17915 0.0974,-0.002 0.13765,-0.029 0.2585,-0.17348 1.0348,-1.23727 1.09941,-1.3082 1.19175,-1.3082 0.0505,0 0.10013,0.0219 0.11039,0.0486 0.0103,0.0267 -0.0238,0.28999 -0.0756,0.585 -0.12161,0.6915 -0.17936,1.15682 -0.1554,1.25225 0.0105,0.0417 0.064,0.1024 0.11901,0.13488 0.11868,0.0701 0.17428,0.16151 0.14486,0.23818 -0.0166,0.0432 -0.0493,0.0518 -0.1482,0.0385 -0.1269,-0.017 -0.1269,-0.017 -0.1269,0.13446 0,0.0833 0.017,0.31882 0.0377,0.52334 0.03,0.29587 0.0292,0.38214 -0.004,0.42215 -0.0478,0.0575 -0.0655,0.0605 -0.12809,0.0207 z m -0.185,-1.65958 c 0.0206,-0.0562 0.1476,-0.93409 0.1476,-1.02038 0,-0.0683 -7.6e-4,-0.0684 -0.0702,-0.007 -0.15144,0.13544 -0.68906,0.78421 -0.67784,0.81797 0.0121,0.0364 0.466,0.24346 0.54309,0.24771 0.0232,8.1e-4 0.049,-0.0162 0.0574,-0.0388 z m 0.9067,1.27841 c -0.0312,-0.0376 -0.0313,-0.0756 -3.8e-4,-0.17304 0.0876,-0.27687 0.50407,-0.96352 0.9703,-1.59975 0.19157,-0.26142 0.24903,-0.29417 0.36586,-0.20852 0.0618,0.0453 0.0593,0.0533 -0.0749,0.23895 -0.35346,0.48867 -0.54745,0.7855 -0.78248,1.19727 -0.23868,0.41817 -0.36119,0.59324 -0.41513,0.59324 -0.0128,0 -0.0412,-0.0217 -0.0631,-0.0482 z m -6.70295,-0.52722 c -0.0109,-0.0284 -0.006,-0.19604 0.0115,-0.37256 0.0172,-0.17653 0.0316,-0.33208 0.0321,-0.34567 3.8e-4,-0.0136 -0.035,-0.0247 -0.0788,-0.0247 -0.2271,0 -0.23604,-0.0804 -0.0292,-0.26248 l 0.15478,-0.13624 0.10623,-0.92289 c 0.0613,-0.53331 0.12353,-0.94373 0.1472,-0.97225 0.0225,-0.0271 0.0719,-0.0449 0.10976,-0.0395 0.0735,0.0105 0.0584,-0.0167 0.57041,1.03153 l 0.28973,0.59325 0.17257,0.0211 c 0.24939,0.0305 0.27806,0.0468 0.26599,0.15176 -0.008,0.0713 -0.0298,0.0931 -0.10108,0.10125 -0.0499,0.006 -0.0906,0.029 -0.0906,0.0518 0,0.0227 0.11124,0.19804 0.24719,0.38958 0.13596,0.19154 0.24719,0.37907 0.24719,0.41674 0,0.0377 -0.0313,0.0852 -0.0695,0.10565 -0.0596,0.0319 -0.0853,0.0218 -0.18219,-0.0721 -0.062,-0.0601 -0.22727,-0.27698 -0.36724,-0.48197 l -0.2545,-0.3727 -0.14832,0.0191 c -0.27548,0.0354 -0.62973,0.15517 -0.67353,0.22761 -0.0227,0.0377 -0.0588,0.21679 -0.08,0.39807 -0.0546,0.46563 -0.0741,0.5253 -0.17542,0.53735 -0.0531,0.007 -0.0916,-0.009 -0.10406,-0.0416 z m 0.57168,-1.30132 c 0.0635,-0.0169 0.17839,-0.047 0.25542,-0.067 0.077,-0.02 0.14007,-0.0562 0.14007,-0.0803 0,-0.0661 -0.42802,-0.92068 -0.45009,-0.8986 -0.0162,0.0162 -0.13919,0.91244 -0.14216,1.03577 -8.1e-4,0.0491 0.0421,0.0513 0.19676,0.0101 z m 3.21184,1.09736 c -0.23411,-0.25261 -0.73559,-1.21 -0.97286,-1.85732 -0.11097,-0.30275 -0.11084,-0.30316 -0.17986,0.52733 -0.0681,0.81907 -0.11118,1.15915 -0.15338,1.21001 -0.0481,0.0579 -0.11051,0.0532 -0.17731,-0.0136 -0.0637,-0.0637 -0.0605,-0.14478 0.0519,-1.32822 0.15537,-1.635 0.14609,-1.582 0.27678,-1.582 0.0447,0 0.09,0.0141 0.10063,0.0314 0.0106,0.0172 0.0798,0.236 0.15364,0.48614 0.0739,0.25014 0.19982,0.61794 0.27996,0.81734 0.16707,0.41571 0.54016,1.14376 0.58911,1.1496 0.0193,0.002 0.0429,-0.16665 0.0571,-0.40805 0.0654,-1.11897 0.27528,-2.07636 0.45522,-2.07636 0.097,0 0.10422,0.10525 0.0309,0.45002 -0.17965,0.84442 -0.18877,0.9222 -0.22601,1.92824 -0.0243,0.65525 -0.0447,0.75276 -0.15794,0.75276 -0.0258,0 -0.0833,-0.0392 -0.12781,-0.0872 z"
         id="path178" />
    </g>
  </g>
</svg>
