<?xml version="1.0" encoding="UTF-8" standalone="no"?>
<!-- Created with Inkscape (http://www.inkscape.org/) -->

<svg
   width="41.008999mm"
   height="41.008999mm"
   viewBox="0 0 41.008999 41.009"
   version="1.1"
   id="svg1"
   inkscape:version="1.4.2 (f4327f4, 2025-05-13)"
   sodipodi:docname="241.svg"
   xmlns:inkscape="http://www.inkscape.org/namespaces/inkscape"
   xmlns:sodipodi="http://sodipodi.sourceforge.net/DTD/sodipodi-0.dtd"
   xmlns="http://www.w3.org/2000/svg"
   xmlns:svg="http://www.w3.org/2000/svg">
  <sodipodi:namedview
     id="namedview1"
     pagecolor="#ffffff"
     bordercolor="#000000"
     borderopacity="0.25"
     inkscape:showpageshadow="2"
     inkscape:pageopacity="0.0"
     inkscape:pagecheckerboard="0"
     inkscape:deskcolor="#d1d1d1"
     inkscape:document-units="mm"
     inkscape:zoom="2.8970539"
     inkscape:cx="86.98492"
     inkscape:cy="83.18796"
     inkscape:window-width="1050"
     inkscape:window-height="1081"
     inkscape:window-x="3737"
     inkscape:window-y="0"
     inkscape:window-maximized="0"
     inkscape:current-layer="layer1" />
  <defs
     id="defs1" />
  <g
     inkscape:label="Layer 1"
     inkscape:groupmode="layer"
     id="layer1"
     transform="translate(-114.0891,-77.774176)">
    <g
       id="g185"
       transform="translate(-261.25772,203.19217)">
      <circle
         style="fill:none;stroke:#ff0000;stroke-width:0.1;stroke-dasharray:none"
         id="path788-8-1-8-1-9-2-6-3-4-7-1-6-19-5-9"
         cx="395.85132"
         cy="-104.9135"
         r="19.954653" />
      <ellipse
         style="fill:none;stroke:#ff00ff;stroke-width:0.1;stroke-dasharray:none;stroke-opacity:1"
         id="path1138-9-4-0-0-1-2-0-0-6-8-8-1-4-9-0"
         cx="395.85132"
         cy="-104.9135"
         rx="18.492125"
         ry="18.492126" />
      <circle
         style="fill:none;stroke:#0000ff;stroke-width:0.1;stroke-linecap:round;stroke-dasharray:none;stroke-opacity:1;paint-order:markers stroke fill"
         id="path13019-1-33-3-83-70-3-7-5-3-08-5"
         cx="395.85132"
         cy="-119.92449"
         r="2" />
      <path
         style="fill:#000000;stroke-width:0.26504"
         d="m 384.92367,-91.436743 c -0.13848,-0.138488 -0.29199,-0.554794 -0.2928,-0.794097 -2.2e-4,-0.06338 -0.0556,-0.136496 -0.12311,-0.1625 -0.11566,-0.04457 -0.11538,-0.0514 0.005,-0.119018 0.0703,-0.03945 0.20718,-0.05181 0.30422,-0.02746 0.14443,0.03625 0.16117,0.06267 0.0923,0.145665 -0.14929,0.179895 0.0815,0.874586 0.29065,0.874586 0.20493,0 0.16347,-0.221757 -0.1745,-0.933169 -0.36428,-0.766798 -0.40904,-0.899705 -0.40904,-1.21475 0,-0.290437 0.0947,-0.417456 0.3487,-0.467504 0.44448,-0.0876 0.86226,0.169172 0.9892,0.60798 0.0348,0.120591 0.086,0.274473 0.1136,0.341968 0.0423,0.103466 0.0105,0.12272 -0.20277,0.12272 -0.13912,0 -0.25295,-0.03154 -0.25295,-0.07013 0,-0.03856 0.0316,-0.07012 0.0701,-0.07012 0.18391,0 0.011,-0.546751 -0.21822,-0.689875 -0.39487,-0.246609 -0.37083,0.345894 0.0501,1.234762 0.50503,1.066436 0.48988,1.274776 -0.0968,1.331147 -0.2875,0.02762 -0.37563,0.008 -0.49379,-0.110212 z m 1.38982,0.05743 c 0,-0.03855 0.0276,-0.07012 0.0611,-0.07012 0.0942,0 0.14312,-2.407967 0.0503,-2.471912 -0.13088,-0.09013 0.10892,-0.190615 0.45764,-0.191776 0.22753,-7.84e-4 0.38134,0.04432 0.51793,0.151761 0.2963,0.23307 0.596,0.75067 0.596,1.029333 0,0.36489 -0.28814,0.798827 -0.66219,0.997263 -0.3117,0.165356 -0.4407,0.415204 -0.21437,0.415204 0.13886,0 0.13498,0.113817 -0.005,0.167812 -0.18144,0.06962 -0.8007,0.04831 -0.8007,-0.02758 z m 1.0278,-0.810061 c 0.25771,-0.196572 0.44483,-0.504476 0.44483,-0.732004 0,-0.323313 -0.55279,-1.095794 -0.66001,-0.922316 -0.0683,0.110498 -0.13992,1.833255 -0.0762,1.833255 0.0312,0 0.16236,-0.08052 0.2914,-0.178935 z m 2.54858,0.810061 c 0,-0.03855 0.0268,-0.07012 0.0595,-0.07012 0.0327,0 0.0586,-0.449678 0.0575,-0.999283 -9.2e-4,-0.549606 0.0225,-1.103907 0.0523,-1.231777 0.0442,-0.189305 0.0343,-0.228383 -0.053,-0.210376 -0.0589,0.01216 -0.11081,-0.0095 -0.11526,-0.04801 -0.0145,-0.125819 0.6715,-0.204198 0.91272,-0.104278 0.30101,0.124677 0.55881,0.525535 0.55881,0.868891 0,0.23735 -0.0461,0.320427 -0.32752,0.590065 l -0.32752,0.313822 0.16195,0.305286 c 0.17662,0.332919 0.22149,0.358367 0.35284,0.200095 0.10842,-0.130647 0.21037,-0.135915 0.21037,-0.01087 0,0.141292 -0.2525,0.342105 -0.39553,0.314563 -0.069,-0.01329 -0.19758,-0.131173 -0.28572,-0.261961 l -0.16025,-0.237789 v 0.220746 c 0,0.14947 0.034,0.220746 0.10518,0.220746 0.16208,0 0.1245,0.11872 -0.0526,0.166175 -0.253,0.0678 -0.75384,0.05058 -0.75384,-0.02593 z m 1.11657,-1.446576 c 0.21111,-0.268386 0.18526,-0.537102 -0.0808,-0.840145 -0.22523,-0.256522 -0.22677,-0.257027 -0.27352,-0.09009 -0.0258,0.09233 -0.0501,0.413545 -0.054,0.713811 -0.006,0.517852 -6e-5,0.542225 0.12782,0.473789 0.0741,-0.03968 0.20037,-0.155495 0.2805,-0.25736 z m 5.78591,1.438736 c -0.0265,-0.04288 -0.0172,-0.09811 0.0205,-0.122716 0.0377,-0.02463 0.0887,-0.43921 0.11322,-0.921322 0.0246,-0.48211 0.0748,-1.001706 0.11167,-1.154664 0.0416,-0.172623 0.0422,-0.308056 0.002,-0.35708 -0.10731,-0.129303 0.003,-0.171259 0.44983,-0.171259 0.28691,0 0.40012,0.02299 0.35173,0.07136 -0.0484,0.04839 -0.02,0.381302 0.0881,1.03435 0.0878,0.529645 0.16087,1.045907 0.16252,1.147247 0.002,0.101344 0.0499,0.223257 0.1074,0.270916 0.16985,0.140967 0.0523,0.211015 -0.35399,0.211015 -0.33616,0 -0.51064,-0.08553 -0.31056,-0.152227 0.0464,-0.01549 0.0344,-0.266053 -0.0346,-0.724626 -0.0581,-0.38553 -0.10584,-0.72463 -0.10606,-0.753557 -2.2e-4,-0.02894 -0.0436,-0.05259 -0.0964,-0.05259 -0.18319,0 -0.27554,1.494123 -0.0968,1.566638 0.066,0.02674 0.0617,0.05398 -0.0175,0.109956 -0.13766,0.09735 -0.32991,0.09665 -0.39053,-0.0012 z m 0.53079,-2.025788 c 0,-0.07714 -0.0121,-0.140253 -0.0268,-0.140253 -0.0148,0 -0.0433,0.06312 -0.0636,0.140253 -0.0202,0.07714 -0.008,0.140248 0.0269,0.140248 0.0349,0 0.0636,-0.06311 0.0636,-0.140248 z m 1.19213,2.03777 c 0,-0.03628 0.0316,-0.08549 0.0701,-0.109325 0.10938,-0.06761 0.0927,-2.258223 -0.0175,-2.302952 -0.13963,-0.05666 0.0855,-0.182453 0.35062,-0.195942 0.12535,-0.0064 0.26736,-0.01475 0.31557,-0.01859 0.0531,-0.0042 0.08,0.06146 0.0682,0.16669 -0.0207,0.184296 0.18088,0.911836 0.38042,1.372912 0.11972,0.276642 0.11972,0.276642 0.21101,-0.56486 0.0502,-0.462825 0.0756,-0.912507 0.0564,-0.999287 -0.0311,-0.140344 -0.007,-0.157778 0.21187,-0.157778 0.26549,0 0.30458,0.04443 0.14744,0.16758 -0.10681,0.08372 -0.25128,1.198449 -0.25128,1.938924 0,0.346663 0.0203,0.418002 0.11921,0.418002 0.25177,0 -0.0277,0.124536 -0.37796,0.168457 -0.32072,0.04021 -0.363,0.03083 -0.35598,-0.07894 0.005,-0.06852 -0.10451,-0.408584 -0.24198,-0.755702 -0.13748,-0.347122 -0.26669,-0.678461 -0.28715,-0.736318 -0.0205,-0.05785 -0.0397,0.27507 -0.0427,0.739825 -0.004,0.570448 0.0218,0.87235 0.0786,0.929157 0.0654,0.06546 0.0265,0.08415 -0.17532,0.08415 -0.14271,0 -0.25946,-0.02969 -0.25946,-0.06599 z m 5.84753,-0.01699 c -0.0286,-0.04624 -0.0148,-0.09646 0.0306,-0.111589 0.0553,-0.01843 0.0837,-0.250736 0.0862,-0.705391 0.002,-0.372832 0.0448,-0.907616 0.0951,-1.188408 0.0506,-0.282381 0.064,-0.527413 0.0302,-0.548315 -0.14231,-0.08796 0.0457,-0.168348 0.39369,-0.168348 0.34307,0 0.37362,0.0131 0.36795,0.157785 -0.0138,0.352699 0.33088,2.336029 0.41877,2.409516 0.16344,0.136636 0.10293,0.167584 -0.32763,0.167584 -0.23141,0 -0.42075,-0.02891 -0.42075,-0.06428 0,-0.03534 0.0271,-0.0748 0.0603,-0.08766 0.0738,-0.02859 -0.11486,-1.469969 -0.2043,-1.561456 -0.12466,-0.127506 -0.16861,0.04747 -0.19569,0.77922 -0.021,0.566134 -0.005,0.754028 0.0665,0.7984 0.11839,0.07317 0.0605,0.132777 -0.16947,0.174478 -0.0987,0.01788 -0.20281,-0.0053 -0.23139,-0.05154 z m 0.53387,-2.024936 c 0,-0.07942 -0.0316,-0.124882 -0.0701,-0.10105 -0.0386,0.02381 -0.0701,0.08881 -0.0701,0.14439 0,0.05558 0.0315,0.10105 0.0701,0.10105 0.0386,0 0.0701,-0.06498 0.0701,-0.14439 z m 1.2494,0.911149 c 0.0147,-0.793724 -0.004,-1.228023 -0.0544,-1.289223 -0.0573,-0.06905 -0.0482,-0.103175 0.0361,-0.135538 0.18282,-0.07015 0.8025,-0.04939 0.8025,0.02686 0,0.03855 -0.043,0.07013 -0.0955,0.07013 -0.13025,0 -0.20434,0.862168 -0.14343,1.669083 0.0453,0.599172 0.0529,0.620956 0.20672,0.591543 0.0879,-0.01678 0.17628,-0.09369 0.19647,-0.170886 0.0477,-0.182468 0.18638,-0.09606 0.18638,0.116142 0,0.146478 -0.0474,0.172224 -0.44402,0.2413 -0.7857,0.136824 -0.71623,0.249406 -0.69083,-1.119423 z m -12.39932,1.062338 c 0,-0.03534 0.029,-0.0748 0.0644,-0.08766 0.0354,-0.01286 0.0749,-0.551971 0.0877,-1.198041 l 0.0233,-1.17466 -0.19941,6.6e-5 c -0.14173,4.7e-5 -0.21024,0.04146 -0.23683,0.143183 -0.0497,0.189866 -0.19489,0.134876 -0.19489,-0.07379 0,-0.217372 0.19173,-0.264918 1.18045,-0.292731 0.76631,-0.02157 0.78354,-0.01867 0.80547,0.135746 0.0251,0.176934 -0.10495,0.211215 -0.22506,0.05932 -0.0498,-0.06304 -0.15676,-0.08586 -0.29715,-0.06343 -0.19988,0.03193 -0.22315,0.06322 -0.26297,0.353693 -0.024,0.175259 -0.0437,0.705331 -0.0437,1.177931 0,0.74834 0.0156,0.865259 0.12076,0.905612 0.10344,0.0397 0.10595,0.0557 0.0175,0.111616 -0.13372,0.08457 -0.83954,0.08721 -0.83954,0.0031 z m 8.41503,-0.0059 c 0,-0.03856 0.0236,-0.07017 0.0526,-0.07024 0.0684,-1.46e-4 0.0688,-2.113748 4e-4,-2.219015 -0.0698,-0.107479 0.0989,-0.165132 0.48339,-0.165132 0.27799,0 0.30961,0.01561 0.27194,0.134287 -0.0235,0.07386 -0.0209,0.220812 0.006,0.326566 0.0483,0.192282 0.0483,0.192282 0.19012,-0.08169 0.078,-0.150686 0.14686,-0.337083 0.15297,-0.414219 0.01,-0.122509 0.0681,-0.142481 0.46137,-0.157853 0.41685,-0.01632 0.43992,-0.0096 0.31095,0.08999 -0.12864,0.09935 -0.13939,0.193576 -0.14026,1.229686 -7.8e-4,0.912625 0.0183,1.134022 0.10222,1.185984 0.14604,0.09045 0.0825,0.126788 -0.30261,0.173016 -0.33764,0.04053 -0.54835,-0.0069 -0.41221,-0.09274 0.0439,-0.02769 0.0531,-0.37983 0.025,-0.955455 l -0.0444,-0.911629 -0.16689,0.439775 c -0.0918,0.241874 -0.1971,0.458439 -0.23402,0.481259 -0.0924,0.05712 -0.21451,-0.07787 -0.31254,-0.345592 -0.0723,-0.19729 -0.083,-0.132522 -0.0877,0.529033 -0.003,0.45937 0.0221,0.753844 0.0648,0.753844 0.0386,0 0.0701,0.03157 0.0701,0.07013 0,0.03856 -0.11045,0.07012 -0.24544,0.07012 -0.135,0 -0.24544,-0.03157 -0.24544,-0.07012 z m -13.97638,-0.04484 c -0.0795,-0.07948 0.0249,-0.165532 0.20092,-0.165532 0.16974,0 0.17117,-0.0057 0.17166,-0.68372 2.7e-4,-0.376045 0.0203,-0.89397 0.0446,-1.150934 0.0429,-0.453664 0.0393,-0.467901 -0.12323,-0.490878 -0.092,-0.01302 -0.15157,-0.05522 -0.13228,-0.09379 0.0352,-0.07025 1.25651,-0.06417 1.32729,0.0066 0.0684,0.0684 -0.16937,0.162798 -0.31683,0.125788 -0.13646,-0.03424 -0.1512,-3.92e-4 -0.19292,0.441201 -0.0248,0.263056 -0.0453,0.785962 -0.0456,1.162007 -3.9e-4,0.682685 -2.4e-4,0.683721 0.17481,0.683721 0.19586,0 0.23511,0.102301 0.0644,0.167811 -0.14762,0.05665 -1.11575,0.05477 -1.17279,-0.0024 z m 3.43613,0 c -0.0794,-0.07948 0.0249,-0.165532 0.20092,-0.165532 0.16762,0 0.17119,-0.01204 0.17159,-0.578532 2.4e-4,-0.318195 0.0203,-0.834368 0.0447,-1.147048 0.0443,-0.568519 0.0443,-0.568519 -0.15081,-0.617477 -0.13714,-0.03444 -0.17305,-0.07099 -0.1209,-0.123136 0.0852,-0.08522 1.34862,-0.0085 1.34862,0.08187 0,0.08438 -0.18051,0.134991 -0.3362,0.09428 -0.13306,-0.03479 -0.14163,0.01247 -0.19026,1.050124 -0.028,0.597607 -0.0296,1.121067 -0.004,1.163235 0.026,0.04217 0.12442,0.07668 0.21857,0.07668 0.24465,0 0.21164,0.114625 -0.0479,0.166547 -0.28626,0.05725 -1.07715,0.05654 -1.1347,-0.0012 z m 8.97603,-0.07013 c -0.0763,-0.07635 0.0222,-0.165508 0.18339,-0.165952 0.15078,-3.92e-4 0.15404,-0.02126 0.17509,-1.122004 0.0209,-1.091962 0.0177,-1.121584 -0.12272,-1.121584 -0.0793,0 -0.14417,-0.03275 -0.14417,-0.07276 0,-0.09527 1.25671,-0.05826 1.28017,0.03769 0.009,0.03856 -0.0808,0.07968 -0.20065,0.09135 -0.2178,0.02122 -0.2178,0.02122 -0.26255,0.596066 -0.0247,0.316162 -0.045,0.803624 -0.0452,1.083251 -3.9e-4,0.495662 0.004,0.508406 0.17489,0.508406 0.21823,0 0.22975,0.109302 0.0175,0.166175 -0.21058,0.05643 -0.99922,0.05595 -1.05582,-3.92e-4 z m -2.27574,-2.638679 c -0.33534,-0.194793 -0.48302,-0.604264 -0.36972,-1.02505 0.087,-0.322988 0.60538,-1.014533 1.18718,-1.583683 0.23533,-0.230207 0.42787,-0.464108 0.42787,-0.519777 0,-0.159939 -0.23077,-0.84986 -0.28427,-0.84986 -0.0266,0 -0.0699,0.162715 -0.0963,0.361591 -0.0559,0.421566 -0.21271,0.760409 -0.35185,0.760409 -0.19472,0 -0.33169,-0.09296 -0.40155,-0.272532 -0.0676,-0.173781 -0.0805,-0.157829 -0.24875,0.307597 -0.42837,1.18509 -0.80301,1.17963 -1.10702,-0.01616 -0.15634,-0.614994 -0.15634,-0.614994 -0.23354,-0.334488 -0.0424,0.154271 -0.10321,0.40625 -0.135,0.559949 -0.0401,0.194098 -0.11459,0.31133 -0.24374,0.383823 -0.10228,0.0574 -0.20281,0.08751 -0.22343,0.06689 -0.0206,-0.02063 -0.11807,-0.315626 -0.21659,-0.655595 -0.3633,-1.253682 -0.52274,-1.16689 -0.52449,0.285515 -7.9e-4,0.603071 -0.0109,0.647227 -0.17362,0.753843 -0.0951,0.06229 -0.18912,0.113256 -0.20901,0.113256 -0.0567,0 -0.45914,-0.891543 -0.50422,-1.116979 -0.0314,-0.157331 -0.008,-0.219542 0.10262,-0.279059 0.17627,-0.09434 0.22245,-0.0961 0.22245,-0.0084 0,0.03746 0.0851,0.250477 0.18907,0.473349 l 0.18907,0.405214 0.043,-0.715969 c 0.0333,-0.555732 0.0719,-0.747987 0.17243,-0.859035 0.33525,-0.370451 0.64298,-0.06939 1.00057,0.978943 0.0197,0.05785 0.0762,-0.06648 0.12549,-0.276293 0.09,-0.383133 0.25681,-0.586518 0.45048,-0.549218 0.18133,0.03491 0.40495,0.455055 0.49433,0.928738 0.0476,0.251775 0.11116,0.457773 0.14145,0.457773 0.089,0 0.44476,-1.046488 0.45009,-1.323754 0.005,-0.289206 0.0678,-0.356653 0.33049,-0.358179 0.2121,-0.0012 0.27047,0.104831 0.27047,0.491403 0,0.148843 0.0292,0.288672 0.0649,0.310732 0.0626,0.03867 0.16873,-0.354488 0.27369,-1.013581 0.0437,-0.274521 0.0746,-0.318399 0.23751,-0.337368 0.2081,-0.02424 0.31778,0.129479 0.47976,0.672394 l 0.0895,0.29996 0.19993,-0.191548 c 0.10997,-0.105353 0.25279,-0.311339 0.31739,-0.457746 0.0646,-0.146404 0.15935,-0.266194 0.21056,-0.266194 0.12405,0 -0.1131,0.468269 -0.40625,0.802157 -0.21517,0.245057 -0.21517,0.245057 -0.12968,0.898505 0.14282,1.091587 -0.13115,2.052063 -0.72095,2.527522 -0.30013,0.241946 -0.82611,0.324408 -1.09031,0.170941 z m 0.91234,-0.293701 c 0.39046,-0.37921 0.59237,-1.157422 0.50703,-1.954273 -0.0772,-0.721075 -0.10512,-0.722891 -0.73586,-0.0478 -0.93172,0.997216 -1.15252,1.612501 -0.73885,2.058865 0.26085,0.281462 0.64246,0.25907 0.96768,-0.05679 z m -6.70958,-0.07824 c -0.0607,-0.06061 -0.11021,-0.140507 -0.11021,-0.177561 0,-0.122689 0.2138,-0.581545 0.33164,-0.711749 0.10888,-0.120312 0.10272,-0.141261 -0.10164,-0.345616 l -0.21754,-0.217541 -0.17985,0.34305 c -0.2122,0.404753 -0.30265,0.521381 -0.52086,0.671613 -0.34618,0.238329 -0.63653,-0.06319 -0.69638,-0.723164 -0.0374,-0.411835 -0.0374,-0.411835 0.16853,-0.411835 0.19904,0 0.20851,0.01541 0.28554,0.465144 0.11077,0.646674 0.17311,0.677523 0.46006,0.22766 0.35435,-0.555524 0.37232,-0.657636 0.16008,-0.909863 -0.24797,-0.294708 -0.23594,-0.565287 0.0353,-0.793524 0.23785,-0.200139 0.26515,-0.207905 0.40953,-0.116515 0.10801,0.06837 0.12584,0.317457 0.051,0.713489 -0.0447,0.236946 -0.0301,0.264754 0.23621,0.449322 l 0.28391,0.196741 0.21446,-0.203884 c 0.11795,-0.112134 0.2598,-0.290664 0.3152,-0.396731 0.0977,-0.187002 0.23737,-0.261369 0.23737,-0.126356 0,0.03656 -0.15134,0.249566 -0.3363,0.473341 -0.29475,0.356582 -0.3282,0.42938 -0.2707,0.589076 0.0983,0.273065 -0.008,0.689222 -0.23427,0.915279 -0.22605,0.226057 -0.36144,0.249343 -0.52116,0.08963 z m 0.29632,-0.118099 c 0.11138,-0.134201 0.17267,-0.445427 0.12024,-0.610602 -0.0467,-0.147136 -0.0475,-0.147058 -0.1773,0.018 -0.0717,0.09117 -0.15109,0.248268 -0.1764,0.349095 -0.0713,0.28404 0.074,0.435604 0.23346,0.243499 z m -0.3364,-1.901754 c 0,-0.05303 0.0197,-0.195039 0.0438,-0.315563 0.0349,-0.174456 0.0202,-0.219142 -0.0716,-0.219142 -0.17119,0 -0.2865,0.296701 -0.18733,0.482005 0.09,0.168109 0.21513,0.19877 0.21513,0.0527 z m -1.3854,-0.02031 c -0.11049,-0.04455 -0.0433,-0.163786 0.0922,-0.163786 0.0556,0 0.10105,0.04733 0.10105,0.105184 0,0.108133 -0.0402,0.120319 -0.19327,0.0586 z m -2.29084,-2.425326 c -0.17141,-0.172792 -0.24884,-0.338133 -0.32019,-0.683721 -0.0518,-0.250696 -0.13621,-0.48105 -0.18766,-0.51189 -0.18273,-0.10954 -0.0891,-0.18936 0.22202,-0.18936 0.31949,0 0.3795,0.0483 0.23708,0.19068 -0.0579,0.0579 -0.0558,0.17656 0.008,0.452305 0.10801,0.467524 0.24409,0.689392 0.42283,0.689392 0.25694,0 0.17,-0.407953 -0.28316,-1.328737 -0.23198,-0.47135 -0.45198,-0.99177 -0.4889,-1.15648 -0.0781,-0.34878 0.002,-0.70932 0.18926,-0.85137 0.19378,-0.147 0.85748,-0.1245 1.10305,0.0374 0.25677,0.16926 0.52917,0.60891 0.52965,0.85486 1.9e-4,0.10194 0.0477,0.2035 0.10554,0.2257 0.21216,0.0814 0.0967,0.18502 -0.20624,0.18502 -0.33533,0 -0.46421,-0.0917 -0.27654,-0.19668 0.18909,-0.10582 0.0699,-0.52249 -0.22309,-0.77972 -0.13513,-0.11865 -0.27233,-0.21573 -0.30487,-0.21573 -0.11423,0 -0.23266,0.41757 -0.18718,0.65996 0.0249,0.13287 0.23186,0.6206 0.45987,1.08388 0.60639,1.232113 0.62256,1.540537 0.0886,1.688836 -0.45211,0.125559 -0.64326,0.09234 -0.88794,-0.154323 z m 7.67977,0.101473 c -0.11009,-0.03671 -0.0942,-0.139861 0.0256,-0.166458 0.0847,-0.01883 0.10634,-0.287758 0.12673,-1.582956 0.0217,-1.37651 0.0117,-1.56018 -0.0847,-1.55933 -0.23518,0.002 -0.41338,0.0881 -0.44678,0.2159 -0.0192,0.0736 -0.0853,0.13376 -0.14673,0.13376 -0.0802,0 -0.11176,-0.0668 -0.11176,-0.23625 0,-0.21606 0.0212,-0.2397 0.24751,-0.27643 0.54256,-0.088 2.19627,-0.20764 2.3033,-0.16657 0.0706,0.027 0.11395,0.12477 0.11395,0.2563 0,0.16583 -0.0308,0.21258 -0.14025,0.21258 -0.0931,0 -0.14025,-0.0467 -0.14025,-0.1389 0,-0.12498 -0.0334,-0.13462 -0.33309,-0.0961 -0.1832,0.0236 -0.35433,0.0624 -0.38028,0.0863 -0.0259,0.0239 -0.0837,0.4192 -0.12845,0.87839 -0.10066,1.03424 -0.0366,2.117842 0.13089,2.211536 0.0625,0.03499 0.091,0.08635 0.0632,0.114127 -0.0572,0.05722 -0.98173,0.153189 -1.09901,0.114092 z m -5.19566,-0.08394 c 0,-0.03856 0.0446,-0.07013 0.0991,-0.07013 0.0813,0 0.097,-0.179732 0.0877,-0.999284 -0.006,-0.54961 0.0144,-1.25962 0.046,-1.57782 0.0571,-0.57496 0.0564,-0.57853 -0.10519,-0.57758 -0.30609,0.002 -0.47815,0.082 -0.47815,0.22274 0,0.0928 -0.0398,0.12968 -0.12272,0.11397 -0.15063,-0.0285 -0.22041,-0.4771 -0.0746,-0.47931 0.0507,-7.9e-4 0.51811,-0.0475 1.03878,-0.10379 0.52069,-0.0564 1.08081,-0.10303 1.24473,-0.1038 0.29413,-9.2e-4 0.29803,0.002 0.29803,0.24405 0,0.26874 -0.1684,0.34788 -0.24264,0.11401 -0.0353,-0.11124 -0.0926,-0.12595 -0.37287,-0.0958 -0.18215,0.0196 -0.34063,0.0434 -0.35218,0.053 -0.048,0.04 -0.15192,1.3056 -0.15306,1.86495 -0.002,0.809552 0.0635,1.254515 0.18359,1.254515 0.15452,0 0.10961,0.120155 -0.0621,0.166179 -0.25941,0.06952 -1.03434,0.0501 -1.03434,-0.02593 z m 9.78217,-3.92e-4 c -0.024,-0.03883 0.002,-0.08814 0.0578,-0.109557 0.084,-0.03228 0.0999,-0.266684 0.0921,-1.366915 -0.008,-1.21441 -0.0199,-1.32798 -0.13209,-1.32801 -0.17599,-5e-5 -0.15148,-0.11621 0.0351,-0.1662 0.42627,-0.11424 1.31199,-0.008 0.94669,0.11353 -0.0633,0.0211 -0.0944,0.31493 -0.11177,1.05772 l -0.0241,1.028547 h 0.25201 0.25202 l 9.1e-4,-1.174597 c 4e-4,-0.64602 0.02,-1.24559 0.0433,-1.33237 0.0312,-0.116 0.0123,-0.15778 -0.0711,-0.15778 -0.11601,0 -0.15531,-0.10625 -0.0607,-0.16425 0.12291,-0.0754 1.09417,-0.077 1.11923,-0.002 0.0143,0.043 -0.034,0.0938 -0.1074,0.11302 -0.11558,0.0302 -0.14015,0.12963 -0.18363,0.74286 -0.0463,0.65238 -0.0129,1.68715 0.0721,2.237958 0.0221,0.143084 0.0753,0.227904 0.14303,0.227904 0.0594,0 0.0948,0.03944 0.0789,0.08766 -0.0341,0.103297 -1.03585,0.205771 -1.13401,0.116009 -0.0376,-0.0344 -0.0158,-0.07744 0.0526,-0.103678 0.0643,-0.02467 0.11691,-0.104603 0.11691,-0.177616 0,-0.10496 -0.0514,-0.132746 -0.24544,-0.132746 -0.19868,0 -0.24544,0.02671 -0.24544,0.14025 0,0.07792 0.0467,0.140252 0.10519,0.140252 0.0578,0 0.10519,0.04284 0.10519,0.0952 0,0.06497 -0.13687,0.109502 -0.43103,0.140249 -0.5794,0.06056 -0.6752,0.05718 -0.72635,-0.02557 z m -7.42713,-0.06019 c -0.0812,-0.131307 0.0238,-0.219805 0.26126,-0.220166 l 0.22377,-2.67e-4 0.008,-1.222609 c 0.005,-0.67244 0.0284,-1.35075 0.0534,-1.50736 0.042,-0.2622 0.033,-0.28482 -0.11307,-0.28581 -0.0872,-3.9e-4 -0.20595,-0.0322 -0.2638,-0.0701 -0.21417,-0.14058 0.091,-0.2002 0.83799,-0.16371 0.81862,0.04 0.91515,0.0572 0.91515,0.16259 0,0.0398 -0.13726,0.0723 -0.305,0.0723 h -0.30499 l -0.0453,0.68372 c -0.0249,0.37605 -0.0454,1.05451 -0.0456,1.50769 l -2.6e-4,0.823969 h 0.24544 c 0.17141,0 0.24543,0.03173 0.24543,0.105193 0,0.07737 -0.0806,0.105188 -0.30498,0.105188 -0.16774,0 -0.54193,0.02005 -0.83152,0.04451 -0.36103,0.03051 -0.54201,0.0195 -0.57572,-0.03506 z m 5.57215,-0.19684 c -0.44042,-0.559886 -0.6216,-1.651622 -0.4004,-2.412552 0.23444,-0.80643 0.81856,-1.07841 1.27552,-0.59389 0.25791,0.27346 0.45422,0.77706 0.45422,1.16519 0,0.17157 0.0374,0.27487 0.10963,0.30258 0.0603,0.0232 0.09,0.0738 0.066,0.11269 -0.0562,0.0909 -0.45959,0.0896 -0.59636,-0.002 -0.092,-0.0616 -0.0898,-0.0822 0.0175,-0.16444 0.0675,-0.0518 0.12272,-0.17174 0.12272,-0.26668 0,-0.2637 -0.20248,-0.79984 -0.35379,-0.93676 -0.13051,-0.11811 -0.13974,-0.11187 -0.27478,0.18574 -0.19835,0.43717 -0.19698,1.38515 0.003,1.919063 0.0801,0.214031 0.17181,0.372962 0.20382,0.353174 0.10094,-0.06239 0.27685,-0.661677 0.20691,-0.704897 -0.036,-0.0222 -0.0654,-0.072 -0.0654,-0.11047 0,-0.10121 0.57958,-0.0438 0.61399,0.0608 0.0159,0.0482 -0.0169,0.0877 -0.0728,0.0877 -0.0607,0 -0.16495,0.17365 -0.25882,0.431082 -0.265,0.726795 -0.73039,0.980884 -1.05072,0.573661 z m -10.28405,-3.966872 c -0.0489,-0.28769 -0.0929,-0.37197 -0.20271,-0.38841 -0.35672,-0.0534 -0.43715,-0.0941 -0.51241,-0.25932 -0.11005,-0.24152 -0.24387,-0.22247 -0.54377,0.0774 -0.23865,0.23866 -0.27509,0.25197 -0.58822,0.21489 -0.32209,-0.0381 -0.34443,-0.0287 -0.63611,0.26847 -0.16625,0.16941 -0.32862,0.29175 -0.3608,0.27186 -0.0793,-0.049 -0.0724,-0.59858 0.009,-0.72754 0.0874,-0.13825 -0.10893,-0.35843 -0.26708,-0.29947 -0.0639,0.0238 -0.26162,0.13213 -0.43945,0.24071 -0.17782,0.10857 -0.34349,0.19741 -0.36815,0.19741 -0.0247,0 -0.0448,-0.10619 -0.0448,-0.23598 0,-0.31301 0.22603,-0.58895 0.52897,-0.64578 0.26439,-0.0496 0.2978,-0.10697 0.13901,-0.23875 -0.0726,-0.0602 -0.23236,-0.0708 -0.53555,-0.0356 -0.43216,0.0501 -0.43216,0.0501 -0.38306,-0.15068 0.0913,-0.3736 0.36408,-0.53695 0.70755,-0.42373 0.10511,0.0346 0.15906,0.006 0.21038,-0.1107 0.0446,-0.10174 0.18783,-0.1949 0.40546,-0.26376 0.37971,-0.12017 0.46738,-0.21957 0.46891,-0.53167 0.003,-0.46272 0.64972,-1.10604 1.52671,-1.51701 0.31972,-0.14983 0.5647,-0.29929 0.5444,-0.33215 -0.0203,-0.0329 -0.17843,-0.14925 -0.35138,-0.25867 -0.17295,-0.10941 -0.3286,-0.23579 -0.34588,-0.28083 -0.0172,-0.0451 0.0258,-0.23446 0.0957,-0.42093 0.26764,-0.7138 0.29775,-0.6546 -0.33304,-0.6546 h -0.55704 l -0.25278,-0.48105 c -0.56423,-1.07371 -0.98043,-2.78121 -0.94979,-3.89651 0.0205,-0.74779 0.23526,-1.53255 0.65373,-2.38952 0.55755,-1.14173 1.39703,-1.99857 1.95807,-1.99857 0.28306,0 0.64279,0.47155 0.84284,1.10483 0.2651,0.83918 0.33774,1.57372 0.31816,3.21708 l -0.0177,1.48758 0.26213,0.51646 c 0.19981,0.39364 0.2919,0.69927 0.38728,1.28523 0.0688,0.42283 0.14331,0.72145 0.16554,0.66359 0.0223,-0.0578 0.0946,-0.27874 0.16081,-0.49087 0.29774,-0.95389 0.79145,-1.66967 1.65122,-2.39399 0.50681,-0.42696 1.26764,-0.86882 1.83676,-1.0667 0.11072,-0.0385 0.26993,-0.32781 0.43026,-0.78189 0.0484,-0.13693 0.0519,-0.13711 0.14718,-0.007 0.0537,0.0729 0.10858,0.16546 0.12194,0.20554 0.0145,0.0434 0.15609,0.009 0.3504,-0.085 0.41308,-0.19998 0.72441,-0.18005 0.7006,0.0448 -0.0131,0.12386 0.019,0.15778 0.14919,0.15778 0.20861,0 0.3927,0.19429 0.26115,0.2756 -0.0524,0.0323 0.0635,0.0725 0.285,0.0987 1.18894,0.14085 2.08566,0.57162 2.9754,1.42933 0.54398,0.5244 0.68045,0.704 0.92071,1.21171 0.2597,0.54883 0.50934,1.35011 0.50934,1.6349 0,0.065 0.0315,0.11824 0.0701,0.11824 0.0386,0 0.0701,-0.0724 0.0701,-0.16095 0,-0.31405 0.36248,-1.54945 0.57828,-1.97087 0.21904,-0.42776 0.21904,-0.42776 0.23105,-2.21595 0.0136,-2.0268 0.11623,-2.8391 0.44895,-3.55304 0.37268,-0.79968 0.69764,-0.83298 1.37558,-0.14093 0.55814,0.56975 0.94643,1.24001 1.26656,2.18628 0.25557,0.75544 0.26104,0.79383 0.26511,1.85832 0.003,0.80696 -0.0291,1.24047 -0.12516,1.683 -0.15829,0.72954 -0.51756,1.79974 -0.77272,2.30178 l -0.18975,0.37333 -0.45201,-0.0484 c -0.53171,-0.057 -0.54216,-0.0356 -0.31094,0.63648 l 0.14106,0.41003 -0.21119,0.21789 c -0.11615,0.11984 -0.21119,0.23656 -0.21119,0.25936 0,0.0228 0.23604,0.15357 0.52453,0.29057 0.54157,0.25719 1.16637,0.77512 1.33992,1.1107 0.0545,0.10536 0.0991,0.28551 0.0991,0.40033 0,0.22364 0.26906,0.49945 0.48721,0.49945 0.0647,0 0.20625,0.0925 0.3145,0.20545 0.16566,0.17291 0.2242,0.19504 0.36962,0.13976 0.22216,-0.0845 0.54362,0.0946 0.65571,0.36518 0.11885,0.28693 0.0519,0.32638 -0.42397,0.24975 -0.38313,-0.0617 -0.43611,-0.0553 -0.52424,0.0641 -0.0858,0.1162 -0.0833,0.13547 0.02,0.15425 0.362,0.0659 0.49808,0.176 0.60498,0.48977 0.14776,0.43365 0.0566,0.51221 -0.31144,0.2686 -0.42457,-0.28096 -0.57904,-0.32531 -0.73522,-0.21111 -0.104,0.076 -0.11523,0.11678 -0.0501,0.18188 0.0947,0.0948 0.11527,0.72942 0.0254,0.78498 -0.0322,0.0199 -0.19455,-0.10246 -0.3608,-0.27186 -0.29056,-0.29605 -0.31508,-0.3065 -0.63121,-0.26906 -0.30802,0.0365 -0.34459,0.0228 -0.57545,-0.21488 -0.29514,-0.30391 -0.43879,-0.31949 -0.56224,-0.061 -0.0718,0.15039 -0.15356,0.20056 -0.3713,0.2279 -0.17668,0.0222 -0.28419,0.0737 -0.29275,0.14025 -0.0613,0.4759 -0.1104,0.63113 -0.19975,0.63113 -0.18336,0 -0.32865,-0.32373 -0.30589,-0.68151 0.0292,-0.45872 -0.12718,-0.85535 -0.35617,-0.90345 -0.51518,-0.1082 -1.42884,-0.42371 -1.89438,-0.65416 l -0.52751,-0.26112 -0.66619,0.16356 c -1.49382,0.36677 -3.80131,0.38909 -5.36459,0.0519 -0.46282,-0.0998 -0.92337,-0.19747 -1.02345,-0.21697 -0.12089,-0.0236 -0.3445,0.0451 -0.6662,0.2046 -0.66761,0.33097 -1.17659,0.52351 -1.70101,0.64343 -0.24499,0.056 -0.45104,0.11181 -0.4579,0.12396 -0.16049,0.28407 -0.22573,0.53737 -0.17425,0.67654 0.0691,0.18668 0.0192,0.46514 -0.12453,0.69546 -0.16315,0.26144 -0.28023,0.19098 -0.34834,-0.20963 z m -1.57251,-0.57805 c 0.12517,-0.0647 0.23259,-0.19951 0.28459,-0.3571 0.0604,-0.18296 0.10476,-0.23188 0.16012,-0.17653 0.12278,0.12279 0.31579,0.0885 0.36441,-0.0647 0.0659,-0.20761 0.17499,-0.0976 0.17499,0.17649 0,0.16576 0.047,0.27025 0.15586,0.34649 0.21267,0.14896 0.2649,0.13762 0.2649,-0.0575 0,-0.23246 0.16177,-0.35509 0.34153,-0.25889 0.20129,0.10772 0.21947,0.0974 0.21947,-0.12451 0,-0.2238 -0.14414,-0.37782 -0.45581,-0.48706 -0.21038,-0.0738 -0.21038,-0.0738 0.0781,-0.0793 0.18902,-0.004 0.35009,0.0429 0.46689,0.13472 0.0981,0.0771 0.2073,0.14024 0.24277,0.14024 0.13787,0 1.40436,-0.44697 1.73665,-0.61291 0.56189,-0.28058 0.56994,-0.2977 0.2303,-0.4894 -0.4215,-0.2379 -0.74029,-0.56004 -0.93899,-0.94884 -0.0936,-0.1832 -0.21002,-0.3331 -0.25865,-0.3331 -0.11895,0 -1.1042,-0.50707 -1.37669,-0.70852 -0.21801,-0.16118 -0.21801,-0.16118 -0.61999,-0.0253 -0.53513,0.18091 -1.34308,0.73316 -1.55191,1.06075 -0.0925,0.1451 -0.17139,0.36051 -0.17532,0.4787 -0.0104,0.31257 -0.25886,0.59686 -0.52166,0.59686 -0.25459,0 -0.43216,0.21312 -0.43216,0.51871 0,0.20699 0,0.20699 0.16229,0.0545 0.10505,-0.0987 0.25202,-0.15248 0.41662,-0.15248 0.35793,0 0.38992,0.11825 0.0476,0.17609 -0.31219,0.0528 -0.4132,0.19115 -0.28699,0.39325 0.0446,0.0715 0.0812,0.20746 0.0812,0.30214 0,0.1989 0.0805,0.26903 0.23911,0.20818 0.0698,-0.0267 0.11151,-0.12677 0.11151,-0.2675 0,-0.32408 0.2201,-0.53166 0.56373,-0.53166 0.15278,0 0.27778,0.0316 0.27778,0.0701 0,0.0386 -0.0718,0.0701 -0.15971,0.0701 -0.0879,0 -0.22985,0.0491 -0.31557,0.10917 -0.19341,0.13547 -0.20902,0.38171 -0.0242,0.38171 0.19168,0 0.30236,0.16816 0.24945,0.37898 -0.0529,0.21076 -0.0257,0.21937 0.24765,0.0781 z m 17.15256,-0.0781 c -0.056,-0.22289 0.0603,-0.37899 0.2823,-0.37899 0.12652,0 0.15447,-0.0284 0.12101,-0.12272 -0.0876,-0.24695 -0.25382,-0.36815 -0.50642,-0.36923 -0.18858,-7.8e-4 -0.2256,-0.0182 -0.14691,-0.0691 0.0578,-0.0374 0.20774,-0.0684 0.3331,-0.0691 0.30076,-9.1e-4 0.5084,0.20989 0.5084,0.51736 0,0.24558 0.118,0.35338 0.27831,0.2543 0.0497,-0.0307 0.0686,-0.0908 0.0421,-0.13362 -0.0265,-0.0428 0.005,-0.16904 0.0716,-0.28052 0.15755,-0.26671 0.0921,-0.41047 -0.21314,-0.46771 -0.13702,-0.0257 -0.24912,-0.0748 -0.24912,-0.10906 0,-0.12109 0.47332,-0.0612 0.65673,0.083 0.18477,0.14534 0.18477,0.14534 0.18477,-0.0701 0,-0.26823 -0.21699,-0.49581 -0.47334,-0.49645 -0.14087,-2.6e-4 -0.23711,-0.0655 -0.35709,-0.24168 -0.0903,-0.13266 -0.14534,-0.2718 -0.12222,-0.30919 0.0688,-0.11132 -0.0761,-0.40432 -0.34946,-0.70697 -0.28509,-0.31557 -0.87503,-0.69258 -1.37498,-0.87869 -0.32759,-0.12196 -0.32809,-0.12192 -0.561,0.0531 -0.29952,0.22512 -1.13036,0.64005 -1.50801,0.75312 -0.25926,0.0776 -0.31806,0.13734 -0.50865,0.51643 -0.13952,0.27753 -0.32602,0.51455 -0.52905,0.67234 -0.17246,0.13403 -0.28763,0.26963 -0.25593,0.30133 0.10104,0.10104 1.29023,0.59093 1.74068,0.71706 0.42821,0.11993 0.43707,0.11955 0.62304,-0.0267 0.11416,-0.0898 0.28878,-0.14794 0.44218,-0.14725 l 0.25351,9.2e-4 -0.2805,0.15836 c -0.22376,0.12633 -0.28495,0.20413 -0.30247,0.38454 -0.0227,0.23415 0.0202,0.26957 0.1935,0.15987 0.142,-0.0899 0.32919,0.0264 0.38212,0.23729 0.0324,0.12927 0.0756,0.16299 0.16585,0.12968 0.17176,-0.0633 0.22488,-0.16184 0.22611,-0.41924 9.2e-4,-0.2633 0.11176,-0.36556 0.17607,-0.16295 0.0487,0.15347 0.2417,0.18741 0.36493,0.0641 0.0561,-0.0561 0.10296,-0.006 0.1718,0.18592 0.0636,0.17668 0.16378,0.29317 0.3051,0.35486 0.27643,0.12066 0.26739,0.12423 0.21495,-0.0847 z m -6.66648,-1.29783 c 0.34712,-0.0412 0.88357,-0.15901 1.19213,-0.26177 0.47181,-0.15713 0.56475,-0.21331 0.58457,-0.35345 0.0219,-0.15493 0.007,-0.16306 -0.21038,-0.11581 -0.12867,0.0279 -1.51152,0.0661 -3.07302,0.0847 -3.0702,0.0366 -3.6938,-0.005 -4.32586,-0.29152 -0.38218,-0.17297 -0.44364,-0.16608 -0.44364,0.0496 0,0.28494 1.39749,0.75468 2.66475,0.8957 0.40498,0.0451 0.78365,0.0933 0.84151,0.10712 0.18179,0.0435 2.11019,-0.0362 2.76994,-0.1145 z m -3.16971,-0.0704 c -0.12346,-0.0357 -0.24673,-0.10094 -0.27394,-0.14497 -0.0348,-0.0563 4e-4,-0.0645 0.11927,-0.0275 0.0928,0.0289 0.43782,0.0689 0.76669,0.089 0.52171,0.0318 0.89179,-0.002 1.78631,-0.16122 0.19424,-0.0346 0.20061,-0.0296 0.083,0.0659 -0.27362,0.2221 -1.92114,0.34085 -2.48131,0.17885 z m 5.47409,-0.8325 c 0.1386,-0.15342 0.30226,-0.39798 0.36368,-0.54347 0.13131,-0.31104 0.33509,-1.07152 0.29726,-1.10936 -0.0145,-0.0144 -0.16355,0.14961 -0.33139,0.36452 -0.5658,0.72444 -1.41148,0.97188 -2.14858,0.62866 -0.43478,-0.20245 -0.66067,-0.4722 -0.66067,-0.78894 0,-0.12978 -0.0315,-0.23598 -0.0701,-0.23598 -0.0386,0 -0.0701,0.0569 -0.0701,0.12652 0,0.19332 -0.36836,0.73159 -0.67369,0.98444 -0.15016,0.12434 -0.415,0.26773 -0.58856,0.31865 -0.18603,0.0546 -0.32487,0.13999 -0.33824,0.20806 -0.0205,0.10463 0.13588,0.11546 1.66772,0.11546 1.31749,0 1.74406,-0.0224 1.93359,-0.10161 0.25016,-0.10452 0.32784,-0.24901 0.13386,-0.24901 -0.0601,0 -0.0898,-0.0316 -0.066,-0.0701 0.0541,-0.0876 0.31674,-0.0894 0.45312,-0.003 0.0843,0.0533 0.0688,0.0913 -0.0877,0.21439 -0.17885,0.14067 -0.26408,0.41989 -0.12818,0.41989 0.0341,0 0.17537,-0.12553 0.31398,-0.27894 z m -4.40814,-0.0335 c 0,-0.10207 -0.0674,-0.15113 -0.26406,-0.19197 -0.38671,-0.0804 -0.75359,-0.28923 -1.04353,-0.59413 -0.28246,-0.29704 -0.61591,-0.91162 -0.62974,-1.16068 -0.005,-0.088 -0.0353,0.0438 -0.0675,0.29299 -0.0695,0.53742 -0.2099,0.75417 -0.62629,0.96693 -0.56304,0.2877 -1.47495,0.16952 -1.91491,-0.24816 -0.20636,-0.19592 -0.416,-0.55685 -0.57658,-0.99272 -0.11702,-0.31765 -0.12971,-0.11094 -0.0272,0.44345 0.10069,0.54465 0.30987,1.01365 0.57452,1.28807 0.22507,0.23338 0.32928,0.20993 0.33168,-0.0746 7.9e-4,-0.0957 -0.0338,-0.11635 -0.13918,-0.0829 -0.16491,0.0523 -0.192,-0.0704 -0.0293,-0.13274 0.061,-0.0234 0.19061,-0.0426 0.288,-0.0426 0.1285,0 0.16602,0.0289 0.13677,0.10505 -0.13101,0.34143 1.14369,0.58603 2.97056,0.57004 0.95928,-0.008 1.01682,-0.0166 1.01682,-0.14601 z m 3.64994,-0.6775 c 0.39207,-0.0987 0.88192,-0.52331 1.23624,-1.07152 0.26586,-0.41132 0.26802,-0.42042 0.26681,-1.12259 -9.2e-4,-0.80231 -0.12715,-1.49719 -0.35208,-1.9452 -0.53919,-1.07396 -1.34064,-1.57372 -1.89299,-1.18042 -0.37956,0.27028 -0.81078,1.91315 -0.87479,3.33282 -0.041,0.91106 0.0336,0.92493 0.17009,0.0316 0.10587,-0.69318 0.41509,-1.35488 0.72003,-1.5408 0.50497,-0.30787 1.20888,-0.0825 1.50692,0.48242 0.4639,0.87938 -0.0949,2.4908 -0.95296,2.74787 -0.36554,0.10952 -0.81749,-0.0251 -1.10406,-0.32901 -0.24738,-0.2623 -0.30445,-0.28829 -0.30445,-0.13867 0,0.16989 0.36575,0.54485 0.66329,0.68001 0.33146,0.15056 0.49472,0.16008 0.91795,0.0535 z m -6.3147,-0.16413 c 0.25964,-0.10672 0.35985,-0.22337 0.42463,-0.49428 l 0.0502,-0.20998 -0.20235,0.18428 c -0.2995,0.27274 -0.50235,0.35763 -0.8678,0.36314 -0.46702,0.007 -0.74761,-0.18122 -1.02543,-0.68805 -0.53243,-0.97129 -0.33583,-2.28719 0.39844,-2.6669 0.31795,-0.16442 0.79047,-0.13246 1.03073,0.0697 0.23382,0.19675 0.57545,0.90665 0.62921,1.3075 0.0672,0.50074 0.15844,0.2005 0.15803,-0.5198 -9.1e-4,-1.70306 -0.4137,-2.78455 -1.06198,-2.78266 -0.80325,0.003 -1.60714,0.8694 -1.91737,2.06802 -0.19789,0.76455 -0.21043,1.34654 -0.0399,1.84908 0.37635,1.10886 0.68663,1.49881 1.28044,1.60934 0.40841,0.076 0.81879,0.0439 1.14312,-0.0894 z m 8.46916,-0.30715 c 0.48633,-0.22154 1.20623,-0.66628 1.28512,-0.7939 0.0343,-0.0554 0.014,-0.0686 -0.0611,-0.0398 -0.0618,0.0237 -0.24523,0.0789 -0.4077,0.12263 -0.5173,0.1393 -1.00332,0.39379 -1.25235,0.65576 -0.30351,0.31928 -0.17834,0.33515 0.43604,0.0553 z m -11.45385,-0.33408 c -0.37052,-0.38068 -0.57871,-0.49904 -0.98755,-0.56147 l -0.30539,-0.0466 0.31557,0.25432 c 0.33571,0.27056 1.20436,0.75769 1.25708,0.70497 0.0173,-0.0173 -0.10856,-0.17535 -0.27971,-0.3512 z m 11.24512,-0.33305 c 0.46973,-0.95932 0.80501,-3.10029 0.6166,-3.93749 -0.0443,-0.19695 -0.0613,-0.17454 -0.26642,0.35089 -0.28987,0.74263 -0.56289,2.12767 -0.60931,3.091 -0.0206,0.42743 -0.0602,0.83767 -0.088,0.91163 -0.10719,0.28541 0.16106,-0.0361 0.34709,-0.41603 z m -11.03658,-0.88705 c -0.0897,-1.90428 -0.15315,-2.34656 -0.41737,-2.91019 l -0.2301,-0.49088 -0.0608,0.35063 c -0.10158,0.58553 0.0459,2.49384 0.25615,3.31344 0.0844,0.32902 0.44043,1.04584 0.49035,0.98723 0.0108,-0.0127 -0.006,-0.57527 -0.0382,-1.25023 z m 12.15392,0.62164 c 0.92215,-0.27326 0.94538,-0.29529 0.79349,-0.75256 -0.065,-0.19547 -0.10796,-0.4432 -0.0956,-0.55052 0.0218,-0.18981 0.0354,-0.19569 0.50166,-0.216 l 0.47926,-0.0209 0.20387,-0.44963 c 0.5077,-1.1197 0.81938,-2.80889 0.74391,-4.0317 -0.0807,-1.30773 -0.6891,-2.80396 -1.46081,-3.59262 -0.35272,-0.36046 -0.43443,-0.41096 -0.63384,-0.39163 -0.29848,0.0289 -0.48822,0.35839 -0.69932,1.2143 -0.13967,0.56632 -0.15597,0.81478 -0.15873,2.41932 -0.002,0.98351 0.0119,2.35621 0.0301,3.05045 0.0403,1.52945 -0.0818,2.33016 -0.53359,3.50023 -0.0358,0.0927 -0.0269,0.11882 0.0287,0.0845 0.0443,-0.0274 0.40468,-0.14583 0.80083,-0.26321 z m -12.88901,-0.37945 c -0.17652,-0.58377 -0.27079,-2.4969 -0.17963,-3.64529 0.24722,-3.11415 -0.0492,-5.59105 -0.72183,-6.03177 -0.1462,-0.0958 -0.19669,-0.0972 -0.40177,-0.0115 -0.45947,0.19209 -1.10926,0.96657 -1.56133,1.86091 -0.4189,0.82875 -0.63742,1.99704 -0.55966,2.99229 0.0787,1.00732 0.44295,2.30704 0.89421,3.1907 0.16114,0.31556 0.16114,0.31556 0.71626,0.35063 0.65466,0.0413 0.66708,0.0607 0.45075,0.70287 -0.0865,0.25685 -0.12196,0.46492 -0.0854,0.50148 0.054,0.054 1.49774,0.47322 1.53848,0.44676 0.008,-0.005 -0.0323,-0.16602 -0.0901,-0.35707 z m 4.59132,-0.58315 c 0.31269,-0.43913 1.01883,-0.78102 1.61311,-0.78102 0.60298,0 1.47112,0.6061 1.70751,1.19213 0.099,0.24529 0.099,0.24506 0.14996,-0.38569 0.0564,-0.69982 0.39172,-2.20221 0.59281,-2.65682 0.19024,-0.43008 0.51177,-0.67414 0.88812,-0.67414 0.16809,0 0.39294,0.0333 0.49967,0.0738 0.19406,0.0738 0.19406,0.0738 0.0574,-0.0773 -0.21274,-0.23508 -0.48559,-0.34689 -0.85236,-0.34933 -0.31119,-0.002 -0.32631,-0.01 -0.20046,-0.10518 0.0749,-0.0566 0.19708,-0.10296 0.27157,-0.10296 0.11553,0 0.1219,-0.0163 0.0433,-0.11091 -0.23521,-0.28341 -1.61271,-0.82802 -2.34121,-0.92562 -0.4651,-0.0623 -0.4651,-0.0623 -0.42144,0.13648 0.0542,0.24681 -0.0364,0.25578 -0.50514,0.0501 -0.35502,-0.15579 -0.31458,-0.26827 0.0507,-0.14095 0.11844,0.0413 0.19354,0.0449 0.17088,0.008 -0.0222,-0.036 -0.1653,-0.10281 -0.31796,-0.14854 -0.33638,-0.10078 -0.36015,-0.19943 -0.0497,-0.20614 0.12535,-0.003 0.29102,-0.0345 0.36816,-0.0707 0.16466,-0.0773 -0.45182,-0.038 -0.72975,0.0464 -0.24675,0.075 -0.12721,-0.0809 0.19082,-0.24885 0.14214,-0.075 0.21691,-0.13788 0.16616,-0.13959 -0.12723,-0.005 -0.34885,0.11842 -0.67292,0.37254 l -0.2743,0.2151 0.0494,-0.20771 0.0494,-0.20772 -0.14089,0.2258 c -0.0947,0.15171 -0.30849,0.3085 -0.65162,0.47778 -0.2809,0.13859 -0.66727,0.35221 -0.85861,0.47473 -0.34788,0.22274 -0.34788,0.22274 -0.15778,0.2896 0.25807,0.0908 0.23955,0.1797 -0.0378,0.18158 -0.26458,0.002 -0.74575,0.20457 -0.88517,0.37304 -0.0892,0.1078 -0.0778,0.10861 0.15553,0.0111 0.56937,-0.2379 1.04732,-0.0279 1.33436,0.58627 0.30244,0.64713 0.39207,1.19613 0.3966,2.4291 0.004,1.00398 0.0137,1.09534 0.0947,0.8685 0.0498,-0.13942 0.16098,-0.35235 0.24702,-0.47318 z m 0.65569,-0.8705 c 0.10551,-0.32154 1.87568,-0.28558 1.87568,0.0381 0,0.0384 -0.0517,0.0421 -0.12272,0.008 -0.19304,-0.0906 -1.33733,-0.11573 -1.57054,-0.0345 -0.16096,0.0561 -0.20395,0.0532 -0.18242,-0.0125 z m 0.41016,-0.50658 c 0.0917,-0.0918 0.94682,-0.091 1.03878,9.2e-4 0.0481,0.0481 -0.11985,0.0708 -0.51884,0.0701 -0.39327,-7.9e-4 -0.56664,-0.0244 -0.51994,-0.0711 z m 3.97601,1.00279 c 0.11693,-0.11693 0.10504,-0.3457 -0.0278,-0.53538 -0.25258,-0.36062 -0.78533,0.042 -0.59842,0.45216 0.0581,0.12751 0.13173,0.16736 0.30917,0.16736 0.12811,0 0.27079,-0.0378 0.31707,-0.0841 z m -6.43862,-0.0561 c 0.10031,0 0.19475,-0.3796 0.13478,-0.54173 -0.13828,-0.37379 -0.69466,-0.21521 -0.69466,0.198 0,0.21244 0.2467,0.44183 0.40842,0.37978 0.0517,-0.0199 0.11982,-0.036 0.15146,-0.036 z"
         id="path179" />
    </g>
  </g>
</svg>
