<?xml version="1.0" encoding="UTF-8" standalone="no"?>
<!-- Created with Inkscape (http://www.inkscape.org/) -->

<svg
   width="41.008999mm"
   height="41.008999mm"
   viewBox="0 0 41.008999 41.009"
   version="1.1"
   id="svg1"
   inkscape:version="1.4.2 (f4327f4, 2025-05-13)"
   sodipodi:docname="242.svg"
   xmlns:inkscape="http://www.inkscape.org/namespaces/inkscape"
   xmlns:sodipodi="http://sodipodi.sourceforge.net/DTD/sodipodi-0.dtd"
   xmlns="http://www.w3.org/2000/svg"
   xmlns:svg="http://www.w3.org/2000/svg">
  <sodipodi:namedview
     id="namedview1"
     pagecolor="#ffffff"
     bordercolor="#000000"
     borderopacity="0.25"
     inkscape:showpageshadow="2"
     inkscape:pageopacity="0.0"
     inkscape:pagecheckerboard="0"
     inkscape:deskcolor="#d1d1d1"
     inkscape:document-units="mm"
     inkscape:zoom="2.8970539"
     inkscape:cx="86.98492"
     inkscape:cy="83.18796"
     inkscape:window-width="1050"
     inkscape:window-height="1081"
     inkscape:window-x="3737"
     inkscape:window-y="0"
     inkscape:window-maximized="0"
     inkscape:current-layer="layer1" />
  <defs
     id="defs1" />
  <g
     inkscape:label="Layer 1"
     inkscape:groupmode="layer"
     id="layer1"
     transform="translate(-114.0891,-77.774176)">
    <g
       id="g184"
       transform="translate(-303.45773,203.13977)">
      <circle
         style="fill:none;stroke:#ff0000;stroke-width:0.1;stroke-dasharray:none"
         id="path788-8-1-8-1-9-2-9-3-7-1-2-04-7-2-5-6"
         cx="438.05133"
         cy="-104.8611"
         r="19.954653" />
      <ellipse
         style="fill:none;stroke:#ff00ff;stroke-width:0.1;stroke-dasharray:none;stroke-opacity:1"
         id="path1138-9-4-0-0-1-2-25-0-9-29-6-3-1-6-9-4"
         cx="438.05133"
         cy="-104.8611"
         rx="18.492125"
         ry="18.492126" />
      <circle
         style="fill:none;stroke:#0000ff;stroke-width:0.1;stroke-linecap:round;stroke-dasharray:none;stroke-opacity:1;paint-order:markers stroke fill"
         id="path13019-1-33-5-7-7-4-6-7-8-5-6-7"
         cx="438.05133"
         cy="-119.87209"
         r="2" />
      <path
         style="fill:#000000;stroke-width:0.157192"
         d="m 443.36583,-90.431387 c -0.33327,-0.09593 -0.69544,-0.294114 -1.04405,-0.571309 -0.40987,-0.325911 -0.91315,-0.92199 -0.84011,-0.995023 0.0122,-0.0122 0.19956,0.08021 0.41634,0.205374 0.80822,0.466628 1.36285,0.634265 1.97264,0.59622 0.66829,-0.04168 1.21283,-0.414735 1.66128,-1.138049 0.11175,-0.180251 0.26224,-0.384122 0.33442,-0.453052 0.0722,-0.06892 0.15471,-0.203648 0.18339,-0.299376 0.0482,-0.16093 0.0438,-0.19123 -0.0594,-0.402147 -0.0777,-0.158719 -0.16648,-0.264462 -0.29204,-0.347619 -0.18043,-0.119511 -0.18043,-0.119511 -0.0958,-0.235717 0.1176,-0.161434 0.13771,-0.465223 0.0427,-0.645584 -0.125,-0.237432 -0.26878,-0.314469 -0.58736,-0.314721 -0.23191,-1.53e-4 -0.3055,-0.01864 -0.4443,-0.111465 -0.56464,-0.37758 -1.09531,-0.169835 -1.64375,0.643486 -0.10243,0.151908 -0.20271,0.276785 -0.22284,0.277508 -0.0701,0.0026 0.006,-0.368111 0.12875,-0.62959 0.25332,-0.53826 0.69113,-0.83448 1.23179,-0.833413 0.16396,3.13e-4 0.37764,0.02829 0.47486,0.06214 0.19933,0.06942 0.1994,0.06936 0.11562,-0.09266 -0.0673,-0.130032 -0.29804,-0.325656 -0.51552,-0.436958 -0.20859,-0.106756 -0.11373,-0.168888 0.16619,-0.108853 0.41304,0.08858 0.73577,0.364177 0.80681,0.688959 0.015,0.06863 0.0346,0.152847 0.0438,0.187156 0.0115,0.04344 0.0802,0.06507 0.22621,0.07121 0.26334,0.01105 0.44196,0.113519 0.54378,0.311844 0.10622,0.206884 0.0998,0.435539 -0.0187,0.66967 l -0.0979,0.193425 0.18015,0.0872 c 0.62616,0.303124 0.68631,1.144768 0.10792,1.509897 -0.13794,0.08708 -0.16269,0.128724 -0.20863,0.351121 -0.10026,0.485477 -0.49157,1.128017 -0.87139,1.430885 -0.47375,0.377747 -1.10241,0.49995 -1.69478,0.329432 z m -13.01282,-0.07094 c -0.0658,-0.03714 -0.27964,-0.188137 -0.47503,-0.335511 -0.1954,-0.147374 -0.61909,-0.434725 -0.94155,-0.638561 -0.92747,-0.58628 -0.97898,-0.679448 -0.69599,-1.258701 0.25875,-0.529615 0.3064,-0.841269 0.21175,-1.384815 -0.0815,-0.468043 0.0699,-0.608631 0.71017,-0.659467 0.20454,-0.01626 0.39457,-0.05516 0.45152,-0.09248 0.092,-0.06027 0.0965,-0.08149 0.0701,-0.327855 -0.0262,-0.244216 -0.0214,-0.267016 0.0642,-0.312869 0.0508,-0.02719 0.20859,-0.06387 0.35057,-0.08148 0.36403,-0.04514 0.53566,-0.140901 0.7566,-0.42211 0.22753,-0.289615 0.39204,-0.400565 0.64545,-0.435297 0.3391,-0.04649 0.9243,0.180942 1.20149,0.466927 0.15909,0.164147 0.13634,0.1707 -0.19549,0.05626 -0.3387,-0.11681 -0.67793,-0.146572 -0.92016,-0.08073 -0.161,0.04375 -0.25835,0.115104 -0.51083,0.374393 -0.17156,0.176185 -0.35281,0.341615 -0.40277,0.367622 -0.0499,0.026 -0.19272,0.0473 -0.31724,0.0473 -0.29251,0 -0.33835,0.05258 -0.30169,0.346011 0.023,0.184393 0.0141,0.238714 -0.053,0.321603 -0.0705,0.08708 -0.12753,0.103049 -0.44919,0.125824 -0.66948,0.04741 -0.70125,0.08623 -0.51373,0.627854 0.12105,0.349642 0.12691,0.391666 0.0812,0.582209 -0.0341,0.142255 -0.11812,0.289378 -0.27332,0.478709 -0.23996,0.292761 -0.28143,0.447648 -0.15125,0.565066 0.0401,0.03613 0.288,0.167003 0.55107,0.290862 0.26305,0.123864 0.63737,0.333979 0.83181,0.466924 0.64945,0.444069 0.72944,0.449959 1.45388,0.107077 0.69819,-0.330459 1.59379,-0.584902 2.05876,-0.584902 0.40396,0 0.19596,0.163888 -0.87165,0.686776 -1.18589,0.580816 -1.58889,0.736615 -1.95475,0.755723 -0.21416,0.0112 -0.3228,-0.0026 -0.41091,-0.05236 z m 6.08801,-0.539731 c -0.64654,-0.138646 -1.263,-0.442924 -1.80403,-0.890448 -0.58835,-0.486662 -0.98534,-1.092631 -1.21524,-1.854889 -0.0972,-0.322369 -0.1127,-0.449101 -0.11646,-0.954017 -0.004,-0.543749 0.068,-1.143741 0.1373,-1.143741 0.0156,0 0.0517,0.0889 0.0802,0.197558 0.0793,0.301265 0.35949,0.832955 0.59284,1.124853 0.30992,0.387678 0.79597,0.750043 1.42524,1.062557 0.69929,0.347293 1.01445,0.442065 1.56556,0.470786 0.69294,0.03613 1.20702,-0.127595 1.75787,-0.5598 0.54658,-0.428851 0.87323,-0.970441 1.05153,-1.743436 0.13135,-0.569427 0.19921,-0.720833 0.42933,-0.957965 0.23033,-0.237339 0.41877,-0.323906 0.92444,-0.424674 0.59971,-0.119503 0.78118,-0.186094 1.12878,-0.414198 0.34605,-0.227095 0.62285,-0.509599 0.8623,-0.880077 l 0.1668,-0.258081 0.0659,0.157767 c 0.12707,0.304155 0.22409,0.86366 0.225,1.297804 l 8.9e-4,0.42478 -0.25798,0.275771 c -0.47056,0.503035 -1.01344,0.824685 -1.68746,0.999813 -0.58708,0.152533 -0.75409,0.274097 -0.94277,0.68621 -0.0586,0.127878 -0.16074,0.511494 -0.22712,0.852482 -0.0664,0.340989 -0.16054,0.725645 -0.20926,0.854792 -0.41753,1.106897 -1.59156,1.747424 -3.18432,1.737295 -0.2745,-0.0018 -0.62074,-0.02926 -0.76943,-0.06114 z m -5.77089,-0.236946 c -0.0229,-0.02859 -0.0542,-0.09314 -0.0696,-0.14344 -0.0355,-0.115841 0.10078,-0.262069 0.24422,-0.262069 0.10682,0 0.23111,0.135706 0.23111,0.25235 0,0.160737 -0.30696,0.276609 -0.40572,0.153159 z m 0.051,-0.635773 c -0.25169,-0.09261 -0.57918,-0.401243 -0.71043,-0.66952 -0.24036,-0.491266 -0.16339,-1.133414 0.17795,-1.484853 0.24432,-0.251526 0.44448,-0.337631 0.78319,-0.336913 1.27944,0.0026 1.76131,1.899768 0.62247,2.450584 -0.21252,0.102787 -0.64914,0.123138 -0.87318,0.04071 z m 12.71934,-0.144201 c -0.28351,-0.162597 -0.43041,-0.406254 -0.45855,-0.76053 -0.0477,-0.599917 0.282,-1.090192 0.8474,-1.260353 0.41094,-0.123675 0.85313,0.06965 1.05278,0.460279 0.13859,0.27115 0.146,0.698217 0.017,0.980603 -0.28297,0.619536 -0.93656,0.879423 -1.45864,0.580001 z m -14.51905,-0.174533 c -0.0746,-0.07458 -0.0603,-0.260584 0.0262,-0.33875 0.20768,-0.187956 0.47407,0.05467 0.33838,0.308213 -0.0494,0.09222 -0.28326,0.111814 -0.36453,0.03053 z m 16.44308,-0.915922 c -0.0883,-0.126081 -0.0813,-0.265348 0.0184,-0.365063 0.24659,-0.246591 0.62788,0.117105 0.39386,0.375694 -0.10397,0.11488 -0.32844,0.109091 -0.41229,-0.01062 z m -16.14394,-0.719273 c -0.0764,-0.07635 -0.0972,-0.129803 -0.0771,-0.197554 0.059,-0.198505 0.2527,-0.254482 0.3935,-0.113682 0.13253,0.132535 0.10526,0.275807 -0.07,0.368089 -0.12199,0.0642 -0.1263,0.06321 -0.24636,-0.05685 z m 6.92928,-0.99549 c -0.99171,-0.559819 -1.06001,-0.605878 -1.0522,-0.709625 0.0106,-0.141047 0.18845,-0.375852 0.34661,-0.457639 0.0671,-0.03468 0.20664,-0.07465 0.31021,-0.08885 0.1883,-0.02582 0.1883,-0.02582 0.4804,-0.519438 0.16066,-0.271498 0.30202,-0.519455 0.31413,-0.551019 0.0172,-0.04488 -0.076,-0.03573 -0.42771,0.04194 -0.24734,0.05462 -0.52551,0.110664 -0.61812,0.124538 -0.16592,0.02485 -0.16912,0.02291 -0.217,-0.13313 -0.0267,-0.08709 -0.0445,-0.161371 -0.0396,-0.165059 0.005,-0.0035 0.35231,-0.06405 0.77185,-0.134139 0.41955,-0.07009 0.7688,-0.133531 0.77611,-0.140981 0.007,-0.0075 0.22962,-0.378496 0.49407,-0.824557 l 0.48077,-0.811014 -0.19772,-0.02956 c -0.27933,-0.04177 -0.48184,-0.135302 -0.68084,-0.314509 -0.11943,-0.107549 -0.15735,-0.127199 -0.12385,-0.06417 0.076,0.142932 0.0577,0.466474 -0.0374,0.663036 -0.0811,0.167597 -0.082,0.182771 -0.016,0.283468 0.068,0.1038 0.0673,0.106382 -0.0287,0.106003 -0.0541,-1.59e-4 -0.19577,-0.05626 -0.31482,-0.124534 -0.22878,-0.131213 -0.40444,-0.369755 -0.45372,-0.616165 -0.0166,-0.08292 -0.0517,-0.132654 -0.094,-0.133227 -0.11936,-0.0018 -0.40546,-0.152309 -0.52221,-0.275058 -0.16297,-0.171342 -0.19752,-0.286275 -0.19585,-0.651345 8.9e-4,-0.2553 0.0236,-0.37249 0.10534,-0.55107 0.0571,-0.12475 0.0979,-0.22682 0.0906,-0.22682 -0.0574,0 -0.68814,0.22685 -0.82674,0.29732 -0.68072,0.34614 -1.20782,0.908121 -1.63252,1.740612 -0.17202,0.3372 -0.22461,0.320127 -0.14581,-0.04732 0.17386,-0.810687 0.75681,-1.665762 1.44164,-2.114642 0.48348,-0.3169 1.1895,-0.50037 1.90905,-0.49608 0.30684,0.002 0.54243,-0.0793 0.89212,-0.30703 0.22521,-0.14667 0.30115,-0.17451 0.4691,-0.17195 0.23071,0.004 0.3464,0.0756 0.18594,0.11591 -0.11377,0.0285 -0.17813,0.16187 -0.20911,0.43318 -0.0112,0.0978 -0.059,0.25588 -0.10612,0.35125 -0.0472,0.0954 -0.0817,0.17649 -0.0766,0.18026 0.005,0.004 0.20351,0.10771 0.441,0.23101 0.47277,0.24546 0.61965,0.39057 0.65447,0.64661 0.0191,0.14053 0.0148,0.15137 -0.0358,0.0898 -0.0925,-0.11261 -0.25896,-0.1329 -0.43897,-0.0535 l -0.1622,0.0715 0.14085,0.209325 c 0.0775,0.115126 0.15852,0.239109 0.18008,0.275524 0.0288,0.04867 0.0479,0.0531 0.0721,0.0167 0.0181,-0.02723 0.87466,-0.385899 1.90353,-0.797079 1.02886,-0.41118 2.39266,-0.96442 3.03065,-1.22942 0.63799,-0.265 1.17445,-0.48184 1.19214,-0.48184 0.0177,0 0.0187,0.0502 0.002,0.11165 -0.032,0.11983 -0.28669,0.23172 -4.34558,1.90938 -0.97706,0.403856 -1.4885,0.636824 -1.56691,0.713738 -0.16829,0.165109 -1.16952,1.7986 -1.10243,1.7986 0.0308,0 0.17689,-0.03732 0.32463,-0.08297 0.3834,-0.118418 0.61362,-0.334111 0.82149,-0.769628 0.39722,-0.83225 1.15731,-1.285445 2.03193,-1.211513 0.3542,0.02992 0.41358,0.0633 0.35328,0.198465 -0.0379,0.08502 -0.0716,0.09235 -0.45407,0.09899 -0.31836,0.0056 -0.47031,0.02908 -0.66263,0.102822 -0.50044,0.191816 -0.85849,0.528429 -1.14226,1.073866 -0.25778,0.495487 -0.53115,0.691498 -1.24432,0.892184 l -0.33011,0.09289 -0.35412,0.582266 c -0.19476,0.320245 -0.3602,0.609204 -0.36766,0.642129 -0.013,0.05791 0.34559,0.290585 0.45119,0.292687 0.0268,4.4e-4 0.32405,-0.215997 0.66044,-0.481177 0.61161,-0.482145 0.61161,-0.482145 0.6981,-0.395653 0.0788,0.07882 0.0805,0.09115 0.019,0.139025 -0.32538,0.25324 -1.07284,0.884906 -1.07284,0.906635 0,0.01512 0.0738,0.06074 0.16398,0.101403 l 0.16398,0.07394 0.58423,-0.483534 c 0.32132,-0.265941 0.59956,-0.483529 0.61829,-0.483529 0.0187,0 0.0669,0.02396 0.10693,0.05329 0.0653,0.04773 0.0117,0.104637 -0.51392,0.54638 l -0.58681,0.493091 0.20469,0.116907 c 0.14658,0.08371 0.21078,0.148735 0.22613,0.229033 0.0245,0.128072 -0.0216,0.317156 -0.11034,0.452555 -0.0715,0.109091 -0.30884,0.230365 -0.44753,0.228664 -0.0537,-4.41e-4 -0.57495,-0.270603 -1.15826,-0.599876 z m 8.88479,0.413193 c -0.0845,-0.08449 -0.0851,-0.142911 -0.003,-0.26036 0.1381,-0.197166 0.44784,-0.03781 0.36839,0.189561 -0.0481,0.137667 -0.25801,0.178321 -0.36553,0.0708 z m -1.28808,-0.179314 c -0.15309,-0.169169 -0.0263,-0.433424 0.20802,-0.433424 0.12152,0 0.26383,0.137698 0.26383,0.255293 0,0.03811 -0.0291,0.110915 -0.0647,0.161759 -0.0816,0.116528 -0.30821,0.125645 -0.4071,0.01639 z m -13.5169,-0.124767 c -0.13016,-0.143832 -0.0619,-0.339847 0.11833,-0.339847 0.0481,0 0.10979,0.02248 0.13725,0.0499 0.0791,0.07908 0.0606,0.274147 -0.0306,0.322942 -0.11135,0.05959 -0.1458,0.05454 -0.22503,-0.033 z m 8.33246,-1.925419 c -0.18776,-0.07488 -0.29115,-0.205652 -0.29115,-0.368288 0,-0.603097 1.44262,-1.575826 1.94883,-1.314061 0.35958,0.185948 0.20271,0.976483 -0.27769,1.399348 -0.25782,0.226935 -0.5598,0.330338 -0.95527,0.327086 -0.17641,-0.0013 -0.36754,-0.02128 -0.42472,-0.04408 z m -5.63241,-0.16187 c -0.75261,-0.132781 -1.32795,-0.543481 -1.61745,-1.154606 -0.1231,-0.259857 -0.13239,-0.310495 -0.13131,-0.716325 8.8e-4,-0.380497 0.0177,-0.483388 0.12982,-0.799466 0.0708,-0.199518 0.20968,-0.50437 0.30871,-0.67744 0.30024,-0.52475 0.85551,-1.17205 0.9362,-1.09137 0.0119,0.0119 -0.0535,0.20186 -0.14511,0.42217 -0.49236,1.183009 -0.60818,1.976535 -0.36947,2.531419 0.11407,0.265166 0.46396,0.581432 0.76986,0.695885 0.68076,0.254707 1.25536,0.217649 2.00336,-0.129203 0.19188,-0.08898 0.35565,-0.161777 0.36392,-0.161777 0.008,0 0.015,0.02819 0.015,0.06266 0,0.09853 -0.45972,0.524429 -0.75288,0.697472 -0.46716,0.275758 -1.05622,0.400764 -1.51068,0.320585 z m 11.50705,-1.211583 c -0.21372,-0.04883 -0.21655,-0.07146 -0.0678,-0.542829 0.23839,-0.755538 0.63185,-1.359037 1.0433,-1.600155 l 0.17772,-0.10415 -0.11818,-0.11817 c -0.13579,-0.13579 -0.25519,-0.36704 -0.25519,-0.49423 0,-0.048 -0.0199,-0.0873 -0.0442,-0.0873 -0.0243,0 -0.22552,0.12849 -0.4471,0.28552 -0.22157,0.15704 -1.09535,0.768005 -1.94171,1.357693 -0.84637,0.589694 -1.59142,1.108965 -1.65569,1.153936 -0.11366,0.07954 -0.11843,0.07966 -0.17543,0.0044 -0.0322,-0.04256 -0.0592,-0.08987 -0.0599,-0.105157 -8.8e-4,-0.01528 0.47125,-0.355329 1.04884,-0.755657 3.24714,-2.250595 3.25069,-2.253175 3.33298,-2.423165 l 0.0785,-0.16222 0.056,0.16045 c 0.13629,0.39035 0.25958,0.49407 0.64892,0.54598 0.25293,0.0337 0.55335,-0.0882 0.61464,-0.24937 0.0741,-0.19488 0.0524,-0.34907 -0.0522,-0.37201 -0.46689,-0.10234 -0.82148,-0.19091 -0.92539,-0.23114 l -0.12477,-0.0483 0.18855,-0.0966 c 0.34892,-0.17874 0.64369,-0.2405 1.03428,-0.21672 0.19669,0.012 0.4044,0.0345 0.46159,0.0499 l 0.10397,0.0281 -0.10397,-0.0894 c -0.13614,-0.1171 -0.58015,-0.3333 -0.68625,-0.33416 -0.0457,-3.1e-4 -0.10972,-0.0174 -0.14214,-0.038 -0.0461,-0.0292 -0.0282,-0.056 0.0822,-0.12312 0.21051,-0.12801 0.52848,-0.18288 0.75965,-0.13108 0.19258,0.0432 0.19258,0.0432 0.64068,-0.2525 0.49951,-0.32959 1.13627,-0.6593 1.68567,-0.87281 0.21082,-0.082 0.37347,-0.17049 0.38624,-0.2103 0.0207,-0.0645 0.25331,-0.20157 0.342,-0.20157 0.0777,0 0.25926,0.17331 0.25926,0.24747 0,0.10978 -0.0979,0.17341 -0.2999,0.19486 -0.0981,0.0104 -0.28852,0.0499 -0.42311,0.0877 -0.20797,0.0584 -0.25311,0.0888 -0.30049,0.20222 -0.0936,0.22402 -0.24536,0.31259 -0.5187,0.30272 -0.22272,-0.008 -0.25891,0.006 -0.60545,0.22564 -0.73711,0.46833 -0.7289,0.46154 -0.65111,0.53933 0.0644,0.0644 0.1014,0.0518 0.54358,-0.18407 0.44332,-0.23647 0.52357,-0.26355 1.22009,-0.41189 1.5719,-0.33472 2.36598,-0.65125 2.36598,-0.94309 0,-0.25532 -0.72063,-0.53749 -2.05872,-0.80615 l -0.24955,-0.0501 0.26149,-0.0851 0.2615,-0.0851 0.63271,0.1608 c 2.33681,0.59393 3.10503,1.13808 2.24699,1.59162 -0.27062,0.14303 -0.74257,0.29862 -1.23661,0.40766 l -0.32936,0.0727 0.25534,0.11591 c 0.34386,0.15609 0.46576,0.28301 0.46576,0.48493 0,0.3251 -0.30427,0.59381 -0.67238,0.59381 -0.38591,0 -0.61201,-0.25116 -0.65574,-0.72842 l -0.0236,-0.25727 -0.38471,0.14654 c -0.2116,0.0806 -0.38471,0.15966 -0.38471,0.17571 0,0.016 0.0548,0.0401 0.12173,0.0536 0.14559,0.0292 0.40738,0.27905 0.44365,0.42355 0.06,0.23882 -0.10055,0.48073 -0.41654,0.62787 -0.33821,0.15748 -0.58155,0.12014 -0.80987,-0.12427 -0.14508,-0.15532 -0.16872,-0.47213 -0.0502,-0.67301 l 0.0892,-0.15126 -0.13612,0.0814 c -0.0749,0.0448 -0.38409,0.21617 -0.68718,0.38089 -0.30309,0.16472 -0.55108,0.30513 -0.55108,0.312 0,0.007 -0.0203,0.11333 -0.0452,0.23654 -0.0248,0.12322 -0.0433,0.38045 -0.0412,0.57162 0.005,0.40352 -0.0392,0.59689 -0.21289,0.9414 -0.16764,0.332437 -0.32656,0.526417 -0.6094,0.743876 -0.52896,0.406681 -1.21331,0.652638 -2.43942,0.876751 -0.0457,0.0084 -0.16273,-0.0031 -0.25994,-0.0252 z m -3.94769,-0.641777 c -0.0139,-0.03608 8.8e-4,-0.08919 0.0325,-0.118009 0.28224,-0.256408 0.83626,-0.72104 1.2743,-1.068681 0.51686,-0.410197 0.65924,-0.530917 0.57176,-0.484747 -0.0228,0.0121 -0.16751,0.0986 -0.3214,0.19225 -0.27888,0.16972 -0.27998,0.16999 -0.32829,0.0797 -0.0266,-0.0498 -0.0318,-0.0963 -0.0114,-0.10332 0.11745,-0.0402 2.21729,-1.27436 2.75565,-1.61951 0.35145,-0.22532 0.81933,-0.51726 1.03977,-0.64877 0.22043,-0.13151 0.39036,-0.23912 0.37764,-0.23914 -0.0128,-3e-5 -0.3291,0.13122 -0.70303,0.29164 -0.37392,0.16043 -0.68535,0.28621 -0.69202,0.27954 -0.0137,-0.0137 0.10438,-0.21102 0.30667,-0.51252 0.18509,-0.27586 0.2378,-0.47385 0.23709,-0.89051 -4.3e-4,-0.27747 -0.0208,-0.39761 -0.0943,-0.55845 -0.10925,-0.23896 -0.0863,-0.27173 0.19095,-0.27272 0.34411,-9.3e-4 0.57957,0.21308 0.84506,0.76917 0.25788,0.54015 0.18746,0.5302 1.05889,0.14946 0.54736,-0.23915 0.78777,-0.36691 0.8982,-0.47735 0.1288,-0.12881 0.17817,-0.15079 0.3386,-0.15079 0.2148,0 0.86027,-0.26795 0.86027,-0.35712 0,-0.0297 0.0416,-0.0832 0.0924,-0.11881 0.22541,-0.15788 0.6156,0.01 0.55791,0.2393 -0.0361,0.14402 -0.23522,0.24793 -0.41235,0.21523 -0.16427,-0.0303 -0.79129,0.23211 -1.99022,0.83298 -2.30988,1.15765 -4.46074,2.59151 -6.3465,4.230894 -0.25679,0.223232 -0.47729,0.405875 -0.49,0.405875 -0.0128,0 -0.0345,-0.02952 -0.0483,-0.06561 z m -1.11595,-2.247827 c -0.0686,-0.009 -0.20431,-0.0266 -0.30153,-0.0393 -0.13624,-0.0178 -0.17676,-0.0407 -0.17676,-0.10025 0,-0.1825 0.0214,-0.19002 0.49627,-0.17377 0.758,0.026 1.34187,-0.13199 1.92372,-0.52039 0.38411,-0.25639 1.02664,-0.87124 1.43276,-1.37103 0.42244,-0.51987 0.4743,-0.51093 0.19858,0.0342 -0.30855,0.61007 -0.92167,1.25139 -1.61931,1.69382 -0.49738,0.31542 -1.43554,0.54435 -1.95373,0.47673 z m -0.29801,-0.80047 c -0.10706,-0.0675 -0.14052,-0.12579 -0.17915,-0.31185 -0.0589,-0.28374 -0.23337,-0.54999 -0.44392,-0.67745 -0.27512,-0.16653 -0.43895,-0.11734 -0.64508,0.1937 -0.092,0.13891 -0.1886,0.0831 -0.32419,-0.18738 -0.1469,-0.29307 -0.16888,-0.81997 -0.0484,-1.16149 0.25449,-0.72157 0.85475,-1.31406 1.58524,-1.56474 0.33364,-0.11449 1.03134,-0.15604 1.3855,-0.0825 0.13211,0.0275 0.38785,0.12376 0.5683,0.21409 1.11336,0.55725 1.27014,1.85849 0.33505,2.7807 -0.32215,0.31769 -0.63212,0.49363 -1.21949,0.69213 -0.55433,0.18736 -0.83674,0.21655 -1.01385,0.10482 z m -3.85186,-0.98307 c -0.40731,-0.10286 -0.69577,-0.26872 -1.01059,-0.58105 -0.46521,-0.46154 -0.68864,-0.98881 -0.56112,-1.3242 0.0726,-0.19093 0.50198,-0.41356 0.50198,-0.26027 0,0.13368 0.20346,0.46668 0.39045,0.63905 0.14775,0.13618 0.22229,0.17509 0.3355,0.17509 0.20944,0 0.29112,-0.13756 0.2601,-0.43806 -0.0129,-0.12507 -0.009,-0.22738 0.007,-0.22738 0.0538,0 0.84566,0.72094 1.11534,1.01553 0.44896,0.49044 0.51869,0.75436 0.25179,0.95306 -0.0958,0.0713 -0.18787,0.0866 -0.58226,0.0968 -0.31077,0.008 -0.54937,-0.008 -0.70881,-0.0486 z m -6.24775,-0.12182 c -0.93898,-0.18637 -1.48642,-0.56456 -2.39554,-1.65489 -0.91795,-1.10092 -1.5261,-2.09443 -1.835,-2.99773 -0.23012,-0.67295 -0.17055,-1.32485 0.16076,-1.75924 0.21308,-0.27937 0.67947,-0.56177 1.23302,-0.74662 0.29137,-0.0973 0.29626,-0.0976 0.17497,-0.0108 -0.0686,0.0491 -0.26649,0.23122 -0.43971,0.40471 -0.42041,0.42112 -0.59404,0.76468 -0.61473,1.21635 -0.0295,0.64545 0.21519,1.12028 1.36889,2.65574 1.23449,1.64297 1.59023,1.9749 2.29456,2.14097 0.335,0.079 0.85255,0.0785 1.19652,-8.8e-4 0.40528,-0.0938 0.39986,-0.0902 0.30313,-0.19723 -0.2979,-0.32944 -0.70322,-1.05802 -0.86649,-1.55756 -0.25283,-0.77363 -0.58159,-2.3262 -0.62327,-2.94353 -0.0284,-0.42039 -0.31343,-2.07945 -0.49814,-2.89926 -0.13188,-0.58537 -0.38303,-1.24442 -0.67026,-1.75887 -0.42189,-0.75563 -0.64122,-0.97738 -0.96672,-0.97738 -0.2514,0 -0.4453,0.21264 -0.72904,0.79945 -0.2521,0.52136 -0.31633,0.76718 -0.31598,1.20934 3.1e-4,0.49025 0.0342,0.5553 0.43629,0.84016 0.34955,0.2476 0.46414,0.37117 0.2337,0.25201 -0.066,-0.0342 -0.34657,-0.15519 -0.62351,-0.26902 -0.56406,-0.23186 -0.75718,-0.35923 -0.85397,-0.56322 -0.14355,-0.3025 -0.0437,-0.65226 0.44002,-1.54088 0.54697,-1.00486 0.82102,-1.34428 1.15891,-1.43526 0.21854,-0.0589 0.5245,9.2e-4 0.78782,0.15483 0.42145,0.24578 1.00814,0.91884 1.24644,1.42998 0.0683,0.14649 0.25448,0.6968 0.41373,1.22293 0.56258,1.85854 0.89765,2.7203 1.37769,3.5432 0.22929,0.39308 0.60284,0.94063 0.84216,1.23445 l 0.0973,0.11951 0.0516,-0.28587 c 0.27445,-1.52176 1.15485,-2.74618 2.46165,-3.42355 l 0.352,-0.18247 -0.37431,0.39376 c -1.45768,1.53339 -2.13204,3.64009 -1.80707,5.64534 0.0236,0.14583 0.0309,0.27684 0.0162,0.29113 -0.0838,0.0815 -0.87521,-1.06653 -1.40129,-2.03273 -0.33292,-0.61142 -1.05964,-1.82998 -1.09138,-1.82998 -0.0292,0 0.30881,1.23497 0.43835,1.60124 0.15974,0.45168 0.56816,1.41325 0.77442,1.82328 0.25117,0.49928 0.59567,0.98584 0.9794,1.38327 0.20095,0.20811 0.36536,0.3884 0.36536,0.40066 0,0.0658 -0.21058,0.0595 -0.42432,-0.0125 -0.27733,-0.0934 -0.30749,-0.0885 -1.17691,0.19174 -0.54378,0.17528 -1.03819,0.21678 -1.49726,0.12566 z m 4.24069,-0.30417 c -0.41872,-0.52725 -0.68386,-1.2933 -0.68441,-1.9773 -9.3e-4,-1.49413 0.73872,-2.11653 2.00984,-1.69066 0.20877,0.07 0.47355,0.18113 0.5884,0.24708 0.76666,0.44025 1.438,1.33321 1.78745,2.37752 0.23392,0.69908 0.19671,0.76137 -0.12159,0.20356 -0.76328,-1.33767 -1.68655,-2.08756 -2.57998,-2.09549 -0.55107,-0.005 -0.84496,0.29719 -0.99477,1.02245 -0.11932,0.57766 -0.0686,1.15273 0.16038,1.81615 0.12269,0.3556 0.11885,0.33584 0.0656,0.33584 -0.0225,0 -0.12645,-0.10763 -0.23089,-0.23914 z m 8.97564,-0.24772 c -0.061,-0.0931 -0.0734,-0.20254 -0.0717,-0.63425 0.002,-0.53655 0.0379,-0.77897 0.2743,-1.85261 0.14852,-0.67469 0.18001,-0.75614 0.22071,-0.57084 0.0399,0.18151 0.25592,0.46688 0.35349,0.46688 0.24867,0 0.2804,-0.52973 0.0631,-1.05497 -0.0277,-0.067 -0.0183,-0.0734 0.0678,-0.047 0.28221,0.0862 0.41547,0.362 0.44091,0.91239 0.0163,0.35299 0.003,0.48013 -0.0838,0.8135 -0.1571,0.60144 -0.24869,0.81005 -0.61263,1.39531 -0.30078,0.48369 -0.45872,0.68055 -0.54818,0.68328 -0.0166,4.4e-4 -0.0634,-0.0497 -0.10397,-0.11162 z m -0.99754,-2.53737 c -0.10533,-0.34078 -0.10904,-1.88029 -0.006,-2.20079 0.16025,-0.49508 0.37085,-0.80822 0.75449,-1.12177 l 0.15786,-0.12903 -0.42526,-0.40434 c -0.52181,-0.49616 -1.14663,-0.96911 -1.98062,-1.49921 -0.34885,-0.22173 -0.63426,-0.4203 -0.63426,-0.44128 0,-0.13248 0.75763,0.0877 1.43487,0.41691 0.74812,0.36372 1.43456,0.87277 1.96627,1.45814 0.14881,0.16382 0.26616,0.24918 0.41347,0.30075 0.5339,0.18692 0.91654,0.688 1.15578,1.51357 0.13,0.44862 0.2198,1.27131 0.15833,1.45053 l -0.0428,0.12477 -0.0716,-0.16637 c -0.0394,-0.0915 -0.19336,-0.49388 -0.34219,-0.89419 -0.27992,-0.75295 -0.37006,-0.92724 -0.62625,-1.21081 -0.37603,-0.41621 -0.72448,-0.38424 -1.09011,0.10004 -0.34966,0.46313 -0.47066,0.9552 -0.64896,2.6393 -0.0152,0.14302 -0.0437,0.27 -0.0634,0.28221 -0.0197,0.0122 -0.0694,-0.0861 -0.11027,-0.21842 z m 3.61372,-2.53849 c -0.2072,-0.54085 -0.33551,-0.98889 -0.4232,-1.47772 -0.046,-0.25665 -0.22284,-1.12169 -0.39288,-1.9223 -0.17006,-0.80061 -0.35073,-1.66804 -0.40151,-1.92758 l -0.0923,-0.47192 -0.11182,0.30555 c -0.289,0.7897 -0.81598,1.5761 -1.3851,2.06695 -0.19235,0.16591 -0.27819,0.20915 -0.27819,0.14012 0,-0.0179 0.14252,-0.27519 0.31672,-0.57187 0.82797,-1.4101 1.16723,-2.39907 1.30502,-3.80428 0.12997,-1.32533 0.412,-2.16547 0.80939,-2.41106 0.28794,-0.17796 0.69159,-0.0573 1.1218,0.33532 1.30875,1.19441 1.82851,3.27703 1.4165,5.67585 -0.1355,0.78893 -0.46938,1.74135 -0.79413,2.26534 -0.10593,0.1709 -0.23388,0.41958 -0.28435,0.5526 -0.0505,0.13303 -0.10905,0.23597 -0.13018,0.22875 -0.0211,-0.007 -0.0358,-0.16284 -0.0325,-0.34585 0.005,-0.2787 0.0369,-0.42102 0.1961,-0.87664 0.2338,-0.66891 0.31643,-1.11377 0.34717,-1.869 0.0413,-1.01534 -0.18658,-2.69445 -0.49383,-3.63849 -0.17893,-0.54976 -0.65388,-1.38947 -0.89175,-1.57658 -0.26687,-0.20991 -0.38899,-0.0555 -0.47658,0.6027 -0.0725,0.54436 -0.0264,2.20613 0.0835,3.01182 0.21538,1.57979 0.55821,3.72646 0.67417,4.22142 0.17375,0.74169 0.21987,1.8092 0.0781,1.8092 -0.0202,0 -0.0922,-0.14505 -0.16017,-0.32233 z m -6.97444,-1.85226 c -0.32549,-0.13204 -1.01826,-0.55406 -1.01826,-0.62031 0,-0.0608 0.28735,-0.0344 0.49863,0.0459 0.11462,0.0435 0.2084,0.0738 0.2084,0.0671 0,-0.007 -0.14972,-0.14029 -0.33272,-0.29709 -0.183,-0.1568 -0.33272,-0.29934 -0.33272,-0.31674 0,-0.0174 0.0515,-0.033 0.11437,-0.0345 0.0629,-0.002 0.15106,-0.0172 0.1959,-0.0348 0.069,-0.0269 -0.25066,-0.0799 -0.59216,-0.0981 -0.0885,-0.005 -0.0333,-0.0854 0.16038,-0.23453 l 0.18389,-0.14159 -0.21511,0.0249 c -0.23772,0.0275 -0.535,0.16401 -0.85019,0.39046 -0.11371,0.0817 -0.2189,0.13636 -0.23376,0.12148 -0.0149,-0.0148 -0.008,-0.12012 0.0154,-0.2339 0.0233,-0.11379 0.0316,-0.20564 0.0184,-0.20412 -0.0132,9.2e-4 -0.13306,0.14355 -0.26638,0.31561 -0.13333,0.17205 -0.2524,0.30284 -0.26461,0.29062 -0.0422,-0.0422 0.0755,-0.58898 0.17298,-0.80344 0.1353,-0.29769 0.39992,-0.57026 0.69846,-0.71944 0.3601,-0.17994 0.40499,-0.17173 0.40499,0.0741 0,0.11147 -0.0271,0.23574 -0.0611,0.28073 -0.0828,0.10942 -0.079,0.15419 0.009,0.10726 0.36661,-0.19537 1.34228,-0.33368 1.48986,-0.2112 0.0972,0.0807 0.0493,0.30845 -0.10546,0.50094 -0.0695,0.0864 -0.12621,0.17228 -0.12613,0.19078 9e-5,0.0185 0.16813,0.14076 0.37343,0.27169 0.26661,0.17003 0.3664,0.25596 0.34923,0.30071 -0.02,0.0523 -0.16857,0.1104 -0.547,0.21425 -0.0418,0.0115 -0.0401,0.0451 0.008,0.16057 0.0744,0.17805 0.27405,0.47218 0.39353,0.57972 0.099,0.0891 0.1137,0.14986 0.036,0.14882 -0.0286,-3.8e-4 -0.20203,-0.0616 -0.38542,-0.13596 z"
         id="path177" />
    </g>
  </g>
</svg>
