<?xml version="1.0" encoding="UTF-8" standalone="no"?>
<!-- Created with Inkscape (http://www.inkscape.org/) -->

<svg
   width="41.008999mm"
   height="41.008999mm"
   viewBox="0 0 41.008999 41.008999"
   version="1.1"
   id="svg1"
   inkscape:version="1.4.2 (f4327f4, 2025-05-13)"
   sodipodi:docname="175.svg"
   xmlns:inkscape="http://www.inkscape.org/namespaces/inkscape"
   xmlns:sodipodi="http://sodipodi.sourceforge.net/DTD/sodipodi-0.dtd"
   xmlns="http://www.w3.org/2000/svg"
   xmlns:svg="http://www.w3.org/2000/svg">
  <sodipodi:namedview
     id="namedview1"
     pagecolor="#ffffff"
     bordercolor="#000000"
     borderopacity="0.25"
     inkscape:showpageshadow="2"
     inkscape:pageopacity="0.0"
     inkscape:pagecheckerboard="0"
     inkscape:deskcolor="#d1d1d1"
     inkscape:document-units="mm"
     inkscape:zoom="1.5878906"
     inkscape:cx="108.3198"
     inkscape:cy="200.26568"
     inkscape:window-width="1050"
     inkscape:window-height="1081"
     inkscape:window-x="3737"
     inkscape:window-y="0"
     inkscape:window-maximized="0"
     inkscape:current-layer="layer1" />
  <defs
     id="defs1" />
  <g
     inkscape:label="Layer 1"
     inkscape:groupmode="layer"
     id="layer1"
     transform="translate(-0.7937635,-0.79375582)">
    <g
       id="g15657"
       transform="translate(113.05109,175.16355)">
      <path
         style="fill:#000000;stroke-width:0.1;stroke-dasharray:none"
         d="m -91.73686,-136.7321 c -0.67702,-0.0866 -1.02199,-0.17141 -1.31354,-0.32309 -0.28891,-0.15031 -0.40958,-0.30074 -0.47964,-0.59793 -0.0842,-0.3572 0.0248,-0.92327 0.28226,-1.46544 0.0579,-0.12197 0.1015,-0.22495 0.0969,-0.22885 -0.005,-0.004 -0.0827,-0.0516 -0.17338,-0.10607 -0.18467,-0.11083 -0.23017,-0.14316 -0.4959,-0.3524 -0.32337,-0.25463 -0.58317,-0.49739 -0.88042,-0.82267 -0.69209,-0.75735 -0.99861,-1.27589 -1.16383,-1.96884 -0.032,-0.13423 -0.0367,-0.25114 -0.0353,-0.88649 0.001,-0.65814 0.006,-0.75726 0.0468,-0.98378 0.058,-0.32359 0.24525,-0.95837 0.35389,-1.19966 0.0464,-0.1032 0.0795,-0.19567 0.0735,-0.20547 -0.006,-0.01 -0.0413,-0.0301 -0.0785,-0.0452 -0.43655,-0.17708 -1.04767,-0.80444 -1.27315,-1.307 -0.16349,-0.3644 -0.21708,-0.65192 -0.20104,-1.07879 0.0166,-0.44133 0.0844,-0.71779 0.31608,-1.28783 0.0726,-0.17868 0.13201,-0.33992 0.13201,-0.35832 0,-0.0965 -0.54148,-0.75122 -1.0612,-1.28317 -0.45376,-0.46444 -0.65478,-0.60069 -1.33984,-0.90812 -0.47262,-0.21209 -0.57908,-0.29517 -0.60256,-0.47025 -0.0157,-0.11695 0.0295,-0.13876 0.25183,-0.12167 0.0925,0.007 0.17428,0.007 0.18177,-6.2e-4 0.0298,-0.0298 -0.1922,-0.38809 -0.47165,-0.76122 -0.45627,-0.60923 -0.72845,-1.0653 -0.94621,-1.58544 -0.0427,-0.10205 -0.14075,-0.31594 -0.21784,-0.47531 -0.13476,-0.2786 -0.14719,-0.29634 -0.32263,-0.46047 -0.10035,-0.0939 -0.31097,-0.27428 -0.46803,-0.40088 -0.54671,-0.44064 -0.57959,-0.47173 -0.58662,-0.55486 -0.006,-0.0619 0.007,-0.0892 0.0708,-0.15993 0.0978,-0.1083 0.22036,-0.17278 0.29358,-0.15451 0.0767,0.0192 0.17386,0.0822 0.36144,0.23482 0.19085,0.15524 0.1897,0.16111 0.0439,-0.22448 -0.0493,-0.1304 -0.10506,-0.29662 -0.12387,-0.36938 -0.0327,-0.12686 -0.0326,-0.13448 0.005,-0.18554 0.0536,-0.0731 0.26728,-0.14437 0.43556,-0.1453 0.12302,-6.2e-4 0.13581,0.004 0.19687,0.0685 0.077,0.0817 0.10057,0.15289 0.15468,0.46823 0.0446,0.25995 0.10736,0.48214 0.15399,0.54518 0.0286,0.0387 0.0337,0.0333 0.0944,-0.0998 0.0657,-0.1443 0.14039,-0.35822 0.23805,-0.68189 0.0622,-0.20626 0.11883,-0.28033 0.21419,-0.28033 0.0935,0 0.27161,0.0738 0.3492,0.14463 0.0821,0.075 0.0813,0.081 -0.0483,0.38079 -0.14092,0.32575 -0.21685,0.56183 -0.24877,0.77341 -0.0295,0.19556 -0.0402,0.47416 -0.0181,0.47416 0.006,0 0.0345,-0.0272 0.0624,-0.0603 0.0657,-0.0781 0.14715,-0.0955 0.24853,-0.0531 0.14068,0.0588 0.27531,0.22727 0.2753,0.34458 -1e-5,0.0283 -0.0991,0.17901 -0.2474,0.37622 -0.13606,0.18095 -0.24738,0.34599 -0.24738,0.36676 0,0.0784 0.0858,0.19697 0.27962,0.38658 0.23332,0.22821 0.27639,0.29077 0.53938,0.78341 0.0515,0.0964 0.13874,0.25994 0.19398,0.36347 0.10535,0.19745 0.11051,0.20179 0.30153,0.2536 0.0825,0.0224 0.0994,0.0411 0.2768,0.3064 0.29604,0.44273 0.70054,0.9943 0.89516,1.22061 0.0244,0.0283 0.11478,0.13618 0.2009,0.23964 0.14416,0.17319 0.97934,1.0204 1.01891,1.03359 0.01,0.003 0.10469,-0.0942 0.21155,-0.21626 0.31574,-0.36083 0.33318,-0.37971 0.4796,-0.51896 0.11689,-0.11118 0.29096,-0.25091 0.49627,-0.39837 0.0372,-0.0267 0.0364,-0.0322 -0.0229,-0.15069 -0.20163,-0.40314 -0.32689,-1.06286 -0.40107,-2.11241 -0.036,-0.50934 -0.036,-2.52739 -3e-5,-3.17489 0.0422,-0.75945 0.12832,-1.66356 0.20124,-2.11316 0.0766,-0.47205 0.20604,-1.01899 0.30765,-1.2997 0.26156,-0.72256 0.58628,-1.0231 1.25086,-1.15769 0.20862,-0.0423 0.71305,-0.047 0.88974,-0.008 0.11561,0.0252 0.1228,0.0243 0.19585,-0.0257 0.0417,-0.0286 0.12249,-0.0967 0.17949,-0.15124 0.23057,-0.22075 0.93646,-0.86929 1.06153,-0.97529 0.0735,-0.0623 0.13828,-0.11883 0.14395,-0.12565 0.0293,-0.0353 0.37367,-0.27788 0.49227,-0.34687 0.48936,-0.28471 1.0991,-0.41072 1.71513,-0.35445 0.22274,0.0203 0.27646,0.02 0.29135,-0.002 0.01,-0.0147 0.0145,-0.23558 0.01,-0.4907 -0.007,-0.39934 -0.0149,-0.48824 -0.055,-0.6391 -0.0829,-0.31118 -0.18104,-0.51112 -0.40375,-0.82254 -0.0637,-0.0891 -0.0633,-0.14816 10e-4,-0.22513 0.0283,-0.0337 0.0515,-0.0706 0.0515,-0.082 0,-0.0114 -0.0587,-0.10283 -0.13035,-0.20319 -0.0717,-0.10036 -0.13629,-0.19861 -0.14358,-0.21834 -0.0244,-0.066 0.0707,-0.0594 0.32546,0.0227 0.2346,0.0756 0.24977,0.0838 0.29328,0.15984 0.10574,0.1847 0.41342,1.26284 0.52003,1.82222 0.0248,0.1304 0.0499,0.251 0.0556,0.26801 0.0161,0.0479 0.0539,-0.0571 0.2336,-0.64756 0.18823,-0.61868 0.34222,-1.07747 0.44499,-1.32572 0.087,-0.21024 0.2441,-0.52571 0.30478,-0.61212 0.27715,-0.39467 0.865,-0.95368 1.12405,-1.06892 0.0855,-0.038 0.0939,-0.0383 0.16649,-0.006 0.0857,0.0387 0.20252,0.12609 0.18672,0.13975 -0.005,0.005 -0.0799,0.0534 -0.16493,0.10784 -0.29075,0.18601 -0.67376,0.5395 -0.63095,0.58231 0.016,0.016 0.25446,-0.10183 0.63094,-0.31158 0.43511,-0.24243 0.50646,-0.27012 1.12225,-0.43561 0.28283,-0.076 0.4218,-0.10468 0.44565,-0.0919 0.0548,0.0293 0.24633,0.24698 0.24633,0.27992 0,0.0455 -0.0609,0.0605 -0.47969,0.11846 -0.2128,0.0294 -0.40763,0.0641 -0.43294,0.0771 -0.37597,0.19234 -1.35526,0.73499 -1.4977,0.82991 -0.16485,0.10985 -0.36902,0.27923 -0.42488,0.35247 -0.0692,0.0907 -0.63542,1.61206 -0.69871,1.87726 l -0.0147,0.0618 0.0541,-0.0722 c 0.0297,-0.0397 0.0736,-0.10462 0.0975,-0.14431 0.0674,-0.11214 0.12228,-0.16493 0.17143,-0.16493 0.0643,0 0.17574,-0.0808 0.4116,-0.29867 0.44414,-0.4102 0.71964,-0.63398 0.86589,-0.70333 0.32757,-0.15535 0.87595,-0.26895 1.18542,-0.24558 0.50534,0.0382 0.89763,0.12995 1.31944,0.30871 0.26806,0.11361 0.28392,0.15157 0.14912,0.357 -0.092,0.14015 -0.12304,0.1563 -0.22885,0.11897 -0.15198,-0.0536 -0.7937,-0.22059 -0.96139,-0.25016 -0.0907,-0.016 -0.22523,-0.0291 -0.29894,-0.0291 -0.23337,7e-5 -0.73887,0.10369 -0.91911,0.18842 -0.13112,0.0616 -1.09203,0.83496 -1.34866,1.08539 -0.10395,0.10144 -0.10747,0.10771 -0.0422,0.0754 0.0391,-0.0194 0.13657,-0.076 0.21647,-0.1259 0.20988,-0.13096 0.36052,-0.172 0.70191,-0.19119 0.15875,-0.009 0.31182,-0.0136 0.34017,-0.0105 0.0283,0.003 0.0585,0.006 0.067,0.007 0.0558,0.006 -0.0602,0.19151 -0.16807,0.26829 -0.0389,0.0276 -0.15618,0.0648 -0.30245,0.0958 -0.13142,0.0278 -0.26786,0.0656 -0.30319,0.0838 -0.0353,0.0183 -0.13431,0.0999 -0.21994,0.18129 -0.0856,0.0814 -0.22787,0.19668 -0.31607,0.2561 -0.0882,0.0594 -0.15545,0.11595 -0.14946,0.12564 0.006,0.01 0.0642,0.0477 0.12943,0.0844 0.3238,0.18234 0.61324,0.48476 0.83763,0.87522 0.14039,0.24429 0.1819,0.3777 0.19242,0.61848 0.009,0.21132 -0.0115,0.36082 -0.14912,1.07204 -0.0285,0.1474 -0.0654,0.39987 -0.0821,0.56102 -0.0286,0.27685 -0.0715,1.05655 -0.0719,1.30573 l -2.1e-4,0.11438 0.11854,0.0756 c 0.34422,0.2194 0.64713,0.6956 0.79146,1.24426 0.067,0.25484 0.0675,0.68255 6.1e-4,0.92537 -0.0594,0.21664 -0.23873,0.57262 -0.40511,0.80403 -0.28418,0.39525 -0.5357,0.66376 -1.34983,1.44097 -0.33382,0.31868 -0.77013,0.74177 -0.96958,0.9402 -0.34672,0.34495 -0.99791,1.04904 -1.19829,1.29564 -0.15868,0.19528 -0.57389,0.6181 -0.78823,0.80268 -0.2332,0.20082 -0.23878,0.23651 -0.0289,0.1847 0.20228,-0.0499 0.51287,-0.17081 0.81902,-0.31881 0.42596,-0.20591 0.66842,-0.3445 1.92762,-1.10189 0.53695,-0.32295 0.8633,-0.49197 1.28851,-0.66728 0.2039,-0.0841 0.44619,-0.25191 0.66136,-0.45815 l 0.19421,-0.18615 -0.002,-0.11197 c -10e-4,-0.0651 -0.0344,-0.21304 -0.0786,-0.35332 -0.0418,-0.13275 -0.0731,-0.27027 -0.0696,-0.30562 0.0106,-0.10595 0.0917,-0.14951 0.29442,-0.15798 0.17054,-0.007 0.17202,-0.007 0.23564,0.0598 0.0409,0.0428 0.0792,0.11794 0.10607,0.20819 0.0231,0.0777 0.0493,0.1412 0.0581,0.1412 0.0235,0 0.25985,-0.48419 0.35314,-0.72358 0.0746,-0.19132 0.12657,-0.40706 0.18586,-0.77108 0.013,-0.0794 0.0412,-0.17286 0.0627,-0.20776 0.0416,-0.0673 0.19415,-0.16039 0.29897,-0.18248 0.11715,-0.0247 0.25876,0.11355 0.29897,0.29185 0.0241,0.10692 -0.007,0.24158 -0.11157,0.48481 -0.10453,0.24283 -0.14586,0.36396 -0.12969,0.38012 0.0157,0.0157 0.24219,-0.11286 0.5579,-0.31653 0.18039,-0.11637 0.28579,-0.1717 0.32706,-0.1717 0.19595,0 0.39177,0.28275 0.31715,0.45795 -0.0398,0.0934 -0.1042,0.14657 -0.26076,0.21524 -0.0736,0.0322 -0.1942,0.0881 -0.26801,0.12414 l -0.1342,0.0655 0.34349,0.002 0.34349,0.001 0.0556,0.0661 c 0.0482,0.0574 0.0544,0.08 0.0468,0.17194 -0.005,0.0582 -0.0276,0.14217 -0.0505,0.1865 l -0.0417,0.0806 -0.24547,0.0159 c -0.73145,0.0474 -1.04135,0.10444 -1.31751,0.24242 -0.22714,0.1135 -0.63912,0.41852 -0.68759,0.50909 -0.0268,0.0502 -0.0109,0.0678 0.10519,0.11587 0.12549,0.052 0.13366,0.0456 -0.32471,0.25188 -0.86804,0.39055 -1.96087,0.92725 -2.041,1.00234 -0.0133,0.0124 -0.01,0.0157 0.0103,0.009 0.11977,-0.0396 0.38412,-0.0953 0.45259,-0.0953 0.0756,0 0.0862,0.007 0.12463,0.0824 0.0527,0.10337 0.072,0.24081 0.044,0.31342 -0.0264,0.0682 -0.084,0.0855 -0.43564,0.13039 -0.29374,0.0375 -0.8366,0.14964 -1.08611,0.22432 -0.37668,0.11275 -1.12132,0.55335 -1.50857,0.89262 l -0.0898,0.0787 0.0831,0.19565 c 0.0962,0.22631 0.14659,0.40829 0.16554,0.59767 0.0157,0.15683 0.007,0.15398 0.29172,0.0922 0.29704,-0.0644 1.13445,-0.0529 1.48097,0.0203 1.06435,0.22506 1.97604,0.67931 2.55302,1.27207 0.39331,0.40406 0.75411,1.08203 0.86132,1.61848 0.0178,0.0888 0.0368,0.18154 0.0423,0.20601 0.01,0.0428 0.0182,0.0404 0.22146,-0.0621 0.38404,-0.19359 0.66298,-0.26115 1.10249,-0.26703 0.32129,-0.004 0.34784,0.003 0.6168,0.17788 0.27927,0.18119 0.48816,0.46741 0.61338,0.84044 0.0288,0.0857 0.0792,0.3129 0.11208,0.5048 0.0555,0.32415 0.0585,0.36943 0.0429,0.63756 -0.027,0.4623 -0.0902,0.80861 -0.21575,1.1816 -0.10913,0.32434 -0.20667,0.49177 -0.40847,0.7012 -0.17603,0.18269 -0.24994,0.21568 -0.50691,0.22627 -0.52167,0.0215 -1.20383,-0.18977 -1.71345,-0.53065 -0.10277,-0.0687 -0.1932,-0.12472 -0.20096,-0.12438 -0.008,3.3e-4 -0.0605,0.0769 -0.1172,0.17008 -0.28622,0.4706 -0.43288,0.65663 -1.05971,1.34415 -1.04296,1.14397 -2.05012,1.92156 -2.99136,2.30953 -0.27765,0.11445 -0.47718,0.1995 -0.49265,0.21001 -0.004,0.003 0.0181,0.0452 0.0503,0.0936 0.23604,0.35564 0.42127,0.87499 0.42163,1.18218 2.2e-4,0.19831 -0.0482,0.30816 -0.20432,0.46307 -0.25232,0.25044 -0.64124,0.38831 -1.37268,0.48663 -0.3273,0.044 -1.23752,0.0546 -1.52559,0.0178 z m 1.25759,-2.27811 c 0.37646,-0.0213 0.56757,-0.05 0.87618,-0.1315 0.83667,-0.22087 1.62535,-0.62536 2.35025,-1.20536 0.81002,-0.6481 1.82886,-1.74392 2.31269,-2.48741 0.29168,-0.44821 0.47789,-0.99297 0.57784,-1.69052 0.0346,-0.24134 0.0341,-1.29751 -6.1e-4,-1.5256 -0.12588,-0.82523 -0.50006,-1.57976 -1.02654,-2.07001 -0.51981,-0.48403 -1.37227,-0.90438 -2.15194,-1.06112 -0.42159,-0.0848 -0.61436,-0.1001 -1.12283,-0.0894 -0.5367,0.0113 -0.66477,0.0311 -0.6808,0.10487 -0.005,0.0241 -0.0248,0.13195 -0.0434,0.23967 -0.0595,0.3442 -0.19518,0.55866 -0.62651,0.99006 -0.28413,0.28416 -0.31132,0.30694 -0.80448,0.67384 -0.37665,0.28023 -1.35646,0.83121 -1.88638,1.06079 -0.97303,0.42156 -1.7501,0.56778 -2.29339,0.43158 -0.1048,-0.0263 -0.20353,-0.0428 -0.21942,-0.0367 -0.0444,0.017 -0.21485,0.55402 -0.299,0.94179 -0.10744,0.49512 -0.11274,0.5543 -0.11352,1.26789 -6.1e-4,0.63756 0.002,0.69391 0.0471,0.89619 0.1109,0.50018 0.28855,0.85152 0.70201,1.38836 0.0857,0.11127 0.18318,0.24115 0.21661,0.28862 0.10523,0.14942 0.67058,0.69897 0.93823,0.912 0.732,0.58264 1.48104,0.96447 2.17587,1.10918 0.0802,0.0167 0.72628,0.0123 1.07204,-0.007 z m 2.11463,-3.45364 c -0.48148,-0.13549 -0.76427,-0.51169 -0.76427,-1.01671 0,-0.5417 0.40417,-1.00904 0.97324,-1.12535 0.20445,-0.0418 0.65306,-0.0436 0.78729,-0.003 0.24728,0.0744 0.57956,0.34611 0.68375,0.55906 0.0512,0.10456 0.0547,0.12705 0.0418,0.26886 -0.0299,0.33013 -0.20983,0.72693 -0.44563,0.98283 -0.23283,0.25269 -0.46138,0.34386 -0.89626,0.35758 -0.19919,0.006 -0.29675,3.6e-4 -0.37992,-0.023 z m 0.71071,-0.30602 c 0.23848,-0.0751 0.38292,-0.23232 0.56811,-0.61827 0.1154,-0.2405 0.13269,-0.41942 0.0536,-0.55441 -0.14879,-0.25389 -0.44602,-0.40762 -0.78673,-0.40691 -0.71101,0.001 -1.18673,0.59393 -0.96102,1.19679 0.0774,0.20674 0.23754,0.34637 0.46301,0.4037 0.1376,0.035 0.52432,0.0228 0.66305,-0.0209 z m -3.81808,-1.25049 c -0.24964,-0.0452 -0.50916,-0.18606 -0.66119,-0.35878 -0.11697,-0.13287 -0.17435,-0.28917 -0.18601,-0.50664 -0.0293,-0.54649 0.27331,-0.896 0.97208,-1.12277 0.61718,-0.20029 0.84429,-0.15413 1.25095,0.25426 0.3189,0.32027 0.36951,0.4453 0.29565,0.73033 -0.0706,0.27248 -0.23618,0.55562 -0.42331,0.72386 -0.23842,0.21437 -0.42197,0.27677 -0.8533,0.29009 -0.15874,0.005 -0.33644,2.5e-4 -0.39487,-0.0103 z m 0.65527,-0.29725 c 0.28741,-0.0609 0.44498,-0.19199 0.5963,-0.49601 0.0452,-0.0907 0.0928,-0.21672 0.10585,-0.27999 0.0219,-0.10573 0.0198,-0.12319 -0.0247,-0.21514 -0.0734,-0.15167 -0.31036,-0.38958 -0.46267,-0.46456 -0.12763,-0.0628 -0.12788,-0.0629 -0.31178,-0.0402 -0.2411,0.0298 -0.37074,0.068 -0.59849,0.17641 -0.29328,0.13963 -0.42854,0.29401 -0.4812,0.5492 -0.0404,0.19558 0.0251,0.43632 0.15653,0.57556 0.16952,0.1796 0.65459,0.27217 1.02014,0.19469 z m -3.14667,-1.64895 c 0.76493,-0.17886 1.73478,-0.60553 2.61032,-1.14834 0.58569,-0.36312 1.135,-0.813 1.45149,-1.18878 0.25617,-0.30415 0.35345,-0.51712 0.37488,-0.82066 0.0355,-0.50285 -0.21719,-1.11677 -0.60581,-1.47195 -0.063,-0.0576 -0.18531,-0.14569 -0.2718,-0.19582 l -0.15727,-0.0912 -0.0825,0.0514 c -0.65859,0.41031 -1.72152,0.44931 -2.76146,0.10131 -0.53533,-0.17915 -0.92417,-0.417 -1.26907,-0.77632 l -0.134,-0.13961 -0.15071,0.11431 c -0.20892,0.15845 -0.56209,0.51837 -0.74802,0.7623 -0.46432,0.6092 -0.79651,1.31075 -0.95089,2.00823 -0.0347,0.15692 -0.0435,0.26756 -0.044,0.55664 -6e-4,0.33622 0.003,0.3734 0.0562,0.54621 0.2162,0.70524 0.71307,1.27237 1.41478,1.6148 0.24583,0.11996 0.40372,0.14963 0.74218,0.13944 0.22372,-0.007 0.35599,-0.0224 0.52571,-0.062 z m 1.37098,-2.16896 c -0.66963,-0.0959 -0.98513,-0.23474 -1.11816,-0.4921 -0.0791,-0.15294 -0.0975,-0.27188 -0.0925,-0.59787 0.004,-0.29232 0.008,-0.31569 0.0625,-0.42705 0.0671,-0.13661 0.20051,-0.26281 0.36686,-0.34697 0.12339,-0.0624 0.3244,-0.13489 0.42251,-0.15232 0.0329,-0.006 0.10986,-0.0202 0.17093,-0.0318 0.0611,-0.0116 0.2188,-0.0211 0.35048,-0.0211 0.22294,1e-5 0.24838,0.004 0.36949,0.0615 0.35074,0.16593 0.58943,0.57875 0.59022,1.02079 2.9e-4,0.16703 -0.006,0.19892 -0.0652,0.31955 -0.10817,0.22108 -0.32325,0.43469 -0.55849,0.55471 -0.0827,0.0422 -0.38123,0.12796 -0.42642,0.1225 -0.0114,-0.001 -0.0438,-0.006 -0.0722,-0.01 z m 0.25694,-0.33305 c 0.20524,-0.0813 0.45447,-0.29682 0.5174,-0.44745 0.0163,-0.0391 0.0297,-0.12997 0.0297,-0.20198 0,-0.34368 -0.20877,-0.6926 -0.45884,-0.76686 -0.224,-0.0665 -0.58946,-0.0219 -0.86041,0.10518 -0.27908,0.13083 -0.34343,0.20738 -0.39116,0.46526 -0.0296,0.15992 -0.004,0.37352 0.0652,0.53576 0.0357,0.0841 0.0584,0.10541 0.17816,0.16758 0.16232,0.0842 0.23431,0.10854 0.4735,0.16001 0.19309,0.0415 0.30878,0.037 0.44645,-0.0175 z m 1.11404,-2.28068 c 0.22707,-0.0614 0.48201,-0.18702 0.66473,-0.32762 0.28474,-0.2191 0.80836,-0.74826 1.26038,-1.27372 0.39039,-0.45381 0.92819,-1.01681 1.61133,-1.68685 1.35311,-1.32715 1.72723,-1.78414 1.92248,-2.34835 0.0815,-0.23545 0.0996,-0.56387 0.0458,-0.82846 -0.12611,-0.61951 -0.47793,-1.15512 -0.8253,-1.25642 -0.0451,-0.0131 -0.22969,-0.035 -0.4102,-0.0486 -0.33412,-0.0251 -0.40684,-0.0495 -0.27976,-0.0938 0.0352,-0.0123 0.17707,-0.0284 0.31534,-0.0358 0.13826,-0.007 0.25495,-0.0167 0.25929,-0.0206 0.004,-0.004 0.0149,-0.18138 0.0236,-0.39436 0.0141,-0.34707 0.0265,-0.44071 0.1196,-0.90265 0.13849,-0.68701 0.16851,-0.94036 0.16818,-1.41925 -2.7e-4,-0.38228 -0.002,-0.4005 -0.0601,-0.5668 -0.12678,-0.36425 -0.43046,-0.76788 -0.72247,-0.96025 -0.49739,-0.32768 -1.08944,-0.50552 -1.90126,-0.57108 -0.25547,-0.0207 -0.37258,-0.021 -0.55664,-0.001 -0.71305,0.0758 -1.13211,0.32444 -2.1607,1.28218 -0.1304,0.12141 -0.28811,0.26509 -0.35048,0.31929 -0.0624,0.0542 -0.15905,0.14415 -0.21486,0.19989 l -0.10146,0.10134 0.0611,0.0372 c 0.0336,0.0205 0.11294,0.0964 0.17634,0.16892 0.1667,0.19057 0.42624,0.71933 0.35308,0.71933 -0.0291,0 -0.0942,-0.0773 -0.18252,-0.21647 -0.22677,-0.35743 -0.31005,-0.44827 -0.49871,-0.54391 -0.23702,-0.12017 -0.71366,-0.16339 -1.04638,-0.0949 -0.65007,0.13384 -0.95713,0.47147 -1.15577,1.27086 -0.17412,0.70071 -0.27283,1.44898 -0.38984,2.95516 -0.0485,0.62412 -0.0625,1.07369 -0.0625,2.01007 0,0.99761 0.0135,1.35847 0.0711,1.90969 0.11614,1.11028 0.26858,1.54767 0.65173,1.87004 0.45015,0.37876 1.19041,0.68978 1.84388,0.77472 0.0964,0.0125 0.19843,0.0265 0.22678,0.0311 0.0284,0.004 0.251,0.006 0.49479,0.003 0.40707,-0.005 0.46007,-0.0101 0.64941,-0.0613 z m -0.0928,-1.25438 c -0.005,-0.006 -0.0926,-0.0158 -0.19319,-0.023 -0.58072,-0.0415 -1.30362,-0.35953 -1.63459,-0.71912 -0.33956,-0.3689 -0.46997,-0.79924 -0.62945,-2.07706 -0.0377,-0.30208 -0.0379,-2.42515 -2.4e-4,-2.77288 0.0147,-0.13606 0.0311,-0.29378 0.0364,-0.35047 0.006,-0.0567 0.0141,-0.13555 0.0197,-0.17524 0.005,-0.0397 0.0152,-0.11854 0.0213,-0.17523 0.0407,-0.37537 0.1469,-0.94652 0.26919,-1.44749 0.0743,-0.30425 0.13164,-0.601 0.13169,-0.68113 4e-5,-0.0613 -0.03,-0.0592 -0.22525,0.0162 -0.20185,0.0778 -0.46625,0.25179 -0.63614,0.41852 -0.1024,0.10051 -0.13341,0.12089 -0.14803,0.0973 -0.0553,-0.0892 0.31819,-0.4679 0.59138,-0.59966 0.33122,-0.15974 0.74866,-0.19 1.00875,-0.0731 0.13358,0.06 0.21999,0.13564 0.24335,0.21295 0.0195,0.0645 -0.0127,0.0596 -0.16352,-0.0247 -0.12051,-0.0674 -0.30446,-0.1139 -0.45209,-0.11428 l -0.0599,-1.5e-4 0.013,0.35563 c 0.0286,0.78493 0.24842,1.63213 0.60392,2.32713 0.3022,0.59079 0.91754,1.26951 1.5027,1.65748 0.50398,0.33414 1.04872,0.55101 1.69092,0.67319 0.21534,0.041 0.31306,0.0471 0.76241,0.0474 0.74588,6e-4 0.99437,-0.0421 1.42308,-0.24481 0.34818,-0.16459 0.43507,-0.35383 0.44155,-0.96156 0.005,-0.51995 -0.11508,-0.99689 -0.32178,-1.27231 -0.0469,-0.0624 -0.0586,-0.067 -0.17292,-0.067 -0.10838,0 -0.12265,-0.005 -0.12265,-0.0407 0,-0.10054 0.26785,-0.13712 0.47609,-0.065 0.20745,0.0718 0.4104,0.21787 0.4104,0.29531 0,0.0482 -0.0232,0.047 -0.0887,-0.004 -0.0689,-0.0542 -0.32224,-0.17271 -0.3372,-0.15775 -0.006,0.006 0.009,0.0398 0.0332,0.0743 0.10446,0.14669 0.24105,0.51194 0.27812,0.74363 0.0762,0.47641 0.0356,0.96575 -0.10287,1.23895 -0.0849,0.16754 -0.2052,0.27056 -0.46552,0.39863 -0.12833,0.0631 -0.24842,0.11479 -0.26686,0.11479 -0.0184,0 -0.0744,0.0292 -0.12424,0.0649 -0.12084,0.0864 -1.32123,1.27957 -1.71848,1.70811 -0.46691,0.50368 -0.51437,0.56461 -0.84479,1.0845 -0.0559,0.088 -0.13684,0.19516 -0.17979,0.23811 -0.1012,0.10119 -0.29676,0.19905 -0.46858,0.23447 -0.14246,0.0294 -0.58241,0.0629 -0.60029,0.0457 z m 2.03546,-2.72504 c 0.18211,-0.18581 0.37663,-0.43744 0.37663,-0.48719 0,-0.0167 -0.0787,-0.0308 -0.27832,-0.0503 -0.76636,-0.0745 -1.70871,-0.47563 -2.24623,-0.95624 -0.14583,-0.13039 -0.19679,-0.16612 -0.19679,-0.13799 0,0.005 -0.0138,0.0627 -0.0305,0.12885 -0.0493,0.19397 -0.11589,0.62196 -0.11649,0.74888 -0.001,0.20788 0.0864,0.34142 0.34517,0.52753 0.40554,0.29162 0.92757,0.43647 1.58518,0.43985 l 0.35047,0.002 0.21093,-0.21522 z m 1.24251,-2.39524 c -0.68811,-0.1228 -1.35336,-0.35991 -1.80392,-0.64294 -0.16001,-0.10052 -0.41422,-0.30226 -0.57499,-0.45632 -0.20986,-0.20111 -0.32182,-0.36941 -0.32179,-0.48379 2e-5,-0.10957 0.0867,-0.2916 0.25637,-0.53836 l 0.13336,-0.19397 -0.0763,-0.0128 c -0.38285,-0.0641 -0.72992,-0.30504 -0.89684,-0.62267 -0.0994,-0.18916 -0.13821,-0.3471 -0.13784,-0.56097 5.8e-4,-0.33532 0.10675,-0.60827 0.33235,-0.85448 0.15718,-0.17153 0.3389,-0.30012 0.60118,-0.42538 0.68854,-0.32886 1.34231,-0.20057 1.63377,0.3206 0.0732,0.13082 0.11981,0.3007 0.14432,0.52549 0.0242,0.22213 0.023,0.22119 0.16487,0.12467 0.0676,-0.046 0.1878,-0.1106 0.26717,-0.14363 0.27972,-0.1164 0.71343,-0.13664 0.90813,-0.0424 0.19548,0.0946 0.36297,0.32607 0.45552,0.62946 0.0536,0.17586 0.0504,0.53154 -0.006,0.70194 -0.0498,0.14954 -0.16067,0.32265 -0.2816,0.43984 -0.16938,0.16415 -0.3574,0.25245 -0.63757,0.29941 -0.046,0.008 -0.0773,0.0246 -0.0773,0.0416 0,0.0157 0.0281,0.14753 0.0624,0.29285 0.14949,0.6332 0.26746,1.25615 0.26747,1.41242 0,0.0504 -0.0165,0.0954 -0.0488,0.13285 -0.0426,0.0496 -0.0653,0.0573 -0.18039,0.0612 -0.0724,0.002 -0.15482,4e-4 -0.18317,-0.005 z m 0.18296,-0.14445 c 0.0624,-0.0125 0.0644,-0.0163 0.0644,-0.12149 0,-0.0597 -0.0284,-0.26035 -0.0633,-0.44582 -0.0565,-0.30115 -0.0692,-0.34223 -0.11854,-0.38395 -0.11409,-0.0964 -0.43568,-0.14121 -0.60368,-0.0841 -0.16599,0.0565 -0.32304,0.21654 -0.39627,0.40391 -0.0501,0.12815 -0.065,0.29565 -0.0304,0.34158 0.0401,0.0533 0.87374,0.29468 1.03951,0.30104 0.0241,6.2e-4 0.0728,-0.004 0.10823,-0.0112 z m -1.28785,-0.49222 c 0.0173,-0.19904 0.10293,-0.36931 0.25334,-0.50336 0.14442,-0.12872 0.2204,-0.1651 0.40076,-0.19186 0.15358,-0.0228 0.34608,0.002 0.45568,0.0587 0.0542,0.028 0.057,0.0271 0.0566,-0.0175 -4.3e-4,-0.0649 -0.0872,-0.33796 -0.14069,-0.44258 -0.0519,-0.10154 -0.13407,-0.16867 -0.30312,-0.24761 -0.11447,-0.0534 -0.14106,-0.0574 -0.39084,-0.0575 -0.25061,-1.4e-4 -0.27616,0.004 -0.39368,0.0579 -0.16945,0.0783 -0.35246,0.26673 -0.45334,0.46673 -0.0709,0.1405 -0.0783,0.17155 -0.0866,0.36078 -0.0126,0.28793 0.008,0.35185 0.14978,0.45446 0.15234,0.11059 0.40484,0.24318 0.42407,0.22267 0.008,-0.009 0.0211,-0.0815 0.028,-0.16083 z m -0.73812,-0.47932 c -0.002,-0.2402 0.003,-0.27376 0.0523,-0.38932 0.15469,-0.36131 0.4946,-0.63598 0.8489,-0.68595 0.2268,-0.032 0.43746,0.0148 0.68909,0.15314 0.11554,0.0635 0.12904,0.0668 0.12904,0.0318 0,-0.0692 -0.20165,-0.34499 -0.31089,-0.42518 -0.0602,-0.0442 -0.18286,-0.10229 -0.29315,-0.13888 -0.17661,-0.0585 -0.21027,-0.0629 -0.48861,-0.0627 -0.26761,1.7e-4 -0.31622,0.006 -0.46386,0.0547 -0.1093,0.0361 -0.20391,0.0853 -0.28047,0.14566 -0.2371,0.18702 -0.57511,0.6681 -0.57511,0.81853 0,0.0978 0.0844,0.21211 0.32879,0.44498 0.13766,0.1312 0.34864,0.31438 0.36385,0.3159 10e-4,10e-5 10e-4,-0.11808 1.5e-4,-0.26266 z m 2.11243,-0.98674 c 0.29523,-0.0876 0.49329,-0.24617 0.61787,-0.49453 0.0688,-0.13715 0.0713,-0.1504 0.0702,-0.36903 -0.002,-0.30113 -0.0471,-0.4229 -0.22438,-0.60036 -0.24023,-0.24043 -0.52264,-0.32096 -0.88843,-0.25334 -0.13853,0.0256 -0.23799,0.0718 -0.40344,0.18725 -0.12867,0.0898 -0.12691,0.087 -0.2441,0.38558 -0.13459,0.34289 -0.13679,0.44679 -0.0108,0.5066 0.0403,0.0191 0.0838,0.0313 0.0967,0.027 0.0146,-0.005 0.0239,-0.0695 0.0248,-0.173 0.001,-0.14213 0.009,-0.17659 0.0553,-0.24653 0.14105,-0.21313 0.4301,-0.2883 0.66022,-0.1717 0.3038,0.15393 0.36187,0.52776 0.11817,0.76066 -0.0608,0.0581 -0.16776,0.10695 -0.29363,0.13409 l -0.0593,0.0128 0.0415,0.0453 c 0.0229,0.0249 0.0713,0.0987 0.10766,0.16387 0.0621,0.11125 0.0709,0.11855 0.14289,0.11855 0.0422,0 0.12715,-0.0149 0.18874,-0.0332 z m -2.28758,-0.46301 c 0.22016,-0.14454 0.44803,-0.21783 0.69665,-0.22407 0.0593,-10e-4 0.21736,-0.15931 0.29882,-0.2983 0.0307,-0.0523 0.0803,-0.15768 0.11033,-0.23407 0.0485,-0.12357 0.0546,-0.16735 0.055,-0.3966 5.1e-4,-0.25567 -10e-5,-0.25895 -0.0759,-0.41481 -0.13276,-0.27308 -0.38749,-0.47273 -0.70759,-0.5546 -0.30861,-0.0789 -0.63698,-0.0381 -0.95569,0.1187 -0.21199,0.10434 -0.46888,0.35492 -0.55625,0.54262 -0.13215,0.28389 -0.15896,0.54492 -0.0817,0.79555 0.0606,0.19657 0.10279,0.27227 0.22864,0.4101 0.19339,0.2118 0.48597,0.35869 0.71619,0.35959 0.1005,3.9e-4 0.12878,-0.0104 0.27143,-0.10411 z m -0.20005,-0.53486 c -0.19003,-0.075 -0.33691,-0.26767 -0.33763,-0.44294 -6.1e-4,-0.14773 0.0383,-0.23737 0.15237,-0.35148 0.0917,-0.0917 0.12604,-0.11174 0.22738,-0.13278 0.25507,-0.053 0.48489,0.0405 0.60751,0.24717 0.0522,0.088 0.0583,0.28818 0.012,0.39879 -0.0989,0.23666 -0.42422,0.37494 -0.6617,0.28124 z m 0.31786,-0.28645 c 0.10512,-0.0536 0.13908,-0.12036 0.10846,-0.21313 -0.0682,-0.20677 -0.34016,-0.23831 -0.45563,-0.0528 -0.12225,0.19639 0.1199,0.38191 0.34717,0.26597 z m 1.83314,0.68227 c 0.0746,-0.0531 0.1179,-0.14887 0.0999,-0.22071 -0.0135,-0.0539 -0.17698,-0.1748 -0.23634,-0.1748 -0.0686,0 -0.20397,0.0858 -0.23953,0.15187 -0.0465,0.0863 -0.0301,0.16138 0.0535,0.245 0.0554,0.0554 0.0719,0.0608 0.16125,0.0522 0.0551,-0.006 0.12707,-0.0292 0.16126,-0.0535 z m 1.55908,-0.89225 c -0.0129,-0.016 -0.0883,-0.1635 -0.16768,-0.32791 -0.0793,-0.16441 -0.18608,-0.35816 -0.2372,-0.43054 -0.12454,-0.17629 -0.33667,-0.38838 -0.4994,-0.49928 -0.0732,-0.0499 -0.13327,-0.10049 -0.13354,-0.11247 -2.8e-4,-0.012 0.0775,-0.10476 0.17279,-0.20616 0.14994,-0.15952 0.17842,-0.18131 0.21132,-0.16165 0.0873,0.0522 0.48032,0.57291 0.54303,0.71946 0.0454,0.10613 0.0944,0.38527 0.12492,0.7121 0.0268,0.28635 0.0237,0.35335 -0.0143,0.30645 z m -2.05882,-1.74173 c -0.36248,-0.10143 -1.0629,-0.13645 -1.68022,-0.084 -0.62941,0.0534 -0.77736,0.0605 -0.79151,0.0376 -0.0191,-0.0309 0.0824,-0.0959 0.34324,-0.21961 0.40992,-0.19448 1.01271,-0.3387 1.44816,-0.34648 0.20999,-0.004 0.31285,0.007 0.68033,0.0744 0.23812,0.0433 0.45437,0.0875 0.48058,0.0981 l 0.0476,0.0193 -0.0467,0.083 c -0.0565,0.10043 -0.31494,0.37101 -0.35198,0.36843 -0.0146,-0.001 -0.0729,-0.0148 -0.12957,-0.0307 z"
         id="path28201" />
      <circle
         style="fill:none;stroke:#ff0000;stroke-width:0.1;stroke-dasharray:none"
         id="path788-8-1-8-1-9-2-1-4-2-2-4-1"
         cx="-91.752831"
         cy="-153.8653"
         r="19.954653" />
      <ellipse
         style="fill:none;stroke:#ff00ff;stroke-width:0.1;stroke-dasharray:none;stroke-opacity:1"
         id="path1138-9-4-0-0-1-2-6-7-2-6-6-39"
         cx="-91.752831"
         cy="-153.8653"
         rx="18.492125"
         ry="18.492126" />
      <circle
         style="fill:none;stroke:#0000ff;stroke-width:0.1;stroke-linecap:round;stroke-dasharray:none;stroke-opacity:1;paint-order:markers stroke fill"
         id="path13019-1-33-7-4-6-7-2-5"
         cx="-91.752831"
         cy="-168.87628"
         r="2" />
    </g>
  </g>
</svg>
