<?xml version="1.0" encoding="UTF-8" standalone="no"?>
<!-- Created with Inkscape (http://www.inkscape.org/) -->

<svg
   width="41.008999mm"
   height="41.008999mm"
   viewBox="0 0 41.008999 41.008999"
   version="1.1"
   id="svg1"
   inkscape:version="1.4.2 (f4327f4, 2025-05-13)"
   sodipodi:docname="176.svg"
   xmlns:inkscape="http://www.inkscape.org/namespaces/inkscape"
   xmlns:sodipodi="http://sodipodi.sourceforge.net/DTD/sodipodi-0.dtd"
   xmlns="http://www.w3.org/2000/svg"
   xmlns:svg="http://www.w3.org/2000/svg">
  <sodipodi:namedview
     id="namedview1"
     pagecolor="#ffffff"
     bordercolor="#000000"
     borderopacity="0.25"
     inkscape:showpageshadow="2"
     inkscape:pageopacity="0.0"
     inkscape:pagecheckerboard="0"
     inkscape:deskcolor="#d1d1d1"
     inkscape:document-units="mm"
     inkscape:zoom="1.5878906"
     inkscape:cx="108.3198"
     inkscape:cy="200.26568"
     inkscape:window-width="1050"
     inkscape:window-height="1081"
     inkscape:window-x="3737"
     inkscape:window-y="0"
     inkscape:window-maximized="0"
     inkscape:current-layer="layer1" />
  <defs
     id="defs1" />
  <g
     inkscape:label="Layer 1"
     inkscape:groupmode="layer"
     id="layer1"
     transform="translate(-0.7937635,-0.79375582)">
    <g
       id="g15663"
       transform="translate(72.025653,175.16355)">
      <path
         style="fill:#000000;stroke-width:0.1;stroke-dasharray:none"
         d="m -54.53025,-137.37428 c -0.54346,-0.0792 -1.25308,-0.22757 -1.57693,-0.32974 -0.99436,-0.31369 -4.32362,-1.87887 -4.32362,-2.03265 0,-0.0797 0.3548,-0.68549 0.78846,-1.3462 1.22833,-1.87145 1.2572,-1.90452 0.62155,-0.7118 -0.32884,0.61702 -0.55212,1.19593 -0.49618,1.28644 0.13887,0.22468 0.69966,0.20799 0.84373,-0.0252 0.075,-0.12132 0.19966,-0.0323 0.34597,0.24689 0.26629,0.50821 0.943,0.73648 1.30146,0.439 0.16185,-0.13433 0.24683,-0.14294 0.24683,-0.0251 0,0.27129 0.68808,0.85675 1.00692,0.85675 0.1542,0 0.37334,-0.11204 0.48701,-0.24899 0.25589,-0.30834 0.49797,-0.32197 0.49797,-0.0281 0,0.3212 0.73218,0.66242 1.14217,0.5323 0.19346,-0.0614 0.35176,-0.23023 0.35176,-0.37517 0,-0.23536 0.031,-0.23686 0.29048,-0.014 0.63184,0.54266 1.53543,0.46901 1.53543,-0.12514 0,-0.21679 0.0618,-0.21546 0.49947,0.0109 0.57041,0.29497 1.06952,0.1322 1.2398,-0.4043 0.0882,-0.27764 0.16839,-0.29768 0.59568,-0.14872 0.51338,0.17896 0.98395,-0.0227 0.98571,-0.42254 4.9e-4,-0.10294 0.18161,-0.41125 0.40259,-0.68514 0.3108,-0.38523 0.44714,-0.45352 0.60219,-0.30164 0.32506,0.31842 0.0562,0.75892 -0.38231,0.62641 -0.2887,-0.0872 -0.33089,-0.0673 -0.18445,0.0871 0.27719,0.29232 0.79834,0.13659 0.85472,-0.25539 0.029,-0.2014 0.25604,-0.41637 0.56165,-0.53173 0.48042,-0.18133 0.50657,-0.23408 0.41132,-0.82974 -0.0812,-0.50743 -0.036,-0.69238 0.22335,-0.91441 0.34514,-0.29553 0.30521,-0.64747 -0.13114,-1.15584 -0.18516,-0.21572 -0.20032,-0.34322 -0.0608,-0.51134 0.14208,-0.17118 0.0877,-0.35703 -0.23077,-0.7887 -0.29567,-0.40076 -0.38906,-0.69044 -0.32158,-0.99765 0.0606,-0.27595 0.007,-0.5061 -0.14823,-0.63481 -0.2029,-0.1684 -0.22848,-0.14524 -0.154,0.13953 0.0508,0.19408 0.009,0.34147 -0.0961,0.34147 -0.16325,0 -0.26248,-0.34149 -0.20502,-0.70547 0.0108,-0.0685 -0.0364,-0.11262 -0.10483,-0.0981 -0.3369,0.0713 -0.70884,-0.25219 -0.61822,-0.53772 0.0535,-0.16832 0.0157,-0.45827 -0.0839,-0.64431 -0.13828,-0.25837 -0.13065,-0.34102 0.0323,-0.34995 0.11733,-0.007 -0.0855,-0.126 -0.45064,-0.26569 -0.41157,-0.15745 -1.35809,-0.27174 -2.48988,-0.30066 -1.00426,-0.0257 -1.95662,-0.0554 -2.1164,-0.0663 -0.20078,-0.0135 -0.29127,-0.16059 -0.29302,-0.47612 -0.003,-0.60115 -0.23404,-0.94358 -0.55318,-0.82111 -0.17075,0.0654 -0.29449,-0.024 -0.36801,-0.2663 -0.17087,-0.56313 -0.88923,-1.44396 -1.17762,-1.44396 -0.51536,0 0.11631,1.29922 0.64308,1.32266 0.0653,0.004 0.20144,0.15997 0.30262,0.34905 0.18042,0.33709 0.17552,0.33822 -0.25166,0.0583 -0.58586,-0.38387 -0.79165,-0.14976 -0.57096,0.64954 0.20393,0.73853 0.50761,0.90061 1.11801,0.59668 0.24491,-0.12194 0.5013,-0.24833 0.56977,-0.28086 0.0684,-0.0325 0.1245,0.0635 0.1245,0.21331 0,0.14983 -0.61938,0.91988 -1.37639,1.71122 -0.75702,0.79133 -1.74018,1.99901 -2.18482,2.68372 -0.44463,0.68473 -0.88296,1.31964 -0.97405,1.41094 -0.32802,0.3287 0.6234,-1.19066 1.59912,-2.5537 l 0.99627,-1.39174 -0.20264,-1.01949 c -0.11146,-0.56072 -0.19578,-1.39102 -0.18738,-1.84509 0.035,-1.88852 -0.0946,-2.64691 -0.63092,-3.69303 -0.82239,-1.60426 -0.95878,-2.36135 -0.8341,-4.62989 0.10088,-1.8357 0.15427,-2.07772 0.69536,-3.1522 0.32237,-0.64011 0.85607,-1.40087 1.18604,-1.69058 1.17558,-1.03217 3.30072,-1.85221 4.80002,-1.85221 0.30046,0 0.98773,0.21703 1.52726,0.48229 0.53952,0.26528 1.22928,0.53385 1.53277,0.59687 0.91549,0.19009 1.68157,1.02084 2.44895,2.65565 0.8357,1.78037 1.06604,2.78326 1.06604,4.64134 0,1.42861 -0.34368,3.64078 -0.65641,4.22512 -0.13781,0.25748 -0.0959,0.49712 0.19002,1.08554 0.32461,0.66815 0.34297,0.82121 0.15936,1.32897 -0.17691,0.48922 -0.16728,0.63524 0.0653,0.99017 0.19823,0.30255 0.24247,0.5957 0.16189,1.07268 -0.0814,0.48194 -0.0363,0.77022 0.16976,1.08471 0.15917,0.24291 0.24012,0.58331 0.18703,0.78635 -0.0577,0.2208 0.0303,0.51554 0.22971,0.76905 0.17783,0.22608 0.32333,0.62996 0.32333,0.89755 0,0.26758 0.0843,0.64406 0.18738,0.83664 0.10306,0.19257 0.29624,0.87608 0.42929,1.51889 0.16952,0.81907 0.38416,1.33079 0.71738,1.7103 0.55033,0.62679 0.74213,1.42488 0.59697,2.48391 -0.14169,1.03374 -0.25902,1.15182 -0.57763,0.58132 -0.15095,-0.27029 -0.47886,-0.78119 -0.72869,-1.13532 -0.35948,-0.50956 -0.46922,-0.88172 -0.52597,-1.78376 -0.0598,-0.94973 -0.14319,-1.21134 -0.50021,-1.56836 l -0.42849,-0.42845 v 0.75219 c 0,0.54558 -0.13065,0.9549 -0.47566,1.49016 -0.76219,1.1825 -1.3197,1.58616 -3.27546,2.37161 -2.58723,1.03904 -4.44556,1.28532 -6.94751,0.92075 z m 4.80592,-0.34702 c 0.45648,-0.0979 1.1661,-0.34425 1.57693,-0.54753 0.41083,-0.20327 1.04575,-0.46372 1.41092,-0.57879 0.96371,-0.30363 1.67912,-0.90094 2.25165,-1.87995 0.66315,-1.13394 0.61323,-2.1123 -0.18938,-3.71204 -0.31259,-0.62304 -0.59831,-1.20404 -0.63495,-1.29112 -0.0367,-0.087 0.23724,0.0824 0.60863,0.37646 l 0.67523,0.53479 0.12422,-0.54245 c 0.26115,-1.1404 -0.0598,-2.5545 -0.48358,-2.1307 -0.11431,0.11429 -0.34935,-0.0172 -0.72879,-0.40795 -0.57055,-0.58748 -1.04205,-0.75046 -1.04205,-0.3602 0,0.281 0.94702,1.77542 1.12509,1.77542 0.0751,0 0.2099,-0.0735 0.29966,-0.16322 0.10696,-0.10695 0.17505,-0.0202 0.19757,0.25174 0.0335,0.40522 0.0246,0.4086 -0.37902,0.14414 -0.22733,-0.14897 -0.41957,-0.24357 -0.42718,-0.21026 -0.1214,0.53175 -0.0213,1.02256 0.35395,1.73596 0.85654,1.62832 0.78671,3.01466 -0.20898,4.14869 -1.17059,1.33323 -5.07489,2.73151 -7.68376,2.75184 -1.39565,0.0109 -4.02237,-0.51522 -4.66071,-0.93348 -0.58816,-0.38539 -2.41268,-1.10738 -2.61699,-1.0356 -0.20591,0.0724 1.45017,0.87859 3.21089,1.56318 2.05181,0.79778 4.93241,1.00167 7.22065,0.51107 z m 8.38259,-1.76785 c 0,-0.83347 -0.59053,-2.02181 -0.91957,-1.85046 -0.41632,0.21679 0.27884,2.65587 0.75695,2.65587 0.0895,0 0.16262,-0.36244 0.16262,-0.80541 z m -1.242,-3.1369 c -0.14424,-1.16364 -0.40541,-1.72364 -0.41287,-0.88529 -0.003,0.31193 -0.0592,0.51302 -0.12531,0.44688 -0.0661,-0.0661 -0.0986,-0.60147 -0.0723,-1.1896 0.048,-1.06727 -0.0802,-1.29176 -0.46969,-0.82252 -0.12579,0.15156 -0.16045,0.42385 -0.0898,0.70546 l 0.11505,0.45864 -0.42849,-0.40242 c -0.51799,-0.48647 -0.53659,-0.37724 -0.0862,0.50568 0.18829,0.36905 0.56129,0.79559 0.82892,0.94784 0.29288,0.16662 0.487,0.41449 0.48764,0.62264 9.3e-4,0.3248 0.12782,0.56715 0.29682,0.56715 0.041,0 0.0212,-0.42951 -0.0438,-0.95446 z m -1.57423,-5.95127 c 0.16503,-0.50006 0.15565,-0.63976 -0.0573,-0.85266 -0.35941,-0.35941 -0.71274,-0.16374 -0.83833,0.46423 -0.2054,1.02696 0.57337,1.36473 0.89558,0.38843 z m -2.49733,-0.60541 c -0.18091,-0.29671 -0.3292,-0.71018 -0.32954,-0.91879 -3.4e-4,-0.20863 -0.12279,-0.56576 -0.2721,-0.79364 -0.39229,-0.59873 -0.15944,-0.68272 0.45631,-0.1646 0.51432,0.43277 0.54029,0.43723 0.83446,0.14304 0.25881,-0.2588 0.27845,-0.40133 0.13305,-0.96549 -0.30278,-1.17472 -0.69249,-1.92376 -0.97311,-1.87033 -0.14421,0.0275 -0.28839,0.23475 -0.32038,0.46065 -0.0427,0.30173 0.0895,0.53739 0.49798,0.88798 0.31731,0.2723 0.40042,0.39814 0.19356,0.29304 -0.19942,-0.10132 -0.54982,-0.1842 -0.77868,-0.1842 -0.43552,0 -0.71365,0.24319 -0.45848,0.40089 0.0817,0.0505 0.11181,0.41821 0.0668,0.81711 -0.046,0.40817 0.005,0.88728 0.11654,1.0958 0.33962,0.63458 0.0638,0.55862 -0.33925,-0.0934 -0.26186,-0.4237 -0.37856,-0.85842 -0.36998,-1.37817 0.009,-0.5715 -0.007,-0.62144 -0.0632,-0.20195 l -0.0757,0.55727 -0.36164,-0.33493 c -0.35885,-0.33237 -0.71926,-0.43118 -1.35758,-0.37219 -0.1826,0.0169 0.0415,0.14469 0.49796,0.28405 0.82194,0.25091 1.31959,0.53414 1.18139,0.67234 -0.0394,0.0395 -0.30238,-0.0477 -0.58443,-0.19362 -0.28208,-0.14586 -1.12935,-0.34947 -1.88284,-0.45246 -0.75349,-0.103 -1.5754,-0.28987 -1.82646,-0.41526 -0.25106,-0.12541 -0.45648,-0.18454 -0.45648,-0.13141 0,0.21607 1.48699,0.72296 2.6303,0.89662 1.47058,0.22336 2.02546,0.49022 2.60833,1.2544 0.24312,0.31875 0.49346,0.54774 0.55633,0.50889 0.0628,-0.0388 0.21595,0.0926 0.34018,0.29211 0.20206,0.32447 0.19836,0.34 -0.035,0.14719 -0.20106,-0.16612 -0.28919,-0.16976 -0.38431,-0.0159 -0.0755,0.12207 -0.0534,0.15642 0.0567,0.0884 0.0991,-0.0612 0.2271,-0.0354 0.28444,0.0573 0.0573,0.0928 0.24814,0.1687 0.42401,0.1687 0.31378,0 0.31361,-0.01 -0.009,-0.53948 z m 2.3257,-2.04342 c 0,-0.52192 -0.16517,-0.90299 -0.39123,-0.90263 -0.32152,4.9e-4 -1.14881,1.46534 -1.04713,1.85412 0.069,0.26369 0.0445,0.30393 -0.098,0.16139 -0.30217,-0.30217 -0.62149,-0.22074 -0.62149,0.15848 0,0.19161 0.22858,0.56191 0.50795,0.82288 l 0.50796,0.4745 0.571,-1.09547 c 0.31404,-0.6025 0.57098,-1.26547 0.57098,-1.47327 z m -0.34876,-2.65341 c 0.5197,-1.85108 0.65371,-3.12381 0.34876,-3.31227 -0.10138,-0.0626 -0.16598,0.19192 -0.16598,0.65417 0,0.51263 -0.0662,0.74337 -0.20521,0.71526 -0.12319,-0.0249 -0.24647,0.22387 -0.30844,0.62247 -0.0702,0.4517 -0.11411,0.5313 -0.13729,0.24898 -0.0334,-0.40674 -0.0369,-0.40778 -0.18006,-0.0527 -0.27769,0.68918 -0.29144,3.4066 -0.0157,3.11524 0.0821,-0.0868 0.38085,-0.98276 0.66396,-1.99116 z m -4.37732,1.36032 c 1.23595,-0.59397 2.33542,-1.62867 2.71907,-2.55888 0.16266,-0.39438 0.27833,-0.49676 0.42435,-0.37556 0.24433,0.20276 0.80961,-0.34666 1.07364,-1.0435 0.35158,-0.92793 0.1224,-2.10559 -0.40977,-2.10559 -0.3159,0 -0.31247,0.45236 0.006,0.77069 0.13694,0.13694 0.23779,0.44906 0.22412,0.69359 l -0.0249,0.44462 -0.0678,-0.44242 c -0.0868,-0.56621 -0.54168,-0.77636 -0.55811,-0.25782 -0.0234,0.73939 -0.29602,-0.24314 -0.31229,-1.12566 -0.028,-1.51389 -1.01138,-3.05101 -2.41435,-3.77363 -0.36487,-0.18793 -0.73835,-0.43729 -0.82995,-0.55414 -0.28406,-0.36234 -1.29759,0.18073 -1.89822,1.01709 -0.60698,0.8452 -0.97921,0.98817 -0.58424,0.22441 0.14602,-0.28238 0.22868,-0.55022 0.1837,-0.5952 -0.045,-0.045 -0.16159,0.0673 -0.25914,0.24959 -0.0975,0.18224 -0.45839,0.50523 -0.8019,0.71776 l -0.62457,0.38639 0.48428,0.0849 c 0.26635,0.0467 0.51912,0.18962 0.5617,0.31758 0.0587,0.17647 -0.0182,0.20331 -0.31829,0.1111 -0.93993,-0.28876 -1.1037,-0.27266 -1.85526,0.18241 -0.94882,0.57452 -1.1368,1.10142 -1.02259,2.8664 0.0555,0.85944 0.0316,1.15053 -0.0761,0.92322 -0.0865,-0.18258 -0.16255,-0.57475 -0.16896,-0.87145 -0.0145,-0.6708 -0.28079,-0.70561 -0.42359,-0.0553 -0.1765,0.80357 0.35819,2.38394 0.87345,2.58167 0.13399,0.0514 0.17393,0.0103 0.10242,-0.10544 -0.0727,-0.11771 -0.0436,-0.14423 0.0768,-0.0698 0.1067,0.0659 0.34164,0.4093 0.52209,0.763 0.37177,0.72875 1.07764,1.32049 2.16177,1.81227 1.07942,0.48964 1.88655,0.43673 3.23681,-0.21218 z m -3.49051,-1.76774 c -0.29685,-0.32802 -0.28972,-0.3321 0.59674,-0.34187 0.49345,-0.006 1.27067,-0.0721 1.72714,-0.14807 0.45648,-0.076 0.85257,-0.11741 0.88019,-0.092 0.0718,0.0659 -1.05605,0.74848 -1.23176,0.74542 -0.0805,-8.9e-4 -0.0344,-0.0826 0.10259,-0.18038 0.19525,-0.13947 0.15942,-0.15732 -0.16599,-0.0827 -0.22824,0.0524 -0.71377,0.10787 -1.07895,0.12347 -0.65682,0.0281 -0.65503,0.0295 0.16599,0.14218 l 0.82996,0.11384 -0.76274,0.0261 c -0.57431,0.0196 -0.83694,-0.056 -1.06317,-0.30591 z m 0.62247,-1.10588 c -0.45082,-0.18191 -0.16996,-0.35381 0.49797,-0.30479 1.01879,0.0748 1.08412,0.10088 0.62248,0.24874 -0.48525,0.1554 -0.83134,0.17271 -1.12045,0.0561 z m -2.7527,-2.15862 c -0.0609,-0.0609 -0.11066,-0.18536 -0.11066,-0.27665 0,-0.0913 0.0487,-0.11733 0.10814,-0.0579 0.0595,0.0595 0.21022,-0.0885 0.33496,-0.32901 0.12474,-0.24044 0.19417,-0.4698 0.15429,-0.50968 -0.0399,-0.0399 -0.15701,0.0854 -0.26029,0.27833 -0.22514,0.42069 -0.50309,0.30135 -0.50309,-0.21602 0,-1.1498 1.82353,-0.94576 2.41211,0.26989 l 0.25984,0.53667 -0.35387,-0.45648 c -0.40808,-0.5264 -0.65816,-0.58632 -0.65816,-0.15769 0,0.46042 -0.32957,0.71015 -0.68566,0.51957 -0.2374,-0.12706 -0.28265,-0.10949 -0.20943,0.0813 0.0514,0.13387 0.21775,0.27632 0.36974,0.31657 0.152,0.0402 0.0461,0.0818 -0.23545,0.0925 -0.28149,0.0106 -0.56161,-0.0306 -0.62247,-0.0914 z m 1.18205,-0.90799 c -0.0414,-0.12432 -0.11669,-0.0491 -0.17538,0.17538 -0.0722,0.2761 -0.0507,0.34091 0.0726,0.21773 0.0965,-0.0965 0.14272,-0.27336 0.1028,-0.39311 z m 3.59207,0.4663 c -0.1668,-0.43467 0.25376,-1.1215 0.83555,-1.36459 1.08942,-0.45518 2.4452,-0.16619 2.20135,0.46926 -0.0886,0.23095 -0.17033,0.22431 -0.72603,-0.059 -0.90015,-0.45891 -1.18606,-0.41336 -1.34887,0.21492 -0.0927,0.35783 -0.27237,0.57406 -0.54422,0.65503 -0.37197,0.11079 -0.36483,0.11815 0.0857,0.0884 0.36906,-0.0244 0.51992,-0.13588 0.60592,-0.44755 0.0958,-0.34715 0.11722,-0.35936 0.13106,-0.0747 0.009,0.18715 -0.0731,0.42991 -0.18265,0.53948 -0.26725,0.26725 -0.95232,0.25353 -1.05772,-0.0211 z m 1.7549,0.10148 c 0.13693,-0.0509 0.45439,-0.19637 0.70546,-0.32314 0.25106,-0.12676 0.45648,-0.19312 0.45648,-0.14747 0,0.13029 -0.95525,0.59097 -1.1952,0.57639 -0.14492,-0.009 -0.134,-0.0436 0.0333,-0.10578 z m -2.05634,-2.34096 c -0.16579,-0.26824 0.17487,-0.39579 1.29786,-0.48594 0.70552,-0.0567 1.17326,-0.009 1.47611,0.14939 l 0.44332,0.23228 -0.70497,0.003 c -0.38773,8.9e-4 -1.08756,0.0636 -1.55516,0.13868 -0.5555,0.0891 -0.88726,0.0764 -0.95716,-0.0367 z m -6.12884,3.99527 c -0.0418,-0.15977 -0.0759,-0.0291 -0.0759,0.29048 0,0.31954 0.0342,0.45026 0.0759,0.29049 0.0417,-0.15976 0.0417,-0.42121 0,-0.58097 z m 0.94401,-4.114 c 0.85306,-1.60358 0.49699,-1.5524 -0.42627,0.0613 -0.43615,0.76231 -0.5266,1.10944 -0.56522,2.1689 l -0.046,1.26135 0.12781,-1.01093 c 0.0908,-0.71842 0.35403,-1.43615 0.90964,-2.4806 z m 9.41643,-0.61525 c -0.45247,-0.66108 -0.7962,-1.22843 -0.76382,-1.2608 0.0324,-0.0324 0.28606,0.19104 0.56378,0.49647 0.33286,0.36608 0.50658,0.46764 0.50979,0.29803 0.003,-0.1415 -0.0511,-0.3313 -0.11963,-0.42176 -0.0684,-0.0905 0.0862,0.0511 0.3438,0.31464 0.25756,0.2635 0.49899,0.4484 0.5365,0.41088 0.12711,-0.1271 -1.03908,-2.36826 -1.39917,-2.6889 -0.22194,-0.19762 -0.68765,-0.3459 -1.22688,-0.39062 -0.74741,-0.062 -0.91561,-0.0192 -1.20087,0.30558 -0.18245,0.20771 -0.24509,0.32722 -0.13921,0.26558 0.10588,-0.0615 0.32997,-0.0579 0.49797,0.008 0.25234,0.0995 0.21885,0.13696 -0.19251,0.21531 l -0.49797,0.0948 0.59162,0.28747 c 0.32539,0.1581 0.87523,0.65937 1.22187,1.1139 0.34663,0.45454 0.82958,0.99416 1.07321,1.19918 0.44564,0.37497 0.51613,0.48256 0.51613,0.78771 0,0.0913 0.11431,0.16598 0.25403,0.16598 0.17569,0 3.4e-4,-0.37065 -0.56864,-1.20192 z m -4.42828,-1.87249 c 0.35747,-0.27045 0.35983,-0.26603 -0.29141,-0.54619 -0.25822,-0.11109 -0.4384,-0.29427 -0.40036,-0.40708 0.0643,-0.19092 -0.70832,-0.78608 -1.02054,-0.78608 -0.0768,0 -0.38929,0.21811 -0.69461,0.48467 l -0.55513,0.48467 0.62526,-0.0582 c 0.49172,-0.0456 0.6498,0.008 0.74013,0.25239 0.11857,0.32052 0.13916,0.3303 0.69583,0.3303 0.18443,0 0.33198,0.11066 0.33198,0.24899 0,0.30935 0.15652,0.30838 0.56885,-0.004 z m 1.31931,-1.3738 c 0.11517,-0.18634 -0.0833,-0.44924 -0.50781,-0.67269 -0.50384,-0.2652 -0.85022,-0.24231 -0.47583,0.0315 0.29423,0.21515 0.29407,0.2261 -0.005,0.34092 -0.26154,0.10035 -0.27151,0.14239 -0.0648,0.27314 0.30075,0.1902 0.94257,0.20675 1.05355,0.0272 z m -3.71406,-0.19956 c 0,-0.0913 -0.0703,-0.16599 -0.15621,-0.16599 -0.0859,0 -0.20235,0.0747 -0.25878,0.16599 -0.0564,0.0913 0.0138,0.16599 0.1562,0.16599 0.14233,0 0.25879,-0.0747 0.25879,-0.16599 z m -1.54226,25.2931 c -0.28617,-0.28617 -0.0935,-0.49927 0.38751,-0.42867 0.27785,0.0408 0.47742,0.15856 0.44348,0.26174 -0.0723,0.21972 -0.66011,0.33781 -0.83099,0.16693 z m 1.71361,-0.21832 c -0.16658,-0.31123 -0.13664,-0.34199 0.33294,-0.34199 0.40078,0 0.50358,0.0644 0.46042,0.28858 -0.0806,0.4187 -0.57989,0.45231 -0.79336,0.0534 z m -3.65387,-0.255 c -0.11914,-0.14355 -0.18056,-0.29707 -0.13647,-0.34114 0.15519,-0.1552 1.1413,0.13458 1.08109,0.3177 -0.0969,0.29452 -0.70706,0.30968 -0.94462,0.0235 z m 5.39046,0.0775 c -0.14666,-0.23728 -0.10139,-0.27758 0.47421,-0.42205 0.40443,-0.1015 0.46397,-0.0736 0.41294,0.19401 -0.0668,0.35068 -0.7093,0.51583 -0.88715,0.22804 z m -7.16241,-0.75256 c -0.054,-0.14088 -0.052,-0.30241 0.005,-0.35894 0.16083,-0.16085 0.96526,0.26448 0.85073,0.4498 -0.15877,0.2569 -0.74572,0.19454 -0.85523,-0.0909 z m 8.6723,0.11442 c -0.0481,-0.0779 0.10033,-0.22733 0.32999,-0.33197 0.54965,-0.25044 0.56796,-0.24588 0.56796,0.14171 0,0.24131 -0.11066,0.33199 -0.40518,0.33199 -0.22285,0 -0.4446,-0.0638 -0.49277,-0.14173 z m -9.96743,-0.51076 c -0.12275,-0.19863 0.1895,-0.39543 0.41059,-0.2588 0.18565,0.11474 0.0638,0.41331 -0.16869,0.41331 -0.0805,0 -0.18938,-0.0696 -0.2419,-0.15451 z m 6.39924,-0.27495 c -0.008,-0.28185 0.17758,-1.55169 0.41374,-2.82186 0.64049,-3.44486 0.42025,-4.70123 -0.82859,-4.72681 -0.45982,-0.009 -0.47603,-0.0257 -0.15439,-0.15542 0.66314,-0.26739 1.27831,0.0391 1.52118,0.75794 0.18745,0.55476 0.18051,0.91501 -0.0461,2.39585 -0.42529,2.77882 -0.88883,5.1074 -0.90583,4.5503 z m 6.21117,-0.72905 c -0.12407,-0.20076 0.19771,-0.83339 0.42391,-0.83339 0.27336,0 0.3725,0.48482 0.1532,0.74908 -0.23737,0.28599 -0.43465,0.31482 -0.57711,0.0843 z m -11.53855,-1.66335 c 0.0977,-0.18259 0.21502,-0.33199 0.26067,-0.33199 0.0457,0 0.003,0.1494 -0.0947,0.33199 -0.0977,0.18258 -0.21502,0.33198 -0.26067,0.33198 -0.0457,0 -0.003,-0.1494 0.0947,-0.33198 z m 12.0893,0.0825 c -0.0496,-0.0496 -0.056,-0.27005 -0.014,-0.48966 0.0948,-0.49597 0.58161,-0.3763 0.50738,0.12474 -0.05,0.33736 -0.32069,0.53759 -0.49337,0.36492 z m -0.31149,-1.92269 c -0.1019,-0.19041 -0.14368,-0.38779 -0.0928,-0.43863 0.1371,-0.1371 0.59844,0.29165 0.59844,0.55617 0,0.34365 -0.29553,0.27495 -0.50559,-0.11754 z m -1.8183,-3.13316 c 0,-0.0878 -0.16347,-0.31183 -0.36328,-0.49797 -0.29264,-0.27264 -0.31108,-0.33846 -0.0949,-0.33846 0.14764,0 0.38582,0.11738 0.52928,0.26085 0.29211,0.2921 0.34927,0.7351 0.0949,0.7351 -0.0913,0 -0.166,-0.0718 -0.166,-0.15952 z"
         id="path28215"
         sodipodi:nodetypes="ssssssssssssssssssssssssssssssssssssscsssssscssscsssssssssscsssssssssssssssssssssssssssscsssssssssssscsssssssscsssssssssssscsssscssscssssssscsssssssssssscssccssscsssssssssssssccsssssscsssssssscssscsssscscssssssssssccssssssssssssccscsscsssscsssssssssssssssscsssssssssssssssssssssssssssscssccscccsscssscsssssscssssssssscssssssscsssscsssscccssssccsssssssssssssssssssssssccsccssssssssssssssssssssscscscsssssssssssssss" />
      <circle
         style="fill:none;stroke:#ff0000;stroke-width:0.1;stroke-dasharray:none"
         id="path788-8-1-8-1-9-2-6-3-4-7-2"
         cx="-50.72739"
         cy="-153.8653"
         r="19.954653" />
      <ellipse
         style="fill:none;stroke:#ff00ff;stroke-width:0.1;stroke-dasharray:none;stroke-opacity:1"
         id="path1138-9-4-0-0-1-2-0-0-6-8-3"
         cx="-50.72739"
         cy="-153.8653"
         rx="18.492125"
         ry="18.492126" />
      <circle
         style="fill:none;stroke:#0000ff;stroke-width:0.1;stroke-linecap:round;stroke-dasharray:none;stroke-opacity:1;paint-order:markers stroke fill"
         id="path13019-1-33-3-83-70-3-5"
         cx="-50.727394"
         cy="-168.87628"
         r="2" />
    </g>
  </g>
</svg>
