<?xml version="1.0" encoding="UTF-8" standalone="no"?>
<!-- Created with Inkscape (http://www.inkscape.org/) -->

<svg
   width="41.008999mm"
   height="41.008999mm"
   viewBox="0 0 41.008999 41.008999"
   version="1.1"
   id="svg1"
   inkscape:version="1.4.2 (f4327f4, 2025-05-13)"
   sodipodi:docname="177.svg"
   xmlns:inkscape="http://www.inkscape.org/namespaces/inkscape"
   xmlns:sodipodi="http://sodipodi.sourceforge.net/DTD/sodipodi-0.dtd"
   xmlns="http://www.w3.org/2000/svg"
   xmlns:svg="http://www.w3.org/2000/svg">
  <sodipodi:namedview
     id="namedview1"
     pagecolor="#ffffff"
     bordercolor="#000000"
     borderopacity="0.25"
     inkscape:showpageshadow="2"
     inkscape:pageopacity="0.0"
     inkscape:pagecheckerboard="0"
     inkscape:deskcolor="#d1d1d1"
     inkscape:document-units="mm"
     inkscape:zoom="1.5878906"
     inkscape:cx="108.3198"
     inkscape:cy="200.26568"
     inkscape:window-width="1050"
     inkscape:window-height="1081"
     inkscape:window-x="3737"
     inkscape:window-y="0"
     inkscape:window-maximized="0"
     inkscape:current-layer="layer1" />
  <defs
     id="defs1" />
  <g
     inkscape:label="Layer 1"
     inkscape:groupmode="layer"
     id="layer1"
     transform="translate(-0.7937635,-0.79375582)">
    <g
       id="g15669"
       transform="translate(31.273724,175.16355)">
      <path
         style="fill:#000000;stroke-width:0.1;stroke-dasharray:none"
         d="m -11.36605,-137.14134 c -0.0591,-0.0591 -0.10747,-0.44717 -0.10747,-0.86234 0,-0.54016 -0.11173,-0.94541 -0.39261,-1.4248 -0.27577,-0.47058 -0.37474,-0.82304 -0.33257,-1.18436 0.0329,-0.28293 0.005,-0.51443 -0.0608,-0.51443 -0.3331,0 0.14968,-1.9267 0.57025,-2.27574 0.27162,-0.22543 0.27378,-0.0895 0.007,0.43218 -0.11487,0.22443 -0.24975,0.71403 -0.29983,1.08803 l -0.0911,0.67998 0.31147,-0.65575 c 0.1713,-0.36066 0.33514,-0.63211 0.36404,-0.60318 0.0288,0.029 -0.0417,0.45806 -0.15688,0.95365 -0.19615,0.84378 -0.18584,0.99433 0.16203,2.36668 0.23511,0.92751 0.32791,1.58341 0.25276,1.78657 -0.0654,0.17655 -0.16712,0.27264 -0.22625,0.21351 z m 4.27871,-0.54823 c 0.003,-0.187 0.0656,-0.97659 0.14093,-1.75467 0.0777,-0.80278 0.0802,-1.56351 0.005,-1.75873 -0.22998,-0.60486 -1.03432,-1.38841 -2.03968,-1.98694 -0.53743,-0.31996 -0.97833,-0.625 -0.97979,-0.67785 -9e-4,-0.0528 0.23293,-0.20789 0.52085,-0.34452 0.57657,-0.27361 0.98759,-0.76454 0.98759,-1.17962 0,-0.22691 -0.13779,-0.26859 -0.88814,-0.26859 -0.60512,0 -0.94809,0.0722 -1.07625,0.22666 -0.26941,0.32463 -0.50491,0.27965 -0.3954,-0.0756 0.0512,-0.16623 0.13511,-0.43823 0.18635,-0.60444 0.1444,-0.46832 -0.20638,-0.36046 -0.46706,0.1436 -0.27893,0.5394 -0.3025,1.57297 -0.0409,1.79015 0.10433,0.0866 0.35934,0.20001 0.56666,0.25204 0.36862,0.0924 0.37649,0.12435 0.35742,1.44632 -0.0144,1.00305 -0.0871,1.45488 -0.28156,1.75164 -0.18085,0.27603 -0.2381,0.57833 -0.1848,0.97577 0.0795,0.59296 -0.2028,1.24635 -0.40039,0.92663 -0.26909,-0.43539 -0.35332,-1.59606 -0.17019,-2.34535 l 0.19193,-0.78535 0.0333,1.20886 c 0.0302,1.09567 0.0449,1.1494 0.15874,0.57369 0.0691,-0.34935 0.19758,-0.76986 0.28567,-0.93449 0.0881,-0.16462 0.16018,-0.66264 0.16018,-1.10671 0,-0.85182 -0.29658,-1.47907 -0.69935,-1.47907 -0.12587,0 -0.33088,-0.10203 -0.45554,-0.22667 -0.14298,-0.14299 -0.54343,-0.23309 -1.08473,-0.24407 -1.27964,-0.0259 -1.42367,0.008 -1.89961,0.44605 l -0.4371,0.40244 0.10674,-0.37775 c 0.33607,-1.18891 -0.0876,-1.1671 -1.23903,0.0637 -1.2276,1.3123 -1.36489,2.11611 -0.68014,3.98171 0.38563,1.05064 0.1145,0.89039 -0.31689,-0.18734 -0.39118,-0.97717 -0.51058,-2.23165 -0.27019,-2.83907 0.0578,-0.14593 0.55432,-0.72517 1.10348,-1.28718 0.80199,-0.82075 1.01963,-1.14698 1.10592,-1.65777 0.0592,-0.34976 0.25528,-0.85851 0.43598,-1.13055 0.38129,-0.57405 1.47068,-1.17422 2.13361,-1.17544 0.2525,-4.6e-4 0.71951,-0.0732 1.03779,-0.16154 0.68961,-0.19149 0.97149,-0.72596 1.03921,-1.97049 0.0402,-0.73996 0.014,-0.81803 -0.28894,-0.86112 -0.35948,-0.0511 -2.48876,-1.82673 -2.93307,-2.44589 -0.14911,-0.20776 -0.30922,-0.58176 -0.35577,-0.83109 -0.0685,-0.3675 -0.0413,-0.34191 0.14396,0.13523 0.29272,0.75358 0.38148,0.85665 1.74034,2.02065 1.09751,0.94012 1.15549,0.96869 1.8349,0.90449 0.48323,-0.0456 1.06804,-0.28438 1.87916,-0.7671 0.64767,-0.38544 1.19968,-0.67873 1.22667,-0.65174 0.027,0.0269 -0.35863,0.47092 -0.85692,0.98654 -0.49831,0.51561 -1.11428,1.2402 -1.36885,1.6102 -0.25457,0.36999 -0.55422,0.67272 -0.66587,0.67272 -0.11172,0 -0.24538,0.16876 -0.29714,0.37502 -0.10966,0.43714 -0.83853,1.30528 -1.47813,1.76072 -0.41905,0.29839 -0.44343,0.30057 -0.39789,0.0355 0.0409,-0.23747 -0.0638,-0.28963 -0.65809,-0.32798 -0.59713,-0.0385 -0.78043,0.0203 -1.18291,0.37995 -0.39915,0.35665 -0.45896,0.49452 -0.36938,0.85143 0.0835,0.33262 0.17358,0.40845 0.41135,0.34627 0.22853,-0.0597 0.26135,-0.0365 0.13158,0.0933 -0.34286,0.34286 -0.1522,0.41465 1.10137,0.41465 1.16376,0 1.28301,-0.0276 1.37545,-0.31892 0.0557,-0.1754 0.32269,-0.5664 0.59337,-0.86887 0.27178,-0.3037 0.5382,-0.8017 0.59496,-1.11217 0.13038,-0.71299 0.71244,-1.41012 1.35427,-1.62194 0.39772,-0.13126 0.5261,-0.27748 0.63726,-0.72588 0.10323,-0.41636 0.32651,-0.69875 0.86376,-1.09235 0.67272,-0.49285 0.72231,-0.5741 0.69279,-1.13528 -0.0212,-0.40253 0.0782,-0.78108 0.2978,-1.1333 0.59778,-0.95922 0.77258,-1.82286 0.60166,-2.97282 -0.0844,-0.56734 -0.18382,-1.25052 -0.22111,-1.51818 -0.0698,-0.50154 -0.71267,-1.40221 -1.00076,-1.40221 -0.0895,0 -0.5875,-0.40797 -1.10681,-0.90663 -0.8609,-0.82669 -1.42365,-1.12922 -1.42365,-0.76538 0,0.3025 0.33791,1.00963 0.65227,1.36499 l 0.32992,0.37295 -0.52061,-0.38594 c -0.32483,-0.2408 -0.60027,-0.62489 -0.7324,-1.02127 -0.11643,-0.34942 -0.36874,-0.73817 -0.56059,-0.86387 -0.31067,-0.20356 -0.40829,-0.20373 -0.89202,-9e-4 -0.70844,0.29602 -0.69565,0.53605 0.0236,0.4407 0.47582,-0.0631 0.62721,-0.01 0.94442,0.3358 l 0.37778,0.41098 -0.46795,-0.23781 c -0.50705,-0.25765 -1.03678,-0.19645 -1.45867,0.16853 -0.245,0.21194 -0.26443,0.19024 -0.26443,-0.29503 0,-0.99231 1.21435,-1.66451 2.03529,-1.12661 0.20448,0.13398 0.47214,0.24361 0.59479,0.24361 0.12265,0 0.75403,0.36238 1.40305,0.80531 1.32811,0.90635 1.92907,1.15478 2.82702,1.16867 0.54479,0.008 0.57649,0.0269 0.26242,0.15261 -0.30331,0.12144 -0.32764,0.17869 -0.16122,0.37924 0.29749,0.35846 1.33235,0.84249 1.68843,0.78974 0.20333,-0.0301 0.38334,-0.23498 0.50579,-0.57564 0.10456,-0.29087 0.19527,-0.4143 0.20159,-0.27428 0.005,0.14003 -0.0652,0.44602 -0.15893,0.67999 -0.27959,0.69781 -0.26656,1.41827 0.0474,2.61644 0.22128,0.84472 0.26942,1.34495 0.18905,1.9644 -0.0592,0.45709 -0.11862,1.17108 -0.13174,1.58664 -0.0131,0.41553 -0.1676,1.06152 -0.34324,1.43552 -0.17564,0.37398 -0.35177,1.00879 -0.39138,1.41067 -0.0553,0.56026 -0.18482,0.84707 -0.55558,1.2296 -0.31011,0.31995 -0.42346,0.53606 -0.31598,0.6025 0.42013,0.25964 1.4439,1.8802 1.69258,2.67922 0.31755,1.02027 0.55361,3.50938 0.29822,3.14445 -0.0873,-0.12466 -0.30122,-0.85109 -0.4755,-1.61428 -0.37954,-1.66216 -0.58493,-1.91297 -1.0415,-1.27178 -0.55026,0.77278 -0.7704,1.48802 -0.90905,2.95357 -0.0736,0.77876 -0.21664,1.5704 -0.31768,1.7592 -0.17727,0.33124 -0.19098,0.33332 -0.39105,0.0597 -0.28176,-0.38534 -0.39767,-0.22077 -0.87983,1.24905 -0.42358,1.2913 -0.53812,1.48681 -0.53113,0.90665 z m 0.75145,-8.17452 c 0.62333,-0.13461 1.4704,-0.29699 1.88238,-0.36084 l 0.74908,-0.11608 -0.6298,-0.49883 -0.62985,-0.49884 -0.69833,0.2371 c -0.3841,0.1304 -0.9143,0.457 -1.17823,0.72577 -0.26394,0.26877 -0.61533,0.57692 -0.78088,0.6848 -0.16556,0.10783 -0.19901,0.16811 -0.0744,0.1339 0.12466,-0.0342 0.73666,-0.17237 1.35997,-0.30696 z m -1.35997,-0.44778 c 0.25835,-0.1324 0.37632,-0.31717 0.3732,-0.58448 -0.004,-0.3621 0.0549,-0.39704 0.80374,-0.47432 0.44458,-0.0458 0.90564,-0.16418 1.02455,-0.26288 0.26639,-0.22107 0.28436,-0.84532 0.0274,-0.94902 -0.10384,-0.0419 -0.0582,-0.0816 0.10141,-0.0881 0.15968,-0.005 0.41467,0.10057 0.56666,0.23815 0.25757,0.23312 0.29684,0.23153 0.57854,-0.0233 0.39923,-0.36127 0.39207,-1.05324 -0.0139,-1.33754 l -0.31607,-0.22138 0.30308,-0.30308 c 0.69877,-0.69878 -0.41133,-2.66158 -1.33885,-2.36719 -0.34981,0.11099 -0.36515,0.42152 -0.0798,1.61512 0.15243,0.63764 0.16084,0.87828 0.0324,0.92641 -0.0955,0.0357 0.0305,0.14219 0.27982,0.23653 1.05783,0.40021 1.06852,0.4293 0.1511,0.41123 -0.81186,-0.016 -0.90665,0.0137 -0.90665,0.28436 0,0.39902 -0.19407,0.52378 -0.81918,0.52658 -0.51858,0.003 -1.06966,0.35087 -1.06966,0.67654 0,0.0957 0.18699,0.2503 0.41555,0.34346 0.38114,0.15535 0.35299,0.16714 -0.34,0.14249 -0.5912,-0.021 -0.74174,-0.0762 -0.69218,-0.25354 0.0349,-0.12466 0.0934,-0.4857 0.13008,-0.80234 l 0.0666,-0.57567 -0.58339,0.24357 c -0.73765,0.30796 -0.76542,0.33955 -0.88875,1.01086 -0.0964,0.5252 -0.0823,0.55215 0.25269,0.4807 0.30711,-0.0655 0.31954,-0.0531 0.0924,0.0922 -0.42568,0.27231 -0.61919,0.74301 -0.40937,0.99579 0.22892,0.27583 1.73272,0.28845 2.25858,0.0189 z m 1.00664,-2.73012 c 0.0135,-0.01 0.1122,-0.44422 0.21949,-0.96462 0.17248,-0.83674 0.1669,-0.97437 -0.0482,-1.18954 -0.22371,-0.22371 -0.2944,-0.19568 -0.87664,0.34739 -0.52895,0.49342 -0.64674,0.71013 -0.71495,1.3153 l -0.0816,0.72454 0.73881,-0.10735 c 0.40636,-0.059 0.74981,-0.1156 0.76325,-0.12575 z m 3.20529,-3.23158 c 0.19138,-0.35758 0.0571,-2.16754 -0.24234,-3.26507 l -0.24204,-0.88725 -0.28401,0.55361 c -0.15621,0.30449 -0.4423,0.6138 -0.63576,0.68734 -0.45699,0.17376 -0.6389,0.85507 -0.32185,1.20543 0.1287,0.14221 0.23401,0.33355 0.23401,0.42523 0,0.18957 1.0764,1.52293 1.24132,1.53765 0.0594,0.005 0.17221,-0.11027 0.25067,-0.25694 z m 0.43777,-2.32818 c -0.0674,-0.902 -0.34849,-1.90794 -0.49292,-1.76351 -0.0361,0.0363 0.0385,0.40261 0.16592,0.81427 0.14504,0.46852 0.20098,1.02676 0.14958,1.49246 -0.0595,0.53897 -0.0366,0.69837 0.0833,0.57852 0.10143,-0.10142 0.13785,-0.53558 0.0941,-1.12174 z m -1.45073,-1.18648 c 0.15643,-0.20973 0.31823,-0.65172 0.35959,-0.98221 0.0665,-0.53126 0.0546,-0.56141 -0.10299,-0.2601 l -0.17812,0.34078 -0.16544,-0.32886 c -0.30051,-0.59732 -0.48144,-0.45339 -0.64534,0.51331 -0.0883,0.521 -0.12916,1.00204 -0.0908,1.06897 0.12332,0.21469 0.53013,0.0407 0.82297,-0.35189 z m -7.01444,3.46689 c -0.43449,-0.25306 -0.30524,-0.40078 0.44979,-0.51399 0.83671,-0.12549 1.90471,-0.63055 1.77547,-0.83966 -0.0494,-0.0799 -0.0178,-0.14531 0.0702,-0.14531 0.0879,0 0.16002,0.10202 0.16002,0.22666 0,0.12468 -0.0684,0.22666 -0.1521,0.22666 -0.0837,0 -0.30465,0.17649 -0.49111,0.39217 -0.36208,0.4189 -1.029,0.81964 -1.35146,0.8121 -0.10797,-0.003 -0.31539,-0.0739 -0.46083,-0.15863 z m 1.25414,-0.36953 c 0.24521,-0.1268 0.44583,-0.26519 0.44583,-0.30754 0,-0.0424 -0.14904,0.003 -0.33117,0.10021 -0.18215,0.0974 -0.50514,0.23001 -0.71776,0.29454 -0.25709,0.078 -0.2955,0.12166 -0.11463,0.13028 0.14957,0.007 0.47256,-0.0908 0.71776,-0.21754 z m -1.42302,-0.64372 c -0.0404,-0.0654 0.0406,-0.12671 0.17998,-0.13645 0.13934,-0.01 0.42335,-0.0626 0.63112,-0.11742 l 0.37777,-0.0997 -0.37777,0.23077 c -0.42237,0.25802 -0.70139,0.30026 -0.8111,0.12277 z m -2.51096,-1.87997 c -9e-4,-0.14353 -0.16897,-0.37016 -0.37266,-0.50361 -0.20369,-0.13347 -0.51185,-0.53495 -0.68479,-0.8922 -0.26417,-0.5457 -0.29099,-0.75373 -0.16792,-1.30153 0.15927,-0.70889 0.11329,-0.89496 -0.22138,-0.89496 -0.11971,0 -0.21775,-0.12926 -0.21775,-0.28728 0,-0.25791 0.30876,-0.51419 1.42623,-1.18379 0.21358,-0.12796 0.24026,-0.18649 0.0848,-0.18613 -0.12468,2.9e-4 -0.52813,0.20479 -0.8966,0.45445 -0.71699,0.48581 -0.96165,0.50447 -1.04401,0.0797 -0.10905,-0.56243 0.16283,-1.31019 0.87043,-2.39413 0.40375,-0.61848 0.77954,-1.26767 0.83507,-1.44262 0.17797,-0.56077 1.43439,-1.5265 2.3215,-1.78439 1.25153,-0.36383 3.32513,-0.23417 4.43621,0.27739 0.92179,0.42443 1.41811,0.99509 1.29035,1.48365 -0.0602,0.23028 0.0372,0.36523 0.39799,0.551 0.82198,0.4233 1.43318,0.9598 1.92403,1.68883 l 0.47363,0.70347 -0.0625,-0.58205 c -0.0561,-0.52233 -0.0412,-0.55335 0.14512,-0.30221 0.12821,0.17274 0.1729,0.45331 0.11681,0.73315 -0.0499,0.24933 -0.11584,0.64521 -0.14639,0.87977 -0.0619,0.47544 -0.23517,0.74233 -0.23517,0.36214 0,-0.20769 -0.0702,-0.21948 -0.47261,-0.0793 -0.70339,0.24521 -1.79252,-0.0616 -3.34167,-0.94135 -0.72657,-0.4126 -1.38553,-0.75019 -1.46439,-0.75019 -0.0789,0 -0.18756,-0.0715 -0.24156,-0.15887 -0.10722,-0.17344 0.34959,0.008 1.96919,0.78202 0.85177,0.40709 1.28554,0.51644 2.22746,0.56156 0.97554,0.0468 1.18541,0.0151 1.26425,-0.19031 0.19675,-0.51273 -1.18493,-2.04402 -2.43395,-2.6975 -2.51264,-1.31458 -2.5241,-1.31906 -3.38035,-1.31848 -0.94216,5.7e-4 -1.68421,0.34762 -2.00114,0.93576 -0.10312,0.19144 -0.26581,0.75607 -0.36141,1.25473 l -0.17383,0.90665 -0.12206,-0.89354 c -0.22323,-1.63412 0.28525,-2.20518 2.06525,-2.31942 1.19822,-0.077 2.85755,0.24955 3.29895,0.649 0.56296,0.50948 0.60454,0.12891 0.0571,-0.5218 -0.59572,-0.70794 -2.12394,-1.12463 -3.81305,-1.03967 -1.46934,0.0739 -2.04934,0.30123 -2.93589,1.15059 -0.46608,0.44653 -0.56666,0.64803 -0.56666,1.13516 0,0.48477 -0.0376,0.56103 -0.20731,0.42021 -0.16459,-0.1366 -0.24614,-0.0782 -0.39574,0.28281 -0.16018,0.38672 -0.14983,0.51377 0.0691,0.84782 0.17905,0.27326 0.3485,0.36912 0.55636,0.31474 0.21494,-0.0562 0.47563,0.10966 0.92785,0.59018 0.3459,0.36758 0.72919,0.66832 0.85177,0.66832 0.16217,0 0.17757,0.0453 0.0566,0.16633 -0.12104,0.12104 -0.3151,0.11256 -0.71257,-0.0312 -0.49995,-0.18078 -0.57346,-0.17032 -0.86708,0.12329 -0.21252,0.2125 -0.34574,0.58014 -0.39463,1.08897 -0.073,0.7585 -0.0684,0.76815 0.35025,0.76815 0.59667,0 1.42769,0.32551 1.42769,0.55923 0,0.24756 -0.12965,0.24105 -0.60443,-0.0303 -0.76186,-0.43551 -1.56803,-0.13093 -0.96472,0.36446 0.16073,0.13199 0.26853,0.35918 0.23953,0.50488 -0.0573,0.28784 0.0446,0.34089 0.94272,0.49108 0.53109,0.0888 0.57391,0.0738 0.39703,-0.13934 -0.11644,-0.14034 -0.13312,-0.23888 -0.0404,-0.23888 0.18865,0 0.55584,1.03585 0.41656,1.17511 -0.0534,0.0535 -0.45118,0.0998 -0.88392,0.10324 -0.43275,0.004 -0.83678,0.074 -0.89784,0.15719 -0.0629,0.0857 -0.11207,0.0379 -0.11329,-0.10989 z m 0.97989,-0.26792 c -0.0514,-0.0832 -0.0271,-0.15111 0.054,-0.15111 0.0811,0 0.18017,0.085 0.22017,0.18889 0.0401,0.10383 0.0662,0.0489 0.0582,-0.12225 -0.0109,-0.241 -0.12703,-0.3187 -0.51346,-0.34473 -0.35024,-0.0236 -0.49891,0.0317 -0.49891,0.1852 0,0.22063 0.21117,0.3612 0.57558,0.38317 0.1088,0.005 0.15577,-0.0561 0.10444,-0.13917 z m 3.2488,-0.59601 c 0,-0.4654 1.50803,-1.35871 2.3044,-1.36508 0.53655,-0.005 0.52619,0.22541 -0.0338,0.74848 -0.55045,0.5142 -1.04781,0.66925 -1.16524,0.36327 -0.0468,-0.1218 -0.0426,-0.26386 0.01,-0.31568 0.0519,-0.0518 0.0952,0.0362 0.0966,0.19542 9e-4,0.2423 0.0262,0.25258 0.14878,0.063 0.17056,-0.26392 0.20368,-0.75784 0.0355,-0.5289 -0.0611,0.0832 -0.247,0.17161 -0.41322,0.19666 -0.16622,0.025 -0.45521,0.21583 -0.64222,0.42397 -0.18698,0.20814 -0.33998,0.30665 -0.33998,0.2189 z m 2.26662,-0.76397 c 0,-0.0832 -0.0719,-0.1511 -0.16002,-0.1511 -0.088,0 -0.11801,0.068 -0.0666,0.1511 0.0514,0.0832 0.12336,0.15112 0.16,0.15112 0.0367,0 0.0666,-0.068 0.0666,-0.15112 z m -2.40814,0.12812 c -0.007,-0.31749 0.0892,-0.43524 0.4663,-0.56665 0.67923,-0.23678 0.90092,-0.19421 0.31488,0.0604 -0.27153,0.11801 -0.55622,0.37033 -0.63265,0.56074 -0.13709,0.34157 -0.13908,0.34083 -0.14853,-0.0545 z m -0.91622,-0.78291 c 0,-0.11086 0.0849,-0.20155 0.18889,-0.20162 0.10384,-9e-5 0.64179,-0.15092 1.19534,-0.33522 0.79506,-0.26471 1.11245,-0.30455 1.51107,-0.18978 l 0.50463,0.14531 -0.56235,0.0137 c -0.3093,0.007 -0.94674,0.18363 -1.41656,0.3914 -0.95114,0.42064 -1.42102,0.47895 -1.42102,0.17631 z m -2.34801,-4.55681 c -0.36998,-0.75621 -0.39668,-0.90977 -0.24577,-1.41347 0.17686,-0.59029 0.79247,-1.26751 1.30936,-1.4404 0.19283,-0.0646 0.10178,0.0779 -0.2516,0.39339 -0.95622,0.85375 -1.11419,1.5612 -0.58176,2.60551 0.16495,0.32355 0.27402,0.61417 0.24238,0.64583 -0.0316,0.0316 -0.24432,-0.32425 -0.47261,-0.79086 z m 6.57903,-0.13517 c -1.80325,-1.20391 -2.35975,-1.39978 -3.26055,-1.14756 -0.36617,0.1025 -0.83632,0.34446 -1.04477,0.53765 -0.39846,0.36929 -0.49981,0.31032 -0.18267,-0.10626 0.33734,-0.44311 1.22907,-0.88686 1.78331,-0.88744 0.61394,-5.7e-4 1.57902,0.46971 2.74533,1.33799 0.93919,0.69919 1.46366,0.98518 1.58469,0.86415 0.0486,-0.0486 -0.0763,-0.26908 -0.27739,-0.48994 -0.20115,-0.22083 -0.26376,-0.34622 -0.1391,-0.27861 0.45956,0.24919 0.75553,0.58446 0.75553,0.85588 0,0.47656 -0.46813,0.3131 -1.96438,-0.68586 z"
         id="path28215-8"
         sodipodi:nodetypes="sssssssscsssssscscscsssssssssssssscsssssssscsssssssssssssssssscsssssssssssssssssssssssssscssscsscssssssssssssssssssssssssssssccsscccsssssccssssssscsssscsssssssscssscscccsssscsccsscsssscsscssssssscssssssssssscssscsssssscssssssssssssssssssscssssssssssssscsscsssssssssssssscsssscsssssscssssssssssssscssscsssssssssssssssssssssccsssssssssssssscssssss" />
      <circle
         style="fill:none;stroke:#ff0000;stroke-width:0.1;stroke-dasharray:none"
         id="path788-8-1-8-1-9-2-9-3-7-1-2-4"
         cx="-9.975461"
         cy="-153.8653"
         r="19.954653" />
      <ellipse
         style="fill:none;stroke:#ff00ff;stroke-width:0.1;stroke-dasharray:none;stroke-opacity:1"
         id="path1138-9-4-0-0-1-2-25-0-9-29-6-26"
         cx="-9.975461"
         cy="-153.8653"
         rx="18.492125"
         ry="18.492126" />
      <circle
         style="fill:none;stroke:#0000fd;stroke-width:0.1;stroke-linecap:round;stroke-dasharray:none;stroke-opacity:1;paint-order:markers stroke fill"
         id="path13019-1-33-5-7-7-4-6-0"
         cx="-9.9754648"
         cy="-168.87628"
         r="2" />
    </g>
  </g>
</svg>
