<?xml version="1.0" encoding="UTF-8" standalone="no"?>
<!-- Created with Inkscape (http://www.inkscape.org/) -->

<svg
   width="38mm"
   height="37.866001mm"
   viewBox="0 0 38 37.866002"
   version="1.1"
   id="svg1"
   inkscape:version="1.4.2 (f4327f4, 2025-05-13)"
   sodipodi:docname="190.svg"
   xmlns:inkscape="http://www.inkscape.org/namespaces/inkscape"
   xmlns:sodipodi="http://sodipodi.sourceforge.net/DTD/sodipodi-0.dtd"
   xmlns="http://www.w3.org/2000/svg"
   xmlns:svg="http://www.w3.org/2000/svg">
  <sodipodi:namedview
     id="namedview1"
     pagecolor="#ffffff"
     bordercolor="#000000"
     borderopacity="0.25"
     inkscape:showpageshadow="2"
     inkscape:pageopacity="0.0"
     inkscape:pagecheckerboard="0"
     inkscape:deskcolor="#d1d1d1"
     inkscape:document-units="mm"
     inkscape:zoom="2.0485264"
     inkscape:cx="65.901029"
     inkscape:cy="127.40866"
     inkscape:window-width="1050"
     inkscape:window-height="1081"
     inkscape:window-x="3737"
     inkscape:window-y="0"
     inkscape:window-maximized="0"
     inkscape:current-layer="layer1" />
  <defs
     id="defs1" />
  <g
     inkscape:label="Layer 1"
     inkscape:groupmode="layer"
     id="layer1"
     transform="translate(-115.09375,-78.845832)">
    <path
       style="fill:#000000;stroke-width:0.123332;stroke-dasharray:none"
       d="m 133.0871,116.18584 c -2.24639,-0.1333 -4.47862,-0.66338 -6.39202,-1.51791 -3.0097,-1.34414 -5.49271,-3.31554 -7.43422,-5.90246 -0.82022,-1.0929 -1.50951,-2.263 -2.11013,-3.58204 -0.22745,-0.49952 -0.65499,-1.66281 -0.82084,-2.23335 -0.30972,-1.06559 -0.48607,-1.91775 -0.61445,-2.969043 -0.0148,-0.121483 -0.0333,-0.270533 -0.0411,-0.331263 -0.10915,-0.85587 -0.10742,-2.86878 0.004,-3.79103 0.0698,-0.58156 0.0996,-0.79611 0.16132,-1.15891 0.43926,-2.58652 1.38518,-4.95124 2.86202,-7.15478 1.19383,-1.78129 2.61007,-3.26844 4.34678,-4.56448 2.62683,-1.96029 5.80752,-3.20776 9.04551,-3.54763 0.75827,-0.0795 0.9336,-0.0873 1.98755,-0.087 1.04755,2.7e-4 1.26586,0.01 1.96299,0.0862 2.54434,0.2786 4.875,1.01974 7.07907,2.25112 1.13076,0.63175 2.18298,1.37457 3.1952,2.25566 0.34948,0.3042 1.31459,1.25849 1.60395,1.58593 2.37634,2.68924 3.88248,5.8425 4.44954,9.31562 0.0846,0.51829 0.1337,0.93745 0.18674,1.59495 0.0628,0.7773 0.0369,2.56087 -0.0465,3.21441 -0.007,0.0607 -0.0263,0.2098 -0.0411,0.331253 -0.19376,1.586763 -0.5747,3.067733 -1.17723,4.576683 -0.22426,0.56164 -0.24693,0.6121 -0.57861,1.28778 -0.38917,0.79283 -0.69158,1.31748 -1.19377,2.0711 -1.20805,1.81291 -2.68648,3.3641 -4.46216,4.68175 -0.28895,0.21443 -1.10064,0.75596 -1.43312,0.95615 -1.72903,1.04105 -3.6345,1.79948 -5.59455,2.2268 -0.5255,0.11457 -0.77081,0.15835 -1.37409,0.24525 -1.14567,0.165 -2.47458,0.2243 -3.57021,0.15929 z m 2.17157,-0.54973 c 0.2969,-0.0201 0.58399,-0.0421 0.63797,-0.0487 0.054,-0.006 0.2417,-0.0297 0.41714,-0.0512 2.44221,-0.29839 4.89323,-1.14632 7.01772,-2.42781 4.65162,-2.8058 7.79935,-7.5194 8.56159,-12.82062 0.1266,-0.880486 0.16993,-1.530536 0.16925,-2.539636 -6.5e-4,-0.94622 -0.0355,-1.50896 -0.14473,-2.33105 -0.60685,-4.57049 -2.96583,-8.71425 -6.62311,-11.63417 -0.67483,-0.53877 -1.2291,-0.92148 -2.07342,-1.43164 -1.33063,-0.804 -3.10949,-1.53575 -4.7112,-1.93797 -3.58401,-0.90004 -7.28578,-0.69762 -10.72981,0.58675 -0.73769,0.2751 -1.85487,0.78885 -2.34362,1.07773 -0.0714,0.0422 -0.13444,0.0768 -0.13999,0.0768 -0.0297,0 -0.82014,0.48925 -1.20235,0.74418 -2.20272,1.46914 -4.04883,3.40659 -5.44001,5.70918 -0.51558,0.85336 -1.05398,1.96605 -1.40142,2.89624 -0.5911,1.58254 -0.92603,3.07753 -1.08281,4.83307 -0.0613,0.68676 -0.0665,1.86195 -0.0111,2.65004 0.21724,3.117286 1.2209,6.045386 2.9719,8.670146 0.42998,0.64456 1.09893,1.50955 1.53954,1.99077 0.34617,0.37806 0.45749,0.49497 0.73675,0.77367 2.39407,2.38933 5.45612,4.0819 8.69926,4.80858 1.00438,0.22504 1.94761,0.36121 2.82239,0.40744 0.17512,0.009 0.323,0.0208 0.32862,0.0259 0.0282,0.0249 1.53121,0.004 2.00186,-0.0276 z m -0.53693,-1.23005 c -0.009,-0.0523 -0.0262,-0.23315 -0.0401,-0.40184 -0.0365,-0.44188 -0.16725,-1.97524 -0.19648,-2.30405 -0.0137,-0.15384 -0.022,-0.28171 -0.0184,-0.28417 0.004,-0.002 0.1722,-0.0179 0.37463,-0.0344 0.20243,-0.0165 0.62754,-0.0527 0.94469,-0.0805 0.62578,-0.0549 0.98118,-0.0506 1.19377,0.0148 0.3305,0.1015 0.50881,0.33275 0.51064,0.66227 0.001,0.29377 -0.0985,0.46815 -0.35061,0.61044 l -0.10619,0.0599 0.0872,0.0164 c 0.20872,0.0391 0.46844,0.21787 0.54205,0.37299 0.0662,0.13969 0.0645,0.50412 -0.002,0.65041 -0.13959,0.30188 -0.46071,0.51771 -0.8677,0.58318 -0.2591,0.0417 -0.32222,0.0491 -1.07965,0.12575 -0.39813,0.0403 -0.78062,0.0802 -0.85001,0.0887 l -0.12613,0.0154 z m 1.50616,-0.67394 c 0.27462,-0.0315 0.44428,-0.0817 0.50847,-0.1504 0.16294,-0.17454 0.0591,-0.48548 -0.17381,-0.5204 -0.089,-0.0133 -1.04152,0.0466 -1.06177,0.0668 -0.004,0.004 0.004,0.11137 0.0158,0.23983 0.0123,0.12843 0.0249,0.27555 0.0284,0.32695 l 0.006,0.0935 0.23405,-0.0162 c 0.12874,-0.009 0.32792,-0.027 0.44263,-0.0401 z m -0.20857,-1.24887 c 0.47154,-0.0373 0.60151,-0.0995 0.60083,-0.28755 -5.6e-4,-0.14893 -0.0222,-0.19341 -0.12149,-0.24922 -0.11445,-0.0644 -0.30012,-0.0683 -0.72375,-0.0155 -0.16143,0.0201 -0.30926,0.0366 -0.3285,0.0366 -0.0287,0 -0.0319,0.034 -0.0181,0.19016 0.009,0.10459 0.0233,0.23218 0.0313,0.28353 l 0.0144,0.0934 0.12548,-0.0141 c 0.0691,-0.007 0.25798,-0.0246 0.41992,-0.0374 z m -4.2818,1.77752 c -0.22267,-0.0312 -0.41114,-0.0575 -0.41882,-0.0585 -0.007,-9.7e-4 -0.005,-0.0763 0.006,-0.16741 0.0111,-0.0911 0.0644,-0.53001 0.11828,-0.97536 0.054,-0.44537 0.11051,-0.9123 0.12575,-1.03766 0.0152,-0.12535 0.0207,-0.23488 0.0123,-0.24342 -0.0128,-0.0128 -0.57196,-0.10273 -1.05171,-0.16907 -0.10249,-0.0142 -0.11483,-0.0223 -0.10447,-0.0682 0.006,-0.0286 0.0274,-0.16054 0.0464,-0.29308 0.019,-0.13255 0.0412,-0.24752 0.0491,-0.25547 0.0123,-0.0123 1.15109,0.13144 2.46847,0.31129 0.1822,0.0249 0.43892,0.0593 0.5705,0.0766 0.23478,0.0308 0.23924,0.0327 0.23924,0.0967 0,0.0703 -0.0677,0.54288 -0.079,0.55136 -0.004,0.002 -0.27032,-0.0277 -0.59236,-0.0678 -0.46041,-0.0573 -0.58956,-0.0665 -0.60447,-0.0423 -0.01,0.0169 -0.0262,0.0983 -0.0349,0.18103 -0.016,0.15097 -0.12308,1.04212 -0.21199,1.76413 -0.0263,0.2128 -0.0476,0.40326 -0.0476,0.42326 0,0.0438 0.0132,0.0445 -0.49075,-0.026 z m 7.07602,-0.59538 c 0.009,-0.14429 0.0266,-0.44729 0.0401,-0.67335 0.0133,-0.22604 0.0354,-0.59319 0.0488,-0.81587 0.0134,-0.22267 0.0355,-0.58982 0.0488,-0.81586 0.0134,-0.22606 0.0315,-0.51677 0.04,-0.64602 l 0.0157,-0.235 0.4736,-0.23642 0.47359,-0.23643 0.81755,0.64145 c 0.44964,0.3528 1.0651,0.83586 1.36767,1.07345 0.30257,0.23758 0.55101,0.44204 0.55208,0.45436 0.001,0.0123 -0.0863,0.0739 -0.19433,0.13668 -0.10792,0.0629 -0.29408,0.17127 -0.41359,0.24092 l -0.21729,0.12665 -0.29275,-0.24806 -0.29275,-0.24807 -0.10335,0.0413 c -0.12659,0.0506 -1.37781,0.5838 -1.47069,0.62671 l -0.0667,0.0308 -0.007,0.3215 -0.007,0.32149 -0.36806,0.18773 c -0.20244,0.10323 -0.38887,0.19369 -0.41428,0.20099 -0.0439,0.0126 -0.0454,0 -0.0305,-0.24907 z m 1.41715,-1.71426 c 0.40522,-0.1677 0.50747,-0.21895 0.48247,-0.24192 -0.0175,-0.016 -0.10347,-0.0935 -0.19121,-0.172 -0.0877,-0.0786 -0.25953,-0.23423 -0.38179,-0.34591 -0.24964,-0.22803 -0.35317,-0.31315 -0.36487,-0.3 -0.005,0.005 -0.0206,0.21871 -0.0361,0.47513 -0.0155,0.25642 -0.035,0.54076 -0.0434,0.63185 -0.009,0.0911 -0.007,0.16562 0.002,0.16562 0.01,0 0.24932,-0.0957 0.53213,-0.21277 z m -12.08791,1.38 c -0.49584,-0.0807 -1.12344,-0.39008 -1.44659,-0.71323 -0.2218,-0.2218 -0.41594,-0.56898 -0.46529,-0.83212 -0.0828,-0.44132 0.1036,-1.03396 0.44468,-1.41366 0.15337,-0.17076 0.3545,-0.29882 0.60368,-0.38438 0.18004,-0.0618 0.23428,-0.0691 0.52,-0.0691 0.3656,0 0.48374,0.0301 0.91075,0.23234 0.8114,0.38421 1.21174,0.90807 1.21174,1.58561 0,0.34853 -0.10927,0.67069 -0.34595,1.01956 -0.29918,0.44105 -0.86364,0.66751 -1.43302,0.5749 z m 0.22084,-0.76837 c 0.31418,-0.11026 0.62571,-0.62019 0.62571,-1.02417 0,-0.30556 -0.1179,-0.53151 -0.36875,-0.70676 -0.28584,-0.19972 -0.70071,-0.24725 -0.93899,-0.10755 -0.2126,0.1246 -0.41376,0.42606 -0.51759,0.77569 -0.1142,0.38461 0.0586,0.76938 0.43172,0.96151 0.27672,0.14247 0.54853,0.17834 0.7679,0.10138 z m 14.77157,-1.82616 c -0.28341,-0.35214 -0.703,-0.87172 -0.93242,-1.15462 -0.22942,-0.2829 -0.43173,-0.53456 -0.44955,-0.55927 -0.0295,-0.0408 -2.8e-4,-0.0705 0.32396,-0.32897 0.196,-0.15624 0.36662,-0.28407 0.37916,-0.28407 0.0126,0 0.0538,0.0414 0.0915,0.092 0.0377,0.0506 0.23007,0.2963 0.42726,0.54596 0.1972,0.24967 0.50003,0.6331 0.67294,0.85208 l 0.31441,0.39811 0.32249,-0.26215 c 0.17736,-0.1442 0.46976,-0.38316 0.64976,-0.53102 0.18002,-0.14788 0.3346,-0.25801 0.34353,-0.24475 0.0556,0.0826 0.26913,0.35266 0.33188,0.41979 0.0648,0.0692 0.0699,0.0844 0.0391,0.11285 -0.0196,0.0181 -0.37801,0.30742 -0.79637,0.64296 -0.41836,0.33555 -0.85249,0.68505 -0.96472,0.77665 -0.11223,0.0916 -0.21161,0.16614 -0.22084,0.16563 -0.009,-5.5e-4 -0.24865,-0.28903 -0.53207,-0.64118 z m -18.47357,-0.68494 c -0.30867,-0.25531 -0.56918,-0.46419 -0.57892,-0.46419 -0.01,0 -0.18002,0.19905 -0.37838,0.44235 -0.32399,0.39737 -0.36511,0.43916 -0.40441,0.41101 -0.18709,-0.13403 -0.71442,-0.57251 -0.70879,-0.58938 0.004,-0.0111 0.45279,-0.55643 0.99761,-1.2107 0.8805,-1.0574 0.99497,-1.18583 1.03015,-1.15588 0.0218,0.0185 0.40948,0.33563 0.86159,0.70467 0.4521,0.36904 0.88518,0.72494 0.9624,0.7909 l 0.14039,0.11988 -0.18734,0.21799 c -0.10311,0.11987 -0.19642,0.21236 -0.2075,0.20552 -0.0111,-0.007 -0.28787,-0.22722 -0.61508,-0.48972 -0.3272,-0.2625 -0.60178,-0.47727 -0.61016,-0.47727 -0.0221,0 -0.47648,0.51172 -0.47648,0.53662 0,0.0192 0.2623,0.24143 0.8758,0.74179 0.13082,0.10668 0.24478,0.20522 0.25327,0.21894 0.0179,0.029 -0.32861,0.46664 -0.36712,0.46364 -0.0142,-0.001 -0.27837,-0.21091 -0.58703,-0.46622 z m 8.71992,-0.2677 c -2.65497,-0.16469 -5.1296,-1.1676 -7.15456,-2.89959 -0.37481,-0.32058 -0.98632,-0.9321 -1.3069,-1.30689 -0.77587,-0.90711 -1.37286,-1.85053 -1.88777,-2.9832 -0.41023,-0.90238 -0.75961,-2.12161 -0.90024,-3.141426 -0.15446,-1.12028 -0.15052,-2.35555 0.0111,-3.44893 0.30805,-2.0852 1.15198,-4.01797 2.49373,-5.7112 1.60743,-2.02851 3.91462,-3.52914 6.41367,-4.17157 1.01067,-0.25981 1.79878,-0.36134 2.89543,-0.37298 0.99609,-0.0111 1.61724,0.0448 2.51675,0.22411 4.38116,0.87367 7.95544,4.1306 9.22063,8.40193 0.33905,1.14466 0.48669,2.20053 0.47997,3.43244 -0.005,0.87617 -0.0507,1.38342 -0.1962,2.166813 -0.51694,2.783673 -2.0629,5.352433 -4.30411,7.151723 -1.68576,1.35336 -3.69593,2.23493 -5.80663,2.54652 -0.72107,0.10644 -1.78806,0.15485 -2.47477,0.11224 z m 1.15326,-0.33194 c 2.52154,-0.11457 5.15658,-1.18242 7.17722,-2.90862 0.35378,-0.30222 1.02195,-0.96799 1.32841,-1.3236 1.65204,-1.9171 2.62815,-4.28975 2.7849,-6.769326 0.0874,-1.38373 -0.10286,-2.86116 -0.54006,-4.19266 -0.32863,-1.00077 -0.95111,-2.24466 -1.50736,-3.01213 -0.48443,-0.66834 -0.77671,-1.01779 -1.27948,-1.52967 -1.21351,-1.2355 -2.62326,-2.17748 -4.18486,-2.79626 -0.9735,-0.38574 -1.67973,-0.57358 -2.83407,-0.75379 -0.19717,-0.0308 -0.85243,-0.0847 -1.20847,-0.0994 l -0.39874,-0.0165 v 11.70325 c 0,6.436796 0.007,11.711056 0.0174,11.720606 0.01,0.01 0.0895,0.0111 0.1779,0.005 0.0883,-0.007 0.29857,-0.019 0.46727,-0.0266 z m 4.75346,-10.689356 c -0.022,-0.0587 -0.10755,-0.30541 -0.19021,-0.54833 -0.0828,-0.24292 -0.20377,-0.59626 -0.26901,-0.7852 -0.0652,-0.18893 -0.17204,-0.50083 -0.2373,-0.6931 l -0.11865,-0.34958 -0.64012,-7e-5 c -0.35206,-5e-5 -0.95516,-0.007 -1.34022,-0.0163 l -0.70011,-0.0162 0.10113,-0.0773 c 0.0556,-0.0426 0.27776,-0.21399 0.49369,-0.38102 0.21593,-0.16702 0.46502,-0.35959 0.55354,-0.42794 0.0885,-0.0683 0.34388,-0.26564 0.56748,-0.43843 l 0.40657,-0.31419 -0.0854,-0.26245 c -0.047,-0.14435 -0.11741,-0.36458 -0.15648,-0.48942 -0.0391,-0.12485 -0.10422,-0.33188 -0.14471,-0.46009 -0.0404,-0.12821 -0.10668,-0.33801 -0.14723,-0.46621 -0.0404,-0.1282 -0.10767,-0.34077 -0.14921,-0.47235 -0.12951,-0.40982 -0.14068,-0.44781 -0.13163,-0.44781 0.005,0 0.33424,0.23696 0.73201,0.52657 0.39778,0.28961 0.8846,0.64302 1.08184,0.78535 l 0.35862,0.25879 0.15224,-0.1031 c 0.17304,-0.11717 1.42392,-1.03083 1.86617,-1.3631 0.0789,-0.0593 0.14651,-0.10434 0.15013,-0.10002 0.004,0.004 -0.0477,0.17341 -0.11408,0.37584 -0.0663,0.20244 -0.22424,0.68299 -0.35076,1.06789 -0.12651,0.38491 -0.26263,0.80124 -0.30249,0.92519 l -0.0725,0.22535 0.26082,0.19225 c 0.14346,0.1057 0.64003,0.46786 1.1035,0.80472 l 0.84267,0.61245 -1.33279,0.019 c -0.73304,0.01 -1.33967,0.027 -1.3481,0.0367 -0.009,0.01 -0.17777,0.53677 -0.37634,1.17107 -0.19858,0.63429 -0.37502,1.19021 -0.3921,1.23537 l -0.0311,0.0821 z m -20.7151,3.674526 c -0.34331,-0.1089 -0.58364,-0.37923 -0.73284,-0.8244 -0.067,-0.1998 -0.13849,-0.70499 -0.13781,-0.97324 10e-4,-0.5038 0.22058,-0.918206 0.57559,-1.087626 0.0852,-0.0407 0.18314,-0.0739 0.21771,-0.0739 0.0719,0 0.0685,-0.0123 0.12697,0.45395 0.0204,0.161946 0.043,0.327866 0.0506,0.368726 0.0125,0.068 0.005,0.0779 -0.0851,0.11791 -0.20389,0.0899 -0.28863,0.27383 -0.26379,0.57241 0.018,0.21633 0.0961,0.43257 0.17998,0.49859 0.15267,0.12013 0.31308,0.0254 0.38333,-0.22613 0.0375,-0.13423 0.10088,-0.49794 0.12713,-0.72877 0.0234,-0.20638 0.10693,-0.609106 0.16504,-0.796326 0.0413,-0.13294 0.0808,-0.1996 0.18451,-0.31167 0.16341,-0.17651 0.31973,-0.24308 0.57079,-0.24308 0.57735,0 0.97326,0.58581 1.08259,1.601866 0.0647,0.60145 -0.0863,1.12215 -0.39702,1.36817 -0.10311,0.0816 -0.32696,0.181 -0.46717,0.20731 l -0.0878,0.0165 -0.0281,-0.27802 c -0.0154,-0.15291 -0.035,-0.3561 -0.0435,-0.45153 l -0.0155,-0.17353 0.11297,-0.0432 c 0.30787,-0.11753 0.42092,-0.56657 0.25644,-1.01845 -0.0784,-0.21536 -0.15777,-0.29672 -0.28953,-0.29672 -0.0562,0 -0.12333,0.0111 -0.14913,0.0252 -0.0688,0.0369 -0.11458,0.22635 -0.17147,0.71099 -0.0756,0.64408 -0.0865,0.70749 -0.15678,0.91688 -0.17748,0.52848 -0.58874,0.80112 -1.00795,0.66819 z m 28.28791,-0.40267 c 0.007,-0.0498 0.0317,-0.24507 0.0531,-0.434 0.0215,-0.18895 0.0438,-0.36709 0.0498,-0.39587 0.009,-0.044 0.0566,-0.0646 0.29939,-0.12985 0.1587,-0.0427 0.30439,-0.0861 0.32374,-0.0966 0.0217,-0.0123 0.0514,-0.11235 0.0775,-0.26276 0.0474,-0.2727 0.17889,-1.023056 0.23202,-1.323366 0.0191,-0.10792 0.0349,-0.21381 0.0352,-0.2352 2.7e-4,-0.0213 -0.0979,-0.1184 -0.21807,-0.21553 -0.12013,-0.0972 -0.2303,-0.19084 -0.2447,-0.20816 -0.0356,-0.043 0.0755,-0.81607 0.11606,-0.80721 0.0155,0.004 0.22418,0.15152 0.4637,0.32921 0.23953,0.17768 0.53488,0.39666 0.65634,0.4866 0.12148,0.0899 0.43615,0.32307 0.69932,0.51806 0.26317,0.19499 0.58061,0.43 0.70545,0.52224 0.12484,0.0922 0.22688,0.16921 0.22677,0.17104 0,10e-4 -0.017,0.130296 -0.0376,0.285496 -0.0206,0.1552 -0.054,0.40869 -0.0744,0.56333 -0.0204,0.15465 -0.0407,0.28482 -0.0451,0.28929 -0.006,0.006 -1.00977,0.31993 -1.67678,0.5237 -0.0844,0.0258 -0.22513,0.069 -0.31286,0.096 -0.0877,0.027 -0.23126,0.0712 -0.31899,0.0982 -0.0877,0.027 -0.23126,0.0712 -0.31898,0.0982 -0.0877,0.027 -0.2285,0.0702 -0.31285,0.0961 -0.0844,0.0259 -0.20711,0.0638 -0.27281,0.0844 l -0.11951,0.0374 z m 1.9715,-1.41562 c 0.26733,-0.0742 0.55522,-0.15391 0.63974,-0.17696 0.0845,-0.0231 0.15076,-0.0505 0.14722,-0.0608 -0.007,-0.0206 -1.1042,-0.807336 -1.11316,-0.798226 -0.002,0.002 -0.0237,0.11594 -0.0459,0.25094 -0.0222,0.13495 -0.0619,0.366826 -0.0882,0.515286 -0.0263,0.14845 -0.0529,0.30027 -0.0592,0.33739 -0.006,0.0371 -0.001,0.0675 0.0111,0.0675 0.0123,0 0.24118,-0.0608 0.50853,-0.13508 z m -28.63993,-2.516226 c -0.54074,-0.0755 -1.10419,-0.14923 -2.06116,-0.26994 -0.33738,-0.0426 -0.63096,-0.0845 -0.65239,-0.0932 -0.0349,-0.0142 -0.0315,-0.0619 0.0335,-0.45756 0.04,-0.24291 0.075,-0.44443 0.0778,-0.44779 0.004,-0.005 0.3447,0.0404 1.1483,0.15327 0.0506,0.007 0.092,0.007 0.092,4.6e-4 0,-0.0111 -0.85175,-1.11854 -1.00699,-1.3089 -0.057,-0.0699 -0.0639,-0.0946 -0.0478,-0.17177 0.01,-0.0496 0.0491,-0.28886 0.0863,-0.53178 0.0373,-0.24293 0.0744,-0.44942 0.0826,-0.45889 0.009,-0.01 0.0819,0.0789 0.16376,0.1963 0.51993,0.74604 0.95097,1.34148 0.96777,1.3369 0.0171,-0.005 1.7316,-1.07029 1.96405,-1.22072 l 0.0871,-0.0564 -0.0566,0.35903 c -0.0311,0.19747 -0.0703,0.44688 -0.0871,0.55426 l -0.0306,0.19522 -0.19629,0.13716 c -0.10792,0.0755 -0.49809,0.34091 -0.86694,0.58997 l -0.67062,0.45283 0.14306,0.0165 c 0.0787,0.009 0.40809,0.0408 0.73198,0.0704 0.3239,0.0297 0.5961,0.0609 0.60492,0.0694 0.009,0.009 -0.01,0.21969 -0.0424,0.46936 -0.0322,0.24967 -0.0587,0.45671 -0.059,0.46007 -8.4e-4,0.01 -0.0709,0.002 -0.40537,-0.0442 z m 27.36229,-0.41934 c -0.005,-0.0184 -0.0232,-0.12722 -0.0396,-0.24193 -0.0164,-0.1147 -0.046,-0.30657 -0.0659,-0.42634 -0.0199,-0.11975 -0.027,-0.22617 -0.0159,-0.23645 0.0111,-0.01 0.1417,-0.0313 0.29016,-0.0469 0.14845,-0.0155 0.40242,-0.0442 0.56436,-0.0636 0.16195,-0.0195 0.31377,-0.0356 0.33739,-0.036 0.028,-3.7e-4 0.0429,-0.0197 0.0429,-0.0557 0,-0.0815 -0.19035,-1.41932 -0.20379,-1.43275 -0.01,-0.01 -1.06347,0.1232 -1.22458,0.15538 -0.0551,0.0111 -0.0686,0.005 -0.0697,-0.0323 -7.4e-4,-0.0253 -0.0268,-0.21716 -0.0579,-0.42635 -0.0311,-0.20917 -0.0553,-0.38198 -0.0539,-0.38402 0.002,-0.004 0.36004,-0.0539 0.93503,-0.1304 0.20244,-0.027 0.53369,-0.071 0.73612,-0.0981 0.20244,-0.027 0.53922,-0.0718 0.74839,-0.0994 0.20919,-0.0276 0.43866,-0.0595 0.50993,-0.0706 0.0713,-0.0111 0.1335,-0.0134 0.13826,-0.005 0.005,0.009 0.0391,0.19542 0.0762,0.41616 0.0477,0.28349 0.0596,0.40624 0.0406,0.41803 -0.0148,0.009 -0.28413,0.0533 -0.59839,0.0981 -0.31427,0.0448 -0.57301,0.083 -0.57498,0.085 -0.005,0.005 0.20717,1.30706 0.22449,1.38226 0.01,0.0448 0.0255,0.0518 0.092,0.0424 0.36653,-0.0518 1.10683,-0.13217 1.11767,-0.12136 0.0123,0.0123 0.0439,0.2071 0.12675,0.77346 0.0128,0.0876 0.0154,0.16629 0.006,0.17486 -0.01,0.009 -0.21614,0.0397 -0.45907,0.0692 -0.24292,0.0295 -0.61283,0.0744 -0.822,0.0996 -1.34908,0.16324 -1.64028,0.19932 -1.71123,0.21203 -0.0555,0.01 -0.0824,0.004 -0.0893,-0.0191 z m -0.62249,-3.52278 c -0.0269,-0.0512 -0.13316,-0.24645 -0.23613,-0.43396 -0.10299,-0.18748 -0.18721,-0.34928 -0.18721,-0.35953 0,-0.01 0.10335,-0.13236 0.22957,-0.27135 l 0.22957,-0.2527 -0.055,-0.12388 c -0.0303,-0.0682 -0.1226,-0.26599 -0.20503,-0.43967 -0.0825,-0.17367 -0.14997,-0.31911 -0.14997,-0.32316 0,-0.004 -0.0823,-0.17942 -0.18272,-0.38967 l -0.18271,-0.38228 -0.3387,-4.7e-4 -0.33872,-4.7e-4 -0.20312,-0.39212 -0.20313,-0.39213 0.0804,8e-5 c 0.0443,5e-5 0.33991,0.0111 0.65706,0.0232 0.31715,0.0127 0.99622,0.0353 1.50906,0.0501 0.51283,0.0148 1.02277,0.0329 1.13317,0.0402 0.18982,0.0126 0.20208,0.0169 0.225,0.0787 0.0133,0.036 0.10236,0.25313 0.19786,0.48255 0.0955,0.22942 0.17369,0.42615 0.17375,0.43715 0,0.0178 -0.40507,0.55925 -1.06836,1.4277 -0.12369,0.16194 -0.39552,0.5201 -0.60405,0.79588 -0.20853,0.2758 -0.39097,0.50538 -0.40542,0.5102 -0.0144,0.005 -0.0482,-0.0332 -0.0751,-0.0844 z m 0.92818,-2.3873 0.4462,-0.52757 -0.43878,-0.006 c -0.24134,-0.004 -0.5667,0.002 -0.72304,0.0123 l -0.28425,0.0186 0.25711,0.52229 c 0.14142,0.28725 0.266,0.51913 0.27685,0.51528 0.0111,-0.004 0.22052,-0.2444 0.46591,-0.53456 z m -27.29419,1.16756 c -0.0642,-0.0173 -0.12234,-0.0369 -0.12892,-0.0434 -0.009,-0.009 0.36309,-0.81465 0.39118,-0.84743 0.002,-0.002 0.0467,0.006 0.098,0.0204 0.14746,0.0407 0.31779,0.006 0.41557,-0.0846 0.2184,-0.20236 0.37771,-0.522 0.40149,-0.80552 0.0131,-0.15568 0.01,-0.16678 -0.0546,-0.227 -0.14688,-0.13613 -0.25868,-0.0755 -0.58964,0.31961 -0.68414,0.81679 -0.83186,0.95818 -1.13145,1.08297 -0.36097,0.15035 -0.76303,0.0158 -0.9273,-0.31043 -0.12771,-0.25362 -0.14618,-0.58998 -0.0506,-0.92008 0.10668,-0.36794 0.40258,-0.90966 0.63669,-1.16542 0.2051,-0.22404 0.56638,-0.3973 0.8197,-0.39312 0.15433,0.002 0.31233,0.0538 0.30274,0.0982 -0.004,0.0192 -0.0925,0.20319 -0.1963,0.40889 l -0.18876,0.37398 -0.0929,1.8e-4 c -0.21777,4.7e-4 -0.3823,0.1302 -0.54501,0.42963 -0.16243,0.2989 -0.17051,0.49562 -0.0243,0.59143 0.0603,0.0396 0.069,0.0396 0.15196,-5e-5 0.15064,-0.0718 0.29906,-0.21104 0.60438,-0.56684 0.37574,-0.43788 0.63776,-0.70828 0.7735,-0.79825 0.31925,-0.21159 0.7247,-0.18151 0.96904,0.0719 0.25933,0.26896 0.29745,0.69255 0.11149,1.23828 -0.0931,0.27324 -0.30616,0.72868 -0.41646,0.89036 -0.22492,0.32971 -0.49382,0.55408 -0.75716,0.6318 -0.15763,0.0465 -0.40915,0.0485 -0.57258,0.005 z m 24.10538,-3.12015 c -0.28679,-0.31081 -0.34674,-0.38831 -0.33325,-0.43081 0.009,-0.0285 0.0957,-0.13604 0.1926,-0.23898 0.38161,-0.40548 0.40754,-0.44077 0.40754,-0.5549 0,-0.0576 -0.0158,-0.14199 -0.0352,-0.1875 -0.0289,-0.0678 -0.53011,-0.66196 -0.58086,-0.68843 -0.009,-0.004 -0.20312,0.16616 -0.43322,0.37871 -0.2301,0.21256 -0.42351,0.38647 -0.42981,0.38647 -0.0224,0 -0.6291,-0.69976 -0.62758,-0.72386 8.3e-4,-0.0134 0.12462,-0.13345 0.27504,-0.26656 0.1504,-0.13311 0.31764,-0.28244 0.37162,-0.33185 0.054,-0.0495 0.4018,-0.35989 0.77294,-0.68997 0.37111,-0.33007 0.71342,-0.63612 0.76066,-0.6801 0.0472,-0.044 0.0934,-0.0801 0.10249,-0.0802 0.009,-10e-5 0.0402,0.0299 0.0691,0.0665 0.0289,0.0367 0.13255,0.15541 0.23042,0.26378 1.04757,1.16005 1.22504,1.3651 1.32764,1.53401 0.19174,0.31563 0.16696,0.57072 -0.0815,0.8391 -0.0739,0.0797 -0.18501,0.17484 -0.2471,0.21133 -0.10199,0.0599 -0.13528,0.0662 -0.34597,0.0648 -0.18368,-0.001 -0.25782,-0.0127 -0.34966,-0.0543 -0.0641,-0.029 -0.11654,-0.0472 -0.11654,-0.0405 0,0.007 0.0218,0.0551 0.0485,0.1073 0.15601,0.30579 0.0799,0.57592 -0.26058,0.92531 -0.21237,0.21791 -0.30298,0.34401 -0.30394,0.42301 -4.7e-4,0.035 -0.0149,0.0824 -0.0322,0.10508 -0.0279,0.0368 -0.0708,-10e-4 -0.38113,-0.33765 z m 1.20076,-1.76984 c 0.14821,-0.1247 0.16691,-0.26716 0.0617,-0.47017 -0.0411,-0.0793 -0.29056,-0.37348 -0.53233,-0.62771 l -0.11544,-0.12136 -0.14208,0.12136 c -0.0782,0.0667 -0.19578,0.17106 -0.26144,0.23179 l -0.11938,0.11038 0.28528,0.31899 c 0.15691,0.17544 0.315,0.34475 0.35131,0.37625 0.16382,0.1421 0.34738,0.16559 0.47234,0.0604 z m -22.72317,1.70541 c -0.0472,-0.0424 -0.17393,-0.15526 -0.28154,-0.25079 -0.10767,-0.0955 -0.25669,-0.2296 -0.33126,-0.29795 -0.0746,-0.0683 -0.33986,-0.30553 -0.58954,-0.52707 -0.24966,-0.22154 -0.4981,-0.44271 -0.55208,-0.49149 -0.36014,-0.3254 -0.41714,-0.38079 -0.41714,-0.40541 0,-0.0152 0.1247,-0.1607 0.27713,-0.32349 0.15243,-0.16279 0.29954,-0.32446 0.32691,-0.35925 0.056,-0.0713 0.0776,-0.0768 0.12419,-0.0323 0.0179,0.017 0.40234,0.36743 0.85443,0.7786 0.4521,0.41119 0.82569,0.75611 0.83019,0.76647 0.0208,0.0481 0.0232,0.0459 0.93511,-0.94405 l 0.1298,-0.14088 0.0892,0.0715 c 0.0491,0.0393 0.16347,0.13796 0.25426,0.21912 l 0.16511,0.1476 -0.40772,0.44931 c -0.22426,0.24712 -0.46418,0.51015 -0.53317,0.58451 -0.0689,0.0744 -0.23034,0.25096 -0.35854,0.39245 -0.12822,0.1415 -0.27078,0.29874 -0.3168,0.34943 -0.046,0.0507 -0.0902,0.0919 -0.0982,0.0914 -0.007,-3.7e-4 -0.0531,-0.0354 -0.10039,-0.0778 z m 1.97775,-2.20981 c -0.007,-0.0977 -0.0255,-0.35433 -0.0396,-0.57026 -0.0141,-0.21593 -0.0361,-0.54718 -0.0488,-0.73613 -0.0128,-0.18893 -0.035,-0.52572 -0.0496,-0.74839 -0.0146,-0.22268 -0.0369,-0.54073 -0.0497,-0.70678 -0.0128,-0.16607 -0.0233,-0.37228 -0.0233,-0.45827 v -0.15633 l 0.47761,-0.27306 c 0.43123,-0.24654 0.48307,-0.27017 0.5337,-0.2433 0.0308,0.0164 0.18692,0.11729 0.34685,0.22431 0.28102,0.188 0.81072,0.53399 1.94213,1.26853 0.2969,0.19276 0.54888,0.35882 0.55996,0.36903 0.0147,0.0136 -0.64221,0.43902 -0.82365,0.53349 -0.01,0.005 -0.12602,-0.0559 -0.25766,-0.13578 -0.13162,-0.0799 -0.2639,-0.15811 -0.29397,-0.17373 -0.049,-0.0254 -0.1286,0.0157 -0.76067,0.39249 -0.3883,0.23149 -0.7183,0.43326 -0.73333,0.44837 -0.0253,0.0254 -0.0128,0.31272 0.0248,0.57233 0.0111,0.0776 0.006,0.0816 -0.33655,0.29644 -0.50777,0.31789 -0.45173,0.30627 -0.46814,0.0971 z m 1.20432,-1.95049 c 0.27405,-0.15858 0.49824,-0.29384 0.49818,-0.30059 -9e-5,-0.0111 -1.0831,-0.6646 -1.13425,-0.68387 -0.0152,-0.006 -0.0186,0.0446 -0.01,0.13495 0.009,0.0793 0.0323,0.35385 0.0537,0.61027 0.0405,0.48515 0.0466,0.52755 0.0759,0.52755 0.01,0 0.24187,-0.12974 0.51593,-0.28831 z m 14.05553,0.47646 c -0.13496,-0.0834 -0.30293,-0.18698 -0.37327,-0.23035 l -0.12787,-0.0788 0.22727,-0.36273 c 0.12501,-0.19951 0.37468,-0.60014 0.55484,-0.89029 0.62571,-1.00774 0.84117,-1.34956 0.85064,-1.34956 0.01,0 0.47368,0.29633 1.19822,0.76509 0.48931,0.31658 0.74817,0.5613 0.88359,0.83528 0.1644,0.33265 0.14056,0.56227 -0.0924,0.88968 -0.21393,0.30072 -0.46257,0.42236 -0.81329,0.39789 -0.32878,-0.0229 -0.45859,-0.0851 -1.24626,-0.59671 -0.0909,-0.0591 -0.17547,-0.10743 -0.18788,-0.10743 -0.0125,0 -0.15219,0.19875 -0.31065,0.44168 -0.15844,0.24292 -0.29474,0.4408 -0.30287,0.43973 -0.009,-0.001 -0.12518,-0.07 -0.26013,-0.15344 z m 2.29973,-0.92556 c 0.16604,-0.18482 0.14206,-0.35338 -0.0762,-0.53618 -0.10225,-0.0856 -0.61723,-0.41949 -0.64702,-0.41949 -0.0111,0 -0.19506,0.28651 -0.33357,0.5185 l -0.0532,0.089 0.30078,0.1952 c 0.37079,0.24062 0.4692,0.28171 0.63204,0.26393 0.0632,-0.007 0.11014,-0.0364 0.17724,-0.11112 z m -13.3048,-0.65381 c -0.76929,-0.92234 -1.28761,-1.54092 -1.51309,-1.80581 -0.11248,-0.13215 -0.20454,-0.24872 -0.20454,-0.25906 0,-0.01 0.11322,-0.0486 0.25151,-0.085 0.37181,-0.0979 0.61436,-0.16315 0.66016,-0.1776 0.0305,-0.01 0.10052,0.0751 0.27967,0.33775 0.44248,0.64882 0.6469,0.92432 1.08589,1.46347 l 0.2868,0.35222 0.0159,-0.0946 c 0.009,-0.052 0.0284,-0.29885 0.0435,-0.54853 0.037,-0.60724 0.0757,-1.1853 0.10939,-1.62867 l 0.0276,-0.36501 0.41713,-0.1282 c 0.22943,-0.0705 0.42047,-0.11988 0.42454,-0.10964 0.004,0.01 -0.0155,0.23213 -0.0435,0.49322 -0.028,0.26106 -0.0615,0.57405 -0.0745,0.69552 -0.0263,0.24707 -0.13599,1.29114 -0.19647,1.87011 -0.0137,0.13111 -0.0332,0.24667 -0.0433,0.2568 -0.01,0.01 -0.12591,0.0519 -0.25727,0.0929 -0.38599,0.12037 -0.69009,0.21629 -0.72961,0.23026 -0.0254,0.009 -0.19258,-0.17375 -0.53983,-0.59007 z m 8.78442,0.56957 c -0.10125,-0.0163 -0.31653,-0.0491 -0.47848,-0.073 -0.16195,-0.0238 -0.29681,-0.0454 -0.2997,-0.0479 -0.002,-0.002 -0.0454,-0.15856 -0.0943,-0.34687 -0.049,-0.18831 -0.0921,-0.34556 -0.096,-0.34945 -0.004,-0.004 -0.36428,-0.0671 -0.80125,-0.14053 -0.43695,-0.0734 -0.82487,-0.13895 -0.86202,-0.14568 -0.0622,-0.0111 -0.0845,0.0111 -0.27777,0.27045 -0.15325,0.20609 -0.22139,0.27948 -0.25143,0.27088 -0.0227,-0.006 -0.19582,-0.0351 -0.38475,-0.0638 -0.18895,-0.0286 -0.38026,-0.0597 -0.42517,-0.0692 l -0.0816,-0.0173 0.0929,-0.1226 c 0.0511,-0.0673 0.28155,-0.36547 0.51215,-0.66238 0.23059,-0.29689 0.61127,-0.78826 0.84595,-1.09192 0.77143,-0.99813 0.7172,-0.93454 0.78571,-0.92139 0.0338,0.006 0.27375,0.0522 0.53335,0.1015 l 0.47202,0.0897 0.0231,0.0768 c 0.0127,0.0422 0.0459,0.15129 0.0739,0.2424 0.028,0.0911 0.072,0.23464 0.0978,0.31899 0.0649,0.21218 0.80045,2.59424 0.82218,2.66231 0.01,0.0303 0.009,0.0537 -0.002,0.0518 -0.0111,-0.002 -0.10286,-0.0168 -0.20409,-0.0331 z m -1.1778,-1.4589 c 0,-0.0127 -0.0541,-0.24735 -0.12037,-0.52142 -0.0662,-0.27408 -0.13499,-0.56182 -0.1528,-0.6394 -0.0178,-0.0776 -0.0387,-0.1411 -0.0465,-0.1411 -0.007,0 -0.15108,0.19599 -0.31857,0.43554 -0.16747,0.23955 -0.34789,0.4938 -0.40093,0.56501 -0.053,0.0712 -0.0921,0.13355 -0.0868,0.13854 0.005,0.005 0.20833,0.0386 0.45124,0.0747 0.24293,0.0361 0.48585,0.0747 0.53983,0.0858 0.13678,0.028 0.13496,0.028 0.13496,0.002 z m -4.37998,0.82671 c -0.01,-0.0266 -0.0569,-0.55218 -0.13565,-1.50293 -0.0123,-0.14845 -0.0336,-0.39689 -0.0472,-0.55209 -0.0137,-0.1552 -0.0364,-0.42572 -0.0504,-0.60116 -0.0141,-0.17545 -0.0308,-0.34316 -0.0373,-0.3727 -0.006,-0.0296 -0.004,-0.0588 0.006,-0.0651 0.01,-0.006 0.21175,-0.0149 0.4479,-0.0191 l 0.42938,-0.007 0.0174,0.18324 c 0.01,0.10077 0.0402,0.45929 0.068,0.79668 0.0279,0.33739 0.0613,0.7349 0.0745,0.88334 0.0628,0.70934 0.0978,1.14397 0.0978,1.21273 v 0.0755 h -0.43018 c -0.32203,0 -0.43288,-0.007 -0.44094,-0.0307 z"
       id="path8623" />
  </g>
</svg>
