<?xml version="1.0" encoding="UTF-8" standalone="no"?>
<!-- Created with Inkscape (http://www.inkscape.org/) -->

<svg
   width="41.008999mm"
   height="41.008999mm"
   viewBox="0 0 41.008999 41.009"
   version="1.1"
   id="svg1"
   inkscape:version="1.4.2 (f4327f4, 2025-05-13)"
   sodipodi:docname="191.svg"
   xmlns:inkscape="http://www.inkscape.org/namespaces/inkscape"
   xmlns:sodipodi="http://sodipodi.sourceforge.net/DTD/sodipodi-0.dtd"
   xmlns="http://www.w3.org/2000/svg"
   xmlns:svg="http://www.w3.org/2000/svg">
  <sodipodi:namedview
     id="namedview1"
     pagecolor="#ffffff"
     bordercolor="#000000"
     borderopacity="0.25"
     inkscape:showpageshadow="2"
     inkscape:pageopacity="0.0"
     inkscape:pagecheckerboard="0"
     inkscape:deskcolor="#d1d1d1"
     inkscape:document-units="mm"
     inkscape:zoom="2.0485264"
     inkscape:cx="69.806275"
     inkscape:cy="131.3139"
     inkscape:window-width="1050"
     inkscape:window-height="1081"
     inkscape:window-x="3737"
     inkscape:window-y="0"
     inkscape:window-maximized="0"
     inkscape:current-layer="layer1" />
  <defs
     id="defs1" />
  <g
     inkscape:label="Layer 1"
     inkscape:groupmode="layer"
     id="layer1"
     transform="translate(-114.0891,-77.774176)">
    <g
       id="g44"
       transform="translate(-37.028395,402.14608)">
      <g
         id="g8701"
         transform="matrix(0.04988258,0,0,0.04988258,145.567,-295.73055)"
         style="stroke-width:2.00471;stroke-dasharray:none">
        <path
           style="fill:#000000;stroke-width:2.00471;stroke-dasharray:none"
           d="m 414.07873,-304.46108 c 0,-0.29208 -4.79453,-29.83455 -4.84745,-29.8686 -0.026,-0.0168 -6.47671,-1.00364 -14.33484,-2.19308 -7.85812,-1.18943 -14.57565,-2.22634 -14.92783,-2.30422 -0.50147,-0.1109 2.22392,-1.63659 12.56771,-7.0355 7.26442,-3.79164 13.31015,-6.98798 13.43496,-7.10298 0.12481,-0.115 -0.92472,-6.8997 -2.33227,-15.07711 -1.40756,-8.17742 -2.51727,-14.90996 -2.46603,-14.9612 0.0512,-0.0512 5.00229,4.73549 11.00233,10.63717 l 10.90916,10.73034 2.17786,-1.1251 c 4.16565,-2.152 19.39288,-10.10686 22.07086,-11.53004 l 2.69509,-1.43227 -4.44345,9.06732 c -2.4439,4.98702 -5.48258,11.14018 -6.75263,13.67367 l -2.30918,4.60637 10.80321,10.80561 c 5.94176,5.94309 10.71657,10.80562 10.61068,10.80562 -0.10589,0 -6.87407,-1.07948 -15.0404,-2.39884 -8.16632,-1.31937 -14.88235,-2.36117 -14.9245,-2.31511 -0.0422,0.0461 -3.12609,6.1857 -6.85318,13.64364 -3.72709,7.45794 -6.83583,13.55989 -6.90831,13.55989 -0.0725,0 -0.13179,-0.0835 -0.13179,-0.18558 z m 209.40361,-13.34525 c -3.73509,-7.47393 -6.82162,-13.62271 -6.85898,-13.66396 -0.0373,-0.0412 -6.71748,1.00188 -14.84476,2.31807 -8.12729,1.31619 -14.88509,2.35699 -15.01736,2.31291 -0.13226,-0.0441 4.68003,-4.91754 10.69399,-10.82989 l 10.93446,-10.74972 -6.673,-13.42151 c -3.67017,-7.38184 -6.61835,-13.47621 -6.55149,-13.54306 0.0669,-0.0669 6.09661,3.00122 13.39943,6.81794 l 13.27788,6.9395 10.815,-10.81258 c 5.94823,-5.94691 10.81498,-10.6567 10.81498,-10.46619 0,0.1905 -1.1311,6.92987 -2.51355,14.97637 -1.38244,8.0465 -2.51354,14.69473 -2.51354,14.77383 0,0.0791 6.01179,3.28091 13.35953,7.11512 9.51323,4.96423 13.22676,7.02474 12.89844,7.15694 -0.25361,0.1021 -6.89047,1.15721 -14.74859,2.34469 -7.85813,1.18748 -14.37066,2.23504 -14.47229,2.3279 -0.10165,0.0929 -1.26293,6.82687 -2.58069,14.96446 -1.31773,8.13758 -2.44819,14.84792 -2.51214,14.91187 -0.0639,0.0639 -3.17225,-5.99877 -6.90732,-13.47269 z m -126.01033,-18.24191 c 0.99943,-2.68137 9.2121,-28.6966 9.12815,-28.91522 -0.063,-0.16417 -5.52664,-4.28708 -12.14135,-9.16203 l -12.02675,-8.86354 15.1079,-0.0683 15.1079,-0.0683 1.63186,-4.95882 c 0.89751,-2.72734 3.02433,-9.23122 4.72625,-14.45306 1.8289,-5.61143 3.17267,-9.34452 3.28577,-9.12813 0.10525,0.20137 2.25459,6.70621 4.77629,14.45519 l 4.58493,14.08907 h 15.09044 c 14.74822,0 15.07859,0.0112 14.56861,0.49456 -0.287,0.27201 -5.7308,4.32866 -12.09734,9.01477 -6.36653,4.68612 -11.57316,8.66051 -11.57027,8.832 0.003,0.17148 2.08239,6.73534 4.6211,14.58635 2.53872,7.85101 4.58118,14.30923 4.53881,14.3516 -0.0424,0.0424 -5.48539,-3.86499 -12.09558,-8.68303 -6.6102,-4.81804 -12.16538,-8.81769 -12.34486,-8.88811 -0.17948,-0.0704 -5.71588,3.78942 -12.30312,8.57744 -13.37275,9.72014 -12.78289,9.30839 -12.58874,8.7875 z"
           id="path8697"
           sodipodi:nodetypes="ssssssssscsscsscsssssssssssscssscssssssssssscsscccsssscssscssssscc" />
        <path
           style="fill:#000000;stroke-width:2.00471;stroke-dasharray:none"
           d="m 510.51936,129.46975 c -0.58208,-0.0453 -2.9038,-0.21278 -5.15937,-0.37208 -17.63849,-1.24585 -37.05263,-5.21425 -54.98993,-11.24043 -27.40114,-9.20559 -52.30866,-23.497776 -75.31737,-43.217885 -1.45521,-1.24722 -5.65535,-5.243142 -9.33365,-8.87984 l -6.68781,-6.612175 7.33003,-7.333535 c 6.72691,-6.730127 7.29922,-7.373064 6.95555,-7.814019 -0.20596,-0.264292 -1.80918,-2.147385 -3.56271,-4.184679 -14.3447,-16.66599 -24.39625,-32.2289195 -32.75651,-50.71729 -9.42978,-20.85355 -14.98319,-42.16675 -17.29112,-66.36083 -0.5841,-6.12312 -0.67278,-27.364467 -0.13809,-33.072907 1.77651,-18.96594 4.91375,-34.12839 10.36563,-50.09755 21.00721,-61.53254 70.84644,-109.7204 133.00971,-128.60259 44.25454,-13.44238 91.68967,-11.47942 134.60692,5.57031 38.59622,15.33313 71.71359,42.35287 94.69834,77.26235 14.29414,21.71008 24.26729,46.02317 29.39391,71.6581 1.47651,7.38302 2.42999,14.09899 3.34314,23.54792 0.44577,4.61251 0.61778,23.238007 0.26446,28.636247 -2.04264,31.20842 -10.30603,59.57673 -25.20887,86.5424305 -6.74526,12.2051395 -14.75295,23.5556895 -25.04593,35.5015195 -1.81812,2.110053 -3.48679,4.050348 -3.70819,4.311757 -0.37418,0.441748 0.1148,0.992902 6.93253,7.813886 l 7.3351,7.338615 -6.81996,6.748595 c -8.25899,8.172555 -13.2697,12.529528 -21.63664,18.813779 -16.79856,12.617052 -35.09574,22.718531 -54.76875,30.236661 -12.13305,4.63672 -26.66574,8.74694 -39.29063,11.11247 -7.93381,1.48654 -18.15093,2.72259 -27.37986,3.31235 -3.75207,0.23976 -22.38978,0.31303 -25.13993,0.0988 z m 23.15104,-14.38693 c 8.21168,-0.45387 16.03234,-1.29744 23.41563,-2.52576 3.65362,-0.60783 12.07581,-2.23288 12.24235,-2.36213 0.0393,-0.0305 -1.242,-4.3294 -2.84742,-9.55307 -1.60541,-5.223666 -3.65823,-12.027664 -4.56182,-15.119982 -1.21406,-4.154857 -1.74845,-5.622131 -2.04737,-5.621363 -0.22247,0 -1.89308,0.292576 -3.71247,0.648943 -12.6614,2.479913 -27.83237,3.636989 -40.42149,3.082846 -9.92548,-0.43688 -18.89135,-1.452113 -27.47614,-3.111156 -2.04757,-0.395711 -3.67036,-0.591397 -3.79726,-0.457915 -0.12189,0.128217 -0.77838,2.138125 -1.45888,4.466458 -1.00408,3.435456 -5.0709,16.831309 -7.28927,24.010409 -0.25847,0.83645 -0.39102,1.56961 -0.29456,1.62922 0.32629,0.20167 9.67094,2.00152 13.7987,2.65777 6.66136,1.05902 15.78701,1.98461 23.15104,2.34812 4.15164,0.20495 16.92125,0.14955 21.29896,-0.0924 z m -71.95689,-11.70157 c 2.55091,-8.190677 8.1917,-26.828826 8.19198,-27.067718 1.8e-4,-0.153247 -0.86287,-0.54737 -1.9179,-0.875797 -1.05503,-0.328427 -3.73625,-1.249442 -5.95827,-2.046711 -20.00477,-7.177669 -39.76161,-18.736282 -55.4899,-32.464029 -1.70101,-1.484658 -3.44611,-2.988018 -3.87798,-3.340818 l -0.78522,-0.64145 -11.17566,11.164223 -11.17565,11.164226 2.12952,1.922383 c 21.39053,19.309899 46.35881,33.954348 73.43472,43.071091 2.98318,1.00447 5.50401,1.82637 5.60185,1.82645 0.0978,8e-5 0.55797,-1.22026 1.02251,-2.71185 z m 127.12313,1.11689 c 26.62327,-9.015864 52.05645,-23.945666 73.32691,-43.044454 l 2.94833,-2.647341 -11.18528,-11.182985 -11.18532,-11.182953 -2.87554,2.57521 C 622.32982,54.720094 600.5268,67.208215 577.2472,74.88166 c -2.58523,0.852144 -2.5925,0.857012 -2.42554,1.61716 0.20971,0.954802 5.04527,17.072768 7.27123,24.2366 0.91563,2.9468 1.74775,5.35781 1.84917,5.35781 0.10141,0 2.30396,-0.71779 4.89458,-1.59509 z m -200.44092,-73.924983 3.81119,-3.81801 -1.96253,-2.29508 c -4.39238,-5.1367 -7.02703,-8.36967 -9.54594,-11.71376 -28.42479,-37.7367 -40.62829,-84.94315 -34.06549,-131.774587 7.53197,-53.74735 39.829,-101.52477 87.0378,-128.75616 51.78511,-29.87113 115.6581,-31.57115 168.92361,-4.49603 10.78159,5.48034 19.83864,11.24111 29.04419,18.47366 38.28494,30.07952 62.16494,73.25898 67.26012,121.61881 1.07038,10.15931 1.18272,24.381137 0.26853,33.998947 -1.71627,18.05649 -5.74146,34.72111 -12.30223,50.93229 -7.62936,18.8515105 -18.07186,35.5409005 -32.70557,52.27068 l -1.40213,1.60296 3.90012,3.89363 3.90012,3.89361 3.45572,-4.04138 c 6.56759,-7.68061 10.71224,-13.0938 15.35046,-20.04867 24.29844,-36.43471 35.0773,-80.05349 30.63177,-123.957277 -4.01775,-39.67902 -20.77998,-77.35292 -47.61815,-107.02396 -4.37859,-4.84076 -12.37525,-12.64839 -17.10941,-16.705 -31.52302,-27.0113 -69.76237,-42.53352 -111.43614,-45.23442 -9.758,-0.63242 -25.82391,-0.0861 -35.77734,1.21651 -44.77913,5.86047 -85.46992,27.1907 -115.77828,60.69132 -24.47036,27.04772 -40.42012,60.31718 -46.24991,96.47221 -1.78823,11.09023 -2.23922,17.15749 -2.23216,30.030207 0.006,11.73083 0.25941,15.81272 1.58832,25.62722 4.55454,33.63712 18.39605,65.8187805 39.71385,92.33511 3.5171,4.37481 8.92837,10.60484 9.22029,10.61545 0.1474,0.005 1.98304,-1.70838 4.07919,-3.80828 z m 173.32746,-13.12933 c 20.63173,-2.56345 37.91134,-16.66411952 44.48571,-36.30155 2.49142,-7.44188 2.976,-12.19676 2.79733,-27.44904 -0.13975,-11.9298 -0.27794,-13.42755 -1.80544,-19.56461 -3.84254,-15.43862 -14.25908,-27.83949 -29.28135,-34.859437 -5.55621,-2.59643 -6.74428,-2.95642 -29.96153,-9.07862 -10.55026,-2.78204 -27.45713,-7.24442 -37.57083,-9.91645 -10.1137,-2.672 -19.40057,-5.11474 -20.6375,-5.42829 -1.23693,-0.31356 -2.92889,-0.93181 -3.75991,-1.37391 -2.02882,-1.07931 -4.25792,-3.46826 -5.31132,-5.69216 l -0.85065,-1.79589 v -13.36146 -13.36145 l 0.70533,-1.32292 c 0.95275,-1.78697 2.66944,-3.39126 4.58634,-4.28605 l 1.5875,-0.74103 h 35.05729 c 32.65601,0 35.15697,0.0317 36.5125,0.46298 2.69292,0.85677 5.20557,3.27205 6.26197,6.01931 0.40175,1.04479 0.46979,2.55956 0.55546,12.36709 l 0.0976,11.17648 1.37112,0.38659 c 1.94495,0.54835 42.29329,11.25942 42.41405,11.25942 0.23082,0 0.0763,-28.95692 -0.16867,-31.61771 -0.92554,-10.05068 -4.62074,-19.73375 -10.55,-27.64573 -1.87846,-2.50661 -6.46001,-7.27107 -8.9544,-9.31184 -7.97166,-6.52204 -17.97542,-10.72692 -28.17246,-11.84174 -1.68538,-0.18426 -15.03453,-0.28089 -38.80333,-0.28089 -39.74062,0 -39.36231,-0.0132 -45.7339,1.59275 -17.57936,4.4308 -31.78844,17.44158 -37.72111,34.53999 -2.23004,6.42711 -2.80112,10.55014 -3.00273,21.67871 -0.17156,9.46989 0.14344,17.4512 0.85107,21.56354 2.66732,15.50117 11.17252,28.133757 24.45322,36.319827 3.11815,1.92199 8.79731,4.53705 12.7,5.8479 1.96453,0.65987 21.19312,5.85703 42.73021,11.5493 21.53708,5.69225 39.818,10.58445 40.62427,10.87154 2.87226,1.02278 5.77844,3.882 6.86898,6.75799 0.94791,2.49989 1.10571,5.04698 1.0024,16.18057 -0.0948,10.21463 -0.114,10.54272 -0.70491,12.0315 -0.84986,2.14114 -2.99593,4.39484 -5.11821,5.37488 l -1.66212,0.76753 h -35.19514 -35.19515 l -1.74666,-0.85987 c -2.07075,-1.01944 -3.69655,-2.68004 -4.68206,-4.78234 l -0.7039,-1.50154 -0.1323,-11.24479 -0.13229,-11.24479 -21.56354,-5.88092 c -11.85995,-3.23451 -21.78586,-5.88365 -22.05758,-5.88698 -0.47832,-0.006 -0.48975,0.49231 -0.35935,15.6705 0.14638,17.03845 0.23291,18.22013 1.7691,24.15773 3.33932,12.9069505 11.09153,23.8490405 22.23533,31.3847105 4.84625,3.2771295 10.75454,5.9047895 16.62006,7.3916095 6.06687,1.53787 4.88923,1.49834 45.56397,1.52948 24.7938,0.0191 38.20299,-0.0655 39.6875,-0.24992 z"
           id="path8695" />
      </g>
      <circle
         style="fill:none;stroke:#ff0000;stroke-width:0.1;stroke-dasharray:none"
         id="path788-8-1-8-1-9-2-6-3-4-7-1-6-1"
         cx="171.62199"
         cy="-303.8674"
         r="19.954653" />
      <ellipse
         style="fill:none;stroke:#ff00ff;stroke-width:0.1;stroke-dasharray:none;stroke-opacity:1"
         id="path1138-9-4-0-0-1-2-0-0-6-8-8-1-1"
         cx="171.62199"
         cy="-303.8674"
         rx="18.492125"
         ry="18.492126" />
      <circle
         style="fill:none;stroke:#0000ff;stroke-width:0.1;stroke-linecap:round;stroke-dasharray:none;stroke-opacity:1;paint-order:markers stroke fill"
         id="path13019-1-33-3-83-70-3-7-5-9"
         cx="171.62199"
         cy="-318.87836"
         r="2" />
    </g>
  </g>
</svg>
