<?xml version="1.0" encoding="UTF-8" standalone="no"?>
<!-- Created with Inkscape (http://www.inkscape.org/) -->

<svg
   width="41.008999mm"
   height="41.008999mm"
   viewBox="0 0 41.008999 41.009"
   version="1.1"
   id="svg1"
   inkscape:version="1.4.2 (f4327f4, 2025-05-13)"
   sodipodi:docname="250.svg"
   xmlns:inkscape="http://www.inkscape.org/namespaces/inkscape"
   xmlns:sodipodi="http://sodipodi.sourceforge.net/DTD/sodipodi-0.dtd"
   xmlns="http://www.w3.org/2000/svg"
   xmlns:svg="http://www.w3.org/2000/svg">
  <sodipodi:namedview
     id="namedview1"
     pagecolor="#ffffff"
     bordercolor="#000000"
     borderopacity="0.25"
     inkscape:showpageshadow="2"
     inkscape:pageopacity="0.0"
     inkscape:pagecheckerboard="0"
     inkscape:deskcolor="#d1d1d1"
     inkscape:document-units="mm"
     inkscape:zoom="2.8970539"
     inkscape:cx="84.223494"
     inkscape:cy="68.000116"
     inkscape:window-width="1168"
     inkscape:window-height="1081"
     inkscape:window-x="3737"
     inkscape:window-y="0"
     inkscape:window-maximized="0"
     inkscape:current-layer="layer1" />
  <defs
     id="defs1" />
  <g
     inkscape:label="Layer 1"
     inkscape:groupmode="layer"
     id="layer1"
     transform="translate(-114.0891,-77.774176)">
    <g
       id="g34"
       transform="translate(-440.64084,402.044)">
      <ellipse
         style="fill:none;stroke:#ff00ff;stroke-width:0.1;stroke-dasharray:none;stroke-opacity:1"
         id="path1138-9-4-0-0-1-2-0-0-1-8-3-0"
         cx="575.23444"
         cy="-303.76532"
         rx="18.492125"
         ry="18.492126" />
      <circle
         style="fill:none;stroke:#ff0000;stroke-width:0.1;stroke-dasharray:none"
         id="path788-8-1-8-1-9-2-6-3-4-7-1-6-1-0"
         cx="575.23444"
         cy="-303.76532"
         r="19.954653" />
      <circle
         style="fill:none;stroke:#0000ff;stroke-width:0.1;stroke-linecap:round;stroke-dasharray:none;stroke-opacity:1;paint-order:markers stroke fill"
         id="path13019-1-33-3-83-70-3-7-5-9-5"
         cx="575.23444"
         cy="-318.77631"
         r="2" />
      <path
         style="fill:#000000;stroke-width:0.1;stroke-dasharray:none"
         d="m 575.04535,-295.1586 c -0.6972,-0.68502 -1.33788,-1.1442 -2.06547,-1.48035 -0.5739,-0.26514 -1.39812,-0.52285 -2.06967,-0.64711 -0.58518,-0.10828 -1.81736,-0.12096 -2.35994,-0.0243 -0.82807,0.14755 -0.76943,0.15543 -1.42608,-0.19176 -1.39265,-0.73636 -2.56415,-1.78251 -3.41007,-3.04518 -0.18037,-0.26924 -0.32794,-0.51287 -0.32794,-0.54141 0,-0.0285 0.14905,-0.0519 0.33122,-0.0519 0.28706,0 0.33993,0.0166 0.39667,0.12493 0.10623,0.20273 0.73672,0.99131 1.02871,1.28664 0.64671,0.65409 1.65915,1.39868 2.45147,1.80289 0.2339,0.11933 0.24671,0.1199 0.81219,0.0359 2.54633,-0.37809 5.20045,0.47198 7.06933,2.26417 l 0.23438,0.22477 0.32089,-0.30356 c 0.56441,-0.53392 1.60568,-1.27337 1.78711,-1.2691 0.0487,7.2e-4 0.18334,0.0833 0.29918,0.18246 l 0.21062,0.18038 -0.65484,0.41133 c -0.48664,0.30568 -0.82002,0.57259 -1.29795,1.03915 -0.35371,0.3453 -0.6543,0.62782 -0.66798,0.62782 -0.0137,0 -0.31151,-0.28162 -0.66183,-0.62583 z m 6.80233,-1.15171 c -1.59655,-0.10879 -2.74681,-0.4386 -3.33701,-0.95679 -0.11331,-0.0995 -0.31023,-0.34347 -0.43761,-0.54219 -0.24643,-0.38445 -1.84797,-3.01309 -2.10576,-3.45623 l -0.15343,-0.26376 h 0.46752 0.46752 l 0.32222,0.52086 c 0.42342,0.68445 1.02182,1.48293 1.41113,1.88296 0.52463,0.53909 1.02047,0.70536 2.10641,0.70632 0.55827,4.2e-4 2.11169,-0.124 2.49583,-0.20002 0.0889,-0.0176 0.18169,-0.13777 0.32285,-0.41807 0.10895,-0.21636 0.19025,-0.40011 0.18065,-0.40833 -0.01,-0.008 -0.84203,-0.0899 -1.84986,-0.18155 l -1.83242,-0.16657 1.91898,-0.007 c 1.56054,-0.006 1.93909,-0.0218 2.02668,-0.0859 0.0592,-0.0433 0.0945,-0.092 0.0783,-0.10811 -0.0161,-0.0161 -1.15304,-0.11874 -2.52643,-0.228 -1.37339,-0.10925 -2.53455,-0.20762 -2.58036,-0.21861 -0.0458,-0.011 1.21605,-0.0238 2.80415,-0.0284 2.38985,-0.007 2.91138,-0.0221 3.02627,-0.0878 0.0764,-0.0437 0.12547,-0.0803 0.10916,-0.0813 -0.0163,-7.3e-4 -1.17824,-0.0765 -2.58205,-0.16765 -2.53787,-0.16475 -3.98091,-0.27448 -4.01279,-0.30513 -0.0638,-0.0613 3.90871,-0.0881 6.6245,-0.0447 l 3.27614,0.0524 0.43834,0.15054 c 0.80568,0.27671 1.19812,0.70345 1.12084,1.21882 -0.0434,0.28902 -0.13592,0.44392 -0.70902,1.18632 -0.52795,0.68388 -0.84781,0.9549 -1.4773,1.25169 -0.50172,0.23655 -1.39745,0.48714 -1.74128,0.48714 -0.17444,0 -0.22575,0.0247 -0.26474,0.12722 -0.0656,0.17252 -0.15869,0.24044 -0.42086,0.30704 -0.30738,0.0781 -2.35647,0.12004 -3.16661,0.0648 z m 4.17996,-0.74964 c 0.55717,-0.10569 1.13971,-0.30269 1.5643,-0.52899 0.31505,-0.16792 0.89613,-0.68495 1.01097,-0.89954 0.0522,-0.0975 0.0456,-0.098 -0.15675,-0.0119 -0.89325,0.38029 -1.37241,0.48264 -2.29356,0.4899 -1.18885,0.009 -1.94129,-0.25509 -2.31511,-0.81369 l -0.17729,-0.26493 -0.26016,0.52407 c -0.21628,0.43567 -0.25403,0.55674 -0.22383,0.71776 0.0499,0.26642 0.20845,0.44978 0.51951,0.60108 0.55315,0.26909 1.49758,0.34451 2.33192,0.18625 z m 1.4854,-1.30296 c 0.8446,-0.21783 1.61216,-0.68591 1.83668,-1.12008 0.13857,-0.26797 0.10176,-0.57282 -0.0964,-0.79855 -0.37677,-0.42912 -1.0494,-0.63524 -2.07341,-0.63538 -0.85448,-1.1e-4 -1.55665,0.14045 -2.16112,0.43264 -0.98362,0.47545 -1.35351,1.09046 -0.9753,1.62161 0.14047,0.19727 0.69857,0.48762 1.12424,0.58488 0.49386,0.11284 1.75523,0.0671 2.34535,-0.0851 z m -2.40159,-0.73 c 0.26723,-0.24629 0.48588,-0.46934 0.48588,-0.49566 0,-0.0263 -0.18116,-0.15516 -0.40258,-0.28631 l -0.40258,-0.23844 0.73081,-0.0278 0.73082,-0.0278 0.41718,-0.29151 c 0.22945,-0.16034 0.42866,-0.29152 0.4427,-0.29152 0.014,0 0.081,0.13677 0.14889,0.30395 l 0.12337,0.30395 0.79223,0.0153 0.79223,0.0153 -0.64539,0.274 c -0.35497,0.15069 -0.66383,0.28907 -0.68637,0.30751 -0.0226,0.0184 0.0184,0.22623 0.0911,0.46175 0.0727,0.23553 0.12076,0.42823 0.10687,0.42823 -0.0139,0 -0.2885,-0.11244 -0.61023,-0.24987 -0.32173,-0.13744 -0.65123,-0.24956 -0.73222,-0.24916 -0.081,4.2e-4 -0.30966,0.052 -0.50818,0.11485 -0.19852,0.0627 -0.58582,0.17415 -0.86068,0.24752 l -0.49975,0.13337 z m -17.81914,-0.27758 c -0.43546,-0.28597 -0.78673,-0.58185 -1.26856,-1.0685 l -0.66633,-0.67301 0.19364,-0.0188 c 0.17359,-0.0169 0.21626,0.009 0.41205,0.24946 0.38941,0.47832 1.0422,1.07493 1.58475,1.44839 0.66754,0.45949 0.66588,0.45794 0.4913,0.45794 -0.0859,0 -0.38912,-0.16056 -0.74685,-0.39549 z m 0.25846,-0.3614 c 0,-0.0192 0.15114,-0.30957 0.33586,-0.64513 0.18472,-0.33556 0.3284,-0.61596 0.31928,-0.62312 -0.009,-0.007 -0.0665,-0.0427 -0.12763,-0.0791 -0.0888,-0.0528 0.0315,-0.0623 0.60059,-0.0472 0.49715,0.0132 0.72474,0.0401 0.75512,0.0893 0.0737,0.11919 -7.3e-4,0.33566 -0.1624,0.47158 -0.1182,0.0995 -0.14741,0.16379 -0.12575,0.27708 0.0226,0.11786 -0.0165,0.1922 -0.19385,0.3696 l -0.22207,0.22206 h -0.58958 c -0.32426,0 -0.58957,-0.0158 -0.58957,-0.0351 z m 1.10046,-0.43696 c 0.0617,-0.13529 0.0577,-0.13881 -0.15572,-0.13881 -0.15966,0 -0.23454,0.0291 -0.27645,0.1074 -0.0856,0.15992 -0.0762,0.17023 0.15572,0.17023 0.17352,0 0.22497,-0.0258 0.27645,-0.13882 z m 0.27745,-0.54139 c 0.0286,-0.15109 -0.35375,-0.13595 -0.43574,0.0173 -0.058,0.10828 -0.0484,0.1135 0.17803,0.0972 0.1753,-0.0126 0.24421,-0.0432 0.25771,-0.11443 z m 0.55168,0.9751 c -0.0534,-0.014 -0.096,-0.0423 -0.0945,-0.063 10e-4,-0.0207 0.16158,-0.32494 0.35584,-0.67615 l 0.35318,-0.63857 0.43935,0.005 c 0.59589,0.007 0.73694,0.0473 0.73694,0.20959 0,0.17488 -0.21437,0.48206 -0.43125,0.61796 -0.16477,0.10326 -0.17495,0.12739 -0.14486,0.34351 l 0.0324,0.23244 -0.20227,-0.0103 c -0.20909,-0.0107 -0.22824,-0.0374 -0.26572,-0.37071 -0.0271,-0.24125 -0.17789,-0.19351 -0.34218,0.10835 -0.14892,0.27361 -0.20192,0.3029 -0.43687,0.24151 z m 1.22598,-0.95118 c 0.0163,-0.11464 -10e-4,-0.12684 -0.16028,-0.11106 -0.1118,0.0111 -0.21026,0.0658 -0.26343,0.1463 -0.0848,0.12845 -0.0846,0.12857 0.16028,0.11107 0.20793,-0.0149 0.24795,-0.0371 0.26343,-0.14631 z m 0.60644,0.95118 c -0.0534,-0.014 -0.0972,-0.039 -0.0972,-0.0556 0,-0.0166 0.15348,-0.3271 0.34106,-0.69003 l 0.34107,-0.65986 h 0.26741 0.2674 l 0.0162,0.43035 0.0162,0.43033 0.24704,-0.43033 c 0.23009,-0.40082 0.2597,-0.43035 0.43147,-0.43035 h 0.18443 l -0.11995,0.23599 c -0.3845,0.75655 -0.67533,1.21362 -0.7532,1.18374 -0.0452,-0.0173 -0.14259,-0.0315 -0.21644,-0.0315 -0.13009,0 -0.13428,-0.013 -0.13428,-0.41646 0,-0.22905 -0.0202,-0.41646 -0.0448,-0.41646 -0.0246,0 -0.15135,0.1999 -0.28153,0.44423 -0.13017,0.24432 -0.26618,0.44132 -0.30221,0.43778 -0.036,-0.004 -0.10926,-0.0179 -0.1627,-0.0318 z m 1.99901,-0.0217 c -0.15334,-0.0893 -0.1159,-0.27129 0.14883,-0.72354 0.29144,-0.49784 0.43756,-0.6067 0.86666,-0.64561 0.47103,-0.0427 0.6087,0.005 0.6087,0.21079 0,0.33711 -0.42038,0.97509 -0.74358,1.12846 -0.21054,0.0999 -0.73014,0.11755 -0.88061,0.0299 z m 0.9829,-0.62557 c 0.10838,-0.19382 0.19706,-0.36873 0.19706,-0.3887 0,-0.0199 -0.0871,-0.0363 -0.19365,-0.0363 -0.20158,0 -0.2918,0.0981 -0.54905,0.59692 l -0.0931,0.18046 h 0.22082 c 0.21351,0 0.22735,-0.0116 0.41789,-0.35238 z m -13.17127,-2.02072 c -0.16033,-0.0112 -0.29152,-0.027 -0.29152,-0.0352 0,-0.014 0.29276,-0.54941 1.68358,-3.07885 l 0.58983,-1.07273 -0.28991,-0.12624 c -0.15944,-0.0694 -0.36184,-0.15611 -0.44978,-0.19261 -0.0879,-0.0365 -0.14814,-0.0781 -0.13379,-0.0925 0.0144,-0.0144 0.57981,-0.009 1.25658,0.0109 l 1.23049,0.037 -0.28607,0.53255 c -0.15733,0.29291 -0.35963,0.66375 -0.44955,0.82409 l -0.16348,0.29152 h 0.13713 c 0.0956,0 0.40963,-0.23139 1.03633,-0.76351 0.49455,-0.41993 0.97872,-0.8072 1.07591,-0.86059 0.14107,-0.0775 0.31383,-0.0971 0.85691,-0.0972 0.37412,-5e-5 0.67987,0.0187 0.67945,0.0416 -4.2e-4,0.0229 -0.60846,0.57268 -1.35121,1.22172 l -1.35043,1.18006 0.12803,0.8467 c 0.0704,0.46568 0.14407,0.9529 0.16366,1.08269 l 0.0356,0.23599 h -0.69599 -0.69599 l -0.0411,-0.18046 c -0.0226,-0.0993 -0.0811,-0.50531 -0.13003,-0.90233 l -0.089,-0.72186 -0.17232,-0.0168 c -0.16783,-0.0164 -0.18242,0.001 -0.55871,0.6941 -0.21252,0.39102 -0.45357,0.81714 -0.53567,0.94694 l -0.14928,0.23599 -0.37413,-0.0103 c -0.20576,-0.006 -0.5053,-0.0194 -0.66563,-0.0307 z m 5.38601,-0.0137 c -0.82537,-0.0939 -0.82011,-0.55821 0.0242,-2.13866 0.5822,-1.08978 0.79498,-1.41737 1.1595,-1.78515 0.57304,-0.57815 1.13597,-0.72088 2.65287,-0.67258 0.75753,0.0242 0.89961,0.043 1.02427,0.13607 0.34928,0.26077 0.25746,0.72637 -0.38656,1.9604 -0.99901,1.91422 -1.46783,2.38207 -2.50667,2.50153 -0.51035,0.0587 -1.44425,0.0579 -1.96762,-0.001 z m 2.14143,-1.09001 c 0.26141,-0.17096 1.20477,-1.83119 1.30938,-2.30436 0.0308,-0.13941 0.0206,-0.14639 -0.2586,-0.17655 -0.5048,-0.0545 -0.81647,0.0274 -1.02584,0.26958 -0.4235,0.48991 -1.26108,2.13569 -1.14341,2.2467 0.13815,0.13033 0.90207,0.10617 1.11847,-0.0353 z m 1.67643,1.0753 c 6e-5,-0.0382 0.12685,-0.2943 0.28173,-0.56916 0.15489,-0.27486 0.70877,-1.27437 1.23085,-2.22111 0.52208,-0.94676 0.97626,-1.73973 1.00929,-1.76217 0.033,-0.0224 0.43634,-0.0412 0.89624,-0.0416 0.63168,-6.3e-4 0.86228,0.0182 0.94291,0.0772 0.10399,0.076 0.0999,0.1046 -0.15932,1.11647 -0.14631,0.57114 -0.25678,1.04768 -0.24549,1.05897 0.02,0.02 0.85715,-0.98975 1.39273,-1.68006 0.40665,-0.52413 0.54718,-0.57429 1.59557,-0.56952 0.47137,0.002 0.9003,0.021 0.95318,0.042 0.0839,0.0333 0.0534,0.11553 -0.24047,0.64855 -0.18513,0.33575 -0.61262,1.12269 -0.94999,1.74877 -0.33735,0.62608 -0.74687,1.36676 -0.91003,1.64595 -0.33955,0.58106 -0.3032,0.56512 -1.20389,0.52813 l -0.48399,-0.0199 0.25999,-0.48018 c 0.143,-0.2641 0.53151,-0.96406 0.86336,-1.55547 0.33186,-0.59141 0.59434,-1.08433 0.58329,-1.09539 -0.0111,-0.0111 -0.51835,0.5848 -1.12732,1.32412 -1.58889,1.92899 -1.4925,1.83554 -1.91965,1.86121 -0.61376,0.0369 -0.60587,0.10261 -0.1872,-1.56011 0.37497,-1.48916 0.39669,-1.59506 0.30887,-1.5063 -0.0562,0.0568 -1.29603,2.22978 -1.49671,2.62323 -0.21826,0.42792 -0.27127,0.45579 -0.86656,0.45579 -0.38506,0 -0.52748,-0.0187 -0.52739,-0.0694 z m 7.07625,0.0162 -0.78081,-0.0301 0.79336,-1.44373 c 0.43634,-0.79404 1.00011,-1.82483 1.2528,-2.29063 l 0.45944,-0.84691 1.08279,0.0244 c 0.59554,0.0134 1.3782,0.026 1.73926,0.0279 l 0.65647,0.004 -0.26703,0.49975 -0.26704,0.49975 h -1.05773 -1.05773 l -0.17798,0.36093 -0.17799,0.36093 0.73523,7.2e-4 c 0.40437,4.2e-4 0.7621,0.0192 0.79495,0.0416 0.0391,0.0267 -0.0245,0.19864 -0.18474,0.4989 l -0.24448,0.45811 -0.84252,7.2e-4 -0.84251,7.2e-4 -0.20824,0.38586 c -0.11452,0.21221 -0.20823,0.3992 -0.20823,0.41551 0,0.0163 0.54973,0.0296 1.22162,0.0296 0.88273,0 1.22161,0.0177 1.22161,0.0638 0,0.0351 -0.11375,0.27247 -0.25278,0.52752 l -0.25279,0.46373 -1.17706,-0.0116 c -0.64738,-0.007 -1.52842,-0.0251 -1.95787,-0.0416 z m 4.76494,0.0121 c -0.19088,-0.0108 -0.34705,-0.0285 -0.34705,-0.0391 0,-0.0107 0.42479,-0.79553 0.94398,-1.74407 0.51918,-0.94855 0.94397,-1.73822 0.94397,-1.75481 0,-0.0166 -0.2609,-0.0302 -0.57977,-0.0302 -0.31887,0 -0.59449,-0.0238 -0.61249,-0.0529 -0.018,-0.0291 0.0828,-0.26651 0.22388,-0.52752 l 0.25659,-0.47457 h 1.9662 c 1.28612,0 1.9662,0.0194 1.9662,0.056 0,0.0309 -0.11429,0.26743 -0.25398,0.52579 l -0.25398,0.46973 -0.63938,0.0156 -0.63938,0.0156 -0.97676,1.79078 -0.97676,1.79077 -0.33711,-0.0107 c -0.18541,-0.006 -0.49328,-0.0196 -0.68416,-0.0304 z m 1.88388,-0.038 c 0.01,-0.0435 0.59457,-0.76193 1.29932,-1.59643 0.70476,-0.8345 1.53729,-1.82267 1.85007,-2.19592 0.65473,-0.78132 0.6752,-0.79205 1.51207,-0.79253 0.69947,-4.2e-4 0.88151,0.0369 0.88151,0.18059 0,0.0613 -0.17314,0.88904 -0.38476,1.83936 -0.21162,0.95033 -0.4151,1.89029 -0.45218,2.0888 -0.10653,0.57035 -0.0879,0.55527 -0.68749,0.55527 -0.28656,0 -0.56054,-0.0152 -0.60885,-0.0337 -0.10961,-0.0421 -0.111,-0.23602 -0.004,-0.63263 0.0451,-0.16798 0.0823,-0.32415 0.0826,-0.34705 7.2e-4,-0.0505 -0.7774,-0.0552 -1.11602,-0.007 -0.22337,0.032 -0.27313,0.0717 -0.59512,0.47501 -0.19327,0.24206 -0.41353,0.46373 -0.48949,0.49261 -0.076,0.0289 -0.40068,0.0525 -0.72161,0.0525 -0.47646,0 -0.5802,-0.0145 -0.56554,-0.0791 z m 3.88229,-2.58619 c 0.0832,-0.35122 0.14663,-0.64343 0.14093,-0.64937 -0.0124,-0.0129 -0.93118,1.1334 -0.99712,1.24401 -0.0377,0.0631 0.0216,0.074 0.32952,0.0604 l 0.3754,-0.0165 z m -15.74117,-2.45711 c -0.0439,-0.0687 -0.43331,-0.69965 -0.86548,-1.40207 l -0.78576,-1.27715 0.39907,-0.0165 c 0.34857,-0.0144 0.40904,-0.002 0.47789,0.0961 0.077,0.10996 0.0969,0.10312 0.8677,-0.29827 1.34421,-0.69997 2.14923,-0.91968 3.3698,-0.91968 0.79289,0 1.48261,0.10195 2.1064,0.31135 0.41994,0.14096 1.40924,0.57936 1.37797,0.61062 -0.009,0.009 -0.25298,-0.0575 -0.54182,-0.14799 -0.84571,-0.26514 -1.38534,-0.3482 -2.24731,-0.34589 -1.22667,0.004 -2.10128,0.22659 -3.30391,0.84361 -0.38176,0.19586 -0.79915,0.40839 -0.92756,0.47229 -0.1284,0.0639 -0.2346,0.13775 -0.23599,0.16409 -0.001,0.0263 0.27233,0.46706 0.60827,0.97937 0.33594,0.5123 0.61081,0.95927 0.61081,0.99324 0,0.0398 -0.1474,0.0618 -0.41518,0.0618 -0.36992,0 -0.42387,-0.0137 -0.4949,-0.12494 z m -8.74572,-0.55528 c 0.13407,-0.25575 0.61903,-0.82045 1.07644,-1.25343 0.79009,-0.74789 1.73706,-1.32831 2.73663,-1.67736 l 0.50904,-0.17775 0.27083,0.22676 c 0.61633,0.51602 0.99684,0.46989 2.23216,-0.2706 1.60156,-0.96002 2.6659,-1.42431 3.8302,-1.67086 0.84093,-0.17807 2.269,-0.17999 3.14997,-0.004 1.20304,0.24001 2.23944,0.68374 3.80089,1.62731 1.08125,0.6534 1.57221,0.7836 2.08197,0.55215 0.12742,-0.0578 0.27259,-0.16764 0.32262,-0.24399 0.13363,-0.20396 0.20753,-0.21202 0.62352,-0.068 1.57304,0.54452 3.25006,1.83282 3.92544,3.01556 0.0301,0.0527 -0.0513,0.0687 -0.33846,0.0667 l -0.37809,-0.003 -0.2221,-0.31107 c -0.26489,-0.37098 -0.90799,-0.95045 -1.49268,-1.345 -0.46775,-0.31562 -1.49575,-0.83735 -1.64992,-0.83735 -0.0541,0 -0.21876,0.0746 -0.36585,0.16575 -0.48437,0.30021 -1.09258,0.33664 -1.72042,0.10306 -0.15779,-0.0587 -0.64505,-0.322 -1.0828,-0.58509 -1.35735,-0.81579 -2.51792,-1.31534 -3.60155,-1.55023 -0.65962,-0.14299 -2.16882,-0.14516 -2.83043,-0.004 -1.10756,0.23616 -2.49077,0.82057 -3.58155,1.51322 -1.33817,0.84974 -2.22193,1.00702 -2.90513,0.51701 -0.28991,-0.20793 -0.37431,-0.19844 -1.03357,0.11621 -0.93638,0.44691 -1.8575,1.15603 -2.42018,1.86317 l -0.28626,0.35974 h -0.3581 c -0.35375,0 -0.35731,-10e-4 -0.29262,-0.12493 z m 2.35388,-0.13629 c 0.29496,-0.27285 1.0266,-0.77158 1.37653,-0.93832 0.18185,-0.0866 0.23466,-0.0905 0.3887,-0.0287 0.87064,0.3495 1.92269,0.29092 2.80884,-0.15641 l 0.33801,-0.17062 0.14362,0.28341 c 0.079,0.15589 0.1357,0.28973 0.12601,0.29743 -0.01,0.008 -0.2425,0.096 -0.51737,0.19616 -0.67895,0.24746 -1.48868,0.29494 -2.01113,0.11791 -0.59542,-0.20176 -0.77854,-0.15528 -1.52995,0.38836 l -0.37599,0.27203 -0.51245,-0.002 -0.51246,-0.002 0.27764,-0.25683 z m 9.14008,0.13629 c 0.0359,-0.0687 0.22797,-0.42231 0.42693,-0.78579 0.34174,-0.62429 0.35609,-0.66499 0.25933,-0.73574 -0.0894,-0.0654 -0.0518,-0.0749 0.29689,-0.0749 0.21961,0 0.3993,0.0133 0.3993,0.0296 0,0.0163 -0.0641,0.1562 -0.14255,0.31093 -0.0784,0.15472 -0.13048,0.29339 -0.11573,0.30814 0.0147,0.0148 0.1667,0.009 0.33767,-0.012 0.30372,-0.0379 0.31495,-0.0457 0.48963,-0.33774 0.1716,-0.28689 0.18832,-0.29891 0.41569,-0.29891 0.1303,0 0.2369,0.019 0.2369,0.0423 0,0.0233 -0.19732,0.40431 -0.43851,0.84679 l -0.4385,0.80451 -0.2556,0.0169 c -0.30137,0.02 -0.31722,-0.027 -0.11821,-0.3501 0.19467,-0.31605 0.18161,-0.36092 -0.10506,-0.36092 -0.35403,0 -0.40177,0.0317 -0.59521,0.39459 l -0.17444,0.32727 h -0.27185 c -0.26422,0 -0.27003,-0.004 -0.20668,-0.12494 z m 2.61795,0.0677 c -0.17622,-0.0708 -0.15863,-0.23646 0.0735,-0.69237 0.4283,-0.84109 0.5828,-0.96728 1.23938,-1.01229 0.64441,-0.0442 0.81135,0.11015 0.58748,0.54306 -0.0725,0.14012 -0.11696,0.16383 -0.30751,0.16383 -0.20989,0 -0.22185,-0.009 -0.20679,-0.1527 0.015,-0.14365 0.003,-0.1527 -0.20462,-0.1527 -0.21326,0 -0.22852,0.0129 -0.45811,0.38662 -0.30454,0.49576 -0.30749,0.58511 -0.0194,0.58511 0.20573,0 0.39266,-0.10762 0.39266,-0.22608 0,-0.0283 0.11245,-0.0515 0.24988,-0.0515 0.13742,0 0.24987,0.0218 0.24987,0.0484 0,0.0266 -0.0937,0.15383 -0.20823,0.28271 -0.16006,0.18012 -0.26603,0.24543 -0.4581,0.28236 -0.32171,0.0619 -0.77058,0.0597 -0.9301,-0.004 z m 5.05158,-0.65762 c -0.42874,-0.10889 -1.14482,-0.39235 -1.10124,-0.43593 0.0142,-0.0142 0.20131,0.0139 0.41564,0.0627 0.59448,0.1352 1.15732,0.11632 1.65523,-0.0555 0.40304,-0.13911 0.42574,-0.14102 0.6479,-0.0546 0.12662,0.0492 0.29269,0.13773 0.36904,0.1966 l 0.13882,0.10704 -0.27764,0.12373 c -0.38903,0.17337 -1.2794,0.20036 -1.84775,0.056 z"
         id="path3195" />
    </g>
  </g>
</svg>
