<?xml version="1.0" encoding="UTF-8" standalone="no"?>
<!-- Created with Inkscape (http://www.inkscape.org/) -->

<svg
   width="41.008999mm"
   height="41.008999mm"
   viewBox="0 0 41.008999 41.009"
   version="1.1"
   id="svg1"
   inkscape:version="1.4.2 (f4327f4, 2025-05-13)"
   sodipodi:docname="268.svg"
   xmlns:inkscape="http://www.inkscape.org/namespaces/inkscape"
   xmlns:sodipodi="http://sodipodi.sourceforge.net/DTD/sodipodi-0.dtd"
   xmlns="http://www.w3.org/2000/svg"
   xmlns:svg="http://www.w3.org/2000/svg">
  <sodipodi:namedview
     id="namedview1"
     pagecolor="#ffffff"
     bordercolor="#000000"
     borderopacity="0.25"
     inkscape:showpageshadow="2"
     inkscape:pageopacity="0.0"
     inkscape:pagecheckerboard="0"
     inkscape:deskcolor="#d1d1d1"
     inkscape:document-units="mm"
     inkscape:zoom="2.8970539"
     inkscape:cx="84.223494"
     inkscape:cy="68.000116"
     inkscape:window-width="1168"
     inkscape:window-height="1081"
     inkscape:window-x="3737"
     inkscape:window-y="0"
     inkscape:window-maximized="0"
     inkscape:current-layer="layer1" />
  <defs
     id="defs1" />
  <g
     inkscape:label="Layer 1"
     inkscape:groupmode="layer"
     id="layer1"
     transform="translate(-114.0891,-77.774176)">
    <g
       id="g15"
       transform="translate(-567.26187,252.98046)">
      <circle
         style="fill:none;stroke:#ff0000;stroke-width:0.1;stroke-dasharray:none"
         id="path788-8-1-8-1-9-2-6-3-4-7-1-6-1-0-8-3-6-1-0"
         cx="701.85547"
         cy="-154.70178"
         r="19.954653" />
      <circle
         style="fill:none;stroke:#0000ff;stroke-width:0.1;stroke-linecap:round;stroke-dasharray:none;stroke-opacity:1;paint-order:markers stroke fill"
         id="path13019-1-33-3-83-70-3-7-5-9-5-4-1-5-2-2"
         cx="701.85547"
         cy="-169.71275"
         r="2" />
      <path
         style="fill:#000000;stroke-width:0.1;stroke-dasharray:none"
         d="m 701.02013,-139.4477 c -1.60117,-0.88979 -2.38547,-1.3462 -3.17777,-1.84926 -2.29316,-1.45598 -3.72066,-2.79677 -4.60358,-4.32393 -0.18135,-0.31367 -0.44439,-0.8723 -0.60379,-1.28232 -0.4395,-1.13048 -0.681,-2.23698 -0.78532,-3.59843 -0.0325,-0.42294 -0.0503,-0.79714 -0.0749,-1.57014 -0.0553,-1.73441 -0.12786,-2.46037 -0.33087,-3.3141 -0.3832,-1.61151 -1.24268,-3.07269 -2.64707,-4.50025 -0.13319,-0.1354 -0.24217,-0.25123 -0.24217,-0.25738 0,-0.0101 5.50655,-5.35709 5.56417,-5.4029 0.0242,-0.0193 0.0251,-0.0188 0.21333,0.10749 1.96542,1.3187 3.8819,2.07147 5.83089,2.29026 0.34092,0.0383 0.62006,0.0551 1.0166,0.0613 2.44657,0.0384 4.9857,-0.72889 7.89982,-2.38735 0.17924,-0.10197 0.33072,-0.18547 0.33663,-0.18547 0.0142,0 4.97407,5.23783 4.97385,5.25257 0,0.007 -0.0581,0.0833 -0.12912,0.17107 -0.47224,0.58471 -0.90264,1.21742 -1.24912,1.83627 -0.13949,0.24912 -0.40357,0.78572 -0.51343,1.0432 -0.53657,1.25765 -0.82758,2.52713 -0.9553,4.16753 -0.034,0.43667 -0.0575,0.90946 -0.0962,1.94273 -0.027,0.71952 -0.0521,1.17742 -0.0855,1.56481 -0.12726,1.47451 -0.39827,2.51078 -0.9334,3.56921 -0.43332,0.85706 -0.95866,1.57929 -1.6847,2.31611 -0.93702,0.95093 -2.04517,1.7792 -3.92819,2.93602 -0.8717,0.53555 -3.02844,1.81339 -3.0592,1.81256 -0.009,0 -0.34044,-0.18009 -0.73551,-0.39963 z m 1.13774,-0.79398 c 1.6085,-0.94858 2.40729,-1.43349 3.11471,-1.89077 1.75079,-1.13172 2.86802,-2.09821 3.68839,-3.19071 0.64168,-0.85456 1.10693,-1.84587 1.33627,-2.84721 0.18168,-0.79326 0.26288,-1.57 0.31885,-3.04981 0.0414,-1.09506 0.0592,-1.468 0.0912,-1.91078 0.13481,-1.86827 0.47047,-3.30492 1.10429,-4.72638 0.33985,-0.76219 0.81967,-1.5829 1.35203,-2.31261 0.0716,-0.098 0.12988,-0.18188 0.12964,-0.18628 -2.8e-4,-0.005 -0.0311,-0.0416 -0.0686,-0.0825 l -0.0682,-0.0745 -0.0512,0.0491 c -0.0282,0.027 -3.97919,3.68616 -8.7801,8.13148 -4.8009,4.44531 -8.75526,8.10849 -8.78746,8.1404 l -0.0586,0.058 0.0692,0.0642 c 1.04478,0.96951 2.18639,1.77637 4.05576,2.86645 0.62547,0.36473 2.11223,1.19746 2.13858,1.19782 0.008,0 0.19503,-0.10602 0.41517,-0.23584 z m 1.61377,-12.71422 c 4.84188,-4.48352 8.80343,-8.15546 8.80343,-8.15988 0,-0.004 -0.53412,-0.57239 -1.18692,-1.26215 -0.65281,-0.68977 -1.23482,-1.30509 -1.29337,-1.36738 -0.0586,-0.0623 -0.11121,-0.11222 -0.11709,-0.11098 -0.0216,0.005 -16.89748,15.63865 -16.89821,15.6548 -0.002,0.0518 0.20965,0.68777 0.3369,1.01049 0.3714,0.94203 0.77702,1.62466 1.39055,2.34022 l 0.0944,0.11008 0.0335,-0.0317 c 0.0184,-0.0174 3.99499,-3.69998 8.83687,-8.1835 z m -8.92053,5.93983 c -0.39812,-0.43005 -0.73911,-0.79988 -0.75776,-0.82188 l -0.0339,-0.04 0.28736,-0.26598 c 0.15806,-0.1463 0.31702,-0.28608 0.35325,-0.31064 0.15037,-0.10197 0.30861,-0.11591 0.46209,-0.0408 0.14325,0.0702 0.32071,0.26875 0.36913,0.41314 0.0213,0.0634 0.022,0.17189 0.002,0.22982 -0.009,0.0241 -0.0145,0.0439 -0.0133,0.0439 10e-4,-2e-5 0.0274,-0.0101 0.0581,-0.0213 0.0669,-0.0255 0.15847,-0.0275 0.23295,-0.006 0.1772,0.0526 0.41351,0.30221 0.49133,0.51896 0.0229,0.0635 0.0277,0.0962 0.028,0.18375 2.7e-4,0.20537 -0.0255,0.24284 -0.41957,0.60836 -0.17264,0.16014 -0.31874,0.29088 -0.32467,0.29055 -0.006,0 -0.33651,-0.35246 -0.73463,-0.78249 z m 0.92508,0.15358 c 0.10084,-0.0943 0.13416,-0.14617 0.134,-0.20837 -2.7e-4,-0.1161 -0.16426,-0.32357 -0.30076,-0.38061 -0.0936,-0.0391 -0.16176,-0.0135 -0.29526,0.11053 l -0.0905,0.0842 0.0327,0.0356 c 0.28966,0.31484 0.4125,0.44539 0.41914,0.44539 0.005,0 0.0497,-0.039 0.10062,-0.0866 z m -0.68897,-0.73227 c 0.12537,-0.12271 0.14434,-0.18664 0.0872,-0.29373 -0.0509,-0.0954 -0.17021,-0.20765 -0.24288,-0.2285 -0.0638,-0.0182 -0.11331,0.009 -0.26535,0.14622 l -0.0572,0.0516 0.18914,0.20439 c 0.10399,0.11245 0.19223,0.20439 0.19602,0.20439 0.003,0 0.0456,-0.038 0.0931,-0.0844 z m 1.14219,-0.76914 -0.567,-1.00254 0.0269,-0.022 c 0.0149,-0.0121 0.11098,-0.10006 0.21371,-0.19539 l 0.18676,-0.17334 0.9475,0.65237 c 0.52113,0.3588 0.94659,0.65492 0.94546,0.65805 -0.008,0.0209 -0.33078,0.30907 -0.34186,0.3048 -0.008,-0.003 -0.11099,-0.0777 -0.2297,-0.16627 -0.11874,-0.0886 -0.21959,-0.15959 -0.22414,-0.15792 -0.016,0.006 -0.34003,0.30855 -0.34003,0.31764 0,0.006 0.0653,0.1175 0.14515,0.24985 0.0798,0.13235 0.14091,0.24432 0.13572,0.24881 -0.006,0.005 -0.0773,0.0712 -0.16017,0.14833 -0.0829,0.0771 -0.15539,0.14018 -0.16105,0.14018 -0.006,0 -0.26544,-0.45113 -0.5773,-1.00255 z m 0.5986,-0.24973 0.0714,-0.0666 -0.30564,-0.23106 c -0.16808,-0.1271 -0.34394,-0.26515 -0.39078,-0.30678 -0.13002,-0.11559 -0.13211,-0.11544 -0.0399,0.003 0.0473,0.0606 0.17593,0.25799 0.28596,0.43851 l 0.20006,0.32824 0.0538,-0.0494 c 0.0295,-0.0272 0.0859,-0.0793 0.12514,-0.11594 z m 0.66891,-0.9213 -0.76059,-0.82157 0.0899,-0.0838 c 0.0495,-0.0461 0.12401,-0.11466 0.16562,-0.15234 l 0.0756,-0.0685 0.53111,0.25904 c 0.29212,0.14246 0.6389,0.32029 0.77064,0.39516 0.13172,0.0748 0.2443,0.1384 0.25015,0.14117 0.0145,0.007 -0.07,-0.0747 -0.38988,-0.37675 -0.24784,-0.23399 -0.74472,-0.75248 -0.75223,-0.78495 -0.003,-0.0131 0.28939,-0.28845 0.30633,-0.28845 0.0134,0 1.52411,1.63422 1.52037,1.64467 -0.002,0.006 -0.0736,0.0743 -0.15956,0.15364 l -0.15625,0.1444 -0.54368,-0.2544 c -0.48816,-0.22843 -0.7479,-0.36357 -1.00138,-0.52101 -0.0146,-0.009 -0.0242,-0.0141 -0.0213,-0.0113 0.003,0.003 0.14184,0.13501 0.3087,0.29335 0.16687,0.15835 0.3489,0.3353 0.40451,0.39322 0.19673,0.2049 0.43114,0.4637 0.43114,0.476 0,0.0139 -0.28485,0.28394 -0.29944,0.28386 -0.006,-4e-5 -0.35155,-0.36975 -0.76987,-0.8216 z m 1.46232,-1.33473 c -0.41522,-0.44828 -0.75634,-0.82107 -0.75802,-0.82838 -0.003,-0.0136 0.28876,-0.28858 0.30637,-0.28858 0.0113,0 1.52236,1.6303 1.52223,1.64218 -8e-5,0.008 -0.30308,0.2899 -0.31133,0.2899 -0.002,0 -0.34404,-0.3668 -0.75925,-0.81512 z m 0.72453,-0.67104 c -0.41558,-0.4486 -0.75697,-0.82129 -0.75864,-0.82819 -0.002,-0.0113 0.0531,-0.0655 0.25442,-0.24897 l 0.0491,-0.0448 0.30747,0.33161 c 0.1691,0.18238 0.32032,0.34648 0.33604,0.36463 0.0274,0.0317 0.0264,0.0263 -0.0245,-0.13147 -0.0468,-0.14508 -0.24365,-0.8754 -0.24365,-0.90375 0,-0.0198 0.34535,-0.33124 0.35226,-0.31771 0.003,0.007 0.0606,0.2475 0.12668,0.53437 0.066,0.28689 0.12547,0.52697 0.13197,0.53352 0.007,0.007 0.28727,0.12809 0.62392,0.27009 0.33665,0.14199 0.62301,0.26378 0.63636,0.27064 0.0232,0.0119 0.0164,0.0197 -0.1521,0.17532 -0.10929,0.10096 -0.18206,0.16067 -0.19139,0.1571 -0.008,-0.003 -0.20388,-0.0874 -0.43472,-0.18727 -0.23082,-0.0998 -0.42199,-0.18151 -0.42483,-0.18151 -0.003,0 0.006,0.0578 0.0194,0.12855 0.0282,0.14729 -0.003,0.10129 0.28054,0.40712 0.0969,0.10434 0.17737,0.19296 0.1788,0.19694 0.002,0.007 -0.28863,0.2804 -0.30473,0.28671 -0.005,0.001 -0.34696,-0.36431 -0.76256,-0.81292 z m -1.56361,-0.37401 c -0.0167,-0.0811 -0.0812,-0.48565 -0.0786,-0.49196 0.008,-0.0184 0.32949,-0.31092 0.33542,-0.30497 0.003,0.003 5.8e-4,0.14436 -0.007,0.31264 l -0.013,0.30594 -0.1022,0.0958 c -0.12689,0.11896 -0.1278,0.1195 -0.13537,0.0826 z m 4.27601,-0.88102 c -0.0953,-0.0207 -0.22076,-0.0901 -0.33485,-0.18544 -0.1111,-0.0927 -0.46705,-0.46584 -0.60318,-0.6322 -0.1577,-0.19273 -0.26669,-0.37063 -0.30398,-0.49622 -0.0355,-0.11966 -0.0171,-0.30115 0.0426,-0.42029 0.0593,-0.11821 0.21152,-0.27195 0.35603,-0.35942 0.28867,-0.17476 0.58992,-0.10321 0.92416,0.21961 0.22694,0.21915 0.5648,0.59766 0.65681,0.7358 0.10456,0.15698 0.14269,0.2649 0.14269,0.40375 0,0.16479 -0.0588,0.29509 -0.20038,0.44384 -0.15573,0.16364 -0.30533,0.2594 -0.45403,0.29063 -0.09,0.0189 -0.1387,0.0189 -0.2258,-5e-5 z m 0.2898,-0.43222 c 0.0263,-0.0124 0.0712,-0.0481 0.0998,-0.0794 0.091,-0.0996 0.0956,-0.20682 0.0147,-0.34366 -0.0356,-0.0602 -0.48687,-0.56167 -0.66042,-0.73393 -0.16572,-0.16451 -0.31983,-0.21304 -0.44624,-0.14053 -0.094,0.0539 -0.15156,0.16299 -0.13707,0.25959 0.0101,0.0674 0.0714,0.18556 0.1315,0.2533 0.15013,0.16931 0.60975,0.65941 0.65615,0.69965 0.11692,0.10141 0.24102,0.13227 0.34159,0.085 z m 1.1109,-0.87168 c -0.14747,-0.0374 -0.31217,-0.15659 -0.43316,-0.31335 l -0.0488,-0.0632 0.13253,-0.12637 c 0.0729,-0.0695 0.14411,-0.13436 0.15827,-0.14413 0.0254,-0.0175 0.0264,-0.017 0.0639,0.0299 0.021,0.0261 0.0613,0.0699 0.0896,0.097 0.15858,0.15216 0.33517,0.15272 0.44353,0.001 0.0365,-0.0509 0.0426,-0.0674 0.0426,-0.11424 0,-0.10389 -0.0801,-0.21513 -0.19031,-0.26418 -0.0856,-0.0381 -0.17935,-0.0363 -0.44838,0.009 -0.27998,0.0468 -0.47368,0.0541 -0.59614,0.0225 -0.21173,-0.0547 -0.38753,-0.21029 -0.46009,-0.40736 -0.0332,-0.0904 -0.0325,-0.24048 0.002,-0.32882 0.0763,-0.1964 0.26851,-0.38615 0.48306,-0.47682 0.0628,-0.0266 0.0951,-0.0331 0.18279,-0.0371 0.0934,-0.005 0.11574,-0.002 0.18205,0.0214 0.0416,0.0144 0.10377,0.045 0.13834,0.0678 0.0651,0.043 0.23067,0.1943 0.22544,0.20596 -0.002,0.003 -0.0688,0.0681 -0.14932,0.14318 l -0.14634,0.13654 -0.0642,-0.0595 c -0.15581,-0.14424 -0.26498,-0.16532 -0.37381,-0.0721 -0.11589,0.0992 -0.11121,0.26623 0.0101,0.34287 0.10118,0.0641 0.15297,0.066 0.43898,0.0162 0.2716,-0.0473 0.43143,-0.0635 0.54289,-0.0552 0.18663,0.014 0.2831,0.0572 0.40854,0.18314 0.14286,0.1434 0.20861,0.27524 0.21706,0.4353 0.008,0.14953 -0.033,0.27424 -0.13439,0.40909 -0.0914,0.12159 -0.29371,0.27524 -0.42279,0.32101 -0.071,0.0252 -0.23069,0.0363 -0.29335,0.0204 z m 1.08717,-1.92744 c -0.32494,-0.35108 -0.61495,-0.6653 -0.64449,-0.69823 l -0.0536,-0.0598 -0.17312,0.16117 c -0.0952,0.0887 -0.17884,0.16077 -0.18582,0.1603 -0.0135,-0.001 -0.22561,-0.22866 -0.22561,-0.24224 0,-0.005 0.22938,-0.22059 0.50975,-0.48041 l 0.50975,-0.47242 0.0837,0.0897 c 0.046,0.0494 0.0981,0.10715 0.11574,0.12857 l 0.032,0.039 -0.17561,0.16244 -0.17561,0.16245 0.0507,0.0541 c 0.42586,0.4543 1.23174,1.33258 1.23174,1.34241 0,0.0113 -0.29523,0.29345 -0.30521,0.29198 -0.002,0 -0.26936,-0.28778 -0.59429,-0.63887 z m 0.79101,-1.06939 c -0.41457,-0.44804 -0.75517,-0.81875 -0.75691,-0.82381 -0.006,-0.0151 0.64091,-0.60865 0.72104,-0.66254 0.10073,-0.0677 0.17943,-0.0961 0.28372,-0.10231 0.14963,-0.009 0.25301,0.0337 0.38057,0.15625 0.0841,0.0809 0.16485,0.19626 0.19943,0.28502 0.0357,0.0916 0.0354,0.22352 -5.8e-4,0.29636 l -0.0266,0.0536 0.0632,-0.0256 c 0.0882,-0.0357 0.2029,-0.03 0.27863,0.0141 0.0286,0.0166 0.15497,0.13132 0.28085,0.25493 0.24394,0.23952 0.34567,0.31948 0.39692,0.31197 0.0222,-0.003 0.033,0.001 0.0416,0.0173 0.0101,0.0189 0.005,0.0283 -0.0457,0.0744 -0.0316,0.029 -0.11065,0.10219 -0.17579,0.16281 -0.0651,0.0606 -0.12329,0.11019 -0.12935,0.11019 -0.0114,0 -0.22273,-0.19726 -0.43891,-0.40957 -0.0674,-0.0661 -0.13917,-0.12879 -0.15967,-0.13929 -0.0983,-0.0504 -0.20357,-0.007 -0.37166,0.15311 l -0.10817,0.10298 0.31976,0.34456 c 0.17588,0.18951 0.31977,0.34831 0.31977,0.35286 0,0.0118 -0.29513,0.28725 -0.30773,0.28725 -0.006,0 -0.34958,-0.36657 -0.76414,-0.81459 z m 0.35102,-0.57494 c 0.12021,-0.11504 0.15135,-0.16922 0.14361,-0.24982 -0.007,-0.0736 -0.0465,-0.14595 -0.11958,-0.2194 -0.10839,-0.10896 -0.19262,-0.13515 -0.28437,-0.0883 -0.0496,0.0252 -0.2989,0.25181 -0.29385,0.26695 0.002,0.006 0.0913,0.10535 0.19877,0.222 l 0.19545,0.21209 0.028,-0.0219 c 0.0153,-0.0121 0.0748,-0.0668 0.13204,-0.12155 z m 1.17097,-0.83842 -0.56649,-1.00282 0.0825,-0.0799 c 0.0453,-0.0439 0.14036,-0.13368 0.21114,-0.19949 l 0.1287,-0.11964 0.93549,0.64495 c 0.51452,0.35473 0.94112,0.65048 0.94804,0.65724 0.009,0.009 -0.0265,0.0485 -0.15098,0.16395 -0.0899,0.0834 -0.16875,0.15168 -0.17515,0.15168 -0.007,0 -0.10614,-0.071 -0.2216,-0.15762 -0.11549,-0.0866 -0.21602,-0.16125 -0.22339,-0.16569 -0.009,-0.006 -0.0721,0.0461 -0.18362,0.14877 -0.0936,0.0862 -0.17022,0.16082 -0.17022,0.16568 0,0.005 0.0653,0.11709 0.14513,0.24938 l 0.14512,0.24052 -0.0254,0.0237 c -0.20002,0.18667 -0.30518,0.28295 -0.3086,0.28256 -0.002,0 -0.25911,-0.45174 -0.57066,-1.00329 z m 0.58591,-0.2481 0.0833,-0.077 -0.29951,-0.22543 c -0.27119,-0.20409 -0.47307,-0.36805 -0.50845,-0.41292 -0.007,-0.009 -0.0133,-0.0135 -0.0133,-0.009 0,0.005 0.0398,0.0589 0.0884,0.12179 0.0487,0.0629 0.17652,0.259 0.28412,0.43579 l 0.19564,0.32142 0.0433,-0.0386 c 0.0238,-0.0213 0.0807,-0.0732 0.12652,-0.11561 z m 0.6851,-0.92203 c -0.51895,-0.3588 -0.94366,-0.65552 -0.94379,-0.65937 -2.7e-4,-0.008 0.32071,-0.30707 0.32941,-0.30695 0.0181,0 1.3671,1.02209 1.45086,1.09903 0.0558,0.0512 0.10546,0.0931 0.11053,0.093 0.006,-8e-5 0.005,-0.003 -0.002,-0.008 -0.0321,-0.0221 -0.21551,-0.28671 -0.63094,-0.90987 -0.25267,-0.37901 -0.46063,-0.69336 -0.46212,-0.69854 -0.003,-0.0101 0.33135,-0.32601 0.33725,-0.31927 0.0186,0.0212 1.16664,1.9718 1.16424,1.97809 -0.003,0.007 -0.10005,0.0985 -0.38209,0.35881 l -0.0276,0.0255 z m 1.78969,-0.18092 c -0.048,-0.0748 -1.10775,-1.95962 -1.10894,-1.97242 -0.001,-0.016 0.40614,-0.40214 0.41887,-0.39683 0.0236,0.0101 1.88435,1.30072 1.88435,1.30724 0,0.009 -0.31511,0.30086 -0.33034,0.30648 -0.005,0.002 -0.10524,-0.0691 -0.22294,-0.15748 -0.11763,-0.0884 -0.22038,-0.16331 -0.22831,-0.16636 -0.0164,-0.007 -0.3541,0.30369 -0.34867,0.32012 0.002,0.006 0.0675,0.11703 0.14581,0.24736 l 0.14238,0.23693 -0.15927,0.1466 c -0.0875,0.0807 -0.16332,0.14796 -0.16827,0.14964 -0.005,0.002 -0.0161,-0.008 -0.0247,-0.0213 z m -0.009,-1.18131 c 0.0646,-0.0596 0.11616,-0.112 0.11458,-0.11635 -0.002,-0.005 -0.13702,-0.10929 -0.30096,-0.23317 -0.16393,-0.12392 -0.33637,-0.25928 -0.38321,-0.30081 -0.0469,-0.0415 -0.0966,-0.0854 -0.11042,-0.0975 -0.0139,-0.0121 0.0137,0.0283 0.0616,0.0898 0.0478,0.0615 0.17656,0.25896 0.2861,0.43884 0.10952,0.17988 0.20271,0.32719 0.20702,0.32734 0.005,0 0.0607,-0.0486 0.1253,-0.10817 z m -9.08608,4.20713 8.24525,-7.63742 -0.0717,-0.0722 c -0.0394,-0.0398 -0.0756,-0.0722 -0.0803,-0.0722 -0.005,0 -0.13183,0.0673 -0.28237,0.14953 -0.34832,0.19027 -1.14312,0.58798 -1.48195,0.74155 -2.02294,0.91689 -3.79709,1.37548 -5.65783,1.46251 -0.32664,0.0153 -0.99538,0.007 -1.31466,-0.0166 -1.98408,-0.14544 -3.87383,-0.7807 -5.8441,-1.96449 -0.14345,-0.0862 -0.29906,-0.18127 -0.34582,-0.2113 l -0.085,-0.0546 -0.0747,0.0729 c -0.18636,0.18185 -4.29895,4.16723 -4.36946,4.23432 l -0.0793,0.0755 0.0506,0.0574 c 0.55698,0.63071 0.92152,1.1052 1.26261,1.64341 0.85578,1.35038 1.30727,2.7113 1.46909,4.42835 0.044,0.46753 0.0662,0.88079 0.096,1.78835 0.024,0.73144 0.0366,1.02716 0.0596,1.38917 0.0358,0.56683 0.10152,1.13754 0.18156,1.57858 l 0.017,0.0936 0.0302,-0.0243 c 0.0166,-0.0134 3.74053,-3.46125 8.27542,-7.66183 z m -5.57854,-0.47458 c -0.41512,-0.44855 -0.75609,-0.8191 -0.7577,-0.82347 -0.005,-0.0101 0.86129,-0.81133 0.87258,-0.80756 0.0113,0.003 0.22149,0.23297 0.22141,0.2414 -3e-5,0.003 -0.12463,0.12109 -0.27689,0.26142 -0.15225,0.14031 -0.27559,0.25842 -0.27405,0.26247 10e-4,0.005 0.086,0.0967 0.18753,0.20574 l 0.18476,0.1984 0.0548,-0.0512 c 0.28091,-0.26236 0.46396,-0.42884 0.4715,-0.42884 0.009,2e-5 0.18753,0.18749 0.21404,0.2246 0.0119,0.0167 -0.0154,0.0454 -0.24769,0.26062 -0.25687,0.23801 -0.26075,0.24222 -0.24223,0.26381 0.0101,0.0121 0.16252,0.17721 0.33816,0.367 0.17564,0.18977 0.32059,0.34815 0.3221,0.35196 0.002,0.007 -0.2892,0.28 -0.3055,0.28611 -0.005,0.002 -0.34764,-0.36399 -0.76277,-0.81252 z m 1.89891,-0.50035 c -0.15146,-0.0367 -0.30688,-0.14528 -0.51977,-0.36301 -0.51996,-0.53181 -0.69867,-0.77927 -0.73595,-1.01906 -0.0229,-0.14728 0.0157,-0.27472 0.1275,-0.42093 0.10107,-0.13214 0.25552,-0.251 0.39136,-0.30111 0.0962,-0.0355 0.25243,-0.0336 0.34289,0.005 0.10783,0.045 0.17972,0.0934 0.28213,0.19015 l 0.0962,0.0908 -0.15747,0.14567 -0.15748,0.14566 -0.0739,-0.0685 c -0.12356,-0.11442 -0.23915,-0.15748 -0.31602,-0.11774 -0.0382,0.0197 -0.0953,0.0847 -0.11415,0.12984 -0.0355,0.0849 -0.008,0.19976 0.0741,0.30705 0.0722,0.0946 0.65894,0.71883 0.72514,0.77151 0.098,0.078 0.17433,0.11053 0.24573,0.10456 0.0941,-0.008 0.18547,-0.0888 0.20182,-0.17904 0.0131,-0.0722 -0.0438,-0.18439 -0.16721,-0.32924 -0.0398,-0.0468 -0.0723,-0.0869 -0.0723,-0.0891 0,-0.0101 0.30154,-0.27851 0.31357,-0.27851 0.0155,0 0.12735,0.13072 0.18667,0.21819 0.0895,0.13182 0.14931,0.29408 0.14896,0.40359 -5.7e-4,0.18147 -0.10896,0.36025 -0.31047,0.51207 -0.18762,0.14138 -0.34104,0.18428 -0.5113,0.14301 z"
         id="path9" />
      <ellipse
         style="fill:none;stroke:#ff00ff;stroke-width:0.1;stroke-dasharray:none;stroke-opacity:1"
         id="path1138-9-4-0-0-1-2-4-9-7-82-6-75-2-1-90-4-5-1-0-9-7"
         cx="701.85547"
         cy="-154.70178"
         rx="18.492125"
         ry="18.492126" />
    </g>
  </g>
</svg>
