<?xml version="1.0" encoding="UTF-8" standalone="no"?>
<!-- Created with Inkscape (http://www.inkscape.org/) -->

<svg
   width="41.008999mm"
   height="41.008999mm"
   viewBox="0 0 41.008999 41.008999"
   version="1.1"
   id="svg1"
   inkscape:version="1.4.2 (f4327f4, 2025-05-13)"
   sodipodi:docname="369.svg"
   xmlns:inkscape="http://www.inkscape.org/namespaces/inkscape"
   xmlns:sodipodi="http://sodipodi.sourceforge.net/DTD/sodipodi-0.dtd"
   xmlns="http://www.w3.org/2000/svg"
   xmlns:svg="http://www.w3.org/2000/svg">
  <sodipodi:namedview
     id="namedview1"
     pagecolor="#ffffff"
     bordercolor="#000000"
     borderopacity="0.25"
     inkscape:showpageshadow="2"
     inkscape:pageopacity="0.0"
     inkscape:pagecheckerboard="0"
     inkscape:deskcolor="#d1d1d1"
     inkscape:document-units="mm"
     inkscape:zoom="1.4513545"
     inkscape:cx="86.470947"
     inkscape:cy="71.657199"
     inkscape:window-width="1050"
     inkscape:window-height="1081"
     inkscape:window-x="857"
     inkscape:window-y="0"
     inkscape:window-maximized="0"
     inkscape:current-layer="layer1"
     showguides="false" />
  <defs
     id="defs1" />
  <g
     inkscape:label="Layer 1"
     inkscape:groupmode="layer"
     id="layer1"
     transform="translate(333.37504,1257.5646)">
    <g
       id="g128"
       transform="translate(-376.58085,-1282.6668)">
      <path
         id="path46"
         style="fill:#000000;fill-opacity:1;stroke-width:0.488086"
         d="m 53.640228,36.571266 c -1.999944,0 -3.772056,0.712844 -5.12698,2.062697 -1.393011,1.387798 -2.089599,2.909181 -2.20243,4.809428 -0.08359,1.407736 0.11632,2.478523 0.682269,3.652724 1.021929,2.120235 3.031145,3.684661 5.258893,4.095126 l 0.87169,0.160668 v 2.14694 2.146687 l 0.87169,0.398264 c 2.190835,1.001152 4.860842,1.897516 7.134943,2.39513 0.816807,0.178732 1.601329,0.354953 1.743381,0.391705 0.486269,0.125812 1.80809,-0.01888 3.357621,-0.367744 2.382266,-0.536338 5.016844,-1.421669 7.199513,-2.419091 l 0.871689,-0.398264 v -2.146687 -2.14694 l 0.87169,-0.163442 c 2.868083,-0.538276 5.299411,-2.951878 5.851118,-5.807987 0.202205,-1.046803 0.09484,-2.852334 -0.225236,-3.789178 -0.78838,-2.307526 -2.828179,-4.21845 -5.148419,-4.822795 -0.964106,-0.251118 -2.757957,-0.25354 -3.711997,-0.005 -0.890809,0.232027 -2.041321,0.799525 -2.722518,1.343098 l -0.500667,0.399525 -0.441141,-0.387166 c -1.090115,-0.95713 -2.830784,-1.547653 -4.562248,-1.547653 -1.731463,0 -3.472391,0.590523 -4.5625,1.547653 l -0.441142,0.387166 -0.500666,-0.399525 c -1.253735,-1.000438 -2.845554,-1.535294 -4.568553,-1.535294 z m 10.072861,0.999063 c 1.721686,0 3.077925,0.545759 4.35517,1.752461 l 0.674955,0.637625 0.61215,-0.603323 c 2.040026,-2.011207 5.398376,-2.382342 7.772569,-0.858826 2.826318,1.81364 3.807917,5.520561 2.240012,8.458872 -0.448673,0.840837 -1.716225,2.108384 -2.557059,2.557058 -2.394577,1.277764 -5.317029,0.903625 -7.333192,-0.939033 l -0.728174,-0.665622 -0.686557,0.626275 c -2.537898,2.315756 -6.162102,2.315756 -8.700001,0 l -0.686304,-0.626275 -0.728426,0.665622 c -0.835285,0.763407 -1.661088,1.216682 -2.718734,1.492164 -1.473886,0.383897 -3.258595,0.170704 -4.610675,-0.550861 -0.844271,-0.450558 -2.111407,-1.717071 -2.560842,-2.559328 -2.250185,-4.216937 0.756731,-9.331386 5.517677,-9.385043 1.750337,-0.01972 3.281312,0.5883 4.495155,1.784997 l 0.611899,0.603323 0.674954,-0.637625 c 1.277246,-1.206702 2.633737,-1.752461 4.355423,-1.752461 z m -5.811266,3.506685 -0.613411,0.03934 -0.613412,0.03934 -0.04388,0.581127 c -0.02411,0.319619 -0.0036,1.465365 0.04565,2.546211 l 0.08954,1.965086 0.406336,0.260297 c 0.593413,0.380187 2.388165,0.377816 3.006018,-0.0041 l 0.435082,-0.268821 v -2.572192 -2.572191 h -0.581127 -0.581127 v 2.195368 2.195367 h -0.774835 -0.774836 v -2.20243 z m -6.459989,0.01413 0.09433,0.548842 c 0.126076,0.732578 0.128406,4.329815 0.0031,4.778152 l -0.09941,0.355132 h 1.609449 c 1.402557,0 1.668146,-0.03493 2.068498,-0.271141 l 0.459555,-0.27089 V 43.878731 41.526228 L 55.120798,41.30881 c -0.352437,-0.168066 -0.82332,-0.21767 -2.067741,-0.21767 z m 10.334167,0 v 2.841064 l -2.53e-4,2.841063 h 0.581127 0.581126 v -0.952907 c 0,-0.936998 0.0065,-0.955521 0.387418,-1.113321 0.308709,-0.127872 0.466126,-0.127872 0.774836,0 0.380974,0.1578 0.387417,0.176323 0.387417,1.113321 v 0.952907 h 0.581127 0.581127 V 45.57419 44.375111 l -0.412137,-0.243396 -0.412135,-0.243398 0.412135,-0.195222 0.412137,-0.195222 v -1.203367 -1.203365 h -0.575327 -0.575577 l -0.03784,0.936259 -0.03784,0.93626 -0.645698,0.352106 c -0.35513,0.193672 -0.689281,0.353473 -0.742549,0.355132 -0.05327,0.0016 -0.09686,-0.578099 -0.09686,-1.288365 v -1.291392 h -0.581126 z m 5.036431,0 v 2.844342 2.844343 l 1.951465,-0.03556 1.951465,-0.03557 v -0.879006 c -7.8e-5,-0.483377 -0.03266,-0.911183 -0.07239,-0.950889 -0.0397,-0.03971 -0.343951,0.07963 -0.676216,0.265341 -0.44242,0.247274 -0.789949,0.337729 -1.298202,0.337729 H 67.974683 V 43.286507 41.09114 h -0.581127 z m 7.526649,0 c -1.212718,0 -1.683123,0.05037 -2.033944,0.217671 l -0.456276,0.217417 v 2.623646 2.623393 h 0.581128 0.581126 v -0.903977 -0.903975 h 0.774836 0.774835 v 0.903975 0.903974 h 0.677981 0.677981 v -2.841063 -2.841064 z m -21.473689,1.16225 h 0.774836 0.774835 v 1.614242 1.61424 h -0.774835 -0.774836 v -1.61424 z m 20.145723,0 h 0.774836 0.774835 v 0.710267 0.710265 h -0.774835 -0.774836 v -0.710265 z m -14.301668,7.104678 0.441142,0.387417 c 1.090109,0.95713 2.831037,1.547654 4.5625,1.547654 1.683723,0 3.40461,-0.566653 4.486832,-1.477283 0.216158,-0.181887 0.456804,-0.330667 0.534717,-0.330667 0.07792,0 0.389255,0.188975 0.691854,0.419954 0.736945,0.562523 1.995169,1.113842 2.944476,1.290384 l 0.776097,0.144273 -0.03582,1.815516 -0.03557,1.815517 -1.126689,0.482002 c -1.593614,0.682067 -3.64498,1.351097 -5.523983,1.801139 -2.129116,0.509947 -3.005817,0.556455 -4.455303,0.236587 -2.470156,-0.545104 -5.903674,-1.667711 -7.284009,-2.381509 l -0.399778,-0.206825 v -1.781718 -1.78197 l 0.797284,-0.148309 c 0.926348,-0.172271 2.406453,-0.848537 3.125574,-1.42835 z m 11.692651,2.587576 c -0.06354,4.7e-5 -0.102907,0.0058 -0.102907,0.01715 0,0.02262 -0.116222,0.651073 -0.258279,1.396571 -0.142052,0.745497 -0.258278,1.397346 -0.258278,1.448528 0,0.05118 0.08717,0.05955 0.193708,0.01867 0.10654,-0.04088 0.19371,-0.121548 0.19371,-0.179332 0,-0.199714 0.799545,-0.294314 0.914568,-0.108205 0.07942,0.128522 0.145505,0.136232 0.252225,0.02951 0.10672,-0.106721 0.08176,-0.461783 -0.09585,-1.354954 -0.228776,-1.150501 -0.258223,-1.212194 -0.591468,-1.251035 -0.0964,-0.01124 -0.183893,-0.01695 -0.247434,-0.0169 z m -13.388864,0.02976 c -0.123815,-0.0036 -0.144525,0.219863 -0.144525,1.111809 0,1.075853 -0.0214,1.176125 -0.249451,1.176125 -0.157105,0 -0.264548,-0.103738 -0.290563,-0.280474 -0.06549,-0.445004 -0.36396,-0.448763 -0.36396,-0.0045 0,0.406847 0.162753,0.605159 0.581126,0.707996 0.746926,0.183597 0.839405,0.02742 0.839405,-1.417505 0,-0.660548 -0.02425,-1.200844 -0.05397,-1.200844 -0.02971,0 -0.146183,-0.03533 -0.258531,-0.07844 -0.02212,-0.0085 -0.04184,-0.01362 -0.05952,-0.01413 z m 1.598854,0.221707 c -0.160423,0 -0.193708,0.243929 -0.193708,1.420531 0,1.176602 0.03326,1.420531 0.193708,1.420531 0.16042,0 0.193709,-0.243929 0.193709,-1.420531 0,-1.176602 -0.03327,-1.420531 -0.193709,-1.420531 z m 10.337447,0 c -0.125868,0 -0.237349,0.254806 -0.340252,0.777862 -0.08418,0.427888 -0.195607,0.804446 -0.247686,0.83663 -0.05208,0.03219 -0.16843,-0.288981 -0.25853,-0.713545 -0.131583,-0.620045 -0.212869,-0.771808 -0.413144,-0.771808 -0.177742,0 -0.229272,0.06475 -0.179585,0.225994 0.0383,0.124297 0.161062,0.632782 0.272907,1.129968 0.11185,0.497185 0.233641,1.005671 0.270638,1.129968 0.03699,0.124296 0.171637,0.225993 0.299139,0.225993 0.189284,0 0.282356,-0.238035 0.507729,-1.296436 0.327691,-1.538939 0.327994,-1.544626 0.08878,-1.544626 z m -8.966099,0.157388 c -0.109478,-0.0044 -0.144525,0.34512 -0.144525,1.381436 0,1.186169 0.03317,1.431378 0.193709,1.431378 0.143488,0 0.193709,-0.150663 0.193709,-0.581127 0,-0.622993 0.03393,-0.645368 0.758693,-0.500414 0.378179,0.07564 0.403561,0.116225 0.403561,0.645696 0,0.416114 0.05104,0.564985 0.193708,0.564985 0.16042,0 0.19371,-0.24393 0.19371,-1.420533 0,-1.176602 -0.03327,-1.420531 -0.19371,-1.420531 -0.143492,0 -0.193708,0.150662 -0.193708,0.581126 v 0.581127 h -0.574065 -0.574064 l -0.03934,-0.603322 c -0.022,-0.337192 -0.110553,-0.626843 -0.20077,-0.656542 -0.0058,-0.0019 -0.01152,-0.0031 -0.0169,-0.0033 z m 6.175985,0.117789 c -0.03227,2.7e-4 -0.06826,0.0038 -0.109214,0.0086 -0.350348,0.0407 -0.366326,0.08725 -0.826542,2.395887 -0.07177,0.360081 -0.04756,0.419702 0.17126,0.419702 0.140276,0 0.255253,-0.05812 0.255253,-0.129138 0,-0.181651 0.690839,-0.161431 0.877995,0.02573 0.347019,0.347018 0.387713,-0.11416 0.125104,-1.420785 -0.22843,-1.136554 -0.268058,-1.301861 -0.493856,-1.299969 z m -3.059743,0.113501 c -0.198816,0.0012 -0.229913,0.164896 -0.258027,1.362268 l -0.03203,1.361259 0.731957,-0.03884 c 0.87644,-0.04636 1.147785,-0.361439 0.311245,-0.361439 h -0.527149 v -1.162253 c 0,-1.021325 -0.0274,-1.162164 -0.225994,-1.160992 z m 7.531189,0.274421 c 0.06422,-0.0067 0.131316,0.22966 0.226751,0.725147 0.07254,0.3766 0.04968,0.419702 -0.220446,0.419702 -0.293485,0 -0.29764,-0.01674 -0.16899,-0.667387 0.0613,-0.310028 0.111126,-0.472094 0.162685,-0.477462 z m -4.51836,0.383635 c 0.03261,-0.0022 0.05423,0.05901 0.05423,0.202536 0,0.14738 0.03456,0.441383 0.07693,0.653263 0.06434,0.321698 0.03019,0.397507 -0.207077,0.459554 -0.27137,0.07096 -0.280065,0.04723 -0.195474,-0.530429 0.06497,-0.443715 0.196969,-0.779781 0.271394,-0.784924 z" />
      <g
         id="g127"
         transform="translate(-5.5855707,23.254014)">
        <circle
           style="fill:none;stroke:#ff0000;stroke-width:0.1;stroke-dasharray:none"
           id="path788-8-1-8-1-9-2-56-8-1-7-71-3-2-7-5-4-5-2"
           cx="69.295883"
           cy="22.352648"
           r="19.954653" />
        <ellipse
           style="fill:none;stroke:#ff00ff;stroke-width:0.1;stroke-dasharray:none;stroke-opacity:1"
           id="path1138-9-4-0-0-1-2-4-9-7-82-6-75-2-1-90-2-7-6"
           cx="69.295883"
           cy="22.352648"
           rx="18.492125"
           ry="18.492126" />
        <circle
           style="fill:none;stroke:#0000ff;stroke-width:0.1;stroke-linecap:round;stroke-dasharray:none;stroke-opacity:1;paint-order:markers stroke fill"
           id="path13019-1-33-6-2-4-0-0-76-9-2-75-3-6-0"
           cx="69.295883"
           cy="7.3416572"
           r="2" />
      </g>
    </g>
  </g>
</svg>
