<?xml version="1.0" encoding="UTF-8" standalone="no"?>
<!-- Created with Inkscape (http://www.inkscape.org/) -->

<svg
   width="41.008999mm"
   height="41.008999mm"
   viewBox="0 0 41.008999 41.008999"
   version="1.1"
   id="svg1"
   inkscape:version="1.4.2 (f4327f4, 2025-05-13)"
   sodipodi:docname="370.svg"
   xmlns:inkscape="http://www.inkscape.org/namespaces/inkscape"
   xmlns:sodipodi="http://sodipodi.sourceforge.net/DTD/sodipodi-0.dtd"
   xmlns="http://www.w3.org/2000/svg"
   xmlns:svg="http://www.w3.org/2000/svg">
  <sodipodi:namedview
     id="namedview1"
     pagecolor="#ffffff"
     bordercolor="#000000"
     borderopacity="0.25"
     inkscape:showpageshadow="2"
     inkscape:pageopacity="0.0"
     inkscape:pagecheckerboard="0"
     inkscape:deskcolor="#d1d1d1"
     inkscape:document-units="mm"
     inkscape:zoom="1.4513545"
     inkscape:cx="86.470947"
     inkscape:cy="71.657199"
     inkscape:window-width="1050"
     inkscape:window-height="1081"
     inkscape:window-x="857"
     inkscape:window-y="0"
     inkscape:window-maximized="0"
     inkscape:current-layer="layer1"
     showguides="false" />
  <defs
     id="defs1" />
  <g
     inkscape:label="Layer 1"
     inkscape:groupmode="layer"
     id="layer1"
     transform="translate(333.37504,1257.5646)">
    <g
       id="g137"
       transform="translate(-339.56851,-1213.3752)">
      <circle
         style="fill:none;stroke:#ff0000;stroke-width:0.1;stroke-dasharray:none"
         id="path788-8-1-8-1-9-2-56-8-1-7-71-3-2-7-5-4-5"
         cx="26.697966"
         cy="-23.684853"
         r="19.954653" />
      <ellipse
         style="fill:none;stroke:#ff00ff;stroke-width:0.1;stroke-dasharray:none;stroke-opacity:1"
         id="path1138-9-4-0-0-1-2-4-9-7-82-6-75-2-1-90-2-7"
         cx="26.697966"
         cy="-23.684853"
         rx="18.492125"
         ry="18.492126" />
      <circle
         style="fill:none;stroke:#0000ff;stroke-width:0.1;stroke-linecap:round;stroke-dasharray:none;stroke-opacity:1;paint-order:markers stroke fill"
         id="path13019-1-33-6-2-4-0-0-76-9-2-75-3-6"
         cx="26.697966"
         cy="-38.695843"
         r="2" />
      <path
         style="fill:#000000;stroke-width:0.234021"
         d="m 25.974023,-13.899273 c -0.777427,-0.76385 -1.491837,-1.27588 -2.303157,-1.650711 -0.635163,-0.293445 -1.552445,-0.581064 -2.307849,-0.723633 -0.648574,-0.122407 -2.01165,-0.135344 -2.63151,-0.02498 -0.863342,0.153723 -0.876697,0.153094 -1.304159,-0.06144 -1.180459,-0.592463 -2.475875,-1.573196 -3.254782,-2.464131 -0.449645,-0.514314 -1.19943,-1.569281 -1.19943,-1.687628 0,-0.03182 0.1662,-0.05786 0.369329,-0.05786 0.319925,0 0.379174,0.01863 0.442919,0.139315 0.09735,0.184291 0.555082,0.779532 0.912989,1.18725 0.632595,0.720635 1.784104,1.610616 2.807828,2.170111 l 0.415522,0.227096 0.654438,-0.09723 c 1.768905,-0.262793 3.694159,0.022 5.385563,0.796658 0.634796,0.290735 1.528019,0.890232 2.220278,1.490168 l 0.546648,0.473744 0.351162,-0.332145 c 0.623333,-0.589573 1.784945,-1.413536 1.986109,-1.408802 0.05432,0.0012 0.206275,0.09438 0.337685,0.206881 l 0.23893,0.204557 -0.300847,0.17481 c -0.729906,0.424115 -1.276519,0.842429 -1.91595,1.466244 -0.377485,0.368265 -0.698739,0.669572 -0.713898,0.669572 -0.01516,0 -0.347179,-0.314032 -0.737818,-0.697852 z m 7.586826,-1.289572 c -1.967677,-0.132545 -3.27939,-0.549071 -3.887544,-1.234464 -0.210527,-0.237266 -1.86904,-2.898129 -2.665386,-4.276257 l -0.175387,-0.303515 h 0.52055 0.520551 l 0.354567,0.573147 c 0.462631,0.747831 1.184209,1.715696 1.579819,2.119039 0.349844,0.356683 0.799262,0.601803 1.294641,0.706122 0.464589,0.09784 1.727278,0.07879 2.922576,-0.04408 l 1.021644,-0.105019 0.237711,-0.452968 c 0.13074,-0.249131 0.228261,-0.461186 0.216712,-0.471233 -0.01156,-0.01004 -0.940477,-0.10203 -2.064288,-0.204408 l -2.043292,-0.186142 2.139814,-0.0075 c 1.74064,-0.0061 2.162216,-0.02389 2.259906,-0.09532 0.06605,-0.04829 0.104766,-0.103142 0.08603,-0.121878 -0.01875,-0.01875 -1.286462,-0.13302 -2.817169,-0.253964 -1.530707,-0.120947 -2.8249,-0.230046 -2.875981,-0.242447 -0.05108,-0.0124 1.356004,-0.02676 3.126855,-0.03192 2.664865,-0.0078 3.246411,-0.02462 3.374527,-0.09786 0.08514,-0.04867 0.13349,-0.08948 0.107449,-0.09068 -0.684281,-0.03171 -6.749342,-0.454012 -7.011298,-0.488186 -0.771369,-0.100631 3.085285,-0.150386 6.903849,-0.08906 3.696944,0.05937 3.820524,0.06522 4.239173,0.200852 0.926235,0.300078 1.395504,0.797124 1.307381,1.384764 -0.04833,0.322288 -0.151558,0.495009 -0.790617,1.322838 -0.69296,0.897649 -1.132837,1.2274 -2.146043,1.60877 -0.459083,0.172798 -1.159734,0.330168 -1.469991,0.330168 -0.17039,0 -0.226003,0.03105 -0.271923,0.15183 -0.107762,0.283431 -0.380662,0.36232 -1.425241,0.412007 -1.157011,0.05504 -1.597228,0.05287 -2.569595,-0.01264 z m 4.659303,-0.830584 c 0.621287,-0.117857 1.270862,-0.337518 1.744307,-0.589863 0.351309,-0.187247 0.999256,-0.763775 1.127319,-1.003061 0.05819,-0.108738 0.05077,-0.109302 -0.174794,-0.01327 -0.827259,0.352194 -1.324351,0.478392 -2.188916,0.555701 -0.512564,0.04583 -1.408781,-0.04207 -1.892035,-0.185586 -0.414593,-0.12312 -0.867107,-0.431954 -1.059997,-0.723432 -0.19638,-0.29675 -0.233833,-0.270256 -0.539864,0.381889 -0.256802,0.547236 -0.263814,0.777428 -0.03263,1.071334 0.15454,0.196466 0.609512,0.419702 1.050736,0.51555 0.482352,0.104785 1.387143,0.100521 1.965871,-0.0093 z m 1.692113,-1.47205 c 0.963891,-0.25273 1.757939,-0.738026 2.012261,-1.229832 0.329592,-0.637362 -0.20668,-1.252866 -1.319958,-1.514976 -0.59254,-0.139507 -2.100667,-0.08716 -2.707236,0.09397 -1.613878,0.481925 -2.41398,1.37645 -1.889711,2.112718 0.156871,0.220302 0.779583,0.543993 1.25361,0.651636 0.604391,0.137246 1.907457,0.08145 2.651034,-0.113516 z m -2.713737,-0.794862 c 0.297981,-0.274628 0.541783,-0.523343 0.541783,-0.552696 0,-0.02936 -0.202006,-0.173018 -0.448905,-0.319253 l -0.448905,-0.265883 0.804932,-0.03096 c 0.854423,-0.03286 0.866852,-0.0367 1.388858,-0.428632 0.184937,-0.138856 0.355848,-0.252466 0.379794,-0.252466 0.02395,0 0.105448,0.152519 0.181106,0.33893 l 0.137563,0.338932 0.883401,0.0171 0.8834,0.0171 -0.71966,0.305523 c -0.395813,0.168039 -0.740224,0.322345 -0.765357,0.342904 -0.02513,0.02055 0.02059,0.252255 0.101635,0.514887 0.08103,0.262632 0.134653,0.477511 0.119158,0.477511 -0.01549,0 -0.321696,-0.125383 -0.680452,-0.278631 -0.358753,-0.153246 -0.716269,-0.27863 -0.794476,-0.27863 -0.07821,0 -0.319276,0.05455 -0.535706,0.121211 -0.216429,0.06667 -0.658208,0.191225 -0.98173,0.276798 l -0.58822,0.155586 z m -19.309376,0.04556 c -0.842462,-0.478606 -2.169375,-1.591404 -2.573948,-2.1586 l -0.121452,-0.170273 h 0.212599 c 0.189428,0 0.255101,0.05138 0.602537,0.471408 0.424787,0.513545 1.214834,1.19959 1.872017,1.625594 0.229446,0.148734 0.417177,0.278103 0.417177,0.287484 0,0.08468 -0.212971,0.05572 -0.40893,-0.05561 z m -0.272168,-0.758066 c 0,-0.02148 0.168527,-0.345199 0.374508,-0.719375 0.205979,-0.374175 0.366192,-0.686848 0.356026,-0.694828 -0.01016,-0.008 -0.0742,-0.04736 -0.142315,-0.08753 -0.09866,-0.05818 0.03711,-0.06947 0.667896,-0.05557 0.571929,0.01261 0.80569,0.04005 0.842019,0.09885 0.08381,0.135652 0.0023,0.375972 -0.179289,0.528791 -0.131803,0.110904 -0.164364,0.182653 -0.140218,0.308967 0.02512,0.131426 -0.01835,0.214323 -0.216167,0.412134 l -0.247616,0.247615 h -0.657422 c -0.361583,0 -0.657422,-0.01757 -0.657422,-0.03906 z m 1.227091,-0.487248 c 0.06874,-0.150867 0.06434,-0.154792 -0.173636,-0.154792 -0.178029,0 -0.261528,0.03244 -0.308262,0.119764 -0.09543,0.178325 -0.08492,0.189824 0.173637,0.189824 0.193495,0 0.250856,-0.0288 0.308261,-0.154796 z m 0.309382,-0.603695 c 0.03196,-0.168479 -0.394458,-0.151589 -0.485885,0.01924 -0.06462,0.12075 -0.05396,0.126567 0.198522,0.108356 0.195472,-0.01409 0.272305,-0.04822 0.287363,-0.127601 z m 0.578267,1.075285 c -0.06498,-0.04118 0.0054,-0.21496 0.319296,-0.788505 l 0.402642,-0.735685 0.489995,0.006 c 0.664552,0.0081 0.821827,0.05283 0.821827,0.233718 0,0.195002 -0.239037,0.537534 -0.480874,0.689074 -0.184549,0.115644 -0.195191,0.14128 -0.160855,0.38751 l 0.03677,0.263673 -0.226377,-0.01601 c -0.233383,-0.0165 -0.255123,-0.0471 -0.296808,-0.417837 -0.03025,-0.269013 -0.198366,-0.215786 -0.381563,0.120811 -0.171283,0.314702 -0.318999,0.387217 -0.52405,0.257265 z m 1.40397,-1.048614 c 0.01812,-0.127836 -0.0015,-0.141431 -0.178727,-0.123834 -0.124665,0.01238 -0.234462,0.07335 -0.293748,0.16314 -0.09457,0.143225 -0.09438,0.143357 0.178727,0.123836 0.231855,-0.01657 0.276492,-0.04136 0.293748,-0.163142 z m 0.921077,0.282917 0.406327,-0.789452 h 0.301331 0.301332 l 0.002,0.479864 c 0.0022,0.547601 0.02641,0.539992 0.379592,-0.119517 0.164438,-0.307061 0.211125,-0.351059 0.367777,-0.346606 0.09869,0.0028 0.179234,0.03569 0.178995,0.07308 -8.44e-4,0.126498 -0.791264,1.492133 -0.86006,1.485895 -0.03755,-0.0034 -0.151863,-0.01037 -0.254027,-0.01549 l -0.185754,-0.0093 v -0.464384 c 0,-0.25541 -0.02424,-0.464383 -0.05386,-0.464383 -0.02962,0 -0.161385,0.208973 -0.292807,0.464383 -0.131421,0.255412 -0.260432,0.467868 -0.28669,0.472125 -0.02626,0.0043 -0.129352,0.01123 -0.229098,0.01547 l -0.181355,0.0078 z m 1.984197,0.753536 c -0.170979,-0.09959 -0.129236,-0.302511 0.165966,-0.806804 0.324966,-0.555138 0.48791,-0.676523 0.966385,-0.719911 0.524935,-0.0476 0.678749,0.0056 0.678749,0.234637 0,0.443525 -0.597401,1.240051 -0.988752,1.318322 -0.296055,0.05921 -0.697634,0.04639 -0.822348,-0.02624 z m 1.093715,-0.701677 c 0.122123,-0.218377 0.222041,-0.413419 0.222041,-0.433427 0,-0.02001 -0.09717,-0.03638 -0.215936,-0.03638 -0.224782,0 -0.325374,0.109362 -0.612236,0.665618 l -0.103776,0.201232 h 0.243932 c 0.23552,0 0.25159,-0.01369 0.465975,-0.397047 z m -14.77758,-2.248611 c -0.127706,-0.01336 -0.232191,-0.03182 -0.232191,-0.04102 0,-0.0092 0.567938,-1.045419 1.262087,-2.302706 1.417638,-2.567722 1.354899,-2.33782 0.702852,-2.575568 -0.197382,-0.07197 -0.373541,-0.154579 -0.391462,-0.183577 -0.02542,-0.04113 2.690422,-0.0068 2.742681,0.03462 0.0071,0.0056 -0.20671,0.413077 -0.475081,0.905475 -0.435954,0.799882 -0.474822,0.897432 -0.364807,0.915588 0.153347,0.0253 0.153075,0.0255 1.292011,-0.940042 0.516345,-0.437737 1.013037,-0.834614 1.103762,-0.881949 0.18926,-0.09874 1.706703,-0.126314 1.671628,-0.03037 -0.01945,0.05317 -2.495937,2.242318 -2.847066,2.516719 l -0.163044,0.127417 0.176718,1.1419 c 0.0972,0.628046 0.177738,1.17673 0.178981,1.219299 0.0016,0.05788 -0.19163,0.0774 -0.766799,0.0774 h -0.769054 l -0.03385,-0.170274 c -0.06467,-0.325313 -0.152745,-0.915413 -0.191771,-1.284798 -0.05765,-0.545659 -0.07784,-0.58822 -0.27905,-0.58822 -0.162979,0 -0.210525,0.0621 -0.604391,0.789454 -0.235125,0.4342 -0.502283,0.907871 -0.593685,1.052605 l -0.166187,0.263151 -0.510048,-0.01041 c -0.280525,-0.0058 -0.614531,-0.02134 -0.742238,-0.0347 z m 6.131003,-0.01499 c -0.956126,-0.09752 -0.957252,-0.603762 -0.0053,-2.385665 0.649198,-1.215199 0.88646,-1.580487 1.292935,-1.99059 0.638979,-0.644685 1.266699,-0.80383 2.958158,-0.749974 0.8447,0.02689 1.003136,0.04794 1.142148,0.15173 0.389199,0.290579 0.2871,0.80954 -0.430137,2.186357 -1.304696,2.504513 -1.786192,2.858477 -3.859884,2.837533 -0.374605,-0.0038 -0.868668,-0.02601 -1.097919,-0.04939 z m 2.34647,-1.210378 c 0.30323,-0.198302 1.341132,-2.019431 1.468145,-2.576048 0.03516,-0.154096 0.02205,-0.164359 -0.256255,-0.200634 -0.161323,-0.02102 -0.446162,-0.01376 -0.632977,0.01615 -0.289634,0.04637 -0.37171,0.09173 -0.557261,0.308003 -0.461063,0.5374 -1.387391,2.365593 -1.259667,2.486074 0.150957,0.142397 1.004334,0.119276 1.238015,-0.03355 z m 1.878445,1.193074 c 7.8e-5,-0.04257 0.141512,-0.328164 0.314299,-0.634659 0.172787,-0.306493 0.790643,-1.421016 1.373013,-2.476717 0.58237,-1.0557 1.088752,-1.939926 1.125293,-1.964946 0.03654,-0.02502 0.486024,-0.04592 0.998852,-0.04644 0.704373,-7.25e-4 0.961518,0.02033 1.051416,0.08607 0.115958,0.08479 0.111413,0.116643 -0.177643,1.244956 -0.163154,0.636866 -0.285744,1.168838 -0.272421,1.182161 0.02316,0.02316 0.920372,-1.060803 1.551677,-1.874649 0.454766,-0.586261 0.606237,-0.639693 1.810142,-0.638536 0.54264,5.15e-4 1.020697,0.0226 1.062351,0.04906 0.05469,0.03475 -0.03759,0.253786 -0.332228,0.788505 -0.224379,0.407215 -0.701051,1.28372 -1.059268,1.947789 -0.35822,0.664071 -0.80172,1.465134 -0.985554,1.780141 -0.357469,0.612534 -0.322066,0.588221 -0.856497,0.588221 -0.05109,0 -0.303896,-0.0035 -0.561806,-0.0077 l -0.468929,-0.0077 0.181909,-0.325069 c 0.100049,-0.178788 0.441058,-0.798741 0.757795,-1.377674 0.31674,-0.578933 0.669406,-1.21534 0.783706,-1.41424 0.114301,-0.198899 0.182279,-0.352146 0.151065,-0.340549 -0.03121,0.0116 -0.563195,0.634074 -1.182185,1.383282 -0.618989,0.749207 -1.270985,1.527688 -1.44888,1.729959 l -0.323445,0.367764 -0.399687,0.02404 c -0.695793,0.04185 -0.686601,0.115717 -0.216323,-1.738479 0.419188,-1.652758 0.445514,-1.780382 0.346658,-1.680466 -0.05472,0.0553 -1.318684,2.267224 -1.709214,2.991094 -0.101524,0.188181 -0.241864,0.355634 -0.324329,0.386987 -0.23195,0.08819 -1.189936,0.07037 -1.189767,-0.02213 z m 7.983248,0.01788 -0.96375,-0.03335 1.072762,-1.950415 c 0.590019,-1.072728 1.218748,-2.222791 1.397177,-2.555696 l 0.324413,-0.605281 1.919456,0.03898 c 1.055701,0.02144 1.926527,0.04547 1.935171,0.05341 0.0086,0.0079 -0.116179,0.255812 -0.27738,0.550825 l -0.293094,0.536388 h -1.179882 -1.17988 l -0.198465,0.402466 -0.198467,0.402467 0.819835,0.0098 c 0.450908,0.0054 0.854664,0.0085 0.897232,0.0069 0.04257,-0.0016 0.0774,0.0048 0.0774,0.01422 0,0.0094 -0.127663,0.257071 -0.283696,0.550382 l -0.283696,0.533292 -0.939183,0.0011 -0.939185,0.0011 -0.232191,0.430258 c -0.127707,0.236642 -0.232192,0.445142 -0.232192,0.463334 0,0.01819 0.612986,0.03308 1.362194,0.03308 1.081375,0 1.362196,0.01671 1.362196,0.08107 0,0.04459 -0.129091,0.309286 -0.286868,0.58822 l -0.286865,0.507152 -1.214643,-0.01308 c -0.668057,-0.0072 -1.648333,-0.02809 -2.178397,-0.04644 z m 5.375405,0.01481 c -0.29798,-0.01212 -0.541783,-0.03202 -0.541783,-0.04424 0,-0.01221 0.473674,-0.887609 1.052606,-1.945315 0.578931,-1.057706 1.052605,-1.938243 1.052605,-1.956749 0,-0.01851 -0.290918,-0.03365 -0.646484,-0.03365 -0.355566,0 -0.662905,-0.02656 -0.682972,-0.05904 -0.02006,-0.03247 0.09227,-0.297171 0.249634,-0.588221 l 0.286123,-0.529181 h 2.157856 c 1.301625,0 2.172333,0.02343 2.194343,0.05904 0.02008,0.03247 -0.0918,0.296304 -0.248593,0.586294 l -0.285084,0.527257 -0.71365,0.0174 -0.713653,0.0174 -1.078149,1.981374 -1.078146,1.981374 -0.231437,0.0041 c -0.127289,0.0023 -0.475237,-0.0058 -0.773216,-0.01789 z m 1.934935,-0.0228 c 0,-0.03714 0.121057,-0.211281 0.269015,-0.386987 0.147956,-0.175706 0.962952,-1.141561 1.811099,-2.146344 0.848146,-1.004784 1.662451,-1.972253 1.809565,-2.149934 0.327031,-0.394973 0.494692,-0.449805 1.373345,-0.449129 0.780457,6.09e-4 0.928769,0.03254 0.928769,0.200013 0,0.06867 -0.193067,0.99186 -0.429039,2.051549 -0.235972,1.05969 -0.462866,2.107818 -0.504213,2.329174 -0.118003,0.631765 -0.103393,0.619308 -0.72523,0.618335 -0.734193,-0.0012 -0.818395,-0.02891 -0.817564,-0.269528 4.68e-4,-0.106707 0.04216,-0.330789 0.09287,-0.497963 0.05071,-0.167172 0.09221,-0.327386 0.09221,-0.356028 0,-0.06082 -0.8497,-0.06979 -1.245197,-0.01316 -0.249063,0.03566 -0.304559,0.07996 -0.663607,0.529669 -0.215496,0.269913 -0.461112,0.517097 -0.545811,0.5493 -0.220415,0.0838 -1.446215,0.0762 -1.446215,-0.009 z m 4.34195,-2.90257 c 0.09442,-0.390548 0.165373,-0.716392 0.157667,-0.724098 -0.01561,-0.01562 -1.033714,1.249972 -1.114331,1.385203 -0.04196,0.07038 0.02403,0.0825 0.366913,0.0674 l 0.418071,-0.01842 z m -17.53047,-2.651851 c 0,-0.02712 -0.419431,-0.730667 -0.932068,-1.563428 l -0.932068,-1.514109 0.444366,-0.01835 c 0.384991,-0.0159 0.455852,-0.0019 0.530317,0.104366 0.08326,0.118873 0.115463,0.107654 1.029484,-0.35871 1.511925,-0.771434 2.347106,-0.996627 3.696217,-0.996627 0.885445,0 1.654331,0.113582 2.350203,0.347178 0.468252,0.157188 1.571408,0.646032 1.536546,0.680894 -0.01023,0.01021 -0.2821,-0.06405 -0.604188,-0.165023 -0.94303,-0.295656 -1.544745,-0.388269 -2.505924,-0.385698 -1.362882,0.0037 -2.356356,0.256999 -3.683104,0.939255 -0.426242,0.219187 -0.892131,0.456825 -1.035309,0.528084 -0.143177,0.07126 -0.261596,0.153596 -0.263151,0.182971 -0.0015,0.02938 0.303665,0.520808 0.678269,1.092071 0.374603,0.571264 0.681097,1.069661 0.681097,1.107551 0,0.04483 -0.172971,0.06889 -0.495344,0.06889 -0.272438,0 -0.495343,-0.02219 -0.495343,-0.04932 z m -9.776282,-0.70918 c 0.14949,-0.285184 0.690258,-0.914873 1.200308,-1.397677 0.881017,-0.833953 1.936957,-1.481169 3.051567,-1.870388 l 0.567607,-0.198208 0.302011,0.252857 c 0.686731,0.574964 1.106814,0.524302 2.487661,-0.300012 2.602047,-1.553323 3.988392,-2.012556 6.067959,-2.010041 2.040189,0.0025 3.550173,0.494984 5.916118,1.929684 0.931716,0.564989 1.197853,0.682712 1.668461,0.738022 0.411664,0.04839 0.823168,-0.08667 1.036475,-0.340177 0.214344,-0.254732 0.253683,-0.263573 0.616855,-0.138623 0.894436,0.30773 1.841,0.81048 2.545311,1.35189 0.770484,0.592282 1.639695,1.50251 1.893328,1.982673 0.07296,0.138132 0.07002,0.13929 -0.346535,0.136345 l -0.420125,-0.003 -0.247671,-0.346869 c -0.476801,-0.667768 -1.595147,-1.541592 -2.675485,-2.090498 -0.764797,-0.388584 -0.841966,-0.397039 -1.270204,-0.139166 -0.829966,0.499779 -1.698484,0.334639 -3.174875,-0.603671 -0.738244,-0.469186 -2.018353,-1.091357 -2.787969,-1.355036 -1.079602,-0.369883 -1.537665,-0.442344 -2.784646,-0.440498 -1.000671,0.0015 -1.182375,0.01867 -1.778778,0.168221 -1.259754,0.3159 -2.52111,0.867153 -3.731916,1.630967 -1.499926,0.946201 -2.478576,1.119901 -3.238573,0.574814 -0.334899,-0.240198 -0.451947,-0.222424 -1.270726,0.192963 -1.084512,0.550199 -1.960872,1.233797 -2.581359,2.013574 l -0.3192,0.401142 h -0.399313 c -0.394463,0 -0.398427,-0.0017 -0.326286,-0.139314 z m 2.615498,-0.141978 c 0.330098,-0.303772 1.175672,-0.882582 1.544199,-1.057028 0.202554,-0.09588 0.26185,-0.100162 0.433425,-0.03129 0.970843,0.389718 2.143961,0.324394 3.132085,-0.17441 l 0.376911,-0.190264 0.160148,0.316038 c 0.08808,0.17382 0.151308,0.324284 0.140505,0.334365 -0.0108,0.01008 -0.27041,0.108202 -0.576904,0.218047 -0.778029,0.278841 -1.608995,0.323993 -2.248458,0.122175 -0.62928,-0.198604 -0.816696,-0.158062 -1.551083,0.335539 l -0.607206,0.40812 -0.551975,-0.0025 -0.551973,-0.0025 z m 10.201173,0.141978 c 0.03998,-0.07662 0.254204,-0.47092 0.47606,-0.876215 0.381065,-0.696136 0.397061,-0.74152 0.289168,-0.820412 -0.09972,-0.07292 -0.05772,-0.08351 0.33105,-0.08351 0.244893,0 0.44526,0.01485 0.44526,0.03302 0,0.01816 -0.07153,0.174176 -0.158957,0.346705 -0.08743,0.172529 -0.1455,0.327147 -0.129051,0.343597 0.01645,0.01645 0.18589,0.01042 0.376532,-0.0134 0.338675,-0.04232 0.351193,-0.05095 0.545982,-0.376614 0.191338,-0.319896 0.209989,-0.333307 0.463525,-0.333307 0.145289,0 0.264165,0.02122 0.264165,0.04716 0,0.02593 -0.220041,0.45085 -0.488974,0.944249 l -0.488975,0.897091 -0.285,0.01887 c -0.33606,0.02225 -0.353734,-0.03009 -0.131821,-0.390379 0.217068,-0.352431 0.202503,-0.402467 -0.117158,-0.402467 -0.397748,0 -0.456141,0.03909 -0.659135,0.441218 l -0.183603,0.363715 H 26.09667 c -0.302648,0 -0.308953,-0.0037 -0.238192,-0.139315 z m 2.919212,0.07547 c -0.229476,-0.09224 -0.157485,-0.377484 0.285603,-1.131628 0.358709,-0.610534 0.533672,-0.725003 1.175366,-0.768986 0.721822,-0.04948 0.908133,0.121892 0.658131,0.605342 -0.0808,0.156242 -0.130419,0.182678 -0.342894,0.182678 -0.234051,0 -0.247392,-0.0099 -0.230601,-0.170273 0.01676,-0.160173 0.0032,-0.170275 -0.228163,-0.170275 -0.237796,0 -0.254809,0.01436 -0.510825,0.431122 -0.339585,0.552805 -0.342882,0.652441 -0.02158,0.652441 0.229407,0 0.437849,-0.120011 0.437849,-0.252094 0,-0.03162 0.125384,-0.05749 0.27863,-0.05749 0.153246,0 0.278632,0.02894 0.278632,0.06432 0,0.03537 -0.105417,0.177327 -0.234257,0.31545 -0.173919,0.186451 -0.30549,0.26488 -0.510822,0.304496 -0.356533,0.06879 -0.857384,0.06632 -1.035062,-0.0051 z m 5.632911,-0.733295 c -0.478077,-0.121425 -1.276565,-0.437508 -1.227975,-0.486098 0.01591,-0.01592 0.224488,0.01553 0.463482,0.06989 0.662886,0.15077 1.290494,0.129716 1.845708,-0.06192 0.449423,-0.15512 0.47473,-0.157253 0.722457,-0.06088 0.141196,0.05493 0.326379,0.153581 0.411515,0.219229 l 0.154796,0.11936 -0.309591,0.137969 c -0.433806,0.193326 -1.426631,0.223421 -2.060392,0.06246 z"
         id="path45-1" />
    </g>
  </g>
</svg>
