<?xml version="1.0" encoding="UTF-8" standalone="no"?>
<!-- Created with Inkscape (http://www.inkscape.org/) -->

<svg
   width="41.008999mm"
   height="41.008999mm"
   viewBox="0 0 41.008999 41.009"
   version="1.1"
   id="svg1"
   inkscape:version="1.4.2 (f4327f4, 2025-05-13)"
   sodipodi:docname="226.svg"
   xmlns:inkscape="http://www.inkscape.org/namespaces/inkscape"
   xmlns:sodipodi="http://sodipodi.sourceforge.net/DTD/sodipodi-0.dtd"
   xmlns="http://www.w3.org/2000/svg"
   xmlns:svg="http://www.w3.org/2000/svg">
  <sodipodi:namedview
     id="namedview1"
     pagecolor="#ffffff"
     bordercolor="#000000"
     borderopacity="0.25"
     inkscape:showpageshadow="2"
     inkscape:pageopacity="0.0"
     inkscape:pagecheckerboard="0"
     inkscape:deskcolor="#d1d1d1"
     inkscape:document-units="mm"
     inkscape:zoom="2.0485264"
     inkscape:cx="68.341808"
     inkscape:cy="134.73099"
     inkscape:window-width="1050"
     inkscape:window-height="1081"
     inkscape:window-x="3737"
     inkscape:window-y="0"
     inkscape:window-maximized="0"
     inkscape:current-layer="layer1" />
  <defs
     id="defs1" />
  <g
     inkscape:label="Layer 1"
     inkscape:groupmode="layer"
     id="layer1"
     transform="translate(-114.0891,-77.774176)">
    <g
       id="g160"
       transform="translate(-261.37301,352.45563)">
      <circle
         style="fill:none;stroke:#ff0000;stroke-width:0.1;stroke-dasharray:none"
         id="path788-8-1-8-1-9-2-6-3-4-7-1-6-0-4"
         cx="395.96661"
         cy="-254.17696"
         r="19.954653" />
      <ellipse
         style="fill:none;stroke:#ff00ff;stroke-width:0.1;stroke-dasharray:none;stroke-opacity:1"
         id="path1138-9-4-0-0-1-2-0-0-6-8-8-1-2-8"
         cx="395.96661"
         cy="-254.17696"
         rx="18.492125"
         ry="18.492126" />
      <circle
         style="fill:none;stroke:#0000ff;stroke-width:0.1;stroke-linecap:round;stroke-dasharray:none;stroke-opacity:1;paint-order:markers stroke fill"
         id="path13019-1-33-3-83-70-3-7-5-4-32"
         cx="395.96661"
         cy="-269.18793"
         r="2" />
      <path
         style="fill:#000000;stroke-width:0.115512"
         d="m 397.42731,-238.82377 c -0.10085,-0.0132 -0.27621,-0.0255 -0.38964,-0.0272 l -0.20632,-0.004 v -0.11136 -0.11136 l 0.20632,0.0189 c 0.11343,0.0103 0.56065,0.0283 0.99379,0.0398 0.7803,0.0207 0.78735,0.0215 0.76827,0.0849 -0.0106,0.0352 -0.0321,0.0777 -0.0479,0.0945 -0.035,0.0373 -1.06453,0.0492 -1.32457,0.0153 z m 3.07154,-0.044 c -0.84634,-0.0972 -0.9706,-0.11808 -0.85572,-0.14406 0.0587,-0.0133 0.68458,-0.038 1.39058,-0.0549 0.706,-0.0169 1.32282,-0.0397 1.37071,-0.0508 0.0727,-0.0169 0.0854,-0.0112 0.0764,0.0342 -0.0226,0.1146 -0.15895,0.17319 -0.47318,0.20316 -0.51897,0.0495 -1.14051,0.0546 -1.50881,0.0124 z m -2.90342,-0.35358 c -0.26057,-0.0143 -0.57405,-0.035 -0.69667,-0.0461 -0.21568,-0.0196 -0.22548,-0.024 -0.29941,-0.13568 -0.18046,-0.27267 -0.26705,-0.68704 -0.19731,-0.94423 0.0309,-0.1141 0.0455,-0.13087 0.10279,-0.11763 0.0367,0.008 0.1974,0.0464 0.3571,0.0842 0.40636,0.0962 1.07322,0.0974 1.52044,0.003 0.71107,-0.15077 1.4795,-0.49245 2.23948,-0.9958 0.41319,-0.27366 0.46177,-0.29743 0.76277,-0.37311 0.28957,-0.0729 0.34098,-0.0776 0.5184,-0.0474 0.30341,0.0515 0.60323,0.21521 0.82168,0.44874 0.21923,0.23435 0.24932,0.3214 0.24956,0.72169 0,0.37734 -0.0778,0.68932 -0.26698,1.06694 l -0.14545,0.29034 -0.19867,0.0218 c -0.30519,0.0335 -4.23232,0.053 -4.76773,0.0237 z m -0.43413,-1.34582 c -0.30845,-0.0321 -0.58974,-0.12227 -0.68817,-0.2207 -0.0689,-0.0689 -0.0689,-0.0689 -0.003,-0.2721 l 0.0661,-0.20325 0.16121,0.091 c 0.10993,0.0621 0.19331,0.0879 0.26207,0.0813 0.10088,-0.01 0.10088,-0.01 -0.0966,-0.1625 -0.38785,-0.30004 -0.44441,-0.36617 -0.62139,-0.72676 -0.1674,-0.34104 -0.31714,-0.74518 -0.28723,-0.77511 0.008,-0.008 0.15511,0.007 0.32551,0.0362 0.17042,0.0285 0.3172,0.0444 0.32618,0.0355 0.0234,-0.0233 -0.39289,-0.21443 -0.6458,-0.29659 -0.19191,-0.0623 -0.23525,-0.0924 -0.42084,-0.29238 -0.31127,-0.33537 -0.96374,-0.8724 -1.82066,-1.49855 -0.0304,-0.0222 0.0453,-0.14636 0.19425,-0.31836 0.0921,-0.10632 0.16272,-0.19798 0.157,-0.20368 -0.0263,-0.0263 -0.85755,0.34372 -1.76407,0.78498 -1.50679,0.73343 -2.15532,0.99519 -2.92572,1.18085 -0.36287,0.0874 -0.55518,0.0831 -1.01478,-0.0231 -0.54519,-0.1259 -0.93823,-0.38004 -1.69619,-1.09681 -0.25215,-0.23843 -0.50923,-0.47006 -0.57132,-0.51473 -0.13591,-0.0978 -0.16463,-0.1553 -0.2112,-0.42262 -0.0393,-0.22552 -0.0223,-0.61556 0.0461,-1.06446 0.0231,-0.15129 0.0368,-0.2806 0.0305,-0.28736 -0.0278,-0.0299 -0.16497,0.33761 -0.19831,0.5314 -0.0383,0.2227 -0.021,0.88661 0.03,1.1411 0.022,0.11019 0.0151,0.15326 -0.0411,0.25979 -0.0617,0.1168 -0.20193,0.21252 -0.2463,0.16815 -0.009,-0.009 -0.0387,-0.13212 -0.0655,-0.27311 -0.0612,-0.32234 -0.04,-0.85168 0.0487,-1.2117 0.0798,-0.32376 0.23723,-0.7432 0.44527,-1.18597 l 0.16485,-0.35081 0.14664,0.0905 c 0.42417,0.26151 0.85576,0.72701 1.37361,1.48147 0.42429,0.61813 0.78255,1.11997 0.81283,1.1387 0.0439,0.0271 -0.44483,-0.71449 -0.74118,-1.12469 -0.39998,-0.55364 -0.73124,-0.93879 -1.14811,-1.33494 -0.36441,-0.34627 -0.36441,-0.34627 -0.29225,-0.40495 0.0952,-0.0774 0.11952,-0.075 0.32968,0.0341 0.16352,0.0849 0.17099,0.0863 0.0871,0.0169 -0.0504,-0.0418 -0.13639,-0.10041 -0.19101,-0.13036 -0.0546,-0.03 -0.0993,-0.0658 -0.0993,-0.0796 0,-0.048 0.44451,-0.46825 0.65002,-0.61455 0.11378,-0.081 0.29815,-0.18578 0.40971,-0.23284 l 0.20283,-0.0856 0.14662,0.24396 c 0.20777,0.34569 0.44209,0.62106 0.8901,1.04591 0.21447,0.20337 0.38963,0.37663 0.38925,0.38504 0,0.008 -0.0539,0.0481 -0.11904,0.0882 -0.27308,0.16837 -0.46069,0.54489 -0.46069,0.92465 0,0.12089 0.006,0.21323 0.0146,0.20519 0.008,-0.008 0.0501,-0.13752 0.0933,-0.28779 0.0837,-0.29045 0.26457,-0.68828 0.34223,-0.75274 0.0411,-0.0341 0.0436,-0.0261 0.0205,0.0676 -0.0143,0.0585 -0.022,0.44523 -0.0172,0.85941 0.006,0.50646 -0.003,0.79652 -0.0267,0.88581 -0.0358,0.13278 -0.0358,0.13278 -0.0978,0.0568 -0.0341,-0.0418 -0.25884,-0.35247 -0.49935,-0.6905 -0.50757,-0.71334 -0.74053,-1.01372 -1.01671,-1.31085 -0.27876,-0.29993 -0.34103,-0.32259 -0.0788,-0.0287 0.28633,0.32091 0.47014,0.55623 1.05319,1.34845 0.48661,0.6612 0.48768,0.66301 0.48768,0.82626 0,0.15044 0.005,0.16114 0.0573,0.13297 0.0322,-0.0172 0.0729,-0.0925 0.0928,-0.17196 0.03,-0.11887 0.0427,-0.13543 0.0803,-0.10424 0.0247,0.0205 0.0449,0.0527 0.0452,0.0716 0,0.0189 0.0133,0.0548 0.029,0.0795 0.0226,0.0357 0.11305,-0.0376 0.43505,-0.35261 0.56187,-0.54962 0.96672,-0.87034 1.90148,-1.50639 0.41072,-0.27945 0.46941,-0.31015 0.59307,-0.31015 0.13294,0 0.13559,-0.002 0.0847,-0.0581 -0.0723,-0.0798 -0.1436,-0.0932 -0.26857,-0.0502 -0.1098,0.0377 -0.80907,0.51325 -1.07894,0.73367 -0.0841,0.0687 -0.23325,0.1844 -0.33151,0.25722 -0.0983,0.0729 -0.33212,0.26527 -0.51958,0.42763 -0.41824,0.36224 -0.616,0.52351 -0.64199,0.52351 -0.0322,0 -0.0223,-0.66483 0.0141,-0.96272 0.0409,-0.33408 0.15499,-0.73969 0.26598,-0.94597 0.10245,-0.19035 0.40397,-0.49714 0.51634,-0.52534 0.0464,-0.0117 0.28289,9.2e-4 0.52565,0.0295 0.24276,0.0279 0.44798,0.0442 0.45608,0.036 0.0298,-0.0298 -0.26444,-0.13653 -0.42941,-0.15593 -0.1941,-0.0228 -0.25523,-0.0509 -0.22322,-0.10276 0.0149,-0.0241 0.0634,-0.0292 0.14511,-0.0154 0.0962,0.0162 0.11979,0.0118 0.10903,-0.0207 -0.01,-0.0287 -0.0818,-0.0443 -0.23322,-0.0505 -0.20615,-0.008 -0.21759,-0.0125 -0.18793,-0.068 0.0172,-0.0325 0.0448,-0.16344 0.0609,-0.2911 0.0162,-0.12767 0.0494,-0.26901 0.0739,-0.31407 0.0244,-0.0451 0.0672,-0.18965 0.0948,-0.32131 0.0798,-0.3804 0.3025,-0.79072 0.59893,-1.1039 0.30296,-0.32004 0.54386,-0.5029 1.25492,-0.95251 0.30487,-0.19278 0.66755,-0.43894 0.80599,-0.54703 0.23696,-0.18504 0.6378,-0.59262 0.61008,-0.62034 -0.0215,-0.0215 -0.2074,0.1053 -0.50635,0.34532 -0.15732,0.12632 -0.29697,0.22966 -0.31037,0.22966 -0.0372,0 -0.03,-0.0575 0.0383,-0.30346 0.1578,-0.56943 0.58892,-1.23448 1.06304,-1.63991 0.19346,-0.16543 0.19346,-0.16543 0.41261,-0.16567 0.29196,-2.6e-4 0.53751,-0.042 1.00901,-0.17132 0.45659,-0.12523 0.82148,-0.19926 0.80846,-0.16402 -0.006,0.0136 -0.0881,0.0858 -0.1848,0.16064 -0.19401,0.1502 -0.27822,0.24554 -0.31199,0.35329 -0.0199,0.0636 -0.016,0.068 0.0372,0.0395 0.0328,-0.0176 0.18807,-0.1368 0.3451,-0.26501 0.33144,-0.27061 0.55576,-0.39257 0.80772,-0.43915 0.21626,-0.04 0.2298,-0.0405 0.2298,-0.007 0,0.0141 -0.0379,0.0428 -0.0841,0.0637 -0.18767,0.085 -0.60439,0.39165 -0.86299,0.63505 -1.01466,0.9552 -1.41069,2.17861 -1.06737,3.29753 0.0599,0.19553 0.0863,0.23236 0.35957,0.50351 0.22762,0.22585 0.34731,0.31847 0.52511,0.40636 0.2294,0.11336 0.58818,0.19952 0.83939,0.20155 0.14008,9.2e-4 0.64317,-0.12709 0.78363,-0.19974 0.12551,-0.0649 0.15984,-0.0247 0.10799,0.12638 -0.0361,0.1052 -0.0631,0.12909 -0.21413,0.18983 -0.0951,0.0383 -0.28316,0.0851 -0.41804,0.10416 -0.43471,0.0615 -1.05589,-0.0572 -1.46667,-0.28017 -0.1529,-0.083 -0.1598,-0.0844 -0.0764,-0.0153 0.0504,0.0418 0.18796,0.11616 0.30562,0.16526 0.57729,0.24088 1.20957,0.24768 1.76225,0.0189 0.0451,-0.0186 0.0475,-0.006 0.0215,0.10925 -0.037,0.16449 0.006,0.45375 0.12034,0.81405 0.082,0.25786 0.0885,0.26769 0.18308,0.27692 0.0539,0.006 0.0981,0.0229 0.0981,0.0391 0,0.10302 -0.25629,0.51971 -0.67933,1.10445 -0.094,0.12993 -0.17819,0.25371 -0.18709,0.27507 -0.0106,0.0252 -0.0542,-0.004 -0.12456,-0.0834 -0.12123,-0.13676 -0.13993,-0.12815 -0.0483,0.0221 0.0615,0.10088 0.0839,0.25138 0.0346,0.2325 -0.0146,-0.006 -0.15405,-0.16834 -0.30984,-0.36166 -0.36659,-0.45488 -1.42249,-1.50623 -1.97898,-1.97046 -0.44086,-0.36778 -0.47004,-0.41187 -0.27316,-0.41295 0.0638,-2.7e-4 0.14213,0.0521 0.30724,0.20583 0.12189,0.11347 0.31715,0.28451 0.43391,0.38011 0.21487,0.17588 0.92275,0.88266 1.24933,1.24735 0.15106,0.16872 0.16302,0.17722 0.0793,0.0564 -0.19755,-0.28502 -0.58056,-0.69258 -1.04183,-1.10861 -0.56809,-0.51236 -0.95405,-0.87597 -0.94031,-0.88585 0.006,-0.004 0.085,-0.0387 0.17667,-0.0773 0.18431,-0.0775 0.41185,-0.21298 0.39158,-0.23325 -0.0237,-0.0237 -0.43231,0.12924 -0.68041,0.2548 -0.63611,0.32192 -1.23018,0.86899 -1.85924,1.71207 -0.28015,0.37547 -0.28015,0.37547 -0.58576,0.52229 -0.40857,0.19626 -0.93822,0.55692 -1.50873,1.02733 -0.25827,0.21298 -0.57184,0.46848 -0.69681,0.56778 -0.22931,0.18223 -0.37827,0.34576 -0.506,0.5555 -0.0808,0.13258 -0.0908,0.13507 -0.22143,0.0544 -0.0979,-0.0605 -0.0979,-0.0605 -0.20228,0.0194 -0.0575,0.044 -0.0769,0.0691 -0.0433,0.0562 0.14199,-0.055 0.23522,-0.0526 0.31738,0.008 0.0831,0.0614 0.0831,0.0614 0.24959,-0.13719 0.49645,-0.59197 1.41758,-1.29692 2.69842,-2.06517 0.4842,-0.29041 0.4842,-0.29041 0.6309,-0.53708 0.19039,-0.32008 0.40346,-0.58589 0.67499,-0.84203 0.23434,-0.22107 0.80605,-0.65929 0.86014,-0.65929 0.0917,0 1.44111,1.16678 1.83565,1.58727 0.36713,0.39126 0.84731,1.00353 0.84731,1.08038 0,0.0676 -0.33871,0.44048 -0.56542,0.62248 -0.42862,0.34407 -1.16961,0.67085 -1.87196,0.82557 -0.13868,0.0305 -0.25215,0.0642 -0.25215,0.0748 0,0.043 0.38837,0.0914 0.69192,0.0861 l 0.32364,-0.006 0.6154,0.61128 c 0.58674,0.58282 0.92634,0.88362 0.95979,0.85017 0.0291,-0.0291 -0.0825,-0.16444 -0.25788,-0.3122 -0.33067,-0.27873 -1.13969,-1.13712 -1.14062,-1.21027 0,-0.0375 0.16723,-0.026 0.22286,0.0153 0.0283,0.021 0.0825,0.083 0.12048,0.13763 0.0379,0.0547 0.30004,0.31191 0.58247,0.5716 0.4431,0.40739 0.60644,0.53805 0.9263,0.7409 0.0833,0.0528 0.003,0.10052 -0.13288,0.0786 l -0.10419,-0.0169 0.049,0.11733 c 0.0527,0.12619 0.14955,0.26516 0.31486,0.45194 0.1751,0.19785 0.27595,0.38247 0.37642,0.6891 0.11367,0.34693 0.24072,0.64523 0.27478,0.64523 0.0376,0 0.0482,-0.12543 0.0213,-0.2535 -0.0301,-0.14368 -0.27021,-0.71225 -0.39629,-0.93844 -0.0515,-0.0925 -0.1594,-0.25105 -0.23974,-0.35243 -0.11439,-0.14435 -0.13968,-0.19573 -0.11668,-0.23686 0.0162,-0.0289 0.0477,-0.0525 0.07,-0.0525 0.0223,0 0.0562,-0.0188 0.0752,-0.0418 0.0278,-0.0335 -0.0522,-0.11205 -0.4012,-0.39445 -0.77335,-0.62571 -1.40408,-1.23769 -1.30847,-1.26964 0.10178,-0.0339 0.46146,-0.23692 0.68921,-0.38886 0.2442,-0.1629 0.41287,-0.29848 0.79205,-0.63669 0.1933,-0.17239 0.20475,-0.17798 0.29138,-0.1421 0.0496,0.0206 0.16046,0.11165 0.24634,0.20248 0.0859,0.0908 0.23442,0.21885 0.33009,0.28453 0.0956,0.0657 0.2585,0.20662 0.36189,0.31318 0.36202,0.37307 0.58972,0.78417 1.0168,1.83573 0.30602,0.75344 0.481,1.11445 0.69584,1.43544 l 0.16836,0.25148 -0.13292,0.11545 c -0.64213,0.55785 -1.70268,0.9892 -2.50148,1.01742 -0.1765,0.006 -0.44062,-9.2e-4 -0.58692,-0.0163 z m 0.79102,-0.30625 c 0.30864,-0.042 0.66883,-0.13346 0.91637,-0.23255 0.2298,-0.092 0.24736,-0.12774 0.0205,-0.0415 -0.2153,0.0818 -0.59645,0.17627 -0.98195,0.24339 -0.36007,0.0627 -0.33165,0.082 0.0452,0.0307 z m -1.04456,-0.0444 c -0.22967,-0.0517 -0.28179,-0.0512 -0.12226,9.2e-4 0.0672,0.0221 0.16351,0.0402 0.21394,0.04 0.0573,-1.2e-4 0.0229,-0.0158 -0.0917,-0.0416 z m 0.65884,-0.75146 c -0.15526,-0.47885 -0.32209,-0.85718 -0.47957,-1.08755 -0.0886,-0.12965 -0.33925,-0.36392 -0.36343,-0.33973 -0.007,0.007 0.0535,0.0841 0.13493,0.17087 0.17066,0.1818 0.31278,0.45624 0.49403,0.95406 0.12441,0.3417 0.33478,0.80458 0.35603,0.78333 0.006,-0.006 -0.0581,-0.22224 -0.14199,-0.48098 z m -4.92397,-6.44073 c 0.4021,-0.38707 0.86589,-0.7498 1.72079,-1.34585 0.24795,-0.17287 0.45081,-0.3285 0.45081,-0.34584 0,-0.0179 -0.0298,-0.0124 -0.0688,0.0127 -0.0378,0.0243 -0.17191,0.10374 -0.29797,0.1764 -0.3761,0.21676 -0.83814,0.54114 -1.0601,0.74424 -0.11452,0.1048 -0.33349,0.29587 -0.48656,0.4246 -0.33309,0.28008 -0.64227,0.61074 -0.74112,0.79256 -0.0667,0.12258 -0.0577,0.11653 0.12059,-0.0815 0.10594,-0.11767 0.26898,-0.28747 0.36234,-0.37734 z m 2.39287,-1.66595 c -0.16514,-0.17914 -0.17265,-0.19633 -0.26398,-0.60405 -0.10271,-0.45863 -0.10434,-0.7857 -0.006,-1.21883 0.04,-0.1765 0.0684,-0.32567 0.063,-0.33149 -0.006,-0.006 -0.0383,0.0811 -0.0728,0.19307 -0.14888,0.48198 -0.13349,1.25618 0.034,1.7124 0.0269,0.0733 0.31016,0.37532 0.35706,0.38071 0.006,6.4e-4 -0.0437,-0.0586 -0.11118,-0.13181 z m -11.66509,5.64676 c -0.57234,-0.12722 -1.00537,-0.43338 -1.22413,-0.86545 -0.0685,-0.13529 -0.0507,-0.26057 0.0839,-0.59073 0.13335,-0.32706 0.33907,-0.67393 0.57572,-0.97063 0.45926,-0.57579 1.51801,-1.63737 2.27084,-2.27691 0.11872,-0.10085 0.38125,-0.34241 0.58339,-0.53678 0.44681,-0.42964 0.60632,-0.5314 0.82499,-0.52628 0.18976,0.005 0.47471,0.10049 0.61455,0.20715 0.0567,0.0433 0.13762,0.13757 0.17984,0.20958 0.0876,0.1494 0.13267,0.32542 0.0834,0.32542 -0.0732,0 -0.68348,0.48694 -0.95344,0.76078 -0.60477,0.61349 -0.97462,1.31026 -1.16159,2.18851 -0.0477,0.2237 -0.0698,0.46536 -0.0829,0.90159 l -0.0178,0.59597 -0.1573,0.12628 c -0.23899,0.19189 -0.49676,0.34863 -0.68644,0.41742 -0.22558,0.0818 -0.64894,0.0973 -0.93317,0.0341 z m -1.4947,-1.38245 c -0.1115,-0.12322 -0.10287,-0.14127 0.53314,-1.11552 0.41029,-0.6285 0.87379,-1.11373 1.32982,-1.39217 0.15101,-0.0922 0.25642,-0.12138 0.25642,-0.071 0,0.0134 -0.0562,0.0788 -0.12499,0.14517 -0.21205,0.205 -0.7992,0.86851 -1.06353,1.20187 -0.27013,0.34064 -0.52564,0.71109 -0.73528,1.06597 -0.0719,0.12186 -0.13405,0.22156 -0.13793,0.22156 -0.004,0 -0.0298,-0.0252 -0.0576,-0.0559 z m 16.13901,-2.70171 c -0.19209,-0.41106 -0.14981,-0.81937 0.18764,-1.8115 0.0686,-0.20172 0.15302,-0.46642 0.1876,-0.58824 0.0626,-0.22043 0.20625,-0.4356 0.2908,-0.4356 0.0309,0 0.0267,0.0432 -0.0183,0.19101 -0.0815,0.26816 -0.0687,0.29415 0.0199,0.0403 0.0745,-0.21331 0.17279,-0.3536 0.24771,-0.3536 0.0606,0 0.0521,0.0601 -0.0884,0.62901 l -0.129,0.52204 -0.14557,0.0812 c -0.37579,0.20982 -0.57948,0.81482 -0.43648,1.29643 0.0423,0.14246 0.0575,0.15971 0.17574,0.19911 0.11256,0.0375 0.12941,0.0547 0.12941,0.13186 0,0.0979 -0.068,0.14398 -0.26362,0.17838 -0.10292,0.0181 -0.11413,0.0124 -0.15754,-0.0805 z m 0.29143,-0.3823 c -0.0422,-0.0645 -0.0537,-0.14785 -0.0537,-0.39108 0,-0.28366 0.007,-0.32392 0.0922,-0.48939 0.0973,-0.19021 0.24686,-0.31951 0.36954,-0.31951 0.0735,0 0.0997,0.0609 0.14795,0.34371 0.0242,0.14234 -0.0307,0.45759 -0.10507,0.60206 -0.0685,0.1331 -0.20135,0.26217 -0.31348,0.30452 -0.0744,0.0281 -0.0899,0.0224 -0.13754,-0.0503 z m 0.31205,-0.68285 c 0.0435,-0.13782 0.072,-0.2577 0.0633,-0.26642 -0.0231,-0.0231 -0.19099,0.35904 -0.21585,0.49152 -0.0117,0.0622 -0.0106,0.15103 0.003,0.19736 0.0226,0.0811 0.0242,0.0795 0.0472,-0.0438 0.0133,-0.0704 0.0597,-0.24083 0.10316,-0.37863 z m -14.31749,0.64405 c 0,-0.0625 0.6883,-0.73868 1.00173,-0.98406 0.17813,-0.13945 0.36229,-0.29411 0.40923,-0.3437 0.0736,-0.0777 0.0967,-0.0861 0.16753,-0.0611 0.0452,0.016 0.0877,0.0457 0.0945,0.0662 0.0208,0.0623 -0.26498,0.33954 -0.53507,0.51926 -0.14046,0.0935 -0.30612,0.23255 -0.36813,0.30908 -0.20689,0.25541 -0.38503,0.43831 -0.46935,0.4819 -0.096,0.0497 -0.30046,0.0581 -0.30046,0.0125 z m 11.99581,-1.00805 c -0.43611,-0.0612 -0.65124,-0.21033 -0.84061,-0.58261 -0.15278,-0.30033 -0.19667,-0.4991 -0.19531,-0.88471 0.003,-0.4164 0.0867,-0.77702 0.28503,-1.20636 0.25399,-0.5498 0.73894,-1.15408 1.14234,-1.42346 0.17805,-0.11889 0.2519,-0.13834 0.17542,-0.0461 -0.10262,0.12365 0.0157,0.0892 0.31915,-0.0932 0.4445,-0.26702 0.57239,-0.32994 0.82623,-0.40661 0.19349,-0.0584 0.30362,-0.0654 1.19118,-0.0754 1.06586,-0.012 1.45006,-0.0438 2.67424,-0.22152 0.41182,-0.0598 0.80261,-0.11642 0.86845,-0.12587 0.10127,-0.0145 0.11678,-0.01 0.10087,0.0319 -0.0475,0.12376 -0.0888,0.86123 -0.0698,1.24396 0.0191,0.3803 0.0898,1.01177 0.12768,1.13845 0.0146,0.0485 -0.0133,0.0535 -0.29952,0.0535 -0.95738,0 -2.31915,0.28666 -3.62844,0.76385 -0.319,0.11626 -0.64676,0.24522 -0.72836,0.28656 -0.21763,0.11028 -0.61459,0.4133 -0.76841,0.58656 -0.12682,0.14283 -0.26021,0.37816 -0.23093,0.40743 0.017,0.0172 0.28037,-0.16993 0.51774,-0.36795 0.10084,-0.0841 0.22119,-0.17291 0.26742,-0.19727 0.0836,-0.0441 0.0841,-0.0438 0.0833,0.0558 0,0.055 -0.0417,0.19599 -0.0917,0.31317 -0.05,0.11719 -0.0909,0.22922 -0.0909,0.24898 0,0.0544 -0.19707,0.21606 -0.37079,0.30409 -0.3227,0.16352 -0.88189,0.25062 -1.26429,0.19692 z m -7.93098,-0.17464 c -0.0252,-0.009 -0.0837,-0.0519 -0.12989,-0.095 -0.0727,-0.0677 -0.0841,-0.10191 -0.0841,-0.25166 0,-0.18373 0.0524,-0.30969 0.28474,-0.68444 0.14414,-0.23253 0.14396,-0.31833 0,-0.47886 -0.1136,-0.12575 -0.1136,-0.12575 -0.37928,-0.11305 -0.22986,0.011 -0.29594,0.0277 -0.49,0.12402 -0.12337,0.0612 -0.30859,0.17286 -0.4116,0.24812 -0.25027,0.18285 -0.50055,0.32177 -0.67336,0.37379 -0.16087,0.0484 -0.32223,0.0207 -0.4414,-0.0758 -0.0656,-0.0531 -0.0676,-0.0649 -0.0321,-0.18349 0.021,-0.0697 0.0784,-0.17279 0.12778,-0.22903 0.10268,-0.11694 0.62652,-0.45535 1.2522,-0.80894 l 0.16809,-0.095 -0.1556,-6.4e-4 c -0.2276,-9.3e-4 -0.39515,0.0598 -0.83195,0.30177 -0.46658,0.25849 -0.71484,0.33236 -0.9766,0.29062 -0.14726,-0.0235 -0.18354,-0.0428 -0.24054,-0.1277 -0.17766,-0.26491 -0.10562,-0.49437 0.19389,-0.61751 0.0974,-0.04 0.45104,-0.20787 0.78594,-0.37293 0.33489,-0.16506 0.61854,-0.30012 0.63031,-0.30012 0.0117,0 0.065,0.0911 0.11816,0.20255 0.0532,0.11139 0.10382,0.19547 0.11248,0.18683 0.008,-0.008 -0.008,-0.1376 -0.0375,-0.28659 -0.0655,-0.33345 -0.074,-0.92518 -0.0157,-1.09048 0.0573,-0.1623 0.0242,-0.17291 -0.0708,-0.0226 -0.0438,0.0694 -0.0911,0.11918 -0.10515,0.11054 -0.0546,-0.0337 -0.34398,0.0705 -0.52788,0.19026 -0.10631,0.0692 -0.2444,0.14711 -0.30689,0.17316 -0.11615,0.0484 -0.31587,0.0624 -0.40457,0.0284 -0.1199,-0.046 -0.19277,-0.35039 -0.13695,-0.57207 0.0798,-0.3168 0.40181,-0.44758 1.37336,-0.5577 0.25052,-0.0284 0.54889,-0.0834 0.68642,-0.12647 0.38559,-0.12085 0.71446,-0.16101 1.31543,-0.16069 0.30256,1.2e-4 0.57886,0.008 0.61401,0.0174 0.0621,0.0167 0.0638,0.034 0.0642,0.64903 0,0.69248 0.0349,1.03776 0.14575,1.45842 0.0864,0.32779 0.18914,0.56955 0.32705,0.7695 0.11278,0.16349 0.11382,0.21297 0.008,0.39529 -0.0852,0.14726 -0.21102,0.25258 -0.53959,0.45174 -0.12983,0.0787 -0.26338,0.17782 -0.29677,0.22027 -0.0334,0.0424 -0.11065,0.23075 -0.17164,0.41844 -0.061,0.18768 -0.13935,0.38756 -0.17404,0.44418 -0.0994,0.16213 -0.39194,0.26242 -0.5732,0.19646 z m 0.98608,-2.96328 c 0.20424,-0.0545 0.28697,-0.1115 0.30286,-0.209 0.0111,-0.0685 -0.0202,-0.0703 -0.47124,-0.0289 -0.38989,0.0358 -0.72834,-0.0585 -1.0882,-0.30305 -0.09,-0.0611 -0.16979,-0.11113 -0.17747,-0.11113 -0.0393,0 0.11556,0.20639 0.25156,0.33527 0.33614,0.31865 0.75485,0.43085 1.18249,0.31689 z m 17.04604,2.01559 c -0.21222,-0.11146 -0.31208,-0.25156 -0.29964,-0.4204 0.0114,-0.15427 0.0952,-0.17782 0.22984,-0.0645 0.13393,0.11269 0.25031,0.15186 0.27329,0.0919 0.0244,-0.0638 -0.13063,-0.22202 -0.2484,-0.25346 -0.0927,-0.0247 -0.10541,-0.0597 -0.0612,-0.1677 0.022,-0.0541 0.0189,-0.0544 -0.0748,-0.006 -0.1807,0.0934 -0.5521,0.16947 -0.82785,0.16947 -0.50975,0 -0.97906,-0.1797 -1.2535,-0.48002 -0.17027,-0.18628 -0.1724,-0.19444 -0.19793,-0.75776 -0.0186,-0.41038 -0.10565,-1.45938 -0.1226,-1.47691 -0.0337,-0.0349 -0.0519,0.59592 -0.0395,1.37296 0.0146,0.90846 0.0146,0.90846 -0.0585,0.94173 -0.16593,0.0756 -0.35479,0.0282 -0.46016,-0.11545 -0.10555,-0.14397 -0.17132,-0.78823 -0.17355,-1.70033 -0.003,-0.79378 0.0344,-1.07668 0.17459,-1.36003 0.0648,-0.13096 0.075,-0.13798 0.21221,-0.14681 0.0793,-0.006 0.17329,0.006 0.20892,0.0255 0.0812,0.0434 0.18025,0.25708 0.18113,0.39065 0,0.12147 0.0453,0.10456 0.10575,-0.0403 0.0408,-0.0975 0.0639,-0.10966 0.43277,-0.22759 0.58066,-0.18563 0.91051,-0.24679 1.43344,-0.26578 0.43704,-0.0159 0.49267,-0.0108 1.19194,0.10885 1.46048,0.24986 2.02903,0.44698 2.47277,0.85727 0.18179,0.16809 0.38483,0.47167 0.38483,0.57536 0,0.21914 -0.28694,0.42732 -0.53719,0.3898 -0.3048,-0.0457 -0.64774,-0.19959 -1.13292,-0.50837 -0.16015,-0.1019 -0.40317,-0.23944 -0.54007,-0.30566 -0.15753,-0.0762 -0.2635,-0.14823 -0.28869,-0.19628 -0.0521,-0.0994 -0.0593,-0.0963 -0.0743,0.0321 -0.0128,0.10802 -0.0128,0.10802 0.50861,0.41062 0.97206,0.56432 1.31575,0.86378 1.57288,1.37033 0.0806,0.15867 0.0662,0.22443 -0.0833,0.3803 -0.0925,0.0966 -0.12991,0.11461 -0.23735,0.11461 -0.23312,0 -0.3097,-0.035 -0.6439,-0.29436 -0.52387,-0.40655 -0.85794,-0.70661 -1.07392,-0.9646 -0.10993,-0.13136 -0.20677,-0.232 -0.21511,-0.22364 -0.008,0.008 -0.0178,0.0592 -0.021,0.11286 -0.006,0.0871 0.041,0.14596 0.42896,0.54635 0.46206,0.47691 0.63882,0.70888 0.78382,1.02865 0.10083,0.22241 0.0977,0.29281 -0.0239,0.53394 -0.0665,0.132 -0.0833,0.14489 -0.21333,0.1644 -0.16795,0.0252 -0.4403,9.2e-4 -0.52951,-0.0465 -0.0494,-0.0265 -0.0638,-0.0636 -0.0638,-0.16548 0,-0.0723 0.01,-0.14078 0.021,-0.15228 0.0114,-0.0114 0.0663,0.023 0.12181,0.0769 0.0555,0.0538 0.10962,0.0891 0.12029,0.0784 0.0476,-0.0476 -0.0359,-0.20279 -0.18455,-0.34316 -0.0905,-0.0854 -0.17722,-0.20004 -0.19664,-0.25979 -0.0191,-0.0588 -0.0657,-0.1569 -0.10345,-0.21794 -0.0693,-0.11187 -0.3896,-0.4748 -0.3896,-0.44136 0,0.01 0.0685,0.18097 0.15233,0.38015 0.20058,0.47687 0.25594,0.69927 0.23767,0.95482 -0.028,0.39123 -0.17127,0.55318 -0.50559,0.57145 -0.17956,0.01 -0.22639,1.2e-4 -0.3732,-0.0769 z m -0.76862,-2.17754 c 0.22456,-0.0324 0.41493,-0.0655 0.42309,-0.0736 0.098,-0.098 -1.15433,-0.27891 -1.42106,-0.20528 -0.14099,0.039 -0.23115,0.15667 -0.16819,0.21964 0.12771,0.12769 0.54371,0.14882 1.16616,0.0593 z m -0.93545,-0.0541 c -0.0715,-0.006 -0.12992,-0.023 -0.12992,-0.037 0,-0.0538 0.21426,-0.12387 0.37138,-0.1213 0.2287,0.004 0.6926,0.0756 0.63719,0.0987 -0.0491,0.0205 -0.65539,0.0856 -0.71381,0.0766 -0.0191,-0.004 -0.0934,-0.0106 -0.16484,-0.0171 z m 0.93237,-0.71223 c 0.24781,-0.0342 0.46432,-0.067 0.48114,-0.0729 0.0902,-0.0317 -0.28649,-0.14132 -0.6318,-0.18388 -0.63579,-0.0784 -0.91622,-0.0553 -0.95873,0.0786 -0.0267,0.0844 0.0322,0.14222 0.19619,0.19274 0.19673,0.0605 0.39231,0.0574 0.9132,-0.0145 z m -1.00115,-0.0898 c 0,-0.0163 0.0444,-0.0527 0.0985,-0.0807 0.0817,-0.0422 0.15328,-0.0477 0.42023,-0.0316 0.17698,0.0106 0.36305,0.031 0.41348,0.0453 0.0892,0.0255 0.0874,0.027 -0.0703,0.0614 -0.19834,0.0433 -0.86188,0.0477 -0.86188,0.006 z m 0.978,-0.62732 c 0.1597,-0.0246 0.34879,-0.045 0.42023,-0.0453 0.0715,-2.5e-4 0.12989,-0.0128 0.12989,-0.0277 0,-0.0565 -0.26426,-0.12916 -0.69352,-0.19062 -0.55234,-0.0791 -0.80145,-0.0632 -0.89621,0.0573 -0.0819,0.1041 -0.067,0.13499 0.0947,0.19708 0.17121,0.0657 0.5543,0.0695 0.9449,0.009 z m -0.94307,-0.10362 c -0.0536,-0.0339 -0.0183,-0.0542 0.16623,-0.0956 0.11059,-0.0247 0.23588,-0.0241 0.47861,0.003 0.18083,0.0199 0.32878,0.0465 0.32878,0.0589 0,0.0125 -0.0515,0.0311 -0.1146,0.0416 -0.17106,0.0283 -0.81133,0.0226 -0.85902,-0.007 z m -14.36403,2.50711 c -0.17622,-0.0495 -0.43901,-1.0412 -0.48231,-1.81997 -0.0328,-0.59105 0.0886,-1.24679 0.24653,-1.33133 0.10618,-0.0569 0.37719,-0.0213 0.45869,0.0603 0.0573,0.0573 0.0629,0.10212 0.0659,0.51264 0.006,0.78139 0.10185,1.61637 0.24194,2.09972 0.0894,0.30862 0.0765,0.35747 -0.11777,0.44569 -0.12813,0.0582 -0.28011,0.0703 -0.41302,0.033 z m 0.76372,-0.39401 c -0.0658,-0.12435 -0.16346,-0.50298 -0.20426,-0.79213 -0.0242,-0.17095 -0.053,-0.58573 -0.0643,-0.92178 l -0.0205,-0.61099 0.11934,-0.0333 c 0.0657,-0.0183 0.27427,-0.0496 0.46364,-0.0695 0.57657,-0.0607 1.3282,0.0299 1.98976,0.2397 l 0.2558,0.0811 -0.0183,0.15601 c -0.0122,0.10469 -0.005,0.18253 0.0234,0.2366 0.0408,0.0785 0.0363,0.0855 -0.16617,0.2668 -0.36287,0.32486 -0.76421,0.93163 -0.88672,1.34064 -0.0215,0.0714 -0.0443,0.12982 -0.0508,0.12982 -0.006,0 -0.056,-0.0235 -0.10979,-0.0523 -0.13414,-0.0717 -0.50335,-0.0642 -0.88817,0.0182 -0.36563,0.0784 -0.40686,0.0794 -0.44301,0.0111 z m -5.93031,-0.15743 c -0.16683,-0.15584 -0.10103,-0.33128 0.21673,-0.57803 0.17372,-0.1349 0.17372,-0.1349 0.33192,-0.0969 0.26457,0.0634 0.44366,0.0255 0.85693,-0.18155 0.20376,-0.10209 0.39748,-0.18562 0.43047,-0.18562 0.0549,0 0.0582,0.0143 0.0389,0.16879 -0.0117,0.0928 -0.0244,0.21266 -0.0288,0.26628 -0.007,0.0943 -0.0141,0.0987 -0.20267,0.1343 -0.23751,0.0448 -0.35262,0.0926 -0.70202,0.29122 -0.28899,0.16431 -0.58121,0.27022 -0.74558,0.27022 -0.0693,0 -0.13081,-0.0279 -0.19593,-0.0887 z m 9.02801,-1.52788 c -0.14991,-0.0385 -0.29033,-0.12366 -0.29033,-0.17588 0,-0.0268 0.10905,-0.16057 0.24239,-0.2972 0.25697,-0.26333 0.30814,-0.35218 0.30705,-0.5331 0,-0.20009 -0.10149,-0.35424 -0.45951,-0.70628 l -0.34202,-0.33627 0.0136,-0.26854 c 0.0186,-0.36545 0.10559,-0.54146 0.44354,-0.89656 0.14317,-0.15046 0.27018,-0.27357 0.28223,-0.27357 0.0119,0 0.0726,0.12722 0.13436,0.2827 0.39302,0.98834 0.93269,1.5113 1.72505,1.67172 l 0.26513,0.0537 0.0728,0.18024 c 0.04,0.0992 0.0799,0.25842 0.0887,0.35393 0.0159,0.17368 0.0159,0.17368 -0.15152,0.34116 -0.13689,0.13691 -0.20517,0.17914 -0.37402,0.23129 -0.2624,0.0811 -0.56855,0.086 -0.63459,0.0103 -0.10159,-0.11646 -0.12845,-0.21063 -0.12741,-0.44682 0,-0.21477 -0.004,-0.2344 -0.0427,-0.18337 -0.0993,0.12979 -0.13387,0.26621 -0.12446,0.49167 0.009,0.22534 0.009,0.22609 -0.0894,0.28851 -0.24063,0.15235 -0.73639,0.26449 -0.93888,0.21238 z m 2.87206,-0.41139 -0.24532,-0.035 0.0727,-0.13121 c 0.13503,-0.24406 0.1195,-0.65897 -0.0327,-0.87271 -0.0651,-0.0914 -0.0651,-0.0914 0.004,-0.1372 0.1546,-0.10264 0.40958,-0.52815 0.48912,-0.81622 0.0381,-0.13777 0.0419,-0.14167 -0.14208,0.13921 -0.0825,0.12588 -0.21587,0.28918 -0.29634,0.36288 -0.14631,0.13401 -0.14631,0.13401 -0.35111,0.11684 -1.15946,-0.0972 -1.87019,-0.94353 -1.87889,-2.23741 -0.003,-0.30157 0.006,-0.35377 0.0778,-0.50692 0.1396,-0.29772 0.41995,-0.51693 0.66107,-0.51693 0.18142,0 0.46476,0.0844 0.64578,0.19231 0.0905,0.0539 0.2871,0.2289 0.43704,0.38884 0.22839,0.24361 0.28399,0.32335 0.34268,0.49128 0.22004,0.62971 0.59933,0.98916 1.03903,0.98469 0.19058,-0.002 0.38502,-0.0636 0.4846,-0.15373 0.0306,-0.0277 0.0975,-0.12354 0.14871,-0.21307 0.0861,-0.15048 0.0908,-0.17365 0.0625,-0.30665 -0.0362,-0.16973 -0.0326,-0.1785 0.0821,-0.20144 0.11695,-0.0234 0.26152,-0.14865 0.3875,-0.33573 l 0.10281,-0.15268 -0.0783,-0.15447 c -0.0499,-0.0985 -0.20782,-0.28226 -0.43603,-0.50735 -0.39348,-0.38812 -0.47567,-0.52098 -0.52721,-0.85196 -0.0449,-0.28828 -0.022,-0.32037 0.27045,-0.38099 0.13189,-0.0274 0.40441,-0.0726 0.60563,-0.10054 0.20118,-0.0279 0.45516,-0.0756 0.56437,-0.1059 0.10918,-0.0303 0.20703,-0.0498 0.21742,-0.0434 0.0104,0.006 0.0127,0.0536 0.006,0.10469 -0.0117,0.0801 -0.005,0.093 0.0551,0.093 0.0381,0 0.1297,-0.0562 0.20544,-0.12596 0.12864,-0.11855 0.14467,-0.12484 0.27337,-0.10721 0.28309,0.0388 0.43852,0.16152 0.70148,0.5538 l 0.1637,0.24424 v -0.23983 c 0,-0.27919 -0.0614,-0.54266 -0.1845,-0.7906 -0.0984,-0.19839 -0.0776,-0.22998 0.0453,-0.0689 0.19779,0.25932 0.27749,0.5558 0.36952,1.37487 0.0513,0.45612 0.10791,0.74494 0.18735,0.95501 0.0423,0.11195 0.0664,0.13452 0.17485,0.16394 0.1369,0.0372 0.0424,0.0643 1.24131,-0.3571 0.3656,-0.12851 0.44217,-0.14512 0.67237,-0.14596 0.26868,-6.5e-4 0.48209,0.0633 0.62217,0.18755 0.13802,0.12234 0.29471,0.64982 0.29471,0.99204 0,0.34316 -0.17725,0.80343 -0.39545,1.02683 -0.14799,0.15153 -0.4301,0.29461 -0.6709,0.34028 -0.30915,0.0586 -0.31176,0.0575 -0.62146,-0.25358 -0.15592,-0.15663 -0.42887,-0.40932 -0.60653,-0.56155 -0.17769,-0.15223 -0.38742,-0.3624 -0.46609,-0.46704 -0.14063,-0.18708 -0.15618,-0.1958 -0.14391,-0.0806 0.006,0.0501 -0.0213,0.0427 -0.20278,-0.0565 -0.35,-0.19137 -0.34315,-0.17629 -0.27961,-0.61575 0.0303,-0.20981 0.0281,-0.30777 -0.0133,-0.59756 -0.0555,-0.38741 -0.23627,-0.97901 -0.33824,-1.10664 -0.1956,-0.24493 -0.52885,-0.094 -0.63267,0.28659 -0.0555,0.20355 -0.0423,0.67428 0.0291,1.03885 0.0761,0.38799 0.0756,0.36674 0.008,0.36674 -0.0507,0 -0.0533,0.0197 -0.0309,0.23687 0.0555,0.53869 0.19604,0.93976 0.39576,1.12924 0.12388,0.11752 0.32586,0.20898 0.52317,0.2369 0.16303,0.0231 0.14954,-0.004 0.20929,0.41271 0.0333,0.23176 0.0488,0.27088 0.15034,0.37977 0.10762,0.11537 0.12443,0.12226 0.33911,0.13895 0.19779,0.0154 0.2259,0.025 0.2259,0.0773 0,0.0845 -0.10473,0.10517 -0.43553,0.0856 -0.15549,-0.009 -0.28269,-0.008 -0.28269,9.3e-4 0,0.0461 -0.22258,0.83354 -0.24133,0.85374 -0.0519,0.056 -0.70223,0.11742 -1.53131,0.14483 -0.49588,0.0164 -1.04742,0.0455 -1.22568,0.0645 -0.36707,0.0393 -0.38232,0.035 -0.59782,-0.16355 -0.0736,-0.0678 -0.14041,-0.11663 -0.14853,-0.10849 -0.008,0.008 0.0425,0.10007 0.11251,0.20433 0.0993,0.14787 0.11917,0.19765 0.0904,0.22638 -0.0492,0.0491 -0.44522,0.055 -0.75312,0.0111 z m -0.19018,-2.37575 c 0.12087,-0.1294 0.10381,-0.16381 -0.0199,-0.0401 -0.0846,0.0846 -0.12739,0.10391 -0.2299,0.10391 -0.1041,0 -0.1486,-0.0208 -0.25597,-0.11982 -0.0715,-0.0659 -0.19107,-0.22339 -0.26569,-0.34998 -0.0746,-0.12659 -0.14049,-0.22537 -0.14636,-0.21949 -0.0287,0.0287 0.0398,0.24403 0.11553,0.3635 0.14884,0.23469 0.43489,0.40291 0.62652,0.36845 0.0504,-0.009 0.12951,-0.057 0.17574,-0.10647 z m -0.0454,-0.52723 c -0.0506,-0.63055 -0.85395,-1.38417 -1.25555,-1.17786 -0.14702,0.0755 -0.23806,0.19601 -0.2985,0.395 -0.0494,0.16281 -0.0547,0.21882 -0.0272,0.29106 0.034,0.0894 0.034,0.0894 0.0891,-0.0733 0.064,-0.18886 0.24044,-0.38578 0.39001,-0.43514 0.0859,-0.0284 0.12281,-0.0233 0.23867,0.0328 0.18429,0.0893 0.32027,0.25617 0.5084,0.6242 0.14411,0.28199 0.31212,0.53701 0.35375,0.53701 0.009,0 0.01,-0.0871 0.003,-0.19372 z m -0.91366,-0.48692 c 0.0149,-0.0147 0.0801,-0.0458 0.14528,-0.0691 l 0.11846,-0.0422 -0.11756,-9.2e-4 c -0.0701,-6.4e-4 -0.15193,0.0231 -0.20281,0.0594 -0.0936,0.0667 -0.18431,0.26004 -0.18322,0.39069 0,0.0696 0.0183,0.0507 0.10683,-0.11357 0.0584,-0.10836 0.11824,-0.20909 0.13302,-0.22387 z m 5.41369,2.95278 c 1e-4,-0.031 0.0125,-0.10448 0.0276,-0.16332 0.0151,-0.0588 0.0363,-0.14644 0.0472,-0.19467 0.0194,-0.0857 0.0237,-0.0874 0.18628,-0.0739 0.0916,0.007 0.17592,0.0231 0.18735,0.0346 0.0205,0.0204 -0.0598,0.30763 -0.10479,0.37545 -0.0125,0.019 -0.0951,0.0444 -0.18335,0.0563 -0.14349,0.0195 -0.16044,0.0159 -0.16028,-0.0345 z m 3.61041,-0.33648 c 0.1051,-0.12662 0.63276,-0.23613 1.45639,-0.30228 0.53671,-0.0431 0.88577,-0.0919 1.10101,-0.15411 0.0702,-0.0202 0.0705,-0.0187 0.0498,0.17467 -0.0114,0.10731 -0.0296,0.20408 -0.0402,0.21506 -0.0106,0.011 -0.088,0.008 -0.17204,-0.006 -0.52224,-0.0901 -1.57272,-0.0614 -2.16795,0.059 -0.19181,0.0388 -0.25064,0.0425 -0.227,0.0139 z m -3.42163,-0.27634 c 0.0143,-0.0741 0.14393,-0.0916 0.43101,-0.0583 0.34701,0.0404 0.28958,0.0932 -0.11296,0.10387 -0.30089,0.008 -0.32764,0.004 -0.31805,-0.0456 z m 0.86657,-0.29566 c -0.0802,-0.0642 -0.0906,-0.0913 -0.0905,-0.23672 v -0.16421 l -0.16871,0.0855 c -0.1255,0.0635 -0.20374,0.0831 -0.30533,0.0764 -0.19011,-0.0125 -0.24162,-0.10817 -0.28006,-0.51961 -0.0448,-0.4797 -0.0307,-0.45214 -0.23102,-0.45214 -0.23767,0 -0.38923,-0.0523 -0.54228,-0.18698 -0.16702,-0.14702 -0.28911,-0.41386 -0.3147,-0.68773 l -0.0191,-0.20551 0.37931,0.19977 c 1.04148,0.54854 1.60091,0.97299 2.01758,1.53079 0.19048,0.25501 0.19305,0.272 0.0671,0.44231 -0.14407,0.19484 -0.35559,0.24363 -0.51235,0.11819 z m -9.11205,-0.89045 c -0.12762,-0.12761 -0.0432,-0.28568 0.37485,-0.70182 0.14866,-0.14795 0.22619,-0.23907 0.17233,-0.20249 -0.0538,0.0365 -0.2384,0.21731 -0.41009,0.40163 -0.34948,0.37512 -0.36716,0.38258 -0.62279,0.26306 -0.32646,-0.15263 -0.58946,-0.49165 -0.73839,-0.95181 -0.0631,-0.19485 -0.0821,-0.32517 -0.0935,-0.64181 -0.0172,-0.47732 0.0313,-0.75207 0.18931,-1.07328 0.0949,-0.19289 0.1322,-0.23485 0.32897,-0.37039 0.12205,-0.0841 0.41446,-0.25326 0.64979,-0.37596 0.55462,-0.28918 0.79241,-0.44271 0.98678,-0.63706 0.26013,-0.26014 0.28271,-0.36141 0.0417,-0.18678 -0.0698,0.0505 -0.12683,0.0857 -0.12683,0.0781 0,-0.021 0.57322,-0.96867 0.82472,-1.36351 1.0215,-1.60357 2.06005,-2.47505 3.36672,-2.82512 0.37928,-0.10162 0.99055,-0.10902 1.35269,-0.0164 0.26381,0.0675 0.54292,0.20508 0.70704,0.34861 l 0.10898,0.0953 -0.0638,0.18338 c -0.26545,0.76274 -0.039,1.92571 0.42666,2.19167 0.0674,0.0385 0.1226,0.0788 0.12273,0.0895 0,0.0223 -0.2502,0.18626 -1.65013,1.0803 -1.3627,0.87026 -2.05121,1.33851 -2.986,2.03072 -0.0978,0.0725 -0.0978,0.0725 -0.27506,0.0145 -0.2704,-0.0885 -0.61842,-0.0783 -0.84099,0.0247 -0.43712,0.2022 -0.7574,0.72183 -0.7574,1.2288 0,0.14882 -0.006,0.1582 -0.20945,0.35576 -0.24962,0.24183 -0.46403,0.51968 -0.63103,0.81766 -0.0672,0.12 -0.13317,0.21849 -0.14656,0.21889 -0.0133,2.7e-4 -0.0589,-0.0339 -0.10123,-0.0763 z m 4.44169,-3.85585 c 0.29468,-0.18612 0.58595,-0.40187 0.36652,-0.2715 -0.62577,0.37178 -1.76395,1.1012 -1.76395,1.13045 0,0.0112 0.73861,-0.44286 1.39743,-0.85895 z m 0.0318,3.20051 c -0.34071,-0.10712 -0.75246,-0.64002 -0.80594,-1.04309 -0.0109,-0.0825 -0.0334,-0.15009 -0.0499,-0.15009 -0.0165,0 -0.022,0.0207 -0.0122,0.0458 0.0349,0.091 -0.032,0.0416 -0.27153,-0.20066 l -0.2438,-0.24651 0.1764,-0.16539 c 0.097,-0.091 0.34459,-0.28443 0.55014,-0.42992 0.20554,-0.14548 0.43291,-0.31237 0.50529,-0.37086 0.0724,-0.0585 0.13649,-0.10136 0.1425,-0.0953 0.006,0.006 0.0545,0.12109 0.1078,0.25557 0.21631,0.54603 0.35536,0.73064 0.65799,0.87363 0.23243,0.10981 0.39378,0.27608 0.36319,0.37429 -0.0491,0.15758 -0.0737,0.19759 -0.17868,0.28974 -0.0769,0.0676 -0.14197,0.0974 -0.21213,0.0974 -0.1124,0 -0.15133,-0.0357 -0.27486,-0.25214 -0.0456,-0.0798 -0.091,-0.14517 -0.10085,-0.14517 -0.0451,0 0.0218,0.28797 0.11238,0.48466 0.1,0.2169 0.10008,0.2177 0.0497,0.34974 -0.0967,0.25308 -0.31407,0.39152 -0.51544,0.32822 z m 3.14566,-0.80351 c -0.0925,-0.12454 -0.13496,-0.25039 -0.15999,-0.47403 -0.0202,-0.18071 0.0215,-0.57166 0.0832,-0.77712 0.0485,-0.1621 0.13384,-0.15839 0.1786,0.007 0.0287,0.10668 0.0244,0.14271 -0.0294,0.25415 -0.0806,0.16647 -0.081,0.40488 0,0.76608 0.0333,0.15044 0.0605,0.28453 0.0605,0.29799 0,0.0542 -0.0621,0.0189 -0.13175,-0.0749 z m -0.29879,-0.1073 c -0.21041,-0.14629 -0.31821,-0.45582 -0.31654,-0.90891 0.003,-0.71302 0.35124,-1.0699 0.59083,-0.60489 0.0291,0.0564 0.0252,0.0726 -0.0229,0.0984 -0.0317,0.017 -0.0904,0.0966 -0.13026,0.17701 -0.0667,0.13424 -0.0726,0.18349 -0.0726,0.60458 -4e-5,0.27891 0.0143,0.49708 0.0363,0.55709 0.044,0.11909 0.0143,0.14578 -0.0849,0.0767 z m 0.98168,-1.94039 c -0.0622,-0.31643 -0.17858,-0.64754 -0.27398,-0.77924 l -0.09,-0.12425 0.47947,-0.23479 c 0.66509,-0.32568 0.94895,-0.41783 1.25185,-0.4064 0.23618,0.009 0.23618,0.009 0.23177,0.10746 -0.003,0.0565 -0.0447,0.15331 -0.0989,0.22706 -0.052,0.0707 -0.0885,0.1345 -0.0812,0.14181 0.022,0.022 0.23814,-0.11828 0.36072,-0.23424 0.22111,-0.20922 0.20708,-0.39819 -0.039,-0.52369 -0.11831,-0.0603 -0.13065,-0.0608 -0.44457,-0.0141 -0.586,0.087 -0.9916,0.22736 -1.98481,0.6867 -0.99494,0.46016 -1.39856,0.59965 -1.98865,0.68726 -0.28753,0.0427 -0.38999,0.0438 -0.34685,0.004 0.007,-0.006 0.31532,-0.21115 0.68512,-0.4548 0.75385,-0.49668 1.27061,-0.81033 1.87919,-1.14052 l 0.413,-0.22405 0.79462,0.0265 c 0.66063,0.022 0.82728,0.0369 0.98813,0.088 0.24688,0.0784 0.40426,0.18794 0.4906,0.34154 0.0666,0.11842 0.067,0.1265 0.0202,0.30939 -0.13418,0.52379 -0.54806,0.97908 -1.17802,1.29584 -0.17795,0.0894 -0.96614,0.41171 -1.00708,0.41171 -0.0133,0 -0.0409,-0.0859 -0.0616,-0.19102 z m -0.70366,-0.22503 c -0.12858,-0.13231 -0.28714,-0.21715 -0.45638,-0.24421 -0.16121,-0.0258 -0.12755,-0.0723 0.11692,-0.16139 0.20588,-0.0751 0.25395,-0.0653 0.33593,0.0682 0.0632,0.10295 0.16361,0.44798 0.13022,0.44743 -0.0109,-2.3e-4 -0.068,-0.0497 -0.12669,-0.11009 z m -0.0475,-2.14701 c -0.4613,-0.2813 -0.67513,-1.32159 -0.39387,-1.91612 0.0433,-0.0915 0.0886,-0.16633 0.10066,-0.16633 0.0765,0 0.53138,0.61379 0.48744,0.65772 -0.0228,0.0228 -0.0788,-0.0341 -0.15817,-0.16108 -0.0448,-0.0715 -0.0932,-0.12989 -0.10757,-0.12989 -0.0445,0 -0.2349,1.16969 -0.19971,1.22666 0.009,0.0147 0.0972,0.0815 0.19588,0.1485 l 0.17935,0.12179 0.0318,-0.16014 c 0.0175,-0.0881 0.0399,-0.21273 0.0498,-0.27701 0.0154,-0.0998 0.0247,-0.11128 0.0641,-0.0786 0.13085,0.10859 0.18334,0.41449 0.10398,0.60607 -0.0349,0.0844 -0.16401,0.18561 -0.23617,0.18527 -0.0136,-7e-5 -0.0663,-0.0256 -0.11742,-0.0568 z m -0.0752,-0.4932 c -0.074,-0.074 -0.0774,-0.18822 -0.0127,-0.43789 0.0267,-0.10282 0.0507,-0.24578 0.0535,-0.31768 0.003,-0.0719 0.0119,-0.13032 0.0205,-0.12979 0.0258,9.2e-4 0.20589,0.25198 0.29128,0.40477 0.0868,0.15528 0.0907,0.27693 0.005,0.13614 -0.0281,-0.0459 -0.0745,-0.12124 -0.10308,-0.16747 l -0.052,-0.084 -0.021,0.10176 c -0.0117,0.056 -0.0307,0.20381 -0.0423,0.32854 -0.0117,0.12474 -0.0338,0.22679 -0.0492,0.22679 -0.0154,0 -0.0555,-0.0275 -0.0891,-0.0611 z"
         id="path142" />
    </g>
  </g>
</svg>
