<?xml version="1.0" encoding="UTF-8" standalone="no"?>
<!-- Created with Inkscape (http://www.inkscape.org/) -->

<svg
   width="41.008999mm"
   height="41.008999mm"
   viewBox="0 0 41.008999 41.009"
   version="1.1"
   id="svg1"
   inkscape:version="1.4.2 (f4327f4, 2025-05-13)"
   sodipodi:docname="227.svg"
   xmlns:inkscape="http://www.inkscape.org/namespaces/inkscape"
   xmlns:sodipodi="http://sodipodi.sourceforge.net/DTD/sodipodi-0.dtd"
   xmlns="http://www.w3.org/2000/svg"
   xmlns:svg="http://www.w3.org/2000/svg">
  <sodipodi:namedview
     id="namedview1"
     pagecolor="#ffffff"
     bordercolor="#000000"
     borderopacity="0.25"
     inkscape:showpageshadow="2"
     inkscape:pageopacity="0.0"
     inkscape:pagecheckerboard="0"
     inkscape:deskcolor="#d1d1d1"
     inkscape:document-units="mm"
     inkscape:zoom="2.0485264"
     inkscape:cx="68.341808"
     inkscape:cy="134.73099"
     inkscape:window-width="1050"
     inkscape:window-height="1081"
     inkscape:window-x="3737"
     inkscape:window-y="0"
     inkscape:window-maximized="0"
     inkscape:current-layer="layer1" />
  <defs
     id="defs1" />
  <g
     inkscape:label="Layer 1"
     inkscape:groupmode="layer"
     id="layer1"
     transform="translate(-114.0891,-77.774176)">
    <g
       id="g161"
       transform="translate(-303.55603,352.53913)">
      <path
         id="path141"
         style="fill:#000000;stroke-width:0.189968"
         d="m 438.14961,-274.26045 a 19.999989,19.999989 0 0 0 -19.99998,19.99999 19.999989,19.999989 0 0 0 19.99998,20 19.999989,19.999989 0 0 0 20.00002,-20 19.999989,19.999989 0 0 0 -20.00002,-19.99999 z m -0.091,1.8538 c 1.98037,0 3.75265,0.28419 5.63148,0.90297 0.75516,0.2487 0.77768,0.26044 1.40322,0.7286 1.97929,1.48128 3.45559,3.63617 3.785,5.52503 0.0909,0.52089 0.1025,1.66588 0.0252,2.47247 -0.11972,1.24894 -0.43934,1.99734 -1.22729,2.8737 -0.13049,0.14512 -0.26398,0.26388 -0.29676,0.26388 -0.0742,0 -0.28719,-0.13961 -0.37095,-0.24316 -0.0371,-0.0459 -0.0629,-0.22419 -0.0629,-0.43588 0,-0.56254 -0.098,-0.8097 -0.49025,-1.23515 -1.20415,-1.30639 -1.92022,-1.6651 -5.58081,-2.79565 l -0.61755,-0.19075 0.46018,-0.49692 c 0.28357,-0.30622 0.51093,-0.60524 0.59246,-0.77905 0.12238,-0.26106 0.13223,-0.33283 0.13223,-0.9607 0,-0.74476 -0.0736,-1.12143 -0.3329,-1.70116 -0.41248,-0.92249 -1.298,-1.68178 -2.18021,-1.86951 -0.39515,-0.084 -1.84537,-0.0854 -2.36232,-0.002 -1.11496,0.17946 -2.10663,0.67736 -2.84041,1.42608 -0.53584,0.54671 -0.84101,1.23042 -0.88798,1.98891 -0.0501,0.81008 0.16516,1.38228 0.84644,2.2505 0.0318,0.0404 -0.1555,0.10282 -0.64771,0.21598 -1.36513,0.3137 -2.0668,0.5016 -2.5568,0.68472 -1.46569,0.54772 -3.08241,1.60883 -3.59328,2.35841 -0.122,0.17909 -0.23323,0.32603 -0.24709,0.32641 -0.0137,3.6e-4 -0.11365,-0.13659 -0.22176,-0.30443 -0.66532,-1.03256 -0.90193,-1.98614 -0.70997,-2.86053 0.35557,-1.61947 1.38587,-3.66402 2.54081,-5.04194 0.46881,-0.55932 0.54352,-0.61316 1.58259,-1.14101 2.61439,-1.32819 5.26514,-1.95956 8.22738,-1.95956 z m -0.71269,2.62288 c 0.59456,-0.0151 1.38404,0.0318 1.65092,0.11491 0.56025,0.17457 1.20553,1.0283 1.46485,1.93795 0.20701,0.72609 0.18377,1.8018 -0.0488,2.25759 -0.19172,0.37578 -0.72105,0.74344 -1.00437,0.69758 -0.0708,-0.0114 0.0315,-0.0941 0.35076,-0.28321 0.29608,-0.17541 0.46031,-0.30497 0.47854,-0.37757 0.0185,-0.0734 -0.11389,-0.43041 -0.3948,-1.06491 -0.23244,-0.52491 -0.51795,-1.17316 -0.63447,-1.44053 -0.3917,-0.89841 -0.60724,-1.125 -0.8691,-0.91366 -0.13031,0.1052 -0.70201,0.71196 -1.05127,1.11579 l -0.23257,0.26888 -0.62132,-0.83364 -0.62129,-0.83365 -0.13352,0.13753 c -0.16133,0.16617 -1.85244,3.17924 -1.85244,3.30052 0,0.15505 0.0983,0.27403 0.46602,0.56378 0.19983,0.15747 0.3727,0.29375 0.38429,0.30285 0.05,0.0395 -0.0325,0.0475 -0.17277,0.0168 -0.2357,-0.0515 -0.40734,-0.1875 -0.59314,-0.46984 -0.53102,-0.807 -0.57525,-1.7571 -0.12149,-2.61226 0.43481,-0.81952 1.81883,-1.65737 3.05286,-1.84811 0.12828,-0.0198 0.30489,-0.0318 0.50309,-0.037 z m 10.34019,0.54474 c 0.0646,0.002 0.76872,0.49541 1.42984,1.0026 0.7817,0.59966 2.37359,2.18628 2.9769,2.96703 2.05043,2.6536 3.21446,5.40988 3.68268,8.72053 0.13152,0.93547 0.132,3.57161 0,4.54874 -0.43079,3.18941 -1.65278,6.11097 -3.60524,8.62 v 0 c -0.21512,0.27643 -0.52872,0.65642 -0.69687,0.84436 l -0.30582,0.34162 v -0.2411 c 0,-0.39225 -0.0913,-0.84107 -0.32835,-1.62489 -0.27875,-0.92147 -0.33942,-1.06828 -0.5706,-1.38075 -0.10228,-0.13821 -0.35601,-0.51141 -0.56398,-0.82933 -0.91252,-1.39497 -1.57956,-2.00685 -3.14825,-2.88782 -0.28337,-0.15913 -0.5152,-0.3053 -0.5152,-0.32484 0,-0.0195 0.0678,-0.23595 0.15061,-0.48094 0.20435,-0.60459 0.30177,-1.10489 0.30177,-1.54968 0,-0.20464 0.0141,-0.47438 0.0312,-0.59941 l 0.0311,-0.22727 0.43368,-0.0222 c 0.53262,-0.0272 0.90169,-0.19565 1.31638,-0.60088 0.767,-0.74952 1.41895,-1.91626 1.63312,-2.92288 0.0957,-0.4496 0.0944,-1.38777 -0.003,-1.75878 -0.22109,-0.84875 -0.81373,-1.40825 -1.57278,-1.48481 l -0.32476,-0.0327 0.3763,-0.55287 c 0.47231,-0.69401 0.70302,-1.1511 0.92321,-1.8288 0.29764,-0.91633 0.38657,-1.55168 0.35583,-2.54403 -0.0283,-0.9148 -0.0948,-1.31401 -0.34303,-2.06056 -0.26478,-0.79638 -0.92345,-2.03292 -1.4945,-2.80596 -0.11593,-0.15694 -0.19311,-0.28489 -0.17151,-0.28427 z m -11.86984,0.53463 c 0.0249,-0.003 0.27167,0.31377 0.54846,0.707 0.62297,0.88508 0.63438,0.89711 0.76966,0.81266 0.0568,-0.0354 0.39256,-0.38694 0.74627,-0.78104 l 0.64309,-0.71653 0.21468,0.4122 c 0.4711,0.90468 1.06987,2.32446 1.06987,2.53678 0,0.0868 -0.0455,0.18563 -0.11302,0.2463 -0.0622,0.0558 -0.28537,0.20437 -0.49588,0.33024 l -0.38272,0.22893 -0.1578,-0.66087 c -0.55951,-2.34442 -0.52203,-2.21424 -0.60685,-2.10612 -0.0431,0.0549 -0.28875,0.40919 -0.54602,0.78743 l -0.46776,0.68767 -0.51561,-0.69347 c -0.62221,-0.83687 -0.65162,-0.8648 -0.78465,-0.74442 -0.101,0.0914 -0.44559,0.93562 -0.78493,1.92333 -0.10692,0.311 -0.21288,0.56545 -0.23562,0.56545 -0.0836,0 -0.639,-0.40783 -0.639,-0.46915 0,-0.0884 1.6823,-3.05663 1.73789,-3.06639 z m 0.0809,1.33656 c 0.019,0.006 0.28116,0.35184 0.5827,0.76651 0.30154,0.41466 0.56862,0.75178 0.59346,0.74912 0.0249,-0.002 0.23572,-0.30309 0.46863,-0.66764 0.23293,-0.36455 0.43995,-0.64513 0.46005,-0.62348 0.029,0.0311 0.41461,1.48971 0.5786,2.18809 l 0.0325,0.13822 h -1.79314 c -1.79311,0 -1.79316,0 -1.76007,-0.11315 0.17317,-0.59156 0.81069,-2.44747 0.8374,-2.43774 z m -9.91091,0.20429 c 0,0.0213 -0.0439,0.1248 -0.0978,0.23021 -0.14908,0.29216 -0.47926,1.2825 -0.59668,1.7896 -0.18083,0.78092 -0.27483,1.61154 -0.24178,2.13617 0.0721,1.14502 0.3995,1.73115 1.48823,2.6639 l 0.32269,0.27643 -0.27398,0.0348 c -0.78422,0.0998 -1.30264,0.49747 -1.65702,1.27088 -0.23489,0.51263 -0.29145,0.75505 -0.29714,1.27139 -0.008,0.70375 0.38589,2.04899 0.85357,2.91777 0.26574,0.49363 0.54845,0.85204 1.11964,1.41941 0.37924,0.37673 0.48282,0.51045 0.50336,0.65018 0.0142,0.0967 0.0631,0.50709 0.10839,0.91178 0.0454,0.40468 0.0937,0.83444 0.10713,0.95499 0.0615,0.54726 0.10951,0.65051 0.48555,1.04529 0.36301,0.38112 0.83953,1.00696 0.83953,1.10264 0,0.0281 -0.0774,0.20514 -0.17189,0.39356 -0.14789,0.29464 -0.22197,0.59761 -0.52981,2.16619 -0.19682,1.00298 -0.38039,1.88281 -0.40789,1.95513 -0.0278,0.0724 -0.12036,0.21154 -0.20629,0.30942 -0.0859,0.0979 -0.2002,0.27743 -0.25393,0.39896 -0.0932,0.21055 -0.0947,0.25916 -0.0322,1.03293 0.0362,0.44658 0.0601,0.95897 0.0536,1.13866 h -3.1e-4 c -0.006,0.1797 -0.0283,0.40198 -0.0487,0.49398 l -0.037,0.16728 -0.40176,-0.34222 c -0.93499,-0.79634 -1.83576,-1.75218 -2.62172,-2.7819 -1.85877,-2.43531 -3.04072,-5.31645 -3.46947,-8.45742 -0.13092,-0.96099 -0.12989,-3.60312 0.003,-4.53538 0.50852,-3.59571 1.90163,-6.68758 4.21238,-9.34883 0.46465,-0.53509 1.24913,-1.33008 1.24913,-1.26588 z m 10.65561,2.76344 c 3.40752,-0.10078 6.40336,0.76797 8.68589,2.51892 0.66654,0.51133 1.0174,0.86669 1.1621,1.17705 0.12214,0.26203 0.12214,0.26194 0.0198,0.39915 -0.0562,0.0754 -0.20166,0.17379 -0.32319,0.21842 -0.23898,0.0878 -0.7325,0.14354 -0.97491,0.11007 -6.10131,-0.84035 -6.17267,-0.84767 -7.81578,-0.7992 -2.22299,0.0657 -8.30027,0.41232 -8.33953,0.47582 -0.0272,0.0444 -0.25092,0.006 -0.8624,-0.14883 -0.45396,-0.11479 -0.85368,-0.23148 -0.88823,-0.25916 -0.33869,-0.27124 0.94689,-1.42782 2.38725,-2.14783 1.73579,-0.86766 4.448,-1.47047 6.94896,-1.54449 z m 0.48369,4.208 3.248,0.002 -0.44658,0.46355 c -0.64565,0.67019 -1.04411,1.33244 -1.1514,1.91401 -0.0334,0.1803 -0.0283,0.19163 0.0685,0.16091 0.10411,-0.0332 0.10411,-0.0332 0.006,0.24757 -0.45008,1.28061 -0.28808,2.83641 0.38836,3.7297 0.39761,0.52512 0.84134,0.79043 1.3246,0.79193 0.43686,9.9e-4 0.84558,-0.21434 1.25675,-0.66303 0.5892,-0.64305 0.90336,-1.54152 0.90336,-2.57623 0,-1.455 -0.47823,-2.2955 -1.49721,-2.63866 -0.3553,-0.11961 -0.35503,-0.12531 0.0155,-0.24131 0.64413,-0.20162 1.12005,-0.15389 1.79689,0.18013 0.24187,0.11935 0.43978,0.20319 0.43978,0.18624 0,-0.0169 -0.0679,-0.23167 -0.15077,-0.47701 -0.083,-0.24535 -0.15079,-0.46028 -0.15079,-0.47759 0,-0.0278 2.36032,0.24899 2.40503,0.28195 0.0454,0.0334 -0.31529,1.58113 -0.47543,2.04053 -0.48576,1.39363 -0.53277,1.56378 -0.50977,1.84498 0.0196,0.23982 0.0463,0.29429 0.22479,0.46091 0.14921,0.13915 0.26423,0.19819 0.43646,0.22401 0.14756,0.0221 0.25166,0.0685 0.28223,0.12556 0.20329,0.37985 0.43751,2.51592 0.34978,3.18979 -0.13738,1.055 -0.57588,1.92979 -1.48998,2.97244 -0.18625,0.21245 -0.37818,0.36512 -0.61594,0.49008 -0.1899,0.0998 -0.35487,0.1815 -0.36666,0.1815 -0.0114,0 -0.29575,-0.20529 -0.63111,-0.45618 l -0.60981,-0.45619 0.11529,-0.26006 c 0.36918,-0.83273 0.38066,-0.84841 0.78477,-1.06845 0.94236,-0.51319 1.45762,-1.31107 1.45762,-2.2573 0,-0.31485 -0.12391,-1.17105 -0.1773,-1.22466 -0.01,-0.01 -0.20594,0.11694 -0.4356,0.28203 -0.97492,0.70069 -1.80044,1.14073 -2.61834,1.39566 -0.2429,0.0757 -0.44687,0.1291 -0.45314,0.11859 -0.0483,-0.0806 -0.58912,-0.70161 -0.71133,-0.81716 -0.42681,-0.40348 -1.02361,-0.77139 -1.59799,-0.98522 -0.74368,-0.27685 -1.9454,-0.4355 -2.88871,-0.3813 l -0.5639,0.0324 0.0775,-0.21557 c 0.39638,-1.1037 0.24475,-2.70935 -0.36884,-3.90515 -0.22364,-0.43588 -0.91799,-2.09296 -0.91799,-2.19084 0,-0.0148 1.46155,-0.0257 3.24793,-0.0248 z m -9.33528,0.40132 c 0.0224,0 0.10784,0.0234 0.18997,0.0521 0.14599,0.0508 0.15058,0.0631 0.21195,0.56544 0.32233,2.63925 0.32707,2.80158 0.104,3.57942 -0.0872,0.30409 -0.2432,0.73384 -0.3468,0.955 -0.10358,0.22115 -0.23322,0.44162 -0.28803,0.48995 -0.0954,0.0843 -0.10422,0.0831 -0.21018,-0.0298 -0.0977,-0.10401 -0.1067,-0.15235 -0.078,-0.41464 0.0179,-0.1633 0.10336,-0.45521 0.18986,-0.6487 l 0.15705,-0.35186 0.0147,-2.09843 c 0.008,-1.15416 0.033,-2.09847 0.0553,-2.09847 z m 4.25063,0.10616 c 0.25228,0.01 0.47843,0.0651 0.6912,0.16572 0.25774,0.12187 0.74296,0.49767 0.74296,0.57438 -1.9e-4,0.0184 -0.15551,0.0709 -0.34508,0.11656 -0.51692,0.12454 -0.89887,0.33071 -1.24156,0.6701 -0.51453,0.50964 -0.72235,1.11062 -0.72427,2.09109 0,0.98769 0.24864,1.65223 0.85232,2.26298 0.3093,0.31293 0.46264,0.42286 0.84149,0.60314 0.25481,0.12126 0.46465,0.2318 0.46465,0.24563 0,0.0138 -0.1253,0.18345 -0.28019,0.37697 -0.15492,0.19351 -0.32477,0.40623 -0.37747,0.47267 -0.0906,0.11428 -0.10723,0.11733 -0.30866,0.0584 -0.33909,-0.0997 -0.97887,-0.43612 -1.3389,-0.70426 -0.35008,-0.26071 -0.66757,-0.57424 -0.98393,-0.97139 -0.18152,-0.22788 -0.19601,-0.23581 -0.28421,-0.15599 -0.44056,0.39868 -0.61666,1.39053 -0.39848,2.24365 0.12137,0.47466 0.25462,0.73914 0.5144,1.02096 0.20296,0.22015 0.72842,0.52413 0.90612,0.52413 0.0719,0 0.1708,0.16075 0.41377,0.67333 0.35362,0.74597 0.57884,1.01897 0.96107,1.16497 0.28596,0.10918 0.81067,0.0776 1.14139,-0.0687 l 0.2378,-0.1053 0.39185,0.39189 c 0.31599,0.31592 0.48392,0.437 0.86714,0.62505 0.60356,0.29614 0.94113,0.38282 1.63531,0.41957 1.23094,0.0651 2.41855,-0.30237 3.22079,-0.99672 0.22511,-0.19484 0.25038,-0.20401 0.50401,-0.18298 0.14688,0.0127 0.279,0.0339 0.29342,0.0486 0.0147,0.0146 -0.0603,0.171 -0.1663,0.34771 -0.26033,0.43387 -0.40165,0.78072 -0.53835,1.32136 l -0.11466,0.45383 -0.69671,0.42261 c -0.84327,0.51146 -1.30203,0.73582 -1.70195,0.83247 -0.82805,0.20014 -1.59641,0.1172 -2.54815,-0.27526 -0.5177,-0.21349 -0.8301,-0.41645 -2.35242,-1.52789 -1.5993,-1.16764 -2.24068,-1.67035 -2.75832,-2.16199 -1.40936,-1.33837 -2.07305,-3.05556 -1.72044,-4.45134 0.0622,-0.24626 0.2429,-0.69881 0.43039,-1.0779 0.17774,-0.35938 0.33864,-0.72128 0.35762,-0.80419 0.0821,-0.35947 0.39888,-0.85736 0.78682,-1.23694 0.33665,-0.32939 0.46027,-0.49712 0.36637,-0.49712 -0.0132,0 -0.20911,0.10218 -0.43477,0.22697 -0.22573,0.1248 -0.41499,0.22098 -0.42066,0.21362 -0.051,-0.0663 -0.24331,-1.82969 -0.2619,-2.40082 -0.0318,-0.97595 -0.0767,-0.92505 0.83609,-0.94615 0.38927,-0.009 0.70777,-0.002 0.70777,0.0146 0,0.0169 -0.0453,0.1196 -0.10046,0.22796 -0.0552,0.10828 -0.10045,0.21811 -0.10045,0.24383 0,0.0257 0.22328,-0.0409 0.49622,-0.14803 0.62402,-0.24495 1.11695,-0.35728 1.53743,-0.34151 z m -5.33978,0.14892 c 0.21433,-0.002 0.38176,0.065 0.41792,0.21852 0.0369,0.15695 0.10261,1.63747 0.0727,1.63745 -0.0143,0 -0.11152,-0.058 -0.2159,-0.12898 -0.28568,-0.19414 -0.69512,-0.37256 -0.85621,-0.37315 -0.14767,-3.4e-4 -0.50746,0.14479 -0.46466,0.1876 0.0132,0.0132 0.17723,0.0561 0.36433,0.0954 0.62544,0.13113 1.00565,0.47355 1.13158,1.0191 0.0765,0.33161 -0.0216,1.5113 -0.16906,2.0265 -0.13192,0.46175 -0.1277,0.51663 0.0848,1.08703 0.0965,0.25875 0.16283,0.4906 0.14763,0.51518 -0.0659,0.1067 -0.18307,0.0226 -0.40867,-0.29254 -0.85338,-1.19256 -1.38696,-2.31631 -1.57776,-3.32281 -0.1234,-0.65126 0.0724,-1.70107 0.40231,-2.15648 0.22629,-0.31243 0.71376,-0.50914 1.07101,-0.51284 z m 19.80768,0.0496 c 0.11363,0.0114 0.20455,0.0585 0.28999,0.14383 0.17553,0.17553 0.18595,0.3281 0.0475,0.69237 -0.22367,0.58851 -0.27764,0.95571 -0.27573,1.87484 0,0.83435 0.01,0.91173 0.16883,1.50481 0.22283,0.834 0.1742,1.15029 -0.25158,1.63522 -0.0856,0.0975 -0.1724,0.17728 -0.1928,0.17728 -0.0205,0 -0.0659,-0.0962 -0.10121,-0.21361 -0.0351,-0.11746 -0.17676,-0.53527 -0.31458,-0.92848 -0.2506,-0.71494 -0.25053,-0.71504 -0.39378,-0.64095 -0.51781,0.26776 -0.58864,-0.1631 -0.19016,-1.15651 0.31798,-0.79257 0.49327,-1.55446 0.52887,-2.29814 l 0.0305,-0.63869 0.22765,-0.0775 c 0.17629,-0.06 0.31261,-0.0854 0.42625,-0.0744 z m 1.84812,0.81059 c 0.11669,-0.002 0.22443,0.008 0.31225,0.0372 0.25694,0.0847 0.51782,0.39661 0.62144,0.74276 0.22469,0.75072 -0.006,2.12362 -0.53345,3.18116 -0.35556,0.71229 -1.01697,1.40996 -1.60036,1.68791 -0.14652,0.0698 -0.37783,0.14008 -0.51391,0.15618 -0.23415,0.0278 -0.25015,0.0221 -0.29903,-0.10637 -0.0284,-0.0746 -0.0518,-0.14295 -0.0518,-0.15168 0,-0.009 0.0965,-0.0402 0.21413,-0.0698 0.12925,-0.0325 0.27577,-0.11961 0.3698,-0.21961 0.24605,-0.26178 0.76745,-1.108 0.88125,-1.43023 0.15,-0.42473 0.11288,-0.90793 -0.10347,-1.34755 -0.089,-0.18052 -0.17715,-0.32826 -0.19613,-0.32828 -0.0188,-2e-5 -0.0347,0.34492 -0.0347,0.7665 0,0.51292 -0.0213,0.81453 -0.0642,0.9117 -0.0353,0.0799 -0.0742,0.13525 -0.0864,0.12315 -0.0127,-0.0127 -0.0476,-0.23862 -0.0788,-0.50333 -0.0951,-0.80713 0.0772,-1.50184 0.47794,-1.92685 0.18997,-0.20138 0.45598,-0.24037 0.59461,-0.0872 0.1191,0.13159 0.31912,0.58719 0.41774,0.95156 0.10829,0.40011 0.17022,0.33311 0.17022,-0.18526 0,-0.68599 -0.34074,-1.14086 -0.89602,-1.19423 -0.29935,-0.0287 -0.46707,0.0516 -0.75087,0.35941 -0.205,0.2224 -0.2113,0.22515 -0.24091,0.10702 -0.0676,-0.26916 0.1503,-0.8938 0.38956,-1.11696 0.21951,-0.20475 0.65066,-0.3476 1.00082,-0.35732 z m -7.98504,0.3003 c 0.54336,-0.0177 1.37543,0.51489 1.69223,1.1359 0.24798,0.48607 0.3277,1.35608 0.18567,2.02631 -0.079,0.37291 -0.32154,0.93955 -0.50481,1.17989 -0.16837,0.22069 -0.60024,0.49751 -0.92791,0.5948 -0.27482,0.0816 -0.35604,0.0887 -0.51988,0.0463 -0.071,-0.0185 -0.0186,-0.094 0.25482,-0.36734 0.88334,-0.88331 1.05678,-2.00239 0.48686,-3.1413 -0.31871,-0.63682 -0.76305,-0.97721 -1.18699,-0.90944 -0.1068,0.0171 -0.19427,0.0127 -0.19427,-0.0114 0,-0.0886 0.3553,-0.45119 0.50146,-0.51176 0.0634,-0.0263 0.1352,-0.0399 0.21282,-0.0426 z m -7.2433,0.13046 c 0.3675,-0.0431 0.80259,0.0802 1.10863,0.33779 l 0.15062,0.12671 h -0.30299 c -0.70507,0 -1.17576,0.23139 -1.43884,0.70731 -0.14652,0.2661 -0.15071,0.28949 -0.14844,0.95134 0.003,0.73468 0.07,1.08866 0.30875,1.62057 0.22074,0.49182 0.74082,0.8423 1.24988,0.8423 0.24427,0 0.25383,0.0789 0.0278,0.22862 -0.43011,0.28465 -0.78511,0.19072 -1.32872,-0.35134 -0.60093,-0.59927 -0.8904,-1.27521 -0.92731,-2.16551 -0.0278,-0.66653 0.0347,-1.007 0.27117,-1.4794 0.18317,-0.36618 0.34939,-0.53878 0.69199,-0.71858 0.10013,-0.0527 0.21511,-0.0854 0.33758,-0.0997 z m 6.76117,0.68621 c 0.33149,-0.0622 0.64139,0.17496 0.90278,0.6908 0.52868,1.04325 0.24103,2.55111 -0.59531,3.12098 -0.11153,0.076 -0.22435,0.13821 -0.25061,0.13821 -0.0262,0 -0.13031,-0.0828 -0.23116,-0.18425 l -0.18349,-0.18435 0.17592,-0.0679 c 0.63774,-0.24652 0.86835,-0.68745 0.87595,-1.67447 0.003,-0.42012 -0.0114,-0.50438 -0.12201,-0.70112 -0.18123,-0.32254 -0.39036,-0.428 -0.83518,-0.42123 -0.36091,0.006 -0.36088,0.006 -0.32122,-0.13273 0.0941,-0.32821 0.29588,-0.52978 0.58438,-0.58389 z m -6.08044,0.0375 c 0.40754,-0.0518 0.80877,0.15963 0.99554,0.60667 0.0431,0.10304 0.11454,0.47627 0.1588,0.82933 0.0779,0.6206 0.0771,0.66281 -0.0252,1.2702 -0.0959,0.57088 -0.11946,0.64091 -0.25734,0.76651 -0.13428,0.12226 -0.19109,0.13812 -0.4904,0.13774 -0.44167,-7e-4 -0.80728,-0.16233 -0.98462,-0.43548 -0.22338,-0.34407 -0.44462,-1.26497 -0.45089,-1.8761 -0.003,-0.42435 0.057,-0.58118 0.35851,-0.91552 0.20417,-0.22646 0.451,-0.3523 0.69554,-0.38335 z m 0.18405,0.30157 c -0.0603,-0.003 -0.12518,-0.002 -0.19525,0.002 -0.35639,0.0295 -0.62668,0.21149 -0.7816,0.52617 -0.10411,0.21152 -0.11883,0.31181 -0.11681,0.79497 0.003,0.44735 0.0234,0.60613 0.11301,0.83178 0.16878,0.4262 0.39267,0.74776 0.57626,0.82757 0.21264,0.0924 0.41292,0.0921 0.72793,-9.8e-4 0.3033,-0.0901 0.4984,-0.29451 0.54038,-0.56616 0.0157,-0.10293 0.0495,-0.30354 0.0747,-0.44596 0.0391,-0.22031 0.0235,-0.34356 -0.10304,-0.826 -0.21583,-0.82257 -0.41386,-1.11475 -0.83572,-1.14376 z m -0.0897,0.24335 c 0.26493,0 0.44805,0.19719 0.40868,0.44 -0.0161,0.0997 -0.0585,0.20837 -0.094,0.24139 -0.10433,0.0971 -0.30786,0.12341 -0.44213,0.0569 -0.0971,-0.0482 -0.12831,-0.10702 -0.1399,-0.26485 -0.009,-0.11153 0.008,-0.26368 0.0365,-0.33809 0.0426,-0.112 0.0823,-0.13528 0.23088,-0.13528 z m 5.73429,0.33662 c 0.0278,-0.005 0.0634,0.0114 0.12685,0.0438 0.28714,0.14847 0.34464,0.39838 0.12674,0.55102 -0.058,0.0407 -0.16903,0.0739 -0.24672,0.0739 -0.233,0 -0.27386,-0.28649 -0.0841,-0.59029 0.0305,-0.0487 0.0496,-0.0736 0.0773,-0.0783 z m -2.77289,3.15681 c 0.72126,0.0574 1.43966,0.29142 2.06875,0.70899 0.46195,0.30664 0.94896,0.83216 1.15101,1.24202 0.47964,0.97299 0.2729,1.85673 -0.64936,2.77583 -0.5185,0.51669 -1.00429,0.79479 -1.71296,0.9806 -0.389,0.10207 -1.51478,0.17797 -1.75917,0.11872 -0.61622,-0.14922 -0.86698,-0.24918 -1.27051,-0.50616 -0.5484,-0.34922 -1.02066,-0.88174 -1.33166,-1.50168 -0.28675,-0.57151 -0.3504,-0.82626 -0.32977,-1.32056 0.0234,-0.56478 0.17374,-0.89953 0.60456,-1.34817 0.81725,-0.85109 2.02712,-1.24545 3.22911,-1.14964 z m 8.81294,4.79986 c 0.0963,0 1.69735,0.78173 1.81719,0.88726 0.0114,0.01 0,0.0369 -0.0252,0.0587 -0.0259,0.0216 -0.1638,-3.5e-4 -0.30665,-0.0493 -0.56926,-0.19462 -1.30149,-0.24126 -1.96349,-0.12506 -0.32798,0.0575 -0.35707,0.0561 -0.29843,-0.0146 0.49792,-0.60038 0.65843,-0.75687 0.77653,-0.75687 z m -3.82752,0.60218 c 0.17837,-0.003 0.355,0.0324 0.51804,0.10973 0.30284,0.14353 1.00487,0.85821 1.38545,1.41028 0.42537,0.61705 0.52333,0.59824 0.30895,-0.0593 -0.0784,-0.24062 -0.0996,-0.36851 -0.0629,-0.37983 0.0718,-0.0221 1.35908,-0.16854 1.37238,-0.15617 0.006,0.005 0.0508,0.26692 0.10056,0.58165 0.0496,0.31473 0.11668,0.58098 0.14881,0.59165 0.10024,0.0334 0.39468,-0.30934 0.46365,-0.53952 0.14864,-0.49614 0.0863,-0.47162 0.64417,-0.25328 0.86118,0.337 0.81942,0.29229 1.02527,1.09595 0.15051,0.58746 0.21818,0.60345 0.47597,0.11288 0.10163,-0.1935 0.21093,-0.35183 0.24282,-0.35183 0.13975,0 0.55409,0.3547 0.66708,0.57104 0.0411,0.0791 0.074,0.24875 0.072,0.37697 -0.003,0.27155 0.0843,0.70568 0.16266,0.8041 0.0435,0.0545 0.10229,0.0139 0.29167,-0.20105 l 0.23736,-0.26937 0.15019,0.32965 c 0.27494,0.60327 0.33151,0.90276 0.33151,1.7311 0,0.42046 -0.0286,0.87622 -0.0636,1.03039 -0.0601,0.26407 -0.0858,0.29606 -0.57643,0.71417 -0.93207,0.79447 -2.30147,1.76285 -2.33801,1.65336 -0.0482,-0.14433 0.31433,-1.22591 0.55145,-1.64571 0.29377,-0.52012 0.71237,-1.5076 0.66889,-1.57796 -0.0586,-0.0948 -0.16451,-0.046 -0.35947,0.16561 -0.40709,0.44165 -0.76164,1.04291 -1.17272,1.9887 -0.31856,0.73296 -0.462,0.88259 -1.0705,1.11726 -0.21998,0.0848 -0.50925,0.16717 -0.64292,0.18299 -0.22659,0.0269 -0.25456,0.0172 -0.41399,-0.14215 -0.13364,-0.13365 -0.18892,-0.24978 -0.25305,-0.53189 -0.10315,-0.4531 -0.10552,-1.15966 -0.006,-1.54388 0.12592,-0.48327 0.55472,-1.2602 1.34287,-2.43272 0.13622,-0.20267 0.23855,-0.37766 0.22734,-0.38885 -0.0365,-0.0365 -0.61214,0.40868 -0.78957,0.6106 -0.17789,0.20244 -0.93389,1.33515 -1.0707,1.60428 -0.0422,0.083 -0.10455,0.28649 -0.13863,0.45236 -0.19936,0.97062 -0.87159,1.45149 -1.77007,1.26609 -0.54521,-0.11251 -0.8872,-0.8413 -0.82776,-1.764 0.0511,-0.79356 0.26493,-1.39038 0.76877,-2.14577 0.45912,-0.68835 0.63418,-0.89703 0.90105,-1.07436 0.39704,-0.26381 0.7491,-0.34425 1.39174,-0.31777 0.30063,0.0127 0.55698,0.006 0.5699,-0.0151 0.0129,-0.0208 -0.0488,-0.0891 -0.13686,-0.15177 -0.14858,-0.10584 -0.21389,-0.11427 -0.90453,-0.11694 -0.54677,-0.002 -0.75081,-0.0196 -0.76867,-0.0658 -0.0404,-0.10423 -0.15927,-0.0734 -0.63182,0.16394 -0.82577,0.41474 -1.18376,0.53398 -1.68268,0.56054 -0.79473,0.0423 -0.99218,-0.16008 -1.02274,-1.04795 -0.0179,-0.51917 -0.0129,-0.54895 0.14637,-0.89471 0.19122,-0.41487 0.58232,-0.81245 1.00762,-1.02439 0.17012,-0.0847 0.35024,-0.1293 0.5286,-0.13332 z m -12.53878,0.1497 0.19693,0.1561 c 0.10828,0.0857 0.19703,0.18266 0.19703,0.21517 0,0.0325 -0.26765,0.86185 -0.59481,1.84294 -0.41933,1.2574 -0.61811,1.78829 -0.67385,1.79913 -0.0669,0.0129 -0.0722,-0.0142 -0.0339,-0.17593 0.0249,-0.10519 0.11391,-0.59846 0.19814,-1.09606 0.19178,-1.13327 0.35383,-1.81616 0.55423,-2.33582 z m 15.92923,0.20458 c 0.17568,0.003 1.96154,0.28884 1.99057,0.31787 0.0436,0.0436 0.0283,0.0419 -1.05612,-0.11922 -0.52033,-0.0773 -0.95954,-0.15392 -0.97584,-0.17031 -0.0165,-0.0164 0.003,-0.0291 0.0413,-0.0283 z m -15.15811,0.45079 0.2512,0.17926 c 0.2883,0.20565 1.39582,0.8213 1.79513,0.9979 0.45398,0.20075 0.44375,0.0501 0.14354,2.1059 -0.1461,1.00026 -0.29356,2.05874 -0.3278,2.35212 -0.0723,0.62 -0.18412,0.88973 -0.49568,1.19676 -0.11808,0.11632 -0.29291,0.26056 -0.38853,0.32043 l -0.17386,0.10884 0.14127,-0.16992 c 0.0776,-0.0934 0.20509,-0.29664 0.28302,-0.45149 0.53078,-1.05473 0.20527,-2.21944 -0.74353,-2.66035 -0.23916,-0.11107 -0.35519,-0.13218 -0.73627,-0.13312 -0.65016,-0.002 -0.86865,0.12403 -1.18341,0.6805 -0.19431,0.34352 -0.23722,0.48662 0.66792,-2.22727 z m 9.55798,1.7373 c 0.0168,0.006 0.0305,0.023 0.0472,0.0458 0.17605,0.24081 0.0416,0.50949 -0.49273,0.98472 -0.88435,0.78647 -1.48924,1.12449 -2.29393,1.28178 -0.33787,0.0661 -0.99049,0.0823 -1.49088,0.037 -0.70195,-0.0634 -2.61297,-0.27426 -2.62876,-0.29 -0.0161,-0.0164 0.13721,-1.12846 0.22404,-1.62332 l 0.0286,-0.16404 0.18478,0.16689 c 0.44208,0.39939 1.12633,0.77197 1.74934,0.95233 0.33193,0.096 0.5104,0.11314 1.1707,0.11275 0.89237,-6.9e-4 1.2251,-0.0668 1.89354,-0.37665 0.51479,-0.23866 0.78923,-0.42683 1.23389,-0.84631 0.24938,-0.23525 0.32423,-0.30113 0.3741,-0.28097 z m 2.59609,0.85102 c 0.0596,-0.025 -0.0211,0.14329 -0.23335,0.48691 -0.63872,1.03332 -0.82899,1.53546 -0.87391,2.30618 -0.0336,0.57631 0.0427,1.07033 0.21873,1.41775 0.30661,0.60518 0.91254,1.02161 1.56627,1.07643 0.29998,0.0251 0.37068,0.0129 0.60039,-0.10347 0.14323,-0.0726 0.33809,-0.20013 0.43303,-0.2835 l 0.17268,-0.15159 0.10347,0.33996 c 0.11402,0.37433 0.32019,0.73079 0.54121,0.93576 l 0.14354,0.13301 -0.57753,-0.006 c -0.31763,-0.003 -0.67934,-0.0243 -0.80372,-0.0465 -0.12441,-0.0221 -0.46367,-0.0422 -0.75393,-0.0448 -1.04008,-0.009 -1.80914,-0.28536 -3.18627,-1.14485 l -0.24578,-0.15355 0.27089,-0.0775 c 0.14908,-0.0426 0.34866,-0.0971 0.44356,-0.12099 0.29148,-0.0735 0.23431,-0.1479 -0.15788,-0.20556 -0.42206,-0.0621 -0.60468,-0.0343 -1.87432,0.28478 -1.40112,0.35209 -2.09323,0.44491 -2.68903,0.36067 -0.57389,-0.0811 -0.82678,-0.18262 -1.07575,-0.43154 -0.45218,-0.45219 -0.59078,-1.00851 -0.37057,-1.48755 0.32641,-0.71003 0.86291,-0.96397 1.62889,-0.77102 0.42371,0.1067 0.87368,0.0792 1.30028,-0.0791 0.49498,-0.18387 2.19392,-1.01951 2.5783,-1.26814 0.19656,-0.12718 0.49644,-0.35897 0.66627,-0.51508 0.30874,-0.28388 0.30879,-0.28387 0.54257,-0.24121 0.50794,0.0928 1.08592,0.0186 1.63186,-0.209 z m -13.86311,1.28611 0.0151,0.16491 c 0.009,0.0983 -0.0795,0.44666 -0.21892,0.86154 -0.20314,0.60502 -0.23098,0.73675 -0.21095,1.00161 0.0127,0.16776 0.0402,0.34459 0.0609,0.39297 h 1.2e-4 c 0.0428,0.0995 0.003,0.10583 -0.16247,0.026 -0.16954,-0.0817 -0.18325,-0.22814 -0.0896,-0.9587 0.16811,-1.3107 0.16191,-1.28884 0.39826,-1.39508 z m 4.40053,0.24719 c 0.10681,0 1.03899,0.13294 1.27068,0.18122 0.14243,0.0297 0.14243,0.0297 0.0252,0.10783 -0.58879,0.39206 -0.86512,0.95226 -0.86135,1.74662 0.003,0.74137 0.27822,1.30649 0.83397,1.7156 0.4035,0.29703 0.82464,0.42143 1.54607,0.45647 0.9209,0.0447 1.46212,-0.0872 2.20936,-0.53865 0.26587,-0.16062 0.3868,-0.20641 0.49046,-0.18564 0.11288,0.0226 0.72271,0.37756 1.79619,1.04529 0.14779,0.0919 0.0604,0.0938 -4.47336,0.0929 l -4.62413,-9.7e-4 -0.2346,-0.1616 c -0.27148,-0.18693 -0.4767,-0.42773 -0.41274,-0.48426 0.0242,-0.0215 0.36084,-0.2738 0.74784,-0.56074 0.38704,-0.28694 0.7948,-0.61268 0.90614,-0.7239 0.26516,-0.2649 0.39334,-0.65881 0.52657,-1.6191 0.15661,-1.12864 0.14297,-1.07101 0.25376,-1.07101 z m -2.71162,0.12024 c 0.17438,-0.001 0.33491,0.048 0.4658,0.14781 0.25919,0.1977 0.3368,0.33618 0.46603,0.8313 l 0.11314,0.43362 -0.15835,0.39916 c -0.18019,0.45437 -0.40152,0.80388 -0.60217,0.95105 -0.20907,0.15334 -0.65937,0.16732 -0.9316,0.029 -0.43239,-0.21975 -0.66492,-0.66102 -0.66492,-1.26197 0,-0.61411 0.27325,-1.10647 0.76287,-1.37475 0.18647,-0.10218 0.37473,-0.15394 0.54917,-0.15521 z m -2.56861,2.49209 0.34096,0.17171 c 0.66061,0.33265 1.5139,1.04507 1.86775,1.5594 0.0872,0.12671 0.1517,0.23037 0.14353,0.23031 -0.0633,-3.6e-4 -1.05112,-0.59475 -1.63598,-0.98426 l -0.71626,-0.47699 v -0.25004 z m 3.1163,0.66863 c 0.0413,-0.0127 -0.0491,0.0579 -0.20107,0.15649 -0.2858,0.18521 -0.35709,0.20319 -0.52776,0.13301 -0.11706,-0.0481 -0.10605,-0.0539 0.35185,-0.1823 0.16587,-0.0465 0.3355,-0.0948 0.37698,-0.10713 z m 16.11467,1.10587 c 0.0132,0.013 -0.0575,0.0718 -0.15707,0.13058 -0.0995,0.0587 -0.20793,0.10637 -0.2409,0.10616 -0.033,-2.7e-4 0.0378,-0.059 0.15706,-0.13056 0.11935,-0.0716 0.22782,-0.11935 0.24091,-0.10616 z" />
      <circle
         style="fill:none;stroke:#ff0000;stroke-width:0.1;stroke-dasharray:none"
         id="path788-8-1-8-1-9-2-9-3-7-1-2-04-7-4-5"
         cx="438.14963"
         cy="-254.26045"
         r="19.954653" />
      <circle
         style="fill:none;stroke:#0000ff;stroke-width:0.1;stroke-linecap:round;stroke-dasharray:none;stroke-opacity:1;paint-order:markers stroke fill"
         id="path13019-1-33-5-7-7-4-6-7-8-7-48"
         cx="438.1496"
         cy="-269.27142"
         r="2" />
    </g>
  </g>
</svg>
