<?xml version="1.0" encoding="UTF-8" standalone="no"?>
<!-- Created with Inkscape (http://www.inkscape.org/) -->

<svg
   width="41.008999mm"
   height="41.008999mm"
   viewBox="0 0 41.008999 41.009"
   version="1.1"
   id="svg1"
   inkscape:version="1.4.2 (f4327f4, 2025-05-13)"
   sodipodi:docname="228.svg"
   xmlns:inkscape="http://www.inkscape.org/namespaces/inkscape"
   xmlns:sodipodi="http://sodipodi.sourceforge.net/DTD/sodipodi-0.dtd"
   xmlns="http://www.w3.org/2000/svg"
   xmlns:svg="http://www.w3.org/2000/svg">
  <sodipodi:namedview
     id="namedview1"
     pagecolor="#ffffff"
     bordercolor="#000000"
     borderopacity="0.25"
     inkscape:showpageshadow="2"
     inkscape:pageopacity="0.0"
     inkscape:pagecheckerboard="0"
     inkscape:deskcolor="#d1d1d1"
     inkscape:document-units="mm"
     inkscape:zoom="2.0485264"
     inkscape:cx="68.341808"
     inkscape:cy="134.73099"
     inkscape:window-width="1050"
     inkscape:window-height="1081"
     inkscape:window-x="3737"
     inkscape:window-y="0"
     inkscape:window-maximized="0"
     inkscape:current-layer="layer1" />
  <defs
     id="defs1" />
  <g
     inkscape:label="Layer 1"
     inkscape:groupmode="layer"
     id="layer1"
     transform="translate(-114.0891,-77.774176)">
    <g
       id="g162"
       transform="translate(-345.65729,352.22623)">
      <circle
         style="fill:none;stroke:#ff0000;stroke-width:0.1;stroke-dasharray:none"
         id="path788-8-1-8-1-9-2-2-9-1-0-0-4-6-06-9"
         cx="480.25089"
         cy="-253.94756"
         r="19.954653" />
      <ellipse
         style="fill:none;stroke:#ff00ff;stroke-width:0.1;stroke-dasharray:none;stroke-opacity:1"
         id="path1138-9-4-0-0-1-2-8-1-8-6-2-9-9-0-6"
         cx="480.25089"
         cy="-253.94756"
         rx="18.492125"
         ry="18.492126" />
      <circle
         style="fill:none;stroke:#0000ff;stroke-width:0.1;stroke-linecap:round;stroke-dasharray:none;stroke-opacity:1;paint-order:markers stroke fill"
         id="path13019-1-33-4-5-5-5-5-7-1-7-3"
         cx="480.25089"
         cy="-268.95853"
         r="2" />
      <path
         style="fill:#000000;stroke-width:0.0684628"
         d="m 483.66891,-237.11277 c -0.34972,-0.0114 -0.95401,-0.0455 -1.08686,-0.0613 -0.43349,-0.0517 -0.69917,-0.10072 -0.95101,-0.17557 -0.40639,-0.12088 -0.50482,-0.13247 -0.7272,-0.0857 -0.65484,0.13775 -1.63,0.15769 -2.15786,0.0441 -0.0873,-0.0187 -0.1689,-0.0318 -0.18114,-0.0288 -0.0123,0.002 -0.0155,0.001 -0.007,-0.002 0.0176,-0.009 -0.16573,-0.10152 -0.20503,-0.10289 -0.0149,-6.3e-4 -0.0273,-0.009 -0.0274,-0.0191 0,-0.0367 -0.0289,-0.0615 -0.0592,-0.0519 -0.0201,0.007 -0.0236,0.005 -0.0103,-0.006 0.0151,-0.0114 -0.005,-0.0492 -0.0657,-0.13162 l -0.087,-0.11607 -0.11548,0.005 c -0.27678,0.0103 -0.61359,0.0103 -0.61359,6.2e-4 0,-0.0144 -0.26286,-0.0533 -0.35884,-0.053 -0.043,7e-5 -0.074,0.007 -0.0691,0.0147 0.005,0.008 -0.0209,0.0154 -0.0573,0.0165 -0.0365,7.1e-4 -0.0692,0.0114 -0.0729,0.0218 -0.003,0.0114 -0.0134,0.0158 -0.0216,0.0103 -0.008,-0.005 -0.0544,0.008 -0.10266,0.0287 -0.0482,0.0209 -0.10403,0.0413 -0.12389,0.0454 -0.21795,0.0448 -0.3983,0.0657 -0.68834,0.08 -0.18931,0.009 -0.389,0.0215 -0.44379,0.0269 -0.17322,0.017 -0.67219,0.0114 -0.86044,-0.0103 -0.0996,-0.0114 -0.20967,-0.0226 -0.24453,-0.0254 -0.0349,-0.002 -0.0757,-0.009 -0.0905,-0.0153 -0.0149,-0.006 -0.0955,-0.0276 -0.17892,-0.0485 -0.0835,-0.0209 -0.18012,-0.0499 -0.21478,-0.0644 -0.0346,-0.0145 -0.0694,-0.0223 -0.0773,-0.0175 -0.008,0.005 -0.0193,-0.005 -0.0254,-0.0201 -0.007,-0.017 -0.0226,-0.0245 -0.0391,-0.0182 -0.0153,0.006 -0.0238,0.005 -0.0186,-0.005 0.009,-0.0145 -0.12496,-0.10014 -0.16133,-0.10312 -0.0103,-6.9e-4 -0.0272,0.005 -0.0384,0.0135 -0.0121,0.009 -0.0303,0.002 -0.0453,-0.017 -0.0224,-0.0286 -0.022,-0.0295 0.005,-0.008 0.0205,0.0161 0.0338,0.0175 0.042,0.005 0.007,-0.0103 0.0216,-0.0139 0.0334,-0.007 0.0117,0.007 0.002,-0.008 -0.0197,-0.0311 -0.0368,-0.0386 -0.0452,-0.0405 -0.0815,-0.0181 -0.0394,0.0242 -0.0397,0.0239 -0.009,-0.0103 0.0302,-0.034 0.0296,-0.0382 -0.0136,-0.0966 -0.0248,-0.0336 -0.0452,-0.0718 -0.0452,-0.0848 0,-0.013 -0.009,-0.0237 -0.0197,-0.0237 -0.0114,0 -0.0159,-0.0103 -0.0115,-0.0226 0.005,-0.0125 -0.002,-0.0471 -0.0136,-0.077 -0.0151,-0.0377 -0.0197,-0.15923 -0.0153,-0.39851 0.007,-0.33989 0.006,-0.34705 -0.0529,-0.57512 -0.0428,-0.16629 -0.067,-0.23101 -0.0865,-0.23123 -0.0214,-2e-4 -0.0222,-0.003 -0.003,-0.0153 0.0189,-0.012 0.0204,-0.0537 0.007,-0.2035 -0.0184,-0.20648 -0.0189,-0.36056 -0.002,-0.36056 0.0103,0 0.0346,-0.11386 0.0404,-0.19299 0.002,-0.0215 0.009,-0.0352 0.0163,-0.0306 0.008,0.005 0.0136,-6.4e-4 0.0136,-0.0117 0,-0.0114 0.0163,-0.0539 0.0362,-0.095 0.0399,-0.0827 0.0456,-0.11238 0.0184,-0.0955 -0.0103,0.007 -0.0131,-0.001 -0.007,-0.0185 0.008,-0.0207 0.0153,-0.0233 0.0244,-0.008 0.0134,0.0216 0.12093,-0.14001 0.11227,-0.16883 -0.002,-0.008 0.005,-0.0103 0.0141,-0.003 0.0103,0.007 0.0186,0.005 0.0186,-0.003 0,-0.008 0.0207,-0.0373 0.0462,-0.0647 0.0255,-0.0274 0.0412,-0.0581 0.0349,-0.0681 -0.007,-0.0103 -0.003,-0.0161 0.006,-0.0134 0.009,0.002 0.0593,-0.0337 0.11089,-0.0811 0.0517,-0.0473 0.10117,-0.0861 0.11009,-0.0861 0.009,0 0.0207,-0.007 0.0263,-0.0164 0.006,-0.009 -0.008,-0.0119 -0.0306,-0.007 -0.0224,0.006 -0.0356,0.005 -0.0293,-0.002 0.007,-0.007 0.0349,-0.0144 0.0634,-0.0167 0.0319,-0.002 0.0519,-0.0143 0.0519,-0.0308 0,-0.0147 0.0163,-0.0267 0.0362,-0.0267 0.0232,-2e-5 0.0337,-0.0103 0.0291,-0.0272 -0.0703,-0.26912 -0.076,-0.30714 -0.0686,-0.45284 0.008,-0.16522 0.0575,-0.31552 0.14559,-0.44512 0.0449,-0.0662 0.0456,-0.0709 0.0157,-0.10643 -0.0305,-0.0362 -0.0304,-0.0365 0.005,-0.007 0.0348,0.029 0.0415,0.0256 0.16669,-0.0846 l 0.13048,-0.11483 -0.0852,-0.0693 c -0.0468,-0.0381 -0.10861,-0.0897 -0.13722,-0.11469 -0.0287,-0.0249 -0.0592,-0.0433 -0.0679,-0.0408 -0.009,0.002 -0.0144,-10e-4 -0.0126,-0.009 0.002,-0.008 -0.0859,-0.10506 -0.19474,-0.21696 -0.10894,-0.11181 -0.2306,-0.24819 -0.27046,-0.30295 -0.0399,-0.0548 -0.079,-0.0998 -0.0871,-0.10003 -0.008,-2.1e-4 -0.009,0.009 -0.002,0.0205 0.008,0.0127 0.005,0.016 -0.007,0.008 -0.0114,-0.007 -0.0161,-0.0232 -0.0114,-0.0363 0.005,-0.013 -0.0383,-0.0883 -0.0961,-0.16697 -0.0578,-0.0788 -0.11539,-0.16601 -0.12775,-0.19398 -0.0136,-0.0307 -0.0308,-0.0457 -0.0433,-0.0379 -0.0128,0.008 -0.0159,0.005 -0.008,-0.008 0.0174,-0.0281 -0.0223,-0.0977 -0.047,-0.0824 -0.0114,0.007 -0.0149,0.005 -0.008,-0.007 0.0169,-0.0273 -0.007,-0.079 -0.0292,-0.0649 -0.0103,0.007 -0.0138,0.003 -0.007,-0.007 0.0119,-0.0191 -0.0734,-0.18985 -0.10037,-0.20107 -0.008,-0.003 -0.0103,-0.0135 -0.005,-0.0226 0.006,-0.009 0.002,-0.0166 -0.0103,-0.0166 -0.0114,0 -0.0153,-0.008 -0.009,-0.0181 0.014,-0.0227 -0.0349,-0.095 -0.0524,-0.0774 -0.007,0.007 -0.008,-2e-4 -0.002,-0.0163 0.0115,-0.0302 -0.0626,-0.19592 -0.11555,-0.258 -0.0163,-0.0191 -0.0204,-0.0294 -0.008,-0.0226 0.0141,0.008 0.0178,1.4e-4 0.0115,-0.0239 -0.005,-0.0198 -0.0146,-0.0328 -0.0209,-0.0289 -0.007,0.005 -0.0127,-0.0136 -0.0142,-0.0389 -0.002,-0.0253 -0.0138,-0.0529 -0.0272,-0.0614 -0.0134,-0.008 -0.0189,-0.0157 -0.0121,-0.0158 0.007,-1.4e-4 -0.0123,-0.0676 -0.0426,-0.14971 -0.0303,-0.0822 -0.0717,-0.20243 -0.0921,-0.26719 -0.0205,-0.0647 -0.042,-0.12182 -0.0479,-0.12681 -0.006,-0.005 -0.0134,-0.0328 -0.0166,-0.0618 -0.002,-0.029 -0.0254,-0.11458 -0.0496,-0.1902 -0.0241,-0.0756 -0.044,-0.15175 -0.0441,-0.16918 0,-0.0175 -0.009,-0.0317 -0.0194,-0.0317 -0.0103,0 -0.0153,-0.007 -0.0103,-0.0142 0.0126,-0.0202 -0.0248,-0.18508 -0.0418,-0.18508 -0.008,0 -0.0103,-0.0216 -0.005,-0.048 0.007,-0.0361 0.003,-0.0444 -0.0144,-0.0334 -0.0161,0.0103 -0.0193,0.007 -0.009,-0.008 0.008,-0.0122 0.005,-0.0604 -0.008,-0.107 -0.0332,-0.13167 -0.0514,-0.21895 -0.0743,-0.35631 -0.0117,-0.0697 -0.0252,-0.13904 -0.03,-0.15398 -0.0227,-0.0702 -0.0585,-0.79707 -0.0393,-0.79703 0.009,1e-5 0.0318,-0.14614 0.0404,-0.26718 0.002,-0.0224 0.008,-0.0408 0.0144,-0.0408 0.007,0 0.0171,-0.0222 0.024,-0.0492 0.007,-0.0271 0.0273,-0.0821 0.0456,-0.12228 0.0184,-0.0402 0.0302,-0.0975 0.0262,-0.12742 -0.006,-0.044 -0.005,-0.0464 0.007,-0.0122 0.0134,0.0422 0.0134,0.0422 0.054,-0.0128 0.0223,-0.0303 0.0407,-0.059 0.0407,-0.0638 0,-0.005 0.0387,-0.0471 0.0861,-0.0938 0.0473,-0.0468 0.0718,-0.0748 0.0544,-0.0622 -0.0174,0.0126 -0.0319,0.0158 -0.0322,0.007 0,-0.009 -0.0117,-0.001 -0.0255,0.0169 -0.0161,0.021 -0.0292,0.0258 -0.0369,0.0133 -0.007,-0.0103 -0.0194,-0.0149 -0.0287,-0.009 -0.009,0.006 -0.0117,-0.002 -0.006,-0.0178 0.007,-0.0156 0.0186,-0.0281 0.028,-0.0281 0.009,0 0.0121,0.008 0.007,0.0181 -0.0167,0.0271 0.008,0.0218 0.0377,-0.008 0.0144,-0.0144 0.0429,-0.0229 0.0634,-0.019 0.0378,0.007 0.19286,-0.0897 0.1665,-0.10438 -0.008,-0.005 -0.005,-0.006 0.006,-0.003 0.0199,0.005 0.18255,-0.0467 0.21629,-0.068 0.0103,-0.007 0.0958,-0.009 0.19019,-0.007 0.13905,0.003 0.20617,0.016 0.35286,0.0653 0.0996,0.0334 0.18612,0.0681 0.19222,0.0772 0.007,0.009 0.0142,0.0142 0.0182,0.0114 0.003,-0.002 0.0274,0.008 0.0524,0.0234 0.0249,0.0157 0.0925,0.058 0.15017,0.0942 0.0577,0.0362 0.11457,0.0678 0.12638,0.0701 0.0117,0.002 0.0327,0.0147 0.0464,0.0275 0.0401,0.0373 0.24081,0.17078 0.24667,0.16403 0.002,-0.003 0.0184,-0.0306 0.0344,-0.0605 0.0381,-0.0712 0.10472,-0.14429 0.15735,-0.17242 0.0406,-0.0217 0.0408,-0.0234 0.008,-0.0473 -0.0186,-0.0136 -0.0258,-0.0248 -0.0159,-0.0248 0.0103,0 0.0281,0.0103 0.0405,0.0225 0.0144,0.0144 0.0271,0.016 0.0353,0.005 0.007,-0.0103 0.0439,-0.0323 0.0817,-0.0498 0.0378,-0.0175 0.0638,-0.0401 0.0575,-0.0502 -0.007,-0.0103 -0.003,-0.0162 0.007,-0.0135 0.009,0.002 0.0199,7.1e-4 0.0223,-0.005 0.006,-0.0114 -0.0382,-0.20164 -0.052,-0.22551 -0.006,-0.009 -0.0127,-0.0379 -0.0164,-0.0635 -0.0119,-0.0868 -0.0149,-0.81606 -0.002,-0.81606 0.0115,0 0.0726,-0.28187 0.0772,-0.35602 0.002,-0.0215 0.008,-0.0352 0.0161,-0.0306 0.008,0.005 0.0146,-0.005 0.0159,-0.0198 0.003,-0.0432 0.005,-0.0457 0.0607,-0.20034 0.029,-0.0797 0.0917,-0.2203 0.13921,-0.31246 0.0474,-0.0921 0.0805,-0.16781 0.0734,-0.16812 -0.007,-1.9e-4 0.002,-0.009 0.0189,-0.019 0.0174,-0.0103 0.0318,-0.0303 0.0318,-0.0448 0,-0.0144 0.007,-0.0263 0.0141,-0.0263 0.008,0 0.0299,-0.0297 0.0496,-0.0661 0.0197,-0.0363 0.0585,-0.0905 0.0864,-0.12057 0.028,-0.03 0.0465,-0.0658 0.0412,-0.0798 -0.006,-0.0138 -0.002,-0.0207 0.007,-0.015 0.0213,0.0131 0.21142,-0.18765 0.20335,-0.21463 -0.003,-0.0114 0,-0.0144 0.007,-0.007 0.0197,0.0196 0.0834,-0.0209 0.0693,-0.0439 -0.007,-0.0117 -0.005,-0.015 0.007,-0.008 0.0114,0.007 0.0245,0.005 0.0303,-0.005 0.006,-0.009 0.002,-0.0223 -0.008,-0.0285 -0.0103,-0.007 -0.0184,-0.0206 -0.0184,-0.0319 0,-0.0114 0.0103,-0.007 0.0231,0.0114 0.0216,0.0295 0.0268,0.0284 0.0769,-0.0167 0.0296,-0.0266 0.0424,-0.0422 0.0283,-0.0344 -0.0166,0.009 -0.021,0.007 -0.0129,-0.007 0.007,-0.0114 0.0229,-0.0161 0.0357,-0.0114 0.0127,0.005 0.0383,-0.008 0.0565,-0.028 0.0184,-0.0202 0.0406,-0.0368 0.0493,-0.0368 0.009,0 0.0361,-0.0133 0.0609,-0.0294 0.038,-0.0248 0.0414,-0.0341 0.022,-0.0589 -0.0204,-0.0261 -0.0194,-0.0266 0.008,-0.005 0.0271,0.0213 0.043,0.0177 0.11777,-0.0261 0.0476,-0.0278 0.0864,-0.0485 0.0864,-0.0458 0,0.002 0.0529,-0.0202 0.11773,-0.0509 0.0647,-0.0306 0.12794,-0.0557 0.14037,-0.0557 0.0126,-1e-5 0.0226,-0.009 0.0226,-0.0192 0,-0.0103 0.007,-0.015 0.0151,-0.0103 0.008,0.005 0.0452,1.1e-4 0.082,-0.0114 0.0368,-0.0114 0.0583,-0.0258 0.0478,-0.0322 -0.0103,-0.007 0.008,-0.0117 0.0404,-0.0114 0.0327,2.1e-4 0.13272,-0.0134 0.22239,-0.0303 0.0896,-0.0169 0.19637,-0.0306 0.23714,-0.0306 0.0712,-5e-5 0.0751,-0.002 0.0991,-0.077 0.0138,-0.0423 0.0241,-0.0871 0.0231,-0.0995 -0.002,-0.0123 0.005,-0.0187 0.0115,-0.0142 0.0193,0.0119 0.0578,-0.08 0.0433,-0.10346 -0.007,-0.0103 -0.005,-0.0146 0.006,-0.008 0.0224,0.0138 0.14355,-0.11294 0.1368,-0.14317 -0.002,-0.0123 0.003,-0.0275 0.0134,-0.0338 0.0114,-0.007 0.0138,6.3e-4 0.007,0.0185 -0.0103,0.0278 -0.007,0.0278 0.0461,1.8e-4 0.0336,-0.0174 0.0524,-0.0382 0.0452,-0.0498 -0.007,-0.0115 -0.005,-0.0151 0.007,-0.008 0.0103,0.007 0.0383,0.005 0.0616,-0.005 0.0233,-0.009 0.0322,-0.0175 0.0199,-0.0182 -0.0126,-6.3e-4 -0.0226,-0.009 -0.0226,-0.0202 0,-0.0118 0.0103,-0.0131 0.0279,-0.003 0.0174,0.009 0.0777,0.002 0.15851,-0.0184 0.12666,-0.0329 0.17774,-0.0402 0.32985,-0.0472 l 0.0725,-0.003 -0.10517,-0.0544 c -0.0579,-0.03 -0.11421,-0.0488 -0.12507,-0.0421 -0.0114,0.007 -0.0146,0.005 -0.008,-0.007 0.0103,-0.0167 -0.0566,-0.052 -0.10381,-0.0549 -0.009,-6.2e-4 -0.0217,-0.0103 -0.0287,-0.0213 -0.0216,-0.0351 -0.14138,-0.043 -0.28305,-0.0187 -0.075,0.0128 -0.12753,0.0288 -0.11665,0.0356 0.0103,0.007 -0.007,0.0128 -0.0397,0.0135 -0.0327,6.1e-4 -0.1666,0.008 -0.29765,0.0168 -0.14214,0.009 -0.23421,0.009 -0.22816,-7.1e-4 0.006,-0.009 -0.0161,-0.0114 -0.0516,-0.005 -0.0434,0.008 -0.0536,0.007 -0.0345,-0.007 0.0238,-0.0155 0.0236,-0.0178 -0.002,-0.0181 -0.0159,-1.6e-4 -0.0669,-0.0205 -0.11318,-0.045 -0.0463,-0.0246 -0.0843,-0.0391 -0.0843,-0.0322 0,0.007 -0.0129,-0.007 -0.029,-0.0289 -0.0159,-0.0229 -0.0402,-0.0371 -0.0539,-0.032 -0.0136,0.005 -0.0303,4.2e-4 -0.0371,-0.0103 -0.008,-0.0134 -0.005,-0.015 0.0129,-0.005 0.0141,0.008 -0.0159,-0.033 -0.0663,-0.0922 -0.0505,-0.0592 -0.12097,-0.15508 -0.15665,-0.21293 -0.0357,-0.0578 -0.0684,-0.0985 -0.0728,-0.0905 -0.005,0.008 -0.005,0.003 -0.002,-0.0103 0.003,-0.0137 0,-0.0341 -0.009,-0.0453 -0.008,-0.0114 -0.0329,-0.0652 -0.0542,-0.11998 -0.0213,-0.0548 -0.0484,-0.12408 -0.0601,-0.15397 -0.0117,-0.03 -0.0246,-0.0748 -0.0283,-0.0996 -0.003,-0.0249 -0.0144,-0.0697 -0.0236,-0.0997 -0.009,-0.0299 -0.0296,-0.15216 -0.0453,-0.2717 -0.0536,-0.40849 -0.10746,-0.62483 -0.16767,-0.67419 -0.0184,-0.015 -0.0201,-0.02 -0.005,-0.0119 0.0151,0.008 0.005,-0.0157 -0.0226,-0.0518 -0.0274,-0.0362 -0.0498,-0.0713 -0.0498,-0.0781 0,-0.007 -0.0466,-0.0582 -0.10368,-0.11442 -0.0571,-0.0561 -0.0884,-0.0838 -0.0696,-0.0614 0.0189,0.0224 0.0263,0.0408 0.0169,0.0408 -0.009,0 -0.0314,-0.0245 -0.049,-0.0542 -0.0368,-0.0623 -0.18747,-0.19272 -0.21414,-0.1853 -0.0103,0.002 -0.0134,-0.002 -0.008,-0.0114 0.0103,-0.0166 -0.0585,-0.0892 -0.0741,-0.0783 -0.005,0.003 -0.0141,-3e-5 -0.0207,-0.008 -0.007,-0.007 -0.002,-0.008 0.0103,-4.1e-4 0.0353,0.0204 0.0266,-0.007 -0.0204,-0.0622 -0.0305,-0.0362 -0.0486,-0.0455 -0.0623,-0.0318 -0.0138,0.0138 -0.0166,0.008 -0.009,-0.0194 0.0114,-0.0412 -0.0201,-0.0545 -0.0377,-0.0162 -0.006,0.0125 -0.007,0.006 -0.002,-0.0155 0.0103,-0.044 -0.12235,-0.28607 -0.14567,-0.26496 -0.008,0.007 -0.009,0.005 -0.003,-0.007 0.007,-0.0103 -0.009,-0.0741 -0.0334,-0.14121 -0.0244,-0.067 -0.0442,-0.13788 -0.0442,-0.15735 0,-0.0194 -0.007,-0.0353 -0.0142,-0.0353 -0.008,0 -0.0139,-0.1178 -0.0139,-0.26179 0,-0.14399 0.007,-0.252 0.0138,-0.24002 0.008,0.0126 0.0141,-0.003 0.0142,-0.0382 0,-0.0408 -0.007,-0.0558 -0.0207,-0.047 -0.0129,0.008 -0.0159,0.005 -0.008,-0.008 0.007,-0.0117 0.022,-0.0157 0.0328,-0.009 0.0129,0.008 0.0161,-10e-4 0.009,-0.0269 -0.007,-0.025 -0.003,-0.0349 0.009,-0.0272 0.0123,0.008 0.0157,-0.002 0.009,-0.0263 -0.006,-0.021 -0.005,-0.0407 0.002,-0.0436 0.0186,-0.008 0.0922,-0.2105 0.0859,-0.23641 -0.002,-0.0125 -0.002,-0.0159 0.002,-0.008 0.005,0.008 0.0276,-0.0272 0.0513,-0.0788 0.0238,-0.0514 0.0381,-0.1022 0.0316,-0.11272 -0.007,-0.0103 -0.003,-0.0142 0.007,-0.008 0.0103,0.007 0.0354,-0.0198 0.0566,-0.0575 0.0294,-0.0524 0.0335,-0.0736 0.0174,-0.0899 -0.0161,-0.0162 -0.0157,-0.0265 0.002,-0.0438 0.0182,-0.0182 0.0206,-0.0154 0.0114,0.0136 -0.007,0.0199 0.0329,-0.0127 0.0877,-0.0725 0.0548,-0.0598 0.095,-0.11606 0.0895,-0.12508 -0.006,-0.009 -0.002,-0.0114 0.008,-0.005 0.0236,0.0145 0.10083,-0.0669 0.0825,-0.0869 -0.008,-0.008 -0.005,-0.009 0.008,-0.002 0.036,0.0207 0.0695,-0.0558 0.13873,-0.3169 0.036,-0.13572 0.103,-0.34358 0.14889,-0.46191 0.0458,-0.11833 0.0876,-0.23308 0.0927,-0.25499 0.006,-0.0244 -0.0176,-0.0964 -0.0594,-0.18504 -0.0591,-0.12486 -0.0727,-0.1421 -0.0971,-0.12318 -0.0243,0.019 -0.025,0.0179 -0.005,-0.007 0.0189,-0.0241 0.0166,-0.0444 -0.0129,-0.11341 -0.0199,-0.0462 -0.0376,-0.0901 -0.0396,-0.0974 -0.002,-0.007 -0.0184,-0.0623 -0.0366,-0.12202 -0.0445,-0.14636 -0.0585,-0.35489 -0.0335,-0.49814 0.0114,-0.0647 0.0221,-0.13531 0.0239,-0.15678 0.002,-0.0214 0.008,-0.0369 0.0126,-0.0344 0.005,0.002 0.0338,-0.0466 0.0641,-0.10918 0.0303,-0.0625 0.0466,-0.10952 0.0362,-0.10437 -0.0103,0.005 -0.002,-0.006 0.0197,-0.0239 0.0211,-0.0183 0.0536,-0.0577 0.0721,-0.0876 0.0184,-0.03 0.0486,-0.0654 0.0669,-0.0789 0.0182,-0.0135 0.0287,-0.0363 0.0232,-0.0507 -0.006,-0.0144 -0.002,-0.0216 0.007,-0.0159 0.0222,0.0137 0.14866,-0.0979 0.13532,-0.11948 -0.006,-0.009 0,-0.0145 0.0136,-0.0118 0.0131,0.002 0.0217,-0.006 0.0191,-0.019 -0.002,-0.0133 0.003,-0.0185 0.0146,-0.0118 0.0114,0.007 0.0535,-0.0233 0.0948,-0.0665 0.0414,-0.0433 0.0632,-0.0633 0.0488,-0.0444 -0.0207,0.027 0.1812,-0.0971 0.21797,-0.13393 0.005,-0.005 0.0476,-0.0285 0.0948,-0.0522 0.0471,-0.0237 0.0816,-0.0497 0.0766,-0.0577 -0.005,-0.008 0.006,-0.0136 0.0241,-0.0122 0.0407,0.002 0.16605,-0.0721 0.169,-0.10129 0.002,-0.0117 0,-0.0321 -0.002,-0.0456 -0.002,-0.0135 0.005,-0.0198 0.0136,-0.0139 0.0134,0.008 0.0605,-0.11866 0.0864,-0.23332 0.002,-0.0103 0.0294,-0.0861 0.0604,-0.16911 0.031,-0.083 0.0509,-0.1597 0.0442,-0.17035 -0.007,-0.0114 -0.003,-0.0141 0.009,-0.007 0.027,0.0167 0.0265,0.0244 0.0294,-0.56886 0.002,-0.46542 0.006,-0.51301 0.0505,-0.72456 0.0265,-0.12454 0.0604,-0.26654 0.0752,-0.31557 0.0149,-0.049 0.0233,-0.0952 0.0186,-0.10255 -0.005,-0.008 -0.002,-0.0162 0.005,-0.0196 0.0174,-0.008 0.1706,-0.37611 0.17339,-0.41683 0.002,-0.0168 0.008,-0.0269 0.0146,-0.0226 0.0178,0.0114 0.11055,-0.15226 0.0981,-0.17241 -0.006,-0.009 0,-0.0225 0.0103,-0.0297 0.0131,-0.008 0.0163,-0.005 0.008,0.008 -0.007,0.0115 -0.009,0.0209 -0.005,0.0209 0.0138,0 0.0934,-0.13443 0.0885,-0.14946 -0.002,-0.008 0.006,-0.0115 0.0182,-0.009 0.0126,0.002 0.0207,-0.006 0.0184,-0.0176 -0.002,-0.0121 0.0121,-0.0309 0.0322,-0.0417 0.0201,-0.0103 0.031,-0.0286 0.0241,-0.0396 -0.007,-0.0114 -0.005,-0.015 0.006,-0.009 0.023,0.0142 0.13785,-0.10278 0.11921,-0.12147 -0.008,-0.008 -0.006,-0.0114 0.005,-0.008 0.0256,0.008 0.13645,-0.0777 0.12473,-0.0966 -0.005,-0.009 0.002,-0.0135 0.0142,-0.0103 0.0131,0.002 0.0217,-0.006 0.0191,-0.019 -0.002,-0.0131 0.002,-0.0191 0.0123,-0.0133 0.009,0.006 0.0688,-0.0175 0.13178,-0.0518 0.24019,-0.13134 0.43821,-0.18116 0.72125,-0.18146 0.21194,-2e-4 0.38268,0.0114 0.36977,0.0243 -0.0129,0.0134 0.19737,0.0909 0.21569,0.0796 0.0103,-0.007 0.0128,-0.002 0.007,0.007 -0.014,0.0227 0.0736,0.0647 0.10037,0.0481 0.0126,-0.008 0.0142,-0.003 0.005,0.0119 -0.0114,0.0176 -0.007,0.0208 0.0163,0.012 0.0184,-0.007 0.0265,-0.005 0.0201,0.007 -0.0103,0.0163 0.0191,0.0249 0.0772,0.0227 0.0126,-4.1e-4 0.0226,0.007 0.0226,0.0153 0,0.009 0.0142,0.0161 0.0318,0.0161 0.0453,0 0.13388,-0.0989 0.12032,-0.13428 -0.007,-0.0161 -0.002,-0.0287 0.0103,-0.0287 0.0119,0 0.0153,0.0103 0.008,0.0226 -0.007,0.0125 0.005,0.007 0.0257,-0.0115 0.0215,-0.0188 0.0337,-0.0432 0.0274,-0.0544 -0.007,-0.0114 -0.005,-0.0143 0.002,-0.007 0.0184,0.0167 0.14731,-0.0952 0.13919,-0.12092 -0.003,-0.0103 0,-0.0137 0.006,-0.007 0.007,0.007 0.0538,-0.016 0.10528,-0.0498 0.0514,-0.0338 0.10026,-0.0616 0.10861,-0.0616 0.008,0 0.009,-0.009 0.002,-0.0209 -0.007,-0.012 -0.005,-0.016 0.006,-0.009 0.0103,0.007 0.053,-0.006 0.0955,-0.0258 0.0424,-0.0205 0.0904,-0.0398 0.10666,-0.043 0.0164,-0.002 0.0663,-0.0162 0.11112,-0.0291 0.0712,-0.0205 0.55213,-0.0374 0.53348,-0.0188 -0.003,0.003 0.0588,0.0296 0.13891,0.0573 0.14985,0.0519 0.42607,0.20116 0.46146,0.24936 0.0114,0.015 0.0295,0.0212 0.0412,0.014 0.0117,-0.007 0.0191,-0.006 0.0163,0.002 -0.005,0.0137 0.0529,0.0791 0.24408,0.27936 0.0174,0.0183 0.0318,0.0398 0.0318,0.0479 0,0.008 0.0166,0.0323 0.0365,0.0538 0.0201,0.0216 0.0446,0.0602 0.0543,0.086 0.0114,0.0289 0.026,0.0418 0.039,0.0337 0.0141,-0.009 0.0176,-0.003 0.0103,0.0157 -0.007,0.0176 0.008,0.048 0.0377,0.0785 0.0269,0.0274 0.0377,0.0433 0.0242,0.0354 -0.0199,-0.0117 -0.0205,-0.007 -0.005,0.024 0.0114,0.0211 0.0297,0.0384 0.041,0.0384 0.0114,0 0.0157,0.005 0.009,0.0114 -0.0124,0.0122 0.25365,0.55373 0.2804,0.57082 0.009,0.007 0.0167,0.0184 0.0159,0.0272 -0.002,0.0331 0.0374,0.13172 0.0625,0.15255 0.0142,0.0119 0.0216,0.0288 0.0161,0.0377 -0.006,0.009 -0.002,0.016 0.009,0.016 0.0103,0 0.0134,0.0136 0.007,0.0302 -0.008,0.0218 -0.005,0.0261 0.0124,0.0153 0.0146,-0.009 0.0197,-0.008 0.0129,0.003 -0.007,0.0103 0.0415,0.14768 0.10574,0.3062 0.0643,0.15853 0.11689,0.29843 0.117,0.31088 0,0.0125 0.009,0.0226 0.0194,0.0226 0.0103,0 0.0146,0.007 0.009,0.0162 -0.006,0.009 0.0134,0.0925 0.042,0.18566 0.0286,0.0932 0.0578,0.19666 0.065,0.2299 0.0131,0.0605 0.0131,0.0605 0.12453,0.0478 0.0613,-0.007 0.23369,-0.033 0.38315,-0.058 0.21728,-0.0361 0.35559,-0.0468 0.69056,-0.0531 0.47634,-0.009 0.75364,0.0209 1.14276,0.12258 0.11746,0.0306 0.22987,0.057 0.24981,0.0585 0.0199,10e-4 0.0402,0.007 0.0453,0.0127 0.0149,0.0163 0.33203,0.13013 0.37342,0.13397 0.0211,0.002 0.0613,0.0216 0.0894,0.0437 0.0281,0.0221 0.0636,0.0353 0.0789,0.0295 0.0153,-0.006 0.0221,-0.005 0.0151,0.002 -0.0176,0.0176 0.0765,0.0643 0.10003,0.0496 0.0103,-0.007 0.0136,-0.002 0.007,0.008 -0.007,0.0114 0.006,0.0253 0.0289,0.0327 0.0225,0.007 0.0712,0.0321 0.10815,0.0555 0.037,0.0233 0.0777,0.0446 0.0905,0.0471 0.0127,0.002 0.0333,0.017 0.0455,0.0319 0.0121,0.0149 0.0224,0.0194 0.0228,0.0103 0,-0.009 0.0103,-0.003 0.0232,0.0126 0.0124,0.0162 0.0349,0.0321 0.0498,0.0352 0.0149,0.002 0.0381,0.0201 0.0513,0.038 0.0154,0.0208 0.0383,0.029 0.0635,0.0227 0.0216,-0.006 0.029,-0.005 0.0167,7.1e-4 -0.0269,0.0123 -0.0103,0.031 0.0858,0.098 0.0349,0.0242 0.0719,0.0551 0.0822,0.0686 0.0103,0.0135 0.0303,0.022 0.0445,0.0188 0.0142,-0.003 0.0262,0.002 0.0267,0.0123 0.002,0.0413 0.0325,0.0644 0.07,0.0539 0.0238,-0.007 0.0306,-0.005 0.0176,0.005 -0.0153,0.0103 0.0117,0.0479 0.0894,0.12346 0.0612,0.0594 0.1054,0.0985 0.0984,0.0868 -0.007,-0.0118 -0.007,-0.0255 0.002,-0.0305 0.008,-0.005 0.0159,0.008 0.0176,0.0287 0.003,0.0437 0.11146,0.16235 0.13481,0.14794 0.008,-0.006 0.0134,-0.002 0.0103,0.008 -0.007,0.0237 0.0729,0.13032 0.0974,0.13032 0.0123,0 0.0103,-0.0119 -0.005,-0.0318 -0.0226,-0.0288 -0.022,-0.0294 0.008,-0.007 0.0215,0.0168 0.0263,0.0316 0.0146,0.0435 -0.0117,0.0119 0.002,0.0432 0.0423,0.0923 0.0331,0.0409 0.0967,0.12914 0.14138,0.19614 0.0446,0.067 0.0863,0.11795 0.0927,0.11318 0.007,-0.005 0.008,-0.003 0.002,0.002 -0.0138,0.0187 0.0269,0.0811 0.0453,0.0696 0.009,-0.006 0.0128,4.2e-4 0.008,0.0136 -0.005,0.0133 0.003,0.0401 0.0199,0.0598 0.0256,0.0313 0.0278,0.0318 0.0189,0.002 -0.007,-0.0204 -0.002,-0.0281 0.009,-0.0208 0.0103,0.007 0.0146,0.0236 0.009,0.0378 -0.006,0.0143 0.0381,0.12555 0.0969,0.24724 0.0989,0.2047 0.16704,0.35331 0.17204,0.37522 0.0206,0.0893 0.055,0.18114 0.068,0.18114 0.009,0 0.0126,0.007 0.007,0.0153 -0.0121,0.0198 0.061,0.28165 0.0809,0.2892 0.008,0.002 0.0103,0.017 0.005,0.0309 -0.005,0.0138 -0.002,0.0356 0.005,0.0484 0.008,0.0128 0.0154,0.0356 0.0171,0.0507 0.002,0.0151 0.0156,0.0968 0.0311,0.18146 0.1188,0.64318 0.12261,1.31904 0.0114,1.95204 -0.0154,0.0883 -0.0151,0.11952 0.002,0.1408 0.0186,0.0224 0.0179,0.0255 -0.002,0.0174 -0.0197,-0.008 -0.0338,0.0241 -0.0587,0.1309 -0.0179,0.0775 -0.0613,0.23461 -0.0962,0.34918 -0.035,0.11458 -0.0656,0.21647 -0.068,0.22643 -0.002,0.0103 -0.0191,0.0508 -0.037,0.0905 -0.0178,0.0399 -0.0326,0.0952 -0.0328,0.12299 0,0.0278 -0.006,0.0418 -0.0124,0.0312 -0.0142,-0.023 -0.0544,0.0579 -0.0544,0.10929 0,0.0194 -0.007,0.0354 -0.0153,0.0354 -0.0229,0 -0.0594,0.0904 -0.0456,0.11284 0.007,0.0114 0.003,0.0144 -0.007,0.008 -0.0232,-0.0144 -0.0457,0.0375 -0.029,0.0666 0.007,0.0115 0.006,0.0151 -0.002,0.008 -0.008,-0.007 -0.0389,0.0335 -0.0684,0.0905 -0.0758,0.14652 -0.2115,0.3679 -0.2558,0.41723 -0.0322,0.0359 -0.0337,0.0444 -0.0103,0.0606 0.0221,0.0157 0.0211,0.017 -0.005,0.009 -0.0288,-0.009 -0.0406,0.008 -0.0334,0.0489 0.002,0.008 -0.005,0.0103 -0.0151,0.005 -0.0247,-0.0153 -0.10929,0.11486 -0.098,0.15072 0.007,0.0221 0.005,0.0236 -0.008,0.007 -0.0128,-0.0177 -0.0333,-0.003 -0.0832,0.0574 -0.0365,0.0445 -0.0663,0.0878 -0.0663,0.0963 0,0.008 -0.0204,0.0304 -0.045,0.049 -0.0247,0.0185 -0.0398,0.0422 -0.0334,0.0524 0.007,0.0103 0.003,0.0136 -0.007,0.007 -0.0236,-0.0145 -0.10083,0.0669 -0.0825,0.0869 0.008,0.008 0.005,0.0103 -0.006,0.005 -0.0114,-0.007 -0.0557,0.027 -0.0996,0.0735 -0.044,0.0466 -0.0624,0.0702 -0.041,0.0524 0.0293,-0.0244 0.0424,-0.0269 0.0526,-0.0103 0.008,0.0133 0.007,0.0175 -0.005,0.0103 -0.0103,-0.007 -0.0289,4.2e-4 -0.041,0.0151 -0.0121,0.0147 -0.0288,0.0228 -0.0368,0.0178 -0.008,-0.005 -0.0399,0.0123 -0.0709,0.0384 -0.0406,0.0342 -0.0513,0.0536 -0.0381,0.0696 0.0129,0.0157 0.0103,0.0221 -0.008,0.0221 -0.0144,0 -0.0218,-0.007 -0.0168,-0.0151 0.0207,-0.0336 -0.028,-0.0121 -0.0679,0.0299 -0.0234,0.0247 -0.0528,0.0452 -0.0653,0.0453 -0.0126,1.6e-4 -0.0226,0.008 -0.0226,0.0184 0,0.0103 -0.008,0.0182 -0.0178,0.0182 -0.0103,0 -0.0607,0.0274 -0.11317,0.0608 -0.0525,0.0335 -0.1464,0.0872 -0.20867,0.11958 -0.0623,0.0324 -0.11318,0.0665 -0.11318,0.076 0,0.009 -0.007,0.0128 -0.0166,0.007 -0.0213,-0.0131 -0.0764,0.008 -0.0657,0.025 0.005,0.007 -0.002,0.0131 -0.0151,0.0131 -0.0472,0 -0.2268,0.0852 -0.2161,0.10244 0.007,0.0103 0.002,0.0126 -0.008,0.007 -0.0209,-0.0129 -0.24208,0.0608 -0.23191,0.0774 0.003,0.006 -0.0191,0.0114 -0.05,0.0123 -0.031,10e-4 -0.0592,0.0114 -0.0628,0.0216 -0.003,0.0103 -0.0194,0.0145 -0.0354,0.008 -0.0209,-0.008 -0.0248,-0.005 -0.0142,0.0129 0.009,0.0157 0.008,0.0197 -0.005,0.0115 -0.0292,-0.018 -0.11421,0.007 -0.10038,0.0296 0.007,0.0103 0.002,0.0137 -0.008,0.007 -0.0114,-0.007 -0.12026,0.012 -0.2428,0.0418 -0.12255,0.0298 -0.25758,0.0626 -0.30006,0.0729 -0.0425,0.0103 -0.098,0.0187 -0.12335,0.0187 -0.0254,0 -0.0423,0.007 -0.0375,0.0139 0.005,0.008 -0.0233,0.0114 -0.0623,0.007 -0.039,-0.003 -0.0709,2.1e-4 -0.0709,0.009 0,0.008 -0.0388,0.0163 -0.0861,0.0173 -0.0473,7e-4 -0.20237,0.008 -0.34457,0.0163 l -0.25849,0.0146 0.002,0.26438 c 0,0.14541 -0.002,0.27661 -0.007,0.29156 -0.005,0.015 -0.0141,0.0801 -0.0201,0.14491 -0.0166,0.17911 -0.0812,0.46898 -0.13438,0.60348 -0.0246,0.0617 -0.0251,0.0719 -0.003,0.0586 0.009,-0.006 0.0121,0.007 0.007,0.0264 -0.005,0.0201 -0.0168,0.0409 -0.0253,0.0462 -0.008,0.006 -0.0114,-0.005 -0.006,-0.0229 0.006,-0.018 -0.0153,0.0146 -0.0462,0.0722 -0.0307,0.0576 -0.0503,0.11398 -0.0434,0.12508 0.008,0.0122 0.005,0.0151 -0.008,0.007 -0.0124,-0.008 -0.0209,-0.001 -0.0209,0.0153 0,0.0156 -0.007,0.0284 -0.0136,0.0284 -0.0191,1.7e-4 -0.10529,0.13025 -0.0992,0.14965 0.002,0.009 -0.002,0.0117 -0.0103,0.007 -0.008,-0.006 -0.0509,0.0263 -0.094,0.0703 -0.0697,0.0711 -0.0757,0.0835 -0.0536,0.11238 0.021,0.0278 0.021,0.0293 0,0.0103 -0.0319,-0.0285 -0.0608,-0.0296 -0.0435,-10e-4 0.008,0.0131 0.005,0.016 -0.008,0.008 -0.0119,-0.007 -0.0576,0.0103 -0.10324,0.041 -0.045,0.0297 -0.1222,0.0687 -0.17158,0.0864 -0.0494,0.0177 -0.0897,0.0429 -0.0897,0.0559 0,0.0129 -0.008,0.0236 -0.0192,0.0236 -0.0103,0 -0.0131,-0.009 -0.007,-0.0212 0.009,-0.0141 0.003,-0.0175 -0.0157,-0.0103 -0.0159,0.007 -0.058,0.0166 -0.0935,0.0232 -0.0356,0.007 -0.0648,0.0174 -0.0648,0.0237 0,0.007 -0.0548,0.0136 -0.12135,0.0161 -0.0666,0.002 -0.12772,0.0114 -0.13573,0.0191 -0.0186,0.0185 0.0394,0.31155 0.0616,0.31155 0.009,0 0.0121,0.007 0.007,0.0158 -0.006,0.009 0.002,0.0541 0.0191,0.10072 0.0213,0.0627 0.0361,0.0821 0.0566,0.0743 0.0218,-0.008 0.0232,-0.006 0.007,0.0145 -0.0262,0.0316 0.0197,0.0769 0.0558,0.0552 0.0182,-0.0114 0.0189,-0.008 0.002,0.012 -0.0163,0.0206 -0.009,0.0368 0.0317,0.077 0.0288,0.028 0.0524,0.0453 0.0524,0.0383 0,-0.007 0.0169,0.009 0.0375,0.0351 0.0207,0.0263 0.0492,0.0477 0.0634,0.0477 0.0142,0 0.0261,0.007 0.0263,0.0136 0,0.0204 0.14598,0.12304 0.16602,0.1173 0.009,-0.002 0.0127,0.002 0.007,0.0115 -0.0126,0.0204 0.0363,0.0636 0.0574,0.0505 0.008,-0.005 0.0271,-7e-4 0.0415,0.009 0.0207,0.0146 0.0186,0.0163 -0.0103,0.008 -0.021,-0.007 0.002,0.0231 0.0529,0.07 0.049,0.0442 0.098,0.0754 0.10871,0.0694 0.0103,-0.007 0.0134,-0.005 0.007,0.003 -0.0144,0.016 0.20354,0.25531 0.22643,0.24849 0.008,-0.002 0.0115,0.007 0.009,0.0185 -0.002,0.0125 0.007,0.0203 0.0194,0.0177 0.0131,-0.002 0.0193,0.002 0.0134,0.0121 -0.006,0.009 0.008,0.032 0.0313,0.0503 0.0231,0.0182 0.0476,0.0479 0.0544,0.066 0.007,0.0181 0.0209,0.0277 0.0312,0.0213 0.0103,-0.007 0.0166,-0.005 0.0141,0.003 -0.002,0.008 0.0114,0.033 0.0302,0.0551 0.0285,0.0328 0.04,0.0361 0.0631,0.0181 0.025,-0.0196 0.0254,-0.0183 0.002,0.0103 -0.023,0.0293 -0.0209,0.0374 0.0193,0.0745 0.0247,0.0229 0.0629,0.0512 0.0846,0.0629 0.0218,0.0117 0.0398,0.0325 0.0398,0.0463 0,0.0138 0.007,0.0278 0.0138,0.0311 0.008,0.003 0.0406,0.0428 0.0732,0.0876 0.0326,0.0448 0.0692,0.0815 0.0813,0.0815 0.0121,0 0.0229,0.0103 0.0241,0.0226 0.002,0.0125 0.003,0.0312 0.005,0.0415 0.002,0.0103 0.0157,0.0166 0.0321,0.0136 0.0163,-0.002 0.0334,0.007 0.0376,0.0218 0.007,0.0241 0.006,0.0241 -0.0114,0 -0.0103,-0.015 -0.0193,-0.0186 -0.0194,-0.008 0,0.0103 0.0437,0.0666 0.0975,0.12488 0.0539,0.0583 0.11158,0.12202 0.12837,0.14163 0.0224,0.0262 0.0359,0.0303 0.0508,0.0154 0.0114,-0.0114 0.0287,-0.02 0.0392,-0.0199 0.0103,1.5e-4 0.008,0.008 -0.007,0.0163 -0.014,0.009 -0.0206,0.0287 -0.0144,0.0442 0.0136,0.0356 0.17892,0.1567 0.19781,0.14503 0.008,-0.005 0.0139,-0.001 0.0139,0.008 0,0.0258 0.0806,0.056 0.30036,0.11226 0.11261,0.0288 0.25611,0.074 0.31897,0.10038 0.0629,0.0263 0.12448,0.0486 0.13693,0.0495 0.0126,7e-4 0.0226,0.008 0.0226,0.0153 0,0.008 0.0469,0.0401 0.10414,0.0722 0.0573,0.0321 0.11841,0.0707 0.13586,0.0856 0.0174,0.015 0.032,0.0198 0.0324,0.0103 0,-0.009 0.0103,-0.003 0.0226,0.0119 0.0258,0.033 0.15941,0.12566 0.18131,0.12566 0.008,0 0.009,-0.0103 0.002,-0.0226 -0.0103,-0.0169 -0.007,-0.0167 0.0154,6.9e-4 0.0234,0.0189 0.0797,0.0198 0.28771,0.005 0.14221,-0.0103 0.26293,-0.0238 0.26821,-0.029 0.005,-0.006 -0.002,-0.0171 -0.0169,-0.0265 -0.0146,-0.009 -0.0181,-0.0169 -0.008,-0.0171 0.0103,-1.5e-4 0.0282,0.009 0.0396,0.0202 0.027,0.027 0.0841,0.006 0.066,-0.0249 -0.0114,-0.0179 -0.008,-0.0179 0.0146,2.1e-4 0.0232,0.0188 0.0572,0.0163 0.18532,-0.0136 0.0863,-0.0201 0.16995,-0.0366 0.18591,-0.0366 0.0159,0 0.0407,-0.0143 0.055,-0.0317 0.0142,-0.0175 0.0205,-0.021 0.0138,-0.008 -0.009,0.0185 0.002,0.0211 0.0575,0.012 0.0384,-0.007 0.086,-0.0167 0.10598,-0.0227 0.0199,-0.007 0.0513,-0.009 0.07,-0.007 0.0186,0.002 0.0294,-0.002 0.0241,-0.0103 -0.005,-0.008 0.11409,-0.0128 0.26519,-0.009 0.33615,0.007 0.35539,0.009 0.34303,0.029 -0.006,0.009 0.002,0.0122 0.0149,0.008 0.0136,-0.005 0.033,-0.001 0.0433,0.007 0.0103,0.008 0.0535,0.0399 0.0964,0.0701 0.0989,0.0696 0.17702,0.1924 0.20527,0.32273 0.0258,0.11934 0.0325,0.45634 0.008,0.44163 -0.009,-0.006 -0.0121,0.0115 -0.007,0.0379 0.005,0.0264 0.002,0.048 -0.007,0.048 -0.008,0 -0.0142,0.007 -0.0126,0.0136 0.005,0.0206 -0.0711,0.183 -0.11134,0.2396 -0.0194,0.0274 -0.0296,0.0563 -0.0224,0.0643 0.007,0.008 0.005,0.009 -0.007,0.003 -0.0215,-0.0122 -0.14652,0.11135 -0.13856,0.13689 0.002,0.009 -0.002,0.0115 -0.0114,0.007 -0.009,-0.006 -0.0325,0.006 -0.0529,0.0247 -0.0204,0.019 -0.0419,0.0296 -0.048,0.0236 -0.007,-0.007 -0.0114,-0.002 -0.0114,0.008 0,0.0103 -0.0184,0.0241 -0.0408,0.0305 -0.0402,0.0114 -0.0401,0.0119 0.0128,0.0519 0.0842,0.0638 0.1471,0.0862 0.17207,0.0614 0.0161,-0.0159 0.0186,-0.0142 0.0103,0.007 -0.0174,0.0457 0.17187,0.0699 0.59104,0.0754 0.21079,0.002 0.36981,0.012 0.36424,0.021 -0.006,0.009 0.0157,0.0122 0.047,0.008 0.0313,-0.005 0.0569,-6.3e-4 0.0569,0.009 0,0.009 0.0224,0.0123 0.0498,0.007 0.0274,-0.006 0.0389,-0.006 0.0254,1.4e-4 -0.0151,0.007 0.005,0.0234 0.0517,0.0445 0.0418,0.0188 0.0846,0.0288 0.0951,0.0223 0.0103,-0.007 0.0138,-0.003 0.007,0.007 -0.007,0.0103 0.008,0.0319 0.0322,0.0477 0.0643,0.0421 0.12629,0.10769 0.17246,0.18241 0.0351,0.0568 0.0447,0.0626 0.0704,0.0424 0.0262,-0.0205 0.027,-0.0197 0.007,0.007 -0.0182,0.0232 -0.0186,0.0399 -0.002,0.0764 0.0117,0.0257 0.0295,0.0417 0.0396,0.0354 0.0103,-0.007 0.0129,-0.002 0.007,0.008 -0.007,0.0103 0.002,0.0585 0.0174,0.10701 0.0287,0.0869 0.0621,0.45955 0.0413,0.45951 -0.0151,-3e-5 -0.0617,0.20084 -0.0567,0.24452 0.003,0.0304 0,0.0319 -0.0154,0.009 -0.0159,-0.0218 -0.0181,-0.0188 -0.0103,0.0153 0.005,0.0234 0.005,0.0376 -0.002,0.0317 -0.0166,-0.0166 -0.0971,0.13483 -0.0835,0.15679 0.007,0.0103 0.003,0.0142 -0.007,0.008 -0.0186,-0.0115 -0.10814,0.0944 -0.10048,0.11876 0.002,0.008 -0.006,0.0115 -0.0184,0.009 -0.0126,-0.002 -0.0207,0.006 -0.0182,0.0182 0.002,0.0125 -0.005,0.0226 -0.0149,0.0226 -0.0103,0 -0.0535,0.0233 -0.0951,0.0517 -0.0848,0.058 -0.16772,0.0987 -0.27499,0.13538 l -0.0725,0.0248 -0.0124,0.18844 c -0.007,0.10369 -0.008,0.20473 -0.003,0.22467 0.007,0.0271 0.005,0.03 -0.008,0.0114 -0.0128,-0.0184 -0.0206,-0.006 -0.0296,0.0479 -0.007,0.0401 -0.0359,0.12269 -0.0646,0.18352 -0.0288,0.0608 -0.0465,0.11089 -0.0396,0.11112 0.007,2.2e-4 -0.002,0.009 -0.0189,0.019 -0.0174,0.0103 -0.0318,0.0273 -0.0318,0.0382 0,0.0114 -0.0141,0.0299 -0.0311,0.0424 -0.025,0.0183 -0.0266,0.0279 -0.009,0.0495 0.0186,0.0224 0.0156,0.0264 -0.0189,0.0246 -0.0253,-0.001 -0.0391,0.007 -0.0361,0.0218 0.002,0.0131 -0.002,0.0194 -0.0114,0.0141 -0.009,-0.006 -0.0311,0.007 -0.0493,0.0266 -0.0321,0.0356 -0.0321,0.0362 0.002,0.0238 0.0194,-0.007 0.0292,-0.007 0.0216,0.002 -0.008,0.008 -0.0279,0.016 -0.0453,0.0175 -0.0453,0.003 -0.13293,0.0648 -0.12075,0.0845 0.006,0.009 0.003,0.0154 -0.005,0.0141 -0.0638,-0.0114 -0.14412,0.0409 -0.12097,0.0784 0.007,0.0117 0.003,0.0142 -0.009,0.007 -0.0117,-0.007 -0.0163,-0.0228 -0.0103,-0.0345 0.006,-0.0118 0,-0.007 -0.0151,0.0103 -0.0142,0.0173 -0.0302,0.027 -0.0356,0.0216 -0.006,-0.006 -0.0413,0.005 -0.0797,0.0207 -0.0384,0.0168 -0.0984,0.034 -0.1333,0.0382 -0.0349,0.005 -0.0655,0.0135 -0.0681,0.0208 -0.002,0.007 -0.0362,0.0103 -0.0749,0.007 -0.0386,-0.003 -0.0751,0.001 -0.0811,0.0114 -0.0157,0.0254 -0.34545,-0.0373 -0.4652,-0.0885 -0.0543,-0.0232 -0.11455,-0.0567 -0.13388,-0.0745 -0.0336,-0.031 -0.0561,-0.0396 -0.0885,-0.034 -0.008,0.001 -0.0103,-0.005 -0.005,-0.0133 0.0131,-0.0214 -0.0695,-0.0977 -0.087,-0.0803 -0.008,0.008 -0.0114,0.005 -0.008,-0.007 0.006,-0.0201 -0.0715,-0.13983 -0.13434,-0.20781 -0.0174,-0.0189 -0.0272,-0.0343 -0.0216,-0.0343 0.006,0 -0.0126,-0.0401 -0.0401,-0.0893 -0.0275,-0.0492 -0.0578,-0.0845 -0.0672,-0.0788 -0.009,0.006 -0.0114,10e-4 -0.005,-0.0103 0.0129,-0.021 -0.10929,-0.27182 -0.18717,-0.38388 -0.0241,-0.0349 -0.0694,-0.0886 -0.10048,-0.11958 l -0.0566,-0.0564 -0.002,0.0608 c 0,0.0334 0.003,0.0575 0.0103,0.0535 0.007,-0.005 0.0124,0.0632 0.0127,0.14948 0,0.0862 0.002,0.27905 0.006,0.42848 0.002,0.15055 -0.005,0.31613 -0.0159,0.37134 -0.0336,0.16356 -0.0925,0.3325 -0.13073,0.37453 -0.0215,0.0236 -0.0303,0.049 -0.022,0.0634 0.008,0.0132 0.007,0.0178 -0.002,0.0103 -0.008,-0.008 -0.03,-1.4e-4 -0.0481,0.0163 -0.0271,0.0246 -0.029,0.0352 -0.0103,0.0589 0.0192,0.0246 0.0184,0.0257 -0.005,0.008 -0.0217,-0.0168 -0.0512,-0.007 -0.14636,0.0501 -0.25214,0.15045 -0.58807,0.16222 -0.86805,0.0305 -0.0647,-0.0305 -0.12791,-0.0557 -0.14037,-0.056 -0.0126,-2.1e-4 -0.0186,-0.005 -0.0138,-0.009 0.0138,-0.0138 -0.10277,-0.0939 -0.12065,-0.0829 -0.009,0.006 -0.0136,0.002 -0.0114,-0.005 0.008,-0.0257 -0.0976,-0.15104 -0.11752,-0.13877 -0.0114,0.007 -0.0136,0.002 -0.006,-0.009 0.0157,-0.0253 -0.0508,-0.11568 -0.0713,-0.0972 -0.008,0.007 -0.009,0.003 -0.002,-0.008 0.0168,-0.0293 -0.006,-0.0809 -0.029,-0.0667 -0.0103,0.007 -0.0139,0.003 -0.008,-0.007 0.007,-0.0103 -0.007,-0.0701 -0.027,-0.13413 -0.0294,-0.0903 -0.0404,-0.18341 -0.0489,-0.41529 -0.007,-0.16438 -0.005,-0.30159 0.002,-0.30491 0.008,-0.003 0.0136,-0.021 0.0136,-0.0393 0,-0.0183 0.0294,-0.13378 0.0654,-0.25662 0.1408,-0.48125 0.14781,-0.56555 0.0487,-0.58584 -0.0278,-0.006 -0.0784,-0.0178 -0.11249,-0.0269 -0.034,-0.009 -0.07,-0.0115 -0.0798,-0.006 -0.0103,0.007 -0.0128,0.002 -0.007,-0.008 0.007,-0.0103 -0.0103,-0.0243 -0.038,-0.0312 -0.0273,-0.007 -0.10129,-0.0444 -0.16429,-0.0837 -0.063,-0.0393 -0.12417,-0.066 -0.13586,-0.0592 -0.0117,0.007 -0.0159,0.007 -0.009,-0.001 0.007,-0.007 -0.002,-0.0271 -0.0197,-0.0437 -0.13739,-0.13032 -0.1482,-0.13794 -0.16275,-0.11439 -0.0117,0.0189 -0.0172,0.0176 -0.0262,-0.006 -0.007,-0.0173 -0.005,-0.025 0.007,-0.0185 0.0103,0.007 0.0181,0.005 0.0181,-0.005 0,-0.008 -0.055,-0.068 -0.12227,-0.13216 -0.0672,-0.0641 -0.1062,-0.10438 -0.0865,-0.0896 0.0197,0.0147 0.007,-0.0103 -0.0288,-0.0545 -0.20962,-0.26476 -0.31169,-0.55472 -0.2965,-0.8423 0.0103,-0.18825 0.0272,-0.47731 0.0344,-0.57488 0.005,-0.053 0,-0.0816 -0.0114,-0.0748 -0.0103,0.007 -0.008,-0.007 0.002,-0.0274 0.0159,-0.0298 0.0153,-0.0384 -0.002,-0.0386 -0.0182,-2.1e-4 -0.0181,-0.003 0,-0.0157 0.0184,-0.0117 0.0114,-0.0249 -0.0315,-0.0552 -0.0308,-0.0218 -0.0636,-0.0351 -0.0728,-0.0293 -0.009,0.006 -0.0229,7e-4 -0.0301,-0.0103 -0.009,-0.0142 -0.005,-0.0168 0.0123,-0.008 0.0141,0.007 0.007,-0.002 -0.0167,-0.021 -0.0606,-0.0495 -0.19917,-0.12282 -0.21051,-0.11146 -0.005,0.006 -0.002,0.15576 0.007,0.33434 0.0304,0.62228 0.008,0.9464 -0.0987,1.39578 -0.0482,0.20424 -0.0511,0.18082 0.0509,0.42333 0.0103,0.0249 0.0221,0.0613 0.0257,0.0807 0.003,0.0194 0.0128,0.0399 0.0199,0.0453 0.007,0.006 0.0142,0.0302 0.0157,0.0551 0.002,0.0249 0.0126,0.12272 0.0247,0.21736 0.0268,0.20878 0.0132,0.61874 -0.0273,0.82421 -0.0157,0.0797 -0.0245,0.16528 -0.0194,0.19018 0.005,0.0249 0.005,0.0337 -0.002,0.0198 -0.0127,-0.0299 -0.084,0.21976 -0.0837,0.29316 0,0.0276 -0.005,0.0457 -0.0103,0.0401 -0.006,-0.006 -0.0362,0.0651 -0.0681,0.15684 -0.0534,0.15365 -0.0558,0.17025 -0.0306,0.20876 0.0151,0.023 0.0346,0.0374 0.0433,0.032 0.009,-0.006 0.0117,6.9e-4 0.007,0.0144 -0.005,0.0134 0.0357,0.0726 0.0908,0.13187 0.0551,0.0591 0.10014,0.11409 0.10014,0.12212 0,0.008 0.0115,0.019 0.0256,0.0245 0.0141,0.006 0.047,0.0421 0.0732,0.0816 0.0294,0.0445 0.0558,0.067 0.0694,0.0591 0.0121,-0.007 0.0166,-0.007 0.0103,7e-4 -0.007,0.007 0.024,0.0823 0.0679,0.16637 0.044,0.0841 0.08,0.16495 0.08,0.17965 0,0.0148 0.008,0.0268 0.0176,0.0268 0.009,0 0.0138,0.0103 0.009,0.0226 -0.005,0.0125 0.002,0.0803 0.0142,0.15068 l 0.0225,0.12803 0.15397,-0.0256 c 0.0847,-0.0141 0.15638,-0.0321 0.15937,-0.04 0.002,-0.008 0.0225,-0.0103 0.0436,-0.005 0.0225,0.006 0.0337,0.002 0.0272,-0.008 -0.007,-0.0103 0.0138,-0.0181 0.047,-0.0185 0.11934,-0.001 0.26914,-0.0288 0.24491,-0.0445 -0.0151,-0.009 -0.003,-0.0123 0.0304,-0.007 0.0298,0.005 0.11819,0.0126 0.19624,0.0179 0.12105,0.008 0.258,0.0346 0.39926,0.0764 0.025,0.008 0.0301,0.003 0.0191,-0.0142 -0.008,-0.0133 0.008,-0.007 0.0365,0.0162 0.0282,0.0222 0.0605,0.0405 0.0716,0.0405 0.0114,4e-5 0.0837,0.0248 0.16132,0.055 0.0776,0.0302 0.1502,0.0493 0.1613,0.0424 0.0114,-0.007 0.0153,-0.005 0.009,0.006 -0.0121,0.0198 0.19838,0.12186 0.23843,0.11559 0.0134,-0.002 0.0202,0.002 0.0153,0.0114 -0.005,0.008 0.0247,0.0312 0.0662,0.051 0.0415,0.0199 0.0913,0.0505 0.111,0.0682 0.0197,0.0177 0.0465,0.028 0.0598,0.0229 0.0134,-0.005 0.0199,-0.002 0.0144,0.007 -0.006,0.009 0.002,0.026 0.0172,0.0383 0.0149,0.0123 0.027,0.0163 0.027,0.009 0,-0.007 0.0257,0.0117 0.0572,0.0424 0.0313,0.0306 0.0653,0.0508 0.0752,0.0446 0.0103,-0.007 0.0129,-0.002 0.007,0.008 -0.0114,0.0182 0.0749,0.0889 0.0995,0.0819 0.007,-0.002 0.0229,0.0103 0.0362,0.0277 0.0223,0.0285 0.0213,0.029 -0.0119,0.007 -0.0199,-0.0138 -0.006,0.005 0.0318,0.0409 0.0374,0.0364 0.0679,0.0728 0.0679,0.0812 0,0.0262 0.0656,0.0757 0.0814,0.0614 0.008,-0.008 0.0103,-0.005 0.005,0.006 -0.009,0.0154 0.0981,0.19185 0.164,0.27075 0.008,0.0103 0.0166,0.0243 0.0184,0.0318 0.002,0.008 0.0229,0.0524 0.0468,0.0996 0.0643,0.12719 0.13892,0.37786 0.15097,0.50694 0.006,0.0623 0.0157,0.11341 0.022,0.11341 0.007,0 0.007,0.055 0,0.12227 -0.007,0.0672 -0.005,0.14107 0.005,0.16406 0.009,0.0268 0.008,0.0377 -0.002,0.0306 -0.0103,-0.007 -0.0184,0.0103 -0.0186,0.0397 0,0.0751 -0.0422,0.22989 -0.10769,0.40411 -0.0318,0.0847 -0.0589,0.16764 -0.0601,0.18434 -0.002,0.0167 -0.007,0.0272 -0.0136,0.0234 -0.0181,-0.0114 -0.0734,0.11873 -0.06,0.14045 0.008,0.0127 0.003,0.0144 -0.0119,0.005 -0.0171,-0.0103 -0.0209,-0.007 -0.0129,0.0142 0.007,0.016 0.002,0.0319 -0.008,0.0354 -0.0103,0.003 -0.0205,0.0318 -0.0216,0.0628 -0.002,0.031 -0.007,0.053 -0.0138,0.0492 -0.0163,-0.0103 -0.0698,0.29141 -0.0698,0.39266 0,0.276 -0.0954,0.44725 -0.33508,0.60093 -0.0498,0.032 -0.0933,0.0644 -0.0966,0.0721 -0.003,0.008 -0.0136,0.009 -0.0226,0.003 -0.009,-0.006 -0.0166,-7.1e-4 -0.0166,0.0103 0,0.0114 -0.008,0.0155 -0.0169,0.0103 -0.0174,-0.0103 -0.18684,0.0617 -0.19707,0.0842 -0.002,0.007 -0.0189,0.008 -0.0346,0.001 -0.0209,-0.008 -0.0248,-0.005 -0.0142,0.0129 0.0103,0.0161 0.008,0.0197 -0.007,0.0103 -0.0117,-0.007 -0.0721,0.002 -0.13412,0.0231 -0.062,0.02 -0.14038,0.0419 -0.17408,0.0486 -0.0455,0.009 -0.0549,0.0166 -0.0362,0.029 0.0169,0.0114 0.009,0.0131 -0.0225,0.006 -0.0262,-0.007 -0.0996,0.001 -0.16303,0.016 -0.10803,0.0253 -0.19973,0.0402 -0.51394,0.0834 -0.0697,0.009 -0.25084,0.0231 -0.40247,0.03 -0.15161,0.007 -0.27134,0.0196 -0.2661,0.028 0.005,0.008 0.007,0.0138 0.005,0.0118 -0.002,-0.002 -0.0708,-0.006 -0.15049,-0.008 z m 1.02923,-0.46771 c 0.40072,-0.0544 0.84496,-0.18954 1.04183,-0.31679 0.14187,-0.0917 0.17844,-0.16858 0.18818,-0.39587 l 0.007,-0.16893 -0.0646,0.0117 c -0.0354,0.007 -0.2316,0.0471 -0.43583,0.0907 -0.4143,0.0881 -0.60523,0.10895 -1.24989,0.13666 -0.2441,0.0103 -0.64652,0.0348 -0.89425,0.0538 -1.13228,0.0876 -1.52942,0.0633 -2.09724,-0.12797 -0.25478,-0.0859 -0.31027,-0.0868 -0.50066,-0.009 -0.22054,0.0904 -0.31838,0.10266 -0.83643,0.10437 -0.38277,0.001 -0.51762,-0.005 -0.66185,-0.0302 -0.17329,-0.0304 -0.52946,-0.1342 -0.62493,-0.18214 -0.13543,-0.0679 -0.13323,-0.0707 -0.12206,0.14723 0.0153,0.29688 0.0763,0.42338 0.23978,0.4966 0.14277,0.0639 0.33863,0.0766 1.02004,0.0657 0.53895,-0.008 0.68412,-0.0166 0.87289,-0.0482 0.45444,-0.0764 0.51488,-0.0814 0.69339,-0.0588 0.0919,0.0117 0.32597,0.0615 0.52025,0.11067 0.39662,0.10037 0.58214,0.12744 1.0144,0.14781 0.49006,0.0231 1.6402,0.007 1.88967,-0.0277 z m -8.64624,-0.48723 c 0.2346,-0.029 0.45219,-0.0779 0.65077,-0.14611 0.16252,-0.0559 0.35686,-0.0612 0.61723,-0.0167 0.18676,0.0319 0.4745,0.0402 0.63573,0.0185 l 0.1014,-0.0137 0.022,-0.15753 c 0.0121,-0.0867 0.026,-0.17856 0.0306,-0.20424 0.009,-0.0466 0.009,-0.0466 -0.16861,-0.0238 -0.40558,0.0525 -0.7943,0.0657 -1.1827,0.0404 -0.36651,-0.024 -0.63232,-0.0265 -1.43103,-0.0141 -0.52774,0.008 -0.74992,-0.0278 -1.39041,-0.22544 -0.30305,-0.0935 -0.28684,-0.10426 -0.27195,0.18043 0.007,0.1325 0.0186,0.18937 0.0529,0.25647 0.0895,0.1751 0.32535,0.27094 0.83051,0.3374 0.13651,0.018 1.30027,-0.007 1.50347,-0.0317 z m 6.82902,-0.32765 c 1.61867,-0.0612 1.85357,-0.0758 2.3458,-0.14602 0.60753,-0.0867 0.71158,-0.14849 0.91721,-0.54519 0.13354,-0.25761 0.16796,-0.36584 0.16637,-0.52299 -0.002,-0.20493 -0.11283,-0.58123 -0.24102,-0.81896 -0.24539,-0.45492 -0.65827,-0.74796 -1.3498,-0.958 -0.14373,-0.0437 -0.19299,-0.0495 -0.41659,-0.05 -0.2684,-4.1e-4 -0.40277,0.0229 -0.72384,0.12614 -0.19075,0.0613 -0.20775,0.0711 -0.40829,0.23475 -0.25215,0.20575 -0.3169,0.24335 -0.41911,0.24335 -0.10506,0 -0.12305,-0.0228 -0.0605,-0.0767 0.13792,-0.11896 0.24252,-0.23784 0.29309,-0.33304 0.22171,-0.41722 0.11646,-0.90046 -0.25759,-1.18289 -0.10895,-0.0823 -0.12441,-0.0881 -0.11009,-0.0422 0.006,0.0175 0.0178,0.0881 0.0274,0.15717 0.0207,0.14774 0.0274,0.13915 -0.18887,0.24473 -0.35925,0.17541 -0.85107,0.25427 -1.58759,0.25457 -0.61086,2e-4 -1.00054,-0.0464 -1.3052,-0.15633 -0.17136,-0.0617 -0.25416,-0.1186 -0.33311,-0.2285 l -0.0649,-0.0903 -0.0703,0.0973 c -0.0386,0.0535 -0.10518,0.16557 -0.14793,0.24906 -0.0716,0.13994 -0.0776,0.16269 -0.0776,0.29123 0,0.12497 0.005,0.14638 0.051,0.20625 0.0639,0.0838 0.18605,0.15456 0.42906,0.24853 0.1046,0.0405 0.25633,0.10918 0.33717,0.15269 0.34147,0.18388 0.55374,0.21141 1.26314,0.16383 0.65285,-0.0438 0.89287,-0.0265 0.84606,0.0609 -0.0377,0.0704 -0.37682,0.11089 -1.39731,0.16655 -0.48193,0.0263 -0.58808,0.015 -0.89508,-0.0955 -0.32483,-0.11687 -0.49495,-0.0994 -0.72574,0.075 -0.1235,0.0933 -0.24902,0.26193 -0.34566,0.46455 -0.10724,0.2249 -0.15073,0.40701 -0.15081,0.63206 0,0.33746 0.0504,0.44261 0.36899,0.7671 0.25637,0.26117 0.33126,0.31158 0.51925,0.34951 0.14339,0.0289 1.09743,0.0286 1.25451,-4.2e-4 0.0575,-0.0103 0.17173,-0.0521 0.25381,-0.0923 0.1862,-0.091 0.23956,-0.0918 0.47404,-0.007 0.0996,0.0359 0.23447,0.0844 0.29965,0.10769 0.24166,0.0867 0.40124,0.0926 1.43024,0.0537 z m -5.17157,-0.42708 c 0.22924,-0.0278 0.37134,-0.0561 0.37134,-0.0742 0,-0.009 -0.0204,-0.0647 -0.0451,-0.12357 -0.16265,-0.38646 -0.16246,-0.70663 0,-1.15994 0.13745,-0.38194 0.29231,-0.59822 0.58325,-0.81458 0.1407,-0.10461 0.16251,-0.13812 0.079,-0.12143 -0.38861,0.0777 -1.10393,0.098 -1.4885,0.0422 -0.55839,-0.0809 -1.06842,-0.25731 -1.63827,-0.56637 -0.84984,-0.46092 -0.94659,-0.4952 -1.13254,-0.40111 -0.21592,0.10929 -0.31755,0.45111 -0.20164,0.67832 0.0676,0.13242 0.17584,0.20096 0.51906,0.32859 0.44255,0.16459 0.68893,0.21546 1.13709,0.23478 0.31641,0.0136 0.32216,0.0146 0.37011,0.0625 0.0267,0.0267 0.0438,0.0536 0.0378,0.0596 -0.006,0.007 -0.083,0.0234 -0.17111,0.0388 -0.12794,0.0223 -0.2589,0.0261 -0.64934,0.0187 -0.60756,-0.0114 -0.87226,-0.043 -1.10279,-0.1324 -0.29012,-0.11249 -0.2692,-0.1094 -0.36483,-0.0534 -0.20323,0.1191 -0.38483,0.36939 -0.45399,0.62568 -0.039,0.1444 -0.0438,0.48943 -0.009,0.634 0.0557,0.23063 0.17014,0.39116 0.34036,0.47741 0.12629,0.0639 0.35948,0.13139 0.64821,0.18736 0.25169,0.0488 0.25999,0.0492 1.10495,0.0526 0.46826,0.002 0.96143,0.0115 1.09591,0.0216 0.2671,0.02 0.74035,0.0126 0.96911,-0.0152 z m 0.69286,-2.61878 0.14944,-0.0103 v -0.18567 c 0,-0.23751 0.0445,-0.41462 0.15782,-0.62976 0.1225,-0.23233 0.21523,-0.31993 0.425,-0.4015 0.21252,-0.0827 0.28666,-0.12756 0.28666,-0.17371 0,-0.066 -0.11009,-0.16428 -0.27931,-0.24923 -0.20503,-0.10289 -0.30665,-0.17176 -0.58113,-0.39354 -0.28505,-0.23035 -0.50419,-0.43081 -0.59103,-0.54068 -0.0793,-0.10037 -0.091,-0.18039 -0.039,-0.26831 0.0252,-0.0425 0.0436,-0.0526 0.096,-0.0526 0.11659,0 0.23475,0.0774 0.41384,0.27099 0.19476,0.21057 0.39108,0.36265 0.8117,0.62882 0.16761,0.10609 0.33563,0.21694 0.37337,0.24635 0.1439,0.11215 0.1756,0.26049 0.13988,0.65429 -0.0123,0.13653 -0.0181,0.25276 -0.0126,0.2583 0.006,0.006 0.0691,0.0213 0.14118,0.035 0.60547,0.11536 1.64273,0.1175 1.94926,0.005 0.29964,-0.11089 0.54089,-0.43632 0.73164,-0.98681 0.0704,-0.20334 0.15272,-0.53581 0.18038,-0.72907 0.0265,-0.18533 0.0123,-0.52895 -0.0279,-0.67894 -0.11995,-0.44619 -0.42089,-0.89739 -0.8301,-1.24457 -0.10746,-0.0912 -0.20738,-0.18883 -0.22189,-0.21692 -0.0146,-0.0281 -0.0264,-0.0884 -0.0264,-0.13395 0,-0.0722 0.006,-0.085 0.0464,-0.10049 0.18441,-0.0701 0.35668,0.0453 0.79809,0.53483 l 0.14701,0.16302 0.0207,-0.0725 c 0.0604,-0.21046 0.0814,-0.40743 0.0825,-0.76986 0,-0.29212 -0.006,-0.40418 -0.0315,-0.52531 -0.0385,-0.18159 -0.1133,-0.34989 -0.18918,-0.42568 -0.0303,-0.0303 -0.23786,-0.1454 -0.46874,-0.25997 -0.53351,-0.26474 -0.86881,-0.46102 -0.9041,-0.52925 -0.0146,-0.0282 -0.0265,-0.0881 -0.0265,-0.13306 0,-0.0969 0.0284,-0.11929 0.15193,-0.11929 0.0998,0 0.146,0.0192 0.31364,0.13062 0.0717,0.0477 0.44669,0.2508 0.83323,0.4514 0.38655,0.20061 0.78025,0.41189 0.87488,0.4695 0.0947,0.0576 0.23038,0.12229 0.30164,0.14373 0.0712,0.0215 0.14337,0.0491 0.16029,0.0614 0.071,0.0519 0.08,0.30643 0.0257,0.71515 -0.0377,0.28366 -0.0367,0.38677 0.006,0.56414 0.0458,0.19206 0.20713,0.44466 0.40596,0.63561 0.2183,0.20965 0.39636,0.29344 0.6903,0.32485 0.0972,0.0103 0.20715,0.0271 0.24442,0.037 0.11821,0.0318 0.1158,0.11713 -0.0151,0.53484 -0.18944,0.60515 -0.23525,0.82927 -0.21969,1.07477 0.0126,0.19952 0.0511,0.30539 0.1513,0.41689 0.17708,0.19695 0.51538,0.27021 0.74456,0.16125 0.1761,-0.0838 0.21157,-0.21936 0.21006,-0.80328 -0.002,-0.46594 -0.0303,-0.77515 -0.0971,-1.02967 -0.0206,-0.0781 -0.0321,-0.15817 -0.0259,-0.17785 0.0265,-0.0833 0.22462,-0.14029 0.28342,-0.0815 0.0134,0.0134 0.0509,0.0766 0.0833,0.14064 0.0454,0.0895 0.0788,0.12878 0.14436,0.1703 0.23973,0.15166 0.43201,0.39535 0.64583,0.81847 0.19673,0.38934 0.34098,0.51066 0.6268,0.5272 0.26697,0.0154 0.51666,-0.10403 0.67934,-0.32496 0.11864,-0.16118 0.15954,-0.28232 0.16117,-0.4774 0.002,-0.18663 -0.0231,-0.2739 -0.10312,-0.365 -0.0738,-0.084 -0.16696,-0.12814 -0.51142,-0.24195 -0.3913,-0.12926 -0.53467,-0.19839 -0.83597,-0.40306 -0.14096,-0.0958 -0.30701,-0.1997 -0.36899,-0.231 -0.15517,-0.0783 -0.19891,-0.12563 -0.19891,-0.21518 0,-0.0397 0.008,-0.0931 0.0178,-0.11857 0.0151,-0.0393 0.0289,-0.0464 0.0911,-0.0464 0.0884,0 0.26668,0.0577 0.37956,0.12287 0.0451,0.0262 0.18169,0.11477 0.30328,0.19708 0.28505,0.19297 0.37357,0.23656 0.72992,0.35933 0.37431,0.12896 0.4674,0.17667 0.63088,0.32325 l 0.13266,0.11896 0.1142,-0.0415 c 0.17692,-0.0643 0.24553,-0.12906 0.3319,-0.31377 0.0432,-0.0925 0.0491,-0.12682 0.0489,-0.28625 0,-0.14569 -0.008,-0.19752 -0.0386,-0.26487 -0.0551,-0.12033 -0.15517,-0.22264 -0.26452,-0.2705 -0.0884,-0.0388 -0.12106,-0.0417 -0.47532,-0.0439 -0.36051,-0.002 -0.38888,-0.005 -0.54279,-0.0521 -0.24724,-0.076 -0.57594,-0.22357 -0.71361,-0.32027 -0.068,-0.0477 -0.2206,-0.18602 -0.33926,-0.3074 -0.23193,-0.23721 -0.36495,-0.34213 -0.55088,-0.43444 -0.0647,-0.0321 -0.2237,-0.13415 -0.35322,-0.22667 -0.55634,-0.39738 -0.96808,-0.59744 -1.32682,-0.64467 -0.0872,-0.0115 -0.17892,-0.0264 -0.20383,-0.0332 -0.0289,-0.008 -0.17116,-0.15892 -0.39337,-0.41776 -0.19145,-0.22303 -0.39168,-0.45086 -0.44497,-0.50629 -0.0533,-0.0555 -0.16759,-0.18322 -0.25397,-0.28399 -0.40812,-0.47609 -1.06169,-1.00847 -1.46428,-1.19278 -0.0534,-0.0245 -0.17052,-0.062 -0.26009,-0.0832 -0.17817,-0.0423 -0.21526,-0.0575 -0.27631,-0.11306 -0.0518,-0.0472 -0.0517,-0.0998 0,-0.17757 0.0812,-0.12064 0.21663,-0.12499 0.54729,-0.0175 0.0896,0.0292 0.1657,0.0456 0.16895,0.0366 0.0129,-0.036 -0.0527,-0.21147 -0.0934,-0.24971 -0.0276,-0.0259 -0.11489,-0.0594 -0.24056,-0.0926 -0.32893,-0.0865 -0.6536,-0.2453 -0.91891,-0.44944 -0.0585,-0.0452 -0.22588,-0.19546 -0.37174,-0.33417 -0.14585,-0.13869 -0.30188,-0.27108 -0.34672,-0.29418 -0.17744,-0.0915 -0.52747,-0.17971 -0.9691,-0.24438 -0.32437,-0.0476 -0.32878,-0.0472 -0.19926,0.0142 0.30149,0.14294 0.72776,0.49683 0.88648,0.73592 0.20678,0.31151 0.36505,0.73525 0.43998,1.17791 0.0375,0.22162 0.042,0.79171 0.008,1.03251 -0.0697,0.49483 -0.22105,0.97199 -0.45791,1.44401 -0.37357,0.74445 -0.87579,1.22374 -1.50267,1.43408 -0.43621,0.14637 -1.04408,0.13986 -1.60191,-0.0171 -0.98976,-0.27859 -1.98097,-0.74684 -2.65053,-1.2521 -0.4482,-0.33822 -0.68219,-0.45021 -0.93607,-0.44795 -0.1188,6.9e-4 -0.16124,0.0103 -0.23548,0.0481 -0.17881,0.0924 -0.28731,0.25467 -0.34585,0.51708 -0.0416,0.18651 -0.0274,0.70907 0.0272,1.00739 0.16722,0.91217 0.64891,2.19207 1.04499,2.77673 0.45958,0.67836 1.09447,1.21383 1.97852,1.6687 0.61648,0.31721 1.07917,0.4815 1.54289,0.54787 0.3246,0.0464 0.8006,0.0554 1.26346,0.0239 z m 9.17643,-5.1111 c 0.15734,-0.0855 0.30605,-0.31248 0.32991,-0.50348 0.009,-0.0728 0.003,-0.1118 -0.0237,-0.1731 -0.0436,-0.0973 -0.083,-0.13355 -0.18424,-0.16926 -0.16063,-0.0567 -0.36676,-0.0297 -0.76212,0.0993 -0.13704,0.0448 -0.29616,0.0824 -0.40305,0.0952 -0.0972,0.0117 -0.1766,0.0259 -0.1766,0.0318 0,0.0297 0.32839,0.3565 0.45197,0.44962 0.31377,0.23643 0.54948,0.28858 0.76781,0.16988 z m -9.62706,-0.0514 c 0.78202,-0.13931 1.43875,-0.80421 1.76014,-1.78208 0.14889,-0.45306 0.20422,-0.80335 0.20453,-1.29517 0,-0.42778 -0.0374,-0.69815 -0.14379,-1.0309 -0.14718,-0.4604 -0.4696,-0.8225 -0.94206,-1.058 -0.34366,-0.17129 -0.70116,-0.23854 -0.97072,-0.18263 -0.17194,0.0357 -0.32242,0.14953 -0.32242,0.24395 0,0.051 0.0861,0.11654 0.15299,0.11654 0.20631,0 0.57114,0.14467 0.74888,0.29697 0.35042,0.30025 0.56992,0.74615 0.64745,1.31519 0.13273,0.9743 -0.25859,2.00923 -0.93108,2.4625 -0.16215,0.10929 -0.45471,0.24316 -0.63636,0.2912 -0.1963,0.0519 -0.49683,0.0572 -0.66823,0.0117 -0.17019,-0.0452 -0.2448,-0.0822 -0.6271,-0.31125 -0.5202,-0.31172 -0.82277,-0.42553 -1.13033,-0.42518 -0.18123,2.1e-4 -0.30542,0.0462 -0.38729,0.14354 -0.0725,0.0862 -0.0802,0.13875 -0.0287,0.19496 0.15101,0.16461 0.71963,0.43919 1.47168,0.71065 0.89556,0.32327 1.29235,0.38888 1.80238,0.29803 z m -0.40516,-0.85956 c 0.59614,-0.18382 1.0743,-0.76612 1.2716,-1.54845 0.0468,-0.18528 0.05,-0.2232 0.05,-0.57867 -6e-5,-0.35712 -0.002,-0.39188 -0.0498,-0.56815 -0.1266,-0.47765 -0.33602,-0.82198 -0.61079,-1.0043 -0.12125,-0.0805 -0.34144,-0.16293 -0.54515,-0.2042 -0.3825,-0.0775 -0.99324,0.0464 -1.48202,0.30071 -0.53848,0.28014 -0.9893,0.92885 -1.12641,1.62085 -0.0689,0.34786 -0.0517,0.76218 0.0433,1.03865 l 0.0582,0.16917 0.33865,0.11364 c 0.38157,0.12804 0.62434,0.2407 0.90217,0.41865 0.36417,0.23327 0.57284,0.30339 0.86054,0.28922 0.0935,-0.005 0.21716,-0.0247 0.28981,-0.0471 z m 4.93742,-3.66602 c 0.21889,-0.033 0.34972,-0.0819 0.48393,-0.18063 0.20886,-0.15376 0.41562,-0.49681 0.50379,-0.83585 0.0585,-0.22484 0.077,-0.54478 0.043,-0.74328 -0.0272,-0.15908 -0.0278,-0.15956 -0.24039,-0.17948 l -0.13967,-0.0131 v 0.17874 c 0,0.35086 -0.0963,0.61282 -0.28894,0.79118 -0.15926,0.14743 -0.26248,0.18289 -0.53495,0.18378 -0.24387,7e-4 -0.35356,-0.0271 -0.60683,-0.15387 -0.34996,-0.17528 -0.71185,-0.52657 -0.96027,-0.93217 -0.103,-0.16813 -0.21192,-0.39437 -0.24596,-0.51073 -0.0275,-0.0941 -0.0275,-0.0941 -0.064,-0.0576 -0.0201,0.02 -0.0777,0.15209 -0.12826,0.29335 -0.0504,0.14128 -0.0981,0.26385 -0.10575,0.27239 -0.008,0.008 -0.028,-0.006 -0.0452,-0.032 -0.0377,-0.0576 -0.0313,-0.13481 0.0342,-0.41508 0.0721,-0.3086 0.0904,-0.51138 0.0902,-0.99946 0,-0.78407 -0.10254,-1.52845 -0.24924,-1.81795 -0.0588,-0.1159 -0.0733,-0.2019 -0.0415,-0.24498 0.0241,-0.0327 0.0268,-0.032 0.0614,0.0181 0.12856,0.18526 0.37024,0.70779 0.42302,0.91455 0.0607,0.23786 0.0899,0.48168 0.09,0.75279 v 0.25651 l 0.20379,0.0981 c 0.11204,0.0541 0.39316,0.20138 0.62463,0.32757 0.71092,0.38759 1.10376,0.54485 1.65449,0.66233 0.57753,0.1232 1.29885,0.12344 1.85369,6.4e-4 0.53619,-0.11869 1.05413,-0.33454 1.47145,-0.61322 0.96426,-0.64392 1.58377,-1.74549 1.72741,-3.07161 0.0254,-0.23399 0.0254,-0.83634 0,-1.06874 -0.0634,-0.58336 -0.23483,-1.17775 -0.47328,-1.64196 -0.55716,-1.08469 -1.51429,-1.74807 -2.79639,-1.93819 -0.2421,-0.0359 -0.99391,-0.0309 -1.25634,0.008 -1.19684,0.17914 -2.3367,0.70471 -3.22861,1.48863 -0.35653,0.31336 -0.68186,0.69744 -0.94129,1.11126 l -0.15504,0.24729 -0.11409,0.006 c -0.11215,0.006 -0.11522,0.005 -0.18008,-0.0656 -0.0553,-0.0596 -0.0865,-0.0757 -0.19278,-0.0996 -0.31348,-0.0705 -0.67313,-0.0917 -1.03108,-0.0608 -0.40163,0.0346 -0.48348,-7e-4 -0.29394,-0.12787 0.12284,-0.0823 0.32466,-0.13125 0.54157,-0.13146 0.0917,-7e-5 0.10415,-0.005 0.10415,-0.0359 0,-0.0559 -0.053,-0.1768 -0.15022,-0.342 -0.16511,-0.28086 -0.23346,-0.48738 -0.29458,-0.89012 -0.0473,-0.31152 -0.043,-0.90658 0.009,-1.23616 0.1706,-1.08434 0.64689,-1.64589 1.39603,-1.64589 0.24194,0 0.40974,0.0472 0.7121,0.20047 0.282,0.14291 0.27231,0.14807 0.16437,-0.0878 -0.15842,-0.34617 -0.44935,-0.66878 -0.71929,-0.79764 -0.16555,-0.079 -0.36045,-0.12842 -0.50491,-0.12802 -0.58081,10e-4 -1.12332,0.59576 -1.32756,1.45398 -0.12423,0.52201 -0.15663,1.09418 -0.0869,1.53458 0.0582,0.36689 0.0629,0.43455 0.0313,0.44665 -0.0461,0.0177 -0.11192,-0.0432 -0.16272,-0.15063 -0.0485,-0.10243 -0.0494,-0.10323 -0.0724,-0.0594 -0.0127,0.0245 -0.0398,0.11364 -0.0599,0.19824 -0.0201,0.0846 -0.0692,0.25591 -0.10883,0.38068 -0.10334,0.32486 -0.12992,0.47477 -0.14772,0.83282 -0.0232,0.46574 -0.0463,0.52835 -0.30764,0.83325 -0.17943,0.20935 -0.24198,0.30221 -0.35381,0.52532 -0.16793,0.33501 -0.29024,0.78142 -0.34644,1.26427 -0.0391,0.33642 -0.0254,0.9814 0.0282,1.31699 0.0931,0.58285 0.24907,1.04242 0.49702,1.4637 0.55648,0.94555 1.5392,1.59163 2.86804,1.88556 0.29919,0.0662 0.67369,0.12637 0.92037,0.1479 0.0797,0.007 0.16442,0.02 0.18827,0.0289 0.0239,0.009 0.19095,0.16548 0.37134,0.34782 0.33137,0.33497 0.52672,0.4972 0.74711,0.62044 0.37088,0.20742 0.72037,0.27527 1.11291,0.2161 z m 0.86984,-9.05971 c -0.0692,-0.088 -0.0724,-0.22723 -0.008,-0.36404 0.0454,-0.0971 0.22435,-0.2711 0.32731,-0.31845 0.1271,-0.0584 0.33361,-0.0538 0.50093,0.0114 0.25553,0.0992 0.5326,0.33577 0.6358,0.54286 0.0476,0.0955 0.06,0.17571 0.0271,0.17571 -0.0268,0 -0.13711,-0.0581 -0.32063,-0.16865 -0.27584,-0.1663 -0.46179,-0.22254 -0.64315,-0.19455 -0.10575,0.0163 -0.15182,0.0556 -0.20498,0.17467 -0.0785,0.17604 -0.23239,0.24528 -0.31411,0.14141 z m 2.34399,-0.31263 c -0.0771,-0.0476 -0.1094,-0.0886 -0.16395,-0.20779 -0.0998,-0.21796 -0.0759,-0.50084 0.0528,-0.62561 0.0526,-0.051 0.063,-0.0548 0.083,-0.0306 0.0276,0.0332 0.0288,0.0791 0.006,0.20562 -0.022,0.11956 -0.002,0.23496 0.0687,0.40143 0.0565,0.13297 0.0734,0.29082 0.0309,0.29069 -0.0124,-3e-5 -0.0471,-0.0151 -0.0769,-0.0336 z m -3.28354,8.32139 c 0.10197,-0.0428 0.14654,-0.2613 0.0974,-0.47756 -0.10003,-0.43992 -0.26416,-0.667 -0.59638,-0.82523 -0.0915,-0.0436 -0.26342,-0.12515 -0.38211,-0.18129 -0.11869,-0.0561 -0.32654,-0.1661 -0.4619,-0.24435 -0.26647,-0.15401 -0.36838,-0.20765 -0.43178,-0.22726 -0.0377,-0.0117 -0.0408,-0.007 -0.0408,0.0625 0,0.22871 0.18131,0.67787 0.41338,1.02412 0.22184,0.33096 0.46263,0.56668 0.74125,0.72561 0.29051,0.16573 0.49943,0.21103 0.66096,0.14338 z m 0.34013,-0.20264 c 0.10038,-0.11432 0.13306,-0.21051 0.14062,-0.41372 0.009,-0.25119 -0.007,-0.31794 -0.0893,-0.35678 -0.10391,-0.0493 -0.37746,-0.12129 -0.37746,-0.0993 0,0.0103 0.0331,0.10449 0.0738,0.20836 0.0941,0.24061 0.12468,0.3867 0.12507,0.59715 0,0.1584 0.002,0.16714 0.0341,0.15014 0.0186,-0.0103 0.0605,-0.0486 0.0932,-0.0857 z m -5.45723,-0.37856 c 0.0224,-0.007 0.0361,-0.0193 0.0308,-0.0281 -0.006,-0.009 -0.12545,-0.10369 -0.26671,-0.21079 -0.25595,-0.19414 -0.69829,-0.60498 -0.83074,-0.77157 -0.0626,-0.0789 -0.0697,-0.0831 -0.0697,-0.0428 0,0.0908 0.0951,0.37187 0.19834,0.58634 0.19415,0.40335 0.33849,0.50271 0.70736,0.48704 0.1046,-0.005 0.20846,-0.0135 0.23075,-0.0201 z m -1.78628,-2.5377 c -0.1102,-0.3741 -0.15232,-0.77736 -0.14412,-1.37902 l 0.007,-0.43988 -0.0494,0.0594 c -0.13072,0.15765 -0.28778,0.5604 -0.31989,0.82029 -0.0321,0.26005 0.0461,0.52702 0.22611,0.77231 0.0676,0.092 0.29574,0.31284 0.30929,0.29929 0.005,-0.005 -0.008,-0.0643 -0.028,-0.13246 z m 0.50395,-3.70377 c 0.0442,-0.0608 0.14744,-0.17177 0.22921,-0.2466 0.0821,-0.0751 0.16154,-0.1655 0.17738,-0.20176 0.0157,-0.0361 0.0536,-0.2613 0.0841,-0.5004 0.0305,-0.23911 0.0629,-0.48741 0.0718,-0.5518 0.009,-0.0644 0.0121,-0.12128 0.007,-0.12644 -0.0176,-0.0176 -0.2811,0.13044 -0.40625,0.22837 -0.21772,0.17036 -0.39783,0.43868 -0.45244,0.67405 -0.0365,0.1575 -0.0269,0.37118 0.024,0.53133 0.0493,0.15518 0.1291,0.30426 0.16266,0.30398 0.0121,-1.4e-4 0.0582,-0.05 0.10243,-0.11078 z m 2.55508,-0.4634 c 0,-0.007 -0.0453,-0.0842 -0.10071,-0.17164 -0.20104,-0.31711 -0.26883,-0.56201 -0.26989,-0.97523 0,-0.28111 0,-0.28111 0.0592,-0.4029 0.0719,-0.14617 0.16442,-0.21264 0.29586,-0.21264 0.18005,0 0.41596,0.19621 0.57634,0.47936 0.0915,0.16143 0.22181,0.52706 0.25583,0.7175 l 0.0227,0.12731 0.38185,-0.38696 c 0.26667,-0.27021 0.44921,-0.43774 0.60509,-0.55534 0.12277,-0.0926 0.22797,-0.18079 0.23376,-0.19594 0.0149,-0.0384 -0.0265,-0.33944 -0.0776,-0.56633 -0.0878,-0.3898 -0.2098,-0.75084 -0.34882,-1.03251 -0.26361,-0.5341 -0.9466,-0.84741 -1.4613,-0.67031 -0.45405,0.1562 -0.72782,0.58176 -0.8561,1.33072 -0.0464,0.271 -0.0451,1.15053 0.002,1.36838 0.0371,0.17186 0.11832,0.39729 0.19233,0.53437 0.16759,0.3103 0.19823,0.37126 0.22753,0.45285 0.0508,0.14121 0.078,0.16298 0.21206,0.16962 0.0274,10e-4 0.0498,-0.003 0.0498,-0.0103 z m 0.38387,-0.55329 c 0.0151,-0.0266 0.0228,-0.11622 0.0226,-0.25812 0,-0.1829 -0.007,-0.23368 -0.0411,-0.32021 -0.0536,-0.13472 -0.15877,-0.23968 -0.26752,-0.26707 -0.10632,-0.0268 -0.12569,-0.0114 -0.15331,0.12162 -0.0274,0.13227 -0.0103,0.29987 0.0476,0.45227 0.0707,0.18783 0.1405,0.26405 0.2706,0.29544 0.0871,0.021 0.097,0.0191 0.12121,-0.024 z m 2.16632,-1.42787 c 0.0564,-0.18757 -0.0504,-0.47501 -0.1912,-0.51495 -0.0982,-0.0279 -0.12457,0.24232 -0.0399,0.40895 0.0454,0.0893 0.15581,0.20321 0.1869,0.19284 0.0114,-0.003 0.031,-0.0428 0.0442,-0.0869 z m 0.81634,-0.29095 c 0.29538,-0.12091 0.55946,-0.22867 0.58687,-0.23944 0.0454,-0.0178 0.0498,-0.028 0.0498,-0.11295 0,-0.11541 -0.068,-0.3888 -0.14425,-0.57955 -0.18939,-0.47416 -0.52017,-0.87316 -0.86578,-1.04443 -0.13632,-0.0676 -0.16325,-0.0745 -0.29017,-0.075 -0.10575,-4.2e-4 -0.16123,0.009 -0.22749,0.0391 -0.12369,0.0559 -0.27969,0.22275 -0.36891,0.39456 -0.18751,0.36113 -0.19893,0.56386 -0.0586,1.04223 l 0.035,0.1195 0.0951,-0.0328 c 0.1678,-0.058 0.29012,-0.0341 0.40925,0.0801 0.11272,0.10804 0.20127,0.34595 0.20187,0.54251 0,0.0504 0.008,0.0861 0.0204,0.0861 0.0114,0 0.26164,-0.099 0.55703,-0.21987 z m -1.55019,-1.56889 c 0.0229,-0.0374 0.0696,-0.12404 0.1038,-0.19263 0.11409,-0.22884 0.30111,-0.39122 0.55058,-0.47806 0.16935,-0.0589 0.34729,-0.0495 0.58093,0.031 0.0894,0.0307 0.16826,0.0538 0.17533,0.0512 0.0218,-0.008 -0.10632,-0.26477 -0.19227,-0.38523 -0.16131,-0.22608 -0.43129,-0.40979 -0.67623,-0.46017 -0.38354,-0.0789 -0.81535,0.0825 -0.94672,0.35397 -0.066,0.13637 -0.0456,0.25801 0.0908,0.54104 0.11875,0.2465 0.20772,0.46282 0.22761,0.55337 0.0154,0.0709 0.0361,0.0673 0.0862,-0.0145 z m 5.4293,25.89867 c -0.0164,-0.0103 -0.0186,-0.0176 -0.006,-0.0178 0.0119,-1.4e-4 0.0266,0.008 0.0328,0.0178 0.0138,0.0225 0.008,0.0225 -0.0272,0 z m -0.0182,-0.0433 c 0,-0.005 0.0127,-0.012 0.0281,-0.0179 0.0161,-0.007 0.0234,-0.003 0.0171,0.007 -0.0103,0.0173 -0.0451,0.0254 -0.0451,0.0103 z m 0.28752,-0.13328 c -0.0225,-0.0287 -0.022,-0.0294 0.007,-0.007 0.0174,0.0137 0.0318,0.028 0.0318,0.0318 0,0.015 -0.0149,0.006 -0.0385,-0.0248 z m -9.67519,-0.1252 c 0.0126,-0.005 0.0328,-0.005 0.0453,0 0.0126,0.005 0.002,0.009 -0.0226,0.009 -0.0249,0 -0.0351,-0.005 -0.0226,-0.009 z m 9.74996,-0.0423 c 0,-0.0103 0.008,-0.0182 0.0193,-0.0182 0.0103,0 0.0142,0.008 0.008,0.0182 -0.007,0.0103 -0.0149,0.0181 -0.0193,0.0181 -0.005,0 -0.008,-0.008 -0.008,-0.0181 z m -12.61573,-0.0712 c -0.0163,-0.0265 0.0271,-0.044 0.0505,-0.0204 0.0161,0.0162 0.0128,0.0181 -0.0136,0.008 -0.0242,-0.009 -0.0306,-0.007 -0.0216,0.008 0.007,0.0117 0.009,0.0212 0.005,0.0212 -0.005,0 -0.0138,-0.008 -0.0194,-0.0169 z m 0,-0.079 c 0.007,-0.0178 0.0169,-0.028 0.0225,-0.0223 0.006,0.006 0,0.0202 -0.0123,0.0325 -0.0178,0.0178 -0.0199,0.0157 -0.0103,-0.0103 z m 13.00403,-2.53186 c -0.007,-0.0103 -0.008,-0.0232 -0.003,-0.028 0.005,-0.005 0.0134,0.005 0.0194,0.0193 0.0121,0.0319 0.002,0.0375 -0.0161,0.009 z m -0.25081,-0.40063 c 0.005,-0.008 0.0172,-0.0103 0.0263,-0.005 0.0237,0.0146 0.021,0.0204 -0.009,0.0204 -0.0144,0 -0.0221,-0.007 -0.0169,-0.0154 z m -12.75427,-0.19572 c -0.007,-0.0103 0,-0.0133 0.0171,-0.007 0.0313,0.012 0.0372,0.025 0.0114,0.025 -0.009,0 -0.022,-0.008 -0.0281,-0.0179 z m 0.11421,-0.0669 c 0.0129,-0.005 0.0287,-0.005 0.0347,0.001 0.007,0.007 -0.005,0.0103 -0.0238,0.009 -0.021,-7e-4 -0.0254,-0.005 -0.0114,-0.0114 z m 12.04928,-0.27745 c -0.0163,-0.0103 -0.0186,-0.0176 -0.006,-0.0178 0.0119,-1.4e-4 0.0266,0.008 0.0328,0.0178 0.0138,0.0225 0.008,0.0225 -0.0272,0 z m 0.10872,0 c -0.0163,-0.0103 -0.0186,-0.0176 -0.006,-0.0178 0.0119,-1.4e-4 0.0266,0.008 0.0328,0.0178 0.0141,0.0225 0.008,0.0225 -0.0272,0 z m -11.98323,-0.65331 c -0.0186,-0.0301 -0.002,-0.0343 0.0241,-0.007 0.0127,0.0139 0.0153,0.0254 0.006,0.0254 -0.0103,0 -0.0231,-0.009 -0.0297,-0.0193 z m 0.20903,-0.23234 c 0,-0.009 0.0134,-0.0213 0.0297,-0.0275 0.0248,-0.009 0.0259,-0.007 0.007,0.0162 -0.0261,0.0314 -0.0366,0.0346 -0.0366,0.0114 z m 0.0979,-0.0829 c 0,-0.024 0.006,-0.0399 0.0129,-0.0356 0.0138,0.008 0.0114,0.0551 -0.005,0.0701 -0.005,0.005 -0.009,-0.0103 -0.009,-0.0345 z m 11.03346,0.009 c -0.007,-0.0103 0,-0.0133 0.0169,-0.007 0.0314,0.012 0.0372,0.025 0.0114,0.025 -0.009,0 -0.022,-0.008 -0.0281,-0.018 z m -11.00987,-0.11493 c -0.005,-0.0134 0.002,-0.0241 0.0144,-0.0241 0.0129,0 0.0194,0.0103 0.0144,0.0241 -0.005,0.0133 -0.0117,0.0241 -0.0144,0.0241 -0.002,0 -0.009,-0.0114 -0.0144,-0.0241 z m 10.7206,-0.0279 c 0.005,-0.005 0,-0.0176 -0.009,-0.0294 -0.0121,-0.0147 -0.009,-0.0213 0.009,-0.0213 0.0149,0 0.023,0.005 0.0182,0.009 -0.005,0.005 0.005,0.0179 0.0192,0.0294 0.0244,0.0178 0.0233,0.0205 -0.008,0.0205 -0.0201,0 -0.0329,-0.003 -0.0286,-0.008 z m -10.75931,-0.0257 c 0.007,-0.0178 0.0169,-0.028 0.0225,-0.0224 0.006,0.006 0,0.0202 -0.0124,0.0325 -0.0178,0.0178 -0.0199,0.0157 -0.0103,-0.0103 z m 9.02082,-0.0362 c 0.007,-0.0178 0.0169,-0.028 0.0225,-0.0223 0.006,0.006 2e-5,0.0202 -0.0124,0.0325 -0.0178,0.0178 -0.0199,0.0157 -0.0103,-0.0103 z m -0.0743,-0.0684 c -0.007,-0.0103 -0.008,-0.0232 -0.003,-0.0279 0.005,-0.005 0.0134,0.005 0.0194,0.0193 0.0123,0.0319 0.002,0.0375 -0.0161,0.009 z m 3.17976,-0.0158 c 0,-0.009 0.008,-0.022 0.0181,-0.0281 0.0103,-0.007 0.0134,7e-4 0.007,0.017 -0.0121,0.0314 -0.025,0.0372 -0.025,0.0114 z m -12.415,-0.0289 c -0.0174,-0.0455 -0.0124,-0.0573 0.009,-0.0206 0.0103,0.0182 0.0154,0.0368 0.0103,0.0415 -0.005,0.005 -0.0136,-0.005 -0.0199,-0.0209 z m -0.0197,-0.11578 c -0.006,-0.009 -0.003,-0.0212 0.005,-0.0263 0.008,-0.005 0.0154,0.002 0.0154,0.0169 0,0.0305 -0.006,0.0333 -0.0204,0.009 z m -0.092,-0.0568 c -0.007,-0.0103 -0.008,-0.0232 -0.003,-0.028 0.005,-0.005 0.0134,0.005 0.0194,0.0193 0.0121,0.0319 0.002,0.0375 -0.0161,0.009 z m 10.84204,0.0125 c 0,-0.003 0.0142,-0.018 0.0318,-0.0318 0.0287,-0.0225 0.0294,-0.0218 0.007,0.007 -0.0237,0.0302 -0.0385,0.0398 -0.0385,0.0249 z m 2.49295,-0.14325 c -0.0301,-0.022 -0.03,-0.0233 0.002,-0.0233 0.0191,0 0.0344,0.0103 0.0344,0.0233 0,0.0128 -0.002,0.0233 -0.002,0.0233 -0.002,0 -0.0169,-0.0103 -0.0344,-0.0233 z m -0.18412,-0.0865 c -0.007,-0.0103 -0.008,-0.0232 -0.003,-0.028 0.005,-0.005 0.0134,0.005 0.0192,0.0193 0.0123,0.0319 0.002,0.0375 -0.0161,0.009 z m 0.0437,-0.0125 c -0.0225,-0.0287 -0.0218,-0.0294 0.007,-0.007 0.0302,0.0237 0.0398,0.0385 0.0249,0.0385 -0.003,0 -0.0181,-0.0143 -0.0318,-0.0318 z m -13.50274,-0.12978 c 0.006,-0.009 0,-0.0206 -0.0126,-0.0253 -0.0126,-0.005 -0.005,-0.008 0.0172,-0.007 0.0304,10e-4 0.0352,0.008 0.0206,0.0254 -0.0222,0.0268 -0.0403,0.0317 -0.025,0.007 z m 11.00532,-0.10918 c 0,-0.009 0.008,-0.022 0.0181,-0.0281 0.0103,-0.007 0.0134,6.9e-4 0.007,0.017 -0.0121,0.0314 -0.025,0.0372 -0.025,0.0114 z m -11.06173,-0.0455 c 0,-0.0145 0.007,-0.0221 0.0155,-0.0169 0.008,0.005 0.0103,0.017 0.005,0.0264 -0.0146,0.0237 -0.0204,0.021 -0.0204,-0.009 z m 13.30808,-0.13613 c -0.0214,-0.0135 -0.0189,-0.0164 0.0123,-0.0141 0.0216,0.001 0.0353,0.009 0.0304,0.0173 -0.0114,0.0175 -0.009,0.0176 -0.0428,-0.003 z m -0.0527,-0.15079 c -0.0229,-0.0382 -0.0225,-0.0385 0.008,-0.009 0.0179,0.0171 0.0287,0.0352 0.0239,0.0399 -0.005,0.005 -0.0194,-0.009 -0.0326,-0.0312 z m -0.15688,-0.20829 c 0.007,-0.0129 0.002,-0.0374 -0.0103,-0.0544 -0.0209,-0.0278 -0.0199,-0.0278 0.0114,6.2e-4 0.0288,0.0263 0.0304,0.0353 0.0103,0.0544 -0.0197,0.0184 -0.022,0.0182 -0.0114,-6.2e-4 z m -1.88114,-0.27277 c -0.005,-0.008 0.002,-0.0309 0.0181,-0.0498 0.0265,-0.033 0.0269,-0.0328 0.009,0.005 -0.0103,0.0212 -0.0134,0.0435 -0.007,0.0498 0.007,0.007 0.007,0.0114 0,0.0114 -0.007,0 -0.0153,-0.007 -0.0206,-0.0154 z m 4.42727,-0.002 c -0.0163,-0.0103 -0.0186,-0.0176 -0.006,-0.0178 0.0119,-1.4e-4 0.0266,0.008 0.0328,0.0178 0.0138,0.0225 0.008,0.0225 -0.0272,0 z m 0.29707,-0.17151 c 0,-0.024 0.006,-0.0399 0.0129,-0.0356 0.0138,0.008 0.0114,0.0551 -0.005,0.0701 -0.005,0.005 -0.009,-0.0103 -0.009,-0.0345 z m 0.20223,-0.21418 c 0.007,-0.0178 0.0169,-0.028 0.0225,-0.0224 0.006,0.006 3e-5,0.0202 -0.0123,0.0325 -0.0181,0.0177 -0.0201,0.0157 -0.0103,-0.0103 z m -5.79653,-0.58715 c -0.0103,-0.0258 -0.008,-0.0279 0.0103,-0.0103 0.0123,0.0122 0.0181,0.0269 0.0123,0.0325 -0.006,0.006 -0.0157,-0.005 -0.0225,-0.0224 z m -0.64277,-0.0521 c 0,-0.021 0.005,-0.0254 0.0114,-0.0114 0.005,0.0131 0.005,0.0287 -0.002,0.0348 -0.007,0.007 -0.0103,-0.005 -0.009,-0.0238 z m 0.70466,-0.017 c -0.0126,-0.0152 -0.0194,-0.0311 -0.0151,-0.0353 0.005,-0.005 0.0178,0.008 0.0299,0.0276 0.0263,0.0421 0.0176,0.0468 -0.0149,0.008 z m -11.50213,-0.59511 c 0,-0.003 0.0123,-0.0171 0.0275,-0.0297 0.0231,-0.0191 0.0257,-0.018 0.0161,0.007 -0.0103,0.0254 -0.0438,0.0432 -0.0438,0.0229 z m 17.16609,-0.0805 c -0.0253,-0.028 -0.0262,-0.038 -0.006,-0.0661 0.0225,-0.0309 0.024,-0.0302 0.0206,0.0103 -0.002,0.0239 0.005,0.0536 0.0139,0.0661 0.0277,0.035 0.005,0.0267 -0.0289,-0.0103 z m -0.0951,-0.0601 c -0.008,-0.0126 -0.005,-0.0163 0.007,-0.009 0.0103,0.007 0.0234,0.001 0.0286,-0.0103 0.007,-0.0162 0.009,-0.0166 0.0103,-0.001 0.002,0.0312 -0.0299,0.0462 -0.0454,0.0213 z m -1.48712,-0.31369 c 0,-0.0145 0.007,-0.0221 0.0156,-0.0169 0.008,0.005 0.0103,0.017 0.005,0.0264 -0.0146,0.0237 -0.0204,0.021 -0.0204,-0.009 z m -4.71569,-0.77065 c -0.0163,-0.0103 -0.0186,-0.0176 -0.006,-0.0178 0.0119,-1.5e-4 0.0266,0.008 0.0328,0.0178 0.0138,0.0225 0.008,0.0225 -0.0272,0 z m 0.0544,-0.0362 c 0.0149,-0.009 0.0353,-0.0176 0.0453,-0.0176 0.0103,0 0.006,0.008 -0.009,0.0176 -0.0149,0.009 -0.0353,0.0176 -0.0453,0.0176 -0.0103,0 -0.006,-0.008 0.009,-0.0176 z m 4.94481,-0.60724 c -0.0191,-0.0231 -0.0181,-0.0257 0.007,-0.0162 0.0164,0.007 0.0297,0.0188 0.0297,0.0276 0,0.0233 -0.0103,0.02 -0.0366,-0.0114 z m -2.23663,-0.008 c -0.007,-0.0103 0,-0.0134 0.0169,-0.007 0.0314,0.012 0.0372,0.025 0.0114,0.025 -0.009,0 -0.022,-0.008 -0.0281,-0.0179 z m -13.7926,-0.047 c 0,-0.0212 0.005,-0.0254 0.0114,-0.0114 0.005,0.0131 0.005,0.0287 -0.002,0.0347 -0.007,0.007 -0.0103,-0.005 -0.009,-0.0238 z m 15.87573,-0.0798 c -0.007,-0.0103 0,-0.0134 0.0172,-0.007 0.0313,0.012 0.0371,0.025 0.0114,0.025 -0.009,0 -0.0221,-0.008 -0.0281,-0.0179 z m -2.82026,-0.24806 c 0.0129,-0.005 0.0287,-0.005 0.0347,0.001 0.007,0.007 -0.005,0.0103 -0.0238,0.009 -0.021,-7e-4 -0.0254,-0.005 -0.0103,-0.0114 z m -11.10057,-0.0672 c 0,-0.005 0.0127,-0.012 0.0281,-0.0178 0.0161,-0.007 0.0234,-0.003 0.0171,0.007 -0.0103,0.0173 -0.0452,0.0254 -0.0452,0.0103 z m -1.64235,-0.0555 c 0,-0.0145 0.007,-0.0221 0.0154,-0.0169 0.008,0.005 0.0103,0.0171 0.005,0.0264 -0.0146,0.0237 -0.0202,0.021 -0.0202,-0.009 z m 1.45292,-0.063 c -0.0121,-0.0194 0.0234,-0.0465 0.0397,-0.0303 0.006,0.007 0,0.0114 -0.0149,0.0114 -0.021,2.1e-4 -0.0209,0.003 0.002,0.0178 0.0163,0.0103 0.0186,0.0176 0.006,0.0178 -0.0119,1.6e-4 -0.0263,-0.007 -0.032,-0.0166 z m -1.26636,-0.12417 c -0.005,-0.008 0.007,-0.0142 0.0248,-0.0142 0.0184,0 0.0296,0.007 0.0247,0.0142 -0.005,0.008 -0.0159,0.0142 -0.0247,0.0142 -0.009,0 -0.0199,-0.007 -0.0248,-0.0142 z m 11.90532,-0.0536 c -0.0225,-0.0287 -0.0218,-0.0294 0.007,-0.007 0.0174,0.0136 0.0318,0.028 0.0318,0.0317 0,0.015 -0.0149,0.006 -0.0385,-0.0248 z m -0.15465,-0.0467 c 0,-0.0133 0.0103,-0.0242 0.0239,-0.0242 0.0178,0 0.0189,0.007 0.003,0.0242 -0.0114,0.0133 -0.0218,0.0241 -0.0239,0.0241 -0.002,0 -0.003,-0.0114 -0.003,-0.0241 z m -11.0953,-0.0425 c 0.0129,-0.005 0.0287,-0.005 0.0346,0.001 0.007,0.007 -0.005,0.0103 -0.0238,0.009 -0.021,-7.1e-4 -0.0254,-0.005 -0.0114,-0.0114 z m 11.01448,-0.0193 c -0.0225,-0.0287 -0.0218,-0.0294 0.007,-0.007 0.0302,0.0237 0.0398,0.0385 0.0248,0.0385 -0.003,0 -0.0179,-0.0143 -0.0318,-0.0318 z m 0.0637,-0.0259 c -0.005,-0.008 -0.0184,-0.0103 -0.0293,-0.003 -0.0119,0.007 -0.0144,0.003 -0.007,-0.009 0.009,-0.0153 0.0204,-0.0162 0.0361,-0.002 0.0126,0.0103 0.0272,0.0143 0.0328,0.009 0.006,-0.006 0.0146,-0.002 0.0201,0.007 0.006,0.009 -0.002,0.0164 -0.0171,0.0164 -0.0149,0 -0.0314,-0.007 -0.0367,-0.0154 z m -0.13248,-0.13093 c -0.0144,-0.0175 -0.0153,-0.0293 -0.002,-0.0373 0.0103,-0.007 0.0197,-0.009 0.0206,-0.007 0.008,0.0328 0.0126,0.0691 0.008,0.0691 -0.002,0 -0.0149,-0.0114 -0.0265,-0.0256 z m -0.61721,-0.74235 c 0,-0.005 0.0127,-0.012 0.0281,-0.018 0.0161,-0.007 0.0234,-0.003 0.0171,0.007 -0.0103,0.0173 -0.0451,0.0255 -0.0451,0.0103 z m -0.23297,-0.14384 c -0.0151,-0.0181 -0.0141,-0.0241 0.003,-0.0241 0.0131,0 0.0239,0.0114 0.0239,0.0241 0,0.0134 -0.002,0.0242 -0.003,0.0242 -0.002,0 -0.0128,-0.0114 -0.0239,-0.0242 z m -0.0733,-0.1277 c -0.0159,-0.0191 -0.0151,-0.0272 0.002,-0.0342 0.0144,-0.006 0.0238,0.005 0.0238,0.025 0,0.0408 0,0.0409 -0.0266,0.009 z m -0.36153,-0.27081 c -0.0151,-0.0181 -0.0141,-0.0241 0.003,-0.0241 0.0131,0 0.0239,0.0114 0.0239,0.0241 0,0.0134 -0.002,0.0241 -0.003,0.0241 -0.002,0 -0.0127,-0.0103 -0.0238,-0.0241 z m -0.18365,-0.16382 c 0,-0.003 0.0142,-0.0179 0.0318,-0.0318 0.0287,-0.0225 0.0294,-0.0218 0.007,0.007 -0.0237,0.0302 -0.0385,0.0398 -0.0385,0.0248 z m 0.60761,-0.93385 c -0.006,-0.009 -0.003,-0.0212 0.005,-0.0263 0.008,-0.005 0.0154,0.002 0.0154,0.0169 0,0.0305 -0.006,0.0332 -0.0203,0.009 z m -0.0103,-0.0627 c 0,-0.005 0.0126,-0.012 0.0281,-0.0179 0.0161,-0.007 0.0234,-0.003 0.0171,0.007 -0.0103,0.0173 -0.0451,0.0254 -0.0451,0.0103 z m 0.1449,-0.0824 c 0,-0.009 0.008,-0.022 0.0179,-0.0281 0.0103,-0.007 0.0134,7.1e-4 0.007,0.017 -0.0121,0.0313 -0.025,0.0371 -0.025,0.0114 z m -7.90984,-0.0825 c 0,-0.013 0.0114,-0.0196 0.0242,-0.0144 0.0131,0.005 0.0241,0.0117 0.0241,0.0144 0,0.002 -0.0114,0.009 -0.0241,0.0144 -0.0131,0.005 -0.0242,-0.001 -0.0242,-0.0144 z m 8.00042,-0.0635 c -0.0163,-0.0103 -0.0186,-0.0176 -0.006,-0.0178 0.0119,-1.4e-4 0.0266,0.008 0.0328,0.0178 0.0141,0.0225 0.008,0.0225 -0.0272,0 z m -5.81803,-1.04488 c 0.0129,-0.005 0.0287,-0.005 0.0348,0.001 0.007,0.007 -0.005,0.0103 -0.0238,0.009 -0.021,-7.1e-4 -0.0254,-0.005 -0.0114,-0.0114 z m 0.12937,-0.0484 c 0.008,-0.008 0.0301,-0.007 0.0482,0.002 0.0281,0.0158 0.0259,0.0179 -0.0154,0.0154 -0.0266,-0.001 -0.0413,-0.0103 -0.0327,-0.0183 z m 0.0824,-0.0115 c -0.007,-0.0103 0,-0.0133 0.0172,-0.007 0.0313,0.012 0.0371,0.025 0.0114,0.025 -0.009,0 -0.022,-0.008 -0.0281,-0.0179 z m -0.16303,-0.0725 c -0.007,-0.0103 0,-0.0134 0.0172,-0.007 0.0313,0.012 0.0371,0.025 0.0114,0.025 -0.009,0 -0.0221,-0.008 -0.0281,-0.018 z m -1.48557,-0.1539 c 0.0311,-0.0248 0.0322,-0.0313 0.009,-0.0461 -0.0149,-0.009 -0.0182,-0.0173 -0.007,-0.0174 0.0114,-1.5e-4 0.0354,0.0175 0.0544,0.0391 0.0191,0.0216 0.0245,0.0335 0.0124,0.0263 -0.0124,-0.007 -0.0408,-0.005 -0.0635,0.007 -0.04,0.0194 -0.0401,0.0192 -0.005,-0.009 z m 7.61996,-0.0637 c 0,-0.0249 0.005,-0.0351 0.009,-0.0226 0.005,0.0125 0.005,0.0328 0,0.0453 -0.005,0.0125 -0.009,0.002 -0.009,-0.0226 z m -7.77383,-0.18798 c 0,-0.003 0.0142,-0.0179 0.0317,-0.0318 0.0287,-0.0225 0.0294,-0.0218 0.007,0.007 -0.0237,0.0302 -0.0385,0.0398 -0.0385,0.0248 z m 9.7635,-0.46413 c 0.0151,-0.009 0.0353,-0.0176 0.0453,-0.0176 0.0103,0 0.006,0.008 -0.009,0.0176 -0.0151,0.009 -0.0353,0.0176 -0.0453,0.0176 -0.0103,0 -0.006,-0.008 0.009,-0.0176 z m -0.0759,-0.0124 c 0.0132,-0.005 0.0287,-0.005 0.0348,0.001 0.007,0.007 -0.005,0.0103 -0.0238,0.009 -0.021,-7.1e-4 -0.0254,-0.005 -0.0114,-0.0114 z m 1.23287,-0.74391 c -0.0225,-0.0287 -0.0218,-0.0294 0.007,-0.007 0.0174,0.0136 0.0318,0.028 0.0318,0.0318 0,0.0149 -0.0149,0.006 -0.0385,-0.0249 z m 0.0121,-0.0395 c -0.006,-0.009 -0.003,-0.0212 0.005,-0.0264 0.008,-0.005 0.0154,0.002 0.0154,0.0169 0,0.0305 -0.006,0.0332 -0.0203,0.009 z m 0.0985,-0.0782 c -0.0176,-0.0362 -0.0169,-0.0374 0.006,-0.009 0.0201,0.0247 0.0303,0.0265 0.05,0.009 0.0209,-0.0185 0.0209,-0.0169 0,0.009 -0.0305,0.0402 -0.0324,0.0399 -0.0561,-0.009 z m 0.1815,-0.13132 c -0.0249,-0.0142 -0.0367,-0.0262 -0.0262,-0.0265 0.0103,-4.2e-4 0.035,0.0114 0.0544,0.026 0.0448,0.0338 0.0304,0.0341 -0.0282,6.2e-4 z m -0.0362,-0.0623 c 0,-0.009 0.008,-0.022 0.0179,-0.0281 0.0103,-0.007 0.0134,7.1e-4 0.007,0.017 -0.0119,0.0314 -0.025,0.0371 -0.025,0.0114 z m 0.0725,-0.0886 c 0,-0.008 0.0119,-0.0151 0.0263,-0.0151 0.0144,0 0.0222,0.007 0.0171,0.0151 -0.005,0.008 -0.0169,0.0151 -0.0264,0.0151 -0.009,0 -0.0172,-0.007 -0.0172,-0.0151 z m 0.12822,-0.10414 c 0,-0.0211 0.005,-0.0254 0.0114,-0.0114 0.005,0.013 0.005,0.0287 -0.002,0.0346 -0.007,0.007 -0.0103,-0.005 -0.009,-0.0238 z m -12.25863,-0.35777 c 0,-0.0133 0.0103,-0.0241 0.0239,-0.0241 0.0178,0 0.0189,0.007 0.003,0.0241 -0.0114,0.0134 -0.0218,0.0242 -0.0239,0.0242 -0.002,0 -0.003,-0.0114 -0.003,-0.0242 z m 12.71006,-0.26459 c 0,-0.009 0.008,-0.0219 0.0181,-0.0281 0.0103,-0.007 0.0134,7.1e-4 0.007,0.017 -0.0121,0.0314 -0.025,0.0371 -0.025,0.0114 z m -13.06227,-0.13161 c 0.0128,-0.017 0.0171,-0.0415 0.0103,-0.0544 -0.0103,-0.0189 -0.008,-0.019 0.0114,-6.1e-4 0.0206,0.0191 0.0189,0.028 -0.0103,0.0544 -0.0311,0.0285 -0.0321,0.0285 -0.0114,6.3e-4 z m 13.34419,-0.55249 c -0.0103,-0.0258 -0.008,-0.0279 0.0103,-0.0103 0.0124,0.0122 0.0181,0.0269 0.0124,0.0325 -0.006,0.006 -0.0157,-0.005 -0.0225,-0.0223 z m -13.07944,-1.56292 c -0.007,-0.0103 0,-0.0133 0.0172,-0.007 0.0313,0.012 0.0371,0.025 0.0114,0.025 -0.009,0 -0.0221,-0.008 -0.0281,-0.0179 z m 0.10986,-0.103 c -0.007,-0.0166 -0.002,-0.039 0.0103,-0.0497 0.0157,-0.0145 0.0178,-0.0131 0.007,0.005 -0.008,0.0142 -0.005,0.0305 0.008,0.0384 0.0141,0.009 0.0157,0.0179 0.005,0.025 -0.0103,0.007 -0.0233,-0.002 -0.0297,-0.0189 z m 13.11701,-1.27995 c -0.005,-0.0134 0.002,-0.0241 0.0144,-0.0241 0.0129,0 0.0194,0.0103 0.0144,0.0241 -0.005,0.0133 -0.0114,0.0241 -0.0144,0.0241 -0.002,0 -0.009,-0.0114 -0.0144,-0.0241 z m -0.1381,-0.62041 c 0,-0.0212 0.005,-0.0254 0.0103,-0.0114 0.005,0.0131 0.005,0.0287 -0.002,0.0347 -0.007,0.007 -0.0103,-0.005 -0.009,-0.0238 z m -0.31918,-0.62464 c -0.0186,-0.0301 -0.002,-0.0343 0.0241,-0.007 0.0128,0.0139 0.0153,0.0254 0.006,0.0254 -0.0103,0 -0.0231,-0.009 -0.0297,-0.0193 z m -12.10135,-0.38834 c 0.002,-0.0151 0.0156,-0.0376 0.0293,-0.0498 0.021,-0.0187 0.0216,-0.0177 0.003,0.007 -0.0119,0.0159 -0.0171,0.0334 -0.0114,0.039 0.006,0.006 0.002,0.0151 -0.008,0.0212 -0.0103,0.007 -0.0159,-10e-4 -0.0138,-0.0165 z m 11.78825,-0.0871 c -0.0463,-0.0493 -0.0487,-0.0607 -0.0129,-0.0607 0.0144,0 0.0218,0.007 0.0163,0.0162 -0.006,0.009 0.005,0.032 0.0217,0.0513 0.0452,0.0498 0.0224,0.0437 -0.025,-0.007 z m -0.11902,-0.22677 c -0.005,-0.008 0.002,-0.0151 0.0163,-0.0151 0.0139,0 0.0214,0.007 0.0163,0.0151 -0.005,0.008 -0.0126,0.0151 -0.0163,0.0151 -0.003,0 -0.0114,-0.007 -0.0163,-0.0151 z m -0.16362,-0.10963 c -0.006,-0.009 0.005,-0.0272 0.0216,-0.0408 0.0278,-0.0218 0.0289,-0.0214 0.009,0.005 -0.0124,0.0159 -0.0172,0.0342 -0.0103,0.0408 0.007,0.007 0.007,0.0119 0,0.0119 -0.007,0 -0.0154,-0.007 -0.0209,-0.016 z m -10.7619,-0.0832 c 0.002,-0.0585 0.0234,-0.0765 0.0234,-0.0189 0,0.0255 -0.006,0.0497 -0.0121,0.0538 -0.007,0.005 -0.0117,-0.0117 -0.0114,-0.035 z m 0.0461,-0.0807 c 0,-0.009 0.008,-0.022 0.0181,-0.0281 0.0103,-0.007 0.0134,7e-4 0.007,0.017 -0.0121,0.0314 -0.025,0.0372 -0.025,0.0114 z m 10.46279,-0.10677 c -0.005,-0.008 0.002,-0.0151 0.0163,-0.0151 0.0141,0 0.0214,0.007 0.0164,0.0151 -0.005,0.008 -0.0126,0.0151 -0.0164,0.0151 -0.003,0 -0.0114,-0.007 -0.0163,-0.0151 z m -0.005,-0.0656 c 0,-0.0145 0.007,-0.0221 0.0156,-0.0169 0.008,0.005 0.0103,0.017 0.005,0.0263 -0.0146,0.0237 -0.0204,0.021 -0.0204,-0.009 z m -0.13283,-0.0994 c 0,-0.0145 -0.0117,-0.0185 -0.0318,-0.0114 -0.0254,0.009 -0.0272,0.008 -0.009,-0.0103 0.0174,-0.0176 0.0276,-0.0178 0.044,-0.001 0.0117,0.0118 0.0159,0.027 0.009,0.0338 -0.007,0.007 -0.0123,0.002 -0.0123,-0.0103 z m -10.22355,-0.0524 c -0.005,-0.008 0.002,-0.0151 0.0163,-0.0151 0.0141,0 0.0214,0.007 0.0163,0.0151 -0.005,0.008 -0.0126,0.0151 -0.0163,0.0151 -0.003,0 -0.0114,-0.007 -0.0163,-0.0151 z m 9.69824,-0.26372 c 0,-0.005 0.0127,-0.012 0.0281,-0.0179 0.0161,-0.007 0.0234,-0.003 0.0172,0.007 -0.0103,0.0173 -0.0452,0.0254 -0.0452,0.0103 z m -1.50831,-0.5929 c 0.0124,-0.0125 0.0269,-0.0179 0.0325,-0.0125 0.006,0.006 -0.005,0.0157 -0.0224,0.0225 -0.0257,0.0103 -0.0279,0.008 -0.0103,-0.0103 z m -2.53903,-1.38723 c -0.0103,-0.0258 -0.008,-0.0279 0.0103,-0.0103 0.0123,0.0122 0.0181,0.0269 0.0123,0.0325 -0.006,0.006 -0.0157,-0.005 -0.0225,-0.0224 z m -5.23429,-0.0748 c -0.005,-0.008 0.002,-0.0151 0.0164,-0.0151 0.0139,0 0.0214,0.007 0.0163,0.0151 -0.005,0.008 -0.0126,0.0151 -0.0163,0.0151 -0.003,0 -0.0114,-0.007 -0.0164,-0.0151 z m 0.2789,-0.46271 c 0,-0.003 0.0142,-0.0179 0.0318,-0.0317 0.0287,-0.0225 0.0294,-0.0218 0.007,0.007 -0.0237,0.0302 -0.0385,0.0398 -0.0385,0.0249 z m 0.0241,-0.0897 c 0,-0.0133 0.0103,-0.0241 0.0239,-0.0241 0.0178,0 0.0189,0.007 0.003,0.0241 -0.0114,0.0133 -0.0217,0.0241 -0.0238,0.0241 -0.002,0 -0.003,-0.0103 -0.003,-0.0241 z m 0.13167,-0.0997 c -0.005,-0.008 0.002,-0.0151 0.0163,-0.0151 0.0141,0 0.0214,0.007 0.0163,0.0151 -0.005,0.008 -0.0126,0.0151 -0.0163,0.0151 -0.003,0 -0.0114,-0.007 -0.0163,-0.0151 z m 0.14319,-0.11146 c -0.007,-0.0103 0,-0.0133 0.0172,-0.007 0.0313,0.012 0.0371,0.025 0.0114,0.025 -0.009,0 -0.022,-0.008 -0.0281,-0.0178 z m 0.0766,-0.0749 c 0.0123,-0.0125 0.0269,-0.0179 0.0325,-0.0125 0.006,0.006 -0.005,0.0157 -0.0223,0.0225 -0.0258,0.0103 -0.0279,0.008 -0.0103,-0.0103 z m 3.9333,-0.13815 c -0.0225,-0.0287 -0.022,-0.0294 0.007,-0.007 0.0174,0.0137 0.0318,0.028 0.0318,0.0318 0,0.0149 -0.0149,0.006 -0.0385,-0.0249 z m -1.95402,-0.0735 c 0,-0.009 0.0121,-0.0273 0.0272,-0.0397 0.0151,-0.0123 0.0272,-0.0169 0.0272,-0.0103 0,0.007 -0.0121,0.0248 -0.0272,0.0398 -0.0151,0.0149 -0.0272,0.0194 -0.0272,0.0103 z m 0.24186,-0.19841 c 0.007,-0.0103 0.002,-0.0234 -0.0114,-0.0285 -0.0163,-0.007 -0.0167,-0.009 -0.002,-0.0103 0.0312,-0.002 0.0462,0.0299 0.0213,0.0454 -0.0126,0.008 -0.0163,0.006 -0.009,-0.007 z"
         id="path143" />
    </g>
  </g>
</svg>
