<?xml version="1.0" encoding="UTF-8" standalone="no"?>
<!-- Created with Inkscape (http://www.inkscape.org/) -->

<svg
   width="41.008999mm"
   height="41.008999mm"
   viewBox="0 0 41.008999 41.009"
   version="1.1"
   id="svg1"
   inkscape:version="1.4.2 (f4327f4, 2025-05-13)"
   sodipodi:docname="229.svg"
   xmlns:inkscape="http://www.inkscape.org/namespaces/inkscape"
   xmlns:sodipodi="http://sodipodi.sourceforge.net/DTD/sodipodi-0.dtd"
   xmlns="http://www.w3.org/2000/svg"
   xmlns:svg="http://www.w3.org/2000/svg">
  <sodipodi:namedview
     id="namedview1"
     pagecolor="#ffffff"
     bordercolor="#000000"
     borderopacity="0.25"
     inkscape:showpageshadow="2"
     inkscape:pageopacity="0.0"
     inkscape:pagecheckerboard="0"
     inkscape:deskcolor="#d1d1d1"
     inkscape:document-units="mm"
     inkscape:zoom="2.0485264"
     inkscape:cx="68.341808"
     inkscape:cy="134.73099"
     inkscape:window-width="1050"
     inkscape:window-height="1081"
     inkscape:window-x="3737"
     inkscape:window-y="0"
     inkscape:window-maximized="0"
     inkscape:current-layer="layer1" />
  <defs
     id="defs1" />
  <g
     inkscape:label="Layer 1"
     inkscape:groupmode="layer"
     id="layer1"
     transform="translate(-114.0891,-77.774176)">
    <g
       id="g163"
       transform="translate(-387.85733,352.19222)">
      <ellipse
         style="fill:none;stroke:#ff00ff;stroke-width:0.1;stroke-dasharray:none;stroke-opacity:1"
         id="path1138-9-4-0-0-1-2-6-7-2-6-6-394-3-6-3"
         cx="522.45093"
         cy="-253.91354"
         rx="18.492125"
         ry="18.492126" />
      <circle
         style="fill:none;stroke:#ff0000;stroke-width:0.1;stroke-dasharray:none"
         id="path788-8-1-8-1-9-2-56-8-1-7-71-3-2-0-7"
         cx="522.45093"
         cy="-253.91354"
         r="19.954653" />
      <circle
         style="fill:none;stroke:#0000ff;stroke-width:0.1;stroke-linecap:round;stroke-dasharray:none;stroke-opacity:1;paint-order:markers stroke fill"
         id="path13019-1-33-6-2-4-0-0-76-9-5-2"
         cx="522.45093"
         cy="-268.9245"
         r="2" />
      <path
         style="fill:#000000;stroke-width:0.130397"
         d="m 519.91409,-238.14936 c -2.16258,-0.11822 -3.3948,-0.4972 -4.17591,-1.28432 -0.60596,-0.61059 -1.00338,-1.59104 -1.18719,-2.9287 -0.0296,-0.21412 -0.0535,-0.39466 -0.0535,-0.40119 0,-0.007 -0.0502,-0.0315 -0.11209,-0.0555 -0.0617,-0.024 -0.35277,-0.16339 -0.64692,-0.30972 -0.56591,-0.28157 -1.04794,-0.57463 -1.50128,-0.91278 -0.35049,-0.26144 -1.11992,-1.0272 -1.37084,-1.36427 -1.02395,-1.37553 -1.48257,-3.30818 -1.42877,-6.02038 0.0328,-1.65534 0.28189,-3.00267 0.80663,-4.36434 0.74966,-1.94532 1.97454,-3.69255 3.5711,-5.0941 0.40456,-0.35514 0.67525,-0.57909 0.8069,-0.66753 0.0423,-0.0285 0.19855,-0.13779 0.34705,-0.24296 1.62537,-1.15098 3.73187,-1.93588 5.87637,-2.18958 0.66315,-0.0784 2.00318,-0.10511 2.72991,-0.0543 1.37777,0.0963 2.6732,0.35865 3.70174,0.74965 0.41248,0.1568 1.09249,0.46029 1.16125,0.51825 0.0301,0.0253 0.0672,0.0459 0.0829,0.0459 0.0964,0 1.00445,0.58098 1.49975,0.95953 0.86682,0.66251 1.84041,1.69112 2.60222,2.7493 0.16394,0.22771 0.31017,0.42954 0.32497,0.44851 0.0148,0.019 0.0962,0.1418 0.18085,0.27294 0.94763,1.46766 1.59952,2.89355 1.98093,4.33291 0.28702,1.08331 0.38157,1.94436 0.35366,3.22136 -0.0269,1.23545 -0.14586,2.13744 -0.40059,3.04085 -0.23227,0.82396 -0.70606,1.72701 -1.23962,2.36298 -0.58536,0.69763 -1.49922,1.44687 -2.33444,1.91387 -0.26916,0.15048 -0.8988,0.46527 -1.09038,0.54512 l -0.12435,0.0519 -0.0248,0.4955 c -0.0795,1.57242 -0.51538,2.4785 -1.52035,3.16038 -0.79522,0.53956 -2.42302,0.87968 -4.83007,1.00921 -0.55264,0.0297 -3.49637,0.0383 -3.98485,0.0116 z m 5.60636,-1.12693 c 1.54942,-0.17271 2.35204,-0.39909 3.01957,-0.85168 0.28586,-0.19383 0.43711,-0.36658 0.58837,-0.67206 0.24294,-0.49067 0.38035,-1.23176 0.42871,-2.31155 0.0259,-0.57527 -0.0127,-0.88406 -0.15649,-1.25689 -0.0892,-0.23119 -0.14243,-0.30927 -0.36186,-0.53014 -0.40973,-0.41235 -0.88812,-0.69984 -2.05201,-1.23304 -1.15173,-0.52764 -1.78058,-0.68333 -3.06011,-0.75763 -1.15231,-0.0669 -2.83518,-0.0275 -3.7538,0.0878 -1.31424,0.16505 -2.28454,0.4593 -3.51909,1.06723 -0.62933,0.30992 -1.07918,0.60209 -1.36916,0.88927 -0.36228,0.35883 -0.35947,0.3481 -0.30916,1.17062 0.0657,1.07478 0.20177,1.78639 0.45651,2.38749 0.12747,0.30077 0.34494,0.67267 0.49006,0.83796 0.5286,0.602 1.75273,1.00055 3.57808,1.16496 0.8942,0.0805 0.84045,0.0794 3.27758,0.0701 1.77218,-0.007 2.36403,-0.0202 2.7428,-0.0625 z m -6.1942,-2.08217 c -0.13228,-0.11128 -0.21425,-0.29206 -0.28803,-0.635 -0.12245,-0.56929 -0.16029,-1.62518 -0.0895,-2.49815 0.08,-0.98732 0.27714,-1.39702 0.67213,-1.39702 0.19781,0 0.33902,0.10051 0.44398,0.31595 0.33993,0.69781 0.33358,3.35207 -0.01,4.02478 -0.10623,0.20822 -0.22049,0.28211 -0.43637,0.28211 -0.14761,0 -0.20347,-0.0177 -0.29257,-0.0927 z m 5.59669,0.038 c -0.29775,-0.20854 -0.45492,-0.99956 -0.45466,-2.28772 0,-1.22543 0.16685,-2.03512 0.45471,-2.21063 0.19623,-0.11963 0.4423,-0.0855 0.58948,0.0817 0.25647,0.29138 0.40117,1.29979 0.35694,2.48761 -0.0433,1.15715 -0.16494,1.70959 -0.42163,1.91153 -0.11426,0.0899 -0.40757,0.0997 -0.52484,0.0175 z m 9.19855,-7.37692 c 0.61997,-0.32256 0.86403,-2.01978 0.55523,-3.86063 -0.2866,-1.70822 -1.05011,-3.61139 -1.88892,-4.70839 -0.22287,-0.29143 -0.31276,-0.37776 -0.55063,-0.52863 -0.28824,-0.18279 -0.50244,-0.10192 -0.67747,0.25576 -0.14761,0.30174 -0.19755,0.65434 -0.19887,1.4037 -0.005,2.47776 1.06109,6.13615 2.09556,7.19573 0.26609,0.27254 0.46671,0.34568 0.6651,0.24246 z m -22.89131,-0.37784 c 0.22619,-0.14596 0.35018,-0.28415 0.61505,-0.68554 0.19332,-0.29296 0.56929,-1.01491 0.67932,-1.30448 0.0248,-0.0657 0.0681,-0.17134 0.0958,-0.23472 0.0749,-0.1713 0.33902,-0.91453 0.43716,-1.23028 0.46349,-1.4909 0.71732,-2.93252 0.71732,-4.07339 0,-1.278 -0.29764,-1.75141 -0.90704,-1.44261 -0.24031,0.12176 -0.43965,0.29299 -0.67811,0.58239 -0.20949,0.2542 -0.54254,0.73453 -0.58028,0.83676 -0.0122,0.0331 -0.0553,0.1146 -0.0957,0.18102 -0.15986,0.2626 -0.48478,1.04192 -0.65987,1.58268 -0.47749,1.47467 -0.6975,3.30138 -0.5491,4.55866 0.081,0.68585 0.17145,0.97149 0.38104,1.20351 0.16558,0.18328 0.29136,0.18928 0.5444,0.026 z m 12.36414,-0.76212 c 0.6688,-0.13937 1.13023,-0.3054 1.75363,-0.63094 1.49346,-0.7799 2.66617,-2.28487 3.10043,-3.97881 0.13101,-0.51093 0.17208,-0.87928 0.17102,-1.53322 0,-0.77889 -0.0726,-1.24648 -0.28903,-1.89515 -0.75204,-2.25407 -2.56402,-3.82042 -4.91584,-4.2495 -0.52162,-0.0952 -1.59302,-0.0885 -2.10317,0.0132 -0.69713,0.13885 -1.15575,0.29397 -1.7363,0.58722 -1.48357,0.74946 -2.58927,2.0431 -3.11692,3.64675 -0.40868,1.24222 -0.39779,2.70178 0.0296,3.92888 0.1271,0.36521 0.42221,0.98831 0.6057,1.27905 0.3617,0.57296 1.02056,1.29669 1.52712,1.67734 0.79548,0.59777 1.67769,0.98458 2.66596,1.16889 0.51739,0.0965 0.56987,0.10007 1.26715,0.0862 0.49657,-0.01 0.70511,-0.0299 1.04092,-0.0999 z"
         id="path144" />
    </g>
  </g>
</svg>
