<?xml version="1.0" encoding="UTF-8" standalone="no"?>
<!-- Created with Inkscape (http://www.inkscape.org/) -->

<svg
   width="41.008999mm"
   height="41.008999mm"
   viewBox="0 0 41.008999 41.009"
   version="1.1"
   id="svg1"
   inkscape:version="1.4.2 (f4327f4, 2025-05-13)"
   sodipodi:docname="230.svg"
   xmlns:inkscape="http://www.inkscape.org/namespaces/inkscape"
   xmlns:sodipodi="http://sodipodi.sourceforge.net/DTD/sodipodi-0.dtd"
   xmlns="http://www.w3.org/2000/svg"
   xmlns:svg="http://www.w3.org/2000/svg">
  <sodipodi:namedview
     id="namedview1"
     pagecolor="#ffffff"
     bordercolor="#000000"
     borderopacity="0.25"
     inkscape:showpageshadow="2"
     inkscape:pageopacity="0.0"
     inkscape:pagecheckerboard="0"
     inkscape:deskcolor="#d1d1d1"
     inkscape:document-units="mm"
     inkscape:zoom="2.0485264"
     inkscape:cx="68.341808"
     inkscape:cy="134.73099"
     inkscape:window-width="1050"
     inkscape:window-height="1081"
     inkscape:window-x="3737"
     inkscape:window-y="0"
     inkscape:window-maximized="0"
     inkscape:current-layer="layer1" />
  <defs
     id="defs1" />
  <g
     inkscape:label="Layer 1"
     inkscape:groupmode="layer"
     id="layer1"
     transform="translate(-114.0891,-77.774176)">
    <g
       id="g164"
       transform="translate(-219.05771,302.76824)">
      <circle
         style="fill:none;stroke:#ff0000;stroke-width:0.1;stroke-dasharray:none"
         id="path788-8-1-8-1-9-2-1-4-2-2-4-5-1-2-3"
         cx="353.65131"
         cy="-204.48956"
         r="19.954653" />
      <ellipse
         style="fill:none;stroke:#ff00ff;stroke-width:0.1;stroke-dasharray:none;stroke-opacity:1"
         id="path1138-9-4-0-0-1-2-6-7-2-6-6-394-3-67-8"
         cx="353.65131"
         cy="-204.48956"
         rx="18.492125"
         ry="18.492126" />
      <circle
         style="fill:none;stroke:#0000ff;stroke-width:0.1;stroke-linecap:round;stroke-dasharray:none;stroke-opacity:1;paint-order:markers stroke fill"
         id="path13019-1-33-7-4-6-7-2-0-9-7-3"
         cx="353.65131"
         cy="-219.50055"
         r="2" />
      <path
         style="fill:#000000;stroke-width:0.0558064"
         d="m 350.29047,-186.87265 c -0.62348,-0.0342 -0.8547,-0.0765 -2.01548,-0.36959 -0.93791,-0.23676 -0.97185,-0.2462 -1.12831,-0.31386 -0.26596,-0.11496 -0.5555,-0.36804 -0.69804,-0.61014 -0.0633,-0.10738 -0.0681,-0.12272 -0.0573,-0.17613 0.006,-0.0323 0.0202,-0.10681 0.0301,-0.16605 l 0.0175,-0.10739 0.14255,-0.11497 c 0.80686,-0.65028 1.96892,-1.36136 2.53457,-1.55092 0.69685,-0.23351 1.31349,-0.29016 1.9586,-0.17983 0.24844,0.0425 0.84934,0.12507 1.20855,0.16605 0.10911,0.0116 0.35714,0.0194 0.69399,0.0194 0.44741,0 0.54257,-0.004 0.64967,-0.0265 0.19822,-0.0418 0.38323,-0.10853 0.5256,-0.18953 0.21352,-0.12159 0.72421,-0.46809 0.77491,-0.52582 0.15342,-0.17459 0.0976,-0.37031 -0.18797,-0.66087 -0.093,-0.0946 -0.15906,-0.1911 -0.21455,-0.31354 -0.0362,-0.0798 -0.0505,-0.14622 -0.0788,-0.36675 -0.0363,-0.28215 -0.0543,-0.36889 -0.0919,-0.44141 -0.0675,-0.1307 -0.25164,-0.23166 -0.43871,-0.24065 -0.13459,-0.006 -0.47188,0.0542 -0.67986,0.12234 -0.15653,0.0513 -0.36176,0.14818 -0.36176,0.1709 0,0.0353 0.0926,0.16176 0.17128,0.23358 0.16139,0.14759 0.34081,0.1775 0.64083,0.10681 0.10152,-0.0239 0.1874,-0.0408 0.1909,-0.0375 0.004,0.004 0.009,0.06 0.0155,0.12603 0.009,0.11983 0.009,0.11983 -0.0447,0.15362 -0.0818,0.0517 -0.44358,0.23032 -0.63377,0.31301 -0.35975,0.15634 -0.62154,0.21587 -0.94497,0.21473 -0.22984,-8e-4 -0.40392,-0.038 -0.59239,-0.12662 -0.17342,-0.0815 -0.17148,-0.0786 -0.12332,-0.17381 0.0525,-0.10348 0.21083,-0.26709 0.32411,-0.3348 0.0489,-0.0292 0.0914,-0.0551 0.0947,-0.0579 0.009,-0.008 -0.11393,-0.30973 -0.17612,-0.43343 -0.0576,-0.11473 -0.10314,-0.167 -0.1915,-0.21991 -0.0562,-0.0338 -0.15982,-0.0413 -0.20864,-0.0155 -0.0377,0.0203 -0.13361,0.16992 -0.23564,0.36808 -0.0438,0.0852 -0.0818,0.15808 -0.0841,0.16177 -0.009,0.0156 -0.11613,-0.0553 -0.18138,-0.12001 -0.22428,-0.22182 -0.27572,-0.72417 -0.11106,-1.08391 0.0846,-0.18468 0.27272,-0.4008 0.44247,-0.50825 0.0449,-0.0284 0.0819,-0.0562 0.0823,-0.0619 0.002,-0.0281 -0.19186,-0.9487 -0.2018,-0.95854 -0.006,-0.006 -0.1711,-0.0874 -0.36593,-0.18003 l -0.35438,-0.16857 -0.11072,0.11279 c -0.18702,0.19051 -0.43709,0.37027 -0.51533,0.37027 -0.0427,0 -0.052,-0.0237 -0.061,-0.15575 -0.006,-0.0835 -0.0175,-0.13614 -0.041,-0.17712 -0.0866,-0.15458 -0.0971,-0.18876 -0.10624,-0.34631 -0.006,-0.0998 -0.0175,-0.17129 -0.0329,-0.20046 -0.0636,-0.11962 -0.25229,-0.23032 -0.43942,-0.25756 -0.061,-0.009 -0.11983,-0.0194 -0.1309,-0.0229 -0.0323,-0.0118 0.004,-0.0431 0.0745,-0.0664 0.0809,-0.0267 0.17458,-0.11516 0.17458,-0.16507 0,-0.11983 -0.3849,-1.18382 -0.48579,-1.34292 -0.0447,-0.0703 -0.14506,-0.15342 -0.27461,-0.22742 -0.26841,-0.15303 -0.40633,-0.47044 -0.40695,-0.93634 0,-0.36502 0.056,-0.51316 0.38221,-1.00404 0.20398,-0.30694 0.3351,-0.47393 0.4506,-0.57383 0.0889,-0.077 0.15496,-0.11107 0.27549,-0.14236 0.21479,-0.0557 0.27285,-0.11439 0.37477,-0.37932 0.0303,-0.0786 0.0717,-0.1676 0.0919,-0.1974 0.0202,-0.0299 0.0338,-0.0573 0.0301,-0.061 -0.0155,-0.0155 -0.18371,0.0276 -0.26737,0.067 -0.0489,0.023 -0.18217,0.0981 -0.29587,0.16662 -0.56572,0.34134 -0.7834,0.49767 -0.91362,0.65616 -0.19012,0.23148 -0.39329,0.60671 -0.49498,0.91446 -0.0676,0.20462 -0.1445,0.56753 -0.15808,0.74723 -0.0267,0.3524 0.13282,0.68866 0.4481,0.9443 0.0567,0.0461 0.0657,0.0624 0.094,0.17517 0.0411,0.16312 0.0334,0.32893 -0.0229,0.4958 -0.05,0.1476 -0.0431,0.22889 0.032,0.37901 0.0612,0.12236 0.24721,0.31942 0.40281,0.42676 0.0808,0.0557 0.0967,0.0737 0.10062,0.11416 0.004,0.0439 0,0.0503 -0.059,0.076 -0.0352,0.0155 -0.0903,0.0328 -0.12273,0.0385 -0.0449,0.008 -0.1507,0.0779 -0.43803,0.28909 -0.20845,0.15323 -0.38806,0.282 -0.39919,0.28627 -0.0136,0.006 -0.0261,-0.0136 -0.039,-0.0627 -0.0587,-0.22017 -0.21319,-0.42563 -0.38317,-0.50932 -0.0857,-0.0422 -0.11221,-0.0481 -0.21748,-0.0484 -0.10681,-1.6e-4 -0.12663,0.004 -0.18236,0.0411 -0.12022,0.0795 -0.17905,0.21926 -0.17905,0.42496 0,0.21123 0.10038,0.39509 0.43343,0.79316 0.24777,0.29622 0.60534,0.49419 1.00388,0.55586 0.21656,0.0334 0.50205,0.0427 0.71281,0.023 l 0.19013,-0.0175 0.12545,-0.12215 c 0.0689,-0.0672 0.18314,-0.15963 0.25355,-0.20545 0.34995,-0.22772 0.59873,-0.27745 0.89334,-0.17847 l 0.11186,0.0375 0.12002,-0.0509 c 0.15457,-0.0657 0.26384,-0.0871 0.43742,-0.0865 0.22703,9.3e-4 0.31189,0.0506 0.2896,0.16935 -0.006,0.0293 -0.0217,0.068 -0.0362,0.0857 -0.0261,0.0323 -0.0261,0.0323 -0.14196,0.006 -0.20796,-0.0462 -0.41379,-0.0116 -0.57997,0.0947 -0.16953,0.10957 -0.40118,0.42366 -0.50761,0.68818 -0.11083,0.27544 -0.19051,0.69596 -0.19051,1.00632 0,0.22525 0.021,0.3513 0.0967,0.57875 0.13749,0.41414 0.35468,0.64279 0.70312,0.74033 0.15575,0.0436 0.44983,0.068 0.61499,0.0509 0.11473,-0.0116 0.13497,-0.009 0.14002,0.008 0.0175,0.067 0.0748,0.44267 0.0684,0.44902 -0.004,0.004 -0.0505,-0.006 -0.10291,-0.0222 -0.13089,-0.0408 -0.31425,-0.0804 -0.51614,-0.11164 -0.23561,-0.0365 -0.75321,-0.0365 -0.98665,-2.7e-4 -0.48781,0.076 -0.93243,0.24895 -1.33153,0.51845 l -0.18448,0.12468 -0.004,-0.20217 c -0.008,-0.37246 0.0405,-0.92159 0.12195,-1.36229 0.10509,-0.56839 0.32237,-1.26836 0.55996,-1.80318 0.0458,-0.10314 0.0833,-0.19012 0.0833,-0.19344 0,-0.004 -0.0528,0.0118 -0.11749,0.0355 -0.20003,0.0709 -0.34916,0.0919 -0.58383,0.0823 -0.36299,-0.0155 -0.66216,-0.11982 -1.02617,-0.36031 -0.49526,-0.32732 -0.76058,-0.65645 -0.84246,-1.04506 -0.0261,-0.1235 -0.0229,-0.349 0.006,-0.47154 0.0565,-0.23496 0.19425,-0.41727 0.38706,-0.51221 0.0922,-0.0455 0.11289,-0.0498 0.23436,-0.0498 0.1171,0 0.14391,0.006 0.22184,0.0431 0.12312,0.0599 0.30959,0.2492 0.37534,0.38105 0.0301,0.0604 0.056,0.0956 0.066,0.0897 0.0719,-0.0422 0.44733,-0.27666 0.45722,-0.28552 0.008,-0.006 -0.0194,-0.0631 -0.0574,-0.12623 -0.0841,-0.13846 -0.19876,-0.38915 -0.24158,-0.52801 -0.0587,-0.19012 -0.0313,-0.4126 0.0703,-0.57267 l 0.0436,-0.0685 -0.0952,-0.0823 c -0.43715,-0.37785 -0.62214,-0.85468 -0.54505,-1.40489 0.038,-0.27137 0.0908,-0.5189 0.14797,-0.69587 0.0677,-0.20871 0.21798,-0.50822 0.34349,-0.68457 0.10911,-0.15341 0.35882,-0.41352 0.4984,-0.51928 0.51102,-0.38728 1.09797,-0.62382 1.72269,-0.69427 0.1577,-0.0175 0.1577,-0.0175 0.23626,-0.0895 0.12197,-0.1113 0.24419,-0.20334 0.37179,-0.28004 0.0643,-0.0386 0.10761,-0.0731 0.0963,-0.0764 -0.62088,-0.18819 -0.98151,-0.33741 -1.41572,-0.58609 -0.80098,-0.4588 -1.53113,-1.15332 -2.06062,-1.96005 -0.11613,-0.17711 -0.11788,-0.17886 -0.18371,-0.18857 -0.0905,-0.0136 -0.26921,-0.0742 -0.37654,-0.12759 -0.16624,-0.0829 -0.3876,-0.24771 -0.62569,-0.46591 l -0.13847,-0.1268 0.009,-0.11152 c 0.009,-0.12508 0.0556,-0.31761 0.0891,-0.3826 0.0363,-0.0703 0.0973,-0.13458 0.15594,-0.16449 0.0657,-0.0334 0.35933,-0.11302 0.46931,-0.12701 0.0427,-0.006 0.0807,-0.0136 0.084,-0.0196 0.004,-0.006 -0.009,-0.0593 -0.0303,-0.11982 -0.2964,-0.89594 -0.51818,-1.90614 -0.56712,-2.58331 -0.0204,-0.2841 -0.0155,-0.82553 0.008,-1.0188 0.0486,-0.38604 0.18799,-0.86964 0.33271,-1.1534 0.0293,-0.0574 0.0293,-0.0574 -0.0455,-0.28259 -0.13497,-0.40631 -0.23155,-0.84541 -0.28338,-1.28822 -0.0261,-0.22217 -0.0258,-1.20879 0,-1.44701 0.04,-0.36466 0.10015,-0.57281 0.19382,-0.66912 0.0499,-0.0514 0.07,-0.061 0.16546,-0.0779 0.16875,-0.0299 0.86186,-0.0258 1.07064,0.006 0.53056,0.0813 1.31014,0.38926 1.96857,0.77749 0.0415,0.0244 0.0815,0.0444 0.0889,0.0444 0.008,0 0.12836,-0.0708 0.26883,-0.15691 1.51688,-0.93228 3.21891,-1.5708 4.87289,-1.82813 1.31802,-0.20501 2.54782,-0.19756 3.75441,0.0228 0.64862,0.11847 1.36389,0.28439 1.688,0.39159 0.59907,0.19812 1.18062,0.4901 1.69328,0.85013 0.45277,0.31802 0.86944,0.65385 1.14984,0.92678 0.32805,0.31937 0.49265,0.54101 0.65256,0.87852 0.0739,0.15614 0.16877,0.40411 0.16877,0.44152 0,0.0136 -0.077,0.0155 -0.32257,0.0117 -1.00757,-0.0194 -1.94704,0.2019 -2.84461,0.66815 -0.39743,0.20643 -0.62692,0.35934 -1.07366,0.71535 -0.27812,0.22166 -0.28516,0.22861 -0.3015,0.29845 l -0.0175,0.0714 0.0832,0.0229 c 0.19186,0.0526 0.82298,0.2666 1.02817,0.3485 0.12176,0.0486 0.33515,0.14371 0.47406,0.2115 0.89905,0.4383 1.59558,0.98636 2.13629,1.68098 0.2957,0.37992 0.53205,0.79581 0.81199,1.42913 0.24983,0.56511 0.34474,1.05689 0.30528,1.58147 -0.0136,0.18254 -0.0357,0.34935 -0.0476,0.36125 -0.002,0.002 -0.0902,-0.0194 -0.19555,-0.047 -0.24702,-0.0655 -0.51224,-0.1169 -0.8102,-0.15769 -0.22171,-0.0303 -0.29493,-0.0326 -1.07447,-0.0328 l -0.83656,-2.6e-4 -0.0857,0.0959 c -0.0472,0.0528 -0.2188,0.22887 -0.38159,0.39128 -0.211,0.2105 -0.31931,0.30757 -0.37717,0.338 -0.22198,0.11671 -0.22563,0.14079 -0.048,0.31707 0.071,0.0705 0.16177,0.17128 0.20158,0.22379 0.19811,0.26179 0.26864,0.58239 0.20894,0.95001 l -0.0214,0.1309 0.0472,0.0379 c 0.0983,0.0788 0.27433,0.2662 0.36367,0.38683 0.12952,0.17497 0.2469,0.37684 0.39952,0.68754 0.16508,0.336 0.25922,0.56486 0.36055,0.87649 0.17537,0.53953 0.26334,1.09532 0.28394,1.79529 0.009,0.31652 -0.009,0.49971 -0.0761,0.69752 -0.0405,0.12273 -0.16255,0.37822 -0.19226,0.40288 -0.0135,0.0116 -0.0505,-0.0118 -0.13497,-0.0795 -0.31201,-0.25192 -0.90604,-0.66649 -1.22648,-0.85595 -0.35873,-0.21209 -0.60062,-0.31288 -0.92851,-0.38678 -0.15283,-0.0343 -0.19845,-0.0387 -0.35267,-0.0328 -0.15089,0.006 -0.20898,0.0155 -0.39126,0.0678 -0.11769,0.0337 -0.22416,0.0612 -0.23648,0.0612 -0.0118,10e-6 -0.0475,0.0135 -0.0779,0.0299 -0.0509,0.0272 -0.0961,0.0362 -0.35447,0.0697 l -0.0857,0.0118 0.0862,0.13282 c 0.17187,0.26485 0.33127,0.58014 0.45136,0.89332 0.17459,0.45544 0.22094,0.6879 0.22205,1.11477 0,0.30792 -0.0136,0.44055 -0.0874,0.85641 -0.0336,0.1874 -0.10738,0.52476 -0.11749,0.53619 -0.002,0.002 -0.0632,-0.0539 -0.13535,-0.12565 -0.29626,-0.29375 -0.60323,-0.47863 -1.17847,-0.70979 -0.53651,-0.21557 -0.94185,-0.30548 -1.45997,-0.32376 l -0.26391,-0.009 -0.0757,0.0809 c -0.4204,0.44954 -0.662,0.73182 -0.65297,0.76283 0.004,0.0135 0.0346,0.13245 0.0678,0.26401 0.10152,0.40091 0.22178,0.74496 0.51986,1.48828 0.31122,0.77608 0.56851,1.19368 1.13166,1.8367 l 0.079,0.0902 -0.0643,-1.1e-4 c -0.0353,-6e-5 -0.11866,-0.0135 -0.18546,-0.0291 -0.40096,-0.0961 -0.58154,-0.24768 -1.07481,-0.90206 -0.67055,-0.88951 -0.85022,-1.15646 -1.26144,-1.87411 l -0.10589,-0.18449 0.0116,0.10325 c 0.006,0.057 0.0116,0.21633 0.009,0.35439 -0.002,0.2102 -0.008,0.28182 -0.041,0.44056 -0.0425,0.20555 -0.13555,0.50015 -0.19603,0.62078 -0.0956,0.19089 -0.2493,0.38529 -0.42582,0.53825 -0.0503,0.0437 -0.0631,0.061 -0.0404,0.0542 0.15866,-0.0458 0.3977,-0.0984 0.50842,-0.1121 0.36128,-0.0438 0.75353,0.12216 0.90985,0.38504 0.0388,0.0652 0.0396,0.0709 0.04,0.33222 0,0.25213 0.002,0.27187 0.0418,0.38391 0.0594,0.17071 0.11209,0.24828 0.27444,0.40604 0.11267,0.10934 0.1546,0.16177 0.19052,0.23766 0.10933,0.23144 0.0994,0.40087 -0.038,0.64952 -0.002,0.004 0.0425,0.0579 0.10014,0.11808 0.33239,0.34647 0.54364,0.7579 0.62847,1.22407 0.0331,0.18157 0.0382,0.54673 0.009,0.75324 -0.0637,0.47719 -0.25405,0.97419 -0.52277,1.36414 -0.17401,0.2525 -0.16041,0.24199 -0.38582,0.29904 -0.57256,0.14487 -1.25204,0.2467 -1.85031,0.27728 -0.26694,0.0135 -2.66438,0.0208 -2.88664,0.008 z m 2.1225,-0.88107 0.22518,-0.009 v -0.11962 c 0,-0.47744 -0.17982,-1.0435 -0.46392,-1.47037 -0.23657,-0.35533 -0.61148,-0.69632 -1.02708,-0.9341 l -0.0664,-0.038 -0.36914,0.0942 c -0.20302,0.0518 -0.37578,0.0945 -0.3839,0.095 -0.008,5.4e-4 0.0284,0.0284 0.0812,0.0619 0.12331,0.0784 0.36771,0.28003 0.47401,0.39092 0.32557,0.33955 0.52967,0.71874 0.64847,1.20462 0.0518,0.21182 0.10291,0.54257 0.10291,0.66684 v 0.087 l 0.27683,-0.009 c 0.15225,-0.006 0.37822,-0.0135 0.50203,-0.0194 z m -3.31597,-0.99981 c 0.41365,-0.099 0.57239,-0.17013 0.72748,-0.32514 0.0788,-0.0788 0.21314,-0.26891 0.19812,-0.28036 -0.0242,-0.0194 -0.21629,-0.087 -0.29324,-0.10463 -0.13672,-0.0313 -0.20787,-0.0281 -0.46182,0.021 -0.1235,0.0239 -0.3045,0.0573 -0.40195,0.0739 -0.22328,0.0385 -0.3514,0.0669 -0.43383,0.0959 -0.0686,0.0242 -0.21723,0.12001 -0.286,0.1843 l -0.0411,0.0385 0.0425,0.0672 c 0.0773,0.12196 0.20209,0.22273 0.33965,0.27438 0.0934,0.035 0.35701,0.0155 0.61021,-0.0451 z m 3.38621,-5.02941 c 0.14816,-0.11769 0.3726,-0.35999 0.47122,-0.50853 0.0977,-0.14721 0.11865,-0.20849 0.11905,-0.34782 0,-0.15419 -0.0349,-0.23431 -0.14974,-0.33911 l -0.0765,-0.0699 -0.34392,0.0576 c -0.18915,0.0317 -0.34645,0.0601 -0.34959,0.0633 -0.004,0.004 0.0379,0.20715 0.0913,0.45336 0.13964,0.64529 0.1608,0.73562 0.17226,0.73562 0.006,0 0.0353,-0.02 0.066,-0.0443 z m -1.79886,-2.30432 c 0.24452,-0.0332 0.47019,-0.10912 0.63229,-0.21263 0.0405,-0.026 0.1373,-0.0967 0.21492,-0.1575 0.17322,-0.13535 0.34004,-0.22228 0.61935,-0.32254 0.81758,-0.29345 1.56112,-0.85144 1.72795,-1.29672 0.0771,-0.20568 0.11555,-0.46866 0.12701,-0.86684 0.008,-0.28054 0.008,-0.28054 -0.0528,-0.54631 -0.0924,-0.40371 -0.16292,-0.59316 -0.32056,-0.86092 -0.24501,-0.41633 -0.55467,-0.68586 -1.17895,-1.02606 -0.48372,-0.26359 -0.81544,-0.36472 -1.19599,-0.36458 -0.27668,1.1e-4 -0.45534,0.0447 -0.66985,0.16682 -0.0619,0.0353 -0.15925,0.0832 -0.21607,0.10623 -0.26052,0.10601 -0.72406,0.5105 -0.92009,0.80298 -0.1674,0.24989 -0.31283,0.59947 -0.3633,0.87378 -0.0287,0.15614 -0.0924,0.7086 -0.10532,0.91449 -0.009,0.16915 0.006,0.31785 0.0537,0.51412 l 0.0304,0.12273 -0.0781,0.1208 c -0.0429,0.0664 -0.08,0.12351 -0.0823,0.12699 -0.0116,0.0155 -0.0255,-0.0233 -0.0579,-0.1569 -0.0789,-0.32617 -0.0983,-0.63724 -0.0571,-0.91235 0.0369,-0.24637 0.12662,-0.71729 0.15478,-0.81176 0.0382,-0.12932 0.0419,-0.1501 0.0298,-0.16992 -0.0175,-0.0298 -0.0952,0.0205 -0.23242,0.15226 -0.15341,0.1472 -0.23518,0.25938 -0.32074,0.44025 -0.15206,0.32137 -0.20832,0.67927 -0.14157,0.90039 0.0476,0.15769 0.10899,0.25579 0.24419,0.39003 0.0938,0.0933 0.14643,0.13186 0.24442,0.17925 0.0686,0.0332 0.13535,0.0638 0.14817,0.0681 0.0155,0.004 0.0525,0.0919 0.10176,0.23424 0.17341,0.50154 0.28181,0.73781 0.47124,1.02601 0.22055,0.33555 0.41844,0.52385 0.58909,0.56052 0.10623,0.0229 0.45157,0.0256 0.60386,0.006 z m 4.83604,-1.98623 c 0.26268,-0.0666 0.53419,-0.26754 0.69286,-0.51286 l 0.0556,-0.0858 -0.13477,-0.1872 c -0.16061,-0.22314 -0.30662,-0.44351 -0.30662,-0.46257 0,-0.008 0.0414,0.0135 0.0919,0.0486 0.13399,0.0911 0.52955,0.28756 0.66443,0.33017 0.25917,0.0821 0.50463,0.0241 0.76573,-0.18021 l 0.10623,-0.0832 -0.0944,-0.0318 c -0.13769,-0.0464 -0.24974,-0.10015 -0.35042,-0.16877 -0.10175,-0.0691 -0.26166,-0.21318 -0.28501,-0.2568 -0.0135,-0.0258 -0.0116,-0.0286 0.0155,-0.0214 0.0362,0.009 0.0385,0.0136 -0.065,-0.13031 -0.0826,-0.11516 -0.22832,-0.38705 -0.24224,-0.45201 -0.006,-0.0298 -0.0862,-0.10141 -0.31855,-0.28602 -0.17051,-0.13554 -0.31847,-0.24966 -0.3287,-0.25365 -0.0284,-0.0116 -0.13924,0.0872 -0.20356,0.18062 l -0.0574,0.0835 -0.0251,-0.10083 c -0.0376,-0.15246 -0.08,-0.25488 -0.16177,-0.39085 -0.13594,-0.22643 -0.252,-0.31517 -0.41225,-0.31526 -0.11382,-8e-5 -0.17575,0.0266 -0.28051,0.12079 -0.0677,0.0608 -0.1773,0.24245 -0.1773,0.29378 0,0.009 -0.009,0.0255 -0.0237,0.0327 -0.021,0.0116 -0.0155,0.0481 0.0509,0.32927 0.041,0.17381 0.0917,0.3925 0.11302,0.48589 0.0573,0.25194 0.0661,0.28054 0.0858,0.28054 0.0261,0 0.27878,1.13516 0.34193,1.53561 0.0343,0.2175 0.0349,0.21874 0.12895,0.2255 0.11359,0.008 0.25784,-0.004 0.35434,-0.0274 z m -0.26876,-0.81666 c 0,-0.0284 0.0664,-0.22569 0.14448,-0.42976 0.0764,-0.19928 0.082,-0.2228 0.082,-0.33961 -6e-5,-0.0843 -0.008,-0.14429 -0.0247,-0.18275 -0.0324,-0.0753 -0.0318,-0.0786 0.0194,-0.10486 0.16585,-0.0857 0.37754,0.0959 0.39491,0.33897 0.008,0.11613 -0.0194,0.16003 -0.1608,0.25601 -0.14137,0.0959 -0.2468,0.20364 -0.34582,0.35333 -0.0724,0.10957 -0.1091,0.14604 -0.1091,0.10853 z m 3.00245,-0.60777 c 0.29823,-0.0604 0.87726,-0.2758 1.13729,-0.42315 0.30748,-0.1742 0.69336,-0.49635 0.82433,-0.68819 0.27916,-0.40875 0.24886,-0.89301 -0.0765,-1.22243 -0.12875,-0.13031 -0.25538,-0.19864 -0.45795,-0.2468 -0.51579,-0.12274 -0.89968,-0.0784 -1.37072,0.15865 -0.13672,0.0688 -0.26554,0.15517 -0.47022,0.31558 -0.14215,0.11141 -0.14953,0.11983 -0.13574,0.15575 0.0328,0.0864 0.12293,0.2392 0.2129,0.36096 0.18333,0.24826 0.34426,0.30728 0.71202,0.26116 0.19207,-0.0241 0.36291,-0.0807 0.60245,-0.19933 0.12235,-0.0607 0.22747,-0.11026 0.23355,-0.11026 0.006,0 0.008,0.0116 0.004,0.0258 -0.004,0.0135 -0.0116,0.0771 -0.0175,0.13964 l -0.009,0.11382 -0.15012,0.0579 c -0.33069,0.1274 -0.60864,0.20247 -0.82573,0.22296 -0.31816,0.0301 -0.51775,-0.0311 -0.68497,-0.20983 -0.20575,-0.21998 -0.2883,-0.49373 -0.24583,-0.81539 0.0247,-0.1876 0.0175,-0.31208 -0.0279,-0.43264 -0.0175,-0.0462 -0.0328,-0.0862 -0.0351,-0.0889 -0.002,-0.002 -0.12098,0.0324 -0.26374,0.0781 l -0.25967,0.0829 -0.0736,-0.056 c -0.0404,-0.0306 -0.15012,-0.11473 -0.24356,-0.18683 l -0.16993,-0.1309 -0.10566,0.0865 c -0.18644,0.15244 -0.41161,0.43157 -0.51609,0.63946 -0.0419,0.0833 -0.0489,0.11278 -0.0495,0.20791 0,0.10509 0.004,0.1175 0.0703,0.24149 0.20451,0.3763 0.41301,0.61157 0.6403,0.7225 0.0538,0.0262 0.0657,0.0416 0.0938,0.12002 0.0869,0.24304 0.30176,0.55402 0.45152,0.65313 0.0175,0.0118 0.19324,0.0468 0.39131,0.0789 0.1981,0.032 0.41997,0.0711 0.49305,0.0869 0.16992,0.0365 0.14818,0.0365 0.32253,9.2e-4 z m 2.40898,-2.5476 c 0.13107,-0.45156 0.0655,-0.76015 -0.21016,-0.98844 -0.22524,-0.18643 -0.51905,-0.26266 -1.01529,-0.26323 -0.32126,-2.6e-4 -0.58672,0.0582 -0.8406,0.18585 -0.35231,0.17693 -0.65346,0.51823 -0.74079,0.83956 -0.0265,0.0973 -0.0385,0.38465 -0.0175,0.40615 0.006,0.006 0.0261,-0.002 0.0442,-0.0194 0.0534,-0.0491 0.27794,-0.18876 0.41085,-0.25566 0.17226,-0.0866 0.43097,-0.18566 0.58467,-0.22372 0.15479,-0.0385 0.50011,-0.0461 0.64706,-0.0135 0.34725,0.075 0.72155,0.26524 0.95116,0.48371 l 0.097,0.0924 0.027,-0.0618 c 0.0156,-0.0341 0.0425,-0.11556 0.0615,-0.18119 z m -7.97348,0.0175 c 0.21544,-0.0585 0.5167,-0.12021 0.76026,-0.15575 0.11749,-0.0175 0.21619,-0.0338 0.21928,-0.0367 0.009,-0.009 -0.0449,-0.16062 -0.0964,-0.26375 -0.0278,-0.0556 -0.0486,-0.10313 -0.0458,-0.10566 0.002,-0.002 0.0739,-0.0219 0.15866,-0.0433 0.76615,-0.19323 1.43385,-0.64679 1.83878,-1.24907 0.18332,-0.27277 0.35832,-0.69399 0.39224,-0.94448 0.0415,-0.30754 -0.0645,-0.67098 -0.25791,-0.88306 -0.13789,-0.15108 -0.31872,-0.24231 -0.65791,-0.33175 -0.15284,-0.0404 -0.19265,-0.0449 -0.39865,-0.0456 -0.25528,-9.2e-4 -0.40515,0.023 -0.57391,0.0928 -0.17652,0.0728 -0.21767,0.10589 -0.42449,0.34089 -0.48307,0.54914 -0.86019,0.80299 -1.38262,0.93055 -0.36718,0.0897 -0.61162,0.0908 -1.22544,0.006 -0.58922,-0.081 -0.99712,-0.20527 -1.31243,-0.39967 -0.26591,-0.16389 -0.32412,-0.18818 -0.47115,-0.19512 -0.0722,-0.004 -0.18197,-9.2e-4 -0.24409,0.004 l -0.11279,0.009 0.0514,0.0539 c 0.25197,0.26388 0.30396,0.50359 0.12856,0.59305 -0.19012,0.0972 -0.66708,0.13012 -1.07965,0.0747 -0.20471,-0.0274 -0.48413,-0.0793 -0.5395,-0.0998 -0.0267,-0.009 0,0.0236 0.24571,0.31288 0.18701,0.21989 0.70571,0.73419 0.91602,0.90841 0.47944,0.39706 0.88744,0.66352 1.38057,0.90157 0.4623,0.22316 0.92793,0.3774 1.46777,0.48619 0.37045,0.0747 0.4985,0.0876 0.82088,0.0821 0.26607,-0.004 0.30991,-0.009 0.4427,-0.0449 z m 0.23282,-1.36107 c -0.0619,-0.0135 -0.0335,-0.0309 0.0939,-0.0562 0.33075,-0.0657 0.70183,-0.24377 0.9654,-0.46335 0.16002,-0.13342 0.38918,-0.36737 0.52296,-0.53422 0.12662,-0.15789 0.23009,-0.29932 0.23009,-0.31452 0,-0.004 -0.0514,-0.0247 -0.11439,-0.047 -0.13633,-0.0484 -0.26241,-0.11014 -0.37122,-0.18215 l -0.0796,-0.0526 0.0796,-0.0287 c 0.0562,-0.0203 0.12118,-0.0293 0.2199,-0.0303 0.1301,-9.2e-4 0.15671,0.004 0.36553,0.0714 0.22528,0.0731 0.22528,0.0731 0.26576,0.0437 0.0224,-0.0155 0.0612,-0.0708 0.0862,-0.12137 l 0.0456,-0.0922 0.0528,0.11575 c 0.0926,0.20269 0.12001,0.3347 0.12079,0.58217 0,0.12643 -0.006,0.2229 -0.0136,0.23108 -0.009,0.009 -0.0462,0.008 -0.10015,-0.002 -0.0855,-0.0155 -0.0855,-0.0155 -0.0738,-0.0613 0.0304,-0.11826 -0.0155,-0.27735 -0.0936,-0.32884 -0.0301,-0.0196 -0.035,-0.0155 -0.10957,0.10933 -0.0429,0.0714 -0.11788,0.18313 -0.16682,0.24803 -0.12254,0.16274 -0.39094,0.4273 -0.53675,0.52919 -0.23976,0.1676 -0.57866,0.30239 -0.89629,0.35657 -0.13827,0.0235 -0.43573,0.0404 -0.4923,0.0278 z m 4.46588,1.03705 c 0.002,-9.3e-4 -0.006,-0.0301 -0.0175,-0.0637 -0.0758,-0.22003 -0.0608,-0.42404 0.0593,-0.80898 0.11729,-0.3762 0.30874,-0.66461 0.59242,-0.89282 0.0599,-0.0481 0.12003,-0.0938 0.13399,-0.10153 0.0437,-0.0244 -0.0532,-0.19419 -0.18682,-0.3272 -0.18138,-0.18061 -0.38388,-0.26088 -0.6239,-0.24722 -0.26004,0.0155 -0.4654,0.16429 -0.69468,0.50571 -0.21269,0.31668 -0.29424,0.5312 -0.32239,0.84794 -0.032,0.35992 0.0367,0.66021 0.19012,0.83099 0.15712,0.17478 0.48141,0.28821 0.7636,0.26714 0.0569,-0.004 0.10463,-0.009 0.10647,-0.009 z m 0.26955,-0.13168 c 0.0349,-0.16875 0.14971,-0.34522 0.26108,-0.40187 0.0313,-0.0155 0.0902,-0.0562 0.13069,-0.0894 0.19187,-0.15692 0.49198,-0.33422 0.70855,-0.41888 0.24088,-0.0942 0.4144,-0.12292 0.68679,-0.11416 0.32417,0.009 0.58605,0.0771 0.91363,0.23265 0.0843,0.04 0.15516,0.0728 0.15749,0.0728 0.0136,0 0.0247,-0.10854 0.0239,-0.2216 -0.002,-0.31714 -0.15924,-0.60591 -0.43932,-0.80595 -0.21971,-0.15692 -0.37189,-0.20361 -0.66325,-0.20355 -0.52008,1.1e-4 -0.87443,0.13497 -1.39533,0.53083 -0.28803,0.21892 -0.40709,0.39475 -0.46682,0.68953 -0.0415,0.20554 -0.0136,0.69682 0.0452,0.79198 0.0156,0.0262 0.0203,0.0198 0.0371,-0.0624 z m 1.22852,-2.10125 c 0.13964,-0.0299 0.47694,-0.0357 0.94256,-0.0155 l 0.27317,0.0116 0.11071,-0.12837 c 0.19423,-0.2251 0.5265,-0.54727 1.01215,-0.9814 0.53192,-0.47551 0.67408,-0.59353 0.88399,-0.73384 0.23895,-0.15982 0.33452,-0.27617 0.38463,-0.46859 0.0278,-0.10681 0.029,-0.29909 0.002,-0.39815 -0.0481,-0.17984 -0.18371,-0.35262 -0.34483,-0.4396 -0.11324,-0.061 -0.28464,-0.10038 -0.44718,-0.10268 -0.27292,-0.004 -0.41605,0.0734 -0.84162,0.45421 -0.63305,0.56651 -1.11427,1.11928 -1.61281,1.85262 -0.15321,0.22538 -0.50623,0.78329 -0.59991,0.94814 l -0.048,0.0843 0.0808,-0.0278 c 0.0445,-0.0155 0.13614,-0.0396 0.20381,-0.0542 z m -7.30381,-0.34573 c 0.39345,-0.032 0.6957,-0.11613 1.04072,-0.28999 0.26308,-0.13264 0.44592,-0.26202 0.64268,-0.45509 0.17925,-0.17576 0.22944,-0.23693 0.39454,-0.47986 0.60632,-0.89226 0.83782,-1.91943 0.76377,-3.38854 -0.0235,-0.46505 -0.0908,-1.00652 -0.16934,-1.35854 -0.0899,-0.4033 -0.35269,-0.7254 -0.75832,-0.92931 -0.36768,-0.18488 -0.8648,-0.14235 -1.44741,0.12391 -0.53184,0.24295 -0.99219,0.56427 -1.4259,0.9953 -0.43975,0.43699 -0.61619,0.66981 -0.84886,1.1201 -0.15283,0.29582 -0.27448,0.58412 -0.36924,0.87531 -0.0424,0.12992 -0.11301,0.34688 -0.1573,0.48209 -0.0847,0.25882 -0.12312,0.41397 -0.12371,0.49981 0,0.13419 -0.0728,0.2465 -0.19167,0.29932 -0.05,0.0222 -0.10119,0.0301 -0.20208,0.0313 -0.0744,8.1e-4 -0.13264,0.006 -0.12973,0.009 0.004,0.004 0.0155,0.10601 0.0281,0.22475 0.0528,0.50183 0.0135,0.78722 -0.15109,1.09135 -0.0491,0.0911 -0.0593,0.10141 -0.0921,0.095 -0.0202,-0.004 -0.0889,-0.0155 -0.15264,-0.0264 -0.0992,-0.0155 -0.11827,-0.0244 -0.13477,-0.0567 -0.009,-0.0205 -0.0664,-0.17205 -0.12429,-0.33665 -0.10968,-0.31192 -0.19619,-0.61848 -0.22328,-0.79161 -0.0489,-0.31314 -0.0436,-0.66609 0.0156,-0.99685 l 0.0299,-0.16818 0.11827,-0.1144 0.11825,-0.11438 -0.11729,-0.43363 c -0.1169,-0.43247 -0.1173,-0.43427 -0.12584,-0.66251 -0.0136,-0.38341 -0.11071,-0.76089 -0.28563,-1.1203 l -0.0818,-0.168 -0.0756,0.009 c -0.0415,0.006 -0.10715,0.009 -0.14565,0.009 -0.0656,1.2e-4 -0.0722,0.004 -0.10762,0.0596 -0.14758,0.23366 -0.28822,0.59346 -0.33187,0.8486 -0.06,0.35106 -0.11828,1.20572 -0.11808,1.73516 0,0.39167 0.009,0.52104 0.0661,0.82663 0.02,0.10957 0.057,0.34219 0.082,0.51679 0.0526,0.36665 0.0756,0.46716 0.12933,0.56613 0.0532,0.0981 0.0874,0.1208 0.25969,0.17284 0.71942,0.21707 0.98063,0.32996 1.2485,0.53953 l 0.10876,0.0851 0.28588,-0.0408 c 0.18546,-0.0265 0.30782,-0.0373 0.34841,-0.0306 0.10348,0.0175 0.23978,0.091 0.3464,0.18894 0.40853,0.37492 0.95065,0.54704 1.79225,0.56905 0.0455,9.3e-4 0.16778,-0.004 0.27174,-0.0136 z m 0.93645,-1.0941 c -0.0739,-0.0798 -0.20269,-0.27153 -0.26125,-0.38924 -0.20278,-0.4076 -0.246,-0.91703 -0.12663,-1.49132 0.1129,-0.54283 0.22627,-0.83392 0.38854,-0.99805 0.0812,-0.0821 0.10853,-0.10039 0.17478,-0.11613 0.10234,-0.0245 0.17712,-0.0116 0.29816,0.0523 0.1608,0.0846 0.19663,0.13264 0.24104,0.32373 0.14836,0.63789 0.17517,1.22966 0.0835,1.84883 -0.0542,0.36614 -0.0581,0.37716 -0.22188,0.60739 l -0.14603,0.20525 -0.15206,0.002 c -0.0834,9.3e-4 -0.16701,0.006 -0.18547,0.0118 -0.0259,0.006 -0.0466,-0.006 -0.0933,-0.0562 z m 0.18566,-2.18599 c 0.18954,-0.0627 0.23093,-0.12274 0.13497,-0.19605 -0.0575,-0.0439 -0.20621,-0.10716 -0.26772,-0.11405 -0.0424,-0.004 -0.0424,-0.004 -0.0688,0.14294 -0.0155,0.0812 -0.0303,0.16332 -0.0349,0.18235 -0.008,0.034 -0.008,0.0346 0.0697,0.0242 0.043,-0.006 0.11808,-0.0236 0.16682,-0.0396 z m 3.72034,-3.5963 c 0.35958,-0.73668 0.46921,-1.65925 0.28682,-2.41415 -0.0175,-0.071 -0.034,-0.12915 -0.0375,-0.12915 -0.004,0 -0.10739,0.0375 -0.23091,0.0833 -0.53408,0.19801 -0.90776,0.37213 -1.41848,0.66104 -0.42769,0.24194 -0.52623,0.31777 -0.52623,0.40503 0,0.0608 0.0551,0.10819 0.28412,0.24382 0.2685,0.15923 0.36745,0.23503 0.61357,0.47044 0.10991,0.10509 0.27796,0.25789 0.37341,0.33941 0.16409,0.14022 0.57191,0.45398 0.59064,0.45455 0.004,1.5e-4 0.0338,-0.0513 0.0647,-0.11416 z"
         id="path145" />
    </g>
  </g>
</svg>
