<?xml version="1.0" encoding="UTF-8" standalone="no"?>
<!-- Created with Inkscape (http://www.inkscape.org/) -->

<svg
   width="41.008999mm"
   height="41.008999mm"
   viewBox="0 0 41.008999 41.009"
   version="1.1"
   id="svg1"
   inkscape:version="1.4.2 (f4327f4, 2025-05-13)"
   sodipodi:docname="231.svg"
   xmlns:inkscape="http://www.inkscape.org/namespaces/inkscape"
   xmlns:sodipodi="http://sodipodi.sourceforge.net/DTD/sodipodi-0.dtd"
   xmlns="http://www.w3.org/2000/svg"
   xmlns:svg="http://www.w3.org/2000/svg">
  <sodipodi:namedview
     id="namedview1"
     pagecolor="#ffffff"
     bordercolor="#000000"
     borderopacity="0.25"
     inkscape:showpageshadow="2"
     inkscape:pageopacity="0.0"
     inkscape:pagecheckerboard="0"
     inkscape:deskcolor="#d1d1d1"
     inkscape:document-units="mm"
     inkscape:zoom="2.0485264"
     inkscape:cx="68.341808"
     inkscape:cy="134.73099"
     inkscape:window-width="1050"
     inkscape:window-height="1081"
     inkscape:window-x="3737"
     inkscape:window-y="0"
     inkscape:window-maximized="0"
     inkscape:current-layer="layer1" />
  <defs
     id="defs1" />
  <g
     inkscape:label="Layer 1"
     inkscape:groupmode="layer"
     id="layer1"
     transform="translate(-114.0891,-77.774176)">
    <g
       id="g165"
       transform="translate(-261.10846,302.71395)">
      <circle
         style="fill:none;stroke:#ff0000;stroke-width:0.1;stroke-dasharray:none"
         id="path788-8-1-8-1-9-2-6-3-4-7-1-6-19-3"
         cx="395.70206"
         cy="-204.43527"
         r="19.954653" />
      <ellipse
         style="fill:none;stroke:#ff00ff;stroke-width:0.1;stroke-dasharray:none;stroke-opacity:1"
         id="path1138-9-4-0-0-1-2-0-0-6-8-8-1-4-1"
         cx="395.70206"
         cy="-204.43527"
         rx="18.492125"
         ry="18.492126" />
      <circle
         style="fill:none;stroke:#0000ff;stroke-width:0.1;stroke-linecap:round;stroke-dasharray:none;stroke-opacity:1;paint-order:markers stroke fill"
         id="path13019-1-33-3-83-70-3-7-5-3-9"
         cx="395.70206"
         cy="-219.44624"
         r="2" />
      <path
         style="fill:#000000;stroke-width:0.267919"
         d="m 403.88005,-189.94279 c -1.63431,-0.21825 -3.22318,-0.71663 -4.43043,-1.38965 -0.89295,-0.49781 -0.86496,-0.45523 -0.99138,-1.50736 -0.23026,-1.9166 -0.22072,-1.87066 -0.42175,-2.0288 -0.25653,-0.20179 -0.46538,-0.63939 -0.46538,-0.97511 0,-0.21605 -0.0478,-0.32883 -0.20744,-0.48837 -0.11536,-0.11536 -0.22927,-0.3237 -0.25662,-0.46955 -0.041,-0.21918 -0.0137,-0.31933 0.16795,-0.61141 l 0.21713,-0.34928 -0.60713,-0.76384 c -0.33393,-0.42011 -0.64313,-0.75644 -0.68709,-0.74743 -0.044,0.009 -0.2871,0.0635 -0.54029,0.12103 -0.49532,0.11242 -1.15525,0.0626 -1.81995,-0.13745 -0.32145,-0.0967 -0.32909,-0.0952 -0.5293,0.10505 -0.1527,0.1527 -0.20314,0.27036 -0.20316,0.47442 l -2e-5,0.27129 h 0.62028 c 0.51005,0 0.65387,0.0252 0.80925,0.14175 0.39106,0.29339 0.51704,0.78082 0.33602,1.30009 -0.0726,0.20785 -0.058,0.24471 0.21959,0.55994 0.29715,0.33747 0.29715,0.33747 0.2686,0.83367 -0.028,0.48625 -0.0225,0.50534 0.27628,0.95191 0.44882,0.67105 0.59699,1.12417 0.64131,1.96138 0.0348,0.65851 0.0272,0.71885 -0.0958,0.75385 -1.90296,0.54149 -3.16646,0.6973 -5.63828,0.69525 -1.86116,-0.002 -3.67085,-0.14996 -3.93426,-0.32247 -0.466,-0.30534 0.0823,-1.20656 1.40239,-2.3052 0.81756,-0.68038 2.06639,-1.43495 2.61026,-1.57716 0.088,-0.023 0.14508,-0.0964 0.14508,-0.18634 0,-0.0815 0.0635,-0.21197 0.14116,-0.28967 0.14116,-0.14118 0.14098,-0.14157 -0.11066,-0.37222 -0.35479,-0.32513 -0.40562,-0.71372 -0.1355,-1.03488 0.10637,-0.1265 0.31713,-0.29306 0.46819,-0.37014 0.27463,-0.14018 0.27463,-0.14018 0.27619,-0.65258 0.002,-0.8256 0.21404,-1.15989 0.94358,-1.49119 l 0.27171,-0.12337 -0.22872,-0.26049 c -0.51114,-0.58218 -0.86587,-1.62762 -0.96229,-2.836 -0.0358,-0.44853 -0.0728,-0.59055 -0.16032,-0.61456 -0.0626,-0.0176 -0.48054,-0.1019 -0.92891,-0.18809 -1.34885,-0.25939 -2.25525,-0.61954 -3.29624,-1.30966 -0.54506,-0.36136 -1.55076,-1.28069 -1.77445,-1.62207 -0.0962,-0.14683 -0.13881,-0.15797 -0.40704,-0.10598 -0.49021,0.0949 -0.82053,0.0726 -1.11011,-0.0753 -0.45299,-0.2311 -0.67542,-0.85576 -0.48043,-1.34922 0.0278,-0.0706 -0.058,-0.1787 -0.25503,-0.32095 -0.16346,-0.1181 -0.4007,-0.36887 -0.52741,-0.5574 -0.61751,-0.91868 -0.007,-2.1317 1.45327,-2.89324 0.93399,-0.48669 1.90743,-0.75676 3.14398,-0.87228 l 0.46809,-0.0439 0.0453,-0.68659 c 0.025,-0.37765 0.0455,-1.0136 0.046,-1.41322 2e-4,-0.39963 0.0252,-0.72659 0.0555,-0.72659 0.0303,0 0.11809,0.0432 0.19493,0.0962 0.0769,0.053 0.65184,0.37042 1.27764,0.70563 l 1.13782,0.60944 0.63995,-0.31472 c 1.4916,-0.7336 3.04548,-1.09387 4.95285,-1.14831 1.92889,-0.0551 3.81498,0.24607 5.26422,0.84045 0.55848,0.22905 1.30411,0.6779 1.33939,0.80628 0.009,0.0389 -0.19474,0.21438 -0.4566,0.38976 -0.84158,0.56375 -1.75156,1.21432 -1.76746,1.26362 -0.007,0.0264 0.18106,0.15955 0.42109,0.29602 1.10076,0.62563 2.65879,2.04804 3.31515,3.0266 0.36159,0.53908 0.63876,1.18258 0.63876,1.48301 0,0.15856 -0.0235,0.17558 -0.19493,0.14215 -0.10715,-0.0209 -0.89671,-0.0591 -1.75446,-0.0849 l -1.55952,-0.0467 0.18457,0.20318 c 0.97832,1.07739 1.58145,2.85272 1.537,4.52434 l -0.0201,0.76049 -0.66705,-0.5358 c -0.78037,-0.6268 -1.1788,-0.83446 -1.68762,-0.87956 l -0.36982,-0.0328 0.0446,0.38073 c 0.0391,0.3343 0.0815,0.41339 0.34717,0.64824 0.37806,0.33417 0.48217,0.63701 0.43683,1.27055 -0.0291,0.40604 -0.0739,0.54417 -0.2612,0.80501 -0.25156,0.35031 -0.23636,0.45699 0.0651,0.45699 0.34266,0 0.58024,0.32982 0.57904,0.80385 -5.2e-4,0.16209 -0.0348,0.50223 -0.0762,0.75567 -0.0414,0.2534 -0.0758,0.67392 -0.076,0.93446 -5.3e-4,0.40816 0.0196,0.47981 0.13824,0.51772 0.23436,0.0743 0.48785,0.44327 0.539,0.78438 0.0457,0.30563 0.0688,0.3323 0.45368,0.52659 1.4175,0.71553 2.90251,2.18607 3.9204,3.88217 0.62593,1.04297 0.85701,1.90856 0.55298,2.07126 -0.19356,0.10369 -2.01584,0.0769 -2.91103,-0.0428 z m 2.74403,-0.20547 c 0.23372,-0.0712 -0.43765,-1.51469 -1.18788,-2.55391 -0.45851,-0.63512 -1.4364,-1.70803 -1.77936,-1.95224 -0.2039,-0.14527 -0.2039,-0.14527 -0.74078,0.0137 -0.70281,0.20864 -1.02758,0.45059 -1.2701,0.94627 -0.18535,0.379 -0.19219,0.4307 -0.15641,1.19251 0.0262,0.55795 0.088,0.95476 0.20608,1.32554 0.16677,0.52339 0.17205,0.5302 0.48529,0.62189 1.20451,0.35252 3.83085,0.59237 4.44306,0.40574 z m -5.24358,-1.11379 c -0.22288,-0.75751 -0.22474,-2.1627 -0.004,-2.57636 0.26692,-0.49882 0.76092,-0.86159 1.45313,-1.06716 0.34974,-0.10379 0.34974,-0.10379 0.18594,-0.2316 -0.20887,-0.16266 -1.08556,-0.64392 -1.17321,-0.64392 -0.0366,0 -0.20467,0.13159 -0.37368,0.29234 -0.30028,0.28564 -1.05815,0.6999 -1.28065,0.70002 -0.16209,8e-5 -0.38991,0.26911 -0.57123,0.67437 -0.12552,0.28066 -0.16462,0.52445 -0.18926,1.18267 -0.0448,1.19402 -0.0176,1.29274 0.43247,1.52284 0.42636,0.2184 1.46341,0.64631 1.58714,0.65489 0.058,0.004 0.0373,-0.1529 -0.0671,-0.50809 z m -9.86467,-0.44764 c 0.0606,-0.32341 -0.0237,-1.29723 -0.148,-1.71051 -0.15662,-0.52038 -0.40049,-0.8125 -0.95246,-1.14081 l -0.51105,-0.30399 -0.3667,0.22521 c -1.38681,0.85175 -2.81228,2.23544 -2.81228,2.72984 0,0.13648 0.0489,0.16795 0.323,0.20915 0.61445,0.0921 2.62236,0.22622 3.51939,0.235 l 0.9006,0.009 z m 1.21724,0.13549 0.58484,-0.0455 -8.2e-4,-0.60977 c -0.002,-1.4228 -0.53178,-2.25721 -1.76079,-2.77311 -0.54999,-0.23087 -0.73624,-0.24218 -1.17798,-0.0717 -0.21048,0.0813 -0.21048,0.0813 0.17714,0.2895 0.87635,0.4707 1.2029,1.14516 1.2029,2.48464 0,0.88832 -0.10519,0.80998 0.97468,0.72591 z m 1.75979,-0.23526 c 0.42594,-0.0771 0.9419,-0.18985 1.14658,-0.25087 l 0.37215,-0.11104 v -0.44313 c 0,-0.59252 -0.1527,-1.14492 -0.45629,-1.65067 -0.4191,-0.69814 -0.40545,-0.68761 -0.75989,-0.58648 -0.34016,0.097 -1.82014,0.12337 -2.14387,0.0382 -0.19435,-0.0512 -0.1873,-0.0364 0.12885,0.27097 0.55754,0.54188 0.82097,1.29617 0.82097,2.35087 0,0.28707 0.0264,0.52197 0.0585,0.52197 0.0323,0 0.407,-0.063 0.83294,-0.13979 z m 4.64929,-0.6966 c -0.028,-0.81362 0.0659,-1.40617 0.29699,-1.87495 l 0.166,-0.33673 h -0.56415 -0.56413 l 0.0407,0.23039 c 0.0225,0.12669 0.0751,0.51747 0.11712,0.86837 0.15818,1.32284 0.21738,1.59039 0.37643,1.70181 0.0831,0.0583 0.15192,0.10578 0.1531,0.10578 10e-4,4e-5 -0.009,-0.31259 -0.0219,-0.69476 z m 1.14651,-2.60696 c 0.43039,-0.12161 0.71591,-0.29798 1.06711,-0.659 0.25264,-0.25968 0.27248,-0.30812 0.2364,-0.57707 -0.0434,-0.32433 -0.21884,-0.56614 -0.41051,-0.56614 -0.0684,0 -0.20707,0.0981 -0.308,0.2181 -0.17968,0.21358 -0.18359,0.2146 -0.18359,0.0491 0,-0.0931 0.0469,-0.23103 0.104,-0.30672 0.0657,-0.0868 0.10495,-0.30544 0.10636,-0.59299 0.002,-0.4554 0.002,-0.4554 -0.15719,-0.30567 -0.26992,0.25339 -0.76804,0.43884 -1.18323,0.44052 -0.32264,0.001 -0.46503,0.0487 -0.87035,0.28945 -0.35289,0.20966 -0.54666,0.2819 -0.71298,0.26583 -0.2076,-0.0202 -0.22919,-0.0448 -0.23704,-0.27018 -0.0157,-0.45101 -0.0298,-0.46308 -0.20685,-0.17713 -0.12982,0.2095 -0.16404,0.33906 -0.13139,0.49621 0.0644,0.3094 0.12435,0.35715 0.57424,0.45786 0.45617,0.10211 0.87138,0.28088 0.87138,0.37524 0,0.0344 -0.0717,0.0395 -0.15955,0.0118 -0.23903,-0.0767 -0.64278,-0.16737 -0.75334,-0.16932 -0.0747,-0.001 -0.0896,0.0823 -0.0632,0.35605 0.0493,0.51217 0.28639,0.7455 0.78065,0.76807 0.20313,0.009 0.3824,0.03 0.39842,0.0459 0.0512,0.0512 0.88411,-0.0491 1.23859,-0.14938 z m -5.65983,0.0176 c 0.42486,-0.0883 0.42486,-0.0883 0.47452,-0.4356 0.0273,-0.19102 0.0275,-0.38627 5.4e-4,-0.43394 -0.11848,-0.20871 -0.52825,-0.60145 -0.604,-0.57895 -0.0457,0.0137 -0.16288,0.18946 -0.2604,0.39076 -0.19609,0.40504 -0.28355,0.46458 -0.28355,0.19299 0,-0.29084 0.19162,-0.66457 0.38598,-0.75317 0.19435,-0.0885 0.32181,-0.41533 0.32249,-0.82725 2.8e-4,-0.16639 -0.0606,-0.29678 -0.2068,-0.44306 -0.19219,-0.19219 -0.24563,-0.20721 -0.74014,-0.20721 -0.2931,0 -0.54864,0.0254 -0.56787,0.0565 -0.0602,0.0974 0.0548,0.21169 0.23925,0.23755 0.21981,0.0309 0.27096,0.27005 0.0917,0.42911 -0.1308,0.11614 -1.75467,0.62363 -1.99537,0.62363 -0.20598,0 -0.31969,-0.17362 -0.22701,-0.34687 0.0423,-0.0788 0.13178,-0.17421 0.19925,-0.21187 0.0675,-0.0377 0.10032,-0.0907 0.0731,-0.1179 -0.0271,-0.0271 -0.19396,0.0354 -0.37086,0.13902 -0.57144,0.33488 -0.51097,0.74831 0.16912,1.15589 0.3123,0.18711 0.3566,0.23629 0.24577,0.27248 -0.42361,0.13823 -0.52509,0.20013 -0.52509,0.31998 0,0.10011 0.11829,0.16561 0.51394,0.28382 1.09609,0.32768 2.25089,0.4234 3.0654,0.25405 z m -1.85397,-2.36315 c 0.17557,-0.0381 0.19532,-0.0673 0.15426,-0.22844 -0.0759,-0.29838 -0.12689,-1.1254 -0.081,-1.30859 0.0232,-0.0928 0.13823,-0.26249 0.25525,-0.37694 l 0.21287,-0.20811 -0.24255,-0.0878 c -0.2199,-0.0796 -0.28616,-0.0678 -0.71022,0.12435 -0.60683,0.27514 -0.70659,0.47996 -0.65849,1.35203 0.0176,0.33204 0.0685,0.69025 0.11144,0.79606 0.0782,0.19239 0.0782,0.19239 0.41765,0.0866 0.18673,-0.058 0.43001,-0.12533 0.54072,-0.14938 z m 6.09245,-0.0938 c 0.0307,-0.0264 -0.13139,-0.2525 -0.36003,-0.50258 -1.79825,-1.96702 -1.71409,-1.86332 -1.60765,-1.98093 0.33292,-0.36789 0.43278,-1.64935 0.19915,-2.55621 -0.12572,-0.48784 -0.12552,-0.4905 0.0254,-0.64144 0.10063,-0.10074 0.2722,-0.16326 0.51062,-0.18614 0.19745,-0.0196 0.34136,-0.0631 0.31973,-0.0981 -0.0774,-0.12534 -0.8797,-0.48573 -1.08134,-0.48573 -0.27362,0 -0.73516,-0.16736 -0.99855,-0.3621 -0.20989,-0.15525 -0.21742,-0.15564 -0.49355,-0.0311 l -0.28041,0.1265 0.3822,0.45051 c 0.84225,0.99287 1.04479,1.85363 0.70418,2.9927 -0.21381,0.71495 -0.82827,1.17753 -1.68378,1.26759 -0.39919,0.0421 -0.42087,0.0522 -0.22841,0.10832 0.11693,0.034 0.46889,0.0649 0.78201,0.0688 0.44066,0.006 0.64777,-0.0278 0.9164,-0.14663 0.19082,-0.0844 0.36784,-0.12885 0.39326,-0.0987 0.0254,0.0301 0.15799,0.19829 0.2948,0.37375 0.13668,0.17538 0.55915,0.71095 0.93869,1.19001 l 0.69009,0.87102 0.26076,-0.15583 c 0.14351,-0.0856 0.28583,-0.17734 0.31644,-0.20365 z m 1.37359,-0.28945 c 0.16737,-0.081 0.39883,-0.26659 0.51424,-0.41233 0.40572,-0.51226 0.44311,-1.55035 0.0585,-1.62443 -0.10559,-0.0203 -0.12416,0.0358 -0.12748,0.38902 -0.006,0.56621 -0.12533,0.87409 -0.40293,1.03569 -0.1263,0.0735 -0.2699,0.12004 -0.31899,0.10358 -0.0501,-0.0176 0.007,-0.0803 0.13119,-0.1445 0.30867,-0.16032 0.40773,-0.44177 0.34711,-0.98638 -0.0626,-0.56109 -0.33018,-1.00121 -0.79532,-1.3076 -0.46924,-0.3091 -0.80888,-0.40148 -1.50178,-0.40848 l -0.59537,-0.006 -0.0896,0.43464 c -0.0493,0.23904 -0.13707,0.52643 -0.19513,0.63862 -0.10539,0.20399 -0.10539,0.20399 0.92053,1.31982 1.02602,1.11582 1.02602,1.11582 1.38835,1.11582 0.22202,0 0.4802,-0.0571 0.66673,-0.14741 z m -5.18598,-2.12723 c 0.66355,-0.24826 0.96913,-0.7845 0.98344,-1.72573 0.0117,-0.83125 -0.19995,-1.32335 -0.93159,-2.15647 l -0.27103,-0.30863 -0.52854,0.16326 c -0.44696,0.13804 -0.68991,0.16384 -1.57393,0.16678 l -1.0454,0.004 0.001,0.42531 c 0.006,1.81453 0.76061,3.3153 1.80603,3.58813 0.31617,0.0825 1.14295,-2.7e-4 1.55981,-0.15622 z m 5.53988,-1.0371 c 0.12982,-0.31039 0.13451,-0.30355 -0.21318,-0.30355 -0.527,0 -1.12694,-0.5376 -0.90218,-0.80843 0.0956,-0.11517 0.46888,-0.14841 0.76767,-0.0685 0.26398,0.0708 0.18125,0.15172 -0.21015,0.20551 l -0.36961,0.0508 0.21012,0.16816 c 0.15251,0.122 0.29972,0.16814 0.53733,0.16853 0.32719,2.5e-4 0.32719,2.5e-4 0.27822,-0.26548 -0.027,-0.14625 -0.0849,-0.33265 -0.12884,-0.41432 -0.0874,-0.16248 -0.46498,-0.46717 -0.68924,-0.55622 -0.19795,-0.0785 -1.7829,-0.3162 -2.12661,-0.31883 -0.4354,-0.004 -0.50399,0.068 -0.39974,0.41603 0.0774,0.25861 0.10559,0.285 0.26145,0.24587 0.096,-0.0241 0.29408,-0.0196 0.44002,0.009 l 0.26538,0.0537 -0.28356,0.0601 c -0.54777,0.11594 -0.60805,0.13627 -0.57362,0.19199 0.0196,0.0309 0.0426,0.18946 0.0522,0.35237 l 0.0176,0.29615 0.42918,0.001 c 0.81107,0.002 1.57969,0.2572 2.09503,0.69562 0.28184,0.23979 0.38069,0.20692 0.54262,-0.18045 z m 1.93843,-3.23379 c -0.25834,-1.78332 -1.22827,-3.34323 -2.60513,-4.18977 -0.24366,-0.14976 -0.44305,-0.28156 -0.44305,-0.2928 0,-0.0953 1.0455,0.35455 1.23965,0.53319 0.1263,0.11634 0.34051,0.13843 1.87939,0.19376 0.95519,0.0344 1.74606,0.0575 1.7575,0.0512 0.0575,-0.0311 -0.28045,-0.76722 -0.52076,-1.13458 -0.37458,-0.57263 -1.78021,-1.9635 -2.51271,-2.48634 -0.99327,-0.70893 -1.27149,-0.8228 -2.03102,-0.83114 -0.35682,-0.004 -0.63647,-0.0272 -0.62148,-0.0516 0.0442,-0.0719 0.63776,-0.20366 0.91742,-0.20366 0.21408,0 0.44889,-0.13452 1.3828,-0.79226 0.61872,-0.43576 1.10827,-0.81924 1.0879,-0.85223 -0.14997,-0.24258 -1.76227,-0.82208 -3.03945,-1.09242 -1.16866,-0.24737 -3.30036,-0.31354 -4.50132,-0.1398 -1.81138,0.26219 -3.37104,0.84353 -4.80276,1.79021 -0.54775,0.36216 -0.58161,0.39894 -0.53166,0.57711 0.0757,0.27018 0.0471,2.53737 -0.0369,2.91946 -0.0553,0.2522 -0.0708,0.0434 -0.0729,-0.99717 -0.002,-1.27905 -0.0485,-1.83831 -0.15055,-1.83831 -0.0999,0 -0.43071,0.4012 -0.43071,0.52249 0,0.0687 -0.0355,0.19142 -0.0792,0.27269 -0.0687,0.12826 -0.0624,0.14136 0.0475,0.0993 0.0741,-0.0284 0.15055,-0.0118 0.18437,0.0424 0.0317,0.05 0.0583,0.68443 0.0589,1.40972 5.2e-4,0.72531 0.0219,1.51743 0.0473,1.76029 0.0407,0.38853 0.0678,0.44983 0.22761,0.51053 0.35105,0.13354 0.4063,0.0951 1.78196,-1.24087 1.9733,-1.91625 3.38408,-2.30707 4.38294,-1.21416 0.38852,0.42509 0.62688,0.88156 0.73866,1.41446 0.10242,0.48868 -0.06,1.19437 -0.47887,2.07843 -0.17518,0.36996 -0.31863,0.68093 -0.31863,0.69108 0,0.009 0.12767,-0.009 0.28354,-0.0453 0.37597,-0.0844 0.84376,0.0244 1.005,0.23392 0.15896,0.20661 0.22126,0.52112 0.18946,0.95723 l -0.0248,0.34082 0.95699,10e-4 c 1.72241,0.002 2.08044,0.12239 2.42995,0.81389 0.19493,0.38571 0.20098,0.39025 0.57301,0.43237 0.50258,0.0569 1.04574,0.31638 1.60468,0.76663 l 0.46077,0.37117 0.0225,-0.41298 c 0.0118,-0.22711 -0.0137,-0.66295 -0.0578,-0.9685 z m -6.12123,-5.64708 c -0.0332,-0.17538 -0.14351,-0.57419 -0.24532,-0.88608 -0.14801,-0.4537 -0.25011,-0.6324 -0.51091,-0.89365 -0.36525,-0.36591 -0.96228,-0.63042 -1.42289,-0.63042 -0.36288,0 -1.09413,0.31105 -1.96737,0.83686 -1.09162,0.65733 -1.35784,0.80322 -1.35653,0.74336 0.002,-0.0954 1.42592,-1.12522 1.91271,-1.38337 0.917,-0.4863 1.32867,-0.56237 1.98632,-0.36705 1.12207,0.33321 1.73281,1.19406 1.68539,2.37555 -0.0205,0.51358 -0.0223,0.51756 -0.0814,0.2048 z m 0.83006,-1.50635 c 0.19572,-1.09558 0.29394,-3.52264 0.14819,-3.662 -0.18749,-0.17929 -1.56352,0.36511 -3.25713,1.28874 -0.55982,0.3053 -0.81519,0.42384 -0.81519,0.37843 0,-0.0137 0.3774,-0.28114 0.83871,-0.5963 1.27698,-0.8724 2.13777,-1.26671 2.92838,-1.34136 0.36459,-0.0344 0.40945,-0.0229 0.50723,0.13081 0.17167,0.26985 0.21055,1.07386 0.094,1.94518 -0.10831,0.81103 -0.38226,2.08681 -0.44803,2.08681 -0.0205,0 -0.0196,-0.10358 0.004,-0.23038 z m -0.77129,-0.38785 c -0.37803,-0.71141 -1.18332,-1.42261 -1.7523,-1.54758 -0.20283,-0.0446 -0.26117,-0.14606 -0.10695,-0.18595 0.0487,-0.0118 0.56106,-0.27352 1.13851,-0.57981 0.57745,-0.30626 1.06871,-0.53806 1.09168,-0.51509 0.0546,0.0546 -0.12884,3.09225 -0.18672,3.09225 -0.0243,0 -0.10734,-0.11868 -0.18437,-0.26379 z m 0.0606,-1.49417 0.0432,-0.94279 -0.70903,0.37078 -0.70901,0.37078 0.30633,0.19063 c 0.16855,0.10484 0.46461,0.36617 0.65801,0.58065 0.19337,0.21449 0.3552,0.38608 0.35954,0.38133 0.004,-0.004 0.0273,-0.4329 0.051,-0.95142 z m 3.34365,9.67958 c -0.061,-0.54809 -0.24958,-0.99684 -0.48304,-1.14981 -0.42072,-0.27565 -3.03427,-0.32198 -3.32495,-0.0589 -0.11379,0.10284 -0.1175,0.13159 -0.0285,0.22028 0.0562,0.0562 0.26107,0.15582 0.45544,0.22168 0.28911,0.0979 0.46116,0.1087 0.94575,0.0592 0.74966,-0.0762 1.30538,-0.0157 1.48426,0.16384 0.10074,0.10074 0.13588,0.23597 0.13588,0.52175 0,0.38582 0,0.38582 0.30128,0.41294 0.1656,0.0157 0.36023,0.0326 0.43227,0.0395 0.11947,0.0118 0.1267,-0.0266 0.0817,-0.43066 z m -1.09873,-0.0137 c 0,-0.17322 -0.0362,-0.3372 -0.0806,-0.36457 -0.0444,-0.0273 -0.30747,-0.063 -0.58482,-0.079 -0.41305,-0.0239 -0.47863,-0.0137 -0.36249,0.0551 0.23102,0.13745 0.53166,0.4396 0.53166,0.53443 0,0.0782 0.13021,0.12904 0.40759,0.15935 0.0591,0.006 0.0885,-0.0954 0.0885,-0.30517 z m -8.01023,-0.48029 c -0.68682,-0.29697 -1.52645,-0.85011 -1.61942,-1.06683 -0.0137,-0.0312 -0.23676,-0.16462 -0.49621,-0.29613 -0.64404,-0.32646 -1.35884,-0.84199 -2.00564,-1.44653 l -0.54149,-0.50612 -0.32665,0.15916 c -0.17969,0.0876 -0.32677,0.18241 -0.32689,0.21096 -5.3e-4,0.10694 0.96109,1.0656 1.41091,1.40672 0.76706,0.58174 1.88781,1.09876 2.98385,1.37645 0.99582,0.25233 1.22158,0.29209 0.92154,0.16228 z m 3.10236,-0.0874 c 0.96549,-0.20311 1.95226,-0.6776 2.32134,-1.11621 0.16677,-0.19823 0.18593,-0.26893 0.1482,-0.54534 -0.11809,-0.86102 -0.61141,-0.91785 -2.01994,-0.23272 -0.63483,0.3088 -0.71699,0.33076 -1.21261,0.324 -0.65104,-0.009 -0.96823,-0.12161 -2.58977,-0.91982 -0.6641,-0.32693 -1.31391,-0.61569 -1.44403,-0.64172 -0.23656,-0.0473 -0.23656,-0.0473 -0.11613,0.13628 0.18867,0.28785 0.122,0.50628 -0.16287,0.53357 -0.21515,0.0207 -0.23267,0.0393 -0.19122,0.20402 0.0801,0.31923 0.50125,0.90199 0.92434,1.27907 0.47276,0.42138 1.23073,0.81894 1.84391,0.96717 0.55924,0.13511 1.88225,0.14137 2.49898,0.0118 z m -0.33778,-0.44006 c 0,-0.0341 0.15232,-0.11594 0.33831,-0.18203 0.44263,-0.15719 1.05529,-0.59781 1.23452,-0.88783 l 0.14234,-0.23038 h -0.25506 c -0.14037,0 -0.25506,-0.0336 -0.25506,-0.0747 0,-0.045 0.13392,-0.066 0.33615,-0.0532 0.28903,0.0176 0.34953,0.0496 0.43169,0.22176 0.0606,0.12709 0.0755,0.26936 0.0405,0.38988 -0.0528,0.18203 -0.0567,0.17852 -0.0951,-0.0844 l -0.0399,-0.27405 -0.23976,0.29929 c -0.27703,0.34584 -0.77314,0.68101 -1.1636,0.78617 -0.14918,0.0403 -0.31721,0.0907 -0.37324,0.11222 -0.0562,0.0216 -0.10189,0.0118 -0.10189,-0.0227 z m -5.07505,-1.45309 c -0.0678,-0.13042 -0.14272,-0.32985 -0.16639,-0.44338 -0.0364,-0.17518 -0.1136,-0.23506 -0.50923,-0.39529 -0.95747,-0.38784 -1.2932,-0.72993 -1.122,-1.14321 0.0917,-0.22118 0.2994,-0.30944 0.61831,-0.26262 l 0.19455,0.0285 -5.6e-4,-1.00325 -5.3e-4,-1.00326 -0.16482,0.3269 c -0.0908,0.17988 -0.26606,0.43241 -0.38988,0.56133 -0.20295,0.21137 -0.2229,0.27066 -0.20265,0.60256 0.0176,0.29644 -0.0196,0.44944 -0.18908,0.78595 l -0.21158,0.41781 0.4018,0.3893 c 0.62399,0.60457 1.76762,1.4734 1.84179,1.39923 0.0137,-0.0137 -0.0319,-0.13021 -0.0997,-0.26061 z m 5.6174,-0.19376 c 0.54861,-0.2653 0.58047,-0.29428 0.83767,-0.76204 0.3898,-0.70893 0.67507,-1.48927 0.72195,-1.97488 0.0344,-0.3553 0.0118,-0.49967 -0.14292,-0.877 -0.72172,-1.77193 -2.14984,-1.79527 -4.08311,-0.0669 l -0.73846,0.66023 0.0176,0.74432 c 0.0207,0.83098 -0.0528,1.13419 -0.27505,1.13419 -0.19582,0 -0.28357,-0.25627 -0.28357,-0.82807 v -0.46439 l -0.27931,0.25233 c -0.30873,0.27891 -0.68741,0.38794 -0.9183,0.26437 -0.12748,-0.0682 -0.14919,-0.0603 -0.14919,0.0557 0,0.0745 -0.0494,0.17656 -0.10987,0.22678 -0.28245,0.23441 -0.50577,-0.49087 -0.37852,-1.22932 0.10537,-0.6118 0.16501,-2.67241 0.0772,-2.67241 -0.18535,0 -0.38705,0.28148 -0.48389,0.67504 -0.12493,0.50743 -0.20709,2.05053 -0.13842,2.59941 0.0409,0.32751 0.0788,0.40605 0.22914,0.47453 0.0992,0.0451 0.29315,0.16833 0.43128,0.27365 0.15856,0.12082 0.32088,0.18417 0.44005,0.17165 0.24597,-0.0258 0.74227,0.14528 1.25772,0.43374 0.22671,0.1269 0.74713,0.38629 1.15649,0.57658 1.52503,0.70885 1.93243,0.757 2.81074,0.33226 z m -8.55257,-1.15732 c 0.5952,-0.30214 0.92154,-0.74868 0.92154,-1.26102 0,-0.2436 -0.0315,-0.35093 -0.11203,-0.38187 -0.50063,-0.1922 -2.47568,0.35403 -2.76282,0.76399 -0.21783,0.31098 -0.0202,0.95368 0.34118,1.10954 0.31512,0.13588 1.11584,0.0213 1.61223,-0.23064 z m -1.60203,-1.43744 c 0.59055,-0.28886 1.71303,-0.54905 2.17517,-0.50418 0.3764,0.0366 0.40639,0.0271 0.6075,-0.18966 0.38668,-0.41684 0.54629,-0.77376 0.65581,-1.4667 0.0688,-0.43578 0.18829,-0.43914 -1.30479,0.0368 -1.13668,0.36235 -1.27729,0.44315 -1.21352,0.69728 0.0894,0.35563 0.54743,0.36036 1.279,0.0137 0.29315,-0.13902 0.55583,-0.25295 0.58373,-0.25295 0.028,0 -0.043,0.0997 -0.15739,0.22164 -0.27344,0.29109 -0.84567,0.55663 -1.20062,0.55717 -0.35048,5.3e-4 -0.72536,-0.21787 -0.78554,-0.45762 -0.0505,-0.20087 -0.11633,-0.22482 -0.2328,-0.0846 -0.0855,0.10306 -0.63997,0.29074 -0.69535,0.23536 -0.0196,-0.0195 0.14586,-0.16697 0.36568,-0.32937 0.46982,-0.34706 0.67396,-0.64884 0.67433,-0.99682 5.2e-4,-0.41822 -0.21525,-0.51155 -0.78665,-0.34038 -0.35855,0.10735 -1.00589,0.69154 -1.19164,1.07525 -0.17889,0.36959 -0.19277,0.8899 -0.0326,1.22743 0.12787,0.2693 0.63084,0.73495 0.79398,0.73495 0.0573,0 0.26691,-0.0796 0.46572,-0.17674 z m 1.51825,-2.24147 c 0.37917,-0.1091 0.57999,-0.35121 0.57999,-0.69929 0,-0.41141 -0.17909,-0.5279 -0.73202,-0.47625 -0.24747,0.023 -0.53966,0.0829 -0.6493,0.13276 -0.19939,0.091 -0.19939,0.091 -0.0299,0.1308 0.24382,0.0575 0.36095,0.32558 0.31856,0.7289 -0.0312,0.2968 -0.0203,0.3361 0.0855,0.30579 0.0667,-0.0196 0.2589,-0.0745 0.42727,-0.12279 z m 1.39499,-0.48788 c 0.15133,-0.12551 0.32341,-0.54469 0.27527,-0.67016 -0.0762,-0.19859 -0.54491,-0.39238 -0.83512,-0.34528 -0.23529,0.0381 -0.43587,0.16462 -0.26115,0.16462 0.13764,0 0.30344,0.43576 0.27587,0.72487 -0.0268,0.28117 -0.0268,0.28117 0.21242,0.24235 0.13158,-0.0214 0.28129,-0.0737 0.33271,-0.11634 z m 0.90673,-0.3236 c 0.35888,-0.26327 0.52229,-0.51639 0.45187,-0.69992 -0.0334,-0.0872 -0.15876,-0.11085 -0.58878,-0.11085 -0.54622,0 -0.54622,0 -0.3921,0.16403 0.17245,0.18359 0.21372,0.66952 0.069,0.81418 -0.19083,0.19083 0.13158,0.0735 0.45996,-0.16755 z m 0.97716,-1.38386 c 0.21158,-0.19826 0.58525,-0.49054 0.83034,-0.64956 0.28726,-0.18633 0.42129,-0.31348 0.37706,-0.3577 -0.0377,-0.0377 -0.50144,-0.30003 -1.03048,-0.58288 l -0.96186,-0.51425 -2.7e-4,0.29315 c -1.5e-4,0.16131 -0.0209,0.69705 -0.0462,1.19066 -0.05,0.98268 -0.076,0.9147 0.37053,0.97136 0.0419,0.006 0.24917,-0.15251 0.46076,-0.35078 z"
         id="path146" />
    </g>
  </g>
</svg>
