<?xml version="1.0" encoding="UTF-8" standalone="no"?>
<!-- Created with Inkscape (http://www.inkscape.org/) -->

<svg
   width="41.008999mm"
   height="41.008999mm"
   viewBox="0 0 41.008999 41.009"
   version="1.1"
   id="svg1"
   inkscape:version="1.4.2 (f4327f4, 2025-05-13)"
   sodipodi:docname="232.svg"
   xmlns:inkscape="http://www.inkscape.org/namespaces/inkscape"
   xmlns:sodipodi="http://sodipodi.sourceforge.net/DTD/sodipodi-0.dtd"
   xmlns="http://www.w3.org/2000/svg"
   xmlns:svg="http://www.w3.org/2000/svg">
  <sodipodi:namedview
     id="namedview1"
     pagecolor="#ffffff"
     bordercolor="#000000"
     borderopacity="0.25"
     inkscape:showpageshadow="2"
     inkscape:pageopacity="0.0"
     inkscape:pagecheckerboard="0"
     inkscape:deskcolor="#d1d1d1"
     inkscape:document-units="mm"
     inkscape:zoom="2.0485264"
     inkscape:cx="68.341808"
     inkscape:cy="134.73099"
     inkscape:window-width="1050"
     inkscape:window-height="1081"
     inkscape:window-x="3737"
     inkscape:window-y="0"
     inkscape:window-maximized="0"
     inkscape:current-layer="layer1" />
  <defs
     id="defs1" />
  <g
     inkscape:label="Layer 1"
     inkscape:groupmode="layer"
     id="layer1"
     transform="translate(-114.0891,-77.774176)">
    <g
       id="g2"
       transform="translate(-609.44043,153.68849)">
      <path
         style="fill:#000000;stroke-width:0.1;stroke-dasharray:none"
         d="m 729.91789,-41.29517 -5.88386,-5.88535 v -8.23078 -8.23078 l 5.88535,-5.88386 5.88536,-5.88387 h 8.23077 8.23078 l 5.88387,5.88536 5.88386,5.88535 v 8.23078 8.23077 l -5.88535,5.88387 -5.88535,5.88386 h -8.23078 -8.23078 z m 27.38458,-0.84461 5.50078,-5.4992 v -7.77083 -7.77084 l -5.50078,-5.49919 -5.5008,-5.4992 h -7.76765 -7.76764 l -5.50079,5.4992 -5.50079,5.49919 v 7.76925 7.76924 l 5.4992,5.50079 5.49919,5.50078 h 7.76925 7.76923 z m -25.53853,-1.00165 -5.11452,-5.11624 v -7.15385 -7.15386 l 5.11623,-5.11452 5.11623,-5.11452 h 7.15385 7.15386 l 5.11453,5.11622 5.11452,5.11623 v 7.15386 7.15385 l -5.11623,5.11453 -5.11624,5.11452 h -7.15386 -7.15385 z m 3.27009,-6.81857 c 0.86061,-0.44344 1.15495,-1.09192 1.14685,-2.52674 -0.007,-1.23059 -0.24896,-2.13322 -0.70794,-2.64038 -0.15546,-0.17179 -0.87166,-0.69911 -1.59156,-1.17183 -0.71989,-0.47272 -1.39323,-0.96797 -1.49631,-1.10056 -0.24282,-0.31235 -0.2519,-1.74021 -0.0126,-1.97953 0.20858,-0.20859 0.98735,-0.25038 1.10543,-0.0593 0.0426,0.0689 0.0942,0.44968 0.11475,0.84615 l 0.0373,0.72086 h 1.17387 1.17387 l -0.0598,-0.88461 c -0.034,-0.50314 -0.1754,-1.05048 -0.32793,-1.26923 -0.9497,-1.36206 -4.43928,-1.39261 -5.33922,-0.0467 -0.62922,0.94099 -0.60371,2.98678 0.0483,3.87262 0.16391,0.2227 0.95016,0.87156 1.74723,1.44193 1.21264,0.86773 1.48326,1.13855 1.65771,1.65888 0.33281,0.99268 -0.0338,2.15024 -0.68101,2.15024 -0.51685,0 -0.83516,-0.58636 -0.83516,-1.53846 v -0.92308 h -1.15385 -1.15385 l 0.001,0.73077 c 0.002,1.5479 0.63235,2.61506 1.74591,2.9549 0.82553,0.25194 2.71409,0.12121 3.40707,-0.23585 z m 13.93857,0.22156 c 0.66895,-0.22357 1.34854,-0.84241 1.61883,-1.47412 0.26494,-0.6192 0.30544,-7.46791 0.0482,-8.14877 -0.43207,-1.14358 -1.81543,-1.84123 -3.37117,-1.70016 -1.5443,0.14004 -2.49363,0.87809 -2.76659,2.1509 -0.20348,0.94873 -0.20913,5.96971 -0.008,7.03066 0.19394,1.02267 0.6509,1.66114 1.44794,2.02312 0.72314,0.3284 2.22657,0.38712 3.03072,0.11836 z m -1.74627,-1.376 c -0.24537,-0.14293 -0.26923,-0.50777 -0.26923,-4.1184 0,-2.8761 0.0506,-4.01217 0.18462,-4.1462 0.28263,-0.28263 0.86272,-0.21967 1.04074,0.11296 0.097,0.18126 0.15926,1.7314 0.15926,3.96577 0,3.071 -0.039,3.72385 -0.23949,4.01011 -0.26205,0.37412 -0.4653,0.4149 -0.8759,0.17576 z m -5.77148,-3.25691 0.0407,-4.65384 0.61538,-0.0179 c 1.40741,-0.0408 1.30769,0.0282 1.30769,-0.90522 v -0.84615 h -3.23844 -3.23845 l 0.0462,0.88461 0.0462,0.88462 0.50194,-0.0502 c 0.27606,-0.0276 0.70876,-0.005 0.96154,0.0507 l 0.45959,0.10094 v 4.60316 4.60316 h 1.22852 1.22851 z m 13.62164,2.23077 0.0424,-2.34615 h 1.0112 c 1.20946,0 1.95829,-0.31165 2.21021,-0.91983 0.11643,-0.28109 0.1626,-1.12136 0.12958,-2.35816 -0.0443,-1.65997 -0.0932,-1.96836 -0.35901,-2.26605 -0.56508,-0.63284 -1.15722,-0.76366 -3.45659,-0.76366 h -2.15879 v 5.54469 5.54468 l 1.26923,-0.0447 1.26923,-0.0447 z m 0.0344,-5.51923 v -1.78847 l 0.5,0.0982 c 0.72368,0.14218 0.88461,0.45851 0.88461,1.73887 0,1.25476 -0.27881,1.73983 -1,1.73983 h -0.38461 z"
         id="path8"
         sodipodi:nodetypes="ccccccccccccccccccccccccccccccccccccccccccccccccccccsssssssccccsssssssccccscccssssssccsssssssccsscccccscccccccccsssssccccccccssscc" />
      <path
         d="m 729.91789,-41.29516 -5.88386,-5.88536 v -8.23077 -8.23078 l 5.88535,-5.88387 5.88536,-5.88387 h 8.23077 8.23078 l 5.88387,5.88536 5.88386,5.88535 v 8.23078 8.23077 l -5.88535,5.88387 -5.88535,5.88387 h -8.23078 -8.23078 z"
         style="fill:none;stroke:#ff0000;stroke-width:0.1;stroke-dasharray:none;stroke-opacity:1"
         id="path1-2" />
      <circle
         style="fill:none;stroke:#0000ff;stroke-width:0.1;stroke-dasharray:none;stroke-opacity:1"
         id="path15"
         cx="744.034"
         cy="-69.948204"
         r="2" />
    </g>
  </g>
</svg>
