<?xml version="1.0" encoding="UTF-8" standalone="no"?>
<!-- Created with Inkscape (http://www.inkscape.org/) -->

<svg
   width="41.008999mm"
   height="41.008999mm"
   viewBox="0 0 41.008999 41.009"
   version="1.1"
   id="svg1"
   inkscape:version="1.4.2 (f4327f4, 2025-05-13)"
   sodipodi:docname="275.svg"
   xmlns:inkscape="http://www.inkscape.org/namespaces/inkscape"
   xmlns:sodipodi="http://sodipodi.sourceforge.net/DTD/sodipodi-0.dtd"
   xmlns="http://www.w3.org/2000/svg"
   xmlns:svg="http://www.w3.org/2000/svg">
  <sodipodi:namedview
     id="namedview1"
     pagecolor="#ffffff"
     bordercolor="#000000"
     borderopacity="0.25"
     inkscape:showpageshadow="2"
     inkscape:pageopacity="0.0"
     inkscape:pagecheckerboard="0"
     inkscape:deskcolor="#d1d1d1"
     inkscape:document-units="mm"
     inkscape:zoom="2.8970539"
     inkscape:cx="82.497603"
     inkscape:cy="88.365633"
     inkscape:window-width="1168"
     inkscape:window-height="1081"
     inkscape:window-x="3737"
     inkscape:window-y="0"
     inkscape:window-maximized="0"
     inkscape:current-layer="layer1" />
  <defs
     id="defs1" />
  <g
     inkscape:label="Layer 1"
     inkscape:groupmode="layer"
     id="layer1"
     transform="translate(-114.0891,-77.774176)">
    <g
       id="g8"
       transform="translate(-440.6409,153.63424)">
      <ellipse
         style="fill:none;stroke:#ff00ff;stroke-width:0.1;stroke-dasharray:none;stroke-opacity:1"
         id="path1138-9-4-0-0-1-2-4-9-7-82-6-75-2-1-90-8"
         cx="575.2345"
         cy="-55.35556"
         rx="18.492125"
         ry="18.492126" />
      <circle
         style="fill:none;stroke:#ff0000;stroke-width:0.1;stroke-dasharray:none"
         id="path788-8-1-8-1-9-2-6-3-4-7-1-6-1-0-8-3-6-1-0-9-8"
         cx="575.2345"
         cy="-55.35556"
         r="19.954653" />
      <circle
         style="fill:none;stroke:#0000ff;stroke-width:0.1;stroke-linecap:round;stroke-dasharray:none;stroke-opacity:1;paint-order:markers stroke fill"
         id="path13019-1-33-3-83-70-3-7-5-9-5-4-1-5-2-2-8-5"
         cx="575.2345"
         cy="-70.366547"
         r="2" />
      <path
         style="fill:#000000;stroke-width:0.1;stroke-dasharray:none"
         d="m 570.69283,-38.96978 c -0.16655,-0.54868 0.0694,-1.12283 0.55647,-1.35396 0.36532,-0.17335 0.37862,-0.20274 0.33024,-0.7296 -0.0898,-0.97765 -0.11897,-1.02518 -0.9772,-1.59059 -0.45432,-0.29931 -1.0551,-0.75533 -1.33505,-1.01338 -0.43956,-0.40518 -0.53909,-0.45037 -0.72961,-0.33139 -0.79614,0.49719 -1.83619,-0.53938 -1.50228,-1.49725 0.20249,-0.58084 0.15113,-0.75238 -0.30702,-1.02568 -0.65992,-0.39364 -1.27887,-1.02894 -1.35932,-1.39525 -0.15851,-0.72168 0.79715,-1.90849 2.11951,-2.63219 0.81253,-0.44467 0.97907,-0.83444 1.03166,-2.41448 0.0534,-1.60603 -0.19679,-3.40906 -0.57712,-4.15835 -0.23449,-0.46195 -0.26058,-0.66293 -0.23773,-1.83073 0.0235,-1.19558 0.1241,-2.0286 0.33471,-2.76862 0.0723,-0.2542 0.0511,-0.27113 -0.2791,-0.22267 -0.44434,0.0652 -0.37425,-0.0918 0.0862,-0.19288 0.21798,-0.0478 0.42055,-0.21454 0.57129,-0.47005 l 0.23357,-0.39586 -0.28792,-0.18865 c -0.15836,-0.10376 -0.58469,-0.22672 -0.9474,-0.27324 -0.36271,-0.0465 -0.52974,-0.0989 -0.37119,-0.11648 0.48384,-0.0535 1.07691,0.0168 1.45116,0.17223 0.31606,0.1312 0.37065,0.12367 0.49008,-0.0676 0.0739,-0.11834 0.1344,-0.23555 0.1344,-0.26043 0,-0.0775 -0.61736,-0.29325 -0.98017,-0.34259 -0.19026,-0.0259 -0.11242,-0.0316 0.17298,-0.0127 0.2854,0.0189 0.62269,0.0637 0.74953,0.0997 0.15807,0.0448 0.37285,-0.0575 0.68268,-0.32503 l 0.45206,-0.39036 -0.47629,-0.24298 c -0.26197,-0.13365 -0.57909,-0.243 -0.70471,-0.243 -0.12564,0 -0.25702,-0.0463 -0.29198,-0.10285 -0.10534,-0.17042 0.8907,0.0936 1.20308,0.31888 0.28667,0.20676 0.57657,0.20842 0.57657,0.004 0,-0.0591 -0.16865,-0.21443 -0.37477,-0.34525 -0.31703,-0.20122 -0.33036,-0.22551 -0.0865,-0.15763 0.15856,0.0442 0.37776,0.15875 0.48712,0.25474 0.17822,0.15643 0.23126,0.1533 0.51128,-0.0302 l 0.31243,-0.20471 -0.31591,-0.27174 c -0.17374,-0.14945 -0.27693,-0.27173 -0.22931,-0.27173 0.0476,0 0.21972,0.12751 0.38237,0.28336 0.19819,0.18987 0.34826,0.25091 0.45488,0.18501 0.12777,-0.079 0.0947,-0.18792 -0.16782,-0.55317 -0.17983,-0.25015 -0.48473,-0.56692 -0.67758,-0.70391 -0.19283,-0.13701 -0.27965,-0.2491 -0.19292,-0.2491 0.15828,0 1.00703,0.81401 1.22281,1.17278 0.0897,0.14904 0.1772,0.1675 0.39332,0.0829 l 0.27802,-0.10884 -0.32038,-0.33441 c -0.17622,-0.18392 -0.47164,-0.39706 -0.65649,-0.47362 -0.18485,-0.0765 -0.31082,-0.16448 -0.27994,-0.19537 0.0917,-0.0917 1.09069,0.53804 1.21141,0.76362 0.0813,0.15181 0.20632,0.19399 0.46339,0.15626 0.40521,-0.0594 0.4228,-0.10216 0.16124,-0.39118 -0.10497,-0.11598 -0.13385,-0.21088 -0.0642,-0.21088 0.0697,0 0.20054,0.10549 0.29085,0.23444 0.1368,0.19531 0.2419,0.22201 0.62979,0.15998 l 0.46559,-0.0745 0.005,-0.55124 c 0.004,-0.49827 0.26584,-1.3831 0.40949,-1.3831 0.0318,0 -0.0176,0.17994 -0.10943,0.39988 -0.22118,0.52936 -0.22577,1.56043 -0.007,1.56043 0.0935,0 0.19359,-0.17832 0.24051,-0.42844 0.0806,-0.42961 0.36208,-1.07062 0.47012,-1.07062 0.0318,0 -0.0165,0.14352 -0.10729,0.31895 -0.0907,0.17543 -0.18285,0.49906 -0.20475,0.71916 -0.0392,0.39441 -0.0323,0.40125 0.47908,0.47363 0.63212,0.0895 0.65396,0.0782 0.75474,-0.38877 0.0984,-0.45588 0.50656,-1.28388 0.59118,-1.19926 0.0337,0.0337 -0.0217,0.18005 -0.12336,0.32511 -0.22167,0.31646 -0.24591,0.60774 -0.0406,0.48769 0.0792,-0.0464 0.0594,0.0155 -0.044,0.13734 -0.10348,0.12189 -0.2209,0.32946 -0.26094,0.46126 -0.0606,0.19972 -0.003,0.26115 0.34758,0.36867 0.37784,0.11596 0.44177,0.10338 0.63188,-0.12434 0.11632,-0.13933 0.21323,-0.29227 0.21533,-0.33983 0.002,-0.0476 0.0586,-0.0865 0.1257,-0.0865 0.0683,0 0.043,0.11264 -0.0577,0.25629 -0.3081,0.43988 -0.20599,0.6473 0.12929,0.26262 0.32741,-0.37565 0.83334,-0.74782 1.0173,-0.74834 0.0635,-1.8e-4 -0.0505,0.10078 -0.25319,0.22436 -0.34621,0.2111 -0.81167,0.77149 -0.71376,0.85935 0.0244,0.0219 0.26324,0.1502 0.53064,0.28504 l 0.4862,0.24516 0.51413,-0.3624 c 0.3882,-0.27362 0.66455,-0.37162 1.12818,-0.40006 0.61306,-0.0377 0.61327,-0.0376 0.13278,0.0663 -0.59806,0.12913 -1.06597,0.36651 -1.35754,0.68867 -0.18884,0.20867 -0.19331,0.23566 -0.0285,0.17244 0.11124,-0.0427 0.19533,-0.0199 0.19533,0.053 0,0.0704 0.21267,0.32008 0.47259,0.5549 0.39286,0.35493 0.55338,0.42518 0.95133,0.41635 0.38221,-0.008 0.40316,-1.4e-4 0.10398,0.0414 -0.20613,0.0285 -0.37477,0.078 -0.37477,0.10995 0,0.032 0.12381,0.22322 0.27511,0.42511 0.58523,0.78087 1.27937,2.47489 1.40254,3.42287 0.0684,0.52678 0.0991,0.58939 0.18072,0.36962 0.06,-0.16136 0.0447,-0.46495 -0.0391,-0.77818 -0.1022,-0.38212 -0.10492,-0.63516 -0.0107,-0.98845 0.10044,-0.3763 0.0898,-0.60439 -0.0507,-1.09895 -0.20889,-0.73429 -0.0933,-1.13117 0.38198,-1.31187 0.64169,-0.24398 1.2042,0.23241 1.2042,1.01981 0,0.31954 0.0243,0.33624 0.47277,0.32449 0.36605,-0.01 0.52223,0.0487 0.69189,0.25817 0.29635,0.36598 0.27895,0.88704 -0.0404,1.20899 -0.14271,0.14388 -0.34963,0.45328 -0.45985,0.68757 -0.16962,0.3606 -0.18095,0.51652 -0.0738,1.01584 0.0831,0.38723 0.0872,0.61467 0.0122,0.66211 -0.0679,0.043 -0.13911,1.26423 -0.17544,3.01273 -0.0533,2.56564 -0.0974,3.10218 -0.3459,4.20892 -0.15661,0.69765 -0.3192,1.83924 -0.36129,2.53689 -0.0421,0.69764 -0.15605,1.65405 -0.25325,2.12536 -0.13675,0.66312 -0.14699,0.92216 -0.0453,1.14539 0.10671,0.2342 0.0823,0.44825 -0.12935,1.13834 -0.40524,1.32072 -1.21961,2.12174 -2.73854,2.69365 -0.60182,0.22659 -0.76519,0.34512 -0.89368,0.64835 -0.2244,0.5296 -0.20546,0.58585 0.26338,0.78174 0.52157,0.21791 0.72463,0.47565 0.72709,0.92282 0.004,0.67791 3.2e-4,0.67879 -2.31238,0.59502 -1.4691,-0.0532 -2.13478,-0.11926 -2.19569,-0.2178 -0.048,-0.0778 -0.0579,-0.35628 -0.022,-0.61888 0.0405,-0.29541 0.0163,-0.50784 -0.0635,-0.55713 -0.0709,-0.0438 -0.1289,-0.33935 -0.1289,-0.65673 v -0.57706 l -0.37478,0.0361 c -0.3369,0.0325 -0.37811,0.0769 -0.40803,0.43973 -0.0183,0.22197 -0.065,0.48142 -0.10364,0.57657 -0.0387,0.0952 -0.0756,0.43241 -0.082,0.74953 l -0.0117,0.57657 -0.69188,0.0926 c -0.38054,0.0508 -1.32274,0.11988 -2.09379,0.15331 -1.28796,0.0558 -1.40709,0.0436 -1.46593,-0.15018 z m 11.40483,-5.4039 c -0.32942,-0.32942 -0.40744,-0.49502 -0.40744,-0.86485 0,-0.25157 -0.0519,-0.4574 -0.11531,-0.4574 -0.15048,0 -0.14703,0.3623 0.007,0.77086 0.12942,0.34251 0.65988,0.95883 0.82528,0.95883 0.0536,0 -0.0858,-0.18335 -0.30986,-0.40744 z m -11.46267,-0.23444 c 0.19421,-0.10043 0.42206,-0.35479 0.51319,-0.57285 0.24616,-0.58915 0.18122,-0.76364 -0.0721,-0.1935 -0.16868,0.37978 -0.3339,0.5463 -0.71256,0.71817 -0.27113,0.12306 -0.39957,0.22489 -0.28545,0.22628 0.11415,9e-4 0.36472,-0.0787 0.55684,-0.1781 z m 7.60047,-1.97373 c 0.49031,-0.28964 0.62238,-0.73245 0.59053,-1.98008 -0.0154,-0.60043 -0.0548,-1.13525 -0.0877,-1.18848 -0.033,-0.0532 -0.48485,-0.0991 -1.00435,-0.10185 -0.51949,-0.003 -1.3337,-0.0502 -1.80936,-0.10532 -0.47567,-0.0551 -0.8777,-0.0876 -0.89341,-0.0721 -0.0156,0.0156 -0.0608,0.33638 -0.10015,0.7131 -0.16127,1.54311 0.40683,2.66196 1.47997,2.91468 0.62739,0.14776 1.39842,0.0717 1.82447,-0.17997 z m -2.14167,-0.15163 c -0.69829,-0.34566 -0.9008,-0.78194 -0.95742,-2.06261 l -0.0478,-1.08218 0.38919,0.0679 c 0.21407,0.0374 0.99395,0.10302 1.73307,0.14585 l 1.34388,0.0779 0.0778,0.99401 c 0.048,0.61367 0.0313,1.1153 -0.0437,1.31105 -0.28225,0.73635 -1.55137,1.01512 -2.49495,0.54805 z m 1.7232,-0.58568 c 0.16419,-0.19514 0.29723,-0.46756 0.29565,-0.60539 -0.003,-0.2184 -0.0623,-0.18762 -0.46542,0.23947 -0.2544,0.26954 -0.49958,0.48677 -0.54485,0.48272 -0.0452,-0.004 -0.2772,-0.24143 -0.5154,-0.52753 l -0.43306,-0.52019 0.41814,-0.51026 c 0.22997,-0.28066 0.45079,-0.50654 0.49072,-0.50197 0.13896,0.016 0.73636,0.80776 0.664,0.88011 -0.0401,0.0401 -0.19899,0.006 -0.35318,-0.0772 -0.35087,-0.18777 -0.64182,-0.085 -0.64182,0.22657 0,0.27389 0.25462,0.40788 0.54774,0.28824 0.18524,-0.0756 0.18288,-0.0901 -0.0288,-0.17721 -0.16805,-0.0692 -0.0786,-0.097 0.32962,-0.10293 0.55106,-0.008 0.55902,-0.0133 0.48574,-0.32521 -0.10724,-0.45646 -0.58039,-0.83602 -1.04215,-0.83602 -0.78543,0 -1.23557,1.024 -0.81102,1.84499 0.35448,0.68549 1.12439,0.79193 1.60413,0.22179 z m 5.47019,0.153 c 0.0653,-0.42811 0.14574,-1.27133 0.17876,-1.87384 0.033,-0.60252 0.1989,-1.71816 0.36861,-2.47923 0.2738,-1.22784 0.31485,-1.69704 0.36445,-4.16409 l 0.0559,-2.78033 -0.61929,-0.0611 c -0.34061,-0.0335 -0.62746,-0.0537 -0.63745,-0.0448 -0.015,0.0134 -0.0228,1.51079 -0.0291,5.58797 -8.8e-4,0.60183 -0.38493,1.47025 -1.02215,2.31157 -0.37112,0.48998 -0.45861,0.69378 -0.42076,0.98015 0.0263,0.19885 0.10247,0.95653 0.16928,1.68373 0.0668,0.72721 0.13188,1.33227 0.14461,1.34457 0.0614,0.0593 0.85971,0.25415 1.07935,0.26332 0.22058,0.01 0.2626,-0.0786 0.36776,-0.76795 z m -15.67066,0.15218 c 0.1933,-0.28097 0.35148,-0.53937 0.35148,-0.57422 0,-0.0348 -0.21821,-0.17468 -0.48488,-0.31074 l -0.4849,-0.24736 0.26885,-0.21768 c 0.59819,-0.48439 1.30814,-0.32223 1.46411,0.33442 0.0413,0.17361 0.13796,0.39349 0.21493,0.48862 0.077,0.0952 0.16719,0.25082 0.20046,0.34597 0.0479,0.13719 0.28433,0.17299 1.14184,0.17296 l 1.08131,-3e-5 v -1.55671 -1.55673 l -0.40359,-0.19538 c -0.22199,-0.10747 -0.8326,-0.30575 -1.35691,-0.44064 l -0.95331,-0.24526 -0.71873,0.46627 c -1.71792,1.11449 -2.27545,1.71574 -2.27545,2.45385 0,0.2888 0.0923,0.48566 0.3381,0.72117 0.2646,0.2535 1.1164,0.84936 1.24191,0.86875 0.0129,0.002 0.18146,-0.22628 0.37478,-0.50726 z m 0.7975,-0.86105 c 0.12697,-0.0805 0.10835,-0.14936 -0.0954,-0.3531 -0.14117,-0.14115 -0.32991,-0.2237 -0.42664,-0.18657 -0.0955,0.0366 -0.22114,0.0666 -0.27938,0.0666 -0.20409,0 -0.10293,0.17904 0.21124,0.37382 0.36901,0.22878 0.38223,0.23101 0.59017,0.0993 z m 4.17451,-2.73136 c 0.20484,-0.24682 -9.1e-4,-0.5669 -0.36495,-0.5669 -0.31378,0 -0.43216,0.32047 -0.21504,0.5821 0.18084,0.2179 0.3911,0.2124 0.57999,-0.0152 z m 8.66551,-0.11461 c 0.13789,-0.30266 0.0363,-0.63585 -0.19803,-0.65006 -0.17243,-0.0105 -0.38521,0.47385 -0.31915,0.72641 0.0821,0.31404 0.35784,0.27333 0.51718,-0.0763 z m -1.4405,-0.85637 c 1.22878,-0.26345 1.48851,-0.45135 2.38292,-1.72392 l 0.44859,-0.63824 -0.0788,-1.61501 c -0.0888,-1.818 -0.20873,-2.87999 -0.40825,-3.61376 -0.11726,-0.43132 -0.20563,-0.53055 -0.64596,-0.72532 -0.64388,-0.28481 -0.93612,-0.15861 -1.42773,0.61656 -0.64597,1.01861 -1.70856,1.55485 -2.84944,1.43799 -0.71457,-0.0732 -1.22847,-0.31788 -1.78347,-0.8492 l -0.41555,-0.39783 -0.14497,0.34998 c -0.18132,0.43772 -1.04343,1.24251 -1.56406,1.46004 -0.55557,0.23213 -1.73999,0.20558 -2.30299,-0.0516 -0.25369,-0.11589 -0.62866,-0.36793 -0.83326,-0.56006 -0.55197,-0.51834 -0.90223,-0.54323 -1.38743,-0.0986 -0.46762,0.42855 -0.48994,0.67465 -0.20475,2.25818 0.0971,0.53908 0.1766,1.48077 0.17668,2.09263 l 1.6e-4,1.11245 0.76365,0.13299 c 0.42,0.0731 1.02612,0.23272 1.34693,0.3546 0.40652,0.15447 0.62626,0.18593 0.72518,0.10386 0.0977,-0.0811 0.45928,-0.0578 1.16114,0.0748 2.50842,0.47378 5.56882,0.59527 7.04146,0.27954 z m -5.77398,-0.64852 c -0.71987,-0.22113 -1.92031,-1.34306 -1.92031,-1.79471 0,-0.3877 0.15481,-0.43655 1.0488,-0.33092 0.4062,0.0479 1.15369,0.0438 1.66106,-0.01 0.50737,-0.0531 1.8306,-0.15195 2.94048,-0.21969 1.41406,-0.0863 2.0966,-0.17439 2.28068,-0.29428 0.50217,-0.32706 0.6263,0.08 0.30866,1.01215 -0.22312,0.65482 -0.7303,1.18196 -1.35668,1.41008 -0.52856,0.19248 -2.59345,0.41907 -3.70309,0.40635 -0.38537,-0.005 -0.95219,-0.0853 -1.2596,-0.17971 z m 2.20083,10e-5 c 0.4006,-0.10737 0.18561,-0.27378 -0.35144,-0.27203 -0.58185,0.002 -1.00219,0.10362 -1.00219,0.2425 0,0.1147 0.95791,0.13559 1.35363,0.0295 z m 2.73998,-0.39058 c 0.19027,-0.0777 0.28396,-0.16426 0.2082,-0.19253 -0.0757,-0.0283 -0.25102,0.01 -0.38944,0.0834 -0.16861,0.0902 -0.27577,0.0957 -0.32465,0.0165 -0.11359,-0.18377 -0.66557,-0.2847 -1.10554,-0.20217 -0.40264,0.0755 -0.79702,0.36171 -0.70459,0.51127 0.0738,0.11952 1.91403,-0.0525 2.31602,-0.2165 z m -4.65123,-0.81577 c 0.14813,-0.0793 0.54104,-0.13171 0.87311,-0.11638 0.73495,0.0339 1.06827,-0.0602 1.06827,-0.30158 0,-0.13005 0.0847,-0.0906 0.29673,0.13815 0.27733,0.29923 0.33578,0.31446 0.89368,0.23256 0.32831,-0.0481 0.92491,-0.0774 1.32575,-0.0648 0.93265,0.0292 1.28916,-0.17518 1.28916,-0.73923 0,-0.3779 -0.0136,-0.39068 -0.3171,-0.29623 -0.46219,0.14387 -4.59026,0.40995 -6.16925,0.39763 -0.74521,-0.006 -1.35492,0.0106 -1.35492,0.0363 0,0.10024 0.2693,0.5611 0.44724,0.76534 0.15268,0.17526 0.2962,0.20341 0.78247,0.1535 0.32753,-0.0335 0.71671,-0.12605 0.86486,-0.2054 z m 8.36773,-4.8015 c -0.0249,-0.23924 -0.0458,-0.0718 -0.0464,0.3722 -4.4e-4,0.44396 0.0199,0.6397 0.0454,0.43499 0.0254,-0.2047 0.0259,-0.56793 8.7e-4,-0.80719 z m -9.36237,0.67449 c 0.55886,-0.25385 1.39304,-1.16601 1.49632,-1.63616 0.0408,-0.18599 0.10409,-0.33817 0.14053,-0.33817 0.0364,0 0.24545,0.20935 0.46448,0.46524 0.58727,0.68609 1.19921,0.96764 2.10313,0.96764 1.62657,0 2.81476,-1.27109 2.80199,-2.9975 -0.0124,-1.67439 -1.22664,-2.93389 -2.82622,-2.9315 -1.2041,0.002 -2.06622,0.61447 -2.61994,1.86188 -0.1223,0.27553 -0.22603,0.4379 -0.2305,0.36083 -0.0165,-0.28444 -0.77321,-0.9999 -1.33341,-1.26078 -1.07965,-0.50276 -2.09785,-0.30326 -3.01788,0.5913 -1.03702,1.00831 -1.22862,2.437 -0.49833,3.7157 0.71144,1.2457 2.25936,1.77408 3.51983,1.20152 z m -1.96478,-0.57856 c -1.57009,-0.72693 -1.92367,-2.79026 -0.67759,-3.95414 0.4389,-0.40995 0.85331,-0.55508 1.58503,-0.55508 1.33441,0 2.37176,1.22558 2.22673,2.63077 -0.16256,1.57506 -1.74323,2.52244 -3.13417,1.87845 z m 1.47841,-0.25095 c 0.62421,-0.17334 1.29351,-0.81494 1.43608,-1.37666 0.23049,-0.90803 -0.15037,-1.7195 -1.01418,-2.1609 -0.94771,-0.48426 -2.06697,-0.28749 -2.74276,0.48218 -1.06497,1.21294 -0.11593,3.10066 1.59198,3.16659 0.15856,0.007 0.48656,-0.0439 0.72888,-0.11121 z m -0.92246,-0.70533 c -0.13819,-0.0668 -0.31608,-0.27798 -0.39532,-0.46927 -0.40126,-0.96873 1.09731,-1.56967 1.61487,-0.64757 0.2149,0.38287 0.0173,0.93127 -0.40496,1.12365 -0.34105,0.15539 -0.48153,0.15422 -0.81459,-0.007 z m 0.74741,-0.74192 c 0.0379,-0.26488 -0.21298,-0.4245 -0.49617,-0.31583 -0.17897,0.0687 -0.23476,0.40273 -0.0912,0.54626 0.1644,0.16439 0.55281,0.0121 0.5874,-0.23043 z m 3.94338,0.98654 c -0.41692,-0.17465 -0.90867,-0.67376 -1.1759,-1.19351 -0.35242,-0.68544 -0.25735,-1.74155 0.21553,-2.39434 0.48602,-0.67095 1.0722,-0.95924 1.95038,-0.95924 0.58445,0 0.78137,0.0552 1.17815,0.33015 0.57937,0.40151 1.06059,1.29813 1.06059,1.97612 0,0.68266 -0.50038,1.61834 -1.06543,1.99227 -0.51268,0.33928 -1.63805,0.46858 -2.16332,0.24855 z m 1.76222,-0.37878 c 1.23212,-0.51778 1.68255,-2.13873 0.85009,-3.05922 -1.12156,-1.24015 -3.29246,-0.71527 -3.78062,0.91409 -0.23838,0.79566 0.22818,1.80739 0.98556,2.13714 0.46297,0.2016 1.47438,0.20574 1.94497,0.008 z m -1.27457,-0.61313 c -0.24279,-0.0977 -0.46991,-0.65555 -0.40504,-0.99487 0.12625,-0.66045 0.97785,-0.8761 1.47935,-0.37461 0.15567,0.15568 0.28304,0.41749 0.28304,0.5818 0,0.58869 -0.75828,1.02871 -1.35735,0.78768 z m 0.78079,-0.78768 c 0,-0.30768 -0.30519,-0.46564 -0.53353,-0.27613 -0.215,0.17842 -0.19924,0.41477 0.0364,0.54669 0.278,0.15557 0.49705,0.0364 0.49705,-0.27056 z m -9.45276,0.78643 c 0.39546,-0.35234 0.63913,-0.78496 0.87189,-1.54795 0.19706,-0.64593 0.94472,-1.52263 1.58965,-1.86399 0.36693,-0.1942 0.67428,-0.25204 1.34089,-0.25234 0.94843,-4.2e-4 1.30779,0.13649 2.03564,0.77555 0.25961,0.22796 0.44211,0.31941 0.47005,0.23557 0.025,-0.0754 0.22215,-0.36816 0.43785,-0.65064 0.55568,-0.72776 1.37686,-1.11572 2.35466,-1.11244 1.1446,0.004 1.92107,0.44479 2.5986,1.47572 0.44263,0.67353 0.6672,0.90493 1.07949,1.11234 0.21201,0.10666 0.40145,0.17712 0.42096,0.15659 0.0195,-0.0206 -0.1277,-0.37462 -0.32714,-0.78686 -0.22497,-0.46504 -0.65345,-1.04949 -1.12882,-1.53975 -0.64269,-0.66281 -0.80827,-0.77686 -1.02712,-0.7074 -0.20983,0.0666 -0.24698,0.0465 -0.18978,-0.10255 0.0768,-0.20017 -0.25992,-0.41885 -1.10296,-0.71629 -0.42154,-0.14872 -0.47906,-0.14521 -0.62967,0.0385 -0.15418,0.18815 -0.16197,0.18455 -0.11179,-0.0516 0.048,-0.22591 -0.0177,-0.27012 -0.59683,-0.40191 -0.62138,-0.14137 -2.7238,-0.19251 -2.84707,-0.0693 -0.0323,0.0323 -0.007,0.1957 0.0569,0.36305 0.0721,0.18978 0.0742,0.30427 0.006,0.30427 -0.0606,0 -0.14396,-0.13423 -0.18513,-0.29829 -0.0683,-0.27222 -0.11136,-0.29153 -0.49228,-0.22092 -0.75632,0.14022 -2.10983,0.76193 -2.03887,0.93652 0.20153,0.49582 0.19412,0.55693 -0.036,0.29671 -0.18215,-0.20598 -0.28208,-0.24049 -0.44207,-0.15264 -0.49512,0.27185 -1.99408,2.02899 -1.99408,2.33755 0,0.0546 0.10378,0.0992 0.23063,0.0992 0.34853,0 0.2764,0.21004 -0.0865,0.2518 -0.25139,0.029 -0.34629,0.1259 -0.45793,0.46787 -0.16572,0.50762 -0.32795,1.93253 -0.22004,1.93253 0.041,0 0.23067,-0.13907 0.42143,-0.30906 z m 15.75522,-0.43716 c 0.34469,-0.24143 0.40243,-0.70046 0.13143,-1.04498 -0.17766,-0.22586 -0.32889,-0.28444 -0.73428,-0.28444 -0.28079,0 -0.51054,0.0505 -0.51054,0.11243 0,0.0634 0.15051,0.0823 0.3446,0.0435 0.44921,-0.0899 0.95246,0.22283 0.90209,0.56048 -0.0197,0.13232 -0.17212,0.3419 -0.33861,0.46572 -0.2512,0.18683 -0.34608,0.20192 -0.55762,0.0887 -0.28727,-0.15375 -0.49455,-0.0488 -0.2318,0.11739 0.25359,0.16038 0.72125,0.13272 0.99473,-0.0588 z m -4.62316,-4.91588 c 0.0768,-0.12437 0.76199,-0.45085 0.94036,-0.44809 0.0496,8.7e-4 -0.13565,0.13048 -0.41166,0.28827 -0.55917,0.31967 -0.64318,0.34506 -0.5287,0.15982 z"
         id="path27" />
    </g>
  </g>
</svg>
