<?xml version="1.0" encoding="UTF-8" standalone="no"?>
<!-- Created with Inkscape (http://www.inkscape.org/) -->

<svg
   width="41.008999mm"
   height="41.008999mm"
   viewBox="0 0 41.008999 41.009"
   version="1.1"
   id="svg1"
   inkscape:version="1.4.2 (f4327f4, 2025-05-13)"
   sodipodi:docname="276.svg"
   xmlns:inkscape="http://www.inkscape.org/namespaces/inkscape"
   xmlns:sodipodi="http://sodipodi.sourceforge.net/DTD/sodipodi-0.dtd"
   xmlns="http://www.w3.org/2000/svg"
   xmlns:svg="http://www.w3.org/2000/svg">
  <sodipodi:namedview
     id="namedview1"
     pagecolor="#ffffff"
     bordercolor="#000000"
     borderopacity="0.25"
     inkscape:showpageshadow="2"
     inkscape:pageopacity="0.0"
     inkscape:pagecheckerboard="0"
     inkscape:deskcolor="#d1d1d1"
     inkscape:document-units="mm"
     inkscape:zoom="2.8970539"
     inkscape:cx="82.497603"
     inkscape:cy="88.365633"
     inkscape:window-width="1168"
     inkscape:window-height="1081"
     inkscape:window-x="3737"
     inkscape:window-y="0"
     inkscape:window-maximized="0"
     inkscape:current-layer="layer1" />
  <defs
     id="defs1" />
  <g
     inkscape:label="Layer 1"
     inkscape:groupmode="layer"
     id="layer1"
     transform="translate(-114.0891,-77.774176)">
    <g
       id="g157"
       transform="translate(-482.61862,153.63423)">
      <ellipse
         style="fill:none;stroke:#ff00ff;stroke-width:0.1;stroke-dasharray:none;stroke-opacity:1"
         id="path1138-9-4-0-0-1-2-4-9-7-82-6-75-2-1-90-8-8"
         cx="617.21222"
         cy="-55.35556"
         rx="18.492125"
         ry="18.492126" />
      <circle
         style="fill:none;stroke:#ff0000;stroke-width:0.1;stroke-dasharray:none"
         id="path788-8-1-8-1-9-2-6-3-4-7-1-6-1-0-8-3-6-1-0-9-0"
         cx="617.21222"
         cy="-55.355556"
         r="19.954653" />
      <circle
         style="fill:none;stroke:#0000ff;stroke-width:0.1;stroke-linecap:round;stroke-dasharray:none;stroke-opacity:1;paint-order:markers stroke fill"
         id="path13019-1-33-3-83-70-3-7-5-9-5-4-1-5-2-2-8-21"
         cx="617.21222"
         cy="-70.366547"
         r="2" />
      <path
         style="fill:#000000;stroke-width:0.33511"
         d="m 618.42703,-38.902062 c -0.2926,-0.06413 -0.80376,-0.225787 -1.13594,-0.359225 -0.54123,-0.217419 -0.60241,-0.26673 -0.58909,-0.474827 0.0402,-0.628394 -0.008,-0.985859 -0.1317,-0.985859 -0.19216,0 -0.26041,-0.169787 -0.23849,-0.593242 0.0169,-0.327355 -0.005,-0.382065 -0.15439,-0.382065 -0.32478,0 -0.45466,0.10259 -0.45466,0.359113 0,0.138314 -0.0698,0.303616 -0.15516,0.367338 -0.11915,0.08897 -0.15369,0.239332 -0.1488,0.647847 0.004,0.292591 -0.01,0.579677 -0.0298,0.637966 -0.0617,0.180785 -1.35767,0.619575 -2.14079,0.724809 -1.54382,0.207457 -1.9066,0.105412 -2.00887,-0.565052 -0.0692,-0.453776 0.13522,-0.731709 0.75444,-1.025698 0.40777,-0.193596 0.57184,-0.348343 0.36933,-0.348343 -0.0435,0 -0.10331,-0.09667 -0.13296,-0.214829 -0.0956,-0.380916 -0.48537,-0.74328 -1.0108,-0.939755 -0.86499,-0.323445 -1.70809,-0.8124 -2.16029,-1.252862 -0.26058,-0.253809 -0.54811,-0.444882 -0.71984,-0.478366 -0.30757,-0.05997 -1.93702,-1.267637 -2.20749,-1.636077 -0.26011,-0.354338 -0.42806,-1.482824 -0.42806,-2.876174 v -1.264614 l 0.43138,-0.567374 c 0.23726,-0.312058 0.51655,-0.643384 0.62065,-0.73628 0.27047,-0.241366 0.23951,-0.331146 -0.21275,-0.61687 -0.46758,-0.295407 -0.66195,-0.619226 -0.66195,-1.102807 0,-0.542301 0.45242,-1.073253 1.69453,-1.988639 0.30465,-0.22452 0.32241,-0.266449 0.36501,-0.861846 0.0335,-0.467561 0.10064,-0.709842 0.26568,-0.957981 0.17145,-0.257774 0.26615,-0.619149 0.42294,-1.61402 0.11112,-0.705034 0.19564,-1.443167 0.18782,-1.640293 -0.0477,-1.202275 -0.002,-2.127 0.11145,-2.257603 0.0669,-0.07705 0.18847,-0.34528 0.27006,-0.596066 0.36563,-1.123779 1.43299,-2.457065 2.75603,-3.442653 0.14991,-0.111686 0.11149,-0.110278 -0.24864,0.0091 -0.7016,0.232597 -0.58446,0.05813 0.2124,-0.316324 0.85813,-0.403255 0.8711,-0.456179 0.0346,-0.141334 -0.8102,0.304958 -0.62162,0.103165 0.34606,-0.370305 0.44449,-0.217482 0.73464,-0.371999 0.64477,-0.343367 -0.0899,0.02863 -0.26941,0.07614 -0.39899,0.105579 -0.22452,0.05101 -0.22725,0.04753 -0.0583,-0.07405 0.47333,-0.340512 1.88848,-0.689548 2.79573,-0.689548 0.34259,0 0.78435,0.08127 1.19972,0.220704 0.92371,0.310076 1.80279,0.435462 2.22706,0.317648 0.77296,-0.214639 1.60732,-0.08913 2.62658,0.395106 0.70138,0.333212 2.36399,1.949024 2.36638,2.299767 3.3e-4,0.0471 -0.20888,-0.115742 -0.4649,-0.36187 -0.25602,-0.246128 -0.64503,-0.583729 -0.86448,-0.750225 l -0.39899,-0.30272 0.24705,0.298395 c 0.3214,0.388195 0.53894,0.809122 0.41817,0.809122 -0.11514,0 0.11844,0.379598 0.5033,0.817936 0.54114,0.616322 1.18109,2.146677 1.18109,2.824392 0,0.111731 0.0831,0.291636 0.18474,0.399788 0.1016,0.108152 0.21696,0.339548 0.25635,0.514212 0.10345,0.458679 -0.0461,1.608172 -0.25298,1.94413 -0.27715,0.450136 -0.60621,4.227943 -0.36827,4.227943 0.0472,0 0.13999,0.103369 0.20619,0.229711 l 0.12036,0.229708 0.1416,-0.216109 c 0.30734,-0.46907 1.13244,-0.50487 1.5293,-0.06636 0.22832,0.252301 0.31476,0.220777 0.28883,-0.105335 -0.0206,-0.259784 0.006,-0.291254 0.32591,-0.383071 0.34841,-0.100037 0.34841,-0.100037 0.14971,-0.298734 -0.10929,-0.109286 -0.18578,-0.265765 -0.17,-0.347736 0.0383,-0.199113 0.42919,-0.377672 0.68198,-0.311569 0.18543,0.04849 0.19811,0.08752 0.14452,0.444846 -0.0587,0.391686 -0.0587,0.391686 0.23563,0.338906 0.16191,-0.02902 0.47392,-0.08334 0.69336,-0.12069 0.37351,-0.06357 0.39778,-0.0846 0.38005,-0.329222 -0.035,-0.482638 -0.11771,-0.666091 -0.33819,-0.749915 -0.38755,-0.147348 -0.21564,-0.639129 0.26565,-0.759922 0.51998,-0.130506 0.90354,0.150347 0.68444,0.501173 -0.0925,0.148139 -0.094,0.278339 -0.008,0.66443 l 0.10746,0.480181 0.46423,-0.05456 0.46422,-0.05456 0.13545,0.47658 c 0.0745,0.262116 0.13621,0.676071 0.13714,0.9199 10e-4,0.243826 0.0141,0.520147 0.0292,0.614045 0.0219,0.135975 -0.0627,0.198107 -0.41578,0.305275 -0.24383,0.07401 -0.45128,0.138139 -0.46101,0.142516 -0.01,0.0044 0.0634,0.27363 0.16251,0.598331 0.14307,0.468736 0.21979,0.596007 0.37235,0.617739 0.13402,0.0191 0.2005,0.09974 0.21976,0.266616 0.0233,0.201562 -0.0285,0.267901 -0.32896,0.421157 -0.42693,0.217804 -0.65668,0.229996 -0.81181,0.04307 -0.0902,-0.108707 -0.0931,-0.200097 -0.0134,-0.421156 0.083,-0.230066 0.0723,-0.377568 -0.0576,-0.796902 -0.0877,-0.283016 -0.19628,-0.514168 -0.24131,-0.513666 -0.045,6.45e-4 -0.32492,0.0667 -0.62195,0.147103 -0.4836,0.130901 -0.53604,0.167304 -0.50148,0.348072 0.0212,0.111035 0.13458,0.245619 0.25191,0.299079 0.33018,0.150441 0.23172,0.476121 -0.2161,0.714702 -0.39925,0.212711 -0.8305,-0.07026 -0.64248,-0.421578 0.10081,-0.188352 0.0209,-0.635904 -0.11324,-0.634095 -0.29851,0.004 -0.36651,0.169736 -0.34389,0.837972 0.0226,0.667663 0.0226,0.667663 -0.42116,1.128047 -0.24407,0.253212 -0.44375,0.485722 -0.44375,0.516686 0,0.181767 -0.44241,0.441866 -0.75158,0.441866 -0.3915,0 -1.05401,-0.349651 -1.20812,-0.63761 -0.17665,-0.33008 -0.2429,-0.0083 -0.26424,1.28335 -0.0171,1.034712 0.002,1.240928 0.1293,1.381359 0.2443,0.269958 0.32012,0.692558 0.23947,1.33485 -0.194,1.545017 -1.4875,2.982002 -3.12258,3.46895 -0.83093,0.247462 -1.22123,0.592974 -1.40885,1.247192 -0.0671,0.233943 -0.0448,0.264435 0.32927,0.451282 0.57143,0.285387 0.85042,0.64132 0.77749,0.991928 -0.12887,0.619498 -0.22404,0.675857 -1.12822,0.668065 -0.44995,-0.0039 -1.05749,-0.05952 -1.35009,-0.123658 z m 2.11381,-0.201783 c 0.0223,-0.03657 -0.36429,-0.07235 -0.85924,-0.07951 -0.83063,-0.012 -1.88197,-0.224587 -2.57692,-0.521045 -0.11494,-0.04903 -0.15039,-0.04115 -0.10987,0.02443 0.0689,0.111468 0.99324,0.432738 1.57131,0.546129 0.49497,0.09709 1.92045,0.118749 1.97472,0.02999 z m -6.18891,-0.382441 c 0.47021,-0.150618 0.83391,-0.294873 0.80822,-0.320562 -0.0257,-0.0257 -0.29863,0.03463 -0.60653,0.13405 -0.8175,0.263956 -1.49702,0.382028 -2.28552,0.397125 -0.394,0.0075 -0.67593,0.04854 -0.64773,0.09419 0.10672,0.172672 1.84732,-0.02155 2.73156,-0.304799 z m 5.0503,-1.38091 c 0.0664,-0.02547 0.16441,-0.171664 0.21781,-0.324859 0.0534,-0.153192 0.20582,-0.392374 0.33869,-0.531515 l 0.24159,-0.252981 -1.15264,0.05596 c -0.63395,0.03076 -1.27234,0.01991 -1.41863,-0.02416 -0.25657,-0.0773 -0.25029,-0.08206 0.17733,-0.134466 0.24383,-0.02989 0.84231,-0.07943 1.32997,-0.110104 2.28394,-0.143672 3.29827,-0.563976 4.15288,-1.720822 0.5657,-0.765757 0.76342,-1.336033 0.76589,-2.209045 0.002,-0.581734 -0.0219,-0.723368 -0.10873,-0.654653 -0.13386,0.105907 -1.66533,0.227378 -1.87112,0.148406 -0.12716,-0.04879 -0.14599,-0.239617 -0.14599,-1.47891 0,-1.422887 0,-1.422887 -0.18252,-1.257711 -0.23703,0.214504 -0.39602,0.115818 -0.67664,-0.419986 l -0.2139,-0.408406 -0.85213,0.300598 c -0.46867,0.165326 -0.86231,0.310777 -0.87475,0.32322 -0.0124,0.01243 -0.0898,0.521344 -0.17202,1.130892 -0.22514,1.670063 -0.53218,2.061384 -1.69643,2.162038 -1.41911,0.122691 -1.49961,0.142733 -1.65934,0.413117 -0.0823,0.139294 -0.35523,0.351996 -0.61446,0.478821 -0.42583,0.208341 -0.55853,0.227486 -1.52511,0.220017 l -1.05869,-0.0082 -0.46745,0.486428 c -0.45067,0.468973 -0.58296,0.543032 -1.93194,1.081618 -0.20541,0.08201 -0.16464,0.08181 -0.62065,0.003 l -0.35465,-0.0613 0.31032,0.268916 c 0.47343,0.410251 1.60286,0.971007 2.33063,1.157137 0.35888,0.09179 1.20013,0.21755 1.86944,0.279472 0.87072,0.08056 1.17363,0.136819 1.06473,0.197762 -0.16522,0.09246 -2.08826,0.02553 -2.38392,-0.08297 -0.16744,-0.06145 -0.16888,-0.05597 -0.0277,0.105542 0.082,0.0937 0.18931,0.276382 0.23857,0.405966 0.0825,0.21696 0.14191,0.240512 0.75076,0.297567 0.6024,0.05645 0.99657,0.03594 1.93783,-0.100831 0.30298,-0.04402 0.32959,-0.07203 0.35467,-0.373128 0.0271,-0.325532 0.0271,-0.325532 0.55908,-0.325532 h 0.53199 v 0.422372 c 0,0.471007 0.0106,0.479063 0.79479,0.603385 0.43968,0.06971 1.8067,0.02775 2.04237,-0.06267 z m 3.17417,-3.84109 c -0.36371,-0.221765 -0.56035,-0.607082 -0.62386,-1.222471 -0.0409,-0.395985 -0.0267,-0.48168 0.0739,-0.448136 0.0684,0.02282 0.15054,0.217701 0.18246,0.43309 0.0951,0.641608 0.2241,0.861222 0.67057,1.141579 0.36776,0.230924 0.39466,0.266489 0.20245,0.267662 -0.12191,6.45e-4 -0.34939,-0.07653 -0.50551,-0.171724 z m -11.552,0.351597 c -0.12015,-0.07426 -1.5163,0.466205 -1.39928,0.541672 0.0465,0.02999 0.40219,-0.06613 0.79038,-0.213613 0.38821,-0.147485 0.6622,-0.295114 0.6089,-0.328059 z m -1.17566,0.07203 c 0.40343,-0.14707 0.73148,-0.318258 0.73148,-0.381717 0,-0.06328 0.23123,-0.329132 0.51383,-0.590775 0.43347,-0.401321 0.59723,-0.492944 1.04715,-0.58587 0.61875,-0.1278 1.73427,-0.146392 1.85704,-0.03093 0.0501,0.04708 0.27701,0.0048 0.55956,-0.10428 0.4083,-0.157612 0.49803,-0.236433 0.63627,-0.558942 0.19418,-0.453005 0.52869,-1.955075 0.52869,-2.374016 v -0.301187 l -0.76442,0.23829 c -0.6433,0.200533 -0.78542,0.279619 -0.89698,0.499136 -0.4882,0.960623 -1.28039,1.21724 -2.27161,0.735851 -0.36722,-0.178339 -0.36722,-0.178339 -1.86245,0.267146 -0.82239,0.245016 -1.51254,0.462784 -1.53368,0.483922 -0.0212,0.02114 0.0202,0.292139 0.0918,0.602223 0.1498,0.648458 0.15143,0.646088 -0.54351,0.791352 -0.6388,0.133528 -0.75612,0.09532 -0.83071,-0.270507 -0.0849,-0.416599 -0.25489,-2.460953 -0.25489,-3.066068 0,-0.516759 0.0366,-0.560886 0.49356,-0.594123 0.24634,-0.01793 0.26923,0.01079 0.43305,0.542758 0.16217,0.526578 0.1871,0.558473 0.399,0.510442 0.35163,-0.07971 2.8498,-0.828646 2.88071,-0.863621 0.0151,-0.01712 0.0552,-0.120938 0.0889,-0.230664 0.0577,-0.187926 0.0366,-0.199376 -0.36581,-0.19748 -0.23492,9.97e-4 -0.94582,-0.06549 -1.57977,-0.147981 -1.26142,-0.16415 -1.49554,-0.276526 -1.62531,-0.780122 -0.12699,-0.492863 -0.35647,-0.388292 -1.01233,0.461305 l -0.59836,0.77511 0.003,0.79798 c 0.004,1.052959 0.12737,2.394936 0.26123,2.841728 0.0684,0.228284 0.20904,0.428549 0.38695,0.551001 0.15373,0.105804 0.5787,0.431256 0.94437,0.723228 0.4633,0.369917 0.75898,0.540827 0.97531,0.563751 0.36264,0.03843 0.35676,0.03981 1.30792,-0.306923 z m 1.90255,-0.578206 c 0.3821,-0.373111 0.39994,-0.429322 0.17457,-0.549935 -0.12991,-0.06953 -0.24567,-0.01153 -0.58958,0.295373 -0.39447,0.352029 -0.41477,0.389542 -0.2595,0.479693 0.2554,0.148299 0.31113,0.129697 0.67451,-0.225131 z m 3.26216,-0.924269 c 0,-0.05299 -0.0499,-0.07777 -0.11083,-0.05506 -0.061,0.02272 -0.2591,0.09435 -0.44031,0.159204 -0.25215,0.09024 -0.30733,0.144586 -0.23515,0.231564 0.0756,0.09114 0.16285,0.0787 0.44031,-0.06285 0.19028,-0.09708 0.34598,-0.219862 0.34598,-0.272853 z m -2.43828,0.27728 c -0.0301,-0.04877 -0.1346,-0.08866 -0.23213,-0.08866 -0.0975,0 -0.15266,0.0399 -0.12252,0.08866 0.0301,0.04876 0.13459,0.08867 0.23212,0.08867 0.0975,0 0.15268,-0.0399 0.12253,-0.08867 z m 1.28564,-0.04433 c 0,-0.103365 -0.11791,-0.132995 -0.52921,-0.132995 -0.43398,0 -0.52002,0.02393 -0.47816,0.132995 0.0366,0.09547 0.18595,0.132999 0.5292,0.132999 0.36592,0 0.47817,-0.03123 0.47817,-0.132999 z m -5.8382,-0.31264 0.32399,-0.08999 -0.11888,-0.450675 c -0.0654,-0.247871 -0.1379,-0.469684 -0.16114,-0.49292 -0.0232,-0.02323 -0.14176,0.02295 -0.26339,0.102654 -0.28758,0.188433 -0.32874,0.117919 -0.46108,-0.78983 -0.10665,-0.731569 -0.0623,-0.902498 0.20838,-0.803021 0.0902,0.03318 0.10318,-0.02416 0.0552,-0.244758 -0.11731,-0.539335 -0.20223,-0.68732 -0.35972,-0.626883 -0.15326,0.05881 -0.14827,0.630379 0.0245,2.79925 0.0609,0.765207 0.0824,0.782213 0.75219,0.596171 z m 7.47819,-0.418841 c 0.31793,-0.566101 0.61604,-1.309247 0.75118,-1.872587 0.097,-0.40433 0.093,-0.48354 -0.0317,-0.62128 -0.0786,-0.08682 -0.14698,-0.214571 -0.152,-0.283879 -0.005,-0.06931 -0.0842,0.305212 -0.17588,0.832269 -0.0917,0.527058 -0.27016,1.20534 -0.39656,1.507297 -0.1264,0.301955 -0.2514,0.618834 -0.27778,0.704173 -0.0877,0.283657 0.0432,0.160488 0.28274,-0.265993 z m 2.49532,-0.475795 c 0.36085,-0.299471 0.49378,-0.638522 0.62486,-1.593716 0.0739,-0.538371 0.11285,-1.00033 0.0866,-1.026575 -0.0263,-0.02624 -0.48412,0.09769 -1.01751,0.275426 l -0.96978,0.323147 -0.1552,0.639189 c -0.0854,0.351553 -0.24996,0.853621 -0.36577,1.115707 -0.11581,0.262087 -0.21056,0.504736 -0.21056,0.539219 0,0.09935 1.86426,-0.153631 2.00736,-0.272397 z m 5.58221,-0.146215 c 0.0608,-0.04064 0.11914,-0.65452 0.15516,-1.631761 0.0512,-1.390495 0.0405,-1.596688 -0.0958,-1.834066 -0.0844,-0.147094 -0.12215,-0.298788 -0.0838,-0.337098 0.0383,-0.03831 0.10457,-0.01096 0.14725,0.06078 0.17519,0.294454 0.86194,1.049779 1.11522,1.226566 0.30044,0.209712 0.85078,0.253182 0.99601,0.07867 0.0723,-0.08689 -0.0107,-0.10432 -0.38419,-0.08069 -0.41407,0.02621 -0.50594,6.45e-4 -0.70203,-0.195463 -0.14179,-0.141798 -0.2256,-0.324785 -0.2256,-0.492574 0,-0.175611 -0.0889,-0.357875 -0.2597,-0.532627 -0.14283,-0.146112 -0.29356,-0.326196 -0.33497,-0.400188 -0.0669,-0.119581 -0.12705,-0.117979 -0.54109,0.01441 -0.38479,0.123052 -0.52901,0.232673 -0.8292,0.630271 l -0.36339,0.481309 -0.0374,1.540154 -0.0374,1.540152 0.69175,-0.0013 c 0.38047,-6.45e-4 0.7356,-0.03066 0.78918,-0.0665 z m -15.56938,-0.286801 c 0,-0.04877 -0.0622,-0.08866 -0.13823,-0.08866 -0.076,0 -0.11357,0.0399 -0.0834,0.08866 0.0301,0.04876 0.0923,0.08866 0.13823,0.08866 0.0459,0 0.0834,-0.0399 0.0834,-0.08866 z m 1.81864,-0.480564 c 1.25143,-0.37726 1.44621,-0.452894 1.3659,-0.530399 -0.0586,-0.05653 -2.91705,0.781855 -2.91784,0.855801 -0.001,0.120806 0.23871,0.07049 1.55194,-0.325402 z m -1.9073,0.08157 c 0,-0.07315 -0.0399,-0.132995 -0.0887,-0.132995 -0.0488,0 -0.0887,0.05985 -0.0887,0.132995 0,0.07315 0.0399,0.132998 0.0887,0.132998 0.0488,0 0.0887,-0.05985 0.0887,-0.132998 z m 1.7792,-0.436457 c 1.35237,-0.395782 1.4835,-0.445713 1.35212,-0.514873 -0.10959,-0.05769 -2.86533,0.739819 -2.86533,0.829216 0,0.121136 0.0869,0.103093 1.51321,-0.314343 z m -1.92447,-0.0069 c -0.0281,-0.07315 -0.0667,-0.132998 -0.0859,-0.132998 -0.0192,0 -0.0348,0.05985 -0.0348,0.132998 0,0.07315 0.0386,0.132996 0.0859,0.132996 0.0473,0 0.0629,-0.05985 0.0348,-0.132996 z m 1.68163,-0.315087 c 0.69111,-0.197678 1.32639,-0.37991 1.41173,-0.404963 0.0853,-0.02507 0.15517,-0.103469 0.15517,-0.174261 0,-0.151138 0.0277,-0.156888 -1.70908,0.354419 -0.68642,0.202078 -1.26429,0.416196 -1.28416,0.475819 -0.0535,0.160521 0.0533,0.141725 1.42634,-0.251014 z m 10.921,-1.955721 c 3.6757,-1.249598 3.36123,-1.136015 3.30391,-1.193333 -0.0336,-0.03365 -6.44935,1.816942 -7.4041,2.135702 -0.0837,0.02792 -0.0869,0.08821 -0.0134,0.249603 0.097,0.212782 0.097,0.212782 0.55362,0.0379 0.25116,-0.09618 1.85313,-0.649624 3.55992,-1.22987 z m -4.98738,0.970599 c 0.18287,-0.05619 0.33249,-0.140013 0.33249,-0.186278 0,-0.04626 -0.0548,-0.0631 -0.12168,-0.03742 -0.0669,0.02567 -0.40607,0.131387 -0.75365,0.234902 -0.34758,0.103513 -0.63197,0.224507 -0.63197,0.268876 0,0.04437 0.18953,0.02249 0.42116,-0.04863 0.23164,-0.07111 0.57078,-0.175265 0.75365,-0.231453 z m -0.32563,-0.264851 c 0.36291,-0.105449 0.64028,-0.21129 0.61636,-0.235204 -0.0718,-0.07179 -1.5542,0.355566 -1.5542,0.448059 0,0.04705 0.0625,0.06155 0.139,0.0322 0.0764,-0.02932 0.43592,-0.139616 0.79884,-0.245066 z m 4.91402,-1.095953 c 1.92623,-0.574673 3.54214,-1.083829 3.59091,-1.131455 0.0584,-0.05704 0.0433,-0.07174 -0.0443,-0.04308 -0.0732,0.02393 -1.75853,0.517688 -3.7453,1.097224 -1.98676,0.579538 -3.61265,1.088282 -3.61307,1.130543 -0.001,0.09305 -0.3998,0.203254 3.8118,-1.053234 z m 1.99032,0.603627 c 0.21832,-0.278169 0.38105,-0.521663 0.36162,-0.541099 -0.0589,-0.05888 -1.1993,0.346447 -1.1993,0.426256 0,0.118113 0.30361,0.619427 0.37552,0.620047 0.0359,3.08e-4 0.24383,-0.227033 0.46216,-0.505204 z m -6.9777,0.147659 c 0.40159,-0.11942 0.64282,-0.237824 0.64282,-0.315516 0,-0.154445 -0.0295,-0.153826 -0.57632,0.0121 -0.24383,0.07399 -0.59128,0.174394 -0.7721,0.223119 -0.23753,0.064 -0.3146,0.12557 -0.27766,0.221813 0.0281,0.07327 0.11621,0.114417 0.19578,0.09143 0.0796,-0.02299 0.43393,-0.127805 0.78748,-0.232939 z m 10.9543,0.14965 c 0.35453,-0.148136 0.86024,-0.709833 0.86024,-0.955485 0,-0.155005 -0.0677,-0.121609 -0.44979,0.221943 -0.47047,0.422989 -0.86041,0.56026 -1.32664,0.467016 -0.2905,-0.0581 -0.33654,0.03396 -0.12352,0.246985 0.17102,0.171021 0.65539,0.180122 1.03971,0.01954 z m -6.78903,-1.00229 c 1.62037,-0.47411 2.93204,-0.876111 2.91482,-0.89333 -0.0369,-0.03685 -5.9122,1.638112 -5.97844,1.704349 -0.10595,0.105958 0.26816,0.0069 3.06362,-0.811019 z m -7.1375,0.662234 c 0.50035,-0.149912 0.88625,-0.533317 0.85046,-0.844967 -0.0313,-0.272591 -0.0596,-0.277953 -0.85914,-0.162816 -0.66473,0.09572 -0.5788,-0.131691 0.10124,-0.267917 0.60866,-0.121926 0.92989,-0.320894 1.00569,-0.622902 0.0784,-0.31249 -0.20699,-0.678618 -0.60844,-0.780491 -0.27232,-0.06911 -0.37223,-0.04493 -0.73284,0.17733 -0.74922,0.461761 -0.85095,0.504659 -0.95355,0.402058 -0.0675,-0.06753 -0.0448,-0.114979 0.0785,-0.16418 0.0954,-0.03805 0.38499,-0.207875 0.64351,-0.377367 l 0.47005,-0.308167 -0.23444,-0.201653 c -0.35359,-0.304145 -0.61617,-0.257122 -1.10202,0.197336 -0.23461,0.219444 -0.46339,0.398989 -0.50841,0.398989 -0.045,0 -0.29426,0.159596 -0.55386,0.35466 -0.46245,0.347479 -0.72019,0.44267 -0.72019,0.265994 0,-0.04877 0.0423,-0.08867 0.0939,-0.08867 0.0516,0 0.0692,-0.0399 0.0391,-0.08866 -0.0834,-0.134892 -0.51233,-0.105858 -0.73443,0.04971 -0.30385,0.212822 -0.46255,0.602762 -0.46255,1.136522 0,0.583389 0.12329,0.736394 0.64388,0.799083 0.20667,0.0249 0.63511,0.08156 0.95208,0.125928 0.85577,0.119798 2.1919,0.119888 2.59147,1.77e-4 z m 2.62691,-0.214544 c 0.42157,-0.12709 0.79913,-0.261486 0.83904,-0.29866 0.11775,-0.109672 -0.17634,-0.698017 -0.47905,-0.958361 -0.50462,-0.434007 -1.27041,-0.905852 -1.47016,-0.905852 -0.17232,0 -0.19008,0.03539 -0.14798,0.294819 0.0372,0.229062 -5.8e-4,0.351196 -0.16956,0.547567 -0.19254,0.223846 -0.20448,0.277655 -0.1044,0.470558 0.0772,0.148825 0.087,0.28613 0.031,0.433514 -0.10929,0.287438 -0.10771,0.292826 0.0855,0.292826 0.0921,0 0.2617,0.07847 0.37683,0.174378 0.11512,0.09591 0.22349,0.175705 0.24082,0.17733 0.0174,0.0017 0.37643,-0.101032 0.79799,-0.228119 z m 11.19121,-0.08475 c 0.31496,-0.160046 0.86335,-0.784023 0.93303,-1.061602 0.14536,-0.579173 -0.33212,-1.835186 -0.85214,-2.24156 -0.53553,-0.418491 -1.15152,-0.190959 -1.15152,0.425345 0,0.234631 0.0634,0.385025 0.22719,0.538897 0.38905,0.365498 0.58425,0.758477 0.55414,1.115648 -0.0385,0.456215 -0.20518,0.465967 -0.43006,0.02517 -0.22129,-0.433757 -0.67762,-0.880005 -0.8999,-0.880005 -0.37386,0 -0.4479,0.718954 -0.12574,1.220899 0.23436,0.365145 0.82125,0.947694 1.02903,1.021414 0.15419,0.05471 0.39295,-4.3e-5 0.71597,-0.16419 z m -9.89275,0.04983 c 0.0301,-0.04877 0.0125,-0.08866 -0.0391,-0.08866 -0.0516,0 -0.0939,0.0399 -0.0939,0.08866 0,0.04876 0.0176,0.08866 0.0391,0.08866 0.0215,0 0.0638,-0.0399 0.0939,-0.08866 z m 14.34588,-0.504729 0.28377,-0.150073 -0.2421,-0.08809 c -0.19575,-0.07123 -0.27847,-0.199512 -0.43213,-0.670076 -0.17225,-0.527523 -0.34542,-0.866299 -0.34542,-0.675773 0,0.04107 0.084,0.356869 0.18676,0.70177 0.14295,0.480002 0.16375,0.663943 0.0887,0.784171 -0.0539,0.08639 -0.0981,0.177565 -0.0981,0.202607 0,0.0937 0.28435,0.04049 0.55855,-0.104533 z m -13.20172,-0.182421 0.80646,-0.24383 -0.44332,-0.05873 c -0.56979,-0.07549 -1.72896,-0.0901 -1.72896,-0.02178 0,0.09258 0.39609,0.558186 0.47918,0.563269 0.0441,0.0027 0.44309,-0.104816 0.88664,-0.23892 z m 11.05955,-0.107882 c 0.2045,-0.17036 0.20502,-0.174448 0.0227,-0.17733 -0.1297,-0.002 -0.21723,-0.0909 -0.28679,-0.291106 l -0.10012,-0.288162 0.0371,0.330868 c 0.0204,0.181978 -5.9e-4,0.354305 -0.0471,0.38295 -0.0928,0.05734 -0.0256,0.217161 0.0914,0.217161 0.0405,0 0.16781,-0.07847 0.28293,-0.174381 z m -20.53217,-0.402712 c 0.0321,-0.171103 0.13392,-0.407158 0.22627,-0.524567 0.16739,-0.212802 0.16709,-0.214303 -0.0987,-0.480062 -0.27466,-0.274666 -0.33753,-0.491918 -0.17196,-0.594247 0.0521,-0.0322 0.11651,0.0252 0.14334,0.127764 0.0586,0.224232 0.0991,0.229678 0.30713,0.04139 0.088,-0.07968 0.30648,-0.149499 0.48543,-0.155163 0.41517,-0.01314 0.50864,0.188788 0.10532,0.227513 -0.21575,0.02071 -0.30037,0.07589 -0.31932,0.208201 -0.023,0.160326 0.0139,0.176234 0.33692,0.145427 0.24799,-0.02366 0.41253,0.01052 0.52027,0.108009 0.1459,0.13204 0.17248,0.126732 0.35887,-0.07167 0.23767,-0.252995 0.21456,-0.441983 -0.1805,-1.475736 -0.30918,-0.809036 -0.67384,-1.214389 -0.95643,-1.06315 -0.10249,0.05485 -0.18635,0.150709 -0.18635,0.213019 0,0.130153 -0.36611,0.481801 -0.75146,0.72177 -0.45727,0.284753 -1.13096,0.96461 -1.26056,1.272087 -0.18314,0.434507 -0.0253,0.833053 0.46306,1.169037 0.35693,0.245569 0.70425,0.422055 0.8578,0.435864 0.0343,0.003 0.0887,-0.134372 0.12084,-0.305476 z m 12.76169,0.133769 c 0.11177,-0.04803 0.12816,-0.0762 0.0443,-0.0762 -0.0732,0 -0.2128,0.03429 -0.31033,0.0762 -0.11177,0.04803 -0.12816,0.0762 -0.0443,0.0762 0.0731,0 0.2128,-0.03429 0.31033,-0.0762 z m -0.004,-0.576241 c 0.92069,-0.268168 1.67885,-0.497588 1.68481,-0.509823 0.006,-0.01223 0.17808,-0.244308 0.38247,-0.515724 0.34457,-0.457539 1.04881,-1.058146 1.24074,-1.058146 0.0455,0 0.10856,-0.448863 0.14002,-0.997474 0.0526,-0.918376 0.23853,-2.576717 0.377,-3.363588 0.05,-0.283989 0.0241,-0.357834 -0.197,-0.563411 -0.3572,-0.332045 -1.0371,-0.660406 -1.2514,-0.604367 -0.099,0.0259 -0.20697,0.0036 -0.23985,-0.04963 -0.037,-0.05988 -0.14704,0.007 -0.28888,0.175552 -0.30478,0.362217 -2.28205,1.83944 -2.73027,2.039795 -0.8653,0.386797 -2.20754,0.267455 -3.25925,-0.28979 -0.78681,-0.416879 -1.65336,-1.299083 -2.0489,-2.085894 -0.17713,-0.352332 -0.32205,-0.696195 -0.32205,-0.76414 0,-0.07814 -0.13733,-0.141957 -0.37371,-0.173661 -0.20554,-0.02757 -0.42178,-0.115862 -0.48053,-0.196207 -0.28586,-0.39094 -3.32717,0.0873 -3.72278,0.585398 -0.0547,0.06888 -0.12629,0.404533 -0.15905,0.745892 -0.0328,0.341357 -0.15398,1.158941 -0.26937,1.816849 -0.11538,0.657908 -0.19107,1.226472 -0.16821,1.263471 0.0229,0.03699 0.14068,0.06727 0.26181,0.06727 0.5074,0 1.30635,1.052389 1.81543,2.391317 0.14799,0.389234 0.1573,0.395889 0.5172,0.369901 0.31931,-0.02305 0.40733,0.01437 0.68374,0.290785 0.17448,0.174485 0.36467,0.317248 0.42263,0.317248 0.058,0 0.2619,0.0798 0.4532,0.177327 0.1913,0.09753 0.49386,0.177331 0.67236,0.177331 0.23891,0 0.50016,0.114654 0.99027,0.434593 0.36615,0.239027 0.69281,0.478423 0.72592,0.531987 0.0366,0.05926 0.41398,0.101451 0.96377,0.107754 0.49696,0.0057 1.16292,0.03952 1.4799,0.07515 0.31697,0.03563 0.6775,0.07086 0.80116,0.0783 0.12368,0.0074 0.97815,-0.205888 1.89882,-0.474057 z m -3.30083,-0.270695 c -0.49945,-0.134456 -1.26868,-0.588279 -1.58937,-0.937688 -0.3986,-0.434295 -0.59223,-1.195246 -0.35437,-1.392652 0.067,-0.05557 0.95034,-0.134018 2.10578,-0.186995 1.09474,-0.0502 2.31504,-0.113461 2.71178,-0.140589 0.87437,-0.05979 1.06015,0.04943 0.96319,0.566282 -0.20446,1.089865 -1.08798,1.908082 -2.30287,2.132666 -0.66489,0.122912 -0.95389,0.115184 -1.53414,-0.04102 z m -1.03423,-2.12399 c 0.15933,-0.123732 0.1397,-0.131963 -0.26428,-0.110831 -0.2527,0.01324 -0.45175,0.06949 -0.47288,0.133662 -0.0528,0.160484 0.52413,0.142617 0.73716,-0.02282 z m 1.67209,0.05667 c 0.14228,-0.0308 0.27527,-0.105882 0.29555,-0.166838 0.0423,-0.126966 -0.27296,-0.142144 -1.11788,-0.05383 -0.4456,0.04657 -0.52707,0.07901 -0.44547,0.17733 0.10395,0.125258 0.78235,0.148451 1.2678,0.04334 z m 2.02308,-0.134285 c 0.16581,-0.25213 0.0533,-0.274147 -0.89445,-0.175085 -0.35261,0.03685 -0.54499,0.09684 -0.54499,0.169941 0,0.06214 0.0499,0.134184 0.11083,0.160105 0.18222,0.07749 1.25828,-0.04801 1.32861,-0.154961 z m 0.93808,-0.03254 c -0.0364,-0.191783 -0.50802,-0.265175 -0.61542,-0.09576 -0.13231,0.208706 -0.0846,0.250927 0.28368,0.250927 0.29606,0 0.35586,-0.02799 0.33174,-0.155163 z m 1.42463,2.590973 c 1.6206,-0.469841 1.64364,-0.477482 1.5928,-0.528325 -0.0329,-0.03294 -2.602,0.706144 -3.00101,0.863371 -0.40562,0.15983 0.19031,0.01806 1.40821,-0.335046 z m 0.34106,0.170557 c -0.0295,-0.02946 -0.10593,-0.0326 -0.16994,-0.007 -0.0707,0.02832 -0.0497,0.04931 0.0536,0.05357 0.0935,0.0039 0.14583,-0.01709 0.11637,-0.04657 z m 2.63181,-0.500587 c -0.27754,-0.328977 -0.46854,-0.50982 -0.53846,-0.50982 -0.0363,0 0.0898,0.159596 0.28028,0.354658 0.37523,0.384273 0.52985,0.477199 0.25818,0.155162 z m 3.90905,-0.324235 1.50729,-0.425871 0.009,-0.522675 c 0.007,-0.43525 -0.0997,-1.192971 -0.16714,-1.185612 -0.39523,0.04312 -3.63554,0.614927 -3.66786,0.647252 -0.0257,0.02567 -0.0194,0.132465 0.0139,0.237348 0.06,0.188999 0.17733,0.169442 0.17733,-0.02956 0,-0.17178 0.43714,-0.122952 0.47094,0.0526 0.0219,0.113458 -0.0444,0.170926 -0.24261,0.210576 -0.14997,0.02999 -0.27267,0.08944 -0.27267,0.132114 0,0.04267 0.013,0.07758 0.029,0.07758 0.15163,0 2.23297,-0.83068 2.33368,-0.93139 0.16692,-0.166919 0.24711,-0.166832 0.38591,3.34e-4 0.15342,0.184857 -0.0515,0.429491 -0.30413,0.363048 -0.16809,-0.0442 -2.0469,0.551729 -1.97286,0.625768 0.0733,0.07329 1.35161,-0.270554 1.41692,-0.38112 0.0943,-0.159664 0.36798,-0.152647 0.50541,0.01297 0.17954,0.216337 -0.0539,0.425247 -0.40216,0.359914 -0.16028,-0.03006 -0.62832,0.02745 -1.09183,0.134162 -0.67431,0.155256 -0.81128,0.215395 -0.81128,0.356181 0,0.09316 0.0423,0.169385 0.0939,0.169385 0.0516,0 0.0705,-0.0379 0.0419,-0.08422 -0.0286,-0.04632 0.0261,-0.126034 0.12161,-0.177152 0.13219,-0.07075 0.20687,-0.05972 0.3128,0.04622 0.0765,0.07653 0.13916,0.171318 0.13916,0.210626 0,0.152592 -0.2643,0.283007 -0.45249,0.223281 -0.15898,-0.05046 -0.18432,-0.0341 -0.13725,0.08859 0.0318,0.08277 0.0577,0.187877 0.0577,0.233582 0,0.09687 -0.0459,0.107573 1.90629,-0.444007 z m -5.85186,-0.233368 c 0.24383,-0.07399 0.59562,-0.175564 0.78176,-0.22572 0.32221,-0.08682 0.33558,-0.104761 0.27882,-0.374331 -0.0781,-0.37089 -0.1618,-0.449586 -0.41127,-0.38668 -0.2849,0.07185 -1.38534,1.12476 -1.17287,1.12222 0.0441,-6.45e-4 0.27973,-0.0615 0.52356,-0.135489 z m -12.59982,-0.472515 0.25653,-0.269562 -0.49672,-1.01368 c -0.5402,-1.102401 -0.98467,-1.598143 -1.50654,-1.680305 -0.36163,-0.05694 -0.4841,0.06404 -0.57898,0.571949 l -0.0764,0.408834 0.32539,-0.04365 c 0.28565,-0.03831 0.3561,-0.0073 0.57692,0.254057 0.28007,0.331477 0.56394,0.928412 0.80339,1.68942 0.17725,0.563323 0.23293,0.569951 0.69639,0.08293 z m 18.49601,-0.277682 c 0,-0.04877 -0.0399,-0.08866 -0.0887,-0.08866 -0.0488,0 -0.0887,0.0399 -0.0887,0.08866 0,0.04876 0.0399,0.08866 0.0887,0.08866 0.0488,0 0.0887,-0.0399 0.0887,-0.08866 z m 0.44332,-0.571087 c 0,-0.02151 -0.0399,-0.06376 -0.0887,-0.0939 -0.0488,-0.03012 -0.0887,-0.01253 -0.0887,0.0391 0,0.05164 0.0399,0.0939 0.0887,0.0939 0.0488,0 0.0887,-0.01759 0.0887,-0.0391 z m -0.25707,-1.119066 c -0.0844,-0.21137 -0.0865,-0.210111 -0.092,0.05725 -0.003,0.150358 0.0243,0.30356 0.0609,0.340445 0.10527,0.106163 0.12607,-0.159935 0.0311,-0.397695 z m -1.90254,0.227188 c 0.1174,-0.117396 0.1175,-0.132996 10e-4,-0.132996 -0.0726,0 -0.19853,0.0255 -0.27976,0.05667 -0.1178,0.04521 -0.12376,0.07184 -0.0294,0.131637 0.15546,0.09855 0.15415,0.09879 0.30826,-0.05531 z m 1.77148,-0.765871 c -0.0415,-0.207178 -0.016,-0.308337 0.0997,-0.396169 0.1436,-0.109002 0.13981,-0.118167 -0.0499,-0.120775 -0.11293,-0.0017 -0.28723,0.04102 -0.38734,0.09459 -0.18003,0.09635 -0.17972,0.09855 0.028,0.201716 0.1155,0.05736 0.22276,0.193077 0.23834,0.301579 0.0156,0.108502 0.0505,0.197276 0.0776,0.197276 0.0271,0 0.0242,-0.125201 -0.006,-0.278219 z m -9.88589,-1.790951 c 0.21665,-0.0652 0.5721,-0.248105 0.78991,-0.406454 l 0.396,-0.28791 -0.35466,0.07397 c -0.61873,0.129038 -1.90816,0.07773 -2.43827,-0.09701 -1.05532,-0.347877 -1.89984,-0.97237 -2.47036,-1.826725 -0.50476,-0.755888 -0.72924,-1.41595 -0.79813,-2.346856 l -0.0591,-0.797981 -0.15385,0.436951 c -0.32469,0.922164 -0.1546,2.205608 0.42292,3.191075 0.52211,0.8909 1.80215,1.856254 2.75945,2.081056 0.52168,0.122506 1.46526,0.112554 1.90604,-0.02011 z m 1.09845,-0.945837 c 1.71292,-0.589333 2.79594,-2.064392 2.78956,-3.799334 -0.004,-1.171859 -0.36169,-2.038155 -1.21513,-2.945525 -0.86956,-0.924512 -1.98995,-1.408882 -3.26026,-1.409499 -2.41719,-0.0012 -4.39753,2.216853 -4.03951,4.524345 0.27846,1.794718 1.50769,3.209835 3.1972,3.680699 0.65184,0.181666 1.92711,0.156097 2.52814,-0.05069 z m -2.3616,-0.647615 c -1.07818,-0.367522 -1.92256,-1.202713 -2.34777,-2.322233 -0.26014,-0.684914 -0.22304,-1.881472 0.079,-2.549383 0.31957,-0.706553 1.00208,-1.402927 1.68347,-1.717669 0.49732,-0.229716 0.64393,-0.254837 1.48728,-0.254837 0.90311,0 0.95903,0.01159 1.61118,0.333901 1.18219,0.584269 1.97559,1.723892 2.08175,2.990181 0.21257,2.535517 -2.15727,4.350973 -4.59496,3.52004 z m 2.00928,-0.108538 c 0.54156,-0.139287 1.40421,-0.656301 1.49656,-0.896933 0.0284,-0.07404 0.0217,-0.119388 -0.0149,-0.100783 -1.18836,0.603946 -1.96417,0.755309 -3.09797,0.604428 -0.42261,-0.05624 -0.9058,-0.159671 -1.07376,-0.229848 -0.38921,-0.162623 -0.46325,-0.157934 -0.2394,0.01517 0.51278,0.396493 1.43143,0.720593 2.08716,0.736347 0.17262,0.0042 0.55166,-0.05362 0.84231,-0.128374 z m 0.56192,-0.826299 c 0.75437,-0.287926 1.14879,-0.602513 1.22481,-0.9769 0.27545,-1.35652 -0.29456,-2.877933 -1.36557,-3.644867 -0.70314,-0.503512 -1.20681,-0.646598 -2.13608,-0.606831 -1.81345,0.0776 -2.6685,1.023651 -2.57238,2.846132 0.0674,1.277437 0.48123,1.904514 1.53516,2.326096 l 0.35466,0.141866 -0.28992,-0.234427 c -0.15946,-0.128935 -0.34897,-0.348632 -0.42115,-0.488216 -0.16833,-0.325519 -0.16854,-0.997265 -3.4e-4,-1.322412 0.31353,-0.606298 1.23957,-0.812749 1.92291,-0.42869 1.08779,0.61137 0.96153,2.064098 -0.21997,2.530984 -0.24833,0.09813 -0.17586,0.107168 0.60449,0.07537 0.6071,-0.02473 1.03697,-0.0935 1.36344,-0.218109 z m -1.52713,-0.385427 c 0.15404,-0.154042 0.24213,-0.357689 0.27293,-0.630991 0.0825,-0.731655 -0.485,-1.33005 -1.26226,-1.331052 -0.44949,-5.7e-4 -0.71686,0.142465 -0.93501,0.500244 -0.33001,0.541233 -0.15915,1.191298 0.41593,1.582505 0.37696,0.25643 1.19689,0.190819 1.50841,-0.120706 z m -1.24298,-0.432085 c -0.28365,-0.22312 -0.30321,-0.544632 -0.0486,-0.799229 0.33378,-0.333786 0.87896,-0.05206 0.87896,0.45421 0,0.253492 -0.23975,0.528783 -0.46051,0.528783 -0.0749,0 -0.24135,-0.08269 -0.36984,-0.183764 z m 4.55494,-0.928712 c 0.14375,-0.88323 -0.15435,-1.948989 -0.77173,-2.759117 -0.50623,-0.664279 -1.78555,-1.272153 -2.6726,-1.269895 -0.45423,0.0012 -1.22495,0.18205 -1.48716,0.349048 -0.16069,0.102342 -0.16034,0.104356 0.009,0.05028 0.37985,-0.121413 1.27384,-0.151846 1.71038,-0.05823 1.86062,0.399031 3.08005,2.097834 2.92172,4.070276 -0.0452,0.563266 -0.0407,0.582075 0.0822,0.34745 0.0715,-0.136429 0.16525,-0.464848 0.20838,-0.729819 z m 0.48909,1.81511 c 0.0855,-0.26926 -10e-4,-0.296888 -0.11881,-0.03803 -0.0556,0.122119 -0.0648,0.222036 -0.0204,0.222036 0.0444,0 0.10707,-0.08281 0.13919,-0.184011 z m -9.06806,-1.079472 c -0.0122,-0.03657 -0.0222,-0.285943 -0.0222,-0.554153 0,-0.453346 -0.0147,-0.487655 -0.20925,-0.487655 -0.18942,0 -0.21422,0.0481 -0.26162,0.507295 -0.0359,0.348185 -0.0189,0.529103 0.0541,0.576827 0.12864,0.08402 0.47009,0.0511 0.43895,-0.04232 z m 10.21722,-0.692417 c -0.12097,-0.466817 -0.609,-1.590693 -0.69075,-1.590693 -0.0529,0 0.16413,1.408939 0.22662,1.470906 0.0366,0.03627 0.0665,0.135765 0.0665,0.221101 0,0.136833 0.44403,0.553451 0.51463,0.482855 0.015,-0.01501 -0.0376,-0.27789 -0.117,-0.584169 z m -13.46494,-0.870691 c 0.57331,-0.18315 2.22268,-0.542672 2.4896,-0.542672 0.0886,0 0.21095,-0.0798 0.27186,-0.177329 0.12238,-0.195948 0.62417,-0.247598 0.79041,-0.08136 0.0688,0.06885 0.23045,-0.147626 0.57188,-0.766085 0.79897,-1.447236 1.43138,-2.00396 2.77754,-2.445145 l 0.71297,-0.233664 -0.75365,-0.06128 c -1.58007,-0.128469 -3.7723,0.402626 -5.02968,1.218501 -1.23255,0.799765 -2.57195,2.375806 -2.89924,3.411494 -0.0632,0.200154 -0.0632,0.200154 0.23452,0.02446 0.16379,-0.09663 0.53898,-0.252747 0.83379,-0.346924 z m 3.39277,-0.101173 c 0.12397,-0.413786 0.0788,-0.530163 -0.20589,-0.530163 -0.15905,0 -0.21783,0.06246 -0.26076,0.277076 -0.0995,0.497371 -0.0715,0.609568 0.15221,0.609568 0.16559,0 0.22926,-0.07218 0.31444,-0.356481 z"
         id="path151" />
    </g>
  </g>
</svg>
