<?xml version="1.0" encoding="UTF-8" standalone="no"?>
<!-- Created with Inkscape (http://www.inkscape.org/) -->

<svg
   width="41.008999mm"
   height="41.008999mm"
   viewBox="0 0 41.008999 41.009"
   version="1.1"
   id="svg1"
   inkscape:version="1.4.2 (f4327f4, 2025-05-13)"
   sodipodi:docname="277.svg"
   xmlns:inkscape="http://www.inkscape.org/namespaces/inkscape"
   xmlns:sodipodi="http://sodipodi.sourceforge.net/DTD/sodipodi-0.dtd"
   xmlns="http://www.w3.org/2000/svg"
   xmlns:svg="http://www.w3.org/2000/svg">
  <sodipodi:namedview
     id="namedview1"
     pagecolor="#ffffff"
     bordercolor="#000000"
     borderopacity="0.25"
     inkscape:showpageshadow="2"
     inkscape:pageopacity="0.0"
     inkscape:pagecheckerboard="0"
     inkscape:deskcolor="#d1d1d1"
     inkscape:document-units="mm"
     inkscape:zoom="2.8970539"
     inkscape:cx="82.497603"
     inkscape:cy="88.365633"
     inkscape:window-width="1168"
     inkscape:window-height="1081"
     inkscape:window-x="3737"
     inkscape:window-y="0"
     inkscape:window-maximized="0"
     inkscape:current-layer="layer1" />
  <defs
     id="defs1" />
  <g
     inkscape:label="Layer 1"
     inkscape:groupmode="layer"
     id="layer1"
     transform="translate(-114.0891,-77.774176)">
    <g
       id="g158"
       transform="translate(-525.0408,153.63423)">
      <circle
         style="fill:none;stroke:#ff0000;stroke-width:0.1;stroke-dasharray:none"
         id="path788-8-1-8-1-9-2-6-3-4-7-1-6-1-0-8-3-6-1-0-9-0-9"
         cx="659.6344"
         cy="-55.355556"
         r="19.954653" />
      <circle
         style="fill:none;stroke:#0000ff;stroke-width:0.1;stroke-linecap:round;stroke-dasharray:none;stroke-opacity:1;paint-order:markers stroke fill"
         id="path13019-1-33-3-83-70-3-7-5-9-5-4-1-5-2-2-8-21-7"
         cx="659.6344"
         cy="-70.366547"
         r="2" />
      <ellipse
         style="fill:none;stroke:#ff00ff;stroke-width:0.1;stroke-dasharray:none;stroke-opacity:1"
         id="path1138-9-4-0-0-1-2-0-0-6-8-8-1-2-0-1"
         cx="659.6344"
         cy="-55.355556"
         rx="18.492125"
         ry="18.492126" />
      <path
         style="fill:#000000;stroke-width:0.127639"
         d="m 666.50468,-38.921438 c 0.011,-0.01776 0.0423,-0.02375 0.0695,-0.01327 0.0698,0.02679 0.0616,0.04556 -0.02,0.04556 -0.0382,0 -0.0606,-0.01454 -0.0496,-0.03229 z m -1.63699,-0.237875 c -0.0769,-0.02462 -0.0739,-0.02716 0.0337,-0.02846 0.065,-5.99e-4 0.17899,0.01116 0.25328,0.02651 0.13509,0.02794 0.13509,0.02794 -0.0337,0.02846 -0.0929,2.54e-4 -0.20685,-0.01166 -0.25329,-0.02651 z m -0.7514,-0.0249 c 0.0975,-0.0068 0.25708,-0.0068 0.35459,0 0.0975,0.0068 0.0177,0.0124 -0.1773,0.0124 -0.19502,0 -0.27481,-0.0056 -0.17729,-0.0124 z m -9.37994,-0.353978 c 0.77675,-0.04269 1.52,-0.04232 1.62101,6e-4 0.0619,0.02645 -0.21708,0.03522 -1.0469,0.03293 -1.08301,-0.0031 -1.10753,-0.0044 -0.57411,-0.03375 z m 4.2083,0.01355 c -0.0331,-0.05348 0.11024,-0.07274 0.54498,-0.07322 0.2536,-2.55e-4 0.4137,0.01262 0.4137,0.03331 0,0.02071 -0.1623,0.03377 -0.41937,0.03377 -0.23066,0 -0.44188,0.0086 -0.46938,0.01919 -0.0275,0.01054 -0.059,0.0047 -0.0699,-0.01306 z m 2.44295,-0.118852 c -0.0102,-0.01104 -0.41293,-0.02819 -0.89493,-0.03813 -0.48202,-0.0099 -1.07955,-0.02698 -1.32785,-0.03785 -0.25666,-0.01126 -0.67922,-0.0016 -0.97936,0.02236 -0.4129,0.03298 -0.66034,0.03355 -1.13579,0.0028 -0.33433,-0.02174 -1.05619,-0.0488 -1.60413,-0.06012 -1.23037,-0.02542 -1.41464,-0.05178 -0.74482,-0.106523 0.34923,-0.02853 0.5024,-0.05444 0.53913,-0.09117 0.0459,-0.04589 -0.0216,-0.05136 -0.63979,-0.05182 -0.45868,-3.1e-4 -0.67407,-0.01153 -0.64045,-0.03325 0.0279,-0.01802 0.11401,-0.03297 0.19142,-0.03325 0.23481,-9.59e-4 0.2901,-0.04881 0.0788,-0.0683 l -0.18574,-0.01712 0.24831,-0.03973 c 0.17401,-0.02785 0.37106,-0.0307 0.65854,-0.0096 0.22563,0.01656 0.58082,0.03479 0.78932,0.04048 0.32517,0.0089 0.36732,0.0041 0.29629,-0.03304 -0.0455,-0.02388 -0.25413,-0.05215 -0.46352,-0.06287 -0.42891,-0.02196 -0.5653,-0.0618 -0.32871,-0.09603 0.22416,-0.03243 0.43059,-0.034 0.65718,-0.005 0.14652,0.01876 0.1886,0.016 0.15197,-0.01002 -0.0279,-0.01979 -0.0915,-0.03622 -0.14153,-0.03651 -0.05,-2.54e-4 -0.0993,-0.01411 -0.10956,-0.03076 -0.0237,-0.0383 0.0601,-0.07108 0.18161,-0.07108 0.0868,0 0.0953,-0.01203 0.11292,-0.161083 0.0105,-0.0886 0.0442,-0.229169 0.075,-0.312383 0.10488,-0.283673 0.10726,-0.27633 -0.12585,-0.38806 l -0.21212,-0.101674 0.009,-0.455549 0.009,-0.455549 -0.32942,-0.114242 c -0.4248,-0.147318 -1.08168,-0.45865 -1.39408,-0.660736 -0.18867,-0.122059 -0.2519,-0.148391 -0.2737,-0.114009 -0.0429,0.06766 -0.0404,0.07178 0.12174,0.207373 0.3191,0.266735 0.41832,0.614701 0.26189,0.918413 -0.1469,0.285189 -0.40184,0.441137 -0.6778,0.414622 -0.15777,-0.01516 -0.16468,-0.012 -0.22757,0.104452 -0.0357,0.06604 -0.11805,0.156094 -0.18305,0.200104 -0.0983,0.06652 -0.1504,0.07777 -0.30909,0.06667 -0.22714,-0.01588 -0.39484,-0.126607 -0.53126,-0.350765 -0.0884,-0.145188 -0.0884,-0.145188 -0.26018,-0.125919 -0.29177,0.03273 -0.56937,-0.135061 -0.73495,-0.44421 -0.12025,-0.224508 -0.10032,-0.631383 0.0593,-1.209552 0.12199,-0.441974 0.12567,-0.469454 0.0709,-0.529942 -0.0318,-0.03509 -0.0511,-0.08358 -0.0431,-0.107768 0.008,-0.02419 -0.0339,-0.120043 -0.0932,-0.213022 -0.15158,-0.237528 -0.27345,-0.487314 -0.30188,-0.618753 -0.0339,-0.156801 0.035,-0.308908 0.15042,-0.33199 0.091,-0.0182 0.091,-0.0182 0.0491,-0.25991 -0.28804,-1.659335 -0.0292,-3.87873 0.62138,-5.328835 l 0.0986,-0.219797 -0.145,-0.09174 c -0.16583,-0.104908 -0.21688,-0.215751 -0.1981,-0.430113 0.0773,-0.882484 0.11788,-1.04944 0.27225,-1.119771 0.0791,-0.03603 0.0791,-0.03603 0.0791,-2.687868 0,-2.645912 -1.2e-4,-2.652175 -0.0727,-2.802086 -0.0693,-0.143179 -0.0717,-0.180467 -0.0512,-0.792417 0.0225,-0.67237 0.0451,-0.771418 0.18681,-0.816376 0.0517,-0.0164 0.0693,-0.06582 0.0883,-0.247402 0.0795,-0.763471 0.42014,-1.696654 0.88074,-2.41296 0.63562,-0.98848 1.60547,-1.828917 2.81809,-2.442042 0.17646,-0.08922 0.32843,-0.168646 0.33772,-0.176504 0.0346,-0.0293 -0.35028,-0.349853 -0.58457,-0.486821 -0.39461,-0.230698 -1.33792,-0.600366 -1.53784,-0.602657 -0.0814,-9.59e-4 -0.0838,-0.0044 -0.0258,-0.03805 0.0926,-0.05377 0.64327,-0.0059 1.01407,0.08817 0.52073,0.132093 1.037,0.399821 1.36364,0.707143 l 0.1788,0.168234 0.26005,-0.07651 c 0.14303,-0.04208 0.26706,-0.08352 0.27562,-0.09208 0.0599,-0.0599 -0.31212,-0.485606 -0.63999,-0.732356 -0.18247,-0.137325 -0.66673,-0.440967 -0.75624,-0.474183 -0.136,-0.05046 -0.0197,-0.05478 0.20243,-0.0075 0.68997,0.146791 1.30257,0.522522 1.55543,0.953999 0.0601,0.102551 0.10368,0.142878 0.14198,0.131399 0.0304,-0.0091 0.16545,-0.0412 0.30011,-0.07131 0.14961,-0.03346 0.24484,-0.07175 0.24484,-0.09845 0,-0.169103 -0.23038,-0.587513 -0.45178,-0.820489 -0.075,-0.07894 -0.11694,-0.143526 -0.0932,-0.143526 0.17247,0 0.78296,0.547099 0.89757,0.804385 0.053,0.119002 0.0778,0.142411 0.13478,0.127151 0.0384,-0.0103 0.18958,-0.02887 0.33597,-0.04132 l 0.26616,-0.0226 -0.0181,-0.27339 c -0.0227,-0.343655 -0.13622,-0.891411 -0.26651,-1.286518 -0.0552,-0.167167 -0.10767,-0.326737 -0.11675,-0.354599 -0.0442,-0.135578 0.35994,0.364211 0.48618,0.601237 0.21037,0.395005 0.37914,0.936461 0.37908,1.21617 -3e-5,0.08752 0.005,0.09027 0.16439,0.07926 0.16069,-0.01113 0.16536,-0.01457 0.20598,-0.15197 0.10441,-0.353134 0.45046,-0.885433 0.70402,-1.082935 l 0.0907,-0.07067 -0.0659,0.101264 c -0.15994,0.245933 -0.26594,0.552851 -0.33764,0.977613 l -0.0402,0.238099 0.30627,0.03871 c 0.25204,0.03185 0.3109,0.03063 0.33239,-0.0069 0.15018,-0.261991 0.52466,-0.598328 0.8803,-0.79064 l 0.20804,-0.112489 -0.20947,0.192172 c -0.20105,0.184454 -0.38958,0.453769 -0.48206,0.688622 -0.024,0.06096 -0.0353,0.119165 -0.0252,0.129343 0.0102,0.01017 0.15217,0.04772 0.31555,0.08342 0.28211,0.06165 0.29861,0.06194 0.32832,0.0058 0.071,-0.134304 0.43267,-0.448246 0.66664,-0.578678 0.20164,-0.112415 1.11916,-0.447744 1.2077,-0.441384 0.0122,9.59e-4 -0.11221,0.06938 -0.27635,0.152227 -0.32451,0.163787 -0.58773,0.341289 -0.80933,0.545756 -0.19124,0.176457 -0.39504,0.417797 -0.39504,0.467813 0,0.02242 0.10768,0.07608 0.23929,0.119228 l 0.23928,0.07845 0.11367,-0.136832 c 0.41209,-0.496108 1.57675,-0.971265 2.33985,-0.95461 0.17901,0.0039 0.19645,-0.0025 -0.34859,0.130143 -0.34862,0.0849 -0.8494,0.320157 -1.14666,0.538674 -0.22514,0.165502 -0.59256,0.50462 -0.59256,0.546919 0,0.01479 0.15318,0.104313 0.34039,0.198913 1.65456,0.836096 2.81565,2.098673 3.35739,3.650839 0.14406,0.412724 0.20923,0.677912 0.25461,1.036069 0.0246,0.193742 0.0502,0.27389 0.0995,0.311515 0.0925,0.07048 0.13419,0.399043 0.13501,1.06429 6e-4,0.44866 -0.009,0.560899 -0.0584,0.658538 -0.055,0.109504 -0.0584,0.2969 -0.0501,2.691779 l 0.009,2.574083 0.0976,-0.0195 c 0.15301,-0.0306 0.15489,-0.02354 0.30551,1.152786 0.0143,0.111444 0.013,0.227736 -0.003,0.258427 -0.0158,0.0307 -0.10506,0.111768 -0.19825,0.180173 -0.0932,0.06841 -0.16943,0.129925 -0.16943,0.13671 0,0.0068 0.0541,0.16126 0.12027,0.34328 0.16417,0.451717 0.36985,1.187062 0.45401,1.623182 0.21544,1.116381 0.2874,2.413583 0.18778,3.385064 -0.0314,0.306473 -0.0649,0.589534 -0.0745,0.629027 -0.0148,0.06101 -0.005,0.06944 0.0649,0.05608 0.0611,-0.01169 0.1016,0.0089 0.15763,0.08016 0.10319,0.131191 0.0766,0.260856 -0.11464,0.559824 -0.14056,0.219696 -0.15376,0.258497 -0.15376,0.451876 0,0.116349 -0.0137,0.220033 -0.0306,0.230411 -0.0168,0.01039 -0.002,0.09496 0.0338,0.188095 0.092,0.242127 0.17405,0.792249 0.1484,0.995023 -0.0596,0.471671 -0.47252,0.895812 -0.87201,0.895812 -0.0569,0 -0.10146,0.0267 -0.12677,0.07598 -0.11173,0.217612 -0.4542,0.430581 -0.6924,0.430581 -0.14012,0 -0.27408,-0.09179 -0.34006,-0.233025 -0.0622,-0.133232 -0.0622,-0.133232 -0.26636,-0.114726 -0.69473,0.06299 -0.97363,-0.758453 -0.43903,-1.293059 0.14486,-0.144862 0.17554,-0.195034 0.16213,-0.265176 -0.009,-0.04758 -0.02,-0.08651 -0.0241,-0.08651 -0.004,0 -0.13538,0.08398 -0.29156,0.186625 -0.37566,0.24689 -0.79278,0.447118 -1.34276,0.64458 l -0.45091,0.16189 0.0188,0.153548 c 0.0104,0.08445 0.029,0.27872 0.0415,0.431709 l 0.0227,0.278163 -0.18162,0.08455 c -0.0999,0.0465 -0.20061,0.08469 -0.22383,0.08488 -0.0509,3.1e-4 -0.0515,-0.01566 0.005,0.172095 0.0259,0.08518 0.0577,0.25408 0.0706,0.37532 l 0.0236,0.22044 1.00125,0.02242 c 0.55069,0.01234 1.09243,0.0337 1.20388,0.04747 0.17469,0.02158 0.12814,0.02843 -0.33771,0.0496 -0.29719,0.01352 -0.84048,0.02462 -1.20732,0.02468 -0.511,8.7e-5 -0.66699,0.01 -0.66701,0.04233 -3e-5,0.0329 0.17326,0.03963 0.78517,0.03051 0.75922,-0.01132 2.01025,0.04483 2.18554,0.09808 0.0819,0.02487 0.0809,0.02614 -0.0222,0.0289 -0.13459,0.0037 -0.18623,0.07037 -0.0547,0.07063 0.0521,1.06e-4 0.15566,0.01848 0.22995,0.04085 0.13312,0.04007 0.12993,0.04116 -0.21951,0.07504 -0.43115,0.0418 -2.26407,0.03705 -2.68481,-0.0069 -0.16717,-0.01749 -0.32545,-0.02059 -0.35175,-0.0069 -0.0282,0.01467 0.0342,0.03373 0.15197,0.04637 0.17581,0.01889 1.06655,0.08748 1.13892,0.0877 0.015,4.6e-5 0.0167,0.01733 0.004,0.03841 -0.0172,0.02785 -0.23737,0.03238 -0.80406,0.01659 -0.65483,-0.01826 -0.79394,-0.01374 -0.86479,0.028 -0.0844,0.04977 -0.0844,0.04977 0.0152,0.05096 0.0679,6e-4 0.0886,0.01219 0.0651,0.03575 -0.0371,0.03704 -1.43473,0.08979 -1.46655,0.05536 z m -0.94393,-0.230911 c -0.0842,-0.03421 -0.29311,-0.04951 -0.99624,-0.07298 -0.33133,-0.01104 -0.3896,0.02239 -0.0844,0.04848 0.065,0.0056 -0.0566,0.01895 -0.27017,0.02976 -0.2752,0.01392 -0.12266,0.02103 0.52345,0.02434 0.646,0.0033 0.88721,-0.0053 0.82739,-0.02962 z m -4.0613,-0.04789 c -0.0345,-0.0345 -0.63952,-0.114576 -0.86759,-0.114824 -0.30481,-3.1e-4 -0.22232,0.06739 0.12203,0.100189 0.3377,0.03217 0.77161,0.04069 0.74556,0.01464 z m 6.08757,-0.151774 c 0.20288,-0.04327 0.33771,-0.09913 0.33771,-0.139904 0,-0.01885 -0.0374,-0.02394 -0.0861,-0.01172 -0.23499,0.05898 -0.81525,0.119578 -1.14653,0.119733 -0.33845,1.27e-4 -0.84815,-0.07469 -1.04401,-0.153322 -0.0433,-0.01739 -0.0571,-0.0138 -0.0418,0.01092 0.04,0.06481 0.46617,0.186578 0.74677,0.213392 0.31505,0.03011 1.01326,0.008 1.23401,-0.0391 z m 3.20826,0.03177 0.28705,-0.0055 -0.28705,-0.02518 c -0.31121,-0.02732 -1.49298,-0.03642 -1.43134,-0.01104 0.0697,0.02872 0.80485,0.07456 0.97543,0.06085 0.0929,-0.0075 0.29803,-0.01606 0.45591,-0.0191 z m -7.44598,-0.08068 c 0.24037,-0.04965 0.55667,-0.162572 0.55667,-0.19874 0,-0.0091 -0.061,0.005 -0.13564,0.03126 -0.19912,0.07025 -0.7958,0.151928 -1.10134,0.150757 -0.14622,-6e-4 -0.41021,-0.02939 -0.58667,-0.06406 -0.17645,-0.03467 -0.32695,-0.05721 -0.33445,-0.05008 -0.0233,0.02217 0.23898,0.120344 0.45201,0.169189 0.24499,0.05617 0.77797,0.0384 1.14942,-0.03833 z m 1.70489,-0.0022 c 0,-0.04973 -0.0412,-0.05439 -0.36331,-0.04112 -0.55418,0.02282 -0.59967,0.08722 -0.0655,0.09276 0.37892,0.004 0.42884,-0.0022 0.42884,-0.05164 z m 0.20262,0.03901 c 0,-0.03564 -0.0648,-0.05062 -0.0841,-0.01944 -0.0117,0.01889 0.002,0.03433 0.0315,0.03433 0.029,0 0.0526,-0.0067 0.0526,-0.01488 z m -5.39494,-0.04331 c -0.0604,-0.0075 -0.15914,-0.0075 -0.21951,0 -0.0604,0.0075 -0.011,0.01361 0.10976,0.01361 0.12073,0 0.17012,-0.0061 0.10975,-0.01361 z m 9.21952,0.0022 c -0.0232,-0.0094 -0.0612,-0.0094 -0.0844,0 -0.0233,0.0094 -0.004,0.01702 0.0422,0.01702 0.0465,0 0.0654,-0.0077 0.0422,-0.01702 z m -0.42213,-0.03559 c -0.0511,-0.0077 -0.13467,-0.0077 -0.18574,0 -0.0511,0.0077 -0.009,0.01408 0.0929,0.01408 0.10216,0 0.14395,-0.0063 0.0929,-0.01408 z m 0.86116,-0.03341 c -0.0418,-0.0081 -0.11018,-0.0081 -0.15197,0 -0.0418,0.0081 -0.008,0.01464 0.076,0.01464 0.0836,0 0.11778,-0.0066 0.076,-0.01464 z m -4.46623,-0.123479 c 0,-0.06282 -0.46037,-0.104977 -0.59353,-0.05435 -0.15602,0.05932 -0.0368,0.09925 0.29803,0.09983 0.2271,3.1e-4 0.2955,-0.01014 0.2955,-0.04548 z m 0,-0.186048 c 0,-0.01618 -0.0727,-0.03907 -0.16164,-0.05086 -0.0889,-0.01178 -0.19332,-0.04364 -0.23205,-0.07077 -0.0574,-0.04019 -0.0868,-0.04172 -0.15893,-0.0082 -0.16759,0.0778 -0.10494,0.122134 0.18958,0.134162 0.15323,0.0063 0.2976,0.01448 0.32082,0.01826 0.0233,0.0038 0.0422,-0.0064 0.0422,-0.02254 z m -0.007,-0.25614 c 0.007,-0.0065 0.0407,-0.123498 0.0759,-0.259954 0.0352,-0.136459 0.0736,-0.281055 0.0853,-0.321323 0.017,-0.05873 0.005,-0.07543 -0.058,-0.08443 -0.0721,-0.0102 -0.0801,-0.03002 -0.0892,-0.222284 l -0.0101,-0.211069 h -0.25168 -0.25167 v 0.184963 c 0,0.165179 -0.01,0.191177 -0.0929,0.243063 -0.0511,0.03195 -0.0979,0.0614 -0.10406,0.06543 -0.006,0.004 0.008,0.154969 0.0317,0.33541 l 0.0429,0.328074 0.30493,-0.02301 c 0.16771,-0.01265 0.31026,-0.02834 0.31678,-0.03487 z m 2.81864,-0.695773 c 0.22749,-0.03986 0.4244,-0.08245 0.43755,-0.09463 0.0131,-0.01219 0.0111,-0.04293 -0.005,-0.06831 -0.0239,-0.03861 -0.0802,-0.03583 -0.34475,0.01696 -0.24632,0.04915 -0.44687,0.06179 -0.90722,0.05717 -0.8475,-0.0085 -0.95887,-0.06129 -0.18574,-0.08803 0.36833,-0.01274 0.76092,-0.04812 0.99625,-0.08977 0.2136,-0.0378 0.39217,-0.06882 0.3968,-0.06893 0.005,-1.09e-4 0.008,-0.03161 0.008,-0.07001 0,-0.05092 -0.016,-0.06489 -0.0591,-0.05161 -0.0325,0.01002 -0.24907,0.04308 -0.48124,0.07347 -0.32227,0.04218 -0.54562,0.0498 -0.94406,0.03221 -0.28705,-0.01268 -0.5454,-0.03518 -0.57411,-0.05002 -0.0287,-0.01482 -0.12058,-0.0156 -0.20416,-0.0019 -0.11848,0.01969 -0.12965,0.0263 -0.0506,0.02999 0.0557,0.0025 0.12411,0.02074 0.15197,0.04033 0.0506,0.03557 -0.0222,0.03234 -0.51866,-0.02304 -0.1692,-0.01889 -0.18231,-0.01504 -0.20216,0.0591 -0.0451,0.168627 -0.0307,0.187155 0.18892,0.241603 0.18497,0.04586 0.47065,0.09138 0.86961,0.138543 0.25894,0.0306 1.03543,-0.01473 1.42689,-0.08333 z m -4.5785,0.03506 c 0.21412,-0.02794 0.84872,-0.160379 0.87991,-0.183648 0.004,-0.0032 -0.0109,-0.05531 -0.0336,-0.115742 -0.0356,-0.09429 -0.0535,-0.106874 -0.12605,-0.08867 -0.0465,0.01166 -0.57848,0.02688 -1.18214,0.03381 -1.29499,0.01485 -1.21135,-0.02859 0.16048,-0.08334 0.50619,-0.02022 0.9545,-0.04946 0.99625,-0.065 0.0492,-0.01832 -0.12024,-0.03635 -0.48131,-0.05124 -0.65415,-0.02698 -1.44291,-0.07868 -1.64634,-0.107929 -0.24001,-0.03451 -0.16034,-0.07617 0.11819,-0.0618 0.26174,0.01349 0.26174,0.01349 -0.14352,-0.06347 -0.22289,-0.04233 -0.4141,-0.07306 -0.4249,-0.06828 -0.0294,0.01302 -0.10798,0.556671 -0.0939,0.650156 0.0136,0.09008 0.1531,0.152918 0.45126,0.20323 0.24354,0.04109 1.21601,0.04232 1.5257,0.0019 z m -0.64765,-0.20194 c 0.0846,-0.03637 0.68005,-0.03637 0.79362,0 0.0511,0.01634 -0.10244,0.02745 -0.38837,0.02803 -0.29264,6e-4 -0.44706,-0.01008 -0.40525,-0.02803 z m 4.91371,-0.321022 c 0.68495,-0.07628 0.67541,-0.07387 0.67541,-0.17019 0,-0.09924 -0.0216,-0.101023 -0.40927,-0.0339 -0.3068,0.05311 -0.7912,0.103618 -1.33957,0.139662 -0.19105,0.01256 -0.33893,0.03125 -0.32865,0.04154 0.0782,0.07816 0.79989,0.08994 1.40208,0.02289 z m -1.0638,-0.557 c 0.89711,-0.05562 1.84048,-0.203084 2.31332,-0.361609 0.65738,-0.22039 1.82411,-0.901139 2.23113,-1.301778 0.17101,-0.168333 0.43904,-0.508444 0.51165,-0.64922 0.0284,-0.05506 0.0164,-0.05112 -0.062,0.02037 -0.16727,0.152466 -0.36018,0.259421 -0.5606,0.310802 -0.2271,0.05822 -0.55135,0.233162 -0.84579,0.456321 -0.88415,0.670088 -1.96069,1.004549 -3.3344,1.035933 l -0.59099,0.01349 0.42214,-0.04668 c 0.55637,-0.06151 1.44815,-0.228115 1.89956,-0.354871 0.39725,-0.111544 0.84741,-0.319608 1.17906,-0.544966 0.38332,-0.260471 0.81656,-0.502713 0.90464,-0.505826 0.0728,-0.0025 0.0679,-0.0079 -0.032,-0.03445 -0.18102,-0.04809 -0.50652,-0.206901 -0.50693,-0.247327 -2.6e-4,-0.01982 -0.0684,-0.133486 -0.15165,-0.252627 -0.17347,-0.248369 -0.32528,-0.618902 -0.42723,-1.042795 -0.0611,-0.254068 -0.0703,-0.392797 -0.0679,-1.020137 0.002,-0.399343 0.0132,-1.028679 0.0258,-1.398525 0.0223,-0.651163 0.021,-0.671617 -0.0409,-0.646202 -0.24895,0.102195 -0.55545,0.09029 -0.7296,-0.02834 -0.20969,-0.142848 -0.30252,-0.29892 -0.32198,-0.541344 -0.0221,-0.275337 0.0475,-0.479656 0.21308,-0.624984 0.14418,-0.126589 0.47552,-0.34034 0.52757,-0.34034 0.0213,0 0.0305,-0.0082 0.0204,-0.01832 -0.0101,-0.01008 -0.16839,0.01368 -0.35178,0.05279 -1.63133,0.347972 -2.63042,0.451726 -4.35222,0.451974 -0.77757,1.15e-4 -1.18157,-0.0151 -1.57036,-0.0591 -0.77577,-0.08782 -1.61734,-0.211959 -2.09001,-0.308293 -0.23008,-0.04689 -0.42764,-0.08453 -0.43902,-0.08364 -0.0114,9.59e-4 0.0659,0.04631 0.17168,0.100935 0.1058,0.05462 0.25212,0.156469 0.32515,0.226331 0.11731,0.112208 0.13756,0.155542 0.17368,0.371616 0.0225,0.134527 0.0306,0.305862 0.0179,0.380748 -0.0285,0.168946 -0.21028,0.439862 -0.33644,0.501522 -0.10771,0.05264 -0.41514,0.06766 -0.59616,0.02909 l -0.12218,-0.02601 0.0136,0.228651 c 0.007,0.125754 0.0368,0.562981 0.0652,0.971614 0.0284,0.408628 0.059,0.910132 0.068,1.114447 0.0254,0.576669 0.0259,0.578517 0.19972,0.655403 0.18825,0.08327 0.36493,0.216823 0.44155,0.33375 0.059,0.09004 0.059,0.09004 -0.0397,0.02605 -0.0543,-0.03519 -0.19748,-0.130062 -0.31821,-0.210808 l -0.21951,-0.146816 -0.0103,0.152453 c -0.005,0.08385 -0.0234,0.152451 -0.0394,0.152451 -0.0486,0 -0.0592,-0.07441 -0.0419,-0.295496 0.0108,-0.138537 0.004,-0.211072 -0.02,-0.211072 -0.02,0 -0.0466,0.01652 -0.0591,0.03671 -0.0125,0.02019 -0.0514,0.02921 -0.0864,0.02006 -0.0463,-0.01213 -0.0637,0.0013 -0.0637,0.04914 0,0.198995 -0.12014,0.612385 -0.24883,0.856242 -0.23063,0.437013 -0.52317,0.61164 -1.05956,0.632484 -0.13453,0.0052 -0.2447,0.01929 -0.24484,0.03122 -6e-4,0.04732 0.12456,0.06287 0.53441,0.06641 0.33911,0.0028 0.39708,0.0097 0.27955,0.03282 -0.0815,0.016 -0.27527,0.03335 -0.43049,0.03851 -0.15522,0.0052 -0.28226,0.02158 -0.28231,0.03644 -5e-5,0.01488 0.0526,0.04907 0.11703,0.07599 0.21496,0.08982 0.78885,0.05339 1.07331,-0.06813 0.0424,-0.01814 0.0591,-0.0097 0.0591,0.02986 0,0.104412 -0.37159,0.197171 -0.76829,0.191785 -0.15324,-0.0022 -0.27862,5.99e-4 -0.27862,0.0064 0,0.0056 0.0738,0.06651 0.1641,0.135343 0.14653,0.111749 0.18718,0.125724 0.37992,0.130643 l 0.21583,0.0055 -0.18573,0.01982 -0.18574,0.01982 0.10781,0.05896 c 0.123,0.06727 0.46519,0.123559 0.78712,0.129479 0.12073,0.0022 0.25751,0.01712 0.30394,0.03308 0.0544,0.0187 -0.0569,0.02642 -0.31238,0.0217 -0.21825,-0.004 -0.39681,0.0016 -0.39681,0.01207 0,0.06851 1.08441,0.264103 1.48593,0.268016 0.0889,9.59e-4 0.10563,0.0093 0.0675,0.03389 -0.0779,0.05035 -0.63278,0.03884 -0.87448,-0.01814 -0.11878,-0.028 -0.22214,-0.04471 -0.2297,-0.03715 -0.0273,0.02732 0.49446,0.224161 0.85438,0.322312 0.43263,0.117987 1.02294,0.181546 2.39428,0.257799 0.52007,0.02893 0.96078,0.05949 0.97936,0.06795 0.0859,0.03908 -1.62864,-0.02069 -1.98844,-0.0693 -0.63548,-0.08588 -0.601,-0.04398 0.0635,0.07715 0.59705,0.10884 1.23718,0.196427 1.60414,0.219491 0.43733,0.02748 2.22219,0.02121 2.71857,-0.0096 z m -1.48063,-0.202926 c -0.1271,-0.01569 -0.23599,-0.03345 -0.24198,-0.03946 -0.006,-0.006 0.37916,-0.01175 0.85587,-0.01277 0.59065,-0.0013 1.02142,-0.02006 1.35233,-0.0591 0.52001,-0.06133 0.88215,-0.07388 0.88215,-0.03057 0,0.01467 -0.22417,0.05512 -0.49814,0.08988 -0.55186,0.07001 -1.95318,0.101026 -2.35023,0.05201 z m 3.49283,-0.283644 c 0.008,-0.0076 0.15084,-0.07018 0.31801,-0.139151 0.57258,-0.236241 0.8298,-0.379783 1.30307,-0.727169 0.31583,-0.231825 1.15643,-0.67201 1.09572,-0.573781 -0.0101,0.01634 -0.15882,0.117581 -0.33051,0.22501 -0.1717,0.107432 -0.47935,0.308823 -0.68366,0.447537 -0.42814,0.290671 -0.91103,0.53113 -1.36234,0.678383 -0.31037,0.101267 -0.36819,0.116418 -0.34029,0.08917 z m -0.84428,-0.471773 c 0.008,-0.007 0.21367,-0.06787 0.45763,-0.135272 0.5269,-0.145572 0.97685,-0.335664 1.4751,-0.623181 0.20085,-0.115904 0.41361,-0.218372 0.4728,-0.227705 0.1282,-0.02022 0.13803,-0.02803 -0.35378,0.281666 -0.54961,0.346114 -0.83211,0.470374 -1.3571,0.596951 -0.35512,0.08562 -0.73554,0.144509 -0.69465,0.107541 z m -0.30676,-0.159939 c 0.48125,-0.142568 1.12217,-0.389699 1.5857,-0.611423 0.26847,-0.128422 0.53062,-0.241994 0.58255,-0.252378 0.12238,-0.02447 0.11908,-0.05533 -0.0238,-0.222223 -0.11722,-0.136949 -0.14846,-0.238322 -0.0855,-0.277269 0.0181,-0.01113 0.0537,0.02977 0.0793,0.09088 0.0256,0.06112 0.10963,0.168067 0.18676,0.237672 0.16013,0.144493 0.16713,0.1605 0.0702,0.1605 -0.0385,0 -0.17684,0.06234 -0.30731,0.13854 -0.46492,0.271532 -1.2095,0.554532 -1.94155,0.73795 -0.34454,0.08632 -0.44036,0.08485 -0.14634,-0.0022 z m 0.93469,-0.517182 c 0.17047,-0.08147 0.47061,-0.234307 0.66699,-0.339646 0.19638,-0.105335 0.35705,-0.183629 0.35705,-0.173979 0,0.0333 -0.82801,0.484592 -1.05267,0.573738 -0.33386,0.132484 -0.32193,0.107436 0.0286,-0.06011 z m -3.9572,-0.313028 c -0.13003,-0.06682 -0.43396,-0.196715 -0.67542,-0.288653 -0.24147,-0.09194 -0.46598,-0.191161 -0.49892,-0.220501 -0.0939,-0.08369 -0.14834,-0.331735 -0.27567,-1.257216 -0.18147,-1.318988 -0.23122,-2.063084 -0.14989,-2.241594 0.0209,-0.04588 0.0773,-0.09328 0.1253,-0.105327 0.048,-0.01206 0.33864,-0.01129 0.64586,0.0016 0.31621,0.01337 1.09052,0.0049 1.78459,-0.01941 0.86484,-0.03033 1.23658,-0.03243 1.26187,-0.0071 0.0253,0.0253 0.0201,0.06733 -0.0174,0.142686 -0.0437,0.08761 -0.0476,0.150391 -0.0218,0.34901 0.0627,0.482695 0.0264,2.520026 -0.0524,2.94012 -0.0291,0.155108 -0.24026,0.31531 -0.57259,0.434408 -0.13002,0.0466 -0.43088,0.154925 -0.66859,0.240729 -0.2377,0.0858 -0.48086,0.155259 -0.54034,0.154345 -0.0594,-9.59e-4 -0.21452,-0.05634 -0.34454,-0.123157 z m 0.42996,-0.159301 c 0.0793,-0.02958 0.20494,-0.07647 0.27923,-0.104206 l 0.13508,-0.05043 -0.18574,0.01709 -0.18574,0.01709 0.21444,-0.07013 c 0.20686,-0.06765 0.30952,-0.06468 0.20672,0.006 -0.0394,0.02707 -0.0357,0.03051 0.0179,0.01665 0.0372,-0.0096 0.10973,-0.02756 0.1613,-0.03987 0.0516,-0.01231 0.10932,-0.05145 0.12833,-0.08698 0.0245,-0.04569 0.0662,-0.06265 0.14264,-0.05792 0.11474,0.0071 0.35229,-0.09824 0.42842,-0.189971 0.0702,-0.08459 0.2031,-1.938781 0.2031,-2.833655 v -0.390472 l -0.37993,0.02453 c -0.50293,0.03249 -1.83346,0.03124 -2.50312,-0.0025 l -0.53597,-0.02688 0.0214,0.14507 c 0.0118,0.07979 0.0513,0.403421 0.0879,0.719181 0.0366,0.31576 0.0741,0.634897 0.0835,0.709193 0.009,0.0743 0.0333,0.264261 0.0532,0.422141 0.0358,0.28463 0.18957,1.185034 0.21936,1.284311 0.009,0.0284 0.0573,0.07045 0.10845,0.09342 0.0511,0.02294 0.31315,0.152931 0.58228,0.28882 0.38986,0.196848 0.49785,0.238539 0.53128,0.205108 0.0231,-0.02307 0.10682,-0.06616 0.1861,-0.09573 z m -0.51439,-0.152716 c -0.12353,-0.03771 -0.38057,-0.173223 -0.36262,-0.191171 0.0138,-0.0138 0.52802,0.177961 0.56243,0.209751 0.0232,0.0214 -0.10917,0.0091 -0.19981,-0.01857 z m 0.31725,-0.686799 c -0.27137,-0.158239 -1.06525,-0.712644 -1.11982,-0.78202 -0.12079,-0.153551 -0.21393,-0.65605 -0.26493,-1.429251 l -0.0228,-0.346154 1.27969,-0.0022 c 0.70383,-0.0013 1.35568,-0.01495 1.44855,-0.03076 0.13979,-0.02381 0.17916,-0.01879 0.22874,0.02909 0.0533,0.05145 0.0562,0.08556 0.0261,0.309372 -0.0186,0.138354 -0.0577,0.525098 -0.0868,0.859432 l -0.053,0.607882 -0.16889,0.171558 c -0.19535,0.198458 -0.63213,0.473097 -0.88554,0.55682 -0.29282,0.09674 -0.30771,0.09894 -0.38123,0.05606 z m 0.13849,-0.294696 c 0.0488,-0.01854 0.0807,-0.04652 0.0711,-0.06219 -0.022,-0.03556 0.10545,-0.154857 0.54155,-0.507018 l 0.34226,-0.276382 0.0156,-0.227329 c 0.009,-0.125033 0.0134,-0.230658 0.0105,-0.234723 -0.003,-0.0041 -0.20183,0.145942 -0.44233,0.333345 -0.58098,0.452731 -0.67472,0.513784 -0.7355,0.479079 -0.0685,-0.03913 -0.41937,-0.371482 -0.56473,-0.534975 -0.066,-0.07424 -0.14828,-0.157768 -0.18286,-0.185629 -0.0601,-0.04845 -0.062,-0.04306 -0.0423,0.124009 0.0386,0.328318 0.20851,0.563555 0.69976,0.968818 0.10216,0.08427 0.18855,0.15401 0.19199,0.154965 0.004,9.59e-4 0.0462,-0.01343 0.0949,-0.03197 z m -0.15793,-1.408088 c 0.1984,-0.16147 0.36811,-0.299291 0.37713,-0.306271 0.0203,-0.01569 -0.30926,-0.308876 -0.34917,-0.310674 -0.0303,-0.0013 -0.34473,0.25346 -0.58613,0.474991 l -0.14216,0.130463 0.15905,0.151752 c 0.0875,0.08346 0.16388,0.152103 0.16979,0.152535 0.006,3.09e-4 0.17309,-0.131328 0.37149,-0.292796 z m -1.35693,0.411778 c -0.0107,-0.02788 -0.005,-0.05066 0.0133,-0.05066 0.018,0 0.0327,0.02279 0.0327,0.05066 0,0.02788 -0.006,0.05065 -0.0132,0.05065 -0.007,0 -0.022,-0.02279 -0.0327,-0.05065 z m -3.50965,2.201758 c -0.009,-0.02422 0.0296,-0.115145 0.0865,-0.202067 0.0782,-0.119517 0.11384,-0.149347 0.14635,-0.122367 0.0469,0.03895 0.0339,0.09146 -0.0641,0.258702 -0.0667,0.113752 -0.13938,0.142072 -0.16867,0.06573 z m 0.2696,-0.705166 c 0.0224,-0.276779 0.0575,-0.399029 0.11464,-0.399029 0.0727,0 -0.0194,0.607702 -0.096,0.633231 -0.0278,0.0092 -0.033,-0.05635 -0.0186,-0.234202 z m 9.31676,0.101234 c -0.0403,-0.12929 -0.0472,-0.218892 -0.0204,-0.262385 0.0297,-0.04796 0.0368,-0.03014 0.0842,0.209556 0.0138,0.06979 -0.0437,0.117392 -0.0638,0.05283 z m -1.53916,-0.14632 c 0,-0.0096 0.16103,-0.09292 0.35784,-0.185059 0.19681,-0.09214 0.53925,-0.268632 0.76098,-0.392217 0.22172,-0.123585 0.41281,-0.215013 0.42465,-0.203177 0.0799,0.07995 -0.45839,0.390512 -1.12052,0.646419 -0.40947,0.158255 -0.42295,0.162528 -0.42295,0.134034 z m 1.44672,-0.269324 c -0.0272,-0.02722 0.0105,-0.219705 0.043,-0.219705 0.0165,0 0.0299,0.05319 0.0299,0.118198 0,0.106943 -0.0282,0.146236 -0.073,0.101507 z m 0.0822,-1.367923 c 0,-0.08358 0.007,-0.117777 0.0146,-0.07599 0.008,0.0418 0.008,0.110179 0,0.15197 -0.008,0.04179 -0.0146,0.0076 -0.0146,-0.07598 z m -0.0333,-0.422141 c 2.6e-4,-0.09287 0.007,-0.126853 0.0146,-0.07552 0.008,0.05134 0.008,0.127321 -6e-4,0.168857 -0.008,0.04154 -0.0144,-5.99e-4 -0.0141,-0.09334 z m -0.0435,-0.437031 c 0,-0.08248 0.0152,-0.159368 0.0337,-0.170848 0.0208,-0.01287 0.0337,0.04468 0.0337,0.149976 0,0.09397 -0.0152,0.170848 -0.0337,0.170848 -0.0186,0 -0.0337,-0.06749 -0.0337,-0.149976 z m -9.0766,-0.424131 c 0,-0.06501 0.007,-0.09161 0.0155,-0.0591 0.009,0.0325 0.009,0.08569 0,0.118198 -0.009,0.03251 -0.0155,0.0059 -0.0155,-0.0591 z m 9.11038,-0.120193 c 0,-0.116557 0.0128,-0.179821 0.0337,-0.166863 0.0186,0.01147 0.0338,0.09596 0.0338,0.187735 0,0.09178 -0.0152,0.166863 -0.0338,0.166863 -0.0186,0 -0.0337,-0.08448 -0.0337,-0.187735 z m -1.36605,0.05652 c 0.1013,-0.09443 0.96738,-0.683952 0.98254,-0.668795 0.0722,0.07225 -0.26065,0.361832 -0.66881,0.581791 -0.19625,0.105758 -0.39212,0.160079 -0.31373,0.087 z m -6.82784,-0.14739 c -0.35638,-0.265662 -0.56958,-0.498127 -0.45685,-0.498127 0.0214,0 0.3532,0.321763 0.57662,0.559158 0.0385,0.04095 -0.0294,0.0063 -0.11977,-0.06103 z m -0.95809,-0.07399 c 0,-0.04753 0.0152,-0.08642 0.0337,-0.08642 0.0186,0 0.0337,0.02949 0.0337,0.06555 0,0.03605 -0.0152,0.07494 -0.0337,0.08642 -0.0192,0.01184 -0.0337,-0.01653 -0.0337,-0.06555 z m 9.13069,-0.196179 c 0.0112,-0.04179 0.0206,-0.111076 0.0209,-0.153964 2.5e-4,-0.0433 0.0155,-0.06869 0.0342,-0.0571 0.0186,0.01147 0.0338,0.08076 0.0338,0.153964 0,0.100055 -0.0136,0.133092 -0.0546,0.133092 -0.0402,0 -0.0492,-0.02013 -0.0342,-0.07599 z m -5.91398,-0.961863 c -0.0789,-0.0071 -0.14353,-0.02726 -0.14353,-0.04476 0,-0.03516 0.2673,-0.04377 0.35184,-0.01132 0.0721,0.02769 0.068,0.08227 -0.005,0.07492 -0.0325,-0.0032 -0.12369,-0.01172 -0.20263,-0.01882 z m 0.54878,-0.0091 c -0.0133,-0.02152 0.0841,-0.03377 0.26817,-0.03377 0.17019,0 0.28905,0.01389 0.28905,0.03377 0,0.01969 -0.1119,0.03377 -0.26818,0.03377 -0.14749,0 -0.27757,-0.01519 -0.28904,-0.03377 z m 1.01313,0.0061 c 0.0495,-0.05332 0.48969,-0.09337 0.48969,-0.04455 0,0.02115 -0.0342,0.03857 -0.076,0.03873 -0.0418,1.27e-4 -0.15957,0.0097 -0.26173,0.02124 -0.13188,0.01488 -0.17595,0.01042 -0.15197,-0.01541 z m -2.20353,-0.08256 c -0.2219,-0.03757 -0.24083,-0.10836 -0.0223,-0.08374 0.13717,0.01548 0.25486,0.07182 0.21432,0.102634 -0.008,0.0061 -0.0944,-0.0025 -0.19193,-0.01889 z m 2.84691,0.01138 c 0.0465,-0.04531 0.52177,-0.08669 0.52177,-0.04543 0,0.01832 -0.0934,0.04309 -0.20758,0.05502 -0.28614,0.02992 -0.35261,0.02788 -0.31419,-0.0096 z m 0.69063,-0.06763 c 0,-0.02955 0.19609,-0.07678 0.48123,-0.11587 0.12732,-0.01746 0.17784,0.02642 0.0675,0.05866 -0.0817,0.02388 -0.45005,0.08859 -0.50433,0.08859 -0.0245,0 -0.0445,-0.01411 -0.0445,-0.03138 z m -4.37073,-0.08324 c -0.24177,-0.04643 -0.31549,-0.141855 -0.0827,-0.106982 0.26952,0.04037 0.46839,0.09287 0.46839,0.123652 0,0.03823 -0.1289,0.03266 -0.38573,-0.01668 z m 5.23358,-0.08342 c 0.0393,-0.03578 0.32095,-0.105904 0.42527,-0.105904 0.12524,0 0.0278,0.05704 -0.1669,0.09771 -0.21693,0.04531 -0.30215,0.04801 -0.25837,0.0082 z m -5.92009,-0.08045 c -0.12165,-0.03903 -0.14933,-0.126753 -0.04,-0.126753 0.0982,0 0.20041,0.06087 0.20041,0.119386 0,0.05587 -0.008,0.05625 -0.16042,0.0074 z m 6.67825,-0.07559 c 0,-0.05661 0.16802,-0.09927 0.21316,-0.05414 0.0358,0.0358 0.016,0.04752 -0.13718,0.08124 -0.0484,0.01063 -0.076,6e-4 -0.076,-0.0271 z m 3.24203,5.34987 c 0.25023,-0.05662 0.59276,-0.213463 0.61975,-0.283797 0.0423,-0.110275 0.0197,-0.108629 -0.24353,0.01771 -0.14598,0.07007 -0.34734,0.161623 -0.44746,0.203447 -0.19191,0.08016 -0.30129,0.153709 -0.18205,0.122403 0.0372,-0.0098 0.15113,-0.03664 0.25329,-0.05976 z m -12.24413,-0.181068 c 0.36775,-0.110679 0.53101,-0.310361 0.63692,-0.779055 0.0925,-0.409152 0.0925,-0.423335 0.002,-0.457919 -0.31828,-0.121011 -1.85518,-0.495873 -1.89006,-0.460997 -0.0103,0.01026 -0.002,0.09961 0.0188,0.198603 l 0.0374,0.179977 0.36404,0.08793 c 0.36248,0.08755 0.82779,0.268571 0.75379,0.293238 -0.0214,0.0071 -0.16239,-0.03421 -0.31336,-0.09186 -0.2915,-0.111311 -0.73115,-0.223237 -0.76073,-0.193661 -0.01,0.0097 -0.008,0.06122 0.004,0.114382 0.0203,0.09242 0.0304,0.09702 0.22951,0.104886 0.27435,0.01082 0.29724,0.03968 0.0315,0.03968 -0.20031,0 -0.20825,0.0032 -0.20825,0.08549 0,0.104877 -0.005,0.103107 0.48124,0.152494 0.21824,0.02214 0.39681,0.05406 0.39681,0.07094 0,0.01799 -0.16793,0.02121 -0.40526,0.0078 -0.42681,-0.02412 -0.44634,-0.01755 -0.37029,0.124536 0.03,0.05609 0.0742,0.06568 0.31238,0.06783 0.15259,0.0013 0.34581,0.01467 0.4294,0.02955 0.11632,0.02069 0.051,0.02803 -0.27861,0.03126 -0.23682,0.0022 -0.43036,0.01563 -0.43007,0.02955 0.002,0.0865 0.0832,0.116143 0.40788,0.148525 0.1933,0.01929 0.35905,0.04269 0.36834,0.05202 0.009,0.0093 -0.1389,0.01172 -0.3293,0.0053 -0.36407,-0.01228 -0.38768,-0.0016 -0.29355,0.13279 0.0475,0.06788 0.0809,0.07506 0.34923,0.07506 0.16316,0 0.36893,-0.02174 0.45727,-0.04834 z m 0.29041,-0.925626 c -0.0637,-0.03418 -0.12212,-0.08092 -0.12977,-0.10387 -0.008,-0.02407 0.0484,-0.0086 0.13328,0.03659 0.081,0.04307 0.17759,0.0883 0.21473,0.100502 0.0591,0.01944 0.057,0.0226 -0.0174,0.02555 -0.0467,0.0019 -0.1371,-0.02459 -0.20083,-0.05878 z m -0.49095,-0.275567 c -0.0114,-0.01857 -0.005,-0.03377 0.0129,-0.03377 0.0186,0 0.0432,0.01519 0.0547,0.03377 0.0115,0.01857 0.005,0.03377 -0.0129,0.03377 -0.0186,0 -0.0432,-0.01519 -0.0547,-0.03377 z m 12.34566,1.195391 c 0.16094,-0.0475 0.36012,-0.123616 0.68073,-0.26013 0.0917,-0.03903 0.13662,-0.117895 0.17699,-0.310495 0.0117,-0.05573 0.0288,-0.126741 0.038,-0.157818 0.0204,-0.06908 -0.52225,0.146618 -1.05696,0.420082 -0.40613,0.20771 -0.42388,0.303862 -0.0204,0.110368 0.341,-0.16352 0.99577,-0.39227 0.98209,-0.3431 -0.0145,0.05217 -0.77039,0.418507 -0.96543,0.467898 -0.19336,0.04896 -0.2028,0.05535 -0.14029,0.09488 0.0674,0.04265 0.0936,0.04079 0.30527,-0.02167 z m -13.74716,-0.04822 c -0.37167,-0.03507 -0.67379,-0.03453 -0.591,9.59e-4 0.0372,0.01597 0.24231,0.02763 0.45592,0.02595 0.37699,-0.0031 0.38095,-0.0038 0.13508,-0.02698 z m 15.19561,-0.03373 c 0.37107,-0.04815 0.37279,-0.04913 0.37351,-0.212346 3.1e-4,-0.07769 0.0307,-0.392004 0.0675,-0.698474 0.15933,-1.327766 0.10789,-2.477413 -0.17291,-3.864738 -0.0705,-0.348198 -0.29486,-1.059797 -0.39687,-1.258642 l -0.0585,-0.114056 -0.45443,0.293759 c -0.24994,0.16157 -0.6064,0.391954 -0.79214,0.511973 -0.59655,0.385448 -0.79284,0.544705 -0.85121,0.690569 -0.0316,0.07901 -0.0857,0.14526 -0.13348,0.163418 -0.0442,0.01681 -0.0969,0.0726 -0.11707,0.12401 -0.072,0.183133 -0.13832,2.88485 -0.0718,2.92446 0.0517,0.03079 0.66218,-0.08201 1.24336,-0.22977 0.32979,-0.08385 0.60315,-0.156332 0.60747,-0.16107 0.004,-0.0047 0.027,-0.259372 0.0503,-0.565844 0.0287,-0.376971 0.0354,-0.863107 0.0207,-1.502816 -0.0204,-0.891272 -0.004,-1.070362 0.0655,-0.692309 l 0.0277,0.15197 0.0206,-0.135086 0.0207,-0.135082 0.0771,0.164857 c 0.1745,0.372859 0.21667,0.702352 0.22003,1.719456 0.002,0.730881 0.0128,0.944728 0.047,0.965842 0.0242,0.01491 0.0657,0.06913 0.0923,0.120484 0.0967,0.186311 0.0375,0.984288 -0.10645,1.436494 -0.0855,0.268466 -0.0971,0.338356 -0.0562,0.336669 0.0139,-5.99e-4 0.13867,-0.01575 0.2772,-0.03373 z m -2.2297,-1.841841 c 0.15142,-0.0657 0.6987,-0.203116 0.99846,-0.250707 0.13002,-0.02065 0.27059,-0.04463 0.31238,-0.05331 0.11201,-0.02326 0.0979,0.0801 -0.0169,0.123965 -0.0996,0.03805 -1.22998,0.232806 -1.3424,0.23129 -0.0468,-5.99e-4 -0.0319,-0.01637 0.0484,-0.05124 z m 0.3568,-0.374059 c 0.22295,-0.135244 0.83177,-0.433419 0.95803,-0.469209 0.13775,-0.03904 0.0663,0.06011 -0.11604,0.16104 -0.19831,0.109773 -0.9474,0.431295 -1.00456,0.43117 -0.022,-4.6e-5 0.0511,-0.05539 0.16257,-0.123001 z m -0.18574,-0.516655 c 0,-0.05075 0.96035,-0.51235 1.1068,-0.531995 0.31898,-0.04278 0.0773,0.126236 -0.47562,0.332561 -0.49973,0.1865 -0.63118,0.22803 -0.63118,0.199434 z m 0.30394,-0.656959 c 0.0726,-0.07186 0.6989,-0.391855 0.76691,-0.391855 0.0978,0 0.0102,0.05345 -0.41231,0.25178 -0.22289,0.104608 -0.38246,0.167642 -0.3546,0.140075 z m 0.0334,3.056594 c 0.21382,-0.109357 0.56353,-0.25666 0.77713,-0.327341 0.2136,-0.07068 0.39769,-0.142115 0.40909,-0.158749 0.0224,-0.03266 0.0691,-0.46919 0.052,-0.486256 -0.005,-0.0057 -0.07,0.0182 -0.14284,0.05312 -0.0729,0.0349 -0.45498,0.17854 -0.84911,0.319195 -0.69245,0.24711 -0.9213,0.341453 -0.9213,0.379817 0,0.01005 0.0161,0.04836 0.0358,0.08518 0.0427,0.07981 0.0847,0.07093 0.42008,-0.08879 0.63443,-0.302165 1.35358,-0.582123 1.3933,-0.542395 0.0366,0.03662 -0.0467,0.08879 -0.35445,0.221901 -0.92002,0.39795 -1.3259,0.588864 -1.3259,0.623652 0,0.03935 0.0666,0.119495 0.0992,0.119495 0.01,0 0.19312,-0.08947 0.40694,-0.198834 z m -13.27167,0.139514 c 0,-0.01405 -0.0157,-0.07864 -0.0349,-0.143529 -0.12018,-0.405762 -0.21358,-1.149229 -0.17765,-1.414203 0.0143,-0.105125 0.0382,-0.152745 0.0826,-0.164351 0.0586,-0.01532 0.0625,-0.06586 0.0625,-0.800634 0,-0.990698 0.0359,-1.920886 0.0727,-1.884057 0.0155,0.01554 0.0391,0.149145 0.0524,0.296894 0.0234,0.259991 0.0249,0.263744 0.0483,0.116664 0.0133,-0.08358 0.0264,-0.273548 0.0291,-0.422141 0.003,-0.14859 0.0179,-0.300563 0.0339,-0.337711 0.0195,-0.04528 0.0299,-0.05084 0.0316,-0.01687 0.002,0.02788 0.0173,0.17983 0.0353,0.33771 0.0322,0.283303 0.13567,2.195323 0.13567,2.507204 0,0.147668 0.007,0.160717 0.082,0.160717 0.0999,0 0.98738,0.206895 1.46369,0.341215 0.19077,0.05379 0.35511,0.09781 0.36518,0.09781 0.0101,0 0.0136,-0.04939 0.008,-0.109758 -0.0105,-0.109754 -0.0105,-0.109754 -0.26386,-0.132031 -0.50992,-0.04485 -1.26113,-0.174569 -1.1815,-0.204027 0.0854,-0.0316 0.478,0.01033 1.04145,0.111271 0.21087,0.03777 0.38954,0.06254 0.39704,0.05503 0.007,-0.0075 0.005,-0.05946 -0.007,-0.115447 -0.0201,-0.100694 -0.0243,-0.102459 -0.38016,-0.161385 -0.51315,-0.08497 -1.15809,-0.22052 -1.22848,-0.258192 -0.10555,-0.05648 -0.0677,-0.101615 0.0666,-0.0795 0.47733,0.07857 1.2758,0.256087 1.45032,0.322439 0.0753,0.02862 0.0778,0.02366 0.0778,-0.15263 0,-0.574817 -0.10355,-1.651061 -0.19468,-2.023467 -0.0517,-0.211234 -0.0729,-0.245609 -0.23967,-0.38837 -0.10063,-0.08614 -0.5635,-0.409251 -1.0286,-0.718018 l -0.84564,-0.5614 -0.0957,0.202358 c -0.2193,0.46369 -0.45118,1.261024 -0.5533,1.902498 -0.0837,0.525935 -0.10287,1.910376 -0.0345,2.496369 0.0686,0.587717 0.1721,1.099743 0.22979,1.136336 0.055,0.0349 0.49963,0.03777 0.49963,0.0032 z m 1.75369,-2.386441 c -0.46508,-0.136044 -1.21988,-0.46328 -1.17413,-0.50903 0.0309,-0.03092 1.48048,0.519756 1.48048,0.562411 0,0.03608 -0.001,0.03586 -0.30635,-0.05338 z m -0.75744,-0.01953 -0.13509,-0.02418 0.13509,-0.0022 c 0.0743,-0.0013 0.20347,0.0099 0.28706,0.02474 l 0.15196,0.02704 -0.15196,-6e-4 c -0.0836,-2.54e-4 -0.21276,-0.01144 -0.28706,-0.02474 z m 11.95498,1.712021 c 0.18575,-0.08261 0.39091,-0.161415 0.45591,-0.175127 0.065,-0.01371 0.20375,-0.06061 0.30831,-0.1042 0.10455,-0.04359 0.31731,-0.111808 0.47279,-0.151586 0.15548,-0.03977 0.29789,-0.08785 0.31647,-0.106836 0.0229,-0.02344 10e-4,-0.02735 -0.0675,-0.01216 -0.0557,0.01228 -0.2077,0.04623 -0.33771,0.07542 -0.13003,0.02918 -0.2668,0.05352 -0.30395,0.05406 -0.0372,5.99e-4 -0.19671,0.03589 -0.35459,0.07854 -0.15788,0.04265 -0.44282,0.104869 -0.63321,0.138265 -0.30737,0.05391 -0.38925,0.09204 -0.32841,0.152881 0.0194,0.01944 0.92496,-0.207937 1.15717,-0.290593 0.0797,-0.02838 0.13652,-0.03803 0.12629,-0.02149 -0.0264,0.04276 -0.23619,0.113686 -0.76931,0.260118 -0.43165,0.118558 -0.46436,0.133231 -0.46436,0.208315 0,0.05176 0.0152,0.07427 0.0422,0.06267 0.0233,-0.01 0.19419,-0.08569 0.37992,-0.168293 z m -9.86338,-3.332192 c 0.27949,-0.106266 0.29575,-0.641439 0.028,-0.921009 -0.0892,-0.09317 -0.39407,-0.228052 -0.51539,-0.228052 -0.0991,0 -0.18623,0.116074 -0.25328,0.337534 -0.0576,0.190194 -0.0577,0.208409 -0.003,0.351519 0.0621,0.162687 0.2657,0.36947 0.43718,0.444086 0.12838,0.05586 0.19278,0.0592 0.30661,0.01594 z m -0.32157,-0.280469 c -0.13481,-0.09085 -0.19848,-0.203115 -0.19917,-0.351171 -6e-4,-0.102049 0.0705,-0.213481 0.13603,-0.213481 0.0167,0 0.0433,0.04939 0.059,0.109754 l 0.0286,0.109758 0.0221,-0.109758 c 0.0188,-0.09298 0.0369,-0.109754 0.11841,-0.109754 0.14319,0 0.31068,0.205716 0.31068,0.381593 0,0.04515 -0.0315,0.122137 -0.07,0.171075 -0.0892,0.113457 -0.24822,0.118148 -0.40576,0.012 z m 8.99775,0.173108 c 0.18223,-0.124443 0.42987,-0.377472 0.49762,-0.508459 0.0357,-0.06891 0.0648,-0.183164 0.0648,-0.253888 0,-0.16014 -0.13161,-0.363997 -0.25499,-0.394962 -0.19934,-0.05004 -0.7407,0.198842 -0.86073,0.3957 -0.037,0.0607 -0.0661,0.168981 -0.0661,0.246437 -1.3e-4,0.173614 0.0783,0.439121 0.15473,0.52357 0.0825,0.09112 0.3254,0.08673 0.46469,-0.0084 z m -0.33839,-0.178391 c -0.12896,-0.05701 -0.20979,-0.17189 -0.23642,-0.336 -0.0234,-0.144025 0.0155,-0.201031 0.20175,-0.29606 0.15156,-0.07732 0.26852,-0.06302 0.38672,0.04731 0.076,0.07093 0.076,0.07093 0.076,-2.54e-4 0,-0.03918 -0.0148,-0.110213 -0.0329,-0.157858 -0.0498,-0.130974 0.0512,-0.113615 0.13462,0.02313 0.22378,0.367029 -0.15708,0.88454 -0.52972,0.719783 z m -2.40874,-0.980313 c 0.7697,-0.07809 1.37286,-0.169375 2.25916,-0.341913 0.43455,-0.0846 0.82665,-0.144636 0.87132,-0.133426 0.0645,0.01619 0.14502,-0.02751 0.39188,-0.2128 0.26717,-0.200538 0.86136,-0.577881 1.88102,-1.194547 0.16204,-0.098 0.24759,-0.169915 0.23746,-0.199636 -0.0288,-0.08455 -0.037,-3.745427 -0.0103,-4.617464 l 0.0262,-0.856183 -0.15198,0.02403 c -0.0836,0.01321 -0.30132,0.03377 -0.48387,0.04567 l -0.33191,0.02164 -0.0957,0.246288 c -0.4139,1.065348 -1.41863,1.965196 -2.52293,2.259579 -0.28532,0.07606 -0.40342,0.08869 -0.85453,0.09139 -0.59518,0.0036 -0.87971,-0.04682 -1.32479,-0.23453 -0.46115,-0.194485 -0.75506,-0.40103 -1.17536,-0.825999 l -0.38947,-0.393774 -0.33662,0.345522 c -1.09296,1.12187 -2.59469,1.431229 -3.96701,0.817217 -0.82976,-0.371249 -1.62981,-1.199639 -1.92509,-1.993268 -0.0816,-0.21928 -0.049,-0.204315 -0.56886,-0.261657 -0.19222,-0.02121 -0.37078,-0.04673 -0.39681,-0.05671 -0.0403,-0.01547 -0.0473,0.390103 -0.0473,2.752494 v 2.770658 l 0.12663,0.08828 c 0.0697,0.04856 0.41539,0.289303 0.7683,0.534999 0.35291,0.245696 0.81977,0.580812 1.03748,0.744698 0.36289,0.273185 0.40033,0.29348 0.44988,0.243928 0.0743,-0.07433 0.13274,-0.07039 0.94238,0.06365 0.39103,0.06473 0.94653,0.147644 1.23443,0.18425 0.45388,0.05771 0.72682,0.0833 1.60412,0.150403 0.39017,0.02983 2.25973,-0.01281 2.75235,-0.06279 z m 4.4409,-1.621771 c 0.13488,-0.114825 0.84437,-0.467727 0.90097,-0.448151 0.0246,0.0085 -0.19093,0.132199 -0.47883,0.274916 -0.32585,0.161526 -0.4852,0.226923 -0.42214,0.173235 z m -6.4334,-0.660252 c -0.90267,-0.107625 -1.76029,-0.554185 -2.02592,-1.054895 l -0.0781,-0.147129 -0.12156,0.06329 c -0.12856,0.06694 -0.30702,0.06209 -0.39475,-0.0107 -0.0683,-0.05672 -0.0587,-0.106886 0.0159,-0.08319 0.0974,0.03092 0.41433,-0.102754 0.56008,-0.236261 0.13642,-0.124952 0.22588,-0.117984 0.15623,0.01216 -0.0648,0.121073 -0.0412,0.170339 0.15728,0.327722 0.69696,0.552771 1.63512,0.819925 2.55001,0.726143 0.67816,-0.06951 1.34029,-0.322895 1.69792,-0.64975 0.17033,-0.155675 0.17658,-0.16739 0.1404,-0.263241 -0.0287,-0.07598 -0.028,-0.110186 0.003,-0.141001 0.0317,-0.03174 0.066,-0.01117 0.15552,0.09348 0.14767,0.172518 0.43403,0.331561 0.54627,0.30339 0.0592,-0.01488 0.0825,-0.0068 0.0825,0.02862 0,0.02713 -0.0166,0.05957 -0.0369,0.07212 -0.0723,0.0447 -0.29721,0.01814 -0.433,-0.05113 -0.0779,-0.03973 -0.13797,-0.0545 -0.13797,-0.03391 0,0.02006 -0.0789,0.119956 -0.17544,0.221987 -0.58701,0.620679 -1.63543,0.944622 -2.66133,0.822309 z m 6.45029,-0.316644 c 0,-0.02809 0.43165,-0.254378 0.61895,-0.324454 0.35191,-0.131666 0.27327,-0.04988 -0.14003,0.145646 -0.37489,0.177354 -0.47892,0.216195 -0.47892,0.178808 z m 0.13509,-0.61711 c 0,-0.0826 0.65262,-0.474074 0.74113,-0.444566 0.0318,0.01057 -0.12248,0.110974 -0.6145,0.400041 -0.0696,0.04092 -0.12663,0.06096 -0.12663,0.04452 z m -12.75705,-0.495494 c -0.49757,-0.246735 -0.65196,-0.359925 -0.48969,-0.359017 0.1379,5.99e-4 0.89476,0.437859 1.02045,0.589308 0.0237,0.02862 0.0375,0.04972 0.0306,0.04693 -0.007,-0.0028 -0.25953,-0.127544 -0.56136,-0.277216 z m 12.6895,-0.167595 c 0,-0.06151 0.68281,-0.495693 0.77953,-0.495693 0.084,0 -0.0487,0.101082 -0.38467,0.293195 -0.38707,0.221307 -0.39486,0.225302 -0.39486,0.202498 z m -12.87525,-0.623573 c -0.21825,-0.123218 -0.39682,-0.24528 -0.39682,-0.271249 0,-0.07561 0.15758,-0.01886 0.40464,0.145761 0.18197,0.121244 0.45745,0.361488 0.40375,0.352102 -0.008,-0.0016 -0.19333,-0.103395 -0.41157,-0.226614 z m 13.04564,0.140205 c 0.002,-0.04139 0.39595,-0.332023 0.54682,-0.403585 0.13326,-0.06321 0.20717,-0.04366 0.12505,0.03307 -0.0268,0.02499 -0.15502,0.102874 -0.28504,0.173052 -0.13002,0.07018 -0.27059,0.149893 -0.31238,0.17714 -0.0418,0.02725 -0.0753,0.03639 -0.0745,0.02031 z m 0.11438,-0.513244 c 0.0919,-0.105934 0.6219,-0.461078 0.64847,-0.434506 0.0372,0.03723 -0.0525,0.117482 -0.26948,0.241085 -0.11432,0.06511 -0.26105,0.152199 -0.32606,0.193534 -0.11819,0.07515 -0.11819,0.07515 -0.0529,-1.13e-4 z m -13.12225,-0.32708 c -0.34386,-0.171084 -0.43122,-0.233532 -0.38764,-0.277108 0.0333,-0.03326 0.50176,0.214663 0.64565,0.341664 0.0741,0.06544 0.1272,0.117876 0.11791,0.116531 -0.009,-0.0013 -0.17845,-0.08284 -0.37592,-0.181087 z m 13.2379,-0.06195 c 0.11129,-0.114822 0.43454,-0.312613 0.46352,-0.283626 0.008,0.0083 -0.11782,0.101559 -0.28029,0.207227 -0.2572,0.167279 -0.28089,0.177158 -0.18323,0.0764 z m -0.24846,-0.355668 c 0.15434,-0.169406 0.8374,-0.727339 0.79618,-0.650336 -0.0365,0.06818 -0.51229,0.482344 -0.7624,0.663629 l -0.13509,0.09791 z M 652.82,-56.459412 c -0.11609,-0.05858 -0.21107,-0.126047 -0.21107,-0.149945 0,-0.02388 0.0114,-0.0433 0.0254,-0.04313 0.0459,6e-4 0.3654,0.194765 0.41105,0.249777 0.0637,0.07677 0.0149,0.06448 -0.2253,-0.05671 z m 13.21296,-0.517691 c 0.29535,-0.249178 0.82739,-0.564693 0.82739,-0.490666 0,0.04115 -0.17346,0.170243 -0.52725,0.392376 -0.31177,0.195741 -0.48156,0.251345 -0.30014,0.09829 z m -11.63416,6.408046 c 0,-0.03416 -0.79127,-0.626931 -1.49809,-1.122282 -0.27602,-0.193435 -0.57006,-0.402128 -0.65342,-0.463767 -0.0834,-0.06164 -0.16006,-0.103572 -0.17044,-0.09319 -0.0295,0.02946 -0.0716,0.322253 -0.0738,0.513051 -0.002,0.195419 -0.0222,0.176147 0.53542,0.517874 0.41655,0.255278 0.44091,0.262707 0.26782,0.08171 -0.2265,-0.236849 -0.33245,-0.409151 -0.33245,-0.540602 0,-0.174864 0.11355,-0.150305 0.44454,0.09614 0.27065,0.201521 1.4546,1.03725 1.47197,1.039039 0.005,5.99e-4 0.008,-0.01209 0.008,-0.02797 z m -2.26762,-1.099879 c -0.0461,-0.101134 -0.008,-0.390986 0.0509,-0.390986 0.0689,0 0.12288,0.07529 0.12288,0.171387 0,0.270183 -0.0957,0.39107 -0.17381,0.219599 z m 13.53223,0.956728 c 0.028,-0.04531 -0.0682,0.0035 -0.17079,0.08672 -0.0627,0.05083 -0.0598,0.05103 0.0401,0.0028 0.0592,-0.02862 0.11801,-0.06887 0.13072,-0.08943 z m 0.18381,-0.117445 c 0,-0.0093 -0.0304,-5.99e-4 -0.0675,0.01926 -0.0372,0.01988 -0.0675,0.04374 -0.0675,0.05303 0,0.0093 0.0304,6e-4 0.0675,-0.01926 0.0372,-0.01987 0.0675,-0.04374 0.0675,-0.05303 z m -0.22559,-0.452591 c 0.40063,-0.268807 0.72304,-0.494108 0.71648,-0.50067 -0.0289,-0.02887 -1.24919,0.744645 -1.45337,0.921217 -0.23383,0.202209 0.0511,0.03961 0.73689,-0.420547 z m 1.6712,-0.660742 c 0.005,-0.109203 0.002,-0.233333 -0.009,-0.275843 -0.017,-0.06763 -0.0278,-0.07207 -0.0863,-0.03549 -0.0828,0.05168 -0.0881,0.133373 -0.008,0.119897 0.0482,-0.0081 0.0589,0.01498 0.0582,0.125163 -6e-4,0.0743 -0.0135,0.171074 -0.0289,0.215066 -0.0212,0.06066 -0.0169,0.07633 0.0178,0.06487 0.0299,-0.0099 0.0493,-0.08397 0.0561,-0.213658 z m -4.01827,-4.099455 c 0.50976,-0.147594 0.96914,-0.429623 1.35944,-0.834594 0.53539,-0.555527 0.83664,-1.161682 0.94474,-1.900981 0.21915,-1.498779 -0.81449,-3.096394 -2.3319,-3.604236 -0.26459,-0.08855 -0.3267,-0.09607 -0.79362,-0.09607 -0.48165,0 -0.52398,0.0056 -0.86029,0.11309 -0.58309,0.186421 -1.00281,0.433869 -1.38767,0.818102 -0.20742,0.207081 -0.46437,0.551936 -0.55801,0.748921 -0.0664,0.139699 -0.0968,0.155774 -0.13021,0.0688 -0.0589,-0.153331 -0.42475,-0.64396 -0.63942,-0.857361 -0.58597,-0.582499 -1.2975,-0.898785 -2.09796,-0.932572 -0.50099,-0.02115 -1.18729,0.0567 -1.44325,0.163718 -0.74906,0.313165 -1.40071,1.086139 -1.66752,1.977979 -0.0761,0.254434 -0.0913,0.379832 -0.10573,0.873755 -0.0149,0.507696 -0.008,0.614759 0.0558,0.894937 0.1435,0.628679 0.46375,1.195878 0.95797,1.696641 0.44756,0.453493 0.90122,0.708867 1.51044,0.850253 0.31317,0.07267 0.86976,0.07514 1.20328,0.0053 0.71348,-0.149359 1.43345,-0.634856 1.99435,-1.344846 0.0894,-0.113199 0.20237,-0.252313 0.25098,-0.309143 l 0.0884,-0.10332 0.1985,0.302008 c 0.23345,0.355215 0.62323,0.775272 0.90806,0.97862 0.3673,0.262226 0.93687,0.50778 1.31707,0.567821 0.25151,0.03972 0.9821,-0.006 1.2266,-0.07685 z m -7.03524,-0.118375 c -0.39971,-0.09255 -0.9501,-0.377597 -1.24953,-0.647113 -0.0753,-0.06779 -0.0797,-0.07667 -0.0169,-0.03459 0.22963,0.153966 0.72609,0.367407 1.03002,0.442826 0.55241,0.137079 1.02668,0.109665 1.54362,-0.08923 0.66303,-0.255107 1.33254,-0.86876 1.71708,-1.573822 0.0633,-0.116087 0.12578,-0.211069 0.13881,-0.211069 0.0538,0 0.0617,0.138115 0.0144,0.251299 -0.10248,0.245262 -0.48092,0.753796 -0.7954,1.068814 -0.56462,0.565608 -1.08098,0.804073 -1.7911,0.827172 -0.25474,0.0083 -0.45809,-0.0035 -0.591,-0.03429 z m 0.11021,-0.423244 c -0.71656,-0.130983 -1.36988,-0.567686 -1.82837,-1.222149 -0.25453,-0.363314 -0.46477,-0.898686 -0.45741,-1.164789 0.003,-0.111209 0.004,-0.110099 0.0991,0.219181 0.0396,0.136441 0.0788,0.241182 0.0872,0.232756 0.008,-0.0084 -0.01,-0.15805 -0.0401,-0.332504 -0.1481,-0.847535 0.0867,-1.687286 0.63703,-2.278079 0.26804,-0.287771 0.50898,-0.455918 0.87362,-0.609705 0.71399,-0.301121 1.47796,-0.284987 2.15663,0.04555 0.56496,0.275154 1.05735,0.84559 1.26318,1.463376 0.12161,0.364998 0.16697,0.70541 0.14374,1.078557 -0.0263,0.422997 -0.0905,0.656057 -0.29291,1.063791 -0.38439,0.774357 -0.9434,1.270063 -1.63746,1.452021 -0.24508,0.06425 -0.78442,0.09217 -1.00424,0.05199 z m 0.81616,-0.340883 c 0.65301,-0.105953 1.29411,-0.540637 1.63726,-1.110109 0.22876,-0.379621 0.32405,-0.722694 0.32298,-1.162854 -0.001,-0.537914 -0.091,-0.832888 -0.39338,-1.294116 -0.21694,-0.33087 -0.50805,-0.603456 -0.81893,-0.766816 -0.33301,-0.174993 -0.56447,-0.226749 -1.01576,-0.227137 -0.91163,-6e-4 -1.58994,0.337326 -2.03202,1.012871 -0.19001,0.29034 -0.28826,0.579097 -0.33796,0.993188 -0.18025,1.501768 1.15542,2.795494 2.63781,2.554973 z m -0.26783,-1.012047 c -0.78245,-0.0936 -1.26932,-0.893402 -1.01087,-1.660606 0.20757,-0.616161 0.71681,-0.927025 1.36763,-0.834855 0.75714,0.107224 1.21885,0.838092 1.01207,1.602037 -0.16139,0.596223 -0.73323,0.969456 -1.36883,0.893424 z m 0.10803,-1.368094 c 0.032,-0.07028 0.0291,-0.09563 -0.0164,-0.141073 -0.0454,-0.04545 -0.0708,-0.04838 -0.14107,-0.01637 -0.0822,0.03746 -0.11873,0.165025 -0.0632,0.220595 0.0556,0.05557 0.18314,0.01904 0.2206,-0.06316 z m -0.0535,-0.362948 c 0.0965,-0.08843 0.12463,-0.142878 0.1388,-0.268558 0.016,-0.142224 0.008,-0.167708 -0.0852,-0.260568 -0.11416,-0.114155 -0.21681,-0.128968 -0.39059,-0.05636 -0.25494,0.106524 -0.3497,0.43878 -0.17497,0.61351 0.12929,0.129293 0.35366,0.117011 0.51192,-0.02803 z m 1.63408,-0.678538 c -0.32437,-0.436752 -0.78872,-0.715745 -1.39476,-0.838005 -0.19873,-0.04009 -0.36134,-0.08767 -0.36134,-0.105727 0,-0.05705 0.49446,0.0052 0.7699,0.09687 0.3489,0.116158 0.58463,0.262431 0.80486,0.499435 0.15634,0.16825 0.3777,0.518206 0.34402,0.543884 -0.006,0.0045 -0.0791,-0.08391 -0.16268,-0.196455 z m -3.68105,0.02515 c 0,-0.06727 0.24603,-0.350278 0.45158,-0.519436 0.2139,-0.176038 0.34093,-0.233696 0.39522,-0.1794 0.0193,0.01929 -0.071,0.09956 -0.23463,0.20866 -0.1463,0.09752 -0.34389,0.2556 -0.43909,0.351298 -0.0952,0.0957 -0.17308,0.158197 -0.17308,0.138878 z m 6.9267,3.703668 c -0.32588,-0.08 -0.75109,-0.297828 -1.02924,-0.527256 -0.86823,-0.716161 -1.22597,-1.934486 -0.87756,-2.988652 0.2715,-0.821475 0.98997,-1.506695 1.82012,-1.735891 0.11069,-0.03054 0.36921,-0.06424 0.57449,-0.07485 0.50827,-0.02626 0.83239,0.04014 1.29834,0.266041 0.31244,0.15148 0.39062,0.208361 0.65912,0.479575 0.25952,0.262152 0.33085,0.360213 0.48178,0.662307 0.21876,0.437863 0.28443,0.728239 0.28256,1.249532 -0.003,0.815553 -0.27776,1.46302 -0.85384,2.011319 -0.27403,0.260819 -0.47532,0.397499 -0.7702,0.522981 -0.48115,0.204746 -1.09004,0.256552 -1.58557,0.134899 z m 1.03626,-0.325105 c 0.71735,-0.147877 1.32651,-0.633836 1.64724,-1.314071 0.19418,-0.411839 0.22907,-0.595283 0.2094,-1.10096 -0.0127,-0.324895 -0.0355,-0.477334 -0.10187,-0.68017 -0.0952,-0.290658 -0.33239,-0.694782 -0.50419,-0.858926 -0.18057,-0.172526 -0.59745,-0.411254 -0.88896,-0.50908 -0.24646,-0.08271 -0.3161,-0.09071 -0.79362,-0.09121 -0.48832,-6e-4 -0.54043,0.0057 -0.77634,0.0925 -0.35745,0.131529 -0.58858,0.277353 -0.84324,0.532011 -0.42345,0.423449 -0.61142,0.863925 -0.63584,1.489941 -0.0194,0.496084 0.0428,0.797083 0.25002,1.211038 0.24647,0.492341 0.7153,0.918224 1.23874,1.125253 0.40262,0.159244 0.77347,0.191316 1.19866,0.103665 z m -0.97473,-1.003508 c -0.49365,-0.139963 -0.85027,-0.568656 -0.89797,-1.07945 -0.0601,-0.643765 0.31287,-1.202709 0.90833,-1.361228 0.73278,-0.195072 1.41414,0.247082 1.54579,1.003101 0.10123,0.581286 -0.26204,1.207931 -0.81079,1.398624 -0.21126,0.07341 -0.55962,0.09161 -0.74536,0.03895 z m 0.36021,-1.323869 c 0.0968,-0.147734 -0.0597,-0.251925 -0.19475,-0.12968 -0.0777,0.07036 -0.0787,0.133519 -0.003,0.177803 0.0927,0.05399 0.13767,0.04303 0.1974,-0.04812 z m -0.0373,-0.393985 c 0.18365,-0.21826 0.045,-0.568497 -0.22505,-0.568197 -0.23407,2.55e-4 -0.45845,0.242251 -0.40986,0.442021 0.0466,0.191756 0.27468,0.320488 0.45761,0.258335 0.0509,-0.0173 0.13069,-0.07676 0.1773,-0.132159 z m 2.24146,-0.391023 c -0.14102,-0.246918 -0.5246,-0.631619 -0.79743,-0.799778 -0.11609,-0.07155 -0.21107,-0.142227 -0.21107,-0.157065 0,-0.05875 0.0601,-0.05723 0.19918,0.005 0.28856,0.129191 0.63949,0.464976 0.78593,0.752 0.0756,0.148196 0.16744,0.393998 0.1472,0.393998 -0.007,0 -0.0628,-0.08738 -0.12381,-0.194185 z m -10.09298,-1.16899 c 0,-0.06295 0.28443,-0.429357 0.47822,-0.61604 0.22376,-0.21555 0.52398,-0.452312 0.57354,-0.452312 0.076,0 0.0106,0.09998 -0.16547,0.252778 -0.10669,0.09259 -0.34975,0.319633 -0.54014,0.504537 -0.19039,0.184903 -0.34615,0.32487 -0.34615,0.311037 z m -1.12619,3.009514 c -0.0105,-0.0418 -0.0295,-0.20136 -0.0423,-0.354598 -0.0197,-0.237002 -0.0323,-0.278612 -0.0839,-0.278612 -0.0899,0 -0.0945,0.02431 -0.0629,0.337066 0.0211,0.208998 0.0448,0.297992 0.0876,0.32927 0.0872,0.06378 0.12289,0.05213 0.10151,-0.03313 z m 12.93778,-0.835835 -0.002,-0.219512 -0.0252,0.202625 c -0.0139,0.111445 -0.0246,0.293809 -0.024,0.405253 l 10e-4,0.202628 0.0257,-0.185741 c 0.0141,-0.102157 0.0249,-0.284521 0.0241,-0.405253 z m -13.29752,0.236397 c 0,-0.05842 -0.0225,-0.06754 -0.16666,-0.06754 -0.0917,0 -0.20564,0.01482 -0.25328,0.03294 -0.16061,0.06106 -0.0936,0.102148 0.16665,0.102148 0.23077,0 0.25329,-0.006 0.25329,-0.06754 z m 0.32977,-0.65833 c 0.0235,-0.164141 0.0615,-0.321354 0.0844,-0.349364 0.0357,-0.04362 0.0296,-0.04773 -0.0427,-0.02865 -0.0465,0.01225 -0.11102,0.02248 -0.14353,0.02273 -0.052,3.1e-4 -0.0591,0.03816 -0.0591,0.315658 0,0.173359 0.0104,0.325645 0.0232,0.338414 0.0598,0.05976 0.0984,-0.024 0.1377,-0.298807 z m -0.70612,-0.0843 c 0.19235,-0.01876 0.36332,-0.0341 0.37992,-0.0341 0.0166,0 0.0302,-0.03108 0.0302,-0.06907 0,-0.06114 -0.0146,-0.06659 -0.12664,-0.04747 -0.29058,0.04956 -0.7369,0.160051 -0.76829,0.1902 -0.0218,0.02093 -0.004,0.02571 0.0506,0.01349 0.0465,-0.01042 0.24181,-0.03429 0.43416,-0.05305 z m 13.7022,-0.259309 c -0.0261,-0.254716 -0.0366,-0.281365 -0.11058,-0.281365 -0.0386,0 -0.0433,0.01141 -0.0175,0.04255 0.0194,0.02341 0.046,0.13738 0.0592,0.253287 0.0131,0.115903 0.0392,0.210734 0.0579,0.210734 0.0218,0 0.0258,-0.08101 0.011,-0.225203 z m -13.24366,-0.247041 c 0.1102,-0.01889 0.25637,-0.03432 0.32481,-0.03432 0.12342,0 0.1249,-0.0016 0.18197,-0.205047 0.25874,-0.922138 0.86689,-1.724576 1.60615,-2.119259 0.46169,-0.246493 1.05932,-0.377039 1.72704,-0.377256 0.67036,-2.54e-4 1.25109,0.153514 1.74735,0.462557 0.30097,0.187434 0.75539,0.611588 0.93568,0.873358 0.0696,0.101011 0.12998,0.183658 0.13424,0.183658 0.004,0 0.0583,-0.07979 0.12013,-0.177298 0.26456,-0.417384 0.73017,-0.809031 1.25001,-1.051431 0.55419,-0.258418 1.20681,-0.361608 1.85667,-0.293567 0.89891,0.09412 1.57995,0.402619 2.11178,0.956583 0.31033,0.323248 0.53307,0.668131 0.78909,1.221782 0.1662,0.359401 0.18848,0.391204 0.2842,0.405483 0.46009,0.06864 0.7811,0.110049 0.79053,0.101966 0.0267,-0.02292 -0.11296,-0.606682 -0.23803,-0.994661 -0.30429,-0.94399 -0.7201,-1.61378 -1.41555,-2.280203 -1.01567,-0.973264 -2.20817,-1.597898 -3.66866,-1.921648 -0.76497,-0.169573 -1.06177,-0.203875 -1.76406,-0.203875 -0.70294,0 -0.99896,0.03427 -1.76723,0.204582 -2.60954,0.578489 -4.48027,2.104347 -5.21948,4.257279 -0.12041,0.350681 -0.20655,0.737258 -0.20655,0.926965 0,0.151623 -0.0473,0.144373 0.41991,0.06436 z m 13.26585,-0.616236 c -0.0789,-0.01646 -0.14352,-0.04587 -0.14352,-0.06534 0,-0.01947 0.024,-0.02617 0.0534,-0.01488 0.0294,0.01126 0.0788,0.02075 0.10976,0.02103 0.0627,5.99e-4 0.16459,0.05614 0.13979,0.07626 -0.009,0.0071 -0.0805,-6e-4 -0.15944,-0.01702 z m -0.18645,-0.455866 c -0.07,-0.0073 -0.11853,-0.02754 -0.10776,-0.04498 0.0271,-0.04384 0.11513,-0.03719 0.23511,0.01774 0.10397,0.04761 0.0921,0.05014 -0.12735,0.02722 z m -11.06783,-2.445034 c 7e-5,-0.03134 0.32436,-0.268466 0.55727,-0.40749 0.74435,-0.444284 1.91635,-0.861168 2.72947,-0.97087 0.4411,-0.05951 0.43295,-0.03517 -0.0278,0.08298 -0.78903,0.202353 -1.62641,0.527186 -2.71093,1.051617 -0.30145,0.145769 -0.54806,0.255461 -0.54803,0.243762 z m 9.00006,-0.30194 c -0.5023,-0.267625 -1.37753,-0.655582 -1.78987,-0.793384 -0.33969,-0.113519 -1.17277,-0.28491 -1.38488,-0.28491 -0.0627,0 -0.12433,-0.01678 -0.13701,-0.0373 -0.033,-0.0534 0.62258,-0.0066 1.05614,0.07533 0.85968,0.162547 2.02461,0.676674 2.5089,1.107274 0.0836,0.07432 0.14437,0.134177 0.13509,0.13302 -0.009,-0.0013 -0.18405,-0.09117 -0.38837,-0.20003 z m 1.20587,2.561218 c -0.12986,-0.218239 -0.6377,-0.761905 -0.78143,-0.836564 -0.0452,-0.02347 0.0622,0.09993 0.23853,0.274199 0.17636,0.174271 0.39322,0.419434 0.4819,0.544811 0.0887,0.125374 0.16686,0.227956 0.17372,0.227956 0.007,0 -0.0439,-0.09468 -0.11272,-0.210402 z m 3.80914,21.522907 c -0.1182,-0.02195 -0.1182,-0.02195 0.0469,-0.04621 0.2042,-0.02999 0.46749,-0.03057 0.64391,-0.0016 0.10746,0.01774 0.12068,0.02713 0.0675,0.04791 -0.079,0.03092 -0.59159,0.03073 -0.75839,-2.54e-4 z m -2.3302,-0.06646 c 0,-0.02077 0.004,-0.03777 0.008,-0.03777 0.005,0 0.11483,-0.02298 0.24484,-0.05104 0.4654,-0.100489 2.41371,-0.129984 2.50576,-0.03793 0.0592,0.05913 -0.11308,0.07376 -1.09862,0.09335 -0.5882,0.01169 -1.20242,0.03249 -1.36494,0.04621 -0.2102,0.01774 -0.2955,0.01405 -0.2955,-0.01281 z m -16.19327,-0.03251 c 0.0186,-0.01857 0.0946,-0.0444 0.16885,-0.05738 0.0901,-0.01572 0.12384,-0.01234 0.10132,0.01017 -0.0186,0.01857 -0.0946,0.0444 -0.16886,0.05738 -0.0901,0.01575 -0.12383,0.01234 -0.10131,-0.01017 z m 0.58255,-0.09516 c 0.0232,-0.0094 0.0612,-0.0094 0.0844,0 0.0232,0.0094 0.004,0.01702 -0.0422,0.01702 -0.0464,0 -0.0654,-0.0077 -0.0422,-0.01702 z m 0.44747,-0.04312 c 0.0839,-0.04914 0.30394,-0.08065 0.30394,-0.04353 0,0.04078 -0.11587,0.07452 -0.25328,0.07375 -0.0743,-3.1e-4 -0.0878,-0.0085 -0.0507,-0.03023 z m 0.47279,-0.04907 c 0,-0.07131 0.57528,-0.101575 1.06333,-0.05594 0.66774,0.06244 0.55096,0.102957 -0.29672,0.102957 -0.63251,0 -0.76661,-0.0082 -0.76661,-0.04702 z m -3.0394,-3.072483 c -0.21476,-0.0893 -0.43611,-0.223379 -0.50416,-0.305375 -0.0408,-0.0491 -0.0399,-0.06433 0.006,-0.110564 0.0458,-0.04586 0.0765,-0.04785 0.21201,-0.01374 0.33317,0.08389 0.75406,0.351098 0.71468,0.453717 -0.0304,0.07923 -0.20393,0.06951 -0.42889,-0.02403 z m 20.93811,0.0468 c 0,-0.132105 0.84587,-0.456997 0.97584,-0.374809 0.12559,0.07941 -0.12255,0.230291 -0.56474,0.343385 -0.28048,0.07173 -0.4111,0.08172 -0.4111,0.03143 z m -0.16885,-0.353575 c 0,-0.02595 0.9574,-0.76818 1.03858,-0.805167 0.10459,-0.04766 0.12989,-0.009 0.062,0.09466 -0.0755,0.11529 -0.39652,0.348722 -0.76563,0.556795 -0.29452,0.16602 -0.33491,0.184563 -0.33491,0.153712 z m -20.61554,-0.27587 c -0.27359,-0.138689 -0.5914,-0.360505 -0.61271,-0.427645 -0.0339,-0.106836 0.017,-0.110539 0.20025,-0.01458 0.1809,0.09472 0.62716,0.475171 0.59588,0.508022 -0.01,0.01008 -0.0921,-0.01953 -0.18342,-0.0658 z m -0.15372,-3.564861 c -0.21508,-0.08132 -0.27017,-0.118906 -0.27017,-0.184315 0,-0.06266 0.13481,-0.03067 0.34674,0.0823 0.31953,0.17032 0.2719,0.23377 -0.0766,0.102012 z m 21.17451,-0.210384 c 0,-0.0218 0.28018,-0.222437 0.31059,-0.222437 0.0708,0 0.0128,0.07306 -0.11937,0.150547 -0.14113,0.08271 -0.19122,0.10154 -0.19122,0.07189 z m -0.0773,-0.783771 c -0.0309,-0.03092 0.12854,-0.329577 0.24958,-0.467435 0.10603,-0.120763 0.23297,-0.159694 0.23297,-0.07145 0,0.02639 -0.10118,0.159372 -0.22484,0.295496 -0.12365,0.136125 -0.2275,0.2513 -0.23076,0.255945 -0.003,0.0047 -0.0154,-9.59e-4 -0.027,-0.01256 z m -20.66412,-0.387241 c -0.21554,-0.229587 -0.413,-0.530395 -0.49894,-0.760069 -0.0603,-0.161105 -0.0642,-0.200851 -0.0273,-0.278124 0.0245,-0.05118 0.0766,-0.09494 0.12073,-0.101209 0.14627,-0.02081 0.43556,0.370151 0.62588,0.845891 0.18604,0.465029 0.077,0.610266 -0.22041,0.293511 z m 20.20149,-0.411772 c 6e-4,-0.122728 0.17598,-0.545009 0.34375,-0.827034 0.13664,-0.229708 0.53029,-0.649393 0.60911,-0.649393 0.0316,0 0.0749,0.03259 0.0962,0.07242 0.0842,0.157251 -0.14894,0.557561 -0.67248,1.154875 -0.32586,0.371777 -0.37722,0.405756 -0.37662,0.249135 z m 0.21462,-2.582433 c 0.0378,-0.280426 0.30844,-0.57336 0.48674,-0.526733 0.1037,0.02713 0.094,0.102617 -0.0385,0.299229 -0.16767,0.248751 -0.30913,0.387917 -0.39431,0.387917 -0.0705,0 -0.0741,-0.01045 -0.0539,-0.160413 z m -19.95804,-0.781961 c -0.23019,-0.140366 -0.3652,-0.441471 -0.3444,-0.768099 0.0128,-0.200325 0.0254,-0.233389 0.12263,-0.320248 0.12455,-0.111292 0.22131,-0.121472 0.3497,-0.0368 0.21635,0.142689 0.36552,0.461807 0.36552,0.781989 0,0.165545 -0.0149,0.217435 -0.0874,0.303579 -0.104,0.1236 -0.24559,0.137402 -0.40602,0.03958 z m 19.43828,-0.03082 c -0.0621,-0.05027 -0.0765,-0.09765 -0.0797,-0.261727 -0.006,-0.303124 0.0673,-0.507694 0.24938,-0.696601 0.1886,-0.195673 0.29428,-0.210882 0.4416,-0.06356 0.1328,0.1328 0.13195,0.29802 -0.003,0.56287 -0.10874,0.213574 -0.19525,0.323273 -0.35047,0.44442 -0.1179,0.09201 -0.1594,0.09436 -0.25789,0.01461 z m -19.55782,-2.691649 c -0.12202,-0.06628 -0.23129,-0.303911 -0.23129,-0.502999 0,-0.423253 0.30149,-0.576122 0.52049,-0.263916 0.0807,0.115067 0.10397,0.188352 0.11506,0.362514 0.0136,0.212288 0.0106,0.221563 -0.10482,0.33702 -0.13084,0.130834 -0.16745,0.139076 -0.29944,0.06738 z m 19.59877,-0.195124 c -0.0401,-0.04268 -0.0824,-0.124995 -0.094,-0.18291 -0.0516,-0.257944 0.23454,-0.719438 0.44537,-0.718328 0.11504,5.99e-4 0.14961,0.02099 0.2267,0.133641 0.11693,0.170857 0.0436,0.483677 -0.1641,0.700488 -0.16304,0.170169 -0.29681,0.19185 -0.41401,0.06711 z m 0.79375,-3.63001 c -0.15929,-0.176014 -0.21618,-0.581841 -0.091,-0.64886 0.0891,-0.04766 0.18553,0.0041 0.2538,0.136088 0.0609,0.117729 0.0438,0.113649 0.20118,0.04787 0.11375,-0.04753 0.13313,-0.04745 0.20675,6e-4 0.0447,0.02927 0.0812,0.07514 0.0812,0.101928 0,0.08509 -0.21182,0.293793 -0.36469,0.359323 -0.18281,0.07836 -0.21869,0.07872 -0.28732,0.0028 z m -20.9695,-0.207403 c -0.27201,-0.03795 -0.43562,-0.216542 -0.3846,-0.419828 0.0198,-0.07892 0.0389,-0.08917 0.1662,-0.08917 0.0791,0 0.17759,0.02366 0.21886,0.05257 0.0742,0.05194 0.0751,0.05079 0.0751,-0.09608 0,-0.177918 0.0996,-0.299124 0.19616,-0.238834 0.20817,0.129904 0.15821,0.836266 -0.0578,0.818166 -0.0296,-0.0025 -0.12584,-0.01454 -0.21381,-0.02682 z m 20.25378,-3.144324 c -0.0372,-0.01432 -0.17919,-0.120695 -0.31565,-0.236344 l -0.2481,-0.210272 -0.12338,0.06833 c -0.22934,0.127021 -0.64341,0.283297 -0.72135,0.272246 -0.0753,-0.0107 -0.0773,-0.02019 -0.0713,-0.348697 0.004,-0.185741 0.014,-0.377395 0.0236,-0.425893 0.0166,-0.08427 0.006,-0.09152 -0.24109,-0.163291 -0.42395,-0.123184 -0.64254,-0.264847 -0.59596,-0.38623 0.0193,-0.05035 0.35194,-0.226979 0.69516,-0.369153 l 0.1242,-0.05145 -0.0798,-0.290227 c -0.0439,-0.159626 -0.0888,-0.318284 -0.0996,-0.35257 -0.0292,-0.09201 0.0628,-0.151539 0.1999,-0.129296 0.064,0.01039 0.24859,0.08087 0.41029,0.156645 0.16171,0.07578 0.29653,0.133839 0.29961,0.12903 0.0646,-0.100927 0.34138,-0.439515 0.42048,-0.514366 0.17544,-0.166004 0.23013,-0.0909 0.31902,0.438078 l 0.0397,0.236397 0.31991,0.02087 c 0.51611,0.03367 0.54224,0.07405 0.24392,0.376961 l -0.19419,0.197165 0.10131,0.07321 c 0.20046,0.144869 0.45591,0.406612 0.45591,0.467153 0,0.09438 -0.21324,0.186659 -0.61453,0.265942 l -0.1924,0.03801 0.0198,0.28082 c 0.029,0.409709 -0.0132,0.51951 -0.17536,0.456922 z m -0.11461,-0.709472 c -0.0379,-0.265632 -0.0349,-0.26886 0.33128,-0.352493 0.14879,-0.03398 0.26254,-0.0747 0.25279,-0.09048 -0.01,-0.01578 -0.10892,-0.09061 -0.22036,-0.166289 -0.11144,-0.07568 -0.21083,-0.159015 -0.22088,-0.185196 -0.0101,-0.02632 0.0437,-0.121605 0.12034,-0.213143 l 0.1386,-0.165545 -0.25106,-0.01268 c -0.13809,-0.007 -0.26281,-0.02441 -0.27715,-0.03876 -0.0144,-0.01436 -0.0322,-0.123302 -0.0399,-0.242127 l -0.0138,-0.216039 -0.18558,0.200451 c -0.10626,0.114766 -0.21417,0.200451 -0.25245,0.200451 -0.0368,0 -0.16509,-0.05493 -0.28516,-0.12208 -0.12007,-0.06715 -0.2252,-0.115197 -0.23361,-0.106781 -0.008,0.0084 -3e-5,0.09582 0.0186,0.194234 0.055,0.289909 0.046,0.350632 -0.0589,0.3962 -0.0511,0.0222 -0.16886,0.07314 -0.26172,0.113212 l -0.16886,0.07286 0.26545,0.07774 c 0.14599,0.04275 0.27976,0.09206 0.29725,0.109554 0.0199,0.01991 0.0185,0.162109 -0.004,0.37996 -0.0197,0.191478 -0.0296,0.35425 -0.0221,0.361721 0.007,0.0075 0.13728,-0.04862 0.28848,-0.124637 0.27384,-0.13768 0.27536,-0.138 0.39299,-0.08218 0.0649,0.03082 0.18217,0.105509 0.26049,0.165973 0.0783,0.06046 0.14642,0.09963 0.15133,0.08703 0.005,-0.01259 -0.005,-0.121027 -0.0222,-0.240958 z m -19.12637,-0.259722 c -0.0291,-0.06996 -0.0714,-0.176776 -0.0941,-0.237379 -0.028,-0.07483 -0.0697,-0.116552 -0.12984,-0.130028 -0.24837,-0.05563 -0.33284,-0.0837 -0.39358,-0.130807 -0.0642,-0.0498 -0.0598,-0.05771 0.12634,-0.228647 l 0.19283,-0.177068 -0.0204,-0.278612 c -0.0236,-0.322213 -0.0316,-0.316392 0.28207,-0.203912 l 0.20835,0.07472 0.17257,-0.161421 c 0.22849,-0.213717 0.27925,-0.201146 0.32255,0.07989 0.0186,0.120542 0.0453,0.236967 0.0595,0.258722 0.0141,0.02177 0.0977,0.06598 0.18574,0.09828 0.29579,0.10852 0.28911,0.124167 -0.18645,0.436841 -0.005,0.0032 0.0141,0.07086 0.0422,0.150386 0.058,0.164351 0.0658,0.291867 0.0195,0.320439 -0.0173,0.0107 -0.11965,-0.01953 -0.22741,-0.06719 -0.10775,-0.04766 -0.20023,-0.07451 -0.20549,-0.05968 -0.0348,0.09788 -0.17192,0.297604 -0.23098,0.336343 -0.0657,0.04311 -0.0743,0.03751 -0.12345,-0.08087 z m 0.35155,-0.501076 c 0.12718,-0.0062 0.14133,-0.0156 0.14487,-0.09647 0.002,-0.05572 0.0418,-0.119947 0.10406,-0.169744 l 0.10015,-0.08011 -0.0941,-0.02378 c -0.0943,-0.02384 -0.19301,-0.162636 -0.19301,-0.271356 0,-0.05206 -0.007,-0.05194 -0.0881,0.0016 -0.0571,0.03739 -0.13443,0.05332 -0.21951,0.04521 -0.1314,-0.01253 -0.1314,-0.01253 -0.1314,0.129436 0,0.111212 -0.0183,0.156357 -0.0844,0.20838 -0.11074,0.08711 -0.10658,0.128245 0.0155,0.152646 0.0674,0.01349 0.11815,0.05535 0.15615,0.128853 0.0532,0.102967 0.0588,0.105441 0.10261,0.04556 0.0306,-0.04179 0.0942,-0.06564 0.18724,-0.07015 z"
         id="path150" />
    </g>
  </g>
</svg>
