<?xml version="1.0" encoding="UTF-8" standalone="no"?>
<!-- Created with Inkscape (http://www.inkscape.org/) -->

<svg
   width="41.008999mm"
   height="41.008999mm"
   viewBox="0 0 41.008999 41.009"
   version="1.1"
   id="svg1"
   inkscape:version="1.4.2 (f4327f4, 2025-05-13)"
   sodipodi:docname="278.svg"
   xmlns:inkscape="http://www.inkscape.org/namespaces/inkscape"
   xmlns:sodipodi="http://sodipodi.sourceforge.net/DTD/sodipodi-0.dtd"
   xmlns="http://www.w3.org/2000/svg"
   xmlns:svg="http://www.w3.org/2000/svg">
  <sodipodi:namedview
     id="namedview1"
     pagecolor="#ffffff"
     bordercolor="#000000"
     borderopacity="0.25"
     inkscape:showpageshadow="2"
     inkscape:pageopacity="0.0"
     inkscape:pagecheckerboard="0"
     inkscape:deskcolor="#d1d1d1"
     inkscape:document-units="mm"
     inkscape:zoom="2.8970539"
     inkscape:cx="82.497603"
     inkscape:cy="88.365633"
     inkscape:window-width="1168"
     inkscape:window-height="1081"
     inkscape:window-x="3737"
     inkscape:window-y="0"
     inkscape:window-maximized="0"
     inkscape:current-layer="layer1" />
  <defs
     id="defs1" />
  <g
     inkscape:label="Layer 1"
     inkscape:groupmode="layer"
     id="layer1"
     transform="translate(-114.0891,-77.774176)">
    <g
       id="g159"
       transform="translate(-567.46316,153.64212)">
      <g
         id="g6">
        <circle
           style="fill:none;stroke:#ff0000;stroke-width:0.1;stroke-dasharray:none"
           id="path788-8-1-8-1-9-2-6-3-4-7-1-6-0-9"
           cx="702.05676"
           cy="-55.363449"
           r="19.954653" />
        <ellipse
           style="fill:none;stroke:#ff00ff;stroke-width:0.1;stroke-dasharray:none;stroke-opacity:1"
           id="path1138-9-4-0-0-1-2-0-0-6-8-8-1-2-0"
           cx="702.05676"
           cy="-55.363449"
           rx="18.492125"
           ry="18.492126" />
        <circle
           style="fill:none;stroke:#0000ff;stroke-width:0.1;stroke-linecap:round;stroke-dasharray:none;stroke-opacity:1;paint-order:markers stroke fill"
           id="path13019-1-33-3-83-70-3-7-5-4-3"
           cx="702.05676"
           cy="-70.374397"
           r="2" />
      </g>
      <path
         style="fill:#000000;stroke-width:0.131079"
         d="m 704.37936,-38.987666 c -0.35098,-0.05582 -0.52094,-0.201401 -0.56637,-0.485149 -0.0388,-0.242118 -0.05,-0.266294 -0.14468,-0.311342 -0.15477,-0.07365 -0.80346,-0.0829 -1.41409,-0.02015 -1.11183,0.114259 -2.19971,0.10676 -2.66439,-0.01836 -0.19369,-0.05215 -0.29195,-0.173694 -0.31965,-0.39532 -0.0323,-0.258512 0.007,-0.443975 0.13469,-0.631842 0.18467,-0.272201 0.66459,-0.491362 1.23172,-0.562472 0.32249,-0.04044 0.43516,-0.08586 0.48515,-0.195554 0.0203,-0.04465 0.0477,-0.260393 0.0607,-0.479428 0.0238,-0.398245 0.0238,-0.398245 -0.0787,-0.500772 -0.0737,-0.07372 -0.16038,-0.113839 -0.30841,-0.142786 -0.9342,-0.182669 -1.8531,-0.540745 -2.56252,-0.998557 -0.50453,-0.325588 -0.9106,-0.810305 -1.07664,-1.28514 -0.10951,-0.313189 -0.18109,-0.388793 -0.36811,-0.388793 -0.3359,0 -0.24425,0.08562 -2.68281,-2.506338 -1.58624,-1.686033 -1.78569,-1.874196 -2.10661,-1.987423 -0.31424,-0.110866 -0.47659,-0.369563 -0.47727,-0.760462 -2.6e-4,-0.182619 0.0198,-0.286084 0.081,-0.417594 0.086,-0.184771 0.2544,-0.352346 0.38012,-0.378335 0.0414,-0.0086 0.43431,-0.0228 0.87302,-0.03162 0.96072,-0.01934 1.09044,-0.04895 1.09194,-0.249294 9.1e-4,-0.141619 -0.47326,-0.740931 -1.06089,-1.340455 -0.46653,-0.475973 -0.5666,-0.635388 -0.56784,-0.904543 -0.002,-0.429952 0.32098,-0.74696 0.80083,-0.786104 l 0.23444,-0.01913 -0.18511,-0.324514 c -0.2222,-0.389536 -0.3747,-0.765177 -0.4771,-1.175185 -0.10144,-0.406204 -0.10934,-1.195136 -0.0154,-1.534921 0.2574,-0.930748 0.98311,-1.593331 2.06924,-1.88924 0.4236,-0.115406 0.62314,-0.215817 0.70268,-0.353613 0.0349,-0.06047 0.18768,-0.478606 0.33949,-0.929187 0.15182,-0.450579 0.3157,-0.897512 0.36418,-0.993181 0.24189,-0.477346 0.53932,-0.891236 1.14398,-1.591879 0.20576,-0.238433 0.47237,-0.551971 0.59246,-0.696752 0.20712,-0.249694 0.23,-0.266385 0.44484,-0.324539 0.14251,-0.03858 0.38202,-0.155015 0.64596,-0.314039 0.50783,-0.305962 0.78075,-0.400014 1.50618,-0.519041 0.30518,-0.05008 0.81241,-0.151667 1.12714,-0.225754 1.39239,-0.327767 1.95923,-0.386467 2.87163,-0.297361 0.69821,0.06819 0.9831,0.0505 1.69336,-0.105084 0.46922,-0.102786 0.94023,-0.123451 1.21812,-0.05344 0.10014,0.02521 0.18207,0.05669 0.18207,0.06991 0,0.01322 -0.36675,0.06969 -0.81501,0.12548 -0.44825,0.05579 -0.815,0.111989 -0.815,0.124882 0,0.03839 0.41498,0.191622 0.68162,0.251686 0.13646,0.03074 0.42517,0.06565 0.6416,0.07756 0.38009,0.02092 0.39882,0.01861 0.54957,-0.0686 0.18178,-0.105139 0.38843,-0.118256 0.58202,-0.03695 0.121,0.05082 0.12467,0.0567 0.0596,0.09537 -0.0411,0.02445 -0.21057,0.04129 -0.41618,0.04137 -0.28065,1.22e-4 -0.36499,0.01245 -0.44215,0.06466 -0.0688,0.04651 -0.19935,0.07277 -0.4682,0.09409 -0.20507,0.01626 -0.40797,0.03971 -0.45089,0.0521 -0.1643,0.04742 -0.0632,0.168646 0.31259,0.375061 0.3109,0.170738 0.74943,0.503874 0.93056,0.706903 0.19962,0.223758 0.80163,1.141665 1.10814,1.689632 0.43735,0.781868 0.69658,1.415626 0.93626,2.288968 0.0785,0.286123 0.22629,0.812351 0.32836,1.169402 0.43268,1.513459 0.63452,2.731145 0.8323,5.021218 0.0992,1.148579 0.0604,1.030865 0.41507,1.258921 0.25971,0.166981 0.37961,0.421462 0.37637,0.798776 -0.002,0.155812 -0.036,0.462768 -0.0771,0.682128 -0.0996,0.531678 -0.12665,1.130906 -0.0752,1.661126 0.0439,0.45176 0.0698,0.611882 0.24393,1.512217 0.1376,0.711195 0.1643,1.17701 0.0925,1.613096 -0.16737,1.01615 -0.55955,1.794646 -1.24978,2.480863 -0.47784,0.475053 -0.8001,0.683416 -1.76516,1.141294 -0.66673,0.316337 -0.93174,0.633523 -1.11827,1.338457 -0.0609,0.230362 -0.12632,0.384607 -0.21979,0.518624 -0.2606,0.373676 -0.29264,0.465494 -0.31466,0.901714 -0.0111,0.21936 -0.0393,0.432781 -0.0628,0.474272 -0.0832,0.147029 -0.77359,0.405932 -1.41747,0.531586 -0.4253,0.083 -1.263,0.119492 -1.58125,0.06887 z m 1.46216,-0.609933 c 0.26565,-0.06468 0.85647,-0.33839 1.06867,-0.495105 0.12418,-0.09171 0.1474,-0.12781 0.1474,-0.229221 0,-0.195508 -0.0636,-0.213959 -0.8497,-0.246696 -1.18608,-0.04939 -1.25283,-0.04625 -1.48944,0.06991 -0.11343,0.05569 -0.28899,0.181431 -0.39016,0.279414 -0.14807,0.14341 -0.18394,0.200203 -0.18394,0.291191 0,0.149688 0.0504,0.236597 0.18429,0.318285 0.0979,0.0597 0.17745,0.06739 0.69786,0.06751 0.42041,9.1e-5 0.65209,-0.01564 0.81502,-0.05529 z m -3.88512,-0.738765 c 0.72068,-0.112425 1.50007,-0.179457 1.94753,-0.167494 0.27798,0.0075 0.30536,0.0017 0.42484,-0.08919 0.13534,-0.102944 0.17348,-0.255219 0.0827,-0.330499 -0.0284,-0.02351 -0.27526,-0.03751 -0.66762,-0.03787 -0.41367,-3.5e-4 -0.9137,-0.03026 -1.4897,-0.08902 -1.10864,-0.113076 -1.53782,-0.117028 -1.90738,-0.01756 -0.36386,0.09793 -0.59804,0.200721 -0.66051,0.289915 -0.12106,0.172829 -0.0128,0.441595 0.20306,0.504045 0.0608,0.0176 0.4057,0.03341 0.76645,0.0351 0.56268,0.0028 0.74757,-0.01116 1.30056,-0.09743 z m 5.31906,-0.53626 c 0.16916,-0.0716 0.22602,-0.157914 0.28326,-0.430029 0.20504,-0.974718 0.66249,-1.475014 1.92654,-2.107012 0.61094,-0.305455 0.82218,-0.450644 1.18039,-0.811277 0.66151,-0.665987 1.05605,-1.511483 1.12638,-2.413829 0.0219,-0.28111 -0.0194,-0.855856 -0.0745,-1.035524 -0.0181,-0.05903 -0.0248,-0.05715 -0.0769,0.02144 -0.28199,0.425629 -0.822,0.803712 -1.49636,1.047641 -0.43016,0.155595 -1.93238,0.523031 -2.98349,0.729743 -0.54313,0.106816 -1.41671,0.279292 -1.94126,0.383282 -0.52456,0.103989 -1.00996,0.18903 -1.07867,0.188981 -0.18807,-1.29e-4 -0.34717,-0.124899 -0.42135,-0.330429 -0.15362,-0.425681 -0.18249,-0.440434 -0.87428,-0.446706 -0.43101,-0.0039 -0.53664,0.0052 -0.60829,0.05224 -0.17255,0.113367 -0.44406,0.235898 -0.78797,0.355606 -0.19294,0.06716 -0.41389,0.154291 -0.491,0.193631 -0.0771,0.03934 -0.18843,0.07153 -0.24736,0.07153 -0.18659,0 -0.29553,0.08384 -0.38028,0.292657 -0.0911,0.224418 -0.28458,0.414876 -0.47528,0.467832 -0.26707,0.07417 -1.07807,0.01804 -1.54663,-0.107004 -0.28334,-0.07563 -0.57899,-0.244989 -0.78468,-0.449522 l -0.11793,-0.11726 0.0254,0.136812 c 0.0912,0.491436 0.75059,1.122582 1.59621,1.527829 0.82895,0.397264 2.10321,0.721037 3.40027,0.86397 1.32564,0.146082 3.60049,0.153892 4.61154,0.01585 0.51914,-0.07089 0.51914,-0.07089 0.58041,0.0047 0.0692,0.08544 0.0374,0.18949 -0.0678,0.222048 -0.21419,0.06629 -0.63592,0.129306 -1.0602,0.158407 -0.2705,0.01857 -0.73748,0.05019 -1.03771,0.0703 -0.30025,0.02012 -0.56959,0.04565 -0.59856,0.05677 -0.0887,0.03404 -0.0996,0.180919 -0.0431,0.581972 0.0864,0.614121 0.1695,0.753379 0.48738,0.816202 0.0799,0.01581 0.53208,0.03043 1.00479,0.03253 0.65452,0.0028 0.88609,-0.0075 0.97108,-0.04343 z m -1.53802,-2.639201 c -0.78442,-0.111311 -1.40193,-0.513395 -1.67297,-1.089338 -0.12252,-0.26035 -0.10572,-0.395698 0.0515,-0.414002 0.0807,-0.0094 0.10537,0.01522 0.20745,0.207531 0.17427,0.328317 0.50759,0.66329 0.8053,0.809288 0.30021,0.147222 0.5168,0.190363 0.95568,0.190363 0.21442,0 0.35013,0.01501 0.37676,0.04162 0.0488,0.04884 0.0535,0.163271 0.01,0.232716 -0.0437,0.06909 -0.33836,0.07786 -0.73322,0.02183 z m -1.36116,2.208333 c 0.17482,-0.111159 0.13908,-0.705644 -0.0531,-0.883738 -0.14477,-0.134143 -0.28247,-0.161751 -0.99028,-0.198548 -0.83857,-0.0436 -1.05586,-0.06372 -1.35277,-0.125305 -0.27949,-0.05796 -0.34188,-0.04546 -0.39904,0.07999 -0.0659,0.144717 -0.0906,0.646045 -0.0379,0.773036 0.0752,0.181454 0.1272,0.19732 1.07525,0.327788 0.35707,0.04914 1.69079,0.06945 1.75791,0.02676 z m -4.78215,-3.646669 c 0.2928,-0.03393 0.38846,-0.09815 0.38846,-0.260855 0,-0.16773 -0.0495,-0.192308 -0.38722,-0.192308 -0.27623,0 -0.31856,0.0092 -0.46342,0.101099 -0.19886,0.126113 -0.46181,0.191277 -0.66144,0.163918 -0.15729,-0.02155 -0.40098,-0.128226 -0.50811,-0.222411 -0.0555,-0.04881 -0.0607,-0.047 -0.0607,0.02137 0,0.116777 0.11545,0.204397 0.37199,0.282317 0.38118,0.115781 0.88884,0.156863 1.32043,0.106857 z m 5.99177,-0.920045 c 3.36009,-0.643989 3.99165,-0.803999 4.92248,-1.247141 0.65203,-0.310414 0.72861,-0.411294 0.72604,-0.956438 -0.002,-0.331777 -0.13234,-2.570509 -0.17591,-3.011461 -0.0224,-0.226335 -0.10161,-0.31795 -0.275,-0.31795 -0.31278,0 -1.70075,0.255493 -2.56215,0.471625 -2.11183,0.529887 -2.92919,0.865321 -3.8169,1.566415 -0.6204,0.489981 -0.74021,0.670422 -0.69348,1.044419 0.0322,0.257627 0.0722,0.350993 0.15028,0.350993 0.13345,0 0.88669,-0.857147 1.15813,-1.31789 0.11835,-0.200881 0.17308,-0.262485 0.24033,-0.270533 0.10842,-0.01297 0.18203,0.07053 0.15547,0.176368 -0.0459,0.182823 -0.52268,0.833755 -0.89249,1.218421 -0.50348,0.523727 -0.64277,0.597006 -1.22859,0.646356 -0.98886,0.08331 -1.17511,0.13739 -1.30734,0.37963 -0.0874,0.16002 -0.0714,0.479249 0.0307,0.616061 0.0708,0.09491 0.0708,0.09491 0.95149,0.104256 0.97726,0.01035 1.18702,-0.01504 1.64823,-0.19972 0.38254,-0.153175 0.69645,-0.371511 1.11698,-0.776873 0.43285,-0.417241 0.67092,-0.579962 1.05196,-0.719027 0.32661,-0.119194 0.4289,-0.125179 0.48085,-0.02812 0.0632,0.118058 -0.0356,0.223131 -0.28897,0.307456 -0.40528,0.134868 -0.87599,0.468511 -1.57732,1.118002 -0.24533,0.227188 -0.70871,0.468357 -1.0906,0.567603 -0.28584,0.07428 -0.35592,0.140933 -0.32448,0.30854 0.0214,0.114385 0.12709,0.227812 0.21214,0.227812 0.0208,0 0.64555,-0.11646 1.38821,-0.258795 z m -6.74779,0.11953 c 0.69012,-0.04875 1.06493,-0.117991 1.40835,-0.260149 0.24406,-0.101022 0.33415,-0.120806 0.55018,-0.120806 0.27361,0 0.27619,-0.0014 0.41029,-0.207849 0.12092,-0.186243 0.18232,-0.175484 0.28175,0.04936 0.047,0.106245 0.098,0.193165 0.11336,0.193162 0.0153,-4e-6 0.0279,-0.327743 0.0279,-0.72831 0,-0.523168 -0.0111,-0.728306 -0.0397,-0.728303 -0.0496,3e-6 -0.0817,0.08085 -0.0817,0.205551 0,0.124773 -0.12043,0.239151 -0.19937,0.189353 -0.0311,-0.01962 -0.0713,-0.08141 -0.0893,-0.137267 -0.0588,-0.182574 -0.0851,-0.196073 -0.3335,-0.171234 -0.38997,0.03899 -0.47971,-0.02312 -0.85123,-0.58928 -0.40763,-0.621145 -0.64892,-0.851807 -1.01704,-0.972214 -0.16702,-0.05463 -0.18622,-0.05478 -0.26668,-0.0021 -0.1125,0.07371 -0.10941,0.133644 0.0134,0.259273 0.19718,0.201707 0.42381,0.817483 0.37396,1.016081 -0.037,0.147708 -0.18771,0.301023 -0.32019,0.325878 -0.0774,0.01451 -0.22606,-0.0052 -0.42275,-0.05607 -0.16686,-0.04315 -0.42041,-0.08487 -0.56348,-0.09271 -0.34581,-0.01896 -0.46781,0.04216 -0.59825,0.299688 -0.31865,0.629115 0.23095,1.17675 0.95925,0.955812 0.21579,-0.06546 0.27971,-0.06493 0.34749,0.0028 0.0664,0.06642 0.0714,0.23508 0.008,0.287266 -0.0265,0.02193 -0.22901,0.04214 -0.47687,0.0476 -0.42183,0.0093 -0.43117,0.01119 -0.44239,0.09037 -0.006,0.04449 0.0171,0.112748 0.052,0.151682 0.0577,0.06438 0.0901,0.06885 0.35827,0.04932 0.16213,-0.01182 0.52109,-0.03747 0.79767,-0.057 z m -1.74179,-0.08813 c 0.0424,-0.02969 0.0771,-0.08292 0.0771,-0.118295 0,-0.03537 -0.0722,-0.213611 -0.16041,-0.396094 -0.13783,-0.285094 -0.16051,-0.36241 -0.16114,-0.549324 -0.002,-0.42388 0.16097,-0.729283 0.47327,-0.889999 0.2328,-0.119803 0.47218,-0.126882 1.01611,-0.03005 l 0.45686,0.08134 -0.10777,-0.122926 c -0.0593,-0.06761 -0.53596,-0.595027 -1.0593,-1.172039 -0.89288,-0.984443 -1.03586,-1.116953 -1.09755,-1.01713 -0.0109,0.0176 -0.12494,0.06831 -0.25349,0.112713 -0.21629,0.07471 -0.2764,0.07969 -0.80597,0.06677 -0.87478,-0.02137 -1.19821,-0.01886 -1.59862,0.01245 -0.31192,0.02437 -0.3974,0.01928 -0.56569,-0.03365 -0.18411,-0.05791 -0.20661,-0.05836 -0.31548,-0.0065 -0.0645,0.03074 -0.13423,0.08767 -0.15501,0.126494 -0.0396,0.07399 -0.14105,-0.03642 3.04391,3.312753 0.2727,0.286756 0.55361,0.556407 0.62426,0.599227 0.15649,0.09485 0.46972,0.107729 0.58894,0.02424 z m 5.52113,-1.960697 c 0.70405,-0.04649 0.72923,-0.05814 0.72923,-0.337508 0,-0.110195 -0.0187,-0.219081 -0.0416,-0.241971 -0.0483,-0.04831 -0.18839,-0.05565 -0.21579,-0.01129 -0.0275,0.04441 -0.36563,0.199164 -0.4992,0.228444 -0.0692,0.01518 -0.15517,0.0086 -0.21596,-0.01661 -0.19471,-0.08065 -0.51873,-0.687487 -0.51873,-0.971495 0,-0.199838 0.0757,-0.322482 0.30399,-0.492471 l 0.19889,-0.148099 -1.4046,-0.02081 c -0.77252,-0.01144 -1.59186,-0.03949 -1.82076,-0.06232 -0.40499,-0.04039 -1.25347,-0.155428 -1.47881,-0.200497 l -0.1119,-0.02239 0.0819,0.118324 c 0.0451,0.06507 0.21876,0.254877 0.38601,0.421781 0.327,0.326305 0.37234,0.345396 0.59721,0.251439 0.18926,-0.07908 0.43207,-0.0659 0.63332,0.03438 0.24716,0.123167 0.66983,0.52654 0.92015,0.878148 0.45508,0.639228 0.5918,0.702087 1.07032,0.492062 0.30883,-0.135546 0.39313,-0.13293 0.55947,0.01735 0.0739,0.06677 0.16121,0.121384 0.19402,0.121384 0.0328,0 0.31758,-0.01703 0.63283,-0.03785 z m 9.1e-4,-0.772917 c 0,-0.0591 -0.06,-0.110621 -0.18377,-0.157659 -0.0948,-0.03604 -0.0948,-0.03604 -0.043,0.06422 0.0285,0.05514 0.0717,0.108246 0.0959,0.118001 0.0815,0.03281 0.13079,0.02354 0.13079,-0.02456 z m -4.22728,-0.151643 c -0.1229,-0.224135 -0.76684,-0.874661 -0.76684,-0.774669 0,0.03463 0.75363,0.835363 0.78621,0.835363 0.007,0 -9.1e-4,-0.02732 -0.0193,-0.06069 z m 5.10394,-0.325953 c 0.041,-0.02189 0.20768,-0.156382 0.37054,-0.29883 0.97986,-0.857038 2.35177,-1.463912 4.44152,-1.964736 0.53956,-0.12931 1.66866,-0.324843 2.42672,-0.420242 0.46096,-0.05802 0.47104,-0.05783 0.65243,0.01196 l 0.18424,0.07089 -0.0238,-0.283614 c -0.013,-0.155984 -0.044,-0.333078 -0.0686,-0.393533 -0.0774,-0.189997 -0.13414,-0.202382 -0.91772,-0.200511 -0.6337,0.0014 -0.75807,0.01171 -1.14448,0.09385 -1.04336,0.221767 -3.64764,1.044308 -4.17684,1.31922 -0.15136,0.07863 -0.45569,0.269652 -0.67629,0.424502 -0.38173,0.267952 -0.85931,0.585454 -1.29323,0.859747 -0.29086,0.183875 -0.29361,0.274349 -0.0203,0.673748 0.10848,0.158572 0.13162,0.168698 0.24585,0.107563 z m -5.97088,-0.610444 c -0.10075,-0.184246 -0.53007,-0.612652 -0.711,-0.709484 -0.0961,-0.05143 0.23745,0.331733 0.50193,0.576606 0.22123,0.204817 0.26287,0.231285 0.20907,0.132878 z m 5.26763,-0.509125 c 0.63826,-0.147851 1.1832,-0.402728 1.74628,-0.816765 0.66431,-0.488476 0.90616,-0.593623 2.5542,-1.110454 1.78006,-0.55823 2.34648,-0.692709 3.20802,-0.761612 0.39165,-0.03135 0.42105,-0.03892 0.49894,-0.128813 0.0792,-0.09142 0.0818,-0.110439 0.06,-0.441947 -0.11523,-1.758226 -0.45461,-3.887548 -0.83435,-5.234862 -0.23779,-0.84367 -0.20025,-0.825418 -0.95044,-0.462026 -1.24721,0.604145 -2.10394,0.922723 -4.16716,1.54956 -0.44825,0.136189 -0.88166,0.286402 -0.96313,0.333804 -0.34395,0.200122 -0.4884,0.432918 -0.59384,0.95709 -0.14101,0.70095 -0.36884,0.952774 -1.40965,1.55809 -1.37054,0.797069 -1.81867,0.982316 -2.37429,0.981473 -0.39459,-7e-4 -0.6039,-0.05752 -1.08778,-0.295822 -0.37725,-0.185782 -0.49636,-0.20412 -0.68873,-0.106039 -0.19165,0.09771 -0.98664,0.739313 -1.03023,0.831453 -0.0211,0.04451 -0.0764,0.455405 -0.123,0.913112 -0.094,0.923833 -0.0867,1.055686 0.0758,1.35419 0.18641,0.342518 0.51924,0.5571 1.08517,0.699645 0.80646,0.203128 1.58908,0.259715 3.43346,0.248256 1.09173,-0.0068 1.34231,-0.01777 1.56066,-0.06834 z m -4.4238,-0.969391 c -0.22995,-0.04502 -0.45155,-0.09247 -0.49243,-0.105448 -0.0939,-0.0298 -0.12832,-0.133905 -0.0764,-0.230931 0.0445,-0.08317 0.0937,-0.08132 0.51873,0.01955 0.359,0.0852 1.06484,0.103747 1.48641,0.03906 0.85076,-0.130537 1.94386,-0.626916 2.34679,-1.065686 0.19669,-0.214172 0.27467,-0.35358 0.37934,-0.678133 0.11799,-0.365922 0.29228,-0.631456 0.60311,-0.918888 0.35796,-0.331012 0.62708,-0.408481 0.98974,-0.284912 0.35164,0.119817 0.78772,0.661453 0.73303,0.910465 -0.0254,0.115385 -0.48283,0.604889 -0.85482,0.914654 -0.52354,0.435965 -0.9575,0.627129 -1.95536,0.861363 -0.40057,0.09403 -0.97021,0.240808 -1.26586,0.326186 -0.99692,0.287868 -1.70808,0.35058 -2.41228,0.212714 z m 4.65735,-1.111829 c 0.52536,-0.25177 1.15538,-0.76717 1.41224,-1.155309 0.11393,-0.172162 0.10321,-0.261806 -0.0525,-0.439148 -0.11275,-0.128421 -0.41698,-0.297977 -0.53365,-0.29742 -0.13366,6.99e-4 -0.41776,0.16179 -0.58582,0.332301 -0.21962,0.222805 -0.36696,0.492079 -0.55875,1.021046 -0.17736,0.489205 -0.16896,0.450648 -0.12402,0.56887 0.0461,0.121195 0.1397,0.114777 0.44251,-0.03032 z m -6.37173,1.715439 c -0.0566,-0.105892 -0.15932,-0.144031 -0.35695,-0.132629 l -0.18103,0.01046 0.2601,0.09264 c 0.31951,0.113786 0.32317,0.114178 0.27788,0.02956 z m -1.85588,-0.970672 0.10405,-0.02529 -0.12894,-0.05732 c -0.0709,-0.03152 -0.14555,-0.05733 -0.16585,-0.05733 -0.0827,0 -0.28093,0.105039 -0.26056,0.137999 0.0245,0.03958 0.29159,0.04072 0.4513,0.0021 z m 0.79494,-0.247433 c 0.16306,-0.04527 0.32019,-0.192994 0.35125,-0.330237 0.0655,-0.289495 0.0962,-0.357831 0.23743,-0.529485 0.17265,-0.209809 0.22077,-0.372875 0.15223,-0.515883 -0.0453,-0.09446 -0.0472,-0.09491 -0.42651,-0.09907 -0.58599,-0.0065 -0.98046,-0.160364 -1.68028,-0.655695 -0.17238,-0.122015 -0.31343,-0.208431 -0.31343,-0.192033 0,0.0164 0.095,0.30754 0.21111,0.646986 0.48446,1.416339 0.85958,1.844399 1.4682,1.675421 z m 0.69265,-0.155442 c 0.0316,-0.0823 0.0254,-0.222592 -0.01,-0.222592 -0.04,0 -0.0731,0.0874 -0.0731,0.193585 0,0.09454 0.051,0.112363 0.083,0.029 z m -1.87475,-0.06425 c 0.016,-0.04159 -0.12725,-0.308299 -0.35969,-0.66989 -0.0539,-0.08381 -0.19151,-0.105899 -0.21603,-0.0347 -0.0349,0.101366 0.13942,0.438057 0.33219,0.641604 0.11323,0.119568 0.21201,0.145105 0.24353,0.06297 z m -0.85796,-1.410072 c 0.10248,-0.09627 0.10377,-0.134825 0.008,-0.255891 -0.0634,-0.0806 -0.093,-0.09208 -0.19505,-0.07552 -0.21879,0.0355 -0.30897,0.195075 -0.21231,0.375687 0.0317,0.05925 0.0614,0.06807 0.17681,0.05259 0.0763,-0.01024 0.1762,-0.05382 0.22201,-0.09686 z m 2.79563,-0.238951 c 0.44502,-0.137452 0.77268,-0.468466 0.92599,-0.935463 0.15859,-0.483087 0.25445,-0.501432 0.73699,-0.141042 0.56619,0.422883 0.9336,0.582054 1.41648,0.613677 0.8781,0.05751 1.49102,-0.37397 1.6659,-1.172735 0.0289,-0.132353 0.0369,-0.373658 0.0247,-0.745648 -0.0152,-0.460431 -0.0332,-0.600798 -0.1109,-0.862108 -0.28017,-0.942952 -0.83456,-1.71638 -1.59705,-2.228029 -0.92376,-0.619874 -1.7161,-0.615114 -2.31093,0.01389 -0.17718,0.187348 -0.27909,0.364438 -0.40995,0.712331 -0.0624,0.165893 -0.14326,0.328589 -0.17968,0.361546 -0.0607,0.05492 -0.0755,0.05546 -0.1782,0.0065 -0.0616,-0.02938 -0.20563,-0.130817 -0.32005,-0.225432 -0.41584,-0.343847 -0.76738,-0.541731 -1.19092,-0.670373 -0.33693,-0.102341 -0.83959,-0.08735 -1.08816,0.03246 -0.26514,0.127781 -0.4632,0.327267 -0.59914,0.603445 -0.1803,0.366341 -0.2355,0.677691 -0.21631,1.220254 0.0182,0.517176 0.0955,0.863048 0.29689,1.330213 0.42246,0.979913 1.35169,1.873091 2.19076,2.105777 0.24812,0.06881 0.68748,0.05983 0.94358,-0.01928 z m -1.04762,-0.37277 c -0.15243,-0.02795 -0.58891,-0.245521 -0.80947,-0.403498 -0.1175,-0.08415 -0.31615,-0.260096 -0.44144,-0.390976 -0.56225,-0.587317 -0.85775,-1.254709 -0.91923,-2.076075 -0.0412,-0.549653 0.0951,-0.956743 0.42453,-1.268288 0.25753,-0.243568 0.5131,-0.353938 0.86123,-0.371945 0.33045,-0.0171 0.59655,0.05866 0.96155,0.273709 0.62924,0.370721 1.30861,1.277373 1.50475,2.008128 0.12262,0.456846 0.0637,1.155593 -0.12947,1.53413 -0.25749,0.504724 -0.87585,0.800529 -1.45245,0.694815 z m -0.59367,-0.694298 c -0.37093,-0.389359 -0.60037,-0.707438 -0.79429,-1.101131 -0.24758,-0.502658 -0.32202,-0.851377 -0.30533,-1.430603 0.007,-0.252741 0.009,-0.45953 0.005,-0.45953 -0.005,0 -0.0399,0.06066 -0.0777,0.134815 -0.40341,0.790746 0.21654,2.362901 1.17641,2.983294 0.12078,0.07806 0.22706,0.141936 0.23616,0.141936 0.009,0 -0.0987,-0.120949 -0.23948,-0.268781 z m 1.40868,0.167761 c 0.3315,-0.154888 0.31383,-0.170349 -0.1747,-0.152821 -0.32489,0.01165 -0.50006,0.0025 -0.63164,-0.03333 -0.10015,-0.02721 -0.18208,-0.04418 -0.18208,-0.0377 0,0.02823 0.28585,0.197373 0.40586,0.240183 0.18551,0.06617 0.42006,0.05961 0.58256,-0.0163 z m -0.16466,-0.447835 c 0.0311,-0.01976 0.0134,-0.04976 -0.0628,-0.106085 -0.23078,-0.170622 -0.29836,-0.412008 -0.17293,-0.617713 0.10614,-0.174092 0.21754,-0.230039 0.4194,-0.210644 0.19278,0.01854 0.32218,0.111255 0.40019,0.286791 0.0454,0.102139 0.0462,0.100428 0.0476,-0.09344 0.002,-0.277375 -0.0879,-0.379413 -0.35303,-0.401403 -0.23589,-0.01955 -0.41012,0.03432 -0.5728,0.177166 -0.15633,0.13725 -0.21729,0.283024 -0.21729,0.51952 0,0.292297 0.14184,0.45961 0.39884,0.470453 0.0381,0.0017 0.0889,-0.0095 0.11279,-0.02466 z m -0.82325,-0.257483 c 7e-4,-0.223333 0.0958,-0.582319 0.19337,-0.730164 0.12061,-0.182854 0.33574,-0.308886 0.72188,-0.422918 0.18115,-0.05349 0.33648,-0.11579 0.34516,-0.138428 0.0237,-0.0617 -0.0807,-0.255475 -0.14938,-0.27727 -0.12857,-0.04081 -1.28973,0.394446 -1.61443,0.605153 -0.18151,0.117802 -0.1976,0.244807 -0.0653,0.516088 0.0923,0.189329 0.45416,0.594932 0.53078,0.594932 0.0209,0 0.0377,-0.06529 0.038,-0.147393 z m -0.34751,-1.340217 c 0.27658,-0.130887 0.65363,-0.295167 0.83788,-0.365067 0.46454,-0.176237 0.4885,-0.264891 0.15887,-0.587776 -0.37841,-0.370662 -0.90022,-0.660366 -1.26786,-0.703909 -0.14211,-0.01682 -0.17951,-0.0074 -0.26942,0.06831 -0.12663,0.106543 -0.27739,0.404278 -0.33078,0.653198 -0.0494,0.230588 -0.0233,0.953655 0.0389,1.071391 0.0999,0.189423 0.16801,0.178282 0.83244,-0.136148 z m 4.15526,2.065267 c -0.31973,-0.11564 -0.68725,-0.36745 -1.01851,-0.697848 -0.61402,-0.612427 -0.95564,-1.342056 -1.01006,-2.157356 -0.0597,-0.893983 0.37808,-1.568542 1.11378,-1.716292 0.69849,-0.140279 1.76883,0.523419 2.31454,1.435217 0.18039,0.301404 0.31458,0.633886 0.41126,1.018986 0.17476,0.696109 -0.0145,1.523617 -0.42869,1.87391 -0.36017,0.304632 -0.93374,0.40562 -1.38232,0.243383 z m 0.9862,-0.475406 c 0.0715,-0.01987 0.16989,-0.07049 0.21867,-0.11252 0.0887,-0.07642 0.0887,-0.07642 -0.33809,-0.0774 -0.3972,-10e-4 -0.44363,-0.0082 -0.67019,-0.105978 -0.20802,-0.08974 -0.40198,-0.209056 -0.75634,-0.465287 -0.072,-0.05203 -0.072,-0.05203 -0.005,0.06336 0.0948,0.161598 0.42422,0.46856 0.59812,0.557278 0.30882,0.157548 0.68887,0.213648 0.95211,0.140541 z m -1.88591,-0.643026 c -0.34937,-0.575075 -0.52183,-1.225962 -0.61481,-2.32042 l -0.0265,-0.312133 -0.0667,0.208087 c -0.0964,0.30046 -0.0906,0.877159 0.0124,1.241194 0.13739,0.485655 0.35789,0.898184 0.66896,1.251587 0.0776,0.08819 0.14665,0.160342 0.15338,0.160342 0.006,0 -0.0503,-0.102895 -0.12668,-0.228657 z m 2.03493,0.108851 c 0.0468,-0.04682 0.0851,-0.117673 0.0851,-0.15745 0,-0.111712 -0.12757,-0.33585 -0.27515,-0.483426 -0.15708,-0.157082 -0.59268,-0.381878 -0.78583,-0.40553 -0.24162,-0.02959 -0.49926,0.210074 -0.49955,0.464692 -1.3e-4,0.136536 0.21758,0.392186 0.4235,0.497239 0.18627,0.09502 0.49292,0.163329 0.74844,0.166711 0.18772,0.0025 0.23027,-0.009 0.30346,-0.08224 z m -0.86928,-0.137054 c -0.20237,-0.102517 -0.29412,-0.236052 -0.29412,-0.42807 0,-0.167901 0.0806,-0.250277 0.26993,-0.275665 0.17466,-0.02343 0.34759,0.05664 0.50958,0.235954 0.32439,0.359055 -0.0285,0.699205 -0.48539,0.467781 z m 1.25753,-0.63984 c -0.0583,-0.517767 -0.15148,-0.685183 -0.42724,-0.767262 -0.0794,-0.02365 -0.512,-0.04861 -1.03916,-0.06002 -0.82136,-0.01777 -0.90855,-0.01417 -0.96241,0.03968 -0.0838,0.08372 -0.0736,0.21984 0.0319,0.431758 0.10758,0.215876 0.24312,0.303265 0.30428,0.196169 0.14749,-0.258255 0.48496,-0.395043 0.82629,-0.33492 0.41467,0.07304 0.87091,0.356047 1.12701,0.699079 0.15763,0.211147 0.18201,0.175368 0.13926,-0.204485 z m -0.41505,-1.150588 c 0.017,-0.08978 -0.19869,-0.383162 -0.51138,-0.695606 -0.54369,-0.543266 -1.17259,-0.746533 -1.54824,-0.500401 -0.0491,0.03218 -0.13001,0.146904 -0.17982,0.254968 -0.0736,0.159786 -0.0909,0.249701 -0.0921,0.481454 -0.002,0.250953 0.008,0.294374 0.077,0.363704 0.0765,0.0766 0.10348,0.07936 0.99981,0.102135 0.5067,0.01287 0.93118,0.0333 0.94329,0.04543 0.045,0.04497 0.30121,0.0025 0.31146,-0.05168 z m -7.0951,3.027037 c 0.0287,-0.03337 0.0653,-0.0841 0.0814,-0.112713 0.0314,-0.05583 0.0364,-0.0587 -0.1708,0.09783 -0.0858,0.06475 -0.0902,0.07557 -0.0314,0.07557 0.0378,0 0.0921,-0.02732 0.12079,-0.06069 z m 8.9777,-1.032985 c 0.32062,-0.235968 0.48695,-0.680394 0.48639,-1.299555 -9.1e-4,-1.264997 -0.71883,-2.544874 -1.73684,-3.097398 -0.36742,-0.199416 -0.68004,-0.277574 -1.03423,-0.258574 -0.28558,0.01532 -0.49175,0.0725 -0.49175,0.136393 0,0.04642 0.18255,0.03134 0.27745,-0.02291 0.10126,-0.05788 0.28927,-0.0667 0.38055,-0.01784 0.0351,0.01878 0.10621,0.145014 0.15798,0.280488 0.0545,0.142857 0.14244,0.294636 0.20917,0.361367 0.10738,0.107375 0.43501,0.260365 0.55758,0.260365 0.103,0 0.2806,0.107725 0.31994,0.194051 0.0217,0.04766 0.0395,0.173857 0.0395,0.280427 0,0.407164 0.14503,0.637137 0.52135,0.826644 0.24045,0.121089 0.34567,0.224145 0.34567,0.338537 0,0.03494 -0.0559,0.168048 -0.12431,0.295746 -0.1618,0.302184 -0.14975,0.447272 0.0707,0.851718 0.21381,0.392235 0.21406,0.511139 0.002,0.750374 -0.0858,0.09665 -0.15606,0.183004 -0.15606,0.191906 0,0.03678 0.0628,0.01108 0.17534,-0.07174 z m 0.7572,-0.172018 c 0.23528,-0.25524 0.46718,-0.870386 0.38561,-1.02282 -0.0438,-0.08174 -0.14281,-0.13918 -0.24008,-0.13918 -0.0789,0 -0.0914,0.03759 -0.12393,0.372024 -0.0274,0.281524 -0.10126,0.526778 -0.24594,0.816345 l -0.11723,0.234636 0.0965,-0.04989 c 0.0531,-0.02746 0.16336,-0.122444 0.24509,-0.211112 z m -1.26189,-1.170669 c -0.0292,-0.223823 -0.19219,-0.725004 -0.31571,-0.97063 -0.26922,-0.535371 -0.76161,-1.135903 -1.20413,-1.468546 -0.21275,-0.159923 -0.7076,-0.417199 -0.74005,-0.38475 -0.01,0.01007 0.0338,0.04511 0.0976,0.07789 0.0638,0.03278 0.20467,0.119658 0.31311,0.193074 0.81947,0.554756 1.4441,1.414334 1.74827,2.405864 0.0554,0.18063 0.10612,0.32859 0.11268,0.3288 0.006,2.61e-4 9.2e-4,-0.08155 -0.0119,-0.181697 z m 1.86814,-0.534153 c -0.007,-0.412006 -0.19912,-0.653151 -0.37734,-0.474941 -0.0423,0.04234 -0.0515,0.09002 -0.035,0.182077 0.0707,0.395202 0.17339,0.569115 0.32557,0.55148 0.0897,-0.01039 0.0913,-0.01514 0.0868,-0.258616 z m 1.13444,-0.442566 c 1.67448,-0.460088 3.62284,-1.173232 4.75354,-1.739905 0.31078,-0.15575 0.4262,-0.262069 0.46213,-0.425668 0.0171,-0.07773 -0.10243,-0.768248 -0.17643,-1.019469 -0.0283,-0.09607 -0.0952,-0.07348 -0.3732,0.12597 -0.51124,0.366795 -1.11692,0.610521 -2.20642,0.887871 -0.31474,0.08012 -0.86097,0.227777 -1.21385,0.328125 -0.35289,0.100345 -1.00696,0.273086 -1.4535,0.383868 -0.53271,0.132157 -0.83384,0.223362 -0.87571,0.265227 -0.0826,0.08266 -0.0816,0.271617 0.004,0.65339 0.0812,0.364379 0.12508,0.481038 0.21864,0.580914 0.10603,0.113184 0.34314,0.102083 0.86143,-0.04032 z m -1.44082,-0.488568 c 0.0366,-0.05794 0.0281,-0.131111 -0.0517,-0.444621 -0.10544,-0.414233 -0.15668,-0.495224 -0.29181,-0.46131 -0.13959,0.03503 -0.15029,0.198136 -0.0382,0.582448 0.0519,0.177915 0.11058,0.343781 0.13044,0.368587 0.0511,0.0638 0.19944,0.03718 0.25136,-0.0451 z m -6.35738,-0.693626 c 0.052,-0.09537 0.0949,-0.185858 0.0954,-0.201074 0.004,-0.114723 -0.39972,-0.312083 -0.77237,-0.378166 -0.21305,-0.03778 -0.78748,-0.0074 -0.78748,0.0417 0,0.01567 0.0705,0.06262 0.15678,0.104364 0.12328,0.05968 0.19181,0.07125 0.3208,0.05419 0.50246,-0.06649 0.48345,-0.06743 0.54539,0.02711 0.0317,0.04837 0.0689,0.171133 0.0827,0.272813 0.0319,0.235395 0.0587,0.27627 0.17213,0.263139 0.0701,-0.0081 0.11475,-0.05219 0.18667,-0.184064 z m 5.5732,-0.345322 c 0.003,-0.166593 -0.004,-0.178409 -0.21412,-0.381714 -0.25179,-0.243698 -0.7708,-0.606223 -1.05779,-0.738863 -0.17056,-0.07883 -0.24707,-0.09234 -0.52889,-0.09346 -0.46722,-0.0017 -0.53781,0.03906 -0.21197,0.122854 0.63586,0.163511 1.15401,0.529615 1.67761,1.185316 l 0.24819,0.310807 0.0421,-0.116514 c 0.0232,-0.06408 0.0433,-0.193876 0.0448,-0.288428 z m -7.38449,0.05053 c -0.0286,-0.0185 -0.0988,-0.03362 -0.15607,-0.03362 -0.0572,0 -0.12745,0.01514 -0.15606,0.03362 -0.0368,0.02375 0.009,0.03362 0.15606,0.03362 0.147,0 0.19281,-0.0099 0.15607,-0.03362 z m 9.43353,-0.304547 c 0.3338,-0.09731 1.29646,-0.364935 2.13925,-0.594727 0.84279,-0.22979 1.61531,-0.450493 1.71673,-0.490449 0.32645,-0.128621 0.79015,-0.383934 0.86109,-0.474129 0.10441,-0.132723 0.0881,-0.342202 -0.0568,-0.73009 -0.40421,-1.081926 -1.05633,-1.996983 -1.84908,-2.594629 -0.33279,-0.250886 -0.99375,-0.592753 -1.39386,-0.720947 -0.1456,-0.04665 -0.41092,-0.116252 -0.58959,-0.154668 -0.36418,-0.07831 -1.5042,-0.21473 -1.75614,-0.210151 -0.15304,0.0028 -0.15706,0.0051 -0.06,0.03428 0.0572,0.0172 0.40837,0.07866 0.78033,0.136557 0.77362,0.120419 1.1969,0.224778 1.54221,0.380234 0.1831,0.08242 0.22933,0.116602 0.19075,0.141 -0.0798,0.0505 -0.19736,0.03971 -0.58167,-0.0534 -0.44435,-0.107654 -0.73511,-0.144777 -0.73511,-0.09385 0,0.02042 0.0313,0.04705 0.0695,0.05919 0.0875,0.02777 0.27727,0.185606 0.27727,0.230577 0,0.04066 -0.0848,0.02969 -1.12875,-0.145648 -0.83188,-0.13974 -1.56688,-0.202445 -1.71264,-0.146113 -0.0677,0.02616 -0.0285,0.03684 0.19908,0.0544 0.27289,0.02105 0.63078,0.135168 0.63078,0.201144 0,0.0164 -0.41747,0.02728 -0.92772,0.02417 -1.05251,-0.0064 -1.23997,0.0234 -1.71344,0.272188 -0.18787,0.09873 -0.25789,0.120218 -0.30171,0.09263 -0.0929,-0.0585 -0.0847,-0.135651 0.0277,-0.26381 0.0583,-0.06637 0.10594,-0.135428 0.10594,-0.153477 0,-0.01805 -0.15211,0.01812 -0.33804,0.08039 -0.25907,0.08675 -0.36327,0.14073 -0.44604,0.231057 -0.0594,0.06482 -0.11447,0.137222 -0.12236,0.160891 -0.008,0.02368 -0.11752,0.06467 -0.24361,0.0911 -0.71669,0.150234 -1.17131,0.505525 -1.84007,1.438043 -0.17098,0.238433 -0.39511,0.605188 -0.49806,0.815009 -0.17696,0.36071 -0.53485,1.365198 -0.53485,1.501199 0,0.123878 0.0709,0.146152 0.46646,0.146579 0.44134,3.49e-4 0.64909,0.0468 1.01038,0.225313 l 0.25436,0.125686 0.14883,-0.08689 c 0.10173,-0.05939 0.2782,-0.10849 0.55766,-0.155158 0.36034,-0.06017 0.43439,-0.08489 0.62426,-0.208433 0.47535,-0.309278 0.81409,-0.404387 1.34762,-0.378373 0.64237,0.03131 1.17887,0.29325 1.79482,0.876284 0.49417,0.467756 0.65389,0.540755 1.14805,0.524689 0.27397,-0.0088 0.43171,-0.04051 0.93639,-0.187639 z m -7.07752,-0.02959 c 0.0842,-0.107086 0.0918,-0.195712 0.0217,-0.253881 -0.14991,-0.124416 -0.86961,-0.180433 -1.14636,-0.08922 -0.0763,0.02515 -0.11112,0.04735 -0.0774,0.04936 0.10423,0.0062 0.52417,0.163466 0.73955,0.276997 0.25405,0.133916 0.36708,0.138009 0.46246,0.01676 z m 8.72488,-5.892405 c -0.0572,-0.0262 -0.15086,-0.04671 -0.20809,-0.04557 -0.0994,0.0021 -0.0978,0.0041 0.0347,0.04779 0.19175,0.06319 0.31289,0.06164 0.17341,-0.0021 z"
         id="path149"
         sodipodi:nodetypes="ssssssssssssssssssssssssscssssssssssssssssssssssssssssssssssscssssssssscssssssssssssssssssssssscssssssssssssssssssssssscssssssssssssssssssssssssssssssssssssssssssssscsssssssssssssssssssssssssssssssssssssssssssssssssssssssssscsscssssssssssssssssssssscssscsssssssssssssssssssssssssscssssssssssssssssssscsssssssssssssssssssssssssssssssssssssssssscsssccsssscsssssssssssssssssssscssssccssssssssssssssssssssssssssssssscssscssccssssssssssssssssssssssssssssssssssssssssssssssssssscssssscssssssssssssssssssssssssssssssssssccsssssssssccssssssssssssssssccssssscsssssssssssssscssscsssssssscsccsssssssscsssssssssscsssscsssssssssssssssssssssssssssssssssssscsssssscssssssssssssssssssss" />
    </g>
  </g>
</svg>
