<?xml version="1.0" encoding="UTF-8" standalone="no"?>
<!-- Created with Inkscape (http://www.inkscape.org/) -->

<svg
   width="41.008999mm"
   height="41.008999mm"
   viewBox="0 0 41.008999 41.009"
   version="1.1"
   id="svg1"
   inkscape:version="1.4.2 (f4327f4, 2025-05-13)"
   sodipodi:docname="279.svg"
   xmlns:inkscape="http://www.inkscape.org/namespaces/inkscape"
   xmlns:sodipodi="http://sodipodi.sourceforge.net/DTD/sodipodi-0.dtd"
   xmlns="http://www.w3.org/2000/svg"
   xmlns:svg="http://www.w3.org/2000/svg">
  <sodipodi:namedview
     id="namedview1"
     pagecolor="#ffffff"
     bordercolor="#000000"
     borderopacity="0.25"
     inkscape:showpageshadow="2"
     inkscape:pageopacity="0.0"
     inkscape:pagecheckerboard="0"
     inkscape:deskcolor="#d1d1d1"
     inkscape:document-units="mm"
     inkscape:zoom="2.8970539"
     inkscape:cx="82.497603"
     inkscape:cy="88.365633"
     inkscape:window-width="1168"
     inkscape:window-height="1081"
     inkscape:window-x="3737"
     inkscape:window-y="0"
     inkscape:window-maximized="0"
     inkscape:current-layer="layer1" />
  <defs
     id="defs1" />
  <g
     inkscape:label="Layer 1"
     inkscape:groupmode="layer"
     id="layer1"
     transform="translate(-114.0891,-77.774176)">
    <g
       id="g166"
       transform="translate(-627.98257,92.425979)">
      <circle
         style="fill:none;stroke:#ff0000;stroke-width:0.1;stroke-dasharray:none"
         id="path788-8-1-8-1-9-2-9-3-7-1-2-04-7-2-4"
         cx="762.57617"
         cy="5.8526964"
         r="19.954653" />
      <ellipse
         style="fill:none;stroke:#ff00ff;stroke-width:0.1;stroke-dasharray:none;stroke-opacity:1"
         id="path1138-9-4-0-0-1-2-25-0-9-29-6-3-1-6-8"
         cx="762.57617"
         cy="5.8526964"
         rx="18.492125"
         ry="18.492126" />
      <circle
         style="fill:none;stroke:#0000ff;stroke-width:0.1;stroke-linecap:round;stroke-dasharray:none;stroke-opacity:1;paint-order:markers stroke fill"
         id="path13019-1-33-5-7-7-4-6-7-8-5-3"
         cx="762.57611"
         cy="-9.158289"
         r="2" />
      <path
         style="fill:#000000;stroke-width:0.177902"
         d="m 763.97856,21.721889 c -0.6442,-0.232684 -0.69167,-0.308566 -0.53112,-0.849171 0.0668,-0.224846 0.0668,-0.256132 3.5e-4,-0.329385 -0.0403,-0.04452 -0.10168,-0.163071 -0.13643,-0.263448 -0.1317,-0.380407 -0.21879,-0.181772 -0.21978,0.501255 -7.1e-4,0.445051 -0.0601,0.529385 -0.44205,0.626884 -0.80385,0.205203 -2.46369,0.19007 -2.59579,-0.02368 -0.0516,-0.08354 0.16118,-0.359324 0.43729,-0.566698 0.14854,-0.111561 0.28749,-0.217132 0.30877,-0.2346 0.0434,-0.03565 -0.51171,-1.173499 -0.57251,-1.173499 -0.0214,0 -0.11457,-0.0757 -0.2071,-0.168234 l -0.16824,-0.168233 -0.0737,0.253609 c -0.22049,0.758466 -0.85234,1.111184 -2.26009,1.261655 -0.50499,0.05398 -0.51591,0.05772 -0.70605,0.241694 -0.23771,0.230012 -0.42165,0.310397 -0.84966,0.371337 -0.23575,0.03357 -0.39663,0.03181 -0.55522,-0.0061 -0.59028,-0.141103 -0.60032,-0.722002 -0.0194,-1.121698 0.22131,-0.152263 0.62642,-0.287455 0.86138,-0.287455 0.0849,0 0.26209,-0.04243 0.39365,-0.09428 0.13156,-0.05185 0.57592,-0.156358 0.98748,-0.232233 0.80401,-0.148225 0.86006,-0.167209 1.02991,-0.348809 0.19343,-0.206818 0.246,-0.565895 0.24516,-1.674423 l -7.2e-4,-1.00826 -0.29282,-0.37776 c -0.29917,-0.38596 -0.50704,-0.803892 -0.50904,-1.023442 -0.002,-0.226085 0.28558,-0.70377 0.54485,-0.904863 l 0.24002,-0.186154 -0.0922,-0.240332 c -0.14498,-0.3779 -0.15724,-0.907848 -0.0339,-1.464148 0.0574,-0.258884 0.12225,-0.750852 0.14408,-1.09326 0.0265,-0.415595 0.0652,-0.671799 0.1163,-0.770677 0.0766,-0.148125 0.0766,-0.148125 -0.67287,-0.8892435 -2.43308,-2.405908 -3.39376,-4.315236 -3.05543,-6.07241 l 0.0589,-0.305954 0.0347,0.423628 c 0.0191,0.232996 0.0619,0.540127 0.0951,0.682512 0.0605,0.258885 0.0605,0.258885 0.087,-0.400093 0.0424,-1.055661 0.28167,-1.638049 0.94767,-2.306421 0.36291,-0.364193 0.53939,-0.427559 0.29886,-0.107301 -0.36424,0.48495 -0.60024,1.230399 -0.59146,1.868181 0.009,0.654015 0.057,0.76191 0.12267,0.275969 0.12103,-0.895164 0.66749,-1.735221 1.84283,-2.83296402 0.53886,-0.503284 2.42057,-1.86488498 2.48634,-1.79911398 0.0126,0.01263 -0.11481,0.184415 -0.28318,0.38175098 -0.81728,0.957845 -1.37458,2.08855602 -1.56358,3.17235402 -0.0845,0.484635 -0.0858,0.744468 -0.002,0.398988 0.0785,-0.323487 0.27162,-0.709547 0.52033,-1.039975 0.23547,-0.31285 1.0051,-1.07021302 1.88401,-1.85399402 1.10138,-0.98217598 1.80945,-1.77516898 2.27868,-2.55200498 0.44129,-0.730586 0.73366,-1.481996 0.85076,-2.186529 0.0514,-0.309538 0.0638,-0.335365 0.12363,-0.258884 0.0581,0.07423 0.0634,0.02555 0.0417,-0.385742 -0.0136,-0.258884 -0.0375,-0.581901 -0.0531,-0.717815 -0.0464,-0.40554 0.0587,-0.292999 0.21975,0.235349 0.0809,0.265356 0.21841,0.715461 0.30557,1.000234 0.5969,1.950016 0.93988,3.888805 0.96922,5.47870298 l 0.006,0.310886 0.0674,-0.376559 c 0.20472,-1.143111 -0.0191,-3.10901598 -0.43506,-3.82148398 -0.33844,-0.579667 0.364,0.0918 0.87211,0.833651 0.30461,0.444753 0.77373,1.377872 0.9353,1.86038898 0.19382,0.578876 0.25642,1.033083 0.2327,1.68845102 -0.0192,0.530943 -0.0427,0.676068 -0.17061,1.053813 -0.0816,0.24094 -0.14833,0.448902 -0.14833,0.462136 0,0.01323 0.0583,-0.01698 0.12944,-0.06714 0.40378,-0.284485 0.94632,-0.472941 1.93002,-0.670407 1.33278,-0.267539 1.7936,-0.468851 2.28511,-0.99825502 0.28967,-0.312006 0.29933,-0.279142 0.058,0.19720502 -0.1453,0.286716 -0.0893,0.309439 0.1179,0.04784 0.083,-0.10474802 0.16106,-0.18022602 0.17356,-0.16773002 0.064,0.06405 -0.55016,1.68328502 -0.90997,2.39894902 -0.3712,0.738331 -0.71585,1.238963 -1.21287,1.76181 l -0.42947,0.451776 0.32949,-0.181056 c 0.60942,-0.334873 1.17365,-0.751565 1.65932,-1.225434 0.26541,-0.258961 0.48252,-0.452715 0.48246,-0.430564 -1.7e-4,0.07586 -0.14575,0.618597 -0.26693,0.995262 -0.25288,0.786115 -0.58521,1.412774 -0.98864,1.864238 l -0.18016,0.201619 0.36956,-0.198062 c 0.47323,-0.253624 0.82964,-0.534909 1.18619,-0.936163 0.39147,-0.440563 0.55219,-0.649702 0.75212,-0.978704 l 0.17163,-0.282418 -0.033,0.258884 c -0.0182,0.142386 -0.0861,0.428336 -0.15099,0.635444 -0.53523,1.708056 -2.03078,3.124233 -3.83481,3.631292 l -0.44948,0.126335 0.39298,0.197228 c 0.47028,0.236023 0.84203,0.542468 1.06796,0.8803515 0.0913,0.136585 0.15948,0.255107 0.15145,0.263386 -0.0251,0.0259 -0.36641,-0.164604 -0.61208,-0.341676 -0.22855,-0.1647265 -0.75828,-0.3623515 -1.11859,-0.4173045 l -0.17718,-0.02701 0.25335,0.231552 c 0.34249,0.3130165 0.47449,0.6132605 0.47514,1.0807025 3.6e-4,0.263204 -0.0255,0.40991 -0.1018,0.576607 -0.0563,0.122968 -0.11936,0.223384 -0.14023,0.223144 -0.0209,-2.51e-4 -0.0421,-0.143217 -0.0471,-0.317724 -0.0178,-0.617723 -0.20097,-0.929546 -0.61324,-1.044034 -0.23623,-0.0656 -0.35523,-0.06191 -0.7191,0.02228 -0.45345,0.104941 -0.45187,0.103855 -0.31148,0.214284 0.0678,0.0533 0.1232,0.136288 0.1232,0.184416 0,0.04813 -0.0962,0.284886 -0.21371,0.526122 -0.11755,0.241235 -0.2471,0.555107 -0.28791,0.697496 -0.0408,0.142386 -0.10267,0.29141 -0.13747,0.331162 -0.10268,0.117279 -0.22304,1.435649 -0.19007,2.081857 0.0481,0.943448 0.12641,1.439672 0.33588,2.129216 0.20088,0.661284 0.33616,1.242516 0.56419,2.424096 0.13419,0.695308 0.28521,1.090237 0.4508,1.178858 0.0761,0.04076 0.24263,0.04792 0.5775,0.02486 0.40055,-0.02758 0.49049,-0.04922 0.60489,-0.145488 0.32066,-0.26981 0.8774,-0.189325 1.39001,0.20095 0.33634,0.256071 0.44917,0.676478 0.2332,0.868855 -0.13466,0.11994 -0.68201,0.266886 -0.99735,0.267753 -0.12945,3.55e-4 -0.31349,-0.02726 -0.40899,-0.06135 -0.0955,-0.03411 -0.19081,-0.04638 -0.21181,-0.0273 -0.021,0.0191 -0.16527,0.08237 -0.3206,0.140605 -0.37171,0.139358 -0.88956,0.150604 -1.24689,0.02708 -0.53729,-0.185748 -1.0267,-0.866457 -1.24562,-1.732504 -0.0579,-0.229083 -0.11992,-0.416609 -0.1378,-0.416717 -0.0179,-1.11e-4 -0.10323,0.05897 -0.18968,0.131283 l -0.15718,0.131484 0.0628,0.353023 c 0.0754,0.423313 0.086,1.240858 0.0178,1.368336 -0.0269,0.0502 -0.18015,0.157551 -0.34064,0.238563 -0.29273,0.14777 -0.85369,0.372333 -0.91778,0.367403 -0.0188,-0.0014 -0.19624,-0.06115 -0.39425,-0.132673 z m 4.63829,-0.617813 c 0.14101,-0.07301 0.26438,-0.181855 0.32502,-0.286756 0.086,-0.148827 0.0905,-0.186483 0.0376,-0.314338 -0.0808,-0.195067 -0.14157,-0.209698 -0.51177,-0.123215 -0.39729,0.09281 -0.81354,0.06858 -0.9878,-0.0575 -0.0708,-0.05126 -0.18708,-0.208742 -0.25831,-0.349974 -0.13043,-0.258644 -0.17655,-0.450487 -0.4804,-1.998363 -0.0915,-0.465991 -0.2404,-1.112025 -0.33094,-1.435631 -0.0905,-0.323606 -0.19981,-0.741938 -0.24283,-0.929629 -0.043,-0.18769 -0.0942,-0.341257 -0.11379,-0.341257 -0.11512,0 -0.77617,1.245056 -0.93355,1.758309 -0.18427,0.600929 -0.10421,0.921339 0.29866,1.195323 0.38252,0.260148 0.41079,0.213116 0.28998,-0.482464 -0.10438,-0.600911 -0.13702,-0.964932 -0.0865,-0.964932 0.10541,0 0.34835,0.946105 0.55042,2.14356 0.20674,1.225052 0.52922,1.933443 0.9899,2.174482 0.24653,0.12899 0.36699,0.150009 0.80198,0.139917 0.34909,-0.0081 0.46577,-0.03092 0.6524,-0.127536 z m 1.19759,-0.134858 c 0.0107,-0.07578 -0.0333,-0.161975 -0.13799,-0.269947 -0.16994,-0.175331 -0.16453,-0.233271 0.0154,-0.164862 0.14351,0.05456 0.31867,0.267685 0.31867,0.387737 0,0.123892 0.12433,0.108953 0.26514,-0.03185 0.1165,-0.116501 0.11752,-0.123004 0.0387,-0.247114 -0.24496,-0.385699 -0.59798,-0.576664 -1.05443,-0.570381 -0.29059,0.004 -0.29892,0.0071 -0.14374,0.05316 0.16474,0.04891 0.16474,0.04891 0.0386,0.09273 -0.12618,0.04382 -0.12618,0.04382 -0.0294,0.207868 0.0727,0.12328 0.0903,0.212539 0.0706,0.359163 -0.0339,0.252711 0.0491,0.321919 0.36738,0.306352 0.20766,-0.01017 0.2372,-0.02461 0.2511,-0.122835 z m -14.03881,-0.115785 c 0.0151,-0.142139 0.0957,-0.267124 0.17225,-0.267124 0.0257,0 0.0352,0.04441 0.021,0.09868 -0.0626,0.239233 0.12435,0.296897 0.49634,0.153126 0.28167,-0.10886 0.33757,-0.176345 0.11863,-0.143221 -0.18531,0.02805 -0.22379,-0.01075 -0.1069,-0.107763 0.0506,-0.04197 0.057,-0.08133 0.0235,-0.14388 -0.0253,-0.04735 -0.0461,-0.161627 -0.0461,-0.253939 0,-0.19286 0.005,-0.190768 -0.22055,-0.09662 -0.18941,0.07914 -0.2471,0.06206 -0.15702,-0.04647 0.0531,-0.06397 0.0392,-0.06452 -0.12912,-0.0051 -0.5515,0.194583 -0.92253,0.637628 -0.6933,0.82787 0.0767,0.06365 0.3359,0.136943 0.44169,0.124891 0.036,-0.0041 0.0718,-0.06729 0.0795,-0.140425 z m 1.79139,-0.550397 c 0.38051,-0.05016 0.81008,-0.124956 0.95459,-0.16621 0.8012,-0.228711 1.19187,-0.874863 1.03892,-1.71831 -0.0299,-0.164841 -0.054,-0.546477 -0.0536,-0.848083 l 7.2e-4,-0.548365 -0.19014,-0.183048 c -0.19013,-0.183044 -0.19013,-0.183044 -0.16122,-0.04183 0.0159,0.07767 0.0316,0.48011 0.035,0.894326 0.0109,1.35037 -0.20452,1.771937 -0.99538,1.948253 -0.11649,0.02597 -0.41742,0.07973 -0.66873,0.119468 -0.77864,0.123108 -0.88163,0.176578 -0.88393,0.45892 -7.2e-4,0.09635 0.13219,0.237678 0.19001,0.201949 0.023,-0.01422 0.35317,-0.0669 0.73369,-0.117067 z m 5.2418,0.02823 c 0,-0.0626 0.0129,-0.14733 0.0285,-0.188279 0.0244,-0.06348 -0.0195,-0.07446 -0.29766,-0.07446 -0.41292,0 -1.10501,-0.117884 -1.51925,-0.258777 l -0.31985,-0.108788 0.18331,0.317936 c 0.10081,0.174865 0.1833,0.342292 0.1833,0.372063 0,0.03884 0.24595,0.05413 0.87079,0.05413 0.87079,0 0.87079,0 0.87079,-0.113825 z m 2.486,-0.05791 c 0.10442,-0.02791 0.10762,-0.04218 0.0766,-0.340559 -0.0178,-0.171287 -0.0379,-0.317806 -0.0447,-0.325598 -0.007,-0.0078 -0.20008,0.03955 -0.4296,0.105205 -0.22951,0.06565 -0.62766,0.162366 -0.88477,0.214908 -0.25711,0.05254 -0.47706,0.105131 -0.4888,0.116867 -0.0118,0.01175 0.007,0.08872 0.0407,0.171071 l 0.062,0.149741 0.7798,-0.03124 c 0.42889,-0.0172 0.82884,-0.04436 0.88878,-0.06038 z m -3.16836,-1.022841 c 0.0844,-0.06171 0.0848,-0.07091 0.009,-0.1873 -0.10128,-0.15457 -0.33826,-0.279362 -0.45822,-0.24129 -0.17747,0.05633 -0.0781,0.321708 0.15903,0.424871 0.18758,0.0816 0.1842,0.08155 0.29064,0.0037 z m 0.50952,-1.336501 c 0.51476,-0.240885 0.96631,-0.585524 1.57088,-1.198956 0.68219,-0.692187 0.76847,-0.790404 1.34202,-1.527746 l 0.44676,-0.574331 0.0292,-0.790694 c 0.0161,-0.434884 0.0617,-0.949556 0.10146,-1.14372 l 0.0722,-0.353022 -0.15333,-0.129761 c -0.28571,-0.241784 -1.54776,-1.023449 -1.65243,-1.023449 -0.0158,0 -0.0743,0.08922 -0.12991,0.198263 -0.23489,0.46042 -0.90144,0.925537 -1.56986,1.095448 -0.3459,0.08793 -0.95833,0.09138 -1.27277,0.0072 -0.60213,-0.161244 -1.12335,-0.567034 -1.36865,-1.06553 -0.0701,-0.142389 -0.13464,-0.267374 -0.1435,-0.277749 -0.0266,-0.0311 -0.72718,0.521772 -0.79781,0.629571 -0.10626,0.162179 -0.1764,0.988749 -0.1183,1.394134 0.0875,0.61029 0.15003,0.727228 0.32781,0.612801 0.054,-0.03479 0.0471,-0.11222 -0.0416,-0.467295 -0.0585,-0.234085 -0.0951,-0.454993 -0.0813,-0.490908 0.0318,-0.08285 0.67751,-0.273039 1.04083,-0.306571 0.23186,-0.02139 0.28408,-0.01215 0.32297,0.05735 0.0413,0.07377 0.0946,0.07927 0.48444,0.05004 0.52838,-0.03961 0.53853,-0.02981 0.54262,0.525344 l 0.003,0.367883 0.11052,-0.243081 c 0.1705,-0.375019 0.22899,-0.385756 0.73018,-0.134049 0.24446,0.122775 0.42476,0.24259 0.42476,0.282256 0,0.03791 0.06,0.09995 0.13332,0.137865 0.0733,0.03792 0.22193,0.142973 0.33023,0.23345 0.1083,0.09048 0.31799,0.209813 0.46598,0.265186 0.28822,0.107835 1.0121,0.4746 1.16165,0.588561 0.10941,0.08338 0.0701,0.143525 -0.0514,0.07868 -0.15535,-0.0829 -1.38906,-0.47977 -1.84912,-0.594845 -1.85754,-0.464634 -3.82664,-0.286376 -4.44925,0.402784 -0.31979,0.353972 -0.26172,0.691148 0.22482,1.305275 0.3471,0.438123 1.46007,1.552484 1.83963,1.841915 0.59572,0.454273 1.33468,0.546997 1.97421,0.247724 z m 0.34879,-4.18534 c -0.0438,-0.04376 -0.0954,-0.06379 -0.11463,-0.04451 -0.0193,0.01927 -0.004,0.05477 0.0342,0.07885 0.11459,0.07247 0.16552,0.05073 0.0805,-0.03432 z m -0.32403,-0.265082 c -0.009,-0.0051 -0.15792,-0.07687 -0.33056,-0.159475 -0.33956,-0.162473 -0.34043,-0.162272 -0.47859,0.109939 l -0.0747,0.147114 0.41004,0.06608 c 0.41003,0.06608 0.41003,0.06608 0.45024,-0.04415 0.0221,-0.06062 0.0327,-0.114402 0.0235,-0.119507 z m -2.44702,0.123211 0.20556,-0.02819 -0.0333,-0.428242 c -0.0183,-0.235535 -0.0369,-0.432018 -0.0414,-0.436632 -0.009,-0.0093 -0.77545,0.163691 -0.86175,0.194508 -0.0547,0.01953 -0.0476,0.0693 0.0865,0.60779 0.0453,0.182001 0.0453,0.182001 0.24207,0.1505 0.10822,-0.01734 0.28926,-0.0442 0.40232,-0.05971 z m 1.1645,-0.135431 c -0.0157,-0.04095 -0.0285,-0.199811 -0.0285,-0.353023 V 12.81978 h -0.40598 -0.40597 l 0.0294,0.147093 c 0.0162,0.0809 0.0294,0.239763 0.0294,0.353022 v 0.205933 h 0.40513 c 0.35009,0 0.40125,-0.01014 0.37656,-0.07446 z m 1.26187,-1.757947 c 0.31133,-0.152586 0.57765,-0.435791 0.74583,-0.793105 0.12303,-0.261424 0.13692,-0.334805 0.12029,-0.635443 -0.0226,-0.4089475 -0.1263,-0.6436665 -0.40351,-0.9136265 -0.89946,-0.875927 -2.51387,-0.162047 -2.52161,1.1150375 -0.004,0.596433 0.3256,1.056678 0.93331,1.304781 0.23804,0.09719 0.85593,0.05457 1.12569,-0.07764 z m -1.00832,-0.0473 c -0.52493,-0.159675 -0.90898,-0.635325 -0.91462,-1.132764 -0.005,-0.400703 0.0153,-0.423632 0.36691,-0.423632 0.30219,0 0.30219,0 0.33439,0.171627 0.0455,0.242701 0.14059,0.367206 0.35375,0.463329 0.22323,0.10066 0.57746,0.08031 0.7673,-0.04407 0.0776,-0.05087 0.16024,-0.174471 0.20974,-0.313865 0.0769,-0.216366 0.0915,-0.229908 0.24714,-0.229306 0.40079,0.0014 0.44544,0.08224 0.30576,0.552579 -0.20707,0.697285 -1.01012,1.156943 -1.67037,0.956104 z m 0.2121,-1.009721 c -0.18756,-0.08174 -0.25771,-0.173568 -0.29145,-0.381507 -0.0273,-0.167965 -0.0243,-0.172297 0.10796,-0.157178 0.10916,0.01247 0.14073,0.04315 0.15999,0.155487 0.0493,0.287375 0.43481,0.311647 0.56482,0.03557 0.0474,-0.100648 0.1045,-0.150263 0.17373,-0.150947 0.14721,-0.0014 0.17156,0.06914 0.086,0.249382 -0.12787,0.269477 -0.49354,0.383231 -0.80107,0.249203 z m 0.11769,-0.311325 c -0.12732,-0.127324 -0.11859,-0.171619 0.0401,-0.203354 0.29546,-0.05909 0.43866,0.07938 0.23188,0.224222 -0.13463,0.09429 -0.15863,0.09246 -0.27195,-0.02089 z m -0.21181,-0.3313805 c -0.46599,-0.01727 -0.85255,-0.0345 -0.85903,-0.03829 -0.006,-0.0038 -0.0118,-0.03956 -0.0118,-0.0795 0,-0.129706 0.41712,-0.524802 0.67245,-0.636951 0.45806,-0.20119 1.08808,-0.122739 1.42319,0.177222 0.14294,0.127941 0.2947,0.357551 0.33043,0.499919 0.0364,0.1449655 0.13236,0.1401755 -1.55528,0.07761 z m 2.36431,1.1405785 c 0.13369,-0.287283 0.18543,-0.711115 0.11605,-0.950405 -0.0445,-0.153545 -0.0481,-0.143478 -0.052,0.148017 -0.005,0.394899 -0.14546,0.85287 -0.3601,1.17711 l -0.16662,0.251711 0.17321,-0.188278 c 0.0953,-0.103555 0.22553,-0.300725 0.28948,-0.438155 z m 3.05315,-0.886581 c 0.29305,-0.144829 0.39706,-0.171978 0.66836,-0.174464 0.26985,-0.0025 0.35717,0.01809 0.54528,0.128317 l 0.22397,0.131258 -0.0721,-0.139466 c -0.151,-0.2920015 -0.69447,-0.6200495 -1.02866,-0.6209205 -0.0971,-2.47e-4 -0.17652,-0.02013 -0.17652,-0.04419 0,-0.06978 0.50809,-0.158933 0.91452,-0.160473 l 0.37321,-0.0014 -0.20517,-0.08714 c -0.27042,-0.11485 -0.54168,-0.175377 -0.79229,-0.176792 -0.37122,-0.0022 -0.18882,-0.112496 0.47786,-0.289231 0.86208,-0.22854 1.4333,-0.431714 1.91485,-0.681075 0.92774,-0.480408 1.72647,-1.252042 2.23689,-2.160989 l 0.13216,-0.235349 -0.3255,0.317125 c -0.40462,0.394211 -0.61208,0.546391 -1.03244,0.757343 -0.31105,0.156093 -1.46805,0.531814 -1.50963,0.490231 -0.0105,-0.01053 0.13438,-0.134901 0.32205,-0.276359 0.50614,-0.381511 0.9208,-0.925874 1.30408,-1.711968 0.17671,-0.362438 0.33352,-0.69601 0.34846,-0.741276 0.0149,-0.04526 -0.1135,0.03702 -0.2854,0.182854 -0.49031,0.415943 -1.03281,0.746435 -1.95856,1.19317 -1.27684,0.616158 -1.31483,0.613167 -0.57258,-0.04505 0.89003,-0.789286 1.48416,-1.479498 1.93947,-2.253134 0.29059,-0.493765 0.96627,-1.89406 0.93096,-1.929367 -0.012,-0.01199 -0.11512,0.06423 -0.22919,0.16937 -0.2138,0.197075 -0.49121,0.365424 -0.53311,0.323525 -0.0131,-0.01308 0.0527,-0.123868 0.14605,-0.246199 0.0934,-0.12233 0.16203,-0.230221 0.15249,-0.239758 -0.01,-0.0095 -0.11739,0.02555 -0.23968,0.07797 -0.25919,0.111102 -0.80507,0.251903 -1.27368,0.328526 -1.09733,0.179426 -1.9112,0.508591 -2.4241,0.980411 -0.16827,0.154797 -0.3589,0.368122 -0.42362,0.474055 -0.10891,0.178255 -0.23535,0.257963 -0.23535,0.148363 0,-0.02573 0.0941,-0.256139 0.2091,-0.512029 0.48716,-1.083941 0.58307,-1.410489 0.62386,-2.124177 0.0468,-0.81834102 -0.19383,-1.72973802 -0.74364,-2.81685 -0.37191,-0.735357 -0.44792,-0.838624 -0.32385,-0.439983 0.27926,0.897261 0.21887,2.57252998 -0.12588,3.491688 -0.12002,0.320001 -0.33979,0.728082 -0.3738,0.694076 -0.0109,-0.01092 -0.0312,-0.250875 -0.0452,-0.533231 -0.11519,-2.33606802 -0.24099,-3.282785 -0.69366,-5.220357 l -0.19794,-0.847257 -0.0351,0.305954 c -0.0609,0.530325 -0.18412,1.23196 -0.25991,1.479525 -0.0664,0.216781 -0.0762,0.227797 -0.1079,0.120849 -0.0192,-0.06472 -0.0373,-0.297717 -0.0404,-0.517768 l -0.006,-0.400094 -0.18142,0.447164 c -0.47134,1.161665 -1.27795,2.145848 -2.94721,3.59600298 -1.25824,1.09308202 -1.76067,1.62714702 -2.02906,2.15678602 -0.13819,0.272697 -0.30029,0.87168 -0.3018,1.115168 -10e-4,0.168982 -10e-4,0.168982 -0.0936,0.05131 -0.39428,-0.501298 -0.3752,-1.590785 0.0451,-2.57632 0.15802,-0.37050102 0.32418,-0.66648802 0.62476,-1.11284602 l 0.19409,-0.288234 -0.25522,0.231807 c -1.75499,1.59399002 -2.37295,2.31702302 -2.66278,3.11549502 -0.19688,0.542397 -0.19324,1.086448 0.011,1.642101 0.0321,0.08742 0.0263,0.08654 -0.0823,-0.01222 -0.0643,-0.05849 -0.12872,-0.09456 -0.14311,-0.08016 -0.0144,0.0144 -0.10629,-0.08295 -0.20419,-0.216326 -0.2037,-0.277498 -0.3962,-0.76728 -0.40214,-1.023182 -0.004,-0.17437 -0.004,-0.17437 -0.0471,-0.03316 -0.0237,0.07767 -0.0438,0.374205 -0.0446,0.658978 -0.002,0.575915 0.0678,0.913504 0.28341,1.376791 0.0753,0.161803 0.12177,0.294185 0.10325,0.294185 -0.0185,0 -0.11241,-0.0535 -0.20864,-0.118894 -0.17497,-0.118895 -0.17497,-0.118895 -0.13153,-0.0047 0.19767,0.519916 0.81145,1.482831 1.36889,2.147543 0.32486,0.387376 1.01209,1.142215 1.72546,1.895217 l 0.34622,0.3654475 0.26953,-0.1978085 c 0.14824,-0.108795 0.49219,-0.425777 0.76434,-0.704401 0.35148,-0.359847 0.56275,-0.536646 0.72934,-0.610336 0.94785,-0.419282 1.8977,-0.260933 2.64273,0.440566 0.19377,0.182456 0.33091,0.259664 0.68251,0.384262 0.48464,0.171741 1.52879,0.626878 2.04135,0.8898095 0.18069,0.09269 0.33616,0.169567 0.34549,0.170839 0.009,0.0014 0.17315,-0.07487 0.36403,-0.169209 z"
         id="path165" />
    </g>
  </g>
</svg>
