<?xml version="1.0" encoding="UTF-8" standalone="no"?>
<!-- Created with Inkscape (http://www.inkscape.org/) -->

<svg
   width="41.008999mm"
   height="41.008999mm"
   viewBox="0 0 41.008999 41.009"
   version="1.1"
   id="svg1"
   inkscape:version="1.4.2 (f4327f4, 2025-05-13)"
   sodipodi:docname="237.svg"
   xmlns:inkscape="http://www.inkscape.org/namespaces/inkscape"
   xmlns:sodipodi="http://sodipodi.sourceforge.net/DTD/sodipodi-0.dtd"
   xmlns="http://www.w3.org/2000/svg"
   xmlns:svg="http://www.w3.org/2000/svg">
  <sodipodi:namedview
     id="namedview1"
     pagecolor="#ffffff"
     bordercolor="#000000"
     borderopacity="0.25"
     inkscape:showpageshadow="2"
     inkscape:pageopacity="0.0"
     inkscape:pagecheckerboard="0"
     inkscape:deskcolor="#d1d1d1"
     inkscape:document-units="mm"
     inkscape:zoom="2.0485264"
     inkscape:cx="68.341808"
     inkscape:cy="134.73099"
     inkscape:window-width="1050"
     inkscape:window-height="1081"
     inkscape:window-x="3737"
     inkscape:window-y="0"
     inkscape:window-maximized="0"
     inkscape:current-layer="layer1" />
  <defs
     id="defs1" />
  <g
     inkscape:label="Layer 1"
     inkscape:groupmode="layer"
     id="layer1"
     transform="translate(-114.0891,-77.774176)">
    <g
       id="g174"
       transform="translate(-303.45779,253.01564)">
      <circle
         style="fill:none;stroke:#ff0000;stroke-width:0.1;stroke-dasharray:none"
         id="path788-8-1-8-1-9-2-9-3-7-1-2-04-7-2-0-9"
         cx="438.05139"
         cy="-154.73697"
         r="19.954653" />
      <ellipse
         style="fill:none;stroke:#ff00ff;stroke-width:0.1;stroke-dasharray:none;stroke-opacity:1"
         id="path1138-9-4-0-0-1-2-25-0-9-29-6-3-1-6-4-5"
         cx="438.05139"
         cy="-154.73697"
         rx="18.492125"
         ry="18.492126" />
      <circle
         style="fill:none;stroke:#0000ff;stroke-width:0.1;stroke-linecap:round;stroke-dasharray:none;stroke-opacity:1;paint-order:markers stroke fill"
         id="path13019-1-33-5-7-7-4-6-7-8-5-7-7"
         cx="438.05139"
         cy="-169.74794"
         r="2" />
      <path
         style="fill:#000000;stroke-width:0.15443"
         d="m 437.37009,-138.35444 c -0.38927,-0.0707 -0.65472,-0.16074 -1.09673,-0.37225 -0.72007,-0.34455 -1.0783,-0.64077 -1.16847,-0.96621 -0.067,-0.24184 0.003,-0.77674 0.16341,-1.24022 0.0691,-0.20024 0.13339,-0.45543 0.14291,-0.56709 0.0152,-0.17815 0.003,-0.21935 -0.0997,-0.33622 -0.19153,-0.21814 -0.22126,-0.55953 -0.12919,-1.4833 0.0491,-0.49211 0.0471,-0.53089 -0.0553,-1.06236 -0.14194,-0.7373 -0.15033,-1.14797 -0.0282,-1.37738 0.12251,-0.23002 0.11958,-0.3686 -0.009,-0.4272 -0.0554,-0.0252 -0.14856,-0.11499 -0.2071,-0.19945 -0.19979,-0.2883 -0.22523,-0.46304 -0.22106,-1.51778 0.002,-0.53379 -0.005,-0.98482 -0.0153,-1.00229 -0.0459,-0.0762 -0.0672,-0.82991 -0.0298,-1.05133 0.0313,-0.18519 0.0291,-0.25085 -0.009,-0.27517 -0.12551,-0.0797 -0.15242,-0.0338 -0.15423,0.26304 -8.4e-4,0.17085 -0.0293,0.36541 -0.0668,0.45967 -0.0358,0.0899 -0.061,0.2186 -0.056,0.28602 0.0126,0.1724 0.0141,0.35362 0.003,0.44946 -0.005,0.0449 0.0228,0.16445 0.0614,0.26558 0.0523,0.1368 0.0779,0.38263 0.10019,0.96021 0.0237,0.61429 0.0491,0.84377 0.12147,1.09944 0.11643,0.41114 0.10501,0.80177 -0.0289,0.98986 -0.0754,0.10589 -0.0858,0.16031 -0.0648,0.3379 0.0168,0.14186 0.0488,0.22438 0.097,0.25017 0.12404,0.0664 0.32014,0.43453 0.40591,0.76201 0.10049,0.38364 0.10778,0.82596 0.0168,1.01772 -0.13847,0.29179 -0.56039,0.4419 -1.24188,0.44183 -0.40762,-4e-5 -0.51313,-0.015 -0.79636,-0.11328 -0.51846,-0.17982 -0.89408,-0.43822 -1.04682,-0.72011 -0.0356,-0.0656 -0.0545,-0.23378 -0.0529,-0.46989 0.002,-0.29479 0.0246,-0.42853 0.11433,-0.67419 0.14704,-0.40275 0.16205,-0.65092 0.058,-0.9602 -0.0983,-0.29234 -0.084,-0.49249 0.0715,-1.00106 0.0848,-0.2774 0.11289,-0.4799 0.13951,-1.00603 0.0358,-0.7093 0.0975,-0.94032 0.31005,-1.16227 0.0897,-0.0937 0.0955,-0.11895 0.0546,-0.23621 -0.0252,-0.0722 -0.0363,-0.1675 -0.0247,-0.21173 0.0116,-0.0442 0.006,-0.0896 -0.012,-0.10085 -0.0182,-0.0112 -0.0727,0.11285 -0.1211,0.27577 -0.0484,0.1629 -0.13295,0.41609 -0.18783,0.56264 -0.0549,0.14655 -0.0998,0.34305 -0.0998,0.43665 0,0.22129 -0.11179,0.67909 -0.3272,1.33988 -0.27939,0.8571 -0.43056,1.10664 -0.6961,1.1491 -0.13981,0.0224 -0.15254,0.0369 -0.19524,0.22182 -0.1068,0.46267 -0.32194,0.74109 -0.76316,0.98762 l -0.24515,0.13699 -0.049,0.34576 c -0.0369,0.26044 -0.0902,0.42643 -0.21605,0.67264 -0.19014,0.37211 -0.24263,0.44085 -0.47041,0.61623 -0.25503,0.19638 -0.48157,0.26733 -0.85085,0.26653 -0.54025,-8.5e-4 -0.86468,-0.21184 -1.12631,-0.7313 -0.20472,-0.40647 -0.26313,-0.78308 -0.23813,-1.5353 0.0225,-0.67715 0.0386,-0.77011 0.22323,-1.28873 0.12492,-0.35089 0.28269,-0.5312 0.53878,-0.61572 0.14982,-0.0494 0.18789,-0.0859 0.25494,-0.24403 0.0533,-0.12567 0.23567,-0.34479 0.56289,-0.67623 0.29392,-0.2977 0.54992,-0.60029 0.6517,-0.77029 0.0922,-0.15399 0.16763,-0.28925 0.16763,-0.30057 0,-0.0113 0.0573,-0.0929 0.12723,-0.18124 0.1372,-0.17323 0.38395,-0.32099 0.53603,-0.32099 0.0806,0 0.10194,-0.032 0.14519,-0.21805 0.0433,-0.18614 0.0411,-0.24445 -0.015,-0.39839 -0.053,-0.14529 -0.0611,-0.27903 -0.0419,-0.68826 0.0164,-0.34831 0.003,-0.66932 -0.04,-1.02148 -0.0879,-0.7079 -0.029,-1.1087 0.21769,-1.48149 l 0.10422,-0.15749 -0.1034,-0.1932 c -0.48798,-0.91178 -0.49734,-2.11831 -0.0237,-3.05338 0.20988,-0.41433 0.33523,-0.58696 0.67323,-0.9271 0.26568,-0.26737 0.27022,-0.27551 0.20709,-0.37185 -0.10624,-0.16214 -0.34231,-0.25351 -0.65968,-0.25533 -0.22159,-8.4e-4 -0.29215,-0.0168 -0.32688,-0.0718 -0.0636,-0.10089 0.0424,-0.27049 0.24294,-0.38852 l 0.16222,-0.0955 -0.16118,0.0267 c -0.28902,0.0479 -0.7899,0.36155 -1.11733,0.6997 -0.10775,0.11127 -0.24484,0.1265 -0.28138,0.0313 -0.0233,-0.0605 0.0182,-0.29307 0.0866,-0.48621 0.0623,-0.17602 -0.44631,0.43001 -0.66507,0.79237 -0.25609,0.42419 -0.33446,0.49943 -0.446,0.42817 -0.0618,-0.0395 -0.0708,-0.10898 -0.0664,-0.51053 0.004,-0.40523 0.0207,-0.50796 0.12659,-0.80095 0.17445,-0.48276 0.47112,-0.95158 0.86621,-1.3689 0.28309,-0.29901 0.32469,-0.35864 0.23441,-0.33598 -0.0661,0.0166 -0.1339,0.008 -0.17051,-0.0229 -0.22814,-0.18934 0.25432,-0.66245 0.91988,-0.90206 0.22974,-0.0827 0.34277,-0.0958 0.83762,-0.0969 0.50052,-8.5e-4 0.60053,0.0102 0.8,0.0908 0.51716,0.20881 0.77816,0.59479 0.80554,1.1913 0.01,0.21226 -0.01,0.49571 -0.0489,0.71834 -0.079,0.44703 -0.0857,0.89359 -0.0143,0.94871 0.0637,0.0492 0.12615,0.0289 0.57697,-0.18672 0.19935,-0.0954 0.5175,-0.21022 0.70699,-0.25523 0.39158,-0.093 0.96675,-0.11021 1.23839,-0.0371 0.15987,0.0431 0.19984,0.0383 0.37708,-0.0447 l 0.19826,-0.0929 -0.0116,-0.31488 c -0.009,-0.25361 0.003,-0.33028 0.06,-0.39401 0.0393,-0.0435 0.0715,-0.10844 0.0715,-0.14428 0,-0.0358 0.0424,-0.11712 0.0943,-0.18065 0.17995,-0.22031 0.26226,-0.40142 0.24278,-0.53413 l -0.0187,-0.12765 -0.0915,0.10633 c -0.32234,0.37474 -0.35257,-0.48983 -0.0457,-1.30684 0.0776,-0.20661 0.13674,-0.38 0.13141,-0.38534 -0.005,-0.005 -0.0549,0.0731 -0.1101,0.17426 -0.0951,0.17434 -0.22893,0.26035 -0.31869,0.20488 -0.0215,-0.0133 -0.0615,-0.11786 -0.089,-0.23239 -0.13911,-0.57989 0.30385,-1.73175 0.83375,-2.16804 0.0809,-0.0666 0.0802,-0.0689 -0.0524,-0.18048 -0.39046,-0.32855 -0.59773,-1.06797 -0.49608,-1.76972 0.024,-0.16586 0.0731,-0.36352 0.10902,-0.43925 0.11357,-0.23932 0.19799,-0.19318 0.65043,0.35544 l 0.40667,0.49312 0.0212,-0.19689 c 0.0411,-0.38253 0.10539,-0.38751 0.29974,-0.0232 0.23195,0.43473 0.23449,0.43557 0.20537,0.0678 -0.0439,-0.55508 0.0961,-1.11893 0.34162,-1.37532 0.12324,-0.12869 0.23596,-0.14454 0.2905,-0.0408 0.0207,0.0393 0.0498,0.19103 0.0648,0.3371 0.0408,0.39969 0.11047,0.8741 0.13408,0.91276 0.0115,0.0188 0.0769,-0.0637 0.14529,-0.18348 0.26037,-0.45591 0.71346,-0.78646 1.22029,-0.89028 0.29312,-0.06 0.56644,8.5e-4 0.56644,0.12727 0,0.0209 -0.12572,0.17082 -0.27939,0.33319 -0.29612,0.31284 -0.5246,0.62628 -0.48523,0.66565 0.013,0.013 0.0884,0.003 0.1675,-0.0238 0.0791,-0.0261 0.21956,-0.0485 0.31212,-0.0497 0.21257,-0.003 0.24882,-0.0428 0.53016,-0.58249 0.25194,-0.48333 0.33023,-0.54473 0.47699,-0.37413 0.15755,0.18317 0.23624,0.52461 0.2372,1.0292 l 8.2e-4,0.45336 0.4086,0.0534 c 0.22473,0.0293 0.51449,0.0495 0.64391,0.0448 0.17837,-0.007 0.24107,0.007 0.25912,0.0535 0.0137,0.0357 0.21668,0.12429 0.4784,0.20878 0.45817,0.14789 0.49805,0.15229 1.19273,0.13178 0.43578,-0.0129 1.25429,0.31278 1.79997,0.71613 0.70349,0.52 1.16345,1.14052 1.10702,1.49344 -0.0231,0.14413 -0.01,0.1664 0.27094,0.46035 0.16233,0.16988 0.34431,0.33928 0.40441,0.37643 0.0601,0.0372 0.12254,0.10942 0.13876,0.16058 0.0345,0.10877 0.41501,0.62966 0.54269,0.74289 0.0483,0.0428 0.0878,0.11129 0.0878,0.15217 0,0.0777 0.30628,0.71265 0.35974,0.74568 0.017,0.0105 0.0347,0.18692 0.0394,0.39209 0.009,0.38025 -0.009,0.44158 -0.19481,0.6683 -0.0879,0.10736 -0.31366,0.21445 -0.56383,0.26747 -0.58608,0.12422 -1.40771,-0.0219 -2.45978,-0.43766 -0.28092,-0.11101 -0.52454,-0.19362 -0.5414,-0.1836 -0.0169,0.01 -0.0306,0.0563 -0.0306,0.10292 0,0.14949 -0.16626,0.35988 -0.38231,0.48379 -0.11558,0.0663 -0.23628,0.12071 -0.26823,0.12092 -0.032,2.1e-4 -0.13342,0.079 -0.2255,0.17511 -0.0921,0.0961 -0.23294,0.20582 -0.313,0.24382 -0.12884,0.0611 -0.14345,0.0835 -0.12714,0.19466 0.0138,0.0943 0.0554,0.14455 0.16678,0.20167 0.17898,0.0918 0.31189,0.22865 0.36933,0.38027 0.0249,0.0656 0.0734,0.11237 0.11667,0.11237 0.0407,0 0.14346,0.0354 0.22823,0.0786 0.14165,0.0722 0.15582,0.073 0.17503,0.0102 0.086,-0.28157 0.33189,-0.29006 0.62891,-0.0217 0.17824,0.16104 0.20972,0.30324 0.0951,0.42986 -0.0631,0.0697 -0.0602,0.0799 0.046,0.16344 0.26753,0.21044 0.33527,0.62946 0.16342,1.01092 -0.2335,0.51838 -0.28682,0.55168 -0.36846,0.23015 -0.0593,-0.23352 -0.31793,-0.51549 -0.39873,-0.43469 -0.14078,0.14079 -0.58103,-0.0303 -0.66067,-0.25672 -0.0347,-0.0985 -0.0269,-0.12645 0.053,-0.19121 0.0937,-0.0758 0.0937,-0.0758 -0.0616,-0.14069 -0.0854,-0.0357 -0.19683,-0.10395 -0.24771,-0.15175 -0.0508,-0.0478 -0.17984,-0.11703 -0.28658,-0.15385 -0.13979,-0.0482 -0.22835,-0.11414 -0.31665,-0.2357 -0.0674,-0.0928 -0.15652,-0.18078 -0.198,-0.19551 -0.0415,-0.0147 -0.14262,-0.096 -0.22473,-0.18055 l -0.1493,-0.15381 -0.002,0.53576 c -0.002,0.47473 -0.0194,0.60598 -0.15323,1.15231 -0.20246,0.82673 -0.20363,1.25839 -0.003,1.30861 0.12727,0.032 0.34003,0.27731 0.36988,0.42655 0.0187,0.0939 0.0785,0.14834 0.29046,0.26485 0.14675,0.0807 0.32797,0.19329 0.4027,0.25028 0.17718,0.13516 0.33341,0.46244 0.36741,0.76966 0.0243,0.21984 0.0472,0.26668 0.22207,0.45343 0.20342,0.21731 0.40218,0.57896 0.68854,1.25281 0.0932,0.2193 0.2675,0.56865 0.38735,0.77633 0.46262,0.80166 0.6223,1.25341 0.58117,1.64426 -0.0191,0.18064 -0.008,0.22289 0.0994,0.3648 0.0665,0.0883 0.12093,0.1875 0.12093,0.2205 0,0.033 0.0812,0.14679 0.18043,0.25288 0.196,0.20953 0.31902,0.43157 0.48947,0.88341 0.0605,0.16031 0.14539,0.32356 0.1887,0.36275 0.0737,0.0667 0.0878,0.0669 0.22064,0.003 0.0781,-0.037 0.17895,-0.11443 0.22423,-0.17199 0.11919,-0.15154 0.21169,-0.11024 0.35135,0.15689 0.14791,0.28293 0.12347,0.35112 -0.1566,0.4367 -0.10489,0.032 -0.1901,0.078 -0.18935,0.10215 0.002,0.05 0.14185,0.22774 0.17976,0.22774 0.0137,0 0.10705,-0.0756 0.20732,-0.16805 0.10893,-0.10041 0.20658,-0.15875 0.24258,-0.14493 0.0806,0.0309 0.27936,0.42845 0.25108,0.50215 -0.0123,0.032 -0.11407,0.11532 -0.22613,0.18499 -0.17386,0.10807 -0.19776,0.13789 -0.16284,0.20313 0.0225,0.0421 0.0599,0.0765 0.0831,0.0765 0.0623,0 0.20878,-0.0812 0.30618,-0.1697 0.10618,-0.0965 0.19835,-0.065 0.26238,0.0896 0.027,0.065 0.0746,0.13953 0.10589,0.1655 0.0313,0.026 0.0569,0.0887 0.0569,0.13941 0,0.10049 -0.10824,0.15829 -0.38136,0.20365 -0.1178,0.0196 -0.15073,0.0414 -0.1328,0.0882 0.0131,0.0342 0.0239,0.0698 0.0239,0.0793 0,0.0379 0.18899,0.0132 0.39429,-0.0515 0.11969,-0.0377 0.2283,-0.0579 0.24138,-0.0449 0.0131,0.0131 0.0512,0.12863 0.0846,0.2568 0.0559,0.21423 0.0552,0.23927 -0.009,0.31041 -0.0536,0.0591 -0.12639,0.0774 -0.30885,0.0774 -0.21083,0 -0.23883,0.01 -0.23883,0.081 0,0.0908 0.0756,0.11678 0.38816,0.13311 0.18039,0.009 0.20591,0.022 0.21805,0.10789 0.0185,0.13027 -0.10554,0.44598 -0.19363,0.49312 -0.0759,0.0406 -0.29763,0.003 -0.44171,-0.0733 -0.0486,-0.0261 -0.097,-0.0335 -0.10742,-0.0166 -0.0104,0.0169 3.1e-4,0.19624 0.024,0.39849 0.0236,0.20225 0.0428,0.41935 0.0427,0.48244 -3.1e-4,0.15534 -0.23371,0.39604 -0.38391,0.39604 -0.11095,0 -0.11095,0 -0.12478,0.45432 l -0.0138,0.45432 -0.18387,0.15884 c -0.20895,0.18052 -0.61767,0.38989 -0.91933,0.47095 -0.25339,0.0681 -0.61055,0.0105 -0.67432,-0.10857 -0.0837,-0.15636 -0.0451,-0.32429 0.12656,-0.55172 0.21215,-0.281 0.32303,-0.63162 0.32303,-1.02154 0,-0.29956 0,-0.29956 -0.1328,-0.32831 -0.22847,-0.0495 -0.49042,-0.19258 -0.64606,-0.35296 l -0.14973,-0.15429 -0.025,0.21055 c -0.0138,0.1158 -0.0439,0.22943 -0.0669,0.2525 -0.0231,0.0231 -0.0421,0.0796 -0.0422,0.12571 -1.3e-4,0.046 -0.0194,0.15286 -0.0428,0.23732 -0.0353,0.12732 -0.0785,0.1717 -0.25251,0.25989 -0.18216,0.0923 -0.22864,0.10059 -0.35204,0.0627 -0.0782,-0.0239 -0.15577,-0.0352 -0.17239,-0.025 -0.0166,0.0103 -0.0882,0.12144 -0.15911,0.24705 -0.1132,0.20059 -0.16028,0.24261 -0.38679,0.34532 -0.49406,0.22402 -1.03637,0.25614 -1.26663,0.075 -0.18455,-0.14516 -0.11846,-0.4346 0.12826,-0.56174 0.0852,-0.0439 0.21271,-0.14117 0.28339,-0.21618 0.13043,-0.13841 0.38223,-0.57745 0.38223,-0.66646 0,-0.0268 -0.0675,-0.0931 -0.15,-0.14747 -0.0825,-0.0543 -0.20336,-0.16542 -0.26857,-0.24686 -0.15298,-0.19106 -0.1597,-0.32703 -0.0664,-1.3436 0.0886,-0.96523 0.17306,-2.78755 0.13787,-2.97515 -0.014,-0.0747 -0.0611,-0.19425 -0.10464,-0.26566 -0.0864,-0.14169 -0.1005,-0.2939 -0.0416,-0.44887 0.0318,-0.0836 0.0126,-0.13332 -0.11905,-0.30852 -0.16746,-0.22286 -0.26284,-0.4758 -0.42619,-1.13017 -0.0562,-0.22516 -0.19628,-0.6383 -0.31129,-0.91808 -0.15732,-0.38274 -0.21487,-0.57983 -0.2324,-0.79598 -0.0279,-0.34355 -0.0762,-0.42436 -0.30648,-0.51178 -0.47549,-0.18057 -1.0189,-0.5951 -1.3662,-1.04216 l -0.12697,-0.16343 -0.0703,0.23972 c -0.14404,0.49101 -0.45042,1.13247 -0.67635,1.41605 -0.0821,0.1031 -0.0821,0.1031 0.13454,0.32687 0.11918,0.12308 0.35151,0.41262 0.51627,0.64344 0.19428,0.27214 0.43805,0.54504 0.6935,0.77633 0.80451,0.72844 0.92238,0.89395 0.98053,1.377 0.0229,0.18951 0.0596,0.29076 0.14096,0.38738 0.0605,0.0719 0.11006,0.16512 0.11006,0.20706 0,0.0419 0.0374,0.13964 0.0832,0.21711 0.16364,0.27737 0.14677,0.75516 -0.0587,1.66162 -0.25616,1.13014 -0.6786,1.77067 -1.28357,1.94625 -0.27707,0.0804 -0.37524,0.17982 -0.37524,0.37995 0,0.21182 -0.23942,0.68312 -0.46469,0.91475 -0.38869,0.39968 -1.03545,0.5587 -1.51236,0.37188 -0.0573,-0.0224 -0.0709,-0.0154 -0.053,0.0274 0.0133,0.0317 0.0474,0.13643 0.0757,0.23282 0.0424,0.14403 0.0825,0.19067 0.22531,0.26197 0.0955,0.0477 0.24463,0.15272 0.33133,0.23337 0.37673,0.3504 0.50961,0.69434 0.51446,1.33154 0.007,0.90008 -0.22349,1.2426 -0.95815,1.42486 -0.31619,0.0784 -0.83738,0.081 -1.25009,0.006 z m 1.56014,-0.38901 c 0.34419,-0.1727 0.42326,-0.30293 0.45732,-0.75324 0.0533,-0.70471 -0.24851,-1.38474 -0.76115,-1.715 l -0.13939,-0.0898 -0.26163,0.17544 c -0.68022,0.45614 -1.56223,0.482 -2.39929,0.0703 -0.15612,-0.0767 -0.29636,-0.12574 -0.31165,-0.10881 -0.0153,0.0169 -0.0616,0.13191 -0.10275,0.25551 -0.0571,0.17122 -0.0753,0.35312 -0.0766,0.76392 l -0.002,0.53918 0.15448,0.15845 c 0.25909,0.26573 0.96794,0.60632 1.64334,0.78959 0.23221,0.063 0.40152,0.0757 0.8999,0.0676 0.61135,-0.01 0.61507,-0.0107 0.89891,-0.15311 z m 8.07294,-1.771 c 0.33552,-0.1465 0.67134,-0.36749 0.70948,-0.4669 0.0131,-0.0341 0.0331,-0.25691 0.0444,-0.4953 0.0114,-0.23839 0.0411,-0.48494 0.0662,-0.5479 0.0647,-0.16254 -0.0222,-0.45732 -0.12197,-0.41382 -0.23795,0.10375 -0.51113,0.17968 -0.73283,0.2037 l -0.25537,0.0277 -8.3e-4,0.18931 c -8.3e-4,0.24724 -0.0975,0.69792 -0.18656,0.87021 -0.0387,0.075 -0.14278,0.22217 -0.23123,0.32711 -0.17765,0.21081 -0.18555,0.31143 -0.0306,0.38982 0.17205,0.087 0.40944,0.0601 0.73927,-0.0839 z m -0.045,-0.70441 c -0.0562,-0.0312 -0.13432,-0.0569 -0.17366,-0.0573 -0.0393,-3e-4 -0.0715,-0.0177 -0.0715,-0.0385 0,-0.0695 0.13226,-0.17139 0.19247,-0.14829 0.0326,0.0125 0.0762,0.0228 0.0969,0.0228 0.0207,0 0.0375,0.0195 0.0375,0.0433 0,0.0238 -0.0192,0.0314 -0.0428,0.0168 -0.0236,-0.0146 -0.0741,-0.014 -0.11237,8.4e-4 -0.0544,0.0218 -0.039,0.0381 0.0704,0.0751 0.077,0.026 0.14745,0.0703 0.15663,0.0984 0.0207,0.0633 -0.0217,0.0596 -0.15356,-0.0137 z m -9.57969,0.25392 c 0.45912,-0.0986 0.99916,-0.39895 0.99916,-0.55571 0,-0.10162 -0.0417,-0.20556 -0.0826,-0.20556 -0.0181,0 -0.13105,0.0649 -0.251,0.1441 -0.65657,0.43382 -1.59838,0.46401 -2.27535,0.0729 -0.1897,-0.10959 -0.28032,-0.0868 -0.23409,0.0589 0.0472,0.14878 0.69686,0.432 1.14729,0.50019 0.30484,0.0461 0.42452,0.0436 0.69652,-0.0147 z m 6.59926,-0.24286 c 0.21308,-0.10413 0.3347,-0.19343 0.40627,-0.29829 0.0562,-0.0823 0.18949,-0.24544 0.29623,-0.36249 0.14225,-0.15599 0.19409,-0.24598 0.19409,-0.33697 0,-0.12414 0,-0.12414 -0.26458,-0.1029 -0.14553,0.0116 -0.37939,-8.5e-4 -0.5197,-0.0289 -0.16131,-0.0317 -0.25998,-0.0355 -0.26838,-0.0104 -0.008,0.0219 -0.0749,0.14208 -0.15008,0.26702 -0.0752,0.12494 -0.12652,0.23744 -0.11397,0.24999 0.0126,0.0126 0.0703,0.021 0.12837,0.0188 0.10555,-0.004 0.10555,-0.004 0.003,-0.0324 -0.0573,-0.0159 -0.0826,-0.0402 -0.0578,-0.0555 0.0633,-0.0391 0.27348,0.0252 0.29523,0.0905 0.0128,0.0384 -0.003,0.047 -0.053,0.028 -0.0545,-0.0209 -0.0653,-0.0115 -0.0458,0.0393 0.0207,0.0538 0.008,0.0611 -0.067,0.038 -0.23831,-0.0738 -0.27571,-0.0707 -0.39798,0.0321 -0.0681,0.0573 -0.19726,0.14545 -0.28711,0.19595 -0.13976,0.0785 -0.16336,0.11157 -0.16336,0.22861 0,0.1786 0.0965,0.21987 0.47222,0.20201 0.23124,-0.011 0.34859,-0.0431 0.59247,-0.16232 z m -6.69078,-0.29334 c 0.7029,-0.18308 1.19559,-0.68877 1.09509,-1.12398 -0.0182,-0.0787 -0.13405,-0.37284 -0.25752,-0.65376 -0.24122,-0.54884 -0.3113,-0.77273 -0.44117,-1.40966 -0.16713,-0.81962 -0.33228,-1.17317 -0.63399,-1.35714 -0.0802,-0.0489 -0.0803,-0.0505 -0.003,-0.11194 0.0433,-0.0342 0.0664,-0.0746 0.0514,-0.0897 -0.0151,-0.0151 -0.0611,0.003 -0.10238,0.0404 -0.0851,0.077 -0.17068,0.0892 -0.17068,0.0243 0,-0.024 0.0435,-0.10211 0.0966,-0.17365 0.13765,-0.18527 0.23024,-0.49459 0.23024,-0.76924 0,-0.13006 -0.0549,-0.49374 -0.12192,-0.80821 -0.067,-0.31446 -0.14094,-0.80695 -0.1642,-1.09442 -0.0233,-0.28747 -0.0596,-0.60924 -0.0809,-0.71505 -0.0597,-0.29783 -0.22949,-0.59744 -0.39353,-0.69422 -0.0929,-0.0549 -0.12963,-0.0988 -0.10393,-0.12444 0.0675,-0.0675 0.32676,0.0471 0.44667,0.19736 0.12243,0.15343 0.17933,0.16316 0.6603,0.11289 0.24116,-0.0252 0.2599,-0.0352 0.35674,-0.18853 0.14523,-0.23003 0.35267,-0.82772 0.48358,-1.39328 0.11797,-0.50962 0.11227,-0.55489 -0.0701,-0.55653 -0.2319,-0.002 -0.94161,-0.38346 -1.17316,-0.63044 -0.13911,-0.14838 -0.0395,-0.13145 0.19089,0.0325 0.31981,0.22748 0.69207,0.38501 1.0623,0.44955 0.12496,0.0218 0.1383,0.012 0.23029,-0.16991 0.19947,-0.39432 0.45309,-1.23494 0.3726,-1.23494 -0.0112,0 -0.0955,0.0729 -0.18739,0.16206 -0.0918,0.0891 -0.22976,0.18476 -0.3065,0.21251 -0.10647,0.0385 -0.14064,0.0751 -0.14432,0.1546 -0.006,0.13151 -0.008,0.11074 0.0261,0.33909 0.0341,0.22956 0.0121,0.23744 -0.29965,0.10785 -0.16094,-0.0669 -0.21297,-0.11118 -0.23193,-0.19745 -0.0228,-0.10371 0.0154,-0.34494 0.0788,-0.49759 0.0177,-0.0427 0.003,-0.0757 -0.042,-0.0929 -0.10339,-0.0396 -0.1186,-0.003 -0.12398,0.2953 -0.005,0.30059 -0.003,0.29916 -0.28111,0.19733 -0.15804,-0.0579 -0.16385,-0.0667 -0.17567,-0.2647 -0.007,-0.11937 0.0141,-0.26772 0.0508,-0.35565 0.0609,-0.14578 0.0551,-0.22389 -0.0165,-0.22389 -0.0524,0 -0.12417,0.2382 -0.12417,0.41228 0,0.0852 -0.0192,0.16681 -0.0427,0.18135 -0.0235,0.0145 -0.1229,-0.0442 -0.22088,-0.13039 -0.20463,-0.18012 -0.22314,-0.27495 -0.10461,-0.53611 l 0.0794,-0.17502 -0.16389,-0.14806 c -0.13289,-0.12006 -0.1597,-0.1681 -0.14179,-0.25401 0.0199,-0.0954 -0.008,-0.12485 -0.2801,-0.29552 -0.28001,-0.17566 -0.55557,-0.4657 -0.8496,-0.89426 -0.0694,-0.1011 -0.0694,-0.1011 -0.0715,0.0743 -0.003,0.27526 0.11538,0.78066 0.24995,1.06382 0.12082,0.25425 0.1279,0.36551 0.0159,0.24974 -0.0989,-0.10226 -0.29998,-0.53966 -0.36507,-0.79433 -0.0345,-0.13483 -0.0681,-0.37844 -0.0747,-0.54135 -0.007,-0.1629 -0.0253,-0.2962 -0.0415,-0.29623 -0.0537,-7e-5 -0.47311,0.62657 -0.71101,1.06231 -0.41799,0.76564 -0.66506,1.17859 -0.85297,1.42568 -0.20974,0.27579 -0.25676,0.46007 -0.44922,1.76074 -0.10117,0.68369 -0.10257,0.71676 -0.0326,0.76919 0.1483,0.11111 0.92096,0.45809 1.33553,0.59974 0.42723,0.14598 0.42723,0.14598 0.56305,0.0632 0.0747,-0.0455 0.17013,-0.0829 0.21208,-0.083 0.0622,-1.2e-4 0.0715,0.0206 0.0506,0.11222 -0.11377,0.49845 -0.1191,0.63108 -0.051,1.26924 0.0473,0.44374 0.065,0.91124 0.0575,1.51943 -0.0104,0.84249 -0.007,0.88853 0.0864,1.12364 0.0745,0.18768 0.0954,0.31259 0.0895,0.53278 -0.007,0.24554 0.006,0.30517 0.0867,0.4076 0.0757,0.0962 0.0919,0.16062 0.0819,0.32527 -0.007,0.11292 0.0241,0.38917 0.0689,0.6139 0.0468,0.23473 0.10011,0.75614 0.1254,1.22536 0.0247,0.45889 0.0729,0.93332 0.10992,1.08278 0.0776,0.3132 0.26025,0.73438 0.35078,0.8088 0.15433,0.12684 0.74555,0.16448 1.10657,0.0705 z m -1.38134,-4.43362 c -0.0143,-0.023 0.0189,-0.0409 0.076,-0.0409 0.0556,0 0.1303,-0.0111 0.16585,-0.0248 0.0424,-0.0163 0.0646,-0.002 0.0646,0.0408 0,0.0476 -0.0387,0.0657 -0.1406,0.0657 -0.0773,0 -0.15196,-0.0184 -0.16586,-0.0408 z m 0.55161,-0.0773 c 0,-0.045 0.10142,-0.0861 0.21265,-0.0861 0.0695,0 0.0749,0.0102 0.0326,0.0613 -0.0546,0.0658 -0.24516,0.0851 -0.24516,0.0248 z m -0.60931,4.15941 c -0.13159,-0.29931 -0.21114,-0.83259 -0.2493,-1.67134 -0.025,-0.54803 -0.0621,-0.9052 -0.11895,-1.14408 -0.0455,-0.19101 -0.0831,-0.44458 -0.0837,-0.56348 -8.3e-4,-0.15876 -0.0254,-0.2491 -0.0928,-0.34021 l -0.0917,-0.12404 -0.0278,0.13591 c -0.0296,0.14458 0.0171,0.6555 0.091,0.99397 0.0245,0.11236 0.057,0.704 0.0722,1.31474 0.0259,1.03927 0.0331,1.11784 0.11317,1.22579 0.0905,0.12213 0.42482,0.39496 0.45139,0.3684 0.009,-0.009 -0.0199,-0.0967 -0.0634,-0.19566 z m 9.1313,-0.007 c 0.0121,-0.0832 -4.2e-4,-0.0866 -0.10872,-0.0286 -0.0441,0.0236 -0.0687,0.0614 -0.0548,0.084 0.039,0.0631 0.15176,0.0249 0.16351,-0.0554 z m 0.31329,-0.047 c 0.0165,-0.0247 0.0304,-0.0868 0.0307,-0.13795 4.1e-4,-0.0902 -0.003,-0.0911 -0.12196,-0.0296 -0.095,0.0492 -0.12257,0.091 -0.12257,0.18635 0,0.11463 0.006,0.11969 0.0919,0.0745 0.0506,-0.0266 0.10544,-0.0686 0.12195,-0.0934 z m 2.97639,-0.23484 c 0.0218,-0.0407 0.0278,-0.12145 0.0132,-0.17942 -0.0265,-0.10538 -0.0265,-0.10538 -0.12358,-0.0142 -0.0977,0.0918 -0.11846,0.17812 -0.0719,0.29942 0.02,0.0521 0.0374,0.0556 0.084,0.0169 0.0323,-0.0268 0.0766,-0.082 0.0984,-0.12279 z m -8.73281,-0.0288 c 0.39303,-0.1935 0.76195,-0.66068 0.76195,-0.96492 0,-0.1022 -0.0101,-0.10976 -0.11236,-0.0838 -0.51215,0.12987 -0.9386,0.10193 -1.17298,-0.0768 -0.1535,-0.11708 -0.35544,-0.48187 -0.45209,-0.81667 -0.051,-0.17684 -0.0652,-0.34617 -0.0535,-0.6394 l 0.016,-0.39888 -0.21837,-0.10709 c -0.1201,-0.0589 -0.23511,-0.0968 -0.25559,-0.0841 -0.0555,0.0343 -0.16194,0.42168 -0.16182,0.58873 1.6e-4,0.27891 0.19814,0.88524 0.46684,1.42999 0.23054,0.46741 0.26853,0.5757 0.26853,0.76531 0,0.12146 -0.0261,0.28353 -0.0582,0.36017 -0.0741,0.17731 -0.0539,0.18661 0.37097,0.17121 0.27797,-0.01 0.37749,-0.0339 0.60053,-0.14369 z m 5.51774,0.011 c 0.0137,-0.0355 0.0248,-0.11277 0.0248,-0.17161 0,-0.14105 -0.0713,-0.0708 -0.10649,0.10472 -0.0272,0.13599 0.0355,0.1873 0.0817,0.0669 z m 0.29224,-0.11737 c 0.0939,-0.0939 0.14523,-0.3505 0.0697,-0.34826 -0.0848,0.003 -0.20805,0.1594 -0.23204,0.29532 -0.0321,0.18194 0.0173,0.19805 0.16239,0.053 z m 2.6336,-0.14246 c 0,-0.1135 -0.0615,-0.19969 -0.10876,-0.15244 -0.0336,0.0336 0.0288,0.2726 0.0712,0.2726 0.0207,0 0.0376,-0.0541 0.0376,-0.12016 z m -2.86769,-0.26318 c 0.11948,-0.0611 0.20999,-0.13316 0.20113,-0.16011 -0.009,-0.027 -0.0963,-0.0548 -0.19436,-0.062 -0.12266,-0.009 -0.22614,-0.0508 -0.33175,-0.1345 -0.13402,-0.10615 -0.16404,-0.11495 -0.23691,-0.0695 -0.12296,0.0768 -0.25665,-0.0683 -0.26231,-0.28462 -0.006,-0.22764 0.0704,-0.3068 0.26438,-0.27402 0.13838,0.0234 0.16656,0.0121 0.27538,-0.10963 0.0672,-0.0751 0.13208,-0.20356 0.14556,-0.28789 0.0373,-0.23316 0.10468,-0.34892 0.23445,-0.40266 0.10069,-0.0417 0.13035,-0.0381 0.19899,0.024 0.11771,0.10652 0.10053,0.0163 -0.0568,-0.2982 -0.0755,-0.15114 -0.19751,-0.44026 -0.27093,-0.64252 -0.0734,-0.20226 -0.13648,-0.3716 -0.14015,-0.37633 -0.003,-0.005 -0.046,0.002 -0.094,0.0143 -0.0517,0.0136 -0.11204,0.0846 -0.14794,0.17435 -0.12828,0.3206 -0.32548,0.32555 -0.51429,0.0129 -0.0641,-0.10609 -0.15754,-0.23717 -0.20771,-0.29128 -0.14819,-0.15981 -0.17906,-0.34148 -0.0871,-0.51296 0.0624,-0.11642 0.074,-0.19943 0.0571,-0.40965 -0.025,-0.31103 0.0403,-0.44804 0.2336,-0.49051 0.12156,-0.0267 0.1585,-0.0763 0.0889,-0.11932 -0.0193,-0.012 -0.0472,-0.12492 -0.0621,-0.25109 -0.0285,-0.24248 -0.10028,-0.41791 -0.20738,-0.50679 -0.0469,-0.0389 -0.0577,-0.0917 -0.039,-0.19111 0.0219,-0.11705 0.0143,-0.13735 -0.0524,-0.13735 -0.043,0 -0.14063,-0.0643 -0.21687,-0.14301 -0.0762,-0.0787 -0.16952,-0.14301 -0.20731,-0.14301 -0.0915,0 -0.15422,-0.0814 -0.18627,-0.24157 -0.0202,-0.1007 -0.004,-0.16109 0.0663,-0.25687 0.0911,-0.12324 0.0915,-0.12899 0.0261,-0.36438 -0.0838,-0.30153 -0.0853,-0.56047 -0.003,-0.65064 0.0567,-0.0627 0.0529,-0.0991 -0.0408,-0.37817 -0.057,-0.16983 -0.10365,-0.34755 -0.10365,-0.39493 0,-0.0474 -0.0297,-0.13149 -0.066,-0.18689 -0.0555,-0.0847 -0.0983,-0.10071 -0.26908,-0.10071 h -0.20308 l 0.0256,0.29624 c 0.0141,0.16293 0.009,0.32108 -0.0117,0.35144 -0.0233,0.0346 -0.0163,0.12486 0.0189,0.24144 0.0794,0.26398 0.0738,0.56785 -0.0116,0.61557 -0.0588,0.0329 -0.0613,0.0611 -0.0198,0.21655 0.0262,0.0983 0.0951,0.36199 0.15305,0.58596 0.11523,0.44552 0.25469,0.75869 0.41315,0.92772 0.0967,0.10314 0.0987,0.11433 0.0364,0.20318 -0.0815,0.11625 -0.0853,0.20332 -0.008,0.17355 0.032,-0.0122 0.0875,-0.0958 0.12348,-0.18569 0.0805,-0.20113 0.152,-0.18656 0.20819,0.0424 0.0234,0.0952 0.0688,0.18937 0.10097,0.20925 0.0322,0.0199 0.0498,0.0417 0.0392,0.0486 -0.20919,0.13517 -0.26086,0.13937 -0.39699,0.0323 -0.14401,-0.11328 -0.16037,-0.0736 -0.0457,0.11078 0.0891,0.14329 0.0977,0.20612 0.11055,0.80745 0.0121,0.56665 0.0242,0.66505 0.0919,0.7512 0.0429,0.0546 0.0782,0.1564 0.0784,0.22641 3.1e-4,0.07 0.0278,0.21755 0.0613,0.32787 0.0807,0.26603 0.0767,0.35452 -0.017,0.37904 -0.0508,0.0133 -0.0875,0.0718 -0.10566,0.16845 -0.0153,0.0815 -0.063,0.19751 -0.106,0.25792 -0.10838,0.1522 -0.0963,0.27456 0.0455,0.46201 0.20562,0.27177 0.13854,0.63202 -0.10625,0.57059 -0.0971,-0.0244 -0.0992,-0.0195 -0.0992,0.23102 0,0.24534 0.003,0.25313 0.0747,0.1883 0.0411,-0.0372 0.12478,-0.0676 0.18596,-0.0676 0.0885,0 0.12344,0.0293 0.17098,0.14301 0.0328,0.0787 0.088,0.14302 0.12252,0.14302 0.0925,0 0.26774,0.0988 0.46004,0.25951 0.16986,0.14191 0.16986,0.14191 0.3848,0.0911 0.11821,-0.028 0.31269,-0.10081 0.43217,-0.16191 z m -1.48001,-1.39603 c -0.10375,-0.10375 -0.11512,-0.21792 -0.0375,-0.37674 0.0888,-0.18164 0.20763,-0.20088 0.2937,-0.0476 0.0524,0.0933 0.0506,0.12359 -0.0158,0.27417 -0.0851,0.19296 -0.15433,0.23617 -0.24039,0.15011 z m 0.76068,-0.28813 c -0.17562,-0.0767 -0.20039,-0.1545 -0.10725,-0.33671 0.042,-0.0822 0.086,-0.20467 0.0977,-0.2721 0.0175,-0.1009 0.0394,-0.12111 0.12345,-0.11432 0.39467,0.0319 0.49107,0.12169 0.36792,0.34284 -0.0427,0.0766 -0.1054,0.19675 -0.13948,0.26707 -0.0491,0.10132 -0.15798,0.19619 -0.20114,0.17527 -0.003,-0.002 -0.0674,-0.0298 -0.14124,-0.0621 z m -0.49895,-3.26469 c 0,-0.0389 0.0391,-0.0613 0.10715,-0.0613 0.0906,0 0.0993,0.01 0.0563,0.0613 -0.028,0.0337 -0.0762,0.0613 -0.10715,0.0613 -0.0309,0 -0.0563,-0.0276 -0.0563,-0.0613 z m 3.59901,5.03275 c 0.12544,-0.0636 0.27957,-0.15664 0.34251,-0.20683 0.10952,-0.0873 0.11215,-0.0976 0.0612,-0.23836 -0.0456,-0.12628 -0.0435,-0.17244 0.015,-0.32573 0.0375,-0.0982 0.0682,-0.26142 0.0682,-0.36267 0,-0.10341 0.0358,-0.25432 0.0817,-0.34436 0.0449,-0.0882 0.0817,-0.18671 0.0817,-0.21901 0,-0.0772 -0.32929,-0.68041 -0.58585,-1.07317 l -0.20351,-0.31154 -0.15364,0.16152 c -0.13364,0.14049 -0.16478,0.15555 -0.23923,0.11571 -0.0475,-0.0254 -0.14679,-0.0343 -0.22305,-0.02 -0.10855,0.0204 -0.15442,0.008 -0.21802,-0.0606 -0.10488,-0.11257 -0.17454,-0.35074 -0.17454,-0.5968 0,-0.17256 0.0175,-0.2127 0.14302,-0.32765 0.0787,-0.072 0.14292,-0.15609 0.14282,-0.18676 -1.1e-4,-0.0307 -0.11962,-0.20245 -0.26559,-0.38171 -0.19443,-0.23877 -0.26567,-0.35896 -0.2664,-0.44946 -0.002,-0.22776 -0.0839,-0.49005 -0.19838,-0.63427 -0.0625,-0.0787 -0.13431,-0.22629 -0.1597,-0.32808 -0.0519,-0.208 -0.16284,-0.48911 -0.19308,-0.48911 -0.011,0 -0.0567,0.0368 -0.1016,0.0817 -0.11163,0.11163 -0.22021,0.10253 -0.28799,-0.0241 -0.0311,-0.0582 -0.1262,-0.14133 -0.21121,-0.1847 -0.14758,-0.0753 -0.15455,-0.088 -0.15455,-0.28232 0,-0.1323 0.0179,-0.20558 0.0511,-0.20951 0.0281,-0.003 0.0872,-0.008 0.13135,-0.0102 0.0442,-0.003 0.10206,-0.0476 0.12869,-0.10079 0.0432,-0.0862 0.0137,-0.16346 -0.27236,-0.71504 -0.25765,-0.4967 -0.33927,-0.62107 -0.41471,-0.63186 -0.12286,-0.0176 -0.46861,-0.35631 -0.50282,-0.49259 -0.0359,-0.14318 -0.0959,-0.20902 -0.19043,-0.20902 -0.0433,0 -0.12565,-0.047 -0.18319,-0.10462 -0.0575,-0.0575 -0.10977,-0.0989 -0.11605,-0.0919 -0.006,0.007 -0.0684,0.10312 -0.13797,0.21366 -0.0927,0.14718 -0.11501,0.21487 -0.0834,0.25294 0.0237,0.0286 0.0694,0.0419 0.10144,0.0296 0.0389,-0.0149 0.0583,0.006 0.0583,0.0617 0,0.16221 0.089,0.49703 0.12602,0.47414 0.0206,-0.0127 0.0374,-0.0553 0.0374,-0.0946 0,-0.13133 0.10064,-0.22406 0.21266,-0.19595 0.0749,0.0188 0.12588,0.0814 0.18796,0.23075 0.0627,0.15087 0.10709,0.20496 0.16822,0.20496 0.13821,0 0.2054,0.16037 0.22524,0.53757 0.01,0.19168 0.0301,0.39539 0.0445,0.45268 0.0292,0.11616 -0.0638,0.33212 -0.16822,0.39051 -0.0572,0.032 -0.0491,0.0683 0.0667,0.29826 0.10331,0.20516 0.28678,0.50793 0.38965,0.64303 0.006,0.008 0.0603,-0.0193 0.12139,-0.0594 0.11013,-0.0722 0.11197,-0.0718 0.20394,0.0436 0.051,0.064 0.10343,0.16953 0.11641,0.23448 0.0148,0.0738 0.0697,0.14433 0.14667,0.1881 0.0677,0.0385 0.12316,0.10392 0.1233,0.14536 1.4e-4,0.0414 0.037,0.0849 0.082,0.0967 0.10038,0.0262 0.10477,0.0766 0.0112,0.12895 -0.0655,0.0367 -0.0659,0.0492 -0.005,0.17659 0.0766,0.16077 0.0572,0.53573 -0.0317,0.60947 -0.073,0.0606 -0.0724,0.22593 8.4e-4,0.2541 0.0315,0.0121 0.0788,0.0876 0.10532,0.16781 0.0374,0.11344 0.07,0.14587 0.14634,0.14587 0.12337,0 0.15688,0.11539 0.13227,0.45549 -0.0143,0.19788 -0.0368,0.26243 -0.11087,0.3183 -0.0929,0.0701 -0.0929,0.0701 -0.0454,0.61857 0.0872,1.00661 0.0782,0.95605 0.17652,0.99924 0.0573,0.0251 0.12739,0.13349 0.19275,0.29762 0.0565,0.14194 0.1441,0.28925 0.19462,0.32736 0.0794,0.06 0.0932,0.11186 0.10167,0.38444 0.008,0.23863 0.0247,0.31963 0.0711,0.33361 0.0337,0.0101 0.24516,0.0152 0.46989,0.0112 0.35933,-0.007 0.4361,-0.0212 0.63668,-0.12279 z m -0.56922,-0.58415 c -0.1495,-0.0896 -0.19354,-0.0993 -0.27772,-0.0609 -0.13161,0.0599 -0.15993,0.0578 -0.23629,-0.0186 -0.0426,-0.0426 -0.0642,-0.13885 -0.0642,-0.28598 0,-0.203 0.0137,-0.23585 0.16165,-0.38832 0.10707,-0.11033 0.17275,-0.22274 0.19455,-0.33298 0.044,-0.22257 0.13327,-0.27645 0.30717,-0.18544 0.0734,0.0384 0.22533,0.0749 0.3377,0.0811 0.18782,0.0104 0.2106,0.0231 0.28242,0.15718 0.0781,0.1459 0.0781,0.1459 -0.0541,0.55161 -0.19652,0.60299 -0.30979,0.68689 -0.65113,0.48233 z m -1.29062,-4.5056 c -0.0244,-0.0395 0.0672,-0.086 0.16915,-0.086 0.0514,0 0.0535,0.0113 0.0121,0.0613 -0.0568,0.0684 -0.14668,0.0806 -0.18122,0.0247 z m -16.8144,5.12291 c 0.26246,-0.0926 0.503,-0.29533 0.69498,-0.58573 0.17825,-0.26962 0.28365,-0.54789 0.28365,-0.74883 v -0.11692 l -0.17365,0.089 c -0.26521,0.13594 -0.70614,0.15327 -0.94595,0.0372 -0.31081,-0.15046 -0.57313,-0.56061 -0.61955,-0.96867 -0.0124,-0.10878 -0.0512,-0.35303 -0.0862,-0.54275 -0.0389,-0.21039 -0.0565,-0.46942 -0.0453,-0.66397 0.0101,-0.17545 0.0115,-0.31901 0.003,-0.31901 -0.0664,0 -0.34943,0.18274 -0.39631,0.25591 -0.20718,0.32331 -0.36897,1.21023 -0.33715,1.84836 0.0442,0.88611 0.30916,1.46203 0.77993,1.69507 0.20299,0.10048 0.58885,0.1098 0.84239,0.0203 z m 19.38155,-0.003 c 0.0339,-0.0883 0.0303,-0.14953 -0.013,-0.21779 -0.031,-0.049 -0.0463,-0.0479 -0.10159,0.008 -0.0501,0.0501 -0.0559,0.0893 -0.0251,0.17006 0.0453,0.11906 0.10311,0.13577 0.13973,0.0403 z m -13.70405,-0.40231 c 0.1236,-0.0368 0.25921,-0.093 0.30136,-0.12489 0.2513,-0.19021 0.092,-1.25086 -0.24939,-1.6605 -0.0503,-0.0604 -0.0798,-0.0543 -0.32943,0.068 -0.60998,0.29884 -1.27114,0.2979 -1.78379,-0.003 -0.15903,-0.0932 -0.20042,-0.10335 -0.22977,-0.0564 -0.0753,0.12052 -0.12692,0.5102 -0.11338,0.8566 0.0137,0.34861 0.0189,0.36575 0.15711,0.50962 0.22311,0.23226 0.61746,0.40171 1.12365,0.48281 0.23223,0.0372 0.89939,-0.006 1.12364,-0.0727 z m 14.39504,-0.29918 c 0.0342,-0.0842 0.0498,-0.16464 0.035,-0.17859 -0.0148,-0.014 -0.12169,-0.0358 -0.23739,-0.0487 -0.19167,-0.0213 -0.21252,-0.0153 -0.23439,0.0662 -0.0479,0.1787 -0.0276,0.22948 0.10767,0.26853 0.22791,0.0658 0.26366,0.0541 0.3291,-0.10751 z m -8.87078,-0.10051 0.21652,-0.0494 -0.30974,-0.0268 c -0.5382,-0.0466 -0.69226,-0.1334 -0.91907,-0.51768 -0.12711,-0.21538 -0.26213,-0.73106 -0.26387,-1.00775 -8.4e-4,-0.19637 -0.005,-0.20341 -0.0653,-0.12626 -0.091,0.11636 -0.0518,0.69546 0.0693,1.02149 0.1079,0.29061 0.29166,0.57214 0.41762,0.63981 0.21794,0.1171 0.52774,0.14126 0.8545,0.0667 z m 0.42808,-0.32174 c 0.42438,-0.0589 0.67346,-0.17077 0.84321,-0.37901 0.41049,-0.50355 0.711,-1.36649 0.8022,-2.30351 0.0365,-0.37548 8.4e-4,-0.66454 -0.0815,-0.66454 -0.0214,0 -0.039,-0.023 -0.0392,-0.0511 -4.1e-4,-0.13751 -0.0982,-0.37368 -0.20432,-0.49457 -0.0823,-0.0937 -0.11132,-0.16181 -0.0952,-0.2233 0.0145,-0.0557 -0.0315,-0.20362 -0.12409,-0.39851 -0.12855,-0.27068 -0.21925,-0.38092 -0.71475,-0.86858 -0.31213,-0.3072 -0.62841,-0.65048 -0.70284,-0.76284 -0.3067,-0.46301 -0.75772,-0.96021 -0.87101,-0.96021 -0.0116,0 -0.1384,0.082 -0.28164,0.18205 -0.26161,0.18289 -0.82163,0.47171 -0.91463,0.47171 -0.12072,0 -0.0868,0.11551 0.15957,0.54388 0.14462,0.25145 0.37407,0.68701 0.50986,0.96793 0.35662,0.7377 0.71968,1.17714 1.06026,1.28329 0.0833,0.026 0.0873,0.0457 0.0658,0.32958 -0.02,0.26385 -0.0113,0.32161 0.0688,0.45795 0.0504,0.0858 0.11731,0.17073 0.1487,0.1887 0.074,0.0424 0.0739,0.1512 -1.6e-4,0.1512 -0.0315,0 -0.0767,0.0558 -0.10052,0.12402 -0.0458,0.13124 -0.31422,0.53654 -0.58094,0.87704 -0.35386,0.45174 -0.43033,0.83217 -0.23446,1.16641 0.0587,0.10013 0.14543,0.21712 0.19278,0.25997 0.15424,0.13958 0.55523,0.17711 1.09414,0.10242 z m 0.17092,-3.43013 c 0.0974,-0.0812 0.25085,-0.10933 0.25085,-0.046 0,0.0438 -0.18647,0.12956 -0.27773,0.12777 -0.0568,-8.4e-4 -0.0519,-0.0161 0.0269,-0.0817 z m 0.53686,-0.16034 c 0,-0.0508 0.17063,-0.12432 0.28869,-0.12432 0.11832,0 0.0953,0.069 -0.0333,0.0997 -0.0618,0.0148 -0.14455,0.0363 -0.18387,0.0481 -0.0393,0.0116 -0.0715,8.4e-4 -0.0715,-0.0234 z m 0.49032,-0.11995 c 0,-0.0471 0.0875,-0.0792 0.15322,-0.0562 0.0891,0.031 0.0552,0.0927 -0.0511,0.0927 -0.0562,0 -0.10215,-0.0164 -0.10215,-0.0365 z m 7.24767,3.4358 c 0.0192,-0.031 -0.0331,-0.32556 -0.063,-0.35485 -0.008,-0.008 -0.10978,0.016 -0.2271,0.052 -0.19756,0.0607 -0.2114,0.0733 -0.18778,0.16999 0.014,0.0574 0.0456,0.11793 0.0702,0.13444 0.0607,0.0407 0.38224,0.0394 0.4076,-0.002 z m -19.37045,-0.0863 c 0.29711,-0.12735 0.266,-0.15627 -0.18664,-0.1735 -0.48718,-0.0186 -0.71891,-0.10723 -0.97814,-0.37435 -0.1405,-0.14477 -0.1535,-0.1508 -0.11673,-0.0541 0.11323,0.29786 0.27572,0.49298 0.51307,0.61618 0.17045,0.0885 0.54506,0.0815 0.76844,-0.0142 z m 0.65504,-0.47501 c 0.10873,-0.0383 0.26709,-0.13636 0.3519,-0.21784 0.13083,-0.12568 0.16491,-0.19667 0.22465,-0.4681 0.0387,-0.17597 0.0642,-0.32494 0.0567,-0.33104 -0.008,-0.006 -0.11982,-0.0589 -0.24949,-0.11739 -0.4441,-0.20029 -0.82009,-0.70609 -0.93613,-1.25934 -0.0257,-0.12243 -0.0347,-0.27045 -0.02,-0.32892 0.0493,-0.1965 0.38334,-0.58241 0.94358,-1.09014 0.56955,-0.51618 0.84133,-0.8444 1.0227,-1.23505 l 0.10275,-0.22133 -0.34698,-0.0214 c -0.33243,-0.0206 -0.35321,-0.0277 -0.49527,-0.16974 -0.12035,-0.12036 -0.15193,-0.18626 -0.16765,-0.34993 -0.0239,-0.24971 0.0837,-0.69218 0.31656,-1.2999 0.0942,-0.24591 0.17909,-0.47469 0.18863,-0.5084 0.01,-0.0337 -0.0566,-0.14023 -0.14689,-0.23671 -0.15744,-0.16818 -0.20171,-0.25361 -0.1314,-0.25361 0.0181,0 0.0952,0.0643 0.17146,0.14302 0.0762,0.0787 0.15092,0.143 0.16597,0.143 0.0349,0 0.17624,-0.39164 0.26535,-0.73548 l 0.0688,-0.26558 -0.17516,-0.26048 c -0.3433,-0.51056 -0.45545,-1.32863 -0.28671,-2.09156 0.16105,-0.72815 0.42573,-1.24435 0.87333,-1.70329 0.2217,-0.2273 0.19948,-0.26267 -0.0841,-0.13395 -0.38131,0.17308 -0.79313,0.52583 -1.09967,0.94192 -0.36865,0.50042 -0.58443,1.23505 -0.58539,1.99308 -4.2e-4,0.52009 0.0815,0.90308 0.28979,1.35187 0.0875,0.18851 0.15913,0.36342 0.15913,0.38869 0,0.0253 -0.0414,0.0641 -0.0919,0.0863 -0.14527,0.0637 -0.24731,0.41887 -0.24639,0.85754 8.3e-4,0.39828 0.0367,2.19686 0.0464,2.32696 0.005,0.0638 0.0161,0.0695 0.057,0.0284 0.0393,-0.0394 0.0483,-0.35991 0.0392,-1.38718 -0.0121,-1.36775 0.009,-1.62082 0.14644,-1.73359 0.0555,-0.0456 0.0595,-0.0346 0.0333,0.0912 -0.0895,0.42935 -0.1081,0.67383 -0.0853,1.12015 0.0326,0.64002 0.0309,1.65615 -0.003,1.85213 -0.0147,0.0844 -0.0721,0.24844 -0.12756,0.36449 -0.0971,0.20324 -0.10623,0.36068 -0.0321,0.55376 0.0162,0.0422 -0.0207,0.0911 -0.11108,0.14729 -0.20672,0.12865 -0.48394,0.43662 -0.78004,0.86659 -0.1475,0.21417 -0.36189,0.48997 -0.47645,0.61289 -0.55878,0.5996 -0.86079,1.09626 -0.86001,1.41435 8.4e-4,0.58001 0.33619,1.0805 0.80101,1.19752 0.23418,0.0589 0.98029,0.0214 1.21446,-0.0611 z m 0.52757,-4.2285 c -0.0776,-0.0312 -0.13211,-0.12131 -0.0734,-0.12131 0.0521,0 0.22665,0.0994 0.22665,0.12914 0,0.0419 -0.0337,0.0402 -0.15322,-0.008 z m 3.27078,4.00802 c 0.32946,-0.12736 0.45737,-0.24356 0.42223,-0.38358 l -0.0274,-0.10907 -0.21437,0.12097 c -0.44264,0.24982 -1.15364,0.25961 -1.62185,0.0223 -0.11139,-0.0564 -0.21233,-0.10262 -0.22432,-0.10262 -0.012,0 -0.0217,0.0539 -0.0217,0.11979 0,0.14779 0.15383,0.26735 0.48417,0.37632 0.31595,0.10421 0.87229,0.0838 1.2033,-0.0442 z m 14.50317,0.0771 c 0.0842,-0.0234 0.15323,-0.0498 0.15323,-0.0587 0,-0.009 -0.0374,-0.0797 -0.0832,-0.15728 l -0.0832,-0.14111 -0.17212,0.0877 c -0.0947,0.0482 -0.1797,0.0922 -0.18897,0.0977 -0.009,0.006 0.004,0.0561 0.0298,0.11236 0.0512,0.11236 0.11441,0.12324 0.3446,0.0593 z m -9.05661,-0.77418 c 0.14433,-0.19102 0.30095,-0.42612 0.34805,-0.52242 0.0927,-0.18942 0.12366,-0.43779 0.0546,-0.43779 -0.0799,0 -0.68065,0.6937 -0.77845,0.89892 -0.0761,0.1596 -0.0972,0.27133 -0.0967,0.51074 l 4.1e-4,0.30645 0.1047,-0.2043 c 0.0576,-0.11237 0.22278,-0.36059 0.36711,-0.5516 z m 5.94223,-0.35823 c -0.12716,-0.87716 -0.26049,-1.40345 -0.40662,-1.60519 -0.0721,-0.0995 -0.13278,-0.24579 -0.14885,-0.35875 -0.0174,-0.12291 -0.0666,-0.23429 -0.13814,-0.31328 -0.061,-0.0675 -0.14781,-0.1717 -0.19276,-0.23174 -0.0817,-0.10916 -0.0817,-0.10916 -0.134,0.15391 l -0.0523,0.26306 0.17224,0.18686 c 0.28588,0.31013 0.49054,0.86201 0.57061,1.53866 0.0365,0.30832 0.0788,0.44567 0.27321,0.88813 0.15579,0.35446 0.16771,0.24466 0.0566,-0.52166 z m -11.40013,0.53427 c 0.36005,-0.17737 0.5337,-0.36244 0.56014,-0.59694 0.0114,-0.10051 -0.0176,-0.41925 -0.0643,-0.70833 -0.0466,-0.28908 -0.10269,-0.81359 -0.12448,-1.16559 -0.0387,-0.62552 -0.0584,-0.71008 -0.21956,-0.94571 -0.0418,-0.0611 -0.0382,-0.0831 0.021,-0.12708 0.0851,-0.0633 0.10286,-0.36141 0.0204,-0.34248 -0.0865,0.0198 -0.0868,-0.0222 -8.4e-4,-0.19202 0.0982,-0.19547 0.13591,-0.49317 0.0995,-0.78678 l -0.0266,-0.21475 -0.49033,-0.22835 c -0.66481,-0.30963 -0.61778,-0.30452 -0.65156,-0.0708 -0.0157,0.10862 -0.0558,0.29303 -0.0891,0.40979 -0.0333,0.11677 -0.0667,0.31463 -0.0741,0.43971 -0.008,0.12508 -0.0332,0.2511 -0.0573,0.28005 -0.0864,0.10412 -0.10081,0.38588 -0.0307,0.6003 0.0626,0.19146 0.0626,0.22064 8.2e-4,0.39945 -0.0467,0.13495 -0.0767,0.43222 -0.0999,0.98966 -0.0182,0.43822 -0.055,0.90708 -0.0817,1.04192 -0.0755,0.38054 -0.037,0.90242 0.0821,1.11439 0.11922,0.21212 0.23286,0.2542 0.65493,0.2425 0.25241,-0.007 0.35464,-0.0318 0.57203,-0.13892 z m -0.73635,-3.70019 c 10e-6,-0.0312 0.0517,-0.0495 0.1328,-0.0471 0.19919,0.006 0.22023,0.0139 0.15321,0.0573 -0.0885,0.0572 -0.28603,0.0502 -0.28601,-0.0102 z m 0.44944,-0.0715 c 0,-0.0225 0.0654,-0.0408 0.14543,-0.0408 0.0865,0 0.13519,0.0165 0.12017,0.0408 -0.0139,0.0225 -0.0793,0.0408 -0.14543,0.0408 -0.0661,0 -0.12017,-0.0184 -0.12017,-0.0408 z m 4.45248,3.49765 c 0.11465,-0.0341 0.32212,-0.0842 0.46107,-0.1116 0.14715,-0.0289 0.28854,-0.0851 0.33862,-0.13456 0.0473,-0.0467 0.21136,-0.19443 0.3646,-0.32835 0.3488,-0.30482 0.41765,-0.41439 0.39693,-0.63166 -0.0135,-0.14129 -0.0328,-0.17144 -0.124,-0.19336 -0.1909,-0.0459 -0.48954,-0.21462 -0.63203,-0.35712 -0.0782,-0.0782 -0.26553,-0.3942 -0.42996,-0.72527 -0.16026,-0.32268 -0.38322,-0.71541 -0.49547,-0.87272 -0.22878,-0.32065 -0.35178,-0.60768 -0.39276,-0.91648 l -0.0276,-0.20835 -0.27046,0.0244 c -0.3501,0.0315 -0.38285,0.0435 -0.35572,0.12984 0.0124,0.0395 0.0409,0.34752 0.0634,0.68461 0.031,0.46426 0.0758,0.75125 0.18459,1.18341 0.1526,0.60597 0.19008,1.12599 0.0978,1.35744 -0.0252,0.0632 -0.0426,0.20524 -0.0385,0.31551 0.006,0.16835 0.0295,0.22268 0.14575,0.33892 0.13146,0.13148 0.28325,0.45837 0.33655,0.72481 0.0245,0.12227 0.0245,0.12227 0.0966,-0.0476 0.0637,-0.14991 0.0967,-0.17718 0.28059,-0.2318 z m 0.54707,0.25663 c 0.0576,-0.0262 0.10903,-0.0915 0.1209,-0.15322 0.0113,-0.0592 0.0177,-0.11053 0.014,-0.11417 -0.0181,-0.0181 -0.55819,0.12102 -0.558,0.1437 10e-5,0.0145 0.0691,0.0567 0.15322,0.0939 0.0842,0.0372 0.15674,0.0693 0.1613,0.0715 0.004,0.002 0.0534,-0.0166 0.10852,-0.0417 z m 9.45456,-0.067 c 0.10812,-0.0707 0.1144,-0.1339 0.0296,-0.29789 -0.0739,-0.14286 -0.0746,-0.14301 -0.19273,-0.0405 -0.0508,0.044 -0.12658,0.10514 -0.16854,0.13576 -0.0724,0.0528 -0.0728,0.0624 -0.008,0.18759 0.0732,0.14155 0.14159,0.14457 0.33977,0.015 z m -15.5479,-0.10178 c -0.081,-0.22421 -0.0782,-0.74272 0.007,-1.28681 0.036,-0.2302 0.0659,-0.67148 0.0665,-0.98063 8.2e-4,-0.52525 0.0238,-0.72965 0.10411,-0.92983 0.075,-0.18678 -0.0983,0.0279 -0.1848,0.22909 -0.0711,0.1652 -0.0955,0.33315 -0.12312,0.84656 -0.019,0.35225 -0.0624,0.75078 -0.0966,0.88562 -0.10168,0.40137 -0.1621,0.86262 -0.13318,1.01674 0.0182,0.097 0.0765,0.18507 0.17786,0.26862 0.21283,0.17544 0.25914,0.16291 0.18245,-0.0493 z m -1.29807,-0.3005 c 0.12991,-0.1299 0.42079,-0.82079 0.64332,-1.52797 0.13424,-0.42663 0.19454,-0.91053 0.11925,-0.95705 -0.031,-0.0192 -0.046,0.0237 -0.046,0.13246 0,0.21561 -0.08,0.39452 -0.40498,0.90516 -0.15056,0.2366 -0.33573,0.53131 -0.41149,0.6549 -0.0758,0.12361 -0.22854,0.33142 -0.3395,0.46181 -0.11095,0.1304 -0.192,0.24683 -0.18009,0.25873 0.0277,0.0278 0.39512,0.12906 0.4853,0.13387 0.0377,0.002 0.0981,-0.0259 0.13414,-0.0619 z m -0.53936,-0.39126 c 0.1093,-0.1164 0.27206,-0.33245 0.36172,-0.4801 0.0897,-0.14764 0.23165,-0.37876 0.31555,-0.5136 0.33355,-0.536 0.42331,-0.72237 0.45288,-0.94022 0.0249,-0.18305 0.0206,-0.21472 -0.0241,-0.17766 -0.0299,0.0248 -0.0543,0.0972 -0.0543,0.16088 0,0.25125 -0.88208,1.5209 -1.15995,1.6696 -0.10053,0.0538 -0.11608,0.0497 -0.23364,-0.0619 -0.15819,-0.15014 -0.36338,-0.5489 -0.36338,-0.70618 0,-0.16114 0.2468,-0.51498 0.67359,-0.9657 0.19135,-0.20208 0.3479,-0.39254 0.3479,-0.42324 0,-0.0631 -0.62721,0.49731 -0.94133,0.84101 -0.407,0.44531 -0.44557,0.66665 -0.20427,1.17223 0.13856,0.29033 0.43983,0.63653 0.55391,0.63653 0.0423,0 0.1662,-0.0953 0.27549,-0.21166 z m 16.99438,0.0572 c 0.0514,-0.0514 0.007,-0.27294 -0.0671,-0.33447 -0.0414,-0.0343 -0.102,-0.0137 -0.25274,0.086 -0.10908,0.0721 -0.20606,0.13723 -0.21551,0.14465 -0.009,0.008 0.0235,0.0568 0.0732,0.10968 0.078,0.083 0.11303,0.0921 0.25542,0.066 0.0908,-0.0166 0.18381,-0.049 0.20675,-0.0719 z m -19.40823,-0.30968 c 0.0604,-0.093 0.26607,-0.34681 0.45718,-0.56395 0.19111,-0.21714 0.47861,-0.58883 0.6389,-0.82597 0.26285,-0.38885 0.68247,-0.84263 0.77922,-0.84263 0.0605,0 0.0431,-0.16388 -0.0201,-0.18811 -0.15708,-0.0603 -0.45177,0.21989 -0.878,0.83471 -0.13515,0.19495 -0.41468,0.52913 -0.62116,0.74262 -0.40492,0.41865 -0.50402,0.59053 -0.5419,0.93978 -0.0202,0.18641 -0.0159,0.21177 0.0259,0.14871 0.0276,-0.0418 0.0996,-0.15213 0.15994,-0.24516 z m 6.80188,-0.15893 c -0.0825,-0.2011 -0.0874,-0.27296 -0.0779,-1.14962 0.008,-0.69486 -0.007,-1.04653 -0.0555,-1.3688 -0.065,-0.42965 -0.0828,-0.98916 -0.0369,-1.16149 0.0132,-0.0497 -0.0126,-0.0259 -0.058,0.0536 -0.079,0.13819 -0.081,0.19468 -0.0586,1.67525 0.0127,0.84272 0.0411,1.60578 0.063,1.69567 0.0427,0.17503 0.21558,0.46988 0.27557,0.46988 0.02,0 -0.003,-0.0965 -0.0517,-0.21451 z m -4.45646,-0.0754 c 0.0761,-0.0841 0.0761,-0.0868 -0.005,-0.15322 -0.12325,-0.10085 -0.22316,-0.25898 -0.22275,-0.3525 3.1e-4,-0.0761 0.24952,-0.47009 0.62304,-0.98499 0.10503,-0.14477 0.1376,-0.22049 0.1077,-0.25037 -0.0679,-0.0679 -0.88232,0.83161 -0.99315,1.09687 -0.053,0.12698 -0.0517,0.15785 0.0134,0.30282 0.0873,0.1942 0.27701,0.427 0.34805,0.427 0.0282,0 0.0862,-0.0385 0.12881,-0.0856 z m 14.07777,-0.24673 c -0.0894,-0.25995 -0.21346,-0.50381 -0.32972,-0.64829 -0.12706,-0.15789 -0.10143,-0.014 0.0358,0.20073 0.0659,0.10309 0.1696,0.30282 0.23052,0.44384 0.13376,0.30966 0.16945,0.31174 0.0635,0.003 z m 1.78885,-0.16818 c -0.13643,-0.27164 -0.28515,-0.45262 -0.33278,-0.40499 -0.0277,0.0277 -0.01,0.0858 0.0548,0.17711 0.10283,0.1456 0.3262,0.40153 0.35046,0.40153 0.008,0 -0.0245,-0.0782 -0.0725,-0.17365 z m -15.37223,-0.20526 c 0.13903,-0.18494 0.30309,-0.42648 0.36459,-0.53673 l 0.11181,-0.20047 -0.11942,-0.0956 c -0.0657,-0.0525 -0.14185,-0.0957 -0.16926,-0.0958 -0.0834,-3.1e-4 -0.66521,0.91272 -0.66521,1.04391 0,0.0503 0.15233,0.22295 0.19568,0.2217 0.016,-4.2e-4 0.14279,-0.15215 0.28181,-0.33709 z m 8.5525,0.0607 c 0,-0.0176 -0.0574,-0.0659 -0.12766,-0.10746 -0.32595,-0.19254 -0.59719,-0.5688 -1.01572,-1.4089 -0.15564,-0.31243 -0.37116,-0.70535 -0.47893,-0.87313 -0.10777,-0.16779 -0.21785,-0.33972 -0.24462,-0.38207 -0.044,-0.0696 -0.0487,-0.0653 -0.0498,0.0456 -0.002,0.19791 0.12423,0.50079 0.40781,0.98063 0.1461,0.2472 0.30121,0.53219 0.34471,0.63332 0.14188,0.32991 0.43226,0.77492 0.5784,0.88638 0.0787,0.06 0.23804,0.14193 0.35418,0.18206 0.25132,0.0868 0.23157,0.0831 0.23157,0.0436 z m 4.51395,-1.23967 c -0.0212,-0.20778 -0.11542,-0.52611 -0.15562,-0.52611 -0.0321,0 0.0282,0.72106 0.064,0.76567 0.0792,0.0986 0.11629,8.5e-4 0.0916,-0.23956 z m -12.56331,0.13647 c 0,-0.0401 0.10112,-0.17277 0.22472,-0.29484 0.23249,-0.2296 0.32235,-0.20399 0.12155,0.0347 -0.10291,0.12229 -0.10295,0.12271 -0.0163,0.1502 0.1099,0.0349 0.12854,0.0121 0.23465,-0.28699 0.16564,-0.46687 0.32939,-1.23028 0.47764,-2.22685 0.0819,-0.55059 0.20069,-1.30445 0.26397,-1.67525 0.0632,-0.3708 0.11069,-0.679 0.10535,-0.6849 -0.005,-0.006 -0.0936,0.0264 -0.19608,0.0718 -0.28445,0.12583 -0.62253,0.14743 -0.91185,0.0583 -0.13329,-0.0411 -0.25905,-0.0756 -0.27948,-0.0766 -0.0204,-8.4e-4 -0.069,0.10846 -0.10789,0.2433 -0.039,0.13483 -0.1476,0.44741 -0.24152,0.69461 -0.54257,1.42819 -0.63451,1.7978 -0.5171,2.07883 0.0446,0.10675 0.10642,0.16907 0.211,0.21278 0.14086,0.0589 0.2136,0.058 0.63908,-0.008 0.0604,-0.009 0.11976,-8.3e-4 0.13187,0.0188 0.0519,0.0839 -0.0993,0.46374 -0.31494,0.79112 -0.38217,0.58033 -0.38475,0.61595 -0.0615,0.85007 0.19374,0.14036 0.2369,0.14917 0.2369,0.0484 z m -0.0161,-2.40264 c -0.0137,-0.0357 0.003,-0.1871 0.0381,-0.33654 0.0504,-0.21743 0.0525,-0.27521 0.0107,-0.28916 -0.0288,-0.01 -0.10308,-0.0682 -0.1651,-0.13021 -0.0923,-0.0923 -0.11259,-0.14846 -0.11185,-0.30998 8.4e-4,-0.25487 0.12899,-0.54454 0.24031,-0.54454 0.0716,0 0.0833,0.0312 0.0939,0.25213 0.0187,0.38745 0.0977,0.34292 0.12692,-0.0715 0.0281,-0.39785 0.0975,-0.54832 0.25298,-0.54832 0.172,0 0.23564,0.15453 0.21857,0.53064 -0.008,0.18008 -0.0119,0.32741 -0.008,0.32741 0.003,0 0.0459,-0.12959 0.094,-0.28798 0.0939,-0.30918 0.17958,-0.38954 0.27726,-0.26005 0.0429,0.0569 0.0525,0.14222 0.0355,0.31411 -0.0388,0.39023 -0.19343,0.62936 -0.43154,0.66744 -0.13911,0.0223 -0.15374,0.0395 -0.2414,0.28387 -0.0514,0.14311 -0.13001,0.30685 -0.17486,0.36387 -0.092,0.11695 -0.21787,0.13612 -0.25519,0.0389 z m 0.33196,-0.37439 c 0.068,-0.15171 0.13405,-0.30682 0.14676,-0.34467 0.0153,-0.0457 0.0651,-0.0676 0.14812,-0.0653 0.0687,0.002 0.16215,-0.0301 0.20756,-0.0712 0.0965,-0.0873 0.21449,-0.46018 0.19577,-0.61851 -0.0203,-0.17142 -0.10665,-0.16259 -0.13867,0.0142 -0.0449,0.24739 -0.16916,0.45946 -0.2707,0.46167 -0.0158,3.1e-4 -0.0185,-0.15106 -0.006,-0.33646 0.0237,-0.35367 -0.0218,-0.56182 -0.12274,-0.56182 -0.11029,0 -0.15413,0.11937 -0.17775,0.48407 -0.027,0.41656 -0.0492,0.47536 -0.16606,0.43829 -0.0953,-0.0303 -0.13022,-0.13306 -0.13284,-0.39119 -0.002,-0.16712 -0.007,-0.17693 -0.0595,-0.10779 -0.0825,0.10886 -0.12245,0.48583 -0.0632,0.59639 0.0265,0.0494 0.10385,0.10932 0.17198,0.13308 0.11497,0.0401 0.12199,0.0538 0.0979,0.19084 -0.0143,0.0812 -0.0377,0.23962 -0.052,0.35199 -0.0229,0.17945 -0.0185,0.19808 0.0359,0.15325 0.0341,-0.0281 0.11759,-0.17518 0.1856,-0.32688 z m 13.73876,2.0831 c -0.0793,-0.2528 -1.35504,-2.79678 -1.48512,-2.9616 -0.0665,-0.0842 -0.12851,-0.14561 -0.1378,-0.13633 -0.0173,0.0173 0.46168,1.01545 1.21782,2.53779 0.38283,0.77076 0.53895,0.98662 0.4051,0.56014 z m -12.90999,-0.86515 c 3.1e-4,-0.10245 0.0371,-0.30283 0.0817,-0.44528 0.0839,-0.26757 0.10979,-0.66034 0.0436,-0.66034 -0.0407,0 -0.0506,0.04 -0.14654,0.59246 -0.0352,0.20226 -0.0832,0.45421 -0.10689,0.55989 -0.0499,0.22268 -0.0131,0.33187 0.0725,0.21483 0.0303,-0.0414 0.0553,-0.15911 0.0556,-0.26156 z m 5.5671,-0.6772 c 0.29109,-0.14253 0.80324,-0.55916 1.0038,-0.81658 0.48896,-0.62761 0.85098,-1.80494 0.797,-2.59197 -0.0152,-0.22094 -0.0498,-0.31249 -0.0832,-0.21945 -0.01,0.0268 -0.14318,0.23911 -0.29683,0.47175 -0.32149,0.48677 -0.81351,1.00291 -1.12207,1.17704 l -0.2129,0.12016 -0.0501,0.37823 c -0.0858,0.64825 -0.22672,1.06819 -0.51285,1.52848 l -0.10545,0.16963 0.18011,-0.0542 c 0.0991,-0.0298 0.28017,-0.10319 0.40247,-0.16308 z m 4.8065,-1.17459 c 0.081,-0.14887 0.26461,-0.37791 0.44129,-0.55065 0.29633,-0.28971 0.30172,-0.29863 0.26379,-0.43601 -0.0434,-0.1569 -0.23341,-0.44816 -0.37985,-0.58203 -0.053,-0.0484 -0.19343,-0.14482 -0.31216,-0.21426 -0.17687,-0.10344 -0.22013,-0.11522 -0.23932,-0.0652 -0.0376,0.098 -0.0746,0.0735 -0.21417,-0.14195 -0.0724,-0.11164 -0.18675,-0.24231 -0.25424,-0.29036 -0.1175,-0.0836 -0.12607,-0.0843 -0.20222,-0.0154 -0.10797,0.0977 -0.10311,0.11839 0.0793,0.33798 0.0874,0.10516 0.18803,0.24914 0.22368,0.31995 0.0645,0.12809 0.0641,0.12927 -0.0771,0.23702 -0.22,0.1678 -0.61097,0.34792 -0.81628,0.37606 -0.10228,0.014 -0.19575,0.0413 -0.20769,0.0606 -0.012,0.0193 -0.0453,0.0352 -0.0741,0.0352 -0.0759,0 -0.14706,-0.27618 -0.14706,-0.57039 0,-0.22953 -0.009,-0.25682 -0.0919,-0.2785 -0.0506,-0.0132 -0.0997,-0.0207 -0.10912,-0.0167 -0.0192,0.008 -0.0468,0.38571 -0.0475,0.65106 -4.1e-4,0.17781 -0.0464,0.22354 -0.11012,0.10966 -0.0323,-0.0576 -0.0508,-0.0568 -0.18589,0.008 -0.0826,0.0394 -0.15009,0.0847 -0.15009,0.10082 0,0.0603 0.49043,0.51978 0.71116,0.66629 0.47764,0.31704 1.03739,0.50876 1.49527,0.51217 l 0.26558,0.002 z m 0.43879,-0.82422 c -0.0823,-0.12555 -0.0831,-0.14571 -0.007,-0.14571 0.0333,0 0.0723,0.0468 0.0866,0.10405 0.0362,0.1442 -4.1e-4,0.1633 -0.0803,0.0417 z m -0.30793,-0.36614 c -0.0506,-0.0538 -0.0743,-0.10871 -0.0528,-0.12202 0.0439,-0.0272 0.25303,0.12321 0.25303,0.18197 0,0.0707 -0.1079,0.0384 -0.20024,-0.06 z m -0.34512,-0.30385 c -0.0373,-0.0412 -0.0554,-0.0872 -0.0403,-0.10224 0.0303,-0.0303 0.17705,0.0878 0.17705,0.14253 0,0.0579 -0.0653,0.0387 -0.13676,-0.0403 z m -4.10089,0.34881 c 0.20034,-0.16549 0.58148,-0.6149 0.77024,-0.90823 0.14998,-0.23304 0.28953,-0.51428 0.26658,-0.53723 -0.0107,-0.0107 -0.0718,0.007 -0.13564,0.0393 -0.0639,0.0323 -0.26817,0.1099 -0.45397,0.1724 -0.28916,0.0973 -0.34127,0.12896 -0.36189,0.22006 -0.10376,0.45846 -0.19637,0.77716 -0.28229,0.97144 -0.0554,0.12536 -0.10079,0.23591 -0.10079,0.24567 0,0.0294 0.0917,-0.0331 0.29776,-0.20339 z m 1.86432,-0.007 c 0.1175,-0.0608 0.24876,-0.2808 0.24848,-0.41657 -3e-4,-0.13225 -0.16026,-0.34404 -0.30587,-0.40488 -0.16447,-0.0687 -0.26601,-0.0755 -0.26601,-0.018 0,0.0225 0.0603,0.0409 0.13392,0.0409 0.18218,0 0.30404,0.0952 0.35969,0.28086 0.0384,0.12827 0.035,0.17771 -0.0199,0.28385 -0.0892,0.17244 -0.27824,0.26695 -0.46843,0.23416 -0.10756,-0.0186 -0.13143,-0.0141 -0.087,0.0162 0.0881,0.0599 0.27172,0.0525 0.40512,-0.0165 z m 1.11852,-0.0422 c 0.23885,-0.0622 0.49675,-0.2017 0.59761,-0.32324 0.0702,-0.0845 0.0164,-0.20152 -0.17982,-0.39175 l -0.13155,-0.12751 -0.14957,0.0883 c -0.0823,0.0486 -0.25504,0.11978 -0.38397,0.15833 l -0.23441,0.0701 8.4e-4,0.2218 c 0.002,0.39151 0.0437,0.41782 0.48053,0.30403 z m -1.25703,-0.14032 c -0.0318,-0.10004 0.13909,-0.27751 0.18999,-0.19735 0.0207,0.0325 0.0327,0.0101 0.0331,-0.0612 4.2e-4,-0.11736 -0.0357,-0.14141 -0.10658,-0.0705 -0.023,0.023 -0.10943,0.0444 -0.19204,0.0475 -0.0865,0.003 -0.1502,0.0265 -0.1502,0.0547 0,0.0281 0.0437,0.0443 0.10214,0.0379 0.11147,-0.0122 0.1257,0.0247 0.0582,0.15088 -0.0259,0.0484 -0.0688,0.0727 -0.10427,0.0591 -0.0339,-0.013 -0.0493,-0.005 -0.0353,0.0173 0.0138,0.0222 0.0711,0.0404 0.12746,0.0404 0.0825,0 0.0976,-0.0154 0.0776,-0.0785 z m -2.52538,-0.25351 c -0.0105,-0.18867 -0.0332,-0.26439 -0.0923,-0.30754 -0.0687,-0.0503 -0.0818,-0.0484 -0.10697,0.0154 -0.0158,0.0399 -0.03,0.15839 -0.0315,0.26327 -0.003,0.19064 0.0181,0.21544 0.23334,0.27598 0.006,0.002 0.005,-0.10941 -0.003,-0.24707 z m -5.20936,-0.12563 c 0.39465,-0.21035 0.72727,-0.64638 1.25612,-1.64663 0.34189,-0.64666 0.57305,-1.02252 0.76096,-1.23733 0.15983,-0.18271 0.17237,-0.21321 0.15152,-0.36865 -0.0207,-0.15475 -0.0134,-0.17298 0.0847,-0.21027 0.0857,-0.0326 0.10746,-0.0679 0.10766,-0.17464 1.3e-4,-0.0736 0.0277,-0.18648 0.0613,-0.25085 0.0336,-0.0643 0.0611,-0.1367 0.0611,-0.16075 0,-0.024 0.0364,-0.11892 0.0809,-0.21082 0.0445,-0.0919 0.0936,-0.23059 0.1091,-0.30818 0.0283,-0.14107 0.0283,-0.14107 -0.0911,-0.0651 -0.40155,0.25561 -0.39847,0.25061 -0.37144,0.60109 0.0136,0.17545 0.009,0.32894 -0.0111,0.34108 -0.0196,0.0122 -0.0583,-0.10391 -0.0858,-0.25791 -0.0675,-0.37785 -0.0293,-0.47753 0.26022,-0.67802 0.16183,-0.11209 0.21952,-0.17404 0.18977,-0.20379 -0.0533,-0.0533 -0.38595,0.1146 -0.66155,0.33393 -0.22609,0.17994 -0.28802,0.34335 -0.24396,0.6438 0.0299,0.2043 0.0299,0.2043 0.19766,0.2043 0.18759,0 0.24054,0.0692 0.0704,0.092 -0.30354,0.0406 -0.57185,0.3074 -0.82943,0.82461 -0.10709,0.21501 -0.24408,0.53179 -0.30443,0.70395 -0.2647,0.75507 -0.49514,1.19345 -0.78166,1.48699 -0.33082,0.33893 -0.6532,0.38658 -0.93594,0.13833 -0.18823,-0.16527 -0.29569,-0.41292 -0.34941,-0.80517 -0.0772,-0.56422 0.0379,-1.20714 0.3091,-1.72624 0.48668,-0.93147 1.45635,-1.55207 2.42505,-1.55207 0.13602,0 0.24731,-0.0159 0.24731,-0.0353 0,-0.0194 0.0751,-0.0874 0.16697,-0.151 0.15977,-0.11073 0.16302,-0.11718 0.0753,-0.14963 -0.13606,-0.0503 -0.86262,-0.0438 -1.0663,0.01 -1.26658,0.3322 -2.05723,1.08426 -2.42853,2.30998 -0.14058,0.4641 -0.15886,1.12987 -0.0444,1.61907 0.08,0.34209 0.31412,0.75453 0.49593,0.87365 0.33152,0.21723 0.69903,0.22056 1.09419,0.01 z m 4.62088,-0.14503 c 0.013,-0.0842 0.0346,-0.19 0.048,-0.23494 0.0166,-0.0557 -0.002,-0.0979 -0.0579,-0.13239 -0.0704,-0.0433 -0.0886,-0.0387 -0.1264,0.0318 -0.0243,0.0454 -0.055,0.17388 -0.0682,0.2856 -0.0232,0.19599 -0.0205,0.20313 0.0784,0.20313 0.087,0 0.10605,-0.0232 0.12615,-0.15323 z m 3.20455,0.0824 c 0.009,-0.0276 -0.0176,-0.0368 -0.0685,-0.0234 -0.046,0.0121 -0.0729,0.0391 -0.0599,0.0602 0.0292,0.0472 0.10788,0.0247 0.12836,-0.0368 z m 1.1483,-0.22436 c 0.10422,-0.0536 0.21591,-0.14457 0.24819,-0.20207 0.053,-0.0945 0.0507,-0.11469 -0.0245,-0.21031 -0.20691,-0.26305 -0.21809,-0.6239 -0.0445,-1.43755 0.0575,-0.26968 0.11652,-0.59144 0.1311,-0.71505 l 0.0265,-0.22473 -0.0938,0.12065 c -0.0516,0.0664 -0.13331,0.21667 -0.18164,0.33403 -0.16669,0.40482 -0.52171,0.83813 -1.01306,1.23651 -0.34153,0.27689 -0.43286,0.33137 -0.55558,0.33137 -0.0609,0 -0.0816,0.0186 -0.0659,0.0594 0.0126,0.0327 0.0458,0.17062 0.0739,0.30645 0.044,0.21315 0.0635,0.24696 0.14232,0.24696 0.12665,0 0.30581,0.0727 0.40308,0.16344 0.15672,0.14629 0.66132,0.14143 0.95398,-0.009 z m -3.27789,-0.21178 c 0.16944,-0.17494 0.23163,-0.27797 0.29854,-0.49462 0.0936,-0.30307 0.1079,-0.62633 0.0397,-0.89729 -0.0603,-0.23938 -0.16819,-0.34839 -0.34491,-0.34839 -0.19053,0 -0.18083,0.0735 0.0118,0.0895 0.12601,0.0104 0.15568,0.03 0.16703,0.11033 0.0132,0.0933 0.005,0.0967 -0.17412,0.0765 -0.16695,-0.0188 -0.19019,-0.0115 -0.2082,0.0658 -0.0111,0.0478 0.005,0.16971 0.0355,0.27083 0.0457,0.15048 0.0765,0.18758 0.16959,0.2043 0.14839,0.0267 0.21872,0.13342 0.14578,0.2213 -0.0711,0.0856 -0.13378,0.0816 -0.25841,-0.0164 -0.12481,-0.0982 -0.1844,-0.0498 -0.22164,0.17964 -0.0194,0.11944 -0.0111,0.14666 0.0447,0.14666 0.0377,0 0.11524,0.0467 0.17237,0.10386 0.0841,0.0841 0.0944,0.11523 0.0544,0.16344 -0.0761,0.0917 -0.18771,0.071 -0.27672,-0.0512 -0.0727,-0.0998 -0.0912,-0.10595 -0.18727,-0.0622 -0.0812,0.037 -0.10661,0.0784 -0.10661,0.17403 0,0.10799 0.0242,0.13642 0.17365,0.20428 0.0955,0.0433 0.191,0.0793 0.2122,0.0797 0.0212,4.2e-4 0.13486,-0.0985 0.25258,-0.22006 z m 4.34646,0.15979 c 0,-0.069 -0.2747,-0.38828 -0.33404,-0.38828 -0.0212,0 0.0405,0.10112 0.13701,0.22473 0.0965,0.1236 0.18036,0.22473 0.18627,0.22473 0.006,0 0.0107,-0.0275 0.0107,-0.0612 z m -10.35021,-0.10031 c 0.33068,-0.20163 0.65943,-0.73329 0.9234,-1.49333 0.29678,-0.85455 0.55197,-1.32838 0.82519,-1.53224 0.11881,-0.0887 0.1333,-0.11835 0.10963,-0.22473 -0.015,-0.0674 -0.0272,-0.2465 -0.0272,-0.39796 0,-0.15147 -0.0184,-0.28223 -0.0408,-0.29057 -0.0911,-0.0338 -0.59429,0.0566 -0.84949,0.15265 -0.14966,0.0563 -0.38749,0.18074 -0.52851,0.27646 -1.0228,0.69425 -1.51006,1.93793 -1.18838,3.03319 0.14072,0.47913 0.45531,0.67224 0.77629,0.47653 z m 4.42665,-0.12913 c 0.0416,-0.17317 0.0405,-0.215 -0.006,-0.2445 -0.0857,-0.0542 -0.12246,-0.027 -0.18905,0.13999 -0.0559,0.14022 -0.055,0.15966 0.0116,0.23319 0.0399,0.0441 0.0863,0.0802 0.10304,0.0802 0.0167,0 0.053,-0.094 0.0805,-0.20889 z m 0.84166,-0.058 c -0.0126,-0.033 -0.0567,-0.0599 -0.0978,-0.0599 -0.10188,0 -0.17288,-0.0789 -0.17288,-0.19205 0,-0.12127 0.10645,-0.12336 0.2329,-0.004 0.0772,0.0726 0.11537,0.0822 0.20258,0.0511 0.0832,-0.0297 0.11849,-0.082 0.15655,-0.23242 0.027,-0.10677 0.0795,-0.22773 0.1167,-0.26881 0.0788,-0.0871 0.0837,-0.15272 0.0243,-0.32329 -0.0319,-0.0915 -0.0631,-0.11904 -0.1184,-0.10457 -0.10787,0.0282 -0.2469,-0.0584 -0.2469,-0.15387 0,-0.10484 0.10077,-0.14292 0.22656,-0.0856 0.0829,0.0378 0.10544,0.0326 0.14026,-0.0325 0.0915,-0.17093 0.0303,-0.1924 -0.5389,-0.1889 l -0.53638,0.003 -0.0464,0.22473 c -0.0525,0.25494 -0.14157,0.44127 -0.31808,0.66586 -0.067,0.0853 -0.11435,0.16266 -0.10512,0.17189 0.009,0.009 0.25508,0.16205 0.54633,0.3396 0.49699,0.30297 0.59076,0.33631 0.53466,0.1901 z m 0.52581,-0.10105 c -0.0408,-0.0451 -0.0831,-0.0731 -0.0939,-0.0623 -0.0275,0.0275 0.0745,0.14425 0.12587,0.14425 0.0232,0 0.009,-0.0369 -0.032,-0.082 z m 3.99478,-0.0162 c 0.068,-0.0515 0.0682,-0.0694 0.006,-0.31404 -0.0804,-0.31415 -0.0624,-0.50396 0.10398,-1.09211 0.1113,-0.39341 0.21585,-0.94704 0.18525,-0.98097 -0.007,-0.008 -0.0679,0.0157 -0.13627,0.0511 -0.0684,0.0353 -0.15044,0.0643 -0.18233,0.0643 -0.0422,0 -0.0706,0.0977 -0.10404,0.35752 -0.0254,0.19664 -0.0935,0.55058 -0.15155,0.78655 -0.11782,0.47929 -0.11356,0.70075 0.0192,1.00102 0.0848,0.19181 0.13931,0.21833 0.26012,0.12665 z m -4.6287,-0.0867 c -0.0284,-0.0342 -0.0601,-0.0539 -0.0704,-0.0436 -0.0283,0.0283 0.0293,0.10585 0.0786,0.10585 0.0271,0 0.024,-0.0234 -0.008,-0.0623 z m 1.70585,-0.0433 c 0.33594,-0.11168 0.78071,-0.33951 0.8679,-0.44457 0.0663,-0.0798 0.12381,-0.0805 0.12381,-0.002 0,0.10393 0.0767,0.0692 0.29335,-0.13279 0.66481,-0.61997 0.97331,-1.01682 1.207,-1.55267 0.0612,-0.14045 0.13438,-0.25538 0.16251,-0.25538 0.14701,0 0.28498,-0.62793 0.16063,-0.73112 -0.22322,-0.18526 -0.90621,0.30513 -1.53779,1.10414 -0.17587,0.2225 -0.32204,0.47146 -0.25104,0.42758 0.0228,-0.0141 0.0521,-0.008 0.0653,0.013 0.0131,0.0212 -0.0178,0.0513 -0.0686,0.0668 -0.0509,0.0155 -0.12572,0.0573 -0.16627,0.093 -0.0707,0.0621 -0.0698,0.068 0.0204,0.13894 0.0934,0.0735 0.0925,0.0739 -0.12048,0.0476 -0.1498,-0.0185 -0.355,8.4e-4 -0.67909,0.0648 l -0.46445,0.0913 0.0391,0.16939 c 0.0464,0.20085 0.0129,0.60826 -0.0692,0.84087 -0.0555,0.15723 -0.0544,0.16614 0.0204,0.16614 0.0435,0 0.22194,-0.0475 0.39658,-0.10556 z m -0.82486,-0.4229 c -0.0148,-0.024 -0.058,-0.043 -0.096,-0.0422 -0.0606,8.4e-4 -0.0594,0.009 0.01,0.0609 0.084,0.0635 0.13088,0.0535 0.0864,-0.0186 z m -1.67927,-0.46239 c 0.0687,-0.15478 0.081,-0.21788 0.0444,-0.22662 -0.0314,-0.008 -0.0598,-0.11846 -0.0742,-0.29004 -0.0132,-0.15822 -0.0762,-0.41699 -0.14619,-0.60079 -0.0676,-0.17757 -0.13533,-0.41019 -0.15054,-0.51694 -0.0152,-0.10674 -0.0436,-0.19408 -0.0631,-0.19408 -0.0699,0 -0.087,0.21368 -0.0363,0.45296 0.0284,0.13402 0.0382,0.25701 0.0217,0.27331 -0.0165,0.0163 -0.1377,-0.0848 -0.26933,-0.22463 -0.20163,-0.21422 -0.2532,-0.30112 -0.32738,-0.55161 -0.0899,-0.30366 -0.1474,-0.41286 -0.20018,-0.38024 -0.0421,0.026 0.0277,0.50258 0.10051,0.68641 0.0722,0.18233 0.0775,0.24913 0.0168,0.2116 -0.0751,-0.0464 -0.1969,-0.37538 -0.22243,-0.60075 -0.0364,-0.3213 -0.0572,-0.39823 -0.10748,-0.39823 -0.10465,0 0.0317,0.79654 0.18812,1.09903 0.0546,0.10543 0.0558,0.12676 0.008,0.12676 -0.0686,0 -0.1767,-0.21332 -0.27965,-0.5516 l -0.0746,-0.24516 0.0193,0.27374 c 0.0128,0.18163 0.0543,0.34275 0.1232,0.47875 0.11512,0.22718 0.1208,0.24857 0.066,0.24857 -0.055,0 -0.28902,-0.42392 -0.28902,-0.52352 0,-0.0871 -0.0684,-0.15716 -0.11142,-0.11416 -0.0898,0.0898 0.31985,0.81759 0.67085,1.19171 0.29002,0.30911 0.71319,0.58459 0.90361,0.58824 0.075,8.4e-4 0.11366,-0.0419 0.18943,-0.21271 z m 1.19663,-0.13705 c -0.0136,-0.0136 -0.0488,-0.015 -0.0783,-0.003 -0.0326,0.0131 -0.0229,0.0228 0.0247,0.0247 0.0431,0.002 0.0672,-0.008 0.0536,-0.0214 z m 7.36581,-0.32263 c 0,-0.32716 0.0413,-0.3892 0.11572,-0.17365 0.0458,0.1328 0.0458,0.1328 0.0229,-0.0306 -0.0382,-0.27299 -0.12988,-0.41747 -0.32475,-0.5118 -0.23413,-0.11334 -0.38932,-0.0948 -0.46085,0.0551 -0.0941,0.19719 -0.0351,0.30629 0.32521,0.60075 0.0815,0.0666 0.17108,0.17637 0.19905,0.24389 0.0831,0.20077 0.12265,0.14163 0.12265,-0.18368 z m -6.85421,0.15682 c -0.0281,-0.0114 -0.074,-0.0114 -0.10215,0 -0.0281,0.0114 -0.005,0.0206 0.0511,0.0206 0.0562,0 0.0792,-0.009 0.0511,-0.0206 z m -1.56288,-0.0955 c 0,-0.0224 -0.0184,-0.0408 -0.0409,-0.0408 -0.0225,0 -0.0409,0.0184 -0.0409,0.0408 0,0.0225 0.0184,0.0408 0.0409,0.0408 0.0225,0 0.0409,-0.0184 0.0409,-0.0408 z m 2.00212,-0.34445 v -0.33961 l -0.27953,-0.0276 c -0.74385,-0.0733 -1.23227,-0.59446 -1.23227,-1.31484 0,-0.14652 0.0208,-0.39236 0.0462,-0.54632 0.0536,-0.32494 0.0333,-0.43944 -0.10772,-0.60708 -0.12487,-0.1484 -0.16728,-0.33461 -0.10341,-0.45397 0.0423,-0.0788 0.01,-0.14702 -0.28387,-0.59905 -0.18232,-0.28052 -0.39345,-0.64264 -0.46918,-0.80469 -0.10342,-0.22132 -0.13852,-0.26848 -0.14105,-0.1895 -0.002,0.0578 -0.0528,0.34282 -0.1132,0.63331 -0.1117,0.53706 -0.12292,0.67419 -0.0737,0.90021 0.0228,0.10457 0.01,0.14072 -0.0725,0.20564 -0.0798,0.0627 -0.0962,0.10577 -0.0806,0.21162 0.0162,0.11038 -0.003,0.1556 -0.11815,0.26747 -0.0916,0.0896 -0.18207,0.25347 -0.27042,0.48977 -0.14922,0.39906 -0.16049,0.47604 -0.0696,0.47604 0.11966,0 0.25745,0.19484 0.34451,0.48714 0.0487,0.16367 0.13611,0.34773 0.19788,0.41685 l 0.11059,0.12378 -0.0147,-0.18491 c -0.0123,-0.15489 0.002,-0.20185 0.0895,-0.28917 0.0573,-0.0573 0.12215,-0.10423 0.14404,-0.10423 0.0983,0 0.16822,0.13663 0.16822,0.32858 0,0.12783 0.0377,0.28258 0.10432,0.42825 0.0574,0.12545 0.11511,0.31906 0.12828,0.43024 l 0.0239,0.20215 h 0.88558 0.88558 l 0.11604,0.12113 c 0.0638,0.0666 0.13162,0.1115 0.15065,0.0997 0.0191,-0.0118 0.0347,-0.17421 0.0347,-0.361 z m 0.6114,0.2898 0.3458,-0.0512 0.2143,-0.31668 0.21431,-0.31669 -0.0432,-0.35567 c -0.0237,-0.19561 -0.0482,-0.36093 -0.0543,-0.36738 -0.0265,-0.028 -0.47036,0.22064 -0.47073,0.26362 -8.3e-4,0.0884 -0.36876,0.37259 -0.55297,0.42698 l -0.18293,0.054 v 0.35881 c 0,0.41571 -0.0459,0.38937 0.52968,0.30418 z m 5.14982,-0.086 c 0,-0.0794 -0.19174,-0.31432 -0.27324,-0.33478 -0.11462,-0.0288 -0.2455,0.0695 -0.19702,0.14797 0.0728,0.11794 0.47026,0.2758 0.47026,0.18681 z m -0.12258,-0.528 c 0,-0.0307 0.0391,-0.10554 0.087,-0.16635 0.064,-0.0814 0.075,-0.12262 0.0414,-0.15615 -0.0335,-0.0335 -0.0727,-0.0201 -0.14827,0.0509 -0.0973,0.0914 -0.13485,0.24074 -0.0755,0.30015 0.0455,0.0454 0.0953,0.0305 0.0953,-0.0286 z m -0.24516,-0.16343 c 0,-0.0307 0.0392,-0.10557 0.087,-0.16642 0.0755,-0.096 0.0802,-0.12348 0.035,-0.20786 -0.0554,-0.10347 -0.22923,-0.18244 -0.40393,-0.18347 -0.0584,-3.1e-4 -0.13333,-0.0177 -0.16641,-0.0386 -0.0515,-0.0325 -0.0501,-0.0419 0.0102,-0.065 0.0387,-0.0148 0.0703,-0.042 0.0703,-0.0604 0,-0.0811 -0.23485,-0.30077 -0.39509,-0.36946 -0.16133,-0.0692 -0.17366,-0.085 -0.15173,-0.19464 0.0132,-0.0657 0.005,-0.13111 -0.0184,-0.14547 -0.0631,-0.039 -0.99786,-0.0738 -0.97941,-0.0364 0.009,0.0177 0.0563,0.12079 0.10583,0.2291 0.0729,0.15955 0.10485,0.19217 0.16859,0.17194 0.0548,-0.0174 0.086,-0.002 0.10282,0.0511 0.0385,0.12113 0.26731,0.33378 0.33235,0.30882 0.0364,-0.0139 0.0587,0.003 0.0587,0.0447 0,0.0919 0.35676,0.43188 0.45321,0.43188 0.0429,0 0.078,-0.0184 0.078,-0.0408 0,-0.0751 0.0605,-0.0419 0.13987,0.0767 0.13686,0.20429 0.47303,0.34247 0.47303,0.19443 z m -5.0666,-0.12728 c 0.12956,-0.0406 0.32688,-0.17837 0.32688,-0.22832 0,-0.0653 -0.22636,-0.0418 -0.41914,0.0435 -0.15604,0.0691 -0.21646,0.0755 -0.39333,0.0419 -0.27656,-0.0524 -0.40958,-0.1255 -0.58784,-0.32282 -0.171,-0.18926 -0.22878,-0.3718 -0.27966,-0.88344 -0.0709,-0.71272 -0.12959,-0.97803 -0.22001,-0.99429 -0.14545,-0.0261 -0.16694,-0.0885 -0.0305,-0.0885 0.16311,0 0.30677,0.0648 0.37081,0.16737 0.0453,0.0724 0.0407,0.0776 -0.049,0.0551 -0.0989,-0.0248 -0.0989,-0.0248 -0.0386,0.29411 0.13156,0.69672 0.52138,1.16205 1.05487,1.25917 0.0899,0.0164 0.52722,0.0165 0.97185,3.1e-4 l 0.80842,-0.0295 0.19515,-0.17546 c 0.46451,-0.41764 0.66802,-1.21111 0.49035,-1.91185 -0.0363,-0.14318 -0.0492,-0.15464 -0.14708,-0.13008 -0.059,0.0148 -0.15721,0.0625 -0.21823,0.10593 -0.13293,0.0947 -0.15962,0.0979 -0.15962,0.0194 0,-0.0941 0.35036,-0.28054 0.47054,-0.25037 0.0878,0.022 0.10149,0.0117 0.10149,-0.0765 0,-0.13361 -0.15796,-0.23964 -0.30282,-0.20328 -0.0589,0.0147 -0.19691,0.10757 -0.30657,0.20616 -0.18771,0.16877 -0.28952,0.22049 -0.28952,0.14709 0,-0.0484 0.37388,-0.40051 0.48674,-0.45841 0.0986,-0.0506 0.0986,-0.0506 -0.0398,-0.10875 -0.40251,-0.16924 -1.24352,-0.19525 -1.77487,-0.0549 -0.46207,0.12207 -0.94587,0.37081 -1.19421,0.61397 -0.18176,0.17799 -0.22931,0.20367 -0.37701,0.20367 -0.12613,0 -0.19514,0.0261 -0.27186,0.10284 -0.11343,0.11343 -0.10554,0.2215 0.0268,0.36705 0.13764,0.15137 0.16736,0.30175 0.13282,0.67187 -0.0676,0.72445 -0.0123,1.01855 0.24362,1.29624 0.19543,0.21202 0.33975,0.29623 0.61649,0.3597 0.19482,0.0447 0.59833,0.0251 0.80293,-0.0389 z m 0.0878,-2.64648 c -0.031,-0.031 -0.15449,-0.0499 -0.3144,-0.0481 -0.25226,0.003 -0.26048,-1.5e-4 -0.19591,-0.0715 0.0377,-0.0417 0.12341,-0.0745 0.19449,-0.0745 0.13797,0 0.39784,0.12142 0.42329,0.19777 0.0209,0.0627 -0.0433,0.0605 -0.10747,-0.003 z m -0.90488,-0.16102 c 1.5e-4,-0.1599 0.11856,-0.36961 0.26151,-0.46327 0.14339,-0.094 0.43884,-0.0843 0.65728,0.0214 0.17495,0.0847 0.46426,0.38757 0.41616,0.43568 -0.0127,0.0127 -0.10285,-0.0422 -0.20032,-0.12209 -0.22212,-0.18202 -0.35173,-0.23168 -0.60462,-0.23168 -0.16525,0 -0.21837,0.0195 -0.30589,0.11237 -0.0583,0.0618 -0.11652,0.16331 -0.12951,0.22558 -0.0344,0.16512 -0.0948,0.17915 -0.0946,0.022 z m 2.2521,2.61653 c 0.12447,-0.15715 0.12447,-0.15715 0.0251,-0.15715 -0.0779,0 -0.11551,0.0374 -0.17417,0.17365 -0.0412,0.0955 -0.0837,0.19204 -0.0946,0.21451 -0.0358,0.0738 0.11665,-0.0707 0.24365,-0.23101 z m 1.7603,0.0836 c 0.0766,-0.041 0.0823,-0.0708 0.0606,-0.31663 -0.0283,-0.32187 -0.12166,-0.64245 -0.22609,-0.77678 -0.0632,-0.0812 -0.0889,-0.0895 -0.16029,-0.0513 -0.0789,0.0422 -0.0808,0.0541 -0.026,0.164 0.0325,0.0652 0.0863,0.14104 0.11955,0.16863 0.0837,0.0695 0.0769,0.3631 -0.0145,0.62342 -0.11344,0.32303 -0.0686,0.35735 0.24671,0.18862 z m 2.57315,-0.0568 c 0.0442,-0.0562 0.10703,-0.10215 0.13962,-0.10215 0.0498,0 0.0485,0.0164 -0.008,0.10215 -0.0387,0.059 -0.0483,0.10215 -0.0229,0.10215 0.0616,0 0.13966,-0.15772 0.11281,-0.22769 -0.0238,-0.0621 -0.45913,-0.29152 -0.49153,-0.25912 -0.0107,0.0107 -0.0299,0.0792 -0.0428,0.15217 -0.0191,0.10839 -0.003,0.15131 0.0855,0.23371 0.0599,0.0555 0.11738,0.10093 0.12771,0.10093 0.0104,0 0.055,-0.046 0.0992,-0.10215 z m -5.93195,-0.12203 c 0,-0.011 -0.0649,-0.047 -0.14407,-0.0801 -0.17337,-0.0724 -0.68366,-0.51817 -0.82028,-0.7165 l -0.098,-0.14228 4.1e-4,0.12185 c 4.2e-4,0.15525 0.16374,0.50347 0.29072,0.62018 0.14542,0.13365 0.35915,0.21331 0.57715,0.21511 0.10675,8.3e-4 0.19408,-0.008 0.19408,-0.0183 z m -10.8895,-0.41936 c 0.21973,-0.41311 0.45262,-0.72809 0.69814,-0.9442 0.32243,-0.28382 0.61262,-0.38164 0.46621,-0.15715 -0.12708,0.19484 -0.28547,0.53484 -0.28547,0.6128 0,0.0655 0.0492,0.0352 0.24332,-0.14991 0.30172,-0.28779 0.75602,-0.51416 1.09324,-0.54474 0.4712,-0.0428 0.77245,0.22293 0.31613,0.27878 -0.22576,0.0276 -0.44598,0.12474 -0.4792,0.21132 -0.0168,0.0438 0.024,0.0519 0.19335,0.0378 0.25337,-0.021 0.49618,0.071 0.73065,0.27686 l 0.1525,0.13391 0.25402,-0.12662 c 0.13971,-0.0696 0.30316,-0.13808 0.36322,-0.15207 0.10078,-0.0235 0.10708,-0.037 0.0817,-0.17505 -0.0323,-0.17555 -0.0305,-0.32159 0.0131,-1.08944 0.0427,-0.75312 -0.0115,-0.96806 -0.31984,-1.26656 -0.28816,-0.27901 -0.54148,-0.36729 -1.04862,-0.36545 -0.43199,0.002 -0.77637,0.0782 -1.13036,0.25152 -0.2335,0.11434 -0.58286,0.39415 -0.54317,0.43504 0.0121,0.0126 0.15601,-0.0196 0.31964,-0.0715 0.31798,-0.10082 0.51626,-0.11572 0.51626,-0.0388 0,0.0261 -0.11588,0.12475 -0.25751,0.21933 -0.84119,0.56172 -1.56003,1.66255 -1.63061,2.49709 -0.0206,0.24272 0.003,0.48456 0.0469,0.48456 0.009,0 0.10189,-0.16088 0.20648,-0.35752 z m 11.70669,0.24258 c 0.0734,-0.0287 -0.049,-0.0382 -0.43595,-0.034 -0.53154,0.006 -0.61696,0.045 -0.22476,0.10319 0.19843,0.0294 0.48477,-4.1e-4 0.66071,-0.0692 z m 0.54857,-0.0212 c -0.0143,-0.0375 -0.0445,-0.0681 -0.067,-0.0681 -0.0225,0 -0.0297,0.0291 -0.0161,0.0647 0.0137,0.0355 0.0248,0.0852 0.0248,0.11032 0,0.0315 0.0132,0.0325 0.0422,0.003 0.0232,-0.0232 0.0304,-0.0729 0.0161,-0.11033 z m 0.70424,-0.14711 c 0.20043,-0.17642 0.56892,-0.37047 0.70352,-0.37047 0.045,0 0.0942,-0.02 0.10929,-0.0444 0.0568,-0.092 -0.0499,-0.11574 -0.32988,-0.0734 -0.26542,0.0402 -0.30082,0.0582 -0.50994,0.25969 -0.24519,0.23624 -0.35825,0.30755 -0.48763,0.30755 -0.0465,0 -0.0844,0.0257 -0.0844,0.0571 0,0.0432 0.0502,0.0536 0.20574,0.0431 0.17197,-0.0116 0.23652,-0.0411 0.39331,-0.17911 z m 0.77259,-0.70042 c 0.0826,-0.0328 0.10074,-0.0538 0.0584,-0.0679 -0.0337,-0.0112 -0.14059,-0.0545 -0.23751,-0.0961 l -0.17623,-0.0758 -0.0587,0.14053 c -0.0323,0.0773 -0.0587,0.15282 -0.0587,0.16784 0,0.0372 0.32502,-0.01 0.47273,-0.0686 z m 1.55262,-0.22088 c 0.22251,-0.0668 0.39417,-0.20237 0.57009,-0.45024 0.0638,-0.0899 0.32137,-0.3657 0.57238,-0.6129 0.48753,-0.48013 0.66464,-0.75619 0.7029,-1.09566 0.0197,-0.17513 0.0197,-0.17513 -0.28887,-0.38848 -0.36257,-0.25064 -0.53195,-0.44205 -0.59778,-0.67555 -0.0476,-0.16852 -0.0487,-0.16934 -0.25617,-0.17711 -0.16713,-0.006 -0.33462,-0.0691 -0.84537,-0.31762 -0.35031,-0.17041 -0.7029,-0.32053 -0.78352,-0.33361 -0.19579,-0.0318 -0.30767,0.0328 -0.74425,0.42982 -0.19815,0.18019 -0.39733,0.33937 -0.44262,0.35374 -0.0729,0.0232 -0.0796,0.0503 -0.0585,0.23682 0.0131,0.11588 0.0331,0.4126 0.0446,0.65938 0.0204,0.4393 0.0234,0.45068 0.14304,0.54435 0.12479,0.0976 0.16482,0.28621 0.0869,0.40915 -0.0194,0.0306 -0.009,0.16285 0.025,0.30645 0.0368,0.15758 0.0527,0.37988 0.042,0.59087 -0.017,0.33825 -0.017,0.33825 0.11212,0.41809 0.19681,0.12163 0.39956,0.15442 0.98273,0.1589 0.36433,0.003 0.59798,-0.0151 0.73547,-0.0564 z m -1.36268,-0.37519 c -0.28797,-0.14193 -0.33598,-0.30375 -0.29294,-0.98713 0.01,-0.15659 -0.003,-0.22791 -0.0452,-0.25475 -0.0867,-0.0549 0.0653,-0.0515 0.1685,0.003 0.0952,0.0509 0.10651,0.14042 0.0131,0.10461 -0.0481,-0.0185 -0.0591,-0.008 -0.0408,0.0399 0.0138,0.0358 0.025,0.0806 0.025,0.0995 0,0.0857 0.23518,0.29908 0.48113,0.43662 0.25192,0.14087 0.58122,0.42805 0.58122,0.50685 0,0.0192 -0.0519,0.0245 -0.11548,0.0118 -0.0635,-0.0127 -0.21396,0.006 -0.33429,0.0419 -0.26692,0.0793 -0.27346,0.0792 -0.44023,-0.003 z m 0.41324,-0.0973 c 0.0262,-8.3e-4 -0.008,-0.0257 -0.0749,-0.0549 -0.0853,-0.0369 -0.13125,-0.0398 -0.15107,-0.009 -0.0353,0.054 0.0499,0.11333 0.12376,0.0862 0.0299,-0.011 0.0759,-0.0208 0.10216,-0.0218 z m -0.29957,-0.11833 c 0,-0.0436 -0.0196,-0.0914 -0.0436,-0.10623 -0.0239,-0.0147 -0.0975,-0.10139 -0.16343,-0.1924 -0.12171,-0.16802 -0.15633,-0.13216 -0.0763,0.079 0.0465,0.12265 0.19362,0.29889 0.24956,0.29889 0.0186,0 0.0337,-0.0357 0.0337,-0.0794 z m 0.39901,-0.0127 c -0.009,-0.0281 -0.10708,-0.11084 -0.21792,-0.18389 -0.11084,-0.073 -0.23545,-0.16169 -0.27692,-0.19701 -0.11912,-0.10144 -0.11582,-0.0469 0.006,0.0925 0.1153,0.13235 0.40028,0.33947 0.46707,0.33947 0.0212,0 0.0312,-0.023 0.0222,-0.0511 z m 1.16275,-0.22109 c -0.17871,-0.0881 -0.33597,-0.28133 -0.33597,-0.41284 0,-0.25427 0.40812,-0.58164 0.72509,-0.58164 0.60234,0 0.61814,0.69539 0.0226,0.99628 -0.1628,0.0823 -0.24191,0.0819 -0.41174,-0.002 z m 0.45054,-0.13411 c 0.10428,-0.0661 0.21726,-0.17371 0.25105,-0.23906 0.0547,-0.1058 0.0547,-0.12846 -1.5e-4,-0.20686 -0.054,-0.0771 -0.25682,-0.21015 -0.32027,-0.21015 -0.0123,0 -0.0224,0.0637 -0.0224,0.14158 0,0.16883 -0.19554,0.41637 -0.36207,0.45836 -0.10664,0.0269 -0.10603,0.028 0.0557,0.10071 0.0899,0.0404 0.17363,0.074 0.18609,0.0746 0.0124,4.1e-4 0.10796,-0.053 0.21225,-0.11918 z m -0.35178,-0.22542 c 0.12668,-0.0887 0.19584,-0.28042 0.13928,-0.38609 -0.0251,-0.047 -0.0671,-0.0854 -0.0933,-0.0854 -0.0354,0 -0.0351,0.0126 8.4e-4,0.049 0.15233,0.15233 -0.0546,0.46533 -0.2853,0.43148 -0.061,-0.009 -0.1015,-8.4e-4 -0.0901,0.0172 0.0337,0.0544 0.23604,0.0382 0.32802,-0.0261 z m 0.60733,-0.43043 c -0.0371,-0.06 -0.18401,-0.13155 -0.18401,-0.0896 0,0.0198 0.0414,0.056 0.0919,0.0804 0.11855,0.0572 0.12191,0.0575 0.0921,0.009 z m -1.6141,0.74421 c 0,-0.0175 0.0552,-0.0527 0.12258,-0.0782 0.0943,-0.0356 0.12258,-0.0716 0.12258,-0.156 0,-0.11633 0.1063,-0.3728 0.17113,-0.41286 0.0727,-0.045 0.0824,0.0198 0.0169,0.11335 -0.036,0.0514 -0.0658,0.15831 -0.0661,0.23758 -3.1e-4,0.0793 -0.0142,0.16437 -0.0306,0.1891 -0.0672,0.10067 -0.33647,0.18629 -0.33647,0.10701 z m -0.38365,-0.31837 c -0.0365,-0.0951 0.0471,-0.22177 0.14626,-0.22177 0.0813,0 0.0825,0.004 0.0191,0.0747 -0.0372,0.0411 -0.0676,0.10545 -0.0676,0.14302 0,0.0863 -0.065,0.089 -0.0976,0.004 z m 2.30857,-0.50142 c -0.0296,-0.15059 -0.0806,-0.26959 -0.13811,-0.32218 -0.0959,-0.0877 -0.26243,-0.15591 -0.34343,-0.14057 -0.0746,0.0142 -0.10748,-0.0719 -0.0527,-0.13787 0.0672,-0.081 0.14518,-0.0749 0.35787,0.028 0.12528,0.0606 0.19831,0.12932 0.23764,0.22343 0.0622,0.14894 0.0781,0.58794 0.0212,0.58794 -0.0196,0 -0.0567,-0.10746 -0.0826,-0.23879 z m -2.66833,-0.15494 c -0.13919,-0.0578 -0.158,-0.0864 -0.24135,-0.36716 -0.0655,-0.22085 -0.13634,-0.35682 -0.25764,-0.49493 -0.11476,-0.13066 -0.14161,-0.18053 -0.0855,-0.15889 0.0449,0.0174 0.0922,0.0347 0.10491,0.0387 0.0375,0.0116 0.30719,-0.23707 0.33462,-0.30854 0.0192,-0.05 0.0729,-0.0631 0.22712,-0.0551 0.25612,0.0131 0.45164,0.12686 0.57105,0.3323 0.17174,0.29552 0.0562,0.74113 -0.24968,0.96268 -0.18563,0.13448 -0.1984,0.13609 -0.40349,0.051 z m 0.36164,-0.11913 c 0.1704,-0.12997 0.26245,-0.3023 0.23013,-0.43087 -0.0312,-0.12411 -0.23921,-0.4326 -0.30754,-0.45608 -0.0293,-0.01 -0.0868,0.0545 -0.13329,0.14965 -0.0449,0.0921 -0.13969,0.20416 -0.21055,0.2491 -0.10981,0.0696 -0.12556,0.0998 -0.10661,0.2043 0.0344,0.18984 0.0849,0.26196 0.22699,0.32415 0.0721,0.0315 0.13849,0.0589 0.14761,0.0607 0.009,0.002 0.0781,-0.0436 0.15326,-0.10094 z m -0.331,-0.71733 c 0.0727,-0.14058 0.0524,-0.30062 -0.0429,-0.33717 -0.0548,-0.0211 -0.0547,-0.013 4.1e-4,0.0714 0.066,0.10075 0.0491,0.20091 -0.0542,0.32119 -0.0379,0.0441 -0.0438,0.0715 -0.0153,0.0715 0.0254,0 0.0757,-0.0572 0.11181,-0.12698 z m 0.5902,-0.0146 c 0,-0.085 -0.24159,-0.34939 -0.36066,-0.39466 -0.14839,-0.0564 -0.15372,-0.0137 -0.009,0.0718 0.0695,0.0411 0.17439,0.14398 0.23312,0.22871 0.11765,0.16978 0.13652,0.18281 0.13652,0.0942 z m -0.69462,-0.14443 c 0,-0.0224 -0.0195,-0.0408 -0.0433,-0.0408 -0.0238,0 -0.0319,0.0184 -0.018,0.0408 0.0139,0.0225 0.0334,0.0408 0.0433,0.0408 0.01,0 0.0181,-0.0184 0.0181,-0.0408 z m 1.24151,-0.0914 c -0.0648,-0.0503 -0.14866,-0.12953 -0.18629,-0.17617 -0.14404,-0.17854 -0.40951,-0.32221 -0.68229,-0.36927 -0.25871,-0.0446 -0.26565,-0.0488 -0.15576,-0.0931 0.1573,-0.0635 0.41085,-0.0583 0.5787,0.0119 0.0767,0.032 0.25661,0.16535 0.39972,0.29622 0.14312,0.13087 0.2958,0.25998 0.33929,0.28691 0.0685,0.0423 0.0708,0.0546 0.0178,0.0913 -0.0947,0.0654 -0.18254,0.0519 -0.31115,-0.0477 z m -0.039,-0.20485 c -0.29722,-0.27224 -0.45179,-0.38221 -0.30356,-0.21598 0.10423,0.11686 0.48139,0.43049 0.51772,0.43049 0.011,0 -0.0853,-0.0965 -0.21416,-0.21451 z m -7.74001,2.89715 c 0,-0.0527 -0.0368,-0.1291 -0.0817,-0.16978 -0.0709,-0.0642 -0.0817,-0.0653 -0.0817,-0.009 0,0.10345 0.0758,0.27458 0.12157,0.27458 0.023,0 0.0419,-0.0431 0.0419,-0.0958 z m 0.12258,-0.23242 c 0,-0.0233 -0.046,-0.13294 -0.10215,-0.2438 -0.0562,-0.11087 -0.10215,-0.22978 -0.10215,-0.26423 0,-0.0345 -0.0208,-0.0627 -0.0462,-0.0627 -0.0758,0 -0.0158,0.34592 0.0844,0.48657 0.0895,0.12575 0.1661,0.16451 0.1661,0.0841 z m 8.80812,-0.0823 c 0.0996,-0.0685 0.181,-0.14204 0.181,-0.16343 0,-0.0514 -0.40073,0.17105 -0.42672,0.2369 -0.0334,0.0844 0.0542,0.0583 0.24572,-0.0735 z m 3.25093,0.0433 c 0.074,-3.2e-4 0.11447,-0.0266 0.12959,-0.0845 0.019,-0.0726 0.033,-0.0772 0.1029,-0.0336 0.11349,0.0708 0.29324,-0.0471 0.29324,-0.19255 0,-0.0822 0.0157,-0.099 0.0749,-0.0802 0.0538,0.017 0.0885,-0.006 0.12329,-0.0825 0.0423,-0.0928 0.0357,-0.12135 -0.0528,-0.22642 -0.0559,-0.0664 -0.0906,-0.14769 -0.0776,-0.1816 0.0201,-0.0523 0.0315,-0.0506 0.0767,0.0113 0.0785,0.1074 0.102,0.051 0.0553,-0.133 -0.0287,-0.11299 -0.0821,-0.18912 -0.17615,-0.25073 -0.13583,-0.0891 -0.21139,-0.2387 -0.1421,-0.28152 0.0205,-0.0127 0.0483,0.006 0.0618,0.0408 0.0135,0.0352 0.042,0.0639 0.0634,0.0639 0.0616,0 -0.2145,-0.48709 -0.32581,-0.57464 -0.0553,-0.0435 -0.13997,-0.0791 -0.18812,-0.0791 -0.12655,0 -0.26917,-0.11325 -0.26917,-0.21374 0,-0.0865 7e-5,-0.0865 0.0985,0.006 0.0542,0.0509 0.13019,0.0863 0.16891,0.0787 0.0551,-0.0109 0.0109,-0.0868 -0.20509,-0.35101 -0.26638,-0.32595 -0.28122,-0.33709 -0.44883,-0.33709 -0.23296,0 -0.4217,-0.0707 -0.45318,-0.16993 -0.0347,-0.10948 0.0111,-0.14727 0.0741,-0.0611 0.0554,0.0757 0.35697,0.14371 0.35697,0.0804 0,-0.0212 -0.17008,-0.20479 -0.37796,-0.40782 -0.35749,-0.34916 -0.38944,-0.37046 -0.59027,-0.39351 -0.23593,-0.0271 -0.45372,-0.12341 -0.48944,-0.2165 -0.0367,-0.0957 0.0195,-0.11824 0.10397,-0.0417 0.0423,0.0383 0.14814,0.0801 0.2352,0.0929 l 0.15829,0.0233 -0.16071,-0.13743 c -0.0884,-0.0755 -0.29697,-0.24076 -0.4635,-0.36705 -0.26064,-0.19766 -0.33448,-0.23289 -0.53052,-0.25312 -0.22156,-0.0229 -0.43303,-0.14953 -0.36434,-0.21823 0.016,-0.016 0.0508,-0.008 0.0774,0.0193 0.0266,0.0266 0.0861,0.0479 0.13212,0.0475 0.0798,-8.3e-4 0.0792,-0.004 -0.0131,-0.0754 -0.0533,-0.041 -0.25552,-0.15705 -0.44946,-0.25798 -0.3075,-0.16002 -0.373,-0.17982 -0.51198,-0.15477 -0.16905,0.0305 -0.29822,0.0126 -0.38202,-0.053 -0.0957,-0.0749 -0.0514,-0.10166 0.143,-0.0863 0.19409,0.0153 0.19409,0.0153 -0.13279,-0.14531 -0.31818,-0.15639 -0.33556,-0.16006 -0.65376,-0.13802 -0.30337,0.021 -0.33275,0.016 -0.40859,-0.0702 -0.0817,-0.0928 -0.0817,-0.0928 0.0401,-0.0631 0.14671,0.0357 0.13926,0.0351 0.26636,0.0249 0.0965,-0.008 0.0945,-0.0116 -0.0354,-0.0682 -0.29936,-0.13062 -0.83992,-0.25034 -0.94542,-0.2094 -0.16167,0.0627 -0.32957,0.0432 -0.41472,-0.0481 -0.0465,-0.0499 -0.12989,-0.0843 -0.20431,-0.0843 -0.11093,0 -0.12266,0.0109 -0.0996,0.0919 0.10257,0.36017 0.0542,0.43569 -0.2119,0.33116 -0.16796,-0.0659 -0.16796,-0.0659 -0.31179,0.0865 l -0.14383,0.15252 0.0974,0.19214 c 0.0536,0.10568 0.1108,0.26376 0.12722,0.35128 0.0164,0.0875 0.0824,0.242 0.14665,0.3433 0.1331,0.20987 0.34026,0.72613 0.38273,0.95378 0.0158,0.0842 0.0386,0.15323 0.0508,0.15323 0.0122,0 0.0873,-0.0497 0.16686,-0.1103 0.13738,-0.10479 0.53444,-0.32622 1.0276,-0.57307 0.18545,-0.0928 0.2904,-0.11503 0.60044,-0.12702 0.43827,-0.0169 0.70565,0.032 1.0252,0.18749 0.28456,0.13853 0.62994,0.48169 0.73024,0.72556 0.0571,0.13887 0.0971,0.18309 0.16568,0.1832 0.17885,3.1e-4 0.54281,0.17145 0.73819,0.34711 0.44575,0.40078 0.61522,1.03581 0.40864,1.5314 -0.0742,0.178 -0.13657,0.25292 -0.30618,0.36774 -0.11715,0.0794 -0.2544,0.19936 -0.30499,0.26678 -0.0506,0.0674 -0.12776,0.15487 -0.17149,0.19435 -0.0438,0.0395 -0.072,0.0783 -0.0627,0.0864 0.0963,0.0841 0.85171,0.35974 1.29787,0.47365 0.40397,0.10314 0.84032,0.16326 1.02747,0.14158 0.0787,-0.009 0.19143,-0.0168 0.2506,-0.017 z m -11.8411,-0.25361 c -0.003,-0.0556 -0.0646,-0.22833 -0.13525,-0.3837 -0.11085,-0.24374 -0.13436,-0.27207 -0.17139,-0.20655 -0.0619,0.10954 -0.007,0.38847 0.11322,0.57024 0.11212,0.17017 0.20411,0.17969 0.19342,0.02 z m 8.85289,-0.11803 c 0,-0.0668 -0.013,-0.0706 -0.10214,-0.03 -0.12981,0.0591 -0.12979,0.0931 3e-5,0.10061 0.0746,0.004 0.10211,-0.0147 0.10211,-0.0707 z m -8.66225,-0.25026 c 0,-0.0605 -0.2061,-0.47806 -0.24914,-0.50466 -0.019,-0.0117 -0.0465,0.0266 -0.0611,0.0851 -0.0459,0.18261 0.16739,0.55253 0.2788,0.48367 0.0173,-0.0107 0.0315,-0.0395 0.0315,-0.0641 z m 9.1969,-0.31526 c 0.13151,-0.13316 0.30243,-0.2904 0.37982,-0.34942 0.18054,-0.13771 0.27048,-0.36591 0.27043,-0.68618 -6e-5,-0.48062 -0.30908,-0.93263 -0.79102,-1.15704 -0.24914,-0.11599 -0.37518,-0.12451 -0.41227,-0.0278 -0.0149,0.0389 -0.0123,0.0759 0.006,0.0821 0.11156,0.0385 0.46201,0.26417 0.46201,0.29742 0,0.0552 -0.008,0.0532 -0.23117,-0.0616 -0.10882,-0.0559 -0.24382,-0.10646 -0.30001,-0.11236 -0.0907,-0.01 -0.10151,0.003 -0.0965,0.11885 0.008,0.17433 0.17213,0.37943 0.49923,0.62244 0.14928,0.11091 0.32082,0.25368 0.3812,0.31728 0.1397,0.14719 0.21548,0.33791 0.15734,0.39605 -0.0293,0.0293 -0.0424,0.0272 -0.0424,-0.007 0,-0.10617 -0.0713,-0.0407 -0.11515,0.10575 -0.0471,0.15731 -0.32157,0.5592 -0.44537,0.65219 -0.0461,0.0347 -0.0508,0.0511 -0.0146,0.0511 0.0294,0 0.16103,-0.10894 0.29254,-0.24209 z m -7.24373,-0.0769 c 0.33125,-0.32263 0.90747,-0.58452 1.55499,-0.7067 l 0.25982,-0.049 -0.0266,-0.20833 c -0.10187,-0.79875 -0.51577,-2.38897 -0.70827,-2.7212 -0.13968,-0.24108 -0.4831,-0.58184 -0.69566,-0.69028 -0.38106,-0.19441 -0.9252,-0.19509 -1.10567,-8.4e-4 -0.071,0.0761 -0.075,0.0719 -0.14656,-0.1564 -0.0405,-0.1291 -0.1154,-0.31746 -0.16647,-0.41859 -0.0846,-0.16756 -0.44401,-0.68651 -0.50934,-0.73548 -0.015,-0.0112 -0.13422,-0.1634 -0.26496,-0.33815 -0.13073,-0.17474 -0.24574,-0.30968 -0.25557,-0.29985 -0.0453,0.0453 0.46725,0.9887 0.74616,1.37348 0.30667,0.42307 0.46814,0.69063 0.46814,0.77572 0,0.024 -0.0414,0.0614 -0.0919,0.0832 -0.0506,0.0218 -0.11951,0.0568 -0.15321,0.0777 -0.0337,0.0209 -0.0927,0.0476 -0.13114,0.0594 -0.1018,0.0313 -0.25674,0.36531 -0.34339,0.74034 -0.0528,0.22864 -0.075,0.4804 -0.0737,0.83763 0.002,0.46661 0.0132,0.5443 0.13445,0.89891 0.14476,0.42356 0.29693,0.71848 0.66935,1.29731 0.24318,0.37794 0.24318,0.37794 0.44055,0.37794 0.18059,0 0.21453,-0.0167 0.39903,-0.19641 z m 0.22835,-1.25338 c -0.34023,-0.20395 -0.62885,-0.78916 -0.62885,-1.27508 0,-0.98207 0.90782,-1.05565 1.37449,-0.11142 0.27868,0.56389 0.22679,1.19642 -0.11527,1.40497 -0.18539,0.11303 -0.4226,0.10608 -0.63037,-0.0185 z m 0.51067,-0.0462 c 0.009,-0.008 -0.0303,-0.031 -0.0866,-0.0525 -0.25464,-0.0968 -0.37106,-0.42415 -0.25705,-0.7227 0.0891,-0.23324 0.2164,-0.32046 0.42664,-0.29226 l 0.15847,0.0212 -0.0836,-0.20106 c -0.10851,-0.26111 -0.36275,-0.52553 -0.50529,-0.52553 -0.30986,0 -0.64941,0.39562 -0.6488,0.7559 4.1e-4,0.37229 0.3006,0.86457 0.61254,1.0053 0.13928,0.0628 0.31721,0.0682 0.38362,0.0116 z m -0.0604,-0.65433 c 0.0255,-0.0663 -0.038,-0.17869 -0.10074,-0.17869 -0.0458,0 -0.0904,0.15354 -0.0593,0.20394 0.0392,0.0634 0.13156,0.0489 0.16,-0.0253 z m -0.5544,-1.15846 c 0.12088,-0.0638 0.13239,-0.0793 0.0602,-0.0808 -0.15742,-0.003 -0.29667,0.0743 -0.38044,0.21169 -0.12586,0.20643 -0.0968,0.27267 0.0444,0.1013 0.0695,-0.0843 0.1936,-0.18879 0.2758,-0.23222 z m -0.81074,-0.20647 c 0,-0.47113 0.36008,-0.71898 0.81096,-0.5582 0.20436,0.0728 0.17646,0.12756 -0.0791,0.15504 -0.27628,0.0297 -0.43268,0.1356 -0.5691,0.38532 -0.0549,0.10043 -0.11392,0.18259 -0.13124,0.18259 -0.0173,0 -0.0315,-0.0741 -0.0315,-0.16475 z m 0.51636,-0.47364 0.15783,-0.0599 -0.15829,0.0205 c -0.16411,0.0213 -0.28855,0.10672 -0.36154,0.24828 -0.0313,0.0606 -0.01,0.0519 0.0809,-0.0334 0.0678,-0.0636 0.19429,-0.14254 0.2811,-0.17549 z m -1.71992,2.76609 c 0.0872,-0.50539 0.0982,-0.66569 0.0773,-1.12365 -0.0305,-0.66797 0.0369,-1.08049 0.25143,-1.53761 0.0839,-0.17874 0.14496,-0.33002 0.13573,-0.33617 -0.009,-0.006 -0.087,-0.0432 -0.17287,-0.0822 -0.15173,-0.069 -0.15913,-0.0686 -0.26464,0.0143 -0.27743,0.21822 -0.62188,0.85654 -0.72233,1.33858 -0.0686,0.32935 -0.0833,0.78387 -0.0253,0.78387 0.0203,0 0.0879,-0.0873 0.15004,-0.19407 0.15755,-0.27045 0.42108,-0.62312 0.46561,-0.62312 0.0892,0 0.0698,0.0978 -0.10474,0.52706 -0.24009,0.59046 -0.39099,1.18282 -0.37574,1.47507 l 0.0117,0.22473 0.09,-0.1682 c 0.1087,-0.20319 0.28974,-0.42427 0.34745,-0.42427 0.0438,0 0.0374,0.0386 -0.067,0.40573 -0.0506,0.1779 -0.054,0.25482 -0.0169,0.38817 0.0462,0.1663 0.0462,0.1663 0.0825,0.0438 0.0199,-0.0674 0.082,-0.38784 0.13788,-0.71205 z m 5.06337,0.003 c -0.0265,-0.42986 -0.12763,-1.2726 -0.1562,-1.30118 -0.008,-0.008 -0.0268,0.0882 -0.0417,0.21409 -0.11136,0.94752 -0.89977,0.87976 -1.08949,-0.0936 -0.0639,-0.3281 -0.0324,-0.84353 0.0637,-1.0403 0.0739,-0.15129 0.0739,-0.15141 -0.035,-0.3159 -0.12072,-0.18244 -0.25247,-0.23613 -0.44433,-0.18111 -0.22143,0.0635 -0.22403,0.1134 -0.0394,0.75511 0.17703,0.61518 0.39183,1.54671 0.43704,1.89537 0.0455,0.35143 0.027,0.33485 0.41154,0.36688 0.19171,0.0159 0.46235,0.0609 0.60142,0.0998 0.13908,0.0389 0.26777,0.063 0.28598,0.0535 0.0182,-0.009 0.0211,-0.21315 0.007,-0.45257 z m -0.82851,-0.63912 c -0.10327,-0.13129 -0.15045,-0.43691 -0.0866,-0.56074 0.14116,-0.27361 0.36682,-0.35716 0.52833,-0.19564 0.0817,0.0817 0.0817,0.0817 0.0817,-0.0228 0,-0.23281 -0.0922,-0.46824 -0.23101,-0.59016 -0.13562,-0.11907 -0.25931,-0.16012 -0.25931,-0.0861 0,0.0649 -0.12363,0.0861 -0.20525,0.0352 -0.0651,-0.0406 -0.0918,-0.0372 -0.1482,0.0191 -0.0541,0.054 -0.0687,0.14576 -0.0687,0.42823 7e-5,0.42401 0.0877,0.73053 0.26747,0.93523 0.14005,0.15951 0.24228,0.19116 0.12149,0.0376 z m 1.16693,-0.37844 c 0.36492,-0.27655 0.59914,-0.50052 0.52342,-0.50052 -0.0387,0 -0.0628,-0.023 -0.0536,-0.0511 0.0107,-0.0326 0.11826,-0.0555 0.29589,-0.0633 0.35619,-0.0156 0.75007,0.0991 1.165,0.3392 0.39073,0.22614 0.72649,0.32626 0.93147,0.27779 0.0829,-0.0196 0.15605,-0.0632 0.16254,-0.0968 0.007,-0.0336 -0.0546,-0.1387 -0.13571,-0.23348 -0.10502,-0.12269 -0.12881,-0.17229 -0.0826,-0.17229 0.0357,0 0.0963,0.0368 0.13484,0.0817 0.11364,0.13271 0.14128,0.0937 0.0544,-0.0767 -0.14307,-0.28043 -0.55848,-0.58519 -0.96274,-0.70628 -0.24631,-0.0738 -0.66052,-0.10566 -0.89504,-0.0689 -0.28413,0.0445 -0.42295,0.11176 -0.64619,0.31283 -0.0956,0.0861 -0.17438,0.13075 -0.18346,0.10398 -0.0445,-0.13149 -0.69133,0.40768 -0.65161,0.54319 0.0122,0.0417 0.0346,0.16311 0.0496,0.26986 0.0151,0.10674 0.0418,0.19408 0.0595,0.19408 0.0176,0 0.1231,-0.069 0.23429,-0.15323 z m -1.03463,-0.0783 c 0.0348,-0.0907 -0.0421,-0.16875 -0.10454,-0.10624 -0.05,0.05 -0.021,0.17435 0.0406,0.17435 0.0208,0 0.0495,-0.0306 0.0639,-0.0681 z m 6.17455,-0.85895 c -0.10282,-0.4097 -1.02308,-1.24501 -1.80797,-1.64109 -0.30497,-0.15388 -0.82468,-0.33289 -0.96652,-0.33289 -0.0564,0 -0.15427,0.02 -0.21752,0.0445 -0.11503,0.0445 -0.11503,0.0445 0.12818,0.16827 0.13377,0.068 0.30218,0.12928 0.37426,0.13597 0.15216,0.0142 0.30187,0.0857 0.30187,0.14426 0,0.062 0.73483,0.52304 0.91099,0.57161 0.10075,0.0278 0.18093,0.0853 0.22883,0.16402 0.0406,0.0667 0.24706,0.2648 0.45893,0.44026 0.53998,0.44721 0.63727,0.49761 0.58895,0.3051 z m -5.95003,-0.38652 c -0.11804,-0.23353 -0.13507,-0.2508 -0.17017,-0.17249 -0.0323,0.0721 -0.0138,0.11297 0.10807,0.23844 0.0809,0.0833 0.14705,0.17132 0.14705,0.1956 0,0.0243 0.0104,0.0337 0.0231,0.0211 0.0127,-0.0127 -0.0359,-0.13989 -0.10806,-0.28262 z m -0.33201,-0.25214 c 0.0263,-0.50219 -0.0838,-0.81544 -0.44181,-1.25561 -0.11347,-0.13954 -0.0701,-0.23193 0.13482,-0.2871 0.19876,-0.0535 0.45382,-0.0217 0.65739,0.0821 0.17026,0.0868 0.18797,0.0479 0.0678,-0.14922 -0.12752,-0.20913 -0.4129,-0.46493 -0.63457,-0.56877 -0.2574,-0.12059 -0.60961,-0.12754 -0.92012,-0.0182 -0.1223,0.0431 -0.23651,0.0696 -0.2538,0.0589 -0.0697,-0.0431 -0.0243,-0.25505 0.0951,-0.44324 0.0696,-0.10971 0.25344,-0.32692 0.4086,-0.48269 0.15515,-0.15577 0.28209,-0.302 0.28209,-0.32496 0,-0.0616 -0.34904,-0.0106 -0.61898,0.0904 -0.3465,0.12964 -0.73276,0.50234 -0.91648,0.8843 -0.0839,0.17445 -0.1711,0.30249 -0.20601,0.30249 -0.12357,0 -0.24447,-0.43808 -0.2923,-1.05906 -0.0358,-0.46544 -0.0908,-0.51136 -0.23496,-0.19641 -0.16376,0.3577 -0.19816,0.8364 -0.10766,1.4982 0.0365,0.26679 0.0305,0.28844 -0.0793,0.28844 -0.0878,0 -0.21844,-0.17697 -0.39193,-0.53084 l -0.13036,-0.26592 -0.003,0.21064 c -0.002,0.18066 0.024,0.25335 0.18261,0.51074 0.10177,0.16506 0.20381,0.37365 0.22675,0.46355 0.0229,0.0899 0.0487,0.18469 0.0573,0.21068 0.0115,0.0344 0.0635,0.0305 0.19206,-0.0143 0.27048,-0.0943 0.73295,-0.0547 1.00924,0.0863 0.26035,0.13291 0.57355,0.41508 0.67988,0.61252 0.076,0.1411 0.076,0.1411 0.18706,0.062 0.0611,-0.0435 0.18672,-0.0821 0.27917,-0.0857 0.21846,-0.009 0.37456,0.13478 0.53837,0.49437 0.15222,0.33413 0.20788,0.29252 0.23235,-0.17367 z m 0.19224,0.38079 c -0.0139,-0.0224 -0.0471,-0.0406 -0.074,-0.0402 -0.0293,3.7e-4 -0.0242,0.0164 0.0127,0.0402 0.0785,0.0508 0.0926,0.0508 0.0613,0 z m -3.67624,-0.90074 c 0.0145,-0.0235 -0.0579,-0.12703 -0.16102,-0.2301 -0.20352,-0.20353 -0.21276,-0.21816 -0.13634,-0.21623 0.0619,0.002 0.2223,0.14036 0.34731,0.30052 0.0506,0.0648 0.0919,0.0923 0.0918,0.0612 -1.5e-4,-0.0674 -0.0507,-0.14496 -0.52868,-0.81249 -0.24876,-0.3474 -0.42121,-0.64142 -0.53921,-0.91935 -0.25718,-0.60572 -0.29915,-0.63929 -0.34482,-0.27579 -0.0456,0.36333 0.0441,1.00457 0.18177,1.29876 0.16244,0.34713 0.33408,0.52499 0.66767,0.69188 0.30528,0.15272 0.37898,0.17048 0.42155,0.10158 z m 3.34905,-0.84872 c -0.18876,-0.0162 -0.21691,0.0105 -0.12192,0.11546 0.0748,0.0826 0.0748,0.0826 0.17379,-0.01 l 0.099,-0.0926 z m 0.48626,-0.72588 c 0.0374,-0.0975 0.0298,-0.5519 -0.0131,-0.77763 -0.0425,-0.22379 -0.11893,-0.44461 -0.14488,-0.41866 -0.009,0.009 -0.0275,0.15915 -0.0403,0.33282 -0.0127,0.17366 -0.0527,0.40245 -0.0886,0.50842 -0.0654,0.19267 -0.0654,0.19267 0.0706,0.30617 0.15725,0.13128 0.18257,0.137 0.21639,0.0489 z m -0.35887,-0.57674 c 0.0296,-0.15289 0.0545,-0.341 0.0553,-0.41802 8.5e-4,-0.12371 -0.021,-0.0951 -0.19124,0.24516 -0.10602,0.21186 -0.19826,0.39533 -0.205,0.40772 -0.0212,0.0389 0.21202,0.10882 0.25052,0.0751 0.0202,-0.0176 0.0609,-0.15713 0.0904,-0.31002 z"
         id="path170" />
    </g>
  </g>
</svg>
