<?xml version="1.0" encoding="UTF-8" standalone="no"?>
<!-- Created with Inkscape (http://www.inkscape.org/) -->

<svg
   width="41.008999mm"
   height="41.008999mm"
   viewBox="0 0 41.008999 41.008999"
   version="1.1"
   id="svg1"
   inkscape:version="1.4.2 (f4327f4, 2025-05-13)"
   sodipodi:docname="143.svg"
   xmlns:inkscape="http://www.inkscape.org/namespaces/inkscape"
   xmlns:sodipodi="http://sodipodi.sourceforge.net/DTD/sodipodi-0.dtd"
   xmlns="http://www.w3.org/2000/svg"
   xmlns:svg="http://www.w3.org/2000/svg">
  <sodipodi:namedview
     id="namedview1"
     pagecolor="#ffffff"
     bordercolor="#000000"
     borderopacity="0.25"
     inkscape:showpageshadow="2"
     inkscape:pageopacity="0.0"
     inkscape:pagecheckerboard="0"
     inkscape:deskcolor="#d1d1d1"
     inkscape:document-units="mm"
     inkscape:zoom="1.5878906"
     inkscape:cx="108.3198"
     inkscape:cy="200.26568"
     inkscape:window-width="1050"
     inkscape:window-height="1081"
     inkscape:window-x="3737"
     inkscape:window-y="0"
     inkscape:window-maximized="0"
     inkscape:current-layer="layer1" />
  <defs
     id="defs1" />
  <g
     inkscape:label="Layer 1"
     inkscape:groupmode="layer"
     id="layer1"
     transform="translate(-0.7937635,-0.79375582)">
    <g
       id="g11685"
       transform="translate(217.44905,227.5557)">
      <path
         style="fill:#000000;stroke-width:0.1;stroke-dasharray:none"
         d="m -205.31365,-194.76319 c 0,-0.018 0.0687,-0.13732 0.15272,-0.26511 0.62154,-0.94555 1.66988,-1.58949 3.12264,-1.91807 0.36974,-0.0836 0.54285,-0.0901 2.84329,-0.10578 l 2.44957,-0.0168 v -9.2017 -9.2017 h -3.18127 c -1.7497,0 -3.18065,0.0143 -3.1799,0.0318 7.5e-4,0.0175 0.8387,3.15263 1.86209,6.96697 l 1.86071,6.93517 -0.1336,0.25312 c -0.27502,0.5211 -1.10322,1.2234 -1.82415,1.54685 -0.38161,0.17123 -0.99388,0.36319 -1.44983,0.45458 -0.58975,0.1182 -1.87767,0.10834 -2.51221,-0.0192 -1.44951,-0.29141 -2.63161,-1.01908 -3.20653,-1.97383 l -0.14065,-0.23353 0.41245,-1.54098 c 0.46895,-1.75204 1.2444,-4.64721 2.55739,-9.54815 0.49859,-1.86105 0.91755,-3.39475 0.93103,-3.40823 0.0135,-0.0135 0.9858,-0.0228 2.16072,-0.0209 l 2.13623,0.003 0.25252,-0.2566 c 0.69875,-0.71004 1.6951,-1.20545 2.86137,-1.42275 0.50249,-0.0936 1.77517,-0.10681 2.24789,-0.0233 1.21636,0.21489 2.12977,0.63961 2.86199,1.33077 l 0.39104,0.36911 2.13415,-0.002 c 1.74199,-0.002 2.13984,0.009 2.16513,0.0551 0.017,0.0312 0.12756,0.41952 0.24561,0.86278 0.11805,0.44326 0.53167,1.98936 0.91915,3.43578 0.38747,1.44641 0.9703,3.6224 1.29518,4.83552 0.32487,1.21313 0.77911,2.90805 1.00941,3.7665 l 0.41874,1.56083 -0.14147,0.23493 c -0.5742,0.95355 -1.76189,1.68768 -3.18458,1.96844 -1.52128,0.30021 -3.23588,0.0407 -4.4377,-0.67177 -0.61442,-0.36423 -1.16621,-0.89973 -1.40497,-1.36348 l -0.097,-0.18842 0.15843,-0.59629 c 0.0871,-0.32796 0.92442,-3.45367 1.86063,-6.94602 0.93622,-3.49235 1.70222,-6.36027 1.70222,-6.37314 0,-0.0128 -1.43158,-0.0234 -3.18128,-0.0234 h -3.18126 v 9.20197 9.20197 l 2.44957,0.0162 c 2.30513,0.0152 2.47279,0.0214 2.84328,0.10551 1.45817,0.33099 2.5778,1.02406 3.14249,1.94526 0.0731,0.11923 0.13287,0.22898 0.13287,0.24389 0,0.0149 -4.12292,0.0272 -9.16206,0.0272 -5.03912,0 -9.16205,-0.0148 -9.16205,-0.0328 z m 1.01514,-13.6997 c -0.002,-4.08231 -0.0184,-6.9108 -0.0405,-6.86094 -0.0298,0.0671 -3.56175,13.24126 -3.67029,13.69007 l -0.0282,0.11664 h 1.87095 1.87094 z m 4.27291,6.8224 c -0.0136,-0.0678 -0.81898,-3.08847 -1.7898,-6.71248 -0.9708,-3.62401 -1.7866,-6.675 -1.81286,-6.77998 -0.0262,-0.10498 -0.0583,-0.20424 -0.0712,-0.22057 -0.0158,-0.02 -0.0188,13.5732 -0.003,13.8258 3.8e-4,0.006 0.83336,0.0106 1.8511,0.0106 h 1.85044 l -0.0247,-0.12337 z m 11.45323,-6.83301 c 0.005,-4.30529 -0.008,-6.90299 -0.0317,-6.85033 -0.0217,0.0467 -0.4866,1.755 -1.03308,3.79632 -0.54649,2.04131 -1.36732,5.10686 -1.82407,6.81234 -0.45675,1.70547 -0.83046,3.12293 -0.83046,3.14991 0,0.0365 0.47344,0.0463 1.85575,0.038 l 1.85574,-0.0111 z m 4.29752,6.92031 c 0,-0.0198 -0.5163,-1.962 -1.14731,-4.31592 -0.63103,-2.35392 -1.45252,-5.42511 -1.82554,-6.82487 -0.37301,-1.39976 -0.69529,-2.58319 -0.71615,-2.62985 -0.0225,-0.0503 -0.0391,2.73873 -0.0408,6.86094 l -0.002,6.94577 h 1.86634 c 1.0265,0 1.86635,-0.0163 1.86635,-0.0361 z"
         id="path7916"
         sodipodi:nodetypes="sssscccssscssssscsssscssssccssssscsssscsssscccsssssssssscccsssssssccssssssscsssssscss" />
      <circle
         style="fill:none;stroke:#ff0000;stroke-width:0.1;stroke-dasharray:none"
         id="path788-8-1-8-1-9-2-2-9-1"
         cx="-196.15079"
         cy="-206.25745"
         r="19.954653" />
      <ellipse
         style="fill:none;stroke:#ff00ff;stroke-width:0.1;stroke-dasharray:none;stroke-opacity:1"
         id="path1138-9-4-0-0-1-2-8-1-8"
         cx="-196.15079"
         cy="-206.25745"
         rx="18.492125"
         ry="18.492126" />
      <circle
         style="fill:none;stroke:#0000ff;stroke-width:0.1;stroke-linecap:round;stroke-dasharray:none;stroke-opacity:1;paint-order:markers stroke fill"
         id="path13019-1-33-4-5-5"
         cx="-196.15079"
         cy="-221.26842"
         r="2" />
    </g>
  </g>
</svg>
