<?xml version="1.0" encoding="UTF-8" standalone="no"?>
<!-- Created with Inkscape (http://www.inkscape.org/) -->

<svg
   width="41.008999mm"
   height="41.008999mm"
   viewBox="0 0 41.008999 41.008999"
   version="1.1"
   id="svg1"
   inkscape:version="1.4.2 (f4327f4, 2025-05-13)"
   sodipodi:docname="184.svg"
   xmlns:inkscape="http://www.inkscape.org/namespaces/inkscape"
   xmlns:sodipodi="http://sodipodi.sourceforge.net/DTD/sodipodi-0.dtd"
   xmlns="http://www.w3.org/2000/svg"
   xmlns:svg="http://www.w3.org/2000/svg">
  <sodipodi:namedview
     id="namedview1"
     pagecolor="#ffffff"
     bordercolor="#000000"
     borderopacity="0.25"
     inkscape:showpageshadow="2"
     inkscape:pageopacity="0.0"
     inkscape:pagecheckerboard="0"
     inkscape:deskcolor="#d1d1d1"
     inkscape:document-units="mm"
     inkscape:zoom="1.5878906"
     inkscape:cx="108.3198"
     inkscape:cy="200.26568"
     inkscape:window-width="1050"
     inkscape:window-height="1081"
     inkscape:window-x="3737"
     inkscape:window-y="0"
     inkscape:window-maximized="0"
     inkscape:current-layer="layer1" />
  <defs
     id="defs1" />
  <g
     inkscape:label="Layer 1"
     inkscape:groupmode="layer"
     id="layer1"
     transform="translate(-0.7937635,-0.79375582)">
    <g
       id="g15626"
       transform="translate(-54.477875,126.27132)">
      <path
         style="fill:#000000;stroke-width:0.1;stroke-dasharray:none"
         d="m 74.754359,-91.41109 c -0.55869,-0.15505 -0.93295,-0.36338 -1.15115,-0.64078 -0.16126,-0.20499 -0.18619,-0.35884 -0.18619,-1.14878 0,-1.03168 0.0968,-1.24661 0.69939,-1.55217 0.89624,-0.45449 2.68911,-0.49243 3.59842,-0.0761 0.84843,0.38843 0.87324,0.43582 0.87324,1.66834 v 1.06533 l -0.30932,0.23593 c -0.5013,0.38236 -1.27578,0.57671 -2.26186,0.56758 -0.47373,-0.004 -1.04187,-0.0581 -1.26253,-0.11932 z m 1.6271,-1.27533 c -0.20841,-0.0188 -0.54943,-0.0188 -0.75783,0 -0.2084,0.0188 -0.0379,0.0341 0.37892,0.0341 0.4168,0 0.58731,-0.0154 0.37891,-0.0341 z m -1.29462,-0.0777 c -0.0296,-0.0296 -0.10653,-0.0328 -0.17088,-0.007 -0.0711,0.0285 -0.05,0.0496 0.0539,0.0539 0.094,0.004 0.14664,-0.0172 0.11702,-0.0468 z m 2.05058,0 c -0.0296,-0.0296 -0.10652,-0.0328 -0.17088,-0.007 -0.0711,0.0285 -0.05,0.0496 0.0539,0.0539 0.094,0.004 0.14664,-0.0172 0.11701,-0.0468 z m -2.40721,-0.0892 c -0.0296,-0.0296 -0.10652,-0.0328 -0.17088,-0.007 -0.0711,0.0285 -0.05,0.0496 0.0539,0.0539 0.094,0.004 0.14664,-0.0172 0.11701,-0.0468 z M 62.89837,-93.49654 c -0.58144,-0.0414 -0.62642,-0.10941 -0.62197,-0.94092 0.005,-0.92046 0.10856,-1.4562 0.32316,-1.6708 0.15991,-0.15991 0.26175,-0.16496 1.860209,-0.0924 2.10154,0.0954 3.71116,0.005 4.26369,-0.23933 0.21856,-0.0967 0.55887,-0.34219 0.75625,-0.54558 0.34306,-0.35349 5.74196,-8.77954 5.74385,-8.96441 6.8e-4,-0.049 -1.64299,-2.73761 -3.6522,-5.97461 -2.00922,-3.23699 -3.69714,-5.96771 -3.75095,-6.06825 -0.12296,-0.22975 0.047,-0.61729 0.27073,-0.61729 0.1414,0 1.73214,2.46008 6.38359,9.87222 0.66867,1.06554 1.24279,1.93815 1.27583,1.93914 0.033,0.001 0.57155,-0.81063 1.19669,-1.8036 3.23938,-5.14542 6.05111,-9.58945 6.20496,-9.80716 0.0953,-0.13484 0.22585,-0.24517 0.29011,-0.24517 0.15194,0 0.35436,0.48961 0.26502,0.641 -0.14165,0.23999 -2.46465,3.99377 -4.92253,7.95439 -2.30981,3.72202 -2.52971,4.10992 -2.42608,4.27949 1.54476,2.52773 5.31423,8.39456 5.59215,8.70368 0.55579,0.61817 1.05572,0.80093 2.40645,0.87972 0.6098,0.0356 1.83396,0.0339 2.72037,-0.004 1.00512,-0.0427 1.67226,-0.036 1.77273,0.0178 0.21432,0.11471 0.33457,0.58257 0.39968,1.55519 0.0753,1.12433 0.0673,1.132 -1.17211,1.12529 -1.43486,-0.008 -3.03289,-0.25749 -4.45262,-0.69577 -1.35971,-0.41975 -1.14557,-0.15255 -4.67561,-5.83415 -1.73294,-2.78916 -3.17521,-5.07006 -3.20504,-5.06867 -0.0298,0.001 -1.39826,2.17469 -3.04096,4.82955 -1.6427,2.65487 -3.09012,4.97067 -3.21649,5.14623 -0.12637,0.17557 -0.43105,0.42864 -0.67707,0.56239 -1.09032,0.59277 -4.3359,1.17786 -5.911839,1.06574 z"
         id="path8681" />
      <circle
         style="fill:none;stroke:#ff0000;stroke-width:0.1;stroke-dasharray:none"
         id="path788-8-1-8-1-9-2-56-8-1-7-71-3"
         cx="75.776138"
         cy="-104.97307"
         r="19.954653" />
      <ellipse
         style="fill:none;stroke:#ff00ff;stroke-width:0.1;stroke-dasharray:none;stroke-opacity:1"
         id="path1138-9-4-0-0-1-2-4-9-7-82-6-75"
         cx="75.776138"
         cy="-104.97307"
         rx="18.492125"
         ry="18.492126" />
      <circle
         style="fill:none;stroke:#0000ff;stroke-width:0.1;stroke-linecap:round;stroke-dasharray:none;stroke-opacity:1;paint-order:markers stroke fill"
         id="path13019-1-33-6-2-4-0-0-76"
         cx="75.776138"
         cy="-119.98404"
         r="2" />
    </g>
  </g>
</svg>
