<?xml version="1.0" encoding="UTF-8" standalone="no"?>
<!-- Created with Inkscape (http://www.inkscape.org/) -->

<svg
   width="41.008999mm"
   height="41.008999mm"
   viewBox="0 0 41.008999 41.009"
   version="1.1"
   id="svg1"
   inkscape:version="1.4.2 (f4327f4, 2025-05-13)"
   sodipodi:docname="262.svg"
   xmlns:inkscape="http://www.inkscape.org/namespaces/inkscape"
   xmlns:sodipodi="http://sodipodi.sourceforge.net/DTD/sodipodi-0.dtd"
   xmlns="http://www.w3.org/2000/svg"
   xmlns:svg="http://www.w3.org/2000/svg">
  <sodipodi:namedview
     id="namedview1"
     pagecolor="#ffffff"
     bordercolor="#000000"
     borderopacity="0.25"
     inkscape:showpageshadow="2"
     inkscape:pageopacity="0.0"
     inkscape:pagecheckerboard="0"
     inkscape:deskcolor="#d1d1d1"
     inkscape:document-units="mm"
     inkscape:zoom="2.8970539"
     inkscape:cx="84.223494"
     inkscape:cy="68.000116"
     inkscape:window-width="1168"
     inkscape:window-height="1081"
     inkscape:window-x="3737"
     inkscape:window-y="0"
     inkscape:window-maximized="0"
     inkscape:current-layer="layer1" />
  <defs
     id="defs1" />
  <g
     inkscape:label="Layer 1"
     inkscape:groupmode="layer"
     id="layer1"
     transform="translate(-114.0891,-77.774176)">
    <g
       id="g22"
       transform="translate(-525.04062,302.6129)">
      <circle
         style="fill:none;stroke:#ff0000;stroke-width:0.1;stroke-dasharray:none"
         id="path788-8-1-8-1-9-2-6-3-4-7-1-6-1-0-8-8-4"
         cx="659.63422"
         cy="-204.33423"
         r="19.954653" />
      <circle
         style="fill:none;stroke:#0000ff;stroke-width:0.1;stroke-linecap:round;stroke-dasharray:none;stroke-opacity:1;paint-order:markers stroke fill"
         id="path13019-1-33-3-83-70-3-7-5-9-5-4-3-1"
         cx="659.63422"
         cy="-219.3452"
         r="2" />
      <path
         style="fill:#000000;stroke-width:0.1;stroke-dasharray:none"
         d="m 657.4568,-187.70249 c 0.41354,-0.1235 0.69394,-0.27371 0.71486,-0.38296 0.0142,-0.0741 -0.0531,-0.10288 -0.31934,-0.13606 -0.18553,-0.0232 -0.44207,-0.0763 -0.57008,-0.1181 -0.22192,-0.0725 -0.20278,-0.0763 0.41129,-0.0822 0.77001,-0.008 1.09247,-0.0922 1.60045,-0.42141 0.56278,-0.36472 1.01171,-0.5588 1.39572,-0.60336 0.34073,-0.0396 0.34556,-0.0427 0.34556,-0.22429 0,-0.11497 -0.0785,-0.30073 -0.20895,-0.49443 -0.27905,-0.41437 -0.35501,-0.61121 -0.39612,-1.02646 l -0.0345,-0.34912 0.15005,0.32003 c 0.0825,0.17601 0.20956,0.39857 0.28232,0.49458 0.40448,0.53375 0.49001,1.01052 0.23167,1.2914 -0.0826,0.0898 -0.13341,0.13053 -0.11295,0.0906 0.0614,-0.12001 -0.10363,-0.0838 -0.48403,0.10631 -0.37463,0.1872 -0.42726,0.28177 -0.29467,0.52951 0.0536,0.1002 0.10009,0.11329 0.29195,0.0826 0.25019,-0.04 0.5333,0.009 0.48707,0.0831 -0.044,0.0712 0.37628,0.3959 0.56653,0.43768 0.10309,0.0226 0.20242,0.006 0.26086,-0.0413 0.0796,-0.0657 0.09,-0.0648 0.0668,0.005 -0.0151,0.0459 -0.12029,0.13153 -0.23361,0.19034 -0.42888,0.22257 -0.93961,0.2803 -2.72525,0.3081 -1.58884,0.0248 -1.69486,0.0203 -1.42556,-0.0602 z m 0.88505,-0.25979 c -0.0301,-0.11509 -0.029,-0.11514 0.11154,-0.004 0.12027,0.0946 0.21054,0.10756 0.59094,0.0848 0.4353,-0.026 1.12002,-0.14621 1.51478,-0.26608 0.16842,-0.0512 0.36788,-0.29397 0.2965,-0.36095 -0.0132,-0.0123 -0.16295,0.006 -0.33278,0.0415 -0.38303,0.0794 -0.49905,0.02 -0.52369,-0.26833 l -0.0179,-0.20898 -0.44044,0.28753 c -0.42785,0.27931 -0.88835,0.46222 -1.16362,0.46222 -0.0777,0 -0.1349,0.035 -0.1349,0.0825 0,0.0454 -0.0159,0.12394 -0.0353,0.17456 -0.0238,0.062 -0.002,0.0921 0.065,0.0921 0.0717,0 0.0916,-0.0333 0.0698,-0.11629 z m 2.79377,0.0206 c 0.1672,-0.0201 0.29003,-0.0591 0.27295,-0.0868 -0.0171,-0.0277 -0.0737,-0.0502 -0.1257,-0.0502 -0.052,0 -0.15525,-0.057 -0.22931,-0.12652 -0.0758,-0.0712 -0.13468,-0.0955 -0.13468,-0.0554 0,0.0392 -0.0693,0.13532 -0.15395,0.21381 -0.17613,0.16322 -0.15726,0.16857 0.37069,0.10513 z m -4.28746,0.18578 c -0.0826,-0.0994 -0.0371,-0.28037 0.0982,-0.39029 0.0847,-0.0689 0.09,-0.0644 0.0456,0.0384 -0.0277,0.064 -0.0523,0.18838 -0.0545,0.27638 -0.005,0.18732 1.4e-4,0.18308 -0.0891,0.0755 z m 0.0234,-0.87559 c 0.0761,-0.32719 0.23845,-0.51674 0.73204,-0.85458 0.27131,-0.18569 0.56631,-0.43544 0.65556,-0.55499 0.20273,-0.27153 0.34137,-0.73795 0.35159,-1.18281 0.013,-0.56558 0.12618,-0.22356 0.12618,0.38131 0,0.47278 -0.017,0.55442 -0.17456,0.83999 -0.17946,0.3252 -0.47453,0.57383 -1.13268,0.95441 -0.17494,0.10117 -0.38122,0.27558 -0.45839,0.38759 l -0.14031,0.20364 z m 4.2628,-0.22954 c -0.0179,-0.11025 -0.0107,-0.2739 0.0165,-0.36367 0.0394,-0.13118 0.05,-0.0918 0.054,0.20046 0.005,0.40459 -0.0212,0.46666 -0.0705,0.16321 z m -2.01655,-2.73598 c -0.10695,-0.079 -0.22334,-0.15389 -0.25859,-0.16659 -0.0353,-0.0127 -0.0479,-0.0408 -0.0279,-0.0624 0.0199,-0.0217 0.15084,6.6e-4 0.29093,0.0494 0.1401,0.0488 0.4511,0.0905 0.69112,0.0928 l 0.43639,0.004 -0.26183,0.10988 c -0.36785,0.15435 -0.63546,0.14601 -0.87013,-0.0271 z m 0.74033,-0.48331 c -0.24615,-0.37196 -0.37114,-0.65851 -0.56419,-1.29335 -0.1197,-0.39365 -0.3997,-1.03523 -0.78723,-1.80378 -0.52749,-1.04609 -0.84624,-1.80029 -0.84624,-2.00225 0,-0.0345 0.35408,0.57851 0.78685,1.36244 0.6412,1.1615 0.82521,1.54919 0.9941,2.09447 0.11399,0.36802 0.295,0.93753 0.40224,1.26555 0.10728,0.32803 0.18705,0.59641 0.17735,0.59641 -0.01,0 -0.083,-0.0988 -0.16288,-0.21949 z m -1.50522,-0.14464 c -0.31697,-0.39727 -1.08598,-1.48359 -1.29083,-1.82349 -0.1176,-0.19512 -0.29606,-0.54861 -0.39657,-0.78552 -0.10051,-0.23691 -0.31014,-0.60095 -0.46584,-0.80897 -0.24884,-0.33245 -0.56038,-1.0239 -0.49209,-1.09219 0.0135,-0.0135 0.0762,0.0761 0.13921,0.19921 0.063,0.12311 0.28413,0.42747 0.49135,0.67637 0.20721,0.24889 0.42315,0.57618 0.47986,0.72733 0.18595,0.49563 0.44195,0.96195 0.93432,1.70198 0.39017,0.58645 0.83393,1.39486 0.76567,1.39485 -0.008,0 -0.0819,-0.0853 -0.16508,-0.18957 z m 11.78518,-3.33982 c -0.18664,-0.20139 -0.13114,-0.25133 0.0942,-0.0848 0.0972,0.0719 0.22595,0.13434 0.28619,0.13887 0.15967,0.012 0.0784,0.10052 -0.0923,0.10052 -0.082,0 -0.20695,-0.0671 -0.28807,-0.15458 z m -1.03977,-0.10797 c -0.15121,-0.0805 -0.39434,-0.23736 -0.54028,-0.3488 -0.34728,-0.26516 -1.35347,-0.76206 -1.77476,-0.87644 -0.18285,-0.0497 -0.39232,-0.14253 -0.46549,-0.20641 -0.11341,-0.099 -0.11587,-0.10826 -0.0166,-0.0626 0.064,0.0294 0.30648,0.0704 0.53882,0.091 0.71841,0.0638 1.27569,0.34104 1.99198,0.99104 0.20818,0.18891 0.45707,0.39174 0.55308,0.45073 0.26473,0.16263 0.033,0.13152 -0.2867,-0.0385 z m 0.66712,-0.0575 c 0.0293,-0.12801 0.0539,-0.47625 0.0546,-0.77386 10e-4,-0.61079 -0.0505,-0.75574 -0.42212,-1.17539 -0.22429,-0.25327 -0.39132,-0.55705 -0.39087,-0.71091 1.1e-4,-0.041 0.0502,0.008 0.11138,0.10772 0.11939,0.1958 0.33349,0.37045 0.45411,0.37045 0.0409,0 0.0743,-0.0635 0.0743,-0.14125 0,-0.147 -0.23977,-0.38243 -0.38949,-0.38243 -0.0456,0 -0.0667,-0.0262 -0.0469,-0.0581 0.11129,-0.18008 0.56704,0.0499 0.63492,0.32029 0.0411,0.16362 -0.0568,0.40053 -0.14326,0.34705 -0.12252,-0.0757 -0.0443,0.0778 0.11966,0.2349 0.19078,0.18278 0.28973,0.45709 0.29024,0.80456 2.2e-4,0.15269 0.0233,0.21528 0.0731,0.1984 0.0507,-0.0172 0.0727,-0.17833 0.0727,-0.5334 0,-0.50643 -8.8e-4,-0.50959 -0.20036,-0.68768 l -0.20035,-0.17891 0.24399,0.039 c 0.24117,0.0385 0.244,0.037 0.244,-0.13623 0,-0.0963 0.0196,-0.17523 0.0437,-0.17521 0.0857,1e-4 0.32228,1.70231 0.29708,2.13724 -0.0322,0.55542 -0.13684,0.66433 -0.13775,0.14334 -4.4e-4,-0.21427 -0.0212,-0.46451 -0.0463,-0.55611 -0.0416,-0.15166 -0.0545,-0.1587 -0.14479,-0.0787 -0.0545,0.0483 -0.15144,0.0982 -0.21545,0.1108 -0.10127,0.0201 -0.0937,0.0341 0.0581,0.10824 0.13719,0.0669 0.17822,0.12876 0.19165,0.28849 l 0.0171,0.20324 -0.10438,-0.20018 c -0.0574,-0.11011 -0.13428,-0.20953 -0.17082,-0.22096 -0.0372,-0.0116 -0.11114,0.1213 -0.16785,0.30161 -0.0558,0.17732 -0.13554,0.36839 -0.17725,0.42462 -0.0643,0.0866 -0.0677,0.0666 -0.0226,-0.13053 z m -14.63514,-1.79525 c -0.62732,-0.62731 -0.98813,-1.40918 -1.46737,-3.17968 -0.0518,-0.19139 0.36357,0.64701 0.59945,1.20996 0.29161,0.69593 0.52073,1.13373 0.94258,1.80118 0.16689,0.26402 0.28844,0.48003 0.27013,0.48003 -0.0184,0 -0.17347,-0.14017 -0.34479,-0.31149 z m 11.12235,0.15634 c -0.0859,-0.0859 -0.0292,-0.34197 0.14177,-0.64084 0.1046,-0.18275 0.16808,-0.36329 0.15092,-0.42893 -0.0354,-0.13523 0.0481,-0.15325 0.0987,-0.0213 0.0779,0.20306 0.0254,0.41684 -0.16983,0.69144 -0.11282,0.1587 -0.19219,0.32227 -0.17638,0.36349 0.0316,0.0824 0.0147,0.096 -0.0452,0.0361 z m -8.99334,-0.58057 c -0.11738,-0.39905 -0.20037,-0.91387 -0.27066,-1.67901 l -0.0374,-0.4073 -0.4084,-0.31923 c -0.52051,-0.40687 -1.16475,-0.99624 -1.12856,-1.03243 0.0398,-0.0398 0.96985,0.57407 1.52556,1.00697 0.2597,0.2023 0.77029,0.64541 1.13463,0.98469 0.73633,0.68564 1.42346,1.1746 2.01555,1.43427 l 0.3925,0.17212 -0.28864,-0.0377 c -0.68487,-0.0893 -1.32095,-0.45504 -2.14277,-1.23227 -0.82441,-0.77967 -0.91028,-0.85447 -0.94314,-0.82161 -0.0168,0.0168 0.009,0.14057 0.0557,0.275 0.0836,0.23679 0.28776,1.98059 0.23779,2.03055 -0.0136,0.0136 -0.0776,-0.15475 -0.14208,-0.37415 z m 6.68529,0.29547 c -0.30402,-0.0424 -1.19348,-0.0957 -1.97658,-0.1186 -1.32192,-0.0386 -1.40727,-0.0475 -1.19281,-0.12343 0.33252,-0.11779 1.41147,-0.15824 2.12203,-0.0795 0.33604,0.0372 1.09666,0.11801 1.69029,0.17956 0.59363,0.0616 1.14349,0.13752 1.22192,0.16883 0.217,0.0867 -1.19592,0.0663 -1.86485,-0.0268 z m 6.03974,-0.50236 c 0.0384,-0.0384 0.0698,-0.13004 0.0698,-0.20366 0,-0.0736 0.0223,-0.13383 0.0496,-0.13383 0.0272,0 0.0444,0.072 0.0382,0.16002 -0.0168,0.2387 -0.0213,0.24729 -0.12844,0.24729 -0.0769,0 -0.0833,-0.0155 -0.0291,-0.0698 z m -3.13042,-0.33151 c 0,-0.0288 0.16579,-0.0811 0.36843,-0.11638 0.43136,-0.0751 1.79833,-0.0846 1.66809,-0.0117 -0.24904,0.1396 -2.03652,0.25201 -2.03652,0.12807 z m -0.90543,-0.26968 c -0.19396,-0.0426 -0.62598,-0.18107 -0.96007,-0.3077 -0.88917,-0.33704 -1.18054,-0.38686 -2.12027,-0.3625 -1.58477,0.0411 -1.73171,0.0351 -1.94924,-0.0794 -0.11201,-0.059 -0.40003,-0.30887 -0.64005,-0.55534 -0.54861,-0.56337 -1.75583,-2.14296 -1.52772,-1.99896 0.38846,0.24522 0.58095,0.42671 1.03474,0.97561 0.63575,0.769 1.10948,1.22672 1.39039,1.34343 0.20381,0.0847 0.31406,0.087 1.0281,0.0221 0.86443,-0.0786 1.66243,-0.0227 2.27956,0.15967 0.28194,0.0833 2.0055,0.89739 1.8754,0.88577 -0.032,-0.003 -0.21687,-0.04 -0.41084,-0.0826 z m -15.41584,-1.92703 c -0.096,-0.0503 -0.31858,-0.23165 -0.49459,-0.40309 -0.17602,-0.17145 -0.42476,-0.36389 -0.55276,-0.42766 -0.20132,-0.1003 -0.21311,-0.11591 -0.0873,-0.11571 0.23466,4.4e-4 0.52583,0.12942 0.9492,0.42066 0.42679,0.29359 0.56828,0.32169 0.94186,0.1871 0.128,-0.0461 0.41155,-0.085 0.63009,-0.0864 0.57771,-0.003 2.4113,-0.2821 2.70045,-0.41001 0.13613,-0.0602 0.39653,-0.23088 0.57867,-0.37925 0.64364,-0.52431 1.32518,-0.76297 2.02579,-0.70937 0.40556,0.031 0.95229,0.19867 1.16721,0.3579 0.1016,0.0753 0.0897,0.0783 -0.11986,0.0305 -0.34694,-0.0793 -1.16985,-0.065 -1.60849,0.028 -0.47315,0.1003 -0.77105,0.24833 -1.2681,0.63022 -0.21001,0.16134 -0.48658,0.33946 -0.61459,0.39581 -0.28051,0.12348 -2.19031,0.40286 -2.75393,0.40286 -0.22142,0 -0.51391,0.0393 -0.64996,0.0873 -0.31445,0.11094 -0.62112,0.10776 -0.84371,-0.009 z m 0.57803,-1.15498 c 0.0967,-0.44054 0.33215,-0.78258 0.88951,-1.29221 0.30771,-0.28136 0.72864,-0.67735 0.9354,-0.87999 0.33459,-0.32792 0.37152,-0.35031 0.33598,-0.20365 -0.0693,0.286 -0.41357,0.7425 -0.82692,1.09654 -0.67092,0.57469 -1.01617,0.91815 -1.19823,1.19203 -0.15809,0.23781 -0.17054,0.24582 -0.13574,0.0873 z m 2.27213,-0.93048 c 0.0839,-0.19175 0.26515,-0.54523 0.40288,-0.78552 0.13775,-0.24029 0.26754,-0.47617 0.28844,-0.52417 0.0209,-0.0479 0.0258,0.0512 0.0108,0.22028 -0.0321,0.3644 -0.22634,0.74029 -0.59267,1.1471 l -0.26198,0.29093 z m 4.93652,0.10137 c -0.0504,-0.12001 -0.14242,-0.40148 -0.20449,-0.6255 -0.0621,-0.22402 -0.25581,-0.67426 -0.43053,-1.00052 -0.26165,-0.4886 -0.55831,-1.16038 -0.46878,-1.06155 0.47258,0.52168 0.90058,1.07971 1.00141,1.30565 0.094,0.21044 0.14032,0.45869 0.1677,0.89742 0.0208,0.33356 0.0512,0.62813 0.0676,0.65459 0.0163,0.0265 0.0137,0.0481 -0.005,0.0481 -0.0195,0 -0.0767,-0.0982 -0.12713,-0.21819 z m -7.95142,-0.82262 c 0.32109,-0.14957 0.95446,-0.58861 1.71496,-1.1888 0.56901,-0.44905 0.87594,-0.63844 1.2775,-0.78825 0.1356,-0.0506 0.15479,-0.0954 0.18658,-0.43581 0.0852,-0.91191 0.45037,-1.77573 1.04484,-2.47123 0.55203,-0.64585 1.64039,-1.60829 2.07748,-1.83712 0.5894,-0.30857 0.99197,-0.40462 1.53861,-0.36716 0.45383,0.0311 0.47177,0.0274 0.6918,-0.14696 0.12422,-0.0984 0.24805,-0.23376 0.27516,-0.30081 0.048,-0.11864 0.0494,-0.1183 0.053,0.0129 0.005,0.18994 -0.09,0.34425 -0.27096,0.43905 l -0.15536,0.0814 0.22955,0.11767 c 0.12625,0.0647 0.29122,0.18378 0.36661,0.26456 l 0.13706,0.14686 -0.24131,-0.11939 c -0.13272,-0.0657 -0.25476,-0.10588 -0.27119,-0.0895 -0.0164,0.0164 0.10902,0.23469 0.2788,0.485 l 0.30869,0.45512 0.0291,-2.16036 c 0.016,-1.18819 0.0487,-2.17996 0.0727,-2.20393 0.024,-0.0239 0.0437,0.0328 0.0437,0.12615 2e-5,0.0933 0.0414,0.36609 0.092,0.60611 0.0717,0.34033 0.0941,0.85905 0.1018,2.35655 l 0.01,1.92015 -0.15031,0.32002 c -0.12095,0.25751 -0.63521,0.90259 -0.63521,0.7968 0,-0.015 0.0778,-0.1939 0.17295,-0.3975 0.0973,-0.20832 0.19967,-0.55937 0.23405,-0.80276 l 0.0611,-0.43256 -0.28102,-0.24582 c -0.24842,-0.21731 -0.38598,-0.43655 -0.50309,-0.8018 -0.0322,-0.10031 -0.0898,-0.10707 -0.72109,-0.0845 -0.64014,0.0229 -0.71519,0.0383 -1.11917,0.23047 -0.54755,0.26049 -1.16134,0.75411 -1.90112,1.52896 -0.86986,0.91108 -1.08171,1.36933 -1.38234,2.99011 -0.073,0.39367 -0.14887,0.73188 -0.16856,0.75157 -0.0197,0.0196 -0.0358,-0.12566 -0.0358,-0.32302 0,-0.19735 -0.0196,-0.35835 -0.0437,-0.35779 -0.024,6.6e-4 -0.39712,0.29286 -0.82916,0.64953 -1.1589,0.95679 -1.64549,1.24273 -2.29836,1.35066 l -0.23275,0.0385 z m 14.00815,-0.26381 c -0.25055,-0.10908 -0.41189,-0.33649 -0.48691,-0.68631 -0.0353,-0.16434 -0.11979,-0.38893 -0.18786,-0.49907 l -0.12377,-0.20027 0.12298,0.0659 c 0.15461,0.0827 0.38128,0.38031 0.49218,0.64612 0.15925,0.38169 0.27035,0.43307 1.0063,0.4655 0.36319,0.016 0.68773,0.0565 0.72119,0.0901 0.0425,0.0426 0.002,0.0542 -0.13281,0.0384 -0.10653,-0.0124 -0.3338,0.019 -0.50509,0.0698 -0.37563,0.11154 -0.6653,0.11467 -0.90621,0.01 z m 0.28744,-0.4987 c -0.1362,-0.0549 -0.35983,-0.32928 -0.50911,-0.62447 -0.0521,-0.1032 -0.16656,-0.22653 -0.25416,-0.27406 l -0.15928,-0.0865 0.16919,-0.002 c 0.13252,-0.002 0.24301,0.0745 0.50966,0.35213 l 0.34045,0.35448 0.30496,-0.024 c 0.16773,-0.0132 0.4238,-0.0588 0.56905,-0.10138 0.34012,-0.0997 0.61186,-0.0442 0.87054,0.17786 l 0.20365,0.17479 -0.23026,-0.0957 c -0.31806,-0.13217 -0.53114,-0.11902 -0.90438,0.0558 -0.3244,0.15197 -0.67571,0.18798 -0.91031,0.0933 z m 0.17436,-0.52891 c -0.10074,-0.0295 -0.26683,-0.1518 -0.36905,-0.27173 -0.10223,-0.11994 -0.2511,-0.29008 -0.33086,-0.37808 -0.28044,-0.30942 0.0608,-0.17115 0.49237,0.1995 0.24172,0.20762 0.48178,0.21249 0.91999,0.0187 0.1809,-0.08 0.39371,-0.14547 0.4729,-0.14547 0.17483,0 0.45015,0.12938 0.68524,0.322 l 0.17456,0.14302 -0.20365,-0.0641 c -0.62842,-0.19754 -0.58866,-0.19725 -0.96094,-0.008 -0.41197,0.21043 -0.63158,0.25611 -0.88056,0.18318 z m -7.44256,-0.86262 c 0.11192,-0.18109 0.93973,-0.41269 1.47506,-0.41269 h 0.27129 l -0.22442,-0.18499 c -0.48707,-0.40148 -0.64859,-1.2147 -0.362,-1.82244 0.1405,-0.29794 0.28251,-0.45415 0.58807,-0.6469 l 0.17364,-0.10953 -0.18556,0.23274 c -0.24319,0.30506 -0.34813,0.56795 -0.39616,0.99244 -0.0528,0.46643 0.036,0.76519 0.30591,1.02854 0.37276,0.36382 0.95053,0.49101 1.39219,0.30647 0.18863,-0.0789 0.20163,-0.0785 0.13384,0.003 -0.2212,0.26654 -0.8844,0.42672 -2.0081,0.48501 -0.53667,0.0278 -0.99158,0.0792 -1.06892,0.12052 -0.0873,0.0468 -0.12064,0.0495 -0.0948,0.008 z m 5.7988,-0.0693 c -0.57252,-0.19717 -0.70733,-0.4177 -0.76121,-1.24524 -0.0208,-0.32002 -0.0315,-0.59084 -0.0238,-0.60182 0.0476,-0.0675 0.20602,0.39902 0.25662,0.75584 0.0593,0.41831 0.286,0.92243 0.41477,0.92243 0.0363,0 0.0445,-0.0423 0.0199,-0.1018 -0.066,-0.15984 -0.12993,-0.47835 -0.17227,-0.85826 -0.0369,-0.3309 -0.034,-0.34236 0.0546,-0.21979 0.0514,0.0711 0.14114,0.34735 0.19937,0.61379 0.11707,0.53573 0.1905,0.70664 0.34141,0.79456 0.1461,0.0851 0.03,0.0641 -0.32936,-0.0596 z m -0.67754,-0.0444 c -0.3777,-0.23033 -0.60848,-0.68831 -0.60848,-1.20748 0,-0.0806 -0.0268,-0.19649 -0.0595,-0.25767 -0.0467,-0.0872 -0.042,-0.10449 0.0218,-0.08 0.0815,0.0313 0.17577,0.2257 0.3551,0.73272 0.13085,0.37 0.38371,0.70461 0.62061,0.82133 l 0.19666,0.0969 -0.17456,0.001 c -0.096,6.5e-4 -0.25423,-0.0475 -0.35161,-0.10685 z m 1.41694,-0.0376 c -0.0221,-0.0226 0.11654,-0.18628 0.30814,-0.36367 0.43895,-0.40639 0.64669,-0.75282 0.65598,-1.09395 0.006,-0.22132 0.0175,-0.24436 0.0798,-0.16008 0.0889,0.12032 0.0945,0.47617 0.0111,0.69793 -0.0754,0.2004 -0.43211,0.57882 -0.65654,0.69656 -0.26299,0.13796 -0.13381,0.15836 0.16521,0.0261 0.40355,-0.17851 0.68399,-0.42606 0.8754,-0.77277 0.14763,-0.2674 0.17109,-0.37142 0.17158,-0.76063 2.3e-4,-0.24799 0.009,-0.4509 0.0181,-0.45094 0.0672,-2.3e-4 0.18613,0.45885 0.18613,0.71827 0,0.77927 -0.58481,1.36637 -1.46241,1.46814 -0.17175,0.0199 -0.33036,0.0177 -0.35247,-0.005 z m -0.39091,-0.20799 c -0.0949,-0.15572 -0.12089,-0.29356 -0.11968,-0.63526 10e-4,-0.34801 0.0146,-0.41389 0.0661,-0.32528 0.0355,0.0612 0.0717,0.29226 0.0802,0.51363 0.009,0.22136 0.0286,0.41532 0.0443,0.43101 0.0577,0.0578 0.2729,-1.02374 0.27509,-1.383 l 0.002,-0.371 0.0902,0.20365 c 0.12262,0.27692 0.0795,0.88089 -0.086,1.20505 -0.19062,0.37333 -0.15017,0.409 0.10877,0.0959 0.3029,-0.3662 0.48401,-0.8412 0.44738,-1.17334 -0.0255,-0.23198 -0.0213,-0.24163 0.0566,-0.13026 0.29497,0.42113 0.0467,1.13265 -0.52438,1.50265 -0.13342,0.0865 -0.25993,0.18146 -0.28114,0.21113 -0.0212,0.0297 -0.0931,-0.0355 -0.1598,-0.14492 z m -0.51811,-1.33525 c -0.14168,-0.15207 -0.21215,-0.48601 -0.1317,-0.62409 0.052,-0.0893 0.0593,-0.0847 0.0608,0.0371 0.004,0.30334 0.35228,0.66667 0.53249,0.5553 0.0404,-0.025 0.0559,-0.01 0.0397,0.0399 -0.0453,0.13768 -0.37038,0.13236 -0.50133,-0.009 z m -1.98831,-0.131 c -4.4e-4,-0.12102 -0.0546,-0.37938 -0.12017,-0.57411 -0.0656,-0.19474 -0.11014,-0.36321 -0.099,-0.37438 0.0112,-0.0111 0.091,0.0888 0.17746,0.2221 0.16471,0.25402 0.21394,0.68125 0.099,0.85914 -0.042,0.0649 -0.0566,0.0308 -0.0573,-0.13275 z m 4.18019,-0.95825 c -0.0738,-0.12001 -0.23704,-0.33019 -0.36272,-0.46706 -0.14685,-0.15992 -0.18897,-0.23445 -0.11785,-0.20853 0.28852,0.10513 0.53765,0.39023 0.60605,0.69354 0.0249,0.11014 0.037,0.20025 0.0269,0.20025 -0.01,0 -0.0786,-0.0982 -0.15242,-0.2182 z m -2.6023,-0.12088 c -0.0401,-0.13848 -0.0632,-0.30868 -0.0515,-0.37821 0.016,-0.0947 0.0396,-0.0633 0.0942,0.12539 0.04,0.13848 0.0632,0.30868 0.0515,0.37821 -0.016,0.0947 -0.0396,0.0633 -0.0942,-0.12539 z m -1.75334,-0.18643 c 0,-0.10767 -0.0306,-0.40737 -0.068,-0.66599 -0.0572,-0.39577 -0.0526,-0.56276 0.0295,-1.05507 0.10609,-0.63717 0.0868,-0.85819 -0.1389,-1.58616 -0.12042,-0.3884 -0.31306,-1.573 -0.26382,-1.62224 0.0146,-0.0146 0.0968,0.20533 0.18259,0.48863 0.0858,0.2833 0.22983,0.73765 0.31993,1.00967 0.2704,0.8165 0.30781,1.14211 0.2018,1.75641 -0.0504,0.29231 -0.11468,0.81718 -0.14276,1.16637 -0.0491,0.61185 -0.12032,0.91242 -0.12032,0.50838 z m 0.40731,-0.51837 c -0.0669,-0.0459 -0.0358,-0.0601 0.13324,-0.0607 0.29724,-10e-4 0.60727,-0.16934 0.90218,-0.48927 0.13457,-0.146 0.24468,-0.23687 0.24468,-0.20194 0,0.14026 -0.25078,0.49678 -0.44127,0.62729 -0.22188,0.15204 -0.69617,0.22253 -0.83883,0.12468 z m 3.11627,-0.13279 c -0.0498,-0.0711 -0.0905,-0.16128 -0.0905,-0.20035 0,-0.0391 -0.0589,-0.1136 -0.13091,-0.16561 l -0.13092,-0.0946 0.14388,0.0186 c 0.11208,0.0145 0.16651,0.0796 0.24626,0.29493 0.11219,0.30287 0.10127,0.34549 -0.0378,0.14707 z m -0.72898,-0.4953 c -0.0791,-0.0148 -0.19693,-0.0659 -0.26185,-0.1135 -0.11048,-0.0811 -0.10502,-0.084 0.0856,-0.0466 0.11202,0.022 0.242,0.0766 0.28886,0.12142 0.0469,0.0448 0.073,0.0779 0.0581,0.0735 -0.0149,-0.004 -0.0917,-0.0201 -0.17083,-0.0349 z m -0.75717,-0.25151 c -0.15831,-0.0883 -0.17622,-0.11304 -0.0817,-0.11304 0.0665,0 0.16839,0.0523 0.22631,0.11637 0.12784,0.14127 0.11425,0.14096 -0.14456,-0.003 z m -4.07394,-0.83462 c 0,-0.0448 -0.10481,-0.4175 -0.23294,-0.82814 -0.21101,-0.67636 -0.49247,-1.93369 -0.44377,-1.98239 0.0108,-0.0108 0.0913,0.13991 0.17883,0.33496 0.14311,0.31891 0.16889,0.34642 0.25578,0.27305 0.15144,-0.12788 0.53312,-0.33498 0.53213,-0.28873 -0.002,0.0919 -0.098,0.17744 -0.33367,0.29688 -0.13602,0.069 -0.2469,0.14448 -0.24643,0.16782 4.4e-4,0.0234 0.0682,0.25193 0.15044,0.50795 0.14166,0.44085 0.26953,1.60013 0.1765,1.60013 -0.0203,0 -0.0369,-0.0367 -0.0369,-0.0815 z m -0.23275,-1.99427 c 0,-0.044 0.37117,-0.17748 0.61095,-0.21971 0.17858,-0.0314 0.21712,-0.025 0.16561,0.0278 -0.0649,0.0664 -0.77656,0.24234 -0.77656,0.19195 z m 0.49383,-0.71836 c -0.0202,-0.0327 -0.17229,-0.13972 -0.338,-0.23789 -0.28784,-0.17053 -0.29238,-0.17694 -0.10149,-0.14357 0.20649,0.0362 0.38142,0.16025 0.47674,0.33839 0.0578,0.10794 0.0257,0.145 -0.0373,0.0431 z m 1.04933,-0.32139 c -0.12734,-0.0754 -0.40227,-0.16327 -0.61095,-0.19527 -1.051,-0.16118 -1.82513,-0.24684 -1.96704,-0.21764 -0.15516,0.032 -0.15486,0.031 0.0165,-0.0498 0.096,-0.0453 0.24446,-0.0835 0.3299,-0.0849 0.13495,-0.002 0.16865,-0.0427 0.25688,-0.3081 0.0559,-0.16801 0.1117,-0.27518 0.1241,-0.23815 0.0124,0.037 -0.0181,0.16458 -0.0678,0.28348 -0.0497,0.11889 -0.0901,0.21953 -0.0899,0.22362 2.2e-4,0.004 0.11598,0.0127 0.25722,0.019 0.32402,0.0146 0.37573,-0.0477 0.44481,-0.53547 0.0301,-0.21254 0.0904,-0.45459 0.13407,-0.53789 0.0742,-0.14168 0.0778,-0.13108 0.0553,0.16425 -0.0394,0.51485 -0.0753,0.67822 -0.16593,0.75339 -0.1476,0.1225 -0.0972,0.15538 0.294,0.19192 0.38953,0.0364 0.8406,0.20018 1.03454,0.3757 0.0945,0.0856 0.24949,0.31397 0.20244,0.29842 -0.01,-0.003 -0.12078,-0.0671 -0.24812,-0.14256 z m -2.44506,-0.20107 c -0.0843,-0.0363 -0.0283,-0.0508 0.20366,-0.0532 0.17601,-0.002 0.35929,0.0222 0.4073,0.0532 0.11224,0.0725 -0.44214,0.0725 -0.61096,0 z m 0.0617,-0.53822 c 0.0718,-0.23284 0.21831,-0.48195 0.24207,-0.41166 0.0239,0.0707 -0.19411,0.54258 -0.25063,0.54258 -0.0175,0 -0.0136,-0.0589 0.009,-0.13092 z m -0.38101,-0.0721 c 0.10213,-0.27241 0.28949,-0.5489 0.41882,-0.61812 0.11513,-0.0616 0.11489,-0.0575 -0.01,0.16075 -0.0702,0.12319 -0.20564,0.31562 -0.30109,0.42763 l -0.17352,0.20365 z m 1.86775,-0.3934 0.006,-0.53823 0.0785,0.32003 c 0.0432,0.17601 0.0631,0.41821 0.0443,0.53822 -0.0632,0.4029 -0.13577,0.22315 -0.12926,-0.32002 z m -1.94401,-0.0727 c 0.0471,-0.32405 0.15835,-0.52156 0.3802,-0.67501 0.10449,-0.0723 0.31324,-0.24454 0.46388,-0.38279 0.29673,-0.27235 0.46288,-0.30967 0.74021,-0.16626 0.15715,0.0813 0.2369,0.19568 0.2369,0.33987 0,0.0365 -0.0408,0.009 -0.0905,-0.063 -0.065,-0.0929 -0.14955,-0.12932 -0.29986,-0.12932 -0.16885,0 -0.2671,0.0534 -0.50865,0.27639 -0.16464,0.15201 -0.38161,0.32008 -0.48213,0.37348 -0.10923,0.058 -0.24134,0.21023 -0.3283,0.37821 l -0.14553,0.28111 z"
         id="path2" />
      <ellipse
         style="fill:none;stroke:#ff00ff;stroke-width:0.1;stroke-dasharray:none;stroke-opacity:1"
         id="path1138-9-4-0-0-1-2-4-9-7-02-13-2"
         cx="659.75952"
         cy="-204.33322"
         rx="18.492125"
         ry="18.492126" />
    </g>
  </g>
</svg>
