<?xml version="1.0" encoding="UTF-8" standalone="no"?>
<!-- Created with Inkscape (http://www.inkscape.org/) -->

<svg
   width="41.008999mm"
   height="41.008999mm"
   viewBox="0 0 41.008999 41.008999"
   version="1.1"
   id="svg1"
   inkscape:version="1.4.2 (f4327f4, 2025-05-13)"
   sodipodi:docname="280.svg"
   xmlns:inkscape="http://www.inkscape.org/namespaces/inkscape"
   xmlns:sodipodi="http://sodipodi.sourceforge.net/DTD/sodipodi-0.dtd"
   xmlns="http://www.w3.org/2000/svg"
   xmlns:svg="http://www.w3.org/2000/svg">
  <sodipodi:namedview
     id="namedview1"
     pagecolor="#ffffff"
     bordercolor="#000000"
     borderopacity="0.25"
     inkscape:showpageshadow="2"
     inkscape:pageopacity="0.0"
     inkscape:pagecheckerboard="0"
     inkscape:deskcolor="#d1d1d1"
     inkscape:document-units="mm"
     inkscape:zoom="1.4513545"
     inkscape:cx="86.470947"
     inkscape:cy="-62.700049"
     inkscape:window-width="1050"
     inkscape:window-height="1081"
     inkscape:window-x="857"
     inkscape:window-y="0"
     inkscape:window-maximized="0"
     inkscape:current-layer="layer1" />
  <defs
     id="defs1" />
  <g
     inkscape:label="Layer 1"
     inkscape:groupmode="layer"
     id="layer1"
     transform="translate(333.37504,1257.5646)">
    <g
       id="g87"
       transform="translate(-1111.3892,-933.47044)">
      <circle
         style="fill:none;stroke:#ff0000;stroke-width:0.1;stroke-dasharray:none"
         id="path788-8-1-8-1-9-2-6-3-4-7-1-6-0-9-5"
         cx="798.51862"
         cy="-303.58966"
         r="19.954653" />
      <ellipse
         style="fill:none;stroke:#ff00ff;stroke-width:0.1;stroke-dasharray:none;stroke-opacity:1"
         id="path1138-9-4-0-0-1-2-0-0-6-8-8-1-2-0-7"
         cx="798.51862"
         cy="-303.58966"
         rx="18.492125"
         ry="18.492126" />
      <circle
         style="fill:none;stroke:#0000ff;stroke-width:0.1;stroke-linecap:round;stroke-dasharray:none;stroke-opacity:1;paint-order:markers stroke fill"
         id="path13019-1-33-3-83-70-3-7-5-4-3-0"
         cx="798.51862"
         cy="-318.60059"
         r="2" />
      <path
         style="fill:#000000;stroke-width:0.1;stroke-dasharray:none"
         d="m 801.68241,-295.52202 c -0.26554,-0.0238 -9.49078,-0.41841 -14.36303,-0.61434 -1.58199,-0.0636 -2.96095,-0.12784 -3.06434,-0.14272 -0.15531,-0.0223 0.0507,-0.0556 1.18438,-0.19113 0.75481,-0.0902 1.37692,-0.16806 1.38248,-0.17293 0.005,-0.005 -0.1029,-0.0367 -0.241,-0.0708 -0.32503,-0.0802 -0.60333,-0.20894 -0.77216,-0.35719 -0.0742,-0.0651 -0.16646,-0.11773 -0.20509,-0.11692 -0.12502,0.003 -1.29179,-0.28243 -1.29201,-0.31566 -1.2e-4,-0.0177 0.0421,-0.0655 0.0938,-0.10613 0.0517,-0.0407 0.094,-0.0906 0.094,-0.11089 0,-0.0203 -0.093,-0.0795 -0.20679,-0.13162 -0.11375,-0.0521 -0.2068,-0.10852 -0.2068,-0.12544 0,-0.0169 0.0682,-0.0581 0.15165,-0.0914 0.0834,-0.0334 0.16011,-0.0827 0.17044,-0.10961 0.0103,-0.0269 -0.008,-0.26794 -0.0408,-0.5356 -0.0328,-0.26766 -0.0696,-0.84629 -0.082,-1.28583 -0.0194,-0.69247 -0.0135,-0.83184 0.0439,-1.04382 0.0364,-0.13456 0.0812,-0.25391 0.0995,-0.26523 0.0183,-0.0113 0.0333,-0.0606 0.0333,-0.1094 0,-0.0488 0.0355,-0.23819 0.0789,-0.42078 0.051,-0.21424 0.0711,-0.38918 0.0569,-0.49331 -0.0177,-0.12907 -0.004,-0.18923 0.0657,-0.3008 0.10957,-0.17418 0.1527,-0.30904 0.24374,-0.76217 0.0873,-0.43435 0.20618,-0.6959 0.49096,-1.07983 0.2933,-0.39539 0.62833,-0.68818 1.01467,-0.88675 0.68858,-0.35391 1.21962,-0.45193 2.76884,-0.51106 1.33274,-0.0509 1.40921,-0.0604 1.73959,-0.21723 l 0.27623,-0.13112 -0.0872,-0.0928 c -0.13559,-0.14433 -0.12324,-0.44259 0.0272,-0.65694 0.0629,-0.0897 0.1585,-0.18428 0.21236,-0.21025 0.074,-0.0357 0.95002,-0.19434 1.08657,-0.19679 0.0122,-2.8e-4 0.0444,0.067 0.0716,0.14926 l 0.0494,0.14965 0.51156,-0.49745 c 0.93384,-0.90809 1.21117,-1.11788 2.03832,-1.54189 1.00605,-0.51572 2.16002,-0.75136 4.39448,-0.89735 0.4052,-0.0265 1.62168,-0.0466 2.91396,-0.0482 2.39667,-0.003 2.77103,0.0181 3.99909,0.22499 1.45811,0.24567 2.34032,0.59582 3.13093,1.24264 0.31513,0.25781 0.90933,0.8605 1.16376,1.18037 0.10691,0.13442 0.21922,0.25881 0.24956,0.27643 0.0303,0.0176 0.26086,0.0553 0.51226,0.0838 0.66621,0.0755 0.92067,0.12373 1.07902,0.20452 0.18189,0.0928 0.44931,0.40848 0.58857,0.6948 0.0604,0.12407 0.214,0.41171 0.34144,0.63919 0.40199,0.71751 0.39967,0.70669 0.39819,1.86117 -0.002,1.71042 -0.0736,3.45266 -0.16244,3.96675 -0.17715,1.02437 -0.30464,1.3696 -0.61376,1.66196 -0.17297,0.16358 -0.23334,0.19529 -0.47912,0.25163 -3.07742,0.70542 -8.97904,1.98772 -10.0502,2.18371 -0.49526,0.0906 -0.58665,0.0979 -0.89049,0.0706 z m 3.11622,-1.12403 c 0.45848,-0.2099 0.92368,-0.8576 1.14648,-1.59628 0.15005,-0.49744 0.1852,-0.81728 0.16323,-1.48519 -0.0162,-0.49127 -0.0377,-0.66622 -0.1178,-0.95404 -0.19345,-0.69558 -0.55925,-1.23159 -1.00562,-1.4736 -0.21486,-0.11649 -0.26757,-0.12912 -0.53896,-0.12912 -0.27688,0 -0.32095,0.0112 -0.55457,0.14029 -0.13959,0.0771 -0.25382,0.12719 -0.25382,0.11118 0,-0.016 0.10076,-0.23344 0.2239,-0.48319 0.35566,-0.72131 0.73732,-1.06547 1.1816,-1.06547 0.67502,0 1.052,0.70225 1.18687,2.21095 0.0179,0.20054 0.0693,0.46489 0.11398,0.58743 0.11132,0.30475 0.15324,0.89329 0.11117,1.5605 -0.0188,0.2984 -0.0263,0.55049 -0.0165,0.5602 0.031,0.031 3.44444,-0.86583 3.71314,-0.97561 0.10099,-0.0413 0.15249,-0.1352 0.0533,-0.0971 -0.14534,0.0558 -3.33498,0.81599 -3.42365,0.81599 -0.11362,0 -0.0155,-0.1495 0.12238,-0.18649 0.35173,-0.0944 4.04238,-0.97749 4.05061,-0.96926 0.005,0.005 -0.0767,0.12494 -0.18202,0.26623 -0.21075,0.28289 -0.20432,0.32387 0.051,0.32495 0.0746,2.8e-4 0.21118,0.0109 0.30336,0.0236 l 0.16762,0.023 0.1603,-0.41655 c 0.20837,-0.54143 0.26805,-0.73873 0.4945,-1.63509 0.28899,-1.14383 0.63377,-2.12105 0.83219,-2.35868 0.18716,-0.22415 0.40172,-0.22529 0.62006,-0.003 0.0745,0.0757 0.11762,0.10387 0.0959,0.0625 -0.0858,-0.16306 -0.26088,-0.28952 -0.40071,-0.28952 -0.366,0 -0.585,0.374 -1.03512,1.7678 -0.129,0.39946 -0.24201,0.71882 -0.25115,0.70969 -0.025,-0.025 0.31103,-1.33779 0.46353,-1.81097 0.0735,-0.22803 0.16786,-0.48228 0.20973,-0.565 0.17341,-0.34264 0.40429,-0.54519 0.62141,-0.54519 0.14857,0 0.33768,0.15868 0.4242,0.35595 0.0769,0.17537 0.18699,0.6825 0.18149,0.83625 l -0.004,0.10498 -0.0333,-0.094 c -0.0312,-0.088 -0.0324,-0.0868 -0.0182,0.0188 0.0721,0.53629 0.0984,0.73012 0.11209,0.82719 0.009,0.062 0.0103,-0.3525 0.004,-0.92119 -0.0138,-1.12791 -0.0329,-1.2644 -0.24624,-1.76718 -0.12577,-0.29638 -0.35657,-0.71319 -0.47783,-0.86294 -0.0592,-0.0731 -0.14152,-0.0997 -0.4711,-0.15265 -0.67196,-0.10784 -0.88494,-0.0407 -1.37806,0.43471 l -0.33855,0.32636 -1.68364,-0.0972 c -3.60005,-0.20788 -4.04112,-0.21923 -4.72521,-0.12159 -1.40582,0.20066 -2.41802,0.64211 -3.46315,1.51035 -0.20679,0.17181 -0.41828,0.34659 -0.46999,0.38841 l -0.094,0.076 0.10441,10e-4 c 0.1066,0.001 2.05324,-0.17215 2.27229,-0.20245 0.10529,-0.0145 0.13111,8e-5 0.20176,0.11438 l 0.081,0.13108 -0.24455,0.3673 c -0.2116,0.31782 -0.41639,0.58893 -0.65779,0.87088 -0.0584,0.0683 -0.19675,0.10357 -0.19675,0.0502 0,-0.0129 0.0973,-0.12821 0.2162,-0.2563 0.20025,-0.21569 0.60165,-0.83256 0.56537,-0.86884 -0.009,-0.009 -0.0994,0.0979 -0.20134,0.23696 -0.23332,0.31815 -0.63945,0.75101 -0.76594,0.81635 -0.0529,0.0274 -0.22318,0.0686 -0.37828,0.0917 -0.42009,0.0626 -1.81149,0.18715 -2.40893,0.21567 l -0.52397,0.025 -0.17853,-0.18669 c -0.0982,-0.10268 -0.25998,-0.27752 -0.35954,-0.38853 -0.16496,-0.18396 -0.17868,-0.19209 -0.15477,-0.0917 0.026,0.1092 0.025,0.10886 -0.10882,-0.0403 -0.0743,-0.0827 -0.13577,-0.16333 -0.13662,-0.17914 -0.003,-0.0531 -0.24493,-0.17777 -0.34534,-0.17791 -0.0547,-8e-5 -0.10912,-0.0255 -0.12102,-0.0565 -0.0138,-0.036 8e-4,-0.0564 0.0399,-0.0564 0.16108,0 0.53974,-0.0879 0.52817,-0.12255 -0.007,-0.0215 -0.098,-0.0608 -0.20186,-0.0874 -0.23238,-0.0595 -0.61608,-0.2263 -0.61506,-0.26742 8e-4,-0.0386 1.50323,-0.74847 1.50323,-0.71031 0,0.007 -0.26069,0.1801 -0.57931,0.38418 -0.65167,0.4174 -0.63907,0.37684 -0.16773,0.53994 l 0.24934,0.0863 1.21704,-0.10376 1.21703,-0.10376 0.31335,-0.31426 c 0.95882,-0.96159 2.22124,-1.57305 3.691,-1.78776 l 0.3196,-0.0467 -0.82719,-0.10346 c -1.47435,-0.1844 -2.12371,-0.27143 -2.11209,-0.28305 0.006,-0.006 1.14392,0.057 2.52812,0.14063 l 2.51673,0.15202 1.29719,-0.15711 c 0.99801,-0.12087 1.33819,-0.1756 1.47502,-0.23732 0.0978,-0.0441 0.17817,-0.0929 0.17859,-0.1084 0.002,-0.0512 -0.20655,-0.0293 -0.29246,0.0309 -0.1603,0.11227 -1.84267,0.25048 -3.12833,0.25698 -0.53019,0.003 -0.91464,-0.0212 -1.61678,-0.10016 -2.47548,-0.27859 -3.71406,-0.33892 -6.57991,-0.32047 -2.18527,0.0141 -2.24372,0.0164 -2.51918,0.0985 -0.73586,0.2194 -1.16876,0.37667 -1.86851,0.67884 -0.21337,0.0921 -0.3246,0.11701 -0.5264,0.11773 l -0.25585,8e-4 -0.32405,0.2611 c -0.34447,0.27756 -0.97314,0.88742 -0.97314,0.94403 0,0.0186 0.13114,0.0336 0.2914,0.0333 0.16027,-2.8e-4 0.57368,0.0193 0.91868,0.0435 l 0.62729,0.044 0.10208,-0.12131 c 0.0562,-0.0667 0.36201,-0.36545 0.67973,-0.66385 l 0.57764,-0.54255 h 0.21375 c 0.17981,0 0.26588,-0.0269 0.54236,-0.16973 0.96701,-0.49944 1.90833,-0.69648 3.30379,-0.69156 0.27917,8e-4 0.54142,0.0157 0.58279,0.0326 0.0697,0.0285 0.0673,0.0339 -0.0322,0.0731 -0.0591,0.0233 -0.21491,0.0693 -0.34637,0.10235 -0.13146,0.033 -0.26809,0.0813 -0.30362,0.10728 -0.06,0.0439 -0.059,0.0502 0.0149,0.0898 0.0517,0.0277 0.11083,0.0306 0.16901,0.008 0.31687,-0.12048 1.58321,-0.25288 1.96461,-0.20541 l 0.22559,0.0281 -0.45119,0.0463 c -0.69522,0.0714 -1.34975,0.16852 -1.3893,0.20619 -0.0216,0.0206 0.0154,0.034 0.094,0.034 0.0714,1e-5 0.68199,0.0417 1.357,0.0927 0.67499,0.051 1.50046,0.10434 1.83435,0.11862 0.53975,0.0231 0.69327,0.0507 0.63054,0.11341 -0.0104,0.0104 -0.11785,0.0436 -0.23876,0.0737 -0.12092,0.0301 -0.54511,0.21812 -0.94265,0.41771 -0.70656,0.35472 -0.72449,0.36134 -0.79851,0.29436 -0.0417,-0.0377 -0.0958,-0.12413 -0.12039,-0.1921 -0.0397,-0.10994 -0.0637,-0.12582 -0.21668,-0.14374 -0.38432,-0.045 -3.64536,-0.21018 -4.1562,-0.2105 -0.25923,-1.5e-4 -0.29206,-0.007 -0.2444,-0.0535 0.0614,-0.0594 0.68619,-0.32962 0.92009,-0.39793 0.33323,-0.0973 0.369,-0.23985 0.0714,-0.28448 -0.46712,-0.07 -1.08142,0.0776 -1.74685,0.41987 -0.28312,0.14561 -0.35065,0.16534 -0.564,0.16473 l -0.24236,-8e-4 -0.60682,0.63048 c -0.33375,0.34677 -0.60119,0.63658 -0.59431,0.64403 0.007,0.007 0.33916,0.0609 0.73841,0.11874 0.87107,0.12623 1.46559,0.23096 1.44246,0.25409 -0.009,0.009 -0.25894,-0.0187 -0.55473,-0.0623 -1.61244,-0.23747 -3.64294,-0.33972 -5.34792,-0.26932 -0.87455,0.0361 -2.16444,0.13504 -2.78499,0.21361 -0.38892,0.0492 -0.12303,-0.0277 0.39801,-0.11513 0.70972,-0.11914 1.65086,-0.2035 2.73463,-0.24515 l 0.87667,-0.0337 0.47691,-0.46386 c 0.2623,-0.25513 0.59535,-0.55242 0.74011,-0.66065 0.26056,-0.1948 0.26592,-0.19677 0.53549,-0.19713 0.24648,-2.8e-4 0.31956,-0.0205 0.7705,-0.21232 0.57322,-0.24387 0.79406,-0.32527 1.21318,-0.44717 l 0.30079,-0.0875 -0.31646,-0.003 c -0.7801,-0.007 -2.75568,0.0783 -3.10358,0.13332 -0.31009,0.0491 -0.44293,0.0936 -0.77262,0.25895 l -0.39814,0.19968 -0.80656,0.0599 c -0.44361,0.0329 -0.96934,0.0599 -1.16829,0.0599 -0.39579,-4e-5 -1.10559,0.10754 -1.51692,0.22991 -0.2931,0.0872 -0.63114,0.24853 -0.88491,0.4223 -0.40475,0.27716 -1.08873,1.11761 -0.97328,1.19593 0.0287,0.0194 0.26063,0.138 0.51552,0.26346 0.25488,0.12548 0.47218,0.25097 0.48289,0.27888 0.019,0.0495 -0.6038,0.88063 -0.65995,0.88063 -0.0156,0 -0.1152,-0.0258 -0.22136,-0.0573 -0.22351,-0.0664 -0.41118,-0.20966 -0.43136,-0.32935 -0.0135,-0.0799 -0.0162,-0.079 -0.065,0.0202 -0.028,0.057 -0.0439,0.10951 -0.0354,0.1168 0.0436,0.0373 0.93666,0.62563 0.94958,0.62563 0.008,0 0.026,-0.0634 0.0393,-0.141 0.0133,-0.0775 0.0704,-0.25402 0.127,-0.39216 0.2807,-0.68549 0.51858,-0.81208 1.68203,-0.89503 1.35073,-0.0963 6.18301,0.0386 7.3695,0.20571 0.74846,0.10542 0.99342,0.23042 1.63583,0.83476 0.34553,0.32505 0.55429,0.59428 0.58678,0.75671 0.0395,0.19726 -0.36049,0.84767 -0.46003,0.74813 -0.0116,-0.0116 0.0397,-0.12971 0.11397,-0.2625 0.0743,-0.1328 0.13502,-0.27527 0.13502,-0.31661 0,-0.12499 -0.27255,-0.50431 -0.54898,-0.76403 -0.63014,-0.59203 -0.91329,-0.74115 -1.59929,-0.84222 -0.8866,-0.13063 -4.88065,-0.27587 -6.44321,-0.23431 -1.35607,0.0361 -1.77604,0.11128 -2.07186,0.37101 -0.27426,0.24081 -0.53334,0.99403 -0.48854,1.42033 0.0166,0.15784 0.0121,0.19059 -0.0189,0.13833 -0.0223,-0.0377 -0.0518,-0.17613 -0.0655,-0.3077 l -0.0249,-0.23922 -0.4658,-0.3033 c -0.2562,-0.16681 -0.47834,-0.30329 -0.49363,-0.30329 -0.0478,0 -0.1201,0.21653 -0.0968,0.28989 0.0122,0.0384 -0.0283,0.26384 -0.0899,0.50096 -0.0616,0.23713 -0.1124,0.46708 -0.11276,0.51102 -4e-4,0.0672 0.0545,0.0989 0.34714,0.19962 0.67204,0.23137 0.64764,0.21784 0.73817,0.40944 l 0.0831,0.17584 -0.12392,-0.14172 c -0.10967,-0.1254 -0.1753,-0.15673 -0.57012,-0.2721 -0.2454,-0.0717 -0.45937,-0.12223 -0.47548,-0.11227 -0.0444,0.0274 0.0227,0.27758 0.0963,0.35889 0.0608,0.0672 0.51204,0.26119 0.74138,0.31875 0.0565,0.0142 0.1028,0.0409 0.1028,0.0593 0,0.046 0.006,0.0473 -0.38875,-0.0792 -0.41446,-0.13276 -0.58224,-0.23548 -0.67683,-0.41437 -0.0687,-0.12986 -0.069,-0.12515 -0.047,0.62114 0.0201,0.68362 0.10688,1.80796 0.14222,1.84331 0.0339,0.034 1.01538,0.28515 1.07156,0.27427 0.066,-0.0128 0.43635,-0.65918 0.40591,-0.70843 -0.01,-0.0161 -0.10693,-0.0497 -0.21556,-0.0747 -0.2323,-0.0535 -0.71688,-0.30148 -0.86629,-0.44331 -0.059,-0.056 -0.12794,-0.182 -0.15783,-0.2885 -0.0727,-0.25918 -0.18407,-0.84528 -0.16434,-0.86502 0.009,-0.009 0.12711,0.0242 0.26278,0.0734 0.13566,0.0492 0.38038,0.11657 0.54381,0.14962 0.26533,0.0537 0.31125,0.076 0.42876,0.20881 0.0723,0.0818 0.19537,0.17479 0.27331,0.20663 0.34116,0.13938 1.48987,0.33484 2.64064,0.44932 0.80249,0.0798 1.85955,0.14752 1.88628,0.12079 0.0125,-0.0125 -0.005,-0.0649 -0.0388,-0.11653 -0.0423,-0.0645 -0.0609,-0.17358 -0.0597,-0.34897 0.003,-0.33213 0.0564,-0.95228 0.0899,-1.03161 0.0283,-0.0671 -0.0556,-0.0765 -1.1293,-0.12541 l -0.45474,-0.0208 -0.10205,0.10204 -0.10204,0.10205 0.008,0.62247 0.008,0.62247 -0.16102,0.0118 c -0.2958,0.0217 -1.75907,-0.21479 -2.29457,-0.37086 -0.44454,-0.12956 -0.43522,-0.18822 0.0142,-0.0891 0.73502,0.16206 1.54162,0.31426 1.88237,0.35518 0.46118,0.0554 0.45386,0.065 0.45622,-0.59913 0.002,-0.43324 0.013,-0.53706 0.0688,-0.62219 0.0368,-0.0562 0.06,-0.10907 0.0517,-0.11749 -0.009,-0.008 -0.31008,-0.0321 -0.67039,-0.0526 -0.84096,-0.0479 -1.02923,-0.0679 -1.46234,-0.15582 -0.64545,-0.13097 -0.72758,-0.21149 -0.70486,-0.69095 0.0163,-0.34408 0.11686,-0.62911 0.34116,-0.96704 0.2443,-0.36806 0.52221,-0.45661 1.63124,-0.51981 1.13958,-0.0649 5.29367,0.0558 6.64601,0.19324 0.47151,0.0479 0.88219,0.14382 1.10713,0.25858 0.38281,0.19529 1.09454,0.89426 1.20415,1.18256 0.0365,0.096 0.024,0.13547 -0.11689,0.36864 -0.18281,0.30256 -0.24041,0.34712 -0.52121,0.40327 -0.45958,0.0919 -3.73121,0.12737 -5.02205,0.0544 l -0.3785,-0.0214 -0.0445,0.14851 c -0.0253,0.0847 -0.0445,0.3823 -0.0445,0.69219 0,0.53406 0.002,0.54526 0.0958,0.63369 0.0871,0.0818 0.0897,0.0922 0.0282,0.11434 -0.27612,0.0993 4.93788,0.0832 5.99669,-0.0184 0.69971,-0.0672 0.99572,-0.11109 1.15031,-0.17059 0.12575,-0.0484 0.32406,-0.1836 0.32412,-0.22097 2e-5,-0.0141 -0.17006,-0.0198 -0.37795,-0.0127 -0.41955,0.0144 -0.56207,-0.007 -0.56207,-0.0857 0,-0.0289 0.10152,-0.1444 0.22559,-0.25668 0.12408,-0.11229 0.2256,-0.21522 0.2256,-0.22876 0,-0.0135 -0.055,-0.0258 -0.1222,-0.0272 -0.0672,-0.002 -0.15604,-0.016 -0.1974,-0.0323 -0.0669,-0.0264 -0.0628,-0.0323 0.0376,-0.0541 0.0621,-0.0134 0.82343,-0.0829 1.69197,-0.15443 0.86856,-0.0715 1.69906,-0.14021 1.84558,-0.15271 l 0.2664,-0.0227 0.11518,0.13118 c 0.14657,0.16694 0.18625,0.37865 0.10667,0.56913 -0.0834,0.19961 -0.32638,0.59173 -0.35125,0.56686 -0.0115,-0.0115 -0.11616,0.07 -0.23261,0.18109 -0.11646,0.11108 -0.28232,0.23797 -0.36859,0.28198 -0.3717,0.18963 -1.19573,0.35108 -2.34963,0.46038 -0.2637,0.025 -0.47217,0.0527 -0.46326,0.0616 0.0254,0.0254 1.19876,-0.0645 1.65711,-0.12701 1.00028,-0.13638 1.23004,-0.22559 1.53238,-0.59499 0.10831,-0.13233 0.20334,-0.23418 0.21118,-0.22635 0.025,0.025 -0.34723,0.47541 -0.48427,0.58607 -0.24704,0.19947 -1.01519,0.3316 -2.36847,0.40738 -0.89945,0.0504 -1.01471,0.0665 -1.03936,0.14513 -0.0637,0.20306 -0.15287,0.36056 -0.24518,0.43281 l -0.1051,0.0822 0.0864,0.10837 0.0864,0.10838 0.9186,-0.0621 c 0.50523,-0.0342 1.20992,-0.0788 1.56597,-0.0991 0.71072,-0.0406 1.18128,-0.10283 1.82492,-0.24133 0.78601,-0.16914 0.81812,-0.17923 0.83798,-0.26337 0.0364,-0.15413 0.51255,-2.2746 0.67632,-3.01176 0.092,-0.41418 0.21576,-0.8964 0.275,-1.07158 0.4043,-1.19567 0.95786,-1.809 1.63849,-1.8154 0.43131,-0.004 0.74235,0.22985 0.98405,0.74004 0.16426,0.34672 0.26878,0.76251 0.296,1.17741 l 0.0218,0.33142 -0.11486,-0.44992 c -0.21001,-0.82258 -0.48489,-1.24072 -0.89378,-1.35958 -0.3529,-0.1026 -0.71172,0.0193 -1.02842,0.34942 -0.22131,0.23067 -0.33722,0.4191 -0.50067,0.81398 -0.17645,0.42624 -0.5094,1.42944 -0.5094,1.53484 0,0.13558 0.0568,0.035 0.12587,-0.22304 0.0697,-0.26039 0.20009,-0.43157 0.47117,-0.61872 0.0906,-0.0625 0.15811,-0.0987 0.15012,-0.0803 -0.008,0.0183 -0.15823,0.31989 -0.33385,0.67011 -0.29889,0.59604 -0.32053,0.62851 -0.33835,0.5076 -0.0266,-0.18077 -0.0548,-0.11411 -0.14875,0.35122 -0.10831,0.53698 -0.10204,0.556 0.12476,0.37902 0.20106,-0.15691 0.1904,-0.16011 0.33495,0.1005 0.0556,0.10025 0.0817,0.11568 0.16214,0.0955 0.0914,-0.0229 0.0953,-0.0174 0.0841,0.11825 -0.0112,0.13561 -0.0186,0.14287 -0.1567,0.15421 -0.23075,0.019 -0.25732,-0.004 -0.19102,-0.1623 0.065,-0.15564 0.0532,-0.18941 -0.0781,-0.22234 -0.13715,-0.0344 -0.2379,0.0304 -0.217,0.1397 0.0123,0.0646 -0.0171,0.12332 -0.10635,0.21262 -0.096,0.096 -0.12153,0.151 -0.11502,0.24767 0.004,0.0684 -0.009,0.13502 -0.0302,0.14813 -0.0213,0.0131 -0.0386,0.0585 -0.0386,0.10085 0,0.0593 0.0151,0.0703 0.0658,0.0481 0.0362,-0.0159 0.12182,-0.0329 0.19029,-0.0379 0.0685,-0.005 0.15746,-0.0389 0.19776,-0.0753 0.0635,-0.0574 0.0857,-0.0597 0.16628,-0.0165 0.10067,0.0539 0.15251,0.1619 0.11041,0.23004 -0.0169,0.0272 -0.0911,0.0349 -0.20603,0.0213 -0.14669,-0.0174 -0.18427,-0.01 -0.20447,0.0424 -0.0214,0.0548 -0.0377,0.0487 -0.11792,-0.0441 -0.0512,-0.0593 -0.105,-0.0959 -0.11945,-0.0815 -0.0338,0.0338 -0.0337,0.3519 2.8e-4,0.64041 0.0317,0.26923 -0.0214,0.17019 -0.10064,-0.18799 -0.0274,-0.12408 -0.0517,-0.19024 -0.0537,-0.14702 -0.008,0.15904 0.15036,0.68189 0.29439,0.97421 0.16157,0.32788 0.44556,0.64667 0.67455,0.75717 0.0751,0.0362 0.24082,0.0729 0.36835,0.0815 0.49247,0.0333 0.95847,-0.33633 1.29182,-1.02457 0.26202,-0.54096 0.33998,-0.86773 0.36377,-1.5249 0.0315,-0.87004 -0.12867,-1.51044 -0.51555,-2.06133 -0.47781,-0.68039 -1.13206,-0.7896 -1.69321,-0.28264 -0.0817,0.0739 -0.1487,0.11878 -0.1487,0.0997 0,-0.0646 0.24357,-0.26677 0.45119,-0.37447 0.1736,-0.0901 0.25207,-0.10727 0.48879,-0.10726 0.24199,0 0.31043,0.0158 0.48239,0.111 0.44003,0.24373 0.81128,0.80029 0.99189,1.48697 0.0718,0.27295 0.0842,0.41837 0.0851,0.99638 8e-4,0.43871 -0.0166,0.74955 -0.0491,0.88359 -0.22628,0.93389 -0.61267,1.55882 -1.14062,1.84479 -0.21147,0.11454 -0.26956,0.12887 -0.52006,0.12829 -0.36481,-8e-4 -0.57576,-0.0954 -0.85864,-0.38483 -0.24036,-0.24594 -0.43095,-0.57794 -0.55508,-0.96694 -0.0597,-0.187 -0.0918,-0.2449 -0.11009,-0.19831 -0.0141,0.0362 -0.0507,0.0658 -0.0811,0.0658 -0.0304,0 -0.23754,0.1757 -0.46031,0.39044 -0.48348,0.46603 -0.21324,0.40807 -2.39035,0.51278 -1.58524,0.0763 -2.72239,0.0959 -2.67271,0.0462 0.0156,-0.0155 0.26788,-0.0367 0.56086,-0.047 l 0.53268,-0.0188 -0.282,-0.07 c -0.1551,-0.0385 -0.38802,-0.0789 -0.51762,-0.0898 -0.19934,-0.0168 -0.25288,-0.0375 -0.34779,-0.13455 -0.0617,-0.0631 -0.11218,-0.13855 -0.11218,-0.16764 0,-0.0291 0.068,-0.13021 0.15126,-0.22472 0.16037,-0.18219 0.22001,-0.3291 0.16447,-0.40511 -0.0186,-0.0254 -0.13948,-0.19487 -0.26873,-0.37662 -0.21753,-0.30588 -0.235,-0.32173 -0.235,-0.21318 v 0.11726 l -0.23828,-0.1115 c -0.41406,-0.19376 -1.16356,-0.2993 -1.21287,-0.17078 -0.0244,0.0637 0.42555,0.97124 0.63598,1.28261 0.0838,0.12408 0.12814,0.20658 0.0984,0.18331 -0.0373,-0.0292 -0.55949,-0.0481 -1.6816,-0.0609 -0.89516,-0.0102 -1.63722,-0.0283 -1.64902,-0.0401 -0.0118,-0.0118 0.0311,-0.11334 0.0954,-0.22565 0.0643,-0.11232 0.11684,-0.21306 0.11684,-0.22387 0,-0.0108 -0.2665,-0.03 -0.5922,-0.0426 -0.3257,-0.0126 -0.73702,-0.0317 -0.91402,-0.0424 l -0.32183,-0.0194 -0.15757,0.27539 c -0.0947,0.16559 -0.15756,0.32332 -0.15756,0.3956 0,0.1137 0.008,0.12026 0.141,0.12104 0.0775,4e-4 0.4963,0.0174 0.93054,0.0378 0.52746,0.0246 0.79372,0.0244 0.80213,-8e-4 0.008,-0.0245 0.60433,-0.0378 1.6992,-0.0378 1.18319,0 1.69424,-0.0123 1.71211,-0.0412 0.0154,-0.0249 0.0909,0.0335 0.19061,0.1475 0.28261,0.32308 0.30507,0.32663 2.04431,0.32324 1.54793,-0.003 3.30786,-0.0689 3.53436,-0.13237 0.0998,-0.028 0.18602,-0.1068 0.35719,-0.32679 0.1547,-0.19881 0.27878,-0.31675 0.39479,-0.37526 l 0.16921,-0.0853 0.0323,0.0853 c 0.0178,0.0469 0.10207,0.22854 0.18743,0.40358 0.40226,0.825 1.1056,1.15776 1.78736,0.84564 z m -0.72866,-0.23004 c -0.15983,-0.0345 -0.35923,-0.13856 -0.31626,-0.16512 0.05,-0.0309 -0.0816,-0.34695 -0.24416,-0.58619 -0.14453,-0.2127 -0.11846,-0.0618 0.0301,0.17369 0.1139,0.18065 0.12149,0.20846 0.0707,0.25925 -0.0508,0.0508 -0.0684,0.043 -0.16419,-0.0725 -0.14635,-0.17651 -0.40825,-0.67582 -0.31258,-0.59593 0.0548,0.0458 0.23105,0.0673 0.30476,0.0372 0.004,-0.002 -0.017,-0.0617 -0.047,-0.13345 -0.0833,-0.19943 -0.0596,-0.28791 0.0256,-0.0952 0.0411,0.0931 0.14435,0.32816 0.22941,0.52243 0.0851,0.19428 0.19493,0.39731 0.24412,0.45119 l 0.0895,0.098 -0.0254,-0.13159 c -0.014,-0.0724 -0.11636,-0.39167 -0.22753,-0.70953 -0.11116,-0.31785 -0.2021,-0.59487 -0.2021,-0.61559 0,-0.0644 0.0988,0.0387 0.62842,0.65631 0.28218,0.32906 0.5544,0.61994 0.60494,0.64642 l 0.0919,0.0481 -0.12795,0.0791 c -0.1921,0.11873 -0.46309,0.17418 -0.6521,0.13344 z m 0.23135,-0.48406 c 0.0122,-0.0318 -0.005,-0.0881 -0.0388,-0.12516 -0.0335,-0.037 -0.0609,-0.0839 -0.0609,-0.10402 0,-0.0475 -0.25634,-0.29641 -0.28044,-0.2723 -0.0101,0.0101 0.0253,0.0827 0.0788,0.16135 0.0813,0.11962 0.0905,0.15767 0.0562,0.23286 -0.0225,0.0494 -0.0582,0.0899 -0.0794,0.0899 -0.0211,0 -0.0384,0.0169 -0.0384,0.0376 0,0.0643 0.33771,0.0455 0.36294,-0.0202 z m 0.57848,0.17093 c -8e-4,-0.0308 -0.0614,-0.14317 -0.13473,-0.24962 l -0.13329,-0.19355 0.0957,-0.14102 c 0.0527,-0.0776 0.0957,-0.16207 0.0957,-0.18779 0,-0.0854 -0.36059,-0.13111 -0.4364,-0.0553 -0.0254,0.0254 -0.0669,-0.002 -0.12617,-0.0816 -0.0486,-0.0657 -0.17874,-0.22604 -0.28926,-0.35632 -0.35987,-0.4242 -0.277,-0.41893 0.72952,0.0464 0.42917,0.19843 0.78716,0.36743 0.79554,0.37557 0.009,0.008 -0.0424,0.12837 -0.1128,0.26717 -0.13216,0.26051 -0.48123,0.6761 -0.4838,0.57599 z m -0.43384,-0.67712 c 0.0127,-0.0207 0.0402,-0.0376 0.0608,-0.0376 0.0207,0 0.0272,0.0169 0.0143,0.0376 -0.0127,0.0207 -0.0402,0.0376 -0.0608,0.0376 -0.0206,0 -0.0272,-0.0169 -0.0143,-0.0376 z m -3.81634,-0.11752 c 0.35738,-0.14273 0.61594,-0.44332 0.9336,-1.08536 0.14827,-0.29969 0.26958,-0.52489 0.26958,-0.50043 0,0.15315 -0.39296,1.03547 -0.6037,1.35552 l -0.0804,0.12219 0.16349,0.004 c 0.39373,0.009 0.33835,0.0573 -0.11856,0.10343 -0.25847,0.0261 -0.53761,0.0555 -0.62034,0.0654 -0.14806,0.0178 -0.14719,0.0168 0.0564,-0.0645 z m 4.65563,-0.33473 c -0.11743,-0.0606 -0.22323,-0.12595 -0.23509,-0.14516 -0.0193,-0.0311 0.0182,-0.40305 0.0757,-0.75181 0.0171,-0.10401 0.0104,-0.12319 -0.0368,-0.10504 -0.0318,0.0122 -0.0665,0.008 -0.0772,-0.009 -0.0107,-0.0172 -0.0746,-0.0201 -0.1422,-0.006 -0.12046,0.0246 -0.12345,0.0301 -0.1544,0.28677 -0.0173,0.14394 -0.0369,0.26719 -0.0435,0.27388 -0.006,0.007 -0.0685,-0.0147 -0.13765,-0.0475 -0.0691,-0.0328 -0.0941,-0.0383 -0.0555,-0.0122 0.2323,0.15717 0.18537,0.16065 -0.10785,0.008 -0.33989,-0.17695 -0.50761,-0.31341 -0.50761,-0.41303 0,-0.0723 0.0702,-0.0838 0.78959,-0.12943 0.34122,-0.0216 0.72614,-0.0496 0.8554,-0.062 l 0.23499,-0.0227 -2.8e-4,0.18298 c -3.9e-4,0.33012 -0.15228,1.06945 -0.21858,1.06476 -0.0141,-8e-4 -0.12161,-0.0514 -0.23904,-0.11204 z m -1.10838,-0.85433 c 0.0186,-0.0995 0.0107,-0.1222 -0.042,-0.12219 -0.0601,0 -0.075,0.0824 -0.0505,0.28011 0.009,0.0691 0.0695,-0.035 0.0925,-0.15792 z m -11.66129,-0.0748 0.25188,-0.0131 -0.0214,-0.57172 c -0.013,-0.34842 -0.006,-0.62312 0.0174,-0.70332 0.0363,-0.12334 0.0389,-0.12511 0.0421,-0.0282 l 0.004,0.1034 0.61098,-0.002 c 0.96176,-0.002 3.12233,-0.0641 3.20537,-0.0913 0.0414,-0.0136 0.0257,0.004 -0.0349,0.0389 -0.15019,0.0866 -0.64023,0.11739 -2.38561,0.14979 l -1.44292,0.0268 0.0259,0.28655 c 0.0142,0.1576 0.0436,0.36889 0.0652,0.46954 l 0.0392,0.18299 1.34011,-0.0195 c 1.53924,-0.0224 1.71204,-0.0462 2.09972,-0.28929 0.27656,-0.1734 0.27853,-0.14045 0.004,0.0761 l -0.1881,0.14867 0.16318,-6e-5 c 0.26799,-10e-5 1.3842,-0.0752 1.66596,-0.11214 0.14411,-0.0189 0.26939,-0.0269 0.27841,-0.0179 0.0399,0.0399 -0.37074,0.17955 -0.66684,0.22687 -0.55075,0.088 -2.5221,0.16696 -3.97158,0.15908 -0.74466,-0.004 -1.24059,-0.0133 -1.10206,-0.0205 z m 12.24999,-0.3822 c 0,-0.0191 -0.12829,-0.0253 -0.29286,-0.014 l -0.29285,0.0201 0.0152,-0.15982 c 0.0116,-0.1215 0.004,-0.1558 -0.0351,-0.14304 -0.0277,0.009 -0.0598,0.0566 -0.0712,0.10521 -0.0258,0.10915 -0.0952,0.13771 -0.12785,0.0526 -0.0294,-0.0767 -0.0679,-0.0441 0.32393,-0.27471 0.47757,-0.28106 0.4488,-0.28176 0.43931,0.0108 -0.004,0.13727 0.003,0.26065 0.0165,0.27419 0.0135,0.0136 0.0966,0.0261 0.18454,0.0279 l 0.15992,0.003 -4.1e-4,-0.1692 c -2.8e-4,-0.0931 -0.012,-0.26225 -0.0262,-0.37599 l -0.0258,-0.2068 0.2628,-0.15815 0.2628,-0.15815 0.0341,0.0896 c 0.0612,0.16092 0.15079,0.70032 0.15079,0.90761 v 0.20265 h -0.48883 c -0.26884,0 -0.48879,-0.0153 -0.48879,-0.034 z m 2.06834,-0.39791 c -0.0372,-0.0448 -0.0362,-0.0596 0.004,-0.074 0.0282,-0.01 0.66035,-0.17176 1.40482,-0.35963 1.81678,-0.45847 2.77254,-0.71541 2.82936,-0.76061 0.069,-0.0549 0.0577,-0.12481 -0.0376,-0.23157 l -0.0846,-0.0948 -1.74837,0.39302 c -0.9616,0.21616 -1.76293,0.38838 -1.78072,0.3827 -0.0915,-0.0292 2.64059,-0.85067 3.15917,-0.94989 0.28391,-0.0543 0.28832,-0.054 0.44489,0.0378 0.17585,0.10306 0.59479,0.53548 0.56519,0.58338 -0.0104,0.0168 -0.0826,0.0425 -0.16034,0.0571 -0.0778,0.0146 -1.12185,0.26183 -2.32016,0.54946 -1.19831,0.28763 -2.19028,0.52296 -2.20438,0.52296 -0.0141,0 -0.0465,-0.0252 -0.0721,-0.0559 z m -3.00833,-0.165 c 0,-0.0181 0.16921,-0.11411 0.376,-0.21329 0.2068,-0.0992 0.37599,-0.19433 0.37599,-0.21144 0,-0.0171 0.0221,-0.0311 0.049,-0.0311 0.0691,0 0.67969,-0.29905 0.65696,-0.32176 -0.0534,-0.0534 -0.64836,0.19374 -0.99943,0.41525 -0.21312,0.13447 -0.37501,0.22342 -0.35976,0.19769 0.059,-0.0996 0.46718,-0.62633 0.50206,-0.64789 0.0203,-0.0125 0.07,-0.005 0.11052,0.0167 0.0517,0.0276 0.0811,0.0275 0.0984,-4e-4 0.0136,-0.022 0.0676,-0.0563 0.12004,-0.0763 0.0931,-0.0354 0.0937,-0.038 0.0264,-0.1124 -0.067,-0.0741 -0.0665,-0.0806 0.0186,-0.23647 0.17274,-0.3162 0.17666,-0.31869 0.30216,-0.1917 0.12234,0.12378 0.3774,0.5323 0.3774,0.60445 0,0.0507 -1.49877,0.84178 -1.59485,0.84178 -0.0328,0 -0.0595,-0.0148 -0.0595,-0.033 z m -1.91757,-0.0912 c 0.031,-0.0296 0.25098,-0.18449 0.48879,-0.34408 l 0.43239,-0.29018 -0.27817,0.26832 c -0.28681,0.27668 -0.39266,0.34764 -0.58662,0.39329 -0.0987,0.0232 -0.10575,0.0198 -0.0564,-0.0274 z m 1.70981,-0.30824 c 0.28506,-0.69386 0.39582,-1.01392 0.40134,-1.1598 0.006,-0.15417 0.0156,-0.1698 0.11788,-0.19027 0.19402,-0.0388 0.39632,-0.0244 0.55656,0.0397 0.12347,0.0494 0.14294,0.0689 0.0953,0.0955 -0.0329,0.0184 -0.29099,0.29925 -0.57355,0.62411 -0.28256,0.32486 -0.54651,0.62449 -0.58655,0.66585 -0.0721,0.0745 -0.0723,0.0738 -0.011,-0.0752 z m 0.92771,-1.04838 c 0.0811,-0.10097 0.13929,-0.19169 0.12938,-0.2016 -0.01,-0.01 -0.0926,0.0431 -0.18374,0.11779 -0.10069,0.0825 -0.20609,0.1358 -0.26857,0.1358 -0.0982,0 -0.10174,0.006 -0.0788,0.14275 0.0195,0.11551 0.009,0.15608 -0.0531,0.21263 -0.0425,0.0384 -0.0772,0.0878 -0.0772,0.10963 0,0.0517 0.34288,-0.2815 0.53195,-0.517 z m -17.03814,1.00819 c -0.65246,-0.0703 -1.46205,-0.20185 -1.60313,-0.26055 -0.0925,-0.0385 -0.13054,-0.0883 -0.17645,-0.23136 -0.0788,-0.24551 -0.12253,-0.68988 -0.0679,-0.68988 0.0427,0 0.0484,0.0184 0.12071,0.39479 0.0612,0.31831 0.12008,0.41322 0.30134,0.48575 0.20401,0.0816 0.86619,0.19166 1.68863,0.28059 0.36189,0.0391 0.55647,0.0712 0.43239,0.0712 -0.12407,4e-5 -0.4371,-0.0227 -0.69559,-0.0505 z m 11.39266,-0.30143 c 0.81087,-0.38575 2.00533,-0.61323 2.82349,-0.53773 0.28005,0.0258 0.96386,0.20649 0.92578,0.24457 -0.007,0.007 -0.214,-0.0124 -0.46013,-0.0429 -0.92006,-0.11413 -1.59124,-0.055 -2.77579,0.24474 -0.31336,0.0793 -0.6036,0.15439 -0.64495,0.16692 -0.0414,0.0125 0.0178,-0.0215 0.1316,-0.0756 z m -0.92119,-0.52169 c -0.18612,-0.0479 -0.3285,-0.089 -0.31641,-0.0913 0.0306,-0.006 2.39098,-0.35497 3.20543,-0.47414 0.72032,-0.10539 0.91394,-0.10843 0.49302,-0.008 -1.64571,0.39366 -2.88734,0.66868 -2.99315,0.66299 -0.0278,-0.002 -0.20278,-0.0419 -0.38889,-0.0898 z m 8.64819,-0.17068 c 0.0114,-0.0724 0.0388,-0.34683 0.0608,-0.60991 0.0491,-0.58492 0.002,-1.01579 -0.15555,-1.4084 -0.20455,-0.51119 -0.1864,-0.68132 0.0855,-0.80157 0.28546,-0.12628 0.93483,-0.19358 3.27869,-0.33982 0.68166,-0.0425 1.2444,-0.0823 1.25051,-0.0885 0.006,-0.006 -0.0154,-0.15098 -0.0478,-0.32191 -0.0324,-0.17092 -0.052,-0.31768 -0.0436,-0.32613 0.009,-0.008 0.053,0.11604 0.099,0.27665 0.046,0.1606 0.0905,0.31358 0.0988,0.33995 0.0114,0.0359 0.0929,0.0429 0.32621,0.0279 l 0.311,-0.0201 -0.15039,0.0752 c -0.0827,0.0413 -0.21407,0.095 -0.29188,0.11919 l -0.14149,0.0441 0.0287,0.1913 c 0.0565,0.37691 0.0272,1.10962 -0.0582,1.45875 -0.0825,0.33716 -0.25069,0.74323 -0.36258,0.87572 -0.0619,0.0733 -0.063,0.0723 -0.0438,-0.0376 0.0109,-0.062 0.0815,-0.37505 0.1569,-0.69559 0.11611,-0.49345 0.14016,-0.67159 0.15686,-1.16202 0.0189,-0.55563 0.0168,-0.57805 -0.0508,-0.55034 -0.0388,0.0159 -1.04755,0.13404 -2.24168,0.26256 -1.19414,0.12851 -2.17855,0.24106 -2.18758,0.25008 -0.009,0.009 0.0184,0.13461 0.0609,0.27907 0.10522,0.35716 0.11517,1.21564 0.0192,1.65384 -0.0784,0.35811 -0.19151,0.72174 -0.15785,0.5076 z m -4.95404,-0.51369 c 0.0258,-0.0104 0.0681,-0.0104 0.094,0 0.0258,0.0104 0.004,0.0189 -0.047,0.0189 -0.0517,0 -0.0729,-0.008 -0.047,-0.0189 z m -15.81433,-1.59638 c -0.31944,-0.16947 -0.48884,-0.27935 -0.46595,-0.30224 0.0387,-0.0387 0.8345,0.37186 0.96682,0.4988 0.12662,0.12145 0.0189,0.0792 -0.50087,-0.19656 z m 10.28955,-0.0964 c 0.0272,-0.0109 0.0596,-0.01 0.0721,0.003 0.0125,0.0125 -0.01,0.0214 -0.0493,0.0198 -0.0438,-0.002 -0.0527,-0.0107 -0.0227,-0.0227 z m -0.188,-0.0376 c 0.0272,-0.0108 0.0596,-0.01 0.0721,0.003 0.0125,0.0125 -0.01,0.0214 -0.0493,0.0197 -0.0438,-0.002 -0.0527,-0.0107 -0.0227,-0.0227 z m -9.06149,-0.11281 c 0.0272,-0.0109 0.0596,-0.01 0.0721,0.003 0.0125,0.0125 -0.01,0.0214 -0.0493,0.0197 -0.0438,-0.002 -0.0527,-0.0107 -0.0227,-0.0227 z m 17.02084,-0.0907 c 0.1958,-0.2146 0.25729,-0.26124 0.49905,-0.37858 0.21454,-0.10414 0.26208,-0.11306 0.52639,-0.0987 0.1598,0.009 0.34975,0.0438 0.42214,0.078 l 0.1316,0.0622 -0.18546,-0.023 c -0.53296,-0.066 -0.7973,-0.003 -1.22946,0.29356 -0.24436,0.16763 -0.26374,0.17547 -0.16426,0.0664 z m -16.80699,-0.13053 c 0.20458,-0.17228 0.83991,-0.54743 1.24574,-0.7356 0.55899,-0.25918 1.29946,-0.53447 2.36311,-0.87856 1.09512,-0.35427 1.41057,-0.42213 2.10628,-0.45309 l 0.45119,-0.0201 -0.4232,0.13329 c -0.23275,0.0733 -0.59605,0.20937 -0.80731,0.30235 -0.35855,0.1578 -0.40583,0.16906 -0.71006,0.16906 h -0.32593 l -0.23521,0.17314 c -0.12935,0.0952 -0.40617,0.35055 -0.61512,0.56737 -0.53407,0.55415 -0.49979,0.53552 -1.06554,0.57934 -0.45036,0.0349 -1.07473,0.11651 -1.81475,0.23727 l -0.3196,0.0521 z m -0.26199,-0.24185 c 0.0617,-0.21219 0.2239,-0.47391 0.40007,-0.6455 0.20379,-0.19849 0.70146,-0.46097 0.95231,-0.50226 0.13384,-0.022 0.11954,-0.01 -0.13001,0.11259 -0.51879,0.25408 -0.87855,0.55615 -1.13624,0.95401 -0.0703,0.10858 -0.10306,0.13943 -0.0861,0.0812 z m 25.54766,-0.21786 c 0,-0.0228 0.0599,-0.0872 0.13318,-0.14309 0.14873,-0.11344 0.42589,-0.1591 0.58122,-0.0957 0.0817,0.0333 0.0679,0.0387 -0.1046,0.0407 -0.2074,0.002 -0.42814,0.0752 -0.54261,0.17884 -0.0374,0.0338 -0.0672,0.0424 -0.0672,0.0193 z m -1.93637,-0.29727 c -0.34008,-0.015 -0.43239,-0.0376 -0.43239,-0.10598 0,-0.0452 0.0656,-0.0557 0.34779,-0.0555 0.31364,1.4e-4 0.35888,0.009 0.46059,0.0926 l 0.11281,0.0925 -0.11281,-0.006 c -0.0621,-0.003 -0.23124,-0.0112 -0.37599,-0.0176 z m -10.94145,8.29766 c 2.37871,-0.0808 2.88135,-0.10644 2.95266,-0.15052 0.0395,-0.0244 0.0395,-0.0515 2.9e-4,-0.14624 -0.0552,-0.13325 -0.13209,-0.14736 -0.24342,-0.0447 -0.19015,0.17539 -0.74837,0.2158 -3.40517,0.2465 -2.18818,0.0253 -2.23134,0.0212 -2.49674,-0.23933 -0.0869,-0.0852 -0.21621,-0.1719 -0.28753,-0.19266 -0.0714,-0.0208 -0.87416,-0.0543 -1.78408,-0.0746 -0.9099,-0.0202 -2.10275,-0.0534 -2.65077,-0.0738 -0.54801,-0.0203 -1.25864,-0.0467 -1.57918,-0.0586 -0.32052,-0.0119 -0.87042,-0.0462 -1.22198,-0.0762 -0.35155,-0.03 -1.03251,-0.0883 -1.51326,-0.12958 -0.48074,-0.0413 -0.88892,-0.075 -0.90708,-0.075 -0.0181,0 -0.0432,0.0508 -0.0556,0.11277 -0.0256,0.12784 -0.21195,0.26292 -0.36284,0.26298 -0.0517,2e-5 -0.38091,-0.0591 -0.73157,-0.13146 -0.63283,-0.13051 -0.8879,-0.16265 -0.77241,-0.0973 0.0945,0.0535 1.6485,0.41699 1.78267,0.41699 0.0691,0 0.22119,-0.0423 0.33809,-0.094 0.26914,-0.11902 0.31529,-0.11854 1.71438,0.0181 1.11539,0.10891 2.21358,0.15706 5.60233,0.24564 1.05923,0.0277 1.19357,0.0504 1.46638,0.24749 l 0.2068,0.14943 0.9024,-0.0216 c 0.4963,-0.0119 1.86681,-0.0544 3.04555,-0.0944 z m -5.30154,-0.0387 c -0.18612,-0.016 -0.93905,-0.0484 -1.67318,-0.072 -0.73413,-0.0237 -1.63,-0.0589 -1.99082,-0.0783 -0.51197,-0.0275 -0.66254,-0.025 -0.68561,0.0114 -0.0884,0.13919 -0.0834,0.1396 1.85864,0.14998 1.03916,0.006 2.10087,0.0119 2.35937,0.014 l 0.47,0.004 z m -3.69355,-0.84022 c -0.0172,-0.0902 0.0552,-0.27249 0.23347,-0.58693 l 0.0959,-0.1692 -0.32949,-0.0241 c -0.18122,-0.0132 -0.57482,-0.0356 -0.87468,-0.0498 l -0.5452,-0.0257 -0.14249,0.24713 c -0.0784,0.13593 -0.15779,0.24714 -0.17648,0.24714 -0.0187,0 -0.51081,-0.0515 -1.09357,-0.11439 -0.9571,-0.10334 -1.06577,-0.10879 -1.12365,-0.0564 -0.0353,0.0319 -0.10829,0.058 -0.16232,0.058 -0.10744,0 -0.17468,0.0654 -0.0956,0.093 0.0272,0.01 0.58943,0.0702 1.2495,0.13498 1.04759,0.10277 1.20767,0.12683 1.25959,0.1893 0.0597,0.0719 0.18236,0.0828 1.58642,0.14109 0.12402,0.005 0.13431,-0.002 0.11862,-0.0842 z m -4.88325,-0.13923 c 0.055,-0.0433 0.19812,-0.20824 0.31801,-0.36659 0.27233,-0.35971 1.05848,-1.49129 1.05848,-1.52356 0,-0.0441 -0.1684,-0.0221 -0.23865,0.0311 -0.0382,0.029 -0.091,0.0444 -0.11723,0.0343 -0.0734,-0.0282 -0.58358,0.54958 -0.58519,0.66268 -8e-4,0.0517 -0.10724,0.2632 -0.23668,0.47 -0.21793,0.34816 -0.24685,0.3788 -0.39073,0.41387 -0.1914,0.0466 -0.22288,0.0757 -0.16186,0.14921 0.0388,0.0467 0.0378,0.0573 -0.005,0.0573 -0.0971,0 -0.7833,-0.22771 -0.7833,-0.25992 0,-0.0829 0.12289,-0.12455 0.31966,-0.10823 0.1137,0.009 0.20674,0.0138 0.20674,0.01 0,-0.004 -0.10348,-0.0452 -0.22997,-0.0913 l -0.22994,-0.0838 -0.10651,0.1166 c -0.0585,0.0641 -0.15201,0.1339 -0.20765,0.15505 -0.0556,0.0211 -0.0909,0.0487 -0.0783,0.0613 0.0547,0.0547 1.07374,0.34812 1.21389,0.34951 0.10188,8e-4 0.18889,-0.0254 0.25477,-0.0772 z m 23.11776,-0.82098 c 1.30835,-0.32939 2.47719,-0.61844 2.59741,-0.64236 0.19377,-0.0385 0.29977,-0.11411 0.24162,-0.17226 -0.0105,-0.0105 -0.26214,-0.0446 -0.55924,-0.0759 l -0.54016,-0.0568 -1.99278,0.49266 c -1.09603,0.27096 -2.02088,0.50107 -2.05525,0.51135 -0.0432,0.0129 -0.0702,0.0793 -0.0873,0.2146 -0.0137,0.10775 -0.0332,0.22552 -0.0434,0.26172 -0.0102,0.0362 -8e-4,0.0658 0.0208,0.0658 0.0217,0 1.10995,-0.2695 2.4183,-0.59888 z m 0.40484,0.23853 c 0.5687,-0.0338 1.03722,-0.0642 1.04117,-0.0676 0.008,-0.007 -0.13489,-0.33266 -0.15417,-0.35194 -0.0165,-0.0165 -1.97898,0.43681 -2.07138,0.47856 -0.0605,0.0274 -0.0532,0.0309 0.0376,0.0182 0.0621,-0.009 0.5781,-0.0434 1.1468,-0.0772 z m -13.48131,0.0242 c -0.0196,-0.0194 -1.23701,-0.0875 -2.70527,-0.15126 -3.41568,-0.14835 -5.57496,-0.25935 -5.88291,-0.30242 -0.2454,-0.0343 -0.30742,-0.0256 -0.24331,0.0342 0.0824,0.0769 2.91396,0.24944 5.91942,0.36074 0.8582,0.0318 1.6619,0.0628 1.78598,0.0688 0.57814,0.0283 1.15962,0.0231 1.12609,-0.0101 z m 17.57281,-0.47584 c 0.12798,-0.15527 0.23566,-0.45857 0.33337,-0.93905 0.10556,-0.51908 0.0973,-2.11099 -0.0136,-2.61573 -0.0916,-0.41682 -0.21448,-0.68849 -0.361,-0.79788 -0.10226,-0.0763 -0.10237,-0.0763 -0.20572,-0.002 -0.18924,0.13703 -0.39396,0.67928 -0.44125,1.16878 -0.0168,0.17337 -0.0156,0.17173 0.0286,-0.0388 0.0253,-0.12088 0.0565,-0.20912 0.0693,-0.19609 0.0127,0.013 0.0146,-0.0217 0.004,-0.0772 -0.0119,-0.062 -0.004,-0.0919 0.0184,-0.0776 0.023,0.0142 0.0303,-0.015 0.0188,-0.0752 -0.0128,-0.0673 -0.005,-0.0901 0.0238,-0.0721 0.0286,0.0177 0.0343,0.004 0.0172,-0.0414 -0.0223,-0.0595 -0.0178,-0.0615 0.0381,-0.0162 0.0551,0.0448 0.0635,0.0428 0.0635,-0.0157 0,-0.037 0.009,-0.0585 0.0195,-0.0478 0.017,0.017 -0.0487,0.39066 -0.11765,0.66986 -0.0216,0.0874 -0.0251,0.0888 -0.0509,0.0189 -0.0411,-0.11172 -0.0875,0.24205 -0.0546,0.41712 0.0186,0.0995 0.014,0.13133 -0.0168,0.11236 -0.0278,-0.0171 -0.0428,0.007 -0.0428,0.0698 0,0.12322 0.0643,0.12383 0.12012,10e-4 0.0315,-0.069 0.0517,-0.0819 0.0738,-0.047 0.0495,0.0779 0.0361,0.14142 -0.0248,0.11806 -0.031,-0.0119 -0.0564,-0.003 -0.0564,0.02 0,0.0229 -0.0236,0.0416 -0.0524,0.0416 -0.076,0 -0.098,0.0858 -0.098,0.3816 0,0.25514 0.003,0.2619 0.0846,0.23626 0.0465,-0.0145 0.0973,-0.0453 0.11281,-0.0683 0.0197,-0.0293 0.0395,-0.0249 0.0657,0.0145 0.0511,0.0767 0.0302,0.16919 -0.0381,0.16919 -0.0308,0 -0.0683,0.0169 -0.0835,0.0376 -0.0152,0.0207 -0.0281,0.004 -0.0288,-0.0376 -8e-4,-0.0621 -0.007,-0.0654 -0.0369,-0.0188 -0.0363,0.0573 -0.0195,0.7288 0.0199,0.79245 0.0118,0.0191 0.0536,0.0347 0.093,0.0347 0.0621,0 0.0705,0.0256 0.0635,0.19424 -0.005,0.12796 0.008,0.19959 0.039,0.20993 0.0655,0.0218 0.0589,0.0721 -0.009,0.0721 -0.031,0 -0.0564,-0.0169 -0.0564,-0.0376 0,-0.0207 -0.01,-0.0279 -0.0215,-0.0162 -0.0323,0.0323 0.12952,0.33006 0.19241,0.35419 0.13273,0.0509 0.23674,-0.0247 0.35246,-0.25627 0.0636,-0.12739 0.11441,-0.25853 0.11278,-0.29142 -0.002,-0.0329 -0.0293,0.0145 -0.0613,0.10535 -0.0519,0.1469 -0.0629,0.15728 -0.0993,0.094 -0.0226,-0.0391 -0.0415,-0.18958 -0.0421,-0.33434 -8.8e-4,-0.24094 -0.008,-0.26257 -0.0769,-0.2558 -0.0625,0.006 -0.0928,-0.0418 -0.17289,-0.2739 -0.0534,-0.15472 -0.0846,-0.28907 -0.0692,-0.29856 0.0154,-0.01 0.1496,0.11259 0.29834,0.27128 0.26815,0.28611 0.27025,0.28997 0.2507,0.46036 l -0.0197,0.17182 0.0512,-0.20251 c 0.11826,-0.46807 0.1671,-1.50275 0.0943,-1.99706 -0.0207,-0.1409 -0.024,-0.072 -0.0103,0.2162 l 0.0202,0.42299 h -0.11238 c -0.0618,0 -0.18769,-0.0103 -0.27972,-0.023 -0.16071,-0.022 -0.1669,-0.0276 -0.15656,-0.14099 0.01,-0.10499 0.008,-0.1077 -0.0181,-0.0244 -0.0196,0.0636 -0.0381,0.0788 -0.0575,0.0473 -0.0172,-0.0279 0.0208,-0.1079 0.0956,-0.20138 l 0.12422,-0.15508 0.012,0.16342 c 0.007,0.0899 0.0298,0.18491 0.0516,0.21117 0.0877,0.10575 0.11294,0.0402 0.10078,-0.26247 -0.0101,-0.25286 2.9e-4,-0.32924 0.0567,-0.41327 0.0381,-0.0567 0.0842,-0.0938 0.10265,-0.0824 0.0403,0.025 0.0378,-0.15371 -0.004,-0.28453 l -0.0301,-0.094 -0.004,0.10545 c -0.004,0.0901 -0.19387,0.3518 -0.49666,0.68163 -0.0455,0.0495 -0.085,-8e-4 -0.0477,-0.0608 0.017,-0.0272 0.0336,-0.0669 0.0368,-0.0882 0.024,-0.15695 0.15062,-0.46893 0.19035,-0.46893 0.0515,0 0.0693,-0.0579 0.1069,-0.3478 0.0127,-0.0982 0.039,-0.1786 0.0584,-0.1786 0.0194,0 0.0353,0.0197 0.0353,0.0439 0,0.0241 0.01,0.034 0.0218,0.022 0.0281,-0.0281 -0.0472,-0.17368 -0.1459,-0.28208 -0.0836,-0.0918 -0.19379,-0.11067 -0.23709,-0.0406 -0.0186,0.0299 -0.006,0.036 0.0382,0.0189 0.0729,-0.028 0.21023,0.0315 0.21023,0.091 0,0.0212 -0.0144,0.0295 -0.0321,0.0187 -0.0177,-0.0109 -0.0512,0.0219 -0.0744,0.073 -0.0233,0.051 -0.0596,0.0928 -0.0807,0.0928 -0.0211,0 -0.0381,0.0634 -0.0378,0.141 4.1e-4,0.10487 0.01,0.12655 0.037,0.0846 0.0412,-0.0637 0.049,-0.0359 0.0149,0.0531 -0.0125,0.0326 -0.0405,0.0483 -0.0622,0.0349 -0.0238,-0.0147 -0.0282,-0.006 -0.0112,0.0214 0.024,0.0389 -0.12225,0.51443 -0.14886,0.48404 -0.005,-0.006 0.0218,-0.17982 0.0598,-0.38662 0.0778,-0.42296 0.0926,-0.71252 0.0346,-0.67671 -0.0208,0.0128 -0.0267,0.0671 -0.0134,0.12063 0.0182,0.0727 0.0125,0.0899 -0.0229,0.0681 -0.0273,-0.0169 -0.0611,-0.007 -0.0801,0.0226 -0.018,0.0285 -0.0331,0.0349 -0.0333,0.0142 -8e-4,-0.0702 0.14565,-0.27763 0.23937,-0.33903 0.12977,-0.085 0.22439,-0.0261 0.34726,0.2164 0.16267,0.32103 0.2431,0.79291 0.2666,1.56411 0.0307,1.00496 -0.0741,1.76142 -0.30764,2.22229 -0.21778,0.42975 -0.45986,0.32268 -0.64605,-0.28575 -0.0497,-0.16217 -0.08,-0.22857 -0.0676,-0.14756 0.034,0.22081 0.1611,0.53516 0.26756,0.66167 0.12816,0.15231 0.2429,0.14541 0.38168,-0.0229 z m -0.32402,-0.17314 c -0.0248,-0.0248 -0.0448,-0.0713 -0.0446,-0.1034 4e-4,-0.0514 0.005,-0.0516 0.0388,-0.002 0.0293,0.0433 0.0338,0.0346 0.0193,-0.0376 -0.0338,-0.16893 -0.13389,-0.90306 -0.13209,-0.96933 0.002,-0.0596 0.12133,0.21241 0.1701,0.38653 0.0175,0.0625 0.0139,0.0657 -0.0215,0.0188 -0.0338,-0.0449 -0.037,-0.0371 -0.0155,0.0376 0.0148,0.0517 0.0244,0.15745 0.0215,0.235 -0.003,0.0776 0.0104,0.141 0.0297,0.141 0.0629,0 0.0757,-0.0621 0.0391,-0.18956 -0.0622,-0.21658 -0.0172,-0.15812 0.0906,0.11801 0.0989,0.25333 0.10074,0.26916 0.0386,0.33786 -0.0744,0.0822 -0.16808,0.093 -0.23406,0.0269 z m -0.18958,-0.81967 c 0,-0.0517 0.009,-0.0728 0.019,-0.047 0.0105,0.0258 0.0105,0.0682 0,0.094 -0.0105,0.0258 -0.019,0.005 -0.019,-0.047 z m 0.65094,-0.28611 c -0.0586,-0.0872 -0.0732,-0.1748 -0.0736,-0.44358 -8e-4,-0.49672 -0.10784,-0.46545 -0.14008,0.0409 -0.004,0.0658 -0.0222,0.11061 -0.0399,0.0996 -0.0178,-0.011 -0.0229,-0.0294 -0.0113,-0.041 0.0116,-0.0116 -0.0133,-0.0451 -0.0552,-0.0745 -0.0602,-0.0422 -0.074,-0.0877 -0.0656,-0.2164 l 0.0107,-0.16298 0.20681,-0.0242 c 0.11373,-0.0133 0.23884,-0.0336 0.27801,-0.045 0.0679,-0.0198 0.07,-0.002 0.0447,0.37456 -0.0146,0.21745 -0.0389,0.4417 -0.0541,0.49833 l -0.0275,0.10298 z m -0.46155,-0.67268 c 8e-4,-0.062 0.009,-0.0829 0.0187,-0.0463 0.01,0.0366 0.009,0.0873 -0.002,0.1128 -0.0103,0.0255 -0.0181,-0.005 -0.0174,-0.0665 z m -0.34276,-0.0407 c 0.002,-0.0438 0.0107,-0.0527 0.0227,-0.0227 0.0108,0.0272 0.009,0.0596 -0.003,0.0721 -0.0125,0.0125 -0.0214,-0.01 -0.0198,-0.0494 z m -0.003,-0.20776 c 0,-0.0312 0.0263,-0.0896 0.0584,-0.12972 0.0561,-0.0701 0.0574,-0.0693 0.0334,0.021 -0.0309,0.11601 -0.0917,0.18819 -0.0917,0.10871 z m 0.18857,-0.0464 c 2.8e-4,-0.0446 0.0163,-0.10598 0.0356,-0.13642 0.0309,-0.0487 0.0371,-0.0487 0.0522,0 0.009,0.0304 0.0261,0.0833 0.037,0.11744 0.0128,0.0401 -0.006,0.0688 -0.0528,0.0811 -0.0553,0.0144 -0.0724,-4e-4 -0.072,-0.0621 z m -26.84976,2.02839 c -0.0413,-0.0393 -0.93748,-0.46771 -0.92032,-0.43995 0.0331,0.0534 0.55482,0.3521 0.73516,0.42081 0.14806,0.0564 0.2336,0.0652 0.18516,0.0191 z m 26.64848,-0.74648 c -0.0105,-0.0259 -0.019,-0.005 -0.019,0.047 0,0.0517 0.009,0.0729 0.019,0.047 0.0105,-0.0258 0.0105,-0.0681 0,-0.094 z m -9.48117,-0.0282 c 0.0127,-0.0207 0.005,-0.0376 -0.0166,-0.0376 -0.0219,0 -0.0398,0.0169 -0.0398,0.0376 0,0.0207 0.008,0.0376 0.0166,0.0376 0.009,0 0.0271,-0.0169 0.0398,-0.0376 z m -3.96001,-0.13204 c 1.25456,-0.10392 2.21163,-0.19628 2.37143,-0.22885 0.13553,-0.0276 0.13046,-0.0892 -0.0278,-0.33651 -0.12646,-0.19768 -0.13708,-0.20499 -0.29772,-0.20499 -0.27506,0 -0.29857,0.0224 -0.19045,0.18153 0.0511,0.0752 0.0929,0.15544 0.0929,0.17831 0,0.0509 -0.36142,0.0983 -2.10251,0.27543 -0.93126,0.0948 -1.33643,0.14965 -1.34733,0.18252 -0.0225,0.0679 0.18946,0.0612 1.50141,-0.0474 z m 13.40527,-0.14014 c -0.009,-0.0468 -0.0167,-0.0173 -0.0171,0.0654 -4e-4,0.0827 0.007,0.12099 0.0163,0.085 0.009,-0.0359 0.01,-0.10362 8e-4,-0.15039 z m -13.52611,-0.0617 c 0.13237,-0.0188 0.18013,-0.0462 0.22561,-0.12928 0.0548,-0.10024 0.0531,-0.10919 -0.0363,-0.18298 -0.0842,-0.0695 -0.12715,-0.0753 -0.41345,-0.0553 l -0.31946,0.0223 -0.15849,0.17978 c -0.0872,0.0989 -0.15914,0.19425 -0.15993,0.21196 -8.8e-4,0.0309 0.51272,0.003 0.86205,-0.0465 z m 1.33027,-0.12121 c 0.54612,-0.0567 0.64969,-0.12909 0.48172,-0.33652 l -0.0693,-0.0856 -0.50159,0.0458 c -0.27587,0.0252 -0.51542,0.0544 -0.53231,0.0648 -0.0169,0.0104 -0.0307,0.0699 -0.0307,0.13203 0,0.0622 -0.0188,0.14825 -0.0418,0.19127 -0.0397,0.0743 -0.0346,0.0771 0.1034,0.0563 0.0799,-0.012 0.34569,-0.0427 0.59065,-0.0682 z m 12.15959,-0.88909 c -0.007,-0.16027 -0.0128,-0.0291 -0.0128,0.29139 0,0.32054 0.006,0.45167 0.0128,0.2914 0.007,-0.16027 0.007,-0.42252 0,-0.58279 z m -16.65407,-0.0302 0.53805,-0.10133 -0.11505,-0.07 c -0.0633,-0.0385 -0.11506,-0.0779 -0.11506,-0.0875 0,-0.01 0.0254,-0.11496 0.0564,-0.23406 0.1084,-0.41613 0.0881,-0.50626 -0.1947,-0.86307 -0.13811,-0.17427 -0.26313,-0.30381 -0.27783,-0.28785 -0.0339,0.0368 -0.42153,1.12474 -0.50136,1.40717 -0.0804,0.2846 -0.0789,0.38062 0.005,0.3566 0.0362,-0.0103 0.30793,-0.0643 0.60385,-0.12001 z m -1.06445,-0.052 c 0.21868,-0.0181 -0.21363,-0.0302 -1.22198,-0.0341 -1.57496,-0.006 -2.36401,-0.033 -4.07955,-0.13929 -1.34591,-0.0834 -1.75816,-0.12241 -1.78708,-0.16921 -0.014,-0.0226 -0.0708,-0.31305 -0.12604,-0.64533 -0.16387,-0.98419 -0.19311,-0.88928 -0.099,0.32118 0.0174,0.22399 0.0418,0.41736 0.0542,0.42973 0.0401,0.0401 2.12833,0.1905 3.9883,0.28731 0.39125,0.0204 2.88056,-0.0179 3.27116,-0.0503 z m -7.6153,-1.09276 c -0.0258,-0.3619 -0.0602,-0.69183 -0.0766,-0.73319 -0.0172,-0.0432 -0.0317,0.15704 -0.0342,0.46999 l -0.004,0.54519 -0.10773,-0.2256 -0.10771,-0.22559 -0.004,0.49812 -0.004,0.49813 0.1786,0.11139 0.17859,0.1114 0.0133,-0.19592 c 0.007,-0.10777 -0.008,-0.49203 -0.0335,-0.85392 z m 16.53698,0.69412 c 0.12722,-0.17292 0.12167,-0.20914 -0.0171,-0.11192 -0.0772,0.054 -0.18557,0.28408 -0.1325,0.28112 0.0144,-8e-4 0.0818,-0.077 0.14964,-0.1692 z m 8.83303,-0.10193 c -0.009,-0.0465 -0.0163,-0.008 -0.0163,0.0846 0,0.0931 0.007,0.13113 0.0163,0.0846 0.009,-0.0465 0.009,-0.12267 0,-0.1692 z m 0.67178,-0.2068 c 0.1672,-0.19039 0.1947,-0.23576 0.11008,-0.1816 -0.11239,0.0719 -0.16314,0.12861 -0.29509,0.32957 -0.11179,0.17024 -0.0534,0.1236 0.18501,-0.14797 z m -26.65985,-0.21956 c 8e-4,-0.27535 -0.01,-0.39644 -0.0285,-0.32899 -0.0438,0.15799 -0.0806,0.63646 -0.0542,0.70515 0.0559,0.14568 0.0817,0.0283 0.0827,-0.37616 z m 19.28445,0.0698 c -0.22737,-0.47276 -0.70256,-0.88243 -1.12498,-0.96988 -0.0648,-0.0134 0.003,0.0345 0.15907,0.11236 0.38473,0.19206 0.6659,0.468 0.89372,0.8771 0.1034,0.18568 0.19354,0.32294 0.20032,0.30502 0.007,-0.0179 -0.0509,-0.16399 -0.12813,-0.3246 z m -5.86058,-0.25623 c 1.03796,-0.07 1.61409,-0.14143 1.78715,-0.22146 l 0.12849,-0.0594 -0.1316,0.0208 c -0.54124,0.0853 -1.7779,0.19927 -2.51111,0.23142 l -0.53714,0.0236 -0.40285,-0.39539 c -0.22156,-0.21746 -0.4442,-0.41705 -0.49475,-0.44354 -0.0864,-0.0453 -0.0849,-0.0394 0.0246,0.0981 0.0641,0.0804 0.26824,0.29428 0.45366,0.47523 l 0.33711,0.329 h 0.24178 c 0.13298,0 0.63006,-0.0262 1.10463,-0.0582 z m 13.46558,-0.0992 c -0.012,-0.03 -0.0209,-0.0211 -0.0227,0.0227 -0.002,0.0396 0.007,0.0618 0.0198,0.0494 0.0125,-0.0125 0.0138,-0.0449 0.003,-0.0721 z m -14.3718,-0.0275 c 0.0117,-0.019 -0.15626,-0.20088 -0.37331,-0.4042 -0.21706,-0.20331 -0.39487,-0.38236 -0.39512,-0.39786 -0.002,-0.10185 0.18053,0.0263 0.54804,0.38539 0.34954,0.34156 0.44303,0.4136 0.53675,0.4136 0.0624,0 0.12477,-0.0182 0.13855,-0.0405 0.0138,-0.0223 -0.12897,-0.19761 -0.31738,-0.38973 -0.31138,-0.31753 -0.37635,-0.39692 -0.32478,-0.39692 0.01,0 0.1944,0.15938 0.41043,0.35419 0.4893,0.44119 0.53418,0.46743 0.63207,0.36954 0.0728,-0.0728 0.0709,-0.0756 -0.23191,-0.3491 -0.20852,-0.18828 -0.28987,-0.2841 -0.25659,-0.30222 0.0268,-0.0146 0.23669,-0.0385 0.46639,-0.0532 l 0.41766,-0.0267 0.0243,0.18328 c 0.0134,0.10081 0.0679,0.24745 0.1212,0.32587 0.0533,0.0784 0.0869,0.16843 0.0748,0.20003 -0.0188,0.049 0.007,0.0535 0.17554,0.0306 0.29251,-0.0397 0.5622,-0.15231 0.69543,-0.29041 0.11154,-0.11561 0.30938,-0.48514 0.31018,-0.57935 1.4e-4,-0.0243 0.0876,-0.054 0.19776,-0.0674 0.10857,-0.0132 0.26413,-0.0337 0.3457,-0.0457 l 0.14829,-0.0218 -0.0689,0.10794 c -0.23494,0.3678 -0.45213,0.54257 -0.74177,0.59691 -0.0864,0.0162 -0.16364,0.0645 -0.21558,0.13474 l -0.081,0.10948 h 0.0937 c 0.17044,0 0.51599,-0.15625 0.65545,-0.29637 0.0752,-0.0755 0.24335,-0.29355 0.37374,-0.48448 l 0.23706,-0.34714 -0.12426,8e-4 c -0.0684,4e-4 -0.50496,0.0333 -0.97026,0.0728 -0.46529,0.0396 -1.47193,0.12508 -2.23698,0.19005 -0.76503,0.065 -1.39863,0.12576 -1.40797,0.13511 -0.0231,0.0231 0.53721,0.58948 0.76256,0.77075 0.1733,0.13939 0.3339,0.18664 0.38013,0.11184 z m 1.56227,-0.40306 c -0.14633,-0.10362 -0.18551,-0.17152 -0.1868,-0.3238 l -8.8e-4,-0.14101 h 0.37346 c 0.3357,0 0.37579,0.007 0.39646,0.0724 0.027,0.085 -0.0553,0.30061 -0.14223,0.37274 -0.10185,0.0845 -0.33352,0.0948 -0.43969,0.0196 z m -15.42975,-0.46659 c -0.10009,-0.38382 -0.15566,-0.38995 -0.15439,-0.017 8e-4,0.24772 0.0393,0.37851 0.14111,0.48035 l 0.0836,0.0836 0.0112,-0.0958 c 0.006,-0.0527 -0.0306,-0.25571 -0.0815,-0.45119 z m 8.48396,0.20271 c -0.0255,-0.0103 -0.0762,-0.0109 -0.1128,-0.002 -0.0366,0.01 -0.0157,0.018 0.0463,0.0187 0.0621,8e-4 0.092,-0.007 0.0665,-0.0173 z m -0.9689,-0.0706 c -1.14176,-0.0831 -3.37141,-0.14041 -4.06075,-0.1043 l -0.63919,0.0335 0.80839,0.0273 c 1.05959,0.0358 3.46471,0.0888 4.06074,0.0895 l 0.46999,4e-4 z m -6.68145,-0.0959 c 0.009,-0.0806 -0.0236,-0.1197 -0.20094,-0.2374 -0.1167,-0.0775 -0.22075,-0.13234 -0.2312,-0.12188 -0.0431,0.043 0.0767,0.2915 0.184,0.3818 0.13887,0.11686 0.23287,0.10833 0.24814,-0.0225 z m 24.9194,-2.47979 c 0.11209,-0.1538 0.5645,-0.52398 0.64119,-0.52464 0.0249,-2.9e-4 0.034,-0.0407 0.0227,-0.10005 l -0.0191,-0.0997 0.28524,0.0258 c 0.28738,0.026 0.84273,0.11544 0.97197,0.15646 0.0985,0.0313 0.0867,-0.0453 -0.0176,-0.1136 -0.0988,-0.0648 -0.94932,-0.24423 -1.16051,-0.2449 -0.12763,-4e-4 -0.13955,0.009 -0.1504,0.11651 -0.0115,0.11401 -0.0179,0.10882 -0.25571,-0.2068 -0.13417,-0.17806 -0.25684,-0.32374 -0.2726,-0.32374 -0.0157,0 -0.0286,0.0342 -0.0286,0.076 0,0.10643 -0.27564,0.39386 -0.46614,0.48608 -0.11765,0.0569 -0.23373,0.0771 -0.44478,0.0771 -0.26763,0 -0.29124,0.007 -0.3755,0.10685 -0.0786,0.0934 -0.15124,0.11969 -0.57673,0.2087 -0.26775,0.056 -0.66448,0.13905 -0.88162,0.18454 -0.22781,0.0477 -0.35504,0.0885 -0.30079,0.0964 0.20033,0.0291 2.51161,0.22218 2.70935,0.22634 0.20269,0.004 0.21231,-1.4e-4 0.31959,-0.14738 z m -4.55827,-1.2112 c 0.0562,-0.39808 0.16991,-1.06205 0.25273,-1.47548 0.0901,-0.44969 0.14119,-0.79445 0.12721,-0.85813 -0.0461,-0.20956 -0.28989,-0.28507 -1.18179,-0.36596 -0.39552,-0.0359 -2.23823,-0.10782 -2.81862,-0.11006 -0.21174,-8e-4 -0.23596,-0.008 -0.18799,-0.0549 0.0302,-0.0297 0.16379,-0.0944 0.2967,-0.14376 l 0.24164,-0.0898 -0.84323,0.0147 c -0.74585,0.013 -0.86496,0.0236 -1.03124,0.0924 -0.22115,0.0914 -0.58279,0.31606 -0.58279,0.36206 0,0.0176 0.35827,0.0433 0.79616,0.0569 0.66651,0.0208 0.80988,0.0158 0.88036,-0.0303 0.0722,-0.0473 0.22019,-0.05 1.0368,-0.0191 1.63467,0.062 2.51267,0.15439 2.83924,0.29885 0.27132,0.12001 0.2727,0.14531 0.0672,1.22292 -0.25502,1.33696 -0.3203,1.72301 -0.3004,1.77658 0.01,0.0264 0.0807,0.047 0.1617,0.047 h 0.14423 z m 0.96949,0.57372 c 0.089,-2.8e-4 0.10017,-0.017 0.11958,-0.17892 0.0281,-0.23465 0.16556,-0.58761 0.27457,-0.70523 0.0854,-0.0922 0.0965,-0.0938 0.67278,-0.0938 h 0.58588 l -0.0213,-0.1786 c -0.0117,-0.0982 -0.0353,-0.34392 -0.0526,-0.54599 -0.0236,-0.27586 -0.049,-0.38695 -0.10225,-0.4459 -0.17549,-0.19432 -0.8826,-0.44636 -1.2519,-0.44623 -0.23385,8e-5 -0.41679,0.0995 -0.51861,0.28194 -0.15446,0.27669 -0.38411,1.43084 -0.33502,1.68366 0.0129,0.0666 0.051,0.24588 0.0845,0.39838 l 0.061,0.27726 0.19259,-0.0231 c 0.10592,-0.0127 0.23675,-0.0233 0.29074,-0.0235 z m -2.28864,-0.14478 c 0.0407,-0.0407 -0.15128,-0.0877 -0.66708,-0.16321 -0.42778,-0.0626 -3.58505,-0.0644 -3.75996,-0.002 -0.10907,0.0388 -0.1097,0.0404 -0.0188,0.046 0.0517,0.003 0.50854,0.0106 1.01519,0.0164 0.50666,0.006 1.19191,0.0382 1.52278,0.0719 0.33088,0.0337 0.67773,0.0683 0.7708,0.0769 0.27908,0.0256 1.09866,-0.007 1.13707,-0.0458 z m 1.59178,-0.83863 c 0.17771,-0.82606 0.34739,-1.41938 0.44598,-1.55938 0.0861,-0.12236 0.29274,-0.2023 0.52276,-0.2023 0.44478,0 1.11866,0.33641 2.05514,1.02593 0.63799,0.46975 0.74809,0.57803 0.88451,0.86978 0.0685,0.14644 0.12588,0.23823 0.12757,0.20397 0.002,-0.0343 -0.0458,-0.17122 -0.10551,-0.30436 -0.0905,-0.20166 -0.1548,-0.27945 -0.38539,-0.4661 -1.65969,-1.34341 -2.65883,-1.72748 -3.14355,-1.2084 -0.11214,0.1201 -0.24445,0.51957 -0.38742,1.16973 -0.14103,0.64133 -0.2618,1.26386 -0.26023,1.34134 0.004,0.16304 0.0892,-0.14066 0.24614,-0.87021 z m 1.92409,0.87055 c 0.25674,-1.4e-4 0.42299,-0.015 0.42299,-0.0379 0,-0.0207 -0.0973,-0.0385 -0.2162,-0.0397 -0.11891,-10e-4 -0.27542,-0.0223 -0.34779,-0.047 -0.12097,-0.0413 -0.13329,-0.0595 -0.15242,-0.22609 -0.0226,-0.19625 -0.0783,-0.25731 -0.22123,-0.24212 -0.0926,0.01 -0.24396,0.22129 -0.36762,0.51364 l -0.0541,0.12791 0.25669,-0.0242 c 0.14118,-0.0133 0.44703,-0.0244 0.67968,-0.0245 z m 0.79552,-0.0518 c 0.0497,-0.0233 0.10713,-0.0692 0.12741,-0.10188 0.0571,-0.0921 -0.005,-0.39904 -0.10384,-0.51409 l -0.0879,-0.10215 -0.68052,-0.0141 c -0.44002,-0.009 -0.6805,-8e-4 -0.6805,0.0236 0,0.063 0.0884,0.0789 0.68572,0.12386 0.31563,0.0238 0.59694,0.0499 0.62515,0.0582 0.0647,0.019 0.0437,0.11916 -0.084,0.4002 l -0.0986,0.21686 0.10322,-0.0241 c 0.0568,-0.0132 0.14396,-0.0431 0.19376,-0.0665 z m 1.04681,-0.0723 c 0.0989,-0.0989 0.0995,-0.10271 0.0524,-0.33064 -0.0854,-0.41333 -0.12534,-0.49258 -0.32496,-0.64426 -0.20169,-0.15326 -0.62359,-0.41483 -0.64057,-0.39714 -0.005,0.006 0.0114,0.13763 0.038,0.29272 0.0265,0.15511 0.0778,0.4799 0.11381,0.72178 0.0743,0.49861 0.0582,0.4817 0.44342,0.46629 0.17912,-0.007 0.23565,-0.0265 0.31789,-0.10875 z m -18.71645,0.0136 c 0.0214,-0.04 0.0389,-0.11462 0.0389,-0.16582 0,-0.0519 0.0669,-0.17773 0.15128,-0.28447 0.16616,-0.21021 0.1628,-0.22895 -0.0208,-0.11551 -0.16363,0.10113 -0.24332,0.23076 -0.24332,0.3958 v 0.13592 l -0.24064,-0.0258 c -0.15078,-0.0162 -0.2666,-0.0107 -0.31019,0.0147 -0.0584,0.0339 -0.0453,0.041 0.0808,0.0437 0.0827,0.002 0.21808,0.0173 0.3008,0.0344 0.0827,0.0171 0.1625,0.0331 0.17728,0.0354 0.0148,0.002 0.0444,-0.0284 0.0658,-0.0684 z m 2.16988,-0.003 c 2.06459,-0.0654 2.19529,-0.10468 0.33981,-0.102 -1.22628,0.002 -1.61962,-0.009 -1.65437,-0.0439 -0.0603,-0.0612 0.71231,-0.81901 1.49598,-1.46735 0.31019,-0.25663 0.58091,-0.48312 0.60159,-0.50331 0.14809,-0.14459 -0.62211,0.40139 -1.07159,0.75962 -0.38875,0.30985 -1.42877,1.32865 -1.42877,1.39963 0,0.0305 0.0565,0.0372 0.18516,0.022 0.10185,-0.0121 0.79132,-0.0411 1.53219,-0.0646 z m -1.91067,-0.16776 c 0.0261,-0.0721 0.11445,-0.21589 0.19642,-0.3196 0.15356,-0.19425 0.15394,-0.23415 8.8e-4,-0.1272 -0.0856,0.06 -0.38035,0.48313 -0.38035,0.54608 0,0.0175 0.0304,0.0318 0.0677,0.0318 0.0432,0 0.0848,-0.0475 0.11503,-0.13105 z m 5.19854,-0.21674 c 0.0246,-0.0465 0.24516,-0.39067 0.49012,-0.76474 0.24496,-0.37408 0.44538,-0.69644 0.44538,-0.71637 0,-0.0439 -0.27019,-0.1423 -0.60159,-0.219 -0.2886,-0.0668 -0.61479,-0.073 -0.92369,-0.0177 -0.28818,0.0516 -0.82892,0.31647 -1.16245,0.56935 -0.28124,0.21323 -1.26022,1.1456 -1.26022,1.20022 0,0.0181 0.66293,0.0328 1.48386,0.0328 H 797.13 Z m 7.95567,-0.3572 c -1.5e-4,-0.43871 0.13704,-0.70058 0.54891,-1.04752 0.11318,-0.0953 0.13882,-0.14221 0.13882,-0.2538 v -0.13686 h -2.11976 -2.11975 l 0.019,0.16846 c 0.0276,0.24474 -0.0514,0.34844 -0.28959,0.38004 l -0.18613,0.0247 0.70343,0.49716 0.70343,0.49716 1.10889,0.0569 c 0.6099,0.0313 1.19529,0.0593 1.30088,0.0622 l 0.19197,0.005 z m -9.64495,-1.53569 c 0.33747,-0.13635 0.66434,-0.26413 0.72637,-0.28394 0.0621,-0.0198 0.63732,-0.0523 1.27839,-0.0722 1.84208,-0.0572 1.88669,-0.10319 0.094,-0.097 l -1.56039,0.005 -0.28199,0.136 c -0.254,0.12249 -0.95208,0.55959 -0.89372,0.55959 0.0131,0 0.29988,-0.11156 0.63734,-0.24792 z m 10.21811,-0.20223 c -0.0991,-0.058 -0.78415,-0.1838 -1.21984,-0.22401 -0.22748,-0.021 -0.86753,-0.0562 -1.42232,-0.0782 l -1.00873,-0.04 -0.23206,0.0925 c -0.19038,0.0759 -0.32848,0.0974 -0.76892,0.11953 -0.52472,0.0264 -0.67809,0.0635 -0.4738,0.11482 0.15195,0.0381 1.17627,-0.0147 1.34906,-0.0695 0.22137,-0.0703 1.74003,-0.0583 2.78236,0.022 0.47564,0.0366 0.88171,0.0727 0.9024,0.0801 0.0207,0.007 0.0629,0.0142 0.094,0.0153 0.0484,0.002 0.0481,-0.003 -0.002,-0.0324 z m -5.11213,-0.61224 c 0.0906,-0.0776 0.25049,-0.18376 0.35533,-0.236 l 0.1906,-0.095 -0.75199,0.0236 -0.75199,0.0237 -0.35631,0.17475 c -0.54138,0.26552 -0.52186,0.27898 0.38194,0.26328 l 0.76769,-0.0133 z"
         id="path4-7" />
    </g>
  </g>
</svg>
