<?xml version="1.0" encoding="UTF-8" standalone="no"?>
<!-- Created with Inkscape (http://www.inkscape.org/) -->

<svg
   width="41.008999mm"
   height="41.008999mm"
   viewBox="0 0 41.008999 41.008999"
   version="1.1"
   id="svg1"
   inkscape:version="1.4.2 (f4327f4, 2025-05-13)"
   sodipodi:docname="283.svg"
   xmlns:inkscape="http://www.inkscape.org/namespaces/inkscape"
   xmlns:sodipodi="http://sodipodi.sourceforge.net/DTD/sodipodi-0.dtd"
   xmlns="http://www.w3.org/2000/svg"
   xmlns:svg="http://www.w3.org/2000/svg">
  <sodipodi:namedview
     id="namedview1"
     pagecolor="#ffffff"
     bordercolor="#000000"
     borderopacity="0.25"
     inkscape:showpageshadow="2"
     inkscape:pageopacity="0.0"
     inkscape:pagecheckerboard="0"
     inkscape:deskcolor="#d1d1d1"
     inkscape:document-units="mm"
     inkscape:zoom="1.4513545"
     inkscape:cx="86.470947"
     inkscape:cy="-62.700049"
     inkscape:window-width="1050"
     inkscape:window-height="1081"
     inkscape:window-x="857"
     inkscape:window-y="0"
     inkscape:window-maximized="0"
     inkscape:current-layer="layer1" />
  <defs
     id="defs1" />
  <g
     inkscape:label="Layer 1"
     inkscape:groupmode="layer"
     id="layer1"
     transform="translate(333.37504,1257.5646)">
    <g
       id="g90"
       transform="translate(-1237.9888,-933.22994)">
      <path
         style="fill:#000000;stroke-width:0.1;stroke-dasharray:none"
         d="m 941.00316,-291.84792 c -1.17255,1.29026 -2.35282,2.1303 -3.93322,2.79941 -1.27256,0.53877 -1.29029,0.55531 -0.78397,0.73142 l 0.51803,0.18017 -0.94192,0.55883 c -1.40229,0.83197 -2.71488,1.03158 -3.82062,0.58104 -0.50948,-0.20755 -1.00635,-0.33435 -1.1042,-0.2817 -0.34415,0.18517 -2.86264,-0.47118 -4.52035,-1.17805 -1.89844,-0.80953 -3.37365,-1.89756 -4.50857,-3.32482 -1.30627,-1.64295 -2.14364,-3.66225 -2.15359,-5.1933 -0.006,-0.87723 0.067,-1.10425 0.43313,-1.35202 0.42053,-0.28462 0.41873,-0.2895 -0.0408,-0.11029 -0.26443,0.10309 -0.57946,0.35242 -0.70005,0.55406 -0.12093,0.20145 -0.4286,0.45502 -0.68443,0.56307 -0.25583,0.10805 -0.59351,0.41879 -0.75039,0.69053 -0.15688,0.27172 -0.39498,0.49732 -0.52902,0.50136 -0.13406,0.004 -0.37196,0.2234 -0.52863,0.4875 -0.27566,0.46546 -0.28686,0.46426 -0.34843,-0.0315 -0.10323,-0.83061 0.37309,-2.46675 1.46376,-5.0282 1.31138,-3.07977 1.37256,-3.28004 1.05761,-3.46188 -0.14434,-0.0833 -0.59804,0.0662 -1.00823,0.33227 -0.41018,0.26609 -0.93391,0.51592 -1.16384,0.55518 -0.5762,0.0984 -0.73443,0.45518 -0.46152,1.04065 0.27364,0.58705 0.89038,0.68256 1.40051,0.21689 0.51384,-0.46905 0.45935,-0.19206 -0.31002,1.57586 -1.22073,2.80517 -1.66394,5.92005 -0.77953,5.4787 0.1836,-0.0916 0.44008,-0.34779 0.56997,-0.56926 0.1301,-0.22134 0.309,-0.3606 0.39803,-0.3092 0.089,0.0514 0.31731,-0.19429 0.5073,-0.54598 0.51754,-0.95821 1.00791,-0.98861 0.89166,-0.0553 -0.10804,0.86731 0.19449,2.15407 0.61469,2.61437 0.15786,0.173 0.24934,0.54781 0.20323,0.83301 -0.1148,0.71017 0.53139,1.64322 1.71668,2.47877 0.54596,0.38485 1.02045,0.86261 1.05444,1.06166 0.0864,0.5059 2.26272,1.73021 3.52011,1.98026 0.54974,0.10931 1.15432,0.34873 1.34354,0.53203 0.42532,0.41201 2.37015,0.96285 3.63046,1.02826 0.51735,0.0268 1.00697,0.12363 1.08805,0.21506 0.23199,0.26164 -3.52692,1.33945 -5.4358,1.55864 -7.11569,0.81707 -14.06796,-2.30016 -18.20321,-8.16187 -0.55712,-0.78973 -1.35591,-2.12724 -1.77508,-2.97225 -1.04921,-2.11507 -1.92477,-5.99417 -1.9056,-8.44251 0.0145,-1.8465 0.52743,-4.87731 1.1015,-6.50806 l 0.24328,-0.69109 0.32514,1.56862 c 0.45071,2.17446 1.2307,3.32051 3.08364,4.53083 1.06007,0.6924 1.45737,0.8779 1.45139,0.67729 -0.005,-0.1519 -0.18975,-0.38094 -0.41156,-0.509 -1.01805,-0.58777 -2.47075,-3.86856 -2.04188,-4.61139 0.0755,-0.13071 0.46018,-0.31253 0.85493,-0.40406 0.8797,-0.20393 1.5473,-0.62122 2.17649,-1.3604 0.40691,-0.47807 0.349,-0.4611 -0.38705,0.11345 -1.09448,0.85429 -2.22766,1.1877 -3.23004,0.95035 -0.78799,-0.18659 -1.30318,-0.59195 -1.13109,-0.89001 0.051,-0.0883 0.52651,-0.32923 1.05669,-0.53534 0.9593,-0.37292 3.24187,-1.84443 3.18579,-2.05377 -0.0162,-0.0604 -0.393,0.022 -0.83736,0.18299 -0.8222,0.29799 -2.62088,0.32495 -2.69711,0.0404 -0.023,-0.086 0.42269,-1.0185 0.99054,-2.07209 1.00208,-1.85924 1.07034,-1.94049 2.31975,-2.76068 0.70799,-0.46479 1.33254,-1.01005 1.38786,-1.21169 0.15058,-0.54871 2.06066,-1.71682 3.10403,-1.89827 0.569,-0.099 0.93554,-0.28317 0.96776,-0.48639 0.0808,-0.50984 1.25616,-1.03198 3.61886,-1.60765 2.5705,-0.6263 3.80654,-0.74475 6.2988,-0.60362 5.06357,0.28675 10.1772,2.85157 13.6324,6.83756 4.64084,5.35376 6.19215,12.83443 4.02603,19.41411 -0.48065,1.46006 -0.81951,1.88458 -1.28823,1.61396 -0.16811,-0.0971 -0.52419,0.009 -0.80751,0.24147 -0.49237,0.40332 -0.49141,0.42031 0.0336,0.59791 0.44198,0.14952 0.52995,0.29165 0.48286,0.78017 -0.0712,0.739 -0.39822,1.27846 -1.52971,2.52353 z m 0.29238,-1.43211 c -1.22584,0.62219 -3.97752,1.10971 -5.65217,1.00142 -1.62916,-0.10536 -1.8261,-0.16853 -3.45141,-1.1069 -1.53824,-0.8881 -1.79696,-1.10976 -2.40462,-2.0608 l -0.68094,-1.06562 -0.55829,0.23039 c -0.30705,0.1267 -0.59312,0.28656 -0.63569,0.35525 -0.0421,0.069 -0.56084,0.12801 -1.15169,0.13185 -0.78505,0.005 -1.35254,-0.14511 -2.10773,-0.55787 l -1.03347,-0.5648 0.40502,1.2582 c 0.53415,1.65934 1.99871,3.8231 3.34447,4.94116 3.02617,2.51417 7.89703,2.61563 11.37567,0.23697 1.74835,-1.19551 3.7768,-3.42149 2.55084,-2.79923 z m 0.70836,-1.50748 c -0.31451,-0.18159 -2.85735,0.17508 -3.19437,0.44805 -0.13585,0.1101 -0.32301,0.15631 -0.41578,0.10275 -0.0928,-0.0536 0.33352,-0.3068 0.94729,-0.56274 1.39695,-0.58254 3.15561,-1.75245 3.14542,-2.09242 -0.004,-0.14112 -0.24265,-0.39228 -0.52984,-0.55808 -0.71165,-0.41088 -2.28738,-0.0669 -3.46038,0.75531 -0.51609,0.36178 -0.87929,0.55366 -0.80711,0.4264 0.25584,-0.45113 1.32111,-1.13301 2.27449,-1.45601 l 0.96651,-0.32746 -0.0602,-0.9864 c -0.0751,-1.22933 -0.63876,-2.36037 -1.78815,-3.58802 l -0.88907,-0.94963 1.2612,0.65679 c 2.13529,1.11196 3.43135,3.03318 3.62463,5.37286 0.0473,0.57299 0.12809,1.03051 0.17949,1.01675 0.25793,-0.0691 1.17173,-4.1766 1.30549,-5.86817 0.5907,-7.47025 -3.20124,-14.60775 -9.8078,-18.46101 -4.67015,-2.72391 -9.25123,-3.31599 -14.70143,-1.90026 -1.54209,0.40058 -2.78682,0.79175 -2.76606,0.86928 0.0208,0.0775 0.68177,0.23014 1.46886,0.33913 0.78711,0.10901 2.0739,0.48519 2.85956,0.83596 0.78567,0.35073 1.80037,0.74046 2.25493,0.86599 1.20293,0.33219 2.84112,1.31419 2.91514,1.74737 0.0338,0.19815 0.55636,0.7111 1.16115,1.13987 1.22638,0.86944 1.88825,1.74594 1.75984,2.33046 -0.0469,0.21326 0.13296,0.85948 0.39959,1.43596 0.29244,0.63228 0.44827,1.40275 0.39274,1.94182 -0.0704,0.68345 -0.0139,0.87271 0.24025,0.80462 0.18276,-0.049 0.48358,-0.35107 0.66849,-0.67133 0.1849,-0.32027 0.44593,-0.58558 0.57997,-0.58962 0.13406,-0.004 0.38106,-0.2451 0.54884,-0.53571 0.37833,-0.65528 0.60845,-0.54357 0.73825,0.35833 0.13521,0.93967 -0.31266,2.67587 -1.25229,4.85444 l -0.7809,1.81054 0.5957,-0.30046 c 0.67544,-0.3407 1.47091,-0.0222 1.46277,0.58567 -0.004,0.2792 -0.3612,0.55822 -1.32294,1.03287 -1.9339,0.95437 -1.9885,0.8422 -0.84696,-1.74019 0.43553,-0.98527 1.00341,-2.36995 1.26197,-3.07707 0.48812,-1.33495 0.83641,-3.35003 0.60238,-3.48515 -0.074,-0.0427 -0.42448,0.29966 -0.77899,0.76075 -0.61406,0.79862 -0.96154,1.10914 -2.43414,2.17529 l -0.64432,0.46647 0.43056,-0.51359 c 1.20517,-1.43759 -0.64964,-5.67289 -3.57926,-8.17296 -1.41295,-1.20577 -4.91099,-2.60161 -6.77481,-2.70337 -0.47627,-0.026 -1.26453,-0.19711 -1.7517,-0.38026 -1.07637,-0.40463 -2.3785,-0.18941 -3.5727,0.59053 -0.8135,0.53128 -0.84215,0.57248 -0.52555,0.75527 0.44151,0.2549 0.3584,0.35692 -0.56259,0.69072 -1.0053,0.36432 -2.05859,1.05965 -2.66388,1.75851 -0.39309,0.45388 -0.24603,0.40414 0.78228,-0.26452 1.75045,-1.13827 4.04299,-1.71149 6.26912,-1.56752 1.77758,0.11495 1.83166,0.13329 3.87821,1.31486 2.02612,1.16978 2.09968,1.23361 3.09314,2.68029 1.36284,1.98473 2.09176,4.48603 1.94873,6.68716 -0.0922,1.41972 -0.24988,1.95077 -1.23526,4.16172 -1.35567,3.04173 -1.52819,4.25681 -0.78556,5.53286 0.5741,0.98648 1.76019,1.61943 2.81369,1.50156 0.37127,-0.0415 1.54573,-0.55668 2.60993,-1.14479 1.0642,-0.58808 2.42959,-1.20765 3.03421,-1.37681 1.23783,-0.34633 2.7276,-0.27431 3.06998,0.14839 0.20785,0.25663 0.18491,0.29261 -0.26334,0.41272 -0.74771,0.20034 -3.15659,1.93027 -3.73842,2.68472 -0.83095,1.07748 -0.68093,1.338 1.32927,2.30853 1.54148,0.74423 1.89845,0.83056 3.70108,0.89503 2.24303,0.0802 2.88678,-0.01 4.20534,-0.58885 0.98067,-0.43056 1.57603,-1.15026 1.15337,-1.39428 z m -3.72946,-3.964 c -0.25583,0.10806 -0.41525,0.11006 -0.35428,0.004 0.061,-0.1056 0.29024,-0.22264 0.50949,-0.26008 0.49865,-0.0851 0.4459,0.002 -0.15469,0.25592 z m -3.62793,4.1246 c -0.25793,0.0691 -1.16546,-0.50213 -1.17254,-0.73805 -0.0124,-0.4126 0.81404,-0.58845 1.13143,-0.24075 0.31558,0.34571 0.33884,0.89901 0.0411,0.97879 z m 7.66519,-4.39359 c -0.39442,-1.04557 -1.17237,-2.25511 -1.6147,-2.51049 -0.11681,-0.0674 -0.0158,0.31724 0.22445,0.85485 0.24027,0.5376 0.40838,1.33864 0.37361,1.7801 -0.04,0.50725 0.0484,0.82032 0.24009,0.8507 0.16683,0.0264 0.45842,0.13761 0.64798,0.24705 0.53667,0.30985 0.57372,-0.0422 0.12857,-1.22221 z m -7.77213,-0.0765 c -0.34115,-0.19697 -3.22409,0.68809 -4.31479,1.32464 l -1.11621,0.65143 0.66215,0.94071 c 0.36418,0.51737 0.71504,0.97057 0.77968,1.00711 0.0647,0.0366 0.3772,-0.36874 0.69456,-0.90061 0.44122,-0.73941 0.89227,-1.16936 1.91646,-1.82665 1.51923,-0.975 1.61621,-1.05919 1.37815,-1.19663 z m -6.53113,2.46335 c -0.20729,0.081 -0.71407,0.19272 -1.12618,0.24814 -0.4121,0.0554 -0.66608,0.14882 -0.56438,0.20754 0.23151,0.13366 1.87366,-0.2363 1.98514,-0.44724 0.045,-0.0859 -0.0873,-0.0895 -0.29458,-0.008 z m 4.66355,-8.57231 c -0.31849,-0.18388 -1.33153,0.42784 -1.66308,1.00426 -0.21804,0.3791 -0.18204,0.3831 0.43203,0.0479 0.36847,-0.20111 0.78851,-0.3692 0.93345,-0.37355 0.38928,-0.0117 0.60414,-0.50165 0.29759,-0.67864 z m -8.95928,7.28801 c -0.0789,-0.0479 -0.14049,0.023 -0.13634,0.15716 0.004,0.13407 0.14473,0.32148 0.3127,0.41644 0.26283,0.14943 0.28207,0.12705 0.13644,-0.15712 -0.0929,-0.18138 -0.23364,-0.36877 -0.31271,-0.41643 z m 5.57724,-17.14861 c -0.0131,-0.01 -0.34133,-0.35504 -0.72849,-0.76847 -0.38715,-0.41344 -0.72666,-0.71226 -0.75449,-0.66406 -0.0278,0.0481 0.2321,0.48488 0.57762,0.97042 0.34552,0.48554 0.67131,0.94831 0.72399,1.02839 0.0527,0.0801 0.12053,-0.0108 0.15088,-0.20193 0.0303,-0.19114 0.044,-0.35511 0.0305,-0.36434 z m -5.06086,3.54522 c -1.03013,-0.30534 -2.41945,-0.15178 -3.25998,0.3603 -0.35489,0.21623 -0.40464,0.17815 -1.04125,-0.79742 -1.31663,-2.01765 -3.20757,-3.08066 -5.84869,-3.28795 -1.9291,-0.15137 -6.04579,0.76046 -5.89942,1.30672 0.0166,0.0621 0.47039,-0.0893 1.00823,-0.33675 0.74664,-0.34349 1.5675,-0.43455 3.47085,-0.38501 2.47863,0.0645 2.50277,0.0702 4.20387,0.98977 l 1.71093,0.92488 -0.63936,1.06821 c -0.49619,0.82903 -0.92161,1.25389 -1.90006,1.89746 -0.69342,0.45607 -1.53279,0.91471 -1.8653,1.0192 l -0.60453,0.18997 0.39781,0.22968 c 1.12363,0.64873 3.95833,0.1053 5.95968,-1.14251 2.66069,-1.65887 4.15242,-1.64591 5.60389,0.0487 0.20064,0.23424 0.2072,0.0192 0.0219,-0.71934 l -0.26429,-1.05348 z m 1.10191,-7.24884 c -0.56636,-0.31775 -1.22064,-0.60659 -1.45394,-0.64189 -0.24118,-0.0365 0.20545,0.29233 1.03531,0.76225 0.80287,0.4543 1.45699,0.7434 1.45396,0.6419 -0.003,-0.10153 -0.46895,-0.44452 -1.03533,-0.76226 z m -6.22126,-2.26433 c -0.77511,-0.087 -1.52703,-0.13504 -1.67095,-0.10685 -0.44687,0.0875 1.07977,0.52687 1.9414,0.55866 0.44917,0.0166 1.13579,0.13433 1.52582,0.26168 l 0.70914,0.23153 -0.54806,-0.39344 c -0.33025,-0.23709 -1.10818,-0.4563 -1.95736,-0.55156 z m -3.33717,9.26855 c -0.62633,0.1348 -0.85747,0.005 -0.94927,-0.53258 -0.0657,-0.3848 -0.10855,-0.40657 -0.47856,-0.24316 -0.5391,0.23807 -0.56729,0.97857 -0.0482,1.27825 0.44991,0.25975 1.59935,0.0427 1.8227,-0.3441 0.12904,-0.22352 0.0737,-0.24882 -0.34662,-0.15844 z m -4.00001,3.23754 c -0.1626,0.16963 -0.45817,0.37629 -0.65665,0.45935 -0.31383,0.13133 -0.30133,0.14251 0.096,0.0859 0.25122,-0.0358 0.54671,-0.24248 0.65662,-0.45934 0.18979,-0.37451 0.185,-0.37882 -0.0959,-0.086 z"
         id="path1-60"
         sodipodi:nodetypes="csscsssssssscssscssssssssscscsssssssssssssscssssssscssssscsssssssssssssccsssscscsscsssssssssssssscsscssssssssssssssssssssscsssssssscsssssssssssssssssssssssssscssccsssssssssssssscsssssssscsssssscccscssssscsssssssssscssscsssscssscsssssscsssssssssssssss" />
      <circle
         style="fill:none;stroke:#ff0000;stroke-width:0.1;stroke-dasharray:none;stroke-opacity:1"
         id="path7"
         cx="925.16339"
         cy="-303.80035"
         r="20" />
      <circle
         style="fill:none;stroke:#0000ff;stroke-width:0.1;stroke-dasharray:none;stroke-opacity:1"
         id="path20"
         cx="925.16339"
         cy="-319.59149"
         r="2" />
    </g>
  </g>
</svg>
