<?xml version="1.0" encoding="UTF-8" standalone="no"?>
<!-- Created with Inkscape (http://www.inkscape.org/) -->

<svg
   width="41.008999mm"
   height="41.008999mm"
   viewBox="0 0 41.008999 41.008999"
   version="1.1"
   id="svg1"
   inkscape:version="1.4.2 (f4327f4, 2025-05-13)"
   sodipodi:docname="290.svg"
   xmlns:inkscape="http://www.inkscape.org/namespaces/inkscape"
   xmlns:sodipodi="http://sodipodi.sourceforge.net/DTD/sodipodi-0.dtd"
   xmlns="http://www.w3.org/2000/svg"
   xmlns:svg="http://www.w3.org/2000/svg">
  <sodipodi:namedview
     id="namedview1"
     pagecolor="#ffffff"
     bordercolor="#000000"
     borderopacity="0.25"
     inkscape:showpageshadow="2"
     inkscape:pageopacity="0.0"
     inkscape:pagecheckerboard="0"
     inkscape:deskcolor="#d1d1d1"
     inkscape:document-units="mm"
     inkscape:zoom="1.4513545"
     inkscape:cx="86.470947"
     inkscape:cy="-62.700049"
     inkscape:window-width="1050"
     inkscape:window-height="1081"
     inkscape:window-x="857"
     inkscape:window-y="0"
     inkscape:window-maximized="0"
     inkscape:current-layer="layer1" />
  <defs
     id="defs1" />
  <g
     inkscape:label="Layer 1"
     inkscape:groupmode="layer"
     id="layer1"
     transform="translate(333.37504,1257.5646)">
    <g
       id="g64"
       transform="translate(-1111.3892,-1032.5675)">
      <ellipse
         style="fill:none;stroke:#ff00ff;stroke-width:0.1;stroke-dasharray:none;stroke-opacity:1"
         id="path1138-9-4-0-0-1-2-8-1-8-1-17-4"
         cx="798.51868"
         cy="-204.49261"
         rx="18.492125"
         ry="18.492126" />
      <path
         style="fill:#000000;stroke-width:0.1;stroke-dasharray:none"
         d="m 796.71229,-188.95322 c -0.23373,-0.11784 -0.36132,-0.3278 -0.3614,-0.59475 -5e-5,-0.0986 0.079,-0.37081 0.18154,-0.62521 0.0999,-0.24774 0.18159,-0.51688 0.18159,-0.59807 0,-0.1903 -0.20583,-0.44369 -0.46435,-0.57166 -0.18951,-0.0938 -0.19085,-0.096 -0.0577,-0.0958 0.0749,7e-5 0.2062,0.0429 0.29172,0.0949 l 0.15551,0.0949 -0.082,-0.12906 c -0.0452,-0.071 -0.12028,-0.1712 -0.16686,-0.22277 -0.11311,-0.12513 -0.10865,-0.19164 0.006,-0.0879 0.0885,0.0802 0.0919,0.0787 0.14065,-0.0611 0.0274,-0.0788 0.0684,-0.14318 0.0908,-0.14318 0.0685,0 0.0466,-0.27386 -0.0729,-0.91239 -0.0627,-0.33472 -0.14425,-0.86397 -0.18129,-1.17611 -0.0954,-0.80419 -0.15593,-1.05525 -0.24588,-1.01984 -0.22852,0.09 -0.61252,0.11784 -0.96661,0.0702 -0.20705,-0.0279 -0.41956,-0.0622 -0.47225,-0.0762 -0.0829,-0.0221 -0.0997,-9.2e-4 -0.12488,0.15611 -0.0158,0.0999 -0.0846,0.24766 -0.15233,0.32826 -0.1223,0.14535 -0.55806,0.45073 -0.64317,0.45073 -0.072,0 -0.24128,-0.50472 -0.24561,-0.73266 -0.003,-0.12419 0.0264,-0.25675 0.0699,-0.32339 0.0406,-0.062 0.0632,-0.15367 0.0503,-0.20357 -0.0361,-0.13792 0.20224,-0.44818 0.43173,-0.56209 0.17062,-0.0847 0.18708,-0.1046 0.11825,-0.14314 -0.12554,-0.0703 -1.0106,0.0702 -1.19726,0.18986 -0.0524,0.0336 -0.0465,0.0626 0.0349,0.16587 0.0869,0.11041 0.0911,0.13623 0.0356,0.22013 -0.0727,0.11014 -0.2781,0.14876 -0.37298,0.07 -0.10973,-0.0911 -0.0735,-0.24439 0.0964,-0.40878 l 0.16176,-0.15646 -0.51361,-0.0227 -0.51361,-0.0227 -0.16322,0.17026 c -0.16326,0.17029 -0.23809,0.19293 -0.56299,0.17048 -0.45598,-0.0315 -0.56815,-0.40772 -0.19028,-0.63811 0.25475,-0.15535 0.55599,-0.11082 0.80299,0.11878 0.16401,0.15245 0.75511,0.19039 1.44877,0.093 0.49838,-0.07 0.68469,-0.11865 0.45435,-0.11879 -0.0605,-3e-5 -0.32112,-0.0512 -0.57948,-0.11392 l -0.46973,-0.11379 -0.13532,0.11393 c -0.18791,0.1581 -0.49572,0.15923 -0.65253,0.003 -0.14801,-0.14799 -0.14545,-0.36901 0.008,-0.71147 0.0658,-0.14671 0.12974,-0.26674 0.14204,-0.26674 0.0121,0 0.12987,0.0615 0.26135,0.13676 0.27309,0.15623 0.38497,0.30025 0.38497,0.49553 0,0.11946 0.0208,0.1412 0.17024,0.17833 0.50281,0.12486 0.5555,0.13297 0.52373,0.0811 -0.10392,-0.16967 -0.24705,-0.36422 -0.3363,-0.45697 -0.0565,-0.0586 -0.13695,-0.21168 -0.17876,-0.33998 -0.0699,-0.21448 -0.0702,-0.23672 -0.003,-0.27616 0.0631,-0.0369 0.0603,-0.0431 -0.0201,-0.0443 -0.1975,-0.003 -0.24561,-0.0923 -0.19512,-0.36232 0.0926,-0.49468 0.26539,-0.69742 0.79375,-0.93094 0.15298,-0.0676 0.35011,-0.1979 0.43804,-0.28951 0.15221,-0.15854 0.76585,-1.06059 0.73947,-1.08698 -0.006,-0.006 -0.21263,0.11324 -0.45717,0.26692 -0.5459,0.34308 -0.93084,0.52058 -1.37607,0.63445 -0.41596,0.10635 -0.58707,0.10919 -0.82639,0.0135 -0.47859,-0.19149 -0.4114,-0.82637 0.14645,-1.38424 0.19265,-0.19264 0.21646,-0.2318 0.12555,-0.20626 -0.42589,0.1196 -0.81475,0.17634 -1.2473,0.18195 -0.57237,0.006 -0.87918,-0.055 -1.26414,-0.25708 -0.58189,-0.30549 -0.6424,-0.7079 -0.17059,-1.13414 0.37589,-0.33962 1.13349,-0.61505 2.11575,-0.7692 0.05,-0.008 -0.0829,-0.0604 -0.29543,-0.11676 -1.15163,-0.30552 -2.40598,-1.13538 -2.40598,-1.59175 0,-0.1277 0.23854,-0.3104 0.45262,-0.34657 0.10082,-0.017 0.17263,-0.0484 0.15952,-0.0696 -0.0135,-0.0212 -0.1396,-0.10488 -0.28104,-0.18578 -0.53487,-0.306 -1.14804,-0.9912 -1.47819,-1.65177 -0.26758,-0.53539 -0.5328,-1.55229 -0.5328,-2.04287 0,-0.28168 0.12878,-0.59591 0.31215,-0.76155 0.23462,-0.21198 0.45586,-0.28164 0.891,-0.28056 0.33704,9.3e-4 0.55818,0.0444 1.13029,0.22299 l 0.22221,0.0693 -0.0261,-0.31154 c -0.0145,-0.17134 -0.057,-0.38572 -0.095,-0.47641 l -0.069,-0.16484 -0.15871,0.0936 c -0.28136,0.166 -0.57248,0.10852 -0.57248,-0.11311 0,-0.152 0.0885,-0.20783 0.32958,-0.20783 0.27056,0 0.25064,-0.0476 -0.0945,-0.22573 -0.29725,-0.15346 -0.25333,-0.17912 0.0811,-0.0473 l 0.22869,0.0902 0.003,-0.2377 c 0.006,-0.37397 0.0702,-0.47225 0.0973,-0.14688 0.0121,0.14981 0.0464,0.33069 0.0752,0.40194 l 0.0524,0.1296 0.18108,-0.16359 c 0.18887,-0.17064 0.37899,-0.21344 0.42425,-0.0955 0.0459,0.1196 -0.0191,0.19866 -0.25572,0.3111 l -0.23069,0.1096 0.13298,0.0688 c 0.12338,0.0638 0.33586,0.25966 0.28168,0.25966 -0.0135,0 -0.11852,-0.0529 -0.23404,-0.11743 -0.11555,-0.0646 -0.20978,-0.11055 -0.20951,-0.10217 0,0.008 0.0306,0.12757 0.0676,0.26495 0.0369,0.13735 0.0673,0.35505 0.0676,0.4838 v 0.23407 l 0.29978,0.14028 0.29975,0.14027 0.12488,-0.089 c 0.17454,-0.12433 0.36335,-0.38312 0.46036,-0.63111 0.0453,-0.11568 0.0829,-0.16939 0.084,-0.11946 0.003,0.15287 -0.20467,0.54472 -0.3827,0.72276 -0.0927,0.0927 -0.16152,0.17358 -0.15278,0.17963 0.008,0.006 0.22022,0.14605 0.46993,0.31117 0.24972,0.16511 0.64669,0.45478 0.88215,0.64371 0.23549,0.18895 0.43356,0.33814 0.44012,0.33156 0.006,-0.006 -0.009,-0.10338 -0.0346,-0.21507 -0.053,-0.23104 -0.0231,-0.59865 0.0754,-0.92537 0.0369,-0.12257 0.067,-0.23741 0.067,-0.25517 0,-0.0177 -0.09,-0.0574 -0.2,-0.0882 -0.11,-0.0308 -0.26545,-0.0958 -0.34536,-0.14436 -0.11946,-0.0727 -0.14197,-0.11123 -0.1265,-0.21681 0.0135,-0.0892 -0.006,-0.14409 -0.0632,-0.17973 -0.0541,-0.0336 -0.0822,-0.10609 -0.0822,-0.2114 0,-0.0881 -0.033,-0.21034 -0.0731,-0.27171 -0.0438,-0.0669 -0.0622,-0.15502 -0.0458,-0.2201 0.0224,-0.0894 0.004,-0.11838 -0.10852,-0.16475 -0.18515,-0.0767 -0.17221,-0.1387 0.0168,-0.0806 0.13856,0.0426 0.18241,0.0293 0.47671,-0.14246 0.17828,-0.10406 0.324,-0.19351 0.32384,-0.19866 -1.4e-4,-0.006 -0.0873,-0.0121 -0.19379,-0.0144 -0.19633,-0.006 -0.8147,-0.20349 -0.72631,-0.23295 0.0265,-0.009 0.21208,0.0258 0.41239,0.0769 0.4303,0.10986 0.46496,0.11176 0.57443,0.0317 0.0761,-0.0555 0.0711,-0.0594 -0.0531,-0.0412 -0.11717,0.0171 -0.15102,-0.003 -0.23463,-0.138 -0.0647,-0.10473 -0.18361,-0.19877 -0.35237,-0.27869 -0.25446,-0.12041 -0.31873,-0.20549 -0.0894,-0.11838 0.11635,0.0442 0.29993,-0.0141 0.29993,-0.0951 0,-0.0585 -0.33685,-0.32419 -0.49465,-0.39012 -0.15314,-0.064 -0.1566,-0.0703 -0.0729,-0.13149 0.25537,-0.18675 0.6958,-0.18382 0.98481,0.006 l 0.16764,0.1104 0.16403,-0.19163 0.16405,-0.19164 -0.16799,-0.13474 c -0.16442,-0.13189 -0.38056,-0.51297 -0.38144,-0.67253 0,-0.0758 0.009,-0.0754 0.16981,0.006 0.0937,0.0477 0.27576,0.11797 0.40471,0.15622 0.12892,0.0382 0.28594,0.10325 0.34883,0.14445 0.17066,0.11176 0.30212,0.0273 0.30189,-0.19418 -1.2e-4,-0.13082 0.0577,-0.25307 0.25802,-0.54527 l 0.2582,-0.37659 0.13351,0.27598 0.13352,0.27598 0.25543,-0.24231 c 0.74599,-0.70763 1.76733,-1.11789 3.12712,-1.25614 1.19054,-0.12108 2.32826,0.2239 3.10238,0.94062 0.3067,0.28394 0.33463,0.29936 0.52212,0.28782 0.16087,-0.009 0.21961,0.009 0.31285,0.10257 0.14576,0.14576 0.14507,0.25762 -0.003,0.43325 -0.16965,0.20162 -0.0249,0.18604 0.20555,-0.0221 0.18034,-0.16293 0.29049,-0.39312 0.34353,-0.71788 l 0.0288,-0.17597 0.18061,0.35097 c 0.17219,0.33461 0.17722,0.35609 0.10812,0.46151 -0.0399,0.0608 -0.14297,0.14417 -0.22915,0.18528 -0.14745,0.0703 -0.20795,0.14869 -0.11473,0.14869 0.0231,0 0.10324,0.0517 0.17828,0.11473 0.24941,0.20988 0.24215,0.52497 -0.0191,0.83021 -0.0865,0.10109 -0.1416,0.19309 -0.12243,0.20451 0.0191,0.0108 0.19148,-0.0406 0.38288,-0.11581 l 0.34801,-0.13657 -0.0203,-0.25558 c -0.0108,-0.14056 -0.0277,-0.32967 -0.0365,-0.42024 -0.0135,-0.13447 -0.003,-0.16119 0.0582,-0.14566 0.0511,0.0135 0.10744,-0.0439 0.18025,-0.18229 0.16544,-0.31459 0.51188,-0.67159 0.83499,-0.86046 l 0.29534,-0.17262 -0.1146,-0.21502 c -0.13515,-0.25347 -0.11379,-0.43623 0.0602,-0.51552 0.17171,-0.0782 0.32563,0.015 0.43115,0.26106 l 0.089,0.20741 0.14198,-0.0823 c 0.0781,-0.0453 0.26401,-0.21507 0.41322,-0.37738 0.2599,-0.2828 0.26739,-0.28733 0.17879,-0.10892 -0.0508,0.10243 -0.18479,0.28118 -0.29763,0.39728 -0.11285,0.11608 -0.19059,0.21106 -0.17279,0.21106 0.0177,-3e-5 0.13446,-0.0385 0.25938,-0.0855 0.24523,-0.0923 0.39668,-0.0703 0.44871,0.0654 0.0791,0.20588 -0.29762,0.42005 -0.62923,0.35782 l -0.15648,-0.0293 -0.0135,0.4247 -0.0135,0.42468 -0.26902,-0.37456 c -0.3476,-0.48401 -0.4552,-0.48718 -0.937,-0.0276 -0.25586,0.24403 -0.57654,0.67785 -0.53313,0.72125 0.0108,0.0108 0.14804,0.0379 0.30393,0.0593 0.18702,0.0256 0.31526,0.0705 0.37698,0.1323 0.0787,0.0787 0.11474,0.0861 0.22719,0.0468 0.15006,-0.0523 0.51996,-0.0242 0.58886,0.0447 0.0297,0.0297 -0.0292,0.0702 -0.1742,0.11919 -0.12055,0.0408 -0.36126,0.1708 -0.5348,0.28895 l -0.31556,0.21484 0.2376,0.0342 c 0.50918,0.0732 0.82596,0.35911 0.85959,0.77558 0.0158,0.19702 -7e-5,0.26296 -0.0987,0.40736 -0.0702,0.10257 -0.11771,0.23504 -0.11771,0.32758 0,0.10838 -0.0419,0.20296 -0.13846,0.31303 -0.26098,0.29723 -0.63034,0.32144 -0.84273,0.0553 l -0.11622,-0.14571 -0.23868,0.11554 -0.23869,0.11555 0.19722,0.39645 c 0.26943,0.54152 0.41945,1.00975 0.45381,1.41617 l 0.0289,0.34137 0.27719,-0.21979 c 1.04328,-0.82714 2.10384,-1.33092 3.12425,-1.484 0.527,-0.079 0.88255,-0.0564 1.24778,0.0794 0.76987,0.2865 0.80159,1.25372 0.0855,2.60671 -0.5387,1.01781 -0.95586,1.5245 -1.55813,1.89254 l -0.38221,0.23355 0.25304,0.0505 c 0.43455,0.0867 0.5883,0.33449 0.39221,0.63195 -0.10608,0.16095 -0.50984,0.51077 -0.87836,0.76103 -0.39598,0.26889 -0.91233,0.5153 -1.33613,0.63761 -0.42902,0.12379 -0.50409,0.17043 -0.27453,0.17043 0.26474,0 1.2078,0.25864 1.5697,0.43051 0.58625,0.27839 0.82634,0.53821 0.82634,0.89425 0,0.24715 -0.13962,0.41197 -0.51619,0.60942 -0.54461,0.28558 -1.44402,0.31747 -2.36687,0.084 -0.13405,-0.0339 -0.1327,-0.0308 0.0817,0.20013 0.38223,0.41132 0.52409,0.84781 0.37143,1.14298 -0.2721,0.52617 -1.41079,0.26648 -2.60407,-0.59386 -0.20909,-0.15075 -0.36891,-0.24474 -0.35514,-0.20886 0.0673,0.17536 0.55381,0.9076 0.74236,1.11733 0.15791,0.17562 0.31179,0.284 0.59311,0.41765 0.28439,0.13513 0.41292,0.22608 0.51131,0.36194 0.0723,0.0997 0.13945,0.20544 0.14922,0.23475 0.0135,0.0402 0.0488,0.0392 0.14383,-0.004 0.11595,-0.0529 0.12339,-0.0711 0.0919,-0.22648 -0.0471,-0.23326 -0.0329,-0.37084 0.0512,-0.49933 0.0799,-0.1219 0.4337,-0.29671 0.55407,-0.27378 0.19101,0.0364 0.0585,0.47166 -0.24614,0.80895 l -0.17506,0.19373 0.23653,-0.11985 c 0.29476,-0.14938 0.4891,-0.15655 0.56179,-0.0206 0.0455,0.0849 0.0376,0.11162 -0.0552,0.18694 -0.092,0.0747 -0.15305,0.0837 -0.40862,0.06 -0.24206,-0.0224 -0.50316,0.0121 -0.61529,0.0807 -0.004,0.003 -0.0217,0.0608 -0.0391,0.12947 -0.0294,0.11757 -0.0224,0.12473 0.12122,0.125 0.15376,1.8e-4 0.49298,0.0787 0.49298,0.11379 0,0.0108 -0.0335,0.0895 -0.0746,0.17552 -0.0694,0.14553 -0.0692,0.16984 0.003,0.34759 0.042,0.10514 0.0888,0.35147 0.10391,0.54745 l 0.0274,0.35632 -0.24497,-0.0259 c -0.50843,-0.0538 -0.65011,-0.13001 -0.83847,-0.45065 -0.0453,-0.077 -0.0623,-0.0719 -0.24251,0.0729 -0.17109,0.13751 -0.18454,0.1612 -0.11459,0.20162 0.1502,0.0869 0.38306,0.30505 0.38087,0.35698 -0.003,0.0286 -0.0981,0.12865 -0.21548,0.22231 -0.17865,0.14262 -0.2481,0.17026 -0.42775,0.17026 -0.18568,0 -0.22804,-0.0182 -0.3152,-0.13621 -0.0997,-0.135 -0.1046,-0.1362 -0.53483,-0.135 -0.3157,9.2e-4 -0.483,0.0231 -0.61316,0.0816 l -0.17902,0.0805 0.74982,0.25892 c 0.4124,0.1424 0.76212,0.25891 0.7771,0.25891 0.0149,0 0.0885,-0.0612 0.16349,-0.13619 0.17623,-0.17624 0.46631,-0.19275 0.59816,-0.0341 0.0466,0.0562 0.15185,0.18158 0.23378,0.27869 0.13042,0.15458 0.15113,0.21528 0.16655,0.48807 l 0.0174,0.31153 h -0.1558 c -0.0856,0 -0.2594,-0.0308 -0.38598,-0.0684 -0.2744,-0.0815 -0.53792,-0.34524 -0.58253,-0.583 -0.0258,-0.1373 -0.0506,-0.16132 -0.19551,-0.18829 -0.0914,-0.017 -0.34825,-0.10123 -0.57098,-0.18708 -0.22274,-0.0859 -0.42494,-0.14951 -0.44931,-0.14138 -0.0244,0.008 0.0199,0.0879 0.0985,0.17747 0.15315,0.17444 0.17487,0.25943 0.0884,0.34592 -0.11581,0.11582 -0.35412,0.0342 -0.35412,-0.12122 0,-0.0368 0.0334,-0.10365 0.0741,-0.14866 0.0673,-0.0744 0.0677,-0.0917 0.004,-0.18975 -0.12866,-0.19627 -0.36874,-0.27323 -0.75157,-0.24087 -0.18703,0.0158 -0.35052,0.0392 -0.36334,0.052 -0.0353,0.0353 -0.22529,1.25162 -0.2801,1.79266 -0.0267,0.2622 -0.0996,0.78228 -0.16238,1.15572 l -0.11405,0.67898 0.0972,0.0732 c 0.0908,0.0685 0.0939,0.0905 0.048,0.33888 -0.027,0.14612 -0.0406,0.27408 -0.0305,0.28436 0.0108,0.0108 0.06,-0.003 0.11041,-0.0304 0.12879,-0.069 0.17563,-0.062 0.27929,0.0417 0.21597,0.21596 0.047,0.47413 -0.2926,0.44711 -0.27145,-0.0216 -0.26998,0.0229 0.0203,0.61551 0.12812,0.26172 0.22702,0.52679 0.22702,0.60858 0,0.0797 0.0108,0.14488 0.0244,0.14488 0.0135,0 0.11054,-0.0442 0.21565,-0.0984 0.26625,-0.13696 0.7914,-0.16522 1.14733,-0.0617 0.19789,0.0576 0.31965,0.13001 0.46829,0.27862 0.11055,0.11041 0.19105,0.21067 0.17906,0.22265 -0.0121,0.0121 -0.14271,-9.3e-4 -0.29052,-0.0299 -0.30352,-0.0582 -1.17435,-0.075 -1.44921,-0.0279 l -0.18159,0.0311 0.1589,-0.0718 c 0.2105,-0.095 0.99482,-0.13459 1.31288,-0.0665 0.1342,0.0288 0.25137,0.045 0.26034,0.0361 0.009,-0.009 -0.0911,-0.0753 -0.22226,-0.14744 -0.21035,-0.11555 -0.28434,-0.13109 -0.62454,-0.13109 -0.24272,3e-5 -0.49027,0.0311 -0.66711,0.0837 -0.23381,0.0694 -0.30076,0.11311 -0.39709,0.25872 -0.13888,0.20988 -0.31682,0.30957 -0.6156,0.34497 -0.45526,0.0539 -0.86579,-0.13964 -1.01961,-0.48069 -0.0931,-0.2065 -0.18396,-0.2395 -0.23125,-0.084 -0.0562,0.18497 -0.25652,0.40574 -0.44653,0.49203 -0.26766,0.12148 -0.67968,0.11487 -0.93775,-0.0153 z m 0.9493,-0.1583 c 0.18912,-0.14006 0.32971,-0.37763 0.31451,-0.53154 -0.0121,-0.1173 -0.0546,-0.15783 -0.30494,-0.28716 -0.22349,-0.1154 -0.32406,-0.14378 -0.43134,-0.12148 -0.18821,0.0391 -0.4744,0.20888 -0.63246,0.37518 -0.10487,0.11027 -0.12379,0.16164 -0.0997,0.27076 0.0329,0.14924 0.16943,0.29691 0.34269,0.37027 0.17574,0.0744 0.67079,0.028 0.81132,-0.0761 z m 1.97695,-0.003 c 0.18522,-0.1077 0.30378,-0.41598 0.20556,-0.53458 -0.084,-0.10135 -0.66843,-0.38251 -0.79515,-0.38251 -0.13625,0 -0.38316,0.0892 -0.53019,0.19164 -0.17398,0.12122 -0.16871,0.32468 0.0142,0.5466 0.24184,0.29337 0.76335,0.37774 1.10556,0.17885 z m -1.38616,-2.17171 c 0.006,-0.60323 0.0108,-0.64311 0.097,-0.66566 0.10459,-0.0273 0.10824,0.0694 -0.0523,-1.37139 -0.0643,-0.57758 -0.0879,-1.00143 -0.0714,-1.28261 l 0.0247,-0.41997 -0.1439,-2e-5 h -0.14392 l 0.0168,0.57889 c 0.009,0.31838 -0.008,0.9858 -0.0388,1.48316 -0.0543,0.88332 -0.0535,0.90593 0.035,0.97614 0.0838,0.0665 0.0928,0.1471 0.12068,1.07074 0.0165,0.54936 0.0443,1.0397 0.0615,1.08965 0.0399,0.11581 0.0879,-0.62115 0.0947,-1.45893 z m -1.44755,1.30014 0.11352,-0.0932 -0.13618,0.0302 c -0.18,0.0399 -0.18941,0.0465 -0.21708,0.15231 -0.0268,0.1023 0.0344,0.0796 0.23977,-0.0892 z m 2.96664,0.0453 c -0.0679,-0.11473 -0.10865,-0.13621 -0.25988,-0.13621 -0.20669,0 -0.20397,0.006 0.0661,0.15506 0.26469,0.14566 0.28955,0.14325 0.19378,-0.0189 z m -1.85426,-0.0454 c -0.0453,-0.05 -0.11474,-0.0904 -0.1546,-0.0899 -0.0527,5.3e-4 -0.0415,0.0252 0.0411,0.0899 0.14815,0.11581 0.2184,0.11581 0.11352,0 z m 0.6356,-0.004 c 0.12677,-0.0874 0.12839,-0.0917 0.0226,-0.063 -0.11784,0.0321 -0.27964,0.15771 -0.20269,0.15718 0.0241,-1.6e-4 0.10514,-0.0426 0.17997,-0.0942 z m 0.72573,-0.21943 c 0.0785,-0.0306 0.0696,-0.0418 -0.0708,-0.0882 -0.18319,-0.0604 -0.51665,0.0146 -0.39822,0.0897 0.0747,0.0473 0.34623,0.0465 0.46901,-9.3e-4 z m -1.65645,-0.0473 c 0,-0.02 -0.0588,-0.0607 -0.13041,-0.0904 -0.14623,-0.0605 -0.40983,-0.027 -0.53688,0.0682 -0.0709,0.0532 -0.0319,0.0612 0.29278,0.0599 0.20599,-9.3e-4 0.37456,-0.0179 0.37456,-0.0379 z m 0.37887,-0.28572 c -0.0156,-0.15607 -0.033,-0.2895 -0.0385,-0.29654 -0.008,-0.0108 -0.0814,0.0239 -0.33372,0.1575 -0.0121,0.006 0.34114,0.38353 0.38995,0.41578 0.006,0.004 -0.003,-0.12069 -0.0177,-0.27674 z m 1.54443,0.21567 c -0.0289,-0.0754 -0.0888,-0.0892 -0.12594,-0.0291 -0.0305,0.0491 0.0155,0.0972 0.093,0.0972 0.034,0 0.048,-0.0291 0.033,-0.0681 z m -0.7455,-0.3008 c 0.003,-0.0156 -0.0535,-0.0406 -0.12217,-0.0556 -0.0687,-0.015 -0.17081,-0.0405 -0.22701,-0.0564 -0.0962,-0.0274 -0.10217,-0.0159 -0.10217,0.1998 v 0.22887 l 0.22436,-0.14414 c 0.12338,-0.0793 0.22558,-0.1569 0.22702,-0.1725 z m -1.38211,0.12622 0.22699,0.006 -0.14298,-0.0699 c -0.15544,-0.0761 -0.30512,-0.0572 -0.44724,0.0561 -0.0882,0.0704 -0.0876,0.0714 0.0226,0.0361 0.0624,-0.02 0.21566,-0.0332 0.34053,-0.0293 z m 1.8228,-0.004 c -0.1372,-0.0606 -0.36326,-0.0435 -0.32132,0.0244 0.0138,0.0221 0.12067,0.0385 0.23782,0.0365 0.21048,-0.004 0.21146,-0.004 0.0835,-0.0609 z m -2.33915,-0.0603 c 0.0565,-0.072 0.0549,-0.0737 -0.0173,-0.0171 -0.0436,0.0342 -0.0794,0.07 -0.0794,0.0794 0,0.0373 0.0373,0.0135 0.0966,-0.0623 z m 2.49132,-0.0567 c 0,-0.025 -0.0203,-0.0454 -0.0454,-0.0454 -0.025,0 -0.0454,0.0204 -0.0454,0.0454 0,0.025 0.0205,0.0454 0.0454,0.0454 0.025,0 0.0454,-0.0204 0.0454,-0.0454 z m -0.19293,-0.18111 c 0.18813,-0.11473 0.18631,-0.16472 -0.006,-0.20104 -0.15306,-0.0286 -0.52624,0.0802 -0.52624,0.15351 0,0.0311 0.23401,0.12257 0.34053,0.13298 0.025,0.003 0.11176,-0.0361 0.19294,-0.0855 z m -1.72825,-0.006 0.12785,-0.0509 -0.13621,-0.0605 c -0.1628,-0.0723 -0.45988,-0.0832 -0.49995,-0.0183 -0.0158,0.0255 0.0391,0.0756 0.12216,0.11176 0.18539,0.0805 0.22495,0.0824 0.38617,0.0181 z m 0.41609,-0.19049 c 0.0516,-0.0623 0.0747,-0.23512 0.0605,-0.45393 l -0.008,-0.12784 -0.27531,0.21628 -0.27529,0.21627 0.19582,0.10244 c 0.23363,0.1223 0.23914,0.12311 0.30253,0.0467 z m 0.83041,-0.0569 0.13801,-0.0714 -0.24244,-0.15326 -0.24241,-0.15325 -0.0145,0.16129 c -0.008,0.0888 -0.004,0.1898 0.009,0.22463 0.032,0.0837 0.18048,0.0803 0.35128,-0.008 z m 1.30196,-0.0309 c 0.0219,-0.11527 -0.11581,-0.14969 -0.22034,-0.0552 -0.12879,0.11662 -0.10987,0.16514 0.0581,0.14889 0.097,-0.009 0.15235,-0.0414 0.16228,-0.0938 z m -2.99571,-0.0282 c 0.0459,-0.0291 0.0242,-0.067 -0.0894,-0.15581 -0.17843,-0.13967 -0.20725,-0.1269 -0.13068,0.0579 0.0584,0.14099 0.11338,0.16547 0.22009,0.0978 z m 2.45925,-0.0246 c 0,-0.0355 0.0139,-0.10082 0.0311,-0.14523 0.0264,-0.0687 0.009,-0.0652 -0.11406,0.0224 -0.0797,0.0567 -0.13338,0.12217 -0.11919,0.14522 0.0411,0.0665 0.20217,0.0487 0.20217,-0.0224 z m -1.70259,-0.45414 c 0.0999,-0.0847 0.1672,-0.16867 0.14955,-0.18656 -0.0177,-0.018 -0.16548,0.004 -0.32855,0.0477 -0.2224,0.0602 -0.37697,0.0727 -0.61841,0.0503 -0.2894,-0.0268 -0.32033,-0.022 -0.30678,0.0484 0.008,0.0431 0.13711,0.16391 0.28622,0.26846 l 0.27112,0.1901 0.18263,-0.13216 c 0.10041,-0.0727 0.26433,-0.20157 0.36422,-0.28629 z m 1.70815,0.11514 c 0.0469,-0.0596 0.0852,-0.14495 0.0852,-0.18979 0,-0.0703 -0.0203,-0.0756 -0.14727,-0.0392 -0.19714,0.0565 -0.46384,0.0532 -0.77699,-0.009 -0.14209,-0.0285 -0.27054,-0.0397 -0.28544,-0.0249 -0.0149,0.0149 -0.0144,0.0777 0.003,0.13959 0.0208,0.0829 0.11297,0.15493 0.35159,0.27428 l 0.3233,0.16176 0.18157,-0.1019 c 0.0999,-0.0561 0.21991,-0.15064 0.2668,-0.21019 z m -1.90111,-0.37082 0.17027,-0.0473 0.003,-0.25894 c 0,-0.14241 0.0212,-0.61646 0.0462,-1.05345 0.0311,-0.54384 0.0301,-1.02376 -0.003,-1.52098 -0.0688,-1.04041 -0.0573,-0.99677 -0.28365,-1.08375 -0.10568,-0.0405 -0.28182,-0.13351 -0.39158,-0.2065 l -0.1996,-0.13271 -0.18317,0.11568 c -0.1008,0.0637 -0.25369,0.1451 -0.33987,0.18111 l -0.15671,0.0654 0.0299,0.32605 c 0.0546,0.59743 0.13541,0.84633 0.32988,1.01705 l 0.17438,0.15308 -0.14758,-0.0714 -0.14755,-0.0714 0.003,0.23953 c 0,0.13177 0.0415,0.46427 0.0903,0.73895 0.0489,0.27469 0.11973,0.69353 0.15757,0.93075 0.0379,0.23723 0.0799,0.49772 0.0934,0.57888 l 0.0246,0.14756 0.28171,-1.8e-4 c 0.15494,-1.4e-4 0.35832,-0.0215 0.45199,-0.0476 z m -0.36774,-2.67644 c 0.0427,-0.12243 0.12946,-0.22913 0.12946,-0.15924 0,0.0415 -0.13562,0.29553 -0.15773,0.29553 -0.0108,0 0.003,-0.0614 0.0284,-0.13629 z m 2.33736,1.77076 c 0.079,-0.5119 0.1586,-1.10052 0.17667,-1.30803 l 0.0329,-0.37732 -0.15315,0.0934 c -0.21269,0.12973 -0.25584,0.11703 -0.0865,-0.0255 0.0779,-0.0655 0.18037,-0.19509 0.22768,-0.28781 0.0752,-0.14724 0.22867,-0.85495 0.22692,-1.04585 0,-0.0374 -0.14186,-0.14431 -0.31445,-0.23745 l -0.31383,-0.16936 -0.23598,0.1588 c -0.12973,0.0873 -0.32468,0.18112 -0.43307,0.20842 -0.11311,0.0285 -0.206,0.0814 -0.218,0.12406 -0.0108,0.0409 -0.0446,0.39124 -0.0735,0.77847 -0.0441,0.58839 -0.0412,0.80465 0.0168,1.31665 0.0382,0.33695 0.0819,0.80672 0.0973,1.04396 0.0459,0.71161 0.0161,0.67655 0.56692,0.66527 l 0.33969,-0.006 z m -0.74702,-1.72061 c -0.0543,-0.0968 -0.098,-0.2038 -0.0968,-0.23785 0.003,-0.0341 0.0537,0.0371 0.11662,0.15817 0.13729,0.26393 0.12082,0.33002 -0.0199,0.0797 z m -4.71285,0.11446 c 0.14876,-0.0951 0.26851,-0.21406 0.31562,-0.31333 0.0888,-0.18709 0.0926,-0.23464 0.0281,-0.35498 -0.0473,-0.0885 -0.0488,-0.0885 -0.16503,0.003 -0.16591,0.13054 -0.34968,0.12108 -0.41457,-0.0212 -0.1015,-0.22287 -0.25435,-0.0742 -0.24872,0.24204 0.004,0.22431 0.13027,0.5979 0.20217,0.5979 0.0233,0 0.15052,-0.0691 0.28239,-0.15336 z m 9.472,-0.25976 c 0,-0.20629 -0.11527,-0.48977 -0.21475,-0.52792 -0.0353,-0.0135 -0.12325,0.0189 -0.1953,0.0723 -0.083,0.0614 -0.19845,0.0969 -0.31455,0.0969 -0.20537,0 -0.2033,-0.003 -0.13108,0.15613 0.084,0.18406 0.46072,0.37696 0.75349,0.38566 0.0899,0.003 0.10217,-0.0194 0.10217,-0.18306 z m -9.30746,-0.49493 c 0.17749,-0.17748 0.0497,-0.49944 -0.19818,-0.49944 -0.11216,0 -0.34664,0.15662 -0.34664,0.23154 0,0.0773 0.29279,0.357 0.37455,0.35787 0.0436,4.7e-4 0.1204,-0.04 0.17027,-0.09 z m 1.6592,0.004 c 0.0908,-0.0259 0.11217,-0.0465 0.0661,-0.0634 -0.16914,-0.0622 -0.70201,-0.12244 -1.08345,-0.12244 -0.33459,0 -0.42303,0.0139 -0.44455,0.0702 -0.0147,0.0385 -0.0135,0.0837 0.003,0.10027 0.0962,0.0962 1.13767,0.10716 1.45859,0.0154 z m 5.51435,-0.004 c 0,-0.05 -0.0294,-0.0908 -0.0654,-0.0908 -0.0802,0 -0.1315,0.0747 -0.0935,0.1362 0.0493,0.0799 0.15892,0.0485 0.15892,-0.0454 z m 1.63449,-0.0227 c 0.0311,-0.0374 0.0846,-0.0681 0.11906,-0.0681 0.0933,0 0.0755,-0.12608 -0.0253,-0.18001 -0.20617,-0.11027 -0.46002,-0.006 -0.52421,0.21406 -0.0276,0.0951 -0.0158,0.10216 0.17209,0.10216 0.12406,0 0.22362,-0.0262 0.25835,-0.0681 z m -4.85805,-0.0681 c 0.0605,-0.0391 0.0605,-0.0438 0,-0.0415 -0.0374,9.3e-4 -0.10892,0.0202 -0.15891,0.0415 l -0.0908,0.0391 0.0908,0.003 c 0.05,9.2e-4 0.12149,-0.0173 0.15891,-0.0415 z m -2.09346,-0.32355 c -0.0203,-0.12798 -0.0427,-0.23851 -0.05,-0.24555 -0.0121,-0.0121 -0.45156,-0.17228 -0.63749,-0.23285 -0.20953,-0.0682 0.0304,0.25572 0.3931,0.53065 0.31157,0.23621 0.33919,0.23132 0.29435,-0.0523 z m 2.01583,0.13762 c 0.0252,-0.0399 0.032,-0.12662 0.0154,-0.19296 -0.0226,-0.0899 -0.0588,-0.12055 -0.14291,-0.12055 -0.11987,0 -0.13068,0.0346 -0.0838,0.26889 0.0309,0.1545 0.12919,0.17524 0.21137,0.0446 z m -2.85081,-0.0183 c 0.14982,0.0164 0.3337,0.0414 0.40861,0.0555 0.13217,0.0252 0.12959,0.02 -0.0816,-0.16812 -0.11974,-0.10676 -0.26825,-0.29357 -0.32992,-0.41526 l -0.11217,-0.22126 h -0.28868 c -0.35608,0 -0.58,0.0419 -0.54313,0.10149 0.0151,0.0247 0.13243,0.0926 0.26033,0.15076 l 0.23249,0.10568 -0.17326,0.003 c -0.0953,9.2e-4 -0.21352,-0.0189 -0.26275,-0.0453 -0.0905,-0.0484 -0.26772,-0.0201 -0.26772,0.0427 0,0.0188 0.0869,0.12555 0.19295,0.23726 l 0.19297,0.20315 0.24969,-0.0394 c 0.13736,-0.0218 0.37232,-0.0261 0.52215,-0.009 z m -2.31552,-0.13556 c 0,-0.10392 -0.15241,-0.15267 -0.20602,-0.0659 -0.0562,0.0908 0.004,0.1849 0.1096,0.16989 0.0612,-0.008 0.0964,-0.0466 0.0964,-0.10391 z m 5.31944,-0.1254 c -0.0121,-0.0312 -0.0229,-0.006 -0.0229,0.0567 0,0.0625 0.0108,0.0879 0.0229,0.0567 0.0121,-0.0312 0.0121,-0.0823 0,-0.11351 z m -6.62958,-0.17638 c 0.13914,-0.13068 0.13534,-0.23741 -0.0121,-0.3538 -0.1868,-0.14695 -0.48784,-0.1292 -0.65567,0.0387 -0.14678,0.14676 -0.16593,0.23723 -0.0676,0.31889 0.19283,0.16005 0.56352,0.15818 0.73585,-0.004 z m 11.25948,2.3e-4 c 0.0784,-0.0474 0.16768,-0.11662 0.19853,-0.15373 0.0465,-0.0561 0.0403,-0.0676 -0.0372,-0.0676 -0.0617,0 -0.0981,-0.0341 -0.10771,-0.10122 -0.0329,-0.22903 -0.45606,-0.20013 -0.61467,0.0419 -0.0567,0.0865 -0.0605,0.13134 -0.0196,0.22136 0.0957,0.20998 0.29732,0.23053 0.58057,0.0592 z m -0.14385,-0.22357 c -0.0431,-0.0697 0.0158,-0.11487 0.0742,-0.0567 0.0326,0.0326 0.0334,0.058 0.003,0.0772 -0.0255,0.0156 -0.0599,0.006 -0.0766,-0.0206 z m -1.84373,0.20029 c 0.15477,-0.0502 0.32007,-0.15116 0.45403,-0.27751 l 0.21063,-0.19868 -0.38589,0.20358 c -0.21229,0.11189 -0.50342,0.23729 -0.64699,0.2785 -0.14359,0.0412 -0.26107,0.0865 -0.26107,0.10068 0,0.0409 0.36422,-0.0206 0.62929,-0.10649 z m -2.11643,-0.13297 c 0.11297,-0.0385 0.28428,-0.13752 0.38084,-0.22013 0.49947,-0.42729 0.64342,-0.46217 1.10982,-0.26887 0.4097,0.16977 0.79616,0.16983 1.14291,1.5e-4 0.27726,-0.13563 0.55537,-0.41115 0.50299,-0.49831 -0.21368,-0.35559 -0.35715,-0.54563 -0.42533,-0.56347 -0.0456,-0.0121 -0.0727,-0.0477 -0.0605,-0.0796 0.0121,-0.0319 -0.11987,-0.36234 -0.29349,-0.73432 -0.32784,-0.70225 -1.08932,-2.48016 -1.39298,-3.25237 -0.14685,-0.3735 -0.18446,-0.43437 -0.23615,-0.38268 -0.0517,0.0516 -0.0326,0.18569 0.12042,0.84223 0.20461,0.87855 0.32167,1.50763 0.31818,1.70988 -0.003,0.0749 -0.0705,-0.19069 -0.15402,-0.59022 -0.15016,-0.71937 -0.30421,-1.36364 -0.39276,-1.64282 l -0.0458,-0.14453 -0.15679,0.0926 c -0.15795,0.0932 -0.389,0.0991 -0.58244,0.015 -0.0819,-0.0356 -0.0844,-0.0191 -0.0542,0.34452 0.0174,0.21006 0.0715,0.6454 0.12,0.96742 0.0917,0.60862 0.10636,0.79939 0.0406,0.52685 -0.0769,-0.31818 -0.17856,-0.98758 -0.22311,-1.46876 -0.0417,-0.45144 -0.057,-0.50563 -0.18252,-0.64855 -0.10636,-0.12122 -0.13678,-0.19864 -0.13625,-0.34733 0.003,-0.39205 0.18518,-0.53008 0.47079,-0.35355 0.24221,0.14972 0.26998,0.13042 0.23334,-0.16277 -0.0484,-0.38709 -0.0456,-0.38446 -0.28816,-0.27437 -0.15306,0.0694 -0.32008,0.0995 -0.59826,0.1073 l -0.38591,0.0108 -0.0314,0.21778 c -0.0171,0.11973 -0.0461,0.63512 -0.0642,1.1452 -0.0229,0.64822 -0.0454,0.89425 -0.0749,0.81724 -0.0261,-0.0684 -0.0229,-0.51147 0.008,-1.16837 l 0.0503,-1.05822 -0.20298,-0.20299 c -0.18878,-0.18877 -0.20632,-0.19684 -0.25008,-0.11513 -0.098,0.183 -0.49987,1.47868 -0.80171,2.58448 -0.3423,1.25406 -0.4366,1.42155 -0.17941,0.31871 0.0891,-0.38263 0.17398,-0.74677 0.18837,-0.80921 0.0144,-0.0624 -0.36207,0.66288 -0.83645,1.61177 -0.47444,0.94892 -0.9542,1.87853 -1.06617,2.06582 -0.11203,0.18727 -0.19437,0.35583 -0.18306,0.37457 0.0438,0.0727 0.13176,0.0284 0.18574,-0.0937 0.072,-0.16277 0.32099,-0.35235 0.38224,-0.29109 0.0244,0.0244 0.0379,0.10325 0.0296,0.1749 -0.0108,0.0995 -0.0419,0.13406 -0.12838,0.14608 -0.13566,0.0188 -0.22703,0.0867 -0.22703,0.16863 0,0.0329 0.13539,0.12636 0.30091,0.20783 0.26541,0.13068 0.34437,0.14805 0.66967,0.14752 0.20321,-2.3e-4 0.41464,-0.0256 0.47093,-0.0561 0.14696,-0.0797 0.13514,-0.25853 -0.0221,-0.33391 -0.16436,-0.0788 -0.18068,-0.19434 -0.0404,-0.28624 0.0932,-0.0611 0.13175,-0.0644 0.21844,-0.0188 0.13486,0.0711 0.17179,0.12852 0.17243,0.26885 0,0.10946 -0.003,0.10824 -0.0895,-0.0341 -0.089,-0.14614 -0.19602,-0.18981 -0.25019,-0.10216 -0.0155,0.025 0.003,0.0454 0.0396,0.0454 0.0842,0 0.27145,0.25524 0.23297,0.3175 -0.0174,0.0284 0.0604,0.0456 0.20619,0.0456 0.15778,0 0.30632,0.0361 0.4542,0.11041 l 0.21977,0.11041 0.0502,-0.15177 c 0.0562,-0.17025 0.13708,-0.21819 0.29953,-0.17741 0.0887,0.0223 0.10487,0.0135 0.0823,-0.0454 -0.0353,-0.092 -0.12136,-0.0927 -0.2961,-0.003 -0.13339,0.0691 -0.13575,0.0685 -0.0873,-0.0222 0.0977,-0.18245 0.46826,-0.17949 0.5163,0.004 0.0419,0.16006 -0.0355,0.24229 -0.22795,0.24229 -0.1618,0 -0.17309,0.009 -0.17309,0.13533 0,0.11311 0.0335,0.15404 0.20435,0.24971 0.18534,0.10379 0.25274,0.11446 0.72642,0.11446 0.4313,0 0.55372,-0.0158 0.70372,-0.0908 0.15134,-0.0756 0.18162,-0.11352 0.18162,-0.227 0,-0.11393 -0.0199,-0.13851 -0.1215,-0.15027 -0.1757,-0.0203 -0.24504,-0.11959 -0.18123,-0.25971 0.035,-0.0769 0.0879,-0.11216 0.16767,-0.11216 0.1192,0 0.33941,0.17969 0.33941,0.27698 0,0.0297 -0.0515,-9.3e-4 -0.11432,-0.0692 -0.11393,-0.12284 -0.2481,-0.14232 -0.28192,-0.0408 -0.009,0.0306 0.0367,0.0597 0.10973,0.0681 0.0897,0.0108 0.14742,0.0558 0.1945,0.15329 l 0.067,0.13865 0.20274,-0.11338 c 0.13706,-0.0767 0.27289,-0.11338 0.41906,-0.11338 h 0.21628 l -0.0253,-0.18434 c -0.0203,-0.14798 -0.006,-0.2008 0.0667,-0.26768 0.10811,-0.0978 0.22774,-0.0859 0.29827,0.0299 0.0415,0.0681 0.0285,0.10014 -0.0746,0.18332 -0.16057,0.1296 -0.16443,0.28892 -0.008,0.34824 0.17691,0.0673 0.7277,0.0532 0.91054,-0.0232 0.0888,-0.037 0.24251,-0.13162 0.34157,-0.21008 l 0.18007,-0.14264 -0.10162,-0.10812 c -0.0649,-0.0691 -0.1315,-0.0987 -0.1841,-0.082 -0.0558,0.0177 -0.0824,0.003 -0.0824,-0.045 0,-0.0489 0.0429,-0.0712 0.13693,-0.0712 0.1127,0 0.15082,0.0292 0.21533,0.16439 l 0.0784,0.16437 -0.17344,0.14993 c -0.2625,0.22691 -0.47188,0.31027 -0.82475,0.32832 -0.23698,0.0121 -0.38603,-0.008 -0.58598,-0.0776 -0.44893,-0.15703 -0.573,-0.13419 -1.06334,0.19594 -0.30571,0.20583 -0.62285,0.30048 -1.00671,0.30048 -0.40103,0 -0.69224,-0.0927 -1.06985,-0.34078 -0.29772,-0.19554 -0.53621,-0.29404 -0.71332,-0.29459 -0.0443,-1.5e-4 -0.19685,0.0406 -0.33896,0.0905 -0.48646,0.17099 -1.07067,0.10622 -1.48007,-0.16402 -0.15975,-0.1054 -0.18099,-0.10905 -0.25328,-0.0436 -0.11528,0.10433 -0.16842,0.0874 -0.0693,-0.0221 0.0708,-0.0782 0.0742,-0.10014 0.0205,-0.13325 -0.0437,-0.027 -0.0838,-0.0121 -0.12581,0.0485 -0.0537,0.0767 -0.0494,0.10555 0.0318,0.21979 0.32905,0.46214 1.10981,0.62347 1.78158,0.36813 0.38491,-0.14629 0.56877,-0.12486 0.90598,0.10596 0.15897,0.10879 0.37868,0.24342 0.48831,0.29925 0.4422,0.22526 1.05134,0.27066 1.51445,0.11284 z m 0.35208,-1.44979 c 0,-0.0374 0.0306,-0.0681 0.0681,-0.0681 0.0374,0 0.0681,0.0306 0.0681,0.0681 0,0.0374 -0.0306,0.0681 -0.0681,0.0681 -0.0374,0 -0.0681,-0.0306 -0.0681,-0.0681 z m -2.37509,-0.052 c -0.0643,-0.0643 -0.028,-0.15229 0.063,-0.15229 0.0634,0 0.0893,0.0246 0.0794,0.0756 -0.0161,0.0835 -0.0936,0.12528 -0.14235,0.0767 z m 2.74823,-0.0231 c 0.0235,-0.0706 0.12515,-0.0831 0.12866,-0.0157 0.003,0.025 -0.0317,0.0524 -0.0734,0.0611 -0.0473,0.009 -0.0681,-0.006 -0.0554,-0.0454 z m -3.18005,-0.0635 c 0.0205,-0.0986 0.10109,-0.1046 0.11946,-0.009 0.009,0.0497 -0.0121,0.0794 -0.0594,0.0794 -0.0437,0 -0.0687,-0.0293 -0.0602,-0.0705 z m 2.99893,-0.1196 c 0.028,-0.0841 0.12581,-0.0981 0.12581,-0.018 0,0.0394 -0.0323,0.0719 -0.0719,0.0719 -0.0396,0 -0.0638,-0.0242 -0.054,-0.054 z m -2.82534,-0.0823 c 0,-0.0505 0.0303,-0.0908 0.0681,-0.0908 0.0379,0 0.0681,0.0404 0.0681,0.0908 0,0.0504 -0.0303,0.0908 -0.0681,0.0908 -0.0379,0 -0.0681,-0.0404 -0.0681,-0.0908 z m 2.54253,-3.33706 c 0,-0.0374 0.0306,-0.0681 0.0681,-0.0681 0.0374,0 0.0681,0.0306 0.0681,0.0681 0,0.0374 -0.0305,0.0681 -0.0681,0.0681 -0.0374,0 -0.0681,-0.0306 -0.0681,-0.0681 z m -0.25217,-0.16285 c -0.0467,-0.0757 0.0585,-0.16253 0.12109,-0.0999 0.0524,0.0524 0.0196,0.14923 -0.0505,0.14923 -0.0218,0 -0.0538,-0.0221 -0.0705,-0.0493 z m 0.39637,-0.0667 c 0.0205,-0.0986 0.10108,-0.1046 0.1196,-0.009 0.009,0.0497 -0.0121,0.0794 -0.0594,0.0794 -0.0436,0 -0.0687,-0.0293 -0.0602,-0.0705 z m -2.45635,-0.26059 c -0.004,-0.10366 0.41394,-1.67301 0.43918,-1.64779 0.0108,0.0108 -0.0352,0.26518 -0.10094,0.56626 -0.12176,0.55707 -0.33211,1.22938 -0.33827,1.08153 z m -0.15587,5.49684 c 0.0835,-0.0569 0.15201,-0.11703 0.15218,-0.13379 0,-0.0642 -0.31205,-0.21935 -0.44207,-0.21935 -0.0752,0 -0.25205,0.0511 -0.3932,0.11351 -0.14116,0.0624 -0.28672,0.11352 -0.32345,0.11352 -0.1223,0 -0.0691,0.0761 0.11,0.15679 0.38545,0.1738 0.60729,0.16621 0.89648,-0.0306 z m 3.7016,0.14494 c 0.0916,-0.0254 0.21096,-0.0822 0.26516,-0.12609 0.0976,-0.0791 0.0946,-0.0814 -0.28781,-0.2301 -0.39873,-0.15509 -0.48516,-0.15715 -0.70017,-0.0167 -0.15594,0.1019 -0.12433,0.17339 0.13379,0.30199 0.25981,0.12946 0.34212,0.13936 0.58904,0.0708 z m 0.63017,-0.11325 c 0.14591,-0.0755 0.16918,-0.1123 0.0709,-0.1123 -0.0664,0 -0.30395,0.17749 -0.24116,0.1801 0.0201,9.2e-4 0.0966,-0.0297 0.17027,-0.0677 z m 1.40433,-0.10527 c 0.093,-0.0914 0.32476,-0.28855 0.51527,-0.43838 0.31921,-0.25108 0.43904,-0.41402 0.43904,-0.597 0,-0.0953 -0.26657,-0.0737 -0.50989,0.0415 -0.13447,0.0635 -0.41041,0.29519 -0.73779,0.61922 -0.28767,0.28472 -0.52301,0.52193 -0.52301,0.52716 0,0.006 0.1457,0.0108 0.32374,0.0121 0.31264,0.003 0.3295,-0.004 0.49264,-0.16393 z m -9.93206,-0.19657 c -0.006,-0.0436 0.0267,-0.0885 0.0794,-0.10528 0.10027,-0.0319 0.12392,-0.19645 0.0484,-0.33745 -0.0489,-0.0915 -0.20418,-0.20238 -0.34594,-0.2472 -0.0841,-0.0267 -0.0927,-0.0136 -0.0796,0.11825 l 0.0147,0.14814 -0.0611,-0.13 -0.0611,-0.13001 -0.0752,0.18765 c -0.15478,0.38684 -0.0394,0.6104 0.30196,0.58559 0.14861,-0.0108 0.18771,-0.0306 0.17792,-0.0899 z m 1.62431,0.0777 c 0,-0.0121 -0.0408,-0.12473 -0.0908,-0.2514 -0.10406,-0.26414 -0.11311,-0.40083 -0.0373,-0.5673 0.0462,-0.1015 0.0403,-0.13082 -0.044,-0.21508 l -0.0976,-0.0976 0.0261,0.16051 c 0.0376,0.23123 -0.0834,0.43998 -0.30519,0.52713 -0.0978,0.0384 -0.17778,0.0831 -0.17778,0.0995 0,0.0438 0.28428,0.30475 0.3632,0.33337 0.0853,0.0308 0.36323,0.0392 0.36323,0.0108 z m 0.36323,-0.0376 c 0,-0.0323 -0.0919,-0.14889 -0.20433,-0.25917 -0.1123,-0.11028 -0.20431,-0.17716 -0.20431,-0.14861 0,0.089 0.0938,0.30372 0.16912,0.38689 0.0839,0.0927 0.23952,0.10621 0.23952,0.0209 z m 9.80689,-0.28179 c -0.0268,-0.16863 -0.0814,-0.36934 -0.12109,-0.44603 l -0.072,-0.13944 -0.0907,0.17919 c -0.0499,0.0985 -0.0984,0.18774 -0.10785,0.19817 -0.009,0.0108 -0.10621,-0.045 -0.21526,-0.12338 -0.10892,-0.0782 -0.21114,-0.12946 -0.22694,-0.11365 -0.0158,0.0158 -0.0288,0.11892 -0.0288,0.22898 0,0.26615 0.17084,0.44664 0.45798,0.48388 0.3568,0.0462 0.42713,0.0537 0.44052,0.0461 0.006,-0.004 -0.009,-0.14536 -0.0358,-0.31397 z m -10.62413,-0.29519 c 0.14929,-0.1493 0.11744,-0.59024 -0.0427,-0.59024 -0.13217,0 -0.14824,0.0606 -0.0388,0.14623 0.10392,0.0814 0.10378,0.0815 -0.0867,0.053 -0.29876,-0.0447 -0.42211,0.004 -0.42211,0.16483 0,0.18412 0.14269,0.31695 0.3405,0.31695 0.0984,0 0.19351,-0.0346 0.24973,-0.0908 z m 9.18003,-0.39046 0.14312,-0.0741 -0.11,-0.0846 c -0.14383,-0.11054 -0.1509,-0.10973 -0.38215,0.0494 -0.10879,0.0749 -0.25035,0.15602 -0.31465,0.18049 l -0.11703,0.0444 0.0885,0.14547 c 0.0486,0.08 0.0766,0.16469 0.062,0.18817 -0.0144,0.0235 0.0891,-0.0514 0.23027,-0.16636 0.14116,-0.11501 0.3211,-0.24238 0.39983,-0.28308 z m 1.18792,0.0772 c 0.091,-0.14734 0.16536,-0.28856 0.16536,-0.31382 0,-0.0873 -0.35697,-0.11378 -0.47661,-0.0354 -0.0607,0.0397 -0.15337,0.0723 -0.20588,0.0723 -0.0781,0 -0.0897,0.0185 -0.0638,0.10216 0.0604,0.1946 0.2722,0.43551 0.38793,0.4413 0.0151,5.2e-4 0.10203,-0.1192 0.19294,-0.26652 z m -3.69383,-0.0188 c 0,-0.0738 -0.1581,-0.006 -0.17361,0.0743 -0.0139,0.072 -0.004,0.0747 0.079,0.0226 0.052,-0.0326 0.0947,-0.0761 0.0947,-0.0969 z m 1.8297,-0.10473 c 0.0799,-0.0405 0.18129,-0.10513 0.22525,-0.14369 0.075,-0.0656 0.0691,-0.0765 -0.0937,-0.17364 -0.18801,-0.11217 -0.29665,-0.28772 -0.37609,-0.60794 -0.042,-0.16965 -0.13094,-0.28519 -0.52377,-0.68103 l -0.47314,-0.47673 0.10947,0.24971 c 0.35832,0.81755 0.91233,1.9069 0.96976,1.9069 0.009,0 0.0823,-0.0331 0.16217,-0.0737 z m -7.49283,-0.91593 c 0.21893,-0.41212 0.38994,-0.75745 0.37997,-0.76743 -0.0576,-0.0576 -0.57372,0.67075 -0.57372,0.80961 0,0.14415 -0.20064,0.45205 -0.35508,0.54489 -0.0919,0.0553 -0.17566,0.10716 -0.18614,0.11541 -0.0108,0.008 0.0303,0.0676 0.0905,0.13175 l 0.1096,0.11677 0.0684,-0.10082 c 0.0376,-0.0554 0.24746,-0.43796 0.46642,-0.85008 z m 0.10136,0.8533 c 0.0155,-0.025 -0.006,-0.0454 -0.0454,-0.0454 -0.0404,0 -0.0608,0.0204 -0.0454,0.0454 0.0154,0.025 0.0359,0.0455 0.0454,0.0455 0.009,0 0.03,-0.0204 0.0454,-0.0455 z m -1.34924,-0.15272 c 0.11785,-0.0591 0.29446,-0.12189 0.39256,-0.13978 0.24459,-0.0444 0.44868,-0.25952 0.54166,-0.57054 0.0802,-0.2683 0.1984,-0.43708 0.67602,-0.96503 0.24862,-0.27479 0.3664,-0.46286 0.6243,-0.9968 0.17483,-0.36195 0.31783,-0.67934 0.31783,-0.7053 0,-0.0514 -0.3006,-0.32995 -0.35343,-0.32752 -0.0564,0.003 -0.53379,0.68607 -0.7602,1.08816 -0.11946,0.21225 -0.34526,0.58002 -0.50166,0.81724 l -0.28439,0.43132 -0.49033,0.24971 c -0.26968,0.13735 -0.49848,0.27741 -0.50841,0.31123 -0.0135,0.045 0.0108,0.0534 0.0894,0.0309 0.0831,-0.0236 0.0638,0.006 -0.0854,0.1352 -0.25847,0.22206 -0.26225,0.33165 -0.006,0.2014 0.2562,-0.13068 0.27153,-0.0812 0.0268,0.087 -0.23291,0.16026 -0.3213,0.30374 -0.15592,0.25313 0.0561,-0.0171 0.22642,-0.10027 0.37866,-0.18458 0.43366,-0.24035 0.45117,-0.18397 0.0377,0.12148 -0.36378,0.26876 -0.32974,0.35876 0.0617,0.16267 z m 9.81673,0.0884 c 0,-0.0852 -0.0865,-0.17958 -0.27644,-0.30142 -0.12256,-0.0787 -0.22297,-0.16138 -0.22297,-0.18374 0,-0.0602 0.009,-0.0564 0.35776,0.14093 0.17628,0.0999 0.34157,0.1816 0.36728,0.1816 0.0968,0 0.0403,-0.0902 -0.15866,-0.25308 -0.11298,-0.0926 -0.19633,-0.1775 -0.18519,-0.18865 0.0108,-0.0108 0.11379,0.0344 0.22818,0.10149 0.27496,0.16114 0.27113,0.0664 -0.008,-0.19146 -0.18049,-0.16685 -0.1953,-0.19179 -0.0908,-0.15281 0.0708,0.0264 0.12486,0.0288 0.12486,0.006 0,-0.0677 -0.24745,-0.2233 -0.65277,-0.41057 l -0.38161,-0.1763 -0.4476,-0.6829 c -0.24621,-0.37559 -0.5356,-0.82116 -0.64313,-0.99016 -0.10757,-0.16899 -0.27096,-0.39515 -0.36324,-0.50259 l -0.16771,-0.19534 -0.19293,0.1483 c -0.10609,0.0816 -0.19298,0.17587 -0.19298,0.20956 0,0.11527 0.37504,0.98598 0.49324,1.14516 0.0649,0.0875 0.35717,0.40739 0.64949,0.71109 0.42887,0.44555 0.54134,0.59019 0.58244,0.74912 0.028,0.10839 0.0603,0.2295 0.0717,0.26924 0.0379,0.13149 0.23179,0.27267 0.45622,0.33197 0.12177,0.0322 0.30303,0.10162 0.40289,0.15428 0.17994,0.0949 0.24971,0.11757 0.24971,0.0808 z m 1.44735,-0.70308 c 0.0805,-0.0509 0.0258,-0.14059 -0.0858,-0.14059 -0.11,0 -0.31725,0.0938 -0.31725,0.14351 0,0.0503 0.32285,0.0479 0.40308,-0.003 z m -0.61457,-0.33355 c 0.0761,-0.14509 0.0772,-0.14546 0.0599,-0.0223 -0.0144,0.10461 -0.006,0.11636 0.0477,0.0711 0.0702,-0.0582 0.20876,-0.31409 0.26013,-0.48015 0.0506,-0.16388 -0.16166,-0.13379 -0.35725,0.0506 -0.13513,0.12743 -0.16213,0.18422 -0.16213,0.34051 0,0.22581 0.0477,0.23839 0.15173,0.04 z m -11.32944,-0.85714 c 0.76331,-0.18369 2.11453,-1.09043 2.54534,-1.70807 0.15789,-0.22637 0.0707,-0.17746 -0.2839,0.15923 -0.37393,0.35507 -0.90242,0.73559 -1.39392,1.00365 -0.47258,0.25776 -0.50943,0.23733 -0.0503,-0.0279 0.45652,-0.26358 1.15553,-0.77953 1.55237,-1.1458 l 0.29511,-0.27238 -0.18159,-0.16037 -0.18161,-0.16035 0.11352,-0.0939 c 0.25191,-0.20837 0.45401,-0.40941 0.45401,-0.4516 0,-0.0246 -0.0715,-0.14862 -0.15891,-0.27567 -0.0875,-0.12703 -0.1589,-0.28298 -0.1589,-0.3465 0,-0.16286 0.17695,-0.37339 0.44767,-0.53266 0.1273,-0.0749 0.23197,-0.1641 0.23245,-0.1982 0.003,-0.14343 -0.75686,-1.14116 -0.86803,-1.14116 -0.027,0 -0.0329,0.0785 -0.0149,0.19887 0.0667,0.44521 -0.14703,1.18595 -0.46115,1.5978 -0.11285,0.14785 -0.13868,0.15996 -0.28377,0.13271 -0.0879,-0.0165 -0.26007,-0.0808 -0.38279,-0.14302 l -0.2231,-0.11311 -0.10852,0.10203 c -0.19091,0.17935 -0.12608,0.35651 0.17784,0.48621 0.17105,0.0729 0.85496,0.19001 1.11566,0.19086 0.15215,4.8e-4 0.19103,0.0121 0.14163,0.0447 -0.1693,0.10947 -1.0956,-0.0121 -1.40066,-0.18322 -0.0986,-0.0555 -0.20657,-0.15175 -0.23992,-0.21404 l -0.0605,-0.11325 -0.88604,0.0247 c -0.97353,0.0271 -1.38163,0.0968 -2.024,0.345 -0.63832,0.24668 -0.97327,0.54601 -0.97327,0.86977 0,0.165 0.31747,0.42887 0.64854,0.53904 0.63539,0.21145 1.36528,0.2041 2.14948,-0.0217 0.22156,-0.0638 0.74919,-0.26745 1.17249,-0.4526 0.42331,-0.18514 0.77669,-0.32957 0.78529,-0.32096 0.008,0.008 -0.32752,0.18612 -0.74692,0.39447 -0.70609,0.35076 -0.78975,0.40584 -1.12908,0.74325 -0.27766,0.27615 -0.38488,0.41862 -0.44264,0.58817 -0.09,0.26408 -0.0939,0.346 -0.0243,0.49895 0.0891,0.19551 0.42675,0.25797 0.84734,0.15677 z m -0.39836,-0.25984 c 0.0287,-0.0588 0.0419,-0.14556 0.0294,-0.19297 -0.0289,-0.11054 -0.003,-0.11041 0.0576,2.5e-4 0.0358,0.067 0.0254,0.11053 -0.0464,0.19296 l -0.0927,0.10635 z m 0.0857,-0.40398 c -0.0511,-0.0676 -0.0505,-0.0709 0.004,-0.0227 0.0928,0.0828 0.32757,0.0694 0.58863,-0.0334 0.27789,-0.1096 0.30408,-0.0758 0.0356,0.0459 -0.24784,0.11257 -0.54675,0.1173 -0.62786,0.009 z m -0.0417,-0.29798 c 0,-0.008 0.0664,-0.0742 0.14758,-0.14756 l 0.14753,-0.13338 -0.13339,0.14756 c -0.12433,0.13754 -0.16177,0.16843 -0.16177,0.13338 z m 0.81726,-0.12203 c 0,-0.025 0.0217,-0.0454 0.0481,-0.0454 0.0265,0 0.0356,0.0204 0.0201,0.0454 -0.0154,0.025 -0.037,0.0455 -0.0481,0.0455 -0.0108,0 -0.0201,-0.0204 -0.0201,-0.0455 z m -2.33822,-0.70403 c -0.32566,-0.11554 -0.43178,-0.36281 -0.24608,-0.57355 l 0.0945,-0.10717 -0.0717,0.1123 c -0.19341,0.30262 0.0308,0.52515 0.58087,0.5765 0.33957,0.0318 1.02678,-0.072 1.55391,-0.23472 0.1953,-0.0603 0.36293,-0.10176 0.37251,-0.0922 0.0292,0.0292 -0.7192,0.25423 -1.07343,0.32279 -0.42091,0.0815 -0.97479,0.0797 -1.2105,-0.004 z m 3.45056,0.035 c 0.0769,-0.0812 0.62401,-0.42059 0.67675,-0.41969 0.047,9.3e-4 -0.1315,0.11987 -0.54054,0.36077 -0.0999,0.0588 -0.16117,0.0853 -0.13621,0.0589 z m 10.02777,1.66465 c 0.10204,-0.0803 0.11961,-0.12905 0.11961,-0.33161 0,-0.30374 -0.13956,-0.53029 -0.58402,-0.94801 -0.26577,-0.24978 -0.45905,-0.37462 -1.04033,-0.6719 -0.82624,-0.42261 -0.81736,-0.43144 0.0473,-0.047 1.30587,0.58065 2.14418,0.7441 2.94541,0.57427 0.58794,-0.1246 1.0379,-0.41283 1.0379,-0.6648 0,-0.42423 -0.71621,-0.85675 -1.83877,-1.11043 -0.19611,-0.0443 -0.65074,-0.0816 -1.18711,-0.0974 l -0.86926,-0.0256 -0.1069,0.12365 c -0.0588,0.0681 -0.18528,0.1639 -0.2811,0.21304 -0.21486,0.11013 -0.77546,0.22101 -1.08968,0.21553 -0.21179,-0.004 -0.18625,-0.0141 0.26506,-0.1073 0.68354,-0.14124 1.02155,-0.29424 1.02155,-0.46247 0,-0.0332 -0.058,-0.12528 -0.1288,-0.20456 l -0.12892,-0.14424 -0.34469,0.14351 c -0.40218,0.16744 -0.48938,0.18049 -0.37715,0.0565 0.0755,-0.0835 0.0707,-0.0969 -0.11892,-0.32971 -0.29109,-0.35736 -0.40922,-0.66486 -0.44105,-1.14802 l -0.0268,-0.40697 -0.23239,0.29346 c -0.23974,0.30278 -0.49346,0.68435 -0.62359,0.93789 l -0.0744,0.14499 0.38282,0.26364 c 0.21053,0.145 0.39261,0.30009 0.4046,0.34464 0.0121,0.0476 -0.0404,0.16252 -0.12866,0.27807 -0.26909,0.35257 -0.27603,0.38112 -0.12973,0.53406 0.0709,0.0742 0.20044,0.17846 0.28783,0.23186 0.0874,0.0534 0.17934,0.12001 0.20432,0.14807 0.025,0.028 0.20323,0.1475 0.39616,0.26548 0.19289,0.11797 0.36296,0.23426 0.3779,0.25842 0.0149,0.0242 -0.15895,-0.069 -0.38642,-0.20684 -0.22745,-0.13792 -0.43514,-0.25076 -0.46152,-0.25076 -0.0264,0 -0.0973,0.0388 -0.15752,0.0861 l -0.10947,0.0861 0.34742,0.32445 c 0.36019,0.33638 1.10518,0.89637 1.48042,1.11279 0.11865,0.0684 0.21564,0.13461 0.21564,0.14711 0,0.0372 -0.49955,-0.25368 -0.81725,-0.47572 -0.37127,-0.25949 -0.72652,-0.54992 -1.03288,-0.84439 -0.13108,-0.12609 -0.23834,-0.21179 -0.23834,-0.19061 0,0.17472 0.64076,0.78433 1.28464,1.22216 0.32548,0.22134 1.00212,0.58039 1.30325,0.69157 0.26207,0.0967 0.69301,0.0817 0.83383,-0.0291 z m -0.42518,-0.2237 c -0.0453,-0.0844 0.004,-0.27242 0.0712,-0.27242 0.0121,0 -9e-5,0.0426 -0.028,0.0946 -0.0405,0.0754 -0.0347,0.11217 0.0281,0.1816 0.0432,0.0479 0.0558,0.087 0.028,0.087 -0.028,0 -0.0727,-0.0409 -0.0995,-0.0908 z m -0.49943,-0.72645 c 0,-0.025 0.0217,-0.0453 0.0481,-0.0453 0.0265,0 0.0354,0.0204 0.0201,0.0453 -0.0154,0.025 -0.0372,0.0454 -0.0481,0.0454 -0.0108,0 -0.0201,-0.0204 -0.0201,-0.0454 z m -0.36901,-0.0794 c -0.0565,-0.072 -0.0549,-0.0737 0.0171,-0.0171 0.0436,0.0342 0.0794,0.07 0.0794,0.0794 0,0.0373 -0.0373,0.0135 -0.0966,-0.0623 z m 1.27335,-0.67206 c -0.36919,-0.0669 -1.12682,-0.3058 -1.31297,-0.41409 -0.12488,-0.0727 -0.13756,-0.0761 0.45403,0.1219 0.54979,0.18399 1.02652,0.27185 1.47512,0.27185 0.43581,0 0.65824,-0.0693 0.76997,-0.2398 0.13787,-0.21045 -0.0446,-0.42356 -0.54074,-0.63167 -0.1008,-0.0423 -0.15655,-0.0781 -0.12378,-0.0794 0.11473,-0.006 0.56165,0.24399 0.6705,0.37333 0.14311,0.17006 0.13867,0.28331 -0.0173,0.43913 -0.22214,0.22214 -0.71242,0.27876 -1.37499,0.15878 z m -1.58539,-0.51975 c -0.0374,-0.0242 -0.0477,-0.0441 -0.0226,-0.0441 0.025,0 0.0761,0.0199 0.11351,0.0441 0.0374,0.0242 0.0477,0.0441 0.0226,0.0441 -0.025,0 -0.0761,-0.0199 -0.11352,-0.0441 z m -1.96363,0.20728 c 0.13108,-0.0938 0.23835,-0.1845 0.23835,-0.20174 0,-0.0171 -0.0585,-0.0658 -0.12986,-0.10812 -0.0714,-0.0421 -0.2058,-0.16074 -0.29859,-0.26346 -0.19164,-0.21211 -0.1677,-0.22387 -0.43306,0.2126 l -0.14138,0.23252 0.11542,0.261 0.1154,0.261 0.14765,-0.11176 c 0.0812,-0.0615 0.25491,-0.18841 0.38601,-0.28213 z m -4.53007,-0.0835 c 0,-0.0443 -0.0687,-0.21937 -0.15411,-0.38898 l -0.1553,-0.3084 -0.31589,0.29818 -0.31588,0.29817 0.39173,0.26162 0.39175,0.26163 0.0782,-0.17082 c 0.0431,-0.0939 0.0788,-0.20709 0.0794,-0.2514 z m 0.24155,-0.40074 c 0.0664,-0.16151 0.0655,-0.16445 -0.0649,-0.24153 -0.0727,-0.043 -0.16462,-0.12771 -0.20436,-0.18837 -0.0816,-0.1246 -0.1319,-0.1391 -0.16685,-0.0481 -0.0306,0.0794 0.28881,0.72616 0.33466,0.67772 0.0189,-0.0199 0.0646,-0.10987 0.10149,-0.19976 z m 2.80376,0.12933 c 0.15613,-0.10514 0.28263,-0.28831 0.3371,-0.48792 0.0273,-0.10027 0.0205,-0.097 -0.0588,0.0277 -0.14611,0.22975 -0.35471,0.3514 -0.60882,0.355 -0.20166,0.003 -0.23833,-0.0135 -0.37877,-0.16642 -0.18309,-0.1997 -0.21183,-0.10865 -0.0329,0.10405 0.1292,0.15356 0.33518,0.26513 0.49497,0.2681 0.0524,9.3e-4 0.16375,-0.0443 0.24724,-0.10054 z m 0.88352,-0.27398 c 0.0904,-0.1342 0.14026,-0.2504 0.11731,-0.27335 -0.0435,-0.0435 -0.42681,0.10811 -0.47646,0.18846 -0.0426,0.069 0.0972,0.38311 0.15457,0.34762 0.0261,-0.0161 0.11811,-0.13433 0.20458,-0.26273 z m -0.97825,-0.008 c 0.27175,-0.14052 0.40374,-0.44209 0.24948,-0.57008 -0.105,-0.0872 -0.45712,0.16945 -0.4397,0.3205 0.0199,0.17174 0.0556,0.16848 0.21923,-0.02 0.16757,-0.19306 0.19286,-0.18722 0.0858,0.0198 -0.12352,0.23885 -0.38404,0.2986 -0.57335,0.13149 -0.10488,-0.0926 -0.0811,-0.0954 0.11986,-0.0141 0.11824,0.0479 0.0772,-0.11622 -0.0646,-0.25807 -0.14481,-0.14484 -0.32129,-0.17786 -0.32129,-0.0602 0,0.11824 0.14072,0.37946 0.24304,0.45111 0.12149,0.0852 0.31621,0.0849 0.48163,-5.3e-4 z m -2.40798,-0.6252 c 0.0837,-0.25595 0.16225,-0.49601 0.17463,-0.53347 0.0121,-0.0374 -0.0406,0.003 -0.11783,0.0908 -0.18005,0.20371 -0.18454,0.14576 -0.008,-0.0985 0.0752,-0.10365 0.12825,-0.19674 0.11811,-0.20683 -0.009,-0.009 -0.16857,0.0593 -0.35217,0.15442 -0.42358,0.21927 -0.42082,0.21815 -0.38181,0.15502 0.018,-0.0292 0.14438,-0.11595 0.2808,-0.19301 0.13641,-0.077 0.23866,-0.14935 0.22722,-0.16081 -0.0431,-0.0431 -0.59626,0.12946 -0.85219,0.26583 -0.27381,0.14594 -0.33337,0.22003 -0.17692,0.22003 0.20915,0 0.41026,0.15036 0.52469,0.3923 0.10636,0.22487 0.25417,0.37953 0.36263,0.37953 0.0267,0 0.11676,-0.20942 0.20046,-0.46537 z m 3.36033,0.23709 c 0.19334,-0.10054 0.40807,-0.24189 0.47714,-0.31401 l 0.12569,-0.13108 -0.19705,-0.14275 c -0.24426,-0.17693 -0.69095,-0.39019 -0.90229,-0.43075 l -0.15893,-0.0306 0.16494,0.15064 c 0.15782,0.14413 0.40259,0.4494 0.40259,0.50209 0,0.0138 -0.14089,-0.11581 -0.31313,-0.28805 -0.36689,-0.3669 -0.5477,-0.43048 -0.29951,-0.10527 0.20651,0.27051 0.20468,0.35752 -0.003,0.12892 l -0.16131,-0.17782 0.0279,0.22701 c 0.017,0.13917 0.0567,0.24459 0.10284,0.27242 0.17604,0.10648 0.32823,0.2944 0.32823,0.40513 0,0.0643 0.0121,0.11703 0.0271,0.11703 0.0149,0 0.18529,-0.0823 0.37863,-0.18288 z m 0.59092,-0.0182 c 0.19295,-0.28046 0.17275,-0.32861 -0.0659,-0.1572 -0.11243,0.0807 -0.2043,0.15483 -0.2043,0.16472 0,0.033 0.0936,0.19363 0.11283,0.19363 0.0108,0 0.0812,-0.0905 0.15734,-0.20115 z m -4.83857,-1.4e-4 c 0.0654,-0.0857 0.11892,-0.17714 0.11892,-0.20314 0,-0.12892 -0.50027,-0.24922 -0.56961,-0.13699 -0.0292,0.0472 0.24507,0.49574 0.30314,0.49593 0.0158,4e-5 0.0822,-0.07 0.14758,-0.1558 z m 3.31937,-0.58828 c -0.017,-0.17754 -0.0597,-0.35271 -0.0947,-0.38927 -0.055,-0.0573 -0.0637,-0.023 -0.0631,0.24972 0,0.3966 0.0321,0.52253 0.12135,0.48827 0.0553,-0.0212 0.0619,-0.0847 0.0367,-0.34872 z m -5.7468,0.1465 c 0.10608,-0.13406 0.10717,-0.14254 0.0317,-0.25855 -0.28238,-0.43359 -0.27578,-0.75757 0.0299,-1.46201 0.25132,-0.57931 0.30503,-0.76839 0.30535,-1.0749 v -0.238 l -0.26563,0.0279 c -0.63198,0.0661 -1.10554,-0.36324 -1.10231,-0.99928 0.003,-0.2514 -0.0121,-0.2936 -0.14391,-0.43457 l -0.14532,-0.15613 0.15103,0.12204 c 0.1854,0.14985 0.20725,0.15072 0.27103,0.0108 0.0464,-0.10177 0.0323,-0.12771 -0.16296,-0.30033 -0.39547,-0.34963 -1.27246,-0.98798 -1.71593,-1.24897 -0.87656,-0.51589 -1.5569,-0.72415 -2.25805,-0.69124 -0.71988,0.0338 -0.93887,0.22061 -0.93887,0.80095 0,0.92341 0.45141,2.14931 1.05476,2.86443 0.34051,0.40358 0.74365,0.71884 1.3668,1.06889 0.25382,0.14255 0.42062,0.24538 0.37069,0.22849 -0.44316,-0.14997 -0.80223,-0.1355 -1.00692,0.0405 -0.11378,0.0978 -0.11797,0.11434 -0.0632,0.24655 0.0699,0.16874 0.33402,0.42021 0.70746,0.67353 0.6121,0.41522 1.31963,0.68483 2.11344,0.80535 0.41892,0.0637 0.63658,0.0838 1.15498,0.10689 0.10177,0.006 0.16395,-0.0289 0.24594,-0.13257 z m -1.51718,-0.36159 c -0.31449,-0.0393 -0.95715,-0.20991 -0.92227,-0.24482 0.009,-0.009 0.1296,0.0108 0.26589,0.0464 0.13627,0.0355 0.45168,0.0973 0.70092,0.13727 0.67051,0.10757 0.6419,0.14692 -0.0446,0.0611 z m 0.27244,-0.47641 c -0.29967,-0.0862 -0.70829,-0.19507 -0.90807,-0.24181 -0.44452,-0.10406 -0.29002,-0.12095 0.19489,-0.0212 0.35956,0.0739 1.32609,0.37057 1.32609,0.40708 0,0.0309 -0.027,0.0246 -0.61291,-0.14398 z m -1.54369,-1.32488 c -0.94996,-0.52548 -1.86743,-1.42138 -2.29266,-2.23873 -0.20523,-0.39446 -0.24704,-0.5473 -0.0546,-0.19927 0.43341,0.78352 1.2546,1.65357 2.07477,2.19824 0.2747,0.18243 0.50795,0.33962 0.51835,0.34933 0.0465,0.0432 -0.0356,0.006 -0.24593,-0.1096 z m 1.49828,-1.37933 c -1.13408,-0.94618 -1.9981,-1.54565 -2.65604,-1.84272 -0.18728,-0.0846 -0.27921,-0.14074 -0.2043,-0.12473 0.40001,0.0852 1.28145,0.61428 2.06579,1.2403 0.68435,0.54618 1.45212,1.22014 1.35072,1.18564 -0.006,-0.003 -0.25652,-0.20842 -0.55617,-0.45843 z m -0.95345,-0.1554 c -1.03845,-0.66503 -1.85564,-0.76045 -1.85714,-0.21686 0,0.0969 0.0156,0.21709 0.0353,0.26703 0.0353,0.0894 0.0347,0.0894 -0.0359,0.003 -0.0817,-0.10014 -0.0947,-0.35182 -0.025,-0.4819 0.0668,-0.1246 0.2835,-0.22467 0.48449,-0.22355 0.35562,0.003 1.30405,0.45155 1.76156,0.83506 0.20495,0.17179 0.13534,0.13681 -0.36319,-0.18245 z m 0.81291,-0.98274 -0.0865,-0.10216 0.10216,0.0865 c 0.0961,0.0814 0.12284,0.11785 0.0865,0.11785 -0.008,0 -0.0546,-0.0459 -0.10216,-0.10217 z m -0.29079,-0.22119 c -0.15822,-0.13872 -0.15829,-0.13889 -0.0121,-0.042 0.0804,0.0535 0.15822,0.11676 0.17294,0.14052 0.0438,0.0708 0.008,0.0485 -0.16022,-0.0984 z m 2.57046,4.88628 c -0.0405,-0.0624 -0.10622,-0.16442 -0.14642,-0.22664 -0.0716,-0.11095 -0.0756,-0.11163 -0.20474,-0.0354 -0.0724,0.0429 -0.12501,0.0978 -0.11676,0.12243 0.0189,0.0569 0.3873,0.25302 0.47508,0.25302 0.0561,0 0.055,-0.0173 -0.006,-0.11352 z m 9.58739,0.0185 c 0.46747,-0.0558 1.02145,-0.21415 1.47885,-0.42259 0.79358,-0.36166 1.63919,-1.03909 1.60966,-1.28953 -0.0346,-0.29328 -0.66235,-0.39975 -1.16199,-0.19709 -0.39079,0.15851 -0.33558,0.11136 0.19463,-0.16625 0.69235,-0.36246 0.98892,-0.57478 1.39077,-0.9957 0.55186,-0.57807 1.06296,-1.5387 1.26334,-2.37463 0.17819,-0.74329 0.10311,-1.01834 -0.34025,-1.24678 -0.25758,-0.13271 -0.28069,-0.13617 -0.90317,-0.13447 -0.5761,9.2e-4 -0.67676,0.0143 -1.02478,0.12974 -0.99505,0.32962 -2.70804,1.44039 -2.8889,1.87329 -0.12391,0.29666 -0.0339,0.38732 0.16823,0.16931 0.0605,-0.0653 0.28373,-0.25294 0.49597,-0.41697 0.7108,-0.54932 0.66254,-0.48226 -0.11973,0.16641 l -0.50563,0.41928 0.065,0.21336 c 0.0599,0.19642 0.0537,0.40151 -0.018,0.58803 -0.0154,0.0403 0.16455,-0.0969 0.3999,-0.3048 0.74614,-0.65878 1.43912,-1.1532 2.03958,-1.4551 0.33011,-0.16599 0.74879,-0.31909 0.8586,-0.31397 0.0399,0.003 -0.0604,0.05 -0.22275,0.1069 -0.83212,0.29187 -1.9558,1.06533 -3.1946,2.19888 -0.41917,0.38356 -0.4633,0.41165 -0.69156,0.44017 -0.13406,0.0168 -0.29525,0.0176 -0.35813,0.003 -0.10825,-0.0272 -0.11433,-0.0188 -0.11433,0.15712 0,0.22698 0.17285,0.75488 0.38528,1.17674 0.29221,0.58023 0.2997,0.93259 0.0264,1.23855 l -0.12878,0.14408 0.16503,0.19322 0.16502,0.19322 0.2951,-0.0237 c 0.1623,-0.0135 0.4643,-0.0438 0.67108,-0.0685 z m -0.31637,-0.38999 c 0.0327,-0.0135 0.0719,-0.0108 0.087,0.004 0.0152,0.0152 -0.0121,0.0258 -0.0596,0.0239 -0.0529,-0.003 -0.0636,-0.0135 -0.0274,-0.0274 z m 0.60516,-0.1069 c 0.26573,-0.0469 0.62841,-0.13585 0.80592,-0.19788 0.37101,-0.1296 0.42107,-0.12081 0.10702,0.0188 -0.30344,0.13487 -0.90039,0.27155 -1.1691,0.26759 -0.18961,-0.003 -0.14741,-0.0174 0.25614,-0.0885 z m -0.86908,-0.30836 c 0.1269,-0.0828 0.9926,-0.36605 1.33528,-0.43683 0.46079,-0.0951 0.52799,-0.0834 0.1403,0.0246 -0.29055,0.0809 -1.24938,0.36341 -1.45689,0.42919 -0.0685,0.0217 -0.0724,0.0182 -0.0186,-0.0169 z m 1.97016,-1.47469 c 0.90873,-0.57169 1.18396,-0.77843 1.69941,-1.27648 0.40477,-0.39107 0.70937,-0.7659 0.98252,-1.20887 0.21932,-0.35577 0.26873,-0.39002 0.10879,-0.0754 -0.2924,0.57503 -1.03625,1.40855 -1.70658,1.91231 -0.38182,0.28693 -1.06022,0.70998 -1.13084,0.70518 -0.0217,-9.2e-4 0,-0.027 0.0467,-0.0567 z m -0.18287,-0.3979 c 0.07,-0.0552 0.1196,-0.13939 0.1196,-0.20344 0,-0.10959 -0.0243,-0.12284 -0.31783,-0.17323 -0.0625,-0.0108 -0.0239,-0.0165 0.0857,-0.0121 0.14806,0.006 0.21547,0.0315 0.26287,0.10324 0.0574,0.0869 0.0519,0.11068 -0.0555,0.23836 -0.0657,0.0779 -0.14073,0.14183 -0.16686,0.14183 -0.0261,0 0.006,-0.0424 0.0722,-0.0941 z m -0.81144,-0.94965 c 0.0505,-0.0817 0.66682,-0.48004 1.01054,-0.65313 0.35816,-0.18037 0.75918,-0.30081 1.00149,-0.30081 0.36968,0 0.66161,0.30426 0.55946,0.5831 -0.0429,0.11689 -0.0442,0.11554 -0.0479,-0.0459 -0.006,-0.23193 -0.0405,-0.30345 -0.1884,-0.37997 -0.38427,-0.19871 -1.0825,0.0121 -1.98655,0.59865 -0.2079,0.135 -0.36483,0.2241 -0.34873,0.19806 z m 2.73862,-2.16542 c 0.0329,-0.0135 0.0719,-0.0108 0.087,0.004 0.0151,0.0152 -0.0121,0.0258 -0.0596,0.0239 -0.053,-0.003 -0.0637,-0.0135 -0.0274,-0.0274 z m -12.32622,5.48908 c 0.24061,-0.53617 0.33537,-1.2656 0.20584,-1.58457 -0.0473,-0.11648 -0.057,-0.0885 -0.11014,0.31297 -0.032,0.24243 -0.0815,0.47738 -0.10973,0.52212 -0.0432,0.0682 -0.0476,0.0594 -0.0268,-0.0549 0.0135,-0.0749 0.0379,-0.28944 0.0539,-0.47673 0.0422,-0.49115 -0.0462,-0.77515 -0.59336,-1.90689 -0.25957,-0.53688 -0.51298,-1.09873 -0.56311,-1.24856 -0.0966,-0.28879 -0.43244,-1.01671 -0.39796,-0.86265 0.14876,0.66549 0.2107,0.83333 0.56108,1.52098 0.48587,0.95353 0.54638,1.13894 0.6269,1.9221 0.0364,0.35371 0.089,0.74128 0.1169,0.86125 0.0279,0.11999 0.0396,0.22923 0.0259,0.24283 -0.0286,0.0287 -0.15658,-0.38174 -0.19672,-0.63121 -0.0152,-0.0937 -0.0412,-0.17026 -0.058,-0.17026 -0.0168,0 -0.0755,0.0925 -0.1304,0.20553 -0.18076,0.37202 -0.10285,0.87229 0.22444,1.44219 0.17079,0.29737 0.19883,0.29024 0.37139,-0.0942 z m 7.61919,0.0236 c -0.0358,-0.0358 -0.075,-0.0265 -0.14141,0.0336 -0.13739,0.12432 -0.11082,0.17201 0.0496,0.0891 0.10216,-0.0529 0.1277,-0.0869 0.0919,-0.1227 z m -3.6971,-0.0268 c 0.0947,-0.0484 0.21203,-0.13189 0.26075,-0.18581 0.0881,-0.0973 0.0879,-0.0992 -0.0186,-0.29435 l -0.10731,-0.19642 -0.59422,0.0235 c -0.32684,0.0135 -0.60131,0.0418 -0.60993,0.0642 -0.008,0.0224 -0.0649,0.0991 -0.12486,0.17047 l -0.1092,0.12974 0.13217,0.1415 c 0.20117,0.21536 0.389,0.28268 0.71721,0.25708 0.15503,-0.0121 0.35936,-0.0615 0.45402,-0.10987 z m 3.54764,-0.11121 c 0.45079,-0.58429 0.49459,-0.97893 0.18746,-1.6889 -0.16249,-0.37557 -0.19652,-0.50357 -0.19699,-0.74077 0,-0.2652 -0.006,-0.27816 -0.0605,-0.17237 -0.033,0.063 -0.10297,0.29414 -0.15561,0.51378 -0.0777,0.32457 -0.0908,0.48439 -0.0699,0.85339 0.0139,0.24971 0.0373,0.50509 0.0515,0.56751 0.0142,0.0625 -0.004,0.0369 -0.0408,-0.0567 -0.0367,-0.0935 -0.0846,-0.33874 -0.1065,-0.54482 l -0.0399,-0.37472 -0.0977,0.2043 c -0.12082,0.25246 -0.1342,0.10298 -0.0144,-0.16072 0.0458,-0.10094 0.14914,-0.39714 0.22955,-0.65833 0.0804,-0.2612 0.26781,-0.70986 0.41641,-0.99703 l 0.27021,-0.52212 -0.18589,0.20431 c -0.22937,0.25213 -0.83093,1.45081 -0.93417,1.86149 -0.10594,0.42119 -0.0684,0.99323 0.0874,1.33357 0.10932,0.23888 0.3814,0.61606 0.44565,0.61789 0.0155,4.8e-4 0.11203,-0.10743 0.21421,-0.23986 z m -8.51619,-0.14768 -0.0259,-0.34297 0.25661,-0.50833 c 0.36345,-0.71996 0.39164,-0.97865 0.18074,-1.65838 l -0.0799,-0.2574 -0.03,0.45403 c -0.0314,0.47334 -0.0403,0.50517 -0.37858,1.35085 -0.22403,0.55996 -0.24621,0.71681 -0.13799,0.9758 0.0597,0.14294 0.18924,0.32937 0.22882,0.32937 0.006,0 0,-0.15434 -0.0138,-0.34297 z m 0.28541,0.17808 c 0.0859,-0.0562 0.10541,-0.0972 0.081,-0.17025 -0.0177,-0.0529 -0.0558,-0.21876 -0.0846,-0.36859 l -0.0524,-0.27242 -0.0754,0.1758 c -0.0755,0.17569 -0.0999,0.50219 -0.0479,0.63773 0.0342,0.089 0.0404,0.089 0.1795,-0.003 z m 8.65657,-0.0508 c 0.20976,-0.23925 0.26769,-0.54965 0.15035,-0.80589 l -0.0623,-0.1362 -0.004,0.16018 c -0.003,0.0881 -0.0738,0.30651 -0.15951,0.48533 -0.14582,0.30424 -0.14875,0.35556 -0.0215,0.37245 0.0149,0.003 0.0584,-0.0322 0.0966,-0.0758 z m -2.31468,-0.38603 c 0.0685,-0.13107 0.23744,-0.38638 0.37541,-0.56741 0.13795,-0.18105 0.24094,-0.32917 0.22885,-0.32917 -0.0121,0 -0.15032,0.0702 -0.30725,0.15592 -0.3865,0.21119 -0.70134,0.33326 -1.23053,0.47708 l -0.44577,0.12108 0.0857,0.10582 c 0.072,0.0891 0.13578,0.10824 0.40035,0.12081 0.17306,0.008 0.39636,0.0449 0.49626,0.0814 0.0999,0.0367 0.20204,0.0679 0.22699,0.0696 0.025,9.3e-4 0.10148,-0.10419 0.16994,-0.23515 z m -3.39896,0.0779 c 0.28964,-0.0108 0.37551,-0.0304 0.45101,-0.10582 0.10987,-0.10986 0.11244,-0.10851 -0.37742,-0.1883 -0.18731,-0.0306 -0.55257,-0.1246 -0.8117,-0.20896 -0.25914,-0.0844 -0.4766,-0.15352 -0.48326,-0.15352 -0.006,0 0.093,0.16356 0.22141,0.36346 l 0.23358,0.36348 0.2043,-0.0289 c 0.11243,-0.0158 0.36531,-0.0344 0.56208,-0.0415 z m 2.10621,-0.45741 c 0.773,-0.13645 1.68321,-0.51222 2.09539,-0.86503 0.19663,-0.16831 0.54406,-0.8141 0.73228,-1.36116 0.11811,-0.34349 0.11419,-0.35721 -0.0704,-0.24314 -0.18103,0.11189 -0.18332,0.10879 -0.0911,-0.12392 0.0569,-0.14337 0.16367,-0.60249 0.14016,-0.60249 -0.004,0 -0.0875,0.0408 -0.18537,0.0908 -0.098,0.05 -0.2044,0.0908 -0.23657,0.0908 -0.0321,0 -0.0585,0.0306 -0.0585,0.0681 0,0.0419 0.0426,0.0681 0.11082,0.0681 0.16487,0 0.1828,0.079 0.0258,0.11338 -0.0941,0.0206 -0.1366,0.0571 -0.1366,0.11717 0,0.0479 0.0205,0.0872 0.0454,0.0872 0.025,0 0.0454,0.0197 0.0454,0.0441 0,0.0242 -0.0304,0.0323 -0.0677,0.018 -0.10662,-0.0409 -0.13578,0.11094 -0.0412,0.21542 0.0823,0.091 0.0816,0.0922 -0.0452,0.0778 -0.18088,-0.0205 -0.25851,0.10527 -0.14338,0.2324 0.0969,0.10717 0.0962,0.10758 -0.0966,0.0523 -0.0791,-0.0227 -0.15395,-0.0312 -0.1662,-0.0189 -0.0242,0.0242 -1.07422,0.0468 -1.07417,0.0231 0,-0.008 0.0206,-0.0527 0.0456,-0.0994 0.0305,-0.0571 0.0304,-0.0945 0,-0.11366 -0.0254,-0.0156 -0.0903,-0.11406 -0.14403,-0.21841 -0.29024,-0.56306 0.0465,-1.31838 0.66363,-1.48879 0.18211,-0.0503 0.37327,-0.0227 0.60346,0.087 0.13392,0.064 0.15408,0.0634 0.23075,-0.006 0.12528,-0.11338 0.16583,-0.0919 0.0785,0.0415 -0.0905,0.13814 -0.0569,0.19716 0.0679,0.11919 0.1342,-0.0838 0.15286,-0.0667 0.0682,0.0624 -0.098,0.14956 -0.0723,0.17247 0.13082,0.11635 0.2173,-0.06 0.16828,0.0201 -0.0804,0.13148 -0.15119,0.0677 -0.17097,0.0895 -0.10446,0.11487 0.1273,0.0489 0.42848,-0.0597 0.46241,-0.16671 0.0344,-0.10878 -0.0108,-0.59054 -0.0746,-0.79725 -0.0455,-0.14713 -0.19234,-0.22325 -0.3292,-0.17073 -0.038,0.0146 -0.30016,-0.0491 -0.58248,-0.14159 l -0.51331,-0.1681 -0.27242,0.12175 -0.2724,0.1219 0.14013,0.1219 c 0.077,0.067 0.17919,0.14819 0.22699,0.18036 0.1482,0.0997 -0.44157,0.0264 -0.80588,-0.1004 -0.43811,-0.15237 -0.76727,-0.35908 -1.1339,-0.71211 -0.17134,-0.16498 -0.31098,-0.27735 -0.31031,-0.24972 0.003,0.10284 0.26249,0.65152 0.46454,0.98044 0.11487,0.18699 0.20132,0.34745 0.19221,0.35657 -0.0292,0.0292 -0.89865,-0.27344 -1.15738,-0.40289 -0.13736,-0.0687 -0.37749,-0.21908 -0.53362,-0.33414 -0.15613,-0.11501 -0.29292,-0.20921 -0.30398,-0.20921 -0.0108,0 0.0307,0.11486 0.0928,0.25535 0.0622,0.14045 0.10285,0.26543 0.0905,0.27775 -0.0399,0.0399 -0.5658,-0.49329 -0.71297,-0.72261 -0.0785,-0.12245 -0.14753,-0.21669 -0.15335,-0.20949 -0.006,0.006 -0.0234,0.0968 -0.039,0.19902 -0.0283,0.18524 -0.0277,0.18617 0.1533,0.2404 0.13352,0.04 0.21255,0.10324 0.29782,0.23832 0.0638,0.10108 0.1069,0.193 0.0958,0.20416 -0.0108,0.0108 -0.0995,-0.0108 -0.19624,-0.0474 -0.31974,-0.12311 -0.35865,-0.11596 -0.34281,0.064 0.0299,0.3393 0.0938,0.48632 0.23685,0.5456 0.20491,0.0849 0.48787,0.43246 0.56588,0.69514 0.0934,0.31437 0.0849,0.46889 -0.0405,0.73831 -0.07,0.15031 -0.0941,0.25522 -0.0689,0.30013 0.0331,0.0592 -0.0406,0.0755 -0.51625,0.1142 -0.32507,0.0265 -0.56585,0.0284 -0.58133,0.006 -0.0152,-0.0235 -0.0776,-0.0212 -0.14757,0.006 -0.13554,0.0515 -0.14488,0.0397 -0.067,-0.0849 0.079,-0.12649 -0.0244,-0.23891 -0.18409,-0.20015 -0.11378,0.0277 -0.11608,0.0249 -0.0461,-0.0572 0.0894,-0.10487 0.0635,-0.19975 -0.0546,-0.19975 -0.0479,0 -0.087,-0.0205 -0.087,-0.0454 0,-0.025 0.0206,-0.0454 0.0455,-0.0454 0.025,0 0.0454,-0.0408 0.0454,-0.0908 0,-0.0596 -0.0303,-0.0908 -0.0881,-0.0908 -0.12446,0 -0.15821,-0.0785 -0.0487,-0.11325 0.11365,-0.0361 0.12351,-0.2044 0.0121,-0.20478 -0.0436,-1.7e-4 -0.13798,-0.0308 -0.2095,-0.0681 -0.0715,-0.0373 -0.14069,-0.0679 -0.1537,-0.0679 -0.0135,0 -0.0108,0.097 0.006,0.21565 l 0.0291,0.21567 -0.0844,-0.13782 c -0.10027,-0.16365 -0.59143,-0.58889 -0.51477,-0.44568 0.028,0.0523 0.15369,0.2443 0.2794,0.42679 0.24351,0.35349 0.30337,0.5175 0.10744,0.29462 -0.11311,-0.12879 -0.11676,-0.12973 -0.0835,-0.0227 0.0924,0.29781 0.59137,1.36235 0.72444,1.54573 0.29257,0.40317 0.92616,0.72595 1.8174,0.92582 0.91294,0.20477 1.49097,0.22675 2.28327,0.0869 z m -0.95503,-0.52557 c -0.0696,-0.0516 -0.0471,-0.0599 0.1704,-0.062 0.25826,-0.003 0.28222,0.0487 0.0444,0.0951 -0.0799,0.0156 -0.16744,0.003 -0.21494,-0.0332 z m -0.4387,-0.3356 c -0.16643,-0.0755 -0.23152,-0.12675 -0.20045,-0.15788 0.0311,-0.0311 0.11595,-0.0161 0.26156,0.0464 0.37117,0.15911 0.93558,0.10582 1.11026,-0.10487 0.0829,-0.0997 0.19812,-0.097 0.17941,0.004 -0.008,0.0437 -0.12568,0.13564 -0.2612,0.20432 -0.32973,0.16701 -0.73247,0.16987 -1.08958,0.008 z m -2.455,-0.67741 c 0,-0.0416 0.0218,-0.0684 0.0488,-0.0594 0.0269,0.009 0.0488,0.0356 0.0488,0.0594 0,0.0236 -0.0219,0.0504 -0.0488,0.0593 -0.0268,0.009 -0.0488,-0.0177 -0.0488,-0.0593 z m 5.69796,-0.0227 c 0.0155,-0.025 0.0473,-0.0454 0.0708,-0.0454 0.0235,0 0.0427,0.0205 0.0427,0.0454 0,0.025 -0.0318,0.0455 -0.0708,0.0455 -0.0389,0 -0.0581,-0.0204 -0.0427,-0.0455 z m -2.96547,-0.0479 c 0.0349,-0.10446 0.29334,-0.14547 0.4345,-0.0691 l 0.12474,0.0676 -0.18162,-0.006 c -0.0999,-0.003 -0.23033,0.0121 -0.28984,0.0315 -0.0816,0.0271 -0.10325,0.0209 -0.0878,-0.0255 z m 3.12439,0.003 c 0,-0.025 0.0206,-0.0454 0.0454,-0.0454 0.025,0 0.0454,0.0205 0.0454,0.0454 0,0.025 -0.0203,0.0454 -0.0454,0.0454 -0.025,0 -0.0454,-0.0204 -0.0454,-0.0454 z m -7.283,-0.36657 c 0.088,-0.0729 0.0803,-0.25312 -0.0235,-0.55487 -0.11716,-0.34052 -0.29683,-0.63934 -0.42598,-0.70846 -0.17532,-0.0938 -0.4395,-0.0462 -0.54725,0.0988 -0.20463,0.27522 -0.0717,0.83678 0.25513,1.07848 0.24353,0.18005 0.58122,0.21925 0.74165,0.0861 z m -0.366,-0.25771 c 0.0655,-0.1543 0.0452,-0.26044 -0.0587,-0.30605 -0.0565,-0.0249 -0.0935,-0.0692 -0.0823,-0.0985 0.0242,-0.0632 -0.0715,-0.10621 -0.23633,-0.10621 -0.0881,0 -0.10568,-0.0135 -0.0677,-0.0512 0.0764,-0.0762 0.25975,-0.0121 0.41753,0.14543 0.10851,0.10851 0.13971,0.17947 0.13971,0.31783 0,0.13339 -0.0184,0.17812 -0.0729,0.17812 -0.052,0 -0.0634,-0.0227 -0.0394,-0.0794 z m 2.88623,0.20771 c 0.12622,-0.0709 0.19648,-0.15313 0.24943,-0.29178 0.10176,-0.26651 0.0617,-0.33389 -0.0737,-0.12405 -0.0804,0.12459 -0.16633,0.19114 -0.3023,0.23422 -0.17177,0.0544 -0.20867,0.0512 -0.3858,-0.0336 -0.1077,-0.0516 -0.25882,-0.13257 -0.33579,-0.17983 l -0.13997,-0.0861 0.008,0.13176 c 0.008,0.14013 0.16715,0.34267 0.31747,0.40485 0.174,0.072 0.48188,0.0462 0.66277,-0.0555 z m 6.78183,-0.006 c 0.57095,-0.32337 0.62358,-1.25847 0.0708,-1.25847 -0.22284,0 -0.39588,0.1879 -0.64238,0.69763 -0.19994,0.41349 -0.20219,0.42558 -0.10555,0.56353 0.0974,0.13925 0.42883,0.13793 0.6771,-0.003 z m -0.33771,-0.24828 c 0.003,-0.11824 0.006,-0.1204 0.0666,-0.0388 0.0657,0.0867 0.0538,0.16357 -0.0254,0.16357 -0.0235,0 -0.042,-0.0562 -0.0412,-0.12487 z m -0.003,-0.22661 c 0,-0.0981 0.32006,-0.32956 0.45563,-0.32956 0.0741,0 0.1346,0.0216 0.1346,0.0481 0,0.0265 -0.0218,0.0347 -0.048,0.0183 -0.0841,-0.0519 -0.28062,0.0215 -0.25267,0.0943 0.0158,0.0415 -0.003,0.0662 -0.0491,0.0662 -0.0409,0 -0.1119,0.0338 -0.15748,0.0752 -0.0456,0.0414 -0.0831,0.0537 -0.0831,0.0274 z m -1.84275,0.3552 c 0.0619,-0.0581 0.13339,-0.16574 0.15903,-0.2392 l 0.0465,-0.13351 -0.13837,0.11649 c -0.3372,0.28375 -0.74133,0.18942 -0.98819,-0.23064 -0.0429,-0.073 -0.0556,-0.0752 -0.0951,-0.0162 -0.0907,0.13563 -0.0484,0.28163 0.13459,0.46465 0.18024,0.18026 0.18367,0.18142 0.47525,0.16285 0.22855,-0.0146 0.31862,-0.042 0.40616,-0.12433 z m 1.22651,-0.95717 c 0.10567,-0.20282 0.29845,-0.77394 0.29845,-0.88444 0,-0.0317 -0.0562,-0.0699 -0.12487,-0.0849 -0.0687,-0.015 -0.1662,-0.0391 -0.21671,-0.0537 -0.0877,-0.0252 -0.0917,-0.006 -0.0917,0.41888 3e-5,0.24489 -0.0151,0.55763 -0.0341,0.69498 -0.0376,0.27463 -0.0151,0.26269 0.169,-0.0908 z m 0.30186,-0.14951 c 0.21831,-0.40961 0.31747,-0.83502 0.3461,-1.48497 0.0243,-0.55209 -0.0479,-1.29673 -0.16755,-1.72685 -0.0465,-0.1671 -0.30888,-0.61309 -0.34153,-0.58044 -0.0108,0.0108 0.0108,0.13014 0.0471,0.2663 0.11216,0.42168 0.0688,0.40387 -0.0872,-0.0356 -0.0819,-0.23073 -0.21857,-0.52322 -0.30381,-0.64999 -0.18086,-0.26899 -0.57252,-0.57928 -1.008,-0.79857 -0.29067,-0.14638 -1.053,-0.42474 -1.16325,-0.42474 -0.0279,0 0.0367,0.1073 0.14357,0.23836 0.2676,0.32859 0.3772,0.51513 0.51007,0.86813 0.16925,0.44966 0.13872,0.45951 -0.0791,0.0256 -0.22261,-0.44353 -0.55201,-0.88044 -0.7797,-1.03419 -0.0867,-0.0585 -0.24555,-0.12663 -0.3529,-0.15128 -0.23297,-0.0535 -1.36877,-0.0653 -1.70261,-0.0177 -0.21964,0.0314 -0.23988,0.045 -0.28955,0.19545 -0.0805,0.24398 -0.0274,1.22311 0.0905,1.66907 0.27971,1.05754 1.03458,2.05319 1.87597,2.47431 0.47244,0.23646 0.52937,0.2347 0.36113,-0.0108 -0.3863,-0.56465 -0.58025,-1.24607 -0.66877,-2.34956 -0.017,-0.21226 -0.0205,-0.3757 -0.008,-0.36322 0.0121,0.0121 0.0775,0.31667 0.14335,0.67596 0.0659,0.35929 0.14806,0.70768 0.18245,0.7742 0.0779,0.15068 0.42082,0.47017 0.60913,0.56755 0.0779,0.0401 0.14141,0.0624 0.14141,0.0493 0,-0.0135 -0.0692,-0.12081 -0.15357,-0.23953 -0.16717,-0.23486 -0.36077,-0.60338 -0.41151,-0.78329 -0.0174,-0.0624 0.0546,0.0294 0.1605,0.20431 0.38836,0.64131 1.10032,1.20915 1.75715,1.40144 l 0.24022,0.0704 -0.20827,-0.23646 c -0.27246,-0.30933 -0.43805,-0.66367 -0.60914,-1.30343 -0.19714,-0.73727 -0.1706,-0.75356 0.087,-0.0534 0.22916,0.62287 0.36553,0.89441 0.57301,1.14099 0.14441,0.17163 0.19989,0.14949 0.0735,-0.0293 -0.11311,-0.16022 -0.3516,-0.63545 -0.39433,-0.7858 -0.0177,-0.0625 0.0649,0.0554 0.18336,0.26177 0.21765,0.37887 0.63055,0.87847 0.80173,0.9701 0.0841,0.045 0.0899,0.0394 0.0614,-0.0576 -0.11447,-0.39036 -0.24976,-0.9592 -0.27397,-1.15155 -0.0212,-0.16953 0.0121,-0.0947 0.13487,0.29509 0.18198,0.58144 0.36409,1.01638 0.45831,1.09457 0.0876,0.0727 0.0841,-0.65127 -0.006,-1.24966 -0.0732,-0.48609 -0.0641,-0.61872 0.0186,-0.26732 0.0793,0.33726 0.13747,0.86245 0.13981,1.26237 0.003,0.19976 0.0215,0.39385 0.0452,0.43131 0.0308,0.0488 0.0224,0.0753 -0.0292,0.0934 -0.0446,0.0156 -0.10351,0.14828 -0.15376,0.34632 -0.0449,0.17652 -0.14679,0.45115 -0.22657,0.61028 -0.14067,0.28059 -0.14158,0.28612 -0.0305,0.18323 0.0631,-0.0584 0.18131,-0.23112 0.26273,-0.38392 z m -3.90619,-2.46698 c -0.15379,-0.11554 -0.38133,-0.33524 -0.50561,-0.48808 -0.22955,-0.28226 -0.54044,-0.84345 -0.54044,-0.97551 0,-0.0399 0.0794,0.0857 0.17663,0.27912 0.24112,0.47996 0.63685,0.94342 1.09282,1.27982 0.0855,0.0631 0.13324,0.11487 0.10594,0.11487 -0.0273,0 -0.17556,-0.0946 -0.32931,-0.21017 z m -3.54321,2.62561 c 0,-0.02 -0.0673,-0.0607 -0.14967,-0.0904 -0.0823,-0.0297 -0.18961,-0.0861 -0.23839,-0.12515 -0.0859,-0.0688 -0.0856,-0.0696 0.0108,-0.0231 0.0973,0.0469 0.42294,0.0679 0.42294,0.0273 0,-0.0108 -0.0514,-0.0964 -0.11391,-0.18869 -0.0627,-0.0925 -0.10312,-0.17891 -0.0897,-0.19223 0.0135,-0.0135 0.0555,0.0206 0.0939,0.0752 0.0872,0.12446 0.21823,0.13539 0.18003,0.0151 -0.0217,-0.0681 -0.003,-0.0847 0.0991,-0.0862 0.0692,-9.2e-4 0.22261,-0.0304 0.34088,-0.0652 l 0.21495,-0.0634 -0.28566,-0.28314 -0.28569,-0.28314 -0.17188,0.0717 c -0.24967,0.10433 -0.29414,0.0602 -0.0812,-0.0807 l 0.18368,-0.12162 -0.0973,-0.23035 c -0.097,-0.2298 -0.0974,-0.23011 -0.17331,-0.1296 -0.0417,0.0554 -0.13406,0.26566 -0.20485,0.46721 -0.10623,0.30213 -0.12907,0.44208 -0.12987,0.79741 l -0.003,0.43096 0.1589,0.0546 c 0.18767,0.0644 0.31781,0.0741 0.31781,0.0234 z m 1.24804,-0.0983 c 0.0344,-0.10879 -0.0385,-0.25537 -0.15943,-0.32009 -0.1169,-0.0626 -0.27136,0.0161 -0.27136,0.13836 0,0.21691 0.37005,0.37302 0.43079,0.18173 z m 4.59977,0.0346 c 0.12109,-0.12108 0.008,-0.44494 -0.15525,-0.44494 -0.0873,0 -0.16322,0.16964 -0.1277,0.28548 0.0627,0.20477 0.17462,0.26782 0.28298,0.15946 z m -6.63396,-0.24746 c -0.19414,-0.38431 -0.28094,-0.87565 -0.27952,-1.58224 0.003,-0.62071 0.0982,-1.30336 0.2096,-1.47442 0.0342,-0.0524 0.039,-0.0418 0.0199,0.0443 -0.25209,1.13322 -0.19377,2.47977 0.13162,3.04195 0.0614,0.10608 0.0658,0.0896 0.0673,-0.25062 0.003,-0.43328 0.11621,-0.88002 0.36512,-1.4276 0.14181,-0.31196 0.17917,-0.4518 0.19158,-0.71675 0.008,-0.18104 0.009,-0.32916 0.003,-0.32916 -0.006,0 -0.0914,0.15833 -0.18805,0.35186 -0.20115,0.40286 -0.34487,0.81658 -0.43963,1.26561 l -0.0658,0.31212 0.0205,-0.3632 c 0.0291,-0.5161 0.24507,-1.1357 0.57767,-1.6572 0.0876,-0.13733 0.21552,-0.41955 0.28423,-0.62715 0.0688,-0.20761 0.13338,-0.369 0.14379,-0.35867 0.0108,0.0108 -0.0218,0.1904 -0.0711,0.40014 -0.29286,1.24229 -0.19375,1.95533 0.35271,2.53797 l 0.23421,0.24973 -0.0888,-0.20716 c -0.105,-0.24534 -0.2292,-0.70452 -0.22579,-0.83529 0.003,-0.0509 0.0537,0.0811 0.11621,0.2933 0.13473,0.45712 0.19444,0.54334 0.16518,0.23877 -0.0121,-0.12136 0.006,-0.37282 0.0385,-0.55885 0.0329,-0.18604 0.0567,-0.45061 0.053,-0.58797 l -0.006,-0.24971 0.0803,0.24971 c 0.0442,0.13736 0.11702,0.32123 0.16204,0.40863 0.10176,0.19786 0.39254,0.60066 0.41635,0.57684 0.009,-0.009 -0.0404,-0.15879 -0.11135,-0.3313 -0.0709,-0.1725 -0.14364,-0.37494 -0.16144,-0.44985 -0.0177,-0.0749 -0.0422,-0.17708 -0.0542,-0.22701 -0.0121,-0.05 0.0365,0.0317 0.10771,0.1816 0.13611,0.28607 0.43419,0.61723 0.75144,0.83482 0.19032,0.13055 0.72721,0.41374 0.78432,0.41374 0.017,0 -0.0829,-0.11919 -0.22179,-0.26491 -0.69683,-0.73056 -1.06879,-1.61585 -1.09996,-2.61812 l -0.017,-0.54483 0.0361,0.45402 c 0.0861,1.0819 0.53406,2.02945 1.29089,2.73013 0.47308,0.438 0.50807,0.44127 0.30281,0.0282 -0.165,-0.332 -0.65425,-1.66794 -0.88553,-2.41791 -0.0958,-0.31068 -0.10797,-0.32915 -0.13879,-0.21078 -0.0374,0.14366 0.004,0.81727 0.0715,1.17557 0.0241,0.12676 0.0354,0.2387 0.0252,0.24891 -0.042,0.0418 -0.16423,-0.64477 -0.18896,-1.06139 -0.0253,-0.42685 0.0354,-1.5825 0.0968,-1.84076 0.0289,-0.12189 0.0288,-0.12202 -0.13785,-0.0708 -0.0917,0.0281 -0.21491,0.10838 -0.27364,0.17811 -0.11054,0.1315 -0.29494,0.57264 -0.29614,0.7089 0,0.0429 -0.0206,0.10838 -0.0447,0.14585 -0.0592,0.0916 -0.0554,0.0322 0.0203,-0.32525 0.0353,-0.1664 0.0968,-0.36561 0.13659,-0.44267 0.0399,-0.077 0.0526,-0.14012 0.0285,-0.14012 -0.0242,0 -0.2606,0.0709 -0.52541,0.1577 -0.5275,0.1728 -1.11194,0.45785 -1.30327,0.63565 -0.24561,0.22824 -0.60184,0.84842 -0.83523,1.45406 -0.0577,0.14982 -0.10595,0.24536 -0.10716,0.21231 -0.004,-0.1227 0.23633,-0.76816 0.40966,-1.09765 l 0.17909,-0.34052 -0.21167,0.227 c -0.25688,0.27553 -0.57164,0.90935 -0.69687,1.40339 -0.17077,0.67361 -0.0854,1.38804 0.22793,1.9074 0.16204,0.26861 0.62979,0.81792 0.66582,0.7819 0.0108,-0.0108 -0.0299,-0.11919 -0.0911,-0.24033 z m 8.61591,-0.16705 c 0.39685,-0.67713 0.44834,-1.72323 0.12257,-2.48905 -0.0729,-0.17105 -0.0752,-0.14566 -0.0776,0.8574 -0.003,0.99881 -0.0282,1.24518 -0.18344,1.74878 -0.0427,0.13861 0.0194,0.0861 0.13839,-0.11716 z m -9.79786,-0.003 c -0.0224,-0.0925 -0.0208,-0.0922 0.0473,0.006 0.0564,0.0817 0.24095,0.14867 0.24095,0.0874 0,-0.008 -0.0534,-0.16645 -0.11851,-0.35185 -0.15378,-0.43756 -0.19591,-1.14945 -0.0938,-1.58543 0.038,-0.16216 0.0622,-0.30175 0.0537,-0.31018 -0.033,-0.033 -0.34742,0.69154 -0.41557,0.95748 -0.0922,0.35956 -0.0646,0.84263 0.0646,1.1341 0.0725,0.16318 0.11351,0.20835 0.16992,0.18669 0.0485,-0.0186 0.0664,-0.062 0.0514,-0.12446 z m 10.10937,0.006 c 0.0805,-0.0933 0.10987,-0.11136 0.0794,-0.0488 -0.0684,0.14028 -0.0615,0.15877 0.0526,0.14237 0.32531,-0.0468 0.36393,-1.31918 0.0576,-1.89753 -0.0531,-0.10027 -0.0576,-0.0596 -0.035,0.32501 0.0304,0.52071 -0.0315,0.88975 -0.21867,1.30254 -0.0726,0.1599 -0.1319,0.29812 -0.1319,0.30715 0,0.0543 0.0852,-0.003 0.19587,-0.13068 z m -3.32834,-1.36707 c -0.11257,-0.0712 -0.26056,-0.18207 -0.32896,-0.2464 -0.0684,-0.0643 -0.13693,-0.10446 -0.15222,-0.0891 -0.0289,0.0289 0.16262,0.47794 0.28189,0.66064 l 0.0685,0.10487 0.16771,-0.15027 0.16769,-0.15028 z m -6.99222,-0.47214 c 0,-0.0342 -0.0218,-0.0487 -0.0484,-0.0321 -0.0267,0.0165 -0.11933,0.0167 -0.20592,2.3e-4 -0.12839,-0.0241 -0.16253,-0.0543 -0.18436,-0.16339 -0.0309,-0.15464 -0.10433,-0.17059 -0.21613,-0.047 -0.0758,0.0837 -0.0707,0.0914 0.14049,0.21096 0.12054,0.0682 0.26,0.15014 0.30996,0.18196 0.0759,0.0484 0.1,0.0459 0.14754,-0.0154 0.0312,-0.0403 0.0567,-0.10108 0.0567,-0.13528 z m -0.0258,-0.4116 c 0.0731,-0.10379 0.12081,-0.20095 0.10594,-0.21585 -0.0149,-0.0149 -0.12067,0.0143 -0.23518,0.065 -0.16625,0.0735 -0.20807,0.11459 -0.20807,0.20431 0,0.10879 0.0657,0.16943 0.15891,0.14652 0.025,-0.006 0.10528,-0.0961 0.17843,-0.19992 z m 0.16337,0.12541 c 0.0932,-0.17431 0.0254,-0.22817 -0.0812,-0.0644 -0.0799,0.12272 -0.0877,0.15761 -0.0356,0.15761 0.0367,0 0.0893,-0.0419 0.11676,-0.0932 z m -0.57036,-0.17675 c 0.0108,-0.0176 -0.0712,-0.0761 -0.1823,-0.13013 -0.20995,-0.10203 -0.20396,-0.10447 -0.22024,0.0915 -0.008,0.10028 0.34361,0.13393 0.40254,0.0385 z m 0.77678,-0.26393 c -0.0461,-0.0461 -0.1296,0.0679 -0.093,0.12717 0.025,0.0405 0.0455,0.0346 0.0775,-0.0221 0.0238,-0.0426 0.0308,-0.0897 0.0156,-0.105 z m -0.43473,-0.0182 c 0,-0.0209 -0.0511,-0.0381 -0.11352,-0.0381 -0.0828,0 -0.11351,0.0243 -0.11351,0.0899 0,0.0793 0.0135,0.0838 0.11351,0.0381 0.0625,-0.0285 0.11352,-0.069 0.11352,-0.0899 z m -0.3396,-0.0949 c 0.0173,-0.10608 0.0882,-0.3274 0.1576,-0.49171 l 0.12608,-0.29875 -0.38131,0.22545 c -0.51567,0.3049 -0.55171,0.45913 -0.15616,0.66825 0.0891,0.0472 0.17567,0.0866 0.19222,0.0877 0.0165,9.3e-4 0.0443,-0.0849 0.0616,-0.19094 z m 0.91755,-0.0603 c 0.0556,-0.0359 0.13284,-0.12649 0.17141,-0.20122 0.0638,-0.12339 0.0637,-0.13579 -0.003,-0.13579 -0.0399,0 -0.20224,-0.0926 -0.36082,-0.20575 -0.1586,-0.11311 -0.30063,-0.18587 -0.31564,-0.16159 -0.0453,0.0731 -0.25684,0.65048 -0.24269,0.66203 0.006,0.006 0.10513,0.043 0.21744,0.0825 0.21827,0.0766 0.36984,0.0652 0.53253,-0.04 z m 10.92935,0.006 c 0.14508,-0.0607 0.2519,-0.18655 0.2519,-0.29701 0,-0.0289 -0.0473,-0.0185 -0.11407,0.0253 -0.15564,0.10203 -0.36749,0.0534 -0.55371,-0.12716 -0.0815,-0.0789 -0.16191,-0.12974 -0.17877,-0.11297 -0.0576,0.0576 0.0766,0.38941 0.19542,0.48281 0.1403,0.11041 0.19492,0.11433 0.39921,0.0289 z m -14.68172,-0.0512 c 0.0744,-0.0385 0.12338,-0.0896 0.10865,-0.11352 -0.0429,-0.0693 -0.41218,-0.0517 -0.47389,0.0227 -0.12892,0.15542 0.12055,0.21746 0.36529,0.0908 z m 13.74058,-0.11027 c 0.0804,-0.0491 0.15594,-0.13582 0.16767,-0.19278 0.10068,-0.48901 0.14184,-0.60507 0.26423,-0.74446 l 0.13549,-0.15434 -0.1986,-0.0878 c -0.10919,-0.0484 -0.38164,-0.11054 -0.60534,-0.1384 -0.2237,-0.0279 -0.41579,-0.0596 -0.42688,-0.0707 -0.0108,-0.0108 0.13601,-0.0201 0.32688,-0.0201 0.59195,0 1.23591,0.30851 1.47826,0.70822 0.0657,0.10838 0.13271,0.1976 0.14902,0.19838 0.0453,0.003 0.12933,-0.26818 0.12933,-0.41621 0,-0.30133 -0.21504,-0.52035 -0.6325,-0.64423 -0.32041,-0.095 -0.46244,-0.0923 -1.01176,0.0197 -0.25046,0.0511 -0.46527,0.0829 -0.47738,0.0708 -0.0202,-0.0201 0.0744,-0.0507 0.6688,-0.21528 0.15244,-0.0423 0.17879,-0.0609 0.10379,-0.0735 -0.10514,-0.0177 -0.87173,0.15876 -0.93457,0.2151 -0.0875,0.0784 0.0691,0.25717 0.27258,0.31163 0.56645,0.15149 0.68705,0.6925 0.20802,0.93321 l -0.14585,0.0732 0.0935,0.15862 c 0.10864,0.18411 0.21808,0.20147 0.43527,0.0691 z m -13.07336,-0.25352 c 0.09,-0.063 0.14165,-0.20174 0.0753,-0.20174 -0.0662,0 -0.20401,0.10176 -0.24729,0.18266 -0.0604,0.11283 0.0246,0.12229 0.17209,0.0191 z m 14.12109,0.0162 c 0.0935,-0.0935 0.0602,-0.28735 -0.0835,-0.48567 -0.1691,-0.23342 -0.25292,-0.27017 -0.36172,-0.15854 -0.15188,0.15584 -0.13446,0.38928 0.0423,0.56598 0.1383,0.13831 0.30968,0.17158 0.40302,0.0782 z m -10.79573,-0.15029 c 0.0729,-0.0377 0.15219,-0.10514 0.17615,-0.14995 0.11244,-0.2101 0.54927,-1.44251 0.54845,-1.54734 0,-0.0897 -0.0659,-0.16973 -0.26935,-0.3307 l -0.26842,-0.21237 -0.33223,0.28613 c -0.18273,0.15737 -0.40373,0.36178 -0.49115,0.45424 l -0.15892,0.16811 0.13623,0.10974 c 0.0749,0.0604 0.12001,0.10987 0.10028,0.11 -0.0732,4.6e-4 -0.39186,-0.18303 -0.42709,-0.24599 -0.0625,-0.11163 -0.29985,-0.20726 -0.51318,-0.20684 -0.18156,2.3e-4 -0.37374,0.0607 -0.31651,0.0993 0.0121,0.008 0.12595,0.1 0.25385,0.20451 0.16751,0.13698 0.30965,0.20791 0.50875,0.2539 0.48752,0.11257 0.63337,0.28184 0.37143,0.4309 -0.0747,0.0426 -0.13605,0.0903 -0.13621,0.10609 0,0.0255 0.63784,0.53692 0.67164,0.53825 0.008,2.3e-4 0.0732,-0.0303 0.14623,-0.0679 z m 9.42848,-0.12095 c 0.15609,-0.14665 0.13655,-0.31824 -0.0555,-0.4868 -0.0882,-0.0776 -0.17851,-0.14091 -0.2006,-0.14091 -0.0221,0 -0.0725,-0.0121 -0.11189,-0.0276 -0.0917,-0.0352 -0.0917,0.0354 -7e-5,0.43856 0.0609,0.26771 0.0862,0.31543 0.16735,0.31543 0.0526,0 0.14286,-0.0444 0.20066,-0.0986 z m -0.55285,-0.51961 c -0.0957,-0.41259 -0.23046,-0.62975 -0.60614,-0.97667 -0.74776,-0.69056 -1.80408,-1.12012 -2.98579,-1.21419 -1.69597,-0.135 -3.35408,0.41862 -4.27993,1.42903 -0.2642,0.28832 -0.54792,0.7624 -0.49058,0.81974 0.0147,0.0147 0.12378,-0.0587 0.24241,-0.16302 0.48874,-0.43022 1.32452,-0.8491 2.08112,-1.04304 0.79368,-0.20344 1.19336,-0.25067 2.13392,-0.25214 0.84043,-9.3e-4 0.94415,0.008 1.39303,0.12162 0.57972,0.14708 0.95365,0.29405 1.35511,0.53254 0.34459,0.20472 0.87485,0.6805 1.0663,0.95677 0.0727,0.10487 0.13901,0.17026 0.14736,0.14523 0.008,-0.025 -0.0173,-0.18518 -0.0567,-0.35589 z m -9.78875,0.0443 c 0.12717,-0.0659 0.2312,-0.13591 0.2312,-0.1554 0,-0.0738 -0.57223,-0.20016 -0.69432,-0.15331 -0.0588,0.0226 -0.0464,0.0608 0.0734,0.22511 0.0793,0.10878 0.14741,0.19919 0.15135,0.20073 0.004,9.3e-4 0.11123,-0.0512 0.23839,-0.11716 z m 9.75472,-0.93566 c 0.12338,-0.13177 0.19763,-0.32942 0.1618,-0.43092 -0.0154,-0.0439 -0.0702,-0.12635 -0.12136,-0.18332 l -0.0932,-0.10351 -0.0773,0.37587 c -0.0965,0.46978 -0.0657,0.55077 0.13001,0.34182 z m 1.3276,-0.006 c 0.0625,-0.008 0.12636,-0.0179 0.14203,-0.0211 0.0156,-0.003 0.0532,-0.0653 0.0832,-0.13793 0.0624,-0.15083 0.0121,-0.2886 -0.13257,-0.3663 -0.13001,-0.0696 -0.21844,-0.0569 -0.36645,0.0524 -0.15616,0.1154 -0.23245,0.0793 -0.11243,-0.0532 0.0804,-0.089 0.0796,-0.0911 -0.0329,-0.0911 -0.0811,0 -0.12338,0.0303 -0.14261,0.10217 -0.0946,0.35279 0.0465,0.61119 0.30504,0.55898 0.0787,-0.0158 0.19415,-0.0356 0.25658,-0.0441 z m -8.69404,-0.61667 c 0.13324,-0.11095 0.13297,-0.11014 -0.0121,0.0476 -0.21917,0.2386 -0.18038,0.25008 0.13082,0.0388 0.93404,-0.63431 2.4508,-0.99847 3.73964,-0.89789 0.67773,0.0529 1.4202,0.25564 1.97773,0.54007 0.17094,0.0872 0.1908,0.0903 0.13311,0.0201 -0.13095,-0.15934 -0.70484,-0.49432 -1.17832,-0.68776 -0.50701,-0.20712 -0.52983,-0.26034 -0.0434,-0.10082 0.43505,0.14266 0.92392,0.39785 1.22154,0.6377 0.23241,0.18726 0.27486,0.20612 0.34646,0.15378 0.0761,-0.0556 0.0715,-0.0681 -0.069,-0.18635 -0.13378,-0.11257 -0.14796,-0.14605 -0.1273,-0.30029 0.0212,-0.15744 0.006,-0.18735 -0.14914,-0.32103 -0.43053,-0.36805 -1.28047,-0.78397 -1.89081,-0.92528 -1.11683,-0.25855 -2.67175,0.0608 -3.75656,0.77144 -0.59909,0.39245 -1.11812,0.99902 -1.11812,1.30664 0,0.13686 0.0842,0.13835 0.15424,0.003 0.19286,-0.37292 0.7393,-0.89775 1.2759,-1.22544 0.22691,-0.13856 0.70373,-0.34487 0.70373,-0.30449 0,0.0121 -0.1277,0.0854 -0.28374,0.1636 -0.84347,0.42271 -1.51698,1.13819 -1.64107,1.74328 -0.0265,0.12932 -0.0158,0.12351 0.21117,-0.11352 0.13149,-0.13733 0.30017,-0.30059 0.37479,-0.36278 z m 1.08916,-0.81281 c 0.15232,-0.10676 0.73857,-0.34837 0.76975,-0.31717 0.0108,0.0108 -0.15761,0.0972 -0.37483,0.19128 -0.52776,0.22879 -0.55326,0.23691 -0.39492,0.12595 z m 5.97039,1.14834 c 0,-0.17697 -0.0235,-0.23239 -0.15437,-0.3632 -0.12378,-0.12379 -0.19013,-0.15437 -0.33495,-0.15437 -0.11189,0 -0.20407,0.0282 -0.24228,0.0743 -0.0535,0.0644 -0.0467,0.084 0.0502,0.14756 0.0615,0.0403 0.22467,0.16903 0.36258,0.28611 0.13793,0.11704 0.26612,0.21413 0.28484,0.21567 0.0186,9.3e-4 0.0341,-0.0912 0.0341,-0.20609 z m 2.23143,-0.0447 0.19759,-0.11743 -0.15323,0.0267 c -0.0843,0.0146 -0.18131,0.0267 -0.21567,0.0267 -0.0343,0 -0.0625,0.0408 -0.0625,0.0908 0,0.11392 -0.004,0.11433 0.23371,-0.0267 z m -10.96881,-0.24992 c 0.0523,-0.0847 -0.0805,-0.1766 -0.38728,-0.26797 -0.16835,-0.0502 -0.31744,-0.0911 -0.3313,-0.0911 -0.0716,0 0.10285,0.30219 0.25264,0.43773 l 0.17226,0.15586 0.13284,-0.0946 c 0.0731,-0.052 0.14546,-0.11501 0.16087,-0.13987 z m 8.87359,-0.0625 c 0,-0.1142 -0.1119,-0.20592 -0.25121,-0.20592 -0.06,0 -0.049,0.032 0.0538,0.15565 0.15575,0.18742 0.19743,0.19805 0.19743,0.0503 z m -7.99509,-0.23371 c 0.16014,-0.34217 0.16844,-0.4348 0.0576,-0.64256 l -0.0791,-0.14822 -0.16614,0.21784 c -0.22027,0.28885 -0.27694,0.4418 -0.21107,0.56966 0.0456,0.0888 0.22093,0.30351 0.24767,0.30351 0.006,0 0.0738,-0.13515 0.15097,-0.30023 z m 7.54758,-0.299 c 0.10176,-0.16035 -0.0367,-0.3546 -0.25193,-0.35355 -0.24412,9.3e-4 -0.35224,0.16162 -0.23231,0.34466 0.0582,0.089 0.099,0.10257 0.25796,0.0867 0.10379,-0.0108 0.20568,-0.0454 0.22628,-0.0779 z m 0.61775,0.009 c 0.1602,-0.0977 0.19855,-0.26489 0.0829,-0.36095 -0.0532,-0.0442 -0.0831,-0.0149 -0.16795,0.16471 -0.0567,0.12014 -0.11108,0.23375 -0.12067,0.25247 -0.0306,0.0596 0.0535,0.0367 0.20577,-0.0562 z m 2.5539,-0.57071 c 0,-0.2394 -0.004,-0.24702 -0.12487,-0.24634 -0.25127,9.2e-4 -0.27136,0.0626 -0.10189,0.31095 0.0852,0.12473 0.17098,0.21685 0.19075,0.20464 0.0199,-0.0121 0.0359,-0.13338 0.0359,-0.26925 z m 0.61078,-0.29973 c 0.13908,-0.0634 0.1574,-0.21972 0.0258,-0.21972 -0.0802,0 -0.44416,0.12312 -0.49903,0.16875 -0.0414,0.0343 0.11351,0.1023 0.2349,0.10298 0.0675,2.3e-4 0.17476,-0.023 0.23836,-0.052 z m -0.84534,-0.0779 c 0.0488,-0.0309 0.0399,-0.0817 -0.0455,-0.26035 -0.0852,-0.17825 -0.12838,-0.22198 -0.21949,-0.22198 -0.14997,0 -0.17163,0.17265 -0.047,0.37456 0.0902,0.14603 0.19457,0.18213 0.31188,0.10785 z"
         id="path37" />
      <circle
         style="fill:none;stroke:#ff0000;stroke-width:0.1;stroke-dasharray:none"
         id="path788-8-1-8-1-9-2-2-9-1-6-9-1"
         cx="798.51868"
         cy="-204.49261"
         r="19.954653" />
      <circle
         style="fill:none;stroke:#0000ff;stroke-width:0.1;stroke-linecap:round;stroke-dasharray:none;stroke-opacity:1;paint-order:markers stroke fill"
         id="path13019-1-33-4-5-5-2-4-6"
         cx="798.51868"
         cy="-219.5036"
         r="2" />
    </g>
  </g>
</svg>
