<?xml version="1.0" encoding="UTF-8" standalone="no"?>
<!-- Created with Inkscape (http://www.inkscape.org/) -->

<svg
   width="41.008999mm"
   height="41.008999mm"
   viewBox="0 0 41.008999 41.008999"
   version="1.1"
   id="svg1"
   inkscape:version="1.4.2 (f4327f4, 2025-05-13)"
   sodipodi:docname="295.svg"
   xmlns:inkscape="http://www.inkscape.org/namespaces/inkscape"
   xmlns:sodipodi="http://sodipodi.sourceforge.net/DTD/sodipodi-0.dtd"
   xmlns="http://www.w3.org/2000/svg"
   xmlns:svg="http://www.w3.org/2000/svg">
  <sodipodi:namedview
     id="namedview1"
     pagecolor="#ffffff"
     bordercolor="#000000"
     borderopacity="0.25"
     inkscape:showpageshadow="2"
     inkscape:pageopacity="0.0"
     inkscape:pagecheckerboard="0"
     inkscape:deskcolor="#d1d1d1"
     inkscape:document-units="mm"
     inkscape:zoom="1.4513545"
     inkscape:cx="86.470947"
     inkscape:cy="-62.700049"
     inkscape:window-width="1050"
     inkscape:window-height="1081"
     inkscape:window-x="857"
     inkscape:window-y="0"
     inkscape:window-maximized="0"
     inkscape:current-layer="layer1" />
  <defs
     id="defs1" />
  <g
     inkscape:label="Layer 1"
     inkscape:groupmode="layer"
     id="layer1"
     transform="translate(333.37504,1257.5646)">
    <g
       id="g63"
       transform="translate(-1111.3892,-1082.5109)">
      <ellipse
         style="fill:none;stroke:#ff00ff;stroke-width:0.1;stroke-dasharray:none;stroke-opacity:1"
         id="path1138-9-4-0-0-1-2-8-1-8-1-17-4-7"
         cx="798.51862"
         cy="-154.54919"
         rx="18.492125"
         ry="18.492126" />
      <circle
         style="fill:none;stroke:#ff0000;stroke-width:0.1;stroke-dasharray:none"
         id="path788-8-1-8-1-9-2-2-9-1-6-9-9-0-0-3"
         cx="798.51862"
         cy="-154.54919"
         r="19.954653" />
      <circle
         style="fill:none;stroke:#0000ff;stroke-width:0.1;stroke-linecap:round;stroke-dasharray:none;stroke-opacity:1;paint-order:markers stroke fill"
         id="path13019-1-33-4-5-5-2-4-30-1-9-1"
         cx="798.51862"
         cy="-169.56017"
         r="2" />
      <path
         d="m 795.81092,-138.46061 c -1.27891,-0.27347 -2.74027,-1.23037 -3.67467,-2.40621 -0.49028,-0.61698 -1.04001,-1.74037 -1.26261,-2.58023 -0.14004,-0.52844 -0.17359,-0.80557 -0.18065,-1.49255 -0.005,-0.46399 0.0147,-0.98024 0.0433,-1.14723 0.0507,-0.29647 0.0478,-0.30411 -0.12325,-0.32447 -0.44327,-0.0528 -0.35922,-0.4563 0.21382,-1.02657 l 0.424,-0.42194 -0.0335,-0.64893 c -0.0299,-0.58013 -0.28198,-1.7921 -0.37023,-1.78007 -0.0181,0.002 -0.1983,0.22879 -0.40025,0.50292 -0.56713,0.76975 -1.47082,1.7542 -2.11987,2.3093 -0.32377,0.27691 -0.72062,0.65789 -0.88185,0.84664 -0.34441,0.40312 -0.6273,0.55472 -1.03515,0.55472 -0.23877,0 -0.34068,-0.0391 -0.52559,-0.20141 -0.45207,-0.39692 -0.22618,-0.82759 0.57368,-1.09377 0.47283,-0.15734 0.97111,-0.53659 1.64091,-1.24889 0.32367,-0.34422 1.35366,-1.84341 1.9111,-2.78173 0.14927,-0.25127 0.40192,-0.602 0.56141,-0.77942 0.4368,-0.48581 0.69482,-0.61408 1.81331,-0.90149 0.15008,-0.0386 0.31799,-0.11523 0.37315,-0.17038 0.19972,-0.19973 0.11775,-0.26818 -0.41443,-0.346 -1.0572,-0.15458 -2.12261,-0.55621 -2.82255,-1.06401 -0.29668,-0.21522 -0.4266,-0.24845 -0.4266,-0.10912 0,0.0312 0.0803,0.066 0.17846,0.0773 0.12645,0.0145 0.18439,0.0622 0.19879,0.16341 0.0194,0.13586 -0.0812,0.25851 -0.4067,0.49603 -0.12349,0.0901 -0.12156,0.0985 0.0743,0.32162 l 0.20114,0.22909 -0.023,0.83722 c -0.0184,0.6706 -0.0555,0.93968 -0.18646,1.352 -0.396,1.24709 -1.28537,2.09653 -3.05494,2.91785 -1.22182,0.56709 -1.89572,1.11994 -2.21486,1.81708 -0.0893,0.19516 -0.20299,0.35484 -0.25253,0.35484 -0.10491,0 -0.26265,-0.48637 -0.35966,-1.10881 -0.13104,-0.84085 0.11842,-1.92529 0.61496,-2.67338 0.36098,-0.54382 0.79707,-0.8911 1.78726,-1.42326 0.70773,-0.38037 0.97059,-0.56309 1.34531,-0.93517 0.376,-0.37333 0.48544,-0.52878 0.56796,-0.80672 0.15076,-0.50769 0.14073,-0.53829 -0.22761,-0.69391 -0.3807,-0.16085 -0.41013,-0.31343 -0.0902,-0.468 l 0.19641,-0.0949 -0.29846,-0.4966 c -0.32839,-0.54637 -0.60213,-1.29968 -0.70686,-1.94524 -0.11812,-0.72805 -0.0855,-2.54679 0.061,-3.40389 0.29704,-1.73748 0.98036,-3.18813 1.98271,-4.20911 1.3322,-1.35697 3.06609,-1.9878 5.46357,-1.9878 1.73309,0 3.09309,0.37434 4.3155,1.18786 2.00381,1.33353 2.93173,3.39976 2.818,6.27489 -0.0799,2.01941 -0.46871,3.30017 -1.3516,4.45207 -0.17293,0.22563 -0.31443,0.4259 -0.31443,0.44504 0,0.0191 0.0685,0.0348 0.15216,0.0348 0.0837,0 0.20659,0.0601 0.27308,0.13359 0.16715,0.18469 0.0612,0.33384 -0.3017,0.42459 -0.24794,0.062 -0.28323,0.0921 -0.26653,0.22713 0.0105,0.0856 0.0286,0.30902 0.0399,0.49647 0.015,0.24446 0.0722,0.41509 0.20276,0.60356 0.31301,0.45168 0.91988,0.9554 1.5743,1.30673 1.15563,0.62042 1.74023,1.37662 1.90603,2.46565 0.064,0.42395 0.059,0.58359 -0.035,1.0653 -0.1236,0.62918 -0.5002,1.51846 -0.643,1.51846 -0.058,0 -0.134,-0.15539 -0.2067,-0.42368 -0.22503,-0.83154 -0.80979,-1.51579 -1.97383,-2.30968 -0.99784,-0.68057 -1.39155,-1.0419 -1.7841,-1.63746 -0.51224,-0.77714 -0.64255,-1.1692 -0.6503,-1.9563 -0.003,-0.35691 -0.0254,-0.66353 -0.0486,-0.68138 -0.0482,-0.0371 -0.0741,-0.17616 -0.0628,-0.33843 0.004,-0.0612 0.0942,-0.20985 0.19996,-0.3303 l 0.19227,-0.21898 -0.22724,-0.22026 c -0.24998,-0.24229 -0.27092,-0.43753 -0.0585,-0.54519 0.075,-0.038 0.12161,-0.11522 0.1088,-0.18008 -0.0123,-0.0625 -0.0332,-0.11357 -0.0464,-0.11357 -0.0132,0 -0.2111,0.11735 -0.43983,0.26076 -0.53402,0.33484 -1.34632,0.65992 -2.10623,0.8429 -0.33016,0.0795 -0.60027,0.16919 -0.60027,0.1993 0,0.14141 0.31963,0.32135 0.80143,0.45117 0.97577,0.26293 1.25332,0.47068 1.62779,1.21846 0.0948,0.18942 0.42463,0.71505 0.73284,1.16808 0.30822,0.45303 0.73469,1.08651 0.94776,1.40773 0.57009,0.85957 1.44982,1.7347 1.99762,1.9872 0.56053,0.25836 0.79724,0.4997 0.79724,0.81283 0,0.18151 -0.0428,0.26913 -0.18807,0.38496 -0.48121,0.38371 -1.20029,0.18087 -1.6245,-0.45826 -0.12653,-0.19063 -0.39378,-0.48646 -0.59386,-0.6574 -0.52,-0.44425 -1.41539,-1.47256 -2.18217,-2.50607 -0.73681,-0.99317 -0.67863,-0.98276 -0.82341,-0.1473 -0.0433,0.24984 -0.0683,0.76173 -0.0556,1.13753 0.0226,0.66722 0.0286,0.69085 0.25827,1.00585 0.41656,0.57132 0.61231,1.07577 0.47189,1.21618 -0.0787,0.0786 -0.0498,4.86654 0.0322,5.33966 0.10482,0.6051 0.42043,1.17875 0.7396,1.34439 0.20315,0.10543 0.27119,0.11225 0.46885,0.047 0.18927,-0.0625 0.22369,-0.1 0.18979,-0.20683 -0.48244,-1.51997 -0.50633,-2.33773 -0.094,-3.21874 0.24647,-0.52671 1.18744,-1.48402 1.81508,-1.84658 0.50929,-0.29421 0.59587,-0.24892 0.39902,0.2087 -0.1762,0.40961 -0.18934,0.97399 -0.0385,1.65211 0.10912,0.49054 0.10883,1.37497 0,1.70786 l -0.0479,0.14567 0.31571,-0.14567 c 0.29118,-0.13434 0.40913,-0.14567 1.51626,-0.14567 h 1.20052 l 0.3722,-0.21091 c 0.2047,-0.11599 0.3872,-0.2109 0.40561,-0.2109 0.018,0 0.033,0.0714 0.033,0.15874 0,0.21574 -0.433,1.03706 -0.7944,1.50656 -0.9321,1.21136 -1.86932,1.55219 -3.6024,1.31002 -0.46201,-0.0646 -0.55117,-0.0611 -0.64893,0.025 -0.20271,0.17847 -0.78292,0.43779 -1.19909,0.53591 -0.51295,0.12094 -1.43844,0.11644 -2.02916,-0.01 z m 1.63387,-0.15565 c 0.53046,-0.0718 1.23813,-0.3525 1.49416,-0.59276 0.13546,-0.12711 0.17103,-0.13017 0.68138,-0.0585 0.29613,0.0416 0.63723,0.088 0.75795,0.10307 0.36666,0.0459 1.17506,-0.087 1.52595,-0.25073 0.59042,-0.27552 1.18353,-0.90108 1.66512,-1.75626 0.1825,-0.32395 0.19681,-0.37656 0.09,-0.33157 -0.44,0.186 -0.7894,0.22536 -1.65248,0.1861 -0.98769,-0.0449 -1.32736,0.0201 -1.82532,0.34968 -0.35677,0.2361 -0.42647,0.13567 -0.21955,-0.31631 0.23941,-0.52294 0.26734,-0.99727 0.10513,-1.78434 -0.14962,-0.72596 -0.16872,-1.10904 -0.0721,-1.44604 0.0351,-0.12232 0.051,-0.23513 0.0355,-0.25069 -0.0566,-0.0566 -0.67691,0.45136 -1.10441,0.90455 -0.27313,0.28952 -0.51482,0.6261 -0.64133,0.89308 -0.19101,0.40311 -0.20264,0.47065 -0.19672,1.14227 0.005,0.58378 0.039,0.82024 0.18583,1.29787 0.0988,0.32123 0.19389,0.63373 0.21138,0.69446 0.0216,0.0747 -0.0386,0.15335 -0.18584,0.24311 -0.42807,0.26097 -0.96832,0.11493 -1.2802,-0.34608 -0.46944,-0.69392 -0.5416,-1.25228 -0.5157,-3.9902 0.011,-1.16448 -0.002,-2.17564 -0.0285,-2.24703 -0.0416,-0.11119 -0.43466,-0.4218 -0.53377,-0.4218 -0.0184,0 -0.0334,0.0983 -0.0334,0.21837 0,0.12267 -0.059,0.29332 -0.1345,0.38936 -0.22413,0.28492 -0.52546,0.20909 -0.80521,-0.20261 -0.12636,-0.18593 -0.16382,-0.21136 -0.16492,-0.11194 -0.003,0.23216 -0.24772,0.67826 -0.4145,0.75425 -0.22008,0.10027 -0.4714,-0.0653 -0.61371,-0.4043 -0.0583,-0.13885 -0.12227,-0.25275 -0.14218,-0.25311 -0.0199,-2.5e-4 -0.0882,0.11715 -0.15168,0.26114 -0.27847,0.63116 -0.70955,0.56387 -0.94261,-0.14715 l -0.0794,-0.24227 -0.20912,0.27416 c -0.41597,0.54538 -0.80622,0.45291 -0.86954,-0.20602 -0.0316,-0.32944 -0.1232,-0.41711 -0.25977,-0.24877 -0.11807,0.14553 -0.22952,0.84729 -0.22932,1.44389 2.4e-4,1.01378 0.2891,2.09264 0.84448,3.15505 0.87273,1.66943 2.79357,3.07471 4.50644,3.29687 0.59313,0.0769 0.64191,0.077 1.20208,0.001 z m -4.8663,-2.69474 c -0.24312,-0.24314 -0.53247,-1.25639 -0.38482,-1.34765 0.0321,-0.0198 0.20208,0.0101 0.37771,0.0666 0.38882,0.12507 1.55011,0.14009 1.97411,0.0255 0.16062,-0.0434 0.4895,-0.16887 0.73087,-0.27882 0.24139,-0.10995 0.45953,-0.17924 0.48479,-0.15399 0.0252,0.0253 0.057,0.24265 0.0706,0.48309 0.0441,0.77972 -0.2461,1.1594 -0.73116,0.95673 -0.11957,-0.05 -0.24546,-0.14099 -0.27975,-0.20229 -0.0537,-0.0959 -0.0722,-0.0833 -0.13281,0.0906 -0.0979,0.28092 -0.3629,0.52783 -0.5664,0.52783 -0.16558,0 -0.48051,-0.25072 -0.5714,-0.45487 -0.0381,-0.0857 -0.0479,-0.0857 -0.0861,0 -0.0872,0.19589 -0.40579,0.45487 -0.55957,0.45487 -0.0871,0 -0.23384,-0.0754 -0.32606,-0.16767 z m 0.68761,-0.48126 c 0.0994,-0.1963 0.20788,-0.35691 0.24109,-0.35691 0.0332,0 0.14169,0.16061 0.24108,0.35691 0.15857,0.31315 0.2046,0.35691 0.37541,0.35691 0.15888,0 0.21434,-0.0418 0.30158,-0.22712 0.0588,-0.12492 0.12525,-0.33371 0.14772,-0.46397 l 0.0408,-0.23684 -0.27752,0.0642 c -0.28581,0.0662 -1.52692,0.0335 -1.78619,-0.047 -0.13585,-0.0422 -0.14318,-0.0303 -0.10644,0.17313 0.0216,0.12015 0.098,0.34417 0.16965,0.49783 0.11083,0.23786 0.1556,0.27644 0.30114,0.25957 0.13411,-0.0155 0.20985,-0.0967 0.35164,-0.37672 z m 2.25052,-0.0606 c 0.0765,-0.14302 0.0926,-0.87062 0.0184,-0.83592 -0.0268,0.0125 -0.20201,0.0802 -0.38937,0.15043 -0.36902,0.13826 -0.37047,0.14023 -0.27841,0.38239 0.145,0.38135 0.51495,0.55406 0.64926,0.3031 z m -2.87206,-1.56273 c -0.0915,-0.0719 -0.20021,-0.23359 -0.24166,-0.35922 l -0.0754,-0.22843 -0.25397,0.22944 c -0.31758,0.28691 -0.57377,0.30539 -0.77031,0.0556 -0.1201,-0.15271 -0.1345,-0.24556 -0.11826,-0.7625 0.0213,-0.67901 0.003,-0.66763 0.66744,-0.42014 0.3072,0.11448 0.5674,0.1509 1.23298,0.17258 0.99214,0.0323 1.94978,-0.12939 2.59346,-0.43794 0.21292,-0.10206 0.40803,-0.17261 0.43363,-0.15679 0.0856,0.0529 0.19627,0.70416 0.17434,1.02587 -0.0174,0.25483 -0.0559,0.34343 -0.19433,0.44639 -0.14895,0.11079 -0.20222,0.11816 -0.38752,0.0536 -0.11817,-0.0412 -0.29331,-0.15007 -0.38924,-0.24197 l -0.17438,-0.16708 -0.13215,0.29877 c -0.22305,0.50424 -0.62808,0.55104 -1.03498,0.11959 -0.20809,-0.22062 -0.22545,-0.22715 -0.29011,-0.10913 -0.0378,0.0691 -0.17727,0.23505 -0.30989,0.3689 -0.27524,0.2778 -0.4795,0.30931 -0.72965,0.11254 z m 0.63284,-0.33211 c 0.0941,-0.11184 0.22651,-0.31197 0.29425,-0.44472 l 0.12312,-0.24138 -0.69405,-0.0376 c -0.42134,-0.0228 -0.85981,-0.09 -1.11586,-0.17093 -0.232,-0.0733 -0.44713,-0.13369 -0.47806,-0.13415 -0.10439,-0.001 -0.0101,0.8367 0.10733,0.95413 0.10304,0.10304 0.12065,0.1017 0.28891,-0.0221 0.0985,-0.0725 0.24974,-0.23907 0.33604,-0.37012 0.0863,-0.13104 0.19233,-0.23826 0.23564,-0.23826 0.0433,0 0.11334,0.13871 0.15561,0.30824 0.15729,0.63117 0.42864,0.77534 0.74708,0.39692 z m 1.4917,-0.17921 c 0.0534,-0.10332 0.11704,-0.31231 0.14138,-0.46441 0.0429,-0.26839 0.0396,-0.2753 -0.11172,-0.23429 -0.0857,0.0232 -0.34884,0.0608 -0.58467,0.0835 l -0.42873,0.0412 0.15869,0.2839 c 0.28135,0.50341 0.64805,0.63232 0.82506,0.29004 z m 1.2693,-0.16947 c 0.0553,-0.0666 0.0674,-0.20125 0.038,-0.4226 -0.0705,-0.53159 -0.0587,-0.52403 -0.52696,-0.33826 l -0.41546,0.16483 0.1113,0.19129 c 0.14395,0.24735 0.44609,0.50251 0.59507,0.50251 0.0643,0 0.15336,-0.044 0.198,-0.0978 z m -2.81658,-1.86193 c 0.0591,-0.11417 0.1575,-0.35509 0.21878,-0.53538 0.0613,-0.18028 0.14842,-0.32779 0.19367,-0.32779 0.0452,0 0.13436,0.16849 0.19808,0.37441 0.13687,0.44231 0.29043,0.69633 0.42096,0.69633 0.13782,0 0.29064,-0.33954 0.34357,-0.76334 0.062,-0.49676 0.18572,-0.51263 0.42421,-0.0544 0.10096,0.19396 0.24245,0.40595 0.31444,0.47109 0.12739,0.11528 0.13435,0.11413 0.26192,-0.0432 0.1088,-0.13423 0.12533,-0.22502 0.0973,-0.53479 -0.0186,-0.20688 -0.006,-0.39018 0.0283,-0.41142 0.0341,-0.0211 0.20529,0.0957 0.38041,0.25955 0.17514,0.16382 0.34889,0.29786 0.38612,0.29786 0.12645,0 0.0671,-0.29094 -0.12577,-0.61649 -0.31122,-0.52527 -0.36025,-0.5724 -0.51148,-0.49146 -0.0724,0.0387 -0.38868,0.13464 -0.70294,0.21318 -0.47738,0.1193 -0.75821,0.14315 -1.70703,0.14494 -1.07262,0.002 -1.16268,-0.008 -1.62235,-0.17281 l -0.48671,-0.17495 -0.37312,0.3801 c -0.54702,0.55722 -0.47633,0.73859 0.17846,0.45792 0.39847,-0.17082 0.42168,-0.16637 0.42251,0.0811 0.003,0.90793 0.28255,0.99046 0.69177,0.2043 0.22278,-0.42797 0.35488,-0.43585 0.42373,-0.0253 0.0638,0.3806 0.24369,0.77816 0.35208,0.77816 0.0472,0 0.13411,-0.0934 0.19314,-0.20757 z m 7.91264,-0.2217 c 0.20004,-0.13106 0.20583,-0.34958 0.014,-0.52585 -0.0803,-0.0738 -0.35041,-0.23721 -0.60027,-0.36318 -0.59847,-0.30177 -1.42017,-1.13504 -2.05954,-2.08861 -0.26325,-0.3926 -0.70231,-1.04134 -0.97565,-1.44163 -0.27337,-0.4003 -0.57432,-0.88214 -0.66874,-1.07075 -0.36621,-0.73133 -0.5104,-0.84032 -1.48576,-1.12296 -0.70296,-0.20371 -0.85757,-0.3054 -0.95406,-0.62745 -0.0834,-0.2782 -0.0254,-0.37399 0.22766,-0.3761 0.0654,-4.9e-4 0.34803,-0.0595 0.62798,-0.13096 1.80007,-0.4596 3.47567,-1.71963 4.15626,-3.12548 l 0.14657,-0.3028 -0.17461,-0.35687 c -0.26155,-0.53459 -0.84308,-1.0399 -1.72967,-1.50298 -0.95745,-0.50008 -1.67637,-1.17389 -2.01715,-1.89057 l -0.21988,-0.4624 -0.36373,0.33672 c -0.71574,0.66253 -1.76777,1.09249 -3.33519,1.36306 -1.08833,0.18788 -1.62642,0.34234 -2.22065,0.63747 -0.73906,0.36705 -1.31113,0.99189 -1.55004,1.69307 -0.10156,0.29809 -0.10051,0.30608 0.0941,0.72189 0.75878,1.62149 2.24346,2.67146 4.18249,2.95787 0.25714,0.038 0.56244,0.0832 0.67843,0.10041 0.2336,0.0347 0.26006,0.12467 0.139,0.47201 -0.0879,0.25209 -0.26442,0.34792 -0.97096,0.52707 -0.30084,0.0763 -0.66823,0.20919 -0.81639,0.29535 -0.3138,0.18248 -0.72288,0.62801 -0.97084,1.05736 -0.0959,0.16603 -0.53088,0.84211 -0.96665,1.5024 -0.62229,0.94294 -0.90913,1.31218 -1.33685,1.72093 -0.7293,0.69693 -0.943,0.85143 -1.39089,1.00552 -0.53819,0.18517 -0.67867,0.29123 -0.67867,0.51233 0,0.14949 0.0456,0.20743 0.23342,0.29656 0.48933,0.23219 0.55158,0.18731 2.75434,-1.98582 0.59429,-0.58629 1.48612,-1.66449 1.86246,-2.25166 0.51447,-0.80273 1.67255,-1.09451 2.54585,-0.64143 0.32618,0.16923 0.33192,0.16981 0.45539,0.0463 0.25908,-0.25905 0.62494,-0.39 1.0897,-0.39 0.85377,0 1.11944,0.17251 1.80531,1.17223 0.69462,1.01249 1.51636,2.00606 2.34254,2.83238 0.47141,0.47151 0.90281,0.94562 0.95863,1.05358 0.19739,0.38169 0.8352,0.57375 1.17218,0.35295 z m -7.7895,-8.81755 c -0.27922,-0.098 -0.68138,-0.50278 -0.68138,-0.68576 0,-0.15494 0.17633,-0.20832 0.27531,-0.0833 0.3031,0.38266 0.4531,0.47658 0.76108,0.47658 0.35609,0 0.58843,-0.14694 0.71481,-0.45205 0.0829,-0.20023 0.28871,-0.26959 0.34343,-0.11576 0.0377,0.10611 -0.16289,0.50279 -0.33131,0.6551 -0.13826,0.12504 -0.55742,0.29638 -0.72504,0.29638 -0.0535,0 -0.21414,-0.041 -0.35691,-0.0911 z m -3.11914,-1.4914 c -0.0883,-0.0883 -0.17845,-0.24996 -0.20029,-0.35922 -0.0218,-0.10925 -0.10159,-0.23037 -0.17718,-0.26916 -0.17394,-0.0892 -0.49436,-0.38599 -0.49436,-0.45783 0,-0.0299 0.0803,-0.014 0.17846,0.0355 0.26,0.13098 0.53539,0.18723 0.53539,0.10935 0,-0.0364 -0.0218,-0.067 -0.0487,-0.0682 -0.07,-0.003 -0.24853,-0.26319 -0.3068,-0.44727 -0.0484,-0.15278 -0.0428,-0.15155 0.19337,0.0432 0.21986,0.18122 0.27506,0.19721 0.57579,0.16681 0.29542,-0.0299 0.34975,-0.0152 0.48612,0.13127 0.202,0.21697 0.25547,0.66276 0.1126,0.93902 -0.19089,0.36914 -0.58119,0.4498 -0.85441,0.17657 z m 6.27361,-0.12312 c -0.47361,-0.26722 -0.43128,-1.07692 0.0703,-1.34537 0.097,-0.0519 0.20809,-0.0496 0.41607,0.009 0.26803,0.075 0.29643,0.0698 0.51161,-0.0943 0.28686,-0.2188 0.30189,-0.0919 0.0284,0.23986 -0.18073,0.21927 -0.18721,0.24191 -0.0691,0.24191 0.0716,0 0.20923,-0.03 0.30575,-0.0667 0.0965,-0.0367 0.19069,-0.0515 0.20931,-0.0328 0.0617,0.0617 -0.19678,0.2913 -0.41809,0.37132 -0.13629,0.0493 -0.21782,0.12209 -0.21782,0.1945 0,0.16107 -0.32363,0.49553 -0.51915,0.53651 -0.0892,0.0187 -0.23203,-0.005 -0.31733,-0.0535 z m 6.18862,9.46179 c 0.1877,-0.72054 0.099,-1.53181 -0.2399,-2.19728 -0.241,-0.47316 -0.7316,-0.91319 -1.46544,-1.31439 -0.7279,-0.39795 -1.34855,-0.91689 -1.67125,-1.39735 -0.10271,-0.15297 -0.2926,-0.39656 -0.42195,-0.54132 -0.12936,-0.14476 -0.2645,-0.31557 -0.30031,-0.37958 -0.0621,-0.11094 -0.0774,-0.11014 -0.32673,0.0171 -0.3162,0.16132 -0.34253,0.22171 -0.34253,0.7864 0,1.24147 0.68803,2.25989 2.30031,3.40503 1.0778,0.76551 1.61859,1.33006 1.92,2.00435 l 0.2249,0.50327 0.112,-0.25319 c 0.062,-0.13926 0.1565,-0.42412 0.2109,-0.63303 z m -18.88712,0.19929 c 0.16999,-0.31567 0.77354,-0.87383 1.23765,-1.14456 0.21416,-0.12492 0.72519,-0.39002 1.13566,-0.58911 0.41043,-0.19909 0.92639,-0.48269 1.14657,-0.63022 0.48607,-0.32573 1.03991,-0.91177 1.3134,-1.38976 0.34232,-0.59832 0.55676,-1.72127 0.42343,-2.21737 -0.0194,-0.0717 -0.15474,-0.19923 -0.30101,-0.28342 l -0.26597,-0.15307 -0.28208,0.30722 c -0.20804,0.22658 -0.3164,0.29825 -0.41279,0.27305 -0.0885,-0.0232 -0.15373,0.009 -0.20205,0.0991 -0.25162,0.47016 -0.86996,0.94996 -2.03507,1.57909 -0.80389,0.43407 -1.37647,0.94747 -1.67336,1.50038 -0.2361,0.43969 -0.4366,1.23857 -0.4366,1.73944 0,0.42156 0.11878,1.13608 0.18888,1.13608 0.0226,0 0.0961,-0.10209 0.16335,-0.22686 z m 10.27773,-0.55614 c 0.4035,-0.0378 0.9583,-0.1326 1.23288,-0.21068 l 0.49922,-0.14196 7e-5,-0.76235 c 5e-5,-0.41929 -0.0145,-0.76137 -0.0323,-0.76018 -0.0179,10e-4 -0.20767,0.0445 -0.42181,0.0962 -0.46738,0.11286 -1.07226,0.11552 -1.42765,0.006 -0.22205,-0.0682 -0.29712,-0.0635 -0.51916,0.033 -0.44509,0.19335 -1.08487,0.27427 -1.53773,0.1945 -0.2203,-0.0388 -0.41342,-0.0577 -0.42917,-0.0419 -0.0157,0.0158 -0.003,0.31456 0.0282,0.66403 l 0.0568,0.63538 0.34451,0.11427 c 0.29882,0.0991 0.92639,0.20859 1.34274,0.23421 0.0714,0.004 0.45992,-0.0229 0.86347,-0.0607 z m -0.78464,-1.94061 c 0.31107,-0.13395 0.36616,-0.13909 0.68118,-0.0635 0.18851,0.0452 0.50726,0.0807 0.70831,0.0788 0.40812,-0.004 1.04449,-0.16692 1.14076,-0.29233 0.0345,-0.045 0.0987,-0.32597 0.14274,-0.62443 0.0779,-0.52837 0.0761,-0.54677 -0.0667,-0.69878 -0.16306,-0.17354 -0.67424,-0.34845 -1.0184,-0.34845 -0.37833,0 -0.72163,0.14089 -0.98495,0.4042 l -0.25162,0.25162 -0.26496,-0.19194 c -0.53478,-0.38739 -1.29214,-0.4031 -1.92252,-0.0399 -0.44671,0.2574 -0.45456,0.28223 -0.28665,0.90709 0.0813,0.30253 0.18567,0.58145 0.2319,0.61983 0.28375,0.23549 1.34181,0.23426 1.89089,-0.002 z m 5.73223,-3.72392 c -0.0393,-0.11918 -0.0538,-0.26291 -0.0321,-0.31941 0.0421,-0.10977 0.34978,-0.24029 0.57407,-0.24353 0.19634,-0.003 0.0103,-0.0989 -0.29944,-0.15446 -0.2893,-0.0519 -0.31386,-0.0862 -0.36999,-0.5153 l -0.0437,-0.33412 -0.14877,0.2843 -0.14874,0.28429 -0.39113,-0.0355 -0.39113,-0.0355 0.2021,0.20852 c 0.25219,0.26019 0.25358,0.38612 0.007,0.6665 -0.17201,0.1959 -0.24546,0.347 -0.16868,0.347 0.0142,0 0.17856,-0.0707 0.36504,-0.15708 0.18647,-0.0864 0.37676,-0.14261 0.42283,-0.12492 0.0461,0.0177 0.16547,0.15408 0.26526,0.30309 0.137,0.20459 0.18719,0.24299 0.20494,0.15684 0.013,-0.0627 -0.009,-0.2116 -0.048,-0.33079 z m -10.93389,-0.10563 c 0.105,-0.14216 0.24121,-0.27528 0.30264,-0.29581 0.0626,-0.0209 0.24217,0.0391 0.40851,0.13658 0.16323,0.0956 0.31103,0.15967 0.32842,0.14227 0.0174,-0.0174 -0.0715,-0.15512 -0.19762,-0.30604 -0.12609,-0.15093 -0.22925,-0.30373 -0.22925,-0.33957 0,-0.0786 0.37911,-0.44171 0.46114,-0.44171 0.0319,0 0.058,-0.025 0.058,-0.0555 0,-0.0306 -0.14472,-0.0269 -0.32162,0.008 -0.17689,0.035 -0.36226,0.048 -0.41193,0.0289 -0.0497,-0.019 -0.1593,-0.17598 -0.24362,-0.34872 l -0.15333,-0.31408 -0.0372,0.34439 c -0.0383,0.3546 -0.10375,0.43947 -0.38978,0.50522 -0.33765,0.0776 -0.36515,0.10174 -0.19469,0.17088 0.46097,0.18699 0.46964,0.19582 0.42971,0.43789 -0.0208,0.12587 -0.0563,0.30916 -0.0791,0.40731 -0.0585,0.25262 0.0471,0.22129 0.26962,-0.08 z m 11.63814,-1.65587 c 0.48725,-0.68721 0.81603,-1.57039 0.99046,-2.66064 0.12153,-0.75938 0.10491,-2.71728 -0.0293,-3.44913 -0.30901,-1.68554 -1.02127,-2.92338 -2.1711,-3.77323 -1.31194,-0.96964 -2.70846,-1.39899 -4.55912,-1.40166 -2.34971,-0.003 -3.87145,0.54194 -5.20933,1.86686 -0.61381,0.60786 -1.02973,1.23999 -1.41669,2.15307 -0.61986,1.46269 -0.80943,2.49995 -0.75157,4.11265 0.0514,1.43407 0.2553,2.23469 0.79636,3.12769 0.3353,0.55342 0.39878,0.58273 0.4483,0.20698 0.0226,-0.17181 0.0469,-0.35585 0.054,-0.40897 0.0169,-0.12802 0.21931,-0.16233 0.34452,-0.0584 0.0549,0.0456 0.15947,0.20976 0.23239,0.36489 0.0729,0.15514 0.16531,0.27162 0.20532,0.25885 0.04,-0.0128 0.12999,-0.12814 0.19994,-0.25638 l 0.12717,-0.23316 -0.2592,-0.28161 c -0.58607,-0.63669 -1.06591,-1.51754 -1.06591,-1.95663 0,-0.68834 0.7413,-1.59142 1.72749,-2.1045 0.60699,-0.31578 1.13735,-0.46891 2.4215,-0.69914 1.57954,-0.28319 2.44939,-0.66388 3.21121,-1.40542 0.24698,-0.2404 0.47106,-0.42348 0.49797,-0.40685 0.0269,0.0166 0.0967,0.17405 0.15508,0.34984 0.26901,0.80987 1.01917,1.61241 1.96266,2.09972 1.02928,0.53159 1.62347,1.05194 1.95668,1.71352 0.0757,0.15027 0.13698,0.35468 0.13622,0.45426 -0.003,0.41534 -0.68037,1.42072 -1.3692,2.03292 l -0.44827,0.39841 0.14265,0.25385 c 0.0785,0.13961 0.18841,0.25341 0.24429,0.2529 0.0559,-4.9e-4 0.18191,-0.14653 0.28003,-0.32447 0.28064,-0.5088 0.56579,-0.40489 0.56959,0.20757 l 0.002,0.28007 0.19503,-0.22713 c 0.10726,-0.12492 0.27784,-0.34394 0.37906,-0.4867 z m -7.56965,-7.68234 c -0.0333,-0.022 -0.14378,-0.31328 -0.24554,-0.64729 -0.14104,-0.46298 -0.21957,-0.62305 -0.33049,-0.67358 -0.20706,-0.0943 -0.32263,-0.39979 -0.22901,-0.60526 0.1724,-0.37838 0.69366,-0.31676 0.82814,0.0979 0.0396,0.12207 0.15641,0.29108 0.25959,0.37558 0.39861,0.32647 0.38497,0.33413 0.61067,-0.34334 0.17797,-0.53414 0.1958,-0.64489 0.12955,-0.80479 -0.12452,-0.30061 0.0661,-0.58363 0.39449,-0.58557 0.24394,-0.001 0.39221,0.19399 0.37489,0.49423 -0.0118,0.20279 0.32,1.25927 0.43231,1.37702 0.012,0.0125 0.12585,-0.0566 0.25312,-0.15371 0.16844,-0.12848 0.23138,-0.22607 0.23138,-0.35876 0,-0.20232 0.25704,-0.45126 0.46596,-0.45126 0.16629,0 0.44256,0.28486 0.44256,0.4563 0,0.0758 -0.0823,0.22004 -0.18292,0.32065 -0.15187,0.15186 -0.20222,0.29155 -0.29653,0.8224 -0.0625,0.35171 -0.13448,0.66095 -0.16006,0.6872 -0.0256,0.0262 -0.20605,-0.0156 -0.40109,-0.0929 -0.48903,-0.19389 -1.53748,-0.19704 -2.11695,-0.006 -0.21976,0.0723 -0.42681,0.11349 -0.46007,0.0915 z m 0.60007,-0.36576 c 0.50697,-0.12241 1.41843,-0.12211 1.82293,4.9e-4 0.1752,0.0532 0.33743,0.097 0.36049,0.0973 0.0231,5e-4 0.0937,-0.29391 0.15696,-0.65399 0.10186,-0.57993 0.13278,-0.66146 0.2708,-0.71393 0.21875,-0.0832 0.18223,-0.35105 -0.0479,-0.35105 -0.13497,0 -0.16266,0.0315 -0.16482,0.18722 -0.002,0.18374 -0.18773,0.38648 -0.69455,0.76038 l -0.178,0.13131 -0.0634,-0.15009 c -0.43273,-1.02509 -0.57947,-1.49346 -0.50523,-1.61237 0.0635,-0.10165 0.0592,-0.14469 -0.0223,-0.2263 -0.11385,-0.11387 -0.31848,-0.0663 -0.31848,0.0741 0,0.0502 0.0343,0.14616 0.0762,0.21323 0.0623,0.0997 0.0297,0.26081 -0.17845,0.88267 -0.14005,0.41839 -0.29302,0.7758 -0.33997,0.79424 -0.047,0.0184 -0.28616,-0.10368 -0.5316,-0.27138 -0.3757,-0.25672 -0.4494,-0.33754 -0.46624,-0.51149 -0.0167,-0.17176 -0.0474,-0.20659 -0.18223,-0.20659 -0.12874,0 -0.16649,0.0368 -0.18277,0.17846 -0.0162,0.14052 0.006,0.17846 0.1056,0.17846 0.17306,0 0.21804,0.0773 0.42463,0.73005 0.0988,0.3123 0.19982,0.56678 0.22437,0.56551 0.0245,-0.001 0.21986,-0.0446 0.434,-0.0963 z"
         style="fill:#000000;stroke-width:0.1;stroke-dasharray:none"
         id="path1-70" />
      <path
         d="m 809.78144,-145.23305 c -0.16099,-0.18076 -0.2228,-0.20466 -0.4767,-0.18456 l -0.2916,0.0231 0.022,-0.22566 c 0.028,-0.28877 -0.137,-0.54112 -0.4357,-0.66592 -0.2636,-0.11017 -0.2729,-0.1395 -0.1311,-0.41111 0.13751,-0.26369 0.12841,-0.75559 -0.019,-1.04595 l -0.1217,-0.23826 0.3006,-0.28582 0.3007,-0.28581 -0.034,-0.47426 c -0.033,-0.45992 -0.028,-0.47862 0.16071,-0.61824 0.154,-0.11381 0.1947,-0.19732 0.1947,-0.39909 0,-0.29779 -0.15791,-0.55771 -0.3387,-0.55771 -0.07,0 -0.3091,0.20191 -0.53391,0.45082 -0.4189,0.46408 -0.557,0.50584 -0.557,0.16839 0,-0.26692 -0.1838,-0.40268 -0.5791,-0.42761 -0.3744,-0.0235 -0.3668,-0.005 -0.2288,-0.54934 0.077,-0.30342 0.072,-0.33429 -0.077,-0.49252 -0.088,-0.0929 -0.2608,-0.18801 -0.386,-0.21146 -0.27139,-0.051 -0.28139,-0.11382 -0.059,-0.37709 0.2074,-0.24638 0.28549,-0.62202 0.1783,-0.85733 -0.1257,-0.27626 0,-0.30006 0.4373,-0.0849 0.5334,0.26044 0.987,0.36379 0.987,0.22492 0,-0.19423 -0.1325,-0.34001 -0.4213,-0.466 -0.1616,-0.0703 -0.3034,-0.13409 -0.3155,-0.1419 -0.013,-0.008 0.026,-0.15603 0.085,-0.32938 0.2096,-0.61694 0.119,-0.95283 -0.3674,-1.37476 l -0.168,-0.14559 0.2514,-0.2783 c 0.1383,-0.15307 0.2713,-0.35734 0.2955,-0.45392 0.07,-0.28127 -0.022,-0.65534 -0.2377,-0.96152 -0.1109,-0.15634 -0.1845,-0.30005 -0.1652,-0.31935 0.019,-0.0193 0.20169,-0.11665 0.40539,-0.2163 0.4964,-0.24286 0.602,-0.41954 0.6078,-1.01638 v -0.47983 l 0.5251,0.0246 0.5248,0.0246 0.2307,-0.24466 c 0.1272,-0.13449 0.2513,-0.33708 0.276,-0.45003 0.055,-0.2507 0.097,-0.25323 0.4555,-0.0272 0.4791,0.30248 0.6513,0.32257 1.058,0.12355 0.1964,-0.0961 0.3842,-0.15799 0.4173,-0.13753 0.032,0.0204 0.078,0.12882 0.1014,0.24071 0.059,0.29678 0.255,0.4553 0.6316,0.51165 0.1828,0.0274 0.3552,0.0638 0.3832,0.0811 0.028,0.0172 -0.026,0.14388 -0.1189,0.28148 -0.1764,0.25955 -0.217,0.42278 -0.1055,0.42278 0.095,0 0.4469,0.53817 0.5403,0.82489 0.045,0.13542 0.1068,0.48242 0.1391,0.77112 0.068,0.59894 0.1787,0.76578 0.6381,0.95514 0.4537,0.18701 0.4885,0.21176 0.5111,0.36281 0.014,0.0872 -0.034,0.17715 -0.1189,0.23067 -0.077,0.0482 -0.1406,0.13549 -0.1406,0.19388 0,0.29157 -0.3488,0.35568 -0.5193,0.0954 -0.1176,-0.17981 -0.4688,-0.38685 -0.7842,-0.46251 -0.1176,-0.0283 -0.3424,0.0181 -0.6468,0.13315 -0.5548,0.20991 -0.9616,0.19128 -1.4203,-0.065 -0.237,-0.13247 -0.2877,-0.14304 -0.2563,-0.0535 0.1176,0.33635 0.3993,0.57276 1.0704,0.89892 0.7858,0.38187 1.2229,0.7586 1.4746,1.27068 0.1324,0.27052 0.1597,0.43284 0.1612,0.97446 0,0.61372 -0.014,0.6782 -0.25,1.15967 -0.3146,0.63697 -0.8739,1.30769 -1.6099,1.93042 -0.3125,0.26443 -0.6429,0.60744 -0.7341,0.76225 -0.3569,0.60529 -0.2582,1.32841 0.2115,1.55132 0.3559,0.16886 0.7783,0.11287 0.9366,-0.12409 0.085,-0.12868 0.057,-0.39933 -0.057,-0.52447 -0.1675,-0.18503 -0.2965,-0.0919 -0.252,0.18199 0.068,0.41941 -0.1986,0.56565 -0.4935,0.27067 -0.3859,-0.3859 -0.078,-1.04196 0.5158,-1.10273 0.6064,-0.0619 1.0189,0.42795 1.0189,1.21008 0,0.84906 -0.4821,1.29888 -1.421,1.32573 -0.3874,0.0108 -0.546,0.0469 -0.6951,0.15707 -0.2456,0.18168 -0.2634,0.1791 -0.4855,-0.0703 z m 0.3851,-0.12097 c 0.02,-0.0339 -0.092,-0.13819 -0.2513,-0.23179 -0.5947,-0.34975 -0.8931,-0.88862 -0.8931,-1.61276 0,-0.51709 0.063,-0.7281 0.5175,-1.73594 0.421,-0.93338 0.4775,-1.3432 0.2563,-1.85758 -0.084,-0.1952 -0.1663,-0.3549 -0.1829,-0.3549 -0.016,0 -0.1325,0.078 -0.2578,0.17348 l -0.2274,0.17346 0.1555,0.16788 c 0.2836,0.30585 0.2814,0.79741 0,1.06856 -0.1357,0.12868 -0.1611,0.21981 -0.162,0.58142 0,0.45848 -0.1136,0.7587 -0.3454,0.92083 -0.1372,0.0961 -0.138,0.10787 -0.03,0.48117 0.099,0.33807 0.1,0.42078 0.015,0.71033 l -0.096,0.32769 0.2277,0.14931 c 0.166,0.10881 0.2498,0.23214 0.3094,0.45467 0.072,0.2675 0.1041,0.30538 0.2682,0.30538 0.1027,0 0.2722,0.0756 0.3772,0.16804 0.2093,0.18413 0.2659,0.2035 0.3232,0.11071 z m 1.4946,-0.33525 c 0.3368,-0.19438 0.4748,-0.44604 0.5012,-0.91436 0.019,-0.3361 0,-0.47013 -0.1122,-0.64229 -0.2028,-0.323 -0.4367,-0.45309 -0.7195,-0.40006 -0.3628,0.0681 -0.5796,0.48964 -0.3631,0.7061 0.1382,0.13819 0.1837,0.0918 0.1449,-0.1475 -0.031,-0.187 -0.014,-0.24967 0.1217,-0.34038 0.2152,-0.15077 0.3097,-0.14032 0.5059,0.056 0.2256,0.22563 0.2295,0.63773 0.014,0.89474 -0.1284,0.14879 -0.23,0.18974 -0.5275,0.2118 -0.6797,0.0504 -1.0883,-0.30444 -1.1378,-0.9879 -0.041,-0.55425 0.1566,-0.98713 0.6652,-1.46465 0.325,-0.30519 0.429,-0.46232 0.5995,-0.90565 0.29101,-0.75653 0.3814,-1.29104 0.33631,-1.98766 -0.058,-0.90266 -0.56871,-2.16421 -1.174,-2.90289 -0.2622,-0.31993 -0.37301,-0.57374 -0.37301,-0.85408 0,-0.29589 0.11351,-0.30812 0.4062,-0.0438 0.2461,0.22232 0.6243,0.38328 0.9028,0.38417 0.065,2.2e-4 0.325,-0.078 0.5786,-0.17371 0.33281,-0.12571 0.5273,-0.16195 0.6993,-0.13044 0.3298,0.0604 0.8738,0.36652 0.9222,0.51881 0.054,0.17203 0.1356,0.15881 0.1494,-0.0245 0,-0.0827 0.081,-0.20464 0.1676,-0.27079 l 0.1564,-0.1203 -0.1642,-0.001 c -0.2233,-0.003 -0.7642,-0.35907 -0.8991,-0.59344 -0.061,-0.10503 -0.127,-0.41036 -0.1485,-0.67853 -0.099,-1.24964 -0.8694,-1.94256 -2.1685,-1.95088 -1.1641,-0.007 -1.9639,0.73337 -2.3351,2.16344 -0.2206,0.84987 -0.066,2.11855 0.3893,3.19836 0.1632,0.3867 0.1868,0.40976 0.5358,0.52355 0.6018,0.19609 0.8094,0.57617 0.5678,1.03921 -0.096,0.18278 -0.092,0.22034 0.051,0.51058 0.123,0.24857 0.1538,0.42576 0.15179,0.85789 0,0.50939 -0.026,0.59302 -0.3504,1.29345 -0.4081,0.87882 -0.5078,1.21374 -0.5078,1.70642 0,0.59893 0.33871,1.17275 0.8475,1.43585 0.4634,0.2396 1.1893,0.25571 1.5719,0.0349 z m -0.2286,-10.69467 c -0.1408,-0.2632 0.1441,-0.55346 0.4059,-0.41339 0.151,0.0808 0.181,0.33635 0.054,0.46292 -0.1257,0.1249 -0.3817,0.0973 -0.4604,-0.0495 z m 0.9676,5.93724 c 0.1403,-0.2055 0.2552,-0.40021 0.2552,-0.43268 0,-0.0324 -0.1681,-0.0546 -0.3737,-0.0492 -0.3732,0.009 -0.3736,0.009 -0.4132,0.25312 -0.036,0.22235 -0.2536,0.98444 -0.3507,1.23038 -0.065,0.16544 0.6046,-0.59514 0.8824,-1.00162 z m -3.1132,-0.76836 c 0.4803,-0.36998 0.5879,-0.61036 0.3916,-0.87504 -0.1831,-0.24722 -0.4986,-0.34196 -1.1529,-0.34649 -0.4939,-0.004 -0.9869,-0.10706 -1.4697,-0.30897 -0.097,-0.0408 -0.119,-0.0141 -0.119,0.14729 0,0.10841 -0.061,0.3173 -0.1361,0.46417 -0.1634,0.32048 -0.1621,0.30635 -0.028,0.30635 0.059,0 0.201,0.0937 0.3156,0.20826 0.1986,0.19858 0.2063,0.2271 0.166,0.6127 l -0.042,0.40441 h 0.2404 c 0.2433,0 0.5744,0.23986 0.5744,0.41615 0,0.0452 0.1943,-0.0991 0.4316,-0.32026 0.2374,-0.22123 0.6106,-0.54008 0.8293,-0.70857 z m 3.4719,-0.0266 c 0.1014,-0.0737 0.1356,-0.20224 0.1568,-0.57865 0.028,-0.49756 0,-0.54795 -0.2148,-0.38514 -0.069,0.052 -0.2753,0.13071 -0.4594,0.17482 l -0.335,0.0803 v 0.40165 0.40168 h 0.3615 c 0.2012,0 0.4188,-0.0419 0.4909,-0.0948 z m -0.242,-1.09999 c 0.3701,-0.20122 0.3669,-0.19167 0.1858,-0.54892 -0.093,-0.18301 -0.2297,-0.38785 -0.3043,-0.45521 -0.1311,-0.11841 -0.144,-0.11679 -0.3913,0.0511 -0.1406,0.0954 -0.3006,0.17354 -0.3557,0.17354 -0.062,0 -0.085,0.0397 -0.059,0.10463 0.022,0.0576 0.089,0.27484 0.1501,0.48286 l 0.1095,0.37822 0.2463,-0.0462 c 0.1355,-0.0254 0.324,-0.0884 0.4189,-0.13999 z m -3.81,-0.32893 c 0,-0.0142 -0.078,-0.234 -0.1741,-0.48828 -0.4094,-1.08766 -0.5443,-2.24337 -0.3629,-3.1075 0.11351,-0.5378 0.4846,-1.29412 0.8089,-1.6458 0.3498,-0.37964 0.96401,-0.6977 1.46871,-0.76077 0.4346,-0.0543 1.0964,0.0568 1.4678,0.24628 l 0.2505,0.12774 0.1054,-0.16096 c 0.1041,-0.15859 0.1014,-0.16206 -0.1925,-0.23598 -0.3355,-0.0845 -0.4986,-0.21959 -0.5934,-0.49159 l -0.065,-0.18587 -0.2845,0.12922 c -0.3827,0.17372 -0.51391,0.16539 -0.94191,-0.0597 l -0.36479,-0.19192 -0.123,0.25703 c -0.1773,0.37134 -0.48081,0.53526 -0.9905,0.53526 h -0.41741 v 0.30191 c 0,0.53718 -0.2134,0.88731 -0.6899,1.13166 l -0.24739,0.12692 0.16229,0.32053 c 0.232,0.45821 0.218,0.86371 -0.045,1.2769 l -0.20641,0.32533 0.20541,0.23385 c 0.1135,0.12869 0.2252,0.31261 0.2492,0.40887 0.047,0.18787 0,0.80127 -0.077,0.99682 -0.034,0.0853 -0.014,0.11909 0.069,0.11909 0.1586,0 0.57921,0.43188 0.57921,0.59453 0,0.0725 0.02,0.15204 0.046,0.177 0.047,0.0476 0.363,0.0645 0.363,0.0195 z m 3.1393,-0.76094 c 0.1136,-0.0584 0.1933,-0.14261 0.17871,-0.18721 -0.023,-0.0703 -0.82691,-0.51423 -0.9436,-0.5211 -0.023,-0.001 0.053,0.18106 0.1702,0.40541 0.1176,0.22435 0.2523,0.40815 0.301,0.40845 0.049,2.6e-4 0.1809,-0.0472 0.2937,-0.10557 z"
         style="fill:#000000;stroke-width:0.1;stroke-dasharray:none"
         id="path1-69" />
    </g>
  </g>
</svg>
