<?xml version="1.0" encoding="UTF-8" standalone="no"?>
<!-- Created with Inkscape (http://www.inkscape.org/) -->

<svg
   width="41.008999mm"
   height="41.008999mm"
   viewBox="0 0 41.008999 41.008999"
   version="1.1"
   id="svg1"
   inkscape:version="1.4.2 (f4327f4, 2025-05-13)"
   sodipodi:docname="297.svg"
   xmlns:inkscape="http://www.inkscape.org/namespaces/inkscape"
   xmlns:sodipodi="http://sodipodi.sourceforge.net/DTD/sodipodi-0.dtd"
   xmlns="http://www.w3.org/2000/svg"
   xmlns:svg="http://www.w3.org/2000/svg">
  <sodipodi:namedview
     id="namedview1"
     pagecolor="#ffffff"
     bordercolor="#000000"
     borderopacity="0.25"
     inkscape:showpageshadow="2"
     inkscape:pageopacity="0.0"
     inkscape:pagecheckerboard="0"
     inkscape:deskcolor="#d1d1d1"
     inkscape:document-units="mm"
     inkscape:zoom="1.4513545"
     inkscape:cx="86.470947"
     inkscape:cy="-62.700049"
     inkscape:window-width="1050"
     inkscape:window-height="1081"
     inkscape:window-x="857"
     inkscape:window-y="0"
     inkscape:window-maximized="0"
     inkscape:current-layer="layer1" />
  <defs
     id="defs1" />
  <g
     inkscape:label="Layer 1"
     inkscape:groupmode="layer"
     id="layer1"
     transform="translate(333.37504,1257.5646)">
    <g
       id="g61"
       transform="translate(-1195.7887,-1082.4235)">
      <path
         style="fill:#000000;stroke-width:0.0479374"
         d="m 881.35234,-134.75587 c -2.48209,-0.19139 -5.08726,-0.91686 -7.34522,-2.04548 -5.42891,-2.71356 -9.35058,-7.78757 -10.60338,-13.71902 -0.31204,-1.47734 -0.40701,-2.48034 -0.40168,-4.24247 0.003,-1.26051 0.0196,-1.55357 0.12885,-2.37291 0.61334,-4.60464 2.56676,-8.52067 5.86012,-11.74777 3.16438,-3.10072 6.96849,-4.94475 11.42654,-5.53897 0.8233,-0.10973 1.10917,-0.12509 2.39687,-0.12872 0.86477,-0.003 1.68732,0.0202 2.01337,0.0553 3.01835,0.32521 5.73745,1.21702 8.23756,2.70174 2.87323,1.70629 5.24264,4.06283 6.95435,6.91653 0.34125,0.5689 1.05517,1.9556 1.22166,2.3729 0.36929,0.92563 0.46844,1.1899 0.6205,1.65385 0.4631,1.41295 0.77417,2.93306 0.91724,4.48216 0.10198,1.10425 0.0582,3.15705 -0.0909,4.26643 -0.30614,2.27731 -0.84956,4.09651 -1.83263,6.13479 -0.47786,0.9908 -0.84263,1.62978 -1.39637,2.44602 -1.67707,2.47207 -3.8659,4.53758 -6.42317,6.06127 -0.6199,0.36935 -2.07395,1.08277 -2.74343,1.34604 -1.61728,0.636 -3.23935,1.04931 -4.98549,1.27033 -0.8887,0.1125 -3.02164,0.15995 -3.95485,0.088 z m 10.09083,-11.96843 c 1.35368,-0.41516 2.37678,-1.43846 2.78878,-2.78939 l 0.10965,-0.35953 0.0145,-4.60199 c 0.016,-5.06462 0.0208,-4.96728 -0.27852,-5.71664 -0.44555,-1.1156 -1.42662,-1.99801 -2.63443,-2.3695 l -0.35951,-0.11059 -7.98161,-0.0141 c -5.53607,-0.0101 -8.07704,0.002 -8.29318,0.0375 -1.5336,0.25393 -2.78361,1.37934 -3.22128,2.9002 l -0.11035,0.3835 v 4.72184 4.72185 l 0.11065,0.38349 c 0.31899,1.10547 1.01937,1.96639 2.02582,2.49021 0.36007,0.1874 0.86625,0.36052 1.24311,0.42516 0.0659,0.0113 3.74392,0.0178 8.17335,0.0144 l 8.05349,-0.006 z M 879.747,-154.643 c 0.002,-2.55313 0.0181,-3.93086 0.0489,-3.93086 0.0705,0 1.82217,0.88242 4.1451,2.08822 2.8181,1.46284 3.29551,1.72077 3.28231,1.77334 -0.006,0.0249 -0.67185,0.39719 -1.47905,0.82724 -0.80724,0.43004 -1.84521,0.98345 -2.30661,1.22981 -0.46139,0.24635 -1.46918,0.78433 -2.23953,1.19552 -0.77035,0.41119 -1.41233,0.74761 -1.42664,0.74761 -0.0143,0 -0.0253,-1.76889 -0.0245,-3.93088 z"
         id="path5981" />
      <circle
         style="fill:none;stroke:#0000ff;stroke-width:0.1;stroke-linecap:round;stroke-dasharray:none;stroke-opacity:1;paint-order:markers stroke fill"
         id="circle6343"
         cx="882.91815"
         cy="-169.64754"
         r="2" />
      <circle
         style="fill:none;stroke:#ff0000;stroke-width:0.1;stroke-dasharray:none"
         id="circle6345"
         cx="882.91815"
         cy="-154.63657"
         r="19.954653" />
    </g>
  </g>
</svg>
