<?xml version="1.0" encoding="UTF-8" standalone="no"?>
<!-- Created with Inkscape (http://www.inkscape.org/) -->

<svg
   width="41.008999mm"
   height="41.008999mm"
   viewBox="0 0 41.008999 41.008999"
   version="1.1"
   id="svg1"
   inkscape:version="1.4.2 (f4327f4, 2025-05-13)"
   sodipodi:docname="310.svg"
   xmlns:inkscape="http://www.inkscape.org/namespaces/inkscape"
   xmlns:sodipodi="http://sodipodi.sourceforge.net/DTD/sodipodi-0.dtd"
   xmlns="http://www.w3.org/2000/svg"
   xmlns:svg="http://www.w3.org/2000/svg">
  <sodipodi:namedview
     id="namedview1"
     pagecolor="#ffffff"
     bordercolor="#000000"
     borderopacity="0.25"
     inkscape:showpageshadow="2"
     inkscape:pageopacity="0.0"
     inkscape:pagecheckerboard="0"
     inkscape:deskcolor="#d1d1d1"
     inkscape:document-units="mm"
     inkscape:zoom="1.4513545"
     inkscape:cx="86.470947"
     inkscape:cy="71.657199"
     inkscape:window-width="1050"
     inkscape:window-height="1081"
     inkscape:window-x="857"
     inkscape:window-y="0"
     inkscape:window-maximized="0"
     inkscape:current-layer="layer1" />
  <defs
     id="defs1" />
  <g
     inkscape:label="Layer 1"
     inkscape:groupmode="layer"
     id="layer1"
     transform="translate(333.37504,1257.5646)">
    <g
       id="g93"
       transform="translate(-1331.8381,-933.47044)">
      <circle
         style="fill:none;stroke:#ff0000;stroke-width:0.1;stroke-dasharray:none"
         id="path788-8-1-8-1-9-2-6-3-4-7-1-6-0-9-5-5"
         cx="1018.9676"
         cy="-303.58966"
         r="19.954653" />
      <ellipse
         style="fill:none;stroke:#ff00ff;stroke-width:0.1;stroke-dasharray:none;stroke-opacity:1"
         id="path1138-9-4-0-0-1-2-0-0-6-8-8-1-2-0-7-3"
         cx="1018.9676"
         cy="-303.58966"
         rx="18.492125"
         ry="18.492126" />
      <circle
         style="fill:none;stroke:#0000ff;stroke-width:0.1;stroke-linecap:round;stroke-dasharray:none;stroke-opacity:1;paint-order:markers stroke fill"
         id="path13019-1-33-3-83-70-3-7-5-4-3-0-5"
         cx="1018.9676"
         cy="-318.60059"
         r="2" />
      <path
         d="m 1019.1966,-289.27596 c -0.1137,-0.18342 -0.3454,-0.3335 -0.5131,-0.3335 -0.1677,0 -0.4686,-0.11477 -0.6688,-0.25504 -0.3283,-0.22976 -0.4073,-0.22123 -0.7981,0.0862 -0.5561,0.43763 -0.7801,0.42954 -1.2868,-0.0465 -0.3878,-0.36434 -0.4259,-0.36954 -0.6332,-0.0862 -0.301,0.41183 -0.3787,0.38337 -0.5874,-0.2154 -0.1059,-0.30469 -0.3022,-0.51696 -0.4773,-0.51696 -0.1632,0 -0.4304,-0.12083 -0.5936,-0.2685 -0.266,-0.24077 -0.3608,-0.24168 -0.9182,-0.009 -0.6349,0.26528 -0.6841,0.24323 -0.6305,-0.28274 0.017,-0.16587 -0.056,-0.30157 -0.1609,-0.30157 -0.1059,0 -0.3723,-0.19539 -0.5937,-0.4342 -0.3361,-0.36262 -0.4739,-0.40699 -0.8366,-0.26911 -0.2389,0.0908 -0.4851,0.24742 -0.5474,0.34804 -0.062,0.10062 -0.2241,0.18295 -0.3599,0.18295 -0.2105,0 -0.2072,-0.0991 0.022,-0.67257 0.2539,-0.63439 0.2487,-0.71285 -0.092,-1.38186 -0.3215,-0.62987 -0.4015,-0.68813 -0.7148,-0.5204 -0.57,0.30504 -0.9024,0.0718 -0.7788,-0.54643 0.1464,-0.73122 -0.016,-1.25443 -0.4472,-1.45152 -0.3894,-0.17746 -0.5228,-0.38659 -0.7619,-1.19326 -0.1168,-0.39371 -0.2837,-0.53738 -0.7316,-0.62899 -0.9301,-0.19023 -0.9762,-0.5001 -0.1775,-1.19064 0.6041,-0.52237 0.6854,-0.67255 0.5827,-1.08036 -0.067,-0.26804 -0.026,-0.69667 0.094,-0.98742 0.1627,-0.39322 0.1654,-0.57079 0.015,-0.75675 -0.1385,-0.16613 -0.1448,-0.27831 -0.02,-0.35466 0.3144,-0.1942 0.1975,-0.39641 -0.3361,-0.58247 -0.7857,-0.27392 -0.6467,-0.64963 0.3269,-0.88319 0.7568,-0.18156 0.8534,-0.25894 0.935,-0.74955 0.078,-0.46706 0,-0.6257 -0.5236,-1.08438 -0.6528,-0.57073 -0.6429,-0.92744 0.025,-0.92744 0.853,0 1.4761,-0.21464 1.4761,-0.50846 0,-0.16119 0.1984,-0.47934 0.4407,-0.70702 0.2605,-0.24483 0.408,-0.53837 0.361,-0.71849 -0.064,-0.24082 -7e-4,-0.2847 0.2983,-0.20969 0.3045,0.0764 0.434,-0.0229 0.6664,-0.50999 0.1585,-0.33268 0.5238,-0.72668 0.8119,-0.87556 0.3691,-0.19087 0.5234,-0.39643 0.5234,-0.69707 0,-0.48813 0.2017,-0.54792 0.5267,-0.15623 0.1999,0.24084 0.247,0.22756 0.4343,-0.12245 0.1153,-0.21592 0.47,-0.48218 0.7878,-0.59168 0.4083,-0.14078 0.5677,-0.2953 0.5435,-0.52749 -0.025,-0.24027 0.1371,-0.38208 0.6031,-0.52849 0.5636,-0.17699 0.6803,-0.15992 1.0087,0.14773 0.2983,0.27939 0.4402,0.31103 0.721,0.16076 0.1923,-0.10289 0.6178,-0.18709 0.9454,-0.18709 0.4986,0 0.6142,-0.0734 0.7087,-0.45014 0.1059,-0.41957 0.1339,-0.43128 0.42,-0.17232 0.1688,0.15279 0.4804,0.27782 0.6925,0.27782 0.212,0 0.5362,0.0807 0.7204,0.17926 0.2836,0.15178 0.3639,0.10556 0.5243,-0.30156 0.1762,-0.4469 0.1994,-0.45651 0.3286,-0.13618 0.076,0.18955 0.1821,0.48034 0.2344,0.6462 0.1168,0.36868 0.7685,0.39971 0.9054,0.043 0.1386,-0.36275 0.576,-0.32148 1.0209,0.0964 l 0.3778,0.35491 0.581,-0.35426 c 0.7743,-0.47204 0.9013,-0.44857 0.7827,0.14465 -0.086,0.42665 -0.037,0.51582 0.3231,0.60641 0.2327,0.0584 0.4231,0.23008 0.4231,0.38149 0,0.20622 0.097,0.24515 0.3878,0.15512 1.0007,-0.31018 1.1631,-0.31013 1.1631,4.1e-4 0,0.16788 0.1746,0.67467 0.3878,1.12621 0.4369,0.92535 0.9229,1.16252 1.712,0.83562 0.5869,-0.24308 0.7518,-0.14068 0.5078,0.31529 -0.098,0.18234 -0.1355,0.49041 -0.086,0.68459 0.051,0.19418 0.015,0.40516 -0.095,0.46883 -0.3024,0.1869 -0.2157,0.75632 0.1746,1.14659 0.2631,0.26318 0.3102,0.41357 0.1723,0.55143 -0.2888,0.28875 -0.2307,0.41756 0.2413,0.53603 0.2368,0.0595 0.4307,0.22297 0.4307,0.36332 0,0.14036 0.1168,0.2552 0.2585,0.2552 0.1417,0 0.2585,0.11631 0.2585,0.25848 0,0.14218 -0.086,0.25848 -0.1908,0.25848 -0.1199,0 -0.1386,0.11331 -0.053,0.30156 0.075,0.16586 0.1417,0.65051 0.1479,1.07701 l 0.016,0.77544 0.8574,0.27128 c 0.767,0.24261 0.8125,0.28333 0.4309,0.38536 -0.2346,0.0628 -0.6036,0.11516 -0.8199,0.11646 -0.5478,0.003 -0.6867,0.4804 -0.2326,0.79856 0.439,0.30735 0.4612,0.53762 0.092,0.94565 -0.3018,0.33355 -0.1966,0.67063 0.2094,0.67063 0.1448,0 0.2068,0.0837 0.1402,0.19088 -0.073,0.11831 -0.3719,0.15029 -0.7857,0.0841 -0.6353,-0.10159 -0.6691,-0.0838 -0.6968,0.36916 -0.078,1.26927 0.064,2.03197 0.4307,2.32454 0.3698,0.29463 0.3666,0.29777 -0.3284,0.30156 -0.9099,0.005 -1.4953,0.57436 -1.4489,1.40906 0.048,0.87062 0.03,0.89617 -0.4275,0.59627 -0.571,-0.37405 -0.6092,-0.35918 -0.6092,0.23669 0,0.82679 -0.4489,1.21096 -1.2818,1.09683 -0.8396,-0.11511 -1.3095,0.28157 -1.3978,1.18032 -0.031,0.31246 -0.061,0.58636 -0.067,0.60866 0,0.0223 -0.263,-0.1131 -0.5712,-0.30091 -0.7273,-0.44342 -0.7514,-0.43856 -0.9724,0.19602 -0.1691,0.48495 -0.2407,0.52821 -0.7169,0.43297 -0.3105,-0.0621 -0.7768,-0.003 -1.1287,0.14474 -0.3406,0.14234 -0.8198,0.20653 -1.1093,0.14863 -0.4762,-0.0952 -0.5098,-0.0671 -0.5098,0.42639 0,0.65148 -0.2074,0.808 -0.4838,0.3652 z m -3.4752,-9.21208 c 2.1234,-2.03441 1.7705,-6.63009 -0.5894,-7.67397 -0.9607,-0.42495 -1.7642,-0.21785 -2.5274,0.65141 -0.8822,1.00476 -1.2494,2.01776 -1.2665,3.49406 -0.019,1.64211 0.3687,2.6913 1.3093,3.54113 0.6611,0.59716 0.7548,0.62915 1.6309,0.5565 0.7249,-0.0601 1.0425,-0.18533 1.4431,-0.56913 z m -0.9293,-3.03132 c -0.4035,-0.57619 0,-1.35878 0.6912,-1.35878 0.5599,0 0.8849,0.68876 0.6099,1.2924 -0.2475,0.5428 -0.9425,0.57827 -1.3011,0.0664 z m 8.8173,3.3964 c 1.4836,-0.77193 2.3666,-3.14445 1.9679,-5.28795 -0.2639,-1.41946 -0.8847,-2.33328 -1.8857,-2.77607 -1.0267,-0.45411 -1.8266,-0.24077 -2.6929,0.71815 -1.737,1.92261 -1.4223,6.07107 0.5472,7.21294 0.7392,0.42857 1.412,0.47191 2.0635,0.13293 z m -2.7489,-3.45147 c -0.3058,-0.67132 0.048,-1.34409 0.6698,-1.27194 0.6267,0.0728 0.9923,0.76413 0.6658,1.25902 -0.1262,0.19044 -0.432,0.37073 -0.6812,0.40064 -0.3471,0.0417 -0.4999,-0.0488 -0.6544,-0.38772 z"
         style="fill:#000000;stroke-width:0.65129"
         id="path1-41" />
    </g>
  </g>
</svg>
