<?xml version="1.0" encoding="UTF-8" standalone="no"?>
<!-- Created with Inkscape (http://www.inkscape.org/) -->

<svg
   width="41.008999mm"
   height="41.008999mm"
   viewBox="0 0 41.008999 41.008999"
   version="1.1"
   id="svg1"
   inkscape:version="1.4.2 (f4327f4, 2025-05-13)"
   sodipodi:docname="311.svg"
   xmlns:inkscape="http://www.inkscape.org/namespaces/inkscape"
   xmlns:sodipodi="http://sodipodi.sourceforge.net/DTD/sodipodi-0.dtd"
   xmlns="http://www.w3.org/2000/svg"
   xmlns:svg="http://www.w3.org/2000/svg">
  <sodipodi:namedview
     id="namedview1"
     pagecolor="#ffffff"
     bordercolor="#000000"
     borderopacity="0.25"
     inkscape:showpageshadow="2"
     inkscape:pageopacity="0.0"
     inkscape:pagecheckerboard="0"
     inkscape:deskcolor="#d1d1d1"
     inkscape:document-units="mm"
     inkscape:zoom="1.4513545"
     inkscape:cx="86.470947"
     inkscape:cy="71.657199"
     inkscape:window-width="1050"
     inkscape:window-height="1081"
     inkscape:window-x="857"
     inkscape:window-y="0"
     inkscape:window-maximized="0"
     inkscape:current-layer="layer1" />
  <defs
     id="defs1" />
  <g
     inkscape:label="Layer 1"
     inkscape:groupmode="layer"
     id="layer1"
     transform="translate(333.37504,1257.5646)">
    <g
       id="g94"
       transform="translate(-1374.1291,-933.47044)">
      <ellipse
         style="fill:none;stroke:#ff00ff;stroke-width:0.1;stroke-dasharray:none;stroke-opacity:1"
         id="path1138-9-4-0-0-1-2-0-0-6-8-8-1-2-0-7-3-9"
         cx="1061.2585"
         cy="-303.58966"
         rx="18.492125"
         ry="18.492126" />
      <circle
         style="fill:none;stroke:#ff0000;stroke-width:0.1;stroke-dasharray:none"
         id="path788-8-1-8-1-9-2-1-4-2-2-0-7"
         cx="1061.2585"
         cy="-303.58966"
         r="19.954653" />
      <circle
         style="fill:none;stroke:#0000ff;stroke-width:0.1;stroke-linecap:round;stroke-dasharray:none;stroke-opacity:1;paint-order:markers stroke fill"
         id="path13019-1-33-7-4-6-7-9-7"
         cx="1061.2585"
         cy="-318.60065"
         r="2" />
      <path
         d="m 1051.2683,-291.57515 c -1.342,-0.37543 -2.2644,-1.11756 -2.7929,-2.24696 -0.5872,-1.25483 -0.5419,-3.09434 0.1457,-5.91336 0.6569,-2.69273 1.4678,-4.7496 1.9056,-4.83364 0.29,-0.0556 0.483,0.14679 1.0287,1.07899 l 0.4879,0.83361 0.8569,-0.0359 c 0.4713,-0.0198 0.8955,-0.0597 0.9425,-0.0888 0.047,-0.0291 0.2064,-0.29125 0.354,-0.58257 0.3473,-0.68521 0.8049,-1.22536 1.0375,-1.22441 0.101,4.2e-4 0.2982,0.16879 0.438,0.37416 0.598,0.8783 1.6378,4.44858 1.9718,6.77028 0.4592,3.19273 -0.4828,5.04373 -2.9591,5.81444 -0.7897,0.24579 -2.6275,0.27496 -3.4166,0.0542 z m 0.3724,-7.48908 c 0.172,-0.13523 0.2916,-0.33957 0.2916,-0.49795 0,-0.3386 -0.3652,-0.71233 -0.6916,-0.70772 -0.7607,0.0108 -0.9704,1.04116 -0.2694,1.32359 0.3411,0.13744 0.3459,0.1366 0.6694,-0.11792 z m -0.6945,-0.41626 c -0.087,-0.16262 -0.076,-0.24907 0.043,-0.34782 0.2544,-0.21099 0.5563,-0.0913 0.5563,0.22035 0,0.35566 -0.4278,0.44675 -0.5988,0.12747 z m 4.1675,0.33664 c 0.3222,-0.40996 0.028,-1.12957 -0.4628,-1.12957 -0.3797,0 -0.7268,0.30997 -0.7268,0.64907 0,0.69383 0.7756,1.00712 1.1896,0.4805 z m -0.8146,-0.29188 c -0.1102,-0.28712 0.044,-0.52442 0.3161,-0.48582 0.1829,0.026 0.2495,0.10927 0.2495,0.31207 0,0.2028 -0.067,0.2861 -0.2495,0.31207 -0.1496,0.0212 -0.2761,-0.0341 -0.3161,-0.13832 z m 9.2532,7.68488 c -0.113,-0.21104 -0.1345,-0.21244 -0.5729,-0.037 -0.4203,0.16813 -0.4658,0.16833 -0.587,0.003 -0.111,-0.1517 -0.1947,-0.1603 -0.5374,-0.0551 -0.2234,0.0685 -0.4294,0.10128 -0.4579,0.0728 -0.028,-0.0285 0,-0.23204 0.071,-0.4523 0.1168,-0.38078 0.097,-0.43985 -0.4052,-1.20207 -0.2905,-0.44088 -0.6692,-1.10466 -0.8417,-1.47506 -0.3448,-0.74052 -0.6783,-2.39246 -0.6353,-3.14697 0.026,-0.4445 0,-0.49283 -0.3154,-0.62589 -0.4373,-0.18386 -0.639,-0.74853 -0.5556,-1.55579 0.1025,-0.99377 0.4355,-1.55877 1.5607,-2.64814 0.9508,-0.92057 1.0473,-1.0545 1.2767,-1.7705 0.1365,-0.42603 0.4677,-1.27956 0.7362,-1.89673 0.4227,-0.97197 0.488,-1.2252 0.488,-1.89231 0,-0.8786 0.1539,-1.42325 0.4463,-1.57973 0.2759,-0.14768 0.7504,0.26372 1.3201,1.14459 l 0.4418,0.68318 1.4961,-0.005 1.4961,-0.005 0.5595,-0.85221 c 0.5502,-0.83809 0.8726,-1.07533 1.2597,-0.92681 0.2286,0.0877 0.3931,0.78355 0.3938,1.66622 0,0.66492 0.063,0.89944 0.4854,1.82583 0.2667,0.5846 0.5994,1.42166 0.7394,1.86014 0.2368,0.74126 0.3177,0.85494 1.1527,1.61913 1.0741,0.98301 1.5992,1.86172 1.6862,2.82157 0.077,0.85259 -0.1618,1.43452 -0.6278,1.52773 l -0.3369,0.0674 v 0.95883 c 0,1.53296 -0.352,2.61308 -1.3456,4.12921 -0.5607,0.85555 -0.5873,0.97183 -0.3582,1.56873 0.081,0.21071 -0.2874,0.24362 -0.6363,0.0569 -0.178,-0.0952 -0.2525,-0.0793 -0.368,0.0786 -0.1238,0.16937 -0.1873,0.17864 -0.4387,0.0641 -0.404,-0.18409 -0.6216,-0.16797 -0.787,0.0583 -0.1331,0.18191 -0.1755,0.18042 -0.7869,-0.0277 -0.8876,-0.30214 -3.3941,-0.31819 -4.1064,-0.0263 -0.6058,0.24827 -0.7654,0.24377 -0.9096,-0.0256 z m 4.1458,-1.49726 c 1.0801,-0.22878 1.8836,-0.66122 2.6682,-1.43593 0.8973,-0.88608 1.1985,-1.62361 1.1981,-2.93362 -3e-4,-0.81906 -0.043,-1.02583 -0.3274,-1.60035 -0.8436,-1.70155 -2.6529,-2.71525 -4.8463,-2.71525 -2.0501,0 -3.8584,1.04932 -4.672,2.71108 -0.2873,0.58679 -0.3247,0.77965 -0.3226,1.65984 0,0.83741 0.048,1.09278 0.2887,1.60452 0.9925,2.11032 3.5028,3.2415 6.0133,2.70971 z m -3.688,-4.73177 c -0.4392,-0.22306 -0.4738,-0.22492 -0.8494,-0.0458 -0.8943,0.42644 -1.0997,0.12292 -0.6017,-0.88877 0.6297,-1.27923 1.2024,-1.34063 1.8379,-0.19706 0.3873,0.69715 0.4741,1.20949 0.2213,1.30652 -0.083,0.0317 -0.3563,-0.047 -0.6081,-0.17488 z m 4.327,0.17208 c -0.5196,-0.18639 0.465,-2.13365 1.0789,-2.13365 0.3095,0 0.7466,0.48104 1.0686,1.17579 0.4065,0.87714 0.1628,1.14091 -0.6821,0.73801 -0.3772,-0.17986 -0.4148,-0.17885 -0.8061,0.0218 -0.5134,0.26337 -0.4937,0.25744 -0.6593,0.19803 z m -3.0523,-1.10086 c -0.1433,-0.14337 -0.07,-0.45186 0.2692,-1.13039 0.1886,-0.37743 0.4653,-0.76644 0.6149,-0.86448 0.2541,-0.1665 0.2917,-0.16367 0.57,0.0429 0.3755,0.2787 0.8804,1.08477 0.9733,1.55371 0.097,0.49025 -0.1822,0.59059 -0.7613,0.27341 l -0.4336,-0.2375 -0.4274,0.21804 c -0.4454,0.22726 -0.68,0.2693 -0.8051,0.14428 z m -0.6922,-5.24622 c 0.4821,-0.57294 0.2921,-1.21293 -0.3577,-1.20521 -0.3902,0.005 -0.6569,0.21867 -0.8063,0.6472 -0.099,0.28285 -0.088,0.40103 0.058,0.62372 0.2609,0.39811 0.7393,0.36967 1.1057,-0.0657 z m -0.8662,-0.28416 c -0.093,-0.24372 0.2523,-0.61073 0.5369,-0.56981 0.288,0.0414 0.3481,0.3397 0.1155,0.57239 -0.2314,0.23136 -0.5632,0.23005 -0.6524,-0.003 z m 5.7474,0.35969 c 0.2147,-0.32764 0.1285,-0.73201 -0.2273,-1.06629 -0.47,-0.44156 -1.1584,-0.22648 -1.1584,0.36195 0,0.26982 0.2894,0.82334 0.468,0.8952 0.3615,0.14547 0.7503,0.0646 0.9177,-0.19086 z m -0.9477,-0.40766 c -0.1557,-0.29102 -0.062,-0.54463 0.2004,-0.54463 0.2759,0 0.4682,0.21359 0.4682,0.52008 0,0.33868 -0.4908,0.3567 -0.6686,0.0245 z m -1.9318,0.45127 c 0.038,-0.0609 -0.012,-0.11065 -0.1107,-0.11065 -0.098,0 -0.1483,0.0498 -0.1106,0.11065 0.038,0.0609 0.087,0.11066 0.1106,0.11066 0.023,0 0.073,-0.0498 0.1107,-0.11066 z"
         style="fill:#000000;stroke-width:0.418229"
         id="path1-64" />
    </g>
  </g>
</svg>
