<?xml version="1.0" encoding="UTF-8" standalone="no"?>
<!-- Created with Inkscape (http://www.inkscape.org/) -->

<svg
   width="41.008999mm"
   height="41.008999mm"
   viewBox="0 0 41.008999 41.008999"
   version="1.1"
   id="svg1"
   inkscape:version="1.4.2 (f4327f4, 2025-05-13)"
   sodipodi:docname="312.svg"
   xmlns:inkscape="http://www.inkscape.org/namespaces/inkscape"
   xmlns:sodipodi="http://sodipodi.sourceforge.net/DTD/sodipodi-0.dtd"
   xmlns="http://www.w3.org/2000/svg"
   xmlns:svg="http://www.w3.org/2000/svg">
  <sodipodi:namedview
     id="namedview1"
     pagecolor="#ffffff"
     bordercolor="#000000"
     borderopacity="0.25"
     inkscape:showpageshadow="2"
     inkscape:pageopacity="0.0"
     inkscape:pagecheckerboard="0"
     inkscape:deskcolor="#d1d1d1"
     inkscape:document-units="mm"
     inkscape:zoom="1.4513545"
     inkscape:cx="86.470947"
     inkscape:cy="71.657199"
     inkscape:window-width="1050"
     inkscape:window-height="1081"
     inkscape:window-x="857"
     inkscape:window-y="0"
     inkscape:window-maximized="0"
     inkscape:current-layer="layer1" />
  <defs
     id="defs1" />
  <g
     inkscape:label="Layer 1"
     inkscape:groupmode="layer"
     id="layer1"
     transform="translate(333.37504,1257.5646)">
    <g
       id="g95"
       transform="translate(-1416.2381,-933.47044)">
      <circle
         style="fill:none;stroke:#ff0000;stroke-width:0.1;stroke-dasharray:none"
         id="path788-8-1-8-1-9-2-6-3-4-7-1-6-0-9-4-9-0-6-2"
         cx="1103.3676"
         cy="-303.58966"
         r="19.954653" />
      <circle
         style="fill:none;stroke:#0000ff;stroke-width:0.1;stroke-linecap:round;stroke-dasharray:none;stroke-opacity:1;paint-order:markers stroke fill"
         id="path13019-1-33-3-83-70-3-7-5-4-3-3-8-9-3-03"
         cx="1103.3677"
         cy="-318.60046"
         r="2" />
      <ellipse
         style="fill:none;stroke:#ff00ff;stroke-width:0.1;stroke-dasharray:none;stroke-opacity:1"
         id="path1138-9-4-0-0-1-2-0-0-6-8-8-1-2-0-7-3-90"
         cx="1103.3676"
         cy="-303.58966"
         rx="18.492125"
         ry="18.492126" />
      <path
         d="m 1097.1286,-287.32761 c -1.4346,-0.65777 -2.2675,-2.31582 -2.601,-5.17807 -0.17,-1.45897 -0.074,-3.56082 0.2308,-5.06837 0.1293,-0.63904 0.6777,-2.48363 1.2186,-4.09909 0.9601,-2.86748 0.9954,-3.01027 1.4866,-6.0159 0.2768,-1.69328 0.5822,-3.38416 0.6789,-3.75751 0.5646,-2.18068 1.9398,-3.50571 4.0551,-3.907 2.1062,-0.39956 3.9736,0.14853 5.2504,1.541 0.9307,1.01489 1.2714,2.02773 1.7446,5.18507 0.5907,3.94231 0.613,4.03323 1.9217,7.8444 0.303,0.88248 0.6908,2.20206 0.8619,2.93239 0.2836,1.21152 0.3112,1.51696 0.3145,3.48568 0,1.65499 -0.043,2.38817 -0.1965,3.14642 -0.4039,1.99584 -1.1465,3.24231 -2.2561,3.78714 l -0.6403,0.31443 -5.7541,0.0233 -5.7542,0.0233 z m 7.7393,-17.00136 c 0.725,-0.34079 1.2177,-0.80829 1.5897,-1.50835 0.6133,-1.15426 0.7411,-1.8533 0.7449,-4.07491 0,-1.92905 -0.01,-2.01161 -0.2909,-2.61981 -0.7768,-1.65704 -2.3702,-2.50985 -4.1412,-2.21638 -1.3911,0.23051 -2.3828,0.95319 -2.9783,2.17042 -0.2655,0.54263 -0.3219,0.81703 -0.3644,1.77457 -0.055,1.22577 0.1134,3.02688 0.3581,3.8399 0.3219,1.06958 0.9392,1.96889 1.6551,2.41138 0.9309,0.5753 2.4653,0.67523 3.427,0.22318 z m -2.0328,-0.88037 c -0.1161,-0.075 0.05,-0.10544 0.5532,-0.10118 0.5033,0.004 0.6528,0.0346 0.498,0.10118 -0.3027,0.13008 -0.85,0.13008 -1.0512,0 z m -0.208,-0.66866 c -0.5771,-0.11822 -1.0093,-0.37916 -1.0093,-0.60932 0,-0.14202 0.2453,-0.16185 1.6785,-0.13577 1.8574,0.0338 2.142,0.14867 1.2915,0.52122 -0.6101,0.26719 -1.3417,0.35072 -1.9607,0.22387 z m -1.8154,-0.74967 c -0.3586,-0.40944 -0.5579,-0.97785 -0.5673,-1.61801 l -0.01,-0.65723 0.4426,-0.0942 c 0.2836,-0.0604 0.5378,-0.0511 0.7074,0.0258 0.2538,0.11504 0.262,0.15331 0.1974,0.91798 -0.111,1.31335 -0.4002,1.84848 -0.7704,1.42571 z m 4.5892,0.0142 c -0.1555,-0.297 -0.3527,-1.31036 -0.3527,-1.81271 0,-0.55164 0.327,-0.75106 0.9707,-0.59203 0.3734,0.0922 0.4157,0.14058 0.4464,0.50952 0.044,0.52621 -0.1343,1.17806 -0.4486,1.64194 -0.3028,0.4468 -0.477,0.51846 -0.6158,0.25328 z m -5.0556,-2.8008 c -0.043,-0.069 0.1737,-0.11002 0.5744,-0.10896 0.4559,0.001 0.5945,0.0329 0.4768,0.10896 -0.2184,0.14115 -0.964,0.14115 -1.0512,0 z m 4.9242,0 c -0.1177,-0.0761 0.021,-0.10776 0.4768,-0.10896 0.4008,-10e-4 0.6171,0.04 0.5744,0.10896 -0.087,0.14115 -0.8328,0.14115 -1.0512,0 z m -5.0072,-0.56214 c -0.2576,-0.15002 -0.2464,-0.50843 0.021,-0.65119 0.1177,-0.063 0.3949,-0.11455 0.6159,-0.11455 0.5113,0 0.8299,0.16992 0.8299,0.44263 0,0.11744 -0.096,0.26508 -0.214,0.32808 -0.2717,0.14543 -0.9989,0.14254 -1.2522,-0.005 z m 4.8689,0 c -0.2903,-0.16908 -0.2405,-0.53208 0.09,-0.65781 0.6338,-0.24098 1.376,-0.0605 1.376,0.3347 0,0.11744 -0.096,0.26508 -0.214,0.32808 -0.2718,0.14543 -0.9989,0.14254 -1.2522,-0.005 z m -4.7782,-1.24438 c -0.1896,-0.13863 -0.1909,-0.18008 -0.024,-0.75512 0.097,-0.33464 0.2823,-0.70392 0.4112,-0.82061 0.2319,-0.20981 0.2368,-0.20932 0.4425,0.0447 0.2094,0.25865 0.4331,0.90697 0.4342,1.25885 0,0.38262 -0.8597,0.56797 -1.2642,0.27217 z m 4.8703,8.3e-4 c -0.1791,-0.13091 -0.1863,-0.2081 -0.071,-0.76222 0.1507,-0.72558 0.4574,-1.08561 0.7314,-0.85829 0.3962,0.3289 0.6995,1.35093 0.4795,1.61603 -0.1592,0.19181 -0.8796,0.19464 -1.1396,0.005 z"
         style="fill:#000000;stroke-width:0.418229"
         id="path1-3" />
    </g>
  </g>
</svg>
