<?xml version="1.0" encoding="UTF-8" standalone="no"?>
<!-- Created with Inkscape (http://www.inkscape.org/) -->

<svg
   width="41.008999mm"
   height="41.008999mm"
   viewBox="0 0 41.008999 41.008999"
   version="1.1"
   id="svg1"
   inkscape:version="1.4.2 (f4327f4, 2025-05-13)"
   sodipodi:docname="313.svg"
   xmlns:inkscape="http://www.inkscape.org/namespaces/inkscape"
   xmlns:sodipodi="http://sodipodi.sourceforge.net/DTD/sodipodi-0.dtd"
   xmlns="http://www.w3.org/2000/svg"
   xmlns:svg="http://www.w3.org/2000/svg">
  <sodipodi:namedview
     id="namedview1"
     pagecolor="#ffffff"
     bordercolor="#000000"
     borderopacity="0.25"
     inkscape:showpageshadow="2"
     inkscape:pageopacity="0.0"
     inkscape:pagecheckerboard="0"
     inkscape:deskcolor="#d1d1d1"
     inkscape:document-units="mm"
     inkscape:zoom="1.4513545"
     inkscape:cx="86.470947"
     inkscape:cy="71.657199"
     inkscape:window-width="1050"
     inkscape:window-height="1081"
     inkscape:window-x="857"
     inkscape:window-y="0"
     inkscape:window-maximized="0"
     inkscape:current-layer="layer1" />
  <defs
     id="defs1" />
  <g
     inkscape:label="Layer 1"
     inkscape:groupmode="layer"
     id="layer1"
     transform="translate(333.37504,1257.5646)">
    <g
       id="g96"
       transform="translate(-1458.4828,-933.25975)">
      <circle
         style="fill:none;stroke:#ff0000;stroke-width:0.1;stroke-dasharray:none;stroke-opacity:1"
         id="path7-0"
         cx="1145.6123"
         cy="-303.80035"
         r="20" />
      <circle
         style="fill:none;stroke:#0000ff;stroke-width:0.1;stroke-dasharray:none;stroke-opacity:1"
         id="path20-7"
         cx="1145.6123"
         cy="-319.59149"
         r="2" />
      <ellipse
         style="fill:none;stroke:#ff00ff;stroke-width:0.1;stroke-dasharray:none;stroke-opacity:1"
         id="path1138-9-4-0-0-1-2-0-0-6-8-8-1-2-0-7-3-0"
         cx="1145.6123"
         cy="-303.80035"
         rx="18.492125"
         ry="18.492126" />
      <path
         d="m 1145.3075,-287.6074 c -0.1468,-0.1467 -0.2667,-0.33781 -0.2667,-0.42468 0,-0.2729 -0.2761,-0.17176 -0.4094,0.14995 -0.078,0.18704 -0.2287,0.33329 -0.3854,0.37263 -0.3719,0.0933 -4.086,-0.0562 -4.5705,-0.18408 -0.9166,-0.24186 -2.818,-1.80513 -3.6087,-2.96706 -0.8149,-1.19739 -1.4179,-2.74057 -1.6686,-4.26991 -0.068,-0.41917 -0.1434,-0.70659 -0.166,-0.63872 -0.059,0.17698 -0.2285,0.15243 -0.2285,-0.0331 0,-0.27867 -0.3188,-0.30266 -0.5178,-0.039 -0.1932,0.25613 -0.2395,0.21822 -0.3233,-0.26441 -0.029,-0.16217 -0.1042,-0.19891 -0.3678,-0.17789 -0.3054,0.0244 -0.3233,0.01 -0.2209,-0.18177 0.088,-0.16365 0.055,-0.36999 -0.1491,-0.96342 -0.5982,-1.73311 -0.1233,-4.05405 1.2127,-5.92621 0.2466,-0.3456 1.0911,-1.24727 1.8768,-2.00369 1.1395,-1.09715 1.4945,-1.50708 1.7552,-2.02679 l 0.3268,-0.65147 -0.6977,0.0672 c -0.3837,0.0369 -0.9392,0.094 -1.2342,0.12673 -0.3167,0.0351 -0.5366,0.0192 -0.5366,-0.0388 0,-0.0963 1.7853,-0.43621 2.2908,-0.43621 0.2328,0 0.6728,-0.34094 0.6728,-0.52126 0,-0.10713 -0.5855,-0.17683 -2.1205,-0.25241 -0.8116,-0.04 -1.3541,-0.10858 -1.3541,-0.17126 0,-0.0692 0.6237,-0.0882 1.8448,-0.0562 1.6905,0.0443 1.8528,0.0333 1.9417,-0.13281 0.211,-0.39431 0.1163,-0.46919 -1.0017,-0.79136 -0.6042,-0.17414 -1.4205,-0.39765 -1.8139,-0.49669 -0.4596,-0.11567 -0.6303,-0.19282 -0.4775,-0.21574 0.2501,-0.0375 2.2668,0.39233 3.1295,0.6671 l 0.5061,0.16114 0.2582,-0.34716 c 0.1419,-0.19095 0.6616,-0.76393 1.1547,-1.27329 1.0256,-1.05956 1.0861,-1.25232 0.5755,-1.83385 -0.3142,-0.3579 -0.3197,-0.38181 -0.2656,-1.15325 0.054,-0.77798 0.4006,-2.33104 0.6039,-2.71092 0.09,-0.16646 0.1258,-0.1746 0.2459,-0.0546 0.1832,0.18316 0.9487,2.21557 1.0922,2.89956 0.1016,0.48423 0.091,0.55701 -0.1208,0.85484 -0.241,0.33852 -0.2259,0.62488 0.033,0.62488 0.083,0 0.4634,-0.0773 0.8463,-0.1718 0.972,-0.23988 3.428,-0.24423 4.2694,-0.007 0.4692,0.13194 0.6277,0.14293 0.6883,0.0476 0.1142,-0.17968 0.1003,-0.31077 -0.069,-0.64986 -0.19,-0.38085 -0.098,-0.74521 0.521,-2.07179 0.5413,-1.15939 0.9481,-1.73802 1.0694,-1.52128 0.1309,0.23408 0.2975,1.78525 0.2975,2.7711 v 0.90561 l -0.3577,0.31667 c -0.1967,0.17417 -0.3576,0.41268 -0.3576,0.53002 0,0.1274 0.2655,0.47397 0.659,0.86029 0.3625,0.35582 0.8508,0.94117 1.0851,1.30078 0.437,0.67073 0.4952,0.72011 0.6625,0.56231 0.1706,-0.16076 2.1094,-1.14944 2.1582,-1.10058 0.026,0.0259 -0.4618,0.35358 -1.0837,0.72826 -0.6219,0.3747 -1.1306,0.7074 -1.1306,0.73933 0,0.16917 0.4367,0.73031 0.5416,0.69598 0.3097,-0.10134 2.9303,-0.66488 3.0919,-0.66488 0.361,0 0.043,0.12337 -1.044,0.40507 -1.904,0.49336 -1.9764,0.51774 -1.9764,0.66588 0,0.0789 0.034,0.16357 0.077,0.18833 0.043,0.0247 0.709,-0.007 1.4819,-0.0713 0.7729,-0.064 1.4051,-0.0871 1.4051,-0.0514 0,0.0629 -0.9163,0.21993 -2.0863,0.35742 -0.6035,0.0709 -0.6679,0.13151 -0.412,0.38742 0.1359,0.13589 0.5355,0.15684 2.7848,0.14593 2.0717,-0.0101 2.8369,0.0243 3.6245,0.1629 0.5491,0.0966 1.1355,0.14552 1.303,0.10872 0.2338,-0.0513 0.3046,-0.0308 0.3046,0.0885 0,0.0854 -0.046,0.18388 -0.1025,0.21871 -0.1626,0.10048 0.08,0.45971 0.3105,0.45971 0.2352,0 0.2709,0.25783 0.048,0.34354 -0.1725,0.0662 -0.2078,0.42832 -0.051,0.52512 0.1666,0.10294 0.1166,0.25548 -0.084,0.25548 -0.1023,0 -0.4357,0.18712 -0.7409,0.41583 -0.7119,0.53344 -1.8603,1.22378 -3.4675,2.08464 -0.7026,0.3763 -1.3216,0.72688 -1.3755,0.77906 -0.062,0.0602 0.021,0.45858 0.2279,1.09028 1.2393,3.78369 0.8187,7.24842 -1.2552,10.33982 -0.9873,1.47176 -2.6564,2.82758 -3.8687,3.14261 -0.2986,0.0776 -1.433,0.16467 -2.6338,0.20219 l -2.1093,0.0659 z m 1.4194,-1.09652 c 1.8997,-0.21366 3.5664,-0.85355 4.7853,-1.83717 1.8271,-1.47447 3.0456,-3.64926 3.2032,-5.71716 0.3263,-4.27895 -3.5542,-8.15362 -8.5916,-8.57864 -4.4161,-0.3726 -8.3401,1.61095 -9.986,5.04773 -0.5241,1.09435 -0.7038,1.85222 -0.7016,2.95959 0,1.97988 0.6753,3.65131 2.0505,5.10418 2.2634,2.39113 5.4834,3.44402 9.2402,3.02147 z m -10.1684,-10.1723 c 0,-0.4443 1.2222,-1.47501 1.7491,-1.47501 0.2982,0 0.6057,0.19444 1.1891,0.75174 0.4372,0.41775 0.5669,0.78119 0.2789,0.78119 -0.086,0 -0.459,-0.14799 -0.83,-0.32886 l -0.6745,-0.32886 -0.7285,0.3822 c -0.7977,0.41847 -0.9841,0.45968 -0.9841,0.2176 z m 4.2923,-0.002 c 0,-0.23108 1.1481,-1.34793 1.4682,-1.42829 0.4187,-0.10508 0.7122,0.0158 1.2815,0.52759 1.046,0.94046 0.9381,1.26714 -0.228,0.69014 l -0.777,-0.38445 -0.724,0.37824 c -0.7927,0.41404 -1.0207,0.46247 -1.0207,0.21677 z m 4.3943,-0.0212 c 0,-0.19498 0.8224,-1.04639 1.1941,-1.23623 0.5142,-0.26263 0.9761,-0.0853 1.7951,0.68922 0.3381,0.31978 0.513,0.7297 0.3112,0.7297 -0.04,0 -0.4237,-0.16499 -0.8535,-0.36665 l -0.7813,-0.36664 -0.728,0.36664 c -0.829,0.41745 -0.9376,0.43876 -0.9376,0.18396 z m 4.4966,0.0372 c 0,-0.41684 1.1781,-1.38747 1.684,-1.38747 0.3991,0 1.1576,0.48493 1.5373,0.98272 0.4265,0.55927 0.206,0.61472 -0.7117,0.17892 l -0.7951,-0.37762 -0.7568,0.37445 c -0.8359,0.41362 -0.9577,0.44275 -0.9577,0.229 z m -10.9349,-2.99203 c 0,-0.23435 1.1443,-1.3346 1.4741,-1.41739 0.1448,-0.0364 0.3888,-0.0345 0.5422,0.004 0.379,0.0951 1.3562,1.08527 1.3562,1.37423 0,0.26984 -0.1151,0.24618 -1.0439,-0.21465 l -0.6163,-0.30577 -0.7001,0.36674 c -0.7766,0.40683 -1.0122,0.45174 -1.0122,0.19291 z m 4.2922,0.0117 c 0,-0.212 1.0406,-1.2092 1.4302,-1.37059 0.4322,-0.17901 0.7633,-0.0597 1.3457,0.48509 1.0064,0.94132 0.9029,1.23158 -0.2446,0.68663 l -0.7733,-0.36731 -0.7232,0.36415 c -0.7949,0.40034 -1.0348,0.44716 -1.0348,0.20203 z m 4.3944,0.005 c 0,-0.20243 0.8788,-1.1444 1.2436,-1.33308 0.1536,-0.0794 0.3644,-0.14437 0.4686,-0.14437 0.3133,0 1.12,0.57453 1.4538,1.03533 0.4582,0.63259 0.2718,0.69811 -0.6953,0.2443 l -0.814,-0.38196 -0.6593,0.36873 c -0.7128,0.39862 -0.9974,0.45884 -0.9974,0.21105 z m -2.3505,-5.10178 c 0,-0.5414 -0.035,-0.67919 -0.1915,-0.76322 -0.2483,-0.13285 -1.8138,-0.0863 -1.9583,0.0582 -0.061,0.061 -0.097,0.33571 -0.079,0.61053 l 0.031,0.49968 0.6131,0.11661 c 0.3373,0.0641 0.8316,0.12162 1.0986,0.12774 l 0.4854,0.0111 z m 1.584,0.52629 0.8176,-0.12111 v -0.56207 -0.56207 l -1.0129,-0.0295 c -0.5572,-0.0162 -1.046,0.006 -1.0862,0.0511 -0.041,0.0443 -0.1041,0.36797 -0.1419,0.71926 l -0.068,0.63872 0.3371,-0.006 c 0.1856,-0.004 0.7052,-0.0611 1.1548,-0.12775 z m -4.0366,-0.73785 v -0.56565 l -1.0475,0.0291 -1.0476,0.0291 -0.032,0.33284 c -0.023,0.24167 0.017,0.35152 0.1456,0.40103 0.3124,0.11988 1.3059,0.31788 1.6494,0.32871 l 0.3321,0.0104 z m 6.3616,0.34479 c 0.4603,-0.0974 0.4854,-0.12011 0.4854,-0.43996 0,-0.40023 -0.1418,-0.45984 -1.0986,-0.46193 l -0.6387,-0.002 v 0.57345 0.57345 l 0.3833,-0.0705 c 0.2107,-0.0388 0.6017,-0.11667 0.8686,-0.17313 z m -8.6268,-0.50827 c -0.031,-0.22405 -0.078,-0.24084 -0.6254,-0.22964 -0.9174,0.0188 -0.9332,0.15615 -0.052,0.44937 0.5888,0.19582 0.7292,0.15026 0.6769,-0.21973 z m 10.1408,0.10337 c 0.48,-0.20652 0.6527,-0.39039 0.3766,-0.40119 -0.07,-0.003 -0.3711,-0.0183 -0.6684,-0.0346 -0.5935,-0.0325 -0.6848,0.0298 -0.5911,0.40308 0.077,0.30598 0.234,0.31181 0.8829,0.0327 z m -8.6553,-1.83485 c 0.4247,-0.334 0.5039,-0.55572 0.3234,-0.90471 -0.3349,-0.64786 -1.0374,-0.8185 -1.5217,-0.36968 -0.3494,0.32388 -0.3718,0.90562 -0.048,1.25018 0.2884,0.30701 0.8726,0.31836 1.2465,0.0242 z m -0.792,-0.35195 c -0.2012,-0.20127 -0.2047,-0.26305 -0.029,-0.50432 0.1019,-0.13946 0.2084,-0.17006 0.4129,-0.11873 0.1849,0.0464 0.249,0.11023 0.1947,0.19391 -0.044,0.0686 -0.081,0.21587 -0.081,0.32724 0,0.25885 -0.2836,0.31682 -0.4986,0.1019 z m 8.3824,0.32203 c 0.5224,-0.44938 0.2609,-1.38926 -0.423,-1.51999 -0.3605,-0.0689 -0.8366,0.17622 -1.0159,0.5231 -0.225,0.43506 -0.2029,0.56725 0.1545,0.92468 0.3958,0.39583 0.8767,0.42286 1.2844,0.0722 z m -0.8397,-0.24475 c -0.1867,-0.1278 -0.1183,-0.68095 0.089,-0.72086 0.4234,-0.0815 0.6577,0.49268 0.2828,0.69327 -0.2324,0.12446 -0.2305,0.12431 -0.3717,0.0276 z m -3.026,-0.0791 c 0.2913,-0.0865 0.5296,-0.1993 0.5296,-0.25069 0,-0.1136 -0.6591,-0.30608 -1.0508,-0.30686 -0.2843,-3.9e-4 -0.9931,0.24838 -0.9931,0.34881 0,0.0293 0.2184,0.12038 0.4854,0.20248 0.267,0.0821 0.4886,0.15247 0.4924,0.15639 0,0.004 0.2453,-0.0636 0.5365,-0.15013 z"
         style="fill:#000000;stroke-width:0.386249"
         id="path1-14" />
    </g>
  </g>
</svg>
