<?xml version="1.0" encoding="UTF-8" standalone="no"?>
<!-- Created with Inkscape (http://www.inkscape.org/) -->

<svg
   width="41.008999mm"
   height="41.008999mm"
   viewBox="0 0 41.008999 41.008999"
   version="1.1"
   id="svg1"
   inkscape:version="1.4.2 (f4327f4, 2025-05-13)"
   sodipodi:docname="314.svg"
   xmlns:inkscape="http://www.inkscape.org/namespaces/inkscape"
   xmlns:sodipodi="http://sodipodi.sourceforge.net/DTD/sodipodi-0.dtd"
   xmlns="http://www.w3.org/2000/svg"
   xmlns:svg="http://www.w3.org/2000/svg">
  <sodipodi:namedview
     id="namedview1"
     pagecolor="#ffffff"
     bordercolor="#000000"
     borderopacity="0.25"
     inkscape:showpageshadow="2"
     inkscape:pageopacity="0.0"
     inkscape:pagecheckerboard="0"
     inkscape:deskcolor="#d1d1d1"
     inkscape:document-units="mm"
     inkscape:zoom="1.4513545"
     inkscape:cx="86.470947"
     inkscape:cy="71.657199"
     inkscape:window-width="1050"
     inkscape:window-height="1081"
     inkscape:window-x="857"
     inkscape:window-y="0"
     inkscape:window-maximized="0"
     inkscape:current-layer="layer1" />
  <defs
     id="defs1" />
  <g
     inkscape:label="Layer 1"
     inkscape:groupmode="layer"
     id="layer1"
     transform="translate(333.37504,1257.5646)">
    <g
       id="g97"
       transform="translate(-1500.6594,-933.45527)">
      <circle
         style="fill:none;stroke:#ff0000;stroke-width:0.1;stroke-dasharray:none"
         id="path788-8-1-8-1-9-2-6-3-4-7-1-6-0-9-4-9-0-6-1-1"
         cx="1187.7888"
         cy="-303.60483"
         r="19.954653" />
      <circle
         style="fill:none;stroke:#0000ff;stroke-width:0.1;stroke-linecap:round;stroke-dasharray:none;stroke-opacity:1;paint-order:markers stroke fill"
         id="path13019-1-33-3-83-70-3-7-5-4-3-3-8-9-3-0-6"
         cx="1187.7889"
         cy="-318.61566"
         r="2" />
      <ellipse
         style="fill:none;stroke:#ff00ff;stroke-width:0.1;stroke-dasharray:none;stroke-opacity:1"
         id="path1138-9-4-0-0-1-2-0-0-6-8-8-1-2-0-7-3-3"
         cx="1187.7888"
         cy="-303.60483"
         rx="18.492125"
         ry="18.492126" />
      <path
         d="m 1183.5259,-288.75583 c -0.9441,-0.3094 -1.7369,-0.69326 -2.834,-1.37219 -1.0559,-0.65344 -1.7168,-1.28217 -1.9755,-1.87933 -0.8114,-1.87307 -0.9125,-2.67716 -0.4467,-3.55317 0.1521,-0.28616 0.2766,-0.63106 0.2766,-0.76645 0,-0.13539 0.081,-0.36183 0.1801,-0.5032 0.1533,-0.21888 0.1603,-0.32518 0.047,-0.71622 -0.073,-0.25256 -0.2128,-0.60858 -0.3102,-0.79116 -0.6464,-1.21197 -0.6259,-1.12714 -0.4875,-2.01747 0.1592,-1.02364 0.4221,-1.63514 0.9583,-2.22868 0.3193,-0.35342 0.4925,-0.45675 0.7654,-0.45675 0.4179,0 1.2172,-0.47953 1.6432,-0.9858 0.2629,-0.31241 0.3022,-0.45499 0.3025,-1.09749 0,-0.9718 0.2427,-1.37861 1.037,-1.74225 0.7357,-0.33682 0.9582,-0.57859 0.9712,-1.05564 0.01,-0.20625 0.06,-0.80125 0.1202,-1.32223 0.097,-0.83334 0.082,-1.05583 -0.1241,-1.85056 -0.1288,-0.49683 -0.2342,-1.00425 -0.2342,-1.12758 0,-0.53712 0.7843,-0.85478 1.2756,-0.51663 0.1201,0.0826 0.4052,0.21104 0.6336,0.28535 0.5683,0.18487 2.369,2.11838 2.6416,2.83647 0.5208,1.372 1.6752,1.65999 2.9118,0.72637 1.0531,-0.79509 1.2594,-0.8086 1.9985,-0.13085 0.2815,0.25806 0.6436,0.45622 0.9945,0.54419 0.7133,0.1788 0.8088,0.27468 1.3226,1.3285 l 0.4299,0.88178 -0.3499,0.9605 c -0.1925,0.52827 -0.3499,1.0546 -0.3499,1.1696 0,0.11501 0.1743,0.43746 0.3873,0.71657 0.2182,0.28579 0.4181,0.69937 0.4577,0.94678 0.053,0.33208 0.2678,0.66992 0.8797,1.38418 0.4452,0.51969 0.868,1.12214 0.9395,1.33877 0.2113,0.6403 0.063,1.52634 -0.4509,2.68541 -0.4302,0.97134 -0.4595,1.0975 -0.3847,1.65985 0.044,0.33474 0.076,0.79049 0.07,1.01279 -0.01,0.22605 0.058,0.46161 0.1461,0.53447 0.3095,0.25684 0.4153,0.8389 0.2753,1.51354 -0.2452,1.18116 -1.4452,2.14285 -3.7914,3.03846 -1.7861,0.68177 -2.1681,0.73189 -3.4059,0.44683 -1.2899,-0.29709 -1.3328,-0.29649 -2.7581,0.038 -1.4318,0.336 -2.8606,0.3608 -3.7623,0.0653 z m 3.9219,-0.51552 1.3214,-0.30395 1.0588,0.23878 c 0.5823,0.13132 1.2246,0.23878 1.4272,0.23878 0.476,0 2.1386,-0.56526 3.3319,-1.13281 1.9096,-0.90819 2.8038,-2.32713 2.0819,-3.3036 -0.1528,-0.20665 -0.2519,-0.50959 -0.2611,-0.79778 -0.01,-0.25554 -0.053,-0.69476 -0.099,-0.97605 -0.075,-0.4572 -0.028,-0.64936 0.4425,-1.8125 0.8354,-2.06409 0.7734,-2.44666 -0.6438,-3.97284 -0.452,-0.48685 -0.6209,-0.76019 -0.6628,-1.0728 -0.033,-0.2425 -0.2478,-0.69257 -0.5103,-1.06668 -0.2497,-0.35595 -0.4539,-0.752 -0.4539,-0.8801 0,-0.12811 0.1553,-0.65924 0.3451,-1.1803 l 0.3451,-0.94737 -0.4281,-0.8329 c -0.4402,-0.8564 -0.6932,-1.05717 -1.3324,-1.05717 -0.1525,0 -0.4638,-0.18547 -0.7428,-0.44263 -0.2641,-0.24344 -0.5675,-0.44263 -0.6743,-0.44263 -0.1067,0 -0.4248,0.16785 -0.7069,0.37298 -0.7828,0.56946 -1.1727,0.73359 -1.7424,0.73359 -0.9369,0 -1.6888,-0.61968 -2.0232,-1.66731 -0.1822,-0.57096 -1.9168,-2.39101 -2.3713,-2.48812 -0.1932,-0.0413 -0.4827,-0.15147 -0.6433,-0.24485 -0.3426,-0.19925 -0.6485,-0.11823 -0.6485,0.17178 0,0.11259 0.08,0.47516 0.1786,0.80573 0.1474,0.49596 0.1652,0.89119 0.1014,2.26088 -0.09,1.92942 -0.1417,2.05602 -1.0061,2.45178 -0.8319,0.38086 -1.0445,0.68548 -1.0445,1.49694 0,0.35998 -0.07,0.78897 -0.1565,0.95332 -0.351,0.67002 -1.5785,1.57136 -2.1399,1.57136 -0.3062,0 -0.4205,0.0802 -0.7212,0.50587 -0.4605,0.65177 -0.6327,1.14934 -0.7062,2.03922 -0.055,0.66631 -0.035,0.75604 0.2762,1.21871 0.1845,0.2747 0.3616,0.64385 0.3936,0.82034 0.032,0.1765 0.1099,0.37252 0.1729,0.43561 0.173,0.17298 0.139,0.46857 -0.1066,0.92679 -0.1217,0.22711 -0.2213,0.50279 -0.2213,0.61262 0,0.10983 -0.093,0.38444 -0.2078,0.61025 -0.3675,0.72599 -0.3763,1.02075 -0.06,2.02294 0.4413,1.4 0.7418,1.91702 1.4025,2.41268 1.1734,0.88035 2.9668,1.77838 4.0113,2.00858 0.6923,0.1526 1.9825,0.0444 3.4239,-0.28714 z m -1.8748,-1.01697 c -0.6415,-0.11545 -1.8404,-0.53506 -2.3532,-0.82361 -0.3205,-0.18034 -0.8683,-0.6195 -1.2172,-0.97591 -0.349,-0.35641 -0.7839,-0.80052 -0.9665,-0.98692 -0.1826,-0.1864 -0.4421,-0.43475 -0.5768,-0.55189 -0.1346,-0.11714 -0.2791,-0.34946 -0.3209,-0.51626 -0.091,-0.36239 0.1254,-1.54627 0.4217,-2.30727 0.2015,-0.51748 0.2032,-0.57281 0.031,-1.02277 -0.148,-0.38745 -0.1582,-0.54694 -0.055,-0.85968 0.1763,-0.53406 1.4384,-2.2958 2.2629,-3.15863 0.378,-0.3956 0.9449,-1.10271 1.2598,-1.57135 0.4662,-0.69381 0.7011,-0.92716 1.2645,-1.25621 0.3806,-0.22227 0.7087,-0.41995 0.7292,-0.43929 0.021,-0.0193 0.1699,-0.42475 0.332,-0.90092 0.3665,-1.07684 0.5289,-1.13606 1.0658,-0.38878 0.2695,0.37525 0.5838,0.64421 0.9971,0.85332 0.5481,0.27731 0.6745,0.29875 1.3764,0.23351 0.7481,-0.0695 0.7794,-0.0624 0.9719,0.22132 0.1095,0.16123 0.4796,0.59706 0.8225,0.96852 0.3948,0.42755 0.6535,0.81747 0.7053,1.06266 0.1285,0.60878 0.5276,1.31505 1.4229,2.51796 1.0356,1.39153 1.1148,1.55149 1.2756,2.57627 0.1214,0.77404 0.1137,0.87273 -0.1079,1.37371 -0.2177,0.49225 -0.2279,0.60576 -0.1149,1.28983 0.3676,2.22588 -0.046,3.2572 -1.6004,3.98996 -1.1525,0.54334 -3.5439,0.68564 -5.1606,0.30708 -0.5635,-0.13192 -0.6763,-0.12748 -1.0285,0.0405 -0.4829,0.23027 -1.1388,0.37856 -1.4371,0.32488 z m 1.7152,-1.60223 c 0.3347,-0.0672 1.6212,-0.12616 2.8589,-0.13092 2.2265,-0.009 2.2526,-0.0114 2.4621,-0.2699 0.3747,-0.46213 0.2852,-1.17407 -0.2924,-2.32795 l -0.5041,-1.00715 h -0.4273 c -0.995,0 -1.8471,-0.67399 -1.9652,-1.55436 -0.054,-0.40374 -0.021,-0.47367 0.4266,-0.90774 0.2669,-0.25866 0.5801,-0.52264 0.696,-0.58661 0.2742,-0.15132 0.1895,-0.50401 -0.2929,-1.21963 -0.2695,-0.39982 -0.6565,-0.72596 -1.5232,-1.28385 -1.5456,-0.9949 -1.9478,-1.20779 -2.1412,-1.13359 -0.1836,0.0705 -0.5165,0.80453 -0.7738,1.70624 -0.1281,0.44915 -0.3054,0.73787 -0.6764,1.10194 -0.5677,0.55697 -0.6095,0.66752 -0.2539,0.67099 0.137,10e-4 0.4523,0.0948 0.7009,0.20766 0.4097,0.18608 0.469,0.26657 0.6362,0.86242 0.2268,0.80811 0.2286,0.95561 0.017,1.36555 -0.2278,0.4406 -0.6991,0.66032 -1.4162,0.66032 -0.4454,0 -0.6768,-0.061 -0.9014,-0.23771 l -0.3022,-0.23771 -0.5958,0.65267 c -0.3276,0.35897 -0.6264,0.76225 -0.6639,0.89617 -0.085,0.30389 0.4033,1.40493 0.8169,1.84177 0.3658,0.38634 1.436,0.94158 2.0534,1.06541 0.4932,0.0989 1.0986,0.0596 2.0623,-0.13402 z m -0.166,-2.22344 c -0.4571,-0.20746 -0.6309,-0.44779 -0.5889,-0.81419 l 0.036,-0.31099 1.3279,-0.009 c 0.7303,-0.005 1.3901,0.0384 1.4662,0.0965 0.2281,0.17431 0.158,0.46093 -0.1956,0.7997 -0.2829,0.27102 -0.4393,0.32515 -1.0236,0.35434 -0.4177,0.0209 -0.8206,-0.025 -1.0217,-0.11625 z m 4.8021,-2.2356 c 0.2732,-0.31116 0.3434,-0.49104 0.3434,-0.87962 0,-0.43191 -0.047,-0.52409 -0.4033,-0.79611 -0.4784,-0.36489 -1.0838,-0.39604 -1.5114,-0.0778 -0.8174,0.60831 -0.7326,1.41681 0.1996,1.90368 0.6561,0.34271 0.969,0.30845 1.3717,-0.15019 z m -1.2225,-0.65269 c -0.1078,-0.23655 -0.096,-0.31963 0.072,-0.5049 0.3854,-0.42591 0.8778,-0.1782 0.8106,0.40782 -0.03,0.2608 -0.093,0.31658 -0.3945,0.34561 -0.2946,0.0284 -0.3819,-0.016 -0.4878,-0.24853 z m -4.9715,0.53872 c 0.257,-0.24662 0.2625,-0.28172 0.1337,-0.85708 -0.1972,-0.88122 -0.3137,-0.99243 -1.0994,-1.04926 -0.6221,-0.045 -0.6934,-0.0258 -0.9555,0.257 -0.2112,0.22793 -0.2832,0.42481 -0.2832,0.77454 0,0.40634 0.059,0.52207 0.4409,0.86721 0.4112,0.3716 0.4762,0.39383 0.9682,0.33152 0.3332,-0.0422 0.626,-0.16142 0.7953,-0.32393 z m -1.3561,-0.34325 c -0.041,-0.0406 -0.074,-0.21592 -0.074,-0.38967 0,-0.44245 0.4532,-0.65727 0.7741,-0.36688 0.4021,0.3639 0.2138,0.83032 -0.3352,0.83032 -0.1603,0 -0.3246,-0.0332 -0.3652,-0.0738 z m -1.1448,-6.41138 c -0.1111,-0.28956 0.1127,-1.17325 0.3306,-1.30541 0.1596,-0.0968 0.2325,-0.0778 0.3597,0.0934 0.2016,0.27149 0.2013,0.52198 0,1.00598 -0.1733,0.41468 -0.5645,0.53158 -0.6894,0.206 z m 4.7236,-2.69772 c -0.069,-0.12823 -0.1093,-0.39268 -0.091,-0.58766 0.026,-0.26681 0.094,-0.36303 0.2758,-0.3889 0.3032,-0.0432 0.5036,0.30187 0.4568,0.78642 -0.043,0.44 -0.4447,0.55906 -0.6421,0.19014 z m -8.608,2.29451 c -0.062,-0.0761 -0.1973,-0.39512 -0.2995,-0.70901 -0.1524,-0.4675 -0.1613,-0.61756 -0.049,-0.82992 0.2644,-0.50192 0.7027,-0.57078 1.0795,-0.16964 0.3249,0.34576 0.3334,0.7011 0.032,1.32378 -0.2564,0.52971 -0.5301,0.6678 -0.7627,0.38479 z m 0.5015,-0.60387 c 0.1827,-0.3933 0.1747,-0.63909 -0.026,-0.80582 -0.1901,-0.15771 -0.4997,-0.0747 -0.4988,0.13367 0,0.25487 0.2292,0.97174 0.3089,0.97086 0.043,-4.2e-4 0.14,-0.1349 0.2161,-0.29871 z m 13.802,-6.494 c -0.1761,-0.26869 -0.1747,-0.30425 0.025,-0.64602 0.182,-0.31163 0.2716,-0.36169 0.6476,-0.36169 0.4064,0 0.4388,0.0235 0.4697,0.34048 0.04,0.40789 -0.2409,0.7826 -0.6605,0.88178 -0.2375,0.0561 -0.332,0.014 -0.4817,-0.21455 z m 0.7139,-0.38455 c 0.061,-0.11372 0.081,-0.23645 0.045,-0.27274 -0.1065,-0.10646 -0.4795,0.14049 -0.4795,0.31742 0,0.23164 0.3036,0.20045 0.4348,-0.0447 z m -1.7361,-0.14491 c -0.1059,-0.13256 -0.3973,-0.46868 -0.6474,-0.74693 -0.547,-0.60842 -0.7071,-0.89667 -0.7071,-1.27323 0,-0.73517 1.0378,-0.99007 1.7191,-0.42224 0.2008,0.16737 0.4937,0.39377 0.6509,0.50312 0.363,0.25252 0.364,0.55853 0,1.37113 -0.3838,0.86781 -0.6585,1.02081 -1.0202,0.56815 z m 0.7007,-0.78635 c 0.2722,-0.69354 0.2483,-0.80859 -0.2118,-1.01948 -0.1922,-0.0881 -0.4802,-0.26622 -0.64,-0.39583 -0.2393,-0.19408 -0.332,-0.21345 -0.5256,-0.10981 -0.3372,0.18047 -0.2919,0.5764 0.1093,0.95493 0.1895,0.17876 0.464,0.51175 0.6101,0.73997 0.146,0.22823 0.3022,0.41486 0.3471,0.41474 0.045,-1.1e-4 0.1847,-0.26315 0.3109,-0.58452 z m -10.9454,-0.4171 c -0.3555,-0.2796 -0.5767,-1.00103 -0.4051,-1.32148 0.1538,-0.28745 0.6764,-0.29252 0.933,-0.009 0.2941,0.325 0.3588,1.07082 0.1162,1.33895 -0.2466,0.27251 -0.2877,0.27197 -0.6441,-0.008 z m 0.4357,-0.70997 c -0.072,-0.28672 -0.3422,-0.48331 -0.4779,-0.34761 -0.039,0.0387 0.016,0.25134 0.1214,0.47249 0.2189,0.45919 0.4802,0.3677 0.3565,-0.12488 z"
         style="fill:#000000;stroke-width:0.418229"
         id="path1-9" />
    </g>
  </g>
</svg>
