<?xml version="1.0" encoding="UTF-8" standalone="no"?>
<!-- Created with Inkscape (http://www.inkscape.org/) -->

<svg
   width="41.008999mm"
   height="41.008999mm"
   viewBox="0 0 41.008999 41.008999"
   version="1.1"
   id="svg1"
   inkscape:version="1.4.2 (f4327f4, 2025-05-13)"
   sodipodi:docname="316.svg"
   xmlns:inkscape="http://www.inkscape.org/namespaces/inkscape"
   xmlns:sodipodi="http://sodipodi.sourceforge.net/DTD/sodipodi-0.dtd"
   xmlns="http://www.w3.org/2000/svg"
   xmlns:svg="http://www.w3.org/2000/svg">
  <sodipodi:namedview
     id="namedview1"
     pagecolor="#ffffff"
     bordercolor="#000000"
     borderopacity="0.25"
     inkscape:showpageshadow="2"
     inkscape:pageopacity="0.0"
     inkscape:pagecheckerboard="0"
     inkscape:deskcolor="#d1d1d1"
     inkscape:document-units="mm"
     inkscape:zoom="1.4513545"
     inkscape:cx="86.470947"
     inkscape:cy="71.657199"
     inkscape:window-width="1050"
     inkscape:window-height="1081"
     inkscape:window-x="857"
     inkscape:window-y="0"
     inkscape:window-maximized="0"
     inkscape:current-layer="layer1" />
  <defs
     id="defs1" />
  <g
     inkscape:label="Layer 1"
     inkscape:groupmode="layer"
     id="layer1"
     transform="translate(333.37504,1257.5646)">
    <g
       id="g99"
       transform="translate(-1374.0381,-983.09587)">
      <circle
         style="fill:none;stroke:#ff0000;stroke-width:0.1;stroke-dasharray:none"
         id="path788-8-1-8-1-9-2-2-9-1-6-9-2-5"
         cx="1061.1676"
         cy="-253.96423"
         r="19.954653" />
      <ellipse
         style="fill:none;stroke:#ff00ff;stroke-width:0.1;stroke-dasharray:none;stroke-opacity:1"
         id="path1138-9-4-0-0-1-2-8-1-8-1-17-8-0"
         cx="1061.1676"
         cy="-253.96423"
         rx="18.492125"
         ry="18.492126" />
      <circle
         style="fill:none;stroke:#0000ff;stroke-width:0.1;stroke-linecap:round;stroke-dasharray:none;stroke-opacity:1;paint-order:markers stroke fill"
         id="path13019-1-33-4-5-5-2-4-2-9"
         cx="1061.1676"
         cy="-268.97519"
         r="2" />
      <path
         style="fill:#000000;stroke-width:0.202783"
         d="m 1057.0203,-239.07095 c -0.4018,-0.14804 -0.553,-0.39771 -0.5286,-0.87258 0,-0.0634 0.097,-0.25063 0.2081,-0.41604 l 0.2022,-0.30072 -0.091,-1.08625 c -0.05,-0.59744 -0.093,-1.35323 -0.095,-1.67952 v -0.59327 l -0.2147,-0.0947 c -0.2462,-0.10867 -0.4524,-0.41728 -0.5073,-0.75982 -0.044,-0.27219 0.088,-1.17107 0.2574,-1.75407 0.166,-0.57176 0.4653,-1.29607 0.7606,-1.84077 l 0.234,-0.43156 -0.4662,-0.15077 c -1.6645,-0.53829 -3.0401,-1.69839 -3.5144,-2.96397 -0.2404,-0.64174 -0.2722,-0.82581 -0.2716,-1.57522 0,-0.81741 -0.01,-0.77371 0.6378,-3.00456 0.9112,-3.14461 1.4752,-4.44462 2.3367,-5.3861 1.0646,-1.16344 2.7823,-1.78193 4.6375,-1.66987 1.7993,0.10866 3.6759,0.58073 4.8438,1.21846 1.7409,0.95049 2.7344,2.40886 3.1354,4.6024 0.1667,0.91154 0.1661,2.79735 0,3.57459 -0.3307,1.53736 -0.9239,2.65087 -1.9318,3.62653 -0.7382,0.7145 -1.539,1.2229 -2.5586,1.62437 -0.2066,0.0814 -0.3846,0.15608 -0.3955,0.16611 -0.011,0.0101 0.097,0.19439 0.2398,0.40969 0.3858,0.58152 0.9596,1.74407 1.1537,2.33735 0.2267,0.69286 0.2713,1.34399 0.1132,1.65246 -0.1943,0.37892 -0.4721,0.55979 -0.8599,0.55971 l -0.1977,-4e-5 0.016,0.76459 c 0.01,0.42053 -0.01,1.1509 -0.031,1.62304 l -0.047,0.85845 0.1745,0.16096 c 0.3512,0.32389 0.4314,0.68552 0.2213,0.99724 -0.2762,0.40986 -0.8211,0.54333 -1.6408,0.40188 -0.5699,-0.0983 -0.9191,-0.24632 -1.1062,-0.46872 -0.1372,-0.163 -0.3499,-0.76465 -0.3499,-0.9897 v -0.12849 h -0.6631 c -0.8398,0 -1.1509,0.0407 -1.182,0.15466 -0.013,0.0477 -0.039,0.19969 -0.058,0.3377 -0.018,0.138 -0.087,0.33116 -0.1521,0.42923 -0.2801,0.42323 -1.7848,0.85889 -2.3049,0.66731 z m 1.1101,-0.57108 c 0.7561,-0.19044 0.8667,-0.30853 0.9241,-0.98711 0.019,-0.22542 0.049,-0.41848 0.067,-0.42901 0.017,-0.0106 0.6267,-0.0367 1.3533,-0.0582 l 1.3209,-0.0391 0.039,0.36237 c 0.053,0.49252 0.1633,0.84088 0.3108,0.97944 0.2873,0.26989 1.5196,0.41308 1.8261,0.21221 0.081,-0.0528 0.1452,-0.14465 0.1452,-0.20657 0,-0.1128 -0.2852,-0.43815 -0.4244,-0.48392 -0.061,-0.0203 -0.072,-0.15513 -0.054,-0.71953 0.012,-0.38204 0.022,-1.23894 0.021,-1.90421 v -1.20959 l -0.2216,-0.26587 c -0.5311,-0.6375 -0.8071,-1.63252 -0.5046,-1.81947 0.1034,-0.0639 0.3088,0.21336 0.3783,0.51053 0.1636,0.69971 0.6574,1.33816 1.0348,1.33816 0.2182,0 0.382,-0.14034 0.4681,-0.40113 0.1681,-0.50936 -0.4345,-2.10889 -1.2764,-3.38845 -0.1773,-0.26946 -0.3429,-0.50231 -0.3678,-0.51745 -0.025,-0.0151 -0.2748,0.0193 -0.5551,0.0766 -1.0831,0.22114 -3.13,0.17849 -4.4159,-0.092 -0.2015,-0.0423 -0.3971,-0.0771 -0.4347,-0.0771 -0.096,0 -0.7357,1.27232 -0.9302,1.85121 -0.2196,0.65375 -0.3525,1.3153 -0.358,1.78224 -0.01,0.46957 0.089,0.60169 0.4626,0.64375 0.2161,0.0244 0.2507,0.0114 0.3802,-0.14249 0.1641,-0.19501 0.3357,-0.70984 0.4197,-1.25906 0.063,-0.41007 0.1667,-0.58257 0.336,-0.55752 0.1641,0.0243 0.1993,0.26823 0.1115,0.77225 -0.1452,0.83233 -0.4327,1.40137 -0.8109,1.60505 l -0.1951,0.10511 0.033,0.85914 c 0.018,0.47254 0.07,1.24379 0.1162,1.71392 l 0.083,0.85476 -0.2156,0.3073 c -0.2447,0.34894 -0.2717,0.53873 -0.095,0.66624 0.1407,0.10144 0.3726,0.0829 1.0291,-0.0825 z m 3.9878,-9.35942 c 0.9214,-0.13934 1.7448,-0.38729 2.4542,-0.73907 1.9359,-0.95989 3.1459,-2.56886 3.5507,-4.72109 0.1267,-0.67414 0.125,-2.41574 0,-3.17938 -0.4715,-2.80939 -2.0075,-4.39292 -4.9693,-5.12298 -1.3283,-0.32742 -2.5514,-0.46034 -3.4807,-0.37827 -2.3638,0.20875 -3.6273,1.22396 -4.6098,3.70387 -0.2807,0.70832 -0.5311,1.48453 -1.0082,3.12528 -0.1008,0.34674 -0.271,0.92619 -0.3782,1.28767 -0.1825,0.61542 -0.1951,0.70507 -0.1975,1.40839 0,0.67353 0.012,0.79549 0.1399,1.18037 0.1943,0.58537 0.4768,1.04522 0.9232,1.50254 0.9757,0.99966 2.4712,1.632 4.5068,1.90561 0.8956,0.12036 2.3692,0.13334 3.072,0.027 z m -3.0183,-1.14643 c -0.671,-0.31791 -0.7662,-1.1422 -0.1749,-1.51463 0.1464,-0.0923 0.2409,-0.10678 0.581,-0.0894 0.6504,0.0333 1.1578,0.34843 1.2943,0.8041 0.082,0.27322 -0.034,0.52008 -0.3399,0.72241 -0.196,0.12984 -0.2862,0.15145 -0.6858,0.16437 -0.3628,0.0117 -0.5056,-0.007 -0.6747,-0.0868 z m 5.714,-2.57932 c -0.7371,-0.15318 -1.1258,-0.84807 -0.9097,-1.6262 0.1438,-0.5177 0.6677,-0.92711 1.1779,-0.92055 0.48,0.006 0.8225,0.24125 1.1204,0.76875 0.1053,0.18666 0.1402,0.75257 0.061,0.99232 -0.1803,0.54631 -0.8514,0.91003 -1.4496,0.78568 z m -8.8209,-1.69929 c -0.1869,-0.0596 -0.3508,-0.17217 -0.5656,-0.38837 -0.4361,-0.4391 -0.5125,-0.62457 -0.5125,-1.24337 0,-0.46129 0.016,-0.54386 0.1703,-0.86922 0.2089,-0.44087 0.5692,-0.81145 0.9655,-0.99286 0.2538,-0.11619 0.3524,-0.13275 0.6598,-0.11076 0.4554,0.0326 0.8154,0.21988 1.2414,0.64568 0.5853,0.58534 0.7812,1.30034 0.5152,1.8813 -0.182,0.3976 -0.5522,0.7573 -0.9904,0.96239 -0.4364,0.2042 -1.0541,0.25217 -1.4837,0.11521 z"
         id="path92" />
    </g>
  </g>
</svg>
