<?xml version="1.0" encoding="UTF-8" standalone="no"?>
<!-- Created with Inkscape (http://www.inkscape.org/) -->

<svg
   width="41.008999mm"
   height="41.008999mm"
   viewBox="0 0 41.008999 41.008999"
   version="1.1"
   id="svg1"
   inkscape:version="1.4.2 (f4327f4, 2025-05-13)"
   sodipodi:docname="354.svg"
   xmlns:inkscape="http://www.inkscape.org/namespaces/inkscape"
   xmlns:sodipodi="http://sodipodi.sourceforge.net/DTD/sodipodi-0.dtd"
   xmlns="http://www.w3.org/2000/svg"
   xmlns:svg="http://www.w3.org/2000/svg">
  <sodipodi:namedview
     id="namedview1"
     pagecolor="#ffffff"
     bordercolor="#000000"
     borderopacity="0.25"
     inkscape:showpageshadow="2"
     inkscape:pageopacity="0.0"
     inkscape:pagecheckerboard="0"
     inkscape:deskcolor="#d1d1d1"
     inkscape:document-units="mm"
     inkscape:zoom="1.4513545"
     inkscape:cx="86.470947"
     inkscape:cy="71.657199"
     inkscape:window-width="1050"
     inkscape:window-height="1081"
     inkscape:window-x="857"
     inkscape:window-y="0"
     inkscape:window-maximized="0"
     inkscape:current-layer="layer1"
     showguides="false" />
  <defs
     id="defs1" />
  <g
     inkscape:label="Layer 1"
     inkscape:groupmode="layer"
     id="layer1"
     transform="translate(333.37504,1257.5646)">
    <g
       id="g1"
       transform="translate(-1338.1552,-982.69912)">
      <path
         style="fill:#000000;stroke-width:0.293109"
         d="m 1020.3403,-240.16467 -4.8281,-4.82857 0.2081,-0.20807 0.208,-0.20807 -1.409,-1.3971 c -1.3878,-1.376 -1.4077,-1.40036 -1.3161,-1.6134 0.051,-0.11896 0.1047,-0.23213 0.1189,-0.25147 0.014,-0.0193 0.6987,0.63692 1.5209,1.45837 l 1.4951,1.49354 0.5903,-0.19816 c 0.7834,-0.26298 1.5882,-0.26758 2.3344,-0.0134 l 0.5307,0.18081 -0.9396,-0.94179 -0.9395,-0.9418 0.09,-0.25749 0.09,-0.2575 1.8314,1.8266 1.8313,1.82661 0.4925,-0.49846 c 0.459,-0.46451 1.3968,-1.04425 1.6894,-1.04425 0.2036,0 0.1012,-0.15923 -0.5106,-0.79457 l -0.6166,-0.64013 0.3191,-0.0245 c 0.3079,-0.0237 0.3424,-0.001 0.9864,0.63979 l 0.6674,0.66428 h 0.4266 0.4266 l 0.6948,-0.69797 c 0.6297,-0.6327 0.722,-0.69797 0.9871,-0.69797 0.1609,0 0.2925,0.0251 0.2925,0.0558 0,0.0306 -0.3228,0.35892 -0.7174,0.72942 -0.6213,0.58346 -0.6966,0.68075 -0.5622,0.72684 0.6345,0.21769 1.3449,0.64722 1.7862,1.07984 l 0.4918,0.48225 1.9195,-1.92061 1.9194,-1.9206 0.2181,0.12881 c 0.1199,0.0709 0.2181,0.15199 0.2181,0.1803 0,0.0283 -0.1658,0.20697 -0.3684,0.39703 -0.2026,0.19004 -0.7115,0.6951 -1.131,1.12235 l -0.7626,0.7768 0.5687,-0.19085 c 0.478,-0.16037 0.674,-0.1854 1.228,-0.15672 0.3689,0.0191 0.8383,0.0991 1.066,0.18168 l 0.4069,0.14756 0.7191,-0.71608 c 0.6452,-0.64252 0.7483,-0.71607 1.0038,-0.71607 0.1567,0 0.3025,0.0286 0.3241,0.0635 0.022,0.035 -0.3244,0.42611 -0.769,0.86919 l -0.8084,0.8056 0.277,0.22829 0.2769,0.22827 -4.8347,4.83523 c -2.6592,2.65937 -4.8525,4.83522 -4.874,4.83522 -0.022,0 -2.2119,-2.17287 -4.8674,-4.82858 z m 9.3656,-0.33119 4.459,-4.46181 -0.1939,-0.15162 c -0.5232,-0.40913 -1.5493,-0.61664 -2.2912,-0.46334 -0.9113,0.18828 -1.0696,0.31528 -3.8756,3.10942 l -2.6382,2.62706 -2.6298,-2.63064 c -2.4449,-2.44567 -2.6683,-2.64843 -3.1781,-2.88392 -0.4818,-0.22253 -0.6284,-0.25345 -1.2076,-0.25461 -0.7042,-0.001 -1.0785,0.092 -1.6166,0.40358 l -0.337,0.19515 4.4857,4.48626 c 2.4672,2.46745 4.5035,4.48628 4.5251,4.48628 0.022,0 2.0458,-2.00782 4.4982,-4.46181 z m -1.4003,-3.49602 c -0.062,-0.11581 -0.3148,-0.41336 -0.5624,-0.66122 -1.5965,-1.59806 -4.2748,-1.35422 -5.5534,0.50558 l -0.2197,0.31953 1.5994,1.64552 1.5994,1.64552 1.6244,-1.62218 1.6244,-1.62219 z m 6.7995,-3.8019 c -1.5729,-0.3373 -3.1182,-1.3304 -4.0562,-2.6067 -0.1489,-0.2026 -0.3026,-0.36836 -0.3417,-0.36836 -0.04,0 -0.071,0.58832 -0.071,1.35715 v 1.35714 h -2.4816 -2.4816 v -1.86123 -1.86123 h -0.5042 -0.504 v 1.86123 1.86123 h -2.5195 -2.5196 l -0.02,-3.07662 -0.02,-3.07662 -1.0126,3.05723 -1.0126,3.05724 h -1.274 -1.274 l -0.6006,-1.39592 c -0.3303,-0.76776 -0.6115,-1.42663 -0.6249,-1.46416 -0.013,-0.0375 -0.302,0.5997 -0.6414,1.41606 l -0.617,1.48429 -1.2717,-0.0201 -1.2716,-0.0201 -0.3829,-1.12449 c -1.5151,-4.44847 -3.7039,-10.99062 -3.7042,-11.0715 -2e-4,-0.0774 0.5564,-0.0937 2.6527,-0.0776 l 2.653,0.0204 0.4107,1.31838 c 0.2258,0.7251 0.4227,1.35327 0.4374,1.39592 0.015,0.0427 0.4006,-0.6678 0.8573,-1.5788 0.4567,-0.91099 0.8498,-1.63693 0.8735,-1.6132 0.024,0.0238 0.4043,0.76669 0.8456,1.65104 0.4428,0.88725 0.8207,1.55813 0.8433,1.49688 0.022,-0.0611 0.2259,-0.68684 0.4521,-1.39062 l 0.4113,-1.2796 4.1263,-0.0201 4.1264,-0.0201 v 1.82313 1.82315 h 0.5041 0.5041 v -1.8225 -1.82246 h 2.5186 2.5187 l 0.021,1.35938 0.021,1.35937 0.4895,-0.58679 c 0.9114,-1.09234 2.1696,-1.9255 3.4822,-2.30588 0.5147,-0.14914 0.787,-0.17496 1.8446,-0.17496 1.3753,0 2.0049,0.12557 2.9032,0.57899 1.5115,0.76304 2.7827,2.17116 3.3331,3.69227 0.3296,0.91082 0.421,1.53844 0.3764,2.58503 -0.031,0.73813 -0.083,1.03043 -0.2856,1.6355 -0.7326,2.18346 -2.5208,3.86801 -4.6915,4.41965 -0.7453,0.18939 -2.2082,0.20338 -3.0219,0.0289 z m 2.8598,-0.76319 c 0.8087,-0.20663 1.8174,-0.75697 2.4341,-1.32791 1.3113,-1.21401 1.9528,-2.6332 1.9598,-4.335 0,-0.99527 -0.1544,-1.66911 -0.6108,-2.59798 -0.3087,-0.62835 -0.471,-0.84578 -1.1031,-1.47789 -0.6323,-0.63225 -0.8494,-0.79432 -1.4779,-1.10301 -0.4052,-0.19903 -0.9636,-0.41464 -1.2409,-0.47915 -0.6878,-0.16002 -2.2061,-0.15655 -2.8644,0.007 -2.2193,0.5498 -3.9308,2.37385 -4.3482,4.63417 -0.1182,0.63972 -0.062,1.81675 0.1188,2.4908 0.6004,2.23841 2.5175,3.93106 4.8818,4.31026 0.5322,0.0854 1.6864,0.0233 2.2508,-0.12082 z m -2.2318,-0.35743 c -1.6774,-0.22511 -3.2959,-1.41498 -4.052,-2.97894 -1.101,-2.27701 -0.5758,-4.78877 1.341,-6.41427 1.5963,-1.35363 4.0271,-1.62815 5.9377,-0.67055 1.3706,0.68695 2.4638,2.05148 2.8059,3.50223 0.1492,0.63295 0.1476,1.91314 0,2.49996 -0.688,2.67723 -3.289,4.42934 -6.0294,4.06157 z m 1.7824,-2.79767 c 0.6159,-0.23045 1.2524,-0.86943 1.4942,-1.50022 0.4116,-1.07316 0.1597,-2.20586 -0.6635,-2.98442 -0.7656,-0.72409 -1.6535,-0.93495 -2.6554,-0.63063 -0.6537,0.19856 -1.3,0.73836 -1.6278,1.35951 -0.1878,0.35593 -0.2083,0.47519 -0.2083,1.20917 0,0.70325 0.025,0.86029 0.18,1.15159 0.3501,0.65606 0.9889,1.22535 1.6333,1.45565 0.452,0.16152 1.3308,0.13267 1.8475,-0.0606 z m -1.8318,-0.46694 c -0.8828,-0.33898 -1.4505,-1.25659 -1.3831,-2.23538 0.039,-0.56991 0.1739,-0.87767 0.5811,-1.32841 0.6649,-0.73591 1.7139,-0.94153 2.5953,-0.50871 1.3468,0.66138 1.6562,2.54272 0.5943,3.6138 -0.6053,0.6106 -1.5296,0.78817 -2.3876,0.4587 z m 1.3696,-0.64791 c 0.3654,-0.15265 0.5455,-0.31786 0.7155,-0.65623 0.33,-0.65686 0.2188,-1.42233 -0.2687,-1.85044 -1.0936,-0.96012 -2.828,0.0503 -2.4435,1.42351 0.2531,0.90385 1.1985,1.4167 1.9967,1.08316 z m -24.6025,2.96931 c 0.9075,-2.24255 1.2327,-3.00512 1.2815,-3.00512 0.027,0 0.4458,0.92599 0.9295,2.05775 l 0.8795,2.05776 0.7321,-0.0221 0.732,-0.0221 1.6389,-4.8444 1.6389,-4.84441 0.02,4.8638 0.02,4.86379 h 1.7831 1.7831 v -1.90001 -1.90001 h 1.2408 1.2408 v 1.90001 1.90001 h 1.7837 1.7837 v -5.4688 -5.46882 l -1.8031,0.0208 -1.803,0.0208 -0.021,1.80307 -0.021,1.80307 h -1.2007 -1.2006 v -1.78368 -1.78368 l -3.5092,0.002 -3.5092,0.002 -0.5407,1.68441 c -0.2974,0.92642 -0.5963,1.82161 -0.6643,1.9893 l -0.1238,0.30488 -0.8837,-1.80287 -0.8838,-1.80286 -0.922,1.84266 c -0.637,1.27304 -0.9413,1.80803 -0.9845,1.73063 -0.034,-0.0616 -0.2077,-0.60059 -0.3852,-1.19774 -0.1775,-0.59715 -0.4444,-1.47833 -0.5931,-1.95818 l -0.2704,-0.87245 h -1.8569 c -1.0435,0 -1.857,0.0305 -1.857,0.0695 0,0.0516 3.397,10.19938 3.6047,10.76829 0.025,0.0682 0.2518,0.0969 0.7644,0.0969 h 0.729 z m 3.3983,0.54659 c -0.043,-0.0554 -0.5265,-1.17256 -1.0752,-2.48265 -0.5487,-1.31009 -1.0082,-2.37135 -1.0212,-2.35837 -0.013,0.013 -0.4735,1.10232 -1.0234,2.42075 l -0.9997,2.39715 -0.4226,0.0229 -0.4226,0.0229 -0.1249,-0.33311 c -0.069,-0.18321 -0.6862,-2.00822 -1.3722,-4.05558 -0.6859,-2.04736 -1.383,-4.11508 -1.5489,-4.59493 l -0.3017,-0.87246 h 1.313 c 0.7221,0 1.3385,-0.009 1.3697,-0.0194 0.031,-0.0106 0.4061,1.08923 0.8332,2.44421 l 0.7765,2.4636 0.9694,-1.94054 0.9693,-1.94054 0.9709,1.94059 0.9709,1.9406 0.489,-1.57181 c 0.269,-0.8645 0.612,-1.96441 0.7623,-2.44426 l 0.2734,-0.87246 h 1.3499 c 0.7764,0 1.35,0.0305 1.35,0.0718 0,0.0698 -2.1676,6.54815 -2.9211,8.73028 l -0.3749,1.08573 -0.3557,0.0231 c -0.2245,0.0145 -0.3844,-0.014 -0.4334,-0.0776 z m 4.9404,-4.90886 0.01,-4.92453 h 1.2757 1.2757 v 1.78368 1.78369 h 1.7449 1.7449 v -1.78369 -1.78368 h 1.2796 1.2796 v 4.92453 4.92451 h -1.2796 -1.2796 v -1.86123 -1.86124 h -1.7061 -1.7061 v 1.86124 1.86123 h -1.3201 -1.32 z m -13.9073,0.28692 c -0.4137,-0.41525 -0.7522,-0.79075 -0.7522,-0.83442 0,-0.14406 0.6934,-0.76803 0.7665,-0.68978 0.1614,0.17269 0.1646,0.39852 0.01,0.54053 -0.1585,0.14342 -0.1583,0.14397 0.1837,0.49771 0.2224,0.23008 0.3891,0.49854 0.4757,0.76631 0.073,0.22669 0.1192,0.42623 0.102,0.44341 -0.017,0.0172 -0.3697,-0.30851 -0.7834,-0.72376 z m 36.7828,-0.10608 c 0,-0.23473 0.05,-0.41956 0.1461,-0.5381 0.1442,-0.17799 0.1437,-0.18388 -0.034,-0.41728 -0.1718,-0.22531 -0.3769,-0.88626 -0.299,-0.96408 0.051,-0.0506 1.1954,1.09473 1.1954,1.19604 0,0.045 -0.2269,0.30656 -0.5041,0.58135 l -0.5041,0.49961 z m -28.5744,-5.35673 c -0.066,-0.094 -0.1197,-0.19733 -0.1197,-0.22963 0,-0.0671 0.6204,-0.39793 0.6642,-0.35416 0.067,0.0674 -0.1515,0.58404 -0.2821,0.66557 -0.1178,0.0736 -0.1636,0.0593 -0.2624,-0.0818 z m -3.2198,-0.4802 c -0.044,-0.11503 -0.08,-0.23415 -0.08,-0.2647 0,-0.0306 0.2109,-0.26384 0.4687,-0.51842 0.2676,-0.26418 0.4555,-0.51282 0.4377,-0.57921 -0.017,-0.064 -0.5249,-0.91737 -1.1285,-1.89643 l -1.0973,-1.78009 0.4076,-0.25468 c 0.6837,-0.4271 3.0608,-1.61191 4.1605,-2.07372 1.3556,-0.56923 3.437,-1.2764 4.6944,-1.59492 l 1.0022,-0.25387 1.9331,-1.93749 c 1.0633,-1.06562 2.0544,-2.04393 2.2026,-2.17404 l 0.2694,-0.23656 2.1851,2.17471 2.185,2.17472 0.8919,0.20973 c 2.5046,0.589 6.1889,2.09396 8.7827,3.58764 0.6087,0.35056 0.6564,0.39817 0.5311,0.53028 -0.038,0.0405 -0.4776,0.76664 -0.976,1.61359 l -0.906,1.53992 0.2198,0.23269 0.2198,0.23268 -0.504,-0.0549 c -0.2773,-0.0302 -0.5332,-0.0822 -0.5687,-0.11558 -0.036,-0.0334 0.3777,-0.81761 0.9184,-1.74279 0.5407,-0.92519 0.9711,-1.69373 0.9564,-1.70788 -0.077,-0.0741 -2.0513,-1.11341 -2.5857,-1.36089 -1.2234,-0.56652 -1.4858,-0.68036 -2.3654,-1.02608 -1.8006,-0.70781 -3.9488,-1.32559 -5.601,-1.61066 -4.1924,-0.72341 -8.2818,-0.1081 -13.3226,2.00456 -1.1259,0.47187 -3.8224,1.80707 -4.0131,1.98711 -0.011,0.0105 0.467,0.81435 1.0627,1.7862 l 1.0831,1.76702 -0.1453,0.2807 c -0.1291,0.24956 -0.5676,0.71287 -1.067,1.12736 -0.1703,0.14134 -0.1736,0.14048 -0.2521,-0.066 z m 12.8058,-9.63504 c 1.6838,-0.0407 2.4072,-0.005 3.5944,0.17766 0.3046,0.0469 0.2795,0.0168 -1.3953,-1.66743 -0.938,-0.94333 -1.7307,-1.71515 -1.7616,-1.71515 -0.048,0 -3.4738,3.39739 -3.4738,3.44512 0,0.01 0.2705,-0.0307 0.601,-0.0893 0.3306,-0.0586 1.4265,-0.12651 2.4353,-0.15089 z m 7.5883,9.05366 c -0.5114,-0.26904 -2.3651,-0.92486 -3.2954,-1.16587 -0.9715,-0.25166 -2.1619,-0.46846 -2.5598,-0.4662 l -0.2326,0.001 0.4265,0.41121 c 0.2346,0.22617 0.493,0.48717 0.5743,0.58001 l 0.1477,0.1688 h -0.3161 c -0.2929,0 -0.3609,-0.0457 -0.9233,-0.62005 -0.531,-0.5424 -0.6413,-0.62009 -0.8803,-0.62041 -0.2387,-3e-4 -0.3514,0.0782 -0.8901,0.62004 -0.5886,0.59217 -0.6326,0.62042 -0.9656,0.62042 h -0.3489 l 0.5778,-0.58164 c 0.5406,-0.54425 0.5642,-0.58163 0.3659,-0.58163 -0.7655,0 -3.0471,0.48689 -4.3579,0.92998 -0.5543,0.18736 -0.8133,0.232 -1.3154,0.22675 l -0.6253,-0.006 0.3435,-0.15757 c 0.5627,-0.25811 2.0153,-0.74101 2.9678,-0.9866 3.1081,-0.80138 5.6347,-0.76877 8.6649,0.11182 0.8887,0.25825 2.689,0.94431 3.2983,1.25689 l 0.3051,0.15652 -0.244,0.12621 c -0.3037,0.15703 -0.3787,0.15458 -0.7171,-0.0234 z m -18.3773,-2.24727 c -0.4891,-0.88937 -0.8854,-1.64582 -0.8806,-1.68099 0.02,-0.14436 1.6233,-0.89432 2.0027,-0.93651 0.7703,-0.0857 1.3979,0.22745 1.7999,0.8981 0.455,0.75911 0.4164,1.43244 -0.1231,2.1462 -0.2281,0.30178 -0.4459,0.46323 -1.0595,0.78538 -0.4249,0.22304 -0.7899,0.40537 -0.8112,0.40519 -0.021,-1.9e-4 -0.439,-0.728 -0.9282,-1.61737 z m 1.7062,0.18541 c 0.4642,-0.24004 0.59,-0.8529 0.2864,-1.39462 -0.2371,-0.42278 -0.6381,-0.61888 -1.0429,-0.50989 -0.5997,0.1615 -0.6052,0.19354 -0.1654,0.9752 0.4807,0.85436 0.6009,1.04695 0.6536,1.04695 0.023,0 0.1432,-0.0529 0.2683,-0.11764 z m 19.1545,1.08165 c -0.2337,-0.10875 -0.4485,-0.23605 -0.4775,-0.28287 -0.029,-0.0468 -0.077,-0.39398 -0.1069,-0.77144 -0.03,-0.37746 -0.08,-0.70188 -0.1104,-0.72093 -0.031,-0.019 -0.1749,0.21104 -0.3202,0.5113 -0.1453,0.30027 -0.2895,0.56163 -0.3205,0.58081 -0.044,0.0275 -0.7946,-0.30459 -0.9014,-0.39905 -0.022,-0.0197 1.5929,-3.28393 1.6661,-3.36722 0.049,-0.0552 1.4285,0.63712 1.6713,0.83848 0.3039,0.25195 0.4487,0.56095 0.4484,0.95631 -6e-4,0.59604 -0.4013,1.04519 -1.0049,1.12615 -0.1723,0.0231 -0.3123,0.081 -0.3112,0.12873 10e-4,0.0477 0.07,0.38337 0.1531,0.74592 0.2262,0.9866 0.2483,0.94909 -0.386,0.65381 z m 0.3217,-2.48829 c 0.1981,-0.17927 0.1823,-0.53249 -0.031,-0.68155 -0.095,-0.0664 -0.1989,-0.12072 -0.2313,-0.12072 -0.033,0 -0.1478,0.17525 -0.2564,0.38945 l -0.1973,0.38946 0.1766,0.0709 c 0.2624,0.10536 0.3816,0.0949 0.539,-0.0476 z m -16.3927,0.88317 c -1.1682,-0.38854 -1.7182,-1.67403 -1.1792,-2.75575 0.7741,-1.55337 3.0907,-1.58831 3.8036,-0.0574 0.6206,1.33276 -0.3154,2.80506 -1.8328,2.88289 -0.2773,0.0142 -0.6335,-0.0172 -0.7916,-0.0698 z m 1.1808,-1.06579 c 0.7314,-0.37314 0.7289,-1.36646 0,-1.7457 -0.2895,-0.14972 -0.5687,-0.14518 -0.9056,0.0147 -0.3955,0.18765 -0.5808,0.52178 -0.5417,0.97639 0.035,0.40835 0.1984,0.64275 0.5585,0.80167 0.3264,0.14407 0.5408,0.13277 0.8933,-0.0471 z m 10.2636,1.08421 c -0.4302,-0.1329 -0.9852,-0.56642 -1.2261,-0.95786 -0.4702,-0.76402 -0.3189,-1.89308 0.3301,-2.4629 0.4156,-0.36493 0.8403,-0.52845 1.3774,-0.53039 0.9228,-0.003 1.6328,0.42086 2.0163,1.20469 0.1816,0.37126 0.204,0.49489 0.1715,0.94863 -0.056,0.785 -0.3985,1.30282 -1.0972,1.65962 -0.363,0.18533 -1.1853,0.25763 -1.572,0.13821 z m 1.0082,-1.03527 c 0.778,-0.32508 0.7947,-1.41574 0.027,-1.77991 -0.3319,-0.15747 -0.5244,-0.16253 -0.8594,-0.0226 -0.7716,0.32241 -0.7959,1.40436 -0.04,1.77681 0.3215,0.15839 0.5389,0.16479 0.8719,0.0257 z m -7.9364,0.20491 c -0.458,-0.16163 -1.1009,-0.80731 -1.2262,-1.23148 -0.126,-0.42647 -0.1194,-1.06054 0.014,-1.38086 0.1512,-0.36189 0.6343,-0.87689 1.0104,-1.07709 0.4605,-0.24511 1.4971,-0.24058 1.9662,0.009 0.3636,0.19314 0.3638,0.18859 -0.037,0.68404 l -0.2587,0.31957 -0.3453,-0.12417 c -0.3088,-0.11105 -0.3802,-0.11203 -0.6749,-0.009 -0.6104,0.21263 -0.8644,0.90316 -0.5324,1.44762 0.3272,0.53659 0.9011,0.60628 1.6427,0.1995 0.027,-0.0148 0.1789,0.14996 0.3376,0.36613 0.3426,0.46669 0.3134,0.53754 -0.319,0.77416 -0.4991,0.18672 -1.0901,0.19546 -1.5778,0.0234 z m 3.4295,0.0799 c -0.207,-0.0399 -0.2101,-0.11715 -0.071,-1.78003 l 0.092,-1.09802 -0.2719,-0.045 c -0.1496,-0.0247 -0.3897,-0.0454 -0.5336,-0.0459 l -0.2617,-9.5e-4 0.035,-0.42644 c 0.019,-0.23455 0.05,-0.44047 0.068,-0.45761 0.018,-0.0171 0.7057,0.025 1.5286,0.0938 l 1.4963,0.12497 -0.023,0.42958 -0.023,0.42957 -0.5169,-0.0237 c -0.444,-0.0203 -0.5224,-0.004 -0.556,0.11633 -0.021,0.077 -0.082,0.72455 -0.1348,1.43899 l -0.096,1.29899 -0.2789,-0.0105 c -0.1535,-0.006 -0.3575,-0.0257 -0.4535,-0.0442 z"
         id="path1-20"
         sodipodi:nodetypes="ccccsssscsscccccccssscsccccsssssscccsssscssscsssscccssscscssscsscscsssssscccccscssscccccccccccccccccssscccssscssssssscccccccccccccssssssssccsssssssssssssssssscsssssssscsssssssssssssssscccccccccccccccccccccccccccccsscccsssscsssscssssscccssscscscccccsscssscssscccccccccccccccccccccccccssssssssssssssscssssssssssscssscsscccsssscccsssssssssscsssssssssscsccsscsscsscsssscsssscsccssssssssssssssssssssssscscsssssscsscssscssssssssssssssssssssssssssscsssssssscsccccssccccssscscc" />
      <path
         id="path2-7"
         style="vector-effect:non-scaling-stroke;fill:none;stroke:#ff0000;stroke-width:0.264583;stroke-dasharray:none;stroke-opacity:1;-inkscape-stroke:hairline"
         d="m 1025.0577,-273.87222 c -1.405,1.25283 -2.6919,2.62883 -4.0327,3.94899 -0.1995,0.17769 -0.3655,0.4177 -0.601,0.54006 -2.5912,0.64015 -5.1233,1.53327 -7.5115,2.72855 -1.0542,0.51011 -2.0893,1.06305 -3.0729,1.69987 0.7789,1.27266 1.5779,2.53319 2.3294,3.82243 -0.1732,0.21125 -0.3872,0.39528 -0.5662,0.59537 -0.084,-0.22587 -0.343,-0.16983 -0.5285,-0.16608 -1.7203,2.9e-4 -3.4433,-0.0688 -5.1619,0.0161 -0.3139,0.0435 -0.6005,0.38992 -0.4324,0.70115 0.4416,1.39564 0.9107,2.78222 1.3747,4.17063 -0.4058,0.0622 -0.6961,0.39977 -0.9659,0.68116 -0.2103,0.20635 -0.2955,0.55071 -0.1018,0.79755 0.428,0.50186 0.8873,0.98315 1.3822,1.42083 0.1986,0.16777 0.4409,0.42497 0.7245,0.27771 0.093,0.0647 0.1172,0.31988 0.1841,0.45662 0.5236,1.55307 1.0503,3.10508 1.578,4.65674 1.0583,0.0166 2.1167,0.0343 3.175,0.0504 0.072,-0.13462 0.1083,-0.29694 0.2148,-0.0726 0.711,0.77977 1.4896,1.49512 2.2296,2.24745 -0.1381,0.13816 -0.2763,0.27631 -0.4144,0.41447 3.3087,3.31148 6.6157,6.62393 9.9428,9.91702 0.184,0.31166 0.6733,0.26693 0.8503,-0.0287 3.3326,-3.29986 6.6457,-6.6186 9.9609,-9.93587 -0.1859,-0.15185 -0.371,-0.30455 -0.5565,-0.45684 0.4615,-0.48005 0.9993,-0.91511 1.3363,-1.49564 0.038,-0.12229 -0.026,-0.27291 0.1636,-0.21035 1.1039,0.0128 2.2215,-0.20596 3.1924,-0.74594 1.9331,-1.0125 3.3751,-2.93803 3.7512,-5.09331 0.2678,0.0236 0.4275,-0.25568 0.6012,-0.41706 0.3617,-0.39097 0.8461,-0.71823 1.0338,-1.23396 0.035,-0.40651 -0.3561,-0.64521 -0.5843,-0.92251 -0.3002,-0.29848 -0.5891,-0.65322 -0.9929,-0.80637 -0.1149,-0.0684 -0.3096,0.1447 -0.3277,-0.0277 -0.66,-1.90818 -2.161,-3.49788 -4.0111,-4.29793 -0.01,-0.1708 -0.2164,-0.26916 -0.3096,-0.4067 -0.1637,-0.17338 -0.3275,-0.34676 -0.4913,-0.52014 0.593,-1.0057 1.179,-2.01579 1.8005,-3.00435 0.1179,-0.38865 -0.2187,-0.71849 -0.5433,-0.86559 -2.5481,-1.47704 -5.2736,-2.64278 -8.0896,-3.50031 -0.6063,-0.17814 -1.2208,-0.3256 -1.836,-0.46925 -1.5284,-1.52068 -3.0566,-3.04143 -4.585,-4.56206 -0.036,0.0321 -0.073,0.0641 -0.1088,0.0962 z m 0.6401,2.45993 c 0.5322,0.53005 1.0717,1.05909 1.5903,1.59721 -1.4594,-0.1284 -2.9277,-0.0543 -4.3863,0.0355 0.7361,-0.73523 1.4718,-1.47089 2.2218,-2.19201 0.1914,0.18644 0.3828,0.37287 0.5742,0.55931 z"
         sodipodi:nodetypes="cccccccccccccccccccccccccccccccccccccccccccccccc" />
    </g>
  </g>
</svg>
