<?xml version="1.0" encoding="UTF-8" standalone="no"?>
<!-- Created with Inkscape (http://www.inkscape.org/) -->

<svg
   width="41.008999mm"
   height="41.008999mm"
   viewBox="0 0 41.008999 41.008999"
   version="1.1"
   id="svg1"
   inkscape:version="1.4.2 (f4327f4, 2025-05-13)"
   sodipodi:docname="356.svg"
   xmlns:inkscape="http://www.inkscape.org/namespaces/inkscape"
   xmlns:sodipodi="http://sodipodi.sourceforge.net/DTD/sodipodi-0.dtd"
   xmlns="http://www.w3.org/2000/svg"
   xmlns:svg="http://www.w3.org/2000/svg">
  <sodipodi:namedview
     id="namedview1"
     pagecolor="#ffffff"
     bordercolor="#000000"
     borderopacity="0.25"
     inkscape:showpageshadow="2"
     inkscape:pageopacity="0.0"
     inkscape:pagecheckerboard="0"
     inkscape:deskcolor="#d1d1d1"
     inkscape:document-units="mm"
     inkscape:zoom="1.4513545"
     inkscape:cx="86.470947"
     inkscape:cy="71.657199"
     inkscape:window-width="1050"
     inkscape:window-height="1081"
     inkscape:window-x="857"
     inkscape:window-y="0"
     inkscape:window-maximized="0"
     inkscape:current-layer="layer1"
     showguides="false" />
  <defs
     id="defs1" />
  <g
     inkscape:label="Layer 1"
     inkscape:groupmode="layer"
     id="layer1"
     transform="translate(333.37504,1257.5646)">
    <g
       id="g169"
       transform="translate(-409.43059,-1177.8692)">
      <path
         style="fill:#000000;stroke-width:0.218855"
         d="m 94.305918,-40.643147 c -2.783247,-0.239892 -4.60083,-0.91659 -5.704,-2.123633 l -0.298306,-0.326396 -1.59983,0.0034 c -1.768063,0.0037 -2.086869,-0.03868 -2.444456,-0.325 -0.326086,-0.261094 -0.461597,-0.553163 -0.459749,-0.990895 8.75e-4,-0.207013 0.03914,-0.480615 0.08503,-0.608006 0.04589,-0.127393 0.08384,-0.234315 0.08432,-0.237605 4.37e-4,-0.0033 -0.188045,-0.130794 -0.418942,-0.283347 -0.572641,-0.378337 -1.267773,-0.906014 -1.736692,-1.318329 l -0.390389,-0.343264 -0.175892,0.148006 c -0.307969,0.259135 -0.700488,0.27158 -1.005233,0.03187 -0.252591,-0.198689 -1.039737,-1.862518 -1.394796,-2.948245 -0.08853,-0.270709 -0.181584,-0.514754 -0.206794,-0.542328 -0.02522,-0.02758 -0.105918,-0.0081 -0.179411,0.04343 -0.279629,0.19586 -0.85765,0.08073 -1.047214,-0.20858 -0.177248,-0.270516 -0.508645,-1.265677 -0.663402,-1.992151 -0.150459,-0.706302 -0.15886,-0.826905 -0.158839,-2.280239 2.4e-5,-1.589858 0.05891,-2.256346 0.322319,-3.648042 0.536487,-2.834501 1.675645,-5.638714 3.23443,-7.962045 0.313022,-0.466549 0.797887,-1.118307 1.344303,-1.807016 0.06447,-0.08126 0.216126,-1.293303 0.217901,-1.741503 0.0013,-0.322118 -0.09743,-0.631148 -0.239113,-0.748639 -0.06672,-0.05533 -0.144926,-0.05058 -0.370878,0.02251 -0.451069,0.14591 -1.555089,0.131411 -2.149572,-0.02823 -0.949389,-0.254948 -2.104916,-0.83907 -2.291474,-1.158347 -0.215531,-0.368858 -0.06544,-0.890995 0.312266,-1.086315 0.150652,-0.07791 0.278063,-0.08949 0.653999,-0.05947 0.560645,0.04476 1.026807,-0.05883 1.430547,-0.317907 0.268555,-0.172332 0.863521,-0.764806 1.52628,-1.519884 0.706642,-0.805074 1.58879,-1.386076 2.43191,-1.60171 0.960676,-0.245699 2.478957,-0.101514 3.28922,0.312365 l 0.393832,0.201167 0.06488,-0.142392 c 0.03568,-0.07832 0.154177,-0.197583 0.263322,-0.265038 0.174393,-0.107781 0.311792,-0.126067 1.13369,-0.150882 1.855887,-0.05603 3.444051,0.285349 5.756009,1.237278 l 0.477855,0.196754 0.86548,-0.520891 c 1.309697,-0.788244 2.039859,-1.141858 3.120078,-1.511036 1.011818,-0.345802 2.645773,-0.619598 3.043033,-0.50991 0.46921,0.129556 0.69633,0.703736 0.44612,1.127818 l -0.1251,0.21204 0.14216,-0.03568 c 0.9587,-0.240618 2.21978,-0.145218 2.71234,0.205188 0.32972,0.234571 0.35244,0.850073 0.0428,1.15971 l -0.16727,0.167269 0.14634,0.05564 c 0.23729,0.09022 0.26812,0.07444 0.69046,-0.353346 0.46423,-0.470211 1.02526,-0.900938 1.45372,-1.116077 0.68651,-0.344712 2.17378,-0.487754 3.04992,-0.293333 0.99218,0.220171 1.73995,0.747546 2.83955,2.002615 0.79453,0.906879 1.14856,1.211812 1.61438,1.39051 0.26859,0.103032 0.38668,0.112834 0.97166,0.08065 0.60664,-0.03338 0.68297,-0.0261 0.85759,0.08175 0.32085,0.198171 0.44518,0.6487 0.27163,0.984315 -0.11552,0.223387 -0.35769,0.398243 -0.98446,0.710807 -1.25899,0.627853 -2.52548,0.822734 -3.47996,0.535478 -0.25437,-0.07655 -0.28904,-0.07519 -0.38954,0.01529 -0.23778,0.214086 -0.27746,0.661926 -0.14917,1.68359 l 0.068,0.54197 0.51783,0.645091 c 2.30408,2.870293 3.86091,6.500155 4.41176,10.286344 0.23534,1.617627 0.26393,3.624824 0.0672,4.719295 -0.22116,1.23046 -0.63964,2.324611 -0.95061,2.48542 -0.22852,0.118173 -0.64115,0.117059 -0.8114,-0.0022 -0.0735,-0.05146 -0.15342,-0.071 -0.17767,-0.04343 -0.0242,0.02757 -0.12654,0.290603 -0.22731,0.584512 -0.3414,0.995712 -0.98201,2.407228 -1.26117,2.778838 -0.27248,0.362733 -0.85849,0.386696 -1.17658,0.04811 l -0.13519,-0.143903 -0.32459,0.296867 c -0.44069,0.403059 -1.24745,1.022287 -1.8419,1.413767 -0.42504,0.279911 -0.48568,0.340158 -0.45105,0.448169 0.0662,0.206656 0.10239,0.832263 0.0609,1.05353 -0.0506,0.269515 -0.39552,0.649667 -0.72722,0.801428 -0.24308,0.111215 -0.37559,0.119687 -1.97376,0.126189 l -1.71318,0.007 -0.40036,0.404709 c -1.06099,1.072485 -2.49427,1.653151 -4.851514,1.965493 -0.815702,0.108084 -4.21976,0.160281 -5.161159,0.07914 z m 4.893009,-1.007272 c 1.501933,-0.182346 2.441643,-0.434522 3.329563,-0.893505 0.71915,-0.371743 1.4302,-1.067274 1.72739,-1.689676 0.33316,-0.697728 0.41001,-1.106319 0.4081,-2.169852 -0.003,-1.836415 -0.38179,-3.465146 -1.18418,-5.095681 -0.21941,-0.445871 -0.55706,-1.024988 -0.75033,-1.286923 -0.30339,-0.411189 -0.38463,-0.485038 -0.59467,-0.540577 -0.50068,-0.132389 -1.95905,-0.724143 -3.02273,-1.226519 -1.512244,-0.714227 -2.290779,-1.068289 -2.45547,-1.116693 l -0.139251,-0.04093 0.03676,0.426562 c 0.122053,1.416402 0.167608,4.445419 0.09654,6.41897 -0.04073,1.131046 -0.09002,2.251878 -0.109533,2.490739 l -0.03547,0.43429 -0.04221,-0.376385 c -0.168698,-1.504197 -0.196341,-6.636973 -0.04629,-8.595547 0.03157,-0.412148 0.04553,-0.761237 0.03101,-0.775756 -0.03795,-0.03794 -0.720412,0.258072 -1.852703,0.803599 -1.517288,0.731013 -3.515606,1.561146 -3.758037,1.561146 -0.154426,0 -0.944784,1.124697 -1.322484,1.881925 -0.4783,0.958912 -0.864669,2.176026 -1.066151,3.358516 -0.143683,0.843278 -0.143679,2.586675 9e-6,3.096953 0.588547,2.090113 2.46525,3.132544 6.146663,3.414215 0.975615,0.07465 3.727294,0.0275 4.603481,-0.07887 z m -12.539572,-2.15872 c 0.07903,-0.04477 0.15698,-0.04604 0.260573,-0.0042 0.0813,0.03279 0.494079,0.07271 0.917294,0.08871 l 0.769482,0.02909 -0.06635,-0.145609 c -0.06467,-0.141929 -0.08427,-0.146206 -0.775618,-0.169223 -0.726365,-0.02418 -0.971358,-0.09713 -1.054578,-0.313991 -0.0983,-0.256159 0.394117,-0.978565 0.812566,-1.192091 l 0.239876,-0.122404 -0.839627,-0.218964 c -0.461798,-0.120432 -1.065547,-0.298967 -1.341668,-0.39675 -0.27612,-0.09778 -0.517152,-0.177782 -0.535626,-0.177782 -0.01847,0 -0.03358,0.169313 -0.03358,0.376251 0,0.337597 -0.02079,0.405206 -0.202476,0.658082 -0.539511,0.75096 -0.483366,1.448491 0.130477,1.621008 0.27435,0.07711 1.569147,0.05295 1.719256,-0.03207 z m -1.705164,-0.266889 c -0.179733,-0.06129 -0.20477,-0.09481 -0.22123,-0.29616 -0.03862,-0.472425 0.375488,-1.099791 0.823561,-1.247669 0.183479,-0.06055 0.242222,-0.05371 0.4651,0.05418 0.320761,0.15528 0.580957,0.479757 0.526841,0.657003 -0.110049,0.36045 -0.131906,0.526126 -0.0891,0.675385 0.04016,0.140046 0.02867,0.169363 -0.07757,0.197867 -0.220495,0.05915 -1.218284,0.03077 -1.427599,-0.04061 z m 20.977329,0.257021 c 0.1224,-0.0485 0.23829,-0.04321 0.48989,0.02232 0.73444,0.191299 1.82533,0.06257 2.02272,-0.238681 0.20086,-0.306555 0.0309,-1.008675 -0.34892,-1.441595 -0.13289,-0.151461 -0.15243,-0.224585 -0.15249,-0.570774 -6e-5,-0.346549 -0.0123,-0.392353 -0.0964,-0.360076 -0.38488,0.147692 -1.3705,0.449187 -1.90137,0.581619 -0.35033,0.08739 -0.67212,0.169326 -0.7151,0.182074 -0.0456,0.01353 0.0388,0.103199 0.20267,0.215367 0.3318,0.227092 0.65719,0.724531 0.65719,1.004667 0,0.299051 -0.18192,0.38048 -0.91666,0.410297 -0.6079,0.02467 -0.76259,0.07823 -0.76259,0.264053 0,0.07329 1.31209,0.01355 1.5211,-0.06927 z m 0.57542,-0.230573 c -0.12055,-0.03417 -0.13453,-0.07671 -0.15117,-0.459725 -0.0167,-0.385106 -0.004,-0.444365 0.15031,-0.676674 0.2044,-0.308599 0.58855,-0.519019 0.83751,-0.458751 0.25194,0.06099 0.47975,0.245094 0.66527,0.537627 0.3563,0.561827 0.3387,0.937356 -0.049,1.045014 -0.23669,0.06573 -1.23489,0.07433 -1.45294,0.01252 z m -18.541468,-2.252538 c 4.37e-4,-0.590042 0.118,-1.645713 0.266197,-2.388602 0.275506,-1.38107 0.861673,-2.845058 1.552194,-3.876706 0.178498,-0.26668 0.313383,-0.496031 0.299744,-0.509672 -0.01364,-0.01364 -0.26592,0.01661 -0.560622,0.06724 -1.322529,0.227178 -2.355453,0.0037 -2.946379,-0.637331 -0.470729,-0.510681 -0.779545,-1.437217 -0.742401,-2.227426 0.01611,-0.342927 0.02858,-0.374328 0.155735,-0.392307 0.185053,-0.02616 0.236228,0.07313 0.237283,0.460406 0.003,1.088846 0.458263,1.934629 1.228456,2.282068 0.312123,0.1408 0.456854,0.168013 1.00179,0.188351 1.361555,0.05082 2.854221,-0.42684 5.943413,-1.90191 1.571901,-0.750575 1.845881,-0.86461 2.077312,-0.86461 0.247949,0 0.727238,0.197631 2.29159,0.944912 2.731236,1.304699 4.358316,1.835558 5.620776,1.833864 1.54453,-0.002 2.26023,-0.738772 2.38829,-2.458374 l 0.0346,-0.465166 h 0.17372 c 0.16612,0 0.17448,0.01202 0.19134,0.274627 0.0279,0.434685 -0.14569,1.295176 -0.34595,1.714787 -0.52741,1.105085 -1.72144,1.548654 -3.37548,1.253957 -0.25361,-0.04519 -0.47037,-0.07289 -0.4817,-0.06156 -0.0113,0.01134 0.0701,0.146922 0.18102,0.30132 0.30001,0.417727 0.86713,1.535523 1.10509,2.178132 0.43672,1.179354 0.72794,2.772786 0.72794,3.982957 0,0.565273 0.011,0.633976 0.10133,0.633811 0.17094,-2.18e-4 1.57185,-0.386141 2.21489,-0.610015 0.3344,-0.116422 0.89463,-0.341589 1.24496,-0.500368 0.72582,-0.328964 0.77319,-0.341146 0.85245,-0.219193 0.0435,0.06693 -0.008,0.200599 -0.20914,0.540411 -0.14681,0.248317 -0.26692,0.46169 -0.26692,0.474161 0,0.01248 0.21195,-0.126483 0.471,-0.30879 1.08846,-0.765996 2.16898,-1.78784 2.8797,-2.723327 0.51224,-0.674241 0.64047,-0.605619 0.52004,0.278316 -0.0354,0.259916 -0.035,0.259538 0.15411,-0.14919 0.43468,-0.939389 0.91283,-2.524028 1.12414,-3.72558 0.091,-0.517297 0.10739,-0.556161 0.2417,-0.572153 0.13492,-0.01606 0.15976,0.02636 0.38982,0.665913 0.13515,0.375689 0.27349,0.785876 0.30744,0.911525 0.0523,0.193507 0.0705,0.212762 0.11913,0.125866 0.094,-0.167974 0.26281,-0.806904 0.37265,-1.410456 0.12396,-0.681086 0.1393,-2.612028 0.028,-3.518394 -0.47922,-3.901251 -1.83352,-7.373691 -3.97159,-10.183145 -0.2874,-0.37766 -0.55287,-0.729436 -0.58993,-0.781724 -0.0371,-0.05229 -0.12673,-0.645043 -0.19927,-1.317232 -0.11339,-1.050641 -0.12177,-1.267428 -0.0597,-1.544694 0.0849,-0.379451 0.32439,-0.733899 0.63448,-0.939106 l 0.22215,-0.147011 0.28497,0.128744 c 0.38257,0.172838 1.32782,0.214062 1.89111,0.08247 0.87001,-0.203242 2.02552,-0.763792 2.05944,-0.999054 0.0238,-0.164983 -0.0752,-0.190667 -0.48241,-0.125173 -0.42362,0.06814 -0.92986,0.01816 -1.32363,-0.130672 -0.47839,-0.18082 -1.00141,-0.625026 -1.76295,-1.497312 -1.34552,-1.541199 -2.06112,-1.945566 -3.42616,-1.936042 -1.08491,0.0076 -1.70365,0.186791 -2.3605,0.683725 -0.60987,0.461389 -1.81907,1.733439 -2.36523,2.488168 l -0.12226,0.168939 -0.58708,-0.250684 c -0.4142,-0.176859 -0.58709,-0.279548 -0.58709,-0.348691 0,-0.164318 0.25095,-0.482059 0.49391,-0.62536 l 0.22991,-0.135605 -0.52115,0.02871 c -0.35736,0.01969 -0.69249,0.08382 -1.0663,0.204045 -0.55171,0.177443 -0.75772,0.173028 -0.75772,-0.01624 0,-0.107073 0.72612,-0.78287 1.15167,-1.07186 0.19228,-0.130568 0.52068,-0.325044 0.7298,-0.432168 0.32717,-0.167603 0.3618,-0.199661 0.24823,-0.229825 -0.20219,-0.05371 -1.11639,0.07401 -1.66625,0.232771 -0.65431,0.188927 -1.39802,0.487898 -2.155012,0.86632 -0.522155,0.261026 -0.643561,0.301253 -0.767247,0.254227 -0.187403,-0.07125 -0.184749,-0.116345 0.03064,-0.520459 0.251771,-0.47237 0.951044,-1.234021 1.665359,-1.813916 0.24494,-0.198846 0.17794,-0.199963 -0.655878,-0.01094 -0.916977,0.207872 -1.459721,0.397584 -2.345169,0.819737 -1.093714,0.521447 -2.580493,1.415018 -2.463412,1.48054 0.109386,0.06122 0.117772,0.26854 0.0125,0.308939 -0.04224,0.01621 -0.569901,-0.169302 -1.172587,-0.412242 -1.363518,-0.549631 -2.428439,-0.904262 -3.180386,-1.059106 -0.953714,-0.196393 -2.46098,-0.314233 -2.46098,-0.192402 0,0.02674 0.07166,0.08104 0.159239,0.120681 0.256634,0.116151 1.084545,0.681562 1.430396,0.97687 0.568448,0.485376 0.926173,1.061414 0.710537,1.144162 -0.04067,0.01561 -0.392959,-0.07525 -0.78286,-0.201905 -0.389904,-0.126655 -0.923374,-0.275279 -1.185495,-0.330277 l -0.476581,-0.09999 -0.665913,-0.6417 c -0.875136,-0.843316 -1.259868,-1.092121 -1.933222,-1.250205 -1.146928,-0.269267 -1.97559,-0.199822 -2.868366,0.240378 -0.517864,0.255342 -0.589406,0.320467 -2.291827,2.08628 -0.766562,0.795105 -1.045032,0.972941 -1.717554,1.096858 -0.28426,0.05238 -0.484127,0.05381 -0.80675,0.0058 -0.339213,-0.05049 -0.444449,-0.04833 -0.503383,0.01033 -0.135353,0.134725 -0.0085,0.25967 0.557379,0.549174 0.842356,0.430918 1.418744,0.59768 2.18078,0.630949 0.573961,0.02506 0.679915,0.01316 1.071252,-0.120304 l 0.43429,-0.148112 0.231621,0.162567 c 0.127393,0.08941 0.312667,0.295718 0.411721,0.458459 0.282369,0.46392 0.286422,0.591155 0.07867,2.470124 -0.109108,0.986785 -0.08515,0.925077 -0.65383,1.683873 -0.754054,1.006137 -1.23763,1.802341 -1.861448,3.064856 -1.221879,2.472905 -1.907686,4.980729 -2.121816,7.758953 -0.104687,1.358255 -0.0165,2.583141 0.263884,3.665174 0.199049,0.768153 0.183281,0.772299 0.504199,-0.132569 0.158131,-0.445871 0.302044,-0.856275 0.319806,-0.912009 0.01876,-0.05883 0.08972,-0.101334 0.169199,-0.101334 0.149988,0 0.137531,-0.03284 0.285515,0.75277 0.203789,1.08188 0.671145,2.614168 1.068516,3.503278 l 0.18116,0.405337 -0.03213,-0.370445 c -0.03042,-0.350775 0.01819,-0.527089 0.145303,-0.527089 0.02608,0 0.170917,0.162859 0.321846,0.36191 0.46355,0.611341 0.974744,1.160646 1.49877,1.610499 0.532263,0.456923 1.720121,1.335291 1.756534,1.298877 0.01195,-0.01195 -0.0617,-0.167487 -0.163636,-0.345659 -0.31748,-0.5549 -0.171346,-0.618412 0.601421,-0.261392 0.631211,0.29162 1.644605,0.643287 2.582576,0.896203 0.979198,0.264033 0.926447,0.271407 0.926686,-0.129538 z m 1.443347,-14.045401 c -0.635715,-0.179729 -1.188569,-0.684344 -1.527985,-1.394662 -0.341456,-0.714585 -0.405661,-1.049172 -0.406769,-2.119762 -8.75e-4,-0.842071 0.0151,-1.006675 0.134607,-1.387236 0.306533,-0.976153 0.808976,-1.670831 1.427853,-1.974144 0.248584,-0.121832 0.37141,-0.141898 0.868581,-0.141898 0.49655,0 0.620306,0.02016 0.868582,0.141527 0.613643,0.299961 1.157719,1.06231 1.429925,2.003583 0.113538,0.392605 0.133175,0.593186 0.132974,1.358168 -1.77e-4,0.676142 -0.02543,0.990376 -0.102398,1.27392 -0.152535,0.561974 -0.510758,1.26437 -0.818604,1.605105 -0.511681,0.566346 -1.332145,0.826128 -2.006766,0.635399 z m 1.05581,-0.400791 c 0.02569,-0.04048 0.04711,-0.05314 0.0476,-0.02813 0.0024,0.124909 0.556104,-0.301254 0.784177,-0.603589 0.21347,-0.282974 0.318314,-0.455344 0.277428,-0.456109 -0.02605,-4.82e-4 -0.01639,-0.02059 0.02147,-0.04466 0.03787,-0.02408 0.08215,-0.117137 0.09841,-0.206802 0.01626,-0.08966 0.05608,-0.194982 0.0885,-0.23404 0.03242,-0.03906 0.07024,-0.162151 0.08406,-0.273542 l 0.02512,-0.202528 -0.234812,0.01139 c -0.129148,0.0063 -0.312396,-0.01086 -0.407219,-0.03806 -0.14739,-0.04227 -0.189268,-0.028 -0.28865,0.09834 -0.08779,0.11161 -0.127691,0.129269 -0.162995,0.07214 -0.0352,-0.05695 -0.0558,-0.04742 -0.08336,0.03855 -0.02013,0.0628 -0.07512,0.185846 -0.122197,0.273428 -0.04708,0.08758 -0.07331,0.15924 -0.05831,0.15924 0.01501,0 -0.05346,0.0912 -0.152143,0.202669 -0.09869,0.111468 -0.21526,0.202669 -0.259053,0.202669 -0.04379,0 -0.06754,0.01954 -0.05278,0.04343 0.01475,0.02389 -0.05938,0.04343 -0.164769,0.04343 -0.105386,0 -0.179532,-0.01954 -0.16477,-0.04343 0.01475,-0.02389 -0.0087,-0.04343 -0.05208,-0.04343 -0.0434,0 -0.167311,-0.0912 -0.275351,-0.202669 -0.10804,-0.111468 -0.177378,-0.202669 -0.154085,-0.202669 0.02329,0 0.0089,-0.05863 -0.03207,-0.130287 -0.04093,-0.07166 -0.101792,-0.234517 -0.135248,-0.361909 -0.06752,-0.257085 -0.143678,-0.28282 -0.489273,-0.165331 -0.111467,0.0379 -0.330585,0.06044 -0.486928,0.0501 -0.156344,-0.01034 -0.260574,-0.0017 -0.231621,0.01926 0.02895,0.02093 0.06111,0.115925 0.07147,0.21109 0.01035,0.09517 0.0427,0.201793 0.07188,0.23695 0.02917,0.03516 0.0359,0.08107 0.01495,0.102022 -0.02097,0.02096 -0.0085,0.0381 0.02764,0.0381 0.03616,0 0.05203,0.03573 0.03527,0.07939 -0.01676,0.04367 0.0055,0.115324 0.04938,0.15924 0.04392,0.04392 0.08341,0.100036 0.08776,0.124711 0.01668,0.09455 0.213771,0.389428 0.260291,0.389428 0.02686,0 0.03729,0.01954 0.02318,0.04343 -0.01412,0.02389 0.04949,0.116725 0.141345,0.206308 0.09185,0.08958 0.167007,0.147029 0.167007,0.127655 0,-0.01937 0.06633,0.0311 0.147394,0.112172 0.13541,0.135409 0.214818,0.172491 0.330325,0.154253 0.02389,-0.0038 0.04343,0.01747 0.04343,0.0472 0,0.133031 1.024732,0.124337 1.109624,-0.0094 z m 0.499193,-2.085811 c 0.199938,-0.243007 0.230164,-1.366907 0.04846,-1.801784 -0.199497,-0.477465 -0.405901,-0.05445 -0.405901,0.831868 0,0.779169 0.159125,1.210954 0.357441,0.969916 z m -0.557288,-1.770748 c 0.107845,-0.313684 0.09025,-1.317864 -0.02791,-1.592867 -0.108358,-0.252195 -0.201354,-0.253638 -0.328758,-0.0051 -0.129188,0.252017 -0.118341,1.42387 0.01598,1.725496 0.08251,0.185291 0.114418,0.212141 0.18374,0.154608 0.04614,-0.03829 0.116768,-0.165253 0.156952,-0.282136 z m 12.234316,4.282431 c -1.04467,-0.271488 -1.83238,-1.449508 -1.98566,-2.969571 -0.17135,-1.69917 0.45397,-3.319099 1.50621,-3.901953 0.28748,-0.159238 0.35186,-0.171259 0.91719,-0.171259 0.53346,0 0.64317,0.01775 0.89479,0.144763 1.48954,0.751906 2.07074,3.539248 1.13926,5.463694 -0.44779,0.92512 -1.07383,1.406804 -1.89255,1.456139 -0.22114,0.01333 -0.4818,0.0035 -0.57924,-0.02181 z m 0.98494,-0.410206 c 0.0494,-0.04097 0.0898,-0.0576 0.0898,-0.03696 0,0.02064 0.0717,9.2e-5 0.15924,-0.04567 0.23743,-0.124045 0.71683,-0.627415 0.68257,-0.716695 -0.0164,-0.04272 -0.005,-0.06257 0.0245,-0.0441 0.0634,0.03916 0.18954,-0.168404 0.13532,-0.222622 -0.0201,-0.02011 -0.008,-0.03657 0.0271,-0.03657 0.0523,0 0.11041,-0.104845 0.16047,-0.289527 0.004,-0.01592 0.0279,-0.07446 0.0524,-0.130071 0.0245,-0.05561 0.0483,-0.163858 0.0529,-0.240541 0.005,-0.07668 0.0279,-0.127357 0.0518,-0.11261 0.0239,0.01475 0.0434,-0.02409 0.0434,-0.08632 0,-0.09943 -0.0246,-0.107585 -0.20298,-0.06735 -0.11835,0.02669 -0.21705,0.023 -0.23675,-0.0089 -0.0186,-0.03006 -0.0771,-0.04754 -0.12998,-0.03885 -0.0529,0.0087 -0.12877,-0.0046 -0.16858,-0.0296 -0.0441,-0.02766 -0.0727,-0.01578 -0.0733,0.0304 -6.6e-4,0.05416 -0.013,0.05679 -0.0434,0.0092 -0.0738,-0.115457 -0.27518,-0.119838 -0.26612,-0.0058 0.004,0.05573 -0.0139,0.101335 -0.0408,0.101335 -0.0269,0 -0.0658,0.09027 -0.0865,0.200606 -0.0207,0.110333 -0.0737,0.230544 -0.1178,0.267135 -0.0441,0.03659 -0.0659,0.08964 -0.0484,0.117874 0.0175,0.02824 0.003,0.05134 -0.033,0.05134 -0.0356,0 -0.0529,0.01954 -0.0384,0.04343 0.0145,0.02389 -0.0101,0.07703 -0.0545,0.118094 -0.0444,0.04107 -0.0808,0.05884 -0.0808,0.03949 0,-0.01935 -0.073,0.01683 -0.16232,0.0804 -0.1578,0.112366 -0.16867,0.112716 -0.39086,0.01261 -0.25377,-0.114336 -0.54702,-0.433152 -0.54702,-0.594706 0,-0.05756 -0.0288,-0.104648 -0.0641,-0.104648 -0.0353,0 -0.0494,-0.03825 -0.0315,-0.085 0.0179,-0.04675 0.01,-0.09903 -0.0178,-0.116172 -0.0277,-0.01714 -0.0599,-0.0027 -0.0715,0.03203 -0.0116,0.03476 -0.092,-0.0077 -0.17867,-0.09439 -0.0867,-0.08668 -0.15759,-0.134498 -0.15759,-0.10627 0,0.02823 -0.0847,0.05535 -0.18819,0.06027 -0.10351,0.0049 -0.25913,0.0208 -0.34582,0.03529 -0.0951,0.01589 -0.14358,0.0036 -0.12223,-0.03093 0.0195,-0.0315 -8.8e-4,-0.04468 -0.045,-0.02928 -0.0777,0.02703 -0.0792,0.217359 -0.002,0.276556 0.0207,0.01592 0.0403,0.06152 0.0434,0.101335 0.003,0.03981 0.01,0.122635 0.0145,0.184056 0.005,0.06142 0.0487,0.151692 0.0976,0.200601 0.0489,0.04891 0.0815,0.09841 0.0724,0.109998 -0.0387,0.04931 0.21371,0.436093 0.26424,0.404866 0.0306,-0.0189 0.0384,-0.0065 0.0173,0.02759 -0.0478,0.07736 0.24279,0.43172 0.31663,0.386086 0.0297,-0.01838 0.0469,-0.0012 0.0382,0.03828 -0.0196,0.08847 0.4189,0.35129 0.52272,0.313277 0.0415,-0.01518 0.0606,-0.0037 0.0426,0.0255 -0.0746,0.120709 0.89229,0.126192 1.03725,0.0059 z m -1.32398,-2.260717 c 0.0932,-0.258521 0.0975,-1.354087 0.006,-1.620647 -0.038,-0.11108 -0.11105,-0.210001 -0.16231,-0.219825 -0.16933,-0.03245 -0.25423,0.311456 -0.25423,1.029796 0,0.70883 0.0855,1.062376 0.2491,1.0305 0.0484,-0.0094 0.12097,-0.108356 0.16118,-0.219824 z m 0.6702,-1.611508 c 0.10785,-0.313684 0.0902,-1.317864 -0.0279,-1.592867 -0.10836,-0.252195 -0.20135,-0.253638 -0.32876,-0.0051 -0.12918,0.252017 -0.11834,1.42387 0.016,1.725496 0.0825,0.185291 0.11442,0.212141 0.18374,0.154608 0.0461,-0.03829 0.11677,-0.165253 0.15696,-0.282136 z m -20.106468,-1.253518 c -0.300503,-0.163416 -0.372332,-0.468767 -0.372332,-1.582829 v -1.006234 l 0.173717,-0.141049 c 0.275081,-0.223352 1.195778,-0.820405 2.181174,-1.414447 0.498992,-0.300814 0.899258,-0.554931 0.889484,-0.564705 -0.06301,-0.06301 -2.119728,0.962014 -2.809304,1.400104 -0.174734,0.111009 -0.322579,0.196955 -0.328545,0.190991 -0.006,-0.006 0.03626,-0.348863 0.09383,-0.761996 l 0.104679,-0.751151 0.338446,-0.315025 c 0.284223,-0.264555 0.666532,-0.538428 1.274089,-0.912716 0.08583,-0.05288 0.05351,-0.05572 -0.151458,-0.01331 -0.387063,0.08008 -1.031126,0.41617 -1.370618,0.715227 l -0.29937,0.263711 -0.06637,-0.201102 c -0.0365,-0.110606 -0.182998,-0.330821 -0.325545,-0.489368 l -0.259177,-0.288266 0.09253,-0.357103 c 0.0509,-0.196406 0.08145,-0.368185 0.06791,-0.38173 -0.01355,-0.01355 -0.08317,0.119624 -0.154733,0.295933 -0.130735,0.32211 -0.208026,0.379745 -0.336696,0.251074 -0.127774,-0.127773 -0.07187,-0.418689 0.273467,-1.423029 0.188624,-0.54858 0.332202,-0.997418 0.31906,-0.997418 -0.01313,0 -0.142381,0.235924 -0.2872,0.524275 -0.291742,0.580897 -0.606436,1.464311 -0.606436,1.702405 0,0.127732 -0.04685,0.174986 -0.275051,0.277429 -0.368302,0.165337 -1.173729,0.204106 -1.696637,0.08167 -0.451671,-0.105758 -1.059763,-0.326399 -1.017112,-0.36905 0.01666,-0.01665 0.142582,-0.05125 0.279848,-0.0769 0.825403,-0.154201 1.400379,-0.566369 2.424182,-1.737755 1.069547,-1.223725 1.595318,-1.589994 2.553326,-1.778732 0.396682,-0.07815 0.560825,-0.08222 1.054919,-0.02614 0.767525,0.08711 1.103488,0.193627 1.548906,0.491067 0.701129,0.468195 1.86701,1.724117 2.809761,3.026755 1.028398,1.420981 1.237013,1.959304 0.943393,2.434392 -0.136181,0.220345 -0.705432,0.61076 -1.937457,1.328787 -0.477719,0.278416 -1.415787,0.865208 -2.084596,1.303983 -1.909274,1.25259 -2.595543,1.546175 -3.044089,1.302252 z m 26.457488,-0.0255 c -0.45508,-0.145543 -0.91781,-0.411892 -2.42268,-1.394521 -0.71658,-0.467901 -1.71979,-1.091381 -2.22936,-1.385512 -1.47774,-0.852978 -1.7303,-1.087833 -1.72253,-1.601785 0.0143,-0.945302 2.90794,-4.535263 4.1678,-5.170719 0.41727,-0.210464 0.9767,-0.314833 1.69497,-0.316215 1.1591,-0.0022 1.74545,0.294609 2.76697,1.400757 1.52498,1.651333 1.91248,1.954714 2.70972,2.121519 0.21082,0.04411 0.39553,0.09243 0.41048,0.107371 0.0387,0.0387 -0.57474,0.261244 -0.99023,0.359238 -0.46659,0.110048 -1.15391,0.106401 -1.54239,-0.0082 -0.40258,-0.118742 -0.4419,-0.154116 -0.49042,-0.441298 -0.0221,-0.130828 -0.10097,-0.416591 -0.17527,-0.635027 -0.13961,-0.410496 -0.65964,-1.516387 -0.69597,-1.480059 -0.0113,0.0113 0.11885,0.423067 0.28924,0.915035 0.17038,0.491967 0.32892,1.009377 0.3523,1.149799 0.0378,0.226899 0.0273,0.266795 -0.0943,0.358497 l -0.1368,0.103185 -0.15441,-0.329544 c -0.17097,-0.364901 -0.21034,-0.298104 -0.0798,0.135489 l 0.0845,0.28077 -0.25064,0.267958 c -0.13785,0.147377 -0.28449,0.361556 -0.32586,0.475955 l -0.0752,0.207998 -0.35217,-0.286185 c -0.1937,-0.157401 -0.48246,-0.348842 -0.6417,-0.425424 -0.28095,-0.135116 -0.89753,-0.335966 -0.89753,-0.292369 0,0.01187 0.14619,0.105226 0.32487,0.207457 0.41829,0.23932 1.13513,0.816007 1.27134,1.022771 0.0687,0.104213 0.13825,0.40977 0.19814,0.869972 0.0508,0.390138 0.0856,0.709342 0.0773,0.709342 -0.008,0 -0.1926,-0.114864 -0.40963,-0.255254 -0.55224,-0.357246 -2.6574,-1.406012 -2.71222,-1.351197 -0.009,0.009 0.36631,0.248647 0.83406,0.532504 1.23801,0.751294 2.10488,1.324838 2.26188,1.496517 0.1265,0.138329 0.13983,0.21201 0.16663,0.92067 0.037,0.978305 -0.038,1.38435 -0.30505,1.651378 -0.22337,0.223375 -0.40522,0.239254 -0.90596,0.07911 z"
         id="path125"
         sodipodi:nodetypes="cscsssscsscsssscsssssscsssssssssscsssscsssscssscssssssssssssscssssssssscsssssccssccssssssssscssscssssssssssssscsssscsssscsssssssssssssssscsssssssscsssssssssscssssssssscscsssssssscssssscssssssssssssssscssssssssscssscssssssssssssssssssssssscsssssssssscsssssssssssscsssssssssssssssssssssssssssssscsssssssssssssssssssssssssssssssssssssssssssssssssssssssssssssssssssssssccsssscsssssssssssssssscscsssscsssssssssssssssssssssscsssssscsssscsscsssssssssssssssssssssssssssssssssssssscsscsscsssssssssssssss" />
      <path
         style="vector-effect:non-scaling-stroke;fill:none;stroke:#ff0000;stroke-width:0.0579054;stroke-dasharray:none;stroke-opacity:1;-inkscape-stroke:hairline"
         d="m 94.305919,-40.643152 c -2.783247,-0.239891 -4.60083,-0.916589 -5.704001,-2.123632 l -0.298306,-0.326397 -1.599829,0.0033 c -1.768063,0.0037 -2.086869,-0.03868 -2.444457,-0.325 -0.326085,-0.261094 -0.461596,-0.553163 -0.459749,-0.990895 8.76e-4,-0.207013 0.03914,-0.480614 0.08503,-0.608006 0.04589,-0.127393 0.08384,-0.234315 0.08432,-0.237604 4.37e-4,-0.0033 -0.188045,-0.130795 -0.418942,-0.283348 -0.572641,-0.378337 -1.267773,-0.906014 -1.736692,-1.318328 l -0.39039,-0.343265 -0.175891,0.148006 c -0.307969,0.259136 -0.700488,0.27158 -1.005233,0.03187 -0.252591,-0.198688 -1.039737,-1.862517 -1.394797,-2.948245 -0.08853,-0.270708 -0.181584,-0.514754 -0.206794,-0.542327 -0.02522,-0.02758 -0.105917,-0.0081 -0.179411,0.04343 -0.279629,0.19586 -0.857649,0.08073 -1.047213,-0.20858 -0.177248,-0.270515 -0.508645,-1.265676 -0.663402,-1.992151 -0.150459,-0.706302 -0.158861,-0.826904 -0.158839,-2.280238 2.4e-5,-1.589858 0.05891,-2.256347 0.322319,-3.648042 0.536486,-2.834503 1.675645,-5.638714 3.23443,-7.962046 0.313022,-0.466548 0.797887,-1.118308 1.344303,-1.807017 0.06447,-0.08126 0.216126,-1.293302 0.217901,-1.741502 0.0013,-0.322118 -0.09743,-0.631148 -0.239113,-0.748638 -0.06672,-0.05533 -0.144926,-0.05058 -0.370878,0.02251 -0.45107,0.145911 -1.555089,0.131412 -2.149572,-0.02823 -0.949389,-0.254949 -2.104916,-0.839071 -2.291475,-1.158348 -0.21553,-0.368858 -0.06544,-0.890994 0.312267,-1.086316 0.150651,-0.0779 0.278062,-0.08949 0.653999,-0.05947 0.560645,0.04477 1.026807,-0.05883 1.430546,-0.317906 0.268555,-0.172331 0.863522,-0.764805 1.526281,-1.519884 0.706642,-0.805074 1.58879,-1.386075 2.43191,-1.601709 0.960676,-0.2457 2.478957,-0.101514 3.28922,0.312365 l 0.393832,0.201168 0.06488,-0.142394 c 0.03568,-0.07832 0.154177,-0.197582 0.263322,-0.265038 0.174393,-0.10778 0.311792,-0.126067 1.133689,-0.150881 1.855888,-0.05604 3.444052,0.285348 5.75601,1.237278 l 0.477854,0.196753 0.865481,-0.520891 c 1.309697,-0.788244 2.039859,-1.141857 3.120078,-1.511037 1.011818,-0.3458 2.645773,-0.619596 3.043033,-0.509908 0.46921,0.129555 0.69633,0.703735 0.44612,1.127817 l -0.1251,0.21204 0.14216,-0.03568 c 0.9587,-0.240618 2.21978,-0.145217 2.71234,0.205188 0.32972,0.234571 0.35244,0.850073 0.0428,1.159711 l -0.16727,0.167269 0.14634,0.05564 c 0.23729,0.09022 0.26812,0.07444 0.69046,-0.353346 0.46423,-0.47021 1.02526,-0.900939 1.45372,-1.116078 0.68651,-0.344712 2.17378,-0.487754 3.04992,-0.293331 0.99218,0.22017 1.73996,0.747545 2.83955,2.002614 0.79453,0.906879 1.14856,1.211812 1.61438,1.39051 0.26859,0.103032 0.38668,0.112835 0.97166,0.08065 0.60664,-0.03338 0.68297,-0.0261 0.85759,0.08175 0.32085,0.198172 0.44518,0.6487 0.27163,0.984315 -0.11552,0.223387 -0.35769,0.398244 -0.98446,0.710808 -1.25899,0.627852 -2.52548,0.822734 -3.47996,0.535478 -0.25437,-0.07655 -0.28904,-0.07519 -0.38954,0.0153 -0.23778,0.214086 -0.27746,0.661925 -0.14917,1.683589 l 0.068,0.541971 0.51783,0.645091 c 2.30408,2.870292 3.86091,6.500153 4.41176,10.286343 0.23534,1.617627 0.26393,3.624824 0.0672,4.719295 -0.22116,1.23046 -0.63964,2.324612 -0.95061,2.48542 -0.22852,0.118173 -0.64115,0.117059 -0.8114,-0.0022 -0.0735,-0.05146 -0.15342,-0.071 -0.17767,-0.04343 -0.0242,0.02757 -0.12654,0.290602 -0.22731,0.584511 -0.3414,0.995713 -0.98201,2.407228 -1.26117,2.778838 -0.27248,0.362733 -0.85849,0.386696 -1.17658,0.04811 l -0.13519,-0.143904 -0.32458,0.296867 c -0.4407,0.403059 -1.24746,1.022288 -1.84191,1.413767 -0.42504,0.279911 -0.48567,0.340158 -0.45105,0.448169 0.0662,0.206657 0.10239,0.832263 0.0609,1.05353 -0.0506,0.269516 -0.39551,0.649667 -0.72722,0.801428 -0.24308,0.111215 -0.37559,0.119687 -1.97375,0.126189 l -1.71318,0.007 -0.40037,0.40471 c -1.06099,1.072484 -2.49427,1.653151 -4.851513,1.965492 -0.815702,0.108084 -4.21976,0.160281 -5.161159,0.07914 z"
         id="path126" />
    </g>
  </g>
</svg>
