<?xml version="1.0" encoding="UTF-8" standalone="no"?>
<!-- Created with Inkscape (http://www.inkscape.org/) -->

<svg
   width="41.008999mm"
   height="41.008999mm"
   viewBox="0 0 41.008999 41.008999"
   version="1.1"
   id="svg1"
   inkscape:version="1.4.2 (f4327f4, 2025-05-13)"
   sodipodi:docname="360.svg"
   xmlns:inkscape="http://www.inkscape.org/namespaces/inkscape"
   xmlns:sodipodi="http://sodipodi.sourceforge.net/DTD/sodipodi-0.dtd"
   xmlns="http://www.w3.org/2000/svg"
   xmlns:svg="http://www.w3.org/2000/svg">
  <sodipodi:namedview
     id="namedview1"
     pagecolor="#ffffff"
     bordercolor="#000000"
     borderopacity="0.25"
     inkscape:showpageshadow="2"
     inkscape:pageopacity="0.0"
     inkscape:pagecheckerboard="0"
     inkscape:deskcolor="#d1d1d1"
     inkscape:document-units="mm"
     inkscape:zoom="1.4513545"
     inkscape:cx="86.470947"
     inkscape:cy="71.657199"
     inkscape:window-width="1050"
     inkscape:window-height="1081"
     inkscape:window-x="857"
     inkscape:window-y="0"
     inkscape:window-maximized="0"
     inkscape:current-layer="layer1"
     showguides="false" />
  <defs
     id="defs1" />
  <g
     inkscape:label="Layer 1"
     inkscape:groupmode="layer"
     id="layer1"
     transform="translate(333.37504,1257.5646)">
    <g
       id="g593"
       transform="translate(-375.88128,-1282.0487)">
      <circle
         style="fill:none;stroke:#0000ff;stroke-width:0.1;stroke-linecap:round;stroke-dasharray:none;stroke-opacity:1;paint-order:markers stroke fill"
         id="circle6695-6-0-4-83-3"
         cx="63.010735"
         cy="28.386221"
         r="2" />
      <g
         id="g529"
         transform="matrix(0.7386055,0,0,0.7386055,-576.33992,-3.3849529)">
        <path
           style="fill:#000000"
           d="m 856.71516,92.196248 c -2.6305,-0.523112 -4.1299,-1.5738 -3.7306,-2.614202 0.079,-0.206524 -0.051,-0.673552 -0.2899,-1.037839 -0.7926,-1.209581 -0.7961,-3.227999 -0.01,-5.862702 0.401,-1.344479 0.7735,-3.367189 0.8556,-4.645747 l 0.1453,-2.264498 -2.0844,-0.600365 c -3.1974,-0.920972 -7.2625,-3.354009 -8.9621,-5.363966 -1.045,-1.235803 -2.1932,-3.788986 -2.5435,-5.656041 -0.3606,-1.921552 -0.1545,-6.424862 0.4112,-8.986049 0.2251,-1.018646 1.0099,-3.062046 1.7442,-4.540888 1.0917,-2.198597 1.731,-3.093184 3.5067,-4.906833 2.5036,-2.557057 3.816,-3.494222 6.7094,-4.791342 3.602,-1.614751 6.6284,-2.308788 10.8081,-2.478587 8.3138,-0.337749 14.816,1.988119 19.6567,7.031328 1.9569,2.038759 3.295,4.188787 6.0248,9.680413 l 2.3644,4.756591 -0.01,3.180909 c -0.01,2.913508 -0.065,3.292119 -0.7011,4.503825 -1.8012,3.432099 -6.1193,6.395663 -11.1804,7.673423 l -2.3992,0.605718 -0.204,2.831591 c -0.1122,1.557375 -0.4161,3.459853 -0.6754,4.227728 l -0.4713,1.396138 1.0061,0.913746 c 0.8882,0.806785 1.006,1.05699 1.006,2.137439 0,0.673031 -0.1395,1.529875 -0.31,1.904099 -0.7101,1.558395 -3.7523,2.56943 -8.0244,2.666716 -1.6007,0.03645 -3.3263,0.196835 -3.8347,0.356403 -1.254,0.393633 -6.5996,0.32264 -8.8104,-0.117008 z m 9.3951,-1.446786 c 0.5408,-0.155481 1.1658,-0.465303 1.389,-0.688494 0.4677,-0.467668 0.5366,-2.010501 0.1243,-2.780996 -0.2547,-0.475839 -0.455,-0.509039 -2.0954,-0.347392 -1.7618,0.173601 -1.8598,0.150813 -3.4157,-0.794335 -1.9042,-1.156771 -2.9737,-2.381146 -3.7495,-4.29274 -0.5968,-1.470467 -0.5479,-2.206708 0.1468,-2.206708 0.3981,0 0.4995,0.173924 1.2158,2.085672 0.7797,2.080894 3.1401,3.999744 4.9202,3.999744 1.5839,0 1.7493,-0.54828 0.5447,-1.804603 -1.3195,-1.376173 -2.045,-2.978418 -2.2259,-4.916137 -0.2591,-2.774686 0.9885,-2.687454 1.3177,0.09213 0.1882,1.588901 0.6397,2.502517 2.0315,4.110683 0.5842,0.674955 1.0622,1.392509 1.0622,1.594564 0,0.202054 0.3869,0.729011 0.8599,1.171015 0.8147,0.761481 0.8599,0.902731 0.8599,2.692412 v 1.888769 l 2.1166,-0.134164 c 2.4669,-0.156361 4.3212,-0.925011 4.9988,-2.072129 0.8589,-1.453976 -0.3012,-2.936827 -1.84,-2.35181 -1.0151,0.385964 -2.5673,0.312278 -3.2322,-0.153444 -0.7774,-0.544511 -0.7569,-1.551791 0.085,-4.189148 0.3667,-1.148116 0.6409,-2.523098 0.6095,-3.055514 -0.073,-1.237581 0.2079,-1.748937 0.7251,-1.319744 0.5519,0.458068 0.4688,3.05976 -0.1559,4.875242 -0.7139,2.075066 -0.6899,2.727694 0.1077,2.927874 1.7564,0.44082 2.7917,-1.928289 3.0366,-6.948643 l 0.163,-3.342645 1.5875,-0.326734 c 5.6181,-1.156292 10.3856,-3.994741 11.8965,-7.08282 1.6202,-3.311601 1.3638,-6.830823 -0.7619,-10.457479 -0.6517,-1.111899 -1.3806,-2.497885 -1.6198,-3.079969 -1.9848,-4.829584 -4.6046,-8.071309 -8.6109,-10.655307 -6.9875,-4.506719 -18.5907,-4.700572 -26.6874,-0.445861 -3.1038,1.631019 -6.8966,5.600016 -8.4592,8.85221 -1.6143,3.360063 -2.3324,9.443347 -1.4991,12.7 0.645,2.520797 1.3833,3.864081 2.9958,5.451057 1.8738,1.844058 3.7013,2.86537 7.3108,4.085772 l 2.9457,0.995912 -0.012,2.869567 c -0.01,2.378339 -0.1347,3.245569 -0.7276,5.066037 -0.8387,2.575581 -0.9075,3.989762 -0.2345,4.820897 0.4219,0.521079 0.5566,0.553124 1.1006,0.261981 0.3409,-0.182446 1.583,-0.391247 2.7604,-0.464003 1.8532,-0.114529 2.2261,-0.06273 2.7779,0.385939 0.3506,0.285023 0.5613,0.641445 0.4682,0.79205 -0.096,0.155928 -1.2438,0.278997 -2.6649,0.285836 -2.5165,0.01211 -3.6,0.301742 -3.6,0.962247 0,0.477449 0.5231,0.66513 3.0427,1.091595 2.3151,0.39187 6.7875,0.312785 8.3916,-0.148389 z m 1.1984,-28.845306 c -1.1947,-0.299756 -3.6369,-1.505807 -3.6369,-1.796066 0,-0.113965 0.1309,-0.338088 0.2908,-0.498051 0.2114,-0.211399 0.6993,-0.09938 1.786,0.410105 1.3049,0.611801 1.8316,0.700945 4.1409,0.700945 2.269,0 2.7893,-0.08479 3.6531,-0.595313 1.2972,-0.766611 1.8332,-0.771069 1.7231,-0.01433 -0.1472,1.011856 -2.2786,1.885427 -4.8062,1.969852 -1.1866,0.03964 -2.6045,-0.04008 -3.1508,-0.17714 z m -6.0182,-5.813275 c -1.0535,-1.053509 -0.4996,-2.645834 0.9204,-2.645834 1.5537,0 2.2521,1.605467 1.1464,2.635527 -0.7317,0.681728 -1.392,0.685021 -2.0668,0.01031 z m 14.5521,0 c -0.5834,-0.583385 -0.675,-1.349702 -0.2552,-2.134061 0.3984,-0.744509 1.9475,-0.697046 2.4892,0.07626 0.5687,0.812003 0.5163,1.33829 -0.2005,2.011675 -0.7617,0.715607 -1.3506,0.728963 -2.0335,0.04612 z"
           id="path529" />
        <path
           style="fill:#000000"
           d="m 853.88637,60.571951 c -1.6413,-0.53812 -1.553,-0.470811 -1.7744,-1.353062 -0.1481,-0.589983 -0.039,-0.776778 0.7373,-1.256228 0.7918,-0.489347 1.3061,-0.562424 3.9227,-0.557312 3.2561,0.0064 4.193,0.339138 4.3786,1.55515 0.1093,0.71591 -1.1809,1.546784 -2.6814,1.72681 -2.7362,0.328291 -3.2707,0.314836 -4.5828,-0.115358 z m 24.4307,-0.405648 c -1.1655,-0.440155 -1.458,-0.768233 -1.4639,-1.642358 -0.25192,-0.600514 0.26216,-0.596082 0.68553,-1.019685 0.225,-0.22523 1.86887,-0.237086 3.88707,-0.237086 3.5522,0 4.5512,0.348443 4.5512,1.5875 0,0.609374 -0.1789,0.876112 -0.7938,1.183786 -1.1255,0.563177 -5.4981,0.644588 -6.8664,0.127843 z"
           id="path528"
           sodipodi:nodetypes="sscssssccsssscc" />
      </g>
      <g
         id="g537"
         transform="matrix(0.7386055,0,0,0.7386055,359.29902,7.1782673)"
         style="fill:none;stroke:#ff0000;stroke-width:1.00053;stroke-dasharray:none;stroke-opacity:1">
        <path
           style="vector-effect:non-scaling-stroke;fill:none;stroke:#ff0000;stroke-width:0.35822;stroke-dasharray:none;stroke-opacity:1;-inkscape-stroke:hairline"
           d="m -410.04895,77.894675 c -2.6305,-0.523112 -4.1299,-1.5738 -3.7306,-2.614202 0.079,-0.206524 -0.051,-0.673552 -0.2899,-1.037839 -0.7926,-1.209581 -0.7961,-3.227999 -0.01,-5.862702 0.401,-1.344479 0.7735,-3.367189 0.8556,-4.645747 l 0.1453,-2.264498 -2.0844,-0.600365 c -3.1974,-0.920972 -7.2625,-3.354009 -8.9621,-5.363966 -1.045,-1.235803 -2.1932,-3.788986 -2.5435,-5.656041 -0.3606,-1.921552 -0.1545,-6.424862 0.4112,-8.986049 0.2251,-1.018646 1.0099,-3.062046 1.7442,-4.540888 1.0917,-2.198597 1.731,-3.093184 3.5067,-4.906833 2.5036,-2.557057 3.816,-3.494222 6.7094,-4.791342 3.602,-1.614751 6.6284,-2.308788 10.8081,-2.478587 8.3138,-0.337749 14.816,1.988119 19.6567,7.031328 1.9569,2.038759 3.295,4.188787 6.0248,9.680413 l 2.3644,4.756591 -0.01,3.180909 c -0.01,2.913508 -0.065,3.292119 -0.7011,4.503825 -1.8012,3.432099 -6.1193,6.395663 -11.1804,7.673423 l -2.3992,0.605718 -0.204,2.831591 c -0.1122,1.557375 -0.4161,3.459853 -0.6754,4.227728 l -0.4713,1.396138 1.0061,0.913746 c 0.8882,0.806785 1.006,1.05699 1.006,2.137439 0,0.673031 -0.1395,1.529875 -0.31,1.904099 -0.7101,1.558395 -3.7523,2.56943 -8.0244,2.666716 -1.6007,0.03645 -3.3263,0.196835 -3.8347,0.356403 -1.254,0.393633 -6.5996,0.32264 -8.8104,-0.117008 z"
           id="path536" />
      </g>
    </g>
  </g>
</svg>
