<svg width="285" height="65" viewBox="0 0 285 65" fill="none" xmlns="http://www.w3.org/2000/svg">
<g clip-path="url(#clip0_1_660)">
<path d="M0 0H20.5811V5.35988H5.94534V11.0651H18.8439V16.425H5.94534V26.7994H0V0ZM5.94534 38.2052H0V65H19.4245V59.6401H5.94534V38.2052ZM105.2 59.6401H91.7254V65H111.145V38.2052H105.2V59.6447V59.6401ZM91.7208 5.35988H105.195V26.7948H111.141V0H91.7208V5.35988ZM39.8988 18.3866L51.4829 45.3748H45.2682L42.7971 39.3656H31.3663L28.8953 45.3748H22.8338L34.4179 18.3866H39.8988ZM40.6698 34.1577L37.0794 25.4686L33.489 34.1577H40.6698ZM86.1377 37.9474V38.0256C86.1377 42.925 82.12 45.3748 76.0214 45.3748H63.1646V18.5754H75.7148C78.8036 18.5754 81.2375 19.418 82.7795 20.9468C84.0151 22.1716 84.6328 23.6636 84.6328 25.5009V25.5791C84.6328 28.6044 83.0118 30.2851 81.0795 31.358C84.2055 32.546 86.1377 34.3465 86.1377 37.9428V37.9474ZM68.9566 29.4102H74.4375C77.0618 29.4102 78.7246 28.5676 78.7246 26.5784V26.5047C78.7246 24.7411 77.3358 23.7511 74.823 23.7511H68.952V29.4148L68.9566 29.4102ZM80.2295 37.2198C80.2295 35.4194 78.8779 34.3097 75.8263 34.3097H68.952V40.2037H76.0167C78.641 40.2037 80.2249 39.2873 80.2249 37.2935V37.2198H80.2295ZM169.019 13.9154H172.043V0.285492H169.019V13.9154ZM246.773 13.9154H249.797V0.285492H246.773V13.9154ZM236.327 5.75588C233.949 5.15266 233.359 4.86257 233.359 3.96465V3.92781C233.359 3.36143 233.81 2.89636 234.664 2.77203V0.105908C232.124 0.290096 230.354 1.87411 230.354 4.19488V4.23172C230.354 6.93929 232.142 7.69906 234.911 8.39898C237.21 8.98378 237.679 9.37057 237.679 10.1303V10.1672C237.679 10.9638 236.931 11.4519 235.695 11.4519C235.686 11.4519 235.677 11.4519 235.668 11.4519V14.0996C238.617 14.0904 240.684 12.5708 240.684 9.87709V9.84025C240.684 7.46423 239.114 6.46961 236.323 5.75128L236.327 5.75588ZM240.275 1.82346C238.998 0.805823 237.456 0.207212 235.672 0.110513V2.77664C236.662 2.90557 237.674 3.37525 238.705 4.07977L240.275 1.82346ZM229.806 11.9308C231.199 13.1648 232.913 13.8602 234.664 14.0536V11.3644C233.54 11.148 232.546 10.5908 231.594 9.81262L229.806 11.9354V11.9308ZM213.266 13.9154H216.29V0.285492H213.266V13.9154ZM224.738 4.82113V4.78429C224.738 3.49958 224.325 2.42668 223.559 1.6669C222.653 0.77359 221.301 0.285492 219.55 0.285492H217.297V2.99306H219.295C220.767 2.99306 221.673 3.65613 221.673 4.94085V4.98229C221.673 6.13347 220.827 6.91166 219.355 6.91166H217.297V9.55937H218.668L221.612 13.92H225.147L221.789 9.05285C223.535 8.41279 224.734 7.02678 224.734 4.82573L224.738 4.82113ZM184.895 8.44963L186.345 12.313L191.208 0.285492H187.947L184.891 8.44963H184.895ZM177.422 0.285492L182.982 14.0121H185.652L185.783 13.6898L180.761 0.285492H177.422ZM134.42 7.99837V0.285492H131.397V8.07205C131.397 11.9124 133.468 13.943 136.882 14.1134V11.323C135.34 11.125 134.42 10.0014 134.42 7.99377V7.99837ZM140.352 8.09507C140.352 10.0521 139.432 11.1342 137.89 11.3276V14.1134C141.267 13.92 143.376 11.8986 143.376 7.97995V0.285492H140.352V8.09507ZM159.214 7.02217L162.201 10.9085V0.285492H159.214V7.01757V7.02217ZM159.214 8.67987L152.772 0.285492H149.98V1.36299L159.628 13.9154H162.201V12.5524L159.214 8.66605V8.67526V8.67987ZM149.98 13.92H152.967V6.89785L149.98 3.01148V13.9154V13.92ZM206.93 0.285492H200.572V2.95162H206.93V0.285492ZM200.572 13.9154H207.028V11.2493H200.572V13.9154ZM206.043 5.71904H200.572V8.38517H206.043V5.71904ZM196.554 13.9154H199.559V0.285492H196.554V13.9154ZM255.264 3.04831H266.658V0.285492H255.264V3.04831ZM259.449 13.9154H262.473V4.04753H259.449V13.9154ZM281.563 0.285492L278.813 4.78889L280.397 7.42739L285 0.285492H281.563ZM271.409 0.285492L276.695 8.54173V13.9154H279.793V8.36675L274.949 0.280887H271.414L271.409 0.285492Z" fill="#E4032E"/>
</g>
<defs>
<clipPath id="clip0_1_660">
<rect width="285" height="65" fill="white"/>
</clipPath>
</defs>
</svg>
