<?xml version="1.0" encoding="UTF-8" standalone="no"?>
<!-- Created with Inkscape (http://www.inkscape.org/) -->

<svg
   width="41.008999mm"
   height="41.008999mm"
   viewBox="0 0 41.008999 41.009"
   version="1.1"
   id="svg1"
   inkscape:version="1.4.2 (f4327f4, 2025-05-13)"
   sodipodi:docname="272.svg"
   xmlns:inkscape="http://www.inkscape.org/namespaces/inkscape"
   xmlns:sodipodi="http://sodipodi.sourceforge.net/DTD/sodipodi-0.dtd"
   xmlns="http://www.w3.org/2000/svg"
   xmlns:svg="http://www.w3.org/2000/svg">
  <sodipodi:namedview
     id="namedview1"
     pagecolor="#ffffff"
     bordercolor="#000000"
     borderopacity="0.25"
     inkscape:showpageshadow="2"
     inkscape:pageopacity="0.0"
     inkscape:pagecheckerboard="0"
     inkscape:deskcolor="#d1d1d1"
     inkscape:document-units="mm"
     inkscape:zoom="2.8970539"
     inkscape:cx="86.98492"
     inkscape:cy="43.837638"
     inkscape:window-width="1168"
     inkscape:window-height="1081"
     inkscape:window-x="3737"
     inkscape:window-y="0"
     inkscape:window-maximized="0"
     inkscape:current-layer="layer1" />
  <defs
     id="defs1" />
  <g
     inkscape:label="Layer 1"
     inkscape:groupmode="layer"
     id="layer1"
     transform="translate(-114.0891,-77.774176)">
    <g
       id="g11"
       transform="translate(-525.1428,203.49284)">
      <circle
         style="fill:none;stroke:#0000ff;stroke-width:0.1;stroke-linecap:round;stroke-dasharray:none;stroke-opacity:1;paint-order:markers stroke fill"
         id="path13019-1-33-3-83-70-3-7-5-9-5-4-1-5-2-2-8-2-4"
         cx="659.76373"
         cy="-120.46458"
         r="2" />
      <path
         style="fill:#000000;stroke-width:0.1;stroke-dasharray:none"
         d="m 658.2255,-85.2591 c -0.1231,-0.0241 -0.46594,-0.17467 -0.76179,-0.33465 -0.45303,-0.24494 -0.68373,-0.32116 -1.46177,-0.48297 -3.34882,-0.69642 -6.32676,-2.0968 -8.7275,-4.10411 -0.659,-0.55101 -2.42141,-2.32656 -2.97494,-2.99712 -0.49089,-0.59466 -1.45533,-2.03484 -1.93631,-2.8914 -0.99769,-1.77682 -1.85414,-4.35656 -2.17464,-6.55025 -0.24081,-1.64832 -0.22352,-4.45393 0.0368,-5.97818 0.91739,-5.37092 3.7668,-9.91991 8.16989,-13.04296 3.53116,-2.50459 8.17289,-3.81871 12.48795,-3.53547 2.73296,0.1794 4.90409,0.73755 7.35818,1.89162 0.50798,0.2389 1.06176,0.46016 1.2306,0.49171 0.24658,0.0461 0.34772,0.1064 0.5141,0.30668 0.11391,0.13714 0.40229,0.3827 0.64086,0.54571 l 0.43378,0.29638 0.28925,-0.11046 c 0.43548,-0.16632 0.57058,-0.0809 0.66675,0.42171 0.0653,0.3411 0.11338,0.43038 0.35499,0.65893 0.27642,0.26147 0.28156,0.26331 0.46776,0.16701 0.10355,-0.0535 0.33657,-0.11266 0.51782,-0.13137 0.28325,-0.0292 0.34908,-0.0145 0.46864,0.10509 0.11376,0.11377 0.13135,0.18041 0.0966,0.36598 -0.0234,0.12478 -0.0824,0.30396 -0.13114,0.39819 -0.0488,0.0941 -0.0886,0.20311 -0.0886,0.24198 0,0.0389 0.22707,0.31829 0.50463,0.62094 3.69421,4.02836 5.54511,9.24317 5.20775,14.67269 -0.38769,6.23968 -3.59512,11.77128 -8.8445,15.25337 -2.73481,1.81408 -5.65709,2.83257 -9.14576,3.18754 -0.22395,0.0228 -0.69406,0.13686 -1.04472,0.25349 -0.90042,0.29946 -1.59398,0.38956 -2.15464,0.27992 z m 1.76127,-0.50626 c 0.84068,-0.28272 2.24677,-1.09071 3.32486,-1.91061 l 0.36975,-0.28121 h 0.63813 c 0.35095,0 0.99715,-0.0471 1.43598,-0.1045 l 0.79791,-0.1045 0.23898,0.1826 c 0.35235,0.26923 0.71468,0.25802 0.97211,-0.03 0.1747,-0.19553 0.18727,-0.23936 0.15258,-0.53205 -0.0513,-0.43299 -0.29098,-0.75651 -0.82453,-1.11274 -0.24038,-0.16049 -0.62028,-0.45012 -0.8442,-0.64359 -0.87593,-0.75677 -1.69751,-1.00919 -3.10081,-0.95267 -0.99296,0.0399 -1.583,0.17176 -2.66229,0.59454 l -0.65774,0.25767 -0.53592,-0.56066 -0.53593,-0.56065 -0.68561,0.63541 c -0.80021,0.74163 -1.61424,1.36127 -2.62465,1.99784 -0.39777,0.25061 -0.72324,0.4754 -0.72324,0.49951 0,0.0241 0.33123,0.36247 0.73606,0.7519 0.81388,0.78292 1.84963,1.58589 2.42739,1.88185 0.36628,0.18764 0.39264,0.1917 1.03627,0.16024 0.43754,-0.0214 0.79691,-0.0782 1.0649,-0.16831 z m -5.91789,-2.77973 c 2.35714,-1.21877 4.20826,-2.76295 5.31483,-4.43357 0.26639,-0.40217 0.2635,-0.42107 -0.14226,-0.92953 -1.002,-1.25563 -2.28979,-2.22357 -3.50712,-2.63602 -1.2585,-0.42642 -2.52675,-0.22873 -3.5722,0.55681 -0.7692,0.57797 -1.07353,1.26299 -1.07274,2.41469 0,0.90136 0.0749,1.34334 0.38068,2.26418 0.38104,1.14749 1.43662,3.22607 1.63832,3.22607 0.0361,0 0.4684,-0.20819 0.96049,-0.46263 z m 14.40107,-1.36526 c 1.46616,-0.84058 2.58885,-1.71455 3.91976,-3.05141 2.65293,-2.66471 4.31158,-5.93071 4.95445,-9.75549 0.1162,-0.6914 0.13649,-1.07028 0.142,-2.65445 0.007,-1.93557 -0.021,-2.26622 -0.31452,-3.72467 -0.59708,-2.96846 -2.12228,-6.04383 -4.03569,-8.1374 -0.30674,-0.33562 -0.34084,-0.35642 -0.41598,-0.25364 -0.11965,0.16366 -0.98312,2.81368 -1.2024,3.69032 -0.21439,0.85707 -0.40822,1.96119 -0.50846,2.89649 -0.0682,0.63555 -0.0674,0.64386 0.0943,0.91944 0.10288,0.17557 0.17906,0.4241 0.20664,0.67413 l 0.0437,0.39604 0.34453,0.17198 c 0.18951,0.0946 0.92947,0.45436 1.64436,0.7995 0.71491,0.34515 1.2998,0.6624 1.29978,0.70501 -2e-5,0.0427 -0.0806,0.24783 -0.17914,0.45603 -0.28985,0.61273 -0.71804,0.87973 -1.25366,0.78179 -0.31292,-0.0572 -0.32641,-0.0433 -0.54474,0.56451 -0.37938,1.05607 -0.87774,1.85436 -1.55061,2.48381 -0.49267,0.46086 -0.93419,0.67993 -1.65562,0.82148 l -0.54298,0.10653 -0.0834,0.28189 c -0.47724,1.6136 -0.68262,2.40117 -0.89025,3.414 -0.36383,1.77475 -0.50633,2.08918 -1.07528,2.37271 -0.2626,0.13084 -0.42013,0.16431 -0.77376,0.16431 -1.1455,0 -4.85909,-0.81833 -6.56053,-1.44567 -0.27306,-0.10067 -0.53455,-0.18304 -0.58115,-0.18304 -0.0467,0 -0.10301,0.0833 -0.12535,0.18498 -0.0604,0.27521 -0.25979,0.49225 -0.52515,0.57175 -0.19124,0.0573 -0.31211,0.0501 -0.63873,-0.0378 -0.56443,-0.15206 -0.7229,-0.17479 -0.90315,-0.12955 -0.23433,0.0588 -0.19199,0.17238 0.14026,0.37624 0.92052,0.56485 1.98779,1.51203 2.68559,2.38343 0.27031,0.33752 0.39941,0.55374 0.39941,0.66887 0,0.10715 -0.1739,0.43157 -0.46983,0.87649 -0.25839,0.38853 -0.46845,0.72178 -0.46681,0.74059 0.002,0.0188 0.19282,0.23898 0.42479,0.48928 l 0.42178,0.4551 0.66899,-0.25209 c 1.16236,-0.43802 1.63233,-0.5278 2.77244,-0.52964 0.7817,-9.5e-4 1.0919,0.0234 1.40946,0.1123 0.61784,0.17287 1.13904,0.4451 1.67376,0.87425 0.42365,0.34002 1.37455,1.01839 1.45618,1.03884 0.0161,0.004 0.28382,-0.13871 0.5951,-0.31717 z m -16.81727,0.11626 c 0,-0.0112 -0.0965,-0.24373 -0.21445,-0.5168 -0.31733,-0.7346 -0.64526,-1.9308 -0.72207,-2.63379 -0.14821,-1.35665 0.21848,-2.49079 1.03883,-3.21287 0.33707,-0.29671 1.11413,-0.7084 1.60469,-0.85019 0.19812,-0.0573 0.3602,-0.13732 0.3602,-0.17796 0,-0.0979 -1.02978,-1.26086 -1.97056,-2.22543 -1.17163,-1.20131 -1.74397,-1.58218 -2.23814,-1.48948 -0.23096,0.0434 -0.26173,0.0696 -2.94011,2.5135 -0.90621,0.82688 -1.74123,1.58799 -1.85561,1.69135 l -0.20795,0.18792 0.27569,0.48178 c 0.42612,0.74473 1.15146,1.74628 2.03433,2.80893 0.88733,1.06805 1.01753,1.18545 2.10581,1.8988 0.41226,0.27024 0.91007,0.61484 1.10623,0.76579 0.48113,0.37024 1.23942,0.77677 1.45084,0.77786 0.0948,4.7e-4 0.17227,-0.009 0.17227,-0.0194 z m 14.93221,-6.43728 c 0.47943,-0.13313 0.65179,-0.50379 0.98434,-2.11706 0.1644,-0.79758 0.61866,-2.55922 0.89438,-3.46841 0.0496,-0.1637 0.0719,-0.30856 0.0494,-0.32192 -0.0225,-0.0134 -0.20609,-0.0582 -0.40804,-0.0998 l -0.36719,-0.0755 -0.2279,0.21849 c -0.4999,0.47921 -1.1985,0.65793 -2.12288,0.54305 -0.6735,-0.0836 -1.5429,-0.36458 -1.56911,-0.50697 -0.0312,-0.16932 0.11556,-0.17082 0.77044,-0.008 0.85565,0.21284 1.88158,0.22611 2.2629,0.0294 0.8351,-0.43106 0.92945,-1.42668 0.20129,-2.12453 -0.36075,-0.34575 -0.674,-0.44016 -1.80645,-0.54452 -0.94129,-0.0867 -1.49145,-0.12205 -1.66118,-0.10658 -0.035,0.004 -0.20422,0.12292 -0.37584,0.26606 -0.39503,0.32944 -1.19689,0.70847 -1.70996,0.80826 -0.57919,0.11267 -1.41407,0.0414 -2.23535,-0.19112 -1.96822,-0.55696 -2.69481,-1.40266 -3.06801,-3.571 -0.11218,-0.65166 -0.2207,-1.96541 -0.2207,-2.6714 0,-0.28785 -0.0232,-0.52335 -0.0515,-0.52335 -0.077,0 -1.02087,0.69963 -1.74436,1.29293 -0.45273,0.37126 -0.65597,0.58149 -0.70255,0.72663 -0.13167,0.41029 -0.44573,1.6185 -0.44573,1.71474 0,0.0544 0.11274,0.22706 0.25056,0.38362 0.46438,0.52757 0.25484,0.71453 -0.26052,0.23246 -0.56521,-0.52871 -1.29114,-0.73042 -1.82531,-0.50723 -0.24277,0.10143 -0.58711,0.47878 -0.7189,0.78781 -0.15237,0.35727 -0.18071,1.44451 -0.0468,1.7952 0.26861,0.70332 1.33749,0.99014 2.07633,0.55716 0.25673,-0.15046 0.27129,-0.15225 0.33096,-0.0408 0.13585,0.25383 -0.26008,0.5149 -0.91578,0.60391 l -0.32642,0.0443 -0.25619,0.47495 c -0.14091,0.26121 -0.41469,0.71071 -0.60842,0.99887 l -0.35226,0.52393 0.15182,0.10618 c 0.59686,0.41738 2.5071,2.33207 3.25984,3.26743 l 0.43127,0.53589 0.58956,0.074 c 0.32429,0.0408 0.74397,0.12272 0.93266,0.18219 0.34001,0.10718 0.34487,0.10687 0.54278,-0.034 0.33362,-0.23756 0.57683,-0.2578 1.29438,-0.10768 0.60117,0.12576 0.65463,0.12805 0.75052,0.0322 0.0567,-0.0568 0.10663,-0.21137 0.11082,-0.34353 0.008,-0.24024 0.008,-0.24034 -0.52481,-0.51365 -0.80987,-0.41577 -1.45446,-0.79936 -1.91675,-1.14063 -0.22999,-0.16977 -0.4385,-0.30867 -0.46337,-0.30867 -0.0249,0 -0.14816,0.15504 -0.27397,0.34453 -0.2289,0.34476 -0.38651,0.43005 -0.45671,0.24714 -0.10654,-0.27766 0.55096,-0.96858 1.07063,-1.12507 0.50637,-0.15248 1.03787,-0.1157 1.03787,0.0718 0,0.11939 -0.26014,0.21099 -0.59916,0.21099 -0.19611,0 -0.27781,0.0257 -0.27781,0.0875 0,0.11166 0.98964,0.75415 1.74492,1.13283 1.81002,0.90752 4.50584,1.69572 7.46346,2.18216 0.32825,0.0539 1.10636,0.0394 1.33885,-0.0252 z m -15.11086,-8.24519 c -0.10745,-0.0885 -0.14988,-0.2238 -0.20168,-0.64309 -0.036,-0.29203 -0.0753,-0.54064 -0.0871,-0.55245 -0.0119,-0.0118 -0.0799,0.0149 -0.15132,0.0595 -0.19486,0.12169 -0.31125,-0.013 -0.19652,-0.22728 0.0917,-0.17131 0.63263,-0.47154 0.84961,-0.47154 0.32685,0 0.84265,0.5425 0.84265,0.88626 0,0.27818 -0.15425,0.21891 -0.4412,-0.16953 -0.14146,-0.19151 -0.29036,-0.33736 -0.33084,-0.32412 -0.14556,0.0476 -0.19439,0.47032 -0.11139,0.96426 0.089,0.52961 0.0435,0.65571 -0.17222,0.47792 z m -5.63967,6.27738 c 0.90781,-0.82687 1.96655,-1.80316 2.35275,-2.1695 0.79272,-0.75196 1.09621,-0.93128 1.57617,-0.93128 h 0.32615 l 0.34903,-0.54102 c 0.19194,-0.29755 0.44514,-0.71588 0.56258,-0.92959 l 0.21362,-0.3886 -0.35427,-0.18229 c -0.41874,-0.21547 -0.6877,-0.52608 -0.8367,-0.96622 l -0.10824,-0.31974 -0.0688,0.27294 c -0.0955,0.37882 -0.31505,0.68493 -0.58735,0.81851 -0.20938,0.10271 -0.24724,0.10443 -0.41319,0.0187 -0.27549,-0.14246 -0.35728,-0.4115 -0.35433,-1.16528 0.003,-0.78418 0.11438,-1.12195 0.61335,-1.86144 0.54915,-0.81386 2.09297,-2.28321 3.7126,-3.53351 0.74989,-0.57888 0.68373,-0.43706 0.96175,-2.06222 0.52126,-3.04702 1.04219,-7.27586 1.22852,-9.97303 0.0357,-0.51739 0.028,-0.61077 -0.0509,-0.61077 -0.14044,0 -1.82192,0.58463 -2.42755,0.84402 -1.9641,0.8412 -3.86336,2.14753 -5.50739,3.78801 -0.95986,0.95781 -1.45428,1.56522 -2.27053,2.78947 -1.02741,1.54099 -1.87818,3.42852 -2.33441,5.17925 -0.45368,1.74084 -0.59949,2.87918 -0.59949,4.67987 0,2.416 0.43842,4.6091 1.37921,6.89928 0.34209,0.83279 0.87897,1.89029 0.94627,1.86385 0.0223,-0.009 0.78322,-0.69244 1.69101,-1.51932 z m 6.80865,-9.00608 c 0.10072,-0.12135 0.31888,-1.01371 0.25379,-1.03809 -0.0583,-0.0219 -0.81131,0.56846 -1.02195,0.80123 -0.11418,0.12617 -0.11357,0.12856 0.0343,0.13204 0.0829,0.002 0.2493,0.0409 0.36991,0.0864 0.29077,0.11002 0.28792,0.10988 0.36389,0.0184 z m 18.30347,-2.10218 c 0,-0.16287 -0.0616,-0.33297 -0.19232,-0.53015 l -0.19229,-0.29033 0.0718,-0.73835 c 0.24984,-2.57239 1.18952,-5.77775 2.41096,-8.22408 0.59739,-1.1965 0.59562,-1.19021 0.33338,-1.19021 -0.13682,0 -0.38996,0.10713 -0.7401,0.31322 -0.29271,0.17226 -0.60631,0.31321 -0.69692,0.31321 -0.28836,0 -0.32273,-0.11406 -0.29732,-0.98654 0.022,-0.75885 0.0171,-0.79876 -0.0992,-0.79876 -0.0757,0 -0.27284,0.17936 -0.5156,0.46903 -0.8385,1.00037 -1.15597,0.91353 -1.27364,-0.3484 -0.0921,-0.98895 -0.11407,-1.0916 -0.23252,-1.0916 -0.0565,0 -0.34977,0.24177 -0.65173,0.53724 -0.59515,0.5824 -0.72881,0.63089 -0.93636,0.33976 -0.0688,-0.0965 -0.14926,-0.4201 -0.20959,-0.84226 -0.0538,-0.37711 -0.12437,-0.71207 -0.15664,-0.74436 -0.10656,-0.10656 -0.24595,0.01 -0.50508,0.4195 -0.33187,0.52548 -0.69298,0.85391 -0.93893,0.85391 -0.29908,0 -0.38486,-0.20334 -0.44383,-1.05199 -0.0947,-1.36248 -0.25021,-1.43403 -0.99384,-0.45716 -0.43161,0.56698 -0.66503,0.75745 -0.92831,0.75745 -0.29203,0 -0.38967,-0.17073 -0.48405,-0.84642 -0.0468,-0.33499 -0.11637,-0.64036 -0.15462,-0.67861 -0.11734,-0.11736 -0.2673,0.0326 -0.5359,0.53582 -0.31411,0.58849 -0.38741,0.67599 -0.56633,0.67599 -0.34244,0 -0.46987,-0.17888 -0.71394,-1.00227 -0.15467,-0.5218 -0.27805,-0.75171 -0.40336,-0.75171 -0.19531,0 -0.40318,0.30911 -0.59489,0.88455 -0.23389,0.70203 -0.33813,0.86943 -0.54149,0.86943 -0.2252,0 -0.38083,-0.2106 -0.62898,-0.85103 -0.21086,-0.54415 -0.36312,-0.77767 -0.50714,-0.77767 -0.13633,0 -0.35875,0.33012 -0.55629,0.82568 -0.22982,0.57658 -0.44665,0.86566 -0.64926,0.86566 -0.18374,0 -0.49648,-0.30542 -0.99417,-0.97094 -0.45938,-0.61434 -0.62968,-0.71291 -0.75531,-0.43719 -0.12427,0.27275 -0.25195,1.24026 -0.3553,2.69229 -0.18891,2.65469 -0.53912,5.53416 -1.0687,8.78717 -0.15298,0.93971 -0.27815,1.72195 -0.27815,1.73831 0,0.0868 0.19048,-0.0131 0.80683,-0.42348 l 0.68073,-0.45322 0.0347,-0.45885 c 0.0545,-0.7208 0.0618,-0.72364 1.25069,-0.48623 3.95242,0.78925 7.22827,1.60466 8.10959,2.01861 0.36429,0.17112 0.5079,0.34168 0.67683,0.80387 0.16216,0.44361 0.31288,0.63819 0.55665,0.71865 0.28729,0.0949 0.49744,0.03 0.82675,-0.25503 0.37484,-0.32442 0.68628,-0.40379 1.24568,-0.31749 0.51348,0.0792 1.48286,0.35533 2.1925,0.6245 0.2756,0.10456 0.52226,0.1924 0.54811,0.19521 0.0258,0.003 0.047,-0.10282 0.047,-0.23473 z"
         id="path17"
         sodipodi:nodetypes="sssssssssssssscsssssssssssssssssscsscssssssscccssssssssssssscssssssccsssssscsssssssscsssssssssssssscscscssssssssssssssscsssssssssssscsssscsscsscsssssssssssssscsscssccssssccssssssssssssssssssssssssssscsscsscssssssssssssssscsssssscsssscsssssssssssssscsssssssssssssssssssssscsssssssscss" />
      <path
         d="m 658.22573,-85.25913 c -0.1231,-0.0241 -0.46594,-0.17467 -0.76179,-0.33465 -0.45303,-0.24494 -0.68373,-0.32116 -1.46177,-0.48297 -3.34882,-0.69642 -6.32676,-2.0968 -8.7275,-4.10411 -0.659,-0.55101 -2.42141,-2.32656 -2.97494,-2.99712 -0.49089,-0.59466 -1.45533,-2.03484 -1.93631,-2.8914 -0.99769,-1.77682 -1.85414,-4.35656 -2.17464,-6.55025 -0.24081,-1.64832 -0.22352,-4.45393 0.0368,-5.97818 0.91739,-5.37092 3.7668,-9.91991 8.16989,-13.04296 3.53116,-2.50459 8.17289,-3.81871 12.48795,-3.53547 2.73296,0.1794 4.90409,0.73755 7.35818,1.89162 0.50798,0.2389 1.06176,0.46016 1.2306,0.49171 0.24658,0.0461 0.34772,0.1064 0.5141,0.30668 0.11391,0.13714 0.40229,0.3827 0.64086,0.54571 l 0.43378,0.29638 0.28925,-0.11046 c 0.43548,-0.16632 0.57058,-0.0809 0.66675,0.42171 0.0653,0.3411 0.11338,0.43038 0.35499,0.65893 0.27642,0.26147 0.28156,0.26331 0.46776,0.16701 0.10355,-0.0535 0.33657,-0.11266 0.51782,-0.13137 0.28325,-0.0292 0.34908,-0.0145 0.46864,0.10509 0.11376,0.11377 0.13135,0.18041 0.0966,0.36598 -0.0234,0.12478 -0.0824,0.30396 -0.13114,0.39819 -0.0488,0.0941 -0.0886,0.20311 -0.0886,0.24198 0,0.0389 0.22707,0.31829 0.50463,0.62094 3.69421,4.02836 5.54511,9.24317 5.20775,14.67269 -0.38769,6.23968 -3.59512,11.77128 -8.8445,15.25337 -2.73481,1.81408 -5.65709,2.83257 -9.14576,3.18754 -0.22395,0.0228 -0.69406,0.13686 -1.04472,0.25349 -0.90042,0.29946 -1.59398,0.38956 -2.15464,0.27992 z"
         style="fill:none;stroke:#ff0000;stroke-width:0.1;stroke-dasharray:none;stroke-opacity:1"
         id="path1-0" />
    </g>
  </g>
</svg>
