<?xml version="1.0" encoding="UTF-8" standalone="no"?>
<!-- Created with Inkscape (http://www.inkscape.org/) -->

<svg
   width="41.008999mm"
   height="41.008999mm"
   viewBox="0 0 41.008999 41.009"
   version="1.1"
   id="svg1"
   inkscape:version="1.4.2 (f4327f4, 2025-05-13)"
   sodipodi:docname="273.svg"
   xmlns:inkscape="http://www.inkscape.org/namespaces/inkscape"
   xmlns:sodipodi="http://sodipodi.sourceforge.net/DTD/sodipodi-0.dtd"
   xmlns="http://www.w3.org/2000/svg"
   xmlns:svg="http://www.w3.org/2000/svg">
  <sodipodi:namedview
     id="namedview1"
     pagecolor="#ffffff"
     bordercolor="#000000"
     borderopacity="0.25"
     inkscape:showpageshadow="2"
     inkscape:pageopacity="0.0"
     inkscape:pagecheckerboard="0"
     inkscape:deskcolor="#d1d1d1"
     inkscape:document-units="mm"
     inkscape:zoom="2.8970539"
     inkscape:cx="81.807247"
     inkscape:cy="80.426533"
     inkscape:window-width="1168"
     inkscape:window-height="1081"
     inkscape:window-x="3737"
     inkscape:window-y="0"
     inkscape:window-maximized="0"
     inkscape:current-layer="layer1" />
  <defs
     id="defs1" />
  <g
     inkscape:label="Layer 1"
     inkscape:groupmode="layer"
     id="layer1"
     transform="translate(-114.0891,-77.774176)">
    <g
       id="g35"
       transform="translate(-567.24041,203.4013)">
      <path
         style="fill:#000000;stroke-width:0.1;stroke-dasharray:none"
         d="m 696.38875,-85.6187 c -6.60585,-2.03933 -11.42504,-6.41591 -13.42603,-12.19291 -1.66903,-4.8186 -1.60425,-10.26483 0.17621,-14.81366 3.14394,-8.03233 11.63555,-13.16834 20.4418,-12.3639 6.27557,0.57326 11.54897,3.69389 15.0115,8.88332 3.89631,5.83956 4.4031,13.57058 1.3092,19.97174 -0.9815,2.03068 -2.11225,3.59206 -3.88593,5.36584 -2.71434,2.71448 -5.54543,4.32604 -9.40379,5.35298 -1.25981,0.33531 -1.45189,0.34875 -4.89371,0.34244 l -3.58243,-0.007 z m 8.46534,-1.27601 c 1.30724,-0.21093 3.42704,-0.80753 3.42548,-0.96408 -0.002,-0.14818 -1.57468,-4.87459 -1.64641,-4.94632 -0.0347,-0.0347 -0.51499,0.18062 -1.06729,0.47853 -1.79668,0.96911 -3.63702,1.26248 -6.33425,1.00973 l -1.05079,-0.0985 -0.63792,0.67948 c -0.68013,0.72443 -1.44355,2.12173 -1.51434,2.77173 -0.0395,0.36242 0.006,0.40893 0.56174,0.5762 2.60751,0.78467 5.4179,0.9524 8.26378,0.4932 z m -8.80736,-2.0959 c 0.83485,-1.46536 1.62103,-2.51469 2.471,-3.29808 0.74341,-0.68518 1.13722,-0.76725 0.49319,-0.10279 -0.24963,0.25756 -0.41505,0.5071 -0.3676,0.55455 0.34485,0.34486 3.23694,0.41607 4.5291,0.11153 1.08875,-0.25661 2.77219,-1.05558 2.95881,-1.40427 0.0968,-0.18088 0.098,-0.52418 0.004,-1.10481 -0.18499,-1.13993 -0.18184,-1.16443 0.13884,-1.08058 0.36957,0.0966 0.86643,-0.1834 1.05339,-0.59372 0.19527,-0.42858 -0.0428,-0.95827 -0.5599,-1.24596 -0.33644,-0.18716 -0.40761,-0.18561 -0.76239,0.0166 l -0.3913,0.22303 0.18044,-0.51144 c 0.23383,-0.66275 1.23708,-2.25031 1.52329,-2.41048 0.12206,-0.0683 0.18678,-0.15934 0.14382,-0.2023 -0.043,-0.043 -1.49075,-0.23395 -3.21734,-0.42444 -2.99647,-0.3306 -3.14717,-0.33551 -3.31363,-0.10786 -0.1593,0.21784 -0.1744,0.20808 -0.1744,-0.1128 0,-0.19322 0.15655,-0.53734 0.34787,-0.76472 0.39762,-0.47254 0.67801,-0.55512 0.4522,-0.13317 -0.0825,0.15414 -0.1153,0.31493 -0.0729,0.35734 0.21359,0.21358 2.49172,0.59171 3.97579,0.6599 2.61418,0.12012 4.48207,-0.29577 6.28649,-1.39969 1.06462,-0.65132 1.61469,-1.15561 1.72054,-1.57734 0.0866,-0.34488 -0.29495,-0.93032 -1.33135,-2.04305 l -0.40098,-0.43051 -0.48701,0.69925 c -0.32919,0.47265 -0.71743,0.82334 -1.19801,1.08214 -0.87996,0.47387 -1.07637,0.37908 -0.23556,-0.11368 0.66772,-0.3913 1.28944,-1.0476 1.28944,-1.36115 0,-0.37104 -0.38217,-0.93812 -0.74303,-1.10254 -0.59048,-0.26904 -2.39955,0.17478 -2.86418,0.70266 -1.29033,1.46599 -2.22516,1.96212 -3.69708,1.96212 -2.01875,0 -3.1927,-0.94636 -4.37544,-3.52722 -0.39795,-0.86837 -0.75962,-1.57722 -0.80372,-1.57523 -0.0873,0.004 -2.23726,3.55428 -2.36714,3.90889 -0.065,0.17758 0.0461,0.22941 0.6077,0.28337 0.84446,0.0811 1.20026,0.34339 0.44624,0.32892 -1.09311,-0.021 -1.65594,0.42144 -1.65594,1.30169 0,0.42285 0.63229,0.96386 1.26528,1.08261 0.26304,0.0494 0.53213,0.19294 0.59797,0.31909 0.0658,0.12615 0.14672,1.05726 0.17973,2.06913 0.0563,1.7244 0.0452,1.83183 -0.17642,1.71323 -0.13005,-0.0696 -0.40671,-0.132 -0.6148,-0.13867 l -0.37836,-0.0121 0.43671,-0.12609 c 0.41722,-0.12047 0.4367,-0.1559 0.4367,-0.79411 0,-0.77677 0.11716,-0.74332 -1.78072,-0.50837 -0.95735,0.11851 -1.35047,0.12218 -1.45905,0.0136 -0.0817,-0.0817 -0.21764,-0.71347 -0.30201,-1.40385 l -0.15341,-1.25525 -0.80622,-0.2446 c -2.71897,-0.82492 -2.68934,-0.81223 -2.65456,-1.13743 0.0181,-0.16889 0.34866,-0.94068 0.73465,-1.71509 l 0.70181,-1.40803 -1.3368,-1.34183 c -0.73524,-0.73801 -1.28984,-1.34184 -1.23245,-1.34184 0.1631,0 2.91394,2.45144 2.91394,2.59679 0,0.0713 -0.33256,0.74956 -0.73903,1.50735 -0.40647,0.75778 -0.73904,1.47249 -0.73904,1.58825 0,0.2849 0.26918,0.40784 1.64098,0.74946 0.89777,0.22357 1.23452,0.25738 1.44449,0.14501 0.15059,-0.0806 0.27466,-0.21999 0.27572,-0.30977 0.005,-0.40407 1.45644,-3.12611 2.57424,-4.82699 1.01916,-1.55081 1.23075,-1.96305 1.24102,-2.41788 0.008,-0.33958 0.0891,-0.58942 0.21392,-0.65629 0.23842,-0.12774 7.76474,-1.06333 8.55387,-1.06333 0.3649,0 0.69366,0.10895 1.00015,0.33146 0.25112,0.18231 0.60025,0.43612 0.77585,0.56404 0.31448,0.22907 0.32658,0.22428 0.80622,-0.31921 0.26783,-0.30347 0.61903,-0.61775 0.78045,-0.6984 0.17781,-0.0888 1.2025,-0.14663 2.59949,-0.14663 2.5861,0 2.88338,-0.0816 3.27264,-0.89784 0.11933,-0.25024 0.21697,-0.50389 0.21697,-0.56367 0,-0.0598 -0.69301,-0.43564 -1.54003,-0.83526 -0.84702,-0.39961 -1.57208,-0.80569 -1.61125,-0.90241 -0.0392,-0.0967 -0.006,-0.4595 0.073,-0.80622 0.25638,-1.12085 0.63467,-3.4503 0.57103,-3.5162 -0.034,-0.0353 -1.05724,0.10359 -2.27383,0.30846 -1.21659,0.20487 -2.2678,0.338 -2.33603,0.29583 -0.0682,-0.0421 -0.57917,-0.87634 -1.13542,-1.85372 -0.55626,-0.97738 -1.06944,-1.86464 -1.14038,-1.9717 -0.10232,-0.15437 -0.51314,0.16722 -1.98577,1.55447 -1.02122,0.96201 -1.93241,1.79392 -2.02487,1.8487 -0.10143,0.0601 -0.79425,-0.29308 -1.74681,-0.89044 -1.91441,-1.20055 -1.96876,-1.22271 -2.29035,-0.93405 -0.3091,0.27745 -1.12444,2.07899 -1.44126,3.18456 -0.12706,0.44343 -0.2846,0.87336 -0.35006,0.95543 -0.0708,0.0888 -0.86685,0.18105 -1.96574,0.22787 -1.8783,0.08 -2.96447,0.2764 -3.07151,0.55534 -0.0326,0.0851 0.16068,0.99857 0.42966,2.02985 0.67747,2.59746 0.68501,2.67032 0.30408,2.93821 -0.24958,0.17551 -2.79893,1.719 -3.40569,2.06195 -0.0739,0.0418 10e-4,-0.0731 0.16664,-0.2553 0.16555,-0.18219 0.94329,-0.71864 1.7283,-1.19212 0.78501,-0.47348 1.45436,-0.9314 1.48743,-1.0176 0.0331,-0.0862 -0.0936,-0.68716 -0.28157,-1.33546 -0.41493,-1.43122 -0.70772,-3.38388 -0.53352,-3.55808 0.17844,-0.17844 2.71168,-0.53668 3.79508,-0.53668 h 0.92213 l 0.99408,-2.16922 c 0.54675,-1.19308 1.09355,-2.23196 1.21511,-2.30864 0.21098,-0.13308 0.84653,0.17725 3.56485,1.74061 l 0.42772,0.24599 1.26972,-1.341 c 0.81426,-0.85998 1.2129,-1.37405 1.11133,-1.43313 -0.37743,-0.21955 -2.65172,-0.40893 -3.99588,-0.33274 -6.26915,0.35539 -11.92716,3.87004 -15.02169,9.3312 -1.65511,2.92089 -2.57436,6.76707 -2.36747,9.90553 0.35993,5.45997 3.11972,10.71667 7.09022,13.50504 l 0.97301,0.68332 0.27251,-0.48996 c 0.65858,-1.18405 2.14155,-3.31373 3.08258,-4.42684 0.91596,-1.08346 1.0147,-1.25425 0.94864,-1.64081 l -0.0737,-0.43148 0.38633,0.38633 0.38633,0.38633 -1.01948,1.05871 c -1.18626,1.23191 -1.97489,2.28471 -2.87167,3.83358 -0.91075,1.573 -0.9002,1.60124 0.97878,2.61985 0.84989,0.46073 1.58185,0.83865 1.62656,0.83982 0.0447,0.001 0.39842,-0.5545 0.78601,-1.23481 z m 5.75883,-5.30465 c 0.097,-0.0388 0.21289,-0.034 0.25754,0.0106 0.0446,0.0446 -0.0347,0.0764 -0.17636,0.0706 -0.15653,-0.006 -0.18837,-0.0383 -0.0812,-0.0812 z m 0.4395,-0.0806 c 0.0308,-0.0209 0.17692,-0.12673 0.32473,-0.23515 0.24859,-0.18234 0.25491,-0.17949 0.0843,0.038 -0.10143,0.12933 -0.24755,0.23515 -0.32472,0.23515 -0.0772,0 -0.11512,-0.0171 -0.0843,-0.038 z m -1.35862,-0.43624 c -0.17562,-0.18693 -0.40453,-0.30718 -0.50868,-0.26721 -0.14041,0.0539 -0.16091,0.0115 -0.0793,-0.164 0.0606,-0.13018 0.11265,-0.48852 0.11574,-0.79633 0.004,-0.4074 0.0478,-0.52462 0.16077,-0.43088 0.10305,0.0855 0.3061,0.0367 0.60467,-0.14529 0.24723,-0.15074 0.60068,-0.26727 0.78545,-0.25898 0.26999,0.0121 0.28318,0.0267 0.0672,0.0742 -0.64137,0.14113 -1.0336,0.37607 -1.21567,0.72817 -0.27117,0.52438 -0.24707,0.71173 0.15265,1.18677 0.41951,0.49857 0.36331,0.54845 -0.0829,0.0735 z m -2.55949,-0.164 -0.32575,-0.36951 0.33592,0.28522 c 0.18476,0.15688 0.42663,0.31839 0.53748,0.35892 0.17259,0.0631 0.17114,0.0752 -0.0102,0.0843 -0.11645,0.006 -0.35832,-0.15568 -0.53748,-0.35892 z m 6.16312,0.23724 c 0.58632,-0.13891 0.96868,-0.50285 0.96868,-0.92201 0,-0.32175 0.0103,-0.3267 0.18441,-0.0886 0.16607,0.22711 0.1314,0.29648 -0.34864,0.69753 -0.33115,0.27667 -0.66819,0.44014 -0.88985,0.4316 -0.32578,-0.0126 -0.31835,-0.0229 0.0854,-0.11853 z m -1.16044,-0.23297 c -0.23954,-0.0455 -0.29805,-0.12518 -0.24395,-0.33204 0.0957,-0.36581 -0.12778,-0.92721 -0.4892,-1.22915 -0.16249,-0.13574 -0.20473,-0.20213 -0.0939,-0.14752 0.11085,0.0546 0.30356,0.18671 0.42823,0.29356 0.12467,0.10686 0.3003,0.14878 0.39028,0.0932 0.0978,-0.0605 0.12895,-0.045 0.0774,0.0384 -0.0474,0.0767 -0.002,0.41864 0.10046,0.7598 0.10267,0.34115 0.17748,0.61205 0.16624,0.60199 -0.0112,-0.0101 -0.16225,-0.0453 -0.33557,-0.0782 z m -5.40581,-0.84408 c -0.0456,-0.26469 -0.12901,-0.32917 -0.39336,-0.30405 -0.31403,0.0299 -0.3183,0.0224 -0.0667,-0.11748 0.41702,-0.23177 0.60467,-0.53391 0.60467,-0.97354 0,-0.35189 0.0213,-0.37476 0.16796,-0.18003 0.13226,0.17566 0.26858,0.19989 0.64117,0.11394 0.26027,-0.06 0.59166,-0.0676 0.73643,-0.0168 0.18675,0.0655 0.0745,0.1136 -0.38628,0.16554 -0.79366,0.0895 -1.04673,0.32354 -1.15935,1.0724 -0.0677,0.45015 -0.0993,0.50258 -0.14449,0.24004 z m 7.33556,-0.53061 c -0.0457,-0.14403 -0.20551,-0.30072 -0.35511,-0.34819 -0.14959,-0.0475 -0.24502,-0.11331 -0.21205,-0.14628 0.13704,-0.13703 0.76653,0.28111 0.76653,0.50916 0,0.32228 -0.0946,0.31531 -0.19937,-0.0147 z m -1.31229,-0.49898 c 0.0924,-0.0373 0.24354,-0.0373 0.33592,0 0.0924,0.0373 0.0168,0.0678 -0.16796,0.0678 -0.18476,0 -0.26034,-0.0305 -0.16796,-0.0678 z m -8.29148,-0.46396 c -0.006,-0.37995 0.45219,-1.06216 0.7093,-1.05521 0.087,0.003 0.0468,0.0887 -0.0895,0.19193 -0.13621,0.10322 -0.33008,0.41874 -0.4308,0.70117 -0.15869,0.44496 -0.18392,0.4666 -0.18903,0.16211 z m 0.96829,-5.99165 c -0.16628,-0.032 -0.30233,-0.1145 -0.30233,-0.18326 0,-0.226 0.53195,-0.66251 0.80736,-0.66251 0.23243,0 0.24754,0.0358 0.10886,0.25783 -0.12678,0.203 -0.12352,0.30301 0.0153,0.4703 0.18917,0.22793 0.0645,0.25124 -0.6292,0.11764 z m 15.54116,13.43196 c 1.43806,-0.95684 3.62284,-3.05633 4.61617,-4.43595 1.40795,-1.95547 2.31903,-4.03483 2.92865,-6.68407 0.39563,-1.71929 0.50612,-5.44974 0.21147,-7.13987 -0.62509,-3.58555 -2.23784,-6.70748 -4.89525,-9.47613 -0.70132,-0.73067 -1.30764,-1.29599 -1.34737,-1.25626 -0.0712,0.0712 -0.70204,2.93704 -0.65317,2.96718 0.0138,0.009 0.66915,0.3289 1.45628,0.71194 0.78713,0.38305 1.50546,0.78598 1.59628,0.89541 0.13273,0.15993 0.10899,0.33403 -0.12105,0.88755 -0.15739,0.37873 -0.28616,0.73533 -0.28616,0.79244 0,0.0571 0.30917,0.14637 0.68704,0.19834 l 0.68705,0.0945 -0.0766,0.47227 c -0.0842,0.51868 -0.40716,0.94937 -0.83464,1.11295 -0.23613,0.0904 -0.29841,0.29533 -0.42911,1.41217 -0.19971,1.70664 -0.62984,2.62383 -1.48475,3.16599 -0.33658,0.21346 -0.81292,0.4258 -1.05853,0.47188 -0.24562,0.0461 -0.44657,0.13837 -0.44657,0.20509 0,0.0667 0.27209,0.45538 0.60466,0.86368 0.7308,0.89723 0.76689,1.26708 0.16797,1.72123 -0.90292,0.68464 -2.63412,1.62898 -3.99752,2.18057 -1.55906,0.63074 -2.25779,1.13569 -2.8384,2.05122 -0.51045,0.80489 -0.4912,1.02101 0.1174,1.31838 1.03296,0.50474 1.08406,1.62985 0.0966,2.1274 -0.29334,0.14781 -0.55927,0.2846 -0.59096,0.30397 -0.0949,0.058 0.40327,1.54646 0.66285,1.98033 0.13265,0.22171 0.55627,1.40081 0.94138,2.62022 0.3851,1.21942 0.72873,2.26476 0.76361,2.32299 0.0839,0.14006 2.1016,-0.93985 3.52268,-1.88541 z m -16.21362,-10.25434 c 1.38361,-0.21712 1.50748,-0.31718 1.38703,-1.12041 -0.0523,-0.34888 -0.16648,-0.65438 -0.25368,-0.67888 -0.92676,-0.26039 -1.48742,-0.55685 -1.69328,-0.89537 -0.1295,-0.21294 -0.26578,-0.35684 -0.30285,-0.31978 -0.0371,0.0371 -0.0404,0.61034 -0.007,1.27394 l 0.06,1.20656 -0.41679,0.23724 c -0.4934,0.28084 -0.57158,0.63832 -0.11617,0.53116 0.16629,-0.0391 0.77068,-0.14464 1.3431,-0.23446 z m 14.40335,-19.86179 c 0.66046,-0.12932 1.22529,-0.30847 1.25517,-0.39811 0.0329,-0.0988 -0.70447,-0.52472 -1.8727,-1.08163 -1.38725,-0.66134 -1.93927,-0.86707 -1.97074,-0.7345 -0.0484,0.20403 1.14467,2.47048 1.29368,2.45752 0.0516,-0.005 0.63412,-0.11396 1.29459,-0.24328 z"
         id="path19" />
      <circle
         style="fill:none;stroke:#ff0000;stroke-width:0.1;stroke-dasharray:none"
         id="path788-8-1-8-1-9-2-6-3-4-7-1-6-1-0-8-3-6-1-0-9-6-7-4"
         cx="701.83398"
         cy="-105.16875"
         r="19.954653" />
      <circle
         style="fill:none;stroke:#0000ff;stroke-width:0.1;stroke-linecap:round;stroke-dasharray:none;stroke-opacity:1;paint-order:markers stroke fill"
         id="path13019-1-33-3-83-70-3-7-5-9-5-4-1-5-2-2-8-2-4-1"
         cx="701.83398"
         cy="-120.17974"
         r="2" />
    </g>
  </g>
</svg>
