<?xml version="1.0" encoding="UTF-8" standalone="no"?>
<!-- Created with Inkscape (http://www.inkscape.org/) -->

<svg
   width="41.008999mm"
   height="41.008999mm"
   viewBox="0 0 41.008999 41.009"
   version="1.1"
   id="svg1"
   inkscape:version="1.4.2 (f4327f4, 2025-05-13)"
   sodipodi:docname="221.svg"
   xmlns:inkscape="http://www.inkscape.org/namespaces/inkscape"
   xmlns:sodipodi="http://sodipodi.sourceforge.net/DTD/sodipodi-0.dtd"
   xmlns="http://www.w3.org/2000/svg"
   xmlns:svg="http://www.w3.org/2000/svg">
  <sodipodi:namedview
     id="namedview1"
     pagecolor="#ffffff"
     bordercolor="#000000"
     borderopacity="0.25"
     inkscape:showpageshadow="2"
     inkscape:pageopacity="0.0"
     inkscape:pagecheckerboard="0"
     inkscape:deskcolor="#d1d1d1"
     inkscape:document-units="mm"
     inkscape:zoom="2.0485264"
     inkscape:cx="68.341808"
     inkscape:cy="134.73099"
     inkscape:window-width="1050"
     inkscape:window-height="1081"
     inkscape:window-x="3737"
     inkscape:window-y="0"
     inkscape:window-maximized="0"
     inkscape:current-layer="layer1" />
  <defs
     id="defs1" />
  <g
     inkscape:label="Layer 1"
     inkscape:groupmode="layer"
     id="layer1"
     transform="translate(-114.0891,-77.774176)">
    <g
       id="g152"
       transform="translate(-261.25772,402.14608)">
      <circle
         style="fill:none;stroke:#ff0000;stroke-width:0.1;stroke-dasharray:none"
         id="path788-8-1-8-1-9-2-6-3-4-7-1-6-1-6"
         cx="395.85132"
         cy="-303.8674"
         r="19.954653" />
      <ellipse
         style="fill:none;stroke:#ff00ff;stroke-width:0.1;stroke-dasharray:none;stroke-opacity:1"
         id="path1138-9-4-0-0-1-2-0-0-6-8-8-1-1-3"
         cx="395.85132"
         cy="-303.8674"
         rx="18.492125"
         ry="18.492126" />
      <circle
         style="fill:none;stroke:#0000ff;stroke-width:0.1;stroke-linecap:round;stroke-dasharray:none;stroke-opacity:1;paint-order:markers stroke fill"
         id="path13019-1-33-3-83-70-3-7-5-9-1"
         cx="395.85132"
         cy="-318.87836"
         r="2" />
      <path
         style="fill:#000000;stroke-width:0.0938547;stroke-dasharray:none"
         d="m 396.96254,-288.94165 c -0.14476,-0.0268 -0.46056,-0.0753 -0.70181,-0.10743 -0.9133,-0.12179 -2.22883,-0.60167 -3.11135,-1.13498 -0.23477,-0.14187 -0.53212,-0.31186 -0.66079,-0.37776 -0.36483,-0.18685 -2.01291,-1.5839 -2.38267,-2.01976 -0.37814,-0.44574 -0.75692,-1.05739 -0.89128,-1.43926 -0.13232,-0.37603 -0.30556,-1.39325 -0.38279,-2.24753 -0.0766,-0.84762 -0.007,-1.51787 0.16864,-1.6116 0.0954,-0.051 0.56271,0.005 0.63331,0.0746 0.0489,0.0489 0.12226,0.5318 0.1967,1.29525 0.0654,0.67109 0.23377,1.61117 0.37162,2.07537 0.24605,0.82855 0.84314,1.62648 2.04573,2.73386 0.91447,0.84206 2.66843,1.61327 4.56846,2.00876 0.4037,0.084 1.83578,0.08 2.63174,-0.007 1.60116,-0.17584 2.38913,-0.37711 4.19628,-1.0718 1.25898,-0.48399 2.59751,-1.48997 3.43373,-2.58068 0.50375,-0.65705 0.97216,-1.57364 1.07937,-2.11211 0.16793,-0.84341 0.0127,-1.8793 -0.38744,-2.5846 -0.20242,-0.35683 -0.29008,-0.37373 -0.11026,-0.0213 0.24812,0.48636 0.41454,1.0991 0.41454,1.52636 0,0.22753 -0.0123,0.41367 -0.0272,0.41367 -0.015,0 -0.15149,-0.0788 -0.30339,-0.17515 -0.17319,-0.10982 -0.28303,-0.22433 -0.29454,-0.30703 -0.0883,-0.63381 -0.22283,-0.95707 -0.65148,-1.56471 -0.3496,-0.49559 -0.75889,-0.92796 -1.27532,-1.34726 -0.5215,-0.42343 -0.69247,-0.5308 -1.60034,-1.00508 -1.11356,-0.58173 -1.9371,-0.89926 -3.21656,-1.24023 -0.53029,-0.14131 -2.17709,-0.38426 -2.60472,-0.38426 -0.11134,0 -0.20246,-0.0254 -0.20246,-0.0566 0,-0.0312 0.24346,-0.19836 0.54098,-0.37166 l 0.54096,-0.3151 0.5556,0.0492 c 0.99084,0.0878 1.70176,0.23216 2.83641,0.57606 0.47472,0.14388 2.66352,1.01301 3.09958,1.23078 1.5093,0.75374 2.93477,2.25618 3.33118,3.51107 0.20963,0.66358 0.3096,1.71926 0.21836,2.30608 -0.14384,0.92518 -0.64502,1.8305 -1.60368,2.89688 -0.85971,0.95631 -1.61561,1.5007 -2.94006,2.11737 -1.33065,0.61956 -1.9788,0.81408 -3.65518,1.09698 -1.29455,0.21846 -3.15979,0.30107 -3.85986,0.17093 z m -0.0878,-1.01256 c -0.6732,-0.17527 -1.72202,-0.71008 -1.95918,-0.999 -0.0843,-0.10267 -0.0648,-0.1052 0.4971,-0.0651 0.50233,0.0359 0.64402,0.071 1.00439,0.24776 0.2565,0.12591 0.51787,0.20978 0.67254,0.21579 0.55593,0.0216 0.24724,-0.23607 -0.51132,-0.4269 -0.26598,-0.0669 -0.8629,-0.14266 -1.39953,-0.1776 -1.86106,-0.12117 -2.11551,-0.19146 -2.73172,-0.75464 -0.3722,-0.34019 -0.86551,-1.02943 -1.07367,-1.50014 -0.18967,-0.42885 -0.33039,-1.21672 -0.22205,-1.24318 0.0417,-0.0106 0.26535,0.0819 0.49703,0.20468 0.42001,0.22258 0.42156,0.2243 0.54298,0.60335 0.23995,0.7491 0.66213,1.30143 1.19431,1.56252 0.30592,0.15009 0.40206,0.16523 1.26676,0.1995 0.84638,0.0336 0.98879,0.0551 1.49132,0.22597 0.77932,0.26492 1.21223,0.47016 1.76923,0.83875 0.82276,0.54444 0.99459,0.83924 0.59932,1.02819 -0.23737,0.11349 -1.25941,0.13845 -1.63751,0.04 z m -8.81683,-1.04786 c -0.0234,-0.0586 -0.0829,-0.41376 -0.13186,-0.78952 -0.049,-0.37577 -0.10055,-0.72268 -0.11443,-0.77093 -0.0139,-0.0482 -0.0694,-0.62722 -0.12335,-1.28663 -0.0721,-0.88156 -0.0886,-1.51622 -0.0624,-2.39779 0.0458,-1.53908 0.18132,-2.20387 0.79861,-3.91834 0.13318,-0.36992 0.34345,-0.96205 0.46726,-1.31587 0.2141,-0.6119 0.66982,-1.66675 0.72005,-1.66675 0.0129,0 0.18168,0.19261 0.37491,0.42805 l 0.35132,0.42805 -0.11526,0.22465 c -0.4395,0.85667 -0.8457,1.98491 -1.16542,3.23704 -0.41196,1.61331 -0.51878,2.3265 -0.51433,3.43386 l 0.002,0.52365 0.13778,-0.16846 0.13777,-0.16847 0.0336,0.16847 c 0.0184,0.0927 0.0499,0.27374 0.0696,0.40241 0.0199,0.12866 0.0756,0.35902 0.12373,0.51191 0.0872,0.27675 0.0869,0.27895 -0.085,0.4971 -0.41075,0.52127 -0.72929,1.43199 -0.82324,2.35375 -0.0253,0.24811 -0.0536,0.34321 -0.0814,0.27382 z m 10.74676,-0.26844 c -1.55452,-0.2904 -2.82724,-0.85322 -3.82006,-1.68931 -0.78217,-0.6587 -1.27492,-1.70256 -1.5374,-3.25691 -0.0906,-0.53655 -0.0295,-1.73662 0.11784,-2.31104 0.13997,-0.54602 0.31777,-1.02868 0.371,-1.00716 0.0222,0.008 0.17722,0.16104 0.34458,0.33801 l 0.3043,0.32174 -0.0936,0.3053 c -0.17077,0.55666 -0.23622,1.18057 -0.20223,1.92754 0.0562,1.23444 0.33594,1.85799 1.24059,2.76519 0.45811,0.45941 0.71787,0.66364 1.19889,0.94266 1.214,0.70422 2.24924,0.94668 4.12305,0.96562 1.46365,0.0148 2.32463,-0.16023 3.38177,-0.68754 0.91543,-0.45661 1.42235,-0.85446 2.06772,-1.62284 0.23924,-0.28481 0.53113,-0.66642 0.64867,-0.848 0.11756,-0.18159 0.22134,-0.34121 0.23065,-0.35471 0.0227,-0.0329 0.60141,0.23989 0.60141,0.28356 0,0.0756 -0.31953,0.6324 -0.48906,0.85216 -0.76537,0.99215 -1.79004,1.85507 -2.81523,2.37081 -0.59612,0.29989 -1.5369,0.60183 -2.09036,0.67089 -0.16909,0.0212 -0.39955,0.0496 -0.51213,0.0633 -0.11257,0.0136 -0.71788,0.0374 -1.3451,0.0525 -0.94941,0.023 -1.23836,0.01 -1.72524,-0.0817 z m -4.85019,-1.05748 c -0.0421,-0.0486 -0.11045,-0.15412 -0.15184,-0.23453 -0.15956,-0.30999 -0.76964,-1.05339 -1.13387,-1.38167 -0.23028,-0.20755 -0.60751,-0.45933 -0.95288,-0.63598 -0.54605,-0.2793 -0.93854,-0.59364 -1.15643,-0.92618 -0.10002,-0.1526 -0.0988,-0.15555 0.20922,-0.54936 0.17036,-0.21775 0.31265,-0.40174 0.31621,-0.40887 0.003,-0.007 0.15245,0.12509 0.3309,0.29383 0.17844,0.16875 0.54544,0.4429 0.81555,0.60926 0.27011,0.16635 0.5729,0.37625 0.67286,0.46643 0.0999,0.0902 0.32364,0.28497 0.49709,0.43283 0.17345,0.14787 0.46849,0.49 0.65564,0.76028 0.34212,0.49413 0.99183,1.57776 0.96223,1.60491 -0.009,0.008 -0.23463,0.0242 -0.50197,0.036 -0.38046,0.0168 -0.50277,0.002 -0.56271,-0.0669 z m 16.37733,-1.39751 c -0.0553,-0.0611 -0.3604,-0.31655 -0.67812,-0.56772 -0.54537,-0.43115 -0.5758,-0.46666 -0.54449,-0.63499 0.0182,-0.0981 0.0538,-0.20113 0.0791,-0.22904 0.0765,-0.0846 0.63516,0.48835 0.97765,1.00267 0.30389,0.45636 0.38841,0.67495 0.16589,0.42908 z m -24.51944,-1.58571 c 0.0154,-0.0804 0.25636,-0.84361 0.53573,-1.696 0.27936,-0.85239 0.61302,-1.90508 0.74146,-2.33931 0.12843,-0.43424 0.3664,-1.22376 0.52881,-1.75448 0.43689,-1.42771 0.97632,-3.2535 1.08391,-3.66852 l 0.0944,-0.36424 0.49205,-0.20596 c 0.27063,-0.1133 0.51497,-0.20598 0.54297,-0.20598 0.0962,0 -0.013,0.49822 -0.27559,1.25737 -0.44674,1.29151 -0.81934,2.42647 -1.21304,3.695 -0.20784,0.66966 -0.44716,1.42809 -0.53186,1.68542 -0.20832,0.63299 -0.31896,1.11949 -0.26817,1.17902 0.0231,0.027 0.0136,0.24381 -0.021,0.48178 l -0.063,0.43265 -0.30456,0.11521 c -0.42655,0.16135 -0.72518,0.4393 -0.96966,0.90258 -0.11544,0.21875 -0.25272,0.45037 -0.30507,0.51471 -0.0932,0.11462 -0.0946,0.11404 -0.0673,-0.0292 z m 21.76473,-0.17475 c -0.33517,-0.19805 -1.41778,-0.63028 -2.10539,-0.84061 -0.66619,-0.20377 -1.25406,-0.27116 -2.45628,-0.28161 -1.29299,-0.0113 -1.59094,0.059 -1.79954,0.42437 -0.0718,0.12561 -0.15264,0.22859 -0.17983,0.22884 -0.0272,2.2e-4 -0.1256,-0.0538 -0.21866,-0.12003 -0.0931,-0.0663 -0.50504,-0.28025 -0.91551,-0.47551 -0.41048,-0.19528 -0.72,-0.36384 -0.68784,-0.37457 0.46761,-0.15604 2.94782,-0.44768 3.46512,-0.40745 0.16886,0.0131 0.30702,-4.4e-4 0.30702,-0.03 0,-0.0297 -0.0109,-0.054 -0.0241,-0.054 -0.0997,0 -2.02857,-0.50551 -2.39395,-0.6274 l -0.4589,-0.15307 0.13724,-0.10653 c 0.0755,-0.0587 0.26391,-0.17073 0.41873,-0.24919 0.26592,-0.13477 0.29474,-0.13797 0.52185,-0.0578 0.22162,0.0782 0.88526,0.20783 2.06232,0.40287 0.58273,0.0965 0.7578,0.16774 2.2951,0.93298 0.68331,0.34015 1.25643,0.61844 1.27359,0.61844 0.0173,0 0.30683,0.16079 0.64367,0.35728 0.65178,0.3802 0.65892,0.39018 0.57593,0.80507 -0.045,0.2249 -0.0921,0.22572 -0.46056,0.008 z m -17.53577,-0.30773 c -0.0184,-0.1367 -0.05,-0.41962 -0.0703,-0.62869 l -0.0368,-0.38014 0.40844,-0.56128 c 0.22465,-0.30871 0.44801,-0.63768 0.49636,-0.73104 0.11125,-0.2148 1.1251,-1.40335 1.3795,-1.61721 0.23096,-0.19415 0.34921,-0.20116 0.56256,-0.0333 0.16044,0.1262 0.16171,0.13254 0.12662,0.62869 -0.0196,0.27567 -0.074,0.63279 -0.12113,0.79363 -0.0471,0.16083 -0.16719,0.59505 -0.2668,0.96496 -0.21085,0.78288 -0.40956,1.41477 -0.464,1.47535 -0.0212,0.0234 -0.19015,-0.0768 -0.37585,-0.22246 -0.27197,-0.21347 -0.33023,-0.28831 -0.29958,-0.38488 0.0956,-0.30121 0.24053,-0.98473 0.20833,-0.98258 -0.0197,9.3e-4 -0.15394,0.1921 -0.29831,0.42399 -0.36682,0.58916 -1.06421,1.50355 -1.14675,1.50355 -0.0379,0 -0.0838,-0.11184 -0.10224,-0.24855 z m -7.39645,-0.0265 c 0.033,-0.11906 0.22522,-0.67895 0.42742,-1.24421 0.36467,-1.01945 0.68649,-2.09565 0.76115,-2.54539 0.0213,-0.12866 0.0911,-0.51026 0.15488,-0.848 0.14931,-0.78997 0.27015,-1.75535 0.34408,-2.7487 0.0323,-0.43423 0.0845,-0.93252 0.11599,-1.10728 0.0315,-0.17478 0.0572,-0.41383 0.0572,-0.53122 0,-0.1174 0.0143,-0.22777 0.0319,-0.24527 0.0175,-0.0175 0.15567,0.003 0.30702,0.0456 0.15137,0.0427 0.38946,0.10686 0.52908,0.14273 l 0.25389,0.0652 -0.034,0.33258 c -0.0187,0.18294 -0.088,0.88526 -0.15402,1.56073 -0.066,0.67548 -0.13328,1.26761 -0.14942,1.31586 -0.0163,0.0482 0.47843,-0.41561 1.09904,-1.03079 0.62063,-0.6152 1.31263,-1.2574 1.53779,-1.42713 0.22516,-0.16973 0.44185,-0.33377 0.48152,-0.36452 0.0445,-0.0345 0.0268,0.0754 -0.0461,0.2867 -0.065,0.18846 -0.17155,0.55319 -0.23679,0.81051 -0.10532,0.41547 -0.15322,0.50387 -0.42798,0.78951 -1.18351,1.23048 -2.90604,3.47973 -3.78453,4.94181 -0.76274,1.26944 -1.23902,2.01458 -1.28875,2.01629 -0.0214,6.2e-4 -0.0123,-0.096 0.0206,-0.21512 z m 15.86737,-1.417 c -0.16083,-0.0573 -0.66085,-0.29109 -1.11118,-0.51931 -0.45032,-0.22821 -1.00297,-0.48389 -1.22813,-0.56817 -1.33723,-0.50054 -1.9682,-0.96804 -2.18901,-1.62191 -0.35054,-1.03805 0.15082,-2.03456 1.29739,-2.57865 0.36496,-0.17318 1.07202,-0.38884 1.27489,-0.38884 0.0299,0 -0.1757,0.20726 -0.45686,0.46056 -0.28119,0.25331 -0.57503,0.52964 -0.65301,0.61407 -0.078,0.0845 -0.17175,0.15351 -0.20837,0.15351 -0.0968,0 -0.34976,0.28536 -0.49188,0.55473 -0.15894,0.30131 -0.15475,0.5734 0.0144,0.93676 0.26561,0.57035 1.29636,1.30404 2.13381,1.51885 0.56147,0.14403 0.51609,0.16824 2.04804,-1.09265 0.47484,-0.39083 0.81902,-0.63107 0.90409,-0.63107 0.0334,0 0.006,0.0593 -0.0628,0.13158 -0.27599,0.29463 -0.28202,0.53244 -0.0196,0.77 0.0673,0.061 0.12239,0.13075 0.12239,0.15518 0,0.0244 -0.12501,0.11447 -0.2778,0.2001 -0.22745,0.12748 -0.29769,0.14336 -0.38754,0.0877 -0.0946,-0.0587 -0.14916,-0.0293 -0.39478,0.21262 -0.48341,0.47616 -0.37009,0.70945 0.4053,0.83432 0.19527,0.0314 0.49563,0.0426 0.66753,0.025 0.24981,-0.0258 0.4267,0.005 0.88162,0.15005 0.31302,0.10023 0.61487,0.18374 0.67078,0.18549 0.23008,0.007 -0.51188,0.2419 -1.19376,0.37756 -0.85105,0.16935 -1.33731,0.17845 -1.7457,0.0328 z m -8.54827,-0.0918 c -0.0625,-0.14996 -0.0629,-1.35672 -6.1e-4,-2.07616 0.13029,-1.50864 0.73064,-3.04445 1.45066,-3.71106 0.35947,-0.33281 0.89211,-0.65911 1.16496,-0.71368 0.14652,-0.0293 0.1728,-0.0163 0.1728,0.0855 0,0.14866 -0.11331,1.00192 -0.14953,1.12595 -0.0146,0.05 -0.21111,0.24278 -0.4367,0.42836 -0.36987,0.30428 -0.43834,0.39585 -0.69717,0.93249 -0.37458,0.77669 -0.64196,1.88563 -0.64536,2.67671 -9.5e-4,0.2767 -0.20825,0.65467 -0.63771,1.16419 -0.16111,0.19112 -0.17576,0.19694 -0.22125,0.0878 z m 9.13411,-0.8558 c -0.1281,-0.0299 -0.25514,-0.0768 -0.28229,-0.10393 -0.0871,-0.0871 0.34498,-0.43945 0.99454,-0.81077 0.51732,-0.29573 0.70605,-0.37186 1.04123,-0.42001 0.34514,-0.0496 2.89648,-0.0906 2.89411,-0.0465 -4.4e-4,0.008 -0.24387,0.26725 -0.54098,0.57604 l -0.54017,0.56143 -0.54835,-0.10584 c -0.3016,-0.0582 -0.55836,-0.11582 -0.57056,-0.12804 -0.0122,-0.0122 0.0701,-0.0719 0.18285,-0.13261 0.11277,-0.0606 0.20503,-0.12649 0.20503,-0.14613 0,-0.0196 -0.23567,-6.1e-4 -0.5237,0.0419 -0.54775,0.0811 -0.9871,0.27022 -1.41742,0.61019 -0.232,0.18328 -0.44881,0.20856 -0.89429,0.10425 z m -4.17646,-1.96872 c -0.0623,-0.12212 -0.13159,-0.31974 -0.15401,-0.43916 -0.0361,-0.19233 -0.0172,-0.24546 0.16594,-0.46514 0.92861,-1.11447 1.92449,-1.91299 3.374,-2.70539 1.1404,-0.62341 1.73192,-0.75396 3.26034,-0.71954 0.58707,0.0132 1.06739,0.0165 1.06739,0.007 0,-0.01 -0.1908,-0.16066 -0.424,-0.33649 -0.2332,-0.17582 -0.51505,-0.39695 -0.62632,-0.4914 l -0.20232,-0.17169 0.23157,-0.0647 c 0.12736,-0.0356 0.3967,-0.0938 0.59853,-0.12935 0.36256,-0.0638 0.37089,-0.0623 0.69338,0.13167 0.17951,0.10799 0.45263,0.31804 0.60692,0.4668 0.15427,0.14877 0.38176,0.34525 0.50552,0.43665 0.12375,0.0914 0.31906,0.24834 0.434,0.34875 0.11495,0.10046 0.57549,0.40058 1.02344,0.66703 0.44795,0.26644 0.90476,0.53897 1.01512,0.60562 0.19392,0.11708 0.1991,0.11733 0.15408,0.007 -0.28553,-0.69632 -0.0189,-1.13838 0.64175,-1.06391 0.30525,0.0344 0.28209,-0.0388 -0.0819,-0.2589 -0.117,-0.0707 -0.39696,-0.26461 -0.62211,-0.43082 -0.4063,-0.29992 -1.17541,-0.67991 -2.01766,-0.99687 -0.39131,-0.14725 -0.50802,-0.16424 -1.08194,-0.15744 -0.67289,0.008 -1.64579,0.1318 -2.22916,0.28375 -0.18852,0.0491 -0.59307,0.20881 -0.89901,0.35488 -0.96979,0.46308 -1.75641,0.78457 -2.06094,0.84233 -0.35829,0.0679 -1.19666,0.0741 -1.23686,0.008 -0.016,-0.0258 0.0611,-0.23319 0.17116,-0.46083 0.20888,-0.4318 0.27881,-0.48402 0.65043,-0.48563 0.28561,-9.4e-4 1.09399,-0.30901 2.13961,-0.81461 1.06711,-0.51603 1.3735,-0.62601 1.90234,-0.68281 0.20211,-0.0217 0.35352,-0.0534 0.33646,-0.0705 -0.10279,-0.10277 -1.61785,-0.52098 -2.69237,-0.74314 -0.67686,-0.13994 -3.10579,-0.85331 -3.56055,-1.04571 l -0.16853,-0.0713 0.34399,-0.0997 c 1.53718,-0.44548 1.5239,-0.44289 1.96068,-0.38236 0.22731,0.0315 0.44349,0.0456 0.48043,0.0315 0.037,-0.0142 0.10373,-0.12777 0.14836,-0.25244 0.0447,-0.12467 0.13232,-0.29247 0.19478,-0.37289 0.15727,-0.20254 0.78072,-0.62856 0.98573,-0.6736 0.31987,-0.0703 0.22852,-0.13511 -0.39926,-0.28351 -1.50224,-0.35516 -2.69541,-0.44263 -3.36843,-0.24697 -0.30528,0.0887 -0.74024,0.38699 -0.74024,0.50757 0,0.0283 0.0961,0.0918 0.21366,0.1409 0.11752,0.0491 0.20097,0.10194 0.18545,0.11752 -0.0549,0.0549 -1.45053,0.14361 -1.70683,0.10848 -0.23132,-0.0316 -0.27113,-0.0603 -0.3606,-0.25867 -0.21949,-0.48674 0.0416,-0.86937 0.86717,-1.27077 0.95847,-0.46601 1.58983,-0.59743 2.86649,-0.59665 1.70376,9.4e-4 2.7379,0.18026 4.51397,0.78219 1.08446,0.36753 1.33231,0.40848 2.22235,0.36717 0.51155,-0.0237 0.99859,-0.007 1.4887,0.0504 0.40062,0.0471 0.74887,0.0652 0.77388,0.0403 0.0564,-0.0564 -1.2198,-0.70465 -1.8532,-0.94131 -0.49425,-0.18469 -1.94323,-0.61626 -2.77793,-0.82739 -0.81094,-0.20512 -1.73247,-0.35121 -2.57324,-0.40794 -0.43423,-0.0293 -0.91612,-0.0664 -1.07087,-0.0826 -0.31482,-0.0328 -1.99914,0.21189 -2.37765,0.34544 -0.23479,0.0829 -0.25638,0.0787 -0.95377,-0.18073 -0.39241,-0.14601 -0.72508,-0.27705 -0.7392,-0.29118 -0.12113,-0.12113 0.97022,-0.4959 2.12178,-0.72861 1.16068,-0.23456 1.92108,-0.29199 3.04894,-0.23027 3.20763,0.17553 6.72007,1.37602 9.32801,3.18818 0.53073,0.36878 1.16702,0.83085 1.41395,1.02681 0.62143,0.49313 2.21199,2.05918 2.21199,2.1779 0,0.12954 -0.0689,0.12274 -0.25724,-0.0254 -0.46348,-0.36457 -2.44968,-1.11374 -3.92428,-1.48019 -0.92238,-0.22923 -1.95173,-0.29941 -4.32773,-0.29508 -1.38928,0.002 -1.4792,0.01 -1.80599,0.13865 -0.41822,0.16535 -0.71324,0.42488 -0.93153,0.81942 l -0.16429,0.29692 0.14863,0.0565 c 0.0817,0.0312 0.55673,0.19035 1.05555,0.35392 1.18984,0.3902 2.29855,0.89953 3.1407,1.44284 0.37727,0.24338 0.51732,0.29996 0.51499,0.20799 -6.2e-4,-0.0241 -0.11885,-0.28072 -0.26278,-0.57022 -0.14391,-0.28947 -0.26185,-0.55834 -0.26206,-0.59746 -6.1e-4,-0.15773 0.47563,0.21892 1.30711,1.03318 0.47788,0.468 0.97571,1.00881 1.10629,1.20181 0.31258,0.46202 0.69729,0.91295 1.44699,1.69601 0.90557,0.94588 1.28571,1.74877 1.28571,2.7156 0,0.76253 -0.31892,1.13668 -0.84509,0.99138 -0.10944,-0.0302 -0.36161,-0.17923 -0.5604,-0.33115 -0.52948,-0.40467 -1.17292,-0.87276 -1.3628,-0.99141 -0.0913,-0.057 -0.36753,-0.22954 -0.61408,-0.38346 -0.55658,-0.34748 -1.62032,-0.86855 -2.25207,-1.10316 -1.06661,-0.39609 -3.05632,-0.68907 -3.94265,-0.58056 -1.77235,0.217 -3.07908,0.9324 -4.82052,2.63917 -0.49059,0.48082 -0.89885,0.8742 -0.90724,0.8742 -0.009,0 -0.0662,-0.0999 -0.12855,-0.22202 z m 13.72252,-1.95036 c 0.1596,-0.1596 -0.1053,-0.71821 -0.49148,-1.03655 -0.35158,-0.2898 -0.72178,-0.22396 -0.72178,0.12837 0,0.13004 0.43343,0.62602 0.70851,0.81077 0.26369,0.1771 0.39896,0.2032 0.50475,0.0974 z m -29.22654,1.67399 c 0,-0.0168 0.1013,-0.1418 0.22509,-0.27779 0.1238,-0.13598 0.51161,-0.62885 0.86181,-1.09525 0.61754,-0.82246 1.06558,-1.59863 1.38416,-2.39779 0.38422,-0.9639 0.61663,-1.37669 1.05361,-1.87145 0.60597,-0.68604 1.07568,-1.1271 1.39471,-1.30959 l 0.26997,-0.15444 0.0364,0.22029 c 0.02,0.12116 0.0366,0.31743 0.0371,0.43615 4.4e-4,0.11872 0.028,0.23271 0.0613,0.25333 0.0336,0.0208 -0.0538,0.12493 -0.19645,0.23378 -0.23612,0.1803 -0.83658,0.86273 -1.13102,1.28544 -0.17976,0.2581 -0.22449,0.53145 -0.11444,0.6994 0.0897,0.13697 0.0962,0.13784 0.42916,0.0573 0.18592,-0.0449 0.39405,-0.0977 0.46247,-0.11714 0.10458,-0.0297 0.12129,-0.0136 0.10458,0.10108 -0.0109,0.0751 -0.0498,0.40357 -0.0864,0.72993 l -0.0665,0.59337 -0.35968,0.0987 c -1.16779,0.32077 -1.54818,0.464 -1.9972,0.75203 -0.78523,0.50369 -1.32398,0.91371 -1.79163,1.36354 -0.3904,0.37552 -0.57693,0.50451 -0.57693,0.39896 z m 12.5114,-0.32284 c -0.25473,-0.0681 -0.40545,-0.17272 -0.40545,-0.28138 0,-0.0573 0.10245,-0.27355 0.22775,-0.48042 l 0.22776,-0.37612 0.27028,0.02 0.27027,0.02 0.11983,-0.27091 c 0.067,-0.15151 0.14419,-0.50832 0.17505,-0.80949 0.16517,-1.61122 0.24622,-1.92951 0.575,-2.2583 0.55628,-0.55628 1.1105,-0.81506 1.85437,-0.86584 0.44655,-0.0305 1.0756,0.0572 1.07506,0.14975 -1.4e-4,0.0208 -0.12513,0.24767 -0.27781,0.50392 -0.30138,0.50586 -0.35761,0.54171 -0.86553,0.55173 -0.38493,0.007 -0.87308,0.24552 -0.99755,0.48623 -0.0533,0.10309 -0.13621,0.59058 -0.20031,1.17825 -0.12636,1.15844 -0.25738,1.5769 -0.60323,1.92673 -0.34793,0.35192 -1.07275,0.60561 -1.44549,0.50592 z m -1.79397,-2.02219 c -0.21736,-0.27725 -0.45464,-0.58747 -0.52729,-0.68936 l -0.13208,-0.18523 0.16953,-0.49491 c 0.32665,-0.95359 0.22628,-0.95074 0.83423,-0.0237 0.72576,1.10677 0.69577,1.00163 0.40836,1.43205 -0.13281,0.19888 -0.24147,0.38492 -0.24147,0.41342 0,0.14065 -0.15154,0.007 -0.51128,-0.4523 z m 3.99142,-0.0215 c -0.0139,-0.0225 -0.009,-0.26331 0.01,-0.53516 l 0.035,-0.49426 0.26996,-0.0647 c 0.30499,-0.0731 0.96584,-0.42772 1.1568,-0.6208 0.0696,-0.0704 0.30648,-0.42332 0.52635,-0.78425 1.06837,-1.75389 1.72495,-2.23948 3.02602,-2.23795 0.61011,6.1e-4 0.98487,0.074 1.4383,0.28161 0.2734,0.12513 0.57481,0.33871 0.52545,0.37237 -0.0156,0.0106 -0.29385,0.14747 -0.61837,0.30405 l -0.59002,0.28472 -0.37973,-0.0662 c -0.53081,-0.0925 -0.699,-0.0837 -1.07178,0.0557 -0.45854,0.17156 -0.92644,0.62592 -1.2868,1.24951 -0.39117,0.67694 -0.6557,1.07951 -0.84095,1.27977 -0.23194,0.25073 -0.95602,0.71637 -1.28269,0.82489 -0.35936,0.11935 -0.88317,0.20534 -0.91704,0.15054 z m -3.48831,-1.39 -0.32982,-0.51138 0.13349,-0.26318 c 0.0735,-0.14474 0.28077,-0.46834 0.46078,-0.7191 0.18003,-0.25078 0.35834,-0.51395 0.39626,-0.58483 0.11608,-0.21698 0.69617,-0.79304 1.1002,-1.09257 0.2106,-0.15613 0.63079,-0.4045 0.93374,-0.55196 0.54891,-0.26717 0.55298,-0.26809 1.17314,-0.26809 0.70261,0 1.12858,0.099 1.39674,0.32468 0.19811,0.16669 0.2788,0.43117 0.18503,0.60639 -0.0947,0.17696 -0.7415,0.59585 -1.1485,0.74381 -0.40877,0.14861 -1.28944,0.2624 -1.65319,0.21362 l -0.24717,-0.0331 0.22194,-0.20519 c 0.5306,-0.49049 0.76248,-0.63889 1.06004,-0.67836 0.37748,-0.05 0.67538,-0.15448 0.61379,-0.21512 -0.0657,-0.0647 -0.81082,0.0974 -1.10771,0.24094 -0.29056,0.14046 -1.33499,1.20002 -1.78485,1.81068 -0.17817,0.24187 -0.47956,0.72133 -0.66977,1.06547 -0.19021,0.34414 -0.35899,0.62639 -0.37508,0.62722 -0.0161,6.1e-4 -0.17766,-0.22863 -0.35906,-0.50988 z m -5.00194,0.3 c 0.0176,-0.0602 0.05,-0.29 0.0722,-0.51052 0.0383,-0.38072 0.0564,-0.41896 0.35989,-0.75909 0.17578,-0.19701 0.38832,-0.47714 0.47232,-0.62253 0.30769,-0.53258 0.8554,-1.30132 0.99003,-1.38953 0.1097,-0.0719 0.23685,-0.0831 0.61423,-0.054 0.26176,0.0201 0.49886,0.0597 0.52693,0.0878 0.0499,0.0498 -0.0877,0.26358 -0.78515,1.22012 -0.5698,0.78136 -1.51364,1.70916 -2.03313,1.99853 -0.22761,0.1268 -0.24647,0.12933 -0.21732,0.0292 z m 1.85961,-1.31938 c 0.17644,-0.20308 0.40929,-0.49425 0.51743,-0.64703 0.10814,-0.1528 0.24008,-0.2778 0.29322,-0.2778 0.14954,0 1.54161,-0.49753 1.80281,-0.64433 l 0.23291,-0.1309 0.42985,0.13077 0.42987,0.13079 -0.26206,0.2329 c -0.14412,0.12809 -0.43361,0.33303 -0.6433,0.45541 -0.5443,0.31768 -1.99451,0.84763 -2.95031,1.07814 -0.16453,0.0397 -0.15867,0.0268 0.14958,-0.32795 z m -2.60645,0.0333 c -0.384,-0.11315 -0.7656,-0.24109 -0.84801,-0.28434 l -0.14981,-0.0786 0.44084,-0.44247 0.44084,-0.44249 0.40717,0.16526 c 0.22393,0.091 0.59137,0.20034 0.81653,0.24323 0.22516,0.0429 0.41896,0.085 0.43068,0.0936 0.0811,0.0592 -0.64972,0.96 -0.7744,0.95451 -0.0362,-0.002 -0.37984,-0.0955 -0.76384,-0.20858 z m 0.34729,-1.1994 c -0.16083,-0.0648 -0.31062,-0.13576 -0.33287,-0.15764 -0.0694,-0.0682 -0.23081,-2.07272 -0.17166,-2.13188 0.0299,-0.0298 0.28711,-0.14195 0.57178,-0.24921 l 0.51757,-0.19503 0.0513,0.92521 c 0.0283,0.50885 0.0325,1.15191 0.01,1.429 -0.0414,0.49707 -0.044,0.50375 -0.19754,0.50061 -0.0855,-0.002 -0.28716,-0.0562 -0.44799,-0.12106 z m -2.75213,-0.1455 c -0.56257,-0.34205 -0.8498,-0.45223 -1.26965,-0.48698 -0.4026,-0.0333 -0.49581,-0.0971 -0.30128,-0.20612 0.35912,-0.20123 0.83153,-0.59637 1.36968,-1.14562 0.55147,-0.56289 1.17571,-1.049 1.66675,-1.29798 0.29307,-0.14859 1.37809,-0.55484 1.81297,-0.6788 1.00349,-0.28603 2.01385,-0.41793 3.20164,-0.41793 h 0.86539 l -0.50821,0.58483 -0.5082,0.58483 h -0.33254 c -2.06281,0 -4.13357,0.63791 -4.98428,1.53546 -0.18497,0.19512 -0.3363,0.37463 -0.3363,0.39889 0,0.0242 0.12983,0.14747 0.28848,0.27379 l 0.28845,0.22967 -0.42142,0.41861 c -0.23178,0.23023 -0.4355,0.41862 -0.45273,0.41862 -0.0173,0 -0.18765,-0.0951 -0.37875,-0.21127 z m 6.75944,-0.42154 c 0.2878,-0.9247 0.81478,-1.64185 1.42276,-1.93616 0.36444,-0.17642 0.93341,-0.15465 1.0925,0.0418 0.25883,0.31964 0.15979,1.10414 -0.13106,1.03799 -0.36089,-0.0821 -0.66435,-0.14565 -0.70169,-0.14695 -0.0777,-0.002 -0.34763,0.31928 -0.52106,0.62127 -0.1593,0.27737 -0.21143,0.31761 -0.66331,0.51172 -0.26973,0.11588 -0.51599,0.21068 -0.54725,0.21068 -0.0314,0 -0.009,-0.15316 0.0491,-0.34038 z m 1.86014,0.10891 c -0.15027,-0.0576 -0.36739,-0.12236 -0.48248,-0.14394 -0.11508,-0.0216 -0.20924,-0.0547 -0.20924,-0.0736 0,-0.0584 0.24665,-0.45055 0.37055,-0.58909 0.0662,-0.074 0.18578,-0.13158 0.27359,-0.13158 0.1356,0 0.94172,0.18311 1.15711,0.26283 0.0784,0.0291 -0.64424,0.75177 -0.77031,0.77033 -0.0364,0.006 -0.18894,-0.0374 -0.33922,-0.0949 z m -5.07793,-0.72466 v -0.54677 l 0.59944,-0.15547 c 0.63003,-0.16342 1.44918,-0.20535 1.94455,-0.0995 0.30992,0.0662 1.04763,0.2526 1.07175,0.27081 0.0106,0.007 -0.0911,0.21502 -0.22565,0.46025 -0.18145,0.33061 -0.26953,0.43837 -0.34071,0.41684 -0.7797,-0.23573 -2.0693,-0.1829 -2.77957,0.11388 -0.11416,0.0476 -0.22158,0.0867 -0.23871,0.0867 -0.017,0 -0.0311,-0.24603 -0.0311,-0.54675 z m 3.24251,-0.79597 c -0.0661,-0.0267 -0.32272,-0.0814 -0.57021,-0.12127 -0.24748,-0.0399 -0.44996,-0.084 -0.44996,-0.0981 0,-0.067 1.07342,-1.38361 1.45668,-1.78672 0.48952,-0.51486 1.54447,-1.42816 2.10821,-1.82513 0.33055,-0.23277 0.41356,-0.26498 0.68291,-0.26498 0.27426,0 0.91099,0.11651 1.16101,0.21245 0.0694,0.0266 0.006,0.092 -0.24551,0.24814 -1.33984,0.83602 -2.40199,1.80823 -3.50613,3.20921 -0.38517,0.48872 -0.42205,0.51342 -0.637,0.42637 z m 4.27253,-0.53932 c -1.39836,-0.0886 -2.69906,-0.26245 -2.9387,-0.39285 -0.0492,-0.0267 0.0749,-0.19892 0.38014,-0.52727 l 0.45318,-0.48754 0.87724,0.0951 c 1.26255,0.13677 2.54701,0.17934 3.08657,0.10224 0.73642,-0.1052 1.03646,-0.31921 1.03646,-0.73938 0,-0.18604 0.24721,-0.23183 0.98856,-0.18314 0.65255,0.0429 0.77352,0.10737 1.01266,0.53996 0.16564,0.29962 0.16445,0.41665 -0.007,0.64916 -0.14716,0.19997 -0.11293,0.18874 -2.63788,0.86671 -0.37145,0.0997 -1.35939,0.13354 -2.25159,0.077 z m -9.22768,-1.37837 c -0.0483,-0.12061 -0.14326,-0.26944 -0.21104,-0.33072 -0.0677,-0.0613 -0.12322,-0.14194 -0.12322,-0.17925 0,-0.0825 1.31747,-0.95452 1.72524,-1.14203 0.16083,-0.074 0.54242,-0.25173 0.848,-0.39509 0.7294,-0.34217 1.7779,-0.74683 2.39779,-0.92543 0.58694,-0.16909 2.32774,-0.43352 2.85625,-0.43386 0.38234,-2.3e-4 1.53877,0.17721 2.12686,0.32637 0.69422,0.17608 2.15179,0.79117 2.15179,0.90802 0,0.0262 -0.11185,0.077 -0.24854,0.11303 -0.1367,0.0361 -0.4382,0.13039 -0.66997,0.20959 l -0.42142,0.14403 -0.27614,-0.12579 c -0.39836,-0.18147 -1.15791,-0.40051 -1.61616,-0.46606 -0.21769,-0.0312 -0.74402,-0.0577 -1.16964,-0.059 -0.86749,-0.002 -1.94966,0.17835 -2.66217,0.44539 -0.21588,0.0808 -0.57672,0.20977 -0.80189,0.2864 -0.22516,0.0766 -0.93572,0.3865 -1.57904,0.68862 -0.95887,0.45031 -1.16761,0.56964 -1.15832,0.66215 0.009,0.0905 -0.0852,0.15045 -0.47642,0.3029 -0.26825,0.10457 -0.51393,0.19008 -0.54595,0.19008 -0.032,0 -0.0977,-0.0986 -0.14601,-0.21931 z"
         id="path31" />
    </g>
  </g>
</svg>
