<?xml version="1.0" encoding="UTF-8" standalone="no"?>
<!-- Created with Inkscape (http://www.inkscape.org/) -->

<svg
   width="41.008999mm"
   height="41.008999mm"
   viewBox="0 0 41.008999 41.008999"
   version="1.1"
   id="svg1"
   inkscape:version="1.4.2 (f4327f4, 2025-05-13)"
   sodipodi:docname="296.svg"
   xmlns:inkscape="http://www.inkscape.org/namespaces/inkscape"
   xmlns:sodipodi="http://sodipodi.sourceforge.net/DTD/sodipodi-0.dtd"
   xmlns="http://www.w3.org/2000/svg"
   xmlns:svg="http://www.w3.org/2000/svg">
  <sodipodi:namedview
     id="namedview1"
     pagecolor="#ffffff"
     bordercolor="#000000"
     borderopacity="0.25"
     inkscape:showpageshadow="2"
     inkscape:pageopacity="0.0"
     inkscape:pagecheckerboard="0"
     inkscape:deskcolor="#d1d1d1"
     inkscape:document-units="mm"
     inkscape:zoom="1.4513545"
     inkscape:cx="86.470947"
     inkscape:cy="-62.700049"
     inkscape:window-width="1050"
     inkscape:window-height="1081"
     inkscape:window-x="857"
     inkscape:window-y="0"
     inkscape:window-maximized="0"
     inkscape:current-layer="layer1" />
  <defs
     id="defs1" />
  <g
     inkscape:label="Layer 1"
     inkscape:groupmode="layer"
     id="layer1"
     transform="translate(333.37504,1257.5646)">
    <g
       id="g62"
       transform="translate(-1153.7735,-1082.1378)">
      <ellipse
         style="fill:none;stroke:#ff00ff;stroke-width:0.1;stroke-dasharray:none;stroke-opacity:1"
         id="path1138-9-4-0-0-1-2-8-1-8-1-17-4-7-6"
         cx="840.90295"
         cy="-154.92233"
         rx="18.492125"
         ry="18.492126" />
      <circle
         style="fill:none;stroke:#ff0000;stroke-width:0.1;stroke-dasharray:none"
         id="circle3024"
         cx="840.90295"
         cy="-154.92233"
         r="19.954653" />
      <circle
         style="fill:none;stroke:#0000ff;stroke-width:0.1;stroke-linecap:round;stroke-dasharray:none;stroke-opacity:1;paint-order:markers stroke fill"
         id="circle3026"
         cx="840.90295"
         cy="-169.9333"
         r="2" />
      <path
         style="fill:#000000;stroke-width:0.0350428"
         d="m 840.79801,-137.78153 c -0.52316,-0.42768 -1.90856,-1.16801 -2.97489,-1.58971 -0.76455,-0.30235 -1.18196,-0.45399 -1.13888,-0.41375 0.0193,0.018 0.30311,0.21068 0.63076,0.42815 1.03388,0.68621 1.32661,0.94761 1.20143,1.07279 -0.0442,0.0442 -0.20485,-0.0274 -1.25682,-0.56015 -0.66338,-0.33593 -1.40682,-0.70236 -1.65206,-0.81428 -0.24525,-0.11193 -0.44069,-0.20872 -0.4343,-0.2151 0.006,-0.006 0.27344,0.0809 0.59345,0.1939 0.32003,0.11302 0.57463,0.19378 0.56578,0.17946 -0.03,-0.0486 -0.77354,-0.48106 -1.158,-0.67357 -0.49186,-0.24627 -1.0998,-0.48546 -1.52147,-0.59855 -0.2887,-0.0775 -1.01631,-0.23358 -1.08135,-0.23206 -0.0124,2.7e-4 0.17462,0.10451 0.41554,0.23161 1.42634,0.7525 2.36523,1.37779 3.11881,2.07713 l 0.26282,0.2439 -0.96367,-0.48223 c -1.19978,-0.60038 -1.69022,-0.80939 -1.89918,-0.80939 -0.11712,0 -0.38642,-0.0946 -1.09698,-0.38547 -0.51798,-0.21201 -0.94998,-0.38547 -0.96001,-0.38547 -0.0101,0 0.11885,0.0786 0.2864,0.17468 0.16757,0.0961 0.44288,0.26445 0.61179,0.37414 0.1689,0.10969 0.44904,0.28488 0.62251,0.38929 0.17345,0.10443 0.27595,0.17884 0.22776,0.16533 -0.20352,-0.057 -1.13165,-0.42549 -1.46792,-0.58275 -0.20022,-0.0937 -0.37257,-0.17026 -0.38296,-0.17026 -0.0104,0 0.0983,0.0806 0.24143,0.17913 0.28487,0.19604 0.66555,0.49611 0.64962,0.51204 -0.006,0.006 -0.20577,-0.0829 -0.44497,-0.19641 -0.70875,-0.33644 -1.63124,-0.72567 -2.29523,-0.96845 -0.34195,-0.12504 -0.62637,-0.22273 -0.63201,-0.21708 -0.006,0.006 0.11127,0.0909 0.25982,0.18952 0.14853,0.0986 0.33316,0.2364 0.41024,0.30623 0.13198,0.11954 0.11045,0.11229 -0.36794,-0.12402 -0.68945,-0.34056 -1.42736,-0.66523 -1.7872,-0.78634 -0.33853,-0.11394 -0.30971,-0.13613 0.14828,-0.11424 l 0.3092,0.0148 -0.18493,-0.18839 c -0.23713,-0.24156 -0.56125,-0.45705 -1.1311,-0.752 -0.25056,-0.12969 -0.43002,-0.23624 -0.39881,-0.23676 0.18298,-0.004 0.86976,0.14841 1.21242,0.26738 0.0995,0.0345 -0.47514,-0.53598 -0.72599,-0.72079 -0.24111,-0.17764 -0.75472,-0.49376 -1.19148,-0.73332 -0.14455,-0.0793 -0.24992,-0.14455 -0.23417,-0.145 0.0578,-0.002 0.91959,0.21964 0.98291,0.25243 0.13941,0.0722 0.0317,-0.0608 -0.14598,-0.18049 -0.0992,-0.0667 -0.17451,-0.12722 -0.16738,-0.13436 0.028,-0.028 0.75189,0.17637 1.07768,0.30426 0.18933,0.0743 0.34424,0.12949 0.34424,0.12259 0,-0.006 -0.15051,-0.10113 -0.33447,-0.20939 -0.39779,-0.23412 -0.82724,-0.44039 -1.54033,-0.73987 -0.28912,-0.12142 -0.51188,-0.22104 -0.49502,-0.22138 0.079,-0.002 1.48265,0.44188 1.80912,0.57158 0.20238,0.0805 0.38372,0.15151 0.40299,0.15802 0.077,0.0261 -0.22576,-0.15196 -0.6785,-0.39892 -0.26285,-0.14337 -0.46808,-0.26079 -0.45607,-0.26094 0.1192,-0.002 1.30166,0.44002 1.78286,0.66569 0.97818,0.45874 1.74234,0.80155 2.12006,0.95106 0.19276,0.0763 0.51605,0.22515 0.71843,0.33075 0.45337,0.23661 0.34157,0.14235 -0.25926,-0.21855 -0.24859,-0.14931 -0.43527,-0.27705 -0.41483,-0.28387 0.0751,-0.0251 0.59309,0.17655 1.19496,0.46508 0.39177,0.18782 0.57953,0.26358 0.51289,0.20698 -0.18852,-0.16016 -0.7642,-0.55909 -1.06881,-0.74067 -0.51375,-0.30624 -1.37771,-0.71157 -1.42211,-0.66718 -0.01,0.01 0.0933,0.0911 0.22905,0.18055 0.13579,0.0895 0.2469,0.1685 0.2469,0.17563 0,0.006 -0.11433,-0.0222 -0.25406,-0.0652 -0.13973,-0.043 -0.35574,-0.0887 -0.48002,-0.10152 -0.15778,-0.0164 -0.32696,-0.0702 -0.56069,-0.17832 -0.18409,-0.0853 -0.58151,-0.2494 -0.88314,-0.36482 -0.64616,-0.24727 -1.22908,-0.49996 -1.20619,-0.52284 0.009,-0.009 0.37337,0.10496 0.80989,0.25308 0.43651,0.14812 0.79973,0.26323 0.80715,0.25581 0.007,-0.007 -0.17936,-0.0978 -0.41508,-0.20083 -0.2357,-0.10304 -0.44206,-0.19913 -0.45857,-0.21354 -0.0165,-0.0144 0.15454,0.027 0.38012,0.092 0.44238,0.12749 1.03408,0.2634 1.03408,0.23751 0,-0.008 -0.14585,-0.0856 -0.32414,-0.17085 -0.17827,-0.0852 -0.31123,-0.15524 -0.29544,-0.15563 0.0606,-0.002 0.71921,0.17608 0.96718,0.26077 0.14299,0.0489 0.26666,0.0821 0.27485,0.0739 0.0236,-0.0236 -0.5004,-0.26144 -0.90278,-0.40974 -0.36916,-0.13605 -0.33149,-0.14825 0.13655,-0.0442 0.1233,0.0274 0.22954,0.0444 0.23612,0.0379 0.006,-0.006 -0.0754,-0.0481 -0.18213,-0.0924 -0.28482,-0.11806 -0.20489,-0.12953 0.12862,-0.0184 0.60878,0.20274 1.53681,0.69508 1.5393,0.81663 0.002,0.038 0.10725,0.10945 0.30663,0.20585 0.27646,0.13364 1.57385,0.8451 2.37296,1.30125 l 0.3154,0.18004 -0.19399,-0.18396 c -0.22125,-0.20979 -0.73671,-0.56732 -1.3435,-0.93186 -0.30782,-0.18493 -0.43094,-0.27947 -0.47308,-0.36332 -0.0313,-0.0623 -0.13476,-0.1718 -0.22985,-0.24325 -0.2407,-0.18088 -1.09914,-0.6147 -2.17499,-1.09915 -0.50112,-0.22566 -1.1713,-0.54109 -1.48932,-0.70096 -0.57804,-0.29058 -1.02576,-0.53515 -0.89361,-0.48814 0.44332,0.15769 0.97071,0.32905 1.06882,0.34726 l 0.12264,0.0228 -0.0937,-0.0727 c -0.0515,-0.0399 -0.13036,-0.10431 -0.17522,-0.14296 l -0.0816,-0.0704 0.14018,0.0574 c 0.33411,0.13703 0.67616,0.25369 0.80762,0.27547 0.11697,0.0194 0.1532,0.0109 0.20692,-0.0485 0.0886,-0.0979 0.1398,-0.0929 0.69822,0.0681 0.5684,0.16401 0.65263,0.17228 0.65263,0.0641 0,-0.13001 -0.27759,-0.34729 -0.87651,-0.68609 -0.31515,-0.17828 -0.56396,-0.32414 -0.55291,-0.32414 0.0358,0 0.92584,0.34219 1.17849,0.45309 0.30287,0.13293 0.40821,0.14093 0.37815,0.0288 -0.0116,-0.0433 -0.0214,-0.1882 -0.0216,-0.32183 v -0.243 l -0.16729,-0.16123 c -0.19812,-0.19095 -0.80637,-0.58192 -1.55228,-0.99778 -0.29587,-0.16494 -0.52902,-0.2999 -0.51809,-0.2999 0.0109,0 0.25472,0.0952 0.54178,0.21161 0.65965,0.26745 1.55182,0.70001 1.77604,0.8611 0.0946,0.068 0.17602,0.11854 0.18094,0.1124 0.006,-0.006 0.0273,-0.10579 0.0497,-0.22143 0.0224,-0.11564 0.0505,-0.24967 0.0626,-0.29786 0.019,-0.0762 0.006,-0.0694 -0.10119,0.052 l -0.12315,0.13969 -0.0247,-0.19225 c -0.17132,-1.33284 -0.35265,-2.41748 -0.40417,-2.41748 -0.0147,0 -0.0954,0.14981 -0.17935,0.33291 -0.0839,0.1831 -0.16281,0.3329 -0.17517,0.3329 -0.0318,0 -0.0547,-0.16496 -0.13608,-0.98118 -0.0868,-0.87041 -0.0829,-0.85039 -0.1404,-0.71839 l -0.0458,0.10512 -0.0322,-0.15769 c -0.036,-0.1762 -0.0124,-1.5568 0.0285,-1.66141 0.0226,-0.058 0.0147,-0.0636 -0.0586,-0.042 -0.0467,0.0137 -0.14294,0.034 -0.21406,0.045 -0.11821,0.0183 -0.13552,0.01 -0.20208,-0.0982 -0.17301,-0.28101 -0.33121,-1.05451 -0.311,-1.52069 l 0.0117,-0.2676 -0.10064,0.0148 -0.10067,0.0148 0.0236,-0.2311 c 0.0207,-0.20403 0.11695,-0.68663 0.18007,-0.90375 0.0207,-0.071 -0.0104,-0.0632 -0.40225,0.10169 -0.23355,0.0983 -0.43356,0.16967 -0.4445,0.15874 -0.0355,-0.0355 -0.0883,-0.77492 -0.0663,-0.92816 l 0.0214,-0.14893 h -0.20565 c -0.24683,0 -1.23749,0.11964 -1.57303,0.18998 -0.13188,0.0277 -0.24307,0.047 -0.24709,0.043 -0.016,-0.016 0.39898,-0.72899 0.63537,-1.09151 0.13823,-0.21201 0.39053,-0.55839 0.56065,-0.76975 l 0.3093,-0.38428 -0.14756,-0.13096 c -0.20267,-0.17985 -0.47827,-0.35881 -0.87094,-0.56553 l -0.33184,-0.17471 0.0834,-0.0648 c 0.3687,-0.28646 1.07658,-0.70988 1.47984,-0.88518 l 0.27222,-0.11833 -0.29915,-0.22452 c -0.54574,-0.40958 -1.11786,-0.70863 -1.61476,-0.84403 l -0.17521,-0.0477 0.33291,-0.16207 c 0.18309,-0.0891 0.52065,-0.22629 0.75011,-0.3048 0.43531,-0.14892 1.48893,-0.42201 1.62823,-0.42201 0.0444,0 0.0753,-0.0154 0.0689,-0.0343 -0.0407,-0.11938 -0.89947,-1.24266 -1.38388,-1.80998 l -0.15349,-0.17977 0.097,-0.021 c 0.0534,-0.0116 0.32566,-0.0314 0.60514,-0.0441 0.8556,-0.0387 2.02939,0.0947 2.98916,0.33972 0.15286,0.039 0.28563,0.0632 0.29504,0.0538 0.042,-0.0419 -0.10617,-1.46263 -0.23791,-2.28178 -0.0372,-0.23128 -0.0677,-0.43405 -0.0677,-0.45059 -2e-5,-0.11993 1.45622,0.48929 2.42008,1.01242 0.27158,0.14742 0.4966,0.26266 0.49999,0.25609 0.004,-0.006 0.0829,-0.16962 0.17663,-0.36236 0.0937,-0.19274 0.29929,-0.55615 0.45675,-0.80757 0.37886,-0.60489 1.04345,-1.5312 1.07416,-1.4972 0.0135,0.0149 0.068,0.16101 0.12125,0.32485 0.11803,0.36304 0.34814,0.89487 0.52069,1.20343 l 0.12805,0.22897 0.24152,-0.23583 c 0.48849,-0.47701 1.54253,-1.23693 2.38294,-1.71802 0.23941,-0.13705 0.43896,-0.2453 0.44346,-0.24057 0.005,0.005 -0.014,0.13474 -0.0413,0.28894 -0.0729,0.41263 -0.2144,1.49531 -0.24199,1.85114 l -0.024,0.30926 0.18735,-0.1095 c 0.4991,-0.29168 1.23891,-0.63182 1.87707,-0.86301 0.33695,-0.12207 0.88432,-0.27256 0.9074,-0.24946 0.006,0.007 -0.0668,0.28663 -0.16457,0.62062 -0.19368,0.66103 -0.33061,1.27367 -0.3668,1.64103 l -0.023,0.23412 0.65534,0.007 c 0.36046,0.005 0.78394,0.0242 0.94108,0.0445 0.3668,0.0474 0.79394,0.1386 0.79337,0.16935 0,0.0131 -0.0857,0.0986 -0.18976,0.18991 -0.41684,0.36556 -0.71456,0.98141 -0.77603,1.60525 l -0.023,0.2342 0.44636,0.43402 c 0.73278,0.71253 1.16666,1.26907 1.76454,2.26327 0.17615,0.29296 0.3203,0.54288 0.3203,0.55538 0,0.0125 -0.0543,-0.009 -0.12065,-0.0485 -0.67478,-0.39813 -1.46594,-0.77879 -1.51553,-0.72918 -0.0102,0.0102 0.0369,0.19686 0.10462,0.41477 0.16428,0.52828 0.25953,1.12876 0.32235,2.03203 0.0286,0.4109 0.0618,0.88113 0.0737,1.04495 l 0.0218,0.29787 -0.38655,-0.38209 -0.38657,-0.38209 -0.0399,0.15432 c -0.022,0.0849 -0.049,0.18584 -0.06,0.22439 -0.011,0.0386 -0.12959,0.3145 -0.2634,0.61325 -0.26232,0.58567 -0.34308,0.83944 -0.34308,1.07791 0,0.1944 0.058,0.30329 0.26547,0.49901 0.45535,0.42941 0.43538,0.4042 0.43538,0.54969 0,0.17665 -0.12531,0.42615 -0.35787,0.71246 l -0.18454,0.22718 -0.022,0.33291 c -0.0192,0.29132 -0.0714,0.49267 -0.41726,1.61197 l -0.39526,1.27906 -0.0219,0.54317 c -0.0253,0.62766 -0.0566,0.72186 -0.31659,0.95551 -0.0908,0.0816 -0.32698,0.23299 -0.5249,0.33646 -0.39199,0.20493 -0.43649,0.25891 -0.48098,0.58361 -0.0452,0.32973 0.3018,0.8022 0.75848,1.03274 0.22742,0.1148 0.76723,0.2845 1.19194,0.37469 0.43275,0.0919 1.41132,0.0904 1.68206,-0.003 0.29898,-0.1027 0.57351,-0.25083 0.78678,-0.42454 l 0.19497,-0.15881 0.22298,0.0356 c 0.57162,0.0913 1.1304,-0.22142 1.40747,-0.78775 0.18303,-0.37408 0.0726,-0.80904 -0.29829,-1.17438 -0.19832,-0.19539 -0.53499,-0.39337 -0.86484,-0.50856 l -0.18043,-0.0631 0.049,-0.13894 c 0.12392,-0.3512 0.0124,-0.80084 -0.26822,-1.08144 l -0.16701,-0.16703 0.11071,0.0189 c 1.08475,0.18494 2.32043,0.76806 2.55159,1.20413 l 0.0647,0.12216 -0.17038,0.0752 c -0.20985,0.0926 -0.26611,0.21094 -0.19655,0.41327 0.0778,0.22629 0.25774,0.37587 0.50887,0.42298 l 0.12204,0.0229 0.005,0.20865 c 0.0102,0.44276 0.29568,0.74524 0.70722,0.74927 0.12264,8.5e-4 0.23119,0.024 0.2855,0.0599 0.153,0.10132 0.36286,0.13916 0.54515,0.0983 0.2059,-0.0461 0.26726,-0.0791 0.44186,-0.23676 0.11695,-0.10566 0.30957,-0.40618 0.30957,-0.48299 0,-0.0119 -0.075,0.0444 -0.16646,0.12501 -0.21438,0.18889 -0.3236,0.24384 -0.53428,0.2688 -0.13668,0.0162 -0.19694,0.006 -0.298,-0.0545 -0.0966,-0.0571 -0.18453,-0.0748 -0.37107,-0.0748 -0.27111,0 -0.46218,-0.0625 -0.51968,-0.16995 -0.10174,-0.19007 -0.002,-0.52057 0.19528,-0.64813 0.0792,-0.0512 0.10939,-0.0925 0.0936,-0.12808 -0.0556,-0.12535 -0.0509,-0.34792 0.01,-0.47844 0.0917,-0.19674 0.44159,-0.51976 0.70165,-0.64779 0.42484,-0.20915 0.96139,-0.16523 1.39715,0.11437 0.16259,0.10432 0.19921,0.11294 0.50813,0.11958 0.26371,0.006 0.4021,0.0298 0.66581,0.11565 1.53114,0.49898 1.78234,0.55731 2.21763,0.51495 0.48636,-0.0473 0.78245,-0.2031 0.86573,-0.45544 0.0421,-0.12748 -0.0131,-0.31877 -0.129,-0.44677 -0.0688,-0.076 -0.025,-0.0796 0.13843,-0.0113 0.16024,0.0669 0.33099,0.21238 0.39523,0.33664 0.0784,0.15157 0.0661,0.48094 -0.0233,0.62771 -0.0959,0.15734 -0.14248,0.19377 -0.40745,0.31869 -0.49223,0.23206 -0.85815,0.25699 -1.51286,0.10303 -0.82741,-0.19457 -1.18866,-0.20599 -1.56632,-0.0495 -0.23874,0.0989 -0.24277,0.11709 -0.0542,0.24409 0.38173,0.25707 0.38416,0.70472 0.006,1.11492 -0.28862,0.3131 -0.76404,0.52402 -1.43356,0.63597 -0.49813,0.0833 -1.42449,0.0583 -1.75133,-0.0472 l -0.22379,-0.0723 -0.12829,0.10309 c -0.21479,0.1726 -0.71736,0.3121 -1.12685,0.31278 -0.13738,2.7e-4 -0.16664,0.013 -0.20071,0.0878 -0.0657,0.14433 -0.31127,0.38799 -0.54249,0.53837 -0.70699,0.45986 -2.40855,0.80671 -2.94913,0.60118 -0.045,-0.0172 -0.0926,-0.0203 -0.1056,-0.006 -0.0129,0.0132 -0.0738,0.042 -0.13501,0.0639 -0.0996,0.0356 -0.10394,0.0426 -0.0412,0.0659 0.67218,0.2506 2.01093,0.90874 2.73335,1.34372 0.98048,0.59039 2.0889,1.45136 3.14722,2.44466 0.15784,0.14813 0.26334,0.25607 0.23441,0.23987 -0.0289,-0.0162 -0.18265,-0.11291 -0.34167,-0.21493 -0.159,-0.102 -0.2891,-0.18027 -0.2891,-0.1739 0,0.006 0.0985,0.0887 0.21901,0.183 0.66175,0.51796 1.53001,1.26688 1.88357,1.62465 0.45774,0.4632 1.31393,1.37979 1.20851,1.29379 -0.39837,-0.32505 -0.68772,-0.54615 -0.91681,-0.70062 l -0.27419,-0.18486 0.15338,0.18344 c 0.0844,0.10089 0.14727,0.18953 0.13983,0.19697 -0.007,0.007 -0.13953,-0.0816 -0.29354,-0.19781 -0.43316,-0.32693 -1.46749,-1.00743 -1.95555,-1.28661 -0.47359,-0.27089 -2.01694,-1.03618 -2.04104,-1.01208 -0.007,0.007 0.15471,0.14729 0.36166,0.30945 0.38521,0.30183 1.19978,1.00353 1.19978,1.03351 0,0.009 -0.16162,-0.0918 -0.35918,-0.22444 -0.19756,-0.13262 -0.50613,-0.32365 -0.68573,-0.42452 -0.31565,-0.17728 -1.38766,-0.70187 -1.43428,-0.70187 -0.0125,0 0.1578,0.1222 0.37867,0.27157 0.47765,0.32303 0.75858,0.5365 1.13685,0.86387 0.35586,0.30798 0.41427,0.3669 0.28035,0.28273 -0.0578,-0.0363 -0.3338,-0.21024 -0.61325,-0.38646 -0.81328,-0.51278 -1.47871,-0.86677 -2.15515,-1.14647 -0.82994,-0.34317 -1.06754,-0.46586 -1.61196,-0.83231 -0.25057,-0.16865 -0.65269,-0.41983 -0.8936,-0.55818 -0.49492,-0.2842 -1.401,-0.85439 -1.38452,-0.87127 0.0205,-0.021 0.7367,0.28443 0.99027,0.42238 0.13974,0.0761 0.25406,0.13064 0.25406,0.12135 0,-0.0219 -0.71074,-0.4818 -0.89358,-0.57826 -0.0771,-0.0407 -0.24268,-0.11948 -0.36796,-0.17511 -0.12526,-0.0557 -0.29249,-0.15566 -0.3716,-0.22227 -0.16912,-0.14241 -0.38007,-0.3764 -0.35864,-0.39781 0.0252,-0.0251 1.77916,0.66279 2.09152,0.82022 0.34256,0.17268 0.34962,0.13642 0.0127,-0.0656 -0.12933,-0.0776 -0.22153,-0.14119 -0.20488,-0.14128 0.0608,-4.1e-4 1.0068,0.42437 1.79196,0.80465 0.4433,0.21471 0.78979,0.37411 0.76997,0.35423 -0.0198,-0.0199 -0.51654,-0.27823 -1.10385,-0.57411 -1.0378,-0.52285 -2.32018,-1.07558 -2.49543,-1.07558 -0.11826,0 -0.88955,-0.37058 -0.91629,-0.44025 -0.0118,-0.0308 -0.0215,-0.39445 -0.0215,-0.80801 0,-0.93951 -0.0444,-1.37988 -0.1587,-1.57648 -0.0808,-0.13906 -0.26182,-0.29584 -0.26182,-0.22686 0,0.0185 0.0153,0.0433 0.0341,0.0548 0.0188,0.0116 0.0666,0.12621 0.10625,0.25469 0.0581,0.18816 0.0795,0.40097 0.10982,1.09362 0.0207,0.47299 0.0292,0.98615 0.0191,1.14034 l -0.0186,0.28034 0.14629,0.18897 c 0.0804,0.10393 0.19362,0.27702 0.25144,0.38463 0.12463,0.23196 0.21318,0.30205 1.06852,0.84564 1.94077,1.2334 2.4536,1.61128 3.19049,2.35092 0.27564,0.27666 0.52691,0.48792 0.78858,0.66296 1.01977,0.68219 1.37738,1.01183 1.28218,1.18193 -0.026,0.0463 -0.009,0.0767 0.0775,0.13954 0.13564,0.0985 0.96303,0.86421 0.95039,0.87955 -0.006,0.006 -0.21176,-0.11091 -0.45946,-0.25996 -0.2477,-0.14904 -0.77363,-0.43539 -1.16874,-0.63632 -0.66058,-0.33593 -0.7367,-0.38443 -0.94617,-0.6029 -0.20641,-0.21531 -0.25668,-0.24785 -0.53622,-0.34716 -0.16965,-0.0603 -0.3394,-0.10958 -0.3772,-0.10958 -0.0477,0 0.11825,0.18927 0.54499,0.6212 0.33756,0.34167 0.61374,0.63336 0.61374,0.64824 0,0.0149 -0.0749,-0.0259 -0.16645,-0.0907 -0.38979,-0.2757 -2.0631,-1.21377 -2.1651,-1.21377 -0.0166,0 0.0242,0.057 0.0907,0.1266 l 0.12076,0.12661 -0.14585,-0.0732 c -0.16728,-0.084 -0.54324,-0.22772 -0.68895,-0.26349 l -0.0989,-0.0243 0.0989,0.12664 c 0.0544,0.0696 0.38273,0.31861 0.72965,0.55324 0.48358,0.32704 0.7207,0.51522 1.01624,0.80644 0.21203,0.20891 0.34651,0.35478 0.29885,0.32414 -0.182,-0.11702 -0.14068,-0.0482 0.0734,0.12219 0.31476,0.25055 0.32496,0.27065 0.0657,0.12966 -0.12528,-0.0681 -0.65355,-0.32548 -1.17393,-0.57185 -0.52039,-0.24638 -0.99558,-0.49061 -1.05598,-0.54273 -0.0604,-0.0522 -0.22387,-0.12943 -0.36328,-0.17178 -0.1394,-0.0423 -0.34231,-0.11838 -0.45088,-0.16896 l -0.1974,-0.092 0.15739,-0.0196 c 0.10717,-0.0134 0.16083,-0.0379 0.1682,-0.0768 0.0295,-0.15556 -0.8125,-0.64043 -1.12268,-0.64648 -0.19096,-0.004 -0.18452,-0.0242 -0.11866,0.37747 0.0299,0.18299 0.0322,0.26255 0.006,0.24758 -0.0205,-0.0121 -0.16345,-0.10293 -0.31765,-0.2018 -0.90852,-0.58259 -2.4424,-1.41735 -2.60706,-1.41883 -0.0269,-2.6e-4 0.13078,0.12079 0.35043,0.26893 1.52717,1.03006 2.62459,1.88924 2.62459,2.05479 0,0.0367 0.11486,0.18722 0.25527,0.33437 0.63473,0.6653 0.91034,0.98756 0.8422,0.98477 -0.0158,-5.1e-4 -0.0856,-0.0477 -0.15507,-0.10451 z m 5.24267,-5.10117 c -0.128,-0.0974 -0.86918,-0.5311 -1.36667,-0.79979 -0.45521,-0.24585 -0.57448,-0.33863 -0.27385,-0.21302 0.0698,0.0291 0.13406,0.0459 0.14278,0.0372 0.0447,-0.0447 -1.75521,-0.89068 -2.39201,-1.12433 -0.25057,-0.0919 -0.69993,-0.26349 -0.99858,-0.38124 -0.29865,-0.11776 -0.55884,-0.21896 -0.5782,-0.2249 -0.11699,-0.036 0.59267,0.33736 0.92848,0.48837 0.57483,0.25852 1.75213,0.82818 1.75213,0.84782 0,0.009 -0.17739,-0.0535 -0.39422,-0.13906 -0.39717,-0.15677 -1.78316,-0.61508 -1.8023,-0.59594 -0.0109,0.0109 2.03554,0.89492 2.78693,1.20393 l 0.44336,0.18233 -0.15769,-0.13893 -0.15768,-0.13894 0.4906,0.23005 c 0.26981,0.12653 0.7429,0.36262 1.05129,0.52466 0.57114,0.3001 0.6498,0.33629 0.52563,0.24185 z m -14.66502,-4.47375 c 0.14743,-0.57511 0.48965,-0.97387 0.83412,-0.97191 0.0517,2.7e-4 0.11716,0.0152 0.14537,0.0329 0.0445,0.0281 0.0431,0.0496 -0.0102,0.16149 -0.0842,0.17654 -0.0479,0.19123 0.099,0.04 0.17758,-0.18285 0.56635,-0.26403 0.76461,-0.15967 0.1168,0.0615 0.12652,0.0974 0.0736,0.27179 -0.0581,0.19123 -0.0565,0.17852 -0.0213,0.17852 0.0155,0 0.079,-0.0718 0.14085,-0.15973 0.18957,-0.26891 0.61861,-0.38943 0.81635,-0.2293 0.0811,0.0656 0.0813,0.0682 0.0214,0.19391 -0.12095,0.2536 -0.0575,0.26395 0.12778,0.0209 0.17451,-0.22882 0.32017,-0.31638 0.52634,-0.31638 0.16448,0 0.37946,0.068 0.4195,0.13287 0.0119,0.0192 -0.002,0.0913 -0.0308,0.16015 -0.0881,0.21081 -0.0465,0.28074 0.0598,0.10067 0.13124,-0.22218 0.2244,-0.28856 0.40495,-0.28856 0.0935,0 0.26889,0.0334 0.38964,0.0742 0.18266,0.0617 0.22908,0.0941 0.27611,0.19273 0.0666,0.13962 0.10388,0.14888 0.14664,0.0364 0.0172,-0.0452 0.0581,-0.10903 0.0909,-0.14184 0.0328,-0.0328 0.0538,-0.0643 0.0467,-0.0698 -0.006,-0.006 -0.15322,-0.084 -0.32466,-0.17416 -0.17146,-0.0902 -0.51838,-0.30167 -0.77094,-0.4699 -0.69111,-0.46031 -2.08797,-1.51485 -2.24126,-1.692 -0.22171,-0.25621 -0.72335,-1.03479 -0.99943,-1.5512 l -0.25839,-0.48331 -0.10956,0.0231 c -0.0603,0.0127 -0.12352,0.0361 -0.14057,0.0522 -0.043,0.0403 0.0647,0.29661 0.20928,0.49795 l 0.11947,0.16646 h -0.33285 -0.33285 v 0.27827 c 0,0.29726 -0.034,0.37197 -0.10168,0.22342 -0.0247,-0.0542 -0.0546,-0.0789 -0.073,-0.0602 -0.0172,0.0174 -0.0566,0.22872 -0.0876,0.46964 -0.10184,0.79213 -0.31068,1.60277 -0.40858,1.58592 -0.0313,-0.006 -0.0865,0.0784 -0.14981,0.22779 -0.0551,0.12996 -0.17292,0.37034 -0.26176,0.53417 -0.0888,0.16383 -0.16691,0.31001 -0.17346,0.32487 -0.0184,0.0415 0.20607,0.004 0.35714,-0.0611 0.0743,-0.0315 0.18461,-0.0525 0.2453,-0.0466 0.0909,0.009 0.10887,0.0245 0.10199,0.0896 -0.0104,0.099 0.0458,0.10238 0.0975,0.006 0.0216,-0.0401 0.0925,-0.0954 0.15781,-0.12265 0.1173,-0.049 0.50642,-0.0703 0.50642,-0.0275 0,0.0121 -0.0563,0.0844 -0.1251,0.1605 -0.17649,0.19536 -0.33046,0.60092 -0.33046,0.87047 0,0.12266 0.0665,0.0719 0.10557,-0.0806 z m -1.34922,-0.91112 c 0.1844,-0.45372 0.39635,-1.2123 0.47239,-1.69081 0.0721,-0.45366 0.0669,-0.45273 0.19814,-0.0351 0.0667,0.21201 0.13494,0.39932 0.15185,0.41621 0.0635,0.0636 0.14132,-0.39335 0.24681,-1.44997 0.0395,-0.39511 0.0838,-0.79723 0.0985,-0.8936 l 0.0267,-0.17521 0.0679,0.19274 c 0.0603,0.17109 0.0693,0.18153 0.0799,0.0931 l 0.0119,-0.0996 0.24596,0.0247 0.24598,0.0247 -0.0445,-0.0827 c -0.0244,-0.0456 -0.0632,-0.14582 -0.0861,-0.22291 l -0.0416,-0.14018 h -0.37019 c -0.36345,0 -0.37221,-0.002 -0.48055,-0.10512 -0.0607,-0.0578 -0.21315,-0.288 -0.33881,-0.5115 -0.12564,-0.22351 -0.33768,-0.53402 -0.4712,-0.69004 -0.1335,-0.15601 -0.31083,-0.4111 -0.39407,-0.56686 l -0.15131,-0.2832 -0.27822,0.2899 c -0.27694,0.28858 -0.64408,0.74645 -0.64408,0.80325 0,0.0561 0.0571,0.0298 0.15392,-0.0714 0.0983,-0.10258 0.40676,-0.33647 0.40676,-0.3084 0,0.008 -0.0227,0.0797 -0.0504,0.15828 -0.13315,0.37739 -0.37838,1.79655 -0.32046,1.85447 0.0116,0.0116 0.0431,-0.008 0.0697,-0.0452 0.0545,-0.0745 0.0529,-0.0876 0.13039,1.06249 0.0225,0.33306 0.0518,0.61237 0.0653,0.62069 0.0334,0.0206 0.34214,-1.09502 0.40377,-1.4587 0.11675,-0.68897 0.11343,-0.6788 0.11815,-0.36329 0.002,0.15419 0.0351,0.54842 0.0729,0.87607 0.17013,1.47403 0.24947,2.22711 0.27004,2.56339 0.0122,0.19948 0.0338,0.36269 0.0481,0.36269 0.0142,0 0.0532,-0.067 0.0865,-0.14893 z m 9.67275,-0.41208 c 0.35987,-0.092 0.80837,-0.31199 0.96241,-0.47198 0.11707,-0.12161 0.12238,-0.13806 0.11673,-0.36195 -0.004,-0.12901 -0.0466,-0.4299 -0.0964,-0.66865 -0.0578,-0.27748 -0.0904,-0.54625 -0.0904,-0.74498 v -0.31089 l 0.16931,-0.10417 c 0.18303,-0.11262 0.24253,-0.20757 0.27401,-0.43713 0.0178,-0.1302 0.009,-0.15617 -0.0728,-0.22072 -0.2016,-0.15857 -0.58677,-0.1845 -1.14145,-0.0768 -0.20236,0.0393 -0.49411,0.0739 -0.6483,0.0769 -0.56458,0.0111 -1.20899,-0.0109 -1.20899,-0.0411 0,-0.0383 0.20334,-0.21256 0.24799,-0.21256 0.0178,0 0.0324,0.0234 0.0324,0.0519 0,0.0773 0.14259,0.0993 0.51985,0.0803 0.29132,-0.0147 0.39262,-0.0379 0.72417,-0.16626 0.57304,-0.2218 0.64639,-0.23528 0.84792,-0.15586 0.12872,0.0508 0.25903,0.0665 0.5538,0.0668 0.21201,2.6e-4 0.40912,0.008 0.43803,0.0179 0.0389,0.0129 0.0498,-0.006 0.0422,-0.0701 -0.006,-0.0482 -0.0193,-0.30196 -0.0301,-0.56393 l -0.0197,-0.47635 0.19717,-0.11128 c 0.10845,-0.0612 0.25702,-0.16533 0.33015,-0.23141 0.17424,-0.15742 0.33478,-0.45109 0.30704,-0.56164 -0.0115,-0.0458 -0.16064,-0.23375 -0.33143,-0.41765 -0.33496,-0.3607 -0.51029,-0.65182 -0.63199,-1.04935 -0.0885,-0.28897 -0.0933,-0.46782 -0.0159,-0.58425 0.0317,-0.0476 0.15278,-0.18454 0.26912,-0.30419 0.24833,-0.25542 0.24884,-0.25025 -0.0609,-0.61535 -0.21351,-0.25168 -0.68692,-0.62598 -1.00859,-0.79742 -0.23623,-0.12592 -0.58886,-0.2531 -0.58886,-0.2124 0,0.10406 0.31983,0.58297 0.53602,0.80265 0.31707,0.32218 0.34603,0.33854 0.47816,0.27019 0.0571,-0.0295 0.12815,-0.0536 0.15803,-0.0536 0.0825,0 0.0653,0.13137 -0.025,0.1905 -0.21289,0.13949 -0.95448,0.21052 -0.95448,0.0915 0,-0.028 0.0375,-0.0598 0.0834,-0.0707 0.0776,-0.0184 0.0668,-0.0344 -0.15296,-0.22935 -0.28309,-0.2511 -0.67356,-0.64129 -1.04014,-1.03932 l -0.26867,-0.29172 -1.04544,0.002 c -1.46959,0.003 -2.14344,0.0841 -2.96803,0.35876 -0.4539,0.15117 -0.41173,0.0975 -0.67259,0.85626 -0.34768,1.01132 -0.48102,1.80327 -0.55073,3.27065 l -0.0433,0.90902 -0.30471,-0.45555 c -0.25335,-0.3788 -0.49397,-0.83894 -0.6013,-1.14988 -0.0324,-0.0935 -0.0771,-0.0466 -0.12756,0.13362 -0.0246,0.0877 -0.0553,0.16608 -0.0682,0.1741 -0.0501,0.031 -0.3606,-0.84574 -0.52164,-1.47296 -0.16307,-0.63514 -0.17082,-0.65496 -0.22558,-0.57676 -0.0517,0.0738 -0.0715,0.0784 -0.2251,0.0512 -0.50063,-0.0886 -0.79445,-0.006 -1.11682,0.31588 -0.4028,0.4016 -0.5867,1.08735 -0.45624,1.70132 0.0731,0.34421 0.1933,0.57946 0.48331,0.94615 0.1448,0.1831 0.36579,0.4906 0.49108,0.68334 0.12529,0.19274 0.26955,0.38878 0.32056,0.43565 0.0915,0.084 0.0971,0.0847 0.4205,0.0469 0.22717,-0.0266 0.3841,-0.0668 0.51139,-0.13141 0.101,-0.0512 0.20325,-0.0856 0.22721,-0.0763 0.024,0.009 0.14749,0.2271 0.27451,0.48423 0.60202,1.21861 1.00676,1.7497 1.59431,2.09211 0.27459,0.16003 0.30396,0.17275 1.18571,0.5137 1.44978,0.56059 2.63506,0.81977 3.77377,0.8252 0.38411,0.002 0.47958,0.0111 0.41871,0.0404 -0.0433,0.0209 -0.0788,0.0513 -0.0788,0.0678 0,0.0463 0.10582,0.0356 0.40426,-0.0408 z m -4.81969,-3.22147 c 0,-0.12423 0.348,-0.53661 0.70088,-0.83057 0.37064,-0.30876 1.03376,-0.61649 1.03376,-0.47973 0,0.0226 -0.15769,0.12034 -0.35042,0.21728 -0.38944,0.1959 -0.77054,0.51049 -1.14116,0.94193 -0.12003,0.13974 -0.22381,0.25407 -0.23064,0.25407 -0.006,0 -0.0124,-0.0464 -0.0124,-0.10298 z m -0.88608,-1.20424 c -0.028,-0.0729 0.83357,-0.62173 1.24699,-0.79423 0.31719,-0.13237 1.06929,-0.29381 1.14647,-0.2461 0.0607,0.0375 -0.0515,0.13219 -0.20358,0.17166 -0.8765,0.22744 -1.1122,0.32021 -1.67173,0.65797 -0.40257,0.24302 -0.49183,0.27932 -0.51815,0.2107 z m -3.10879,-0.2853 c 0,-0.0278 0.0814,-0.11851 0.18079,-0.20148 0.0995,-0.083 0.24463,-0.20825 0.32263,-0.27837 l 0.14186,-0.12749 -0.15966,-0.15517 c -0.13512,-0.13132 -0.16262,-0.18133 -0.17883,-0.32523 -0.023,-0.2045 0.0301,-0.37096 0.20014,-0.62719 0.068,-0.10261 0.12348,-0.21647 0.12307,-0.25303 -0.002,-0.0984 -0.11763,-0.33016 -0.23435,-0.46636 l -0.10246,-0.11957 -0.0788,0.11067 c -0.0842,0.11827 -0.34029,0.28615 -0.43648,0.28615 -0.0921,0 -0.0679,-0.0983 0.0382,-0.15431 0.053,-0.028 0.12791,-0.0994 0.16646,-0.15849 0.0438,-0.0673 0.0996,-0.10756 0.14893,-0.10762 0.1004,-1.3e-4 0.1008,-0.0509 0.002,-0.12076 -0.0984,-0.069 -0.38434,-0.071 -0.51438,-0.004 -0.13849,0.0716 -0.28856,0.2542 -0.37658,0.45819 -0.0413,0.0959 -0.11433,0.26614 -0.1621,0.37828 l -0.0868,0.20391 -0.0217,-0.1163 c -0.0148,-0.0789 0.006,-0.19251 0.0612,-0.35323 0.2591,-0.74025 0.81514,-1.00028 1.29613,-0.60614 0.47181,0.38662 0.5728,0.88829 0.25083,1.24607 -0.19101,0.21225 -0.16373,0.48744 0.0678,0.68333 0.21436,0.18141 0.16833,0.27377 -0.34497,0.6921 -0.2087,0.17009 -0.30175,0.20581 -0.30175,0.11583 z m -0.17521,-0.30778 c -0.11892,-0.06 -0.17788,-0.12031 -0.23978,-0.24506 -0.10496,-0.21158 -0.11558,-0.53883 -0.0221,-0.68293 0.0715,-0.11012 0.80449,-0.85122 0.842,-0.85122 0.0133,0 0.004,0.0249 -0.0216,0.0552 -0.0376,0.0454 -0.0377,0.0603 0,0.0834 0.0629,0.0388 0.0215,0.0986 -0.20782,0.29999 -0.106,0.0931 -0.26764,0.26218 -0.35919,0.37575 -0.1507,0.18693 -0.16645,0.22367 -0.16633,0.38813 1.3e-4,0.22998 0.085,0.37382 0.28579,0.48458 0.25637,0.14142 0.15461,0.22606 -0.1107,0.0921 z m 9.84705,-0.11037 c 0,-0.075 0.0684,-0.11201 0.3218,-0.1742 0.24325,-0.0596 0.34401,-0.0499 0.34401,0.0335 0,0.0349 -0.0476,0.0489 -0.16645,0.049 -0.10449,7e-5 -0.20918,0.0262 -0.28119,0.0701 -0.13379,0.0815 -0.21817,0.09 -0.21817,0.0217 z m -6.62311,-0.70347 c 0,-0.0729 0.2408,-0.2966 0.3853,-0.35783 0.2488,-0.10544 0.91271,-0.2916 1.11049,-0.3114 0.11209,-0.0112 0.37445,-0.045 0.58303,-0.0752 0.27566,-0.0399 0.40009,-0.0447 0.45555,-0.0177 0.0419,0.0204 0.0999,0.0434 0.12882,0.0513 0.0288,0.007 -0.22344,0.0572 -0.56069,0.1099 -0.33726,0.0527 -0.7623,0.1346 -0.9446,0.18218 -0.40199,0.10492 -0.89661,0.30236 -0.99942,0.39894 -0.0884,0.0831 -0.15848,0.0919 -0.15848,0.0199 z m 4.83812,-1.31675 c -0.1048,-0.0377 -0.27573,-0.11992 -0.37985,-0.18273 -0.20767,-0.12526 -0.48584,-0.36624 -0.45656,-0.3955 0.0102,-0.0102 0.135,0.0476 0.27743,0.12831 0.22676,0.12858 0.71608,0.36847 0.97729,0.47911 0.16882,0.0715 -0.21224,0.0449 -0.41831,-0.0292 z m 0.15238,-0.3807 c -0.27729,-0.16909 -0.40163,-0.48558 -0.42666,-1.08597 l -0.0181,-0.43384 -0.23163,0.0222 c -0.26034,0.025 -0.59268,0.10618 -0.6438,0.15731 -0.0217,0.0217 -0.006,0.16151 0.0426,0.39074 0.1139,0.53195 0.0581,0.51147 -0.17048,-0.0624 -0.0788,-0.19794 -0.1433,-0.38143 -0.1433,-0.40772 0,-0.0671 0.13082,-0.14526 0.39053,-0.23317 0.19077,-0.0645 0.28115,-0.0733 0.63002,-0.0612 0.37709,0.0131 0.42508,0.0229 0.64714,0.13228 0.29002,0.14277 0.54809,0.39175 0.6639,0.64049 0.10859,0.23324 0.10833,0.31942 -0.002,0.40559 -0.0482,0.0379 -0.0876,0.0885 -0.0876,0.11238 0,0.0809 -0.081,0.3144 -0.10908,0.3144 -0.0154,0 -0.0673,0.0394 -0.11551,0.0876 -0.10686,0.10686 -0.27294,0.11518 -0.42681,0.0214 z m 0.31172,-0.13651 c 0.17234,-0.19043 0.21517,-0.58146 0.0916,-0.83662 -0.10162,-0.20996 -0.34145,-0.39692 -0.61929,-0.48283 -0.0772,-0.0238 -0.0788,-0.0185 -0.0782,0.24956 0.002,0.51321 0.13551,0.94813 0.32949,1.06642 0.13509,0.0824 0.2042,0.0833 0.27638,0.004 z m -0.29509,-0.55545 c -0.0487,-0.0587 -0.0651,-0.30577 -0.023,-0.34783 0.0133,-0.0132 0.0484,-0.0147 0.078,-0.004 0.0386,0.0149 0.0541,0.0703 0.0541,0.19501 0,0.19099 -0.0366,0.24338 -0.10912,0.15604 z m -5.69676,2.43153 c 0.0249,-0.63689 0.0943,-1.28518 0.20113,-1.87568 0.0746,-0.41244 0.31651,-1.42702 0.37997,-1.59357 0.0549,-0.14416 -0.004,-0.12861 -0.55732,0.14895 -0.47126,0.23609 -1.54186,0.91916 -1.54186,0.98376 0,0.12696 0.20172,0.94398 0.289,1.1705 0.0999,0.25932 0.11025,0.27324 0.14357,0.19274 0.0197,-0.0478 0.0824,-0.18925 0.13934,-0.31453 l 0.10344,-0.22778 0.0352,0.12265 c 0.21373,0.743 0.68564,1.96241 0.75948,1.96241 0.0141,0 0.0358,-0.25626 0.048,-0.56945 z m -4.91547,-1.24402 c 0.84979,-1.55655 1.89535,-3.03804 3.00872,-4.2631 0.22425,-0.24675 0.24925,-0.2882 0.22911,-0.37985 -0.0124,-0.0566 -0.0106,-0.24733 0.005,-0.42389 l 0.0266,-0.32101 0.0456,0.31539 c 0.0778,0.53931 0.2375,1.41928 0.25727,1.41824 0.0104,-5e-4 0.21082,-0.39083 0.44544,-0.86731 0.40849,-0.82956 0.68087,-1.29508 1.01494,-1.73468 0.13235,-0.17417 0.15885,-0.238 0.18912,-0.45556 0.0367,-0.26396 0.0958,-0.50289 0.10095,-0.40869 0.0257,0.4663 0.23565,1.80827 0.4107,2.62571 0.14811,0.69152 0.16701,0.73615 0.22219,0.52463 0.1197,-0.4589 0.37238,-1.27701 0.51604,-1.67079 0.15622,-0.42817 0.7476,-1.65493 0.88022,-1.8259 l 0.0633,-0.0815 0.25678,0.53707 c 0.44889,0.93883 0.89501,2.03264 1.09449,2.68345 0.0252,0.0819 0.0569,0.14893 0.0706,0.14893 0.0401,0 0.19258,-0.51838 0.26883,-0.91423 0.0849,-0.44075 0.16651,-1.28242 0.21339,-2.20079 0.019,-0.37376 0.042,-0.68682 0.0508,-0.6957 0.0385,-0.0384 1.35396,0.80064 1.73091,1.10399 0.0829,0.0668 0.15983,0.11243 0.17077,0.10148 0.0265,-0.0265 -0.11786,-0.84317 -0.19951,-1.1287 -0.0355,-0.12425 -0.0513,-0.22589 -0.035,-0.22589 0.0162,0 0.19822,0.18528 0.40441,0.41175 0.38178,0.41936 0.92034,1.11224 1.29378,1.66453 0.11403,0.16866 0.21832,0.30663 0.23175,0.30663 0.0363,0 0.002,-0.27937 -0.0946,-0.76954 -0.0918,-0.46576 -0.30877,-1.16796 -0.53634,-1.73573 -0.0766,-0.19118 -0.136,-0.3504 -0.13194,-0.35382 0.005,-0.004 0.12235,-0.0637 0.26282,-0.13409 0.24224,-0.12129 0.68859,-0.28381 1.0149,-0.36955 0.0819,-0.0215 0.14892,-0.0517 0.14892,-0.0671 0,-0.0347 -0.83182,-0.13512 -1.34088,-0.16195 l -0.37723,-0.0199 -0.0739,0.12528 c -0.0407,0.069 -0.0787,0.12045 -0.0846,0.11453 -0.006,-0.006 0.019,-0.11829 0.0555,-0.24972 0.079,-0.28496 0.12554,-0.65389 0.0823,-0.65296 -0.017,4e-4 -0.0915,0.15921 -0.16553,0.35297 -0.0741,0.19376 -0.14048,0.34654 -0.14751,0.33948 -0.0122,-0.0122 0.13349,-0.48212 0.55149,-1.77945 0.10246,-0.31801 0.19124,-0.59712 0.19728,-0.62024 0.0124,-0.0471 -0.43441,0.12 -1.25499,0.46936 -0.64446,0.27436 -1.30654,0.6022 -1.71395,0.84867 -0.16208,0.0981 -0.30326,0.17829 -0.31373,0.17829 -0.0104,0 0.0396,-0.0599 0.11103,-0.13321 0.12952,-0.13265 0.13034,-0.1354 0.19751,-0.65706 0.0679,-0.52667 0.1853,-1.24521 0.24591,-1.50405 0.0179,-0.0766 0.0266,-0.14518 0.0193,-0.15251 -0.016,-0.0159 -0.61916,0.46844 -1.03411,0.83049 -0.16382,0.14293 -0.58506,0.54464 -0.9361,0.89268 -0.35104,0.34803 -0.64485,0.62562 -0.65294,0.61688 -0.0783,-0.0846 -0.52594,-0.81919 -0.74104,-1.21609 -0.14884,-0.27465 -0.28076,-0.4991 -0.29313,-0.4988 -0.0124,2.7e-4 -0.2238,0.37655 -0.4698,0.83609 -0.37567,0.70176 -0.55065,1.06073 -0.85082,1.74538 -0.0334,0.0762 -0.0343,0.076 -0.24377,-0.0489 -0.61434,-0.36619 -2.12106,-1.03694 -2.18535,-0.97283 -0.0351,0.035 -0.0466,1.78142 -0.0141,2.18049 0.0159,0.19754 0.026,0.35919 0.0221,0.35919 -0.005,0 -0.0832,-0.0333 -0.17636,-0.0739 -0.35046,-0.15295 -0.67286,-0.24603 -1.08048,-0.31193 -0.42676,-0.0691 -1.40398,-0.17484 -1.61434,-0.17484 h -0.1152 l 0.19386,0.34167 c 0.32721,0.57667 0.74723,1.45772 0.74723,1.56742 0,0.0244 -0.17822,0.0636 -0.46434,0.10207 -0.74225,0.0996 -1.9539,0.35051 -1.95347,0.40449 9e-5,0.0109 0.13091,0.0866 0.29071,0.16822 0.15981,0.0816 0.45541,0.28115 0.65691,0.44341 0.35937,0.2894 0.69232,0.60473 0.66201,0.62695 -0.008,0.006 -0.15726,0.0633 -0.33072,0.12705 -0.34182,0.1255 -0.75374,0.33212 -1.08615,0.54484 -0.18719,0.11978 -0.20304,0.13865 -0.14546,0.17318 0.60981,0.36561 1.28503,0.90048 1.28376,1.01694 0,0.0209 -0.0909,0.10064 -0.2015,0.17714 -0.11059,0.0765 -0.34899,0.2815 -0.52979,0.45556 -0.33622,0.32373 -0.9854,1.05465 -0.9854,1.10949 0,0.0383 -0.0243,0.0396 0.47175,-0.0224 0.42776,-0.0533 0.92148,-0.0677 1.05918,-0.0308 0.0673,0.0181 0.0722,0.0319 0.04,0.11342 -0.0202,0.0511 -0.0451,0.27155 -0.0554,0.48995 l -0.0187,0.39711 0.31501,-0.15821 c 0.17325,-0.087 0.41039,-0.18292 0.52695,-0.21313 0.26255,-0.068 0.51559,-0.0738 0.48771,-0.0111 -0.15268,0.34341 -0.40852,0.94141 -0.40852,0.95488 0,0.01 0.0143,0.0176 0.0319,0.0176 0.0175,0 0.0986,-0.12221 0.18015,-0.27158 z m 11.94363,-1.64703 c -0.27416,-0.28361 -0.42664,-0.48214 -0.6293,-0.81934 -0.17403,-0.28954 -0.17827,-0.29346 -0.37943,-0.35019 l -0.20342,-0.0573 0.16139,0.26417 c 0.10552,0.1727 0.25158,0.34414 0.42191,0.49517 0.14328,0.12707 0.35616,0.32725 0.47306,0.44486 0.11692,0.1176 0.24364,0.21617 0.28157,0.21902 0.0517,0.005 0.0202,-0.0453 -0.12578,-0.19631 z m 1.71449,-0.79179 c -0.0349,-0.13825 -0.25058,-0.39191 -0.47837,-0.56283 -0.38121,-0.28599 -0.43889,-0.34973 -0.41234,-0.45554 0.0133,-0.0528 0.15929,-0.2363 0.32451,-0.40769 0.29558,-0.30661 0.29977,-0.31339 0.26136,-0.42359 -0.0651,-0.1867 -0.28505,-0.5571 -0.4198,-0.70691 -0.49308,-0.54817 -2.00954,-1.31769 -2.76455,-1.40285 -0.12678,-0.0142 -0.15562,-0.006 -0.19002,0.0587 -0.0993,0.1849 -0.0689,1.17529 0.0647,2.10806 0.0669,0.46764 0.0853,0.5079 0.23209,0.50888 0.20495,0.002 0.71658,0.13337 1.04786,0.2703 0.55866,0.23095 1.17647,0.63596 1.62382,1.06455 0.25084,0.24031 0.38908,0.32085 0.4733,0.27578 0.0442,-0.0236 0.0807,-0.009 0.14299,0.0577 l 0.0837,0.0895 0.0179,-0.18721 c 0.01,-0.10296 0.006,-0.23207 -0.006,-0.28691 z m -0.62392,-2.93 c 0,-0.0994 -0.95813,-0.76275 -1.41897,-0.98239 -0.48718,-0.23218 -1.41055,-0.52196 -1.67358,-0.52521 -0.11805,-0.002 -0.0599,0.0669 0.0876,0.10319 0.80781,0.19828 1.793,0.64398 2.51434,1.13744 0.44046,0.30132 0.4906,0.3286 0.4906,0.26697 z m 0.80597,14.36203 c -1.00591,-0.095 -1.96239,-0.65439 -1.96239,-1.14769 0,-0.35243 0.72306,-0.64779 1.13729,-0.46455 0.0925,0.0409 0.17409,0.0744 0.18127,0.0744 0.006,0 0.0131,-0.0603 0.0131,-0.13405 0,-0.0944 0.0233,-0.15532 0.0789,-0.20588 0.14324,-0.13048 0.24546,-0.1612 0.53316,-0.16023 0.46436,0.002 0.72003,0.15638 0.77266,0.46794 0.0336,0.19825 -0.0254,0.29532 -0.28082,0.46263 l -0.21026,0.13773 0.22778,-0.022 c 0.12529,-0.0121 0.33028,-0.0266 0.45556,-0.0324 0.26852,-0.0121 0.43174,-0.0876 0.52707,-0.24394 0.132,-0.2165 0.0553,-0.48376 -0.18415,-0.64159 -0.0554,-0.0364 -0.13235,-0.1373 -0.1711,-0.22403 -0.13526,-0.30278 -0.38927,-0.48216 -0.79602,-0.56219 -0.26218,-0.0515 -0.51329,-0.0275 -0.69867,0.0671 -0.12978,0.0662 -0.36958,0.29844 -0.39886,0.38629 -0.0106,0.0316 -0.0559,0.0315 -0.19459,-4.1e-4 -0.17155,-0.0396 -0.17845,-0.0455 -0.13493,-0.11519 0.0851,-0.13616 0.15291,-0.422 0.17558,-0.73927 0.0264,-0.37009 0.10982,-0.7685 0.17153,-0.81972 0.075,-0.0622 0.6474,-0.14401 0.9991,-0.14275 0.8115,0.004 1.52732,0.25656 1.76007,0.62359 0.15449,0.24361 0.15929,0.5179 0.0149,0.85576 -0.0208,0.0486 -0.009,0.0613 0.0571,0.0613 0.13011,0 0.579,0.13333 0.75958,0.22562 0.33705,0.17223 0.52915,0.45373 0.53052,0.77746 0.002,0.35538 -0.15056,0.62862 -0.43157,0.7754 -0.16192,0.0845 -0.21887,0.0946 -0.54254,0.0954 l -0.36166,8.5e-4 -0.10427,0.1398 c -0.11915,0.15978 -0.21965,0.22513 -0.34891,0.22691 -0.0496,5.1e-4 -0.17572,0.0471 -0.28033,0.10304 -0.30264,0.16199 -0.7655,0.2244 -1.29406,0.17448 z"
         id="path3304" />
    </g>
  </g>
</svg>
