<?xml version="1.0" encoding="UTF-8" standalone="no"?>
<!-- Created with Inkscape (http://www.inkscape.org/) -->

<svg
   width="41.008999mm"
   height="41.008999mm"
   viewBox="0 0 41.008999 41.008999"
   version="1.1"
   id="svg1"
   inkscape:version="1.4.2 (f4327f4, 2025-05-13)"
   sodipodi:docname="319.svg"
   xmlns:inkscape="http://www.inkscape.org/namespaces/inkscape"
   xmlns:sodipodi="http://sodipodi.sourceforge.net/DTD/sodipodi-0.dtd"
   xmlns="http://www.w3.org/2000/svg"
   xmlns:svg="http://www.w3.org/2000/svg">
  <sodipodi:namedview
     id="namedview1"
     pagecolor="#ffffff"
     bordercolor="#000000"
     borderopacity="0.25"
     inkscape:showpageshadow="2"
     inkscape:pageopacity="0.0"
     inkscape:pagecheckerboard="0"
     inkscape:deskcolor="#d1d1d1"
     inkscape:document-units="mm"
     inkscape:zoom="1.4513545"
     inkscape:cx="86.470947"
     inkscape:cy="71.657199"
     inkscape:window-width="1050"
     inkscape:window-height="1081"
     inkscape:window-x="857"
     inkscape:window-y="0"
     inkscape:window-maximized="0"
     inkscape:current-layer="layer1" />
  <defs
     id="defs1" />
  <g
     inkscape:label="Layer 1"
     inkscape:groupmode="layer"
     id="layer1"
     transform="translate(333.37504,1257.5646)">
    <g
       id="g109"
       transform="translate(-1500.6378,-983.09587)">
      <circle
         style="fill:none;stroke:#ff0000;stroke-width:0.1;stroke-dasharray:none"
         id="path788-8-1-8-1-9-2-2-9-1-6-9-9-0-9"
         cx="1187.7672"
         cy="-253.96423"
         r="19.954653" />
      <ellipse
         style="fill:none;stroke:#ff00ff;stroke-width:0.1;stroke-dasharray:none;stroke-opacity:1"
         id="path1138-9-4-0-0-1-2-8-1-8-1-17-3-2-1"
         cx="1187.7672"
         cy="-253.96423"
         rx="18.492125"
         ry="18.492126" />
      <circle
         style="fill:none;stroke:#0000ff;stroke-width:0.1;stroke-linecap:round;stroke-dasharray:none;stroke-opacity:1;paint-order:markers stroke fill"
         id="path13019-1-33-4-5-5-2-4-30-1-1"
         cx="1187.7671"
         cy="-268.97519"
         r="2" />
      <path
         style="fill:#000000;stroke-width:0.304925"
         d="m 1191.7001,-238.38873 c -0.016,-0.0175 -0.045,-0.064 -0.065,-0.10336 -0.038,-0.0764 -0.4528,-1.11439 -1.0408,-2.60535 l -0.1394,-0.35349 -0.072,0.003 c -0.1471,0.008 -0.3997,-0.0758 -0.7098,-0.2347 l -0.1733,-0.0888 -0.023,0.0459 c -0.087,0.16854 -0.5227,0.74367 -1.0658,1.40586 -0.4255,0.51881 -0.6759,0.79127 -0.743,0.80811 -0.1232,0.0309 -0.1702,-0.0773 -0.1081,-0.24851 0.073,-0.19878 0.1075,-0.32475 0.2256,-0.80042 0.1012,-0.40838 0.3293,-1.38323 0.375,-1.60288 0.01,-0.038 0,-0.0487 -0.03,-0.0727 -0.052,-0.0371 -0.151,-0.0697 -0.2773,-0.0916 -0.1722,-0.0299 -0.8876,-0.0214 -1.2993,0.0155 -0.4103,0.0368 -1.1126,0.12422 -1.5586,0.194 -0.1753,0.0275 -0.3442,0.0534 -0.3754,0.0577 -0.043,0.006 -0.078,-0.001 -0.1417,-0.0306 -0.4039,-0.18235 -1.013,-0.35348 -1.5866,-0.44585 -0.4577,-0.0737 -1.1463,-0.10342 -1.6511,-0.0713 -0.3739,0.0238 -0.5066,0.0448 -0.5906,0.0937 -0.087,0.0504 -0.237,0.1943 -0.3546,0.33908 -0.1556,0.19157 -0.4342,0.62981 -0.5632,0.88599 -0.046,0.0914 -0.048,0.0934 -0.1721,0.15202 -0.1652,0.0783 -0.3087,0.11279 -0.5539,0.13312 -0.3552,0.0294 -0.6865,-0.004 -1.5617,-0.15698 -0.2688,-0.047 -0.564,-0.0952 -0.656,-0.10711 -0.2094,-0.0271 -0.4551,-0.0273 -0.581,-6.1e-4 -0.3979,0.0844 -0.695,0.57179 -0.7441,1.22106 l -0.011,0.13928 -0.025,-0.0566 c -0.096,-0.2114 -0.136,-0.40699 -0.1457,-0.70126 -0.012,-0.36362 0.044,-0.71445 0.1746,-1.09551 0.035,-0.10262 0.068,-0.19921 0.073,-0.21464 0.01,-0.0157 -0.085,0.0528 -0.2031,0.15585 -0.1163,0.10112 -0.2013,0.16793 -0.1888,0.14845 0.1188,-0.18503 0.2926,-0.52011 0.5509,-1.06251 0.5914,-1.24145 0.9433,-1.84664 1.3466,-2.31628 0.1515,-0.17631 0.5104,-0.52519 0.7173,-0.69708 0.3318,-0.27583 0.7931,-0.605 1.1061,-0.78938 0.064,-0.0379 0.1169,-0.0736 0.1169,-0.0793 0,-0.0187 -0.062,-0.0275 -0.193,-0.0277 -0.1604,-2.4e-4 -0.3178,0.0266 -0.5451,0.093 -0.097,0.0282 -0.1884,0.055 -0.2041,0.0596 -0.032,0.009 0.1462,-0.15216 0.3382,-0.30598 0.5359,-0.42925 1.2106,-0.75853 1.6771,-0.81841 0.041,-0.005 0.075,-0.0135 0.074,-0.0183 0,-0.0388 -0.2676,-0.18149 -0.5092,-0.27344 -0.034,-0.0131 -0.033,-0.0141 0.033,-0.0558 0.098,-0.0611 0.2922,-0.13653 0.4493,-0.17479 0.2233,-0.0543 0.4156,-0.0689 0.796,-0.0602 0.3439,0.008 0.5444,0.0282 0.809,0.0819 0.077,0.0156 0.1428,0.0253 0.1465,0.0217 0.01,-0.003 -0.01,-0.0279 -0.027,-0.0537 -0.1125,-0.1523 -0.2125,-0.37368 -0.2366,-0.52358 -0.01,-0.0487 -0.013,-0.09 -0.011,-0.0918 0,-0.002 0.048,0.0253 0.1024,0.0606 0.3321,0.21529 0.8695,0.42366 1.5298,0.59322 0.3295,0.0847 0.9281,0.20923 0.9723,0.20236 0.022,-0.003 -0.01,-0.0405 -0.1476,-0.17794 -0.097,-0.0954 -0.1741,-0.17354 -0.1723,-0.17354 0,0 0.04,0.0184 0.087,0.0409 0.276,0.13608 1.0665,0.33384 2.0096,0.50276 0.5314,0.0951 1.1075,0.17885 1.2317,0.17885 h 0.047 l -0.01,0.0886 c -0.018,0.25627 -0.039,0.43598 -0.077,0.63398 -0.023,0.12076 -0.051,0.27695 -0.063,0.34708 -0.04,0.21454 -0.072,0.30843 -0.1363,0.39541 -0.094,0.12609 -0.2085,0.19237 -0.4485,0.25828 -0.013,0.003 -0.01,0.02 0.024,0.0542 0.1745,0.19872 0.3205,0.70761 0.3497,1.21881 0.012,0.20874 0.051,0.36772 0.134,0.53834 0.094,0.19382 0.2198,0.36706 0.4003,0.54952 0.1328,0.13425 0.1562,0.15228 0.1842,0.14212 0.058,-0.0209 0.1857,-0.0105 0.2871,0.0232 0.142,0.0472 0.4368,0.19327 0.657,0.32573 l 0.1896,0.11402 h 0.1029 c 0.276,0 0.5328,0.17698 0.678,0.46739 0.033,0.0663 0.063,0.13479 0.069,0.15221 l 0.01,0.0316 0.069,-0.0299 c 0.058,-0.0259 0.086,-0.0289 0.2033,-0.0225 0.1895,0.0105 0.4188,0.0928 0.6874,0.24705 l 0.099,0.0566 0.056,-0.0409 c 0.1528,-0.11066 0.4106,-0.12562 0.6812,-0.0395 0.1431,0.0456 0.4171,0.17595 0.5288,0.25172 l 0.062,0.0413 0.038,-0.0387 c 0.054,-0.0547 0.1999,-0.0844 0.4837,-0.0989 0.1285,-0.007 0.2396,-0.0109 0.247,-0.009 0.01,0.001 0.016,-0.0104 0.018,-0.026 0.013,-0.0778 0.023,-0.0971 0.071,-0.14985 0.093,-0.10279 0.3192,-0.21228 0.5525,-0.26731 0.074,-0.0173 0.074,-0.0173 0.1027,-0.10388 0.016,-0.0476 0.029,-0.0966 0.029,-0.1087 0,-0.0122 -0.034,-0.056 -0.077,-0.0976 -0.1516,-0.14869 -0.183,-0.28564 -0.1289,-0.56186 0.01,-0.0497 0.036,-0.029 -0.5238,-0.408 -0.4227,-0.28614 -0.6946,-0.48882 -0.7991,-0.59568 l -0.077,-0.0784 -0.01,-0.59939 c -0.01,-0.83217 0.019,-1.25128 0.1194,-1.72395 l 0.022,-0.10455 0.1367,0.0101 c 0.3586,0.0261 0.7191,0.12373 1.0286,0.27856 0.2892,0.14468 0.5991,0.40355 0.7688,0.64222 l 0.086,0.12002 0.01,-0.0666 c 0.012,-0.0852 0.066,-0.20404 0.1319,-0.28348 l 0.05,-0.0622 0.1083,0.21033 c 0.06,0.11568 0.1329,0.24859 0.1631,0.29534 0.075,0.11625 0.2195,0.29997 0.2892,0.36723 l 0.057,0.0555 -0.01,-0.14218 c -0.01,-0.0782 -0.01,-0.16021 0,-0.18227 0.01,-0.0372 0.016,-0.0288 0.093,0.1177 0.077,0.14463 0.1388,0.2429 0.2778,0.43562 0.07,0.097 0.2059,0.38075 0.2653,0.55322 0.085,0.24546 0.1147,0.42215 0.1136,0.66512 0,0.16983 -0.01,0.23466 -0.031,0.32282 -0.062,0.2269 -0.1985,0.42797 -0.3831,0.56238 -0.048,0.0349 -0.087,0.0666 -0.086,0.0708 0,0.004 0.043,0.0425 0.096,0.0854 0.1447,0.11902 0.9095,0.8922 0.9095,0.9195 0,0.0465 -0.031,0.058 -0.1557,0.058 -0.097,0 -0.1572,-0.0102 -0.2912,-0.0486 -0.235,-0.0674 -0.603,-0.19502 -1.0883,-0.37737 -0.2265,-0.0852 -0.4164,-0.15489 -0.4218,-0.15489 -0.01,0 -0.023,0.0395 -0.039,0.0878 l -0.029,0.0878 0.033,0.0362 c 0.1712,0.18284 0.5038,0.96326 0.93,2.18248 0.095,0.27005 0.1177,0.35322 0.1234,0.44048 0.01,0.11555 -0.01,0.16892 -0.05,0.16837 -0.034,-3e-4 -0.073,-0.0353 -0.1621,-0.14843 -0.1817,-0.22971 -0.7594,-0.75986 -1.8425,-1.69092 l -0.2519,-0.21654 -0.04,0.0424 c -0.067,0.0725 -0.1706,0.0942 -0.4366,0.0921 l -0.2293,-0.002 0.014,0.0374 c 0.043,0.1119 0.039,0.53887 -0.01,0.96531 -0.053,0.46218 -0.1768,1.17154 -0.2534,1.45514 -0.039,0.14479 -0.1394,0.35821 -0.1683,0.35821 -0.01,0 -0.031,-0.0144 -0.048,-0.0318 z m -0.5213,-10.68463 c 0.091,-0.0737 0.475,-0.12271 0.5714,-0.0729 0.024,0.0129 0.045,0.0294 0.045,0.0368 0,0.0215 -0.047,0.0263 -0.3259,0.0331 -0.1441,0.003 -0.2748,0.0107 -0.2904,0.0161 -0.028,0.0101 -0.028,0.0101 -2e-4,-0.0131 z m -7.2,-0.44341 c -0.3275,-0.37187 -0.5218,-0.78481 -0.5304,-1.1272 0,-0.0599 -0.01,-0.10883 -0.01,-0.1088 -0.017,1.6e-4 -0.2812,0.66887 -0.326,0.82629 l -0.023,0.0826 -0.117,-0.0868 c -0.2348,-0.17411 -0.4302,-0.40305 -0.4502,-0.52726 -0.01,-0.0297 -0.012,-0.0541 -0.016,-0.0541 -0.01,0 -0.023,0.0139 -0.041,0.031 l -0.033,0.0309 -0.057,-0.0558 c -0.1656,-0.16135 -0.3137,-0.49244 -0.3766,-0.84206 -0.016,-0.0935 -0.024,-0.2153 -0.025,-0.39897 0,-0.30457 0.012,-0.29507 -0.1449,-0.10698 -0.2349,0.28167 -0.3963,0.56752 -0.4655,0.82438 l -0.03,0.11301 -0.044,-0.1163 c -0.049,-0.12841 -0.1055,-0.33938 -0.1306,-0.49223 -0.03,-0.1847 -0.021,-0.42811 0.027,-0.72958 0.024,-0.15195 0.066,-0.42607 0.095,-0.60918 0.027,-0.18311 0.06,-0.37436 0.07,-0.425 0.017,-0.0831 0.018,-0.1146 0,-0.098 -0.02,0.021 -0.2909,0.56384 -0.3602,0.72134 -0.097,0.21934 -0.1835,0.47814 -0.1991,0.59361 l -0.011,0.0793 -0.024,-0.0567 c -0.099,-0.22312 -0.1423,-0.62859 -0.1073,-1.00584 0.074,-0.79564 0.3835,-1.6049 1.3744,-3.5913 0.3101,-0.62169 0.4445,-0.92017 0.5788,-1.28693 0.2155,-0.58783 0.3927,-0.92098 0.5174,-0.97306 0.026,-0.0109 0.071,-0.0152 0.111,-0.0107 0.1924,0.0217 0.9623,-0.10896 2.3552,-0.39989 0.2087,-0.0435 0.5137,-0.0937 1.6292,-0.2679 2.1289,-0.33238 3.2983,-0.52245 3.5346,-0.5745 0.1525,-0.0336 0.4081,-0.13636 0.5713,-0.22974 0.158,-0.0904 0.2941,-0.2158 0.3432,-0.31626 0.035,-0.071 0.056,-0.092 0.096,-0.092 0.01,0 0.031,0.0405 0.048,0.09 0.067,0.18954 0.2438,0.40446 0.4167,0.50899 0.1338,0.081 0.2464,0.11184 0.4377,0.11992 0.2837,0.012 0.5048,-0.0534 0.6553,-0.19371 0.1228,-0.11446 0.1898,-0.25918 0.1999,-0.43126 0.01,-0.0977 0.01,-0.10129 0.045,-0.10853 0.037,-0.007 0.042,-0.001 0.085,0.0879 0.1015,0.21555 0.3278,0.3722 0.6398,0.44246 0.1093,0.0247 0.2476,0.0365 0.8454,0.0724 0.4403,0.0264 1.5333,0.11096 1.8291,0.14148 0.2465,0.0254 0.4504,0.0582 0.4885,0.0786 0.037,0.0201 0.2095,0.24567 0.3058,0.40094 0.1038,0.1674 0.2552,0.48315 0.3292,0.68615 0.1656,0.45471 0.2638,1.06636 0.2549,1.58973 v 0.17713 l 0.131,0.52417 c 0.3105,1.24211 0.503,1.88894 0.67,2.25105 0.3201,0.69413 0.5648,1.64349 0.5628,2.18308 0,0.14409 -0.027,0.31253 -0.062,0.39666 l -0.024,0.0566 -0.1083,-0.12032 c -0.2288,-0.25399 -0.4424,-0.46116 -0.455,-0.44137 -0.01,0.0105 -0.016,0.0709 -0.022,0.13458 -0.014,0.17464 -0.073,0.4416 -0.1344,0.61715 -0.066,0.18617 -0.1567,0.33874 -0.2598,0.43464 l -0.075,0.0696 -0.01,-0.28333 c -0.01,-0.20188 -0.018,-0.32495 -0.039,-0.42808 -0.029,-0.1433 -0.054,-0.22559 -0.063,-0.21494 0,0.003 -0.035,0.0947 -0.071,0.20385 -0.1061,0.31881 -0.2454,0.58593 -0.4013,0.76955 -0.071,0.0828 -0.2479,0.21504 -0.2888,0.21504 -0.033,0 -0.097,-0.0961 -0.1012,-0.15356 0,-0.0246 -0.01,-0.0448 -0.01,-0.0448 0,-2e-5 -0.1548,0.1466 -0.3377,0.32582 -0.1829,0.1792 -0.3374,0.32583 -0.3433,0.32583 -0.018,0 -0.1024,-0.19545 -0.1106,-0.25573 -0.01,-0.0307 -0.01,-0.0559 -0.014,-0.0559 -0.016,0 -0.3061,0.23121 -0.4292,0.34157 l -0.1362,0.12199 0.024,-0.1149 c 0.036,-0.17069 0.055,-0.36601 0.055,-0.58792 0,-0.29714 -0.037,-0.51615 -0.1238,-0.73167 l -0.04,-0.0987 0.082,-0.15728 c 0.2754,-0.53085 0.4716,-1.13511 0.5407,-1.66457 0.027,-0.20682 0.042,-0.58218 0.027,-0.65876 l -0.012,-0.0581 -0.2761,0.35559 c -0.1518,0.19556 -0.3559,0.46168 -0.4533,0.59137 -0.098,0.12969 -0.179,0.23423 -0.1811,0.23233 -0.01,-0.007 0.4856,-1.17496 0.5921,-1.40313 l 0.059,-0.1275 -0.01,-0.27625 c -0.031,-0.99906 -0.1689,-1.82867 -0.3654,-2.19817 -0.046,-0.0881 -0.1212,-0.17059 -0.1065,-0.11811 0.01,0.0156 0.049,0.23552 0.1009,0.48874 0.05,0.25324 0.1114,0.54013 0.1339,0.63751 l 0.041,0.17709 -0.086,-0.0921 c -0.4158,-0.44984 -0.9539,-1.11754 -1.2027,-1.49266 -0.1331,-0.20047 -0.2516,-0.41475 -0.2712,-0.49008 -0.02,-0.0766 -0.021,-0.0135 0,0.12005 0.071,0.50281 0.1014,0.94317 0.08,1.12692 -0.01,0.0724 -0.021,0.13644 -0.027,0.14251 -0.01,0.006 -0.1131,-0.1559 -0.2378,-0.35989 -0.3037,-0.497 -0.6353,-1.02838 -0.8197,-1.31355 -0.2713,-0.41948 -0.5441,-1.02402 -0.5967,-1.32235 -0.01,-0.0558 -0.021,-0.0918 -0.025,-0.0801 -0.01,0.0117 -0.06,0.18701 -0.1234,0.3896 -0.1743,0.55466 -0.3087,0.89883 -0.4088,1.04709 l -0.042,0.0617 0.094,0.008 c 0.051,0.005 0.2311,0.0125 0.3986,0.0174 0.1676,0.005 0.3246,0.0131 0.349,0.018 l 0.044,0.009 -0.2751,0.63042 c -0.1512,0.34673 -0.29,0.66549 -0.3082,0.70835 -0.043,0.10199 -0.3443,0.79352 -0.4438,1.02001 -0.042,0.0974 -0.093,0.21215 -0.1105,0.25499 -0.02,0.0481 -0.035,0.0697 -0.039,0.0566 -0.01,-0.0117 -0.062,-0.26669 -0.1296,-0.56668 -0.1917,-0.85574 -0.2468,-1.0947 -0.2544,-1.10243 -0.01,-0.004 -0.076,0.0595 -0.1597,0.14098 -0.2611,0.25393 -0.5029,0.44313 -0.6593,0.51598 -0.081,0.0377 -0.1454,0.0459 -0.1331,0.0169 0.1966,-0.46292 0.7393,-1.86405 0.7269,-1.8765 0,-0.003 -0.026,0.0353 -0.051,0.0842 -0.1044,0.19722 -0.2967,0.49284 -0.4584,0.70504 -0.2023,0.26568 -0.5141,0.58648 -0.7171,0.73809 -0.2072,0.15462 -0.4667,0.29176 -0.629,0.33245 -0.049,0.0124 -0.061,0.0321 0.1309,-0.23327 0.3622,-0.50167 0.7955,-1.14392 0.7955,-1.17895 0,-0.006 -0.067,0.0422 -0.1483,0.10788 -0.5749,0.46251 -1.7072,1.04965 -2.855,1.48053 -0.059,0.0219 -0.1173,0.0443 -0.1307,0.0497 -0.018,0.007 0,-0.0386 0.059,-0.16516 0.096,-0.20058 0.1764,-0.43001 0.1998,-0.56654 0.031,-0.17989 0.03,-0.1798 -0.1988,0.0309 -0.2888,0.26584 -1.0146,0.98713 -1.2394,1.2319 -0.3498,0.38063 -0.573,0.66282 -0.7001,0.88542 l -0.057,0.0992 -0.01,0.44627 c -0.016,0.78735 0.031,1.39669 0.1338,1.72672 l 0.028,0.0905 -0.051,-0.048 c -0.088,-0.0832 -0.2562,-0.29214 -0.3567,-0.4419 -0.1895,-0.28259 -0.3396,-0.60196 -0.4465,-0.94942 -0.078,-0.25251 -0.1154,-0.34467 -0.194,-0.47295 -0.1846,-0.30117 -0.4639,-0.52453 -0.7121,-0.5695 -0.2008,-0.0364 -0.3397,0.0546 -0.4556,0.29862 -0.074,0.15603 -0.1069,0.33063 -0.1075,0.57133 0,0.402 0.092,0.78433 0.3159,1.30335 0.2322,0.53782 0.4899,0.95571 0.7752,1.25712 l 0.1131,0.11944 -0.063,0.0839 c -0.2161,0.28496 -0.3462,0.63226 -0.3457,0.92259 2e-4,0.15561 0.027,0.27281 0.098,0.42388 l 0.055,0.11783 -0.1452,0.1456 c -0.08,0.08 -0.1543,0.16631 -0.1653,0.19164 -0.011,0.0253 -0.024,0.0461 -0.029,0.0461 -0.01,0 -0.047,-0.043 -0.094,-0.0957 z m 4.7545,-0.13565 c -0.4924,-0.65799 -0.9061,-1.49529 -1.2026,-2.4339 -0.079,-0.24763 -0.2308,-0.83429 -0.2199,-0.84522 0.01,-0.005 1.4307,0.269 1.4956,0.28807 0.018,0.005 0.02,0.0275 0.011,0.15162 -0.092,1.27192 -0.084,2.53699 0.018,2.91984 0.01,0.03 0.012,0.0566 0.01,0.0592 0,0.003 -0.053,-0.0603 -0.1125,-0.13956 z m 5.1635,0.0299 c 0.018,-0.0568 0.1105,-0.55246 0.1571,-0.84694 0.107,-0.67845 0.142,-1.09881 0.1314,-1.57857 -0.01,-0.26603 -0.014,-0.36908 -0.035,-0.46853 -0.016,-0.0702 -0.024,-0.13156 -0.019,-0.13652 0.01,-0.005 0.2605,-0.0925 0.5679,-0.19452 0.4152,-0.13781 0.5618,-0.18104 0.57,-0.16809 0.018,0.029 0.013,0.19845 -0.01,0.32236 -0.092,0.48371 -0.498,1.44493 -1.0925,2.58467 -0.2092,0.40114 -0.2871,0.54207 -0.2688,0.48614 z m -3.9716,-0.27194 c 0,-0.0498 0.1321,-0.11062 0.3244,-0.14945 0.4249,-0.0858 0.7685,-0.0718 1.3868,0.0566 0.2466,0.0511 0.2806,0.0517 0.4224,0.006 0.062,-0.0197 0.154,-0.0431 0.2057,-0.0522 0.083,-0.0143 0.1024,-0.0132 0.163,0.009 0.067,0.0256 0.2236,0.11974 0.2139,0.12948 0,0.003 -0.052,-0.0153 -0.1104,-0.0402 -0.1329,-0.057 -0.229,-0.0584 -0.4428,-0.006 l -0.1535,0.0376 -0.2291,-0.0276 c -0.4385,-0.0528 -0.5852,-0.0633 -0.8878,-0.0639 -0.3197,-6.1e-4 -0.3349,10e-4 -0.8607,0.1136 -0.022,0.005 -0.031,1.3e-4 -0.031,-0.0137 z m 2.21,-1.53742 c 0,-0.0383 0.3146,-0.3852 0.3329,-0.36695 0.014,0.0133 -0.1089,0.18424 -0.2035,0.28437 -0.083,0.0873 -0.1294,0.11733 -0.1294,0.0825 z m 1.8271,-2.06574 c -0.1395,-0.15772 -0.2216,-0.30823 -0.2687,-0.49229 -0.038,-0.14982 -0.036,-0.15773 0.023,-0.0923 0.1646,0.18221 0.42,0.036 0.4204,-0.24065 0,-0.22367 -0.163,-0.36937 -0.3385,-0.302 -0.023,0.009 -0.022,0.003 0.01,-0.0442 0.018,-0.0297 0.029,-0.0564 0.027,-0.0594 -0.01,-0.009 -0.1703,0.10949 -0.3061,0.22683 -0.074,0.0632 -0.2062,0.19466 -0.2954,0.29205 -0.089,0.0974 -0.1706,0.18194 -0.1811,0.18789 -0.058,0.0327 -0.02,-0.0821 0.072,-0.22104 0.2226,-0.33585 0.5607,-0.65264 0.849,-0.79551 0.1441,-0.0714 0.2881,-0.10909 0.5454,-0.14278 0.3644,-0.0478 0.6148,0.0138 0.9274,0.22785 l 0.097,0.0661 0.1468,0.002 c 0.1653,0.003 0.1657,0.005 0.012,0.0831 -0.046,0.0236 -0.088,0.0451 -0.09,0.0477 0,0.003 0,0.0369 0.012,0.0763 0.019,0.0789 0.024,0.0825 0.1489,0.0891 l 0.071,0.003 -0.071,0.0525 c -0.039,0.0289 -0.088,0.0562 -0.1073,0.0608 -0.022,0.005 -0.05,0.0301 -0.071,0.064 -0.018,0.0306 -0.037,0.0559 -0.041,0.0561 -0.01,2.2e-4 -0.01,-0.0559 0,-0.12493 l 0.01,-0.12533 -0.086,-0.0828 c -0.2047,-0.19666 -0.3984,-0.28893 -0.6081,-0.28975 -0.052,-2.1e-4 -0.06,0.003 -0.053,0.0245 0.086,0.26212 0.086,0.25753 0.086,0.48522 0,0.18662 -0.01,0.23767 -0.032,0.34 -0.064,0.23778 -0.2234,0.52545 -0.3043,0.5512 -0.058,0.0182 -0.5145,0.14298 -0.524,0.14298 -0.01,0 -0.034,-0.0303 -0.066,-0.0672 z m -5.4995,-0.0595 c -0.1545,-0.0341 -0.2472,-0.0616 -0.2663,-0.079 -0.04,-0.0361 -0.1456,-0.20735 -0.1902,-0.30816 -0.039,-0.0884 -0.086,-0.26309 -0.098,-0.36197 l -0.01,-0.0614 0.049,0.0582 c 0.059,0.0683 0.1136,0.1 0.1742,0.1 0.2033,0 0.3264,-0.27233 0.2208,-0.48819 -0.046,-0.0949 -0.1027,-0.13752 -0.1934,-0.14623 -0.051,-0.005 -0.083,6.9e-4 -0.1257,0.0233 -0.031,0.0164 -0.057,0.0269 -0.057,0.0234 0,-0.003 0.016,-0.0417 0.034,-0.0848 0.023,-0.0508 0.029,-0.0783 0.018,-0.0782 -0.022,1.3e-4 -0.5879,0.19488 -0.7606,0.26189 -0.074,0.0287 -0.1843,0.0784 -0.2448,0.11056 l -0.1103,0.0584 -0.1236,-0.12471 c -0.1125,-0.11364 -0.1184,-0.12227 -0.066,-0.0972 0.031,0.0151 0.089,0.0388 0.128,0.0525 l 0.072,0.0251 0.1234,-0.0797 c 0.1108,-0.0715 0.1481,-0.10785 0.1105,-0.10785 -0.014,0 -0.1565,-0.18356 -0.1567,-0.20116 -2e-4,-0.005 0.022,-6e-4 0.05,0.011 0.027,0.0115 0.1175,0.0372 0.1998,0.057 l 0.1498,0.0361 0.094,-0.0455 c 0.1259,-0.0608 0.381,-0.14769 0.512,-0.17455 0.059,-0.012 0.1893,-0.0285 0.2908,-0.0367 0.8122,-0.0655 1.4672,0.28972 1.6574,0.89906 0.051,0.16206 0.065,0.28887 0.04,0.32938 -0.044,0.0696 -0.082,0.0327 -0.1612,-0.15731 -0.1393,-0.33474 -0.2977,-0.54407 -0.4744,-0.62689 -0.038,-0.0181 -0.075,-0.0284 -0.081,-0.0229 -0.01,0.005 -0.01,0.0389 0,0.074 0.021,0.10866 0.016,0.40244 -0.01,0.51429 -0.044,0.19631 -0.1879,0.41635 -0.3747,0.57408 -0.1613,0.13637 -0.152,0.13475 -0.4271,0.074 z m 4.4312,-1.33328 c -0.031,-0.008 -0.058,-0.0165 -0.061,-0.0195 0,-0.003 0.047,-0.0219 0.1124,-0.0417 0.064,-0.02 0.1883,-0.0754 0.274,-0.1232 0.5337,-0.29799 1.5565,-0.75549 1.9815,-0.88636 0.2021,-0.0623 0.2853,-0.075 0.5402,-0.0829 0.2389,-0.007 0.2349,-0.003 -0.063,0.0644 -0.4204,0.0952 -0.7251,0.22389 -1.4124,0.59589 -0.7818,0.42324 -0.9506,0.49517 -1.1802,0.50288 -0.074,0.003 -0.1596,-0.002 -0.1904,-0.009 z m -2.2534,-0.17798 c -0.1873,-0.0275 -0.4038,-0.0796 -0.7801,-0.18792 -0.8176,-0.23527 -1.1556,-0.31684 -1.5715,-0.37937 -0.3096,-0.0465 -1.1267,-0.0301 -1.5919,0.032 -0.089,0.0118 -0.1641,0.0184 -0.1677,0.0148 -0.01,-0.008 0.2601,-0.0955 0.4137,-0.1346 0.4036,-0.10252 0.9961,-0.15768 1.3954,-0.12991 0.4132,0.0287 0.6516,0.0822 1.035,0.23237 0.6408,0.2509 1.3075,0.4432 1.7162,0.495 l 0.1459,0.0184 -0.063,0.0182 c -0.062,0.0179 -0.4484,0.0332 -0.5312,0.0211 z m -7.1969,-5.35884 c -0.047,-0.0975 -0.1205,-0.33396 -0.1476,-0.47554 -0.09,-0.46998 -0.02,-0.96927 0.2082,-1.49043 0.2161,-0.49378 0.6438,-1.055 1.3208,-1.73369 0.9687,-0.97102 1.9602,-1.61717 2.9327,-1.91123 0.4661,-0.14098 1.0133,-0.20128 1.432,-0.1578 0.7893,0.0819 1.4792,0.25164 1.8317,0.45047 0.1906,0.10757 0.3365,0.25757 0.3571,0.3673 0.01,0.0262 0.013,0.0477 0.018,0.0477 0.01,0 0.029,-0.0198 0.051,-0.0439 0.096,-0.10149 0.3447,-0.24876 0.5238,-0.31041 0.2445,-0.084 0.5638,-0.1152 0.8216,-0.08 0.8118,0.11077 1.7495,0.53918 2.3975,1.09537 0.1694,0.14539 0.2736,0.24894 0.4831,0.48003 0.7207,0.79512 1.279,1.65361 1.5061,2.31567 0.1092,0.31836 0.1505,0.64408 0.1111,0.87722 l -0.018,0.10513 -0.034,-0.0729 c -0.1128,-0.23712 -0.5511,-0.41102 -1.2726,-0.50487 -0.3676,-0.0478 -0.6573,-0.0665 -1.1474,-0.0743 -0.5682,-0.009 -0.742,0.003 -0.9164,0.0603 -0.1558,0.0517 -0.2133,0.0982 -0.2696,0.21796 -0.063,0.13643 -0.091,0.13588 -0.1449,-0.003 -0.1044,-0.26825 -0.3063,-0.47453 -0.5467,-0.55812 -0.4575,-0.15909 -0.944,0.0178 -1.1431,0.41558 -0.031,0.0633 -0.062,0.14068 -0.067,0.17185 -0.01,0.0448 -0.017,0.0586 -0.044,0.0655 -0.028,0.007 -0.049,-0.004 -0.1085,-0.0569 -0.1019,-0.0917 -0.1752,-0.13992 -0.3107,-0.20477 -0.3224,-0.15411 -0.4851,-0.15574 -2.0225,-0.0203 -1.508,0.13288 -2.8334,0.28793 -3.3152,0.38782 -0.5363,0.11117 -1.2154,0.30113 -2.3748,0.66418 l -0.087,0.0272 z"
         id="path101" />
    </g>
  </g>
</svg>
