<?xml version="1.0" encoding="UTF-8" standalone="no"?>
<!-- Created with Inkscape (http://www.inkscape.org/) -->

<svg
   width="41.008999mm"
   height="41.008999mm"
   viewBox="0 0 41.008999 41.008999"
   version="1.1"
   id="svg1"
   inkscape:version="1.4.2 (f4327f4, 2025-05-13)"
   sodipodi:docname="320.svg"
   xmlns:inkscape="http://www.inkscape.org/namespaces/inkscape"
   xmlns:sodipodi="http://sodipodi.sourceforge.net/DTD/sodipodi-0.dtd"
   xmlns="http://www.w3.org/2000/svg"
   xmlns:svg="http://www.w3.org/2000/svg">
  <sodipodi:namedview
     id="namedview1"
     pagecolor="#ffffff"
     bordercolor="#000000"
     borderopacity="0.25"
     inkscape:showpageshadow="2"
     inkscape:pageopacity="0.0"
     inkscape:pagecheckerboard="0"
     inkscape:deskcolor="#d1d1d1"
     inkscape:document-units="mm"
     inkscape:zoom="1.4513545"
     inkscape:cx="86.470947"
     inkscape:cy="71.657199"
     inkscape:window-width="1050"
     inkscape:window-height="1081"
     inkscape:window-x="857"
     inkscape:window-y="0"
     inkscape:window-maximized="0"
     inkscape:current-layer="layer1" />
  <defs
     id="defs1" />
  <g
     inkscape:label="Layer 1"
     inkscape:groupmode="layer"
     id="layer1"
     transform="translate(333.37504,1257.5646)">
    <g
       id="g107"
       transform="translate(-1331.8383,-1032.5675)">
      <ellipse
         style="fill:none;stroke:#ff00ff;stroke-width:0.1;stroke-dasharray:none;stroke-opacity:1"
         id="path1138-9-4-0-0-1-2-8-1-8-1-17-4-3"
         cx="1018.9677"
         cy="-204.49263"
         rx="18.492125"
         ry="18.492126" />
      <circle
         style="fill:none;stroke:#ff0000;stroke-width:0.1;stroke-dasharray:none"
         id="path788-8-1-8-1-9-2-2-9-1-6-9-1-8"
         cx="1018.9677"
         cy="-204.49263"
         r="19.954653" />
      <circle
         style="fill:none;stroke:#0000ff;stroke-width:0.1;stroke-linecap:round;stroke-dasharray:none;stroke-opacity:1;paint-order:markers stroke fill"
         id="path13019-1-33-4-5-5-2-4-6-5"
         cx="1018.9677"
         cy="-219.50362"
         r="2" />
      <path
         style="fill:#000000;stroke-width:0.345324"
         d="m 1017.3961,-189.17391 c -0.1508,-0.0212 -0.603,-0.082 -1.005,-0.13525 -1.8437,-0.24412 -3.4109,-0.67465 -4.3167,-1.18587 -0.4525,-0.25537 -0.4905,-0.26338 -0.436,-0.0918 0.08,0.25288 0.029,0.2405 -0.5592,-0.13597 -0.3849,-0.2462 -0.4919,-0.36127 -0.4461,-0.47968 0.3741,-0.96804 0.6886,-2.32642 0.8252,-3.56326 l 0.063,-0.57511 0.3962,0.69527 c 1.2236,2.14719 3.4999,3.97298 5.8634,4.70297 1.9424,0.59997 4.4018,-0.25686 6.5307,-2.27525 0.9404,-0.89148 1.8377,-2.11009 2.1436,-2.91094 l 0.158,-0.41386 0.2507,1.27102 c 0.1379,0.69906 0.3763,1.64056 0.5299,2.0922 l 0.2794,0.82118 -0.3409,0.29233 c -0.1875,0.16077 -0.4973,0.3802 -0.6884,0.48761 l -0.3475,0.1953 0.062,-0.25921 0.062,-0.2592 -0.2184,0.1955 c -0.5523,0.49421 -1.9293,0.97656 -3.7757,1.32264 -0.7609,0.14261 -1.4747,0.19672 -2.8841,0.2187 -1.0302,0.0161 -1.9964,0.0119 -2.1472,-0.009 z m 0.5939,-1.00376 c -1.2656,-0.33285 -3.2085,-1.51493 -4.2385,-2.57872 l -0.4467,-0.46141 0.5837,0.003 c 0.4649,0.002 0.905,-0.10201 2.1597,-0.50979 2.5882,-0.84121 3.1785,-0.85823 4.9529,-0.14286 0.4799,0.19346 1.0779,0.3979 1.329,0.45429 0.5783,0.12985 1.8529,0.12812 2.3405,-0.003 0.2052,-0.0553 0.3895,-0.0841 0.4094,-0.0642 0.02,0.02 -0.1975,0.29469 -0.4833,0.6105 -1.0785,1.1918 -2.9899,2.38373 -4.3226,2.6955 -0.7357,0.17215 -1.6236,0.17117 -2.2841,-0.003 z m 2.1583,-0.29684 c 0.4304,-0.22172 0.9026,-0.70105 1.0339,-1.04964 0.053,-0.14146 0.097,-0.43686 0.097,-0.65646 0,-0.52227 -0.1287,-0.84532 -0.4852,-1.21862 -1.3365,-1.39886 -3.7514,-0.61438 -3.7514,1.21862 0,1.45691 1.7372,2.41121 3.1057,1.7061 z m -1.4027,-0.6081 c -0.5645,-0.24539 -0.8132,-0.95611 -0.5277,-1.50814 0.1984,-0.38371 0.4877,-0.54921 0.9598,-0.54921 0.4722,0 0.7615,0.1655 0.96,0.54921 0.3085,0.59665 0.065,1.25613 -0.5612,1.51762 -0.3691,0.15423 -0.4566,0.15322 -0.8309,-0.009 z m -9.8121,-0.1226 c -1.4271,-0.9331 -2.0359,-1.91885 -2.0415,-3.30525 0,-0.42714 0.033,-0.87941 0.077,-1.00505 l 0.08,-0.22841 -0.244,0.22552 c -0.1342,0.12403 -0.412,0.44321 -0.6172,0.70929 -0.2964,0.38415 -0.3991,0.46241 -0.4983,0.38003 -0.2859,-0.2373 -0.01,-1.50164 0.4637,-2.12228 0.1285,-0.16842 0.2336,-0.33117 0.2336,-0.36167 0,-0.0305 -0.3483,-0.0308 -0.7741,-6.4e-4 -0.6119,0.0432 -0.8607,0.0215 -1.1878,-0.10338 -0.2275,-0.0869 -0.4134,-0.18543 -0.4131,-0.21896 3e-4,-0.0335 0.2172,-0.0639 0.482,-0.0675 0.7611,-0.0103 1.4864,-0.44392 2.5789,-1.54168 1.0178,-1.02275 1.7947,-2.07306 2.7218,-3.67981 l 0.6211,-1.0763 -0.347,-0.0235 c -0.5891,-0.0398 -0.9408,-0.11799 -0.9408,-0.20912 0,-0.048 0.06,-0.0872 0.1339,-0.0872 0.2411,0 0.9862,-0.28718 1.3226,-0.50981 0.1813,-0.11996 0.4804,-0.42007 0.6647,-0.66691 l 0.335,-0.44882 -0.1926,-0.90036 c -0.2721,-1.27267 -0.273,-3.54821 -0.01,-4.78346 0.2341,-1.06573 0.6433,-2.2112 1.1301,-3.1633 0.3507,-0.68589 1.1548,-1.9349 1.544,-2.39805 l 0.1817,-0.21639 0.5121,0.30775 c 1.3203,0.79339 2.5397,2.65218 3.0492,4.64769 0.1536,0.60131 0.2164,1.01733 0.424,2.80954 0.038,0.32402 0.078,0.38864 0.2449,0.39031 0.3144,0.003 0.9512,0.32805 1.067,0.54433 0.084,0.15738 0.131,0.17485 0.2358,0.088 0.092,-0.0764 0.1307,-0.3109 0.1307,-0.79364 0,-1.42936 0.4322,-3.48011 0.9951,-4.72159 0.5609,-1.23712 1.6395,-2.50968 2.5427,-3.00017 l 0.4639,-0.25197 0.4574,0.61744 c 1.3757,1.85738 2.1791,3.77679 2.4908,5.95115 0.139,0.96901 0.066,3.09927 -0.1387,4.06272 l -0.1523,0.71658 0.734,1.48049 c 1.8254,3.68144 3.9193,6.20356 5.6356,6.78838 0.2423,0.0826 0.5495,0.11997 0.7363,0.0897 0.2675,-0.0434 0.303,-0.0308 0.2145,0.0758 -0.208,0.25052 -0.7363,0.34691 -1.5751,0.28738 l -0.8111,-0.0575 0.2783,0.38769 c 0.526,0.73265 0.8109,1.91862 0.5191,2.16075 -0.1019,0.0846 -0.2455,-0.0386 -0.7335,-0.62839 -0.3338,-0.40344 -0.6215,-0.73353 -0.6393,-0.73353 -0.018,0 0.028,0.17474 0.1036,0.38831 0.3524,1.00675 -0.1037,2.50756 -1.0396,3.42129 -0.4886,0.47709 -1.5735,1.25713 -1.6467,1.18398 -0.018,-0.0179 0.1137,-0.27499 0.2922,-0.57146 0.3215,-0.53383 0.636,-1.39363 0.5437,-1.48599 -0.041,-0.0411 -0.3413,0.28154 -0.7481,0.804 -0.092,0.11831 -0.1117,0.0697 -0.1141,-0.28195 -0.01,-1.11584 -0.625,-3.75072 -1.0706,-4.56941 -0.1613,-0.29635 -0.2208,-0.52016 -0.1914,-0.72008 0.023,-0.15954 0.01,-0.68646 -0.033,-1.17093 -0.2759,-3.21233 -2.1443,-5.63022 -5.1376,-6.64854 -0.8956,-0.30469 -2.5767,-0.52036 -3.4802,-0.44648 -3.9929,0.32649 -6.9602,3.19446 -7.3423,7.09654 -0.046,0.46948 -0.065,1.00194 -0.042,1.18323 0.029,0.21997 -0.019,0.45061 -0.1432,0.69318 -0.4183,0.82001 -0.8337,3.05246 -0.8381,4.50489 l -0.01,0.86799 -0.3882,-0.41116 c -0.2135,-0.22613 -0.5042,-0.55505 -0.646,-0.73093 l -0.2578,-0.31979 0.049,0.34585 c 0.053,0.37065 0.3784,1.1122 0.7013,1.5957 0.1091,0.16332 0.1791,0.29695 0.1554,0.29695 -0.023,0 -0.3463,-0.19836 -0.717,-0.44079 z m 5.1653,-16.78348 c 0.2503,-0.12476 0.5601,-0.22843 0.6884,-0.2304 0.2141,-0.003 0.2069,-0.015 -0.086,-0.14209 -0.3762,-0.16293 -0.7883,-0.53471 -0.9627,-0.86836 l -0.1241,-0.23742 0.3379,0.16702 c 0.462,0.22844 1.1838,0.35349 2.0405,0.35349 0.7145,0 0.7185,-0.001 0.7185,-0.23978 0,-0.47665 -0.4647,-2.51964 -0.8174,-3.59366 -0.3593,-1.09444 -0.8994,-2.3385 -1.3461,-3.10089 l -0.2353,-0.40159 -0.3143,0.49296 c -0.4212,0.66079 -1.0619,1.98666 -1.3521,2.79806 -0.5869,1.64104 -0.8194,3.80101 -0.5985,5.56097 0.062,0.49783 0.135,0.94013 0.1612,0.98287 0.027,0.0428 0.3598,-0.2355 0.7414,-0.61832 0.3816,-0.38283 0.8986,-0.79812 1.149,-0.92286 z m 12.0224,0.14326 c 0.2472,-2.622 -0.4344,-5.42242 -1.8873,-7.75357 l -0.4177,-0.67014 -0.1871,0.30361 c -0.8862,1.43839 -1.9375,4.50665 -2.1314,6.22047 l -0.062,0.55271 0.2972,-0.0594 c 0.1634,-0.0327 0.5275,-0.0324 0.8088,6.5e-4 l 0.5117,0.0601 -0.4985,0.16536 c -0.2742,0.091 -0.5088,0.16653 -0.5214,0.16794 -0.012,0.001 -0.023,0.0382 -0.023,0.0817 0,0.0435 0.2897,0.0998 0.6436,0.12515 0.9123,0.0653 1.8282,0.53088 2.6326,1.33835 0.3338,0.33511 0.6361,0.58731 0.6717,0.56045 0.036,-0.0268 0.1091,-0.51889 0.1632,-1.09339 z m -13.2477,13.54921 c -0.5429,-0.18811 -0.5698,-0.21459 -0.8957,-0.87797 -0.8359,-1.70156 -0.8829,-3.89599 -0.1228,-5.7299 0.229,-0.55244 0.2812,-0.61019 0.7853,-0.86798 0.4614,-0.23596 0.6407,-0.27601 1.2317,-0.27506 1.2427,0.002 1.4825,0.26883 2.2978,2.55717 0.5776,1.62133 0.8208,2.1218 1.2922,2.65865 0.7976,0.90843 2.079,0.97987 2.9838,0.16634 0.5396,-0.48513 0.7869,-1.01602 1.2945,-2.77931 0.5105,-1.77316 0.6939,-2.10119 1.3798,-2.46678 1.0013,-0.53367 1.9177,-0.45889 2.6513,0.21636 0.6153,0.56647 1.0417,2.33931 0.9665,4.0192 -0.082,1.82696 -0.479,2.5991 -1.6213,3.15076 -0.4618,0.22301 -0.5951,0.24266 -1.6446,0.24236 l -1.1421,-3.4e-4 -1.0606,-0.43173 c -1.4795,-0.60218 -2.1052,-0.69747 -3.2506,-0.495 -0.4932,0.0872 -1.4888,0.36234 -2.2126,0.61148 -1.4582,0.50195 -2.1497,0.57311 -2.9326,0.30175 z m 2.3298,-1.08098 c 0.3718,-0.22098 0.5418,-0.26662 0.9137,-0.24538 l 0.4568,0.0261 -0.2958,-0.23939 -0.2959,-0.23938 0.2029,-0.38254 c 0.2702,-0.50939 0.2891,-1.68222 0.035,-2.1642 -0.6197,-1.17479 -1.8663,-1.7147 -2.9779,-1.28978 -0.3822,0.14609 -0.515,0.1644 -0.5649,0.0779 -0.036,-0.0622 -0.1283,-0.19521 -0.2055,-0.29572 -0.1318,-0.17144 -0.1406,-0.15304 -0.1434,0.29773 -0.01,0.38254 -0.057,0.55515 -0.2682,0.84683 -0.8786,1.21278 -0.4263,3.01091 0.9299,3.69677 0.672,0.33983 1.5513,0.30448 2.2135,-0.089 z m -1.7816,-0.69778 c -0.5646,-0.22512 -0.9137,-0.77254 -0.9137,-1.43254 0,-0.80155 0.6621,-1.47993 1.4445,-1.47993 1.1814,0 1.8804,1.22564 1.2941,2.26887 -0.3445,0.61311 -1.1707,0.90446 -1.8249,0.6436 z m 11.5671,0.84213 c 0.495,-0.2248 1.02,-0.76066 1.2535,-1.27952 0.3782,-0.84032 0.2001,-2.04624 -0.3992,-2.70349 -0.1027,-0.11257 -0.1777,-0.35817 -0.1953,-0.63958 l -0.029,-0.45682 -0.1694,0.27957 -0.1692,0.27957 -0.516,-0.17481 c -1.2152,-0.41174 -2.5334,0.25536 -2.9987,1.51755 -0.1774,0.48126 -0.1426,1.42272 0.07,1.88984 l 0.1871,0.41115 -0.3033,0.26183 -0.3033,0.26182 0.5241,-0.0495 c 0.3153,-0.0297 0.5473,-0.012 0.5823,0.0445 0.032,0.0517 0.269,0.19218 0.5266,0.31216 0.5876,0.27361 1.3958,0.29267 1.9396,0.0457 z m -1.6081,-0.93909 c -0.4585,-0.23586 -0.8239,-0.81697 -0.8204,-1.30447 0.01,-0.42041 0.3056,-1.00046 0.6498,-1.24598 0.4157,-0.29645 1.311,-0.31288 1.6886,-0.031 0.4116,0.30734 0.6063,0.63876 0.6515,1.1094 0.1181,1.22924 -1.072,2.03675 -2.1695,1.47205 z m -4.9313,-1.41122 c -0.366,-0.30798 -0.6052,-0.79296 -1.143,-2.31796 -0.9483,-2.6894 -1.4871,-3.25896 -3.18,-3.36139 -0.7031,-0.0426 -0.7095,-0.0452 -0.5482,-0.22498 0.3233,-0.36032 1.1814,-0.96366 1.8471,-1.29873 2.6978,-1.35787 6.6614,-0.92353 8.8074,0.96515 l 0.3733,0.3286 -0.6077,0.0488 c -0.7291,0.0585 -1.6079,0.44081 -2.16,0.93967 -0.4919,0.44443 -0.8244,1.16137 -1.282,2.7652 -0.5604,1.96389 -0.8248,2.38994 -1.4857,2.39394 -0.2312,0.001 -0.4245,-0.0727 -0.6212,-0.23829 z"
         id="path100" />
    </g>
  </g>
</svg>
