<?xml version="1.0" encoding="UTF-8" standalone="no"?>
<!-- Created with Inkscape (http://www.inkscape.org/) -->

<svg
   width="41.008999mm"
   height="41.008999mm"
   viewBox="0 0 41.008999 41.008999"
   version="1.1"
   id="svg1"
   inkscape:version="1.4.2 (f4327f4, 2025-05-13)"
   sodipodi:docname="323.svg"
   xmlns:inkscape="http://www.inkscape.org/namespaces/inkscape"
   xmlns:sodipodi="http://sodipodi.sourceforge.net/DTD/sodipodi-0.dtd"
   xmlns="http://www.w3.org/2000/svg"
   xmlns:svg="http://www.w3.org/2000/svg">
  <sodipodi:namedview
     id="namedview1"
     pagecolor="#ffffff"
     bordercolor="#000000"
     borderopacity="0.25"
     inkscape:showpageshadow="2"
     inkscape:pageopacity="0.0"
     inkscape:pagecheckerboard="0"
     inkscape:deskcolor="#d1d1d1"
     inkscape:document-units="mm"
     inkscape:zoom="1.4513545"
     inkscape:cx="86.470947"
     inkscape:cy="71.657199"
     inkscape:window-width="1050"
     inkscape:window-height="1081"
     inkscape:window-x="857"
     inkscape:window-y="0"
     inkscape:window-maximized="0"
     inkscape:current-layer="layer1" />
  <defs
     id="defs1" />
  <g
     inkscape:label="Layer 1"
     inkscape:groupmode="layer"
     id="layer1"
     transform="translate(333.37504,1257.5646)">
    <g
       id="g110"
       transform="translate(-1458.622,-1032.7365)">
      <circle
         style="fill:none;stroke:#ff0000;stroke-width:0.1;stroke-dasharray:none"
         id="path788-8-1-8-1-9-2-2-9-1-6-9-9-3-4"
         cx="1145.7515"
         cy="-204.32362"
         r="19.954653" />
      <ellipse
         style="fill:none;stroke:#ff00ff;stroke-width:0.1;stroke-dasharray:none;stroke-opacity:1"
         id="path1138-9-4-0-0-1-2-8-1-8-1-17-3-3-0"
         cx="1145.7515"
         cy="-204.32362"
         rx="18.492125"
         ry="18.492126" />
      <path
         style="fill:#000000;stroke-width:0.0642909"
         d="m 1145.4123,-186.26225 c -1.0014,-0.76024 -1.7453,-1.64216 -2.2717,-2.69324 -0.1634,-0.32623 -0.3451,-0.79938 -0.4572,-1.1907 -0.068,-0.2374 -0.171,-0.61594 -0.2103,-0.77397 -0.022,-0.0889 -0.087,-0.34531 -0.1449,-0.56985 -0.058,-0.22453 -0.1072,-0.41972 -0.1106,-0.43375 -0.01,-0.0141 -0.1445,-0.57665 -0.3138,-1.25025 -0.1693,-0.67361 -0.3134,-1.25153 -0.3202,-1.28428 -0.01,-0.0327 -0.012,-0.14373 -0.011,-0.24664 0,-0.16881 0.01,-0.20034 0.055,-0.3223 0.03,-0.0743 0.05,-0.13881 0.045,-0.14325 -0.014,-0.0149 -0.2331,0.0332 -0.2951,0.0652 -0.2073,0.10694 -0.298,0.27452 -0.3158,0.58395 -0.024,0.40494 -0.051,0.64833 -0.084,0.73052 -0.024,0.0595 -0.025,0.98317 -0.01,2.10522 0.011,0.57363 0.01,0.62263 -0.054,0.58505 -0.032,-0.0202 -0.028,0.0533 -0.062,-1.07835 -0.013,-0.43744 -0.012,-0.43427 -0.1902,-0.48281 -0.1309,-0.0357 -0.4312,-0.0461 -0.62,-0.0214 -0.09,0.0117 -0.1153,0.01 -0.132,-0.0105 -0.03,-0.0362 0,-0.0542 0.1452,-0.0894 0.1482,-0.0357 0.5172,-0.0272 0.6675,0.0154 0.051,0.0145 0.099,0.0204 0.1067,0.013 0.01,-0.008 0.011,-0.24249 0.01,-0.52255 l -0.01,-0.5092 -0.153,-0.0111 c -0.3675,-0.0265 -0.4476,-0.0333 -0.5358,-0.045 l -0.094,-0.0124 0.01,-0.26961 c 0.01,-0.23259 0,-0.26828 -0.021,-0.25992 -0.022,0.009 -0.6218,0.48505 -0.799,0.63494 -0.1132,0.0959 -0.1396,0.0827 -0.2953,-0.14753 -0.047,-0.0702 -0.1309,-0.19034 -0.1852,-0.26703 -0.2363,-0.333 -0.4265,-0.60155 -0.5157,-0.72808 -0.053,-0.0748 -0.2098,-0.29683 -0.3487,-0.4933 -0.1391,-0.19647 -0.3038,-0.42993 -0.366,-0.5188 -0.062,-0.0889 -0.2242,-0.31852 -0.3599,-0.51031 -0.5285,-0.74687 -0.8422,-1.19091 -0.9854,-1.39484 -0.082,-0.11694 -0.2146,-0.30449 -0.2947,-0.41675 -0.1423,-0.19965 -0.4525,-0.63913 -0.7072,-1.00182 -0.07,-0.0999 -0.2047,-0.29047 -0.2991,-0.42343 -0.3282,-0.46295 -0.5463,-0.77167 -0.8317,-1.17731 -0.158,-0.22454 -0.3343,-0.47332 -0.3918,-0.55284 -0.058,-0.0795 -0.1137,-0.1613 -0.1246,-0.18174 -0.045,-0.0861 -0.028,-0.11948 0.3284,-0.61774 0.1907,-0.26664 0.4014,-0.56133 0.4681,-0.65489 0.4288,-0.60145 0.5435,-0.76274 0.7321,-1.02912 0.1158,-0.16372 0.3181,-0.4486 0.4496,-0.63305 0.1314,-0.18446 0.3174,-0.44663 0.4133,-0.58261 0.3805,-0.53959 0.5278,-0.74838 0.8049,-1.14025 0.1588,-0.22454 0.3402,-0.48073 0.4031,-0.56932 0.063,-0.0886 0.1357,-0.19192 0.1616,-0.22964 0.026,-0.0377 0.1042,-0.14894 0.1738,-0.24717 0.07,-0.0982 0.1829,-0.25898 0.2518,-0.35721 0.069,-0.0982 0.3457,-0.49245 0.6155,-0.87603 0.9614,-1.36723 0.9617,-1.36763 1.1999,-1.91041 0.077,-0.17486 0.1514,-0.34472 0.1658,-0.37747 0.1558,-0.35384 0.2218,-0.47026 0.3144,-0.55465 0.069,-0.0632 0.1339,-0.10183 0.2369,-0.14164 0.077,-0.0301 0.1659,-0.0653 0.1955,-0.0779 0.046,-0.0197 0.168,-0.15621 0.2612,-0.29123 0.014,-0.0199 0.095,-0.13182 0.181,-0.24848 0.1968,-0.26781 0.5955,-0.85648 0.6712,-0.9909 0.097,-0.17166 0.076,-0.34609 -0.065,-0.53077 -0.023,-0.0299 -0.039,-0.0682 -0.036,-0.085 0.01,-0.0278 0.032,-0.031 0.2985,-0.0352 l 0.2926,-0.005 0.09,-0.12747 c 0.049,-0.0701 0.1473,-0.20764 0.2175,-0.30562 0.07,-0.098 0.172,-0.24136 0.2264,-0.31864 0.055,-0.0773 0.2228,-0.31443 0.3743,-0.527 0.1514,-0.21257 0.3442,-0.48389 0.4283,-0.60292 0.2429,-0.34327 0.5901,-0.8319 0.7292,-1.0263 0.071,-0.0982 0.1767,-0.2475 0.2362,-0.3317 0.059,-0.0842 0.2225,-0.31384 0.3622,-0.51031 0.1397,-0.19647 0.2847,-0.40108 0.3222,-0.45471 0.2423,-0.34614 0.5801,-0.81688 0.6073,-0.84602 0.046,-0.0488 0.1497,-0.0469 0.1961,0.004 0.02,0.0211 0.1541,0.20667 0.2995,0.4125 0.2543,0.35989 0.3842,0.5429 0.6251,0.88083 0.118,0.16558 0.5368,0.75647 0.949,1.339 0.1358,0.19178 0.297,0.41926 0.3584,0.50549 0.061,0.0863 0.1691,0.23767 0.2393,0.33652 0.07,0.0989 0.1779,0.25027 0.2393,0.3365 0.061,0.0862 0.2175,0.30606 0.3468,0.48849 0.1292,0.18243 0.2381,0.33526 0.242,0.33961 0.01,0.005 0.02,-0.002 0.036,-0.0131 0.1333,-0.0969 0.2862,-0.11371 0.4211,-0.0463 0.2122,0.10616 0.4915,0.43265 0.8076,0.94453 0.2957,0.47857 0.5845,0.98754 0.7898,1.39199 0.131,0.25808 0.1857,0.32141 0.3164,0.36629 0.1759,0.0604 0.5526,0.23513 0.7772,0.36044 0.7922,0.44199 1.3505,0.98998 1.8533,1.81914 0.2171,0.3579 0.5079,0.93931 0.6702,1.33972 0.039,0.0958 0.1353,0.30796 0.2145,0.47145 0.1333,0.27544 0.1528,0.30604 0.2657,0.41676 0.1605,0.15744 0.2625,0.21109 0.5575,0.29347 0.022,0.007 0.1822,0.012 0.3553,0.0128 0.3508,0.002 0.3875,0.0103 0.4939,0.11602 0.1026,0.10199 0.1438,0.29038 0.1628,0.74595 0.01,0.25682 -0.011,0.67673 -0.045,0.85549 -0.01,0.0472 -0.02,0.10891 -0.025,0.13699 -0.043,0.25726 -0.1767,0.69145 -0.2964,0.96938 -0.024,0.056 -0.033,0.10225 -0.026,0.13608 0.01,0.0282 0.1344,0.2253 0.286,0.43805 0.2474,0.3468 0.5888,0.82825 0.895,1.26206 0.06,0.0848 0.1614,0.22783 0.2254,0.31781 0.083,0.11646 0.1166,0.1786 0.1166,0.21562 0,0.0393 -0.053,0.12616 -0.2152,0.3552 -0.1184,0.16676 -0.2735,0.38553 -0.3445,0.48616 -0.071,0.10062 -0.1751,0.24753 -0.2313,0.32647 -0.056,0.079 -0.1822,0.25686 -0.28,0.39539 -0.098,0.13853 -0.2322,0.32841 -0.2986,0.42197 -0.066,0.0935 -0.2155,0.30406 -0.3312,0.46778 -0.1157,0.16373 -0.2799,0.39535 -0.3647,0.51473 -0.085,0.11938 -0.2003,0.28238 -0.2564,0.36223 -0.056,0.0798 -0.1524,0.21564 -0.2139,0.30177 -0.061,0.0862 -0.1873,0.26374 -0.2796,0.39472 -0.093,0.13097 -0.218,0.3085 -0.2794,0.3945 -0.061,0.086 -0.2227,0.31365 -0.3583,0.50593 -0.1356,0.19228 -0.3462,0.48941 -0.4678,0.6603 -0.1216,0.17089 -0.2931,0.41397 -0.3812,0.54019 -0.088,0.12621 -0.2072,0.29454 -0.2648,0.37407 -0.09,0.12389 -0.2043,0.28551 -0.5911,0.8335 -0.037,0.0515 -0.1133,0.1603 -0.1713,0.24189 -0.058,0.0816 -0.1925,0.27128 -0.2989,0.42155 -0.1065,0.15027 -0.2069,0.28032 -0.2231,0.289 -0.037,0.0196 -0.059,0.004 -0.3647,-0.26353 -0.1286,-0.11227 -0.2446,-0.2066 -0.2578,-0.20963 -0.015,-0.004 -0.024,0.008 -0.024,0.0306 0,0.0554 -0.046,0.13273 -0.088,0.1458 -0.02,0.007 -0.1909,0.007 -0.379,-1.6e-4 -0.3188,-0.0111 -0.344,-0.01 -0.3693,0.0193 -0.02,0.022 -0.032,0.0931 -0.045,0.24377 -0.01,0.11695 -0.013,0.21775 -0.01,0.22401 0.01,0.007 0.08,-0.0122 0.1646,-0.0409 0.1408,-0.0481 0.1722,-0.0524 0.3912,-0.0539 0.211,-9.4e-4 0.2508,0.003 0.3487,0.0389 0.2052,0.0752 0.3572,0.1669 0.3572,0.2155 0,0.0366 -0.061,0.0299 -0.1415,-0.0158 -0.039,-0.0223 -0.1285,-0.0625 -0.1987,-0.0893 -0.1177,-0.0451 -0.1452,-0.0488 -0.3571,-0.0488 -0.1997,0 -0.2442,0.006 -0.3403,0.0405 -0.145,0.0531 -0.2381,0.10068 -0.2469,0.1261 -0.01,0.0267 -0.032,0.3115 -0.084,1.0326 -0.076,1.06021 -0.083,1.10567 -0.1622,1.10567 -0.032,0 -0.033,-0.0103 -0.024,-0.26792 0.013,-0.41106 0.1019,-1.84354 0.1195,-1.92296 0.032,-0.14703 0.047,-1.02254 0.022,-1.2523 -0.028,-0.24659 -0.3747,-0.74026 -0.5984,-0.85174 -0.093,-0.0462 -0.1676,-0.0525 -0.2951,-0.0251 -0.1333,0.0287 -0.1374,0.0354 -0.077,0.12973 0.1079,0.16929 0.1508,0.38786 0.1198,0.60966 -0.01,0.0468 -0.032,0.2611 -0.056,0.47628 -0.025,0.21519 -0.047,0.41803 -0.052,0.45078 -0.01,0.0327 -0.028,0.22411 -0.052,0.42525 -0.024,0.20114 -0.046,0.38103 -0.049,0.39974 -0.01,0.0187 -0.025,0.19094 -0.05,0.38273 -0.025,0.1918 -0.048,0.37167 -0.052,0.39974 -0.01,0.0281 -0.027,0.18362 -0.051,0.34566 -0.045,0.31954 -0.087,0.50187 -0.1568,0.70047 -0.061,0.17225 -0.186,0.43829 -0.2843,0.60387 -0.1017,0.17088 -0.4759,0.7098 -0.9409,1.35463 -0.1238,0.1718 -0.283,0.39274 -0.3536,0.49097 -0.3149,0.43826 -0.4801,0.66335 -0.5682,0.77396 -0.3704,0.46569 -0.6849,0.81377 -1.0719,1.18647 -0.1953,0.188 -0.2524,0.23389 -0.291,0.23389 -0.032,0 -0.088,-0.0301 -0.1639,-0.0879 z m 0.5515,-4.29645 c 0.8093,-0.75809 1.9703,-1.98142 2.2128,-2.33163 0.1173,-0.16939 0.1975,-0.33923 0.2303,-0.48781 0.041,-0.18652 0.1952,-1.70117 0.175,-1.72129 -0.01,-0.005 -0.126,0.0825 -0.2692,0.19408 -0.1433,0.11158 -0.3676,0.28332 -0.4986,0.38166 -0.6947,0.52159 -1.9259,1.33643 -2.1397,1.41617 -0.1192,0.0445 -0.1822,0.10316 -0.1822,0.16983 0,0.0532 0.077,0.19685 0.1193,0.2231 0.046,0.0282 0.069,-0.11102 0.034,-0.20301 -0.01,-0.0239 -0.013,-0.0531 -0.01,-0.0649 0.017,-0.0436 0.2242,-0.15774 0.3539,-0.19528 0.134,-0.0388 0.2934,-0.0523 0.2754,-0.0232 -0.01,0.008 -0.073,0.0577 -0.1505,0.10932 -0.1646,0.10951 -0.2648,0.21149 -0.3799,0.38674 -0.045,0.0695 -0.09,0.13137 -0.098,0.13752 -0.03,0.0216 -0.058,-0.007 -0.1725,-0.1696 -0.4607,-0.65888 -0.9902,-1.27183 -1.5356,-1.7777 -0.4034,-0.37422 -0.9502,-0.82167 -0.9879,-0.80848 -0.01,0.003 0.058,0.17819 0.1499,0.38869 0.2024,0.46376 0.2009,0.45927 0.1587,0.45927 -0.047,0 -0.079,-0.0411 -0.3359,-0.42525 -0.1279,-0.19179 -0.2446,-0.36211 -0.2592,-0.37848 -0.039,-0.0431 -0.087,-0.0374 -0.099,0.0116 -0.01,0.0228 -0.01,0.22752 -0.01,0.45502 0.01,0.49553 0.013,0.51488 0.2249,0.92394 0.077,0.1497 0.3231,0.62427 0.5458,1.05464 0.2227,0.43036 0.4207,0.80613 0.4403,0.83504 0.057,0.0842 1.8603,1.69098 1.8981,1.69098 0.02,0 0.1444,-0.10394 0.3013,-0.25091 z m -2.2507,-1.93347 c -0.078,-0.0554 -0.2601,-0.61371 -0.2881,-0.88597 -0.01,-0.10008 -0.022,-0.13038 -0.07,-0.18997 -0.059,-0.0726 -0.077,-0.15874 -0.034,-0.15874 0.057,0 0.1547,0.17568 0.1692,0.30344 0.01,0.056 0.032,0.13099 0.068,0.19562 0.039,0.0713 0.064,0.14716 0.078,0.23741 0.011,0.0729 0.043,0.20558 0.072,0.29475 0.027,0.0892 0.048,0.17707 0.045,0.19534 -0.01,0.0302 -0.01,0.031 -0.041,0.008 z m 4.1098,-0.19073 c 0,-0.0106 0.012,-0.0488 0.027,-0.085 0.021,-0.0498 0.027,-0.1116 0.025,-0.2532 -0.01,-0.10303 0.01,-0.20055 0.01,-0.21671 0.01,-0.0162 0.056,-0.0562 0.1094,-0.089 0.054,-0.0328 0.1077,-0.0711 0.1194,-0.0852 0.028,-0.0338 0.068,-0.0327 0.068,0.002 0,0.0151 -0.027,0.0648 -0.061,0.11043 -0.056,0.0756 -0.059,0.0853 -0.034,0.1098 0.039,0.0392 0.033,0.0878 -0.015,0.11939 -0.023,0.0152 -0.088,0.11301 -0.1441,0.21728 -0.056,0.10426 -0.1021,0.18094 -0.1023,0.17039 z m -4.4678,-1.12475 c -0.038,-0.0351 -0.097,-0.0893 -0.1309,-0.12045 -0.061,-0.0546 -0.081,-0.10493 -0.044,-0.10493 0.032,0 0.1152,0.0714 0.2124,0.18139 0.073,0.0825 0.088,0.10778 0.063,0.10778 -0.018,0 -0.062,-0.0287 -0.1003,-0.0638 z m 4.7567,-0.06 c 0,-0.0705 0.041,-0.32962 0.07,-0.44441 0.053,-0.2066 0.1506,-0.37374 0.2011,-0.34253 0.051,0.0314 0,0.37304 -0.084,0.54989 -0.079,0.17028 -0.1871,0.30671 -0.1871,0.23705 z m -4.6805,-0.12716 c -0.1432,-0.15073 -0.4746,-0.55403 -0.4692,-0.57071 0.016,-0.0495 0.062,-0.01 0.2792,0.24427 0.2674,0.31288 0.2927,0.34802 0.2679,0.37289 -0.011,0.0117 -0.037,-0.003 -0.078,-0.0465 z m 2.9511,0.0558 c 0.8599,-0.42418 1.6942,-0.96462 2.4012,-1.55553 0.4295,-0.3589 0.7541,-0.67229 0.9207,-0.88868 0.3104,-0.40341 0.6521,-1.16586 1.1423,-2.54885 0.3167,-0.89336 0.7485,-2.29475 0.7295,-2.36741 -0.013,-0.0476 -0.8119,-1.481 -0.8469,-1.51844 -0.03,-0.0327 -0.034,-0.0327 -0.304,0.005 -0.2976,0.0413 -0.4233,0.0791 -0.7811,0.23481 -0.2126,0.0925 -0.5173,0.24823 -0.6942,0.35484 l -0.093,0.0556 0.3203,0.008 c 0.3702,0.009 0.6179,0.0554 0.6179,0.1156 0,0.0234 -0.077,0.0193 -0.1955,-0.0102 -0.057,-0.014 -0.2016,-0.0299 -0.3233,-0.0354 -0.3674,-0.0165 -0.6043,0.0393 -0.9865,0.2328 -0.6089,0.30812 -0.8775,0.5503 -1.2948,1.16697 -0.081,0.12032 -0.1555,0.22642 -0.1649,0.23577 -0.018,0.0183 0.093,-0.19226 0.3081,-0.58685 0.074,-0.13566 0.1332,-0.24869 0.1313,-0.25119 -0.01,-0.003 -0.078,0.03 -0.1671,0.0723 -0.1787,0.0841 -0.2425,0.0937 -0.2953,0.0445 -0.173,-0.1611 -0.3353,-0.50854 -0.2595,-0.55536 0.01,-0.007 0.069,0.0144 0.131,0.0458 0.1466,0.0743 0.2109,0.0719 0.4812,-0.0184 0.2477,-0.0828 0.4821,-0.19211 0.7287,-0.3399 0.4222,-0.2531 0.9675,-0.52422 1.7026,-0.84654 0.4679,-0.20523 0.5334,-0.21542 0.8972,-0.13968 0.079,0.0164 0.1113,0.0172 0.1256,0.003 0.014,-0.0144 -0.027,-0.11856 -0.1642,-0.4074 -0.3755,-0.79465 -0.4611,-1.00809 -1.1991,-2.9907 -0.1307,-0.3511 -0.1538,-0.39794 -0.2276,-0.4611 -0.083,-0.0708 -0.1845,-0.10957 -0.5128,-0.19505 -0.7087,-0.18456 -1.4333,-0.21807 -2.1341,-0.0987 -0.2576,0.0439 -0.6061,0.13641 -0.8589,0.22814 -0.1124,0.0407 -0.2107,0.0675 -0.2186,0.0597 -0.025,-0.0252 0.3312,-0.28799 0.7193,-0.53 0.138,-0.0861 0.2171,-0.14478 0.1996,-0.14815 -0.035,-0.007 -0.4968,0.0391 -0.7514,0.0749 -0.4955,0.0696 -1.0177,0.18265 -1.2929,0.27988 -0.4185,0.14794 -0.8327,0.40163 -1.1788,0.72203 -0.056,0.0517 -0.1061,0.0939 -0.1119,0.0939 -0.072,0 0.1614,-0.36183 0.487,-0.75465 0.045,-0.0549 0.078,-0.10389 0.074,-0.10894 -0.014,-0.0141 -0.2726,0.12541 -0.4348,0.23448 -0.1779,0.1196 -0.28,0.20001 -0.4837,0.38109 l -0.1582,0.1405 -0.2361,0.0112 c -0.2818,0.0135 -0.5296,0.0512 -0.6306,0.0958 -0.1076,0.0477 -0.092,0.0684 0.05,0.0687 0.1279,2.7e-4 0.2046,0.0248 0.2129,0.0684 0.01,0.017 -0.055,0.0548 -0.1784,0.11606 -0.3864,0.19144 -0.8928,0.5208 -0.9833,0.6395 -0.066,0.0869 -0.2505,0.53097 -0.3756,0.90519 -0.1264,0.37824 -0.2248,0.76981 -0.2998,1.19384 -0.049,0.27726 -0.053,0.33018 -0.054,0.69147 0,0.42349 0.015,0.55333 0.168,1.35223 0.1556,0.81519 0.4347,1.88169 0.6968,2.66218 0.3871,1.15338 0.9794,2.0502 1.8466,2.79657 0.566,0.48704 1.1974,0.94462 1.8712,1.35588 0.5327,0.32522 0.7806,0.46184 1.046,0.57652 0.1707,0.0737 0.4889,0.1765 0.5501,0.17771 0.022,3.1e-4 0.1711,-0.0641 0.3317,-0.14326 z m -0.2864,-1.26798 c -0.01,-0.009 -0.01,-0.033 0,-0.0522 0.013,-0.0423 -0.025,-0.0888 -0.096,-0.11863 -0.047,-0.0197 -0.054,-0.0174 -0.1143,0.041 -0.075,0.0726 -0.1162,0.0785 -0.1386,0.0195 -0.018,-0.0477 -0.059,-0.054 -0.1095,-0.0164 -0.075,0.0562 -0.2307,-9.4e-4 -0.2307,-0.0846 0,-0.0508 0.01,-0.0556 0.2421,-0.17797 0.1759,-0.0913 0.211,-0.10362 0.2963,-0.10362 0.1816,0 0.4992,0.19891 0.4992,0.31258 0,0.061 -0.065,0.11983 -0.1812,0.16321 -0.102,0.0382 -0.1515,0.0433 -0.1676,0.0173 z m 1.3028,-0.7426 c -0.092,-0.052 -0.1431,-0.0671 -0.3232,-0.0949 -0.1927,-0.0298 -0.2994,-0.0329 -1.0647,-0.0307 -0.9148,0.003 -1.0689,0.0118 -1.3182,0.0798 -0.089,0.0243 -0.1778,0.0477 -0.1974,0.0521 -0.079,0.0179 -0.06,-0.10533 0.027,-0.16672 0.071,-0.0506 0.3912,-0.0696 1.3228,-0.0788 0.8031,-0.008 1.2147,0.003 1.506,0.0405 0.1428,0.0182 0.2506,0.12069 0.2269,0.2154 -0.015,0.0609 -0.047,0.0579 -0.1795,-0.0167 z m -4.3732,-0.28212 c -0.018,-0.0304 -0.05,-0.0592 -0.07,-0.0641 -0.065,-0.0158 -0.078,-0.0604 -0.032,-0.10941 0.07,-0.0742 0.093,-0.0598 0.086,0.0545 -0.01,0.0461 0.01,0.0553 0.033,0.0553 0.05,0 0.1022,0.0302 0.1022,0.0595 0,0.0214 -0.048,0.0595 -0.076,0.0595 -0.01,0 -0.025,-0.0249 -0.043,-0.0553 z m 2.7272,-0.99131 c -0.1106,-0.0872 -0.1681,-0.24618 -0.089,-0.24618 0.08,0 0.2195,0.16051 0.2195,0.2524 0,0.0511 -0.061,0.0482 -0.1306,-0.007 z m 0.526,0.0306 c -0.041,-0.0142 -0.021,-0.0737 0.048,-0.14874 0.076,-0.0824 0.1755,-0.1281 0.208,-0.0956 0.057,0.0569 -0.171,0.27424 -0.2562,0.24431 z m -0.6977,-0.60425 c -0.017,-0.0206 -0.024,-0.0989 -0.048,-0.46515 -0.01,-0.14622 -0.01,-0.17322 0.015,-0.18185 0.045,-0.0174 0.064,0.0302 0.074,0.18607 0.012,0.21011 0.016,0.22472 0.071,0.23763 0.1126,0.0269 0.1165,0.0789 0.013,0.17436 -0.082,0.0757 -0.098,0.0817 -0.124,0.0489 z m 3.296,-0.83091 c -0.2671,-0.0268 -0.4755,-0.0617 -0.5021,-0.0837 -0.014,-0.0115 -0.025,-0.0309 -0.025,-0.0432 0,-0.018 0.098,-0.0217 0.5061,-0.0192 0.601,0.004 0.5823,0.008 0.9964,-0.19124 0.1573,-0.0755 0.3044,-0.13728 0.3268,-0.13728 0.023,0 0.048,0.0145 0.059,0.0339 0.043,0.0811 -0.2322,0.27779 -0.4547,0.32431 -0.054,0.0112 -0.1667,0.0434 -0.2506,0.0713 -0.1753,0.0584 -0.3819,0.0726 -0.6555,0.0451 z m -6.1749,-0.13481 c -0.2065,-0.0193 -0.4196,-0.0927 -0.6035,-0.20787 -0.1151,-0.0722 -0.4849,-0.36809 -0.4849,-0.38809 0,-0.0232 0.06,-0.0196 0.1253,0.008 0.031,0.0129 0.1026,0.0577 0.1595,0.0995 0.2497,0.18381 0.5551,0.30138 0.8745,0.33663 0.1842,0.0203 0.2531,0.0166 0.5337,-0.0292 0.1629,-0.0265 0.2632,-0.0224 0.2632,0.011 0,0.0248 -0.2523,0.11509 -0.3999,0.14306 -0.1806,0.0342 -0.3131,0.042 -0.4679,0.0276 z m -0.911,-0.21943 c -0.1887,-0.12519 -0.3815,-0.28528 -0.3815,-0.31676 0,-0.0349 0.039,-0.0167 0.2212,0.10382 0.1641,0.10842 0.3571,0.26955 0.3571,0.29804 0,0.0337 -0.051,0.0116 -0.1968,-0.0851 z m 7.069,-0.19534 c -0.1357,-0.0305 -0.2086,-0.0659 -0.399,-0.19375 -0.3107,-0.20856 -0.428,-0.368 -0.4791,-0.65109 -0.055,-0.30564 0.03,-0.5986 0.2473,-0.85306 0.2696,-0.31523 0.5573,-0.42535 0.9001,-0.34453 0.5343,0.12597 0.8721,0.55717 0.8054,1.02835 -0.042,0.29459 -0.1832,0.62249 -0.3395,0.78634 -0.1106,0.11591 -0.2474,0.18946 -0.4205,0.22597 -0.1408,0.0297 -0.1896,0.0299 -0.3147,0.002 z m 0.3717,-0.1549 c 0.2929,-0.0926 0.4564,-0.27976 0.4894,-0.56047 0.016,-0.13634 -0.016,-0.14001 -0.1506,-0.0171 -0.124,0.11341 -0.2907,0.22447 -0.4157,0.27694 -0.1915,0.0805 -0.3629,0.0977 -0.3629,0.0367 0,-0.0329 -0.1402,-0.11668 -0.2262,-0.13503 -0.049,-0.0104 -0.119,-0.0392 -0.1565,-0.0641 -0.047,-0.0315 -0.092,-0.0454 -0.1446,-0.0461 -0.068,-9.5e-4 -0.077,0.004 -0.082,0.0389 -0.01,0.0529 0.035,0.0967 0.2523,0.25655 0.3473,0.25614 0.3949,0.27872 0.558,0.26454 0.06,-0.005 0.1664,-0.0281 0.2389,-0.0509 z m -0.018,-0.66014 c 0.033,-0.0327 0.045,-0.0658 0.051,-0.13505 0.01,-0.1078 -0.023,-0.18297 -0.1281,-0.30142 l -0.067,-0.0761 -0.065,0.0337 c -0.1041,0.0535 -0.2241,0.18154 -0.2376,0.25357 -0.015,0.08 0.031,0.20498 0.09,0.24346 0.097,0.0639 0.2857,0.0543 0.3581,-0.018 z m -6.426,0.65289 c -0.2865,-0.0845 -0.507,-0.20603 -0.5986,-0.32996 -0.073,-0.0978 -0.1755,-0.32087 -0.2098,-0.45355 -0.039,-0.15046 -0.028,-0.41189 0.023,-0.55167 0.1123,-0.30881 0.3434,-0.5375 0.6376,-0.63091 0.3324,-0.10555 0.6906,-0.0125 0.9474,0.24625 0.1815,0.18275 0.2723,0.40973 0.2723,0.68118 0,0.30341 -0.097,0.52192 -0.3399,0.76733 -0.2638,0.26623 -0.4788,0.34594 -0.7318,0.27133 z m 0.3941,-0.15819 c 0.2544,-0.12951 0.4914,-0.41357 0.5194,-0.62283 0.011,-0.0815 -0.01,-0.0888 -0.078,-0.0348 -0.03,0.022 -0.077,0.0367 -0.1226,0.0383 -0.074,0.003 -0.075,0.003 -0.084,0.0746 -0.011,0.087 -0.067,0.15124 -0.1506,0.17446 -0.034,0.009 -0.1395,0.0169 -0.2354,0.017 l -0.1746,6e-5 -0.2207,-0.11057 c -0.1214,-0.0608 -0.2304,-0.11042 -0.2421,-0.11026 -0.012,1.8e-4 -0.04,0.0197 -0.062,0.0435 -0.023,0.0237 -0.062,0.0544 -0.089,0.0682 -0.1038,0.0537 -0.044,0.15872 0.1773,0.31067 0.1597,0.10972 0.4405,0.21967 0.5683,0.22254 0.032,6e-4 0.1121,-0.0283 0.1955,-0.0708 z m -0.073,-0.55653 c 0.08,-0.0411 0.1546,-0.12649 0.1546,-0.1785 0,-0.0539 -0.2306,-0.34957 -0.2726,-0.34957 -0.051,0 -0.1637,0.11924 -0.1847,0.19563 -0.026,0.095 -0.024,0.14208 0.014,0.22503 0.035,0.0766 0.1185,0.14052 0.1842,0.14062 0.022,4e-5 0.068,-0.0149 0.1041,-0.0332 z m 4.5121,0.44577 c -0.01,-0.0163 -0.02,-0.0816 -0.025,-0.14503 -0.01,-0.0634 -0.026,-0.14951 -0.044,-0.19136 -0.028,-0.0653 -0.041,-0.0761 -0.084,-0.0761 -0.028,0 -0.054,-0.01 -0.059,-0.0215 -0.019,-0.0485 0.043,-0.40351 0.099,-0.57076 0.032,-0.0968 0.059,-0.17941 0.059,-0.18364 0,-0.0168 -0.077,0.035 -0.1446,0.0975 -0.1331,0.12271 -0.1447,0.0814 -0.031,-0.11284 0.3633,-0.62303 0.9243,-1.00766 1.5769,-1.08109 0.5817,-0.0655 1.1549,0.1602 1.5955,0.62823 0.2413,0.25643 0.5247,0.67688 0.5247,0.77858 0,0.0775 -0.025,0.0843 -0.07,0.0193 -0.049,-0.0706 -0.085,-0.0985 -0.1167,-0.0932 -0.021,0.004 -0.025,0.0401 -0.025,0.20808 0,0.16827 -0.01,0.21499 -0.033,0.26764 -0.018,0.0351 -0.039,0.0638 -0.047,0.0638 -0.01,0 -0.014,-0.10577 -0.014,-0.23503 0,-0.27821 -0.02,-0.40121 -0.086,-0.53167 -0.1222,-0.24231 -0.489,-0.4883 -0.8726,-0.58544 -0.2451,-0.0621 -0.4466,-0.0823 -0.7087,-0.071 -0.4696,0.0199 -0.7825,0.14766 -1.0859,0.44279 -0.1485,0.14452 -0.2556,0.2889 -0.326,0.43925 -0.052,0.11239 -0.136,0.41001 -0.136,0.48507 0,0.0229 0.027,0.13668 0.06,0.25289 0.033,0.11622 0.06,0.21898 0.06,0.22838 0,0.0285 -0.049,0.0191 -0.065,-0.0127 z m -3.3453,-0.2082 c -0.01,-0.009 -0.01,-0.0806 0,-0.15839 0.014,-0.18206 -0.013,-0.3519 -0.089,-0.54426 -0.2347,-0.5942 -0.6189,-0.93206 -1.2077,-1.06215 -0.1894,-0.0419 -0.6572,-0.0413 -0.8563,9.4e-4 -0.1912,0.0406 -0.4831,0.13858 -0.5772,0.1937 -0.1795,0.10504 -0.2978,0.26832 -0.3499,0.48288 -0.037,0.15352 -0.051,0.51853 -0.026,0.70158 0.021,0.1562 0.01,0.20698 -0.042,0.18735 -0.052,-0.0199 -0.086,-0.25392 -0.1043,-0.70822 l -0.011,-0.28282 -0.1176,0.10152 c -0.065,0.0558 -0.125,0.0969 -0.1342,0.0914 -0.044,-0.0277 0.2119,-0.40296 0.4033,-0.58985 0.2481,-0.2422 0.5978,-0.45442 0.9274,-0.56271 0.5434,-0.17857 1.0911,-0.0975 1.5968,0.23638 0.2748,0.18146 0.9408,0.77541 0.9066,0.80846 -0.025,0.024 -0.1049,-0.006 -0.1724,-0.0629 -0.037,-0.0317 -0.073,-0.0577 -0.079,-0.0577 -0.015,0 -0.01,0.11242 0.032,0.27595 0.015,0.0723 0.032,0.20274 0.039,0.28999 0.01,0.14235 0.01,0.17493 -0.035,0.31744 -0.032,0.11005 -0.044,0.18003 -0.037,0.22788 0.013,0.0932 -0.03,0.1689 -0.065,0.11364 z m 0.5074,-1.28019 c -0.1383,-0.17074 -0.2823,-0.34422 -0.3199,-0.38552 -0.1159,-0.12699 -0.3109,-0.27084 -0.4742,-0.34964 -0.186,-0.0897 -0.6396,-0.2228 -0.8531,-0.25018 -0.1521,-0.0195 -0.2037,-0.0381 -0.1859,-0.067 0.015,-0.0237 0.248,-0.0177 0.3784,0.01 0.065,0.0137 0.1896,0.0479 0.2771,0.0761 0.1072,0.0345 0.1648,0.0455 0.1764,0.034 0.011,-0.0116 0.011,-0.0212 0,-0.0293 -0.01,-0.007 -0.1206,-0.0855 -0.2466,-0.17525 -0.7105,-0.50644 -1.3016,-0.85652 -1.5643,-0.92647 -0.2646,-0.0705 -0.7508,-0.006 -1.1402,0.153 -0.056,0.0227 -0.1015,0.0349 -0.1015,0.0271 0,-0.0421 0.4954,-0.31694 0.7713,-0.42778 l 0.1845,-0.0741 0.1898,0.0653 c 0.2574,0.0885 0.5744,0.24267 0.9211,0.44784 0.6384,0.37775 1.5031,0.85947 2.0381,1.13562 0.2307,0.11904 0.2922,0.14407 0.3304,0.13463 0.072,-0.0178 0.1207,-0.0554 0.1771,-0.13728 0.054,-0.0783 0.088,-0.0871 0.096,-0.0253 0.013,0.0849 -0.1456,0.50984 -0.2112,0.56755 -0.07,0.0617 -0.1111,0.0557 -0.3047,-0.0444 -0.101,-0.0522 -0.186,-0.0927 -0.1889,-0.0897 -0.01,0.003 0.071,0.14016 0.1643,0.30507 0.093,0.1649 0.1694,0.30808 0.1694,0.31815 0,0.0476 -0.05,-0.004 -0.2834,-0.29211 z m -4.0476,-0.54755 c -0.01,-0.0154 -0.01,-0.0313 -0.01,-0.0351 0.023,-0.0232 1.2429,-0.51808 1.2564,-0.50977 0.01,0.006 0.016,0.0196 0.016,0.0313 0,0.0157 -0.9748,0.43669 -1.229,0.53068 -0.019,0.007 -0.034,9.4e-4 -0.041,-0.017 z m 9.7658,-0.0424 c -0.1322,-0.0393 -0.341,-0.12689 -0.4167,-0.17486 -0.056,-0.0355 -0.058,-0.0381 -0.02,-0.0439 0.09,-0.0141 0.5815,0.17926 0.5815,0.2286 0,0.0289 -0.018,0.0277 -0.1446,-0.01 z m -8.2712,-0.45439 c -0.021,-0.005 -0.039,-0.0147 -0.039,-0.0225 0,-0.022 0.2016,-0.0517 0.3501,-0.0513 0.1357,2.6e-4 0.2104,0.0222 0.2249,0.0661 0.01,0.0193 -0.01,0.0212 -0.058,0.01 -0.079,-0.0167 -0.1992,-0.0182 -0.3382,-0.005 -0.057,0.006 -0.1193,0.007 -0.1404,0.002 z m 5.371,-1.02744 c 0,-0.01 0.013,-0.0423 0.028,-0.0723 0.062,-0.12102 0.1096,-0.16234 0.2834,-0.24702 0.095,-0.0465 0.2192,-0.12166 0.2753,-0.16715 0.1477,-0.11962 0.1864,-0.14146 0.2721,-0.1532 0.043,-0.006 0.077,-0.007 0.077,-0.003 0,0.005 -0.067,0.0487 -0.1489,0.0983 -0.2179,0.13202 -0.3987,0.25966 -0.5942,0.41972 -0.095,0.078 -0.1776,0.1418 -0.1828,0.1418 -0.01,0 -0.01,-0.008 -0.01,-0.0179 z m -1.3918,-0.0709 c 0.01,-0.043 0.1147,-0.1236 0.1366,-0.10159 0.024,0.0235 -0.01,0.0681 -0.062,0.10492 -0.071,0.0435 -0.08,0.0431 -0.074,-0.003 z m -0.1731,-0.017 c 0,-0.036 0.1924,-0.28154 0.3667,-0.46818 0.1698,-0.18183 0.2287,-0.22954 0.2287,-0.18533 0,0.0362 -0.2152,0.30808 -0.3849,0.48629 -0.1536,0.16148 -0.2105,0.2067 -0.2105,0.16722 z m 2.2452,-0.10303 c 0,-0.0119 0.063,-0.0838 0.1405,-0.1597 0.1127,-0.11094 0.1535,-0.14041 0.2078,-0.14994 0.037,-0.007 0.1001,-0.031 0.1398,-0.0542 0.078,-0.0458 0.1144,-0.0433 0.195,0.0135 0.065,0.0462 0.1125,0.0394 0.1857,-0.0268 0.085,-0.0768 0.1556,-0.0886 0.3071,-0.0515 0.1372,0.0336 0.2884,0.0363 0.4099,0.007 0.045,-0.0109 0.109,-0.0147 0.1416,-0.009 0.151,0.0283 0.2926,0.2648 0.2293,0.38303 -0.01,0.0171 -0.041,0.0396 -0.071,0.0499 -0.058,0.0201 -0.1679,0.0256 -0.1679,0.008 0,-0.006 0.023,-0.039 0.051,-0.0741 0.097,-0.12218 0.097,-0.19732 0,-0.24689 -0.043,-0.0221 -0.088,-0.0249 -0.2518,-0.016 -0.1881,0.0103 -0.2065,0.008 -0.3166,-0.0335 -0.064,-0.0244 -0.1372,-0.0445 -0.162,-0.0445 -0.049,0 -0.1158,0.0391 -0.1516,0.0885 -0.026,0.0367 -0.109,0.0815 -0.1497,0.0815 -0.016,0 -0.055,-0.0196 -0.086,-0.0436 -0.057,-0.0432 -0.058,-0.0434 -0.1477,-0.0173 -0.065,0.019 -0.1418,0.0666 -0.2747,0.17121 -0.179,0.14083 -0.2295,0.16798 -0.2295,0.12327 z m -0.8844,-0.15895 c 0,-0.006 0.044,-0.0613 0.1,-0.12333 0.1142,-0.12916 0.1532,-0.19698 0.1595,-0.27736 0.01,-0.0483 0,-0.0574 -0.036,-0.0623 -0.023,-0.003 -0.091,0.0209 -0.1573,0.0555 -0.093,0.049 -0.1169,0.0558 -0.1169,0.0338 0,-0.0405 0.093,-0.12005 0.1546,-0.1324 0.1348,-0.027 0.2196,-0.002 0.2196,0.0649 0,0.0556 -0.113,0.31516 -0.1585,0.364 -0.056,0.0596 -0.1647,0.11076 -0.1647,0.0772 z m 0.4933,-0.0906 c 0,-0.0662 -0.01,-0.0894 -0.036,-0.1092 -0.037,-0.0254 -0.031,-0.0619 0.01,-0.0619 0.059,0 0.1008,0.10591 0.076,0.19602 -0.024,0.0855 -0.049,0.0726 -0.049,-0.0249 z m -0.8946,-0.12628 c -0.01,-0.0178 0.018,-0.0541 0.073,-0.10808 0.116,-0.11341 0.1847,-0.21942 0.2619,-0.40417 0.073,-0.17314 0.08,-0.23027 0.04,-0.27126 -0.039,-0.0387 -0.057,-0.0344 -0.175,0.0424 -0.058,0.0381 -0.1373,0.0801 -0.1754,0.0935 -0.038,0.0134 -0.1007,0.056 -0.1393,0.0948 -0.086,0.0862 -0.2298,0.18484 -0.2691,0.18484 -0.049,0 -0.054,-0.0343 -0.011,-0.0795 0.022,-0.0236 0.1,-0.0882 0.1733,-0.14362 0.1411,-0.10653 0.1525,-0.11954 0.45,-0.51241 0.1193,-0.15763 0.1862,-0.26029 0.1799,-0.27643 -0.01,-0.0141 -0.043,-0.0405 -0.085,-0.0588 -0.042,-0.0184 -0.075,-0.0447 -0.075,-0.0592 0,-0.0144 0.037,-0.0449 0.082,-0.0676 0.1089,-0.0552 0.2025,-0.16053 0.2159,-0.24299 0.016,-0.10096 0.039,-0.14445 0.073,-0.13817 0.05,0.009 0.049,0.1114 -0.01,0.16471 -0.065,0.0684 -0.1265,0.21678 -0.1394,0.33782 -0.01,0.0962 -0.023,0.12426 -0.1054,0.23963 -0.051,0.0719 -0.1308,0.17129 -0.1761,0.22091 -0.076,0.0828 -0.1353,0.21203 -0.1099,0.23755 0.01,0.006 0.043,-0.0135 0.082,-0.0419 0.1575,-0.11235 0.2512,-0.13615 0.2853,-0.0725 0.026,0.0491 -0.028,0.25562 -0.1192,0.44999 -0.039,0.0842 -0.082,0.18873 -0.096,0.23229 -0.022,0.073 -0.1184,0.18445 -0.1591,0.18445 -0.01,0 -0.026,0.005 -0.042,0.0103 -0.016,0.006 -0.031,-6e-4 -0.037,-0.0165 z m 0.1121,-1.77973 c -0.041,-0.0255 -0.01,-0.0675 0.094,-0.10343 0.1691,-0.0632 0.2744,-0.14651 0.3667,-0.29014 0.038,-0.0586 0.084,-0.0984 0.182,-0.15518 0.144,-0.0838 0.3848,-0.25847 0.4358,-0.31623 0.036,-0.041 0.078,-0.0486 0.078,-0.0141 0,0.0316 -0.054,0.0766 -0.2211,0.18476 -0.2189,0.14151 -0.3109,0.22102 -0.4135,0.3575 -0.1076,0.14304 -0.1966,0.21966 -0.3326,0.28627 -0.1247,0.0611 -0.1586,0.0702 -0.1895,0.0505 z m 0.7825,-0.9322 c 0,-0.008 0.058,-0.027 0.1286,-0.0434 0.2386,-0.0555 0.4477,-0.16296 0.6527,-0.33538 0.092,-0.077 0.1161,-0.0918 0.089,-0.0538 -0.1084,0.15216 -0.4073,0.37181 -0.5745,0.42213 -0.086,0.0257 -0.2959,0.0333 -0.2959,0.0106 z m 3.4583,12.57803 c 0.022,-0.0565 0.03,-0.34174 0.014,-0.51115 l -0.016,-0.18553 -0.1752,-0.17594 c -0.096,-0.0968 -0.1836,-0.17594 -0.1935,-0.17594 -0.01,0 -0.083,0.0716 -0.1635,0.15917 -0.1452,0.15901 -0.1454,0.15932 -0.1759,0.30472 -0.024,0.11213 -0.028,0.19409 -0.023,0.35688 0.01,0.11621 0.013,0.22022 0.02,0.23109 0.019,0.0309 0.7009,0.0277 0.7128,-0.003 z m -10.4773,-0.20676 c 0.059,-0.0588 0.067,-0.33857 0.014,-0.48744 -0.06,-0.1676 -0.2532,-0.40539 -0.3306,-0.40539 -0.05,0 -0.2063,0.17482 -0.278,0.31087 -0.033,0.0634 -0.071,0.16291 -0.083,0.22114 -0.025,0.11555 -0.019,0.31201 0.01,0.34666 0.012,0.0146 0.08,0.0235 0.2079,0.0272 0.1043,0.003 0.2446,0.007 0.3118,0.009 0.09,0.003 0.1288,-0.003 0.1478,-0.0221 z m 10.522,-0.5938 c 0.015,-0.0187 0.014,-0.0534 -0.01,-0.15238 -0.014,-0.0705 -0.026,-0.14055 -0.026,-0.15566 0,-0.0151 -0.011,-0.039 -0.026,-0.0531 -0.014,-0.0141 -0.022,-0.0328 -0.016,-0.0415 0.01,-0.009 -0.017,-0.11337 -0.05,-0.23253 -0.06,-0.21949 -0.1417,-0.67803 -0.1232,-0.69654 0.032,-0.0323 0.1457,0.33246 0.1464,0.4712 0,0.0813 0.053,0.20417 0.088,0.20424 0.025,6e-5 0.026,-0.034 0.02,-0.33588 -0.01,-0.19815 0.01,-0.45286 0.015,-0.62093 0.012,-0.15673 0.017,-0.30026 0.01,-0.31894 -0.013,-0.036 -0.088,-0.0479 -0.1071,-0.017 -0.01,0.009 0,0.0798 0.01,0.15662 0.019,0.12736 0.018,0.14126 -0.01,0.15744 -0.072,0.0432 -0.083,0.0584 -0.083,0.11048 0,0.0416 0.013,0.0654 0.054,0.0972 0.039,0.0302 0.054,0.0563 0.054,0.0919 0,0.0274 -0.01,0.0498 -0.013,0.0498 -0.024,0 -0.1888,-0.17869 -0.2064,-0.22539 -0.019,-0.05 -0.069,-0.0626 -0.1001,-0.0252 -0.03,0.0366 -0.1016,0.26832 -0.132,0.42923 -0.054,0.28951 -0.1292,0.57438 -0.1941,0.7411 -0.072,0.18332 -0.093,0.28423 -0.071,0.31947 0.011,0.0173 0.058,-0.0179 0.1871,-0.14222 0.108,-0.10362 0.1812,-0.16169 0.1966,-0.15581 0.013,0.005 0.096,0.0902 0.183,0.18899 0.087,0.0988 0.1635,0.17959 0.1693,0.17961 0.01,2e-5 0.02,-0.0108 0.03,-0.0241 z m -10.4709,-0.11617 c 0.019,-0.0715 0.011,-0.11563 -0.042,-0.21963 -0.068,-0.13416 -0.092,-0.25696 -0.1262,-0.65214 -0.029,-0.33143 -0.043,-0.37525 -0.1079,-0.36196 -0.033,0.007 -0.3882,1.01307 -0.403,1.14116 -0.011,0.0974 -0.01,0.0995 0.024,0.0812 0.02,-0.0104 0.064,-0.0547 0.1,-0.0986 0.1204,-0.14885 0.1501,-0.17379 0.1941,-0.16294 0.056,0.0139 0.2073,0.14465 0.2727,0.23572 0.061,0.0858 0.075,0.0911 0.089,0.0372 z m -0.585,-0.67165 c 0.03,-0.10918 0.1032,-0.33998 0.1626,-0.51288 0.06,-0.17291 0.1041,-0.32063 0.099,-0.32825 -0.025,-0.0415 -0.072,-0.004 -0.1384,0.11332 -0.04,0.0698 -0.073,0.13419 -0.073,0.14317 0,0.009 -0.021,0.0325 -0.045,0.0523 -0.06,0.0472 -0.087,0.19218 -0.1,0.53623 -0.01,0.22458 -0.01,0.25152 0.015,0.22483 0.013,-0.0166 0.049,-0.11966 0.079,-0.22884 z m 10.3383,0.21238 c 0.029,-0.0367 0.1743,-0.57159 0.1743,-0.6425 0,-0.09 -0.034,-0.0881 -0.08,0.005 l -0.036,0.0723 v -0.0731 c 0,-0.0779 0.031,-0.15704 0.09,-0.22166 0.036,-0.0391 0.036,-0.04 0.01,-0.0638 -0.043,-0.0306 -0.1107,-0.0301 -0.1518,9.4e-4 -0.039,0.0294 -0.042,0.0588 -0.051,0.55748 -0.01,0.31058 -0.01,0.38698 0.014,0.38698 0.012,0 0.03,-0.01 0.039,-0.0213 z m -9.662,-0.36186 0.01,-0.28957 -0.078,-0.064 c -0.082,-0.0675 -0.1162,-0.14217 -0.1009,-0.2225 0.014,-0.076 0.035,-0.066 0.063,0.0308 0.017,0.0592 0.043,0.10577 0.073,0.12902 0.025,0.02 0.047,0.03 0.05,0.0224 0.01,-0.008 0.012,-0.10583 0.022,-0.2181 0.01,-0.11227 0.027,-0.2529 0.039,-0.31249 0.018,-0.0995 0.017,-0.11028 -0.012,-0.13183 -0.018,-0.0128 -0.054,-0.0235 -0.08,-0.0235 -0.047,0 -0.047,9.5e-4 -0.047,0.10445 0,0.12593 -0.047,0.23379 -0.1367,0.30855 l -0.061,0.0506 0.089,0.47685 c 0.1182,0.63114 0.1558,0.66167 0.1716,0.13926 z m -0.6412,-0.53119 c 0.011,-0.035 0.037,-0.0906 0.057,-0.12332 0.027,-0.0453 0.037,-0.0879 0.037,-0.1786 0,-0.0772 0.01,-0.13761 0.028,-0.17183 0.022,-0.0398 0.023,-0.0575 0.01,-0.0723 -0.028,-0.0284 -0.1575,-0.0244 -0.1826,0.006 -0.014,0.0168 -0.024,0.12251 -0.03,0.31469 -0.01,0.28422 -0.01,0.28942 0.026,0.28942 0.026,0 0.041,-0.0172 0.056,-0.0638 z m 10.4388,-0.22819 c 0.01,-0.0125 0.023,-0.0736 0.028,-0.13571 0.011,-0.12552 0.01,-0.13364 -0.1008,-0.13364 -0.09,0 -0.1103,0.0339 -0.1101,0.18408 0,0.0719 0.01,0.14762 0.01,0.16841 l 0.01,0.0378 0.072,-0.0491 c 0.039,-0.027 0.08,-0.0593 0.09,-0.0719 z m 0.1022,-1.02085 c 0.04,-0.01 0.092,-0.0371 0.1147,-0.0607 0.066,-0.0658 0.056,-0.13794 -0.036,-0.24796 -0.077,-0.0914 -0.04,-0.26661 0.055,-0.26661 0.078,0 0.1545,0.0442 0.1735,0.0989 0.014,0.0406 0.011,0.0736 -0.014,0.15643 -0.053,0.16839 -0.041,0.20927 0.049,0.16313 0.1129,-0.0584 0.3605,-0.39539 0.3605,-0.4906 0,-0.0135 -0.098,-0.12344 -0.2175,-0.24415 -0.1195,-0.12073 -0.2583,-0.275 -0.3084,-0.34282 -0.05,-0.0678 -0.1019,-0.12333 -0.1152,-0.12333 -0.03,0 -0.028,-0.007 -0.2936,0.72985 -0.123,0.3406 -0.2193,0.6306 -0.214,0.64444 0.01,0.0211 0.039,0.0232 0.1923,0.0132 0.1003,-0.007 0.2148,-0.0199 0.2543,-0.0298 z m -9.9868,-0.31914 c -0.024,-0.15609 -0.075,-0.20823 -0.1315,-0.13549 -0.045,0.0595 -0.041,0.12528 0.013,0.16727 0.024,0.0195 0.064,0.0353 0.087,0.0353 0.04,0 0.041,-0.005 0.032,-0.0671 z m -0.2761,-0.0491 c 0.01,-0.008 -0.01,-0.0511 -0.016,-0.0963 -0.013,-0.0452 -0.025,-0.11462 -0.025,-0.15431 0,-0.0644 0.01,-0.076 0.059,-0.10738 0.1014,-0.0599 0.1067,-0.0963 0.038,-0.26885 -0.033,-0.0826 -0.1037,-0.28211 -0.1575,-0.44349 -0.054,-0.16139 -0.1027,-0.2933 -0.1085,-0.29315 -0.01,1.3e-4 -0.045,0.0747 -0.087,0.16575 -0.087,0.18859 -0.2335,0.39586 -0.3375,0.4782 -0.1017,0.0807 -0.096,0.12012 0.037,0.27599 0.1933,0.22525 0.3868,0.39294 0.4999,0.43334 0.077,0.0275 0.085,0.0283 0.096,0.0101 z m -0.9349,-1.17416 c 0.016,-0.0361 0.031,-0.0915 0.032,-0.12332 0.01,-0.0554 0,-0.0576 -0.055,-0.055 -0.1374,0.007 -0.1785,0.0907 -0.093,0.19152 0.058,0.0687 0.08,0.066 0.1164,-0.0132 z m -0.8802,-0.19064 c 0.073,-0.0277 0.1393,-0.0991 0.196,-0.21155 0.028,-0.0562 0.1074,-0.19774 0.176,-0.31469 0.1438,-0.2455 0.2149,-0.41382 0.2528,-0.5989 0.034,-0.16655 0.034,-0.43525 0,-0.64285 -0.032,-0.19326 -0.075,-0.61934 -0.075,-0.74419 0,-0.0516 0.01,-0.0893 0.018,-0.0893 0.024,0 0.047,0.0549 0.3298,0.75576 0.3056,0.75925 0.3334,0.78015 0.2484,0.18659 -0.028,-0.19552 -0.071,-0.45883 -0.095,-0.58513 -0.098,-0.51229 -0.1114,-0.59486 -0.1376,-0.84086 -0.032,-0.30699 -0.024,-0.87965 0.018,-1.18076 0.044,-0.31851 0.1416,-0.82697 0.2144,-1.12298 0.063,-0.25717 0.072,-0.32291 0.036,-0.28183 -0.019,0.0211 -0.2069,0.60669 -0.2812,0.87489 -0.076,0.27357 -0.1681,0.69395 -0.2175,0.99085 -0.06,0.3551 -0.06,0.3518 -0.184,-0.36998 -0.1378,-0.80736 -0.1407,-0.87783 -0.049,-1.18556 0.061,-0.20607 0.249,-0.69663 0.3496,-0.91343 0.042,-0.0913 0.073,-0.18123 0.07,-0.20542 -0.01,-0.036 -0.02,-0.018 -0.097,0.11009 -0.051,0.0842 -0.2375,0.38587 -0.4148,0.67037 -0.3464,0.55572 -0.4064,0.66966 -0.4353,0.82581 -0.028,0.1563 -0.023,0.26738 0.032,0.57404 0.1275,0.70972 0.2305,1.41365 0.2558,1.7502 0.02,0.2657 0.01,0.71117 -0.043,1.04917 -0.013,0.10269 -0.037,0.31204 -0.052,0.46524 -0.041,0.42177 -0.1402,0.67455 -0.3568,0.91425 -0.034,0.0379 -0.058,0.0768 -0.051,0.0863 0.026,0.0439 0.2103,0.0651 0.2929,0.0339 z m 14.2952,-0.66127 c 0.156,-0.1036 0.457,-0.35744 0.6761,-0.57013 1.0261,-0.99637 1.8409,-2.21687 2.3865,-3.57528 0.1135,-0.28265 0.1353,-0.3671 0.1002,-0.38873 -0.024,-0.0147 -0.3871,0.10963 -0.608,0.20825 -0.2943,0.13129 -0.816,0.44389 -0.9283,0.55618 -0.02,0.0203 -0.023,0.0718 -0.016,0.28497 0.01,0.19459 0,0.29976 -0.019,0.41686 -0.075,0.43035 -0.2488,0.7352 -0.4849,0.85117 -0.083,0.0406 -0.1159,0.0469 -0.249,0.0469 -0.1389,0 -0.1641,-0.006 -0.2663,-0.0556 -0.2552,-0.12562 -0.4822,-0.48012 -0.5418,-0.84595 -0.076,-0.46173 0.2408,-1.17884 0.5612,-1.274 0.1599,-0.0475 0.3867,-0.023 0.5479,0.0592 0.088,0.0448 0.2199,0.1671 0.3062,0.28341 0.037,0.0491 0.074,0.0893 0.082,0.0893 0.01,0 0.1098,-0.0642 0.2249,-0.14277 0.3821,-0.2608 0.8344,-0.47192 1.2808,-0.5979 0.1217,-0.0343 0.2297,-0.0711 0.2402,-0.0819 0.015,-0.0156 0.1596,-0.74666 0.1663,-0.84292 0,-0.0194 -0.032,-0.0306 -0.1406,-0.0463 -0.1737,-0.0251 -0.3085,-0.0885 -0.4635,-0.2176 -0.2057,-0.17127 -0.4155,-0.49895 -0.436,-0.68083 -0.01,-0.0723 -0.01,-0.0777 0.096,-0.18192 0.058,-0.0591 0.1014,-0.11547 0.098,-0.12533 -0.01,-0.01 -0.052,-0.0319 -0.1066,-0.049 -0.055,-0.0171 -0.1687,-0.0663 -0.2529,-0.10935 -0.2858,-0.14616 -0.5574,-0.4617 -0.6832,-0.79386 -0.3158,-0.8334 -0.5186,-1.24321 -0.901,-1.8207 -0.6696,-1.01137 -1.5907,-1.65641 -2.683,-1.87908 -0.4144,-0.0844 -0.9737,-0.1222 -1.2866,-0.0867 -0.1902,0.0215 -0.467,0.0816 -0.6429,0.13965 -0.06,0.0196 -0.1251,0.0308 -0.1475,0.0252 -0.1142,-0.0287 -0.5714,-0.79965 -0.7625,-1.28594 -0.094,-0.23912 -0.1991,-0.58197 -0.1991,-0.64938 0,-0.11722 0.105,-0.21409 0.2103,-0.19397 0.138,0.0263 0.5655,0.42697 0.8818,0.82634 0.1074,0.13566 0.3079,0.39792 0.4455,0.5828 0.1377,0.18488 0.2675,0.34744 0.2884,0.36123 0.021,0.0138 0.062,0.0299 0.093,0.0359 0.049,0.01 0.054,0.007 0.054,-0.0307 0,-0.08 -0.3711,-0.57215 -1.0363,-1.37447 -0.2752,-0.33194 -0.5046,-0.53636 -0.7934,-0.7071 -0.1682,-0.0994 -0.2137,-0.10879 -0.2675,-0.055 -0.05,0.0501 -0.1057,0.19367 -0.1336,0.34461 -0.041,0.21854 0.034,1.07963 0.1399,1.62389 0.4616,2.37029 1.0394,4.31747 2.0145,6.78834 0.5048,1.27944 1.007,2.30474 1.6747,3.41906 0.3562,0.59475 0.6644,1.02834 0.9974,1.40334 0.2416,0.27223 0.3375,0.36572 0.3747,0.36572 0.019,0 0.068,-0.0225 0.1098,-0.05 z m 1.0534,-6.72236 c -0.061,-0.008 -0.3938,-0.0213 -0.74,-0.0301 -0.6622,-0.0168 -0.7041,-0.0215 -0.9951,-0.11285 -0.4695,-0.1473 -0.9949,-0.5209 -1.4106,-1.00299 -0.2916,-0.33824 -0.4382,-0.56903 -0.7822,-1.2318 -0.1137,-0.21907 -0.242,-0.45253 -0.285,-0.51881 -0.052,-0.0798 -0.2095,-0.25137 -0.4673,-0.50846 -0.3531,-0.35225 -0.4459,-0.46306 -0.3592,-0.429 0.017,0.007 0.1412,0.0489 0.2773,0.0946 0.2875,0.0963 0.58,0.15909 0.9117,0.19566 0.728,0.0802 0.8213,0.0938 1.0001,0.14516 0.9389,0.26968 1.6368,0.82305 2.1179,1.67914 0.049,0.0868 0.1684,0.33504 0.2658,0.55156 0.097,0.2165 0.2089,0.4473 0.2479,0.51287 0.088,0.14783 0.2975,0.36845 0.4559,0.47973 0.1129,0.0793 0.1542,0.13588 0.129,0.17661 -0.013,0.0205 -0.2001,0.0198 -0.3662,-9.5e-4 z m -0.8329,-0.41023 c 0.1124,-0.0567 0.1578,-0.15282 0.1466,-0.31044 -0.02,-0.28541 -0.2631,-0.81762 -0.5332,-1.16816 -0.444,-0.57645 -1.2002,-1.13375 -1.8339,-1.3515 -0.192,-0.066 -0.4055,-0.0682 -0.5275,-0.006 -0.051,0.0264 -0.1046,0.0721 -0.1357,0.11634 -0.049,0.0691 -0.051,0.0815 -0.051,0.23721 0,0.14431 0.01,0.1809 0.055,0.30041 0.1057,0.26465 0.3576,0.67796 0.5923,0.97185 0.4894,0.61293 1.0359,1.00197 1.6315,1.1615 0.3543,0.0949 0.5364,0.10828 0.6556,0.0483 z m -0.9464,-0.47245 c -0.23,-0.0325 -0.4983,-0.17685 -0.728,-0.39164 -0.3313,-0.31007 -0.5405,-0.7629 -0.4884,-1.05815 0.024,-0.13738 0.092,-0.24551 0.1951,-0.30897 0.071,-0.0437 0.102,-0.0515 0.2292,-0.0573 0.1221,-0.006 0.1696,3.3e-4 0.2778,0.0351 0.4429,0.14197 0.8794,0.58401 1.0282,1.04141 0.082,0.25354 0.053,0.50411 -0.075,0.62646 -0.096,0.0923 -0.2694,0.13692 -0.4385,0.11306 z m 0.2765,-0.19677 c 0.088,-0.0658 0.1149,-0.11936 0.1219,-0.24357 0.033,-0.5864 -0.8559,-1.40298 -1.3236,-1.2158 -0.1787,0.0715 -0.2119,0.30549 -0.086,0.60557 0.1568,0.37385 0.551,0.74573 0.9188,0.86685 0.1259,0.0415 0.3042,0.0351 0.3689,-0.013 z m -0.4156,-0.3146 c -0.1181,-0.0226 -0.242,-0.0999 -0.3786,-0.23632 -0.1597,-0.1595 -0.2383,-0.30083 -0.2503,-0.4506 -0.01,-0.0995 -0.01,-0.10926 0.043,-0.16372 0.047,-0.0525 0.061,-0.0579 0.1428,-0.0571 0.2771,0.003 0.6767,0.38524 0.7055,0.67587 0.018,0.18312 -0.078,0.26734 -0.2627,0.23187 z m 0.1285,-0.12706 c 0.1621,-0.11353 -0.2071,-0.59958 -0.5029,-0.66211 -0.08,-0.017 -0.1398,0.0252 -0.1398,0.0994 0,0.17555 0.2853,0.49781 0.5001,0.56506 0.092,0.0287 0.098,0.0287 0.1426,-0.003 z m -0.316,-0.31319 c -0.072,-0.0522 -0.1055,-0.0979 -0.1055,-0.144 0,-0.0689 0.1716,0.0162 0.2294,0.11374 0.054,0.0917 -0.015,0.1088 -0.1239,0.0302 z m -14.5212,7.53925 c 0.2089,-0.26384 0.429,-0.65136 0.5098,-0.8973 0.068,-0.20797 0.102,-0.36103 0.2123,-0.96106 0.056,-0.30407 0.132,-0.70963 0.169,-0.90126 0.037,-0.19164 0.065,-0.35099 0.061,-0.35412 -0.01,-0.007 -0.032,0.0294 -0.1327,0.18372 -0.1441,0.22214 -0.3771,0.40537 -0.6078,0.47797 -0.1215,0.0383 -0.4007,0.0796 -0.4183,0.062 -0.01,-0.006 0.1002,-0.12818 0.236,-0.27128 0.4773,-0.50246 0.7902,-0.8905 1.049,-1.30088 0.2586,-0.40984 0.5785,-0.88573 0.69,-1.02604 0.088,-0.11036 0.1081,-0.14591 0.087,-0.15016 -0.034,-0.007 -0.071,0.0159 -0.3118,0.18675 -0.2432,0.17266 -0.4706,0.30935 -0.4779,0.28729 -0.01,-0.01 0.043,-0.0771 0.103,-0.14956 0.06,-0.0725 0.1767,-0.22273 0.2592,-0.33388 0.1848,-0.2485 0.3968,-0.46158 0.6037,-0.60653 0.086,-0.0605 0.1694,-0.11888 0.1849,-0.12981 0.053,-0.0373 0.01,-0.0387 -0.1338,-0.005 -0.1772,0.0423 -0.3556,0.12679 -0.502,0.23758 -0.205,0.1551 -0.1956,0.10931 0.054,-0.26032 0.1088,-0.1612 0.2232,-0.32453 0.2543,-0.36297 0.09,-0.11064 0.1134,-0.11533 0.488,-0.0966 0.1801,0.008 0.3327,0.0118 0.3393,0.007 0.01,-0.006 -0.026,-0.0712 -0.075,-0.14605 -0.1938,-0.30331 -0.4976,-0.82076 -0.5522,-0.94055 -0.078,-0.17266 -0.096,-0.26297 -0.076,-0.38996 0.014,-0.0902 0.3908,-1.26924 0.4203,-1.31695 0.031,-0.0507 0.041,0.0703 0.041,0.53741 0,0.3129 0.01,0.50322 0.016,0.4933 0.01,-0.008 0.044,-0.10368 0.078,-0.21066 0.193,-0.59957 0.5014,-1.17528 0.8944,-1.6703 0.1836,-0.23119 0.5721,-0.6272 0.6153,-0.6272 0.024,0 0.03,0.008 0.024,0.0328 -0.01,0.018 -0.1386,0.2383 -0.2974,0.48954 -0.1589,0.25123 -0.3083,0.49483 -0.3318,0.54134 -0.1068,0.21121 -0.1337,0.38762 -0.269,1.76856 l -0.054,0.54434 0.1507,0.1421 c 0.3093,0.29166 1.184,0.99056 1.2087,0.96575 0.01,-0.004 -0.031,-0.0832 -0.077,-0.1763 -0.1021,-0.2035 -0.281,-0.47387 -0.4365,-0.65939 -0.1719,-0.20521 -0.254,-0.31511 -0.299,-0.39974 -0.038,-0.0712 -0.041,-0.0938 -0.039,-0.3232 0.01,-0.2828 0.03,-0.47499 0.1173,-0.79098 0.078,-0.28422 0.1645,-0.45961 0.4033,-0.81648 0.227,-0.33932 0.5071,-0.72817 0.5171,-0.71807 0.01,0.004 -0.044,0.11729 -0.1055,0.25201 -0.3121,0.67841 -0.4261,1.00175 -0.4645,1.31657 -0.03,0.24728 -0.021,0.48146 0.019,0.45723 0.01,-0.006 0.043,-0.0671 0.074,-0.13688 0.073,-0.16058 0.271,-0.52177 0.4127,-0.75394 0.2882,-0.47161 0.667,-0.95714 1.087,-1.39338 0.1964,-0.20388 0.2478,-0.22949 0.198,-0.0987 -0.056,0.14562 -0.4155,0.86217 -0.557,1.10848 -0.1337,0.23242 -0.1736,0.31584 -0.1305,0.272 0.01,-0.009 0.077,-0.11339 0.1513,-0.23224 0.3011,-0.48121 0.5505,-0.76337 0.9737,-1.1014 0.4028,-0.32187 0.8458,-0.65121 0.8665,-0.64433 0.01,0.004 -0.047,0.0904 -0.1295,0.19309 -0.5834,0.73395 -1.0814,1.53067 -1.1534,1.84527 -0.031,0.13632 -0.03,0.087 -0.017,1.29703 0.013,1.10202 0.01,1.04292 0.1172,0.95787 0.067,-0.0515 0.075,-0.0685 0.1706,-0.4348 0.1427,-0.54165 0.362,-1.26641 0.4788,-1.58195 0.079,-0.21419 0.1928,-0.42824 0.3097,-0.58435 0.2903,-0.38751 0.7051,-0.79407 1.116,-1.09394 0.2299,-0.16781 1.1946,-0.77118 1.2329,-0.77118 0.043,0 0.01,0.0631 -0.1835,0.29104 -0.2487,0.30318 -0.4756,0.60017 -0.6871,0.89967 -0.1485,0.21036 -0.2107,0.30368 -0.4341,0.65221 l -0.076,0.11944 0.083,-0.0733 c 0.5011,-0.44453 0.8667,-0.71626 1.3224,-0.98285 0.2932,-0.17156 0.6808,-0.35988 0.7958,-0.38671 0.058,-0.0134 0.112,-0.0322 0.1217,-0.0418 0.012,-0.012 0.01,-0.0883 -0.027,-0.24332 -0.024,-0.1242 -0.057,-0.32531 -0.072,-0.44693 -0.068,-0.55815 -0.07,-0.56731 -0.1335,-0.69568 -0.069,-0.14045 -0.2643,-0.36749 -0.2838,-0.33059 -0.01,0.0125 -0.017,0.0572 -0.023,0.0992 -0.019,0.12274 -0.117,0.30733 -0.2101,0.39436 l -0.083,0.0775 -0.22,0.0115 c -0.4532,0.0237 -0.7053,0.046 -0.8014,0.0707 -0.1309,0.0336 -0.3043,0.11659 -0.4902,0.23451 -0.1729,0.10971 -0.1885,0.11201 -0.4041,0.0591 -0.2002,-0.0491 -0.3335,-0.0308 -0.536,0.0732 -0.1135,0.0584 -0.1445,0.068 -0.1615,0.0504 -0.017,-0.0175 -0.01,-0.034 0.056,-0.0838 0.127,-0.10294 0.3549,-0.32847 0.4286,-0.42406 l 0.069,-0.0898 -0.028,-0.2591 c -0.04,-0.35901 -0.044,-0.3867 -0.067,-0.38648 -0.011,1.4e-4 -0.044,0.045 -0.075,0.0998 -0.1116,0.20336 -0.2779,0.36693 -0.4739,0.46624 -0.085,0.0431 -0.1577,0.0664 -0.514,0.16502 -0.2052,0.0569 -0.5325,0.18219 -0.6319,0.24208 -0.256,0.1541 -0.4988,0.4478 -0.7369,0.89093 -0.095,0.17665 -0.1316,0.21315 -0.1316,0.13043 0,-0.0677 0.2354,-0.53109 0.3895,-0.76676 0.1422,-0.21731 0.1499,-0.25457 0.077,-0.36639 -0.1458,-0.22298 -0.5986,-0.7169 -0.6572,-0.7169 -0.015,0 -0.025,0.0451 -0.031,0.15308 -0.011,0.17921 -0.06,0.33192 -0.1966,0.61967 -0.3071,0.64566 -0.7842,1.07571 -1.5838,1.42746 -0.049,0.0215 -0.1037,0.0596 -0.1214,0.0846 -0.018,0.025 -0.1625,0.34786 -0.3217,0.71741 -0.1591,0.36954 -0.3605,0.83647 -0.4476,1.03762 -0.2076,0.47978 -0.207,0.45252 -0.019,0.84711 0.1056,0.22179 0.1361,0.3014 0.1241,0.3232 -0.025,0.0467 -0.2685,0.27727 -0.4489,0.42656 -0.1995,0.16505 -0.2361,0.2066 -0.2965,0.33656 -0.063,0.13536 -0.068,0.29842 -0.023,0.68136 0.02,0.16635 0.039,0.33258 0.043,0.36941 0.01,0.0372 -0.01,0.0863 -0.016,0.11057 -0.038,0.0715 -0.146,0.16501 -0.2638,0.2274 l -0.1105,0.0586 0.01,0.19352 c 0.01,0.19492 0.044,0.47941 0.109,0.73217 0.053,0.20648 0.056,0.19918 -0.1305,0.34724 -0.09,0.0718 -0.2752,0.2331 -0.4111,0.35856 -0.2694,0.24842 -0.3983,0.34202 -0.6277,0.45546 -0.2892,0.14309 -0.5753,0.21066 -0.9571,0.22608 l -0.2461,0.01 0.117,0.10874 c 0.2222,0.20635 0.5021,0.37992 0.816,0.50604 0.1759,0.0707 0.197,0.0852 0.197,0.13586 0,0.0206 -0.076,0.14772 -0.1702,0.28265 -0.093,0.13493 -0.1676,0.25307 -0.1644,0.26253 0.01,0.0261 0.1915,0.0308 0.3321,0.008 0.1425,-0.0226 0.2649,-0.062 0.4322,-0.13905 0.1085,-0.0501 0.118,-0.0517 0.1446,-0.0251 0.026,0.0265 0.025,0.0359 -0.028,0.1432 -0.2047,0.41741 -0.6234,0.82863 -1.0439,1.02536 -0.063,0.0296 -0.1181,0.0591 -0.1222,0.0657 -0.01,0.0173 0.757,0.40929 0.8024,0.4097 0.026,2.5e-4 0.062,-0.0301 0.1155,-0.0975 z m 16.6356,-1.32982 c 0.1033,-0.0455 0.1756,-0.13008 0.2577,-0.30139 0.1044,-0.21822 0.1436,-0.38001 0.1543,-0.63802 0.01,-0.23001 0,-0.3377 -0.034,-0.33741 -0.011,1.3e-4 -0.1338,0.1264 -0.2723,0.28066 -0.1385,0.15428 -0.2626,0.28049 -0.2759,0.28049 -0.013,0 -0.032,-0.0141 -0.041,-0.0314 -0.035,-0.0652 0.1313,-0.30626 0.3854,-0.5593 0.087,-0.0863 0.1576,-0.16506 0.1576,-0.17503 0,-0.0394 -0.073,-0.15776 -0.1362,-0.22101 -0.086,-0.0861 -0.2095,-0.14798 -0.3344,-0.16776 -0.3382,-0.0536 -0.5167,0.0798 -0.6573,0.49107 -0.066,0.19243 -0.086,0.33823 -0.075,0.55145 0.015,0.3121 0.089,0.51364 0.242,0.66718 0.1869,0.18712 0.4287,0.24877 0.6291,0.16043 z m -9.1973,-5.47178 c 0.074,-0.0361 0.1647,-0.11544 0.3859,-0.33773 0.6464,-0.64929 1.2984,-1.13977 2.0771,-1.56253 0.2212,-0.12011 0.3759,-0.17517 0.5625,-0.20032 0.082,-0.0111 0.1563,-0.0256 0.1637,-0.0322 0.01,-0.007 -0.014,-0.16056 -0.049,-0.34207 -0.073,-0.38601 -0.079,-0.39764 -0.2233,-0.38574 -0.056,0.005 -0.1283,0.028 -0.1958,0.0634 -0.2782,0.14581 -0.7572,0.47395 -1.0795,0.73941 -0.2366,0.195 -0.7713,0.73097 -1.0451,1.04747 -0.3774,0.43656 -0.8316,1.01219 -0.8316,1.05414 0,0.034 0.1224,0.0112 0.235,-0.0437 z m 4.4003,-3.79364 c 0.1591,-0.0526 0.295,-0.10089 0.3021,-0.10724 0.022,-0.0201 -0.3265,-0.50759 -0.5911,-0.8262 -0.324,-0.39005 -0.79,-0.85902 -0.8536,-0.85902 -0.043,0 -0.02,0.14342 0.063,0.39974 0.1251,0.38468 0.3061,0.77568 0.5395,1.1652 0.1482,0.24734 0.2022,0.3232 0.2305,0.3232 0.011,0 0.1505,-0.0431 0.3095,-0.0957 z m 1.6045,-0.11343 c 0.011,-0.0605 -0.5297,-1.09482 -0.8664,-1.65609 -0.189,-0.31506 -0.3517,-0.45799 -0.4231,-0.37188 -0.014,0.017 -0.021,0.0932 -0.021,0.2339 0,0.32918 0.042,0.48059 0.2731,1.00481 0.057,0.12918 0.1468,0.34734 0.1994,0.48479 0.053,0.13746 0.1028,0.25725 0.1113,0.26622 0.017,0.0184 0.5271,0.0746 0.6443,0.071 0.059,-0.002 0.078,-0.009 0.082,-0.0329 z m -1.0686,-0.5137 c 0,-0.005 -0.049,-0.10987 -0.1091,-0.23389 -0.222,-0.45885 -0.2879,-0.69168 -0.2878,-1.01648 0,-0.24829 0.021,-0.33822 0.091,-0.3974 0.028,-0.0235 0.051,-0.0538 0.051,-0.0675 0,-0.0316 -0.1471,-0.12669 -0.2179,-0.14086 -0.1156,-0.0231 -0.1687,0.0542 -0.225,0.32814 -0.053,0.25729 -0.076,0.55535 -0.046,0.61315 0.022,0.0427 0.3075,0.41323 0.5861,0.75909 0.059,0.0734 0.1076,0.14041 0.1076,0.14884 0,0.008 0.011,0.0153 0.026,0.0153 0.014,0 0.025,-0.004 0.025,-0.009 z"
         id="path109" />
      <circle
         style="fill:none;stroke:#0000ff;stroke-width:0.1;stroke-linecap:round;stroke-dasharray:none;stroke-opacity:1;paint-order:markers stroke fill"
         id="path13019-1-33-4-5-5-2-4-30-2-5"
         cx="1145.7515"
         cy="-219.33459"
         r="2" />
    </g>
  </g>
</svg>
