<?xml version="1.0" encoding="UTF-8" standalone="no"?>
<!-- Created with Inkscape (http://www.inkscape.org/) -->

<svg
   width="41.008999mm"
   height="41.008999mm"
   viewBox="0 0 41.008999 41.008999"
   version="1.1"
   id="svg1"
   inkscape:version="1.4.2 (f4327f4, 2025-05-13)"
   sodipodi:docname="324.svg"
   xmlns:inkscape="http://www.inkscape.org/namespaces/inkscape"
   xmlns:sodipodi="http://sodipodi.sourceforge.net/DTD/sodipodi-0.dtd"
   xmlns="http://www.w3.org/2000/svg"
   xmlns:svg="http://www.w3.org/2000/svg">
  <sodipodi:namedview
     id="namedview1"
     pagecolor="#ffffff"
     bordercolor="#000000"
     borderopacity="0.25"
     inkscape:showpageshadow="2"
     inkscape:pageopacity="0.0"
     inkscape:pagecheckerboard="0"
     inkscape:deskcolor="#d1d1d1"
     inkscape:document-units="mm"
     inkscape:zoom="1.4513545"
     inkscape:cx="86.470947"
     inkscape:cy="71.657199"
     inkscape:window-width="1050"
     inkscape:window-height="1081"
     inkscape:window-x="857"
     inkscape:window-y="0"
     inkscape:window-maximized="0"
     inkscape:current-layer="layer1" />
  <defs
     id="defs1" />
  <g
     inkscape:label="Layer 1"
     inkscape:groupmode="layer"
     id="layer1"
     transform="translate(333.37504,1257.5646)">
    <g
       id="g111"
       transform="translate(-1500.6378,-1032.7365)">
      <circle
         style="fill:none;stroke:#ff0000;stroke-width:0.1;stroke-dasharray:none"
         id="path788-8-1-8-1-9-2-2-9-1-6-9-9-0-0-34"
         cx="1187.7672"
         cy="-204.32362"
         r="19.954653" />
      <ellipse
         style="fill:none;stroke:#ff00ff;stroke-width:0.1;stroke-dasharray:none;stroke-opacity:1"
         id="path1138-9-4-0-0-1-2-8-1-8-1-17-3-2-6-9"
         cx="1187.7672"
         cy="-204.32362"
         rx="18.492125"
         ry="18.492126" />
      <circle
         style="fill:none;stroke:#0000ff;stroke-width:0.1;stroke-linecap:round;stroke-dasharray:none;stroke-opacity:1;paint-order:markers stroke fill"
         id="path13019-1-33-4-5-5-2-4-30-1-9-7"
         cx="1187.7671"
         cy="-219.33459"
         r="2" />
      <path
         style="fill:#000000;stroke-width:0.183124"
         d="m 1181.9099,-186.95011 c -0.04,-0.0234 -0.258,-0.10159 -0.4845,-0.17384 -0.5595,-0.17845 -0.5999,-0.2357 -0.1371,-0.19417 0.4226,0.0379 0.6263,-0.0214 0.5188,-0.15094 -0.1227,-0.14774 -0.6449,-0.35988 -1.4961,-0.60768 -0.1199,-0.0349 -0.218,-0.0827 -0.218,-0.1061 0,-0.0235 0.1076,-0.0769 0.2392,-0.11897 l 0.2392,-0.0763 -0.1908,-0.0863 c -0.1081,-0.0489 -0.2458,-0.075 -0.3178,-0.0602 -0.07,0.0144 -0.1869,0.011 -0.2602,-0.007 l -0.1333,-0.0334 0.1513,-0.0636 c 0.2707,-0.11383 0.2054,-0.2069 -0.4544,-0.6476 -0.2132,-0.1424 -0.4726,-0.3374 -0.5764,-0.43332 -0.1115,-0.10294 -0.1767,-0.13967 -0.159,-0.0896 0.016,0.0466 0.017,0.11815 0,0.1589 -0.024,0.064 -0.037,0.0624 -0.094,-0.0121 -0.036,-0.0474 -0.066,-0.12059 -0.067,-0.16262 0,-0.0421 -0.1459,-0.30366 -0.3224,-0.58142 -0.1765,-0.27775 -0.3528,-0.5564 -0.3921,-0.6192 -0.1017,-0.16304 -0.1763,-0.0659 -0.21,0.27367 l -0.028,0.27659 -0.1,-0.21914 c -0.2369,-0.52022 -0.594,-0.96269 -0.8399,-1.04074 -0.1472,-0.0467 -0.072,-0.11142 0.1711,-0.14792 0.1952,-0.0293 0.3072,-0.11549 0.1563,-0.1204 -0.1167,-0.003 -0.3645,-0.26721 -0.5223,-0.55522 -0.1514,-0.27624 -0.4159,-0.60564 -0.4862,-0.60564 -0.018,0 -0.047,0.10901 -0.065,0.24225 -0.018,0.13324 -0.054,0.24226 -0.079,0.24226 -0.026,0 -0.048,-0.005 -0.048,-0.0121 0,-0.007 -0.022,-0.28625 -0.046,-0.6213 -0.044,-0.60748 -0.045,-0.61021 -0.2651,-0.96681 -0.1213,-0.19668 -0.2205,-0.3725 -0.2205,-0.3907 0,-0.0182 0.1581,-0.0422 0.3513,-0.0534 l 0.3512,-0.0203 0.5572,0.48071 c 0.3065,0.26439 0.6118,0.51549 0.6784,0.55799 0.067,0.0425 0.2426,0.16914 0.3912,0.28141 0.1485,0.11227 0.8789,0.61209 1.6231,1.11072 1.6218,1.08669 2.6282,1.62825 3.6787,1.97956 0.2133,0.0713 0.4313,0.14875 0.4845,0.17212 0.144,0.0632 1.0819,0.27658 1.7443,0.39694 0.5076,0.0922 0.7631,0.10615 2.0108,0.10953 1.377,0.003 1.4375,-3e-5 1.654,-0.10284 0.1236,-0.0587 0.2871,-0.18099 0.3634,-0.27177 0.1352,-0.16104 0.1499,-0.16581 0.599,-0.19564 0.4626,-0.0307 0.8752,-0.13951 1.4935,-0.39376 l 0.3064,-0.12603 0.097,0.123 c 0.1719,0.21848 0.3242,0.16909 0.6887,-0.22328 0.1769,-0.19046 0.3216,-0.36488 0.3216,-0.38761 0,-0.0228 0.044,-0.0413 0.098,-0.0413 0.054,0 0.1686,-0.08 0.2544,-0.17798 0.086,-0.0979 0.3631,-0.3148 0.6162,-0.48204 0.5319,-0.35135 0.6797,-0.47393 0.8014,-0.66477 l 0.088,-0.13773 0.08,0.10657 c 0.08,0.10619 0.082,0.10472 0.5679,-0.39523 0.757,-0.77927 1.1507,-1.3193 1.2439,-1.70643 0.031,-0.12951 0.039,-0.13351 0.1197,-0.0606 0.048,0.0429 0.109,0.0781 0.1368,0.0781 0.028,0 0.2531,-0.19077 0.5006,-0.42394 l 0.4501,-0.42395 0.4162,-0.0242 c 0.4062,-0.0236 0.4165,-0.0273 0.4309,-0.15168 0.01,-0.0814 -0.029,-0.17734 -0.1038,-0.26533 l -0.1186,-0.13787 0.1523,-0.0944 0.1522,-0.0945 -0.1208,-0.0299 c -0.187,-0.0464 -0.1617,-0.15619 0.076,-0.32871 l 0.217,-0.15765 0.043,0.10919 c 0.023,0.0601 0.1158,0.29578 0.2048,0.52383 0.2646,0.67784 0.2112,0.64023 0.9239,0.65058 0.6865,0.01 0.8426,0.0655 0.8931,0.31786 0.028,0.13726 0.039,0.14315 0.2889,0.14315 0.1433,0 0.2605,0.0164 0.2605,0.0363 0,0.02 -0.1091,0.21957 -0.2423,0.44351 -0.1332,0.22394 -0.2422,0.41865 -0.2422,0.43268 0,0.014 -0.082,0.15786 -0.1833,0.31961 -0.2709,0.43487 -0.3475,0.5682 -0.4242,0.73895 -0.081,0.18176 -0.1678,0.24938 -0.1678,0.1319 0,-0.0755 -0.01,-0.0747 -0.1023,0.009 -0.2233,0.20133 -0.758,0.98071 -0.8602,1.25393 -0.1328,0.35478 -0.438,0.75956 -0.7177,0.95201 -0.1151,0.0792 -0.2093,0.1543 -0.2093,0.16689 0,0.0479 0.4225,-0.19214 0.6674,-0.37907 0.1406,-0.10732 0.2671,-0.18364 0.2811,-0.16961 0.035,0.0349 -0.4547,0.61804 -0.5189,0.61804 -0.028,0 -0.1164,0.0464 -0.196,0.10304 -0.08,0.0567 -0.3361,0.16254 -0.5699,0.23525 -0.234,0.0727 -0.5211,0.19852 -0.6381,0.2796 -0.1964,0.1361 -0.9637,0.86131 -0.9637,0.91084 0,0.0119 0.066,0.0217 0.1454,0.0217 0.08,0 0.1453,0.0201 0.1453,0.0446 0,0.0532 -0.149,0.0841 -0.6057,0.12589 -0.1865,0.017 -0.4372,0.0528 -0.5571,0.0794 -0.12,0.0266 -0.3816,0.0766 -0.5814,0.11102 -0.1999,0.0345 -0.4942,0.0961 -0.6542,0.13699 -0.7579,0.19378 -1.2463,0.28718 -1.6337,0.31241 -0.2323,0.0151 -0.4109,0.0461 -0.3968,0.0689 0.014,0.0228 0.073,0.0417 0.1317,0.0421 0.1201,8.7e-4 0.2627,0.0769 0.2215,0.11813 -0.015,0.015 -0.2869,0.0947 -0.6043,0.17716 -0.5505,0.14303 -0.6077,0.14863 -1.2435,0.12165 -0.6274,-0.0267 -0.6856,-0.0212 -0.9932,0.0921 -0.5506,0.20274 -1.0769,0.24449 -2.2518,0.17866 -1.0832,-0.0607 -1.5993,-0.0287 -1.8145,0.11234 -0.1518,0.0995 -0.1782,0.0935 -0.4487,-0.10073 l -0.2395,-0.17212 -0.3642,0.0752 c -0.4135,0.0854 -0.562,0.094 -0.562,0.0326 0,-0.0235 0.071,-0.0721 0.1575,-0.10819 l 0.1574,-0.0656 -0.1453,-0.0314 c -0.2619,-0.0566 -0.654,-0.0442 -0.822,0.026 -0.092,0.0386 -0.2219,0.15505 -0.2945,0.26479 -0.2047,0.30923 -0.4111,0.44182 -0.6851,0.4401 -0.1284,-7.3e-4 -0.2661,-0.0206 -0.306,-0.044 z m -2.3257,-7.73428 v -0.60886 l 0.1333,0.0153 c 0.1271,0.0146 0.1325,0.0258 0.1171,0.24547 -0.01,0.12659 0,0.22858 0.024,0.22666 0.023,-0.002 0.1275,-0.10938 0.2342,-0.23877 0.1568,-0.19039 0.2238,-0.23593 0.3513,-0.23876 0.086,-0.002 0.1574,0.012 0.1574,0.031 0,0.019 -0.089,0.12493 -0.1973,0.23546 l -0.1971,0.20096 0.2214,0.34232 c 0.1218,0.18828 0.2215,0.35486 0.2215,0.37018 0,0.0153 -0.072,0.0279 -0.1592,0.0279 -0.1432,0 -0.1736,-0.0267 -0.3028,-0.2663 -0.079,-0.14648 -0.1596,-0.2664 -0.1789,-0.26649 -0.061,-3.6e-4 -0.1904,0.23184 -0.1808,0.32382 0.018,0.17238 0,0.20897 -0.1231,0.20897 h -0.1212 z m 1.1629,0 v -0.60886 l 0.1332,0.0153 0.1332,0.0153 0.014,0.59353 0.014,0.59353 h -0.1469 -0.1469 z m 0.457,0.54518 c -0.013,-0.0351 -0.018,-0.30211 -0.01,-0.59353 l 0.014,-0.52985 0.1786,-0.0149 c 0.2107,-0.0176 0.2428,0.0261 0.3318,0.45091 l 0.061,0.29071 0.095,-0.31493 c 0.052,-0.17322 0.1034,-0.34352 0.1137,-0.37845 0.012,-0.0416 0.081,-0.0583 0.2008,-0.0485 l 0.1821,0.0151 v 0.58142 0.58142 h -0.1212 c -0.1193,0 -0.121,-0.005 -0.1152,-0.37738 0,-0.20757 -0.01,-0.36626 -0.019,-0.35265 -0.014,0.0136 -0.062,0.18343 -0.1076,0.37738 -0.079,0.33684 -0.089,0.35265 -0.2221,0.35265 -0.1349,0 -0.1417,-0.0119 -0.2201,-0.38761 -0.092,-0.4388 -0.1013,-0.43243 -0.092,0.0606 0.01,0.3476 0.01,0.35127 -0.1191,0.35127 -0.069,0 -0.1369,-0.0286 -0.1503,-0.0637 z m 1.3841,-0.54015 v -0.60745 h 0.4361 c 0.4328,0 0.436,8.6e-4 0.436,0.12112 0,0.11678 -0.011,0.12113 -0.3149,0.12113 -0.2826,0 -0.315,0.01 -0.315,0.0969 0,0.0861 0.032,0.0969 0.2908,0.0969 0.2778,0 0.2907,0.005 0.2907,0.12113 0,0.11574 -0.013,0.12112 -0.2907,0.12112 -0.2897,0 -0.2908,5.6e-4 -0.2908,0.14315 0,0.143 0,0.14315 0.3271,0.15747 0.29,0.0127 0.3271,0.0254 0.3271,0.11122 0,0.0889 -0.037,0.0981 -0.4482,0.11084 l -0.4482,0.0139 z m 1.3567,0.11931 v -0.48451 h -0.1644 c -0.161,0 -0.2582,-0.0981 -0.1963,-0.19817 0.015,-0.0242 0.2331,-0.0441 0.4847,-0.0441 0.4556,0 0.4574,5.5e-4 0.4574,0.12113 0,0.10613 -0.021,0.12112 -0.1696,0.12112 h -0.1696 v 0.48452 0.48452 h -0.1211 -0.1211 z m 0.7971,0.35632 c -0.1567,-0.16911 -0.1572,-0.30786 0,-0.30786 0.074,0 0.1289,0.0349 0.1478,0.0944 0.043,0.13526 0.2018,0.17016 0.3456,0.0759 0.1579,-0.10344 0.088,-0.19856 -0.1789,-0.24366 -0.1378,-0.0233 -0.2258,-0.0769 -0.3122,-0.19006 -0.1489,-0.19536 -0.1491,-0.22428 0,-0.38366 0.2289,-0.24691 0.8018,-0.12944 0.8018,0.16439 0,0.11638 -0.2299,0.13517 -0.2732,0.0223 -0.017,-0.0448 -0.091,-0.0727 -0.1923,-0.0727 -0.2464,0 -0.2093,0.12254 0.057,0.18973 0.4185,0.10538 0.5788,0.41905 0.3375,0.66038 -0.095,0.0951 -0.1683,0.11893 -0.3657,0.11893 -0.2047,0 -0.2671,-0.0219 -0.3656,-0.12821 z m 1.1538,0.0329 c -0.1145,-0.10664 -0.1755,-0.4526 -0.1498,-0.84944 0.015,-0.22372 0.026,-0.24343 0.149,-0.25759 l 0.1333,-0.0153 v 0.46506 c 0,0.43747 0.01,0.46759 0.109,0.50736 0.072,0.028 0.1419,0.0214 0.2059,-0.0194 0.083,-0.0531 0.099,-0.12342 0.1108,-0.50413 0.014,-0.43405 0.017,-0.44242 0.1333,-0.44242 0.1191,0 0.1193,7.3e-4 0.1193,0.50522 0,0.48809 -0.01,0.50863 -0.1277,0.60565 -0.1721,0.13546 -0.5402,0.13818 -0.6831,0.005 z m 4.2993,-0.16005 c 0,-0.21675 -0.029,-0.29925 -0.1925,-0.54508 -0.2312,-0.34815 -0.2428,-0.42275 -0.062,-0.4019 0.099,0.0114 0.1618,0.0682 0.2459,0.22124 0.062,0.11326 0.1292,0.20592 0.1485,0.20592 0.019,0 0.083,-0.0981 0.1411,-0.21802 0.084,-0.17247 0.1314,-0.21804 0.2276,-0.21804 0.088,0 0.1218,0.0259 0.1218,0.094 0,0.0518 -0.023,0.1078 -0.049,0.12462 -0.028,0.0168 -0.1143,0.14346 -0.1934,0.28145 -0.1037,0.18095 -0.144,0.31505 -0.1443,0.48104 0,0.21306 -0.01,0.23014 -0.1216,0.23014 -0.1139,0 -0.1211,-0.0153 -0.1211,-0.25541 z m 0.533,0.16136 c 0,-0.0517 0.021,-0.10714 0.047,-0.12316 0.026,-0.016 0.072,-0.12088 0.1017,-0.23301 0.03,-0.11213 0.093,-0.29109 0.1396,-0.39768 0.047,-0.1066 0.098,-0.23196 0.1148,-0.2786 0.047,-0.13225 0.3089,-0.11396 0.3476,0.0242 0.016,0.06 0.049,0.15262 0.073,0.20592 0.1245,0.28317 0.3389,0.82675 0.3389,0.8591 0,0.0205 -0.054,0.0372 -0.1198,0.0372 -0.084,0 -0.1423,-0.0433 -0.1951,-0.14536 -0.063,-0.12255 -0.1039,-0.14535 -0.258,-0.14535 -0.1995,0 -0.2992,0.0678 -0.2992,0.2035 0,0.0646 -0.038,0.0872 -0.1454,0.0872 -0.1115,0 -0.1453,-0.0218 -0.1453,-0.094 z m 0.6916,-0.41992 c 0.017,-0.0162 0.01,-0.0653 -0.013,-0.10901 -0.023,-0.0438 -0.056,-0.12317 -0.073,-0.17647 -0.026,-0.0808 -0.043,-0.0647 -0.1,0.0969 -0.037,0.10658 -0.068,0.19925 -0.069,0.20591 0,0.026 0.2271,0.0104 0.2548,-0.0173 z m 0.5681,-0.0917 v -0.60565 h 0.1454 0.1453 v 0.60565 0.60564 h -0.1453 -0.1454 z m 0.4674,0.56871 c -0.013,-0.0203 -0.019,-0.28741 -0.015,-0.59353 l 0.01,-0.55661 0.3135,-0.0147 c 0.3976,-0.0186 0.5144,0.0116 0.6105,0.15825 0.067,0.10234 0.068,0.13558 0.01,0.2536 -0.06,0.12156 -0.057,0.14984 0.029,0.26928 0.1186,0.16405 0.067,0.36521 -0.1167,0.45833 -0.1299,0.0658 -0.8025,0.086 -0.84,0.0254 z m 0.7343,-0.33186 c 0.012,-0.087 -0.016,-0.10644 -0.1916,-0.12996 -0.2484,-0.0333 -0.2833,-0.0159 -0.2833,0.14087 0,0.11404 0.013,0.12009 0.2301,0.10617 0.1916,-0.0123 0.2326,-0.0319 0.2448,-0.11708 z m -0.063,-0.47911 c 0,-0.0794 -0.037,-0.0996 -0.2059,-0.1118 -0.1782,-0.0129 -0.2059,-0.002 -0.2059,0.0814 0,0.0624 0.038,0.10243 0.109,0.11369 0.2272,0.0362 0.3028,0.0153 0.3028,-0.0833 z m 0.4119,0.78492 c 0,-0.0346 0.02,-0.0837 0.044,-0.10902 0.024,-0.0253 0.067,-0.12234 0.094,-0.21561 0.028,-0.0933 0.1033,-0.31131 0.1684,-0.48452 0.1045,-0.27824 0.1345,-0.31657 0.2572,-0.329 0.1545,-0.0157 0.1309,-0.0535 0.4271,0.68637 0.095,0.23652 0.1722,0.4491 0.1722,0.47239 0,0.10899 -0.227,0.0329 -0.3073,-0.10298 -0.072,-0.12217 -0.1161,-0.14536 -0.2757,-0.14536 -0.1619,0 -0.2008,0.0214 -0.265,0.14536 -0.053,0.10208 -0.1107,0.14535 -0.195,0.14535 -0.066,0 -0.1198,-0.0283 -0.1198,-0.063 z m 0.7268,-0.44642 c 0,-0.0137 -0.02,-0.0627 -0.045,-0.10902 -0.025,-0.0463 -0.06,-0.12773 -0.078,-0.18103 -0.029,-0.0842 -0.042,-0.0747 -0.097,0.0727 -0.089,0.23786 -0.088,0.24226 0.074,0.24226 0.08,0 0.1454,-0.0112 0.1454,-0.0249 z m -6.8213,-0.0836 c 0.012,-0.42498 0.026,-0.49836 0.098,-0.51209 0.056,-0.0107 0.1285,0.0561 0.218,0.20032 0.2651,0.42705 0.2555,0.42118 0.2463,0.15116 -0.01,-0.27607 0.028,-0.36919 0.1318,-0.32929 0.056,0.0215 0.071,0.1299 0.071,0.50663 0,0.43583 -0.01,0.47933 -0.091,0.47933 -0.059,0 -0.1571,-0.10639 -0.2787,-0.30052 l -0.1879,-0.30052 -0.015,0.30052 c -0.013,0.26274 -0.027,0.30052 -0.1106,0.30052 -0.091,0 -0.096,-0.0287 -0.082,-0.49606 z m 1.1403,0.44373 c -0.1239,-0.0722 -0.2301,-0.30506 -0.2301,-0.50467 0,-0.34349 0.4474,-0.57845 0.7189,-0.37754 0.2798,0.20695 0.3075,0.51061 0.072,0.79034 -0.095,0.11243 -0.1605,0.14387 -0.2988,0.14272 -0.098,-7.3e-4 -0.2155,-0.0237 -0.2622,-0.0509 z m 0.3759,-0.20848 c 0.1095,-0.08 0.1245,-0.36884 0.025,-0.48812 -0.038,-0.0459 -0.1192,-0.0735 -0.1914,-0.0651 -0.2266,0.0263 -0.2856,0.44697 -0.081,0.58313 0.079,0.0528 0.1454,0.0448 0.2475,-0.0299 z m -16.21,-0.10568 c -0.05,-0.0609 -0.052,-0.18181 -0.01,-0.61776 0.057,-0.56571 0.088,-0.79835 0.1324,-1.00312 0.022,-0.0977 0,-0.13852 -0.1144,-0.20519 -0.2379,-0.1406 -0.4263,-0.67835 -0.4485,-1.28078 -0.011,-0.3035 0,-0.33133 0.09,-0.34516 0.1286,-0.0189 0.4008,0.11861 0.4966,0.25089 0.1724,0.23785 0.3,0.50445 0.4364,0.91175 0.081,0.23936 0.202,0.55874 0.2704,0.70974 0.2724,0.60024 0.7798,0.90279 1.0648,0.63495 0.1048,-0.0984 0.1122,-0.0987 0.5119,-0.018 0.7363,0.14872 0.6825,0.15478 0.9539,-0.10756 0.6395,-0.6183 0.2919,-1.18763 -1.2003,-1.96631 -0.9551,-0.49841 -1.5373,-0.96318 -1.8433,-1.47158 -0.1666,-0.2768 -0.1696,-0.29112 -0.1693,-0.8166 0,-0.49881 0.01,-0.55606 0.1512,-0.84978 0.2204,-0.45966 0.4382,-0.68333 0.8761,-0.89999 0.6121,-0.30283 0.9289,-0.28662 2.1703,0.11106 0.2131,0.0683 0.4082,0.14292 0.4336,0.16584 0.1089,0.0987 0.1832,0.0108 0.4309,-0.51042 0.2744,-0.57726 0.3703,-0.6725 0.5586,-0.55488 0.054,0.0332 0.1088,0.10515 0.1235,0.15977 0.041,0.15138 0.028,0.99184 -0.019,1.23791 -0.023,0.11991 -0.087,0.45652 -0.1427,0.74802 -0.1971,1.03338 -0.2601,1.06568 -0.7152,0.36636 -0.5333,-0.81968 -0.6885,-1.01386 -0.9853,-1.2323 -0.4624,-0.34043 -1.1146,-0.42161 -1.3178,-0.16403 -0.049,0.0618 -0.1859,0.23945 -0.3048,0.39478 l -0.2162,0.2824 0.1082,0.20211 c 0.06,0.11116 0.2936,0.38743 0.5202,0.61395 0.3355,0.33562 0.5035,0.45936 0.907,0.66865 0.2724,0.14125 0.5231,0.25144 0.5572,0.24488 0.1377,-0.0266 0.2788,0.0737 0.5907,0.41954 0.3024,0.33513 0.3419,0.36273 0.5191,0.36273 0.1899,0 0.1932,0.003 0.3388,0.32705 0.1602,0.35632 0.2333,0.91075 0.1881,1.42707 -0.023,0.26957 -0.037,0.29085 -0.5331,0.86641 -0.2797,0.32453 -0.5238,0.61369 -0.5422,0.64259 -0.023,0.0354 -0.094,0.0191 -0.218,-0.0501 l -0.1845,-0.10261 -0.2423,0.0969 c -0.3299,0.13203 -1.0103,0.1406 -1.3808,0.0174 -0.6632,-0.22048 -0.7752,-0.27424 -0.7752,-0.37203 0,-0.086 -0.029,-0.0944 -0.2786,-0.0813 l -0.2786,0.0145 -0.1462,0.36338 c -0.2115,0.52548 -0.241,0.55844 -0.3652,0.40874 z m 28.0324,-0.74577 c -0.016,-0.0521 -0.096,-0.15024 -0.1765,-0.21803 -0.1395,-0.11739 -0.1749,-0.12326 -0.7409,-0.12326 -0.5144,0 -0.6052,-0.0119 -0.6746,-0.0886 -0.044,-0.0487 -0.081,-0.10443 -0.081,-0.12378 0,-0.0194 -0.041,-0.12665 -0.091,-0.23845 -0.086,-0.19164 -0.2217,-0.53693 -0.4531,-1.14806 -0.055,-0.14657 -0.2436,-0.5564 -0.4179,-0.91073 l -0.317,-0.64425 -0.2121,0.0144 -0.2119,0.0144 0.01,1.23241 c 0,0.76943 0.023,1.25508 0.055,1.29274 0.028,0.0331 0.1594,0.0838 0.2929,0.11241 0.3827,0.0821 0.5238,0.17723 0.5254,0.35432 0,0.0717 -0.047,0.085 -0.3021,0.0863 -0.3018,0.002 -1.1991,0.10418 -1.6595,0.18988 -0.1332,0.0248 -0.5203,0.0464 -0.8601,0.0479 -0.4865,0.003 -0.6177,-0.011 -0.6177,-0.0623 0,-0.16456 0.4696,-0.40914 0.8648,-0.45045 l 0.2845,-0.0298 0.043,-0.41776 c 0.054,-0.53163 0.046,-1.83285 -0.023,-3.59133 -0.085,-2.14235 -0.1197,-2.4391 -0.293,-2.49411 -0.05,-0.0159 -0.213,-0.0487 -0.3619,-0.073 -0.2633,-0.0428 -0.7076,-0.28824 -0.7076,-0.39077 0,-0.0578 0.5452,-0.0573 0.9932,8.7e-4 0.1866,0.0242 0.4637,0.10107 0.6158,0.17069 0.211,0.0966 0.3371,0.12309 0.5328,0.11186 0.252,-0.0145 0.2567,-0.0176 0.272,-0.17659 0.015,-0.14993 0.025,-0.15926 0.1454,-0.12645 0.2138,0.0583 0.536,0.11505 1.0988,0.19344 1.2957,0.18043 1.8648,0.4781 2.1733,1.13658 0.084,0.17982 0.1023,0.31147 0.1031,0.751 0,0.49329 -0.01,0.55252 -0.1373,0.79545 -0.1769,0.33615 -0.5454,0.72515 -0.9083,0.9589 -0.1755,0.11311 -0.2852,0.21764 -0.2855,0.27199 0,0.099 0.18,0.42568 0.4263,0.77174 0.1535,0.21581 0.1573,0.23015 0.061,0.23015 -0.057,0 -0.157,-0.0352 -0.2226,-0.0782 -0.1047,-0.0685 -0.1195,-0.0692 -0.1195,-0.004 0,0.0847 0.67,0.95518 0.7352,0.95518 0.024,0 0.096,-0.0344 0.1602,-0.0764 0.1148,-0.0753 0.1185,-0.0728 0.2356,0.15746 0.3244,0.63812 0.6366,0.8991 1.1462,0.95811 0.6349,0.0735 0.634,0.0732 0.71,0.25512 0.1015,0.24293 0.1386,0.22863 -0.6416,0.24778 -0.3156,0.008 -0.348,0.0183 -0.3987,0.12956 -0.048,0.10547 -0.087,0.12113 -0.2953,0.12113 -0.1956,0 -0.2455,-0.0175 -0.2701,-0.0948 z m -1.9183,-4.19539 c 0.1861,-0.0835 0.3642,-0.20904 0.4672,-0.32945 0.1626,-0.18993 0.1665,-0.20468 0.1665,-0.62429 0,-0.35433 -0.027,-0.50799 -0.1517,-0.87552 -0.083,-0.24516 -0.1928,-0.48219 -0.2429,-0.52672 -0.1,-0.0887 -0.811,-0.2591 -1.2891,-0.30887 -0.2951,-0.0307 -0.3028,-0.0286 -0.3028,0.0832 0,0.0631 0.043,0.27211 0.097,0.46443 0.1418,0.51167 0.1285,0.71001 -0.07,1.03885 -0.2813,0.46651 -0.3381,0.81042 -0.1694,1.02497 0.1368,0.17384 0.3391,0.22571 0.8017,0.20547 0.2995,-0.0131 0.4643,-0.0492 0.6935,-0.1521 z m -24.3608,3.65082 c -0.055,-0.11179 -0.09,-0.21395 -0.077,-0.22699 0.037,-0.0369 0.4087,0.34396 0.3805,0.38969 -0.066,0.10562 -0.2091,0.0286 -0.3037,-0.1627 z m 26.9599,-0.24102 c -0.285,-0.0634 -0.4762,-0.23717 -0.7222,-0.65617 -0.3066,-0.52211 -0.3053,-0.52093 -0.4575,-0.42118 -0.1394,0.0913 -0.1245,0.10288 -0.5511,-0.42852 -0.1454,-0.18112 -0.1455,-0.1817 -0.033,-0.18244 0.2586,-0.002 0.2525,-0.0625 -0.054,-0.53554 -0.1615,-0.2498 -0.2937,-0.48987 -0.2937,-0.53351 0,-0.0436 0.1175,-0.15734 0.2611,-0.25268 0.3927,-0.26074 0.7127,-0.60928 0.9017,-0.98218 0.1586,-0.31262 0.1696,-0.36466 0.1696,-0.79552 0,-0.57765 -0.098,-0.87979 -0.3918,-1.2064 -0.3153,-0.35071 -0.6298,-0.51654 -1.2434,-0.65559 -0.1235,-0.028 -0.1332,-0.0479 -0.1332,-0.27152 0,-0.23349 0.057,-0.31779 0.1144,-0.16866 0.046,0.11939 0.1244,0.0832 0.2102,-0.0969 0.072,-0.15068 0.1018,-0.16959 0.2684,-0.16959 0.1755,0 0.1938,0.0139 0.2831,0.216 0.1279,0.28912 0.2382,0.25401 0.2382,-0.0758 0,-0.2571 0.01,-0.26456 0.1396,-0.18098 0.2067,0.12906 0.3395,-0.10359 0.1547,-0.27086 -0.216,-0.1955 -0.3526,-0.59419 -0.3971,-1.15877 -0.054,-0.68402 -0.012,-2.62236 0.085,-3.88459 0.041,-0.53358 0.067,-1.00236 0.058,-1.0417 -0.013,-0.0593 0.047,-0.0686 0.3477,-0.0542 0.1998,0.01 0.3777,0.026 0.3952,0.0364 0.017,0.0105 0.2183,0.32065 0.446,0.6892 0.2277,0.36856 0.4592,0.7228 0.5145,0.78721 l 0.1005,0.11711 -0.031,-0.24226 c -0.029,-0.22672 -0.026,-0.23604 0.046,-0.14536 0.042,0.0533 0.077,0.11535 0.078,0.13788 0,0.0225 0.1355,0.33868 0.2993,0.70255 0.1639,0.36386 0.3263,0.74878 0.3611,0.85538 0.035,0.10659 0.097,0.28744 0.1388,0.40187 0.042,0.11443 0.096,0.35088 0.1204,0.52542 0.025,0.17949 0.077,0.34168 0.118,0.37335 0.055,0.0423 0.081,0.21285 0.1068,0.69939 0.018,0.35386 0.053,0.65494 0.075,0.66907 0.06,0.037 0.054,2.57492 -0.01,2.61211 -0.027,0.0164 -0.049,0.14312 -0.049,0.28146 0,0.55365 -0.2318,1.8329 -0.4761,2.64986 -0.387,1.29464 -0.8304,2.54332 -0.9378,2.64163 -0.044,0.04 -0.1208,0.0445 -0.2536,0.015 z m -16.4907,-0.92446 c -0.036,-0.0433 0,-0.18496 0.121,-0.49662 0.094,-0.23984 0.1739,-0.49993 0.1775,-0.57799 0.01,-0.20558 -0.2105,-0.33825 -0.6806,-0.41116 -0.2085,-0.0324 -0.415,-0.0691 -0.4588,-0.0815 -0.062,-0.0177 -0.1021,0.0483 -0.1807,0.29885 -0.118,0.37601 -0.091,0.46845 0.1652,0.56104 0.1852,0.0669 0.2679,0.23572 0.1722,0.35107 -0.03,0.0364 -0.1799,0.0792 -0.3324,0.0949 -0.1527,0.0157 -0.3984,0.0424 -0.5463,0.0594 -0.2445,0.028 -0.2826,0.019 -0.4247,-0.10053 -0.1484,-0.12483 -0.162,-0.12748 -0.2747,-0.0537 -0.121,0.0793 -0.3655,0.10713 -0.3627,0.0414 0,-0.0587 0.1104,-0.17985 0.2394,-0.2687 0.072,-0.0493 0.2122,-0.0826 0.349,-0.0826 0.4383,0 0.584,-0.14474 0.6461,-0.64204 0.035,-0.28431 0,-0.34915 -0.1216,-0.20586 -0.087,0.10544 -0.1337,0.0905 -0.2168,-0.0703 -0.1251,-0.24196 -0.1012,-0.27752 0.2108,-0.31282 0.3102,-0.0351 0.3883,-0.0942 0.4874,-0.36791 0.034,-0.0933 0.079,-0.21318 0.1008,-0.26648 0.022,-0.0533 0.063,-0.19923 0.092,-0.32429 0.028,-0.12505 0.098,-0.30441 0.1535,-0.39857 0.077,-0.1311 0.092,-0.20832 0.064,-0.32981 -0.05,-0.21508 -0.035,-0.2985 0.1344,-0.68483 0.1252,-0.28699 0.1429,-0.37966 0.1291,-0.67832 -0.016,-0.34404 -0.011,-0.35437 0.151,-0.32896 0.094,0.0147 0.2838,0.42778 0.3346,0.72729 0.06,0.35112 0.1105,0.43034 0.3388,0.52577 0.1483,0.062 0.1599,0.0816 0.1324,0.22264 -0.065,0.33042 -0.088,0.61479 -0.059,0.72882 0.016,0.0655 0.1191,0.232 0.2282,0.37002 0.196,0.248 0.1979,0.25431 0.1646,0.5416 l -0.034,0.29067 0.2716,0.24216 c 0.1724,0.1536 0.2718,0.28068 0.2718,0.34747 0,0.0579 0.074,0.20907 0.1639,0.33591 0.09,0.12683 0.1917,0.30119 0.2256,0.38745 0.034,0.0863 0.137,0.23654 0.229,0.33396 0.1621,0.17155 0.1643,0.17879 0.068,0.23015 -0.1432,0.0766 -0.3728,0.0653 -0.6459,-0.0317 -0.2269,-0.0806 -0.2454,-0.0806 -0.3859,0 -0.205,0.11769 -0.3256,0.10645 -0.3908,-0.0364 -0.068,-0.14945 -0.1101,-0.1493 -0.3545,0.002 -0.2195,0.13517 -0.2817,0.14562 -0.3533,0.0593 z m -0.029,-2.20454 c -0.034,-0.24696 -0.2612,-0.74878 -0.3522,-0.77558 -0.079,-0.0233 -0.2574,0.28629 -0.3365,0.583 -0.1152,0.43261 -0.1228,0.42272 0.3257,0.42272 h 0.3942 z m 7.746,2.1834 c -0.2398,-0.007 -0.6498,-0.0382 -0.9111,-0.0685 -0.4404,-0.0512 -0.4739,-0.0626 -0.4602,-0.15678 0.01,-0.0559 0.069,-0.12653 0.1358,-0.15697 0.067,-0.0305 0.2084,-0.0966 0.3149,-0.14701 l 0.1939,-0.0917 0.036,-1.42929 c 0.019,-0.78609 0.041,-1.53829 0.048,-1.67153 0.016,-0.29606 -0.089,-0.46189 -0.3826,-0.60258 -0.1828,-0.0876 -0.3551,-0.25813 -0.3551,-0.35144 0,-0.0198 0.7472,-0.0225 1.6604,-0.006 l 1.6602,0.0302 0.1687,-0.28619 c 0.1158,-0.19635 0.1989,-0.2862 0.2649,-0.2862 0.1215,0 0.1637,0.21188 0.1676,0.84033 0,0.40963 -0.01,0.45506 -0.092,0.47746 -0.1201,0.0314 -0.2216,0.1861 -0.2908,0.44297 -0.029,0.11084 -0.074,0.20154 -0.099,0.20154 -0.024,0 -0.052,-0.14718 -0.061,-0.32706 -0.013,-0.23818 -0.028,-0.29743 -0.056,-0.21803 -0.057,0.16048 -0.1088,0.13464 -0.2165,-0.10901 l -0.096,-0.21803 h -0.4685 -0.4684 l 0.033,0.17589 c 0.029,0.15302 0.014,0.19555 -0.113,0.32705 -0.094,0.0968 -0.1647,0.23832 -0.1979,0.39341 -0.062,0.28699 -0.1937,0.60564 -0.2516,0.60564 -0.022,0 -0.041,0.0249 -0.041,0.0554 0,0.0711 0.639,0.0171 0.8193,-0.0692 0.1622,-0.0776 0.2404,-0.31114 0.2439,-0.72837 v -0.33026 l 0.1332,0.0153 c 0.1243,0.0143 0.1359,0.0355 0.1738,0.31814 0.023,0.16656 0.022,0.4391 0,0.60565 -0.037,0.26913 -0.053,0.30163 -0.145,0.29211 -0.1563,-0.0162 -0.1688,0.0957 -0.059,0.53283 0.055,0.21916 0.1116,0.44716 0.1256,0.50667 0.014,0.0595 0.01,0.14673 -0.01,0.19381 -0.031,0.0807 -0.036,0.0804 -0.084,-0.005 -0.028,-0.0499 -0.081,-0.22154 -0.1187,-0.38159 -0.084,-0.3612 -0.2014,-0.56514 -0.3452,-0.60124 -0.061,-0.0152 -0.2299,-0.0127 -0.376,0.005 l -0.2656,0.0332 v 0.40382 c 0,0.37996 0.01,0.40232 0.097,0.37848 0.087,-0.0227 0.097,-0.002 0.097,0.20074 0,0.40165 0.2574,0.7058 0.5974,0.7058 0.1525,0 0.2106,-0.0441 0.5497,-0.41681 0.2597,-0.28544 0.3841,-0.39196 0.395,-0.33797 0.01,0.0434 -0.051,0.18014 -0.1333,0.30398 -0.1423,0.21503 -0.1977,0.4508 -0.1058,0.4508 0.048,0 0.5522,-0.53227 0.6592,-0.69576 0.037,-0.057 0.086,-0.24363 0.1067,-0.41465 0.036,-0.29314 0.1177,-0.42611 0.1726,-0.2829 0.014,0.0354 -0.01,0.22263 -0.042,0.41609 -0.08,0.41935 -0.098,0.79865 -0.049,1.0104 0.034,0.14731 0.028,0.15674 -0.1492,0.20748 -0.1017,0.0293 -0.4904,0.0734 -0.8638,0.0982 -0.3735,0.0248 -0.7741,0.0786 -0.8904,0.11957 -0.1162,0.041 -0.214,0.0701 -0.2173,0.0646 0,-0.005 -0.2023,-0.016 -0.4421,-0.0233 z m -4.1569,-0.0942 c -0.017,-0.0168 -0.3095,-0.0441 -0.6501,-0.0606 -0.5847,-0.0283 -0.6204,-0.0358 -0.6343,-0.13344 -0.017,-0.12377 0.2121,-0.28003 0.4822,-0.32801 0.2445,-0.0434 0.4192,-0.19424 0.4567,-0.39433 0.017,-0.0921 0.059,-0.16748 0.092,-0.16748 0.087,0 0.127,-0.31892 0.071,-0.56797 -0.08,-0.35655 -0.6045,-1.38875 -1.0981,-2.16062 -0.1594,-0.24937 -0.2552,-0.3478 -0.3911,-0.4019 -0.3233,-0.12871 -0.4053,-0.18315 -0.4729,-0.31383 -0.085,-0.16345 -0.055,-0.18954 0.2093,-0.18954 0.1719,0 0.2091,-0.0145 0.1857,-0.0727 -0.016,-0.04 -0.042,-0.10539 -0.059,-0.14536 -0.037,-0.0925 0.069,-0.0952 0.1711,-0.004 0.042,0.0376 0.1832,0.12476 0.3138,0.19381 0.2788,0.14744 0.7032,0.17465 0.8053,0.0517 0.055,-0.0662 0.07,-0.0662 0.143,0 0.046,0.0414 0.1706,0.0739 0.2838,0.0739 0.2295,0 0.2547,0.0589 0.097,0.2265 -0.078,0.0825 -0.1027,0.16549 -0.097,0.31805 0.016,0.39377 0.3533,1.21277 0.4575,1.10869 0.092,-0.0922 0.1903,-0.0655 0.156,0.0426 -0.056,0.17644 0.075,0.10264 0.1509,-0.0848 0.041,-0.0999 0.1602,-0.35257 0.2664,-0.56143 0.1492,-0.29315 0.1807,-0.39479 0.1384,-0.44585 -0.03,-0.0369 -0.04,-0.1131 -0.021,-0.17244 0.029,-0.0939 0.021,-0.10251 -0.081,-0.0738 -0.063,0.0178 -0.1777,0.0462 -0.2549,0.063 -0.1347,0.0293 -0.139,0.0247 -0.1068,-0.11019 0.018,-0.0774 0.073,-0.19523 0.1213,-0.26184 0.085,-0.11723 0.1056,-0.12107 0.6398,-0.119 0.6322,0.003 1.0608,0.0589 1.0608,0.13962 0,0.0724 -0.4749,0.4271 -0.528,0.39434 -0.074,-0.0458 -0.1861,0.13434 -0.6306,1.01258 l -0.4403,0.87036 v 0.69539 c 0,0.67689 0.037,0.88297 0.1591,0.88269 0.2238,-5.5e-4 0.6645,0.39515 0.6645,0.59666 0,0.10092 -0.2191,0.11314 -0.2762,0.0154 -0.055,-0.0958 -1.2742,-0.0492 -1.2742,0.0487 0,0.0692 -0.059,0.088 -0.1113,0.0356 z m -10.5965,-0.25109 c 0,-0.12198 0.1577,-0.21278 0.5157,-0.29689 0.3151,-0.074 0.4301,-0.19746 0.5725,-0.61457 0.1305,-0.38202 0.2291,-1.66554 0.128,-1.66554 -0.036,0 -0.054,0.16876 -0.054,0.50281 0,0.38606 -0.016,0.51671 -0.072,0.56265 -0.058,0.0481 -0.078,0.046 -0.099,-0.0107 -0.015,-0.0388 -0.042,-0.59179 -0.061,-1.22886 l -0.034,-1.15831 -0.3559,-0.17054 c -0.3461,-0.16588 -0.492,-0.29042 -0.492,-0.42014 0,-0.0887 0.2811,-0.0806 0.4603,0.0133 0.099,0.0519 0.3417,0.085 0.7633,0.10393 0.541,0.0243 0.6294,0.0174 0.7099,-0.0555 0.051,-0.0458 0.2631,-0.1137 0.4722,-0.15098 0.5635,-0.10044 0.5677,-0.0998 0.5308,0.0846 -0.04,0.19832 -0.2408,0.41341 -0.493,0.52725 -0.1867,0.0843 -0.2002,0.105 -0.2584,0.39343 -0.034,0.16746 -0.1035,0.5116 -0.155,0.76475 -0.121,0.59425 -0.1945,1.41264 -0.1424,1.58515 0.1327,0.43937 0.3344,0.68475 0.7281,0.88559 0.2373,0.12105 0.7037,0.13258 0.8626,0.0213 0.1347,-0.0943 0.2781,-0.37022 0.3539,-0.68072 0.032,-0.13016 0.074,-0.25846 0.093,-0.2851 0.02,-0.0267 0.052,-0.10296 0.071,-0.16959 0.039,-0.13147 0.209,-0.33916 0.2781,-0.33916 0.023,0 0.036,0.26193 0.028,0.58206 -0.012,0.47112 0,0.57729 0.05,0.55704 0.035,-0.0138 0.082,-0.0143 0.1035,-8.7e-4 0.042,0.0255 -0.053,0.33369 -0.1715,0.56371 l -0.072,0.13953 -0.6407,7e-5 c -0.3525,6e-5 -1.3112,0.0145 -2.1306,0.032 l -1.4899,0.0319 z m -4.9382,-5.74645 -0.11,-0.11702 0.1136,-0.072 c 0.062,-0.0396 0.1899,-0.0867 0.2832,-0.10471 0.2459,-0.0473 0.5931,-0.17643 0.6859,-0.25495 0.052,-0.0439 0.1,-0.20815 0.1345,-0.46419 0.1316,-0.96321 0.1981,-4.61247 0.097,-5.33781 -0.047,-0.33574 -0.1982,-0.8 -0.261,-0.8 -0.014,0 -0.059,0.0806 -0.1001,0.179 l -0.074,0.17899 -0.2214,-0.33008 c -0.2786,-0.41541 -0.3816,-0.65254 -0.3132,-0.72104 0.049,-0.0492 0.8242,-0.002 1.8216,0.11153 0.2131,0.0242 0.8918,0.0594 1.508,0.0781 l 1.1206,0.034 0.082,0.13961 c 0.1145,0.19382 0.401,0.36263 0.9358,0.55128 0.533,0.18802 0.6628,0.26447 0.7558,0.44523 0.092,0.17888 0.2673,0.76816 0.3781,1.2714 0.2049,0.93005 0.247,1.20856 0.2496,1.64853 0,0.62411 -0.104,0.8468 -0.476,0.98424 -0.027,0.01 -0.01,0.0609 0.036,0.11359 0.047,0.0526 0.085,0.10939 0.085,0.12614 0,0.0168 -0.1716,0.37787 -0.3811,0.80247 -0.2095,0.4246 -0.3952,0.82836 -0.4125,0.89724 -0.026,0.1031 -0.081,0.13886 -0.3094,0.20224 -0.1529,0.0423 -0.4179,0.11919 -0.5889,0.17076 -0.171,0.0516 -0.3346,0.0938 -0.3634,0.094 -0.029,1.1e-4 -0.1498,0.0648 -0.2688,0.14379 l -0.2165,0.14359 -0.204,-0.11957 c -0.252,-0.1477 -0.2654,-0.14766 -0.5017,0.002 l -0.1919,0.12112 h -1.5914 -1.5914 z m 4.4372,-1.07474 c 0.4303,-0.34699 0.6877,-0.94242 0.8371,-1.93648 0.054,-0.36559 0.1,-0.68343 0.1,-0.7063 0,-0.0229 0.057,-0.0416 0.1279,-0.0416 h 0.1277 l -0.034,-0.32697 c -0.023,-0.21786 -0.076,-0.39975 -0.1603,-0.54507 -0.2753,-0.47339 -0.3656,-0.70988 -0.4513,-1.18106 -0.2024,-1.11277 -0.4171,-1.35587 -1.2465,-1.41131 -0.4042,-0.027 -0.5974,0.0207 -0.7234,0.17862 -0.08,0.1 -0.2252,2.84354 -0.1955,3.68794 0.027,0.7733 0.1488,1.51233 0.3363,2.04464 0.152,0.43133 0.1385,0.42291 0.6491,0.40408 0.4148,-0.0153 0.4594,-0.027 0.6324,-0.1665 z m -1.1836,-4.27116 c 0.174,-0.70367 0.3383,-1.24318 0.4585,-1.50599 l 0.12,-0.2624 0.218,0.0299 c 0.2194,0.0301 0.5004,0.18798 0.5004,0.28117 0,0.0276 -0.1035,0.1774 -0.2301,0.33288 -0.1266,0.15549 -0.3392,0.43794 -0.4724,0.62765 -0.1333,0.18973 -0.2641,0.37095 -0.2907,0.40272 -0.027,0.0318 -0.1114,0.15042 -0.1883,0.26368 -0.077,0.11325 -0.1552,0.20592 -0.1741,0.20592 -0.019,0 0.01,-0.16898 0.059,-0.3755 z m 5.6815,5.07476 c -0.016,-0.0268 -0.2791,-0.0495 -0.5961,-0.0514 -0.6475,-0.004 -1.0525,-0.0512 -1.1333,-0.13213 -0.086,-0.086 0.075,-0.23251 0.3247,-0.29537 0.1167,-0.0294 0.2298,-0.0807 0.2514,-0.11402 0.022,-0.0333 0.054,-0.66018 0.07,-1.393 0.017,-0.73284 0.047,-1.42226 0.065,-1.53206 0.04,-0.23251 -0.057,-0.4668 -0.23,-0.55633 -0.2079,-0.10787 -0.5212,-0.39042 -0.4896,-0.44158 0.022,-0.0353 0.331,-0.0417 0.9817,-0.0203 0.5225,0.0171 1.2333,0.0338 1.5798,0.0369 l 0.6298,0.006 0.157,-0.26022 c 0.2799,-0.46393 0.3883,-0.31437 0.3967,0.54731 0,0.3428 -0.01,0.37831 -0.1181,0.46029 -0.067,0.0488 -0.16,0.19617 -0.2069,0.32737 -0.1267,0.35433 -0.2016,0.34092 -0.1681,-0.03 0.025,-0.28053 0.021,-0.29999 -0.053,-0.23891 -0.099,0.082 -0.1878,0.0209 -0.2748,-0.18923 l -0.06,-0.14375 h -0.4222 c -0.2321,0 -0.4359,0.0138 -0.4527,0.0306 -0.016,0.0168 -0.01,0.0711 0.017,0.12068 0.053,0.098 -0.032,0.31337 -0.1668,0.42527 -0.04,0.0334 -0.099,0.18316 -0.1298,0.33275 -0.056,0.27076 -0.1102,0.40032 -0.2295,0.55037 -0.051,0.0647 -0.051,0.0833 0,0.10353 0.1092,0.0419 0.7665,-0.0919 0.8471,-0.17248 0.052,-0.052 0.085,-0.2111 0.1052,-0.50324 0.029,-0.41337 0.033,-0.42719 0.1482,-0.42719 0.099,0 0.1259,0.0318 0.1615,0.1938 0.043,0.19631 0.014,0.90931 -0.042,0.99809 -0.019,0.0311 -0.054,0.0277 -0.099,-0.009 -0.038,-0.0318 -0.079,-0.048 -0.091,-0.0362 -0.053,0.0531 -0.024,0.33637 0.067,0.67057 0.1083,0.39329 0.1291,0.62988 0.055,0.62988 -0.045,0 -0.1049,-0.18525 -0.1718,-0.53297 -0.018,-0.0933 -0.086,-0.25135 -0.1501,-0.35128 -0.1021,-0.15798 -0.1416,-0.18169 -0.3033,-0.18169 -0.1022,0 -0.2545,0.024 -0.3384,0.0532 l -0.1526,0.0532 v 0.39256 c 0,0.30533 0.013,0.37964 0.058,0.33443 0.1034,-0.10345 0.1356,-0.0627 0.1358,0.172 10e-5,0.14418 0.036,0.28919 0.097,0.38824 0.1152,0.18893 0.3785,0.32719 0.5439,0.28565 0.065,-0.0163 0.266,-0.19365 0.4468,-0.39415 0.4348,-0.4819 0.5531,-0.49696 0.2651,-0.0337 -0.086,0.13861 -0.1425,0.28819 -0.1333,0.35341 0.015,0.10268 0.044,0.0846 0.3176,-0.19713 0.3554,-0.36596 0.4496,-0.54343 0.4496,-0.84719 0,-0.15751 0.023,-0.2329 0.074,-0.25304 0.1174,-0.045 0.1243,-0.006 0.067,0.37579 -0.1034,0.68882 -0.1286,0.98871 -0.087,1.03439 0.075,0.0821 0.045,0.16084 -0.074,0.1905 -0.063,0.0159 -0.4702,0.0615 -0.9036,0.10132 -0.513,0.0471 -0.8269,0.0978 -0.8994,0.14529 -0.068,0.0451 -0.1227,0.0547 -0.141,0.0251 z m 5.0673,-0.2482 c -0.033,-0.11016 -0.056,-0.37725 -0.052,-0.59354 0.01,-0.39265 -0.027,-0.61127 -0.098,-0.61127 -0.021,0 -0.05,0.0327 -0.066,0.0727 -0.016,0.04 -0.069,0.0727 -0.1194,0.0727 -0.07,0 -0.1335,-0.10458 -0.2714,-0.44817 -0.099,-0.2465 -0.2083,-0.50269 -0.2429,-0.56931 -0.035,-0.0666 -0.091,-0.20834 -0.1252,-0.31493 -0.035,-0.1066 -0.1,-0.27012 -0.146,-0.36339 -0.046,-0.0933 -0.1135,-0.24044 -0.1497,-0.32705 -0.036,-0.0866 -0.077,-0.15749 -0.09,-0.15753 -0.014,-3e-5 -0.014,0.5614 0,1.24763 0.021,1.0635 0.037,1.2763 0.1116,1.44149 0.1141,0.25323 0.3045,0.44821 0.4738,0.48541 0.092,0.0202 0.1272,0.0524 0.1092,0.0992 -0.036,0.0926 -1.6591,0.10303 -1.7508,0.0113 -0.112,-0.11197 -0.055,-0.18429 0.2523,-0.32395 0.1734,-0.0786 0.3393,-0.19118 0.3756,-0.25485 0.05,-0.0885 0.065,-0.44526 0.065,-1.59182 0,-1.82377 0.019,-1.75671 -0.5164,-1.7948 -0.3423,-0.0243 -0.5253,-0.0932 -0.5253,-0.19765 0,-0.0234 0.218,-0.0425 0.4845,-0.0425 h 0.4846 v -0.14535 c 0,-0.08 0.025,-0.14536 0.056,-0.14536 0.067,0 0.5632,0.27198 0.6744,0.36944 0.067,0.0583 0.089,0.0542 0.165,-0.0299 0.1143,-0.12631 0.3366,-0.12447 0.4649,0.003 0.1499,0.14985 0.2304,0.37894 0.2645,0.75253 0.039,0.42922 0.1697,0.83885 0.4692,1.47199 l 0.2407,0.50874 0.16,-0.33916 c 0.236,-0.50033 0.6714,-1.89175 0.6455,-2.0629 -0.01,-0.0611 -0.094,-0.14725 -0.2063,-0.20998 -0.3529,-0.19688 -0.2929,-0.24045 0.2692,-0.19572 0.6146,0.0489 0.6015,0.0489 1.3629,-4e-5 0.531,-0.0342 0.6177,-0.0297 0.6177,0.032 0,0.10056 -0.1378,0.20967 -0.3517,0.27831 -0.2247,0.0722 -0.2582,0.13336 -0.3771,0.68974 -0.1256,0.58819 -0.1422,2.43332 -0.023,2.47938 0.048,0.0184 0.073,0.0944 0.073,0.22473 0,0.23643 0.063,0.27166 0.3054,0.17045 l 0.1791,-0.0749 v 0.19445 0.19446 h -0.4585 c -0.2522,0 -0.6781,0.025 -0.9464,0.0555 -0.4887,0.0556 -0.727,0.0221 -0.727,-0.10208 0,-0.0554 0.37,-0.25007 0.6435,-0.33863 0.179,-0.058 0.1822,-0.0632 0.1453,-0.23675 -0.049,-0.23087 -0.048,-0.65779 0,-0.9113 0.035,-0.17556 0.026,-0.21389 -0.071,-0.30431 -0.094,-0.0877 -0.102,-0.11785 -0.052,-0.19821 0.072,-0.11515 0.081,-0.64847 0.011,-0.60481 -0.028,0.0177 -0.048,-0.0368 -0.048,-0.13324 0,-0.0898 -0.029,-0.20247 -0.064,-0.25049 -0.058,-0.0795 -0.071,-0.0805 -0.1403,-0.0108 -0.042,0.0421 -0.1578,0.33339 -0.2571,0.64736 -0.5165,1.63233 -0.6866,2.06911 -0.9536,2.44836 -0.1303,0.18523 -0.2072,0.16666 -0.2772,-0.0671 z m 5.6892,0.11557 c -0.8652,-0.16419 -1.9433,-0.45696 -2.0405,-0.55416 -0.043,-0.0435 -0.117,-0.19112 -0.1634,-0.32815 -0.046,-0.13702 -0.1336,-0.30589 -0.1939,-0.37526 -0.1002,-0.11511 -0.1095,-0.17314 -0.1077,-0.66468 0,-0.92011 0.142,-1.39699 0.5314,-1.82803 0.2412,-0.26704 0.6739,-0.54065 1.1015,-0.69657 0.3321,-0.12114 0.3741,-0.12566 0.6995,-0.0751 0.1905,0.0295 0.3836,0.0717 0.4293,0.0936 0.046,0.0219 0.2091,0.10096 0.3631,0.1756 0.3307,0.16023 0.7425,0.54927 0.9227,0.87166 0.36,0.64398 0.4235,1.46911 0.1579,2.04931 -0.1676,0.36583 -0.6181,0.80975 -1.1214,1.1049 -0.3912,0.22939 -0.448,0.25167 -0.5785,0.22693 z m 0.4588,-1.09024 c 0.1287,-0.27314 0.2592,-0.59046 0.2899,-0.70517 0.055,-0.20813 0.034,-0.57704 -0.047,-0.76048 -0.023,-0.0533 -0.078,-0.28223 -0.1216,-0.50874 -0.093,-0.48329 -0.2946,-0.8706 -0.5278,-1.01477 -0.1124,-0.0694 -0.2434,-0.0996 -0.4324,-0.0996 -0.2302,0 -0.2953,0.0212 -0.4304,0.14019 -0.4094,0.36067 -0.5689,1.07016 -0.4769,2.12286 0.059,0.67351 0.1554,1.06608 0.3011,1.22241 0.084,0.0898 0.1498,0.0999 0.6518,0.0999 h 0.5587 z m 6.2819,1.07185 c -0.01,-0.0365 -0.044,-0.18672 -0.074,-0.33368 -0.035,-0.17558 -0.1056,-0.3251 -0.2033,-0.43606 -0.082,-0.0929 -0.1777,-0.2346 -0.213,-0.31493 -0.06,-0.13557 -0.6289,-1.00364 -1.0639,-1.6224 -0.5297,-0.75331 -1.7847,-2.03497 -1.9927,-2.03497 -0.076,0 -0.1441,0.41987 -0.2421,1.502 -0.1251,1.38156 -0.1396,2.0752 -0.048,2.28956 0.1156,0.27047 0.4204,0.47217 0.7134,0.47217 0.1293,0 0.235,0.0177 0.235,0.0394 0,0.0216 -0.063,0.0996 -0.1396,0.17311 l -0.1396,0.13373 -1.1322,0.0412 c -0.6228,0.0227 -1.1511,0.0229 -1.1741,7.4e-4 -0.066,-0.064 0,-0.13324 0.363,-0.37139 0.3718,-0.24497 0.7124,-0.60708 0.8012,-0.85195 0.041,-0.11138 0.058,-0.74616 0.061,-2.14918 0,-1.83806 0,-1.99691 -0.081,-2.06641 -0.047,-0.0414 -0.3027,-0.18911 -0.5692,-0.32823 -0.5526,-0.28847 -0.6204,-0.34033 -0.5806,-0.44407 0.021,-0.0531 0.1291,-0.0835 0.3773,-0.10577 0.7153,-0.064 1.4202,-0.18634 1.5937,-0.27663 0.099,-0.0512 0.216,-0.0932 0.2611,-0.0932 0.1183,0 0.9245,0.41049 1.1968,0.60943 0.2916,0.21293 0.3609,0.35042 0.2777,0.55122 -0.037,0.0904 -0.096,0.14754 -0.1522,0.14754 -0.1271,0 -0.1167,0.0286 0.1,0.27423 0.1047,0.11904 0.3371,0.44943 0.5162,0.73421 0.6656,1.05776 1.0724,1.60794 1.1889,1.60794 0.078,0 0.029,-1.88419 -0.054,-2.07042 -0.06,-0.13414 -0.06,-0.18967 0,-0.38761 0.108,-0.37587 0.1155,-0.5684 0.029,-0.7365 -0.1182,-0.22861 -0.2166,-0.17393 -0.3361,0.18673 -0.056,0.17111 -0.127,0.31915 -0.1565,0.32896 -0.063,0.0209 -0.2116,-0.53049 -0.2116,-0.78449 0,-0.20506 0.039,-0.22518 0.6056,-0.31284 0.215,-0.0332 0.4802,-0.11096 0.5954,-0.17447 0.1968,-0.10847 0.2299,-0.11199 0.6293,-0.0667 0.2319,0.0263 0.4421,0.0685 0.4672,0.0935 0.066,0.066 -0.068,0.29188 -0.2033,0.34343 -0.067,0.0254 -0.1952,0.0236 -0.316,-0.004 -0.3812,-0.088 -0.3453,-0.19488 -0.4357,1.29518 -0.1035,1.70479 -0.1323,2.92862 -0.087,3.6752 0.032,0.51675 0.055,0.62604 0.1922,0.91983 0.086,0.18337 0.1909,0.37203 0.2337,0.41925 0.1186,0.13113 0.036,0.15875 -0.1807,0.0607 -0.1809,-0.0815 -0.1998,-0.0821 -0.2549,-0.008 -0.081,0.10907 -0.3664,0.16349 -0.3927,0.075 z m -0.2507,-3.26427 c -0.1192,-0.3029 -1.1045,-1.82482 -1.3642,-2.10715 -0.1243,-0.13506 -0.1347,-0.17399 -0.059,-0.22091 0.029,-0.0178 0.086,0.0148 0.1258,0.0724 0.041,0.0576 0.1274,0.16357 0.1934,0.2354 0.066,0.0718 0.029,0.004 -0.081,-0.15031 -0.1103,-0.15449 -0.2097,-0.32805 -0.2208,-0.38569 -0.011,-0.0576 -0.069,-0.15164 -0.13,-0.2089 -0.061,-0.0573 -0.3744,-0.35578 -0.6976,-0.66339 -0.3234,-0.30762 -0.6343,-0.58411 -0.691,-0.61444 -0.056,-0.0303 0.077,0.11952 0.2972,0.33301 0.2615,0.25368 0.3708,0.38866 0.3154,0.38957 -0.075,8.7e-4 -0.6257,-0.48857 -1.1735,-1.04472 -0.6056,-0.6148 -2.179,-1.481 -3.4657,-1.90803 -0.712,-0.23628 -0.8806,-0.28205 -1.502,-0.40778 -1.2018,-0.24317 -2.5206,-0.31574 -3.6807,-0.20255 -0.8233,0.0803 -2.0937,0.28987 -2.2419,0.36978 -0.103,0.0556 -0.2307,0.0592 -0.2307,0.007 0,-0.0626 0.2811,-0.14985 1.1385,-0.3535 0.1067,-0.0253 0.4119,-0.0771 0.6784,-0.11512 0.4475,-0.0638 0.4594,-0.0682 0.1567,-0.0571 -0.2119,0.008 -0.322,-0.006 -0.3112,-0.0389 0.01,-0.028 0.069,-0.0584 0.134,-0.0678 0.065,-0.009 0.1283,-0.032 0.1416,-0.0503 0.013,-0.0183 0.1536,-0.0761 0.3117,-0.12836 0.1581,-0.0523 0.3325,-0.13158 0.3876,-0.17624 0.093,-0.0755 0.094,-0.0835 0.015,-0.11463 -0.074,-0.029 -1.7062,0.15337 -1.7839,0.19938 -0.016,0.009 -0.2442,0.0637 -0.5074,0.12071 -0.4574,0.0991 -1.7364,0.5015 -1.838,0.57826 -0.027,0.0202 -0.103,0.0524 -0.1696,0.0717 -0.067,0.0193 -0.3283,0.13917 -0.5814,0.26641 -0.2532,0.12725 -0.5148,0.24767 -0.5814,0.26759 l -0.1212,0.0363 0.1331,-0.10635 c 0.1512,-0.12077 1.2574,-0.69843 1.4416,-0.7528 0.067,-0.0196 0.1865,-0.0644 0.2665,-0.0994 0.3659,-0.16026 1.1946,-0.48298 1.502,-0.5849 0.2554,-0.0847 0.2913,-0.10596 0.1453,-0.0862 -0.34,0.046 -1.1162,0.28815 -1.6231,0.5063 -0.1732,0.0745 -0.4676,0.19214 -0.6541,0.26131 -0.394,0.1461 -0.4596,0.17553 -1.1386,0.51094 -0.6621,0.32704 -1.0418,0.56169 -1.7343,1.07182 -0.5922,0.4362 -1.7145,1.42833 -1.8031,1.59394 -0.077,0.14355 -0.1717,0.11714 -0.3425,-0.0953 -0.1201,-0.14947 -0.1921,-0.19444 -0.3293,-0.20591 l -0.1756,-0.0146 0.7752,-0.77522 c 1.0402,-1.04025 2.286,-2.09224 3.1009,-2.61836 0.6311,-0.40757 1.4898,-0.81131 2.3256,-1.09358 0.2399,-0.081 0.4797,-0.16686 0.533,-0.19082 0.5902,-0.26534 2.0085,-0.6263 2.7752,-0.70629 0.1673,-0.0175 0.3158,-0.0505 0.3299,-0.0734 0.034,-0.0545 2.1034,-0.0543 2.1034,1.8e-4 0,0.0341 0.3295,0.0849 0.7268,0.11201 0.5517,0.0377 3.2692,0.72846 3.4134,0.86766 0.025,0.0244 0.075,0.0445 0.1115,0.0445 0.1039,0 0.8236,0.2868 1.2476,0.49709 1.2556,0.62283 1.9115,0.96242 2.0763,1.07508 0.1949,0.13311 0.3909,0.21413 0.8792,0.36337 0.3175,0.097 0.751,0.32421 0.751,0.39357 0,0.024 -0.1098,3.7e-4 -0.2441,-0.0526 -0.2878,-0.11348 -0.2889,-0.11361 -0.2887,-0.0357 10e-5,0.0333 0.1364,0.16932 0.3029,0.30223 0.674,0.53824 1.3396,1.26128 1.4857,1.61412 0.073,0.17509 0.2864,0.30031 0.5129,0.30031 0.1539,0 0.4569,0.18177 0.6055,0.36335 0.068,0.0832 0.064,0.0866 -0.064,0.0548 -0.075,-0.0187 -0.2898,-0.0532 -0.4772,-0.0768 -0.3092,-0.0389 -0.3602,-0.0325 -0.5502,0.0685 -0.1152,0.0613 -0.4238,0.15051 -0.6857,0.19836 -0.2619,0.0479 -0.5052,0.10918 -0.5407,0.13627 -0.043,0.0332 -0.057,0.1211 -0.042,0.2701 0.039,0.39638 0.1492,0.8363 0.2156,0.86177 0.089,0.0343 0.24,-0.11221 0.2767,-0.26898 0.016,-0.0713 0.055,-0.19234 0.086,-0.26893 0.052,-0.13003 0.06,-0.13343 0.1195,-0.0513 0.086,0.11698 0.081,0.41888 -0.01,0.63409 -0.091,0.21673 -0.092,0.37156 -0.01,0.54002 0.071,0.13767 0.132,1.3179 0.068,1.31789 -0.019,0 -0.08,-0.10356 -0.1356,-0.23014 -0.1178,-0.26714 -0.5402,-0.93115 -0.5928,-0.93207 -0.02,-3.6e-4 0.047,0.13565 0.1483,0.3022 0.2735,0.44957 0.5963,1.10858 0.5731,1.16979 -0.011,0.0295 -0.037,0.01 -0.059,-0.0433 z m -8.2594,-6.80443 c -0.1808,-0.055 -0.6094,-0.1137 -0.575,-0.0789 0.037,0.038 0.4152,0.11329 0.576,0.11481 l 0.1211,8.7e-4 z m -0.7985,-0.14836 c -0.054,-0.0229 -0.2059,-0.0397 -0.3392,-0.0375 l -0.2422,0.004 0.2422,0.0332 c 0.1333,0.0183 0.2859,0.0351 0.3392,0.0375 l 0.097,0.004 z m 0.6662,-0.0321 c -0.033,-0.0134 -0.088,-0.0134 -0.1211,0 -0.034,0.0134 -0.01,0.0244 0.061,0.0244 0.067,0 0.094,-0.011 0.061,-0.0244 z m -1.4051,-0.0505 c -0.06,-0.0116 -0.1581,-0.0116 -0.218,0 -0.06,0.0116 -0.011,0.021 0.109,0.021 0.1199,0 0.169,-0.009 0.109,-0.021 z m 1.0296,-0.0143 c -0.08,-0.0203 -0.2107,-0.0374 -0.2907,-0.0379 -0.1411,-8.6e-4 -0.1418,1.8e-4 -0.024,0.0379 0.067,0.0213 0.1974,0.0383 0.2907,0.0379 l 0.1696,-8.6e-4 z m -0.5814,-0.0969 c -0.08,-0.0203 -0.2762,-0.036 -0.436,-0.0348 l -0.2908,0.002 0.2665,0.0326 c 0.1465,0.018 0.3428,0.0337 0.4361,0.0348 l 0.1695,0.002 z m -0.9811,-0.0835 c -0.087,-0.0107 -0.2284,-0.0107 -0.315,0 -0.087,0.0107 -0.016,0.0196 0.1575,0.0196 0.1732,0 0.2441,-0.009 0.1575,-0.0196 z m -2.9677,0.20981 c 0,-0.0105 0.033,-0.0316 0.073,-0.0469 0.04,-0.0153 0.073,-0.007 0.073,0.019 0,0.0258 -0.033,0.0469 -0.073,0.0469 -0.04,0 -0.073,-0.009 -0.073,-0.019 z"
         id="path110" />
    </g>
  </g>
</svg>
