<?xml version="1.0" encoding="UTF-8" standalone="no"?>
<!-- Created with Inkscape (http://www.inkscape.org/) -->

<svg
   width="41.008999mm"
   height="41.008999mm"
   viewBox="0 0 41.008999 41.008999"
   version="1.1"
   id="svg1"
   inkscape:version="1.4.2 (f4327f4, 2025-05-13)"
   sodipodi:docname="327.svg"
   xmlns:inkscape="http://www.inkscape.org/namespaces/inkscape"
   xmlns:sodipodi="http://sodipodi.sourceforge.net/DTD/sodipodi-0.dtd"
   xmlns="http://www.w3.org/2000/svg"
   xmlns:svg="http://www.w3.org/2000/svg">
  <sodipodi:namedview
     id="namedview1"
     pagecolor="#ffffff"
     bordercolor="#000000"
     borderopacity="0.25"
     inkscape:showpageshadow="2"
     inkscape:pageopacity="0.0"
     inkscape:pagecheckerboard="0"
     inkscape:deskcolor="#d1d1d1"
     inkscape:document-units="mm"
     inkscape:zoom="1.4513545"
     inkscape:cx="86.470947"
     inkscape:cy="71.657199"
     inkscape:window-width="1050"
     inkscape:window-height="1081"
     inkscape:window-x="857"
     inkscape:window-y="0"
     inkscape:window-maximized="0"
     inkscape:current-layer="layer1" />
  <defs
     id="defs1" />
  <g
     inkscape:label="Layer 1"
     inkscape:groupmode="layer"
     id="layer1"
     transform="translate(333.37504,1257.5646)">
    <g
       id="g103"
       transform="translate(-1416.2376,-1082.4235)">
      <ellipse
         style="fill:none;stroke:#ff00ff;stroke-width:0.1;stroke-dasharray:none;stroke-opacity:1"
         id="path1138-9-4-0-0-1-2-8-1-8-1-17-4-7-6-1-7"
         cx="1103.3671"
         cy="-154.63658"
         rx="18.492125"
         ry="18.492126" />
      <circle
         style="fill:none;stroke:#0000ff;stroke-width:0.1;stroke-linecap:round;stroke-dasharray:none;stroke-opacity:1;paint-order:markers stroke fill"
         id="circle6343-5"
         cx="1103.3671"
         cy="-169.64755"
         r="2" />
      <circle
         style="fill:none;stroke:#ff0000;stroke-width:0.1;stroke-dasharray:none"
         id="circle6345-1"
         cx="1103.3671"
         cy="-154.63658"
         r="19.954653" />
      <path
         style="fill:#000000;stroke-width:0.189803"
         d="m 1101.7912,-137.23792 c -0.7885,-0.83786 -1.1655,-1.43547 -1.4583,-2.31175 -0.1604,-0.47989 -0.1783,-0.58833 -0.1783,-1.07621 v -0.54255 l 0.2514,0.32293 c 0.4495,0.57729 0.7101,0.9991 0.9544,1.54484 0.273,0.60983 0.8638,2.30171 0.8423,2.41189 -0.01,0.0443 -0.1706,-0.093 -0.4115,-0.34915 z m 3.236,0.34879 c 0,-0.13146 0.5888,-1.82226 0.8232,-2.35465 0.2193,-0.4983 0.5938,-1.10719 0.9985,-1.62329 l 0.2308,-0.29426 0.015,0.31937 c 0.042,0.88095 -0.3326,1.96482 -0.9772,2.83032 -0.348,0.46725 -1.0885,1.22961 -1.0903,1.12251 z m -2.5728,-0.43234 c -0.2471,-0.47464 -0.3576,-0.80194 -0.2244,-0.66506 0.089,0.0915 0.5106,1.04652 0.4769,1.08019 -0.013,0.0132 -0.1268,-0.17365 -0.2525,-0.41513 z m 2.0694,0.40844 c 0,-0.0922 0.4069,-0.99179 0.486,-1.0735 0.064,-0.0662 0.068,-0.0571 0.037,0.0753 -0.058,0.24538 -0.5227,1.13194 -0.5231,0.99817 z m -1.5736,-0.49714 c -0.2811,-0.56611 -0.4462,-1.20502 -0.4252,-1.64546 l 0.015,-0.31192 0.1627,0.3114 c 0.089,0.17127 0.2076,0.47635 0.2625,0.67796 0.098,0.36165 0.2709,1.39468 0.2383,1.4273 -0.01,0.009 -0.1232,-0.19744 -0.2532,-0.45928 z m 1.0712,0.46066 c 0,-0.0188 0.046,-0.32206 0.1016,-0.67376 0.1162,-0.731 0.1997,-1.01774 0.4202,-1.44296 l 0.1562,-0.30132 0.015,0.31192 c 0.021,0.43922 -0.1453,1.08567 -0.4212,1.63678 -0.2327,0.46502 -0.2716,0.53226 -0.2716,0.46934 z m -3.2157,-0.57249 c -0.4697,-0.47081 -0.9525,-1.09299 -0.9525,-1.22743 0,-0.0457 0.4022,0.37359 0.8341,0.86951 0.3646,0.41858 0.7345,0.89777 0.6931,0.89777 -0.02,0 -0.2786,-0.24293 -0.5747,-0.53985 z m 5.2494,0.24429 c 0.2935,-0.37397 0.6161,-0.74685 1.0695,-1.23612 0.2603,-0.28087 0.3078,-0.3162 0.2363,-0.17576 -0.2243,0.44099 -0.9915,1.32695 -1.4061,1.62382 -0.1262,0.0904 -0.11,0.0561 0.1003,-0.21194 z m -6.2093,-0.49534 c -0.3172,-0.32456 -0.6959,-0.75961 -0.8417,-0.96676 -0.3379,-0.48019 -0.701,-1.2012 -0.9055,-1.79803 -0.1678,-0.48973 -0.4527,-1.69779 -0.4541,-1.92534 0,-0.11063 0.076,-0.1937 0.1786,-0.1937 0.035,0 0.5544,0.7199 0.6439,0.89343 0.047,0.0909 0.1946,0.47506 0.3283,0.85372 0.2675,0.75824 0.9306,2.37125 1.17,2.84624 0.084,0.16662 0.23,0.42406 0.3245,0.57208 0.094,0.14803 0.163,0.27799 0.1522,0.28881 -0.011,0.0108 -0.2791,-0.24588 -0.5962,-0.57045 z m 6.9377,0.5775 c 0,-0.0197 0.076,-0.15482 0.1689,-0.30037 0.093,-0.14554 0.2373,-0.40022 0.3207,-0.56594 0.2466,-0.48977 0.8969,-2.06955 1.1651,-2.83021 0.2962,-0.84023 0.3396,-0.92876 0.6884,-1.40073 0.2804,-0.3795 0.2969,-0.39205 0.4171,-0.31605 0.09,0.0568 0.032,0.44818 -0.2034,1.38321 -0.3724,1.47675 -0.9403,2.46391 -2.051,3.56459 -0.2782,0.27569 -0.5058,0.48516 -0.5058,0.4655 z m -8.2695,-1.60703 c -0.4501,-0.46572 -0.7774,-0.91289 -1.0386,-1.41869 -0.1141,-0.22096 -0.2163,-0.42435 -0.227,-0.45197 -0.011,-0.0276 0.1788,0.19837 0.4211,0.50219 0.3882,0.48651 1.2612,1.73255 1.214,1.73255 -0.01,0 -0.1759,-0.16384 -0.3695,-0.36408 z m 10.2145,-0.21343 c 0.35,-0.5266 1.3157,-1.79418 1.2625,-1.65723 -0.22,0.56608 -0.8376,1.46106 -1.3517,1.95854 l -0.3113,0.30131 z m -5.5482,-0.009 c -0.1119,-0.27109 -0.2597,-0.67369 -0.3286,-0.89465 -0.1284,-0.41154 -0.2592,-1.12392 -0.2145,-1.16853 0.014,-0.0137 0.1615,0.0628 0.3285,0.17006 0.3382,0.21713 0.3675,0.27733 0.4525,0.93181 0.059,0.45628 0.064,1.29937 0.01,1.38817 -0.028,0.0444 -0.1084,-0.0952 -0.2452,-0.42686 z m 0.5749,0.13147 c -0.033,-0.3882 0.026,-1.02791 0.1379,-1.50795 0.039,-0.16873 0.079,-0.31243 0.087,-0.31935 0.01,-0.007 0.1401,-0.0954 0.292,-0.19665 l 0.2762,-0.18409 0.016,0.18921 c 0.019,0.22576 -0.058,0.64604 -0.1991,1.07911 -0.1485,0.4554 -0.5014,1.29462 -0.5444,1.29462 -0.021,0 -0.05,-0.15971 -0.066,-0.3549 z m -1.6801,-0.009 c -0.2235,-0.23916 -0.9676,-1.41162 -1.2092,-1.90521 -0.2444,-0.49932 -0.5344,-1.28886 -0.4897,-1.3335 0.012,-0.0119 0.3155,0.20066 0.6747,0.47241 l 0.6531,0.4941 0.058,0.2762 c 0.032,0.15191 0.148,0.6795 0.2582,1.17242 0.1103,0.49292 0.1915,0.90526 0.1804,0.9163 -0.011,0.0111 -0.067,-0.0307 -0.1254,-0.0927 z m 2.9527,0.0809 c 0,-0.0315 0.064,-0.33663 0.1445,-0.67795 0.081,-0.34133 0.1833,-0.81268 0.2281,-1.04745 0.045,-0.23477 0.1014,-0.47477 0.1256,-0.53334 0.045,-0.10844 1.2961,-1.102 1.3366,-1.06144 0.046,0.046 -0.2427,0.83558 -0.4861,1.32953 -0.3648,0.74014 -1.3419,2.18233 -1.3487,1.99065 z m -7.6138,-0.56235 c -1.3114,-1.14312 -1.9604,-2.30387 -2.2035,-3.94102 -0.1033,-0.69576 -0.098,-1.0644 0.019,-1.32122 0.1918,-0.42246 0.2157,-0.38281 0.6349,1.05098 0.5289,1.80893 0.9608,2.84411 1.6465,3.9466 0.2129,0.34221 0.3793,0.62987 0.3699,0.63925 -0.01,0.009 -0.2192,-0.1592 -0.4663,-0.37459 z m 11.9306,0.37885 c 0,-0.0129 0.1483,-0.25766 0.3294,-0.54407 0.681,-1.0764 1.1235,-2.11992 1.6775,-3.95499 0.3653,-1.20987 0.4155,-1.35373 0.4789,-1.37217 0.028,-0.008 0.103,0.0871 0.1675,0.21139 0.1089,0.20986 0.1151,0.2654 0.087,0.77839 -0.048,0.86778 -0.2733,1.76521 -0.6193,2.46072 -0.297,0.59711 -0.6182,1.03315 -1.1669,1.58394 -0.4762,0.47804 -0.9542,0.89721 -0.9542,0.83679 z m -9.3749,-0.23883 c -0.4302,-0.62773 -1.0968,-1.9165 -1.3886,-2.68498 -0.1351,-0.3558 -0.3998,-1.3319 -0.3694,-1.36229 0.04,-0.0401 1.1676,1.58902 1.2506,1.80705 0.1381,0.36229 0.6973,2.3534 0.6776,2.41246 -0.01,0.0281 -0.086,-0.0494 -0.1702,-0.17224 z m 7.1151,0.16004 c 0,-0.085 0.6412,-2.29224 0.7222,-2.48611 0.059,-0.14235 1.045,-1.55484 1.1958,-1.71393 0.052,-0.0543 0.046,-0.0196 -0.09,0.55241 -0.1807,0.76039 -0.7354,1.99154 -1.3963,3.09901 -0.2862,0.47957 -0.4317,0.66446 -0.4317,0.54862 z m -10.9945,-1.02338 c -0.3596,-0.43571 -0.7062,-1.00635 -0.9068,-1.49283 -0.1566,-0.37989 -0.1199,-0.43542 0.057,-0.086 0.058,0.11551 0.3257,0.549 0.594,0.9633 0.7164,1.10619 0.7728,1.24184 0.2559,0.6155 z m 14.7669,0.25078 c 0.033,-0.0621 0.28,-0.45217 0.549,-0.86671 0.269,-0.41455 0.5412,-0.86087 0.6048,-0.99182 0.1869,-0.38459 0.2074,-0.27283 0.028,0.15109 -0.1981,0.4677 -0.5121,0.98671 -0.8864,1.46503 -0.2724,0.34823 -0.4118,0.46272 -0.2952,0.24241 z m -15.5608,-0.5524 c -0.9589,-1.22716 -1.5926,-2.47019 -1.8497,-3.62832 -0.09,-0.40651 -0.1281,-1.2405 -0.06,-1.30943 0.1233,-0.12363 0.5067,0.56978 0.738,1.33454 0.5222,1.72665 0.8787,2.71124 1.2318,3.40233 0.201,0.39359 0.3602,0.71562 0.3536,0.71562 -0.01,0 -0.193,-0.23164 -0.4142,-0.51474 z m 16.2672,0.43941 c 0.01,-0.0276 0.1588,-0.32872 0.3324,-0.66909 0.3715,-0.72863 0.5239,-1.1376 1.0135,-2.72068 0.3541,-1.1453 0.6096,-1.75732 0.8085,-1.93738 0.053,-0.0481 0.1135,-0.0707 0.1341,-0.0501 0.076,0.076 0.025,0.96049 -0.08,1.39599 -0.1997,0.8266 -0.7046,1.94851 -1.222,2.71592 -0.3291,0.48797 -1.0248,1.38062 -0.9862,1.26534 z m -14.1668,-1.31824 c -0.8152,-1.3545 -1.7092,-3.61944 -1.6521,-4.18619 0.015,-0.14984 0.037,-0.12906 0.526,0.48499 l 0.5102,0.64152 0.3279,1.10926 c 0.3551,1.20122 0.635,2.22695 0.6352,2.32705 10e-5,0.14408 -0.098,0.038 -0.3472,-0.37663 z m 12.1221,0.25109 c 0.054,-0.29186 0.8762,-3.13263 0.9488,-3.27816 0.035,-0.0711 0.2775,-0.3958 0.5379,-0.72151 0.4281,-0.53567 0.4749,-0.57924 0.4897,-0.4566 0.04,0.32997 -0.3059,1.4524 -0.7658,2.48518 -0.3973,0.89223 -1.1021,2.15941 -1.2011,2.15941 -0.024,0 -0.029,-0.0847 -0.01,-0.18832 z m -6.1617,-1.13673 c -0.2422,-0.0571 -0.3541,-0.1439 -1.2052,-0.9348 -0.4152,-0.38588 -0.6404,-0.74546 -0.6411,-1.02366 0,-0.4414 0.2324,-0.84328 0.5879,-1.01196 0.2493,-0.11831 1.2908,-0.17913 2.1862,-0.12765 0.7481,0.043 0.9926,0.12754 1.208,0.4177 0.277,0.37311 0.3091,0.78822 0.09,1.16805 -0.1872,0.32489 -1.3572,1.42762 -1.5764,1.48576 -0.2729,0.0724 -0.4283,0.0787 -0.6496,0.0266 z m -8.7761,-1.35579 c -0.3517,-0.74421 -0.8006,-1.86432 -0.9482,-2.36615 -0.2021,-0.68723 -0.3834,-1.63367 -0.3123,-1.63102 0.016,5.1e-4 0.3151,0.27743 0.6643,0.61518 l 0.635,0.61408 0.08,0.72818 c 0.1253,1.13481 0.2436,2.61605 0.2114,2.64827 -0.016,0.016 -0.1648,-0.25781 -0.3306,-0.60854 z m 17.7267,0.53398 c 0,-0.16503 0.1467,-1.79386 0.2288,-2.5486 l 0.082,-0.75329 0.6354,-0.61449 c 0.3495,-0.33797 0.6487,-0.6148 0.6649,-0.61518 0.049,-0.001 -0.047,0.59478 -0.1854,1.15434 -0.2014,0.81355 -0.7195,2.15571 -1.2067,3.12613 -0.1764,0.35129 -0.2193,0.40056 -0.2189,0.25109 z m -19.3339,-1.43064 c -0.6505,-1.37 -0.9125,-2.08583 -1.1013,-3.00892 -0.1172,-0.573 -0.2679,-1.58633 -0.2458,-1.65272 0.017,-0.0525 0.7961,0.46969 0.85,0.57004 0.018,0.0335 0.07,0.37732 0.1164,0.76401 0.1817,1.52635 0.3909,2.70571 0.6545,3.68875 0.04,0.15062 0.066,0.28084 0.058,0.28935 -0.01,0.008 -0.1578,-0.28421 -0.3317,-0.65051 z m 20.9637,0.58948 c 0.012,-0.0552 0.079,-0.32643 0.147,-0.60263 0.1865,-0.75146 0.3654,-1.72531 0.4566,-2.48583 0.1019,-0.84951 0.1769,-1.39945 0.2101,-1.53974 0.021,-0.0895 0.3517,-0.3489 0.8128,-0.63784 0.087,-0.0546 0.053,0.29671 -0.125,1.27364 -0.1581,0.8699 -0.3602,1.56046 -0.6726,2.29842 -0.2736,0.64617 -0.8647,1.85419 -0.8289,1.69398 z m -11.6876,-2.78715 c -0.046,-0.15191 -0.1648,-0.60388 -0.2647,-1.00437 -0.1,-0.4005 -0.2758,-1.01061 -0.391,-1.35579 -0.2003,-0.60033 -0.2196,-0.63527 -0.4447,-0.80351 -0.1833,-0.13693 -0.3779,-0.21297 -0.8789,-0.34335 -0.3539,-0.0921 -0.6886,-0.17616 -0.7439,-0.18678 -0.135,-0.026 -0.9832,-0.25063 -1.6321,-0.4323 -1.147,-0.32113 -2.5173,-0.94739 -3.3504,-1.53126 -0.9716,-0.6809 -1.7771,-1.50109 -2.2609,-2.30233 -0.1001,-0.16572 -0.413,-0.6192 -0.6952,-1.00774 -1.2786,-1.75992 -2.2767,-3.4712 -2.959,-5.07341 -0.1283,-0.30125 -0.2542,-0.5692 -0.2797,-0.59544 -0.027,-0.027 -0.047,-0.67756 -0.047,-1.50238 0,-0.80007 0.012,-1.44216 0.028,-1.42687 0.015,0.0153 0.084,0.2488 0.1524,0.51892 0.2528,0.99597 0.9486,2.52971 1.7574,3.87351 0.7151,1.18818 1.3683,1.97149 2.354,2.82268 0.7689,0.66398 0.8828,0.7427 1.4938,1.0321 0.4783,0.22651 0.8647,0.34836 2.462,0.77631 1.0421,0.27919 2.0138,0.55425 2.1594,0.61124 0.9949,0.38944 1.9152,1.37298 2.5464,2.72117 0.3277,0.70009 0.4573,1.07617 0.7053,2.04582 0.2331,0.91175 0.3462,1.66788 0.3869,2.58626 0.035,0.80049 0.011,0.94198 -0.098,0.57752 z m -4.1736,-5.4193 c 0.3689,-0.16754 0.4688,-0.46158 0.2674,-0.78743 -0.098,-0.15795 -0.5703,-0.50627 -0.946,-0.69719 -0.1622,-0.0824 -0.1689,-0.0823 -0.1367,0.002 0.018,0.0485 0.046,0.37286 0.061,0.7207 0.021,0.48562 0.013,0.6114 -0.031,0.54186 -0.1101,-0.1735 -0.3028,-0.79427 -0.3592,-1.15647 l -0.057,-0.36472 -0.2824,-0.15641 -0.2824,-0.15642 -0.1731,0.14132 -0.1731,0.14131 0.059,0.40343 c 0.1,0.68363 0.3944,1.14609 0.867,1.36 0.3027,0.13702 0.8936,0.1412 1.186,0.008 z m 6.788,5.42608 c -0.024,-0.25017 -0.011,-0.44 0.1102,-1.58867 0.052,-0.49259 0.1414,-0.93778 0.3682,-1.83299 0.2292,-0.90425 0.7765,-2.15582 1.2618,-2.8851 0.4933,-0.74144 1.2441,-1.36987 1.9727,-1.6512 0.1166,-0.045 1.0657,-0.30994 2.1092,-0.58872 2.2784,-0.6087 2.7763,-0.81444 3.5795,-1.47907 0.6909,-0.57156 1.5858,-1.48371 1.9953,-2.03355 0.617,-0.82852 1.4444,-2.30067 2.0037,-3.56554 l 0.1666,-0.37664 v 1.19337 1.19336 l -0.3456,0.68984 c -0.618,1.23353 -1.4369,2.57155 -2.3044,3.76541 -0.2238,0.30805 -0.6023,0.85678 -0.841,1.2194 -0.7375,1.12028 -1.7856,2.06967 -3.0616,2.77344 -0.9113,0.50255 -2.0201,0.91337 -3.4409,1.27488 -2.0932,0.53253 -2.2502,0.58254 -2.4702,0.78634 -0.1609,0.14915 -0.4353,0.97133 -0.7726,2.31505 -0.2666,1.06215 -0.2998,1.14086 -0.3335,0.79039 z m 5.3903,-5.38107 c 0.2618,-0.0727 0.6036,-0.39642 0.7636,-0.72318 0.08,-0.16395 0.163,-0.45239 0.1974,-0.68798 l 0.059,-0.40568 -0.1708,-0.13939 -0.1708,-0.13939 -0.2873,0.15667 c -0.2787,0.15199 -0.2882,0.16419 -0.3198,0.40796 -0.049,0.37912 -0.1676,0.80302 -0.3057,1.09466 l -0.1238,0.26144 0.024,-0.60263 c 0.013,-0.33144 0.038,-0.65555 0.057,-0.72024 l 0.034,-0.11762 -0.2205,0.11165 c -0.3692,0.18697 -0.7939,0.50674 -0.8992,0.67714 -0.2945,0.47663 0.082,0.87455 0.8294,0.8763 0.1933,3.8e-4 0.4334,-0.0219 0.5334,-0.0497 z m -15.8875,3.36599 c -2.3178,-1.25556 -4.1422,-2.66261 -5.0308,-3.87986 -0.1563,-0.21405 -0.276,-0.38919 -0.2659,-0.38919 0.01,0 0.2252,0.23468 0.4781,0.52152 0.2529,0.28685 0.7258,0.74826 1.0509,1.02536 0.6051,0.51586 0.9412,0.78376 0.8295,0.6613 -0.034,-0.0379 -0.063,-0.10756 -0.063,-0.15487 0,-0.0473 -0.1079,-0.21792 -0.2398,-0.37915 -0.1318,-0.16123 -0.273,-0.33834 -0.3138,-0.39358 -0.07,-0.0954 -0.069,-0.0967 0.026,-0.0266 0.055,0.0406 0.2021,0.166 0.3264,0.27868 0.6853,0.62135 1.9931,1.56444 2.9359,2.11723 0.2496,0.14638 0.4366,0.26638 0.4156,0.26668 -0.056,5.1e-4 -1.6246,-0.78944 -1.852,-0.93298 -0.1066,-0.0673 -0.1938,-0.11318 -0.1938,-0.10199 0,0.0481 1.3076,0.98817 1.5819,1.13733 0.7508,0.40827 1.1505,0.6522 1.0671,0.65133 -0.01,-7e-5 -0.3457,-0.18059 -0.7529,-0.40117 z m 17.7395,0.38541 c 0,-0.025 0.5233,-0.33307 1.0797,-0.63558 0.2743,-0.14916 1.5818,-1.08925 1.5818,-1.13733 0,-0.0112 -0.091,0.0374 -0.2033,0.10801 -0.2346,0.1481 -1.7839,0.92778 -1.8419,0.92696 -0.022,-3.8e-4 0.1654,-0.1203 0.4151,-0.26667 0.9427,-0.5528 2.2505,-1.49589 2.9358,-2.11724 0.1243,-0.11268 0.2712,-0.23808 0.3265,-0.27867 0.095,-0.0701 0.097,-0.0687 0.026,0.0266 -0.041,0.0552 -0.182,0.23236 -0.3139,0.39359 -0.1318,0.16123 -0.2397,0.33185 -0.2397,0.37915 0,0.0473 -0.028,0.11674 -0.063,0.15432 -0.034,0.0376 0.1745,-0.12175 0.4645,-0.35405 0.5621,-0.45022 1.0933,-0.95645 1.6026,-1.52717 l 0.3136,-0.35153 -0.2869,0.40175 c -0.8829,1.23617 -2.8628,2.75369 -5.2073,3.99117 -0.3246,0.17129 -0.5901,0.30029 -0.5901,0.28666 z m -16.6225,-1.4021 c -1.5636,-0.88807 -2.5742,-1.56702 -3.0131,-2.02451 -0.2703,-0.28166 -0.2673,-0.30519 0.014,-0.11044 0.077,0.0531 -0.2307,-0.27262 -0.683,-0.72385 -0.4523,-0.45123 -0.9144,-0.94471 -1.0268,-1.09662 -0.1836,-0.24797 -0.5639,-0.87928 -0.5639,-0.936 0,-0.0123 0.159,0.17579 0.3533,0.41802 0.6179,0.77012 1.2433,1.40756 1.7709,1.80497 0.2817,0.21217 0.5818,0.41486 0.6669,0.45042 0.1512,0.0632 0.3251,0.22112 0.2434,0.22112 -0.023,0 0.037,0.0817 0.132,0.18165 l 0.1731,0.18165 -0.1758,-0.0869 c -0.097,-0.0478 -0.1532,-0.066 -0.1255,-0.0404 0.3025,0.28071 1.8829,1.45717 2.2723,1.69155 0.1727,0.10391 0.3139,0.19858 0.3139,0.21039 0,0.0447 -0.084,0.0111 -0.3515,-0.14105 z m 16.0198,0.0928 c 0,-0.0152 0.13,-0.11014 0.2888,-0.21099 0.4556,-0.28932 1.9524,-1.40327 2.172,-1.61642 0.066,-0.0644 0.062,-0.0664 -0.034,-0.0171 -0.1811,0.0926 -0.1933,0.0644 -0.041,-0.0946 0.079,-0.0829 0.1261,-0.15066 0.1037,-0.15066 -0.081,0 0.093,-0.15812 0.244,-0.22111 0.279,-0.11658 1.1613,-0.82045 1.5613,-1.24553 0.2156,-0.22911 0.5724,-0.6369 0.7928,-0.9062 0.2205,-0.2693 0.4073,-0.48963 0.4152,-0.48963 0.01,0 -0.068,0.14841 -0.169,0.3298 -0.2751,0.49496 -0.7212,1.02377 -1.5224,1.8045 -0.3968,0.38669 -0.6652,0.6637 -0.5964,0.6156 0.295,-0.2064 0.3087,-0.18272 0.05,0.0856 -0.3399,0.35206 -0.8776,0.74565 -1.7325,1.26813 -0.7328,0.44788 -1.5317,0.89046 -1.5317,0.84857 z m -18.2255,-0.707 c -0.9785,-0.68253 -1.2373,-0.90319 -2.2667,-1.93235 -0.872,-0.87172 -1.2526,-1.35897 -1.2526,-1.60357 0,-0.0863 0.017,-0.1568 0.038,-0.15675 0.021,5e-5 0.1028,0.10318 0.1824,0.22918 0.2824,0.44696 0.8148,1.06011 1.4967,1.72379 0.38,0.36986 0.6827,0.68624 0.6726,0.70306 -0.023,0.0381 0.6571,0.59919 1.3932,1.14964 0.3063,0.22906 0.5673,0.42691 0.5801,0.43966 0.088,0.0883 -0.1221,-0.0496 -0.8434,-0.55266 z m 19.8325,0.56304 c 0.014,-0.0152 0.2767,-0.21626 0.5842,-0.44682 0.7992,-0.59926 1.4206,-1.11336 1.4227,-1.17723 0,-0.0302 0.2633,-0.3014 0.5828,-0.60262 0.5667,-0.53438 1.225,-1.2944 1.5449,-1.7839 0.088,-0.13389 0.1761,-0.24383 0.1968,-0.24433 0.021,-5.1e-4 0.038,0.0697 0.038,0.15594 0,0.26242 -0.3986,0.75639 -1.4537,1.80169 -0.8693,0.86119 -1.0966,1.05497 -1.8851,1.60701 -0.8439,0.59076 -1.0893,0.75519 -1.0303,0.69026 z m -11.4144,-3.88556 c 0.1334,-0.30259 0.117,-1.06405 -0.031,-1.44086 -0.1296,-0.32991 -0.1096,-0.40457 0.064,-0.24107 0.1659,0.15591 0.3679,0.54313 0.4317,0.82765 0.09,0.40303 -0.028,0.65437 -0.463,0.98245 -0.084,0.0631 -0.084,0.0568 0,-0.12817 z m 3.6662,-0.0199 c -0.2895,-0.25476 -0.3644,-0.46234 -0.2908,-0.80532 0.064,-0.29725 0.1629,-0.50354 0.3666,-0.76284 0.2342,-0.29801 0.3007,-0.24148 0.1477,0.12555 -0.1107,0.26542 -0.1305,0.3875 -0.1286,0.79095 0,0.32573 0.028,0.53682 0.084,0.66539 0.045,0.10358 0.075,0.18833 0.066,0.18833 -0.01,0 -0.1187,-0.0909 -0.245,-0.20206 z"
         id="path43"
         sodipodi:nodetypes="ssscsssscssccsccsssscssccccssscccssccsccssssssssssssscsssssssssssssssssscsssssscscsssssccsssscssssssssscsssscsssssccsssssccsssssssssssssssssssssssssssssssssssssssssssssssscscssscsssssccsscsssssssssscssscscsssscssssssssssssssssssssssssssssscssssssssssssssscscccccsssscsssssssscccsssssssccssscccsssccscsscssssssssssssssssssssssscssssssssscsssssssssssssscscssssssssssssssssssssssssssssssssscsscsssscssssccsssscsss" />
    </g>
  </g>
</svg>
