<?xml version="1.0" encoding="UTF-8" standalone="no"?>
<!-- Created with Inkscape (http://www.inkscape.org/) -->

<svg
   width="41.008999mm"
   height="41.008999mm"
   viewBox="0 0 41.008999 41.008999"
   version="1.1"
   id="svg1"
   inkscape:version="1.4.2 (f4327f4, 2025-05-13)"
   sodipodi:docname="328.svg"
   xmlns:inkscape="http://www.inkscape.org/namespaces/inkscape"
   xmlns:sodipodi="http://sodipodi.sourceforge.net/DTD/sodipodi-0.dtd"
   xmlns="http://www.w3.org/2000/svg"
   xmlns:svg="http://www.w3.org/2000/svg">
  <sodipodi:namedview
     id="namedview1"
     pagecolor="#ffffff"
     bordercolor="#000000"
     borderopacity="0.25"
     inkscape:showpageshadow="2"
     inkscape:pageopacity="0.0"
     inkscape:pagecheckerboard="0"
     inkscape:deskcolor="#d1d1d1"
     inkscape:document-units="mm"
     inkscape:zoom="1.4513545"
     inkscape:cx="86.470947"
     inkscape:cy="71.657199"
     inkscape:window-width="1050"
     inkscape:window-height="1081"
     inkscape:window-x="857"
     inkscape:window-y="0"
     inkscape:window-maximized="0"
     inkscape:current-layer="layer1" />
  <defs
     id="defs1" />
  <g
     inkscape:label="Layer 1"
     inkscape:groupmode="layer"
     id="layer1"
     transform="translate(333.37504,1257.5646)">
    <g
       id="g102"
       transform="translate(-1458.622,-1082.4235)">
      <ellipse
         style="fill:none;stroke:#ff00ff;stroke-width:0.1;stroke-dasharray:none;stroke-opacity:1"
         id="path1138-9-4-0-0-1-2-8-1-8-1-17-4-7-6-1-7-0"
         cx="1145.7515"
         cy="-154.63658"
         rx="18.492125"
         ry="18.492126" />
      <circle
         style="fill:none;stroke:#0000ff;stroke-width:0.1;stroke-linecap:round;stroke-dasharray:none;stroke-opacity:1;paint-order:markers stroke fill"
         id="circle3700-5"
         cx="1145.7515"
         cy="-169.64755"
         r="2" />
      <circle
         style="fill:none;stroke:#ff0000;stroke-width:0.1;stroke-dasharray:none"
         id="circle3702-5"
         cx="1145.7515"
         cy="-154.63658"
         r="19.954653" />
      <path
         style="fill:#000000;stroke-width:0.0996957"
         d="m 1147.3752,-138.51143 c -0.072,-0.0524 -0.089,-0.2065 -0.1096,-0.99155 -0.018,-0.65341 -0.024,-0.72732 -0.068,-0.77155 -0.06,-0.0602 -0.078,-0.06 -0.6819,0.004 -0.6586,0.071 -1.284,0.0911 -1.6881,0.0543 -0.3847,-0.035 -2.4115,-0.0913 -2.4985,-0.0696 -0.077,0.0192 -0.1313,0.12786 -0.2081,0.41478 -0.076,0.28404 -0.1295,0.39187 -0.2779,0.5602 -0.2851,0.32351 -0.7397,0.49108 -1.1817,0.43559 -0.2575,-0.0324 -0.4535,-0.1319 -0.6479,-0.32913 -0.1755,-0.17819 -0.2798,-0.35919 -0.4739,-0.82295 -0.1343,-0.32059 -0.1626,-0.35337 -0.4355,-0.50692 -0.2995,-0.16843 -0.5875,-0.4999 -0.8843,-1.01757 -0.5722,-0.998 -1.3819,-1.93249 -2.3478,-2.70949 -0.2486,-0.2 -0.7542,-0.56943 -0.9829,-0.71821 -0.089,-0.0577 -0.1737,-0.13243 -0.1892,-0.1661 -0.016,-0.0361 -0.028,-0.26498 -0.028,-0.55785 0,-0.56564 0.016,-0.64125 0.1869,-0.86227 0.088,-0.11349 0.1112,-0.16971 0.1315,-0.31355 0.092,-0.64718 0.2776,-1.21837 0.6806,-2.0908 0.2767,-0.59923 0.3237,-0.76457 0.3396,-1.19328 0.011,-0.19585 0.026,-0.37835 0.04,-0.40557 0.052,-0.10005 0.1444,0.0525 0.2931,0.48566 0.1724,0.50268 0.189,0.53553 0.2516,0.50199 0.078,-0.0415 0.1026,-0.0855 0.1899,-0.33287 0.1655,-0.46992 0.3959,-0.86525 0.9366,-1.60766 0.2245,-0.30821 0.9213,-1.34027 0.9828,-1.45563 0.044,-0.0819 0.038,-0.24821 -0.019,-0.60636 -0.028,-0.17159 -0.064,-0.45067 -0.082,-0.62017 -0.031,-0.29916 -0.034,-0.30749 -0.088,-0.28523 -0.031,0.0126 -0.1514,0.0651 -0.2676,0.11661 -0.1183,0.0525 -0.2544,0.0939 -0.3099,0.094 -0.088,3e-4 -0.099,-0.007 -0.099,-0.0647 0,-0.0398 0.046,-0.11706 0.1186,-0.1985 0.1501,-0.169 0.2157,-0.29796 0.2669,-0.52499 l 0.041,-0.18049 -0.094,-0.18152 c -0.1076,-0.20846 -0.2337,-0.4346 -0.3587,-0.64313 -0.048,-0.0798 -0.1229,-0.21036 -0.1666,-0.29015 -0.044,-0.0798 -0.1312,-0.22065 -0.194,-0.31301 -0.1715,-0.25191 -0.1491,-0.31008 0.1086,-0.28122 0.1005,0.0112 0.146,0.004 0.186,-0.0281 0.03,-0.0243 0.041,-0.0478 0.026,-0.0539 -0.016,-0.005 -0.1165,-0.0679 -0.2242,-0.13756 -0.1078,-0.0697 -0.3443,-0.21951 -0.5256,-0.33287 -0.6436,-0.40233 -0.7116,-0.44931 -0.7119,-0.49188 0,-0.0476 0.026,-0.0532 0.4932,-0.10486 0.1628,-0.018 0.3094,-0.0411 0.3261,-0.0513 0.022,-0.0138 0.021,-0.0432 -0.011,-0.11424 -0.026,-0.0728 -0.028,-0.10283 -0.011,-0.12631 0.024,-0.0235 0.079,0.006 0.2343,0.12528 l 0.2036,0.15603 h 0.2993 0.2994 l 0.011,-0.6082 0.011,-0.60822 -0.1416,-0.23099 c -0.1571,-0.25641 -0.2468,-0.43393 -0.3681,-0.72875 -0.3582,-0.87031 -0.7663,-2.85388 -0.6003,-2.91759 0.02,-0.007 0.166,0.0601 0.3231,0.15116 0.4454,0.25805 0.5549,0.30853 0.7113,0.32808 0.2005,0.0249 0.2835,-0.0185 0.2613,-0.13715 -0.014,-0.0757 0.018,-0.31253 0.1597,-1.1959 0.022,-0.13748 0.047,-0.25601 0.054,-0.26339 0.032,-0.032 0.1335,0.16104 0.437,0.8299 0.1777,0.39171 0.3513,0.76294 0.3857,0.82496 0.1147,0.20594 0.1612,0.22544 0.8878,0.37155 0.3623,0.0729 0.6611,0.13006 0.6641,0.1271 0.011,-0.01 -0.2978,-0.89864 -0.3547,-1.02751 -0.067,-0.15165 -0.1945,-0.33909 -0.3321,-0.48852 -0.098,-0.10689 -0.1016,-0.11587 -0.059,-0.15828 0.06,-0.0602 0.4195,-0.0576 0.8425,0.005 0.1714,0.0258 0.3163,0.0422 0.3221,0.0365 0.011,-0.005 -0.012,-0.0823 -0.04,-0.17018 -0.028,-0.0879 -0.063,-0.27933 -0.08,-0.42547 -0.05,-0.43212 0.015,-0.87532 0.2298,-1.56888 0.1102,-0.35566 0.1325,-0.37166 0.2809,-0.20225 0.25,0.28511 0.7408,0.68258 1.3496,1.09279 0.2322,0.15641 0.5431,0.38056 0.691,0.49814 0.5317,0.42234 0.5751,0.44383 0.6537,0.32389 0.079,-0.12113 0.2346,-0.51176 0.3332,-0.83862 0.099,-0.33113 0.1224,-0.47366 0.2246,-1.42128 0.025,-0.22487 0.052,-0.41831 0.063,-0.42986 0.019,-0.0219 0.095,0.0367 1.0046,0.77447 0.3028,0.24569 0.5569,0.44672 0.5644,0.44672 0.011,0 0.014,-0.19515 0.014,-0.43367 0,-0.24149 0.012,-0.44045 0.025,-0.44896 0.032,-0.0198 0.062,0.0238 0.35,0.51271 l 0.2409,0.40823 0.029,-0.0875 c 0.016,-0.0481 0.05,-0.0991 0.076,-0.11335 0.054,-0.0302 0.1934,-0.005 0.2211,0.0392 0.011,0.017 0.016,0.40645 0.012,0.8654 -0.011,0.56252 0,0.84004 0.019,0.85157 0.016,0.01 0.1801,-0.10496 0.3664,-0.25415 0.1863,-0.14919 0.5578,-0.4409 0.8254,-0.64823 0.2676,-0.20732 0.5458,-0.42485 0.6184,-0.48341 0.1962,-0.15826 0.649,-0.60693 0.7952,-0.7878 0.2138,-0.26472 0.2627,-0.20338 0.181,0.22747 -0.021,0.11403 -0.098,0.5575 -0.1711,0.98548 -0.073,0.42797 -0.1576,0.92963 -0.189,1.11479 -0.032,0.18516 -0.05,0.34271 -0.044,0.35012 0.031,0.0312 0.1058,-0.0294 0.2538,-0.20745 0.7428,-0.8924 0.8925,-1.07697 0.9715,-1.19848 0.078,-0.11957 0.097,-0.13511 0.1406,-0.11196 0.028,0.0147 0.057,0.0369 0.064,0.0489 0.011,0.0121 0.032,0.40671 0.054,0.87691 0.077,1.60945 0.091,1.85005 0.1037,1.86313 0.011,0.0111 0.3758,-0.10304 1.6253,-0.50875 0.2282,-0.0741 0.2373,-0.0754 0.2373,-0.0317 0,0.0331 -0.029,0.0829 -0.413,0.70875 -0.121,0.1973 -0.2201,0.36645 -0.2201,0.37588 0,0.0697 0.2633,-0.0718 0.9276,-0.49908 0.8819,-0.567 0.8441,-0.54494 0.9915,-0.57712 0.069,-0.0153 0.085,-0.0107 0.085,0.0258 0,0.0513 -0.4177,1.14661 -0.5757,1.50949 -0.1548,0.35547 -0.4277,0.85866 -0.5972,1.1011 -0.1467,0.20971 -0.1471,0.21107 -0.08,0.21946 0.037,0.004 0.3135,-0.022 0.6142,-0.0592 0.3006,-0.0372 0.7067,-0.0859 0.9025,-0.10828 0.1958,-0.0223 0.6041,-0.0697 0.9072,-0.10485 0.3032,-0.0354 0.5613,-0.0579 0.5737,-0.0504 0.042,0.0257 0.023,0.0756 -0.098,0.24826 -0.065,0.0943 -0.1799,0.26289 -0.2543,0.37467 -0.075,0.11176 -0.1452,0.1971 -0.1571,0.18963 -0.012,-0.007 -0.011,-0.0372 0.011,-0.0662 0.016,-0.0289 0.025,-0.0699 0.019,-0.0912 -0.011,-0.0243 -0.1348,0.0799 -0.3514,0.28266 -0.5846,0.54779 -1.3392,1.11818 -1.8251,1.3799 -0.076,0.0405 -0.1629,0.10133 -0.1944,0.13479 l -0.057,0.0609 0.084,0.0511 c 0.1037,0.0628 0.8537,0.27478 0.9326,0.26347 0.06,-0.009 0.134,-0.11474 0.8491,-1.2217 0.3832,-0.59302 0.4858,-0.73584 0.4872,-0.67804 0,0.0427 -0.078,0.19853 -0.2117,0.41686 -0.057,0.0929 -0.095,0.16917 -0.084,0.1694 0.011,2.1e-4 0.011,0.01 -0.011,0.0198 -0.016,0.0107 -0.1091,0.15588 -0.2088,0.32271 -0.099,0.16686 -0.2585,0.41496 -0.353,0.55135 -0.1459,0.21041 -0.1735,0.26837 -0.1824,0.38248 -0.013,0.16987 0,0.19127 0.5656,1.06548 0.4703,0.72442 0.5494,0.84179 1.0065,1.49353 0.2141,0.30541 0.2944,0.44109 0.2944,0.49793 0,0.0773 0,0.0779 -0.1254,0.0661 -0.079,-0.007 -0.2805,-0.0822 -0.5474,-0.20264 -0.4778,-0.21584 -0.4471,-0.20195 -0.7624,-0.34517 -0.1293,-0.0587 -0.2405,-0.10123 -0.2473,-0.0945 -0.012,0.0118 0.163,1.04274 0.3536,2.08527 0.2569,1.40646 0.5426,2.3612 0.9649,3.22595 0.073,0.14943 0.1242,0.27999 0.1136,0.29016 -0.03,0.0288 -0.2644,-0.24494 -0.4587,-0.53544 -0.3333,-0.49812 -0.4037,-0.59754 -0.4146,-0.58659 -0.011,0.006 0.061,0.36602 0.1485,0.79995 0.2673,1.32371 0.2828,1.40305 0.392,2.00237 0.1956,1.075 0.2436,1.60019 0.1879,2.05746 -0.016,0.13507 -0.038,1.12269 -0.051,2.29118 -0.014,1.28961 -0.033,2.0635 -0.048,2.0799 -0.015,0.0148 -0.063,0.018 -0.1117,0.007 -0.081,-0.0179 -0.1177,-0.051 -0.3781,-0.34267 l -0.094,-0.1055 -0.2315,0.24235 c -0.2877,0.30129 -0.2771,0.298 -1.2302,0.38703 -0.6562,0.0614 -0.7135,0.0708 -0.7744,0.12727 -0.061,0.0565 -0.064,0.0749 -0.053,0.2457 0.011,0.10155 0.039,0.26046 0.07,0.35312 0.072,0.20744 0.2288,0.46117 0.2705,0.4354 0.018,-0.0108 0.022,-0.007 0.013,0.01 -0.016,0.0267 0.096,0.12755 0.2525,0.22533 0.1241,0.0778 0.3276,0.14747 0.6294,0.21562 0.1606,0.0362 0.3018,0.0719 0.3139,0.0794 0.064,0.0387 -0.019,0.11552 -0.2187,0.20381 -0.7634,0.33874 -1.4112,0.41344 -1.9562,0.22559 -0.2013,-0.0694 -0.3141,-0.14067 -0.4578,-0.28924 -0.3132,-0.32395 -0.3881,-0.70271 -0.2822,-1.42574 0.013,-0.0901 0.011,-0.099 -0.047,-0.099 -0.052,0 -3.9354,0.54952 -4.2209,0.59733 -0.061,0.0107 -0.1145,0.0389 -0.1355,0.0725 -0.025,0.039 -0.044,0.2728 -0.064,0.78098 -0.016,0.39897 -0.029,0.7521 -0.029,0.78474 0,0.0648 -0.085,0.16486 -0.1398,0.16486 -0.018,0 -0.057,-0.0155 -0.081,-0.0344 z m -5.9332,-0.71332 c 0.1972,-0.12259 0.3302,-0.26605 0.4294,-0.46299 0.1112,-0.22112 0.1404,-0.39513 0.1291,-0.76828 -0.011,-0.28758 -0.019,-0.34734 -0.078,-0.47413 -0.097,-0.20427 -0.2601,-0.35498 -0.5237,-0.48315 -0.2122,-0.10325 -0.2393,-0.10964 -0.5046,-0.11912 -0.3245,-0.0115 -0.4964,0.0269 -0.7506,0.16792 -0.1895,0.10518 -0.3489,0.26997 -0.4501,0.46495 -0.063,0.12197 -0.073,0.16916 -0.069,0.35188 0,0.11994 0.028,0.30211 0.059,0.42204 0.1392,0.52878 0.3717,0.81033 0.7891,0.95579 0.1522,0.053 0.217,0.0601 0.4918,0.0537 0.316,-0.007 0.3168,-0.007 0.4792,-0.10857 z m 4.3348,-1.20245 c 0.036,-0.0258 0.069,-0.0638 0.073,-0.0845 0.011,-0.0211 -0.1473,-0.16989 -0.3428,-0.33693 -0.1926,-0.1646 -0.5208,-0.46092 -0.729,-0.65854 -0.2082,-0.1976 -0.3965,-0.36943 -0.418,-0.38181 -0.065,-0.0373 -0.083,0.0154 -0.049,0.14483 0.027,0.10432 0.2378,0.39913 0.4229,0.59211 0.025,0.0255 0.1525,0.17369 0.3028,0.3506 0.029,0.0345 0.09,0.11958 0.1344,0.18912 0.045,0.0696 0.1129,0.14725 0.1517,0.17269 0.147,0.0963 0.3294,0.10133 0.4542,0.0125 z m -1.0684,-0.0674 c 0.073,-0.01 0.1428,-0.0272 0.156,-0.0401 0.026,-0.0247 0.017,-0.0367 -0.1427,-0.22061 -0.2249,-0.25876 -0.2832,-0.31397 -0.3123,-0.29593 -0.033,0.0212 -0.043,0.48379 -0.011,0.53278 0.026,0.0382 0.089,0.0608 0.138,0.0495 0.022,-0.004 0.099,-0.0166 0.1715,-0.0256 z m 3.2841,-0.0843 c 0.4816,-0.19604 0.5694,-0.24769 1.0467,-0.61656 0.7556,-0.58388 1.2828,-1.07426 1.6834,-1.56599 0.1161,-0.14245 0.3348,-0.40884 0.486,-0.59202 0.3699,-0.44788 0.5364,-0.70831 0.8438,-1.31991 0.3825,-0.76036 0.5576,-1.18734 0.7304,-1.78141 0.051,-0.17484 0.1119,-0.33273 0.1356,-0.35087 0.025,-0.0182 0.093,-0.033 0.1533,-0.033 0.13,0 0.1721,-0.0292 0.4931,-0.34211 0.2261,-0.22046 0.2308,-0.22751 0.2308,-0.35022 0,-0.10678 -0.014,-0.14074 -0.095,-0.23059 -0.052,-0.0579 -0.1069,-0.0984 -0.1202,-0.0898 -0.014,0.009 -0.079,0.12416 -0.144,0.25697 -0.1166,0.23684 -0.2189,0.35443 -0.277,0.31851 -0.02,-0.013 -0.025,-0.199 -0.011,-0.65852 0.017,-0.55665 0.013,-0.65739 -0.025,-0.77012 -0.045,-0.13635 -0.2716,-0.44209 -0.3272,-0.44209 -0.018,0 -0.072,0.0905 -0.1199,0.20116 -0.1388,0.31897 -0.2568,0.49467 -0.5578,0.83046 -0.1985,0.22134 -0.2839,0.26737 -0.5289,0.28539 -0.1004,0.007 -0.3432,0.0251 -0.539,0.0396 -0.1959,0.0143 -0.575,0.0265 -0.8424,0.0272 -0.4449,7.1e-4 -0.4963,-0.004 -0.6034,-0.0555 -0.1383,-0.067 -0.2305,-0.23257 -0.1992,-0.35758 0.042,-0.16212 0.2642,-0.49311 0.4893,-0.72463 0.2234,-0.22973 0.4258,-0.3414 0.8587,-0.47372 0.3687,-0.11271 0.5343,-0.1726 0.5343,-0.19328 0,-0.0407 -0.1359,-0.14609 -0.1882,-0.14609 -0.034,0 -0.1574,0.0533 -0.272,0.1187 -0.1144,0.0652 -0.2114,0.1187 -0.2153,0.1187 -0.011,0 -0.174,0.0949 -0.3779,0.21102 -0.204,0.11606 -0.3753,0.21103 -0.3805,0.21103 -0.022,0 -0.5085,0.27531 -0.5509,0.31165 -0.064,0.0546 -0.059,0.15684 0.032,0.66429 0.042,0.23938 0.1205,0.68453 0.1727,0.9892 0.051,0.30465 0.1291,0.73198 0.1711,0.9496 0.048,0.24722 0.067,0.40506 0.051,0.42071 -0.016,0.0158 -0.034,0.0158 -0.048,0 -0.022,-0.0234 -0.3286,-0.58144 -0.6302,-1.1461 -0.074,-0.13784 -0.2179,-0.40431 -0.3206,-0.59218 -0.1778,-0.32572 -0.201,-0.41529 -0.097,-0.37548 0.022,0.009 0.1103,0.13761 0.1963,0.28706 0.3574,0.62107 0.4158,0.716 0.4969,0.80819 l 0.085,0.0966 -0.048,-0.15827 c -0.055,-0.1809 -0.1833,-0.5342 -0.3384,-0.93641 -0.4324,-1.12168 -0.5105,-1.40613 -0.6108,-2.23022 -0.068,-0.56116 -0.1016,-0.72409 -0.1446,-0.72409 -0.058,0 -0.066,0.23482 -0.028,0.71683 0.077,0.93923 0.076,0.91862 0.036,0.9182 -0.038,-3.9e-4 -0.1579,-0.23762 -0.2928,-0.57992 -0.1102,-0.27969 -0.2265,-0.75757 -0.2475,-1.01808 -0.013,-0.16071 -0.028,-0.22168 -0.055,-0.22168 -0.047,0 -0.046,0.0837 0.011,0.52757 0.08,0.70354 0.1146,0.80805 0.5764,1.73647 0.1538,0.30947 0.2797,0.58429 0.2797,0.61072 0,0.0264 -0.06,0.10593 -0.1333,0.1766 -0.1314,0.12675 -0.1347,0.13369 -0.2294,0.49715 -0.087,0.3344 -0.096,0.4004 -0.095,0.7115 0,0.36549 0.063,0.86263 0.1967,1.56518 0.042,0.22252 0.077,0.44803 0.077,0.50118 0,0.18377 -0.079,0.29677 -0.367,0.52789 -0.2497,0.2008 -0.3183,0.23397 -0.3183,0.1538 0,-0.0356 0.045,-0.0848 0.3135,-0.34478 0.2148,-0.20791 0.2652,-0.31808 0.2204,-0.48254 -0.2198,-0.80625 -0.2567,-0.98717 -0.2988,-1.46234 -0.048,-0.54606 0.019,-1.11079 0.1529,-1.26654 0.1228,-0.14369 0.2049,-0.55279 0.1636,-0.81408 -0.028,-0.17535 -0.1449,-0.4748 -0.1858,-0.4748 -0.013,0 -0.023,-0.0157 -0.023,-0.035 0,-0.049 -0.1227,-0.15943 -0.1422,-0.12794 -0.011,0.0141 0,0.202 0.024,0.41743 0.05,0.49627 0.05,0.56317 0,0.56317 -0.021,0 -0.07,-0.0423 -0.11,-0.0942 -0.051,-0.0673 -0.078,-0.0842 -0.091,-0.0593 -0.011,0.0191 -0.032,0.92503 -0.049,2.01312 -0.016,1.08808 -0.036,2.20979 -0.045,2.49269 -0.018,0.62455 -0.022,0.61756 0.2842,0.64409 0.1059,0.01 0.3872,0.0428 0.6246,0.0745 0.4178,0.0559 0.5035,0.0858 0.4357,0.1516 -0.013,0.0124 -0.2785,0.0891 -0.5905,0.17066 -0.3119,0.0814 -0.5967,0.16959 -0.633,0.19591 -0.078,0.0567 -0.095,0.13754 -0.051,0.24288 0.027,0.0648 0.047,0.0765 0.1275,0.0764 0.052,-1e-4 0.1879,-0.0223 0.3008,-0.0493 0.2206,-0.0528 0.271,-0.0369 0.1817,0.0579 -0.072,0.0764 -0.1958,0.13818 -0.381,0.19022 -0.2314,0.065 -0.2324,0.068 -0.2497,0.75302 l -0.015,0.58426 0.063,-0.0192 c 0.034,-0.0107 0.1644,-0.0603 0.2876,-0.11054 z m 3.4947,-4.80954 c -0.011,-0.0147 0.036,-0.13056 0.1005,-0.25718 0.1355,-0.26652 0.1989,-0.45476 0.2956,-0.87648 0.1257,-0.54868 0.274,-0.92498 0.4885,-1.23974 0.1237,-0.18159 0.3117,-0.39567 0.3475,-0.39567 0.018,0 0.024,0.10004 0.016,0.28356 -0.011,0.24915 -0.024,0.31556 -0.1117,0.54734 -0.2639,0.69292 -0.5851,1.30617 -0.9081,1.73433 -0.1759,0.23309 -0.1977,0.25267 -0.228,0.20384 z m -4.313,4.83492 c 0.031,-0.038 0.053,-0.20231 0.089,-0.65643 0.026,-0.33315 0.04,-0.63707 0.031,-0.67539 -0.021,-0.0834 -0.1583,-0.15708 -0.2518,-0.1351 -0.035,0.009 -0.2365,0.0681 -0.4468,0.13278 -0.3663,0.11269 -0.5175,0.1392 -0.5787,0.10143 -0.078,-0.0478 -0.011,-0.092 0.3082,-0.19246 0.1851,-0.0591 0.4789,-0.15288 0.6529,-0.20857 l 0.3166,-0.10122 -0.011,-0.1023 c -0.011,-0.14296 -0.039,-0.16865 -0.2263,-0.18582 -0.09,-0.009 -0.3649,-0.0331 -0.6115,-0.0555 -0.5826,-0.0525 -0.5987,-0.0559 -0.5885,-0.12651 0.012,-0.0852 0.2023,-0.10825 0.6017,-0.073 0.1813,0.016 0.4335,0.0291 0.5604,0.029 l 0.2307,-1.8e-4 v -0.36342 c 0,-0.38899 -0.026,-0.48067 -0.1341,-0.48067 -0.098,0 -0.235,-0.074 -0.235,-0.12746 0,-0.0586 0.095,-0.0862 0.2253,-0.0651 0.056,0.01 0.096,-7.2e-4 0.1261,-0.0308 0.041,-0.0407 0.044,-0.23677 0.043,-2.48881 0,-1.34456 -0.011,-2.49213 -0.019,-2.55016 l -0.018,-0.1055 -0.692,-0.007 c -0.3819,-0.003 -0.6919,0.004 -0.6919,0.016 0,0.0127 0.042,0.0775 0.093,0.14394 0.059,0.0773 0.092,0.15 0.092,0.20162 0,0.14644 -0.092,0.10486 -0.3415,-0.15333 -0.1828,-0.18966 -0.2532,-0.24403 -0.3707,-0.28663 -0.2568,-0.093 -0.6067,-0.0996 -0.6067,-0.0115 0,0.0127 0.1037,0.0991 0.2295,0.19188 0.1261,0.0928 0.3572,0.26372 0.5136,0.37979 0.5719,0.42493 0.6404,0.47498 0.6636,0.48456 0.013,0.005 0.1413,-0.10738 0.2852,-0.25058 0.1976,-0.19677 0.2671,-0.25145 0.2843,-0.22386 0.035,0.0564 -0.011,0.16093 -0.1432,0.36069 -0.1197,0.17451 -0.1228,0.18352 -0.066,0.19191 0.033,0.004 0.133,-0.004 0.2233,-0.0198 0.2584,-0.045 0.2835,-0.0409 0.2738,0.0439 -0.011,0.0963 -0.1139,0.14479 -0.5339,0.25175 -0.1825,0.0465 -0.3289,0.0921 -0.3252,0.10165 0.011,0.01 0.1431,0.13427 0.31,0.27747 0.3233,0.2775 0.3769,0.36193 0.2499,0.39382 -0.1171,0.0294 -0.2623,-0.0343 -0.5864,-0.25766 -0.1704,-0.11733 -0.3289,-0.22991 -0.3523,-0.25018 -0.037,-0.0323 -0.084,-0.0168 -0.3692,0.12028 -0.4466,0.21467 -0.852,0.30828 -1.0655,0.24605 -0.1314,-0.0384 -0.094,-0.0918 0.1366,-0.19045 0.1186,-0.051 0.2255,-0.10305 0.2374,-0.11586 0.013,-0.0134 -0.1515,-0.0156 -0.3871,-0.005 -0.4949,0.0217 -1.029,-0.0163 -1.4693,-0.10453 -0.3764,-0.0755 -0.5819,-0.14672 -0.7465,-0.25895 -0.2429,-0.16569 -0.3245,-0.28859 -0.5368,-0.80811 -0.2127,-0.52038 -0.2705,-0.64479 -0.2873,-0.61759 -0.011,0.0134 -0.047,0.38631 -0.085,0.82873 -0.1027,1.17152 -0.099,1.16367 -0.3778,0.73356 -0.093,-0.14411 -0.3534,-0.43648 -0.8636,-0.97107 -0.6587,-0.69022 -0.6976,-0.73465 -0.6976,-0.79816 0,-0.0352 0.071,-0.1648 0.1555,-0.28809 0.1828,-0.26366 0.2403,-0.36909 0.2403,-0.4406 0,-0.0288 -0.074,-0.14176 -0.1648,-0.25107 -0.1267,-0.15273 -0.1717,-0.1913 -0.1947,-0.1666 -0.016,0.0176 -0.057,0.14787 -0.09,0.28932 -0.063,0.27074 -0.1069,0.32077 -0.1612,0.18464 -0.016,-0.0399 -0.039,-0.23406 -0.049,-0.43146 -0.02,-0.35624 -0.048,-0.46636 -0.1493,-0.58145 -0.065,-0.0755 0.011,-0.0763 0.1496,-0.002 0.1535,0.0791 0.4247,0.33687 0.6823,0.64825 0.1566,0.18948 0.3664,0.38638 0.4117,0.38638 0.033,0 -0.011,-0.0684 -0.3121,-0.59052 -0.1645,-0.27729 -0.3394,-0.58099 -0.3885,-0.6749 -0.1016,-0.19422 -0.3453,-0.46787 -0.4809,-0.54092 l -0.092,-0.0492 -0.069,0.0771 c -0.037,0.0424 -0.068,0.092 -0.068,0.11009 0,0.0182 -0.011,0.033 -0.022,0.033 -0.041,0 -0.1164,0.19913 -0.1298,0.34436 -0.011,0.1187 0.011,0.20554 0.081,0.45714 0.052,0.17085 0.1373,0.51166 0.1888,0.75735 0.111,0.52803 0.2273,0.88023 0.4215,1.27675 0.2356,0.48097 0.5433,0.91235 0.9584,1.34372 0.3963,0.41177 0.5173,0.47583 0.7448,0.39407 0.07,-0.0256 0.1331,-0.0413 0.1383,-0.0349 0.011,0.006 0.078,0.17579 0.1624,0.37646 0.084,0.20071 0.1706,0.37166 0.1922,0.37992 0.021,0.009 0.1475,-0.0161 0.2801,-0.0542 0.5434,-0.15619 1.0868,-0.22834 1.7228,-0.22869 0.4527,-3e-4 0.5408,0.0157 0.5896,0.10701 0.047,0.087 0.011,0.28086 -0.064,0.32862 -0.034,0.0216 -0.2193,0.0677 -0.4142,0.10251 -0.195,0.0348 -0.7006,0.13173 -1.1234,0.21536 l -0.769,0.15207 0.1987,0.39776 c 0.1094,0.21877 0.2014,0.40076 0.2046,0.4044 0.011,0.003 0.2897,-0.10122 0.6367,-0.23309 1.1975,-0.4551 1.27,-0.48007 1.3409,-0.46228 0.086,0.0212 0.1473,0.13986 0.1473,0.27883 0,0.13284 -0.031,0.161 -0.3194,0.29001 -0.1218,0.0544 -0.3283,0.14907 -0.4589,0.21017 -0.1305,0.0611 -0.3561,0.16636 -0.5011,0.23385 -0.395,0.18374 -0.4748,0.22763 -0.4748,0.26073 0,0.0515 0.4622,0.58895 0.5063,0.58895 0.024,0 0.3043,-0.16973 0.625,-0.3772 0.6278,-0.40601 0.7202,-0.45498 0.8073,-0.42735 0.079,0.0252 0.1581,0.16644 0.1582,0.28378 0,0.12352 0.011,0.12048 -0.6093,0.53645 -0.2668,0.18105 -0.5056,0.34959 -0.5307,0.37454 -0.043,0.043 -0.038,0.0561 0.095,0.25005 0.078,0.11258 0.1929,0.26088 0.2568,0.32955 0.1016,0.10899 0.695,0.67117 0.8512,0.80601 0.031,0.0265 0.122,0.1097 0.2028,0.18475 0.8575,0.79668 1.1508,1.03873 1.4358,1.18462 0.067,0.0345 0.2336,0.0852 0.4484,0.13661 0.029,0.007 0.1532,0.009 0.276,0.004 0.1813,-0.007 0.231,-0.0188 0.2642,-0.0599 z m -0.7676,-3.46891 c -0.019,-0.0195 -0.095,-0.0804 -0.1683,-0.13543 -0.1505,-0.11422 -0.1647,-0.15796 -0.056,-0.17044 0.2097,-0.0239 0.3944,0.0937 0.3799,0.242 -0.011,0.0931 -0.092,0.1269 -0.1565,0.0638 z m 2.8769,3.41507 c 0.08,-0.0588 0.31,-0.35682 0.3963,-0.51423 0.2195,-0.40007 0.3182,-0.59975 0.2969,-0.59975 -0.013,0 -0.077,0.0451 -0.1406,0.10036 -0.063,0.0553 -0.2821,0.23369 -0.4852,0.39662 -0.203,0.16296 -0.4755,0.3815 -0.6054,0.48566 -0.279,0.2238 -0.2751,0.22813 0.1778,0.19938 0.2235,-0.0142 0.3086,-0.0302 0.3602,-0.0681 z m 1.8479,-0.31085 c 0.6477,-0.13144 0.9984,-0.21808 1.0929,-0.26993 0.045,-0.0245 0.1877,-0.12902 0.3184,-0.23228 0.6402,-0.50636 0.8845,-0.6427 1.2723,-0.71005 0.1058,-0.0183 0.2099,-0.0481 0.2315,-0.0659 0.051,-0.0429 0.05,-0.19596 0,-0.24844 -0.065,-0.0649 -0.1344,-0.0497 -0.2828,0.0618 -0.2442,0.18357 -1.3619,0.79406 -1.8255,0.99712 -0.3694,0.16178 -0.5589,0.23697 -0.8904,0.35335 -0.1996,0.0701 -0.3954,0.14508 -0.4353,0.16667 l -0.072,0.0392 0.065,7.1e-4 c 0.036,4.7e-4 0.2738,-0.0412 0.5276,-0.0927 z m -7.2165,-0.31769 c -0.038,-0.12917 -0.092,-0.31796 -0.12,-0.4195 -0.1363,-0.49241 -0.2079,-0.66425 -0.3604,-0.86409 -0.1982,-0.26021 -0.7785,-0.9427 -0.8014,-0.94275 -0.073,-1.7e-4 0.2907,0.82921 0.6277,1.43006 0.2793,0.49807 0.6762,1.07781 0.713,1.04117 0.011,-0.005 -0.021,-0.1157 -0.059,-0.24489 z m 10.045,-0.0896 c 0.2455,-0.0758 0.2634,-0.10347 0.242,-0.37266 -0.016,-0.20528 -0.042,-0.28707 -0.089,-0.28707 -0.034,0 -0.1186,0.0879 -0.2674,0.27697 -0.2264,0.28768 -0.2387,0.312 -0.1919,0.379 0.048,0.0696 0.092,0.0701 0.3063,0.003 z m 0.9395,-0.12557 c 0.1114,-0.0944 0.2637,-0.43843 0.3823,-0.86388 0.29,-1.03953 0.4062,-1.59585 0.3333,-1.59585 -0.011,0 -0.04,0.0563 -0.062,0.12529 -0.036,0.11387 -0.1653,0.51896 -0.5889,1.85304 -0.08,0.25388 -0.1522,0.47644 -0.1592,0.49459 -0.019,0.0473 0.031,0.0405 0.094,-0.0133 z m -3.8184,-0.16554 c 0.4951,-0.21312 1.1377,-0.53408 1.4942,-0.74624 0.3482,-0.20717 1.2477,-0.77771 1.2932,-0.82012 0.026,-0.0242 -0.048,-0.0964 -0.3404,-0.3332 -0.381,-0.30854 -0.8343,-0.6693 -0.9224,-0.73391 -0.077,-0.0571 -0.1236,-0.0174 -0.1691,0.14679 -0.1812,0.65305 -0.5081,1.70748 -0.5849,1.88726 -0.053,0.12386 -0.1135,0.13092 -0.1132,0.0132 0,-0.0472 0.025,-0.29253 0.052,-0.54528 0.029,-0.25277 0.045,-0.46635 0.037,-0.47464 -0.018,-0.0183 -0.054,0.0239 -0.5982,0.70659 -0.6217,0.77993 -0.7317,0.92909 -0.7317,0.9927 0,0.13484 0.084,0.12138 0.5826,-0.0931 z m 3.7422,-0.57755 c 0.015,-0.0279 0.1207,-0.39288 0.2348,-0.81112 0.3356,-1.22752 0.3315,-1.21028 0.3015,-1.30746 l -0.026,-0.086 -0.041,0.0924 c -0.021,0.0508 -0.048,0.14865 -0.058,0.21748 -0.018,0.12886 -0.1355,0.30576 -0.1754,0.2655 -0.021,-0.0215 -0.3145,-1.1092 -0.4186,-1.55319 -0.063,-0.27046 -0.1427,-0.39039 -0.341,-0.51622 -0.1617,-0.10251 -0.2063,-0.0981 -0.2373,0.0235 -0.029,0.11246 -0.1094,1.31327 -0.109,1.62067 0,0.20395 -0.016,0.24481 -0.085,0.21803 -0.07,-0.0265 -0.1516,-0.21493 -0.3598,-0.82309 -0.198,-0.57783 -0.2531,-0.71886 -0.2814,-0.71886 -0.034,0 -0.071,0.17604 -0.1048,0.51296 -0.057,0.5464 -0.051,0.70295 0.019,0.79577 0.072,0.0928 0.035,0.0609 0.5173,0.45221 0.2191,0.17786 0.4097,0.34442 0.4235,0.37014 0.014,0.0258 0.057,0.17651 0.096,0.33512 0.078,0.31814 0.2075,0.70617 0.2657,0.79756 0.045,0.0696 0.2105,0.16252 0.2933,0.16418 0.032,4.6e-4 0.072,-0.0216 0.085,-0.0495 z m 1.4268,-1.31544 c -0.034,-0.44068 -0.1258,-0.90193 -0.3618,-1.79922 -0.367,-1.39552 -0.3841,-1.47284 -0.3392,-1.5368 0.022,-0.0316 0.042,-0.046 0.042,-0.032 0,0.0352 0.1026,0.15486 0.1183,0.13938 0.011,-0.0119 -0.078,-0.37927 -0.2547,-1.05014 -0.45,-1.70178 -0.8012,-2.42603 -1.5946,-3.2888 -0.2066,-0.22463 -0.3642,-0.34973 -0.3981,-0.31596 -0.019,0.0193 0.036,0.11648 0.179,0.30978 0.3013,0.41012 0.5775,1.17161 0.5775,1.59251 0,0.21992 -0.018,0.20033 -0.6665,-0.69324 -0.2645,-0.36502 -0.5284,-0.73107 -0.5865,-0.81344 -0.2317,-0.329 -0.5459,-0.58905 -0.8176,-0.67672 -0.268,-0.0865 -1.1932,-0.28495 -1.4238,-0.30541 -0.2797,-0.0249 -0.7788,-0.007 -0.7788,0.0276 0,0.0133 0.018,0.0309 0.04,0.0393 0.022,0.009 0.04,0.027 0.04,0.0415 0,0.0144 0.076,0.11705 0.1677,0.22798 0.093,0.11093 0.2899,0.35601 0.4392,0.5446 0.1494,0.18861 0.2758,0.34786 0.2807,0.3539 0.011,0.006 0.016,0.004 0.025,-0.004 0.033,-0.034 -0.1304,-0.29063 -0.3053,-0.47645 -0.1913,-0.20354 -0.3692,-0.42299 -0.3692,-0.45579 0,-0.0419 0.2403,0.0192 0.4233,0.10782 0.7314,0.35379 1.2398,0.78882 1.8067,1.54594 0.028,0.0381 0.1287,0.16858 0.223,0.29016 0.4478,0.578 0.8575,1.23576 1.2139,1.94879 0.2459,0.4915 0.3983,0.88914 0.6171,1.60904 0.111,0.3657 0.2872,0.83603 0.3285,0.8774 0.043,0.0433 0.04,-0.0117 -0.033,-0.51001 -0.094,-0.6368 -0.1549,-0.88647 -0.4218,-1.73583 -0.1048,-0.33487 -0.1197,-0.46049 -0.051,-0.44695 0.044,0.009 0.1137,0.15556 0.4034,0.8526 0.4942,1.18753 1.0738,3.00776 1.4116,4.43147 0.025,0.10154 0.052,0.20243 0.063,0.2242 0.032,0.0681 0.036,-0.62834 0.011,-1.02318 z m -8.2443,0.92945 c 0.2644,-0.0734 0.2674,-0.1126 0.011,-0.13189 -0.2298,-0.0172 -0.3133,0.004 -0.3133,0.0774 0,0.0728 0.05,0.12586 0.1048,0.11026 0.022,-0.006 0.112,-0.0316 0.199,-0.0557 z m 5.9624,-3.74025 c 0.063,-0.75933 0.064,-0.81816 0.025,-0.87988 -0.025,-0.0363 -0.052,-0.0559 -0.064,-0.0436 -0.048,0.0527 -0.085,0.66718 -0.094,1.57889 l -0.011,0.97598 0.039,-0.40886 c 0.02,-0.22486 0.068,-0.77504 0.1058,-1.22259 z m 0.3489,0.21365 c -0.011,-0.0182 -0.045,-0.12717 -0.087,-0.24231 l -0.076,-0.20936 -0.033,0.0775 c -0.018,0.0427 -0.034,0.12807 -0.034,0.18994 0,0.0992 0.011,0.11868 0.084,0.16477 0.097,0.0594 0.163,0.0682 0.1456,0.0195 z m -9.2121,-1.68237 c 0.071,-0.0787 0.035,-0.14527 -0.2351,-0.43445 l -0.2343,-0.25068 -0.1261,0.12828 c -0.1539,0.15632 -0.4041,0.26475 -0.6608,0.28626 -0.148,0.0124 -0.1964,0.005 -0.2969,-0.0433 -0.1575,-0.0762 -0.2864,-0.22235 -0.2758,-0.31235 0.011,-0.099 0.051,-0.0975 0.1678,0.007 0.065,0.0583 0.1312,0.0927 0.1767,0.0927 0.084,3e-5 0.081,0.006 0.044,-0.10155 -0.018,-0.053 -0.047,-0.0831 -0.078,-0.0831 -0.1492,0 -0.2361,-0.11668 -0.2361,-0.31723 0,-0.11767 0.041,-0.15753 0.1836,-0.1766 0.1386,-0.0186 0.1367,-0.0725 -0.011,-0.10804 -0.1427,-0.0361 -0.1853,-0.0123 -0.3009,0.16832 -0.05,0.0789 -0.1069,0.1434 -0.1255,0.1434 -0.019,0 -0.061,-0.0645 -0.094,-0.14334 -0.033,-0.0789 -0.074,-0.15446 -0.091,-0.16805 -0.017,-0.0136 -0.1449,-0.0327 -0.2839,-0.0425 -0.2268,-0.016 -0.2592,-0.0126 -0.316,0.0335 l -0.064,0.0513 0.048,0.14116 c 0.027,0.0777 0.1116,0.27172 0.1881,0.43131 0.1593,0.33293 0.3562,0.56175 0.5612,0.65242 0.1471,0.0651 0.5002,0.0889 1.4059,0.0952 0.5683,0.004 0.5983,0.002 0.6446,-0.0495 z m 4.8923,-0.13168 c 0,-0.0581 -0.2152,-0.45112 -0.2555,-0.46659 -0.064,-0.0246 -0.1401,0.0859 -0.1401,0.20325 0,0.13416 0.1631,0.2903 0.3033,0.2903 0.051,0 0.093,-0.0121 0.093,-0.027 z m 1.3321,-0.0414 c 0.3682,-0.0726 0.7477,-0.32316 0.8557,-0.56474 0.064,-0.14393 0.066,-0.22122 0.013,-0.42856 -0.04,-0.15348 -0.032,-0.36275 0.013,-0.36275 0.011,0 0.06,0.0273 0.1098,0.0607 0.073,0.0497 0.09,0.0773 0.089,0.15167 0,0.05 -0.011,0.12061 -0.022,0.15686 -0.032,0.0961 0.016,0.0426 0.1274,-0.14352 0.1665,-0.27724 0.1242,-0.34629 -0.1986,-0.32418 -0.2853,0.0196 -0.3107,0.0442 -0.3082,0.29692 0,0.15937 -0.011,0.21951 -0.068,0.33864 -0.1172,0.2397 -0.5637,0.61062 -0.8173,0.67887 -0.1349,0.0363 -0.2592,0.0164 -0.5178,-0.0834 -0.2341,-0.0903 -0.4008,-0.22314 -0.5271,-0.42001 -0.047,-0.0727 -0.095,-0.1323 -0.1069,-0.1323 -0.036,0 -0.1308,0.14966 -0.1308,0.20752 0,0.0299 0.046,0.0993 0.1026,0.15419 0.057,0.0549 0.1264,0.15544 0.1559,0.22332 0.066,0.15321 0.1682,0.21245 0.4013,0.23406 0.2281,0.0212 0.6031,0.002 0.8308,-0.0433 z m -10.3833,-0.33393 c 0.016,-0.14871 0.042,-0.40687 0.056,-0.57372 0.014,-0.16683 0.038,-0.42205 0.052,-0.56711 0.044,-0.44747 0.041,-0.4808 -0.058,-0.54049 -0.1466,-0.0891 -0.1458,-0.0993 -0.057,0.86362 0.015,0.16168 0.014,0.16485 -0.049,0.16485 -0.093,0 -0.1216,-0.11992 -0.1659,-0.70901 -0.041,-0.52826 -0.059,-0.61667 -0.1419,-0.66109 -0.061,-0.0325 -0.068,-0.0229 -0.093,0.11057 -0.018,0.10475 -0.06,0.12955 -0.086,0.0527 -0.1131,-0.32522 -0.1847,-0.44846 -0.3599,-0.61949 -0.1004,-0.0981 -0.1931,-0.17845 -0.2058,-0.17845 -0.08,0 0.049,0.23687 0.224,0.40954 l 0.1351,0.13345 0.2442,0.73745 c 0.264,0.79744 0.3107,0.97485 0.3368,1.2782 0.038,0.44918 0.1229,0.4991 0.1671,0.0989 z m 10.1739,-0.0215 c 0.2507,-0.0652 0.3912,-0.14277 0.5228,-0.2883 0.1393,-0.15426 0.16,-0.22264 0.1026,-0.33826 -0.084,-0.16823 -0.1074,-0.14647 -0.177,0.16186 -0.025,0.10834 -0.1324,0.14181 -0.5714,0.17725 -0.333,0.0269 -0.3945,0.0255 -0.48,-0.01 -0.054,-0.0226 -0.1086,-0.0682 -0.1215,-0.10165 -0.013,-0.0333 -0.056,-0.09 -0.093,-0.12589 -0.059,-0.0549 -0.074,-0.0591 -0.095,-0.0264 -0.045,0.0714 -0.026,0.17376 0.056,0.29613 0.071,0.10646 0.2511,0.24941 0.3681,0.29148 0.087,0.0308 0.2902,0.0158 0.4897,-0.0361 z m -6.9243,-0.0466 c 0.1457,-0.0928 0.1939,-0.14976 0.1726,-0.20481 -0.018,-0.05 -0.091,-0.0377 -0.2683,0.0457 -0.1227,0.0576 -0.1674,0.13318 -0.1157,0.19542 0.045,0.0541 0.078,0.0484 0.2114,-0.0363 z m 7.0081,-0.36143 c 0.032,-0.0222 0.094,-0.11421 0.1362,-0.20444 0.043,-0.0902 0.1048,-0.19181 0.1361,-0.22577 0.051,-0.0556 0.053,-0.0658 0.017,-0.1024 -0.036,-0.0367 -0.05,-0.0348 -0.1358,0.0182 -0.052,0.0323 -0.113,0.0931 -0.1345,0.13493 -0.084,0.16188 -0.327,0.20599 -0.4976,0.0902 -0.128,-0.0868 -0.3059,-0.0865 -0.3059,4.7e-4 0,0.0316 0.331,0.27458 0.4221,0.30977 0.082,0.0317 0.3056,0.0189 0.3624,-0.0209 z m -1.5494,-0.39459 c 0.5882,-0.35711 0.8629,-0.52532 0.9496,-0.58128 0.051,-0.0328 0.1434,-0.0912 0.2059,-0.12966 l 0.1137,-0.07 -0.3115,-0.20058 c -0.1712,-0.11033 -0.4596,-0.29493 -0.6408,-0.41024 -0.6714,-0.42722 -0.7116,-0.45938 -0.6342,-0.50719 0.014,-0.009 0.2544,0.12904 0.5342,0.30609 0.2797,0.17705 0.5976,0.37732 0.7063,0.44503 0.1088,0.0677 0.2987,0.18827 0.4221,0.26787 0.1232,0.0796 0.242,0.15268 0.2637,0.16236 0.021,0.01 0.066,0.037 0.099,0.0607 0.072,0.052 0.077,0.0166 0.018,-0.10432 -0.05,-0.10304 -0.5559,-0.50752 -1.0732,-0.85869 -0.2253,-0.15299 -0.9098,-0.47738 -1.007,-0.47738 -0.087,0 -0.1087,0.0369 -0.1642,0.27697 -0.057,0.2413 -0.06,0.66841 -0.013,1.26985 0.016,0.20106 0.036,0.46924 0.045,0.59593 l 0.016,0.23034 0.1098,-0.0618 c 0.06,-0.034 0.2225,-0.1303 0.3604,-0.21397 z m -9.7172,0.18531 c -0.057,-0.0871 -0.055,-0.23878 0.011,-0.46946 0.075,-0.26667 0.044,-0.46601 -0.072,-0.46747 -0.03,-3.9e-4 -0.2443,0.29065 -0.2456,0.33447 0,0.0117 -0.025,0.051 -0.052,0.0872 -0.028,0.0362 -0.051,0.0798 -0.052,0.0967 0,0.0473 0.3753,0.48361 0.4171,0.48361 0.03,0 0.029,-0.0121 -0.011,-0.065 z m 7.3192,-0.30059 c 0.1026,-0.12702 0.031,-0.31659 -0.1413,-0.3687 -0.1037,-0.0317 -2.0175,-0.0988 -2.0444,-0.0717 -0.011,0.0107 0.011,0.0408 0.041,0.0673 0.033,0.0265 0.06,0.0628 0.06,0.0807 0,0.0457 -0.5253,0.0161 -0.9364,-0.0526 -0.424,-0.071 -0.6991,-0.0951 -0.6991,-0.0615 0,0.0386 0.2423,0.0998 0.7518,0.19015 1.1719,0.20769 1.8808,0.28818 2.4886,0.28256 0.4189,-0.004 0.4323,-0.005 0.4814,-0.0663 z m 5.2181,-0.39734 c 0.03,-0.0189 0.023,-0.0369 -0.04,-0.0911 -0.066,-0.0586 -0.1016,-0.0676 -0.2638,-0.0683 -0.1454,-4.7e-4 -0.2127,0.0127 -0.3016,0.0597 -0.202,0.10678 -0.1716,0.12416 0.2162,0.12372 0.1933,-2e-4 0.3683,-0.011 0.3887,-0.0241 z m -5.3459,-0.18629 c 0.071,-0.0211 0.1037,-0.0476 0.1152,-0.0954 0.026,-0.1009 -0.016,-0.43513 -0.058,-0.47785 -0.041,-0.0411 -0.4248,-0.10048 -1.2377,-0.19205 -0.6032,-0.068 -0.6198,-0.071 -0.6198,-0.11448 0,-0.0189 0.066,-0.12846 0.1461,-0.24349 0.3232,-0.46218 0.4344,-0.66306 0.5533,-1.00035 0.065,-0.1848 0.1424,-0.39006 0.1716,-0.4561 0.1196,-0.27038 0.4013,-0.51161 0.8078,-0.69167 0.1253,-0.0555 0.2378,-0.11673 0.25,-0.13608 0.028,-0.0443 0.031,-0.93753 0.011,-0.95474 -0.011,-0.007 -0.3705,0.004 -0.798,0.0249 -0.4275,0.0206 -1.1186,0.0449 -1.5356,0.0538 l -0.7583,0.016 -0.025,0.0959 c -0.014,0.0527 -0.05,0.38077 -0.082,0.72897 -0.1221,1.35486 -0.2042,2.11725 -0.2344,2.17346 -0.081,0.15258 -0.094,0.0498 -0.107,-0.92052 -0.011,-0.72814 -0.02,-0.96103 -0.046,-0.96927 -0.1467,-0.0488 -0.1794,-0.17466 -0.097,-0.376 0.034,-0.0859 0.048,-0.18641 0.048,-0.36422 0,-0.33697 0,-0.3344 -0.4842,-0.38528 -0.4186,-0.0438 -0.7695,-0.11056 -1.0933,-0.20804 -0.217,-0.0653 -0.2689,-0.10667 -0.1725,-0.13722 0.031,-0.01 0.7882,-0.002 1.6831,0.0161 0.8949,0.0186 2.0804,0.0346 2.6347,0.0354 1.1816,0.002 1.0874,0.029 1.0881,-0.31514 0,-0.11606 -0.011,-0.23821 -0.016,-0.27143 -0.03,-0.11067 -0.1344,-0.13627 -0.728,-0.17799 -1.3662,-0.096 -1.9111,-0.14226 -1.9786,-0.16795 -0.046,-0.0175 -0.073,-0.047 -0.073,-0.0808 0,-0.0525 0.016,-0.0532 1.3783,-0.06 l 1.3782,-0.007 v -0.50118 -0.50117 l -0.4615,-0.0233 c -1.3378,-0.0675 -3.2422,0.19984 -4.96,0.69618 -0.7882,0.22771 -1.1059,0.36203 -1.7155,0.72534 -0.3785,0.22553 -0.4729,0.29212 -0.4729,0.33358 0,0.0372 0.5422,0.0249 0.8407,-0.019 0.1542,-0.0227 0.443,-0.0821 0.6417,-0.13189 0.3725,-0.0934 0.4695,-0.10738 0.4695,-0.0674 0,0.0471 -0.074,0.0801 -0.4108,0.18351 -0.4784,0.14679 -0.669,0.18147 -1.185,0.21563 -0.4802,0.0318 -0.6278,0.0671 -0.7281,0.17434 -0.063,0.0676 -0.063,0.0689 -0.058,0.639 0.011,0.87559 0,0.84828 0.4629,1.71868 0.5103,0.96146 0.6849,1.26237 0.7899,1.3625 0.1894,0.18014 0.6684,0.4323 1.091,0.5743 0.4219,0.1418 1.225,0.32169 1.225,0.27444 0,-0.0135 -0.018,-0.0595 -0.041,-0.1023 -0.04,-0.0751 -0.038,-0.0778 0.019,-0.0774 0.033,2e-4 0.3448,0.0358 0.6932,0.079 0.3481,0.0432 0.6499,0.0786 0.6706,0.0787 0.026,9e-5 0.019,-0.0191 -0.022,-0.0637 -0.033,-0.0352 -0.052,-0.0767 -0.042,-0.0924 0.034,-0.0533 0.4072,-0.0301 0.7891,0.0489 0.3343,0.0693 0.795,0.14174 1.0848,0.17082 0.1997,0.02 1.108,-0.007 1.2067,-0.0367 z m -4.2796,-0.4099 c -0.2249,-0.0488 -0.4684,-0.10144 -0.541,-0.117 -0.1504,-0.0323 -0.4339,-0.2138 -1.266,-0.81052 -0.3146,-0.2257 -0.4087,-0.30646 -0.4087,-0.35066 0,-0.0392 0.02,-0.0334 0.3165,0.0889 0.4305,0.17794 0.8579,0.25006 1.1999,0.20247 0.1111,-0.0154 0.207,-0.0281 0.2132,-0.0281 0.011,0 0.011,0.0835 0.011,0.1855 0,0.398 0.096,0.49477 0.73,0.73664 0.2131,0.0813 0.291,0.12258 0.2807,0.14908 -0.018,0.0503 -0.067,0.0452 -0.5359,-0.0563 z m -0.073,-0.49389 c -0.1236,-0.13192 -0.1226,-0.30817 0.011,-0.4118 0.095,-0.0786 0.3341,0.0789 0.3341,0.21985 0,0.21293 -0.2065,0.33073 -0.3366,0.19195 z m -0.6962,-1.38483 c -0.041,-0.24943 -0.1191,-0.3495 -0.2723,-0.3495 -0.225,0 -0.4287,-0.0667 -1.3194,-0.43175 -0.5639,-0.23106 -0.7399,-0.35766 -0.4498,-0.32357 0.7354,0.0865 1.2079,0.0719 1.7373,-0.0531 0.1568,-0.037 0.2926,-0.0601 0.3016,-0.0512 0.017,0.0174 0.1358,1.14986 0.1375,1.31467 0,0.0806 -0.011,0.0989 -0.05,0.0989 -0.043,0 -0.057,-0.0315 -0.086,-0.20441 z m 0.4354,-0.0327 c -0.081,-0.0327 -0.1412,-0.13035 -0.1412,-0.22897 0,-0.062 0.024,-0.10698 0.086,-0.16547 0.048,-0.0443 0.1058,-0.0804 0.1302,-0.0805 0.025,-8e-5 0.089,0.0538 0.1425,0.11952 0.1084,0.13231 0.1047,0.1639 -0.032,0.31201 -0.068,0.0737 -0.094,0.0798 -0.1848,0.0434 z m 0.054,-1.42892 c -0.051,-0.10026 -0.036,-0.26618 0.031,-0.3409 0.026,-0.0279 0.092,-0.0644 0.1466,-0.081 0.1149,-0.0344 0.1576,-0.0122 0.2245,0.11717 0.05,0.0975 0.031,0.17731 -0.073,0.29535 -0.066,0.0761 -0.099,0.0928 -0.1835,0.0928 -0.088,0 -0.1082,-0.0117 -0.1452,-0.0835 z m -2.4731,-0.18579 c -0.011,-0.032 -0.013,-0.0603 -0.011,-0.0627 0.026,-0.0213 0.5642,-0.19561 0.604,-0.19561 0.038,0 0.049,0.0152 0.043,0.0592 -0.011,0.0495 -0.054,0.0756 -0.2855,0.15756 -0.1522,0.0541 -0.2904,0.0987 -0.3068,0.099 -0.016,4.1e-4 -0.036,-0.0256 -0.045,-0.0575 z m 3.7946,-2.15708 c -0.05,-0.0822 0.5282,-0.21205 1.3053,-0.2927 0.4087,-0.0424 1.1577,-0.046 1.2267,-0.005 0.075,0.0436 0.042,0.0512 -0.422,0.0978 -1.1429,0.11505 -1.96,0.20068 -2.0237,0.21208 -0.039,0.007 -0.078,0.002 -0.085,-0.0114 z m 4.9808,5.67736 c -0.012,-0.22851 -0.023,-0.5069 -0.023,-0.61866 0,-0.20076 0,-0.20448 0.1037,-0.30893 l 0.1037,-0.10571 -0.063,-0.0238 c -0.1783,-0.0667 -0.1783,-0.0667 -0.1981,0.0392 -0.019,0.1072 0.011,1.06819 0.032,1.29484 0.011,0.0762 0.029,0.13848 0.042,0.13848 0.016,0 0.017,-0.15597 0.011,-0.41544 z m 3.1432,0.30409 c 0.1016,-0.0296 0.1951,-0.0633 0.2079,-0.0749 0.013,-0.0117 -0.016,-0.0448 -0.063,-0.0734 -0.077,-0.0468 -0.097,-0.0487 -0.1949,-0.0185 -0.2934,0.0912 -0.4126,0.17485 -0.3273,0.22993 0.04,0.0252 0.12,0.0118 0.3769,-0.063 z m -0.2902,-0.24943 c 0.3045,-0.11885 0.3065,-0.13011 0.078,-0.42708 -0.1468,-0.19139 -0.3428,-0.37112 -0.5774,-0.52927 -0.1747,-0.11772 -0.39,-0.23915 -0.4241,-0.23915 -0.02,0 0.042,0.11831 0.227,0.42723 0.085,0.14374 0.2166,0.38238 0.2907,0.53033 0.074,0.14795 0.1481,0.27763 0.1644,0.28818 0.034,0.0214 0.086,0.0107 0.2407,-0.0503 z m -4.5237,-0.69559 c 0,-0.13863 -0.011,-0.16799 -0.069,-0.2242 -0.039,-0.0355 -0.079,-0.0647 -0.091,-0.0647 -0.012,0 -0.065,-0.0445 -0.1186,-0.0989 -0.2385,-0.24249 -0.2947,-0.58543 -0.1456,-0.88853 0.079,-0.16142 0.1748,-0.25704 0.3807,-0.38229 0.1157,-0.0703 0.1595,-0.15764 0.1247,-0.2489 -0.028,-0.0734 -0.093,-0.10379 -0.1698,-0.08 -0.076,0.0234 -0.3734,0.26832 -0.5142,0.4237 -0.156,0.1723 -0.2934,0.46024 -0.2931,0.61479 0,0.1438 0.088,0.52367 0.1484,0.64141 0.1354,0.26447 0.4109,0.46721 0.6348,0.46721 h 0.1134 z m -0.8178,0.0712 c 0,-0.0486 -0.2984,-0.62535 -0.3145,-0.60767 -0.057,0.0637 -0.3185,0.45581 -0.3185,0.47872 0,0.0548 0.078,0.087 0.267,0.10883 0.2221,0.0259 0.366,0.0338 0.366,0.0201 z m 0.8468,-0.66992 c 0,-0.0689 0.011,-0.24399 0.021,-0.38908 0.011,-0.14507 0.013,-0.28454 0.011,-0.30993 -0.024,-0.10708 -0.1901,-0.0138 -0.2779,0.15695 -0.054,0.10561 -0.056,0.28841 -0.011,0.41372 0.04,0.0934 0.1829,0.25364 0.2277,0.25364 0.013,0 0.025,-0.0563 0.026,-0.1253 z m -8.6079,-3.56428 c 0.1884,-0.1289 0.4441,-0.35236 0.5626,-0.49128 0.049,-0.058 0.1037,-0.12044 0.1211,-0.1387 0.017,-0.0183 0.098,-0.1291 0.1814,-0.24627 0.1309,-0.18574 0.1551,-0.20815 0.1882,-0.17493 0.058,0.058 0.084,0.21668 0.057,0.34063 -0.021,0.098 -0.1205,0.2577 -0.3365,0.54604 l -0.067,0.0894 0.065,-0.0195 c 0.05,-0.0151 0.638,-0.23407 1.3649,-0.50883 0.019,-0.007 -0.037,-0.0769 -0.1451,-0.17327 -0.3683,-0.33127 -0.6218,-0.62542 -0.5774,-0.66986 0.029,-0.0294 0.1394,0.0227 0.2394,0.11323 0.095,0.0866 0.1138,0.0932 0.2166,0.0778 0.1083,-0.0161 0.1137,-0.0136 0.1492,0.0703 0.051,0.12261 0.2378,0.36215 0.3262,0.4204 0.098,0.0647 0.2067,0.0609 0.3488,-0.0118 0.1807,-0.0925 0.1824,-0.11028 0.031,-0.33844 -0.074,-0.11091 -0.2841,-0.50262 -0.467,-0.87047 -0.5396,-1.08534 -0.9832,-2.00184 -0.9909,-2.04815 -0.011,-0.0247 0.014,-0.0475 0.042,-0.0531 0.063,-0.0128 0.2012,0.11905 0.3408,0.32463 0.1541,0.2269 0.2794,0.37643 0.3692,0.44032 l 0.078,0.0556 -0.019,-0.0633 c -0.012,-0.0349 -0.081,-0.13737 -0.1563,-0.22791 -0.1703,-0.20544 -1.0556,-1.95701 -1.25,-2.47315 -0.2781,-0.73802 -0.4366,-1.4223 -0.4916,-2.12341 -0.017,-0.21691 -0.1131,-0.53393 -0.1572,-0.51944 -0.075,0.0244 -0.1658,0.60262 -0.1985,1.25802 -0.015,0.29739 -0.034,0.59415 -0.041,0.65944 -0.023,0.19515 -0.073,0.39479 -0.096,0.38001 -0.012,-0.007 -0.023,-0.12648 -0.023,-0.26419 0,-0.28041 -0.027,-0.3575 -0.1639,-0.47215 -0.048,-0.0399 -0.1757,-0.15231 -0.2845,-0.24991 -0.4942,-0.4433 -0.5965,-0.53229 -0.6413,-0.55751 -0.045,-0.0256 -0.047,-0.0129 -0.032,0.23207 0.027,0.42802 0.1404,1.03599 0.225,1.20833 0.029,0.0583 0.1005,0.15923 0.1609,0.22452 0.06,0.0652 0.1532,0.21367 0.2071,0.32973 0.2392,0.51358 0.3475,0.72537 0.3711,0.72537 0.014,0 0.026,-0.0563 0.026,-0.12528 0,-0.0688 0.012,-0.21143 0.026,-0.31668 0.028,-0.2108 0.011,-0.30859 -0.081,-0.36979 -0.1125,-0.0789 -0.2902,-0.46251 -0.2382,-0.51449 0.021,-0.0216 0.2406,0.25149 0.2406,0.30003 0,0.0469 0.1102,0.054 0.1429,0.01 0.084,-0.11513 0.095,-0.0203 0.088,0.77488 -0.011,0.7591 -0.011,0.78865 0.054,0.96638 0.075,0.2239 0.1085,0.29031 0.2721,0.53911 0.078,0.11864 0.1281,0.22442 0.1281,0.27036 0,0.14779 -0.066,0.0859 -0.2509,-0.23446 -0.07,-0.11968 -0.1338,-0.2176 -0.1439,-0.2176 -0.049,0 -0.042,0.0538 0.042,0.3758 0.1097,0.42367 0.11,0.42633 0.018,0.40366 -0.085,-0.0213 -0.1136,0.0153 -0.1141,0.14447 0,0.1277 0.056,0.19768 0.2002,0.24672 0.067,0.0229 0.2008,0.0861 0.297,0.14034 0.096,0.0543 0.1839,0.0961 0.1948,0.0929 0.011,-0.003 0.017,0.004 0.013,0.0151 -0.011,0.0115 0.077,0.0914 0.1781,0.17753 0.2937,0.24912 0.3033,0.25821 0.3033,0.28398 0,0.0413 -0.1253,-0.004 -0.2735,-0.0989 -0.181,-0.11581 -0.6871,-0.35743 -0.9344,-0.44613 -0.1615,-0.0579 -0.2354,-0.0688 -0.4617,-0.0676 -0.148,7.1e-4 -0.3106,-0.0112 -0.3612,-0.0265 -0.1027,-0.0312 -0.4297,-0.0382 -0.4583,-0.01 -0.011,0.01 0.1828,0.0855 0.4285,0.16746 0.4623,0.15414 0.7386,0.27332 0.966,0.41682 0.2069,0.13061 0.8261,0.59398 0.8413,0.62972 0.026,0.061 -0.06,0.10486 -0.2363,0.12139 -0.097,0.01 -0.1845,0.0237 -0.1933,0.0325 -0.011,0.009 0.016,0.0391 0.054,0.0673 0.1624,0.11824 0.1935,0.15153 0.1667,0.17884 -0.019,0.0186 -0.225,-0.0229 -0.6554,-0.13185 -0.3458,-0.0874 -0.6361,-0.15181 -0.6449,-0.14295 -0.021,0.0223 0.2388,0.54224 0.3848,0.76572 0.066,0.10155 0.1849,0.25897 0.2635,0.34981 l 0.1429,0.16514 -0.081,0.0762 c -0.068,0.0643 -0.081,0.0957 -0.081,0.20036 0,0.14527 0.011,0.14507 0.2313,-0.01 z m 0.7247,-3.75553 c -0.1576,-0.19612 -0.4811,-1.19832 -0.4812,-1.49035 0,-0.1189 0.037,-0.15235 0.06,-0.0527 0.012,0.054 0.4576,1.46559 0.4873,1.5431 0.011,0.0182 0,0.033 -0.013,0.033 -0.014,0 -0.037,-0.0147 -0.052,-0.033 z m 7.9438,2.14751 c 0.011,-0.0122 -0.063,-0.25842 -0.1564,-0.54733 -0.093,-0.28891 -0.1701,-0.54012 -0.1703,-0.55826 0,-0.057 0.06,-0.036 0.1513,0.0525 0.065,0.0633 0.094,0.0766 0.1089,0.0516 0.046,-0.0744 0.072,-5.01516 0.028,-5.32022 -0.042,-0.29793 -0.1484,-0.73807 -0.2716,-1.13425 -0.1235,-0.39713 -0.169,-0.61987 -0.1266,-0.61987 0.044,0 0.1367,0.17481 0.2662,0.50273 0.068,0.17338 0.1322,0.30726 0.1419,0.29752 0.011,-0.01 0.018,-0.23401 0.018,-0.49839 0,-0.48578 -0.033,-0.76792 -0.1232,-1.05363 -0.052,-0.16514 -0.2247,-0.50192 -0.3109,-0.60668 l -0.065,-0.0792 v 0.48799 c 0,0.43292 -0.027,0.68582 -0.07,0.68582 -0.043,0 -0.1783,-0.12478 -0.2518,-0.23256 -0.047,-0.068 -0.094,-0.1275 -0.1058,-0.13233 -0.012,-0.004 -0.021,-0.0213 -0.021,-0.0367 0,-0.0868 -1.0341,-1.15477 -1.1181,-1.15477 -0.023,0 -0.046,0.0697 -0.067,0.19124 -0.1665,0.95591 -0.2762,1.52653 -0.3222,1.67554 -0.1048,0.34037 -0.422,0.90485 -0.6665,1.18727 -0.1134,0.13095 -0.1241,0.12754 -0.9085,-0.28932 -0.3614,-0.19202 -0.5707,-0.32414 -0.8081,-0.50996 -0.3144,-0.24612 -0.303,-0.231 -0.6749,-0.89632 -0.048,-0.087 -0.1174,-0.21617 -0.1526,-0.28698 l -0.064,-0.12871 -0.035,0.0674 c -0.128,0.24418 -0.153,0.83082 -0.061,1.42305 0.06,0.38189 0.098,0.48942 0.2157,0.58783 0.078,0.0651 0.086,0.1446 0.015,0.14394 -0.019,-2e-4 -0.1048,-0.0419 -0.1921,-0.0927 -0.251,-0.14653 -0.3712,-0.19747 -0.5611,-0.23772 -0.2181,-0.0463 -0.3547,-0.0486 -0.3964,-0.007 -0.047,0.0465 -0.042,0.0589 0.076,0.19503 0.1446,0.16711 0.2184,0.34374 0.3163,0.75779 0.1005,0.42594 0.2613,0.76943 0.5253,1.12271 0.1016,0.13614 0.185,0.26968 0.185,0.29674 0,0.0824 -0.1341,0.0735 -0.3429,-0.0228 -0.3503,-0.16158 -0.4197,-0.18755 -0.6066,-0.22665 -0.1088,-0.0228 -0.2989,-0.0488 -0.422,-0.058 l -0.2244,-0.0168 0.3034,0.30759 c 0.1668,0.16919 0.4517,0.45907 0.6331,0.64418 0.4662,0.47593 0.8634,0.80101 1.1649,0.9532 0.3715,0.18758 0.7615,0.51039 1.0896,0.90183 0.1763,0.21028 0.2035,0.20002 0.1399,-0.0527 -0.077,-0.30401 -0.093,-0.84965 -0.034,-1.09513 0.056,-0.22828 0.1069,-0.33586 0.16,-0.33586 0.048,0 0.07,0.0518 0.1432,0.36929 0.181,0.77332 0.3955,1.2516 0.7398,1.64928 0.1903,0.21993 1.0209,0.91532 1.3709,1.14776 0.094,0.0625 0.2507,0.17156 0.3475,0.24213 0.3,0.21844 0.562,0.2977 1.0161,0.30734 0.09,0.002 0.1693,-0.006 0.1769,-0.0186 z m -1.7393,-1.8246 c -0.3027,-0.40522 -0.3665,-0.53153 -0.2759,-0.54621 0.063,-0.01 0.6854,0.80106 0.6857,0.89311 10e-5,0.0339 -0.048,0.0754 -0.089,0.0754 -0.011,0 -0.1474,-0.19002 -0.3211,-0.42226 z m -1.2668,-0.12955 c -0.04,-0.0588 -0.083,-0.0992 -0.098,-0.0899 -0.016,0.01 -0.018,0.004 -0.011,-0.0138 0.011,-0.0168 -0.011,-0.0632 -0.032,-0.10304 -0.087,-0.12435 -0.1889,-0.43238 -0.2832,-0.85366 -0.1047,-0.46912 -0.1058,-0.4783 -0.048,-0.46697 0.042,0.009 0.1688,0.33642 0.4813,1.23509 0.1293,0.37198 0.1296,0.37319 0.091,0.38748 -0.017,0.006 -0.063,-0.0365 -0.1026,-0.0952 z m 2.0285,-1.24848 c 0.011,-0.0471 0.046,-0.22816 0.082,-0.40224 0.1037,-0.49526 0.1372,-1.11086 0.097,-1.78695 -0.018,-0.30838 -0.039,-0.59333 -0.048,-0.63322 -0.012,-0.0606 -0.011,-0.0726 0.04,-0.0726 0.1005,0 0.1321,0.23214 0.1906,1.38484 0.018,0.34819 0.041,0.6484 0.049,0.66712 0.011,0.0219 0.083,-0.0554 0.2006,-0.21676 0.1698,-0.23289 0.2469,-0.29354 0.288,-0.22701 0.019,0.0307 -0.031,0.11741 -0.4719,0.82585 -0.2565,0.41209 -0.3531,0.54665 -0.3924,0.54665 -0.045,0 -0.049,-0.0126 -0.036,-0.0857 z m -2.884,-2.45602 c -0.065,-0.0481 -0.1351,-0.10708 -0.155,-0.13123 -0.054,-0.0664 -0.076,-0.0547 -0.1324,0.0746 -0.039,0.0867 -0.064,0.1142 -0.094,0.10262 -0.05,-0.0191 -0.051,-0.0294 -0.1026,-0.51124 -0.042,-0.38743 -0.032,-0.46267 0.048,-0.39618 0.037,0.0312 0.3486,0.45344 0.5638,0.76575 0.1356,0.19656 0.073,0.24343 -0.1279,0.0958 z m 9.9496,2.21341 c 0.025,-0.0107 0.079,-0.0746 0.1219,-0.14221 0.1312,-0.20996 0.3635,-0.61662 0.4473,-0.78339 0.2034,-0.40466 0.4776,-1.13913 0.5197,-1.39215 0.016,-0.0938 0.013,-0.0988 -0.034,-0.0731 -0.028,0.0153 -0.1015,0.10796 -0.1636,0.20617 -0.6817,1.08586 -0.9883,1.5167 -1.3503,1.89778 -0.1126,0.11863 -0.2048,0.23413 -0.2048,0.25667 0,0.0232 0.031,0.048 0.072,0.057 0.041,0.009 0.081,0.018 0.093,0.0204 0.045,0.01 0.4577,-0.0294 0.4996,-0.0472 z m -0.9278,-1.56278 c 0.1652,-0.11315 0.316,-0.34449 0.4519,-0.69333 0.014,-0.036 0.021,-0.0598 0.015,-0.0527 -0.033,0.0388 -0.5847,0.64786 -0.5974,0.65889 -0.011,0.007 -0.037,0.0399 -0.065,0.0726 l -0.05,0.0593 h 0.091 c 0.049,0 0.12,-0.0201 0.1558,-0.0447 z m -1.3224,-0.27355 c 0.1106,-0.059 0.2271,-0.12724 0.2588,-0.15167 l 0.057,-0.0445 -0.036,-0.5803 c -0.019,-0.31918 -0.044,-0.69902 -0.052,-0.84409 -0.028,-0.47848 -0.04,-0.5521 -0.08,-0.5111 -0.019,0.02 -0.06,0.13126 -0.091,0.24733 -0.063,0.24264 -0.4496,1.86974 -0.4496,1.89309 0,0.036 0.087,0.0984 0.1373,0.0984 0.03,0 0.1448,-0.0483 0.2556,-0.10723 z m -1.4659,-1.2411 c 0.051,-0.0424 0.1258,-0.14291 0.1653,-0.22325 0.064,-0.13179 0.074,-0.18663 0.092,-0.55999 0.012,-0.22765 0.029,-0.52963 0.04,-0.67108 0.022,-0.29965 -0.011,-0.33316 -0.091,-0.1055 -0.095,0.25743 -0.4253,1.47887 -0.4253,1.57255 0,0.0791 0.011,0.0872 0.063,0.0764 0.034,-0.006 0.1047,-0.0468 0.1566,-0.0891 z m -1.7722,-0.13288 c 0.1813,-0.0779 1.0663,-0.98907 1.3584,-1.39833 0.2711,-0.38005 0.4841,-0.76818 0.437,-0.79662 -0.02,-0.0124 -0.6397,0.43291 -1.7493,1.2583 l -0.3133,0.23312 v 0.39621 0.39621 l 0.073,-0.0182 c 0.039,-0.01 0.1275,-0.0418 0.1947,-0.0708 z m 8.4241,23.21241 c -0.1485,-0.0493 -0.1954,-0.0827 -0.2219,-0.15905 -0.033,-0.0961 0.011,-0.18901 0.095,-0.23011 0.1344,-0.0612 0.2685,0.0763 0.3127,0.32064 0.017,0.0918 0.013,0.0988 -0.045,0.0968 -0.034,-7.1e-4 -0.098,-0.0138 -0.1414,-0.0283 z"
         id="path39" />
    </g>
  </g>
</svg>
