<?xml version="1.0" encoding="UTF-8" standalone="no"?>
<!-- Created with Inkscape (http://www.inkscape.org/) -->

<svg
   width="41.008999mm"
   height="41.008999mm"
   viewBox="0 0 41.008999 41.008999"
   version="1.1"
   id="svg1"
   inkscape:version="1.4.2 (f4327f4, 2025-05-13)"
   sodipodi:docname="329.svg"
   xmlns:inkscape="http://www.inkscape.org/namespaces/inkscape"
   xmlns:sodipodi="http://sodipodi.sourceforge.net/DTD/sodipodi-0.dtd"
   xmlns="http://www.w3.org/2000/svg"
   xmlns:svg="http://www.w3.org/2000/svg">
  <sodipodi:namedview
     id="namedview1"
     pagecolor="#ffffff"
     bordercolor="#000000"
     borderopacity="0.25"
     inkscape:showpageshadow="2"
     inkscape:pageopacity="0.0"
     inkscape:pagecheckerboard="0"
     inkscape:deskcolor="#d1d1d1"
     inkscape:document-units="mm"
     inkscape:zoom="1.4513545"
     inkscape:cx="86.470947"
     inkscape:cy="71.657199"
     inkscape:window-width="1050"
     inkscape:window-height="1081"
     inkscape:window-x="857"
     inkscape:window-y="0"
     inkscape:window-maximized="0"
     inkscape:current-layer="layer1" />
  <defs
     id="defs1" />
  <g
     inkscape:label="Layer 1"
     inkscape:groupmode="layer"
     id="layer1"
     transform="translate(333.37504,1257.5646)">
    <g
       id="g101"
       transform="translate(-1500.6376,-1082.4244)">
      <circle
         style="fill:none;stroke:#0000ff;stroke-width:0.1;stroke-linecap:round;stroke-dasharray:none;stroke-opacity:1;paint-order:markers stroke fill"
         id="circle3704-0"
         cx="1187.7671"
         cy="-169.64667"
         r="2" />
      <circle
         style="fill:none;stroke:#ff0000;stroke-width:0.1;stroke-dasharray:none"
         id="circle3706-6"
         cx="1187.7671"
         cy="-154.6357"
         r="19.954653" />
      <ellipse
         style="fill:none;stroke:#ff00ff;stroke-width:0.1;stroke-dasharray:none;stroke-opacity:1"
         id="path1138-9-4-0-0-1-2-8-1-8-1-17-4-7-6-1-7-7"
         cx="1187.7671"
         cy="-154.6357"
         rx="18.492125"
         ry="18.492126" />
      <path
         id="path1138-9-4-0-0-1-2-8-1-8-1-17-4-7-6-1-7-7-8"
         style="fill:#000000;fill-opacity:1;stroke:none;stroke-width:0.1;stroke-dasharray:none;stroke-opacity:1"
         d="m 1187.9733,-167.42706 c 0,0.002 0.029,0.28151 0.07,0.62115 0.041,0.33962 0.073,0.61844 0.073,0.61908 -10e-4,10e-4 -0.4565,-0.18028 -1.0119,-0.40307 -0.5553,-0.22281 -1.0113,-0.40422 -1.0113,-0.40359 -9e-4,8.8e-4 0.1382,0.26741 0.3091,0.59221 0.1708,0.32481 0.309,0.59157 0.309,0.59221 0,8.6e-4 -0.4839,-0.0744 -1.0728,-0.16692 -0.589,-0.0926 -1.0723,-0.16702 -1.0723,-0.16639 -10e-4,9.2e-4 0.1913,0.27054 0.4274,0.59893 0.2359,0.32841 0.4258,0.59848 0.4258,0.60048 0,0.002 -0.2622,0.0558 -0.5783,0.11989 -0.3162,0.064 -0.5803,0.11944 -0.5803,0.12144 v 0.002 c 0,0.003 0.02,0.003 0.049,5.1e-4 0.053,-0.004 1.273,-0.0713 1.296,-0.0713 0,0 0.011,-0.004 0.011,-0.007 0,-0.003 -0.1515,-0.25306 -0.3369,-0.55552 -0.1854,-0.30246 -0.3364,-0.55075 -0.3364,-0.55139 5e-4,-6.5e-4 0.4602,0.0657 1.0216,0.14728 0.5612,0.0815 1.021,0.14689 1.032,0.14625 0.012,-0.002 -0.02,-0.0651 -0.4625,-0.93018 l -0.109,-0.21239 0.9167,0.46095 0.9167,0.46096 v -0.58033 -0.57981 l 0.6284,0.56638 c 0.3456,0.3115 0.632,0.56588 0.632,0.56585 0,-4e-5 0.095,-0.20203 0.2062,-0.44906 0.1122,-0.24704 0.2072,-0.44642 0.2072,-0.44442 0,0.003 0.1065,0.34966 0.231,0.77101 0.1252,0.42136 0.2305,0.7685 0.2305,0.7705 0,0.002 0.1486,-0.14037 0.325,-0.31678 l 0.321,-0.32091 v 0.56224 c 0,0.30924 0.011,0.56334 0.011,0.56534 0.01,0.004 1.0913,-0.25552 1.1023,-0.26252 0,-0.002 -0.013,-0.003 -0.035,-5.1e-4 -0.173,0.0181 -0.9084,0.0701 -0.9084,0.0651 0,-0.004 -0.013,-0.26456 -0.026,-0.57981 -0.012,-0.31522 -0.027,-0.59023 -0.027,-0.61133 l -0.011,-0.0382 -0.3411,0.33382 c -0.1877,0.18377 -0.3452,0.33118 -0.3452,0.32918 0,-0.003 -0.1286,-0.37462 -0.2801,-0.8263 -0.1515,-0.45166 -0.2806,-0.82544 -0.2806,-0.83044 0,-0.006 -0.01,0.002 -0.018,0.0238 -0.017,0.0409 -0.4086,1.00182 -0.4196,1.01802 0,0.0112 -0.1997,-0.16543 -1.3818,-1.25057 -0.059,-0.0539 -0.1101,-0.0971 -0.1101,-0.0951 z m -0.2454,2.72593 c 0,-0.001 0,0.003 -0.01,0.007 -0.042,0.0746 -0.2398,0.66307 -0.4186,1.24333 -0.028,0.0884 -0.055,0.15755 -0.055,0.15555 -0.028,-0.0356 -0.031,-0.62308 0,-1.09502 0.011,-0.0679 0.011,-0.12309 0.011,-0.12299 0,1.1e-4 -0.191,0.3536 -0.4197,0.786 l -0.4154,0.78651 v -0.52917 -0.52916 l -0.4817,1.03869 c -0.2649,0.57127 -0.4876,1.05551 -0.4986,1.07591 -0.011,0.02 -0.022,0.0329 -0.011,0.0269 0.01,-0.006 0.09,-0.13614 0.1876,-0.29042 0.098,-0.15427 0.1781,-0.28866 0.1891,-0.29766 0.011,-0.0156 0.024,-0.0184 0.1432,-0.0377 0.072,-0.0116 0.1323,-0.0203 0.1323,-0.0196 0,8e-4 -0.015,0.0111 -0.033,0.0233 -0.079,0.0512 -0.1688,0.16292 -0.2098,0.26252 -0.048,0.10734 -0.065,0.24421 -0.048,0.31781 0.016,0.0644 0.074,0.11292 0.1442,0.12092 l 0.035,0.003 -0.045,-0.0475 c -0.061,-0.0632 -0.076,-0.0967 -0.076,-0.16691 10e-4,-0.0439 0,-0.0615 0.018,-0.0925 0.02,-0.0428 0.062,-0.098 0.051,-0.077 -0.015,0.0586 -0.01,0.12341 0.017,0.17311 0.01,0.0134 0.03,0.0397 0.05,0.0584 0.1013,0.0926 0.2181,0.068 0.3101,-0.0651 0.047,-0.0677 0.056,-0.12886 0.032,-0.20206 -0.016,-0.048 -0.042,-0.0746 -0.1059,-0.10645 -0.034,-0.0178 -0.046,-0.0202 -0.093,-0.0202 -0.029,0 -0.058,0.002 -0.069,0.005 -0.017,0.005 -0.017,0.005 0,-0.0269 0.023,-0.0436 0.04,-0.0609 0.08,-0.0811 0.027,-0.0143 0.039,-0.016 0.074,-0.0139 0.1257,0.0101 0.2016,0.11932 0.2016,0.28887 0,0.12064 -0.029,0.1965 -0.097,0.2589 -0.037,0.0341 -0.124,0.0804 -0.168,0.0894 -0.028,0.006 -0.028,0.004 -0.011,0.11834 0.025,0.1544 0.022,0.14758 0.081,0.19998 0.029,0.0255 0.096,0.0875 0.1498,0.13746 0.1684,0.15666 0.1697,0.16008 -0.014,-0.0455 -0.067,-0.0749 -0.082,-0.10286 -0.093,-0.12506 -0.01,-0.0396 -0.028,-0.18122 -0.028,-0.21962 0,-0.0302 0,-0.0326 0.029,-0.0506 0.049,-0.0313 0.1231,-0.10404 0.1571,-0.15554 0.1309,-0.19592 0.089,-0.46627 -0.082,-0.53227 -0.029,-0.0129 -0.055,-0.0153 -0.1002,-0.0155 -0.054,-0.001 -0.057,-0.002 -0.04,-0.009 0.038,-0.0154 0.1139,-0.0231 0.1809,-0.0202 0.058,0.003 0.069,0.003 0.058,-0.007 -0.018,-0.0222 -0.088,-0.0621 -0.139,-0.0791 -0.1069,-0.0357 -0.2245,-0.0377 -0.3519,-0.005 l -0.049,0.0129 0.011,-0.0145 c 0,-0.008 0.1022,-0.16128 0.2165,-0.34158 0.1136,-0.1803 0.2129,-0.33079 0.2129,-0.33279 v 0.12919 c 0,0.14342 0,0.25976 0.026,0.40514 0.018,0.1261 0.021,0.12923 0.04,0.0718 0.067,-0.20155 0.2406,-0.51945 0.4724,-0.86455 0.069,-0.10292 0.2263,-0.32142 0.2263,-0.32142 v 0.18138 0.1819 l -0.2144,0.34158 c -0.1172,0.18785 -0.214,0.34372 -0.214,0.34572 0,0.002 0.036,0.003 0.08,0.002 l 0.08,-0.002 0.1524,-0.22479 c 0.083,-0.12352 0.1571,-0.22418 0.1571,-0.22428 0.011,-3e-4 0.011,0.006 0.011,0.0129 0,0.0366 0.075,0.29163 0.1059,0.36173 l 0.013,0.0269 v -0.0879 c 0.01,-0.1113 0.024,-0.21963 0.067,-0.38344 l 0.011,-0.0253 h 0.04 0.04 l -0.011,0.0558 c -0.013,0.0897 -0.011,0.255 0,0.2837 0.02,0.0579 0.1096,0.10177 0.2036,0.10129 0.16,-8.8e-4 0.2999,-0.11908 0.3679,-0.3111 0.021,-0.054 0.021,-0.0658 0.021,-0.14004 0,-0.0717 0,-0.087 -0.019,-0.13177 -0.02,-0.0542 -0.063,-0.1244 -0.098,-0.1602 l -0.02,-0.0222 h 0.04 c 0.1082,0 0.2875,0.058 0.3245,0.1049 0.026,0.0289 0.026,0.0846 0.026,0.19275 v 0.0977 l 0.013,-0.0274 c 0.011,-0.0243 0.1006,-0.27239 0.1116,-0.31109 0,-0.0125 0,-0.0172 -0.057,-0.0424 -0.2335,-0.10879 -0.3653,-0.13541 -0.4971,-0.10181 -0.1063,0.0272 -0.1932,0.0793 -0.2977,0.17777 -0.068,0.0633 -0.1617,0.14046 -0.1617,0.13746 -10e-4,-0.001 0,-0.0245 0.014,-0.0522 0.014,-0.0444 0.02,-0.0545 0.055,-0.0863 0.052,-0.047 0.172,-0.12837 0.2863,-0.19327 0.1121,-0.0638 0.3321,-0.17553 0.3431,-0.17053 0,0.002 0.033,0.0461 0.066,0.0987 0.046,0.0732 0.065,0.0927 0.065,0.0837 10e-4,-0.007 0.012,-0.0627 0.023,-0.12402 0.01,-0.0613 0.019,-0.11201 0.019,-0.11265 0,-9e-4 0.047,-0.0143 0.1054,-0.0295 0.1326,-0.0351 0.1277,-0.0328 0.1147,-0.0398 -0.01,-0.003 -0.051,-0.0172 -0.1013,-0.0315 -0.049,-0.0143 -0.093,-0.0286 -0.093,-0.0336 0,-0.0113 0.029,-0.23358 0.04,-0.23358 0,0 0.2231,0.33269 0.4889,0.73897 0.2657,0.40626 0.4904,0.74218 0.4904,0.74518 v -0.45889 -0.46302 c 0,0.001 0.1307,0.25925 0.2873,0.57257 0.2533,0.51405 0.2821,0.56814 0.2641,0.55914 -0.04,-0.0206 -0.1328,-0.0521 -0.2098,-0.0708 -0.1239,-0.0301 -0.1917,-0.0374 -0.3545,-0.0372 -0.1701,3e-4 -0.2899,0.0147 -0.4532,0.0548 -0.091,0.0224 -0.2694,0.0756 -0.2584,0.0806 0,0.001 0.049,-0.009 0.1069,-0.0238 0.1559,-0.0388 0.2375,-0.0497 0.4176,-0.0527 0.2679,-0.006 0.4646,0.0227 0.7266,0.10439 l 0.081,0.0248 0.041,0.0832 c 0.023,0.0457 0.046,0.0832 0.046,0.0832 0,0 0.013,-0.0239 0.024,-0.0537 0.01,-0.0298 0.024,-0.0543 0.024,-0.0543 0,0 0.021,0.009 0.04,0.0176 0.019,0.01 0.037,0.0165 0.037,0.0145 0,-0.002 -0.015,-0.0158 -0.035,-0.0315 -0.021,-0.0157 -0.035,-0.0317 -0.035,-0.0367 0,-0.004 0.041,-0.11733 0.085,-0.25115 0.1089,-0.32386 0.1399,-0.45353 0.1659,-0.67799 0,-0.0459 0.014,-0.0853 0.014,-0.0873 v 0.16278 c 0,0.0967 0.011,0.1664 0.011,0.1664 0,0 0.041,-0.0363 0.082,-0.0806 0.082,-0.0881 0.124,-0.11524 0.216,-0.14004 0.061,-0.0164 0.1968,-0.0167 0.2568,-5.2e-4 0.131,0.0355 0.2593,0.12836 0.3343,0.24185 0.083,0.12421 0.1457,0.32302 0.1737,0.54725 0.017,0.10706 0.015,0.39668 0,0.48937 -0.017,0.11227 -0.037,0.17639 -0.072,0.25219 -0.066,0.1383 -0.1808,0.29035 -0.3457,0.45733 l -0.1054,0.10697 -0.011,0.50126 c 0,0.27558 -0.011,0.52284 -0.011,0.54984 v 0.0491 c 0,0 0.032,-0.0488 0.066,-0.10852 l 0.061,-0.10852 0.082,0.15762 c 0.128,0.25086 0.1598,0.31047 0.1488,0.30747 -0.01,-0.002 -0.043,-0.0115 -0.085,-0.0217 -0.085,-0.0214 -0.105,-0.0203 -0.152,0.009 -0.028,0.0169 -0.078,0.0824 -0.089,0.11059 0,0.005 -0.018,-0.006 -0.044,-0.0295 -0.063,-0.0581 -0.1346,-0.0868 -0.2196,-0.0868 -0.041,0 -0.089,0.0208 -0.108,0.0481 -0.01,0.01 -0.013,0.0331 -0.024,0.0522 l -0.011,0.0346 -0.027,-0.0181 c -0.049,-0.033 -0.1121,-0.0561 -0.1551,-0.0563 h -0.04 l 0.041,-0.0207 c 0.029,-0.0153 0.05,-0.0315 0.077,-0.0656 0.066,-0.0818 0.1312,-0.18701 0.2232,-0.36329 0.031,-0.0558 0.05,-0.0969 0.05,-0.0899 0,0.006 -0.048,0.12134 -0.1023,0.2558 -0.055,0.13444 -0.097,0.24711 -0.097,0.25011 0,0.003 0.049,-0.0165 0.1069,-0.0434 l 0.1044,-0.0491 0.065,0.0181 c 0.036,0.0109 0.069,0.016 0.069,0.014 0,-0.002 -4e-4,-0.23829 -0.011,-0.52452 -0.011,-0.28624 -0.011,-0.56025 -0.011,-0.60875 v -0.0884 l -0.052,-0.0212 c -0.091,-0.0373 -0.1149,-0.0706 -0.058,-0.0796 0.057,-0.01 0.1088,-0.0247 0.1498,-0.0439 0.1162,-0.0542 0.2431,-0.17883 0.2781,-0.27543 0.027,-0.072 0.07,-0.13958 0.1478,-0.23048 0.013,-0.019 0.024,-0.0346 0.024,-0.0346 -0.01,0 -0.077,0.0475 -0.1183,0.0827 -0.027,0.0228 -0.064,0.0698 -0.1199,0.15244 -0.084,0.12362 -0.144,0.19975 -0.184,0.22945 -0.038,0.0289 -0.099,0.0544 -0.2196,0.093 -0.1446,0.046 -0.1726,0.064 -0.2036,0.12505 -0.028,0.0558 -0.081,0.18949 -0.1845,0.46664 -0.105,0.2813 -0.1547,0.40786 -0.1927,0.47956 -0.068,0.13274 -0.2214,0.30405 -0.4243,0.47439 l -0.019,0.016 0.072,-0.002 c 0.084,-0.003 0.1475,0.009 0.2135,0.0398 0.1286,0.0608 0.2322,0.1746 0.3152,0.34675 0.042,0.0873 0.045,0.0991 0.018,0.0811 -0.071,-0.0473 -0.4563,-0.28587 -0.5654,-0.35037 -0.2829,-0.16692 -0.3907,-0.20644 -0.5596,-0.20619 -0.1347,2e-4 -0.1424,0.003 -0.5628,0.20774 -0.3501,0.17046 -1.5782,0.77892 -1.6562,0.82062 -0.1375,0.0736 -0.3269,0.2073 -0.5607,0.39636 -0.083,0.067 -0.2998,0.22125 -0.6795,0.48318 -0.7099,0.48967 -0.689,0.4745 -0.676,0.4625 0.01,-0.006 0.1805,-0.13854 0.3886,-0.29559 0.2082,-0.15705 0.3813,-0.29117 0.3923,-0.29817 0.013,-0.0125 0.01,-0.0129 -0.1701,-0.0129 h -0.1834 l -0.2248,0.24701 c -0.1239,0.13571 -0.2274,0.2465 -0.2274,0.2465 0,0 0.3163,-0.42459 0.3473,-0.46199 0.02,-0.0266 0.019,-0.0313 -0.011,-0.0243 -0.014,0.003 -0.044,0.008 -0.064,0.0129 l -0.039,0.008 -0.077,0.0925 c -0.1438,0.1728 -0.317,0.41598 -0.369,0.51935 -0.096,0.18932 -0.092,0.43281 0.014,0.72967 0.034,0.095 0.067,0.16084 0.1948,0.38448 0.099,0.1736 0.4077,0.70184 0.5007,0.85834 0.029,0.0483 0.051,0.0888 0.051,0.0894 -8e-4,9e-4 -0.058,-0.009 -0.1261,-0.0222 -0.182,-0.0345 -0.8005,-0.14758 -0.9421,-0.17208 -0.2624,-0.0455 -0.2724,-0.0375 -0.3044,0.23564 -0.01,0.0793 -0.016,0.16917 -0.027,0.19947 -0.01,0.0304 -0.016,0.11406 -0.027,0.18656 -0.023,0.17973 -0.033,0.2098 -0.067,0.2098 -0.054,0 -0.143,-0.17406 -0.292,-0.56792 -0.081,-0.21446 -0.2289,-0.65923 -0.2459,-0.74363 -0.02,-0.0994 -0.022,-0.27735 0,-0.39842 0.039,-0.22943 0.1215,-0.45746 0.2578,-0.71004 l 0.035,-0.0641 -0.035,0.0372 c -0.083,0.0889 -0.1482,0.18598 -0.2082,0.31109 -0.085,0.17685 -0.1321,0.37132 -0.1701,0.68265 -0.026,0.21699 -0.013,0.33458 0.061,0.55759 0.069,0.20603 0.2043,0.48853 0.354,0.73846 0.019,0.0318 -0.1528,-0.14708 -0.2098,-0.21808 -0.1669,-0.2083 -0.2881,-0.45096 -0.3261,-0.65216 -0.017,-0.0901 -0.017,-0.36068 0,-0.47645 0.026,-0.17918 0.082,-0.41473 0.1328,-0.56069 0.019,-0.0559 0.017,-0.0594 -0.011,-0.0207 -0.059,0.0813 -0.144,0.29053 -0.168,0.41444 -0.04,0.18544 -0.042,0.52998 -0.011,1.16686 0.01,0.16997 0.013,0.21764 0.024,0.25114 0.015,0.0476 0.069,0.15667 0.1648,0.33022 0.08,0.14736 0.1116,0.21516 0.1116,0.24856 2e-4,0.089 -0.315,0.52196 -0.4919,0.67593 -0.029,0.0252 -0.065,0.0525 -0.082,0.0605 -0.027,0.014 -0.033,0.0147 -0.085,0.007 -0.1713,-0.0248 -0.4994,-0.18315 -0.9859,-0.47594 -0.093,-0.0559 -0.1965,-0.11896 -0.2295,-0.14056 -0.034,-0.0215 -0.064,-0.0366 -0.064,-0.0336 0,0.003 0.07,0.25742 0.1602,0.56534 0.09,0.30792 0.1597,0.56175 0.1597,0.56275 0,0.003 -0.05,-0.028 -0.1116,-0.0749 -0.3463,-0.26014 -0.6012,-0.67978 -0.7002,-1.15031 -0.025,-0.11969 -0.03,-0.26392 -0.011,-0.34262 0.041,-0.16967 0.1529,-0.34742 0.3752,-0.59634 0.083,-0.0934 0.1074,-0.13337 0.1674,-0.28474 0.051,-0.12843 0.1307,-0.29032 0.1737,-0.35812 0.1029,-0.1587 0.3607,-0.2779 0.7751,-0.3576 0.1115,-0.0215 0.2891,-0.0454 0.3111,-0.0434 0.015,0.002 -0.01,0.0254 -0.1788,0.20464 l -0.1964,0.20309 -0.049,0.008 c -0.1477,0.0232 -0.3002,0.0864 -0.4269,0.17673 -0.073,0.0518 -0.1938,0.17178 -0.2548,0.25528 -0.1265,0.1692 -0.2304,0.38767 -0.2904,0.61392 -0.01,0.0439 -0.018,0.0817 -0.018,0.0827 0,0.001 0.018,-0.0332 0.035,-0.0775 0.1318,-0.33181 0.336,-0.59886 0.5865,-0.76636 0.098,-0.0656 0.2162,-0.12273 0.2992,-0.14573 l 0.027,-0.007 -0.051,0.0522 c -0.098,0.10101 -0.1711,0.20762 -0.2511,0.36483 -0.052,0.10251 -0.1116,0.24905 -0.1116,0.26045 0,0.006 1.1827,-1.45021 1.1937,-1.46451 0,-0.004 -0.029,0.0243 -0.069,0.0631 l -0.072,0.0703 -0.074,-0.008 c -0.3088,-0.0331 -0.5319,0.003 -0.7844,0.1266 -0.1262,0.0619 -0.308,0.16422 -0.352,0.19792 -0.1281,0.0985 -0.2499,0.29707 -0.3049,0.49506 -0.03,0.10904 -0.098,0.20124 -0.2893,0.39636 -0.1,0.10165 -0.1383,0.14539 -0.1633,0.18759 -0.094,0.15626 -0.1376,0.34288 -0.1266,0.57154 0.011,0.28959 0.081,0.50821 0.2413,0.75396 0.1798,0.27494 0.4451,0.54828 0.8899,0.91777 0.1348,0.1121 0.1882,0.15051 0.2893,0.20671 0.1979,0.11024 0.5221,0.22136 0.7499,0.25786 0.077,0.011 0.2009,0.0133 0.2279,0.003 0.01,-0.004 0.037,-0.0222 0.061,-0.0413 0.089,-0.0722 0.3639,-0.24992 0.7586,-0.48989 0.096,-0.0585 0.174,-0.10807 0.185,-0.11007 0.01,-0.002 -0.029,0.0465 -0.077,0.10749 -0.2273,0.28866 -0.4714,0.61238 -0.5854,0.77618 -0.038,0.0539 -0.089,0.12394 -0.1148,0.15554 -0.1581,0.19553 -0.5374,0.56431 -0.9849,0.95705 -0.083,0.0726 -0.2508,0.20519 -0.4527,0.3576 -0.9149,0.6906 -1.6011,1.21904 -2.0547,1.58182 -0.2933,0.23444 -0.4227,0.34493 -0.4997,0.42633 -0.1719,0.18153 -0.4303,0.54844 -0.7023,0.99787 -0.038,0.0622 -0.064,0.11286 -0.064,0.11265 0,-2e-4 0.019,-0.0177 0.035,-0.0387 0.1316,-0.16643 0.2991,-0.38518 0.4444,-0.5793 0.095,-0.1264 0.1883,-0.24917 0.2103,-0.27337 0.3019,-0.3493 1.0276,-0.93774 2.3632,-1.91564 0.5982,-0.43801 0.667,-0.48876 0.7927,-0.58756 0.2632,-0.20699 0.4246,-0.34682 0.6052,-0.52452 0.1942,-0.19104 0.3226,-0.34466 0.3886,-0.46457 l 0.028,-0.0527 v 0.0336 c -10e-4,0.0186 -0.01,0.0551 -0.018,0.0811 -0.016,0.051 -0.1542,0.32984 -0.1892,0.38034 -0.076,0.11096 -0.3901,0.39214 -0.8201,0.73536 -0.2433,0.19427 -0.3162,0.2491 -0.5167,0.38809 -0.8839,0.61246 -1.6615,1.19228 -2.0888,1.55753 -0.1405,0.12005 -0.422,0.39973 -0.5447,0.54053 -0.2156,0.24784 -0.4423,0.55376 -0.5834,0.78807 -0.024,0.0389 -0.044,0.0722 -0.044,0.0729 0,0.001 -0.043,-0.007 -0.094,-0.0186 -0.051,-0.0114 -0.1,-0.0196 -0.1,-0.0186 -0.019,0.006 0.24,0.21878 0.3633,0.29818 0.2429,0.15649 0.3976,0.21003 0.9364,0.32401 0.4531,0.0958 0.5833,0.13375 0.6992,0.20205 0.095,0.0558 0.1861,0.16742 0.2501,0.30438 0.027,0.0585 0.064,0.1634 0.075,0.2129 l 0.011,0.0217 h 0.2945 0.2946 l 0.035,0.0274 c 0.08,0.0604 0.1863,0.17948 0.4403,0.49196 0.1049,0.12908 0.1688,0.19332 0.2248,0.22582 0.194,0.11349 0.6132,0.19106 1.1627,0.21446 0.3155,0.0135 0.8209,-0.0216 1.5167,-0.1049 0.2043,-0.0244 0.5915,-0.0756 0.6155,-0.0806 0.011,-0.003 0.014,-0.0147 0.028,-0.0997 0.01,-0.0531 0.019,-0.1031 0.019,-0.1111 0,-0.0112 0.022,-0.0237 0.074,-0.0486 0.123,-0.0587 0.2362,-0.14552 0.3395,-0.26096 0.057,-0.0629 0.1271,-0.15896 0.1571,-0.21446 l 0.022,-0.0393 h 0.087 c 0.071,0 0.082,0.002 0.082,0.009 0,0.005 -0.2196,0.22859 -0.4816,0.49713 l -0.4765,0.48834 -0.011,0.12609 c -0.011,0.0694 -0.011,0.13091 -0.011,0.13591 9e-4,0.005 0.257,-0.27559 0.569,-0.62374 l 0.5668,-0.63303 h 0.094 0.094 v 0.0155 c 0,0.008 -0.062,0.2844 -0.1354,0.6134 l -0.1318,0.59841 -0.015,0.21601 c -0.015,0.2088 -0.016,0.217 -0.033,0.2465 -0.048,0.0807 -0.2083,0.38103 -0.2573,0.4811 -0.031,0.0618 -0.059,0.12463 -0.059,0.13953 -0.01,0.0404 0.022,0.094 0.077,0.15141 0.051,0.0529 0.13,0.10924 0.171,0.12144 0.024,0.006 0.029,0.005 0.042,-0.006 0.029,-0.026 0.081,-0.14898 0.1612,-0.37465 0.023,-0.065 0.043,-0.11889 0.043,-0.11989 0,-0.001 0.015,0.0182 0.031,0.0434 0.055,0.0873 0.1765,0.25779 0.2465,0.34519 0.1001,0.12495 0.1751,0.19121 0.2181,0.19121 0.013,0 0.01,0.0201 -0.051,0.31936 -0.036,0.17564 -0.067,0.31994 -0.067,0.32194 0,0.005 -0.092,-0.0404 -0.1509,-0.0791 -0.1051,-0.0683 -0.28,-0.20443 -0.4662,-0.36277 l -0.085,-0.0718 -0.2501,0.002 -0.2501,0.002 -0.067,-0.0191 c -0.089,-0.0249 -0.1901,-0.0651 -0.2791,-0.11007 -0.04,-0.0201 -0.075,-0.0356 -0.075,-0.0336 -0.01,0.006 0.042,0.0588 0.082,0.0889 0.053,0.0402 0.1815,0.10235 0.3509,0.17105 0.1629,0.066 0.1815,0.0755 0.2185,0.11007 0.093,0.0855 0.1709,0.22858 0.3701,0.678 0.1724,0.38967 0.2472,0.54441 0.3312,0.68626 0.1732,0.29218 0.476,0.65954 0.8547,1.03767 l 0.1153,0.11523 -0.1194,0.0527 c -0.3352,0.14831 -0.6477,0.25639 -0.7824,0.27079 -0.092,0.01 -0.2571,-0.021 -0.4558,-0.0858 -0.1589,-0.0518 -0.328,-0.11936 -0.6589,-0.26355 -0.3897,-0.16972 -0.4057,-0.17551 -0.5441,-0.19741 -0.251,-0.0399 -0.6886,-0.0304 -1.1994,0.0264 -0.1186,0.0132 -0.1487,0.0194 -0.1597,0.0284 -0.01,0.007 -0.045,0.0565 -0.086,0.11059 -0.081,0.11118 -0.092,0.13396 -0.092,0.22686 0,0.0449 0.013,0.13362 0.024,0.14262 0,0.001 0.014,-0.008 0.028,-0.0212 0.107,-0.0981 0.3378,-0.13976 0.6982,-0.12506 0.3526,0.0142 0.8488,0.0905 1.3306,0.20412 0.031,0.007 0.056,0.0269 0.2532,0.19379 0.1202,0.102 0.2167,0.18231 0.2057,0.17931 -0.01,-0.003 -0.082,-0.029 -0.1659,-0.0574 -0.3599,-0.12232 -0.7167,-0.18977 -1.1859,-0.22427 -0.1409,-0.0103 -0.5889,-0.0102 -0.74,0 -0.2216,0.0151 -0.5564,0.0545 -0.5804,0.0682 -0.01,0.003 0.01,0.009 0.04,0.0139 0.1009,0.0161 0.3846,0.0748 0.5064,0.10491 0.5951,0.14725 1.1772,0.36347 1.7741,0.65887 0.2948,0.14602 0.5064,0.26395 0.6723,0.37414 0.09,0.063 0.1013,0.0692 0.1013,0.0997 0,0.0256 -0.042,0.11625 -0.067,0.14625 l -0.014,0.0155 -0.2626,-0.0987 c -0.7784,-0.29276 -1.4476,-0.53145 -1.6717,-0.59635 -0.079,-0.0229 -0.1511,-0.0371 -0.2568,-0.0501 -0.094,-0.0115 -0.5344,-0.0115 -0.679,0 -0.1644,0.013 -0.3764,0.0353 -0.3954,0.0413 -0.023,0.007 -0.012,0.008 0.6031,0.0424 0.2906,0.0162 0.5159,0.0311 0.5049,0.0341 -0.033,0.0124 -0.1531,0.0329 -0.2667,0.0455 -0.1886,0.0209 -0.4259,0.0348 -0.7674,0.045 l -0.1519,0.005 -0.1679,0.37827 c -0.092,0.20802 -0.1644,0.37937 -0.1644,0.38137 10e-4,0.002 0.041,-0.001 0.086,-0.006 0.1129,-0.012 0.5783,-0.012 0.7018,0 0.6092,0.0595 1.2186,0.23874 1.8216,0.53537 0.1555,0.0765 0.318,0.16516 0.416,0.22686 l 0.058,0.0362 0.022,0.10594 c 0.01,0.0584 0.019,0.10736 0.019,0.108 -10e-4,0.001 -0.067,-0.0194 -0.1473,-0.0455 -0.6603,-0.21599 -1.2949,-0.34487 -1.8619,-0.37827 -0.1675,-0.0102 -0.5148,-0.004 -0.6553,0.0103 -0.2164,0.0228 -0.4044,0.0606 -0.5679,0.11472 -0.1072,0.0355 -0.2229,0.0814 -0.2119,0.0884 0,0.002 0.064,-0.007 0.138,-0.0207 0.3705,-0.0659 0.6662,-0.0909 1.0646,-0.0909 0.3838,0 0.6579,0.0226 1.02,0.0848 0.3637,0.0624 0.7576,0.17136 1.0274,0.2837 0.05,0.0209 0.093,0.0399 0.1044,0.0419 0.011,0.004 0.011,0.009 0.011,0.0822 -0.01,0.16484 -0.064,0.29323 -0.1808,0.41599 -0.047,0.0488 -0.1349,0.11886 -0.1499,0.11886 0,0 -0.037,-0.0187 -0.072,-0.0413 -0.2867,-0.18095 -0.8898,-0.37996 -1.6434,-0.54261 -0.5213,-0.11246 -1.1083,-0.20657 -1.3621,-0.21807 l -0.088,-0.003 -0.028,0.0207 c -0.064,0.0471 -0.1585,0.2509 -0.2636,0.51883 a 18.492125,18.492126 0 0 0 0.6098,0.22118 c 0.095,-0.14437 0.2165,-0.30264 0.2941,-0.36122 0.035,-0.026 0.041,-0.029 0.091,-0.031 0.091,-0.005 0.208,0.0134 0.5282,0.0858 0.313,0.0707 0.3756,0.0887 0.8232,0.23151 0.6735,0.21504 1.1743,0.38693 1.8117,0.62322 l 0.037,0.002 c 0.1404,0.052 0.1526,0.0556 0.2595,0.0951 a 18.492125,18.492126 0 0 0 0.4692,0.0336 c 0.042,-0.0585 0.099,-0.14508 0.2863,-0.4439 l 0.3483,-0.55604 0.2992,-0.59582 0.2992,-0.59532 -0.1246,-0.15813 c -0.069,-0.0868 -0.1676,-0.21245 -0.2186,-0.27905 -0.052,-0.0666 -0.1144,-0.14138 -0.1384,-0.16588 -0.2032,-0.20522 -0.6122,-0.46723 -1.1995,-0.76895 -0.1114,-0.0573 -0.2027,-0.10277 -0.1917,-0.10077 0.01,0.002 0.024,0.008 0.039,0.0114 0.047,0.0126 0.2175,0.078 0.3085,0.11834 0.2954,0.13075 0.6264,0.3279 0.9126,0.54364 0.061,0.046 0.065,0.0486 0.046,0.0243 -0.035,-0.0448 -0.2648,-0.26598 -0.3478,-0.33538 -0.3533,-0.29536 -0.7492,-0.52233 -1.1653,-0.66715 -0.067,-0.0232 0.1057,0.013 0.2367,0.0496 0.3187,0.0892 0.6094,0.23182 0.8279,0.40618 0.08,0.0641 0.311,0.29661 0.419,0.42168 0.1749,0.20299 0.4074,0.50406 0.5675,0.73484 l 0.07,0.10232 0.098,-0.003 c 0.053,-0.004 0.1013,-0.006 0.1013,-0.007 0,-0.003 -0.01,-0.0928 -0.085,-0.6072 -0.08,-0.54151 -0.133,-0.88138 -0.172,-1.0883 -0.045,-0.24172 -0.1,-0.63128 -0.1608,-1.16582 l -0.013,-0.1049 -0.3602,-0.58085 c -0.4488,-0.72207 -0.4507,-0.72553 -0.4377,-0.71313 0.01,0.006 0.1746,0.24192 0.3762,0.52555 0.2017,0.28366 0.3695,0.51414 0.3695,0.51314 0,-0.002 0,-0.23116 -0.014,-0.64027 0,-0.13377 -0.01,-0.15746 0.064,0.33125 0.027,0.18401 0.055,0.3424 0.055,0.3514 0,0.0177 0,-0.055 -0.011,-0.39533 -0.01,-0.21259 -0.023,-0.45923 -0.034,-0.54053 -0.011,-0.0819 -0.02,-0.11068 -0.039,-0.12558 -0.04,-0.0317 -0.2742,-0.0927 -0.5793,-0.15141 -0.09,-0.0171 -0.1784,-0.0352 -0.1974,-0.0382 l -0.035,-0.007 v -0.0419 c 0,-0.023 0.013,-0.17824 0.026,-0.34469 0.012,-0.16645 0.026,-0.30495 0.026,-0.30695 0,-0.005 0.5709,-0.0334 0.5819,-0.0284 0,0.002 -0.011,0.10597 -0.028,0.23151 -0.024,0.15669 -0.035,0.23058 -0.024,0.23358 0.014,0.0102 0.1213,0.0412 0.1323,0.0362 0,-0.003 0.015,-0.11598 0.029,-0.25167 0.013,-0.13568 0.028,-0.25138 0.028,-0.25838 0,-0.009 0.01,-0.01 0.022,-0.008 0.035,0.007 0.1112,-0.017 0.2072,-0.0651 0.08,-0.0401 0.1033,-0.0483 0.1473,-0.0543 0.093,-0.0116 0.2273,0.007 0.4144,0.0579 0.2076,0.0561 0.2426,0.0641 0.2786,0.0641 0.056,0 0.2012,-0.0316 0.5762,-0.12506 0.547,-0.13646 0.7982,-0.19262 0.956,-0.21342 0.2471,-0.0326 0.6561,0.0818 1.1322,0.31678 l 0.1318,0.0651 -0.1292,0.0424 c -0.553,0.18073 -1.1604,0.36046 -1.5028,0.44546 -0.099,0.0244 -0.21,0.0561 -0.248,0.0703 -0.2502,0.0937 -0.4974,0.26446 -0.7473,0.51573 -0.106,0.1078 -0.1429,0.15519 -0.061,0.0801 0.055,-0.0505 0.1355,-0.10482 0.2175,-0.14572 0.1763,-0.0885 0.3413,-0.13209 0.7643,-0.20309 0.4159,-0.0694 0.4863,-0.0757 0.8796,-0.0677 0.158,0.004 0.3379,0.006 0.3989,0.006 0.1082,-1e-4 0.1143,-0.001 0.1933,-0.0248 0.2594,-0.0777 0.8297,-0.32331 1.0025,-0.43202 0.018,-0.0109 0.035,-0.0191 0.046,-0.0191 0.016,0 0.016,0.004 0.016,0.0233 0,0.0321 -0.037,0.15752 -0.1111,0.3793 -0.074,0.22186 -0.098,0.31231 -0.098,0.37931 0,0.0622 0.011,0.0904 0.064,0.17208 0.024,0.0368 0.046,0.0781 0.057,0.092 0.022,0.0452 0.052,0.13859 0.052,0.19069 0.01,0.10021 -0.016,0.15464 -0.1137,0.26097 -0.028,0.03 -0.058,0.063 -0.058,0.0744 0,0.0126 -0.011,0.0934 -0.011,0.21911 0,0.20814 -0.013,0.29774 -0.039,0.38654 -0.019,0.0647 -0.08,0.18025 -0.1395,0.26975 -0.029,0.0424 -0.08,0.11858 -0.1137,0.16898 -0.037,0.0533 -0.059,0.10404 -0.07,0.12144 0,0.02 0,0.21735 -0.016,0.59428 0,0.3104 -0.014,0.74991 -0.014,0.97668 -0.011,0.27562 -0.011,0.50984 0,0.70642 0.01,0.42494 0.022,0.5745 0.061,0.73019 0.027,0.11919 0.038,0.17592 0.038,0.30076 0,0.12329 -0.01,0.18387 -0.035,0.29042 -0.03,0.11819 -0.085,0.23726 -0.1525,0.34055 a 18.492125,18.492126 0 0 0 1.3581,-0.3359 c 0.024,-0.31967 0.046,-0.612 0.046,-0.61288 0,-9.3e-4 0.02,0.28392 0.04,0.58032 a 18.492125,18.492126 0 0 0 0.4914,-0.18293 c 0.037,-0.40463 0.075,-0.8149 0.075,-0.83613 v -0.0269 l -0.097,-0.0196 -0.097,-0.0196 -0.08,0.0243 c -0.1939,0.0601 -0.3799,0.0965 -0.4739,0.0915 -0.05,-0.002 -0.064,-0.006 -0.1013,-0.0258 -0.051,-0.0279 -0.106,-0.0851 -0.139,-0.14882 l -0.024,-0.046 -0.042,-0.003 c -0.023,-0.002 -0.1081,-0.007 -0.1861,-0.0103 -0.1375,-0.006 -0.1442,-0.007 -0.1772,-0.0248 -0.044,-0.0237 -0.1485,-0.11699 -0.2315,-0.20619 l -0.066,-0.0703 v -0.16639 -0.18759 c 0,-0.0191 0,-0.0212 0.028,-0.0212 0.068,0 0.1308,-0.048 0.1498,-0.11317 0.01,-0.0462 0,-0.12588 -0.011,-0.16898 -0.015,-0.0388 -0.052,-0.0996 -0.052,-0.0946 0,0.001 -2e-4,0.0251 0.011,0.0527 0.015,0.071 0.01,0.15492 -0.013,0.20412 -0.019,0.0405 -0.059,0.0859 -0.093,0.10336 l -0.022,0.0114 0.011,-0.0429 c 0.01,-0.0716 0.036,-0.17518 0.064,-0.25218 0.055,-0.14599 0.079,-0.16949 0.1695,-0.16949 0.042,0 0.055,0.003 0.082,0.0191 0.033,0.0192 0.06,0.0571 0.074,0.10076 0.011,0.0325 0.011,0.1108 0,0.154 -0.02,0.0864 -0.086,0.19505 -0.1721,0.28835 l -0.051,0.0553 0.025,-0.003 c 0.021,-0.003 0.032,8.8e-4 0.057,0.0181 0.017,0.0117 0.042,0.0341 0.053,0.0496 l 0.02,0.0279 -0.011,-0.0233 c -0.011,-0.0587 -0.011,-0.1331 0,-0.1819 0.02,-0.0918 0.063,-0.16733 0.1426,-0.25063 l 0.049,-0.0512 0.015,-0.15193 c 0.01,-0.0836 0.027,-0.23701 0.041,-0.34106 0.044,-0.29271 0.044,-0.32267 0.044,-0.4563 0,-0.0957 -9e-4,-0.13859 -0.012,-0.18139 -0.022,-0.0969 -0.063,-0.20234 -0.088,-0.22324 -0.013,-0.0113 -0.033,0.015 -0.078,0.10542 -0.086,0.17257 -0.1509,0.37084 -0.1659,0.5054 -0.01,0.0694 -0.031,0.19338 -0.045,0.24288 -0.015,0.0517 -0.051,0.12554 -0.075,0.15244 -0.041,0.0463 -0.078,0.0521 -0.1287,0.0202 -0.017,-0.0112 -0.035,-0.024 -0.035,-0.03 0,-0.005 4e-4,-0.034 0.011,-0.0646 0.026,-0.13613 0,-0.25231 -0.057,-0.28991 -0.022,-0.011 -0.022,-0.0109 -0.011,0.002 0.037,0.0434 0.048,0.10522 0.048,0.23823 0,0.0991 0,0.10499 -0.019,0.14159 -0.02,0.0434 -0.048,0.064 -0.067,0.0517 -0.011,-0.007 -0.011,-0.0238 -0.011,-0.20981 0,-0.19651 0.012,-0.41719 0.033,-0.6444 0.014,-0.16713 0.027,-0.24231 0.046,-0.28061 0.01,-0.0186 0.061,-0.0916 0.1127,-0.16226 0.1357,-0.18181 0.1784,-0.25167 0.2124,-0.35243 0.012,-0.0445 0.012,-0.0704 0.023,-0.16434 0,-0.0627 0.01,-0.12964 0.016,-0.15244 0.014,-0.0591 0.058,-0.14222 0.1033,-0.20102 0.059,-0.0771 0.2063,-0.23129 0.2543,-0.26459 0.023,-0.0162 0.097,-0.059 0.1627,-0.0951 0.2653,-0.14336 0.3026,-0.19335 0.3416,-0.45682 0.024,-0.16441 0.035,-0.35353 0.051,-0.86816 0,-0.17845 0.014,-0.38089 0.014,-0.44959 0.01,-0.26274 -0.02,-0.45591 -0.077,-0.51521 -0.035,-0.0362 -0.094,-0.0396 -0.1266,-0.007 -0.031,0.0303 -0.031,0.0581 -0.031,0.2589 0,0.10222 10e-5,0.2921 -0.011,0.4222 -0.021,0.47748 -0.049,1.07018 -0.049,1.06918 0,-0.003 -0.012,-0.70343 -0.023,-1.10277 -0.01,-0.43043 -0.01,-0.44043 -0.049,-0.51883 -0.011,-0.0218 -0.032,-0.049 -0.046,-0.0605 -0.034,-0.0267 -0.097,-0.0458 -0.1498,-0.046 -0.1086,-3.4e-4 -0.2425,-0.0276 -0.6429,-0.12867 -0.3861,-0.0975 -0.8933,-0.20912 -1.1493,-0.25322 -0.167,-0.0277 -0.2381,-0.0338 -0.3803,-0.0248 -0.2875,0.0175 -0.546,0.0699 -0.8227,0.16743 -0.2533,0.0891 -0.4151,0.1267 -0.6625,0.154 -0.1399,0.0153 -0.4085,0.0252 -0.5509,0.0222 -0.1439,-0.004 -0.1902,-0.0116 -0.3483,-0.0589 -0.1186,-0.0357 -0.1673,-0.0447 -0.1953,-0.0377 -0.042,0.0107 -0.1087,0.16355 -0.2098,0.48059 -0.043,0.13852 -0.043,0.14326 -0.02,-0.1757 0.012,-0.11891 0.012,-0.21762 0.012,-0.21962 0,-0.005 -0.5724,-0.0324 -0.5834,-0.0274 0,0.002 -0.013,0.1407 -0.026,0.30799 -0.012,0.16727 -0.023,0.30441 -0.023,0.30489 -10e-4,0.001 -0.017,-0.003 -0.036,-0.006 l -0.035,-0.007 v -0.031 c -10e-4,-0.0172 -0.01,-0.13334 -0.017,-0.25787 -0.013,-0.22261 -0.013,-0.28767 -0.024,-0.28267 -10e-4,0.001 -0.01,0.0613 -0.02,0.13384 -0.011,0.0725 -0.023,0.13877 -0.023,0.14677 0,0.0144 -0.01,0.014 -0.095,-0.0222 -0.12,-0.0485 -0.2985,-0.13714 -0.3385,-0.16744 -0.043,-0.0332 -0.067,-0.0817 -0.067,-0.13746 v -0.0424 l 0.022,-0.003 c 0.012,-0.002 0.3697,-0.0195 0.7953,-0.0388 0.4257,-0.0193 0.7787,-0.0373 0.7787,-0.0393 0.01,-0.007 0.4015,-1.29828 0.4015,-1.30328 0,-0.003 -0.1466,7.9e-4 -0.3203,0.009 -0.1738,0.007 -0.3168,0.0132 -0.3168,0.0129 0,-0.002 0.069,-0.23883 0.1224,-0.39894 0.117,-0.35119 0.239,-0.67515 0.3504,-0.93276 0.035,-0.0818 0.1088,-0.25239 0.1638,-0.37879 0.3315,-0.76513 0.5109,-1.20345 0.5369,-1.31568 0.047,-0.20269 0.1128,-0.76439 0.1458,-1.27641 0.016,-0.24678 0.046,-0.3922 0.2744,-1.3348 0.1332,-0.54844 0.1661,-0.70035 0.5178,-2.37454 l 0.066,-0.31367 0.524,-0.19275 c 0.2881,-0.10615 0.5261,-0.19382 0.5261,-0.19482 0,-0.001 -0.01,-0.0164 -0.018,-0.0341 -0.026,-0.0394 -0.041,-0.10423 -0.052,-0.16433 0,-0.0375 -10e-5,-0.0508 0.011,-0.0775 0.032,-0.0724 0.169,-0.17812 0.356,-0.27492 0.052,-0.0269 0.095,-0.0494 0.095,-0.0496 0,-4e-4 -0.011,-0.037 -0.011,-0.0816 -0.01,-0.0914 0,-0.3496 0.018,-0.51005 0.019,-0.19907 0.061,-0.42169 0.1344,-0.6966 0.036,-0.13883 0.1134,-0.40344 0.1374,-0.47284 l 0.013,-0.0367 v 0.12454 c 0,0.0687 0.01,0.46277 0.019,0.8754 l 0.015,0.75034 0.058,0.0589 0.057,0.0589 0.4052,-0.0904 c 0.7476,-0.16723 1.0465,-0.23966 1.0645,-0.25786 0.011,-0.008 0.011,-0.0287 0.011,-0.10542 -10e-4,-0.10749 0,-0.10879 -0.053,-0.11679 -0.015,-0.002 -0.035,-0.007 -0.035,-0.0124 -0.016,-0.0197 -0.3154,-0.96864 -0.3664,-1.16479 -0.095,-0.35579 -0.1505,-0.61339 -0.1395,-0.64079 0.01,-0.0189 0.023,-0.0115 0.08,0.0377 0.077,0.0656 0.1134,0.0803 0.1374,0.0538 0,-0.007 0.02,-0.0353 0.031,-0.0625 0.023,-0.0574 0.035,-0.0734 0.057,-0.0734 0.036,0 0.066,0.0429 0.1436,0.20929 0.089,0.1896 0.3135,0.77602 0.4259,1.11208 0.037,0.10947 0.084,0.29429 0.1152,0.44596 l 0.019,0.0946 -0.072,0.005 c -0.04,0.002 -0.1182,0.007 -0.1742,0.009 l -0.1023,0.005 v 0.0506 c -0.011,0.028 -0.011,0.15964 -0.011,0.29198 0,0.13234 -0.011,0.28026 -0.011,0.32866 v 0.0879 l -0.1457,0.13849 c -0.4828,0.46018 -0.8107,0.75607 -1.0475,0.94465 -0.1685,0.13404 -0.2474,0.21241 -0.2754,0.27181 -0.027,0.0603 -0.051,0.15511 -0.051,0.21601 0,0.0404 0,0.0574 0.016,0.0832 0.021,0.0421 0.074,0.0992 0.1261,0.13694 0.057,0.0404 0.2242,0.12079 0.2352,0.11059 0.014,-0.0178 0.08,-0.10317 0.095,-0.12247 l 0.019,-0.0248 -0.056,-0.0284 c -0.1248,-0.0628 -0.2201,-0.1414 -0.2361,-0.1943 -0.01,-0.0257 -0.01,-0.0305 0.011,-0.0667 0.039,-0.0814 0.2472,-0.27124 0.5979,-0.54622 0.1937,-0.15178 0.2578,-0.20724 0.4026,-0.3514 0.1376,-0.13685 0.2638,-0.27231 0.3845,-0.41289 0.1121,-0.13 0.1151,-0.14149 0.1261,-0.19689 0.011,-0.0561 0.011,-0.27374 0,-0.4346 v -0.11989 c 5e-4,-8e-4 0.07,-0.0137 0.155,-0.0289 0.1527,-0.0275 0.155,-0.028 0.169,-0.015 0.01,0.007 0.1033,0.093 0.2134,0.19069 0.1101,0.0976 0.1974,0.18251 0.1974,0.18551 0,0.004 -0.091,0.22038 -0.2005,0.4806 -0.1653,0.39484 -0.6754,1.55037 -0.6914,1.56527 0,0.002 -0.1704,0.0206 -0.3731,0.0398 -0.3836,0.0363 -0.4159,0.0405 -0.4269,0.0553 -0.014,0.0221 -10e-5,0.0637 0.028,0.0899 0.014,0.0139 0.027,0.014 0.3643,0.017 l 0.3488,0.003 -0.054,0.16071 -0.054,0.16072 -0.011,0.19378 -0.011,0.19431 -0.023,0.0341 c -0.06,0.09 -0.2782,0.32303 -0.6408,0.6842 l -0.2667,0.26562 -0.011,0.27543 c 0,0.15131 -0.011,0.28297 -0.011,0.29197 0,0.0134 0.016,0.0464 0.084,0.15193 0.1078,0.1664 0.1815,0.2888 0.2175,0.3607 l 0.028,0.0553 v 0.0811 0.0811 l 0.058,0.017 c 0.032,0.01 0.083,0.0256 0.1147,0.0346 l 0.057,0.0176 -0.048,0.0444 -0.048,0.045 -0.082,0.23978 c -0.045,0.13197 -0.084,0.2571 -0.095,0.2775 -0.011,0.0264 -0.011,0.0339 0,0.0269 0.011,-0.0113 0.2444,-0.43308 0.4858,-0.8754 0.3919,-0.71831 0.6172,-1.15176 0.6842,-1.31826 0.059,-0.14559 0.2054,-0.70427 0.3834,-1.46451 l 0.064,-0.26872 0.037,-0.0103 c 0.2284,-0.0631 0.5035,-0.20478 0.6961,-0.35863 0.07,-0.0562 0.2209,-0.20467 0.2749,-0.27337 0.1319,-0.16372 0.2382,-0.35114 0.2982,-0.5271 0.053,-0.15159 0.07,-0.27767 0.081,-0.4563 0.01,-0.15103 -9e-4,-0.23198 -0.042,-0.56948 0,-0.0337 -0.034,-0.0752 -0.076,-0.10748 -0.03,-0.0227 -0.076,-0.0411 -0.087,-0.0331 v 0.0755 0.0698 l -0.023,-0.008 c -0.012,-0.004 -0.063,-0.0344 -0.1116,-0.0672 -0.093,-0.0626 -0.1175,-0.0717 -0.1395,-0.0481 -0.028,0.03 -0.016,0.1377 0.02,0.2067 0.033,0.0609 0.1284,0.13288 0.2124,0.15968 0.035,0.0106 0.035,0.0245 0.035,0.18294 -10e-4,0.0982 -0.01,0.14255 -0.016,0.20825 -0.04,0.22409 -0.1419,0.5404 -0.2119,0.66043 -0.1037,0.17722 -0.2815,0.3394 -0.5508,0.50229 -0.085,0.0514 -0.3292,0.17498 -0.3292,0.16898 0,-0.002 0.282,-1.84187 0.293,-1.87017 10e-4,-0.001 0.01,0.002 0.016,0.008 0.022,0.0152 0.057,0.0128 0.1214,-0.007 0.068,-0.0214 0.2161,-0.0914 0.2801,-0.13229 0.1262,-0.0817 0.2131,-0.20031 0.2501,-0.34004 0.024,-0.0743 0.02,-0.2963 0,-0.2837 -0.011,0.002 -0.011,0.0106 -0.011,0.0196 0,0.0311 -0.035,0.13709 -0.066,0.19999 -0.054,0.11041 -0.1415,0.18199 -0.2594,0.21239 -0.06,0.0155 -0.1851,0.0194 -0.4087,0.0124 -0.1863,-0.006 -0.1903,-0.006 -0.2243,-0.0243 -0.075,-0.0386 -0.2535,-0.20834 -0.3385,-0.32091 -0.1153,-0.15343 -0.2611,-0.42163 -0.3757,-0.69091 -0.1045,-0.24642 -0.1605,-0.47779 -0.1715,-0.69299 -0.016,-0.38275 0.1296,-0.54299 0.495,-0.54363 0.088,-1e-4 0.2201,0.0143 0.3111,0.0341 0.035,0.008 0.068,0.0124 0.068,0.0114 0.01,-0.006 -0.1,-0.0689 -0.1995,-0.11937 -0.1635,-0.083 -0.4608,-0.20657 -0.6811,-0.28267 -0.078,-0.0267 -0.067,-0.02 -0.078,-0.1018 -0.012,-0.14869 -0.088,-0.37151 -0.1927,-0.56224 l -0.039,-0.0708 -0.011,-0.11162 c -0.014,-0.33135 -0.061,-0.55891 -0.1576,-0.74621 -0.055,-0.10676 -0.1219,-0.14049 -0.2666,-0.13849 l -0.08,0.001 -0.037,-0.0351 c -0.042,-0.0392 -0.1022,-0.071 -0.1582,-0.0827 -0.048,-0.01 -0.182,-0.004 -0.233,0.0103 l -0.04,0.0114 -0.033,-0.03 c -0.019,-0.0165 -0.049,-0.0343 -0.066,-0.0413 -0.044,-0.0164 -0.1254,-0.0204 -0.1794,-0.0114 -0.04,0.007 -0.048,0.007 -0.071,-0.005 -0.062,-0.0309 -0.181,-0.039 -0.278,-0.0186 -0.026,0.006 -0.052,0.009 -0.052,0.008 0,-0.003 0.014,-0.8858 0.014,-0.8878 7e-4,-7.2e-4 0.1123,0.0849 0.248,0.19017 0.1358,0.10517 0.2481,0.18855 0.2481,0.18655 10e-4,-0.002 -0.051,-0.20016 -0.1158,-0.43977 -0.065,-0.23961 -0.1157,-0.43722 -0.1157,-0.43822 0,-0.001 0.1929,0.0259 0.4258,0.06 0.233,0.0338 0.4215,0.0604 0.4325,0.0594 0.01,-0.001 -0.1437,-0.24639 -0.4191,-0.68472 -0.2357,-0.37523 -0.4274,-0.68252 -0.4274,-0.68316 9e-4,-7e-4 0.1793,0.0307 0.3959,0.0698 0.2168,0.0391 0.3974,0.0692 0.3974,0.0672 0,-0.003 -0.8355,-1.04467 -0.9075,-1.12757 -0.01,-0.009 0.01,-0.0637 0.1261,-0.41135 0.075,-0.2203 0.1339,-0.40192 0.1339,-0.40256 0,-0.001 -0.1017,0.14219 -0.2238,0.31833 l -0.2222,0.32039 -0.028,-0.0145 c -0.015,-0.008 -0.1597,-0.0855 -0.3209,-0.1726 -0.1611,-0.0871 -0.2951,-0.1567 -0.2951,-0.15606 0,0.001 0.041,0.1324 0.092,0.29197 0.051,0.15958 0.093,0.29101 0.093,0.29301 0,0.001 -0.018,-0.0136 -0.042,-0.0336 -0.023,-0.0201 -0.1,-0.0863 -0.1706,-0.14728 -0.071,-0.061 -0.1707,-0.1483 -0.2217,-0.1943 -0.051,-0.046 -0.093,-0.081 -0.093,-0.078 0,0.003 -0.01,0.0812 -0.022,0.17415 l -0.022,0.16898 -0.04,-0.0548 c -0.022,-0.0301 -0.1227,-0.16897 -0.2227,-0.30851 -0.1013,-0.13959 -0.1866,-0.25108 -0.1866,-0.24908 0,0.002 -0.033,0.34185 -0.07,0.75448 -0.036,0.41264 -0.068,0.75089 -0.068,0.75189 -6e-4,0.001 -0.1896,-0.35361 -0.4196,-0.78858 -0.23,-0.43497 -0.4216,-0.79109 -0.4216,-0.79117 0,-7e-5 0.018,0.26227 0.045,0.58291 0.026,0.32062 0.048,0.59283 0.048,0.60513 0,0.0192 -0.062,-0.079 -0.4383,-0.70848 -0.2401,-0.40198 -0.4423,-0.73086 -0.4423,-0.73071 0,1.6e-4 -0.04,0.13728 -0.083,0.30489 -0.042,0.16761 -0.082,0.30173 -0.082,0.29973 0,-0.003 -0.089,-0.15126 -0.1922,-0.3297 -0.1701,-0.29401 -0.1992,-0.34946 -0.2077,-0.35295 z m -4.1093,0.002 c 0,0.003 0.2633,0.27226 0.5823,0.5979 0.3191,0.32562 0.5776,0.59162 0.5886,0.58962 0,-0.002 0.079,-0.0226 0.1695,-0.047 0.09,-0.0243 0.1642,-0.0476 0.1752,-0.0496 0.01,-0.004 -0.105,-0.0895 -0.5881,-0.43408 -0.9036,-0.64482 -0.9275,-0.66381 -0.9275,-0.65681 z m 4.1258,0.23771 c 0,-0.003 0.2324,0.3483 0.2434,0.3731 0,0.002 -0.01,0.007 -0.019,0.009 -0.036,0.008 -0.1757,0.062 -0.3147,0.12247 v 5.2e-4 c -0.072,0.0311 -0.1333,0.0563 -0.1333,0.0563 0,0 3e-4,-0.0143 0.011,-0.032 0.01,-0.0177 0.029,-0.0775 0.051,-0.13332 0.048,-0.12363 0.1533,-0.38936 0.1643,-0.39636 z m 0.2708,0.42426 c 0.01,8.5e-4 0.014,0.009 0.023,0.0243 0.01,0.0105 0,0.0121 -0.015,0.0191 -0.061,0.0205 -0.2842,0.14469 -0.4707,0.26097 -0.05,0.0311 -0.093,0.0601 -0.1039,0.063 -0.014,0.008 -0.014,0.008 0.017,-0.0796 l 0.019,-0.0543 0.053,-0.032 c 0.088,-0.0522 0.2454,-0.12168 0.4186,-0.18448 0.033,-0.0118 0.049,-0.0179 0.059,-0.0171 z m -0.2403,0.42272 c 0.1052,0.007 0.172,0.071 0.2,0.18913 0.014,0.0655 0.011,0.0737 -0.013,0.0269 -0.031,-0.0606 -0.078,-0.11135 -0.1251,-0.13435 -0.036,-0.0171 -0.046,-0.0191 -0.1101,-0.0191 -0.06,0 -0.075,0.002 -0.1,0.0155 -0.067,0.0356 -0.1124,0.10674 -0.1344,0.20464 -0.011,0.0574 -0.01,0.0968 0.013,0.15348 0.02,0.0538 0.092,0.12523 0.1602,0.15813 l 0.05,0.0238 -0.039,0.0145 c -0.021,0.007 -0.05,0.0145 -0.063,0.0145 -0.058,0 -0.1228,-0.0575 -0.1478,-0.13178 -0.017,-0.0536 -0.013,-0.151 0.011,-0.2465 0.028,-0.10745 0.057,-0.177 0.088,-0.2036 0.049,-0.0432 0.1373,-0.0711 0.2103,-0.0651 z m -0.6651,0.18707 0.011,0.0377 v 0.046 c 0,0.004 -0.075,0.11071 -0.1597,0.23616 l -0.01,-5.1e-4 c -0.085,0.1254 -0.1628,0.22801 -0.1628,0.22789 -0.01,0 -0.011,-0.003 -0.022,-0.008 -0.014,-0.008 -0.01,-0.019 0.1628,-0.27337 z m 0.5468,0.0258 c 0.021,-0.007 0.045,-0.005 0.071,0.008 0.033,0.0164 0.048,0.0431 0.048,0.0848 0,0.0253 0,0.0347 -0.02,0.0506 h -6e-4 c -0.017,0.0174 -0.024,0.0202 -0.063,0.0202 -0.038,0 -0.048,-0.003 -0.065,-0.0176 -0.028,-0.0227 -0.033,-0.0548 -0.017,-0.0951 0.01,-0.0266 0.027,-0.0437 0.048,-0.0512 z m 3.1321,0.0982 c -0.053,0.005 -0.1044,0.036 -0.1644,0.0935 -0.098,0.0948 -0.1763,0.21758 -0.1953,0.31368 -0.011,0.0538 -0.011,0.16961 0,0.22841 0.015,0.0851 0.025,0.10581 0.082,0.17001 0.062,0.0691 0.095,0.12752 0.095,0.16692 0,0.0371 -0.01,0.0484 -0.053,0.076 -0.056,0.0343 -0.085,0.0688 -0.096,0.11318 -0.016,0.0747 0.02,0.15937 0.1034,0.23977 l 0.04,0.0439 0.059,-0.0537 c 0.032,-0.0294 0.091,-0.0749 0.1302,-0.10129 0.094,-0.0638 0.1543,-0.11418 0.1943,-0.16278 0.1254,-0.1509 0.097,-0.27968 -0.1091,-0.49868 -0.03,-0.0323 -0.056,-0.0562 -0.045,-0.0532 0.1163,0.0665 0.2258,0.20003 0.2408,0.29353 0,0.0483 0.015,0.0319 0.015,-0.0227 0,-0.0632 -0.029,-0.11552 -0.085,-0.18242 -0.064,-0.0755 -0.1886,-0.17152 -0.2909,-0.22272 -0.053,-0.0264 -0.09,-0.0619 -0.09,-0.0863 0,-0.0307 0.01,-0.0427 0.049,-0.0599 0.027,-0.011 0.049,-0.0158 0.086,-0.016 0.044,-4e-4 0.057,0.003 0.092,0.0212 0.059,0.0305 0.1296,0.0889 0.2176,0.17983 0.041,0.0434 0.078,0.0791 0.078,0.0791 0.01,0 -0.028,-0.11947 -0.044,-0.16227 -0.043,-0.11551 -0.1188,-0.21553 -0.1918,-0.25063 -0.027,-0.0145 -0.043,-0.0165 -0.094,-0.0165 -0.076,0 -0.11,0.0151 -0.169,0.0739 -0.1331,0.1346 -0.1282,0.33031 0.014,0.53796 0.056,0.0839 0.071,0.1314 0.082,0.1912 0.01,0.079 -0.017,0.15206 -0.075,0.23306 -0.028,0.0418 -0.046,0.0772 -0.061,0.12661 -0.01,0.0223 -0.017,0.0435 -0.017,0.0465 -0.011,0.01 -0.011,-0.0399 -0.011,-0.0879 0,-0.0392 0.01,-0.056 0.053,-0.14263 0.039,-0.0886 0.05,-0.10163 0.05,-0.13643 0,-0.0459 -0.011,-0.0679 -0.086,-0.16588 -0.073,-0.0946 -0.091,-0.12859 -0.091,-0.19999 0,-0.0834 0.031,-0.25406 0.064,-0.32246 0.058,-0.12265 0.2018,-0.21005 0.3214,-0.19585 0.042,0.005 0.065,0.0167 0.1008,0.0532 0.057,0.0568 0.1373,0.2017 0.1803,0.32814 0.01,0.0307 0.024,0.0558 0.024,0.0558 0.01,1e-5 0,-0.0563 -0.013,-0.12506 -0.028,-0.146 -0.1042,-0.26594 -0.2155,-0.34054 -0.067,-0.0447 -0.1212,-0.0648 -0.1741,-0.0594 z m -2.9482,0.0341 c 0.01,2.6e-4 0.014,0.004 0.028,0.0103 0.028,0.0144 0.048,0.0429 0.048,0.0682 0,0.0262 -0.02,0.0606 -0.04,0.0708 v 0.001 c -0.026,0.0128 -0.052,0.0129 -0.08,5.2e-4 -0.025,-0.0119 -0.036,-0.0284 -0.036,-0.0693 0,-0.0409 0.013,-0.0585 0.05,-0.0729 0.015,-0.006 0.023,-0.009 0.03,-0.009 z m 0.3581,0.0816 c 0,-0.002 -0.032,0.0202 -0.067,0.0486 -0.2094,0.17026 -0.4223,0.30882 -0.5452,0.35502 -0.022,0.009 -0.04,0.0183 -0.041,0.0207 5e-4,0.007 0.015,0.007 0.09,-0.002 0.2345,-0.0262 0.4244,-0.15367 0.5323,-0.3576 0.019,-0.0338 0.03,-0.0626 0.03,-0.0646 z m -0.6526,0.42427 c 0,-1.2e-4 0,1.2e-4 0,0 l 5e-4,5.1e-4 c 0,-4e-5 10e-4,-4.5e-4 0,-5.1e-4 z m -3.2985,-0.40049 c 0,0 -0.8663,0.65354 -0.8853,0.67024 v 0.009 c 0,0.002 0.3224,0.10221 0.7127,0.22325 0.3902,0.12102 0.7098,0.22331 0.7208,0.22531 0.01,0.004 -0.067,0.11129 -0.4072,0.57257 -0.2299,0.31208 -0.4165,0.56796 -0.4165,0.56896 9e-4,8.8e-4 0.3224,-0.0515 0.7142,-0.11627 0.3918,-0.0648 0.7157,-0.11673 0.7157,-0.11473 0,0.002 -0.083,0.17965 -0.1876,0.39585 -0.1047,0.21618 -0.1876,0.39484 -0.1876,0.39584 0,10e-4 0.1726,-0.0361 0.3804,-0.0837 l 0.3777,-0.0868 0.011,0.0615 c 0.012,0.14002 -0.011,0.36585 -0.046,0.45165 0,0.0227 -0.014,0.0429 -0.014,0.0439 0,0.001 0.049,-0.004 0.106,-0.0119 l 0.1033,-0.0139 0.014,0.0186 c 0.084,0.10752 0.3096,0.33531 0.4403,0.4439 0.1676,0.13959 0.3527,0.26494 0.5193,0.35244 h 5e-4 c 0.046,0.0238 0.089,0.0433 0.089,0.0434 0,0 -0.044,-0.0366 -0.108,-0.0816 -0.397,-0.28503 -0.7057,-0.5639 -0.8335,-0.75241 l -0.023,-0.0331 0.026,-0.22221 c 0.011,-0.12226 0.022,-0.22382 0.022,-0.22582 0,-0.002 -0.011,0.0151 -0.011,0.0372 -0.01,0.0577 -0.029,0.14903 -0.047,0.17983 -0.01,0.0146 -0.022,0.0307 -0.033,0.0367 -0.017,0.009 -0.019,0.009 -0.032,-0.002 -0.029,-0.0303 -0.051,-0.16407 -0.04,-0.47077 v -0.24029 l -0.022,0.0512 c -0.052,0.11973 -0.085,0.17121 -0.099,0.15761 -0.015,-0.0148 -0.048,-0.17404 -0.074,-0.3607 -0.021,-0.14639 -0.1055,-0.70045 -0.1055,-0.70745 0,-0.006 -0.021,-0.002 -0.069,0.0155 -0.037,0.0133 -0.095,0.0345 -0.1297,0.047 l -0.064,0.0227 v -0.27182 c 0.01,-0.44863 0.039,-0.81091 0.09,-1.03197 0.029,-0.1064 0.029,-0.10916 0.011,-0.0543 -0.024,0.0722 -0.074,0.26659 -0.098,0.39067 -0.058,0.29941 -0.08,0.56059 -0.08,0.83406 v 0.16019 l -0.098,0.0351 c -0.054,0.0193 -0.2103,0.0757 -0.3477,0.12506 -0.1374,0.0493 -0.2517,0.0888 -0.2517,0.0879 0,-0.001 0.1166,-0.19621 0.2615,-0.43356 0.1449,-0.23733 0.2615,-0.43257 0.2615,-0.43357 0,-0.001 -0.3514,-0.0614 -0.7783,-0.13384 -0.4268,-0.0724 -0.7782,-0.13284 -0.7782,-0.13384 0,-0.001 0.1542,-0.14605 0.3457,-0.32143 0.1916,-0.17539 0.3447,-0.31884 0.3447,-0.31884 z m 1.2541,0.0615 c -0.011,0.005 -0.01,0.0137 -0.01,0.0196 9e-4,0.006 0.01,0.005 0.01,-0.003 0.011,-0.0189 0.011,-0.0289 0,-0.0165 z m 0.6217,0.79168 c 0.077,-0.005 0.1205,0.0184 0.1535,0.0791 0.024,0.0449 0.035,0.0968 0.024,0.15089 -0.013,0.079 -0.046,0.13077 -0.098,0.15503 -0.03,0.0142 -0.052,0.0146 -0.1039,0.003 -0.1239,-0.0275 -0.1792,-0.12001 -0.1462,-0.24753 0.022,-0.0878 0.08,-0.13456 0.1705,-0.14056 z m 0.038,0.014 c -0.035,-0.004 -0.075,0.003 -0.11,0.0227 -0.065,0.0354 -0.1039,0.1 -0.089,0.14935 0.013,0.043 0.064,0.10551 0.1054,0.12661 l 0.01,-0.001 c 0.026,0.0146 0.059,0.0137 0.09,-0.002 0.034,-0.0175 0.075,-0.0636 0.075,-0.0848 0,-0.0148 0,-0.0171 -0.027,-0.0171 -0.021,0 -0.032,-0.002 -0.032,-0.0202 -0.011,-0.0113 -0.011,-0.0202 -0.011,-0.0202 -10e-4,0 -0.015,0.004 -0.031,0.0103 -0.058,0.0201 -0.087,-0.004 -0.087,-0.0703 0,-0.0475 0.019,-0.0687 0.059,-0.0687 0.033,0 0.062,0.0142 0.073,0.031 v 0.0403 0.0289 l 0.018,-0.009 c 0.021,-0.0103 0.04,-0.008 0.058,0.009 0.011,0.01 0.011,0.01 0.011,-0.003 0,-0.0197 -0.013,-0.0568 -0.028,-0.0786 -0.017,-0.0252 -0.048,-0.0401 -0.084,-0.0439 z m 2.773,10e-4 c -0.1013,-0.003 -0.1934,-0.003 -0.2134,0.003 -0.018,0.005 -0.01,0.005 0.041,0.003 0.325,-0.016 0.8711,0.14356 1.4175,0.41445 v 5.2e-4 c 0.055,0.027 0.1054,0.0494 0.1054,0.0496 0.012,0.001 -0.094,-0.0822 -0.1684,-0.13126 -0.2454,-0.16433 -0.5555,-0.27363 -0.9121,-0.32143 -0.058,-0.008 -0.169,-0.0144 -0.2703,-0.0176 z m 2.1993,5.2e-4 -0.022,0.0439 c -0.025,0.0501 -0.093,0.12218 -0.1597,0.16898 -0.2848,0.20074 -0.39,0.31371 -0.37,0.39481 0,0.009 0.016,0.0256 0.03,0.0346 l 0.01,-5.1e-4 c 0.032,0.0219 0.033,0.0217 0.016,-0.001 -0.011,-0.0154 -0.022,-0.0227 -0.011,-0.0413 0.014,-0.0499 0.076,-0.10516 0.2553,-0.22996 0.1053,-0.0732 0.1643,-0.12575 0.1953,-0.17415 0.024,-0.038 0.048,-0.11644 0.059,-0.16484 z m -2.5202,0.51056 c -0.044,0 -0.078,0.0146 -0.1147,0.0512 -0.027,0.0267 -0.076,0.0511 -0.4197,0.20826 -0.5334,0.24407 -0.8382,0.38749 -0.8852,0.41599 -0.077,0.0472 -0.2324,0.18545 -0.5245,0.46612 -0.083,0.0795 -0.1478,0.14683 -0.1478,0.14883 0,0.002 0.069,0.0373 0.1514,0.078 l 0.1489,0.0739 v 0.0548 c 0,0.0463 0.01,0.0598 0.022,0.0832 0.023,0.0347 0.067,0.0598 0.1214,0.0718 l 0.01,0.001 c 0.1145,0.0248 0.1386,0.0191 0.6816,-0.16278 0.5207,-0.17449 0.5921,-0.20097 0.7121,-0.26097 0.1579,-0.079 0.2607,-0.15227 0.3597,-0.25735 0.088,-0.0936 0.1225,-0.15688 0.1555,-0.2868 0.02,-0.0777 0.036,-0.22509 0.047,-0.31419 0,-0.08 -0.01,-0.12068 -0.04,-0.13798 -0.021,-0.0104 -0.054,-0.0104 -0.082,0.001 0,0.003 -0.015,-0.002 -0.015,-0.0176 -0.01,-0.0271 -0.039,-0.0646 -0.072,-0.0811 -0.031,-0.0155 -0.1167,-0.0398 -0.1447,-0.0408 l -0.02,-0.001 0.02,-0.005 c 0.034,-0.009 0.098,-0.008 0.1359,0.002 0.083,0.0221 0.1806,0.0967 0.2356,0.1788 0.016,0.0225 0.033,0.0412 0.033,0.0413 0,3.3e-4 2e-4,-0.0916 -0.011,-0.12247 -0.013,-0.0359 -0.043,-0.0743 -0.08,-0.10129 -0.016,-0.0105 -0.027,-0.0196 -0.016,-0.0196 0.019,0 0.1626,0.0395 0.2346,0.0646 0.2632,0.0918 0.5982,0.27987 0.8341,0.46922 0.033,0.0265 0.061,0.047 0.061,0.046 0.01,-0.005 -0.08,-0.10852 -0.1385,-0.17002 -0.1125,-0.11619 -0.2245,-0.19718 -0.369,-0.26768 -0.1764,-0.0862 -0.3964,-0.14345 -0.5865,-0.15245 -0.051,-0.002 -0.081,-0.008 -0.1163,-0.0207 -0.057,-0.0208 -0.1338,-0.0367 -0.1798,-0.0367 z m -2.1022,0.0553 c -0.041,-3.3e-4 -0.079,0.004 -0.1106,0.0124 -0.05,0.014 -0.092,0.0682 -0.1034,0.1266 -0.01,0.046 0.013,0.076 0.1267,0.19121 0.1118,0.1129 0.1447,0.13579 0.2387,0.16639 v 0 c 0.029,0.008 0.065,0.0154 0.089,0.0155 0.063,3e-4 0.088,-0.0153 0.153,-0.0941 0.1429,-0.17823 0.1435,-0.23378 0,-0.31368 -0.1158,-0.0637 -0.2727,-0.10337 -0.3969,-0.10439 z m 2.0014,0.12454 c 0.078,-4e-4 0.088,0.001 0.1292,0.0186 0.06,0.0256 0.082,0.0492 0.082,0.0884 0,0.0822 -0.1386,0.21467 -0.2662,0.25477 -0.024,0.008 -0.077,0.0166 -0.1178,0.0196 -0.041,0.003 -0.096,0.0127 -0.1219,0.0207 -0.1317,0.0408 -0.3804,0.18265 -0.4724,0.26975 -0.041,0.0385 -0.078,0.0847 -0.078,0.0966 0,0.01 0.064,10e-4 0.1163,-0.015 0.045,-0.014 0.095,-0.0452 0.231,-0.1447 0.098,-0.0718 0.16,-0.10917 0.2,-0.11937 0.019,-0.005 0.074,-0.008 0.1441,-0.007 0.073,0 0.1162,-0.002 0.1272,-0.007 0.01,-0.004 0.057,-0.051 0.109,-0.10387 0.1329,-0.13417 0.1931,-0.17048 0.2331,-0.14108 0.018,0.0132 0.018,0.0164 0.018,0.0703 -10e-4,0.0679 -0.024,0.1424 -0.082,0.26303 -0.085,0.17701 -0.1211,0.21993 -0.2579,0.30593 -0.09,0.0565 -0.2759,0.15129 -0.4103,0.20929 -0.2058,0.0888 -0.69,0.23425 -0.94,0.28215 -0.099,0.0184 -0.1844,0.0239 -0.2119,0.0114 -0.026,-0.0119 -0.043,-0.0419 -0.043,-0.0765 0,-0.0274 0.027,-0.084 0.053,-0.10645 0.021,-0.0183 0.019,-0.0243 -0.019,-0.0243 -0.077,0 -0.1618,-0.0314 -0.1958,-0.0729 -0.028,-0.0296 -0.032,-0.0634 -0.011,-0.1018 0.016,-0.0306 0.078,-0.0894 0.1328,-0.12609 0.022,-0.0146 0.087,-0.0636 0.1437,-0.10904 0.1176,-0.0935 0.2249,-0.17062 0.3069,-0.21962 0.1368,-0.0818 0.9644,-0.48567 1.0594,-0.51677 0.05,-0.0172 0.068,-0.0189 0.1421,-0.0191 z m -1.7203,0.031 c 0.024,-9.8e-4 0.048,0.002 0.065,0.008 0.057,0.0214 0.069,0.074 0.026,0.10335 l -6e-4,5.2e-4 c -0.033,0.0213 -0.099,0.0216 -0.1255,5.1e-4 -0.037,-0.028 -0.049,-0.0838 -0.023,-0.0997 0.012,-0.008 0.035,-0.0119 0.058,-0.0129 z m 4.1527,1.17357 c -0.01,0.005 -0.088,0.35824 -0.088,0.37104 v 5.1e-4 c 0,0.005 0.013,-0.005 0.03,-0.0217 0.045,-0.0451 0.091,-0.0668 0.1546,-0.0698 0.029,-0.002 0.051,-0.006 0.051,-0.008 -0.024,-0.0526 -0.1473,-0.27534 -0.1473,-0.27234 z m -2.8665,0.33952 c -0.01,0 -0.037,0.0194 -0.065,0.0455 -0.027,0.0251 -0.069,0.0568 -0.092,0.0708 -0.048,0.0293 -0.068,0.0309 -0.1777,0.015 -0.036,-0.005 -0.094,-0.01 -0.1266,-0.01 -0.073,-2e-4 -0.1356,0.0204 -0.2326,0.0775 -0.073,0.0436 -0.073,0.0472 0,0.0574 0.023,0.004 0.1076,0.005 0.1876,0.005 l 0.1452,-0.002 0.1251,-0.0424 c 0.069,-0.0233 0.1498,-0.0543 0.1808,-0.0692 0.061,-0.0299 0.1034,-0.0694 0.1034,-0.0971 0,-0.0208 -0.029,-0.0501 -0.048,-0.0501 z m 2.573,0.0594 c 0.051,-0.01 0.1122,0.0179 0.1767,0.0816 0.039,0.0384 0.1173,0.13977 0.1313,0.16847 0.011,0.0264 0.022,0.0167 0.011,-0.0269 -0.01,-0.077 0.01,-0.14629 0.043,-0.17829 0.033,-0.0302 0.062,-0.0385 0.123,-0.0382 0.052,1e-4 0.063,0.003 0.1034,0.0217 0.077,0.038 0.179,0.14534 0.3137,0.33021 0.034,0.0459 0.061,0.0811 0.061,0.0791 0,-0.003 -0.03,-0.0653 -0.07,-0.13901 -0.039,-0.0737 -0.071,-0.13756 -0.071,-0.14056 0,-0.0121 0.055,-0.0529 0.099,-0.0749 0.049,-0.0243 0.1413,-0.0442 0.1783,-0.0372 0.033,0.006 0.083,0.0385 0.1198,0.0796 0.056,0.0623 0.1407,0.20454 0.1887,0.31677 0.04,0.0953 0.02,0.0334 -0.048,-0.15244 -0.039,-0.10629 -0.072,-0.19699 -0.072,-0.19999 0,-0.003 0.011,-0.009 0.024,-0.0114 0.07,-0.0131 0.1457,0.0302 0.2057,0.11886 0.033,0.0469 0.068,0.1189 0.089,0.1757 0.01,0.0242 0.02,0.0466 0.02,0.0496 0,0.006 0.01,-0.0464 0.017,-0.17984 0,-0.0437 0.011,-0.0807 0.011,-0.0827 0,-0.002 0.026,-0.007 0.053,-0.0103 0.1259,-0.0178 0.2449,0.0395 0.3369,0.16174 0.042,0.0543 0.1046,0.17303 0.1266,0.23513 0,0.0194 0.015,0.0341 0.015,0.0331 10e-4,-0.001 -0.016,-0.076 -0.039,-0.16588 -0.021,-0.0898 -0.036,-0.16701 -0.036,-0.17001 10e-4,-0.005 0.025,-0.007 0.052,-0.007 0.1063,1.5e-4 0.1692,0.0605 0.2072,0.19689 0.035,0.12033 0.064,0.36298 0.075,0.58704 0.01,0.19298 0.021,0.23067 0.1261,0.40669 0.088,0.14465 0.1137,0.21866 0.1137,0.31988 0,0.0839 -0.01,0.11627 -0.04,0.12867 -0.054,0.0225 -0.1331,0.007 -0.2398,-0.046 -0.061,-0.0304 -0.076,-0.0351 -0.1116,-0.0351 -0.037,0 -0.05,0.004 -0.1519,0.0558 -0.076,0.038 -0.1257,0.0586 -0.1587,0.0656 -0.052,0.0112 -0.083,0.008 -0.094,-0.008 0,-0.006 -0.011,-0.0532 -0.011,-0.10594 0,-0.0527 -0.01,-0.10809 -0.016,-0.12299 -0.027,-0.0766 -0.077,-0.1499 -0.2083,-0.3054 -0.1069,-0.12589 -0.1412,-0.17503 -0.1602,-0.23203 -0.019,-0.0566 -0.035,-0.15595 -0.035,-0.23565 0,-0.0811 -0.01,-0.0561 -0.024,0.10336 -0.013,0.129 -0.01,0.16954 0.024,0.24804 0.028,0.0669 0.07,0.1231 0.1638,0.2217 0.1511,0.15694 0.1845,0.22278 0.1845,0.39325 10e-4,0.0691 -10e-5,0.0735 -0.019,0.10491 -0.015,0.0236 -0.031,0.0385 -0.059,0.0543 -0.05,0.0279 -0.097,0.0367 -0.1866,0.0367 -0.075,0 -0.09,-0.004 -0.1168,-0.0367 -0.02,-0.0244 -0.051,-0.0942 -0.09,-0.20051 -0.051,-0.13893 -0.08,-0.20861 -0.1173,-0.26871 -0.07,-0.11651 -0.1038,-0.2219 -0.1178,-0.36484 -0.01,-0.10004 -0.012,-0.0876 -0.023,0.0398 -0.01,0.1455 0.012,0.22352 0.077,0.30282 0.116,0.14274 0.1819,0.32252 0.1639,0.44597 -0.01,0.0606 -0.033,0.11235 -0.072,0.15245 -0.041,0.0428 -0.066,0.0543 -0.1178,0.0543 -0.033,0 -0.051,-0.004 -0.074,-0.0155 -0.066,-0.0324 -0.066,-0.035 -0.066,-0.10438 0,-0.13853 -0.036,-0.21187 -0.1308,-0.32195 -0.073,-0.0845 -0.1098,-0.14384 -0.1318,-0.21394 -0.033,-0.10758 -0.083,-0.38981 -0.1069,-0.62786 -0.013,-0.12493 -0.031,-0.18716 -0.085,-0.29508 -0.044,-0.0895 -0.1099,-0.20825 -0.1209,-0.20825 v 0.0217 c 10e-4,0.0121 0.01,0.0768 0.017,0.14366 0.022,0.18835 0.055,0.3477 0.121,0.57464 0.023,0.0784 0.03,0.11745 0.041,0.22945 0.024,0.23387 0.047,0.29726 0.1519,0.40927 0.1266,0.13534 0.1618,0.19977 0.1618,0.30076 6e-4,0.11674 -0.044,0.20155 -0.1277,0.24495 -0.03,0.016 -0.044,0.0178 -0.098,0.0181 -0.07,4e-4 -0.068,0.007 -0.081,-0.0909 -0.016,-0.12849 -0.087,-0.37293 -0.1457,-0.50022 -0.06,-0.13004 -0.1116,-0.28299 -0.2026,-0.60152 -0.042,-0.14952 -0.071,-0.22849 -0.123,-0.3545 -0.043,-0.10197 -0.1652,-0.36415 -0.1762,-0.35915 0,0.002 0.034,0.10333 0.078,0.22531 0.093,0.25035 0.1056,0.29347 0.1876,0.58653 0.088,0.31624 0.1094,0.3763 0.1814,0.5209 0.1105,0.22223 0.1485,0.33222 0.1375,0.46612 -0.01,0.11162 -0.033,0.16872 -0.097,0.20102 l -0.01,0.002 c -0.036,0.0183 -0.1,0.0203 -0.1587,0.005 l -0.024,-0.007 v -0.0698 c 0,-0.0573 -10e-4,-0.0833 -0.015,-0.1416 -0.027,-0.11251 -0.096,-0.26969 -0.1659,-0.38602 l -0.026,-0.0429 0.017,-0.0558 c 0.024,-0.0773 0.023,-0.14614 0,-0.19534 -0.021,-0.0449 -0.074,-0.11213 -0.1219,-0.15503 l -0.038,-0.0326 -0.044,-0.14005 -0.044,-0.13952 0.017,-0.0662 c 0.026,-0.0837 0.028,-0.16472 0.011,-0.19792 -0.017,-0.0325 -0.073,-0.11254 -0.138,-0.19534 -0.055,-0.0703 -0.2982,-0.45313 -0.2982,-0.46973 0,-0.0154 0.028,-0.0443 0.055,-0.0579 0.061,-0.0312 0.1769,-0.034 0.2599,-0.006 0.081,0.0272 0.1672,0.0951 0.2202,0.17311 0.01,0.0182 0.017,0.0266 0.017,0.0186 -0.055,-0.14092 -0.055,-0.21682 0,-0.25942 0.015,-0.0117 0.031,-0.0194 0.048,-0.0227 z m -0.4429,0.004 c 0.01,-5.9e-4 0,0.003 -0.023,0.0103 -0.036,0.0108 -0.082,0.0334 -0.1514,0.0754 -0.031,0.0179 -0.057,0.0325 -0.057,0.032 0,-4e-4 -0.059,-0.0107 -0.1276,-0.0227 -0.125,-0.0217 -0.1248,-0.0219 -0.085,-0.0269 0.1764,-0.0213 0.3071,-0.0407 0.3711,-0.0548 0.038,-0.008 0.063,-0.0128 0.073,-0.0134 z m -1.1637,0.0832 0.039,0.0155 c 0.1831,0.0745 0.8601,0.42689 1.1374,0.59221 0.1374,0.0818 0.1881,0.12318 0.1881,0.15038 0,0.0252 -0.023,0.0726 -0.051,0.10749 -0.045,0.0546 -0.1419,0.11627 -0.1829,0.11627 -0.051,0 -0.2706,-0.13776 -0.5251,-0.32969 -0.036,-0.0275 -0.069,-0.048 -0.069,-0.047 0,0.001 0.026,0.0416 0.06,0.0899 0.077,0.10761 0.1989,0.29095 0.2459,0.36845 0.048,0.081 0.096,0.19444 0.1065,0.22634 0,0.0238 3e-4,0.0305 -0.022,0.0594 -0.07,0.0914 -0.2599,0.20051 -0.3499,0.20051 -0.021,0 -0.032,-0.005 -0.06,-0.032 -0.07,-0.0658 -0.2148,-0.27326 -0.3984,-0.57258 -0.055,-0.0891 -0.099,-0.1677 -0.1101,-0.1757 0,-0.007 0.019,0.0519 0.056,0.13178 0.1487,0.32558 0.2564,0.59319 0.2884,0.7152 0.023,0.0829 0.023,0.10551 0,0.12661 -0.055,0.0508 -0.191,0.11935 -0.26,0.13125 -0.058,0.01 -0.086,-6.2e-4 -0.1111,-0.0408 -0.01,-0.0154 -0.062,-0.11497 -0.1126,-0.22118 -0.1071,-0.21988 -0.1821,-0.35037 -0.2341,-0.40617 -0.039,-0.0384 -0.039,-0.0381 -0.028,-0.0145 0.091,0.32598 0.1238,0.45654 0.1478,0.57206 0.019,0.10169 0.019,0.11227 -0.016,0.14727 -0.016,0.0167 -0.053,0.0414 -0.086,0.0574 -0.048,0.0233 -0.066,0.0296 -0.1091,0.0325 -0.066,0.005 -0.101,-0.007 -0.14,-0.0491 -0.063,-0.0683 -0.1791,-0.26749 -0.3028,-0.51832 -0.041,-0.0807 -0.076,-0.14618 -0.076,-0.14624 -10e-4,0 -0.02,0.0239 -0.04,0.0537 -0.051,0.0742 -0.1425,0.16136 -0.2005,0.18966 -0.039,0.0191 -0.052,0.0224 -0.093,0.0222 -0.072,-3.4e-4 -0.1238,-0.0318 -0.1778,-0.11007 -0.044,-0.0639 -0.047,-0.0649 -0.019,-0.009 0.033,0.0654 0.067,0.1747 0.078,0.2372 0.015,0.0983 0,0.1512 -0.075,0.2191 -0.1039,0.098 -0.3392,0.23089 -0.4744,0.26769 -0.069,0.0186 -0.4405,-0.002 -0.7746,-0.0434 -0.044,-0.005 -0.082,-0.008 -0.082,-0.007 -10e-4,0.002 0.01,0.0115 0.021,0.0217 0.1454,0.12126 0.256,0.24921 0.278,0.32091 0.011,0.0366 0,0.0603 -0.074,0.13539 -0.1706,0.17756 -0.7573,0.66105 -1.0103,0.83251 h -5e-4 c -0.036,0.0247 -0.073,0.0444 -0.073,0.0444 -0.027,0 -0.1294,-0.16372 -0.2713,-0.43253 -0.091,-0.17368 -0.2052,-0.50412 -0.1912,-0.55862 0.01,-0.0196 0.072,-0.0683 0.6083,-0.43822 0.5486,-0.37863 0.6483,-0.44892 0.7539,-0.53072 0.1313,-0.1018 0.2958,-0.2136 0.7095,-0.48317 l 0.2062,-0.13436 0.3923,-0.19379 c 0.7319,-0.36187 1.2761,-0.61741 1.4319,-0.67231 z m -0.033,0.14469 c -0.023,-0.002 -0.04,-3.1e-4 -0.04,0.006 0,0.004 0.011,0.007 0.011,0.007 0,0 0.047,0.0268 0.097,0.06 0.1,0.0666 0.2291,0.16813 0.337,0.26613 l -0.01,5.2e-4 c 0.04,0.0352 0.074,0.063 0.074,0.062 0,-0.003 -0.049,-0.0803 -0.097,-0.14211 -0.054,-0.0696 -0.1655,-0.17547 -0.2165,-0.20567 -0.023,-0.013 -0.06,-0.0308 -0.084,-0.0388 -0.023,-0.008 -0.052,-0.0132 -0.075,-0.015 z m -0.4516,0.65784 v 0.0822 c 0,0.094 0.018,0.16006 0.05,0.22376 v 0 c 0.01,0.0199 0.024,0.0357 0.024,0.0357 0.011,0 -5e-4,-0.15186 -0.015,-0.21446 -0.013,-0.0562 -0.04,-0.11813 -0.055,-0.12713 z m -2.7833,0.0444 c -0.052,-0.007 -0.063,-0.007 -0.089,0.003 -0.092,0.0353 -0.2034,0.18177 -0.3292,0.4346 -0.055,0.11309 -0.088,0.17486 -0.077,0.18086 0,0.002 0.1401,0.0307 0.307,0.0636 v 0.001 c 0.1669,0.0329 0.3136,0.0602 0.3246,0.0605 0.02,5e-4 0.023,-0.003 0.059,-0.0718 0.062,-0.12044 0.086,-0.20975 0.086,-0.31574 0,-0.0649 -0.015,-0.14575 -0.037,-0.18655 -0.011,-0.0117 -0.011,-0.0223 -0.011,-0.0243 0,-0.002 0.076,-0.009 0.1674,-0.0165 0.091,-0.008 0.167,-0.015 0.167,-0.016 0,-0.004 -0.052,-0.009 -0.2078,-0.0212 -0.089,-0.007 -0.1373,-0.0136 -0.1483,-0.0196 -0.033,-0.0285 -0.1284,-0.0604 -0.2134,-0.0718 z m 2.2779,0.007 c -0.097,-0.009 -0.2028,0.004 -0.2558,0.0315 -0.01,0.006 -0.017,0.0119 -0.017,0.0129 0,0.001 0.019,0.007 0.04,0.0124 0.07,0.0188 0.1805,0.009 0.2873,-0.0238 0.042,-0.0123 0.044,-0.0152 0.031,-0.0202 -0.01,-0.004 -0.046,-0.01 -0.085,-0.0129 z m -2.3218,0.10801 c 0.045,0 0.09,0.0409 0.1152,0.10593 0.016,0.0328 0.016,0.0525 0.016,0.11731 0,0.0856 -0.01,0.13659 -0.043,0.22169 v 0 c -0.011,0.029 -0.017,0.0571 -0.028,0.0631 -0.01,0.009 -0.027,0.005 -0.1648,-0.0341 -0.086,-0.0245 -0.1612,-0.0471 -0.1612,-0.0491 -0.01,-0.005 0.04,-0.11184 0.083,-0.19844 0.069,-0.13683 0.1415,-0.22634 0.1845,-0.22634 z m 4.6338,0.0811 c 0.05,0 0.091,0.0476 0.091,0.11421 0,0.0403 -1e-4,0.048 -0.018,0.077 -0.021,0.0329 -0.057,0.0604 -0.074,0.0574 -0.018,-0.004 -0.019,-0.0615 0,-0.16071 0,-0.0204 -9e-4,-0.0146 -0.044,0.0439 -0.026,0.0371 -0.065,0.0876 -0.085,0.11213 h -0.01 c -0.043,0.0528 -0.18,0.17763 -0.169,0.15813 0.031,-0.083 0.031,-0.19738 0,-0.27698 0,-0.008 0.01,-9e-4 0.03,0.0186 0.033,0.0309 0.06,0.0455 0.08,0.0455 0.017,0 0.057,-0.0406 0.1008,-0.10491 0.049,-0.0699 0.065,-0.0842 0.093,-0.0842 z m 0.022,0.31316 c 0.089,1e-4 0.1379,0.0148 0.1819,0.0543 0.027,0.0248 0.054,0.0755 0.065,0.10955 0.018,0.0849 -0.1041,0.16362 -0.2537,0.16382 -0.092,3e-4 -0.1573,-0.0216 -0.2243,-0.0749 -0.053,-0.0416 -0.1256,-0.0567 -0.1896,-0.0393 -0.032,0.009 -0.1219,0.076 -0.1659,0.12454 -0.075,0.0828 -0.093,0.1646 -0.05,0.2434 0.036,0.0672 0.1169,0.15335 0.1809,0.19275 0.035,0.0224 0.019,0.0256 -0.05,0.0103 -0.1528,-0.0339 -0.2382,-0.13218 -0.2382,-0.27492 0,-0.0254 -0.011,-0.046 -0.011,-0.046 -0.01,0 -0.032,0.0214 -0.064,0.0475 -0.116,0.097 -0.2295,0.16357 -0.3265,0.19017 -0.047,0.0139 -0.073,0.0154 -0.1975,0.016 l -0.1431,0.001 -0.074,0.0481 c -0.1564,0.10194 -0.355,0.18387 -0.5147,0.21187 -0.09,0.016 -0.234,0.0191 -0.308,0.007 -0.1159,-0.0194 -0.2386,-0.0767 -0.3126,-0.14676 l -0.037,-0.0351 -0.085,0.0506 c -0.2228,0.13318 -0.4391,0.21737 -0.6087,0.23772 -0.085,0.009 -0.1511,0.003 -0.214,-0.0202 -0.064,-0.0256 -0.063,-0.0303 0.011,-0.0393 0.2953,-0.0374 0.5703,-0.12861 0.7193,-0.23823 0.064,-0.0469 0.2464,-0.23629 0.2884,-0.29869 0.061,-0.0939 0.061,-0.12516 0,-0.15606 -0.02,-0.01 -0.033,-0.0176 -0.033,-0.0176 0,0 0.047,0.004 0.098,0.0103 0.109,0.011 0.2083,0.0116 0.2263,0.003 0.02,-0.0108 0.033,-0.0457 0.033,-0.13488 v -0.0837 l 0.014,0.0331 c 0.022,0.0567 0.041,0.14345 0.041,0.20515 v 0.0594 l 0.057,0.0904 c 0.1233,0.19783 0.1454,0.23031 0.1344,0.22531 0,-0.003 -0.038,-0.0307 -0.075,-0.0615 -0.037,-0.0309 -0.072,-0.0563 -0.072,-0.0563 0,0 -0.017,0.0311 -0.033,0.0693 -0.034,0.0679 -0.034,0.0688 -0.023,0.0325 0.01,-0.0702 0,-0.1702 -0.011,-0.2036 -0.026,-0.0691 -0.079,-0.0888 -0.1561,-0.0599 -0.055,0.0206 -0.1332,0.0937 -0.1612,0.15297 -0.064,0.12985 -0.01,0.21381 0.172,0.26251 0.2392,0.0645 0.5463,0.0179 0.7432,-0.11317 0.053,-0.0353 0.1289,-0.10818 0.1679,-0.15968 l 0.017,-0.0227 0.031,0.0212 c 0.073,0.0494 0.1815,0.0657 0.2485,0.0372 0.066,-0.0283 0.2336,-0.12893 0.2636,-0.15813 0.033,-0.0314 0.055,-0.0822 0.055,-0.12248 v -0.0196 c 10e-4,0 0.017,0.006 0.034,0.0145 0.036,0.016 0.088,0.0183 0.1291,0.007 0.037,-0.0103 0.077,-0.0345 0.2011,-0.12144 0.1394,-0.098 0.1561,-0.10666 0.2041,-0.11266 0.054,-0.007 0.1017,-0.0248 0.1437,-0.0568 0.07,-0.0526 0.085,-0.0581 0.171,-0.0579 z m -0.4036,0.2775 c 0.055,-0.0103 0.1356,0.0366 0.1736,0.10077 0.032,0.0559 0.059,0.16217 0.043,0.17777 0,0.004 -0.01,0.001 -0.035,-0.0775 -0.029,-0.08 -0.059,-0.10455 -0.1313,-0.10955 -0.04,-0.002 -0.053,-1.3e-4 -0.064,0.0114 -0.015,0.0147 -0.01,0.026 0.042,0.10593 0.025,0.0372 0.049,0.0846 0.06,0.10542 0.022,0.0414 0.025,0.088 0.011,0.10077 v 0 c -0.011,0.0126 -0.02,0.01 -0.043,-0.0139 -0.073,-0.0771 -0.1311,-0.18913 -0.1421,-0.25373 -0.01,-0.0698 0.035,-0.13708 0.091,-0.14728 z m 0.633,0.10542 c 10e-4,0 0.022,0.0283 0.045,0.0625 0.08,0.11917 0.1314,0.23998 0.1514,0.35915 0.011,0.0594 0.022,0.15667 0.011,0.18397 0,0.0114 -0.087,0.0487 -0.4393,0.19534 l -0.4356,0.18086 v 0.0481 c 0,0.0264 0.014,0.71812 0.03,1.53686 l 0.028,1.4888 -0.026,0.1974 c -0.044,0.33614 -0.073,0.52233 -0.108,0.69453 -0.067,0.33456 -0.2725,1.23641 -0.3555,1.56477 -0.2396,0.93965 -0.2827,1.12395 -0.2997,1.27072 -0.034,0.29313 -0.056,0.56912 -0.067,0.76843 -0.01,0.21957 -0.047,0.45168 -0.1188,0.74207 -0.052,0.21154 -0.1108,0.39572 -0.1778,0.56482 -0.066,0.16475 -0.2921,0.67663 -0.556,1.26039 l -0.1546,0.34158 -0.1493,0.42582 c -0.082,0.23406 -0.1487,0.43843 -0.1597,0.45423 l -0.013,0.0289 -0.044,-5.1e-4 c -0.065,-0.001 -0.8708,-0.0471 -0.8708,-0.0491 0,-0.003 0.1099,-0.33142 0.1669,-0.48731 0.065,-0.17677 0.1519,-0.39339 0.2109,-0.52399 0.082,-0.18032 0.3113,-0.61672 0.6583,-1.25161 0.1627,-0.29697 0.1938,-0.36873 0.2718,-0.6072 0.082,-0.25497 0.1244,-0.42877 0.1804,-0.76016 0.086,-0.50781 0.1497,-0.84114 0.3173,-1.66966 0.1109,-0.54861 0.1261,-0.61364 0.2201,-0.97307 0.2266,-0.87081 0.2644,-1.0251 0.2904,-1.19734 0.07,-0.43001 0.083,-0.74089 0.059,-0.97565 -0.018,-0.19025 -0.05,-0.63487 -0.068,-0.98702 -0.024,-0.3872 -0.022,-1.21212 0,-1.38235 0.01,-0.0452 0.014,-0.0699 0.054,-0.15193 0.112,-0.23146 0.114,-0.31941 0.014,-0.48989 -0.019,-0.0298 -0.054,-0.0806 -0.08,-0.11317 l -0.048,-0.0594 0.099,-0.0641 c 0.053,-0.0352 0.1023,-0.0641 0.1023,-0.0641 0.012,0 0.1086,0.0818 0.1566,0.13178 0.062,0.0643 0.095,0.1168 0.1142,0.1757 0.013,0.0401 0.028,0.18363 0.028,0.27233 0,0.0482 0,0.0488 0.051,0.0258 0.091,-0.0428 0.1263,-0.1126 0.1023,-0.2067 -0.017,-0.0654 -0.066,-0.1754 -0.1261,-0.28422 -0.03,-0.0539 -0.053,-0.10834 -0.064,-0.12144 -0.012,-0.0312 -0.036,-0.12878 -0.036,-0.13178 0,-0.002 0.027,0.003 0.056,0.01 0.155,0.037 0.3369,0.0431 0.4289,0.0139 0.091,-0.0289 0.2245,-0.13197 0.4165,-0.32039 0.072,-0.0697 0.1333,-0.12661 0.1333,-0.12661 z m 3.4613,0.61185 c -0.062,-6.4e-4 -0.1219,0.002 -0.1514,0.009 -0.079,0.0181 -0.1425,0.0821 -0.2015,0.2005 -0.059,0.11935 -0.083,0.22623 -0.083,0.37207 -7e-4,0.25229 0.096,0.48692 0.3106,0.75654 0.077,0.0974 0.3133,0.33283 0.4247,0.42323 0.048,0.0393 0.087,0.0745 0.098,0.0775 0.01,0.003 -0.029,-0.0322 -0.077,-0.0786 -0.1505,-0.1456 -0.2741,-0.31359 -0.3741,-0.51005 -0.089,-0.17572 -0.1436,-0.33479 -0.1716,-0.49661 -0.016,-0.0741 -0.014,-0.22912 0,-0.28732 0.042,-0.17217 0.1508,-0.25228 0.3597,-0.26458 0.1873,-0.011 0.378,0.0617 0.5519,0.21032 0.028,0.0247 0.051,0.0515 0.062,0.0605 0.017,0.0262 0.1001,0.21609 0.1411,0.32298 0.067,0.17569 0.099,0.32146 0.1101,0.4346 0.01,0.12489 -0.016,0.17753 -0.098,0.22583 -0.099,0.0586 -0.2053,0.0636 -0.3256,0.015 -0.1292,-0.0522 -0.3411,-0.22187 -0.4351,-0.34881 -0.1701,-0.22981 -0.166,-0.47656 0.011,-0.57206 0.039,-0.021 0.047,-0.0227 0.1034,-0.0227 0.056,0 0.065,0.002 0.1127,0.0243 0.1,0.0481 0.1819,0.14772 0.1819,0.22272 0,0.0346 -0.011,0.0504 -0.031,0.0424 -0.01,-0.003 -0.044,-0.025 -0.081,-0.0501 -0.077,-0.0523 -0.1181,-0.0662 -0.1581,-0.0543 -0.079,0.0233 -0.083,0.11902 -0.011,0.25063 0.1097,0.2011 0.4215,0.43408 0.5354,0.39998 0.072,-0.0208 0.098,-0.10542 0.072,-0.21549 -0.023,-0.098 -0.1079,-0.28733 -0.1989,-0.44442 -0.083,-0.14234 -0.1829,-0.24614 -0.2863,-0.29714 -0.1559,-0.077 -0.2881,-0.0644 -0.3881,0.0367 -0.096,0.0967 -0.138,0.23374 -0.123,0.39791 0.02,0.20876 0.098,0.35535 0.2998,0.56121 0.2136,0.21803 0.5016,0.40213 0.7152,0.45733 v -0.001 c 0.1137,0.0293 0.1727,0.0213 0.2227,-0.0305 0.025,-0.0259 0.036,-0.0441 0.051,-0.0889 0.018,-0.054 0.018,-0.0616 0.018,-0.18811 0,-0.11411 0,-0.14382 -0.018,-0.22272 -0.051,-0.26059 -0.1602,-0.54508 -0.3018,-0.78445 -0.1792,-0.30278 -0.4029,-0.47053 -0.707,-0.53123 -0.037,-0.007 -0.1016,-0.0112 -0.1638,-0.0119 z m 0.8946,0.0548 c -0.024,-1.9e-4 -0.048,0.008 -0.073,0.0238 -0.065,0.0395 -0.055,0.14365 0.017,0.18965 v 0 c 0.024,0.0168 0.035,0.019 0.061,0.017 0.053,-0.005 0.092,-0.0447 0.1033,-0.10748 0.01,-0.0312 -0.014,-0.0789 -0.041,-0.0982 -0.023,-0.016 -0.045,-0.0246 -0.069,-0.0248 z m -5.8726,0.0532 0.019,0.0233 c 0.034,0.0406 0.1113,0.15865 0.1333,0.20515 0.011,0.0246 0.028,0.0624 0.028,0.0837 0.01,0.0496 0,0.10123 -0.064,0.2651 -0.024,0.065 -0.048,0.14228 -0.059,0.17208 l -0.016,0.0543 v 0.82424 0.82476 l 0.025,0.23978 c 0.064,0.61547 0.065,0.70276 0.011,1.12913 -0.038,0.30758 -0.08,0.53934 -0.1282,0.71623 -0.032,0.11878 -0.1281,0.51421 -0.263,1.08159 -0.071,0.30038 -0.1285,0.56485 -0.1985,0.91571 -0.1372,0.6886 -0.153,0.77828 -0.2609,1.42627 -0.1079,0.64846 -0.091,0.57743 -0.2073,0.83457 -0.08,0.17682 -0.2827,0.58259 -0.3307,0.66249 -0.064,0.10667 -0.1746,0.31826 -0.4124,0.79168 -0.2353,0.46874 -0.2531,0.50969 -0.3984,0.89814 -0.1077,0.28822 -0.1219,0.33613 -0.1969,0.67593 h 5e-4 c -0.04,0.17658 -0.084,0.3791 -0.1,0.4501 l -0.028,0.12919 -0.064,-0.0232 c -0.035,-0.0128 -0.066,-0.0242 -0.066,-0.0248 0,-8.9e-4 0.029,-0.13531 0.068,-0.29869 0.1053,-0.44693 0.2185,-0.86792 0.2935,-1.08469 0.065,-0.18974 0.5375,-1.18007 0.6398,-1.34152 0.1477,-0.2326 0.5835,-1.11428 0.6485,-1.31103 0.042,-0.12643 0.074,-0.30007 0.1385,-0.73018 0.051,-0.34391 0.051,-0.35154 0.07,-0.63201 0.02,-0.30303 0.037,-0.47017 0.061,-0.58808 0.017,-0.0813 0.027,-0.11194 0.081,-0.25993 0.056,-0.15217 0.1405,-0.47658 0.2734,-1.0511 0.041,-0.17658 0.091,-0.39364 0.1111,-0.48214 0.069,-0.29638 0.1423,-0.69373 0.1803,-0.97462 0.016,-0.0915 0.016,-0.14781 0.016,-0.27698 0,-0.18122 0,-0.25022 -0.044,-0.51366 -0.051,-0.31552 -0.051,-0.3159 -0.051,-0.5948 0,-0.33866 0.01,-1.10244 0.022,-1.2299 0.023,-0.21926 0.048,-0.31846 0.107,-0.43667 0.047,-0.0862 0.058,-0.14782 0.047,-0.20412 -0.015,-0.075 -0.063,-0.16033 -0.1483,-0.26768 -0.019,-0.0238 -0.03,-0.0461 -0.03,-0.0481 0,-0.002 0.024,-0.0101 0.048,-0.0171 z m -0.1674,0.0326 0.024,0.0274 c 0.072,0.0849 0.1426,0.18994 0.1566,0.23564 0.015,0.0501 -0.01,0.0875 -0.085,0.12454 l -0.05,0.0243 -0.2558,-0.008 c -0.3247,-0.01 -0.3209,-0.009 -0.3359,-0.0341 -0.02,-0.0343 -0.081,-0.0946 -0.1116,-0.11317 -0.027,-0.016 -0.038,-0.0175 -0.082,-0.0165 -0.1045,0.003 -0.3417,0.0368 -0.4428,0.063 l -0.054,0.0139 -0.078,0.0786 c -0.043,0.0432 -0.1411,0.1486 -0.2191,0.2341 -0.078,0.0855 -0.1453,0.15661 -0.1453,0.15761 0,0.001 -0.013,-0.0295 -0.024,-0.0677 -0.027,-0.095 -0.065,-0.1972 -0.082,-0.2191 -0.013,-0.0144 -0.019,-0.017 -0.032,-0.014 -0.022,0.006 -0.1161,0.0675 -0.2217,0.14676 v 5.2e-4 c -0.047,0.0347 -0.1483,0.11273 -0.2263,0.17363 -0.1518,0.11802 -0.1424,0.1058 0.054,-0.0718 0.185,-0.16705 0.3322,-0.28592 0.4667,-0.37672 0.094,-0.0638 0.1941,-0.11495 0.2341,-0.12195 0.014,-0.002 0.028,-0.007 0.028,-0.009 0,-0.003 -0.079,-0.0269 -0.1793,-0.0543 -0.1,-0.0274 -0.1799,-0.0507 -0.1799,-0.0517 10e-4,-0.001 0.1282,0.0196 0.2822,0.046 l 0.2801,0.0475 0.385,-0.0165 0.3855,-0.0165 0.2532,-0.0915 z m 3.852,0.11317 c 0.01,0.0132 0.2408,0.67815 0.3338,0.95602 0.1214,0.36089 0.2367,0.72879 0.2367,0.75499 l 5e-4,5.2e-4 c 0,0.003 -0.038,0.005 -0.083,0.005 h -0.083 l -0.2661,-0.83664 c -0.1463,-0.46003 -0.2667,-0.83932 -0.2667,-0.84232 -9e-4,-0.008 0.1172,-0.0447 0.1282,-0.0377 z m 2.3109,0.0827 c 0,0.002 0.072,0.1372 0.1639,0.30128 0.092,0.16407 0.17,0.29445 0.17,0.29145 0,-0.0106 -0.018,-0.1038 -0.041,-0.1757 -0.041,-0.12888 -0.1065,-0.24521 -0.1845,-0.33021 -0.038,-0.0417 -0.097,-0.0928 -0.108,-0.0868 z m -1.8293,0.56793 c -0.062,0.007 -0.099,0.0461 -0.1101,0.1173 -0.01,0.0585 0.042,0.12248 0.1184,0.14728 h 5e-4 c 0.068,0.0219 0.1454,-0.0184 0.1684,-0.0868 0.012,-0.0374 -8e-4,-0.0738 -0.043,-0.11473 -0.049,-0.0481 -0.091,-0.068 -0.1344,-0.063 z m 2.3001,0.0925 c -0.037,0 -0.057,0.008 -0.085,0.0377 -0.025,0.0264 -0.051,0.0851 -0.051,0.11679 0,0.0538 0.053,0.13635 0.097,0.14935 h -0.01 c 0.069,0.0203 0.1398,-0.0287 0.1638,-0.11162 0.014,-0.0317 0.014,-0.0371 0,-0.0744 -0.027,-0.0795 -0.066,-0.11776 -0.1194,-0.11782 z m -8.3111,0.0522 c 0.01,-0.007 0.037,0.12108 0.052,0.21808 0.022,0.11712 0.02,0.38201 0,0.51056 -0.033,0.21212 -0.068,0.31124 -0.1432,0.40514 -0.037,0.0467 -0.1139,0.12252 -0.1689,0.16692 v 0 c -0.07,0.0564 -0.07,0.0563 -0.048,0.0139 0.06,-0.11892 0.1924,-0.67652 0.2914,-1.22473 0.01,-0.0465 0.02,-0.0869 0.02,-0.0899 z m 8.3979,0.29714 c 0,-0.004 0,-0.003 -0.016,0.002 -0.017,0.0142 -0.07,0.0282 -0.087,0.0212 -0.013,-0.005 -0.013,-0.004 -0.013,0.0176 0.01,0.039 -0.012,0.27087 -0.026,0.35347 -0.02,0.12267 -0.052,0.23543 -0.1007,0.35863 l -0.015,0.0372 0.04,-0.0382 c 0.047,-0.0455 0.087,-0.0667 0.1235,-0.0667 0.06,0 0.1094,0.0411 0.1534,0.12558 h 0.01 c 0.02,0.0483 0.02,0.0497 0.031,0.032 0.01,-0.0331 0,-0.27572 -0.011,-0.38034 -0.018,-0.16506 -0.071,-0.44739 -0.085,-0.46199 z m -8.8005,0.39791 c 0,0.005 -0.073,0.17336 -0.1044,0.22686 -0.018,0.0304 -0.048,0.0716 -0.066,0.0915 -0.027,0.0299 -0.04,0.0377 -0.076,0.0491 -0.065,0.02 -0.1673,0.0328 -0.3173,0.0408 l -10e-4,0.001 c -0.1468,0.008 -0.1502,0.008 -0.2945,0 -0.2286,-0.0121 -0.3256,-0.0456 -0.4166,-0.14418 -0.039,-0.0433 -0.072,-0.0919 -0.054,-0.0817 0.01,0.003 0.05,0.0336 0.1013,0.0677 0.05,0.0341 0.1027,0.0647 0.1147,0.0667 0.046,0.009 0.4,0.0111 0.5199,0.003 0.173,-0.0117 0.2298,-0.0214 0.2868,-0.0496 0.063,-0.0311 0.1643,-0.11712 0.2423,-0.20412 0.034,-0.0382 0.065,-0.0682 0.065,-0.0672 z m -3.3781,0.73691 c 0,-0.001 0.035,0.0259 0.074,0.0615 0.4979,0.45413 0.9644,0.76036 1.2852,0.84336 0.2191,0.0566 0.6182,0.0567 0.938,5.2e-4 0.075,-0.0139 0.081,-0.0129 0.027,0.003 -0.205,0.0605 -0.5155,0.10985 -0.7437,0.11885 l -0.1111,0.005 -0.078,0.0687 c -0.3187,0.2816 -0.6954,0.56202 -1.0242,0.76326 l 5e-4,0.001 c -0.1523,0.0924 -0.1525,0.0924 -0.1525,0.0894 0,-0.002 0.2605,-0.2106 0.5783,-0.46406 0.3179,-0.25347 0.5741,-0.46415 0.5741,-0.46715 0,-0.005 -0.011,-0.007 -0.011,-0.007 -0.01,0 -0.038,-0.0126 -0.073,-0.0279 -0.5566,-0.23674 -0.998,-0.54548 -1.1968,-0.83716 -0.043,-0.0627 -0.087,-0.14692 -0.087,-0.15192 z m 8.4796,0.092 c -0.018,-0.004 -0.2045,0.0249 -0.2795,0.0429 -0.2398,0.0571 -0.315,0.14466 -0.293,0.34055 0.027,0.24532 0.152,0.68454 0.4346,1.53324 h -0.01 c 0.064,0.19061 0.1178,0.34516 0.1178,0.34416 10e-4,-0.001 10e-5,-0.0284 -0.011,-0.0599 -0.027,-0.11476 -0.052,-0.31979 -0.067,-0.54932 -0.014,-0.2715 -0.025,-0.40168 -0.025,-0.9431 v -0.57774 l 0.071,-0.0641 c 0.047,-0.0455 0.069,-0.0647 0.058,-0.0667 z m -7.8904,0.17983 0.048,0.0217 c 0.5458,0.24688 1.1289,0.41211 1.5126,0.42891 0.045,0.001 0.096,0.006 0.1126,0.008 l 0.031,0.005 -0.04,0.005 v -0.001 c -0.066,0.008 -0.4327,0.0132 -0.5137,0.006 -0.2378,-0.0198 -0.4581,-0.0665 -0.6278,-0.13281 -0.1876,-0.0733 -0.3761,-0.19134 -0.4874,-0.30593 z m 1.7399,0.45682 c 0,-0.002 0.01,-0.002 0.017,0 h 0.01 c 10e-4,0.002 2e-4,0.003 -0.011,0.003 -0.011,0 -0.022,-5.9e-4 -0.011,-0.003 z m 5.2576,0.0909 c -0.011,-0.002 -0.011,0.10951 0,0.26562 0.011,0.0836 0.011,0.20699 0.011,0.27389 0,0.0931 0,0.1442 0.014,0.2191 0.046,0.3114 0.1515,0.68229 0.2465,0.87179 0.013,0.0254 0.054,0.0962 0.089,0.15709 0.086,0.14636 0.1273,0.22649 0.1493,0.29249 0.018,0.0516 0.018,0.0615 0.018,0.18655 0,0.10615 0,0.18464 -0.028,0.40515 -0.033,0.38232 -0.044,0.45409 -0.044,0.64233 -5e-4,0.22089 0,0.2345 0.1147,0.58653 0.1082,0.33927 0.1312,0.45357 0.1312,0.65784 0,0.13396 -0.011,0.2767 -0.038,0.50591 -0.016,0.14378 -0.064,0.49032 -0.075,0.53692 0,0.0222 -0.012,0.002 -0.1085,-0.24804 -0.1151,-0.29962 -0.286,-0.72876 -0.3928,-0.98496 -0.077,-0.1858 -0.099,-0.25033 -0.1488,-0.43718 -0.044,-0.16943 -0.05,-0.20932 -0.061,-0.36639 -0.01,-0.14275 0,-0.39788 0.016,-0.59893 0,-0.0558 0.014,-0.12101 0.014,-0.14521 v -0.0439 l -0.017,0.0269 c -0.057,0.0869 -0.1552,0.3146 -0.2222,0.51728 -0.097,0.29275 -0.1371,0.45383 -0.1871,0.75241 -0.06,0.35941 -0.1051,0.60793 -0.1421,0.7984 -0.036,0.17881 -0.065,0.35017 -0.1416,0.82372 -0.025,0.1605 -0.047,0.30857 -0.058,0.32867 -0.016,0.0557 -0.064,0.146 -0.1116,0.2098 -0.04,0.0543 -0.1062,0.12474 -0.2119,0.22324 -0.11,0.10301 -0.2696,0.35991 -0.4408,0.70952 -0.1563,0.31941 -0.1715,0.34923 -0.2145,0.41703 -0.072,0.11382 -0.138,0.19652 -0.234,0.29352 -0.1024,0.10232 -0.1235,0.1355 -0.1515,0.231 -0.019,0.0625 -0.03,0.18399 -0.03,0.23409 10e-4,0.0264 0.01,0.0301 0.023,0.0351 0.082,0.0223 0.4027,0.0233 0.6253,0.002 0.2664,-0.0254 0.3753,-0.0555 0.6883,-0.18862 0.2632,-0.11147 0.2553,-0.11034 0.5029,-0.11834 0.3476,-0.0116 0.7493,-0.0207 0.9549,-0.0207 0.1693,0 0.2034,0.002 0.2434,0.0124 0.086,0.023 0.1907,0.0705 0.3545,0.16175 0.099,0.0552 0.3163,0.1913 0.3163,0.1943 0,0.001 -0.2027,-0.0479 -0.448,-0.10904 -0.6198,-0.1544 -0.6225,-0.15464 -1.0005,-0.15451 -0.3344,1e-4 -0.4163,0.009 -0.6491,0.0713 -0.2662,0.0711 -0.5992,0.17388 -0.787,0.24288 -0.1802,0.0658 -0.2099,0.0709 -0.4496,0.0708 -0.194,-2e-4 -0.2408,-0.003 -0.4155,-0.0274 l -0.031,-0.005 -0.1069,0.32711 c -0.1271,0.38883 -0.1364,0.41456 -0.2532,0.71778 -0.054,0.14006 -0.085,0.23885 -0.085,0.24185 0.01,0.01 0.094,0.0246 0.1783,0.0326 0.2115,0.0186 0.7701,-7.1e-4 0.9834,-0.0341 0.023,-0.004 0.1815,-0.0461 0.3519,-0.0946 0.3932,-0.11179 0.6137,-0.16997 0.7421,-0.19637 0.095,-0.0189 0.1085,-0.02 0.1995,-0.017 0.2359,0.009 0.7109,0.10602 1.2299,0.25063 0.1944,0.0542 0.2802,0.0737 0.418,0.0951 0.2149,0.0334 0.3956,0.0494 0.6434,0.0574 v 0.001 c 0.091,0.002 0.1784,0.003 0.1954,0.002 0.016,-10e-4 0.042,-0.002 0.059,-0.002 h 0.03 v -0.12764 c 0,-0.0763 -0.011,-0.1303 -0.011,-0.1323 0,-0.002 -0.035,-0.008 -0.07,-0.0134 -0.1561,-0.0234 -0.3504,-0.0877 -0.5694,-0.18759 l -0.09,-0.0408 v -0.24753 c 0.01,-0.86327 0.019,-2.2794 0.019,-2.82619 v -0.61805 l -0.062,-0.1049 c -0.082,-0.14121 -0.2077,-0.38744 -0.2367,-0.46664 -0.039,-0.0971 -0.042,-0.14185 -0.028,-0.19585 0.029,-0.11379 0.1721,-0.35487 0.3586,-0.60461 0.031,-0.0421 0.057,-0.0786 0.057,-0.0806 0,-0.002 -0.038,-0.0592 -0.086,-0.12712 -0.1738,-0.24984 -0.3234,-0.48501 -0.3824,-0.60255 -0.022,-0.0539 -0.033,-0.074 -0.033,-0.0987 0,-0.0176 0.018,-0.0862 0.042,-0.15917 0.122,-0.37914 0.13,-0.59178 0.029,-0.79788 -0.013,-0.0264 -0.033,-0.0586 -0.044,-0.0713 l -0.019,-0.0227 -0.015,0.0191 c -0.01,0.0108 -0.041,0.0549 -0.074,0.0982 -0.101,0.13611 -0.1433,0.16964 -0.2103,0.1695 -0.063,-1.1e-4 -0.1405,-0.0472 -0.1685,-0.10387 -0.027,-0.0522 -0.01,-0.11391 0.075,-0.24339 0.018,-0.0295 0.043,-0.0758 0.054,-0.10284 0.04,-0.0958 0.1012,-0.33953 0.1012,-0.40153 0,-0.0593 -0.1326,-0.30307 -0.3312,-0.60823 -0.039,-0.0613 -0.094,-0.1514 -0.1214,-0.2005 -0.092,-0.16799 -0.2351,-0.48301 -0.3752,-0.82217 -0.038,-0.0922 -0.075,-0.16836 -0.075,-0.16899 z m -4.9987,0.14573 c 0.02,-0.005 0.01,0.005 -0.3519,0.35657 -1.0036,0.97605 -1.6929,1.61771 -1.9601,1.82469 l 10e-4,5.2e-4 c -0.068,0.0536 -0.094,0.0705 -0.094,0.0625 2e-4,-0.003 0.3126,-0.47698 0.6945,-1.05317 l 0.6945,-1.04748 0.036,-0.006 c 0.02,-0.003 0.1378,-0.0163 0.2604,-0.0294 0.3132,-0.0338 0.5881,-0.0748 0.7199,-0.10801 z m -0.369,0.66198 0.011,0.0377 c 0.019,0.15369 0.033,1.29828 0.019,1.51412 -0.01,0.14806 -0.011,0.1538 -0.1152,0.61443 -0.1143,0.50433 -0.1689,0.75616 -0.2269,1.04542 -0.074,0.36875 -0.08,0.44293 -0.091,0.64182 -0.01,0.17746 -0.01,0.19818 -0.024,0.37207 l -0.011,0.108 -0.044,0.0403 c -0.2069,0.18608 -0.4016,0.40135 -0.5095,0.56482 h -0.01 c -0.026,0.039 -0.057,0.0919 -0.07,0.11783 l -0.023,0.0475 v -0.95653 c 0,-1.02319 0,-1.18174 0.038,-1.62213 0.021,-0.27165 0.047,-0.46498 0.087,-0.62166 0.054,-0.21505 0.1028,-0.56411 0.1488,-1.06454 0.01,-0.10404 0.023,-0.19182 0.023,-0.19482 0,-0.003 0.1834,-0.14932 0.4005,-0.32504 z m 7.1221,0.10645 -0.016,0.015 c -0.024,0.0219 -0.1559,0.19826 -0.3044,0.40566 -0.1969,0.27485 -0.4584,0.64092 -0.4584,0.65112 0,0.006 -10e-5,0.009 0.011,0.009 0.022,0 0.1065,0.0504 0.1395,0.0827 0.02,0.0194 0.042,0.0534 0.057,0.0837 l 0.017,0.0512 0.2304,-0.28939 c 0.1267,-0.15907 0.2553,-0.32118 0.2863,-0.36018 l 0.056,-0.0708 -0.04,-0.0181 c -0.061,-0.0263 -0.072,-0.0622 -0.061,-0.1447 0.01,-0.0673 0.018,-0.0737 0.1002,-0.0667 0.034,0.002 0.086,0.001 0.1137,-5.2e-4 0.049,-0.005 0.051,-0.005 0.067,-0.0305 0.01,-0.0143 0.02,-0.0448 0.031,-0.0677 0.022,-0.0342 0.022,-0.0459 0.011,-0.0641 -0.014,-0.041 -0.1227,-0.13108 -0.2047,-0.16898 z m 1.5926,0.0806 c 0,0.005 -0.05,0.20318 -0.061,0.20618 0,9.1e-4 -0.1814,0.0524 -0.401,0.11421 h 0.01 c -0.2197,0.0618 -0.4041,0.11214 -0.4041,0.11214 -0.011,0 -0.011,-0.003 -0.011,-0.005 0,-0.01 0.053,-0.17432 0.053,-0.17932 0.01,-0.009 0.817,-0.25456 0.817,-0.24856 z m 1.3354,0.20773 c -0.022,-0.0103 -0.037,0.006 -0.07,0.0739 -0.062,0.12966 -0.1456,0.41319 -0.3199,1.08469 -0.036,0.13639 -0.075,0.27821 -0.089,0.31471 -0.091,0.2456 -0.2734,0.51153 -0.4759,0.69453 -0.039,0.0348 -0.2041,0.22339 -0.4641,0.52762 -0.2221,0.26009 -0.402,0.47725 -0.4134,0.48472 -0.01,0.0108 0.016,0.0119 0.4031,0.0119 0.384,0 0.4181,-9.4e-4 0.4821,-0.0134 0.2474,-0.0479 0.6198,-0.21812 0.9385,-0.42891 0.1364,-0.0903 0.2183,-0.15318 0.3033,-0.23668 0.1233,-0.11949 0.1503,-0.17746 0.1613,-0.29094 0,-0.0608 0,-0.0733 -0.015,-0.12195 -0.01,-0.0298 -0.033,-0.0799 -0.051,-0.11163 -0.082,-0.14184 -0.104,-0.19766 -0.093,-0.31057 0.01,-0.11738 0.023,-0.16671 0.1369,-0.39533 0.111,-0.22235 0.1187,-0.25656 0.1297,-0.32866 0,-0.0652 -0.012,-0.11895 -0.066,-0.23254 -0.1121,-0.23067 -0.4296,-0.69031 -0.4976,-0.72141 z m -10.9746,0.39636 c 0,0.001 -0.019,0.10195 -0.044,0.22428 -0.1254,0.5952 -0.2195,1.11518 -0.2465,1.36167 0,0.0643 -0.014,0.20892 -0.014,0.4899 0,0.21933 -0.011,0.65611 -0.011,0.97048 l -0.011,0.57154 0.038,0.4656 0.037,0.46561 -0.027,0.0372 c -0.015,0.0206 -0.075,0.10897 -0.1344,0.19637 -0.2746,0.40796 -0.4341,0.72581 -0.4811,0.95343 -0.011,0.0774 -0.012,0.12545 0,0.17415 l -0.01,-5.2e-4 c 0.011,0.0319 0.011,0.0354 0,0.0351 -0.017,-5.7e-4 -0.255,-0.0702 -0.383,-0.11214 -0.2162,-0.0708 -0.3378,-0.12302 -0.463,-0.19792 -0.118,-0.0707 -0.2915,-0.12965 -0.4832,-0.16485 -0.236,-0.0434 -0.3832,-0.10927 -0.4532,-0.20257 -0.1061,-0.1412 -0.2334,-0.41169 -0.2444,-0.51159 v -0.0372 l 0.3979,-0.66249 c 0.4063,-0.67614 0.5613,-0.93772 0.6563,-1.11156 0.063,-0.11476 0.3222,-0.61857 0.6806,-1.32137 0.1403,-0.27509 0.3054,-0.59838 0.3664,-0.7183 l 0.1116,-0.21808 0.3555,-0.34468 c 0.1956,-0.1894 0.3581,-0.3431 0.3581,-0.3421 z m 7.2595,0.46612 c -0.022,-0.004 -0.022,-0.004 -0.044,0.0408 -0.012,0.0247 -0.049,0.087 -0.082,0.13798 -0.089,0.13789 -0.1168,0.19753 -0.1168,0.25993 0,0.0343 0.012,0.055 0.039,0.0667 l -10e-4,5.2e-4 c 0.01,0.003 0.039,0.004 0.067,0.003 0.064,-0.003 0.074,-0.008 0.1348,-0.0853 0.059,-0.0734 0.1793,-0.23605 0.1793,-0.25115 0.01,-0.0188 -0.026,-0.0714 -0.061,-0.10748 -0.035,-0.0353 -0.078,-0.0581 -0.1148,-0.0651 z m -8.1757,0.35399 -0.028,0.0568 c -0.016,0.0311 -0.293,0.57664 -0.6165,1.21233 l -0.5886,1.156 -0.4392,0.72657 -0.01,5.2e-4 c -0.2414,0.39963 -0.4429,0.72922 -0.4429,0.73122 0,0.002 -0.014,-0.011 -0.028,-0.0294 -0.037,-0.0516 -0.1343,-0.14014 -0.1953,-0.17674 -0.065,-0.039 -0.1653,-0.0749 -0.2403,-0.0863 -0.043,-0.007 -0.085,-0.007 -0.2062,10e-4 -0.1608,0.009 -0.5039,0.01 -0.5359,0.001 -0.018,-0.005 0.01,-0.0356 1.0196,-1.11053 0.5712,-0.60774 1.1499,-1.21793 1.2862,-1.35547 0.2298,-0.23173 0.3657,-0.37783 0.4057,-0.43563 l 0.017,-0.0238 -0.02,0.0176 c -0.011,0.01 -0.3089,0.28208 -0.662,0.60565 -0.6837,0.6263 -0.6491,0.59279 -1.2511,1.22214 -0.6007,0.62821 -0.8164,0.86599 -0.8764,0.96687 -0.018,0.0294 -0.044,0.073 -0.059,0.0966 -0.016,0.0235 -0.024,0.0591 -0.035,0.0791 0,0.0324 0,0.0411 0.011,0.0786 0.013,0.0231 0.013,0.0434 0.013,0.0444 0,0.001 -0.1361,-0.0208 -0.3002,-0.0486 -0.2883,-0.0489 -0.2993,-0.0511 -0.3303,-0.0723 -0.086,-0.0584 -0.1338,-0.13408 -0.1338,-0.20878 0,-0.0363 0,-0.0525 0.023,-0.0915 0.02,-0.0393 0.04,-0.0636 0.125,-0.14832 0.1465,-0.14585 0.4138,-0.37357 0.8082,-0.68729 0.3774,-0.30024 0.5612,-0.43888 1.7338,-1.31 0.5943,-0.44149 0.8062,-0.60658 1.4485,-1.12758 z m 12.5688,1.11363 c 0,-2.5e-4 -0.01,0.003 -0.012,0.009 -0.022,0.013 -0.022,0.0676 -0.011,0.10335 0,0.0148 0.01,0.0225 0.025,0.0295 0.057,0.0233 0.1327,0.13389 0.1437,0.20309 0.011,0.0838 -0.058,0.0882 -0.1716,0.0103 -0.016,-0.0107 -0.035,-0.0186 -0.035,-0.0176 0,0.001 -0.2196,0.2119 -0.4811,0.46871 -0.3744,0.36783 -0.5735,0.5564 -0.9369,0.88832 -0.2537,0.23174 -0.4594,0.42259 -0.4594,0.42323 8e-4,9e-4 0.055,-0.005 0.1199,-0.0145 0.4548,-0.0612 0.802,-0.0851 0.896,-0.0605 0.095,0.0246 0.3078,0.13131 0.6599,0.32918 0.065,0.037 0.1204,0.0683 0.1204,0.0693 0,10e-4 -0.045,-0.0197 -0.097,-0.0465 -0.1471,-0.0746 -0.3521,-0.14479 -0.7106,-0.24339 l -0.1602,-0.0439 -0.3596,0.0367 -0.3597,0.0367 -0.9658,0.20929 c -0.5312,0.11522 -0.9721,0.21249 -0.9721,0.21549 v 0.0429 c 0,0.0321 0,0.0361 0.016,0.0341 0.01,-0.001 0.1445,-0.0357 0.3043,-0.0765 0.584,-0.14921 0.6876,-0.17285 1.0475,-0.23565 0.5756,-0.10054 1.0317,-0.16511 1.2165,-0.17311 0.139,-0.006 0.2501,0.0168 0.4775,0.0992 0.2344,0.0849 0.6621,0.27701 0.7581,0.33951 0.1143,0.0751 0.2428,0.21578 0.3018,0.33125 0.03,0.0577 0.034,0.0791 0.016,0.0791 -0.026,0 -0.1936,-0.10627 -0.3695,-0.23461 -0.093,-0.068 -0.1547,-0.10025 -0.5452,-0.28887 -0.233,-0.11251 -0.3978,-0.18854 -0.4728,-0.21704 -0.049,-0.0189 -0.054,-0.0194 -0.1762,-0.0191 -0.1792,4.7e-4 -0.4068,0.0271 -0.9607,0.11369 -0.1536,0.0239 -0.3222,0.0499 -0.3742,0.0579 -0.153,0.0231 -0.2777,0.0592 -0.464,0.13385 -0.1713,0.0687 -0.4463,0.2006 -0.646,0.30954 l -0.083,0.045 v 0.76791 0.75447 c 10e-4,-0.007 0.024,-0.22329 0.05,-0.47955 0.026,-0.25627 0.047,-0.48792 0.058,-0.51522 0.049,-0.23478 0.2073,-0.47384 0.4491,-0.67593 0.085,-0.0707 0.2073,-0.15661 0.2553,-0.17931 0.1323,-0.0625 0.6595,-0.11632 1.5999,-0.16382 0.3305,-0.0167 0.3516,-0.0154 0.5049,0.0341 0.2544,0.0823 0.6952,0.30591 0.9994,0.50694 0.15,0.099 0.1772,0.1323 0.1772,0.21239 -10e-4,0.0526 -0.021,0.107 -0.061,0.1664 -0.047,0.0694 -0.064,0.0812 -0.3426,0.25218 -0.2393,0.14669 -0.3637,0.23216 -0.4217,0.28836 l -0.05,0.0486 0.011,0.032 c 0.016,0.10918 0.1898,0.52436 0.4491,1.07642 0.033,0.0718 0.061,0.13285 0.061,0.13385 0,0.002 -0.031,-0.0216 -0.068,-0.0517 -0.037,-0.0301 -0.073,-0.058 -0.084,-0.061 -0.022,-0.008 -0.1323,-0.0183 -0.2894,-0.0264 -0.3367,-0.0167 -1.2433,-0.0348 -1.3353,-0.0258 -0.1575,0.0149 -0.5147,0.089 -0.8278,0.17156 -0.5124,0.13517 -0.877,0.27834 -1.0046,0.39378 -0.067,0.061 -0.077,0.0964 -0.039,0.17001 0.052,0.10454 0.1768,0.18413 0.3519,0.22583 0.077,0.0178 0.1813,0.0354 0.1923,0.0284 0,-0.003 0.026,-0.26933 0.026,-0.27233 0,-7e-4 -0.028,0.012 -0.061,0.0284 -0.072,0.0357 -0.1301,0.0469 -0.1891,0.0367 -0.05,-0.008 -0.098,-0.0368 -0.1147,-0.0692 -0.014,-0.0245 -0.014,-0.0247 0,-0.0393 0.037,-0.0407 0.1488,-0.0836 0.6552,-0.25167 0.4131,-0.1371 0.4698,-0.15243 0.6625,-0.17983 0.3227,-0.0458 1.0698,-0.0886 1.4092,-0.0796 0.3451,0.009 0.5765,0.045 0.7132,0.11214 0.1017,0.0501 0.1318,0.0897 0.1318,0.17466 0,0.0914 -0.046,0.16536 -0.138,0.22376 -0.035,0.0219 -0.084,0.0481 -0.095,0.0481 v -0.0434 c 0,-0.0384 9e-4,-0.0482 -0.017,-0.0873 -0.024,-0.0521 -0.086,-0.11578 -0.156,-0.16278 -0.074,-0.0492 -0.092,-0.0537 -0.1969,-0.0537 -0.078,0 -0.1014,0.003 -0.1654,0.0191 -0.115,0.0298 -0.2019,0.0638 -0.2129,0.0806 0,0.008 -0.01,0.12403 -0.02,0.25787 -0.01,0.13382 -0.018,0.26053 -0.018,0.28163 v 0.0388 l 0.047,0.002 v 0.002 c 0.073,0.005 0.3376,-0.001 0.4046,-0.009 0.3726,-0.0425 0.5817,-0.16001 0.6537,-0.36794 0.024,-0.0676 0.029,-0.13407 0.043,-0.54777 0.028,-0.74109 0.051,-1.09756 0.082,-1.22008 0.01,-0.0205 0.031,-0.10684 0.059,-0.19224 0.027,-0.0855 0.058,-0.19208 0.069,-0.23668 0.019,-0.076 0.019,-0.0907 0.019,-0.22996 0,-0.16371 -0.01,-0.20656 -0.051,-0.31936 -0.042,-0.10901 -0.1415,-0.23312 -0.2449,-0.30592 l -0.047,-0.0341 v -0.0687 c 0,-0.038 0.011,-0.16682 0.011,-0.28577 0.023,-0.8727 0.045,-1.7047 0.034,-1.83864 -0.01,-0.11806 -0.025,-0.19761 -0.064,-0.27751 -0.029,-0.0612 -0.078,-0.12244 -0.1199,-0.15244 -0.01,-0.007 -0.014,-0.0106 -0.018,-0.0109 z m -10.8025,4.5253 c 9e-4,-6.4e-4 0.097,-6.4e-4 0.2134,0 l 0.2114,0.002 -0.053,0.0708 c -0.1029,0.13665 -0.232,0.25794 -0.322,0.30024 v -0.001 c -0.019,0.009 -0.041,0.0192 -0.052,0.0212 l -0.017,0.005 0.011,-0.19792 c 0,-0.1089 0.011,-0.19936 0.011,-0.19999 z m 10.4728,0.76378 c -0.3171,-0.005 -1.6209,0.0379 -1.8082,0.0599 -0.1055,0.0124 -0.2954,0.0666 -0.6149,0.17467 -0.1802,0.0608 -0.5696,0.20012 -0.5876,0.21032 -0.01,0.004 0,0.008 0.014,0.0196 0.051,0.031 0.1464,0.0135 0.3158,-0.0579 0.011,-0.003 0.011,0.0358 0.011,0.18242 v 0.18655 l 0.3737,-0.003 c 0.5855,-0.007 0.8956,0.0142 1.0035,0.0661 0.065,0.0313 0.1104,0.0974 0.1344,0.19533 0.012,0.0453 0.012,0.0809 0.012,0.33435 10e-4,0.31632 0,0.32437 0.053,0.61857 0.044,0.27327 0.055,0.32125 0.055,0.46302 10e-4,0.10826 0,0.14059 -0.015,0.20619 -0.087,0.43265 -0.3014,0.99184 -0.4641,1.20819 -0.076,0.10156 -0.2055,0.17465 -0.4924,0.27802 -0.092,0.0332 -0.1194,0.0481 -0.1194,0.0656 0,0.0261 0.074,0.0693 0.3075,0.1788 0.3976,0.18642 0.4395,0.21217 0.4805,0.29197 0.027,0.0508 0.038,0.10259 0.038,0.18139 0,0.12802 -0.038,0.27672 -0.094,0.37052 -0.018,0.029 -0.078,0.119 -0.1338,0.2005 -0.1913,0.27948 -0.2404,0.3646 -0.2884,0.51005 -0.073,0.22153 -0.1535,0.60606 -0.1865,0.89607 -0.01,0.0672 -0.013,0.13854 -0.024,0.15864 -0.029,0.0986 -0.1071,0.19093 -0.2021,0.24133 -0.063,0.0327 -0.05,0.0386 0.028,0.0145 0.075,-0.023 0.1215,-0.0558 0.1695,-0.11782 0.078,-0.10174 0.1144,-0.22967 0.1334,-0.46716 0.01,-0.10653 0.014,-0.1295 0.031,-0.1757 0.035,-0.0892 0.1294,-0.23259 0.2134,-0.32349 l 0.031,-0.0341 -0.024,0.0439 c -0.041,0.0752 -0.1028,0.22251 -0.1348,0.31781 -0.037,0.11194 -0.062,0.21923 -0.076,0.33486 -0.015,0.11036 -0.031,0.17426 -0.065,0.23926 -0.047,0.0903 -0.1078,0.15109 -0.1928,0.19379 l -0.05,0.0217 0.05,-0.002 c 0.039,-0.002 0.058,-0.007 0.086,-0.0222 0.073,-0.0399 0.137,-0.13684 0.17,-0.25632 0.01,-0.0296 0.015,-0.0547 0.015,-0.0553 0,-7e-4 0.038,-0.01 0.086,-0.0186 0.2051,-0.0415 0.3229,-0.0984 0.3649,-0.17673 0.024,-0.043 0.036,-0.11224 0.047,-0.22582 0.014,-0.19067 0.039,-0.35203 0.094,-0.61185 0.018,-0.0855 0.04,-0.17839 0.04,-0.20619 0.024,-0.16733 0.078,-1.00069 0.089,-1.37201 0.01,-0.21596 0.014,-0.27462 0.082,-0.74673 0.038,-0.2626 0.1371,-0.90515 0.1891,-1.23351 0.018,-0.11711 0.049,-0.34524 0.067,-0.50695 0.098,-0.86003 0.1787,-1.49872 0.2067,-1.63142 0.01,-0.0254 0.013,-0.0549 0.024,-0.0651 0.045,-0.0627 0.2317,-0.0945 0.5591,-0.0946 0.1508,0 0.1797,0.008 0.2367,0.0651 0.04,0.04 0.082,0.1266 0.093,0.1757 0,0.0164 0.011,0.0311 0.011,0.0331 0,0.004 0.019,-0.0731 0.019,-0.11937 0,-0.0958 -0.051,-0.16614 -0.1395,-0.19534 -0.042,-0.0132 -0.063,-0.0166 -0.2222,-0.0186 z m -9.6103,0.45837 c 0,-0.005 0.09,0.024 0.1013,0.032 10e-4,0.001 -0.014,0.10396 -0.034,0.22841 l -0.035,0.22634 h -0.043 c -0.024,0 -0.043,-0.002 -0.043,-0.005 0,-0.003 0.012,-0.11125 0.027,-0.24081 0.015,-0.12957 0.027,-0.23781 0.027,-0.24081 z m -0.2243,0.87901 c 0.01,0 0.05,0.0958 0.061,0.13281 0.01,0.0405 0.01,0.0583 -0.011,0.078 -0.025,0.0288 -0.1022,0.007 -0.1322,-0.0377 -0.013,-0.021 -0.014,-0.0659 0,-0.0909 0.01,-0.0171 0.071,-0.0822 0.082,-0.0822 z m -1.109,0.74001 c -0.053,-0.006 -0.08,3.6e-4 -0.1198,0.0264 l -0.033,0.0217 h -0.093 c -0.09,2e-4 -0.094,7e-4 -0.107,0.0155 -0.011,0.0142 -0.011,0.018 0,0.047 0.021,0.0707 0.1076,0.16979 0.2046,0.23409 0.061,0.0407 0.1132,0.0638 0.2331,0.10491 0.2509,0.0859 0.3953,0.16298 0.5488,0.293 v 5.2e-4 c 0.038,0.0315 0.071,0.0559 0.071,0.0553 0,-8e-4 -0.01,-0.0255 -0.022,-0.0548 -0.079,-0.18498 -0.1637,-0.29781 -0.2507,-0.33641 -0.055,-0.0243 -0.1,-0.0717 -0.1906,-0.19792 -0.1213,-0.16991 -0.1558,-0.20129 -0.2378,-0.20929 z m 5.3899,0.88315 c -0.025,0 -0.8287,0.0694 -0.8677,0.0744 -0.056,0.008 -0.095,0.023 -0.1994,0.0775 -0.1246,0.0649 -0.4754,0.29057 -0.5834,0.37517 l -0.017,0.0129 0.024,5.2e-4 c 0.061,2e-4 0.42,-0.0452 0.5395,-0.0682 0.1425,-0.0274 0.404,-0.13508 0.9441,-0.38809 0.149,-0.0712 0.1772,-0.0842 0.1602,-0.0842 z m -6.6725,2.2965 c 0.028,0 0.1433,0.004 0.2569,0.007 1.1951,0.0382 2.0432,0.24679 2.406,0.59221 0.034,0.0322 0.065,0.0666 0.076,0.078 l 0.014,0.0202 -0.056,0.19534 10e-4,-0.001 c -0.03,0.10761 -0.06,0.1953 -0.06,0.19482 0,-5e-4 -0.044,-0.0249 -0.092,-0.0548 -0.199,-0.12301 -0.5999,-0.33339 -0.879,-0.46147 -0.5523,-0.25339 -1.0901,-0.43703 -1.5947,-0.54415 l -0.122,-0.0258 z m 9.4305,0.38654 c 0,-0.005 -0.011,0.002 -0.011,0.0284 0,0.0419 -0.025,0.10405 -0.053,0.17105 -0.019,0.0444 -0.081,0.16189 -0.1044,0.19689 v 0 c -0.018,0.0274 0,0.0174 0.047,-0.0248 0.055,-0.05 0.093,-0.10651 0.1137,-0.16691 0.016,-0.0371 0.016,-0.0598 0.016,-0.12144 0,-0.0464 2e-4,-0.0782 -0.011,-0.0832 z m 0.6929,0.56379 c -0.01,-0.006 -0.022,0.002 -0.051,0.0186 -0.1287,0.0721 -0.2086,0.15912 -0.2346,0.25322 -0.013,0.0505 -0.024,0.351 -0.013,0.57722 0.01,0.17794 0.01,0.17015 -0.044,0.22945 -0.014,0.0184 -0.028,0.0347 -0.028,0.0367 v 5.2e-4 c 0,0.0116 0.049,-0.0115 0.077,-0.0372 0.044,-0.0401 0.044,-0.0343 0.044,-0.29869 0,-0.22968 0.01,-0.32732 0.022,-0.37672 0,-0.0127 0.038,-0.0651 0.077,-0.11627 0.082,-0.10936 0.1185,-0.16916 0.1375,-0.22686 0.012,-0.0353 0.017,-0.0543 0.011,-0.0599 z m -0.6185,0.0718 c -0.011,-3.8e-4 -0.3201,0.15915 -0.3431,0.17725 -0.01,0.007 -0.016,0.0217 -0.027,0.0331 -0.014,0.0285 -0.034,0.1226 -0.047,0.22893 -0.035,0.29229 -0.043,0.32584 -0.091,0.38034 -0.022,0.0252 -0.1067,0.0724 -0.1297,0.0724 0,0 -0.013,0.004 -0.013,0.007 0,0.003 0.013,0.004 0.035,0.002 0.1217,-0.0125 0.1863,-0.0661 0.2243,-0.18397 0.01,-0.0285 0.029,-0.11472 0.044,-0.19172 0.03,-0.15048 0.056,-0.23158 0.091,-0.27698 0.047,-0.0537 0.036,-0.0566 0.036,0.18138 0,0.13763 0,0.22506 -0.012,0.24236 -0.011,0.0392 -0.058,0.0824 -0.093,0.0884 -0.04,0.006 -0.04,0.013 0,0.0139 0.065,0.002 0.1183,0.0502 0.1623,0.14728 h 0.011 c 0.013,0.0277 0.026,0.0491 0.026,0.0481 0,-0.001 -0.011,-0.13565 -0.011,-0.29869 -0.011,-0.16305 -0.011,-0.34341 -0.011,-0.40101 10e-4,-0.10459 0,-0.10468 0.025,-0.14728 0.024,-0.0439 0.067,-0.0882 0.109,-0.11007 0.015,-0.007 0.026,-0.0128 0.015,-0.0129 z m -6.828,0.11214 0.018,0.0119 c 0.033,0.0215 0.1849,0.13888 0.2749,0.21188 0.3976,0.32571 0.6772,0.63595 0.802,0.89038 h 5e-4 c 0.019,0.0391 0.033,0.0724 0.033,0.0734 0,10e-4 -0.023,-0.0241 -0.047,-0.0563 -0.2014,-0.26059 -0.4828,-0.56664 -0.6816,-0.74104 -0.1276,-0.11191 -0.2754,-0.21737 -0.3664,-0.26097 l -0.033,-0.0155 v -0.0568 z m 1.8474,0.74362 v 0.0202 c 0,0.0144 0.038,0.48562 0.081,1.04696 0.042,0.55065 0.079,1.00136 0.081,1.03921 a 18.492125,18.492126 0 0 0 0.9012,-0.0641 c -0.1559,-0.0831 -0.2884,-0.20875 -0.4031,-0.38499 -0.053,-0.0808 -0.1293,-0.24004 -0.1643,-0.34262 -0.015,-0.0504 -0.026,-0.0744 -0.026,-0.0584 0.027,0.18946 0.027,0.24311 0.027,0.40204 10e-4,0.18028 -0.01,0.22724 -0.031,0.27854 -0.016,0.0311 -0.047,0.0495 -0.066,0.0393 -0.082,-0.044 -0.2006,-0.57799 -0.3307,-1.49035 -0.019,-0.13011 -0.038,-0.29122 -0.049,-0.35812 -0.01,-0.0668 -0.02,-0.12464 -0.02,-0.12764 z m -2.4629,0.56431 c 0,-0.005 0.4009,0.26717 0.5395,0.36587 0.1856,0.13233 0.248,0.18416 0.3731,0.31212 0.1009,0.10295 0.2251,0.23741 0.2491,0.26821 v -5.2e-4 c 0.011,0.005 0.011,0.0121 0.011,0.0119 -0.01,-0.001 -1.234,-0.65739 -1.234,-0.65939 0,-0.001 0.1573,0.0509 0.3467,0.11576 0.1894,0.0648 0.3494,0.11727 0.3494,0.11627 0,-9.1e-4 -0.1377,-0.12011 -0.3127,-0.26458 -0.1748,-0.14446 -0.3178,-0.26362 -0.3178,-0.26562 z" />
    </g>
  </g>
</svg>
