<?xml version="1.0" encoding="UTF-8" standalone="no"?>
<!-- Created with Inkscape (http://www.inkscape.org/) -->

<svg
   width="41.008999mm"
   height="41.008999mm"
   viewBox="0 0 41.008999 41.008999"
   version="1.1"
   id="svg1"
   inkscape:version="1.4.2 (f4327f4, 2025-05-13)"
   sodipodi:docname="330.svg"
   xmlns:inkscape="http://www.inkscape.org/namespaces/inkscape"
   xmlns:sodipodi="http://sodipodi.sourceforge.net/DTD/sodipodi-0.dtd"
   xmlns="http://www.w3.org/2000/svg"
   xmlns:svg="http://www.w3.org/2000/svg">
  <sodipodi:namedview
     id="namedview1"
     pagecolor="#ffffff"
     bordercolor="#000000"
     borderopacity="0.25"
     inkscape:showpageshadow="2"
     inkscape:pageopacity="0.0"
     inkscape:pagecheckerboard="0"
     inkscape:deskcolor="#d1d1d1"
     inkscape:document-units="mm"
     inkscape:zoom="1.4513545"
     inkscape:cx="86.470947"
     inkscape:cy="71.657199"
     inkscape:window-width="1050"
     inkscape:window-height="1081"
     inkscape:window-x="857"
     inkscape:window-y="0"
     inkscape:window-maximized="0"
     inkscape:current-layer="layer1" />
  <defs
     id="defs1" />
  <g
     inkscape:label="Layer 1"
     inkscape:groupmode="layer"
     id="layer1"
     transform="translate(333.37504,1257.5646)">
    <g
       id="g92"
       transform="translate(-1331.8381,-1132.1016)">
      <path
         style="fill:#000000;stroke-width:0.703987"
         d="m 1015.8047,-86.610177 c -7.4152,-1.412217 -13.1268,-6.769107 -14.9391,-14.010753 -0.5865,-2.34401 -0.5865,-6.35174 0,-8.69576 1.7683,-7.06658 7.2433,-12.33751 14.4705,-13.93141 1.687,-0.37202 5.8353,-0.32453 7.6063,0.0871 6.9627,1.61827 12.4026,6.94035 14.1196,13.81385 0.597,2.39002 0.597,6.3667 0,8.75673 -1.7124,6.855189 -7.0533,12.11522 -13.9979,13.785961 -1.7436,0.419436 -5.5434,0.521147 -7.2594,0.194302 z m -0.025,-7.110767 c 0.1227,-0.269418 0.1787,-0.534188 0.1245,-0.588373 -0.1229,-0.122977 0.2583,-0.598585 0.4797,-0.598585 0.09,0 0.1635,0.136033 0.1635,0.302288 0,0.247568 0.05,0.260299 0.2793,0.07035 0.401,-0.332997 0.3507,-0.522949 -0.2793,-1.053313 -0.6017,-0.506535 -0.714,-0.809817 -0.2997,-0.809817 0.3483,0 3.4476,-2.06208 3.9914,-2.655502 0.2381,-0.259883 0.362,-0.516429 0.2752,-0.570095 -0.1281,-0.07922 -3.0792,-0.686969 -3.3358,-0.686969 -0.039,0 -0.073,-0.089 -0.073,-0.19774 0,-0.2199 1.0556,-0.11184 2.8863,0.29548 1.054,0.234515 1.1404,0.226952 1.5259,-0.13351 0.2246,-0.21017 0.6428,-0.92037 0.9292,-1.57823 0.3811,-0.87507 0.6337,-1.21904 0.9415,-1.28156 0.2314,-0.047 0.6144,-0.12497 0.8509,-0.17327 0.6979,-0.14249 1.6185,-1.59454 1.6172,-2.55104 0,-0.92757 -0.2996,-2.13895 -0.5679,-2.30481 -0.2922,-0.18074 -1.4619,0.64307 -1.7761,1.25102 -0.1582,0.30612 -0.3683,1.05741 -0.4668,1.66954 -0.098,0.61212 -0.3144,1.4512 -0.4796,1.86459 -0.2971,0.74259 -0.31,0.75025 -1.0709,0.63607 -0.4237,-0.0636 -1.7105,-0.12068 -2.8593,-0.12691 -1.9924,-0.0108 -2.6518,-0.20224 -1.6035,-0.4655 0.4882,-0.12258 3.7706,0.0443 4.758,0.24186 l 0.5291,0.10588 v -1.46721 c 0,-1.01609 -0.058,-1.3813 -0.1833,-1.18775 -0.099,0.15371 -0.1875,0.531 -0.196,0.83841 l -0.016,0.55894 -0.1974,-0.46578 c -0.7638,-1.80251 -1.3494,-2.80038 -2.0225,-3.4468 -0.679,-0.65193 -0.759,-0.68811 -0.6379,-0.28904 l 0.1384,0.45622 -0.6098,-0.51329 c -0.428,-0.36044 -0.6683,-0.45468 -0.8065,-0.31647 -0.108,0.10824 -0.5958,0.1968 -1.0839,0.1968 -1.1135,0 -4.3242,0.61463 -5.2649,1.0079 -0.8923,0.37301 -1.2219,0.37471 -1.2219,0.006 0,-0.16479 0.3643,-0.45115 0.8438,-0.66341 0.9236,-0.40878 4.1908,-1.09609 5.2106,-1.09609 0.876,0 1.2334,-0.59179 1.3511,-2.23801 0.081,-1.1205 0.047,-1.31173 -0.2387,-1.42181 -0.5446,-0.20913 -4.1806,0.2968 -5.6344,0.78401 -1.589,0.53249 -1.5324,0.52522 -1.5324,0.19688 0,-0.14128 0.2623,-0.3656 0.5831,-0.49851 l 0.5831,-0.24163 -0.1032,-1.41121 -0.1031,-1.41121 0.5562,0.6521 c 0.3061,0.35865 0.6976,0.88872 0.8702,1.17793 0.2923,0.48978 0.3712,0.51728 1.1518,0.40094 0.4609,-0.0687 0.8799,-0.18681 0.9311,-0.26249 0.5041,-0.74509 2.5027,-3.34583 2.5415,-3.30714 0.028,0.0276 -0.078,0.53786 -0.2325,1.13371 -0.1554,0.59587 -0.2569,1.10884 -0.2251,1.13995 0.031,0.0312 0.9163,-0.34949 1.9661,-0.84574 1.0499,-0.49625 1.9088,-0.84828 1.9088,-0.78228 0,0.066 -0.3509,0.47771 -0.7798,0.91495 -0.4288,0.43725 -0.7393,0.83558 -0.6897,0.88518 0.051,0.0496 0.5433,-0.0294 1.097,-0.17554 0.5539,-0.14616 1.0356,-0.23702 1.0707,-0.20192 0.034,0.0351 -0.2791,0.33557 -0.6982,0.66771 -0.4191,0.33211 -0.7293,0.63659 -0.6893,0.6766 0.039,0.04 1.1841,-0.17971 2.5423,-0.48825 2.2757,-0.51689 3.2597,-0.67861 2.6627,-0.43759 -0.5048,0.20376 -0.1772,0.4036 1.0242,0.62488 1.3652,0.25148 2.1004,0.5352 1.443,0.55685 -0.2048,0.007 -0.5705,0.12216 -0.8125,0.25649 -0.4,0.22196 -0.2745,0.26305 1.3771,0.45078 1.4685,0.1669 1.8851,0.15901 2.1707,-0.0411 0.3303,-0.23141 0.3071,-0.26648 -0.3529,-0.53563 -0.3885,-0.15841 -1.2803,-0.55083 -1.9818,-0.87205 l -1.2754,-0.58405 0.9025,-0.64188 0.9023,-0.64188 -1.5822,-0.006 -1.5822,-0.006 0.5552,-0.41331 c 0.3055,-0.22731 0.7658,-0.59421 1.023,-0.81531 l 0.4676,-0.40201 -0.9299,0.15315 c -0.5112,0.0841 -1.3455,0.20309 -1.8539,0.26413 l -0.9241,0.11101 0.7292,-0.74712 c 0.401,-0.41092 0.6493,-0.74684 0.5518,-0.7465 -0.098,3.4e-4 -1.0137,0.16291 -2.0356,0.36128 -1.0218,0.19837 -1.8758,0.34285 -1.8975,0.32107 -0.022,-0.0217 0.2069,-0.43563 0.5079,-0.91968 0.6739,-1.08313 0.6765,-1.14362 0.035,-0.81269 -0.2817,0.1454 -1.0288,0.47422 -1.6604,0.73071 l -1.1484,0.46633 0.1081,-1.04836 c 0.1263,-1.22401 0.2916,-1.27815 -2.1223,0.69476 l -1.4576,1.19139 -0.1939,-1.09823 c -0.1902,-1.07672 -0.1992,-1.08911 -0.4625,-0.63245 -0.1475,0.25618 -0.4218,0.79905 -0.6092,1.20638 -0.3744,0.81408 -0.3816,0.81054 -1.0973,-0.54707 l -0.389,-0.73803 -0.5566,1.10137 -0.5567,1.10135 -0.291,-0.54964 -0.291,-0.54965 -0.258,1.39409 c -0.142,0.76674 -0.2879,1.42389 -0.3244,1.46035 -0.036,0.0365 -0.4498,-0.15869 -0.9188,-0.43364 -0.9736,-0.57091 -1.0346,-0.48381 -0.3918,0.56022 0.6051,0.98295 0.5859,1.09405 -0.1254,0.72604 l -0.5958,-0.30826 0.3479,0.53637 c 0.1914,0.295 0.5508,0.84525 0.7987,1.22279 0.4131,0.62918 0.4538,0.89117 0.4875,3.14083 0.031,2.07472 0.087,2.49048 0.3557,2.68774 0.2021,0.14775 0.319,0.48702 0.319,0.92488 0,0.39522 0.1942,1.02508 0.4533,1.46997 0.5349,0.91869 0.6085,1.39842 0.4001,2.60874 -0.1454,0.84365 -0.1204,0.93501 0.4077,1.49051 0.3093,0.32546 0.6189,0.860296 0.6878,1.188519 0.07,0.328224 0.2761,0.789346 0.4604,1.024723 0.1844,0.235371 0.5229,0.86537 0.7523,1.399994 0.4363,1.016654 0.8274,1.284789 1.5934,1.092409 0.3508,-0.08806 0.499,-0.0091 0.6984,0.371776 0.2432,0.464306 0.2119,0.523605 -0.7844,1.488564 l -1.0378,1.005001 0.6684,0.0035 c 0.5428,0.0028 0.7103,-0.08825 0.8915,-0.486108 z m -2.8827,-5.689535 c -0.052,-0.08539 0.2023,-0.15525 0.5668,-0.15525 0.3645,0 0.6629,0.03239 0.6629,0.07201 0,0.152996 -1.1391,0.230097 -1.2297,0.08325 z m -0.6791,-1.275621 c -0.2816,-0.28244 -0.5122,-0.56511 -0.5122,-0.62814 0,-0.0631 0.3772,-0.11462 0.8381,-0.11462 0.8931,0 1.0372,0.21084 0.6452,0.94382 -0.2422,0.45265 -0.3393,0.43255 -0.9711,-0.20106 z m 9.171,-0.50009 c -0.1535,-0.0337 -1.2172,-0.16505 -2.3636,-0.29176 -1.1464,-0.12671 -2.0866,-0.31422 -2.0895,-0.41669 -0.01,-0.31571 4.5441,0.16097 4.7521,0.49756 0.1405,0.22753 0.054,0.28848 -0.299,0.21089 z m -10.1019,-3.78531 c -0.2817,-0.51088 -0.4828,-0.92887 -0.4469,-0.92887 0.035,0 0.3292,0.092 0.6516,0.20453 0.5227,0.1823 0.5866,0.28361 0.5866,0.93158 0,0.39986 -0.063,0.72581 -0.1398,0.72434 -0.077,-9.9e-4 -0.37,-0.42069 -0.6515,-0.93158 z m 12.2082,0.63011 c -0.064,-0.16729 -0.018,-0.46265 0.1031,-0.65638 0.1578,-0.25272 0.1646,-0.45584 0.024,-0.7189 -0.3579,-0.66903 0.5295,-1.86052 1.3857,-1.86052 0.1905,0 0.2915,0.16938 0.2915,0.48859 0,0.41662 -0.041,0.45389 -0.2838,0.25292 -0.3845,-0.31933 -0.5935,-0.0652 -0.3142,0.38231 0.3777,0.60509 0.2682,1.23542 -0.2865,1.64943 -0.3262,0.24356 -0.4107,0.38545 -0.2328,0.39102 0.2484,0.008 0.2484,0.0288 0,0.18937 -0.3966,0.25653 -0.5536,0.22962 -0.6868,-0.11784 z m -9.7411,-0.90689 c -0.1274,-0.15371 -0.3891,-0.27948 -0.5815,-0.27948 -0.5738,0 -0.3994,-0.48714 0.4279,-1.19562 0.8575,-0.7344 2.1335,-1.41274 2.6572,-1.41274 0.2455,0 0.1152,0.20115 -0.4777,0.7376 l -0.8154,0.73761 0.7686,0.008 c 0.4478,0.004 0.8653,0.12427 1.0004,0.28711 0.1873,0.22579 0.1818,0.27948 -0.029,0.27948 -0.1433,0 -0.4042,0.16768 -0.5796,0.37262 -0.3845,0.44921 -0.5759,0.46512 -0.9609,0.0798 -0.2603,-0.26046 -0.2927,-0.26119 -0.2927,-0.006 0,0.15743 -0.1621,0.37302 -0.3602,0.4791 -0.4626,0.24772 -0.4815,0.24554 -0.7571,-0.0866 z m 1.8942,0.0971 c 0.2736,-0.0826 0.6088,-0.20741 0.7449,-0.27726 0.1359,-0.0699 0.086,0.005 -0.1141,0.16629 -0.1989,0.16131 -0.534,0.28609 -0.745,0.27727 -0.3076,-0.0128 -0.285,-0.0457 0.1142,-0.1663 z m -5.2382,-3.66348 c 0.01,-0.088 0.1589,-0.78875 0.3432,-1.55728 l 0.3353,-1.39736 0.7276,-0.0596 c 0.4147,-0.034 0.9075,-0.22794 1.1458,-0.45098 0.5592,-0.52327 0.7094,-0.32349 0.2225,0.29589 -0.2987,0.38009 -0.5521,0.49423 -1.0972,0.49423 -0.6148,0 -0.7399,0.0754 -0.9443,0.56929 -0.1685,0.40673 -0.1786,0.62663 -0.034,0.76999 0.2356,0.23581 0.7841,0.0711 0.7841,-0.23551 0,-0.11664 -0.1299,-0.16216 -0.2889,-0.10112 -0.1657,0.0636 -0.2405,0.0324 -0.1753,-0.0732 0.2241,-0.3627 0.6505,-0.18632 0.6505,0.26905 0,0.46293 -0.5552,0.80394 -0.9307,0.57172 -0.1891,-0.11695 -0.4953,0.40511 -0.3329,0.56759 0.047,0.0472 0.3394,-0.002 0.6491,-0.11047 0.7016,-0.24474 1.0758,-0.96781 0.7835,-1.51427 -0.1622,-0.30315 -0.1526,-0.36624 0.045,-0.30104 0.3297,0.10845 0.4221,0.95693 0.158,1.45083 -0.115,0.2149 -0.4171,0.46991 -0.6715,0.56666 -0.8122,0.30898 -1.3773,0.41036 -1.3692,0.24566 z m 5.8659,-1.17178 c -0.1377,-0.22294 0.2126,-0.44383 0.4607,-0.29046 0.2082,0.12876 0.072,0.4639 -0.1893,0.4639 -0.09,0 -0.2125,-0.0781 -0.2714,-0.17344 z m 0.4576,-2.51258 c 0,-0.16224 0.1327,-0.29499 0.2948,-0.29499 0.3289,0 0.2715,0.40109 -0.074,0.51624 -0.1217,0.0406 -0.2212,-0.059 -0.2212,-0.22125 z m 2.3278,17.011418 c 2.5646,-3.107944 3.9293,-4.343977 5.7588,-5.216478 1.5754,-0.75131 3.7038,-1.38445 4.0125,-1.19358 0.2583,0.15978 0.9168,2.384059 1.0558,3.566089 0.1065,0.907676 0.084,1.001549 -0.2439,1.001549 -0.7792,0 -2.3573,1.023118 -3.8348,2.486156 l -1.5345,1.519575 1.4601,0.05472 1.4601,0.05472 0.9607,-0.808106 c 1.2388,-1.042159 2.6622,-2.059215 3.4279,-2.449335 0.8681,-0.44232 0.8218,-1.003521 -0.089,-1.079382 l -0.6943,-0.05781 -0.4709,-1.873494 c -0.259,-1.030412 -0.6259,-2.110192 -0.8155,-2.399492 -0.325,-0.49617 -0.4013,-0.52012 -1.3486,-0.42231 l -1.0042,0.10371 v -0.62693 c 0,-0.61243 0.015,-0.62448 0.6518,-0.52109 0.3585,0.0582 0.6517,0.0567 0.6517,-0.004 0,-0.0601 -0.2115,-0.42117 -0.4702,-0.80238 -0.2584,-0.38122 -0.3941,-0.74127 -0.3014,-0.80011 0.092,-0.0589 0.2281,-0.629 0.3014,-1.26703 l 0.1334,-1.16005 0.5874,0.29855 c 0.323,0.16419 1.132,0.69413 1.7978,1.17762 1.63,1.18385 1.6767,1.2064 1.6721,0.80834 -0.01,-0.31002 -0.4332,-0.64707 -3.2155,-2.52265 -0.9688,-0.6531 -1.184,-0.48047 -1.3516,1.08367 -0.1063,0.99491 -0.1734,1.16685 -0.3859,0.99039 -0.3942,-0.32736 -0.3035,0.0151 0.2886,1.08969 0.2965,0.53798 0.5003,0.97815 0.4529,0.97815 -0.047,0 -0.3455,-0.13421 -0.6625,-0.29824 l -0.5764,-0.29824 0.1171,0.62429 0.1169,0.62428 -0.472,-0.53385 c -0.2595,-0.29362 -0.5049,-0.50088 -0.5451,-0.46055 -0.04,0.0404 0.01,0.40631 0.098,0.81333 0.2221,0.95806 0.2215,1.20581 0,1.20581 -0.5852,0 -3.6966,1.56574 -4.3348,2.181372 -0.8995,0.867749 -5.5375,6.126886 -5.5375,6.279072 0,0.06049 0.2304,0.109943 0.5121,0.109943 0.4279,0 0.818,-0.370699 2.3742,-2.256467 z m 13.128,-12.655198 c 0,-0.48737 -0.1094,-0.61298 -0.7915,-0.90851 -0.4352,-0.18861 -1.235,-0.64351 -1.777,-1.01089 l -0.9856,-0.66794 1.0658,-0.70588 c 0.948,-0.62772 1.0153,-0.712 0.6072,-0.76094 -0.2523,-0.0303 -0.7848,0.0536 -1.1833,0.18631 -0.5421,0.18058 -0.7698,0.3821 -0.904,0.8003 -0.099,0.30741 -0.1953,0.57934 -0.2147,0.60429 -0.02,0.0249 -0.7158,-0.20315 -1.5476,-0.50685 -1.6845,-0.61512 -4.4621,-1.21021 -6.5129,-1.39543 -1.2785,-0.11547 -1.35,-0.10159 -1.35,0.26198 0,0.21116 0.062,0.38693 0.1396,0.39064 1.1972,0.0575 4.7594,0.47768 5.6014,0.66064 0.3994,0.0868 0.4421,0.0662 0.2178,-0.10466 -0.4739,-0.36086 0.8747,-0.0275 2.3241,0.57429 0.715,0.2969 1.4144,0.53982 1.5541,0.53982 0.3172,0 1.0751,0.536 2.4084,1.70348 0.5685,0.4977 1.1045,0.90491 1.1909,0.90491 0.086,0 0.1573,-0.2545 0.1573,-0.56556 z m -6.7298,-1.19939 c -0.4884,-0.48864 -7.0545,-1.10212 -7.3133,-0.68329 -0.094,0.15292 0.3547,0.21648 1.6022,0.22674 0.9536,0.008 2.4878,0.12165 3.4095,0.2529 1.9909,0.28349 2.4194,0.3214 2.3016,0.20365 z m 0.633,-0.74782 c -0.9213,-0.40076 -4.6728,-1.1999 -6.2647,-1.33453 -1.4059,-0.11889 -1.4184,-0.11601 -1.4185,0.32659 -10e-5,0.38218 0.087,0.44474 0.6052,0.43404 1.2902,-0.0265 4.7596,0.29481 5.9124,0.54784 1.5674,0.34403 1.9146,0.35179 1.1656,0.026 z"
         id="path41" />
      <circle
         style="fill:none;stroke:#0000ff;stroke-width:0.1;stroke-linecap:round;stroke-dasharray:none;stroke-opacity:1;paint-order:markers stroke fill"
         id="circle3712-5"
         cx="1018.9676"
         cy="-119.96943"
         r="2" />
      <circle
         style="fill:none;stroke:#ff0000;stroke-width:0.1;stroke-dasharray:none"
         id="circle3714-3"
         cx="1018.9676"
         cy="-104.95846"
         r="19.954653" />
    </g>
  </g>
</svg>
