<?xml version="1.0" encoding="UTF-8" standalone="no"?>
<!-- Created with Inkscape (http://www.inkscape.org/) -->

<svg
   width="41.008999mm"
   height="41.008999mm"
   viewBox="0 0 41.008999 41.008999"
   version="1.1"
   id="svg1"
   inkscape:version="1.4.2 (f4327f4, 2025-05-13)"
   sodipodi:docname="331.svg"
   xmlns:inkscape="http://www.inkscape.org/namespaces/inkscape"
   xmlns:sodipodi="http://sodipodi.sourceforge.net/DTD/sodipodi-0.dtd"
   xmlns="http://www.w3.org/2000/svg"
   xmlns:svg="http://www.w3.org/2000/svg">
  <sodipodi:namedview
     id="namedview1"
     pagecolor="#ffffff"
     bordercolor="#000000"
     borderopacity="0.25"
     inkscape:showpageshadow="2"
     inkscape:pageopacity="0.0"
     inkscape:pagecheckerboard="0"
     inkscape:deskcolor="#d1d1d1"
     inkscape:document-units="mm"
     inkscape:zoom="1.4513545"
     inkscape:cx="86.470947"
     inkscape:cy="71.657199"
     inkscape:window-width="1050"
     inkscape:window-height="1081"
     inkscape:window-x="857"
     inkscape:window-y="0"
     inkscape:window-maximized="0"
     inkscape:current-layer="layer1" />
  <defs
     id="defs1" />
  <g
     inkscape:label="Layer 1"
     inkscape:groupmode="layer"
     id="layer1"
     transform="translate(333.37504,1257.5646)">
    <g
       id="g116"
       transform="translate(-1374.0381,-1132.1016)">
      <circle
         style="fill:none;stroke:#0000ff;stroke-width:0.1;stroke-linecap:round;stroke-dasharray:none;stroke-opacity:1;paint-order:markers stroke fill"
         id="circle3716-5"
         cx="1061.1676"
         cy="-119.96943"
         r="2" />
      <circle
         style="fill:none;stroke:#ff0000;stroke-width:0.1;stroke-dasharray:none"
         id="circle3718-4"
         cx="1061.1676"
         cy="-104.95846"
         r="19.954653" />
      <ellipse
         style="fill:none;stroke:#ff00ff;stroke-width:0.1;stroke-dasharray:none;stroke-opacity:1"
         id="path1138-9-4-0-0-1-2-0-0-6-8-8-1-2-0-7-3-8"
         cx="1061.1676"
         cy="-104.95846"
         rx="18.492125"
         ry="18.492126" />
      <path
         style="fill:#000000;stroke-width:0.0630221"
         d="m 1052.3068,-93.254976 c -0.9146,-0.142239 -1.6387,-0.905848 -1.7861,-1.883622 -0.059,-0.389964 0,-0.818361 0.1544,-1.171505 0.035,-0.07984 0.3537,-0.647908 0.7072,-1.262366 0.3535,-0.614459 0.9187,-1.597427 1.2561,-2.184374 0.7745,-1.347507 0.8709,-1.515037 1.1415,-1.984267 l 0.2211,-0.38352 -0.018,-0.30862 c -0.103,-1.71541 0.2338,-3.38894 0.986,-4.89383 0.8923,-1.78507 2.2906,-3.22572 4.0601,-4.18334 0.9616,-0.52044 2.1147,-0.89615 3.1809,-1.03649 0.4786,-0.063 1.1541,-0.049 1.7425,0.0361 0.3572,0.0516 0.4188,0.0643 1.2839,0.26302 1.3935,0.32017 1.9019,0.39945 2.3134,0.36065 0.4441,-0.0419 0.6904,-0.16723 1.0638,-0.54132 0.2504,-0.25089 0.3633,-0.38985 1.0038,-1.23498 0.3734,-0.49251 0.4875,-0.63177 0.5654,-0.69009 0.3271,-0.24478 0.7198,-0.28403 1.0867,-0.10863 0.1753,0.0838 0.3698,0.27868 0.4563,0.45696 0.1415,0.29152 0.148,0.59841 0.019,0.88819 -0.027,0.0584 -0.1476,0.23776 -0.2774,0.40947 -0.3013,0.3983 -1.5688,2.05819 -1.6985,2.22433 -0.3203,0.4102 -0.794,0.69629 -1.3063,0.7889 -0.2116,0.0383 -0.5529,0.0352 -0.7752,-0.007 -0.096,-0.0183 -0.4903,-0.0976 -0.8755,-0.17631 -1.1643,-0.23787 -1.7349,-0.33547 -2.3845,-0.40782 -0.9401,-0.10475 -1.8507,-0.0852 -2.6118,0.056 -1.3096,0.24298 -2.4702,0.86132 -3.4887,1.85834 -1.6671,1.6321 -2.4756,3.96419 -2.178,6.28248 0.2767,2.156247 1.4576,4.064083 3.2595,5.266291 0.3459,0.23077 0.5728,0.361369 0.9004,0.518296 1.63,0.780643 3.2662,0.913734 4.8013,0.39051 0.8299,-0.282889 1.5507,-0.718923 2.1496,-1.300408 0.4646,-0.451164 0.7812,-0.875768 1.055,-1.414923 0.9644,-1.899126 0.6126,-4.277766 -0.871,-5.889696 -1.1098,-1.20576 -2.7839,-1.86569 -4.2041,-1.65729 -0.9557,0.14023 -1.8202,0.64808 -2.3431,1.37644 -0.1284,0.17883 -0.32,0.55299 -0.3956,0.77222 -0.028,0.0816 -0.072,0.24293 -0.096,0.3585 -0.043,0.19632 -0.045,0.23754 -0.045,0.627 0,0.38977 0,0.43055 0.045,0.62773 0.079,0.36966 0.2175,0.73245 0.3891,1.01922 0.1905,0.31797 0.5425,0.70759 0.8358,0.92495 0.488,0.3617 1.0096,0.559867 1.6386,0.622577 0.4431,0.0441 0.7553,-0.0457 1.0021,-0.288647 0.4301,-0.42332 0.437,-1.09332 0.016,-1.51385 -0.2084,-0.20788 -0.4026,-0.29065 -0.7453,-0.31745 -0.2395,-0.0187 -0.3889,-0.0605 -0.5452,-0.15227 -0.5969,-0.35059 -0.7017,-1.17588 -0.2114,-1.66445 0.2044,-0.20366 0.4147,-0.29704 0.7028,-0.31198 0.4536,-0.0235 0.9759,0.0924 1.4405,0.31975 1.0988,0.53778 1.7942,1.65404 1.7921,2.87699 0,0.69746 -0.219,1.336407 -0.6397,1.875984 -0.1018,0.130492 -0.3529,0.385042 -0.4921,0.498722 -0.3902,0.318734 -0.9207,0.575606 -1.444,0.699155 -0.5461,0.128929 -1.1824,0.129163 -1.7577,6.39e-4 -1.3548,-0.302648 -2.5257,-1.105054 -3.294,-2.25735 -0.4864,-0.72928 -0.7759,-1.53484 -0.8689,-2.41782 -0.038,-0.34921 -0.024,-0.94329 0.025,-1.27559 0.1727,-1.13876 0.6803,-2.11841 1.5215,-2.93647 0.9141,-0.88881 2.1023,-1.43679 3.4566,-1.59415 0.268,-0.0312 1.0114,-0.0256 1.284,0.01 2.0364,0.26302 3.9034,1.41598 5.0835,3.13934 1.0407,1.5197 1.4817,3.37528 1.2442,5.233427 -0.1828,1.429939 -0.7044,2.765091 -1.4972,3.83293 -0.3661,0.493221 -0.8873,1.020908 -1.3629,1.38002 -1.1687,0.88261 -2.5363,1.365326 -4.1513,1.465256 -0.1679,0.01043 -2.3269,0.01593 -5.8194,0.01495 -4.6318,-0.0013 -5.5771,-0.0053 -5.7006,-0.02456 z m 5.0457,-2.273004 c -0.2148,-0.19811 -0.7146,-0.705437 -0.8889,-0.902282 -0.6668,-0.752966 -1.2003,-1.54885 -1.5818,-2.359452 -0.061,-0.12839 -0.1164,-0.235752 -0.1237,-0.238572 -0.017,-0.007 -1.1648,1.900979 -1.2364,2.056101 -0.074,0.159665 -0.097,0.272195 -0.097,0.45855 0,0.19599 0.038,0.351269 0.1218,0.52525 0.1188,0.243121 0.2932,0.421126 0.5169,0.52753 0.2034,0.09668 0.1704,0.095 1.8881,0.09644 l 1.5794,0.0013 z"
         id="path42" />
    </g>
  </g>
</svg>
