<?xml version="1.0" encoding="UTF-8" standalone="no"?>
<!-- Created with Inkscape (http://www.inkscape.org/) -->

<svg
   width="41.008999mm"
   height="41.008999mm"
   viewBox="0 0 41.008999 41.008999"
   version="1.1"
   id="svg1"
   inkscape:version="1.4.2 (f4327f4, 2025-05-13)"
   sodipodi:docname="332.svg"
   xmlns:inkscape="http://www.inkscape.org/namespaces/inkscape"
   xmlns:sodipodi="http://sodipodi.sourceforge.net/DTD/sodipodi-0.dtd"
   xmlns="http://www.w3.org/2000/svg"
   xmlns:svg="http://www.w3.org/2000/svg">
  <sodipodi:namedview
     id="namedview1"
     pagecolor="#ffffff"
     bordercolor="#000000"
     borderopacity="0.25"
     inkscape:showpageshadow="2"
     inkscape:pageopacity="0.0"
     inkscape:pagecheckerboard="0"
     inkscape:deskcolor="#d1d1d1"
     inkscape:document-units="mm"
     inkscape:zoom="1.4513545"
     inkscape:cx="86.470947"
     inkscape:cy="71.657199"
     inkscape:window-width="1050"
     inkscape:window-height="1081"
     inkscape:window-x="857"
     inkscape:window-y="0"
     inkscape:window-maximized="0"
     inkscape:current-layer="layer1" />
  <defs
     id="defs1" />
  <g
     inkscape:label="Layer 1"
     inkscape:groupmode="layer"
     id="layer1"
     transform="translate(333.37504,1257.5646)">
    <g
       id="g117"
       transform="translate(-1416.2379,-1132.1016)">
      <circle
         style="fill:none;stroke:#0000ff;stroke-width:0.1;stroke-linecap:round;stroke-dasharray:none;stroke-opacity:1;paint-order:markers stroke fill"
         id="circle3720-9"
         cx="1103.3673"
         cy="-119.96943"
         r="2" />
      <circle
         style="fill:none;stroke:#ff0000;stroke-width:0.1;stroke-dasharray:none"
         id="circle3722-7"
         cx="1103.3673"
         cy="-104.95846"
         r="19.954653" />
      <ellipse
         style="fill:none;stroke:#ff00ff;stroke-width:0.1;stroke-dasharray:none;stroke-opacity:1"
         id="path1138-9-4-0-0-1-2-0-0-6-8-8-1-2-0-7-3-908"
         cx="1103.3673"
         cy="-104.95846"
         rx="18.492125"
         ry="18.492126" />
      <path
         style="fill:#000000;stroke-width:0.143038"
         d="m 1103.4703,-90.826711 c -0.6614,-0.0532 -1.4674,-0.201459 -2.1441,-0.394352 -1.4824,-0.422643 -2.9107,-1.552488 -3.4968,-2.766268 -0.313,-0.648319 -0.829,-2.32121 -0.9402,-3.047993 -0.086,-0.560651 -0.1037,-0.751589 -0.07,-0.751589 0.017,0 0.1961,0.329759 0.398,0.732788 0.3819,0.762621 0.8481,1.501145 1.2565,1.990232 0.2873,0.344165 1.1313,1.169272 1.4249,1.392881 0.7449,0.567718 1.7383,0.953544 2.9097,1.130068 0.5199,0.07841 1.7129,0.08739 2.2896,0.01739 0.8494,-0.103171 1.7905,-0.386887 2.3417,-0.705869 1.0051,-0.581622 1.9877,-1.569734 2.5184,-2.532362 0.9138,-1.657386 1.0883,-3.844067 0.4577,-5.733945 -0.423,-1.26761 -1.0362,-2.16876 -1.9376,-2.84718 -0.7527,-0.56645 -1.449,-0.8315 -2.511,-0.95571 -0.6197,-0.0726 -0.9464,-0.0722 -1.5141,0.001 -1.6669,0.21566 -2.9587,0.95556 -3.9612,2.26894 -0.3986,0.52216 -0.8078,1.45663 -1.0888,2.48657 -0.2427,0.890119 -0.4149,2.99876 -0.3018,3.696429 0.022,0.132687 0.034,0.246805 0.027,0.253592 -0.011,0.0063 -0.1991,-0.08387 -0.4273,-0.201459 -0.2283,-0.117596 -0.5853,-0.284318 -0.7935,-0.370494 -0.4306,-0.178288 -0.4501,-0.208271 -0.307,-0.47165 0.2751,-0.506094 0.2665,-0.483608 0.2114,-0.550043 -0.028,-0.03437 -0.2617,-0.1676 -0.518,-0.296091 l -0.4662,-0.233628 0.4346,-0.319182 c 0.2391,-0.175552 0.4269,-0.326991 0.4172,-0.336523 -0.011,-0.0096 -0.1905,-0.0827 -0.4022,-0.16259 -0.2116,-0.07988 -0.3937,-0.153912 -0.4042,-0.164497 -0.034,-0.03454 0.1569,-0.211323 0.5347,-0.494004 l 0.3707,-0.27734 -0.3707,-0.21704 c -0.204,-0.11936 -0.5155,-0.31369 -0.6924,-0.43184 -0.307,-0.20497 -0.5676,-0.35603 -0.5676,-0.32892 0,0.008 0.052,0.15641 0.1168,0.33213 0.064,0.1757 0.1994,0.56097 0.3002,0.85613 l 0.1832,0.536659 -0.083,0.05321 c -0.046,0.02928 -0.2491,0.13185 -0.4528,0.227941 l -0.3703,0.174698 0.2514,0.36567 c 0.2893,0.420744 0.2909,0.368284 -0.026,0.853997 l -0.1885,0.288904 0.1186,0.127391 c 0.2678,0.287627 0.3824,0.448168 0.3705,0.518846 -0.011,0.04627 -0.3226,0.295828 -0.8449,0.669298 -0.4578,0.327509 -0.8382,0.610264 -0.8452,0.628346 -0.023,0.05767 -0.1102,0.03533 -0.1314,-0.03334 -0.011,-0.03646 -0.072,-0.202472 -0.1367,-0.368995 -0.1289,-0.335358 -0.2282,-0.762524 -0.3299,-1.419203 -0.053,-0.346414 -0.068,-0.678502 -0.07,-1.627363 0,-1.087529 0.011,-1.231979 0.085,-1.646279 0.112,-0.58885 0.2482,-1.09038 0.4099,-1.51044 0.128,-0.33212 0.1288,-0.33843 0.058,-0.4163 -0.5663,-0.62655 -0.8771,-0.99557 -1.1189,-1.32911 -0.3264,-0.45005 -0.3833,-0.55399 -0.3503,-0.63982 0.058,-0.15177 0.3116,-0.0467 1.3758,0.57023 0.3371,0.19538 0.6381,0.36495 0.6689,0.3768 0.038,0.0148 0.1097,-0.0579 0.2274,-0.23347 l 0.1711,-0.25505 -0.121,-0.17011 c -0.067,-0.0936 -0.2474,-0.30798 -0.4017,-0.47647 -0.1544,-0.16849 -0.4091,-0.46812 -0.566,-0.66587 -0.1568,-0.19774 -0.4481,-0.55539 -0.6475,-0.79476 -0.5315,-0.63827 -0.6062,-0.74047 -0.6062,-0.82859 0,-0.19783 0.1701,-0.10104 1.6652,0.94727 0.2393,0.16784 0.6793,0.46793 0.9778,0.66685 l 0.5425,0.36168 0.091,-0.10999 c 0.049,-0.0606 0.086,-0.13069 0.082,-0.15597 -0.011,-0.0253 -0.2001,-0.28926 -0.434,-0.58661 -0.8529,-1.08446 -0.943,-1.23616 -0.7553,-1.27195 0.1004,-0.0192 0.5223,0.19339 1.327,0.66888 0.3927,0.23208 0.7333,0.42189 0.7568,0.42181 0.024,-9e-5 0.1292,-0.0656 0.2346,-0.14552 1.4675,-1.11268 3.1594,-1.76641 5.0565,-1.95384 1.3398,-0.13236 2.5723,-0.13239 3.513,-8e-5 1.5045,0.2116 3.095,0.85998 4.0986,1.67085 0.2055,0.16606 0.2679,0.19903 0.3104,0.16383 0.029,-0.0242 0.1675,-0.21724 0.3075,-0.42887 0.1398,-0.21165 0.379,-0.57359 0.5316,-0.80432 0.3687,-0.55753 0.5088,-0.71785 0.5978,-0.68376 0.06,0.0231 0.067,0.057 0.046,0.27055 -0.024,0.25519 -0.35,1.28247 -0.6289,1.98154 -0.086,0.21555 -0.1469,0.41992 -0.1353,0.45415 0.02,0.0589 0.1903,0.27039 0.2176,0.27039 0.011,0 0.2024,-0.12348 0.4342,-0.27438 0.4735,-0.30817 0.6942,-0.44571 1.2409,-0.77287 0.2081,-0.12458 0.6114,-0.37415 0.896,-0.5546 0.5642,-0.35754 0.687,-0.41713 0.7911,-0.38406 0.114,0.0362 0.1221,0.1561 0.025,0.3683 -0.1753,0.38179 -0.6766,0.98067 -1.6395,1.95821 l -0.9507,0.96507 0.052,0.12669 c 0.047,0.1119 0.064,0.12366 0.1553,0.10071 0.1189,-0.0301 1.4536,-0.2163 2.2142,-0.30891 0.495,-0.0603 0.5255,-0.0601 0.5865,0.002 0.061,0.0623 0.057,0.0728 -0.073,0.18669 -0.075,0.0663 -0.3995,0.26753 -0.719,0.44699 -1.2359,0.69397 -1.6729,0.94089 -1.6817,0.94987 -0.011,0.004 0.032,0.18815 0.08,0.4067 0.2235,0.9997 0.2623,1.4038 0.2632,2.743799 0,1.130443 -0.011,1.299152 -0.087,1.778731 -0.2966,1.794052 -0.8409,3.045847 -1.9007,4.371161 -0.4062,0.508103 -0.6586,0.756543 -1.1354,1.117569 -0.7457,0.564727 -1.2719,0.845519 -2.1367,1.140086 -0.8667,0.295197 -1.6636,0.393713 -3.1238,0.386144 -0.5716,-0.0032 -1.2095,-0.01906 -1.4177,-0.03581 z m -8.2391,-8.641206 c 0.057,-0.02952 0.1693,-0.12286 0.2512,-0.207449 0.1321,-0.136351 0.1507,-0.178918 0.165,-0.375094 0.012,-0.17156 0,-0.25568 -0.062,-0.37439 -0.1477,-0.28965 -0.4353,-0.4654 -0.7613,-0.4654 -0.3432,0 -0.569,0.29861 -0.569,0.75228 0,0.269217 0.1333,0.488064 0.3974,0.652664 0.1368,0.08522 0.4328,0.09411 0.5789,0.01739 z m 9.4415,5.472267 c -0.3129,-0.395876 -0.4451,-0.575104 -0.9088,-1.231512 -0.072,-0.101228 -0.1154,-0.198491 -0.098,-0.216135 0.045,-0.04427 2.5859,-0.06326 2.5859,-0.0193 -10e-5,0.115498 -0.9934,1.697084 -1.1591,1.845453 -0.068,0.0607 -0.086,0.04435 -0.4202,-0.378455 z m -4.3626,-2.143872 c 0,-0.02904 0.6507,-1.342367 0.9006,-1.817695 0.1423,-0.270598 0.3878,-0.738939 0.5458,-1.040756 0.2876,-0.550043 0.5788,-1.091897 0.6593,-1.227477 0.04,-0.0678 0.062,-0.0583 0.3405,0.14833 0.1637,0.1214 0.3108,0.231969 0.3267,0.245707 0.016,0.01375 -0.048,0.181914 -0.1419,0.373738 -0.094,0.191823 -0.171,0.364464 -0.171,0.383639 0,0.08411 0.4731,1.004615 0.7249,1.410119 l 0.2758,0.444681 h 0.3323 0.3322 v 0.454152 c 0,0.407097 -0.011,0.454198 -0.067,0.454653 -0.037,2.87e-4 -0.6027,0.02576 -1.2584,0.05655 -0.6557,0.03087 -1.4731,0.06517 -1.8166,0.07634 -0.3435,0.01109 -0.7053,0.02744 -0.8043,0.03629 -0.098,0.0087 -0.1797,0.0096 -0.1797,0.0016 z m 5.1849,-0.637153 c 0,-0.487994 -0.011,-0.4804 0.5234,-0.4804 h 0.377 l 0.168,-0.274379 c 0.093,-0.150913 0.2789,-0.46172 0.4146,-0.690681 0.1358,-0.22897 0.3315,-0.553226 0.435,-0.720586 l 0.1882,-0.304282 -0.2196,-0.395859 c -0.1208,-0.217718 -0.2199,-0.413648 -0.2204,-0.435388 0,-0.0415 0.2951,-0.2772 0.4477,-0.35642 0.049,-0.0254 0.1015,-0.0319 0.1159,-0.0144 0.014,0.0176 0.1518,0.25329 0.3046,0.523881 0.1529,0.270596 0.3983,0.696357 0.5454,0.946137 0.2561,0.435039 1.2725,2.447613 1.2725,2.519784 0,0.02058 -0.5865,0.03478 -1.4321,0.03478 -0.7876,0 -1.7669,0.01125 -2.1761,0.02497 l -0.7441,0.02497 z m 2.8572,-3.309355 c -0.1442,-0.19463 -0.9649,-1.80395 -0.9649,-1.89222 0,-0.0426 0.049,-0.0504 0.2365,-0.0375 0.1301,0.009 0.6368,0.0388 1.126,0.0664 0.489,0.0276 0.8939,0.0533 0.8994,0.0571 0.011,0.004 -0.1036,0.20951 -0.2427,0.45716 -0.1391,0.24767 -0.2718,0.48435 -0.2947,0.52598 -0.1428,0.25847 -0.595,1.002906 -0.6092,1.002906 -0.011,0 -0.078,-0.08086 -0.1504,-0.179776 z m -7.1867,-0.36478 c -0.2807,-0.45058 -0.8932,-1.64601 -0.8932,-1.74364 0,-0.0415 0.7121,-0.0171 1.0786,0.0368 0.2082,0.0307 0.5948,0.0669 0.8593,0.0807 0.4243,0.022 0.477,0.0322 0.4483,0.0855 -0.017,0.0333 -0.2176,0.30867 -0.4439,0.61203 -0.2264,0.30336 -0.5048,0.69911 -0.6188,0.87944 -0.1138,0.18033 -0.2181,0.32808 -0.2316,0.32834 -0.013,2.9e-4 -0.1026,-0.12536 -0.1987,-0.27915 z m 2.1533,-0.0838 c -0.041,-0.0321 -0.1778,-0.11843 -0.3028,-0.1919 -0.1248,-0.0734 -0.2315,-0.13785 -0.2372,-0.14304 -0.011,-0.005 0.1004,-0.20356 0.2367,-0.4408 0.2454,-0.42892 1.0798,-2.07613 1.436,-2.83476 0.1972,-0.41988 0.4717,-0.87913 0.5151,-0.8617 0.051,0.0208 0.342,0.37918 0.4013,0.49584 0.034,0.066 0.1498,0.26483 0.2584,0.44175 0.1091,0.17694 0.2612,0.44942 0.3392,0.60553 0.2304,0.46074 0.5416,0.99989 0.9602,1.66316 l 0.3928,0.62239 -0.107,0.0774 c -0.059,0.0426 -0.1775,0.14141 -0.2632,0.21966 -0.085,0.0782 -0.1713,0.14229 -0.1905,0.14229 -0.02,0 -0.1267,-0.15359 -0.2387,-0.34132 -0.1121,-0.18771 -0.2257,-0.35944 -0.2524,-0.38161 -0.031,-0.025 -0.154,-0.0324 -0.3248,-0.0194 -0.1517,0.0115 -0.673,0.0319 -1.1584,0.0455 l -0.8823,0.0247 -0.2334,0.46863 c -0.1284,0.25775 -0.2423,0.46809 -0.253,0.46742 -0.011,-6.2e-4 -0.053,-0.0275 -0.095,-0.0595 z m 6.1122,-7.86737 c 0,-0.0556 0.1218,-0.1446 0.4545,-0.33215 0.1915,-0.10792 1.017,-0.96425 1.3222,-1.37144 0.4028,-0.53752 1.2201,-1.9833 1.4975,-2.6492 0.061,-0.14569 0.1255,-0.27553 0.144,-0.2885 0.019,-0.0129 0.1552,0.008 0.304,0.0467 0.1842,0.0479 0.4056,0.0704 0.694,0.0709 0.3729,6.2e-4 0.4941,-0.0176 1.0148,-0.15198 1.1158,-0.28803 1.6803,-0.54906 2.9072,-1.34451 0.4238,-0.27474 0.6209,-0.38261 0.6484,-0.35502 0.047,0.0474 0.011,0.0793 -0.5705,0.47264 -0.4634,0.31469 -1.0187,0.83064 -1.3567,1.26039 -0.3758,0.47787 -0.7824,1.10728 -0.9571,1.48157 -0.093,0.19773 -0.179,0.38154 -0.1926,0.40845 -0.016,0.032 -0.1296,0.0536 -0.3276,0.0624 -0.499,0.0223 -1.0745,0.29273 -1.5289,0.71884 -0.2517,0.23578 -0.7289,0.8027 -0.8435,1.00179 -0.075,0.12997 -0.1059,0.15011 -0.2633,0.171 -0.098,0.013 -0.4905,0.12637 -0.8719,0.25187 -0.6489,0.2136 -1.9664,0.6025 -2.041,0.6025 -0.019,0 -0.034,-0.0253 -0.034,-0.0562 z m -12.7918,-0.23061 c -0.3227,-0.0931 -0.9273,-0.2789 -1.3435,-0.41281 -0.4164,-0.13391 -0.8378,-0.25693 -0.9365,-0.27336 -0.1656,-0.0275 -0.1923,-0.0481 -0.3407,-0.26249 -0.5733,-0.82813 -1.072,-1.25636 -1.7764,-1.52534 -0.2299,-0.0878 -0.3671,-0.11608 -0.5735,-0.11815 l -0.271,-0.003 -0.2527,-0.51765 c -0.1586,-0.32472 -0.3838,-0.70104 -0.6043,-1.00965 -0.4284,-0.59947 -1.1373,-1.32887 -1.5462,-1.59105 -0.4578,-0.29348 -0.73,-0.51362 -0.6876,-0.55609 0.025,-0.0249 0.2143,0.0769 0.5613,0.30189 1.2774,0.82816 1.8932,1.11876 2.954,1.3939 0.6994,0.18143 1.2103,0.2105 1.6884,0.0961 0.4,-0.0958 0.4038,-0.0959 0.4038,-0.0202 0,0.20112 1.0721,2.16559 1.5463,2.8333 0.3351,0.47201 1.1799,1.32119 1.4985,1.5064 0.2787,0.16205 0.3724,0.24467 0.3389,0.29892 -0.027,0.0435 0,0.0498 -0.6588,-0.14103 z"
         id="path105" />
    </g>
  </g>
</svg>
