<?xml version="1.0" encoding="UTF-8" standalone="no"?>
<!-- Created with Inkscape (http://www.inkscape.org/) -->

<svg
   width="41.008999mm"
   height="41.008999mm"
   viewBox="0 0 41.008999 41.008999"
   version="1.1"
   id="svg1"
   inkscape:version="1.4.2 (f4327f4, 2025-05-13)"
   sodipodi:docname="333.svg"
   xmlns:inkscape="http://www.inkscape.org/namespaces/inkscape"
   xmlns:sodipodi="http://sodipodi.sourceforge.net/DTD/sodipodi-0.dtd"
   xmlns="http://www.w3.org/2000/svg"
   xmlns:svg="http://www.w3.org/2000/svg">
  <sodipodi:namedview
     id="namedview1"
     pagecolor="#ffffff"
     bordercolor="#000000"
     borderopacity="0.25"
     inkscape:showpageshadow="2"
     inkscape:pageopacity="0.0"
     inkscape:pagecheckerboard="0"
     inkscape:deskcolor="#d1d1d1"
     inkscape:document-units="mm"
     inkscape:zoom="1.4513545"
     inkscape:cx="86.470947"
     inkscape:cy="71.657199"
     inkscape:window-width="1050"
     inkscape:window-height="1081"
     inkscape:window-x="857"
     inkscape:window-y="0"
     inkscape:window-maximized="0"
     inkscape:current-layer="layer1" />
  <defs
     id="defs1" />
  <g
     inkscape:label="Layer 1"
     inkscape:groupmode="layer"
     id="layer1"
     transform="translate(333.37504,1257.5646)">
    <g
       id="g118"
       transform="translate(-1458.622,-1132.1466)">
      <circle
         style="fill:none;stroke:#ff0000;stroke-width:0.1;stroke-dasharray:none"
         id="circle3726-8"
         cx="1145.7515"
         cy="-104.91348"
         r="19.954653" />
      <path
         style="fill:#000000;stroke-width:0.33997"
         d="m 1145.914,-88.95514 c -0.037,-0.03795 -0.025,-0.119696 0.027,-0.181681 0.052,-0.06199 0.062,-0.129851 0.022,-0.150805 -0.04,-0.02096 -0.7073,0.0027 -1.484,0.05234 -1.3278,0.08505 -1.4546,0.07879 -2.1245,-0.104835 -0.8598,-0.235623 -1.319,-0.257911 -1.2431,-0.06035 0.043,0.113074 -0.066,0.134926 -0.675,0.134926 -0.6379,0 -0.7897,-0.0336 -1.2424,-0.274906 -0.6981,-0.372058 -2.3746,-1.639214 -2.9275,-2.21261 -0.2473,-0.25654 -1.0473,-1.066724 -1.7778,-1.800405 -1.0695,-1.074172 -1.3278,-1.382143 -1.3268,-1.581331 0,-0.182491 -0.043,-0.247363 -0.1676,-0.247363 -0.5336,0 -1.1378,-0.541726 -2.0171,-1.808278 -0.5465,-0.787324 -0.6595,-1.030348 -0.7916,-1.703476 -0.063,-0.319537 -0.1697,-0.647476 -0.2376,-0.728743 -0.4394,-0.526233 -0.8362,-4.918753 -0.5652,-6.256763 0.048,-0.23742 0.1279,-1.20076 0.1773,-2.14074 0.074,-1.40814 0.1356,-1.882 0.3508,-2.69137 0.1458,-0.54834 0.3258,-1.02961 0.4074,-1.08931 0.08,-0.0589 0.1464,-0.17577 0.1464,-0.25981 0,-0.0841 0.04,-0.12779 0.09,-0.0972 0.053,0.0328 0.09,-0.0669 0.091,-0.24205 0,-0.16371 0.1017,-0.45956 0.2234,-0.65745 0.1221,-0.19789 0.3266,-0.57204 0.4547,-0.83144 0.1278,-0.2594 0.3511,-0.59022 0.4961,-0.73517 0.145,-0.14494 0.2635,-0.32943 0.2635,-0.40997 0,-0.0821 0.1372,-0.20375 0.3123,-0.27689 0.1717,-0.0717 0.4043,-0.25588 0.5172,-0.40918 0.1127,-0.1533 0.3544,-0.35525 0.5371,-0.4488 0.1826,-0.0935 0.4404,-0.31211 0.5729,-0.48571 0.1323,-0.17362 0.3011,-0.31567 0.3747,-0.31567 0.074,0 0.4873,-0.3643 0.9192,-0.80955 0.4319,-0.44525 0.8535,-0.80955 0.937,-0.80955 0.2666,0 1.3528,-0.6005 1.6097,-0.8899 0.1364,-0.1537 0.2934,-0.27947 0.3489,-0.27947 0.055,0 0.2982,-0.14167 0.5393,-0.31483 0.241,-0.17314 0.4967,-0.31482 0.568,-0.31482 0.072,0 0.1826,-0.1048 0.2472,-0.23287 0.1324,-0.26276 1.0418,-0.66757 1.8734,-0.83391 0.7288,-0.14575 2.2475,-0.28248 3.1377,-0.28248 0.4883,0 0.8226,-0.0405 0.89,-0.10794 0.06,-0.0594 0.1085,-0.33257 0.1094,-0.60715 0,-0.35551 0.027,-0.46037 0.088,-0.3643 0.048,0.0742 0.088,0.27659 0.091,0.44974 0,0.17316 0.033,0.35577 0.069,0.40582 0.037,0.05 0.3981,0.15797 0.804,0.23985 0.4914,0.0992 1.3779,0.42569 2.6535,0.97751 2.7353,1.18313 2.578,1.12634 2.7768,1.00211 0.2624,-0.16391 0.6549,-0.13035 0.7779,0.0665 0.06,0.0953 0.2008,0.18633 0.3139,0.20238 0.1527,0.0217 0.2175,0.10266 0.2509,0.31337 0.034,0.21641 0.1736,0.38328 0.5846,0.69967 0.2968,0.2285 0.8212,0.63556 1.1653,0.90454 0.3441,0.26901 0.7489,0.51499 0.8995,0.54665 0.3605,0.0757 0.6578,0.36464 1.3814,1.34287 0.3295,0.44526 0.8933,1.1431 1.2531,1.55077 0.3599,0.40766 0.7442,0.93388 0.8541,1.16935 0.1099,0.23548 0.2068,0.44107 0.2153,0.45686 0.01,0.0158 0.099,-0.0231 0.2002,-0.0865 0.2516,-0.15716 0.3492,-0.0299 0.1477,0.19275 -0.1998,0.2207 -0.1645,0.26224 0.2812,0.33234 0.319,0.0501 1.0318,0.45297 1.1555,0.65286 0.028,0.0459 -0.031,0.21737 -0.1301,0.38113 -0.1248,0.20469 -0.1816,0.45502 -0.1819,0.801 -10e-5,0.30321 -0.08,0.7144 -0.2023,1.03443 -0.1767,0.46466 -0.1996,0.67762 -0.1831,1.70053 0.01,0.64314 0.073,1.60177 0.1389,2.13029 0.1138,0.91474 0.078,1.22414 -0.069,0.59258 -0.1257,-0.54102 -0.1474,-0.0243 -0.059,1.38573 0.075,1.17599 0.128,1.49286 0.3653,2.15822 0.3152,0.88471 0.3376,1.11862 0.135,1.408071 -0.1617,0.230634 -0.1124,0.465599 0.098,0.465599 0.084,0 0.1622,-0.110553 0.1961,-0.279949 0.046,-0.233024 0.07,-0.254542 0.1406,-0.128413 0.1932,0.345184 -0.1622,0.768162 -0.6455,0.768162 -0.1946,0 -0.2753,0.170223 -0.2753,0.581014 0,0.163052 -0.059,0.345353 -0.1309,0.405116 -0.072,0.05976 -0.2799,0.493262 -0.462,0.963331 -0.1822,0.470069 -0.3596,0.808779 -0.3943,0.752681 -0.037,-0.05944 -0.2419,0.209344 -0.4918,0.644301 -0.6385,1.111113 -2.3745,2.802664 -3.6657,3.571855 -0.7686,0.457861 -0.963,0.615647 -1.0026,0.814007 -0.068,0.338785 -0.4607,0.575422 -1.0479,0.631155 -0.438,0.04155 -0.5083,0.07698 -0.6211,0.31291 -0.07,0.146312 -0.131,0.378968 -0.1356,0.517008 -0.01,0.255527 -0.088,0.323616 -0.1886,0.161441 -0.03,-0.0495 -0.1543,-0.08996 -0.2751,-0.08996 -0.1853,0 -0.2196,-0.04329 -0.2196,-0.276997 0,-0.264892 -0.013,-0.274367 -0.2924,-0.216792 -0.1607,0.03311 -0.7983,0.220658 -1.4167,0.416774 -1.9235,0.610006 -2.7929,0.812869 -3.6878,0.860593 -0.4702,0.02504 -0.8846,0.01454 -0.9214,-0.02341 z m 0.046,-1.352127 c 0.5579,-0.155385 1.2846,-0.307192 2.9945,-0.625591 0.6959,-0.129579 1.3233,-0.273229 1.3943,-0.319221 0.1028,-0.0665 0.037,-0.17092 -0.3208,-0.509924 -0.2474,-0.234469 -0.494,-0.54788 -0.548,-0.696468 -0.053,-0.148584 -0.1553,-0.271884 -0.2249,-0.273997 -0.1368,-0.0043 -1.323,-1.167288 -1.9556,-1.917638 -0.6242,-0.740554 -0.622,-0.741344 -3.2982,1.117866 -1.1659,0.809933 -1.3737,0.999728 -1.4437,1.318997 -0.035,0.161794 -0.1806,0.434942 -0.3224,0.607 -0.1418,0.172059 -0.2578,0.359795 -0.2578,0.417195 0,0.0574 0.3696,0.195697 0.8214,0.307322 0.6427,0.158816 0.8314,0.241385 0.8675,0.379698 0.1123,0.429175 1.1388,0.516344 2.2937,0.194761 z m -6.5912,-2.556283 c 0.2252,-0.225134 0.4429,-0.359804 0.5816,-0.359804 0.3492,0 0.4254,-0.27018 0.428,-1.517309 0.01,-1.542079 -0.065,-2.241505 -0.2372,-2.431925 -0.1936,-0.213815 -0.1794,-0.302204 0.037,-0.23345 0.1579,0.0501 0.18,0.01617 0.18,-0.275903 0,-0.620591 -0.1985,-1.461977 -0.3543,-1.502764 -0.08,-0.02096 -0.3673,-0.0033 -0.638,0.04013 -0.2706,0.04307 -1.0789,0.113046 -1.7962,0.155537 -1.4551,0.0862 -2.0374,0.217592 -2.1202,0.478537 -0.084,0.267184 -0.5761,0.520657 -0.9831,0.507179 -0.2068,-0.0069 -0.2736,-0.02853 -0.1572,-0.05092 0.1114,-0.02146 0.2428,-0.114276 0.2921,-0.206277 0.071,-0.132715 0.044,-0.20301 -0.1304,-0.340256 -0.1471,-0.115765 -0.19,-0.202858 -0.1297,-0.26328 0.1342,-0.134158 -0.6984,-0.228958 -0.9286,-0.105739 -0.1453,0.07777 -0.1588,0.114996 -0.063,0.174285 0.067,0.04143 0.1029,0.08772 0.079,0.102772 -0.024,0.01503 -0.2043,0.109562 -0.4021,0.210002 -0.4323,0.219357 -0.4315,0.340218 0.01,1.007831 0.1698,0.258972 0.3087,0.505682 0.3087,0.548249 0,0.132329 0.3435,0.395762 0.4391,0.336701 0.1028,-0.06326 1.3062,0.939436 1.4496,1.207388 0.051,0.09569 0.5883,0.507076 1.1936,0.91418 0.6173,0.415272 1.357,1.006753 1.6851,1.347451 0.3215,0.333994 0.6555,0.609493 0.7421,0.61221 0.086,0.0027 0.3193,-0.156958 0.5171,-0.354844 z m 12.2333,-1.489362 c 0,-0.807614 0.037,-1.491557 0.083,-1.519879 0.09,-0.05582 0.024,-1.039463 -0.078,-1.152608 -0.034,-0.03801 -0.039,-0.260644 -0.01,-0.494731 0.029,-0.234082 0.011,-0.729189 -0.039,-1.100234 -0.08,-0.591796 -0.1154,-0.678068 -0.288,-0.702648 -0.1083,-0.01541 -0.272,0.04716 -0.364,0.139081 -0.091,0.0919 -0.3271,0.249862 -0.5227,0.351011 -0.2489,0.128762 -0.3638,0.251294 -0.3827,0.408629 -0.019,0.154377 -0.1248,0.271339 -0.3394,0.373647 -0.1717,0.08191 -0.3488,0.245202 -0.3936,0.362877 -0.046,0.121765 -0.186,0.240235 -0.3243,0.274927 -0.3164,0.07943 -1.2993,1.01815 -1.2993,1.240961 0,0.265664 1.8247,2.135242 2.3077,2.364427 0.1641,0.0779 0.3385,0.2165 0.3874,0.308009 0.1403,0.261974 0.8822,0.714411 1.0847,0.66145 0.1681,-0.044 0.178,-0.127527 0.178,-1.514919 z m 3.1674,0.935037 c 0.9844,-0.58174 2.0726,-1.515801 2.9171,-2.503984 0.3593,-0.420516 0.6553,-0.795978 0.6575,-0.834351 0.01,-0.108663 -0.5,0.179033 -0.8385,0.476233 -0.2749,0.241422 -0.5964,0.35619 -0.5964,0.212921 0,-0.03039 0.2044,-0.291226 0.4542,-0.579631 0.3184,-0.367472 0.5315,-0.734493 0.7121,-1.226545 0.2374,-0.646201 0.2763,-0.700106 0.4895,-0.676391 0.1273,0.01416 0.3432,-0.03811 0.4796,-0.116168 0.2361,-0.135029 0.2044,-0.140256 -0.6513,-0.107349 -0.6958,0.02674 -0.9852,0.07852 -1.2782,0.228609 -0.4108,0.210421 -0.4814,0.229665 -0.4651,0.126556 0.051,-0.322896 -0.2008,-0.384767 -0.6403,-0.157432 -0.1434,0.0742 -0.4755,0.177264 -0.7376,0.229029 -0.2622,0.05179 -0.5679,0.113258 -0.6791,0.136653 -0.1114,0.02341 -0.2025,0.01084 -0.2025,-0.02794 0,-0.113161 0.6944,-0.381903 1.0126,-0.391889 0.3747,-0.01177 -0.9553,-0.227793 -1.7646,-0.286646 l -0.6172,-0.04487 0.052,0.327758 c 0.04,0.254061 -0.01,0.429883 -0.1973,0.781994 l -0.249,0.45424 0.07,1.209838 c 0.084,1.461183 0.2126,2.771942 0.2774,2.836677 0.027,0.02608 0.2627,-0.180324 0.526,-0.458667 0.4954,-0.523789 1.3174,-1.176034 1.3902,-1.103169 0.023,0.02287 -0.2017,0.28706 -0.4989,0.587119 -0.5781,0.583442 -0.6612,0.751102 -0.3382,0.681929 0.1638,-0.03507 0.1381,0.01111 -0.1349,0.24202 -0.7308,0.618202 -0.2057,0.607985 0.8512,-0.01656 z m -11.8927,-1.776461 c 0.501,-0.272794 1.8741,-1.362148 2.0056,-1.591187 0.048,-0.0845 -0.06,-0.265419 -0.3373,-0.561803 -0.2249,-0.240442 -0.4094,-0.47345 -0.4099,-0.517792 0,-0.111621 -0.7122,-0.845199 -0.819,-0.845199 -0.048,0 -0.2045,-0.08696 -0.3481,-0.193246 -0.2311,-0.170817 -0.34,-0.187311 -0.9379,-0.142093 -0.372,0.02815 -0.7217,0.07915 -0.7771,0.113346 -0.096,0.05927 -0.075,0.566557 0.062,1.502801 0.045,0.310868 0.064,0.328768 0.2436,0.23636 0.1603,-0.08238 0.1748,-0.07904 0.082,0.01895 -0.062,0.06542 -0.1124,0.213759 -0.1124,0.329626 0,0.262502 0.2506,1.490244 0.3663,1.794774 0.1038,0.27257 0.2589,0.249754 0.9828,-0.144553 z m 15.7605,-1.903628 c 0.2616,-0.102658 0.5655,-0.270522 0.6753,-0.373027 0.1988,-0.185405 0.443,-0.76148 0.3587,-0.845846 -0.093,-0.093 -0.6839,0.230722 -0.7866,0.430945 -0.06,0.115501 -0.2733,0.382033 -0.4756,0.59229 -0.2025,0.210258 -0.3409,0.382291 -0.3077,0.382291 0.034,0 0.2744,-0.08399 0.5359,-0.186653 z m -27.4539,-0.485344 c 0,-0.349747 -0.5606,-1.262022 -0.6141,-0.999167 -0.015,0.07932 -0.067,0.121089 -0.1123,0.09282 -0.1264,-0.07811 -0.1017,0.02015 0.1097,0.435056 0.4335,0.850855 0.6167,0.990906 0.6167,0.471283 z m 16.6294,-1.006638 c 0.6802,-0.63879 0.684,-0.644959 0.4566,-0.733045 -0.2412,-0.09334 -0.7151,-0.04498 -0.7151,0.07298 0,0.110018 -1.1632,0.206739 -1.2859,0.106915 -0.062,-0.05004 -0.3915,-0.06747 -0.7633,-0.04029 -0.6082,0.04448 -0.6451,0.05876 -0.5173,0.200098 0.075,0.08371 0.1378,0.182824 0.1378,0.220245 0,0.03742 0.2482,0.34728 0.5516,0.688582 l 0.5515,0.620542 0.4491,-0.245909 c 0.2469,-0.135252 0.7577,-0.535812 1.135,-0.890122 z m 10.7595,0.690978 c 0.1733,-0.335077 0.1724,-0.459908 -0.01,-0.392657 -0.1197,0.04596 -0.4909,0.647144 -0.4909,0.795215 0,0.134638 0.3734,-0.169794 0.4939,-0.402558 z m -5.8594,0.13601 c 0.028,-0.07263 0.011,-0.155973 -0.035,-0.185208 -0.047,-0.02925 -0.086,0.03017 -0.086,0.132045 0,0.21719 0.049,0.239098 0.1214,0.05315 z m 7.5794,-0.206647 c 0.1382,-0.09151 0.4166,-0.650759 0.324,-0.650759 -0.113,0 -0.559,0.488398 -0.559,0.612085 0,0.121634 0.087,0.136059 0.235,0.03866 z m -13.7519,-1.334756 c -0.031,-0.0299 -0.1073,-0.03306 -0.1723,-0.0071 -0.072,0.02874 -0.05,0.05004 0.054,0.05435 0.094,0.0038 0.148,-0.01731 0.1182,-0.04726 z m -11.5715,-0.704569 c 0.5648,-0.031 1.3911,-0.11435 1.8364,-0.18514 0.4452,-0.0708 1.364,-0.19736 2.0417,-0.28125 0.6777,-0.0838 1.2754,-0.17932 1.3285,-0.2121 0.1048,-0.0647 0.031,-1.52175 -0.088,-1.71261 -0.036,-0.0584 -0.1993,-0.13352 -0.3629,-0.16695 -0.2257,-0.0463 -0.3176,-0.12507 -0.3824,-0.32833 -0.1,-0.31111 -0.4715,-0.73698 -0.7099,-0.81268 -0.09,-0.0289 -0.1422,-0.09 -0.1139,-0.13596 0.028,-0.0459 0.015,-0.0834 -0.028,-0.0834 -0.043,0 -0.249,-0.14541 -0.4566,-0.32313 l -0.3774,-0.32312 -0.5433,0.50302 c -0.2988,0.27667 -0.6118,0.50622 -0.6957,0.51013 -0.093,0.004 -0.1089,0.0246 -0.04,0.0525 0.166,0.067 0.1367,0.19045 -0.06,0.25284 -0.2267,0.0719 -1.7539,1.81963 -1.9506,2.23204 -0.09,0.19015 -0.2394,0.34293 -0.3644,0.3743 -0.2126,0.0533 -0.2977,0.2295 -0.1108,0.2295 0.062,0 0.044,0.0855 -0.045,0.22171 -0.1768,0.269668 -0.1839,0.352041 -0.025,0.291186 0.066,-0.02528 0.582,-0.07142 1.1468,-0.102456 z m 11.0609,-0.23809 c 0.044,-0.0713 0.2824,-0.0861 0.7718,-0.0479 2.2073,0.17216 2.3778,0.17237 2.8991,0.003 0.5434,-0.17606 0.9882,-0.52621 1.2934,-1.0185 0.2465,-0.39749 0.2321,-0.99819 -0.066,-2.75994 -0.2232,-1.3174 -0.3017,-2.67384 -0.1451,-2.50655 0.044,0.047 0.1219,0.44974 0.1733,0.895 0.051,0.44525 0.1453,0.93098 0.209,1.0794 l 0.1156,0.26986 0.031,-0.33374 c 0.017,-0.18356 -0.01,-0.48266 -0.061,-0.66469 -0.049,-0.18203 -0.069,-0.63902 -0.04,-1.01552 0.074,-0.98361 -0.1629,-2.27703 -0.4883,-2.6696 -0.1348,-0.16263 -0.2812,-0.29864 -0.325,-0.30219 -0.044,-0.004 -0.2522,-0.16529 -0.4629,-0.35937 -0.2832,-0.26118 -0.4962,-0.37196 -0.8195,-0.42641 -0.4327,-0.0729 -1.5841,-0.0907 -2.1908,-0.034 -0.1732,0.0161 -0.6489,-0.003 -1.057,-0.0417 -0.8694,-0.0833 -0.8817,-0.066 -0.4666,0.658 0.2581,0.44982 0.813,1.05717 1.399,1.53128 0.1428,0.11544 0.3253,0.37854 0.4055,0.58468 0.099,0.253 0.2082,0.38413 0.3374,0.40353 0.1052,0.0158 0.1962,0.0664 0.2024,0.11244 0.01,0.046 0.021,0.12418 0.034,0.17365 0.012,0.0495 0.028,0.13042 0.034,0.1799 0.01,0.0495 0.066,0.0899 0.1334,0.0899 0.1318,0 0.6147,0.97883 0.5415,1.09742 -0.025,0.0396 -0.1018,0.0719 -0.1725,0.0719 -0.1459,0 -0.1977,0.19247 -0.2457,0.91284 -0.027,0.4038 -0.113,0.63903 -0.4194,1.14631 -0.212,0.35104 -0.5271,0.76243 -0.6999,0.9142 -0.1729,0.15176 -0.2932,0.29706 -0.2673,0.32287 0.043,0.0427 0.3318,-0.2373 1.3144,-1.27235 0.222,-0.23387 0.3381,-0.43851 0.3316,-0.58467 -0.01,-0.16852 0.041,-0.23209 0.1924,-0.25363 0.1703,-0.0242 0.2023,0.0129 0.2023,0.23523 0,0.67607 -1.6724,2.17721 -2.4257,2.17721 -0.3298,0 -1.1482,-0.42092 -1.6147,-0.83059 -0.173,-0.15182 -0.5995,-0.4068 -0.948,-0.56665 -0.7015,-0.32187 -0.9614,-0.55571 -1.1689,-1.05225 -0.2748,-0.65789 -0.07,-1.96295 0.3827,-2.43714 0.2053,-0.215 0.3016,-0.24957 0.6251,-0.22423 0.3802,0.0298 0.5046,-0.04 0.2473,-0.13879 -0.2094,-0.0804 -0.1591,-0.23732 0.076,-0.23732 0.4641,0 0.9583,0.72662 0.9583,1.40912 0,0.1195 0.088,0.33672 0.1963,0.48274 l 0.1961,0.26546 -0.2087,0.22228 c -0.2064,0.21975 -0.2069,0.22509 -0.041,0.47297 0.092,0.13788 0.2437,0.4025 0.3368,0.58803 0.1511,0.30083 0.2064,0.33731 0.5112,0.33731 0.2941,0 0.4053,-0.0658 0.7992,-0.47225 0.5396,-0.55683 0.6633,-0.86401 0.5693,-1.4131 -0.055,-0.3262 -0.1104,-0.4109 -0.2917,-0.45328 -0.1706,-0.0399 -0.2294,-0.11895 -0.2508,-0.33723 -0.031,-0.30677 -0.1372,-0.43985 -1.9484,-2.41981 -0.5951,-0.65055 -1.1441,-1.2726 -1.2199,-1.38233 l -0.1378,-0.19952 -0.3119,0.18968 c -0.3276,0.19916 -1.2763,0.95956 -1.7307,1.38706 -0.2507,0.236 -0.264,0.28243 -0.2176,0.76458 0.027,0.28232 0.1147,1.60621 0.1945,2.94197 0.1436,2.40211 0.1482,2.43482 0.4239,2.99308 0.2888,0.58457 0.2823,0.76742 -0.021,0.57827 -0.097,-0.0604 -0.1758,-0.078 -0.1758,-0.0391 0,0.14635 0.2687,0.44526 0.6177,0.68708 0.4418,0.30607 0.667,0.23181 0.3459,-0.11398 -0.2818,-0.30332 -0.555,-0.73222 -0.4663,-0.73222 0.037,0 0.2749,0.17425 0.5275,0.38723 0.6565,0.55329 0.9626,0.75378 1.3172,0.86268 0.3959,0.12154 2.073,0.0531 2.1603,-0.0882 z m 9.4402,0.0153 c 0.1734,-0.0495 0.093,-0.0783 -0.3506,-0.12597 -0.7288,-0.0782 -1.7667,-0.0802 -1.6898,-0.003 0.139,0.13895 1.6673,0.23571 2.0404,0.12917 z m 0.8601,-0.004 c 0.1766,-0.17655 1.0887,-0.21476 1.4713,-0.0617 0.36,0.14408 0.3657,0.14316 0.7659,-0.12701 0.3827,-0.25824 0.3978,-0.28431 0.2947,-0.51034 -0.082,-0.18143 -0.1155,-0.20194 -0.1378,-0.0861 -0.015,0.0836 -0.053,0.15212 -0.083,0.15212 -0.03,0 -0.286,-0.24286 -0.5693,-0.5397 -0.5709,-0.59808 -0.8019,-0.70344 -0.5733,-0.26149 0.2255,0.43612 0.1056,0.39226 -0.304,-0.11118 -0.9794,-1.204 -1.3896,-1.60623 -1.6382,-1.60623 -0.1567,0 -0.2943,0.0747 -0.381,0.20718 -0.1696,0.25873 -1.7768,1.65837 -2.2911,1.99508 -0.2103,0.13766 -0.3823,0.27807 -0.3823,0.31201 0,0.0339 0.7258,0.11552 1.6129,0.1813 1.4974,0.11103 2.0312,0.21304 1.7378,0.33211 -0.062,0.0251 -0.1125,0.0827 -0.1125,0.12807 0,0.10955 0.48,0.10613 0.5903,-0.004 z m 3.2739,-1.59991 c -0.01,-0.0371 -0.4184,-0.37696 -0.9252,-0.75524 -0.536,-0.40001 -0.9281,-0.75754 -0.9372,-0.85452 -0.01,-0.0917 -0.04,-0.30842 -0.071,-0.48158 l -0.054,-0.31483 0.2084,0.32849 c 0.5658,0.89137 1.3388,1.71949 1.4765,1.58176 0.042,-0.0418 -0.4174,-0.66949 -1.0028,-1.37054 -0.6625,-0.79335 -0.6496,-0.94075 0.028,-0.31483 0.3479,0.32157 0.7573,0.67805 0.9099,0.79217 0.1687,0.12633 0.3219,0.35507 0.3917,0.58468 0.1117,0.36793 0.1153,0.35403 0.1436,-0.5673 0.027,-0.88617 -0.2056,-3.51488 -0.3321,-3.74963 -0.073,-0.13571 -1.3753,0.72997 -2.0874,1.38778 -0.6214,0.57401 -0.8011,0.93619 -0.6154,1.24157 0.2527,0.41568 1.4395,1.65137 1.5469,1.61052 0.061,-0.023 0.3471,0.18113 0.6372,0.45358 0.4938,0.46375 0.6919,0.58786 0.6831,0.42792 z m -28.0223,-0.70353 c 0.078,-0.0778 0.1414,-0.16967 0.1414,-0.20427 0,-0.0851 0.6866,-0.4328 1.0957,-0.5549 0.1821,-0.0544 0.4811,-0.21795 0.6643,-0.36353 0.1832,-0.14559 0.4794,-0.29957 0.6583,-0.34218 1.3253,-0.31577 1.5838,-0.35806 1.4099,-0.23072 -0.1608,0.11772 -0.1619,0.1279 -0.014,0.1279 0.1863,0 1.4027,-1.14129 1.4027,-1.31591 0,-0.0643 -0.1217,-0.25579 -0.2707,-0.42538 -0.1596,-0.1818 -0.249,-0.3648 -0.2179,-0.44592 0.03,-0.0765 -0.02,-0.19996 -0.1116,-0.27788 -0.09,-0.0772 -0.254,-0.23207 -0.3636,-0.34427 -0.1097,-0.11219 -0.7626,-0.78078 -1.4512,-1.48577 -0.8138,-0.83325 -1.317,-1.28179 -1.4381,-1.28179 -0.4816,0 -0.803,0.33923 -0.9502,1.0027 -0.029,0.13098 -0.1903,0.4028 -0.3585,0.60405 -0.4284,0.5128 -0.51,0.96671 -0.5874,3.26655 -0.078,2.32388 -0.018,2.67907 0.3908,2.27132 z m 21.3246,-0.75816 c 0.2926,-0.24736 0.6211,-0.44975 0.7302,-0.44975 0.109,0 0.4042,-0.16285 0.6561,-0.36189 0.6481,-0.51236 0.6287,-0.67372 -0.2012,-1.67587 -0.66,-0.79696 -1.8993,-2.01 -2.0536,-2.01 -0.1045,0 0.058,1.45056 0.2914,2.60856 0.055,0.27226 0.073,0.71719 0.04,0.98945 -0.1411,1.17243 -0.1509,1.34926 -0.075,1.34926 0.044,0 0.3195,-0.20239 0.6119,-0.44976 z m -23.3644,-0.11195 c -0.024,-0.16052 -0.01,-0.4041 0.044,-0.54128 0.048,-0.1372 0.058,-0.36003 0.023,-0.49522 -0.059,-0.22638 -0.071,-0.23158 -0.138,-0.0659 -0.089,0.21914 -0.1093,1.25085 -0.026,1.33427 0.1155,0.11556 0.14,0.0575 0.098,-0.23189 z m 10.515,-1.88274 c -0.034,-0.94866 -0.082,-1.74693 -0.1091,-1.77391 -0.027,-0.027 -0.085,0.0105 -0.1307,0.0832 -0.2422,0.39262 -0.8516,1.07679 -0.9592,1.07679 -0.2291,0 -0.2253,0.25486 0.01,0.59956 0.1279,0.18794 0.2323,0.44748 0.2323,0.57674 0,0.25657 0.2931,0.58467 0.4405,0.49342 0.05,-0.0313 0.1756,0.10637 0.2775,0.30601 0.1017,0.19964 0.2109,0.36299 0.2425,0.36299 0.032,0 0.031,-0.7762 -0.01,-1.72485 z m -9.3764,0.0912 c 0.04,-0.27403 0.027,-0.44076 -0.039,-0.48124 -0.1556,-0.0962 -0.1824,-0.0214 -0.2296,0.64185 -0.039,0.54746 -0.03,0.59783 0.081,0.43858 0.069,-0.099 0.1531,-0.36858 0.1869,-0.59919 z m 25.2689,-0.45772 c 0.1109,-0.11132 0.411,-0.61093 0.6673,-1.11026 0.2576,-0.50229 0.8087,-1.34616 1.2335,-1.88896 0.4222,-0.53959 0.7678,-1.01145 0.7679,-1.04855 0,-0.0371 -0.3743,-0.069 -0.832,-0.0708 -1.59,-0.006 -4.7916,-0.17009 -5.0949,-0.26037 -0.1679,-0.0499 -0.3419,-0.0681 -0.3868,-0.0404 -0.1703,0.10526 0.9997,1.47425 1.8885,2.20964 0.3614,0.29895 0.6346,0.56592 0.6072,0.59329 -0.143,0.14305 -1.7116,-1.22731 -2.6028,-2.27394 -0.1664,-0.19544 -0.2305,-0.22893 -0.2325,-0.12145 0,0.0816 0.3311,0.5107 0.7392,0.95353 0.4082,0.44283 1.2179,1.35764 1.7996,2.03291 0.5816,0.67526 1.0995,1.22775 1.1509,1.22775 0.051,0 0.1841,-0.091 0.2949,-0.20238 z m -18.3799,-0.25755 c 0,-0.21218 -1.7321,-2.03454 -1.7845,-1.87746 -0.02,0.0577 0.2125,0.34557 0.515,0.6397 0.3394,0.33015 0.5498,0.60934 0.5498,0.72966 0,0.21368 0.5224,0.80944 0.6439,0.73435 0.041,-0.0258 0.075,-0.12754 0.075,-0.22625 z m 22.9822,-1.02433 c 0,-0.51943 -0.027,-0.94442 -0.058,-0.94441 -0.08,2e-5 -0.2562,0.52248 -0.2562,0.76168 0,0.17589 0.2497,1.12738 0.2958,1.12722 0.01,-3e-5 0.018,-0.42505 0.018,-0.94449 z m -22.4049,0.62011 c 0.2087,-0.08 0.1739,-0.23742 -0.037,-0.17028 -0.1591,0.0506 -0.18,0.0161 -0.18,-0.29796 0,-0.32271 0.043,-0.38779 0.4723,-0.71448 0.6817,-0.51893 1.0988,-0.96552 1.283,-1.37387 0.1557,-0.34538 0.1555,-0.36386 -0.01,-0.54178 -0.1399,-0.15456 -0.1506,-0.22683 -0.067,-0.44917 0.064,-0.16973 0.069,-0.28446 0.011,-0.31921 -0.048,-0.0299 -0.8644,-0.0551 -1.8135,-0.0563 -1.6562,-0.002 -2.5711,0.0798 -3.3448,0.29901 l -0.3598,0.10194 0.7071,0.64148 c 0.3889,0.35282 1.2436,1.15757 1.8993,1.78835 0.6557,0.63077 1.2146,1.14687 1.242,1.14687 0.028,0 0.1137,-0.0246 0.1919,-0.0546 z m -7.4867,-0.4409 c 0.079,-0.17507 0.075,-0.27633 -0.018,-0.45181 -0.1235,-0.23067 -0.3444,-0.25547 -0.2751,-0.0309 0.021,0.068 0.031,0.25523 0.023,0.41601 -0.019,0.34757 0.1266,0.38331 0.2709,0.0667 z m 7.6696,-0.0373 c 0.028,-0.0457 0.1748,-0.11012 0.3255,-0.14325 0.1625,-0.0357 0.3045,-0.13938 0.3484,-0.25428 0.041,-0.10673 0.261,-0.42078 0.4893,-0.69789 0.7344,-0.89091 0.4886,-0.88179 -0.4843,0.018 -0.507,0.46904 -0.8994,0.90369 -0.8994,0.99626 0,0.17296 0.1334,0.2221 0.2205,0.0812 z m -7.342,-0.7669 c 0.04,-0.33958 -0.1168,-0.48665 -0.2511,-0.23572 -0.1184,0.22109 -0.04,0.57277 0.1167,0.52148 0.058,-0.0189 0.1181,-0.14749 0.1344,-0.28576 z m 22.3329,-0.20698 c -0.1093,-0.19862 -1.1226,-1.18239 -1.0776,-1.04602 0.049,0.15183 1.0009,1.20343 1.0882,1.20343 0.042,0 0.037,-0.0708 -0.01,-0.15741 z m -22.8452,-0.79474 -0.07,-0.26217 -0.061,0.30157 c -0.069,0.33987 0.011,0.56143 0.1272,0.35444 0.04,-0.0724 0.042,-0.24964 0.01,-0.39384 z m -0.4491,-0.27818 -0.077,-0.34379 -0.1028,0.25322 c -0.1841,0.45436 -0.1033,0.79461 0.1329,0.55853 0.092,-0.0922 0.1043,-0.21264 0.046,-0.46796 z m 5.0457,0.30358 c -0.1354,-0.14247 -0.3642,-0.34393 -0.5086,-0.4477 l -0.2626,-0.18867 0.2162,0.30932 c 0.3727,0.53318 0.4558,0.61208 0.6307,0.5989 0.1518,-0.0114 0.1436,-0.0408 -0.075,-0.27185 z m -3.9789,-0.20625 c 0,-0.25876 -0.1582,-0.18873 -0.2501,0.11071 -0.096,0.31325 -0.095,0.31678 0.076,0.16259 0.096,-0.0867 0.1742,-0.20968 0.1742,-0.2733 z m -0.2427,-0.68849 c -0.1257,-0.22446 -0.3351,0.1783 -0.2323,0.4465 0.039,0.10091 0.081,0.0691 0.1613,-0.12112 0.06,-0.14186 0.091,-0.28827 0.071,-0.32538 z m 1.3083,0.15179 c 0.017,-0.0148 -0.1374,-0.1128 -0.3434,-0.21789 -0.3472,-0.17715 -0.3702,-0.21132 -0.3137,-0.46808 l 0.061,-0.27698 -0.3178,0.24243 c -0.2604,0.19862 -0.315,0.29608 -0.3022,0.53924 l 0.015,0.29681 0.5848,-0.0444 c 0.3216,-0.0243 0.5986,-0.0564 0.6159,-0.0711 z m 25.8295,-1.06869 c 0,-0.0956 -1.7199,-2.65593 -2.0568,-3.06175 -0.3548,-0.42756 -0.4629,-0.67627 -0.2939,-0.67627 0.1842,0 1.4304,1.44058 1.712,1.97891 0.1681,0.32157 0.4379,0.76755 0.5994,0.99107 0.3167,0.43812 0.9748,0.87803 1.0739,0.71779 0.1439,-0.23305 -0.4442,-2.13085 -0.9126,-2.94454 -0.3803,-0.66075 -1.0864,-1.69793 -1.3963,-2.05077 -0.3494,-0.398 -1.0865,-0.8849 -1.5592,-1.03004 -0.1979,-0.0607 -0.8302,-0.3445 -1.405,-0.63054 -1.0431,-0.51908 -1.3882,-0.58137 -1.1555,-0.20862 0.061,0.0965 0.2502,0.2718 0.4219,0.38951 0.5283,0.3619 1.5892,1.45757 1.8933,1.95519 0.1588,0.25973 0.2717,0.47224 0.2509,0.47224 -0.021,0 -0.3746,-0.33612 -0.7862,-0.74692 -0.8542,-0.85234 -2.0922,-1.86164 -2.2837,-1.86164 -0.078,0 -0.1289,0.0898 -0.1289,0.22725 0,0.12501 -0.086,0.55811 -0.1907,0.96248 -0.1548,0.59759 -0.1783,0.86233 -0.1252,1.41433 0.036,0.37353 0.06,0.88151 0.052,1.12889 -0.035,1.27003 -0.025,1.76027 0.048,2.29371 l 0.08,0.58468 2.2346,0.0158 c 1.2291,0.008 2.2579,0.0391 2.2863,0.0674 0.06,0.06 1.6408,0.0713 1.6408,0.0117 z m -10.6765,-0.49798 c 0.04,-0.0363 -0.4864,-0.0882 -1.1695,-0.11528 -1.4762,-0.0587 -1.9326,0.11464 -0.6122,0.23255 0.4877,0.0436 1.6918,-0.0357 1.7817,-0.11727 z m -5.2897,-0.002 c 0.2079,-0.0529 0.1291,-0.0711 -0.3426,-0.0793 -0.3879,-0.007 -0.5921,0.0223 -0.5569,0.0793 0.063,0.10204 0.4984,0.10204 0.8995,0 z m -3.0134,-0.34621 0.4947,-0.0586 -0.8833,-0.15874 c -0.8598,-0.15448 -1.0505,-0.14867 -1.0505,0.0321 0,0.22365 0.5342,0.29242 1.4391,0.18528 z m 7.1566,-0.004 c -0.076,-0.12387 0.9185,-0.19983 1.5012,-0.1146 0.2845,0.0416 0.5172,0.0475 0.5172,0.013 0,-0.0776 -1.3084,-1.1664 -1.4017,-1.1664 -0.1492,0 -1.3936,0.83415 -1.477,0.99016 -0.1206,0.22505 -0.115,0.24933 0.068,0.29709 0.2912,0.0761 0.8431,0.0628 0.7925,-0.0191 z m -3.1014,-0.17577 c 0.065,-0.0711 0.3388,-1.05366 0.3806,-1.36221 l 0.031,-0.22487 0.092,0.2213 c 0.087,0.21063 0.099,0.19981 0.2284,-0.22488 0.075,-0.24539 0.2066,-0.73521 0.292,-1.0885 0.1468,-0.6072 0.1468,-0.65521 0,-0.87807 -0.085,-0.12965 -0.2523,-0.2603 -0.3719,-0.29032 -0.1303,-0.0328 -0.286,-0.189 -0.3886,-0.38993 -0.094,-0.18445 -0.4022,-0.54651 -0.6846,-0.80459 -0.5637,-0.51523 -1.815,-1.29072 -1.949,-1.20788 -0.046,0.0288 -0.061,0.1789 -0.031,0.33369 l 0.053,0.28143 -0.173,-0.22353 c -0.1979,-0.25548 -0.2119,-0.24894 -0.3862,0.17856 l -0.1284,0.31482 -0.1466,-0.26985 c -0.1854,-0.34105 -0.1948,-0.18363 -0.019,0.31483 0.074,0.21033 0.1349,0.51296 0.1349,0.6725 0,0.36143 0.167,0.85664 0.2889,0.85664 0.053,0 0.069,-0.11928 0.038,-0.29234 -0.1315,-0.71799 -0.1559,-1.20869 -0.071,-1.41671 l 0.092,-0.22488 0.01,0.24152 c 0.01,0.35109 0.1618,0.70297 0.3067,0.70297 0.1524,0 0.231,0.50369 0.323,2.06884 0.048,0.8288 0.1145,1.23375 0.2507,1.54041 0.1465,0.33019 0.1699,0.49709 0.1129,0.80878 -0.04,0.21601 -0.058,0.41578 -0.04,0.44396 0.043,0.0686 1.6919,-0.008 1.7584,-0.0817 z m 7.0924,-0.0504 c 0.084,-0.10132 0.071,-0.1385 -0.065,-0.18177 -0.094,-0.0299 -0.278,-0.17411 -0.4084,-0.32041 -0.2627,-0.2947 -0.6012,-0.41795 -0.8168,-0.29729 -0.1273,0.0712 -0.1268,0.0991 0.01,0.28858 0.081,0.11536 0.3537,0.30383 0.6066,0.41882 0.5544,0.25219 0.5463,0.25108 0.6783,0.0921 z m 0.6785,-0.52478 c -0.039,-0.25973 -0.061,-1.11438 -0.048,-1.89921 0.019,-1.2376 0,-1.4674 -0.1412,-1.73154 -0.09,-0.16751 -0.1906,-0.30457 -0.2231,-0.30457 -0.099,0 -0.3909,0.48644 -0.3655,0.60716 0.013,0.0619 -0.041,0.11244 -0.1197,0.11244 -0.2999,0 -0.6769,0.28243 -0.8135,0.60931 -0.077,0.18434 -0.2416,0.44119 -0.3657,0.57078 l -0.2257,0.23561 0.4485,0.32917 c 0.4754,0.34895 1.8115,1.72129 1.8115,1.86061 0,0.0453 0.026,0.0825 0.056,0.0825 0.032,0 0.025,-0.21251 -0.014,-0.47224 z m -14.4595,0.25121 c 0.8025,-0.008 1.4904,-0.0451 1.5285,-0.0832 0.1279,-0.12789 -3.5991,-0.0225 -3.7973,0.10732 -0.1549,0.10153 -0.1112,0.10899 0.3148,0.0538 0.2721,-0.0353 1.1513,-0.0703 1.954,-0.078 z m 3.3845,-1.19569 c -0.022,-0.72972 -0.052,-1.41783 -0.069,-1.52915 -0.015,-0.11131 0.01,-0.20239 0.055,-0.20239 0.1,0 0.01,-1.63336 -0.143,-2.4288 l -0.1007,-0.54486 -0.4916,0.31748 c -0.2705,0.17461 -0.5908,0.31748 -0.7117,0.31748 -0.2315,0 -1.0903,0.502 -1.0903,0.63721 0,0.0433 -0.1717,0.16631 -0.3816,0.27337 -0.5167,0.2636 -1.222,1.02889 -1.292,1.4018 -0.046,0.24285 -0.1272,0.32831 -0.4504,0.47125 -0.3434,0.1519 -0.3947,0.21071 -0.3947,0.45234 0,0.16068 -0.055,0.299 -0.1315,0.32819 -0.072,0.0276 -0.1547,0.12331 -0.1828,0.21235 -0.029,0.089 -0.1353,0.18381 -0.2378,0.21061 -0.1041,0.0272 -0.168,0.10112 -0.1446,0.16713 0.023,0.065 -0.054,0.31025 -0.1715,0.54475 l -0.2132,0.42635 0.788,-0.0424 c 2.7969,-0.15081 4.3141,-0.13026 4.1985,0.0568 -0.027,0.0426 -0.1264,0.0774 -0.2225,0.0774 -0.095,0 -0.1745,0.0404 -0.1745,0.0899 0,0.0532 0.3267,0.0899 0.8001,0.0899 h 0.8002 z m 10.0825,0.41693 c -0.5666,-0.58142 -1.4787,-1.29226 -1.4787,-1.15241 0,0.0589 0.1316,0.23368 0.2924,0.38841 0.1607,0.15474 0.4452,0.47146 0.6324,0.70384 0.1871,0.23236 0.3907,0.40312 0.4524,0.37943 0.062,-0.0236 0.1919,0.0152 0.2893,0.0865 0.3471,0.25381 0.2496,0.043 -0.1878,-0.40577 z m -5.5562,0.0865 c -0.052,-0.20134 0.131,-0.64662 0.3131,-0.75915 0.073,-0.0449 0.088,-0.003 0.052,0.13888 -0.03,0.11199 -0.014,0.30636 0.034,0.43192 l 0.086,0.22832 0.1997,-0.18082 c 0.1097,-0.0995 0.3919,-0.29134 0.6268,-0.42642 0.2349,-0.13508 0.4273,-0.27415 0.4273,-0.30906 0,-0.0507 -0.8893,-0.80745 -1.411,-1.20081 -0.2374,-0.17891 -0.6459,1.98281 -0.4179,2.21086 0.1094,0.10953 0.1414,0.0622 0.09,-0.13372 z m 15.3206,-0.008 c 0,-0.24932 -0.8386,-1.50667 -1.0035,-1.50667 -0.037,0 0.052,0.25298 0.1984,0.56219 0.1462,0.3092 0.266,0.60989 0.266,0.66821 10e-5,0.14693 0.2558,0.3887 0.4113,0.3887 0.071,0 0.1281,-0.0507 0.1278,-0.11243 z m -10.9499,-0.52671 c -0.5536,-0.53832 -0.788,-0.62889 -0.788,-0.30453 0,0.11258 0.2019,0.27558 0.6296,0.50834 0.3464,0.18843 0.65,0.34245 0.6748,0.34229 0.025,-1.6e-4 -0.2077,-0.24592 -0.5164,-0.5461 z m -2.8625,-1.17054 -0.2642,-0.28054 0.2249,0.0622 c 0.1237,0.0342 0.4244,0.16232 0.6685,0.28468 l 0.4435,0.22247 0.222,-0.22201 c 0.2618,-0.26172 0.3491,-0.14543 -0.9825,-1.30981 -0.9094,-0.79523 -0.9332,-0.80913 -1.0424,-0.61206 -0.1007,0.18208 -0.081,0.2268 0.2033,0.46076 0.1734,0.1425 0.3743,0.37325 0.4464,0.51275 0.1583,0.30613 0.1669,0.44856 0.015,0.26257 -0.061,-0.0742 -0.2669,-0.27007 -0.4592,-0.43526 -0.4901,-0.42114 -0.581,-0.21584 -0.1685,0.38055 0.2861,0.4136 0.8038,0.95421 0.9138,0.95421 0.024,0 -0.076,-0.12624 -0.2215,-0.28053 z m 2.277,-0.98144 c 0.2597,-0.14895 0.4721,-0.30538 0.4721,-0.34764 0,-0.0422 0.1823,-0.25333 0.4048,-0.46909 0.6906,-0.66914 0.4567,-0.78598 -0.3128,-0.15624 -0.1721,0.14082 -0.3454,0.25604 -0.3852,0.25604 -0.04,0 -0.2128,0.14032 -0.3844,0.31182 -0.2929,0.29303 -0.3117,0.29949 -0.3117,0.10714 0,-0.24107 0.1543,-0.47371 0.4149,-0.6251 0.1029,-0.0598 0.3856,-0.23949 0.6282,-0.39935 0.2426,-0.15986 0.6232,-0.3535 0.8458,-0.43031 0.4448,-0.15344 0.64,-0.29773 1.0119,-0.74762 0.3004,-0.36329 0.3123,-0.52347 0.045,-0.60465 -0.1113,-0.0338 -0.3313,-0.15796 -0.4887,-0.27591 -0.1574,-0.11794 -0.3396,-0.21495 -0.4047,-0.21559 -0.066,-5.4e-4 -0.3688,-0.0796 -0.6747,-0.17557 -0.306,-0.096 -0.9941,-0.23808 -1.5292,-0.31592 -0.5352,-0.0778 -1.0748,-0.16365 -1.1993,-0.19072 -0.2004,-0.0436 -0.2425,-0.005 -0.3662,0.33421 -0.077,0.21089 -0.1931,0.40119 -0.2584,0.42292 -0.075,0.0251 -0.093,-7.7e-4 -0.05,-0.0707 0.08,-0.13051 -0.1259,-0.55784 -0.2366,-0.48943 -0.1033,0.0638 -0.098,0.90883 0.01,1.1053 0.046,0.0865 0.054,0.2964 0.017,0.46632 -0.037,0.16992 -0.031,0.51835 0.011,0.77426 0.068,0.40606 0.1369,0.51784 0.5441,0.87774 0.2566,0.22682 0.5605,0.50317 0.6755,0.61409 0.2495,0.24067 0.7272,0.5078 0.9153,0.51188 0.075,0.002 0.3474,-0.11895 0.6071,-0.26791 z m -3.4856,-0.57932 c 0,-0.13734 -0.5368,-0.62022 -0.6091,-0.54792 -0.026,0.0257 0.063,0.21102 0.1945,0.41169 0.2281,0.34463 0.4146,0.4059 0.4146,0.13623 z m 0.134,-1.00391 c -0.088,-0.0645 -0.1923,-0.0978 -0.2311,-0.0738 -0.039,0.0239 -0.1239,-0.0297 -0.1892,-0.11938 -0.1287,-0.17688 -0.7283,-0.64959 -0.8241,-0.64959 -0.032,0 -0.059,0.0731 -0.059,0.16251 0,0.1184 -0.1338,0.033 -0.4928,-0.31482 -0.4697,-0.45505 -0.6765,-0.57573 -0.6765,-0.39494 0,0.15515 1.1239,1.10272 1.727,1.45614 0.3316,0.19423 0.6324,0.40113 0.6687,0.45979 0.042,0.0681 0.097,0.0136 0.1518,-0.15093 0.069,-0.2084 0.055,-0.27998 -0.075,-0.37498 z m 0.1839,-0.80421 c -0.034,-0.27563 -0.1189,-0.63583 -0.1877,-0.80044 -0.069,-0.16459 -0.1363,-0.51588 -0.1502,-0.78063 -0.021,-0.40981 -0.052,-0.48534 -0.2127,-0.50819 -0.1034,-0.0148 -0.2399,0.0359 -0.3035,0.11244 -0.075,0.0906 -0.2676,0.13927 -0.5508,0.13927 -0.3116,0 -0.4809,0.0486 -0.5961,0.17135 -0.088,0.0942 -0.2621,0.18531 -0.3858,0.20238 -0.2098,0.029 -0.1954,0.052 0.2179,0.34587 0.2436,0.17315 0.6293,0.50834 0.8573,0.74486 0.4272,0.4431 1.0351,0.86648 1.2515,0.87144 0.097,0.002 0.1094,-0.10367 0.06,-0.49835 z m 6.4284,-1.93059 c 0.1168,-0.0781 0.1113,-0.1082 -0.04,-0.2235 -0.096,-0.0733 -0.2253,-0.13321 -0.2871,-0.13321 -0.1982,0 -0.2363,0.18781 -0.065,0.31795 0.2004,0.15183 0.2195,0.15372 0.3913,0.0388 z m 7.0236,25.582444 c -0.01,-0.218148 0.044,-0.414717 0.1194,-0.476609 0.2199,-0.182541 0.2529,0.05419 0.065,0.463785 l -0.1766,0.384097 z m 3.0474,-4.624617 c 0.348,-0.29757 0.4532,-0.328526 0.4532,-0.13358 0,0.07294 -0.1195,0.194373 -0.2655,0.269852 -0.4278,0.221225 -0.5241,0.151278 -0.1877,-0.136272 z"
         id="path106" />
      <circle
         style="fill:none;stroke:#0000ff;stroke-width:0.1;stroke-linecap:round;stroke-dasharray:none;stroke-opacity:1;paint-order:markers stroke fill"
         id="circle3724-7"
         cx="1145.7515"
         cy="-119.92445"
         r="2" />
    </g>
  </g>
</svg>
