<?xml version="1.0" encoding="UTF-8" standalone="no"?>
<!-- Created with Inkscape (http://www.inkscape.org/) -->

<svg
   width="41.008999mm"
   height="41.008999mm"
   viewBox="0 0 41.008999 41.008999"
   version="1.1"
   id="svg1"
   inkscape:version="1.4.2 (f4327f4, 2025-05-13)"
   sodipodi:docname="335.svg"
   xmlns:inkscape="http://www.inkscape.org/namespaces/inkscape"
   xmlns:sodipodi="http://sodipodi.sourceforge.net/DTD/sodipodi-0.dtd"
   xmlns="http://www.w3.org/2000/svg"
   xmlns:svg="http://www.w3.org/2000/svg">
  <sodipodi:namedview
     id="namedview1"
     pagecolor="#ffffff"
     bordercolor="#000000"
     borderopacity="0.25"
     inkscape:showpageshadow="2"
     inkscape:pageopacity="0.0"
     inkscape:pagecheckerboard="0"
     inkscape:deskcolor="#d1d1d1"
     inkscape:document-units="mm"
     inkscape:zoom="1.4513545"
     inkscape:cx="86.470947"
     inkscape:cy="71.657199"
     inkscape:window-width="1050"
     inkscape:window-height="1081"
     inkscape:window-x="857"
     inkscape:window-y="0"
     inkscape:window-maximized="0"
     inkscape:current-layer="layer1" />
  <defs
     id="defs1" />
  <g
     inkscape:label="Layer 1"
     inkscape:groupmode="layer"
     id="layer1"
     transform="translate(333.37504,1257.5646)">
    <g
       id="g114"
       transform="translate(-1331.8383,-1181.6571)">
      <circle
         style="fill:none;stroke:#0000ff;stroke-width:0.1;stroke-linecap:round;stroke-dasharray:none;stroke-opacity:1;paint-order:markers stroke fill"
         id="circle6687-9"
         cx="1018.9677"
         cy="-70.414429"
         r="2" />
      <circle
         style="fill:none;stroke:#ff0000;stroke-width:0.1;stroke-dasharray:none"
         id="circle6697-9"
         cx="1018.9677"
         cy="-55.403042"
         r="19.954653" />
      <ellipse
         style="fill:none;stroke:#ff00ff;stroke-width:0.1;stroke-dasharray:none;stroke-opacity:1"
         id="path1138-9-4-0-0-1-2-0-0-6-8-8-1-2-0-7-3-846"
         cx="1018.9677"
         cy="-55.403042"
         rx="18.492125"
         ry="18.492126" />
      <path
         id="path1138-9-4-0-0-1-2-0-0-6-8-8-1-2-0-7-3-846-2"
         style="fill:#000000;fill-opacity:1;stroke:none;stroke-width:0.1;stroke-dasharray:none;stroke-opacity:1"
         d="m 1017.3636,-68.822743 c -0.023,0.02313 0,0.125792 0.057,0.227893 0.1475,0.275668 0.061,1.004262 -0.155,1.307931 -0.1005,0.141074 -0.3024,0.306053 -0.4485,0.366902 -0.1461,0.06085 -0.4643,0.207718 -0.707,0.326596 l -0.4408,0.216524 v -0.257866 c 3e-4,-0.141779 0.057,-0.366417 0.1261,-0.499194 0.069,-0.132774 0.1158,-0.251863 0.1028,-0.264583 -0.037,-0.0369 -1.0199,0.642154 -1.4433,0.996838 -0.45,0.37701 -0.6211,0.720537 -0.6211,1.275891 0,0.522978 -0.1417,0.307154 -0.2367,-0.36897 l -0.068,-0.481624 -0.1514,0.332796 c -0.2189,0.480776 -0.2468,1.175224 -0.063,1.571481 l 0.1494,0.322461 -0.5416,0.551904 c -0.5181,0.528383 -0.5585,0.552437 -0.9302,0.546737 -0.4119,-0.0063 -0.7989,-0.19933 -0.8749,-0.43615 -0.1268,-0.395832 -0.1279,-0.396998 -0.1989,-0.224275 -0.199,0.484042 -0.03,1.515358 0.3106,1.891357 0.1962,0.216883 0.043,0.182005 -0.2791,-0.06356 -0.2685,-0.206742 -0.2785,-0.207973 -0.2785,-0.03772 0,0.27075 0.2168,0.626833 0.5472,0.89917 0.1772,0.145802 0.2644,0.270664 0.2124,0.302824 -0.1396,0.08651 -0.276,0.702996 -0.215,0.978752 l 0.055,0.251147 0.1509,-0.248563 c 0.1673,-0.275208 0.4729,-0.517281 0.6522,-0.517281 0.091,0 0.095,0.02555 0.018,0.118339 -0.1122,0.1352 -0.4222,0.94947 -0.4222,1.109493 0,0.112499 0.5098,0.07023 0.9028,-0.07493 0.1066,-0.03956 0.1814,-0.04222 0.1664,-0.0062 -0.015,0.03602 -0.1183,0.277 -0.2284,0.535884 -0.1406,0.330285 -0.2569,0.485372 -0.3902,0.518832 -0.2853,0.0716 -1.0082,-0.110162 -1.265,-0.31781 -0.2819,-0.227879 -0.6842,-0.407294 -0.6842,-0.304891 0,0.0421 0.227,0.359577 0.5048,0.704866 0.394,0.489759 0.5773,0.649264 0.8336,0.726054 0.296,0.08872 0.3166,0.111552 0.2062,0.233577 -0.1854,0.204853 -0.3788,0.717144 -0.3788,1.003557 0,0.255006 10e-5,0.255304 0.2413,0.077 0.1326,-0.09807 0.4172,-0.198456 0.6325,-0.222726 l 0.3917,-0.04393 -0.1338,0.258899 c -0.1608,0.310882 -0.3624,0.430982 -0.7245,0.430982 h -0.2698 l 0.2021,0.216007 c 0.3745,0.400957 0.8738,0.63693 1.264,0.59738 0.1943,-0.01969 0.4279,-0.06629 0.5199,-0.103353 0.1558,-0.06321 0.1547,-0.05553 -0.016,0.124023 -0.1414,0.14855 -0.2686,0.190019 -0.5694,0.185519 -0.3876,-0.0059 -0.3874,-0.0056 -0.201,0.192753 0.2322,0.247189 0.6853,0.402532 0.9673,0.331762 0.1974,-0.04963 0.2092,-0.03716 0.1582,0.166915 -0.03,0.121383 -0.011,0.35462 0.043,0.518315 l 0.098,0.297656 0.1623,-0.222725 c 0.1044,-0.143232 0.2399,-0.222726 0.3798,-0.222726 0.218,0 0.218,6e-5 -0.062,0.288872 -0.2362,0.244057 -0.2583,0.297128 -0.1411,0.342098 0.076,0.02928 0.1946,0.03155 0.2636,0.0052 0.1578,-0.06041 0.1575,-0.05925 -0.036,0.392741 -0.089,0.206994 -0.207,0.606926 -0.262,0.888835 l -0.1008,0.51263 -0.6418,-0.05684 c -0.633,-0.05604 -0.6447,-0.05348 -0.8258,0.176733 -0.101,0.12839 -0.2265,0.393787 -0.2785,0.589628 -0.086,0.323014 -0.1318,0.367847 -0.4852,0.485242 -0.5248,0.174297 -0.6317,0.319959 -0.6987,0.955497 -0.032,0.297726 -0.1226,0.672713 -0.2036,0.833024 -0.08,0.160315 -0.1705,0.387806 -0.1995,0.505913 -0.029,0.118106 -0.1433,0.255911 -0.2542,0.306441 -0.3016,0.137448 -0.599,0.579633 -0.7969,1.185974 -0.1993,0.610294 -0.5049,2.040331 -0.5049,2.36213 0,0.147857 -0.1024,0.294542 -0.339,0.484725 l -0.3395,0.272334 0.022,0.769979 c 0.013,0.42345 0,0.796047 -0.035,0.827857 -0.032,0.0318 -0.058,0.126353 -0.058,0.210323 0,0.114409 -0.063,0.152962 -0.2522,0.152962 -0.077,0 -0.1276,0.009 -0.1689,0.02532 a 18.492125,18.492126 0 0 0 0.2222,0.166398 l 0.1106,-0.01085 c 0.3833,-0.03689 1.7354,0.219615 1.9704,0.37362 0.1281,0.08413 0.199,0.222656 0.216,0.424264 0.03,0.354173 0.2341,0.481082 0.2341,0.145727 0,-0.251453 -0.046,-0.253261 1.204,0.05013 1.2927,0.313775 1.3143,0.321908 1.2703,0.490926 -0.023,0.08768 0.01,0.174998 0.075,0.199988 0.111,0.04262 0.1684,0.382923 0.065,0.382923 -0.028,0 -0.2619,-0.05328 -0.5204,-0.118339 -0.543,-0.136635 -1.3836,-0.282339 -1.9839,-0.362252 a 18.492125,18.492126 0 0 0 8.0202,1.8557 18.492125,18.492126 0 0 0 3.9466,-0.473872 c -0.4433,0.08179 -0.9319,0.150705 -1.5953,0.223242 l -0.4703,0.05116 0.1298,-0.361218 c 0.087,-0.241617 0.108,-0.443463 0.064,-0.608748 l -0.066,-0.24753 -0.073,0.291455 c -0.04,0.160312 -0.1132,0.437847 -0.1622,0.6165 l -0.09,0.325044 -1.0629,-0.05116 c -1.2627,-0.0604 -2.1667,-0.23238 -2.9621,-0.564307 -0.5557,-0.231895 -1.5969,-0.934385 -1.5689,-1.058333 0.1252,-0.553498 0.3657,-2.254524 0.3457,-2.452047 -0.024,-0.246103 -0.06,-0.206016 -0.5209,0.585494 -0.2722,0.467456 -0.5161,0.849093 -0.5411,0.847493 -0.026,-0.0015 -0.2138,-0.291928 -0.418,-0.645438 -0.2634,-0.456184 -0.4127,-0.843399 -0.5142,-1.333769 -0.3085,-1.490499 -0.9613,-3.519374 -1.1529,-3.583244 -0.074,-0.02452 -0.079,0.0087 -0.021,0.12144 0.2123,0.410462 1.3332,5.156529 1.2402,5.249809 -0.076,0.07593 -0.9769,-0.1787 -1.4293,-0.40411 -0.2988,-0.148912 -0.6919,-0.267502 -0.9783,-0.295072 -0.5093,-0.04905 -0.5684,-0.121191 -0.3793,-0.465605 0.055,-0.100045 0.09,-0.397167 0.078,-0.659908 -0.018,-0.401353 0.067,-0.744204 0.5343,-2.146122 0.3972,-1.192347 0.6066,-1.704713 0.7338,-1.794723 0.098,-0.06928 0.4329,-0.203976 0.7447,-0.299206 0.5521,-0.168645 0.5702,-0.168801 0.6919,-0.01757 0.3778,0.469645 0.6381,0.970853 0.8289,1.596285 0.1176,0.38559 0.2979,0.785263 0.401,0.888317 0.2057,0.20573 0.3368,0.2085 2.4216,0.04496 1.2453,-0.09768 1.2749,-0.149419 0.9627,-1.662431 -0.089,-0.432986 -0.1488,-0.801168 -0.1318,-0.818038 0.017,-0.01687 0.3786,0.176887 0.8036,0.430465 0.4421,0.263754 1.0883,0.560292 1.51,0.692981 0.6156,0.193645 0.7466,0.264762 0.7886,0.432015 0.035,0.136041 0.01,0.233254 -0.089,0.302824 -0.1731,0.126607 -1.2898,0.238327 -1.6315,0.163297 -0.3939,-0.08653 -0.2971,0.08479 0.1592,0.28112 0.2355,0.101274 0.588,0.176733 0.8247,0.176733 h 0.4135 l 0.048,0.56224 c 0.027,0.309177 0.072,1.227168 0.1008,2.040186 0.033,0.925625 0.085,1.478462 0.139,1.478462 0.09,0 0.03,-3.373126 -0.069,-3.88245 -0.045,-0.230491 -0.024,-0.268995 0.1876,-0.342615 0.2588,-0.09021 0.7772,-0.494648 0.7772,-0.606164 0,-0.03804 -0.1346,-0.03201 -0.2992,0.01344 -0.3425,0.09447 -0.3254,0.102851 -0.3984,-0.199988 -0.045,-0.184136 -0.026,-0.229129 0.092,-0.229444 0.3277,-0.0012 1.3812,-0.930558 1.574,-1.388545 0.061,-0.14573 0.1435,-0.284885 0.1825,-0.309025 0.1169,-0.07223 0.2656,0.747241 0.2656,1.475362 0,0.992536 0.04,1.040234 1.1234,1.407666 0.9883,0.335093 1.3006,0.378225 1.4485,0.199988 0.052,-0.06284 0.1426,-0.372257 0.2016,-0.687297 0.106,-0.566603 0.107,-0.560045 0.079,0.593245 -0.057,2.339973 -0.1751,3.756095 -0.3581,4.29948 -0.1249,0.370692 -0.2649,0.693728 -0.4248,0.992187 a 18.492125,18.492126 0 0 0 0.3204,-0.119889 c 0.013,-0.03116 0.031,-0.06732 0.058,-0.119373 0.1151,-0.222522 0.1668,-0.242445 0.7648,-0.293005 0.06,-0.005 0.1723,-0.0083 0.2506,-0.01292 a 18.492125,18.492126 0 0 0 1.2914,-0.704867 c -0.217,0.0078 -0.2212,0.01244 -0.4826,0.02015 -1.5137,0.04471 -1.5135,0.04449 -1.4485,-0.134875 0.09,-0.245319 0.7115,-0.369106 1.9032,-0.379306 0.5299,-0.0045 0.7562,-0.0051 0.8718,0.03359 a 18.492125,18.492126 0 0 0 0.1747,-0.124023 c -0.058,-0.05276 -0.1249,-0.08423 -0.2,-0.08423 -0.089,0 -0.1618,-0.03945 -0.1618,-0.08733 0,-0.06613 0.2917,-0.053 0.5752,0.01189 a 18.492125,18.492126 0 0 0 0.1772,-0.132292 c -0.1098,-0.02215 -0.2648,-0.0408 -0.3875,-0.04134 -0.243,-0.0011 -0.2652,-0.0252 -0.3132,-0.355017 -0.041,-0.28184 -0.01,-0.437026 0.1571,-0.763261 0.1149,-0.225331 0.2088,-0.453666 0.2088,-0.506946 0,-0.05328 -0.1439,-0.212563 -0.3199,-0.353984 -0.3203,-0.257127 -0.3201,-0.257118 -0.3731,-1.242301 -0.1203,-2.221165 -0.4186,-2.996052 -1.2583,-3.273185 -0.4246,-0.140133 -0.9055,-0.878948 -1.0413,-1.598869 -0.1233,-0.653498 -0.329,-0.89355 -0.8005,-0.93586 -0.3021,-0.02711 -0.3247,-0.04933 -0.4077,-0.392741 -0.079,-0.32784 -0.1128,-0.364103 -0.3369,-0.366903 -0.2488,-0.003 -0.2485,-0.0033 -0.571,-1.18494 l -0.3225,-1.18184 0.2584,-0.390157 c 0.1422,-0.214661 0.3041,-0.5153 0.3591,-0.668177 0.055,-0.152875 0.1487,-0.278019 0.2067,-0.278019 0.111,0 0.7762,-0.791452 0.7762,-0.923458 0,-0.04169 0.176,-0.07596 0.3907,-0.07596 0.3905,0 0.3904,2.66e-4 0.2026,-0.174667 -0.2451,-0.22832 -0.1749,-0.288173 0.1446,-0.122989 0.3202,0.165612 0.5198,0.16595 0.7246,10e-4 0.126,-0.10147 0.136,-0.140233 0.047,-0.176733 -0.361,-0.147772 -0.6036,-0.775664 -0.2992,-0.775664 0.2067,0 0.5372,0.255248 0.6749,0.521416 0.1875,0.362697 0.3074,0.175663 0.3074,-0.496094 0,-0.375783 -0.044,-0.656332 -0.1369,-0.833024 -0.078,-0.146588 -0.14,-0.277735 -0.14,-0.291455 4e-4,-0.01374 0.1921,-0.03223 0.4258,-0.04083 0.7677,-0.02818 1.5129,-0.511453 1.696,-1.100191 0.054,-0.174483 0.043,-0.190774 -0.093,-0.127124 -0.2687,0.126206 -0.8913,0.07999 -1.2351,-0.09147 -0.2745,-0.136895 -0.3608,-0.245512 -0.5131,-0.643372 l -0.1835,-0.478524 0.2217,0.04703 c 0.1222,0.02592 0.4797,0.174418 0.7943,0.330212 l 0.572,0.283187 -0.05,-0.248563 c -0.089,-0.445406 -0.4697,-1.144842 -0.7638,-1.403015 l -0.2878,-0.252698 0.2026,-0.298173 c 0.2187,-0.322204 0.4234,-0.858112 0.3534,-0.927592 -0.024,-0.02355 -0.1054,0.08928 -0.1824,0.25063 -0.1368,0.288406 -0.3368,0.464162 -0.6661,0.584978 -0.1138,0.04179 -0.069,-0.03943 0.1416,-0.256315 0.4152,-0.427397 0.6657,-1.02706 0.7147,-1.71049 0.022,-0.309913 0.016,-0.56379 -0.014,-0.56379 -0.03,0 -0.2043,0.09932 -0.3876,0.220658 -0.3979,0.263336 -1.0067,0.343648 -1.4639,0.192753 -0.1765,-0.05827 -0.5381,-0.313006 -0.8031,-0.565857 l -0.4816,-0.45992 0.2465,-0.255798 c 0.3744,-0.38825 0.571,-1.112759 0.3405,-1.255221 -0.046,-0.02831 -0.083,0.01717 -0.083,0.101286 0,0.172087 -0.2216,0.523482 -0.3302,0.523482 -0.039,0 0.01,-0.158782 0.099,-0.352433 0.1739,-0.359815 0.295,-1.276829 0.201,-1.521871 -0.044,-0.114502 -0.1099,-0.08945 -0.4139,0.15968 -0.3624,0.296955 -0.9313,0.548287 -1.2412,0.548287 -0.091,0 -0.4897,-0.07869 -0.8853,-0.175183 -0.5589,-0.136341 -0.8839,-0.166495 -1.4588,-0.134875 l -0.74,0.04082 0.3654,-0.227376 c 0.2007,-0.124933 0.5052,-0.277951 0.6769,-0.340031 0.1718,-0.06208 0.3127,-0.139513 0.3127,-0.172083 0,-0.09962 -0.6457,-0.174736 -1.0206,-0.118856 -0.3379,0.05036 -0.3462,0.04662 -0.1871,-0.08475 0.2214,-0.182987 0.6618,-0.370003 0.8718,-0.370003 0.2548,0 0.2036,-0.131796 -0.1013,-0.260449 -0.1659,-0.07003 -0.5769,-0.113802 -1.062,-0.113172 -0.8883,9.82e-4 -1.243,0.119888 -1.9311,0.648023 l -0.3902,0.299723 -0.1762,-0.363285 c -0.1706,-0.352292 -0.8865,-1.101516 -0.9715,-1.016476 z m 0.2744,0.359151 c 0.021,-0.0077 0.072,0.03908 0.1747,0.133326 0.1128,0.103675 0.2902,0.370068 0.3942,0.591695 l 0.1892,0.402559 -0.2548,0.410311 c -0.3408,0.54813 -0.2393,0.614536 0.1199,0.07855 0.5841,-0.871367 1.6192,-1.420201 2.6732,-1.418001 0.6698,0.0014 0.9755,0.104961 0.5928,0.201021 -0.3305,0.08295 -0.6771,0.349999 -0.9581,0.73794 -0.2746,0.379779 -0.2483,0.545253 0.033,0.204638 0.1531,-0.185312 0.274,-0.230855 0.7251,-0.273885 l 0.5415,-0.05168 -0.4165,0.248047 c -0.229,0.136466 -0.5287,0.369768 -0.6661,0.518314 -0.2501,0.269995 -0.2506,0.269808 -0.042,0.217558 0.57,-0.143118 1.4783,-0.148747 2.0821,-0.01344 1.3399,0.300272 1.7008,0.260063 2.3895,-0.265617 l 0.3829,-0.292488 -0.044,0.529166 c -0.054,0.649719 -0.2624,1.186849 -0.5054,1.304314 -0.1719,0.08322 -0.1676,0.08823 0.07,0.09353 0.1386,0.0031 0.3411,-0.05694 0.4501,-0.133325 l 0.1984,-0.138493 -0.1994,0.3545 c -0.2746,0.488497 -0.417,0.548553 -0.8176,0.344165 -0.3965,-0.202286 -1.0631,-0.328303 -0.9741,-0.183968 0.033,0.05277 0.1446,0.09612 0.2491,0.09612 0.3608,0 1.2041,0.497337 1.5612,0.920874 0.6055,0.718053 1.4722,0.946617 2.1947,0.57826 0.1797,-0.09161 0.3379,-0.166915 0.3519,-0.166915 0.081,0 -0.2724,0.663567 -0.4605,0.86403 -0.4095,0.43624 -0.6422,0.481364 -1.3074,0.254765 -0.541,-0.184289 -1.5405,-0.280028 -1.5405,-0.147795 0,0.155695 0.447,0.604609 0.7752,0.778764 0.2058,0.109154 0.442,0.312757 0.524,0.452685 l 0.1499,0.254248 -0.2729,-0.228926 c -0.3104,-0.260656 -0.6252,-0.332207 -0.3793,-0.0863 0.1994,0.19933 0.369,0.636148 0.369,0.949813 v 0.2651 l -0.2388,-0.329696 c -0.2412,-0.332968 -0.9027,-0.944645 -1.0216,-0.944645 -0.035,0 -0.1363,-0.164049 -0.2253,-0.364319 -0.3013,-0.681103 -1.3018,-1.542556 -1.8035,-1.552876 -0.1628,-0.0034 -0.1628,-0.0045 0,-0.127641 0.3223,-0.243647 0.7827,-0.310442 1.1983,-0.173633 0.2104,0.06928 0.397,0.112145 0.414,0.09508 0.017,-0.01706 -0.051,-0.17715 -0.152,-0.356051 -0.1995,-0.355047 -0.5313,-0.592357 -0.8666,-0.620117 l -0.2144,-0.01809 0.2397,-0.252181 c 0.3001,-0.316718 0.5075,-0.723327 0.5075,-0.993738 0,-0.207882 4e-4,-0.207864 -0.4785,0.04496 -0.5763,0.304242 -0.848,0.289907 -1.6531,-0.08682 -0.6229,-0.291479 -1.346,-0.433722 -1.8557,-0.365352 -0.5407,0.07251 -1.1674,0.495751 -1.5441,1.043864 -0.2949,0.42897 -0.3591,0.47904 -0.6202,0.47904 -0.3074,0 -1.0102,0.294791 -1.0102,0.423747 0,0.04172 0.1066,0.07597 0.2372,0.07597 0.3459,0 0.8035,0.333632 0.8035,0.58601 0,0.275828 -0.3278,0.311879 -0.8273,0.09095 l -0.3752,-0.165882 0.053,0.389641 0.053,0.390157 -0.229,-0.270785 c -0.3011,-0.355561 -0.3767,-0.341825 -0.2723,0.04961 0.1091,0.408478 0.059,0.529958 -0.3095,0.747241 l -0.2987,0.176217 v -0.291456 c 0,-0.160239 0.056,-0.42571 0.125,-0.590144 0.1552,-0.367114 0.1552,-0.362252 0,-0.362252 -0.07,0 -0.299,0.158807 -0.509,0.352433 l -0.3819,0.351917 0.1359,-0.325045 c 0.075,-0.17866 0.178,-0.375313 0.229,-0.437183 0.1504,-0.181253 0.042,-0.199182 -0.4021,-0.06718 -0.5094,0.151275 -0.9879,0.487992 -1.4102,0.993221 -0.2823,0.337637 -0.3568,0.381283 -0.6548,0.380338 -0.1849,-5.41e-4 -0.5331,-0.05329 -0.7736,-0.117305 -0.5066,-0.13487 -0.5362,-0.088 -0.2449,0.393258 0.2081,0.343743 0.5926,0.639327 0.8325,0.640271 0.215,7.84e-4 0.085,0.166265 -0.1344,0.171565 -0.1842,0.0044 -0.1842,0.0042 0,0.132809 0.1838,0.1286 0.1836,0.128648 -0.052,0.327112 -0.1298,0.109154 -0.2809,0.302543 -0.3359,0.429431 v 0 c -0.055,0.126888 -0.2101,0.31772 -0.3441,0.424263 -0.2209,0.175213 -0.2419,0.17941 -0.2419,0.04186 0,-0.272354 0.3124,-0.8435 0.5354,-0.989604 0.2926,-0.19173 0.2044,-0.257664 -0.1023,-0.07648 -0.2302,0.136059 -0.2539,0.135908 -0.4677,-0.0041 -0.1239,-0.0812 -0.2802,-0.252992 -0.3462,-0.381372 l -0.1209,-0.233061 0.3545,0.160714 c 0.5961,0.270581 0.6838,0.207397 0.2775,-0.198954 -0.2796,-0.279593 -0.3848,-0.462675 -0.4558,-0.7953 -0.1153,-0.534886 -0.1179,-0.75706 -0.01,-0.75706 0.046,0 0.083,0.03331 0.083,0.0739 0,0.140177 0.568,0.342615 0.9612,0.342615 0.3733,0 0.4197,-0.02635 0.862,-0.492476 0.2571,-0.270906 0.6279,-0.591064 0.8242,-0.711068 l 0.3566,-0.218075 -0.2863,-0.269751 c -0.3259,-0.307517 -0.5283,-0.886024 -0.3917,-1.120345 0.074,-0.126406 0.087,-0.11925 0.087,0.05633 0,0.206086 0.3795,0.923142 0.4852,0.923457 0.032,1.04e-4 0.047,-0.259632 0.032,-0.577225 -0.037,-0.783947 0.1043,-1.053291 0.8537,-1.627291 0.3307,-0.253263 0.6214,-0.460437 0.6454,-0.460437 0.1012,0 -0.047,0.890399 -0.1809,1.082621 -0.079,0.114509 -0.1706,0.301486 -0.2036,0.415995 -0.033,0.114508 -0.078,0.273824 -0.1002,0.353984 -0.022,0.08016 -0.01,0.145727 0.031,0.145727 0.039,0 0.1182,-0.174341 0.1752,-0.387573 0.1418,-0.530202 0.5844,-0.954689 1.2469,-1.195792 0.8276,-0.301156 1.2714,-0.936171 1.1643,-1.666049 -0.018,-0.125206 -0.027,-0.187598 -0.01,-0.195337 z m -0.038,1.321367 -0.09,0.229443 c -0.087,0.221416 -0.7679,0.728121 -0.9787,0.728121 -0.056,0 -0.2364,0.126331 -0.4,0.280603 -0.2619,0.247396 -0.2966,0.32819 -0.2966,0.68678 0,0.22361 0.043,0.556793 0.094,0.740006 h 5e-4 c 0.084,0.300864 0.1026,0.317576 0.1866,0.171566 0.1649,-0.285132 0.4484,-0.538353 0.6485,-0.579293 0.107,-0.02189 0.3048,-0.0636 0.4398,-0.0925 0.3229,-0.06917 0.7661,-0.547758 0.8899,-0.961182 0.121,-0.403714 0.05,-0.498751 -0.1985,-0.2651 -0.1873,0.175927 -0.1877,0.175977 -0.1607,-0.173116 0.015,-0.192005 -0.01,-0.442563 -0.054,-0.557072 z m -3.0985,1.290877 c -0.1195,0 -0.2694,0.743265 -0.2134,1.058333 0.1046,0.589933 0.1119,0.599749 0.3674,0.503329 0.1743,-0.06582 0.2903,-0.05804 0.4754,0.03152 0.2267,0.1099 0.2479,0.106461 0.2739,-0.04548 0.02,-0.111701 -0.095,-0.271489 -0.3596,-0.501778 -0.3179,-0.2767 -0.3971,-0.402198 -0.4351,-0.691947 -0.025,-0.194664 -0.075,-0.353984 -0.1086,-0.353984 z m 8.2093,3.289205 0.2471,0.15658 c 0.433,0.27471 0.6982,0.570025 0.8361,0.931209 h -5e-4 c 0.1574,0.411776 0.1425,0.730611 -0.022,0.465088 -0.054,-0.08808 -0.2098,-0.209314 -0.3452,-0.269234 -0.1973,-0.08747 -0.2555,-0.173705 -0.2905,-0.438217 -0.024,-0.181199 -0.1299,-0.445731 -0.2346,-0.587561 z m -0.3079,1.788005 0.1813,0.294038 c 0.1,0.161558 0.2526,0.331949 0.3406,0.378789 0.09,0.04847 0.1592,0.173586 0.1592,0.290421 0,0.193439 -0.026,0.205156 -0.4605,0.205156 -0.2534,0 -0.5969,0.05678 -0.7627,0.12609 -0.3694,0.154343 -0.3288,0.234558 0.062,0.122473 0.3818,-0.109482 1.078,-0.105207 1.078,0.0067 0,0.04882 -0.04,0.164829 -0.09,0.257349 -0.046,0.09252 -0.07,0.187663 -0.046,0.211873 0.058,0.0584 0.6357,-0.300595 0.6357,-0.395324 0,-0.04063 0.054,-0.05298 0.1214,-0.02739 0.1396,0.05354 0.096,0.425175 -0.095,0.804085 -0.1153,0.229371 -0.1145,0.23096 0.1158,0.1757 0.2931,-0.07034 0.6637,-0.255189 0.7317,-0.364835 0.2263,-0.366299 0.3644,0.480571 0.1612,0.98857 l -0.1436,0.359668 -0.2103,-0.268201 c -0.2822,-0.360586 -0.9483,-0.662581 -1.4651,-0.663525 -0.4199,-8.34e-4 -1.1317,0.321578 -1.1317,0.51263 0,0.05502 0.056,0.04561 0.1437,-0.02429 0.091,-0.07254 0.076,-0.02637 -0.042,0.12609 -0.2888,0.374822 -0.2198,0.409358 0.1912,0.0956 0.6729,-0.513618 1.3182,-0.497699 1.8909,0.04703 0.2582,0.245766 0.3223,0.35159 0.2423,0.40101 -0.084,0.05206 -0.077,0.07947 0.034,0.121956 0.1224,0.0468 0.1374,0.142873 0.1034,0.657324 -0.044,0.678279 -0.2759,1.225627 -0.6113,1.44539 -0.2763,0.181058 -1.2205,0.178901 -1.6573,-0.0036 -0.4502,-0.188124 -0.4829,-0.08749 -0.037,0.114721 0.4904,0.222489 1.3211,0.224465 1.8066,0.0041 0.2973,-0.134922 0.3936,-0.242047 0.5736,-0.635103 0.119,-0.259886 0.2353,-0.635548 0.2573,-0.835091 0.032,-0.280255 0.075,-0.362769 0.1923,-0.362769 0.1424,0 0.1436,0.01738 0.019,0.312126 -0.072,0.171763 -0.1986,0.701806 -0.2806,1.177706 -0.082,0.475899 -0.1984,0.900215 -0.2594,0.943095 -0.09,0.06099 -0.091,0.08737 -0.01,0.120406 0.1549,0.06285 0.1263,0.268631 -0.107,0.769979 -0.3972,0.853256 -1.751,1.952677 -2.9538,2.399336 h 0.01 c -0.5922,0.219946 -1.0474,0.278662 -1.4351,0.185002 -0.512,-0.123709 -1.6215,-0.722658 -2.496,-1.347721 -0.7887,-0.563774 -1.0276,-0.785308 -1.3286,-1.232483 -0.1109,-0.164946 -0.1584,-0.184112 -0.2454,-0.100252 -0.059,0.05725 -0.2089,0.103869 -0.3323,0.103869 -0.2611,0 -0.5553,-0.304569 -1.1338,-1.174605 -0.5496,-0.826479 -0.609,-1.63899 -0.1426,-1.944584 0.3014,-0.197522 0.3465,-0.100223 0.1313,0.28267 -0.1121,0.192137 -0.1498,0.346614 -0.1018,0.376204 0.045,0.02761 0.1377,-0.05406 0.2067,-0.181384 0.069,-0.12749 0.1286,-0.185885 0.1286,-0.130225 0,0.05566 0.1139,0.22739 0.2491,0.381372 0.1752,0.199417 0.2324,0.333271 0.1974,0.465605 -0.034,0.129327 0.015,0.253715 0.1602,0.409794 0.1149,0.123313 0.2293,0.280623 0.2543,0.349333 0.033,0.0914 0.052,0.08176 0.052,-0.03617 0,-0.08865 -0.074,-0.246168 -0.1706,-0.349849 -0.2412,-0.256738 -0.158,-0.47532 0.138,-0.362769 0.4063,0.154486 0.466,0.109928 0.278,-0.208772 -0.1975,-0.334621 -0.1972,-0.335478 0.2186,-0.161748 0.1714,0.07159 0.4149,0.119704 0.5411,0.106454 0.1728,-0.01813 0.2849,0.04175 0.4542,0.242879 0.4062,0.482803 1.2639,0.550932 2.1482,0.170532 0.5587,-0.240353 0.44,-0.278238 -0.1979,-0.06305 -0.6634,0.223785 -1.4636,0.201372 -1.7446,-0.04909 -0.5477,-0.488304 -0.5569,-1.707357 -0.019,-2.432409 0.1105,-0.148861 0.2387,-0.270785 0.2857,-0.270785 0.047,0 0.1408,-0.05583 0.2098,-0.12454 0.3,-0.299917 1.2491,-0.05879 1.7534,0.445451 0.3447,0.344697 0.4161,0.33196 0.1995,-0.03514 -0.1776,-0.297286 -0.1776,-0.297182 0,-0.240812 0.3082,0.09782 0.094,-0.111244 -0.2868,-0.27957 -0.7443,-0.32925 -1.352,-0.403367 -1.8201,-0.222208 -0.1091,0.04222 -0.1594,-0.01648 -0.2284,-0.265101 -0.1286,-0.463139 -0.1166,-0.480958 0.1664,-0.242879 0.361,0.303795 0.5022,0.287054 0.4062,-0.04806 -0.042,-0.144981 -0.054,-0.350911 -0.027,-0.457853 0.043,-0.172598 0.098,-0.19482 0.4827,-0.19482 0.2386,0 0.6188,0.05534 0.8449,0.122473 0.3313,0.09837 0.4429,0.181313 0.5757,0.427881 0.1788,0.332087 0.6101,0.658299 1.0283,0.778247 0.3118,0.08945 0.3184,0.07149 0.088,-0.240296 -0.097,-0.13079 -0.1956,-0.412099 -0.2196,-0.624768 -0.042,-0.370409 -0.029,-0.398636 0.2961,-0.676961 0.1867,-0.159799 0.3622,-0.364423 0.3912,-0.454753 0.029,-0.09034 0.087,-0.164331 0.1302,-0.164331 0.1134,0 0.088,0.574682 -0.041,0.936894 -0.061,0.171763 -0.083,0.312126 -0.049,0.312126 0.1506,0 0.9168,-0.86047 1.1084,-1.244885 z m -3.1957,0.51573 0.01,0.367937 c 0.011,0.384042 -0.015,0.403224 -0.385,0.284737 -0.1146,-0.03668 -0.3394,-0.07282 -0.4997,-0.08062 l -0.2914,-0.01447 0.3214,-0.117305 c 0.1767,-0.06479 0.439,-0.190463 0.5829,-0.279053 z m -4.4974,0.715719 0.059,0.461987 c 0.032,0.254038 0.116,0.597412 0.185,0.763261 0.106,0.254829 0.1078,0.308176 0.01,0.345716 -0.064,0.02443 -0.1416,0.107358 -0.1736,0.183968 -0.032,0.07661 -0.083,0.345459 -0.1127,0.597379 l -0.055,0.457853 -0.1571,-0.401526 c -0.1014,-0.260089 -0.1649,-0.626687 -0.1649,-1.040763 -0.01,-0.537494 0.026,-0.697399 0.201,-1.003556 z m 1.8195,1.344104 c 0.024,0.009 0.053,0.02827 0.09,0.05581 0.1585,0.116346 0.1585,0.121297 -0.011,0.306441 -0.4605,0.503598 -0.596,1.28802 -0.3313,1.916162 h -5e-4 c 0.073,0.171763 0.1216,0.312126 0.1086,0.312126 -0.064,0 -0.3815,-0.407015 -0.4977,-0.637171 -0.1395,-0.275149 -0.2413,-1.301292 -0.1225,-1.227832 0.038,0.0234 0.069,0.152611 0.069,0.287321 0,0.134707 0.033,0.244946 0.074,0.244946 0.095,0 0.3453,-0.526914 0.4609,-0.972033 0.063,-0.243224 0.088,-0.312687 0.1602,-0.285771 z m 5.7087,0.731738 c -0.2326,-0.02006 -0.4961,0.282624 -0.5478,0.667143 -0.058,0.433975 0.013,0.730685 0.2259,0.943612 0.09,0.09044 0.2042,0.164847 0.2532,0.164847 0.1496,0 0.4108,-0.167243 0.4108,-0.263033 0,-0.05972 -0.041,-0.0559 -0.1235,0.01189 -0.1854,0.153806 -0.5307,0.03481 -0.5907,-0.203605 -0.07,-0.278835 0.034,-0.429621 0.169,-0.244946 0.1213,0.165886 0.3788,0.105579 0.3788,-0.08888 0,-0.08141 0.077,-0.127641 0.2139,-0.127641 0.1829,0 0.2057,-0.0274 0.1577,-0.187585 -0.084,-0.281742 -0.2691,-0.545478 -0.4501,-0.642338 -0.031,-0.01673 -0.064,-0.02659 -0.097,-0.02946 z m -4.2106,0.04186 c -0.1031,0.018 -0.1659,0.09885 -0.2734,0.309542 -0.2652,0.51978 -0.2036,1.041785 0.1551,1.317232 v 0 c 0.1944,0.14925 0.3043,0.13007 0.5643,-0.0987 0.1288,-0.113059 0.1921,-0.206656 0.1401,-0.208256 -0.052,-0.0014 -0.1404,0.05377 -0.1974,0.122473 -0.2136,0.257386 -0.6667,0.02569 -0.6667,-0.341064 0,-0.247362 0.1352,-0.330119 0.1912,-0.116789 0.064,0.243918 0.3096,0.308155 0.4496,0.117306 0.064,-0.0876 0.1001,-0.22262 0.08,-0.30024 -0.024,-0.09252 0.02,-0.150235 0.1277,-0.166915 0.158,-0.02457 0.1568,-0.03522 -0.033,-0.316777 -0.1273,-0.188864 -0.2748,-0.300483 -0.4186,-0.317293 -0.047,-0.0054 -0.086,-0.0065 -0.1199,-5.17e-4 z m 6.9298,0 c 0.022,0.009 0.038,0.04744 0.038,0.101286 0,0.186383 -0.4971,0.718805 -0.4971,0.535885 -10e-4,-0.07641 -0.023,-0.192016 -0.047,-0.256316 -0.04,-0.103507 0.034,-0.161409 0.4821,-0.379821 0.01,-0.0042 0.017,-0.004 0.024,-0.001 z m -0.082,1.150834 c 0.02,0 0.037,0.0374 0.037,0.0832 0,0.04581 -0.04,0.0832 -0.088,0.0832 -0.049,0 -0.065,-0.0374 -0.037,-0.0832 0.028,-0.0458 0.068,-0.0832 0.088,-0.0832 z m -0.027,0.348816 c 0.1094,-0.02102 0.1434,0.0562 0.1674,0.374654 0.03,0.397494 0.031,0.398104 0.1003,0.12299 0.084,-0.334551 0.2113,-0.202347 0.2113,0.222726 9e-4,0.192933 -0.1047,0.429271 -0.3441,0.770495 -0.3741,0.533356 -0.6119,0.653703 -0.5199,0.263033 0.03,-0.125963 0.1472,-0.329706 0.2615,-0.452685 0.1543,-0.167926 0.1945,-0.276751 0.1545,-0.437183 -0.073,-0.290824 -0.2244,-0.272435 -0.1664,0.02015 0.032,0.158562 0,0.269625 -0.088,0.345715 -0.123,0.101468 -0.1301,0.077 -0.081,-0.254765 0.1158,-0.779272 0.1689,-0.949044 0.3044,-0.975134 z m -10.3978,0.611332 c -0.012,-0.0075 -0.026,-0.0066 -0.041,0.0031 -0.1617,0.09998 -0.037,0.848702 0.1788,1.079004 0.2563,0.272534 0.2963,0.207598 0.085,-0.138493 -0.102,-0.167568 -0.1709,-0.424006 -0.1711,-0.638721 0,-0.181948 -0.017,-0.282414 -0.052,-0.304891 z m 6.2409,0.473357 c -0.025,0.0063 -0.025,0.05994 5e-4,0.156579 0.03,0.110221 0.055,0.249065 0.055,0.309025 0,0.05995 0.033,0.08912 0.073,0.0646 0.092,-0.05655 0.02,-0.449949 -0.095,-0.520899 -0.014,-0.0086 -0.025,-0.0114 -0.034,-0.0093 z m -3.9408,0.148828 c -0.046,0 -0.083,0.0374 -0.083,0.0832 0,0.0458 0.037,0.0832 0.083,0.0832 0.045,0 0.083,-0.0374 0.083,-0.0832 0,-0.0458 -0.037,-0.0832 -0.083,-0.0832 z m 7.167,0.0832 c -0.043,0 -0.1017,0.0374 -0.1297,0.0832 -0.029,0.0458 0.01,0.0832 0.078,0.0832 0.072,0 0.1297,-0.0374 0.1297,-0.0832 0,-0.0458 -0.035,-0.0832 -0.078,-0.0832 z m -6.6358,0.365352 c -0.01,-3.39e-4 -0.021,0.0031 -0.032,0.01033 -0.047,0.02877 -0.063,0.08707 -0.037,0.129708 v 0 c 0.071,0.115509 0.1214,0.09409 0.1214,-0.05219 0,-0.05357 -0.022,-0.08683 -0.053,-0.08785 z m -1.0309,0.05064 c -0.046,0 -0.083,0.03792 -0.083,0.08372 0,0.0458 0.037,0.0832 0.083,0.0832 0.046,0 0.083,-0.0374 0.083,-0.0832 0,-0.0458 -0.037,-0.08372 -0.083,-0.08372 z m 0.4997,0.666626 c -0.046,0 -0.083,0.0374 -0.083,0.0832 0,0.0458 0.037,0.0832 0.083,0.0832 0.045,0 0.083,-0.0374 0.083,-0.0832 0,-0.0458 -0.037,-0.0832 -0.083,-0.0832 z m 6.9313,0.03617 c -0.023,0.0067 -0.045,0.0222 -0.06,0.04548 -0.028,0.04655 0.01,0.08475 0.078,0.08475 0.146,0 0.1673,-0.05005 0.052,-0.12144 -0.021,-0.01318 -0.046,-0.01544 -0.07,-0.0088 z m -4.7635,0.34985 c -0.07,0.07006 0.1955,0.190147 0.6424,0.290938 0.3496,0.07883 0.4679,0.151083 0.5916,0.360702 0.085,0.144023 0.2819,0.324289 0.4377,0.401009 h -10e-4 c 0.3743,0.184363 0.3807,0.183104 0.6739,-0.110071 0.2038,-0.205514 0.2441,-0.29961 0.2041,-0.499711 -0.032,-0.161262 -0.015,-0.246497 0.049,-0.246497 0.062,0 0.069,-0.029 0.019,-0.07906 -0.049,-0.04944 -0.2036,-0.04983 -0.4119,-0.0015 -0.4873,0.112951 -1.1907,0.09748 -1.7099,-0.03721 -0.2504,-0.06493 -0.4726,-0.100168 -0.4946,-0.07855 z m 2.1715,0.311092 c 0.2357,-0.01087 0.2413,0.0284 0.2413,0.180351 0,0.112783 -0.075,0.279943 -0.1669,0.371553 -0.1998,0.199843 -0.3057,0.204815 -0.5907,0.02791 -0.2019,-0.125348 -0.4532,-0.433518 -0.3932,-0.482658 0.015,-0.01204 0.2793,-0.04426 0.5885,-0.07183 0.1381,-0.01238 0.2424,-0.0217 0.321,-0.02532 z m -5.9495,0.02946 c 0.1014,0.01679 0.2304,0.173911 0.5064,0.549837 0.273,0.372134 0.3158,0.497992 0.3648,1.066085 0.036,0.422759 0.1306,0.808353 0.2744,1.122412 0.1205,0.263117 0.1895,0.500546 0.1545,0.527616 -0.036,0.02707 -0.1935,-0.07696 -0.3514,-0.230994 -0.2702,-0.263734 -0.2903,-0.320194 -0.3333,-0.966866 -0.044,-0.650882 -0.063,-0.707251 -0.3793,-1.082621 -0.5838,-0.694048 -0.5837,-0.694535 -0.4149,-0.881083 0.067,-0.07424 0.1179,-0.114463 0.1788,-0.104386 z m 0.8748,0.439249 c 0.038,0 0.072,0.08401 0.072,0.187069 0,0.103058 0.054,0.280828 0.1173,0.394808 l 0.1147,0.207222 0.1018,-0.223242 c 0.099,-0.216927 0.3089,-0.364402 0.3959,-0.277502 0.066,0.06638 0.1682,0.793479 0.1782,1.21853 0,0.269596 -0.04,0.423282 -0.1472,0.520382 -0.1806,0.163351 -0.1807,0.163642 -0.3706,0.01964 -0.1782,-0.135176 -0.3095,-0.553724 -0.3095,-0.988054 0,-0.17389 -0.073,-0.4599 -0.1628,-0.63562 -0.1537,-0.300709 -0.1509,-0.42323 0.01,-0.42323 z m 7.55,0.0832 c 0.038,0 0.2097,0.520726 0.3813,1.157552 h 5e-4 c 0.307,1.139814 0.31,1.166955 0.1995,1.721859 -0.1121,0.563692 -0.1119,0.563409 -0.2651,0.329696 -0.135,-0.205335 -0.142,-0.289224 -0.061,-0.694015 0.1374,-0.684177 0.1122,-1.068389 -0.1173,-1.807125 -0.2383,-0.767126 -0.2269,-0.707967 -0.1379,-0.707967 z m -6.518,0.347266 c 0.012,-0.01514 0.2999,0.192813 0.6392,0.462504 0.806,0.640473 2.023,1.27204 2.4505,1.271757 0.2443,-1.6e-4 0.4664,-0.09731 0.9406,-0.412895 0.3414,-0.227207 0.6335,-0.400332 0.6495,-0.384472 0.016,0.01586 0,0.221823 -0.028,0.457853 -0.065,0.48679 -0.2014,0.606769 -0.7426,0.650089 v 0 c -1.6631,0.133123 -2.2463,0.05074 -3.2572,-0.460437 l -0.4868,-0.246496 -0.093,-0.655257 c -0.051,-0.360394 -0.083,-0.667506 -0.071,-0.682646 z m 5.3914,0.551387 -0.053,0.445968 c -0.03,0.245237 -0.055,0.539712 -0.055,0.654224 h -5e-4 c -9e-4,0.135147 -0.068,0.239073 -0.1928,0.296622 -0.294,0.136388 -0.3829,0.06273 -0.3379,-0.281119 0.1065,-0.816758 0.1177,-0.846067 0.3803,-0.981853 z m -4.7677,0.249598 c -0.1252,-0.02023 -0.1306,0.06709 0.058,0.17725 0.1531,0.08911 0.354,0.117943 0.354,0.05064 0,-0.02173 -0.1127,-0.09741 -0.2501,-0.168465 -0.066,-0.03389 -0.1205,-0.05268 -0.1623,-0.05943 z m 0.277,0.350883 c -0.073,0 -0.1008,0.0374 -0.073,0.0832 0.028,0.04581 0.1072,0.0832 0.1762,0.0832 0.073,0 0.1008,-0.0374 0.073,-0.0832 -0.028,-0.0458 -0.1072,-0.0832 -0.1762,-0.0832 z m 0.029,0.253731 c -0.043,5.23e-4 -0.043,0.04087 0.023,0.120923 0.057,0.06857 0.1639,0.124071 0.2388,0.122473 0.114,-0.0022 0.1099,-0.02234 -0.026,-0.125057 -0.1065,-0.07965 -0.1929,-0.118862 -0.2361,-0.118339 z m -4.9589,0.0041 c 0.055,0.0023 0.1234,0.01105 0.2124,0.02325 0.2084,0.02855 0.5072,0.05168 0.664,0.05168 0.27,0 0.2839,0.01429 0.2589,0.262516 -0.026,0.259719 -0.034,0.263771 -0.7756,0.414962 -0.4122,0.08398 -0.7784,0.153367 -0.8134,0.153996 -0.082,0.0018 0.011,-0.387428 0.1664,-0.696082 0.085,-0.168704 0.1233,-0.217208 0.2873,-0.210323 z m 4.1853,0.09457 c 0.013,-0.01273 0.1879,0.07048 0.3891,0.185518 0.5643,0.322579 1.3297,0.548789 2.0707,0.611849 l 0.6749,0.05736 -0.569,0.564824 c -0.3132,0.310501 -0.5975,0.536801 -0.6315,0.502811 -0.034,-0.03399 -0.5006,-0.257102 -1.0366,-0.495577 l -0.9746,-0.433565 0.027,-0.485242 c 0.015,-0.26685 0.037,-0.495259 0.05,-0.507978 z m -0.2259,0.162781 c 0.012,0.0052 0.012,0.06732 0.012,0.192236 -5e-4,0.545011 -0.2207,0.645837 -0.4485,0.205155 -0.1713,-0.330863 -0.1494,-0.409103 0.048,-0.172082 0.091,0.109551 0.1762,0.184338 0.1892,0.166398 0.013,-0.01794 0.065,-0.1263 0.1173,-0.240812 0.047,-0.1041 0.07,-0.1561 0.082,-0.150895 z m 7.6404,0.317293 c 0.1759,0 0.2108,0.03932 0.2108,0.234094 0,0.328921 0.1564,0.487403 0.5359,0.544153 0.448,0.06701 0.5311,0.176622 0.6646,0.876949 0.063,0.333476 0.1864,0.688049 0.2734,0.787549 0.087,0.0995 0.2077,0.246435 0.2687,0.326595 0.2396,0.316385 -0.4069,0.0038 -0.7075,-0.342098 -0.1596,-0.183724 -0.2178,-0.204207 -0.3478,-0.125057 -0.1261,0.07671 -0.2184,0.05662 -0.4836,-0.10387 -0.3723,-0.225361 -0.651,-0.247019 -0.953,-0.07441 -0.3196,0.182739 -0.3274,0.159483 -0.1214,-0.353983 0.1057,-0.263373 0.237,-0.722367 0.292,-1.020093 0.1411,-0.762324 0.1348,-0.749825 0.3679,-0.749825 z m -2.9874,0.05426 c 0.044,7.41e-4 0.081,0.0287 0.1375,0.08475 0.1039,0.103919 0.1612,0.108784 0.3152,0.02635 0.1724,-0.09248 0.1845,-0.08563 0.1405,0.08268 -0.028,0.108632 0.017,0.289258 0.1096,0.44235 0.115,0.19034 0.1327,0.287063 0.067,0.366903 -0.049,0.05954 -0.1132,0.107913 -0.1422,0.10697 -0.029,-9.22e-4 -0.2626,-0.205835 -0.5203,-0.455269 -0.467,-0.451954 -0.4681,-0.453723 -0.2827,-0.575159 0.082,-0.05371 0.1319,-0.08032 0.1757,-0.07958 z m -7.4512,0.113688 c 0.028,-7.17e-4 0.074,0.140762 0.1023,0.314193 0.028,0.173431 0.1445,0.501286 0.2599,0.728638 0.1151,0.227352 0.2101,0.417513 0.2103,0.422713 0,0.03275 -1.0782,0.214848 -1.7068,0.287838 -0.4123,0.04786 -0.7871,0.126623 -0.8331,0.175183 -0.058,0.06162 0,0.07634 0.2083,0.04858 0.2448,-0.03344 0.2655,-0.02505 0.1297,0.05271 -0.089,0.05092 -0.2522,0.178893 -0.3628,0.284737 -0.1106,0.105843 -0.4313,0.26472 -0.7126,0.35295 -0.2815,0.08823 -0.5212,0.161118 -0.5322,0.161747 -0.059,0.0031 0,-0.163002 0.1757,-0.499194 0.1085,-0.206232 0.2227,-0.610165 0.2547,-0.900204 0.032,-0.289365 0.078,-0.578104 0.1018,-0.641304 0.056,-0.145009 0.8382,-0.406112 1.8619,-0.621151 0.4351,-0.09141 0.8149,-0.166802 0.8429,-0.167432 z m 6.6662,0.04031 c 0.037,0 0.3453,0.243844 0.6842,0.541569 0.6682,0.586927 0.7516,0.75727 0.8542,1.738912 0.077,0.740837 -0.2597,2.056719 -0.5777,2.253609 -0.1009,0.06251 -0.269,0.168978 -0.3731,0.236678 -0.189,0.123083 -0.189,0.122847 -0.139,-0.366902 0.037,-0.358032 0.027,-0.456166 -0.038,-0.364836 -0.049,0.06871 -0.091,0.225052 -0.091,0.347266 -10e-4,0.122213 -0.024,0.281533 -0.052,0.353983 -0.053,0.13846 -0.1877,0.152981 -0.5312,0.05736 -0.1411,-0.03928 -0.1744,-0.078 -0.1044,-0.12144 0.2009,-0.124176 0.1,-0.209187 -0.1927,-0.161747 -0.2536,0.04109 -0.3026,0.02237 -0.3426,-0.129191 -0.026,-0.0975 -0.082,-0.155684 -0.1261,-0.128674 -0.044,0.02702 -0.058,0.10696 -0.031,0.17725 0.044,0.113985 0.029,0.114084 -0.1401,0.0026 -0.2129,-0.140539 -0.4629,-0.900197 -0.4739,-1.438155 0,-0.183213 0.05,-0.651952 0.1179,-1.041281 0.124,-0.707876 0.1236,-0.707621 0.8056,-1.332218 0.3752,-0.343526 0.7128,-0.624768 0.7498,-0.624768 z m 0.054,0.14366 c -0.043,-0.02231 -0.026,0.152449 0.056,0.505396 0.062,0.264604 0.138,0.760857 0.17,1.102775 h 5e-4 c 0.032,0.341914 0.091,0.621668 0.1313,0.621668 0.1593,0 0,-1.453266 -0.2191,-1.97249 -0.067,-0.159495 -0.1135,-0.243959 -0.139,-0.257349 z m -4.2995,0.08423 1.2423,0.573092 c 0.6832,0.315288 1.2833,0.573091 1.3333,0.573091 0.053,0 0.067,0.06157 0.035,0.145728 -0.1129,0.292954 -0.2915,1.152107 -0.2915,1.395264 5e-4,0.137409 0.087,0.502663 0.1923,0.811836 0.1055,0.309176 0.1696,0.560523 0.1436,0.558623 -0.026,-0.0018 -0.2639,-0.123194 -0.5276,-0.270268 -0.4015,-0.223871 -0.4933,-0.31942 -0.5663,-0.584977 -0.072,-0.262882 -0.1496,-0.343496 -0.4501,-0.472323 -0.2126,-0.09114 -0.3829,-0.226853 -0.4119,-0.328145 -0.027,-0.09502 -0.068,-0.239838 -0.091,-0.321428 -0.033,-0.118531 0.1092,-0.0749 0.7065,0.216008 0.4112,0.200239 0.7951,0.347845 0.8531,0.328145 0.058,-0.01971 -0.2389,-0.196568 -0.6604,-0.392741 l -0.7664,-0.356567 0.2507,-0.496094 c 0.1382,-0.272961 0.2371,-0.537411 0.2201,-0.587561 -0.044,-0.130684 -0.3855,0.449573 -0.4475,0.759644 -0.028,0.143607 -0.072,0.260966 -0.097,0.260966 -0.09,0 -1.2479,-0.750955 -1.3529,-0.877466 -0.092,-0.110873 -0.049,-0.188808 0.2889,-0.532268 z m 6.7376,0.06408 c 0.064,3.11e-4 0.2049,0.129306 0.3121,0.286804 0.2532,0.371769 0.1954,0.641942 -0.2713,1.275891 -0.1949,0.264664 -0.454,0.546775 -0.5762,0.626835 -0.2222,0.144666 -0.2222,0.144305 -0.2222,-0.06821 0,-0.117603 -0.062,-0.460315 -0.138,-0.76171 -0.1326,-0.528773 -0.1317,-0.55107 0.021,-0.63407 0.087,-0.04731 0.2932,-0.230177 0.4579,-0.406177 0.1648,-0.176 0.3525,-0.319675 0.4165,-0.31936 z m -0.076,0.187585 c -0.038,0.01922 0.016,0.154971 0.1556,0.383439 h 5e-4 c 0.094,0.154027 0.1899,0.260478 0.2139,0.236678 0.053,-0.05313 -0.1854,-0.527856 -0.3012,-0.599446 -0.033,-0.02039 -0.056,-0.02708 -0.069,-0.02067 z m -6.3376,0.06201 c -0.094,0 -0.4237,0.667918 -0.4237,0.858862 0,0.232625 0.061,0.163071 0.2852,-0.327628 0.2417,-0.527954 0.2426,-0.531234 0.1385,-0.531234 z m 6.1692,0.176733 c -0.037,0.02077 0.01,0.199684 0.1266,0.444934 0.077,0.161867 0.1713,0.294039 0.2093,0.294039 0.077,0 -0.1457,-0.578483 -0.2703,-0.703316 -0.032,-0.03152 -0.053,-0.04258 -0.066,-0.03566 z m -0.3793,0.369487 c -0.013,-0.0066 -0.023,-0.0042 -0.027,0.0093 -0.018,0.05383 0.05,0.260284 0.1514,0.45837 0.1015,0.19809 0.1995,0.315829 0.2175,0.261999 0.018,-0.05383 -0.049,-0.259763 -0.1508,-0.457853 -0.076,-0.148568 -0.1507,-0.252049 -0.1907,-0.271818 z m -1.1638,0.119889 c -0.09,0 -0.059,0.210599 0.047,0.31626 0.1122,0.111989 0.23,0.132304 0.23,0.03772 0,-0.08722 -0.212,-0.353984 -0.277,-0.353984 z m -1.0149,0.05168 c -0.1118,-0.04292 -0.371,0.146165 -0.371,0.270784 0,0.03337 0.045,0.105754 0.1002,0.160714 0.1311,0.131135 0.1953,0.126097 0.3488,-0.02739 0.1401,-0.140237 0.1026,-0.334809 -0.078,-0.404108 z m -2.0443,0.03152 c -0.1026,0 -0.3251,0.560044 -0.3251,0.818038 0,0.128769 0.03,0.182832 0.074,0.135392 0.1145,-0.122745 0.3332,-0.95343 0.2512,-0.95343 z m 5.3676,0.09664 c 0.059,-0.05027 -0.089,0.349599 -0.3685,0.957048 h -5e-4 c -0.1759,0.382382 -0.3403,0.695048 -0.3653,0.695048 -0.025,0 -0.045,-0.131264 -0.045,-0.291972 0,-0.201288 0.071,-0.371713 0.2289,-0.54777 0.1259,-0.140564 0.3147,-0.411946 0.4191,-0.603064 0.069,-0.125795 0.1116,-0.192532 0.1313,-0.20929 z m -8.9674,0.182935 c 0.093,0.01471 0.1782,0.06743 0.3292,0.170015 0.1754,0.119212 0.3603,0.216524 0.4103,0.216524 0.051,0 0.2127,0.150245 0.3602,0.33383 0.1476,0.183586 0.4679,0.484863 0.7121,0.66921 0.441,0.332972 0.445,0.340211 0.6206,1.102775 0.2086,0.903985 0.2079,0.892452 0.064,0.892452 -0.1931,0 -0.4115,0.312454 -0.3695,0.529684 0.034,0.177649 0,0.208234 -0.2605,0.251664 h -5e-4 c -0.1645,0.02719 -0.4704,0.05001 -0.68,0.05064 -0.3749,9.03e-4 -0.3812,-0.0032 -0.3452,-0.247014 0.03,-0.205046 0,-0.264456 -0.1871,-0.348816 -0.1707,-0.07775 -0.2601,-0.07903 -0.3783,-0.0052 -0.1367,0.08533 -0.1667,0.06026 -0.2547,-0.212907 -0.2198,-0.678307 -0.6118,-1.305075 -1.202,-1.92288 l -0.6171,-0.646472 0.5168,-0.334864 c 0.2843,-0.184384 0.6912,-0.382533 0.9043,-0.440283 0.1834,-0.0497 0.2843,-0.07311 0.3773,-0.05839 z m 9.7203,0.401526 c 0.098,0.0151 0.2005,0.06642 0.3757,0.163814 0.2879,0.160089 0.4083,0.289204 0.4863,0.522449 0.1371,0.409401 0.2578,1.581252 0.2088,2.026233 -0.033,0.301128 -0.067,0.353983 -0.2279,0.353983 -0.2358,0 -0.3969,0.186171 -0.3969,0.45837 h -5e-4 c 0,0.212994 -0.05,0.231273 -0.3721,0.136943 -0.1404,-0.041 -0.1654,-0.08424 -0.1054,-0.178801 0.1262,-0.198612 0.095,-0.403274 -0.089,-0.587561 -0.1054,-0.105359 -0.2295,-0.152046 -0.3245,-0.121956 -0.1336,0.04253 -0.1619,-0.01506 -0.2119,-0.449585 -0.032,-0.274254 -0.1264,-0.809541 -0.2114,-1.189592 -0.1527,-0.687067 -0.1525,-0.692126 0.016,-0.836124 0.093,-0.07965 0.3216,-0.19028 0.5074,-0.24598 0.1548,-0.04637 0.2476,-0.0673 0.3452,-0.05219 z m 1.0031,0.235127 c 0.082,0 0.2037,0.144764 0.2987,0.353984 0.1309,0.288535 0.1617,0.546115 0.1617,1.394747 0,0.924705 -0.086,1.843831 -0.2145,2.269112 h -10e-4 c -0.031,0.101245 -0.1248,0.14381 -0.309,0.13901 -0.364,-0.0096 -1.8882,-0.523286 -1.9792,-0.667143 -0.04,-0.06424 -0.076,-0.435424 -0.076,-0.824756 0,-0.38933 -0.058,-0.941698 -0.125,-1.227315 -0.095,-0.402593 -0.1009,-0.566312 -0.027,-0.728638 0.053,-0.115166 0.1204,-0.209289 0.1524,-0.209289 0.066,0 0.3034,1.358361 0.3814,2.181262 0.034,0.35654 0.1027,0.601858 0.1897,0.680578 0.1245,0.112236 1.1086,0.386023 1.388,0.386023 0.2653,0 0.3845,-0.52249 0.3845,-1.749247 0,-0.551507 -0.1438,-1.429912 -0.307,-1.8526 -0.039,-0.102779 -0.015,-0.145728 0.082,-0.145728 z m -13.1527,0.03307 c 0.1721,-0.0089 0.4064,0.177246 0.9472,0.729672 0.7396,0.755571 1.0823,1.291608 1.3875,2.170926 l 0.2682,0.772046 0.4481,0.02894 c 0.2464,0.01581 0.8141,-0.01687 1.2619,-0.07235 1.0984,-0.136072 1.1506,-0.24519 0.7695,-1.62264 -0.2556,-0.917315 -0.2558,-0.890534 -0.01,-0.778764 0.1767,0.08055 0.2223,0.20381 0.3757,1.018543 0.2292,1.216715 0.2258,1.368527 -0.032,1.466577 -0.115,0.04288 -0.839,0.104014 -1.6123,0.135392 -1.6325,0.06627 -1.5127,0.126615 -1.8418,-0.925008 -0.1003,-0.320627 -0.273,-0.738877 -0.3834,-0.929142 -0.2703,-0.465721 -0.9791,-1.230731 -1.4232,-1.53634 -0.3913,-0.269184 -0.4378,-0.360811 -0.2253,-0.442351 0.023,-0.0087 0.046,-0.01423 0.07,-0.0155 z m 7.8594,0.05013 c -0.086,0 -0.099,0.445677 -0.016,0.529167 0.09,0.09016 0.232,0.01197 0.262,-0.144694 0.029,-0.149874 -0.1211,-0.384473 -0.246,-0.384473 z m 1.417,0 c -0.086,0 -0.1011,0.278682 -0.019,0.360702 0.08,0.08039 0.1943,0.06839 0.1943,-0.02067 0,-0.144098 -0.1012,-0.340031 -0.1752,-0.340031 z m -9.5167,0.274402 c 0.023,0.02293 -0.2324,0.125424 -0.5674,0.227893 -0.974,0.297912 -1.0107,0.328036 -1.3395,1.097091 -0.5238,1.225579 -0.8935,2.661348 -0.8935,3.470072 v 0.374655 l -0.249,-0.238229 c -0.3608,-0.346233 -0.4121,-0.187693 -0.054,0.170016 0.2527,0.252387 0.2869,0.328267 0.2139,0.465604 -0.048,0.09026 -0.064,0.274553 -0.034,0.409278 h -5e-4 c 0.052,0.235453 0.042,0.244946 -0.2444,0.244946 h -0.2982 v -0.734839 c 0,-0.668956 0.018,-0.751883 0.201,-0.923458 0.1869,-0.175504 0.2027,-0.178266 0.2367,-0.03566 0.053,0.223697 0.087,0.09806 0.3912,-1.463994 0.306,-1.568789 0.5111,-2.183109 0.8051,-2.414323 0.2203,-0.173334 1.763,-0.719436 1.833,-0.649056 z m 10.6965,0.05839 c 0.083,0 -0.064,0.710908 -0.2026,0.977718 -0.066,0.12659 -0.2222,0.323707 -0.3472,0.438216 -0.19,0.174365 -0.2131,0.180915 -0.1401,0.03979 0.048,-0.09268 0.1498,-0.411315 0.2248,-0.707967 0.1213,-0.476593 0.2898,-0.747758 0.4651,-0.747757 z m -0.6713,0.340547 c -0.069,0 -0.2717,0.129433 -0.4511,0.287838 -0.1883,0.166566 -0.2736,0.287838 -0.2016,0.287838 0.069,0 0.2718,-0.12943 0.4512,-0.287838 0.1883,-0.166564 0.2735,-0.287838 0.2015,-0.287838 z m 3.9558,0.01034 0.3328,0.129708 c 0.5477,0.212998 0.9906,0.544476 1.1436,0.856278 0.1663,0.33871 0.4427,1.872222 0.5277,2.924886 l 0.058,0.722437 -0.5917,0.297656 c -0.3254,0.163913 -0.6057,0.298173 -0.6237,0.298173 -0.017,0 -0.058,-0.253067 -0.089,-0.56224 -0.061,-0.60395 -0.3231,-1.718078 -0.508,-2.160591 -0.069,-0.165295 -0.082,-0.291041 -0.034,-0.320911 0.09,-0.05577 0.3595,-0.568215 0.4465,-0.849561 0.094,-0.30509 -0.074,-0.213652 -0.2791,0.151412 -0.1046,0.186226 -0.2144,0.314257 -0.2444,0.284738 -0.03,-0.02954 -0.073,-0.440131 -0.096,-0.912606 z m -6.7877,0.152962 c -0.1835,0.0054 0.4814,0.339119 0.9163,0.45992 0.4553,0.1265 0.7299,0.146803 0.6206,0.04599 -0.1006,-0.09273 -1.3709,-0.510812 -1.5369,-0.505912 z m 2.4686,0.349333 c -0.013,0.0017 -0.024,0.006 -0.032,0.01395 -0.032,0.03192 0,0.09144 0.062,0.132292 0.1015,0.0626 0.098,0.08333 -0.023,0.129708 -0.079,0.03027 -0.1431,0.08829 -0.1431,0.129191 0,0.137648 0.2431,0.07611 0.3281,-0.0832 0.063,-0.11754 0.052,-0.18462 -0.041,-0.262 -0.052,-0.04285 -0.111,-0.06493 -0.1509,-0.05994 z m -1.9637,0.08371 c -0.01,-0.0032 -0.023,-0.0024 -0.038,0.0026 -0.1559,0.0536 -0.1586,0.311532 0,0.486792 v 0 c 0.159,0.175645 0.5373,0.186449 0.5933,0.01705 0.02,-0.06203 -0.031,-0.08126 -0.1401,-0.05271 -0.2222,0.05811 -0.4431,-0.127351 -0.3911,-0.327628 0.019,-0.07192 0.011,-0.116536 -0.02,-0.126091 z m 1.7529,0.489376 c -0.01,0.0104 9e-4,0.05337 0.027,0.135909 0.036,0.113844 0.024,0.187069 -0.03,0.187069 -0.049,0 -0.089,0.0374 -0.089,0.0832 h 10e-4 c 0,0.140024 0.155,0.09281 0.245,-0.07441 0.064,-0.119208 0.051,-0.185518 -0.051,-0.270268 -0.06,-0.04959 -0.092,-0.07189 -0.1028,-0.0615 z m 2.559,0.834575 c 0.036,-0.0056 0.074,0.01786 0.1333,0.06718 0.076,0.06297 0.1272,0.192171 0.1132,0.287321 -0.033,0.227327 -0.2819,0.269467 -0.3907,0.06615 -0.062,-0.116372 -0.055,-0.202168 0.027,-0.314193 0.048,-0.06638 0.082,-0.100817 0.1173,-0.106453 z m -6.8967,0.295589 c 0.1268,-0.03682 0.248,0.04157 0.248,0.197921 0,0.203034 -0.2729,0.353954 -0.4036,0.223242 -0.1274,-0.127112 -0.1215,-0.192185 0.031,-0.344682 0.039,-0.0393 0.082,-0.06421 0.1246,-0.07648 z m 8.1235,0.02532 c 0.1728,0 0.2333,0.203333 0.1225,0.410311 -0.1089,0.203562 -0.1956,0.217332 -0.3318,0.05323 -0.1226,-0.147797 0.02,-0.463538 0.2093,-0.463538 z m -10.0965,0.09508 c 0.097,0.01261 0.1881,0.08642 0.2061,0.211873 0.034,0.239102 -0.2543,0.410305 -0.3984,0.236678 -0.054,-0.06571 -0.074,-0.197845 -0.043,-0.294555 0.038,-0.118231 0.1391,-0.166609 0.2357,-0.153996 z m -5.2602,4.702555 c -0.029,-0.01769 -0.077,0.181819 -0.1235,0.438733 a 18.492125,18.492126 0 0 0 0.1633,0.08888 c 0.013,-0.09598 0.027,-0.197041 0.027,-0.260966 10e-4,-0.123255 -0.029,-0.243261 -0.067,-0.266651 z m 14.163,2.042253 c -0.1322,0.0303 -0.2736,0.06302 -0.4439,0.107487 -0.04,0.01037 -0.078,0.01852 -0.1173,0.02842 a 18.492125,18.492126 0 0 0 0.5612,-0.135909 z" />
    </g>
  </g>
</svg>
