<?xml version="1.0" encoding="UTF-8" standalone="no"?>
<!-- Created with Inkscape (http://www.inkscape.org/) -->

<svg
   width="41.008999mm"
   height="41.008999mm"
   viewBox="0 0 41.008999 41.008999"
   version="1.1"
   id="svg1"
   inkscape:version="1.4.2 (f4327f4, 2025-05-13)"
   sodipodi:docname="336.svg"
   xmlns:inkscape="http://www.inkscape.org/namespaces/inkscape"
   xmlns:sodipodi="http://sodipodi.sourceforge.net/DTD/sodipodi-0.dtd"
   xmlns="http://www.w3.org/2000/svg"
   xmlns:svg="http://www.w3.org/2000/svg">
  <sodipodi:namedview
     id="namedview1"
     pagecolor="#ffffff"
     bordercolor="#000000"
     borderopacity="0.25"
     inkscape:showpageshadow="2"
     inkscape:pageopacity="0.0"
     inkscape:pagecheckerboard="0"
     inkscape:deskcolor="#d1d1d1"
     inkscape:document-units="mm"
     inkscape:zoom="1.4513545"
     inkscape:cx="86.470947"
     inkscape:cy="71.657199"
     inkscape:window-width="1050"
     inkscape:window-height="1081"
     inkscape:window-x="857"
     inkscape:window-y="0"
     inkscape:window-maximized="0"
     inkscape:current-layer="layer1" />
  <defs
     id="defs1" />
  <g
     inkscape:label="Layer 1"
     inkscape:groupmode="layer"
     id="layer1"
     transform="translate(333.37504,1257.5646)">
    <g
       id="g115"
       transform="translate(-1374.0381,-1181.6571)">
      <circle
         style="fill:none;stroke:#0000ff;stroke-width:0.1;stroke-linecap:round;stroke-dasharray:none;stroke-opacity:1;paint-order:markers stroke fill"
         id="circle6689-1"
         cx="1061.1676"
         cy="-70.414467"
         r="2" />
      <circle
         style="fill:none;stroke:#ff0000;stroke-width:0.1;stroke-dasharray:none"
         id="circle6699-8"
         cx="1061.1676"
         cy="-55.403049"
         r="19.954653" />
      <ellipse
         style="fill:none;stroke:#ff00ff;stroke-width:0.1;stroke-dasharray:none;stroke-opacity:1"
         id="path1138-9-4-0-0-1-2-0-0-6-8-8-1-2-0-7-3-23"
         cx="1061.1676"
         cy="-55.403049"
         rx="18.492125"
         ry="18.492126" />
      <path
         style="fill:#000000;stroke-width:0.114147"
         d="m 1057.3548,-38.483308 c -0.059,-0.05903 0.041,-0.221481 0.1365,-0.221481 0.051,0 0.087,0.120533 0.054,0.181208 -0.031,0.05789 -0.1489,0.08269 -0.1913,0.04026 z m 0.361,-0.462972 c -0.1189,-0.296968 -0.1398,-0.88448 -0.037,-1.041108 0.062,-0.09377 0.1918,-0.101988 0.2945,-0.01858 0.064,0.05123 0.071,0.081 0.066,0.259452 -0.01,0.270288 -0.068,0.701624 -0.118,0.822746 -0.058,0.140365 -0.1445,0.130849 -0.2058,-0.02251 z m 0.5606,0.03766 c 0.01,-0.06524 0.027,-0.08511 0.093,-0.09261 0.065,-0.0074 0.083,0.0032 0.083,0.04679 0,0.07211 -0.057,0.128852 -0.1288,0.128852 -0.044,0 -0.054,-0.01871 -0.047,-0.08305 z m 5.5813,0.0066 c -0.048,-0.125441 -0.089,-2.399751 -0.093,-5.088023 0,-1.386996 -0.012,-2.594812 -0.022,-2.684031 l -0.02,-0.162221 -0.2323,0.223733 c -0.382,0.367813 -0.3935,0.521347 -0.068,0.926039 0.1731,0.215668 0.1435,0.265946 -0.1667,0.284154 l -0.1357,0.008 0.01,0.332213 c 0.01,0.264582 -0.01,0.375243 -0.053,0.543531 -0.034,0.116221 -0.062,0.218152 -0.062,0.226515 -1e-4,0.0083 0.073,0.01065 0.1625,0.0051 0.3324,-0.02073 0.4415,0.118225 0.4415,0.562126 0,0.306801 -0.015,0.336448 -0.2199,0.430904 -0.08,0.03665 -0.1563,0.08877 -0.1708,0.115835 -0.049,0.09118 -0.09,0.390257 -0.1378,1.006484 -0.055,0.704007 -0.086,0.910849 -0.1537,1.013902 -0.052,0.08065 -0.044,0.187479 0.037,0.439818 0.034,0.103631 0.038,0.15555 0.015,0.178419 -0.042,0.04274 -0.1253,-0.02448 -0.1253,-0.102033 0,-0.04914 -0.01,-0.05186 -0.06,-0.01972 -0.04,0.0251 -0.069,0.02727 -0.09,0.0067 -0.097,-0.09732 -0.1192,-0.774713 -0.046,-1.42874 0.048,-0.426726 0.032,-0.671234 -0.056,-0.839636 -0.1037,-0.200388 -0.2719,-0.248725 -0.3437,-0.09868 -0.081,0.170614 -0.1933,1.538342 -0.1258,1.538342 0.015,0 0.026,-0.02377 0.026,-0.05288 0,-0.0291 0.015,-0.07324 0.033,-0.09816 0.023,-0.03322 0.028,0.0019 0.02,0.13114 -0.013,0.184404 -0.046,0.22999 -0.1643,0.230814 -0.1296,6.34e-4 -0.139,-0.07284 -0.1654,-1.298195 -0.014,-0.639514 -0.038,-1.243112 -0.054,-1.341334 -0.031,-0.19096 -0.1194,-0.319742 -0.219,-0.319742 -0.069,0 -0.2538,0.136296 -0.3029,0.22365 -0.023,0.04159 -0.042,0.339206 -0.054,0.868401 -0.017,0.726965 -0.024,0.813464 -0.076,0.890941 -0.053,0.07878 -0.057,0.134253 -0.049,0.677663 l 0.01,0.591862 -0.248,0.185026 c -0.5575,0.415871 -0.7156,0.360591 -0.7824,-0.273446 -0.017,-0.153927 -0.03,-0.433199 -0.03,-0.620602 0,-0.217176 -0.015,-0.375972 -0.041,-0.437922 -0.047,-0.112456 -0.2979,-0.35389 -0.3674,-0.35389 -0.1258,0 -0.4477,0.236901 -0.9768,0.718894 -0.5019,0.457203 -0.6985,0.590695 -0.7882,0.535257 -0.018,-0.01096 -0.058,-0.07095 -0.09,-0.13322 -0.073,-0.142813 -0.1563,-0.218222 -0.1762,-0.159113 -0.01,0.02238 -0.056,0.08882 -0.1076,0.147656 -0.08,0.09033 -0.084,0.103865 -0.031,0.087 0.1498,-0.04755 0.1536,0.156424 0.011,0.625877 -0.031,0.102324 -0.093,0.33554 -0.1371,0.518258 -0.1126,0.462585 -0.1245,0.477764 -0.3614,0.462681 -0.3355,-0.02137 -0.6567,-0.285429 -0.6621,-0.544254 0,-0.113996 0.01,-0.132148 0.088,-0.168135 0.165,-0.07349 0.1795,-0.08732 0.1997,-0.191017 0.011,-0.05662 0.026,-0.273667 0.035,-0.482379 l 0.015,-0.379485 -0.2156,0.114428 c -0.2347,0.124647 -0.4058,0.145088 -0.6351,0.07587 -0.1446,-0.04362 -0.2184,-0.138368 -0.2757,-0.353477 -0.065,-0.245086 -0.058,-0.296886 0.061,-0.408676 0.058,-0.05484 0.1057,-0.125744 0.1057,-0.157591 0,-0.06788 -0.1431,-0.274047 -0.2476,-0.35668 -0.106,-0.08389 -0.1158,-0.135977 -0.066,-0.349108 0.062,-0.262724 0.1132,-0.336651 0.22,-0.313179 0.098,0.02155 0.1469,-0.04001 0.3818,-0.482557 0.4298,-0.809888 1.0396,-1.568268 2.5382,-3.156045 0.1018,-0.107973 0.3196,-0.342718 0.484,-0.521657 0.1844,-0.200933 0.3473,-0.348964 0.4257,-0.3871 0.07,-0.03398 0.3213,-0.101608 0.5587,-0.150319 0.4282,-0.08782 0.4328,-0.08966 0.5484,-0.216929 0.1714,-0.188468 0.5535,-0.982727 0.5922,-1.230711 0.088,-0.560985 -0.025,-1.192352 -0.2574,-1.438294 l -0.098,-0.103624 -0.1617,0.06576 c -0.4462,0.181355 -1.3241,0.458655 -1.4959,0.472439 -0.2547,0.02048 -0.3592,-0.04736 -0.5656,-0.366811 -0.1791,-0.277111 -0.5397,-0.631273 -0.756,-0.742549 -0.1576,-0.08104 -0.2285,-0.161845 -0.2285,-0.260334 0,-0.09128 -0.1264,-0.206576 -0.2946,-0.26876 -0.2309,-0.08539 -0.2732,-0.125263 -0.3866,-0.364129 -0.097,-0.204686 -0.1335,-0.247083 -0.3776,-0.439622 -0.1486,-0.117198 -0.2701,-0.233756 -0.2701,-0.259015 0,-0.0253 0.073,-0.150123 0.1631,-0.277464 0.09,-0.127337 0.1867,-0.303296 0.2154,-0.391019 0.093,-0.284414 0.01,-0.579612 -0.2064,-0.70433 -0.1744,-0.102165 -0.2784,-0.216821 -0.4185,-0.461368 -0.067,-0.117832 -0.1975,-0.327603 -0.2891,-0.466162 -0.092,-0.138551 -0.2013,-0.339002 -0.2436,-0.445435 -0.042,-0.106438 -0.081,-0.188874 -0.087,-0.183193 -0.023,0.0232 0.1196,0.646223 0.1852,0.807384 0.081,0.201275 0.2659,0.493639 0.5093,0.808664 0.094,0.12215 0.1716,0.234269 0.1716,0.249163 0,0.106755 -0.3874,-0.107499 -0.6909,-0.382136 -0.1702,-0.153965 -0.4513,-0.493183 -0.6487,-0.782834 -0.064,-0.09394 -0.1225,-0.164661 -0.13,-0.157148 -0.044,0.04419 0.2042,0.809489 0.3715,1.144738 0.1411,0.282779 0.1533,0.325263 0.093,0.325263 -0.065,0 -0.5199,-0.381031 -0.8803,-0.736829 -0.6957,-0.687015 -0.9301,-1.116118 -1.0619,-1.944075 -0.03,-0.187169 -0.065,-0.336663 -0.077,-0.332219 -0.013,0.0044 -0.1218,0.103687 -0.2432,0.220524 -0.2783,0.267904 -0.5875,0.535345 -0.839,0.725645 -0.2388,0.180727 -0.6592,0.436084 -0.7179,0.436084 -0.024,0 0.028,-0.08185 0.1207,-0.18876 0.2211,-0.254995 0.3198,-0.406234 0.4977,-0.762583 0.2486,-0.497793 0.5923,-1.431979 0.7319,-1.989237 0.061,-0.242911 0.062,-0.269984 0.019,-0.318359 -0.086,-0.09508 -0.052,-0.169042 0.2103,-0.457412 0.3314,-0.364307 0.4358,-0.569462 0.4586,-0.901417 0.01,-0.13456 0.01,-0.244656 -0.01,-0.244656 -0.055,0 -0.7898,0.482276 -0.989,0.649257 -0.1198,0.100511 -0.3031,0.28435 -0.4071,0.408522 -0.2702,0.322449 -0.387,0.353275 -0.3505,0.09247 0.028,-0.206378 0.1991,-0.894521 0.2735,-1.104942 0.084,-0.238411 0.1192,-0.290749 0.1553,-0.232326 0.029,0.04676 0.1433,-0.07338 0.4116,-0.432104 0.3181,-0.425388 0.6202,-0.701924 1.0719,-0.980794 0.2242,-0.13847 0.4248,-0.267188 0.4457,-0.286043 0.029,-0.02671 0.01,-0.05935 -0.1112,-0.147897 -0.376,-0.286782 -1.1952,-0.720605 -1.6428,-0.869929 -0.1525,-0.05089 -0.2816,-0.09654 -0.2869,-0.101454 -0.017,-0.01611 0.6044,-0.201392 1.0667,-0.317929 1.1264,-0.283952 2.1177,-0.365063 2.7977,-0.228942 0.2253,0.0451 0.3564,0.01427 0.4164,-0.09796 0.038,-0.07119 0.028,-0.07971 -0.1336,-0.108622 -0.2547,-0.04568 -1.3415,-0.489696 -1.5339,-0.626739 -0.067,-0.04782 -0.077,-0.06869 -0.05,-0.102416 0.042,-0.05097 0.8679,-0.05795 1.2359,-0.01047 0.1245,0.01608 0.3306,0.03773 0.4579,0.04812 0.2293,0.0187 0.2337,0.01771 0.4589,-0.105918 0.5296,-0.290629 1.2767,-0.572028 1.605,-0.604494 l 0.2114,-0.02091 -0.1208,-0.06277 c -0.1217,-0.0632 -0.8111,-0.296253 -1.1476,-0.387911 -0.3605,-0.09817 -1.039,-0.323632 -1.0927,-0.363137 -0.052,-0.03773 -0.049,-0.04277 0.035,-0.07585 0.4124,-0.161246 3.1742,-0.381527 3.7666,-0.30042 0.1722,0.02358 0.3675,0.08496 0.6836,0.214796 0.533,0.218964 0.8548,0.333463 0.8764,0.311856 0.021,-0.02083 -0.072,-0.179055 -0.1942,-0.331222 -0.1761,-0.219235 -0.5568,-0.810104 -0.5568,-0.864224 0,-0.06649 0.083,-0.05694 0.5835,0.06662 0.3738,0.09243 0.5509,0.156454 1.3964,0.504968 0.5908,0.243465 0.6866,0.294487 0.931,0.49581 0.098,0.08047 0.1842,0.139614 0.1924,0.131421 0.01,-0.0081 -0.054,-0.154781 -0.138,-0.325753 -0.084,-0.170974 -0.1734,-0.392404 -0.1983,-0.492068 -0.048,-0.190763 -0.1257,-0.914714 -0.1014,-0.939136 0.01,-0.0079 0.1008,0.11191 0.2063,0.266126 0.2627,0.383418 0.4025,0.514791 0.6984,0.656281 0.1376,0.06576 0.3181,0.175123 0.4012,0.243036 0.2444,0.199817 0.66,0.622567 0.7407,0.753344 0.041,0.0666 0.084,0.12144 0.095,0.121886 0.01,4.57e-4 0.049,-0.04425 0.082,-0.09933 0.035,-0.05508 0.092,-0.126428 0.1278,-0.158557 0.066,-0.05842 0.066,-0.05842 0.04,0.258699 -0.014,0.174413 -0.026,0.493792 -0.027,0.709732 0,0.315827 0.01,0.392618 0.041,0.392618 0.069,0 0.1489,-0.135239 0.2571,-0.43792 0.2189,-0.613476 0.3185,-1.284613 0.2477,-1.668627 -0.035,-0.187729 0.01,-0.187729 0.1459,0 0.1693,0.232981 0.3099,0.542827 0.4988,1.099516 0.098,0.288095 0.2141,0.6104 0.2584,0.716232 0.093,0.221083 0.1042,0.391798 0.065,0.966779 l -0.025,0.373965 0.086,-0.02124 c 0.1441,-0.03563 0.9754,-0.453434 1.2594,-0.633036 0.1472,-0.09304 0.2797,-0.169166 0.2945,-0.169166 0.058,0 0.02,0.08706 -0.1699,0.391139 -0.2291,0.367576 -0.2242,0.382913 0.1069,0.331544 0.1185,-0.01839 0.2234,-0.02551 0.2331,-0.01582 0.01,0.0097 -0.01,0.0457 -0.038,0.08004 -0.077,0.08505 -0.043,0.100982 0.3121,0.14695 0.7106,0.09191 1.3478,0.271554 1.2907,0.363852 -0.01,0.01232 -0.099,0.05342 -0.2035,0.09132 -0.4587,0.166674 -1.5717,0.845877 -1.3862,0.845877 0.035,0 1.0305,-0.420332 1.1842,-0.499757 0.08,-0.04129 0.1041,-0.03402 0.5011,0.150005 0.2294,0.106372 0.4681,0.202913 0.5305,0.214536 0.062,0.01162 0.1132,0.03215 0.1132,0.04563 0,0.03377 -0.1025,0.06359 -0.8246,0.239753 -0.8336,0.203406 -1.4642,0.420483 -1.5741,0.541912 -0.026,0.02875 -0.056,0.117613 -0.067,0.197478 l -0.02,0.145207 0.2689,-0.02042 c 0.439,-0.03335 0.9386,-0.106896 1.1295,-0.16632 0.1011,-0.03147 0.2601,-0.116888 0.3665,-0.196873 0.1648,-0.12387 0.1915,-0.135033 0.2164,-0.09059 0.016,0.02788 0.021,0.113312 0.013,0.189851 -0.019,0.167331 -0.049,0.193932 -0.4595,0.417424 l -0.3021,0.164094 0.2115,-0.01925 c 0.2109,-0.0192 0.6338,-0.08746 0.7626,-0.123073 0.1376,-0.03805 0.065,0.07143 -0.2654,0.398144 l -0.3334,0.330038 0.1295,0.02213 c 0.071,0.01217 0.3741,0.06261 0.6732,0.112073 0.299,0.04947 0.6252,0.115537 0.7248,0.146819 l 0.1812,0.05687 -0.1812,0.08437 -0.1813,0.08437 0.2292,0.03753 c 0.2927,0.04793 0.3659,0.07183 0.3516,0.114624 -0.017,0.05053 -0.1893,0.09353 -0.8104,0.202081 -0.3056,0.05338 -0.5733,0.106756 -0.5951,0.1186 -0.027,0.01483 0.056,0.112988 0.2672,0.315911 0.1688,0.161909 0.2998,0.301393 0.2912,0.309958 -0.01,0.0085 -0.2648,0.0044 -0.5692,-0.0098 -0.6667,-0.03062 -0.75,-0.02453 -0.75,0.05478 0,0.03189 0.021,0.06586 0.046,0.07542 0.088,0.03366 0.043,0.06271 -0.1436,0.0938 -0.2138,0.03557 -0.5196,0.167774 -0.7098,0.30691 -0.1116,0.08166 -0.1238,0.101335 -0.093,0.15042 0.05,0.07904 0.3688,0.244047 0.7954,0.410787 0.1993,0.07791 0.3732,0.151903 0.3864,0.164425 0.013,0.01249 -0.082,0.06689 -0.2115,0.120838 -0.1294,0.05395 -0.2465,0.108734 -0.2603,0.121763 -0.038,0.03658 0.3654,0.427683 0.5691,0.551113 0.1725,0.104626 0.3536,0.172422 0.7489,0.280554 0.1334,0.03645 0.1733,0.06011 0.166,0.09815 -0.01,0.02758 -0.044,0.05953 -0.085,0.07109 -0.1467,0.04077 -0.6268,0.02625 -1.1023,-0.03341 -0.761,-0.09547 -1.0462,-0.07174 -1.4491,0.120571 -0.3573,0.170487 -0.4425,0.296543 -0.2445,0.361852 0.057,0.01877 0.1179,0.05174 0.1357,0.07326 0.052,0.0629 -0.071,0.152671 -0.2098,0.152671 -0.1126,0 -0.1151,0.0019 -0.065,0.0575 0.1,0.111835 0.4659,0.349008 0.6153,0.398658 0.093,0.03075 0.1945,0.04349 0.2619,0.03278 0.2084,-0.03309 0.2485,0.08205 0.062,0.178452 -0.2097,0.108461 -0.8523,0.08413 -1.3215,-0.05002 -0.1102,-0.03151 -0.2392,-0.05725 -0.2868,-0.05725 -0.079,0 -0.084,0.0074 -0.067,0.08306 0.038,0.170976 0.3021,0.649323 0.4254,0.772424 0.069,0.06934 0.2259,0.180429 0.3475,0.246873 l 0.2211,0.120806 -0.269,0.0091 c -0.3257,0.01096 -0.5106,-0.01788 -1.1665,-0.181964 -0.2776,-0.06946 -0.5138,-0.117198 -0.525,-0.106077 -0.01,0.0111 0.023,0.06936 0.076,0.12941 0.056,0.06356 0.09,0.130246 0.081,0.159569 -0.01,0.03316 0.018,0.07107 0.081,0.110782 0.053,0.03322 0.1028,0.08988 0.1118,0.125922 0.01,0.03601 0.069,0.122105 0.1331,0.191264 0.066,0.07111 0.1054,0.137138 0.091,0.151968 -0.062,0.06131 -0.4633,0.18616 -0.6497,0.201796 -0.2386,0.01997 -0.4326,-0.02232 -0.5892,-0.128574 -0.1879,-0.127563 -0.2555,-0.07012 -0.1925,0.163711 0.042,0.154858 0.1564,0.291274 0.3114,0.370329 0.287,0.146445 -0.1607,0.117769 -0.4778,-0.03062 l -0.1961,-0.09174 0.076,0.129643 c 0.1309,0.223315 0.071,0.276445 -0.1053,0.09413 -0.056,-0.05814 -0.1135,-0.105703 -0.127,-0.105703 -0.013,0 -0.016,0.05434 -0.01,0.120806 0.015,0.096 0.01,0.120805 -0.026,0.120805 -0.06,0 -0.097,-0.05022 -0.1426,-0.190782 -0.06,-0.185952 -0.067,-0.10805 -0.015,0.149077 0.062,0.301551 0.234,0.817255 0.3466,1.040175 0.2141,0.424138 0.908,1.146963 1.4096,1.468042 0.086,0.05535 0.1635,0.100606 0.1715,0.100606 0.01,0 0.019,-0.03043 0.024,-0.06764 0.013,-0.08817 0.1155,-0.111936 0.1155,-0.0267 0,0.03361 -0.023,0.07405 -0.052,0.08984 -0.041,0.02308 -0.02,0.03823 0.1111,0.07701 0.089,0.02656 0.2028,0.04825 0.2517,0.04825 0.1386,0 0.3142,-0.06251 0.3839,-0.136706 0.064,-0.06738 0.064,-0.06738 -0.1379,-0.305102 -0.1107,-0.130748 -0.2277,-0.295802 -0.2603,-0.366792 -0.036,-0.08069 -0.1032,-0.156939 -0.1768,-0.203419 -0.145,-0.09154 -0.1925,-0.175204 -0.1682,-0.296428 0.046,-0.226611 0.2992,-0.314093 0.4448,-0.153262 0.039,0.04324 0.095,0.104373 0.124,0.135909 0.035,0.03759 0.094,0.05731 0.1715,0.05731 0.1503,0 0.1937,0.04393 0.325,0.330032 0.1191,0.25942 0.1044,0.262337 0.2907,-0.05782 0.053,-0.09114 0.1211,-0.170474 0.1514,-0.176308 0.08,-0.0154 0.1609,0.07152 0.2158,0.23181 0.1052,0.307784 0.1308,1.335482 0.04,1.640191 -0.042,0.14233 -0.015,0.248212 0.076,0.289137 0.071,0.03246 0.071,0.03398 0.092,0.750297 0.023,0.808106 0.097,2.109737 0.1416,2.473417 0.047,0.384455 0.044,0.407172 -0.062,0.428139 -0.1115,0.02231 -0.1166,0.08274 -0.025,0.303364 0.058,0.140252 0.062,0.172048 0.029,0.282291 -0.044,0.147345 -0.1884,0.230173 -0.316,0.181626 -0.1169,-0.04444 -0.1541,-0.204698 -0.1549,-0.666105 0,-0.438601 0.049,-0.663841 0.1668,-0.771263 0.059,-0.05358 0.083,-0.12312 0.032,-0.09116 -0.051,0.03183 -0.1191,-0.01807 -0.1547,-0.113989 -0.02,-0.05288 -0.046,-0.386244 -0.06,-0.745066 -0.024,-0.660337 -0.062,-0.988725 -0.1281,-1.139343 -0.033,-0.07452 -0.038,-0.04698 -0.053,0.248402 -0.01,0.182718 -0.02,0.68557 -0.023,1.11745 -0.011,1.195237 -0.064,3.091381 -0.097,3.552432 -0.034,0.459548 -0.054,0.593149 -0.097,0.619397 -0.095,0.05871 -0.099,-0.0511 -0.1143,-3.003011 -0.012,-2.392302 -0.023,-2.964172 -0.056,-3.021893 -0.022,-0.04039 -0.052,-0.05985 -0.066,-0.04489 -0.034,0.03398 -0.086,1.122116 -0.1135,2.366097 -0.012,0.539853 -0.033,0.998533 -0.046,1.019298 -0.013,0.0208 -0.075,0.03779 -0.1372,0.03779 -0.1434,0 -0.1994,-0.04476 -0.2455,-0.19631 -0.021,-0.06645 -0.078,-0.195208 -0.1283,-0.286146 -0.05,-0.09094 -0.1445,-0.306528 -0.2093,-0.479094 -0.1857,-0.494535 -0.2727,-0.636212 -0.368,-0.599616 -0.023,0.0088 -0.086,0.122118 -0.14,0.251749 -0.054,0.129625 -0.1203,0.266186 -0.1473,0.303478 -0.062,0.08438 -0.1841,0.08956 -0.2799,0.0118 -0.071,-0.05789 -0.071,-0.05789 -0.071,-0.853192 0,-0.437415 -0.01,-0.823703 -0.023,-0.858415 -0.022,-0.06093 -0.062,-0.08716 -0.2417,-0.159374 -0.093,-0.03709 -0.1364,-0.11288 -0.092,-0.157712 0.016,-0.01585 0.089,-0.03905 0.162,-0.05155 0.206,-0.03512 0.2141,-0.06709 0.2033,-0.794791 -0.01,-0.696792 -0.021,-0.735379 -0.1821,-0.689102 -0.1413,0.04052 -0.3094,0.222667 -0.4424,0.47933 -0.248,0.478303 -0.3032,0.819753 -0.1803,1.115307 0.065,0.15515 0.065,0.15515 -0.015,0.331344 -0.066,0.146261 -0.085,0.252726 -0.1131,0.626568 -0.054,0.719141 0.01,1.670953 0.1246,1.960439 0.037,0.08917 0.038,0.08657 0.1036,-0.166112 0.1166,-0.450197 0.2377,-0.650268 0.3807,-0.629104 0.1305,0.01934 0.1758,0.134094 0.2127,0.538502 0.036,0.396141 0.019,1.022843 -0.035,1.213117 -0.087,0.314923 -0.6231,0.455308 -1.0028,0.262775 -0.2289,-0.11605 -0.2247,-0.08958 -0.2656,-1.687305 -0.034,-1.324766 -0.058,-1.477419 -0.2649,-1.698824 -0.1,-0.10668 -0.18,-0.104696 -0.3823,0.0094 l -0.1639,0.09252 -0.014,4.007314 c -0.01,2.204023 -0.024,4.057174 -0.035,4.118115 -0.023,0.121225 -0.1127,0.236515 -0.1833,0.236515 -0.024,0 -0.058,-0.03437 -0.074,-0.07641 z m -2.8591,-5.394971 c 0.1001,-0.05332 0.1394,-0.120044 0.1404,-0.238453 0,-0.164503 -0.059,-0.224734 -0.2257,-0.224734 -0.117,0 -0.1533,0.01439 -0.2138,0.08474 -0.085,0.09856 -0.093,0.190826 -0.024,0.28823 0.08,0.113997 0.2103,0.150415 0.3234,0.09022 z m 0.9266,-1.244722 c 0,-0.0064 -0.021,-0.02834 -0.045,-0.04901 -0.037,-0.03082 -0.046,-0.02872 -0.046,0.01141 0,0.02695 0.021,0.04901 0.046,0.04901 0.024,0 0.045,-0.0051 0.045,-0.01141 z m 0.6864,-0.369264 c -0.01,-0.01002 -0.036,-0.0111 -0.058,-0.0025 -0.024,0.0096 -0.017,0.0168 0.019,0.01826 0.032,0.0013 0.05,-0.0057 0.039,-0.01585 z m 5.0356,-1.355917 c 0.01,-0.182717 0.024,-0.41376 0.032,-0.513421 0.01,-0.116849 0.01,-0.159379 -0.013,-0.119747 -0.027,0.06453 -0.095,0.900717 -0.09,1.094359 l 0.01,0.112639 0.024,-0.120805 c 0.013,-0.06644 0.033,-0.270307 0.043,-0.453025 z m -3.6259,-0.713916 c 0.091,-0.04141 0.1579,-0.174032 0.2071,-0.409734 0.05,-0.237478 0.044,-1.828425 -0.01,-1.982573 -0.021,-0.06061 -0.046,-0.109748 -0.056,-0.109178 -0.011,5.7e-4 -0.1103,0.06746 -0.2201,0.148608 -0.1999,0.14756 -0.1999,0.14756 -0.2367,0.384024 -0.021,0.13005 -0.044,0.519419 -0.054,0.865256 -0.018,0.667221 0,0.859906 0.1129,1.040373 0.064,0.104029 0.1284,0.120279 0.2536,0.06321 z m -0.081,-0.451307 c -0.099,-0.05744 -0.053,-0.285631 0.053,-0.264759 0.084,0.01655 0.1224,0.100606 0.089,0.195214 -0.034,0.09532 -0.068,0.112386 -0.1422,0.06954 z m 1.0526,0.141399 c 0.094,-0.09444 0.1441,-0.259732 0.078,-0.259732 -0.048,0 -0.2775,0.280984 -0.2775,0.338933 0,0.05681 0.1051,0.01503 0.1994,-0.0792 z m 3.6322,-0.576848 c -0.015,-0.09966 -0.052,-0.215185 -0.081,-0.256708 -0.058,-0.08197 -0.3934,-0.260257 -0.5485,-0.291287 -0.086,-0.01718 -0.056,0.02067 0.2761,0.355076 0.2049,0.205891 0.3745,0.374292 0.3769,0.374235 0,-5.7e-5 -0.01,-0.08165 -0.023,-0.181316 z m -6.3434,-0.161142 c 0.2463,-0.242842 0.5129,-0.594278 0.7097,-0.935525 l 0.141,-0.244477 v -1.232118 -1.232112 l -0.4395,0.453025 c -0.2418,0.249156 -0.4307,0.425837 -0.4198,0.392615 0.069,-0.212422 0.1431,-0.586581 0.2105,-1.072149 0.042,-0.307302 0.087,-0.624926 0.1,-0.705832 0.023,-0.147105 0.023,-0.147105 0.2514,-0.228 0.3816,-0.134595 1.0097,-0.566704 1.2474,-0.858022 0.2628,-0.322157 0.4288,-0.834513 0.4033,-1.244424 -0.01,-0.134564 -0.037,-0.286012 -0.064,-0.337013 -0.082,-0.158599 -0.2023,-0.281079 -0.276,-0.281079 -0.1535,0 -0.8916,0.247344 -0.8916,0.298788 0,0.01071 0.1001,0.170867 0.2227,0.355842 0.3383,0.511158 0.419,0.662725 0.3951,0.741984 -0.011,0.03747 -0.074,0.140105 -0.14,0.22805 l -0.1194,0.159893 -0.1113,-0.09265 c -0.2152,-0.179256 -0.3717,-0.277452 -0.4153,-0.260702 -0.036,0.01382 -0.044,0.09544 -0.041,0.443217 0,0.234454 -0.01,0.433224 -0.013,0.441707 -0.032,0.03132 -0.086,-0.03272 -0.2929,-0.340271 -0.1161,-0.173131 -0.2219,-0.314783 -0.2351,-0.314783 -0.031,0 -0.127,0.718183 -0.2623,1.947994 -0.1224,1.111997 -0.1218,1.108478 -0.1978,1.389259 -0.078,0.28903 -0.1181,0.908484 -0.1183,1.836724 0,0.77662 0.014,0.896501 0.1049,0.896501 0.023,0 0.137,-0.0929 0.2521,-0.206443 z m 1.6574,-6.800277 c -0.011,-0.04305 -0.041,-0.06042 -0.1042,-0.06042 -0.1024,0 -0.1307,-0.01991 -0.1089,-0.0766 0.022,-0.05802 0.1848,-0.08749 0.2382,-0.04318 0.024,0.02009 0.044,0.08248 0.044,0.138577 0,0.111512 -0.044,0.137957 -0.069,0.04159 z m -0.1205,5.102295 c 0.2199,-0.119703 0.25,-0.17864 0.2504,-0.490716 0,-0.152722 0.027,-0.590265 0.06,-0.972311 0.067,-0.79211 0.073,-0.946037 0.032,-0.904432 -0.062,0.06214 -0.2919,1.014687 -0.41,1.699071 -0.068,0.394873 -0.096,0.730528 -0.06,0.730528 0.01,0 0.066,-0.02796 0.1284,-0.06214 z m 0.604,-0.534337 c 0.1513,-0.271823 0.1673,-0.3902 0.1816,-1.35151 0.01,-0.628096 0.01,-0.896761 -0.018,-0.875794 -0.096,0.09221 -0.3419,2.340558 -0.256,2.340558 0.016,0 0.058,-0.05098 0.093,-0.113254 z m -8.0251,-3.446292 c 0,-0.03088 -0.036,-0.10905 -0.08,-0.173657 -0.2189,-0.324433 -0.2427,-0.34339 -0.1896,-0.151251 0.065,0.237991 0.1436,0.381095 0.2075,0.381095 0.04,0 0.062,-0.01978 0.062,-0.05617 z m 4.351,15.763796 c -0.075,-0.104626 -0.081,-0.221996 -0.014,-0.276869 0.1057,-0.08776 0.4353,-0.0066 0.4353,0.107149 0,0.224943 -0.2964,0.344468 -0.4208,0.16972 z m 0.4571,-0.280743 c -0.02,-0.01991 -0.037,-0.0953 -0.037,-0.167482 0,-0.09907 0.019,-0.149406 0.074,-0.205365 0.1879,-0.188005 0.5021,0.02783 0.3779,0.259757 -0.066,0.122676 -0.3334,0.195506 -0.4158,0.11309 z m -5.2054,-0.521277 c -0.142,-0.0965 -0.192,-0.230941 -0.1303,-0.350339 0.1416,-0.27382 0.4548,-0.146255 0.45,0.183263 -0.01,0.247102 -0.1158,0.305672 -0.3197,0.167076 z m 3.6892,-0.04647 c -0.081,-0.08077 -0.082,-0.258159 0,-0.300955 0.033,-0.01718 0.074,-0.03126 0.092,-0.03126 0.056,0 0.1818,0.144613 0.1818,0.210037 0,0.07207 -0.1006,0.182585 -0.1661,0.182585 -0.024,0 -0.072,-0.0272 -0.1057,-0.06042 z m -4.7298,-0.194187 c -0.019,-0.05002 0.035,-0.138031 0.084,-0.138031 0.042,0 0.016,0.159303 -0.029,0.173841 -0.021,0.0068 -0.046,-0.0094 -0.056,-0.03583 z m 2.7366,-0.440046 c 0,-0.04983 0.014,-0.0906 0.031,-0.0906 0.017,0 0.031,0.04077 0.031,0.0906 0,0.04983 -0.013,0.0906 -0.031,0.0906 -0.017,0 -0.031,-0.04077 -0.031,-0.0906 z m 4.4093,-0.04331 c 0,-0.09761 0.2294,-0.258317 0.3034,-0.21258 0.044,0.02695 0.035,0.122898 -0.015,0.164306 -0.05,0.04102 -0.2881,0.08102 -0.2881,0.04825 z m -2.6274,-0.261989 c -0.2362,-0.14176 -0.3696,-0.341215 -0.3747,-0.559805 0,-0.128668 0.071,-0.252346 0.1518,-0.252346 0.061,0 0.2516,0.179757 0.2704,0.255085 0.01,0.0369 -0.011,0.147066 -0.046,0.244749 -0.035,0.09768 -0.062,0.182008 -0.062,0.187385 0,0.0051 0.082,-0.03494 0.1817,-0.08955 0.1976,-0.108114 0.2397,-0.09628 0.2407,0.0676 0,0.196874 -0.1657,0.264651 -0.3619,0.146888 z m 2.1233,-0.136985 c -0.026,-0.06967 0.069,-0.13154 0.2047,-0.13154 0.1266,0 0.1726,0.06219 0.1,0.135033 -0.064,0.06401 -0.2795,0.06157 -0.3045,-0.0038 z m 4.7731,-0.123989 c -0.013,-0.09551 -0.024,-0.75126 -0.024,-1.45722 0,-1.381397 0.01,-1.419463 0.1509,-1.419463 0.052,0 0.097,0.03423 0.1527,0.118897 0.1143,0.172807 0.13,0.287483 0.094,0.69059 -0.029,0.323439 -0.027,0.375618 0.023,0.503474 0.041,0.107181 0.086,0.162549 0.1836,0.222724 0.2586,0.160369 0.2569,0.157306 0.074,0.137835 l -0.1673,-0.01775 v 0.43304 c 0,0.396274 -0.01,0.444193 -0.069,0.564397 -0.083,0.15555 -0.2986,0.397167 -0.3543,0.397167 -0.024,0 -0.049,-0.06361 -0.064,-0.173657 z m -11.968,-0.730141 c -0.069,-0.06937 -0.052,-0.170537 0.036,-0.218001 0.072,-0.03835 0.2773,-0.01693 0.3404,0.03551 0.053,0.04432 0.058,0.154612 0.01,0.204389 -0.06,0.05992 -0.3172,0.04527 -0.3843,-0.02194 z m 5.1944,0.0013 c -0.054,-0.100854 -0.039,-0.208871 0.031,-0.231284 0.089,-0.02828 0.1234,0.01927 0.1123,0.15529 -0.011,0.133315 -0.091,0.175344 -0.1435,0.076 z m 3.7081,-0.107587 c -0.04,-0.08731 -0.016,-0.168034 0.05,-0.168034 0.057,0 0.1209,0.129232 0.096,0.194384 -0.027,0.07123 -0.1076,0.05668 -0.1454,-0.02638 z m -9.2169,-0.06736 c -0.044,-0.04349 -0.017,-0.160406 0.043,-0.192779 0.088,-0.04692 0.2086,-0.01167 0.2086,0.0608 0,0.09624 -0.1886,0.195137 -0.2518,0.132008 z m 1.087,-0.332472 c -0.03,-0.0298 -0.024,-0.146122 0.012,-0.240876 0.025,-0.06725 0.037,-0.07517 0.06,-0.03975 0.065,0.101861 0,0.352665 -0.072,0.280597 z m -0.5936,-0.04983 c 0,-0.04863 0.1257,-0.171369 0.1755,-0.171369 0.038,0 0.048,0.08544 0.018,0.16364 -0.023,0.05903 -0.193,0.06588 -0.193,0.0078 z m 14.8599,-0.04876 c -0.038,-0.02479 -0.037,-0.03139 0.01,-0.048 0.064,-0.0246 0.1457,-0.008 0.1535,0.03113 0.01,0.04077 -0.1039,0.05269 -0.1594,0.01686 z m -4.8198,-0.04464 c -0.032,-0.02359 -0.049,-0.05237 -0.037,-0.06403 0.035,-0.03531 0.1749,0.01426 0.1749,0.06214 0,0.05656 -0.062,0.05738 -0.1377,0.0019 z m 2.3289,-0.326303 c -0.048,-0.06755 -0.063,-0.249384 -0.028,-0.338128 0.05,-0.128623 0.344,0.0426 0.344,0.1999 0,0.112258 -0.082,0.205351 -0.1812,0.205351 -0.056,0 -0.104,-0.02409 -0.1342,-0.06712 z m -12.018,-0.06933 c -0.065,-0.0657 -0.062,-0.233243 0.01,-0.318258 0.072,-0.0895 0.1449,-0.06163 0.2033,0.07816 0.037,0.08965 0.038,0.121085 0.01,0.189184 -0.046,0.09625 -0.1468,0.120021 -0.2159,0.05091 z m -2.2462,-0.396971 c -0.046,-0.01845 -0.05,-0.119842 -0.01,-0.146927 0.017,-0.01071 0.065,0.0032 0.1077,0.03043 0.062,0.0402 0.069,0.05833 0.04,0.0932 -0.036,0.04419 -0.075,0.0504 -0.1417,0.02327 z m 13.1622,-0.03658 c -0.074,-0.137512 0.018,-0.318701 0.144,-0.285688 0.083,0.02169 0.109,0.133048 0.036,0.152246 -0.038,0.01014 -0.054,0.03931 -0.051,0.09363 0.01,0.09862 -0.082,0.126169 -0.1286,0.03981 z m -9.983,-1.380922 c -0.071,-0.0629 -0.1416,-0.100561 -0.1726,-0.09245 -0.067,0.0173 -0.1037,-0.08679 -0.053,-0.147663 0.06,-0.07166 0.162,-0.05034 0.261,0.05434 0.2354,0.248604 0.2068,0.399367 -0.036,0.185805 z m 7.5962,-0.22157 c -0.043,-0.08026 -0.039,-0.128097 0.016,-0.206785 0.096,-0.136821 0.2142,0.03956 0.1459,0.21743 -0.025,0.06631 -0.1241,0.05985 -0.1618,-0.01066 z m -10.0485,-0.128813 c -0.097,-0.125124 -0.063,-0.237364 0.066,-0.212923 0.097,0.01845 0.1437,0.07749 0.1315,0.164427 -0.011,0.08027 -0.1461,0.113514 -0.1966,0.0485 z m 13.9057,-0.419219 c -0.068,-0.03995 -0.067,-0.126018 0,-0.18921 0.074,-0.06663 0.1168,-0.06302 0.1576,0.01325 0.076,0.142451 -0.025,0.254336 -0.16,0.175978 z m 2.4841,-0.02701 c -0.066,-0.01604 -0.078,-0.03976 -0.095,-0.183257 -0.028,-0.237883 -0.08,-1.776199 -0.1184,-3.50211 -0.04,-1.78396 -0.061,-2.13293 -0.1358,-2.259848 -0.054,-0.09187 -0.054,-0.09187 0.042,-0.181481 0.052,-0.04926 0.096,-0.114744 0.095,-0.145456 0,-0.125505 -0.069,-0.339923 -0.1709,-0.543836 -0.126,-0.252072 -0.1213,-0.315759 0.036,-0.490419 0.1254,-0.138817 0.1286,-0.178196 0.028,-0.338178 -0.1094,-0.173194 -0.092,-0.27434 0.053,-0.308481 0.063,-0.01471 0.1182,-0.04844 0.1257,-0.07647 0.01,-0.02758 0.03,-0.124877 0.051,-0.216232 0.077,-0.344627 0.2123,-0.494299 0.3359,-0.370653 0.1153,0.115379 0.2283,1.183266 0.1401,1.325604 -0.1481,0.239145 -0.1516,0.254501 -0.1774,0.763998 -0.014,0.275468 -0.035,0.58431 -0.046,0.686324 -0.019,0.166328 -0.011,0.202923 0.066,0.354574 0.085,0.169099 0.085,0.169099 0.021,0.30372 -0.1013,0.208629 -0.137,0.490101 -0.1221,0.964207 0.014,0.445461 0.04,0.546048 0.1709,0.664609 0.08,0.07279 0.1658,0.329714 0.1392,0.418598 -0.011,0.03773 -0.06,0.131311 -0.1085,0.208014 -0.052,0.08216 -0.081,0.159722 -0.069,0.18876 0.03,0.0784 0.1697,0.05878 0.2855,-0.04007 0.1312,-0.112126 0.2102,-0.118935 0.2102,-0.01814 0,0.04052 0.014,0.08212 0.031,0.09239 0.018,0.0111 0.031,-0.02549 0.031,-0.09074 0,-0.105228 0.01,-0.109038 0.098,-0.09993 0.082,0.0079 0.097,0.02098 0.091,0.07742 -0.01,0.06207 0.01,0.06795 0.139,0.06795 0.2705,0 0.4602,0.189799 0.4814,0.481599 0.012,0.168757 0.01,0.186319 -0.079,0.272216 -0.1179,0.117844 -0.365,0.137841 -0.5146,0.04166 -0.099,-0.06394 -0.2273,-0.353142 -0.2022,-0.457178 0.02,-0.08156 0.02,-0.08156 -0.029,-0.01363 -0.065,0.09025 -0.1592,0.08586 -0.2615,-0.01217 -0.073,-0.07041 -0.09,-0.07498 -0.1348,-0.03773 -0.1833,0.151226 -0.2376,0.601918 -0.1908,1.582623 0.037,0.757866 0.026,0.869447 -0.082,0.896412 -0.031,0.0076 -0.089,0.0057 -0.1307,-0.0044 z m -3.1399,-0.11962 c -0.038,-0.07082 -0.041,-0.213391 -0.01,-0.213391 0.049,0 0.1853,0.158935 0.1853,0.215527 0,0.07749 -0.1384,0.07585 -0.1801,-0.0019 z m -2.2675,-0.139414 c -0.03,-0.03557 -0.032,-0.06251 -0.01,-0.09916 0.052,-0.08167 0.1158,-0.06068 0.1158,0.03779 0,0.102793 -0.05,0.13102 -0.107,0.06137 z m 7.0516,-2.714166 c -0.043,-0.03139 -0.058,-0.07908 -0.058,-0.178038 0,-0.266884 0.2054,-0.349794 0.3956,-0.159634 0.1172,0.117198 0.1364,0.250165 0.048,0.330558 -0.068,0.06226 -0.3031,0.06662 -0.3845,0.0071 z m -0.323,-0.820044 c -0.1125,-0.06099 -0.1064,-0.150555 0.015,-0.224665 0.1191,-0.0726 0.1506,-0.07386 0.2823,-0.01135 0.132,0.06264 0.1297,0.111986 -0.01,0.20688 -0.129,0.08763 -0.1716,0.09196 -0.2875,0.0291 z m -0.4583,-0.483205 c -0.082,-0.08262 -0.037,-0.194155 0.081,-0.194155 0.068,0 0.096,0.06608 0.071,0.166176 -0.022,0.08608 -0.082,0.09727 -0.1515,0.02796 z m -1.8318,-1.7019 c -0.049,-0.04857 -0.088,-0.116507 -0.088,-0.151004 0,-0.05244 0.019,-0.06264 0.1133,-0.06226 0.1341,5.71e-4 0.2416,0.05054 0.3001,0.139503 0.036,0.05611 0.036,0.07073 -0.01,0.113254 -0.078,0.0782 -0.2184,0.06086 -0.3187,-0.0395 z m -0.7329,-0.238758 c -0.066,-0.07395 -0.064,-0.156184 0.01,-0.156184 0.067,0 0.1556,0.09132 0.1556,0.160939 0,0.06761 -0.099,0.0647 -0.1614,-0.0051 z m 0.3124,-0.201485 c 0,-0.06516 0.012,-0.101734 0.031,-0.0906 0.017,0.01027 0.03,0.05104 0.03,0.0906 0,0.03956 -0.013,0.08034 -0.03,0.0906 -0.018,0.01116 -0.031,-0.02542 -0.031,-0.0906 z m 0,-0.224258 c -0.019,-0.03462 -0.021,-0.08597 -0.01,-0.126841 0.025,-0.06869 0.025,-0.06869 0.079,0.01261 0.052,0.08043 0.046,0.172377 -0.011,0.172377 -0.017,0 -0.044,-0.02619 -0.062,-0.05814 z m 0.2134,-0.268138 c -0.018,-0.03253 -0.019,-0.07206 0,-0.09816 0.023,-0.03747 0.035,-0.03645 0.078,0.0068 0.051,0.05066 0.04,0.145793 -0.016,0.145793 -0.017,0 -0.043,-0.02453 -0.059,-0.05446 z m -0.9635,-0.615993 c -0.05,-0.04939 -0.046,-0.144968 0.01,-0.144968 0.06,0 0.1193,0.08185 0.099,0.135521 -0.021,0.0551 -0.055,0.0582 -0.1041,0.0094 z m 0.8909,-0.319577 c -0.071,-0.0789 -0.068,-0.218007 0.01,-0.218007 0.078,0 0.2222,0.140721 0.2101,0.204376 -0.014,0.07439 -0.1518,0.08314 -0.2148,0.01363 z m 1.7049,-0.98265 c -0.051,-0.06137 0.04,-0.171604 0.1421,-0.171604 0.1548,0 0.2071,0.117706 0.079,0.176365 -0.1011,0.04603 -0.1798,0.04438 -0.2205,-0.0051 z m -16.5952,-0.372943 c -0.011,-0.0111 -0.021,-0.05281 -0.021,-0.09271 0,-0.05801 0.014,-0.07063 0.068,-0.0629 0.091,0.01293 0.1185,0.175762 0.03,0.175762 -0.032,0 -0.067,-0.0091 -0.078,-0.02016 z m -3.82,-5.925524 c -0.024,-0.01583 -0.037,-0.06922 -0.031,-0.142995 0.01,-0.106876 0.019,-0.118567 0.1025,-0.126805 0.2149,-0.02098 0.2949,0.194525 0.098,0.263261 -0.1115,0.03888 -0.1185,0.03915 -0.1699,0.0066 z m 1.0591,-0.205225 c -0.021,-0.0084 -0.038,-0.03335 -0.038,-0.0555 0,-0.02215 0.017,-0.04633 0.038,-0.05374 0.053,-0.0188 0.2098,0.06506 0.188,0.10033 -0.019,0.03019 -0.123,0.03513 -0.188,0.0089 z m -0.1086,-1.39429 c -0.1553,-0.171634 0.074,-0.460377 0.2803,-0.353503 0.092,0.04748 0.1227,0.101103 0.1227,0.212703 0,0.15844 -0.294,0.261181 -0.403,0.1408 z m 1.1353,-1.595708 c -0.063,-0.02538 -0.01,-0.07054 0.083,-0.07054 0.099,0 0.1443,0.04494 0.073,0.07234 -0.054,0.02081 -0.1014,0.02027 -0.1561,-0.0018 z m -1.2809,-0.06067 c -0.08,-0.02102 -0.09,-0.09628 -0.023,-0.1634 0.074,-0.07353 0.2031,-0.06737 0.2512,0.01196 0.027,0.04448 0.02,0.06572 -0.038,0.113256 -0.071,0.0584 -0.095,0.0633 -0.1904,0.03818 z m 0.5788,-0.494048 c 0,-0.07389 0.081,-0.111892 0.1304,-0.06142 0.027,0.02797 0.023,0.04613 -0.023,0.07952 -0.08,0.059 -0.1076,0.05437 -0.1076,-0.01808 z m 0.8022,-0.911814 c -0.026,-0.03692 -0.047,-0.08825 -0.047,-0.114085 0,-0.08159 0.091,-0.181209 0.1658,-0.181209 0.074,0 0.1967,0.125247 0.1967,0.200382 0,0.06655 -0.1146,0.162035 -0.1946,0.162035 -0.042,0 -0.094,-0.02891 -0.1208,-0.06713 z m 1.6762,-0.414212 c -0.034,-0.03426 -0.062,-0.09039 -0.062,-0.124729 0,-0.05059 0.013,-0.05861 0.068,-0.04225 0.082,0.02441 0.1482,0.102719 0.1368,0.162006 -0.013,0.06987 -0.076,0.07203 -0.1425,0.005 z m 0.8815,-0.968001 c -0.1071,-0.06532 -0.1364,-0.182235 -0.045,-0.180579 0.084,0.0015 0.2189,0.139207 0.2189,0.223565 0,0.03459 -0.078,0.01524 -0.1736,-0.04299 z m 1.1677,-0.220183 c -0.1251,-0.08431 -0.2378,-0.275551 -0.2384,-0.404634 0,-0.188503 0.2445,-0.28119 0.463,-0.174851 0.1439,0.07002 0.2159,0.187258 0.2159,0.351433 0,0.267164 -0.2163,0.379149 -0.4405,0.228052 z m 2.5698,-0.444577 c 0,-0.04983 0.013,-0.0906 0.028,-0.0906 0.036,0 0.056,0.06307 0.039,0.128354 -0.022,0.08569 -0.067,0.06044 -0.067,-0.03775 z m 1.7036,-0.166501 c -0.019,-0.07325 0.026,-0.165715 0.081,-0.165715 0.053,0 0.091,0.118798 0.058,0.181208 -0.044,0.08355 -0.1158,0.07561 -0.1387,-0.0155 z"
         id="path112" />
    </g>
  </g>
</svg>
