<?xml version="1.0" encoding="UTF-8" standalone="no"?>
<!-- Created with Inkscape (http://www.inkscape.org/) -->

<svg
   width="41.008999mm"
   height="41.008999mm"
   viewBox="0 0 41.008999 41.008999"
   version="1.1"
   id="svg1"
   inkscape:version="1.4.2 (f4327f4, 2025-05-13)"
   sodipodi:docname="338.svg"
   xmlns:inkscape="http://www.inkscape.org/namespaces/inkscape"
   xmlns:sodipodi="http://sodipodi.sourceforge.net/DTD/sodipodi-0.dtd"
   xmlns="http://www.w3.org/2000/svg"
   xmlns:svg="http://www.w3.org/2000/svg">
  <sodipodi:namedview
     id="namedview1"
     pagecolor="#ffffff"
     bordercolor="#000000"
     borderopacity="0.25"
     inkscape:showpageshadow="2"
     inkscape:pageopacity="0.0"
     inkscape:pagecheckerboard="0"
     inkscape:deskcolor="#d1d1d1"
     inkscape:document-units="mm"
     inkscape:zoom="1.4513545"
     inkscape:cx="86.470947"
     inkscape:cy="71.657199"
     inkscape:window-width="1050"
     inkscape:window-height="1081"
     inkscape:window-x="857"
     inkscape:window-y="0"
     inkscape:window-maximized="0"
     inkscape:current-layer="layer1" />
  <defs
     id="defs1" />
  <g
     inkscape:label="Layer 1"
     inkscape:groupmode="layer"
     id="layer1"
     transform="translate(333.37504,1257.5646)">
    <g
       id="g121"
       transform="translate(-1458.4379,-1181.6571)">
      <circle
         style="fill:none;stroke:#0000ff;stroke-width:0.1;stroke-linecap:round;stroke-dasharray:none;stroke-opacity:1;paint-order:markers stroke fill"
         id="circle6693-7"
         cx="1145.5674"
         cy="-70.414467"
         r="2" />
      <circle
         style="fill:none;stroke:#ff0000;stroke-width:0.1;stroke-dasharray:none"
         id="circle6703-1"
         cx="1145.5674"
         cy="-55.403049"
         r="19.954653" />
      <ellipse
         style="fill:none;stroke:#ff00ff;stroke-width:0.1;stroke-dasharray:none;stroke-opacity:1"
         id="path1138-9-4-0-0-1-2-0-0-6-8-8-1-2-0-7-3-84"
         cx="1145.5674"
         cy="-55.403049"
         rx="18.492125"
         ry="18.492126" />
      <path
         style="fill:#000000;stroke-width:0.0962493"
         d="m 1152.2584,-40.152668 c -1.4484,-0.454548 -2.3427,-0.839941 -3.3099,-1.426395 l -0.3304,-0.200322 -0.4463,0.230226 c -0.2455,0.126624 -0.9276,0.480371 -1.516,0.786102 -0.5882,0.305732 -1.0809,0.555536 -1.095,0.555118 -0.014,-3.85e-4 -0.2432,-0.115143 -0.5093,-0.254945 -0.2661,-0.139802 -0.6786,-0.354839 -0.9167,-0.477858 -0.2382,-0.12302 -0.7144,-0.371032 -1.0584,-0.551139 l -0.6253,-0.327468 -0.3421,0.203857 c -0.6518,0.388289 -1.4166,0.752897 -2.1567,1.028193 -0.3664,0.136257 -1.1253,0.376619 -1.1563,0.366207 -0.012,-0.004 0.073,-0.08172 0.1884,-0.172762 0.3654,-0.288072 0.986,-0.904999 1.45,-1.441461 0.2334,-0.269697 0.5797,-0.701711 0.5804,-0.723843 0,-0.0073 -0.1,-0.06276 -0.2225,-0.123049 -0.1225,-0.0603 -0.4807,-0.244797 -0.7958,-0.410008 -0.3151,-0.165209 -0.7678,-0.400906 -1.0059,-0.523768 -0.2381,-0.122863 -0.6564,-0.340447 -0.9295,-0.48352 -0.2732,-0.143073 -0.7315,-0.38157 -1.0187,-0.529993 -0.2871,-0.148424 -0.883,-0.458179 -1.3242,-0.688345 l -0.8022,-0.418485 -0.013,-6.935826 c -0.01,-5.458001 -0.02,-6.954781 -0.045,-7.024788 -0.042,-0.117074 -0.04,-0.152964 0.01,-0.152964 0.034,0 0.039,-0.148419 0.037,-1.330601 0,-0.73183 0,-2.301811 0,-3.488846 v -2.158247 h 1.2083 1.2083 l -0.051,-0.14643 c -0.1151,-0.333147 -0.3032,-1.244287 -0.3032,-1.468705 0,-0.0643 0.1344,-0.049 0.3237,0.03684 0.4183,0.189634 1.0431,0.672471 1.754,1.355464 l 0.2319,0.222828 h 6.2465 6.2464 l 0.3184,-0.299227 c 0.9582,-0.900227 1.7035,-1.432463 2.0059,-1.432463 0.053,0 0.063,0.012 0.063,0.0795 0,0.285473 -0.2076,1.249666 -0.3475,1.614241 -0.013,0.0333 0.1341,0.03795 1.1978,0.03795 h 1.2124 v 2.111559 c 0,1.319594 0.01,2.114742 0.024,2.120047 0.016,0.0053 0.016,0.04611 0,0.110353 -0.013,0.05603 -0.024,0.653459 -0.024,1.32763 0,1.197289 0,1.22607 0.049,1.238851 0.05,0.01301 0.05,0.01416 0,0.193642 -0.049,0.177433 -0.05,0.300025 -0.05,7.081103 v 6.900545 l -0.1082,0.06126 c -0.059,0.0337 -0.4406,0.233546 -0.8468,0.444113 -0.6576,0.340931 -1.9169,0.995744 -2.8521,1.483168 -0.1821,0.09489 -0.6233,0.324156 -0.9805,0.50948 -0.8862,0.459807 -1.335,0.69433 -1.3469,0.703661 -0.03,0.02328 0.5772,0.755517 1.0322,1.245619 0.413,0.444893 0.923,0.915484 1.2099,1.116519 0.079,0.05493 0.053,0.06522 -0.067,0.02738 z m -5.1187,-0.986079 c 0.7284,-0.378191 1.3324,-0.694907 1.3423,-0.703813 0.01,-0.0089 -0.131,-0.122977 -0.3134,-0.25349 l -0.3316,-0.237298 -0.1959,0.102335 c -0.1077,0.05629 -0.5224,0.274638 -0.9215,0.485231 l -0.7259,0.382895 -0.012,-0.802852 -0.013,-0.802853 -0.3692,-0.127417 c -0.2031,-0.07008 -0.3892,-0.133808 -0.4135,-0.141617 -0.042,-0.01329 -0.045,0.04645 -0.051,0.92815 l -0.01,0.942352 -0.9294,-0.49289 c -0.5113,-0.271089 -0.9429,-0.493302 -0.9591,-0.493807 -0.016,-5e-4 -0.1577,0.09073 -0.3142,0.202751 -0.1565,0.112017 -0.3035,0.214296 -0.3267,0.227284 -0.023,0.01299 -0.036,0.02973 -0.028,0.0372 0.01,0.0075 0.6836,0.36224 1.5023,0.788372 l 1.4887,0.774784 0.1274,-0.06385 c 0.07,-0.03512 0.7232,-0.37328 1.4515,-0.751471 z m -7.5335,0.555795 c 2.2949,-0.786057 4.2453,-2.142932 5.5176,-3.838441 0.2569,-0.342389 0.5605,-0.820521 0.528,-0.831507 -0.04,-0.01355 -0.6531,0.274669 -0.9505,0.446958 -0.701,0.405987 -1.1149,0.627553 -2.0585,1.101835 l -1.0081,0.506697 -0.3161,0.427671 c -0.1739,0.235219 -0.4346,0.570932 -0.5793,0.746027 -0.2647,0.320311 -1.0002,1.126805 -1.0768,1.180715 -0.053,0.03716 -0.4087,0.372745 -0.3954,0.372745 0.01,0 0.1581,-0.05072 0.3391,-0.1127 z m 5.4326,-1.836226 v -0.879351 l -0.1846,-0.08468 -0.1847,-0.08468 0.1847,-0.08349 0.1846,-0.08349 v -0.244884 c 0,-0.244884 0,-0.244884 -0.053,-0.181219 -0.3603,0.440389 -0.9117,0.993891 -1.3786,1.38382 -0.1506,0.125882 -0.2705,0.232359 -0.2663,0.236616 0.01,0.0082 1.6816,0.8977 1.6923,0.899588 0.01,6.18e-4 0.01,-0.394595 0.01,-0.878239 z m 1.9235,0.423012 c 0.4618,-0.243983 0.9401,-0.497194 1.0629,-0.56269 l 0.2234,-0.119084 -0.1724,-0.04554 c -0.095,-0.02505 -0.1824,-0.05451 -0.1946,-0.06548 -0.012,-0.01097 0.1892,-0.333174 0.4474,-0.716008 0.7361,-1.091485 0.7243,-1.077339 0.9898,-1.184594 0.2313,-0.0934 0.4101,-0.116539 0.8004,-0.103566 0.3944,0.01311 0.755,0.0826 1.2426,0.239499 l 0.2748,0.08843 1.8388,-0.971801 1.8389,-0.971801 10e-5,-4.201626 10e-5,-4.201626 -0.064,0.08405 c -0.6496,0.856745 -1.4902,1.514769 -2.4477,1.915933 -0.5586,0.234044 -1.1793,0.404129 -1.767,0.48417 -0.3999,0.05448 -0.4456,0.05933 -0.4456,0.04733 0,-0.0059 0.067,-0.104187 0.1497,-0.218418 0.4371,-0.606546 0.775,-1.290586 0.9202,-1.862983 l 0.071,-0.280127 0.3144,-0.212366 c 0.3952,-0.266922 0.6989,-0.45535 1.0396,-0.645016 l 0.2668,-0.148526 h -0.2441 c -0.2185,0 -0.2625,0.0083 -0.4179,0.07872 -0.2398,0.108762 -0.5217,0.21075 -0.8316,0.300936 -0.2898,0.08434 -1.0165,0.237138 -1.0358,0.217796 -0.01,-0.0067 0.01,-0.02647 0.027,-0.04383 0.058,-0.04772 0.2079,-0.242954 0.3121,-0.407192 l 0.093,-0.146431 h -0.166 c -0.1659,0 -0.1659,0 -0.2353,0.108231 -0.2707,0.422231 -0.6032,0.762339 -1.0006,1.023517 -0.7438,0.488919 -1.7946,1.112988 -2.3821,1.414799 -0.3119,0.160202 -0.6196,0.292226 -0.6382,0.27373 -0.01,-0.0045 0.02,-0.06726 0.055,-0.139381 0.093,-0.194099 0.2024,-0.544536 0.3445,-1.102001 0.2092,-0.821024 0.3359,-1.033436 0.9019,-1.512612 l 0.077,-0.06467 -0.2564,-7.82e-4 -0.2564,-7.82e-4 -0.2274,0.182691 c -0.1251,0.100481 -0.3034,0.249457 -0.3964,0.331059 -0.093,0.0816 -0.176,0.148368 -0.1846,0.148368 -0.01,0 -0.016,-0.148977 -0.016,-0.331059 v -0.331064 h -0.149 -0.1491 l -0.045,0.171896 c -0.065,0.243388 -0.1994,0.612886 -0.3329,0.912376 l -0.1143,0.256624 0.01,0.372816 0.01,0.372815 0.2446,-0.298382 c 0.1345,-0.16411 0.3457,-0.432783 0.4695,-0.597052 0.1237,-0.164269 0.2281,-0.295595 0.2319,-0.291834 0.016,0.01546 -0.093,0.7609 -0.143,0.985229 -0.1456,0.649763 -0.4068,1.235493 -0.7173,1.607894 -0.099,0.118131 -0.099,0.118131 -0.099,0.362891 0,0.134617 0.01,0.244759 0.015,0.244759 0.01,0 0.2383,-0.18432 0.5115,-0.409601 0.2731,-0.22528 0.5015,-0.404704 0.5075,-0.398717 0.023,0.0237 -0.093,0.605706 -0.1668,0.830764 -0.1534,0.468846 -0.4293,0.959032 -0.7371,1.309637 l -0.1299,0.147912 v 0.239153 0.239153 l 0.1719,-0.09734 c 0.3917,-0.221772 0.9042,-0.487704 0.9165,-0.475443 0.021,0.02166 -0.1425,0.41244 -0.3274,0.779101 -0.1819,0.360961 -0.3919,0.700417 -0.623,1.007562 l -0.138,0.183348 v 0.39772 c 0,0.218746 0.01,0.397714 0.019,0.397707 0.011,-7e-6 0.079,-0.02293 0.1531,-0.05093 0.073,-0.02801 0.1443,-0.05092 0.1571,-0.05092 0.038,0 -0.097,0.403929 -0.2186,0.654599 -0.08,0.164065 -0.1116,0.259289 -0.106,0.317314 0.01,0.07363 0.048,0.01321 0.3626,-0.540001 0.195,-0.342599 0.4013,-0.672699 0.4584,-0.733556 0.3824,-0.407498 1.4466,-0.828576 2.8287,-1.119175 0.6766,-0.142265 0.6494,-0.138446 0.6494,-0.09116 0,0.231305 -1.0222,1.817401 -1.2912,2.003412 -0.1481,0.102453 -0.3064,0.155867 -0.689,0.232498 -0.3918,0.07846 -0.9082,0.221393 -1.3432,0.371735 -0.353,0.12202 -0.9329,0.350337 -0.962,0.378708 -0.011,0.01064 -0.016,0.190353 -0.013,0.399358 l 0.01,0.380011 0.1235,-0.210269 c 0.068,-0.115649 0.171,-0.251194 0.2292,-0.301214 0.2352,-0.202391 0.9317,-0.461868 1.9041,-0.70939 0.7012,-0.178483 1.6522,-0.373091 1.6522,-0.338081 0,0.05488 -0.3167,0.627989 -0.4957,0.896838 -0.2736,0.411097 -0.56,0.718497 -0.8646,0.928093 -0.1665,0.114554 -0.2655,0.151267 -0.6268,0.232456 -0.3884,0.08725 -1.1714,0.3126 -1.6036,0.461483 -0.2707,0.09326 -0.3195,0.118228 -0.3264,0.166957 -0.011,0.07474 0.01,0.07336 0.3241,-0.02979 0.3871,-0.124969 0.8189,-0.231598 1.3011,-0.321297 0.4501,-0.08373 0.8959,-0.18983 0.9746,-0.231974 0.027,-0.01423 0.053,-0.021 0.059,-0.01502 0.018,0.0177 -0.1609,0.442194 -0.2999,0.712876 -0.1765,0.343624 -0.3405,0.588788 -0.5276,0.78877 -0.1893,0.202414 -0.3455,0.306157 -0.5492,0.36468 -0.2403,0.06911 -0.8979,0.02675 -1.2424,-0.08004 -0.041,-0.01293 -0.044,0.03143 -0.044,0.690337 0,0.387284 0.01,0.700334 0.019,0.695665 0.011,-0.0047 0.3977,-0.208112 0.8595,-0.452095 z m 2.0609,-3.008643 c -0.01,-0.0085 0.042,-0.06603 0.1063,-0.127876 0.3779,-0.366891 0.8558,-1.067796 1.0781,-1.581151 0.085,-0.195401 0.085,-0.195401 0.2783,-0.277253 0.4585,-0.193848 0.9834,-0.338545 1.4796,-0.407927 0.2321,-0.03245 1.0827,-0.04429 1.1116,-0.01548 0.027,0.02789 -0.1805,0.424692 -0.3405,0.648324 -0.6727,0.940235 -1.6791,1.53192 -2.9102,1.710845 -0.2493,0.03623 -0.791,0.07029 -0.8032,0.05051 z m 0.5177,-0.126906 c 1.124,-0.121101 1.9976,-0.510624 2.6796,-1.19463 0.2632,-0.263988 0.5133,-0.59715 0.6462,-0.860574 l 0.067,-0.133697 h -0.356 c -0.6715,0 -1.3511,0.138412 -1.9927,0.4058 l -0.196,0.08169 -0.1644,0.335606 c -0.1937,0.39579 -0.4426,0.776356 -0.7416,1.133947 -0.1189,0.142174 -0.2102,0.258498 -0.2029,0.258498 0.01,0 0.1244,-0.01199 0.2604,-0.02664 z m 0.031,-1.92175 c 0,-0.0084 0.044,-0.08055 0.098,-0.160317 0.2852,-0.421463 0.8301,-1.327771 0.9921,-1.650061 0.089,-0.177949 0.168,-0.232582 0.7612,-0.529467 0.7892,-0.395061 1.5604,-0.642224 2.2761,-0.72949 0.2331,-0.02842 0.9209,-0.02696 0.9498,0.002 0.028,0.02781 -0.066,0.323339 -0.1752,0.548616 -0.5866,1.216661 -2.1427,2.094417 -4.3291,2.441944 -0.2241,0.03561 -0.4447,0.0709 -0.4902,0.07841 -0.045,0.0075 -0.083,0.0068 -0.083,-0.0016 z m 0.6882,-0.204011 c 0.4492,-0.07823 0.9079,-0.187305 1.2981,-0.308698 1.5165,-0.471763 2.585,-1.314581 2.9269,-2.308582 0.045,-0.131546 0.046,-0.149268 0.011,-0.162926 -0.067,-0.02592 -0.7725,0.01327 -1.015,0.05643 -0.456,0.08116 -0.8813,0.203348 -1.3497,0.387759 -0.5999,0.236168 -1.2857,0.60363 -1.3359,0.715796 -0.059,0.131728 -0.3959,0.710918 -0.6758,1.16236 -0.1564,0.252114 -0.2926,0.472713 -0.3029,0.490222 -0.027,0.04478 0.02,0.04145 0.4435,-0.03236 z m -3.7654,-0.91824 c 0.1172,-0.160793 0.3632,-0.602241 0.7721,-1.385911 0.179,-0.343154 0.3497,-0.650894 0.3794,-0.683866 0.1682,-0.187064 1.1037,-0.689183 2.1096,-1.132318 0.7035,-0.309905 1.4216,-0.607174 1.4447,-0.598047 0.03,0.01216 -0.071,0.462971 -0.1779,0.789533 -0.3842,1.172112 -1.1011,1.921223 -2.1511,2.247959 -0.4078,0.126926 -1.3353,0.457424 -1.9061,0.679195 -0.6165,0.239592 -0.5798,0.233078 -0.4707,0.08346 z m 0.7303,-0.300861 c 0.4653,-0.174995 0.906,-0.329412 1.7205,-0.602933 0.9973,-0.334888 1.6812,-1.116397 2.0265,-2.315671 0.089,-0.308312 0.1074,-0.407457 0.077,-0.407457 -0.032,0 -1.1179,0.462738 -1.5518,0.661454 -0.4821,0.220866 -1.2041,0.584647 -1.4148,0.712956 -0.3271,0.19918 -0.3706,0.247012 -0.5598,0.616443 -0.2205,0.43053 -0.69,1.302653 -0.7687,1.427963 -0.034,0.05252 -0.053,0.0955 -0.045,0.0955 0.01,0 0.2407,-0.08471 0.5161,-0.188252 z m 3.0972,-1.164718 c 0.5288,-0.628792 0.8791,-1.27024 0.9966,-1.824688 0.045,-0.210863 0.045,-0.210863 0.214,-0.34762 0.7866,-0.635516 1.7802,-1.048445 2.6611,-1.105865 0.2909,-0.01896 0.7893,3.86e-4 0.8208,0.03185 0.01,0.0099 0,0.09205 -0.025,0.182494 -0.1928,0.735009 -0.8146,1.499342 -1.7041,2.094805 -0.6742,0.451301 -1.6635,0.86033 -2.7164,1.123116 -0.2288,0.05711 -0.4268,0.10384 -0.4399,0.10384 -0.013,0 0.073,-0.116069 0.1929,-0.25793 z m 0.3956,0.0027 c 0.5939,-0.14813 1.4048,-0.452764 1.9227,-0.722333 0.5997,-0.312139 1.0264,-0.623377 1.4402,-1.050515 0.2908,-0.300184 0.4742,-0.552619 0.6265,-0.86233 0.1476,-0.300156 0.2057,-0.493867 0.1579,-0.526733 -0.061,-0.04225 -0.899,-0.0048 -1.1623,0.05195 -0.6958,0.15004 -1.4304,0.499965 -2.0428,0.973108 l -0.1909,0.147574 -0.059,0.250035 c -0.1135,0.479991 -0.3809,1.002731 -0.7887,1.541387 -0.1249,0.164983 -0.1925,0.273373 -0.1655,0.265371 0.025,-0.0074 0.1429,-0.03782 0.262,-0.06752 z m -3.9217,-0.925479 c 0,-0.02061 0.2294,-0.57618 0.4272,-1.034849 0.4836,-1.121144 0.4465,-1.061823 0.8588,-1.373397 0.4074,-0.307859 0.9223,-0.619705 1.7757,-1.075395 0.5212,-0.278272 1.5737,-0.79322 1.5894,-0.777572 0.01,0.006 -0.01,0.101289 -0.03,0.211671 -0.1128,0.554251 -0.458,1.34295 -0.8463,1.934212 -0.1649,0.251005 -0.2412,0.340262 -0.4159,0.486391 -0.7248,0.606228 -1.6306,1.083228 -2.7733,1.460525 -0.447,0.147567 -0.5857,0.187465 -0.5857,0.168414 z m 0.8404,-0.366906 c 1.0543,-0.382704 2.0572,-0.951948 2.5685,-1.457903 0.3597,-0.355875 0.8518,-1.301517 1.0463,-2.010792 0.029,-0.104766 0.052,-0.205084 0.052,-0.22293 0,-0.01868 -0.2619,0.09855 -0.6175,0.276413 -1.7667,0.883562 -2.8202,1.556978 -2.9744,1.901264 -0.1121,0.250443 -0.7373,1.709478 -0.7373,1.720828 0,0.01234 0.4179,-0.118242 0.6621,-0.20688 z m 1.5028,8.492611 c 0.2564,-0.06688 0.5339,-0.181854 0.6662,-0.276059 0.08,-0.05679 0.08,-0.05679 0.1371,0.0151 l 0.057,0.0719 3.0579,-1.588982 3.0579,-1.588982 v -6.723033 -6.723033 l -0.084,0.203728 c -0.1149,0.27867 -0.3259,0.693356 -0.4764,0.935829 l -0.1249,0.201443 v 0.6601 0.6601 h -0.567 -0.5672 l -0.1269,0.105645 c -0.2314,0.192818 -0.4989,0.382718 -0.7722,0.54845 -0.1486,0.09009 -0.2724,0.166079 -0.2751,0.168855 0,0.0028 0.096,0.0038 0.2192,0.0021 0.2185,-0.0029 0.2345,-0.0074 0.6029,-0.170487 0.7233,-0.320139 1.208,-0.454029 1.6646,-0.459751 0.147,-0.0018 0.3111,0.0058 0.3646,0.01698 0.091,0.01904 0.096,0.025 0.081,0.09402 -0.047,0.214555 -0.3116,0.789866 -0.5182,1.127084 l -0.1056,0.172345 v 4.32241 4.322411 l -1.8344,0.966473 -1.8344,0.966475 0.1161,0.05902 c 0.064,0.03247 0.1161,0.06847 0.1161,0.08002 0,0.01155 -0.089,0.09537 -0.1973,0.186275 -1.0634,0.890562 -2.214,1.419833 -3.0918,1.422324 -0.2634,7.5e-4 -0.2634,7.5e-4 -0.5152,0.137499 -0.1862,0.101014 -0.2394,0.140418 -0.2038,0.150774 0.027,0.0077 0.243,0.01 0.4811,0.0051 0.3591,-0.0074 0.4742,-0.01972 0.6751,-0.07212 z m -7.814,-0.521837 0.2167,-0.299861 -0.2223,-0.11835 -0.2224,-0.118348 -0.1084,0.239948 c -0.059,0.131971 -0.1211,0.239728 -0.1365,0.239459 -0.052,-8.6e-4 -0.4836,-0.242337 -0.7532,-0.421119 -0.2805,-0.185965 -0.6838,-0.491844 -0.8653,-0.656269 -0.101,-0.09145 -0.1046,-0.09957 -0.061,-0.13223 0.026,-0.01914 0.096,-0.0536 0.155,-0.07657 0.059,-0.02297 0.108,-0.04942 0.1075,-0.05876 0,-0.0093 -0.2267,-0.135271 -0.5029,-0.279833 -0.2763,-0.144562 -1.1125,-0.585136 -1.8583,-0.979052 l -1.3561,-0.716214 v -4.273987 -4.274005 l -0.1421,-0.234874 c -0.078,-0.129181 -0.1913,-0.338091 -0.2517,-0.464247 -0.1089,-0.227602 -0.2774,-0.674028 -0.2608,-0.690681 0.01,-0.0048 0.097,-0.02094 0.2045,-0.03591 0.3887,-0.05407 0.9599,0.0585 1.5998,0.315227 0.1881,0.07547 0.3794,0.156623 0.4253,0.180337 0.099,0.05102 0.6387,0.08027 0.5549,0.03004 -0.2316,-0.138685 -0.683,-0.456949 -0.8693,-0.612863 l -0.2292,-0.191806 -0.5157,-3.7e-5 -0.5157,-3.6e-5 v -0.609168 -0.609168 l -0.1317,-0.212112 c -0.1118,-0.180275 -0.4127,-0.778381 -0.5329,-1.059432 -0.031,-0.07167 -0.034,0.852016 -0.031,6.595704 l 0.01,6.679042 3.012,1.570708 c 1.6567,0.86389 3.0244,1.571527 3.0396,1.572527 0.015,10e-4 0.1251,-0.133118 0.2442,-0.298042 z m 8.0109,0.110496 c 0.5087,-0.125676 1.0868,-0.393802 1.6484,-0.76468 0.2766,-0.182624 0.7795,-0.566526 0.8129,-0.620484 0.034,-0.05396 -0.6353,-0.284961 -1.1306,-0.39065 -0.2046,-0.04364 -0.3542,-0.05732 -0.6366,-0.05822 -0.39,-0.0013 -0.5285,0.02276 -0.7386,0.12793 -0.1592,0.07974 -0.2328,0.165314 -0.5674,0.660359 -0.1609,0.238107 -0.3855,0.570396 -0.4991,0.738419 -0.2065,0.305497 -0.2065,0.305497 -0.1366,0.325025 0.3162,0.08834 0.8488,0.08078 1.2476,-0.01771 z m -1.8748,-0.146804 c 0.3125,-0.143063 0.639,-0.552489 0.9493,-1.190394 0.092,-0.188316 0.1636,-0.345345 0.16,-0.348953 -0.01,-0.0036 -0.092,0.0153 -0.1967,0.04202 -0.1045,0.02672 -0.3791,0.08343 -0.6102,0.126028 -0.8444,0.155634 -1.657,0.401914 -2.5084,0.760162 -0.361,0.151906 -0.3502,0.12938 -0.1093,0.227306 0.796,0.323554 1.4083,0.470803 1.8947,0.455701 0.2349,-0.0073 0.3062,-0.01947 0.4206,-0.07186 z m -5.1983,-0.633463 c 0.6918,-0.339667 1.4699,-0.748692 1.9616,-1.031076 0.1887,-0.108388 0.4488,-0.255501 0.5781,-0.326917 l 0.2349,-0.129847 v -0.171583 -0.171582 l -0.2101,0.161231 c -0.6921,0.531199 -1.6041,1.032868 -2.5911,1.425367 -0.4376,0.174017 -0.5745,0.21832 -0.5559,0.179893 0.1093,-0.226071 0.1757,-0.397504 0.2942,-0.759497 0.078,-0.239049 0.1664,-0.472705 0.1957,-0.519236 0.069,-0.108939 0.6528,-0.566199 1.1738,-0.918753 0.4768,-0.3227 0.921,-0.591433 1.3709,-0.829465 l 0.3225,-0.170647 v -0.166445 c 0,-0.159404 -0.01,-0.164966 -0.049,-0.131504 -0.4778,0.340552 -2.6745,1.779362 -2.7166,1.779362 -0.025,0 0.01,-0.30392 0.094,-0.865846 0.079,-0.517329 0.1256,-0.722629 0.1814,-0.792654 0.057,-0.07198 1.2106,-0.921869 2.0519,-1.512021 l 0.4355,-0.305593 v -0.135821 c 0,-0.13582 0,-0.13582 -0.059,-0.08913 -1.2933,0.992521 -2.4672,1.82238 -2.4813,1.754197 -0.015,-0.07207 0.047,-0.401588 0.1119,-0.594718 0.083,-0.246018 0.2423,-0.564212 0.3798,-0.756955 0.1466,-0.2055 0.8762,-0.912354 1.5239,-1.47634 l 0.5263,-0.458388 v -0.165052 l 2e-4,-0.165051 -0.2483,0.24367 c -0.513,0.503397 -1.9606,1.80539 -2.0073,1.80539 -0.033,0 0.011,-0.796613 0.052,-0.965339 0.08,-0.324974 0.2299,-0.53668 0.8305,-1.173808 0.1783,-0.189086 0.5601,-0.566855 0.8485,-0.839487 l 0.5246,-0.495693 v -0.200721 -0.200721 l -0.3344,0.314424 c -0.5121,0.481455 -1.0977,1.158813 -1.6115,1.863946 -0.1097,0.150496 -0.2039,0.269219 -0.2093,0.26383 -0.016,-0.01633 0.041,-0.874389 0.081,-1.227633 0.076,-0.653517 0.135,-0.939118 0.2294,-1.100267 0.035,-0.05953 0.1863,-0.218293 0.3365,-0.352815 0.2955,-0.264716 0.6328,-0.618883 1.1673,-1.225493 l 0.3408,-0.386632 v -0.156599 -0.156601 l -0.3079,0.307903 c -0.3349,0.334835 -0.6048,0.569474 -1.0109,0.878792 -0.2839,0.216129 -0.4911,0.444813 -0.6165,0.680011 -0.058,0.108927 -0.094,0.149269 -0.1327,0.149269 -0.052,0 -0.053,-0.0063 -0.039,-0.439289 0.023,-0.705491 0.12,-1.233272 0.2956,-1.610727 0.039,-0.08404 0.1532,-0.261663 0.2535,-0.394724 l 0.1824,-0.241926 -0.1465,-0.0078 c -0.1619,-0.0087 -0.156,-0.01301 -0.4328,0.313432 l -0.108,0.12733 v -0.222828 -0.222828 h -0.3157 -0.3157 l -0.017,0.311959 c -0.01,0.171578 -0.019,0.584069 -0.021,0.916647 -0.01,0.332578 -0.012,0.604746 -0.02,0.604818 -0.019,1.92e-4 -0.6991,-0.424369 -1.0539,-0.657784 -0.3275,-0.215511 -0.6572,-0.550346 -0.8913,-0.905282 l -0.1783,-0.270318 -0.1616,-2e-5 -0.1615,-2e-5 0.07,0.120964 c 0.084,0.144153 0.3273,0.478111 0.3657,0.501896 0.081,0.04981 0,0.05308 -0.2465,0.0097 -0.5469,-0.097 -1.2144,-0.303839 -1.684,-0.521784 -0.2271,-0.105377 -0.2501,-0.110787 -0.4711,-0.11047 l -0.2324,2.88e-4 0.2164,0.117301 c 0.3481,0.188609 0.8534,0.497893 1.2093,0.740276 l 0.3307,0.225144 0.08,0.292319 c 0.044,0.160777 0.1092,0.368937 0.1451,0.462582 0.1568,0.408813 0.5967,1.180275 0.8511,1.492792 0.049,0.06029 0.085,0.113319 0.08,0.117833 -0.01,0.0045 -0.1295,-0.0074 -0.2766,-0.0265 -1.818,-0.235993 -3.2522,-0.996609 -4.2568,-2.257562 l -0.1999,-0.250879 0.01,4.166746 0.01,4.166746 1.8773,0.991563 1.8772,0.991565 0.1983,-0.06475 c 0.5092,-0.166324 0.9581,-0.24669 1.3672,-0.244793 0.1666,7.7e-4 0.313,0.01144 0.3253,0.0237 0.027,0.02637 -0.1127,0.523823 -0.2437,0.871494 -0.05,0.13306 -0.083,0.245235 -0.073,0.249277 0.01,0.0041 0.1218,0.0626 0.2479,0.130137 0.126,0.06753 0.2349,0.121314 0.2419,0.119513 0.01,-0.0018 0.2821,-0.135508 0.6112,-0.297122 z m -0.904,-1.339879 c -0.2226,-0.02895 -0.6428,-0.125447 -0.8786,-0.201761 -0.3492,-0.113025 -0.8717,-0.37523 -1.156,-0.580147 -0.268,-0.193126 -0.6537,-0.568001 -0.8411,-0.817617 -0.24,-0.319449 -0.4576,-0.724258 -0.4133,-0.76857 0.032,-0.03268 0.898,-0.01262 1.1698,0.0271 0.5262,0.07693 1.0165,0.219886 1.4953,0.435911 0.133,0.06005 0.3559,0.157252 0.4953,0.216009 0.3672,0.154828 0.6506,0.301912 0.6677,0.346511 0.034,0.08709 -0.2121,1.13768 -0.2995,1.28132 -0.048,0.07994 -0.065,0.08402 -0.2396,0.06124 z m -0.2165,-2.056917 c -1.1286,-0.17566 -1.9527,-0.423073 -2.7285,-0.819159 -0.938,-0.478916 -1.6156,-1.177653 -1.8718,-1.930264 -0.1022,-0.300389 -0.1109,-0.293901 0.3951,-0.294417 0.8738,-8.6e-4 1.8989,0.289897 2.9319,0.831607 0.4663,0.244572 0.5091,0.277407 0.6081,0.46731 0.1334,0.255813 0.4919,0.859106 0.7963,1.340096 0.2735,0.431949 0.2945,0.469961 0.2573,0.464896 -0.011,-0.0014 -0.1853,-0.02846 -0.3884,-0.06007 z m 0.5705,-0.275449 c -0.3145,-0.435915 -0.5596,-0.810647 -0.7261,-1.109815 -0.1427,-0.256349 -0.2649,-0.533857 -0.2442,-0.554546 0.012,-0.01234 0.6529,0.11802 1.0803,0.219881 l 0.3366,0.08023 -0.013,0.106301 c -0.013,0.109874 -0.157,1.245297 -0.1819,1.436903 -0.01,0.05953 -0.021,0.107919 -0.03,0.107538 -0.01,-3.86e-4 -0.1086,-0.129303 -0.2219,-0.286493 z m 0.256,-1.657225 c -0.8503,-0.316153 -1.5742,-1.177642 -1.8936,-2.253408 -0.084,-0.281963 -0.1657,-0.664283 -0.1465,-0.683427 0.023,-0.02372 1.6321,0.66294 2.1686,0.925789 l 0.2037,0.09983 -0.01,0.278889 c -0.01,0.279923 -0.067,1.1989 -0.097,1.520358 -0.01,0.101665 -0.028,0.171354 -0.045,0.170569 -0.016,-7.43e-4 -0.098,-0.0271 -0.1825,-0.0586 z m -1.4504,-0.461363 c -2.1462,-0.551029 -3.6498,-1.54672 -4.2292,-2.800627 -0.088,-0.189749 -0.2035,-0.56861 -0.1807,-0.591328 0.01,-0.007 0.1305,-0.02293 0.2744,-0.03544 0.8899,-0.0773 1.9407,0.232427 2.8367,0.836074 0.3836,0.258431 0.573,0.423549 0.573,0.499511 0,0.116144 0.1087,0.465968 0.2258,0.726896 0.198,0.441138 0.5461,0.96362 0.8783,1.318854 0.1099,0.117472 0.137,0.159528 0.1021,0.158544 -0.027,-7.43e-4 -0.2423,-0.05136 -0.4804,-0.11249 z m 1.4643,-2.001726 c -0.5932,-0.339951 -1.0408,-0.681458 -1.2732,-0.97136 -0.2509,-0.312905 -0.6304,-1.020918 -0.8094,-1.509703 -0.096,-0.261187 -0.2408,-0.826696 -0.2185,-0.851337 0.017,-0.01909 1.6831,0.824348 2.1634,1.09534 l 0.4608,0.259982 0.012,0.804847 c 0.01,0.442667 0.01,0.928558 -0.01,1.079759 l -0.016,0.274911 z m 3.9935,7.351508 c 0.01,-0.06674 0.01,-0.06674 -0.2674,0.03191 -0.1515,0.05426 -0.3198,0.117378 -0.3741,0.140263 -0.054,0.02288 -0.1083,0.0416 -0.1201,0.0416 -0.012,0 0.073,-0.140382 0.1899,-0.311959 0.1162,-0.171578 0.2935,-0.444579 0.3939,-0.606668 l 0.1824,-0.294709 v -0.450173 c 0,-0.247595 -0.01,-0.450172 -0.014,-0.450172 -0.01,0 -0.048,0.01803 -0.091,0.04008 -0.043,0.02204 -0.083,0.03476 -0.089,0.02827 -0.01,-0.0065 0.035,-0.08874 0.093,-0.182772 0.084,-0.137572 0.1031,-0.190586 0.097,-0.271436 l -0.01,-0.100472 -0.1146,0.159707 c -0.063,0.08784 -0.2493,0.295798 -0.4138,0.462132 l -0.2992,0.302426 v 0.175758 c 0,0.09667 0.011,0.175757 0.023,0.175757 0.013,0 0.098,-0.03362 0.1896,-0.07472 0.092,-0.04109 0.2482,-0.104161 0.3479,-0.140144 0.1814,-0.06542 0.1814,-0.06542 0.1643,-0.008 -0.039,0.130469 -0.4139,0.736628 -0.6401,1.035117 -0.084,0.111356 -0.085,0.113264 -0.085,0.397473 v 0.28558 l 0.4138,-0.159032 c 0.379,-0.145643 0.4146,-0.164651 0.4219,-0.225776 z m -3.5861,0.01732 c 0.5099,-0.211582 1.327,-0.629846 1.7317,-0.886362 0.9036,-0.572757 1.537,-1.176738 1.8977,-1.809842 0.12,-0.210523 0.2564,-0.538765 0.2335,-0.561697 -0.017,-0.01721 -0.3966,0.144753 -0.8637,0.368696 -0.6971,0.334263 -1.5375,0.823621 -2.1371,1.244457 -0.3982,0.27949 -0.9139,0.685602 -0.9772,0.769565 -0.027,0.03483 -0.1231,0.290125 -0.2151,0.567329 -0.1491,0.449411 -0.1617,0.502256 -0.1159,0.487837 0.028,-0.0089 0.229,-0.08989 0.4461,-0.179983 z m 3.5549,-0.18653 c 0.641,-0.228939 1.2646,-0.419475 1.793,-0.547754 0.6589,-0.159968 0.6356,-0.152322 0.8169,-0.269334 0.4133,-0.266888 0.8703,-0.830897 1.1956,-1.475295 0.077,-0.15113 0.077,-0.152547 0.019,-0.139435 -0.032,0.0073 -0.2747,0.05929 -0.5397,0.115563 -1.3579,0.288419 -2.419,0.631462 -2.7059,0.874793 -0.045,0.03769 -0.227,0.306042 -0.4055,0.596333 -0.1786,0.29029 -0.3915,0.628885 -0.4731,0.752432 -0.1413,0.213778 -0.1598,0.24649 -0.1397,0.24649 0.01,0 0.2025,-0.06921 0.4392,-0.153793 z m -2.5998,-1.98081 c 1.4311,-0.926483 2.0421,-1.368456 2.3554,-1.704139 0.508,-0.544348 0.9679,-1.257821 1.2576,-1.951136 l 0.038,-0.0913 -0.2213,0.118768 c -0.8101,0.434913 -1.1121,0.630384 -2.3349,1.511128 -1.2187,0.877829 -1.7599,1.283856 -1.807,1.355647 -0.022,0.03406 -0.057,0.140847 -0.077,0.237309 -0.039,0.189419 -0.1663,1.026072 -0.1663,1.093433 0,0.05065 -0.043,0.07631 0.9551,-0.569712 z m 3.0686,-0.05558 c 0.6442,-0.261876 1.3349,-0.474263 1.9823,-0.609533 0.4103,-0.08575 0.5921,-0.158095 0.7193,-0.286268 0.1955,-0.197071 0.8126,-1.119987 1.0082,-1.507848 l 0.1142,-0.226412 -0.1103,0.01724 c -0.2196,0.03434 -0.9939,0.221262 -1.3809,0.333337 -0.874,0.253134 -1.4811,0.537424 -1.7508,0.81989 -0.051,0.05349 -0.272,0.410326 -0.4908,0.792961 -0.2189,0.382634 -0.4177,0.725874 -0.4418,0.762756 -0.035,0.05429 -0.037,0.06384 -0.01,0.05016 0.021,-0.0093 0.1814,-0.07512 0.3564,-0.146296 z m -0.8889,-0.849811 c 0.1878,-0.08928 0.3671,-0.170275 0.3986,-0.179979 0.056,-0.01725 0.057,-0.02609 0.057,-0.388927 v -0.371284 l -0.2049,0.219016 c -0.1127,0.120459 -0.3018,0.294661 -0.4202,0.387116 l -0.2153,0.168101 v 0.164146 c 0,0.09028 0.01,0.164147 0.021,0.164147 0.012,0 0.1751,-0.07305 0.3628,-0.162336 z m -2.5913,-0.619599 c 1.3617,-0.940095 2.5898,-1.909001 3.1027,-2.448041 0.3436,-0.360989 0.6099,-0.797694 0.779,-1.277512 0.077,-0.219312 0.1728,-0.605571 0.1544,-0.624001 -0.016,-0.01665 -1.6776,1.371321 -2.3764,1.985807 -1.2042,1.058901 -1.5594,1.441318 -1.77,1.906091 -0.098,0.215021 -0.2246,0.653872 -0.1894,0.653872 0.01,0 0.1433,-0.0883 0.2997,-0.196216 z m 3.0246,-1.764668 c 0.013,0 0.023,-0.103744 0.023,-0.230541 v -0.230542 l -0.2355,0.211873 c -0.1295,0.116529 -0.3186,0.279858 -0.4202,0.36295 -0.1846,0.151078 -0.1846,0.151078 -0.1846,0.282209 v 0.131131 l 0.3975,-0.26354 c 0.2186,-0.144947 0.4077,-0.26354 0.4202,-0.26354 z m -2.7337,0.07118 c 1.0275,-0.903882 2.6458,-2.484057 2.9289,-2.859705 0.2789,-0.370155 0.5493,-1.033219 0.6647,-1.629826 0.07,-0.358051 0.086,-0.460307 0.073,-0.445655 -0.01,0.007 -0.1487,0.184628 -0.3161,0.394723 -0.6297,0.790216 -1.2125,1.423299 -1.9887,2.160172 -0.8633,0.819592 -1.4062,1.410613 -1.5417,1.678391 -0.038,0.07462 -0.085,0.215542 -0.1046,0.313166 -0.041,0.201463 -0.08,0.674084 -0.055,0.674084 0.01,0 0.162,-0.128407 0.3404,-0.28535 z m 0.013,-1.554571 c 0.4248,-0.5593 0.7743,-0.955662 1.3308,-1.508863 0.3099,-0.308138 0.6385,-0.65766 0.7304,-0.776714 0.6203,-0.804815 1.0578,-1.763736 1.245,-2.729681 0.027,-0.138408 0.048,-0.268877 0.048,-0.289933 0,-0.02106 -0.1109,0.09681 -0.2463,0.261929 -1.215,1.480658 -2.241,2.633958 -2.7267,3.064986 -0.3617,0.320968 -0.3896,0.373281 -0.4751,0.891466 -0.067,0.408813 -0.1613,1.373303 -0.1336,1.373303 0.01,0 0.107,-0.128922 0.2266,-0.286493 z m 2.4088,-0.159163 0.3336,-0.280126 v -0.247428 -0.247429 l -0.4194,0.425691 -0.4194,0.425691 v 0.173749 0.17375 l 0.086,-0.07189 c 0.047,-0.03954 0.236,-0.197943 0.4195,-0.352013 z m 5.7732,-1.350455 c 1.3223,-0.263403 2.4462,-0.863262 3.292,-1.757015 0.4702,-0.496855 0.8686,-1.105631 1.1076,-1.692877 0.1496,-0.367415 0.1659,-0.331058 -0.1486,-0.331058 -0.7661,0 -1.8197,0.420308 -3.1649,1.262602 -0.5754,0.360271 -0.6827,0.445929 -0.7037,0.562021 -0.076,0.415691 -0.4299,1.203951 -0.7868,1.75007 l -0.1976,0.302306 0.1476,-0.01746 c 0.081,-0.0096 0.2857,-0.04497 0.4544,-0.07858 z m -6.0073,-0.293629 c 0.1239,-0.133898 0.3026,-0.330009 0.3972,-0.435802 l 0.1719,-0.192348 v -0.340912 -0.340914 l -0.056,0.09755 c -0.1303,0.226179 -0.46,0.706469 -0.615,0.895621 -0.1668,0.203728 -0.1668,0.203728 -0.1669,0.390479 0,0.102713 0.01,0.182931 0.023,0.178262 0.012,-0.0047 0.1244,-0.118042 0.2483,-0.251941 z m 2.0568,-0.428204 c 0.6292,-0.328516 1.5426,-0.87239 2.2943,-1.3662 0.2677,-0.17583 0.4088,-0.289323 0.5649,-0.454248 0.4702,-0.496642 0.7784,-1.102491 0.9225,-1.813052 0.055,-0.275378 0.097,-0.698919 0.068,-0.698919 -0.04,0 -0.5589,0.257911 -0.8684,0.43147 -0.6811,0.381881 -1.27,0.796515 -1.9358,1.362989 -0.6474,0.550803 -0.6923,0.593634 -0.814,0.776744 -0.1617,0.243327 -0.2307,0.423179 -0.3612,0.942087 -0.062,0.244548 -0.1549,0.574014 -0.2077,0.732149 -0.053,0.158133 -0.085,0.287515 -0.071,0.287515 0.013,0 0.1974,-0.09024 0.4087,-0.200535 z m -4.2829,-0.195245 c 0.1352,-0.179119 0.2416,-0.279002 0.5039,-0.473081 0.3163,-0.233923 0.5558,-0.4421 0.8995,-0.781582 1.1447,-1.130697 1.804,-2.311499 1.9898,-3.56356 0.021,-0.143472 0.038,-0.309638 0.037,-0.369257 v -0.108399 l -0.158,0.169535 c -0.087,0.09324 -0.3986,0.42566 -0.6927,0.738704 -0.947,1.007895 -1.4289,1.543025 -1.9147,2.126612 -0.5017,0.602491 -0.5942,0.777878 -0.7077,1.341554 -0.049,0.244108 -0.1134,0.849489 -0.115,1.084787 0,0.04364 0.01,0.03805 0.1586,-0.165313 z m 2.7331,-2.280747 c 0.3791,-0.453779 0.6978,-0.839377 0.7082,-0.856885 0.015,-0.02456 -0.036,-0.03183 -0.2222,-0.03183 h -0.2412 l -0.1063,0.197362 c -0.1604,0.297792 -0.4483,0.725244 -0.6956,1.032587 -0.2212,0.274972 -0.2212,0.274972 -0.2206,0.432922 0,0.153361 0,0.156395 0.045,0.104424 0.024,-0.02944 0.3541,-0.424799 0.7331,-0.878578 z m 5.9293,0.321072 c 0.7692,-0.223131 1.5545,-0.628594 2.1673,-1.119107 0.7576,-0.606318 1.4555,-1.531741 1.8575,-2.463211 0.1245,-0.288507 0.2944,-0.760671 0.2944,-0.818119 0,-0.07045 -0.9598,0.100185 -1.4134,0.25127 -0.898,0.299154 -1.7491,0.830905 -2.461,1.537661 l -0.3474,0.344876 -0.015,0.209708 c -0.043,0.614295 -0.341,1.474826 -0.7015,2.025724 -0.071,0.108982 -0.1297,0.201833 -0.1297,0.206335 0,0.01358 0.5063,-0.104904 0.7484,-0.175137 z m -4.5882,-0.0537 c 0.4004,-0.335217 0.9655,-0.752176 1.6114,-1.189076 0.3222,-0.217891 0.6946,-0.487083 0.8276,-0.598206 0.3284,-0.274174 0.793,-0.761814 0.9894,-1.038386 0.2013,-0.283501 0.4178,-0.723569 0.4877,-0.991626 0.053,-0.204159 0.1003,-0.725783 0.066,-0.725783 -0.028,0 -1.8608,1.408751 -3.1363,2.410583 -0.5776,0.453695 -0.7011,0.579651 -0.8445,0.861803 -0.091,0.17929 -0.1775,0.443206 -0.2238,0.684779 -0.042,0.218451 -0.082,0.804985 -0.055,0.804985 0.01,0 0.1338,-0.09858 0.2777,-0.219073 z m -3.8793,-0.400296 c 0.3264,-0.382651 0.9834,-1.11389 1.482,-1.649486 0.2064,-0.221609 0.438,-0.497954 0.5148,-0.614097 0.3551,-0.536859 0.6031,-1.185118 0.7188,-1.879198 0.043,-0.256959 0.083,-1.095038 0.052,-1.095038 -0.01,0 -0.1291,0.08203 -0.2647,0.182281 -1.2085,0.893224 -2.1306,1.761267 -2.4305,2.287924 -0.1363,0.23947 -0.2191,0.629075 -0.2875,1.353974 -0.041,0.431297 -0.088,1.729275 -0.062,1.725626 0.01,-10e-4 0.1318,-0.141407 0.2773,-0.311986 z m -3.2824,0.05148 c 0,-0.0112 -0.019,-0.05703 -0.043,-0.101863 -0.024,-0.04482 -0.091,-0.219018 -0.1499,-0.387093 l -0.1069,-0.305592 -0.1685,-0.0075 c -0.093,-0.0041 -0.1686,-0.0024 -0.1686,0.0039 0,0.04037 0.195,0.560184 0.2539,0.6768 l 0.071,0.141742 h 0.1557 c 0.086,0 0.1556,-0.0092 0.1556,-0.02036 z m 2.8872,-0.168106 c 0.01,-0.103659 0.016,-0.28988 0.016,-0.413823 v -0.225352 h -0.2801 c -0.2779,0 -0.2801,4.69e-4 -0.2801,0.06048 0,0.03327 -0.01,0.09562 -0.016,0.138576 l -0.016,0.07809 -0.2069,-0.138577 c -0.2027,-0.135679 -0.2108,-0.138544 -0.3855,-0.137078 -0.1476,0.0013 -0.1704,0.0067 -0.1319,0.03183 0.026,0.01668 0.1912,0.139203 0.368,0.272263 l 0.3214,0.241927 -0.01,0.140064 -0.01,0.140063 h 0.304 0.3039 z m 1.0399,-0.107634 c 0.1377,-0.159288 0.297,-0.344048 0.3541,-0.410578 l 0.1037,-0.120963 h -0.1375 c -0.076,0 -0.1551,0.01433 -0.1763,0.03183 -0.032,0.02652 -0.5709,0.631433 -0.675,0.758155 -0.028,0.03399 -0.013,0.03827 0.1244,0.03496 l 0.1563,-0.0038 z m 2.8886,0.0949 c 0.025,-0.165547 0.099,-0.447281 0.1526,-0.587415 0.013,-0.0326 -0.013,-0.03902 -0.1512,-0.03902 h -0.1659 l -0.016,0.10823 c -0.015,0.09709 -0.072,0.441863 -0.1068,0.643018 -0.013,0.0764 -0.013,0.0764 0.1222,0.0731 l 0.1355,-0.0033 z m 1.7316,-0.05248 c 0.1648,-0.137531 0.3862,-0.313175 0.4919,-0.390321 0.1058,-0.07715 0.2032,-0.150027 0.2165,-0.161956 0.014,-0.01218 -0.056,-0.02169 -0.1571,-0.02169 -0.1812,0 -0.1812,0 -0.4335,0.171896 -0.3806,0.259268 -0.8957,0.628626 -0.8969,0.643016 0,0.007 0.1071,0.01192 0.2392,0.01092 l 0.2402,-0.0018 z m 2.74,0.102222 c 0.088,-0.173509 0.2489,-0.588068 0.2489,-0.640176 0,-0.02729 -0.04,-0.03601 -0.163,-0.03601 h -0.1629 l -0.066,0.205621 c -0.036,0.113091 -0.1064,0.292329 -0.1553,0.398309 -0.049,0.105979 -0.089,0.19967 -0.089,0.208203 0,0.0085 0.07,0.01479 0.1564,0.01391 l 0.1564,-0.0016 z m -14.9322,-0.975417 c -0.1645,-0.172281 -0.3928,-0.444019 -0.5746,-0.683894 -0.056,-0.07372 -0.056,-0.07372 -0.057,0.403769 v 0.477487 h 0.4108 0.4109 z m 3.2977,0.02546 c -0.019,-0.09454 -0.041,-0.312607 -0.051,-0.484587 l -0.017,-0.31269 0.214,0.09131 c 0.3015,0.128625 0.7869,0.386883 1.2248,0.651665 0.3711,0.224385 0.3754,0.226196 0.5432,0.226196 h 0.1692 l -0.2883,-0.222827 c -0.3468,-0.268017 -0.8699,-0.782077 -1.0843,-1.065706 -0.5002,-0.661578 -0.7333,-1.310439 -0.6839,-1.903189 0.01,-0.113201 0.022,-0.210515 0.027,-0.216252 0.01,-0.0057 0.2546,0.176508 0.5529,0.404989 0.6848,0.524477 2.2164,1.705066 2.2438,1.729648 0.011,0.01019 0,0.09151 -0.021,0.180723 -0.066,0.256634 -0.1114,0.543248 -0.1298,0.828697 l -0.017,0.263917 h 0.2928 0.2926 l 0.017,-0.314556 c 0.01,-0.173007 0.034,-0.450905 0.056,-0.617551 0.089,-0.681924 0.1839,-0.951271 0.4709,-1.334369 0.2004,-0.267449 0.7846,-0.848437 1.1779,-1.171438 l 0.2946,-0.241928 v -2.769429 -2.769433 h -2.4346 -2.4347 l 0.1535,0.171896 c 0.084,0.09454 0.2446,0.273697 0.3559,0.398119 l 0.2025,0.226224 -0.013,0.781518 c -0.014,0.839847 0.012,1.289776 0.095,1.612404 0.026,0.101249 0.043,0.188291 0.038,0.193424 -0.03,0.03128 -0.723,-0.432408 -1.1319,-0.756836 -0.3279,-0.260128 -1.0653,-1.000051 -1.3235,-1.32798 -0.2419,-0.307134 -0.5816,-0.813893 -0.7382,-1.101407 l -0.1075,-0.197362 h -0.94 -0.9399 v 0.389572 0.389571 l 0.2358,0.02978 c 0.9887,0.124885 2.3321,0.887245 3.7569,2.132097 0.3384,0.295614 0.3384,0.295614 0.3203,0.389887 -0.01,0.05185 -0.019,0.386496 -0.019,0.743657 0,0.67992 0.027,1.007899 0.1136,1.284942 0.026,0.08344 0.042,0.156285 0.037,0.161884 -0.016,0.01641 -0.6081,-0.280616 -0.981,-0.49248 -0.4297,-0.244134 -1.1998,-0.756438 -1.5567,-1.035501 -0.7805,-0.610297 -1.4324,-1.299733 -1.8133,-1.917781 l -0.094,-0.152652 0.01,0.723048 0.01,0.723046 0.2037,0.05662 c 0.9386,0.260847 2.0596,0.978874 3.3435,2.141527 0.1093,0.09898 0.1093,0.09898 0.1341,0.388278 0.03,0.348538 0.077,0.593869 0.1801,0.933067 0.092,0.302299 0.3104,0.765865 0.4423,0.937622 0.052,0.06749 0.089,0.12752 0.083,0.1334 -0.016,0.0169 -0.7568,-0.316508 -1.2306,-0.554551 -1.238,-0.621884 -2.2795,-1.349626 -2.9593,-2.067788 l -0.21,-0.221956 v 0.535497 0.535496 l 0.1082,0.02754 c 1.1708,0.297888 2.1806,0.879621 3.0515,1.757857 l 0.2948,0.297328 0.032,0.264755 c 0.029,0.243201 0.089,0.576107 0.1166,0.653112 0.01,0.02125 0.07,0.03183 0.1866,0.03183 h 0.1751 z m 2.7793,-1.739841 c -0.1261,-0.09729 -0.3954,-0.287652 -0.5985,-0.423021 -0.7026,-0.468345 -1.0418,-0.815562 -1.3167,-1.347859 -0.3209,-0.621276 -0.4118,-1.213684 -0.3092,-2.015409 0.015,-0.115551 0.033,-0.210094 0.04,-0.210094 0.01,0 0.1399,0.134652 0.2948,0.299227 0.9108,0.967201 1.7302,1.681595 2.3792,2.074123 0.301,0.182019 0.5424,0.354203 0.6237,0.444784 0.041,0.04648 0.036,0.05714 -0.1227,0.251396 -0.2156,0.263078 -0.4819,0.660595 -0.6093,0.909428 -0.055,0.108489 -0.1125,0.196594 -0.1265,0.195788 -0.014,-7.82e-4 -0.1286,-0.08107 -0.2546,-0.178363 z m 1.3114,-1.478271 c -0.1255,-0.108975 -0.6335,-0.473096 -0.8943,-0.641039 -0.3334,-0.21476 -0.6912,-0.513943 -1.0156,-0.84927 -0.4428,-0.457688 -0.7094,-0.883481 -0.7642,-1.220384 -0.057,-0.351803 -0.086,-1.134947 -0.055,-1.488178 0.033,-0.375844 0.073,-0.592691 0.1073,-0.580691 0.045,0.01597 0.7125,0.559949 1.043,0.850249 0.4194,0.368447 1.2199,1.166749 1.5683,1.564044 0.34,0.387565 0.6626,0.791022 0.9256,1.15761 l 0.2147,0.299232 -0.5076,0.492616 c -0.2791,0.27094 -0.5133,0.49274 -0.5202,0.49289 -0.01,1.93e-4 -0.053,-0.03454 -0.102,-0.07708 z m 0.9663,3.137021 c 0.2332,-0.252988 0.2332,-0.252988 0.2256,-0.402494 l -0.01,-0.149507 -0.3288,0.351851 c -0.1808,0.193517 -0.3449,0.37464 -0.3643,0.402494 -0.034,0.04869 -0.031,0.05064 0.1032,0.05064 0.1387,0 0.1387,0 0.372,-0.252987 z m 2.4078,0.0894 c 0.052,-0.08997 0.1294,-0.204492 0.1706,-0.254488 0.076,-0.09183 1.0996,-0.900598 2.6181,-2.068131 1.4353,-1.10349 1.3068,-1.01222 1.3323,-0.94578 0.012,0.03175 0.016,0.206712 0.01,0.388794 -0.01,0.258616 -0.027,0.381211 -0.08,0.560252 -0.089,0.299255 -0.2793,0.67895 -0.4923,0.980443 -0.2356,0.333509 -0.8778,0.973383 -1.2735,1.268925 l -0.3128,0.23357 h 0.1692 c 0.1663,0 0.1744,-0.0032 0.4656,-0.18656 0.163,-0.102608 0.4006,-0.245721 0.5281,-0.318028 0.3065,-0.173928 1.0789,-0.548846 1.0958,-0.531916 0.01,0.0073 0,0.166204 -0.016,0.353031 -0.026,0.301223 -0.042,0.409346 -0.091,0.626175 -0.013,0.05512 -0.01,0.0573 0.1618,0.0573 0.1747,0 0.1747,0 0.2026,-0.0955 0.044,-0.152422 0.1028,-0.48798 0.1226,-0.707089 l 0.019,-0.202066 0.257,-0.265212 c 0.7913,-0.816604 1.8172,-1.447331 2.8164,-1.731578 0.147,-0.04184 0.296,-0.08217 0.331,-0.08963 0.063,-0.01355 0.063,-0.01355 0.064,-0.547577 v -0.534016 l -0.357,0.349656 c -0.769,0.753219 -1.6782,1.372289 -2.9036,1.976968 -0.4342,0.214289 -1.1118,0.521806 -1.1498,0.521806 -0.01,0 0.044,-0.07735 0.11,-0.171896 0.2186,-0.317245 0.4291,-0.837061 0.5283,-1.305133 0.022,-0.105048 0.055,-0.332673 0.072,-0.505835 l 0.031,-0.314838 0.1916,-0.179367 c 1.082,-1.01295 2.4222,-1.858698 3.2979,-2.081072 l 0.1786,-0.04536 v -0.714446 c 0,-0.392946 0,-0.712166 -0.01,-0.709377 0,0.0028 -0.081,0.11805 -0.173,0.256134 -0.6597,0.986801 -1.8025,1.973587 -3.2459,2.802988 -0.3446,0.198016 -0.9768,0.523462 -1.0169,0.523462 -0.012,0 0,-0.08929 0.035,-0.198432 0.092,-0.318418 0.1221,-0.727724 0.1065,-1.458064 l -0.014,-0.650587 0.2377,-0.209382 c 1.4719,-1.296799 2.7873,-2.049975 3.8471,-2.202988 l 0.2266,-0.03271 v -0.348781 -0.348781 h -0.9598 -0.9599 l -0.1208,0.210095 c -0.5112,0.888461 -1.2307,1.716233 -2.0865,2.400439 -0.2155,0.172315 -0.7075,0.508566 -0.9143,0.624808 l -0.1504,0.08454 0.019,-0.07468 c 0.1153,-0.452424 0.1592,-1.158164 0.1219,-1.959165 l -0.026,-0.560254 0.2312,-0.254659 c 0.1272,-0.140064 0.2774,-0.303365 0.3338,-0.362892 l 0.1025,-0.108231 h -2.4118 -2.4119 v 2.370077 2.370074 l 0.073,-0.05192 c 0.04,-0.02856 0.08,-0.04461 0.089,-0.03569 0.027,0.02626 0.019,0.803066 -0.011,1.071947 -0.015,0.13601 -0.055,0.37327 -0.089,0.527245 -0.055,0.248079 -0.063,0.340752 -0.063,0.813968 v 0.534015 l 0.3298,-0.342847 0.3297,-0.342848 v 0.101866 c 0,0.198894 -0.052,0.688783 -0.1025,0.93994 -0.062,0.306478 -0.1984,0.736044 -0.3292,1.040043 l -0.096,0.222828 h 0.4522 0.4521 z m -0.3181,-0.354313 c 0,-0.142901 0.1355,-1.580365 0.1652,-1.753861 0.077,-0.446086 0.2551,-0.770764 0.5536,-1.007242 0.088,-0.06965 0.2973,-0.210252 0.4653,-0.312463 0.5907,-0.359199 1.1086,-0.788834 1.8864,-1.564775 0.2811,-0.280474 0.5775,-0.582138 0.6587,-0.670364 0.081,-0.08823 0.152,-0.155987 0.1575,-0.150576 0.04,0.03998 0.072,0.380224 0.072,0.769376 0,0.418621 -0.01,0.482292 -0.071,0.733905 -0.2231,0.865844 -0.652,1.440923 -1.4881,1.995204 -0.7819,0.518352 -1.6552,1.222936 -2.151,1.735412 -0.1366,0.141169 -0.2483,0.242592 -0.2483,0.225384 z m 0.764,-0.860996 c 0.4832,-0.418455 0.9975,-0.806642 1.5696,-1.184917 0.9265,-0.612539 1.4074,-1.35856 1.5141,-2.348739 0.026,-0.239775 0.017,-0.633924 -0.019,-0.780205 -0.01,-0.04286 -0.1233,0.05825 -0.6412,0.573563 -0.8657,0.861225 -1.3681,1.273345 -2.0805,1.706744 -0.6863,0.417571 -0.8193,0.694934 -0.9156,1.909953 -0.022,0.273123 -0.045,0.54808 -0.052,0.611014 l -0.013,0.114427 0.2232,-0.218226 c 0.1228,-0.120024 0.3092,-0.29265 0.4142,-0.383614 z m -1.2161,-1.288673 c -0.01,-0.02451 -0.018,-0.439925 -0.019,-0.923143 0,-1.272174 0.042,-1.452011 0.4575,-1.918866 0.2169,-0.243688 0.9108,-0.90103 1.5408,-1.459845 0.5572,-0.494143 1.4798,-1.281572 1.5016,-1.281572 0.085,0 0.125,1.382097 0.056,1.935417 -0.027,0.224795 -0.051,0.303907 -0.144,0.496587 -0.1458,0.301286 -0.3711,0.600751 -0.7003,0.930825 -0.3155,0.316181 -0.5628,0.516714 -0.9812,0.795602 -0.791,0.527301 -1.3724,1.026993 -1.5394,1.323132 -0.084,0.148616 -0.1415,0.182523 -0.1733,0.101863 z m 0.5024,-0.65131 c 0.2339,-0.216212 0.5606,-0.463199 1.0352,-0.782545 0.4835,-0.32534 0.7974,-0.578486 1.1085,-0.893804 0.4002,-0.405614 0.7036,-0.870195 0.759,-1.161944 0.074,-0.392368 0.093,-1.436646 0.032,-1.806331 l -0.018,-0.10723 -0.5347,0.460855 c -1.5161,1.306471 -2.367,2.112775 -2.5979,2.461625 -0.1695,0.25626 -0.2544,1.103488 -0.1997,1.996134 l 0.016,0.268256 0.1194,-0.14333 c 0.066,-0.07883 0.1918,-0.21009 0.2801,-0.291686 z m 8.3667,2.809557 c 0,-0.280127 -0.01,-0.508987 -0.013,-0.508579 -0.01,3.86e-4 -0.065,0.072 -0.1278,0.15908 -0.1459,0.201577 -0.3508,0.439455 -0.5807,0.674191 l -0.1808,0.184628 h 0.4507 0.4508 z m -9.6669,-0.648552 0.3331,-0.355691 v -0.421022 -0.421022 l -0.084,0.203728 c -0.1702,0.413037 -0.4136,0.829414 -0.6427,1.099102 -0.1039,0.122443 -0.1115,0.141491 -0.1115,0.279701 v 0.14831 l 0.087,-0.08871 c 0.048,-0.04879 0.237,-0.248768 0.4201,-0.4444 z m 5.8015,-0.519897 c 0.6428,-0.282859 1.4471,-0.722324 2.0327,-1.110593 1.3213,-0.87615 2.2629,-1.913982 2.5993,-2.865096 0.059,-0.165531 0.059,-0.165531 0.01,-0.182091 -0.1077,-0.03168 -0.5507,-0.0214 -0.7358,0.01708 -0.9063,0.188352 -2.1976,0.97229 -3.3975,2.062559 l -0.2061,0.187311 -0.016,0.237238 c -0.033,0.493959 -0.1978,1.109659 -0.4131,1.538756 -0.059,0.11754 -0.1035,0.21371 -0.099,0.21371 0.01,0 0.1094,-0.0445 0.233,-0.09888 z m -15.7312,-1.96442 v -0.586233 l -0.1242,-0.158616 c -0.1778,-0.227228 -0.3992,-0.574346 -0.4901,-0.76835 -0.043,-0.09184 -0.08,-0.166982 -0.082,-0.166984 -0.01,-2e-6 0,0.489758 0,1.088356 l 0.01,1.088359 0.2486,0.03122 c 0.1367,0.01717 0.2715,0.0358 0.2995,0.04142 0.15,0.03004 0.14,0.07063 0.14,-0.569132 z m 20.1246,0.454908 0.2737,-0.03165 v -1.096299 -1.096302 l -0.064,0.137518 c -0.097,0.207413 -0.2977,0.530778 -0.4695,0.754908 l -0.1536,0.20026 v 0.596231 0.596231 l 0.07,-0.01463 c 0.038,-0.008 0.1932,-0.02886 0.3438,-0.04627 z m -10.2698,-0.914641 0.408,-0.307484 v -2.45558 -2.455581 h 2.5035 2.5036 l 0.2266,-0.235561 c 0.1247,-0.129559 0.2783,-0.289994 0.3413,-0.356525 l 0.1147,-0.120964 h -6.1455 -6.1455 l 0.3402,0.354962 0.3402,0.354962 2.5403,0.0016 2.5402,0.0016 v 2.763065 c 0,1.519686 0.01,2.763064 0.012,2.763064 0.01,0 0.1959,-0.138367 0.4203,-0.307483 z m 5.896,-0.08142 c 2.1224,-1.142326 3.5718,-2.543261 4.0588,-3.923248 0.044,-0.123671 0.079,-0.241134 0.079,-0.261027 0,-0.02798 -0.042,-0.03617 -0.1876,-0.03617 -0.7447,0 -1.8127,0.456282 -2.9065,1.241704 -0.4551,0.326838 -0.9347,0.713895 -1.3016,1.050656 l -0.1048,0.09616 0.019,0.429202 c 0.021,0.486369 -0.01,1.216545 -0.059,1.454581 -0.034,0.157112 -0.033,0.159281 0.02,0.14293 0.03,-0.0091 0.202,-0.09678 0.3841,-0.194783 z m -15.9602,-1.709595 0.2107,0.01642 -0.01,-0.82435 -0.01,-0.824349 -0.1063,-0.232275 c -0.108,-0.235906 -0.2301,-0.610701 -0.2065,-0.634258 0.01,-0.0071 0.081,-0.02136 0.1632,-0.03167 l 0.1502,-0.01875 0.01,-0.439204 0.01,-0.439203 h 0.964 0.9638 l -0.1237,-0.286494 c -0.068,-0.157571 -0.1349,-0.318123 -0.1484,-0.356781 l -0.025,-0.07029 -1.1603,0.0066 -1.1602,0.0066 v 2.069116 c 10e-5,1.138013 0,2.073132 0,2.078044 10e-5,0.0049 0.06,-0.0011 0.1339,-0.01336 0.073,-0.01226 0.2285,-0.0149 0.3444,-0.0059 z m 20.6077,-2.090661 v -2.050049 h -1.1806 -1.1805 l -0.097,0.235562 c -0.053,0.129558 -0.1238,0.289994 -0.1569,0.356523 l -0.06,0.120965 h 0.9937 0.9936 v 0.407456 0.407456 h 0.1002 c 0.055,0 0.1288,0.01089 0.1639,0.02419 l 0.063,0.0242 -0.064,0.211361 c -0.035,0.11625 -0.1091,0.31452 -0.1639,0.440601 l -0.1,0.229239 v 0.812164 0.812163 l 0.1974,-0.0139 c 0.1547,-0.0109 0.4441,0.0061 0.4838,0.02846 0,0.002 0.01,-0.918922 0.01,-2.04643 z m -5.5608,1.697078 c 1.8784,-1.24224 3.1348,-3.118353 3.4431,-5.141359 0.055,-0.356998 0.057,-0.352506 -0.156,-0.245 -0.6551,0.330199 -1.7805,1.338174 -3.0378,2.720913 l -0.4311,0.474148 -0.01,0.985625 c 0,0.748798 -0.012,1.029988 -0.04,1.170254 -0.02,0.101546 -0.029,0.184629 -0.019,0.184629 0.01,0 0.1193,-0.06714 0.2435,-0.14921 z"
         id="path119" />
    </g>
  </g>
</svg>
