<?xml version="1.0" encoding="UTF-8" standalone="no"?>
<!-- Created with Inkscape (http://www.inkscape.org/) -->

<svg
   width="41.008999mm"
   height="41.008999mm"
   viewBox="0 0 41.008999 41.008999"
   version="1.1"
   id="svg1"
   inkscape:version="1.4.2 (f4327f4, 2025-05-13)"
   sodipodi:docname="339.svg"
   xmlns:inkscape="http://www.inkscape.org/namespaces/inkscape"
   xmlns:sodipodi="http://sodipodi.sourceforge.net/DTD/sodipodi-0.dtd"
   xmlns="http://www.w3.org/2000/svg"
   xmlns:svg="http://www.w3.org/2000/svg">
  <sodipodi:namedview
     id="namedview1"
     pagecolor="#ffffff"
     bordercolor="#000000"
     borderopacity="0.25"
     inkscape:showpageshadow="2"
     inkscape:pageopacity="0.0"
     inkscape:pagecheckerboard="0"
     inkscape:deskcolor="#d1d1d1"
     inkscape:document-units="mm"
     inkscape:zoom="1.4513545"
     inkscape:cx="86.470947"
     inkscape:cy="71.657199"
     inkscape:window-width="1050"
     inkscape:window-height="1081"
     inkscape:window-x="857"
     inkscape:window-y="0"
     inkscape:window-maximized="0"
     inkscape:current-layer="layer1" />
  <defs
     id="defs1" />
  <g
     inkscape:label="Layer 1"
     inkscape:groupmode="layer"
     id="layer1"
     transform="translate(333.37504,1257.5646)">
    <g
       id="g120"
       transform="translate(-1500.6376,-1181.6571)">
      <circle
         style="fill:none;stroke:#0000ff;stroke-width:0.1;stroke-linecap:round;stroke-dasharray:none;stroke-opacity:1;paint-order:markers stroke fill"
         id="circle6695-6"
         cx="1187.7671"
         cy="-70.414459"
         r="2" />
      <circle
         style="fill:none;stroke:#ff0000;stroke-width:0.1;stroke-dasharray:none"
         id="circle6705-3"
         cx="1187.7671"
         cy="-55.403046"
         r="19.954653" />
      <ellipse
         style="fill:none;stroke:#ff00ff;stroke-width:0.1;stroke-dasharray:none;stroke-opacity:1"
         id="path1138-9-4-0-0-1-2-0-0-6-8-8-1-2-0-7-3-35"
         cx="1187.7671"
         cy="-55.403046"
         rx="18.492125"
         ry="18.492126" />
      <path
         style="fill:#000000;stroke-width:0.308917"
         d="m 1185.9455,-39.686486 -1.9363,-0.939943 h -2.7009 c -1.7462,0 -2.701,-0.02889 -2.701,-0.08173 0,-0.04496 -0.1493,-0.08173 -0.3317,-0.08173 -0.2004,0 -0.3118,-0.03237 -0.2812,-0.08174 0.027,-0.04495 0.1389,-0.08173 0.2471,-0.08173 0.1081,0 0.2317,-0.06558 0.2746,-0.145751 0.05,-0.09399 0.2617,-0.183606 0.5954,-0.252352 0.5897,-0.121478 2.0296,-0.569519 2.0296,-0.631521 0,-0.02262 -0.9839,-0.516741 -2.1864,-1.098032 -1.2025,-0.581291 -2.2783,-1.104972 -2.3907,-1.163735 l -0.2044,-0.106842 -0.021,-10.65824 c -0.021,-10.609687 -0.022,-10.659049 -0.188,-10.836157 -0.1408,-0.149899 -0.1632,-0.265609 -0.1427,-0.734751 l 0.024,-0.556834 0.5722,0.02082 c 0.354,0.01288 0.6213,0.06521 0.7011,0.137237 0.109,0.0983 0.9823,0.116423 5.6105,0.116423 4.923,0 5.4865,0.01317 5.5311,0.129286 0.027,0.07111 0.048,0.411325 0.048,0.756041 0,0.463606 -0.051,0.745647 -0.1898,1.083494 -0.174,0.42306 -0.8629,1.499134 -0.9219,1.440123 -0.014,-0.01429 -0.031,-0.532093 -0.035,-1.150671 -0.01,-0.770739 -0.04,-1.13612 -0.1045,-1.161011 -0.052,-0.01998 -2.0869,-0.02677 -4.5216,-0.01509 l -4.4267,0.02124 2.6576,2.574627 c 1.4617,1.416045 2.8179,2.714215 3.0137,2.884822 l 0.356,0.310194 0.3097,-0.340518 c 0.1702,-0.187284 0.3215,-0.371758 0.336,-0.409942 0.014,-0.03819 -0.071,-0.197072 -0.1899,-0.353085 -0.119,-0.156013 -0.2869,-0.469362 -0.3732,-0.696332 -0.1588,-0.417944 -0.3103,-1.558607 -0.2071,-1.558607 0.031,0 0.1557,0.09465 0.2773,0.210331 0.3371,0.320467 0.8678,0.673942 1.3414,0.893356 0.3815,0.176764 0.4413,0.184768 0.5622,0.07534 0.1254,-0.113521 0.1211,-0.157462 -0.059,-0.6032 -0.2383,-0.589882 -0.366,-1.567179 -0.1861,-1.423427 0.064,0.05079 0.3692,0.28073 0.6792,0.510982 0.6592,0.489616 0.6262,0.499885 1.1971,-0.372716 0.4694,-0.717228 0.6856,-1.447396 0.6351,-2.144634 -0.019,-0.273423 -0.01,-0.497131 0.031,-0.497131 0.036,0 0.2192,0.137925 0.4063,0.306502 0.3657,0.329688 0.7209,0.989111 0.7222,1.340754 v 0.216907 l 0.4291,-0.231576 c 0.236,-0.127366 0.8705,-0.364743 1.4099,-0.527505 1.2336,-0.372202 1.7296,-0.598004 2.1521,-0.979701 0.3344,-0.302062 0.3344,-0.302062 0.3876,-0.09007 0.1095,0.436056 -0.109,1.245623 -0.4372,1.619809 -0.1186,0.135286 -0.07,0.142947 0.8886,0.141415 1.6208,-0.0026 2.6314,-0.212267 3.3659,-0.698353 0.1757,-0.116242 0.3307,-0.199398 0.3446,-0.184793 0.014,0.0146 -0.086,0.253953 -0.2222,0.531882 -0.25,0.510312 -0.7481,1.099426 -1.3084,1.547312 l -0.3052,0.243981 0.4278,0.286625 c 0.2673,0.179093 0.621,0.545548 0.9428,0.97678 0.8407,1.126369 1.1966,1.423591 2.1005,1.753964 0.146,0.05336 0.1373,0.06745 -0.082,0.131801 -0.2908,0.08545 -1.3035,0.108848 -1.4263,0.03296 -0.1183,-0.07316 -0.1102,-0.03206 0.083,0.418905 0.2876,0.670862 1.0129,1.67588 1.6655,2.307749 l 0.624,0.60412 -0.3506,-0.04859 c -0.3349,-0.04643 -1.491,-0.36955 -1.8096,-0.505781 -0.092,-0.03938 0.061,0.242131 0.3915,0.719171 0.6456,0.932438 1.1375,1.947597 1.3193,2.722468 0.194,0.82674 0.1229,2.157538 -0.1601,2.997464 -0.2513,0.745881 -0.2768,0.981008 -0.053,0.48788 0.1745,-0.384451 0.2932,-0.477157 0.157,-0.122601 -0.048,0.123623 -0.098,0.850035 -0.1123,1.61425 -0.026,1.393997 -0.2079,2.766119 -0.4876,3.678039 -0.069,0.224769 -0.1257,0.54477 -0.1261,0.711113 0,0.166343 -0.048,0.331855 -0.1059,0.367803 -0.057,0.03595 -0.2094,0.341216 -0.3371,0.678369 -0.1277,0.337154 -0.4903,1.154253 -0.8059,1.815777 l -0.5737,1.20277 -3.0328,0.02324 -3.0329,0.02324 -1.839,0.918889 c -1.0115,0.505388 -1.8764,0.919168 -1.922,0.919509 -0.046,3.41e-4 -0.9543,-0.422353 -2.0192,-0.939321 z m 1.3757,-0.756041 c -0.01,-0.224769 -0.01,-0.224769 0.6038,-0.224769 0.608,0 0.6133,0.0019 0.6389,0.224769 0.015,0.123623 0.051,0.222985 0.082,0.220803 0.031,-0.0022 0.2948,-0.129128 0.5871,-0.282104 l 0.5312,-0.278138 h -1.7981 -1.7982 l 0.5313,0.278138 c 0.2922,0.152976 0.5539,0.279923 0.5814,0.282104 0.027,0.0022 0.046,-0.09718 0.041,-0.220803 z m -4.353,-2.264221 c 0.2611,-0.241989 0.2759,-0.519113 0.044,-0.814696 -0.2464,-0.3132 -0.6147,-0.267427 -0.8666,0.107706 -0.2638,0.392898 -0.2419,0.604989 0.079,0.764766 0.368,0.183182 0.4947,0.173349 0.7441,-0.05777 z m -0.4921,-0.02619 c -0.065,-0.04145 -0.01,-0.155068 0.1779,-0.35887 0.1504,-0.164021 0.2944,-0.277156 0.3202,-0.251412 0.1019,0.10192 0.037,0.326936 -0.1423,0.49572 -0.2101,0.197329 -0.2205,0.200656 -0.3558,0.114562 z m -0.3542,-0.289638 c 0,-0.146848 0.2493,-0.530367 0.3765,-0.579171 0.2583,-0.09912 0.2284,0.03824 -0.074,0.340752 -0.1664,0.166329 -0.3025,0.273617 -0.3025,0.238419 z m -0.4058,-0.05051 c -0.047,-0.08695 -0.085,-0.341593 -0.085,-0.565868 0,-1.397269 2.1145,-1.643151 2.7685,-0.321931 l 0.1738,0.351153 10e-5,-0.5853 c 0,-0.609158 0.1931,-1.270712 0.4819,-1.651938 0.1463,-0.193093 0.1471,-0.19133 0.1942,0.431505 0.052,0.692964 0.2249,1.07784 0.5698,1.271447 0.2974,0.166863 0.3308,0.09256 0.1361,-0.301217 -0.3595,-0.726411 -0.2609,-1.763724 0.2291,-2.411478 0.1981,-0.261921 0.8449,-0.798862 0.9623,-0.798862 0.023,0 -0.078,0.227505 -0.2242,0.505566 -0.2263,0.431951 -0.2648,0.589638 -0.2644,1.082977 0,0.485571 0.039,0.646743 0.2414,1.013279 0.1325,0.239726 0.3465,0.524703 0.4756,0.63328 l 0.2346,0.197414 0.5724,-0.469811 c 1.0362,-0.850339 1.7905,-1.951872 2.0648,-3.015369 0.2731,-1.058505 0.092,-2.322229 -0.5154,-3.592496 -0.3163,-0.661863 -0.3163,-0.661863 -0.7053,-0.715174 -0.214,-0.02932 -0.5949,-0.05331 -0.8464,-0.05331 -0.4575,0 -0.4575,0 -1.5416,1.081843 -1.0841,1.081843 -1.0841,1.081843 -1.092,1.491649 -0.01,0.409807 -0.01,0.409807 -1.1352,1.451918 -1.0482,0.968906 -1.3089,1.161058 -1.3089,0.964902 0,-0.160621 -0.8224,-0.878054 -1.2201,-1.064301 -0.3096,-0.145012 -0.4146,-0.238697 -0.4146,-0.369984 0,-0.529522 -0.4226,-1.201881 -0.9358,-1.489153 -0.1013,-0.05667 -0.1394,-0.287842 -0.1802,-1.094584 l -0.052,-1.022747 0.4113,-0.30197 c 0.902,-0.662102 1.7532,-1.738072 2.2717,-2.871438 0.4486,-0.980563 0.458,-0.959241 -0.268,-0.601231 -0.6341,0.312647 -1.3938,0.506411 -1.7978,0.458549 -0.2,-0.0237 -0.1846,-0.04548 0.2293,-0.322001 0.8318,-0.555666 1.7983,-1.700855 2.1483,-2.545253 l 0.1276,-0.308071 -2.986,-3.083897 c -1.6423,-1.696144 -3.0128,-3.093713 -3.0453,-3.105709 -0.032,-0.012 -0.059,2.001047 -0.059,4.473428 l -10e-5,4.495236 1.8024,0.02195 1.8024,0.02195 -0.4344,0.297063 -0.4344,0.297063 0.3935,-0.03638 c 0.93,-0.08596 1.5607,-0.209196 2.02,-0.394664 0.2699,-0.109042 0.5086,-0.180492 0.5303,-0.158778 0.022,0.02171 -0.083,0.293058 -0.2332,0.602986 -0.1899,0.392611 -0.3247,0.572339 -0.4442,0.592636 -0.094,0.01602 -1.2441,0.02307 -2.555,0.01566 -2.1518,-0.01216 -2.3865,-4.01e-4 -2.4159,0.121078 -0.018,0.074 -0.031,2.227039 -0.027,4.784532 l 0.01,4.649985 2.1661,1.047852 c 1.1912,0.576319 2.1948,1.049257 2.23,1.050975 0.035,0.0017 0.026,-0.06802 -0.02,-0.154973 z m -0.3707,-0.250576 c -0.027,-0.04495 -0.011,-0.08173 0.036,-0.08173 0.048,0 0.087,0.03678 0.087,0.08173 0,0.04496 -0.016,0.08173 -0.036,0.08173 -0.019,0 -0.059,-0.03678 -0.087,-0.08173 z m -0.5313,-0.240927 c 0,-0.241302 6.2355,-6.435334 6.2808,-6.239037 0.015,0.06821 -0.3775,0.539153 -0.8963,1.073486 -2.713,2.794169 -3.6661,3.731881 -4.0358,3.970781 -0.2248,0.145235 -0.4621,0.371365 -0.5273,0.50251 -0.2378,0.478406 -0.8214,0.970207 -0.8214,0.69226 z m -0.5221,-0.234756 c -0.052,-0.08358 2.7067,-2.957153 2.8386,-2.957153 0.053,0 0.5112,-0.390715 1.0185,-0.868256 0.5073,-0.47754 0.9387,-0.851998 0.9585,-0.832128 0.055,0.05474 -4.5704,4.724549 -4.6794,4.724549 -0.053,0 -0.1134,-0.03016 -0.1362,-0.06701 z m -0.5019,-0.263824 c -0.052,-0.08406 2.7797,-3.101464 2.9701,-3.164931 0.053,-0.01781 0.121,0.02937 0.1499,0.104856 0.039,0.102011 -0.3331,0.523481 -1.4499,1.641481 -0.8265,0.827325 -1.5284,1.504228 -1.5599,1.504228 -0.032,0 -0.081,-0.03853 -0.1102,-0.08563 z m -0.515,-0.23181 c -0.079,-0.04959 0.3179,-0.515661 1.4605,-1.71435 0.863,-0.905435 1.597,-1.646246 1.6311,-1.646246 0.034,0 0.1019,0.04788 0.1504,0.106384 0.121,0.145823 -3.0781,3.356928 -3.242,3.254212 z m 4.9171,-0.220636 c -0.03,-0.07742 0.025,-0.200557 0.1357,-0.306503 0.1853,-0.177095 0.1853,-0.177095 0.1351,0.02724 -0.027,0.112384 -0.051,0.25031 -0.052,0.306502 0,0.146087 -0.1604,0.126365 -0.2193,-0.02724 z m 1.4852,0.04767 c -0.028,-0.04496 -0.011,-0.08173 0.036,-0.08173 0.048,0 0.086,0.03678 0.086,0.08173 0,0.04496 -0.016,0.08174 -0.036,0.08174 -0.019,0 -0.059,-0.03678 -0.087,-0.08174 z m 1.7605,-0.118686 c -0.1535,-0.184857 -0.1179,-3.035244 0.04,-3.261604 0.1553,-0.221698 0.1536,-0.345971 0,-0.216014 -0.1083,0.0899 -0.1225,-0.101116 -0.1225,-1.640638 0,-1.742386 0,-1.742386 0.2196,-1.971628 0.181,-0.18899 0.2887,-0.229241 0.613,-0.229241 h 0.3934 v 3.344781 3.344783 l -0.4379,0.374124 c -0.4757,0.406298 -0.5542,0.434863 -0.7032,0.255437 z m -8.7488,-0.02508 c 0,-0.07 3.0735,-3.319383 3.1677,-3.349042 0.033,-0.0105 0.116,0.01614 0.1833,0.05923 0.098,0.06254 -0.2067,0.408292 -1.5113,1.715089 -1.4549,1.457456 -1.8397,1.786871 -1.8397,1.574729 z m -0.5722,-0.239153 c 0,-0.05514 0.567,-0.656152 2.3097,-2.448688 0.6971,-0.716962 0.9213,-0.901519 1.0533,-0.867003 0.1405,0.03673 -0.1025,0.314307 -1.4947,1.707761 -1.4678,1.469098 -1.8683,1.813766 -1.8683,1.60793 z m 5.5262,-0.01104 c -0.023,-0.03686 0.3428,-0.449983 0.8125,-0.91805 0.4697,-0.468067 0.8539,-0.828559 0.8539,-0.801093 0,0.145917 -0.6289,1.061527 -0.9601,1.397923 -0.3577,0.363216 -0.6096,0.477766 -0.7063,0.32122 z m 1.7973,-0.06343 c -0.056,-0.14445 0,-0.278225 0.1192,-0.278225 0.098,0 0.1011,0.30236 0,0.362511 -0.04,0.02487 -0.096,-0.01305 -0.1229,-0.08429 z m -2.5012,-0.09885 c 0,-0.123015 4.1184,-4.130557 4.1493,-4.037671 0.052,0.156907 -0.05,0.274474 -1.9297,2.216538 -1.3865,1.432539 -1.8736,1.886956 -2.0229,1.886956 -0.1081,0 -0.1967,-0.02962 -0.1967,-0.06583 z m -5.3127,-0.102683 c 0,-0.05522 0.3762,-0.490452 0.8359,-0.967188 1.7692,-1.834626 2.7194,-2.787548 2.7796,-2.787548 0.035,0 0.063,0.07988 0.063,0.177525 0,0.123571 -0.5367,0.701112 -1.7659,1.900319 -0.9712,0.947538 -1.7988,1.735056 -1.839,1.750041 -0.04,0.01498 -0.073,-0.01794 -0.073,-0.07315 z m 9.2107,-0.433367 c -0.025,-0.06511 0.029,-0.185671 0.1198,-0.26792 0.1625,-0.147049 0.1648,-0.145578 0.1376,0.08819 -0.031,0.25993 -0.1852,0.36803 -0.2574,0.179735 z m -1.4459,-0.154587 c 0,-0.112384 0.055,-0.250122 0.1226,-0.306085 0.1034,-0.08583 0.1226,-0.06978 0.1226,0.102585 0,0.112385 -0.055,0.250124 -0.1226,0.306086 -0.1034,0.08583 -0.1226,0.06978 -0.1226,-0.102586 z m -7.8465,-0.09051 c 0,-0.07997 0.7598,-0.93567 1.6884,-1.901561 1.5469,-1.608976 1.6993,-1.745183 1.8186,-1.62514 0.1193,0.120018 0.01,0.249141 -1.3043,1.537172 -2.1626,2.120017 -2.2027,2.15625 -2.2027,1.989529 z m 11.1976,0.0069 c 0,-0.05749 0.2391,-0.341477 0.5313,-0.63108 0.2922,-0.289602 0.5313,-0.498733 0.5313,-0.464735 0,0.117706 -0.2756,0.507128 -0.6037,0.852973 -0.3412,0.359744 -0.4589,0.422024 -0.4589,0.242842 z m -1.9617,-0.483143 c 0,-0.112385 0.073,-0.270907 0.1635,-0.352272 0.1593,-0.144189 0.1635,-0.14276 0.1635,0.0564 0,0.112385 -0.073,0.270907 -0.1635,0.352272 -0.1593,0.144189 -0.1635,0.14276 -0.1635,-0.0564 z m -1.3894,-0.251564 c 0,-0.126588 0.2721,-0.45656 0.8582,-1.040652 0.7108,-0.708448 0.8582,-0.822433 0.8582,-0.663922 0,0.130189 -0.2547,0.459693 -0.7969,1.030714 -0.4383,0.461641 -0.8245,0.843819 -0.8582,0.849284 -0.034,0.0055 -0.061,-0.07348 -0.061,-0.175424 z m -7.8465,-0.04779 c 0,-0.137409 0.4212,-0.630408 1.486,-1.739373 1.3422,-1.397963 1.4981,-1.535358 1.6126,-1.4209 0.1145,0.114458 -0.029,0.282649 -1.486,1.739373 -1.2882,1.288217 -1.6126,1.574081 -1.6126,1.4209 z m 11.2007,0.02689 c 0,-0.159231 1.36,-1.645504 1.4344,-1.571118 0.1016,0.101665 -0.1762,0.488206 -0.7767,1.080712 -0.4864,0.479803 -0.66,0.609298 -0.6577,0.490406 z m -11.1965,-0.857221 c 0,-0.149338 0.3615,-0.572751 1.3481,-1.592888 1.2423,-1.284501 1.3439,-1.370885 1.3444,-1.14335 0,0.209613 -0.1996,0.44595 -1.3481,1.592888 -1.1176,1.116049 -1.3479,1.311912 -1.3444,1.14335 z m 11.197,0.02136 c 0.01,-0.190618 1.4386,-1.685519 1.4891,-1.552633 0.075,0.197831 -0.091,0.435584 -0.7449,1.062228 -0.3633,0.348392 -0.6802,0.63344 -0.7042,0.63344 -0.024,0 -0.042,-0.06437 -0.04,-0.143035 z m -11.2012,-0.825931 c 0,-0.134993 0.3715,-0.576054 1.2727,-1.511154 0.7001,-0.726286 1.307,-1.33278 1.3487,-1.347765 0.042,-0.01498 0.076,0.05899 0.076,0.164398 0,0.138875 -0.3713,0.562454 -1.3486,1.538397 -1.0822,1.080722 -1.3486,1.3091 -1.3486,1.156124 z m 11.2007,0.0086 c 0,-0.07867 0.3121,-0.464143 0.6897,-0.856608 0.6097,-0.633582 0.6928,-0.694308 0.7412,-0.541707 0.044,0.139207 -0.075,0.301992 -0.6266,0.85661 -0.3747,0.376607 -0.7096,0.684741 -0.7443,0.684741 -0.035,0 -0.062,-0.06437 -0.06,-0.143036 z m -11.2007,-0.828465 c 0,-0.138385 0.3514,-0.555037 1.2401,-1.470258 0.682,-0.702431 1.2704,-1.289408 1.3077,-1.304392 0.037,-0.01498 0.068,0.05901 0.068,0.164426 0,0.138676 -0.3616,0.55272 -1.3078,1.497502 -1.0607,1.059128 -1.3077,1.269348 -1.3077,1.112722 z m 11.1976,0.0091 c 0,-0.07979 0.2744,-0.41764 0.6097,-0.750767 0.5061,-0.502702 0.6192,-0.581071 0.6654,-0.460922 0.042,0.108316 -0.096,0.297331 -0.5465,0.750765 -0.331,0.333302 -0.6304,0.606004 -0.6653,0.606004 -0.035,0 -0.064,-0.06529 -0.064,-0.14508 z m -3.0211,-0.224529 c 0,-0.101188 0.2663,-0.43326 0.6917,-0.856404 0.9201,-0.915374 0.9228,-0.65304 0,0.302861 -0.5185,0.538918 -0.6924,0.677453 -0.6947,0.553543 z m -8.1765,-0.586523 c 0,-0.192123 0.3561,-0.586096 2.1543,-2.383348 1.4766,-1.475841 2.1997,-2.144159 2.2984,-2.12451 0.1047,0.02082 -0.4621,0.658874 -2.0717,2.332326 -1.2188,1.267014 -2.253,2.326621 -2.2984,2.354682 -0.049,0.02974 -0.083,-0.045 -0.083,-0.17915 z m 11.1976,-0.0068 c 0,-0.08008 0.2219,-0.365124 0.4932,-0.633439 0.4005,-0.396071 0.5076,-0.464783 0.5695,-0.365246 0.058,0.09314 -0.045,0.245363 -0.4295,0.63344 -0.5371,0.542348 -0.6332,0.597799 -0.6332,0.365245 z m -11.1936,-0.795063 c 0,-0.213259 0.2277,-0.477432 1.7409,-1.989366 1.3319,-1.330871 1.7854,-1.736885 1.9162,-1.715705 0.139,0.0225 -0.1897,0.3982 -1.7409,1.989366 -1.7581,1.803497 -1.9125,1.941798 -1.9162,1.715705 z m 11.1936,0.03719 c 0,-0.136862 0.1234,-0.327876 0.3649,-0.564924 0.313,-0.307127 0.3728,-0.337556 0.4204,-0.213608 0.04,0.105614 -0.058,0.257741 -0.365,0.564923 -0.3934,0.393448 -0.4203,0.407137 -0.4203,0.213609 z m -11.1938,-0.854749 c 0,-0.211178 0.186,-0.435655 1.3326,-1.580671 1.0657,-1.064247 1.3744,-1.328925 1.5244,-1.306819 0.1612,0.02378 -0.028,0.248065 -1.3327,1.580672 -1.4103,1.440334 -1.5208,1.5351 -1.5243,1.306818 z m 11.1938,0.01359 c 0,-0.195203 0.2252,-0.462205 0.3898,-0.462205 0.2007,0 0.1877,0.189726 -0.028,0.415313 -0.2766,0.288653 -0.3614,0.299668 -0.3614,0.04689 z m -11.1976,-0.832478 c 0,-0.203854 0.1559,-0.400848 0.9208,-1.163577 0.6228,-0.621051 0.9799,-0.918176 1.1034,-0.918176 0.1004,0 0.1826,0.02809 0.1826,0.06244 0,0.03434 -0.4965,0.557949 -1.1034,1.163576 -1.0362,1.034067 -1.1034,1.086193 -1.1034,0.855741 z m 0,-0.816578 c 0.01,-0.35983 0.9349,-1.29057 1.2515,-1.251655 0.2124,0.02609 0.1887,0.06099 -0.5158,0.761251 -0.7071,0.70269 -0.7384,0.723547 -0.7357,0.490404 z m 0,-0.802969 c 0,-0.236999 0.2367,-0.462206 0.4859,-0.462206 0.1797,0 0.1763,0.0123 -0.088,0.320018 -0.3229,0.375617 -0.3977,0.40236 -0.3977,0.142188 z m 0.1304,-2.276582 c 0.7408,-0.854963 3.8471,-4.02962 3.9428,-4.02962 0.068,0 0.135,0.03752 0.1503,0.08337 0.036,0.108784 -3.9924,4.125947 -4.1378,4.125947 -0.08,0 -0.068,-0.05014 0.044,-0.179692 z m 0.7005,0.106761 c 0.04,-0.106682 3.5303,-3.768577 3.5921,-3.768577 0.029,0 0.095,0.0508 0.146,0.112888 0.075,0.09072 -0.2702,0.467908 -1.7595,1.920753 -1.655,1.614608 -2.0693,1.977853 -1.9786,1.734936 z m 1.2765,-0.551239 c 0.3237,-0.353491 1.0642,-1.139245 1.6457,-1.746122 0.9713,-1.013665 1.0681,-1.092836 1.1903,-0.973383 0.1224,0.119555 0,0.257809 -1.5125,1.716418 -1.6913,1.630467 -2.3665,2.142166 -1.3235,1.003087 z m 0.2629,0.579317 c 0,-0.08779 2.7882,-2.979313 2.8728,-2.979313 0.041,0 0.097,0.05723 0.1236,0.127172 0.034,0.08917 -0.3726,0.534921 -1.3613,1.491649 -1.2719,1.230792 -1.6351,1.532983 -1.6351,1.360492 z m 1.0648,-0.343385 c 0.8482,-0.90649 2.1656,-2.227256 2.2216,-2.227256 0.033,0 0.023,0.101145 -0.023,0.224769 -0.1185,0.317863 -2.1998,2.390725 -2.4005,2.390725 -0.1321,0 -0.096,-0.07014 0.2021,-0.388238 z m -3.4351,-0.36036 c 0,-0.167881 3.5804,-3.929162 3.7018,-3.888723 0.048,0.01626 0.1002,0.06425 0.1143,0.10667 0.014,0.04241 -0.8387,0.940941 -1.8952,1.996728 -1.0573,1.056623 -1.9209,1.859242 -1.9209,1.785325 z m 0,-0.825066 c 0,-0.168902 3.1757,-3.511467 3.2976,-3.470842 0.046,0.01543 0.096,0.0628 0.1099,0.105243 0.014,0.04245 -0.7467,0.848987 -1.6909,1.792314 -1.0251,1.024219 -1.7166,1.657996 -1.7166,1.573285 z m 0,-0.811926 c 0,-0.137685 2.7491,-3.090601 2.8772,-3.090601 0.039,0 0.093,0.06007 0.1216,0.133498 0.036,0.09508 -0.1348,0.309826 -0.5952,0.746233 -0.3554,0.337004 -1.0417,1.002715 -1.525,1.479358 -0.5221,0.515019 -0.8786,0.811806 -0.8786,0.731512 z m 0,-0.828891 c 0,-0.07797 0.4652,-0.627942 1.0339,-1.222167 0.5686,-0.594226 1.1201,-1.171287 1.2255,-1.282358 0.1709,-0.180215 0.2048,-0.188648 0.3151,-0.07837 0.1103,0.110275 0.015,0.228761 -0.8793,1.101024 -1.5978,1.557123 -1.6952,1.642261 -1.6952,1.481874 z m 0,-0.767578 c 0,-0.117538 0.3431,-0.539158 0.997,-1.224918 0.5484,-0.575129 1.021,-1.056109 1.0503,-1.068845 0.029,-0.01274 0.094,0.02602 0.1439,0.08613 0.071,0.08568 -0.1557,0.355274 -1.0502,1.248074 -0.8827,0.881 -1.141,1.098218 -1.141,0.959562 z m 0,-0.826621 c 0,-0.130788 0.2654,-0.461119 0.8533,-1.062109 0.6922,-0.707645 0.873,-0.852654 0.9581,-0.768289 0.085,0.08441 -0.076,0.284388 -0.8533,1.06211 -0.7819,0.781928 -0.9581,0.923209 -0.9581,0.768288 z m 0,-0.821968 c 0,-0.132591 0.2062,-0.404665 0.65,-0.857436 0.5252,-0.53585 0.6699,-0.6433 0.7537,-0.559503 0.084,0.0838 -0.041,0.248463 -0.65,0.857436 -0.6365,0.636529 -0.7537,0.723523 -0.7537,0.559503 z m 0,-0.829903 c 0,-0.289699 0.8529,-1.137849 0.9982,-0.992595 0.079,0.07937 -0.014,0.215421 -0.4489,0.649682 -0.4968,0.496806 -0.5493,0.529567 -0.5493,0.342913 z m 0,-0.781913 c 0,-0.272313 0.4112,-0.744307 0.5655,-0.648991 0.158,0.09763 0.094,0.251076 -0.2386,0.576244 l -0.3269,0.319245 z m 0,-0.836554 c 0,-0.2743 0.085,-0.327929 0.2349,-0.147676 0.07,0.08407 0.052,0.145201 -0.072,0.257871 -0.1598,0.144623 -0.1632,0.142346 -0.1632,-0.110195 z m 14.0174,20.26511 c 1.385,-0.368659 3.0209,-1.360673 3.7593,-2.279641 0.3728,-0.463875 0.8756,-1.410677 0.9723,-1.83078 0.044,-0.192024 0,-0.163156 -0.37,0.224559 -0.2315,0.244701 -0.6254,0.580727 -0.8755,0.746725 -0.4725,0.313623 -1.51,0.705939 -2.1251,0.80356 l -0.3554,0.05641 0.6676,-0.637784 c 1.2715,-1.214831 2.3691,-3.178987 2.7785,-4.972548 0.1464,-0.640849 0.2787,-1.599364 0.2208,-1.599364 -0.015,0 -0.1264,0.248268 -0.2458,0.551706 -0.2659,0.675814 -0.6925,1.327703 -1.2648,1.93285 -0.2382,0.251831 -0.4477,0.457875 -0.4656,0.457875 -0.018,0 0.073,-0.248268 0.2018,-0.551705 0.8624,-2.0303 0.9942,-5.628773 0.2894,-7.90638 -0.1115,-0.360403 -0.2348,-0.70439 -0.2739,-0.764414 -0.044,-0.06667 -0.088,0.283167 -0.1146,0.899077 -0.051,1.173231 -0.2241,1.817942 -0.6917,2.571159 -0.3945,0.635342 -0.5825,0.888534 -0.6261,0.84328 -0.019,-0.01977 0.019,-0.311789 0.086,-0.648942 0.083,-0.423336 0.11,-0.941768 0.086,-1.675552 -0.031,-0.926524 -0.069,-1.161944 -0.2974,-1.839019 -0.1445,-0.427061 -0.3665,-0.956148 -0.4931,-1.175749 l -0.2304,-0.399275 0.042,0.731492 c 0.029,0.512453 0,0.937945 -0.098,1.420952 -0.1323,0.653697 -0.5595,1.829342 -0.6953,1.913274 -0.035,0.02143 -0.062,-0.355502 -0.061,-0.837627 0,-1.484678 -0.4337,-2.617737 -1.3792,-3.577267 -0.4093,-0.415426 -0.677,-0.595488 -1.3944,-0.937696 -0.4882,-0.232945 -1.1759,-0.625228 -1.5281,-0.871737 -0.3522,-0.24651 -0.6546,-0.433924 -0.6721,-0.416476 -0.1182,0.118189 0.3869,1.263094 0.7449,1.688548 0.1199,0.142435 0.32,0.532835 0.4449,0.867558 0.4179,1.120027 1.0002,1.8748 1.9039,2.467433 0.2154,0.141294 0.3605,0.276221 0.3222,0.299837 -0.038,0.02361 -0.2537,0.06738 -0.479,0.09726 -0.4652,0.06171 -1.2115,-0.09897 -1.7673,-0.380546 -0.3475,-0.176007 -0.3475,-0.176007 -0.1841,0.01023 0.09,0.102429 0.3566,0.310719 0.5926,0.462867 0.236,0.152148 0.4291,0.298618 0.4291,0.325489 0,0.02687 -0.2851,0.0316 -0.6334,0.01052 -0.7137,-0.04319 -1.3143,-0.265486 -1.876,-0.694299 -0.194,-0.148048 -0.3747,-0.269178 -0.4015,-0.269178 -0.027,0 -0.3852,0.308772 -0.7964,0.68616 -0.7237,0.664386 -0.7521,0.703938 -0.8925,1.246445 -0.4621,1.784525 -1.4745,3.408042 -2.7509,4.411683 l -0.4442,0.349242 0.022,0.88298 c 0.011,0.485638 0.056,0.895692 0.1,0.91123 0.3767,0.135563 0.9688,1.023345 0.9707,1.455596 0,0.127593 0.1232,0.245181 0.4452,0.42689 0.2444,0.137934 0.5924,0.404872 0.7734,0.593195 l 0.329,0.342406 0.3913,-0.354888 c 0.2153,-0.195188 0.6757,-0.623873 1.0233,-0.952633 0.6289,-0.594862 0.6317,-0.599423 0.5867,-0.94568 -0.045,-0.347934 -0.045,-0.347934 1.136,-1.522276 l 1.1813,-1.174341 0.9258,0.01375 c 0.5092,0.0076 0.9713,0.05143 1.0268,0.09748 0.1778,0.147582 0.8328,1.56557 0.9768,2.114846 0.196,0.747652 0.182,2.011061 -0.03,2.670601 -0.2984,0.929975 -0.7174,1.559776 -1.6691,2.509298 -0.49,0.488869 -0.8706,0.909178 -0.8457,0.934019 0.025,0.02484 0.293,0.131888 0.5959,0.237883 0.4836,0.169165 0.6607,0.188486 1.4499,0.158095 0.554,-0.02133 1.1501,-0.101428 1.553,-0.208666 z m 8.3531,-7.833746 c -0.046,-0.528297 -0.2552,-1.289453 -0.374,-1.362892 -0.031,-0.01919 0.026,0.284199 0.126,0.674211 0.1003,0.390013 0.1844,0.828651 0.1867,0.97475 0,0.146101 0.028,0.265637 0.057,0.265637 0.029,0 0.031,-0.248268 0.01,-0.551706 z m -14.8509,-7.139279 c 0,-0.03062 -1.8052,-1.797615 -4.0115,-3.926658 -3.5238,-3.400492 -4.0453,-3.874068 -4.291,-3.896353 -0.2568,-0.02329 -0.2796,-0.007 -0.2796,0.199675 0,0.174128 0.1806,0.411016 0.7985,1.047045 0.8834,0.909168 5.3039,5.479482 6.3896,6.605974 l 0.6904,0.716449 0.3518,-0.345229 c 0.1935,-0.189878 0.3518,-0.370283 0.3518,-0.400901 z m 0.5317,-3.261147 c -0.2373,-0.124846 -0.5735,-0.323461 -0.747,-0.441368 -0.1735,-0.117906 -0.3276,-0.177959 -0.3425,-0.133452 -0.051,0.153005 0.2246,0.942794 0.45,1.289503 l 0.2257,0.34713 0.4226,-0.41741 0.4227,-0.41741 z m 13.6597,5.267712 c -0.1291,-0.204272 -0.2177,-0.388274 -0.1972,-0.408894 0.021,-0.02062 0.1538,0.0031 0.296,0.05261 0.2305,0.08037 0.2585,0.12451 0.2585,0.409039 0,0.175418 -0.028,0.318876 -0.061,0.318795 -0.034,-8e-5 -0.1669,-0.167278 -0.2959,-0.37155 z m -0.063,-2.224079 c -0.3006,-0.47358 -0.5604,-0.954555 -0.5604,-1.037337 0,-0.02471 0.2206,-0.04492 0.4904,-0.04492 h 0.4904 v 0.776475 c 0,0.427061 -0.027,0.776154 -0.061,0.77576 -0.034,-4.02e-4 -0.1953,-0.21188 -0.3591,-0.469972 z m -15.0192,-1.27666 c -0.073,-0.08877 -0.03,-0.176424 0.2071,-0.413268 0.396,-0.395956 0.5343,-0.231458 0.1808,0.214938 -0.2819,0.355801 -0.2645,0.346937 -0.3879,0.19833 z m -0.4004,-0.398774 c -0.074,-0.08934 -0.019,-0.185323 0.2608,-0.460707 0.3045,-0.298919 0.3622,-0.327531 0.4098,-0.203375 0.04,0.102796 -0.035,0.235715 -0.2607,0.460706 -0.2598,0.259818 -0.3329,0.296096 -0.4099,0.203376 z m 15.403,-0.314544 c -0.6471,-0.42862 -0.6256,-0.334022 -0.6256,-2.753014 0,-1.409343 0.032,-2.211163 0.09,-2.321101 0.099,-0.184766 0.062,-0.173088 -0.3477,0.110372 -0.1952,0.135006 -0.4064,0.150067 -2.1046,0.150067 h -1.8878 v -0.531272 -0.531273 h 2.6564 2.6564 v 3.065033 c 0,1.685768 -0.012,3.065032 -0.027,3.065032 -0.014,0 -0.1994,-0.11423 -0.4101,-0.253844 z m -15.8156,-0.09883 c -0.069,-0.08252 0.012,-0.207376 0.3465,-0.537803 0.3606,-0.356084 0.4451,-0.406207 0.4894,-0.290517 0.037,0.09625 -0.055,0.261213 -0.2952,0.529487 -0.3907,0.436345 -0.4153,0.449936 -0.5407,0.298833 z m -0.4212,-0.381515 c -0.1,-0.06313 -0.015,-0.186258 0.4474,-0.652622 0.5939,-0.599027 0.6969,-0.664159 0.6969,-0.440836 0,0.131572 -0.8608,1.174976 -0.9673,1.172525 -0.03,-6.89e-4 -0.1096,-0.03627 -0.177,-0.07907 z m -0.4549,-0.418758 c -0.053,-0.08619 1.4016,-1.626013 1.5362,-1.626013 0.2159,0 -0.027,0.410399 -0.5998,1.016247 -0.6451,0.68144 -0.8212,0.796157 -0.9364,0.609766 z m -0.3544,-0.349447 c -0.1003,-0.120873 0.067,-0.310479 1.5449,-1.748182 0.9117,-0.886934 1.7144,-1.625802 1.7838,-1.641932 0.1738,-0.04037 -0.3235,0.525377 -1.8853,2.145313 -1.194,1.238297 -1.3425,1.366424 -1.4434,1.244801 z m 15.9301,0.0071 c 0,-0.146398 0.2278,-0.347507 0.3056,-0.269748 0.069,0.06818 -0.075,0.31225 -0.2093,0.357043 -0.053,0.01766 -0.096,-0.02162 -0.096,-0.08729 z m -11.9683,-0.04842 c -0.025,-0.03986 0.01,-0.11436 0.067,-0.165555 0.086,-0.07104 0.1228,-0.06545 0.157,0.02362 0.07,0.182073 -0.1238,0.304606 -0.2243,0.141939 z m -0.5163,-0.241094 c -0.073,-0.04568 -0.024,-0.138934 0.1747,-0.331635 0.1914,-0.185573 0.2951,-0.238069 0.3368,-0.170567 0.083,0.133737 -0.3776,0.58568 -0.5115,0.502202 z m -3.8509,-0.122273 c -0.071,-0.08528 0.2201,-0.417732 1.3405,-1.532517 1.2613,-1.254901 1.7606,-1.674622 1.6613,-1.396514 -0.037,0.103597 -2.7892,3.019587 -2.8601,3.030228 -0.028,0.0043 -0.092,-0.0413 -0.1417,-0.101197 z m 16.043,0.01676 c -0.029,-0.04734 0.088,-0.231204 0.2618,-0.408577 0.1732,-0.177372 0.3278,-0.283411 0.3438,-0.235642 0.042,0.126818 -0.5415,0.747863 -0.6056,0.644219 z m -12.691,-0.209928 c -0.075,-0.03001 0.027,-0.183606 0.3242,-0.483953 0.4319,-0.437365 0.5626,-0.519402 0.5626,-0.352991 0,0.09318 -0.6672,0.898045 -0.7355,0.887319 -0.023,-0.0036 -0.091,-0.0262 -0.1513,-0.05038 z m -3.7563,-0.210382 c -0.071,-0.08564 0.1797,-0.379173 1.1615,-1.359504 0.8602,-0.858779 1.2987,-1.241323 1.4004,-1.221677 0.1116,0.02155 -0.161,0.350821 -1.1062,1.336348 -0.6899,0.719262 -1.2793,1.318167 -1.3098,1.330903 -0.031,0.01274 -0.096,-0.02599 -0.1459,-0.08607 z m 16.0042,-0.04162 c 0,-0.03501 0.2391,-0.300609 0.5313,-0.590211 0.6331,-0.627536 0.7061,-0.515113 0.1103,0.169922 -0.3737,0.42971 -0.6416,0.605175 -0.6416,0.420289 z m -12.7148,-0.108224 c -0.053,-0.08623 1.0751,-1.299329 1.2087,-1.299329 0.1683,0 0.014,0.256621 -0.4764,0.796908 -0.5484,0.60335 -0.6338,0.661877 -0.7323,0.502421 z m -3.6989,-0.254605 c -0.078,-0.07825 0.1236,-0.323125 0.9429,-1.144278 0.5733,-0.574599 1.1073,-1.044725 1.1866,-1.044725 0.079,0 0.1442,0.02131 0.1442,0.04734 0,0.06452 -2.0642,2.241212 -2.1254,2.241212 -0.027,0 -0.093,-0.0448 -0.1483,-0.09955 z m 15.9732,0.03244 c -0.023,-0.03691 0.306,-0.413183 0.7308,-0.83616 0.4247,-0.422978 0.7723,-0.719442 0.7723,-0.658809 0,0.121791 -1.2849,1.562081 -1.3935,1.562081 -0.037,0 -0.087,-0.0302 -0.1096,-0.06711 z m -12.6762,-0.175477 c -0.027,-0.04352 0.056,-0.181443 0.1828,-0.306503 1.447,-1.420117 1.821,-1.763789 1.8681,-1.716639 0.06,0.05942 -1.8195,2.102262 -1.9336,2.102262 -0.038,0 -0.09,-0.0356 -0.1173,-0.07912 z m -3.7205,-0.247111 c -0.1829,-0.117108 1.5307,-1.825573 1.7911,-1.785763 0.1574,0.02408 0.066,0.150073 -0.6891,0.947282 -0.4789,0.505731 -0.8952,0.918947 -0.9251,0.918258 -0.03,-6.89e-4 -0.1095,-0.03659 -0.1769,-0.07978 z m 6.3752,-0.02475 c 0,-0.06567 0.059,-0.168124 0.1305,-0.22767 0.1139,-0.09452 0.1269,-0.08364 0.1022,0.08576 -0.031,0.212041 -0.2327,0.335096 -0.2327,0.141912 z m -6.7838,-0.343619 c -0.096,-0.115486 -0.029,-0.213576 0.5358,-0.781276 0.429,-0.431493 0.7077,-0.64921 0.8312,-0.64921 0.1022,0 0.1858,0.02835 0.1858,0.063 0,0.03465 -0.3247,0.386227 -0.7216,0.781276 -0.6418,0.638923 -0.7337,0.703682 -0.8312,0.586204 z m 6.3368,0.04471 c -0.042,-0.06736 0.068,-0.236158 0.3141,-0.481858 0.2747,-0.274741 0.3781,-0.338486 0.3781,-0.233056 0,0.214848 -0.6112,0.846059 -0.6922,0.714914 z m -6.737,-0.443194 c -0.073,-0.08891 0,-0.207972 0.3667,-0.572139 0.2529,-0.252924 0.5325,-0.459863 0.6212,-0.459863 0.089,0 0.1491,0.03367 0.1342,0.07481 -0.028,0.0774 -0.9594,1.069469 -1.0039,1.069469 -0.014,0 -0.067,-0.05052 -0.1182,-0.112277 z m 6.2616,0.06168 c -0.027,-0.02783 0,-0.09219 0.053,-0.143035 0.057,-0.05084 0.3121,-0.292574 0.5663,-0.537187 0.6464,-0.622042 0.6952,-0.443855 0.055,0.201782 -0.5275,0.532321 -0.5822,0.571121 -0.6749,0.47844 z m -6.6626,-0.456251 c -0.1336,-0.133652 0.3507,-0.637431 0.6128,-0.637431 0.1035,0 0.1883,0.01539 0.1883,0.03421 0,0.05893 -0.5963,0.701403 -0.6509,0.701403 -0.029,0 -0.096,-0.04418 -0.1502,-0.09818 z m 15.1863,-0.05649 c 0,-0.09654 0.5314,-0.580941 0.6374,-0.580941 0.1607,0 0.1133,0.118435 -0.1474,0.368216 -0.2353,0.225417 -0.49,0.335992 -0.49,0.212725 z m 1.0625,-0.294871 c 0.2527,-0.2607 0.4905,-0.371825 0.4905,-0.229242 0,0.129664 -0.4517,0.515312 -0.6035,0.515312 -0.1429,0 -0.1283,-0.03709 0.113,-0.28607 z m -5.6396,0.0944 c 0,-0.162468 0.273,-0.380471 0.4764,-0.380471 0.243,0 0.2225,0.09942 -0.065,0.311566 -0.2768,0.204626 -0.4119,0.227241 -0.4119,0.06891 z m 6.457,-0.135268 c 0.2901,-0.248297 0.4087,-0.299845 0.4087,-0.177716 0,0.12563 -0.3774,0.42292 -0.5366,0.422726 -0.128,-1.55e-4 -0.1036,-0.04683 0.1279,-0.24501 z m -2.192,-0.04087 c 0.051,-0.112385 0.1424,-0.204336 0.2026,-0.204336 0.1441,0 0.1382,0.04639 -0.032,0.244269 -0.1942,0.226825 -0.2834,0.206041 -0.1713,-0.03994 z m -15.2884,0.01292 c -0.1145,-0.137902 -0.039,-0.21725 0.2072,-0.21725 0.2105,0 0.2425,0.07904 0.093,0.228857 -0.1259,0.126002 -0.1875,0.123616 -0.2998,-0.01161 z m 18.3794,-0.09465 c 0.1111,-0.133797 0.327,-0.166558 0.327,-0.04961 0,0.07524 -0.1934,0.172213 -0.3436,0.172213 -0.052,0 -0.045,-0.04837 0.017,-0.122602 z m -7.709,-0.605359 c -0.1204,-0.181838 -0.3108,-0.390908 -0.4234,-0.4646 -0.1124,-0.07369 -0.2044,-0.166538 -0.2044,-0.206321 0,-0.04035 1.0843,-0.07234 2.452,-0.07234 1.4101,0 2.4521,0.03146 2.4521,0.07403 0,0.114532 -0.7082,0.556514 -1.2174,0.759892 -0.3841,0.153372 -0.6507,0.187549 -1.6492,0.211445 l -1.1909,0.0285 z"
         id="path120" />
    </g>
  </g>
</svg>
