<?xml version="1.0" encoding="UTF-8" standalone="no"?>
<!-- Created with Inkscape (http://www.inkscape.org/) -->

<svg
   width="41.008999mm"
   height="41.008999mm"
   viewBox="0 0 41.008999 41.008999"
   version="1.1"
   id="svg1"
   inkscape:version="1.4.2 (f4327f4, 2025-05-13)"
   sodipodi:docname="341.svg"
   xmlns:inkscape="http://www.inkscape.org/namespaces/inkscape"
   xmlns:sodipodi="http://sodipodi.sourceforge.net/DTD/sodipodi-0.dtd"
   xmlns="http://www.w3.org/2000/svg"
   xmlns:svg="http://www.w3.org/2000/svg">
  <sodipodi:namedview
     id="namedview1"
     pagecolor="#ffffff"
     bordercolor="#000000"
     borderopacity="0.25"
     inkscape:showpageshadow="2"
     inkscape:pageopacity="0.0"
     inkscape:pagecheckerboard="0"
     inkscape:deskcolor="#d1d1d1"
     inkscape:document-units="mm"
     inkscape:zoom="1.4513545"
     inkscape:cx="86.470947"
     inkscape:cy="71.657199"
     inkscape:window-width="1050"
     inkscape:window-height="1081"
     inkscape:window-x="857"
     inkscape:window-y="0"
     inkscape:window-maximized="0"
     inkscape:current-layer="layer1" />
  <defs
     id="defs1" />
  <g
     inkscape:label="Layer 1"
     inkscape:groupmode="layer"
     id="layer1"
     transform="translate(333.37504,1257.5646)">
    <g
       id="g1162"
       transform="translate(-375.88126,-1282.0487)">
      <circle
         style="fill:none;stroke:#0000ff;stroke-width:0.1;stroke-linecap:round;stroke-dasharray:none;stroke-opacity:1;paint-order:markers stroke fill"
         id="circle6695-6-0-4-21"
         cx="59.55204"
         cy="28.68449"
         r="2" />
      <path
         style="fill:#000000;stroke-width:0.254746"
         d="m 45.689463,62.602211 c 0,-0.226787 0.49222,-2.116947 0.69808,-2.680638 0.188792,-0.517022 0.740775,-1.575491 1.113061,-2.134363 0.326176,-0.48967 0.442595,-0.772043 0.655359,-1.58956 0.365051,-1.402645 0.988745,-2.073704 2.0264,-2.180252 0.402906,-0.04137 0.435488,-0.0578 0.545895,-0.275111 0.192461,-0.378833 0.529999,-0.600229 0.993636,-0.651763 0.335755,-0.03732 0.529973,-0.120083 1.144191,-0.487572 0.880452,-0.526801 1.197585,-0.685297 1.371143,-0.685297 0.07528,0 0.201249,-0.108999 0.302129,-0.261434 0.09515,-0.143788 0.372132,-0.439512 0.615516,-0.657164 l 0.442545,-0.395731 2.5e-5,-1.083994 2.6e-5,-1.083993 -0.276119,-0.221901 c -0.635616,-0.510799 -1.420896,-1.796761 -1.853912,-3.035932 l -0.223744,-0.640314 -0.491302,0.01982 c -0.443462,0.01789 -0.525133,4.8e-5 -0.839107,-0.183274 -0.718969,-0.419797 -1.527915,-1.659138 -1.744194,-2.672223 -0.162604,-0.761755 -0.163496,-1.900659 -0.0025,-2.455338 0.134047,-0.460033 0.498436,-1.08287 0.727376,-1.243231 0.130404,-0.09133 0.13234,-0.124936 0.05762,-0.992736 -0.120648,-1.40084 -0.01427,-2.118362 0.577916,-3.897568 0.413987,-1.243894 1.532551,-3.038563 2.329013,-3.736759 0.801711,-0.702815 2.301883,-1.55606 3.320331,-1.888497 1.019798,-0.33288 2.745472,-0.374425 3.810156,-0.09173 1.437556,0.381691 3.236188,1.689812 4.220934,3.069802 0.961563,1.347517 1.83292,3.919589 1.98322,5.854047 0.09426,1.213321 -0.02896,6.698729 -0.169686,7.553708 -0.176258,1.070967 -0.731272,2.358503 -1.550025,3.595944 -0.561282,0.848291 -1.027619,1.352795 -1.619903,1.752466 -0.520013,0.3509 -0.562581,0.421603 -0.507224,0.842491 0.03358,0.255395 0.04965,0.271619 0.305058,0.307785 0.148287,0.021 0.42782,0.119572 0.621223,0.219055 0.24025,0.123586 0.455944,0.180876 0.680986,0.180876 0.181124,0 0.516242,0.01953 0.744673,0.04341 l 0.415312,0.04341 0.239767,0.394716 c 0.237066,0.390266 0.24267,0.394254 0.495505,0.353822 0.292907,-0.04684 0.443614,0.01855 0.813989,0.353167 l 0.258771,0.233776 0.407364,-0.205638 c 0.548901,-0.277085 0.832535,-0.272736 1.108832,0.017 0.116775,0.122452 0.298129,0.336181 0.403033,0.474953 0.233704,0.309151 0.937286,0.830618 1.197968,0.887869 0.105362,0.02315 0.271508,0.137068 0.369203,0.253161 0.172004,0.204415 0.176564,0.232444 0.144746,0.888114 -0.02242,0.461508 -0.0033,0.784322 0.06015,1.014046 0.41791,1.513863 0.554123,2.288881 0.729948,4.153862 0.079,0.837928 0.129157,1.103982 0.245245,1.300709 0.118839,0.201433 0.532903,1.553246 0.533132,1.740538 2.5e-5,0.0278 -6.172236,0.05055 -13.71615,0.05055 H 45.688826 Z m 1.583933,-0.237326 c -0.02293,-0.03707 -0.282513,-0.0674 -0.576897,-0.0674 -0.311886,0 -0.535221,0.02812 -0.535221,0.0674 0,0.03968 0.237219,0.0674 0.576897,0.0674 0.36742,0 0.561766,-0.02448 0.535221,-0.0674 z m 12.543198,-1.735588 c -0.02609,-0.991644 -0.06855,-1.984974 -0.09436,-2.207398 L 59.675254,58.01749 59.33825,57.96095 c -0.59946,-0.100566 -1.253724,-0.330426 -1.976641,-0.694429 -0.907379,-0.456892 -1.155705,-0.497134 -1.643569,-0.266342 -0.203211,0.09613 -0.4388,0.174789 -0.523528,0.174789 -0.0847,0 -0.248606,0.05759 -0.364185,0.127971 -0.246797,0.15028 -0.734814,0.250624 -1.509521,0.31039 -0.590908,0.04558 -1.008691,-0.04379 -1.465986,-0.313592 -0.477546,-0.281764 -0.882439,-0.346184 -1.919076,-0.305338 -1.045833,0.04121 -1.4829,0.113797 -1.244331,0.206665 0.0727,0.02831 0.587189,0.0662 1.143248,0.0842 1.088096,0.03522 1.31431,0.06162 1.31431,0.153382 0,0.114157 -0.232685,0.144158 -1.406324,0.181315 -0.651818,0.02063 -1.208641,0.05207 -1.237428,0.06985 -0.02876,0.01778 -0.0523,0.09003 -0.0523,0.160551 0,0.185771 0.332495,0.252428 1.533391,0.307407 1.051489,0.04814 1.418756,0.160948 0.539221,0.16562 -0.492729,0.0026 -1.011927,0.03289 -1.78615,0.104161 -0.347499,0.03199 -0.421273,0.06016 -0.421273,0.160907 0,0.0731 0.06572,0.138625 0.1637,0.163218 0.126583,0.03177 2.357086,0.172018 2.785135,0.17512 0.04634,2.55e-4 0.08424,0.02755 0.08424,0.06048 0,0.03293 -0.644532,0.07503 -1.432283,0.09356 -1.449962,0.0341 -1.76228,0.07217 -1.714872,0.209004 0.02446,0.07056 1.468559,0.08386 2.265021,0.02086 0.401123,-0.03173 0.353587,0.128003 -0.06481,0.217729 -0.187187,0.04014 -0.498079,0.0731 -0.69087,0.07325 -0.318025,2.32e-4 -1.515228,0.164648 -1.565591,0.215006 -0.0588,0.0588 -0.105898,0.392064 -0.05602,0.396506 0.03182,0.0028 0.118507,0.01707 0.192664,0.03165 0.07413,0.01457 0.719835,0.04738 1.434881,0.07292 0.715071,0.02554 1.313367,0.06787 1.329543,0.09407 0.0163,0.0262 -0.584004,0.06468 -1.333797,0.0855 -1.392619,0.03868 -1.690824,0.07598 -1.647441,0.206082 0.04407,0.132259 0.333258,0.165088 1.514285,0.171913 0.688705,0.004 1.16266,0.03295 1.16266,0.07107 0,0.0787 -0.184742,0.107265 -1.348013,0.208456 -0.500474,0.04353 -1.031236,0.109764 -1.179524,0.147181 -0.261038,0.06587 -0.264248,0.07006 -0.101108,0.131814 0.09306,0.03522 0.779674,0.05423 1.533391,0.04245 0.889139,-0.01391 1.357183,0.002 1.342816,0.04607 -0.01223,0.03707 -0.141053,0.07498 -0.286462,0.08423 -0.455587,0.02901 -1.589563,0.153244 -2.150538,0.235609 -0.752774,0.110526 -0.464784,0.170575 0.858264,0.178949 0.589685,0.0037 1.061576,0.03405 1.061576,0.0682 0,0.07564 -0.305185,0.122688 -1.174021,0.180996 -1.703842,0.114348 -0.590246,0.150774 4.773273,0.156142 l 5.789786,0.0058 z m -6.608793,1.654556 c -0.01579,-0.04811 -0.04565,-0.906398 -0.06618,-1.907312 -0.02063,-1.000912 -0.05566,-1.96391 -0.07813,-2.139998 -0.03982,-0.312254 -0.0364,-0.320156 0.139269,-0.320156 0.236939,0 0.363115,0.135519 0.399543,0.429086 0.05207,0.419859 0.104905,0.514535 0.287073,0.514535 0.104574,0 0.238341,-0.07785 0.347474,-0.202204 0.225679,-0.257189 0.447562,-0.263797 0.565841,-0.01684 0.09612,0.200628 0.350403,0.270324 1.030701,0.282493 0.472172,0.0085 0.254644,0.136129 -0.23592,0.138475 -0.727681,0.0035 -1.145821,0.164423 -1.145821,0.441026 0,0.08112 0.148543,0.09848 0.842521,0.09848 0.877676,0 1.12432,0.08799 0.454976,0.162296 -0.591698,0.06569 -1.230091,0.193869 -1.230091,0.246989 0,0.02615 -0.05008,0.04334 -0.111273,0.03819 -0.130353,-0.01095 -0.329233,0.398489 -0.224864,0.462978 0.03628,0.02242 0.100115,-0.03419 0.141868,-0.12582 0.116266,-0.255166 0.319043,-0.273823 0.452301,-0.04162 0.124087,0.216188 0.388844,0.290989 0.939477,0.265425 0.47696,-0.02214 0.59157,-0.0071 0.516675,0.0678 -0.03587,0.03587 -0.361051,0.09241 -0.722612,0.125646 -0.473827,0.04356 -0.694666,0.09414 -0.790781,0.18114 -0.251587,0.227666 -0.169916,0.294957 0.38357,0.316032 0.598908,0.0228 0.754277,0.155858 0.209198,0.17913 -0.516905,0.02206 -0.831873,0.123154 -0.951196,0.305261 -0.101745,0.155283 -0.09864,0.161423 0.102179,0.201586 0.113922,0.02277 0.506638,0.04142 0.872708,0.04142 0.36607,0 0.665574,0.02704 0.665574,0.06009 0,0.09764 -0.246441,0.130259 -1.31431,0.173943 -0.556059,0.02275 -1.110003,0.05667 -1.230957,0.07538 -0.145536,0.02252 -0.229704,0.0044 -0.24881,-0.05344 z m 0.865931,-1.171408 c 0.05745,-0.149688 0.05092,-0.230392 -0.0186,-0.230392 -0.03273,0 -0.07403,0.07583 -0.09176,0.168504 -0.03549,0.185624 0.0455,0.231019 0.110407,0.06189 z m -0.0939,-1.773372 c 0,-0.220431 -0.04578,-0.280923 -0.175086,-0.231304 -0.112292,0.04309 -0.121361,0.18274 -0.02369,0.365171 0.09278,0.17337 0.198829,0.101975 0.198829,-0.133867 z m -0.01681,-0.999977 c -0.31028,-0.03246 -0.336748,-0.186856 -0.04211,-0.245781 0.273852,-0.05477 1.501574,-0.0543 1.903104,7.64e-4 0.360185,0.04937 0.416764,0.189083 0.102077,0.25202 -0.218903,0.04378 -1.522106,0.03915 -1.963071,-0.007 z m -2.847701,-0.692314 c -0.02293,-0.03707 -0.0094,-0.0674 0.02973,-0.0674 0.03926,0 0.07138,0.03033 0.07138,0.0674 0,0.03707 -0.0135,0.0674 -0.02973,0.0674 -0.0163,0 -0.04848,-0.03033 -0.07138,-0.0674 z m 4.079677,-0.199612 c -0.08598,-0.05438 -0.08475,-0.06829 0.0092,-0.104323 0.175164,-0.06721 0.683789,-0.0067 0.713925,0.08488 0.0334,0.101544 -0.567675,0.117708 -0.72307,0.01944 z m 6.107836,4.469436 c -0.02395,-0.283623 -0.04382,-0.912985 -0.0441,-1.398579 v -0.882901 l -0.448429,-0.185768 c -0.246619,-0.102171 -0.458517,-0.17567 -0.470847,-0.163333 -0.04336,0.04337 0.08855,2.987218 0.13741,3.066266 0.02937,0.04755 0.215846,0.07999 0.45974,0.07999 h 0.410319 z m 2.284917,-0.07196 c 0.05846,-0.701936 0.0038,-3.37247 -0.07057,-3.441605 -0.02868,-0.0267 -0.06674,-0.003 -0.08455,0.05256 -0.01783,0.05561 -0.206064,0.267922 -0.418293,0.47181 l -0.385889,0.370709 0.02369,1.516532 c 0.01299,0.834094 0.02344,1.539284 0.02318,1.567087 -2.55e-4,0.0278 0.193862,0.05055 0.431489,0.05055 h 0.432074 z m 5.446591,-0.190932 c 0.02446,-0.428217 0.102485,-1.057579 0.173431,-1.398582 0.07092,-0.341002 0.147524,-0.731823 0.170247,-0.868492 0.02267,-0.136671 0.10414,-0.439883 0.180946,-0.673805 0.07678,-0.233923 0.148619,-0.472049 0.159624,-0.529166 0.03928,-0.204046 0.282615,-0.570969 0.392843,-0.592378 0.159904,-0.03106 0.145791,0.190858 -0.08213,1.29056 -0.106204,0.512467 -0.16938,0.906765 -0.14039,0.876219 0.02899,-0.03055 0.136136,-0.207193 0.23811,-0.392548 0.202804,-0.368631 0.416765,-0.591286 0.511785,-0.532557 0.12615,0.07795 -0.04295,0.563811 -0.523325,1.503699 -0.498588,0.975515 -0.537258,1.090334 -0.586654,1.741768 l -0.02682,0.353857 h 1.426372 c 1.736196,0 1.750894,-0.0052 1.567248,-0.551 -0.06642,-0.197405 -0.177744,-0.495407 -0.247366,-0.662227 -0.170807,-0.409139 -0.322737,-1.11328 -0.407211,-1.887241 -0.09713,-0.889835 -0.267636,-2.077177 -0.338761,-2.359053 -0.03274,-0.129747 -0.07655,-0.335039 -0.09736,-0.456201 -0.03701,-0.215548 -0.199517,-0.867667 -0.277265,-1.112577 -0.03296,-0.103872 -0.05597,-0.109487 -0.145613,-0.03556 -0.09464,0.07805 -0.09749,0.07096 -0.02565,-0.06385 0.108726,-0.204079 0.0025,-0.191979 -0.19865,0.02265 -0.08987,0.09586 -0.360542,0.30447 -0.601506,0.463581 -0.573993,0.379019 -1.174862,0.535535 -2.055748,0.535486 -0.738584,-4.1e-5 -1.489014,-0.04697 -1.373971,-0.08591 0.132392,-0.04481 -0.497008,-0.282059 -0.641475,-0.241802 -0.09403,0.0262 -0.112521,0.01926 -0.05523,-0.02071 0.06366,-0.04443 0.03801,-0.08206 -0.09833,-0.144181 -0.16961,-0.07728 -0.195492,-0.06892 -0.321183,0.103618 -0.287736,0.395006 -0.961334,1.008806 -1.284301,1.170284 l -0.337003,0.168504 0.01478,0.370706 c 0.0082,0.203891 0.03426,1.333709 0.05811,2.510706 0.02369,1.177 0.04751,2.144435 0.05263,2.149856 0.02216,0.02346 2.540731,0.100894 3.65555,0.112378 l 1.219793,0.01256 z m -3.608856,0.597731 c 0.04866,-0.01946 0.106789,-0.01707 0.129207,0.0053 0.02242,0.02239 -0.01732,0.03833 -0.08847,0.0354 -0.07851,-0.0032 -0.09448,-0.01921 -0.04073,-0.04072 z m -3.20073,-0.200513 c 0.0767,-0.07671 -0.09874,-0.225257 -0.266056,-0.225257 -0.188334,0 -0.209681,0.09931 -0.04229,0.196807 0.138174,0.08049 0.246314,0.09047 0.308344,0.02845 z m -15.061945,-0.06496 c 0.358911,-0.07178 0.159471,-0.160299 -0.361178,-0.160299 -0.685726,0 -0.768085,0.172774 -0.09268,0.194387 0.134378,0.0043 0.338608,-0.01103 0.453854,-0.03409 z m 0.18199,-0.459485 c 0.116063,-0.08602 0.1194,-0.108043 0.02973,-0.194847 -0.05561,-0.05383 -0.273393,-0.118261 -0.483991,-0.14319 -0.346837,-0.04106 -0.390195,-0.03173 -0.460148,0.09901 -0.135907,0.253946 -0.04068,0.336007 0.38994,0.336007 0.236914,0 0.445729,-0.03861 0.52447,-0.09698 z m 14.663167,-0.311353 c -0.08868,-0.07384 -0.176412,-0.119055 -0.194957,-0.100489 -0.0578,0.0578 0.13099,0.239336 0.246441,0.236977 0.08486,-0.0018 0.07319,-0.03265 -0.05148,-0.136488 z m -14.638482,-0.42811 c 0.06256,-0.07538 0.04725,-0.117186 -0.07413,-0.202204 -0.08417,-0.05895 -0.216304,-0.107175 -0.293645,-0.107175 -0.206242,0 -0.398397,0.162121 -0.347957,0.293559 0.05469,0.142518 0.600588,0.154583 0.715733,0.01582 z m 14.765982,-0.172206 c 0,-0.06089 -0.211592,-0.204576 -0.301262,-0.204576 -0.02216,0 -0.0082,0.06066 0.03164,0.134804 0.07347,0.137267 0.269623,0.188028 0.269623,0.06977 z M 47.470824,60.236925 c 0.198422,-0.198427 0.0738,-0.568098 -0.191518,-0.568098 -0.183569,0 -0.280526,0.09823 -0.343142,0.347712 -0.0335,0.13353 -0.01376,0.196547 0.07884,0.250329 0.176411,0.102566 0.33364,0.09224 0.455816,-0.02994 z M 62.051198,59.92158 c -0.01554,-0.04634 -0.06853,-0.08425 -0.117947,-0.08425 -0.04942,0 -0.10251,0.03791 -0.117948,0.08425 -0.01681,0.05012 0.03108,0.08425 0.117948,0.08425 0.08687,0 0.134658,-0.03413 0.117947,-0.08425 z M 47.630652,59.38574 c 0.120112,-0.120105 0.09818,-0.241552 -0.05222,-0.289289 -0.129717,-0.04118 -0.129029,-0.04857 0.02754,-0.290999 0.153866,-0.238259 0.292855,-0.686861 0.212789,-0.686861 -0.06756,0 -0.579012,1.070353 -0.579012,1.211732 0,0.155769 0.254491,0.191846 0.390908,0.05542 z m 14.370004,-0.45466 c 0.315809,-0.09144 0.736725,-0.447759 0.850444,-0.719973 0.118125,-0.282679 0.03212,-0.528264 -0.239538,-0.684181 -0.22922,-0.131556 -0.29176,-0.29621 -0.20209,-0.53208 0.03464,-0.09111 0.063,-0.316289 0.063,-0.500394 0,-0.406536 -0.148058,-0.514446 -0.353306,-0.257492 -0.387214,0.484735 -0.453142,0.533601 -0.720116,0.533601 -0.34304,0 -0.476807,-0.05515 -0.476807,-0.196532 0,-0.141103 -0.175418,-0.391952 -0.233475,-0.33389 -0.02318,0.02326 0.01987,0.279145 0.09561,0.568651 0.172106,0.657094 0.172489,0.646148 -0.03008,0.864712 -0.202956,0.21901 -0.265343,0.43858 -0.20935,0.737033 0.04028,0.214605 0.29981,0.522792 0.51209,0.608073 0.12536,0.05035 0.628636,0.0037 0.943628,-0.08753 z m -0.562453,-0.531339 c -0.270616,-0.299025 -0.0046,-0.605375 0.333462,-0.383914 0.212688,0.139353 0.267611,0.278309 0.160872,0.406931 -0.113973,0.137343 -0.359573,0.125908 -0.494334,-0.02303 z m 1.963708,-0.904034 -0.01962,-0.420679 0.49655,-0.327873 c 0.273113,-0.180332 0.712906,-0.535456 0.977332,-0.789165 l 0.480756,-0.461286 -0.159369,-0.289842 c -0.230723,-0.419584 -0.736164,-1.165851 -0.874338,-1.290886 -0.110458,-0.09996 -0.14844,-0.07705 -0.549181,0.331206 -0.236812,0.241228 -0.606881,0.535541 -0.822421,0.654029 -0.215515,0.118484 -0.39185,0.240941 -0.39185,0.272122 0,0.03118 0.078,0.18979 0.173329,0.352468 0.132519,0.226123 0.187365,0.443979 0.232889,0.925056 0.04239,0.448253 0.113718,0.749399 0.247918,1.046845 0.103605,0.229663 0.197148,0.417821 0.207898,0.418127 0.0107,2.54e-4 0.0107,-0.188749 0,-0.420122 z m -3.178718,-0.08312 c 0.02089,-0.05467 -0.02548,-0.202316 -0.103223,-0.328112 -0.16882,-0.273162 -0.179621,-0.610463 -0.03709,-1.15771 0.128545,-0.493476 0.123527,-0.498533 -0.696398,-0.702128 -0.705238,-0.175115 -1.591371,-0.490809 -2.118848,-0.754875 -0.212101,-0.106181 -0.409249,-0.192953 -0.438112,-0.19283 -0.02886,1.22e-4 -0.05018,0.280681 -0.04741,0.623462 0.01044,1.286079 -0.01936,1.177264 0.449881,1.633723 0.464274,0.451486 0.844457,0.657195 1.562738,0.845565 0.599875,0.157315 1.373869,0.175148 1.428461,0.03291 z m -5.476702,-0.630493 c 1.39891,-0.399854 1.525035,-0.540652 1.525035,-1.702311 0,-0.393556 -0.03261,-0.809075 -0.07245,-0.923374 -0.08063,-0.231307 -0.320572,-0.418913 -0.535755,-0.418913 -0.07765,0 -0.122406,-0.03033 -0.0995,-0.0674 0.02293,-0.03707 0.0968,-0.0674 0.164234,-0.0674 0.06741,0 0.15858,-0.04338 0.202574,-0.0964 0.109439,-0.131854 -0.09828,-0.23917 -0.496474,-0.256499 -0.373304,-0.01625 -0.425603,0.03103 -0.280042,0.253189 0.0643,0.0981 0.105057,0.268204 0.09339,0.389661 -0.01911,0.198995 -0.0038,0.217184 0.198371,0.236682 0.240684,0.02321 0.294333,0.140314 0.08891,0.194035 -0.186729,0.04883 -0.217375,0.190198 -0.0765,0.352655 0.245371,0.282907 0.227641,1.136645 -0.02947,1.42078 -0.06234,0.06885 -0.315248,0.208046 -0.562071,0.309308 -0.352492,0.144624 -0.564415,0.185386 -0.987955,0.190037 -0.484552,0.0053 -0.587036,-0.0176 -1.01101,-0.226046 -0.465701,-0.228952 -0.484934,-0.232223 -1.482849,-0.251948 -0.72488,-0.01434 -0.96541,-7.65e-4 -0.849883,0.04794 0.0886,0.03736 0.255433,0.111247 0.370706,0.164199 0.395238,0.181552 1.040381,0.370324 1.416845,0.414568 0.397301,0.04669 0.499913,0.136969 0.196511,0.172886 -0.0991,0.01172 -0.193938,0.06321 -0.210752,0.114388 -0.02522,0.07694 0.102204,0.0865 0.736216,0.05516 0.614472,-0.03037 0.952622,-0.09101 1.701931,-0.305193 z m -4.642207,-0.210038 c -0.07413,-0.02983 -0.157535,-0.04107 -0.185353,-0.02499 -0.02779,0.01607 -0.05054,-0.0015 -0.05054,-0.03897 0,-0.154699 -0.809633,-0.270706 -1.009074,-0.144581 -0.149917,0.09481 -0.06007,0.138393 0.411288,0.199497 0.585889,0.07595 1.011493,0.08057 0.83368,0.009 z M 61.694223,56.2364 c 0.05645,-0.09131 -0.104803,-0.409457 -0.207516,-0.409457 -0.04835,0 -0.119247,0.05855 -0.15756,0.130121 -0.05255,0.09822 -0.04371,0.156055 0.03615,0.235905 0.1181,0.118095 0.270361,0.138199 0.328928,0.04343 z m -9.307162,-0.474731 c 0.04779,-0.04777 0.04315,-0.09589 -0.01478,-0.153782 -0.120164,-0.120042 -3.403964,-0.121089 -3.523898,-10e-4 -0.0457,0.04572 -0.06552,0.100716 -0.04402,0.122214 0.06361,0.06362 2.120452,0.156294 2.844695,0.128175 0.367674,-0.01427 0.699786,-0.05724 0.738049,-0.09548 z m 16.623332,-0.04168 c 0.545819,-0.162372 0.988516,-0.405795 1.345822,-0.740003 0.174272,-0.163022 0.42805,-0.342863 0.563956,-0.399643 0.232634,-0.0972 0.247078,-0.120974 0.247078,-0.40673 0,-0.28666 -0.01401,-0.309452 -0.252758,-0.410969 -0.601277,-0.255676 -0.741565,-0.360576 -1.323379,-0.98957 -0.565128,-0.610966 -0.629452,-0.660313 -0.812741,-0.623655 -0.109464,0.0219 -0.271559,0.08733 -0.360185,0.145403 -0.150657,0.09871 -0.158197,0.132709 -0.115604,0.521381 l 0.04555,0.415786 -0.600716,-0.623464 c -0.760493,-0.789289 -0.903023,-0.807713 -0.651767,-0.08425 0.142352,0.409847 0.253497,0.516934 0.659282,0.635128 0.19004,0.05536 0.54862,0.223245 0.796819,0.373077 0.248199,0.149833 0.490844,0.271476 0.53922,0.27032 0.04835,-0.0013 0.209249,-0.07683 0.357536,-0.168159 0.490946,-0.302384 0.592615,-0.144718 0.211108,0.327423 -0.124876,0.154521 -0.2791,0.440608 -0.342735,0.635746 -0.190626,0.584461 -0.851208,0.959531 -1.689932,0.959531 -0.402168,0 -0.457473,-0.01809 -0.669804,-0.219054 -0.140671,-0.133122 -0.447741,-0.642104 -0.782808,-1.297478 -0.640762,-1.253277 -0.720192,-1.39485 -1.127301,-2.008926 -0.341589,-0.515235 -1.065194,-1.214111 -1.365463,-1.318785 l -0.19809,-0.06905 2.54e-4,0.552556 c 0,0.714605 0.07181,0.953103 0.420764,1.407071 0.157611,0.205046 0.609352,0.794268 1.003877,1.309382 1.085548,1.41742 1.372111,1.658295 2.24836,1.889841 0.418751,0.110657 1.341644,0.06937 1.853555,-0.08291 z m -8.194304,-0.03601 c -0.04369,-0.07068 -0.163471,-0.01394 -0.163471,0.07742 0,0.03372 0.04532,0.04392 0.100727,0.02265 0.05538,-0.02125 0.08361,-0.06629 0.06274,-0.100084 z m 0.948647,-0.261443 c -0.07413,-0.03186 -0.180283,-0.05793 -0.235894,-0.05793 -0.06374,0 -0.05128,0.02142 0.0337,0.05793 0.07413,0.03186 0.180283,0.05793 0.235894,0.05793 0.06374,0 0.05128,-0.02142 -0.0337,-0.05793 z m -9.638408,-0.264758 c 0,-0.15153 -0.326584,-0.20921 -1.436435,-0.253698 -0.591264,-0.02369 -0.994272,-0.06531 -0.943629,-0.09743 0.04863,-0.03083 0.240073,-0.05828 0.425426,-0.06098 0.185353,-0.0027 0.458338,-0.02696 0.6066,-0.0539 l 0.269623,-0.04898 -0.349689,-0.115637 c -0.69054,-0.228364 -1.049273,-0.120174 -1.445198,0.435857 -0.119705,0.168099 -0.128723,0.214412 -0.05136,0.264008 0.05159,0.03308 0.730738,0.05269 1.509241,0.04358 1.173792,-0.01373 1.415418,-0.033 1.415418,-0.112819 z m 10.037136,-0.436891 c 0.500066,-0.162161 0.871282,-0.405454 1.210731,-0.793508 0.355574,-0.406478 0.448454,-0.689257 0.280653,-0.854497 -0.104038,-0.102463 -0.119272,-0.100983 -0.209197,0.02033 -0.05334,0.07196 -0.09698,0.188227 -0.09698,0.258372 0,0.18895 -0.153204,0.103556 -0.212585,-0.118494 -0.02828,-0.105773 -0.07253,-0.885369 -0.09833,-1.732434 -0.04157,-1.364684 -0.05915,-1.536545 -0.154453,-1.508733 -1.298643,0.37903 -2.452845,0.441848 -4.235887,0.230536 -0.521465,-0.0618 -0.623465,-0.09324 -0.623465,-0.192192 0,-0.120537 -0.236557,-0.251395 -0.540112,-0.298753 -0.599722,-0.09357 -0.842775,-0.10854 -1.110513,-0.06839 -0.462644,0.06938 -0.307453,0.142713 0.385099,0.181997 0.343882,0.01951 0.678312,0.05726 0.74317,0.08389 0.277189,0.113788 0.0696,0.168804 -0.636941,0.168804 -1.16964,0 -0.806423,0.127398 0.536393,0.188138 0.635463,0.02875 1.175117,0.07198 1.199216,0.09608 0.145689,0.145707 -0.12182,0.187591 -1.198121,0.187591 -0.634189,0 -1.138382,0.0147 -1.120423,0.03267 0.03885,0.03885 0.846189,0.146777 1.501498,0.200732 0.702563,0.05785 0.984108,0.113347 0.939655,0.185248 -0.02497,0.04045 -0.475865,0.04677 -1.199624,0.01681 -1.17583,-0.04868 -1.453936,-0.02351 -1.453936,0.131543 0,0.06331 0.23643,0.09786 0.893088,0.130501 0.934331,0.04644 1.196363,0.08731 1.196363,0.186574 0,0.03275 -0.417045,0.06167 -0.926765,0.06428 -0.933007,0.0048 -1.32287,0.06397 -1.078416,0.163743 0.162757,0.06644 0.147702,0.159427 -0.0512,0.315877 -0.178653,0.14052 -0.168998,0.256366 0.0214,0.258091 0.06269,5.6e-4 0.159471,0.03112 0.215082,0.0679 0.08674,0.05736 0.08047,0.08356 -0.04397,0.184322 -0.18385,0.148847 -0.109337,0.391439 0.15058,0.490262 0.148338,0.0564 0.163776,0.08424 0.09362,0.168788 -0.06842,0.08244 -0.0604,0.128981 0.04323,0.250536 0.177966,0.208782 0.293773,0.302613 0.565358,0.458046 0.129742,0.07426 0.326889,0.189908 0.438112,0.256996 0.371292,0.22398 1.126511,0.492446 1.745951,0.620647 0.759881,0.157267 2.301296,0.139682 2.831652,-0.0323 z m -9.214842,-0.131885 c 0.08363,-0.08362 -0.127041,-0.169693 -0.518407,-0.211811 -0.204205,-0.02198 -0.485036,-0.05624 -0.624051,-0.07614 -0.438698,-0.06281 -0.281137,0.224936 0.185353,0.33855 0.191161,0.04656 0.897291,0.0092 0.957105,-0.0506 z m 1.152852,-0.657539 c 0.01401,-0.119922 -0.0186,-0.192955 -0.101108,-0.227164 -0.06687,-0.02773 -0.659079,-0.066 -1.316017,-0.08504 -1.056533,-0.03062 -1.21501,-0.02114 -1.372672,0.08217 -0.309363,0.202693 -0.0938,0.305684 0.738355,0.352809 l 0.72144,0.04086 0.197097,-0.188817 0.197071,-0.188818 0.202217,0.216455 c 0.169967,0.181962 0.2429,0.213097 0.457651,0.195375 0.219005,-0.01806 0.258389,-0.04631 0.275966,-0.197823 z m -0.12722,-0.573979 c 0.124444,-0.108099 -0.587138,-0.20209 -0.976695,-0.129008 -0.263178,0.04937 -0.243996,0.142397 0.0387,0.187465 0.176437,0.02813 0.88947,-0.01631 0.937999,-0.05846 z m 12.731658,-0.376446 c 0.02496,-0.131717 -0.385633,-1.087084 -0.651945,-1.51691 -0.09713,-0.156765 -0.253752,-0.316979 -0.348033,-0.356033 -0.18436,-0.07636 -0.604818,-0.06915 -0.604818,0.01037 0,0.0266 0.201147,0.376529 0.447003,0.777631 0.795953,1.298571 0.754302,1.245263 0.954685,1.222058 0.106865,-0.01238 0.190116,-0.06857 0.203108,-0.137117 z m -12.439617,-0.09475 0.21233,-0.109797 -0.155751,-0.126108 c -0.08565,-0.06936 -0.247155,-0.126108 -0.358886,-0.126108 -0.244199,0 -1.00757,0.329759 -0.956112,0.413013 0.06585,0.106564 1.029224,0.06752 1.258419,-0.051 z m 1.398605,-0.05473 c 0,-0.19434 -0.06977,-0.246092 -0.417503,-0.309681 -0.307656,-0.05626 -0.34648,-0.01508 -0.249116,0.26426 0.06697,0.192117 0.09841,0.209947 0.369917,0.209947 0.269648,0 0.296702,-0.01501 0.296702,-0.164526 z m -0.148288,-1.196984 c 0.114076,-0.114063 0.100498,-0.320236 -0.0242,-0.368098 -0.101745,-0.03904 -0.501467,0.27517 -0.501467,0.394189 0,0.08577 0.435488,0.06416 0.525719,-0.02609 z m 6.007772,-1.808259 c 0.784235,-0.08259 1.175091,-0.252342 1.914312,-0.831376 1.086822,-0.851294 1.692939,-1.589115 2.250068,-2.739003 0.555244,-1.145938 0.813556,-1.933673 1.038827,-3.16787 0.122864,-0.673145 0.128749,-5.999268 0.0076,-6.950205 -0.224685,-1.764747 -0.605683,-3.149692 -1.14689,-4.16886 -0.66053,-1.243865 -1.259922,-2.041603 -2.044207,-2.72068 -0.715428,-0.619465 -2.326695,-1.362829 -3.38305,-1.560769 -0.608817,-0.11408 -1.194604,-0.07862 -2.198991,0.133097 -0.734992,0.154936 -0.828255,0.213579 -0.335321,0.210862 0.409911,-0.0023 0.936343,0.119519 0.936343,0.216605 0,0.02493 -0.513083,0.04532 -1.140217,0.04532 -1.03707,0 -1.31087,0.03154 -1.20375,0.138664 0.02063,0.02066 0.288678,0.05857 0.59557,0.08425 0.350785,0.02935 0.568364,0.07798 0.58589,0.130943 0.02114,0.06417 -0.162196,0.08463 -0.769663,0.08586 -0.438672,8.91e-4 -0.915047,0.02886 -1.058596,0.06216 -0.25602,0.0594 -0.435055,0.172563 -0.372286,0.235322 0.01758,0.01745 0.553792,0.05292 1.191879,0.07883 0.638088,0.0259 1.160138,0.07279 1.160138,0.104193 0,0.0314 -0.417044,0.05804 -0.926765,0.05918 -1.013149,0.0023 -1.823114,0.08464 -2.055518,0.209021 -0.144849,0.07753 -0.145282,0.08108 -0.01554,0.131753 0.07332,0.02864 0.542761,0.05468 1.043235,0.05785 0.910104,0.0058 1.220461,0.06838 1.011009,0.203943 -0.135423,0.08765 -0.471967,0.124251 -1.516527,0.164936 -0.481928,0.01877 -0.986681,0.06613 -1.121696,0.105237 -0.229705,0.06655 -0.449423,0.238896 -0.385736,0.30259 0.01554,0.01558 0.725108,0.05442 1.576698,0.08632 0.851615,0.03189 1.502872,0.07578 1.447261,0.09752 -0.05561,0.02174 -0.785101,0.07162 -1.621074,0.110832 -1.513623,0.071 -2.084891,0.162427 -1.770585,0.283378 0.08083,0.0311 0.482692,0.07779 0.893087,0.103754 0.41037,0.02597 0.746125,0.06893 0.746125,0.09546 0,0.02654 -0.403874,0.06366 -0.897495,0.0825 -0.828535,0.03162 -1.19193,0.107134 -1.19193,0.247685 0,0.08015 0.530559,0.141593 1.222627,0.141593 0.328469,0 0.597201,0.02495 0.597201,0.05545 0,0.0305 -0.439717,0.08639 -0.977129,0.124192 -0.783165,0.05509 -1.003953,0.09299 -1.112143,0.190897 -0.165967,0.150197 -0.170272,0.216607 -0.01707,0.261661 0.06488,0.01907 0.861066,0.08264 1.769311,0.141274 2.893301,0.186772 2.960808,0.250657 0.258338,0.244433 -1.050342,-0.0024 -2.015651,0.019 -2.145189,0.04759 -0.312293,0.06894 -0.348543,0.249973 -0.06155,0.307373 0.217579,0.04352 1.517215,0.14281 2.84146,0.217092 1.309164,0.07343 0.773,0.16233 -1.011035,0.167631 -0.954558,0.0028 -1.794455,0.01617 -1.86642,0.02963 -0.335068,0.06267 -0.442086,0.109381 -0.442086,0.192974 0,0.108578 0.289009,0.143275 2.055747,0.246815 0.704347,0.04128 1.386785,0.09129 1.516553,0.111149 0.520114,0.07959 -0.07655,0.13089 -1.684099,0.144793 -1.571934,0.0136 -2.157799,0.07216 -2.157799,0.215703 0,0.03564 0.0076,0.06987 0.01681,0.07606 0.0092,0.0062 0.781255,0.02894 1.715509,0.05055 1.211291,0.02802 1.722438,0.06314 1.781641,0.122424 0.04565,0.04572 0.05974,0.106382 0.03133,0.134803 -0.0284,0.02842 -0.754327,0.07164 -1.613152,0.09603 -0.858799,0.0244 -1.652459,0.04761 -1.763681,0.05158 -0.267025,0.0095 -0.385176,0.09123 -0.332061,0.229605 0.03859,0.100592 0.212661,0.113007 1.636767,0.116731 1.988163,0.0052 2.783123,0.07567 2.625995,0.232794 -0.01911,0.01912 -0.820357,0.06411 -1.78052,0.09999 -1.99043,0.07437 -2.52616,0.122526 -2.365238,0.212579 0.117999,0.06604 2.08456,0.188577 3.058809,0.1906 0.340697,7.14e-4 0.635948,0.02793 0.656073,0.06049 0.02063,0.03318 -0.785203,0.07334 -1.832718,0.09136 -1.028128,0.01769 -1.922388,0.05495 -1.987246,0.08281 -0.163241,0.0701 -0.147523,0.217606 0.03368,0.316225 0.130149,0.07082 1.700912,0.159785 3.319541,0.188005 0.243664,0.0042 0.309007,0.02397 0.235895,0.07121 -0.05635,0.03643 -0.685776,0.06579 -1.422399,0.06637 -1.360444,0.0011 -2.149876,0.05108 -2.149876,0.136226 0,0.04479 0.427744,0.143207 1.016563,0.233894 0.25337,0.03902 2.258652,0.236981 2.404061,0.237325 0.04634,1.1e-4 0.08424,0.02533 0.08424,0.05603 0,0.03071 -0.803748,0.04182 -1.786124,0.0247 -1.239185,-0.0216 -1.78615,-0.0091 -1.78615,0.04073 0,0.03952 0.05309,0.08869 0.117947,0.109259 0.202651,0.06425 1.45386,0.240478 1.710312,0.240895 0.333692,5.35e-4 0.6656,0.07216 0.6656,0.143625 0,0.03244 -0.288143,0.05898 -0.640303,0.05898 -0.352186,0 -0.640329,0.02642 -0.640329,0.05871 0,0.03229 0.09963,0.126984 0.221425,0.210426 0.18599,0.127448 0.2174,0.185977 0.196383,0.365934 -0.03666,0.314093 0.173966,0.38516 1.32236,0.446161 0.530763,0.02819 0.981179,0.06741 1.000922,0.08714 0.144211,0.144206 -0.163904,0.179652 -1.561566,0.179652 -0.833248,0 -1.525545,0.02745 -1.54646,0.06132 -0.131729,0.213135 0.03778,0.248264 1.801103,0.373235 0.972085,0.06889 1.82049,0.127123 1.885348,0.129402 0.06488,0.0023 0.117973,0.04686 0.117973,0.09906 0,0.08041 -0.254542,0.08728 -1.665171,0.04497 -0.915837,-0.02747 -1.711994,-0.05759 -1.769286,-0.06693 -0.188996,-0.03082 -0.205809,0.03722 -0.07334,0.296864 0.157662,0.309054 0.218801,0.323496 1.637404,0.386798 0.546786,0.0244 0.994171,0.06535 0.994171,0.091 0,0.05011 -1.166175,0.134522 -1.858523,0.134522 -0.507479,0 -0.635336,0.04167 -0.635336,0.207045 0,0.152696 0.195899,0.265322 0.636074,0.365681 0.583801,0.133106 0.445372,0.219308 -0.395008,0.245986 -0.59017,0.01873 -0.801609,0.04996 -0.881879,0.130211 -0.125768,0.125781 -0.07189,0.310345 0.107222,0.367191 0.164184,0.05211 0.256555,-0.0072 0.33573,-0.215441 0.08004,-0.21049 0.278411,-0.18466 0.332214,0.04326 0.05082,0.215251 0.230035,0.251074 1.516985,0.303201 0.556059,0.02252 1.143579,0.05734 1.305598,0.07738 0.618421,0.07647 0.126506,0.150525 -1.142178,0.17195 -1.27885,0.0216 -1.326997,0.02746 -1.566025,0.190785 -0.370451,0.253118 -0.368922,0.336945 0.0061,0.337354 0.827822,8.92e-4 2.885735,0.147897 2.946161,0.210442 0.04715,0.04882 -0.591724,0.05573 -2.088916,0.0226 -1.186274,-0.02625 -2.179604,-0.06096 -2.207397,-0.07713 -0.116674,-0.06787 -0.03386,0.05231 0.213248,0.309519 0.370578,0.385683 0.819491,0.520807 1.147324,0.34535 0.29255,-0.156565 0.966276,-0.188579 2.599273,-0.123512 0.926765,0.03693 1.713853,0.09447 1.749058,0.127874 0.03918,0.03716 0.01299,0.06008 -0.06741,0.05905 -0.70827,-0.0091 -3.40162,0.07378 -3.489126,0.107371 -0.06241,0.02395 -0.113489,0.07582 -0.113489,0.115276 0,0.106027 0.209248,0.318253 0.313771,0.318253 0.10791,0 0.122583,0.18033 0.01758,0.215356 -0.04611,0.01537 -0.01121,0.16447 0.09436,0.403192 0.135473,0.306297 0.204306,0.386014 0.359624,0.41646 0.195416,0.03831 1.004233,0.118631 2.515233,0.249786 1.446777,0.125579 1.131249,0.190779 -0.722358,0.149274 -1.239236,-0.02775 -1.769311,-0.01795 -1.769311,0.03269 0,0.102336 0.579216,0.215073 1.48285,0.288616 1.217404,0.09908 1.48746,0.137225 1.446064,0.204233 -0.02165,0.03485 -0.617529,0.06244 -1.348955,0.06244 -0.720676,0 -1.310336,0.02662 -1.310336,0.05915 0,0.206195 0.492959,0.322357 1.57573,0.371316 1.242624,0.05618 1.120474,0.140697 -0.308191,0.213243 l -0.85559,0.04345 0.451181,0.383341 c 1.085599,0.922355 2.785441,1.811567 3.873817,2.026443 0.402523,0.07947 1.387269,0.08022 2.133546,0.0016 z m -3.63214,-0.980747 c -0.282105,-0.122187 -0.297416,-0.136064 -0.244556,-0.221597 0.05551,-0.08981 0.660505,0.115659 0.627974,0.213267 -0.03824,0.114711 -0.133079,0.116771 -0.383418,0.0083 z m -1.283715,-0.736091 c 0,-0.08066 0.09882,-0.100916 0.488654,-0.100182 0.268782,5.1e-4 0.559472,0.01988 0.646009,0.04305 0.290869,0.07788 0.0028,0.156121 -0.578604,0.1572 -0.449804,8.41e-4 -0.556059,-0.01829 -0.556059,-0.10007 z m -1.70188,-2.6445 c -0.176106,-0.01388 -0.320164,-0.05391 -0.320164,-0.08895 0,-0.03661 0.358325,-0.06371 0.84252,-0.06371 0.821097,0 1.098719,0.07482 0.589762,0.158943 -0.253981,0.04198 -0.51907,0.04048 -1.112118,-0.0063 z m -0.438112,-0.472219 c -0.138072,-0.047 -0.09566,-0.200876 0.06741,-0.244574 0.240149,-0.06436 2.769928,-0.04698 2.875341,0.01975 0.100752,0.06377 0.02165,0.07545 -1.409381,0.207931 -0.749869,0.06942 -1.359348,0.07614 -1.533365,0.01689 z m 7.329902,-0.268929 c -0.237754,-0.03349 -0.471814,-0.161065 -0.471814,-0.257169 0,-0.184801 0.207006,-0.248612 0.77514,-0.238934 0.656327,0.01118 0.926867,0.08573 0.867995,0.239181 -0.05788,0.150806 -0.787877,0.310931 -1.171321,0.256922 z m -5.324721,-1.899752 c 0,-0.09298 0.0966,-0.108982 0.504753,-0.08362 0.204433,0.0127 0.354708,0.05062 0.333921,0.08425 -0.0496,0.08023 -0.838674,0.07964 -0.838674,-6.37e-4 z m 6.082998,-0.589467 c -0.0955,-0.03854 -0.116394,-0.292369 -0.02395,-0.292369 0.115374,0 0.131041,-0.188256 0.03811,-0.458 -0.320063,-0.929021 -0.584107,-3.463143 -0.381966,-3.666069 0.0713,-0.07158 0.09841,-0.0692 0.149688,0.01314 0.06685,0.107289 0.08631,0.240936 0.196409,1.347466 0.03872,0.389244 0.149383,1.041353 0.245906,1.449132 0.251154,1.061075 0.275941,1.355008 0.128061,1.518402 -0.120495,0.133166 -0.194804,0.151792 -0.35216,0.0883 z m -7.565822,-0.427172 c 0,-0.03707 0.136492,-0.0674 0.3033,-0.0674 0.166833,0 0.3033,0.03033 0.3033,0.0674 0,0.03707 -0.136467,0.0674 -0.3033,0.0674 -0.166808,0 -0.3033,-0.03033 -0.3033,-0.0674 z m 1.533391,-0.653268 c -0.239334,-0.06215 -0.107809,-0.15555 0.219056,-0.15555 0.185353,0 0.337003,0.03033 0.337003,0.0674 0,0.03707 -0.05818,0.0674 -0.129284,0.0674 -0.07112,0 -0.169686,0.01156 -0.219056,0.02569 -0.04937,0.01413 -0.142861,0.0119 -0.207719,-0.0049 z M 56.04684,38.999037 c -0.107095,-0.107098 -0.02471,-0.15727 0.258389,-0.15727 0.22466,0 0.3033,0.02621 0.3033,0.101102 0,0.07229 -0.07365,0.101102 -0.258363,0.101102 -0.142123,0 -0.278615,-0.02022 -0.303326,-0.04493 z m 7.558154,-0.14781 C 63.43085,38.738922 63.16189,38.51671 63.00731,38.357424 c -0.279252,-0.287749 -0.280781,-0.292128 -0.240149,-0.680859 0.07031,-0.672739 0.170603,-0.780297 0.955704,-1.024823 0.628025,-0.195609 1.22092,-0.218532 1.741086,-0.06732 0.386984,0.112498 0.782986,0.427931 0.782986,0.623671 0,0.273159 -0.224813,0.860899 -0.424228,1.109028 -0.279227,0.347456 -0.922052,0.652527 -1.4775,0.701183 -0.389048,0.03408 -0.449473,0.02044 -0.740215,-0.167082 z m 1.347147,-0.40731 c 0.300651,-0.154177 0.491073,-0.353616 0.681088,-0.713277 0.27966,-0.529386 0.13792,-0.731433 -0.565816,-0.806479 -0.47882,-0.05106 -1.467208,0.105573 -1.781029,0.282247 -0.226393,0.127448 -0.313974,0.32703 -0.242442,0.552434 0.06302,0.198569 0.364134,0.540762 0.605174,0.687755 0.282233,0.172112 0.964926,0.170708 1.303025,-0.0027 z m -0.671204,-0.93333 c -0.126074,-0.149206 -0.08743,-0.329926 0.07989,-0.373683 0.194116,-0.05076 0.305797,0.120192 0.212432,0.325128 -0.08977,0.197047 -0.157382,0.208275 -0.292321,0.04856 z m -6.267103,1.338968 c -0.945489,-0.307462 -1.580213,-1.108806 -1.316424,-1.661977 0.08516,-0.178571 0.179749,-0.237978 0.595927,-0.374309 0.452097,-0.148089 0.605046,-0.162051 1.775349,-0.162051 1.095381,0 1.312017,0.01717 1.497675,0.118651 0.541437,0.295968 0.460351,0.827936 -0.237881,1.560566 -0.583928,0.612688 -1.437938,0.804222 -2.314646,0.51912 z m 1.46703,-0.409879 c 0.443079,-0.22141 0.816027,-0.55091 0.913391,-0.80698 0.08162,-0.214677 0.02293,-0.447508 -0.128621,-0.509953 -0.331883,-0.136789 -2.915565,-0.03499 -3.108204,0.12247 -0.136264,0.111374 -0.05851,0.625987 0.123934,0.820186 0.152338,0.162156 0.682285,0.420812 1.045909,0.510494 0.424713,0.104749 0.747705,0.06661 1.153591,-0.136217 z m -0.365,-0.824616 c -0.192766,-0.192764 -0.01528,-0.487005 0.269267,-0.446654 0.284907,0.04039 0.215362,0.527535 -0.0753,0.527535 -0.06221,0 -0.149485,-0.0364 -0.193964,-0.08088 z m -4.242918,1.24541 c -0.196867,-0.06995 -0.05931,-0.153506 0.252759,-0.153506 0.248097,0 0.337003,0.02556 0.337003,0.09688 0,0.06793 -0.07553,0.09534 -0.252758,0.09172 -0.139015,-0.0028 -0.290665,-0.01863 -0.337004,-0.03509 z m -1.499688,-0.220908 c 0,-0.03745 0.179749,-0.0674 0.404409,-0.0674 0.22466,0 0.404409,0.02996 0.404409,0.0674 0,0.03745 -0.179749,0.0674 -0.404409,0.0674 -0.22466,0 -0.404409,-0.02996 -0.404409,-0.0674 z m 1.145821,-0.397198 c 0,-0.09336 0.144848,-0.124572 0.421273,-0.09077 0.368362,0.04505 0.309261,0.150963 -0.08427,0.150963 -0.185353,0 -0.337003,-0.02709 -0.337003,-0.06019 z m 2.701069,-2.219126 c -0.205707,-0.06259 -0.250007,-0.182299 -0.09212,-0.248817 0.272043,-0.114591 1.408082,-0.237135 2.583938,-0.278727 1.706236,-0.06035 2.026808,0.01766 1.565081,0.380863 -0.164336,0.129261 -0.25416,0.142897 -0.825682,0.125321 -0.352695,-0.01085 -1.187217,7.13e-4 -1.854498,0.02569 -0.667281,0.02498 -1.286797,0.02303 -1.376723,-0.0043 z m 5.943168,0.01043 c -0.103401,-0.04173 -0.110432,-0.200828 -0.01146,-0.261929 0.118788,-0.07341 1.528169,-0.197054 2.235292,-0.196092 0.529591,7.13e-4 0.679,0.02326 0.772237,0.116492 0.275864,0.275865 -0.215159,0.378685 -1.799575,0.376829 -0.61167,-7.14e-4 -1.150025,-0.0166 -1.196363,-0.0353 z m -7.214094,-1.247654 c 0.01605,-0.04919 0.113769,-0.09935 0.21689,-0.111474 0.132162,-0.01553 0.178832,0.0044 0.158095,0.0674 -0.01605,0.04919 -0.113769,0.09935 -0.21689,0.111473 -0.132137,0.01553 -0.178806,-0.0044 -0.158095,-0.0674 z m 0.302943,-0.501973 c -0.115374,-0.115365 -0.02318,-0.160378 0.328291,-0.160378 0.270897,0 0.368541,0.0236 0.348569,0.08425 -0.02998,0.09113 -0.59799,0.155007 -0.67686,0.07613 z m 0.05497,-0.763894 c -0.0242,-0.0393 2.55e-4,-0.08854 0.0548,-0.109424 0.149103,-0.05721 0.549894,-0.0043 0.549894,0.07263 0,0.09231 -0.549715,0.125761 -0.60469,0.0368 z m 0.857449,-0.653102 c -0.167164,-0.06993 -0.07915,-0.158813 0.15728,-0.158813 0.163063,0 0.232507,0.02736 0.213757,0.08425 -0.02988,0.09076 -0.234162,0.131812 -0.371037,0.07456 z m -1.954638,-0.875866 c -0.194906,-0.08234 -0.06124,-0.165075 0.235894,-0.146009 0.176106,0.0113 0.320165,0.05087 0.320165,0.08794 0,0.07277 -0.417962,0.116415 -0.556059,0.05806 z m 0.219055,-0.630976 c -0.02629,-0.04252 0.135423,-0.0674 0.438112,-0.0674 0.302664,0 0.464376,0.02488 0.438112,0.0674 -0.02293,0.03707 -0.220075,0.0674 -0.438112,0.0674 -0.218062,0 -0.41521,-0.03033 -0.438112,-0.0674 z m 1.516527,18.00177 c 0,-0.08555 -0.56393,-0.293282 -0.716447,-0.263911 -0.166501,0.03207 -0.200332,0.238452 -0.04568,0.278536 0.224584,0.0582 0.762123,0.04789 0.762123,-0.01463 z M 51.89043,43.197006 c 0,-0.137543 -0.530152,-0.592388 -0.661065,-0.567175 -0.159089,0.03064 -0.181074,0.242316 -0.04119,0.396861 0.188435,0.208216 0.702257,0.33283 0.702257,0.170314 z m -0.515249,-0.930668 c 0.11405,-0.18196 -0.120826,-0.391504 -0.438825,-0.391504 -0.285621,0 -0.294155,0.01055 -0.180742,0.223485 0.168514,0.316423 0.474566,0.399413 0.619567,0.168019 z m 0.144543,-0.814927 c 0.376871,-0.117941 0.598168,-0.252274 0.529209,-0.321242 -0.032,-0.03199 -0.323986,-0.0634 -0.648914,-0.0698 -0.531807,-0.01048 -0.738788,-0.06827 -0.630878,-0.176169 0.02089,-0.02093 0.259025,-0.05309 0.529107,-0.07149 0.270081,-0.0184 0.528979,-0.06363 0.575318,-0.100528 0.200001,-0.159237 -0.0025,-0.657191 -0.265471,-0.657191 -0.07693,0 -0.243843,0.06425 -0.37091,0.142781 l -0.231003,0.142782 -0.159497,-0.149843 c -0.08773,-0.08241 -0.192078,-0.12971 -0.231895,-0.105102 -0.118049,0.07295 -0.09176,1.124972 0.03253,1.302415 0.122177,0.174437 0.443029,0.197749 0.872403,0.06339 z m 0.168489,-1.733425 c 0,-0.08783 -0.174272,-0.126493 -0.275712,-0.06117 -0.08172,0.05262 -0.08172,0.06971 0,0.122332 0.10144,0.06533 0.275712,0.02667 0.275712,-0.06117 z m -0.886898,-0.07535 c 0.0617,-0.0988 0.06758,-0.164324 0.01911,-0.212828 -0.09329,-0.0933 -0.278004,0.05887 -0.278004,0.229028 0,0.169874 0.148542,0.160582 0.258924,-0.0162 z m 1.662013,-0.66229 c 0,-0.167921 -0.392029,-0.335561 -0.89375,-0.382192 -0.390602,-0.0363 -0.515504,-0.02346 -0.653907,0.06722 -0.425451,0.278768 -0.100268,0.443587 0.839947,0.425733 0.56574,-0.01074 0.70771,-0.03296 0.70771,-0.110762 z m -0.775115,-0.68712 c 0,-0.103426 -0.205733,-0.148915 -0.290411,-0.06422 -0.06063,0.06061 -0.05704,0.09283 0.01528,0.137517 0.106662,0.06593 0.275151,0.02105 0.275151,-0.0733 z m 21.70327,14.773487 c -0.96345,-0.1829 -2.349343,-0.919714 -2.91656,-1.550572 -0.160414,-0.178423 -0.386577,-0.50251 -0.502614,-0.720192 -0.350351,-0.65734 -0.455816,-1.139352 -0.991521,-4.53226 -0.185328,-1.173637 -0.29683,-1.394352 -0.846367,-1.675167 -0.418369,-0.21379 -0.433323,-0.242832 -0.241907,-0.470291 0.09367,-0.111333 0.243741,-0.350754 0.333462,-0.532045 0.152924,-0.30897 0.165407,-0.420417 0.19939,-1.778754 0.01987,-0.797022 0.08249,-1.767604 0.138989,-2.156847 0.268426,-1.849228 0.324444,-2.165208 0.487889,-2.752546 0.503607,-1.809666 1.285167,-3.309177 2.27437,-4.363646 0.617631,-0.658375 1.081829,-0.960608 1.737851,-1.131479 1.656587,-0.431485 3.991459,0.132511 5.113589,1.235196 0.589074,0.57889 1.107685,1.584878 1.478111,2.867283 0.542558,1.878313 0.676426,3.025429 0.676477,5.796528 7.7e-5,2.859361 -0.136518,4.173389 -0.641016,6.167236 -0.463969,1.833549 -0.683509,2.398435 -1.287766,3.313347 -0.431386,0.653166 -1.501802,1.581651 -2.181515,1.892265 -0.619797,0.283243 -1.119582,0.400021 -1.816949,0.424539 -0.390831,0.01374 -0.84708,-9.17e-4 -1.013913,-0.0326 z m 1.729341,-0.405597 c 0.934408,-0.224025 1.87768,-0.770429 2.519792,-1.459601 1.230524,-1.320702 2.041125,-4.07722 2.346489,-7.979578 0.06723,-0.859123 -0.01146,-3.873661 -0.129232,-4.952199 -0.174272,-1.595683 -0.715021,-3.509188 -1.278034,-4.522392 -0.182322,-0.328121 -0.616842,-0.897266 -0.809812,-1.06071 -0.249319,-0.211177 -0.953742,-0.564444 -1.480276,-0.742356 -0.774453,-0.261687 -1.3366,-0.335384 -2.284433,-0.299486 -0.768695,0.02911 -0.891508,0.0517 -1.287842,0.236844 -0.456887,0.213432 -1.177741,0.879374 -1.74748,1.614349 -0.389481,0.502442 -1.09556,1.952628 -1.37764,2.829418 -0.461752,1.435375 -0.768976,3.530024 -0.83954,5.723923 l -0.04573,1.421423 -0.219056,0.352345 c -0.255943,0.411678 -0.263305,0.455065 -0.08664,0.51113 0.250237,0.07942 0.652761,0.619845 0.765511,1.027753 0.05905,0.213642 0.215362,1.116376 0.347371,2.006076 0.30246,2.038501 0.347779,2.27512 0.523019,2.729759 0.381354,0.989427 0.839311,1.503475 1.745442,1.959174 1.422934,0.715623 2.249253,0.865173 3.338087,0.604128 z m -0.57896,-9.025317 c -0.04394,-0.08211 -0.07197,-0.645026 -0.07197,-1.445761 0,-1.172354 0.01325,-1.327503 0.123883,-1.464287 0.209579,-0.258822 0.280526,-0.112111 0.280526,0.580148 0,0.349985 0.02553,0.636336 0.05671,0.636336 0.03121,0 0.240429,-0.189567 0.464988,-0.421259 0.90264,-0.931388 1.013684,-1.023011 1.126434,-0.929419 0.178195,0.147879 0.115859,0.290006 -0.341155,0.777765 -0.243129,0.259496 -0.502028,0.536405 -0.575343,0.615354 l -0.133283,0.143543 0.434214,0.242825 c 0.473827,0.264973 0.854672,0.645605 0.854672,0.854165 0,0.188839 -0.212662,0.168049 -0.408001,-0.03988 -0.234162,-0.249257 -0.800768,-0.555991 -1.121875,-0.607337 -0.237576,-0.03799 -0.287863,-0.02421 -0.352568,0.0967 -0.0415,0.07755 -0.05903,0.209873 -0.03893,0.294043 0.05019,0.210323 -0.05128,0.743182 -0.147625,0.775299 -0.04331,0.01443 -0.111095,-0.03427 -0.150682,-0.108225 z M 71.813994,43.4891 c -0.295684,-0.25962 -0.399187,-0.5716 -0.365433,-1.10164 0.02216,-0.35009 0.07431,-0.494968 0.321464,-0.895516 0.387366,-0.627751 0.847846,-0.929193 1.419444,-0.929193 0.663715,0 1.010118,0.368566 1.010577,1.07521 0,0.731242 -0.529642,1.526061 -1.242778,1.863437 -0.542227,0.256526 -0.840764,0.253315 -1.143274,-0.0123 z m 1.051668,-0.363202 c 0.292575,-0.122245 0.745131,-0.570874 0.895482,-0.88769 0.06384,-0.134543 0.113821,-0.396598 0.112369,-0.589288 -0.0036,-0.460834 -0.202625,-0.650306 -0.683611,-0.650306 -0.419362,0 -0.652022,0.08924 -0.933313,0.357992 -0.324571,0.310083 -0.482769,0.657149 -0.482769,1.059185 0,0.424348 0.08335,0.588839 0.359167,0.708817 0.276552,0.12029 0.447156,0.12059 0.732675,0.0013 z"
         id="path1044" />
      <path
         style="vector-effect:non-scaling-stroke;fill:none;stroke:#ff0000;stroke-width:0.0674014;stroke-dasharray:none;stroke-opacity:1;-inkscape-stroke:hairline"
         d="m 46.268684,64.945544 c -0.0737,-0.04483 -0.257369,-0.05863 -0.456835,-0.03433 -0.261752,0.03188 -0.341997,0.01872 -0.372617,-0.06109 -0.02242,-0.05816 -0.122303,-0.101717 -0.233475,-0.101717 -0.121411,0 -0.22601,-0.05061 -0.27859,-0.134804 -0.04631,-0.07414 -0.140288,-0.134801 -0.20884,-0.134801 -0.129182,0 -0.37598,-0.246265 -0.379903,-0.379087 -0.0025,-0.04168 -0.107069,-0.190222 -0.235181,-0.330092 -0.407975,-0.445411 -0.453422,-0.610351 -0.413274,-1.499854 0.05722,-1.267006 0.114381,-1.931057 0.172437,-2.003474 0.02978,-0.03712 0.07495,-0.193693 0.10037,-0.347942 0.02548,-0.154251 0.104675,-0.333352 0.176106,-0.398004 0.07146,-0.06465 0.129895,-0.193653 0.129895,-0.286663 0,-0.254711 0.198141,-0.652246 0.361179,-0.724643 0.115017,-0.05108 0.141333,-0.11528 0.129512,-0.316142 -0.0082,-0.138625 0.0107,-0.252045 0.04193,-0.252045 0.03123,0 0.07553,-0.117384 0.09849,-0.260852 0.02293,-0.143468 0.0805,-0.293042 0.127908,-0.332387 0.04741,-0.03934 0.191747,-0.285751 0.32075,-0.547576 0.156898,-0.318415 0.273623,-0.476171 0.352518,-0.476431 0.09232,-2.55e-4 0.117947,-0.05812 0.117947,-0.266018 0,-0.146094 0.02713,-0.282394 0.0603,-0.302883 0.03314,-0.02048 0.07515,-0.151186 0.09337,-0.290435 0.04264,-0.326534 0.193887,-0.718939 0.338811,-0.879075 0.06279,-0.06938 0.114152,-0.173109 0.114152,-0.230527 0,-0.05742 0.0455,-0.14215 0.101109,-0.1883 0.05561,-0.04615 0.101082,-0.126339 0.101082,-0.1782 0,-0.05186 0.07525,-0.128578 0.167216,-0.170481 0.09196,-0.0419 0.184996,-0.132244 0.206751,-0.200758 0.02165,-0.06852 0.08157,-0.124576 0.132952,-0.124576 0.05136,0 0.153714,-0.13633 0.227412,-0.302954 0.08669,-0.195983 0.200841,-0.331901 0.323297,-0.384933 0.104115,-0.04509 0.275049,-0.151406 0.379826,-0.236259 0.104803,-0.08485 0.229144,-0.154277 0.276349,-0.154277 0.0472,0 0.211439,-0.09099 0.364948,-0.202204 0.153536,-0.111215 0.30837,-0.202205 0.34406,-0.202205 0.03571,0 0.138658,-0.06824 0.228762,-0.151655 0.283786,-0.262676 0.659664,-0.461329 0.792896,-0.419042 0.124953,0.03966 0.53224,-0.152355 0.53224,-0.250922 0,-0.05881 0.402218,-0.288046 0.510358,-0.290861 0.119654,-0.0031 0.729057,-0.328563 0.840661,-0.448953 0.05727,-0.06177 0.212814,-0.132692 0.345664,-0.157617 0.254873,-0.04782 0.326075,-0.137962 0.478795,-0.606302 0.07354,-0.225489 0.07204,-0.334255 -0.0092,-0.664686 -0.05345,-0.217295 -0.168412,-0.471952 -0.255485,-0.565904 -0.08707,-0.09395 -0.158299,-0.225267 -0.158299,-0.291806 0,-0.06654 -0.03034,-0.139728 -0.06741,-0.16264 -0.03706,-0.0229 -0.06741,-0.08171 -0.06741,-0.130659 0,-0.0917 -1.102921,-1.251072 -1.190146,-1.251072 -0.05408,0 -1.062417,-1.028046 -1.640716,-1.672806 -0.203898,-0.227317 -0.405122,-0.414055 -0.447206,-0.414972 -0.04206,-9.17e-4 -0.09726,-0.168009 -0.12266,-0.371314 -0.02548,-0.203305 -0.07439,-0.387079 -0.108878,-0.408387 -0.03447,-0.02131 -0.06267,-0.0066 -0.06267,0.03264 0,0.03926 -0.04433,0.07138 -0.09851,0.07138 -0.05958,0 -0.127169,-0.113201 -0.171011,-0.286456 -0.03989,-0.157551 -0.116903,-0.428643 -0.171113,-0.602428 -0.05421,-0.173784 -0.09859,-0.437457 -0.09859,-0.585941 0,-0.19856 -0.03775,-0.296413 -0.142734,-0.369941 -0.136697,-0.09575 -0.142403,-0.150044 -0.135143,-1.286277 0.0059,-0.931091 0.0293,-1.219488 0.108624,-1.340551 0.05558,-0.08484 0.115272,-0.303911 0.132621,-0.486834 0.08651,-0.912121 0.125385,-1.149617 0.203338,-1.242509 0.04667,-0.05561 0.104089,-0.295147 0.127602,-0.532313 0.02344,-0.237167 0.07102,-0.465323 0.105617,-0.507014 0.03462,-0.04169 0.0763,-0.408763 0.09263,-0.815716 0.02761,-0.687564 0.0632,-0.927559 0.237882,-1.604622 0.07298,-0.282842 0.141588,-0.391097 0.153255,-0.241799 0.01401,0.180167 0.211159,-0.645857 0.242595,-1.016639 0.01732,-0.20389 0.05908,-0.399523 0.09288,-0.43474 0.03381,-0.03522 0.06147,-0.165075 0.06147,-0.288572 0,-0.133176 0.03946,-0.239683 0.09698,-0.261756 0.05334,-0.02047 0.11596,-0.123579 0.139142,-0.229133 0.02318,-0.105554 0.0857,-0.228056 0.138912,-0.272228 0.05322,-0.04417 0.09678,-0.134932 0.09678,-0.20169 0,-0.06676 0.07581,-0.211494 0.168489,-0.321634 0.09268,-0.110141 0.168515,-0.23425 0.168515,-0.275798 0,-0.0681 0.360388,-0.749921 0.484169,-0.91602 0.07867,-0.105581 0.637145,-0.78701 0.828561,-1.011022 0.09505,-0.111213 0.224023,-0.278031 0.28664,-0.370708 0.154019,-0.227952 0.229628,-0.301088 0.412306,-0.398866 0.184487,-0.09873 0.335806,-0.222302 0.684578,-0.559029 0.142505,-0.137598 0.337589,-0.269876 0.433501,-0.29395 0.09594,-0.02407 0.235513,-0.129598 0.31023,-0.234496 0.07469,-0.104899 0.203261,-0.211169 0.285697,-0.236158 0.08244,-0.02499 0.210573,-0.09803 0.284704,-0.162315 0.07413,-0.06428 0.286461,-0.184467 0.471814,-0.267071 0.185353,-0.0826 0.412841,-0.189425 0.505518,-0.23738 0.09268,-0.04795 0.288398,-0.108803 0.434953,-0.135218 0.14658,-0.02642 0.374221,-0.102992 0.505899,-0.170171 0.131678,-0.06718 0.37575,-0.15846 0.542354,-0.202847 0.166604,-0.04439 0.348416,-0.120129 0.404027,-0.168313 0.108674,-0.09417 0.51721,-0.146398 1.583933,-0.202479 0.370706,-0.01949 0.96406,-0.05387 1.318589,-0.0764 0.550633,-0.03499 0.661116,-0.02439 0.758251,0.07274 0.06254,0.06254 0.113719,0.157035 0.113719,0.209993 0,0.05296 0.02267,0.09861 0.05054,0.101445 0.02779,0.0028 0.111222,0.02066 0.185353,0.03961 0.07413,0.01895 0.374807,0.06555 0.668172,0.103564 0.354046,0.04588 0.578936,0.111586 0.668963,0.195455 0.07459,0.06949 0.244046,0.144537 0.376565,0.166771 0.387264,0.06497 0.476858,0.100104 0.476858,0.186985 0,0.04502 0.136468,0.122146 0.303301,0.171401 0.166807,0.04926 0.3033,0.130637 0.3033,0.180847 0,0.05021 0.06825,0.127172 0.15165,0.171026 0.0834,0.04385 0.228838,0.158661 0.323171,0.255127 0.09431,0.09647 0.283888,0.227981 0.421247,0.292255 0.137359,0.06427 0.250415,0.155266 0.251205,0.202204 0,0.07913 0.269394,0.339486 0.89077,0.86522 0.13853,0.117215 0.235308,0.239923 0.215056,0.272683 -0.02038,0.03276 -0.0084,0.05956 0.02654,0.05956 0.108827,0 1.023034,0.931496 1.023034,1.042385 0,0.107595 0.01427,0.141038 0.260477,0.608951 0.07803,0.148284 0.190983,0.375764 0.251001,0.505512 0.18408,0.397835 0.542685,0.787116 0.766301,0.831836 0.147473,0.02949 0.205045,0.07935 0.205045,0.177501 0,0.09155 0.04438,0.136488 0.134812,0.136488 0.08906,0 0.134811,-0.04493 0.134811,-0.132432 0,-0.07284 0.06825,-0.16859 0.15165,-0.212785 0.0834,-0.04419 0.197148,-0.131506 0.252759,-0.194026 0.05559,-0.06252 0.134786,-0.102135 0.175953,-0.08803 0.04119,0.0141 0.120673,-0.04372 0.176666,-0.128502 0.26705,-0.4044 1.156877,-1.131464 1.384772,-1.131464 0.03964,0 0.16989,-0.08229 0.289417,-0.182861 0.119527,-0.100574 0.250746,-0.191418 0.291633,-0.201878 0.04086,-0.01046 0.271457,-0.06594 0.512421,-0.123287 0.48985,-0.116585 0.530889,-0.128031 0.674006,-0.187971 0.404536,-0.169425 2.276968,-0.210711 2.628645,-0.05796 0.0927,0.04025 0.393378,0.108613 0.668198,0.151913 0.381507,0.06011 0.540647,0.119703 0.672936,0.252009 0.0953,0.09531 0.258618,0.182625 0.362937,0.194044 0.104292,0.01142 0.323017,0.08152 0.486029,0.155778 0.163012,0.07426 0.331271,0.135017 0.373916,0.135017 0.126685,0 0.469063,0.225014 0.469063,0.308263 0,0.04235 0.128902,0.104186 0.286462,0.137422 0.157535,0.03324 0.290232,0.09821 0.294868,0.14438 0.0046,0.04617 0.01223,0.116071 0.01681,0.155329 0.0046,0.03926 0.0322,0.05669 0.06124,0.03874 0.02907,-0.01795 0.127628,0.06225 0.219056,0.178221 0.09143,0.115975 0.234493,0.270832 0.317897,0.344127 0.0834,0.0733 0.15165,0.16112 0.15165,0.195168 0,0.06784 0.392207,0.452716 0.462084,0.453458 0.02395,2.53e-4 0.118992,0.113993 0.211337,0.252755 0.09234,0.138763 0.185557,0.267461 0.207108,0.285996 0.0723,0.06212 0.154503,0.301675 0.163216,0.475638 0.0048,0.09478 0.07515,0.238853 0.156465,0.320157 0.0965,0.09649 0.147829,0.230688 0.147829,0.386416 0,0.131225 0.05655,0.351122 0.125691,0.488661 0.06914,0.137539 0.147676,0.371393 0.174526,0.519676 0.02688,0.148284 0.07974,0.306973 0.117464,0.352643 0.03773,0.04567 0.08371,0.195105 0.102178,0.332076 0.0186,0.136972 0.07586,0.291339 0.127551,0.343037 0.05171,0.0517 0.09507,0.129744 0.09634,0.173435 0,0.04369 0.04947,0.322083 0.10707,0.61865 0.0576,0.296566 0.133028,0.842518 0.167623,1.213226 0.03462,0.370708 0.07668,0.810503 0.09349,0.977322 0.01681,0.166818 0.0282,0.363968 0.02522,0.438109 -0.0061,0.158155 -0.0064,0.8957 0,2.527556 0.0082,2.463934 -0.02242,3.185931 -0.145078,3.430981 -0.136645,0.273037 -0.141027,0.362501 -0.03253,0.662556 0.05987,0.165516 0.06185,0.240294 0.0074,0.274391 -0.07329,0.04586 -0.254567,0.877601 -0.329539,1.512048 -0.02089,0.175642 -0.07777,0.359392 -0.126711,0.408337 -0.04894,0.04894 -0.111323,0.223705 -0.138632,0.388362 -0.02728,0.164657 -0.0792,0.355615 -0.115324,0.424345 -0.03615,0.06873 -0.09189,0.341708 -0.123883,0.606613 -0.07938,0.657464 -0.136951,0.919758 -0.201886,0.919758 -0.03014,0 -0.06868,-0.05308 -0.08562,-0.117953 -0.02756,-0.105465 -0.03166,-0.105944 -0.03864,-0.0045 -0.0043,0.06237 -0.06738,0.132315 -0.140186,0.155421 -0.103834,0.03295 -0.124189,0.08289 -0.09446,0.231617 0.02767,0.138309 2.55e-4,0.22464 -0.101057,0.3191 -0.07645,0.07122 -0.18385,0.236842 -0.238672,0.368051 -0.05482,0.13121 -0.146937,0.277775 -0.204663,0.3257 -0.05775,0.04793 -0.105006,0.122755 -0.105006,0.166281 0,0.105362 -0.186066,0.351398 -0.45495,0.601569 -0.120495,0.112093 -0.219056,0.245888 -0.219056,0.297321 0,0.09587 -0.157509,0.286093 -0.236914,0.286093 -0.02445,0 -0.200918,0.159236 -0.392359,0.353857 -0.427413,0.434526 -0.624204,0.589763 -0.747628,0.589763 -0.0521,0 -0.104828,0.02405 -0.117183,0.05342 -0.01223,0.02938 -0.136213,0.122848 -0.275227,0.207702 -0.139015,0.08485 -0.252734,0.177914 -0.252734,0.2068 0,0.02889 -0.21233,0.119526 -0.471814,0.201425 -0.25951,0.0819 -0.471815,0.173433 -0.471815,0.203411 0,0.06957 -0.298817,0.183578 -0.620612,0.236787 -0.13746,0.02272 -0.334608,0.08549 -0.438111,0.139486 -0.103529,0.05399 -0.244021,0.09835 -0.312242,0.09858 -0.157892,5.09e-4 -0.647742,0.343891 -0.649653,0.455376 0,0.04634 -0.05793,0.08425 -0.127016,0.08425 -0.10493,0 -0.134124,0.07473 -0.177685,0.45496 -0.02868,0.250227 -0.05452,0.621779 -0.05742,0.825667 -0.0053,0.378318 0.18357,1.686634 0.297569,2.060532 0.03472,0.113843 0.06313,0.395154 0.06313,0.625131 0,0.379543 0.01503,0.42383 0.162018,0.479745 0.189276,0.07196 0.219616,0.262505 0.283685,1.782173 0.03421,0.811714 0.02522,0.945186 -0.06718,0.996891 -0.08761,0.04902 -0.09199,0.08321 -0.02445,0.19119 0.0699,0.111948 0.05966,0.147215 -0.06891,0.237277 -0.08307,0.05818 -0.194447,0.187356 -0.247536,0.287051 -0.05309,0.0997 -0.233781,0.326703 -0.401582,0.504465 -0.259025,0.27442 -0.363929,0.335179 -0.695073,0.402542 -0.214496,0.04363 -0.407594,0.103959 -0.429094,0.134052 -0.0214,0.03009 -0.400639,0.06626 -0.84252,0.08038 -0.611899,0.01954 -22.267379,0.02925 -24.730948,0.01108 -0.25951,-0.002 -0.59315,0.0189 -0.741412,0.04624 -0.167164,0.03082 -0.316445,0.02125 -0.392869,-0.02524 z"
         id="path1043" />
    </g>
  </g>
</svg>
