<?xml version="1.0" encoding="UTF-8" standalone="no"?>
<!-- Created with Inkscape (http://www.inkscape.org/) -->

<svg
   width="41.008999mm"
   height="41.008999mm"
   viewBox="0 0 41.008999 41.008999"
   version="1.1"
   id="svg1"
   inkscape:version="1.4.2 (f4327f4, 2025-05-13)"
   sodipodi:docname="344.svg"
   xmlns:inkscape="http://www.inkscape.org/namespaces/inkscape"
   xmlns:sodipodi="http://sodipodi.sourceforge.net/DTD/sodipodi-0.dtd"
   xmlns="http://www.w3.org/2000/svg"
   xmlns:svg="http://www.w3.org/2000/svg">
  <sodipodi:namedview
     id="namedview1"
     pagecolor="#ffffff"
     bordercolor="#000000"
     borderopacity="0.25"
     inkscape:showpageshadow="2"
     inkscape:pageopacity="0.0"
     inkscape:pagecheckerboard="0"
     inkscape:deskcolor="#d1d1d1"
     inkscape:document-units="mm"
     inkscape:zoom="1.4513545"
     inkscape:cx="86.470947"
     inkscape:cy="71.657199"
     inkscape:window-width="1050"
     inkscape:window-height="1081"
     inkscape:window-x="857"
     inkscape:window-y="0"
     inkscape:window-maximized="0"
     inkscape:current-layer="layer1" />
  <defs
     id="defs1" />
  <g
     inkscape:label="Layer 1"
     inkscape:groupmode="layer"
     id="layer1"
     transform="translate(333.37504,1257.5646)">
    <g
       id="g247"
       transform="translate(-375.88128,-1282.0487)">
      <path
         style="vector-effect:non-scaling-stroke;fill:none;stroke:#ff0000;stroke-width:0.0543478;stroke-dasharray:none;stroke-opacity:1;-inkscape-stroke:hairline"
         d="m 65.429217,61.27004 c -1.320002,-0.129323 -2.704131,-0.530226 -4.041915,-1.170712 l -0.795042,-0.380638 -2.211638,0.0057 c -2.507172,0.0065 -2.326405,0.04138 -2.326405,-0.449065 v -0.240339 l -0.475543,-0.03424 c -0.26155,-0.01884 -0.934616,-0.05059 -1.495701,-0.07057 -0.668689,-0.02382 -1.051684,-0.05939 -1.111668,-0.103245 -0.08303,-0.06072 -0.08594,-0.129167 -0.03138,-0.738856 0.03307,-0.36957 0.05608,-0.676359 0.05113,-0.681755 -0.005,-0.0054 -0.594834,-0.109426 -1.310856,-0.23118 -0.716019,-0.121754 -1.333772,-0.253288 -1.372783,-0.292299 -0.08023,-0.08023 -0.03292,-0.249888 0.227412,-0.815531 0.08004,-0.173918 0.136987,-0.341854 0.126542,-0.373191 -0.01046,-0.03134 -0.429346,-0.248155 -0.930885,-0.481818 -0.501541,-0.233661 -0.945467,-0.452703 -0.986504,-0.48676 -0.09463,-0.07854 -0.07659,-0.122744 0.334651,-0.820149 0.186795,-0.316776 0.346983,-0.604973 0.355974,-0.640437 0.0095,-0.03758 -0.22169,-0.154899 -0.554305,-0.281242 -1.174314,-0.446064 -2.772183,-1.368795 -2.771,-1.60019 2.06e-4,-0.05978 0.147003,-0.583504 0.325995,-1.163826 0.178991,-0.580321 0.32544,-1.084683 0.32544,-1.120802 0,-0.03612 -0.08451,-0.137856 -0.187798,-0.226081 -0.103287,-0.08823 -0.806411,-0.759211 -1.562499,-1.491077 -0.756086,-0.731865 -1.515328,-1.465128 -1.687204,-1.629472 -0.285705,-0.273188 -0.312499,-0.318852 -0.312499,-0.532621 0,-0.225525 0.03325,-0.271405 0.937499,-1.293718 0.515627,-0.582945 1.055875,-1.19781 1.200555,-1.366369 0.14468,-0.168557 0.341184,-0.392067 0.436677,-0.496686 0.09549,-0.104618 0.537817,-0.605977 0.982942,-1.11413 0.445128,-0.508152 0.925341,-1.040987 1.067142,-1.184079 l 0.257821,-0.260167 0.143073,-0.82679 c 0.07869,-0.454735 0.204717,-1.09571 0.280055,-1.424389 l 0.136979,-0.597597 0.361911,-0.380664 c 0.199049,-0.209363 1.110402,-1.151042 2.025231,-2.092617 0.914828,-0.941577 1.873039,-1.930505 2.129356,-2.197619 l 0.466033,-0.485661 1.398844,-0.05199 1.398842,-0.05198 0.412977,-0.332467 c 0.977753,-0.787138 2.156255,-1.407212 3.402107,-1.790035 0.696636,-0.214063 0.727216,-0.215643 1.282266,-0.0663 0.281166,0.07565 1.065418,0.27799 1.742783,0.449645 l 1.231571,0.312098 0.64343,-0.253319 c 0.353885,-0.139325 0.814624,-0.314339 1.023862,-0.388917 0.20924,-0.07458 0.693167,-0.247422 1.075394,-0.38409 0.38223,-0.136669 0.765133,-0.24849 0.850898,-0.24849 0.126673,0 0.247008,0.09686 0.641227,0.516168 0.266911,0.283894 0.64216,0.738272 0.833887,1.00973 l 0.348594,0.493561 1.716828,-0.03517 1.716828,-0.03517 0.663833,0.832504 c 0.365108,0.457878 0.839817,1.119088 1.054911,1.469355 0.215094,0.350266 0.419667,0.637631 0.45461,0.638586 0.03494,10e-4 0.132768,0.03843 0.21739,0.08327 0.08462,0.04484 0.349514,0.169691 0.588645,0.277438 2.265665,1.020871 2.767224,1.30483 3.131682,1.773001 0.0994,0.127688 0.197441,0.244433 0.217869,0.259436 0.02044,0.01499 0.135408,0.210655 0.255506,0.434783 0.237412,0.443053 0.619736,1.526214 0.872796,2.472723 0.08791,0.328802 0.244706,0.903531 0.348439,1.277172 0.1982,0.713918 0.785803,3.065924 1.065854,4.266306 0.09066,0.388587 0.262915,1.122281 0.382792,1.630435 0.472003,2.000762 0.600061,2.66342 0.600061,3.105093 v 0.434272 l -1.684783,0.181715 c -0.92663,0.09994 -1.68456,0.19625 -1.684291,0.214013 2.05e-4,0.01777 0.269293,0.850786 0.597826,1.851164 0.328534,1.000375 0.597334,1.872753 0.597334,1.938616 0,0.131924 0.0012,0.131474 -0.760868,0.262077 -3.280482,0.562131 -3.394344,0.582224 -3.416487,0.602923 -0.01087,0.01015 0.05639,0.394106 0.149457,0.853228 0.174212,0.859474 0.200794,1.10161 0.126011,1.14783 -0.02376,0.01469 -0.529504,0.09076 -1.12388,0.169068 -0.594378,0.07831 -1.096704,0.152271 -1.116281,0.164372 -0.01957,0.0121 -0.142731,0.261511 -0.273675,0.554247 -0.527092,1.17836 -0.588004,1.272409 -0.97558,1.506302 -1.528601,0.922468 -3.978529,1.855602 -5.597826,2.132114 -0.451865,0.07716 -1.987085,0.137815 -2.418479,0.09555 z"
         id="path195" />
      <path
         style="fill:#000000;stroke-width:0.205409"
         d="m 65.429217,61.27004 c -1.320002,-0.129323 -2.704131,-0.530226 -4.041915,-1.170712 l -0.795042,-0.380638 -2.211638,0.0057 c -2.507172,0.0065 -2.326405,0.04138 -2.326405,-0.449065 v -0.240339 l -0.475543,-0.03424 c -0.26155,-0.01884 -0.934616,-0.05059 -1.495701,-0.07057 -0.668689,-0.02382 -1.051684,-0.05939 -1.111668,-0.103245 -0.08303,-0.06072 -0.08594,-0.129167 -0.03138,-0.738856 0.03307,-0.36957 0.05608,-0.676359 0.05113,-0.681755 -0.005,-0.0054 -0.594834,-0.109426 -1.310856,-0.23118 -0.716019,-0.121754 -1.333772,-0.253288 -1.372783,-0.292299 -0.08023,-0.08023 -0.03292,-0.249888 0.227412,-0.815531 0.08004,-0.173918 0.136987,-0.341854 0.126542,-0.373191 -0.01046,-0.03134 -0.429346,-0.248155 -0.930885,-0.481818 -0.501541,-0.233661 -0.945467,-0.452703 -0.986504,-0.48676 -0.09463,-0.07854 -0.07659,-0.122744 0.334651,-0.820149 0.186795,-0.316776 0.346983,-0.604973 0.355974,-0.640437 0.0095,-0.03758 -0.22169,-0.154899 -0.554305,-0.281242 -1.174314,-0.446064 -2.772183,-1.368795 -2.771,-1.60019 2.06e-4,-0.05978 0.147003,-0.583504 0.325995,-1.163826 0.178991,-0.580321 0.32544,-1.084683 0.32544,-1.120802 0,-0.03612 -0.08451,-0.137856 -0.187798,-0.226081 -0.103287,-0.08823 -0.806411,-0.759211 -1.562499,-1.491077 -0.756086,-0.731865 -1.515328,-1.465128 -1.687204,-1.629472 -0.285705,-0.273188 -0.312499,-0.318852 -0.312499,-0.532621 0,-0.225525 0.03325,-0.271405 0.937499,-1.293718 0.515627,-0.582945 1.055875,-1.19781 1.200555,-1.366369 0.14468,-0.168557 0.341184,-0.392067 0.436677,-0.496686 0.09549,-0.104618 0.537817,-0.605977 0.982942,-1.11413 0.445128,-0.508152 0.925341,-1.040987 1.067142,-1.184079 l 0.257821,-0.260167 0.143073,-0.82679 c 0.07869,-0.454735 0.204717,-1.09571 0.280055,-1.424389 l 0.136979,-0.597597 0.361911,-0.380664 c 0.199049,-0.209363 1.110402,-1.151042 2.025231,-2.092617 0.914828,-0.941577 1.873039,-1.930505 2.129356,-2.197619 l 0.466033,-0.485661 1.398844,-0.05199 1.398842,-0.05198 0.412977,-0.332467 c 0.977753,-0.787138 2.156255,-1.407212 3.402107,-1.790035 0.696636,-0.214063 0.727216,-0.215643 1.282266,-0.0663 0.281166,0.07565 1.065418,0.27799 1.742783,0.449645 l 1.231571,0.312098 0.64343,-0.253319 c 0.353885,-0.139325 0.814624,-0.314339 1.023862,-0.388917 0.20924,-0.07458 0.693167,-0.247422 1.075394,-0.38409 0.38223,-0.136669 0.765133,-0.24849 0.850898,-0.24849 0.126673,0 0.247008,0.09686 0.641227,0.516168 0.266911,0.283894 0.64216,0.738272 0.833887,1.00973 l 0.348594,0.493561 1.716828,-0.03517 1.716828,-0.03517 0.663833,0.832504 c 0.365108,0.457878 0.839817,1.119088 1.054911,1.469355 0.215094,0.350266 0.419667,0.637631 0.45461,0.638586 0.03494,10e-4 0.132768,0.03843 0.21739,0.08327 0.08462,0.04484 0.349514,0.169691 0.588645,0.277438 2.265665,1.020871 2.767224,1.30483 3.131682,1.773001 0.0994,0.127688 0.197441,0.244433 0.217869,0.259436 0.02044,0.01499 0.135408,0.210655 0.255506,0.434783 0.237412,0.443053 0.619736,1.526214 0.872796,2.472723 0.08791,0.328802 0.244706,0.903531 0.348439,1.277172 0.1982,0.713918 0.785803,3.065924 1.065854,4.266306 0.09066,0.388587 0.262915,1.122281 0.382792,1.630435 0.472003,2.000762 0.600061,2.66342 0.600061,3.105093 v 0.434272 l -1.684783,0.181715 c -0.92663,0.09994 -1.68456,0.19625 -1.684291,0.214013 2.05e-4,0.01777 0.269293,0.850786 0.597826,1.851164 0.328534,1.000375 0.597334,1.872753 0.597334,1.938616 0,0.131924 0.0012,0.131474 -0.760868,0.262077 -3.280482,0.562131 -3.394344,0.582224 -3.416487,0.602923 -0.01087,0.01015 0.05639,0.394106 0.149457,0.853228 0.174212,0.859474 0.200794,1.10161 0.126011,1.14783 -0.02376,0.01469 -0.529504,0.09076 -1.12388,0.169068 -0.594378,0.07831 -1.096704,0.152271 -1.116281,0.164372 -0.01957,0.0121 -0.142731,0.261511 -0.273675,0.554247 -0.527092,1.17836 -0.588004,1.272409 -0.97558,1.506302 -1.528601,0.922468 -3.978529,1.855602 -5.597826,2.132114 -0.451865,0.07716 -1.987085,0.137815 -2.418479,0.09555 z m 1.615672,-0.349491 c 1.763442,-0.167225 4.132216,-0.977825 6.013552,-2.05785 l 0.509659,-0.292582 0.271245,-0.576984 c 0.446748,-0.950309 0.906505,-2.067999 1.34395,-3.2672 0.322977,-0.885403 0.981383,-2.614048 1.219773,-3.202514 0.138359,-0.341546 0.231013,-0.635024 0.205896,-0.652174 -0.02512,-0.01715 -0.198391,-0.14993 -0.385054,-0.295068 -0.186661,-0.145136 -0.350377,-0.252891 -0.363814,-0.239456 -0.01343,0.01343 0.01251,0.129147 0.05767,0.257133 0.04515,0.127987 0.0821,0.241855 0.0821,0.253042 0,0.07822 -0.323863,-0.09391 -1.827829,-0.971505 l -1.699773,-0.991849 -0.22777,-0.543477 c -0.441946,-1.054525 -0.524454,-1.253055 -0.649359,-1.5625 -0.111683,-0.276684 -0.214836,-0.403226 -0.214836,-0.26355 0,0.02692 -0.09463,0.253146 -0.210279,0.502718 -0.115656,0.249572 -0.362792,0.795418 -0.54919,1.212992 -0.186401,0.417574 -0.407387,0.906705 -0.491081,1.086957 -0.159617,0.343771 -0.212502,0.460782 -0.823614,1.822295 -0.589224,1.312745 -0.638436,1.413042 -0.693303,1.413042 -0.06364,0 -2.508794,-0.528002 -2.789598,-0.60238 -0.240666,-0.06375 -0.22905,0.05912 -0.146013,-1.544358 0.117024,-2.259788 0.200118,-4.1311 0.184235,-4.148999 -0.0091,-0.01021 -0.503811,0.35164 -1.099441,0.804113 l -1.082969,0.822676 -1.271656,0.210622 c -0.69941,0.115843 -1.406167,0.230301 -1.570569,0.254354 -0.27532,0.04028 -0.245293,0.04656 0.380434,0.0796 1.104851,0.05834 2.032111,0.357537 2.952692,0.952753 0.440196,0.284613 0.960352,0.713022 0.960352,0.790959 0,0.02848 -0.116169,0.172001 -0.258152,0.31893 l -0.258152,0.267145 -0.217393,-0.197345 c -0.446553,-0.405377 -1.385868,-1.024658 -1.385868,-0.913692 0,0.02174 0.04975,0.120022 0.110547,0.218401 0.190135,0.307647 0.386775,0.954967 0.447637,1.473578 0.07571,0.645157 -0.03869,1.237697 -0.370627,1.919702 -0.304743,0.62613 -0.671031,1.002193 -1.245051,1.278285 -0.384324,0.184854 -0.486788,0.209811 -0.953659,0.232293 -0.838046,0.04035 -1.473923,-0.196393 -2.016328,-0.750716 -0.600167,-0.613356 -0.841582,-1.35994 -0.797068,-2.464977 0.02221,-0.55141 0.05455,-0.74157 0.198775,-1.168829 0.09473,-0.280653 0.164068,-0.518457 0.154073,-0.528452 -0.06148,-0.06148 -1.138252,0.805331 -1.390819,1.119617 -0.09636,0.119914 -0.195239,0.218025 -0.219716,0.218025 -0.02448,0 -0.09969,-0.152853 -0.167147,-0.339672 -0.06745,-0.186822 -0.127631,-0.345626 -0.13373,-0.352899 -0.0061,-0.0073 -0.143726,0.04985 -0.305837,0.126955 -0.869294,0.413429 -0.874415,0.416574 -0.847303,0.520248 0.207716,0.794304 0.269374,1.138334 0.213952,1.193755 -0.03363,0.03363 -0.813101,0.15029 -1.732151,0.259235 -1.119251,0.132676 -1.678332,0.220075 -1.693203,0.264694 -0.03257,0.09771 0.171717,0.402811 0.365778,0.546285 0.215538,0.159355 0.561498,0.281398 0.797677,0.281398 0.101608,0 0.323908,-0.04891 0.494001,-0.108694 0.170091,-0.05978 0.383474,-0.108458 0.474185,-0.108164 0.191638,6.16e-4 0.67435,0.21274 0.782995,0.344081 0.107817,0.130338 -0.01617,0.11835 -0.246173,-0.0238 -0.267527,-0.16534 -0.758142,-0.198828 -1.028812,-0.07022 -0.309465,0.14704 -0.741582,0.127277 -1.089706,-0.04983 -0.291395,-0.148252 -0.654599,-0.520692 -0.705483,-0.723422 -0.02583,-0.102917 -0.05852,-0.114812 -0.256143,-0.0932 -0.388267,0.04247 -0.4711,0.07141 -0.4711,0.164593 0,0.168187 0.498672,1.074509 0.79009,1.435965 0.536432,0.66536 1.167551,1.019499 1.900128,1.066219 0.42096,0.02685 0.690557,-0.03181 1.277175,-0.277877 0.0556,-0.02332 0.306164,0.184121 0.788043,0.652429 2.257461,2.193889 4.522316,3.683725 6.766303,4.45092 1.525876,0.521682 2.796255,0.695924 4.142847,0.568227 z m -0.06676,-1.092296 c -0.343378,-0.127682 -1.300712,-0.164212 -2.146739,-0.08191 -0.563067,0.05477 -0.756203,0.0012 -1.089543,-0.301723 -0.887186,-0.806471 -0.520936,-2.289364 0.609013,-2.465794 0.261388,-0.04082 1.200105,0.09798 1.709859,0.252815 0.358547,0.108906 0.453756,0.114314 1.375411,0.07815 1.09512,-0.04298 1.36472,-0.0052 1.593155,0.223235 0.12713,0.127129 0.134504,0.163201 0.107561,0.526114 -0.05382,0.724806 -0.467376,1.524787 -0.907876,1.75617 -0.316131,0.166056 -0.824929,0.171325 -1.250841,0.01296 z m 1.005437,-0.05395 c 0.222947,-0.06125 0.679347,-0.471818 0.679347,-0.611131 0,-0.07606 -0.349216,-0.415076 -0.637939,-0.6193 -0.152986,-0.108213 -0.239036,-0.122282 -0.747872,-0.122282 -0.952344,0 -2.143161,-0.155907 -3.196698,-0.418527 -0.686214,-0.171055 -0.687107,-0.170613 -0.688399,0.339921 -0.0014,0.556433 0.263657,0.963732 0.810513,1.245447 0.141492,0.07289 0.252686,0.08754 0.461957,0.06088 1.038604,-0.132314 1.217084,-0.141722 1.685729,-0.08885 0.27063,0.03053 0.614339,0.103565 0.763795,0.162298 0.311084,0.122247 0.558756,0.136927 0.869567,0.05154 z m 0.86218,-1.042032 c 0.150316,-0.393592 0.142112,-0.399865 -0.432633,-0.330803 l -0.276971,0.03328 0.249798,0.224397 c 0.13739,0.123418 0.25795,0.24274 0.267915,0.265159 0.04159,0.09359 0.10831,0.02682 0.191891,-0.192036 z m 0.05819,-0.526728 c 0.116331,-0.04423 0.139407,-0.08764 0.139407,-0.262266 0,-0.46062 -0.442449,-0.60202 -1.534991,-0.490556 -0.693733,0.07077 -1.00517,0.04192 -1.807401,-0.167446 -0.239129,-0.06241 -0.670772,-0.129262 -0.959207,-0.148562 -0.471741,-0.03157 -0.542718,-0.02377 -0.706521,0.07761 -0.26308,0.16282 -0.512352,0.437234 -0.45076,0.496223 0.07513,0.07196 1.481887,0.375102 2.143663,0.461943 0.666988,0.08752 2.969513,0.111492 3.17581,0.03306 z m 2.394843,-1.795553 c -0.490862,-0.075 -1.266919,-0.427439 -1.195531,-0.542947 0.0189,-0.03059 0.174684,0.019 0.369539,0.11764 0.442731,0.224101 0.800965,0.315906 1.235769,0.316695 0.848249,0.0014 1.645006,-0.409462 2.187919,-1.128624 0.159237,-0.210932 0.233708,-0.275024 0.245954,-0.211674 0.02038,0.105468 -0.105011,0.278381 -0.487057,0.671608 -0.364443,0.375112 -0.982178,0.693838 -1.497439,0.772621 -0.427288,0.06533 -0.460987,0.06551 -0.859154,0.0047 z m -2.535924,-0.189177 c -0.04381,-0.04381 0.01686,-0.35357 0.06927,-0.35357 0.0265,0 0.04818,0.0856 0.04818,0.190217 0,0.172102 -0.04546,0.235334 -0.117445,0.163353 z m 2.460089,-0.436354 c -0.84831,-0.237447 -1.46367,-0.8829 -1.644178,-1.724584 -0.149264,-0.695992 0.110552,-2.014936 0.514439,-2.611522 0.05681,-0.08392 0.09191,-0.163978 0.07798,-0.177903 -0.01393,-0.01393 -0.13276,0.0361 -0.264082,0.111172 -0.13132,0.07507 -0.255159,0.13678 -0.275199,0.137139 -0.02005,4.11e-4 -0.05359,-0.159549 -0.07456,-0.355355 -0.04507,-0.420894 -0.07392,-0.387938 0.681648,-0.778842 1.083742,-0.560693 2.545289,-0.803778 3.443243,-0.572687 0.760609,0.195745 1.521358,0.792386 1.949281,1.528782 0.187237,0.322207 0.368348,0.75317 0.368348,0.876499 0,0.07927 -0.573188,0.348183 -0.690269,0.323848 -0.04275,-0.0089 -0.141186,-0.175121 -0.218746,-0.369416 -0.174489,-0.437106 -0.349231,-0.725349 -0.605466,-0.998738 -0.186185,-0.198649 -0.633174,-0.523 -0.720746,-0.523 -0.02202,0 0.0435,0.124127 0.145592,0.275836 0.538815,0.800676 0.601015,2.246762 0.139097,3.233859 -0.600518,1.283275 -1.729033,1.932068 -2.826384,1.624912 z m 1.255861,-0.188126 c 0.504141,-0.189238 1.117538,-0.793149 1.40628,-1.384532 l 0.105085,-0.215223 -0.300803,-0.303977 c -0.377115,-0.381091 -0.767074,-0.61906 -1.342897,-0.819491 -0.385861,-0.134309 -0.531046,-0.156502 -1.020514,-0.155986 -0.622071,6.16e-4 -0.905602,0.04795 -1.350826,0.22534 l -0.291042,0.115957 0.01978,0.575606 c 0.01691,0.492238 0.04122,0.619415 0.167852,0.87808 0.276312,0.564415 0.854213,1.032567 1.427068,1.156053 0.309278,0.06667 0.908181,0.03021 1.180026,-0.07183 z M 71.450681,54.525051 C 71.083915,54.416897 70.77076,54.14456 70.59124,53.777633 c -0.187302,-0.382829 -0.166753,-0.52869 0.08254,-0.585874 0.322998,-0.07409 1.022562,-0.05251 1.348665,0.04161 0.350077,0.101039 0.886162,0.371427 1.011923,0.510393 0.07643,0.08445 0.07165,0.109682 -0.05276,0.278306 -0.18891,0.256053 -0.521708,0.467394 -0.845275,0.536786 -0.329381,0.07064 -0.331906,0.07052 -0.685649,-0.0338 z m 0.942331,-0.20699 c 0.324495,-0.161703 0.53523,-0.369369 0.491217,-0.484063 -0.04046,-0.105433 -0.572103,-0.372639 -0.968814,-0.486931 -0.472297,-0.136067 -1.218959,-0.102162 -1.280475,0.05814 -0.04371,0.113916 0.135976,0.472979 0.331569,0.662555 0.413786,0.401055 0.939024,0.493214 1.426503,0.250294 z m 1.749693,-0.791926 c 0.03503,-0.151738 0.06282,-0.524699 0.06177,-0.828805 -0.0032,-0.931253 -0.177205,-1.481443 -0.615344,-1.945851 l -0.224069,-0.237502 -0.544013,0.0059 c -0.39393,0.0043 -0.701444,0.04575 -1.114665,0.150374 -0.633194,0.160316 -1.304349,0.400558 -1.304349,0.466899 0,0.02366 -0.08648,0.186602 -0.192191,0.362097 -0.185669,0.308258 -0.359899,0.7809 -0.434551,1.178827 l -0.03599,0.19185 0.426263,-0.135365 c 0.7973,-0.253189 1.648199,-0.227377 2.410386,0.07312 0.418722,0.165083 0.985615,0.528757 1.247074,0.800029 0.10301,0.106876 0.202751,0.194319 0.221644,0.194319 0.0189,0 0.06301,-0.124148 0.09803,-0.275885 z m -13.89273,1.711752 c -0.42857,-0.09385 -0.902299,-0.283687 -1.2973,-0.519856 -0.512077,-0.306168 -1.337764,-1.133402 -1.131281,-1.133402 0.01543,0 0.206642,0.177309 0.424918,0.394022 0.458493,0.455205 1.006564,0.798113 1.601747,1.002154 0.710802,0.243679 1.770826,0.237551 2.659957,-0.01536 0.172363,-0.04903 0.157255,0.07598 -0.01719,0.142309 -0.55334,0.21038 -1.597539,0.271025 -2.240843,0.130145 z m 9.825976,-5.347513 c 0,-0.131047 1.05369,-0.51038 1.664207,-0.599123 0.421933,-0.06133 1.048977,-0.05538 0.890142,0.0084 -0.04484,0.01801 -0.301631,0.06158 -0.570651,0.0968 -0.655705,0.08584 -1.124514,0.204877 -1.542845,0.39174 -0.376359,0.168113 -0.440853,0.183054 -0.440853,0.102133 z M 65.37106,49.380254 C 64.8666,48.948897 64.02592,48.5327 63.327632,48.368611 c -0.215861,-0.05072 -0.403044,-0.123942 -0.415964,-0.162705 -0.06529,-0.195872 1.29025,0.249171 1.909419,0.626888 0.385662,0.235269 0.85269,0.608157 0.85269,0.68081 0,0.08963 -0.08652,0.05152 -0.302717,-0.13335 z m -8.049981,9.394592 c -0.02317,-0.432319 -0.01538,-0.625001 0.02526,-0.625001 0.06147,0 0.113357,0.344171 0.135203,0.896738 l 0.0129,0.326087 0.448369,0.01577 0.448372,0.01578 v -0.409806 c 0,-0.328041 0.01627,-0.409806 0.08152,-0.409806 0.06522,0 0.08152,0.08152 0.08152,0.407608 v 0.40761 h 0.71558 c 0.393567,0 0.705389,-0.01 0.692933,-0.02224 -0.01245,-0.01224 -0.303895,-0.210954 -0.647645,-0.441601 -0.542378,-0.363921 -1.35995,-0.959902 -1.559104,-1.136529 -0.0355,-0.03148 -0.157233,-0.130607 -0.270524,-0.220283 -0.338617,-0.268023 -0.98925,-0.854333 -1.562966,-1.408442 -0.296633,-0.286498 -0.555712,-0.520903 -0.575731,-0.520903 -0.02003,0 -0.18085,0.05016 -0.357406,0.111453 -0.613154,0.21289 -1.620554,0.108115 -2.085128,-0.216863 -0.378752,-0.264944 -0.344311,-0.290169 -0.645956,0.473074 -0.150446,0.380663 -0.281137,0.726905 -0.290426,0.769423 -0.01284,0.05878 0.145929,0.106989 0.662459,0.201167 0.373641,0.06813 0.689051,0.125051 0.700911,0.126501 0.0182,0.0022 -0.03004,0.992808 -0.0649,1.332881 -0.01009,0.09834 0.02918,0.109085 0.464531,0.127103 l 0.475544,0.01968 v -0.295199 c 0,-0.748531 0.07306,-1.616613 0.136059,-1.616613 0.04614,0 0.05973,0.114366 0.04683,0.394022 -0.01,0.216711 -0.02691,0.641622 -0.03758,0.944243 l -0.01941,0.550221 0.325461,0.03402 c 0.594988,0.06219 0.540411,0.148119 0.496174,-0.781199 -0.02601,-0.546329 -0.0204,-0.815218 0.01697,-0.815218 0.07471,0 0.117553,0.341152 0.130465,1.038896 l 0.01068,0.576939 0.466205,0.03522 c 0.533639,0.04032 0.602073,0.09063 0.602073,0.442662 0,0.123817 0.01631,0.241424 0.03623,0.261353 0.01992,0.01993 0.239139,0.03623 0.487138,0.03623 h 0.45091 z m -5.290607,-2.554348 c 0.124636,-0.298913 0.264561,-0.64915 0.310944,-0.778303 l 0.08433,-0.234826 -0.185195,-0.172784 c -0.246901,-0.230354 -0.697,-0.79178 -0.698043,-0.870698 -0.0016,-0.13177 -0.111531,0.120084 -0.292396,0.670743 -0.103087,0.313856 -0.186875,0.631793 -0.186195,0.706521 6.16e-4,0.07473 -0.08606,0.341203 -0.19276,0.592165 -0.1067,0.250962 -0.183309,0.473593 -0.170243,0.494733 0.01306,0.02114 0.214071,0.06844 0.446678,0.105112 0.232608,0.03667 0.459607,0.07272 0.504444,0.08012 0.119072,0.01964 0.130611,0.0016 0.378433,-0.592783 z m 23.640992,0.269691 c 0.994207,-0.121886 0.941879,-0.102357 0.911135,-0.340035 -0.01432,-0.110767 -0.08353,-0.479055 -0.15379,-0.81842 l -0.127742,-0.617026 -0.324568,0.03672 c -0.338009,0.03824 -0.520113,0.10551 -0.520113,0.192125 0,0.02792 -0.13451,0.394659 -0.298911,0.814987 -0.164403,0.420329 -0.298913,0.775704 -0.298913,0.789725 0,0.03802 0.06973,0.03303 0.812902,-0.05808 z m -24.508278,-1.819482 0.222341,-0.7074 -0.190283,-0.474666 -0.190281,-0.474665 -0.246788,-0.01656 c -0.164574,-0.01103 -0.26283,-0.04725 -0.294939,-0.108696 -0.02648,-0.05068 -0.07689,-1.25383 -0.112018,-2.673666 -0.03513,-1.419837 -0.07587,-2.618206 -0.09053,-2.663043 -0.01467,-0.04484 -0.300684,-0.209768 -0.635591,-0.366512 -0.334907,-0.156743 -0.997304,-0.469446 -1.471995,-0.694894 l -0.863071,-0.409909 0.03939,-1.265067 0.03939,-1.265067 -0.745618,-0.645747 -0.745617,-0.645747 -0.197006,0.219924 c -0.717754,0.801255 -2.225829,2.508716 -2.313245,2.619087 l -0.105373,0.133039 0.512981,0.479423 0.51298,0.479423 0.115514,-0.120608 c 0.06353,-0.06633 0.345685,-0.426313 0.627005,-0.799954 0.79231,-1.052331 1.03738,-1.358697 1.086855,-1.358697 0.08865,0 0.04331,0.101877 -0.161064,0.361968 -0.113681,0.144668 -0.508628,0.662323 -0.877661,1.150344 l -0.670971,0.88731 0.400757,0.40345 c 0.220416,0.221898 0.426086,0.403451 0.457043,0.403451 0.05797,0 0.210771,-0.247319 1.032485,-1.671196 0.263065,-0.455842 0.499284,-0.828804 0.524929,-0.828804 0.07311,0 0.05476,0.127247 -0.03729,0.258676 -0.07267,0.10375 -0.542411,0.909235 -0.990148,1.697846 -0.07637,0.13451 -0.196989,0.337187 -0.268044,0.45039 -0.07106,0.113205 -0.112916,0.232162 -0.09302,0.264352 0.01988,0.03219 0.318271,0.33087 0.663063,0.663738 0.344791,0.332867 0.7207,0.695959 0.835353,0.806867 0.114654,0.110909 0.20846,0.230188 0.20846,0.265062 0,0.03488 -0.146738,0.540089 -0.326087,1.122695 -0.179347,0.582603 -0.326087,1.090208 -0.326087,1.12801 0,0.102663 1.26333,0.896711 1.426667,0.896711 0.05252,0 0.104307,-0.05323 0.118975,-0.122282 0.01428,-0.06726 0.09797,-0.427988 0.185959,-0.801632 0.08799,-0.373641 0.189344,-0.813857 0.225225,-0.97826 0.132934,-0.609116 0.226387,-0.882004 0.282745,-0.825646 0.03682,0.03682 -0.05409,0.500152 -0.277175,1.412619 -0.182577,0.746805 -0.331961,1.380112 -0.331961,1.407346 0,0.05877 0.783683,0.387003 0.976336,0.40892 0.1494,0.01701 0.150382,0.01278 0.356103,-1.533673 0.05293,-0.397883 0.122124,-0.71232 0.16701,-0.758929 0.0669,-0.06947 0.07664,-0.0653 0.07664,0.03283 0,0.06183 -0.05092,0.440031 -0.113166,0.84045 -0.173829,1.118282 -0.210643,1.373018 -0.211828,1.465735 -6.16e-4,0.0553 0.09014,0.112926 0.257029,0.163044 0.151505,0.0455 0.26478,0.113634 0.274247,0.164961 0.0089,0.0481 -0.157896,0.385393 -0.370588,0.749552 -0.212695,0.364158 -0.377376,0.690132 -0.365957,0.724384 0.01736,0.05206 1.619112,0.838038 1.737165,0.852417 0.02114,0.0026 0.138479,-0.31365 0.260767,-0.702719 z m 10.446092,-0.133019 c 0.515379,-0.155108 0.930852,-0.479519 1.27163,-0.992923 0.192801,-0.290469 0.455914,-0.907131 0.455914,-1.06854 0,-0.09812 -0.990454,-0.554816 -1.505129,-0.694007 -0.336352,-0.09096 -0.593072,-0.115886 -1.239437,-0.120316 -0.864057,-0.0059 -1.358434,0.08284 -2.001089,0.359303 l -0.267094,0.114902 0.03389,0.288355 c 0.105463,0.897315 0.711147,1.716988 1.500598,2.030752 0.563671,0.224032 1.183355,0.253225 1.750716,0.08247 z M 60.45014,53.455301 c -0.464627,-0.16604 -1.025591,-0.769846 -1.026158,-1.104531 -2.06e-4,-0.162892 0.248824,-0.229703 1.009172,-0.270664 0.674979,-0.03636 1.214862,0.05291 1.766321,0.292072 0.266116,0.115411 0.305349,0.150866 0.279053,0.252176 -0.0553,0.213044 -0.6133,0.715953 -0.904106,0.814845 -0.315765,0.107382 -0.847543,0.114999 -1.124282,0.0161 z m 1.169581,-0.188884 c 0.248592,-0.109965 0.684493,-0.513148 0.684493,-0.633115 0,-0.105318 -0.51378,-0.287285 -1.084696,-0.384173 -0.519227,-0.08812 -0.831167,-0.07885 -1.39875,0.04157 l -0.282357,0.0599 0.110537,0.222994 c 0.350524,0.707139 1.235272,1.018172 1.970773,0.692826 z m 15.005145,1.022198 c 0.388587,-0.06526 0.714865,-0.12623 0.725066,-0.135484 0.01019,-0.0092 -0.03481,-0.281574 -0.100014,-0.605161 -0.220616,-1.094822 -0.256211,-1.32525 -0.209209,-1.354299 0.02578,-0.01594 0.05771,0.0031 0.07094,0.04241 0.03902,0.115758 0.292322,1.297862 0.341371,1.593117 0.04265,0.256772 0.05402,0.271424 0.206317,0.265991 0.243642,-0.0087 0.978514,-0.135396 1.053281,-0.181605 0.04966,-0.03069 0.005,-0.339826 -0.182178,-1.260363 -0.266247,-1.309598 -0.272426,-1.351195 -0.200684,-1.351195 0.06324,0 0.130399,0.271195 0.368,1.486089 0.134812,0.689318 0.225502,1.033808 0.277403,1.053724 0.06756,0.02593 1.421957,-0.179821 1.464625,-0.222489 0.009,-0.009 -0.102769,-0.38121 -0.248346,-0.827159 -0.680498,-2.084555 -0.930707,-2.889671 -0.930707,-2.994793 0,-0.140181 0.05375,-0.154301 0.907485,-0.238385 l 0.662919,-0.06529 -0.02615,-0.142044 c -0.15479,-0.840672 -0.439277,-2.706585 -0.418044,-2.741889 0.07201,-0.119719 0.137835,0.151805 0.34732,1.432615 0.124556,0.761542 0.234234,1.393773 0.243728,1.40496 0.02827,0.03331 1.73088,-0.159634 1.767652,-0.200315 0.03259,-0.03605 -0.03544,-0.364914 -0.389967,-1.885241 -0.09061,-0.388587 -0.202071,-0.877717 -0.247684,-1.086957 -0.04561,-0.20924 -0.103981,-0.432797 -0.129708,-0.496794 l -0.04678,-0.116361 -0.370712,0.09708 c -0.203891,0.0534 -0.835384,0.201812 -1.40332,0.329815 -0.567934,0.128003 -1.040424,0.238244 -1.049977,0.244979 -0.0096,0.0067 -0.09151,0.326443 -0.182133,0.710457 -0.61012,2.585484 -1.112101,4.495813 -1.195064,4.547893 -0.07137,0.0448 -0.152822,0.0094 -0.389845,-0.16959 -0.164796,-0.124422 -0.326983,-0.232963 -0.360413,-0.241202 -0.03343,-0.0082 -0.159556,0.229586 -0.280277,0.528499 -0.378098,0.936206 -1.025985,2.641243 -1.025985,2.700078 0,0.03095 0.05503,0.04306 0.122282,0.02692 0.06726,-0.01615 0.440218,-0.08275 0.828805,-0.148012 z m -24.570453,-1.788987 0.212154,-0.0021 -0.03375,-0.774456 c -0.170239,-3.905988 -0.172698,-4.052974 -0.06598,-3.94626 0.01411,0.01411 0.05112,0.550118 0.08224,1.191122 0.03112,0.641006 0.08139,1.677693 0.111724,2.303753 0.03033,0.626058 0.06058,1.143285 0.06722,1.149394 0.01892,0.0174 1.364152,-0.143384 1.386474,-0.165708 0.02069,-0.02069 -0.348739,-3.258374 -0.401803,-3.521431 -0.02273,-0.112685 -0.009,-0.149458 0.05569,-0.149458 0.04721,0 0.08584,0.02953 0.08584,0.06562 0,0.03609 0.03601,0.36014 0.08003,0.720107 0.185188,1.514477 0.301614,2.513456 0.312213,2.678946 0.01007,0.157082 0.02917,0.176629 0.172702,0.176629 0.254903,0 1.142773,-0.118455 1.187207,-0.158393 0.02211,-0.01986 -0.0076,-0.203156 -0.06595,-0.4073 -0.380412,-1.330231 -0.931683,-4.03325 -1.173149,-5.752241 -0.01995,-0.141983 -0.05269,-0.258152 -0.07278,-0.258152 -0.02009,0 -0.791192,0.256794 -1.71358,0.570653 -0.922385,0.313857 -1.679671,0.570635 -1.682857,0.570616 -0.0049,-3.1e-5 0.167419,5.51695 0.180066,5.764809 0.0039,0.07656 0.05936,0.07817 0.53425,0.01555 0.291439,-0.03844 0.62536,-0.07076 0.742047,-0.07184 z M 63.411262,52.158 c 0.06684,-0.249431 0.0302,-0.896893 -0.07578,-1.338992 -0.108959,-0.454517 -0.415169,-1.119252 -0.587291,-1.274923 -0.283339,-0.256254 -1.736814,-0.43921 -2.484425,-0.312725 -0.442511,0.07487 -1.126951,0.291555 -1.348437,0.426907 -0.169477,0.10357 -0.305043,0.395832 -0.47255,1.018754 -0.13504,0.502182 -0.20075,1.277174 -0.108289,1.277174 0.03683,0 0.315325,-0.08484 0.618885,-0.188523 0.723872,-0.247253 1.428819,-0.328605 2.144479,-0.247475 0.631136,0.07155 1.437743,0.315258 1.885711,0.569754 0.179347,0.101889 0.341577,0.186846 0.360509,0.188791 0.01894,0.0018 0.04917,-0.05149 0.06719,-0.118742 z m 5.118817,-0.108697 c 0.02065,-0.06725 0.105441,-0.269022 0.188432,-0.448369 0.216526,-0.467916 0.441521,-0.964422 0.677271,-1.494567 0.112987,-0.254074 0.290954,-0.645379 0.39548,-0.869564 0.514811,-1.104129 0.884977,-1.980415 0.861941,-2.040448 -0.03911,-0.101926 -1.175375,-0.468684 -1.204027,-0.38863 -0.01278,0.03572 -0.108368,0.358427 -0.212405,0.717122 -0.27129,0.935333 -0.733804,2.401159 -1.113503,3.52898 -0.180468,0.536048 -0.322414,0.978551 -0.315438,0.983339 0.02668,0.0183 0.506177,0.121678 0.593264,0.127893 0.05097,0.0036 0.108062,-0.0476 0.128985,-0.115756 z m -0.514461,-1.103967 c 0.476783,-1.410333 1.242359,-3.908189 1.25848,-4.106058 0.01358,-0.16664 0.0055,-0.172582 -0.475319,-0.350452 -0.269022,-0.09952 -0.526953,-0.182258 -0.573178,-0.183872 -0.061,-0.0021 -0.110403,0.112593 -0.180133,0.418262 -0.05285,0.231658 -0.288167,1.203804 -0.522933,2.160326 -0.502519,2.04744 -0.667093,2.742797 -0.674707,2.850758 -0.0038,0.05453 0.112307,0.106449 0.374863,0.167544 0.209238,0.04869 0.399096,0.07273 0.421902,0.05343 0.02281,-0.01931 0.189768,-0.473774 0.371025,-1.009935 z m -1.313082,0.723533 c 0.02649,-0.06726 0.125994,-0.464674 0.221114,-0.883152 0.187995,-0.827053 0.801848,-3.368179 0.98809,-4.090328 0.06369,-0.246963 0.105519,-0.459307 0.09295,-0.471876 -0.03743,-0.03743 -1.702279,-0.622589 -1.720242,-0.604628 -0.02935,0.02935 -0.06516,0.618762 -0.152142,2.503787 -0.04689,1.016305 -0.105129,2.214674 -0.129412,2.663045 -0.02428,0.448369 -0.03676,0.823549 -0.02772,0.833731 0.01454,0.01639 0.52915,0.150195 0.637269,0.165693 0.02306,0.0033 0.0636,-0.04902 0.09009,-0.116272 z M 77.60272,51.016695 c 0.01586,-0.06726 0.244772,-1.002719 0.508692,-2.078806 0.520656,-2.12289 0.716779,-2.957734 0.715415,-3.045345 -4.11e-4,-0.03092 -0.08036,-0.102578 -0.177504,-0.159238 -0.178745,-0.104253 -1.419098,-0.898449 -2.392043,-1.531616 -0.291845,-0.189928 -0.545248,-0.345322 -0.563114,-0.345322 -0.01787,0 -0.01814,0.07948 -6.16e-4,0.176632 0.188191,1.042303 0.357627,3.033459 0.397704,4.673671 l 0.03419,1.399216 0.254457,0.163283 c 0.139952,0.08981 0.267198,0.163284 0.282772,0.163284 0.02893,0 0.0537,-0.141165 0.29079,-1.657608 0.352821,-2.256641 0.369069,-2.338451 0.453975,-2.285975 0.04366,0.02698 -0.02801,0.548937 -0.343699,2.503368 -0.106223,0.657607 -0.206806,1.281249 -0.22352,1.385868 -0.02879,0.180238 -0.01243,0.205044 0.311901,0.472817 0.188258,0.155429 0.360165,0.283824 0.382014,0.285326 0.02185,0.0014 0.0527,-0.0523 0.06856,-0.119555 z M 55.994352,50.405622 c 0.331839,-0.164215 0.603344,-0.312729 0.603344,-0.330031 0,-0.0173 -0.06029,-0.402647 -0.133982,-0.85632 -0.129387,-0.796568 -0.396058,-2.688057 -0.523571,-3.713679 l -0.06186,-0.497515 -0.740841,0.252951 -0.740839,0.252949 0.01432,0.244566 c 0.04593,0.784755 0.854042,4.945651 0.960524,4.945651 0.01076,0 0.291069,-0.134358 0.622905,-0.298572 z m 19.769267,0.121943 C 75.690989,50.350825 75.239,48.915691 75.239,48.861812 c 0,-0.03366 0.110929,-0.115097 0.246509,-0.180967 l 0.24651,-0.119764 -0.01553,-0.460655 -0.01553,-0.460654 -0.703574,-0.123817 c -0.386964,-0.0681 -0.71362,-0.11377 -0.725901,-0.101488 -0.01228,0.01228 0.01085,0.5644 0.0514,1.226931 l 0.07373,1.204603 0.298913,0.165765 c 0.164402,0.09117 0.445652,0.259294 0.625001,0.373606 0.33291,0.212194 0.492971,0.263559 0.443096,0.142193 z m -18.04441,-1.061684 c 0.41712,-0.281069 1.06897,-0.599626 1.579851,-0.772071 0.215369,-0.0727 0.38531,-0.138448 0.377647,-0.146109 -0.0077,-0.0077 -0.349759,0.04279 -0.760213,0.112114 -0.712435,0.120333 -0.870723,0.11263 -0.756163,-0.0368 0.02764,-0.03606 0.29877,-0.375157 0.602506,-0.75356 0.303737,-0.378405 0.551898,-0.708567 0.551468,-0.733697 -4.1e-4,-0.02513 -0.25111,-0.207991 -0.557065,-0.406358 L 58.200955,46.368732 57.739,46.443092 c -0.254076,0.0409 -0.639268,0.09056 -0.855978,0.11036 l -0.394022,0.036 -1.11e-4,-0.157302 c -6.2e-5,-0.08651 0.03561,-0.36518 0.07927,-0.619257 0.180637,-1.051247 0.249987,-1.536799 0.223311,-1.563475 -0.01555,-0.01553 -0.102187,0.136523 -0.192547,0.337918 -0.10382,0.231393 -0.203375,0.376396 -0.270478,0.393942 -0.08071,0.02111 -0.100162,0.06227 -0.08107,0.171541 0.01382,0.07907 0.07514,0.547302 0.136287,1.040508 0.103555,0.835302 0.260604,1.943562 0.457571,3.228961 0.04541,0.296309 0.08256,0.562162 0.08256,0.590786 0,0.02862 0.103939,-0.03222 0.230976,-0.135221 0.12704,-0.102996 0.38104,-0.288382 0.56445,-0.411969 z m 18.053006,-0.154445 0.0169,-0.577216 -0.152477,0.03827 c -0.286644,0.07194 -0.292708,0.105673 -0.113283,0.630154 0.09151,0.267484 0.181128,0.486259 0.199156,0.48617 0.01803,-9e-5 0.04039,-0.25991 0.04969,-0.577378 z m -1.538091,0.07483 c -0.01631,-0.186822 -0.05383,-0.716874 -0.08339,-1.177894 -0.02957,-0.461022 -0.0597,-0.841816 -0.06698,-0.84621 -0.427035,-0.257893 -1.088323,-0.678365 -1.214011,-0.771919 -0.0925,-0.06884 -0.180326,-0.125174 -0.195181,-0.125174 -0.01485,0 -0.232628,-0.13451 -0.483944,-0.298913 -0.251316,-0.164402 -0.474323,-0.298914 -0.495572,-0.298914 -0.02125,0 -0.06639,0.09263 -0.10031,0.205851 -0.05657,0.188828 -0.04383,0.248376 0.154111,0.720109 0.118681,0.282842 0.343865,0.832194 0.500411,1.220781 0.156544,0.388587 0.324666,0.738413 0.3736,0.777391 0.131199,0.104508 1.54923,0.932744 1.598638,0.933726 0.02325,4.11e-4 0.02894,-0.152015 0.01263,-0.338834 z M 59.047358,48.502103 c 0.281761,-0.04539 0.646804,-0.105858 0.811208,-0.134369 0.164401,-0.02851 0.536417,-0.09192 0.826701,-0.1409 l 0.527791,-0.08906 0.08113,-0.279287 c 0.114762,-0.395082 0.447289,-1.658142 0.492041,-1.86896 l 0.0375,-0.176631 h -0.653411 c -0.589132,0 -0.660809,0.01056 -0.728623,0.10738 -0.0621,0.08867 -0.242607,0.133 -1.035689,0.254378 -0.528263,0.08085 -0.960435,0.160926 -0.960382,0.177946 8.8e-5,0.02818 0.43019,0.319444 0.567352,0.38421 0.111377,0.05259 0.519509,0.340843 0.519509,0.366918 0,0.01452 -0.240091,0.323084 -0.533536,0.685713 -0.293443,0.362629 -0.55168,0.689895 -0.57386,0.727259 -0.0518,0.08727 -0.0029,0.08612 0.622275,-0.0146 z m 3.637294,-0.593086 c 1.021686,-0.162169 0.77834,-0.03684 2.328868,-1.199382 0.804641,-0.603297 0.870126,-0.665412 0.873743,-0.828805 l 0.0039,-0.176631 h -0.558062 -0.558062 l -0.32509,0.665761 c -0.203158,0.416052 -0.359957,0.672198 -0.418049,0.68292 -0.05113,0.0094 -0.173408,-0.01836 -0.27174,-0.06179 -0.09833,-0.04342 -0.521172,-0.206496 -0.93965,-0.362387 -0.418478,-0.155891 -0.80403,-0.30645 -0.856786,-0.334577 -0.06735,-0.03591 -0.102357,-0.03021 -0.117553,0.01915 -0.01189,0.03865 -0.111046,0.412668 -0.220324,0.831146 -0.109278,0.418478 -0.212021,0.807264 -0.228318,0.863965 -0.0341,0.118647 -0.135948,0.12651 1.287111,-0.09936 z m 12.997826,-0.764601 c -0.02967,-0.754907 -0.34702,-3.436475 -0.434748,-3.67363 -0.03024,-0.08175 -0.05703,0.141479 -0.07933,0.660971 -0.05642,1.314329 -0.247037,2.569325 -0.39912,2.627684 -0.07493,0.02875 -1.444499,-0.461207 -1.865053,-0.66722 l -0.188034,-0.09211 -0.0097,-0.922412 c -0.0082,-0.781713 -0.123366,-1.938787 -0.200631,-2.016051 -0.0121,-0.0121 -0.03763,0.229021 -0.05673,0.53582 -0.04072,0.65408 -0.05328,0.699707 -0.407599,1.481404 -0.148957,0.328624 -0.259609,0.615652 -0.245898,0.63784 0.02393,0.03871 0.673738,0.469171 1.747894,1.157871 0.480138,0.30784 0.541775,0.331444 1.222825,0.468236 0.966565,0.19414 0.931841,0.20166 0.916114,-0.198403 z m -25.292692,-1.593155 0.148126,0.01707 0.01555,0.52989 c 0.0086,0.29144 0.03301,0.530105 0.05435,0.530366 0.02134,2.05e-4 0.790287,-0.250418 1.708775,-0.557066 l 1.669985,-0.557539 -0.01237,-0.516304 -0.01237,-0.516304 h 0.134948 c 0.114783,0 0.140709,0.03249 0.173499,0.21739 0.0212,0.119567 0.03996,0.309104 0.04168,0.421196 0.0024,0.154488 0.02552,0.203805 0.09567,0.203805 0.0509,0 0.39639,-0.101479 0.767761,-0.225507 l 0.675223,-0.225506 -0.03294,-0.304386 c -0.01812,-0.16741 -0.09445,-0.842427 -0.169631,-1.500036 -0.07518,-0.657609 -0.136827,-1.224575 -0.136996,-1.259924 -4.1e-4,-0.0824 0.213082,-0.151687 0.27539,-0.08938 0.05288,0.05288 0.103056,0.397286 0.271796,1.865606 0.06355,0.55299 0.122812,1.01311 0.131698,1.022491 0.0089,0.0094 0.08272,-0.125129 0.164076,-0.298911 0.08136,-0.173784 0.222298,-0.474939 0.313198,-0.669231 0.0909,-0.194295 0.206834,-0.402175 0.257636,-0.461957 0.0508,-0.05978 0.120703,-0.292121 0.155337,-0.516304 0.03463,-0.224186 0.124663,-0.811142 0.200064,-1.304348 0.0754,-0.493208 0.177496,-0.97011 0.226881,-1.059783 0.04938,-0.08967 0.492585,-0.725544 0.984891,-1.413042 0.492306,-0.687501 0.97672,-1.36617 1.076479,-1.508153 0.09976,-0.141985 0.270873,-0.385734 0.38026,-0.541664 0.558669,-0.796389 1.024837,-1.432747 1.075668,-1.468373 0.03133,-0.02196 0.09977,-0.0403 0.152078,-0.04076 0.228534,-0.0021 0.06349,0.29372 -0.97826,1.752836 -1.752623,2.454788 -2.32039,3.255128 -2.375353,3.348365 -0.05795,0.09831 -0.359766,1.868463 -0.324575,1.903654 0.03995,0.03995 2.495073,0.107001 2.530995,0.06913 0.01919,-0.02023 0.08832,-0.281337 0.15364,-0.580248 0.154016,-0.704791 0.162793,-0.733697 0.22276,-0.733697 0.07945,0 0.06107,0.167575 -0.08419,0.767466 -0.07418,0.306347 -0.129206,0.56133 -0.122282,0.566625 0.0069,0.0053 0.379436,0.02514 0.827805,0.0441 l 0.815217,0.03447 0.370114,-0.706328 c 0.283744,-0.541499 0.395115,-0.706328 0.477248,-0.706328 0.05893,0 0.122284,0.03948 0.1408,0.08773 0.01851,0.04825 -0.0084,0.429658 -0.05993,0.847573 -0.05148,0.417915 -0.07999,0.773449 -0.06336,0.790079 0.03978,0.03978 0.996234,0.224582 1.181441,0.228269 0.112484,0.0022 0.156623,-0.03294 0.200977,-0.160171 0.03126,-0.08967 0.08257,-0.163044 0.114012,-0.163044 0.06905,0 0.06865,-0.01212 0.0066,0.204086 -0.04703,0.163964 -0.04042,0.1784 0.09511,0.207985 0.0801,0.01748 0.17975,0.04256 0.221437,0.05574 0.04169,0.01317 0.23734,0.04766 0.434784,0.07665 0.197441,0.02899 0.407899,0.06628 0.467681,0.08287 0.09295,0.0258 0.145475,-0.04696 0.362656,-0.502382 0.13968,-0.292901 0.267523,-0.575901 0.284095,-0.628891 0.04137,-0.13226 0.188732,-0.178913 0.277095,-0.08772 0.07406,0.07643 0.06448,0.518334 -0.05793,2.670475 -0.0303,0.532831 -0.02399,0.692935 0.02732,0.692935 0.0367,0 0.407499,0.122282 0.823997,0.27174 0.416498,0.149456 0.793226,0.271738 0.837171,0.271738 0.04934,0 0.103453,-0.09353 0.141482,-0.244565 0.08512,-0.338052 0.161218,-0.30632 0.144284,0.06017 l -0.01409,0.30473 0.516303,0.183973 c 0.283968,0.101184 0.541371,0.174817 0.572005,0.163627 0.03064,-0.01119 0.124281,-0.273905 0.208098,-0.583812 0.19837,-0.733434 0.18614,-0.699336 0.250801,-0.699336 0.08065,0 0.07371,0.04468 -0.10699,0.688203 -0.08967,0.319358 -0.163043,0.607996 -0.163043,0.641421 0,0.06157 1.045585,0.467704 1.195652,0.464421 0.05099,-10e-4 0.176555,-0.220363 0.335271,-0.585414 0.139563,-0.320996 0.416617,-0.938249 0.615674,-1.371674 0.351149,-0.764574 0.363575,-0.806656 0.417227,-1.413042 0.0682,-0.770827 0.02195,-2.434445 -0.09337,-3.358299 -0.09163,-0.734038 -0.16392,-1.133211 -0.384655,-2.123895 -0.142698,-0.640447 -0.130209,-0.755579 0.07491,-0.690477 0.107201,0.03402 0.151023,0.163984 0.358774,1.063974 0.152966,0.662676 0.318805,1.802982 0.391245,2.690218 0.01953,0.239131 0.09421,0.618206 0.165974,0.842391 0.149129,0.465882 4.11e-4,0.36616 1.395369,0.935955 0.441972,0.180538 0.814648,0.317187 0.82817,0.303664 0.04772,-0.04772 -0.08521,-1.71031 -0.190104,-2.377682 -0.07729,-0.491763 -0.09016,-0.695513 -0.0472,-0.747282 0.0825,-0.0994 0.19602,-0.08869 0.253641,0.02393 0.08681,0.169676 0.52001,1.990993 0.705922,2.967929 l 0.09163,0.481514 1.304347,0.837917 c 0.717392,0.460856 1.436307,0.923355 1.597592,1.027777 0.161286,0.104422 0.302498,0.180606 0.313808,0.169296 0.08487,-0.08487 0.189921,-0.934504 0.192614,-1.557802 0.0052,-1.19554 -0.240224,-2.090984 -1.087249,-3.967392 -0.305336,-0.67641 -0.473835,-1.017969 -1.032222,-2.09239 -0.0466,-0.08967 -0.177906,-0.311708 -0.291781,-0.493407 -0.240076,-0.383061 -0.276791,-0.552341 -0.13885,-0.640209 0.08052,-0.05129 0.115402,-0.0385 0.201356,0.07383 0.05718,0.07473 0.135381,0.19701 0.17378,0.271739 0.0384,0.07473 0.138134,0.254482 0.221632,0.399451 0.652026,1.132053 1.738478,3.525406 2.014753,4.438316 0.337331,1.114656 0.38437,2.227764 0.145486,3.442638 -0.06383,0.324604 -0.107325,0.598913 -0.09666,0.60958 0.0159,0.0159 1.059124,-0.228462 2.500414,-0.585683 0.141982,-0.03519 0.258152,-0.08832 0.258152,-0.118077 0,-0.02975 -0.03645,-0.190209 -0.08101,-0.356572 -0.04456,-0.166365 -0.228576,-0.913892 -0.408933,-1.661174 -0.385857,-1.598755 -0.322788,-1.345512 -0.629388,-2.527175 -0.557889,-2.15014 -1.013174,-3.656426 -1.264882,-4.184783 -0.201299,-0.422541 -0.651977,-0.967567 -1.01324,-1.22536 -0.304912,-0.217579 -0.825928,-0.485145 -1.90146,-0.976484 -1.109205,-0.506724 -1.114102,-0.50781 -0.905242,-0.200847 0.599764,0.88148 0.723683,1.207569 0.458578,1.206733 -0.102557,-4.1e-4 -0.174444,-0.107566 -1.238403,-1.847519 C 74.431355,32.86195 73.791923,31.943818 73.5244,31.66112 73.49308,31.62803 73.362661,31.461536 73.234564,31.291133 l -0.232901,-0.309823 -1.503642,0.03196 c -0.827004,0.01758 -1.514949,0.04194 -1.528762,0.05414 -0.01382,0.0122 0.0071,0.0738 0.04652,0.136882 0.640585,1.025739 1.418819,3.514102 1.418819,4.5366 0,0.21235 -0.01269,0.23506 -0.131368,0.23506 -0.113807,0 -0.139232,-0.03668 -0.190217,-0.274415 -0.03237,-0.150928 -0.05885,-0.320049 -0.05885,-0.375824 0,-0.05578 -0.07575,-0.439763 -0.168339,-0.853305 -0.172303,-0.769596 -0.527596,-1.829566 -0.825285,-2.462125 -0.414454,-0.880673 -1.075132,-1.841014 -1.746906,-2.539249 l -0.438817,-0.456103 -0.923914,0.322338 c -1.181911,0.412351 -2.041123,0.736969 -2.40003,0.90676 -0.155902,0.07375 -0.299686,0.134096 -0.319524,0.134096 -0.05318,0 -1.679598,0.822907 -2.090227,1.057581 -0.364476,0.208295 -0.516306,0.209655 -0.516306,0.0046 0,-0.103691 0.601181,-0.468267 1.521864,-0.922907 0.609568,-0.301009 0.597126,-0.293859 0.565805,-0.325177 -0.01255,-0.01255 -0.414055,-0.124392 -0.892209,-0.248512 -2.185273,-0.567258 -1.992427,-0.535697 -2.464268,-0.403297 -2.352747,0.660194 -4.277168,2.092413 -5.725339,4.260992 -0.129525,0.193958 -0.27806,0.360847 -0.330078,0.370864 -0.139187,0.02681 -0.176266,-0.137063 -0.07776,-0.343639 0.134381,-0.281794 0.863916,-1.265825 1.228499,-1.657049 0.181062,-0.194293 0.32963,-0.371146 0.33015,-0.393005 0.001,-0.0395 -1.243695,-0.0094 -1.881685,0.04556 l -0.333716,0.02873 -0.582271,0.607725 c -0.320249,0.334248 -0.964913,0.999118 -1.432589,1.477488 -0.467673,0.478369 -1.291273,1.322544 -1.830221,1.875945 l -0.979905,1.006184 -0.06951,0.352316 c -0.228201,1.156683 -0.388205,2.068624 -0.471841,2.689271 -0.09592,0.711745 -0.163237,0.884786 -0.320716,0.824354 -0.06308,-0.0242 -0.08574,-0.108608 -0.08574,-0.319376 v -0.286476 l -0.122554,0.135314 c -0.06741,0.07442 -0.315313,0.355423 -0.550907,0.624445 -0.235594,0.26902 -0.577863,0.658571 -0.760597,0.865664 -0.182736,0.207093 -0.332245,0.404155 -0.332245,0.437914 0,0.03376 0.123525,0.170025 0.274501,0.302814 0.428243,0.376656 0.908467,0.790336 1.050622,0.905043 l 0.129473,0.104471 -0.01031,1.287155 c -0.0057,0.707936 -0.0021,1.287155 0.0082,1.287155 0.01017,0 0.629103,0.291446 1.375411,0.647657 l 1.356923,0.647654 0.01491,-0.895702 0.01491,-0.895701 z m 0.261549,-2.57804 c -0.01931,-0.06725 -0.05005,-0.427988 -0.06829,-0.801629 -0.111153,-2.277016 0.628765,-4.389554 2.144808,-6.123642 0.221129,-0.252933 0.437435,-0.473454 0.480682,-0.490049 0.189761,-0.07282 0.122493,0.06219 -0.188009,0.377357 -0.94345,0.957607 -1.68425,2.286545 -2.020916,3.625364 -0.239527,0.952529 -0.29097,1.473868 -0.253618,2.570208 0.02997,0.879545 -0.0021,1.164713 -0.09466,0.842391 z M 68.22813,41.340529 c 0,-0.0685 0.04201,-0.417001 0.09335,-0.774456 0.139348,-0.97018 0.134905,-3.929992 -0.0076,-5.038932 -0.09161,-0.713044 -0.09271,-0.934938 -0.0042,-0.846427 0.05582,0.05582 0.186084,1.192065 0.248175,2.16479 0.08706,1.363952 0.01713,3.104907 -0.170816,4.252718 -0.05735,0.350221 -0.158945,0.505103 -0.158945,0.242307 z M 53.040984,40.980902 c -0.01925,-0.03114 -0.0346,-0.360772 -0.03413,-0.732524 8.22e-4,-0.702489 0.09996,-1.308517 0.320852,-1.962661 0.137928,-0.408466 0.563301,-1.235452 0.650411,-1.264488 0.105882,-0.03529 0.07598,0.07301 -0.104609,0.378945 -0.216217,0.366281 -0.494592,1.094785 -0.618737,1.619237 -0.06353,0.268402 -0.10109,0.673165 -0.109962,1.185174 -0.0131,0.756341 -0.03144,0.893437 -0.103825,0.776317 z m 1.957613,-1.519974 c -0.05854,-0.09472 0.231508,-1.180262 0.539088,-2.017602 0.139729,-0.380395 0.657058,-1.386253 0.933079,-1.814216 0.610979,-0.947302 1.466834,-1.889138 2.328018,-2.561891 0.493487,-0.385512 1.371761,-0.94998 1.478099,-0.94998 0.147406,0 0.05956,0.09204 -0.26886,0.28171 -0.693204,0.400334 -1.334859,0.905907 -2.023347,1.594237 -1.363368,1.363056 -2.251345,2.92228 -2.700405,4.741701 -0.173618,0.703438 -0.222641,0.828031 -0.285672,0.726041 z m 11.218664,-0.734001 c 0,-0.01639 0.07452,-0.379162 0.165597,-0.806158 0.138443,-0.64906 0.322549,-1.784506 0.462946,-2.85516 0.03552,-0.270896 0.132711,-0.31107 0.131475,-0.05435 -0.0021,0.415891 -0.33864,2.458814 -0.5614,3.406911 -0.03819,0.162524 -0.0985,0.305186 -0.134023,0.317028 -0.03553,0.01183 -0.0646,0.0081 -0.0646,-0.0083 z m 7.965359,-0.536319 c -0.0112,-0.03736 -0.05101,-0.226903 -0.08847,-0.421195 -0.05632,-0.29211 -0.20133,-0.831504 -0.354302,-1.317936 -0.01888,-0.06001 -0.0014,-0.09511 0.04736,-0.09511 0.04906,0 0.119454,0.143844 0.192828,0.394022 0.148398,0.505984 0.334184,1.290398 0.334675,1.413044 4.11e-4,0.108676 -0.101382,0.129623 -0.132086,0.02717 z M 64.858564,36.96658 c 0,-0.02308 0.09802,-0.322673 0.217818,-0.665762 0.119798,-0.343089 0.267235,-0.807221 0.327633,-1.031406 0.152192,-0.56489 0.154992,-0.571296 0.220825,-0.505463 0.06072,0.06072 -4.7e-5,0.31517 -0.282934,1.184812 -0.205074,0.630431 -0.382924,1.059782 -0.438994,1.059782 -0.02439,0 -0.04435,-0.01888 -0.04435,-0.04196 z m 0.588659,6.536672 c -0.0333,-0.03283 -1.306116,-0.251889 -1.329237,-0.228769 -0.01257,0.01257 -0.06779,0.179214 -0.122705,0.37031 -0.131971,0.459252 -0.766164,2.612495 -0.793208,2.693137 -0.01212,0.03612 0.134138,0.121551 0.342123,0.199855 l 0.363281,0.136769 0.778876,-1.576773 c 0.428383,-0.867227 0.770773,-1.584764 0.76087,-1.594529 z m 9.161931,2.70366 c 0.06315,-0.304823 0.188459,-1.472939 0.22102,-2.060395 0.0259,-0.467287 0.01742,-0.616895 -0.03693,-0.651467 -0.125581,-0.07988 -1.964154,-0.833844 -1.984286,-0.813712 -0.01072,0.01072 0.01629,0.200007 0.06005,0.420633 0.13771,0.694469 0.196081,1.292388 0.196081,2.008543 v 0.693385 l 0.258152,0.09596 c 0.141983,0.05277 0.466032,0.176173 0.720109,0.274221 0.254075,0.09805 0.478355,0.179172 0.498398,0.18028 0.02005,10e-4 0.05038,-0.06524 0.06741,-0.147445 z M 63.167297,45.962348 c 0.06109,-0.186822 0.159238,-0.510871 0.218104,-0.720109 0.122968,-0.437088 0.542403,-1.871823 0.5741,-1.963791 0.02069,-0.06003 -1.24906,-0.33555 -1.30208,-0.28253 -0.0523,0.0523 -0.411012,2.998237 -0.369977,3.038458 0.06074,0.05954 0.567212,0.255287 0.678103,0.262086 0.06487,0.004 0.122292,-0.09112 0.20175,-0.334114 z m -5.006561,0.04295 c 0.0078,-0.0068 0.06298,-0.413583 0.122693,-0.904002 0.270998,-2.225806 0.28756,-2.331886 0.364069,-2.331886 0.05396,0 0.06667,0.04903 0.0458,0.176632 -0.0159,0.09715 -0.06677,0.506793 -0.113063,0.910325 -0.0463,0.403533 -0.106285,0.880435 -0.133313,1.059784 -0.02703,0.179347 -0.06571,0.491168 -0.08595,0.692933 -0.04237,0.422319 -0.07513,0.403224 0.522505,0.304527 l 0.37737,-0.06232 0.05784,-0.214792 c 0.06552,-0.243323 0.230452,-0.969395 0.348815,-1.535564 0.04374,-0.20924 0.138205,-0.625001 0.209914,-0.923914 0.07171,-0.298913 0.115148,-0.55921 0.09653,-0.578436 -0.01863,-0.01923 -0.602467,-0.05238 -1.29744,-0.07368 l -1.263587,-0.03872 -7.6e-5,0.155203 c -4.1e-5,0.08536 -0.03743,0.363083 -0.08308,0.617158 -0.04565,0.254076 -0.117995,0.694295 -0.160764,0.97826 -0.04277,0.283968 -0.127347,0.822013 -0.187957,1.195654 -0.06061,0.373641 -0.110514,0.706032 -0.110903,0.738647 -4.1e-4,0.04012 0.205783,0.0249 0.637884,-0.04709 0.351223,-0.05851 0.644943,-0.111936 0.652714,-0.118716 z m 1.713958,-0.253861 c 0.287285,-0.0577 0.313978,-0.0768 0.436536,-0.312501 0.0718,-0.138076 0.35737,-0.691264 0.634609,-1.229308 0.277237,-0.538043 0.575131,-1.104518 0.661988,-1.258831 0.08686,-0.154314 0.138282,-0.292708 0.11428,-0.307543 -0.024,-0.01483 -0.385196,-0.03427 -0.802649,-0.04318 l -0.759007,-0.01621 -0.04723,0.215055 c -0.02597,0.118283 -0.131768,0.569678 -0.235097,1.003101 -0.103329,0.433424 -0.237104,1.02038 -0.297277,1.304348 -0.06017,0.283968 -0.121778,0.559103 -0.136899,0.611413 -0.03267,0.113026 0.01641,0.116863 0.430743,0.03366 z m 2.072999,-0.223874 c 0.145325,-0.890165 0.43943,-3.288653 0.398186,-3.247283 -0.01489,0.01495 -0.261885,0.47962 -0.548853,1.03261 -0.286971,0.552988 -0.677723,1.298912 -0.868339,1.657608 -0.190615,0.358696 -0.336733,0.670517 -0.324706,0.692935 0.01204,0.02242 0.312795,0.04076 0.668372,0.04076 h 0.646503 z m 3.977304,-0.0072 c 0.0037,-0.0035 0.02191,-0.519996 0.04057,-1.147713 l 0.03392,-1.141305 -0.565781,1.140992 c -0.341108,0.687897 -0.543512,1.154753 -0.509702,1.175651 0.04333,0.02678 0.971103,0.0012 1.000988,-0.02763 z"
         id="path194" />
      <circle
         style="vector-effect:non-scaling-stroke;fill:none;stroke:#ff0000;stroke-width:0.264583;stroke-dasharray:none;stroke-opacity:1;-inkscape-stroke:hairline"
         id="path247"
         cx="66.498436"
         cy="33.2467"
         r="2" />
    </g>
  </g>
</svg>
