<?xml version="1.0" encoding="UTF-8" standalone="no"?>
<!-- Created with Inkscape (http://www.inkscape.org/) -->

<svg
   width="41.008999mm"
   height="41.008999mm"
   viewBox="0 0 41.008999 41.008999"
   version="1.1"
   id="svg1"
   inkscape:version="1.4.2 (f4327f4, 2025-05-13)"
   sodipodi:docname="345.svg"
   xmlns:inkscape="http://www.inkscape.org/namespaces/inkscape"
   xmlns:sodipodi="http://sodipodi.sourceforge.net/DTD/sodipodi-0.dtd"
   xmlns="http://www.w3.org/2000/svg"
   xmlns:svg="http://www.w3.org/2000/svg">
  <sodipodi:namedview
     id="namedview1"
     pagecolor="#ffffff"
     bordercolor="#000000"
     borderopacity="0.25"
     inkscape:showpageshadow="2"
     inkscape:pageopacity="0.0"
     inkscape:pagecheckerboard="0"
     inkscape:deskcolor="#d1d1d1"
     inkscape:document-units="mm"
     inkscape:zoom="1.4513545"
     inkscape:cx="86.470947"
     inkscape:cy="71.657199"
     inkscape:window-width="1050"
     inkscape:window-height="1081"
     inkscape:window-x="857"
     inkscape:window-y="0"
     inkscape:window-maximized="0"
     inkscape:current-layer="layer1" />
  <defs
     id="defs1" />
  <g
     inkscape:label="Layer 1"
     inkscape:groupmode="layer"
     id="layer1"
     transform="translate(333.37504,1257.5646)">
    <g
       id="g194"
       transform="translate(-375.88128,-1282.0487)">
      <g
         id="g190"
         transform="matrix(0.42280223,0,0,0.42280223,36.369657,25.967342)">
        <path
           style="fill:#000000"
           d="m 56.197944,91.655656 c -0.75102,-0.36346 -2.45605,-0.83722 -3.78895,-1.0528 -1.3329,-0.21558 -2.92108,-0.63801 -3.52929,-0.93874 -0.6145,-0.30383 -2.51655,-1.97778 -4.28084,-3.76745 -1.74625,-1.77138 -3.74055,-3.60461 -4.43177,-4.07385 -0.90688,-0.61564 -1.25677,-1.02807 -1.25677,-1.48138 0,-0.43405 -0.53152,-1.11857 -1.7198,-2.21486 -1.42764,-1.31711 -1.71979,-1.73044 -1.71979,-2.43309 0,-1.09539 -0.51341,-2.05112 -1.71979,-3.20141 -1.37808,-1.31402 -1.71979,-2.11597 -1.71979,-4.03611 0,-1.41339 -0.12641,-1.88046 -0.79375,-2.93274 -0.92294,-1.45532 -0.95053,-1.72918 -0.34454,-3.41987 0.37387,-1.04312 0.4002,-1.45392 0.15259,-2.38125 -0.23566,-0.88257 -0.21416,-1.59845 0.1012,-3.369616 0.80714,-4.53307 0.64196,-4.242252 3.31995,-5.845346 2.33182,-1.395865 3.07723,-2.192905 2.77862,-2.971068 -0.11015,-0.287056 -0.45103,-0.34924 -1.35556,-0.247286 -1.74416,0.196591 -2.03223,-0.136781 -1.8257,-2.11276 l 0.16702,-1.598035 -1.03377,0.218607 c -1.90791,0.403457 -2.87753,0.312886 -2.95909,-0.276404 -0.0684,-0.494257 0.2072,-0.950995 2.56342,-4.248201 l 0.90267,-1.263175 -0.753,-0.600425 c -0.41415,-0.330233 -2.27046,-1.498942 -4.12512,-2.59713 -1.85467,-1.098189 -3.45032,-2.123232 -3.54589,-2.277874 -0.227,-0.367293 0.30055,-0.983993 1.4554,-1.701343 0.75641,-0.469858 5.54222,-2.481983 7.47836,-3.144176 0.25466,-0.0871 0.46302,-0.254708 0.46302,-0.372467 0,-0.117759 -1.16822,-1.615309 -2.59605,-3.32789 -1.42783,-1.712581 -2.79812,-3.455861 -3.04509,-3.873955 -0.40609,-0.687452 -0.40971,-0.799504 -0.0379,-1.171339 0.76143,-0.761426 2.46264,-1.014856 5.48646,-0.817321 l 2.87054,0.187522 -0.44732,-1.022155 c -0.98928,-2.260551 -2.48137,-6.067151 -2.48809,-6.347571 -0.0303,-1.2623644 2.52382,-1.2491514 6.49211,0.03359 1.67926,0.542816 3.12397,0.916162 3.21048,0.829658 0.19994,-0.199937 -0.98411,-1.9965314 -2.21031,-3.3537954 -1.3138,-1.454213 -1.08583,-1.82766 1.15737,-1.895943 3.90617,-0.118905 4.98843,0.05269 7.80983,1.238301 0.62138,0.261115 0.88933,-0.507556 1.55082,-4.448806 0.57491,-3.42543103 1.04452,-4.856633 1.67267,-5.097677 0.55527,-0.213076 1.61754,0.594013 5.51393,4.189366 1.85676,1.713305 3.49761,3.115099 3.64633,3.115099 0.14872,0 0.33406,-0.165904 0.41187,-0.368675 0.34111,-0.888926 10.16705,-7.724519 10.77074,-7.492861 0.35616,0.13667 0.51096,1.41250297 1.13848,9.382891 0.0956,1.214422 0.29311,2.182812 0.44518,2.182812 0.31466,0 1.82476,-0.863346 3.89588,-2.227344 0.79142,-0.521211 1.65002,-0.947656 1.908,-0.947656 0.73084,0 0.58956,1.35891 -0.45388,4.3656254 -0.50501,1.455209 -0.92067,2.73513 -0.92368,2.844271 -0.003,0.109141 0.56008,0.19914 1.2513,0.199997 3.11695,0.0039 8.3897,1.172771 9.08853,2.014811 0.46421,0.55933 -0.11383,1.643942 -2.38416,4.473605 -1.03165,1.285809 -1.87572,2.482041 -1.87572,2.658294 0,0.176252 0.74414,0.622154 1.65364,0.990892 3.49589,1.417328 8.26329,3.604359 8.33664,3.824408 0.0422,0.126646 -0.1353,0.422175 -0.39448,0.656731 -0.5435,0.491856 -5.56681,3.371367 -5.88136,3.371367 -0.11554,0 -0.34902,0.167425 -0.51885,0.372056 -0.25302,0.304877 0.10403,0.603463 1.97744,1.653646 1.25742,0.704874 2.60218,1.549748 2.98836,1.877498 0.66373,0.563306 0.67616,0.616044 0.22719,0.963935 -0.26122,0.202415 -1.03045,0.451329 -1.70939,0.553143 -0.67894,0.101813 -1.87143,0.423442 -2.64996,0.71473 -1.7716,0.66284 -2.04375,1.240128 -1.45402,3.084266 0.52462,1.64053 0.22877,2.157809 -1.23412,2.157809 -0.98008,0 -2.15503,0.597177 -1.82476,0.927448 0.0973,0.09733 0.93876,0.271438 1.86985,0.386909 3.01098,0.373413 4.20025,1.411832 5.93507,5.182242 l 1.00437,2.182867 1.195,0.160883 c 1.27685,0.171902 3.522,1.327431 4.335936,2.231609 0.81126,0.901197 0.38944,1.363459 -1.244166,1.363459 -1.1979,0 -1.59234,0.131634 -2.4557,0.819519 -2.48803,1.982348 -3.83965,2.299378 -6.02806,1.413893 -0.48206,-0.195051 -0.4963,-0.05602 -0.36584,3.571625 0.12518,3.48085 0.0874,3.91144 -0.48503,5.53321 -0.34142,0.96724 -0.62328,2.32642 -0.62635,3.02039 -0.004,0.88721 -0.24121,1.70334 -0.79933,2.74923 -0.587,1.10002 -0.79375,1.8428 -0.79375,2.85172 0,1.24479 -0.0934,1.45548 -1.06667,2.40584 -0.64535,0.63017 -1.27981,1.61805 -1.60629,2.50109 -0.40383,1.09222 -0.83992,1.69257 -1.73284,2.38556 -0.65626,0.50933 -1.54578,1.43102 -1.9767,2.04822 -1.24235,1.77937 -7.03447,5.3407 -9.40071,5.78011 -0.55981,0.10395 -1.25596,0.33576 -1.547,0.51512 -0.29255,0.18029 -1.96001,0.40134 -3.72907,0.49436 -1.75995,0.0925 -4.20073,0.34438 -5.42396,0.55965 -2.9221,0.51425 -3.30055,0.49206 -4.91247,-0.28804 z m 2.93136,-2.12627 c 0.3555,-0.13642 0.41797,-0.74392 0.4149,-4.03489 -0.002,-2.13087 -0.074,-4.13686 -0.16005,-4.45777 -0.12434,-0.46374 -0.65297,-0.7433 -2.57608,-1.36233 -1.33079,-0.42837 -2.50893,-0.72433 -2.61807,-0.65769 -0.40236,0.2457 -0.18033,3.00387 0.43803,5.44153 0.69924,2.75649 1.48934,4.52762 2.20594,4.94494 0.52375,0.305 1.66577,0.3678 2.29533,0.12621 z m -4.34398,-0.20396 c 0,-0.055 -0.17962,-0.52985 -0.39914,-1.05524 -0.21952,-0.5254 -0.70159,-2.71283 -1.07127,-4.86096 -0.83662,-4.86152 -1.13444,-6.05584 -1.60809,-6.44894 -0.60513,-0.50222 -0.75796,-0.0514 -0.75796,2.23578 0,2.06937 -0.0249,2.15867 -0.59532,2.13854 -0.54552,-0.0193 -0.59531,0.0969 -0.59531,1.38906 0,1.85129 -0.61486,1.93297 -1.15393,0.1533 -0.20938,-0.69122 -0.76389,-2.20483 -1.23225,-3.36357 -0.70478,-1.74365 -0.87562,-2.57805 -0.9911,-4.84069 -0.11989,-2.3492 -0.21462,-2.78648 -0.6732,-3.10768 -0.76362,-0.53486 -0.9766,-0.27498 -0.9766,1.19163 0,2.48955 -0.80779,1.83313 -1.3109,-1.06527 -0.37861,-2.18117 -0.76891,-3.16806 -1.25293,-3.16806 -0.31777,0 -0.35145,0.36114 -0.19788,2.12163 0.16588,1.9016 0.14009,2.10438 -0.24869,1.9552 -0.23856,-0.0915 -0.48267,-0.42121 -0.54247,-0.73258 -0.56574,-2.94606 -1.53898,-6.63672 -1.89235,-7.17603 -0.4671,-0.71288 -1.05594,-0.87413 -1.23462,-0.3381 -0.0601,0.18042 0.05,0.85745 0.24472,1.50451 0.34196,1.13624 0.2688,2.1362 -0.15629,2.1362 -0.35441,0 -1.04445,-0.90501 -1.47412,-1.93337 -0.37161,-0.88938 -0.37262,-1.14303 -0.0101,-2.54205 0.48926,-1.88813 0.52376,-3.88466 0.072,-4.16591 -0.1819,-0.11324 -0.59862,-0.17127 -0.92604,-0.12897 -0.90266,0.11663 -0.76402,-0.86312 0.22143,-1.564823 0.73493,-0.523318 0.79879,-0.677312 0.63744,-1.537356 -0.25476,-1.357967 -0.35123,-1.430195 -1.11148,-0.832177 -1.51827,1.194267 -1.58163,0.01759 -0.0781,-1.450552 1.16544,-1.138016 1.29417,-1.455208 0.59059,-1.455208 -0.9175,0 -2.40585,1.279895 -2.69371,2.316443 -0.34498,1.242182 -0.36507,6.222033 -0.0265,6.560633 0.13841,0.13841 0.55513,1.05791 0.92604,2.04333 0.67853,1.80268 0.87505,3.47643 0.43978,3.74544 -0.35092,0.21688 -0.69931,-0.32042 -1.48912,-2.29658 -0.39259,-0.98226 -0.8202,-1.78593 -0.95024,-1.78593 -0.40112,0 -0.26492,0.6122 0.42423,1.90675 0.36337,0.6826 0.89971,2.26621 1.19185,3.51914 0.86934,3.72835 1.60018,4.67614 2.76323,3.58351 0.8748,-0.82184 1.04694,-0.3403 0.65744,1.83918 -0.37821,2.11634 -0.23429,2.44245 1.35932,3.08009 0.73147,0.29267 1.09298,0.66581 1.45204,1.49874 0.73257,1.69938 1.70949,2.9302 2.05306,2.58663 0.5205,-0.5205 0.88703,-0.30061 1.1912,0.71464 0.16505,0.55088 0.5566,1.27693 0.87012,1.61345 0.67436,0.72384 0.91496,0.4862 1.16885,-1.15443 0.43586,-2.81655 0.91971,-2.50548 0.91971,0.59129 0,2.03815 0.0754,2.3941 0.69744,3.29168 0.50966,0.73544 0.8856,1.00641 1.39629,1.00641 0.44533,0 0.95152,0.28794 1.39535,0.79375 0.77564,0.88394 1.89188,1.05998 2.28353,0.36015 0.20884,-0.37317 0.32823,-0.31786 0.85665,0.39687 0.38031,0.51439 0.84682,0.83048 1.2257,0.83048 0.33644,0 0.61171,-0.045 0.61171,-0.1 z m 12.62446,-0.82814 c 1.51007,-0.44845 1.48936,-0.41444 2.2022,-3.6147 0.58435,-2.62336 0.63867,-4.42387 0.17351,-5.75056 -0.52313,-1.49199 -0.99044,-1.5779 -2.51104,-0.46168 -0.73212,0.53743 -1.69927,1.10547 -2.14923,1.26233 -0.54113,0.18864 -0.87984,0.52257 -1.00048,0.98636 -0.2484,0.95494 -0.24081,5.17697 0.0121,6.72043 0.19661,1.19993 0.2449,1.25677 1.06773,1.25677 0.47399,0 1.46635,-0.17953 2.20523,-0.39895 z m 4.51961,-0.39312 c 0.47022,-0.82636 0.98889,-1.03072 1.17939,-0.4647 0.18247,0.54213 0.99863,-0.30438 1.56308,-1.6212 0.51911,-1.21103 0.63084,-1.2346 1.12774,-0.23791 0.42527,0.85299 1.1012,0.88316 1.63213,0.0729 0.38638,-0.58968 0.41433,-0.91758 0.18575,-2.17867 -0.49638,-2.73854 0.13618,-3.203 1.24492,-0.91409 0.3638,0.75104 0.7477,1.36728 0.8531,1.36941 0.4435,0.009 0.99898,-1.6614 0.99898,-3.00405 0,-0.79569 0.0723,-1.63504 0.1606,-1.86522 0.28457,-0.74157 0.80547,-0.4469 1.13106,0.63982 0.46946,1.56694 1.00474,1.35428 1.37896,-0.54785 0.27581,-1.40192 0.46256,-1.72869 1.46852,-2.56957 l 1.15253,-0.96339 0.0264,-1.8622 c 0.0342,-2.41232 0.25486,-3.18337 0.91142,-3.18435 0.42132,-6.2e-4 0.53276,-0.21434 0.60002,-1.15073 0.0454,-0.63248 -0.038,-1.71211 -0.1853,-2.39917 -0.20147,-0.93942 -0.17275,-1.70399 0.11583,-3.08326 0.44893,-2.14562 0.45512,-2.24903 0.098,-1.63584 -0.49425,0.84857 -1.03714,0.55177 -1.03714,-0.567 0,-1.04357 -0.29498,-1.35122 -1.29556,-1.35122 -0.46633,0 -1.35028,1.50098 -1.35028,2.29283 0,0.23255 0.43101,0.8293 0.9578,1.32612 0.91739,0.86522 0.95271,0.96458 0.83735,2.35566 -0.11181,1.3483 -0.52903,2.25887 -0.87601,1.91188 -0.0814,-0.0814 -0.2199,-0.60925 -0.30776,-1.17298 -0.18996,-1.21889 -1.00594,-2.48018 -1.60453,-2.48018 -0.45384,0 -1.65268,0.9969 -1.65268,1.37429 0,0.12305 0.30641,0.70911 0.68092,1.30237 0.66428,1.0523 0.67296,1.12487 0.35519,2.9713 -0.3719,2.16093 -0.67569,2.90917 -1.07975,2.65945 -0.27949,-0.17274 -0.17545,-2.03899 0.17703,-3.17536 0.11981,-0.38628 -0.0293,-0.7909 -0.48737,-1.32291 l -0.65997,-0.76643 -0.7094,0.66146 c -0.39017,0.3638 -0.94372,1.11846 -1.23012,1.67702 -0.51944,1.01307 -0.51938,1.01983 0.0257,2.75653 0.60079,1.91404 0.66567,2.64113 0.28885,3.23715 -0.38115,0.60288 -0.75502,0.0508 -1.06208,-1.56834 -0.40297,-2.12484 -0.6929,-2.33829 -1.76484,-1.29932 -1.09071,1.05716 -1.10911,1.68626 -0.0905,3.09247 0.86044,1.18781 1.01369,2.17591 0.41457,2.67313 -0.39844,0.33068 -0.52952,0.18181 -1.47836,-1.67897 -0.8866,-1.73871 -2.31594,-1.54953 -1.48723,0.19685 0.89646,1.88913 0.30658,2.56904 -0.80265,0.92515 -1.28388,-1.90274 -1.43507,-1.69902 -1.24242,1.67412 0.14617,2.55925 0.0852,3.3783 -0.41448,5.5719 -0.32221,1.41439 -0.51024,2.69393 -0.41785,2.84342 0.33559,0.543 1.22258,0.26673 1.67041,-0.52027 z m -22.45434,-11.02639 c 0.0102,-0.75208 -0.0537,-1.55576 -0.142,-1.78594 -0.19983,-0.52075 -0.99314,-0.54429 -1.41014,-0.0418 -0.3633,0.43775 0.01,2.17164 0.73156,3.39962 0.37677,0.64102 0.45457,0.6744 0.61658,0.26458 0.10197,-0.25796 0.19377,-1.08435 0.204,-1.83643 z m 14.01984,1.19927 c 3.09887,-0.53463 6.37307,-2.387 8.99783,-5.0905 1.28347,-1.32197 1.28389,-1.2424 -0.0174,-3.28663 -0.66399,-1.04306 -0.49305,-1.34461 0.42573,-0.75098 2.18228,1.41001 1.914,1.36832 2.51035,0.39015 0.76557,-1.2557 0.68083,-1.63327 -0.51772,-2.30689 -0.58208,-0.32715 -1.05833,-0.70626 -1.05833,-0.84247 0,-0.13621 0.7121,-0.24765 1.58245,-0.24765 1.51128,0 1.58963,-0.0327 1.74189,-0.72761 0.0877,-0.40018 0.20721,-0.88144 0.2656,-1.06946 0.0629,-0.20261 -0.40413,-0.56962 -1.14658,-0.90098 l -1.25274,-0.55912 1.37904,-0.28965 c 1.59357,-0.3347 1.75178,-0.46677 2.18591,-1.8247 0.35969,-1.12507 0.88907,-1.17619 1.01669,-0.0982 0.046,0.38896 0.19043,0.7072 0.32087,0.7072 0.25798,0 2.05424,-2.55764 2.69438,-3.836461 0.65314,-1.30479 0.76424,-2.511672 0.4376,-4.753786 -0.44728,-3.0702 -1.1516,-3.532418 -2.29166,-1.503943 -0.58969,1.049214 -1.64179,2.150851 -1.64179,1.719097 0,-0.140261 -0.15367,-0.465175 -0.34148,-0.72203 -0.27009,-0.369371 -0.47753,-0.413496 -0.99219,-0.21105 -3.16047,1.243196 -4.22258,1.728552 -4.22258,1.929607 0,0.129147 0.18096,0.234813 0.40213,0.234813 0.3953,0 2.50829,1.218184 2.50829,1.446078 0,0.481775 -0.70089,1.451686 -1.30834,1.810514 -0.7821,0.462001 -1.07291,0.367331 -1.07291,-0.349265 0,-0.567435 -0.93659,-1.426298 -1.30625,-1.197839 -0.15469,0.0956 -0.28125,0.567461 -0.28125,1.048571 0,2.462724 -3.3305,3.390314 -4.24509,1.182314 -0.17695,-0.427198 -0.41998,-0.837448 -0.54006,-0.911663 -0.12009,-0.07422 -0.90825,0.150527 -1.75149,0.499428 -2.2286,0.922115 -2.87068,1.033505 -3.25919,0.565385 -0.45545,-0.548786 0.12788,-1.156752 2.13768,-2.227965 0.865,-0.461041 1.57273,-0.877878 1.57273,-0.926306 0,-0.04843 -2.35148,-0.07312 -5.22552,-0.05488 -3.36921,0.02138 -5.82272,-0.08872 -6.90664,-0.309934 -0.92461,-0.188706 -1.75142,-0.272798 -1.83735,-0.186872 -0.33477,0.334776 3.72529,3.313567 4.51896,3.315467 0.5908,10e-4 0.8934,0.72663 0.47695,1.14306 -0.24043,0.24043 -0.6151,0.15132 -1.62263,-0.38593 -1.4117,-0.75276 -1.47652,-0.75084 -0.9893,0.0293 0.47758,0.76474 0.0315,0.97673 -0.66954,0.31817 -0.75161,-0.7061 -1.13935,-0.72511 -1.48837,-0.073 -0.14757,0.27573 -0.64333,0.63207 -1.1017,0.79186 -1.29249,0.45056 -2.11079,-0.0796 -2.71437,-1.75869 -0.52349,-1.456263 -1.10215,-1.776437 -1.76567,-0.976947 -0.46245,0.557219 -1.44461,0.388066 -1.44461,-0.248797 0,-0.706425 1.17168,-1.496087 2.48029,-1.671609 0.64143,-0.08603 1.0725,-0.273673 1.01921,-0.443643 -0.0508,-0.162004 -1.87099,-0.915109 -4.04488,-1.673566 -2.86266,-0.998763 -4.19518,-1.340963 -4.83249,-1.241019 -0.491,0.077 -1.04502,0.001 -1.2534,-0.171941 -0.2054,-0.170465 -0.55356,-0.240821 -0.77369,-0.156347 -0.32212,0.123609 -0.39868,0.684562 -0.3922,2.873871 0.006,1.977395 0.0817,2.593836 0.27773,2.257262 0.43535,-0.747459 0.96481,-0.534651 1.15197,0.463021 0.22863,1.218695 0.67892,1.189015 0.67892,-0.04475 0,-0.593587 -0.31404,-1.527232 -0.80821,-2.402863 -0.63283,-1.121312 -0.74163,-1.512294 -0.50139,-1.801772 0.86798,-1.045849 2.21126,1.322111 2.72701,4.807228 0.37011,2.500982 0.32825,3.014042 -0.24589,3.014042 -0.49063,0 -2.20962,-1.54195 -2.80214,-2.51354 -0.40016,-0.656166 -0.48424,-0.701191 -0.48506,-0.259743 -10e-4,0.755733 2.1435,3.330443 3.79811,4.559213 0.96459,0.71634 1.22668,0.74448 1.23204,0.13229 0.002,-0.25466 0.12355,-0.64161 0.26961,-0.85989 0.22985,-0.34352 0.31824,-0.32783 0.6574,0.11671 0.21552,0.28248 0.39185,0.79223 0.39185,1.13279 0,0.66652 0.10914,0.73054 1.71979,1.00873 0.93269,0.1611 0.99964,0.21852 0.56395,0.48364 -1.487,0.90484 -1.58296,1.06952 -1.23589,2.12114 l 0.32655,0.98947 1.42947,-0.1786 c 0.7862,-0.0982 1.42947,-0.0756 1.42948,0.0503 0,0.12591 -0.44122,0.59937 -0.98051,1.05214 -0.97999,0.82278 -0.98027,0.8236 -0.51376,1.53557 0.67487,1.02999 1.15607,1.10995 2.44436,0.4062 0.62985,-0.34408 1.22011,-0.55067 1.31169,-0.4591 0.0916,0.0916 -0.14174,0.62012 -0.51848,1.17454 -0.37674,0.55442 -0.68498,1.20926 -0.68498,1.4552 0,1.11045 5.64883,4.8296 8.4434,5.55908 2.08907,0.54532 3.24631,0.58385 5.55784,0.18506 z m -6.7252,-2.72633 c -2.27053,-0.43752 -3.29069,-0.82357 -3.74034,-1.4154 -0.63518,-0.83605 -0.35539,-2.66909 0.54483,-3.56931 0.33401,-0.33402 1.04997,-0.42367 3.47551,-0.4352 3.32696,-0.0158 7.91578,-0.59996 9.70372,-1.23526 1.39475,-0.49559 2.5735,-0.30494 3.63453,0.58786 0.66223,0.55723 0.80154,0.87111 0.80154,1.80588 0,1.54859 -0.66884,2.30419 -3.10682,3.50977 l -2.02286,1.00031 -3.71901,0.0541 c -2.25945,0.0329 -4.44588,-0.0859 -5.5711,-0.30277 z m 7.81112,-1.09113 c 2.26087,-0.42888 5.02744,-1.34272 5.01276,-1.6558 -0.005,-0.0987 -0.18258,-0.40966 -0.39545,-0.69106 -0.34008,-0.44957 -0.33906,-0.58486 0.008,-1.11517 0.65207,-0.99518 -0.17825,-1.23046 -2.69291,-0.76307 -3.40852,0.63354 -8.27324,1.19925 -10.31264,1.19925 -2.06849,0 -2.52499,0.27109 -1.80194,1.07004 0.37885,0.41863 0.39996,0.57905 0.1205,0.91577 -0.43735,0.52698 -0.27336,0.66811 1.25368,1.07886 1.76024,0.47347 6.21039,0.45386 8.80759,-0.0388 z m -5.62909,-6.39929 c -0.29676,-0.33228 -0.39578,-0.91647 -0.35067,-2.06898 0.0654,-1.67169 0.24983,-2.23049 0.73606,-2.23049 0.19315,0 0.23541,0.55492 0.12902,1.6942 -0.15115,1.6186 -0.13039,1.70119 0.46506,1.85064 0.3428,0.086 0.99209,0.0827 1.44286,-0.007 0.64146,-0.12829 0.8196,-0.0725 0.8196,0.25672 0,0.96087 -2.48866,1.34884 -3.24193,0.5054 z m -9.23903,-7.11131 c -0.93425,-0.38783 -1.5761,-1.15691 -0.96551,-1.15691 0.64907,0 3.37271,1.14056 3.23926,1.35649 -0.21124,0.34179 -1.17297,0.25737 -2.27375,-0.19958 z m 19.00735,-0.0104 c -0.097,-0.097 -0.17639,-0.33924 -0.17639,-0.53828 0,-0.28001 0.29165,-0.3232 1.28901,-0.19089 0.83533,0.11081 1.35301,0.0674 1.47083,-0.12318 0.25457,-0.41191 0.94433,-0.36791 0.94433,0.0602 0,0.19492 -0.30326,0.49258 -0.67391,0.66146 -0.72967,0.33246 -2.56791,0.41662 -2.85387,0.13066 z m 10.8303,-1.98313 c 0.1045,-0.16909 0.20946,-1.389476 0.23324,-2.711975 0.0508,-2.824819 0.78084,-4.918085 1.71525,-4.918085 0.59058,0 0.74122,0.749848 0.24943,1.241638 -0.20913,0.209128 -0.12604,0.736459 0.30028,1.905662 0.57298,1.571469 0.57674,1.649702 0.13479,2.80693 -0.25004,0.65472 -0.70931,1.3688 -1.0206,1.58684 -0.68109,0.47705 -1.89358,0.54397 -1.61239,0.089 z m 2.03449,-3.131879 c 0.16072,-0.61462 -0.26039,-0.980637 -0.66395,-0.577078 -0.30502,0.305021 -0.0996,1.105981 0.28361,1.105981 0.13311,0 0.30426,-0.238007 0.38034,-0.528903 z m -4.66263,14.358429 c 0.65031,-0.68845 1.57825,-1.90884 2.0621,-2.71198 0.95364,-1.58292 1.93769,-4.11905 1.69314,-4.3636 -0.37566,-0.37567 -0.99472,0.27651 -1.69974,1.79068 -0.42045,0.90301 -1.25657,2.47528 -1.85803,3.49392 -2.07928,3.52149 -2.11195,3.81777 -0.19747,1.79098 z m -32.46182,-2.12171 c -0.003,-0.10914 -0.33082,-0.78401 -0.7276,-1.49972 -0.72554,-1.30871 -2.01753,-2.51788 -2.34279,-2.19262 -0.32584,0.32583 0.7288,2.549 1.52838,3.2218 0.76452,0.64329 1.55491,0.88448 1.54201,0.47054 z m 43.83617,-9.61868 c -0.5214,-1.468031 -0.54305,-1.928601 -0.12233,-2.602279 0.72043,-1.153596 -0.61916,-2.397264 -2.58217,-2.397264 -0.72952,0 -0.90882,0.103406 -0.90882,0.524126 0,0.354461 0.23553,0.578771 0.72761,0.692935 1.01769,0.236113 1.91823,0.841771 1.91823,1.290114 0,0.298474 -0.27919,0.345245 -1.32292,0.22163 l -1.32292,-0.15668 v 1.107214 c 0,0.822784 0.16683,1.274044 0.64943,1.756644 0.35719,0.35719 0.796,0.64943 0.97514,0.64943 0.5794,0 1.54985,1.13148 1.57132,1.83206 0.0167,0.54337 0.10548,0.44181 0.43832,-0.50117 0.3829,-1.08486 0.38118,-1.28471 -0.0209,-2.41676 z m 6.75177,-4.122911 c 0.5566,-0.222707 1.00768,-0.481291 1.00241,-0.574631 -0.005,-0.09334 -0.4961,-0.407834 -1.09072,-0.698876 -0.88113,-0.431272 -1.27733,-0.896273 -2.14167,-2.513542 -0.58329,-1.091406 -1.40181,-2.417794 -1.81893,-2.947529 -1.18644,-1.506751 -3.83945,-2.318515 -5.1917,-1.588547 -1.00669,0.543432 -0.71636,1.008449 0.73711,1.18059 2.83403,0.335649 5.48764,2.634472 5.61983,4.868453 0.0578,0.976733 0.0387,0.998975 -0.80069,0.933422 -1.07396,-0.08387 -1.09002,0.274612 -0.0585,1.30614 0.70112,0.701116 0.92214,0.778758 1.76613,0.620424 0.53059,-0.09954 1.42012,-0.363197 1.97672,-0.585904 z m -37.11005,-1.23856 c -0.0606,-0.05354 -1.18181,-0.154908 -2.4915,-0.225264 -1.30968,-0.07036 -2.08359,-0.03842 -1.71979,0.07097 0.66341,0.199477 4.41826,0.337047 4.21129,0.154294 z m 11.73489,-0.07621 c -0.17913,-0.07248 -0.53632,-0.07689 -0.79375,-0.0098 -0.25743,0.06708 -0.11087,0.126381 0.3257,0.131774 0.43656,0.0054 0.64718,-0.04949 0.46805,-0.12197 z m 7.20486,-2.084102 c 1.75198,-0.85194 3.83646,-2.509479 3.83646,-3.050678 0,-0.136356 -0.2464,-0.24792 -0.54757,-0.24792 -0.41444,0 -0.52701,-0.142584 -0.46302,-0.586471 0.0847,-0.587493 0.32157,-0.74784 2.66872,-1.806576 0.69369,-0.312904 1.3785,-0.787991 1.5218,-1.055748 0.23663,-0.442142 0.17167,-0.472409 -0.70762,-0.329719 -0.92734,0.150486 -0.95958,0.130261 -0.76462,-0.479583 0.11195,-0.350182 0.26198,-1.483995 0.3334,-2.519583 l 0.12985,-1.882887 -0.88703,-0.329622 c -1.09094,-0.405394 -8.04364,-0.719133 -7.8172,-0.352749 0.0862,0.139508 0.63146,0.410313 1.21163,0.601789 0.58018,0.191476 1.62049,0.81554 2.31181,1.386809 0.69131,0.571269 1.65134,1.203465 2.13339,1.40488 1.267,0.529386 1.1931,1.345885 -0.15467,1.708801 -0.56712,0.152709 -1.11751,0.48472 -1.22309,0.737802 -0.10557,0.253081 -0.28456,1.504763 -0.39775,2.781514 -0.25391,2.864153 -0.61636,3.456376 -2.72974,4.460193 -0.89636,0.425755 -1.33209,0.703511 -0.96829,0.617234 0.3638,-0.08628 1.4949,-0.562145 2.51354,-1.057486 z m 9.8526,0.7505 c 0.0994,-0.302664 -1.88398,-1.932432 -2.35167,-1.932432 -0.30382,0 -0.28399,0.868417 0.0392,1.718567 0.22859,0.601241 0.39489,0.683633 1.23632,0.612537 0.53471,-0.04518 1.01896,-0.224582 1.07612,-0.398672 z m -40.67655,-0.471869 c 0,-0.215337 -0.17254,-0.840415 -0.38341,-1.389063 -0.21088,-0.548648 -0.51014,-1.492469 -0.66502,-2.09738 -0.22191,-0.866662 -0.44914,-1.158238 -1.0718,-1.375299 -1.00929,-0.351839 -1.02885,-1.08536 -0.0483,-1.810332 0.53307,-0.394119 0.87199,-1.016354 1.20399,-2.210492 0.25413,-0.914081 0.69264,-1.985781 0.97446,-2.381555 0.72553,-1.018925 2.31031,-1.570946 4.55946,-1.588195 1.05208,-0.0081 3.04397,-0.174026 4.42642,-0.368795 l 2.51354,-0.354125 -2.38125,-0.02744 c -6.05326,-0.06975 -12.1104,0.829006 -14.5107,2.153088 -1.40644,0.775836 -1.69464,1.578261 -1.24301,3.460856 0.30198,1.258818 0.29121,1.54745 -0.086,2.303506 -0.44842,0.898878 -0.33801,1.266987 0.6004,2.00171 0.47386,0.371 0.1558,0.900035 -0.5411,0.900035 -0.77455,0 -0.4744,0.549803 0.60634,1.110656 1.07184,0.556236 5.22154,2.051332 5.71518,2.059123 0.1819,0.0029 0.33073,-0.170964 0.33073,-0.3863 z m 22.0927,-0.15508 c 3.6025,-0.451711 6.51714,-1.051531 7.16166,-1.473837 0.64218,-0.42077 1.02245,-1.340581 1.29773,-3.138937 0.2304,-1.505164 -0.29197,-5.704308 -0.76894,-6.181281 -0.57758,-0.577576 -7.88471,-0.872629 -17.61232,-0.711164 -9.66965,0.160503 -10.6812,0.371612 -11.53148,2.406609 -0.7048,1.68684 -0.19033,7.303033 0.74419,8.123856 0.73799,0.648199 0.92322,0.579935 0.79509,-0.293021 -0.0765,-0.521358 0.0198,-0.806235 0.31041,-0.917738 1.05059,-0.40315 1.71412,0.824224 0.7521,1.391209 -0.98024,0.577722 0.11088,0.816787 5.35781,1.173901 2.25347,0.153374 11.26495,-0.100131 13.49375,-0.379597 z m -11.951,-1.636212 c 0.0793,-0.181901 0.62981,-1.461823 1.2234,-2.844271 1.54095,-3.588805 1.66278,-3.768953 3.01395,-4.456756 1.15017,-0.585485 1.32259,-0.602751 3.07212,-0.307654 1.73625,0.292857 1.898,0.277693 2.55563,-0.239598 1.29774,-1.020805 1.61388,-0.426277 0.46704,0.878316 l -0.6761,0.7691 -1.71137,-0.315333 c -2.01132,-0.3706 -3.43471,-0.178207 -4.2623,0.576113 -1.3857,1.263023 -1.27236,4.054816 0.19543,4.813837 1.65456,0.855608 4.33881,0.212262 4.67319,-1.120046 0.53705,-2.139763 -1.88448,-3.912439 -3.34686,-2.450062 -0.96188,0.961875 -0.41116,2.38125 0.92392,2.38125 0.47546,0 0.66251,-0.186544 0.79587,-0.79375 0.21315,-0.970486 0.85417,-1.039948 1.08565,-0.117644 0.12502,0.498094 0.01,0.846406 -0.43795,1.322917 -1.44449,1.537582 -4.20787,0.190962 -3.87078,-1.886263 0.19755,-1.217388 0.79477,-1.890449 1.96384,-2.213245 2.14412,-0.592021 4.20182,1.158176 3.95973,3.367992 -0.14194,1.295663 -0.73817,2.086464 -1.96439,2.605468 -1.15982,0.490901 -7.87239,0.516865 -7.66002,0.02963 z m 2.53327,-0.926042 c -0.19492,-0.254661 -0.38522,-0.509753 -0.42288,-0.56687 -0.10701,-0.1623 -0.87501,0.537844 -0.87501,0.797705 0,0.127702 0.37176,0.232186 0.82615,0.232186 0.74542,0 0.79152,-0.04524 0.47174,-0.463021 z m 14.58766,0.872607 c -0.17536,-0.211291 -0.2776,-0.598244 -0.22721,-0.859896 0.12117,-0.629191 1.25669,-0.627266 1.64303,0.0028 0.23494,0.383139 0.19105,0.554533 -0.22017,0.859896 -0.64214,0.476836 -0.7979,0.476473 -1.19565,-0.0028 z m -26.15761,-3.498989 c 0.0685,-0.597644 0.21789,-0.747055 0.74706,-0.747055 0.52917,0 0.66146,0.132292 0.66146,0.661458 0,0.529167 -0.14941,0.678578 -0.74706,0.747056 -0.67956,0.07786 -0.73932,0.0181 -0.66146,-0.661459 z m 27.52289,-0.138513 c -0.44735,-0.447351 -0.39449,-1.183841 0.0985,-1.373036 0.45624,-0.175075 1.43605,0.247859 1.43605,0.619872 0,0.973795 -0.88138,1.406369 -1.53459,0.753164 z m -26.21907,-3.624874 c -0.56426,-0.362967 -0.13578,-1.084705 0.64396,-1.084705 0.5615,0 0.6726,0.109078 0.60362,0.59261 -0.0919,0.644215 -0.66171,0.868967 -1.24758,0.492095 z m 25.36138,-0.436526 c -0.28023,-0.337666 -0.26803,-0.482512 0.069,-0.819578 0.5252,-0.525193 1.5295,-0.05907 1.5295,0.709875 0,0.644811 -1.09222,0.719768 -1.59853,0.109703 z m -38.63769,-0.902787 c 0.58124,-0.296528 1.35828,-0.539142 1.72676,-0.539142 0.4055,0 0.93945,-0.302465 1.35269,-0.766248 1.65955,-1.862566 5.63553,-2.888685 12.02135,-3.102463 2.25557,-0.07551 4.25403,-0.186302 4.44102,-0.246204 0.26592,-0.08519 0.24661,-0.289482 -0.0887,-0.937816 -0.23575,-0.455898 -0.32746,-0.930087 -0.20379,-1.053755 0.12367,-0.123668 1.11606,0.308436 2.20533,0.960231 2.6269,1.571891 3.25246,1.524938 4.47638,-0.335987 0.75809,-1.152648 0.97317,-1.327774 1.2998,-1.058333 0.24292,0.200392 0.43035,0.222501 0.49411,0.05828 0.53927,-1.389056 2.92417,-5.829381 3.1677,-5.897783 0.47424,-0.133204 0.87373,1.682907 0.87538,3.979554 0.002,2.297897 0.13173,2.417596 1.49618,1.376878 0.94619,-0.721694 2.92303,-1.692253 3.46624,-1.701796 0.61377,-0.01078 0.33655,0.706824 -0.74988,1.94107 -0.85499,0.971323 -0.99309,1.255304 -0.66146,1.360168 0.23053,0.07289 0.59774,0.188329 0.81602,0.256522 0.21828,0.06819 0.39688,0.349408 0.39688,0.624921 0,0.552144 0.60371,0.651197 6.08542,0.998454 l 2.77812,0.17599 -0.59531,-0.648 c -0.32742,-0.3564 -0.59531,-0.736707 -0.59531,-0.845128 0,-0.10842 1.99429,-0.182418 4.43177,-0.16444 2.43747,0.01798 4.5442,0.02506 4.68161,0.01574 0.32996,-0.02238 -1.32274,-1.251235 -2.51251,-1.868163 -0.51686,-0.268006 -1.84447,-0.613119 -2.95023,-0.766917 -4.96326,-0.690325 -4.45544,-1.801045 1.50873,-3.299964 1.45521,-0.365724 3.4501,-0.803435 4.43308,-0.972691 0.98299,-0.169257 1.85482,-0.417067 1.93741,-0.55069 0.0826,-0.133622 -1.37653,-0.983695 -3.24246,-1.889051 -3.36688,-1.633616 -3.40967,-1.645968 -5.64157,-1.628561 -1.96607,0.01533 -2.54436,0.139914 -4.59732,0.990399 -3.35465,1.389743 -3.92759,1.278065 -2.81391,-0.548495 0.42779,-0.701636 0.45196,-0.859896 0.1313,-0.859896 -0.81319,0 -0.35727,-1.12812 0.99607,-2.464651 1.52503,-1.506079 4.01423,-2.862134 7.67292,-4.180016 1.27331,-0.458653 2.31511,-0.927711 2.31511,-1.042351 0,-0.287424 -1.47134,-0.584508 -2.76612,-0.558519 -1.15418,0.02317 -1.93968,0.27432 -5.43597,1.738063 -2.60305,1.089786 -3.70416,1.218199 -3.70416,0.431982 0,-0.897589 1.02792,-3.313591 1.97891,-4.651174 0.50263,-0.70697 0.85637,-1.342915 0.78607,-1.413211 -0.31486,-0.314861 -1.68848,1.096318 -2.94424,3.02474 -1.82857,2.808065 -2.46983,3.601899 -2.81634,3.486398 -0.55043,-0.183479 -1.21558,-2.680474 -1.22673,-4.605198 -0.008,-1.398134 0.30075,-3.140898 1.17002,-6.6021294 0.64957,-2.586413 1.12953,-4.754066 1.06659,-4.817008 -0.22386,-0.223864 -1.40303,0.741043 -3.88207,3.176658 -2.77536,2.726755 -3.37529,3.751203 -4.21655,7.2002534 -0.78178,3.205189 -1.03057,3.867829 -1.45217,3.867829 -0.21748,0 -0.45462,-0.358244 -0.54878,-0.829013 -0.0935,-0.467389 -0.36613,-0.881402 -0.62506,-0.949113 -0.52342,-0.136877 -1.09758,-1.345143 -1.73247,-3.645832 -0.80617,-2.9213774 -3.64724,-8.5989594 -4.30293,-8.5989594 -0.12732,0 -0.31441,1.041797 -0.41577,2.315105 -0.21552,2.707625 -0.82798,5.6233164 -1.32357,6.3010804 -0.33576,0.459171 -0.41554,0.459085 -2.16873,-0.0023 -1.00108,-0.263481 -2.55154,-0.821101 -3.44547,-1.2391554 -0.89393,-0.418055 -1.70321,-0.760099 -1.79841,-0.760099 -0.0952,0 0.20082,0.465256 0.65779,1.0339044 0.70613,0.878681 3.69199,7.979134 3.69199,8.779644 0,0.402879 -1.37864,-0.42449 -2.24896,-1.34968 -1.73621,-1.845666 -4.22742,-3.147974 -8.04608,-4.206179 -1.95575,-0.541967 -2.47417,-0.347377 -1.04436,0.392006 2.00886,1.038822 6.32659,6.349935 7.12228,8.76091 0.27327,0.827988 0.25716,1.00986 -0.11345,1.280852 -0.23756,0.173711 -0.43193,0.511072 -0.43193,0.749691 0,0.75192 -0.47842,0.485758 -2.50584,-1.394094 -2.26752,-2.10247 -2.79784,-2.284236 -7.4972,-2.569655 -4.26867,-0.259261 -4.24545,-0.09796 0.47804,3.32091 2.75529,1.994281 4.21146,3.401351 4.86564,4.701573 0.23431,0.465716 0.42603,0.912201 0.42603,0.992188 0,0.302951 -1.62005,0.128123 -2.65682,-0.286711 -1.39408,-0.557799 -3.70951,-0.367307 -5.29984,0.436021 -2.18776,1.105109 -4.78486,2.688629 -4.64271,2.83078 0.0779,0.07787 1.90834,0.233296 4.06774,0.345402 4.03357,0.209405 6.69196,0.836267 8.46043,1.995013 l 0.69707,0.456741 -0.58321,0.472254 c -0.34235,0.277218 -0.47159,0.541239 -0.31294,0.639291 0.71976,0.444833 0.19634,0.863037 -1.25108,0.999601 -2.97657,0.28084 -5.38786,1.480082 -6.43768,3.201748 -0.27811,0.456087 -0.5061,0.915599 -0.50664,1.021138 -10e-4,0.225832 0.88651,-0.09129 2.36071,-0.843372 z m 22.73765,-5.316566 c -0.54437,-0.304643 -3.37405,-4.434294 -4.31019,-6.290299 -1.05081,-2.083359 -0.83501,-2.451624 0.73423,-1.252984 0.70553,0.538901 1.33394,0.928657 1.39647,0.866124 0.0625,-0.06253 -0.009,-0.435614 -0.15829,-0.829072 -0.14959,-0.393457 -0.27199,-0.892951 -0.27199,-1.109986 0,-0.629844 1.4955,0.359431 2.48325,1.642675 0.82417,1.070716 0.83207,1.110314 0.8052,4.035835 -0.0149,1.62498 -0.0773,3.004688 -0.13864,3.066017 -0.0613,0.06133 -0.30435,0.0036 -0.54004,-0.12831 z"
           id="path123" />
        <path
           style="vector-effect:non-scaling-stroke;fill:none;stroke:#ff0000;stroke-width:0.264583;stroke-dasharray:none;stroke-opacity:1;-inkscape-stroke:hairline"
           d="m 56.197944,91.655658 c -0.75102,-0.36346 -2.45605,-0.83722 -3.78895,-1.0528 -1.3329,-0.21558 -2.92108,-0.63801 -3.52929,-0.93874 -0.6145,-0.30383 -2.51655,-1.97778 -4.28084,-3.76745 -1.74625,-1.77138 -3.74055,-3.60461 -4.43177,-4.07385 -0.90688,-0.61564 -1.25677,-1.02807 -1.25677,-1.48138 0,-0.43405 -0.53152,-1.11857 -1.7198,-2.21486 -1.42764,-1.31711 -1.71979,-1.73044 -1.71979,-2.43309 0,-1.09539 -0.51341,-2.05112 -1.71979,-3.20141 -1.37808,-1.31402 -1.71979,-2.11597 -1.71979,-4.03611 0,-1.41339 -0.12641,-1.88046 -0.79375,-2.93274 -0.92294,-1.45532 -0.95053,-1.72918 -0.34454,-3.41987 0.37387,-1.04312 0.4002,-1.45392 0.15259,-2.38125 -0.23566,-0.88257 -0.21416,-1.598451 0.1012,-3.369621 0.80714,-4.53307 0.64196,-4.242252 3.31995,-5.845346 2.33182,-1.395865 3.07723,-2.192905 2.77862,-2.971068 -0.11015,-0.287056 -0.45103,-0.34924 -1.35556,-0.247286 -1.74416,0.196591 -2.03223,-0.136781 -1.8257,-2.11276 l 0.16702,-1.598035 -1.03377,0.218607 c -1.90791,0.403457 -2.87753,0.312886 -2.95909,-0.276404 -0.0684,-0.494257 0.2072,-0.950995 2.56342,-4.248201 l 0.90267,-1.263175 -0.753,-0.600425 c -0.41415,-0.330233 -2.27046,-1.498942 -4.12512,-2.59713 -1.85467,-1.098189 -3.45032,-2.123232 -3.54589,-2.277874 -0.227,-0.367293 0.30055,-0.983993 1.4554,-1.701343 0.75641,-0.469858 5.54222,-2.481983 7.47836,-3.144176 0.25466,-0.0871 0.46302,-0.254708 0.46302,-0.372467 0,-0.117759 -1.16822,-1.615309 -2.59605,-3.32789 -1.42783,-1.712581 -2.79812,-3.455861 -3.04509,-3.873955 -0.40609,-0.687452 -0.40971,-0.799504 -0.0379,-1.171339 0.76143,-0.761426 2.46264,-1.014856 5.48646,-0.817321 l 2.87054,0.187522 -0.44732,-1.022155 c -0.98928,-2.260551 -2.48137,-6.067151 -2.48809,-6.347571 -0.0303,-1.2623639 2.52382,-1.2491509 6.49211,0.03359 1.67926,0.542816 3.12397,0.916162 3.21048,0.829658 0.19994,-0.199937 -0.98411,-1.9965309 -2.21031,-3.3537949 -1.3138,-1.454213 -1.08583,-1.82766 1.15737,-1.895943 3.90617,-0.118905 4.98843,0.05269 7.80983,1.238301 0.62138,0.261115 0.88933,-0.507556 1.55082,-4.448806 0.57491,-3.42543103 1.04452,-4.856633 1.67267,-5.097677 0.55527,-0.213076 1.61754,0.594013 5.51393,4.189366 1.85676,1.713305 3.49761,3.115099 3.64633,3.115099 0.14872,0 0.33406,-0.165904 0.41187,-0.368675 0.34111,-0.888926 10.16705,-7.724519 10.77074,-7.492861 0.35616,0.13667 0.51096,1.41250297 1.13848,9.382891 0.0956,1.214422 0.29311,2.182812 0.44518,2.182812 0.31466,0 1.82476,-0.863346 3.89588,-2.227344 0.79142,-0.521211 1.65002,-0.947656 1.908,-0.947656 0.73084,0 0.58956,1.35891 -0.45388,4.3656249 -0.50501,1.455209 -0.92067,2.73513 -0.92368,2.844271 -0.003,0.109141 0.56008,0.19914 1.2513,0.199997 3.11695,0.0039 8.3897,1.172771 9.08853,2.014811 0.46421,0.55933 -0.11383,1.643942 -2.38416,4.473605 -1.03165,1.285809 -1.87572,2.482041 -1.87572,2.658294 0,0.176252 0.74414,0.622154 1.65364,0.990892 3.49589,1.417328 8.26329,3.604359 8.33664,3.824408 0.0422,0.126646 -0.1353,0.422175 -0.39448,0.656731 -0.5435,0.491856 -5.56681,3.371367 -5.88136,3.371367 -0.11554,0 -0.34902,0.167425 -0.51885,0.372056 -0.25302,0.304877 0.10403,0.603463 1.97744,1.653646 1.25742,0.704874 2.60218,1.549748 2.98836,1.877498 0.66373,0.563306 0.67616,0.616044 0.22719,0.963935 -0.26122,0.202415 -1.03045,0.451329 -1.70939,0.553143 -0.67894,0.101813 -1.87143,0.423442 -2.64996,0.71473 -1.7716,0.66284 -2.04375,1.240128 -1.45402,3.084266 0.52462,1.64053 0.22877,2.157809 -1.23412,2.157809 -0.98008,0 -2.15503,0.597177 -1.82476,0.927448 0.0973,0.09733 0.93876,0.271438 1.86985,0.386909 3.01098,0.373413 4.20025,1.411832 5.93507,5.182242 l 1.00437,2.182867 1.195,0.160883 c 1.27685,0.171902 3.522,1.327431 4.335936,2.231609 0.81126,0.901197 0.38944,1.36346 -1.244166,1.36346 -1.1979,0 -1.59234,0.13163 -2.4557,0.81952 -2.48803,1.98235 -3.83965,2.29938 -6.02806,1.41389 -0.48206,-0.19505 -0.4963,-0.056 -0.36584,3.571631 0.12518,3.48085 0.0874,3.91144 -0.48503,5.53321 -0.34142,0.96724 -0.62328,2.32642 -0.62635,3.02039 -0.004,0.88721 -0.24121,1.70334 -0.79933,2.74923 -0.587,1.10002 -0.79375,1.8428 -0.79375,2.85172 0,1.24479 -0.0934,1.45548 -1.06667,2.40584 -0.64535,0.63017 -1.27981,1.61805 -1.60629,2.50109 -0.40383,1.09222 -0.83992,1.69257 -1.73284,2.38556 -0.65626,0.50933 -1.54578,1.43102 -1.9767,2.04822 -1.24235,1.77937 -7.03447,5.3407 -9.40071,5.78011 -0.55981,0.10395 -1.25596,0.33576 -1.547,0.51512 -0.29255,0.18029 -1.96001,0.40134 -3.72907,0.49436 -1.75995,0.0925 -4.20073,0.34438 -5.42396,0.55965 -2.9221,0.51425 -3.30055,0.49206 -4.91247,-0.28804 z"
           id="path124" />
      </g>
      <circle
         style="vector-effect:non-scaling-stroke;fill:none;stroke:#ff0000;stroke-width:0.264583;stroke-dasharray:none;stroke-opacity:1;-inkscape-stroke:hairline"
         id="path192"
         cx="63.010735"
         cy="31.101599"
         r="2" />
    </g>
  </g>
</svg>
